<?xml version="1.0" encoding="utf-8" standalone="no"?>
<!DOCTYPE svg PUBLIC "-//W3C//DTD SVG 1.1//EN"
  "http://www.w3.org/Graphics/SVG/1.1/DTD/svg11.dtd">
<svg xmlns:xlink="http://www.w3.org/1999/xlink" width="460.8pt" height="345.6pt" viewBox="0 0 460.8 345.6" xmlns="http://www.w3.org/2000/svg" version="1.1">
 <metadata>
  <rdf:RDF xmlns:dc="http://purl.org/dc/elements/1.1/" xmlns:cc="http://creativecommons.org/ns#" xmlns:rdf="http://www.w3.org/1999/02/22-rdf-syntax-ns#">
   <cc:Work>
    <dc:type rdf:resource="http://purl.org/dc/dcmitype/StillImage"/>
    <dc:date>2022-11-28T11:31:33.250535</dc:date>
    <dc:format>image/svg+xml</dc:format>
    <dc:creator>
     <cc:Agent>
      <dc:title>Matplotlib v3.6.2, https://matplotlib.org/</dc:title>
     </cc:Agent>
    </dc:creator>
   </cc:Work>
  </rdf:RDF>
 </metadata>
 <defs>
  <style type="text/css">*{stroke-linejoin: round; stroke-linecap: butt}</style>
 </defs>
 <g id="figure_1">
  <g id="patch_1">
   <path d="M 0 345.6 
L 460.8 345.6 
L 460.8 0 
L 0 0 
z
" style="fill: #ffffff"/>
  </g>
  <g id="axes_1">
   <g id="patch_2">
    <path d="M 57.6 307.584 
L 414.72 307.584 
L 414.72 41.472 
L 57.6 41.472 
z
" style="fill: #ffffff"/>
   </g>
   <g id="matplotlib.axis_1">
    <g id="xtick_1">
     <g id="line2d_1">
      <defs>
       <path id="m6852d9da18" d="M 0 0 
L 0 3.5 
" style="stroke: #000000; stroke-width: 0.8"/>
      </defs>
      <g>
       <use xlink:href="#m6852d9da18" x="73.832727" y="307.584" style="stroke: #000000; stroke-width: 0.8"/>
      </g>
     </g>
     <g id="text_1">
      <text style="font: 10px 'IPAexGothic'; text-anchor: middle" x="73.832727" y="322.074625" transform="rotate(-0 73.832727 322.074625)">0.0</text>
     </g>
    </g>
    <g id="xtick_2">
     <g id="line2d_2">
      <g>
       <use xlink:href="#m6852d9da18" x="138.765109" y="307.584" style="stroke: #000000; stroke-width: 0.8"/>
      </g>
     </g>
     <g id="text_2">
      <text style="font: 10px 'IPAexGothic'; text-anchor: middle" x="138.765109" y="322.074625" transform="rotate(-0 138.765109 322.074625)">0.2</text>
     </g>
    </g>
    <g id="xtick_3">
     <g id="line2d_3">
      <g>
       <use xlink:href="#m6852d9da18" x="203.69749" y="307.584" style="stroke: #000000; stroke-width: 0.8"/>
      </g>
     </g>
     <g id="text_3">
      <text style="font: 10px 'IPAexGothic'; text-anchor: middle" x="203.69749" y="322.074625" transform="rotate(-0 203.69749 322.074625)">0.4</text>
     </g>
    </g>
    <g id="xtick_4">
     <g id="line2d_4">
      <g>
       <use xlink:href="#m6852d9da18" x="268.629872" y="307.584" style="stroke: #000000; stroke-width: 0.8"/>
      </g>
     </g>
     <g id="text_4">
      <text style="font: 10px 'IPAexGothic'; text-anchor: middle" x="268.629872" y="322.074625" transform="rotate(-0 268.629872 322.074625)">0.6</text>
     </g>
    </g>
    <g id="xtick_5">
     <g id="line2d_5">
      <g>
       <use xlink:href="#m6852d9da18" x="333.562253" y="307.584" style="stroke: #000000; stroke-width: 0.8"/>
      </g>
     </g>
     <g id="text_5">
      <text style="font: 10px 'IPAexGothic'; text-anchor: middle" x="333.562253" y="322.074625" transform="rotate(-0 333.562253 322.074625)">0.8</text>
     </g>
    </g>
    <g id="xtick_6">
     <g id="line2d_6">
      <g>
       <use xlink:href="#m6852d9da18" x="398.494635" y="307.584" style="stroke: #000000; stroke-width: 0.8"/>
      </g>
     </g>
     <g id="text_6">
      <text style="font: 10px 'IPAexGothic'; text-anchor: middle" x="398.494635" y="322.074625" transform="rotate(-0 398.494635 322.074625)">1.0</text>
     </g>
    </g>
    <g id="text_7">
     <text style="font: 10px 'IPAexGothic'; text-anchor: middle" x="236.16" y="335.924625" transform="rotate(-0 236.16 335.924625)">時間[s]</text>
    </g>
   </g>
   <g id="matplotlib.axis_2">
    <g id="ytick_1">
     <g id="line2d_7">
      <defs>
       <path id="m734546969b" d="M 0 0 
L -3.5 0 
" style="stroke: #000000; stroke-width: 0.8"/>
      </defs>
      <g>
       <use xlink:href="#m734546969b" x="57.6" y="274.650295" style="stroke: #000000; stroke-width: 0.8"/>
      </g>
     </g>
     <g id="text_8">
      <text style="font: 10px 'IPAexGothic'; text-anchor: end" x="50.6" y="278.395608" transform="rotate(-0 50.6 278.395608)">−4000</text>
     </g>
    </g>
    <g id="ytick_2">
     <g id="line2d_8">
      <g>
       <use xlink:href="#m734546969b" x="57.6" y="219.886289" style="stroke: #000000; stroke-width: 0.8"/>
      </g>
     </g>
     <g id="text_9">
      <text style="font: 10px 'IPAexGothic'; text-anchor: end" x="50.6" y="223.631601" transform="rotate(-0 50.6 223.631601)">−2000</text>
     </g>
    </g>
    <g id="ytick_3">
     <g id="line2d_9">
      <g>
       <use xlink:href="#m734546969b" x="57.6" y="165.122282" style="stroke: #000000; stroke-width: 0.8"/>
      </g>
     </g>
     <g id="text_10">
      <text style="font: 10px 'IPAexGothic'; text-anchor: end" x="50.6" y="168.867594" transform="rotate(-0 50.6 168.867594)">0</text>
     </g>
    </g>
    <g id="ytick_4">
     <g id="line2d_10">
      <g>
       <use xlink:href="#m734546969b" x="57.6" y="110.358275" style="stroke: #000000; stroke-width: 0.8"/>
      </g>
     </g>
     <g id="text_11">
      <text style="font: 10px 'IPAexGothic'; text-anchor: end" x="50.6" y="114.103588" transform="rotate(-0 50.6 114.103588)">2000</text>
     </g>
    </g>
    <g id="ytick_5">
     <g id="line2d_11">
      <g>
       <use xlink:href="#m734546969b" x="57.6" y="55.594268" style="stroke: #000000; stroke-width: 0.8"/>
      </g>
     </g>
     <g id="text_12">
      <text style="font: 10px 'IPAexGothic'; text-anchor: end" x="50.6" y="59.339581" transform="rotate(-0 50.6 59.339581)">4000</text>
     </g>
    </g>
    <g id="text_13">
     <text style="font: 10px 'IPAexGothic'; text-anchor: middle" x="12.723438" y="174.528" transform="rotate(-90 12.723438 174.528)">振幅</text>
    </g>
   </g>
   <g id="line2d_12">
    <path d="M 73.832727 165.122282 
L 73.854813 165.067518 
L 73.876899 166.683056 
L 73.898985 163.369834 
L 73.99469 117.724034 
L 74.009414 141.026119 
L 74.046224 99.679294 
L 74.127205 168.955762 
L 74.134567 166.05327 
L 74.156653 195.324632 
L 74.215549 215.696842 
L 74.237634 177.581093 
L 74.384873 129.060183 
L 74.267082 184.64565 
L 74.392235 129.279239 
L 74.56156 176.020319 
L 74.723523 112.877419 
L 74.782419 118.49073 
L 75.003277 259.67234 
L 75.047449 248.527864 
L 75.422908 123.775457 
L 75.43027 124.158805 
L 75.437632 124.104041 
L 75.46708 111.809521 
L 75.489166 126.294601 
L 75.525975 124.925501 
L 75.6953 242.503823 
L 75.710024 236.726221 
L 76.203275 103.759212 
L 75.739472 243.325284 
L 76.26217 118.874078 
L 76.431495 232.126044 
L 76.446219 227.060374 
L 76.939469 99.542384 
L 76.475667 232.591538 
L 76.998365 116.409698 
L 77.16769 224.623375 
L 77.175052 223.500713 
L 77.440082 154.881413 
L 77.211861 224.897195 
L 77.454806 160.549487 
L 77.462168 161.206655 
L 77.476892 153.375402 
L 77.675664 96.995857 
L 77.683026 100.03526 
L 77.903885 220.023199 
L 77.948056 219.311267 
L 78.021676 202.745154 
L 78.043762 202.936829 
L 78.338239 107.401019 
L 78.411859 95.544611 
L 78.433945 108.605827 
L 78.537012 171.693963 
L 78.640079 216.929032 
L 78.684251 215.587314 
L 78.846214 179.634744 
L 79.015539 128.758981 
L 79.103882 95.024353 
L 79.184863 111.480937 
L 79.192225 111.124971 
L 79.199587 112.630981 
L 79.376274 214.492034 
L 79.43517 208.331083 
L 79.847439 93.764781 
L 79.898972 101.54127 
L 80.119831 212.93126 
L 80.156641 210.220441 
L 80.502652 121.311076 
L 80.576272 92.614737 
L 80.635167 101.212686 
L 80.819216 211.808598 
L 80.885473 209.152543 
L 81.06216 182.564618 
L 81.319828 92.149243 
L 81.091608 183.249168 
L 81.371362 101.376978 
L 81.555411 212.849114 
L 81.636392 205.127389 
L 81.813079 181.825304 
L 81.820441 182.920584 
L 81.835165 185.05638 
L 81.871975 172.241603 
L 81.879336 173.008299 
L 81.901422 164.355586 
L 82.056023 91.546839 
L 82.092833 97.105385 
L 82.151729 124.569535 
L 82.291606 213.369372 
L 82.365225 205.346445 
L 82.549274 183.577752 
L 82.57136 186.890975 
L 82.593445 178.512081 
L 82.792218 91.163491 
L 82.865837 116.354934 
L 83.0278 213.971776 
L 83.123506 198.939056 
L 83.285469 185.768312 
L 83.29283 185.932604 
L 83.307554 187.712435 
L 83.337002 178.265643 
L 83.454793 114.24652 
L 83.528413 90.971817 
L 83.579946 101.979382 
L 83.763995 214.272978 
L 83.8597 197.679484 
L 84.117369 162.822194 
L 84.264608 90.971817 
L 84.301417 99.460238 
L 84.345589 122.926615 
L 84.50019 214.081304 
L 84.595895 196.967552 
L 84.713686 188.479131 
L 84.735772 192.312611 
L 84.743134 192.504285 
L 84.750496 191.381623 
L 84.912459 122.625413 
L 85.000802 91.108727 
L 85.044974 101.513888 
L 85.125956 156.360041 
L 85.243747 213.725338 
L 85.287918 206.688163 
L 85.449881 189.136299 
L 85.501415 189.985141 
L 85.523501 190.395871 
L 85.538225 187.575525 
L 85.729635 91.108727 
L 85.795893 108.140333 
L 85.979941 213.862248 
L 86.038837 203.484469 
L 86.134542 188.670805 
L 86.186076 189.875613 
L 86.222886 194.722228 
L 86.274419 189.245827 
L 86.46583 91.136109 
L 86.532088 108.907029 
L 86.716136 213.4789 
L 86.775032 202.608244 
L 86.870737 188.643423 
L 86.914909 191.600679 
L 86.959081 196.11871 
L 87.076872 152.061066 
L 87.202025 91.546839 
L 87.246197 102.444876 
L 87.33454 158.851803 
L 87.452331 213.287226 
L 87.489141 204.935715 
L 87.511227 201.951076 
L 87.606932 188.588659 
L 87.643742 192.805487 
L 87.665828 191.162567 
L 87.687913 196.283002 
L 87.695275 197.405664 
L 87.746809 191.545915 
L 87.930858 90.834907 
L 88.011839 115.916822 
L 88.188526 213.643192 
L 88.232698 204.415457 
L 88.350489 189.136299 
L 88.416746 194.503171 
L 88.43147 197.89854 
L 88.490366 188.396985 
L 88.667053 89.931301 
L 88.725948 105.867626 
L 88.932083 213.670574 
L 89.013064 193.298363 
L 89.057236 188.451749 
L 89.138217 192.230465 
L 89.167665 197.871158 
L 89.204475 191.053039 
L 89.219199 191.381623 
L 89.403247 89.082458 
L 89.491591 122.926615 
L 89.624106 214.738472 
L 89.697725 204.963097 
L 89.793431 188.177929 
L 89.889136 193.900767 
L 89.911222 197.679484 
L 89.962755 188.205311 
L 90.139442 88.753874 
L 90.198338 106.387885 
L 90.360301 215.505168 
L 90.456006 200.691504 
L 90.529625 187.110031 
L 90.588521 191.847117 
L 90.647417 198.610472 
L 90.691588 190.669691 
L 90.765208 139.903457 
L 90.875637 87.74074 
L 90.912447 95.571993 
L 91.030238 180.757406 
L 91.096495 216.244482 
L 91.162753 206.523871 
L 91.26582 187.055267 
L 91.317354 190.423253 
L 91.383611 199.760516 
L 91.427783 190.478017 
L 91.494041 146.995396 
L 91.60447 86.754988 
L 91.648641 94.750533 
L 91.766433 181.168136 
L 91.83269 216.107572 
L 91.898948 206.304815 
L 92.002015 186.781447 
L 92.053549 190.614927 
L 92.119806 200.0891 
L 92.156616 190.970893 
L 92.186064 178.019205 
L 92.348027 86.754988 
L 92.377474 93.710017 
L 92.43637 125.171939 
L 92.576247 215.368258 
L 92.642504 203.155885 
L 92.73821 186.918357 
L 92.789743 190.916129 
L 92.856001 200.198628 
L 92.892811 190.395871 
L 92.92962 169.667694 
L 93.076859 87.028808 
L 93.121031 96.147015 
L 93.202012 152.25274 
L 93.30508 214.98491 
L 93.371337 205.839321 
L 93.474405 187.602907 
L 93.518576 189.902995 
L 93.592196 199.431932 
L 93.621644 191.080421 
L 93.687901 153.430166 
L 93.820416 87.1931 
L 93.87195 102.280584 
L 94.048637 216.244482 
L 94.122256 201.348672 
L 94.210599 186.863593 
L 94.269495 192.504285 
L 94.328391 199.240258 
L 94.3652 189.355355 
L 94.424096 152.745616 
L 94.549249 86.262112 
L 94.608145 102.91037 
L 94.784831 216.737358 
L 94.851089 204.415457 
L 94.946794 187.767199 
L 94.998328 190.614927 
L 95.064585 199.67837 
L 95.101395 189.081535 
L 95.182377 134.208 
L 95.285444 86.179966 
L 95.329615 95.982723 
L 95.432683 172.214221 
L 95.521026 218.40766 
L 95.587284 205.675029 
L 95.682989 188.643423 
L 95.741885 193.051925 
L 95.80078 198.555708 
L 95.83759 187.767199 
L 95.925933 124.733827 
L 96.021639 85.41327 
L 96.06581 95.845813 
L 96.168878 175.198859 
L 96.257221 220.050581 
L 96.316117 210.576407 
L 96.419184 189.327973 
L 96.463355 191.600679 
L 96.470717 191.545915 
L 96.500165 199.13073 
L 96.566423 189.108917 
L 96.757833 86.179966 
L 96.838815 123.309963 
L 96.993416 220.433929 
L 97.067035 204.990479 
L 97.155379 190.313725 
L 97.221636 195.625834 
L 97.23636 198.610472 
L 97.302618 189.108917 
L 97.494028 87.33001 
L 97.560286 111.426173 
L 97.729611 220.160109 
L 97.781144 213.971776 
L 97.891573 190.231579 
L 97.950469 192.312611 
L 97.972555 198.500944 
L 98.038812 188.506513 
L 98.222861 88.589582 
L 98.296481 112.959565 
L 98.465805 218.900537 
L 98.517339 212.630058 
L 98.627768 189.766085 
L 98.686664 191.573297 
L 98.70875 197.07708 
L 98.775007 187.246941 
L 98.966418 90.013447 
L 99.032675 113.069093 
L 99.202 219.612469 
L 99.253534 213.34199 
L 99.371325 189.957759 
L 99.430221 193.736475 
L 99.444944 196.80326 
L 99.511202 188.616041 
L 99.702613 89.301514 
L 99.761508 107.592693 
L 99.945557 219.941053 
L 99.997091 211.370486 
L 100.100158 188.752951 
L 100.159053 190.532781 
L 100.181139 196.419912 
L 100.247397 187.548143 
L 100.424083 87.987178 
L 100.490341 102.855606 
L 100.67439 220.023199 
L 100.777457 201.430818 
L 100.880524 190.286343 
L 100.909972 195.187722 
L 100.924696 196.283002 
L 100.97623 189.355355 
L 101.16764 86.64546 
L 101.24126 110.769005 
L 101.425308 219.064829 
L 101.484204 207.947735 
L 101.601995 192.860251 
L 101.638805 195.29725 
L 101.660891 197.131844 
L 101.712424 188.917243 
L 101.896473 84.619192 
L 101.970093 104.799728 
L 102.161503 219.229121 
L 102.235123 207.098893 
L 102.514877 142.176163 
L 102.632668 83.35962 
L 102.67684 90.122975 
L 102.794631 178.62161 
L 102.897698 221.392299 
L 102.949232 214.218214 
L 103.24371 145.763205 
L 103.368863 81.114295 
L 103.413034 87.905032 
L 103.538188 183.9611 
L 103.633893 222.350669 
L 103.692788 214.57418 
L 103.987266 137.466458 
L 104.105058 81.278587 
L 104.149229 88.28838 
L 104.296468 200.061718 
L 104.37745 223.117365 
L 104.428983 215.587314 
L 104.723461 134.75564 
L 104.841252 80.019015 
L 104.885424 87.165718 
L 105.113644 224.240027 
L 105.231436 204.278547 
L 105.393398 180.620496 
L 105.577447 79.608285 
L 105.651067 102.691314 
L 105.849839 225.472217 
L 105.930821 213.780102 
L 106.173765 148.172822 
L 106.313642 78.074893 
L 106.365176 87.87765 
L 106.586034 226.540115 
L 106.681739 214.245596 
L 106.895236 157.729141 
L 107.049837 79.142791 
L 107.094008 86.563314 
L 107.329591 227.115138 
L 107.469468 209.672801 
L 107.631431 154.03257 
L 107.786032 78.239185 
L 107.822841 84.235844 
L 107.911185 146.91325 
L 108.058424 228.51162 
L 108.102595 223.884061 
L 108.109957 223.911443 
L 108.213024 208.303701 
L 108.367625 152.690852 
L 108.522226 79.005881 
L 108.551674 82.839362 
L 108.647379 146.831104 
L 108.80198 227.608014 
L 108.83879 224.103117 
L 108.868238 220.379165 
L 109.118544 137.548604 
L 109.258421 82.100048 
L 109.295231 88.644346 
L 109.376212 141.080883 
L 109.538175 227.635396 
L 109.560261 225.006723 
L 109.574985 225.143633 
L 109.611795 220.050581 
L 109.773757 189.464883 
L 110.001978 81.223823 
L 110.075597 110.440421 
L 110.27437 227.115138 
L 110.355351 221.501827 
L 110.362713 221.638737 
L 110.377437 219.913671 
L 110.583572 141.710669 
L 110.738173 80.977385 
L 110.752897 83.22271 
L 110.870688 158.632747 
L 111.062098 227.443722 
L 111.076822 224.650757 
L 111.275595 172.898771 
L 111.474367 79.389229 
L 111.496453 83.715586 
L 111.592159 143.298825 
L 111.754121 228.429474 
L 111.783569 227.96398 
L 111.798293 229.634282 
L 111.864551 224.376937 
L 111.967618 199.733134 
L 112.210562 79.334465 
L 112.291544 111.645229 
L 112.534488 230.236686 
L 112.586022 228.758058 
L 112.725899 189.382737 
L 112.946757 77.965365 
L 112.998291 91.738513 
L 113.278045 231.906988 
L 113.366388 226.184149 
L 113.425284 210.357351 
L 113.682952 77.801073 
L 113.719762 86.590696 
L 113.822829 161.316183 
L 114.01424 233.385616 
L 114.036325 231.879606 
L 114.058411 233.905874 
L 114.095221 229.031878 
L 114.117307 226.266295 
L 114.264546 136.727144 
L 114.419147 77.034377 
L 114.433871 78.732061 
L 114.559024 160.275667 
L 114.750434 235.521413 
L 114.765158 235.110683 
L 114.794606 236.644075 
L 114.80933 234.207076 
L 114.949207 175.363151 
L 115.155341 76.979613 
L 115.162703 77.499871 
L 115.236323 111.480937 
L 115.516077 239.245365 
L 115.530801 239.683477 
L 115.560249 235.302357 
L 115.60442 224.787667 
L 115.876812 77.664163 
L 115.965156 106.880761 
L 116.24491 239.628713 
L 116.266996 241.874037 
L 116.318529 235.357121 
L 116.465768 132.619844 
L 116.627731 75.446221 
L 116.642455 78.403477 
L 116.767608 159.618499 
L 116.995828 246.00872 
L 117.00319 246.337304 
L 117.025276 242.941935 
L 117.098896 218.68148 
L 117.363926 74.186649 
L 117.41546 90.478941 
L 117.739385 247.78855 
L 117.820367 225.965093 
L 118.070673 74.241413 
L 118.159016 94.805297 
L 118.47558 251.430357 
L 118.490304 249.540998 
L 118.586009 207.838207 
L 118.806868 72.954458 
L 118.828954 73.474716 
L 118.887849 90.889671 
L 119.211775 254.962635 
L 119.278032 238.889399 
L 119.557786 72.29729 
L 119.616682 87.685976 
L 119.719749 163.068632 
L 119.94797 257.344869 
L 119.962694 255.811477 
L 120.036313 225.828183 
L 120.279257 72.242526 
L 120.352877 87.412156 
L 120.470668 172.296367 
L 120.684164 258.631823 
L 120.691526 258.440149 
L 120.750422 241.983565 
L 121.015452 70.92819 
L 121.089072 87.165718 
L 121.236311 193.079307 
L 121.420359 262.054574 
L 121.457169 256.331735 
L 121.523427 215.751606 
L 121.744285 69.96982 
L 121.781095 72.242526 
L 121.847352 97.653025 
L 122.156554 263.560584 
L 122.171278 262.027192 
L 122.237535 234.973772 
L 122.48048 70.407932 
L 122.546737 80.676183 
L 122.892749 264.05346 
L 122.981092 229.33308 
L 123.216675 70.490078 
L 123.282932 80.183307 
L 123.415447 168.900998 
L 123.628944 266.572604 
L 123.665753 261.31526 
L 123.739373 210.521643 
L 123.945507 69.28527 
L 123.974955 69.997202 
L 123.989679 70.490078 
L 124.063299 101.376978 
L 124.365138 270.652523 
L 124.401948 267.06548 
L 124.475568 214.875382 
L 124.696426 69.093596 
L 124.71115 69.14836 
L 124.718512 69.093596 
L 124.725874 69.394798 
L 124.799493 99.542384 
L 125.108695 272.322825 
L 125.145505 266.599986 
L 125.24121 179.059722 
L 125.425259 69.28527 
L 125.439983 69.476944 
L 125.476793 73.611626 
L 125.572498 125.254085 
L 125.84489 275.992014 
L 125.8817 269.392951 
L 125.984767 170.187952 
L 126.161454 65.698228 
L 126.18354 65.807756 
L 126.198263 66.629216 
L 126.293969 112.329779 
L 126.573723 278.81236 
L 126.610533 275.252699 
L 126.691514 206.551253 
L 126.912372 65.068441 
L 126.919734 65.260115 
L 126.963906 74.186649 
L 127.066973 139.766547 
L 127.31728 282.700604 
L 127.354089 275.471756 
L 127.464519 161.316183 
L 127.641205 64.192217 
L 127.648567 64.685093 
L 127.670653 65.588699 
L 127.766358 110.851151 
L 128.053474 282.152964 
L 128.082922 278.209956 
L 128.178628 189.245827 
L 128.384762 63.343375 
L 128.421572 67.998316 
L 128.539363 139.876075 
L 128.789669 284.316143 
L 128.841203 267.257154 
L 129.106233 62.795735 
L 129.201938 85.029922 
L 129.525864 286.123355 
L 129.58476 263.670112 
L 129.84979 63.179083 
L 129.930771 80.867857 
L 130.269421 288.341297 
L 130.320954 265.668998 
L 130.600708 62.165949 
L 130.666966 79.635667 
L 131.005616 287.738893 
L 131.049787 271.337073 
L 131.314817 62.467151 
L 131.403161 79.717813 
L 131.74181 289.765161 
L 131.800706 260.90453 
L 132.051012 60.906377 
L 132.139356 78.485623 
L 132.470643 291.462846 
L 132.536901 263.149854 
L 132.816655 59.865861 
L 132.868188 72.84493 
L 133.206838 292.88671 
L 133.287819 251.019626 
L 133.55285 57.894357 
L 133.567573 58.743199 
L 133.663279 108.523681 
L 133.943033 293.16053 
L 133.979843 287.026961 
L 134.11972 136.973582 
L 134.296406 56.16929 
L 134.31113 58.880109 
L 134.428921 131.250744 
L 134.679228 294.25581 
L 134.752847 259.94616 
L 135.032601 54.882336 
L 135.069411 66.13634 
L 135.275545 204.470221 
L 135.415422 294.557012 
L 135.466956 278.045664 
L 135.768796 53.896584 
L 135.82033 71.0651 
L 136.151617 294.858214 
L 136.232599 252.032761 
L 136.504991 55.922852 
L 136.519715 58.414615 
L 136.711125 176.595341 
L 136.887812 295.488 
L 136.946708 273.390723 
L 137.241186 55.429976 
L 137.277995 66.328014 
L 137.44732 173.090445 
L 137.624007 294.146282 
L 137.682902 272.240679 
L 137.97738 54.170404 
L 138.021552 67.943552 
L 138.249772 223.172129 
L 138.367564 295.35109 
L 138.419097 274.841969 
L 138.713575 54.498988 
L 138.757747 67.23162 
L 138.985967 222.186377 
L 139.103758 295.460618 
L 139.155292 276.046778 
L 139.44977 53.84182 
L 139.501304 69.942438 
L 139.773696 264.026078 
L 139.839953 294.283192 
L 139.891487 275.636048 
L 140.185965 53.568 
L 140.24486 72.872312 
L 140.576148 293.626024 
L 140.649767 256.304353 
L 140.914798 55.457358 
L 140.951607 61.946893 
L 141.11357 157.154119 
L 141.312343 292.284306 
L 141.3786 262.41054 
L 141.658354 54.52637 
L 141.695164 63.562431 
L 141.879213 175.417915 
L 142.0559 292.092632 
L 142.107433 268.681019 
L 142.387187 54.033494 
L 142.460807 77.335579 
L 142.792094 290.477093 
L 142.858352 256.660319 
L 143.130744 53.677528 
L 143.174916 65.424407 
L 143.439946 247.186146 
L 143.528289 290.559239 
L 143.572461 274.650295 
L 143.866939 53.97873 
L 143.94792 84.673956 
L 144.264484 288.094859 
L 144.330741 257.344869 
L 144.603134 54.38946 
L 144.662029 71.530594 
L 144.919697 250.38984 
L 145.000679 287.355545 
L 145.052212 268.489345 
L 145.339328 53.923966 
L 145.412948 77.965365 
L 145.736874 286.041209 
L 145.803131 258.960407 
L 146.068161 55.128774 
L 146.141781 74.378323 
L 146.48043 286.260265 
L 146.561412 242.668115 
L 146.811718 54.553752 
L 146.892699 80.019015 
L 147.216625 283.768503 
L 147.297607 242.640733 
L 147.547913 55.21092 
L 147.628894 80.950003 
L 147.864476 244.393182 
L 147.95282 283.248244 
L 147.996992 268.270289 
L 148.166316 130.292374 
L 148.284108 54.854954 
L 148.335641 65.588699 
L 148.689015 280.701718 
L 148.769996 243.900306 
L 149.027664 56.03238 
L 149.12337 92.094479 
L 149.425209 278.26472 
L 149.484105 257.974655 
L 149.756497 57.620537 
L 149.844841 83.989406 
L 150.161404 276.046778 
L 150.25711 236.452401 
L 150.500054 59.099165 
L 150.595759 93.354051 
L 150.897599 273.171667 
L 150.963857 253.292333 
L 151.228887 60.742085 
L 151.339316 97.214913 
L 151.633794 271.227545 
L 151.729499 238.779871 
L 151.876738 115.533474 
L 151.972443 61.481399 
L 152.031339 76.103389 
L 152.377351 269.584625 
L 152.473056 236.452401 
L 152.708638 61.152815 
L 152.826429 101.021012 
L 152.98103 198.090214 
L 153.113545 266.599986 
L 153.165079 257.180577 
L 153.304956 164.82108 
L 153.444833 63.452903 
L 153.503729 76.596265 
L 153.84974 262.903416 
L 153.952808 235.959525 
L 154.181028 66.191104 
L 154.298819 101.513888 
L 154.468144 206.523871 
L 154.593297 259.94616 
L 154.637469 253.839973 
L 154.747898 197.515192 
L 154.924585 66.9578 
L 154.976118 78.266567 
L 155.174891 181.743158 
L 155.329492 257.618689 
L 155.366302 254.031647 
L 155.425197 237.739355 
L 155.557712 128.156577 
L 155.660779 67.834024 
L 155.719675 80.210689 
L 155.874276 152.66347 
L 156.065687 255.044781 
L 156.131944 246.96709 
L 156.235011 190.669691 
L 156.396974 69.83291 
L 156.45587 80.374981 
L 156.617833 155.538581 
L 156.809243 254.168557 
L 156.860777 250.855334 
L 156.971206 194.256733 
L 157.140531 71.010336 
L 157.192065 80.977385 
L 157.354027 153.950424 
L 157.574886 252.689929 
L 157.596972 250.855334 
L 157.677953 219.776761 
L 157.876726 71.722268 
L 157.965069 89.575334 
L 158.318443 250.718424 
L 158.406786 226.019857 
L 158.612921 73.419952 
L 158.72335 96.366071 
L 158.863227 176.321521 
L 159.054637 251.895851 
L 159.061999 251.594649 
L 159.113533 243.736014 
L 159.223962 159.289915 
L 159.356477 76.048625 
L 159.400649 81.442879 
L 159.55525 142.313073 
L 159.798194 250.280312 
L 159.805556 250.25293 
L 159.827642 249.29456 
L 159.886538 227.991362 
L 160.092672 76.815321 
L 160.203101 97.516115 
L 160.35034 183.084876 
L 160.549113 250.882716 
L 160.578561 249.02074 
L 160.65218 210.275205 
L 160.836229 78.348713 
L 160.895124 85.824 
L 161.057087 159.317297 
L 161.29267 251.101772 
L 161.300032 250.882716 
L 161.351565 237.602445 
L 161.572424 79.909487 
L 161.697577 103.04728 
L 161.85954 200.390302 
L 162.043588 252.142289 
L 162.058312 250.280312 
L 162.139294 201.786784 
L 162.308619 81.798846 
L 162.360152 85.796618 
L 162.485305 126.623185 
L 162.772421 253.073277 
L 162.809231 248.637392 
L 162.890212 190.258961 
L 163.052175 82.456014 
L 163.103709 86.590696 
L 163.199414 113.616733 
L 163.515978 254.387613 
L 163.552788 249.02074 
L 163.648493 172.132075 
L 163.817818 85.96091 
L 163.832542 86.700224 
L 163.965057 127.389881 
L 164.252173 255.318601 
L 164.288983 250.52675 
L 164.369964 189.957759 
L 164.561375 86.837134 
L 164.576098 87.932414 
L 164.679166 112.986947 
L 164.99573 255.674567 
L 165.047263 242.449059 
L 165.297569 88.5622 
L 165.378551 100.199552 
L 165.481618 151.486044 
L 165.731924 257.098431 
L 165.761372 254.223321 
L 165.82763 209.919239 
L 166.033764 90.013447 
L 166.048488 90.697997 
L 166.144193 109.153467 
L 166.468119 257.700835 
L 166.527015 241.381161 
L 166.777321 89.986065 
L 166.85094 98.720924 
L 166.976094 158.331545 
L 167.204314 258.933025 
L 167.241124 255.181691 
L 167.336829 177.663239 
L 167.513516 92.204007 
L 167.520878 92.340917 
L 167.601859 101.623416 
L 167.771184 183.030112 
L 167.940509 259.508048 
L 168.006766 240.532319 
L 168.293882 91.026581 
L 168.32333 96.776801 
L 168.404311 128.868509 
L 168.691427 260.849766 
L 168.713513 258.713969 
L 168.801857 190.012523 
L 169.007991 92.642119 
L 169.030077 91.382547 
L 169.052163 94.969589 
L 169.169954 141.655905 
L 169.42026 261.835518 
L 169.486518 239.628713 
L 169.766272 91.984951 
L 169.79572 95.955341 
L 169.869339 119.914594 
L 170.163817 264.245134 
L 170.215351 247.350438 
L 170.509829 93.162377 
L 170.561362 102.143674 
L 170.914736 264.573718 
L 170.980993 226.868699 
L 171.223938 94.285039 
L 171.238661 93.244523 
L 171.282833 98.39234 
L 171.356453 125.226703 
L 171.643569 263.971314 
L 171.695102 244.530092 
L 171.982218 93.846927 
L 172.02639 98.693542 
L 172.261972 201.18438 
L 172.379763 264.245134 
L 172.431297 245.406316 
L 172.725775 94.449331 
L 172.762585 98.857834 
L 172.865652 134.728258 
L 173.12332 264.87492 
L 173.19694 224.459083 
L 173.432522 98.66616 
L 173.46197 95.571993 
L 173.513503 101.81509 
L 173.749086 206.934601 
L 173.859515 264.628482 
L 173.903687 248.829066 
L 174.198165 96.694655 
L 174.242336 99.734058 
L 174.426385 162.192407 
L 174.59571 264.683246 
L 174.661967 234.39875 
L 174.934359 96.886329 
L 174.941721 96.502981 
L 174.978531 98.857834 
L 175.147856 152.197976 
L 175.331905 265.121358 
L 175.405524 229.825956 
L 175.663192 98.200666 
L 175.677916 96.776801 
L 175.736812 102.91037 
L 175.928222 177.115599 
L 176.068099 265.340414 
L 176.119633 246.939708 
L 176.421473 97.269677 
L 176.458283 99.460238 
L 176.642331 156.935063 
L 176.804294 265.888054 
L 176.86319 243.81816 
L 177.16503 95.927959 
L 177.179753 96.420835 
L 177.209201 99.405474 
L 177.371164 150.19909 
L 177.540489 265.039212 
L 177.606746 239.190601 
L 177.908586 96.475599 
L 177.915948 96.475599 
L 177.967482 102.937752 
L 178.129445 165.724686 
L 178.276684 265.449942 
L 178.335579 245.351552 
L 178.652143 96.913711 
L 178.659505 96.804183 
L 178.681591 98.091138 
L 178.806744 125.418377 
L 178.946621 235.028537 
L 179.012879 264.409426 
L 179.064412 249.760054 
L 179.3957 97.023239 
L 179.410424 97.488733 
L 179.506129 111.809521 
L 179.594472 154.388537 
L 179.749073 264.765392 
L 179.807969 246.55636 
L 180.15398 96.174397 
L 180.212876 102.937752 
L 180.293857 125.938635 
L 180.49263 264.272516 
L 180.588335 219.366031 
L 180.860727 96.585127 
L 180.882813 95.462465 
L 180.912261 97.078003 
L 181.007966 113.151239 
L 181.140482 217.5862 
L 181.228825 262.766506 
L 181.280359 248.144516 
L 181.633732 95.216027 
L 181.66318 97.242295 
L 181.69999 100.71981 
L 181.780971 129.443531 
L 181.957658 263.012944 
L 182.038639 235.740469 
L 182.369927 93.983837 
L 182.384651 94.586241 
L 182.480356 108.058187 
L 182.612871 217.531436 
L 182.701214 263.067708 
L 182.752748 248.911212 
L 183.113484 92.532591 
L 183.135569 93.901691 
L 183.150293 93.463579 
L 183.172379 95.079117 
L 183.253361 125.637433 
L 183.437409 261.616462 
L 183.518391 233.16656 
L 183.886488 90.889671 
L 183.901212 91.382547 
L 183.960108 105.265222 
L 184.173604 261.534316 
L 184.276671 222.432815 
L 184.593235 90.561087 
L 184.607959 90.670615 
L 184.630045 89.274132 
L 184.659493 92.559973 
L 184.733112 126.513657 
L 184.909799 261.014058 
L 184.976056 242.230003 
L 185.373602 87.247864 
L 185.395687 90.424177 
L 185.469307 124.460007 
L 185.645994 259.343756 
L 185.712251 242.120475 
L 186.109796 85.303742 
L 186.131882 87.822886 
L 186.19814 116.7109 
L 186.38955 258.412767 
L 186.46317 236.972659 
L 186.845991 83.113182 
L 186.904887 95.654139 
L 187.125745 256.797229 
L 187.228813 225.280543 
L 187.589548 81.689317 
L 187.626358 87.905032 
L 187.714701 154.251626 
L 187.86194 255.756713 
L 187.913474 245.789664 
L 188.318381 78.677297 
L 188.392 100.199552 
L 188.598135 253.429243 
L 188.686478 231.715314 
L 189.061938 77.280815 
L 189.128195 98.364958 
L 189.33433 252.197053 
L 189.422673 232.75583 
L 189.650893 120.653908 
L 189.805494 76.651029 
L 189.834942 82.702452 
L 189.915924 142.641657 
L 190.070524 250.417222 
L 190.122058 244.3658 
L 190.365002 135.193752 
L 190.534327 74.624761 
L 190.556413 77.061759 
L 190.622671 113.151239 
L 190.806719 247.980224 
L 190.865615 240.285881 
L 191.108559 132.537698 
L 191.270522 72.653256 
L 191.307332 78.896353 
L 191.403037 155.018323 
L 191.550276 246.775416 
L 191.594448 242.339531 
L 191.79322 168.65456 
L 192.006717 72.324672 
L 192.036165 75.802187 
L 192.117146 130.757868 
L 192.293833 244.256272 
L 192.330643 240.833521 
L 192.544139 161.918587 
L 192.742912 71.530594 
L 192.779721 77.636781 
L 192.875427 152.608706 
L 193.022666 242.722879 
L 193.074199 239.245365 
L 193.250886 184.974234 
L 193.479106 70.10673 
L 193.515916 75.829569 
L 193.626345 164.68417 
L 193.773584 240.614465 
L 193.810394 238.232231 
L 193.972357 196.173474 
L 194.222663 68.819776 
L 194.266835 80.758329 
L 194.524503 238.862017 
L 194.62757 229.88072 
L 194.723276 189.492265 
L 194.958858 66.766126 
L 194.995668 75.665277 
L 195.135545 193.161453 
L 195.26806 237.492917 
L 195.297508 236.288109 
L 195.371127 231.277202 
L 195.45947 192.942397 
L 195.695053 66.300632 
L 195.739224 78.951117 
L 196.018978 236.288109 
L 196.122046 229.853338 
L 196.239837 165.697304 
L 196.431248 66.13634 
L 196.468057 74.898581 
L 196.814069 236.425019 
L 196.880326 224.705521 
L 197.064375 107.866513 
L 197.167442 66.163722 
L 197.211614 78.321331 
L 197.557626 237.410771 
L 197.587073 234.070166 
L 197.653331 208.303701 
L 197.903637 67.122092 
L 197.955171 83.113182 
L 198.29382 238.067939 
L 198.337992 232.947504 
L 198.470507 154.826649 
L 198.639832 66.930418 
L 198.684004 79.197555 
L 199.030015 238.341759 
L 199.066825 234.727334 
L 199.147806 197.925922 
L 199.376027 67.259002 
L 199.42756 83.90726 
L 199.76621 238.998927 
L 199.788296 237.520299 
L 199.847191 220.461311 
L 200.112222 66.82089 
L 200.185841 97.050621 
L 200.472957 236.178581 
L 200.509767 239.957297 
L 200.553938 234.480896 
L 200.686453 154.662357 
L 200.848416 66.218486 
L 200.89995 82.592924 
L 201.253323 241.408543 
L 201.290133 236.534547 
L 201.407924 166.929494 
L 201.577249 66.41016 
L 201.628783 78.814207 
L 201.982156 243.325284 
L 202.026328 238.752489 
L 202.180929 141.710669 
L 202.320806 66.54707 
L 202.364978 78.513005 
L 202.718351 243.325284 
L 202.762523 238.944163 
L 202.880314 170.407008 
L 203.049639 67.176856 
L 203.101172 79.142791 
L 203.454546 243.790778 
L 203.498718 239.738241 
L 203.616509 171.639199 
L 203.793196 67.77926 
L 203.837367 79.964251 
L 204.198103 244.064598 
L 204.256998 232.701066 
L 204.522028 69.01145 
L 204.625096 113.014329 
L 204.897488 238.150085 
L 204.934298 245.652754 
L 204.993193 234.727334 
L 205.258223 69.257888 
L 205.353929 106.606941 
L 205.670492 246.28254 
L 205.685216 246.00872 
L 205.714664 241.709745 
L 205.847179 159.864937 
L 205.994418 70.271022 
L 206.045952 81.333351 
L 206.414049 247.295674 
L 206.458221 240.340645 
L 206.620184 130.37452 
L 206.730613 71.640122 
L 206.789508 86.809752 
L 207.150244 247.980224 
L 207.201777 238.286995 
L 207.371102 119.887212 
L 207.466808 72.680638 
L 207.518341 83.934642 
L 207.893801 248.117134 
L 207.93061 241.572835 
L 208.077849 144.476251 
L 208.203002 73.940211 
L 208.254536 85.112068 
L 208.629995 249.267178 
L 208.696253 230.866472 
L 208.939197 74.898581 
L 209.042264 112.001195 
L 209.36619 249.924346 
L 209.373552 249.486234 
L 209.425086 235.001154 
L 209.66803 76.322445 
L 209.785821 115.61562 
L 210.102385 250.088638 
L 210.124471 247.92546 
L 210.205452 210.165677 
L 210.411587 77.061759 
L 210.485206 96.420835 
L 210.83858 250.499368 
L 210.904837 233.522526 
L 211.147782 79.197555 
L 211.250849 110.960679 
L 211.574775 250.992244 
L 211.626308 241.216869 
L 211.788271 127.143443 
L 211.883976 82.182194 
L 211.93551 90.588469 
L 212.318331 249.650526 
L 212.399313 223.226893 
L 212.627533 85.029922 
L 212.701153 102.882988 
L 213.054526 249.787436 
L 213.120784 231.79746 
L 213.356366 87.220482 
L 213.452071 109.755871 
L 213.798083 249.15765 
L 213.86434 227.991362 
L 214.092561 89.79439 
L 214.188266 110.276129 
L 214.526916 248.801684 
L 214.607897 224.376937 
L 214.836118 93.080231 
L 214.931823 113.972699 
L 215.270473 249.075504 
L 215.351454 220.652985 
L 215.56495 95.818431 
L 215.653294 110.714241 
L 215.925686 222.679253 
L 216.006667 249.267178 
L 216.058201 236.890513 
L 216.315869 97.461351 
L 216.411574 116.327552 
L 216.632433 201.649874 
L 216.742862 248.226662 
L 216.787034 239.327511 
L 216.926911 147.378744 
L 217.044702 99.870968 
L 217.088874 103.950886 
L 217.317094 167.394988 
L 217.479057 247.432584 
L 217.545314 229.250934 
L 217.788259 104.14256 
L 217.86924 115.177508 
L 218.045927 161.672149 
L 218.215252 246.063484 
L 218.274147 232.235572 
L 218.524454 106.689087 
L 218.612797 117.313304 
L 218.796846 167.504516 
L 218.951447 245.378934 
L 219.010342 231.742696 
L 219.26801 109.016557 
L 219.34163 117.176394 
L 219.525678 161.644767 
L 219.687641 244.393182 
L 219.746537 231.52364 
L 220.004205 111.699993 
L 220.085187 119.257426 
L 220.232425 146.420374 
L 220.431198 243.571722 
L 220.519541 213.095552 
L 220.7404 114.136992 
L 220.791934 117.477596 
L 220.946534 137.712896 
L 221.064326 202.69039 
L 221.160031 241.846655 
L 221.211565 232.75583 
L 221.469233 116.902574 
L 221.587024 123.173053 
L 221.719539 149.295484 
L 221.903588 241.107341 
L 221.977207 218.955301 
L 222.212789 120.297942 
L 222.271685 121.940862 
L 222.337943 124.925501 
L 222.433648 139.301053 
L 222.639782 239.437039 
L 222.728126 210.904992 
L 222.963708 122.077772 
L 222.985794 122.680177 
L 223.000518 122.433739 
L 223.04469 123.802839 
L 223.052052 123.748075 
L 223.059414 123.748075 
L 223.147757 131.551946 
L 223.2361 171.310615 
L 223.375977 238.396523 
L 223.427511 227.69016 
L 223.788246 123.446873 
L 223.80297 123.830221 
L 223.854504 126.020781 
L 223.950209 155.209997 
L 224.112172 236.753603 
L 224.163706 226.704407 
L 224.546527 124.158805 
L 224.63487 132.044822 
L 224.7453 194.119823 
L 224.848367 235.274975 
L 224.899901 225.335307 
L 225.267998 124.350479 
L 225.31217 123.638547 
L 225.341617 125.144557 
L 225.415237 147.18707 
L 225.584562 234.070166 
L 225.643457 222.022085 
L 225.982107 126.705331 
L 226.048364 122.652795 
L 226.092536 125.993399 
L 226.158794 149.952652 
L 226.320756 232.810594 
L 226.379652 221.419681 
L 226.725664 126.541039 
L 226.791921 122.351593 
L 226.836093 126.157691 
L 226.931798 173.720231 
L 227.064313 231.66055 
L 227.108485 223.391185 
L 227.50603 123.419491 
L 227.535478 122.132537 
L 227.572288 125.035029 
L 227.653269 161.918587 
L 227.793146 229.825956 
L 227.84468 221.939939 
L 228.271673 122.269447 
L 228.279035 122.378975 
L 228.315844 125.610051 
L 228.41155 175.061949 
L 228.536703 227.909216 
L 228.580875 220.735131 
L 229.000506 121.858716 
L 229.007868 121.584896 
L 229.044677 123.802839 
L 229.118297 154.087334 
L 229.272898 225.910329 
L 229.324431 217.44929 
L 229.692529 127.033915 
L 229.744062 121.119402 
L 229.795596 125.746961 
L 229.891301 177.252509 
L 230.009092 224.048353 
L 230.053264 217.86002 
L 230.494981 120.653908 
L 230.517067 122.187301 
L 230.583324 145.735823 
L 230.745287 222.651871 
L 230.796821 215.368258 
L 231.187004 124.323097 
L 231.238538 120.462234 
L 231.275347 125.199321 
L 231.378415 183.68728 
L 231.481482 220.543457 
L 231.533016 213.944394 
L 231.893751 130.757868 
L 231.967371 120.516998 
L 232.018904 126.814859 
L 232.217677 218.243368 
L 232.320744 194.119823 
L 232.526879 153.703986 
L 232.710927 119.147898 
L 232.777185 134.016326 
L 232.961234 216.90165 
L 233.020129 206.879837 
L 233.366141 133.194866 
L 233.454484 119.03837 
L 233.498656 126.924387 
L 233.697428 215.203966 
L 233.77841 198.117596 
L 233.999268 158.249399 
L 234.190679 118.299056 
L 234.242213 128.567307 
L 234.433623 213.34199 
L 234.514605 197.186608 
L 234.720739 162.575756 
L 234.867978 127.581555 
L 234.926874 118.90146 
L 234.971045 125.911253 
L 235.169818 210.959756 
L 235.258161 192.969779 
L 235.44221 167.066404 
L 235.567363 138.315301 
L 235.663069 118.76455 
L 235.714602 127.937521 
L 235.913375 208.796577 
L 235.986994 194.722228 
L 236.178405 168.764088 
L 236.252024 154.196862 
L 236.399263 119.202662 
L 236.458159 130.23761 
L 236.64957 206.797691 
L 236.715827 195.70798 
L 236.921962 169.33911 
L 237.025029 144.859599 
L 237.14282 118.244292 
L 237.186992 125.746961 
L 237.385764 204.798805 
L 237.459384 192.723341 
L 237.636071 173.692849 
L 237.724414 157.263647 
L 237.879015 118.983606 
L 237.93791 131.771002 
L 238.129321 202.27966 
L 238.180855 194.530553 
L 238.372265 175.089331 
L 238.431161 166.436618 
L 238.622572 119.339572 
L 238.674105 131.907912 
L 238.865516 200.718886 
L 238.91705 193.243599 
L 239.042203 176.458431 
L 239.10846 176.951307 
L 239.14527 172.405895 
L 239.358766 120.161032 
L 239.432386 142.121399 
L 239.594349 198.58309 
L 239.63852 194.256733 
L 239.756312 177.006071 
L 239.822569 179.44307 
L 239.852017 178.347789 
L 239.925636 164.13653 
L 240.094961 120.434852 
L 240.153857 134.75564 
L 240.337905 196.337766 
L 240.382077 191.135185 
L 240.477783 177.197745 
L 240.551402 180.428822 
L 240.610298 176.732251 
L 240.823794 120.653908 
L 240.904775 140.943973 
L 241.0741 194.804374 
L 241.11091 190.916129 
L 241.213977 177.307273 
L 241.272873 181.49672 
L 241.287597 182.31818 
L 241.346492 178.731138 
L 241.493731 136.371178 
L 241.559989 120.68129 
L 241.618884 130.949542 
L 241.802933 191.956645 
L 241.869191 185.357582 
L 241.94281 178.073969 
L 241.994344 181.743158 
L 242.031154 184.399212 
L 242.082687 180.67526 
L 242.303546 121.557514 
L 242.377165 140.204659 
L 242.54649 190.505399 
L 242.590662 186.206424 
L 242.679005 178.210879 
L 242.723177 182.099124 
L 242.767348 186.315952 
L 242.826244 181.524102 
L 243.03974 122.077772 
L 243.120722 142.805949 
L 243.282685 188.424367 
L 243.319494 185.275436 
L 243.400476 178.101351 
L 243.444648 181.90745 
L 243.503543 187.000503 
L 243.555077 183.659898 
L 243.775935 122.625413 
L 243.864279 145.516767 
L 244.011518 185.87784 
L 244.048327 184.152774 
L 244.136671 177.416801 
L 244.17348 180.94908 
L 244.254462 187.904109 
L 244.298634 183.112258 
L 244.467958 131.223362 
L 244.51213 122.762323 
L 244.571026 133.140102 
L 244.755074 183.933718 
L 244.806608 180.620496 
L 244.843418 177.526329 
L 244.902313 180.67526 
L 244.975933 189.601793 
L 245.034828 184.837324 
L 245.248325 123.748075 
L 245.336668 144.448869 
L 245.498631 181.49672 
L 245.528079 179.8538 
L 245.594336 176.951307 
L 245.623784 179.908564 
L 245.712128 190.450635 
L 245.771023 185.658784 
L 245.991882 123.939749 
L 246.072863 143.627409 
L 246.227464 179.525216 
L 246.264274 178.265643 
L 246.308445 176.595341 
L 246.352617 179.634744 
L 246.448322 191.628061 
L 246.507218 186.507626 
L 246.720714 124.624299 
L 246.809058 143.326207 
L 246.978383 177.690621 
L 247.000468 176.841779 
L 247.037278 176.102465 
L 247.074088 177.909677 
L 247.184517 192.668577 
L 247.236051 188.260075 
L 247.464271 124.980265 
L 247.537891 140.286805 
L 247.714577 176.431049 
L 247.744025 175.636971 
L 247.766111 175.363151 
L 247.795559 176.294139 
L 247.928074 193.982913 
L 247.986969 186.836211 
L 248.200466 125.966017 
L 248.281447 142.997623 
L 248.458134 174.760747 
L 248.487582 174.130961 
L 248.583287 184.755178 
L 248.656907 194.475789 
L 248.70844 190.067287 
L 248.899851 131.688856 
L 248.944023 126.458893 
L 248.988194 133.167484 
L 249.231139 172.871389 
L 249.282672 178.073969 
L 249.393102 195.352014 
L 249.451997 189.683939 
L 249.599236 144.585779 
L 249.680218 127.088679 
L 249.731751 135.631864 
L 249.967333 171.940401 
L 250.040953 183.249168 
L 250.129296 197.049698 
L 250.18083 192.422139 
L 250.328069 148.364496 
L 250.40905 128.211341 
L 250.467946 136.015212 
L 250.732976 174.760747 
L 250.872853 197.022316 
L 250.931749 189.930377 
L 251.152607 128.649453 
L 251.248312 146.77634 
L 251.483895 177.498947 
L 251.594324 197.323518 
L 251.660582 191.409005 
L 251.896164 130.319756 
L 251.984507 145.900115 
L 252.286347 193.325745 
L 252.345243 198.44618 
L 252.389414 193.462655 
L 252.536653 151.814628 
L 252.624997 130.949542 
L 252.683892 138.397447 
L 253.074076 198.72 
L 253.110885 196.228238 
L 253.250762 161.370947 
L 253.368553 132.01744 
L 253.420087 138.726031 
L 253.81027 199.075966 
L 253.84708 196.748496 
L 254.016405 151.102696 
L 254.097386 133.003192 
L 254.156282 138.780795 
L 254.546465 199.185494 
L 254.612723 192.449521 
L 254.759962 149.295484 
L 254.840943 134.153236 
L 254.892477 139.328435 
L 255.275298 199.514078 
L 255.356279 191.436387 
L 255.577138 135.275898 
L 255.687567 147.351362 
L 255.893702 173.638085 
L 256.018855 199.568842 
L 256.070388 195.29725 
L 256.217627 157.154119 
L 256.320695 136.480706 
L 256.364866 140.314187 
L 256.637258 175.773881 
L 256.75505 199.075966 
L 256.799221 195.817508 
L 256.939098 163.561508 
L 257.056889 137.466458 
L 257.108423 141.546377 
L 257.380815 178.62161 
L 257.483882 198.939056 
L 257.535416 194.996048 
L 257.660569 168.65456 
L 257.77836 138.151008 
L 257.85198 142.641657 
L 258.109648 176.841779 
L 258.212715 199.322404 
L 258.271611 195.406778 
L 258.41885 161.836441 
L 258.529279 139.465345 
L 258.573451 141.655905 
L 258.794309 159.673263 
L 258.956272 198.500944 
L 259.02253 192.832869 
L 259.118235 174.048815 
L 259.265474 139.629637 
L 259.331731 143.572645 
L 259.523142 157.044591 
L 259.685105 198.528326 
L 259.751362 193.955531 
L 259.920687 152.909908 
L 260.001669 140.807063 
L 260.060564 143.463117 
L 260.274061 160.795925 
L 260.4213 197.652102 
L 260.502281 191.901881 
L 260.605348 170.461772 
L 260.737863 141.957107 
L 260.796759 144.284577 
L 260.848293 145.106037 
L 260.892464 144.202431 
L 260.91455 144.996509 
L 260.921912 144.969127 
L 260.929274 145.188183 
L 261.024979 164.848462 
L 261.157494 197.62472 
L 261.21639 194.284115 
L 261.370991 161.781677 
L 261.474058 143.517881 
L 261.525592 144.229813 
L 261.547678 145.352475 
L 261.621297 143.572645 
L 261.636021 143.408353 
L 261.665469 144.092903 
L 261.731726 154.854031 
L 261.901051 196.830642 
L 261.952585 193.626947 
L 262.12191 157.866051 
L 262.217615 144.859599 
L 262.276511 145.407239 
L 262.31332 143.983375 
L 262.372216 141.655905 
L 262.416388 143.901229 
L 262.504731 167.093786 
L 262.629884 196.830642 
L 262.681418 194.147205 
L 262.821295 169.968896 
L 263.012705 145.516767 
L 263.042153 144.010757 
L 263.101049 140.478479 
L 263.159944 142.860713 
L 263.248288 168.92838 
L 263.366079 196.11871 
L 263.417613 194.037677 
L 263.542766 174.788129 
L 263.756262 146.612048 
L 263.866691 140.314187 
L 263.903501 143.490499 
L 264.102274 196.11871 
L 264.220065 187.438615 
L 264.35258 154.826649 
L 264.499819 146.283463 
L 264.595524 139.218907 
L 264.639696 142.669039 
L 264.735401 174.870275 
L 264.838468 195.461542 
L 264.890002 193.435273 
L 265.007793 177.498947 
L 265.22129 148.528788 
L 265.324357 139.574873 
L 265.383253 144.010757 
L 265.574663 195.43416 
L 265.685093 188.287457 
L 265.795522 162.849576 
L 265.950123 149.706214 
L 266.031104 141.409467 
L 266.067914 138.890323 
L 266.112085 142.367837 
L 266.31822 193.900767 
L 266.436011 185.658784 
L 266.796747 138.096244 
L 266.84828 141.765433 
L 266.966071 182.72891 
L 267.054415 193.544801 
L 267.105948 191.217331 
L 267.260549 164.766316 
L 267.41515 151.239606 
L 267.547665 137.439076 
L 267.599199 144.202431 
L 267.775886 193.161453 
L 267.864229 188.917243 
L 267.945211 178.293025 
L 268.173431 149.678832 
L 268.239688 140.505861 
L 268.269136 137.411694 
L 268.328032 142.258309 
L 268.512081 192.668577 
L 268.615148 187.739817 
L 268.703491 172.296367 
L 268.872816 153.265874 
L 268.953797 143.490499 
L 269.012693 137.22002 
L 269.064227 142.477365 
L 269.233551 191.792353 
L 269.336619 188.177929 
L 269.4176 177.991823 
L 269.623735 152.964672 
L 269.748888 137.110492 
L 269.807783 144.777453 
L 269.977108 191.737589 
L 270.043366 189.300591 
L 270.139071 180.182384 
L 270.477721 137.274784 
L 270.492445 136.727144 
L 270.529254 140.998737 
L 270.705941 190.532781 
L 270.823732 186.179042 
L 270.934161 166.518764 
L 271.088762 154.799267 
L 271.221277 136.562852 
L 271.287535 147.05016 
L 271.442136 189.191063 
L 271.501031 187.821963 
L 271.611461 179.826418 
L 271.883853 147.433508 
L 271.964834 137.466458 
L 272.009006 143.435735 
L 272.193055 188.150547 
L 272.303484 184.344448 
L 272.406551 165.50563 
L 272.55379 157.510085 
L 272.634771 145.407239 
L 272.701029 137.63075 
L 272.745201 143.490499 
L 272.921887 187.274323 
L 272.980783 185.357582 
L 273.054402 182.674146 
L 273.437224 137.740278 
L 273.488757 145.872733 
L 273.665444 185.713548 
L 273.709616 184.590886 
L 273.812683 179.388306 
L 274.033542 159.344679 
L 274.173419 138.506975 
L 274.232314 149.049046 
L 274.386915 184.892088 
L 274.438449 183.714662 
L 274.563602 176.458431 
L 274.681393 160.494723 
L 274.747651 161.562621 
L 274.813908 153.21111 
L 274.909613 139.054615 
L 274.953785 145.051273 
L 275.12311 183.769426 
L 275.204091 182.208652 
L 275.262987 180.428822 
L 275.329244 169.503402 
L 275.402864 160.138757 
L 275.461759 161.973351 
L 275.476483 162.466228 
L 275.520655 159.070859 
L 275.645808 139.574873 
L 275.697342 147.87162 
L 275.844581 182.701528 
L 275.910838 181.825304 
L 275.969734 181.989596 
L 275.984458 181.277664 
L 276.080163 166.436618 
L 276.139059 160.357813 
L 276.205316 162.959104 
L 276.242126 161.562621 
L 276.352555 142.641657 
L 276.382003 140.779681 
L 276.418813 145.982261 
L 276.588138 181.852686 
L 276.705929 180.894316 
L 276.772186 173.911905 
L 276.875253 160.330431 
L 276.941511 163.506744 
L 276.948873 163.58889 
L 276.970959 162.740048 
L 277.066664 146.557284 
L 277.118198 141.546377 
L 277.162369 148.41926 
L 277.31697 181.551484 
L 277.397952 180.100238 
L 277.420038 180.319294 
L 277.493657 175.801263 
L 277.611448 159.782791 
L 277.69243 163.232924 
L 277.743963 158.523219 
L 277.854393 142.997623 
L 277.898564 149.624068 
L 278.053165 180.784788 
L 278.126785 179.662126 
L 278.134147 179.689508 
L 278.141509 179.497834 
L 278.170956 180.100238 
L 278.237214 174.048815 
L 278.340281 159.755409 
L 278.399177 163.04125 
L 278.421263 164.027002 
L 278.465434 161.234037 
L 278.583225 143.545263 
L 278.634759 150.774112 
L 278.774636 179.771654 
L 278.840894 178.183497 
L 278.907151 178.566846 
L 278.877703 177.964441 
L 278.921875 178.183497 
L 278.980771 171.830873 
L 279.076476 159.864937 
L 279.12801 163.123396 
L 279.164819 164.41035 
L 279.201629 161.644767 
L 279.326782 144.859599 
L 279.370954 152.225358 
L 279.510831 178.785902 
L 279.591812 177.252509 
L 279.650708 177.854913 
L 279.702242 173.911905 
L 279.805309 159.673263 
L 279.864204 163.287688 
L 279.901014 164.985372 
L 279.937824 162.603138 
L 280.055615 145.735823 
L 280.107149 153.265874 
L 280.247026 177.991823 
L 280.305921 176.157229 
L 280.386903 177.334655 
L 280.328007 176.102465 
L 280.408989 176.184611 
L 280.541504 159.810173 
L 280.651933 165.341338 
L 280.732914 153.731368 
L 280.79181 147.406126 
L 280.835982 153.019436 
L 280.968497 177.471565 
L 281.034754 175.363151 
L 281.05684 174.788129 
L 281.115736 176.075083 
L 281.123097 176.129847 
L 281.137821 175.636971 
L 281.270336 159.372061 
L 281.343956 164.793698 
L 281.366042 166.409236 
L 281.424937 162.520992 
L 281.528005 148.912136 
L 281.572176 154.580211 
L 281.697329 176.485813 
L 281.756225 174.486927 
L 281.778311 173.884523 
L 281.844568 174.952421 
L 281.85193 175.089331 
L 281.881378 174.076197 
L 282.006531 158.523219 
L 282.087513 165.122282 
L 282.11696 166.436618 
L 282.15377 163.86271 
L 282.264199 150.308618 
L 282.308371 155.976693 
L 282.433524 175.965555 
L 282.49242 173.364265 
L 282.52923 172.844007 
L 282.573401 174.130961 
L 282.595487 174.404781 
L 282.610211 173.692849 
L 282.698554 161.316183 
L 282.742726 157.783905 
L 282.79426 162.356699 
L 282.845793 166.299708 
L 282.904689 162.329317 
L 282.98567 151.97892 
L 283.044566 157.811287 
L 283.154995 175.144095 
L 283.221253 172.405895 
L 283.258062 171.420143 
L 283.316958 173.008299 
L 283.339044 172.926153 
L 283.397939 165.861596 
L 283.471559 157.044591 
L 283.523093 161.206655 
L 283.58935 167.01164 
L 283.640884 163.58889 
L 283.729227 153.34802 
L 283.780761 159.454207 
L 283.876466 175.034567 
L 283.942724 172.624951 
L 283.994257 170.626065 
L 284.053153 172.460659 
L 284.082601 171.693963 
L 284.163582 160.083993 
L 284.207754 156.579097 
L 284.259287 161.590003 
L 284.332907 167.55928 
L 284.38444 163.45198 
L 284.45806 155.073087 
L 284.509594 159.947083 
L 284.620023 174.788129 
L 284.678918 171.529671 
L 284.730452 169.667694 
L 284.789348 171.474907 
L 284.79671 171.474907 
L 284.855605 166.710438 
L 284.936587 155.894547 
L 284.995482 160.467341 
L 285.076464 166.87473 
L 285.120635 163.260306 
L 285.194255 155.976693 
L 285.245788 161.151891 
L 285.341494 174.897657 
L 285.400389 172.104693 
L 285.474009 168.873616 
L 285.525542 170.516537 
L 285.532904 170.626065 
L 285.55499 169.859368 
L 285.643334 156.551715 
L 285.680143 154.990941 
L 285.724315 159.153005 
L 285.82002 167.394988 
L 285.864192 163.205542 
L 285.93045 157.838669 
L 285.974621 162.000733 
L 286.077689 175.171477 
L 286.136584 171.036795 
L 286.19548 167.8331 
L 286.261737 169.859368 
L 286.269099 170.02366 
L 286.298547 168.216448 
L 286.408976 153.89566 
L 286.482596 161.370947 
L 286.541491 167.258078 
L 286.600387 163.972238 
L 286.659282 159.207769 
L 286.710816 163.753182 
L 286.806521 174.952421 
L 286.865417 171.091559 
L 286.931674 167.504516 
L 286.99057 169.284346 
L 286.997932 169.33911 
L 287.020018 168.92838 
L 287.049466 165.615158 
L 287.145171 153.238492 
L 287.196705 158.222017 
L 287.285048 167.394988 
L 287.343944 163.890092 
L 287.395477 160.768543 
L 287.439649 164.191294 
L 287.535354 175.828645 
L 287.586888 172.624951 
L 287.675231 166.765202 
L 287.748851 168.435504 
L 287.78566 165.423484 
L 287.881366 152.992054 
L 287.940261 158.933949 
L 288.035967 167.614044 
L 288.080138 164.382968 
L 288.116948 161.809059 
L 288.168482 165.177046 
L 288.264187 176.704869 
L 288.330445 171.830873 
L 288.411426 166.902112 
L 288.470322 169.010526 
L 288.499769 167.55928 
L 288.617561 152.197976 
L 288.676456 158.961331 
L 288.757438 167.723572 
L 288.831057 164.328204 
L 288.853143 163.7258 
L 288.897315 166.299708 
L 288.99302 177.225127 
L 289.051916 172.871389 
L 289.140259 166.19018 
L 289.213878 168.10692 
L 289.22124 168.10692 
L 289.280136 160.056611 
L 289.353755 151.212224 
L 289.405289 156.305277 
L 289.515718 167.504516 
L 289.55989 165.450866 
L 289.589338 164.985372 
L 289.618786 166.217562 
L 289.721853 177.827531 
L 289.780748 172.953535 
L 289.876454 164.766316 
L 289.935349 166.87473 
L 289.942711 167.01164 
L 289.972159 165.560394 
L 290.08995 150.253854 
L 290.156208 158.742275 
L 290.244551 167.915246 
L 290.310809 166.792584 
L 290.318171 166.628292 
L 290.347618 168.10692 
L 290.450686 179.087104 
L 290.516943 172.652333 
L 290.612648 163.342452 
L 290.671544 165.834214 
L 290.708354 164.328204 
L 290.818783 148.912136 
L 290.885041 156.086221 
L 291.054365 168.572414 
L 291.179518 180.456204 
L 291.245776 174.185725 
L 291.341481 163.17816 
L 291.407739 165.012754 
L 291.429825 164.437732 
L 291.554978 147.73471 
L 291.621235 155.894547 
L 291.805284 170.653447 
L 291.915713 182.18127 
L 291.974609 175.472679 
L 292.085038 162.49361 
L 292.143934 163.890092 
L 292.158658 163.86271 
L 292.210191 157.291029 
L 292.283811 146.612048 
L 292.342706 152.225358 
L 292.607736 181.195518 
L 292.651908 183.358696 
L 292.688718 179.908564 
L 292.821233 162.000733 
L 292.88749 163.7258 
L 292.909576 162.165025 
L 293.027367 146.119171 
L 293.086263 153.019436 
L 293.336569 181.90745 
L 293.380741 185.001616 
L 293.424913 180.072856 
L 293.550066 161.480475 
L 293.638409 161.945969 
L 293.763562 144.503633 
L 293.822458 151.924156 
L 294.080126 184.563504 
L 294.109574 186.452862 
L 294.153745 182.236034 
L 294.470309 145.160801 
L 294.492395 143.244061 
L 294.543929 148.14544 
L 294.831045 187.548143 
L 294.845769 187.931491 
L 294.875216 185.111144 
L 295.22859 142.285691 
L 295.243314 142.723803 
L 295.339019 158.933949 
L 295.567239 189.820849 
L 295.596687 188.725569 
L 295.964785 141.601141 
L 296.016318 146.310846 
L 296.310796 191.299477 
L 296.332882 190.094669 
L 296.693618 139.930839 
L 296.730427 141.902343 
L 296.848218 163.86271 
L 297.039629 193.818621 
L 297.076439 190.614927 
L 297.429812 139.164143 
L 297.437174 139.164143 
L 297.473984 141.874961 
L 297.775824 195.488924 
L 297.849443 182.263416 
L 298.040854 159.180387 
L 298.121835 143.490499 
L 298.166007 137.849806 
L 298.224903 142.860713 
L 298.504657 197.21399 
L 298.541466 194.256733 
L 298.909564 136.508088 
L 298.961098 141.765433 
L 299.240852 198.829528 
L 299.307109 187.520761 
L 299.505882 158.742275 
L 299.579501 144.750071 
L 299.645759 135.138988 
L 299.697292 140.341569 
L 299.977046 200.746268 
L 300.043304 188.342221 
L 300.286248 151.02055 
L 300.381953 134.372292 
L 300.440849 141.108265 
L 300.713241 202.224896 
L 300.772137 191.737589 
L 301.007719 153.594458 
L 301.118148 133.11272 
L 301.177044 139.985603 
L 301.442074 203.484469 
L 301.523055 187.356469 
L 301.721828 156.962445 
L 301.854343 131.74362 
L 301.935325 143.901229 
L 302.178269 205.428591 
L 302.251888 190.231579 
L 302.472747 153.868278 
L 302.590538 130.319756 
L 302.649433 137.49384 
L 302.914464 206.523871 
L 303.002807 186.01475 
L 303.208942 153.0742 
L 303.326733 129.361385 
L 303.39299 138.068862 
L 303.650658 208.385847 
L 303.724278 191.874499 
L 303.930412 155.812401 
L 304.070289 128.375633 
L 304.136547 138.452211 
L 304.386853 209.453745 
L 304.467835 189.464883 
L 304.710779 143.955993 
L 304.806484 127.608937 
L 304.850656 132.921046 
L 305.019981 184.23492 
L 305.123048 211.233576 
L 305.16722 203.511851 
L 305.498507 129.689969 
L 305.542679 126.239837 
L 305.586851 131.524564 
L 305.851881 212.219328 
L 305.940224 190.833983 
L 306.19053 139.958221 
L 306.271512 125.144557 
L 306.323046 130.64834 
L 306.499732 188.889861 
L 306.595438 213.424136 
L 306.639609 205.045243 
L 306.948811 132.592462 
L 307.007707 124.158805 
L 307.066602 130.64834 
L 307.265375 201.978458 
L 307.32427 214.71109 
L 307.375804 205.401209 
L 307.714454 125.117175 
L 307.743902 122.871851 
L 307.795435 128.074431 
L 307.950036 179.470452 
L 308.053103 215.53255 
L 308.111999 206.414343 
L 308.472734 121.803952 
L 308.480096 121.694424 
L 308.502182 122.707559 
L 308.56844 135.16637 
L 308.715679 194.092441 
L 308.79666 216.929032 
L 308.848194 207.701297 
L 309.194205 122.023008 
L 309.216291 120.54438 
L 309.267825 125.418377 
L 309.407702 172.351131 
L 309.525493 217.832638 
L 309.584389 208.823959 
L 309.952486 119.284808 
L 309.989296 121.584896 
L 310.121811 160.932835 
L 310.261688 218.54457 
L 310.320583 209.371599 
L 310.688681 118.463348 
L 310.696043 118.572876 
L 310.747576 124.295715 
L 310.894815 179.771654 
L 310.997883 219.585087 
L 311.056778 209.563273 
L 311.432237 117.724034 
L 311.461685 119.914594 
L 311.564753 146.831104 
L 311.741439 220.297019 
L 311.807697 204.689277 
L 312.146346 118.025236 
L 312.168432 117.149012 
L 312.212604 121.36584 
L 312.330395 159.837555 
L 312.477634 220.954187 
L 312.53653 208.029881 
L 312.904627 116.30017 
L 312.941437 118.956224 
L 313.044504 148.227586 
L 313.213829 221.145861 
L 313.280086 206.222669 
L 313.611374 117.203776 
L 313.640822 115.588238 
L 313.684994 119.476482 
L 313.802785 158.386309 
L 313.950024 221.529209 
L 314.008919 208.796577 
L 314.377017 114.465576 
L 314.399103 115.560856 
L 314.487446 134.75564 
L 314.678857 220.735131 
L 314.7672 201.540346 
L 315.113211 113.342913 
L 315.142659 115.20489 
L 315.223641 134.043708 
L 315.415051 220.762513 
L 315.503395 201.841548 
L 315.849406 113.370295 
L 315.893578 116.628754 
L 316.011369 156.688625 
L 316.158608 221.118479 
L 316.210142 211.671688 
L 316.592963 112.713127 
L 316.622411 114.79416 
L 316.69603 132.126968 
L 316.887441 221.118479 
L 316.983146 200.554594 
L 317.329158 112.329779 
L 317.37333 116.272788 
L 317.476397 151.869392 
L 317.623636 220.543457 
L 317.682531 211.890744 
L 318.065353 111.508319 
L 318.13161 119.147898 
L 318.264125 183.386078 
L 318.367192 220.570839 
L 318.418726 212.055036 
L 318.801547 111.289263 
L 318.867805 118.709786 
L 318.978234 168.627178 
L 319.103387 220.050581 
L 319.154921 212.082418 
L 319.537742 110.659477 
L 319.611362 119.640774 
L 319.721791 172.898771 
L 319.839582 219.366031 
L 319.891116 211.671688 
L 320.273937 109.947545 
L 320.347557 119.093134 
L 320.443262 162.548374 
L 320.575777 218.81839 
L 320.627311 211.589542 
L 320.921788 128.731599 
L 321.010132 109.947545 
L 321.061665 113.863171 
L 321.142647 140.396333 
L 321.311972 217.613582 
L 321.370867 209.590655 
L 321.753689 109.345141 
L 321.849394 126.568421 
L 322.048167 217.367144 
L 322.143872 202.635626 
L 322.394178 128.758981 
L 322.482521 109.208231 
L 322.534055 112.466689 
L 322.62976 147.351362 
L 322.791723 216.518302 
L 322.835895 211.206194 
L 323.108287 138.808177 
L 323.218716 108.742737 
L 323.27025 112.055959 
L 323.365955 147.077542 
L 323.527918 215.587314 
L 323.57209 210.795463 
L 323.859206 132.072204 
L 323.962273 108.660591 
L 324.006445 111.919049 
L 324.080064 134.591348 
L 324.264113 214.43727 
L 324.33037 207.098893 
L 324.536505 163.205542 
L 324.698468 108.058187 
L 324.742639 111.042825 
L 324.838345 145.927497 
L 324.992946 213.725338 
L 325.051841 208.906105 
L 325.23589 181.2229 
L 325.442025 108.085569 
L 325.493558 112.904801 
L 325.589263 154.443301 
L 325.729141 212.739586 
L 325.780674 209.371599 
L 325.979447 179.16925 
L 326.185581 108.386771 
L 326.229753 112.986947 
L 326.318096 149.760978 
L 326.480059 211.124048 
L 326.524231 208.002499 
L 326.693556 188.287457 
L 326.914414 107.811749 
L 326.995396 120.653908 
L 327.208892 210.275205 
L 327.348769 202.471334 
L 327.42975 189.382737 
L 327.657971 107.729603 
L 327.73159 119.914594 
L 327.959811 209.344217 
L 328.084964 203.730907 
L 328.173307 187.602907 
L 328.401528 107.674839 
L 328.445699 113.288149 
L 328.548767 161.370947 
L 328.703368 208.495375 
L 328.725453 207.920353 
L 328.880054 198.500944 
L 328.97576 154.333772 
L 329.13036 107.839131 
L 329.159808 109.482051 
L 329.233428 131.60671 
L 329.439562 207.372713 
L 329.491096 206.989365 
L 329.586801 204.908333 
L 329.660421 183.742044 
L 329.866555 107.811749 
L 329.910727 111.453555 
L 329.99907 147.022778 
L 330.190481 206.578635 
L 330.205205 206.304815 
L 330.293548 207.838207 
L 330.322996 206.414343 
L 330.389254 188.150547 
L 330.610112 107.784367 
L 330.654284 112.275015 
L 330.764713 163.424598 
L 330.9414 205.948849 
L 331.037105 208.604903 
L 331.066553 206.523871 
L 331.140172 181.825304 
L 331.346307 107.784367 
L 331.375755 110.276129 
L 331.449374 134.563966 
L 331.69968 206.715545 
L 331.7733 209.481127 
L 331.802748 207.591769 
L 331.883729 178.594228 
L 332.082502 108.304625 
L 332.111949 110.276129 
L 332.200293 141.272557 
L 332.428513 205.948849 
L 332.494771 210.576407 
L 332.546304 207.838207 
L 332.64201 166.518764 
L 332.818696 108.660591 
L 332.840782 109.892781 
L 332.892316 121.174166 
L 333.223604 210.822846 
L 333.245689 211.918126 
L 333.289861 207.482241 
L 333.385566 162.822194 
L 333.562253 108.797501 
L 333.576977 109.618961 
L 333.657959 133.24963 
L 333.915627 207.400095 
L 333.981884 212.903878 
L 334.026056 208.796577 
L 334.121761 163.698418 
L 334.291086 109.208231 
L 334.320534 110.741623 
L 334.379429 126.212455 
L 334.681269 210.658553 
L 334.725441 213.807484 
L 334.769613 208.166791 
L 335.034643 110.002309 
L 335.122986 129.334003 
L 335.40274 208.823959 
L 335.454274 214.492034 
L 335.505807 208.604903 
L 335.638323 141.053501 
L 335.763476 110.549949 
L 335.807647 113.589351 
L 335.9328 163.205542 
L 336.161021 212.630058 
L 336.197831 215.340876 
L 336.242002 209.754947 
L 336.389241 135.960448 
L 336.507032 111.234499 
L 336.543842 114.301284 
L 336.646909 152.52656 
L 336.882492 210.329969 
L 336.934025 215.888516 
L 336.978197 210.384733 
L 337.250589 111.727375 
L 337.338933 132.126968 
L 337.640772 214.190832 
L 337.677582 216.518302 
L 337.714392 211.589542 
L 337.979422 112.740509 
L 338.075127 132.29126 
L 338.376967 214.848 
L 338.413777 217.695728 
L 338.450587 212.38362 
L 338.605188 136.699762 
L 338.715617 113.589351 
L 338.759788 117.012102 
L 339.024819 193.846003 
L 339.149972 217.5862 
L 339.194143 210.932374 
L 339.459174 114.52034 
L 339.525431 125.007647 
L 339.886167 218.106458 
L 339.922976 213.314608 
L 340.20273 115.3418 
L 340.291074 134.810404 
L 340.622361 218.654098 
L 340.629723 218.435042 
L 340.681257 206.578635 
L 340.938925 116.683518 
L 340.990459 123.775457 
L 341.358556 219.256503 
L 341.402728 212.438384 
L 341.67512 117.504978 
L 341.741377 128.101813 
L 342.102113 219.667233 
L 342.161008 204.771423 
L 342.411315 118.682404 
L 342.448124 122.461121 
L 342.691069 182.290798 
L 342.830946 219.831525 
L 342.882479 210.795463 
L 343.14751 119.887212 
L 343.235853 135.02946 
L 343.567141 220.324401 
L 343.633398 205.647647 
L 343.876342 121.037256 
L 343.927876 125.117175 
L 344.237078 205.894085 
L 344.303335 220.297019 
L 344.354869 211.918126 
L 344.619899 122.707559 
L 344.693519 132.099586 
L 344.973273 205.209535 
L 345.03953 220.379165 
L 345.091064 212.301474 
L 345.363456 124.021895 
L 345.422351 130.949542 
L 345.665296 187.027885 
L 345.783087 220.324401 
L 345.827259 212.602676 
L 346.099651 125.226703 
L 346.165908 132.647226 
L 346.386767 179.552598 
L 346.519282 220.899423 
L 346.570815 210.631171 
L 346.843207 126.732713 
L 346.872655 129.032801 
L 347.086152 163.835328 
L 347.255477 220.543457 
L 347.314372 207.947735 
L 347.57204 128.074431 
L 347.601488 129.005419 
L 347.844432 170.653447 
L 347.991671 220.351783 
L 348.043205 210.685935 
L 348.308235 129.553059 
L 348.359769 132.236496 
L 348.565903 163.205542 
L 348.727866 220.379165 
L 348.7794 210.987138 
L 349.059154 131.113834 
L 349.088602 132.756754 
L 349.228479 141.601141 
L 349.324184 170.653447 
L 349.464061 220.433929 
L 349.515595 211.343104 
L 349.795349 132.647226 
L 349.824796 133.66036 
L 349.994121 145.379857 
L 350.200256 219.913671 
L 350.295961 193.490037 
L 350.538905 133.578214 
L 350.700868 137.521222 
L 350.78185 160.686397 
L 350.936451 219.585087 
L 350.987984 211.178812 
L 351.297186 134.75564 
L 351.304548 134.837786 
L 351.319272 135.16637 
L 351.370805 133.769888 
L 351.400253 133.222248 
L 351.422339 133.852034 
L 351.503321 152.855144 
L 351.680007 219.092211 
L 351.746265 203.429705 
L 352.033381 135.659246 
L 352.14381 131.4698 
L 352.173258 133.496068 
L 352.261601 160.905453 
L 352.416202 219.064829 
L 352.467736 208.878723 
L 352.799023 135.275898 
L 352.828471 133.057956 
L 352.880005 130.210228 
L 352.924176 134.098472 
L 353.01252 166.436618 
L 353.145035 218.517188 
L 353.196569 211.397868 
L 353.572028 131.60671 
L 353.630923 128.375633 
L 353.660371 131.907912 
L 353.756077 169.229582 
L 353.888592 218.215986 
L 353.940125 208.851341 
L 354.264051 136.508088 
L 354.359756 126.541039 
L 354.403928 131.524564 
L 354.617425 217.558818 
L 354.727854 191.326859 
L 354.992884 137.849806 
L 355.095951 125.144557 
L 355.147485 131.74362 
L 355.302086 204.470221 
L 355.360981 216.62783 
L 355.412515 208.632285 
L 355.802698 126.431511 
L 355.824784 123.857603 
L 355.88368 129.799497 
L 356.023557 196.693732 
L 356.097176 216.463538 
L 356.14871 208.413229 
L 356.546255 124.569535 
L 356.568341 122.598031 
L 356.619874 128.211341 
L 356.745027 187.712435 
L 356.833371 215.286112 
L 356.884905 208.166791 
L 357.304536 121.338458 
L 357.311897 121.311076 
L 357.319259 121.530132 
L 357.363431 128.348251 
L 357.576928 214.57418 
L 357.679995 192.011409 
L 358.048092 119.503864 
L 358.055454 119.777684 
L 358.121712 134.700876 
L 358.320484 213.314608 
L 358.386742 199.979572 
L 358.784287 118.107382 
L 358.835821 125.582669 
L 359.049317 213.06817 
L 359.152384 193.435273 
L 359.527844 116.628754 
L 359.564654 121.803952 
L 359.682445 178.648992 
L 359.785512 211.808598 
L 359.837046 205.592883 
L 360.256677 115.971586 
L 360.300848 120.708672 
L 360.448087 192.969779 
L 360.529069 211.233576 
L 360.580602 203.922581 
L 361.000233 114.766778 
L 361.029681 117.80618 
L 361.125387 158.961331 
L 361.265264 210.165677 
L 361.309435 204.579749 
L 361.736428 113.534587 
L 361.810048 130.401902 
L 362.001458 209.152543 
L 362.075078 199.295022 
L 362.472623 112.357161 
L 362.546243 128.868509 
L 362.737653 207.975117 
L 362.803911 200.49983 
L 363.149922 122.762323 
L 363.201456 111.727375 
L 363.260351 119.85983 
L 363.473848 206.934601 
L 363.591639 193.572183 
L 363.70943 178.183497 
L 363.893479 120.54438 
L 363.952375 110.988061 
L 363.996546 118.682404 
L 364.143785 192.531667 
L 364.210043 205.839321 
L 364.268938 201.403436 
L 364.526607 161.453093 
L 364.681207 109.892781 
L 364.747465 122.324211 
L 364.9536 204.579749 
L 365.049305 197.049698 
L 365.18182 182.236034 
L 365.306973 144.339341 
L 365.424764 108.934411 
L 365.476298 118.545494 
L 365.689794 203.758289 
L 365.814947 195.735362 
L 365.984272 169.284346 
L 366.160959 108.414153 
L 366.219855 119.99674 
L 366.425989 202.608244 
L 366.514333 198.281888 
L 366.676295 182.372944 
L 366.801448 135.138988 
L 366.904516 108.112951 
L 366.948687 116.57399 
L 367.169546 201.403436 
L 367.287337 197.405664 
L 367.353595 192.860251 
L 367.464024 169.859368 
L 367.633349 107.592693 
L 367.692244 118.271674 
L 367.920465 200.061718 
L 368.030894 197.789012 
L 368.075065 196.036564 
L 368.192857 174.267871 
L 368.369543 107.209345 
L 368.443163 123.145671 
L 368.649297 198.966438 
L 368.730279 198.802146 
L 368.737641 198.85691 
L 368.781812 198.44618 
L 368.892242 186.480244 
L 369.017395 132.811518 
L 369.1131 106.743851 
L 369.157272 114.054846 
L 369.525369 199.81528 
L 369.540093 199.295022 
L 369.613713 191.573297 
L 369.702056 160.795925 
L 369.849295 106.415267 
L 369.893467 113.096475 
L 370.268926 201.18438 
L 370.28365 200.472448 
L 370.364631 190.532781 
L 370.497146 129.991171 
L 370.58549 106.223593 
L 370.637023 114.629868 
L 371.005121 202.389188 
L 371.041931 201.266526 
L 371.130274 183.331314 
L 371.321685 105.812862 
L 371.395304 121.63966 
L 371.68242 200.746268 
L 371.733954 203.402323 
L 371.792849 201.540346 
L 371.866469 184.727796 
L 372.065241 106.168829 
L 372.131499 120.927728 
L 372.433339 202.197514 
L 372.484872 204.990479 
L 372.536406 202.361806 
L 372.610025 183.440842 
L 372.801436 106.059301 
L 372.860332 117.25854 
L 373.184257 204.086873 
L 373.235791 206.140523 
L 373.272601 204.223783 
L 373.360944 178.101351 
L 373.537631 106.141447 
L 373.589165 114.301284 
L 373.971986 207.564387 
L 373.98671 207.317949 
L 374.038243 200.746268 
L 374.133949 158.222017 
L 374.273826 105.867626 
L 374.317997 111.617847 
L 374.708181 209.097779 
L 374.752352 206.222669 
L 374.840696 175.910791 
L 375.010021 106.223593 
L 375.054192 111.453555 
L 375.459099 210.795463 
L 375.510633 204.442839 
L 375.635786 142.942859 
L 375.753577 106.634323 
L 375.797749 112.986947 
L 376.195294 212.082418 
L 376.25419 203.648761 
L 376.394067 132.263878 
L 376.48241 107.373637 
L 376.541306 114.79416 
L 376.938851 212.903878 
L 376.968299 209.891857 
L 377.04928 179.8538 
L 377.218605 107.510547 
L 377.270139 112.795273 
L 377.410016 165.587776 
L 377.667684 214.218214 
L 377.675046 214.136068 
L 377.726579 206.551253 
L 377.88118 127.116061 
L 377.969524 108.085569 
L 378.013695 113.644115 
L 378.41124 215.587314 
L 378.48486 199.568842 
L 378.698356 108.715355 
L 378.771976 120.024122 
L 379.140073 216.600448 
L 379.162159 215.368258 
L 379.213693 203.511851 
L 379.449275 109.071321 
L 379.522895 124.487389 
L 379.868906 217.421908 
L 379.876268 217.5862 
L 379.898354 216.408774 
L 379.964612 198.44618 
L 380.192832 109.974927 
L 380.237004 116.875192 
L 380.612463 218.380278 
L 380.67872 208.303701 
L 380.929027 110.604713 
L 381.010008 127.526791 
L 381.348658 219.146975 
L 381.385467 216.518302 
L 381.481173 177.252509 
L 381.665222 110.741623 
L 381.702031 114.575104 
L 381.967061 195.16034 
L 382.092215 219.858907 
L 382.129024 215.861134 
L 382.22473 174.048815 
L 382.408778 111.070207 
L 382.438226 114.027463 
L 382.592827 159.947083 
L 382.821047 220.461311 
L 382.887305 210.466879 
L 383.137611 111.672611 
L 383.225954 126.185073 
L 383.571966 220.817277 
L 383.601414 216.874268 
L 383.704481 172.104693 
L 383.881168 112.521453 
L 383.917978 115.369182 
L 384.072579 158.441073 
L 384.300799 222.022085 
L 384.367056 209.289453 
L 384.617363 112.822655 
L 384.690982 122.515885 
L 385.036994 221.857793 
L 385.103251 209.864475 
L 385.360919 113.233385 
L 385.441901 125.390995 
L 385.765827 222.186377 
L 385.85417 204.689277 
L 386.104476 113.781025 
L 386.148648 117.860944 
L 386.413678 202.389188 
L 386.509383 222.569725 
L 386.553555 217.504054 
L 386.737604 136.590234 
L 386.848033 114.328666 
L 386.892205 118.928842 
L 387.113063 187.301705 
L 387.25294 222.323287 
L 387.28975 217.504054 
L 387.436989 153.265874 
L 387.59159 114.52034 
L 387.621037 117.12163 
L 387.783 159.426825 
L 387.981773 222.514961 
L 388.040668 213.917012 
L 388.327784 114.903688 
L 388.408766 126.486275 
L 388.644348 208.687049 
L 388.717968 222.487579 
L 388.769501 215.861134 
L 388.887293 166.847348 
L 389.071341 115.06798 
L 389.100789 117.203776 
L 389.225942 146.36561 
L 389.454163 222.405433 
L 389.535144 206.797691 
L 389.807536 115.20489 
L 389.873794 122.488503 
L 390.043118 176.923925 
L 390.197719 222.076849 
L 390.234529 218.024312 
L 390.381768 160.604251 
L 390.551093 115.259654 
L 390.595264 119.394336 
L 390.72778 153.813514 
L 390.926552 221.775647 
L 390.985448 214.71109 
L 391.287288 115.588238 
L 391.382993 127.937521 
L 391.670109 221.282771 
L 391.765814 200.472448 
L 392.030844 115.643002 
L 392.067654 118.052618 
L 392.170721 140.478479 
L 392.398942 221.063715 
L 392.479923 207.838207 
L 392.767039 115.533474 
L 392.848021 124.323097 
L 392.987898 172.789243 
L 393.142498 220.433929 
L 393.18667 215.94328 
L 393.348633 158.906567 
L 393.503234 115.533474 
L 393.554768 118.655022 
L 393.665197 145.790587 
L 393.878693 219.886289 
L 393.952313 208.796577 
L 394.246791 115.533474 
L 394.349858 128.129195 
L 394.607526 219.064829 
L 394.717955 200.253392 
L 394.997709 115.588238 
L 395.078691 125.746961 
L 395.22593 183.13964 
L 395.351083 218.27075 
L 395.395255 214.820618 
L 395.535132 172.898771 
L 395.741266 115.506092 
L 395.778076 118.35382 
L 395.881143 145.270329 
L 396.09464 217.805256 
L 396.146173 212.082418 
L 396.300774 163.534126 
L 396.477461 115.834676 
L 396.521633 118.928842 
L 396.6247 147.32398 
L 396.830834 216.90165 
L 396.882368 211.863362 
L 397.036969 165.478248 
L 397.213656 116.02635 
L 397.257827 118.737168 
L 397.353533 143.134533 
L 397.574391 215.861134 
L 397.633287 209.043015 
L 397.846783 136.9462 
L 397.957212 116.108496 
L 398.008746 119.72292 
L 398.126537 158.112489 
L 398.317948 214.930146 
L 398.347396 212.164564 
L 398.457825 187.657671 
L 398.487273 177.690621 
L 398.487273 177.690621 
" clip-path="url(#p848b836128)" style="fill: none; stroke: #1f77b4; stroke-width: 1.5; stroke-linecap: square"/>
   </g>
   <g id="patch_3">
    <path d="M 57.6 307.584 
L 57.6 41.472 
" style="fill: none; stroke: #000000; stroke-width: 0.8; stroke-linejoin: miter; stroke-linecap: square"/>
   </g>
   <g id="patch_4">
    <path d="M 414.72 307.584 
L 414.72 41.472 
" style="fill: none; stroke: #000000; stroke-width: 0.8; stroke-linejoin: miter; stroke-linecap: square"/>
   </g>
   <g id="patch_5">
    <path d="M 57.6 307.584 
L 414.72 307.584 
" style="fill: none; stroke: #000000; stroke-width: 0.8; stroke-linejoin: miter; stroke-linecap: square"/>
   </g>
   <g id="patch_6">
    <path d="M 57.6 41.472 
L 414.72 41.472 
" style="fill: none; stroke: #000000; stroke-width: 0.8; stroke-linejoin: miter; stroke-linecap: square"/>
   </g>
   <g id="text_14">
    <text style="font: 12px 'IPAexGothic'; text-anchor: middle" x="236.16" y="35.472" transform="rotate(-0 236.16 35.472)">"005_A4.wav"の波形グラフ</text>
   </g>
  </g>
 </g>
 <defs>
  <clipPath id="p848b836128">
   <rect x="57.6" y="41.472" width="357.12" height="266.112"/>
  </clipPath>
 </defs>
</svg>
