<?xml version="1.0" encoding="utf-8" standalone="no"?>
<!DOCTYPE svg PUBLIC "-//W3C//DTD SVG 1.1//EN"
  "http://www.w3.org/Graphics/SVG/1.1/DTD/svg11.dtd">
<svg xmlns:xlink="http://www.w3.org/1999/xlink" width="460.8pt" height="345.6pt" viewBox="0 0 460.8 345.6" xmlns="http://www.w3.org/2000/svg" version="1.1">
 <metadata>
  <rdf:RDF xmlns:dc="http://purl.org/dc/elements/1.1/" xmlns:cc="http://creativecommons.org/ns#" xmlns:rdf="http://www.w3.org/1999/02/22-rdf-syntax-ns#">
   <cc:Work>
    <dc:type rdf:resource="http://purl.org/dc/dcmitype/StillImage"/>
    <dc:date>2022-11-28T11:32:51.254280</dc:date>
    <dc:format>image/svg+xml</dc:format>
    <dc:creator>
     <cc:Agent>
      <dc:title>Matplotlib v3.6.2, https://matplotlib.org/</dc:title>
     </cc:Agent>
    </dc:creator>
   </cc:Work>
  </rdf:RDF>
 </metadata>
 <defs>
  <style type="text/css">*{stroke-linejoin: round; stroke-linecap: butt}</style>
 </defs>
 <g id="figure_1">
  <g id="patch_1">
   <path d="M 0 345.6 
L 460.8 345.6 
L 460.8 0 
L 0 0 
z
" style="fill: #ffffff"/>
  </g>
  <g id="axes_1">
   <g id="patch_2">
    <path d="M 57.6 307.584 
L 414.72 307.584 
L 414.72 41.472 
L 57.6 41.472 
z
" style="fill: #ffffff"/>
   </g>
   <g id="matplotlib.axis_1">
    <g id="xtick_1">
     <g id="line2d_1">
      <defs>
       <path id="maffdc017b2" d="M 0 0 
L 0 3.5 
" style="stroke: #000000; stroke-width: 0.8"/>
      </defs>
      <g>
       <use xlink:href="#maffdc017b2" x="73.832727" y="307.584" style="stroke: #000000; stroke-width: 0.8"/>
      </g>
     </g>
     <g id="text_1">
      <text style="font: 10px 'IPAexGothic'; text-anchor: middle" x="73.832727" y="322.074625" transform="rotate(-0 73.832727 322.074625)">0.0</text>
     </g>
    </g>
    <g id="xtick_2">
     <g id="line2d_2">
      <g>
       <use xlink:href="#maffdc017b2" x="138.765109" y="307.584" style="stroke: #000000; stroke-width: 0.8"/>
      </g>
     </g>
     <g id="text_2">
      <text style="font: 10px 'IPAexGothic'; text-anchor: middle" x="138.765109" y="322.074625" transform="rotate(-0 138.765109 322.074625)">0.2</text>
     </g>
    </g>
    <g id="xtick_3">
     <g id="line2d_3">
      <g>
       <use xlink:href="#maffdc017b2" x="203.69749" y="307.584" style="stroke: #000000; stroke-width: 0.8"/>
      </g>
     </g>
     <g id="text_3">
      <text style="font: 10px 'IPAexGothic'; text-anchor: middle" x="203.69749" y="322.074625" transform="rotate(-0 203.69749 322.074625)">0.4</text>
     </g>
    </g>
    <g id="xtick_4">
     <g id="line2d_4">
      <g>
       <use xlink:href="#maffdc017b2" x="268.629872" y="307.584" style="stroke: #000000; stroke-width: 0.8"/>
      </g>
     </g>
     <g id="text_4">
      <text style="font: 10px 'IPAexGothic'; text-anchor: middle" x="268.629872" y="322.074625" transform="rotate(-0 268.629872 322.074625)">0.6</text>
     </g>
    </g>
    <g id="xtick_5">
     <g id="line2d_5">
      <g>
       <use xlink:href="#maffdc017b2" x="333.562253" y="307.584" style="stroke: #000000; stroke-width: 0.8"/>
      </g>
     </g>
     <g id="text_5">
      <text style="font: 10px 'IPAexGothic'; text-anchor: middle" x="333.562253" y="322.074625" transform="rotate(-0 333.562253 322.074625)">0.8</text>
     </g>
    </g>
    <g id="xtick_6">
     <g id="line2d_6">
      <g>
       <use xlink:href="#maffdc017b2" x="398.494635" y="307.584" style="stroke: #000000; stroke-width: 0.8"/>
      </g>
     </g>
     <g id="text_6">
      <text style="font: 10px 'IPAexGothic'; text-anchor: middle" x="398.494635" y="322.074625" transform="rotate(-0 398.494635 322.074625)">1.0</text>
     </g>
    </g>
    <g id="text_7">
     <text style="font: 10px 'IPAexGothic'; text-anchor: middle" x="236.16" y="335.924625" transform="rotate(-0 236.16 335.924625)">時間[s]</text>
    </g>
   </g>
   <g id="matplotlib.axis_2">
    <g id="ytick_1">
     <g id="line2d_7">
      <defs>
       <path id="mf4e638ce0f" d="M 0 0 
L -3.5 0 
" style="stroke: #000000; stroke-width: 0.8"/>
      </defs>
      <g>
       <use xlink:href="#mf4e638ce0f" x="57.6" y="276.207272" style="stroke: #000000; stroke-width: 0.8"/>
      </g>
     </g>
     <g id="text_8">
      <text style="font: 10px 'IPAexGothic'; text-anchor: end" x="50.6" y="279.952585" transform="rotate(-0 50.6 279.952585)">−4000</text>
     </g>
    </g>
    <g id="ytick_2">
     <g id="line2d_8">
      <g>
       <use xlink:href="#mf4e638ce0f" x="57.6" y="225.601687" style="stroke: #000000; stroke-width: 0.8"/>
      </g>
     </g>
     <g id="text_9">
      <text style="font: 10px 'IPAexGothic'; text-anchor: end" x="50.6" y="229.346999" transform="rotate(-0 50.6 229.346999)">−2000</text>
     </g>
    </g>
    <g id="ytick_3">
     <g id="line2d_9">
      <g>
       <use xlink:href="#mf4e638ce0f" x="57.6" y="174.996102" style="stroke: #000000; stroke-width: 0.8"/>
      </g>
     </g>
     <g id="text_10">
      <text style="font: 10px 'IPAexGothic'; text-anchor: end" x="50.6" y="178.741414" transform="rotate(-0 50.6 178.741414)">0</text>
     </g>
    </g>
    <g id="ytick_4">
     <g id="line2d_10">
      <g>
       <use xlink:href="#mf4e638ce0f" x="57.6" y="124.390516" style="stroke: #000000; stroke-width: 0.8"/>
      </g>
     </g>
     <g id="text_11">
      <text style="font: 10px 'IPAexGothic'; text-anchor: end" x="50.6" y="128.135829" transform="rotate(-0 50.6 128.135829)">2000</text>
     </g>
    </g>
    <g id="ytick_5">
     <g id="line2d_11">
      <g>
       <use xlink:href="#mf4e638ce0f" x="57.6" y="73.784931" style="stroke: #000000; stroke-width: 0.8"/>
      </g>
     </g>
     <g id="text_12">
      <text style="font: 10px 'IPAexGothic'; text-anchor: end" x="50.6" y="77.530244" transform="rotate(-0 50.6 77.530244)">4000</text>
     </g>
    </g>
    <g id="text_13">
     <text style="font: 10px 'IPAexGothic'; text-anchor: middle" x="12.723438" y="174.528" transform="rotate(-90 12.723438 174.528)">振幅</text>
    </g>
   </g>
   <g id="line2d_12">
    <path d="M 73.832727 175.021404 
L 73.935795 174.89489 
L 73.862175 175.097313 
L 73.950518 174.920193 
L 74.038862 174.970799 
L 74.060948 174.793679 
L 74.053586 174.996102 
L 74.149291 174.844285 
L 74.156653 174.869588 
L 74.215549 174.692468 
L 74.222911 174.768377 
L 74.29653 174.61656 
L 74.303892 174.818982 
L 74.340702 174.692468 
L 74.348064 174.793679 
L 74.406959 174.565954 
L 74.436407 174.591257 
L 74.510026 174.540651 
L 74.539474 174.61656 
L 74.546836 174.565954 
L 74.554198 174.61656 
L 74.613094 174.388835 
L 74.63518 174.515349 
L 74.642542 174.43944 
L 74.730885 174.565954 
L 74.738247 174.464743 
L 74.745609 174.565954 
L 74.819228 174.237018 
L 74.82659 174.414137 
L 74.833952 174.211715 
L 74.929658 174.43944 
L 75.098982 174.338229 
L 75.113706 174.388835 
L 75.260945 174.059898 
L 75.268307 174.186412 
L 75.312479 174.009293 
L 75.371374 174.110504 
L 75.39346 174.186412 
L 75.437632 174.009293 
L 75.444994 174.085201 
L 75.46708 173.933384 
L 75.533337 174.16111 
L 75.555423 173.98399 
L 75.606957 173.908082 
L 75.673214 174.16111 
L 75.687938 174.211715 
L 75.798367 173.629751 
L 75.879349 173.908082 
L 75.908797 173.80687 
L 75.945606 173.579145 
L 75.923521 173.832173 
L 76.011864 173.680356 
L 76.019226 173.832173 
L 76.107569 173.604448 
L 76.122293 173.680356 
L 76.144379 173.781568 
L 76.5272 177.121536 
L 76.593458 176.235939 
L 76.652353 175.52746 
L 76.689163 176.235939 
L 76.770145 178.361373 
L 76.836402 177.931226 
L 76.86585 178.791521 
L 76.910022 183.776171 
L 76.976279 221.856874 
L 77.057261 278.104981 
L 77.108794 253.637181 
L 77.300205 188.988546 
L 77.66094 100.428772 
L 77.741922 64.903651 
L 77.800817 75.682641 
L 77.977504 102.756629 
L 77.99959 102.452995 
L 78.021676 102.301179 
L 78.0364 102.554206 
L 78.073209 105.362816 
L 78.345601 166.570272 
L 78.544374 202.52554 
L 78.919833 261.9618 
L 78.964005 258.723042 
L 79.206949 238.961561 
L 79.280569 236.532493 
L 79.464618 210.192286 
L 79.7002 194.529858 
L 79.781181 188.558398 
L 80.149279 154.905684 
L 80.473204 123.859158 
L 80.510014 125.402628 
L 80.546824 126.718373 
L 80.590996 124.339911 
L 80.671977 116.749073 
L 80.716149 122.163871 
L 80.775044 130.564398 
L 80.819216 123.682038 
L 80.885473 110.853522 
L 80.937007 120.114345 
L 81.076884 141.900049 
L 81.106332 140.28067 
L 81.253571 104.148282 
L 81.393448 113.940463 
L 81.43762 111.941543 
L 81.474429 115.863475 
L 81.606944 150.705421 
L 81.70265 146.808791 
L 81.732097 146.176221 
L 81.761545 147.314847 
L 81.820441 163.83757 
L 82.129643 275.751822 
L 82.137005 275.574702 
L 82.1959 257.179572 
L 82.247434 244.831809 
L 82.306329 254.826412 
L 82.379949 264.213748 
L 82.431483 259.735154 
L 82.519826 216.695104 
L 82.593445 185.142521 
L 82.644979 203.006293 
L 82.740684 244.02212 
L 82.814304 243.035311 
L 82.910009 266.870542 
L 82.954181 253.029914 
L 83.152953 155.082804 
L 83.211849 160.522904 
L 83.241297 162.218191 
L 83.278107 156.398549 
L 83.63148 53.568 
L 83.675652 55.364498 
L 83.771357 75.783852 
L 83.93332 90.763105 
L 84.058473 125.554445 
L 84.750496 277.750742 
L 84.787306 279.471332 
L 84.846202 277.118173 
L 84.890373 275.650611 
L 84.949269 277.472412 
L 84.99344 278.535129 
L 85.03025 276.586814 
L 85.229023 252.346739 
L 85.788531 177.146839 
L 85.840064 177.88062 
L 85.89896 171.529619 
L 86.222886 127.882302 
L 86.311229 118.596177 
L 86.362763 123.15068 
L 86.421658 129.780011 
L 86.46583 124.390516 
L 86.576259 102.908446 
L 86.635155 108.070215 
L 86.811842 121.936146 
L 86.856013 119.507078 
L 87.0327 97.69607 
L 87.121043 73.633115 
L 87.172577 83.045753 
L 87.349264 101.972242 
L 87.518589 114.497125 
L 87.717361 176.058819 
L 87.82779 234.33115 
L 87.886686 223.9064 
L 87.916134 220.996579 
L 87.952944 227.929544 
L 88.100183 274.410774 
L 88.159078 266.592211 
L 88.446194 204.549763 
L 88.490366 213.532255 
L 88.659691 286.758537 
L 88.725948 267.376597 
L 88.939445 212.089996 
L 89.07196 179.044548 
L 89.256008 98.581668 
L 89.417971 61.462471 
L 89.447419 62.499886 
L 89.793431 93.79944 
L 90.581159 280.205113 
L 90.610607 279.547241 
L 90.632693 278.889368 
L 90.676864 280.888289 
L 90.757846 288.630943 
L 90.809379 283.393265 
L 91.214287 231.69966 
L 91.390973 203.15811 
L 91.663365 169.606607 
L 91.707537 169.935543 
L 91.729623 169.657212 
L 91.788518 163.989387 
L 91.979929 125.1496 
L 92.075634 134.334514 
L 92.090358 134.714056 
L 92.119806 132.234382 
L 92.230235 115.129694 
L 92.325941 115.534539 
L 92.443732 100.884222 
L 92.509989 107.412343 
L 92.649866 138.180538 
L 92.708762 126.515951 
L 92.811829 102.554206 
L 92.885449 103.389199 
L 92.995878 90.231746 
L 93.047412 96.759867 
L 93.150479 113.00426 
L 93.202012 107.665371 
L 93.297718 91.370372 
L 93.349251 99.821505 
L 93.938207 271.0202 
L 93.975017 275.82773 
L 94.019189 268.186287 
L 94.17379 202.98099 
L 94.254771 215.632387 
L 94.47563 264.567987 
L 94.527163 261.228019 
L 94.924708 184.914796 
L 95.248634 72.064341 
L 95.344339 62.120344 
L 95.395873 64.473504 
L 95.57256 76.694752 
L 96.352926 268.03447 
L 96.581147 293.261354 
L 96.610594 295.488 
L 96.662128 291.439553 
L 97.133293 234.027517 
L 97.170102 231.497238 
L 97.862126 119.658894 
L 97.921021 125.680959 
L 97.972555 130.361976 
L 98.016726 124.466425 
L 98.163965 94.305496 
L 98.222861 99.113027 
L 98.502615 131.880143 
L 98.532063 129.198047 
L 98.686664 90.914922 
L 98.767645 103.009657 
L 98.833903 111.157156 
L 98.892798 106.526745 
L 99.003228 90.864316 
L 99.069485 95.317608 
L 99.268258 126.566557 
L 99.73206 274.587893 
L 99.739422 274.461379 
L 99.80568 264.011326 
L 100.019176 213.405741 
L 100.078072 222.337627 
L 100.269483 259.15319 
L 100.29893 257.457903 
L 100.431445 233.647975 
L 100.527151 243.516064 
L 100.549237 244.098028 
L 100.578684 241.517143 
L 100.748009 199.818141 
L 101.116107 74.797043 
L 101.255984 64.043356 
L 101.292793 64.903651 
L 101.366413 71.482377 
L 101.896473 181.195286 
L 102.323466 273.01912 
L 102.514877 283.671596 
L 102.581134 280.17981 
L 103.43512 167.658292 
L 103.545549 143.190491 
L 103.597083 146.07501 
L 103.619169 146.935305 
L 103.663341 144.708659 
L 104.0388 91.142647 
L 104.105058 103.768741 
L 104.222849 132.03196 
L 104.274382 125.655656 
L 104.392173 110.094439 
L 104.451069 111.890937 
L 104.465793 112.093359 
L 104.509965 111.233064 
L 104.598308 108.146124 
L 104.649842 109.360658 
L 104.716099 111.511395 
L 104.752909 109.866714 
L 104.878062 92.331878 
L 104.94432 101.719214 
L 105.577447 268.287498 
L 105.651067 250.955085 
L 105.768858 215.050422 
L 105.827753 219.655531 
L 106.07806 241.820777 
L 106.085422 241.719566 
L 106.151679 238.708533 
L 106.240022 234.305848 
L 106.284194 236.785521 
L 106.387261 247.640419 
L 106.438795 242.402741 
L 106.637568 183.219509 
L 106.990941 68.52195 
L 107.079285 60.222634 
L 107.130818 62.677005 
L 107.307505 86.284511 
L 108.242472 280.432838 
L 108.338178 276.333786 
L 108.360263 276.030152 
L 108.389711 276.865145 
L 108.463331 280.483444 
L 108.50014 277.826651 
L 109.435108 150.933146 
L 109.516089 155.841888 
L 109.523451 156.019007 
L 109.552899 154.677959 
L 109.63388 134.283908 
L 109.766396 100.529983 
L 109.817929 104.224191 
L 110.075597 128.641386 
L 110.112407 126.895493 
L 110.252284 109.335355 
L 110.325904 115.686356 
L 110.406885 121.202365 
L 110.458419 118.090121 
L 110.635105 92.88854 
L 110.716087 98.100915 
L 111.091546 134.208 
L 111.378662 246.65361 
L 111.496453 231.193604 
L 111.592159 215.758901 
L 111.643692 220.212192 
L 111.835103 231.623751 
L 112.107495 240.656848 
L 112.225286 249.335706 
L 112.269458 246.400582 
L 112.424059 217.378279 
L 112.917309 66.776058 
L 113.027738 77.276717 
L 113.10872 76.694752 
L 113.197063 87.676164 
L 114.065773 275.37228 
L 114.139393 282.330548 
L 114.190926 279.648452 
L 114.249822 276.662722 
L 114.301356 279.243607 
L 114.360251 283.393265 
L 114.411785 280.053297 
L 114.882949 221.123093 
L 114.919759 219.225383 
L 115.022826 193.897288 
L 115.140618 170.71993 
L 115.192151 172.187492 
L 115.221599 172.845364 
L 115.265771 171.225986 
L 115.3762 153.514031 
L 115.626506 101.921637 
L 115.685402 106.602653 
L 115.810555 122.265082 
L 115.86945 117.938304 
L 115.97988 107.513554 
L 116.031413 110.448678 
L 116.200738 119.25405 
L 116.230186 119.026324 
L 116.303805 114.041674 
L 116.458406 93.79944 
L 116.517302 99.138329 
L 116.627731 109.56308 
L 116.693989 108.196729 
L 116.752884 107.488251 
L 116.797056 108.29794 
L 116.870675 115.81287 
L 116.988467 161.788044 
L 117.194601 234.103425 
L 117.224049 233.369644 
L 117.386012 224.437758 
L 117.444907 226.107743 
L 117.636318 232.180413 
L 117.64368 232.129807 
L 117.695214 232.534652 
L 117.702575 232.484046 
L 117.835091 238.000055 
L 118.092759 257.533811 
L 118.129568 256.16746 
L 118.217912 238.961561 
L 118.47558 146.859396 
L 118.7038 83.956654 
L 118.81423 67.61105 
L 118.865763 70.773899 
L 119.425271 146.35334 
L 119.83754 244.275148 
L 119.984779 263.277545 
L 120.073123 273.348056 
L 120.132018 271.172016 
L 120.17619 270.033391 
L 120.220362 271.500953 
L 120.271895 273.626387 
L 120.316067 270.944291 
L 121.022814 185.724486 
L 121.030176 185.775091 
L 121.089072 186.7619 
L 121.118519 185.775091 
L 121.192139 171.3525 
L 121.449807 120.949337 
L 121.457169 120.924034 
L 121.516065 121.075851 
L 121.57496 122.163871 
L 121.626494 123.454313 
L 121.670665 121.986751 
L 121.788457 110.82822 
L 121.854714 115.332117 
L 121.987229 127.755788 
L 122.038763 124.592939 
L 122.266983 100.985433 
L 122.325879 104.148282 
L 122.421584 110.600495 
L 122.473118 108.576271 
L 122.620357 96.557445 
L 122.67189 101.390278 
L 122.797044 147.972719 
L 123.062074 222.514746 
L 123.076798 222.540049 
L 123.106245 222.287021 
L 123.128331 222.362929 
L 123.194589 224.665484 
L 123.319742 226.816221 
L 123.356552 226.790918 
L 123.466981 227.195763 
L 123.496429 226.892129 
L 123.599496 223.172619 
L 123.643668 225.475173 
L 124.004403 254.269751 
L 124.019127 254.548082 
L 124.048575 252.751583 
L 124.14428 225.576384 
L 124.608083 84.083168 
L 124.718512 72.823425 
L 124.770046 75.935669 
L 125.351639 160.674721 
L 125.690289 240.656848 
L 126.006853 279.117093 
L 126.058386 275.853033 
L 126.360226 251.663563 
L 126.522189 242.883494 
L 126.720962 200.501317 
L 126.824029 201.614639 
L 126.912372 192.935782 
L 127.089059 148.655895 
L 127.236298 125.200206 
L 127.273108 125.78217 
L 127.324642 126.794282 
L 127.368813 125.655656 
L 127.552862 110.170347 
L 127.633843 115.888778 
L 127.795806 128.084724 
L 127.839978 127.04731 
L 127.920959 118.469663 
L 128.03875 105.590542 
L 128.090284 108.120821 
L 128.185989 113.510316 
L 128.237523 111.486092 
L 128.428934 92.559603 
L 128.502553 98.581668 
L 128.649792 148.099233 
L 128.929546 212.899685 
L 128.995804 216.062534 
L 129.135681 229.245289 
L 129.201938 225.728201 
L 129.297644 220.794156 
L 129.341815 222.970196 
L 129.452245 232.306927 
L 129.518502 229.321197 
L 129.54795 228.4356 
L 129.592122 231.193604 
L 129.761446 252.523858 
L 129.84979 250.347818 
L 129.930771 247.109061 
L 130.011753 224.716089 
L 130.431384 88.334037 
L 130.630156 80.262446 
L 130.666966 82.210761 
L 131.226474 155.765979 
L 131.749172 263.657087 
L 131.874325 273.044423 
L 131.918497 270.918988 
L 132.058374 256.395185 
L 132.124632 260.620752 
L 132.198251 264.745107 
L 132.242423 262.391947 
L 132.404386 233.369644 
L 132.581072 214.291339 
L 132.61052 214.417853 
L 132.632606 214.367247 
L 132.68414 212.747868 
L 132.765121 200.3495 
L 133.125857 130.336673 
L 133.368801 108.500363 
L 133.435058 113.358499 
L 133.574935 127.806393 
L 133.626469 125.554445 
L 133.825242 110.980036 
L 133.884137 113.63683 
L 133.957757 117.963607 
L 134.00929 115.939384 
L 134.259597 95.418819 
L 134.318492 99.290146 
L 134.436283 129.653497 
L 134.774933 215.556478 
L 134.84119 220.186889 
L 134.892724 217.960243 
L 134.944258 216.138442 
L 134.988429 217.909638 
L 135.076773 222.691866 
L 135.128306 220.566431 
L 135.209288 216.846921 
L 135.260821 218.972355 
L 135.363889 224.18473 
L 135.430146 223.349738 
L 135.466956 225.348659 
L 135.592109 251.081599 
L 135.643643 255.509588 
L 135.695176 251.663563 
L 135.916035 209.660928 
L 136.343028 87.068897 
L 136.357752 86.790567 
L 136.401923 88.35934 
L 136.490267 92.205364 
L 136.5418 90.813711 
L 136.571248 90.307655 
L 136.608058 91.699308 
L 136.95407 129.096836 
L 137.624007 263.04982 
L 137.646093 263.353453 
L 137.690264 262.088314 
L 137.78597 258.798951 
L 137.844865 259.937576 
L 138.036276 265.68131 
L 138.08781 262.923306 
L 138.470631 228.182572 
L 138.566336 214.898606 
L 139.140568 111.233064 
L 139.155292 111.005339 
L 139.192102 112.270479 
L 139.346703 124.010975 
L 139.41296 121.101153 
L 139.589647 112.017451 
L 139.626457 112.346387 
L 139.758972 116.521348 
L 139.810505 117.659974 
L 139.847315 116.344228 
L 139.957744 100.403469 
L 140.046088 91.471583 
L 140.097621 94.356102 
L 140.303756 133.221191 
L 140.723387 219.959164 
L 140.745473 219.604925 
L 140.841178 215.328753 
L 140.892712 217.555399 
L 140.973693 222.312324 
L 141.025227 219.529017 
L 141.135656 211.558637 
L 141.18719 214.114219 
L 141.540563 252.44795 
L 141.614183 243.642578 
L 141.930746 152.754947 
L 142.181053 97.87319 
L 142.254672 91.674006 
L 142.313568 94.507918 
L 142.401911 98.353943 
L 142.460807 97.468345 
L 142.475531 97.392437 
L 142.504978 97.822584 
L 142.644855 106.425534 
L 142.792094 120.595098 
L 143.491479 255.838524 
L 143.601909 253.561273 
L 143.653442 256.369883 
L 143.808043 269.856271 
L 143.866939 266.997056 
L 144.102521 237.544605 
L 144.24976 238.556717 
L 144.316018 233.69858 
L 144.500066 192.277909 
L 144.963869 115.939384 
L 145.008041 116.976798 
L 145.199451 122.087962 
L 145.228899 121.632512 
L 145.302519 115.736961 
L 145.376138 110.625797 
L 145.427672 113.206682 
L 145.567549 125.427931 
L 145.619082 122.644624 
L 145.928284 94.634432 
L 145.972456 97.493648 
L 146.171228 136.56116 
L 146.612945 215.556478 
L 146.671841 218.238574 
L 146.730737 216.416773 
L 146.804356 214.746789 
L 146.863252 215.227542 
L 146.877975 215.278147 
L 146.907423 215.02512 
L 147.032576 210.065772 
L 147.08411 212.545446 
L 147.437484 247.260877 
L 147.481655 244.629387 
L 147.621532 213.279227 
L 148.173678 99.467266 
L 148.18104 99.543174 
L 148.291469 103.94586 
L 148.357727 101.289067 
L 148.44607 96.835775 
L 148.490242 98.657576 
L 148.681653 126.490648 
L 149.01294 183.32072 
L 149.300056 237.747027 
L 149.410486 245.970435 
L 149.646068 269.552638 
L 149.704964 266.136761 
L 149.874288 246.982547 
L 149.947908 249.715248 
L 150.006803 251.132205 
L 150.050975 249.715248 
L 150.168766 235.393868 
L 150.794532 121.784329 
L 150.853427 124.162791 
L 150.904961 126.187015 
L 150.956495 123.833855 
L 151.133181 110.676403 
L 151.192077 111.713817 
L 151.31723 117.305735 
L 151.427659 123.42901 
L 151.471831 121.25297 
L 151.707413 99.113027 
L 151.795757 99.391357 
L 151.854652 102.452995 
L 151.972443 125.32672 
L 152.369989 204.549763 
L 152.576123 219.478411 
L 152.649743 215.505873 
L 152.804344 206.953529 
L 152.841153 207.434282 
L 152.951583 212.697263 
L 153.084098 234.05282 
L 153.179803 243.794395 
L 153.238699 242.453347 
L 153.268146 242.200319 
L 153.312318 242.858191 
L 153.334404 243.060614 
L 153.363852 242.225622 
L 153.437471 230.991182 
L 154.019065 106.855681 
L 154.254647 94.634432 
L 154.284095 95.039277 
L 154.365077 100.707103 
L 154.806793 165.811188 
L 155.115995 227.828333 
L 155.270596 247.91875 
L 155.447283 269.603243 
L 155.491455 267.57902 
L 155.646056 255.25656 
L 155.719675 256.496397 
L 155.756485 256.825333 
L 155.793295 256.040946 
L 155.933172 245.74271 
L 156.249735 206.093234 
L 156.860777 114.826061 
L 156.963844 107.032801 
L 157.015378 109.765502 
L 157.177341 121.910843 
L 157.243598 121.328879 
L 157.32458 119.633591 
L 157.442371 107.994307 
L 157.582248 96.557445 
L 157.62642 97.746676 
L 157.766297 110.524586 
L 158.001879 166.494363 
L 158.414148 218.947052 
L 158.443596 219.250686 
L 158.480406 218.061455 
L 158.642368 205.15703 
L 158.708626 209.585019 
L 159.098809 245.641499 
L 159.113533 245.56559 
L 159.201876 242.832889 
L 159.304944 230.333309 
L 159.511078 163.027881 
L 159.790832 111.941543 
L 160.063224 89.852205 
L 160.107396 91.749914 
L 160.549113 138.838411 
L 161.18224 261.556955 
L 161.307394 265.352374 
L 161.336841 264.998135 
L 161.653405 254.750504 
L 162.065674 209.888653 
L 162.500029 134.789964 
L 162.750335 113.45971 
L 162.772421 113.63683 
L 162.890212 116.72377 
L 163.052175 125.858078 
L 163.118433 123.757947 
L 163.339291 105.539936 
L 163.457082 96.026086 
L 163.501254 97.923795 
L 163.655855 121.202365 
L 164.185915 218.036152 
L 164.244811 215.986626 
L 164.473031 208.31988 
L 164.509841 207.763218 
L 164.554013 208.699421 
L 164.715976 222.717168 
L 165.025177 245.034232 
L 165.084073 241.314721 
L 165.231312 208.724724 
L 165.621495 121.556604 
L 165.879163 94.305496 
L 165.923335 95.494727 
L 166.335604 121.531301 
L 167.108609 260.468935 
L 167.145418 260.570146 
L 167.204314 262.138919 
L 167.329467 267.351295 
L 167.381001 265.630705 
L 167.866889 226.689707 
L 168.36014 131.500601 
L 168.566274 110.220953 
L 168.639894 111.966845 
L 168.949096 122.998863 
L 169.007991 120.367372 
L 169.302469 96.203206 
L 169.354003 98.252732 
L 169.479156 119.633591 
L 170.06075 214.949211 
L 170.075474 214.822697 
L 170.163817 210.799553 
L 170.25216 207.662007 
L 170.303694 208.623513 
L 170.583448 220.566431 
L 170.789583 243.161825 
L 170.877926 249.310404 
L 170.92946 246.805427 
L 171.047251 223.071408 
L 171.518415 118.419057 
L 171.709826 95.342911 
L 171.753998 96.506839 
L 171.871789 102.098756 
L 171.923323 100.454075 
L 171.996942 97.544254 
L 172.048476 99.517871 
L 172.180991 120.999942 
L 172.909824 251.106902 
L 173.174854 264.264354 
L 173.204302 263.834206 
L 173.292645 258.621831 
L 173.395712 253.814301 
L 173.454608 254.699898 
L 173.498779 255.357771 
L 173.535589 254.370962 
L 173.638656 241.264115 
L 174.411661 117.761185 
L 174.485281 115.028483 
L 174.536814 116.217714 
L 174.801844 125.124297 
L 174.831292 124.441122 
L 174.912274 115.154997 
L 175.08896 95.06458 
L 175.133132 95.798361 
L 175.243561 102.301179 
L 175.471782 133.448916 
L 176.038652 207.105345 
L 176.215338 209.078963 
L 176.399387 214.114219 
L 176.539264 229.017564 
L 176.715951 251.840683 
L 176.767484 249.032073 
L 176.907361 221.274909 
L 177.452146 111.562001 
L 177.702452 101.871031 
L 177.827605 96.810473 
L 177.871777 98.050309 
L 177.982206 112.396993 
L 178.902449 260.089393 
L 178.939259 260.949688 
L 178.990793 259.229098 
L 179.115946 255.180651 
L 179.167479 255.53489 
L 179.329442 257.786839 
L 179.373614 256.673516 
L 179.469319 244.93302 
L 180.242324 124.06158 
L 180.374839 114.168188 
L 180.426373 116.926193 
L 180.573612 127.95821 
L 180.632507 125.984592 
L 180.79447 106.374928 
L 180.941709 95.924875 
L 180.978519 96.355022 
L 181.074224 101.719214 
L 181.331892 131.804235 
L 181.810419 204.828094 
L 182.009191 207.105345 
L 182.031277 206.902923 
L 182.171154 204.904003 
L 182.222688 205.941417 
L 182.318393 215.328753 
L 182.576061 249.538129 
L 182.627595 246.678913 
L 182.922073 196.832412 
L 183.518391 104.780852 
L 183.636182 97.164712 
L 183.680354 98.50576 
L 183.871764 118.166029 
L 184.225138 173.908082 
L 184.644769 244.502873 
L 184.777284 254.320356 
L 184.821456 253.510667 
L 184.909799 251.435838 
L 184.953971 252.599767 
L 185.130657 263.201637 
L 185.196915 260.620752 
L 185.36624 241.643657 
L 186.190778 117.078009 
L 186.249673 119.431169 
L 186.411636 130.994545 
L 186.470532 128.41366 
L 186.838629 99.568477 
L 186.890163 100.125138 
L 186.985868 103.591621 
L 187.125745 117.027404 
L 187.390775 171.150077 
L 187.648444 199.590416 
L 187.766235 205.207636 
L 187.817768 204.575066 
L 188.031265 201.083281 
L 188.075437 202.323118 
L 188.171142 214.316641 
L 188.406724 246.324674 
L 188.443534 245.287259 
L 188.576049 232.812983 
L 188.841079 187.242653 
L 189.135557 132.386199 
L 189.466845 101.086644 
L 189.511016 102.427693 
L 189.82758 125.933987 
L 190.158868 179.120457 
L 190.755186 248.070567 
L 190.976044 263.201637 
L 191.071749 258.115775 
L 191.403037 219.073566 
L 192.014079 122.619321 
L 192.021441 122.695229 
L 192.080336 125.402628 
L 192.227575 132.94286 
L 192.271747 131.652418 
L 192.3969 118.317846 
L 192.684016 95.671847 
L 192.823893 94.583827 
L 192.845979 94.786249 
L 192.904874 97.797281 
L 193.044751 121.151759 
L 193.538002 203.967799 
L 193.626345 208.623513 
L 193.677879 206.902923 
L 193.825118 202.550843 
L 193.861928 202.829174 
L 193.920823 205.688389 
L 194.090148 231.573146 
L 194.266835 242.782283 
L 194.274197 242.731677 
L 194.384626 241.289418 
L 194.465607 236.709613 
L 194.605484 211.811665 
L 195.069287 125.579748 
L 195.290146 104.704944 
L 195.297508 104.679641 
L 195.334317 104.932669 
L 195.503642 106.75447 
L 195.628795 114.522427 
L 195.849654 145.26532 
L 196.092598 187.520984 
L 196.409162 237.468697 
L 196.563763 246.324674 
L 196.784621 262.366644 
L 196.828793 261.50635 
L 197.079099 250.879177 
L 197.314681 213.076805 
L 197.852104 127.730485 
L 197.955171 130.842729 
L 198.043514 132.436805 
L 198.080324 131.677721 
L 198.183391 122.189174 
L 198.499955 95.874269 
L 198.63247 89.523268 
L 198.684004 90.307655 
L 198.772347 96.1526 
L 198.956396 129.526983 
L 199.457008 203.967799 
L 199.471732 204.043708 
L 199.50118 203.487046 
L 199.626333 198.780727 
L 199.685229 200.425408 
L 199.80302 212.570749 
L 200.171117 246.754821 
L 200.215289 247.210272 
L 200.259461 246.37528 
L 200.355166 238.000055 
L 200.796883 150.629512 
L 201.12817 109.208841 
L 201.319581 103.338593 
L 201.378477 105.464028 
L 201.69504 136.156315 
L 201.871727 163.989387 
L 202.269272 228.587416 
L 202.688903 261.759377 
L 202.821418 264.618593 
L 202.872952 263.024517 
L 203.005467 245.008929 
L 203.69749 133.828458 
L 203.77111 134.359817 
L 203.815281 133.879064 
L 203.925711 129.324561 
L 204.33798 93.495807 
L 204.485219 83.121662 
L 204.536752 84.310893 
L 204.654543 95.848966 
L 205.030003 165.836491 
L 205.287671 200.627831 
L 205.295033 200.602528 
L 205.383376 199.590416 
L 205.43491 200.147078 
L 205.560063 203.993102 
L 205.729388 221.300212 
L 206.060676 251.35993 
L 206.104847 249.740551 
L 206.252086 230.459823 
L 207.106072 102.655418 
L 207.128158 102.528904 
L 207.164968 103.085565 
L 207.275397 108.854602 
L 207.66558 147.441361 
L 208.055763 216.922829 
L 208.475394 257.508508 
L 208.629995 266.086155 
L 208.681529 264.795713 
L 208.83613 249.664643 
L 209.255761 187.647498 
L 209.528153 140.837332 
L 210.028766 109.310052 
L 210.337967 81.831219 
L 210.374777 82.438486 
L 210.46312 88.789487 
L 210.735513 130.412581 
L 211.147782 196.756503 
L 211.40545 204.24613 
L 211.692566 232.635863 
L 211.906062 252.928703 
L 211.950234 251.739472 
L 212.068025 238.000055 
L 212.958821 103.566318 
L 213.039802 106.526745 
L 213.260661 113.029563 
L 213.312194 114.54773 
L 213.444709 130.412581 
L 214.313419 255.762616 
L 214.475382 264.466776 
L 214.50483 264.13784 
L 214.585811 259.305007 
L 215.03489 207.737915 
L 215.380902 146.176221 
L 216.183354 84.867554 
L 216.286421 88.207523 
L 216.448384 104.12298 
L 216.713414 155.361135 
L 216.978444 191.898367 
L 217.456971 215.961323 
L 217.751449 247.109061 
L 217.802983 245.945132 
L 217.950222 236.203557 
L 218.178442 198.299974 
L 218.634883 119.886619 
L 218.782122 111.435487 
L 218.81157 111.764423 
L 218.96617 113.839252 
L 219.010342 113.383802 
L 219.120771 111.182459 
L 219.164943 112.447598 
L 219.26801 124.618242 
L 220.09991 246.122252 
L 220.291321 260.570146 
L 220.320769 260.342421 
L 220.416474 256.293974 
L 220.791934 230.561034 
L 221.336718 142.254288 
L 221.903588 95.950178 
L 222.043465 87.423136 
L 222.080274 87.827981 
L 222.220151 93.723532 
L 222.360028 109.360658 
L 222.97107 196.098631 
L 223.258186 206.472776 
L 223.663093 242.377438 
L 223.677817 242.326833 
L 223.736713 241.340024 
L 223.83978 234.381756 
L 224.016467 201.943576 
L 224.546527 118.216635 
L 224.598061 117.103312 
L 224.649594 118.241938 
L 224.70849 119.507078 
L 224.752662 118.469663 
L 224.921986 110.220953 
L 224.980882 111.73912 
L 225.113397 124.112186 
L 225.437323 176.134727 
L 225.76861 222.81838 
L 226.114622 256.015644 
L 226.210327 253.662484 
L 226.328118 251.284021 
L 226.37229 251.81538 
L 226.431186 252.549161 
L 226.467995 251.891288 
L 226.556339 244.907718 
L 226.740388 211.128489 
L 227.101123 151.565716 
L 227.321981 139.546889 
L 227.447135 136.358737 
L 227.587012 121.126456 
L 227.903575 90.661894 
L 228.014005 88.941304 
L 228.043452 89.472663 
L 228.14652 96.506839 
L 228.33793 130.463187 
L 228.706028 187.192048 
L 228.875352 191.265797 
L 228.948972 193.01169 
L 229.096211 203.411138 
L 229.567376 247.058455 
L 229.582099 246.931941 
L 229.648357 242.30153 
L 229.964921 192.455029 
L 230.590686 117.913002 
L 230.774735 110.499283 
L 230.811545 110.929431 
L 230.892526 115.964687 
L 231.179642 152.856158 
L 231.628721 220.591734 
L 231.945285 250.347818 
L 231.974733 250.170698 
L 232.099886 249.538129 
L 232.129333 249.791157 
L 232.283934 252.979308 
L 232.34283 251.663563 
L 232.438535 241.795474 
L 233.182092 143.443519 
L 233.255712 141.571113 
L 233.380865 129.780011 
L 233.800496 89.244938 
L 233.859391 88.081009 
L 233.910925 88.890698 
L 234.00663 96.203206 
L 234.30847 150.022245 
L 234.602948 185.117219 
L 234.87534 195.440758 
L 235.412762 247.564511 
L 235.493744 242.782283 
L 235.891289 185.623275 
L 236.229939 130.741517 
L 236.458159 117.938304 
L 236.57595 114.244097 
L 236.620122 114.522427 
L 236.737913 116.72377 
L 236.885152 128.236541 
L 237.128096 169.353579 
L 237.584537 231.345421 
L 237.798033 244.401662 
L 237.901101 245.74271 
L 238.121959 253.839603 
L 238.195579 251.790077 
L 238.342818 235.849318 
L 239.020117 148.276353 
L 239.18208 138.054024 
L 239.697416 88.612368 
L 239.756312 89.700388 
L 239.874103 97.898493 
L 240.117047 136.282829 
L 240.433611 178.032437 
L 240.683917 190.127172 
L 241.140358 238.86035 
L 241.228701 242.807586 
L 241.272873 241.567749 
L 241.559989 221.350818 
L 241.729314 190.456108 
L 242.038515 140.73612 
L 242.458147 118.419057 
L 242.561214 117.659974 
L 242.605385 118.014213 
L 242.679005 120.999942 
L 242.818882 139.799917 
L 243.45201 231.573146 
L 243.68023 242.099108 
L 243.959984 253.004611 
L 244.033603 250.626149 
L 244.232376 231.69966 
L 245.012742 141.874746 
L 245.314582 109.310052 
L 245.550165 88.890698 
L 245.579612 89.320846 
L 245.719489 95.06458 
L 245.859367 112.54881 
L 246.374703 179.879541 
L 246.801696 212.849079 
L 247.074088 239.998976 
L 247.08145 239.973673 
L 247.162431 238.759139 
L 247.368566 231.573146 
L 247.501081 210.166983 
L 247.920712 139.850523 
L 248.200466 122.644624 
L 248.413962 113.839252 
L 248.494944 116.394834 
L 248.642183 132.03196 
L 249.459359 236.810824 
L 249.84218 253.282942 
L 249.923162 251.511746 
L 250.077763 236.987944 
L 250.320707 194.504555 
L 250.622547 157.866111 
L 250.968558 134.688753 
L 251.454447 89.548571 
L 251.498619 90.004021 
L 251.5796 93.698229 
L 251.741563 115.838173 
L 252.161194 175.52746 
L 252.418862 188.65961 
L 252.529291 195.162427 
L 253.074076 237.291577 
L 253.110885 237.493999 
L 253.147695 236.836127 
L 253.236038 230.712851 
L 253.434811 194.55516 
L 253.832356 139.6481 
L 254.274073 113.788646 
L 254.332969 115.230906 
L 254.509655 132.03196 
L 254.929286 190.3802 
L 255.260574 230.43452 
L 255.672843 252.194922 
L 255.717015 252.27083 
L 255.746463 252.068408 
L 255.820082 249.664643 
L 255.967321 234.761298 
L 256.622535 153.842967 
L 256.821307 138.028722 
L 257.336643 90.105233 
L 257.351367 90.07993 
L 257.366091 90.231746 
L 257.439711 93.900651 
L 257.601674 117.963607 
L 258.006581 172.997181 
L 258.220077 181.448314 
L 258.301059 184.990705 
L 258.544003 212.849079 
L 258.809033 230.383915 
L 258.956272 238.253083 
L 259.007806 237.063852 
L 259.125597 226.234257 
L 259.47897 167.354658 
L 259.758724 140.128853 
L 260.11946 115.964687 
L 260.207803 118.62148 
L 260.406576 136.459949 
L 260.72314 177.298656 
L 261.120685 225.677595 
L 261.562402 251.81538 
L 261.606573 252.220225 
L 261.650745 251.587655 
L 261.761174 244.123331 
L 261.989395 209.458505 
L 262.364854 163.331514 
L 262.762399 130.286067 
L 263.189392 90.940225 
L 263.21884 91.243858 
L 263.314545 97.41774 
L 263.623747 140.533698 
L 263.947673 172.364611 
L 264.161169 182.106186 
L 264.823745 238.354294 
L 264.831107 238.303689 
L 264.88264 236.785521 
L 265.044603 221.856874 
L 265.964847 118.773297 
L 265.972208 118.747994 
L 266.001656 118.975719 
L 266.119447 122.771138 
L 266.332944 138.155236 
L 266.531717 163.154395 
L 267.002881 223.09671 
L 267.459322 253.966117 
L 267.496132 253.333548 
L 267.613923 246.299371 
L 267.805334 219.529017 
L 268.210241 167.253447 
L 268.512081 144.683356 
L 269.027417 94.659735 
L 269.108398 97.012895 
L 269.262999 110.701706 
L 269.859317 169.227065 
L 270.043366 182.2327 
L 270.713303 235.469776 
L 270.742751 235.14084 
L 270.823732 231.52254 
L 270.970971 213.481649 
L 271.42005 155.158712 
L 271.861767 120.645703 
L 271.869129 120.721612 
L 271.95011 122.644624 
L 272.21514 136.814188 
L 272.531704 182.2327 
L 272.943973 226.968038 
L 273.326795 253.485364 
L 273.34888 253.308245 
L 273.437224 249.386312 
L 273.628634 227.80303 
L 274.107161 169.63191 
L 274.438449 142.380802 
L 274.718203 107.665371 
L 274.894889 95.773058 
L 274.924337 96.228508 
L 275.04949 102.579509 
L 275.226177 120.898731 
L 275.61636 161.939861 
L 275.829857 175.198524 
L 276.602861 236.152951 
L 276.639671 235.545684 
L 276.735376 228.182572 
L 277.714516 123.201285 
L 277.766049 122.948257 
L 277.810221 123.327799 
L 277.92065 126.313529 
L 278.089975 136.915399 
L 278.458072 187.900526 
L 278.877703 230.61164 
L 279.201629 251.537049 
L 279.223715 251.587655 
L 279.253163 251.208113 
L 279.348868 245.869224 
L 279.547641 219.756742 
L 279.915738 177.830014 
L 280.806534 97.164712 
L 280.894877 99.796202 
L 281.064202 115.81287 
L 281.491195 159.409581 
L 282.102237 209.003055 
L 282.462972 236.50719 
L 282.485058 236.254163 
L 282.566039 231.142998 
L 283.015118 175.350341 
L 283.559902 125.883381 
L 283.714503 123.226588 
L 283.743951 123.555524 
L 283.861742 128.110027 
L 284.038429 143.772456 
L 284.936587 246.628307 
L 285.113273 251.941894 
L 285.120635 251.865986 
L 285.172169 250.373121 
L 285.297322 237.544605 
L 285.82002 176.413058 
L 286.681368 96.203206 
L 286.718178 96.709261 
L 286.813883 101.997545 
L 288.330445 236.962641 
L 288.367254 236.077043 
L 288.477684 225.62699 
L 289.302222 132.310291 
L 289.530442 124.086883 
L 289.589338 123.454313 
L 289.633509 123.960369 
L 289.751301 128.540174 
L 289.942711 146.98591 
L 290.634734 229.017564 
L 290.95866 253.35885 
L 290.988108 252.979308 
L 291.083813 247.691025 
L 291.473996 202.905082 
L 291.981971 156.49976 
L 292.534117 96.000783 
L 292.615098 98.480457 
L 292.806509 115.863475 
L 293.277674 159.384279 
L 293.601599 184.636466 
L 294.168469 235.216748 
L 294.271537 231.649054 
L 294.448223 212.975593 
L 295.331657 127.528063 
L 295.478896 124.997783 
L 295.523068 125.250811 
L 295.611411 127.907605 
L 295.766012 141.36869 
L 296.818771 251.410535 
L 296.862942 250.524938 
L 296.988095 240.960482 
L 298.180731 115.661053 
L 298.416313 98.935907 
L 298.423675 98.96121 
L 298.482571 100.631194 
L 298.66662 114.623639 
L 300.02858 232.281624 
L 300.080114 231.269512 
L 300.219991 222.666563 
L 301.339007 125.276114 
L 301.368455 125.098995 
L 301.412626 125.554445 
L 301.523055 130.792123 
L 301.795448 159.763821 
L 302.656795 250.145396 
L 302.671519 250.044184 
L 302.737777 248.272989 
L 302.914464 236.532493 
L 303.974584 127.932907 
L 304.246976 103.212079 
L 304.29851 102.655418 
L 304.342682 103.212079 
L 304.438387 107.943701 
L 305.689918 215.531175 
L 305.903415 229.295895 
L 305.918138 229.169381 
L 306.013844 225.62699 
L 306.219978 209.509111 
L 307.177032 127.831696 
L 307.235927 127.224429 
L 307.287461 127.806393 
L 307.39789 132.816346 
L 307.648196 157.410661 
L 308.428563 242.908797 
L 308.546354 247.28618 
L 308.583164 246.678913 
L 308.75985 238.961561 
L 308.973347 216.821618 
L 310.151259 102.908446 
L 310.15862 102.883143 
L 310.19543 103.136171 
L 310.298497 106.627956 
L 310.563528 129.805314 
L 311.130398 172.238097 
L 311.373342 191.518825 
L 311.785611 227.423488 
L 311.807697 227.271671 
L 311.903402 223.9064 
L 312.168432 203.537652 
L 313.022418 129.273955 
L 313.125486 127.983513 
L 313.162295 128.236541 
L 313.243277 130.817426 
L 313.464135 150.174062 
L 314.42855 244.275148 
L 314.46536 244.528176 
L 314.509532 243.946211 
L 314.627323 237.77233 
L 314.884991 212.520143 
L 316.033455 104.40131 
L 316.099713 105.615844 
L 316.232228 112.295782 
L 317.675169 226.158348 
L 317.711979 225.829412 
L 317.815046 222.236415 
L 318.035905 205.384756 
L 318.875167 130.235462 
L 318.970872 128.388358 
L 319.022406 128.818505 
L 319.125473 131.525904 
L 319.272712 143.671244 
L 320.354918 244.629387 
L 320.36228 244.604084 
L 320.413814 243.516064 
L 320.583139 232.256321 
L 321.540192 136.83949 
L 321.864118 105.590542 
L 321.893566 105.362816 
L 321.945099 106.071295 
L 322.092338 112.928351 
L 323.056753 182.86527 
L 323.527918 224.36185 
L 323.550004 224.463061 
L 323.586814 224.134125 
L 323.748776 218.618116 
L 323.962273 199.742233 
L 324.588039 141.216874 
L 324.875155 128.489569 
L 324.882516 128.514872 
L 324.963498 129.729406 
L 325.073927 135.700865 
L 325.57454 183.852079 
L 326.215029 244.426965 
L 326.229753 244.376359 
L 326.296011 242.75698 
L 326.487421 230.43452 
L 327.319321 152.830855 
L 327.753676 106.501442 
L 327.797848 106.045992 
L 327.84202 106.855681 
L 328.018706 114.674244 
L 328.327908 137.699785 
L 328.799073 169.91024 
L 329.122999 205.7896 
L 329.380667 223.425647 
L 329.454286 224.311244 
L 329.50582 223.9064 
L 329.616249 219.503714 
L 329.822384 202.095393 
L 330.403977 147.087121 
L 330.735265 127.983513 
L 330.749989 127.907605 
L 330.786799 128.287147 
L 330.889866 132.66453 
L 331.280049 165.279829 
L 331.611337 203.183413 
L 332.008882 240.859271 
L 332.111949 242.402741 
L 332.148759 242.048502 
L 332.259188 237.569908 
L 332.516857 214.923908 
L 332.951212 183.725565 
L 333.186794 156.67688 
L 333.606425 109.56308 
L 333.687406 108.525666 
L 333.731578 108.905207 
L 333.871455 113.029563 
L 334.121761 130.210159 
L 334.629736 164.343626 
L 334.865318 189.292179 
L 335.226053 221.249607 
L 335.36593 224.311244 
L 335.40274 223.931703 
L 335.505807 218.845841 
L 335.844457 188.052343 
L 336.57329 128.211238 
L 336.624824 127.50276 
L 336.676357 128.337752 
L 336.830958 137.294941 
L 337.309485 179.550604 
L 337.949974 241.719566 
L 337.994146 242.023199 
L 338.038318 241.66896 
L 338.134023 238.22778 
L 338.384329 217.175857 
L 339.098438 151.97056 
L 339.459174 110.853522 
L 339.576965 108.829299 
L 339.613774 109.057024 
L 339.731566 112.19457 
L 339.922976 124.491728 
L 340.379417 154.32372 
L 340.607637 171.732041 
L 341.211317 222.540049 
L 341.226041 222.590655 
L 341.270213 222.362929 
L 341.343832 220.64234 
L 341.542605 206.978832 
L 342.492296 129.071533 
L 342.573278 130.387278 
L 342.801498 143.114583 
L 343.1107 168.872826 
L 343.861618 241.238813 
L 343.891066 241.011088 
L 343.972048 238.455505 
L 344.200268 222.160507 
L 344.980635 151.768138 
L 345.334008 113.358499 
L 345.466523 110.271558 
L 345.510695 110.625797 
L 345.621124 113.611527 
L 345.775725 122.442201 
L 346.261614 152.248891 
L 346.4383 166.848602 
L 347.064066 222.413535 
L 347.115599 222.64126 
L 347.159771 222.362929 
L 347.262838 218.845841 
L 347.520507 198.856635 
L 348.330321 131.374087 
L 348.367131 131.247573 
L 348.411302 131.525904 
L 348.499646 134.132092 
L 348.845657 154.475537 
L 349.235841 197.338468 
L 349.677557 238.4049 
L 349.743815 239.543526 
L 349.787987 238.835047 
L 349.964673 230.004373 
L 350.722954 173.250209 
L 351.223566 114.927272 
L 351.378167 111.890937 
L 351.400253 112.042754 
L 351.503321 114.927272 
L 351.760989 131.374087 
L 352.092276 148.023325 
L 352.298411 164.065295 
L 352.968348 222.337627 
L 352.997796 222.464141 
L 353.041968 222.135204 
L 353.152397 219.149475 
L 353.31436 207.155951 
L 354.219879 132.436805 
L 354.286137 132.968163 
L 354.4481 136.637068 
L 354.661596 147.643783 
L 354.992884 179.474696 
L 355.574478 237.924147 
L 355.626011 238.328992 
L 355.670183 237.721725 
L 355.81006 231.724963 
L 356.546255 182.258003 
L 357.164659 113.611527 
L 357.28245 112.143965 
L 357.319259 112.472901 
L 357.437051 117.128615 
L 358.195331 164.748471 
L 358.813735 220.692945 
L 358.879992 221.55324 
L 358.931526 220.945973 
L 359.078765 215.657689 
L 359.417415 189.443996 
L 359.807598 153.311608 
L 360.072628 135.852682 
L 360.138886 135.346626 
L 360.197781 135.549048 
L 360.286124 136.206921 
L 360.389192 139.116742 
L 360.64686 154.247812 
L 361.022319 196.048025 
L 361.44195 234.837206 
L 361.508208 235.672198 
L 361.559741 235.039628 
L 361.721704 228.486205 
L 362.428451 183.573748 
L 363.046855 113.586224 
L 363.157284 111.941543 
L 363.194094 112.295782 
L 363.297161 115.838173 
L 364.143785 171.605527 
L 364.673846 219.326594 
L 364.784275 221.755662 
L 364.821084 221.300212 
L 364.983047 213.962402 
L 365.535193 170.897049 
L 365.954824 136.738279 
L 366.08734 135.371928 
L 366.124149 135.599654 
L 366.234578 137.851602 
L 366.448075 147.669086 
L 366.720467 172.693548 
L 367.360957 234.609481 
L 367.397766 234.735995 
L 367.434576 234.356453 
L 367.552367 230.586337 
L 368.214942 196.478173 
L 369.017395 112.447598 
L 369.061567 112.801837 
L 369.157272 115.585145 
L 369.886105 155.841888 
L 370.666471 222.717168 
L 370.710643 222.084599 
L 370.843158 215.682992 
L 371.468924 165.052104 
L 371.814935 138.357658 
L 371.991622 135.574351 
L 371.998984 135.599654 
L 372.094689 136.940702 
L 372.264014 142.63383 
L 372.499596 160.472299 
L 372.956037 215.02512 
L 373.228429 233.141919 
L 373.294687 233.673278 
L 373.331496 233.24313 
L 373.441926 229.548922 
L 374.111863 194.960005 
L 374.877505 112.953654 
L 374.884867 112.978957 
L 374.987935 115.028483 
L 375.679958 147.947416 
L 376.003883 180.790441 
L 376.475048 220.819459 
L 376.526582 221.452029 
L 376.578115 220.945973 
L 376.681183 216.56859 
L 377.240691 177.526381 
L 377.68977 140.305973 
L 377.88118 136.966004 
L 377.910628 136.915399 
L 377.947438 137.117821 
L 378.087315 139.6481 
L 378.25664 149.187253 
L 378.587927 182.359214 
L 379.081178 231.168301 
L 379.176883 232.686469 
L 379.221055 232.231019 
L 379.375656 226.765615 
L 379.935164 201.665245 
L 380.767064 114.244097 
L 380.825959 114.952575 
L 381.120437 124.643544 
L 381.569516 147.719691 
L 382.084853 201.488126 
L 382.37933 221.021881 
L 382.401416 221.072487 
L 382.438226 220.743551 
L 382.548655 216.290259 
L 383.05663 184.434043 
L 383.608776 140.407184 
L 383.81491 137.067216 
L 383.859082 137.168427 
L 383.910616 137.674483 
L 384.028407 142.279591 
L 384.278713 160.750629 
L 385.036994 230.940576 
L 385.066441 230.814062 
L 385.184233 228.486205 
L 385.81736 200.729042 
L 386.663984 115.888778 
L 386.671346 115.914081 
L 386.693432 116.015292 
L 386.811223 118.368452 
L 387.230854 132.816346 
L 387.488522 150.553604 
L 388.254165 219.807347 
L 388.313061 219.225383 
L 388.519195 212.798474 
L 388.791587 198.45179 
L 389.18177 160.624115 
L 389.498334 140.45779 
L 389.704469 136.131012 
L 389.711831 136.156315 
L 389.770726 136.738279 
L 389.917965 141.950655 
L 390.182995 162.445917 
L 390.904466 229.80195 
L 390.91919 229.776648 
L 391.036981 228.309086 
L 391.611213 209.68623 
L 391.927777 172.997181 
L 392.435751 117.963607 
L 392.546181 116.44544 
L 392.58299 116.72377 
L 392.722867 119.304655 
L 393.009983 128.843808 
L 393.304461 145.366532 
L 393.731454 187.824618 
L 394.084828 217.631307 
L 394.143723 217.884335 
L 394.187895 217.65661 
L 394.2836 216.239654 
L 394.511821 208.092154 
L 394.725317 193.846682 
L 395.483598 137.927511 
L 395.564579 136.814188 
L 395.616113 137.396152 
L 395.770714 141.014451 
L 395.98421 155.487649 
L 396.337584 195.18773 
L 396.690957 226.436679 
L 396.794025 228.056058 
L 396.830834 227.777727 
L 397.331447 219.478411 
L 397.508134 207.788521 
L 397.854145 167.10163 
L 398.295862 120.038436 
L 398.443101 117.609368 
L 398.472549 117.710579 
L 398.487273 117.837093 
L 398.487273 117.837093 
" clip-path="url(#p806168c2c8)" style="fill: none; stroke: #1f77b4; stroke-width: 1.5; stroke-linecap: square"/>
   </g>
   <g id="patch_3">
    <path d="M 57.6 307.584 
L 57.6 41.472 
" style="fill: none; stroke: #000000; stroke-width: 0.8; stroke-linejoin: miter; stroke-linecap: square"/>
   </g>
   <g id="patch_4">
    <path d="M 414.72 307.584 
L 414.72 41.472 
" style="fill: none; stroke: #000000; stroke-width: 0.8; stroke-linejoin: miter; stroke-linecap: square"/>
   </g>
   <g id="patch_5">
    <path d="M 57.6 307.584 
L 414.72 307.584 
" style="fill: none; stroke: #000000; stroke-width: 0.8; stroke-linejoin: miter; stroke-linecap: square"/>
   </g>
   <g id="patch_6">
    <path d="M 57.6 41.472 
L 414.72 41.472 
" style="fill: none; stroke: #000000; stroke-width: 0.8; stroke-linejoin: miter; stroke-linecap: square"/>
   </g>
   <g id="text_14">
    <text style="font: 12px 'IPAexGothic'; text-anchor: middle" x="236.16" y="35.472" transform="rotate(-0 236.16 35.472)">"027_A1.wav"の波形グラフ</text>
   </g>
  </g>
 </g>
 <defs>
  <clipPath id="p806168c2c8">
   <rect x="57.6" y="41.472" width="357.12" height="266.112"/>
  </clipPath>
 </defs>
</svg>
