<?xml version="1.0" encoding="utf-8" standalone="no"?>
<!DOCTYPE svg PUBLIC "-//W3C//DTD SVG 1.1//EN"
  "http://www.w3.org/Graphics/SVG/1.1/DTD/svg11.dtd">
<svg xmlns:xlink="http://www.w3.org/1999/xlink" width="460.8pt" height="345.6pt" viewBox="0 0 460.8 345.6" xmlns="http://www.w3.org/2000/svg" version="1.1">
 <metadata>
  <rdf:RDF xmlns:dc="http://purl.org/dc/elements/1.1/" xmlns:cc="http://creativecommons.org/ns#" xmlns:rdf="http://www.w3.org/1999/02/22-rdf-syntax-ns#">
   <cc:Work>
    <dc:type rdf:resource="http://purl.org/dc/dcmitype/StillImage"/>
    <dc:date>2022-11-28T11:29:01.892581</dc:date>
    <dc:format>image/svg+xml</dc:format>
    <dc:creator>
     <cc:Agent>
      <dc:title>Matplotlib v3.6.2, https://matplotlib.org/</dc:title>
     </cc:Agent>
    </dc:creator>
   </cc:Work>
  </rdf:RDF>
 </metadata>
 <defs>
  <style type="text/css">*{stroke-linejoin: round; stroke-linecap: butt}</style>
 </defs>
 <g id="figure_1">
  <g id="patch_1">
   <path d="M 0 345.6 
L 460.8 345.6 
L 460.8 0 
L 0 0 
z
" style="fill: #ffffff"/>
  </g>
  <g id="axes_1">
   <g id="patch_2">
    <path d="M 57.6 307.584 
L 414.72 307.584 
L 414.72 41.472 
L 57.6 41.472 
z
" style="fill: #ffffff"/>
   </g>
   <g id="matplotlib.axis_1">
    <g id="xtick_1">
     <g id="line2d_1">
      <defs>
       <path id="m9756776165" d="M 0 0 
L 0 3.5 
" style="stroke: #000000; stroke-width: 0.8"/>
      </defs>
      <g>
       <use xlink:href="#m9756776165" x="73.832727" y="307.584" style="stroke: #000000; stroke-width: 0.8"/>
      </g>
     </g>
     <g id="text_1">
      <text style="font: 10px 'IPAexGothic'; text-anchor: middle" x="73.832727" y="322.074625" transform="rotate(-0 73.832727 322.074625)">0.0</text>
     </g>
    </g>
    <g id="xtick_2">
     <g id="line2d_2">
      <g>
       <use xlink:href="#m9756776165" x="138.765109" y="307.584" style="stroke: #000000; stroke-width: 0.8"/>
      </g>
     </g>
     <g id="text_2">
      <text style="font: 10px 'IPAexGothic'; text-anchor: middle" x="138.765109" y="322.074625" transform="rotate(-0 138.765109 322.074625)">0.2</text>
     </g>
    </g>
    <g id="xtick_3">
     <g id="line2d_3">
      <g>
       <use xlink:href="#m9756776165" x="203.69749" y="307.584" style="stroke: #000000; stroke-width: 0.8"/>
      </g>
     </g>
     <g id="text_3">
      <text style="font: 10px 'IPAexGothic'; text-anchor: middle" x="203.69749" y="322.074625" transform="rotate(-0 203.69749 322.074625)">0.4</text>
     </g>
    </g>
    <g id="xtick_4">
     <g id="line2d_4">
      <g>
       <use xlink:href="#m9756776165" x="268.629872" y="307.584" style="stroke: #000000; stroke-width: 0.8"/>
      </g>
     </g>
     <g id="text_4">
      <text style="font: 10px 'IPAexGothic'; text-anchor: middle" x="268.629872" y="322.074625" transform="rotate(-0 268.629872 322.074625)">0.6</text>
     </g>
    </g>
    <g id="xtick_5">
     <g id="line2d_5">
      <g>
       <use xlink:href="#m9756776165" x="333.562253" y="307.584" style="stroke: #000000; stroke-width: 0.8"/>
      </g>
     </g>
     <g id="text_5">
      <text style="font: 10px 'IPAexGothic'; text-anchor: middle" x="333.562253" y="322.074625" transform="rotate(-0 333.562253 322.074625)">0.8</text>
     </g>
    </g>
    <g id="xtick_6">
     <g id="line2d_6">
      <g>
       <use xlink:href="#m9756776165" x="398.494635" y="307.584" style="stroke: #000000; stroke-width: 0.8"/>
      </g>
     </g>
     <g id="text_6">
      <text style="font: 10px 'IPAexGothic'; text-anchor: middle" x="398.494635" y="322.074625" transform="rotate(-0 398.494635 322.074625)">1.0</text>
     </g>
    </g>
    <g id="text_7">
     <text style="font: 10px 'IPAexGothic'; text-anchor: middle" x="236.16" y="335.924625" transform="rotate(-0 236.16 335.924625)">時間[s]</text>
    </g>
   </g>
   <g id="matplotlib.axis_2">
    <g id="ytick_1">
     <g id="line2d_7">
      <defs>
       <path id="m65a1f584c0" d="M 0 0 
L -3.5 0 
" style="stroke: #000000; stroke-width: 0.8"/>
      </defs>
      <g>
       <use xlink:href="#m65a1f584c0" x="57.6" y="292.185578" style="stroke: #000000; stroke-width: 0.8"/>
      </g>
     </g>
     <g id="text_8">
      <text style="font: 10px 'IPAexGothic'; text-anchor: end" x="50.6" y="295.93089" transform="rotate(-0 50.6 295.93089)">−2000</text>
     </g>
    </g>
    <g id="ytick_2">
     <g id="line2d_8">
      <g>
       <use xlink:href="#m65a1f584c0" x="57.6" y="257.053426" style="stroke: #000000; stroke-width: 0.8"/>
      </g>
     </g>
     <g id="text_9">
      <text style="font: 10px 'IPAexGothic'; text-anchor: end" x="50.6" y="260.798738" transform="rotate(-0 50.6 260.798738)">−1000</text>
     </g>
    </g>
    <g id="ytick_3">
     <g id="line2d_9">
      <g>
       <use xlink:href="#m65a1f584c0" x="57.6" y="221.921273" style="stroke: #000000; stroke-width: 0.8"/>
      </g>
     </g>
     <g id="text_10">
      <text style="font: 10px 'IPAexGothic'; text-anchor: end" x="50.6" y="225.666586" transform="rotate(-0 50.6 225.666586)">0</text>
     </g>
    </g>
    <g id="ytick_4">
     <g id="line2d_10">
      <g>
       <use xlink:href="#m65a1f584c0" x="57.6" y="186.789121" style="stroke: #000000; stroke-width: 0.8"/>
      </g>
     </g>
     <g id="text_11">
      <text style="font: 10px 'IPAexGothic'; text-anchor: end" x="50.6" y="190.534434" transform="rotate(-0 50.6 190.534434)">1000</text>
     </g>
    </g>
    <g id="ytick_5">
     <g id="line2d_11">
      <g>
       <use xlink:href="#m65a1f584c0" x="57.6" y="151.656969" style="stroke: #000000; stroke-width: 0.8"/>
      </g>
     </g>
     <g id="text_12">
      <text style="font: 10px 'IPAexGothic'; text-anchor: end" x="50.6" y="155.402281" transform="rotate(-0 50.6 155.402281)">2000</text>
     </g>
    </g>
    <g id="ytick_6">
     <g id="line2d_12">
      <g>
       <use xlink:href="#m65a1f584c0" x="57.6" y="116.524817" style="stroke: #000000; stroke-width: 0.8"/>
      </g>
     </g>
     <g id="text_13">
      <text style="font: 10px 'IPAexGothic'; text-anchor: end" x="50.6" y="120.270129" transform="rotate(-0 50.6 120.270129)">3000</text>
     </g>
    </g>
    <g id="ytick_7">
     <g id="line2d_13">
      <g>
       <use xlink:href="#m65a1f584c0" x="57.6" y="81.392665" style="stroke: #000000; stroke-width: 0.8"/>
      </g>
     </g>
     <g id="text_14">
      <text style="font: 10px 'IPAexGothic'; text-anchor: end" x="50.6" y="85.137977" transform="rotate(-0 50.6 85.137977)">4000</text>
     </g>
    </g>
    <g id="ytick_8">
     <g id="line2d_14">
      <g>
       <use xlink:href="#m65a1f584c0" x="57.6" y="46.260512" style="stroke: #000000; stroke-width: 0.8"/>
      </g>
     </g>
     <g id="text_15">
      <text style="font: 10px 'IPAexGothic'; text-anchor: end" x="50.6" y="50.005825" transform="rotate(-0 50.6 50.005825)">5000</text>
     </g>
    </g>
    <g id="text_16">
     <text style="font: 10px 'IPAexGothic'; text-anchor: middle" x="12.723438" y="174.528" transform="rotate(-90 12.723438 174.528)">振幅</text>
    </g>
   </g>
   <g id="line2d_15">
    <path d="M 73.832727 221.921273 
L 73.869537 221.851009 
L 73.876899 222.202331 
L 73.884261 222.061802 
L 74.060948 226.27766 
L 74.06831 226.031735 
L 74.171377 222.167198 
L 74.208187 217.389226 
L 74.252358 226.523585 
L 74.267082 227.858607 
L 74.311254 222.729313 
L 74.370149 184.962249 
L 74.421683 53.568 
L 74.458493 204.847047 
L 74.473217 226.558717 
L 74.546836 165.463905 
L 74.576284 130.893867 
L 74.63518 209.835813 
L 74.767695 236.009266 
L 74.789781 240.857503 
L 74.841314 225.645281 
L 74.848676 223.186031 
L 74.885486 243.141093 
L 74.929658 279.573135 
L 75.010639 265.485142 
L 75.069535 234.182394 
L 75.121068 263.061024 
L 75.16524 285.896922 
L 75.231497 271.246815 
L 75.437632 237.168627 
L 75.444994 237.133495 
L 75.606957 223.81841 
L 75.636405 226.839775 
L 75.687938 231.688012 
L 75.739472 226.910039 
L 75.916159 215.632618 
L 75.945606 220.480855 
L 76.004502 223.607617 
L 75.967692 220.024137 
L 76.070759 221.429423 
L 76.217998 215.878543 
L 76.22536 216.721715 
L 76.343152 222.307727 
L 76.357875 221.71048 
L 76.446219 224.134599 
L 76.505114 213.243632 
L 76.519838 212.40046 
L 76.556648 219.883608 
L 76.56401 220.059269 
L 76.608182 218.864776 
L 76.703887 215.562354 
L 76.652353 220.23493 
L 76.725973 216.791979 
L 76.755421 221.886141 
L 76.806954 212.40046 
L 76.821678 209.976342 
L 76.887936 218.653983 
L 76.954193 213.665218 
L 77.027813 216.546054 
L 77.049899 219.356626 
L 77.108794 213.38416 
L 77.13088 208.676452 
L 77.197138 220.761912 
L 77.204499 222.132066 
L 77.278119 215.246164 
L 77.292843 212.365328 
L 77.366462 220.410591 
L 77.381186 223.572484 
L 77.425358 214.121936 
L 77.462168 217.45949 
L 77.484253 214.859711 
L 77.528425 221.71048 
L 77.594683 214.719182 
L 77.638854 220.480855 
L 77.705112 226.418189 
L 77.719836 221.499687 
L 77.749284 211.065438 
L 77.837627 214.016539 
L 77.977504 234.358055 
L 77.92597 208.500791 
L 77.992228 228.280193 
L 78.124743 208.500791 
L 78.132105 209.519624 
L 78.30143 232.285258 
L 78.308792 230.915104 
L 78.375049 209.589888 
L 78.426583 226.734378 
L 78.433945 227.612682 
L 78.470755 219.040437 
L 78.507564 210.643852 
L 78.559098 227.155964 
L 78.581184 230.704311 
L 78.640079 220.937573 
L 78.698975 209.554756 
L 78.743147 218.864776 
L 78.79468 240.752107 
L 78.838852 217.600019 
L 78.875662 198.03141 
L 78.934557 227.928871 
L 78.978729 247.778537 
L 79.030263 222.483388 
L 79.103882 199.261035 
L 79.155416 210.257399 
L 79.258483 250.343184 
L 79.32474 238.784706 
L 79.383636 216.827111 
L 79.427808 240.64671 
L 79.486703 282.875557 
L 79.538237 251.502545 
L 79.589771 221.078102 
L 79.641304 251.994396 
L 79.685476 283.226879 
L 79.73701 250.835035 
L 79.817991 220.164666 
L 79.869525 229.439554 
L 79.913696 246.935366 
L 79.987316 237.309156 
L 80.259708 91.510724 
L 80.311242 110.165897 
L 80.399585 193.042644 
L 80.480566 162.688465 
L 80.502652 160.299478 
L 80.5321 169.890556 
L 80.708787 241.384486 
L 80.723511 241.173693 
L 80.745596 241.630411 
L 80.79713 240.225125 
L 80.848664 253.013228 
L 81.003265 275.56807 
L 81.010627 275.427541 
L 81.054798 270.473908 
L 81.268295 237.941535 
L 81.349276 242.824904 
L 81.393448 241.173693 
L 81.599582 229.263893 
L 81.606944 229.54495 
L 81.695288 234.428319 
L 81.732097 230.915104 
L 81.849889 223.115766 
L 81.879336 225.434489 
L 81.982404 232.074465 
L 82.011852 228.420721 
L 82.144367 222.623916 
L 82.078109 230.985369 
L 82.151729 222.694181 
L 82.276882 229.931404 
L 82.306329 227.788343 
L 82.46093 221.640216 
L 82.402035 228.420721 
L 82.468292 221.886141 
L 82.519826 227.823475 
L 82.586083 222.553652 
L 82.72596 226.383057 
L 82.740684 225.78581 
L 82.806942 215.98394 
L 82.865837 223.291427 
L 82.983629 226.488453 
L 82.924733 221.288895 
L 82.998353 225.715546 
L 83.06461 213.419292 
L 83.116144 222.553652 
L 83.13823 224.837242 
L 83.189763 220.515987 
L 83.226573 222.51852 
L 83.263383 225.645281 
L 83.322278 221.815877 
L 83.36645 218.091869 
L 83.425346 222.202331 
L 83.476879 229.509818 
L 83.528413 223.326559 
L 83.565223 218.75938 
L 83.624118 225.364224 
L 83.63148 225.750678 
L 83.660928 222.237463 
L 83.712462 212.716649 
L 83.756633 223.221163 
L 83.800805 233.409487 
L 83.844977 220.164666 
L 83.889148 209.168302 
L 83.948044 221.394291 
L 83.992216 232.109597 
L 84.043749 217.45949 
L 84.080559 208.922377 
L 84.132093 223.537352 
L 84.176264 236.501116 
L 84.23516 220.586252 
L 84.286693 208.957509 
L 84.345589 216.686583 
L 84.470742 238.433385 
L 84.50019 229.826008 
L 84.573809 192.831851 
L 84.625343 218.618851 
L 84.691601 258.353315 
L 84.743134 227.682946 
L 84.80203 196.73152 
L 84.860925 216.616318 
L 84.905097 226.383057 
L 84.963993 217.494622 
L 85.008164 211.873478 
L 85.052336 219.180965 
L 85.148041 244.897701 
L 85.206937 235.517416 
L 85.251109 227.507286 
L 85.29528 236.501116 
L 85.383624 270.544172 
L 85.442519 253.996928 
L 85.508777 230.985369 
L 85.567672 243.668076 
L 85.619206 255.121157 
L 85.678102 245.635476 
L 85.766445 236.922702 
L 85.810617 240.998032 
L 85.825341 241.876336 
L 85.847426 237.028099 
L 86.112457 82.481761 
L 86.244972 113.116998 
L 86.252334 112.449487 
L 86.274419 120.354221 
L 86.510002 224.907506 
L 86.568897 236.852438 
L 86.708774 268.7173 
L 86.723498 267.838996 
L 86.752946 265.836464 
L 86.782394 271.703533 
L 86.848651 295.488 
L 86.922271 286.037451 
L 87.121043 247.98933 
L 87.179939 249.675674 
L 87.194663 249.886466 
L 87.216749 249.254088 
L 87.268282 241.103428 
L 87.349264 229.0531 
L 87.408159 234.674245 
L 87.437607 236.606513 
L 87.489141 231.512351 
L 87.621656 221.956405 
L 87.687913 225.715546 
L 87.82779 228.104532 
L 87.835152 228.0694 
L 87.989753 221.113234 
L 88.026563 222.764445 
L 88.136992 228.912572 
L 88.16644 225.539885 
L 88.276869 218.724247 
L 88.298955 220.059269 
L 88.460918 225.996603 
L 88.46828 225.575017 
L 88.549261 213.70035 
L 88.630243 217.635151 
L 88.667053 220.094401 
L 88.73331 217.600019 
L 88.740672 217.740547 
L 88.799568 220.902441 
L 88.851101 218.970173 
L 88.924721 212.259931 
L 88.96153 216.932508 
L 89.020426 227.226228 
L 89.064598 218.44319 
L 89.108769 210.749249 
L 89.152941 222.272595 
L 89.189751 227.893739 
L 89.233923 218.478322 
L 89.278094 206.779316 
L 89.329628 219.813344 
L 89.381161 230.423254 
L 89.432695 219.321494 
L 89.5284 210.397927 
L 89.56521 213.911143 
L 89.63883 227.612682 
L 89.668277 237.555081 
L 89.719811 213.946275 
L 89.786069 200.455528 
L 89.822878 211.065438 
L 89.881774 241.9466 
L 89.94067 220.024137 
L 90.014289 203.757951 
L 90.058461 212.716649 
L 90.124718 239.417085 
L 90.176252 221.886141 
L 90.227785 207.060373 
L 90.294043 215.808279 
L 90.360301 227.120832 
L 90.411834 219.462023 
L 90.448644 215.98394 
L 90.500178 222.413123 
L 90.588521 228.982836 
L 90.632693 224.731845 
L 90.728398 199.99881 
L 90.779932 212.786914 
L 90.934533 226.312792 
L 91.184839 268.647036 
L 91.273182 256.561575 
L 91.30263 253.786135 
L 91.368887 259.161355 
L 91.376249 259.266751 
L 91.383611 258.810033 
L 91.457231 245.881401 
L 91.508764 254.910364 
L 91.575022 263.763667 
L 91.619194 254.980629 
L 91.972567 77.106542 
L 92.053549 110.903672 
L 92.259683 179.200576 
L 92.590971 275.989656 
L 92.686676 291.272142 
L 92.73821 284.456504 
L 92.981154 253.996928 
L 93.00324 254.242853 
L 93.025326 252.310585 
L 93.26827 231.371822 
L 93.282994 232.109597 
L 93.334528 237.063231 
L 93.386061 232.250126 
L 93.444957 225.29396 
L 93.511214 229.334157 
L 93.518576 229.580082 
L 93.57011 227.893739 
L 93.577472 227.999136 
L 93.592196 228.104532 
L 93.673177 232.460919 
L 93.702625 229.0531 
L 93.754159 222.869841 
L 93.820416 227.472153 
L 93.864588 231.020501 
L 93.901398 226.031735 
L 93.938207 222.799577 
L 93.997103 228.034268 
L 94.004465 228.139664 
L 94.033913 227.120832 
L 94.107532 220.024137 
L 94.159066 224.48592 
L 94.203237 231.863672 
L 94.254771 221.53482 
L 94.291581 217.635151 
L 94.343114 224.942638 
L 94.372562 227.788343 
L 94.424096 222.553652 
L 94.482991 212.681517 
L 94.534525 221.04297 
L 94.608145 227.401889 
L 94.659678 224.977771 
L 94.755384 210.362795 
L 94.806917 220.164666 
L 94.880537 231.196161 
L 94.93207 223.888674 
L 94.998328 209.238566 
L 95.049861 221.71048 
L 95.094033 232.004201 
L 95.152929 221.04297 
L 95.211824 210.643852 
L 95.255996 221.324027 
L 95.322254 233.971602 
L 95.366425 221.640216 
L 95.432683 203.406629 
L 95.484216 217.213565 
L 95.557836 232.039333 
L 95.609369 223.431956 
L 95.682989 207.446827 
L 95.741885 215.281297 
L 95.830228 231.723144 
L 95.881762 223.713013 
L 95.948019 214.402993 
L 95.999553 220.480855 
L 96.051086 223.642749 
L 96.087896 219.005305 
L 96.132068 216.1596 
L 96.183601 220.937573 
L 96.375012 230.598915 
L 96.242497 220.480855 
L 96.389736 230.388122 
L 96.470717 213.313896 
L 96.500165 210.643852 
L 96.566423 214.262464 
L 96.573785 214.121936 
L 96.581147 214.051671 
L 96.654766 214.402993 
L 96.721024 220.129534 
L 97.052311 267.347146 
L 97.074397 266.574239 
L 97.140655 249.851334 
L 97.177464 242.614111 
L 97.23636 252.872699 
L 97.332065 268.682168 
L 97.376237 263.939327 
L 97.530838 231.055633 
L 97.714887 129.593977 
L 97.847402 98.677683 
L 97.876849 99.942441 
L 97.935745 111.219862 
L 98.3701 256.385915 
L 98.546787 286.950887 
L 98.620406 280.486571 
L 99.040037 239.241424 
L 99.143105 230.669179 
L 99.202 235.728209 
L 99.231448 238.433385 
L 99.27562 232.32039 
L 99.341877 225.820942 
L 99.393411 230.071933 
L 99.422859 231.617747 
L 99.46703 227.612682 
L 99.474392 227.401889 
L 99.511202 229.439554 
L 99.570098 232.601448 
L 99.614269 230.247593 
L 99.695251 221.886141 
L 99.761508 225.012903 
L 99.820404 229.193629 
L 99.894023 226.664114 
L 99.982367 220.199798 
L 100.026538 224.099467 
L 100.092796 229.720611 
L 100.136968 224.48592 
L 100.210587 213.2085 
L 100.254759 220.410591 
L 100.313654 227.788343 
L 100.357826 221.745613 
L 100.416722 212.89231 
L 100.468255 219.426891 
L 100.527151 230.84484 
L 100.578684 220.902441 
L 100.63758 208.219734 
L 100.689114 218.232397 
L 100.762733 233.585148 
L 100.814267 225.891207 
L 100.90261 207.025241 
L 100.954144 217.95134 
L 101.027763 235.622813 
L 101.079297 223.923806 
L 101.145554 207.025241 
L 101.20445 217.213565 
L 101.24126 222.51852 
L 101.322241 219.216098 
L 101.381137 220.972705 
L 101.417946 218.899908 
L 101.491566 212.822046 
L 101.5431 216.791979 
L 101.705062 223.888674 
L 101.73451 224.275128 
L 101.756596 222.904974 
L 101.852301 213.594953 
L 101.918559 215.562354 
L 101.970093 217.529754 
L 102.065798 225.258828 
L 102.117332 221.288895 
L 102.139417 220.375459 
L 102.190951 223.221163 
L 102.235123 227.366757 
L 102.286656 221.675348 
L 102.389724 209.203434 
L 102.433895 211.276231 
L 102.728373 237.801006 
L 102.934508 255.648139 
L 102.94187 255.542743 
L 103.000765 252.732171 
L 103.067023 254.34825 
L 103.162728 261.585473 
L 103.24371 266.43371 
L 103.280519 263.061024 
L 103.405672 218.408058 
L 103.670703 96.077904 
L 103.759046 117.894971 
L 104.406897 283.648465 
L 104.451069 279.713664 
L 104.561498 263.482609 
L 104.635118 264.923028 
L 104.841252 242.860036 
L 104.94432 232.285258 
L 104.981129 235.025566 
L 105.032663 238.960367 
L 105.084197 235.271491 
L 105.194626 225.048035 
L 105.238797 228.526118 
L 105.305055 237.449685 
L 105.363951 231.688012 
L 105.43757 222.588784 
L 105.481742 229.228761 
L 105.518552 233.479751 
L 105.570085 227.0857 
L 105.621619 217.494622 
L 105.673152 226.207396 
L 105.73941 236.711909 
L 105.790944 228.631514 
L 105.864563 218.653983 
L 105.908735 224.450788 
L 105.982354 232.81224 
L 106.033888 227.0857 
L 106.122231 211.768081 
L 106.166403 220.972705 
L 106.225299 230.247593 
L 106.26947 222.553652 
L 106.350452 214.332728 
L 106.394623 218.864776 
L 106.453519 226.59385 
L 106.519776 222.694181 
L 106.563948 219.918741 
L 106.652292 220.094401 
L 106.924684 224.872374 
L 106.939407 224.31026 
L 107.049837 220.23493 
L 107.094008 221.394291 
L 107.189714 224.134599 
L 107.255971 222.483388 
L 107.351677 209.062906 
L 107.40321 216.264997 
L 107.491554 229.299025 
L 107.543087 223.923806 
L 107.712412 215.351561 
L 107.800755 216.862243 
L 107.93327 225.750678 
L 107.977442 222.51852 
L 108.028976 218.302662 
L 108.095233 220.867309 
L 108.117319 221.464555 
L 108.176215 219.953873 
L 108.30873 208.711584 
L 108.382349 211.90861 
L 108.698913 246.267855 
L 108.750447 253.188889 
L 108.824066 249.886466 
L 108.846152 248.270387 
L 108.897686 251.888999 
L 109.044925 270.614436 
L 109.111182 264.501442 
L 109.324679 211.10057 
L 109.538175 114.697945 
L 109.589709 121.513582 
L 109.994616 216.300129 
L 110.23756 276.516638 
L 110.267008 277.816527 
L 110.318542 274.478973 
L 110.598296 249.008163 
L 110.789706 234.463452 
L 110.848602 231.547483 
L 110.885412 234.498584 
L 110.929583 237.449685 
L 110.981117 234.217527 
L 111.062098 222.904974 
L 111.128356 231.020501 
L 111.17989 237.414552 
L 111.231423 231.758276 
L 111.319767 221.183498 
L 111.3713 225.434489 
L 111.44492 229.755743 
L 111.489091 226.418189 
L 111.533263 223.396824 
L 111.592159 226.27766 
L 111.658416 232.074465 
L 111.70995 227.155964 
L 111.790931 222.483388 
L 111.835103 224.415656 
L 111.90136 228.877439 
L 111.945532 225.926339 
L 112.085409 216.47579 
L 112.114857 217.810812 
L 112.2032 225.856074 
L 112.262096 220.832177 
L 112.31363 215.1759 
L 112.379887 217.635151 
L 112.46823 225.610149 
L 112.519764 221.183498 
L 112.57866 215.351561 
L 112.630193 220.305194 
L 112.703813 224.239995 
L 112.747984 221.288895 
L 112.828966 218.127001 
L 112.858414 220.23493 
L 112.909947 223.431956 
L 112.968843 221.288895 
L 113.130806 214.68405 
L 113.160254 215.527222 
L 113.174977 215.421825 
L 113.211787 214.473257 
L 113.241235 216.264997 
L 113.366388 227.823475 
L 113.417922 222.623916 
L 113.506265 209.660152 
L 113.565161 215.281297 
L 113.719762 220.867309 
L 113.808105 219.707948 
L 113.756571 220.937573 
L 113.830191 220.72678 
L 113.925896 225.188563 
L 113.970068 223.783277 
L 114.161478 208.676452 
L 114.20565 210.714117 
L 114.235098 212.049139 
L 114.610557 245.003097 
L 114.713625 253.926664 
L 114.927121 265.204085 
L 114.963931 265.625671 
L 114.971293 265.309481 
L 115.066998 250.202656 
L 115.258409 179.622162 
L 115.427734 125.764573 
L 115.464543 126.888802 
L 115.516077 130.788471 
L 115.574973 127.134727 
L 115.597058 125.378119 
L 115.64123 130.893867 
L 116.149204 277.605735 
L 116.237548 268.822696 
L 116.782332 231.442087 
L 116.789694 231.406954 
L 116.81178 231.758276 
L 116.878037 233.901337 
L 116.922209 231.82854 
L 117.07681 229.334157 
L 117.106258 229.228761 
L 117.179877 227.753211 
L 117.275583 222.342859 
L 117.312392 225.575017 
L 117.41546 233.268958 
L 117.452269 230.950236 
L 117.547975 222.02667 
L 117.592146 226.066867 
L 117.68049 232.777108 
L 117.717299 229.474686 
L 117.820367 215.316429 
L 117.8719 221.113234 
L 117.90871 224.275128 
L 117.974968 220.867309 
L 117.997053 219.918741 
L 118.055949 222.202331 
L 118.085397 222.940106 
L 118.144292 221.253762 
L 118.225274 219.918741 
L 118.254722 221.21863 
L 118.365151 225.996603 
L 118.401961 223.677881 
L 118.47558 214.332728 
L 118.534476 219.637683 
L 118.586009 224.977771 
L 118.652267 221.569952 
L 118.689077 220.375459 
L 118.733248 222.202331 
L 118.755334 221.780745 
L 118.873125 218.794512 
L 118.998278 213.770614 
L 119.020364 214.508389 
L 119.101346 222.729313 
L 119.138155 224.731845 
L 119.204413 223.291427 
L 119.3811 214.227332 
L 119.403185 214.929975 
L 119.638768 221.394291 
L 119.64613 221.253762 
L 119.68294 220.691648 
L 119.734473 221.640216 
L 119.756559 221.569952 
L 119.778645 221.921273 
L 119.822817 223.607617 
L 119.852264 221.394291 
L 120.043675 207.903545 
L 120.051037 207.938677 
L 120.087847 211.276231 
L 120.293981 229.334157 
L 120.338153 229.36929 
L 120.374963 232.14473 
L 120.610545 251.432281 
L 120.74306 266.398578 
L 120.860851 260.917962 
L 120.949195 248.340652 
L 121.206863 149.865229 
L 121.280482 135.004329 
L 121.34674 138.341883 
L 121.435083 126.151026 
L 121.479255 121.302789 
L 121.530788 128.856202 
L 122.053487 273.038555 
L 122.082935 270.860361 
L 122.266983 254.277985 
L 122.303793 254.488778 
L 122.340603 254.699571 
L 122.370051 252.697039 
L 122.473118 236.220059 
L 122.561461 237.625345 
L 122.590909 239.241424 
L 122.635081 236.044398 
L 122.74551 228.772043 
L 122.789682 232.039333 
L 122.841215 237.449685 
L 122.900111 233.479751 
L 122.988454 223.326559 
L 123.039988 228.877439 
L 123.084159 230.634047 
L 123.143055 228.701779 
L 123.201951 224.591317 
L 123.282932 226.980303 
L 123.341828 229.123365 
L 123.415447 227.542418 
L 123.459619 225.083167 
L 123.503791 228.526118 
L 123.5406 230.493518 
L 123.592134 227.401889 
L 123.702563 218.302662 
L 123.746735 221.04297 
L 123.80563 222.659049 
L 123.886612 222.167198 
L 123.893974 222.237463 
L 123.91606 221.71048 
L 123.989679 215.913675 
L 124.048575 219.813344 
L 124.159004 224.766978 
L 124.210538 222.975238 
L 124.239985 222.342859 
L 124.320967 218.724247 
L 124.3725 220.691648 
L 124.541825 227.682946 
L 124.585997 225.926339 
L 124.71115 216.370393 
L 124.777408 217.283829 
L 125.027714 223.537352 
L 124.821579 216.124468 
L 125.071885 220.972705 
L 125.27802 211.522156 
L 125.285382 211.487024 
L 125.292744 211.627553 
L 125.646117 229.86114 
L 125.668203 227.893739 
L 125.822804 208.008941 
L 125.859614 211.241099 
L 126.051025 220.305194 
L 126.279245 235.693077 
L 126.522189 256.63184 
L 126.654704 266.012124 
L 126.698876 264.712235 
L 126.75041 259.547808 
L 126.934458 207.271166 
L 127.199488 139.325584 
L 127.31728 122.005432 
L 127.405623 128.610277 
L 127.493966 168.801459 
L 127.736911 245.740872 
L 127.854702 267.136353 
L 127.898873 264.044724 
L 127.950407 261.058491 
L 128.016665 262.67457 
L 128.060836 263.306949 
L 128.07556 262.815098 
L 128.436296 233.831073 
L 128.487829 236.852438 
L 128.532001 238.749574 
L 128.590897 237.484817 
L 128.686602 232.601448 
L 128.730774 234.076998 
L 129.17249 227.331625 
L 129.179852 227.366757 
L 129.238748 229.615215 
L 129.312368 228.104532 
L 129.503778 218.548587 
L 129.533226 216.96764 
L 129.592122 220.129534 
L 129.606845 220.551119 
L 129.658379 218.689115 
L 129.702551 220.270062 
L 129.827704 216.440658 
L 129.864514 218.44319 
L 129.967581 227.366757 
L 130.033838 225.188563 
L 130.136906 219.356626 
L 130.195801 222.448256 
L 130.328316 229.299025 
L 130.365126 228.631514 
L 130.394574 227.753211 
L 130.519727 216.616318 
L 130.622794 218.337794 
L 130.64488 218.548587 
L 130.674328 217.424358 
L 130.7185 215.562354 
L 130.770033 217.740547 
L 130.880462 222.694181 
L 130.90991 220.72678 
L 131.093959 213.594953 
L 131.182302 212.927442 
L 131.116045 213.630085 
L 131.204388 213.594953 
L 131.344265 227.472153 
L 131.498866 225.399356 
L 131.74181 209.449359 
L 131.77862 213.278764 
L 131.896411 221.745613 
L 131.933221 220.902441 
L 131.955307 220.445723 
L 131.992117 222.694181 
L 132.190889 240.295389 
L 132.514815 265.379746 
L 132.57371 262.569173 
L 132.787207 219.672816 
L 133.14058 121.197393 
L 133.162666 118.597614 
L 133.2142 125.518648 
L 133.501316 214.754314 
L 133.736898 262.604306 
L 133.74426 262.569173 
L 133.788432 259.653205 
L 133.832604 256.491311 
L 133.906223 258.810033 
L 133.913585 258.845165 
L 133.935671 258.493844 
L 134.053462 252.134924 
L 134.333216 236.501116 
L 134.340578 236.606513 
L 134.414197 239.487349 
L 134.451007 237.168627 
L 134.546713 233.304091 
L 134.590884 234.849905 
L 134.598246 234.92017 
L 134.620332 234.182394 
L 134.68659 230.634047 
L 134.723399 234.182394 
L 134.745485 235.376888 
L 134.789657 230.493518 
L 134.855914 224.556185 
L 134.907448 228.701779 
L 135.039963 229.86114 
L 135.054687 229.755743 
L 135.327079 220.761912 
L 135.48168 216.932508 
L 135.547937 216.124468 
L 135.584747 217.037904 
L 135.812968 225.083167 
L 135.842415 222.940106 
L 135.967569 219.462023 
L 135.989654 220.024137 
L 136.151617 232.250126 
L 136.217875 227.437021 
L 136.401923 218.267529 
L 136.409285 218.127001 
L 136.460819 219.25123 
L 136.563886 220.059269 
L 136.585972 219.707948 
L 136.622782 218.899908 
L 136.674316 219.74308 
L 136.725849 222.869841 
L 136.792107 220.656516 
L 136.851002 219.040437 
L 136.946708 209.660152 
L 137.012965 214.578653 
L 137.241186 229.017968 
L 137.263271 228.56125 
L 137.381063 221.288895 
L 137.498854 211.381628 
L 137.543025 212.470724 
L 137.550387 212.470724 
L 137.579835 211.768081 
L 137.631369 213.2085 
L 137.74916 218.021604 
L 137.844865 216.721715 
L 137.896399 219.813344 
L 138.301306 259.58294 
L 138.367564 263.377213 
L 138.404373 265.801331 
L 138.448545 261.796266 
L 138.91971 150.954326 
L 139.030139 125.834837 
L 139.089034 132.228889 
L 139.317255 193.077776 
L 139.611733 254.03206 
L 139.655904 253.751003 
L 139.67799 254.313118 
L 139.758972 259.863998 
L 139.810505 256.245386 
L 140.068174 237.87127 
L 140.097621 238.503649 
L 140.193327 240.330521 
L 140.222774 239.206292 
L 140.347928 231.617747 
L 140.406823 235.130963 
L 140.428909 236.114663 
L 140.487805 233.163562 
L 140.635044 229.86114 
L 140.701301 228.947704 
L 140.752835 229.509818 
L 140.826454 235.025566 
L 140.892712 231.969069 
L 141.039951 229.123365 
L 141.18719 223.256295 
L 141.334429 218.021604 
L 141.393324 215.66775 
L 141.45222 214.367861 
L 141.481668 216.264997 
L 141.555287 220.059269 
L 141.606821 217.635151 
L 141.64363 217.108168 
L 141.702526 218.127001 
L 141.901299 225.329092 
L 141.989642 231.125897 
L 142.048538 228.280193 
L 142.158967 221.640216 
L 142.217862 222.413123 
L 142.28412 221.675348 
L 142.387187 217.002772 
L 142.438721 219.391758 
L 142.571236 222.904974 
L 142.600684 222.307727 
L 142.711113 216.335261 
L 142.792094 210.960042 
L 142.843628 213.594953 
L 143.049762 228.174796 
L 143.145468 225.680414 
L 143.15283 225.680414 
L 143.174916 226.066867 
L 143.204363 224.275128 
L 143.314793 211.41676 
L 143.373688 217.073036 
L 143.395774 218.232397 
L 143.462032 215.211032 
L 143.565099 214.1922 
L 143.579823 214.613786 
L 143.712338 219.848476 
L 143.75651 218.478322 
L 143.778595 217.881076 
L 143.800681 219.918741 
L 144.146693 260.355848 
L 144.161417 260.074791 
L 144.455895 239.241424 
L 144.757734 160.756196 
L 144.919697 132.791003 
L 144.949145 134.653007 
L 145.103746 168.801459 
L 145.501291 252.415981 
L 145.604358 260.566641 
L 145.677978 255.261686 
L 145.876751 241.103428 
L 146.163867 233.655412 
L 146.17859 233.795941 
L 146.200676 233.690544 
L 146.230124 234.393187 
L 146.296382 235.552548 
L 146.325829 234.358055 
L 146.48043 230.915104 
L 146.495154 231.161029 
L 146.679203 235.657945 
L 146.708651 234.533716 
L 146.826442 229.896272 
L 146.885337 230.142197 
L 146.922147 230.35299 
L 146.944233 229.86114 
L 147.010491 225.223696 
L 147.128282 215.702882 
L 147.172453 215.843411 
L 147.231349 213.524689 
L 147.282883 215.527222 
L 147.304968 216.335261 
L 147.378588 214.719182 
L 147.393312 214.578653 
L 147.42276 215.456957 
L 147.459569 216.96764 
L 147.533189 215.878543 
L 147.555275 215.66775 
L 147.577361 216.47579 
L 147.835029 231.125897 
L 147.857115 230.247593 
L 148.026439 224.591317 
L 148.055887 224.80211 
L 148.291469 220.305194 
L 148.306193 220.621384 
L 148.394537 226.137132 
L 148.438708 222.167198 
L 148.644843 212.646385 
L 148.659567 212.716649 
L 148.681653 212.822046 
L 148.792082 220.972705 
L 148.887787 229.017968 
L 148.939321 225.364224 
L 149.005578 221.324027 
L 149.08656 222.51852 
L 149.204351 212.681517 
L 149.300056 217.073036 
L 149.322142 217.564886 
L 149.358952 215.98394 
L 149.403124 213.38416 
L 149.498829 213.770614 
L 149.675516 221.921273 
L 149.88165 245.21389 
L 150.036251 256.31565 
L 150.087785 257.61554 
L 150.131956 256.13999 
L 150.323367 244.932833 
L 150.433796 220.761912 
L 150.779808 128.961599 
L 150.838703 131.947832 
L 150.963857 163.391108 
L 151.346678 253.04836 
L 151.449745 258.142522 
L 151.493917 256.596708 
L 152.053425 234.849905 
L 152.082873 235.552548 
L 152.14913 238.644178 
L 152.193302 235.868738 
L 152.252198 232.004201 
L 152.303731 234.955302 
L 152.45097 237.063231 
L 152.473056 237.801006 
L 152.517228 235.728209 
L 152.635019 232.355523 
L 152.671829 232.847373 
L 152.833791 226.734378 
L 153.003116 212.786914 
L 153.047288 215.773147 
L 153.084098 217.248697 
L 153.150355 215.527222 
L 153.179803 214.859711 
L 153.253422 212.540989 
L 153.312318 213.630085 
L 153.62152 228.701779 
L 153.695139 226.734378 
L 153.776121 228.209929 
L 153.805569 227.050568 
L 153.938084 222.694181 
L 153.989617 223.045502 
L 154.070599 224.907506 
L 154.122132 223.783277 
L 154.18839 221.991538 
L 154.217838 223.50222 
L 154.269371 227.57755 
L 154.313543 223.256295 
L 154.460782 210.995174 
L 154.497592 211.978874 
L 154.75526 227.015435 
L 154.814155 223.291427 
L 155.005566 217.002772 
L 155.012928 217.002772 
L 155.0571 218.689115 
L 155.108633 216.65145 
L 155.28532 214.051671 
L 155.300044 214.1922 
L 155.381025 216.089336 
L 155.432559 214.719182 
L 155.447283 214.402993 
L 155.476731 215.948807 
L 155.969981 256.280518 
L 155.992067 256.210254 
L 156.014153 256.491311 
L 156.043601 257.088558 
L 156.08041 255.718404 
L 156.183478 245.916533 
L 156.360165 203.476893 
L 156.64728 128.32922 
L 156.742986 143.154988 
L 157.346666 259.09109 
L 157.354027 259.020826 
L 157.412923 256.210254 
L 157.744211 237.063231 
L 157.832554 238.398253 
L 157.869364 237.590213 
L 158.001879 234.814773 
L 158.023965 235.341755 
L 158.075498 237.765874 
L 158.11967 234.779641 
L 158.15648 233.093298 
L 158.200652 235.728209 
L 158.252185 237.801006 
L 158.311081 236.079531 
L 158.428872 231.231294 
L 158.509853 233.655412 
L 158.539301 234.709377 
L 158.590835 232.741976 
L 158.907399 215.1759 
L 158.922122 215.421825 
L 158.973656 216.581186 
L 159.02519 215.316429 
L 159.128257 211.838346 
L 159.187153 214.297596 
L 159.400649 221.780745 
L 159.459545 226.418189 
L 159.525802 231.793408 
L 159.584698 227.999136 
L 159.628869 225.645281 
L 159.709851 227.015435 
L 159.724575 227.050568 
L 159.754023 226.734378 
L 159.864452 222.869841 
L 159.915985 224.626449 
L 159.974881 227.155964 
L 160.055862 226.101999 
L 160.107396 223.361692 
L 160.342978 211.030306 
L 160.357702 211.41676 
L 160.585923 225.399356 
L 160.644818 222.694181 
L 160.674266 223.361692 
L 160.7258 225.820942 
L 160.777333 223.642749 
L 160.880401 216.1596 
L 160.976106 216.932508 
L 161.057087 216.1596 
L 161.079173 216.862243 
L 161.093897 217.002772 
L 161.145431 216.264997 
L 161.300032 213.313896 
L 161.329479 213.770614 
L 161.403099 220.586252 
L 161.741749 251.678206 
L 161.955245 256.245386 
L 161.984693 254.804968 
L 162.12457 232.214994 
L 162.330704 177.584497 
L 162.492667 133.458514 
L 162.544201 136.585276 
L 162.757697 172.806525 
L 163.140519 254.804968 
L 163.250948 258.423579 
L 163.287758 256.877765 
L 163.582236 241.173693 
L 163.604321 241.560146 
L 163.648493 241.9466 
L 163.692665 241.068296 
L 163.906161 237.133495 
L 163.942971 236.747042 
L 163.957695 237.238892 
L 164.023952 238.644178 
L 164.0534 237.168627 
L 164.12702 235.41202 
L 164.185915 235.447152 
L 164.200639 235.341755 
L 164.252173 235.868738 
L 164.274259 236.290324 
L 164.311068 234.60398 
L 164.634994 215.66775 
L 164.730699 218.197265 
L 164.738061 218.232397 
L 164.752785 218.056737 
L 164.870576 211.10057 
L 165.010453 212.259931 
L 165.069349 214.508389 
L 165.415361 231.406954 
L 165.422723 231.512351 
L 165.444808 230.634047 
L 165.599409 223.642749 
L 165.636219 224.064335 
L 165.687753 225.539885 
L 165.761372 227.788343 
L 165.812906 226.347924 
L 165.857077 225.223696 
L 165.915973 226.383057 
L 165.923335 226.418189 
L 165.938059 226.27766 
L 166.011678 218.44319 
L 166.158917 214.016539 
L 166.203089 214.086803 
L 166.438671 224.837242 
L 166.512291 223.045502 
L 166.527015 222.834709 
L 166.563824 223.923806 
L 166.58591 224.345392 
L 166.630082 223.01037 
L 166.747873 215.632618 
L 166.821493 217.424358 
L 166.865664 218.93504 
L 166.92456 217.635151 
L 167.130694 211.697817 
L 167.138056 211.732949 
L 167.2264 216.405525 
L 167.322105 225.645281 
L 167.609221 251.818735 
L 167.763822 257.685804 
L 167.815356 256.772368 
L 168.006766 234.252659 
L 168.382226 138.517544 
L 168.500017 145.333182 
L 168.595722 162.899258 
L 169.015353 252.240321 
L 169.103697 256.245386 
L 169.15523 254.102325 
L 169.339279 243.597811 
L 169.390812 244.72204 
L 169.398174 244.792304 
L 169.42026 244.195058 
L 169.626395 235.622813 
L 169.677928 236.992967 
L 169.736824 240.716975 
L 169.803082 238.011799 
L 169.839891 237.063231 
L 169.891425 238.363121 
L 169.913511 239.030631 
L 169.972406 237.414552 
L 170.016578 236.465984 
L 170.053388 237.625345 
L 170.082836 238.468517 
L 170.156455 237.484817 
L 170.517191 217.178433 
L 170.576086 217.810812 
L 170.605534 218.618851 
L 170.642344 216.791979 
L 170.760135 210.468192 
L 170.804307 210.995174 
L 170.841116 210.784381 
L 170.877926 212.470724 
L 170.951545 216.089336 
L 171.010441 214.965107 
L 171.032527 215.843411 
L 171.231299 230.177329 
L 171.268109 228.174796 
L 171.371177 223.853542 
L 171.444796 224.099467 
L 171.45952 223.853542 
L 171.511054 224.872374 
L 171.665654 228.490986 
L 171.695102 227.366757 
L 171.967494 214.894843 
L 172.004304 215.035371 
L 172.070562 217.45949 
L 172.29142 225.715546 
L 172.32823 224.556185 
L 172.607984 216.827111 
L 172.63007 217.073036 
L 172.644794 217.037904 
L 172.681603 216.47579 
L 172.718413 217.494622 
L 172.725775 217.600019 
L 172.784671 217.178433 
L 172.976081 209.379095 
L 173.034977 212.470724 
L 173.292645 236.536249 
L 173.506141 252.837567 
L 173.660742 256.385915 
L 173.697552 255.542743 
L 173.822705 243.632943 
L 174.006754 201.79055 
L 174.29387 139.220187 
L 174.315956 140.344416 
L 174.500004 172.068749 
L 174.875464 251.397149 
L 174.934359 254.980629 
L 175.000617 253.259153 
L 175.243561 245.670608 
L 175.479143 235.798473 
L 175.545401 239.17116 
L 175.589573 240.716975 
L 175.641106 238.960367 
L 175.722088 234.814773 
L 175.780983 237.309156 
L 175.884051 240.365653 
L 175.935584 239.592746 
L 175.979756 238.222592 
L 176.679141 210.152002 
L 176.715951 211.065438 
L 177.047238 228.736911 
L 177.12822 226.031735 
L 177.297545 222.694181 
L 177.304907 222.764445 
L 177.474231 230.142197 
L 177.533127 226.910039 
L 177.65828 221.394291 
L 177.687728 222.02667 
L 177.69509 222.132066 
L 177.739262 221.394291 
L 177.798157 217.354094 
L 177.857053 215.211032 
L 177.908586 217.318961 
L 178.173616 225.399356 
L 178.217788 224.064335 
L 178.446009 216.96764 
L 178.475456 217.600019 
L 178.556438 218.829644 
L 178.585886 217.845944 
L 178.666867 214.578653 
L 178.784658 208.395395 
L 178.836192 209.730416 
L 178.953983 216.054204 
L 179.196927 239.487349 
L 179.425148 254.699571 
L 179.550301 257.650672 
L 179.579749 256.877765 
L 179.682816 246.935366 
L 179.911036 194.096609 
L 180.183428 139.290451 
L 180.19079 139.255319 
L 180.198152 139.43098 
L 180.271772 149.54904 
L 180.83128 252.872699 
L 180.868089 251.853867 
L 181.037414 248.410916 
L 181.140482 242.368186 
L 181.28772 236.606513 
L 181.309806 237.20376 
L 181.346616 238.327988 
L 181.427597 237.590213 
L 181.567475 235.974134 
L 181.596922 236.817306 
L 181.766247 243.387018 
L 181.817781 240.681843 
L 182.119621 224.345392 
L 182.149068 224.591317 
L 182.171154 224.48592 
L 182.325755 220.797044 
L 182.561337 209.660152 
L 182.583423 210.152002 
L 182.922073 228.245061 
L 182.958883 227.015435 
L 183.084036 218.899908 
L 183.128207 222.272595 
L 183.223913 226.804642 
L 183.275446 226.031735 
L 183.29017 226.137132 
L 183.312256 226.734378 
L 183.36379 225.118299 
L 183.636182 217.986472 
L 183.731887 215.105636 
L 183.768697 216.510922 
L 183.989555 224.345392 
L 184.011641 224.064335 
L 184.203052 221.21863 
L 184.342929 219.497155 
L 184.453358 217.529754 
L 184.644769 207.236034 
L 184.68894 208.852113 
L 184.850903 217.529754 
L 185.351516 259.09109 
L 185.373602 258.950562 
L 185.395687 259.055958 
L 185.439859 258.59924 
L 185.550288 248.235255 
L 185.704889 219.25123 
L 186.072987 141.960495 
L 186.102434 143.365781 
L 186.23495 165.604433 
L 186.69139 252.240321 
L 186.772372 252.732171 
L 186.787096 252.205188 
L 187.081574 237.941535 
L 187.133107 237.344288 
L 187.177279 238.152328 
L 187.184641 238.152328 
L 187.309794 236.114663 
L 187.36869 234.533716 
L 187.412861 236.360588 
L 187.589548 242.262789 
L 187.648444 241.630411 
L 188.450896 211.803213 
L 188.50243 212.716649 
L 188.69384 225.434489 
L 188.818993 222.799577 
L 189.084023 226.242528 
L 189.157643 227.542418 
L 189.194453 226.59385 
L 189.26071 221.815877 
L 189.356416 222.096934 
L 189.393225 222.02667 
L 189.540464 215.386693 
L 189.621446 216.932508 
L 189.805494 223.958938 
L 189.849666 223.291427 
L 189.945371 223.080634 
L 189.879114 223.326559 
L 189.960095 223.291427 
L 189.974819 223.396824 
L 190.011629 222.623916 
L 190.018991 222.623916 
L 190.033715 222.694181 
L 190.077886 222.975238 
L 190.107334 222.413123 
L 190.401812 213.173367 
L 190.490155 207.903545 
L 190.549051 208.571055 
L 190.578499 208.606188 
L 190.777271 218.724247 
L 191.248436 260.461244 
L 191.29997 258.283051 
L 191.535552 230.774576 
L 191.940459 142.311816 
L 192.014079 145.579107 
L 192.124508 170.874256 
L 192.43371 241.243957 
L 192.610397 251.221488 
L 192.62512 250.940431 
L 192.845979 244.054529 
L 193.162543 235.09583 
L 193.184628 235.166095 
L 193.206714 235.587681 
L 193.383401 244.195058 
L 193.442297 241.700675 
L 193.751498 231.793408 
L 193.964995 225.820942 
L 194.126958 218.091869 
L 194.244749 210.152002 
L 194.288921 212.189667 
L 194.495055 221.851009 
L 194.576037 224.450788 
L 194.620208 225.820942 
L 194.66438 224.239995 
L 194.715914 221.815877 
L 194.789533 222.623916 
L 194.885238 223.748145 
L 194.936772 223.221163 
L 194.951496 223.115766 
L 194.980944 224.064335 
L 195.010392 224.48592 
L 195.047201 223.467088 
L 195.282784 218.548587 
L 195.326955 217.073036 
L 195.430023 213.489557 
L 195.466832 215.808279 
L 195.628795 221.499687 
L 195.672967 223.080634 
L 195.76131 222.377991 
L 195.776034 222.272595 
L 195.805482 223.01037 
L 195.864378 223.537352 
L 195.901187 223.080634 
L 195.923273 222.588784 
L 195.974807 223.326559 
L 196.004255 223.150899 
L 196.018978 223.221163 
L 196.048426 223.396824 
L 196.077874 222.623916 
L 196.232475 217.635151 
L 196.36499 208.289998 
L 196.460695 209.976342 
L 196.504867 210.573588 
L 196.644744 218.583719 
L 197.130633 258.247919 
L 197.189528 257.580408 
L 197.277872 250.975563 
L 197.439834 222.975238 
L 197.80057 140.976795 
L 197.815294 141.187588 
L 197.881551 147.089789 
L 198.014066 176.741326 
L 198.33063 242.965432 
L 198.477869 247.602877 
L 198.485231 247.532612 
L 198.617746 247.075894 
L 198.654556 246.408383 
L 198.926948 235.060698 
L 198.956396 235.341755 
L 198.993205 235.376888 
L 199.177254 239.487349 
L 199.295045 243.632943 
L 199.339217 242.43845 
L 199.722038 229.193629 
L 199.7294 229.158497 
L 199.744124 229.439554 
L 199.795658 231.055633 
L 199.847191 229.474686 
L 200.082774 212.927442 
L 200.149031 214.473257 
L 200.465595 223.677881 
L 200.495043 223.50222 
L 200.531853 223.99407 
L 200.576024 223.256295 
L 200.620196 221.780745 
L 200.686453 222.975238 
L 200.730625 223.677881 
L 200.789521 222.834709 
L 200.796883 222.834709 
L 200.855778 224.239995 
L 200.93676 223.396824 
L 200.951484 223.467088 
L 200.995655 223.080634 
L 201.290133 214.438125 
L 201.319581 215.702882 
L 201.606697 222.659049 
L 201.628783 222.623916 
L 201.658231 222.202331 
L 201.69504 222.940106 
L 201.709764 222.940106 
L 201.886451 225.048035 
L 201.908537 224.766978 
L 202.004242 222.904974 
L 202.129395 215.1759 
L 202.291358 208.254866 
L 202.313444 208.922377 
L 202.578474 226.312792 
L 202.843504 249.535145 
L 202.968657 256.842633 
L 203.071725 256.280518 
L 203.086449 256.350782 
L 203.101172 255.788668 
L 203.226326 240.084596 
L 203.403012 198.417863 
L 203.682766 141.538909 
L 203.690128 141.679438 
L 203.749024 147.476243 
L 203.96252 195.361366 
L 204.271722 244.651776 
L 204.33798 245.354419 
L 204.404237 245.178758 
L 204.418961 245.249022 
L 204.492581 248.867634 
L 204.544114 245.951665 
L 204.713439 236.184927 
L 204.742887 237.20376 
L 204.772335 238.011799 
L 204.823868 236.325456 
L 204.86804 234.674245 
L 204.919574 236.782174 
L 205.074175 242.614111 
L 205.103622 241.806071 
L 205.243499 240.365653 
L 205.405462 236.501116 
L 205.582149 232.987901 
L 205.692578 229.896272 
L 205.920799 213.524689 
L 206.016504 217.037904 
L 206.171105 221.21863 
L 206.200553 220.972705 
L 206.406687 223.467088 
L 206.472945 222.659049 
L 206.539202 221.640216 
L 206.60546 222.202331 
L 206.656993 222.904974 
L 206.708527 224.977771 
L 206.789508 224.345392 
L 207.157606 214.508389 
L 207.194416 215.597486 
L 207.429998 221.675348 
L 207.488893 220.972705 
L 207.510979 221.53482 
L 207.614047 224.521053 
L 207.66558 223.853542 
L 207.798095 226.523585 
L 207.842267 225.469621 
L 207.952696 218.162133 
L 208.151469 208.781848 
L 208.180917 208.535923 
L 208.217726 209.343963 
L 208.409137 222.061802 
L 208.76251 253.329417 
L 208.902387 257.299351 
L 208.924473 257.053426 
L 209.005455 252.907832 
L 209.167418 229.54495 
L 209.564963 142.065891 
L 209.623858 146.527675 
L 210.315881 247.251555 
L 210.323243 247.321819 
L 210.367415 246.689441 
L 210.396863 246.267855 
L 210.602997 235.90387 
L 210.706065 237.660477 
L 210.76496 236.88757 
L 210.816494 237.449685 
L 211.022629 242.473582 
L 211.02999 242.333054 
L 211.272935 235.974134 
L 211.40545 234.252659 
L 211.420174 234.498584 
L 211.456983 234.885037 
L 211.501155 233.901337 
L 211.567413 230.142197 
L 211.766185 216.124468 
L 211.810357 217.108168 
L 211.876614 219.532287 
L 211.97232 218.970173 
L 212.097473 221.183498 
L 212.229988 222.764445 
L 212.244712 222.904974 
L 212.288884 221.956405 
L 212.340417 220.937573 
L 212.414037 221.429423 
L 212.443484 221.991538 
L 212.576 225.469621 
L 212.627533 224.169731 
L 212.973545 214.402993 
L 213.002993 215.1759 
L 213.268023 221.499687 
L 213.29747 221.359159 
L 213.319556 221.288895 
L 213.356366 220.72678 
L 213.385814 221.569952 
L 213.614034 227.191096 
L 213.628758 227.155964 
L 213.731825 224.239995 
L 214.004217 208.746716 
L 214.026303 208.992641 
L 214.099923 208.922377 
L 214.144094 211.10057 
L 214.409125 232.496051 
L 214.777222 257.264218 
L 214.784584 257.193954 
L 214.865565 254.488778 
L 215.049614 227.999136 
L 215.439797 144.525142 
L 215.528141 153.343312 
L 215.815257 215.773147 
L 216.050839 241.911468 
L 216.190716 249.429748 
L 216.256974 246.057062 
L 216.455746 237.941535 
L 216.595623 236.255191 
L 216.647157 236.606513 
L 216.868015 240.189992 
L 216.934273 239.241424 
L 217.029978 236.184927 
L 217.096236 236.501116 
L 217.199303 234.147262 
L 217.272922 235.201227 
L 217.30237 235.833606 
L 217.353904 234.428319 
L 217.699915 218.337794 
L 217.751449 219.180965 
L 217.825068 220.867309 
L 217.876602 219.637683 
L 217.891326 219.532287 
L 217.928136 220.270062 
L 218.023841 223.326559 
L 218.090099 222.342859 
L 218.178442 220.551119 
L 218.222614 221.675348 
L 218.391938 224.661581 
L 218.414024 224.48592 
L 218.428748 224.556185 
L 218.487644 225.153431 
L 218.50973 224.31026 
L 218.782122 215.808279 
L 218.870465 215.105636 
L 218.818931 215.878543 
L 218.899913 215.562354 
L 219.069238 218.513455 
L 219.231201 222.377991 
L 219.481507 228.385589 
L 219.518317 227.612682 
L 219.636108 221.21863 
L 219.9085 207.868412 
L 219.974757 207.938677 
L 220.048377 211.241099 
L 220.254511 229.123365 
L 220.622609 258.493844 
L 220.637333 258.353315 
L 220.762486 252.907832 
L 220.902363 235.025566 
L 221.299908 144.208953 
L 221.380889 153.027123 
L 222.065551 246.829969 
L 222.080274 246.724573 
L 222.153894 243.387018 
L 222.279047 239.698142 
L 222.308495 239.908935 
L 222.44101 236.044398 
L 222.514629 237.519949 
L 222.632421 239.241424 
L 222.647144 239.065764 
L 222.809107 236.606513 
L 222.912175 233.12843 
L 222.956346 234.674245 
L 223.022604 235.025566 
L 223.066775 234.709377 
L 223.110947 234.393187 
L 223.140395 234.849905 
L 223.162481 234.990434 
L 223.206652 234.358055 
L 223.61156 219.356626 
L 223.648369 219.707948 
L 223.832418 221.113234 
L 223.898676 221.078102 
L 223.987019 221.745613 
L 224.016467 221.148366 
L 224.038553 220.656516 
L 224.097448 222.096934 
L 224.222601 225.645281 
L 224.266773 225.469621 
L 224.281497 225.364224 
L 224.693766 215.878543 
L 224.804195 217.424358 
L 225.164931 224.169731 
L 225.348979 228.104532 
L 225.378427 227.753211 
L 225.466771 222.061802 
L 225.790696 206.84958 
L 225.84223 207.903545 
L 225.996831 216.440658 
L 226.423824 254.804968 
L 226.563701 257.299351 
L 226.600511 256.456179 
L 226.696216 246.654308 
L 226.880265 211.170835 
L 227.182104 148.881529 
L 227.20419 149.54904 
L 227.299896 162.512804 
L 227.852042 245.459815 
L 227.918299 246.619176 
L 227.969833 245.776005 
L 228.293759 237.625345 
L 228.345292 237.238892 
L 228.382102 237.801006 
L 228.455721 239.9792 
L 228.521979 238.960367 
L 228.742837 233.444619 
L 228.794371 233.550016 
L 228.963696 235.447152 
L 228.97842 235.271491 
L 229.43486 220.902441 
L 229.515842 220.937573 
L 229.537928 220.621384 
L 229.640995 220.656516 
L 229.663081 220.761912 
L 229.707253 221.53482 
L 229.766148 220.691648 
L 229.780872 220.551119 
L 229.817682 221.324027 
L 230.045902 225.891207 
L 229.883939 220.972705 
L 230.126884 225.29396 
L 230.391914 220.059269 
L 230.458171 217.494622 
L 230.531791 218.513455 
L 230.546515 218.583719 
L 230.5686 217.881076 
L 230.693754 216.932508 
L 230.708477 216.96764 
L 230.811545 217.881076 
L 230.848355 217.424358 
L 230.877802 218.021604 
L 231.179642 227.26136 
L 231.194366 227.050568 
L 231.326881 222.413123 
L 231.636083 206.146937 
L 231.650807 206.041541 
L 231.70234 206.533391 
L 231.783322 210.854645 
L 232.335468 257.193954 
L 232.372278 257.088558 
L 232.394364 257.018293 
L 232.431173 257.334483 
L 232.438535 257.299351 
L 232.453259 257.334483 
L 232.475345 256.948029 
L 232.578412 247.848802 
L 232.799271 198.171938 
L 233.056939 146.984393 
L 233.071663 147.300582 
L 233.145282 155.275581 
L 233.793134 247.462348 
L 233.822582 247.146159 
L 233.896201 244.616644 
L 234.190679 237.37942 
L 234.205403 237.555081 
L 234.286384 240.260257 
L 234.352642 238.784706 
L 234.551414 233.514884 
L 234.669206 234.849905 
L 234.706015 235.552548 
L 234.713377 235.622813 
L 234.764911 235.236359 
L 235.317057 222.51852 
L 235.508468 221.569952 
L 235.523191 221.605084 
L 235.552639 221.851009 
L 235.596811 221.324027 
L 235.677792 220.305194 
L 235.714602 221.148366 
L 235.957546 226.27766 
L 235.97227 226.172264 
L 236.207853 222.940106 
L 236.399263 218.267529 
L 236.428711 218.724247 
L 236.465521 219.216098 
L 236.517054 218.337794 
L 236.61276 216.019072 
L 236.664293 217.424358 
L 236.796809 219.74308 
L 237.025029 226.874907 
L 237.047115 226.628982 
L 237.135458 222.834709 
L 237.577175 206.217201 
L 237.628709 207.763016 
L 237.856929 226.874907 
L 238.23975 256.8075 
L 238.291284 257.334483 
L 238.335456 257.018293 
L 238.445885 248.235255 
L 238.703553 190.899583 
L 238.91705 150.53274 
L 238.953859 151.235383 
L 239.049565 161.845293 
L 239.67533 246.935366 
L 239.726864 245.881401 
L 240.006618 238.819839 
L 240.065513 239.311689 
L 240.131771 240.15486 
L 240.168581 239.241424 
L 240.389439 233.058166 
L 240.426249 233.62028 
L 240.58085 234.885037 
L 240.595574 234.744509 
L 240.632383 234.252659 
L 240.698641 234.849905 
L 240.764898 234.006734 
L 241.317045 221.148366 
L 241.324407 221.183498 
L 241.346492 220.867309 
L 241.361216 220.761912 
L 241.405388 221.253762 
L 241.44956 220.972705 
L 241.464284 220.937573 
L 241.486369 220.797044 
L 241.574713 220.937573 
L 241.611523 222.096934 
L 241.736676 225.223696 
L 241.766123 224.942638 
L 241.817657 224.556185 
L 241.854467 225.258828 
L 241.883915 225.78581 
L 241.928086 224.521053 
L 242.156307 221.640216 
L 242.185754 221.745613 
L 242.20784 222.02667 
L 242.24465 221.078102 
L 242.406613 218.302662 
L 242.54649 216.862243 
L 242.5833 217.529754 
L 242.921949 227.226228 
L 242.936673 226.945171 
L 243.282685 209.660152 
L 243.385752 206.35773 
L 243.429924 206.638787 
L 243.540353 211.732949 
L 243.805383 234.990434 
L 244.166118 256.8075 
L 244.17348 256.8075 
L 244.261824 253.36455 
L 244.401701 234.568848 
L 244.571026 192.550794 
L 244.806608 152.991991 
L 244.81397 153.027123 
L 244.828694 153.097387 
L 244.872865 154.853995 
L 245.027466 176.987251 
L 245.483907 245.811137 
L 245.535441 246.232723 
L 245.572251 245.740872 
L 245.888814 239.206292 
L 245.932986 239.66301 
L 245.955072 239.838671 
L 245.98452 239.311689 
L 246.271636 232.987901 
L 246.315807 233.795941 
L 246.418875 235.552548 
L 246.470408 234.568848 
L 246.507218 233.866205 
L 246.573475 234.533716 
L 246.602923 234.674245 
L 246.639733 234.11213 
L 246.786972 227.999136 
L 246.912125 225.750678 
L 246.956297 225.820942 
L 246.971021 225.750678 
L 247.258137 219.74308 
L 247.317032 220.024137 
L 247.677768 225.504753 
L 247.721939 224.556185 
L 247.773473 223.572484 
L 247.832369 224.204863 
L 247.869178 224.521053 
L 247.920712 223.783277 
L 248.001693 221.148366 
L 248.060589 222.061802 
L 248.075313 222.167198 
L 248.112123 221.499687 
L 248.126846 221.53482 
L 248.163656 220.937573 
L 248.318257 216.581186 
L 248.362429 217.810812 
L 248.730526 225.996603 
L 248.74525 225.78581 
L 249.002918 217.143301 
L 249.304758 206.041541 
L 249.31212 206.146937 
L 249.488807 217.002772 
L 250.055677 256.421047 
L 250.070401 256.561575 
L 250.099849 255.648139 
L 250.202916 246.619176 
L 250.372241 214.121936 
L 250.696166 155.697166 
L 250.703528 155.767431 
L 250.769786 159.702232 
L 250.887577 175.406304 
L 251.373466 244.546379 
L 251.388189 244.686908 
L 251.439723 243.808604 
L 251.5796 242.824904 
L 252.006593 233.725676 
L 252.14647 233.936469 
L 252.337881 235.447152 
L 252.389414 235.201227 
L 252.529291 232.952769 
L 252.757512 225.996603 
L 252.779598 226.242528 
L 252.831131 227.120832 
L 252.867941 225.961471 
L 253.096161 220.23493 
L 253.221315 219.075569 
L 253.2434 219.672816 
L 253.471621 223.607617 
L 253.552602 224.521053 
L 253.574688 225.083167 
L 253.633584 223.572484 
L 253.663031 223.256295 
L 253.744013 223.537352 
L 253.795546 224.099467 
L 253.832356 223.396824 
L 253.942785 222.377991 
L 254.18573 217.810812 
L 254.259349 218.267529 
L 254.620085 225.891207 
L 254.627447 225.856074 
L 254.664256 225.29396 
L 255.135421 205.409162 
L 255.201679 206.814448 
L 255.290022 211.41676 
L 255.599224 237.37942 
L 255.871616 255.33195 
L 255.923149 256.280518 
L 255.967321 255.156289 
L 256.144008 237.590213 
L 256.585725 157.55917 
L 256.674068 162.161482 
L 256.902289 200.947378 
L 257.255662 243.457283 
L 257.299834 244.195058 
L 257.351367 242.9303 
L 257.498606 241.033164 
L 257.51333 241.068296 
L 257.520692 241.103428 
L 257.55014 240.752107 
L 257.940323 234.006734 
L 257.991857 234.358055 
L 258.028667 235.060698 
L 258.072838 235.306623 
L 258.124372 234.814773 
L 258.15382 234.533716 
L 258.190629 235.41202 
L 258.234801 236.009266 
L 258.293697 235.376888 
L 258.94891 219.426891 
L 259.059339 219.637683 
L 259.383265 224.134599 
L 259.434799 223.467088 
L 259.471608 223.045502 
L 259.523142 223.642749 
L 259.596762 224.450788 
L 259.633571 223.713013 
L 259.677743 223.326559 
L 259.714553 223.99407 
L 259.744 224.450788 
L 259.795534 223.642749 
L 260.08265 218.689115 
L 260.141546 219.040437 
L 260.436024 224.977771 
L 260.480195 224.521053 
L 260.737863 217.600019 
L 261.024979 205.128105 
L 261.061789 206.041541 
L 261.2532 217.354094 
L 261.74645 255.718404 
L 261.78326 256.421047 
L 261.834794 255.261686 
L 261.974671 244.581511 
L 262.158719 207.165769 
L 262.467921 158.36721 
L 262.504731 159.596835 
L 262.61516 170.94452 
L 263.204116 241.841204 
L 263.233564 241.981732 
L 263.277736 241.45475 
L 263.609023 235.201227 
L 263.653195 234.498584 
L 263.726814 234.990434 
L 263.82252 233.760809 
L 263.859329 234.533716 
L 263.991844 237.274024 
L 264.043378 236.747042 
L 264.242151 233.936469 
L 264.418837 229.158497 
L 264.463009 229.685479 
L 264.492457 229.790875 
L 264.529267 228.842307 
L 264.816383 219.286362 
L 264.831107 219.216098 
L 264.941536 218.794512 
L 264.948898 218.899908 
L 265.272823 224.169731 
L 265.331719 224.099467 
L 265.582025 226.207396 
L 265.368529 224.064335 
L 265.604111 225.820942 
L 265.898589 219.918741 
L 265.950123 220.164666 
L 265.964847 220.199798 
L 266.001656 219.953873 
L 266.038466 219.672816 
L 266.067914 220.270062 
L 266.28141 224.731845 
L 266.296134 224.80211 
L 266.332944 224.450788 
L 266.362392 224.380524 
L 266.605336 217.740547 
L 266.88509 204.56599 
L 266.936624 206.041541 
L 267.194292 221.640216 
L 267.650733 256.491311 
L 267.68018 256.948029 
L 267.709628 255.788668 
L 267.901039 237.414552 
L 268.328032 158.964457 
L 268.453185 166.447605 
L 268.629872 196.099141 
L 268.931712 236.957834 
L 269.101036 240.541314 
L 269.159932 241.700675 
L 269.211466 240.611578 
L 269.513305 233.971602 
L 269.542753 234.076998 
L 269.896127 238.714442 
L 269.925575 238.18746 
L 270.278948 230.0368 
L 270.728027 218.232397 
L 270.823732 219.637683 
L 270.831094 219.602551 
L 270.860542 219.953873 
L 271.110848 223.256295 
L 271.125572 223.115766 
L 271.184468 222.623916 
L 271.221277 223.256295 
L 271.405326 225.364224 
L 271.434774 225.750678 
L 271.508393 225.223696 
L 271.545203 225.118299 
L 271.847043 220.305194 
L 271.883853 220.656516 
L 272.21514 224.415656 
L 272.244588 224.239995 
L 272.465447 218.091869 
L 272.767286 205.092972 
L 272.796734 205.936144 
L 273.054402 219.953873 
L 273.555015 255.472479 
L 273.606549 254.769836 
L 273.694892 247.673141 
L 273.901026 213.454425 
L 274.224952 160.194082 
L 274.247038 160.510271 
L 274.328019 167.747495 
L 274.512068 198.171938 
L 274.78446 233.901337 
L 275.005319 239.803539 
L 275.042128 240.15486 
L 275.101024 239.065764 
L 275.321882 233.795941 
L 275.42495 234.428319 
L 275.447036 233.936469 
L 275.505931 233.058166 
L 275.535379 233.936469 
L 275.719428 238.503649 
L 275.748875 238.398253 
L 276.013906 233.023033 
L 276.359917 224.415656 
L 276.602861 218.689115 
L 276.617585 218.618851 
L 276.639671 219.005305 
L 276.86053 222.167198 
L 276.882615 222.096934 
L 276.904701 222.377991 
L 277.147646 224.942638 
L 277.184455 225.048035 
L 277.368504 226.383057 
L 277.39059 226.137132 
L 277.758687 220.23493 
L 277.795497 220.340326 
L 278.067889 224.204863 
L 278.163594 223.326559 
L 278.369729 215.843411 
L 278.553778 206.603655 
L 278.605311 206.673919 
L 278.664207 206.182069 
L 278.701017 206.744184 
L 278.848256 213.87601 
L 279.179543 243.387018 
L 279.39304 255.718404 
L 279.437211 254.734703 
L 279.58445 246.232723 
L 279.805309 207.200902 
L 280.099787 163.074918 
L 280.121873 162.688465 
L 280.166044 164.058619 
L 280.313283 184.927117 
L 280.651933 232.179862 
L 280.850705 239.030631 
L 280.865429 238.925235 
L 281.233527 232.250126 
L 281.35868 233.409487 
L 281.594262 238.222592 
L 281.62371 238.011799 
L 281.682606 236.430852 
L 281.92555 232.566315 
L 282.102237 228.56125 
L 282.4188 218.162133 
L 282.440886 218.44319 
L 282.639659 220.972705 
L 282.654383 220.902441 
L 282.669107 220.832177 
L 282.698554 221.183498 
L 282.956223 223.99407 
L 283.103462 225.750678 
L 283.154995 225.258828 
L 283.339044 223.99407 
L 283.55254 220.515987 
L 283.633522 220.23493 
L 283.655608 220.445723 
L 284.038429 225.504753 
L 284.067877 224.942638 
L 284.281373 214.121936 
L 284.472784 207.095505 
L 284.49487 207.306298 
L 284.649471 209.730416 
L 284.929225 230.142197 
L 285.231064 252.591642 
L 285.28996 253.013228 
L 285.319408 252.451114 
L 285.466647 245.389551 
L 285.731677 197.153106 
L 285.996707 163.742429 
L 286.011431 164.023486 
L 286.092412 171.085049 
L 286.674006 236.606513 
L 286.806521 238.222592 
L 286.843331 237.625345 
L 287.100999 232.601448 
L 287.137809 232.496051 
L 287.174619 232.355523 
L 287.196705 232.706844 
L 287.410201 237.730742 
L 287.469097 237.414552 
L 287.527992 237.344288 
L 287.719403 234.498584 
L 288.050691 226.207396 
L 288.264187 220.059269 
L 288.271549 220.094401 
L 288.808971 224.731845 
L 288.845781 224.556185 
L 288.867867 224.48592 
L 288.897315 224.766978 
L 289.022468 226.347924 
L 289.066639 225.504753 
L 289.191793 224.345392 
L 289.206516 224.48592 
L 289.22124 224.521053 
L 289.243326 224.239995 
L 289.302222 222.02667 
L 289.375841 219.813344 
L 289.449461 220.129534 
L 289.530442 220.23493 
L 289.493632 219.989005 
L 289.545166 220.059269 
L 289.581976 219.953873 
L 289.604062 220.270062 
L 289.766024 224.029202 
L 289.839644 223.958938 
L 289.905901 224.907506 
L 289.950073 224.169731 
L 290.377066 207.200902 
L 290.487495 207.798148 
L 290.531667 209.027773 
L 290.759887 225.188563 
L 291.142709 252.767303 
L 291.157433 252.661906 
L 291.319395 247.673141 
L 291.503444 221.078102 
L 291.871542 164.164015 
L 291.908351 165.780094 
L 292.070314 188.686257 
L 292.438412 231.898805 
L 292.644546 237.69561 
L 292.710804 237.590213 
L 292.916938 231.969069 
L 293.012644 232.81224 
L 293.108349 234.60398 
L 293.285036 237.133495 
L 293.358655 237.309156 
L 293.380741 237.063231 
L 293.822458 229.228761 
L 294.139022 219.883608 
L 294.190555 220.480855 
L 294.249451 220.691648 
L 294.278899 220.270062 
L 294.300984 220.129534 
L 294.345156 220.551119 
L 294.676444 225.434489 
L 294.764787 224.977771 
L 294.816321 224.837242 
L 294.875216 226.031735 
L 294.919388 226.839775 
L 294.970922 225.961471 
L 295.147608 223.115766 
L 295.324295 218.197265 
L 295.405277 220.129534 
L 295.736564 225.504753 
L 295.788098 225.434489 
L 295.861717 223.853542 
L 296.273987 207.095505 
L 296.28871 207.200902 
L 296.472759 210.995174 
L 297.054353 252.907832 
L 297.120611 252.205188 
L 297.223678 245.284155 
L 297.400365 218.337794 
L 297.746376 166.236812 
L 297.783186 167.431305 
L 297.908339 181.765223 
L 298.335332 231.933937 
L 298.519381 238.327988 
L 298.541466 237.976667 
L 298.799135 232.214994 
L 298.85803 232.987901 
L 299.115698 236.536249 
L 299.19668 237.906403 
L 299.248214 237.028099 
L 299.608949 231.020501 
L 299.72674 227.858607 
L 299.977046 221.007837 
L 300.058028 220.445723 
L 300.094838 220.867309 
L 300.175819 221.956405 
L 300.234715 221.359159 
L 300.249438 221.394291 
L 300.639622 226.839775 
L 300.912014 225.083167 
L 301.228578 218.337794 
L 301.272749 218.970173 
L 301.456798 223.045502 
L 301.574589 225.715546 
L 301.618761 225.223696 
L 301.817533 220.832177 
L 302.156183 206.498258 
L 302.192993 206.217201 
L 302.244526 206.673919 
L 302.288698 207.306298 
L 302.399127 214.473257 
L 302.907102 252.591642 
L 302.936549 252.837567 
L 302.965997 252.134924 
L 303.142684 241.314221 
L 303.319371 210.292531 
L 303.613849 167.290777 
L 303.628573 167.50157 
L 303.702192 172.314674 
L 304.372129 237.519949 
L 304.401577 237.37942 
L 304.637159 233.093298 
L 304.681331 233.304091 
L 304.740227 232.917637 
L 304.784398 233.198694 
L 304.946361 236.676777 
L 305.012619 236.079531 
L 305.071514 236.88757 
L 305.0936 237.063231 
L 305.123048 236.501116 
L 305.270287 233.585148 
L 305.314459 234.147262 
L 305.336545 234.041866 
L 305.39544 233.268958 
L 305.770899 223.045502 
L 305.940224 219.953873 
L 306.013844 220.972705 
L 306.323046 225.645281 
L 306.352493 225.364224 
L 306.374579 225.188563 
L 306.426113 225.645281 
L 306.595438 227.050568 
L 306.727953 226.945171 
L 306.79421 225.364224 
L 307.037155 218.197265 
L 307.066602 218.232397 
L 307.088688 218.337794 
L 307.235927 220.72678 
L 307.500957 225.715546 
L 307.537767 225.329092 
L 307.685006 221.745613 
L 308.075189 205.690219 
L 308.097275 205.901012 
L 308.178256 207.587355 
L 308.450649 229.474686 
L 308.767212 251.151224 
L 308.811384 251.783603 
L 308.862918 250.975563 
L 308.995433 244.440983 
L 309.194205 212.224799 
L 309.496045 170.76886 
L 309.510769 170.733728 
L 309.525493 170.94452 
L 309.584389 175.476568 
L 310.165982 234.639112 
L 310.26905 235.41202 
L 310.298497 235.09583 
L 310.408927 233.023033 
L 310.482546 232.355523 
L 310.53408 232.671712 
L 310.592975 232.741976 
L 310.887453 235.939002 
L 310.997883 235.552548 
L 311.02733 235.622813 
L 311.049416 235.41202 
L 311.822421 220.305194 
L 311.903402 221.078102 
L 312.455548 227.57755 
L 312.46291 227.542418 
L 312.484996 227.437021 
L 312.654321 226.101999 
L 312.926713 218.372926 
L 313.037142 219.426891 
L 313.06659 219.989005 
L 313.353706 225.820942 
L 313.375792 225.750678 
L 313.471497 224.80211 
L 313.640822 218.267529 
L 313.950024 205.303765 
L 313.986833 205.584823 
L 314.053091 208.044073 
L 314.362293 232.074465 
L 314.671495 250.132392 
L 314.69358 250.308052 
L 314.737752 249.605409 
L 314.848181 245.424683 
L 314.965973 231.652879 
L 315.378242 172.314674 
L 315.422413 173.509168 
L 315.63591 193.323701 
L 316.077627 234.639112 
L 316.114436 234.533716 
L 316.298485 233.163562 
L 316.39419 232.250126 
L 316.438362 232.285258 
L 316.497258 233.023033 
L 316.725478 235.341755 
L 316.777012 235.693077 
L 316.821183 235.306623 
L 317.078852 233.163562 
L 317.137747 232.425787 
L 317.513207 223.221163 
L 317.704617 220.515987 
L 317.726703 220.305194 
L 317.756151 220.867309 
L 318.028543 224.80211 
L 318.072715 225.504753 
L 318.345107 227.823475 
L 318.39664 227.718078 
L 318.536517 225.399356 
L 318.845719 218.583719 
L 318.875167 218.75938 
L 318.919339 219.497155 
L 319.235902 226.312792 
L 319.287436 225.680414 
L 319.442037 221.886141 
L 319.648171 211.41676 
L 319.810134 204.601122 
L 319.846944 205.233501 
L 319.972097 209.554756 
L 320.259213 234.147262 
L 320.583139 251.432281 
L 320.605225 251.326885 
L 320.693568 248.79737 
L 320.833445 233.655412 
L 321.253076 171.75256 
L 321.319334 173.614564 
L 321.518106 191.286037 
L 321.974547 235.025566 
L 322.040805 234.92017 
L 322.151234 233.936469 
L 322.232215 232.63658 
L 322.305835 233.093298 
L 322.342644 233.163562 
L 322.578227 234.955302 
L 322.710742 235.798473 
L 322.747552 235.517416 
L 322.776999 235.41202 
L 323.093563 231.371822 
L 323.373317 223.99407 
L 323.505832 221.359159 
L 323.53528 221.605084 
L 323.564728 221.499687 
L 323.594176 221.113234 
L 323.667795 221.605084 
L 324.205217 228.982836 
L 324.256751 228.631514 
L 324.514419 221.675348 
L 324.610124 218.829644 
L 324.66902 219.391758 
L 324.676382 219.426891 
L 324.70583 219.075569 
L 324.772087 218.794512 
L 324.801535 219.286362 
L 325.073927 225.645281 
L 325.147547 226.347924 
L 325.184356 225.750678 
L 325.375767 220.164666 
L 325.692331 204.249801 
L 325.758588 205.690219 
L 325.949999 217.143301 
L 326.428526 252.029528 
L 326.443249 251.959263 
L 326.457973 251.888999 
L 326.553679 249.008163 
L 326.67147 239.522482 
L 326.892328 200.315 
L 327.127911 173.403771 
L 327.135273 173.438903 
L 327.194168 174.246943 
L 327.282512 179.622162 
L 327.518094 209.13317 
L 327.812572 233.268958 
L 327.908277 234.60398 
L 327.959811 234.217527 
L 328.121774 232.63658 
L 328.165945 232.566315 
L 328.188031 232.496051 
L 328.224841 232.917637 
L 328.313184 233.374355 
L 328.342632 233.163562 
L 328.357356 233.058166 
L 328.394166 233.62028 
L 328.511957 235.763341 
L 328.615024 235.271491 
L 328.732815 234.885037 
L 328.740177 234.92017 
L 328.762263 235.025566 
L 328.791711 234.779641 
L 329.454286 221.569952 
L 329.520544 221.253762 
L 329.549992 221.499687 
L 330.07269 229.404422 
L 330.146309 228.526118 
L 330.588026 218.689115 
L 330.632198 219.286362 
L 331.029743 226.207396 
L 331.081277 225.926339 
L 331.280049 218.583719 
L 331.552441 204.987576 
L 331.574527 205.092972 
L 331.677595 206.990109 
L 331.876367 221.745613 
L 332.362256 251.502545 
L 332.391703 251.151224 
L 332.494771 245.319287 
L 332.664096 221.394291 
L 333.010107 174.211811 
L 333.039555 173.860489 
L 333.083727 174.809057 
L 333.223604 185.032514 
L 333.716854 233.233826 
L 333.768388 233.62028 
L 333.827283 233.444619 
L 333.908265 232.566315 
L 333.959798 232.952769 
L 333.981884 233.058166 
L 334.018694 232.531183 
L 334.062866 232.14473 
L 334.121761 232.671712 
L 334.423601 235.693077 
L 334.475135 235.130963 
L 334.541392 234.60398 
L 334.592926 235.025566 
L 334.615012 234.92017 
L 334.710717 233.936469 
L 335.277587 221.569952 
L 335.321759 221.851009 
L 335.343845 221.921273 
L 335.380654 221.780745 
L 335.734028 226.628982 
L 335.940162 229.017968 
L 335.962248 228.912572 
L 336.161021 224.521053 
L 336.440775 218.75938 
L 336.455499 218.93504 
L 336.87513 226.523585 
L 336.934025 226.101999 
L 337.029731 224.204863 
L 337.471448 204.214669 
L 337.522981 205.584823 
L 337.662858 213.805746 
L 338.244452 251.607942 
L 338.288624 251.045827 
L 338.369605 245.811137 
L 338.583102 214.965107 
L 338.907027 174.106414 
L 338.929113 173.930753 
L 338.965923 174.738793 
L 339.06899 181.449034 
L 339.363468 220.024137 
L 339.569603 231.863672 
L 339.650584 233.058166 
L 339.702118 232.63658 
L 339.761013 232.214994 
L 339.819909 232.531183 
L 339.849357 232.741976 
L 339.893528 232.355523 
L 339.981872 231.477219 
L 340.018682 231.969069 
L 340.283712 235.41202 
L 340.379417 234.393187 
L 340.394141 234.358055 
L 340.438313 234.639112 
L 340.511932 235.552548 
L 340.548742 234.779641 
L 341.086164 222.413123 
L 341.159784 221.851009 
L 341.226041 222.272595 
L 341.549967 226.347924 
L 341.748739 229.0531 
L 341.800273 228.947704 
L 342.080027 223.396824 
L 342.286162 219.321494 
L 342.345057 219.707948 
L 342.536468 222.588784 
L 342.764688 226.59385 
L 342.816222 225.926339 
L 342.985547 220.72678 
L 343.162233 208.395395 
L 343.346282 204.284933 
L 343.361006 204.355197 
L 343.441987 206.954976 
L 343.692294 225.856074 
L 344.067753 251.186356 
L 344.111925 251.853867 
L 344.163458 250.905299 
L 344.28125 242.473582 
L 344.54628 201.544625 
L 344.81131 174.984718 
L 344.826034 174.914454 
L 344.855481 175.5117 
L 344.951187 182.046281 
L 345.518057 232.250126 
L 345.576952 232.179862 
L 345.613762 231.863672 
L 345.672658 232.214994 
L 345.709467 232.460919 
L 345.761001 232.109597 
L 345.856706 230.915104 
L 345.90824 231.758276 
L 346.17327 234.709377 
L 346.224804 235.130963 
L 346.298423 234.849905 
L 346.364681 235.060698 
L 346.335233 234.814773 
L 346.401491 234.814773 
L 346.482472 232.987901 
L 347.034618 222.51852 
L 347.137685 222.553652 
L 347.277562 223.713013 
L 347.60885 228.947704 
L 347.64566 228.772043 
L 347.756089 227.788343 
L 348.146272 219.532287 
L 348.241978 220.551119 
L 348.632161 225.961471 
L 348.698418 225.856074 
L 348.7794 224.134599 
L 348.919277 217.002772 
L 349.213755 204.249801 
L 349.265288 204.952444 
L 349.375718 210.152002 
L 349.662834 234.709377 
L 349.972035 251.818735 
L 350.001483 251.959263 
L 350.030931 251.326885 
L 350.156084 242.473582 
L 350.332771 217.845944 
L 350.686144 175.01985 
L 350.693506 174.949586 
L 350.730316 175.581965 
L 350.840745 183.521831 
L 351.392891 232.074465 
L 351.429701 232.355523 
L 351.488597 231.969069 
L 351.702093 230.985369 
L 351.731541 230.84484 
L 351.760989 231.125897 
L 352.114362 234.60398 
L 352.165896 234.568848 
L 352.18062 234.744509 
L 352.224791 235.130963 
L 352.276325 234.498584 
L 352.460374 231.688012 
L 352.629699 227.718078 
L 352.872643 223.853542 
L 353.005158 222.659049 
L 353.041968 222.940106 
L 353.064053 223.01037 
L 353.476323 229.228761 
L 353.54258 228.280193 
L 354.043193 219.391758 
L 354.094726 219.848476 
L 354.551167 226.031735 
L 354.595339 225.610149 
L 354.698406 222.588784 
L 355.095951 203.793083 
L 355.169571 205.338897 
L 355.375705 218.864776 
L 355.839508 251.151224 
L 355.88368 251.502545 
L 355.913127 250.835035 
L 356.023557 243.703208 
L 356.200243 220.972705 
L 356.568341 175.757625 
L 356.590427 175.722493 
L 356.60515 175.933286 
L 356.686132 181.097712 
L 357.297174 231.371822 
L 357.414965 231.477219 
L 357.437051 231.406954 
L 357.540118 230.739444 
L 357.576928 230.879972 
L 357.73889 232.179862 
L 357.945025 234.322923 
L 357.959749 234.287791 
L 358.07754 234.92017 
L 358.11435 234.498584 
L 358.511895 227.226228 
L 358.725392 224.275128 
L 358.835821 223.221163 
L 358.857907 223.115766 
L 358.90944 223.537352 
L 359.387967 228.877439 
L 359.454224 228.034268 
L 359.910665 219.391758 
L 359.991647 219.883608 
L 360.160971 222.483388 
L 360.403916 226.453321 
L 360.455449 226.347924 
L 360.551155 223.431956 
L 360.705756 214.719182 
L 360.9487 204.425462 
L 360.978148 204.039008 
L 361.029681 204.847047 
L 361.228454 216.47579 
L 361.729066 250.870167 
L 361.7806 250.343184 
L 361.891029 244.124793 
L 362.097164 218.44319 
L 362.457899 176.495401 
L 362.472623 176.600797 
L 362.516795 178.568198 
L 362.693481 197.644956 
L 363.032131 226.980303 
L 363.201456 230.212461 
L 363.289799 230.915104 
L 363.333971 230.528651 
L 363.459124 229.966536 
L 363.51802 230.177329 
L 363.532744 230.247593 
L 363.945013 234.217527 
L 364.003908 233.690544 
L 364.143785 232.601448 
L 364.57814 224.872374 
L 364.769551 223.326559 
L 364.784275 223.431956 
L 365.041943 226.910039 
L 365.174458 228.982836 
L 365.233354 228.490986 
L 365.741328 219.462023 
L 365.807585 219.637683 
L 365.837033 219.567419 
L 365.866481 219.426891 
L 365.918015 219.813344 
L 366.079978 223.713013 
L 366.286112 226.523585 
L 366.31556 226.628982 
L 366.330284 226.383057 
L 366.551142 217.143301 
L 366.84562 204.530858 
L 366.860344 204.495726 
L 366.889792 204.847047 
L 366.933964 206.322598 
L 367.162184 220.761912 
L 367.522919 247.49748 
L 367.603901 248.867634 
L 367.655434 248.30552 
L 367.75114 244.686908 
L 367.94255 224.591317 
L 368.325372 179.868087 
L 368.347458 180.114012 
L 368.428439 184.64606 
L 369.054205 228.912572 
L 369.07629 228.982836 
L 369.157272 229.966536 
L 369.208805 229.404422 
L 369.304511 228.947704 
L 369.333959 229.0531 
L 369.356044 228.877439 
L 369.392854 229.228761 
L 369.724142 233.444619 
L 369.805123 234.11213 
L 369.856657 233.971602 
L 370.121687 230.423254 
L 370.563404 223.431956 
L 370.592852 223.537352 
L 370.607576 223.607617 
L 370.673833 223.467088 
L 370.975673 228.139664 
L 371.07874 229.228761 
L 371.11555 228.842307 
L 371.564629 220.832177 
L 371.667696 219.356626 
L 371.704506 219.74308 
L 371.741316 219.462023 
L 371.859107 220.972705 
L 372.131499 226.383057 
L 372.175671 226.699246 
L 372.227204 226.312792 
L 372.2861 224.696713 
L 372.558492 210.11687 
L 372.720455 205.37403 
L 372.757264 205.690219 
L 372.81616 206.498258 
L 372.919227 211.557288 
L 373.493459 248.375784 
L 373.508183 248.235255 
L 373.633336 243.984265 
L 373.832109 223.607617 
L 374.207568 181.273373 
L 374.222292 181.37877 
L 374.281188 183.802888 
L 374.538856 206.673919 
L 374.877505 227.612682 
L 375.032106 229.474686 
L 375.054192 229.334157 
L 375.135174 228.385589 
L 375.208793 228.912572 
L 375.68732 234.252659 
L 375.841921 233.023033 
L 376.268914 225.469621 
L 376.467686 223.396824 
L 376.563392 223.713013 
L 376.651735 224.626449 
L 376.946213 229.439554 
L 376.953575 229.36929 
L 376.990385 229.404422 
L 377.218605 225.820942 
L 377.571978 218.864776 
L 377.65296 218.93504 
L 377.778113 222.307727 
L 378.021057 226.910039 
L 378.043143 226.839775 
L 378.065229 226.734378 
L 378.14621 224.907506 
L 378.440688 209.484491 
L 378.595289 203.863347 
L 378.639461 204.320065 
L 378.771976 208.711584 
L 378.985472 227.191096 
L 379.346208 249.043295 
L 379.375656 249.394616 
L 379.419827 248.656841 
L 379.552342 241.981732 
L 379.765839 215.66775 
L 380.075041 180.465334 
L 380.089765 180.605862 
L 380.192832 185.418967 
L 380.48731 212.40046 
L 380.759702 227.437021 
L 380.848045 229.334157 
L 380.921665 228.701779 
L 380.951113 228.385589 
L 381.002646 228.807175 
L 381.032094 228.631514 
L 381.061542 228.701779 
L 381.422277 233.093298 
L 381.525345 234.568848 
L 381.569516 234.287791 
L 381.878718 230.282726 
L 382.342521 223.537352 
L 382.37933 223.642749 
L 382.622275 227.015435 
L 382.806323 229.931404 
L 382.894667 229.36929 
L 382.990372 228.455854 
L 383.454175 218.372926 
L 383.498347 218.899908 
L 383.564604 219.672816 
L 383.895892 227.226228 
L 383.991597 225.78581 
L 384.11675 221.324027 
L 384.499572 204.109272 
L 384.558467 205.128105 
L 384.68362 210.573588 
L 385.25049 248.129859 
L 385.279938 247.919066 
L 385.353557 246.162458 
L 385.500796 235.552548 
L 385.964599 181.835488 
L 386.060304 185.735157 
L 386.34742 210.362795 
L 386.656622 227.682946 
L 386.752328 228.56125 
L 386.789137 228.455854 
L 386.833309 228.350457 
L 386.862757 228.245061 
L 386.899567 228.490986 
L 387.473798 233.901337 
L 387.51797 233.374355 
L 387.760914 230.001668 
L 388.209993 223.537352 
L 388.283613 223.150899 
L 388.313061 223.50222 
L 388.526557 228.139664 
L 388.710606 230.212461 
L 388.717968 230.177329 
L 388.946188 226.980303 
L 389.336371 218.548587 
L 389.343733 218.583719 
L 389.513058 221.21863 
L 389.800174 227.120832 
L 389.836984 226.488453 
L 389.976861 221.886141 
L 390.411216 204.355197 
L 390.440664 204.741651 
L 390.521645 208.14947 
L 391.110601 247.778537 
L 391.169496 247.111026 
L 391.265202 244.370719 
L 391.405079 232.460919 
L 391.839434 183.873152 
L 391.920415 185.981082 
L 392.163359 204.56599 
L 392.531457 226.839775 
L 392.722867 227.858607 
L 392.737591 227.753211 
L 392.936364 229.228761 
L 393.275014 233.198694 
L 393.319185 233.163562 
L 393.370719 233.233826 
L 393.400167 233.023033 
L 393.517958 231.933937 
L 393.657835 229.54495 
L 394.033294 223.115766 
L 394.165809 222.51852 
L 394.195257 222.834709 
L 394.386668 227.120832 
L 394.570716 229.650347 
L 394.791575 228.104532 
L 395.063967 220.832177 
L 395.233292 218.724247 
L 395.240654 218.75938 
L 395.483598 223.783277 
L 395.660285 226.664114 
L 395.675009 226.488453 
L 395.844333 222.588784 
L 396.271326 204.847047 
L 396.315498 205.128105 
L 396.403841 208.571055 
L 396.978073 246.51378 
L 397.007521 246.443516 
L 397.036969 246.51378 
L 397.059055 246.232723 
L 397.169484 242.297922 
L 397.346171 224.521053 
L 397.743716 185.805421 
L 397.75844 185.875685 
L 397.846783 189.494297 
L 398.075004 207.200902 
L 398.376844 225.680414 
L 398.487273 227.296493 
L 398.487273 227.296493 
" clip-path="url(#pea00101a22)" style="fill: none; stroke: #1f77b4; stroke-width: 1.5; stroke-linecap: square"/>
   </g>
   <g id="patch_3">
    <path d="M 57.6 307.584 
L 57.6 41.472 
" style="fill: none; stroke: #000000; stroke-width: 0.8; stroke-linejoin: miter; stroke-linecap: square"/>
   </g>
   <g id="patch_4">
    <path d="M 414.72 307.584 
L 414.72 41.472 
" style="fill: none; stroke: #000000; stroke-width: 0.8; stroke-linejoin: miter; stroke-linecap: square"/>
   </g>
   <g id="patch_5">
    <path d="M 57.6 307.584 
L 414.72 307.584 
" style="fill: none; stroke: #000000; stroke-width: 0.8; stroke-linejoin: miter; stroke-linecap: square"/>
   </g>
   <g id="patch_6">
    <path d="M 57.6 41.472 
L 414.72 41.472 
" style="fill: none; stroke: #000000; stroke-width: 0.8; stroke-linejoin: miter; stroke-linecap: square"/>
   </g>
   <g id="text_17">
    <text style="font: 12px 'IPAexGothic'; text-anchor: middle" x="236.16" y="35.472" transform="rotate(-0 236.16 35.472)">"028_A1.wav"の波形グラフ</text>
   </g>
  </g>
 </g>
 <defs>
  <clipPath id="pea00101a22">
   <rect x="57.6" y="41.472" width="357.12" height="266.112"/>
  </clipPath>
 </defs>
</svg>
