<?xml version="1.0" encoding="utf-8" standalone="no"?>
<!DOCTYPE svg PUBLIC "-//W3C//DTD SVG 1.1//EN"
  "http://www.w3.org/Graphics/SVG/1.1/DTD/svg11.dtd">
<svg xmlns:xlink="http://www.w3.org/1999/xlink" width="460.8pt" height="345.6pt" viewBox="0 0 460.8 345.6" xmlns="http://www.w3.org/2000/svg" version="1.1">
 <metadata>
  <rdf:RDF xmlns:dc="http://purl.org/dc/elements/1.1/" xmlns:cc="http://creativecommons.org/ns#" xmlns:rdf="http://www.w3.org/1999/02/22-rdf-syntax-ns#">
   <cc:Work>
    <dc:type rdf:resource="http://purl.org/dc/dcmitype/StillImage"/>
    <dc:date>2022-11-28T11:27:27.916415</dc:date>
    <dc:format>image/svg+xml</dc:format>
    <dc:creator>
     <cc:Agent>
      <dc:title>Matplotlib v3.6.2, https://matplotlib.org/</dc:title>
     </cc:Agent>
    </dc:creator>
   </cc:Work>
  </rdf:RDF>
 </metadata>
 <defs>
  <style type="text/css">*{stroke-linejoin: round; stroke-linecap: butt}</style>
 </defs>
 <g id="figure_1">
  <g id="patch_1">
   <path d="M 0 345.6 
L 460.8 345.6 
L 460.8 0 
L 0 0 
z
" style="fill: #ffffff"/>
  </g>
  <g id="axes_1">
   <g id="patch_2">
    <path d="M 57.6 307.584 
L 414.72 307.584 
L 414.72 41.472 
L 57.6 41.472 
z
" style="fill: #ffffff"/>
   </g>
   <g id="matplotlib.axis_1">
    <g id="xtick_1">
     <g id="line2d_1">
      <defs>
       <path id="m83bc5947f6" d="M 0 0 
L 0 3.5 
" style="stroke: #000000; stroke-width: 0.8"/>
      </defs>
      <g>
       <use xlink:href="#m83bc5947f6" x="73.832727" y="307.584" style="stroke: #000000; stroke-width: 0.8"/>
      </g>
     </g>
     <g id="text_1">
      <text style="font: 10px 'IPAexGothic'; text-anchor: middle" x="73.832727" y="322.074625" transform="rotate(-0 73.832727 322.074625)">0.0</text>
     </g>
    </g>
    <g id="xtick_2">
     <g id="line2d_2">
      <g>
       <use xlink:href="#m83bc5947f6" x="138.765109" y="307.584" style="stroke: #000000; stroke-width: 0.8"/>
      </g>
     </g>
     <g id="text_2">
      <text style="font: 10px 'IPAexGothic'; text-anchor: middle" x="138.765109" y="322.074625" transform="rotate(-0 138.765109 322.074625)">0.2</text>
     </g>
    </g>
    <g id="xtick_3">
     <g id="line2d_3">
      <g>
       <use xlink:href="#m83bc5947f6" x="203.69749" y="307.584" style="stroke: #000000; stroke-width: 0.8"/>
      </g>
     </g>
     <g id="text_3">
      <text style="font: 10px 'IPAexGothic'; text-anchor: middle" x="203.69749" y="322.074625" transform="rotate(-0 203.69749 322.074625)">0.4</text>
     </g>
    </g>
    <g id="xtick_4">
     <g id="line2d_4">
      <g>
       <use xlink:href="#m83bc5947f6" x="268.629872" y="307.584" style="stroke: #000000; stroke-width: 0.8"/>
      </g>
     </g>
     <g id="text_4">
      <text style="font: 10px 'IPAexGothic'; text-anchor: middle" x="268.629872" y="322.074625" transform="rotate(-0 268.629872 322.074625)">0.6</text>
     </g>
    </g>
    <g id="xtick_5">
     <g id="line2d_5">
      <g>
       <use xlink:href="#m83bc5947f6" x="333.562253" y="307.584" style="stroke: #000000; stroke-width: 0.8"/>
      </g>
     </g>
     <g id="text_5">
      <text style="font: 10px 'IPAexGothic'; text-anchor: middle" x="333.562253" y="322.074625" transform="rotate(-0 333.562253 322.074625)">0.8</text>
     </g>
    </g>
    <g id="xtick_6">
     <g id="line2d_6">
      <g>
       <use xlink:href="#m83bc5947f6" x="398.494635" y="307.584" style="stroke: #000000; stroke-width: 0.8"/>
      </g>
     </g>
     <g id="text_6">
      <text style="font: 10px 'IPAexGothic'; text-anchor: middle" x="398.494635" y="322.074625" transform="rotate(-0 398.494635 322.074625)">1.0</text>
     </g>
    </g>
    <g id="text_7">
     <text style="font: 10px 'IPAexGothic'; text-anchor: middle" x="236.16" y="335.924625" transform="rotate(-0 236.16 335.924625)">時間[s]</text>
    </g>
   </g>
   <g id="matplotlib.axis_2">
    <g id="ytick_1">
     <g id="line2d_7">
      <defs>
       <path id="m7308cea723" d="M 0 0 
L -3.5 0 
" style="stroke: #000000; stroke-width: 0.8"/>
      </defs>
      <g>
       <use xlink:href="#m7308cea723" x="57.6" y="303.813862" style="stroke: #000000; stroke-width: 0.8"/>
      </g>
     </g>
     <g id="text_8">
      <text style="font: 10px 'IPAexGothic'; text-anchor: end" x="50.6" y="307.559174" transform="rotate(-0 50.6 307.559174)">−5000</text>
     </g>
    </g>
    <g id="ytick_2">
     <g id="line2d_8">
      <g>
       <use xlink:href="#m7308cea723" x="57.6" y="270.241838" style="stroke: #000000; stroke-width: 0.8"/>
      </g>
     </g>
     <g id="text_9">
      <text style="font: 10px 'IPAexGothic'; text-anchor: end" x="50.6" y="273.987151" transform="rotate(-0 50.6 273.987151)">−4000</text>
     </g>
    </g>
    <g id="ytick_3">
     <g id="line2d_9">
      <g>
       <use xlink:href="#m7308cea723" x="57.6" y="236.669815" style="stroke: #000000; stroke-width: 0.8"/>
      </g>
     </g>
     <g id="text_10">
      <text style="font: 10px 'IPAexGothic'; text-anchor: end" x="50.6" y="240.415128" transform="rotate(-0 50.6 240.415128)">−3000</text>
     </g>
    </g>
    <g id="ytick_4">
     <g id="line2d_10">
      <g>
       <use xlink:href="#m7308cea723" x="57.6" y="203.097792" style="stroke: #000000; stroke-width: 0.8"/>
      </g>
     </g>
     <g id="text_11">
      <text style="font: 10px 'IPAexGothic'; text-anchor: end" x="50.6" y="206.843104" transform="rotate(-0 50.6 206.843104)">−2000</text>
     </g>
    </g>
    <g id="ytick_5">
     <g id="line2d_11">
      <g>
       <use xlink:href="#m7308cea723" x="57.6" y="169.525769" style="stroke: #000000; stroke-width: 0.8"/>
      </g>
     </g>
     <g id="text_12">
      <text style="font: 10px 'IPAexGothic'; text-anchor: end" x="50.6" y="173.271081" transform="rotate(-0 50.6 173.271081)">−1000</text>
     </g>
    </g>
    <g id="ytick_6">
     <g id="line2d_12">
      <g>
       <use xlink:href="#m7308cea723" x="57.6" y="135.953745" style="stroke: #000000; stroke-width: 0.8"/>
      </g>
     </g>
     <g id="text_13">
      <text style="font: 10px 'IPAexGothic'; text-anchor: end" x="50.6" y="139.699058" transform="rotate(-0 50.6 139.699058)">0</text>
     </g>
    </g>
    <g id="ytick_7">
     <g id="line2d_13">
      <g>
       <use xlink:href="#m7308cea723" x="57.6" y="102.381722" style="stroke: #000000; stroke-width: 0.8"/>
      </g>
     </g>
     <g id="text_14">
      <text style="font: 10px 'IPAexGothic'; text-anchor: end" x="50.6" y="106.127034" transform="rotate(-0 50.6 106.127034)">1000</text>
     </g>
    </g>
    <g id="ytick_8">
     <g id="line2d_14">
      <g>
       <use xlink:href="#m7308cea723" x="57.6" y="68.809699" style="stroke: #000000; stroke-width: 0.8"/>
      </g>
     </g>
     <g id="text_15">
      <text style="font: 10px 'IPAexGothic'; text-anchor: end" x="50.6" y="72.555011" transform="rotate(-0 50.6 72.555011)">2000</text>
     </g>
    </g>
    <g id="text_16">
     <text style="font: 10px 'IPAexGothic'; text-anchor: middle" x="12.723438" y="174.528" transform="rotate(-90 12.723438 174.528)">振幅</text>
    </g>
   </g>
   <g id="line2d_15">
    <path d="M 73.832727 135.987317 
L 73.854813 135.953745 
L 73.862175 136.121605 
L 73.898985 136.121605 
L 73.972604 141.963137 
L 74.134567 159.387017 
L 74.237634 184.028883 
L 74.29653 211.792946 
L 74.33334 180.772396 
L 74.340702 177.784486 
L 74.377511 201.352047 
L 74.384873 201.217759 
L 74.392235 202.493495 
L 74.429045 192.522604 
L 74.605732 104.261755 
L 74.627818 109.599707 
L 74.63518 111.14402 
L 74.664627 96.20447 
L 74.841314 56.522338 
L 74.856038 55.951614 
L 74.907572 57.730931 
L 74.959105 58.87238 
L 74.995915 56.186618 
L 75.040087 53.870148 
L 75.09162 56.790914 
L 75.349289 98.621655 
L 75.835177 182.786718 
L 76.019226 197.961272 
L 76.026588 196.584819 
L 76.03395 195.141222 
L 76.092845 202.527067 
L 76.100207 202.258491 
L 76.122293 204.507817 
L 76.173827 201.956343 
L 76.232722 194.671214 
L 76.313704 195.879807 
L 76.394685 184.465319 
L 76.541924 169.425052 
L 76.56401 170.667217 
L 76.703887 134.476576 
L 76.873212 72.234045 
L 76.895298 82.43994 
L 77.049899 123.129232 
L 76.954193 65.083204 
L 77.071984 116.95198 
L 77.086708 113.158341 
L 77.13088 132.898691 
L 77.307567 230.794711 
L 77.314929 231.969732 
L 77.344376 221.696693 
L 77.73456 76.363404 
L 77.822903 67.567534 
L 77.874437 69.615427 
L 77.889161 70.82402 
L 77.933332 67.802538 
L 77.948056 68.037542 
L 77.970142 66.493229 
L 78.021676 69.682571 
L 78.029038 69.648999 
L 78.176277 77.639141 
L 78.183639 76.229116 
L 78.191 76.195544 
L 78.375049 96.943054 
L 78.389773 95.465885 
L 78.433945 102.616726 
L 78.595908 118.294861 
L 78.60327 118.026285 
L 78.610632 119.302022 
L 78.669527 128.601472 
L 78.735785 125.949282 
L 78.750509 126.922871 
L 78.890386 135.349449 
L 78.779956 126.217858 
L 78.897748 135.148017 
L 78.956643 131.958674 
L 78.986091 137.128766 
L 79.000815 135.920173 
L 79.015539 138.203071 
L 79.111244 146.562505 
L 79.13333 142.16457 
L 79.140692 141.325269 
L 79.199587 146.998941 
L 79.214311 145.891064 
L 79.236397 150.389715 
L 79.251121 153.545485 
L 79.332102 146.394644 
L 79.383636 145.253196 
L 79.413084 146.663221 
L 79.442532 155.358375 
L 79.479341 143.50745 
L 79.523513 148.14039 
L 79.633942 128.970764 
L 79.582409 151.9676 
L 79.678114 136.323037 
L 79.692838 138.773795 
L 79.729648 125.714278 
L 79.884249 97.345918 
L 79.913696 121.752779 
L 80.112469 246.002838 
L 80.164003 265.508183 
L 80.311242 295.488 
L 80.318603 294.98442 
L 80.362775 274.069049 
L 80.679339 140.821689 
L 81.091608 85.729998 
L 81.150504 82.6078 
L 81.179951 85.965002 
L 81.209399 84.051397 
L 81.224123 84.655694 
L 81.253571 80.257759 
L 81.268295 80.358475 
L 81.334552 75.389815 
L 81.378724 77.874145 
L 81.40081 80.190614 
L 81.467067 77.370565 
L 81.489153 77.840573 
L 81.496515 77.571997 
L 81.525963 80.392047 
L 81.724736 90.329366 
L 81.732097 90.161505 
L 81.746821 89.120773 
L 81.783631 93.619424 
L 81.798355 92.377259 
L 81.89406 83.614961 
L 81.923508 89.456493 
L 82.048661 97.144486 
L 82.063385 95.264453 
L 82.078109 91.06795 
L 82.122281 102.34815 
L 82.166452 97.278774 
L 82.203262 105.873212 
L 82.284244 102.18029 
L 82.291606 102.113146 
L 82.298967 102.68387 
L 82.468292 124.673545 
L 82.49774 117.186984 
L 82.667065 93.854428 
L 82.689151 100.468117 
L 82.711237 105.50392 
L 82.755408 87.811464 
L 82.784856 76.531264 
L 82.829028 95.298025 
L 83.10142 256.779457 
L 83.233935 294.111547 
L 83.278107 283.032779 
L 83.7051 145.15248 
L 83.719823 145.454628 
L 83.727185 145.051764 
L 83.984854 120.980623 
L 84.006939 120.544187 
L 84.029025 118.160573 
L 84.095283 122.25636 
L 84.146816 126.587151 
L 84.213074 124.102821 
L 84.227798 122.692796 
L 84.301417 126.117142 
L 84.330865 128.534328 
L 84.360313 124.472113 
L 84.397123 124.807833 
L 84.42657 121.383487 
L 84.470742 126.721439 
L 84.50019 125.143554 
L 84.537 131.522238 
L 84.610619 126.285002 
L 84.625343 125.344986 
L 84.662153 128.500756 
L 84.706324 128.030748 
L 84.72841 131.085802 
L 84.76522 123.162804 
L 84.809392 127.191447 
L 84.83884 121.920639 
L 84.883011 132.965835 
L 84.971355 133.435843 
L 84.912459 132.193679 
L 84.986079 133.100123 
L 85.022888 131.690098 
L 85.06706 134.913012 
L 85.074422 134.577292 
L 85.089146 134.443004 
L 85.096508 134.87944 
L 85.133317 139.579524 
L 85.162765 131.320806 
L 85.192213 124.874978 
L 85.243747 134.71158 
L 85.287918 125.613562 
L 85.324728 118.865585 
L 85.383624 129.541489 
L 85.685464 58.637376 
L 85.707549 53.568 
L 85.751721 75.020523 
L 86.171352 248.285735 
L 85.817979 71.529032 
L 86.244972 229.518974 
L 86.69405 105.50392 
L 86.775032 96.238042 
L 86.848651 96.842338 
L 86.870737 97.782355 
L 86.892823 95.600173 
L 86.959081 93.38442 
L 86.988528 96.338758 
L 87.135767 108.391114 
L 87.157853 107.283237 
L 87.172577 106.443937 
L 87.209387 112.184753 
L 87.275644 114.669082 
L 87.231473 111.681172 
L 87.341902 113.930498 
L 87.363988 111.546884 
L 87.408159 120.342754 
L 87.415521 120.342754 
L 87.437607 118.328433 
L 87.481779 125.546418 
L 87.489141 125.57999 
L 87.525951 121.652063 
L 87.570122 128.265752 
L 87.835152 147.905386 
L 87.849876 146.831081 
L 87.857238 146.428216 
L 87.879324 149.449699 
L 88.026563 160.629182 
L 87.952944 146.562505 
L 88.033925 159.857026 
L 88.100183 148.341822 
L 88.144354 158.010565 
L 88.159078 160.159174 
L 88.20325 147.233945 
L 88.217974 144.749615 
L 88.262145 157.708416 
L 88.284231 160.461322 
L 88.321041 151.061156 
L 88.343127 148.47611 
L 88.387298 156.801972 
L 88.402022 157.171264 
L 88.424108 153.478341 
L 88.615519 109.633279 
L 88.630243 110.64044 
L 88.799568 124.606401 
L 88.865825 154.485502 
L 89.094046 264.702455 
L 89.101407 264.400306 
L 89.233923 228.881106 
L 89.653554 96.305186 
L 89.690363 91.840107 
L 89.852326 75.624819 
L 89.859688 75.725535 
L 90.014289 83.010664 
L 89.911222 74.248366 
L 90.036375 80.794911 
L 90.051099 79.552746 
L 90.087908 84.991414 
L 90.124718 82.339224 
L 90.176252 88.75148 
L 90.264595 87.710748 
L 90.286681 85.76357 
L 90.323491 88.952913 
L 90.522263 106.0075 
L 90.77257 125.378558 
L 90.802017 128.635044 
L 90.868275 122.726368 
L 90.905085 132.596543 
L 90.934533 139.646668 
L 90.993428 127.292163 
L 91.00079 127.963604 
L 91.184839 147.569665 
L 91.192201 147.536093 
L 91.243734 137.665918 
L 91.280544 147.200373 
L 91.309992 153.008333 
L 91.354164 137.867351 
L 91.376249 132.965835 
L 91.435145 145.857492 
L 91.442507 145.689632 
L 91.501403 121.047767 
L 91.633918 111.076876 
L 91.663365 113.96407 
L 91.788518 147.166801 
L 92.024101 279.608433 
L 92.082996 277.594112 
L 92.193426 243.55208 
L 92.694038 102.751014 
L 92.819191 87.240739 
L 92.870725 89.523637 
L 92.885449 89.154345 
L 92.922258 90.866518 
L 93.04005 94.760873 
L 92.981154 89.758641 
L 93.054774 93.686568 
L 93.062135 93.283704 
L 93.098945 97.110914 
L 93.113669 98.520939 
L 93.157841 93.518708 
L 93.172565 93.518708 
L 93.202012 94.492296 
L 93.224098 93.048699 
L 93.23146 92.679407 
L 93.26827 96.20447 
L 93.363975 99.69596 
L 93.386061 97.748783 
L 93.400785 96.305186 
L 93.444957 104.194611 
L 93.584834 110.606868 
L 93.621644 109.968999 
L 93.665815 114.870515 
L 93.827778 131.522238 
L 93.842502 131.89153 
L 93.857226 129.507917 
L 93.894036 122.457792 
L 93.945569 132.395111 
L 93.960293 134.107284 
L 94.004465 123.498525 
L 94.026551 120.980623 
L 94.070722 133.502988 
L 94.085446 135.718741 
L 94.13698 125.109982 
L 94.144342 124.606401 
L 94.166428 128.668616 
L 94.217961 141.392413 
L 94.269495 125.982854 
L 94.284219 124.841405 
L 94.321029 130.985086 
L 94.350476 135.618025 
L 94.394648 124.572829 
L 94.534525 99.427384 
L 94.556611 102.079574 
L 94.578697 103.221022 
L 94.637592 100.300256 
L 94.652316 98.688799 
L 94.681764 107.148949 
L 95.020414 265.172463 
L 95.057223 257.753046 
L 95.741885 97.782355 
L 95.756608 96.506618 
L 95.808142 100.602405 
L 95.830228 100.03168 
L 95.83759 100.03168 
L 96.043724 109.062555 
L 96.06581 107.518241 
L 96.176239 103.221022 
L 96.190963 104.194611 
L 96.242497 108.49183 
L 96.294031 103.691031 
L 96.301393 103.523171 
L 96.33084 105.235344 
L 96.485441 118.194145 
L 96.514889 113.494062 
L 96.536975 110.573296 
L 96.581147 123.532097 
L 96.66949 121.249199 
L 96.721024 133.368699 
L 96.743109 136.255893 
L 96.802005 126.889299 
L 96.860901 139.277376 
L 96.912434 127.191447 
L 96.927158 125.546418 
L 96.963968 133.972996 
L 96.986054 137.498058 
L 97.044949 126.486435 
L 97.059673 127.157875 
L 97.118569 142.936726 
L 97.184826 130.347217 
L 97.19955 129.575061 
L 97.228998 134.845868 
L 97.251084 137.766634 
L 97.309979 131.958674 
L 97.545562 99.427384 
L 97.589734 97.110914 
L 97.604457 98.957376 
L 97.80323 206.119274 
L 97.965193 254.429415 
L 97.987279 252.51581 
L 98.67194 90.262221 
L 98.694026 88.516476 
L 98.745559 93.015127 
L 98.760283 92.813695 
L 98.767645 92.612263 
L 98.789731 94.492296 
L 99.010589 106.276077 
L 99.025313 105.00034 
L 99.054761 102.213862 
L 99.128381 105.50392 
L 99.150466 107.115377 
L 99.209362 102.146718 
L 99.23881 105.369632 
L 99.386049 118.563437 
L 99.312429 104.731764 
L 99.408135 115.273379 
L 99.437582 110.606868 
L 99.481754 120.745619 
L 99.636355 139.579524 
L 99.643717 140.18382 
L 99.673165 134.87944 
L 99.695251 131.89153 
L 99.739422 141.190981 
L 99.76887 145.82392 
L 99.820404 133.737992 
L 99.857214 138.203071 
L 99.894023 143.641739 
L 99.938195 133.70442 
L 99.952919 131.757242 
L 100.004452 140.922405 
L 100.0339 147.468949 
L 100.092796 139.008799 
L 100.10752 139.646668 
L 100.173777 145.857492 
L 100.254759 141.862421 
L 100.505065 105.201772 
L 100.541875 109.801139 
L 100.696476 178.321639 
L 100.909972 256.846601 
L 100.93942 251.777226 
L 101.624081 84.152113 
L 101.646167 83.413529 
L 101.682977 87.442172 
L 101.727148 86.233579 
L 101.889111 97.345918 
L 101.918559 99.058092 
L 101.962731 95.398741 
L 101.977455 94.22372 
L 102.03635 99.494528 
L 102.051074 99.058092 
L 102.095246 93.854428 
L 102.154141 99.259524 
L 102.168865 99.5281 
L 102.183589 98.218791 
L 102.220399 94.760873 
L 102.257209 104.194611 
L 102.286656 109.633279 
L 102.352914 100.803837 
L 102.669478 137.968067 
L 102.684202 136.457326 
L 102.743097 128.836476 
L 102.779907 136.86019 
L 102.794631 138.773795 
L 102.853526 130.917942 
L 102.875612 128.500756 
L 102.919784 137.632346 
L 102.949232 141.157409 
L 103.015489 137.397342 
L 103.030213 137.766634 
L 103.148004 145.454628 
L 103.184814 144.548183 
L 103.383587 116.515544 
L 103.442482 108.290398 
L 103.486654 115.273379 
L 103.854751 261.278108 
L 103.943095 243.820656 
L 104.428983 105.33606 
L 104.56886 91.470814 
L 104.679289 93.283704 
L 104.811805 105.873212 
L 104.8707 100.132396 
L 104.885424 99.293096 
L 104.922234 104.664619 
L 104.929596 105.50392 
L 104.981129 99.763104 
L 105.010577 97.815927 
L 105.054749 104.866052 
L 105.062111 104.933196 
L 105.069473 104.429615 
L 105.121006 94.693729 
L 105.165178 103.959607 
L 105.194626 111.513312 
L 105.253521 100.870981 
L 105.275607 103.993179 
L 105.452294 124.673545 
L 105.459656 124.304253 
L 105.503828 116.4484 
L 105.547999 125.311414 
L 105.584809 130.179357 
L 105.636343 121.484203 
L 105.643705 121.417059 
L 105.651067 121.786351 
L 105.709962 129.541489 
L 105.761496 122.122072 
L 105.783582 119.738458 
L 105.842477 126.889299 
L 105.982354 130.817226 
L 106.100145 140.318108 
L 106.136955 135.315877 
L 106.357814 106.175361 
L 106.394623 105.705352 
L 106.409347 106.981089 
L 106.57131 167.175727 
L 106.79953 254.026551 
L 106.858426 243.585652 
L 107.020389 186.916077 
L 107.344315 110.47258 
L 107.513639 93.38442 
L 107.550449 94.760873 
L 107.844927 114.232646 
L 107.867013 112.016893 
L 107.903823 105.705352 
L 107.962718 114.803371 
L 107.999528 108.223254 
L 108.028976 100.938125 
L 108.080509 115.105519 
L 108.095233 117.556276 
L 108.154129 108.021822 
L 108.168853 108.726834 
L 108.352902 132.126535 
L 108.374987 129.776493 
L 108.404435 125.378558 
L 108.455969 132.999407 
L 108.485417 138.303787 
L 108.551674 131.38795 
L 108.559036 131.522238 
L 108.625294 139.109515 
L 108.669465 131.790814 
L 108.706275 128.198608 
L 108.772533 132.126535 
L 108.787256 132.999407 
L 108.83879 131.38795 
L 108.890324 132.663687 
L 108.919772 131.287234 
L 108.956581 134.107284 
L 109.030201 141.493129 
L 109.06701 135.752313 
L 109.287869 104.194611 
L 109.295231 104.362471 
L 109.346764 103.892463 
L 109.383574 112.453329 
L 109.736948 246.002838 
L 109.840015 228.209665 
L 110.340627 92.545119 
L 110.436333 83.682105 
L 110.480504 89.288633 
L 110.487866 89.657925 
L 110.524676 86.770731 
L 110.554124 85.830714 
L 110.583572 91.06795 
L 110.738173 108.558974 
L 110.745535 108.894694 
L 110.76762 105.67178 
L 110.797068 100.098824 
L 110.855964 110.674012 
L 110.870688 111.81546 
L 110.900136 105.369632 
L 110.936945 97.110914 
L 110.995841 109.666851 
L 111.010565 110.204003 
L 111.040013 105.705352 
L 111.062098 103.623887 
L 111.098908 110.674012 
L 111.268233 128.802904 
L 111.290319 127.695027 
L 111.319767 125.814994 
L 111.349214 129.810065 
L 111.533263 145.622488 
L 111.540625 145.790348 
L 111.562711 144.615327 
L 111.621606 136.188749 
L 111.724674 137.430914 
L 111.754121 138.236643 
L 111.813017 136.893762 
L 111.820379 136.893762 
L 111.857189 135.013729 
L 111.879275 137.766634 
L 111.930808 148.30825 
L 112.004428 142.970298 
L 112.254734 114.769799 
L 112.298906 116.079107 
L 112.401973 139.310948 
L 112.689089 253.187251 
L 112.718537 249.158608 
L 112.873138 204.977825 
L 113.233873 98.755943 
L 113.454731 77.840573 
L 113.462093 77.874145 
L 113.646142 102.046002 
L 113.705038 91.40367 
L 113.727124 93.72014 
L 113.771295 102.482438 
L 113.822829 90.832946 
L 113.844915 87.677176 
L 113.90381 95.801605 
L 113.911172 95.768033 
L 113.962706 89.792213 
L 113.999516 95.298025 
L 114.183564 117.220556 
L 114.190926 117.11984 
L 114.220374 115.474811 
L 114.24246 117.62342 
L 114.448594 139.881672 
L 114.455956 139.747384 
L 114.640005 130.71651 
L 114.669453 133.670848 
L 114.684177 134.913012 
L 114.73571 129.944353 
L 114.750434 129.709349 
L 114.787244 131.656526 
L 114.868226 144.716043 
L 115.000741 140.653828 
L 115.022826 141.190981 
L 115.044912 139.378092 
L 115.184789 117.186984 
L 115.258409 119.570598 
L 115.420372 177.34805 
L 115.626506 252.045802 
L 115.655954 249.662188 
L 115.759021 229.888266 
L 116.24491 93.854428 
L 116.259634 94.55944 
L 116.296443 97.681639 
L 116.333253 91.23581 
L 116.362701 87.005735 
L 116.414235 96.808766 
L 116.554112 109.331131 
L 116.47313 94.05586 
L 116.576197 105.738924 
L 116.613007 98.621655 
L 116.671903 109.599707 
L 116.679265 109.901855 
L 116.701351 106.678941 
L 116.855951 94.022288 
L 116.870675 92.612263 
L 116.922209 99.595244 
L 116.995828 97.312346 
L 117.098896 112.319041 
L 117.143067 111.81546 
L 117.165153 114.199074 
L 117.37865 136.088033 
L 117.525889 128.601472 
L 117.592146 130.212929 
L 117.614232 131.119374 
L 117.651042 127.258591 
L 117.68049 124.169965 
L 117.739385 129.877209 
L 117.813005 138.203071 
L 117.879262 135.450165 
L 117.960244 136.155177 
L 117.974968 135.148017 
L 118.129568 112.050465 
L 118.21055 114.937659 
L 118.350427 162.844936 
L 118.586009 246.338558 
L 118.600733 245.834978 
L 118.7038 225.591047 
L 119.145517 96.607334 
L 119.174965 99.5281 
L 119.189689 100.938125 
L 119.233861 93.988716 
L 119.263308 89.355777 
L 119.322204 98.386651 
L 119.329566 98.621655 
L 119.351652 96.473046 
L 119.3811 93.787284 
L 119.417909 101.978858 
L 119.462081 112.688333 
L 119.550424 110.103287 
L 119.587234 115.743387 
L 119.64613 107.283237 
L 119.778645 99.427384 
L 119.712387 109.532563 
L 119.808093 101.777425 
L 119.866988 105.940356 
L 119.91116 101.743853 
L 119.918522 101.173129 
L 119.955332 106.477509 
L 120.146742 126.318575 
L 120.161466 126.016426 
L 120.183552 125.042838 
L 120.213 127.762172 
L 120.323429 139.445236 
L 120.382325 139.109515 
L 120.448582 135.483737 
L 120.492754 138.471647 
L 120.507478 139.34452 
L 120.573735 136.390182 
L 120.610545 131.958674 
L 120.669441 137.665918 
L 120.735698 142.097425 
L 120.787232 139.277376 
L 120.838765 139.881672 
L 120.97128 125.109982 
L 121.111157 109.230415 
L 121.147967 110.841872 
L 121.236311 130.011497 
L 121.516065 239.019857 
L 121.567598 237.072679 
L 121.597046 235.058358 
L 121.773733 174.998008 
L 122.060849 98.856659 
L 122.082935 100.132396 
L 122.090297 100.333828 
L 122.112382 98.722371 
L 122.281707 84.219257 
L 122.303793 86.670015 
L 122.502566 111.882604 
L 122.701338 98.655227 
L 122.738148 103.221022 
L 122.760234 104.362471 
L 122.811767 100.098824 
L 122.826491 99.998108 
L 122.841215 100.736693 
L 123.01054 115.575527 
L 123.268208 141.325269 
L 123.282932 141.291697 
L 123.363914 139.109515 
L 123.393361 140.586684 
L 123.444895 145.588916 
L 123.496429 140.620256 
L 123.5406 138.404503 
L 123.57741 141.493129 
L 123.687839 148.81183 
L 123.724649 148.006102 
L 123.754097 147.066085 
L 123.783545 148.912546 
L 123.790906 149.248266 
L 123.835078 147.032513 
L 124.092746 113.729066 
L 124.151642 122.994944 
L 124.497654 238.751281 
L 124.578635 221.394545 
L 124.755322 171.137226 
L 125.01299 106.242505 
L 125.197039 82.10422 
L 125.204401 82.137792 
L 125.520964 108.760406 
L 125.54305 106.746085 
L 125.624032 98.353079 
L 125.682927 101.475277 
L 125.741823 95.868749 
L 125.785994 101.575993 
L 126.382312 139.780956 
L 126.397036 138.908083 
L 126.441208 135.349449 
L 126.514827 138.102355 
L 126.728324 151.63188 
L 126.743048 151.396876 
L 126.853477 136.793046 
L 127.01544 112.285469 
L 127.052249 115.407667 
L 127.155317 140.35168 
L 127.420347 235.09193 
L 127.479242 228.545386 
L 127.538138 221.025252 
L 127.987217 101.810998 
L 127.994579 101.978858 
L 128.031389 105.067484 
L 128.060836 99.69596 
L 128.105008 89.523637 
L 128.171266 97.21163 
L 128.318505 104.563903 
L 128.237523 95.063021 
L 128.325866 104.429615 
L 128.355314 103.388883 
L 128.399486 105.705352 
L 128.443658 109.196843 
L 128.480467 104.328899 
L 128.517277 99.69596 
L 128.60562 100.703121 
L 128.649792 96.808766 
L 128.708688 100.870981 
L 129.143043 134.476576 
L 128.767583 100.602405 
L 129.157767 133.805136 
L 129.194576 131.522238 
L 129.24611 135.920173 
L 129.290282 137.733062 
L 129.356539 136.020889 
L 129.385987 134.980157 
L 129.437521 137.330198 
L 129.665741 152.001172 
L 129.687827 151.46402 
L 129.73936 148.509682 
L 129.989667 113.46049 
L 130.026476 117.153412 
L 130.262059 204.877109 
L 130.409298 228.176093 
L 130.424022 227.840373 
L 130.475555 212.900823 
L 130.777395 135.080873 
L 130.792119 134.845868 
L 130.828929 126.285002 
L 131.020339 91.034378 
L 131.027701 90.832946 
L 131.049787 93.048699 
L 131.226474 102.986018 
L 131.233836 103.01959 
L 131.270646 101.408133 
L 131.307455 104.899624 
L 131.351627 109.868283 
L 131.410523 104.664619 
L 131.565124 99.662388 
L 131.484142 104.698192 
L 131.579847 99.930964 
L 131.793344 111.546884 
L 132.021564 134.577292 
L 132.04365 136.289465 
L 132.102546 134.476576 
L 132.131994 135.148017 
L 132.257147 139.747384 
L 132.293956 137.800206 
L 132.323404 135.785885 
L 132.374938 140.51954 
L 132.595796 154.95551 
L 132.617882 155.660523 
L 132.654692 153.679774 
L 132.91236 113.292629 
L 132.98598 120.846335 
L 133.059599 142.030281 
L 133.317267 226.363204 
L 133.324629 227.403937 
L 133.368801 218.070914 
L 133.803156 114.568366 
L 133.825242 114.904087 
L 133.839966 114.366934 
L 134.053462 91.57153 
L 134.104996 97.010198 
L 134.266959 107.316809 
L 134.318492 103.623887 
L 134.480455 99.058092 
L 134.370026 104.463187 
L 134.502541 99.796676 
L 134.760209 112.990481 
L 135.017877 132.965835 
L 135.120944 137.397342 
L 135.172478 141.325269 
L 135.224012 137.565202 
L 135.238736 136.960906 
L 135.282907 140.653828 
L 135.540576 160.293462 
L 135.577385 159.051297 
L 135.680453 145.756776 
L 135.908673 119.637742 
L 135.923397 120.779191 
L 136.04855 156.566968 
L 136.247323 223.408866 
L 136.284132 215.250864 
L 136.755297 116.213396 
L 136.814193 103.254595 
L 136.968793 88.684336 
L 136.983517 89.288633 
L 137.197014 106.410365 
L 137.233824 105.1682 
L 137.241186 105.00034 
L 137.270633 106.578225 
L 137.300081 108.894694 
L 137.358977 104.899624 
L 137.388424 104.161039 
L 137.44732 105.67178 
L 137.454682 105.83964 
L 137.498854 104.698192 
L 137.513578 104.463187 
L 137.550387 106.175361 
L 138.080448 139.210231 
L 138.102533 138.505219 
L 138.161429 134.913012 
L 138.220325 137.263054 
L 138.507441 155.224087 
L 138.566336 149.281838 
L 138.824004 113.057625 
L 138.8829 125.982854 
L 139.000691 163.281372 
L 139.162654 216.761605 
L 139.192102 213.840839 
L 139.214188 212.598674 
L 139.258359 218.070914 
L 139.273083 218.742355 
L 139.295169 214.948716 
L 139.67799 123.464953 
L 139.876763 89.825785 
L 139.94302 94.660157 
L 139.972468 94.123004 
L 140.001916 92.679407 
L 140.038726 96.271614 
L 140.215413 109.163271 
L 140.222774 109.331131 
L 140.252222 108.055394 
L 140.399461 104.597475 
L 140.421547 104.261755 
L 140.465719 105.369632 
L 140.517252 104.866052 
L 140.561424 108.15611 
L 140.819092 129.742921 
L 140.988417 136.658758 
L 140.995779 136.625186 
L 141.003141 136.658758 
L 141.025227 136.356609 
L 141.098846 134.510148 
L 141.143018 135.886601 
L 141.290257 147.401805 
L 141.437496 159.387017 
L 141.48903 156.466251 
L 141.577373 146.058924 
L 141.746698 119.167734 
L 141.761422 120.611331 
L 142.011728 184.096027 
L 142.181053 219.245935 
L 142.232586 209.812197 
L 142.909885 86.367867 
L 142.917247 86.569299 
L 142.946695 88.75148 
L 143.145468 105.50392 
L 143.182278 104.429615 
L 143.314793 102.34815 
L 143.336878 102.751014 
L 143.358964 103.18745 
L 143.410498 102.046002 
L 143.439946 100.971697 
L 143.476755 103.221022 
L 143.763871 129.340057 
L 143.800681 129.037908 
L 143.866939 133.200839 
L 143.98473 138.068783 
L 144.014178 137.095194 
L 144.02154 137.095194 
L 144.131969 143.138158 
L 144.426447 164.322105 
L 144.448533 163.214228 
L 144.757734 120.812763 
L 144.794544 129.742921 
L 145.089022 215.116576 
L 145.096384 215.318008 
L 145.11847 213.303687 
L 145.832579 87.072879 
L 145.898836 94.22372 
L 146.141781 106.376793 
L 146.171228 105.83964 
L 146.362639 99.36024 
L 146.377363 100.132396 
L 146.649755 124.572829 
L 146.863252 138.203071 
L 147.165091 150.859724 
L 147.34914 165.429982 
L 147.363864 163.784953 
L 147.673066 114.165502 
L 147.68779 116.347684 
L 148.122145 208.70432 
L 148.158954 201.721339 
L 148.453432 134.107284 
L 148.733186 92.410831 
L 148.755272 91.705818 
L 148.792082 94.995877 
L 149.064474 111.983321 
L 149.071836 111.6476 
L 149.285332 102.784586 
L 149.307418 103.388883 
L 150.25711 162.979224 
L 150.308643 157.204836 
L 150.573673 116.246968 
L 150.588397 114.836943 
L 150.632569 122.625652 
L 150.853427 175.602305 
L 151.037476 209.946485 
L 151.044838 209.845769 
L 151.118458 193.059757 
L 151.35404 142.66815 
L 151.626432 92.444403 
L 151.677966 88.919341 
L 151.744223 90.967234 
L 151.803119 95.365169 
L 151.965082 109.398275 
L 152.031339 107.350381 
L 152.053425 106.846801 
L 152.104959 108.693262 
L 152.14913 106.611797 
L 152.18594 103.825319 
L 152.266921 104.631047 
L 153.039926 155.459091 
L 153.062012 154.95551 
L 153.076736 154.720506 
L 153.106183 156.365535 
L 153.165079 163.684236 
L 153.24606 160.59561 
L 153.275508 161.871347 
L 153.304956 158.849865 
L 153.496367 122.457792 
L 153.5479 125.042838 
L 153.577348 123.901389 
L 153.606796 121.987784 
L 153.636244 126.285002 
L 153.952808 208.570032 
L 153.982255 206.186418 
L 154.659555 89.053629 
L 154.725812 93.451564 
L 154.895137 107.719674 
L 154.939309 105.268916 
L 154.961394 105.873212 
L 155.005566 107.115377 
L 155.0571 105.302488 
L 155.182253 100.535261 
L 155.219063 103.321739 
L 155.454645 118.227717 
L 155.646056 137.162338 
L 155.81538 147.636809 
L 155.844828 146.461789 
L 155.866914 145.454628 
L 155.903724 149.181122 
L 156.073049 161.334195 
L 156.08041 161.233479 
L 156.124582 158.849865 
L 156.161392 162.173495 
L 156.19084 165.362838 
L 156.235011 157.842704 
L 156.463232 129.138624 
L 156.522127 121.551347 
L 156.566299 129.642205 
L 156.875501 204.507817 
L 156.941758 199.975594 
L 157.015378 192.522604 
L 157.574886 91.06795 
L 157.596972 90.866518 
L 157.619058 91.907251 
L 157.913536 110.170431 
L 157.942983 109.431847 
L 158.090222 103.254595 
L 158.163842 106.376793 
L 158.414148 120.678475 
L 158.598197 138.270215 
L 158.642368 137.498058 
L 159.106171 163.41566 
L 159.157705 156.130531 
L 159.437459 120.611331 
L 159.474269 124.874978 
L 159.871814 202.997076 
L 159.945433 194.536926 
L 160.497579 89.154345 
L 160.608009 91.302954 
L 160.909848 108.458258 
L 160.946658 106.913945 
L 161.020278 102.046002 
L 161.079173 104.194611 
L 161.329479 120.174894 
L 161.623957 147.636809 
L 161.631319 147.737525 
L 161.653405 146.898225 
L 161.682853 145.588916 
L 161.712301 148.677542 
L 161.888987 159.252729 
L 161.940521 156.399107 
L 161.969969 160.058458 
L 162.014141 166.537858 
L 162.080398 160.024886 
L 162.12457 161.099191 
L 162.16138 156.734828 
L 162.360152 122.524936 
L 162.3896 124.639973 
L 162.514753 138.102355 
L 162.787145 199.807734 
L 162.794507 200.109882 
L 162.831317 197.75984 
L 163.118433 148.845402 
L 163.48653 84.487833 
L 163.501254 84.118541 
L 163.538064 85.93143 
L 163.839904 107.921106 
L 163.869351 107.014661 
L 163.950333 102.717442 
L 164.023952 104.631047 
L 164.046038 105.101056 
L 164.215363 116.045535 
L 164.568737 149.651131 
L 164.605546 150.826152 
L 164.936834 169.626485 
L 164.973644 167.813595 
L 165.128245 153.511913 
L 165.371189 123.968533 
L 165.407999 126.117142 
L 165.533152 156.801972 
L 165.731924 197.659124 
L 165.783458 194.671214 
L 165.945421 173.285835 
L 166.438671 83.480673 
L 166.453395 83.984253 
L 166.755235 110.371863 
L 166.85094 106.376793 
L 166.931922 101.508849 
L 166.983455 104.866052 
L 167.057075 104.127467 
L 167.896337 167.041439 
L 167.933147 167.780023 
L 167.962595 166.470714 
L 168.102472 151.161872 
L 168.293882 127.392879 
L 168.330692 129.205769 
L 168.389588 136.826618 
L 168.691427 202.057059 
L 168.713513 201.184187 
L 168.801857 192.45546 
L 168.934372 166.437142 
L 169.368727 83.816393 
L 169.449708 89.053629 
L 169.508604 95.197309 
L 169.68529 106.913945 
L 169.692652 106.880373 
L 169.825167 101.340989 
L 169.854615 98.285935 
L 169.920873 103.120306 
L 169.935597 103.422455 
L 169.979768 101.273845 
L 169.994492 100.938125 
L 170.02394 102.885302 
L 170.612896 152.169032 
L 170.620258 152.101888 
L 170.657068 153.344053 
L 170.85584 169.357908 
L 170.900012 165.967134 
L 171.201852 127.594311 
L 171.327005 134.342288 
L 171.643569 202.694928 
L 171.695102 198.834145 
L 171.974856 145.588916 
L 172.298782 86.367867 
L 172.320868 86.233579 
L 172.357678 87.106451 
L 172.681603 111.31188 
L 172.740499 107.048233 
L 172.799394 102.482438 
L 172.865652 104.597475 
L 172.873014 104.597475 
L 172.924548 103.758175 
L 172.961357 104.631047 
L 173.08651 114.702654 
L 173.395712 143.876743 
L 173.410436 143.776027 
L 173.432522 143.541022 
L 173.454608 144.313179 
L 173.65338 157.674844 
L 173.69019 157.036976 
L 173.704914 157.305552 
L 173.785895 166.23571 
L 173.888963 161.569199 
L 173.925772 158.346285 
L 174.146631 123.867817 
L 174.22025 124.639973 
L 174.264422 129.440773 
L 174.580986 202.560639 
L 174.647243 196.819823 
L 174.919635 144.816759 
L 175.265647 84.622122 
L 175.287733 85.696426 
L 175.611659 114.601938 
L 175.677916 110.606868 
L 175.773621 105.537492 
L 175.839879 107.786818 
L 175.884051 106.410365 
L 175.913498 105.436776 
L 175.950308 107.350381 
L 176.480368 151.934028 
L 176.531902 154.11621 
L 176.723313 165.060689 
L 176.796932 162.91208 
L 176.877914 156.60054 
L 177.106134 124.606401 
L 177.187115 127.862888 
L 177.275459 147.938958 
L 177.525765 201.822055 
L 177.562575 199.237009 
L 177.746623 170.566501 
L 178.173616 81.197775 
L 178.180978 81.029915 
L 178.210426 82.238508 
L 178.549076 112.789049 
L 178.666867 107.954678 
L 178.703677 105.369632 
L 178.762572 109.700423 
L 178.777296 110.204003 
L 178.821468 107.618958 
L 178.850916 106.611797 
L 178.887725 109.968999 
L 179.307356 146.763937 
L 179.631282 160.192746 
L 179.69754 165.027117 
L 179.749073 161.770631 
L 179.92576 142.33243 
L 180.036189 125.74785 
L 180.124533 128.467184 
L 180.19079 139.881672 
L 180.477906 202.997076 
L 180.49263 202.392779 
L 180.654593 181.745985 
L 181.111034 84.051397 
L 181.250911 89.624353 
L 181.523303 110.909016 
L 181.560113 109.700423 
L 181.641094 102.281006 
L 181.707352 106.544653 
L 181.714713 106.678941 
L 181.736799 105.50392 
L 181.773609 103.758175 
L 181.825143 106.981089 
L 182.509804 154.821222 
L 182.517166 154.754078 
L 182.539252 154.351214 
L 182.561337 155.593379 
L 182.627595 163.41566 
L 182.701214 159.890598 
L 182.730662 159.991314 
L 182.767472 157.909848 
L 182.973607 128.40004 
L 183.084036 131.992246 
L 183.157655 150.591147 
L 183.415323 207.294295 
L 183.437409 206.354278 
L 183.614096 181.175261 
L 184.114709 85.25999 
L 184.12207 85.327134 
L 184.173604 89.691497 
L 184.46072 109.935427 
L 184.468082 109.767567 
L 184.578511 101.710281 
L 184.674217 104.362471 
L 184.703664 104.429615 
L 184.792008 106.746085 
L 185.579736 161.804203 
L 185.63127 159.92417 
L 185.749061 152.13546 
L 185.93311 126.486435 
L 186.028815 127.862888 
L 186.102434 144.581755 
L 186.374827 201.754911 
L 186.38955 201.419191 
L 186.49998 189.668983 
L 186.610409 166.504286 
L 187.015316 88.650764 
L 187.037402 87.811464 
L 187.088936 90.295794 
L 187.390775 112.956909 
L 187.471757 109.028983 
L 187.552738 105.403204 
L 187.59691 108.32397 
L 187.63372 110.506152 
L 187.692615 107.786818 
L 187.699977 107.786818 
L 187.744149 112.654761 
L 188.016541 137.061622 
L 188.296295 151.1283 
L 188.333105 150.725435 
L 188.347829 151.363304 
L 188.531877 162.844936 
L 188.576049 160.696326 
L 188.796907 136.994478 
L 188.95887 125.781422 
L 188.973594 126.117142 
L 189.03249 136.927334 
L 189.326968 199.404869 
L 189.341692 198.968433 
L 189.518378 172.815827 
L 189.960095 85.93143 
L 189.974819 86.032147 
L 190.099972 90.933662 
L 190.335555 109.532563 
L 190.365002 109.465419 
L 190.39445 109.566135 
L 190.409174 109.633279 
L 190.423898 109.062555 
L 190.482794 104.530331 
L 190.526965 108.592546 
L 190.563775 111.614028 
L 190.622671 108.122538 
L 190.637394 108.626118 
L 191.218988 152.571897 
L 191.241074 151.9676 
L 191.26316 151.531164 
L 191.29997 153.478341 
L 191.469295 163.617092 
L 191.506104 162.072779 
L 191.741687 138.572363 
L 191.83003 127.325735 
L 191.918373 127.7286 
L 191.977269 139.075943 
L 192.264385 202.594211 
L 192.286471 201.553479 
L 192.477881 174.393712 
L 192.971132 85.461422 
L 192.993218 86.334295 
L 193.317144 107.954678 
L 193.331867 107.551813 
L 193.412849 102.549582 
L 193.471744 105.705352 
L 193.699965 116.079107 
L 194.023891 141.325269 
L 194.082786 144.111747 
L 194.303645 153.176193 
L 194.32573 153.646201 
L 194.414074 160.729898 
L 194.524503 158.950581 
L 194.531865 158.950581 
L 194.568675 155.962671 
L 194.789533 129.776493 
L 194.833705 130.112213 
L 194.877877 133.267983 
L 195.010392 166.06785 
L 195.223888 203.030648 
L 195.245974 202.560639 
L 195.297508 197.625552 
L 195.901187 86.334295 
L 196.011617 91.907251 
L 196.06315 97.37949 
L 196.232475 107.887534 
L 196.239837 107.954678 
L 196.261923 107.383953 
L 196.4018 103.724603 
L 196.416524 104.026751 
L 197.373577 158.648433 
L 197.425111 157.842704 
L 197.53554 151.866884 
L 197.734312 127.225019 
L 197.778484 129.373629 
L 197.859465 135.785885 
L 198.176029 203.534228 
L 198.220201 198.733429 
L 198.831243 88.180756 
L 198.949034 91.06795 
L 199.258236 106.813229 
L 199.295045 104.731764 
L 199.331855 101.911714 
L 199.383389 106.443937 
L 199.46437 105.806068 
L 199.560075 112.151181 
L 199.618971 116.817692 
L 199.891363 140.51954 
L 200.075412 150.893296 
L 200.090136 150.759007 
L 200.119583 150.053995 
L 200.149031 151.665452 
L 200.318356 161.199907 
L 200.340442 160.830614 
L 200.495043 150.255427 
L 200.664368 128.030748 
L 200.730625 129.407201 
L 200.737987 129.340057 
L 200.760073 129.709349 
L 200.811607 137.900923 
L 201.113446 204.172097 
L 201.142894 201.788483 
L 201.474182 141.392413 
L 201.798108 88.919341 
L 201.834917 87.979324 
L 201.871727 89.691497 
L 202.166205 106.712513 
L 202.180929 106.477509 
L 202.269272 101.978858 
L 202.320806 104.261755 
L 202.585836 119.671314 
L 202.82878 140.284536 
L 202.990743 150.591147 
L 203.020191 150.020423 
L 203.049639 149.416127 
L 203.079087 150.624719 
L 203.263135 160.327034 
L 203.285221 160.192746 
L 203.380926 158.547717 
L 203.638595 129.172197 
L 203.741662 134.409432 
L 203.933073 183.525302 
L 204.050864 202.862788 
L 204.102397 200.41203 
L 204.271722 175.468017 
L 204.691353 89.960073 
L 204.750249 86.535727 
L 204.801782 89.288633 
L 205.09626 107.350381 
L 205.147794 105.537492 
L 205.177242 105.604636 
L 205.191966 105.134628 
L 205.236137 103.053162 
L 205.280309 105.470348 
L 205.508529 117.791281 
L 206.090123 154.418358 
L 206.244724 161.770631 
L 206.310982 158.279141 
L 206.384601 152.706185 
L 206.576012 127.695027 
L 206.634907 130.313645 
L 206.701165 134.71158 
L 207.017729 204.809965 
L 207.076624 199.203437 
L 207.334293 150.926868 
L 207.672942 87.173595 
L 207.695028 87.777892 
L 208.070487 107.350381 
L 208.136745 104.731764 
L 208.180917 101.810998 
L 208.23245 105.369632 
L 208.261898 106.645369 
L 208.320794 104.597475 
L 208.335517 104.899624 
L 208.445947 113.96407 
L 208.924473 147.670381 
L 208.939197 147.603237 
L 208.946559 147.569665 
L 208.961283 147.804669 
L 209.13797 159.487734 
L 209.167418 161.602771 
L 209.241037 158.782721 
L 209.277847 159.219157 
L 209.292571 158.682005 
L 209.476619 133.234411 
L 209.513429 130.246501 
L 209.601773 130.548649 
L 209.63122 132.663687 
L 209.962508 206.992147 
L 210.080299 196.047667 
L 210.168643 176.609465 
L 210.595636 88.75148 
L 210.683979 86.300723 
L 210.713427 88.046468 
L 211.000543 108.021822 
L 211.007905 107.98825 
L 211.125696 101.84457 
L 211.191953 105.906784 
L 211.206677 106.208933 
L 211.258211 104.396043 
L 211.265573 104.295327 
L 211.287659 105.00034 
L 212.119559 160.59561 
L 212.193178 159.655594 
L 212.229988 159.185585 
L 212.333055 148.442538 
L 212.524466 130.380789 
L 212.553914 131.22009 
L 212.627533 144.917475 
L 212.899925 205.649266 
L 212.944097 202.929932 
L 213.113422 178.153779 
L 213.59931 84.75641 
L 213.621396 85.125702 
L 213.746549 95.633745 
L 213.930598 109.398275 
L 213.952684 109.700423 
L 213.996856 108.391114 
L 214.070475 105.1682 
L 214.122009 107.518241 
L 214.593173 133.972996 
L 215.079062 159.92417 
L 215.101148 159.353445 
L 215.314644 141.828849 
L 215.432435 128.702188 
L 215.528141 132.294395 
L 215.660656 165.262122 
L 215.874152 204.104953 
L 215.9036 202.7285 
L 216.036115 185.539624 
L 216.536728 86.367867 
L 216.551451 86.468583 
L 216.602985 88.449332 
L 216.890101 111.580456 
L 217.015254 107.954678 
L 217.029978 107.753246 
L 217.059426 109.028983 
L 217.11096 111.81546 
L 217.169855 109.331131 
L 217.184579 109.532563 
L 218.016479 158.514145 
L 218.090099 156.667684 
L 218.126908 157.77556 
L 218.156356 155.626951 
L 218.369853 128.769332 
L 218.43611 129.340057 
L 218.458196 129.910781 
L 218.524454 142.768866 
L 218.818931 203.601372 
L 218.833655 202.963504 
L 218.980894 185.002471 
L 219.466783 85.562138 
L 219.503593 84.789982 
L 219.547764 86.502155 
L 219.893776 111.278308 
L 219.945309 109.096127 
L 219.967395 108.290398 
L 220.011567 111.076876 
L 220.055739 112.889765 
L 220.13672 112.151181 
L 220.96862 160.461322 
L 220.998068 160.159174 
L 221.056964 160.494894 
L 221.093773 158.514145 
L 221.329356 129.272913 
L 221.439785 133.87228 
L 221.756349 203.164936 
L 221.844692 195.745519 
L 221.969845 173.655127 
L 222.44101 82.708516 
L 222.47782 83.648533 
L 223.00788 114.568366 
L 223.015242 114.601938 
L 223.029966 114.366934 
L 223.074137 113.225485 
L 223.110947 114.971231 
L 223.552664 140.922405 
L 223.626284 145.018192 
L 223.928123 160.797042 
L 223.950209 160.226318 
L 224.126896 147.334661 
L 224.296221 128.06432 
L 224.36984 131.018658 
L 224.472908 155.156943 
L 224.70849 203.299224 
L 224.7453 201.855627 
L 224.892539 182.148849 
L 225.385789 83.514245 
L 225.393151 83.447101 
L 225.422599 83.984253 
L 225.562476 97.715211 
L 225.746525 111.6476 
L 225.76861 111.748316 
L 225.80542 111.379024 
L 225.871678 108.525402 
L 225.915849 111.278308 
L 225.952659 112.755477 
L 226.011555 111.14402 
L 226.026279 111.412596 
L 226.166156 121.282771 
L 226.453272 138.975227 
L 226.563701 144.011031 
L 226.777197 152.471181 
L 226.872903 160.864187 
L 226.97597 158.614861 
L 227.086399 145.689632 
L 227.226276 127.392879 
L 227.314619 129.373629 
L 227.373515 140.922405 
L 227.653269 203.097792 
L 227.675355 202.191347 
L 227.866766 173.990848 
L 228.33793 84.92427 
L 228.352654 85.058558 
L 228.426274 89.221489 
L 228.706028 114.568366 
L 228.838543 111.345452 
L 228.912162 113.930498 
L 228.971058 112.419757 
L 228.97842 112.419757 
L 229.029953 115.105519 
L 229.501118 143.138158 
L 229.817682 160.394178 
L 229.891301 158.447001 
L 229.920749 157.976993 
L 229.987007 151.027584 
L 230.244675 127.695027 
L 230.259399 128.198608 
L 230.325656 143.138158 
L 230.590686 201.049898 
L 230.627496 198.767001 
L 230.789459 178.825219 
L 231.275347 85.024986 
L 231.290071 84.957842 
L 231.312157 85.327134 
L 231.422586 93.518708 
L 231.643445 114.232646 
L 231.731788 112.621189 
L 231.768598 110.64044 
L 231.820132 113.695494 
L 231.856941 115.340523 
L 231.908475 112.251897 
L 231.923199 111.916177 
L 231.952647 113.863354 
L 232.26921 135.953745 
L 232.298658 136.558042 
L 232.762461 161.367767 
L 232.880252 158.413429 
L 233.027491 138.605935 
L 233.167368 127.829316 
L 233.189454 128.198608 
L 233.240988 133.335127 
L 233.550189 198.800573 
L 233.623809 193.664053 
L 233.793134 164.657825 
L 234.256936 85.93143 
L 234.301108 87.610032 
L 234.396813 98.319507 
L 234.595586 113.259057 
L 234.617672 113.46049 
L 234.64712 112.956909 
L 234.713377 109.297559 
L 234.757549 112.486901 
L 234.786997 113.762638 
L 234.845892 111.278308 
L 234.860616 110.8083 
L 234.904788 113.46049 
L 235.346505 140.788117 
L 235.4054 143.809599 
L 235.714602 162.139923 
L 235.751412 160.964903 
L 235.942823 144.951047 
L 236.148957 129.306485 
L 236.163681 129.810065 
L 236.229939 145.521772 
L 236.494969 199.505585 
L 236.509693 199.069149 
L 236.664293 183.592446 
L 237.201716 88.113612 
L 237.223801 88.617192 
L 237.540365 114.63551 
L 237.658156 110.741156 
L 237.702328 112.084037 
L 237.739138 112.956909 
L 237.790671 111.882604 
L 237.820119 111.110448 
L 237.864291 113.393346 
L 238.31337 139.713812 
L 238.593124 153.814062 
L 238.652019 160.25989 
L 238.733001 158.077709 
L 238.762449 158.749149 
L 238.791896 156.969832 
L 239.079012 126.486435 
L 239.130546 130.951514 
L 239.439748 197.457692 
L 239.528091 192.354744 
L 239.67533 167.746451 
L 240.131771 89.389349 
L 240.161219 90.195077 
L 240.440973 114.971231 
L 240.477783 116.884836 
L 240.551402 115.407667 
L 240.625021 113.292629 
L 240.661831 114.870515 
L 240.698641 116.549116 
L 240.750175 114.064786 
L 240.764898 113.661922 
L 240.801708 116.112679 
L 241.0741 134.174428 
L 241.604161 160.024886 
L 241.729314 157.036976 
L 242.009068 125.009266 
L 242.082687 130.649366 
L 242.391889 195.040506 
L 242.47287 189.702555 
L 242.686367 151.63188 
L 243.07655 88.180756 
L 243.11336 88.952913 
L 243.238513 101.374561 
L 243.437286 115.810531 
L 243.45201 115.877675 
L 243.488819 116.381256 
L 243.518267 115.273379 
L 243.562439 112.923337 
L 243.60661 115.978391 
L 243.636058 117.45556 
L 243.702316 114.702654 
L 243.739125 117.11984 
L 244.040965 136.658758 
L 244.063051 136.759474 
L 244.129309 141.459557 
L 244.563664 163.482804 
L 244.58575 162.74422 
L 244.791884 142.802438 
L 244.917037 126.620723 
L 245.020104 129.138624 
L 245.196791 173.252263 
L 245.34403 195.27551 
L 245.38084 193.328333 
L 245.572251 164.489965 
L 246.028691 87.240739 
L 246.043415 87.072879 
L 246.072863 88.147184 
L 246.404151 114.769799 
L 246.536666 112.352613 
L 246.602923 113.695494 
L 246.661819 112.956909 
L 246.713352 115.642671 
L 247.501081 164.322105 
L 247.545253 162.240639 
L 247.596786 162.307784 
L 247.68513 152.068316 
L 247.91335 128.265752 
L 247.95016 129.037908 
L 248.016417 141.560273 
L 248.288809 196.316243 
L 248.332981 193.932629 
L 248.509668 169.05576 
L 248.973471 88.382188 
L 248.980832 88.281472 
L 249.01028 89.221489 
L 249.326844 115.273379 
L 249.407825 113.46049 
L 249.474083 110.707584 
L 249.525617 112.822621 
L 249.547702 113.359774 
L 249.599236 111.31188 
L 249.61396 110.97616 
L 249.65077 112.889765 
L 250.077763 138.975227 
L 250.386965 156.063387 
L 250.467946 161.502055 
L 250.534203 160.830614 
L 250.585737 158.010565 
L 250.755062 133.972996 
L 250.865491 128.702188 
L 250.887577 128.970764 
L 250.931749 133.368699 
L 251.240951 196.416959 
L 251.31457 190.911147 
L 251.498619 158.917009 
L 251.910888 88.818624 
L 251.947698 89.657925 
L 252.058127 96.976626 
L 252.271623 115.441239 
L 252.323157 115.978391 
L 252.352605 115.306951 
L 252.404138 112.084037 
L 252.463034 115.239807 
L 252.492482 116.011963 
L 252.544015 114.13193 
L 252.558739 113.896926 
L 252.588187 115.206235 
L 253.118247 145.790348 
L 253.412725 161.065619 
L 253.456897 159.521306 
L 253.574688 151.63188 
L 253.832356 126.687867 
L 253.84708 127.090731 
L 253.905976 137.733062 
L 254.18573 193.429049 
L 254.207816 192.522604 
L 254.391864 168.652896 
L 254.833581 90.430082 
L 254.899839 89.389349 
L 254.921925 90.262221 
L 255.444623 116.61626 
L 255.503518 114.534794 
L 255.540328 116.61626 
L 255.878978 137.430914 
L 256.085112 147.905386 
L 256.136646 147.569665 
L 256.320695 160.830614 
L 256.350142 162.341356 
L 256.423762 160.293462 
L 256.467934 159.58845 
L 256.600449 142.466718 
L 256.777135 127.862888 
L 256.791859 128.165036 
L 256.843393 135.853029 
L 257.130509 192.959041 
L 257.167319 190.978291 
L 257.329282 171.20437 
L 257.829894 88.348616 
L 257.837256 88.449332 
L 257.947685 94.928733 
L 258.183267 115.071947 
L 258.205353 114.836943 
L 258.256887 113.46049 
L 258.301059 111.748316 
L 258.352592 114.29979 
L 258.389402 115.273379 
L 258.448298 114.13193 
L 258.463022 114.266218 
L 258.558727 119.872746 
L 258.853205 140.18382 
L 259.074063 147.938958 
L 259.140321 151.900456 
L 259.302284 162.542788 
L 259.412713 160.226318 
L 259.493694 150.79258 
L 259.729277 127.460023 
L 259.758724 129.105052 
L 259.898601 160.562038 
L 260.08265 192.019024 
L 260.134184 189.870415 
L 260.288785 169.693629 
L 260.730501 90.90009 
L 260.767311 90.497226 
L 260.811483 91.336526 
L 260.95136 104.83248 
L 261.128047 115.609099 
L 261.164856 114.870515 
L 261.231114 112.520473 
L 261.260562 111.916177 
L 261.304733 113.762638 
L 261.348905 115.575527 
L 261.407801 113.259057 
L 261.415163 113.259057 
L 261.503506 119.537026 
L 262.018842 147.468949 
L 262.063014 149.248266 
L 262.254425 162.173495 
L 262.31332 160.192746 
L 262.38694 158.077709 
L 262.681418 127.258591 
L 262.718227 129.910781 
L 263.034791 192.724037 
L 263.14522 184.263887 
L 263.233564 170.230781 
L 263.704728 90.765802 
L 263.734176 89.926501 
L 263.770986 91.57153 
L 264.080188 113.896926 
L 264.153807 112.956909 
L 264.197979 110.741156 
L 264.249513 113.829782 
L 264.286322 115.810531 
L 264.345218 113.292629 
L 264.35258 113.359774 
L 264.448285 119.906318 
L 265.191842 161.636343 
L 265.272823 159.219157 
L 265.294909 159.152013 
L 265.339081 156.164103 
L 265.626197 125.647134 
L 265.655645 127.527167 
L 265.810246 163.281372 
L 265.97957 191.918308 
L 266.01638 190.071847 
L 266.170981 173.352979 
L 266.671594 92.477975 
L 266.708403 93.451564 
L 267.039691 114.669082 
L 267.135396 110.909016 
L 267.142758 110.875444 
L 267.157482 111.244736 
L 267.231102 114.836943 
L 267.304721 113.326201 
L 267.407788 120.074178 
L 267.775886 142.869582 
L 267.812695 143.473878 
L 268.143983 160.058458 
L 268.261774 157.6077 
L 268.372204 143.843171 
L 268.570976 125.848566 
L 268.600424 127.157875 
L 268.703491 149.718275 
L 268.939074 190.844003 
L 268.975883 189.568266 
L 269.130484 171.170798 
L 269.579563 93.787284 
L 269.631097 92.545119 
L 269.675268 94.22372 
L 270.190605 116.414828 
L 270.2495 114.29979 
L 270.28631 116.079107 
L 270.705941 144.514611 
L 270.926799 150.490431 
L 271.096124 161.099191 
L 271.177106 158.849865 
L 271.19183 158.883437 
L 271.206554 158.581289 
L 271.272811 150.826152 
L 271.530479 125.042838 
L 271.545203 125.479274 
L 271.611461 138.538791 
L 271.883853 189.031114 
L 271.905939 187.990381 
L 272.097349 165.194978 
L 272.568514 91.873679 
L 272.605324 92.645835 
L 272.730477 102.85173 
L 272.914525 114.46765 
L 272.943973 114.601938 
L 272.988145 114.098358 
L 273.047041 111.81546 
L 273.08385 113.997642 
L 273.135384 116.515544 
L 273.201641 114.534794 
L 273.319433 122.692796 
L 273.672806 145.387484 
L 273.702254 145.32034 
L 273.982008 157.339124 
L 274.048265 162.139923 
L 274.114523 160.293462 
L 274.166057 159.185585 
L 274.305934 139.176659 
L 274.475258 125.109982 
L 274.48262 125.277842 
L 274.534154 132.529399 
L 274.82127 189.46755 
L 274.887528 186.748216 
L 275.005319 175.03158 
L 275.535379 93.182988 
L 275.579551 94.425152 
L 275.697342 104.83248 
L 275.874029 112.856193 
L 275.903476 112.251897 
L 275.962372 110.002571 
L 275.99182 109.163271 
L 276.035991 111.379024 
L 276.080163 113.191913 
L 276.153783 112.016893 
L 276.411451 130.246501 
L 276.610223 143.541022 
L 276.683843 145.82392 
L 277.000407 161.502055 
L 277.022492 161.065619 
L 277.191817 148.912546 
L 277.412676 126.721439 
L 277.442123 127.594311 
L 277.530467 145.421056 
L 277.780773 189.937559 
L 277.810221 189.165402 
L 277.979546 170.264353 
L 278.428625 95.331597 
L 278.472796 94.156576 
L 278.516968 95.633745 
L 278.818808 114.534794 
L 278.899789 112.453329 
L 278.943961 110.97616 
L 278.988133 112.856193 
L 279.032304 114.736226 
L 279.105924 113.426918 
L 279.945186 160.024886 
L 279.974634 159.051297 
L 280.18813 139.915244 
L 280.379541 124.371397 
L 280.386903 124.572829 
L 280.445798 135.383021 
L 280.725552 189.400406 
L 280.747638 188.762538 
L 280.916963 171.640806 
L 281.402852 94.693729 
L 281.410213 94.660157 
L 281.432299 94.861589 
L 281.542729 100.400973 
L 281.770949 116.079107 
L 281.829845 115.340523 
L 281.88874 112.856193 
L 281.932912 114.836943 
L 281.977083 116.95198 
L 282.050703 115.441239 
L 282.293647 129.910781 
L 282.507144 143.977459 
L 282.551315 144.648899 
L 282.882603 160.729898 
L 282.926775 159.487734 
L 283.066652 150.524003 
L 283.316958 123.498525 
L 283.353768 126.217858 
L 283.670332 188.023953 
L 283.802847 179.429515 
L 283.89119 164.657825 
L 284.354993 93.015127 
L 284.362355 92.981555 
L 284.38444 93.21656 
L 284.480146 97.916643 
L 284.737814 116.582688 
L 284.752538 116.414828 
L 284.79671 115.004803 
L 284.840881 113.661922 
L 284.885053 115.743387 
L 284.929225 117.757709 
L 285.002844 116.28054 
L 285.231064 130.045069 
L 285.525542 146.226784 
L 285.849468 161.300623 
L 285.923088 159.554878 
L 285.981983 156.499823 
L 286.247013 125.613562 
L 286.320633 130.414361 
L 286.622473 188.96397 
L 286.681368 185.741056 
L 286.872779 158.547717 
L 287.321858 91.336526 
L 287.336582 91.605102 
L 287.461735 100.501689 
L 287.653145 114.031214 
L 287.667869 114.165502 
L 287.719403 113.62835 
L 287.78566 111.043304 
L 287.829832 113.091197 
L 287.874004 115.743387 
L 287.947623 113.863354 
L 288.212653 132.361539 
L 288.404064 144.111747 
L 288.433512 144.044603 
L 288.46296 144.682471 
L 288.794247 161.804203 
L 288.808971 161.401339 
L 289.022468 143.641739 
L 289.22124 127.191447 
L 289.243326 128.40004 
L 289.375841 158.178425 
L 289.567252 191.649732 
L 289.618786 189.333262 
L 289.780748 169.190048 
L 290.237189 92.746551 
L 290.266637 92.242971 
L 290.325533 93.417992 
L 290.399152 99.02452 
L 290.597925 113.393346 
L 290.634734 114.064786 
L 290.678906 112.822621 
L 290.73044 110.506152 
L 290.774611 112.688333 
L 290.818783 114.836943 
L 290.885041 112.990481 
L 290.936574 115.709815 
L 291.451911 145.421056 
L 291.694855 158.211997 
L 291.724303 160.327034 
L 291.805284 158.379857 
L 291.82737 158.782721 
L 291.856818 157.506984 
L 292.158658 125.344986 
L 292.217553 131.89153 
L 292.519393 191.079007 
L 292.570927 188.493962 
L 292.747613 165.429982 
L 293.218778 93.753712 
L 293.233502 93.854428 
L 293.314483 97.950215 
L 293.56479 117.2877 
L 293.638409 115.239807 
L 293.682581 113.896926 
L 293.726752 115.709815 
L 293.770924 117.62342 
L 293.837182 115.776959 
L 293.86663 116.884836 
L 294.35988 143.037442 
L 294.69853 157.876276 
L 294.742701 156.835544 
L 294.838407 151.766168 
L 295.088713 124.505685 
L 295.140247 126.486435 
L 295.2654 154.183354 
L 295.471534 189.064686 
L 295.515706 186.748216 
L 295.685031 165.597842 
L 296.163557 92.947983 
L 296.170919 93.015127 
L 296.273987 98.621655 
L 296.516931 117.757709 
L 296.553741 117.254128 
L 296.634722 114.870515 
L 296.678894 116.851264 
L 296.723065 118.832013 
L 296.789323 116.817692 
L 296.833495 119.503454 
L 297.150058 138.639507 
L 297.584413 155.861955 
L 297.643309 159.92417 
L 297.702204 157.43984 
L 297.731652 157.641272 
L 297.7611 156.734828 
L 297.923063 133.670848 
L 298.055578 126.587151 
L 298.070302 126.822155 
L 298.121835 133.905852 
L 298.416313 190.038275 
L 298.453123 188.62825 
L 298.607724 171.338658 
L 299.093613 91.605102 
L 299.100975 91.57153 
L 299.12306 91.840107 
L 299.218766 97.21163 
L 299.46171 116.213396 
L 299.49852 115.877675 
L 299.579501 113.057625 
L 299.623673 115.239807 
L 299.667845 117.11984 
L 299.72674 114.971231 
L 299.748826 115.541955 
L 300.308334 145.018192 
L 300.315696 144.917475 
L 300.352506 144.380323 
L 300.381953 145.555344 
L 300.573364 158.849865 
L 300.646984 157.070548 
L 300.676431 157.305552 
L 300.691155 156.93626 
L 300.801585 143.910315 
L 300.9341 127.460023 
L 301.022443 128.198608 
L 301.088701 140.620256 
L 301.368455 192.153312 
L 301.39054 191.414728 
L 301.537779 176.978758 
L 302.053116 92.545119 
L 302.06784 92.612263 
L 302.148821 96.842338 
L 302.612624 117.858425 
L 302.627348 117.757709 
L 302.678881 116.414828 
L 302.723053 118.059857 
L 303.172132 141.190981 
L 303.363542 146.495361 
L 303.532867 156.60054 
L 303.628573 154.485502 
L 303.687468 149.550415 
L 303.878879 124.975694 
L 303.967222 125.613562 
L 304.026118 135.416593 
L 304.313234 191.213296 
L 304.33532 190.340423 
L 304.512006 171.002938 
L 304.997895 93.317276 
L 305.012619 93.417992 
L 305.108324 98.118075 
L 305.35863 117.925569 
L 305.454336 116.045535 
L 305.483783 115.306951 
L 305.527955 117.522704 
L 305.572127 119.60417 
L 305.631022 117.388416 
L 305.653108 118.127001 
L 306.087463 143.708883 
L 306.094825 143.742455 
L 306.116911 143.33959 
L 306.131635 143.104586 
L 306.168445 144.178891 
L 306.477646 157.741988 
L 306.514456 156.499823 
L 306.720591 137.766634 
L 306.882554 124.203537 
L 306.912001 124.572829 
L 306.970897 132.999407 
L 307.265375 189.366834 
L 307.294823 188.258958 
L 307.449424 172.04367 
L 307.920588 93.149415 
L 307.942674 92.914411 
L 307.979484 93.753712 
L 308.104637 103.926035 
L 308.296048 117.489132 
L 308.325495 117.824853 
L 308.369667 117.019124 
L 308.428563 114.434078 
L 308.472734 117.086268 
L 308.509544 118.832013 
L 308.56844 116.817692 
L 308.575802 116.817692 
L 308.627335 119.738458 
L 309.039604 143.608167 
L 309.054328 143.272446 
L 309.076414 143.00387 
L 309.105862 144.044603 
L 309.297273 149.818991 
L 309.319358 149.886135 
L 309.356168 152.336893 
L 309.429788 158.447001 
L 309.496045 155.929099 
L 309.562303 153.914778 
L 309.783161 126.016426 
L 309.886228 127.930032 
L 310.033467 161.737059 
L 310.210154 190.776859 
L 310.254326 188.46039 
L 310.438374 163.617092 
L 310.894815 93.115843 
L 310.924263 93.55228 
L 311.034692 101.105985 
L 311.248189 117.254128 
L 311.255551 117.321272 
L 311.29236 116.649832 
L 311.373342 113.661922 
L 311.417514 115.508383 
L 311.461685 117.11984 
L 311.520581 115.474811 
L 311.527943 115.441239 
L 311.542667 115.676243 
L 311.763525 129.138624 
L 311.999107 142.533862 
L 312.013831 142.50029 
L 312.028555 142.601006 
L 312.219966 148.106818 
L 312.330395 155.156943 
L 312.374567 157.6077 
L 312.440824 155.257659 
L 312.46291 155.324803 
L 312.492358 154.78765 
L 312.602787 140.989549 
L 312.80156 126.184286 
L 312.808922 126.352147 
L 312.860455 133.70442 
L 313.154933 190.642571 
L 313.184381 189.601838 
L 313.324258 176.743754 
L 313.846956 94.425152 
L 313.86168 94.593012 
L 313.964748 100.098824 
L 314.20033 118.731297 
L 314.23714 118.093429 
L 314.310759 115.609099 
L 314.325483 115.273379 
L 314.369655 117.220556 
L 314.413826 119.167734 
L 314.46536 116.582688 
L 314.480084 116.414828 
L 314.509532 118.093429 
L 314.840819 138.370931 
L 315.275174 153.041905 
L 315.319346 155.593379 
L 315.385604 153.377625 
L 315.415051 153.478341 
L 315.437137 152.974761 
L 315.547566 139.310948 
L 315.731615 124.337825 
L 315.753701 124.539257 
L 315.805235 131.085802 
L 316.107074 189.601838 
L 316.151246 187.654661 
L 316.327933 165.362838 
L 316.791736 95.096593 
L 316.828545 95.633745 
L 316.946337 105.33606 
L 317.145109 118.865585 
L 317.167195 119.033445 
L 317.204005 118.429149 
L 317.270262 115.508383 
L 317.314434 117.925569 
L 317.351244 119.43631 
L 317.410139 117.153412 
L 317.417501 117.11984 
L 317.432225 117.45556 
L 317.726703 137.766634 
L 317.881304 143.608167 
L 317.910752 143.071014 
L 317.918114 142.970298 
L 317.954923 143.943887 
L 318.146334 148.576826 
L 318.190506 150.322571 
L 318.264125 156.432679 
L 318.337745 153.981922 
L 318.359831 154.015494 
L 318.389278 153.310481 
L 318.536517 133.838708 
L 318.683756 124.069249 
L 318.705842 124.337825 
L 318.757376 131.55581 
L 319.059216 188.997542 
L 319.088663 187.822521 
L 319.250626 170.062921 
L 319.721791 94.895161 
L 319.758601 94.324436 
L 319.79541 95.700889 
L 320.104612 118.496293 
L 320.207679 115.474811 
L 320.215041 115.374095 
L 320.251851 116.314112 
L 320.310747 118.294861 
L 320.369642 116.716976 
L 320.391728 117.11984 
L 320.678844 137.061622 
L 320.921788 145.588916 
L 321.216266 157.708416 
L 321.275162 155.828383 
L 321.363505 152.538325 
L 321.628535 125.177126 
L 321.665345 126.08357 
L 321.738965 140.620256 
L 322.003995 188.863254 
L 322.033443 187.889665 
L 322.195405 170.600073 
L 322.673932 94.358008 
L 322.688656 94.123004 
L 322.725466 95.163737 
L 323.049391 118.261289 
L 323.152459 115.911247 
L 323.174545 115.441239 
L 323.218716 117.321272 
L 323.255526 118.764869 
L 323.314422 116.515544 
L 323.321784 116.4484 
L 323.343869 117.11984 
L 323.896015 145.286768 
L 323.947549 144.816759 
L 323.962273 145.118908 
L 324.168408 157.137692 
L 324.271475 155.358375 
L 324.323008 150.691863 
L 324.521781 125.848566 
L 324.595401 125.982854 
L 324.639572 129.944353 
L 324.956136 188.863254 
L 325.015032 185.338192 
L 325.184356 162.341356 
L 325.626073 95.063021 
L 325.640797 95.029449 
L 325.662883 95.365169 
L 325.76595 101.072413 
L 326.008895 117.891997 
L 326.038342 117.925569 
L 326.053066 117.589848 
L 326.119324 115.004803 
L 326.163495 117.354844 
L 326.200305 118.798441 
L 326.266563 116.851264 
L 326.310734 118.966301 
L 326.730365 143.071014 
L 326.767175 142.903154 
L 326.803985 144.145319 
L 327.120549 157.003404 
L 327.16472 155.761239 
L 327.260426 152.13546 
L 327.54018 126.049998 
L 327.562266 126.788583 
L 327.635885 141.090265 
L 327.900915 188.594678 
L 327.930363 187.419657 
L 328.099688 168.686468 
L 328.56349 95.768033 
L 328.6003 95.197309 
L 328.63711 96.37233 
L 329.145084 118.194145 
L 329.159808 118.294861 
L 329.189256 117.556276 
L 329.218704 116.750548 
L 329.262876 118.597009 
L 329.682507 142.50029 
L 329.69723 142.433146 
L 329.719316 142.298858 
L 329.741402 142.802438 
L 330.07269 156.969832 
L 330.131585 155.559807 
L 330.161033 155.526235 
L 330.212567 152.068316 
L 330.492321 126.553579 
L 330.514407 127.460023 
L 330.60275 145.689632 
L 330.845694 188.695394 
L 330.897228 186.211064 
L 331.051829 168.787184 
L 331.515632 95.465885 
L 331.537717 95.163737 
L 331.574527 96.439474 
L 331.891091 118.227717 
L 331.986796 116.28054 
L 332.023606 115.172663 
L 332.067778 117.589848 
L 332.104587 118.999873 
L 332.163483 116.817692 
L 332.178207 116.918408 
L 332.318084 126.049998 
L 332.627286 142.265286 
L 332.671457 141.795277 
L 332.83342 145.118908 
L 333.024831 156.432679 
L 333.076365 154.921938 
L 333.127898 154.45193 
L 333.230966 143.071014 
L 333.422376 126.419291 
L 333.459186 127.124303 
L 333.525443 138.975227 
L 333.797836 188.426818 
L 333.819921 187.956809 
L 333.974522 173.957276 
L 334.460411 95.969465 
L 334.467773 96.003037 
L 334.541392 97.580923 
L 334.622374 103.422455 
L 334.828508 117.824853 
L 334.857956 118.160573 
L 334.902128 117.388416 
L 334.961023 114.803371 
L 335.012557 117.388416 
L 335.049367 118.664153 
L 335.108262 116.78412 
L 335.122986 116.884836 
L 335.248139 125.24427 
L 335.572065 143.00387 
L 335.616237 142.50029 
L 335.645684 143.17173 
L 335.962248 156.264819 
L 336.057954 154.485502 
L 336.094763 152.773329 
L 336.389241 126.08357 
L 336.433413 129.675777 
L 336.749977 187.688233 
L 336.816234 183.256726 
L 336.970835 163.147084 
L 337.434638 96.943054 
L 337.449362 96.808766 
L 337.47881 97.480206 
L 337.589239 106.0075 
L 337.788011 118.127001 
L 337.802735 118.026285 
L 337.876355 115.575527 
L 337.913164 114.400506 
L 337.957336 116.414828 
L 338.001508 117.925569 
L 338.060403 115.877675 
L 338.067765 115.877675 
L 338.111937 118.429149 
L 338.524206 142.298858 
L 338.561016 141.929565 
L 338.590464 142.533862 
L 338.914389 157.809132 
L 338.965923 156.130531 
L 339.002733 156.197675 
L 339.039543 154.653362 
L 339.33402 126.822155 
L 339.385554 131.320806 
L 339.694756 187.788949 
L 339.74629 184.868183 
L 339.886167 169.660057 
L 340.379417 96.036609 
L 340.386779 96.003037 
L 340.408865 96.405902 
L 340.54138 106.242505 
L 340.732791 118.093429 
L 340.747514 118.026285 
L 340.835858 115.306951 
L 340.857944 114.669082 
L 340.902115 116.381256 
L 340.946287 118.026285 
L 340.997821 116.079107 
L 341.012545 115.776959 
L 341.049354 117.388416 
L 341.468985 141.392413 
L 341.491071 141.291697 
L 341.505795 141.190981 
L 341.535243 141.728133 
L 341.859169 157.574128 
L 341.90334 156.331963 
L 342.01377 151.598308 
L 342.264076 126.587151 
L 342.308247 127.7286 
L 342.403953 147.233945 
L 342.646897 188.091097 
L 342.691069 186.278208 
L 342.853032 166.873579 
L 343.272663 98.487367 
L 343.331558 97.345918 
L 343.383092 98.453795 
L 343.493521 107.451097 
L 343.684932 118.563437 
L 343.699656 118.462721 
L 343.765913 116.918408 
L 343.810085 115.206235 
L 343.861618 117.589848 
L 343.898428 118.529865 
L 343.9426 116.61626 
L 343.964686 116.079107 
L 344.008857 118.395577 
L 344.391679 139.579524 
L 344.7745 155.257659 
L 344.81131 157.137692 
L 344.884929 155.291231 
L 344.907015 155.358375 
L 344.921739 155.022654 
L 345.00272 145.857492 
L 345.230941 126.520007 
L 345.253027 127.090731 
L 345.311922 137.53163 
L 345.591676 188.661822 
L 345.621124 187.520373 
L 345.827259 161.737059 
L 346.291061 97.345918 
L 346.305785 97.480206 
L 346.408852 103.18745 
L 346.637073 118.563437 
L 346.644435 118.529865 
L 346.681245 118.026285 
L 346.754864 115.306951 
L 346.799036 117.254128 
L 346.843207 118.731297 
L 346.894741 116.750548 
L 346.909465 116.549116 
L 346.938913 117.690565 
L 347.365906 140.586684 
L 347.38063 140.51954 
L 347.402715 140.318108 
L 347.432163 140.955977 
L 347.756089 157.574128 
L 347.807623 155.962671 
L 347.903328 152.001172 
L 348.17572 125.982854 
L 348.197806 126.587151 
L 348.264063 138.572363 
L 348.536455 187.486801 
L 348.573265 185.841772 
L 348.749952 166.202138 
L 349.228479 97.312346 
L 349.235841 97.278774 
L 349.257926 97.580923 
L 349.390441 107.249665 
L 349.581852 118.496293 
L 349.633386 117.757709 
L 349.707005 115.407667 
L 349.751177 117.489132 
L 349.787987 118.865585 
L 349.846882 116.985552 
L 349.854244 116.884836 
L 349.883692 117.824853 
L 350.318047 140.989549 
L 350.332771 140.955977 
L 350.347495 140.855261 
L 350.376942 141.392413 
L 350.70823 157.842704 
L 350.818659 155.358375 
L 350.965898 136.591614 
L 351.113137 125.91571 
L 351.135223 126.184286 
L 351.186757 131.824386 
L 351.488597 186.781789 
L 351.547492 184.364603 
L 351.702093 165.664986 
L 352.158534 97.547351 
L 352.18062 97.278774 
L 352.224791 98.252363 
L 352.364668 109.566135 
L 352.533993 117.489132 
L 352.578165 116.918408 
L 352.659146 114.366934 
L 352.703318 116.515544 
L 352.740128 117.690565 
L 352.799023 115.810531 
L 352.806385 115.776959 
L 352.821109 116.079107 
L 353.653009 158.715577 
L 353.741353 156.869116 
L 353.763439 156.499823 
L 353.829696 149.550415 
L 354.080002 127.460023 
L 354.094726 127.695027 
L 354.14626 135.080873 
L 354.440738 187.486801 
L 354.462824 186.748216 
L 354.617425 172.412963 
L 355.095951 98.151647 
L 355.140123 97.681639 
L 355.176933 98.520939 
L 355.31681 109.935427 
L 355.486134 117.45556 
L 355.530306 116.716976 
L 355.603926 114.031214 
L 355.655459 116.28054 
L 355.692269 117.186984 
L 355.743803 115.407667 
L 355.758526 115.306951 
L 355.780612 116.146251 
L 356.222329 139.378092 
L 356.229691 139.310948 
L 356.251777 139.176659 
L 356.273863 139.613096 
L 356.60515 157.305552 
L 356.730304 154.552646 
L 357.024782 127.325735 
L 357.083677 133.200839 
L 357.385517 188.29253 
L 357.422327 186.748216 
L 357.606375 165.530698 
L 358.07754 98.755943 
L 358.084902 98.722371 
L 358.106988 99.058092 
L 358.261589 111.043304 
L 358.430914 118.429149 
L 358.460361 117.891997 
L 358.519257 115.743387 
L 358.556067 114.601938 
L 358.6076 116.851264 
L 358.629686 117.421988 
L 358.68122 115.810531 
L 358.703306 115.306951 
L 358.740115 116.918408 
L 359.152384 138.975227 
L 359.365881 144.514611 
L 359.54993 156.566968 
L 359.608825 155.391947 
L 359.660359 154.686934 
L 359.77815 141.358841 
L 359.954837 126.687867 
L 359.984285 127.124303 
L 360.04318 135.080873 
L 360.330296 186.681072 
L 360.359744 185.774628 
L 360.506983 172.983687 
L 361.022319 98.856659 
L 361.029681 98.890231 
L 361.073853 100.132396 
L 361.375693 119.738458 
L 361.493484 116.011963 
L 361.500846 115.944819 
L 361.522932 116.4484 
L 361.581827 118.731297 
L 361.633361 116.95198 
L 361.655447 116.549116 
L 361.692257 118.362005 
L 362.060354 138.303787 
L 362.27385 143.00387 
L 362.340108 146.831081 
L 362.502071 157.339124 
L 362.590414 155.425519 
L 362.627224 154.11621 
L 362.848082 127.258591 
L 362.980597 132.730831 
L 363.282437 186.345352 
L 363.326609 184.331031 
L 363.510658 162.207067 
L 363.97446 97.715211 
L 363.989184 97.748783 
L 364.077528 101.139557 
L 364.327834 118.429149 
L 364.416177 116.146251 
L 364.452987 115.038375 
L 364.504521 117.388416 
L 364.533968 118.127001 
L 364.57814 116.515544 
L 364.600226 115.911247 
L 364.644398 118.160573 
L 365.019857 138.807367 
L 365.203906 142.936726 
L 365.211268 142.903154 
L 365.248077 144.212463 
L 365.44685 157.876276 
L 365.52047 156.264819 
L 365.542555 156.432679 
L 365.564641 155.761239 
L 365.719242 136.558042 
L 365.873843 128.030748 
L 365.881205 128.131464 
L 365.932739 134.54372 
L 366.227217 187.050365 
L 366.264026 185.707484 
L 366.440713 166.772863 
L 366.904516 97.983787 
L 366.933964 97.782355 
L 366.970773 98.588083 
L 367.103288 109.633279 
L 367.279975 117.824853 
L 367.324147 117.2877 
L 367.397766 114.501222 
L 367.4493 116.750548 
L 367.48611 117.62342 
L 367.530281 115.944819 
L 367.552367 115.575527 
L 367.589177 117.421988 
L 367.994084 139.008799 
L 368.185495 142.83601 
L 368.398991 156.801972 
L 368.502058 155.358375 
L 368.58304 147.536093 
L 368.803898 128.06432 
L 368.840708 128.90362 
L 368.914328 142.198142 
L 369.179358 187.218225 
L 369.208805 186.177492 
L 369.370768 170.767933 
L 369.849295 98.621655 
L 369.878743 98.185219 
L 369.915552 99.091664 
L 370.033344 108.256826 
L 370.217392 118.093429 
L 370.224754 118.127001 
L 370.254202 117.757709 
L 370.298374 116.414828 
L 370.342545 114.669082 
L 370.394079 116.683404 
L 370.430889 117.62342 
L 370.482422 115.810531 
L 370.497146 115.642671 
L 370.526594 116.750548 
L 370.968311 139.277376 
L 370.983035 139.143087 
L 370.997759 139.042371 
L 371.019845 139.411664 
L 371.351132 156.634112 
L 371.439476 154.989082 
L 371.468924 154.049066 
L 371.608801 137.36377 
L 371.763401 128.467184 
L 371.770763 128.500756 
L 371.807573 131.018658 
L 372.124137 186.613928 
L 372.241928 179.765236 
L 372.330271 167.914311 
L 372.801436 98.621655 
L 372.823522 98.319507 
L 372.867694 99.326668 
L 373.176895 118.462721 
L 373.294687 115.206235 
L 373.34622 117.2877 
L 373.375668 118.160573 
L 373.427202 116.381256 
L 373.449288 116.045535 
L 373.486097 117.925569 
L 373.891004 139.51238 
L 373.942538 139.143087 
L 373.994072 141.291697 
L 374.295912 156.533396 
L 374.413703 154.384786 
L 374.590389 132.260823 
L 374.715543 128.265752 
L 374.722905 128.332896 
L 374.767076 132.663687 
L 375.076278 185.841772 
L 375.127812 183.256726 
L 375.289775 165.127833 
L 375.760939 98.621655 
L 375.783025 98.520939 
L 375.805111 99.091664 
L 375.908178 105.50392 
L 376.114313 118.597009 
L 376.121675 118.630581 
L 376.158484 118.328433 
L 376.246828 115.374095 
L 376.298361 117.724137 
L 376.327809 118.328433 
L 376.371981 116.817692 
L 376.394067 116.347684 
L 376.438238 118.294861 
L 376.857869 139.579524 
L 376.894679 139.646668 
L 377.04928 144.246035 
L 377.248053 156.331963 
L 377.306948 155.190515 
L 377.35112 154.653362 
L 377.439463 145.689632 
L 377.65296 128.5679 
L 377.68977 129.675777 
L 377.807561 152.404037 
L 378.021057 186.009632 
L 378.079953 183.391014 
L 378.234554 165.89999 
L 378.690995 98.755943 
L 378.727804 98.218791 
L 378.771976 99.494528 
L 378.882405 108.458258 
L 379.073816 118.026285 
L 379.140073 116.481972 
L 379.191607 114.601938 
L 379.243141 116.649832 
L 379.27995 117.656993 
L 379.331484 115.877675 
L 379.346208 115.776959 
L 379.368294 116.582688 
L 379.810011 139.613096 
L 379.832096 139.445236 
L 379.84682 139.34452 
L 379.876268 140.217392 
L 380.200194 156.634112 
L 380.281175 155.056226 
L 380.288537 155.056226 
L 380.332709 152.706185 
L 380.546205 129.004336 
L 380.634549 129.843637 
L 380.708168 142.802438 
L 380.973198 186.513212 
L 381.002646 185.64034 
L 381.157247 171.439374 
L 381.65786 98.588083 
L 381.672583 98.487367 
L 381.702031 99.158808 
L 381.805099 105.50392 
L 382.011233 117.791281 
L 382.018595 117.824853 
L 382.040681 117.522704 
L 382.106938 115.239807 
L 382.136386 114.199074 
L 382.18792 116.314112 
L 382.22473 117.388416 
L 382.283625 115.642671 
L 382.305711 116.079107 
L 382.747428 139.143087 
L 382.798962 138.840939 
L 383.078716 151.29616 
L 383.137611 155.895527 
L 383.211231 154.45193 
L 383.233316 154.519074 
L 383.24804 154.216926 
L 383.32166 146.864653 
L 383.483623 128.702188 
L 383.579328 129.407201 
L 383.645586 140.385252 
L 383.917978 185.774628 
L 383.947425 184.868183 
L 384.102026 171.070082 
L 384.580553 99.897392 
L 384.617363 99.36024 
L 384.661534 100.568833 
L 384.801411 111.882604 
L 384.963374 118.966301 
L 385.000184 118.429149 
L 385.088527 115.306951 
L 385.140061 117.522704 
L 385.176871 118.395577 
L 385.228404 116.95198 
L 385.235766 116.884836 
L 385.257852 117.388416 
L 385.824722 141.627417 
L 385.846808 141.560273 
L 385.883618 142.634578 
L 386.089752 155.257659 
L 386.178096 153.981922 
L 386.222267 151.900456 
L 386.502021 128.366468 
L 386.538831 129.709349 
L 386.68607 158.648433 
L 386.870119 185.237475 
L 386.906929 183.726734 
L 387.083615 164.758541 
L 387.547418 99.259524 
L 387.569504 99.091664 
L 387.598952 99.763104 
L 387.716743 108.021822 
L 387.908153 118.261289 
L 387.922877 118.160573 
L 388.040668 114.601938 
L 388.092202 116.918408 
L 388.129012 117.992713 
L 388.187907 116.246968 
L 388.209993 116.851264 
L 388.666434 139.814528 
L 388.673796 139.747384 
L 388.681158 139.68024 
L 388.710606 140.116676 
L 389.041893 156.231247 
L 389.137599 154.586218 
L 389.189132 151.061156 
L 389.387905 129.138624 
L 389.476248 129.642205 
L 389.542506 140.049532 
L 389.814898 185.405336 
L 389.844346 184.599607 
L 389.991585 172.412963 
L 390.514283 99.058092 
L 390.543731 99.561672 
L 390.860295 117.62342 
L 390.970724 114.13193 
L 390.985448 113.863354 
L 391.022257 115.374095 
L 391.073791 117.45556 
L 391.132687 115.541955 
L 391.162134 116.683404 
L 391.581765 139.378092 
L 391.633299 139.075943 
L 391.699557 141.425985 
L 391.964587 155.123371 
L 391.986673 155.794811 
L 392.05293 154.082638 
L 392.067654 154.149782 
L 392.082378 154.250498 
L 392.104464 153.646201 
L 392.229617 140.049532 
L 392.406304 128.970764 
L 392.421028 129.205769 
L 392.472561 135.550881 
L 392.767039 185.405336 
L 392.803849 183.995311 
L 392.980536 165.060689 
L 393.444338 100.165968 
L 393.466424 99.964536 
L 393.503234 100.837409 
L 393.812436 118.462721 
L 393.915503 114.836943 
L 393.930227 114.669082 
L 393.959675 115.642671 
L 394.01857 117.858425 
L 394.077466 116.347684 
L 394.099552 116.817692 
L 394.651698 141.224553 
L 394.754765 143.977459 
L 394.931452 154.754078 
L 395.019795 153.511913 
L 395.034519 153.444769 
L 395.093415 148.946118 
L 395.351083 128.870048 
L 395.373169 129.373629 
L 395.432064 138.572363 
L 395.711818 184.700323 
L 395.733904 184.129599 
L 395.903229 168.854328 
L 396.389118 99.796676 
L 396.418565 99.494528 
L 396.448013 100.3674 
L 396.565804 108.693262 
L 396.749853 118.529865 
L 396.757215 118.563437 
L 396.779301 118.227717 
L 396.882368 115.239807 
L 396.92654 116.95198 
L 396.970711 118.630581 
L 397.036969 117.186984 
L 397.095865 120.980623 
L 397.486048 140.217392 
L 397.530219 140.01596 
L 397.670096 142.768866 
L 397.883593 155.089799 
L 398.008746 152.404037 
L 398.178071 132.294395 
L 398.295862 128.635044 
L 398.310586 128.769332 
L 398.354758 132.764403 
L 398.487273 159.655594 
L 398.487273 159.655594 
" clip-path="url(#pf9e18075ab)" style="fill: none; stroke: #1f77b4; stroke-width: 1.5; stroke-linecap: square"/>
   </g>
   <g id="patch_3">
    <path d="M 57.6 307.584 
L 57.6 41.472 
" style="fill: none; stroke: #000000; stroke-width: 0.8; stroke-linejoin: miter; stroke-linecap: square"/>
   </g>
   <g id="patch_4">
    <path d="M 414.72 307.584 
L 414.72 41.472 
" style="fill: none; stroke: #000000; stroke-width: 0.8; stroke-linejoin: miter; stroke-linecap: square"/>
   </g>
   <g id="patch_5">
    <path d="M 57.6 307.584 
L 414.72 307.584 
" style="fill: none; stroke: #000000; stroke-width: 0.8; stroke-linejoin: miter; stroke-linecap: square"/>
   </g>
   <g id="patch_6">
    <path d="M 57.6 41.472 
L 414.72 41.472 
" style="fill: none; stroke: #000000; stroke-width: 0.8; stroke-linejoin: miter; stroke-linecap: square"/>
   </g>
   <g id="text_17">
    <text style="font: 12px 'IPAexGothic'; text-anchor: middle" x="236.16" y="35.472" transform="rotate(-0 236.16 35.472)">"034_A2.wav"の波形グラフ</text>
   </g>
  </g>
 </g>
 <defs>
  <clipPath id="pf9e18075ab">
   <rect x="57.6" y="41.472" width="357.12" height="266.112"/>
  </clipPath>
 </defs>
</svg>
