<?xml version="1.0" encoding="utf-8" standalone="no"?>
<!DOCTYPE svg PUBLIC "-//W3C//DTD SVG 1.1//EN"
  "http://www.w3.org/Graphics/SVG/1.1/DTD/svg11.dtd">
<svg xmlns:xlink="http://www.w3.org/1999/xlink" width="460.8pt" height="345.6pt" viewBox="0 0 460.8 345.6" xmlns="http://www.w3.org/2000/svg" version="1.1">
 <metadata>
  <rdf:RDF xmlns:dc="http://purl.org/dc/elements/1.1/" xmlns:cc="http://creativecommons.org/ns#" xmlns:rdf="http://www.w3.org/1999/02/22-rdf-syntax-ns#">
   <cc:Work>
    <dc:type rdf:resource="http://purl.org/dc/dcmitype/StillImage"/>
    <dc:date>2022-11-28T11:33:47.344636</dc:date>
    <dc:format>image/svg+xml</dc:format>
    <dc:creator>
     <cc:Agent>
      <dc:title>Matplotlib v3.6.2, https://matplotlib.org/</dc:title>
     </cc:Agent>
    </dc:creator>
   </cc:Work>
  </rdf:RDF>
 </metadata>
 <defs>
  <style type="text/css">*{stroke-linejoin: round; stroke-linecap: butt}</style>
 </defs>
 <g id="figure_1">
  <g id="patch_1">
   <path d="M 0 345.6 
L 460.8 345.6 
L 460.8 0 
L 0 0 
z
" style="fill: #ffffff"/>
  </g>
  <g id="axes_1">
   <g id="patch_2">
    <path d="M 57.6 307.584 
L 414.72 307.584 
L 414.72 41.472 
L 57.6 41.472 
z
" style="fill: #ffffff"/>
   </g>
   <g id="matplotlib.axis_1">
    <g id="xtick_1">
     <g id="line2d_1">
      <defs>
       <path id="m24a5de49dd" d="M 0 0 
L 0 3.5 
" style="stroke: #000000; stroke-width: 0.8"/>
      </defs>
      <g>
       <use xlink:href="#m24a5de49dd" x="73.832727" y="307.584" style="stroke: #000000; stroke-width: 0.8"/>
      </g>
     </g>
     <g id="text_1">
      <text style="font: 10px 'IPAexGothic'; text-anchor: middle" x="73.832727" y="322.074625" transform="rotate(-0 73.832727 322.074625)">0.0</text>
     </g>
    </g>
    <g id="xtick_2">
     <g id="line2d_2">
      <g>
       <use xlink:href="#m24a5de49dd" x="138.765109" y="307.584" style="stroke: #000000; stroke-width: 0.8"/>
      </g>
     </g>
     <g id="text_2">
      <text style="font: 10px 'IPAexGothic'; text-anchor: middle" x="138.765109" y="322.074625" transform="rotate(-0 138.765109 322.074625)">0.2</text>
     </g>
    </g>
    <g id="xtick_3">
     <g id="line2d_3">
      <g>
       <use xlink:href="#m24a5de49dd" x="203.69749" y="307.584" style="stroke: #000000; stroke-width: 0.8"/>
      </g>
     </g>
     <g id="text_3">
      <text style="font: 10px 'IPAexGothic'; text-anchor: middle" x="203.69749" y="322.074625" transform="rotate(-0 203.69749 322.074625)">0.4</text>
     </g>
    </g>
    <g id="xtick_4">
     <g id="line2d_4">
      <g>
       <use xlink:href="#m24a5de49dd" x="268.629872" y="307.584" style="stroke: #000000; stroke-width: 0.8"/>
      </g>
     </g>
     <g id="text_4">
      <text style="font: 10px 'IPAexGothic'; text-anchor: middle" x="268.629872" y="322.074625" transform="rotate(-0 268.629872 322.074625)">0.6</text>
     </g>
    </g>
    <g id="xtick_5">
     <g id="line2d_5">
      <g>
       <use xlink:href="#m24a5de49dd" x="333.562253" y="307.584" style="stroke: #000000; stroke-width: 0.8"/>
      </g>
     </g>
     <g id="text_5">
      <text style="font: 10px 'IPAexGothic'; text-anchor: middle" x="333.562253" y="322.074625" transform="rotate(-0 333.562253 322.074625)">0.8</text>
     </g>
    </g>
    <g id="xtick_6">
     <g id="line2d_6">
      <g>
       <use xlink:href="#m24a5de49dd" x="398.494635" y="307.584" style="stroke: #000000; stroke-width: 0.8"/>
      </g>
     </g>
     <g id="text_6">
      <text style="font: 10px 'IPAexGothic'; text-anchor: middle" x="398.494635" y="322.074625" transform="rotate(-0 398.494635 322.074625)">1.0</text>
     </g>
    </g>
    <g id="text_7">
     <text style="font: 10px 'IPAexGothic'; text-anchor: middle" x="236.16" y="335.924625" transform="rotate(-0 236.16 335.924625)">時間[s]</text>
    </g>
   </g>
   <g id="matplotlib.axis_2">
    <g id="ytick_1">
     <g id="line2d_7">
      <defs>
       <path id="m58300eb3b8" d="M 0 0 
L -3.5 0 
" style="stroke: #000000; stroke-width: 0.8"/>
      </defs>
      <g>
       <use xlink:href="#m58300eb3b8" x="57.6" y="306.316217" style="stroke: #000000; stroke-width: 0.8"/>
      </g>
     </g>
     <g id="text_8">
      <text style="font: 10px 'IPAexGothic'; text-anchor: end" x="50.6" y="310.061529" transform="rotate(-0 50.6 310.061529)">−6000</text>
     </g>
    </g>
    <g id="ytick_2">
     <g id="line2d_8">
      <g>
       <use xlink:href="#m58300eb3b8" x="57.6" y="257.319761" style="stroke: #000000; stroke-width: 0.8"/>
      </g>
     </g>
     <g id="text_9">
      <text style="font: 10px 'IPAexGothic'; text-anchor: end" x="50.6" y="261.065074" transform="rotate(-0 50.6 261.065074)">−4000</text>
     </g>
    </g>
    <g id="ytick_3">
     <g id="line2d_9">
      <g>
       <use xlink:href="#m58300eb3b8" x="57.6" y="208.323305" style="stroke: #000000; stroke-width: 0.8"/>
      </g>
     </g>
     <g id="text_10">
      <text style="font: 10px 'IPAexGothic'; text-anchor: end" x="50.6" y="212.068618" transform="rotate(-0 50.6 212.068618)">−2000</text>
     </g>
    </g>
    <g id="ytick_4">
     <g id="line2d_10">
      <g>
       <use xlink:href="#m58300eb3b8" x="57.6" y="159.32685" style="stroke: #000000; stroke-width: 0.8"/>
      </g>
     </g>
     <g id="text_11">
      <text style="font: 10px 'IPAexGothic'; text-anchor: end" x="50.6" y="163.072162" transform="rotate(-0 50.6 163.072162)">0</text>
     </g>
    </g>
    <g id="ytick_5">
     <g id="line2d_11">
      <g>
       <use xlink:href="#m58300eb3b8" x="57.6" y="110.330394" style="stroke: #000000; stroke-width: 0.8"/>
      </g>
     </g>
     <g id="text_12">
      <text style="font: 10px 'IPAexGothic'; text-anchor: end" x="50.6" y="114.075706" transform="rotate(-0 50.6 114.075706)">2000</text>
     </g>
    </g>
    <g id="ytick_6">
     <g id="line2d_12">
      <g>
       <use xlink:href="#m58300eb3b8" x="57.6" y="61.333938" style="stroke: #000000; stroke-width: 0.8"/>
      </g>
     </g>
     <g id="text_13">
      <text style="font: 10px 'IPAexGothic'; text-anchor: end" x="50.6" y="65.079251" transform="rotate(-0 50.6 65.079251)">4000</text>
     </g>
    </g>
    <g id="text_14">
     <text style="font: 10px 'IPAexGothic'; text-anchor: middle" x="12.723438" y="174.528" transform="rotate(-90 12.723438 174.528)">振幅</text>
    </g>
   </g>
   <g id="line2d_13">
    <path d="M 73.832727 159.351348 
L 73.854813 150.238007 
L 73.884261 179.3664 
L 73.95788 219.665985 
L 73.935795 68.389428 
L 73.979966 157.195504 
L 74.0315 78.31121 
L 74.060948 250.999218 
L 74.075672 229.391781 
L 74.083034 234.24243 
L 74.112481 200.018406 
L 74.127205 53.568 
L 74.222911 193.011913 
L 74.244996 56.238307 
L 74.267082 295.488 
L 74.370149 128.042613 
L 74.377511 123.167465 
L 74.392235 161.286708 
L 74.414321 247.52047 
L 74.487941 140.708196 
L 74.495303 153.006307 
L 74.546836 82.818884 
L 74.576284 166.700816 
L 74.620456 265.453173 
L 74.657265 145.583344 
L 74.679351 164.887947 
L 74.701437 61.554422 
L 74.767695 201.292314 
L 74.789781 241.175429 
L 74.82659 180.934287 
L 74.870762 82.622898 
L 74.841314 186.642374 
L 74.944381 165.108431 
L 74.995915 234.193434 
L 75.040087 147.935174 
L 75.076896 55.062392 
L 75.121068 187.79379 
L 75.150516 253.59603 
L 75.209412 122.750995 
L 75.216773 122.089543 
L 75.224135 101.241551 
L 75.297755 174.66274 
L 75.312479 143.403002 
L 75.356651 243.404768 
L 75.400822 131.300877 
L 75.415546 133.579212 
L 75.43027 70.447279 
L 75.46708 172.188419 
L 75.496528 152.295858 
L 75.511251 259.941071 
L 75.592233 116.822424 
L 75.599595 119.933699 
L 75.651128 96.219415 
L 75.636405 167.411265 
L 75.65849 141.516638 
L 75.73211 230.837177 
L 75.76892 139.091313 
L 75.783643 142.864041 
L 75.805729 81.985944 
L 75.813091 69.05088 
L 75.842539 167.264275 
L 75.879349 234.683398 
L 75.930882 113.000701 
L 75.945606 140.757193 
L 75.952968 140.683698 
L 75.96033 121.232105 
L 76.041312 181.71823 
L 76.048674 174.932221 
L 76.173827 67.94846 
L 76.092845 232.233576 
L 76.195913 131.66835 
L 76.254808 232.748038 
L 76.291618 105.381752 
L 76.306342 156.999518 
L 76.33579 100.139131 
L 76.409409 167.411265 
L 76.424133 184.609021 
L 76.475667 214.006894 
L 76.497752 135.906544 
L 76.505114 142.790546 
L 76.534562 91.956723 
L 76.593458 211.630566 
L 76.622906 230.37171 
L 76.644991 195.878206 
L 76.674439 92.446688 
L 76.755421 158.444913 
L 76.821678 221.674839 
L 76.770145 146.220298 
L 76.851126 181.938714 
L 76.895298 83.357845 
L 76.946831 189.435172 
L 76.954193 228.828322 
L 77.042537 116.111976 
L 77.049899 105.847218 
L 77.108794 166.970297 
L 77.197138 207.343376 
L 77.145604 154.20672 
L 77.219223 170.816518 
L 77.248671 116.675435 
L 77.263395 78.972662 
L 77.322291 210.846623 
L 77.329653 183.359611 
L 77.344376 234.266929 
L 77.403272 101.854007 
L 77.417996 111.702295 
L 77.425358 111.555305 
L 77.565235 216.652703 
L 77.587321 168.513685 
L 77.638854 86.224138 
L 77.675664 145.901821 
L 77.690388 241.591899 
L 77.778731 86.689604 
L 77.786093 87.522544 
L 77.852351 201.022833 
L 77.911246 170.914511 
L 77.940694 188.822716 
L 77.955418 157.881454 
L 77.970142 165.328915 
L 77.992228 82.328919 
L 78.065847 225.839538 
L 78.073209 235.050872 
L 78.117381 166.872304 
L 78.154191 97.66481 
L 78.213086 174.564747 
L 78.235172 202.688713 
L 78.26462 155.505126 
L 78.316154 191.076553 
L 78.367687 82.5984 
L 78.419221 209.49922 
L 78.433945 230.469703 
L 78.500202 138.625847 
L 78.522288 83.823311 
L 78.573822 181.620237 
L 78.588546 171.894441 
L 78.60327 197.568583 
L 78.647441 155.529624 
L 78.698975 178.827439 
L 78.721061 95.876439 
L 78.79468 212.757485 
L 78.809404 231.694615 
L 78.853576 141.90861 
L 78.8683 89.727384 
L 78.949281 198.230035 
L 78.956643 195.755714 
L 78.964005 195.657722 
L 79.103882 82.279923 
L 79.111244 97.591315 
L 79.162778 231.400636 
L 79.229035 133.824194 
L 79.243759 88.159498 
L 79.317379 196.931629 
L 79.339464 212.757485 
L 79.354188 176.549104 
L 79.479341 91.613748 
L 79.376274 176.647097 
L 79.486703 113.025199 
L 79.523513 206.828913 
L 79.538237 240.391486 
L 79.597133 99.428683 
L 79.604495 113.56416 
L 79.62658 89.188423 
L 79.641304 129.071538 
L 79.692838 209.523718 
L 79.759095 164.642965 
L 79.766457 177.235054 
L 79.832715 108.003062 
L 79.840077 99.673665 
L 79.869525 150.360498 
L 79.921058 231.229148 
L 79.96523 116.111976 
L 79.972592 88.502473 
L 80.038849 197.764569 
L 80.053573 193.060909 
L 80.149279 147.126732 
L 80.068297 201.586293 
L 80.156641 151.095445 
L 80.222898 111.359319 
L 80.237622 176.769588 
L 80.252346 175.887652 
L 80.26707 234.903883 
L 80.348051 97.909792 
L 80.355413 86.910088 
L 80.384861 167.386767 
L 80.406947 165.745385 
L 80.451119 203.791133 
L 80.480566 141.590133 
L 80.510014 154.868172 
L 80.649891 239.019585 
L 80.554186 115.401527 
L 80.657253 216.236233 
L 80.701425 102.196982 
L 80.775044 183.776081 
L 80.782406 183.65359 
L 80.79713 198.450519 
L 80.856026 153.765752 
L 80.937007 109.742436 
L 80.87075 161.213213 
L 80.951731 127.79763 
L 81.02535 225.300577 
L 81.054798 118.488304 
L 81.06216 119.909201 
L 81.076884 114.887064 
L 81.091608 98.154775 
L 81.143142 197.544085 
L 81.150504 192.105478 
L 81.268295 132.158315 
L 81.319828 112.682224 
L 81.341914 180.738301 
L 81.371362 215.329798 
L 81.415534 162.070651 
L 81.43762 87.326558 
L 81.518601 191.052055 
L 81.525963 193.697863 
L 81.548049 169.175137 
L 81.570135 174.344263 
L 81.658478 106.116699 
L 81.695288 139.801762 
L 81.724736 228.387354 
L 81.798355 132.109318 
L 81.813079 93.451115 
L 81.871975 192.791429 
L 81.886698 164.961442 
L 81.901422 197.519587 
L 81.975042 146.46528 
L 81.989766 162.315633 
L 82.041299 126.327737 
L 82.070747 183.506601 
L 82.078109 177.161559 
L 82.100195 210.479149 
L 82.144367 146.587771 
L 82.1959 110.967348 
L 82.240072 185.931925 
L 82.247434 188.700225 
L 82.26952 167.533756 
L 82.298967 169.395621 
L 82.387311 124.171893 
L 82.335777 177.235054 
L 82.424121 143.868468 
L 82.453568 216.922183 
L 82.519826 139.287299 
L 82.541912 93.451115 
L 82.57136 157.587475 
L 82.586083 148.40064 
L 82.608169 193.011913 
L 82.689151 165.059435 
L 82.770132 121.967052 
L 82.792218 181.277262 
L 82.887923 121.134112 
L 82.83639 204.207603 
L 82.939457 156.607546 
L 83.013076 182.1347 
L 83.042524 155.995091 
L 83.049886 163.295563 
L 83.057248 164.814453 
L 83.079334 151.781395 
L 83.108782 133.432223 
L 83.167677 167.631749 
L 83.197125 199.82242 
L 83.263383 123.706426 
L 83.270745 122.13854 
L 83.278107 139.066815 
L 83.32964 186.936352 
L 83.417984 157.538479 
L 83.476879 134.387654 
L 83.491603 140.193734 
L 83.498965 126.082754 
L 83.557861 196.392668 
L 83.579946 170.596034 
L 83.587308 176.867581 
L 83.616756 125.568292 
L 83.675652 166.578325 
L 83.683014 157.538479 
L 83.719823 178.94993 
L 83.778719 172.090426 
L 83.808167 151.364926 
L 83.830253 134.069177 
L 83.889148 163.001584 
L 83.93332 189.263684 
L 83.962768 150.262505 
L 83.97013 153.006307 
L 83.977492 152.197865 
L 83.992216 123.265458 
L 84.058473 172.237416 
L 84.080559 166.529329 
L 84.132093 172.237416 
L 84.227798 134.363155 
L 84.286693 193.452881 
L 84.338227 143.182517 
L 84.345589 135.612565 
L 84.411847 172.139423 
L 84.42657 165.916873 
L 84.478104 173.168348 
L 84.46338 154.574193 
L 84.529638 166.308845 
L 84.581171 122.995978 
L 84.625343 171.673956 
L 84.640067 189.45967 
L 84.706324 142.055599 
L 84.713686 143.378503 
L 84.72841 139.507783 
L 84.787306 159.571832 
L 84.875649 173.413331 
L 84.831478 153.324784 
L 84.897735 161.727676 
L 84.927183 138.968822 
L 84.986079 160.772245 
L 85.008164 182.55117 
L 85.074422 146.930746 
L 85.081784 149.111089 
L 85.096508 141.149165 
L 85.125956 166.602823 
L 85.155403 161.654181 
L 85.236385 172.261914 
L 85.192213 157.366991 
L 85.258471 166.284346 
L 85.302642 137.62142 
L 85.354176 175.177203 
L 85.376262 179.170414 
L 85.413071 154.966165 
L 85.442519 143.500994 
L 85.471967 158.469412 
L 85.486691 154.868172 
L 85.604482 170.302056 
L 85.619206 168.415692 
L 85.67074 142.031101 
L 85.722273 170.767522 
L 85.736997 186.299398 
L 85.810617 145.21587 
L 85.832703 150.703473 
L 85.957856 167.974724 
L 85.97258 164.250993 
L 86.002027 166.161855 
L 86.009389 161.923662 
L 86.031475 136.10253 
L 86.097733 173.927793 
L 86.105095 173.070355 
L 86.119819 180.958785 
L 86.171352 148.498633 
L 86.178714 144.995386 
L 86.23761 162.854594 
L 86.259696 158.665397 
L 86.325953 168.685173 
L 86.362763 156.82803 
L 86.414296 139.360794 
L 86.451106 160.992729 
L 86.473192 176.769588 
L 86.532088 145.656838 
L 86.53945 142.349578 
L 86.605707 160.84574 
L 86.627793 166.627322 
L 86.635155 160.086295 
L 86.708774 168.930155 
L 86.752946 148.474135 
L 86.76767 144.652411 
L 86.819204 160.0128 
L 86.848651 177.798513 
L 86.914909 143.158019 
L 86.922271 142.521065 
L 86.929633 146.318291 
L 87.047424 167.019293 
L 87.054786 166.774311 
L 87.143129 144.701408 
L 87.076872 170.743024 
L 87.172577 159.130864 
L 87.179939 157.39149 
L 87.216749 174.24627 
L 87.253559 159.645327 
L 87.305092 142.864041 
L 87.349264 168.783166 
L 87.356626 172.604889 
L 87.386074 154.843674 
L 87.444969 163.687534 
L 87.496503 147.126732 
L 87.459693 164.520474 
L 87.548036 161.507192 
L 87.577484 173.462327 
L 87.63638 155.946094 
L 87.651104 140.561207 
L 87.739447 168.244205 
L 87.871962 147.616697 
L 87.820428 168.832162 
L 87.886686 151.046449 
L 87.960306 170.52254 
L 88.004477 156.093084 
L 88.026563 146.661266 
L 88.070735 158.199931 
L 88.085459 167.239777 
L 88.144354 148.547629 
L 88.181164 158.934878 
L 88.225336 150.189011 
L 88.313679 175.005715 
L 88.387298 152.27136 
L 88.39466 144.309436 
L 88.446194 164.544972 
L 88.483004 161.874665 
L 88.490366 164.275492 
L 88.534537 157.954949 
L 88.586071 160.0128 
L 88.608157 149.135587 
L 88.674414 166.9213 
L 88.681776 166.284346 
L 88.6965 171.575964 
L 88.73331 157.366991 
L 88.762758 149.062092 
L 88.829015 166.700816 
L 88.895273 152.614335 
L 88.96153 154.108727 
L 89.057236 171.722953 
L 88.990978 148.988597 
L 89.086684 165.059435 
L 89.130855 147.543202 
L 89.204475 159.277853 
L 89.256008 164.838951 
L 89.278094 155.799105 
L 89.307542 159.571832 
L 89.344352 146.88175 
L 89.403247 162.928089 
L 89.425333 169.861088 
L 89.484229 149.993025 
L 89.491591 152.246862 
L 89.506315 151.193438 
L 89.5284 155.676614 
L 89.579934 167.533756 
L 89.624106 155.480628 
L 89.646192 163.614039 
L 89.653554 164.055008 
L 89.660916 161.384701 
L 89.668277 162.046153 
L 89.734535 150.336 
L 89.763983 163.785527 
L 89.778707 173.56032 
L 89.852326 149.91953 
L 89.859688 151.364926 
L 89.86705 150.899459 
L 89.889136 156.313568 
L 89.896498 155.03966 
L 89.933308 164.29999 
L 90.021651 159.106366 
L 90.043737 163.246566 
L 90.065823 150.580982 
L 90.073185 145.901821 
L 90.139442 164.006011 
L 90.146804 162.658609 
L 90.161528 170.669529 
L 90.235147 151.830392 
L 90.316129 167.166283 
L 90.39711 158.297924 
L 90.463368 150.017523 
L 90.485454 160.502765 
L 90.492816 160.061796 
L 90.522263 169.665102 
L 90.566435 158.983874 
L 90.610607 150.409495 
L 90.654778 162.193142 
L 90.669502 162.144146 
L 90.676864 162.487121 
L 90.684226 159.057369 
L 90.706312 165.916873 
L 90.809379 153.055303 
L 90.905085 167.313272 
L 90.949256 160.919234 
L 90.96398 149.258078 
L 91.022876 164.495976 
L 91.052324 162.560616 
L 91.059686 165.941371 
L 91.118581 155.480628 
L 91.155391 159.865811 
L 91.199563 152.834819 
L 91.251096 165.377912 
L 91.26582 168.758667 
L 91.295268 160.331277 
L 91.324716 151.536413 
L 91.398335 161.237711 
L 91.413059 164.618467 
L 91.494041 156.436059 
L 91.501403 158.101938 
L 91.56766 152.467346 
L 91.523488 159.571832 
L 91.582384 158.861383 
L 91.633918 167.117286 
L 91.670727 157.220002 
L 91.707537 149.50306 
L 91.744347 163.663036 
L 91.766433 160.184288 
L 91.79588 164.275492 
L 91.83269 154.598692 
L 91.8695 158.395917 
L 91.898948 151.879388 
L 91.957843 163.026082 
L 91.972567 166.480332 
L 92.046187 155.505126 
L 92.060911 149.184583 
L 92.127168 163.491548 
L 92.13453 166.896802 
L 92.186064 156.460557 
L 92.222873 156.583048 
L 92.355388 169.542611 
L 92.267045 154.451702 
L 92.384836 160.061796 
L 92.421646 151.609908 
L 92.47318 162.536117 
L 92.524713 165.230923 
L 92.502627 156.55855 
L 92.561523 159.375846 
L 92.613057 152.124371 
L 92.583609 161.580687 
L 92.679314 156.779034 
L 92.73821 166.382339 
L 92.782381 154.745681 
L 92.870725 165.524901 
L 92.811829 151.683403 
L 92.936982 159.057369 
L 93.032688 153.128798 
L 92.973792 160.796743 
L 93.047412 157.024016 
L 93.091583 167.631749 
L 93.150479 154.010734 
L 93.157841 151.389424 
L 93.23146 161.090722 
L 93.260908 163.712032 
L 93.312442 156.754536 
L 93.334528 160.061796 
L 93.349251 152.516342 
L 93.415509 162.193142 
L 93.437595 161.972658 
L 93.481767 165.40241 
L 93.511214 152.761325 
L 93.525938 155.407133 
L 93.540662 154.843674 
L 93.555386 148.988597 
L 93.599558 165.843378 
L 93.629005 163.957015 
L 93.746797 153.839247 
L 93.776244 156.583048 
L 93.827778 167.33777 
L 93.879312 155.823603 
L 93.90876 152.075374 
L 93.952931 160.747747 
L 93.989741 166.112859 
L 94.019189 155.995091 
L 94.10017 160.355775 
L 94.129618 153.128798 
L 94.17379 166.088361 
L 94.232685 155.799105 
L 94.240047 150.678975 
L 94.328391 162.732103 
L 94.350476 165.598396 
L 94.387286 159.669825 
L 94.40201 152.075374 
L 94.497715 156.901525 
L 94.505077 157.048514 
L 94.563973 161.874665 
L 94.615507 158.76339 
L 94.622868 158.76339 
L 94.66704 161.090722 
L 94.681764 158.126436 
L 94.718574 158.542906 
L 94.748022 158.07744 
L 94.74066 159.767818 
L 94.755384 159.743319 
L 94.762745 161.188715 
L 94.836365 157.954949 
L 94.858451 158.983874 
L 94.93207 160.968231 
L 94.902622 158.567405 
L 94.946794 158.836885 
L 94.983604 161.11522 
L 95.064585 156.681041 
L 95.101395 160.69875 
L 95.204462 159.988302 
L 95.27072 157.587475 
L 95.292806 160.355775 
L 95.300168 161.164217 
L 95.366425 157.342493 
L 95.381149 158.469412 
L 95.388511 158.567405 
L 95.484216 156.656543 
L 95.506302 163.271064 
L 95.579922 157.097511 
L 95.631455 159.522835 
L 95.660903 158.591903 
L 95.741885 161.213213 
L 95.80078 156.436059 
L 95.852314 159.988302 
L 95.859676 161.752174 
L 95.896485 158.738892 
L 95.955381 159.106366 
L 95.984829 156.754536 
L 96.021639 159.645327 
L 96.029001 159.424843 
L 96.051086 162.413626 
L 96.109982 156.436059 
L 96.13943 159.816814 
L 96.213049 157.195504 
L 96.168878 160.723249 
L 96.242497 159.988302 
L 96.257221 161.825669 
L 96.338202 156.852529 
L 96.382374 161.507192 
L 96.455994 158.028444 
L 96.463355 157.636472 
L 96.507527 160.404772 
L 96.529613 159.694323 
L 96.581147 161.580687 
L 96.617956 157.979447 
L 96.63268 160.331277 
L 96.676852 156.82803 
L 96.7063 161.335704 
L 96.743109 160.135291 
L 96.772557 161.311206 
L 96.809367 157.807959 
L 96.838815 159.130864 
L 96.890348 162.462623 
L 96.956606 157.317995 
L 97.044949 161.090722 
L 96.993416 157.2445 
L 97.067035 158.689896 
L 97.148017 160.184288 
L 97.111207 157.734465 
L 97.162741 157.979447 
L 97.177464 156.705539 
L 97.19955 160.625256 
L 97.221636 158.49391 
L 97.243722 161.899164 
L 97.309979 156.901525 
L 97.332065 159.302351 
L 97.413047 160.502765 
L 97.427771 158.591903 
L 97.486666 157.024016 
L 97.457218 160.747747 
L 97.50139 159.424843 
L 97.552924 163.026082 
L 97.523476 157.709967 
L 97.597095 160.037298 
L 97.678077 156.387062 
L 97.700163 161.997156 
L 97.714887 158.101938 
L 97.773782 163.761029 
L 97.795868 156.681041 
L 97.817954 157.268998 
L 97.84004 155.235646 
L 97.862126 160.821242 
L 97.884211 158.714394 
L 97.921021 162.707605 
L 97.943107 157.856956 
L 97.987279 159.473839 
L 98.053536 155.676614 
L 98.082984 162.732103 
L 98.090346 160.110793 
L 98.200775 157.220002 
L 98.119794 160.772245 
L 98.215499 158.126436 
L 98.252309 161.727676 
L 98.318566 157.146507 
L 98.325928 157.024016 
L 98.33329 158.003945 
L 98.392186 162.193142 
L 98.414272 156.191076 
L 98.443719 159.375846 
L 98.517339 157.905952 
L 98.487891 162.36463 
L 98.554149 158.346921 
L 98.576235 156.632045 
L 98.590958 160.551761 
L 98.59832 161.53169 
L 98.627768 157.832458 
L 98.694026 161.041726 
L 98.752921 157.464984 
L 98.804455 158.836885 
L 98.848627 162.413626 
L 98.90016 158.003945 
L 98.914884 159.914807 
L 99.010589 162.879093 
L 98.93697 156.852529 
L 99.017951 161.850167 
L 99.047399 162.756602 
L 99.143105 156.411561 
L 99.231448 163.932516 
L 99.268258 158.199931 
L 99.290344 155.652115 
L 99.356601 161.066224 
L 99.371325 158.616401 
L 99.422859 162.095149 
L 99.474392 159.620828 
L 99.518564 156.117582 
L 99.577459 161.874665 
L 99.665803 157.513981 
L 99.709975 159.963804 
L 99.746784 162.536117 
L 99.798318 157.930451 
L 99.80568 159.057369 
L 99.820404 156.019589 
L 99.849852 161.041726 
L 99.908747 157.048514 
L 99.930833 162.756602 
L 100.011814 154.819176 
L 100.019176 154.353709 
L 100.048624 158.395917 
L 100.122244 161.899164 
L 100.151691 158.322422 
L 100.166415 160.674252 
L 100.217949 156.534052 
L 100.269483 158.76339 
L 100.313654 163.222068 
L 100.37255 156.264571 
L 100.379912 159.130864 
L 100.453531 161.678679 
L 100.401998 157.146507 
L 100.468255 159.498337 
L 100.527151 157.073013 
L 100.497703 160.625256 
L 100.578684 157.979447 
L 100.615494 162.977086 
L 100.644942 157.146507 
L 100.696476 161.213213 
L 100.755371 155.970592 
L 100.799543 162.021655 
L 100.806905 162.952587 
L 100.8658 157.122009 
L 100.895248 155.603119 
L 100.909972 158.175433 
L 100.968868 163.124075 
L 100.954144 157.636472 
L 101.020401 158.591903 
L 101.035125 161.360203 
L 101.101383 156.191076 
L 101.123469 157.171006 
L 101.182364 163.957015 
L 101.211812 155.872599 
L 101.226536 156.632045 
L 101.307517 162.63411 
L 101.263346 155.750108 
L 101.366413 159.204358 
L 101.395861 156.14208 
L 101.454756 161.213213 
L 101.462118 162.585114 
L 101.484204 157.807959 
L 101.557823 160.674252 
L 101.601995 154.672186 
L 101.646167 158.738892 
L 101.668253 165.965869 
L 101.73451 155.823603 
L 101.749234 155.848101 
L 101.80813 162.7811 
L 101.889111 161.164217 
L 101.955369 156.117582 
L 101.992178 160.404772 
L 101.99954 163.173071 
L 102.087884 157.66097 
L 102.095246 154.89267 
L 102.154141 161.874665 
L 102.183589 161.776672 
L 102.198313 163.540545 
L 102.257209 157.39149 
L 102.271932 158.175433 
L 102.294018 157.2445 
L 102.330828 160.355775 
L 102.345552 158.738892 
L 102.404448 163.442552 
L 102.441257 156.730037 
L 102.448619 156.705539 
L 102.485429 153.079802 
L 102.507515 161.53169 
L 102.522239 163.442552 
L 102.581134 158.567405 
L 102.588496 156.411561 
L 102.617944 159.816814 
L 102.684202 159.522835 
L 102.721011 162.536117 
L 102.706287 157.538479 
L 102.779907 160.576259 
L 102.846164 155.652115 
L 102.882974 162.413626 
L 103.000765 155.407133 
L 103.015489 158.959376 
L 103.103833 157.097511 
L 103.13328 164.789954 
L 103.2069 155.211147 
L 103.251072 159.424843 
L 103.287881 164.740958 
L 103.324691 155.921596 
L 103.346777 157.636472 
L 103.361501 154.255716 
L 103.442482 161.678679 
L 103.560273 154.868172 
L 103.479292 162.021655 
L 103.574997 156.705539 
L 103.655979 163.834524 
L 103.685426 157.317995 
L 103.714874 156.411561 
L 103.766408 159.988302 
L 103.77377 161.458195 
L 103.81058 157.587475 
L 103.876837 160.331277 
L 103.884199 160.404772 
L 103.891561 159.718821 
L 103.913647 155.995091 
L 103.972542 160.0128 
L 104.00199 159.351348 
L 398.487273 159.351348 
L 398.487273 159.351348 
" clip-path="url(#pf4ea8e1011)" style="fill: none; stroke: #1f77b4; stroke-width: 1.5; stroke-linecap: square"/>
   </g>
   <g id="patch_3">
    <path d="M 57.6 307.584 
L 57.6 41.472 
" style="fill: none; stroke: #000000; stroke-width: 0.8; stroke-linejoin: miter; stroke-linecap: square"/>
   </g>
   <g id="patch_4">
    <path d="M 414.72 307.584 
L 414.72 41.472 
" style="fill: none; stroke: #000000; stroke-width: 0.8; stroke-linejoin: miter; stroke-linecap: square"/>
   </g>
   <g id="patch_5">
    <path d="M 57.6 307.584 
L 414.72 307.584 
" style="fill: none; stroke: #000000; stroke-width: 0.8; stroke-linejoin: miter; stroke-linecap: square"/>
   </g>
   <g id="patch_6">
    <path d="M 57.6 41.472 
L 414.72 41.472 
" style="fill: none; stroke: #000000; stroke-width: 0.8; stroke-linejoin: miter; stroke-linecap: square"/>
   </g>
   <g id="text_15">
    <text style="font: 12px 'IPAexGothic'; text-anchor: middle" x="236.16" y="35.472" transform="rotate(-0 236.16 35.472)">"048_A6.wav"の波形グラフ</text>
   </g>
  </g>
 </g>
 <defs>
  <clipPath id="pf4ea8e1011">
   <rect x="57.6" y="41.472" width="357.12" height="266.112"/>
  </clipPath>
 </defs>
</svg>
