<?xml version="1.0" encoding="utf-8" standalone="no"?>
<!DOCTYPE svg PUBLIC "-//W3C//DTD SVG 1.1//EN"
  "http://www.w3.org/Graphics/SVG/1.1/DTD/svg11.dtd">
<svg xmlns:xlink="http://www.w3.org/1999/xlink" width="460.8pt" height="345.6pt" viewBox="0 0 460.8 345.6" xmlns="http://www.w3.org/2000/svg" version="1.1">
 <metadata>
  <rdf:RDF xmlns:dc="http://purl.org/dc/elements/1.1/" xmlns:cc="http://creativecommons.org/ns#" xmlns:rdf="http://www.w3.org/1999/02/22-rdf-syntax-ns#">
   <cc:Work>
    <dc:type rdf:resource="http://purl.org/dc/dcmitype/StillImage"/>
    <dc:date>2022-11-28T11:27:29.506057</dc:date>
    <dc:format>image/svg+xml</dc:format>
    <dc:creator>
     <cc:Agent>
      <dc:title>Matplotlib v3.6.2, https://matplotlib.org/</dc:title>
     </cc:Agent>
    </dc:creator>
   </cc:Work>
  </rdf:RDF>
 </metadata>
 <defs>
  <style type="text/css">*{stroke-linejoin: round; stroke-linecap: butt}</style>
 </defs>
 <g id="figure_1">
  <g id="patch_1">
   <path d="M 0 345.6 
L 460.8 345.6 
L 460.8 0 
L 0 0 
z
" style="fill: #ffffff"/>
  </g>
  <g id="axes_1">
   <g id="patch_2">
    <path d="M 57.6 307.584 
L 414.72 307.584 
L 414.72 41.472 
L 57.6 41.472 
z
" style="fill: #ffffff"/>
   </g>
   <g id="matplotlib.axis_1">
    <g id="xtick_1">
     <g id="line2d_1">
      <defs>
       <path id="mbf795bf5ba" d="M 0 0 
L 0 3.5 
" style="stroke: #000000; stroke-width: 0.8"/>
      </defs>
      <g>
       <use xlink:href="#mbf795bf5ba" x="73.832727" y="307.584" style="stroke: #000000; stroke-width: 0.8"/>
      </g>
     </g>
     <g id="text_1">
      <text style="font: 10px 'IPAexGothic'; text-anchor: middle" x="73.832727" y="322.074625" transform="rotate(-0 73.832727 322.074625)">0.0</text>
     </g>
    </g>
    <g id="xtick_2">
     <g id="line2d_2">
      <g>
       <use xlink:href="#mbf795bf5ba" x="138.765109" y="307.584" style="stroke: #000000; stroke-width: 0.8"/>
      </g>
     </g>
     <g id="text_2">
      <text style="font: 10px 'IPAexGothic'; text-anchor: middle" x="138.765109" y="322.074625" transform="rotate(-0 138.765109 322.074625)">0.2</text>
     </g>
    </g>
    <g id="xtick_3">
     <g id="line2d_3">
      <g>
       <use xlink:href="#mbf795bf5ba" x="203.69749" y="307.584" style="stroke: #000000; stroke-width: 0.8"/>
      </g>
     </g>
     <g id="text_3">
      <text style="font: 10px 'IPAexGothic'; text-anchor: middle" x="203.69749" y="322.074625" transform="rotate(-0 203.69749 322.074625)">0.4</text>
     </g>
    </g>
    <g id="xtick_4">
     <g id="line2d_4">
      <g>
       <use xlink:href="#mbf795bf5ba" x="268.629872" y="307.584" style="stroke: #000000; stroke-width: 0.8"/>
      </g>
     </g>
     <g id="text_4">
      <text style="font: 10px 'IPAexGothic'; text-anchor: middle" x="268.629872" y="322.074625" transform="rotate(-0 268.629872 322.074625)">0.6</text>
     </g>
    </g>
    <g id="xtick_5">
     <g id="line2d_5">
      <g>
       <use xlink:href="#mbf795bf5ba" x="333.562253" y="307.584" style="stroke: #000000; stroke-width: 0.8"/>
      </g>
     </g>
     <g id="text_5">
      <text style="font: 10px 'IPAexGothic'; text-anchor: middle" x="333.562253" y="322.074625" transform="rotate(-0 333.562253 322.074625)">0.8</text>
     </g>
    </g>
    <g id="xtick_6">
     <g id="line2d_6">
      <g>
       <use xlink:href="#mbf795bf5ba" x="398.494635" y="307.584" style="stroke: #000000; stroke-width: 0.8"/>
      </g>
     </g>
     <g id="text_6">
      <text style="font: 10px 'IPAexGothic'; text-anchor: middle" x="398.494635" y="322.074625" transform="rotate(-0 398.494635 322.074625)">1.0</text>
     </g>
    </g>
    <g id="text_7">
     <text style="font: 10px 'IPAexGothic'; text-anchor: middle" x="236.16" y="335.924625" transform="rotate(-0 236.16 335.924625)">時間[s]</text>
    </g>
   </g>
   <g id="matplotlib.axis_2">
    <g id="ytick_1">
     <g id="line2d_7">
      <defs>
       <path id="m27bbce3630" d="M 0 0 
L -3.5 0 
" style="stroke: #000000; stroke-width: 0.8"/>
      </defs>
      <g>
       <use xlink:href="#m27bbce3630" x="57.6" y="279.29773" style="stroke: #000000; stroke-width: 0.8"/>
      </g>
     </g>
     <g id="text_8">
      <text style="font: 10px 'IPAexGothic'; text-anchor: end" x="50.6" y="283.043042" transform="rotate(-0 50.6 283.043042)">−4000</text>
     </g>
    </g>
    <g id="ytick_2">
     <g id="line2d_8">
      <g>
       <use xlink:href="#m27bbce3630" x="57.6" y="240.378811" style="stroke: #000000; stroke-width: 0.8"/>
      </g>
     </g>
     <g id="text_9">
      <text style="font: 10px 'IPAexGothic'; text-anchor: end" x="50.6" y="244.124123" transform="rotate(-0 50.6 244.124123)">−3000</text>
     </g>
    </g>
    <g id="ytick_3">
     <g id="line2d_9">
      <g>
       <use xlink:href="#m27bbce3630" x="57.6" y="201.459892" style="stroke: #000000; stroke-width: 0.8"/>
      </g>
     </g>
     <g id="text_10">
      <text style="font: 10px 'IPAexGothic'; text-anchor: end" x="50.6" y="205.205204" transform="rotate(-0 50.6 205.205204)">−2000</text>
     </g>
    </g>
    <g id="ytick_4">
     <g id="line2d_10">
      <g>
       <use xlink:href="#m27bbce3630" x="57.6" y="162.540973" style="stroke: #000000; stroke-width: 0.8"/>
      </g>
     </g>
     <g id="text_11">
      <text style="font: 10px 'IPAexGothic'; text-anchor: end" x="50.6" y="166.286285" transform="rotate(-0 50.6 166.286285)">−1000</text>
     </g>
    </g>
    <g id="ytick_5">
     <g id="line2d_11">
      <g>
       <use xlink:href="#m27bbce3630" x="57.6" y="123.622054" style="stroke: #000000; stroke-width: 0.8"/>
      </g>
     </g>
     <g id="text_12">
      <text style="font: 10px 'IPAexGothic'; text-anchor: end" x="50.6" y="127.367367" transform="rotate(-0 50.6 127.367367)">0</text>
     </g>
    </g>
    <g id="ytick_6">
     <g id="line2d_12">
      <g>
       <use xlink:href="#m27bbce3630" x="57.6" y="84.703135" style="stroke: #000000; stroke-width: 0.8"/>
      </g>
     </g>
     <g id="text_13">
      <text style="font: 10px 'IPAexGothic'; text-anchor: end" x="50.6" y="88.448448" transform="rotate(-0 50.6 88.448448)">1000</text>
     </g>
    </g>
    <g id="ytick_7">
     <g id="line2d_13">
      <g>
       <use xlink:href="#m27bbce3630" x="57.6" y="45.784216" style="stroke: #000000; stroke-width: 0.8"/>
      </g>
     </g>
     <g id="text_14">
      <text style="font: 10px 'IPAexGothic'; text-anchor: end" x="50.6" y="49.529529" transform="rotate(-0 50.6 49.529529)">2000</text>
     </g>
    </g>
    <g id="text_15">
     <text style="font: 10px 'IPAexGothic'; text-anchor: middle" x="12.723438" y="174.528" transform="rotate(-90 12.723438 174.528)">振幅</text>
    </g>
   </g>
   <g id="line2d_14">
    <path d="M 73.832727 123.660973 
L 73.921071 124.633946 
L 74.016776 126.229622 
L 74.060948 125.801514 
L 74.222911 123.816649 
L 74.281806 123.03827 
L 74.429045 121.442595 
L 74.436407 121.59827 
L 74.502665 121.131243 
L 74.52475 121.248 
L 74.56156 121.170162 
L 74.613094 121.364757 
L 74.620456 121.286919 
L 75.032725 127.903135 
L 75.084258 127.980973 
L 75.150516 127.630703 
L 75.157878 127.669622 
L 75.179964 127.241514 
L 75.187326 127.241514 
L 75.636405 119.613405 
L 75.643766 120.119351 
L 75.651128 119.418811 
L 75.746834 119.846919 
L 75.754196 119.730162 
L 75.805729 120.313946 
L 75.813091 120.275027 
L 75.886711 120.819892 
L 75.938244 120.703135 
L 75.982416 120.586378 
L 76.026588 120.936649 
L 76.03395 120.819892 
L 76.173827 122.298811 
L 76.181189 122.259892 
L 76.232722 122.454486 
L 76.284256 122.104216 
L 76.291618 122.104216 
L 76.313704 121.987459 
L 76.372599 122.493405 
L 76.379961 122.493405 
L 76.519838 123.738811 
L 76.740697 121.403676 
L 76.79223 121.59827 
L 76.86585 121.520432 
L 76.924745 121.442595 
L 76.946831 121.59827 
L 76.954193 121.559351 
L 77.071984 122.376649 
L 77.086708 122.33773 
L 77.175052 121.792865 
L 77.204499 121.987459 
L 77.307567 122.921514 
L 77.337015 122.649081 
L 77.543149 120.041514 
L 77.683026 118.873946 
L 77.712474 119.185297 
L 78.014314 140.863135 
L 78.213086 154.640432 
L 78.26462 152.149622 
L 78.56646 107.042595 
L 78.654803 111.090162 
L 78.919833 120.664216 
L 79.000815 119.963676 
L 79.17014 121.170162 
L 79.015539 119.924757 
L 79.251121 120.780973 
L 79.427808 117.939892 
L 79.43517 118.056649 
L 79.457256 117.862054 
L 79.508789 118.679351 
L 79.516151 118.523676 
L 79.678114 121.248 
L 79.7002 121.170162 
L 79.707562 121.403676 
L 79.759095 121.209081 
L 79.788543 121.053405 
L 79.876887 121.676108 
L 79.884249 121.481514 
L 79.957868 122.415568 
L 79.96523 122.182054 
L 80.097745 123.583135 
L 80.296518 126.073946 
L 80.355413 125.334486 
L 80.664615 116.733405 
L 80.679339 116.655568 
L 80.716149 116.538811 
L 80.738235 116.889081 
L 80.892835 122.259892 
L 80.995903 136.465297 
L 81.202037 177.524757 
L 81.268295 167.055568 
L 81.533325 97.11827 
L 81.599582 100.659892 
L 82.15909 123.232865 
L 82.173814 123.155027 
L 82.387311 116.57773 
L 82.468292 118.134486 
L 82.578722 120.275027 
L 82.593445 120.197189 
L 82.733322 117.784216 
L 82.76277 117.900973 
L 82.814304 118.640432 
L 83.152953 125.295568 
L 83.167677 125.178811 
L 83.233935 124.128 
L 83.29283 124.595027 
L 83.410622 122.259892 
L 83.587308 113.425297 
L 83.653566 116.460973 
L 83.830253 139.189622 
L 83.984854 208.971243 
L 84.021663 218.700973 
L 84.073197 202.043676 
L 84.316141 82.134486 
L 84.367675 84.625297 
L 84.50019 98.791784 
L 84.662153 109.533405 
L 84.706324 109.105297 
L 84.757858 109.922595 
L 84.949269 125.568 
L 85.015526 121.831784 
L 85.155403 110.428541 
L 85.206937 112.218811 
L 85.376262 119.885838 
L 85.442519 118.445838 
L 85.538225 117.27827 
L 85.567672 117.628541 
L 85.891598 126.696649 
L 85.913684 126.579892 
L 85.965218 127.202595 
L 86.024113 127.980973 
L 86.141904 130.432865 
L 86.186076 129.926919 
L 86.495278 112.763676 
L 86.561535 115.176649 
L 86.723498 148.296649 
L 86.944357 214.49773 
L 86.981166 205.157189 
L 87.231473 75.557189 
L 87.341902 86.298811 
L 87.63638 108.871784 
L 87.643742 108.871784 
L 87.90141 119.963676 
L 87.930858 119.496649 
L 88.085459 112.218811 
L 88.136992 113.152865 
L 88.298955 121.053405 
L 88.357851 120.197189 
L 88.460918 118.445838 
L 88.490366 118.951784 
L 88.674414 125.139892 
L 88.681776 125.023135 
L 88.73331 125.451243 
L 88.784844 124.906378 
L 88.821653 124.439351 
L 88.880549 125.139892 
L 89.123493 134.324757 
L 89.189751 132.923676 
L 89.33699 117.939892 
L 89.432695 110.07827 
L 89.491591 111.712865 
L 89.763983 142.108541 
L 90.006927 210.060973 
L 90.058461 198.579892 
L 90.308767 74.000432 
L 90.411834 83.302054 
L 90.684226 106.458811 
L 90.978704 120.703135 
L 90.993428 120.508541 
L 91.177477 112.763676 
L 91.199563 113.152865 
L 91.22901 113.814486 
L 91.376249 119.574486 
L 91.457231 118.01773 
L 91.545574 116.538811 
L 91.582384 117.161514 
L 91.589746 117.122595 
L 91.60447 117.511784 
L 91.935757 133.507459 
L 92.112444 140.201514 
L 92.127168 140.240432 
L 92.237597 137.749622 
L 92.657228 105.75827 
L 92.686676 106.614486 
L 92.752934 115.993946 
L 92.892811 175.384216 
L 93.017964 245.905297 
L 93.069497 221.619892 
L 93.290356 67.267459 
L 93.356613 73.883676 
L 93.739435 109.883676 
L 93.945569 123.894486 
L 93.960293 123.738811 
L 94.078084 114.203676 
L 94.159066 109.611243 
L 94.203237 111.479351 
L 94.350476 121.286919 
L 94.387286 120.15827 
L 94.519801 114.787459 
L 94.571335 115.993946 
L 94.93207 135.103135 
L 94.939432 134.947459 
L 94.983604 135.959351 
L 94.990966 135.920432 
L 95.138205 139.189622 
L 95.152929 139.033946 
L 95.292806 130.588541 
L 95.53575 99.453405 
L 95.57256 100.932324 
L 95.631455 109.105297 
L 95.771332 155.535568 
L 95.940657 259.955027 
L 95.999553 225.433946 
L 96.213049 53.957189 
L 96.271945 62.246919 
L 96.559061 102.060973 
L 96.890348 125.606919 
L 96.919796 124.361514 
L 97.089121 107.820973 
L 97.170102 112.491243 
L 97.280532 119.068541 
L 97.324703 117.939892 
L 97.449857 113.853405 
L 97.50139 114.943135 
L 97.722249 129.343135 
L 97.729611 129.148541 
L 97.781144 130.588541 
L 98.060898 140.435027 
L 98.097708 140.707459 
L 98.119794 140.279351 
L 98.230223 130.004757 
L 98.40691 101.983135 
L 98.473167 105.096649 
L 98.716112 167.756108 
L 98.885436 239.328 
L 98.944332 216.210162 
L 99.172552 53.568 
L 99.231448 63.336649 
L 99.46703 96.067459 
L 99.871937 122.182054 
L 99.894023 121.753946 
L 99.930833 119.574486 
L 100.055986 110.81773 
L 100.10752 111.712865 
L 100.291568 121.831784 
L 100.313654 121.481514 
L 100.438807 118.990703 
L 100.482979 119.808 
L 100.777457 128.370162 
L 101.064573 140.162595 
L 101.123469 138.644757 
L 101.248622 125.762595 
L 101.425308 108.365838 
L 101.440032 108.599351 
L 101.594633 126.579892 
L 101.741872 168.300973 
L 101.896473 238.355027 
L 101.948007 216.871784 
L 102.176227 58.899892 
L 102.235123 67.384216 
L 102.463343 91.669622 
L 102.83144 123.193946 
L 102.882974 125.334486 
L 102.927146 123.349622 
L 103.081747 110.156108 
L 103.125918 111.985297 
L 103.265795 122.765838 
L 103.361501 119.340973 
L 103.464568 116.305297 
L 103.501378 116.928 
L 103.972542 141.952865 
L 104.07561 139.462054 
L 104.392173 103.500973 
L 104.473155 110.739892 
L 104.635118 150.709622 
L 104.83389 245.671784 
L 104.900148 210.138811 
L 105.106282 61.001514 
L 105.150454 66.099892 
L 105.518552 105.680432 
L 105.7026 116.266378 
L 105.805667 124.828541 
L 105.857201 122.376649 
L 106.00444 108.326919 
L 106.055974 110.700973 
L 106.07806 112.140973 
L 106.225299 122.065297 
L 106.254746 121.248 
L 106.313642 118.562595 
L 106.387261 116.422054 
L 106.446157 117.745297 
L 106.497691 119.924757 
L 106.887874 145.066378 
L 106.932046 145.766919 
L 106.968855 144.132324 
L 106.976217 144.210162 
L 107.233885 109.144216 
L 107.336953 99.180973 
L 107.373762 102.294486 
L 107.506277 140.940973 
L 107.74186 246.528 
L 107.808117 212.824216 
L 108.036338 57.615568 
L 108.080509 61.935568 
L 108.441245 106.925838 
L 108.750447 121.325838 
L 108.824066 117.550703 
L 108.949219 111.790703 
L 108.986029 112.569081 
L 109.354126 121.559351 
L 109.36885 121.520432 
L 109.376212 121.403676 
L 109.435108 121.870703 
L 109.44247 121.870703 
L 109.766396 135.375568 
L 109.913634 144.365838 
L 109.943082 143.392865 
L 110.075597 128.09773 
L 110.244922 105.252324 
L 110.296456 107.93773 
L 110.473143 157.715027 
L 110.679277 228.547459 
L 110.730811 213.797189 
L 110.973755 61.663135 
L 111.076822 75.206919 
L 111.327129 103.306378 
L 111.63633 116.344216 
L 111.702588 119.885838 
L 111.761483 118.134486 
L 111.886637 113.658811 
L 111.908722 114.39827 
L 111.916084 114.320432 
L 111.930808 114.943135 
L 112.048599 117.978811 
L 112.085409 117.433946 
L 112.136943 116.966919 
L 112.188476 117.511784 
L 112.195838 117.472865 
L 112.217924 117.900973 
L 112.865776 140.045838 
L 112.902585 139.423135 
L 113.064548 125.139892 
L 113.197063 112.024216 
L 113.255959 114.982054 
L 113.381112 138.995027 
L 113.63878 228.936649 
L 113.705038 203.016649 
L 113.918534 64.582054 
L 113.97743 70.069622 
L 114.176202 87.77773 
L 114.588471 119.691243 
L 114.632643 120.858811 
L 114.676815 119.068541 
L 114.720987 115.993946 
L 114.801968 112.452324 
L 114.84614 113.853405 
L 114.986017 121.014486 
L 115.044912 119.224216 
L 115.199513 114.670703 
L 115.243685 115.176649 
L 115.324666 118.095568 
L 115.538163 128.564757 
L 115.759021 142.303135 
L 115.840003 139.033946 
L 116.141843 111.51827 
L 116.200738 114.437189 
L 116.289081 130.23827 
L 116.480492 203.67827 
L 116.561474 238.705297 
L 116.613007 218.778811 
L 116.841228 64.854486 
L 116.922209 74.739892 
L 117.062086 79.643676 
L 117.091534 81.628541 
L 117.525889 121.559351 
L 117.562698 120.430703 
L 117.717299 107.93773 
L 117.761471 110.156108 
L 117.827729 116.227459 
L 117.916072 121.403676 
L 117.967606 120.080432 
L 118.070673 117.083676 
L 118.122207 117.745297 
L 118.615457 136.698811 
L 118.7038 140.512865 
L 118.755334 139.500973 
L 118.77742 138.839351 
L 118.932021 123.505297 
L 119.04245 116.032865 
L 119.086622 117.433946 
L 119.093984 117.395027 
L 119.322204 158.804757 
L 119.491529 234.463135 
L 119.550424 214.108541 
L 119.778645 65.788541 
L 119.852264 72.093405 
L 120.213 109.338811 
L 120.455944 119.185297 
L 120.485392 118.368 
L 120.559011 111.323676 
L 120.647355 104.396108 
L 120.691526 106.770162 
L 120.882937 123.816649 
L 120.941833 122.454486 
L 121.037538 121.092324 
L 121.066986 121.364757 
L 121.206863 123.622054 
L 121.214225 123.466378 
L 121.243672 123.583135 
L 121.265758 123.155027 
L 121.361464 121.325838 
L 121.420359 122.376649 
L 121.64858 136.932324 
L 121.707475 136.543135 
L 121.83999 127.786378 
L 121.994591 118.134486 
L 122.031401 118.990703 
L 122.10502 125.645838 
L 122.325879 183.479351 
L 122.44367 235.513946 
L 122.495204 217.183135 
L 122.730786 62.908541 
L 122.797044 68.357189 
L 123.209313 108.482595 
L 123.268208 111.090162 
L 123.408085 120.508541 
L 123.466981 115.993946 
L 123.592134 103.539892 
L 123.651029 107.548541 
L 123.84244 121.559351 
L 123.886612 120.89773 
L 124.026489 118.095568 
L 124.055937 118.601514 
L 124.166366 124.322595 
L 124.328329 128.759351 
L 124.365138 130.199351 
L 124.497654 135.29773 
L 124.541825 134.636108 
L 124.556549 134.246919 
L 124.563911 134.285838 
L 124.924646 118.290162 
L 124.93937 118.095568 
L 124.990904 119.146378 
L 125.145505 138.489081 
L 125.270658 176.629622 
L 125.395811 245.088 
L 125.447345 219.012324 
L 125.660841 66.956108 
L 125.719737 72.677189 
L 126.058386 102.722595 
L 126.080472 102.528 
L 126.124644 101.944216 
L 126.161454 103.228541 
L 126.345502 126.813405 
L 126.426484 118.01773 
L 126.544275 102.372324 
L 126.603171 107.237189 
L 126.757772 120.936649 
L 126.801943 120.275027 
L 126.927096 117.161514 
L 126.993354 118.562595 
L 127.059611 123.03827 
L 127.24366 131.561514 
L 127.412985 133.85773 
L 127.442433 133.468541 
L 127.707463 127.669622 
L 127.88415 115.449081 
L 127.957769 119.224216 
L 128.171266 157.987459 
L 128.333228 242.713946 
L 128.399486 206.130162 
L 128.598259 70.458811 
L 128.64243 74.467459 
L 128.723412 80.850162 
L 128.782307 80.499892 
L 128.789669 80.266378 
L 128.819117 81.900973 
L 128.973718 100.465297 
L 129.032613 98.986378 
L 129.062061 98.675027 
L 129.135681 104.201514 
L 129.305006 131.600432 
L 129.356539 125.606919 
L 129.503778 101.944216 
L 129.570036 107.159351 
L 129.709913 118.562595 
L 129.77617 117.978811 
L 129.84979 116.694486 
L 129.893961 117.472865 
L 130.129544 135.258811 
L 130.232611 132.339892 
L 130.409298 128.370162 
L 130.41666 128.409081 
L 130.497641 126.969081 
L 130.549175 127.436108 
L 130.571261 127.747459 
L 130.630156 126.774486 
L 130.814205 117.239351 
L 130.8731 119.029622 
L 131.020339 139.072865 
L 131.152855 175.539892 
L 131.270646 242.441514 
L 131.329541 217.494486 
L 131.535676 70.380973 
L 131.601933 77.191784 
L 131.646105 79.799351 
L 131.727086 78.476108 
L 131.785982 83.535568 
L 132.036288 105.369081 
L 132.11727 113.347459 
L 132.235061 130.23827 
L 132.293956 124.517189 
L 132.441195 98.208 
L 132.500091 102.800432 
L 132.676778 119.924757 
L 132.720949 119.535568 
L 132.750397 118.912865 
L 132.824017 117.511784 
L 132.860826 118.71827 
L 133.052237 133.429622 
L 133.155304 130.004757 
L 133.192114 129.382054 
L 133.243648 130.588541 
L 133.331991 132.884757 
L 133.376163 132.145297 
L 133.773708 112.452324 
L 133.839966 116.227459 
L 134.0461 155.885838 
L 134.163891 221.736649 
L 134.222787 249.330162 
L 134.27432 227.068541 
L 134.487817 66.722595 
L 134.554074 73.533405 
L 134.61297 76.25773 
L 134.679228 75.712865 
L 134.723399 79.332324 
L 134.907448 109.922595 
L 135.010515 108.988541 
L 135.084135 116.110703 
L 135.17984 127.319351 
L 135.231374 123.894486 
L 135.371251 102.372324 
L 135.437508 106.653405 
L 135.614195 120.119351 
L 135.643643 119.808 
L 135.673091 119.185297 
L 135.790882 115.604757 
L 135.849777 117.005838 
L 136.27677 141.369081 
L 136.343028 139.578811 
L 136.512353 126.502054 
L 136.718487 106.264216 
L 136.770021 108.716108 
L 136.91726 131.211243 
L 137.064499 182.233946 
L 137.174928 256.569081 
L 137.226462 227.885838 
L 137.432596 72.171243 
L 137.48413 77.269622 
L 137.535663 80.57773 
L 137.601921 78.476108 
L 137.616645 78.320432 
L 137.638731 79.059892 
L 137.719712 92.214486 
L 137.808056 103.500973 
L 137.866951 100.426378 
L 137.918485 97.702054 
L 137.962656 100.387459 
L 138.124619 131.600432 
L 138.205601 120.819892 
L 138.31603 106.49773 
L 138.367564 109.027459 
L 138.558974 118.406919 
L 138.58106 118.173405 
L 138.735661 112.296649 
L 138.794557 114.748541 
L 139.11112 134.402595 
L 139.280445 138.022054 
L 139.295169 137.944216 
L 139.317255 137.866378 
L 139.37615 137.088 
L 139.44977 132.651243 
L 139.670628 110.662054 
L 139.744248 112.569081 
L 139.862039 123.077189 
L 139.97983 155.846919 
L 140.127069 256.413405 
L 140.193327 212.979892 
L 140.384737 76.841514 
L 140.421547 78.709622 
L 140.473081 81.005838 
L 140.524614 78.904216 
L 140.561424 77.69773 
L 140.605596 80.305297 
L 140.745473 98.55827 
L 140.826454 94.822054 
L 140.84854 94.471784 
L 140.877988 95.795027 
L 140.958969 111.751784 
L 141.069398 131.250162 
L 141.120932 126.891243 
L 141.260809 110.584216 
L 141.319705 112.685838 
L 141.503753 117.628541 
L 141.518477 117.550703 
L 141.606821 114.592865 
L 141.687802 111.985297 
L 141.731974 113.736649 
L 142.077985 132.612324 
L 142.28412 136.037189 
L 142.350377 135.219892 
L 142.431359 129.654486 
L 142.630131 111.362595 
L 142.689027 113.308541 
L 142.858352 132.223135 
L 142.961419 177.952865 
L 143.064486 259.020973 
L 143.123382 225.395027 
L 143.329517 76.491243 
L 143.373688 78.826378 
L 143.395774 79.410162 
L 143.439946 77.464216 
L 143.498841 74.07827 
L 143.543013 77.075027 
L 143.690252 102.489081 
L 143.778595 97.974486 
L 143.785957 97.85773 
L 143.815405 99.025297 
L 143.903748 117.044757 
L 144.006816 132.845838 
L 144.050987 128.525838 
L 144.198226 106.419892 
L 144.257122 109.728 
L 144.448533 117.395027 
L 144.463257 117.356108 
L 144.485342 117.27827 
L 144.581048 115.215568 
L 144.632581 114.164757 
L 144.676753 115.371243 
L 144.897611 130.938811 
L 145.052212 130.860973 
L 145.147918 132.845838 
L 145.295157 140.123676 
L 145.354052 137.43827 
L 145.604358 108.404757 
L 145.707426 115.526919 
L 145.854665 145.416649 
L 146.016628 256.024216 
L 146.090247 209.43827 
L 146.281658 76.997189 
L 146.318467 78.203676 
L 146.340553 78.592865 
L 146.377363 77.113946 
L 146.450982 72.404757 
L 146.495154 76.25773 
L 146.649755 106.342054 
L 146.74546 102.022054 
L 146.774908 103.267459 
L 146.944233 128.292324 
L 147.025214 117.978811 
L 147.128282 103.345297 
L 147.179815 106.809081 
L 147.42276 123.310703 
L 147.430122 123.271784 
L 147.481655 121.792865 
L 147.61417 113.075027 
L 147.680428 116.538811 
L 147.908648 127.864216 
L 148.129507 140.084757 
L 148.232574 144.63827 
L 148.276746 142.964757 
L 148.394537 122.415568 
L 148.5565 103.656649 
L 148.585947 104.785297 
L 148.718462 122.026378 
L 148.836254 161.957189 
L 148.961407 258.164757 
L 149.027664 218.389622 
L 149.233799 77.152865 
L 149.263247 78.048 
L 149.285332 78.359351 
L 149.322142 77.113946 
L 149.381038 73.883676 
L 149.425209 76.841514 
L 149.587172 107.353946 
L 149.704964 103.656649 
L 149.763859 109.883676 
L 149.889012 127.942054 
L 149.940546 122.804757 
L 150.073061 101.516108 
L 150.131956 106.030703 
L 150.352815 124.089081 
L 150.367539 123.894486 
L 150.441158 119.45773 
L 150.544226 112.646919 
L 150.595759 114.748541 
L 150.890237 129.382054 
L 151.192077 143.315027 
L 151.236249 141.291243 
L 151.383488 115.682595 
L 151.501279 106.614486 
L 151.538089 107.976649 
L 151.685328 126.463135 
L 151.781033 157.403676 
L 151.913548 258.281514 
L 151.979805 214.925838 
L 152.171216 79.526919 
L 152.208026 81.511784 
L 152.237474 82.445838 
L 152.281645 79.643676 
L 152.355265 73.689081 
L 152.399436 77.619892 
L 152.664467 105.991784 
L 152.760172 121.792865 
L 152.833791 129.615568 
L 152.885325 124.711784 
L 153.032564 98.363676 
L 153.098822 103.773405 
L 153.31968 125.178811 
L 153.35649 124.361514 
L 153.496367 116.966919 
L 153.562624 120.041514 
L 153.702501 128.136649 
L 153.754035 126.930162 
L 153.820292 125.840432 
L 153.864464 126.735568 
L 153.989617 134.208 
L 154.136856 144.63827 
L 154.18839 142.108541 
L 154.45342 106.303135 
L 154.556487 113.970162 
L 154.696364 140.785297 
L 154.814155 235.630703 
L 154.865689 265.403676 
L 154.917223 232.984216 
L 155.123357 75.362595 
L 155.167529 77.347459 
L 155.189615 77.69773 
L 155.226425 75.751784 
L 155.292682 70.770162 
L 155.336854 74.195027 
L 155.638694 109.611243 
L 155.771209 129.304216 
L 155.830104 122.921514 
L 155.969981 96.262054 
L 156.036239 102.022054 
L 156.293907 125.723676 
L 156.315993 125.412324 
L 156.448508 118.173405 
L 156.529489 121.792865 
L 156.669366 130.627459 
L 156.728262 129.304216 
L 156.794519 128.253405 
L 156.853415 128.720432 
L 156.94912 131.756108 
L 157.111083 143.392865 
L 157.169979 138.956108 
L 157.390837 107.19827 
L 157.457095 110.973405 
L 157.648505 145.37773 
L 157.810468 259.293405 
L 157.884088 204.962595 
L 158.060774 74.506378 
L 158.097584 77.036108 
L 158.141756 79.604757 
L 158.19329 76.179892 
L 158.244823 72.365838 
L 158.288995 76.140973 
L 158.45832 107.820973 
L 158.568749 107.431784 
L 158.715988 127.35827 
L 158.789607 117.745297 
L 158.91476 95.717189 
L 158.966294 100.231784 
L 159.246048 128.370162 
L 159.275496 127.475027 
L 159.400649 119.45773 
L 159.466907 122.804757 
L 159.606784 131.833946 
L 159.658317 130.666378 
L 159.812918 128.370162 
L 159.827642 128.448 
L 159.923347 132.651243 
L 160.063224 144.365838 
L 160.12212 140.045838 
L 160.342978 106.614486 
L 160.416598 111.362595 
L 160.593285 141.05773 
L 160.762609 262.368 
L 160.836229 201.732324 
L 161.005554 71.820973 
L 161.042363 75.168 
L 161.093897 79.13773 
L 161.145431 74.973405 
L 161.196964 70.848 
L 161.241136 75.557189 
L 161.395737 109.183135 
L 161.476718 105.446919 
L 161.491442 105.213405 
L 161.52089 106.342054 
L 161.668129 127.903135 
L 161.741749 119.185297 
L 161.85954 98.597189 
L 161.918435 103.189622 
L 162.190827 128.525838 
L 162.220275 127.475027 
L 162.345428 117.667459 
L 162.404324 121.053405 
L 162.544201 131.639351 
L 162.603096 129.965838 
L 162.757697 126.112865 
L 162.787145 126.735568 
L 162.875488 133.507459 
L 163.000642 146.584216 
L 163.052175 142.692324 
L 163.29512 108.171243 
L 163.368739 112.530162 
L 163.530702 137.983135 
L 163.648493 223.565838 
L 163.707389 258.865297 
L 163.758922 229.209081 
L 163.950333 74.156108 
L 164.009228 79.410162 
L 164.038676 80.616649 
L 164.082848 76.880432 
L 164.149106 70.458811 
L 164.193277 75.635027 
L 164.340516 105.330162 
L 164.414136 102.17773 
L 164.42886 101.983135 
L 164.458307 103.189622 
L 164.561375 122.33773 
L 164.627632 129.771243 
L 164.679166 123.894486 
L 164.811681 99.29773 
L 164.877938 104.396108 
L 165.157692 128.603676 
L 165.194502 127.280432 
L 165.290207 121.715027 
L 165.349103 123.699892 
L 165.466894 130.860973 
L 165.52579 128.915027 
L 165.606771 126.540973 
L 165.658305 127.280432 
L 165.776096 133.079351 
L 165.938059 143.626378 
L 165.989593 140.746378 
L 166.239899 107.159351 
L 166.335604 113.230703 
L 166.475481 137.632865 
L 166.593272 227.963676 
L 166.652168 263.418811 
L 166.703701 231.972324 
L 166.895112 72.288 
L 166.946646 77.152865 
L 166.983455 79.176649 
L 167.027627 75.012324 
L 167.093885 68.084757 
L 167.138056 72.677189 
L 167.410448 108.171243 
L 167.565049 128.058811 
L 167.631307 119.691243 
L 167.749098 99.025297 
L 167.807994 103.539892 
L 168.09511 129.615568 
L 168.131919 128.292324 
L 168.249711 121.092324 
L 168.301244 123.155027 
L 168.426397 130.822054 
L 168.485293 128.915027 
L 168.522103 128.136649 
L 168.573636 129.615568 
L 168.846028 139.306378 
L 168.860752 139.267459 
L 168.904924 137.827459 
L 169.015353 124.361514 
L 169.177316 106.49773 
L 169.221488 108.015568 
L 169.368727 128.058811 
L 169.464432 161.606919 
L 169.596947 259.760432 
L 169.655843 221.386378 
L 169.839891 71.509622 
L 169.891425 77.113946 
L 169.935597 80.305297 
L 169.979768 75.985297 
L 170.046026 68.590703 
L 170.090198 73.455568 
L 170.266884 108.404757 
L 170.347866 107.782054 
L 170.414123 114.865297 
L 170.509829 127.085838 
L 170.561362 122.726919 
L 170.693877 101.010162 
L 170.760135 106.419892 
L 171.039889 126.268541 
L 171.084061 124.166919 
L 171.179766 117.745297 
L 171.231299 120.547459 
L 171.371177 132.884757 
L 171.437434 130.938811 
L 171.481606 130.199351 
L 171.525777 131.366919 
L 171.820255 140.824216 
L 171.827617 140.785297 
L 171.886513 136.504216 
L 172.100009 108.832865 
L 172.166267 112.179892 
L 172.379763 139.384216 
L 172.497555 234.385297 
L 172.549088 262.523676 
L 172.600622 230.532324 
L 172.792032 70.069622 
L 172.850928 76.024216 
L 172.880376 77.853405 
L 172.931909 73.37773 
L 172.998167 66.683676 
L 173.042339 72.015568 
L 173.307369 108.482595 
L 173.417798 125.684757 
L 173.469332 129.810162 
L 173.520865 124.711784 
L 173.65338 101.516108 
L 173.719638 106.49773 
L 173.984668 125.879351 
L 174.006754 125.412324 
L 174.124545 115.955027 
L 174.190803 120.936649 
L 174.323318 137.049081 
L 174.382213 134.480432 
L 174.463195 131.016649 
L 174.514728 132.262054 
L 174.765035 139.812324 
L 174.794482 138.995027 
L 174.89755 126.969081 
L 175.059512 107.431784 
L 175.103684 109.416649 
L 175.302457 133.273946 
L 175.398162 189.745297 
L 175.493867 265.248 
L 175.545401 229.987459 
L 175.736812 68.396108 
L 175.788345 74.739892 
L 175.832517 78.515027 
L 175.884051 74.07827 
L 175.942946 68.824216 
L 175.987118 73.766919 
L 176.244786 106.964757 
L 176.333129 120.89773 
L 176.414111 131.211243 
L 176.465645 126.035027 
L 176.59816 101.049081 
L 176.664417 105.836108 
L 176.944171 123.505297 
L 176.973619 122.765838 
L 177.0546 118.290162 
L 177.106134 120.89773 
L 177.268097 137.282595 
L 177.341716 134.052324 
L 177.407974 131.795027 
L 177.459508 133.001514 
L 177.69509 140.045838 
L 177.724538 139.228541 
L 177.812881 129.459892 
L 177.982206 108.677189 
L 178.033739 110.233946 
L 178.232512 125.568 
L 178.313493 160.283676 
L 178.438647 266.726919 
L 178.504904 222.437189 
L 178.688953 70.458811 
L 178.733125 74.584216 
L 178.769934 77.347459 
L 178.821468 72.599351 
L 178.887725 64.504216 
L 178.939259 70.964757 
L 179.189565 107.431784 
L 179.277909 120.469622 
L 179.35889 131.094486 
L 179.410424 126.813405 
L 179.550301 102.761514 
L 179.62392 107.431784 
L 179.896312 124.050162 
L 179.940484 121.987459 
L 180.021465 117.317189 
L 180.065637 119.846919 
L 180.234962 136.192865 
L 180.308581 134.402595 
L 180.330667 134.130162 
L 180.382201 134.947459 
L 180.632507 140.435027 
L 180.661955 139.773405 
L 180.742936 131.094486 
L 180.926985 107.276108 
L 180.985881 109.728 
L 181.192015 131.328 
L 181.28772 184.95827 
L 181.383426 268.556108 
L 181.442321 231.116108 
L 181.633732 70.653405 
L 181.677904 75.557189 
L 181.714713 78.164757 
L 181.758885 73.766919 
L 181.832505 64.037189 
L 181.884038 70.731243 
L 182.038639 104.590703 
L 182.112259 103.500973 
L 182.163792 107.782054 
L 182.311031 132.534486 
L 182.377289 125.178811 
L 182.502442 105.836108 
L 182.561337 108.443676 
L 182.848453 124.128 
L 182.914711 120.119351 
L 182.966245 117.628541 
L 183.017778 120.508541 
L 183.172379 135.99827 
L 183.238637 134.013405 
L 183.29017 132.962595 
L 183.341704 134.130162 
L 183.599372 140.31827 
L 183.621458 139.851243 
L 183.709801 130.588541 
L 183.886488 108.560432 
L 183.938022 110.272865 
L 184.136794 131.172324 
L 184.225138 178.419892 
L 184.328205 266.610162 
L 184.387101 229.987459 
L 184.571149 72.949622 
L 184.622683 78.670703 
L 184.652131 80.966919 
L 184.703664 75.245838 
L 184.784646 62.636108 
L 184.836179 70.186378 
L 184.99078 102.450162 
L 185.057038 101.983135 
L 185.115933 108.132324 
L 185.263172 133.196108 
L 185.322068 125.840432 
L 185.447221 105.252324 
L 185.506117 107.898811 
L 185.800595 125.529081 
L 185.888938 121.053405 
L 185.911024 120.586378 
L 185.955196 122.454486 
L 186.102434 135.570162 
L 186.176054 132.106378 
L 186.227588 130.277189 
L 186.279121 132.456649 
L 186.49998 139.539892 
L 186.544151 140.435027 
L 186.580961 139.072865 
L 186.698752 121.442595 
L 186.831267 107.859892 
L 186.868077 108.832865 
L 187.044764 125.21773 
L 187.118383 144.015568 
L 187.272984 268.556108 
L 187.346604 213.369081 
L 187.515928 72.521514 
L 187.5601 76.530162 
L 187.604272 79.799351 
L 187.648444 74.623135 
L 187.729425 62.324757 
L 187.773597 68.279351 
L 188.009179 102.761514 
L 188.09016 114.359351 
L 188.20059 132.495568 
L 188.252123 127.903135 
L 188.384638 105.913946 
L 188.450896 109.844757 
L 188.531877 112.685838 
L 188.590773 112.140973 
L 188.627583 113.347459 
L 188.752736 123.193946 
L 188.826355 119.496649 
L 188.863165 118.523676 
L 188.899975 120.313946 
L 189.054576 135.609081 
L 189.135557 132.184216 
L 189.179729 130.97773 
L 189.231262 132.923676 
L 189.481569 141.291243 
L 189.518378 140.006919 
L 189.63617 123.738811 
L 189.768685 108.949622 
L 189.812856 110.545297 
L 190.048439 133.546378 
L 190.151506 208.543135 
L 190.225125 264.975568 
L 190.276659 234.073946 
L 190.46807 75.557189 
L 190.519603 81.122595 
L 190.549051 82.835027 
L 190.593223 77.503135 
L 190.681566 62.947459 
L 190.7331 71.120432 
L 190.872977 102.87827 
L 190.946596 101.049081 
L 190.983406 102.839351 
L 191.101197 126.774486 
L 191.152731 131.911784 
L 191.204264 126.618811 
L 191.329418 106.49773 
L 191.388313 110.700973 
L 191.484018 115.449081 
L 191.535552 114.787459 
L 191.542914 114.748541 
L 191.565 115.059892 
L 191.682791 122.298811 
L 191.741687 118.445838 
L 191.807944 114.359351 
L 191.852116 117.239351 
L 192.014079 135.219892 
L 192.080336 132.378811 
L 192.124508 131.133405 
L 192.176042 132.962595 
L 192.43371 141.602595 
L 192.441072 141.524757 
L 192.492605 138.450162 
L 192.728188 108.716108 
L 192.823893 114.631784 
L 193.00058 139.968 
L 193.118371 239.172324 
L 193.162543 268.050162 
L 193.221438 232.089081 
L 193.412849 72.832865 
L 193.464382 78.553946 
L 193.49383 80.422054 
L 193.538002 75.868541 
L 193.618983 63.609081 
L 193.670517 70.925838 
L 193.817756 102.87827 
L 193.884014 100.815568 
L 193.891375 100.73773 
L 193.913461 101.321514 
L 193.987081 112.179892 
L 194.09751 129.343135 
L 194.149044 125.062054 
L 194.266835 107.237189 
L 194.333092 111.868541 
L 194.421436 115.955027 
L 194.472969 114.982054 
L 194.495055 114.709622 
L 194.539227 115.916108 
L 194.62757 120.352865 
L 194.671742 118.095568 
L 194.738 114.320432 
L 194.782171 117.044757 
L 194.944134 137.555027 
L 195.025115 133.196108 
L 195.076649 131.133405 
L 195.135545 132.768 
L 195.385851 140.162595 
L 195.407937 139.773405 
L 195.49628 130.355027 
L 195.665605 110.350703 
L 195.709777 111.751784 
L 195.901187 131.872865 
L 195.989531 167.600432 
L 196.107322 261.472865 
L 196.166217 227.379892 
L 196.357628 74.545297 
L 196.409162 80.227459 
L 196.438609 82.095568 
L 196.482781 77.853405 
L 196.571125 65.165838 
L 196.615296 71.315027 
L 196.769897 101.010162 
L 196.836155 100.037189 
L 196.880326 102.761514 
L 197.049651 129.732324 
L 197.115909 120.858811 
L 197.218976 105.05773 
L 197.277872 108.599351 
L 197.46192 114.476108 
L 197.579711 122.065297 
L 197.645969 119.146378 
L 197.675417 118.368 
L 197.719588 120.002595 
L 197.896275 138.022054 
L 197.977257 133.079351 
L 198.02879 131.172324 
L 198.087686 132.884757 
L 198.33063 139.072865 
L 198.352716 138.683676 
L 198.448421 128.953946 
L 198.603022 111.323676 
L 198.647194 112.95827 
L 198.868052 136.582054 
L 198.963758 193.637189 
L 199.052101 263.808 
L 199.103635 232.867459 
L 199.302407 73.766919 
L 199.353941 78.826378 
L 199.376027 80.071784 
L 199.420198 76.608 
L 199.508542 64.192865 
L 199.560075 71.470703 
L 199.714676 102.255568 
L 199.780934 101.827459 
L 199.825106 104.512865 
L 199.987068 129.109622 
L 200.060688 120.236108 
L 200.163755 104.863135 
L 200.222651 108.365838 
L 200.509767 123.466378 
L 200.517129 123.544216 
L 200.539215 123.03827 
L 200.63492 116.811243 
L 200.686453 120.041514 
L 200.833692 138.138811 
L 200.89995 134.324757 
L 200.966208 130.822054 
L 201.025103 132.845838 
L 201.245962 138.372324 
L 201.260685 138.411243 
L 201.282771 137.983135 
L 201.363753 130.393946 
L 201.547801 112.919351 
L 201.584611 114.048 
L 201.790746 135.842595 
L 201.879089 173.710703 
L 201.989518 261.27827 
L 202.048414 223.059892 
L 202.232463 74.07827 
L 202.283996 79.293405 
L 202.320806 81.472865 
L 202.364978 76.880432 
L 202.445959 65.43827 
L 202.497493 72.015568 
L 202.652094 102.216649 
L 202.718351 101.555027 
L 202.769885 105.252324 
L 202.924486 128.992865 
L 202.990743 121.59827 
L 203.108534 103.111784 
L 203.16743 107.470703 
L 203.454546 124.828541 
L 203.461908 124.906378 
L 203.483994 124.283676 
L 203.587061 116.694486 
L 203.638595 120.469622 
L 203.785834 136.504216 
L 203.844729 133.85773 
L 203.903625 131.366919 
L 203.96252 133.040432 
L 204.131845 135.881514 
L 204.205465 137.866378 
L 204.249636 136.543135 
L 204.485219 115.410162 
L 204.580924 120.664216 
L 204.787059 151.526919 
L 204.934298 262.71827 
L 205.000555 212.746378 
L 205.177242 74.700973 
L 205.221413 78.437189 
L 205.258223 81.005838 
L 205.302395 76.919351 
L 205.390738 63.920432 
L 205.442272 71.315027 
L 205.596873 103.656649 
L 205.655768 102.17773 
L 205.66313 102.138811 
L 205.677854 102.372324 
L 205.73675 108.288 
L 205.869265 127.903135 
L 205.920799 123.03827 
L 206.053314 101.905297 
L 206.112209 106.653405 
L 206.355153 120.664216 
L 206.414049 124.166919 
L 206.465583 121.559351 
L 206.53184 118.056649 
L 206.576012 120.547459 
L 206.737975 136.582054 
L 206.79687 133.702054 
L 206.841042 132.145297 
L 206.892576 133.974486 
L 206.988281 136.543135 
L 207.039815 136.037189 
L 207.047177 135.99827 
L 207.083986 136.348541 
L 207.13552 136.776649 
L 207.164968 136.192865 
L 207.260673 126.891243 
L 207.40055 113.892324 
L 207.444722 115.371243 
L 207.672942 138.489081 
L 207.753924 169.85773 
L 207.871715 261.628541 
L 207.93061 220.530162 
L 208.107297 72.599351 
L 208.158831 78.086919 
L 208.203002 81.589622 
L 208.254536 76.179892 
L 208.328156 67.267459 
L 208.372327 72.288 
L 208.526928 101.944216 
L 208.600548 100.659892 
L 208.644719 103.578811 
L 208.806682 127.786378 
L 208.87294 119.808 
L 208.990731 101.671784 
L 209.042264 105.602595 
L 209.196865 110.584216 
L 209.277847 117.200432 
L 209.36619 124.322595 
L 209.417724 121.831784 
L 209.469257 119.45773 
L 209.513429 121.792865 
L 209.66803 137.710703 
L 209.734288 135.103135 
L 209.793183 132.806919 
L 209.852079 134.480432 
L 209.96987 136.776649 
L 210.00668 136.582054 
L 210.102385 135.764757 
L 210.19809 126.463135 
L 210.337967 114.086919 
L 210.389501 115.83827 
L 210.529378 131.756108 
L 210.669255 158.182054 
L 210.809132 260.57773 
L 210.87539 215.315027 
L 211.052076 70.886919 
L 211.096248 76.841514 
L 211.14042 81.667459 
L 211.199315 75.596108 
L 211.272935 66.722595 
L 211.317106 72.249081 
L 211.471707 101.632865 
L 211.537965 101.049081 
L 211.59686 105.291243 
L 211.744099 127.436108 
L 211.810357 119.963676 
L 211.928148 101.477189 
L 211.987044 106.380973 
L 212.141645 112.063135 
L 212.222626 118.835027 
L 212.303607 125.21773 
L 212.355141 122.104216 
L 212.421399 117.862054 
L 212.472932 121.364757 
L 212.620171 136.504216 
L 212.679067 134.441514 
L 212.723238 133.196108 
L 212.76741 134.947459 
L 212.870477 139.695568 
L 212.922011 138.605838 
L 213.098698 131.483676 
L 213.282747 113.619892 
L 213.349004 116.694486 
L 213.591948 148.685838 
L 213.687654 217.299892 
L 213.753911 265.831784 
L 213.805445 235.124757 
L 213.996856 67.968 
L 214.055751 76.102054 
L 214.085199 78.242595 
L 214.136733 73.961514 
L 214.210352 65.788541 
L 214.254524 71.003676 
L 214.409125 101.43827 
L 214.482744 100.776649 
L 214.549002 107.548541 
L 214.688879 128.992865 
L 214.747774 123.310703 
L 214.880289 102.333405 
L 214.946547 106.614486 
L 215.248387 125.023135 
L 215.277834 124.089081 
L 215.366178 118.251243 
L 215.417711 121.364757 
L 215.572312 136.037189 
L 215.63857 134.208 
L 215.653294 134.052324 
L 215.682742 134.908541 
L 215.793171 140.31827 
L 215.852066 138.644757 
L 216.072925 126.618811 
L 216.212802 112.102054 
L 216.264335 115.13773 
L 216.536728 150.048 
L 216.625071 215.042595 
L 216.691328 265.481514 
L 216.742862 234.813405 
L 216.926911 68.396108 
L 216.993168 78.943135 
L 217.029978 81.784216 
L 217.07415 76.569081 
L 217.155131 65.165838 
L 217.199303 70.925838 
L 217.33918 101.204757 
L 217.412799 99.570162 
L 217.456971 102.216649 
L 217.626296 132.495568 
L 217.707277 120.780973 
L 217.825068 99.570162 
L 217.876602 103.306378 
L 218.148994 122.065297 
L 218.193166 124.205838 
L 218.2447 121.559351 
L 218.310957 118.01773 
L 218.355129 120.780973 
L 218.502368 136.309622 
L 218.575987 133.818811 
L 218.598073 133.390703 
L 218.642245 134.986378 
L 218.745312 140.006919 
L 218.796846 138.761514 
L 219.00298 129.109622 
L 219.164943 111.245838 
L 219.216477 113.736649 
L 219.444697 147.284757 
L 219.53304 188.57773 
L 219.628746 263.068541 
L 219.680279 230.33773 
L 219.864328 67.890162 
L 219.923224 79.565838 
L 219.960033 84.15827 
L 220.018929 76.841514 
L 220.092548 66.333405 
L 220.144082 73.455568 
L 220.269235 101.126919 
L 220.335493 98.791784 
L 220.350217 98.597189 
L 220.379664 99.531243 
L 220.468008 115.254486 
L 220.571075 131.405838 
L 220.615247 127.202595 
L 220.762486 101.321514 
L 220.828743 106.692324 
L 220.975982 111.323676 
L 221.101135 121.170162 
L 221.145307 122.649081 
L 221.196841 120.236108 
L 221.248374 117.862054 
L 221.292546 120.119351 
L 221.454509 136.504216 
L 221.542852 134.869622 
L 221.594386 137.204757 
L 221.675367 140.240432 
L 221.726901 139.150703 
L 221.947759 127.35827 
L 222.094998 110.545297 
L 222.153894 113.775568 
L 222.374752 148.569081 
L 222.463096 181.922595 
L 222.566163 261.239351 
L 222.625059 223.13773 
L 222.801745 67.812324 
L 222.853279 77.580973 
L 222.904813 84.391784 
L 222.956346 77.347459 
L 223.037328 65.905297 
L 223.081499 72.599351 
L 223.206652 101.321514 
L 223.280272 98.55827 
L 223.294996 98.402595 
L 223.317082 99.142054 
L 223.398063 112.25773 
L 223.508492 130.277189 
L 223.560026 125.957189 
L 223.699903 103.539892 
L 223.766161 108.404757 
L 223.832418 112.25773 
L 223.898676 111.245838 
L 223.928123 111.868541 
L 224.090086 122.104216 
L 224.17843 118.679351 
L 224.185792 118.640432 
L 224.200515 118.912865 
L 224.281497 125.606919 
L 224.472908 134.636108 
L 224.612785 140.668541 
L 224.686404 138.255568 
L 224.944072 121.131243 
L 225.047139 112.724757 
L 225.091311 114.631784 
L 225.304808 140.357189 
L 225.393151 165.810162 
L 225.510942 265.559351 
L 225.5772 219.245838 
L 225.739163 71.003676 
L 225.790696 79.955027 
L 225.84223 88.283676 
L 225.893763 81.005838 
L 225.982107 64.037189 
L 226.033641 71.704216 
L 226.158794 98.947459 
L 226.217689 96.028541 
L 226.239775 95.600432 
L 226.276585 97.585297 
L 226.401738 125.023135 
L 226.460633 130.432865 
L 226.512167 125.256649 
L 226.63732 107.120432 
L 226.696216 110.973405 
L 226.762473 115.410162 
L 226.821369 113.036108 
L 226.858179 112.024216 
L 226.909712 113.931243 
L 227.027503 119.302054 
L 227.079037 117.317189 
L 227.123209 115.721514 
L 227.167381 117.706378 
L 227.54284 143.159351 
L 227.557564 143.120432 
L 227.609097 140.785297 
L 227.991919 112.296649 
L 228.058176 116.57773 
L 228.308482 155.885838 
L 228.41155 244.854486 
L 228.448359 266.804757 
L 228.499893 237.070703 
L 228.67658 67.306378 
L 228.742837 81.628541 
L 228.787009 87.933405 
L 228.838543 80.57773 
L 228.919524 66.411243 
L 228.971058 73.728 
L 229.088849 98.402595 
L 229.155106 95.366919 
L 229.177192 95.016649 
L 229.20664 96.456649 
L 229.302345 115.877189 
L 229.398051 130.822054 
L 229.449584 126.346378 
L 229.582099 106.614486 
L 229.648357 111.362595 
L 229.714615 115.254486 
L 229.77351 113.347459 
L 229.802958 112.919351 
L 229.839768 114.009081 
L 229.979645 118.679351 
L 230.023816 117.667459 
L 230.060626 116.850162 
L 230.104798 118.484757 
L 230.494981 142.809081 
L 230.531791 141.952865 
L 230.818907 121.286919 
L 230.929336 111.557189 
L 230.973508 113.464216 
L 231.098661 132.768 
L 231.290071 188.149622 
L 231.385777 263.107459 
L 231.43731 229.170162 
L 231.613997 64.504216 
L 231.672893 78.437189 
L 231.724426 87.544216 
L 231.783322 80.071784 
L 231.856941 69.719351 
L 231.908475 76.608 
L 232.026266 99.142054 
L 232.085162 95.833946 
L 232.11461 94.97773 
L 232.151419 96.962595 
L 232.276572 124.050162 
L 232.335468 129.732324 
L 232.387002 125.178811 
L 232.519517 106.458811 
L 232.578412 110.389622 
L 232.659394 116.032865 
L 232.718289 114.086919 
L 232.740375 113.69773 
L 232.784547 115.098811 
L 232.917062 119.379892 
L 232.961234 118.71827 
L 232.998043 117.939892 
L 233.042215 119.185297 
L 233.447122 143.587459 
L 233.498656 141.330162 
L 233.866753 111.168 
L 233.918287 114.476108 
L 234.190679 164.876108 
L 234.323194 257.736649 
L 234.389452 212.084757 
L 234.558776 64.426378 
L 234.61031 76.763676 
L 234.669206 88.205838 
L 234.728101 81.161514 
L 234.801721 72.210162 
L 234.845892 78.009081 
L 234.956321 98.986378 
L 235.022579 94.510703 
L 235.059389 92.953946 
L 235.10356 95.989622 
L 235.272885 130.043676 
L 235.361229 118.835027 
L 235.464296 105.875027 
L 235.51583 109.805838 
L 235.604173 117.589622 
L 235.663069 115.410162 
L 235.692516 114.826378 
L 235.74405 116.110703 
L 235.869203 120.313946 
L 235.928099 118.835027 
L 235.957546 118.406919 
L 235.994356 119.535568 
L 236.369816 141.991784 
L 236.436073 139.228541 
L 236.811532 113.69773 
L 236.848342 115.293405 
L 237.002943 139.033946 
L 237.164906 179.276108 
L 237.260611 257.542054 
L 237.319507 222.476108 
L 237.496194 64.620973 
L 237.555089 78.553946 
L 237.613985 89.412324 
L 237.67288 82.835027 
L 237.7465 74.156108 
L 237.790671 79.293405 
L 237.901101 97.624216 
L 237.959996 93.965838 
L 237.996806 92.915027 
L 238.033616 95.444757 
L 238.210303 129.420973 
L 238.298646 118.445838 
L 238.394351 105.446919 
L 238.445885 108.832865 
L 238.556314 118.835027 
L 238.622572 117.550703 
L 238.637296 117.511784 
L 238.659381 117.862054 
L 238.799258 119.963676 
L 238.828706 119.574486 
L 238.887602 118.562595 
L 238.924411 119.652324 
L 239.321957 141.018811 
L 239.37349 139.578811 
L 239.667968 118.679351 
L 239.741588 113.269622 
L 239.793121 116.422054 
L 240.058151 160.322595 
L 240.161219 241.001514 
L 240.198028 256.724757 
L 240.249562 225.511784 
L 240.433611 62.986378 
L 240.492506 76.763676 
L 240.551402 86.454486 
L 240.610298 81.161514 
L 240.676555 75.479351 
L 240.720727 80.305297 
L 240.831156 99.492324 
L 240.897414 95.289081 
L 240.934223 94.004757 
L 240.971033 96.612324 
L 241.14772 128.292324 
L 241.236063 118.095568 
L 241.33913 106.380973 
L 241.390664 109.805838 
L 241.493731 118.056649 
L 241.552627 116.616649 
L 241.589437 116.266378 
L 241.648332 116.772324 
L 241.655694 116.772324 
L 241.699866 116.850162 
L 241.795571 118.990703 
L 241.898638 124.633946 
L 242.215202 141.018811 
L 242.24465 141.213405 
L 242.28146 140.396108 
L 242.561214 125.957189 
L 242.693729 113.736649 
L 242.737901 115.955027 
L 242.88514 138.489081 
L 243.03974 185.775568 
L 243.135446 257.113946 
L 243.194341 219.557189 
L 243.371028 62.55827 
L 243.422562 73.027459 
L 243.488819 84.819892 
L 243.547715 79.682595 
L 243.60661 75.012324 
L 243.650782 78.943135 
L 243.775935 101.399351 
L 243.842193 96.806919 
L 243.879002 95.250162 
L 243.923174 98.363676 
L 244.085137 127.669622 
L 244.166118 118.835027 
L 244.276548 105.05773 
L 244.328081 109.222054 
L 244.438511 120.041514 
L 244.497406 117.862054 
L 244.607835 116.383135 
L 244.637283 116.57773 
L 244.718265 118.601514 
L 244.858142 126.502054 
L 245.174705 140.902054 
L 245.211515 140.162595 
L 245.513355 125.21773 
L 245.631146 114.437189 
L 245.68268 117.005838 
L 245.87409 150.320432 
L 245.98452 192.275027 
L 246.072863 253.611243 
L 246.124397 224.655568 
L 246.308445 62.55827 
L 246.374703 76.25773 
L 246.433598 84.080432 
L 246.492494 79.020973 
L 246.544028 76.024216 
L 246.588199 79.955027 
L 246.713352 102.566919 
L 246.786972 97.157189 
L 246.81642 95.872865 
L 246.860591 98.791784 
L 247.022554 127.319351 
L 247.103536 118.523676 
L 247.213965 104.824216 
L 247.265499 108.871784 
L 247.375928 120.080432 
L 247.434823 118.01773 
L 247.582062 116.422054 
L 247.64832 117.356108 
L 247.721939 120.15827 
L 248.097399 142.147459 
L 248.148932 140.357189 
L 248.568563 113.075027 
L 248.642183 119.146378 
L 248.907213 180.404757 
L 249.01028 258.437189 
L 249.069176 215.431784 
L 249.245863 62.324757 
L 249.290034 71.042595 
L 249.363654 84.313946 
L 249.422549 80.032865 
L 249.474083 77.075027 
L 249.518255 80.344216 
L 249.643408 101.165838 
L 249.709665 95.989622 
L 249.753837 93.304216 
L 249.798009 96.729081 
L 249.967333 130.23827 
L 250.048315 119.068541 
L 250.158744 103.812324 
L 250.210278 107.782054 
L 250.335431 120.197189 
L 250.394326 119.263135 
L 250.593099 117.862054 
L 250.615185 118.056649 
L 250.688804 121.831784 
L 251.034816 141.330162 
L 251.042178 141.291243 
L 251.123159 138.372324 
L 251.439723 118.212324 
L 251.513343 113.464216 
L 251.557514 116.110703 
L 251.734201 149.075027 
L 251.859354 196.128 
L 251.940336 255.946378 
L 251.991869 227.846919 
L 252.18328 61.702054 
L 252.242175 74.000432 
L 252.301071 81.706378 
L 252.359967 77.775568 
L 252.404138 75.635027 
L 252.44831 78.39827 
L 252.588187 100.698811 
L 252.669168 95.639351 
L 252.691254 95.172324 
L 252.720702 96.806919 
L 252.838493 122.921514 
L 252.904751 131.133405 
L 252.956284 125.490162 
L 253.096161 103.812324 
L 253.155057 108.599351 
L 253.28021 120.625297 
L 253.331744 118.912865 
L 253.449535 117.161514 
L 253.478983 117.356108 
L 253.567326 119.379892 
L 253.972233 142.653405 
L 254.067939 138.566919 
L 254.443398 112.724757 
L 254.517017 118.329081 
L 254.759962 170.675027 
L 254.885115 256.452324 
L 254.951372 207.725838 
L 255.120697 62.597189 
L 255.164869 70.731243 
L 255.238488 83.730162 
L 255.297384 78.709622 
L 255.356279 74.623135 
L 255.400451 78.709622 
L 255.532966 101.049081 
L 255.599224 96.534486 
L 255.628672 95.211243 
L 255.672843 97.974486 
L 255.842168 131.289081 
L 255.930511 118.951784 
L 256.040941 103.150703 
L 256.085112 106.614486 
L 256.224989 121.520432 
L 256.276523 119.652324 
L 256.431124 116.538811 
L 256.445848 116.733405 
L 256.526829 120.547459 
L 256.917012 142.925838 
L 256.931736 142.653405 
L 257.226214 128.058811 
L 257.380815 112.530162 
L 257.439711 116.616649 
L 257.690017 163.825297 
L 257.822532 259.721514 
L 257.896152 204.456649 
L 258.065476 62.986378 
L 258.109648 70.886919 
L 258.175906 80.305297 
L 258.242163 75.985297 
L 258.278973 74.233946 
L 258.323144 76.997189 
L 258.470383 101.593946 
L 258.558727 96.106378 
L 258.573451 95.833946 
L 258.602899 97.235027 
L 258.705966 120.391784 
L 258.786947 132.962595 
L 258.838481 127.202595 
L 258.978358 103.773405 
L 259.037253 108.443676 
L 259.162407 120.664216 
L 259.21394 119.302054 
L 259.353817 116.850162 
L 259.383265 116.966919 
L 259.449523 118.71827 
L 259.640933 132.845838 
L 259.85443 142.692324 
L 259.861792 142.653405 
L 259.950135 138.605838 
L 260.229889 120.430703 
L 260.325594 112.95827 
L 260.377128 116.110703 
L 260.590624 154.640432 
L 260.68633 205.040432 
L 260.759949 260.655568 
L 260.811483 229.092324 
L 260.995532 60.845838 
L 261.054427 72.326919 
L 261.113323 80.422054 
L 261.17958 76.218811 
L 261.21639 74.973405 
L 261.2532 77.308541 
L 261.400439 102.022054 
L 261.488782 94.938811 
L 261.51823 94.004757 
L 261.55504 96.612324 
L 261.731726 133.196108 
L 261.82007 119.613405 
L 261.923137 104.902054 
L 261.974671 108.521514 
L 262.107186 121.520432 
L 262.166081 119.535568 
L 262.291234 114.904216 
L 262.335406 115.721514 
L 262.467921 124.517189 
L 262.784485 142.030703 
L 262.813933 141.369081 
L 263.159944 122.415568 
L 263.270374 113.230703 
L 263.314545 115.410162 
L 263.469146 140.084757 
L 263.616385 195.933405 
L 263.704728 261.589622 
L 263.756262 224.032865 
L 263.940311 60.690162 
L 263.991844 69.641514 
L 264.058102 77.736649 
L 264.12436 75.129081 
L 264.146445 74.739892 
L 264.175893 76.024216 
L 264.293684 98.947459 
L 264.337856 101.905297 
L 264.396752 98.285838 
L 264.448285 95.639351 
L 264.492457 98.480432 
L 264.661782 131.561514 
L 264.750125 119.924757 
L 264.867916 104.473946 
L 264.912088 107.859892 
L 265.066689 122.960432 
L 265.118223 120.975568 
L 265.2581 114.982054 
L 265.302271 115.955027 
L 265.493682 130.082595 
L 265.721902 141.680432 
L 265.75135 141.096649 
L 266.060552 126.073946 
L 266.207791 111.557189 
L 266.251963 114.009081 
L 266.450735 149.619892 
L 266.561164 197.100973 
L 266.642146 260.149622 
L 266.693679 230.571243 
L 266.88509 62.597189 
L 266.943986 74.467459 
L 266.995519 80.149622 
L 267.054415 76.179892 
L 267.098587 73.766919 
L 267.142758 77.191784 
L 267.282635 102.839351 
L 267.363617 97.779892 
L 267.393064 96.651243 
L 267.437236 99.336649 
L 267.606561 131.211243 
L 267.687542 119.963676 
L 267.805334 102.839351 
L 267.849505 106.225297 
L 268.011468 122.493405 
L 268.05564 120.819892 
L 268.202879 114.748541 
L 268.24705 115.877189 
L 268.445823 132.145297 
L 268.651958 141.913946 
L 268.666681 141.991784 
L 268.696129 141.369081 
L 269.012693 125.840432 
L 269.159932 110.856649 
L 269.204104 113.580973 
L 269.4176 151.332324 
L 269.513305 203.444757 
L 269.586925 262.757189 
L 269.638459 231.155027 
L 269.822507 64.037189 
L 269.881403 75.012324 
L 269.932937 81.317189 
L 269.991832 76.880432 
L 270.050728 73.066378 
L 270.094899 77.386378 
L 270.227414 101.944216 
L 270.301034 97.663135 
L 270.337844 96.262054 
L 270.382015 99.064216 
L 270.55134 132.534486 
L 270.632322 120.780973 
L 270.750113 102.644757 
L 270.801646 106.770162 
L 270.956247 122.143135 
L 271.007781 120.469622 
L 271.140296 116.110703 
L 271.177106 116.811243 
L 271.339069 126.891243 
L 271.604099 141.602595 
L 271.633547 140.824216 
L 271.972196 124.205838 
L 272.104711 110.117189 
L 272.148883 112.102054 
L 272.281398 134.402595 
L 272.435999 191.496649 
L 272.524342 267.427459 
L 272.575876 233.023135 
L 272.759925 63.336649 
L 272.81882 73.805838 
L 272.870354 79.059892 
L 272.929249 74.973405 
L 272.980783 72.443676 
L 273.017593 75.712865 
L 273.164832 103.578811 
L 273.253175 98.091243 
L 273.275261 97.429622 
L 273.319433 99.881514 
L 273.488757 129.53773 
L 273.569739 118.990703 
L 273.680168 102.995027 
L 273.731702 106.303135 
L 273.901026 123.544216 
L 273.95256 121.170162 
L 274.092437 115.565838 
L 274.129247 116.422054 
L 274.320658 130.510703 
L 274.534154 141.446919 
L 274.541516 141.369081 
L 274.607774 138.605838 
L 274.78446 135.336649 
L 274.82127 134.597189 
L 274.894889 127.163676 
L 275.04949 110.467459 
L 275.093662 113.191784 
L 275.255625 143.19827 
L 275.380778 189.27827 
L 275.469121 263.963676 
L 275.528017 226.212324 
L 275.704704 62.713946 
L 275.763599 72.910703 
L 275.815133 78.826378 
L 275.881391 74.467459 
L 275.925562 72.404757 
L 275.962372 75.284757 
L 276.109611 102.87827 
L 276.205316 98.208 
L 276.22004 98.130162 
L 276.242126 98.986378 
L 276.323107 112.102054 
L 276.433537 129.187459 
L 276.477708 125.451243 
L 276.624947 101.866378 
L 276.691205 107.898811 
L 276.845806 123.583135 
L 276.889977 122.220973 
L 277.044578 116.928 
L 277.08875 118.01773 
L 277.478933 140.551784 
L 277.61881 138.255568 
L 277.773411 134.052324 
L 277.905926 117.550703 
L 277.99427 110.272865 
L 278.045803 112.724757 
L 278.193042 135.764757 
L 278.325557 185.580973 
L 278.421263 270.774486 
L 278.472796 233.451243 
L 278.649483 62.830703 
L 278.708379 73.611243 
L 278.759912 80.538811 
L 278.82617 75.596108 
L 278.877703 72.288 
L 278.921875 76.919351 
L 279.047028 102.956108 
L 279.120648 98.55827 
L 279.157457 97.001514 
L 279.201629 99.725838 
L 279.370954 131.756108 
L 279.451935 119.185297 
L 279.562365 99.99827 
L 279.613898 104.201514 
L 279.790585 122.999351 
L 279.834757 121.753946 
L 279.989357 115.955027 
L 280.040891 117.472865 
L 280.41635 139.500973 
L 280.475246 138.372324 
L 280.622485 137.43827 
L 280.637209 137.516108 
L 280.688743 137.905297 
L 280.710828 137.360432 
L 280.784448 129.654486 
L 280.939049 109.533405 
L 280.990582 112.179892 
L 281.189355 144.249081 
L 281.270336 183.284757 
L 281.366042 268.906378 
L 281.417575 233.178811 
L 281.594262 63.219892 
L 281.653158 74.739892 
L 281.712053 82.640432 
L 281.770949 77.191784 
L 281.829845 71.859892 
L 281.874016 77.113946 
L 282.006531 102.800432 
L 282.072789 99.803676 
L 282.102237 99.142054 
L 282.139046 101.049081 
L 282.308371 130.705297 
L 282.389353 119.224216 
L 282.507144 99.180973 
L 282.558677 103.773405 
L 282.735364 122.688 
L 282.779536 121.286919 
L 282.926775 115.916108 
L 282.970946 117.27827 
L 283.405301 138.022054 
L 283.456835 138.800432 
L 283.604074 139.656649 
L 283.618798 139.61773 
L 283.655608 138.372324 
L 283.751313 124.750703 
L 283.883828 107.976649 
L 283.928 110.428541 
L 284.141496 144.521514 
L 284.22984 198.112865 
L 284.310821 270.930162 
L 284.362355 236.759351 
L 284.546403 63.29773 
L 284.605299 74.856649 
L 284.649471 79.916108 
L 284.708366 75.012324 
L 284.767262 69.291243 
L 284.811433 74.311784 
L 284.95131 104.240432 
L 285.02493 100.854486 
L 285.054378 100.192865 
L 285.091187 102.566919 
L 285.25315 130.199351 
L 285.32677 120.236108 
L 285.451923 99.142054 
L 285.503457 103.656649 
L 285.687505 123.03827 
L 285.739039 121.987459 
L 285.89364 117.395027 
L 285.952535 119.418811 
L 286.291185 137.555027 
L 286.335357 136.73773 
L 286.364804 136.387459 
L 286.401614 137.088 
L 286.570939 140.590703 
L 286.593025 140.084757 
L 286.674006 129.382054 
L 286.835969 109.260973 
L 286.872779 110.778811 
L 287.020018 131.016649 
L 287.137809 158.454486 
L 287.262962 273.732324 
L 287.32922 221.970162 
L 287.498544 63.803676 
L 287.550078 73.611243 
L 287.608974 81.317189 
L 287.660507 75.673946 
L 287.726765 68.201514 
L 287.770937 74.700973 
L 287.910814 105.524757 
L 287.977071 101.710703 
L 288.013881 100.387459 
L 288.050691 102.917189 
L 288.205291 130.355027 
L 288.278911 120.197189 
L 288.396702 98.480432 
L 288.448236 103.306378 
L 288.639646 122.026378 
L 288.683818 121.753946 
L 288.742714 121.014486 
L 288.853143 117.044757 
L 288.904677 118.757189 
L 289.02983 133.585297 
L 289.088725 137.983135 
L 289.154983 136.192865 
L 289.29486 134.869622 
L 289.316946 135.219892 
L 289.52308 140.940973 
L 289.55989 139.189622 
L 289.670319 117.784216 
L 289.766024 106.303135 
L 289.817558 109.105297 
L 290.038417 143.315027 
L 290.119398 194.220973 
L 290.207741 273.654486 
L 290.259275 236.486919 
L 290.443324 62.636108 
L 290.494857 72.015568 
L 290.553753 80.149622 
L 290.612648 74.117189 
L 290.664182 68.707459 
L 290.708354 74.545297 
L 290.848231 104.084757 
L 290.914488 101.749622 
L 290.936574 101.204757 
L 290.980746 103.228541 
L 291.142709 128.681514 
L 291.216328 118.990703 
L 291.326757 99.492324 
L 291.385653 104.551784 
L 291.606511 121.753946 
L 291.628597 121.831784 
L 291.643321 121.909622 
L 291.672769 121.559351 
L 291.797922 115.760432 
L 291.86418 118.912865 
L 292.040866 137.671784 
L 292.16602 136.348541 
L 292.224915 135.725838 
L 292.254363 136.270703 
L 292.453135 141.602595 
L 292.475221 141.291243 
L 292.541479 134.013405 
L 292.718166 106.886919 
L 292.769699 109.689081 
L 293.012644 149.113946 
L 293.123073 260.694486 
L 293.152521 276.729081 
L 293.204054 244.153946 
L 293.388103 62.986378 
L 293.446998 75.012324 
L 293.498532 81.200432 
L 293.550066 74.467459 
L 293.616323 65.671784 
L 293.660495 73.260973 
L 293.800372 105.602595 
L 293.859268 102.87827 
L 293.896077 101.555027 
L 293.940249 104.435027 
L 294.087488 129.109622 
L 294.153745 120.936649 
L 294.271537 99.881514 
L 294.330432 105.135568 
L 294.566015 122.765838 
L 294.602824 123.03827 
L 294.632272 122.454486 
L 294.750063 116.383135 
L 294.801597 118.835027 
L 294.970922 137.126919 
L 295.066627 133.390703 
L 295.15497 132.106378 
L 295.19178 133.040432 
L 295.405277 143.042595 
L 295.449448 141.252324 
L 295.552516 121.792865 
L 295.670307 105.252324 
L 295.714478 107.470703 
L 295.927975 140.863135 
L 296.016318 197.21773 
L 296.0973 275.795027 
L 296.156195 236.292324 
L 296.340244 63.531243 
L 296.391778 73.728 
L 296.443311 80.616649 
L 296.494845 74.545297 
L 296.561102 65.516108 
L 296.605274 71.93773 
L 296.759875 105.719351 
L 296.818771 103.111784 
L 296.840857 102.528 
L 296.877666 104.473946 
L 297.032267 127.630703 
L 297.098525 119.613405 
L 297.208954 100.153946 
L 297.267849 105.05773 
L 297.510794 122.921514 
L 297.547604 123.349622 
L 297.584413 122.33773 
L 297.702204 116.227459 
L 297.753738 118.601514 
L 297.915701 136.932324 
L 298.011406 133.196108 
L 298.077664 132.184216 
L 298.114474 133.235027 
L 298.342694 142.264216 
L 298.379504 141.524757 
L 298.445761 132.573405 
L 298.615086 105.75827 
L 298.659258 108.132324 
L 298.887478 139.345297 
L 298.975821 207.609081 
L 299.049441 282.294486 
L 299.108336 239.989622 
L 299.285023 62.869622 
L 299.336557 72.63827 
L 299.388091 81.239351 
L 299.446986 73.027459 
L 299.505882 63.531243 
L 299.557415 71.353946 
L 299.697292 107.315027 
L 299.76355 103.500973 
L 299.80036 102.060973 
L 299.837169 105.05773 
L 299.984408 128.603676 
L 300.043304 120.703135 
L 300.153733 99.025297 
L 300.212629 104.707459 
L 300.418763 121.209081 
L 300.507107 123.310703 
L 300.551278 122.026378 
L 300.646984 116.305297 
L 300.698517 118.601514 
L 300.853118 137.360432 
L 300.941462 132.884757 
L 301.022443 131.172324 
L 301.059253 132.300973 
L 301.287473 142.186378 
L 301.324283 141.563676 
L 301.39054 132.729081 
L 301.552503 104.590703 
L 301.604037 107.548541 
L 301.839619 143.976649 
L 301.935325 231.349622 
L 301.99422 283.656649 
L 302.045754 246.917189 
L 302.229802 62.246919 
L 302.281336 73.844757 
L 302.33287 82.445838 
L 302.384403 75.168 
L 302.450661 63.492324 
L 302.502195 72.015568 
L 302.63471 105.602595 
L 302.700967 101.944216 
L 302.730415 100.932324 
L 302.767225 103.072865 
L 302.921826 128.642595 
L 302.988083 120.041514 
L 303.098512 99.219892 
L 303.157408 105.524757 
L 303.363542 121.481514 
L 303.451886 124.400432 
L 303.496058 122.415568 
L 303.599125 114.359351 
L 303.650658 118.095568 
L 303.790535 138.099892 
L 303.871517 133.196108 
L 303.95986 130.860973 
L 303.99667 132.184216 
L 304.22489 143.665297 
L 304.254338 142.809081 
L 304.33532 130.277189 
L 304.497282 103.734486 
L 304.541454 106.186378 
L 304.784398 143.704216 
L 304.880104 225.27827 
L 304.946361 282.099892 
L 304.997895 241.390703 
L 305.174582 63.103135 
L 305.226115 73.883676 
L 305.277649 83.263135 
L 305.329183 75.51827 
L 305.402802 62.441514 
L 305.446974 70.030703 
L 305.586851 106.536649 
L 305.653108 101.788541 
L 305.682556 100.504216 
L 305.726728 104.201514 
L 305.866605 128.331243 
L 305.9255 121.676108 
L 306.043292 99.103135 
L 306.102187 105.680432 
L 306.308322 121.831784 
L 306.404027 126.035027 
L 306.448199 123.660973 
L 306.543904 114.709622 
L 306.6028 119.029622 
L 306.742677 137.827459 
L 306.808934 133.390703 
L 306.897277 129.926919 
L 306.941449 131.444757 
L 307.184393 142.536649 
L 307.206479 142.030703 
L 307.280099 132.495568 
L 307.442062 105.096649 
L 307.493595 108.63827 
L 307.758625 152.966919 
L 307.898502 283.812324 
L 307.96476 220.802595 
L 308.126723 62.246919 
L 308.170894 71.626378 
L 308.22979 83.691243 
L 308.281324 75.362595 
L 308.347581 62.169081 
L 308.399115 70.108541 
L 308.538992 108.521514 
L 308.605249 102.566919 
L 308.634697 100.971243 
L 308.678869 104.435027 
L 308.818746 127.980973 
L 308.877642 120.547459 
L 308.988071 99.648 
L 309.046966 105.485838 
L 309.267825 122.610162 
L 309.348806 126.930162 
L 309.392978 124.556108 
L 309.496045 113.69773 
L 309.547579 118.056649 
L 309.687456 139.033946 
L 309.746351 134.091243 
L 309.827333 129.109622 
L 309.878866 131.211243 
L 310.129173 142.380973 
L 310.15862 141.641514 
L 310.23224 131.289081 
L 310.394203 105.135568 
L 310.438374 107.237189 
L 310.688681 139.734486 
L 310.784386 230.571243 
L 310.843282 287.859892 
L 310.902177 242.208 
L 311.078864 63.414486 
L 311.123036 74.428541 
L 311.174569 85.520432 
L 311.233465 74.739892 
L 311.299722 61.235027 
L 311.351256 70.419892 
L 311.476409 107.548541 
L 311.542667 101.866378 
L 311.579476 99.336649 
L 311.63101 103.929081 
L 311.763525 128.486919 
L 311.822421 120.819892 
L 311.93285 99.725838 
L 311.984384 105.524757 
L 312.168432 118.329081 
L 312.300947 127.513946 
L 312.359843 122.376649 
L 312.440824 113.152865 
L 312.492358 117.200432 
L 312.632235 139.890162 
L 312.698493 133.974486 
L 312.779474 128.058811 
L 312.831008 130.627459 
L 313.051866 142.108541 
L 313.06659 142.225297 
L 313.096038 141.680432 
L 313.162295 133.779892 
L 313.324258 106.186378 
L 313.383154 108.949622 
L 313.640822 141.291243 
L 313.743889 248.940973 
L 313.795423 286.614486 
L 313.846956 245.165838 
L 314.023643 64.659892 
L 314.075177 76.179892 
L 314.119348 83.846919 
L 314.170882 75.051243 
L 314.244502 60.028541 
L 314.296035 69.446919 
L 314.42855 108.015568 
L 314.494808 101.944216 
L 314.531618 99.959351 
L 314.575789 103.812324 
L 314.708304 128.292324 
L 314.7672 120.858811 
L 314.877629 99.142054 
L 314.936525 105.836108 
L 315.113211 118.251243 
L 315.245727 128.175568 
L 315.304622 122.882595 
L 315.385604 113.503135 
L 315.437137 117.900973 
L 315.569652 140.084757 
L 315.628548 134.441514 
L 315.716891 126.307459 
L 315.768425 129.654486 
L 315.981921 142.614486 
L 316.011369 143.003676 
L 316.048179 141.524757 
L 316.143884 124.945297 
L 316.298485 106.925838 
L 316.327933 107.898811 
L 316.570877 129.265297 
L 316.659221 194.493405 
L 316.747564 293.269622 
L 316.799098 251.782054 
L 316.975784 65.866378 
L 317.027318 76.25773 
L 317.07149 83.146378 
L 317.123023 73.572324 
L 317.196643 58.822054 
L 317.248176 69.135568 
L 317.37333 108.716108 
L 317.439587 101.710703 
L 317.483759 98.636108 
L 317.52793 102.605838 
L 317.660445 126.774486 
L 317.719341 119.924757 
L 317.822408 100.971243 
L 317.881304 106.964757 
L 318.050629 116.655568 
L 318.13161 123.232865 
L 318.197868 129.226378 
L 318.242039 125.334486 
L 318.337745 112.646919 
L 318.389278 117.900973 
L 318.521793 141.602595 
L 318.580689 135.142054 
L 318.676394 125.996108 
L 318.720566 129.031784 
L 318.934062 141.135568 
L 318.978234 141.991784 
L 319.015044 140.31827 
L 319.110749 122.415568 
L 319.235902 107.743135 
L 319.272712 109.183135 
L 319.545104 136.270703 
L 319.655533 254.467459 
L 319.699705 292.569081 
L 319.758601 245.126919 
L 319.927925 65.243676 
L 319.979459 75.051243 
L 320.023631 82.173405 
L 320.075164 73.027459 
L 320.148784 58.277189 
L 320.192956 66.566919 
L 320.325471 109.572324 
L 320.391728 102.216649 
L 320.4359 99.025297 
L 320.480072 102.995027 
L 320.605225 127.475027 
L 320.671482 119.418811 
L 320.774549 101.632865 
L 320.826083 106.925838 
L 320.914427 114.787459 
L 320.980684 113.736649 
L 321.017494 115.176649 
L 321.150009 130.471784 
L 321.208904 122.610162 
L 321.282524 112.95827 
L 321.334058 117.395027 
L 321.466573 141.252324 
L 321.53283 133.935568 
L 321.613812 126.035027 
L 321.665345 129.187459 
L 321.878842 141.602595 
L 321.908289 141.913946 
L 321.945099 141.05773 
L 322.026081 129.732324 
L 322.188044 107.042595 
L 322.232215 109.144216 
L 322.504607 142.770162 
L 322.651846 290.506378 
L 322.718104 225.589622 
L 322.880067 66.372324 
L 322.924238 74.623135 
L 322.96841 82.523676 
L 323.019944 74.389622 
L 323.093563 59.600432 
L 323.145097 69.408 
L 323.27025 107.120432 
L 323.336507 101.126919 
L 323.380679 98.208 
L 323.424851 102.489081 
L 323.557366 126.229622 
L 323.616261 119.340973 
L 323.719329 102.683676 
L 323.770862 107.898811 
L 323.859206 115.449081 
L 323.925463 114.631784 
L 323.969635 116.57773 
L 324.087426 131.756108 
L 324.146322 124.633946 
L 324.234665 111.946378 
L 324.286199 117.083676 
L 324.418714 141.252324 
L 324.477609 134.519351 
L 324.565953 125.21773 
L 324.617486 129.148541 
L 324.845707 144.404757 
L 324.867793 143.976649 
L 324.941412 135.803676 
L 325.147547 106.186378 
L 325.191718 108.482595 
L 325.449386 139.423135 
L 325.567178 267.894486 
L 325.603987 292.646919 
L 325.655521 252.832865 
L 325.832208 67.111784 
L 325.891103 77.69773 
L 325.920551 81.472865 
L 325.972085 72.949622 
L 326.045704 57.615568 
L 326.097238 67.462054 
L 326.229753 107.743135 
L 326.296011 100.854486 
L 326.33282 98.441514 
L 326.376992 102.644757 
L 326.502145 126.813405 
L 326.568403 119.185297 
L 326.664108 102.87827 
L 326.723003 108.716108 
L 326.803985 115.604757 
L 326.862881 113.775568 
L 326.877604 113.580973 
L 326.914414 114.670703 
L 327.046929 132.184216 
L 327.113187 122.143135 
L 327.186806 113.464216 
L 327.23834 118.71827 
L 327.356131 140.162595 
L 327.415027 134.402595 
L 327.50337 123.388541 
L 327.562266 128.09773 
L 327.790486 144.832865 
L 327.797848 144.871784 
L 327.812572 144.521514 
L 327.886191 136.73773 
L 328.07024 107.315027 
L 328.129136 110.895568 
L 328.217479 116.499892 
L 328.276375 114.943135 
L 328.313184 114.164757 
L 328.342632 115.83827 
L 328.40889 138.917189 
L 328.556129 292.841514 
L 328.629748 226.484757 
L 328.791711 68.629622 
L 328.835883 75.245838 
L 328.872692 80.227459 
L 328.924226 72.093405 
L 328.997845 58.393946 
L 329.042017 66.022054 
L 329.181894 106.809081 
L 329.248152 99.99827 
L 329.277599 98.285838 
L 329.321771 102.17773 
L 329.454286 126.229622 
L 329.513182 119.652324 
L 329.616249 103.423135 
L 329.667783 108.832865 
L 329.741402 115.565838 
L 329.800298 112.997189 
L 329.829746 112.25773 
L 329.873917 114.437189 
L 329.991708 132.300973 
L 330.050604 124.47827 
L 330.138947 112.608 
L 330.183119 116.811243 
L 330.308272 140.123676 
L 330.37453 132.729081 
L 330.448149 124.672865 
L 330.507045 128.759351 
L 330.727903 143.392865 
L 330.742627 143.548541 
L 330.772075 142.692324 
L 330.860418 131.522595 
L 331.044467 108.560432 
L 331.088639 109.883676 
L 331.191706 113.542054 
L 331.250602 112.919351 
L 331.272687 113.425297 
L 331.324221 122.454486 
L 331.419926 192.041514 
L 331.515632 294.203676 
L 331.567165 250.653405 
L 331.743852 67.111784 
L 331.795386 75.712865 
L 331.824833 79.526919 
L 331.876367 71.276108 
L 331.942625 58.316108 
L 331.994158 66.333405 
L 332.134035 106.380973 
L 332.207655 99.492324 
L 332.222379 98.869622 
L 332.259188 101.516108 
L 332.399065 127.436108 
L 332.465323 119.302054 
L 332.561028 104.123676 
L 332.612562 109.455568 
L 332.678819 115.955027 
L 332.737715 112.646919 
L 332.789249 110.584216 
L 332.83342 113.69773 
L 332.94385 132.768 
L 333.002745 124.128 
L 333.091089 112.218811 
L 333.13526 116.928 
L 333.260413 140.240432 
L 333.319309 133.196108 
L 333.40029 123.699892 
L 333.459186 127.747459 
L 333.680044 144.015568 
L 333.687406 143.976649 
L 333.731578 141.952865 
L 333.864093 123.116108 
L 333.989246 110.117189 
L 334.04078 111.479351 
L 334.092313 112.25773 
L 334.136485 111.323676 
L 334.210105 109.533405 
L 334.239552 111.245838 
L 334.30581 133.702054 
L 334.445687 286.108541 
L 334.467773 294.553946 
L 334.511944 263.691243 
L 334.703355 66.800432 
L 334.762251 75.946378 
L 334.784337 77.347459 
L 334.821146 72.210162 
L 334.894766 59.133405 
L 334.946299 66.372324 
L 335.086176 106.069622 
L 335.17452 100.426378 
L 335.21133 103.61773 
L 335.351207 125.606919 
L 335.410102 119.45773 
L 335.505807 104.551784 
L 335.564703 109.844757 
L 335.630961 115.13773 
L 335.682494 112.140973 
L 335.726666 110.428541 
L 335.770838 112.919351 
L 335.888629 133.896649 
L 335.954886 124.828541 
L 336.035868 113.464216 
L 336.087401 118.757189 
L 336.205193 138.956108 
L 336.256726 132.962595 
L 336.352431 120.15827 
L 336.403965 124.283676 
L 336.632186 144.63827 
L 336.646909 144.326919 
L 336.727891 137.399351 
L 337.037093 111.712865 
L 337.154884 109.299892 
L 337.184332 110.584216 
L 337.250589 130.666378 
L 337.375742 261.978811 
L 337.419914 295.488 
L 337.471448 254.973405 
L 337.655496 66.411243 
L 337.70703 73.144216 
L 337.729116 74.934486 
L 337.773287 69.641514 
L 337.839545 58.97773 
L 337.891079 65.516108 
L 338.030956 105.563676 
L 338.126661 98.869622 
L 338.185557 107.353946 
L 338.295986 126.891243 
L 338.347519 121.637189 
L 338.457949 103.695568 
L 338.516844 109.689081 
L 338.57574 114.826378 
L 338.634635 111.557189 
L 338.678807 109.766919 
L 338.722979 112.530162 
L 338.84077 133.624216 
L 338.907027 124.906378 
L 338.988009 114.553946 
L 339.039543 120.547459 
L 339.149972 139.578811 
L 339.201505 133.818811 
L 339.297211 119.652324 
L 339.356106 124.205838 
L 339.576965 145.066378 
L 339.606413 144.326919 
L 339.70948 132.106378 
L 339.886167 110.778811 
L 339.945062 111.946378 
L 340.018682 112.491243 
L 340.062853 112.063135 
L 340.107025 111.479351 
L 340.129111 112.452324 
L 340.195368 130.004757 
L 340.31316 239.911784 
L 340.372055 292.179892 
L 340.423589 254.117189 
L 340.614999 64.932324 
L 340.666533 72.249081 
L 340.688619 73.650162 
L 340.732791 68.084757 
L 340.791686 61.001514 
L 340.84322 66.87827 
L 341.122974 106.225297 
L 341.248127 126.346378 
L 341.307023 120.313946 
L 341.41009 105.875027 
L 341.461623 109.961514 
L 341.520519 113.658811 
L 341.572053 110.467459 
L 341.623586 107.820973 
L 341.667758 111.012324 
L 341.792911 133.351784 
L 341.859169 124.400432 
L 341.932788 115.098811 
L 341.984322 120.080432 
L 342.102113 138.255568 
L 342.153647 132.378811 
L 342.24199 120.197189 
L 342.300885 124.439351 
L 342.536468 144.404757 
L 342.558554 143.782054 
L 342.676345 130.627459 
L 342.897203 113.464216 
L 343.059166 109.37773 
L 343.095976 111.596108 
L 343.169595 138.839351 
L 343.324196 290.81773 
L 343.405178 216.171243 
L 343.567141 65.788541 
L 343.611312 71.159351 
L 343.648122 74.117189 
L 343.692294 68.824216 
L 343.743827 63.842595 
L 343.795361 67.851243 
L 344.200268 124.672865 
L 344.214992 124.166919 
L 344.354869 106.225297 
L 344.457936 113.775568 
L 344.465298 113.892324 
L 344.494746 112.763676 
L 344.575727 107.782054 
L 344.619899 111.51827 
L 344.745052 133.818811 
L 344.803948 126.073946 
L 344.884929 114.826378 
L 344.936463 120.197189 
L 345.054254 137.983135 
L 345.105788 132.495568 
L 345.194131 120.080432 
L 345.253027 123.855568 
L 345.473885 144.599351 
L 345.518057 142.614486 
L 346.011307 106.614486 
L 346.033393 107.665297 
L 346.099651 126.969081 
L 346.224804 245.593946 
L 346.276337 291.790703 
L 346.335233 247.968 
L 346.519282 64.504216 
L 346.570815 70.108541 
L 346.600263 71.859892 
L 346.644435 67.695568 
L 346.70333 63.219892 
L 346.747502 66.644757 
L 347.159771 125.801514 
L 347.181857 124.672865 
L 347.321734 106.614486 
L 347.410077 111.557189 
L 347.424801 111.712865 
L 347.461611 110.311784 
L 347.520507 107.898811 
L 347.557316 110.156108 
L 347.689831 132.729081 
L 347.763451 123.77773 
L 347.829708 116.032865 
L 347.881242 121.014486 
L 347.999033 137.43827 
L 348.050567 132.41773 
L 348.146272 119.963676 
L 348.205168 123.544216 
L 348.433388 143.431784 
L 348.47756 141.252324 
L 348.956086 108.443676 
L 348.978172 109.494486 
L 349.04443 127.436108 
L 349.169583 243.219892 
L 349.228479 291.907459 
L 349.280012 250.225297 
L 349.471423 64.192865 
L 349.522956 70.147459 
L 349.545042 71.353946 
L 349.596576 67.033946 
L 349.64811 63.725838 
L 349.692281 67.228541 
L 350.10455 125.529081 
L 350.133998 123.738811 
L 350.266513 106.731243 
L 350.340133 111.635027 
L 350.369581 112.685838 
L 350.421114 110.117189 
L 350.472648 107.704216 
L 350.509458 110.311784 
L 350.641973 133.351784 
L 350.70823 124.089081 
L 350.78185 114.281514 
L 350.833383 120.430703 
L 350.951174 137.477189 
L 350.995346 133.390703 
L 351.091051 119.808 
L 351.157309 124.089081 
L 351.356082 142.925838 
L 351.414977 141.369081 
L 351.584302 123.622054 
L 351.768351 112.179892 
L 351.893504 108.910703 
L 351.91559 109.650162 
L 351.974485 122.298811 
L 352.092276 208.932324 
L 352.173258 290.389622 
L 352.232153 246.138811 
L 352.423564 62.947459 
L 352.475098 68.902054 
L 352.504545 70.380973 
L 352.556079 66.255568 
L 352.600251 64.037189 
L 352.644422 67.539892 
L 353.056692 124.906378 
L 353.078777 123.972324 
L 353.226016 108.015568 
L 353.321722 111.829622 
L 353.417427 107.665297 
L 353.454237 110.428541 
L 353.586752 132.923676 
L 353.653009 124.166919 
L 353.726629 114.203676 
L 353.778162 119.691243 
L 353.895954 136.076108 
L 353.947487 131.639351 
L 354.035831 120.313946 
L 354.094726 123.855568 
L 354.308223 142.575568 
L 354.359756 140.979892 
L 354.536443 122.999351 
L 354.705768 113.775568 
L 354.845645 108.716108 
L 354.875093 110.07827 
L 354.94135 127.35827 
L 355.066503 237.576649 
L 355.125399 288.793946 
L 355.176933 252.365838 
L 355.375705 63.803676 
L 355.427239 70.614486 
L 355.456687 72.755027 
L 355.515582 68.240432 
L 355.559754 65.671784 
L 355.603926 69.485838 
L 355.979385 123.232865 
L 356.008833 124.556108 
L 356.053004 121.559351 
L 356.178157 107.782054 
L 356.251777 110.584216 
L 356.266501 110.662054 
L 356.295949 109.922595 
L 356.362206 106.964757 
L 356.399016 109.222054 
L 356.538893 133.468541 
L 356.612512 123.03827 
L 356.67877 115.13773 
L 356.730304 120.469622 
L 356.848095 136.115027 
L 356.899628 131.483676 
L 356.987972 120.002595 
L 357.046867 123.505297 
L 357.238278 142.49773 
L 357.311897 139.851243 
L 357.51067 123.505297 
L 357.753614 107.392865 
L 357.797786 106.225297 
L 357.834596 108.288 
L 357.915577 136.387459 
L 358.07754 291.868541 
L 358.158522 216.365838 
L 358.320484 63.453405 
L 358.364656 68.940973 
L 358.408828 73.650162 
L 358.467723 67.539892 
L 358.519257 63.842595 
L 358.563429 68.979892 
L 358.821097 104.707459 
L 358.968336 125.684757 
L 359.049317 117.27827 
L 359.145023 108.560432 
L 359.203918 109.844757 
L 359.218642 109.883676 
L 359.233366 109.650162 
L 359.314347 106.886919 
L 359.343795 108.63827 
L 359.491034 133.11827 
L 359.564654 121.948541 
L 359.623549 114.592865 
L 359.682445 120.586378 
L 359.800236 135.570162 
L 359.844408 131.989622 
L 359.940113 120.391784 
L 359.999009 123.660973 
L 360.197781 142.731243 
L 360.278763 139.539892 
L 360.742565 106.614486 
L 360.794099 111.245838 
L 360.889804 157.248 
L 361.022319 291.168 
L 361.088577 237.343135 
L 361.272626 63.336649 
L 361.316797 69.680432 
L 361.353607 73.455568 
L 361.412503 67.773405 
L 361.456674 64.309622 
L 361.508208 69.446919 
L 361.765876 104.123676 
L 361.913115 124.984216 
L 362.001458 116.460973 
L 362.097164 107.392865 
L 362.163421 108.249081 
L 362.170783 108.288 
L 362.200231 107.93773 
L 362.251765 106.770162 
L 362.288574 108.210162 
L 362.38428 127.786378 
L 362.435813 133.351784 
L 362.487347 126.891243 
L 362.57569 113.619892 
L 362.627224 118.835027 
L 362.752377 136.659892 
L 362.803911 132.145297 
L 362.892254 121.831784 
L 362.95115 125.412324 
L 363.127836 140.940973 
L 363.194094 139.033946 
L 363.370781 127.124757 
L 363.628449 110.623135 
L 363.687344 108.988541 
L 363.731516 110.934486 
L 363.812498 137.710703 
L 363.97446 286.809081 
L 364.055442 215.743135 
L 364.224767 64.231784 
L 364.268938 71.003676 
L 364.305748 75.051243 
L 364.364644 68.707459 
L 364.416177 64.231784 
L 364.460349 68.785297 
L 364.732741 104.979892 
L 364.87998 124.205838 
L 364.9536 118.523676 
L 365.137648 108.326919 
L 365.203906 107.470703 
L 365.233354 108.443676 
L 365.314335 122.843676 
L 365.380593 132.729081 
L 365.432126 127.552865 
L 365.527831 114.320432 
L 365.579365 119.574486 
L 365.704518 136.426378 
L 365.756052 131.483676 
L 365.844395 120.975568 
L 365.903291 124.128 
L 366.079978 141.602595 
L 366.153597 138.800432 
L 366.632124 108.716108 
L 366.683657 111.479351 
L 366.764639 137.671784 
L 366.897154 269.100973 
L 366.926602 286.108541 
L 366.978135 255.129081 
L 367.176908 62.55827 
L 367.235803 73.027459 
L 367.265251 75.596108 
L 367.316785 69.991784 
L 367.368318 65.243676 
L 367.419852 70.692324 
L 367.574453 105.369081 
L 367.670158 103.072865 
L 367.75114 115.760432 
L 367.839483 125.957189 
L 367.891017 122.143135 
L 368.111875 106.731243 
L 368.148685 106.49773 
L 368.170771 106.925838 
L 368.237028 115.332324 
L 368.340096 132.262054 
L 368.391629 125.723676 
L 368.479973 113.308541 
L 368.531506 118.71827 
L 368.656659 137.516108 
L 368.708193 133.040432 
L 368.803898 121.792865 
L 368.862794 124.945297 
L 369.024757 141.252324 
L 369.127824 138.917189 
L 369.238253 133.390703 
L 369.554817 108.210162 
L 369.591627 107.276108 
L 369.628437 108.63827 
L 369.694694 125.957189 
L 369.812485 225.161514 
L 369.878743 288.326919 
L 369.930276 253.37773 
L 370.121687 63.803676 
L 370.180583 74.428541 
L 370.21003 77.69773 
L 370.268926 70.458811 
L 370.327822 63.725838 
L 370.379355 69.75827 
L 370.526594 104.006919 
L 370.614938 102.917189 
L 370.695919 116.227459 
L 370.784262 127.436108 
L 370.835796 123.738811 
L 371.034569 105.641514 
L 371.071378 105.75827 
L 371.100826 105.797189 
L 371.144998 108.015568 
L 371.284875 132.456649 
L 371.365856 120.625297 
L 371.424752 113.542054 
L 371.483647 119.068541 
L 371.616162 138.17773 
L 371.667696 133.040432 
L 371.763401 122.182054 
L 371.814935 124.867459 
L 371.976898 141.913946 
L 372.079965 138.956108 
L 372.271376 123.193946 
L 372.521682 105.291243 
L 372.529044 105.369081 
L 372.573216 108.093405 
L 372.654197 131.522595 
L 372.771988 240.456649 
L 372.830884 289.689081 
L 372.882418 251.976649 
L 373.073828 64.309622 
L 373.132724 74.000432 
L 373.162172 76.296649 
L 373.206343 70.731243 
L 373.279963 62.013405 
L 373.324134 67.851243 
L 373.478735 104.863135 
L 373.574441 104.785297 
L 373.743765 127.124757 
L 373.817385 119.224216 
L 373.98671 105.330162 
L 374.008796 105.446919 
L 374.082415 107.042595 
L 374.170758 122.843676 
L 374.237016 131.911784 
L 374.28855 126.190703 
L 374.376893 113.503135 
L 374.435789 119.107459 
L 374.568304 137.827459 
L 374.619837 132.690162 
L 374.715543 122.259892 
L 374.767076 125.334486 
L 374.943763 141.252324 
L 375.017382 140.396108 
L 375.164621 130.97773 
L 375.459099 105.174486 
L 375.488547 105.797189 
L 375.554805 113.69773 
L 375.657872 165.420973 
L 375.783025 289.027459 
L 375.841921 240.145297 
L 376.025969 64.153946 
L 376.077503 72.988541 
L 376.114313 76.179892 
L 376.158484 70.380973 
L 376.224742 61.974486 
L 376.276276 68.629622 
L 376.423515 105.524757 
L 376.504496 102.605838 
L 376.55603 107.665297 
L 376.688545 128.058811 
L 376.74744 122.960432 
L 376.909403 105.135568 
L 376.953575 105.991784 
L 377.056642 111.206919 
L 377.181795 132.145297 
L 377.255415 122.688 
L 377.336396 112.296649 
L 377.38793 117.550703 
L 377.520445 138.060973 
L 377.571978 133.11827 
L 377.660322 122.065297 
L 377.719217 124.984216 
L 377.940076 141.75827 
L 377.984248 140.473946 
L 378.160934 125.490162 
L 378.41124 105.213405 
L 378.433326 105.797189 
L 378.506946 114.476108 
L 378.610013 165.810162 
L 378.727804 288.404757 
L 378.794062 238.705297 
L 378.97811 63.258811 
L 379.029644 72.482595 
L 379.066454 76.024216 
L 379.117988 69.213405 
L 379.184245 62.402595 
L 379.228417 68.045838 
L 379.375656 105.485838 
L 379.471361 103.929081 
L 379.567066 119.885838 
L 379.640686 128.409081 
L 379.692219 124.672865 
L 379.854182 104.979892 
L 379.913078 106.653405 
L 380.030869 115.293405 
L 380.133936 131.989622 
L 380.192832 125.568 
L 380.288537 112.530162 
L 380.340071 117.900973 
L 380.472586 137.671784 
L 380.52412 132.729081 
L 380.612463 122.026378 
L 380.671359 125.996108 
L 380.848045 141.719351 
L 380.906941 140.824216 
L 381.068904 131.250162 
L 381.35602 103.929081 
L 381.400191 105.75827 
L 381.473811 117.356108 
L 381.576878 178.848 
L 381.687307 287.976649 
L 381.746203 241.546378 
L 381.930252 65.049081 
L 381.981785 73.572324 
L 382.011233 76.569081 
L 382.062767 70.225297 
L 382.136386 61.546378 
L 382.180558 67.812324 
L 382.327797 104.902054 
L 382.41614 103.812324 
L 382.497122 116.188541 
L 382.592827 129.148541 
L 382.644361 125.334486 
L 382.813685 103.228541 
L 382.879943 105.446919 
L 382.975648 113.230703 
L 383.093439 131.795027 
L 383.144973 125.723676 
L 383.233316 114.048 
L 383.28485 118.562595 
L 383.424727 137.788541 
L 383.476261 132.573405 
L 383.564604 121.248 
L 383.6235 124.400432 
L 383.822272 141.524757 
L 383.88853 140.123676 
L 384.006321 134.519351 
L 384.286075 104.473946 
L 384.337609 107.042595 
L 384.433314 122.960432 
L 384.543743 197.529081 
L 384.632087 286.49773 
L 384.690982 247.539892 
L 384.875031 64.815568 
L 384.941288 74.934486 
L 384.963374 76.25773 
L 385.007546 70.458811 
L 385.081165 59.600432 
L 385.132699 66.761514 
L 385.2873 106.49773 
L 385.368281 105.524757 
L 385.441901 115.916108 
L 385.544968 129.654486 
L 385.596502 124.906378 
L 385.758465 101.282595 
L 385.81736 104.006919 
L 385.964599 121.715027 
L 386.038219 131.172324 
L 386.089752 126.385297 
L 386.185458 114.242595 
L 386.236991 118.757189 
L 386.376868 137.788541 
L 386.428402 132.300973 
L 386.516745 121.676108 
L 386.575641 124.906378 
L 386.796499 142.419892 
L 386.855395 140.473946 
L 386.995272 130.160432 
L 387.245578 102.605838 
L 387.297112 104.863135 
L 387.392817 121.753946 
L 387.503246 202.277189 
L 387.59159 289.455568 
L 387.643123 251.93773 
L 387.827172 65.632865 
L 387.89343 74.662054 
L 387.915515 75.673946 
L 387.952325 71.19827 
L 388.033307 58.938811 
L 388.08484 66.605838 
L 388.232079 107.898811 
L 388.313061 105.05773 
L 388.364594 109.883676 
L 388.497109 130.471784 
L 388.556005 124.089081 
L 388.703244 101.049081 
L 388.762139 103.656649 
L 388.931464 124.244757 
L 388.997722 131.094486 
L 389.049255 125.723676 
L 389.137599 114.826378 
L 389.196494 119.185297 
L 389.329009 136.73773 
L 389.380543 131.444757 
L 389.468886 121.286919 
L 389.527782 124.595027 
L 389.741278 142.770162 
L 389.792812 141.75827 
L 389.910603 133.624216 
L 390.182995 103.462054 
L 390.234529 106.030703 
L 390.337596 123.660973 
L 390.448025 203.055568 
L 390.536369 287.315027 
L 390.587903 252.949622 
L 390.779313 64.698811 
L 390.845571 74.039351 
L 390.860295 74.934486 
L 390.904466 70.030703 
L 390.978086 58.97773 
L 391.029619 65.555027 
L 391.18422 107.470703 
L 391.272564 106.069622 
L 391.353545 119.263135 
L 391.441888 131.133405 
L 391.493422 125.840432 
L 391.648023 99.803676 
L 391.714281 103.500973 
L 391.942501 131.328 
L 392.023482 121.792865 
L 392.08974 114.865297 
L 392.141274 118.406919 
L 392.281151 137.360432 
L 392.340046 130.666378 
L 392.413666 122.532324 
L 392.479923 125.606919 
L 392.686058 142.848 
L 392.752315 140.979892 
L 392.88483 130.860973 
L 393.127775 101.983135 
L 393.179308 104.201514 
L 393.282375 120.236108 
L 393.392805 193.870703 
L 393.48851 288.365838 
L 393.540044 253.37773 
L 393.731454 66.683676 
L 393.797712 75.090162 
L 393.812436 75.635027 
L 393.841884 72.871784 
L 393.930227 57.849081 
L 393.981761 64.659892 
L 394.136361 108.132324 
L 394.224705 106.108541 
L 394.313048 120.586378 
L 394.39403 131.172324 
L 394.445563 126.073946 
L 394.600164 99.920432 
L 394.666422 103.306378 
L 394.843108 125.801514 
L 394.894642 130.666378 
L 394.946176 126.346378 
L 395.041881 115.916108 
L 395.093415 119.808 
L 395.22593 137.710703 
L 395.284825 131.405838 
L 395.373169 122.026378 
L 395.424702 124.322595 
L 395.667647 141.952865 
L 395.741266 140.668541 
L 395.7928 137.788541 
L 396.072554 102.722595 
L 396.168259 107.509622 
L 396.249241 124.828541 
L 396.35967 214.692324 
L 396.440651 288.015568 
L 396.492185 250.809081 
L 396.683595 67.500973 
L 396.742491 74.545297 
L 396.757215 75.440432 
L 396.801387 70.575568 
L 396.882368 57.343135 
L 396.933902 65.126919 
L 397.081141 108.093405 
L 397.162122 105.952865 
L 397.221018 112.024216 
L 397.346171 131.289081 
L 397.397704 125.256649 
L 397.537581 99.219892 
L 397.603839 102.87827 
L 397.846783 130.588541 
L 397.920403 122.960432 
L 397.994022 116.149622 
L 398.045556 119.496649 
L 398.178071 137.555027 
L 398.236966 131.561514 
L 398.332672 122.999351 
L 398.384205 125.062054 
L 398.487273 136.465297 
L 398.487273 136.465297 
" clip-path="url(#pfe8fec9e35)" style="fill: none; stroke: #1f77b4; stroke-width: 1.5; stroke-linecap: square"/>
   </g>
   <g id="patch_3">
    <path d="M 57.6 307.584 
L 57.6 41.472 
" style="fill: none; stroke: #000000; stroke-width: 0.8; stroke-linejoin: miter; stroke-linecap: square"/>
   </g>
   <g id="patch_4">
    <path d="M 414.72 307.584 
L 414.72 41.472 
" style="fill: none; stroke: #000000; stroke-width: 0.8; stroke-linejoin: miter; stroke-linecap: square"/>
   </g>
   <g id="patch_5">
    <path d="M 57.6 307.584 
L 414.72 307.584 
" style="fill: none; stroke: #000000; stroke-width: 0.8; stroke-linejoin: miter; stroke-linecap: square"/>
   </g>
   <g id="patch_6">
    <path d="M 57.6 41.472 
L 414.72 41.472 
" style="fill: none; stroke: #000000; stroke-width: 0.8; stroke-linejoin: miter; stroke-linecap: square"/>
   </g>
   <g id="text_16">
    <text style="font: 12px 'IPAexGothic'; text-anchor: middle" x="236.16" y="35.472" transform="rotate(-0 236.16 35.472)">"057_A2.wav"の波形グラフ</text>
   </g>
  </g>
 </g>
 <defs>
  <clipPath id="pfe8fec9e35">
   <rect x="57.6" y="41.472" width="357.12" height="266.112"/>
  </clipPath>
 </defs>
</svg>
