<?xml version="1.0" encoding="utf-8" standalone="no"?>
<!DOCTYPE svg PUBLIC "-//W3C//DTD SVG 1.1//EN"
  "http://www.w3.org/Graphics/SVG/1.1/DTD/svg11.dtd">
<svg xmlns:xlink="http://www.w3.org/1999/xlink" width="460.8pt" height="345.6pt" viewBox="0 0 460.8 345.6" xmlns="http://www.w3.org/2000/svg" version="1.1">
 <metadata>
  <rdf:RDF xmlns:dc="http://purl.org/dc/elements/1.1/" xmlns:cc="http://creativecommons.org/ns#" xmlns:rdf="http://www.w3.org/1999/02/22-rdf-syntax-ns#">
   <cc:Work>
    <dc:type rdf:resource="http://purl.org/dc/dcmitype/StillImage"/>
    <dc:date>2022-11-28T11:28:41.192893</dc:date>
    <dc:format>image/svg+xml</dc:format>
    <dc:creator>
     <cc:Agent>
      <dc:title>Matplotlib v3.6.2, https://matplotlib.org/</dc:title>
     </cc:Agent>
    </dc:creator>
   </cc:Work>
  </rdf:RDF>
 </metadata>
 <defs>
  <style type="text/css">*{stroke-linejoin: round; stroke-linecap: butt}</style>
 </defs>
 <g id="figure_1">
  <g id="patch_1">
   <path d="M 0 345.6 
L 460.8 345.6 
L 460.8 0 
L 0 0 
z
" style="fill: #ffffff"/>
  </g>
  <g id="axes_1">
   <g id="patch_2">
    <path d="M 57.6 307.584 
L 414.72 307.584 
L 414.72 41.472 
L 57.6 41.472 
z
" style="fill: #ffffff"/>
   </g>
   <g id="matplotlib.axis_1">
    <g id="xtick_1">
     <g id="line2d_1">
      <defs>
       <path id="m671b9e3b80" d="M 0 0 
L 0 3.5 
" style="stroke: #000000; stroke-width: 0.8"/>
      </defs>
      <g>
       <use xlink:href="#m671b9e3b80" x="73.832727" y="307.584" style="stroke: #000000; stroke-width: 0.8"/>
      </g>
     </g>
     <g id="text_1">
      <text style="font: 10px 'IPAexGothic'; text-anchor: middle" x="73.832727" y="322.074625" transform="rotate(-0 73.832727 322.074625)">0.0</text>
     </g>
    </g>
    <g id="xtick_2">
     <g id="line2d_2">
      <g>
       <use xlink:href="#m671b9e3b80" x="138.765109" y="307.584" style="stroke: #000000; stroke-width: 0.8"/>
      </g>
     </g>
     <g id="text_2">
      <text style="font: 10px 'IPAexGothic'; text-anchor: middle" x="138.765109" y="322.074625" transform="rotate(-0 138.765109 322.074625)">0.2</text>
     </g>
    </g>
    <g id="xtick_3">
     <g id="line2d_3">
      <g>
       <use xlink:href="#m671b9e3b80" x="203.69749" y="307.584" style="stroke: #000000; stroke-width: 0.8"/>
      </g>
     </g>
     <g id="text_3">
      <text style="font: 10px 'IPAexGothic'; text-anchor: middle" x="203.69749" y="322.074625" transform="rotate(-0 203.69749 322.074625)">0.4</text>
     </g>
    </g>
    <g id="xtick_4">
     <g id="line2d_4">
      <g>
       <use xlink:href="#m671b9e3b80" x="268.629872" y="307.584" style="stroke: #000000; stroke-width: 0.8"/>
      </g>
     </g>
     <g id="text_4">
      <text style="font: 10px 'IPAexGothic'; text-anchor: middle" x="268.629872" y="322.074625" transform="rotate(-0 268.629872 322.074625)">0.6</text>
     </g>
    </g>
    <g id="xtick_5">
     <g id="line2d_5">
      <g>
       <use xlink:href="#m671b9e3b80" x="333.562253" y="307.584" style="stroke: #000000; stroke-width: 0.8"/>
      </g>
     </g>
     <g id="text_5">
      <text style="font: 10px 'IPAexGothic'; text-anchor: middle" x="333.562253" y="322.074625" transform="rotate(-0 333.562253 322.074625)">0.8</text>
     </g>
    </g>
    <g id="xtick_6">
     <g id="line2d_6">
      <g>
       <use xlink:href="#m671b9e3b80" x="398.494635" y="307.584" style="stroke: #000000; stroke-width: 0.8"/>
      </g>
     </g>
     <g id="text_6">
      <text style="font: 10px 'IPAexGothic'; text-anchor: middle" x="398.494635" y="322.074625" transform="rotate(-0 398.494635 322.074625)">1.0</text>
     </g>
    </g>
    <g id="text_7">
     <text style="font: 10px 'IPAexGothic'; text-anchor: middle" x="236.16" y="335.924625" transform="rotate(-0 236.16 335.924625)">時間[s]</text>
    </g>
   </g>
   <g id="matplotlib.axis_2">
    <g id="ytick_1">
     <g id="line2d_7">
      <defs>
       <path id="m6c4f9f8f9e" d="M 0 0 
L -3.5 0 
" style="stroke: #000000; stroke-width: 0.8"/>
      </defs>
      <g>
       <use xlink:href="#m6c4f9f8f9e" x="57.6" y="302.380036" style="stroke: #000000; stroke-width: 0.8"/>
      </g>
     </g>
     <g id="text_8">
      <text style="font: 10px 'IPAexGothic'; text-anchor: end" x="50.6" y="306.125349" transform="rotate(-0 50.6 306.125349)">−4000</text>
     </g>
    </g>
    <g id="ytick_2">
     <g id="line2d_8">
      <g>
       <use xlink:href="#m6c4f9f8f9e" x="57.6" y="270.619501" style="stroke: #000000; stroke-width: 0.8"/>
      </g>
     </g>
     <g id="text_9">
      <text style="font: 10px 'IPAexGothic'; text-anchor: end" x="50.6" y="274.364813" transform="rotate(-0 50.6 274.364813)">−3000</text>
     </g>
    </g>
    <g id="ytick_3">
     <g id="line2d_9">
      <g>
       <use xlink:href="#m6c4f9f8f9e" x="57.6" y="238.858965" style="stroke: #000000; stroke-width: 0.8"/>
      </g>
     </g>
     <g id="text_10">
      <text style="font: 10px 'IPAexGothic'; text-anchor: end" x="50.6" y="242.604277" transform="rotate(-0 50.6 242.604277)">−2000</text>
     </g>
    </g>
    <g id="ytick_4">
     <g id="line2d_10">
      <g>
       <use xlink:href="#m6c4f9f8f9e" x="57.6" y="207.098429" style="stroke: #000000; stroke-width: 0.8"/>
      </g>
     </g>
     <g id="text_11">
      <text style="font: 10px 'IPAexGothic'; text-anchor: end" x="50.6" y="210.843742" transform="rotate(-0 50.6 210.843742)">−1000</text>
     </g>
    </g>
    <g id="ytick_5">
     <g id="line2d_11">
      <g>
       <use xlink:href="#m6c4f9f8f9e" x="57.6" y="175.337894" style="stroke: #000000; stroke-width: 0.8"/>
      </g>
     </g>
     <g id="text_12">
      <text style="font: 10px 'IPAexGothic'; text-anchor: end" x="50.6" y="179.083206" transform="rotate(-0 50.6 179.083206)">0</text>
     </g>
    </g>
    <g id="ytick_6">
     <g id="line2d_12">
      <g>
       <use xlink:href="#m6c4f9f8f9e" x="57.6" y="143.577358" style="stroke: #000000; stroke-width: 0.8"/>
      </g>
     </g>
     <g id="text_13">
      <text style="font: 10px 'IPAexGothic'; text-anchor: end" x="50.6" y="147.322671" transform="rotate(-0 50.6 147.322671)">1000</text>
     </g>
    </g>
    <g id="ytick_7">
     <g id="line2d_13">
      <g>
       <use xlink:href="#m6c4f9f8f9e" x="57.6" y="111.816822" style="stroke: #000000; stroke-width: 0.8"/>
      </g>
     </g>
     <g id="text_14">
      <text style="font: 10px 'IPAexGothic'; text-anchor: end" x="50.6" y="115.562135" transform="rotate(-0 50.6 115.562135)">2000</text>
     </g>
    </g>
    <g id="ytick_8">
     <g id="line2d_14">
      <g>
       <use xlink:href="#m6c4f9f8f9e" x="57.6" y="80.056287" style="stroke: #000000; stroke-width: 0.8"/>
      </g>
     </g>
     <g id="text_15">
      <text style="font: 10px 'IPAexGothic'; text-anchor: end" x="50.6" y="83.801599" transform="rotate(-0 50.6 83.801599)">3000</text>
     </g>
    </g>
    <g id="ytick_9">
     <g id="line2d_15">
      <g>
       <use xlink:href="#m6c4f9f8f9e" x="57.6" y="48.295751" style="stroke: #000000; stroke-width: 0.8"/>
      </g>
     </g>
     <g id="text_16">
      <text style="font: 10px 'IPAexGothic'; text-anchor: end" x="50.6" y="52.041064" transform="rotate(-0 50.6 52.041064)">4000</text>
     </g>
    </g>
    <g id="text_17">
     <text style="font: 10px 'IPAexGothic'; text-anchor: middle" x="12.723438" y="174.528" transform="rotate(-90 12.723438 174.528)">振幅</text>
    </g>
   </g>
   <g id="line2d_16">
    <path d="M 73.832727 175.401415 
L 73.854813 175.464936 
L 74.06831 177.021202 
L 74.097757 176.703597 
L 74.149291 176.195428 
L 74.222911 176.385991 
L 74.52475 179.625566 
L 74.267082 176.258949 
L 74.568922 179.435003 
L 74.576284 179.371482 
L 74.627818 179.84789 
L 74.694075 180.800706 
L 74.745609 180.038453 
L 74.782419 178.990355 
L 74.885486 176.100147 
L 74.929658 176.862399 
L 74.937019 176.830639 
L 74.981191 177.116484 
L 75.040087 177.052963 
L 75.076896 176.89416 
L 75.12843 177.211765 
L 75.238859 178.291623 
L 75.268307 177.974018 
L 75.511251 174.289796 
L 75.614319 174.734443 
L 75.76892 175.877823 
L 76.210636 182.960422 
L 76.232722 183.43683 
L 76.29898 182.452254 
L 76.394685 177.116484 
L 76.622906 160.982132 
L 76.659715 161.426779 
L 76.762783 167.39776 
L 77.020451 192.806188 
L 77.079346 190.646472 
L 77.241309 172.987614 
L 77.337015 169.652758 
L 77.388548 170.224447 
L 77.749284 180.038453 
L 77.764008 180.514861 
L 77.92597 185.18366 
L 77.948056 185.469505 
L 77.992228 184.294365 
L 78.22781 172.447685 
L 78.249896 172.797051 
L 78.485478 177.719934 
L 78.581184 180.292537 
L 78.632717 181.372395 
L 78.676889 180.101974 
L 78.912471 172.987614 
L 79.13333 178.259863 
L 79.155416 178.291623 
L 79.162778 178.037539 
L 79.221673 177.307047 
L 79.273207 177.942258 
L 79.346826 178.831553 
L 79.413084 178.418666 
L 79.523513 175.560217 
L 79.597133 173.432262 
L 79.648666 174.162754 
L 79.707562 175.242612 
L 79.759095 174.448599 
L 79.840077 173.654585 
L 79.884249 173.876909 
L 80.090383 180.737185 
L 79.913696 173.845148 
L 80.171365 178.577468 
L 80.237622 176.830639 
L 80.296518 177.211765 
L 80.392223 178.355145 
L 80.429033 178.259863 
L 80.465842 178.0693 
L 80.487928 178.577468 
L 80.49529 178.577468 
L 80.635167 182.166409 
L 80.745596 181.340635 
L 80.959093 173.400501 
L 81.010627 173.94043 
L 81.209399 176.608315 
L 81.216761 176.481273 
L 81.253571 176.608315 
L 81.275657 176.385991 
L 81.415534 171.621911 
L 81.489153 173.464022 
L 81.680564 179.085637 
L 81.687926 179.022116 
L 81.938232 173.90867 
L 82.026575 174.861486 
L 82.129643 178.513947 
L 82.335777 191.504006 
L 82.409397 186.136476 
L 82.674427 150.278831 
L 82.748046 154.661785 
L 82.865837 175.401415 
L 83.06461 206.52674 
L 83.094058 205.129276 
L 83.211849 185.755349 
L 83.432707 158.441289 
L 83.454793 158.885936 
L 83.506327 161.966708 
L 83.822891 190.074782 
L 83.918596 186.803447 
L 84.27197 170.891419 
L 84.375037 172.924093 
L 84.662153 185.18366 
L 84.735772 183.182746 
L 85.022888 172.257122 
L 85.03025 172.288882 
L 85.06706 171.971277 
L 85.177489 171.55839 
L 85.214299 171.717193 
L 85.376262 172.638248 
L 85.552949 171.272545 
L 85.56031 171.304306 
L 85.589758 171.272545 
L 85.59712 171.463108 
L 85.994665 183.944999 
L 86.075647 182.738098 
L 86.215524 176.576555 
L 86.362763 165.142762 
L 86.414296 166.699028 
L 86.50264 173.559304 
L 86.69405 187.660981 
L 86.760308 185.691828 
L 86.981166 173.432262 
L 87.084234 176.195428 
L 87.165215 177.688173 
L 87.202025 176.862399 
L 87.363988 169.716279 
L 87.422883 171.526629 
L 87.614294 181.118311 
L 87.709999 180.133735 
L 87.717361 180.133735 
L 87.849876 174.893246 
L 87.982391 169.081068 
L 88.019201 169.81156 
L 88.151716 181.213593 
L 88.328403 196.966818 
L 88.372575 196.395129 
L 88.453556 190.074782 
L 88.711224 140.845952 
L 88.799568 147.388622 
L 89.130855 217.166519 
L 89.219199 202.143786 
L 89.447419 149.421297 
L 89.484229 151.041084 
L 89.60202 164.856917 
L 89.86705 196.268087 
L 89.918584 193.917807 
L 90.301405 168.699942 
L 90.352939 169.462195 
L 90.463368 176.036625 
L 90.684226 190.201824 
L 90.713674 189.34429 
L 90.809379 179.149158 
L 91.059686 156.535657 
L 91.148029 160.537484 
L 91.435145 186.295278 
L 91.516126 183.309788 
L 91.766433 173.114656 
L 91.79588 173.273459 
L 91.840052 173.813388 
L 91.898948 173.33698 
L 91.943119 173.082896 
L 91.979929 173.527543 
L 92.200788 181.02303 
L 92.289131 179.87965 
L 92.421646 175.560217 
L 92.47318 177.084723 
L 92.66459 190.55119 
L 92.73821 186.803447 
L 92.951706 173.495783 
L 93.032688 174.035712 
L 93.062135 174.003951 
L 93.135755 175.71902 
L 93.319804 183.341549 
L 93.371337 182.293451 
L 93.49649 168.541139 
L 93.592196 161.013892 
L 93.636367 164.062904 
L 93.849864 188.804361 
L 93.916121 185.564786 
L 94.114894 170.002124 
L 94.166428 171.907756 
L 94.313667 190.678232 
L 94.387286 197.03034 
L 94.43882 193.346117 
L 94.689126 139.003841 
L 94.784831 149.103691 
L 95.086671 220.914262 
L 95.167653 207.13019 
L 95.388511 147.102777 
L 95.462131 150.501155 
L 95.719799 183.40507 
L 95.8744 202.080265 
L 95.918571 200.841604 
L 96.087896 184.072041 
L 96.323478 161.903187 
L 96.360288 162.824243 
L 96.463355 175.14733 
L 96.676852 199.793506 
L 96.7063 198.935972 
L 96.831453 179.530284 
L 97.030225 140.464826 
L 97.089121 144.561935 
L 97.361513 192.075696 
L 97.442495 184.770773 
L 97.626543 154.534743 
L 97.692801 159.14002 
L 98.208137 208.90878 
L 98.215499 208.877019 
L 98.267033 204.684629 
L 98.473167 166.953112 
L 98.561511 173.781627 
L 98.716112 183.40507 
L 98.760283 182.642817 
L 98.90016 178.450426 
L 99.128381 162.125511 
L 99.202 166.730788 
L 99.415497 190.233585 
L 99.50384 187.660981 
L 99.665803 183.278028 
L 99.709975 183.786196 
L 99.739422 183.786196 
L 99.820404 180.514861 
L 100.011814 163.999382 
L 100.092796 168.509378 
L 100.262121 191.472246 
L 100.321016 196.45865 
L 100.365188 192.012175 
L 100.571322 129.094554 
L 100.667028 142.084613 
L 101.027763 225.805385 
L 101.108745 211.068496 
L 101.329603 145.355948 
L 101.381137 147.896791 
L 101.535738 169.620997 
L 101.793406 206.939627 
L 101.867025 202.429631 
L 102.257209 160.759808 
L 102.294018 161.617342 
L 102.397086 173.114656 
L 102.654754 195.632876 
L 102.787269 202.810757 
L 102.83144 201.79442 
L 102.90506 190.043022 
L 103.162728 106.195208 
L 103.24371 121.472025 
L 103.501378 219.548559 
L 103.582359 200.04759 
L 103.729598 165.174522 
L 103.766408 167.524802 
L 103.96518 196.236326 
L 104.046162 188.804361 
L 104.112419 184.993096 
L 104.163953 187.5657 
L 104.259658 196.077523 
L 104.318554 192.488583 
L 104.546774 175.623738 
L 104.56886 175.909583 
L 104.620394 177.846976 
L 104.686651 179.625566 
L 104.738185 178.259863 
L 104.892786 161.903187 
L 104.973767 168.922265 
L 105.187264 186.708165 
L 105.224074 186.072955 
L 105.43757 174.54388 
L 105.533275 177.211765 
L 105.717324 181.62648 
L 105.768858 180.864227 
L 105.857201 178.10106 
L 105.908735 179.149158 
L 106.011802 186.485842 
L 106.122231 193.377878 
L 106.166403 191.69457 
L 106.254746 171.939516 
L 106.438795 111.65802 
L 106.505053 119.788717 
L 106.711187 206.717303 
L 106.821616 234.348969 
L 106.865788 231.395239 
L 106.976217 203.128362 
L 107.167628 147.039256 
L 107.219162 147.737988 
L 107.336953 158.600091 
L 107.616707 200.968646 
L 107.653516 198.396043 
L 107.756584 189.91598 
L 107.808117 191.789851 
L 107.859651 193.917807 
L 107.911185 192.107456 
L 108.028976 173.305219 
L 108.161491 151.739816 
L 108.205663 154.471222 
L 108.463331 187.375137 
L 108.566398 184.00852 
L 108.625294 181.531198 
L 108.676827 183.341549 
L 108.882962 201.063928 
L 108.949219 195.442313 
L 109.059649 163.491214 
L 109.214249 101.875775 
L 109.273145 113.119004 
L 109.545537 199.158295 
L 109.582347 196.363368 
L 109.751672 160.31516 
L 109.817929 175.052049 
L 109.950444 210.242722 
L 110.001978 204.430544 
L 110.20075 164.062904 
L 110.27437 169.303392 
L 110.583572 192.837949 
L 110.605658 192.170978 
L 110.671915 183.214506 
L 110.76762 169.620997 
L 110.826516 173.591064 
L 111.010565 191.472246 
L 111.062098 188.296192 
L 111.17989 175.877823 
L 111.238785 177.656413 
L 111.40811 181.499438 
L 111.422834 181.213593 
L 111.474367 180.641903 
L 111.525901 181.277114 
L 111.547987 181.340635 
L 111.570073 180.864227 
L 111.63633 178.132821 
L 111.761483 157.32967 
L 111.827741 148.055594 
L 111.879275 154.757067 
L 112.070685 215.387929 
L 112.136943 199.888788 
L 112.357801 115.024636 
L 112.409335 119.344069 
L 112.512402 151.009323 
L 112.740623 236.921572 
L 112.784794 234.888898 
L 112.865776 211.163778 
L 113.101358 141.703486 
L 113.10872 141.830529 
L 113.167616 144.498414 
L 113.292769 160.791568 
L 113.506265 210.08392 
L 113.579885 200.555759 
L 113.690314 190.201824 
L 113.741847 190.932317 
L 113.749209 191.15464 
L 113.808105 189.693656 
L 114.117307 158.758894 
L 114.183564 166.095578 
L 114.352889 182.166409 
L 114.374975 181.975846 
L 114.455956 184.326125 
L 114.588471 190.614711 
L 114.647367 188.518516 
L 114.816692 170.38325 
L 114.890311 178.259863 
L 115.03755 196.077523 
L 115.07436 193.219075 
L 115.162703 165.365085 
L 115.309942 102.892112 
L 115.361476 114.834073 
L 115.685402 215.387929 
L 115.692764 215.45145 
L 115.707488 215.070324 
L 115.759021 203.795334 
L 115.920984 152.089182 
L 115.987242 158.854176 
L 116.178652 190.51943 
L 116.252272 184.58021 
L 116.347977 178.196342 
L 116.399511 180.165495 
L 116.465768 183.055704 
L 116.532026 181.690001 
L 116.539388 181.65824 
L 116.554112 182.071127 
L 116.664541 191.662809 
L 116.708713 186.803447 
L 116.833866 168.445857 
L 116.885399 174.321557 
L 117.047362 190.773514 
L 117.069448 190.455909 
L 117.157791 186.295278 
L 117.275583 178.609229 
L 117.334478 180.387819 
L 117.437545 184.61197 
L 117.474355 182.706338 
L 117.614232 169.7798 
L 117.717299 171.844235 
L 117.754109 172.320643 
L 117.805643 171.780714 
L 117.827729 171.463108 
L 117.857176 173.146417 
L 117.967606 185.850631 
L 118.026501 178.831553 
L 118.232636 119.915759 
L 118.313617 133.795113 
L 118.615457 244.639382 
L 118.689077 230.156578 
L 118.939383 131.953002 
L 119.013002 134.652647 
L 119.086622 151.612774 
L 119.336928 204.716389 
L 119.34429 204.589347 
L 119.403185 194.870623 
L 119.506253 177.434089 
L 119.565148 181.690001 
L 119.638768 185.628307 
L 119.68294 182.515775 
L 119.844902 160.759808 
L 119.91116 166.953112 
L 120.154104 198.904211 
L 120.205638 195.188228 
L 120.500116 176.735357 
L 120.551649 174.289796 
L 120.684164 159.965794 
L 120.757784 164.47579 
L 121.0449 198.110198 
L 121.089072 195.982242 
L 121.221587 172.955853 
L 121.442445 116.517382 
L 121.508703 126.267866 
L 121.788457 227.86982 
L 121.862076 208.495893 
L 122.016677 146.435806 
L 122.075573 154.217137 
L 122.266983 194.616539 
L 122.333241 188.645558 
L 122.487842 165.61917 
L 122.546737 170.859658 
L 122.78232 198.046677 
L 122.804405 196.712734 
L 123.135693 169.081068 
L 123.179865 168.160013 
L 123.216675 169.271631 
L 123.297656 181.65824 
L 123.437533 208.178288 
L 123.489067 202.778996 
L 123.665753 160.092837 
L 123.746735 170.764377 
L 123.84244 186.072955 
L 123.886612 178.958595 
L 124.041213 132.111805 
L 124.10747 139.893136 
L 124.313605 205.700966 
L 124.424034 232.824463 
L 124.468206 227.171088 
L 124.615445 165.111001 
L 124.718512 130.714341 
L 124.770046 136.907646 
L 125.138143 189.090206 
L 125.226486 197.824353 
L 125.270658 193.346117 
L 125.388449 176.32247 
L 125.447345 179.911411 
L 125.50624 182.928662 
L 125.557774 179.974932 
L 125.712375 167.080154 
L 125.763909 168.890505 
L 125.896424 174.321557 
L 126.058386 200.61928 
L 126.117282 194.521257 
L 126.293969 181.467677 
L 126.301331 181.499438 
L 126.397036 183.881478 
L 126.433846 182.452254 
L 126.522189 164.412269 
L 126.617895 150.437634 
L 126.662066 154.058335 
L 126.949182 194.71182 
L 127.01544 189.249008 
L 127.103783 179.84789 
L 127.162679 183.817957 
L 127.287832 193.314357 
L 127.332003 190.51943 
L 127.486604 158.917697 
L 127.641205 113.754215 
L 127.700101 120.963857 
L 127.825254 185.151899 
L 127.928321 226.821722 
L 127.979855 216.753632 
L 128.156542 151.612774 
L 128.222799 163.459453 
L 128.392124 202.96956 
L 128.436296 200.238154 
L 128.612982 165.555649 
L 128.730774 175.433175 
L 128.760221 176.068386 
L 128.819117 174.829725 
L 128.885375 173.527543 
L 128.922184 174.54388 
L 129.084147 190.297106 
L 129.157767 183.881478 
L 129.319729 165.301564 
L 129.363901 168.858744 
L 129.54795 212.338918 
L 129.636293 200.460477 
L 129.864514 115.342242 
L 129.967581 134.716169 
L 130.158992 229.584889 
L 130.247335 258.042328 
L 130.298869 247.751915 
L 130.60807 110.832246 
L 130.711138 132.175326 
L 130.998254 199.348859 
L 131.035063 197.824353 
L 131.160216 181.562959 
L 131.219112 189.91598 
L 131.322179 209.162864 
L 131.373713 202.937799 
L 131.616657 133.477508 
L 131.705001 146.022919 
L 131.911135 225.043132 
L 131.992117 202.651954 
L 132.109908 168.287055 
L 132.161441 173.622825 
L 132.301318 192.869709 
L 132.34549 188.486755 
L 132.514815 155.519319 
L 132.581072 162.6972 
L 132.691502 179.466763 
L 132.757759 175.623738 
L 132.816655 172.415924 
L 132.868188 175.623738 
L 132.993342 189.439571 
L 133.059599 186.898729 
L 133.118495 185.342462 
L 133.162666 186.99401 
L 133.287819 198.650127 
L 133.346715 203.382447 
L 133.398249 199.348859 
L 133.538126 162.887764 
L 133.729536 104.416618 
L 133.78107 111.626259 
L 133.913585 183.913238 
L 134.024014 227.075806 
L 134.075548 218.881588 
L 134.296406 145.101864 
L 134.370026 158.50481 
L 134.583522 208.877019 
L 134.620332 207.16195 
L 134.995791 162.792482 
L 135.039963 166.857831 
L 135.201926 205.097516 
L 135.275545 194.807102 
L 135.496404 157.996641 
L 135.540576 158.981218 
L 135.577385 160.156358 
L 135.614195 157.710796 
L 135.739348 142.021092 
L 135.798244 148.182636 
L 135.945483 201.953223 
L 136.077998 253.691135 
L 136.136893 243.845369 
L 136.365114 132.778776 
L 136.446095 115.024636 
L 136.497629 121.599067 
L 136.851002 199.602943 
L 136.91726 190.170064 
L 137.049775 144.530174 
L 137.10867 161.649103 
L 137.263271 221.549473 
L 137.322167 214.27631 
L 137.498854 152.724392 
L 137.601921 133.096381 
L 137.653455 138.146306 
L 138.036276 210.338004 
L 138.073086 209.004061 
L 138.146705 195.823439 
L 138.308668 154.661785 
L 138.374926 159.521147 
L 138.551612 173.876909 
L 138.603146 171.336066 
L 138.684127 165.492128 
L 138.728299 169.430434 
L 138.890262 212.593002 
L 138.971243 196.363368 
L 139.103758 164.253467 
L 139.155292 172.479445 
L 139.295169 203.763573 
L 139.346703 197.0621 
L 139.597009 149.61186 
L 139.641181 150.501155 
L 139.655904 150.564676 
L 139.685352 149.961226 
L 139.758972 142.751584 
L 139.854677 127.728851 
L 139.898849 134.747929 
L 140.082897 205.923289 
L 140.171241 193.631962 
L 140.465719 164.507551 
L 140.487805 165.04748 
L 140.590872 177.592892 
L 140.819092 202.715475 
L 140.870626 199.475901 
L 141.106208 182.896901 
L 141.157742 184.326125 
L 141.209275 186.549363 
L 141.253447 183.468591 
L 141.3786 147.356862 
L 141.555287 106.32225 
L 141.592097 110.736964 
L 141.702526 169.049308 
L 141.930746 279.957098 
L 141.967556 275.002455 
L 142.070623 220.120249 
L 142.262034 118.105408 
L 142.306206 122.107236 
L 142.644855 184.357886 
L 142.755285 220.215531 
L 142.806818 210.655609 
L 142.968781 146.499327 
L 143.042401 161.077413 
L 143.255897 196.236326 
L 143.300069 192.93323 
L 143.491479 167.874168 
L 143.550375 172.320643 
L 143.660804 179.2762 
L 143.712338 177.656413 
L 143.800681 175.11557 
L 143.830129 176.385991 
L 143.94792 187.406897 
L 144.014178 183.43683 
L 144.080435 180.546622 
L 144.131969 182.674577 
L 144.235036 195.569355 
L 144.293932 188.582037 
L 144.500066 165.492128 
L 144.573686 162.411356 
L 144.610495 164.761635 
L 144.787182 198.999493 
L 144.919697 192.170978 
L 145.022765 187.946826 
L 145.214175 163.777059 
L 145.295157 172.066558 
L 145.361414 176.481273 
L 145.405586 172.860572 
L 145.552825 140.14722 
L 145.619082 154.217137 
L 145.758959 199.348859 
L 145.810493 190.392388 
L 145.972456 130.460257 
L 146.046075 144.371371 
L 146.28902 208.94054 
L 146.318467 207.257232 
L 146.406811 180.927748 
L 146.539326 139.003841 
L 146.590859 147.960312 
L 146.870614 229.966015 
L 146.944233 223.709189 
L 147.098834 190.011261 
L 147.42276 96.667047 
L 147.437484 97.238737 
L 147.496379 112.86492 
L 147.717238 261.885353 
L 147.798219 295.488 
L 147.849753 284.149489 
L 148.129507 120.328646 
L 148.269384 138.622714 
L 148.431346 163.935861 
L 148.48288 161.45854 
L 148.504966 160.791568 
L 148.549138 163.364172 
L 148.644843 174.194514 
L 148.711101 169.81156 
L 148.718462 169.652758 
L 148.74791 170.859658 
L 148.858339 195.092947 
L 148.909873 201.667378 
L 148.961407 196.236326 
L 149.182265 158.568331 
L 149.241161 163.745298 
L 149.484105 200.04759 
L 149.557725 193.727244 
L 149.697602 180.133735 
L 149.756497 182.22993 
L 149.793307 183.055704 
L 149.830117 181.340635 
L 149.940546 155.900446 
L 149.992079 149.198973 
L 150.043613 156.885022 
L 150.279195 201.445054 
L 150.316005 198.904211 
L 150.470606 170.065645 
L 150.558949 178.609229 
L 150.684103 192.393301 
L 150.728274 190.360627 
L 150.949133 175.591978 
L 150.985942 176.544794 
L 151.081648 179.498524 
L 151.133181 178.545708 
L 151.295144 170.637334 
L 151.486555 148.976649 
L 151.552812 156.091009 
L 151.766309 196.49041 
L 151.817843 190.837035 
L 152.009253 129.316878 
L 152.090235 149.389536 
L 152.244836 210.369764 
L 152.303731 201.603857 
L 152.502504 134.462084 
L 152.568761 153.041998 
L 152.738086 237.937909 
L 152.804344 224.820808 
L 152.877963 212.49772 
L 152.944221 215.927858 
L 152.951583 215.991379 
L 152.966306 215.578492 
L 153.025202 204.589347 
L 153.179803 118.613577 
L 153.268146 90.31494 
L 153.31968 97.270497 
L 153.525815 184.834294 
L 153.702501 283.006109 
L 153.761397 272.271048 
L 153.893912 176.131907 
L 154.004341 113.119004 
L 154.055875 121.18618 
L 154.335629 169.970363 
L 154.460782 188.518516 
L 154.504954 181.785282 
L 154.600659 155.106432 
L 154.659555 167.683605 
L 154.806793 201.730899 
L 154.850965 198.332521 
L 154.961394 162.347835 
L 155.049738 143.482076 
L 155.101271 147.325101 
L 155.219063 183.690915 
L 155.35894 218.595743 
L 155.403111 214.975042 
L 155.859552 129.539201 
L 155.92581 143.355034 
L 156.176116 199.317098 
L 156.308631 205.828008 
L 156.345441 205.002234 
L 156.426422 195.28351 
L 156.639919 168.954026 
L 156.676728 171.780714 
L 156.765072 180.578382 
L 156.816605 176.100147 
L 156.941758 159.425865 
L 157.000654 163.522974 
L 157.206789 185.024857 
L 157.258322 180.927748 
L 157.479181 162.506637 
L 157.508628 163.205369 
L 157.604334 173.686346 
L 157.729487 189.534853 
L 157.78102 185.628307 
L 158.038689 131.794199 
L 158.112308 149.929465 
L 158.244823 192.425062 
L 158.296357 185.564786 
L 158.428872 163.26889 
L 158.480406 168.096492 
L 158.620283 217.769969 
L 158.679178 229.140241 
L 158.738074 221.517712 
L 158.900037 181.690001 
L 158.973656 187.629221 
L 159.003104 189.185487 
L 159.047276 185.977673 
L 159.135619 149.326015 
L 159.25341 111.308654 
L 159.297582 118.677098 
L 159.680403 262.711127 
L 159.761384 242.225582 
L 160.011691 79.548118 
L 160.100034 106.862179 
L 160.42396 222.216444 
L 160.468131 224.884329 
L 160.519665 220.723699 
L 160.659542 178.863313 
L 160.902486 145.101864 
L 160.968744 139.130883 
L 161.012916 144.212569 
L 161.189602 205.986811 
L 161.300032 191.408725 
L 161.322117 190.360627 
L 161.381013 193.155554 
L 161.498804 208.019485 
L 161.550338 200.905125 
L 161.74911 143.005668 
L 161.82273 152.629111 
L 162.139294 205.319839 
L 162.168741 204.335263 
L 162.286533 192.266259 
L 162.477943 163.491214 
L 162.529477 166.79431 
L 162.661992 190.964077 
L 162.735611 182.007606 
L 162.912298 147.896791 
L 162.978556 154.185377 
L 163.214138 199.761746 
L 163.287758 192.202738 
L 163.567512 162.570158 
L 163.604321 164.316988 
L 163.744198 180.832466 
L 163.803094 173.432262 
L 163.972419 133.890395 
L 164.038676 141.131797 
L 164.230087 190.741753 
L 164.31843 183.341549 
L 164.399412 174.321557 
L 164.450945 179.911411 
L 164.612908 230.505944 
L 164.686528 213.355255 
L 164.841129 156.599178 
L 164.892662 166.381423 
L 164.99573 196.776255 
L 165.054625 185.437744 
L 165.18714 143.767921 
L 165.246036 152.724392 
L 165.665667 245.179312 
L 165.695115 241.241005 
L 165.776096 187.089292 
L 165.952783 64.144258 
L 165.989593 69.480028 
L 166.100022 128.967512 
L 166.298794 271.381753 
L 166.350328 260.233805 
L 166.58591 144.022006 
L 166.681616 160.505724 
L 166.806769 187.756263 
L 166.858302 180.610143 
L 167.079161 152.311505 
L 167.123333 153.581927 
L 167.196952 166.921352 
L 167.395725 220.437854 
L 167.45462 213.06941 
L 167.668117 150.310592 
L 167.763822 163.014806 
L 167.955233 203.382447 
L 168.014128 198.364282 
L 168.190815 171.399587 
L 168.249711 176.513033 
L 168.411673 187.375137 
L 168.433759 186.930489 
L 168.507379 178.895074 
L 168.676704 146.785172 
L 168.750323 156.980304 
L 168.949096 198.713648 
L 169.000629 194.616539 
L 169.15523 175.750781 
L 169.214126 178.70451 
L 169.280383 181.499438 
L 169.331917 179.212679 
L 169.729462 133.699831 
L 169.79572 124.425755 
L 169.847253 131.82596 
L 170.134369 217.102998 
L 170.207989 203.287165 
L 170.36259 150.342352 
L 170.421485 160.632766 
L 170.583448 211.926031 
L 170.649706 204.239981 
L 170.767497 184.897815 
L 170.81903 188.836121 
L 170.944184 209.798075 
L 171.003079 199.761746 
L 171.268109 130.904904 
L 171.297557 132.302368 
L 171.378538 154.630024 
L 171.606759 249.752829 
L 171.650931 242.543187 
L 171.746636 171.844235 
L 171.901237 53.568 
L 171.945408 66.748622 
L 172.195715 267.888095 
L 172.298782 223.391584 
L 172.490193 138.749757 
L 172.51964 141.830529 
L 172.63007 190.995838 
L 172.711051 215.387929 
L 172.762585 203.350686 
L 172.983443 118.613577 
L 173.042339 130.269694 
L 173.314731 219.866165 
L 173.380988 215.896098 
L 173.542951 184.167323 
L 173.660742 163.332411 
L 173.712276 165.111001 
L 173.903687 179.180918 
L 173.962582 182.007606 
L 174.02884 181.02303 
L 174.095097 184.00852 
L 174.139269 185.056618 
L 174.190803 183.500351 
L 174.249698 181.181832 
L 174.315956 182.547535 
L 174.323318 182.579296 
L 174.345404 182.26169 
L 174.404299 176.703597 
L 174.544176 157.107346 
L 174.603072 160.505724 
L 174.706139 177.211765 
L 174.904912 197.125621 
L 174.912274 197.03034 
L 174.978531 191.345204 
L 175.199389 172.828811 
L 175.236199 174.575641 
L 175.331905 181.340635 
L 175.3908 178.640989 
L 175.486505 155.55108 
L 175.663192 120.805054 
L 175.685278 122.234278 
L 175.773621 145.133624 
L 176.023928 228.314467 
L 176.068099 220.723699 
L 176.266872 148.055594 
L 176.340491 159.648189 
L 176.583436 193.822525 
L 176.701227 201.889701 
L 176.877914 227.393412 
L 176.929447 223.74095 
L 177.017791 198.23724 
L 177.231287 95.206062 
L 177.297545 105.814081 
L 177.437422 184.58021 
L 177.606746 265.315491 
L 177.643556 257.915286 
L 177.746623 171.463108 
L 177.864415 81.263187 
L 177.915948 103.114436 
L 178.122083 223.1375 
L 178.173616 214.022226 
L 178.365027 151.104605 
L 178.431285 159.267063 
L 178.644781 224.757287 
L 178.711039 207.003148 
L 178.902449 99.81134 
L 178.976069 124.457516 
L 179.189565 227.679256 
L 179.241099 224.31264 
L 179.410424 193.568441 
L 179.653368 164.094664 
L 179.734349 159.489386 
L 179.778521 162.284314 
L 179.955208 196.935058 
L 179.99938 199.984069 
L 180.050913 195.823439 
L 180.338029 146.816933 
L 180.411649 155.519319 
L 180.595697 201.572096 
L 180.676679 195.029426 
L 180.72085 192.710907 
L 180.779746 195.696397 
L 180.838642 199.507661 
L 180.882813 195.88696 
L 181.140482 175.369654 
L 181.376064 148.532002 
L 181.508579 124.902163 
L 181.560113 129.412159 
L 181.66318 169.81156 
L 181.773609 201.762659 
L 181.825143 197.951395 
L 182.126983 173.464022 
L 182.15643 174.416838 
L 182.244774 181.880564 
L 182.296307 177.307047 
L 182.399375 162.951285 
L 182.450908 169.17635 
L 182.664405 217.388843 
L 182.752748 213.895184 
L 182.767472 214.117508 
L 182.885263 225.360737 
L 182.936797 217.515885 
L 183.06195 138.273349 
L 183.172379 83.645227 
L 183.223913 93.840359 
L 183.533115 244.131214 
L 183.621458 263.854506 
L 183.66563 256.136696 
L 183.768697 179.212679 
L 183.864402 121.313223 
L 183.923298 136.240674 
L 184.055813 167.080154 
L 184.099985 165.714451 
L 184.180966 155.614601 
L 184.239862 148.341438 
L 184.284033 154.852348 
L 184.571149 219.357996 
L 184.607959 216.02314 
L 184.703664 173.972191 
L 184.850903 104.638941 
L 184.902437 118.677098 
L 185.167467 237.620304 
L 185.226363 233.015026 
L 185.358878 187.089292 
L 185.520841 146.213482 
L 185.55765 148.595523 
L 185.962557 207.098429 
L 186.028815 197.570269 
L 186.257035 134.462084 
L 186.323293 141.671726 
L 186.750286 209.416948 
L 186.76501 209.734554 
L 186.80182 208.178288 
L 186.934335 183.150985 
L 187.184641 160.219879 
L 187.405499 120.836814 
L 187.486481 132.42941 
L 187.699977 221.041304 
L 187.795683 200.905125 
L 187.965007 154.502982 
L 188.009179 159.71171 
L 188.141694 199.984069 
L 188.207952 187.946826 
L 188.325743 160.410442 
L 188.377276 167.969449 
L 188.561325 217.547646 
L 188.634945 212.910607 
L 188.907337 184.199083 
L 189.061938 125.092726 
L 189.142919 107.148024 
L 189.201815 113.023723 
L 189.407949 176.195428 
L 189.591998 268.936192 
L 189.643531 256.422541 
L 189.989543 139.670812 
L 190.033715 138.876799 
L 190.077886 140.210741 
L 190.158868 146.975735 
L 190.306107 180.991269 
L 190.512241 212.593002 
L 190.519603 212.434199 
L 190.563775 208.559414 
L 190.652118 171.939516 
L 190.762548 130.04737 
L 190.814081 138.654475 
L 191.086473 229.299044 
L 191.182179 215.292647 
L 191.425123 151.898618 
L 191.520828 164.094664 
L 191.572362 169.589237 
L 191.631257 165.523888 
L 191.697515 161.395019 
L 191.741687 164.539312 
L 191.933097 199.031253 
L 192.028803 189.820698 
L 192.183404 143.164471 
L 192.264385 129.634483 
L 192.315919 134.843211 
L 192.448434 191.504006 
L 192.639844 226.567638 
L 192.69874 229.870733 
L 192.742912 226.948764 
L 192.853341 188.645558 
L 193.00058 155.011151 
L 193.03739 155.233475 
L 193.081561 152.851434 
L 193.317144 132.048284 
L 193.353953 133.763353 
L 193.457021 155.805164 
L 193.626345 195.569355 
L 193.670517 191.535767 
L 193.780946 172.511206 
L 193.839842 178.831553 
L 194.009167 210.814412 
L 194.075424 202.683715 
L 194.237387 155.55108 
L 194.311007 165.111001 
L 194.487693 205.828008 
L 194.553951 201.063928 
L 194.590761 199.793506 
L 194.634932 202.747236 
L 194.679104 205.415121 
L 194.723276 202.524912 
L 194.973582 152.851434 
L 195.106097 111.912104 
L 195.157631 116.612663 
L 195.312231 151.485731 
L 195.518366 267.570489 
L 195.591985 250.832687 
L 195.915911 127.347724 
L 195.967445 130.269694 
L 196.107322 154.661785 
L 196.335542 213.450536 
L 196.394438 204.398784 
L 196.711002 149.929465 
L 196.725725 150.532915 
L 196.799345 167.016633 
L 196.976032 223.1375 
L 197.034927 214.625676 
L 197.27051 176.258949 
L 197.277872 176.29071 
L 197.314681 178.228102 
L 197.439834 196.649213 
L 197.491368 187.438658 
L 197.645969 134.652647 
L 197.712226 145.673553 
L 197.910999 194.648299 
L 197.955171 193.663723 
L 198.014066 186.803447 
L 198.198115 130.968425 
L 198.286458 147.515664 
L 198.551489 233.681998 
L 198.610384 229.235523 
L 198.706089 209.861596 
L 198.926948 145.324187 
L 198.978482 149.992986 
L 199.088911 167.969449 
L 199.140444 160.91861 
L 199.280321 127.030119 
L 199.339217 135.859548 
L 199.515904 187.152813 
L 199.596885 179.84789 
L 199.648419 176.163668 
L 199.692591 179.911411 
L 199.957621 217.83349 
L 200.009154 211.640186 
L 200.193203 149.230733 
L 200.281546 166.127338 
L 200.428785 204.144699 
L 200.487681 197.125621 
L 200.553938 189.121966 
L 200.612834 193.631962 
L 200.686453 198.586606 
L 200.730625 195.728158 
L 200.86314 168.509378 
L 201.010379 118.454774 
L 201.083999 131.921241 
L 201.459458 247.148465 
L 201.533078 233.110308 
L 201.908537 128.713427 
L 201.937985 128.173498 
L 201.967432 129.761525 
L 202.063138 155.360517 
L 202.269272 210.274483 
L 202.320806 204.875192 
L 202.688903 160.473963 
L 202.710989 161.712624 
L 202.791971 184.739012 
L 202.946572 211.671946 
L 202.961295 211.513144 
L 203.012829 207.416035 
L 203.137982 173.845148 
L 203.20424 162.09375 
L 203.255773 168.382336 
L 203.388288 198.84069 
L 203.439822 187.375137 
L 203.572337 149.992986 
L 203.631233 154.121856 
L 203.778472 173.082896 
L 203.859453 170.160926 
L 203.888901 169.843321 
L 203.940435 170.796137 
L 203.96252 171.050221 
L 203.991968 169.843321 
L 204.131845 157.583754 
L 204.183379 162.474877 
L 204.499943 228.47327 
L 204.558838 217.992293 
L 204.823868 143.418555 
L 204.875402 148.754325 
L 205.059451 189.090206 
L 205.118346 179.87965 
L 205.280309 120.709772 
L 205.36129 133.541029 
L 205.633683 220.342573 
L 205.714664 202.366109 
L 205.810369 178.958595 
L 205.861903 186.708165 
L 205.96497 211.132017 
L 206.016504 202.175546 
L 206.156381 159.997555 
L 206.215276 166.730788 
L 206.325706 184.866054 
L 206.377239 179.24444 
L 206.450859 169.493955 
L 206.49503 175.210852 
L 206.656993 211.576665 
L 206.715889 201.349772 
L 206.936747 106.35401 
L 207.017729 132.143565 
L 207.319569 234.348969 
L 207.36374 241.780934 
L 207.415274 233.745519 
L 207.66558 146.721651 
L 207.783371 155.963967 
L 207.805457 155.265235 
L 207.96742 133.699831 
L 208.033678 143.513837 
L 208.23245 208.051245 
L 208.342879 207.701879 
L 208.350241 207.73364 
L 208.364965 207.479556 
L 208.431223 200.651041 
L 208.549014 162.728961 
L 208.622633 144.688977 
L 208.674167 154.566503 
L 208.865578 226.758201 
L 208.931835 217.706448 
L 209.167418 156.12277 
L 209.226313 163.26889 
L 209.358828 188.804361 
L 209.410362 182.356972 
L 209.528153 157.424952 
L 209.601773 162.506637 
L 209.66803 164.793396 
L 209.74165 164.47579 
L 209.756373 164.44403 
L 209.778459 164.666354 
L 209.837355 169.20811 
L 209.925698 175.973104 
L 209.96987 172.701769 
L 210.072937 161.649103 
L 210.131833 165.206283 
L 210.286434 206.463219 
L 210.411587 227.456933 
L 210.455759 222.311726 
L 210.735513 133.03286 
L 210.83858 148.627283 
L 211.02999 212.815326 
L 211.10361 194.203652 
L 211.302383 110.387598 
L 211.361278 125.727937 
L 211.545327 227.996862 
L 211.618946 210.846173 
L 211.780909 161.839666 
L 211.825081 171.717193 
L 211.950234 223.16926 
L 212.016491 207.892443 
L 212.178454 160.791568 
L 212.229988 164.158185 
L 212.671705 207.16195 
L 212.701153 203.60477 
L 212.796858 145.324187 
L 212.892563 102.701549 
L 212.944097 114.738792 
L 213.260661 234.317208 
L 213.29747 230.982352 
L 213.444709 182.166409 
L 213.569863 150.691718 
L 213.621396 155.678122 
L 213.687654 160.251639 
L 213.753911 159.171781 
L 213.798083 157.266149 
L 213.945322 137.002927 
L 214.011579 147.674467 
L 214.269248 216.02314 
L 214.320781 214.212789 
L 214.416487 189.280769 
L 214.571087 148.087354 
L 214.607897 153.454885 
L 214.791946 229.172002 
L 214.895013 206.304416 
L 215.115872 153.518406 
L 215.160043 158.568331 
L 215.314644 192.139217 
L 215.37354 182.071127 
L 215.513417 146.626369 
L 215.579674 149.61186 
L 215.726913 159.584668 
L 215.910962 198.618366 
L 215.984581 193.47316 
L 216.13182 177.846976 
L 216.190716 181.848803 
L 216.352679 209.448709 
L 216.418936 199.634703 
L 216.617709 145.546511 
L 216.683967 149.770662 
L 216.853291 179.752608 
L 216.978444 208.30533 
L 217.029978 201.635617 
L 217.243475 120.423928 
L 217.331818 147.102777 
L 217.508505 216.150182 
L 217.552676 211.322581 
L 217.722001 154.439461 
L 217.795621 179.562045 
L 217.90605 223.010458 
L 217.957584 216.245464 
L 218.156356 153.77249 
L 218.252061 170.669095 
L 218.377215 200.873364 
L 218.428748 193.663723 
L 218.517092 179.816129 
L 218.575987 183.278028 
L 218.590711 183.881478 
L 218.627521 180.991269 
L 218.708502 148.277917 
L 218.804208 110.864006 
L 218.855741 121.281462 
L 219.113409 255.882612 
L 219.209115 220.596657 
L 219.407887 127.315964 
L 219.466783 139.480249 
L 219.60666 187.025771 
L 219.672917 180.419579 
L 219.901138 135.478421 
L 219.967395 150.247071 
L 220.188254 225.170174 
L 220.247149 216.944195 
L 220.453284 150.755239 
L 220.526903 161.331497 
L 220.733038 232.093971 
L 220.814019 215.991379 
L 221.049602 149.992986 
L 221.093773 154.693545 
L 221.248374 193.282596 
L 221.321994 178.958595 
L 221.476595 143.386795 
L 221.520766 146.277004 
L 222.080274 203.064841 
L 222.109722 202.39787 
L 222.227513 189.94774 
L 222.389476 159.838752 
L 222.507267 145.641793 
L 222.551439 147.83327 
L 222.772298 182.102888 
L 222.948984 210.560328 
L 223.000518 203.350686 
L 223.250824 128.999272 
L 223.317082 142.211655 
L 223.486406 220.056728 
L 223.567388 201.79442 
L 223.714627 165.968536 
L 223.758799 169.684518 
L 223.935485 214.085747 
L 224.009105 198.014916 
L 224.14162 154.471222 
L 224.193154 162.792482 
L 224.362478 214.879761 
L 224.421374 203.033081 
L 224.642232 106.32225 
L 224.730576 121.630828 
L 224.885177 198.332521 
L 225.039778 287.1985 
L 225.083949 275.987031 
L 225.216464 157.806078 
L 225.334255 73.73594 
L 225.385789 89.902053 
L 225.591924 208.877019 
L 225.672905 201.667378 
L 225.80542 169.17635 
L 225.923211 119.598154 
L 225.974745 136.304195 
L 226.14407 234.380729 
L 226.210327 218.182856 
L 226.37229 153.16904 
L 226.438548 161.522061 
L 226.696216 223.582147 
L 226.777197 207.860682 
L 227.01278 159.67995 
L 227.027503 160.124597 
L 227.101123 171.145503 
L 227.189466 183.913238 
L 227.241 177.719934 
L 227.402963 139.162644 
L 227.461858 146.435806 
L 227.778422 192.456822 
L 227.785784 192.393301 
L 227.829956 190.773514 
L 227.903575 187.216334 
L 227.947747 190.011261 
L 228.0729 204.144699 
L 228.124434 199.221816 
L 228.433636 148.404959 
L 228.463083 149.453057 
L 228.551427 164.158185 
L 228.683942 183.627393 
L 228.728113 181.944085 
L 228.779647 179.87965 
L 228.816457 182.22993 
L 228.934248 200.428717 
L 229.022591 196.236326 
L 229.110935 187.152813 
L 229.294983 130.714341 
L 229.368603 146.181722 
L 229.552652 201.540336 
L 229.596823 198.967732 
L 229.788234 191.72633 
L 229.795596 191.662809 
L 229.817682 192.202738 
L 229.876577 194.457736 
L 229.913387 192.361541 
L 230.11216 165.365085 
L 230.171055 174.670922 
L 230.30357 213.6411 
L 230.355104 202.461391 
L 230.539153 97.842187 
L 230.627496 118.327732 
L 230.966146 266.9988 
L 231.017679 259.280989 
L 231.106023 190.773514 
L 231.260624 68.686015 
L 231.304795 77.356641 
L 231.444672 183.849717 
L 231.54774 223.042218 
L 231.599273 218.468701 
L 231.709702 195.601115 
L 231.864303 125.537374 
L 231.923199 141.830529 
L 232.107248 222.883416 
L 232.166143 213.863423 
L 232.328106 167.842407 
L 232.401726 175.464936 
L 232.512155 193.155554 
L 232.57105 189.534853 
L 232.674118 181.721761 
L 232.718289 184.262604 
L 232.880252 197.347945 
L 232.924424 194.362455 
L 233.351417 144.530174 
L 233.366141 144.943061 
L 233.447122 156.503896 
L 233.667981 201.540336 
L 233.734238 196.331608 
L 233.888839 178.895074 
L 233.933011 180.927748 
L 234.021354 188.042108 
L 234.065526 184.770773 
L 234.337918 152.057421 
L 234.374728 153.423124 
L 234.455709 167.874168 
L 234.5735 195.029426 
L 234.625034 188.16915 
L 234.706015 176.417752 
L 234.764911 179.816129 
L 234.971045 203.57301 
L 235.059389 196.903297 
L 235.169818 178.926834 
L 235.309695 121.217941 
L 235.375953 138.813278 
L 235.618897 203.922376 
L 235.663069 205.415121 
L 235.699878 202.429631 
L 235.839755 178.323384 
L 235.913375 186.327039 
L 235.994356 192.552104 
L 236.04589 189.884219 
L 236.296196 154.312419 
L 236.406625 129.539201 
L 236.458159 134.970253 
L 236.605398 184.675491 
L 236.737913 240.288189 
L 236.796809 233.967842 
L 236.951409 195.950481 
L 237.238525 103.050915 
L 237.282697 110.355838 
L 237.459384 205.828008 
L 237.540365 225.138414 
L 237.584537 217.19828 
L 237.864291 154.693545 
L 237.886377 155.836925 
L 237.982082 179.87965 
L 238.136683 217.23004 
L 238.173493 212.116594 
L 238.328094 175.71902 
L 238.416437 177.942258 
L 238.423799 177.974018 
L 238.438523 177.592892 
L 238.519504 165.460367 
L 238.563676 160.855089 
L 238.61521 167.461281 
L 238.791896 212.434199 
L 238.858154 202.778996 
L 239.079012 159.934034 
L 239.10846 160.505724 
L 239.336681 167.683605 
L 239.380852 166.286141 
L 239.432386 164.856917 
L 239.469196 166.413183 
L 239.579625 190.011261 
L 239.645882 200.333435 
L 239.697416 194.394215 
L 239.94036 170.033884 
L 240.065513 166.22262 
L 240.20539 157.837839 
L 240.271648 159.425865 
L 240.352629 169.17635 
L 240.492506 198.300761 
L 240.551402 193.568441 
L 240.713365 172.860572 
L 240.77226 179.593805 
L 241.052014 212.116594 
L 241.059376 211.830749 
L 241.11091 199.348859 
L 241.302321 122.488362 
L 241.368578 134.589126 
L 241.596799 220.342573 
L 241.663056 203.827094 
L 241.780847 170.033884 
L 241.839743 175.941344 
L 241.994344 201.159209 
L 242.038515 192.647386 
L 242.200478 121.726109 
L 242.266736 139.226165 
L 242.524404 231.522281 
L 242.568576 226.504117 
L 242.877778 148.309678 
L 242.944035 160.092837 
L 243.032378 173.749867 
L 243.07655 166.476704 
L 243.216427 127.284203 
L 243.275323 138.146306 
L 243.540353 213.482297 
L 243.584525 211.735468 
L 243.658144 191.12288 
L 243.864279 143.227992 
L 243.886364 144.180808 
L 243.959984 165.142762 
L 244.144033 229.044959 
L 244.188204 222.470529 
L 244.416425 146.753412 
L 244.504768 164.285227 
L 244.725627 194.616539 
L 244.81397 199.158295 
L 244.858142 197.697311 
L 244.968571 182.515775 
L 245.130534 157.36143 
L 245.182067 160.442202 
L 245.292497 171.272545 
L 245.351392 167.778886 
L 245.402926 164.698114 
L 245.439735 168.636421 
L 245.579612 199.126535 
L 245.638508 189.852458 
L 245.852005 155.011151 
L 245.87409 155.58284 
L 246.072863 171.463108 
L 246.146482 167.238957 
L 246.17593 166.22262 
L 246.220102 169.335152 
L 246.44096 201.762659 
L 246.499856 193.441399 
L 246.595561 175.496696 
L 246.661819 178.291623 
L 246.691267 178.958595 
L 246.735438 177.148244 
L 246.77961 175.782541 
L 246.809058 177.846976 
L 246.912125 210.08392 
L 246.971021 219.421517 
L 247.029916 212.053073 
L 247.169793 155.805164 
L 247.294946 103.876688 
L 247.34648 116.676184 
L 247.559976 234.952419 
L 247.640958 213.101171 
L 247.802921 145.197145 
L 247.861816 153.359603 
L 247.964884 168.414097 
L 248.016417 164.698114 
L 248.097399 155.424038 
L 248.148932 160.950371 
L 248.281447 211.29082 
L 248.377153 254.040501 
L 248.428686 237.525022 
L 248.649545 148.404959 
L 248.678993 149.770662 
L 248.966109 171.336066 
L 249.002918 170.700855 
L 249.0839 162.570158 
L 249.157519 153.327842 
L 249.209053 158.727134 
L 249.503531 218.024054 
L 249.57715 204.430544 
L 249.820095 134.049197 
L 249.856904 136.399477 
L 249.930524 160.473963 
L 250.114572 240.31995 
L 250.166106 228.727354 
L 250.350155 169.144589 
L 250.40905 169.589237 
L 250.453222 166.540225 
L 250.578375 152.470308 
L 250.622547 157.710796 
L 250.799234 208.051245 
L 250.887577 200.142872 
L 251.093712 165.269804 
L 251.196779 175.242612 
L 251.211503 175.68726 
L 251.248312 173.749867 
L 251.373466 159.394105 
L 251.439723 163.999382 
L 251.557514 176.036625 
L 251.61641 173.305219 
L 251.756287 164.761635 
L 251.815182 167.175436 
L 251.91825 173.94043 
L 251.977145 172.193601 
L 252.021317 171.050221 
L 252.065489 172.73353 
L 252.10966 173.654585 
L 252.168556 172.701769 
L 252.175918 172.73353 
L 252.22009 176.449512 
L 252.389414 202.112025 
L 252.463034 196.141045 
L 252.661806 175.052049 
L 252.705978 177.592892 
L 252.963646 205.129276 
L 253.000456 201.79442 
L 253.103523 161.553821 
L 253.228676 122.996531 
L 253.272848 128.808709 
L 253.412725 190.265345 
L 253.523154 229.044959 
L 253.574688 219.357996 
L 253.788185 118.423014 
L 253.869166 140.11546 
L 254.038491 203.096602 
L 254.104748 201.572096 
L 254.156282 215.800816 
L 254.266711 254.231064 
L 254.318245 243.368961 
L 254.472846 134.970253 
L 254.546465 106.862179 
L 254.597999 121.027378 
L 254.804133 175.560217 
L 255.047078 194.330694 
L 255.091249 187.692742 
L 255.216402 151.263408 
L 255.267936 161.426779 
L 255.459347 209.004061 
L 255.496156 205.38336 
L 255.81272 141.354121 
L 255.871616 147.420383 
L 256.004131 211.322581 
L 256.099836 237.683825 
L 256.15137 232.729182 
L 256.291247 189.566614 
L 256.460572 135.605464 
L 256.512105 141.92581 
L 256.777135 209.607512 
L 256.858117 198.523085 
L 257.101061 170.732616 
L 257.388177 157.742557 
L 257.469159 160.569245 
L 257.498606 161.395019 
L 257.55014 159.838752 
L 257.601674 158.50481 
L 257.638483 160.442202 
L 257.741551 183.087464 
L 257.807808 192.488583 
L 257.866704 188.042108 
L 258.094924 173.845148 
L 258.190629 169.748039 
L 258.234801 172.415924 
L 258.433574 204.652868 
L 258.514555 193.028512 
L 258.68388 181.817043 
L 258.698604 181.912325 
L 258.750137 184.516688 
L 258.867929 194.743581 
L 258.9121 190.741753 
L 259.096149 139.003841 
L 259.206578 153.327842 
L 259.434799 220.247291 
L 259.508418 203.191883 
L 259.699829 91.617122 
L 259.78081 128.173498 
L 260.04584 248.736492 
L 260.104736 254.262825 
L 260.15627 249.308181 
L 260.274061 203.350686 
L 260.443386 103.050915 
L 260.517005 119.37583 
L 260.929274 228.759115 
L 260.958722 224.598484 
L 261.164856 151.295168 
L 261.260562 164.698114 
L 261.48142 191.916893 
L 261.503506 191.059359 
L 261.591849 173.241698 
L 261.775898 144.561935 
L 261.797984 145.578272 
L 261.864241 159.425865 
L 262.070376 245.401635 
L 262.143996 232.157492 
L 262.364854 133.191663 
L 262.453197 145.991159 
L 262.718227 213.958705 
L 262.821295 201.635617 
L 263.078963 158.727134 
L 263.174668 168.382336 
L 263.211478 170.573813 
L 263.263012 166.190859 
L 263.380803 152.946716 
L 263.439698 154.661785 
L 263.491232 155.58284 
L 263.535404 154.439461 
L 263.550128 154.153616 
L 263.579575 155.424038 
L 263.682643 178.895074 
L 263.815158 195.28351 
L 263.851967 194.013089 
L 264.036016 183.500351 
L 264.197979 171.463108 
L 264.205341 171.621911 
L 264.256875 177.084723 
L 264.367304 191.631048 
L 264.426199 188.264432 
L 264.499819 184.04028 
L 264.558714 185.882391 
L 264.661782 201.159209 
L 264.713315 206.272655 
L 264.764849 200.333435 
L 264.970984 133.699831 
L 265.081413 152.184463 
L 265.324357 207.034908 
L 265.383253 200.968646 
L 265.515768 154.280659 
L 265.626197 116.866748 
L 265.670369 124.616318 
L 266.009018 264.584999 
L 266.119447 239.113049 
L 266.362392 104.226054 
L 266.480183 120.423928 
L 266.701041 188.518516 
L 266.833556 246.068607 
L 266.88509 231.681084 
L 267.076501 153.740729 
L 267.128034 158.981218 
L 267.253187 180.387819 
L 267.319445 176.449512 
L 267.636009 160.473963 
L 267.643371 160.505724 
L 267.665457 160.759808 
L 267.702266 160.029315 
L 267.71699 159.71171 
L 267.7538 161.045653 
L 267.827419 181.340635 
L 267.974658 239.907063 
L 268.040916 225.932427 
L 268.224965 157.36143 
L 268.313308 160.950371 
L 268.32067 160.950371 
L 268.364842 158.409528 
L 268.423737 154.280659 
L 268.467909 157.996641 
L 268.62251 200.01583 
L 268.718215 209.671033 
L 268.762387 208.400611 
L 268.843368 198.014916 
L 268.997969 161.712624 
L 269.078951 170.35149 
L 269.108398 171.907756 
L 269.15257 168.5729 
L 269.307171 149.675381 
L 269.366067 154.217137 
L 269.4176 156.567417 
L 269.483858 155.201714 
L 269.513305 154.94763 
L 269.542753 155.614601 
L 269.601649 163.395932 
L 269.874041 200.428717 
L 269.881403 200.428717 
L 269.940298 196.141045 
L 270.131709 183.43683 
L 270.161157 184.262604 
L 270.220052 186.866968 
L 270.278948 184.802533 
L 270.470359 175.274373 
L 270.51453 177.751694 
L 270.617598 192.043935 
L 270.683855 185.533026 
L 270.875266 148.722565 
L 270.934161 157.012065 
L 271.103486 200.841604 
L 271.15502 192.139217 
L 271.316983 155.519319 
L 271.375878 158.727134 
L 271.530479 167.620083 
L 271.574651 166.000296 
L 271.618823 164.539312 
L 271.662994 166.699028 
L 271.743976 183.055704 
L 271.95011 263.632183 
L 272.02373 252.293672 
L 272.141521 168.60466 
L 272.310846 85.201494 
L 272.340294 87.075365 
L 272.428637 111.753301 
L 272.715753 254.516909 
L 272.789372 234.253687 
L 272.966059 143.767921 
L 273.032317 157.679036 
L 273.179556 202.461391 
L 273.231089 193.917807 
L 273.415138 137.76518 
L 273.488757 146.689891 
L 273.849493 235.079461 
L 273.923112 215.991379 
L 274.070351 154.757067 
L 274.129247 166.857831 
L 274.232314 188.836121 
L 274.283848 181.975846 
L 274.416363 160.791568 
L 274.460535 165.396846 
L 274.718203 206.113853 
L 274.747651 204.208221 
L 275.211453 154.153616 
L 275.255625 155.836925 
L 275.336606 162.443116 
L 275.38814 158.473049 
L 275.513293 138.082785 
L 275.564827 145.038343 
L 275.844581 214.975042 
L 275.910838 208.495893 
L 276.072801 188.327953 
L 276.109611 189.503093 
L 276.153783 190.805275 
L 276.197954 188.74084 
L 276.374641 172.73353 
L 276.440899 174.797965 
L 276.470346 175.274373 
L 276.507156 173.845148 
L 276.669119 154.820588 
L 276.742738 161.426779 
L 276.985683 210.655609 
L 277.044578 198.872451 
L 277.206541 134.81145 
L 277.272799 150.342352 
L 277.397952 185.374223 
L 277.442123 179.085637 
L 277.545191 164.221706 
L 277.596724 167.715365 
L 277.685068 186.517602 
L 277.876478 269.38084 
L 277.942736 256.104936 
L 278.075251 141.957571 
L 278.215128 67.542636 
L 278.251938 72.338477 
L 278.369729 132.524692 
L 278.597949 257.53416 
L 278.642121 251.59494 
L 278.75255 189.503093 
L 278.885065 132.461171 
L 278.929237 142.116373 
L 279.0912 217.388843 
L 279.157457 200.396956 
L 279.334144 128.109977 
L 279.39304 135.129056 
L 279.599174 197.125621 
L 279.739051 227.329891 
L 279.768499 224.217358 
L 279.871566 176.32247 
L 279.95991 151.231647 
L 280.004081 159.10826 
L 280.143958 201.889701 
L 280.217578 194.743581 
L 280.467884 163.046566 
L 280.504694 165.396846 
L 280.622485 200.651041 
L 280.674019 207.670119 
L 280.725552 200.936885 
L 280.902239 164.158185 
L 280.961135 167.334239 
L 281.145183 178.831553 
L 281.174631 178.545708 
L 281.233527 171.748953 
L 281.432299 110.673443 
L 281.513281 131.158989 
L 281.756225 235.936996 
L 281.815121 224.662006 
L 282.013893 194.013089 
L 282.028617 194.07661 
L 282.058065 193.123794 
L 282.15377 180.292537 
L 282.308371 158.187204 
L 282.374629 162.601919 
L 282.4188 164.348748 
L 282.470334 162.538398 
L 282.536592 160.061076 
L 282.580763 161.966708 
L 282.676469 177.180005 
L 282.853155 210.210962 
L 282.904689 203.287165 
L 283.0961 140.11546 
L 283.177081 157.551994 
L 283.302234 189.471332 
L 283.353768 184.04028 
L 283.55254 163.713538 
L 283.581988 166.667267 
L 283.670332 214.848 
L 283.795485 261.599508 
L 283.832294 257.502399 
L 283.913276 211.703707 
L 284.126772 77.26136 
L 284.163582 82.120722 
L 284.274011 138.400391 
L 284.472784 256.835428 
L 284.524317 248.06952 
L 284.774624 139.194404 
L 284.870329 166.603746 
L 284.995482 213.387015 
L 285.047016 204.589347 
L 285.25315 120.932096 
L 285.334132 137.225251 
L 285.547628 223.963274 
L 285.621248 216.563069 
L 285.746401 173.019375 
L 285.842106 147.166299 
L 285.89364 155.360517 
L 286.062965 212.815326 
L 286.151308 203.795334 
L 286.4237 155.233475 
L 286.489958 163.586495 
L 286.644559 203.668291 
L 286.710816 189.503093 
L 286.835969 163.650017 
L 286.880141 168.541139 
L 287.034742 192.869709 
L 287.086275 188.13739 
L 287.233514 138.146306 
L 287.336582 117.02555 
L 287.380753 121.408504 
L 287.513268 166.699028 
L 287.748851 224.789048 
L 287.78566 221.295389 
L 288.323083 143.958484 
L 288.330445 144.117287 
L 288.404064 151.708055 
L 288.698542 209.226385 
L 288.808971 198.110198 
L 288.912038 168.668181 
L 289.015106 143.482076 
L 289.066639 151.708055 
L 289.235964 186.612884 
L 289.280136 183.944999 
L 289.464185 162.66544 
L 289.500994 168.064731 
L 289.692405 250.610363 
L 289.780748 224.217358 
L 290.031055 92.665219 
L 290.097312 107.910276 
L 290.369704 252.388953 
L 290.46541 221.485952 
L 290.671544 137.669898 
L 290.708354 141.608205 
L 290.826145 197.729071 
L 290.892403 214.053987 
L 290.943936 203.477728 
L 291.157433 120.678012 
L 291.231052 135.764266 
L 291.444549 246.735578 
L 291.540254 213.228213 
L 291.739027 140.433065 
L 291.783198 145.197145 
L 291.915713 199.44414 
L 292.004057 208.622935 
L 292.05559 208.178288 
L 292.12921 205.161037 
L 292.239639 187.978587 
L 292.408964 144.911301 
L 292.467859 152.883195 
L 292.69608 186.517602 
L 292.88749 199.602943 
L 292.931662 196.395129 
L 293.086263 158.727134 
L 293.248226 124.74336 
L 293.285036 128.459343 
L 293.623685 207.511316 
L 293.712029 221.930599 
L 293.770924 218.913349 
L 293.947611 186.771686 
L 294.264175 145.006582 
L 294.293622 146.213482 
L 294.426138 172.16184 
L 294.595462 205.796247 
L 294.676444 198.586606 
L 294.831045 180.387819 
L 294.948836 151.453971 
L 295.007731 158.822415 
L 295.169694 179.562045 
L 295.213866 177.116484 
L 295.375829 158.409528 
L 295.420001 168.223534 
L 295.574601 236.985093 
L 295.648221 224.94785 
L 295.817546 158.790655 
L 295.935337 109.27598 
L 295.986871 115.81865 
L 296.112024 168.858744 
L 296.273987 251.118532 
L 296.332882 238.477839 
L 296.539017 125.124487 
L 296.642084 152.946716 
L 296.789323 213.577579 
L 296.840857 201.82618 
L 297.061715 127.824132 
L 297.105887 133.128142 
L 297.23104 191.218161 
L 297.356193 252.103108 
L 297.407726 241.55861 
L 297.650671 128.681667 
L 297.739014 149.167212 
L 297.974596 216.02314 
L 297.996682 216.467787 
L 298.033492 214.593916 
L 298.158645 194.807102 
L 298.350056 138.908559 
L 298.408951 146.65813 
L 298.732877 204.017657 
L 298.747601 203.890615 
L 298.806497 199.031253 
L 299.19668 138.432151 
L 299.277661 144.911301 
L 299.520606 184.389646 
L 299.68993 232.570379 
L 299.741464 222.883416 
L 299.969684 178.609229 
L 300.050666 168.191773 
L 300.219991 146.022919 
L 300.2568 149.357776 
L 300.418763 193.060273 
L 300.514469 211.767228 
L 300.573364 207.384274 
L 300.904652 154.820588 
L 301.037167 161.680863 
L 301.081339 163.904101 
L 301.154958 162.570158 
L 301.184406 162.6972 
L 301.206492 162.189032 
L 301.258025 160.696287 
L 301.294835 162.792482 
L 301.375816 197.252663 
L 301.471522 234.825377 
L 301.523055 223.995034 
L 301.854343 142.910387 
L 301.950048 135.129056 
L 301.986858 139.766094 
L 302.089925 192.90147 
L 302.192993 237.270938 
L 302.244526 230.760028 
L 302.362318 165.936775 
L 302.450661 132.683494 
L 302.502195 141.798768 
L 302.700967 196.299847 
L 302.752501 188.454995 
L 302.958635 135.033774 
L 303.017531 139.988417 
L 303.120598 178.164581 
L 303.275199 249.84811 
L 303.334095 240.574034 
L 303.473972 158.218965 
L 303.584401 122.424841 
L 303.628573 129.189835 
L 303.92305 228.981438 
L 304.004032 214.784479 
L 304.2617 130.714341 
L 304.327958 141.798768 
L 304.637159 199.984069 
L 304.673969 201.572096 
L 304.725503 198.332521 
L 305.285011 134.843211 
L 305.343906 138.686236 
L 305.46906 172.542967 
L 305.638384 229.299044 
L 305.69728 219.294475 
L 305.910776 182.134648 
L 306.175807 152.946716 
L 306.22734 154.37594 
L 306.293598 166.667267 
L 306.448199 212.783565 
L 306.514456 206.812584 
L 307.05924 140.845952 
L 307.09605 144.117287 
L 307.258013 179.149158 
L 307.390528 243.368961 
L 307.449424 228.536791 
L 307.692368 172.955853 
L 307.905864 138.495672 
L 307.942674 142.211655 
L 308.045741 191.313443 
L 308.156171 226.440596 
L 308.200342 219.802644 
L 308.325495 157.615515 
L 308.399115 141.354121 
L 308.450649 148.849607 
L 308.634697 193.759004 
L 308.693593 183.500351 
L 308.885003 132.207086 
L 308.936537 138.273349 
L 309.039604 179.022116 
L 309.208929 257.53416 
L 309.260463 247.084944 
L 309.510769 119.471111 
L 309.606474 143.831442 
L 309.849419 232.506858 
L 309.878866 230.601226 
L 310.00402 193.060273 
L 310.188068 135.732506 
L 310.23224 140.210741 
L 310.592975 201.063928 
L 310.659233 198.364282 
L 311.078864 164.126425 
L 311.240827 124.870403 
L 311.299722 132.080044 
L 311.5942 218.849827 
L 311.66782 209.480469 
L 311.903402 163.332411 
L 311.954936 167.874168 
L 312.058003 184.834294 
L 312.124261 179.498524 
L 312.190518 171.272545 
L 312.249414 176.767118 
L 312.330395 183.119225 
L 312.389291 181.213593 
L 312.396653 181.150072 
L 312.418738 181.65824 
L 312.492358 190.170064 
L 312.551254 194.521257 
L 312.602787 191.218161 
L 312.853093 149.453057 
L 312.956161 131.286031 
L 313.007694 137.796941 
L 313.213829 201.953223 
L 313.324258 244.544101 
L 313.375792 237.588544 
L 313.869042 138.082785 
L 313.876404 138.178067 
L 313.920576 146.022919 
L 314.119348 224.884329 
L 314.192968 201.254491 
L 314.347569 143.831442 
L 314.391741 148.913128 
L 314.561065 192.520343 
L 314.627323 182.007606 
L 314.811372 129.44392 
L 314.877629 140.71891 
L 315.017506 211.767228 
L 315.135297 260.710213 
L 315.179469 252.452474 
L 315.319346 163.777059 
L 315.444499 114.897594 
L 315.488671 122.647165 
L 315.834682 228.092143 
L 315.856768 226.72644 
L 315.945112 198.554845 
L 316.121798 139.670812 
L 316.16597 142.4975 
L 316.342657 170.542053 
L 316.526705 208.210048 
L 316.556153 207.003148 
L 316.673944 189.757177 
L 316.872717 172.955853 
L 317.056766 151.771576 
L 317.174557 135.827787 
L 317.226091 141.862289 
L 317.557378 207.511316 
L 317.594188 206.145613 
L 317.667807 192.996751 
L 317.785599 165.61917 
L 317.837132 173.400501 
L 317.977009 203.60477 
L 318.035905 199.729985 
L 318.271487 157.996641 
L 318.330383 150.088268 
L 318.374554 156.281572 
L 318.573327 201.730899 
L 318.624861 196.712734 
L 318.73529 150.024747 
L 318.845719 126.458429 
L 318.882529 130.07913 
L 319.177007 224.280879 
L 319.280074 251.277334 
L 319.324246 245.560438 
L 319.493571 169.716279 
L 319.552466 158.282486 
L 319.626086 160.219879 
L 319.684981 152.02566 
L 319.780687 135.859548 
L 319.824858 141.512923 
L 320.038355 219.643841 
L 320.111974 193.346117 
L 320.244489 154.693545 
L 320.281299 158.060162 
L 320.465348 194.235412 
L 320.538967 182.865141 
L 320.708292 137.669898 
L 320.767188 143.10095 
L 320.899703 178.609229 
L 321.076389 255.565007 
L 321.135285 241.717413 
L 321.348781 117.978366 
L 321.422401 141.957571 
L 321.613812 187.660981 
L 321.790498 224.598484 
L 321.856756 211.86251 
L 322.13651 133.128142 
L 322.17332 136.55828 
L 322.298473 186.263518 
L 322.416264 210.242722 
L 322.460436 207.987724 
L 323.100925 148.119115 
L 323.108287 148.087354 
L 323.123011 148.309678 
L 323.218716 156.15453 
L 323.527918 202.39787 
L 323.601538 192.075696 
L 323.697243 173.305219 
L 323.756138 179.784369 
L 323.954911 219.135672 
L 324.013807 213.6411 
L 324.124236 176.957681 
L 324.256751 119.598154 
L 324.315646 133.60455 
L 324.521781 213.418776 
L 324.565953 204.112939 
L 324.750001 112.324991 
L 324.823621 133.953916 
L 325.147547 246.195649 
L 325.213804 254.389867 
L 325.257976 248.768252 
L 325.361043 189.503093 
L 325.471472 144.053766 
L 325.523006 146.213482 
L 325.581902 148.532002 
L 325.626073 146.848693 
L 325.692331 140.178981 
L 325.736502 145.641793 
L 325.949999 206.844345 
L 326.008895 194.362455 
L 326.111962 167.778886 
L 326.170857 173.400501 
L 326.362268 187.660981 
L 326.36963 187.502179 
L 326.421164 180.260777 
L 326.583126 152.819674 
L 326.63466 155.58284 
L 326.892328 190.392388 
L 327.024843 247.910718 
L 327.076377 236.000517 
L 327.27515 129.793286 
L 327.348769 149.262494 
L 327.591713 199.380619 
L 327.709505 219.389757 
L 327.753676 214.466874 
L 328.048154 131.22251 
L 328.129136 149.135452 
L 328.283736 211.163778 
L 328.349994 200.968646 
L 328.534043 180.546622 
L 328.541405 180.610143 
L 328.629748 182.769859 
L 328.67392 181.404156 
L 328.828521 175.496696 
L 329.056741 140.814191 
L 329.115637 144.911301 
L 329.454286 201.82618 
L 329.54263 188.042108 
L 329.601525 180.4831 
L 329.653059 185.405983 
L 329.903365 227.86982 
L 329.969623 220.279052 
L 330.080052 162.66544 
L 330.205205 100.764156 
L 330.249377 112.26147 
L 330.455511 211.767228 
L 330.521769 193.790765 
L 330.683732 118.486535 
L 330.735265 130.460257 
L 331.066553 248.323605 
L 331.103363 247.783675 
L 331.147534 244.258256 
L 331.235878 207.924203 
L 331.419926 134.239761 
L 331.456736 134.366803 
L 331.500908 137.034688 
L 331.670233 169.462195 
L 331.802748 189.630135 
L 331.839557 188.327953 
L 331.949987 172.797051 
L 332.008882 181.944085 
L 332.119311 201.381533 
L 332.170845 196.331608 
L 332.406427 144.466653 
L 332.487409 159.584668 
L 332.6052 181.02303 
L 332.664096 176.195428 
L 332.752439 167.461281 
L 332.796611 171.463108 
L 332.980659 229.616649 
L 333.061641 207.034908 
L 333.238327 142.179894 
L 333.289861 146.181722 
L 333.415014 168.985787 
L 333.599063 219.262714 
L 333.650597 215.514971 
L 333.783112 181.912325 
L 333.937713 131.000186 
L 333.989246 139.035601 
L 334.188019 211.004975 
L 334.269 190.805275 
L 334.386791 164.126425 
L 334.438325 170.319729 
L 334.688631 201.127449 
L 334.695993 200.936885 
L 334.762251 191.821612 
L 334.983109 127.411245 
L 335.078814 142.370458 
L 335.417464 208.718217 
L 335.461636 203.128362 
L 335.572065 182.356972 
L 335.630961 189.185487 
L 335.829733 239.938823 
L 335.895991 223.963274 
L 336.116849 101.685212 
L 336.205193 125.410332 
L 336.381879 203.509489 
L 336.440775 186.708165 
L 336.588014 134.716169 
L 336.632186 142.211655 
L 336.941387 250.324518 
L 337.022369 236.858051 
L 337.316847 132.842297 
L 337.427276 149.326015 
L 337.699668 188.16915 
L 337.721754 187.59746 
L 337.839545 171.55839 
L 337.891079 179.974932 
L 338.030956 215.356169 
L 338.089851 209.289906 
L 338.207642 157.964881 
L 338.303348 124.648079 
L 338.354881 134.874971 
L 338.509482 194.362455 
L 338.583102 186.168236 
L 338.722979 172.987614 
L 338.752427 173.90867 
L 338.818684 186.612884 
L 338.936475 213.990466 
L 338.995371 207.924203 
L 339.245677 141.703486 
L 339.319297 159.203542 
L 339.525431 214.181029 
L 339.540155 213.863423 
L 339.613774 206.52674 
L 339.70948 175.750781 
L 339.827271 137.542856 
L 339.878805 144.339611 
L 340.107025 195.474073 
L 340.165921 187.660981 
L 340.283712 161.267976 
L 340.342607 168.00121 
L 340.592914 212.624763 
L 340.644447 209.766314 
L 340.732791 188.105629 
L 340.902115 115.374002 
L 340.968373 125.823219 
L 341.351194 206.399698 
L 341.365918 205.573924 
L 341.498433 184.357886 
L 341.572053 194.71182 
L 341.741377 244.226495 
L 341.807635 228.060383 
L 342.021131 98.191553 
L 342.109475 127.66533 
L 342.271438 191.027598 
L 342.322971 181.690001 
L 342.47021 139.512009 
L 342.514382 146.753412 
L 342.816222 248.387126 
L 342.911927 234.221927 
L 343.213767 125.950261 
L 343.30211 142.624542 
L 343.478797 181.150072 
L 343.515607 179.752608 
L 343.581864 177.624652 
L 343.633398 178.70451 
L 343.736465 184.770773 
L 343.891066 220.691939 
L 343.964686 214.085747 
L 344.053029 182.547535 
L 344.20763 115.977453 
L 344.259164 127.887653 
L 344.443212 199.634703 
L 344.50947 193.219075 
L 344.678795 168.477618 
L 344.730328 174.130993 
L 344.899653 206.050332 
L 344.965911 198.745408 
L 345.157321 148.976649 
L 345.230941 164.189946 
L 345.459161 207.73364 
L 345.510695 209.448709 
L 345.547505 206.907866 
L 345.650572 166.82607 
L 345.738915 141.481163 
L 345.790449 149.929465 
L 346.003945 180.514861 
L 346.040755 181.721761 
L 346.084927 178.768032 
L 346.21008 165.428607 
L 346.268975 170.796137 
L 346.51192 222.597571 
L 346.592901 209.893356 
L 346.843207 114.961115 
L 346.938913 131.286031 
L 347.226029 194.425976 
L 347.284924 198.014916 
L 347.336458 194.870623 
L 347.424801 184.770773 
L 347.468973 189.471332 
L 347.667746 238.700162 
L 347.726641 226.440596 
L 347.932776 98.445637 
L 348.035843 138.908559 
L 348.153634 186.612884 
L 348.205168 174.925007 
L 348.337683 137.034688 
L 348.389216 145.038343 
L 348.668971 252.007827 
L 348.786762 231.363479 
L 348.948725 161.522061 
L 349.125411 118.327732 
L 349.154859 121.916673 
L 349.383079 193.441399 
L 349.500871 179.117397 
L 349.567128 171.939516 
L 349.6113 177.815215 
L 349.780625 228.727354 
L 349.854244 216.880674 
L 350.023569 140.687149 
L 350.10455 122.901249 
L 350.156084 131.413073 
L 350.362219 194.965905 
L 350.421114 190.424148 
L 350.583077 162.66544 
L 350.664058 171.145503 
L 350.840745 204.716389 
L 350.907003 197.824353 
L 351.076328 156.916783 
L 351.135223 167.048394 
L 351.363443 202.906039 
L 351.422339 204.652868 
L 351.451787 202.874278 
L 351.54013 178.323384 
L 351.650559 147.928551 
L 351.702093 155.138193 
L 351.783075 165.936775 
L 351.856694 165.714451 
L 351.996571 175.877823 
L 352.055467 173.082896 
L 352.107 170.827898 
L 352.151172 173.178177 
L 352.268963 192.93323 
L 352.416202 220.78722 
L 352.467736 215.959619 
L 352.607613 170.827898 
L 352.821109 117.565479 
L 352.843195 119.344069 
L 352.946262 155.963967 
L 353.093501 190.011261 
L 353.130311 189.090206 
L 353.159759 188.550276 
L 353.211292 189.630135 
L 353.343808 194.68006 
L 353.498408 217.166519 
L 353.57939 225.297216 
L 353.630923 220.882502 
L 353.711905 184.516688 
L 353.84442 103.559083 
L 353.903316 118.264211 
L 354.043193 189.884219 
L 354.116812 170.35149 
L 354.234603 133.763353 
L 354.286137 141.354121 
L 354.477548 236.572206 
L 354.558529 265.537815 
L 354.610063 252.261911 
L 355.01497 123.631742 
L 355.044417 121.059138 
L 355.081227 127.125401 
L 355.294724 196.363368 
L 355.368343 187.152813 
L 355.449325 172.828811 
L 355.500858 180.927748 
L 355.677545 233.427913 
L 355.736441 224.185597 
L 355.986747 132.905818 
L 356.07509 150.024747 
L 356.222329 188.232671 
L 356.273863 185.310702 
L 356.487359 159.171781 
L 356.560979 166.921352 
L 356.767113 202.207307 
L 356.833371 198.364282 
L 356.958524 168.350576 
L 357.002696 162.856003 
L 357.054229 170.446771 
L 357.194106 200.460477 
L 357.24564 198.745408 
L 357.392879 188.7726 
L 357.554842 159.521147 
L 357.628461 164.189946 
L 357.657909 164.761635 
L 357.702081 163.078327 
L 357.73889 161.426779 
L 357.790424 163.967622 
L 357.856682 167.207197 
L 357.900853 165.079241 
L 357.967111 160.632766 
L 358.011283 164.44403 
L 358.276313 220.533136 
L 358.364656 209.861596 
L 358.776925 129.983849 
L 358.784287 130.07913 
L 358.828459 135.351379 
L 359.226004 198.523085 
L 359.410053 212.878847 
L 359.47631 213.609339 
L 359.498396 213.926944 
L 359.527844 213.037649 
L 359.594101 199.698224 
L 359.763426 117.470198 
L 359.844408 138.36863 
L 359.940113 164.825156 
L 360.00637 160.982132 
L 360.124162 149.64362 
L 360.175695 154.884109 
L 360.30821 202.429631 
L 360.448087 271.826401 
L 360.499621 256.454302 
L 360.713117 133.096381 
L 360.808823 147.579186 
L 360.845633 149.865944 
L 360.897166 145.165385 
L 360.9487 141.767007 
L 360.98551 146.404046 
L 361.169558 198.554845 
L 361.243178 187.279855 
L 361.346245 158.473049 
L 361.397779 172.13008 
L 361.589189 239.811781 
L 361.625999 235.047701 
L 361.765876 157.520233 
L 361.868943 136.812364 
L 361.913115 142.275176 
L 362.075078 184.357886 
L 362.156059 175.464936 
L 362.340108 156.186291 
L 362.369556 157.520233 
L 362.472623 170.605574 
L 362.68612 207.447795 
L 362.730291 204.684629 
L 362.833358 182.515775 
L 362.929064 159.616429 
L 362.980597 169.049308 
L 363.127836 201.635617 
L 363.17937 198.808929 
L 363.348695 177.592892 
L 363.451762 166.032057 
L 363.51802 167.556562 
L 363.547467 167.937689 
L 363.584277 166.667267 
L 363.687344 161.299737 
L 363.738878 163.26889 
L 363.753602 163.491214 
L 363.78305 161.998469 
L 363.871393 152.914955 
L 363.915565 158.155444 
L 364.136423 226.027709 
L 364.239491 211.259059 
L 364.504521 171.240785 
L 364.585502 161.299737 
L 364.754827 134.176239 
L 364.806361 138.845038 
L 365.21863 219.103912 
L 365.321697 210.401525 
L 365.52047 182.007606 
L 365.667708 129.221596 
L 365.726604 138.019264 
L 365.778138 143.323274 
L 365.844395 140.337783 
L 365.873843 141.989331 
L 366.160959 191.281683 
L 366.337646 270.524219 
L 366.396541 253.659375 
L 366.602676 101.272325 
L 366.698381 138.622714 
L 366.88243 169.493955 
L 366.985497 195.156468 
L 367.066479 213.799902 
L 367.11065 204.049418 
L 367.243165 143.609119 
L 367.302061 162.474877 
L 367.478748 244.321777 
L 367.530281 233.872561 
L 367.75114 138.33687 
L 367.824759 155.424038 
L 367.957274 184.294365 
L 368.001446 180.578382 
L 368.251752 155.900446 
L 368.273838 155.169954 
L 368.310648 157.806078 
L 368.61985 213.67286 
L 368.708193 200.396956 
L 368.84807 161.744384 
L 368.906966 170.542053 
L 369.083652 199.031253 
L 369.120462 196.680974 
L 369.584265 156.630938 
L 369.621075 158.949457 
L 369.665246 161.903187 
L 369.71678 158.060162 
L 369.760952 155.805164 
L 369.805123 158.631852 
L 369.915552 185.024857 
L 370.055429 220.437854 
L 370.099601 217.738209 
L 370.224754 188.709079 
L 370.305736 178.831553 
L 370.364631 180.705424 
L 370.423527 183.341549 
L 370.467699 180.991269 
L 370.563404 162.347835 
L 370.710643 126.299627 
L 370.769538 134.970253 
L 371.137636 226.218272 
L 371.181808 219.739122 
L 371.733954 115.945692 
L 371.770763 121.726109 
L 372.219842 250.99149 
L 372.256652 247.275507 
L 372.337633 205.700966 
L 372.499596 94.888457 
L 372.558492 109.87943 
L 372.845608 197.157382 
L 372.948675 224.026795 
L 373.000209 209.258146 
L 373.147448 133.699831 
L 373.206343 150.024747 
L 373.38303 250.483321 
L 373.449288 231.077634 
L 373.64806 140.814191 
L 373.706956 150.183549 
L 373.832109 178.895074 
L 373.883642 173.019375 
L 373.994072 160.696287 
L 374.045605 162.887764 
L 374.082415 163.84058 
L 374.119225 162.252553 
L 374.170758 158.346007 
L 374.244378 160.537484 
L 374.317997 166.381423 
L 374.531494 214.181029 
L 374.605113 204.938713 
L 374.774438 160.88685 
L 374.833334 169.748039 
L 374.995297 201.699138 
L 375.04683 196.680974 
L 375.289775 173.559304 
L 375.370756 164.507551 
L 375.466461 147.102777 
L 375.517995 154.248898 
L 375.621062 171.844235 
L 375.679958 168.5729 
L 375.724129 166.571986 
L 375.760939 169.7798 
L 375.981798 205.415121 
L 376.048055 200.873364 
L 376.210018 181.975846 
L 376.261552 184.421407 
L 376.394067 195.315271 
L 376.438238 191.567527 
L 376.629649 125.88674 
L 376.732716 146.404046 
L 377.08609 227.075806 
L 377.181795 215.229126 
L 377.505721 145.864117 
L 377.638236 97.651623 
L 377.68977 108.513727 
L 377.9548 250.832687 
L 378.065229 235.238264 
L 378.212468 205.319839 
L 378.433326 96.952892 
L 378.492222 111.340414 
L 378.838233 230.28362 
L 378.845595 229.966015 
L 378.897129 214.022226 
L 379.081178 130.555538 
L 379.140073 145.101864 
L 379.324122 246.132128 
L 379.397742 225.932427 
L 379.603876 147.007496 
L 379.65541 152.692632 
L 379.736391 159.838752 
L 379.795287 158.282486 
L 379.817373 157.996641 
L 379.84682 159.267063 
L 379.979335 178.196342 
L 380.052955 169.684518 
L 380.18547 143.10095 
L 380.237004 153.867772 
L 380.443138 228.282707 
L 380.494672 220.056728 
L 380.686082 154.248898 
L 380.767064 171.113742 
L 380.914303 203.922376 
L 380.965836 199.507661 
L 381.370744 144.593695 
L 381.392829 145.800596 
L 381.510621 176.29071 
L 381.562154 180.45134 
L 381.635774 179.689087 
L 381.694669 183.150985 
L 381.81246 193.123794 
L 381.88608 189.91598 
L 382.070129 183.817957 
L 382.077491 183.690915 
L 382.106938 184.866054 
L 382.313073 206.52674 
L 382.364607 196.776255 
L 382.533931 135.287858 
L 382.622275 145.101864 
L 382.659084 146.785172 
L 382.71798 144.30785 
L 382.732704 144.022006 
L 382.769514 145.705314 
L 382.850495 162.6972 
L 383.071354 224.153837 
L 383.115525 220.596657 
L 383.410003 149.865944 
L 383.557242 94.062683 
L 383.601414 102.225141 
L 383.726567 197.919635 
L 383.85172 268.745629 
L 383.895892 260.106763 
L 384.367056 116.104495 
L 384.396504 118.867661 
L 384.49221 160.855089 
L 384.713068 223.1375 
L 384.75724 220.120249 
L 384.882393 187.311616 
L 385.029632 125.473853 
L 385.088527 144.085527 
L 385.279938 242.860792 
L 385.338834 229.584889 
L 385.633311 135.319619 
L 385.684845 140.75067 
L 385.861532 185.533026 
L 385.957237 173.146417 
L 386.089752 139.099122 
L 386.148648 149.61186 
L 386.362144 234.190166 
L 386.435764 218.087575 
L 386.605089 155.424038 
L 386.663984 163.364172 
L 386.833309 201.730899 
L 386.906929 198.459564 
L 387.032082 179.657327 
L 387.275026 148.627283 
L 387.282388 148.43672 
L 387.311836 149.802423 
L 387.738829 188.105629 
L 387.805086 186.708165 
L 387.952325 179.149158 
L 388.003859 182.166409 
L 388.209993 206.749063 
L 388.268889 200.396956 
L 388.636986 138.590954 
L 388.65171 138.908559 
L 388.732692 147.642707 
L 388.938826 202.556673 
L 389.02717 224.090316 
L 389.078703 217.261801 
L 389.358457 145.228906 
L 389.490972 105.528236 
L 389.549868 117.216113 
L 389.78545 253.818177 
L 389.895879 227.806299 
L 390.094652 167.715365 
L 390.308148 121.75787 
L 390.31551 121.694349 
L 390.337596 122.424841 
L 390.396492 140.655389 
L 390.65416 225.170174 
L 390.661522 225.170174 
L 390.705694 221.708276 
L 390.808761 190.011261 
L 390.970724 127.125401 
L 391.022257 139.861375 
L 391.228392 232.538618 
L 391.316735 224.979611 
L 391.412441 185.81887 
L 391.544956 126.839556 
L 391.596489 134.271521 
L 391.795262 185.247181 
L 391.854158 177.052963 
L 392.008758 141.957571 
L 392.060292 147.610946 
L 392.185445 201.381533 
L 392.281151 237.175657 
L 392.332684 228.981438 
L 392.516733 154.502982 
L 392.6198 173.495783 
L 392.840659 201.572096 
L 392.848021 201.699138 
L 392.877468 200.492238 
L 392.95845 182.80162 
L 393.157222 154.502982 
L 393.216118 149.389536 
L 393.267652 153.645448 
L 393.459062 186.041194 
L 393.554768 183.659154 
L 393.584215 183.690915 
L 393.628387 183.563872 
L 393.635749 183.563872 
L 393.672559 183.214506 
L 393.709368 183.754436 
L 393.731454 184.103801 
L 393.768264 182.928662 
L 393.82716 179.816129 
L 393.878693 182.22993 
L 394.070104 200.079351 
L 394.143723 192.90147 
L 394.607526 141.100036 
L 394.666422 144.180808 
L 394.784213 156.472135 
L 394.909366 210.655609 
L 394.990347 233.427913 
L 395.049243 225.487779 
L 395.402617 123.631742 
L 395.49096 138.495672 
L 395.638199 191.027598 
L 395.822248 236.254601 
L 395.866419 237.525022 
L 395.903229 235.333545 
L 395.976848 207.892443 
L 396.212431 126.49019 
L 396.249241 128.364061 
L 396.32286 147.071017 
L 396.595252 217.515885 
L 396.602614 217.420603 
L 396.668872 209.321667 
L 396.808749 166.22262 
L 396.904454 142.243416 
L 396.955988 149.00841 
L 397.213656 224.122076 
L 397.294637 205.192797 
L 397.463962 147.737988 
L 397.515496 153.423124 
L 397.699544 177.783455 
L 397.736354 175.464936 
L 397.942489 138.082785 
L 398.016108 150.564676 
L 398.214881 233.681998 
L 398.295862 215.800816 
L 398.450463 161.903187 
L 398.487273 164.571072 
" clip-path="url(#pced27b1ab4)" style="fill: none; stroke: #1f77b4; stroke-width: 1.5; stroke-linecap: square"/>
   </g>
   <g id="patch_3">
    <path d="M 57.6 307.584 
L 57.6 41.472 
" style="fill: none; stroke: #000000; stroke-width: 0.8; stroke-linejoin: miter; stroke-linecap: square"/>
   </g>
   <g id="patch_4">
    <path d="M 414.72 307.584 
L 414.72 41.472 
" style="fill: none; stroke: #000000; stroke-width: 0.8; stroke-linejoin: miter; stroke-linecap: square"/>
   </g>
   <g id="patch_5">
    <path d="M 57.6 307.584 
L 414.72 307.584 
" style="fill: none; stroke: #000000; stroke-width: 0.8; stroke-linejoin: miter; stroke-linecap: square"/>
   </g>
   <g id="patch_6">
    <path d="M 57.6 41.472 
L 414.72 41.472 
" style="fill: none; stroke: #000000; stroke-width: 0.8; stroke-linejoin: miter; stroke-linecap: square"/>
   </g>
   <g id="text_18">
    <text style="font: 12px 'IPAexGothic'; text-anchor: middle" x="236.16" y="35.472" transform="rotate(-0 236.16 35.472)">"061_A1.wav"の波形グラフ</text>
   </g>
  </g>
 </g>
 <defs>
  <clipPath id="pced27b1ab4">
   <rect x="57.6" y="41.472" width="357.12" height="266.112"/>
  </clipPath>
 </defs>
</svg>
