<?xml version="1.0" encoding="utf-8" standalone="no"?>
<!DOCTYPE svg PUBLIC "-//W3C//DTD SVG 1.1//EN"
  "http://www.w3.org/Graphics/SVG/1.1/DTD/svg11.dtd">
<svg xmlns:xlink="http://www.w3.org/1999/xlink" width="460.8pt" height="345.6pt" viewBox="0 0 460.8 345.6" xmlns="http://www.w3.org/2000/svg" version="1.1">
 <metadata>
  <rdf:RDF xmlns:dc="http://purl.org/dc/elements/1.1/" xmlns:cc="http://creativecommons.org/ns#" xmlns:rdf="http://www.w3.org/1999/02/22-rdf-syntax-ns#">
   <cc:Work>
    <dc:type rdf:resource="http://purl.org/dc/dcmitype/StillImage"/>
    <dc:date>2022-11-28T11:27:26.186147</dc:date>
    <dc:format>image/svg+xml</dc:format>
    <dc:creator>
     <cc:Agent>
      <dc:title>Matplotlib v3.6.2, https://matplotlib.org/</dc:title>
     </cc:Agent>
    </dc:creator>
   </cc:Work>
  </rdf:RDF>
 </metadata>
 <defs>
  <style type="text/css">*{stroke-linejoin: round; stroke-linecap: butt}</style>
 </defs>
 <g id="figure_1">
  <g id="patch_1">
   <path d="M 0 345.6 
L 460.8 345.6 
L 460.8 0 
L 0 0 
z
" style="fill: #ffffff"/>
  </g>
  <g id="axes_1">
   <g id="patch_2">
    <path d="M 57.6 307.584 
L 414.72 307.584 
L 414.72 41.472 
L 57.6 41.472 
z
" style="fill: #ffffff"/>
   </g>
   <g id="matplotlib.axis_1">
    <g id="xtick_1">
     <g id="line2d_1">
      <defs>
       <path id="ma9f71ec900" d="M 0 0 
L 0 3.5 
" style="stroke: #000000; stroke-width: 0.8"/>
      </defs>
      <g>
       <use xlink:href="#ma9f71ec900" x="73.832727" y="307.584" style="stroke: #000000; stroke-width: 0.8"/>
      </g>
     </g>
     <g id="text_1">
      <text style="font: 10px 'IPAexGothic'; text-anchor: middle" x="73.832727" y="322.074625" transform="rotate(-0 73.832727 322.074625)">0.0</text>
     </g>
    </g>
    <g id="xtick_2">
     <g id="line2d_2">
      <g>
       <use xlink:href="#ma9f71ec900" x="138.765109" y="307.584" style="stroke: #000000; stroke-width: 0.8"/>
      </g>
     </g>
     <g id="text_2">
      <text style="font: 10px 'IPAexGothic'; text-anchor: middle" x="138.765109" y="322.074625" transform="rotate(-0 138.765109 322.074625)">0.2</text>
     </g>
    </g>
    <g id="xtick_3">
     <g id="line2d_3">
      <g>
       <use xlink:href="#ma9f71ec900" x="203.69749" y="307.584" style="stroke: #000000; stroke-width: 0.8"/>
      </g>
     </g>
     <g id="text_3">
      <text style="font: 10px 'IPAexGothic'; text-anchor: middle" x="203.69749" y="322.074625" transform="rotate(-0 203.69749 322.074625)">0.4</text>
     </g>
    </g>
    <g id="xtick_4">
     <g id="line2d_4">
      <g>
       <use xlink:href="#ma9f71ec900" x="268.629872" y="307.584" style="stroke: #000000; stroke-width: 0.8"/>
      </g>
     </g>
     <g id="text_4">
      <text style="font: 10px 'IPAexGothic'; text-anchor: middle" x="268.629872" y="322.074625" transform="rotate(-0 268.629872 322.074625)">0.6</text>
     </g>
    </g>
    <g id="xtick_5">
     <g id="line2d_5">
      <g>
       <use xlink:href="#ma9f71ec900" x="333.562253" y="307.584" style="stroke: #000000; stroke-width: 0.8"/>
      </g>
     </g>
     <g id="text_5">
      <text style="font: 10px 'IPAexGothic'; text-anchor: middle" x="333.562253" y="322.074625" transform="rotate(-0 333.562253 322.074625)">0.8</text>
     </g>
    </g>
    <g id="xtick_6">
     <g id="line2d_6">
      <g>
       <use xlink:href="#ma9f71ec900" x="398.494635" y="307.584" style="stroke: #000000; stroke-width: 0.8"/>
      </g>
     </g>
     <g id="text_6">
      <text style="font: 10px 'IPAexGothic'; text-anchor: middle" x="398.494635" y="322.074625" transform="rotate(-0 398.494635 322.074625)">1.0</text>
     </g>
    </g>
    <g id="text_7">
     <text style="font: 10px 'IPAexGothic'; text-anchor: middle" x="236.16" y="335.924625" transform="rotate(-0 236.16 335.924625)">時間[s]</text>
    </g>
   </g>
   <g id="matplotlib.axis_2">
    <g id="ytick_1">
     <g id="line2d_7">
      <defs>
       <path id="m8011b15ca3" d="M 0 0 
L -3.5 0 
" style="stroke: #000000; stroke-width: 0.8"/>
      </defs>
      <g>
       <use xlink:href="#m8011b15ca3" x="57.6" y="287.675192" style="stroke: #000000; stroke-width: 0.8"/>
      </g>
     </g>
     <g id="text_8">
      <text style="font: 10px 'IPAexGothic'; text-anchor: end" x="50.6" y="291.420504" transform="rotate(-0 50.6 291.420504)">−4000</text>
     </g>
    </g>
    <g id="ytick_2">
     <g id="line2d_8">
      <g>
       <use xlink:href="#m8011b15ca3" x="57.6" y="232.265206" style="stroke: #000000; stroke-width: 0.8"/>
      </g>
     </g>
     <g id="text_9">
      <text style="font: 10px 'IPAexGothic'; text-anchor: end" x="50.6" y="236.010518" transform="rotate(-0 50.6 236.010518)">−2000</text>
     </g>
    </g>
    <g id="ytick_3">
     <g id="line2d_9">
      <g>
       <use xlink:href="#m8011b15ca3" x="57.6" y="176.855219" style="stroke: #000000; stroke-width: 0.8"/>
      </g>
     </g>
     <g id="text_10">
      <text style="font: 10px 'IPAexGothic'; text-anchor: end" x="50.6" y="180.600532" transform="rotate(-0 50.6 180.600532)">0</text>
     </g>
    </g>
    <g id="ytick_4">
     <g id="line2d_10">
      <g>
       <use xlink:href="#m8011b15ca3" x="57.6" y="121.445233" style="stroke: #000000; stroke-width: 0.8"/>
      </g>
     </g>
     <g id="text_11">
      <text style="font: 10px 'IPAexGothic'; text-anchor: end" x="50.6" y="125.190546" transform="rotate(-0 50.6 125.190546)">2000</text>
     </g>
    </g>
    <g id="ytick_5">
     <g id="line2d_11">
      <g>
       <use xlink:href="#m8011b15ca3" x="57.6" y="66.035247" style="stroke: #000000; stroke-width: 0.8"/>
      </g>
     </g>
     <g id="text_12">
      <text style="font: 10px 'IPAexGothic'; text-anchor: end" x="50.6" y="69.780559" transform="rotate(-0 50.6 69.780559)">4000</text>
     </g>
    </g>
    <g id="text_13">
     <text style="font: 10px 'IPAexGothic'; text-anchor: middle" x="12.723438" y="174.528" transform="rotate(-90 12.723438 174.528)">振幅</text>
    </g>
   </g>
   <g id="line2d_12">
    <path d="M 73.832727 176.882924 
L 73.95788 174.278655 
L 73.979966 173.890785 
L 74.024138 175.386855 
L 74.25972 181.952938 
L 74.289168 181.759003 
L 74.340702 180.817033 
L 74.495303 177.132269 
L 74.510026 177.243089 
L 74.517388 177.243089 
L 74.82659 185.000487 
L 74.90021 183.587533 
L 75.003277 177.991124 
L 75.157878 172.062256 
L 75.20205 172.477831 
L 75.209412 172.422421 
L 75.238859 173.004225 
L 75.518613 177.714074 
L 75.525975 177.603254 
L 75.592233 178.185059 
L 75.599595 178.157354 
L 75.651128 178.295879 
L 75.673214 177.963419 
L 75.680576 177.963419 
L 75.805729 174.555705 
L 75.864625 175.774725 
L 76.181189 185.554587 
L 76.217998 185.277537 
L 76.409409 182.700973 
L 76.416771 182.728678 
L 76.431495 182.423923 
L 76.578734 174.001605 
L 76.718611 166.382732 
L 76.755421 167.296997 
L 76.998365 183.449008 
L 77.09407 179.819654 
L 77.292843 171.286516 
L 77.329653 172.145371 
L 77.528425 182.590153 
L 77.62413 184.972782 
L 77.683026 184.557208 
L 77.815541 181.786708 
L 77.852351 182.008348 
L 77.970142 183.947698 
L 78.021676 183.255073 
L 78.26462 172.062256 
L 78.308792 172.671765 
L 78.617993 184.446388 
L 78.698975 182.229988 
L 78.978729 165.357647 
L 79.05971 167.712572 
L 79.471979 193.367395 
L 79.538237 191.732801 
L 79.656028 182.479333 
L 79.869525 168.183557 
L 79.950506 170.981761 
L 80.23026 193.28428 
L 80.289156 190.901651 
L 80.45848 167.712572 
L 80.605719 153.915485 
L 80.657253 155.21762 
L 80.782406 166.438142 
L 81.047436 202.593158 
L 81.113694 200.515284 
L 81.319828 180.706213 
L 81.518601 157.240084 
L 81.570135 160.010584 
L 81.717374 191.982146 
L 81.820441 204.560213 
L 81.864613 201.706598 
L 82.033937 165.052892 
L 82.203262 142.916603 
L 82.23271 143.886278 
L 82.306329 150.951051 
L 82.637617 214.53401 
L 82.740684 204.393983 
L 83.042524 151.615971 
L 83.094058 155.965655 
L 83.32964 213.14876 
L 83.425346 197.440029 
L 83.697738 139.425774 
L 83.727185 140.644793 
L 83.800805 149.593506 
L 84.19835 215.669915 
L 84.257246 209.907276 
L 84.522276 149.122521 
L 84.617981 159.013204 
L 84.860925 211.070886 
L 84.927183 205.779232 
L 85.310004 144.551197 
L 85.390986 148.651536 
L 85.508777 173.53062 
L 85.722273 208.715962 
L 85.736997 208.383502 
L 85.825341 194.475595 
L 86.024113 159.539599 
L 86.068285 161.977638 
L 86.436382 202.925618 
L 86.50264 201.484958 
L 86.598345 189.821156 
L 86.841289 123.883273 
L 86.929633 140.229219 
L 87.187301 218.551234 
L 87.246197 211.181706 
L 87.452331 153.139745 
L 87.533313 162.476328 
L 87.746809 188.740661 
L 87.857238 194.5033 
L 88.011839 206.056282 
L 88.056011 203.230373 
L 88.159078 174.25095 
L 88.343127 128.122137 
L 88.379937 131.419031 
L 88.483004 163.501413 
L 88.667053 227.804702 
L 88.711224 221.100093 
L 88.939445 133.08133 
L 89.027788 153.583025 
L 89.211837 200.432169 
L 89.241284 200.099709 
L 89.278094 199.517904 
L 89.322266 200.709219 
L 89.447419 206.721202 
L 89.498953 203.701358 
L 89.624106 170.289136 
L 89.815516 138.068229 
L 89.83024 138.262164 
L 89.896498 143.387588 
L 89.999565 176.162595 
L 90.154166 230.519791 
L 90.198338 223.953708 
L 90.360301 141.254303 
L 90.43392 124.659012 
L 90.485454 131.723786 
L 90.743122 217.553854 
L 90.868275 210.599901 
L 90.956618 202.648568 
L 91.096495 154.94057 
L 91.206925 135.07609 
L 91.258458 138.012819 
L 91.435145 167.047652 
L 91.633918 234.204555 
L 91.692813 223.538133 
L 91.950481 126.930822 
L 92.016739 137.818884 
L 92.259683 226.530272 
L 92.355388 217.775494 
L 92.487904 188.602137 
L 92.716124 118.508504 
L 92.782381 125.240817 
L 92.914897 166.548962 
L 93.098945 241.823428 
L 93.157841 234.980295 
L 93.275632 185.360652 
L 93.422871 126.376722 
L 93.467043 133.607725 
L 93.842502 218.329594 
L 93.87195 217.027459 
L 93.989741 199.240854 
L 94.254771 99.392059 
L 94.357838 122.304088 
L 94.541887 231.101596 
L 94.644954 260.718234 
L 94.689126 252.545261 
L 94.799555 173.835375 
L 94.895261 132.499525 
L 94.946794 141.198893 
L 95.167653 193.034935 
L 95.219186 192.286901 
L 95.263358 191.344931 
L 95.300168 192.89641 
L 95.425321 208.466617 
L 95.49894 202.039058 
L 95.616731 162.116163 
L 95.793418 86.176777 
L 95.844952 98.588614 
L 96.006915 205.806937 
L 96.132068 272.492856 
L 96.183601 261.577088 
L 96.397098 133.773955 
L 96.507527 165.080597 
L 96.610594 184.169338 
L 96.66949 182.507038 
L 96.757833 178.683749 
L 96.794643 181.343428 
L 97.00814 224.147643 
L 97.067035 213.231875 
L 97.228998 99.308944 
L 97.287894 79.527579 
L 97.339427 93.07532 
L 97.626543 258.723474 
L 97.722249 221.487963 
L 97.884211 124.354257 
L 97.943107 139.592004 
L 98.127156 196.969044 
L 98.171327 194.697235 
L 98.281757 186.662787 
L 98.318566 190.957061 
L 98.473167 231.988156 
L 98.539425 219.936484 
L 98.775007 84.708412 
L 98.863351 115.93194 
L 99.076847 247.336722 
L 99.150466 230.575201 
L 99.363963 112.856685 
L 99.437582 138.068229 
L 99.614269 215.0327 
L 99.658441 211.347936 
L 99.761508 197.883309 
L 99.820404 202.842503 
L 99.952919 222.457638 
L 99.997091 215.53139 
L 100.276845 109.864546 
L 100.357826 126.820002 
L 100.549237 235.201935 
L 100.630218 215.115815 
L 100.858438 117.732764 
L 100.909972 130.698701 
L 101.086659 224.064528 
L 101.152916 212.151381 
L 101.248622 192.453131 
L 101.300155 197.855604 
L 101.43267 208.161862 
L 101.462118 206.859727 
L 101.528376 194.66953 
L 101.786044 113.743245 
L 101.844939 123.800158 
L 102.043712 223.399608 
L 102.132055 202.094468 
L 102.352914 143.415293 
L 102.389724 147.931207 
L 102.56641 215.47598 
L 102.654754 196.60888 
L 102.728373 180.678508 
L 102.794631 187.022952 
L 103.000765 196.33183 
L 103.008127 196.33183 
L 103.044937 193.3951 
L 103.17009 160.121404 
L 103.302605 99.004189 
L 103.361501 118.924079 
L 103.552911 232.431436 
L 103.611807 224.258463 
L 103.847389 158.902384 
L 103.913647 176.966039 
L 104.024076 208.605142 
L 104.07561 201.401843 
L 104.244935 148.319077 
L 104.318554 157.711069 
L 104.495241 207.164482 
L 104.576222 198.769869 
L 104.694013 138.179049 
L 104.797081 91.496136 
L 104.841252 105.154697 
L 105.084197 261.632498 
L 105.143092 244.122943 
L 105.319779 139.481184 
L 105.378675 157.156969 
L 105.51119 194.475595 
L 105.555361 188.186562 
L 105.7026 138.760854 
L 105.768858 153.55532 
L 105.930821 224.147643 
L 106.019164 215.14352 
L 106.092783 195.50068 
L 106.284194 71.022146 
L 106.34309 100.140093 
L 106.578672 288.007652 
L 106.630206 264.735458 
L 106.79953 123.800158 
L 106.865788 146.656777 
L 107.005665 196.858224 
L 107.049837 190.486076 
L 107.204438 137.680359 
L 107.263333 156.963034 
L 107.410572 228.469622 
L 107.469468 220.712224 
L 107.579897 191.732801 
L 107.756584 75.787404 
L 107.815479 100.860423 
L 108.058424 282.466653 
L 108.124681 249.303776 
L 108.294006 123.744748 
L 108.34554 139.869054 
L 108.507502 202.759388 
L 108.559036 192.813295 
L 108.691551 146.629072 
L 108.743085 161.755998 
L 108.890324 231.849631 
L 108.949219 223.039443 
L 109.096458 159.484189 
L 109.251059 84.708412 
L 109.287869 94.100405 
L 109.545537 257.365929 
L 109.63388 218.606644 
L 109.788481 132.139361 
L 109.825291 141.531353 
L 110.001978 207.025957 
L 110.053511 199.878069 
L 110.163941 158.071234 
L 110.230198 172.81029 
L 110.399523 228.331097 
L 110.443695 218.578939 
L 110.745535 98.006809 
L 110.789706 111.055861 
L 111.010565 234.814065 
L 111.062098 227.001257 
L 111.165166 178.101944 
L 111.290319 142.805783 
L 111.319767 147.626452 
L 111.511177 211.929741 
L 111.562711 202.981028 
L 111.680502 167.213882 
L 111.739398 172.367011 
L 111.879275 208.189567 
L 111.952894 190.596896 
L 112.24001 124.825242 
L 112.269458 127.401807 
L 112.343077 172.256191 
L 112.482954 219.520909 
L 112.519764 215.08811 
L 112.792156 155.079095 
L 112.84369 165.329942 
L 113.005653 204.754148 
L 113.042462 200.820038 
L 113.233873 161.091078 
L 113.285407 169.956676 
L 113.469455 193.256575 
L 113.520989 200.958563 
L 113.565161 193.976905 
L 113.741847 126.459837 
L 113.808105 141.863813 
L 113.992154 222.457638 
L 114.036325 216.833525 
L 114.308717 161.312718 
L 114.345527 165.191417 
L 114.50749 192.120671 
L 114.559024 187.050657 
L 114.706263 151.976136 
L 114.77252 165.939452 
L 115.008103 219.437794 
L 115.022826 217.664674 
L 115.11117 172.422421 
L 115.236323 113.82636 
L 115.287857 122.913598 
L 115.508715 250.024106 
L 115.597058 212.98253 
L 115.788469 147.515632 
L 115.817917 150.369246 
L 116.001965 190.846241 
L 116.060861 179.127029 
L 116.178652 140.977253 
L 116.230186 155.43926 
L 116.480492 230.076511 
L 116.502578 227.250602 
L 116.598283 168.876181 
L 116.708713 114.38046 
L 116.760246 120.918838 
L 116.870675 182.202283 
L 116.995828 260.108724 
L 117.054724 238.858994 
L 117.238773 132.63805 
L 117.312392 146.656777 
L 117.481717 202.537748 
L 117.533251 190.125911 
L 117.658404 136.378224 
L 117.717299 154.635815 
L 117.952882 226.086992 
L 117.967606 225.338957 
L 118.041225 196.996749 
L 118.17374 122.193268 
L 118.239998 132.47182 
L 118.379875 187.272297 
L 118.490304 254.512315 
L 118.556561 230.131921 
L 118.74061 129.174926 
L 118.792144 141.309713 
L 118.968831 210.683016 
L 119.027726 196.830519 
L 119.152879 151.976136 
L 119.204413 164.443383 
L 119.417909 206.499562 
L 119.432633 206.859727 
L 119.454719 203.867588 
L 119.579872 152.114661 
L 119.638768 133.940185 
L 119.705025 141.559058 
L 119.94797 227.832407 
L 119.992141 238.831289 
L 120.043675 224.563218 
L 120.227724 130.781816 
L 120.293981 148.346781 
L 120.463306 216.03008 
L 120.522202 205.557592 
L 120.669441 166.576667 
L 120.728336 175.6362 
L 120.890299 188.990006 
L 120.905023 188.380497 
L 121.00809 174.666525 
L 121.125881 139.896759 
L 121.192139 149.538096 
L 121.479255 224.092233 
L 121.516065 218.495824 
L 121.64858 144.191033 
L 121.714837 130.421651 
L 121.766371 138.206754 
L 121.979867 225.477482 
L 122.075573 205.446772 
L 122.186002 164.055513 
L 122.259621 170.206021 
L 122.377412 173.502915 
L 122.44367 181.232608 
L 122.473118 183.365893 
L 122.509928 176.41194 
L 122.612995 145.493167 
L 122.679252 152.66876 
L 122.944282 222.873213 
L 122.995816 214.31237 
L 123.135693 141.697583 
L 123.187227 131.779196 
L 123.253484 137.098554 
L 123.363914 182.534743 
L 123.496429 227.804702 
L 123.5406 220.878454 
L 123.695201 158.819269 
L 123.80563 167.130767 
L 123.901336 180.678508 
L 123.960231 195.99937 
L 124.011765 181.897528 
L 124.122194 152.308596 
L 124.173728 156.215 
L 124.328329 188.851481 
L 124.431396 230.492086 
L 124.490292 211.929741 
L 124.666978 126.681477 
L 124.762684 139.314954 
L 124.887837 200.515284 
L 124.983542 226.502567 
L 125.027714 219.216154 
L 125.174953 160.010584 
L 125.307468 165.108302 
L 125.388449 189.488696 
L 125.447345 204.560213 
L 125.498878 191.621981 
L 125.690289 156.575164 
L 125.719737 155.55008 
L 125.749185 158.625334 
L 125.889062 221.487963 
L 125.918509 231.766516 
L 125.977405 210.683016 
L 126.161454 124.160322 
L 126.220349 133.08133 
L 126.330779 179.764244 
L 126.433846 222.125178 
L 126.492741 210.378261 
L 126.632618 165.329942 
L 126.7136 172.450126 
L 126.735686 171.258811 
L 126.772495 167.380112 
L 126.809305 174.69423 
L 126.919734 209.574816 
L 126.971268 197.855604 
L 127.192126 150.147606 
L 127.221574 147.127762 
L 127.265746 155.411555 
L 127.412985 232.819306 
L 127.501328 200.432169 
L 127.670653 129.258041 
L 127.744273 139.813644 
L 127.928321 211.902036 
L 127.994579 197.606259 
L 128.105008 173.059635 
L 128.171266 177.908009 
L 128.193351 178.933094 
L 128.237523 174.02931 
L 128.259609 172.117666 
L 128.296419 180.207524 
L 128.370038 200.459874 
L 128.428934 192.397721 
L 128.664516 159.816649 
L 128.723412 150.119901 
L 128.774945 158.625334 
L 128.848565 203.756768 
L 128.90746 231.517171 
L 128.966356 217.165984 
L 129.194576 120.724903 
L 129.260834 145.991857 
L 129.430159 210.101211 
L 129.452245 208.466617 
L 129.746722 174.58341 
L 129.783532 180.401459 
L 129.820342 187.189182 
L 129.871876 177.603254 
L 129.982305 158.348284 
L 130.026476 163.473708 
L 130.122182 175.52538 
L 130.158992 169.347166 
L 130.225249 158.542219 
L 130.276783 165.025187 
L 130.409298 224.175348 
L 130.490279 207.413827 
L 130.68169 114.020295 
L 130.747947 145.216117 
L 130.931996 218.551234 
L 130.94672 217.914019 
L 131.108683 190.402961 
L 131.226474 172.173076 
L 131.278008 177.824894 
L 131.292732 178.323584 
L 131.322179 174.777345 
L 131.425247 150.729411 
L 131.498866 159.484189 
L 131.609295 180.235229 
L 131.660829 171.009466 
L 131.719725 164.637317 
L 131.756534 171.563566 
L 131.881687 219.797959 
L 131.947945 208.577437 
L 132.087822 134.30035 
L 132.168803 112.77357 
L 132.205613 124.077208 
L 132.433833 231.378646 
L 132.470643 226.336337 
L 132.882912 153.55532 
L 132.890274 153.27827 
L 132.919722 155.965655 
L 133.081685 177.076859 
L 133.125857 171.868321 
L 133.192114 164.886662 
L 133.228924 170.898646 
L 133.361439 220.019599 
L 133.427696 207.607762 
L 133.545488 139.287249 
L 133.633831 104.074202 
L 133.685365 116.541449 
L 133.928309 244.981798 
L 133.994566 232.071271 
L 134.193339 161.728293 
L 134.296406 163.307478 
L 134.362664 155.1068 
L 134.414197 162.199278 
L 134.561436 179.902769 
L 134.57616 178.794569 
L 134.671866 160.093699 
L 134.716037 171.314221 
L 134.848552 219.631729 
L 134.900086 210.960066 
L 135.032601 131.529851 
L 135.113583 96.787789 
L 135.165116 112.413405 
L 135.422784 247.586067 
L 135.496404 234.149145 
L 135.857139 150.674001 
L 135.879225 153.527615 
L 136.033826 185.637702 
L 136.070636 179.681129 
L 136.158979 154.303355 
L 136.203151 168.765361 
L 136.357752 215.559095 
L 136.3872 211.070886 
L 136.519715 134.46658 
L 136.593334 94.23893 
L 136.65223 114.82374 
L 136.931984 238.581944 
L 136.976155 235.89456 
L 137.042413 215.836145 
L 137.2191 175.52538 
L 137.336891 143.830868 
L 137.395786 161.007963 
L 137.506216 189.987386 
L 137.550387 181.149493 
L 137.638731 154.60811 
L 137.682902 167.823392 
L 137.844865 209.574816 
L 137.866951 208.383502 
L 137.940571 179.459489 
L 138.080448 96.566149 
L 138.154067 127.928202 
L 138.433821 232.209796 
L 138.455907 233.096355 
L 138.492717 230.131921 
L 138.831366 141.614468 
L 138.875538 153.638435 
L 138.985967 192.425426 
L 139.037501 179.071619 
L 139.11112 154.414175 
L 139.162654 167.103062 
L 139.346703 205.419067 
L 139.354065 205.363657 
L 139.398236 196.33183 
L 139.508666 128.953286 
L 139.567561 99.558289 
L 139.626457 116.929319 
L 139.920935 234.038325 
L 139.972468 229.411591 
L 140.31848 137.569539 
L 140.35529 146.407432 
L 140.465719 189.183941 
L 140.517252 175.0821 
L 140.590872 151.837611 
L 140.642405 166.548962 
L 140.833816 202.565453 
L 140.841178 202.565453 
L 140.914798 192.868705 
L 141.062037 103.686333 
L 141.157742 132.665755 
L 141.393324 244.233763 
L 141.45222 234.537015 
L 141.798231 134.24494 
L 141.812955 135.491665 
L 141.952832 186.801312 
L 142.033814 162.670263 
L 142.063261 157.960414 
L 142.107433 169.707331 
L 142.313568 199.240854 
L 142.32093 199.074624 
L 142.401911 187.272297 
L 142.541788 105.985847 
L 142.62277 124.271142 
L 142.81418 234.315375 
L 142.880438 253.98592 
L 142.931971 240.964574 
L 143.270621 131.197391 
L 143.285345 132.97051 
L 143.432584 181.398838 
L 143.520927 159.484189 
L 143.535651 158.403694 
L 143.565099 165.662402 
L 143.763871 200.265939 
L 143.771233 200.376759 
L 143.793319 199.573314 
L 143.866939 185.942457 
L 144.014178 101.469933 
L 144.102521 129.479681 
L 144.360189 260.967579 
L 144.448533 228.552737 
L 144.735649 124.880652 
L 144.77982 132.277885 
L 144.919697 175.41456 
L 145.000679 165.662402 
L 145.030127 169.873561 
L 145.15528 201.678893 
L 145.228899 196.747404 
L 145.258347 197.135274 
L 145.280433 196.44265 
L 145.339328 185.416062 
L 145.486567 101.359113 
L 145.574911 130.698701 
L 145.803131 249.857876 
L 145.854665 265.317262 
L 145.906198 246.200817 
L 146.2154 123.994093 
L 146.244848 127.512627 
L 146.620307 199.490199 
L 146.679203 193.11805 
L 146.841166 171.203401 
L 146.973681 109.421266 
L 147.017852 121.445233 
L 147.341778 256.0915 
L 147.42276 236.89194 
L 147.702514 128.648531 
L 147.798219 155.27303 
L 147.893924 188.269677 
L 147.960182 183.587533 
L 148.085335 195.417565 
L 148.122145 191.428046 
L 148.453432 123.966388 
L 148.51969 136.710684 
L 148.880425 247.309017 
L 148.961407 231.766516 
L 149.196989 132.083951 
L 149.263247 145.216117 
L 149.469381 187.604757 
L 149.535639 195.27904 
L 149.557725 197.744784 
L 149.609258 190.763126 
L 149.697602 175.442265 
L 149.756497 182.008348 
L 149.800669 169.845856 
L 149.969994 127.457217 
L 149.999441 129.341156 
L 150.161404 173.9739 
L 150.382263 251.520176 
L 150.433796 243.180973 
L 150.691465 133.74625 
L 150.765084 151.560561 
L 151.037476 200.432169 
L 151.044838 200.736923 
L 151.074286 197.911014 
L 151.471831 120.974248 
L 151.523365 129.064106 
L 151.670604 186.690492 
L 151.869376 259.554624 
L 151.913548 249.691646 
L 152.163854 129.950666 
L 152.266921 150.396951 
L 152.517228 198.298884 
L 152.546675 196.830519 
L 152.774896 171.563566 
L 152.966306 116.707679 
L 153.05465 134.63281 
L 153.334404 265.788247 
L 153.408023 245.702127 
L 153.65833 122.691958 
L 153.761397 140.589383 
L 153.989617 201.124793 
L 154.011703 199.739544 
L 154.11477 189.267056 
L 154.387162 133.109035 
L 154.446058 112.27488 
L 154.512316 124.132617 
L 154.637469 206.527267 
L 154.79207 271.329246 
L 154.821517 266.259232 
L 155.005566 160.786323 
L 155.167529 118.286864 
L 155.189615 119.007194 
L 155.241148 132.167066 
L 155.454645 213.14876 
L 155.506179 207.967927 
L 155.565074 198.437409 
L 155.92581 114.048 
L 155.940533 115.59948 
L 156.036239 150.590886 
L 156.271821 273.434825 
L 156.301269 266.508577 
L 156.669366 113.38308 
L 156.728262 129.368861 
L 156.927035 223.399608 
L 156.98593 213.564335 
L 157.405561 125.767212 
L 157.427647 127.706562 
L 157.508628 148.790061 
L 157.751573 269.805471 
L 157.795744 258.335604 
L 158.163842 114.241935 
L 158.215375 129.562796 
L 158.399424 226.696502 
L 158.450958 217.914019 
L 158.657092 146.130382 
L 158.745436 159.068614 
L 158.76016 160.121404 
L 158.796969 153.749255 
L 158.929484 134.660515 
L 158.958932 137.957409 
L 159.128257 215.836145 
L 159.231324 261.106104 
L 159.297582 248.389512 
L 159.378563 213.59204 
L 159.606784 123.162943 
L 159.650955 116.790794 
L 159.687765 124.852947 
L 159.864452 229.993396 
L 159.945433 213.010235 
L 160.12212 146.324317 
L 160.195739 153.33368 
L 160.232549 156.630574 
L 160.269359 150.812526 
L 160.394512 131.612966 
L 160.431322 134.771335 
L 160.541751 183.504418 
L 160.703714 258.418719 
L 160.769971 248.140167 
L 160.858315 214.14614 
L 161.108621 118.896374 
L 161.115983 118.674734 
L 161.138069 120.170803 
L 161.189602 147.931207 
L 161.329479 233.484225 
L 161.381013 224.036823 
L 161.587148 143.803163 
L 161.690215 156.021065 
L 161.697577 156.076475 
L 161.704939 155.82713 
L 161.78592 140.118399 
L 161.852178 133.58002 
L 161.896349 137.708064 
L 162.028864 182.617858 
L 162.176103 258.030849 
L 162.249723 250.605911 
L 162.345428 211.791216 
L 162.588373 114.54669 
L 162.625182 119.505884 
L 162.816593 228.691262 
L 162.91966 196.27642 
L 163.059537 145.770217 
L 163.103709 152.086956 
L 163.155243 156.824509 
L 163.206776 152.8904 
L 163.331929 133.663135 
L 163.398187 141.226598 
L 163.479168 163.556823 
L 163.655855 263.599553 
L 163.744198 254.81707 
L 164.075486 103.076823 
L 164.149106 140.727908 
L 164.296344 232.320616 
L 164.35524 222.374523 
L 164.524565 135.24232 
L 164.627632 159.151729 
L 164.664442 160.758618 
L 164.701252 157.517134 
L 164.811681 137.237079 
L 164.863214 143.664638 
L 164.951558 163.390593 
L 165.165054 267.699892 
L 165.22395 255.81445 
L 165.547876 91.385316 
L 165.614133 119.450474 
L 165.79082 239.690144 
L 165.849715 223.870593 
L 165.996954 125.379342 
L 166.070574 146.878417 
L 166.158917 165.385352 
L 166.203089 157.849594 
L 166.28407 143.498408 
L 166.350328 148.125142 
L 166.401862 154.77434 
L 166.512291 224.203053 
L 166.637444 267.450547 
L 166.674254 263.045453 
L 166.880388 172.367011 
L 167.027627 91.523841 
L 167.093885 116.208989 
L 167.285295 235.700625 
L 167.351553 210.960066 
L 167.476706 124.659012 
L 167.550325 141.143483 
L 167.646031 169.624216 
L 167.697564 160.287634 
L 167.763822 146.933827 
L 167.844803 148.679241 
L 167.896337 160.758618 
L 168.117195 267.395137 
L 168.190815 245.286552 
L 168.500017 96.095164 
L 168.55155 110.501761 
L 168.772409 234.34308 
L 168.85339 195.22363 
L 168.971181 126.210492 
L 169.030077 135.18691 
L 169.140506 163.529118 
L 169.19204 154.88516 
L 169.22885 149.316456 
L 169.309831 153.05663 
L 169.324555 152.918105 
L 169.339279 153.77696 
L 169.405536 174.63882 
L 169.596947 265.317262 
L 169.648481 252.988541 
L 169.972406 100.777308 
L 170.06075 123.689338 
L 170.25216 234.84177 
L 170.32578 205.779232 
L 170.458295 128.316071 
L 170.517191 137.015439 
L 170.620258 156.796804 
L 170.671791 148.817766 
L 170.693877 146.739892 
L 170.752773 152.918105 
L 170.841116 159.096319 
L 170.922098 205.197427 
L 171.061975 263.793488 
L 171.091422 259.111344 
L 171.378538 134.07871 
L 171.452158 102.245673 
L 171.511054 113.244555 
L 171.577311 145.770217 
L 171.739274 240.992279 
L 171.783446 231.212416 
L 171.938047 124.686717 
L 172.033752 141.586763 
L 172.085285 148.513011 
L 172.136819 141.808403 
L 172.158905 139.869054 
L 172.203077 146.601367 
L 172.409211 219.520909 
L 172.534364 263.599553 
L 172.563812 257.587569 
L 172.931909 97.868284 
L 173.034977 125.933442 
L 173.226387 247.281312 
L 173.270559 232.486846 
L 173.42516 121.223593 
L 173.506141 136.239699 
L 173.557675 141.780698 
L 173.609209 135.768715 
L 173.623933 134.882155 
L 173.660742 138.733149 
L 173.859515 207.663172 
L 174.006754 264.652343 
L 174.036202 259.139049 
L 174.441109 93.823355 
L 174.514728 120.918838 
L 174.706139 250.744436 
L 174.750311 232.376026 
L 174.912274 116.735384 
L 174.985893 131.363621 
L 175.022703 135.824125 
L 175.08896 130.837226 
L 175.111046 131.806901 
L 175.199389 157.184674 
L 175.479143 262.131188 
L 175.552763 243.014743 
L 175.803069 144.634312 
L 175.935584 90.055476 
L 175.965032 96.178279 
L 176.104909 212.622366 
L 176.185891 245.535897 
L 176.230062 229.522411 
L 176.399387 113.71554 
L 176.480368 129.701321 
L 176.767484 191.594276 
L 176.944171 261.133809 
L 176.988343 252.018866 
L 177.415336 95.651885 
L 177.481593 119.976869 
L 177.65828 240.604409 
L 177.717176 217.830904 
L 177.879139 104.905352 
L 177.945396 121.472938 
L 178.416561 254.678545 
L 178.438647 251.769521 
L 178.902449 105.404042 
L 178.976069 134.74363 
L 179.13067 236.06079 
L 179.189565 214.783355 
L 179.35889 101.275998 
L 179.425148 120.863428 
L 179.837417 238.969814 
L 179.881588 243.014743 
L 179.918398 237.556859 
L 180.021465 220.158124 
L 180.072999 224.507808 
L 180.095085 225.920762 
L 180.124533 219.243859 
L 180.374839 111.388321 
L 180.441096 128.510006 
L 180.610421 235.34046 
L 180.676679 207.247597 
L 180.846004 99.807634 
L 180.904899 117.760469 
L 181.339254 237.639974 
L 181.346616 237.695384 
L 181.353978 237.418334 
L 181.62637 207.580057 
L 181.869314 112.10865 
L 181.906124 117.372599 
L 182.009191 193.83838 
L 182.097535 235.45128 
L 182.141706 220.185829 
L 182.325755 103.714038 
L 182.399375 125.739507 
L 182.811644 238.166369 
L 182.892625 221.515668 
L 182.944159 215.780735 
L 183.010416 218.994514 
L 183.047226 222.734688 
L 183.084036 216.1409 
L 183.36379 109.726021 
L 183.415323 128.814761 
L 183.577286 236.642595 
L 183.636182 217.249099 
L 183.805507 103.991087 
L 183.89385 126.376722 
L 184.011641 157.655659 
L 184.261947 239.440799 
L 184.284033 242.349823 
L 184.328205 232.403731 
L 184.409186 215.86385 
L 184.475444 219.133039 
L 184.512254 221.958948 
L 184.549063 216.390245 
L 184.843541 108.673231 
L 184.895075 126.792297 
L 185.057038 242.848513 
L 185.123295 218.994514 
L 185.285258 97.397299 
L 185.373602 114.796035 
L 185.476669 144.883657 
L 185.756423 251.769521 
L 185.763785 251.852636 
L 185.771147 251.187716 
L 186.23495 136.738389 
L 186.330655 108.479296 
L 186.374827 125.739507 
L 186.536789 247.198197 
L 186.603047 219.659434 
L 186.76501 87.949896 
L 186.845991 105.764207 
L 186.978506 163.058133 
L 187.221451 255.509695 
L 187.236174 257.532159 
L 187.280346 247.087377 
L 187.479119 212.87171 
L 187.552738 184.529503 
L 187.810406 113.022915 
L 187.832492 116.402924 
L 187.920836 186.219507 
L 188.009179 239.690144 
L 188.060713 227.250602 
L 188.244761 82.547423 
L 188.369914 119.256539 
L 188.708564 258.501834 
L 188.76746 240.881459 
L 188.973594 203.895293 
L 189.290158 115.294725 
L 189.326968 122.553433 
L 189.488931 237.833909 
L 189.577274 197.606259 
L 189.724513 78.363969 
L 189.798132 100.694193 
L 190.188316 257.947734 
L 190.254573 236.864235 
L 190.519603 174.41718 
L 190.76991 117.206369 
L 190.814081 128.703941 
L 190.96132 242.959333 
L 191.049664 204.089228 
L 191.204264 68.556401 
L 191.277884 94.57139 
L 191.660705 256.03609 
L 191.682791 253.43182 
L 192.249661 120.724903 
L 192.286471 129.119516 
L 192.441072 244.206058 
L 192.536777 198.409704 
L 192.684016 67.281972 
L 192.757635 94.488275 
L 193.111009 244.122943 
L 193.140457 247.309017 
L 193.184628 239.551619 
L 193.508554 160.703208 
L 193.515916 161.035668 
L 193.582174 173.30898 
L 193.626345 163.335183 
L 193.729413 119.976869 
L 193.788308 137.846589 
L 193.920823 241.241623 
L 193.994443 215.47598 
L 194.163768 71.576246 
L 194.259473 111.332911 
L 194.561313 235.22964 
L 194.620208 243.042448 
L 194.66438 235.5621 
L 194.980944 158.736154 
L 195.010392 163.473708 
L 195.061925 176.35653 
L 195.113459 162.891903 
L 195.216526 123.246058 
L 195.26806 137.735769 
L 195.400575 235.589805 
L 195.481556 211.735806 
L 195.650881 74.31904 
L 195.746586 112.413405 
L 196.06315 241.213918 
L 196.092598 243.845893 
L 196.13677 237.833909 
L 196.460695 154.137125 
L 196.504867 165.745517 
L 196.549039 176.218005 
L 196.600572 161.949933 
L 196.70364 126.515247 
L 196.747811 138.289869 
L 196.887688 227.195192 
L 196.961308 210.572196 
L 197.086461 89.695311 
L 197.130633 72.850675 
L 197.189528 90.304821 
L 197.557626 247.669182 
L 197.587073 244.732453 
L 197.933085 152.918105 
L 198.021428 173.558325 
L 198.036152 174.02931 
L 198.058238 171.120286 
L 198.190753 130.116896 
L 198.234925 145.936447 
L 198.36744 221.016978 
L 198.426335 211.098591 
L 198.522041 135.325435 
L 198.610384 73.59871 
L 198.66928 91.773186 
L 199.030015 248.638857 
L 199.044739 248.057052 
L 199.250874 210.489081 
L 199.405475 150.396951 
L 199.46437 168.100442 
L 199.515904 174.278655 
L 199.560075 166.465847 
L 199.670505 132.028541 
L 199.714676 147.764977 
L 199.861915 217.027459 
L 199.906087 210.184326 
L 199.99443 141.171188 
L 200.097498 73.127725 
L 200.149031 89.529081 
L 200.509767 246.754917 
L 200.524491 245.646717 
L 200.760073 195.00199 
L 200.877864 145.493167 
L 200.914674 155.522375 
L 201.010379 174.057015 
L 201.039827 168.045032 
L 201.142894 133.02592 
L 201.194428 150.480066 
L 201.341667 214.561715 
L 201.385839 208.688257 
L 201.46682 147.543337 
L 201.577249 71.493131 
L 201.628783 87.617437 
L 201.886451 247.004262 
L 201.989518 240.299654 
L 202.063138 230.325856 
L 202.114671 238.554239 
L 202.129395 239.413094 
L 202.166205 232.763896 
L 202.350254 144.606607 
L 202.468045 172.256191 
L 202.490131 174.08472 
L 202.519579 168.377492 
L 202.622646 132.388705 
L 202.666818 148.180552 
L 202.82878 213.010235 
L 202.86559 207.496942 
L 202.93921 153.860075 
L 203.057001 69.526076 
L 203.101172 82.519718 
L 203.358841 249.082137 
L 203.46927 233.040945 
L 203.520803 224.119938 
L 203.564975 232.486846 
L 203.609147 242.072773 
L 203.66068 229.217656 
L 203.822643 139.259544 
L 203.910987 164.692727 
L 203.977244 178.240469 
L 204.021416 165.274532 
L 204.102397 141.475943 
L 204.146569 155.688605 
L 204.308532 205.751527 
L 204.330618 203.978408 
L 204.389513 177.714074 
L 204.536752 64.954752 
L 204.588286 86.758582 
L 204.823868 256.174615 
L 204.882764 242.045068 
L 205.000555 218.274184 
L 205.037365 227.001257 
L 205.081536 236.55948 
L 205.13307 223.316493 
L 205.295033 134.438875 
L 205.368652 161.562063 
L 205.456996 186.690492 
L 205.508529 173.835375 
L 205.582149 152.308596 
L 205.633683 166.299617 
L 205.780922 195.77773 
L 205.803007 194.66953 
L 205.861903 175.35915 
L 206.009142 61.796383 
L 206.068037 92.493515 
L 206.30362 259.720854 
L 206.333068 254.290675 
L 206.472945 214.70024 
L 206.517116 225.338957 
L 206.553926 231.683401 
L 206.60546 220.961568 
L 206.767423 131.363621 
L 206.848404 162.033048 
L 206.936747 191.178701 
L 207.003005 178.628339 
L 207.069262 161.091078 
L 207.120796 174.30636 
L 207.253311 185.471472 
L 207.260673 185.277537 
L 207.312207 178.517519 
L 207.393188 120.392443 
L 207.481532 59.967853 
L 207.533065 83.046113 
L 207.776009 260.468889 
L 207.812819 252.517556 
L 207.945334 210.572196 
L 207.989506 222.873213 
L 208.033678 231.711106 
L 208.085211 221.266323 
L 208.247174 130.089191 
L 208.335517 160.259929 
L 208.431223 189.073121 
L 208.490118 182.008348 
L 208.549014 169.291756 
L 208.60791 178.711454 
L 208.629995 179.653424 
L 208.666805 178.157354 
L 208.718339 178.905389 
L 208.769872 174.444885 
L 208.843492 141.669878 
L 208.961283 62.433598 
L 209.012817 90.000066 
L 209.248399 256.70101 
L 209.277847 251.741816 
L 209.410362 207.663172 
L 209.461896 223.316493 
L 209.513429 236.50407 
L 209.572325 223.205673 
L 209.726926 133.30297 
L 209.815269 155.55008 
L 209.947784 184.778847 
L 209.984594 180.262934 
L 210.021404 175.6362 
L 210.087661 180.927853 
L 210.19809 176.051775 
L 210.27171 161.229603 
L 210.441035 63.929667 
L 210.49993 104.129612 
L 210.720789 256.230025 
L 210.735513 255.620515 
L 210.823856 223.510428 
L 210.882751 202.260698 
L 210.934285 218.385004 
L 211.000543 234.73095 
L 211.052076 223.842888 
L 211.199315 138.843969 
L 211.295021 156.990739 
L 211.427536 181.897528 
L 211.464345 178.739159 
L 211.493793 176.35653 
L 211.552689 180.706213 
L 211.574775 181.149493 
L 211.626308 179.653424 
L 211.655756 178.517519 
L 211.744099 158.265169 
L 211.913424 65.564262 
L 211.97232 103.243053 
L 212.20054 257.476749 
L 212.207902 257.227404 
L 212.266798 235.368165 
L 212.355141 195.362155 
L 212.406675 214.25696 
L 212.480294 235.035705 
L 212.531828 224.507808 
L 212.686429 140.478563 
L 212.774772 155.633195 
L 212.914649 183.199663 
L 212.958821 180.595393 
L 212.980907 181.592773 
L 213.047164 186.025572 
L 213.113422 183.892288 
L 213.172317 173.25357 
L 213.319556 96.815494 
L 213.385814 59.219819 
L 213.437347 88.725636 
L 213.67293 258.612654 
L 213.687654 257.753799 
L 213.768635 219.936484 
L 213.827531 194.5033 
L 213.886426 214.75565 
L 213.960046 235.17423 
L 214.011579 224.119938 
L 214.173542 135.57478 
L 214.261886 153.05663 
L 214.490106 195.00199 
L 214.50483 194.61412 
L 214.600535 183.587533 
L 214.688879 152.059251 
L 214.858203 54.648495 
L 214.909737 83.988082 
L 215.145319 262.962338 
L 215.167405 260.330364 
L 215.263111 205.834642 
L 215.29992 191.871326 
L 215.366178 209.879571 
L 215.447159 230.159626 
L 215.491331 221.848128 
L 215.660656 131.225096 
L 215.748999 153.195155 
L 215.896238 202.814798 
L 215.984581 195.99937 
L 216.161268 146.961532 
L 216.337955 53.568 
L 216.382127 81.134468 
L 216.588261 266.674807 
L 216.639795 262.325123 
L 216.728138 211.597281 
L 216.779672 189.294761 
L 216.838567 204.144638 
L 216.934273 225.034202 
L 216.971083 218.966809 
L 217.140407 130.504766 
L 217.236113 155.965655 
L 217.37599 208.328092 
L 217.456971 196.137895 
L 217.729363 98.754844 
L 217.810345 57.585224 
L 217.854516 80.718893 
L 218.045927 267.921532 
L 218.119546 256.894945 
L 218.259423 187.022952 
L 218.355129 216.168605 
L 218.428748 225.449777 
L 218.465558 216.778115 
L 218.620159 131.806901 
L 218.715864 152.77958 
L 218.863103 211.015476 
L 218.936723 195.6115 
L 219.282734 65.398032 
L 219.34163 102.107148 
L 219.518317 266.009887 
L 219.56985 257.615274 
L 219.731813 183.781468 
L 219.820156 212.92712 
L 219.9085 230.464381 
L 219.945309 222.900918 
L 220.09991 135.46396 
L 220.21034 158.486809 
L 220.335493 205.806937 
L 220.394388 194.863465 
L 220.70359 84.154312 
L 220.755124 69.276731 
L 220.791934 84.098902 
L 220.998068 261.881843 
L 221.079049 242.848513 
L 221.218927 184.474093 
L 221.285184 206.887432 
L 221.388251 233.06865 
L 221.432423 223.621248 
L 221.587024 140.700203 
L 221.690091 159.013204 
L 221.80052 200.515284 
L 221.859416 191.289521 
L 222.220151 69.276731 
L 222.286409 105.431747 
L 222.470458 259.554624 
L 222.521991 251.492471 
L 222.698678 186.219507 
L 222.764936 208.688257 
L 222.868003 236.78112 
L 222.912175 225.006497 
L 223.066775 140.838728 
L 223.155119 154.94057 
L 223.27291 200.293644 
L 223.339168 189.627221 
L 223.692541 69.193616 
L 223.744075 90.055476 
L 223.950209 259.776264 
L 224.023829 241.823428 
L 224.17843 186.939837 
L 224.222601 197.578554 
L 224.340392 238.000139 
L 224.384564 227.084372 
L 224.546527 141.365123 
L 224.627508 154.968275 
L 224.760024 200.986268 
L 224.811557 190.901651 
L 225.164931 72.130345 
L 225.209102 88.947276 
L 225.429961 256.86724 
L 225.510942 234.038325 
L 225.658181 184.917372 
L 225.702353 195.33445 
L 225.820144 237.141284 
L 225.864316 224.147643 
L 226.018917 143.082833 
L 226.085174 152.50253 
L 226.217689 202.953323 
L 226.291309 187.216887 
L 226.629958 80.885123 
L 226.644682 82.187258 
L 226.718302 128.149842 
L 226.90235 253.37641 
L 226.946522 247.309017 
L 227.130571 180.623098 
L 227.196828 198.659049 
L 227.292534 236.22702 
L 227.344067 221.543373 
L 227.491306 147.238582 
L 227.550202 154.38647 
L 227.690079 206.250217 
L 227.763698 188.352792 
L 228.087624 86.149072 
L 228.094986 85.955137 
L 228.10971 87.118747 
L 228.183329 127.872792 
L 228.367378 248.417217 
L 228.418912 241.989658 
L 228.610322 179.598014 
L 228.669218 195.528385 
L 228.772285 236.06079 
L 228.823819 218.495824 
L 228.971058 149.815146 
L 229.022591 157.434019 
L 229.16983 208.632847 
L 229.236088 191.344931 
L 229.537928 88.808751 
L 229.54529 88.670226 
L 229.567376 90.110886 
L 229.633633 116.763089 
L 229.832406 246.533277 
L 229.906025 230.824546 
L 230.082712 176.550464 
L 230.11216 181.731298 
L 230.244675 242.876218 
L 230.310932 213.342695 
L 230.450809 150.341541 
L 230.487619 155.93795 
L 230.64222 210.350556 
L 230.715839 188.712956 
L 230.973508 94.155815 
L 231.002955 89.723016 
L 231.061851 99.890749 
L 231.201728 196.38724 
L 231.297433 245.009503 
L 231.356329 236.808825 
L 231.562463 175.719315 
L 231.606635 189.100826 
L 231.717064 245.785242 
L 231.77596 222.291408 
L 231.923199 153.084335 
L 231.967371 161.368128 
L 232.121972 208.965306 
L 232.180867 192.868705 
L 232.460621 94.23893 
L 232.475345 93.5186 
L 232.512155 98.976484 
L 232.629946 158.985499 
L 232.769823 240.105719 
L 232.83608 228.552737 
L 233.034853 177.437024 
L 233.064301 183.947698 
L 233.189454 248.915907 
L 233.255712 220.518289 
L 233.395589 154.912865 
L 233.43976 163.972398 
L 233.594361 207.303007 
L 233.645895 196.22101 
L 233.933011 103.298463 
L 233.940373 103.132233 
L 233.955097 104.240432 
L 234.050802 133.940185 
L 234.249574 231.794221 
L 234.323194 216.667295 
L 234.499881 179.708834 
L 234.53669 186.496557 
L 234.654482 252.683786 
L 234.720739 226.003877 
L 234.867978 154.580405 
L 234.91215 164.748137 
L 235.066751 208.549732 
L 235.110922 199.878069 
L 235.4054 112.16406 
L 235.44221 117.455714 
L 235.640983 193.201165 
L 235.729326 226.114697 
L 235.788222 215.392865 
L 235.97227 179.182439 
L 236.00908 186.053277 
L 236.126871 251.326241 
L 236.193129 223.011738 
L 236.340368 154.802045 
L 236.384539 165.385352 
L 236.53914 211.514166 
L 236.583312 202.870208 
L 236.723189 113.521605 
L 236.87779 115.627185 
L 236.958771 136.960029 
L 237.201716 220.518289 
L 237.275335 209.297766 
L 237.44466 175.276035 
L 237.503556 192.148376 
L 237.599261 248.888202 
L 237.665518 222.817803 
L 237.812757 159.484189 
L 237.856929 168.516016 
L 238.018892 214.229255 
L 238.063064 204.116933 
L 238.202941 107.869787 
L 238.335456 115.65489 
L 238.386989 124.631307 
L 238.674105 221.377143 
L 238.762449 208.688257 
L 238.858154 182.119168 
L 238.91705 167.518637 
L 238.961221 180.512279 
L 239.079012 249.719351 
L 239.14527 222.097473 
L 239.292509 163.695348 
L 239.329319 169.596511 
L 239.498643 212.262201 
L 239.542815 201.928238 
L 239.682692 104.129612 
L 239.800483 115.627185 
L 239.866741 130.255421 
L 240.153857 215.559095 
L 240.212752 210.184326 
L 240.308458 189.876566 
L 240.382077 166.521257 
L 240.433611 181.897528 
L 240.551402 248.444922 
L 240.61766 222.485343 
L 240.764898 167.158472 
L 240.80907 172.8657 
L 240.978395 213.121055 
L 241.029929 196.885929 
L 241.169806 101.026653 
L 241.250787 113.521605 
L 241.324407 129.285746 
L 241.67778 209.076126 
L 241.685142 209.020716 
L 241.736676 205.225132 
L 241.847105 167.269292 
L 241.913362 189.405581 
L 242.023792 249.386891 
L 242.090049 222.790098 
L 242.237288 170.787826 
L 242.274098 174.611115 
L 242.450785 211.957446 
L 242.502318 197.246094 
L 242.649557 97.147954 
L 242.730539 114.685215 
L 243.179617 209.436291 
L 243.209065 206.277922 
L 243.319494 168.128147 
L 243.37839 188.629842 
L 243.496181 245.896062 
L 243.555077 226.973552 
L 243.702316 179.237849 
L 243.739125 181.980643 
L 243.856917 199.434789 
L 243.923174 208.660552 
L 243.959984 202.122173 
L 244.129309 92.715155 
L 244.232376 124.575897 
L 244.401701 188.214267 
L 244.47532 182.867203 
L 244.519492 179.819654 
L 244.556302 184.113928 
L 244.659369 207.136777 
L 244.710903 194.253955 
L 244.784522 166.742897 
L 244.836056 182.839498 
L 244.975933 244.843273 
L 245.027466 228.746672 
L 245.167343 181.398838 
L 245.211515 183.670648 
L 245.285135 188.435907 
L 245.402926 207.607762 
L 245.439735 199.933479 
L 245.60906 88.143831 
L 245.704766 125.434752 
L 245.866728 195.306745 
L 245.932986 187.937217 
L 246.006605 174.777345 
L 246.058139 182.811793 
L 246.131759 203.368898 
L 246.190654 189.239351 
L 246.24955 166.548962 
L 246.308445 182.784088 
L 246.448322 241.795723 
L 246.499856 229.106836 
L 246.617647 182.008348 
L 246.683905 186.025572 
L 246.728076 185.139012 
L 246.764886 188.574432 
L 246.882677 207.912517 
L 246.919487 199.490199 
L 247.088812 84.459067 
L 247.177155 123.079828 
L 247.339118 199.490199 
L 247.390652 193.699855 
L 247.486357 169.374871 
L 247.545253 183.338188 
L 247.61151 204.172343 
L 247.663044 189.710336 
L 247.721939 166.881422 
L 247.780835 182.285398 
L 247.928074 238.194074 
L 247.979608 226.031582 
L 248.082675 184.086223 
L 248.156294 189.405581 
L 248.193104 186.662787 
L 248.222552 185.166717 
L 248.259362 189.045416 
L 248.362429 206.111692 
L 248.399239 198.769869 
L 248.568563 82.602833 
L 248.664269 130.532471 
L 248.811508 201.069383 
L 248.855679 195.251335 
L 248.966109 166.992242 
L 249.017642 181.786708 
L 249.0839 206.610382 
L 249.135433 191.594276 
L 249.201691 165.634697 
L 249.260586 183.227368 
L 249.407825 233.982915 
L 249.451997 225.865352 
L 249.547702 185.194422 
L 249.628684 195.77773 
L 249.643408 195.306745 
L 249.709665 186.247212 
L 249.775923 192.536246 
L 249.84218 201.429548 
L 249.87899 193.45051 
L 250.048315 83.046113 
L 250.136658 129.867551 
L 250.283897 202.316108 
L 250.328069 196.44265 
L 250.44586 163.695348 
L 250.497394 179.376374 
L 250.563651 202.842503 
L 250.615185 186.164097 
L 250.674081 165.274532 
L 250.725614 179.348669 
L 250.887577 231.600286 
L 250.931749 224.009118 
L 251.020092 186.358032 
L 251.093712 198.492819 
L 251.108435 199.434789 
L 251.145245 194.89117 
L 251.204141 187.161477 
L 251.263036 193.17346 
L 251.31457 200.875448 
L 251.358742 191.677391 
L 251.528066 83.073818 
L 251.601686 121.362118 
L 251.756287 203.784473 
L 251.793097 200.349054 
L 251.925612 157.129264 
L 251.984507 178.656044 
L 252.043403 196.969044 
L 252.094936 180.872443 
L 252.14647 166.271912 
L 252.198004 180.262934 
L 252.367329 230.381266 
L 252.404138 225.560597 
L 252.492482 190.264436 
L 252.573463 203.535128 
L 252.580825 203.950703 
L 252.610273 201.069383 
L 252.691254 187.189182 
L 252.75015 193.256575 
L 252.78696 197.467734 
L 252.831131 190.430666 
L 252.948922 104.628302 
L 253.007818 81.577748 
L 253.05199 99.641404 
L 253.236038 208.106452 
L 253.28021 200.570694 
L 253.405363 149.759736 
L 253.464259 172.58865 
L 253.523154 190.236731 
L 253.574688 174.777345 
L 253.611498 166.826012 
L 253.663031 180.179819 
L 253.839718 229.383886 
L 253.876528 225.449777 
L 253.972233 193.17346 
L 254.067939 203.812178 
L 254.163644 184.972782 
L 254.237263 193.699855 
L 254.266711 195.750025 
L 254.303521 190.707716 
L 254.399226 125.988852 
L 254.48757 81.937913 
L 254.531741 104.212727 
L 254.701066 210.405966 
L 254.745238 204.477098 
L 254.877753 143.110538 
L 254.951372 169.651921 
L 255.002906 183.892288 
L 255.061802 171.064876 
L 255.076525 169.430281 
L 255.120697 178.323584 
L 255.312108 228.718967 
L 255.341556 226.031582 
L 255.643395 183.061138 
L 255.665481 184.529503 
L 255.746463 192.95182 
L 255.783272 188.020332 
L 255.878978 123.107533 
L 255.959959 83.877262 
L 256.004131 102.134853 
L 256.166094 213.841385 
L 256.224989 203.645948 
L 256.357504 138.677739 
L 256.423762 161.368128 
L 256.490019 177.409319 
L 256.556277 170.289136 
L 256.607811 186.690492 
L 256.769773 227.583062 
L 256.791859 227.167487 
L 256.850755 215.559095 
L 256.924374 197.412324 
L 256.98327 207.303007 
L 257.005356 209.907276 
L 257.049527 200.958563 
L 257.123147 181.481953 
L 257.189405 187.909512 
L 257.226214 189.876566 
L 257.255662 186.995247 
L 257.336643 139.398069 
L 257.439711 83.627918 
L 257.483882 103.769448 
L 257.645845 217.470739 
L 257.704741 206.471857 
L 257.837256 137.153964 
L 257.903513 158.320579 
L 258.190629 225.089612 
L 258.197991 225.255842 
L 258.242163 223.870593 
L 258.308421 216.972049 
L 258.389402 198.825279 
L 258.448298 207.552352 
L 258.485107 212.539251 
L 258.529279 202.565453 
L 258.61026 181.204903 
L 258.68388 185.277537 
L 258.705966 186.025572 
L 258.735414 183.338188 
L 258.816395 137.597244 
L 258.919462 88.974981 
L 258.956272 104.462072 
L 259.125597 215.004995 
L 259.184492 204.421688 
L 259.317007 136.350519 
L 259.383265 156.713689 
L 259.670381 222.679278 
L 259.692467 221.792718 
L 259.81762 208.411207 
L 259.861792 201.512663 
L 259.920687 210.156621 
L 259.957497 215.25434 
L 260.001669 206.665792 
L 260.097374 181.121788 
L 260.170993 182.396218 
L 260.185717 182.534743 
L 260.200441 181.759003 
L 260.259337 160.703208 
L 260.391852 93.79565 
L 260.436024 110.778811 
L 260.583263 213.841385 
L 260.656882 204.393983 
L 260.796759 134.18953 
L 260.87774 157.932709 
L 261.135409 221.571078 
L 261.209028 217.664674 
L 261.341543 201.263318 
L 261.400439 210.128916 
L 261.429887 214.229255 
L 261.48142 205.252837 
L 261.643383 182.313103 
L 261.650745 182.368513 
L 261.658107 182.423923 
L 261.672831 182.146873 
L 261.717003 171.258811 
L 261.871603 99.059599 
L 261.923137 121.639168 
L 262.055652 211.846626 
L 262.12191 204.033818 
L 262.276511 130.200011 
L 262.372216 158.348284 
L 262.61516 224.452398 
L 262.68878 217.498444 
L 262.813933 200.903153 
L 262.858104 205.363657 
L 262.909638 212.345316 
L 262.95381 205.169722 
L 263.056877 184.058518 
L 263.130497 184.335568 
L 263.137858 184.363273 
L 263.14522 184.197043 
L 263.18203 176.799809 
L 263.343993 103.547808 
L 263.402889 129.008696 
L 263.52068 213.64745 
L 263.594299 203.008733 
L 263.697367 144.994477 
L 263.756262 121.805398 
L 263.815158 138.927084 
L 264.094912 226.724207 
L 264.12436 225.200432 
L 264.286322 201.152498 
L 264.35258 210.516786 
L 264.382028 213.564335 
L 264.433561 205.890052 
L 264.61761 182.922613 
L 264.661782 172.671765 
L 264.816383 106.096667 
L 264.867916 124.354257 
L 264.993069 217.997134 
L 265.074051 200.459874 
L 265.236014 115.76571 
L 265.324357 147.515632 
L 265.574663 230.381266 
L 265.604111 228.220277 
L 265.743988 200.736923 
L 265.810246 209.076126 
L 265.854417 215.392865 
L 265.905951 207.690877 
L 266.288772 112.468815 
L 266.31822 117.150959 
L 266.406563 192.314606 
L 266.465459 220.019599 
L 266.524355 206.942842 
L 266.65687 135.547075 
L 266.715765 111.388321 
L 266.767299 127.457217 
L 267.054415 231.932746 
L 267.076501 230.131921 
L 267.22374 201.429548 
L 267.282635 209.962686 
L 267.326807 215.86385 
L 267.378341 208.965306 
L 267.761162 115.04538 
L 267.797972 121.057363 
L 267.893677 202.260698 
L 267.937849 221.460258 
L 268.004106 206.471857 
L 268.195517 111.249796 
L 268.28386 149.067111 
L 268.534166 231.323236 
L 268.54889 230.602906 
L 268.688767 200.570694 
L 268.769749 215.392865 
L 268.806558 218.578939 
L 268.85073 212.483841 
L 269.218828 117.760469 
L 269.277723 126.709182 
L 269.38079 211.015476 
L 269.4176 222.263703 
L 269.476496 207.358417 
L 269.667906 111.665371 
L 269.75625 149.593506 
L 270.013918 230.935366 
L 270.02128 230.602906 
L 270.080175 214.395485 
L 270.168519 201.097088 
L 270.205329 205.114312 
L 270.278948 216.36254 
L 270.330482 210.045801 
L 270.683855 124.936062 
L 270.735389 129.091811 
L 270.801646 159.982879 
L 270.88999 219.659434 
L 270.948885 201.263318 
L 271.147658 112.49652 
L 271.213915 141.475943 
L 271.464222 226.585682 
L 271.493669 230.353561 
L 271.545203 220.324354 
L 271.64827 203.535128 
L 271.68508 207.136777 
L 271.743976 214.284665 
L 271.802871 208.632847 
L 272.134159 131.834606 
L 272.200417 135.96265 
L 272.274036 161.949933 
L 272.362379 219.382384 
L 272.421275 198.908394 
L 272.620048 108.839461 
L 272.678943 132.63805 
L 272.899802 208.688257 
L 272.973421 230.824546 
L 273.024955 221.349438 
L 273.12066 205.308247 
L 273.164832 209.491701 
L 273.201641 213.3704 
L 273.267899 208.882191 
L 273.591825 135.879535 
L 273.694892 149.648916 
L 273.761149 176.218005 
L 273.834769 218.966809 
L 273.893665 195.50068 
L 274.099799 104.794532 
L 274.143971 122.525728 
L 274.364829 201.623483 
L 274.453173 230.602906 
L 274.504706 220.462879 
L 274.585688 206.056282 
L 274.637221 209.907276 
L 274.674031 212.899415 
L 274.732927 209.519406 
L 274.961147 166.382732 
L 275.056852 136.461339 
L 275.115748 147.737272 
L 275.262987 201.762008 
L 275.307159 221.183208 
L 275.358692 199.656429 
L 275.572189 100.444848 
L 275.608998 112.136355 
L 275.888752 222.900918 
L 275.940286 231.489466 
L 275.984458 222.346818 
L 276.080163 209.962686 
L 276.124335 212.095971 
L 276.146421 212.594661 
L 276.190592 210.655311 
L 276.234764 204.089228 
L 276.52188 137.846589 
L 276.536604 138.566919 
L 276.720653 188.906891 
L 276.779548 221.044683 
L 276.838444 196.11019 
L 277.044578 100.943538 
L 277.081388 111.693076 
L 277.375866 225.643712 
L 277.420038 232.459141 
L 277.464209 223.177968 
L 277.574639 208.632847 
L 277.611448 209.824161 
L 277.633534 209.990391 
L 277.677706 209.380881 
L 277.729239 197.246094 
L 277.99427 137.569539 
L 278.001632 137.791179 
L 278.075251 160.536978 
L 278.251938 217.775494 
L 278.310833 196.248715 
L 278.516968 103.492398 
L 278.56114 116.486039 
L 278.686293 190.763126 
L 278.774636 182.673268 
L 278.907151 231.960451 
L 278.980771 216.722705 
L 279.105924 210.405966 
L 279.12801 210.627606 
L 279.142733 210.710721 
L 279.157457 209.990391 
L 279.223715 188.796071 
L 279.459297 138.982494 
L 279.474021 139.841349 
L 279.687518 200.376759 
L 279.724327 214.395485 
L 279.783223 192.286901 
L 279.989357 108.036016 
L 280.026167 115.516365 
L 280.379541 232.847011 
L 280.386903 232.957831 
L 280.401627 231.544876 
L 280.637209 207.469237 
L 280.850705 161.368128 
L 280.931687 142.501028 
L 280.98322 155.466965 
L 281.196717 211.015476 
L 281.211441 209.713341 
L 281.410213 125.988852 
L 281.461747 108.617821 
L 281.513281 122.719663 
L 281.631072 192.120671 
L 281.712053 177.353909 
L 281.756225 193.533625 
L 281.866654 234.23226 
L 281.918188 224.258463 
L 282.065427 205.585297 
L 282.102237 206.361037 
L 282.146408 195.362155 
L 282.374629 145.659397 
L 282.396714 143.387588 
L 282.433524 150.313836 
L 282.669107 213.231875 
L 282.691192 209.547111 
L 282.934137 107.232572 
L 283.000394 129.618206 
L 283.103462 190.763126 
L 283.177081 175.6362 
L 283.184443 175.41456 
L 283.199167 177.021449 
L 283.346406 235.94997 
L 283.456835 218.468119 
L 283.861742 143.913983 
L 283.89119 148.235962 
L 284.148858 215.42057 
L 284.178306 207.247597 
L 284.406526 103.243053 
L 284.45806 115.959645 
L 284.79671 234.62013 
L 284.826157 238.858994 
L 284.877691 229.605526 
L 285.334132 144.495787 
L 285.356218 147.737272 
L 285.621248 217.664674 
L 285.658057 207.746287 
L 285.886278 100.500258 
L 285.937811 116.015055 
L 286.269099 235.17423 
L 286.305909 240.742934 
L 286.357443 230.104216 
L 286.799159 145.326937 
L 286.813883 146.324317 
L 286.887503 178.960799 
L 287.049466 210.849246 
L 287.093637 218.052544 
L 287.137809 206.333332 
L 287.358667 99.419764 
L 287.410201 114.82374 
L 287.770937 240.216539 
L 287.78566 241.158508 
L 287.82247 234.56472 
L 288.249463 146.185792 
L 288.256825 146.102677 
L 288.271549 146.518252 
L 288.323083 161.423538 
L 288.529217 211.486461 
L 288.566027 215.448275 
L 288.602837 208.494322 
L 288.823695 98.865664 
L 288.904677 125.268522 
L 289.015106 180.927853 
L 289.096087 171.175696 
L 289.184431 221.321733 
L 289.25805 241.795723 
L 289.309584 232.819306 
L 289.714491 143.332178 
L 289.736577 144.218738 
L 289.78811 158.708449 
L 290.008969 214.340075 
L 290.038417 216.168605 
L 290.067864 212.234496 
L 290.207741 134.106415 
L 290.296085 96.787789 
L 290.347618 107.758967 
L 290.737802 243.873598 
L 290.759887 241.103098 
L 291.18688 141.836108 
L 291.238414 149.427276 
L 291.510806 215.780735 
L 291.540254 212.566956 
L 291.650683 157.572544 
L 291.775836 98.727139 
L 291.820008 107.758967 
L 292.202829 246.948852 
L 292.254363 239.052929 
L 292.65927 137.708064 
L 292.666632 138.095934 
L 292.725528 153.05663 
L 292.894852 216.999754 
L 292.975834 216.778115 
L 292.983196 216.833525 
L 292.990558 216.611885 
L 293.042091 204.781852 
L 293.248226 98.006809 
L 293.343931 126.432132 
L 293.675219 250.245746 
L 293.726752 241.851133 
L 294.13166 136.766094 
L 294.139022 137.209374 
L 294.205279 156.131885 
L 294.374604 218.662054 
L 294.440861 217.581559 
L 294.448223 217.636969 
L 294.462947 217.276804 
L 294.514481 207.441532 
L 294.632272 135.85183 
L 294.720615 98.173039 
L 294.772149 107.509622 
L 295.15497 251.132306 
L 295.22859 232.569961 
L 295.368467 187.161477 
L 295.442086 190.458371 
L 295.604049 136.682979 
L 295.677669 158.791564 
L 295.846994 220.823044 
L 295.913251 218.551234 
L 295.950061 216.168605 
L 296.045766 183.005728 
L 296.200367 97.009429 
L 296.259263 110.529466 
L 296.62736 249.830171 
L 296.686256 238.277189 
L 296.840857 187.022952 
L 296.914476 193.699855 
L 296.988095 165.468467 
L 297.083801 136.239699 
L 297.127972 147.571042 
L 297.319383 223.455018 
L 297.407726 219.659434 
L 297.503432 194.974285 
L 297.672757 94.0727 
L 297.746376 115.738005 
L 298.09975 248.555742 
L 298.158645 238.277189 
L 298.313246 183.753763 
L 298.401589 191.455751 
L 298.55619 137.985114 
L 298.62981 162.947313 
L 298.806497 225.034202 
L 298.85803 223.621248 
L 298.939012 207.718582 
L 299.019993 165.551582 
L 299.145146 93.18614 
L 299.19668 104.545187 
L 299.572139 247.807707 
L 299.631035 238.388009 
L 299.778274 181.869823 
L 299.873979 194.586415 
L 299.962322 158.237464 
L 300.02858 139.924464 
L 300.080114 152.862695 
L 300.286248 224.230758 
L 300.33042 223.316493 
L 300.404039 207.580057 
L 300.492383 167.186177 
L 300.624898 96.095164 
L 300.676431 109.836841 
L 301.051891 247.309017 
L 301.088701 241.823428 
L 301.50097 141.365123 
L 301.552503 153.55532 
L 301.788086 222.873213 
L 301.802809 222.568458 
L 301.854343 212.040561 
L 302.016306 133.02592 
L 302.097287 96.316804 
L 302.156183 110.861926 
L 302.52428 249.885581 
L 302.568452 242.737693 
L 302.980721 141.337418 
L 303.017531 149.510391 
L 303.275199 224.674038 
L 303.297285 222.651573 
L 303.444524 168.045032 
L 303.577039 97.147954 
L 303.635935 113.521605 
L 304.004032 249.663941 
L 304.048204 242.488348 
L 304.453111 144.495787 
L 304.475197 147.349402 
L 304.747589 223.205673 
L 304.813846 208.577437 
L 304.983171 123.329173 
L 305.049429 97.452709 
L 305.100962 111.083566 
L 305.476422 251.852636 
L 305.513231 246.006882 
L 305.638384 179.875064 
L 305.675194 172.81029 
L 305.726728 186.967542 
L 305.763537 193.89379 
L 305.815071 181.759003 
L 305.918138 149.510391 
L 305.977034 161.645178 
L 306.219978 222.319113 
L 306.22734 222.319113 
L 306.256788 218.468119 
L 306.448199 130.726406 
L 306.521818 96.538444 
L 306.580714 111.942421 
L 306.956173 253.127066 
L 307.000345 243.929008 
L 307.147584 169.430281 
L 307.243289 192.231491 
L 307.309547 172.69947 
L 307.390528 152.364005 
L 307.442062 161.755998 
L 307.69973 221.903538 
L 307.721816 220.407469 
L 307.869055 167.019947 
L 308.00157 96.870904 
L 308.067827 115.87653 
L 308.428563 252.877721 
L 308.502182 229.605526 
L 308.619973 166.936832 
L 308.678869 185.249832 
L 308.715679 191.843621 
L 308.767212 179.293259 
L 308.855556 154.33106 
L 308.914451 163.224363 
L 309.179481 222.568458 
L 309.208929 218.523529 
L 309.415064 120.918838 
L 309.481321 96.039754 
L 309.532855 110.086186 
L 309.900952 250.689026 
L 309.959848 235.28505 
L 310.092363 163.916988 
L 310.15862 187.133772 
L 310.188068 192.841 
L 310.246964 180.539984 
L 310.327945 160.121404 
L 310.386841 166.521257 
L 310.659233 223.122558 
L 310.681319 220.185829 
L 310.872729 133.386085 
L 310.953711 97.923694 
L 311.005244 110.446351 
L 311.373342 249.802466 
L 311.446961 227.389127 
L 311.564753 159.650419 
L 311.63101 182.534743 
L 311.66782 190.624601 
L 311.726715 180.484574 
L 311.792973 164.609612 
L 311.85923 171.092581 
L 312.131623 222.928623 
L 312.168432 216.778115 
L 312.4261 101.774688 
L 312.521806 123.439993 
L 312.676407 171.037171 
L 312.853093 246.173112 
L 312.904627 232.237501 
L 313.037142 161.229603 
L 313.1034 184.446388 
L 313.147571 193.699855 
L 313.206467 183.310483 
L 313.272724 168.903886 
L 313.338982 172.948815 
L 313.611374 223.094853 
L 313.655546 212.262201 
L 313.89849 102.578133 
L 313.97211 117.234074 
L 314.156158 176.1903 
L 314.325483 245.175732 
L 314.369655 235.61751 
L 314.516894 161.423538 
L 314.590513 187.660167 
L 314.619961 191.982146 
L 314.678857 183.975403 
L 314.745114 169.901266 
L 314.818734 174.832755 
L 315.083764 222.014358 
L 315.127935 213.3704 
L 315.378242 101.913213 
L 315.459223 118.508504 
L 315.621186 171.037171 
L 315.797873 245.258847 
L 315.834682 238.498829 
L 315.989283 158.791564 
L 316.084989 189.876566 
L 316.107074 191.178701 
L 316.151246 185.526882 
L 316.224866 170.898646 
L 316.291123 176.107185 
L 316.556153 219.604024 
L 316.585601 216.08549 
L 316.791736 121.528348 
L 316.850631 102.024033 
L 316.909527 113.078325 
L 317.108299 179.875064 
L 317.2629 246.145407 
L 317.307072 237.833909 
L 317.461673 155.522375 
L 317.542654 184.307863 
L 317.594188 190.984766 
L 317.645722 182.617858 
L 317.697255 175.719315 
L 317.763513 179.487194 
L 318.028543 218.966809 
L 318.057991 215.392865 
L 318.286211 112.468815 
L 318.323021 104.074202 
L 318.389278 113.71554 
L 318.551241 158.071234 
L 318.742652 246.754917 
L 318.786824 236.698005 
L 318.941424 153.970895 
L 319.022406 182.119168 
L 319.081301 190.458371 
L 319.132835 183.282778 
L 319.169645 180.512279 
L 319.243264 182.978023 
L 319.508294 219.493204 
L 319.545104 212.234496 
L 319.802772 105.126992 
L 319.883754 116.098169 
L 320.008907 147.626452 
L 320.207679 245.175732 
L 320.266575 233.23488 
L 320.413814 153.00122 
L 320.494795 177.963419 
L 320.568415 190.375256 
L 320.634672 186.191802 
L 320.708292 184.584913 
L 320.730378 186.025572 
L 320.988046 221.016978 
L 321.024856 212.954825 
L 321.275162 108.756346 
L 321.370867 114.241935 
L 321.459211 129.285746 
L 321.687431 244.427698 
L 321.768412 220.102714 
L 321.893566 153.05663 
L 321.959823 171.120286 
L 322.121786 189.876566 
L 322.129148 189.848861 
L 322.188044 187.466232 
L 322.224853 190.070501 
L 322.467798 221.931243 
L 322.504607 212.98253 
L 322.754914 109.116511 
L 322.857981 114.629805 
L 322.9316 124.825242 
L 323.049391 210.433671 
L 323.159821 244.122943 
L 323.19663 239.191454 
L 323.314422 171.369631 
L 323.365955 153.27827 
L 323.424851 166.798307 
L 323.594176 194.22625 
L 323.623623 192.89641 
L 323.682519 188.851481 
L 323.748776 191.511161 
L 323.844482 195.00199 
L 323.947549 222.180588 
L 324.006445 206.638087 
L 324.227303 108.063721 
L 324.381904 115.183905 
L 324.4408 139.425774 
L 324.624848 245.397372 
L 324.66902 239.468504 
L 324.794173 167.574047 
L 324.845707 152.585645 
L 324.904602 164.775842 
L 325.066565 198.686754 
L 325.125461 193.422805 
L 325.169632 190.735421 
L 325.243252 191.871326 
L 325.294786 191.621981 
L 325.316871 192.702475 
L 325.390491 217.387624 
L 325.419939 223.732068 
L 325.478834 210.378261 
L 325.707055 108.063721 
L 325.854294 111.582256 
L 325.913189 135.24232 
L 326.097238 247.890822 
L 326.148772 239.939489 
L 326.325458 148.900881 
L 326.428526 174.47259 
L 326.538955 203.950703 
L 326.590488 198.271179 
L 326.752451 190.430666 
L 326.781899 189.294761 
L 326.811347 193.034935 
L 326.89969 224.812563 
L 326.965948 209.020716 
L 327.186806 108.036016 
L 327.334045 110.474056 
L 327.392941 137.486424 
L 327.569628 247.115082 
L 327.613799 242.543758 
L 327.709505 192.176081 
L 327.80521 146.629072 
L 327.864105 156.602869 
L 328.011344 208.715962 
L 328.10705 194.72494 
L 328.261651 186.136392 
L 328.276375 187.383117 
L 328.379442 226.142402 
L 328.460423 205.806937 
L 328.776987 105.376337 
L 328.806435 107.371097 
L 328.86533 135.24232 
L 329.034655 247.502952 
L 329.086189 241.407853 
L 329.189256 187.992627 
L 329.292323 144.828247 
L 329.343857 153.22286 
L 329.483734 211.264821 
L 329.586801 196.719699 
L 329.741402 186.662787 
L 329.77085 191.428046 
L 329.859193 225.588302 
L 329.925451 211.292526 
L 330.2641 104.988467 
L 330.278824 105.570272 
L 330.330358 125.822622 
L 330.507045 246.089997 
L 330.573302 237.00276 
L 330.713179 157.489429 
L 330.779437 141.475943 
L 330.83097 152.059251 
L 330.956124 215.503685 
L 331.044467 200.681514 
L 331.221154 184.224748 
L 331.24324 187.604757 
L 331.346307 225.643712 
L 331.412564 208.438912 
L 331.729128 105.293222 
L 331.743852 104.656007 
L 331.7733 108.867166 
L 331.854281 174.832755 
L 331.979434 245.148027 
L 332.023606 240.022604 
L 332.126673 195.6115 
L 332.259188 137.514129 
L 332.310722 150.341541 
L 332.428513 220.158124 
L 332.516857 203.895293 
L 332.700905 181.731298 
L 332.722991 186.274917 
L 332.826058 226.557977 
L 332.884954 211.043181 
L 333.20888 102.273378 
L 333.223604 101.386818 
L 333.253051 106.595357 
L 333.341395 187.022952 
L 333.451824 244.150648 
L 333.495996 238.665059 
L 333.599063 196.969044 
L 333.73894 134.46658 
L 333.790474 148.873176 
L 333.908265 222.679278 
L 333.989246 206.194807 
L 334.173295 182.756383 
L 334.195381 186.912132 
L 334.298448 228.663557 
L 334.357344 214.31237 
L 334.681269 101.663868 
L 334.695993 100.223208 
L 334.732803 108.479296 
L 334.924214 242.266708 
L 335.034643 217.526149 
L 335.218691 129.839846 
L 335.270225 147.238582 
L 335.380654 225.809942 
L 335.461636 212.012856 
L 335.645684 182.146873 
L 335.675132 188.186562 
L 335.7782 229.799461 
L 335.837095 213.121055 
L 336.028506 110.390941 
L 336.109487 113.632425 
L 336.175745 99.779929 
L 336.212554 110.778811 
L 336.396603 241.186213 
L 336.49967 221.432553 
L 336.698443 125.351637 
L 336.757339 151.449741 
L 336.867768 229.383886 
L 336.934025 218.606644 
L 337.125436 181.703593 
L 337.154884 189.433286 
L 337.257951 228.137162 
L 337.309485 214.284665 
L 337.500895 111.055861 
L 337.596601 113.189145 
L 337.648134 102.051738 
L 337.692306 115.183905 
L 337.868993 239.385389 
L 337.957336 225.726827 
L 338.119299 142.556438 
L 338.178195 121.389823 
L 338.222366 139.619709 
L 338.347519 232.265206 
L 338.421139 220.158124 
L 338.597826 179.625719 
L 338.641997 192.841 
L 338.737703 230.021101 
L 338.789236 214.229255 
L 338.965923 110.917336 
L 339.046904 118.342274 
L 339.083714 112.88439 
L 339.127886 104.517482 
L 339.164696 115.21161 
L 339.356106 235.34046 
L 339.437088 222.845508 
L 339.584327 149.399571 
L 339.657946 118.480799 
L 339.702118 140.062989 
L 339.827271 234.4539 
L 339.893528 223.233378 
L 340.077577 178.988504 
L 340.114387 190.153616 
L 340.210092 230.519791 
L 340.261626 216.41795 
L 340.438313 110.612581 
L 340.526656 119.395064 
L 340.563466 114.38046 
L 340.600275 108.313066 
L 340.637085 117.760469 
L 340.821134 232.514551 
L 340.909477 221.016978 
L 341.049354 155.82713 
L 341.130336 114.906855 
L 341.181869 141.143483 
L 341.307023 236.143905 
L 341.365918 226.364042 
L 341.549967 180.789328 
L 341.594138 193.89379 
L 341.689844 232.043566 
L 341.741377 215.75303 
L 341.918064 108.423886 
L 341.999046 118.369979 
L 342.006408 118.591619 
L 342.035855 116.375219 
L 342.072665 112.21947 
L 342.109475 120.641788 
L 342.293524 228.081752 
L 342.389229 215.80844 
L 342.536468 148.706946 
L 342.610087 112.05324 
L 342.654259 134.826745 
L 342.786774 238.858994 
L 342.853032 226.613387 
L 343.029718 181.177198 
L 343.081252 201.069383 
L 343.169595 231.212416 
L 343.213767 217.332214 
L 343.383092 110.058481 
L 343.471435 118.702439 
L 343.478797 118.868669 
L 343.500883 117.705059 
L 343.545055 113.022915 
L 343.581864 120.614083 
L 343.758551 226.308632 
L 343.861618 213.785975 
L 344.016219 144.966772 
L 344.082477 111.443731 
L 344.134011 138.650034 
L 344.266526 241.324738 
L 344.325421 230.963071 
L 344.502108 183.365893 
L 344.553642 200.321349 
L 344.641985 230.741431 
L 344.686157 218.578939 
L 344.855481 109.753726 
L 344.951187 118.120634 
L 345.00272 113.4939 
L 345.017444 112.55193 
L 345.046892 116.984729 
L 345.238303 224.757153 
L 345.363456 205.834642 
L 345.532781 119.672114 
L 345.562228 110.917336 
L 345.6064 132.80428 
L 345.746277 242.017363 
L 345.805173 233.096355 
L 345.974498 183.781468 
L 346.040755 206.167102 
L 346.121737 229.217656 
L 346.165908 214.506305 
L 346.320509 109.753726 
L 346.408852 118.065224 
L 346.423576 118.619324 
L 346.467748 115.405545 
L 346.489834 114.241935 
L 346.519282 119.395064 
L 346.695968 223.621248 
L 346.828484 205.419067 
L 347.034618 111.249796 
L 347.100876 154.746635 
L 347.226029 244.316878 
L 347.2702 238.249484 
L 347.410077 193.83838 
L 347.446887 184.889667 
L 347.498421 198.215769 
L 347.594126 229.522411 
L 347.638298 216.113195 
L 347.792899 107.066342 
L 347.888604 116.098169 
L 347.9475 115.04538 
L 347.999033 125.739507 
L 348.168358 223.261083 
L 348.264063 213.342695 
L 348.426026 156.575164 
L 348.51437 111.111271 
L 348.558541 135.1315 
L 348.698418 244.843273 
L 348.757314 238.027844 
L 348.860381 206.915137 
L 348.926639 185.887047 
L 348.978172 198.852984 
L 349.073878 229.217656 
L 349.118049 212.622366 
L 349.265288 105.958142 
L 349.353632 114.82374 
L 349.493509 143.803163 
L 349.640748 222.790098 
L 349.692281 218.385004 
L 349.810072 191.871326 
L 349.927864 135.18691 
L 349.986759 110.612581 
L 350.030931 131.474441 
L 350.17817 248.001642 
L 350.244427 241.130803 
L 350.347495 199.794954 
L 350.399028 183.199663 
L 350.457924 198.326589 
L 350.553629 228.774377 
L 350.590439 215.836145 
L 350.74504 104.628302 
L 350.840745 116.319809 
L 350.943812 129.756731 
L 351.105775 221.765013 
L 351.194119 209.796456 
L 351.363443 163.695348 
L 351.466511 113.27226 
L 351.510682 136.738389 
L 351.657921 248.638857 
L 351.724179 242.848513 
L 351.819884 203.590538 
L 351.87878 185.693112 
L 351.930313 198.659049 
L 352.026019 225.061907 
L 352.070191 210.239736 
L 352.232153 103.991087 
L 352.313135 115.43325 
L 352.423564 132.444115 
L 352.578165 223.455018 
L 352.651784 211.486461 
L 352.857919 149.870556 
L 352.9389 116.319809 
L 352.983072 137.431014 
L 353.137673 250.882961 
L 353.196569 245.231142 
L 353.343808 185.831637 
L 353.446875 212.123676 
L 353.498408 221.377143 
L 353.54258 208.522027 
L 353.711905 103.575513 
L 353.792886 116.541449 
L 353.903316 137.486424 
L 354.050555 225.948467 
L 354.116812 212.650071 
L 354.37448 127.263282 
L 354.41129 119.090309 
L 354.455462 137.375604 
L 354.624786 249.608531 
L 354.683682 242.516053 
L 354.823559 189.322466 
L 354.911902 208.937601 
L 354.970798 220.490584 
L 355.01497 209.713341 
L 355.184295 101.331408 
L 355.28 116.181284 
L 355.360981 129.147221 
L 355.522944 228.829787 
L 355.603926 208.771372 
L 355.88368 123.135238 
L 355.927851 138.982494 
L 356.097176 251.409356 
L 356.163434 240.936869 
L 356.295949 189.599516 
L 356.369568 203.645948 
L 356.45055 218.911399 
L 356.487359 209.851866 
L 356.671408 98.893369 
L 356.774475 114.15882 
L 356.833371 128.620826 
L 356.995334 231.877336 
L 357.076315 208.632847 
L 357.356069 124.603602 
L 357.392879 133.552315 
L 357.576928 249.082137 
L 357.657909 232.459141 
L 357.768338 195.029695 
L 357.827234 201.983648 
L 357.915577 218.745169 
L 357.959749 208.771372 
L 358.15116 98.644024 
L 358.239503 112.247175 
L 358.313122 135.103795 
L 358.460361 233.595045 
L 358.533981 212.87171 
L 358.828459 126.930822 
L 358.843183 127.983612 
L 358.902078 161.617473 
L 359.041955 247.558362 
L 359.093489 242.516053 
L 359.240728 199.019214 
L 359.343795 211.098591 
L 359.387967 217.803199 
L 359.432139 208.051042 
L 359.630911 99.031894 
L 359.719254 112.88439 
L 359.785512 134.35576 
L 359.940113 231.905041 
L 360.00637 211.375641 
L 360.300848 130.227716 
L 360.315572 131.114276 
L 360.374468 160.564683 
L 360.521707 247.087377 
L 360.580602 238.609649 
L 360.713117 199.240854 
L 360.786737 207.386122 
L 360.860356 217.193689 
L 360.897166 210.932361 
L 361.110663 99.364354 
L 361.228454 117.538829 
L 361.338883 197.689374 
L 361.412503 233.096355 
L 361.471398 215.725325 
L 361.765876 136.821504 
L 361.773238 136.544454 
L 361.795324 138.206754 
L 361.868943 176.772104 
L 362.001458 242.294413 
L 362.04563 237.390629 
L 362.178145 202.399223 
L 362.266489 211.264821 
L 362.332746 218.191069 
L 362.369556 212.040561 
L 362.590414 97.147954 
L 362.700843 116.901614 
L 362.825997 206.222512 
L 362.892254 233.484225 
L 362.943788 217.747789 
L 363.230904 139.342659 
L 363.245628 139.093314 
L 363.267713 141.004958 
L 363.341333 175.52538 
L 363.473848 244.566223 
L 363.525382 237.252104 
L 363.650535 202.897913 
L 363.716792 209.491701 
L 363.797774 217.747789 
L 363.834583 212.844005 
L 363.996546 121.057363 
L 364.070166 97.646644 
L 364.129061 106.844702 
L 364.224767 144.578902 
L 364.372006 233.95521 
L 364.423539 216.556475 
L 364.681207 144.218738 
L 364.710655 143.609228 
L 364.740103 145.631692 
L 364.813723 175.69161 
L 364.946238 243.458023 
L 364.997771 235.61751 
L 365.1082 201.678893 
L 365.18182 209.103831 
L 365.270163 216.611885 
L 365.306973 212.179086 
L 365.461574 129.950666 
L 365.549917 94.876145 
L 365.608813 103.824858 
L 365.697156 143.165948 
L 365.844395 237.335219 
L 365.895929 220.601404 
L 366.146235 144.274148 
L 366.153597 144.191033 
L 366.183045 144.966772 
L 366.234578 152.031546 
L 366.337646 214.672535 
L 366.418627 240.105719 
L 366.470161 232.265206 
L 366.565866 203.452013 
L 366.639486 214.007615 
L 366.713105 220.989273 
L 366.764639 216.695 
L 366.875068 162.531738 
L 367.029669 91.91171 
L 367.095926 104.323547 
L 367.206356 176.051775 
L 367.324147 235.922265 
L 367.368318 221.626488 
L 367.611263 146.047267 
L 367.618625 146.158087 
L 367.692244 152.55794 
L 367.78795 191.982146 
L 367.891017 236.143905 
L 367.94255 229.910281 
L 368.030894 205.529887 
L 368.089789 216.47336 
L 368.163409 225.006497 
L 368.214942 221.210913 
L 368.295924 185.970162 
L 368.502058 93.90647 
L 368.54623 99.530584 
L 368.641935 147.543337 
L 368.796536 233.3457 
L 368.840708 219.936484 
L 369.054205 147.404812 
L 369.083652 148.679241 
L 369.223529 171.286516 
L 369.363406 234.67554 
L 369.459112 215.060405 
L 369.495921 207.469237 
L 369.554817 218.135659 
L 369.628437 225.893057 
L 369.672608 221.044683 
L 369.775675 181.260313 
L 369.98181 93.96188 
L 370.040706 103.880268 
L 370.158497 183.116548 
L 370.268926 229.605526 
L 370.313098 218.883694 
L 370.526594 146.961532 
L 370.556042 149.011701 
L 370.732729 187.106067 
L 370.843158 231.738811 
L 370.902054 222.125178 
L 370.968311 208.715962 
L 371.019845 219.881074 
L 371.100826 229.245361 
L 371.137636 224.784858 
L 371.248065 177.464729 
L 371.461562 95.818115 
L 371.505733 102.328788 
L 371.608801 167.103062 
L 371.748678 225.837647 
L 371.778125 220.185829 
L 371.991622 144.468082 
L 372.057879 154.303355 
L 372.24929 211.929741 
L 372.315548 233.45652 
L 372.374443 223.842888 
L 372.440701 210.627606 
L 372.492234 220.435174 
L 372.565854 229.827166 
L 372.610025 224.369283 
L 372.823522 144.191033 
L 372.941313 96.649264 
L 373.007571 113.66013 
L 373.221067 222.706983 
L 373.287325 202.759388 
L 373.456649 143.553818 
L 373.486097 145.576282 
L 373.72168 208.605142 
L 373.795299 234.537015 
L 373.854195 222.873213 
L 373.920452 210.738426 
L 373.964624 219.216154 
L 374.038243 230.325856 
L 374.082415 224.313873 
L 374.369531 112.801275 
L 374.421065 100.666488 
L 374.472598 110.778811 
L 374.700819 221.349438 
L 374.7818 190.596896 
L 374.921677 140.866433 
L 374.958487 143.858573 
L 375.216155 217.332214 
L 375.275051 232.625371 
L 375.326584 221.958948 
L 375.38548 210.599901 
L 375.437013 220.823044 
L 375.510633 234.869475 
L 375.554805 227.222897 
L 375.893454 98.671729 
L 375.967074 118.508504 
L 376.165846 219.936484 
L 376.21738 211.541871 
L 376.386705 139.093314 
L 376.460324 151.754496 
L 376.754802 228.802082 
L 376.78425 224.867973 
L 376.850508 212.095971 
L 376.902041 222.873213 
L 376.975661 240.161129 
L 377.027194 230.436676 
L 377.373206 98.228449 
L 377.432101 112.856685 
L 377.638236 218.578939 
L 377.704493 205.640707 
L 377.859094 138.428394 
L 377.91799 146.656777 
L 378.227192 226.280927 
L 378.286087 215.226635 
L 378.315535 210.821541 
L 378.367069 221.377143 
L 378.44805 243.762778 
L 378.499584 233.84439 
L 378.852957 95.928934 
L 378.897129 106.235192 
L 379.095902 216.08549 
L 379.184245 200.681514 
L 379.331484 137.264784 
L 379.383018 144.828247 
L 379.706943 223.039443 
L 379.765839 212.677776 
L 379.787925 211.043181 
L 379.824735 219.881074 
L 379.92044 250.605911 
L 379.971973 239.551619 
L 380.332709 95.541065 
L 380.362157 101.746983 
L 380.553567 216.80582 
L 380.671359 192.342311 
L 380.803874 134.106415 
L 380.848045 140.921843 
L 381.186695 223.039443 
L 381.230867 216.63959 
L 381.252952 214.25696 
L 381.289762 221.127798 
L 381.400191 255.565105 
L 381.444363 244.178353 
L 381.805099 95.928934 
L 381.819822 97.508119 
L 381.88608 140.894138 
L 382.018595 216.944344 
L 382.062767 213.785975 
L 382.129024 199.656429 
L 382.276263 132.9151 
L 382.342521 145.991857 
L 382.666446 220.684519 
L 382.688532 219.354679 
L 382.725342 215.836145 
L 382.762152 223.205673 
L 382.872581 259.887084 
L 382.924115 244.427698 
L 383.240678 106.318307 
L 383.277488 98.948779 
L 383.32166 111.055861 
L 383.483623 216.445655 
L 383.571966 207.801697 
L 383.645586 172.256191 
L 383.756015 132.30559 
L 383.800186 139.758234 
L 384.146198 219.520909 
L 384.175646 217.609264 
L 384.197732 216.168605 
L 384.227179 220.933863 
L 384.352333 262.463648 
L 384.396504 248.112462 
L 384.713068 109.061101 
L 384.75724 99.613699 
L 384.801411 113.60472 
L 384.963374 217.581559 
L 385.036994 210.045801 
L 385.110613 180.429164 
L 385.228404 129.479681 
L 385.279938 138.095934 
L 385.633311 216.52877 
L 385.662759 215.503685 
L 385.684845 216.999754 
L 385.824722 267.644482 
L 385.883618 243.264088 
L 386.104476 143.027423 
L 386.236991 98.644024 
L 386.288525 121.334413 
L 386.435764 218.662054 
L 386.494659 213.09335 
L 386.575641 186.219507 
L 386.708156 127.761972 
L 386.75969 138.151344 
L 387.017358 192.563951 
L 387.304474 269.583831 
L 387.341283 258.169374 
L 387.672571 104.988467 
L 387.709381 96.510739 
L 387.753553 112.27488 
L 387.908153 218.994514 
L 387.981773 211.264821 
L 388.077478 168.959296 
L 388.180546 126.820002 
L 388.232079 136.211995 
L 388.475023 187.770987 
L 388.644348 221.238618 
L 388.776863 274.210565 
L 388.821035 259.388394 
L 389.086065 131.945426 
L 389.189132 97.064839 
L 389.225942 110.474056 
L 389.380543 219.465499 
L 389.461524 211.347936 
L 389.579316 154.137125 
L 389.667659 125.323932 
L 389.711831 135.214615 
L 389.947413 187.189182 
L 390.013671 199.462494 
L 390.182995 261.106104 
L 390.256615 279.585334 
L 390.293425 266.120707 
L 390.580541 119.866049 
L 390.661522 95.818115 
L 390.698332 109.421266 
L 390.860295 222.235998 
L 390.933914 213.065645 
L 391.140049 122.996713 
L 391.228392 153.028925 
L 391.390355 186.302622 
L 391.405079 186.108687 
L 391.419803 185.997867 
L 391.434527 186.413442 
L 391.508146 199.379379 
L 391.625937 247.309017 
L 391.729004 282.300423 
L 391.765814 270.941376 
L 392.082378 107.537327 
L 392.133912 97.369594 
L 392.170721 110.529466 
L 392.332684 222.762393 
L 392.406304 213.42581 
L 392.6198 122.110153 
L 392.708144 153.804665 
L 392.855382 187.937217 
L 392.88483 187.022952 
L 392.914278 186.080982 
L 392.951088 188.990006 
L 393.061517 222.845508 
L 393.201394 286.456172 
L 393.245566 270.525801 
L 393.510596 125.684097 
L 393.606301 98.671729 
L 393.643111 110.584876 
L 393.812436 224.036823 
L 393.886055 212.760891 
L 394.099552 122.414908 
L 394.173171 146.490547 
L 394.327772 187.854102 
L 394.35722 186.385737 
L 394.408754 182.839498 
L 394.445563 186.635082 
L 394.541269 226.641092 
L 394.681146 288.589457 
L 394.717955 275.84516 
L 395.019795 110.030776 
L 395.078691 99.170419 
L 395.115501 111.388321 
L 395.284825 226.142402 
L 395.358445 212.705481 
L 395.571941 122.691958 
L 395.638199 142.390208 
L 395.800162 187.244592 
L 395.822248 186.385737 
L 395.895867 179.237849 
L 395.940039 185.582292 
L 396.043106 247.863117 
L 396.153535 292.385041 
L 396.190345 279.114349 
L 396.492185 111.443731 
L 396.543718 102.079443 
L 396.58789 113.854065 
L 396.757215 226.142402 
L 396.838196 209.657931 
L 397.051693 122.082448 
L 397.110588 140.146104 
L 397.272551 185.887047 
L 397.294637 185.000487 
L 397.375619 175.830135 
L 397.41979 183.670648 
L 397.625925 295.488 
L 397.692182 249.802466 
L 397.817335 128.925581 
L 397.876231 136.18429 
L 397.905679 132.139361 
L 398.016108 103.797153 
L 398.06028 115.183905 
L 398.229605 228.414212 
L 398.317948 206.361037 
L 398.487273 127.152462 
L 398.487273 127.152462 
" clip-path="url(#p86a1707120)" style="fill: none; stroke: #1f77b4; stroke-width: 1.5; stroke-linecap: square"/>
   </g>
   <g id="patch_3">
    <path d="M 57.6 307.584 
L 57.6 41.472 
" style="fill: none; stroke: #000000; stroke-width: 0.8; stroke-linejoin: miter; stroke-linecap: square"/>
   </g>
   <g id="patch_4">
    <path d="M 414.72 307.584 
L 414.72 41.472 
" style="fill: none; stroke: #000000; stroke-width: 0.8; stroke-linejoin: miter; stroke-linecap: square"/>
   </g>
   <g id="patch_5">
    <path d="M 57.6 307.584 
L 414.72 307.584 
" style="fill: none; stroke: #000000; stroke-width: 0.8; stroke-linejoin: miter; stroke-linecap: square"/>
   </g>
   <g id="patch_6">
    <path d="M 57.6 41.472 
L 414.72 41.472 
" style="fill: none; stroke: #000000; stroke-width: 0.8; stroke-linejoin: miter; stroke-linecap: square"/>
   </g>
   <g id="text_14">
    <text style="font: 12px 'IPAexGothic'; text-anchor: middle" x="236.16" y="35.472" transform="rotate(-0 236.16 35.472)">"061_A3.wav"の波形グラフ</text>
   </g>
  </g>
 </g>
 <defs>
  <clipPath id="p86a1707120">
   <rect x="57.6" y="41.472" width="357.12" height="266.112"/>
  </clipPath>
 </defs>
</svg>
