<?xml version="1.0" encoding="utf-8" standalone="no"?>
<!DOCTYPE svg PUBLIC "-//W3C//DTD SVG 1.1//EN"
  "http://www.w3.org/Graphics/SVG/1.1/DTD/svg11.dtd">
<svg xmlns:xlink="http://www.w3.org/1999/xlink" width="460.8pt" height="345.6pt" viewBox="0 0 460.8 345.6" xmlns="http://www.w3.org/2000/svg" version="1.1">
 <metadata>
  <rdf:RDF xmlns:dc="http://purl.org/dc/elements/1.1/" xmlns:cc="http://creativecommons.org/ns#" xmlns:rdf="http://www.w3.org/1999/02/22-rdf-syntax-ns#">
   <cc:Work>
    <dc:type rdf:resource="http://purl.org/dc/dcmitype/StillImage"/>
    <dc:date>2022-11-28T11:33:53.544832</dc:date>
    <dc:format>image/svg+xml</dc:format>
    <dc:creator>
     <cc:Agent>
      <dc:title>Matplotlib v3.6.2, https://matplotlib.org/</dc:title>
     </cc:Agent>
    </dc:creator>
   </cc:Work>
  </rdf:RDF>
 </metadata>
 <defs>
  <style type="text/css">*{stroke-linejoin: round; stroke-linecap: butt}</style>
 </defs>
 <g id="figure_1">
  <g id="patch_1">
   <path d="M 0 345.6 
L 460.8 345.6 
L 460.8 0 
L 0 0 
z
" style="fill: #ffffff"/>
  </g>
  <g id="axes_1">
   <g id="patch_2">
    <path d="M 57.6 307.584 
L 414.72 307.584 
L 414.72 41.472 
L 57.6 41.472 
z
" style="fill: #ffffff"/>
   </g>
   <g id="matplotlib.axis_1">
    <g id="xtick_1">
     <g id="line2d_1">
      <defs>
       <path id="m6cadfddf28" d="M 0 0 
L 0 3.5 
" style="stroke: #000000; stroke-width: 0.8"/>
      </defs>
      <g>
       <use xlink:href="#m6cadfddf28" x="73.832727" y="307.584" style="stroke: #000000; stroke-width: 0.8"/>
      </g>
     </g>
     <g id="text_1">
      <text style="font: 10px 'IPAexGothic'; text-anchor: middle" x="73.832727" y="322.074625" transform="rotate(-0 73.832727 322.074625)">0.0</text>
     </g>
    </g>
    <g id="xtick_2">
     <g id="line2d_2">
      <g>
       <use xlink:href="#m6cadfddf28" x="138.765109" y="307.584" style="stroke: #000000; stroke-width: 0.8"/>
      </g>
     </g>
     <g id="text_2">
      <text style="font: 10px 'IPAexGothic'; text-anchor: middle" x="138.765109" y="322.074625" transform="rotate(-0 138.765109 322.074625)">0.2</text>
     </g>
    </g>
    <g id="xtick_3">
     <g id="line2d_3">
      <g>
       <use xlink:href="#m6cadfddf28" x="203.69749" y="307.584" style="stroke: #000000; stroke-width: 0.8"/>
      </g>
     </g>
     <g id="text_3">
      <text style="font: 10px 'IPAexGothic'; text-anchor: middle" x="203.69749" y="322.074625" transform="rotate(-0 203.69749 322.074625)">0.4</text>
     </g>
    </g>
    <g id="xtick_4">
     <g id="line2d_4">
      <g>
       <use xlink:href="#m6cadfddf28" x="268.629872" y="307.584" style="stroke: #000000; stroke-width: 0.8"/>
      </g>
     </g>
     <g id="text_4">
      <text style="font: 10px 'IPAexGothic'; text-anchor: middle" x="268.629872" y="322.074625" transform="rotate(-0 268.629872 322.074625)">0.6</text>
     </g>
    </g>
    <g id="xtick_5">
     <g id="line2d_5">
      <g>
       <use xlink:href="#m6cadfddf28" x="333.562253" y="307.584" style="stroke: #000000; stroke-width: 0.8"/>
      </g>
     </g>
     <g id="text_5">
      <text style="font: 10px 'IPAexGothic'; text-anchor: middle" x="333.562253" y="322.074625" transform="rotate(-0 333.562253 322.074625)">0.8</text>
     </g>
    </g>
    <g id="xtick_6">
     <g id="line2d_6">
      <g>
       <use xlink:href="#m6cadfddf28" x="398.494635" y="307.584" style="stroke: #000000; stroke-width: 0.8"/>
      </g>
     </g>
     <g id="text_6">
      <text style="font: 10px 'IPAexGothic'; text-anchor: middle" x="398.494635" y="322.074625" transform="rotate(-0 398.494635 322.074625)">1.0</text>
     </g>
    </g>
    <g id="text_7">
     <text style="font: 10px 'IPAexGothic'; text-anchor: middle" x="236.16" y="335.924625" transform="rotate(-0 236.16 335.924625)">時間[s]</text>
    </g>
   </g>
   <g id="matplotlib.axis_2">
    <g id="ytick_1">
     <g id="line2d_7">
      <defs>
       <path id="ma98b61f5f3" d="M 0 0 
L -3.5 0 
" style="stroke: #000000; stroke-width: 0.8"/>
      </defs>
      <g>
       <use xlink:href="#ma98b61f5f3" x="57.6" y="284.429322" style="stroke: #000000; stroke-width: 0.8"/>
      </g>
     </g>
     <g id="text_8">
      <text style="font: 10px 'IPAexGothic'; text-anchor: end" x="50.6" y="288.174635" transform="rotate(-0 50.6 288.174635)">−4000</text>
     </g>
    </g>
    <g id="ytick_2">
     <g id="line2d_8">
      <g>
       <use xlink:href="#ma98b61f5f3" x="57.6" y="253.964645" style="stroke: #000000; stroke-width: 0.8"/>
      </g>
     </g>
     <g id="text_9">
      <text style="font: 10px 'IPAexGothic'; text-anchor: end" x="50.6" y="257.709958" transform="rotate(-0 50.6 257.709958)">−3000</text>
     </g>
    </g>
    <g id="ytick_3">
     <g id="line2d_9">
      <g>
       <use xlink:href="#ma98b61f5f3" x="57.6" y="223.499968" style="stroke: #000000; stroke-width: 0.8"/>
      </g>
     </g>
     <g id="text_10">
      <text style="font: 10px 'IPAexGothic'; text-anchor: end" x="50.6" y="227.245281" transform="rotate(-0 50.6 227.245281)">−2000</text>
     </g>
    </g>
    <g id="ytick_4">
     <g id="line2d_10">
      <g>
       <use xlink:href="#ma98b61f5f3" x="57.6" y="193.035291" style="stroke: #000000; stroke-width: 0.8"/>
      </g>
     </g>
     <g id="text_11">
      <text style="font: 10px 'IPAexGothic'; text-anchor: end" x="50.6" y="196.780604" transform="rotate(-0 50.6 196.780604)">−1000</text>
     </g>
    </g>
    <g id="ytick_5">
     <g id="line2d_11">
      <g>
       <use xlink:href="#ma98b61f5f3" x="57.6" y="162.570614" style="stroke: #000000; stroke-width: 0.8"/>
      </g>
     </g>
     <g id="text_12">
      <text style="font: 10px 'IPAexGothic'; text-anchor: end" x="50.6" y="166.315927" transform="rotate(-0 50.6 166.315927)">0</text>
     </g>
    </g>
    <g id="ytick_6">
     <g id="line2d_12">
      <g>
       <use xlink:href="#ma98b61f5f3" x="57.6" y="132.105937" style="stroke: #000000; stroke-width: 0.8"/>
      </g>
     </g>
     <g id="text_13">
      <text style="font: 10px 'IPAexGothic'; text-anchor: end" x="50.6" y="135.85125" transform="rotate(-0 50.6 135.85125)">1000</text>
     </g>
    </g>
    <g id="ytick_7">
     <g id="line2d_13">
      <g>
       <use xlink:href="#ma98b61f5f3" x="57.6" y="101.64126" style="stroke: #000000; stroke-width: 0.8"/>
      </g>
     </g>
     <g id="text_14">
      <text style="font: 10px 'IPAexGothic'; text-anchor: end" x="50.6" y="105.386573" transform="rotate(-0 50.6 105.386573)">2000</text>
     </g>
    </g>
    <g id="ytick_8">
     <g id="line2d_14">
      <g>
       <use xlink:href="#ma98b61f5f3" x="57.6" y="71.176583" style="stroke: #000000; stroke-width: 0.8"/>
      </g>
     </g>
     <g id="text_15">
      <text style="font: 10px 'IPAexGothic'; text-anchor: end" x="50.6" y="74.921896" transform="rotate(-0 50.6 74.921896)">3000</text>
     </g>
    </g>
    <g id="text_16">
     <text style="font: 10px 'IPAexGothic'; text-anchor: middle" x="12.723438" y="174.528" transform="rotate(-90 12.723438 174.528)">振幅</text>
    </g>
   </g>
   <g id="line2d_15">
    <path d="M 73.832727 162.570614 
L 73.847451 162.54015 
L 73.95788 163.515019 
L 74.009414 163.728272 
L 74.0315 163.271302 
L 74.038862 163.271302 
L 74.193463 161.443421 
L 74.200825 161.352027 
L 74.25972 161.900391 
L 74.414321 164.794536 
L 74.443769 164.550818 
L 74.554198 161.961321 
L 74.694075 160.803663 
L 74.789781 163.667343 
L 74.841314 162.662008 
L 74.8634 162.326897 
L 74.907572 163.271302 
L 74.929658 162.662008 
L 74.951743 163.240837 
L 75.025363 162.47922 
L 75.047449 163.149443 
L 75.062173 163.210372 
L 75.231497 162.144109 
L 75.364012 160.955986 
L 75.378736 160.59041 
L 75.437632 162.083179 
L 75.459718 162.966655 
L 75.548061 162.387826 
L 75.614319 163.058049 
L 75.636405 162.326897 
L 75.783643 159.402288 
L 75.798367 160.255299 
L 75.813091 161.199704 
L 75.835177 160.13344 
L 75.908797 160.59041 
L 75.975054 160.407622 
L 75.945606 160.895057 
L 75.99714 160.803663 
L 76.144379 164.002454 
L 76.151741 163.91106 
L 76.181189 164.916394 
L 76.188551 164.764071 
L 76.306342 165.647547 
L 76.203275 164.611748 
L 76.321066 165.586617 
L 76.571372 158.823459 
L 76.586096 159.036712 
L 76.644991 159.615541 
L 76.703887 159.585076 
L 76.711249 159.585076 
L 76.806954 161.839462 
L 76.740697 159.432753 
L 76.880574 161.412957 
L 76.991003 156.87372 
L 77.049899 157.452549 
L 77.204499 164.733606 
L 77.248671 162.357362 
L 77.410634 153.400747 
L 77.417996 153.004706 
L 77.46953 155.502809 
L 77.521063 159.2195 
L 77.602045 157.665801 
L 77.66094 157.361155 
L 77.690388 158.732065 
L 77.822903 166.134981 
L 77.852351 165.373365 
L 77.881799 164.794536 
L 77.903885 165.403829 
L 78.080571 183.408453 
L 78.132105 179.508975 
L 78.537012 161.077845 
L 78.573822 162.99712 
L 78.595908 165.038253 
L 78.691613 163.941525 
L 78.706337 163.880595 
L 78.875662 155.594203 
L 78.912471 157.26976 
L 78.941919 159.189035 
L 79.000815 155.959779 
L 79.037625 153.613999 
L 79.081796 159.036712 
L 79.251121 167.018457 
L 79.258483 167.048922 
L 79.273207 166.683346 
L 79.449894 158.610206 
L 79.464618 158.76253 
L 79.62658 161.869927 
L 79.633942 161.839462 
L 79.678114 160.255299 
L 79.729648 162.205038 
L 79.854801 165.891264 
L 79.884249 165.464759 
L 79.92842 163.179908 
L 79.96523 166.470093 
L 79.972592 166.835669 
L 80.024126 164.032919 
L 80.222898 152.63913 
L 80.244984 153.400747 
L 80.49529 173.446504 
L 80.5321 168.176115 
L 80.694063 149.958238 
L 80.708787 150.780784 
L 81.010627 181.397785 
L 81.054798 177.955276 
L 81.253571 154.406081 
L 81.297743 156.87372 
L 81.341914 159.097641 
L 81.415534 157.78766 
L 81.467067 162.052715 
L 81.511239 165.3429 
L 81.555411 159.950652 
L 81.570135 158.457883 
L 81.621668 164.581283 
L 81.658478 166.470093 
L 81.695288 161.900391 
L 81.849889 153.309352 
L 82.107557 164.398495 
L 82.203262 163.393161 
L 82.490378 159.585076 
L 82.512464 160.072511 
L 82.777494 172.715352 
L 82.79958 171.00933 
L 82.998353 156.81279 
L 83.042524 159.615541 
L 83.094058 157.147902 
L 83.123506 155.198162 
L 83.175039 159.585076 
L 83.226573 164.246172 
L 83.307554 162.93619 
L 83.40326 160.895057 
L 83.484241 151.816583 
L 83.550499 157.300225 
L 83.579946 155.929315 
L 83.616756 153.157029 
L 83.660928 158.914853 
L 83.867062 183.743565 
L 83.874424 183.682635 
L 83.881786 183.804494 
L 83.93332 182.860089 
L 84.242522 152.029836 
L 84.301417 153.918646 
L 84.42657 164.703142 
L 84.478104 162.083179 
L 84.566447 162.54015 
L 84.654791 155.259092 
L 84.706324 158.76253 
L 84.757858 155.076304 
L 84.772582 155.045839 
L 85.03025 168.023791 
L 85.06706 165.921729 
L 85.33209 154.162363 
L 85.3689 155.594203 
L 85.626568 173.781615 
L 85.692826 172.44117 
L 85.722273 171.953735 
L 85.788531 165.434294 
L 85.869512 159.828793 
L 85.913684 162.326897 
L 86.053561 166.043587 
L 86.068285 165.129647 
L 86.134542 158.183701 
L 86.2008 161.169239 
L 86.274419 164.581283 
L 86.318591 161.382492 
L 86.576259 142.189745 
L 86.590983 143.073221 
L 86.708774 173.598827 
L 86.826566 201.961442 
L 86.892823 197.84871 
L 86.981166 169.973531 
L 87.135767 143.834838 
L 87.150491 144.230879 
L 87.26092 162.509685 
L 87.393436 175.122061 
L 87.415521 172.106058 
L 87.621656 151.20729 
L 87.629018 151.66426 
L 87.879324 164.398495 
L 87.997115 169.638419 
L 88.048649 166.591952 
L 88.247421 148.678722 
L 88.335765 155.502809 
L 88.424108 162.631544 
L 88.615519 180.331521 
L 88.622881 180.45338 
L 88.652329 179.600369 
L 88.917359 153.278888 
L 88.99834 155.015374 
L 89.049874 154.52794 
L 89.138217 163.301767 
L 89.189751 167.962862 
L 89.233923 162.235503 
L 89.506315 128.023671 
L 89.521038 126.835548 
L 89.557848 133.385454 
L 89.756621 219.722348 
L 89.837602 202.0833 
L 90.043737 138.930025 
L 90.117356 144.901102 
L 90.308767 179.691763 
L 90.375024 169.455631 
L 90.559073 150.811249 
L 90.573797 151.633795 
L 90.934533 176.523436 
L 90.647417 151.20729 
L 90.993428 171.679553 
L 91.081771 155.320021 
L 91.192201 140.910229 
L 91.251096 143.65205 
L 91.545574 194.253878 
L 91.626556 179.173863 
L 91.825328 148.526398 
L 91.854776 150.567532 
L 91.884224 152.425877 
L 91.943119 148.160822 
L 91.972567 150.049632 
L 92.178702 171.100724 
L 92.193426 170.582824 
L 92.244959 154.131899 
L 92.429008 114.710607 
L 92.495265 126.287184 
L 92.590971 178.777822 
L 92.716124 243.972231 
L 92.752934 235.10701 
L 93.010602 123.118858 
L 93.069497 137.955155 
L 93.246184 192.517392 
L 93.275632 185.967486 
L 93.525938 140.270471 
L 93.555386 137.680973 
L 93.592196 142.859968 
L 93.886674 186.302598 
L 93.901398 185.876092 
L 93.975017 171.131189 
L 94.151704 129.607834 
L 94.188514 132.166867 
L 94.350476 175.396243 
L 94.468268 206.013244 
L 94.527163 200.986572 
L 94.836365 131.252926 
L 94.858451 133.29406 
L 95.00569 164.489889 
L 95.086671 196.569194 
L 95.145567 180.727562 
L 95.432683 101.458472 
L 95.462131 108.130236 
L 95.57256 226.211325 
L 95.646179 273.888544 
L 95.705075 256.919719 
L 95.925933 110.536946 
L 96.006915 129.45551 
L 96.205687 200.651461 
L 96.242497 192.486927 
L 96.492803 135.335193 
L 96.551699 143.773909 
L 96.838815 191.26834 
L 96.875625 185.327728 
L 97.096483 111.694604 
L 97.162741 124.30698 
L 97.435133 221.550229 
L 97.516114 196.721517 
L 97.744334 119.980996 
L 97.759058 120.194249 
L 97.76642 120.285643 
L 97.781144 119.706814 
L 97.810592 117.818004 
L 97.854764 121.595624 
L 97.987279 190.049753 
L 98.046174 222.494634 
L 98.097708 197.361275 
L 98.244947 87.901691 
L 98.311204 104.718193 
L 98.480529 172.227917 
L 98.59832 291.893168 
L 98.642492 274.071332 
L 98.855989 111.816462 
L 98.93697 125.982537 
L 99.017951 161.534815 
L 99.150466 197.574528 
L 99.194638 188.617913 
L 99.341877 133.598706 
L 99.496478 146.637588 
L 99.695251 186.089345 
L 99.754146 191.26834 
L 99.813042 187.429791 
L 99.871937 164.489889 
L 100.055986 104.078434 
L 100.092796 110.323693 
L 100.365188 233.157271 
L 100.453531 208.907388 
L 100.733285 104.718193 
L 100.740647 105.144698 
L 100.784819 114.40596 
L 100.924696 189.044419 
L 100.998315 234.710969 
L 101.049849 205.312556 
L 101.197088 78.670894 
L 101.255984 99.478268 
L 101.5431 295.488 
L 101.624081 246.013365 
L 101.800768 108.891853 
L 101.830216 114.314566 
L 102.087884 190.202076 
L 102.146779 185.876092 
L 102.154141 186.57678 
L 102.190951 180.544774 
L 102.279294 128.175994 
L 102.404448 134.847758 
L 102.448619 154.771657 
L 102.632668 188.953025 
L 102.684202 194.101555 
L 102.743097 189.318601 
L 102.794631 173.903474 
L 103.000765 89.729572 
L 103.030213 96.431801 
L 103.302605 242.174815 
L 103.390949 213.446625 
L 103.678065 99.782915 
L 103.685426 100.361744 
L 103.751684 118.396833 
L 103.906285 230.87242 
L 103.943095 246.592193 
L 103.987266 220.758147 
L 104.141867 64.931325 
L 104.208125 99.508733 
L 104.480517 294.025696 
L 104.539412 271.024864 
L 104.730823 113.644343 
L 104.819166 139.752571 
L 104.973767 191.512057 
L 105.054749 182.464048 
L 105.17254 153.827252 
L 105.238797 119.310773 
L 105.305055 132.77616 
L 105.40076 154.52794 
L 105.584809 198.031498 
L 105.606895 198.854045 
L 105.651067 195.838042 
L 105.761496 154.98491 
L 105.938183 84.733365 
L 105.974992 91.74024 
L 106.166403 226.089466 
L 106.23266 249.364479 
L 106.291556 235.807698 
L 106.615482 92.989292 
L 106.667015 105.845386 
L 106.887874 243.423867 
L 106.954131 193.583655 
L 107.094008 66.576417 
L 107.13818 86.835427 
L 107.425296 286.95789 
L 107.469468 270.01953 
L 107.66824 119.036591 
L 107.763946 147.856175 
L 107.918547 193.827373 
L 107.97008 181.915684 
L 108.00689 177.345983 
L 108.190939 111.024381 
L 108.27192 134.116606 
L 108.338178 152.517271 
L 108.522226 206.805325 
L 108.53695 207.079507 
L 108.566398 205.769526 
L 108.617932 194.680384 
L 108.882962 78.975541 
L 108.941857 104.779122 
L 109.17744 255.487879 
L 109.214249 247.567063 
L 109.354126 154.040505 
L 109.530813 95.944366 
L 109.560261 92.623716 
L 109.611795 101.214755 
L 109.751672 190.476258 
L 109.832653 251.771189 
L 109.876825 216.462628 
L 110.038788 66.27177 
L 110.082959 87.779832 
L 110.370075 278.671498 
L 110.399523 273.553433 
L 110.50259 184.992617 
L 110.61302 121.839341 
L 110.657191 131.039674 
L 110.855964 195.198283 
L 110.87805 189.684177 
L 111.135718 107.460014 
L 111.165166 114.619213 
L 111.459644 215.274505 
L 111.481729 213.446625 
L 111.599521 180.270592 
L 111.805655 68.708944 
L 111.864551 85.860558 
L 112.114857 260.362227 
L 112.2032 231.237996 
L 112.50504 87.414256 
L 112.54185 94.542991 
L 112.696451 193.705514 
L 112.77007 253.385816 
L 112.821604 222.40324 
L 112.983567 68.708944 
L 113.0351 93.811838 
L 113.322216 283.149806 
L 113.351664 273.766685 
L 113.543075 125.464638 
L 113.653504 158.76253 
L 113.808105 196.173153 
L 113.844915 184.413788 
L 114.087859 102.585665 
L 114.154117 126.134861 
L 114.27927 187.216538 
L 114.419147 222.098593 
L 114.441233 220.087924 
L 114.536938 185.358193 
L 114.73571 63.255767 
L 114.80933 83.575707 
L 115.066998 263.469624 
L 115.14798 233.370524 
L 115.449819 84.24593 
L 115.479267 88.967955 
L 115.619144 167.262175 
L 115.722211 252.837452 
L 115.773745 214.025454 
L 115.928346 69.653349 
L 115.972518 87.536115 
L 116.274358 278.671498 
L 116.296443 272.730886 
L 116.43632 149.348944 
L 116.50994 126.622295 
L 116.554112 136.431921 
L 116.752884 196.4778 
L 116.760246 196.295012 
L 116.973743 134.573576 
L 117.04 102.128695 
L 117.098896 122.387705 
L 117.371288 223.31718 
L 117.459631 200.834249 
L 117.687852 63.834596 
L 117.783557 99.661056 
L 118.019139 263.591483 
L 118.055949 254.939515 
L 118.188464 155.167698 
L 118.357789 93.17208 
L 118.401961 84.093606 
L 118.453494 96.188083 
L 118.615457 211.710138 
L 118.674353 254.299757 
L 118.725886 213.659878 
L 118.887849 69.744743 
L 118.924659 87.50565 
L 119.226499 279.402651 
L 119.248585 273.522968 
L 119.469443 125.647426 
L 119.565148 163.91106 
L 119.660854 181.306391 
L 119.705025 197.208952 
L 119.763921 180.45338 
L 119.925884 133.811959 
L 119.992141 101.64126 
L 120.051037 122.783746 
L 120.323429 223.408574 
L 120.40441 204.154898 
L 120.647355 64.474354 
L 120.735698 100.239885 
L 120.97128 262.220573 
L 121.000728 256.676002 
L 121.111157 184.352858 
L 121.30993 92.928363 
L 121.354102 84.428718 
L 121.405635 96.675518 
L 121.552874 196.660588 
L 121.626494 253.99511 
L 121.678027 213.355231 
L 121.83999 70.597754 
L 121.8768 88.48052 
L 122.17864 279.46358 
L 122.200726 273.27925 
L 122.40686 125.342779 
L 122.517289 164.977324 
L 122.598271 174.908808 
L 122.657166 197.056629 
L 122.716062 180.514309 
L 122.870663 137.955155 
L 122.944282 100.574997 
L 122.995816 120.52936 
L 123.27557 224.170191 
L 123.34919 206.043708 
L 123.599496 64.870395 
L 123.687839 100.666391 
L 123.923422 262.616614 
L 123.952869 257.072042 
L 124.078022 168.846338 
L 124.262071 93.507192 
L 124.306243 84.154536 
L 124.357776 96.401336 
L 124.490292 182.159402 
L 124.578635 254.056039 
L 124.630169 212.319432 
L 124.784769 70.536825 
L 124.821579 82.905484 
L 125.123419 279.372186 
L 125.167591 264.292171 
L 125.366363 123.088393 
L 125.439983 154.040505 
L 125.609308 198.854045 
L 125.624032 196.93477 
L 125.896424 99.29548 
L 125.955319 122.022129 
L 126.227711 223.926474 
L 126.301331 205.769526 
L 126.544275 64.718072 
L 126.63998 101.367078 
L 126.875563 263.012654 
L 126.905011 257.681336 
L 127.01544 183.438918 
L 127.214212 92.562787 
L 127.258384 83.849889 
L 127.309918 96.03576 
L 127.449795 190.994158 
L 127.530776 254.665333 
L 127.574948 221.580694 
L 127.736911 70.841472 
L 127.781082 89.028884 
L 128.07556 280.37752 
L 128.105008 272.944139 
L 128.311143 121.077724 
L 128.406848 162.570614 
L 128.561449 199.646126 
L 128.598259 188.282802 
L 128.841203 98.412005 
L 128.892736 117.26964 
L 129.179852 223.134392 
L 129.224024 214.969859 
L 129.349177 148.709186 
L 129.496416 64.992254 
L 129.54795 73.705151 
L 129.628931 139.35653 
L 129.827704 261.915926 
L 129.84979 259.14364 
L 129.945495 206.37882 
L 130.173715 90.704441 
L 130.210525 83.971748 
L 130.262059 95.335072 
L 130.394574 184.779364 
L 130.482917 254.878586 
L 130.527089 220.270713 
L 130.689052 70.56729 
L 130.725862 83.849889 
L 131.027701 279.615903 
L 131.064511 267.369103 
L 131.255922 121.169118 
L 131.344265 157.26976 
L 131.51359 200.499137 
L 131.528314 197.635457 
L 131.793344 99.021298 
L 131.837516 114.771536 
L 132.131994 222.890675 
L 132.161441 219.052125 
L 132.264509 174.421374 
L 132.455919 65.87573 
L 132.514815 77.543701 
L 132.779845 262.951725 
L 132.882912 220.605824 
L 133.155304 84.032677 
L 133.162666 83.667101 
L 133.192114 87.627509 
L 133.317267 158.000913 
L 133.435058 254.939515 
L 133.47923 219.052125 
L 133.641193 71.511695 
L 133.678003 84.824759 
L 133.979843 279.737762 
L 134.016652 266.059122 
L 134.208063 120.377037 
L 134.289044 154.162363 
L 134.465731 201.138895 
L 134.473093 200.164026 
L 134.745485 98.290146 
L 134.826467 128.846217 
L 134.944258 191.572987 
L 135.084135 221.702552 
L 135.113583 219.143519 
L 135.201926 184.62704 
L 135.400699 65.053183 
L 135.474318 82.052473 
L 135.731986 263.713342 
L 135.812968 236.142809 
L 136.114807 83.971748 
L 136.144255 88.084479 
L 136.269408 159.15857 
L 136.379838 254.421615 
L 136.431371 215.548688 
L 136.593334 73.156787 
L 136.630144 88.632843 
L 136.924622 278.03174 
L 136.961431 267.612821 
L 137.14548 119.859137 
L 137.241186 158.30556 
L 137.41051 200.468672 
L 137.417872 200.103096 
L 137.638731 126.896478 
L 137.697626 100.057097 
L 137.74916 120.194249 
L 138.036276 221.733017 
L 138.095171 212.624079 
L 138.212963 144.657384 
L 138.360202 64.687607 
L 138.404373 71.02426 
L 138.477993 130.125733 
L 138.684127 263.500089 
L 138.706213 260.209904 
L 138.801918 203.484675 
L 139.022777 93.964162 
L 139.066949 83.880354 
L 139.118482 95.609254 
L 139.243635 181.976614 
L 139.331979 255.609738 
L 139.383512 213.081049 
L 139.545475 74.34491 
L 139.574923 86.012881 
L 139.876763 276.173395 
L 139.913573 264.840535 
L 140.097621 120.437966 
L 140.185965 155.807456 
L 140.362651 199.402409 
L 140.524614 162.753402 
L 140.649767 100.026632 
L 140.723387 129.120399 
L 140.995779 221.42837 
L 141.07676 201.321683 
L 141.304981 64.322031 
L 141.393324 95.182749 
L 141.636268 263.835201 
L 141.665716 257.407154 
L 141.776145 178.412246 
L 141.960194 98.990833 
L 142.01909 84.550577 
L 142.070623 97.102023 
L 142.195777 184.748899 
L 142.28412 255.701132 
L 142.328292 219.53956 
L 142.490254 74.34491 
L 142.527064 88.450055 
L 142.828904 274.680626 
L 142.858352 265.388899 
L 143.042401 120.133319 
L 143.138106 158.7016 
L 143.307431 199.432873 
L 143.336878 192.121351 
L 143.594547 100.696855 
L 143.623994 109.348824 
L 143.940558 222.189987 
L 143.94792 222.129058 
L 143.999454 214.116848 
L 144.117245 141.549987 
L 144.257122 63.529949 
L 144.301294 69.531491 
L 144.374913 126.226255 
L 144.581048 264.322635 
L 144.603134 261.428491 
L 144.706201 198.640792 
L 144.919697 96.705983 
L 144.971231 85.342658 
L 145.022765 98.168287 
L 145.140556 179.326187 
L 145.228899 255.335556 
L 145.280433 216.097052 
L 145.442396 75.228385 
L 145.479205 90.613047 
L 145.773683 273.096462 
L 145.803131 266.272375 
L 145.994542 120.773077 
L 146.097609 165.79987 
L 146.259572 199.128227 
L 146.274296 196.630123 
L 146.546688 101.763119 
L 146.590859 118.823338 
L 146.892699 222.586028 
L 146.944233 217.376568 
L 147.039938 163.179908 
L 147.209263 62.280898 
L 147.268159 74.832345 
L 147.533189 264.383565 
L 147.621532 228.06967 
L 147.91601 85.312193 
L 147.923372 85.312193 
L 147.974906 99.021298 
L 148.092697 181.001744 
L 148.18104 255.731597 
L 148.232574 213.781736 
L 148.394537 74.80188 
L 148.423985 86.13474 
L 148.725824 273.34018 
L 148.769996 256.432284 
L 148.946683 122.692352 
L 149.027664 153.705393 
L 149.196989 198.640792 
L 149.211713 199.79845 
L 149.241161 190.994158 
L 149.498829 100.422673 
L 149.520915 107.277226 
L 149.844841 223.591362 
L 149.852202 223.682756 
L 149.866926 223.103927 
L 149.91846 211.161774 
L 150.154042 60.331158 
L 150.249748 97.40667 
L 150.48533 265.206111 
L 150.514778 258.382023 
L 150.632569 171.557694 
L 150.809256 103.408212 
L 150.875513 86.104275 
L 150.927047 99.478268 
L 151.037476 175.548567 
L 151.133181 256.066708 
L 151.184715 213.111513 
L 151.339316 75.045597 
L 151.376126 86.469851 
L 151.677966 272.243451 
L 151.722137 255.670667 
L 151.891462 124.246051 
L 151.979805 155.44188 
L 152.14913 198.092428 
L 152.163854 199.006368 
L 152.193302 189.927894 
L 152.45097 100.422673 
L 152.473056 107.734196 
L 152.796982 224.809949 
L 152.804344 224.809949 
L 152.848515 219.874672 
L 152.944221 161.900391 
L 153.106183 60.331158 
L 153.165079 71.603089 
L 153.371214 237.818366 
L 153.437471 264.414029 
L 153.489005 248.145892 
L 153.827654 86.13474 
L 153.88655 102.220089 
L 154.004341 191.055087 
L 154.085323 255.975314 
L 154.129494 222.129058 
L 154.291457 75.015133 
L 154.335629 92.349534 
L 154.630107 272.456704 
L 154.659555 264.627282 
L 154.843603 125.647426 
L 154.94667 164.977324 
L 155.115995 197.90964 
L 155.270596 166.226376 
L 155.395749 100.118026 
L 155.484093 131.070138 
L 155.542988 150.354279 
L 155.749123 224.444373 
L 155.771209 223.530433 
L 155.822742 211.679674 
L 156.058325 59.813259 
L 156.15403 100.27035 
L 156.38225 263.561019 
L 156.411698 258.808529 
L 156.522127 185.327728 
L 156.632557 105.388416 
L 156.706176 107.673266 
L 156.772434 87.536115 
L 156.831329 100.239885 
L 156.934396 168.023791 
L 157.037464 256.219031 
L 157.081635 222.525099 
L 157.243598 75.25885 
L 157.280408 87.718903 
L 157.582248 272.121593 
L 157.62642 255.701132 
L 157.795744 125.495102 
L 157.884088 156.569073 
L 158.053413 195.777112 
L 158.060774 196.630123 
L 158.090222 190.689511 
L 158.34789 100.818714 
L 158.377338 109.866723 
L 158.68654 223.804615 
L 158.701264 224.566232 
L 158.745436 220.544895 
L 158.826417 176.889012 
L 159.010466 59.965582 
L 159.069361 72.090524 
L 159.334392 262.616614 
L 159.437459 218.473297 
L 159.702489 91.405129 
L 159.724575 87.840762 
L 159.776108 98.259681 
L 159.879176 161.869927 
L 159.989605 256.432284 
L 160.033777 221.336976 
L 160.195739 75.685355 
L 160.232549 88.054014 
L 160.534389 270.9944 
L 160.578561 255.061374 
L 160.747886 126.317649 
L 160.836229 157.33069 
L 160.998192 192.63925 
L 161.012916 194.985031 
L 161.057087 183.438918 
L 161.300032 100.300815 
L 161.351565 121.90027 
L 161.653405 225.023202 
L 161.697577 220.788612 
L 161.778558 176.15786 
L 161.962607 59.904653 
L 162.014141 69.409632 
L 162.12457 170.186784 
L 162.286533 262.708008 
L 162.330704 251.466542 
L 162.455857 156.934649 
L 162.625182 101.945907 
L 162.676716 87.231468 
L 162.735611 100.514067 
L 162.838679 169.607955 
L 162.941746 255.792526 
L 162.985918 220.666753 
L 163.147881 75.228385 
L 163.18469 87.292397 
L 163.48653 271.39044 
L 163.530702 254.421615 
L 163.700027 127.597165 
L 163.781008 153.157029 
L 163.950333 192.24321 
L 163.965057 194.558525 
L 164.009228 182.890554 
L 164.252173 101.519402 
L 164.303706 123.33211 
L 164.598184 224.139726 
L 164.649718 218.991196 
L 164.730699 174.512768 
L 164.914748 60.270229 
L 164.966282 69.714279 
L 165.069349 164.459424 
L 165.238674 261.794067 
L 165.282845 250.67446 
L 165.407999 158.945318 
L 165.577323 101.70219 
L 165.628857 86.500316 
L 165.687753 99.661056 
L 165.798182 177.711559 
L 165.893887 255.914385 
L 165.938059 219.630954 
L 166.100022 74.558162 
L 166.136831 86.439386 
L 166.438671 270.903006 
L 166.482843 253.873251 
L 166.652168 128.99854 
L 166.733149 155.076304 
L 166.895112 189.349065 
L 166.917198 193.583655 
L 166.968732 180.331521 
L 167.15278 125.068597 
L 167.204314 102.829383 
L 167.255848 125.556032 
L 167.550325 222.921139 
L 167.594497 219.204449 
L 167.668117 184.444252 
L 167.866889 60.056976 
L 167.925785 72.486564 
L 168.190815 262.037785 
L 168.28652 225.510637 
L 168.580998 85.799628 
L 168.58836 85.860558 
L 168.647256 101.884978 
L 168.765047 194.345272 
L 168.838666 255.731597 
L 168.8902 218.747479 
L 169.052163 75.136991 
L 169.088973 87.201003 
L 169.383451 270.506965 
L 169.434984 253.263958 
L 169.604309 130.369451 
L 169.68529 155.44188 
L 169.847253 188.191408 
L 169.869339 192.517392 
L 169.920873 179.052005 
L 170.090198 135.883557 
L 170.156455 103.895646 
L 170.207989 126.65276 
L 170.502467 222.098593 
L 170.554 217.102386 
L 170.634982 172.715352 
L 170.81903 61.062311 
L 170.870564 69.805673 
L 170.995717 179.874551 
L 171.142956 262.251037 
L 171.201852 246.744517 
L 171.334367 139.539318 
L 171.49633 93.050221 
L 171.533139 84.032677 
L 171.592035 97.558994 
L 171.702464 179.813621 
L 171.790808 256.279961 
L 171.842341 218.564691 
L 172.004304 75.380709 
L 172.041114 87.322862 
L 172.335592 270.720218 
L 172.387125 253.964645 
L 172.55645 131.009209 
L 172.637432 156.35582 
L 172.792032 184.322394 
L 172.82148 191.26834 
L 172.880376 177.254589 
L 173.005529 156.782326 
L 173.108596 105.266557 
L 173.167492 131.527108 
L 173.46197 221.367441 
L 173.528227 209.63854 
L 173.771172 61.397422 
L 173.866877 101.854513 
L 174.095097 263.195442 
L 174.124545 258.321094 
L 174.227612 197.239417 
L 174.441109 95.365537 
L 174.485281 83.514777 
L 174.544176 97.345741 
L 174.654605 180.84942 
L 174.742949 256.127637 
L 174.794482 217.467962 
L 174.956445 75.289315 
L 174.993255 87.779832 
L 175.295095 269.958601 
L 175.331905 258.260165 
L 175.508591 131.252926 
L 175.604297 165.678011 
L 175.766259 189.37953 
L 175.773621 190.110682 
L 175.803069 184.139606 
L 176.060737 106.180497 
L 176.090185 117.848468 
L 176.377301 216.066587 
L 176.414111 220.758147 
L 176.473006 212.806867 
L 176.605522 116.660346 
L 176.730675 60.270229 
L 176.767484 65.87573 
L 176.848466 133.446383 
L 177.047238 263.530554 
L 177.076686 259.113176 
L 177.179753 197.239417 
L 177.39325 94.969496 
L 177.437422 83.301525 
L 177.496317 98.107358 
L 177.614108 188.953025 
L 177.69509 255.914385 
L 177.746623 216.066587 
L 177.908586 75.71582 
L 177.945396 88.571914 
L 178.247236 269.989065 
L 178.284046 259.174105 
L 178.460732 131.435714 
L 178.556438 165.129647 
L 178.718401 189.196742 
L 178.725763 189.775571 
L 178.75521 183.530312 
L 179.005517 105.967244 
L 179.042326 118.396833 
L 179.32208 214.543353 
L 179.35889 220.880006 
L 179.417786 214.665212 
L 179.528215 143.591121 
L 179.682816 60.178835 
L 179.719626 65.540618 
L 179.800607 133.842424 
L 179.99938 263.865665 
L 180.028827 259.174105 
L 180.124533 203.271423 
L 180.345391 94.08602 
L 180.389563 83.484313 
L 180.441096 95.852972 
L 180.551526 174.360444 
L 180.647231 255.000444 
L 180.698765 215.487758 
L 180.860727 76.264184 
L 180.897537 89.699107 
L 181.199377 270.171853 
L 181.236187 259.235034 
L 181.412874 130.826421 
L 181.508579 164.672677 
L 181.670542 189.013954 
L 181.677904 189.470924 
L 181.69999 185.540981 
L 181.957658 106.150032 
L 181.994467 118.884267 
L 182.281583 216.066587 
L 182.318393 221.032329 
L 182.377289 212.441291 
L 182.524528 103.194959 
L 182.627595 59.843723 
L 182.679129 68.830803 
L 182.841092 203.880716 
L 182.951521 264.292171 
L 183.010416 248.054498 
L 183.135569 144.62692 
L 183.304894 90.399794 
L 183.341704 83.210131 
L 183.393238 96.49273 
L 183.511029 180.971279 
L 183.599372 253.842787 
L 183.650906 213.994989 
L 183.812869 76.812549 
L 183.849678 90.704441 
L 184.151518 269.684419 
L 184.188328 258.077377 
L 184.365015 130.521774 
L 184.46072 164.642212 
L 184.622683 189.318601 
L 184.630045 189.501389 
L 184.644769 187.216538 
L 184.909799 106.759326 
L 184.953971 123.667222 
L 185.263172 220.758147 
L 185.270534 220.605824 
L 185.322068 214.238706 
L 185.432497 140.422794 
L 185.579736 59.569541 
L 185.623908 66.972458 
L 185.726975 159.950652 
L 185.903662 263.713342 
L 185.947834 252.593735 
L 186.058263 171.588159 
L 186.249673 93.446262 
L 186.293845 83.575707 
L 186.345379 97.284811 
L 186.46317 182.890554 
L 186.551513 252.776523 
L 186.595685 219.570025 
L 186.76501 78.183459 
L 186.80182 93.720444 
L 187.096297 269.775813 
L 187.133107 260.362227 
L 187.324518 130.064804 
L 187.412861 165.281971 
L 187.574824 190.323935 
L 187.582186 190.202076 
L 187.788321 144.10902 
L 187.86194 106.789791 
L 187.913474 128.754823 
L 188.215314 220.483965 
L 188.266847 215.883799 
L 188.369914 150.628461 
L 188.531877 59.782794 
L 188.576049 67.764539 
L 188.686478 168.846338 
L 188.848441 263.500089 
L 188.899975 250.826784 
L 189.017766 161.961321 
L 189.194453 96.188083 
L 189.238624 83.636636 
L 189.29752 97.4676 
L 189.407949 176.584366 
L 189.496293 253.263958 
L 189.547826 217.19378 
L 189.709789 79.127864 
L 189.746599 91.009088 
L 190.048439 269.958601 
L 190.09261 254.421615 
L 190.269297 129.211793 
L 190.350278 158.792994 
L 190.512241 189.988824 
L 190.526965 191.481593 
L 190.563775 181.032209 
L 190.806719 107.003043 
L 190.843529 119.15845 
L 191.123283 213.994989 
L 191.167455 220.544895 
L 191.22635 212.867796 
L 191.358865 114.619213 
L 191.476657 59.112571 
L 191.520828 65.906194 
L 191.609172 145.175284 
L 191.800582 262.372896 
L 191.83003 256.79786 
L 191.933097 195.381071 
L 192.146594 94.268808 
L 192.190765 82.418049 
L 192.249661 97.40667 
L 192.367452 187.064215 
L 192.448434 253.903716 
L 192.499967 213.93406 
L 192.66193 79.03647 
L 192.69874 93.111151 
L 192.993218 270.53743 
L 193.03739 257.041578 
L 193.221438 129.029005 
L 193.30242 159.950652 
L 193.464382 190.963693 
L 193.471744 191.78624 
L 193.501192 186.089345 
L 193.75886 106.150032 
L 193.780946 111.877392 
L 194.090148 217.985862 
L 194.119596 220.849541 
L 194.17113 214.451959 
L 194.303645 119.006126 
L 194.428798 60.300694 
L 194.472969 67.216175 
L 194.568675 155.624668 
L 194.745361 263.195442 
L 194.782171 256.85879 
L 194.8926 186.881427 
L 195.098735 92.897898 
L 195.142907 82.326655 
L 195.19444 95.213213 
L 195.312231 181.641502 
L 195.400575 254.421615 
L 195.444747 221.001865 
L 195.606709 78.884147 
L 195.650881 94.786708 
L 195.945359 270.689753 
L 195.982169 259.295964 
L 196.173579 128.358782 
L 196.254561 161.321563 
L 196.416524 191.938563 
L 196.423886 192.486927 
L 196.445971 188.46559 
L 196.711002 104.931445 
L 196.740449 116.477558 
L 197.005479 209.212035 
L 197.064375 220.575359 
L 197.123271 213.446625 
L 197.255786 116.568952 
L 197.373577 60.909987 
L 197.417749 66.576417 
L 197.491368 127.018336 
L 197.697503 262.799402 
L 197.719588 259.783399 
L 197.822656 205.739062 
L 198.0656 84.855223 
L 198.087686 80.92528 
L 198.139219 92.288604 
L 198.257011 176.61483 
L 198.345354 255.975314 
L 198.396888 219.021661 
L 198.558851 78.549035 
L 198.59566 91.222341 
L 198.890138 270.628824 
L 198.93431 257.894589 
L 199.118359 127.444842 
L 199.19934 158.671136 
L 199.361303 191.359734 
L 199.376027 192.608786 
L 199.405475 184.474717 
L 199.655781 104.779122 
L 199.685229 113.552949 
L 199.957621 209.455752 
L 200.023878 220.423036 
L 200.075412 213.355231 
L 200.222651 103.712858 
L 200.325718 61.397422 
L 200.377252 69.683814 
L 200.531853 198.82358 
L 200.649644 262.768937 
L 200.708539 248.024033 
L 200.826331 154.954445 
L 201.010379 85.434052 
L 201.039827 80.376916 
L 201.091361 92.25814 
L 201.20179 172.410705 
L 201.297495 257.132972 
L 201.349029 216.493093 
L 201.510992 78.092065 
L 201.547801 92.776039 
L 201.842279 270.049995 
L 201.879089 259.905257 
L 202.0705 127.840883 
L 202.166205 167.566821 
L 202.320806 191.694845 
L 202.33553 190.506723 
L 202.607922 104.535405 
L 202.659456 126.713689 
L 202.976019 219.874672 
L 202.998105 219.295843 
L 203.042277 205.647668 
L 203.277859 61.854392 
L 203.351479 84.7029 
L 203.594423 263.561019 
L 203.645957 253.08117 
L 203.749024 182.555442 
L 203.955158 85.342658 
L 203.984606 78.853682 
L 204.043502 92.989292 
L 204.161293 183.804494 
L 204.249636 257.589942 
L 204.293808 223.652292 
L 204.455771 78.183459 
L 204.499943 94.268808 
L 204.79442 269.867207 
L 204.823868 262.433825 
L 204.971107 140.696976 
L 205.022641 128.937611 
L 205.074175 142.463927 
L 205.258223 189.440459 
L 205.272947 191.298805 
L 205.309757 181.732896 
L 205.560063 105.114233 
L 205.589511 115.868264 
L 205.854541 206.531143 
L 205.935522 218.808408 
L 205.979694 211.740603 
L 206.141657 92.379998 
L 206.23 61.58021 
L 206.281534 70.262643 
L 206.472945 225.480172 
L 206.546564 264.048453 
L 206.612822 248.84658 
L 206.730613 152.852382 
L 206.914662 81.534573 
L 206.936747 78.092065 
L 206.988281 90.460724 
L 207.106072 177.254589 
L 207.201777 257.803195 
L 207.245949 222.768816 
L 207.407912 78.092065 
L 207.444722 89.973289 
L 207.746562 269.440701 
L 207.790733 255.213697 
L 207.974782 130.217127 
L 208.055763 162.357362 
L 208.217726 189.623247 
L 208.225088 190.141147 
L 208.247174 186.211204 
L 208.512204 105.693062 
L 208.541652 116.629881 
L 208.806682 206.104638 
L 208.887664 219.052125 
L 208.931835 212.04525 
L 209.071712 109.166036 
L 209.189503 60.849058 
L 209.226313 66.180376 
L 209.314657 144.870637 
L 209.498705 265.114717 
L 209.542877 257.041578 
L 209.638582 197.239417 
L 209.859441 82.631302 
L 209.888889 77.421842 
L 209.940422 91.009088 
L 210.065575 185.784698 
L 210.153919 258.077377 
L 210.19809 221.824411 
L 210.360053 77.66556 
L 210.396863 90.156077 
L 210.698703 269.623489 
L 210.742874 255.822991 
L 210.926923 130.521774 
L 211.007905 161.748068 
L 211.169867 188.892095 
L 211.177229 189.440459 
L 211.199315 185.784698 
L 211.464345 105.388416 
L 211.493793 116.264305 
L 211.766185 208.237165 
L 211.839805 219.99653 
L 211.883976 212.776402 
L 212.031215 102.920777 
L 212.141645 60.300694 
L 212.185816 68.556621 
L 212.384589 233.187736 
L 212.450846 266.059122 
L 212.509742 252.654664 
L 212.612809 173.751151 
L 212.811582 81.778291 
L 212.84103 76.782084 
L 212.885201 88.389126 
L 213.017716 187.125144 
L 213.098698 257.803195 
L 213.150231 220.9714 
L 213.312194 77.391377 
L 213.349004 90.36933 
L 213.650844 270.628824 
L 213.695016 256.828325 
L 213.879064 130.156198 
L 213.960046 162.144109 
L 214.122009 188.953025 
L 214.129371 189.409995 
L 214.151456 185.540981 
L 214.416487 104.900981 
L 214.445934 116.081517 
L 214.725688 210.765733 
L 214.791946 220.575359 
L 214.836118 213.47709 
L 214.975995 108.28256 
L 215.086424 59.478147 
L 215.130595 65.296901 
L 215.218939 144.992496 
L 215.402988 266.546557 
L 215.447159 257.742265 
L 215.550227 187.764902 
L 215.763723 81.412715 
L 215.793171 76.995337 
L 215.837343 89.150743 
L 215.969858 187.94769 
L 216.050839 257.711801 
L 216.102373 219.99653 
L 216.264335 77.391377 
L 216.301145 90.613047 
L 216.602985 271.938805 
L 216.647157 258.046912 
L 216.831205 129.425046 
L 216.912187 161.473886 
L 217.07415 189.623247 
L 217.081512 190.141147 
L 217.103598 186.363527 
L 217.368628 103.98704 
L 217.405437 119.127985 
L 217.729363 220.788612 
L 217.751449 221.245582 
L 217.773535 218.777943 
L 217.861878 165.738941 
L 218.038565 58.899318 
L 218.090099 68.099651 
L 218.355129 266.607486 
L 218.465558 220.605824 
L 218.73795 77.66556 
L 218.745312 77.696024 
L 218.796846 93.233009 
L 218.929361 197.635457 
L 219.00298 258.168771 
L 219.054514 218.838873 
L 219.216477 76.903943 
L 219.253286 90.643512 
L 219.555126 273.919009 
L 219.599298 259.14364 
L 219.783347 128.145529 
L 219.864328 161.382492 
L 220.033653 191.237875 
L 220.063101 185.084011 
L 220.320769 102.646595 
L 220.357579 118.518691 
L 220.681504 221.763482 
L 220.696228 221.976734 
L 220.718314 220.453501 
L 220.791934 182.128937 
L 220.990706 58.046308 
L 221.04224 68.556621 
L 221.30727 266.516092 
L 221.410337 225.480172 
L 221.690091 78.609964 
L 221.697453 78.670894 
L 221.748987 93.933697 
L 221.881502 198.518933 
L 221.955121 258.503882 
L 222.006655 217.498427 
L 222.168618 75.685355 
L 222.205428 90.460724 
L 222.507267 275.320384 
L 222.544077 263.926595 
L 222.735488 127.079266 
L 222.823831 164.42896 
L 222.985794 192.090886 
L 223.000518 190.171612 
L 223.265548 101.488937 
L 223.324444 124.824879 
L 223.648369 222.464169 
L 223.692541 213.659878 
L 223.869228 78.12253 
L 223.942847 57.589337 
L 223.994381 68.587086 
L 224.259411 266.333304 
L 224.355116 229.623368 
L 224.642232 78.853682 
L 224.656956 80.041804 
L 224.752662 123.362575 
L 224.907262 258.534347 
L 224.966158 206.135102 
L 225.120759 75.502567 
L 225.157569 90.673977 
L 225.459409 276.66083 
L 225.496218 264.261706 
L 225.680267 126.378578 
L 225.76861 161.504351 
L 225.937935 192.608786 
L 225.974745 183.560777 
L 226.217689 100.087562 
L 226.291309 129.364116 
L 226.593149 222.768816 
L 226.666768 201.138895 
L 226.894988 57.34562 
L 226.961246 79.249723 
L 227.211552 266.668416 
L 227.263086 253.050705 
L 227.373515 166.71381 
L 227.557564 87.688438 
L 227.594373 78.914611 
L 227.645907 92.440928 
L 227.778422 193.126685 
L 227.859404 258.991317 
L 227.903575 224.718555 
L 228.0729 74.253516 
L 228.10971 90.521653 
L 228.404188 277.148264 
L 228.440998 268.191649 
L 228.632408 125.373244 
L 228.728113 165.617082 
L 228.890076 192.943897 
L 228.9048 190.445794 
L 229.16983 99.691521 
L 229.221364 121.90027 
L 229.54529 222.982069 
L 229.567376 221.702552 
L 229.633633 190.141147 
L 229.84713 56.797256 
L 229.898663 69.074521 
L 230.163693 267.033992 
L 230.252037 234.223535 
L 230.546515 78.701359 
L 230.5686 81.991544 
L 230.686392 150.110561 
L 230.811545 259.600611 
L 230.863078 213.690342 
L 231.017679 73.674687 
L 231.061851 90.399794 
L 231.356329 277.209194 
L 231.393139 267.490962 
L 231.577187 125.464638 
L 231.680255 166.25684 
L 231.842217 192.365068 
L 231.856941 189.714641 
L 232.121972 99.447804 
L 232.166143 119.188914 
L 232.490069 223.652292 
L 232.512155 222.951604 
L 232.563688 204.733727 
L 232.799271 56.37075 
L 232.865528 79.341117 
L 233.108473 267.399568 
L 233.167368 253.842787 
L 233.277797 164.703142 
L 233.461846 86.043346 
L 233.498656 78.305318 
L 233.550189 93.263474 
L 233.682704 196.142688 
L 233.763686 259.631075 
L 233.807858 222.616493 
L 233.96982 73.644222 
L 234.00663 85.67777 
L 234.30847 276.508506 
L 234.352642 262.494755 
L 234.529329 126.073931 
L 234.617672 159.889723 
L 234.779635 190.780905 
L 234.786997 191.451128 
L 234.816444 185.723769 
L 235.074113 100.300815 
L 235.110922 115.990123 
L 235.412762 222.098593 
L 235.44221 224.200656 
L 235.486382 218.564691 
L 235.611535 127.993206 
L 235.751412 55.700527 
L 235.788222 61.671604 
L 235.876565 142.22021 
L 236.060614 267.826073 
L 236.097423 261.824532 
L 236.193129 203.088635 
L 236.421349 83.027343 
L 236.450797 78.274853 
L 236.494969 90.338865 
L 236.634846 196.782447 
L 236.708465 259.448287 
L 236.759999 221.245582 
L 236.921962 73.918404 
L 236.958771 86.469851 
L 237.260611 275.777354 
L 237.304783 261.48942 
L 237.48147 126.500437 
L 237.569813 160.834128 
L 237.731776 190.3544 
L 237.739138 190.81137 
L 237.761224 187.064215 
L 238.026254 100.788249 
L 238.063064 117.300104 
L 238.372265 223.286716 
L 238.394351 224.017868 
L 238.431161 220.179318 
L 238.534228 153.55307 
L 238.696191 56.005174 
L 238.740363 62.676938 
L 238.836068 151.572866 
L 239.012755 267.795609 
L 239.056927 259.052246 
L 239.152632 193.735979 
L 239.366128 85.129405 
L 239.395576 78.5795 
L 239.44711 91.466058 
L 239.586987 199.250085 
L 239.660606 258.808529 
L 239.71214 217.19378 
L 239.874103 74.923739 
L 239.910913 89.303066 
L 240.212752 274.802484 
L 240.249562 263.408695 
L 240.433611 127.231589 
L 240.529316 166.439628 
L 240.691279 189.958359 
L 240.698641 189.227207 
L 240.934223 116.355699 
L 240.971033 101.18429 
L 241.029929 126.165325 
L 241.33913 223.652292 
L 241.390664 216.157981 
L 241.530541 109.805794 
L 241.648332 56.218427 
L 241.692504 63.895526 
L 241.817657 176.919477 
L 241.964896 267.186315 
L 242.031154 248.968438 
L 242.163669 130.217127 
L 242.332993 80.590168 
L 242.347717 79.066935 
L 242.384527 86.744033 
L 242.524404 185.14494 
L 242.612747 257.711801 
L 242.656919 222.982069 
L 242.826244 76.264184 
L 242.863054 92.623716 
L 243.157532 274.132261 
L 243.186979 268.374437 
L 243.297409 169.973531 
L 243.37839 127.597165 
L 243.429924 137.589579 
L 243.636058 189.501389 
L 243.658144 186.241668 
L 243.923174 101.092896 
L 243.959984 116.873599 
L 244.239738 215.914264 
L 244.291272 223.256251 
L 244.342805 214.695677 
L 244.504768 89.820966 
L 244.593111 57.162832 
L 244.644645 66.27177 
L 244.821332 214.269171 
L 244.917037 266.516092 
L 244.975933 250.643995 
L 245.093724 149.501268 
L 245.263049 87.201003 
L 245.299858 79.371581 
L 245.351392 93.964162 
L 245.483907 195.777112 
L 245.557527 256.85879 
L 245.60906 219.021661 
L 245.771023 77.391377 
L 245.807833 90.552118 
L 246.109673 273.522968 
L 246.146482 262.890796 
L 246.330531 127.962741 
L 246.426237 166.104517 
L 246.588199 189.196742 
L 246.625009 179.600369 
L 246.867953 101.70219 
L 246.912125 119.036591 
L 247.206603 219.691884 
L 247.236051 222.464169 
L 247.287584 215.670546 
L 247.420099 117.970327 
L 247.545253 57.680731 
L 247.589424 64.504819 
L 247.692492 158.153236 
L 247.861816 266.120051 
L 247.91335 254.90905 
L 248.016417 177.985741 
L 248.207828 90.36933 
L 248.244638 80.712027 
L 248.303533 95.213213 
L 248.428686 189.684177 
L 248.509668 256.158102 
L 248.561201 215.000323 
L 248.723164 78.366247 
L 248.759974 93.354868 
L 249.061814 272.609028 
L 249.091262 264.444494 
L 249.27531 127.932277 
L 249.38574 169.973531 
L 249.540341 189.166277 
L 249.444635 169.516561 
L 249.555064 186.546315 
L 249.820095 101.336614 
L 249.856904 116.172911 
L 250.121934 211.375027 
L 250.188192 222.189987 
L 250.239726 214.482424 
L 250.386965 102.798918 
L 250.497394 57.954913 
L 250.541565 65.906194 
L 250.681442 186.57678 
L 250.813958 265.358434 
L 250.880215 247.993569 
L 250.998006 145.54086 
L 251.167331 86.957286 
L 251.196779 81.016674 
L 251.248312 93.446262 
L 251.373466 184.139606 
L 251.461809 255.822991 
L 251.505981 221.276047 
L 251.667943 79.006005 
L 251.704753 90.3084 
L 252.006593 272.730886 
L 252.058127 254.695798 
L 252.227452 127.262054 
L 252.315795 160.163905 
L 252.477758 188.831166 
L 252.48512 189.37953 
L 252.514568 183.438918 
L 252.772236 100.910108 
L 252.801683 112.791332 
L 253.059352 208.054377 
L 253.140333 222.464169 
L 253.184505 216.645416 
L 253.309658 126.591831 
L 253.442173 58.381419 
L 253.486345 64.169708 
L 253.574688 141.793705 
L 253.766099 265.297505 
L 253.802908 257.742265 
L 253.898614 196.569194 
L 254.11211 88.358661 
L 254.14892 80.651098 
L 254.200454 94.08602 
L 254.325607 186.729103 
L 254.406588 256.127637 
L 254.458122 217.864003 
L 254.620085 79.097399 
L 254.656894 92.136281 
L 254.958734 273.218321 
L 255.002906 258.107841 
L 255.179593 127.018336 
L 255.267936 161.077845 
L 255.429899 189.257671 
L 255.437261 189.562318 
L 255.451985 187.551649 
L 255.724377 100.971037 
L 255.768549 122.905605 
L 256.07775 221.336976 
L 256.099836 221.702552 
L 256.121922 219.905136 
L 256.195542 180.605703 
L 256.394314 58.503278 
L 256.445848 68.099651 
L 256.710878 265.175646 
L 256.821307 222.616493 
L 257.093699 80.46831 
L 257.101061 80.437845 
L 257.152595 94.60392 
L 257.277748 189.135813 
L 257.358729 256.219031 
L 257.410263 214.939394 
L 257.572226 79.462975 
L 257.609036 93.62905 
L 257.903513 273.675291 
L 257.947685 261.184774 
L 258.131734 126.896478 
L 258.227439 165.160112 
L 258.389402 189.409995 
L 258.396764 188.617913 
L 258.669156 100.818714 
L 258.742776 133.354989 
L 259.051977 221.093259 
L 259.103511 208.602741 
L 259.346455 59.051642 
L 259.427437 91.070017 
L 259.663019 264.962394 
L 259.699829 258.625741 
L 259.795534 201.321683 
L 260.016393 86.439386 
L 260.04584 79.919946 
L 260.097374 92.19721 
L 260.222527 183.134271 
L 260.31087 256.554143 
L 260.355042 223.134392 
L 260.524367 79.645764 
L 260.561177 94.512526 
L 260.855655 273.766685 
L 260.892464 264.505423 
L 261.076513 126.866013 
L 261.186942 167.993327 
L 261.334181 189.440459 
L 261.245838 167.749609 
L 261.363629 184.261464 
L 261.621297 101.031967 
L 261.658107 116.172911 
L 261.915775 208.389488 
L 262.004119 220.758147 
L 262.040928 214.878465 
L 262.166081 122.479099 
L 262.298596 58.899318 
L 262.335406 63.072979 
L 262.409026 122.509564 
L 262.61516 265.084252 
L 262.644608 260.605945 
L 262.732951 215.061253 
L 262.983258 81.504109 
L 262.997981 79.676228 
L 263.042153 89.455389 
L 263.174668 184.17007 
L 263.263012 256.462749 
L 263.307183 222.40324 
L 263.476508 79.919946 
L 263.513318 94.878102 
L 263.807796 273.858079 
L 263.844606 264.718676 
L 264.036016 126.835548 
L 264.139083 168.20658 
L 264.293684 189.684177 
L 264.197979 167.658215 
L 264.31577 184.566111 
L 264.573438 100.605461 
L 264.610248 116.416629 
L 264.867916 208.663671 
L 264.95626 220.697218 
L 264.993069 214.634747 
L 265.125584 115.441759 
L 265.250738 58.960248 
L 265.294909 65.8148 
L 265.434786 184.596576 
L 265.567301 265.510758 
L 265.633559 248.907509 
L 265.75135 147.490599 
L 265.928037 82.783625 
L 265.950123 79.249723 
L 265.994294 89.729572 
L 266.126809 185.023081 
L 266.215153 256.188567 
L 266.259324 221.245582 
L 266.428649 79.737158 
L 266.458097 90.338865 
L 266.759937 274.223655 
L 266.811471 256.462749 
L 266.980795 126.805083 
L 267.069139 159.128106 
L 267.231102 189.349065 
L 267.238464 190.019288 
L 267.267911 184.444252 
L 267.52558 100.635926 
L 267.562389 116.75174 
L 267.827419 210.339228 
L 267.908401 220.209783 
L 267.945211 213.93406 
L 268.077726 114.923859 
L 268.202879 58.960248 
L 268.24705 66.302235 
L 268.394289 190.263006 
L 268.519442 266.211445 
L 268.5857 249.151226 
L 268.710853 140.026753 
L 268.880178 82.966413 
L 268.902264 79.584834 
L 268.946435 90.3084 
L 269.086312 193.522726 
L 269.167294 256.523678 
L 269.211466 221.550229 
L 269.38079 78.823217 
L 269.410238 89.424925 
L 269.712078 273.736221 
L 269.763612 256.736931 
L 269.932937 127.262054 
L 270.02128 158.792994 
L 270.183243 189.349065 
L 270.197967 190.232541 
L 270.227414 182.585907 
L 270.477721 100.666391 
L 270.521892 120.651219 
L 270.81637 218.717014 
L 270.860542 221.062794 
L 270.897352 214.634747 
L 271.029867 115.502688 
L 271.15502 58.107237 
L 271.199192 65.296901 
L 271.331707 179.99641 
L 271.471584 266.881668 
L 271.537841 250.126096 
L 271.662994 140.270471 
L 271.832319 83.301525 
L 271.854405 79.706693 
L 271.898577 90.217006 
L 272.038454 192.578321 
L 272.119435 256.828325 
L 272.163607 223.195321 
L 272.332932 78.0616 
L 272.369741 92.806504 
L 272.671581 274.040867 
L 272.708391 261.763603 
L 272.885078 127.749488 
L 272.980783 162.814332 
L 273.142746 190.232541 
L 273.150108 190.415329 
L 273.164832 188.160943 
L 273.429862 100.72732 
L 273.481395 123.78908 
L 273.797959 221.915805 
L 273.805321 221.976734 
L 273.820045 221.672088 
L 273.864217 208.876923 
L 274.107161 56.614468 
L 274.188142 89.39446 
L 274.423725 267.856538 
L 274.460535 261.276168 
L 274.55624 202.174694 
L 274.777098 86.012881 
L 274.806546 79.95041 
L 274.85808 93.781374 
L 274.997957 199.828914 
L 275.071576 256.828325 
L 275.115748 224.566232 
L 275.285073 76.995337 
L 275.321882 90.948159 
L 275.623722 274.010403 
L 275.660532 262.616614 
L 275.837219 128.236923 
L 275.932924 162.326897 
L 276.094887 190.29347 
L 276.102249 190.659046 
L 276.124335 186.637709 
L 276.382003 101.245219 
L 276.426175 119.249844 
L 276.728015 221.611158 
L 276.757462 223.103927 
L 276.794272 219.204449 
L 276.897339 151.359613 
L 277.059302 55.578669 
L 277.103474 62.524615 
L 277.206541 157.422084 
L 277.375866 268.740014 
L 277.4274 257.711801 
L 277.530467 179.752692 
L 277.721878 89.577248 
L 277.758687 80.102734 
L 277.810221 93.415798 
L 277.950098 198.610327 
L 278.023717 256.79786 
L 278.075251 216.401699 
L 278.237214 76.050932 
L 278.274024 88.815631 
L 278.575863 274.223655 
L 278.620035 259.295964 
L 278.796722 128.846217 
L 278.877703 157.452549 
L 279.039666 188.92256 
L 279.05439 190.902764 
L 279.098562 180.758026 
L 279.28261 127.749488 
L 279.334144 101.214755 
L 279.39304 125.67789 
L 279.702242 224.078797 
L 279.739051 221.519764 
L 279.827395 169.851672 
L 280.018805 54.360082 
L 280.062977 64.413425 
L 280.328007 269.196984 
L 280.438436 224.901343 
L 280.710828 79.980875 
L 280.732914 82.478978 
L 280.850705 148.160822 
L 280.975859 256.828325 
L 281.027392 217.498427 
L 281.189355 75.654891 
L 281.226165 87.901691 
L 281.528005 274.101797 
L 281.572176 259.66154 
L 281.748863 129.242258 
L 281.837206 161.382492 
L 282.006531 191.055087 
L 282.028617 187.978155 
L 282.286285 101.062431 
L 282.337819 122.143988 
L 282.654383 225.053667 
L 282.669107 224.657626 
L 282.705916 217.132851 
L 282.845793 110.780663 
L 282.963584 53.933576 
L 283.007756 60.879522 
L 283.110823 157.300225 
L 283.280148 269.56256 
L 283.331682 258.321094 
L 283.434749 179.47851 
L 283.62616 89.363995 
L 283.66297 80.194128 
L 283.714503 93.994626 
L 283.85438 199.067297 
L 283.928 256.523678 
L 283.979533 216.584487 
L 284.141496 75.411173 
L 284.178306 87.901691 
L 284.480146 274.345514 
L 284.524317 259.570146 
L 284.693642 129.485975 
L 284.781986 157.422084 
L 284.95131 190.75044 
L 284.958672 191.390199 
L 284.98812 185.876092 
L 285.238426 100.788249 
L 285.28996 121.991665 
L 285.606524 225.571566 
L 285.62861 224.444373 
L 285.687505 201.077966 
L 285.915726 53.994505 
L 285.981983 74.375374 
L 286.232289 269.806277 
L 286.298547 252.532805 
L 286.416338 146.820376 
L 286.585663 85.982416 
L 286.615111 80.072269 
L 286.666644 94.329738 
L 286.806521 200.072632 
L 286.880141 256.676002 
L 286.931674 215.792405 
L 287.093637 75.197921 
L 287.130447 88.114944 
L 287.432287 274.406444 
L 287.476459 259.235034 
L 287.645783 129.577369 
L 287.734127 157.543943 
L 287.903452 190.75044 
L 287.910814 191.298805 
L 287.940261 185.662839 
L 288.190568 100.635926 
L 288.242101 122.204917 
L 288.551303 225.784819 
L 288.580751 224.200656 
L 288.639646 200.407743 
L 288.867867 53.568 
L 288.934124 74.923739 
L 289.184431 270.049995 
L 289.250688 252.746058 
L 289.368479 145.815042 
L 289.537804 85.708234 
L 289.567252 80.194128 
L 289.618786 94.817173 
L 289.758663 200.834249 
L 289.832282 256.279961 
L 289.876454 224.048332 
L 290.045778 74.893274 
L 290.082588 88.510985 
L 290.384428 274.375979 
L 290.421238 262.860331 
L 290.597925 129.485975 
L 290.69363 162.235503 
L 290.862955 191.633916 
L 290.907126 181.184532 
L 291.061727 144.56599 
L 291.142709 100.422673 
L 291.201604 126.013002 
L 291.503444 226.272254 
L 291.56234 215.30497 
L 291.75375 70.232178 
L 291.820008 53.689859 
L 291.871542 66.393629 
L 292.136572 269.775813 
L 292.232277 233.126806 
L 292.519393 80.437845 
L 292.526755 81.077603 
L 292.607736 113.461555 
L 292.777061 255.88392 
L 292.843319 200.438208 
L 292.99792 74.984668 
L 293.034729 90.430259 
L 293.336569 274.619696 
L 293.366017 265.78494 
L 293.550066 129.150864 
L 293.653133 166.622416 
L 293.815096 191.298805 
L 293.82982 188.770236 
L 294.09485 100.300815 
L 294.146384 124.032798 
L 294.448223 225.693425 
L 294.492395 221.793946 
L 294.5881 164.550818 
L 294.772149 53.811717 
L 294.816321 63.956455 
L 295.029817 247.841245 
L 295.081351 269.714883 
L 295.147608 253.842787 
L 295.258038 156.173032 
L 295.434724 86.835427 
L 295.464172 80.529239 
L 295.515706 93.872768 
L 295.655583 198.579862 
L 295.729202 256.279961 
L 295.780736 216.828204 
L 295.942699 74.740951 
L 295.979509 87.414256 
L 296.281348 274.832949 
L 296.32552 260.362227 
L 296.494845 128.815752 
L 296.59055 161.443421 
L 296.759875 191.390199 
L 296.789323 185.084011 
L 297.039629 100.331279 
L 297.083801 118.366368 
L 297.393003 224.931808 
L 297.400365 225.145061 
L 297.429812 223.652292 
L 297.488708 200.285884 
L 297.716928 54.116364 
L 297.783186 75.593961 
L 298.033492 269.318842 
L 298.09975 252.471876 
L 298.217541 146.028295 
L 298.386866 86.165204 
L 298.416313 80.803421 
L 298.467847 95.274143 
L 298.607724 200.651461 
L 298.681344 255.640202 
L 298.725515 222.433705 
L 298.89484 75.228385 
L 298.93165 89.942824 
L 299.23349 274.832949 
L 299.270299 263.073584 
L 299.446986 128.419711 
L 299.542691 163.088514 
L 299.712016 191.298805 
L 299.873979 162.326897 
L 299.99177 100.148491 
L 300.058028 129.364116 
L 300.352506 224.688091 
L 300.418763 211.161774 
L 300.669069 54.573334 
L 300.750051 91.953493 
L 300.985633 268.800943 
L 301.015081 263.591483 
L 301.103424 213.446625 
L 301.339007 85.738699 
L 301.368455 81.321321 
L 301.412626 93.476727 
L 301.559865 202.966776 
L 301.626123 255.000444 
L 301.677656 218.260044 
L 301.839619 75.624426 
L 301.876429 87.261933 
L 302.178269 274.558767 
L 302.229802 256.79786 
L 302.399127 127.901812 
L 302.480109 156.203497 
L 302.642072 189.440459 
L 302.656795 191.298805 
L 302.693605 182.464048 
L 302.936549 99.965703 
L 302.988083 121.4433 
L 303.304647 224.29205 
L 303.312009 224.109262 
L 303.348819 219.113055 
L 303.459248 145.845507 
L 303.613849 55.030304 
L 303.65802 62.09811 
L 303.761088 157.543943 
L 303.930412 268.404902 
L 303.981946 257.955518 
L 304.077651 187.277467 
L 304.276424 90.948159 
L 304.313234 81.83922 
L 304.364767 94.878102 
L 304.504644 197.300346 
L 304.578264 254.360686 
L 304.629798 214.025454 
L 304.79176 76.660225 
L 304.82857 90.064683 
L 305.13041 274.589232 
L 305.16722 263.500089 
L 305.343906 127.719024 
L 305.439612 162.54015 
L 305.601575 191.085552 
L 305.608937 191.329269 
L 305.62366 188.983489 
L 305.888691 99.600127 
L 305.932862 118.671015 
L 306.22734 221.336976 
L 306.249426 223.469504 
L 306.30096 217.803074 
L 306.418751 136.462386 
L 306.56599 55.517739 
L 306.6028 60.849058 
L 306.683781 131.131068 
L 306.882554 267.856538 
L 306.912001 262.890796 
L 307.007707 207.902054 
L 307.228565 90.795835 
L 307.265375 82.448514 
L 307.316909 95.852972 
L 307.456786 198.945439 
L 307.530405 253.599069 
L 307.574577 219.570025 
L 307.743902 77.726489 
L 307.780711 92.897898 
L 308.082551 274.619696 
L 308.111999 266.120051 
L 308.296048 127.536236 
L 308.399115 167.414498 
L 308.553716 191.451128 
L 308.56844 190.263006 
L 308.840832 99.539198 
L 308.899727 127.383912 
L 309.201567 222.86021 
L 309.245739 218.960731 
L 309.348806 153.949111 
L 309.518131 55.974709 
L 309.562303 65.053183 
L 309.753713 227.064335 
L 309.827333 267.338638 
L 309.89359 252.685129 
L 309.996658 165.830335 
L 310.173344 93.385333 
L 310.217516 82.996878 
L 310.26905 96.888771 
L 310.401565 193.644585 
L 310.475184 253.263958 
L 310.526718 216.036122 
L 310.688681 78.244388 
L 310.72549 90.36933 
L 311.02733 274.893878 
L 311.078864 255.88392 
L 311.248189 127.262054 
L 311.32917 156.447214 
L 311.491133 189.714641 
L 311.505857 191.390199 
L 311.542667 181.702431 
L 311.785611 99.721986 
L 311.829783 117.361034 
L 312.109537 216.493093 
L 312.153708 222.220452 
L 312.205242 215.853334 
L 312.330395 125.28185 
L 312.46291 56.553538 
L 312.507082 63.225303 
L 312.610149 157.909519 
L 312.779474 266.973062 
L 312.831008 256.767396 
L 312.919351 195.594324 
L 313.125486 93.385333 
L 313.169657 83.179666 
L 313.221191 97.041094 
L 313.353706 194.345272 
L 313.427325 253.203028 
L 313.478859 214.39103 
L 313.640822 78.975541 
L 313.677632 91.74024 
L 313.979471 274.802484 
L 314.023643 259.813863 
L 314.20033 127.475306 
L 314.288673 161.382492 
L 314.450636 190.628582 
L 314.457998 190.994158 
L 314.480084 186.698638 
L 314.737752 99.904774 
L 314.774562 113.217838 
L 315.039592 211.710138 
L 315.113211 221.854876 
L 315.157383 215.640082 
L 315.282536 124.946738 
L 315.415051 56.82772 
L 315.459223 63.529949 
L 315.56229 158.275095 
L 315.731615 266.729345 
L 315.783149 256.767396 
L 315.871492 195.320142 
L 316.077627 93.17208 
L 316.121798 82.966413 
L 316.173332 96.675518 
L 316.298485 187.186073 
L 316.379467 253.355352 
L 316.431 214.147312 
L 316.592963 79.584834 
L 316.629773 92.379998 
L 316.931613 274.893878 
L 316.975784 259.66154 
L 317.152471 127.475306 
L 317.240814 161.56528 
L 317.410139 191.116017 
L 317.454311 178.655964 
L 317.660445 110.750199 
L 317.689893 99.843844 
L 317.741427 122.296311 
L 318.050629 221.672088 
L 318.065353 221.733017 
L 318.080077 221.336976 
L 318.124248 209.090176 
L 318.367192 57.040973 
L 318.448174 89.91236 
L 318.683756 266.790274 
L 318.720566 260.910592 
L 318.808909 209.882258 
L 319.03713 90.247471 
L 319.07394 82.966413 
L 319.125473 96.49273 
L 319.250626 187.582114 
L 319.331608 253.599069 
L 319.383141 213.598948 
L 319.545104 79.584834 
L 319.581914 92.471393 
L 319.883754 274.802484 
L 319.927925 259.174105 
L 320.104612 127.536236 
L 320.185594 157.391619 
L 320.347557 189.714641 
L 320.36228 190.963693 
L 320.391728 183.499847 
L 320.642034 100.057097 
L 320.678844 113.918525 
L 320.943874 212.167108 
L 321.017494 221.367441 
L 321.061665 215.122182 
L 321.186819 124.246051 
L 321.319334 57.223761 
L 321.363505 64.108778 
L 321.473935 164.88593 
L 321.635897 266.820739 
L 321.694793 254.482545 
L 321.790498 179.569904 
L 321.974547 96.03576 
L 322.026081 82.29619 
L 322.077614 95.913901 
L 322.202767 187.277467 
L 322.283749 254.056039 
L 322.335282 215.091717 
L 322.497245 79.432511 
L 322.534055 91.526988 
L 322.835895 274.832949 
L 322.887429 254.90905 
L 323.056753 127.993206 
L 323.137735 156.87372 
L 323.299698 189.257671 
L 323.314422 190.780905 
L 323.351231 181.123603 
L 323.594176 100.605461 
L 323.645709 122.326776 
L 323.954911 221.763482 
L 323.962273 221.824411 
L 323.984359 221.397906 
L 324.028531 209.242499 
L 324.271475 57.040973 
L 324.352456 88.663308 
L 324.588039 267.033992 
L 324.63221 259.935722 
L 324.720554 204.49001 
L 324.941412 89.668642 
L 324.978222 81.595503 
L 325.029755 95.121819 
L 325.154909 186.241668 
L 325.23589 254.695798 
L 325.287424 217.315639 
L 325.449386 78.884147 
L 325.486196 90.186542 
L 325.788036 274.924343 
L 325.83957 255.944849 
L 326.008895 128.236923 
L 326.089876 156.264426 
L 326.251839 189.013954 
L 326.266563 190.81137 
L 326.303372 181.915684 
L 326.553679 100.72732 
L 326.59785 121.565159 
L 326.907052 222.525099 
L 326.914414 222.555563 
L 326.929138 222.281381 
L 326.965948 216.21891 
L 327.091101 126.287184 
L 327.230978 56.644932 
L 327.267788 62.859726 
L 327.363493 149.805915 
L 327.547542 267.521427 
L 327.591713 258.534347 
L 327.680057 197.665922 
L 327.886191 92.562787 
L 327.930363 80.864351 
L 327.981897 94.542991 
L 328.10705 185.480051 
L 328.195393 254.90905 
L 328.239565 219.234913 
L 328.40889 78.213924 
L 328.438337 88.602379 
L 328.740177 274.924343 
L 328.799073 251.618865 
L 328.961036 128.572035 
L 329.034655 151.268219 
L 329.20398 188.556984 
L 329.218704 190.689511 
L 329.262876 180.331521 
L 329.50582 100.72732 
L 329.572077 130.795956 
L 329.866555 223.408574 
L 329.925451 213.964524 
L 330.102138 80.92528 
L 330.183119 56.248892 
L 330.227291 65.205507 
L 330.411339 221.154188 
L 330.499683 268.343973 
L 330.558578 254.269292 
L 330.661646 166.409164 
L 330.838332 92.19721 
L 330.882504 80.285522 
L 330.934038 94.116485 
L 331.059191 185.053546 
L 331.147534 255.457414 
L 331.191706 221.062794 
L 331.361031 77.482771 
L 331.39784 91.770705 
L 331.69968 274.77202 
L 331.73649 262.037785 
L 331.913177 129.05947 
L 332.00152 159.828793 
L 332.163483 189.531853 
L 332.178207 190.506723 
L 332.207655 183.25613 
L 332.457961 100.696855 
L 332.502133 120.346572 
L 332.811334 224.200656 
L 332.818696 224.231121 
L 332.826058 224.078797 
L 332.862868 219.783278 
L 332.965935 153.979575 
L 333.13526 55.45681 
L 333.179432 64.38296 
L 333.341395 204.337686 
L 333.451824 268.892337 
L 333.518082 251.618865 
L 333.643235 136.127275 
L 333.805197 86.13474 
L 333.834645 80.194128 
L 333.886179 94.116485 
L 334.018694 192.24321 
L 334.099675 255.762061 
L 334.143847 222.829745 
L 334.313172 76.934407 
L 334.349982 90.613047 
L 334.651822 274.985272 
L 334.688631 262.708008 
L 334.865318 129.181328 
L 334.953661 159.524147 
L 335.115624 189.37953 
L 335.130348 190.567652 
L 335.159796 183.652171 
L 335.410102 100.574997 
L 335.454274 120.041925 
L 335.763476 224.779485 
L 335.770838 224.809949 
L 335.7782 224.627161 
L 335.815009 219.905136 
L 335.925439 147.673387 
L 336.087401 55.182628 
L 336.124211 61.184169 
L 336.212554 140.575117 
L 336.403965 269.227448 
L 336.440775 262.159643 
L 336.53648 198.275216 
L 336.742615 91.587917 
L 336.786786 80.072269 
L 336.83832 94.451597 
L 336.970835 193.644585 
L 337.051817 255.975314 
L 337.095988 222.098593 
L 337.265313 76.62976 
L 337.302123 90.887229 
L 337.603963 275.015737 
L 337.640772 262.251037 
L 337.817459 129.394581 
L 337.905803 160.102975 
L 338.067765 189.531853 
L 338.082489 190.567652 
L 338.111937 183.347524 
L 338.362243 100.757785 
L 338.406415 120.224713 
L 338.715617 225.236455 
L 338.722979 225.20599 
L 338.76715 219.722348 
L 338.87758 146.942235 
L 339.032181 54.786587 
L 339.076352 61.397422 
L 339.164696 141.549987 
L 339.356106 269.532095 
L 339.392916 262.068249 
L 339.488621 197.178487 
L 339.694756 91.161411 
L 339.738928 80.194128 
L 339.790461 95.030425 
L 339.922976 194.58899 
L 340.003958 255.792526 
L 340.048129 221.093259 
L 340.217454 76.355578 
L 340.254264 91.130947 
L 340.556104 275.046202 
L 340.592914 261.976855 
L 340.762238 129.485975 
L 340.857944 160.620875 
L 341.019907 189.8365 
L 341.03463 190.81137 
L 341.064078 183.438918 
L 341.314384 100.788249 
L 341.358556 120.712148 
L 341.667758 225.632496 
L 341.67512 225.541102 
L 341.719292 219.356772 
L 341.837083 139.630713 
L 341.984322 54.603799 
L 342.028493 61.488816 
L 342.124199 150.171491 
L 342.300885 269.227448 
L 342.345057 261.458956 
L 342.440762 195.990365 
L 342.646897 90.795835 
L 342.691069 80.40738 
L 342.742602 95.548325 
L 342.875117 195.50293 
L 342.948737 255.609738 
L 343.000271 220.392571 
L 343.169595 76.294649 
L 343.206405 91.313735 
L 343.508245 275.198525 
L 343.537693 265.78494 
L 343.71438 129.120399 
L 343.817447 165.129647 
L 343.97941 190.841835 
L 343.986772 190.75044 
L 344.163458 152.669594 
L 344.259164 100.818714 
L 344.318059 125.129526 
L 344.619899 225.967607 
L 344.656709 222.677422 
L 344.73769 179.813621 
L 344.936463 54.48194 
L 344.987997 65.449224 
L 345.253027 269.10559 
L 345.363456 222.829745 
L 345.628486 81.016674 
L 345.635848 80.437845 
L 345.665296 84.946617 
L 345.797811 167.627751 
L 345.900878 255.731597 
L 345.952412 216.980527 
L 346.114375 76.264184 
L 346.151184 88.084479 
L 346.453024 275.472707 
L 346.497196 260.11851 
L 346.666521 128.846217 
L 346.754864 158.671136 
L 346.916827 189.37953 
L 346.931551 190.933229 
L 346.968361 181.702431 
L 347.211305 100.818714 
L 347.262838 123.027464 
L 347.57204 225.815284 
L 347.594126 224.413909 
L 347.653022 203.210493 
L 347.888604 54.786587 
L 347.954862 77.056266 
L 348.205168 268.435367 
L 348.264063 254.086504 
L 348.367131 166.744275 
L 348.551179 88.754702 
L 348.587989 80.529239 
L 348.639523 94.482061 
L 348.772038 192.943897 
L 348.853019 255.396485 
L 348.897191 222.86021 
L 349.066516 76.507902 
L 349.103325 90.003754 
L 349.405165 275.503172 
L 349.441975 263.104048 
L 349.618662 128.815752 
L 349.707005 160.468552 
L 349.868968 189.745106 
L 349.883692 190.719976 
L 349.91314 183.073342 
L 350.163446 101.031967 
L 350.200256 116.995457 
L 350.487372 220.544895 
L 350.516819 225.145061 
L 350.575715 216.127516 
L 350.722954 106.881185 
L 350.840745 55.670063 
L 350.884917 64.83993 
L 351.061604 216.919598 
L 351.149947 267.521427 
L 351.216205 252.532805 
L 351.319272 164.581283 
L 351.495959 91.28327 
L 351.54013 80.894815 
L 351.591664 95.396002 
L 351.724179 195.381071 
L 351.797798 255.091838 
L 351.849332 219.387237 
L 352.018657 77.086731 
L 352.055467 92.136281 
L 352.349945 275.320384 
L 352.386754 265.632617 
L 352.563441 128.693893 
L 352.666508 165.982658 
L 352.828471 190.567652 
L 352.835833 190.263006 
L 353.034606 141.30627 
L 353.108225 101.336614 
L 353.167121 126.744154 
L 353.468961 224.535767 
L 353.50577 221.580694 
L 353.586752 178.991075 
L 353.785524 56.066104 
L 353.837058 66.454558 
L 354.102088 267.064456 
L 354.212517 222.707887 
L 354.477548 81.473644 
L 354.484909 80.864351 
L 354.514357 85.098941 
L 354.646872 167.475427 
L 354.74994 255.091838 
L 354.801473 215.792405 
L 354.963436 77.391377 
L 355.000246 89.272601 
L 355.302086 275.533637 
L 355.346257 259.722469 
L 355.515582 128.511105 
L 355.603926 159.585076 
L 355.765888 189.227207 
L 355.780612 190.476258 
L 355.81006 183.073342 
L 356.060366 101.306149 
L 356.097176 116.29477 
L 356.369568 214.817535 
L 356.421102 223.83508 
L 356.472635 216.493093 
L 356.612512 115.350365 
L 356.737666 56.766791 
L 356.781837 64.657142 
L 356.899628 172.867675 
L 357.054229 266.394233 
L 357.113125 252.867917 
L 357.20883 175.731355 
L 357.400241 89.881895 
L 357.437051 81.108068 
L 357.488584 94.360202 
L 357.621099 192.425998 
L 357.702081 254.787192 
L 357.746252 221.733017 
L 357.915577 77.848348 
L 357.952387 91.435594 
L 358.254227 275.22899 
L 358.291037 262.311967 
L 358.467723 128.450176 
L 358.556067 161.230168 
L 358.71803 189.592783 
L 358.725392 190.29347 
L 358.754839 184.474717 
L 359.012507 101.18429 
L 359.041955 113.217838 
L 359.306985 211.58828 
L 359.373243 222.890675 
L 359.424777 214.969859 
L 359.572016 107.033508 
L 359.689807 57.497943 
L 359.733978 66.180376 
L 359.910665 215.122182 
L 359.999009 265.845869 
L 360.065266 251.557936 
L 360.160971 173.568363 
L 360.34502 92.562787 
L 360.389192 81.473644 
L 360.440725 95.51786 
L 360.57324 194.649919 
L 360.64686 254.238827 
L 360.698394 217.71168 
L 360.860356 78.51857 
L 360.897166 89.059349 
L 361.199006 275.137596 
L 361.25054 255.640202 
L 361.412503 128.236923 
L 361.493484 153.55307 
L 361.655447 187.521185 
L 361.677533 190.75044 
L 361.721704 178.016206 
L 361.957287 101.031967 
L 362.016182 127.536236 
L 362.318022 221.915805 
L 362.340108 221.336976 
L 362.38428 210.400157 
L 362.634586 57.80259 
L 362.722929 96.9497 
L 362.95115 265.480293 
L 362.980597 261.154309 
L 363.068941 216.340769 
L 363.319247 84.24593 
L 363.341333 82.113402 
L 363.378143 90.948159 
L 363.51802 189.409995 
L 363.599001 254.147433 
L 363.650535 213.87313 
L 363.812498 78.609964 
L 363.849307 91.070017 
L 364.151147 275.015737 
L 364.195319 258.442953 
L 364.364644 127.840883 
L 364.452987 159.646005 
L 364.61495 190.141147 
L 364.629674 191.024623 
L 364.659122 182.585907 
L 364.909428 100.788249 
L 364.938876 111.420422 
L 365.196544 208.937853 
L 365.270163 221.154188 
L 365.321697 215.244041 
L 365.44685 128.0846 
L 365.586727 58.442348 
L 365.623537 63.042515 
L 365.697156 123.545363 
L 365.903291 265.206111 
L 365.925377 262.098714 
L 366.021082 214.695677 
L 366.264026 86.13474 
L 366.286112 82.265726 
L 366.337646 94.60392 
L 366.470161 190.780905 
L 366.551142 253.812322 
L 366.595314 221.154188 
L 366.764639 78.5795 
L 366.801448 92.105816 
L 367.103288 274.985272 
L 367.140098 262.190108 
L 367.316785 127.932277 
L 367.405128 160.163905 
L 367.567091 190.3544 
L 367.574453 191.116017 
L 367.603901 185.297263 
L 367.861569 100.940573 
L 367.891017 111.99925 
L 368.156047 210.857127 
L 368.222304 220.697218 
L 368.273838 214.969859 
L 368.398991 127.658094 
L 368.538868 58.472813 
L 368.575678 63.072979 
L 368.649297 124.215586 
L 368.855432 265.114717 
L 368.877518 262.037785 
L 368.965861 220.819077 
L 369.223529 84.124071 
L 369.238253 82.326655 
L 369.282425 92.014422 
L 369.422302 191.329269 
L 369.503283 253.690463 
L 369.547455 220.148854 
L 369.71678 78.366247 
L 369.75359 92.501857 
L 370.048068 275.076666 
L 370.092239 261.702673 
L 370.268926 127.871347 
L 370.357269 160.438087 
L 370.519232 190.689511 
L 370.526594 191.359734 
L 370.556042 185.114475 
L 370.81371 100.879643 
L 370.843158 112.273433 
L 371.108188 211.100845 
L 371.174446 220.758147 
L 371.225979 214.817535 
L 371.351132 127.079266 
L 371.491009 58.350954 
L 371.527819 63.103444 
L 371.608801 132.898019 
L 371.807573 265.297505 
L 371.837021 260.423157 
L 371.925364 213.446625 
L 372.168309 86.012881 
L 372.190394 82.478978 
L 372.241928 95.335072 
L 372.374443 191.938563 
L 372.455425 253.568604 
L 372.499596 219.113055 
L 372.668921 78.152994 
L 372.698369 88.054014 
L 373.000209 275.107131 
L 373.059104 251.5884 
L 373.221067 127.962741 
L 373.294687 151.359613 
L 373.456649 187.703973 
L 373.478735 191.359734 
L 373.522907 178.991075 
L 373.765851 100.910108 
L 373.810023 121.930735 
L 374.089777 216.889133 
L 374.126587 220.666753 
L 374.17812 214.848 
L 374.295912 133.202666 
L 374.443151 58.137702 
L 374.47996 63.072979 
L 374.560942 133.354989 
L 374.759714 265.236576 
L 374.789162 260.423157 
L 374.877505 213.111513 
L 375.12045 85.830093 
L 375.142536 82.35712 
L 375.186707 92.593251 
L 375.326584 191.999492 
L 375.407566 253.629534 
L 375.451737 219.356772 
L 375.621062 77.848348 
L 375.657872 92.319069 
L 375.95235 275.107131 
L 375.996522 261.611279 
L 376.173208 128.389247 
L 376.261552 160.712269 
L 376.423515 190.29347 
L 376.430876 190.933229 
L 376.460324 184.840293 
L 376.717992 101.214755 
L 376.74744 112.364827 
L 377.005108 209.242499 
L 377.078728 221.001865 
L 377.130262 215.457294 
L 377.248053 134.451717 
L 377.395292 57.711196 
L 377.432101 62.372292 
L 377.505721 123.758616 
L 377.711855 265.632617 
L 377.741303 261.276168 
L 377.829647 214.269171 
L 378.072591 86.104275 
L 378.094677 82.29619 
L 378.14621 94.908567 
L 378.278725 190.598117 
L 378.359707 253.99511 
L 378.403879 221.42837 
L 378.573203 77.299983 
L 378.610013 90.978623 
L 378.911853 274.985272 
L 378.948663 262.403361 
L 379.125349 128.815752 
L 379.213693 160.224834 
L 379.375656 189.8365 
L 379.383018 190.598117 
L 379.412465 185.236334 
L 379.670134 101.488937 
L 379.699581 111.694604 
L 379.964612 211.100845 
L 380.030869 221.519764 
L 380.082403 216.036122 
L 380.200194 135.396122 
L 380.347433 57.040973 
L 380.384243 61.519281 
L 380.457862 122.448635 
L 380.663997 265.906799 
L 380.693444 261.976855 
L 380.781788 215.457294 
L 381.024732 85.921487 
L 381.046818 81.869685 
L 381.098352 94.268808 
L 381.230867 189.501389 
L 381.311848 254.299757 
L 381.363382 213.93406 
L 381.525345 76.782084 
L 381.562154 89.516319 
L 381.863994 275.046202 
L 381.908166 258.899923 
L 382.077491 129.364116 
L 382.165834 159.615541 
L 382.327797 189.318601 
L 382.342521 190.476258 
L 382.371969 183.103807 
L 382.622275 101.549866 
L 382.659084 115.685476 
L 382.924115 212.715473 
L 382.98301 222.098593 
L 383.034544 216.554022 
L 383.152335 136.492851 
L 383.299574 56.675397 
L 383.343746 63.408091 
L 383.446813 158.792994 
L 383.616138 266.485628 
L 383.667671 256.828325 
L 383.756015 194.863172 
L 383.962149 91.313735 
L 384.006321 81.138533 
L 384.057855 96.401336 
L 384.183008 188.587448 
L 384.263989 254.634868 
L 384.315523 216.097052 
L 384.477486 76.477437 
L 384.514295 88.267267 
L 384.816135 274.954808 
L 384.867669 255.030909 
L 385.029632 129.851551 
L 385.110613 154.649798 
L 385.272576 186.942356 
L 385.294662 190.049753 
L 385.338834 178.320852 
L 385.574416 101.763119 
L 385.640673 130.643633 
L 385.935151 222.646957 
L 385.979323 218.960731 
L 386.067666 167.444963 
L 386.259077 56.035639 
L 386.303249 65.692941 
L 386.524107 250.887713 
L 386.568279 266.942598 
L 386.634536 252.380482 
L 386.737604 164.36803 
L 386.91429 91.039553 
L 386.958462 80.559704 
L 387.009996 95.883436 
L 387.142511 195.563859 
L 387.21613 254.939515 
L 387.267664 218.381903 
L 387.436989 76.081396 
L 387.473798 91.892564 
L 387.768276 275.22899 
L 387.805086 265.236576 
L 387.981773 130.217127 
L 388.08484 166.531022 
L 388.246803 189.684177 
L 388.268889 186.485386 
L 388.533919 101.976372 
L 388.570729 119.09752 
L 388.850483 217.894468 
L 388.887293 223.347645 
L 388.946188 214.695677 
L 389.086065 111.60321 
L 389.211218 55.578669 
L 389.248028 61.884857 
L 389.343733 150.597996 
L 389.52042 267.460497 
L 389.564592 260.331763 
L 389.652935 204.246292 
L 389.873794 87.201003 
L 389.910603 79.95041 
L 389.962137 95.426466 
L 390.094652 195.9599 
L 390.168271 255.335556 
L 390.219805 218.808408 
L 390.38913 75.77675 
L 390.42594 91.709776 
L 390.720418 275.472707 
L 390.757227 265.32797 
L 390.933914 130.613168 
L 391.036981 166.896598 
L 391.198944 189.37953 
L 391.22103 186.089345 
L 391.478698 102.09823 
L 391.52287 119.55449 
L 391.809986 220.087924 
L 391.839434 223.591362 
L 391.890967 217.041457 
L 392.01612 131.039674 
L 392.163359 55.487275 
L 392.200169 62.006716 
L 392.295874 151.14636 
L 392.472561 267.887003 
L 392.516733 260.453621 
L 392.612438 195.807577 
L 392.818573 89.455389 
L 392.855382 79.554369 
L 392.914278 95.426466 
L 393.046793 197.148023 
L 393.120413 255.701132 
L 393.171946 218.290509 
L 393.333909 75.563497 
L 393.378081 92.044887 
L 393.672559 275.594566 
L 393.709368 265.206111 
L 393.886055 130.94828 
L 393.981761 163.545484 
L 394.143723 188.526519 
L 394.151085 189.074883 
L 394.180533 183.225665 
L 394.430839 102.433342 
L 394.467649 115.77687 
L 394.740041 214.756606 
L 394.791575 223.804615 
L 394.843108 216.858669 
L 394.968262 130.704562 
L 395.115501 55.334951 
L 395.15231 62.09811 
L 395.248016 151.66426 
L 395.424702 268.222114 
L 395.468874 260.484086 
L 395.564579 194.954566 
L 395.770714 88.785167 
L 395.807524 79.280187 
L 395.859057 92.501857 
L 395.991572 190.3544 
L 396.072554 255.914385 
L 396.124087 217.803074 
L 396.28605 75.472103 
L 396.330222 92.349534 
L 396.6247 275.868748 
L 396.66151 265.053788 
L 396.838196 131.131068 
L 396.933902 163.91106 
L 397.095865 188.343731 
L 397.103227 188.861631 
L 397.125312 185.358193 
L 397.382981 102.677059 
L 397.427152 120.894936 
L 397.728992 223.560898 
L 397.743716 224.231121 
L 397.780526 220.880006 
L 397.868869 172.776281 
L 398.06028 54.99984 
L 398.111813 65.571083 
L 398.376844 268.465832 
L 398.487273 222.281381 
" clip-path="url(#pf170751728)" style="fill: none; stroke: #1f77b4; stroke-width: 1.5; stroke-linecap: square"/>
   </g>
   <g id="patch_3">
    <path d="M 57.6 307.584 
L 57.6 41.472 
" style="fill: none; stroke: #000000; stroke-width: 0.8; stroke-linejoin: miter; stroke-linecap: square"/>
   </g>
   <g id="patch_4">
    <path d="M 414.72 307.584 
L 414.72 41.472 
" style="fill: none; stroke: #000000; stroke-width: 0.8; stroke-linejoin: miter; stroke-linecap: square"/>
   </g>
   <g id="patch_5">
    <path d="M 57.6 307.584 
L 414.72 307.584 
" style="fill: none; stroke: #000000; stroke-width: 0.8; stroke-linejoin: miter; stroke-linecap: square"/>
   </g>
   <g id="patch_6">
    <path d="M 57.6 41.472 
L 414.72 41.472 
" style="fill: none; stroke: #000000; stroke-width: 0.8; stroke-linejoin: miter; stroke-linecap: square"/>
   </g>
   <g id="text_17">
    <text style="font: 12px 'IPAexGothic'; text-anchor: middle" x="236.16" y="35.472" transform="rotate(-0 236.16 35.472)">"070_A2.wav"の波形グラフ</text>
   </g>
  </g>
 </g>
 <defs>
  <clipPath id="pf170751728">
   <rect x="57.6" y="41.472" width="357.12" height="266.112"/>
  </clipPath>
 </defs>
</svg>
