<?xml version="1.0" encoding="utf-8" standalone="no"?>
<!DOCTYPE svg PUBLIC "-//W3C//DTD SVG 1.1//EN"
  "http://www.w3.org/Graphics/SVG/1.1/DTD/svg11.dtd">
<svg xmlns:xlink="http://www.w3.org/1999/xlink" width="460.8pt" height="345.6pt" viewBox="0 0 460.8 345.6" xmlns="http://www.w3.org/2000/svg" version="1.1">
 <metadata>
  <rdf:RDF xmlns:dc="http://purl.org/dc/elements/1.1/" xmlns:cc="http://creativecommons.org/ns#" xmlns:rdf="http://www.w3.org/1999/02/22-rdf-syntax-ns#">
   <cc:Work>
    <dc:type rdf:resource="http://purl.org/dc/dcmitype/StillImage"/>
    <dc:date>2022-11-28T11:29:52.964052</dc:date>
    <dc:format>image/svg+xml</dc:format>
    <dc:creator>
     <cc:Agent>
      <dc:title>Matplotlib v3.6.2, https://matplotlib.org/</dc:title>
     </cc:Agent>
    </dc:creator>
   </cc:Work>
  </rdf:RDF>
 </metadata>
 <defs>
  <style type="text/css">*{stroke-linejoin: round; stroke-linecap: butt}</style>
 </defs>
 <g id="figure_1">
  <g id="patch_1">
   <path d="M 0 345.6 
L 460.8 345.6 
L 460.8 0 
L 0 0 
z
" style="fill: #ffffff"/>
  </g>
  <g id="axes_1">
   <g id="patch_2">
    <path d="M 57.6 307.584 
L 414.72 307.584 
L 414.72 41.472 
L 57.6 41.472 
z
" style="fill: #ffffff"/>
   </g>
   <g id="matplotlib.axis_1">
    <g id="xtick_1">
     <g id="line2d_1">
      <defs>
       <path id="m0d76b9de30" d="M 0 0 
L 0 3.5 
" style="stroke: #000000; stroke-width: 0.8"/>
      </defs>
      <g>
       <use xlink:href="#m0d76b9de30" x="73.832727" y="307.584" style="stroke: #000000; stroke-width: 0.8"/>
      </g>
     </g>
     <g id="text_1">
      <text style="font: 10px 'IPAexGothic'; text-anchor: middle" x="73.832727" y="322.074625" transform="rotate(-0 73.832727 322.074625)">0.0</text>
     </g>
    </g>
    <g id="xtick_2">
     <g id="line2d_2">
      <g>
       <use xlink:href="#m0d76b9de30" x="138.765109" y="307.584" style="stroke: #000000; stroke-width: 0.8"/>
      </g>
     </g>
     <g id="text_2">
      <text style="font: 10px 'IPAexGothic'; text-anchor: middle" x="138.765109" y="322.074625" transform="rotate(-0 138.765109 322.074625)">0.2</text>
     </g>
    </g>
    <g id="xtick_3">
     <g id="line2d_3">
      <g>
       <use xlink:href="#m0d76b9de30" x="203.69749" y="307.584" style="stroke: #000000; stroke-width: 0.8"/>
      </g>
     </g>
     <g id="text_3">
      <text style="font: 10px 'IPAexGothic'; text-anchor: middle" x="203.69749" y="322.074625" transform="rotate(-0 203.69749 322.074625)">0.4</text>
     </g>
    </g>
    <g id="xtick_4">
     <g id="line2d_4">
      <g>
       <use xlink:href="#m0d76b9de30" x="268.629872" y="307.584" style="stroke: #000000; stroke-width: 0.8"/>
      </g>
     </g>
     <g id="text_4">
      <text style="font: 10px 'IPAexGothic'; text-anchor: middle" x="268.629872" y="322.074625" transform="rotate(-0 268.629872 322.074625)">0.6</text>
     </g>
    </g>
    <g id="xtick_5">
     <g id="line2d_5">
      <g>
       <use xlink:href="#m0d76b9de30" x="333.562253" y="307.584" style="stroke: #000000; stroke-width: 0.8"/>
      </g>
     </g>
     <g id="text_5">
      <text style="font: 10px 'IPAexGothic'; text-anchor: middle" x="333.562253" y="322.074625" transform="rotate(-0 333.562253 322.074625)">0.8</text>
     </g>
    </g>
    <g id="xtick_6">
     <g id="line2d_6">
      <g>
       <use xlink:href="#m0d76b9de30" x="398.494635" y="307.584" style="stroke: #000000; stroke-width: 0.8"/>
      </g>
     </g>
     <g id="text_6">
      <text style="font: 10px 'IPAexGothic'; text-anchor: middle" x="398.494635" y="322.074625" transform="rotate(-0 398.494635 322.074625)">1.0</text>
     </g>
    </g>
    <g id="text_7">
     <text style="font: 10px 'IPAexGothic'; text-anchor: middle" x="236.16" y="335.924625" transform="rotate(-0 236.16 335.924625)">時間[s]</text>
    </g>
   </g>
   <g id="matplotlib.axis_2">
    <g id="ytick_1">
     <g id="line2d_7">
      <defs>
       <path id="mfd564bd496" d="M 0 0 
L -3.5 0 
" style="stroke: #000000; stroke-width: 0.8"/>
      </defs>
      <g>
       <use xlink:href="#mfd564bd496" x="57.6" y="261.603594" style="stroke: #000000; stroke-width: 0.8"/>
      </g>
     </g>
     <g id="text_8">
      <text style="font: 10px 'IPAexGothic'; text-anchor: end" x="50.6" y="265.348906" transform="rotate(-0 50.6 265.348906)">−4000</text>
     </g>
    </g>
    <g id="ytick_2">
     <g id="line2d_8">
      <g>
       <use xlink:href="#mfd564bd496" x="57.6" y="214.312029" style="stroke: #000000; stroke-width: 0.8"/>
      </g>
     </g>
     <g id="text_9">
      <text style="font: 10px 'IPAexGothic'; text-anchor: end" x="50.6" y="218.057341" transform="rotate(-0 50.6 218.057341)">−2000</text>
     </g>
    </g>
    <g id="ytick_3">
     <g id="line2d_9">
      <g>
       <use xlink:href="#mfd564bd496" x="57.6" y="167.020464" style="stroke: #000000; stroke-width: 0.8"/>
      </g>
     </g>
     <g id="text_10">
      <text style="font: 10px 'IPAexGothic'; text-anchor: end" x="50.6" y="170.765777" transform="rotate(-0 50.6 170.765777)">0</text>
     </g>
    </g>
    <g id="ytick_4">
     <g id="line2d_10">
      <g>
       <use xlink:href="#mfd564bd496" x="57.6" y="119.728899" style="stroke: #000000; stroke-width: 0.8"/>
      </g>
     </g>
     <g id="text_11">
      <text style="font: 10px 'IPAexGothic'; text-anchor: end" x="50.6" y="123.474212" transform="rotate(-0 50.6 123.474212)">2000</text>
     </g>
    </g>
    <g id="ytick_5">
     <g id="line2d_11">
      <g>
       <use xlink:href="#mfd564bd496" x="57.6" y="72.437334" style="stroke: #000000; stroke-width: 0.8"/>
      </g>
     </g>
     <g id="text_12">
      <text style="font: 10px 'IPAexGothic'; text-anchor: end" x="50.6" y="76.182647" transform="rotate(-0 50.6 76.182647)">4000</text>
     </g>
    </g>
    <g id="text_13">
     <text style="font: 10px 'IPAexGothic'; text-anchor: middle" x="12.723438" y="174.528" transform="rotate(-90 12.723438 174.528)">振幅</text>
    </g>
   </g>
   <g id="line2d_12">
    <path d="M 73.832727 167.067756 
L 73.876899 167.540671 
L 74.053586 170.732852 
L 74.083034 170.472748 
L 74.097757 170.401811 
L 74.25972 167.989941 
L 74.362788 169.408688 
L 74.370149 168.652023 
L 74.443769 166.358382 
L 74.495303 167.185985 
L 74.502665 166.996818 
L 74.56156 168.297336 
L 74.568922 168.297336 
L 74.591008 168.912127 
L 74.642542 167.611609 
L 74.664627 167.729838 
L 74.789781 166.003695 
L 74.922296 167.540671 
L 74.819228 164.939635 
L 74.929658 167.304213 
L 74.988553 166.642132 
L 75.025363 167.871712 
L 75.032725 168.179107 
L 75.076896 165.767238 
L 75.09162 166.42932 
L 75.187326 163.000681 
L 75.275669 164.679532 
L 75.496528 170.851081 
L 75.511251 169.976187 
L 75.842539 156.214342 
L 75.849901 156.61632 
L 76.173827 176.12409 
L 76.519838 156.072467 
L 76.556648 157.727672 
L 76.858488 174.89451 
L 76.895298 174.327011 
L 76.946831 171.465871 
L 77.020451 172.222536 
L 77.057261 173.759512 
L 77.116156 171.182122 
L 77.211861 164.821406 
L 77.256033 166.902235 
L 77.329653 169.716083 
L 77.373824 168.391919 
L 77.476892 166.027341 
L 77.491615 167.327859 
L 77.528425 167.04411 
L 77.513701 167.375151 
L 77.557873 167.304213 
L 77.579959 168.084524 
L 77.638854 166.263799 
L 77.668302 165.128801 
L 77.719836 167.256922 
L 77.808179 171.394934 
L 77.874437 170.330874 
L 77.92597 168.533794 
L 77.99959 168.675669 
L 78.006952 168.675669 
L 78.014314 168.959418 
L 78.051123 166.642132 
L 78.132105 160.896206 
L 78.191 162.95339 
L 78.375049 173.688575 
L 78.478116 182.248348 
L 78.514926 179.387208 
L 78.75787 147.583631 
L 78.765232 147.938318 
L 78.779956 147.891026 
L 78.846214 153.991638 
L 79.13333 187.00115 
L 79.177502 184.754801 
L 79.302655 166.642132 
L 79.479341 146.6378 
L 79.545599 151.248727 
L 79.810629 176.40784 
L 79.898972 174.468886 
L 79.906334 174.492531 
L 80.00204 172.458994 
L 80.038849 172.624515 
L 80.178726 161.038081 
L 80.26707 166.59484 
L 80.377499 170.401811 
L 80.436395 168.841189 
L 80.598357 159.359231 
L 80.613081 159.903084 
L 80.686701 166.240153 
L 80.811854 177.306379 
L 80.863388 175.532946 
L 80.885473 175.556592 
L 81.010627 162.882452 
L 81.143142 150.492062 
L 81.165227 151.579768 
L 81.238847 159.524751 
L 81.43762 210.954328 
L 81.489153 202.276326 
L 81.695288 120.320044 
L 81.783631 133.443453 
L 82.092833 208.14048 
L 82.151729 201.306849 
L 82.26952 163.142556 
L 82.409397 128.170444 
L 82.46093 132.757725 
L 82.76277 182.697618 
L 82.843752 179.127105 
L 82.924733 180.735018 
L 82.946819 179.032522 
L 82.961543 179.481791 
L 83.130868 157.704026 
L 83.167677 159.288293 
L 83.36645 179.339917 
L 83.197125 158.791732 
L 83.373812 178.204919 
L 83.565223 146.732383 
L 83.63148 154.251742 
L 83.822891 189.933227 
L 83.881786 182.62668 
L 84.132093 133.34887 
L 84.16154 134.436576 
L 84.205712 141.483019 
L 84.308779 197.71269 
L 84.411847 243.372696 
L 84.46338 226.395024 
L 84.669515 93.60031 
L 84.735772 109.253818 
L 85.089146 228.428561 
L 85.162765 210.599641 
L 85.383624 112.564227 
L 85.427795 116.560364 
L 85.501415 136.564696 
L 85.700187 181.609912 
L 85.729635 180.995121 
L 85.876874 189.41302 
L 85.928408 186.38636 
L 86.149266 150.066438 
L 86.186076 154.984761 
L 86.311229 195.655507 
L 86.392211 182.224702 
L 86.554173 133.254287 
L 86.590983 139.993335 
L 86.76767 199.344249 
L 86.856013 190.618955 
L 87.121043 122.660976 
L 87.202025 139.615002 
L 87.378712 267.278582 
L 87.444969 234.103549 
L 87.629018 79.034508 
L 87.680551 92.134271 
L 88.070735 247.037792 
L 88.114906 232.755739 
L 88.343127 98.494987 
L 88.416746 113.060789 
L 88.608157 177.779295 
L 88.689138 172.364411 
L 88.703862 172.104307 
L 88.711224 172.790035 
L 88.880549 195.655507 
L 88.917359 190.193331 
L 89.108769 140.206147 
L 89.175027 151.603414 
L 89.285456 198.824041 
L 89.359076 186.339068 
L 89.462143 140.986458 
L 89.5284 125.474824 
L 89.572572 135.406053 
L 89.734535 201.046745 
L 89.808154 194.213114 
L 89.94067 159.170064 
L 90.087908 121.40775 
L 90.13208 123.772328 
L 90.154166 128.35961 
L 90.235147 190.216977 
L 90.345577 280.378345 
L 90.39711 255.171941 
L 90.595883 72.413689 
L 90.669502 94.546141 
L 91.030238 263.377027 
L 91.096495 233.867091 
L 91.30263 91.992396 
L 91.354164 102.278312 
L 91.582384 177.802941 
L 91.692813 174.941801 
L 91.847414 195.560923 
L 91.90631 188.207085 
L 92.075634 140.206147 
L 92.156616 158.011421 
L 92.252321 198.989562 
L 92.333303 184.991259 
L 92.495265 125.569407 
L 92.546799 138.219901 
L 92.708762 200.952162 
L 92.77502 194.165822 
L 92.878087 169.45598 
L 93.047412 121.384104 
L 93.121031 127.957632 
L 93.209374 197.381649 
L 93.312442 280.472928 
L 93.363975 255.90496 
L 93.562748 72.839313 
L 93.636367 94.286037 
L 93.997103 263.400673 
L 94.06336 234.671048 
L 94.269495 92.347083 
L 94.321029 102.23102 
L 94.696488 180.829601 
L 94.814279 195.821027 
L 94.873175 188.419897 
L 95.0425 140.229793 
L 95.116119 154.086221 
L 95.219186 199.107791 
L 95.292806 187.00115 
L 95.388511 146.495925 
L 95.462131 125.569407 
L 95.513664 137.794277 
L 95.675627 200.857579 
L 95.741885 194.118531 
L 95.859676 165.270676 
L 96.021639 121.786082 
L 96.080534 125.120138 
L 96.183601 204.309863 
L 96.279307 279.881784 
L 96.33084 256.117772 
L 96.529613 73.099416 
L 96.610594 97.383635 
L 96.963968 262.833174 
L 97.030225 234.741985 
L 97.23636 92.961874 
L 97.287894 102.372895 
L 97.508752 177.164505 
L 97.626543 174.44524 
L 97.781144 195.91561 
L 97.84004 188.987396 
L 98.016726 140.135209 
L 98.097708 159.64298 
L 98.186051 198.682167 
L 98.259671 187.119379 
L 98.362738 142.688954 
L 98.428996 125.829511 
L 98.480529 137.817923 
L 98.642492 201.259557 
L 98.716112 192.983533 
L 98.885436 142.334267 
L 98.988504 121.904311 
L 99.047399 125.214721 
L 99.135743 187.332191 
L 99.246172 279.834492 
L 99.297705 257.276416 
L 99.496478 73.028479 
L 99.570098 94.025934 
L 99.930833 262.336613 
L 99.997091 235.427713 
L 100.203225 93.529372 
L 100.254759 103.082268 
L 100.615494 176.289611 
L 100.748009 197.003316 
L 100.792181 190.689892 
L 100.858438 178.299502 
L 100.983592 140.418959 
L 101.064573 158.980898 
L 101.152916 197.87821 
L 101.226536 186.244485 
L 101.395861 126.39701 
L 101.476842 151.461539 
L 101.609357 202.276326 
L 101.668253 195.679152 
L 101.955369 121.431396 
L 102.043712 135.76074 
L 102.213037 280.68574 
L 102.294018 227.790125 
L 102.463343 72.650146 
L 102.514877 83.550852 
L 102.809355 215.139631 
L 102.90506 262.029218 
L 102.956594 242.190406 
L 103.17009 94.04958 
L 103.228986 105.659659 
L 103.449844 175.343779 
L 103.530826 169.219522 
L 103.538188 169.124939 
L 103.545549 169.408688 
L 103.714874 197.358003 
L 103.781132 189.933227 
L 103.950457 140.655417 
L 104.016714 152.478308 
L 104.119781 197.334357 
L 104.193401 184.991259 
L 104.311192 134.531159 
L 104.362726 126.207844 
L 104.406897 135.737094 
L 104.576222 203.789656 
L 104.64248 194.307697 
L 104.774995 157.798609 
L 104.922234 120.556502 
L 104.959043 122.448164 
L 105.025301 144.367805 
L 105.179902 282.553757 
L 105.253521 238.903643 
L 105.430208 71.727961 
L 105.489104 84.283871 
L 105.871925 262.833174 
L 105.930821 237.201146 
L 106.136955 94.167808 
L 106.188489 103.791642 
L 106.578672 180.143873 
L 106.681739 197.547169 
L 106.755359 188.680001 
L 106.917322 141.128332 
L 107.005665 161.7711 
L 107.086646 196.908733 
L 107.152904 186.268131 
L 107.314867 125.94774 
L 107.388486 142.925412 
L 107.543087 204.948299 
L 107.601983 197.050608 
L 107.889099 119.657962 
L 107.962718 128.832525 
L 108.036338 185.440529 
L 108.154129 284.019796 
L 108.205663 256.732563 
L 108.404435 70.711192 
L 108.478055 93.009165 
L 108.83879 263.684423 
L 108.91241 226.371378 
L 109.111182 93.884059 
L 109.147992 101.190606 
L 109.611795 190.973642 
L 109.648604 197.949147 
L 109.714862 190.808121 
L 109.884187 141.246561 
L 109.957806 156.16705 
L 110.053511 197.499878 
L 110.127131 183.927199 
L 110.281732 125.711282 
L 110.370075 150.11373 
L 110.509952 206.130588 
L 110.57621 196.010193 
L 110.774982 131.764602 
L 110.855964 118.357444 
L 110.907497 122.30629 
L 110.936945 130.416793 
L 111.017927 200.975808 
L 111.120994 284.989273 
L 111.172528 259.924743 
L 111.3713 69.765361 
L 111.452282 93.789476 
L 111.805655 264.630254 
L 111.871913 236.278961 
L 112.078047 92.772707 
L 112.129581 103.460601 
L 112.482954 175.225551 
L 112.622831 198.493 
L 112.667003 190.831767 
L 112.711175 183.832615 
L 112.851052 139.827814 
L 112.917309 150.255604 
L 113.027738 198.209251 
L 113.093996 185.109488 
L 113.248597 126.420656 
L 113.329578 146.35405 
L 113.476817 205.563089 
L 113.543075 195.419049 
L 113.830191 119.090463 
L 113.896448 127.0118 
L 113.992154 206.296109 
L 114.087859 285.296668 
L 114.146755 255.952252 
L 114.338165 69.765361 
L 114.411785 89.036674 
L 114.779882 266.498271 
L 114.84614 234.079903 
L 115.044912 92.488958 
L 115.096446 101.829042 
L 115.545525 193.33822 
L 115.589696 199.84081 
L 115.633868 192.061348 
L 115.759021 159.004544 
L 115.825279 137.699694 
L 115.891536 150.633937 
L 115.994604 197.736335 
L 116.068223 183.501574 
L 116.193376 133.490745 
L 116.222824 128.312318 
L 116.274358 136.99032 
L 116.451044 204.66455 
L 116.517302 191.351974 
L 116.797056 121.171292 
L 116.870675 130.393147 
L 116.951657 196.175714 
L 117.062086 285.816875 
L 117.11362 258.529642 
L 117.312392 68.606718 
L 117.386012 90.479066 
L 117.746747 267.633268 
L 117.820367 229.705433 
L 118.011777 91.235731 
L 118.055949 98.802382 
L 118.505028 193.267283 
L 118.563923 200.029976 
L 118.600733 193.314574 
L 118.792144 137.108549 
L 118.865763 152.407371 
L 118.961469 196.695921 
L 119.035088 184.163656 
L 119.189689 129.58919 
L 119.27067 151.154144 
L 119.417909 204.546321 
L 119.469443 195.229883 
L 119.763921 122.30629 
L 119.830178 127.555653 
L 119.925884 201.897993 
L 120.028951 286.455311 
L 120.080485 261.603594 
L 120.279257 67.47172 
L 120.360239 91.070211 
L 120.713612 268.981078 
L 120.787232 231.904491 
L 120.986004 90.526358 
L 121.030176 99.771859 
L 121.442445 189.011042 
L 121.530788 200.526538 
L 121.567598 194.094885 
L 121.766371 136.801154 
L 121.817904 143.090932 
L 121.935696 196.435817 
L 122.009315 182.886784 
L 122.156554 130.818771 
L 122.244897 154.417262 
L 122.384774 204.971945 
L 122.44367 193.78749 
L 122.738148 122.519102 
L 122.752872 123.772328 
L 122.760234 123.606808 
L 122.774958 124.930971 
L 122.841215 147.394465 
L 122.995816 286.951873 
L 123.069436 243.088946 
L 123.253484 66.147556 
L 123.31238 81.304503 
L 123.687839 269.524931 
L 123.732011 253.374861 
L 123.952869 90.12438 
L 124.019127 106.581844 
L 124.232623 174.114199 
L 124.291519 170.803789 
L 124.298881 170.354519 
L 124.335691 173.830449 
L 124.497654 200.644767 
L 124.527101 196.695921 
L 124.733236 136.848446 
L 124.814217 155.646843 
L 124.902561 195.537278 
L 124.983542 181.066059 
L 125.130781 131.693665 
L 125.204401 150.633937 
L 125.359001 205.302986 
L 125.403173 196.104776 
L 125.57986 143.209161 
L 125.705013 122.30629 
L 125.741823 124.576285 
L 125.822804 157.23111 
L 125.970043 287.495726 
L 126.028939 254.911837 
L 126.220349 64.326831 
L 126.293969 86.64845 
L 126.654704 269.19389 
L 126.720962 235.545942 
L 126.919734 89.509589 
L 126.963906 98.802382 
L 127.324642 178.37044 
L 127.471881 199.22602 
L 127.50869 192.27416 
L 127.700101 138.361776 
L 127.758996 144.604262 
L 127.876788 194.733321 
L 127.943045 182.248348 
L 128.097646 131.457207 
L 128.178628 152.85664 
L 128.325866 206.083297 
L 128.3774 195.75009 
L 128.671878 122.30629 
L 128.738136 127.248258 
L 128.833841 200.171851 
L 128.936908 287.47208 
L 128.995804 258.553288 
L 129.187214 63.120896 
L 129.268196 87.665218 
L 129.621569 268.886495 
L 129.687827 237.390313 
L 129.893961 88.894799 
L 129.938133 99.677276 
L 130.30623 180.569497 
L 130.438746 198.94227 
L 130.468193 194.875196 
L 130.674328 139.354899 
L 130.733223 147.985609 
L 130.843653 194.922487 
L 130.90991 182.744909 
L 131.064511 130.889709 
L 131.138131 147.370819 
L 131.292732 206.059651 
L 131.344265 196.435817 
L 131.646105 122.755559 
L 131.734448 136.753863 
L 131.911135 286.880935 
L 131.992117 227.317209 
L 132.161441 62.293294 
L 132.212975 74.470872 
L 132.588434 268.177121 
L 132.654692 238.738122 
L 132.860826 88.303654 
L 132.904998 98.447695 
L 133.273096 179.410854 
L 133.405611 198.77675 
L 133.435058 195.324466 
L 133.641193 140.016981 
L 133.714812 155.954238 
L 133.810518 194.969779 
L 133.884137 179.954707 
L 134.031376 129.991169 
L 134.11972 153.778826 
L 134.259597 205.89413 
L 134.318492 195.206237 
L 134.61297 122.968371 
L 134.642418 123.81962 
L 134.716037 145.100824 
L 134.878 286.549894 
L 134.944258 246.281127 
L 135.128306 61.985899 
L 135.194564 81.919293 
L 135.562661 267.893372 
L 135.614195 246.54123 
L 135.827691 88.540112 
L 135.879225 100.173837 
L 136.225237 175.320134 
L 136.372476 198.847687 
L 136.416647 191.2101 
L 136.608058 141.104687 
L 136.689039 160.210479 
L 136.777383 195.229883 
L 136.84364 181.278871 
L 137.005603 128.572422 
L 137.064499 141.955935 
L 137.233824 206.154234 
L 137.277995 196.97967 
L 137.579835 122.92108 
L 137.668178 135.902614 
L 137.778608 245.146129 
L 137.844865 287.046456 
L 137.896399 262.005572 
L 138.095171 61.276525 
L 138.176153 88.871153 
L 138.529526 268.082538 
L 138.58106 247.416124 
L 138.794557 88.374592 
L 138.853452 101.876333 
L 139.074311 174.823572 
L 139.155292 169.479625 
L 139.18474 173.121076 
L 139.339341 198.445709 
L 139.383512 190.92635 
L 139.574923 142.476142 
L 139.648543 159.075481 
L 139.744248 196.246651 
L 139.810505 181.018767 
L 139.965106 126.869926 
L 140.024002 138.101672 
L 140.200689 206.62715 
L 140.259584 193.95301 
L 140.5467 123.015663 
L 140.568786 124.008786 
L 140.576148 123.914203 
L 140.58351 124.860034 
L 140.649767 144.320513 
L 140.81173 286.762706 
L 140.88535 237.390313 
L 141.062037 61.58392 
L 141.11357 73.690561 
L 141.496391 267.917018 
L 141.562649 234.008966 
L 141.761422 88.752924 
L 141.812955 99.464464 
L 142.188415 181.160642 
L 142.306206 198.634875 
L 142.343015 193.669261 
L 142.541788 143.894889 
L 142.578598 145.999364 
L 142.659579 180.924184 
L 142.711113 196.152068 
L 142.770008 182.792201 
L 142.931971 126.302427 
L 142.990867 138.574588 
L 143.167554 207.194648 
L 143.226449 194.496863 
L 143.513565 122.30629 
L 143.535651 123.512224 
L 143.543013 123.559516 
L 143.623994 150.917686 
L 143.778595 286.384374 
L 143.844853 244.389464 
L 144.028902 61.914961 
L 144.087797 77.923156 
L 144.463257 267.633268 
L 144.492704 260.492242 
L 144.632581 132.048352 
L 144.728287 89.036674 
L 144.77982 100.079254 
L 145.008041 174.847218 
L 145.111108 170.922018 
L 145.273071 197.925502 
L 145.309881 192.297805 
L 145.508653 145.28999 
L 145.538101 146.968841 
L 145.567549 155.26851 
L 145.677978 195.797381 
L 145.729512 183.477929 
L 145.898836 125.262012 
L 145.965094 141.861352 
L 146.127057 208.447875 
L 146.17859 199.959039 
L 146.473068 121.218584 
L 146.546688 130.109398 
L 146.642393 206.863607 
L 146.738098 286.337082 
L 146.796994 256.992666 
L 146.988405 62.387877 
L 147.069386 87.286886 
L 147.42276 267.822435 
L 147.489017 237.532187 
L 147.695152 88.918445 
L 147.739323 98.400403 
L 147.967544 175.225551 
L 148.085335 172.600869 
L 148.239936 197.097899 
L 148.284108 188.419897 
L 148.328279 182.059182 
L 148.468156 145.90478 
L 148.527052 153.826117 
L 148.637481 196.19936 
L 148.696377 182.437514 
L 148.865701 124.59993 
L 148.924597 138.527296 
L 149.093922 209.393706 
L 149.152817 199.178728 
L 149.425209 119.657962 
L 149.454657 121.502333 
L 149.513553 131.197104 
L 149.609258 209.866622 
L 149.704964 286.549894 
L 149.756497 261.698177 
L 149.95527 62.64798 
L 150.036251 87.925322 
L 150.389625 268.177121 
L 150.44852 242.663322 
L 150.654655 88.303654 
L 150.706188 98.494987 
L 150.927047 175.603883 
L 151.037476 169.597854 
L 151.199439 197.499878 
L 151.236249 192.699784 
L 151.435021 145.762906 
L 151.464469 147.914672 
L 151.486555 151.887163 
L 151.604346 196.554046 
L 151.663242 181.84637 
L 151.825205 124.339827 
L 151.8841 136.280947 
L 152.060787 209.535581 
L 152.127044 196.246651 
L 152.384713 119.066817 
L 152.465694 127.177321 
L 152.554037 188.490835 
L 152.671829 286.12427 
L 152.723362 258.860683 
L 152.922135 63.191833 
L 153.003116 89.296777 
L 153.35649 267.964309 
L 153.408023 246.82498 
L 153.62152 88.421883 
L 153.680415 101.876333 
L 153.893912 175.651175 
L 153.960169 168.746606 
L 153.974893 167.824421 
L 154.019065 173.09743 
L 154.166304 197.972793 
L 154.2252 188.443543 
L 154.401886 145.881135 
L 154.475506 163.11891 
L 154.563849 196.648629 
L 154.630107 181.089705 
L 154.79207 124.670868 
L 154.843603 134.720325 
L 155.02029 209.535581 
L 155.115995 188.538126 
L 155.351578 118.664839 
L 155.395749 122.235352 
L 155.476731 149.948209 
L 155.631332 285.533126 
L 155.704951 240.204161 
L 155.881638 63.381 
L 155.947895 79.507423 
L 156.315993 267.302227 
L 156.367526 250.253618 
L 156.588385 88.421883 
L 156.654642 105.423201 
L 156.860777 175.485654 
L 156.919673 169.503271 
L 156.934396 167.989941 
L 156.98593 173.617637 
L 157.133169 198.32748 
L 157.184703 188.396251 
L 157.228874 179.15075 
L 157.361389 145.077178 
L 157.420285 153.211327 
L 157.530714 197.287066 
L 157.58961 183.690741 
L 157.758935 125.120138 
L 157.81783 137.841569 
L 157.987155 209.299123 
L 158.053413 198.020085 
L 158.318443 118.333798 
L 158.3847 126.84628 
L 158.42151 138.219901 
L 158.539301 251.081221 
L 158.598197 285.22573 
L 158.64973 261.036095 
L 158.848503 63.54652 
L 158.936846 90.951982 
L 159.282858 266.900249 
L 159.32703 254.084235 
L 159.55525 88.918445 
L 159.643593 113.935683 
L 159.827642 175.249196 
L 159.879176 170.68556 
L 159.901262 168.628377 
L 159.952795 174.587114 
L 160.092672 198.540292 
L 160.136844 190.642601 
L 160.328254 144.273221 
L 160.379788 150.208313 
L 160.497579 197.854564 
L 160.563837 181.704495 
L 160.7258 125.78222 
L 160.777333 135.595219 
L 160.95402 208.045897 
L 161.042363 190.595309 
L 161.285308 118.735776 
L 161.314756 121.313167 
L 161.395737 142.523433 
L 161.565062 284.374482 
L 161.638681 237.01198 
L 161.815368 63.664749 
L 161.874264 76.244305 
L 162.249723 266.143584 
L 162.301257 248.432893 
L 162.522115 89.67511 
L 162.588373 105.068514 
L 162.794507 175.272842 
L 162.860765 169.574209 
L 162.868127 169.17223 
L 162.904936 172.222536 
L 163.059537 198.753104 
L 163.096347 193.669261 
L 163.29512 143.77666 
L 163.324567 146.164884 
L 163.346653 149.735397 
L 163.464444 197.570815 
L 163.530702 181.680849 
L 163.692665 126.657113 
L 163.744198 136.257301 
L 163.920885 207.171003 
L 164.009228 190.146039 
L 164.252173 118.783068 
L 164.288983 122.188061 
L 164.340516 133.206995 
L 164.450945 227.624604 
L 164.531927 284.138024 
L 164.58346 259.83016 
L 164.782233 63.262771 
L 164.870576 90.479066 
L 165.216588 265.386919 
L 165.26076 253.067466 
L 165.48898 90.242609 
L 165.577323 112.94256 
L 165.761372 175.627529 
L 165.820268 170.803789 
L 165.842354 169.597854 
L 165.886525 174.870864 
L 166.033764 198.185605 
L 166.077936 188.419897 
L 166.122108 181.302517 
L 166.261985 143.847597 
L 166.32088 152.147267 
L 166.431309 197.42894 
L 166.490205 184.87303 
L 166.65953 126.917217 
L 166.725787 141.64854 
L 166.88775 206.910899 
L 166.946646 198.729458 
L 167.219038 119.279629 
L 167.277933 126.467947 
L 167.358915 164.253908 
L 167.498792 283.594171 
L 167.557687 254.013298 
L 167.749098 64.019436 
L 167.83008 86.175534 
L 168.183453 264.535671 
L 168.257072 231.266055 
L 168.455845 91.235731 
L 168.507379 99.369881 
L 168.96382 192.841658 
L 169.000629 197.689044 
L 169.037439 191.470203 
L 169.236212 144.604262 
L 169.265659 146.023009 
L 169.295107 153.991638 
L 169.405536 196.97967 
L 169.464432 183.406991 
L 169.626395 127.130029 
L 169.68529 137.203132 
L 169.861977 206.981836 
L 169.928235 194.284051 
L 170.163817 120.107232 
L 170.266884 130.251272 
L 170.36259 198.587584 
L 170.473019 282.435528 
L 170.524552 256.046835 
L 170.723325 64.681518 
L 170.804307 88.942091 
L 171.15768 263.613485 
L 171.209214 245.855503 
L 171.430072 92.063334 
L 171.49633 105.281326 
L 171.702464 175.603883 
L 171.783446 169.90525 
L 171.790808 169.90525 
L 171.812893 172.48264 
L 171.967494 196.932379 
L 172.011666 190.02781 
L 172.203077 144.296867 
L 172.261972 151.461539 
L 172.372401 196.506755 
L 172.431297 184.660218 
L 172.600622 127.532007 
L 172.666879 141.601248 
L 172.828842 207.029128 
L 172.887738 197.452586 
L 173.130682 120.745668 
L 173.204302 125.072846 
L 173.285283 153.636951 
L 173.439884 282.246362 
L 173.513503 238.052394 
L 173.697552 64.752455 
L 173.756448 80.193151 
L 174.131907 262.218384 
L 174.168717 252.547259 
L 174.404299 93.103748 
L 174.507366 120.296398 
L 174.676691 175.272842 
L 174.735587 170.638269 
L 174.750311 169.645146 
L 174.801844 175.178259 
L 174.941721 196.837796 
L 175.000617 188.490835 
L 175.081598 172.269828 
L 175.177304 144.060409 
L 175.236199 151.981746 
L 175.346628 196.435817 
L 175.405524 184.612926 
L 175.574849 128.004923 
L 175.641106 142.357913 
L 175.803069 206.62715 
L 175.854603 198.32748 
L 176.104909 121.100355 
L 176.215338 132.805017 
L 176.333129 227.057106 
L 176.414111 282.459174 
L 176.465645 258.647871 
L 176.664417 64.303185 
L 176.745399 89.296777 
L 177.098772 261.225261 
L 177.157668 241.788428 
L 177.378526 93.978642 
L 177.43006 102.774873 
L 177.650918 174.44524 
L 177.753985 171.513163 
L 177.915948 197.121545 
L 177.952758 192.084993 
L 178.151531 143.705723 
L 178.195702 146.543216 
L 178.320855 195.75009 
L 178.394475 179.670958 
L 178.549076 128.832525 
L 178.630057 150.208313 
L 178.777296 205.586735 
L 178.836192 195.182591 
L 179.079136 121.313167 
L 179.138032 124.718159 
L 179.211651 142.452496 
L 179.344166 265.150461 
L 179.388338 282.270008 
L 179.439872 257.300061 
L 179.638644 63.759332 
L 179.719626 90.053442 
L 180.072999 259.948389 
L 180.124533 244.909671 
L 180.352753 95.160931 
L 180.419011 108.520798 
L 180.617783 173.617637 
L 180.735574 172.908264 
L 180.890175 197.003316 
L 180.934347 189.318437 
L 180.993243 180.072936 
L 181.125758 143.894889 
L 181.192015 156.450799 
L 181.295082 194.756967 
L 181.353978 184.045427 
L 181.515941 130.014815 
L 181.582198 140.844583 
L 181.751523 204.877362 
L 181.810419 193.834781 
L 182.053363 121.667853 
L 182.104897 124.008786 
L 182.207964 157.538505 
L 182.362565 282.246362 
L 182.42146 249.165912 
L 182.612871 63.168188 
L 182.686491 87.617927 
L 183.047226 258.364122 
L 183.09876 242.923426 
L 183.319618 96.012179 
L 183.393238 109.395692 
L 183.724525 175.012739 
L 183.864402 196.459463 
L 183.908574 189.152916 
L 183.93066 187.805107 
L 184.099985 144.22593 
L 184.166242 156.663611 
L 184.269309 193.385511 
L 184.335567 180.451268 
L 184.490168 131.007937 
L 184.563787 145.266344 
L 184.718388 204.357155 
L 184.777284 194.756967 
L 185.02759 122.069832 
L 185.079124 124.812742 
L 185.182191 158.980898 
L 185.336792 282.766569 
L 185.395687 248.291018 
L 185.587098 62.411523 
L 185.653356 84.567621 
L 186.021453 257.772977 
L 186.050901 252.901946 
L 186.153968 172.671806 
L 186.293845 96.248637 
L 186.345379 103.649767 
L 186.831267 195.489986 
L 186.838629 195.702798 
L 186.845991 194.047593 
L 187.074212 144.415096 
L 187.155193 161.60558 
L 187.236174 192.037702 
L 187.302432 181.657203 
L 187.464395 131.953769 
L 187.530652 143.16187 
L 187.692615 203.836947 
L 187.751511 193.007179 
L 187.994455 122.188061 
L 188.045989 124.221598 
L 188.16378 166.358382 
L 188.303657 283.144902 
L 188.362553 253.540382 
L 188.553963 62.03319 
L 188.627583 86.222826 
L 188.99568 257.654748 
L 189.025128 252.050698 
L 189.135557 164.301199 
L 189.268072 95.775722 
L 189.312244 102.0655 
L 189.437397 149.404356 
L 189.540464 174.752635 
L 189.59936 170.661915 
L 189.628808 169.763375 
L 189.665617 174.090553 
L 189.805494 195.040716 
L 189.879114 187.332191 
L 190.011629 152.431016 
L 190.041077 144.580617 
L 190.107334 154.20445 
L 190.210401 191.281037 
L 190.276659 180.427623 
L 190.438622 132.544913 
L 190.504879 145.053532 
L 190.666842 203.529552 
L 190.718376 193.834781 
L 190.968682 122.30629 
L 191.042302 127.721174 
L 191.145369 175.651175 
L 191.277884 283.381359 
L 191.329418 257.25277 
L 191.52819 61.702149 
L 191.60181 88.3273 
L 191.962545 258.127664 
L 192.006717 247.345187 
L 192.234937 94.900828 
L 192.330643 116.58401 
L 192.514691 175.840341 
L 192.566225 171.796912 
L 192.603035 169.90525 
L 192.647206 175.5093 
L 192.779721 194.189468 
L 192.816531 190.02781 
L 193.015304 144.911658 
L 193.081561 156.190696 
L 193.177267 190.689892 
L 193.250886 178.701481 
L 193.405487 132.45033 
L 193.486468 150.610291 
L 193.633707 204.049759 
L 193.692603 192.605201 
L 193.935547 121.833374 
L 193.987081 124.221598 
L 194.09751 161.487351 
L 194.244749 283.428651 
L 194.311007 244.200298 
L 194.495055 61.914961 
L 194.561313 82.865124 
L 194.92941 258.127664 
L 194.944134 256.945375 
L 195.00303 226.13492 
L 195.201802 94.286037 
L 195.260698 103.791642 
L 195.481556 176.786172 
L 195.584624 170.732852 
L 195.746586 193.811136 
L 195.805482 188.892813 
L 195.937997 156.403508 
L 195.982169 145.384573 
L 196.048426 156.450799 
L 196.151494 190.595309 
L 196.217751 178.323148 
L 196.372352 131.504499 
L 196.453333 150.019147 
L 196.600572 204.853716 
L 196.659468 193.95301 
L 196.902412 120.745668 
L 196.961308 124.528993 
L 197.057013 155.221219 
L 197.211614 283.499588 
L 197.277872 244.696859 
L 197.46192 62.506106 
L 197.528178 82.510438 
L 197.896275 257.796623 
L 197.910999 256.567042 
L 197.977257 219.206706 
L 198.168667 94.025934 
L 198.212839 100.835919 
L 198.36744 161.061727 
L 198.441059 177.684712 
L 198.507317 170.945664 
L 198.544127 169.219522 
L 198.580936 173.617637 
L 198.713451 193.172699 
L 198.757623 187.757815 
L 198.772347 188.561772 
L 198.801795 185.440529 
L 198.949034 146.070301 
L 199.022653 159.997667 
L 199.110997 191.328328 
L 199.184616 178.015753 
L 199.339217 130.48773 
L 199.420198 149.735397 
L 199.567437 205.870485 
L 199.626333 194.969779 
L 199.869277 119.705253 
L 199.928173 123.701391 
L 200.023878 155.55226 
L 200.178479 283.334068 
L 200.244737 243.396341 
L 200.428785 62.884438 
L 200.495043 83.267103 
L 200.86314 257.536519 
L 200.885226 254.249755 
L 200.958846 203.411323 
L 201.135532 93.907705 
L 201.179704 101.947271 
L 201.599335 180.356685 
L 201.680316 192.652492 
L 201.746574 186.811984 
L 201.908537 146.850612 
L 201.99688 163.757346 
L 202.077862 192.27416 
L 202.136757 181.255225 
L 202.306082 129.234504 
L 202.37234 143.540202 
L 202.534302 207.431106 
L 202.585836 197.783627 
L 202.836142 118.499319 
L 202.931848 130.180335 
L 202.990743 157.420276 
L 203.145344 282.955735 
L 203.20424 247.628936 
L 203.39565 63.735686 
L 203.461908 85.560744 
L 203.830005 257.489228 
L 203.859453 250.537368 
L 203.99933 135.878969 
L 204.095035 94.404266 
L 204.153931 105.848825 
L 204.367428 177.944816 
L 204.448409 168.652023 
L 204.470495 167.871712 
L 204.485219 169.45598 
L 204.63982 192.510618 
L 204.713439 185.724278 
L 204.823868 161.676517 
L 204.875402 147.323527 
L 204.941659 158.389753 
L 205.044727 193.196345 
L 205.103622 180.167519 
L 205.265585 128.170444 
L 205.324481 138.409067 
L 205.493806 208.58975 
L 205.560063 195.46634 
L 205.795645 117.600779 
L 205.876627 125.167429 
L 205.987056 188.656355 
L 206.104847 282.388237 
L 206.156381 256.898083 
L 206.355153 64.374123 
L 206.436135 91.945105 
L 206.789508 257.796623 
L 206.841042 239.400204 
L 207.0619 94.144163 
L 207.113434 105.470492 
L 207.326931 178.181273 
L 207.415274 168.037233 
L 207.429998 167.327859 
L 207.466808 171.13483 
L 207.606685 192.581555 
L 207.658218 187.45042 
L 207.672942 186.031673 
L 207.834905 147.843735 
L 207.923248 165.672654 
L 208.00423 193.669261 
L 208.063125 180.924184 
L 208.225088 127.366487 
L 208.283984 137.250424 
L 208.460671 209.37006 
L 208.53429 192.770721 
L 208.76251 116.300261 
L 208.850854 128.241381 
L 208.909749 154.086221 
L 209.06435 282.601049 
L 209.130608 243.751028 
L 209.314657 64.586935 
L 209.380914 82.510438 
L 209.749012 259.049849 
L 209.778459 252.949237 
L 209.888889 161.794746 
L 210.021404 93.245623 
L 210.065575 102.372895 
L 210.293796 178.98523 
L 210.389501 167.327859 
L 210.426311 170.756498 
L 210.566188 192.770721 
L 210.632445 186.291777 
L 210.794408 148.293004 
L 210.868028 160.565165 
L 210.963733 194.047593 
L 211.02999 179.079813 
L 211.191953 126.84628 
L 211.243487 136.493759 
L 211.420174 210.315892 
L 211.501155 192.321451 
L 211.722014 114.90516 
L 211.788271 120.95848 
L 211.861891 147.559985 
L 212.023853 283.428651 
L 212.097473 237.934166 
L 212.281522 64.847038 
L 212.340417 80.429609 
L 212.708515 260.988803 
L 212.745324 252.358093 
L 212.980907 91.826876 
L 213.091336 126.56253 
L 213.253299 179.647312 
L 213.304832 173.570346 
L 213.356366 167.777129 
L 213.4079 174.847218 
L 213.525691 192.345097 
L 213.591948 186.433651 
L 213.761273 148.458525 
L 213.827531 159.997667 
L 213.923236 194.733321 
L 213.989494 180.33304 
L 214.151456 125.995032 
L 214.20299 135.429699 
L 214.379677 210.765162 
L 214.46802 191.044579 
L 214.703603 114.101203 
L 214.740412 118.191923 
L 214.828756 151.225081 
L 214.990718 283.925212 
L 215.049614 248.480185 
L 215.241025 65.296308 
L 215.307282 82.392209 
L 215.67538 262.336613 
L 215.712189 251.152158 
L 215.947772 90.975628 
L 216.036115 117.506196 
L 216.220164 179.552729 
L 216.264335 174.327011 
L 216.315869 168.179107 
L 216.367403 174.563469 
L 216.485194 192.770721 
L 216.551451 187.190316 
L 216.720776 148.032901 
L 216.787034 158.460691 
L 216.890101 194.946133 
L 216.948997 181.444391 
L 217.11096 125.758574 
L 217.169855 136.8248 
L 217.346542 211.096203 
L 217.412799 197.71269 
L 217.648382 112.989851 
L 217.758811 132.544913 
L 217.898688 259.759223 
L 217.950222 284.894689 
L 218.001755 259.640994 
L 218.200528 65.580057 
L 218.281509 87.168657 
L 218.634883 263.542548 
L 218.70114 232.070012 
L 218.907275 91.283023 
L 218.951447 99.228006 
L 219.179667 179.15075 
L 219.348992 176.502423 
L 219.452059 193.196345 
L 219.525678 185.795215 
L 219.599298 171.347642 
L 219.680279 147.820089 
L 219.746537 156.639966 
L 219.849604 195.088008 
L 219.9085 182.934076 
L 220.077825 125.214721 
L 220.13672 137.699694 
L 220.306045 211.710993 
L 220.372302 199.627998 
L 220.615247 111.925791 
L 220.710952 126.680759 
L 220.814019 209.299123 
L 220.909725 285.604063 
L 220.96862 257.41829 
L 221.167393 65.580057 
L 221.248374 87.286886 
L 221.601748 264.039109 
L 221.668005 230.154703 
L 221.87414 91.897813 
L 221.918312 100.055608 
L 222.352667 182.082827 
L 222.411562 193.101762 
L 222.485182 186.930213 
L 222.625059 153.282264 
L 222.647144 147.607277 
L 222.713402 157.396631 
L 222.816469 195.631861 
L 222.875365 182.886784 
L 223.037328 124.528993 
L 223.103585 137.794277 
L 223.27291 212.302137 
L 223.331806 202.039868 
L 223.596836 111.358292 
L 223.655731 120.651085 
L 223.766161 194.544155 
L 223.87659 286.502603 
L 223.928123 264.086401 
L 224.134258 65.485474 
L 224.215239 86.955845 
L 224.568613 264.322859 
L 224.627508 236.822814 
L 224.841005 92.039688 
L 224.885177 100.292066 
L 225.334255 184.494697 
L 225.378427 193.219991 
L 225.452047 187.00115 
L 225.569838 158.886315 
L 225.614009 147.441756 
L 225.680267 157.51486 
L 225.783334 196.648629 
L 225.84223 183.477929 
L 226.004193 123.937848 
L 226.07045 137.297716 
L 226.239775 212.869636 
L 226.298671 202.063514 
L 226.563701 111.192772 
L 226.622596 120.414627 
L 226.740388 202.276326 
L 226.843455 287.141039 
L 226.90235 258.647871 
L 227.101123 64.917976 
L 227.182104 85.537098 
L 227.535478 264.582962 
L 227.601735 231.668033 
L 227.80787 91.897813 
L 227.852042 99.724567 
L 228.014005 164.774115 
L 228.080262 178.394085 
L 228.139158 171.040247 
L 228.175967 167.091401 
L 228.227501 172.955555 
L 228.352654 193.172699 
L 228.418912 187.2849 
L 228.580875 147.087069 
L 228.661856 162.906098 
L 228.750199 197.594461 
L 228.816457 182.342931 
L 228.97842 123.157538 
L 229.037315 135.547928 
L 229.20664 213.011511 
L 229.272898 199.817164 
L 229.530566 111.571104 
L 229.596823 122.117123 
L 229.692529 182.201056 
L 229.817682 288.134162 
L 229.869215 262.927758 
L 230.07535 63.404645 
L 230.156331 86.057305 
L 230.502343 265.292336 
L 230.561239 241.788428 
L 230.774735 91.424898 
L 230.833631 102.160083 
L 231.047127 178.914293 
L 231.128109 168.983064 
L 231.150194 167.446088 
L 231.194366 172.104307 
L 231.319519 192.581555 
L 231.371053 187.686878 
L 231.378415 188.159794 
L 231.415225 183.501574 
L 231.555102 146.661445 
L 231.621359 158.153296 
L 231.724426 198.587584 
L 231.783322 184.565635 
L 231.952647 123.039309 
L 232.011542 136.730217 
L 232.180867 212.444012 
L 232.232401 202.914762 
L 232.504793 112.280478 
L 232.578412 124.836388 
L 232.637308 156.143404 
L 232.791909 288.772598 
L 232.850804 255.171941 
L 233.064301 61.891315 
L 233.123196 82.463146 
L 233.47657 266.119938 
L 233.550189 228.09752 
L 233.748962 90.668233 
L 233.793134 97.951134 
L 234.021354 179.576375 
L 234.183317 175.249196 
L 234.249574 183.80897 
L 234.293746 192.297805 
L 234.367366 185.464174 
L 234.477795 160.399645 
L 234.529329 146.826966 
L 234.588224 155.386739 
L 234.698653 198.729458 
L 234.757549 184.140011 
L 234.919512 123.393996 
L 234.978407 134.554805 
L 235.155094 211.403598 
L 235.221352 195.891964 
L 235.47902 113.320892 
L 235.552639 125.309304 
L 235.618897 162.645994 
L 235.766136 289.127285 
L 235.825031 255.834023 
L 236.038528 60.401631 
L 236.097423 81.588252 
L 236.450797 265.88348 
L 236.524416 228.806894 
L 236.723189 90.2899 
L 236.774723 99.511755 
L 236.995581 179.765541 
L 237.164906 175.911278 
L 237.267973 191.848536 
L 237.356317 183.97449 
L 237.503556 146.566862 
L 237.569813 158.366108 
L 237.67288 198.729458 
L 237.731776 184.636572 
L 237.893739 124.316181 
L 237.959996 138.361776 
L 238.129321 210.221309 
L 238.180855 199.509769 
L 238.453247 114.928805 
L 238.526866 126.11326 
L 238.5784 149.38071 
L 238.740363 289.576554 
L 238.80662 250.182681 
L 238.998031 59.219342 
L 239.064288 77.261074 
L 239.425024 265.150461 
L 239.498643 230.272932 
L 239.697416 90.644587 
L 239.74895 98.826028 
L 239.969808 179.718249 
L 240.153857 177.424608 
L 240.249562 191.919473 
L 240.323182 184.541989 
L 240.404163 166.996818 
L 240.477783 145.833843 
L 240.54404 156.923715 
L 240.647107 198.16196 
L 240.706003 185.298654 
L 240.875328 125.663991 
L 240.934223 138.574588 
L 241.103548 208.14048 
L 241.155082 197.42894 
L 241.434836 116.702239 
L 241.515817 129.376378 
L 241.633608 229.185226 
L 241.71459 289.269159 
L 241.766123 267.23129 
L 241.972258 58.55726 
L 242.060601 88.090842 
L 242.399251 263.849943 
L 242.436061 256.921729 
L 242.561214 149.333419 
L 242.679005 91.235731 
L 242.723177 98.58957 
L 242.877778 162.66964 
L 242.951397 179.410854 
L 243.010293 172.506286 
L 243.047102 169.054001 
L 243.098636 173.972324 
L 243.223789 192.368743 
L 243.282685 187.710524 
L 243.459371 144.888012 
L 243.532991 162.338599 
L 243.628696 197.42894 
L 243.687592 183.714386 
L 243.849555 127.106383 
L 243.90845 138.95292 
L 244.077775 205.515798 
L 244.136671 193.196345 
L 244.409063 118.54661 
L 244.445872 121.360458 
L 244.504768 135.429699 
L 244.607835 225.638359 
L 244.696179 289.056347 
L 244.747712 262.123801 
L 244.946485 58.249865 
L 245.027466 84.473038 
L 245.38084 261.863697 
L 245.432374 244.815088 
L 245.653232 92.2525 
L 245.719489 105.163097 
L 245.925624 179.103459 
L 246.006605 169.314105 
L 246.028691 168.179107 
L 246.065501 171.560454 
L 246.198016 192.88895 
L 246.256912 188.51448 
L 246.359979 166.074633 
L 246.433598 144.060409 
L 246.499856 157.704026 
L 246.602923 196.719567 
L 246.661819 183.998136 
L 246.823782 128.856171 
L 246.882677 139.496773 
L 247.052002 202.962053 
L 247.110898 191.115516 
L 247.398014 119.847128 
L 247.427461 122.63733 
L 247.486357 138.030735 
L 247.582062 223.321072 
L 247.670406 288.890827 
L 247.721939 262.833174 
L 247.920712 58.084344 
L 248.001693 85.418869 
L 248.355067 260.113909 
L 248.406601 244.484047 
L 248.627459 92.843645 
L 248.701078 107.976945 
L 248.899851 178.890647 
L 248.980832 168.55744 
L 249.002918 167.280568 
L 249.039728 170.496394 
L 249.172243 193.101762 
L 249.238501 188.703647 
L 249.407825 143.77666 
L 249.481445 160.825269 
L 249.57715 195.844673 
L 249.643408 181.491683 
L 249.798009 130.062106 
L 249.864266 143.516556 
L 250.026229 201.046745 
L 250.077763 190.689892 
L 250.269173 138.50365 
L 250.372241 120.769314 
L 250.416412 125.711282 
L 250.512118 175.67482 
L 250.644633 288.678015 
L 250.696166 261.698177 
L 250.894939 58.226219 
L 250.97592 87.310532 
L 251.329294 258.813391 
L 251.373466 247.487062 
L 251.601686 93.529372 
L 251.690029 114.62141 
L 251.874078 178.748772 
L 251.925612 172.009724 
L 251.977145 166.263799 
L 252.028679 172.719098 
L 252.14647 193.456449 
L 252.234813 186.197194 
L 252.382052 143.445619 
L 252.44831 157.656734 
L 252.551377 195.253528 
L 252.610273 183.572512 
L 252.772236 130.700542 
L 252.831131 141.601248 
L 252.97837 199.746227 
L 253.059352 188.041565 
L 253.346468 121.455041 
L 253.383277 125.143783 
L 253.478983 170.614623 
L 253.611498 288.346974 
L 253.670393 258.600579 
L 253.861804 58.604552 
L 253.942785 85.939076 
L 254.303521 257.560165 
L 254.347693 244.696859 
L 254.575913 94.262392 
L 254.649532 111.287355 
L 254.840943 178.630543 
L 254.914563 167.800775 
L 254.94401 165.317968 
L 254.995544 171.253059 
L 255.120697 193.480095 
L 255.194317 187.994273 
L 255.253212 176.171382 
L 255.348917 143.421973 
L 255.415175 155.504968 
L 255.518242 194.780613 
L 255.577138 184.352823 
L 255.739101 131.291687 
L 255.805358 143.445619 
L 255.952597 199.533415 
L 256.018855 189.294791 
L 256.173456 151.863518 
L 256.320695 121.833374 
L 256.350142 125.285658 
L 256.438486 162.362245 
L 256.585725 288.08687 
L 256.64462 252.334447 
L 256.836031 58.344448 
L 256.902289 80.618775 
L 257.270386 257.016312 
L 257.292472 253.729548 
L 257.366091 201.992576 
L 257.542778 94.427912 
L 257.58695 101.78175 
L 257.807808 178.890647 
L 257.969771 171.725975 
L 258.087562 193.149054 
L 258.183267 184.896676 
L 258.315783 143.965826 
L 258.389402 158.507982 
L 258.485107 194.615092 
L 258.551365 182.01189 
L 258.705966 131.126166 
L 258.772223 143.445619 
L 258.919462 200.313726 
L 258.98572 189.814998 
L 259.155045 145.833843 
L 259.280198 121.455041 
L 259.324369 126.657113 
L 259.420075 176.478777 
L 259.55259 288.441557 
L 259.604123 259.688285 
L 259.802896 58.060699 
L 259.876516 85.064182 
L 260.237251 257.229124 
L 260.281423 243.703736 
L 260.509643 94.191454 
L 260.583263 112.445998 
L 260.774673 179.458146 
L 260.840931 168.628377 
L 260.87774 164.253908 
L 260.936636 171.489517 
L 261.054427 192.345097 
L 261.157494 182.650326 
L 261.282648 144.509679 
L 261.363629 162.031204 
L 261.451972 194.68603 
L 261.51823 181.066059 
L 261.672831 130.156689 
L 261.739088 144.013118 
L 261.878965 202.016222 
L 261.945223 191.919473 
L 262.077738 157.893192 
L 262.232339 120.390981 
L 262.283873 124.670868 
L 262.38694 179.836478 
L 262.512093 289.458325 
L 262.563627 264.275567 
L 262.762399 58.249865 
L 262.843381 86.270117 
L 263.196754 257.962143 
L 263.248288 241.1027 
L 263.469146 93.694893 
L 263.535404 108.56809 
L 263.734176 179.954707 
L 263.800434 169.385042 
L 263.837244 164.159324 
L 263.896139 170.803789 
L 264.01393 192.108639 
L 264.109636 185.109488 
L 264.242151 145.313636 
L 264.31577 158.082358 
L 264.411476 194.946133 
L 264.477733 182.059182 
L 264.639696 129.092629 
L 264.698591 142.192393 
L 264.84583 203.93153 
L 264.912088 193.574678 
L 265.096137 138.33813 
L 265.191842 118.759422 
L 265.236014 122.235352 
L 265.294909 138.101672 
L 265.390615 227.222626 
L 265.471596 290.238636 
L 265.52313 266.521917 
L 265.729264 58.39174 
L 265.810246 87.854385 
L 266.156257 258.813391 
L 266.193067 250.277264 
L 266.428649 93.505727 
L 266.539078 126.869926 
L 266.701041 180.522206 
L 266.752575 171.867849 
L 266.804109 163.993804 
L 266.863004 170.945664 
L 266.951348 185.676986 
L 266.973433 191.446557 
L 267.061777 186.930213 
L 267.238464 145.810197 
L 267.282635 160.565165 
L 267.370979 195.702798 
L 267.444598 180.143873 
L 267.599199 127.602945 
L 267.672818 147.961963 
L 267.820057 206.390692 
L 267.871591 196.530401 
L 268.026192 148.529462 
L 268.158707 116.938697 
L 268.195517 120.722022 
L 268.254412 137.297716 
L 268.350118 227.459084 
L 268.431099 291.184468 
L 268.482633 267.278582 
L 268.688767 58.935593 
L 268.769749 86.3647 
L 269.11576 260.137555 
L 269.159932 246.82498 
L 269.388152 93.032811 
L 269.461772 111.334646 
L 269.653182 181.278871 
L 269.726802 168.935772 
L 269.763612 164.419428 
L 269.822507 170.780143 
L 269.896127 181.799078 
L 269.962384 190.524372 
L 270.02128 186.528235 
L 270.197967 146.18853 
L 270.242138 160.565165 
L 270.330482 195.868319 
L 270.404101 180.04929 
L 270.558702 125.94774 
L 270.632322 147.110715 
L 270.786922 208.566104 
L 270.838456 197.925502 
L 271.110848 115.023389 
L 271.169744 122.353581 
L 271.258087 169.928895 
L 271.390602 291.799258 
L 271.449498 259.688285 
L 271.64827 59.668612 
L 271.72189 82.27398 
L 272.075263 261.910989 
L 272.134159 235.191255 
L 272.347655 92.819999 
L 272.391827 101.61623 
L 272.612686 181.893661 
L 272.715753 165.223385 
L 272.723115 164.963281 
L 272.759925 167.49338 
L 272.914525 189.41302 
L 272.966059 186.646463 
L 272.980783 185.866153 
L 273.15747 147.394465 
L 273.194279 159.099127 
L 273.289985 195.986548 
L 273.363604 179.88377 
L 273.510843 124.481701 
L 273.591825 146.448633 
L 273.739064 210.481412 
L 273.797959 200.479246 
L 274.070351 113.155372 
L 274.129247 121.265875 
L 274.210228 163.757346 
L 274.350105 292.17759 
L 274.409001 258.553288 
L 274.607774 60.35434 
L 274.681393 81.942939 
L 275.027405 263.471611 
L 275.101024 227.435438 
L 275.307159 92.441666 
L 275.343968 99.724567 
L 275.579551 182.271994 
L 275.697342 166.736715 
L 275.719428 168.131816 
L 275.874029 188.443543 
L 275.925562 185.818861 
L 275.947648 183.265117 
L 276.116973 148.576754 
L 276.168506 165.199739 
L 276.249488 196.412172 
L 276.308383 184.87303 
L 276.470346 122.968371 
L 276.536604 137.368653 
L 276.698567 211.994742 
L 276.757462 202.678304 
L 277.037216 111.689333 
L 277.08875 119.989003 
L 277.169731 164.277553 
L 277.309608 292.437694 
L 277.368504 258.458705 
L 277.582 60.992776 
L 277.633534 78.254197 
L 277.986908 265.481502 
L 278.060527 227.695542 
L 278.266662 91.992396 
L 278.303471 99.417172 
L 278.539054 182.46116 
L 278.649483 167.233276 
L 278.774636 180.096582 
L 278.811446 187.237608 
L 278.899789 183.596158 
L 279.076476 149.66446 
L 279.113286 161.510997 
L 279.208991 196.956025 
L 279.28261 179.741895 
L 279.429849 121.809728 
L 279.510831 143.753014 
L 279.665432 213.058802 
L 279.724327 202.536429 
L 280.004081 110.459753 
L 280.062977 121.596916 
L 280.143958 178.53596 
L 280.269112 292.414048 
L 280.320645 267.183998 
L 280.541504 61.938607 
L 280.607761 83.574498 
L 280.946411 267.160353 
L 281.005306 243.987486 
L 281.226165 91.330315 
L 281.270336 100.457587 
L 281.491195 182.697618 
L 281.616348 168.155462 
L 281.645796 169.763375 
L 281.770949 186.717401 
L 281.859292 183.028659 
L 282.035979 150.468416 
L 282.072789 161.60558 
L 282.168494 197.594461 
L 282.234752 183.761678 
L 282.396714 120.698376 
L 282.462972 136.943029 
L 282.624935 213.57901 
L 282.68383 204.640904 
L 282.956223 109.584859 
L 283.029842 121.904311 
L 283.140271 216.77119 
L 283.235977 291.893841 
L 283.28751 263.045987 
L 283.508369 62.908084 
L 283.567264 81.470023 
L 283.913276 268.318996 
L 283.986895 227.955645 
L 284.185668 90.999274 
L 284.222478 96.674261 
L 284.45806 183.123242 
L 284.590575 168.581086 
L 284.605299 169.408688 
L 284.730452 186.244485 
L 284.804072 183.501574 
L 284.885053 171.725975 
L 284.966034 150.586645 
L 285.032292 160.09225 
L 285.135359 198.398417 
L 285.201617 183.123242 
L 285.36358 120.012649 
L 285.429837 137.132195 
L 285.5918 213.839113 
L 285.650696 204.617258 
L 285.93045 109.490275 
L 285.996707 121.998894 
L 286.12186 235.924274 
L 286.19548 291.444571 
L 286.254375 261.721823 
L 286.475234 63.475583 
L 286.534129 81.730127 
L 286.880141 268.720974 
L 286.95376 228.475853 
L 287.152533 91.046565 
L 287.189343 96.508741 
L 287.336582 159.264647 
L 287.432287 183.217825 
L 287.483821 176.076799 
L 287.535354 168.652023 
L 287.608974 171.678683 
L 287.697317 186.291777 
L 287.800384 180.545852 
L 287.932899 150.137375 
L 288.006519 162.66964 
L 288.102224 199.273311 
L 288.168482 183.832615 
L 288.330445 119.61067 
L 288.396702 136.068135 
L 288.558665 213.626301 
L 288.624923 202.016222 
L 288.897315 109.9159 
L 288.985658 132.190227 
L 289.088725 233.53605 
L 289.169707 290.66426 
L 289.22124 263.14057 
L 289.442099 63.522874 
L 289.508356 84.141997 
L 289.847006 268.437225 
L 289.905901 244.625922 
L 290.12676 90.951982 
L 290.178294 101.285189 
L 290.399152 183.170533 
L 290.487495 170.378165 
L 290.502219 168.770252 
L 290.583201 172.388057 
L 290.65682 183.690741 
L 290.671544 186.930213 
L 290.759887 182.981367 
L 290.899764 149.569877 
L 290.973384 160.494228 
L 291.069089 199.462478 
L 291.142709 182.981367 
L 291.29731 119.918065 
L 291.378291 142.357913 
L 291.52553 212.822345 
L 291.584426 204.569967 
L 291.86418 111.452875 
L 291.937799 123.252121 
L 292.05559 227.175335 
L 292.136572 290.002178 
L 292.188105 267.467748 
L 292.416326 63.310062 
L 292.482583 85.584389 
L 292.821233 267.727851 
L 292.872767 249.213204 
L 293.100987 90.975628 
L 293.159882 104.217266 
L 293.373379 182.792201 
L 293.446998 171.678683 
L 293.476446 168.510148 
L 293.550066 172.009724 
L 293.645771 187.615941 
L 293.748838 180.191165 
L 293.859268 152.643828 
L 293.910801 148.505816 
L 293.947611 159.713917 
L 294.050678 199.651644 
L 294.116936 183.241471 
L 294.271537 120.580147 
L 294.345156 139.189378 
L 294.499757 211.356306 
L 294.558653 202.394555 
L 294.845769 113.628287 
L 294.897302 121.525979 
L 294.948836 142.618017 
L 295.118161 289.43468 
L 295.184418 245.879148 
L 295.390553 62.529752 
L 295.434724 75.984202 
L 295.802822 266.852957 
L 295.869079 231.620742 
L 296.075214 91.18844 
L 296.119386 99.298943 
L 296.347606 182.508452 
L 296.494845 170.638269 
L 296.619998 188.609063 
L 296.700979 184.329177 
L 296.752513 176.691589 
L 296.885028 147.370819 
L 296.9292 160.896206 
L 297.024905 199.911747 
L 297.091163 184.069073 
L 297.253126 122.069832 
L 297.319383 139.331253 
L 297.481346 209.417352 
L 297.53288 199.911747 
L 297.812634 115.51995 
L 297.878891 123.393996 
L 297.930425 146.661445 
L 298.092388 289.127285 
L 298.158645 249.307787 
L 298.36478 61.442046 
L 298.416313 78.230551 
L 298.777049 266.356396 
L 298.850668 228.806894 
L 299.049441 90.90469 
L 299.093613 98.1403 
L 299.321833 182.29564 
L 299.483796 172.151599 
L 299.527968 175.580237 
L 299.601587 189.105625 
L 299.682568 184.636572 
L 299.792998 156.119758 
L 299.866617 146.424988 
L 299.896065 155.646843 
L 299.999132 199.746227 
L 300.06539 185.629695 
L 300.227353 123.464933 
L 300.286248 135.193241 
L 300.455573 206.958191 
L 300.514469 196.033839 
L 300.801585 117.03328 
L 300.831032 119.397858 
L 300.89729 139.283961 
L 301.066615 288.914472 
L 301.147596 237.508541 
L 301.324283 60.07059 
L 301.383178 72.224522 
L 301.758638 265.505148 
L 301.810171 245.784565 
L 302.03103 90.762816 
L 302.089925 102.68029 
L 302.303422 181.893661 
L 302.391765 169.503271 
L 302.406489 168.060879 
L 302.472747 172.411702 
L 302.575814 189.436666 
L 302.678881 181.207934 
L 302.811396 145.597385 
L 302.885016 160.352353 
L 302.980721 199.533415 
L 303.046979 184.376468 
L 303.208942 125.451179 
L 303.267837 138.148964 
L 303.437162 204.357155 
L 303.488696 194.094885 
L 303.783173 118.333798 
L 303.842069 126.065969 
L 303.915689 172.127953 
L 304.048204 289.43468 
L 304.107099 259.404536 
L 304.305872 58.439031 
L 304.379491 81.801064 
L 304.732865 264.464733 
L 304.799122 238.07604 
L 305.012619 90.73917 
L 305.064152 100.954148 
L 305.285011 181.799078 
L 305.373354 169.101293 
L 305.388078 167.706192 
L 305.454336 172.48264 
L 305.542679 186.126256 
L 305.557403 189.885936 
L 305.645746 184.092719 
L 305.792985 144.911658 
L 305.859243 158.74444 
L 305.96231 198.800396 
L 306.021206 185.889798 
L 306.183169 126.940863 
L 306.249426 140.418959 
L 306.411389 201.496015 
L 306.455561 192.983533 
L 306.580714 162.22037 
L 306.764762 119.114109 
L 306.808934 125.309304 
L 306.86783 149.428002 
L 307.029793 290.380511 
L 307.09605 248.598413 
L 307.280099 57.351325 
L 307.346356 76.055139 
L 307.714454 263.708068 
L 307.758625 251.672365 
L 307.986846 90.951982 
L 308.082551 116.063803 
L 308.259238 181.56262 
L 308.310772 175.320134 
L 308.369667 167.091401 
L 308.435925 172.364411 
L 308.538992 190.004165 
L 308.627335 183.998136 
L 308.767212 144.415096 
L 308.83347 157.160173 
L 308.936537 198.374772 
L 308.995433 186.811984 
L 309.164757 128.217735 
L 309.238377 146.590508 
L 309.385616 198.989562 
L 309.429788 191.2101 
L 309.59175 154.630074 
L 309.738989 119.563379 
L 309.783161 124.954617 
L 309.864143 165.24703 
L 310.00402 291.184468 
L 310.062915 259.782869 
L 310.254326 56.334557 
L 310.335307 83.219811 
L 310.696043 262.714946 
L 310.754938 237.272084 
L 310.968435 91.022919 
L 311.012606 99.511755 
L 311.240827 181.302517 
L 311.36598 167.280568 
L 311.410152 172.151599 
L 311.513219 190.879059 
L 311.601562 185.062196 
L 311.741439 143.94218 
L 311.807697 156.474445 
L 311.910764 197.901856 
L 311.96966 187.45042 
L 312.138984 129.25815 
L 312.212604 146.212176 
L 312.345119 197.310711 
L 312.411377 189.011042 
L 312.484996 174.539823 
L 312.713216 119.634316 
L 312.794198 135.358761 
L 312.889903 220.436287 
L 312.978247 292.319465 
L 313.02978 268.035247 
L 313.228553 55.294142 
L 313.316896 87.286886 
L 313.67027 262.052864 
L 313.707079 252.26351 
L 313.942662 91.235731 
L 314.038367 119.870774 
L 314.207692 180.735018 
L 314.251864 175.249196 
L 314.318121 164.797761 
L 314.377017 171.5841 
L 314.472722 188.609063 
L 314.487446 191.635724 
L 314.568427 186.670109 
L 314.671495 156.190696 
L 314.715666 143.398327 
L 314.774562 153.353202 
L 314.884991 197.759981 
L 314.943887 187.166671 
L 315.113211 129.802003 
L 315.186831 147.016132 
L 315.319346 196.624984 
L 315.378242 189.176562 
L 315.481309 170.188999 
L 315.687443 119.421504 
L 315.746339 127.366487 
L 315.819958 173.99597 
L 315.952474 293.430817 
L 316.004007 265.576085 
L 316.20278 54.395602 
L 316.276399 81.304503 
L 316.637135 261.769114 
L 316.688668 244.933317 
L 316.909527 91.448543 
L 316.968422 103.507892 
L 317.174557 180.167519 
L 317.248176 168.179107 
L 317.284986 163.686409 
L 317.343882 171.13483 
L 317.439587 188.396251 
L 317.454311 192.392389 
L 317.542654 186.859276 
L 317.682531 143.32739 
L 317.756151 159.406522 
L 317.859218 197.570815 
L 317.918114 185.676986 
L 318.080077 129.518253 
L 318.146334 142.759891 
L 318.286211 197.074254 
L 318.352469 188.821875 
L 318.418726 176.265965 
L 318.551241 138.763754 
L 318.654308 118.783068 
L 318.69848 123.961494 
L 318.7721 158.271525 
L 318.919339 294.353002 
L 318.978234 258.955266 
L 319.169645 54.040916 
L 319.243264 80.453255 
L 319.604 261.485365 
L 319.64081 253.634965 
L 319.876392 91.755939 
L 319.986821 126.255135 
L 320.141422 179.670958 
L 320.192956 172.364411 
L 320.251851 162.95339 
L 320.303385 169.90525 
L 320.421176 192.841658 
L 320.516881 185.676986 
L 320.649396 143.563848 
L 320.715654 155.363093 
L 320.818721 197.168837 
L 320.884979 185.3223 
L 321.046942 129.068983 
L 321.113199 143.090932 
L 321.253076 198.422063 
L 321.319334 189.791353 
L 321.392953 175.107322 
L 321.621174 117.955466 
L 321.702155 134.24741 
L 321.790498 216.842128 
L 321.886204 294.991439 
L 321.937737 265.079524 
L 322.13651 54.18279 
L 322.210129 81.446377 
L 322.570865 261.509011 
L 322.615036 247.27425 
L 322.843257 92.181563 
L 322.916876 111.902145 
L 323.108287 179.410854 
L 323.174545 167.540671 
L 323.211354 162.551411 
L 323.27025 170.330874 
L 323.410127 192.628846 
L 323.491108 183.07595 
L 323.579452 152.809349 
L 323.616261 143.705723 
L 323.675157 153.187681 
L 323.785586 197.405294 
L 323.844482 186.008027 
L 324.006445 127.933986 
L 324.072702 141.695831 
L 324.234665 200.952162 
L 324.286199 191.233745 
L 324.455524 145.786551 
L 324.580677 116.985988 
L 324.624848 122.069832 
L 324.698468 156.947361 
L 324.845707 295.417063 
L 324.904602 259.475473 
L 325.096013 54.868518 
L 325.169632 80.051276 
L 325.530368 261.958281 
L 325.57454 247.368833 
L 325.80276 92.536249 
L 325.869018 109.513921 
L 326.06779 179.647312 
L 326.119324 171.13483 
L 326.170857 162.527765 
L 326.229753 169.999833 
L 326.347544 192.203222 
L 326.450611 183.383346 
L 326.546317 152.099975 
L 326.575765 144.273221 
L 326.63466 152.69112 
L 326.745089 197.192482 
L 326.803985 185.724278 
L 326.965948 126.728051 
L 327.032205 141.270207 
L 327.194168 203.860593 
L 327.245702 193.882073 
L 327.54018 115.780054 
L 327.621161 131.83554 
L 327.709505 215.09234 
L 327.80521 295.488 
L 327.856743 266.78202 
L 328.055516 56.334557 
L 328.129136 79.933047 
L 328.482509 262.998695 
L 328.541405 240.227806 
L 328.754901 92.394375 
L 328.806435 103.176852 
L 329.027293 179.978353 
L 329.108275 165.034218 
L 329.13036 162.977035 
L 329.174532 167.800775 
L 329.329133 191.612078 
L 329.380667 188.06521 
L 329.424838 180.924184 
L 329.564715 145.360927 
L 329.616249 162.622349 
L 329.69723 196.695921 
L 329.77085 182.035536 
L 329.925451 125.593053 
L 329.99907 145.573739 
L 330.153671 206.721733 
L 330.205205 196.624984 
L 330.492321 114.479536 
L 330.558578 123.110246 
L 330.646922 191.068225 
L 330.764713 294.825918 
L 330.816247 263.684423 
L 331.015019 58.509969 
L 331.088639 80.831587 
L 331.442012 264.441088 
L 331.50827 230.462098 
L 331.714404 92.08698 
L 331.751214 100.079254 
L 331.979434 180.49856 
L 332.07514 164.679532 
L 332.082502 163.7337 
L 332.141397 170.23629 
L 332.237103 185.180425 
L 332.281274 190.524372 
L 332.347532 186.149902 
L 332.524219 146.235821 
L 332.56839 161.203602 
L 332.656734 196.341234 
L 332.730353 180.427623 
L 332.877592 124.812742 
L 332.958573 146.945195 
L 333.105812 208.897145 
L 333.164708 198.871333 
L 333.444462 113.344538 
L 333.488634 117.860882 
L 333.584339 169.195876 
L 333.716854 293.714566 
L 333.77575 259.026203 
L 333.96716 60.850901 
L 334.04078 79.176382 
L 334.394153 265.836189 
L 334.467773 226.41867 
L 334.666545 91.614064 
L 334.703355 98.826028 
L 334.938937 181.042413 
L 335.034643 165.483488 
L 335.042005 165.010573 
L 335.086176 168.935772 
L 335.21133 189.460312 
L 335.284949 186.197194 
L 335.321759 181.515329 
L 335.388016 166.14557 
L 335.47636 147.607277 
L 335.513169 158.082358 
L 335.608875 195.229883 
L 335.682494 180.829601 
L 335.837095 124.103369 
L 335.918077 148.15113 
L 336.065316 210.575995 
L 336.124211 200.502892 
L 336.403965 111.902145 
L 336.455499 119.941711 
L 336.507032 140.418959 
L 336.676357 291.728321 
L 336.742615 245.902794 
L 336.941387 62.979021 
L 336.985559 74.25806 
L 337.353656 266.947541 
L 337.412552 237.886874 
L 337.618687 90.999274 
L 337.662858 99.109777 
L 337.891079 181.491683 
L 337.986784 167.091401 
L 337.994146 166.287445 
L 338.053041 171.347642 
L 338.119299 179.245334 
L 338.170833 188.34896 
L 338.259176 183.738032 
L 338.435863 148.813212 
L 338.465311 157.704026 
L 338.568378 194.898842 
L 338.634635 181.775432 
L 338.789236 123.346704 
L 338.862856 140.442605 
L 339.024819 211.545472 
L 339.083714 201.921639 
L 339.363468 110.838085 
L 339.437088 126.491593 
L 339.554879 236.657293 
L 339.628498 290.025824 
L 339.680032 265.694314 
L 339.90089 65.154433 
L 339.967148 85.040536 
L 340.305798 267.751497 
L 340.372055 236.586356 
L 340.57819 90.73917 
L 340.614999 96.981657 
L 340.850582 181.940953 
L 340.983097 168.864835 
L 341.056716 175.67482 
L 341.122974 187.663232 
L 341.203955 183.738032 
L 341.218679 182.508452 
L 341.388004 149.948209 
L 341.424814 159.311939 
L 341.527881 194.898842 
L 341.586777 183.832615 
L 341.748739 122.63733 
L 341.814997 136.020843 
L 341.97696 212.042034 
L 342.043217 203.15122 
L 342.322971 110.057774 
L 342.411315 133.206995 
L 342.588001 288.299682 
L 342.676345 222.706282 
L 342.860394 67.3062 
L 342.897203 73.903373 
L 343.221129 250.892054 
L 343.265301 268.035247 
L 343.316834 250.277264 
L 343.537693 90.857399 
L 343.60395 105.328618 
L 343.810085 182.29564 
L 343.876342 173.688575 
L 343.913152 168.770252 
L 343.986772 172.624515 
L 344.082477 187.048442 
L 344.178182 181.822724 
L 344.318059 150.421125 
L 344.384317 159.406522 
L 344.487384 195.986548 
L 344.553642 181.940953 
L 344.715604 122.046186 
L 344.789224 141.672185 
L 344.943825 212.538595 
L 345.010082 202.465492 
L 345.142597 148.907795 
L 345.282474 109.63215 
L 345.319284 113.746516 
L 345.422351 173.925033 
L 345.554867 287.377497 
L 345.6064 258.93162 
L 345.827259 68.866821 
L 345.886154 84.23658 
L 346.232166 268.413579 
L 346.313147 220.152537 
L 346.504558 90.928336 
L 346.541368 96.79249 
L 346.688607 160.565165 
L 346.77695 182.508452 
L 346.835845 175.343779 
L 346.880017 169.503271 
L 346.953637 173.050139 
L 347.034618 183.454283 
L 347.049342 186.930213 
L 347.137685 182.035536 
L 347.284924 150.563 
L 347.351182 160.730686 
L 347.454249 196.790504 
L 347.520507 181.799078 
L 347.675108 121.40775 
L 347.756089 141.530311 
L 347.91069 212.585887 
L 347.976947 202.536429 
L 348.131548 138.267193 
L 348.249339 110.034128 
L 348.286149 114.195786 
L 348.381855 166.713069 
L 348.521732 286.928227 
L 348.573265 258.198601 
L 348.794124 69.363383 
L 348.853019 84.331163 
L 349.199031 268.342642 
L 349.280012 221.831388 
L 349.471423 90.90469 
L 349.508233 96.059471 
L 349.743815 182.437514 
L 349.91314 173.144722 
L 349.949949 175.5093 
L 350.016207 186.83563 
L 350.089826 182.319285 
L 350.17817 168.486503 
L 350.251789 149.782689 
L 350.318047 159.64298 
L 350.421114 198.138314 
L 350.487372 183.950844 
L 350.649335 120.722022 
L 350.715592 135.31147 
L 350.877555 212.373075 
L 350.943812 202.678304 
L 351.113137 133.301578 
L 351.223566 110.932668 
L 351.260376 115.68547 
L 351.34872 162.66964 
L 351.488597 287.093747 
L 351.547492 255.242878 
L 351.760989 68.630363 
L 351.827246 85.678973 
L 352.173258 268.342642 
L 352.246877 227.459084 
L 352.44565 90.550004 
L 352.489822 97.998425 
L 352.651784 166.500257 
L 352.718042 182.177411 
L 352.776938 175.793049 
L 352.821109 170.401811 
L 352.894729 173.972324 
L 352.990434 187.119379 
L 353.078777 181.373454 
L 353.226016 148.647691 
L 353.292274 159.595688 
L 353.395341 199.367894 
L 353.461599 184.731155 
L 353.623562 120.722022 
L 353.697181 139.709585 
L 353.851782 211.592764 
L 353.918039 200.810287 
L 354.094726 131.078875 
L 354.197793 112.398707 
L 354.241965 118.641193 
L 354.300861 143.421973 
L 354.462824 287.566663 
L 354.529081 248.976746 
L 354.735216 66.85693 
L 354.786749 79.956693 
L 354.985522 185.558758 
L 355.147485 268.626391 
L 355.199018 249.23685 
L 355.419877 89.84063 
L 355.486134 103.909871 
L 355.699631 182.224702 
L 355.765888 173.262951 
L 355.795336 170.472748 
L 355.854232 174.350657 
L 355.861594 174.350657 
L 355.905765 178.181273 
L 355.964661 187.663232 
L 356.03828 183.07595 
L 356.156072 157.774963 
L 356.200243 147.299882 
L 356.266501 157.443922 
L 356.369568 200.384663 
L 356.435826 186.646463 
L 356.597789 120.982126 
L 356.664046 134.956783 
L 356.826009 209.937559 
L 356.884905 201.590598 
L 357.17202 114.053911 
L 357.223554 120.34369 
L 357.267726 135.997198 
L 357.444413 288.299682 
L 357.518032 237.792291 
L 357.716805 64.090373 
L 357.753614 73.666915 
L 358.129074 268.720974 
L 358.202693 228.54679 
L 358.401466 88.942091 
L 358.445637 96.934365 
L 358.673858 182.035536 
L 358.843183 174.89451 
L 358.938888 187.237608 
L 358.94625 188.680001 
L 359.019869 183.336054 
L 359.130299 159.572043 
L 359.181832 146.093947 
L 359.240728 153.802472 
L 359.351157 201.283203 
L 359.417415 186.528235 
L 359.579377 122.235352 
L 359.645635 137.155841 
L 359.807598 207.785793 
L 359.866493 197.783627 
L 360.153609 115.898282 
L 360.197781 120.225461 
L 360.264039 147.489048 
L 360.426001 289.387388 
L 360.492259 246.470293 
L 360.676308 61.773087 
L 360.742565 76.693575 
L 361.110663 269.19389 
L 361.17692 236.066149 
L 361.383055 87.925322 
L 361.434588 98.400403 
L 361.655447 181.964599 
L 361.758514 170.23629 
L 361.913115 185.913444 
L 361.927839 189.673124 
L 362.00882 182.697618 
L 362.075078 169.763375 
L 362.163421 144.698845 
L 362.222317 153.093098 
L 362.332746 201.543306 
L 362.391642 189.318437 
L 362.560966 124.008786 
L 362.634586 142.641662 
L 362.789187 204.3808 
L 362.84072 195.891964 
L 363.14256 117.127863 
L 363.208818 127.271904 
L 363.311885 217.622438 
L 363.40759 290.66426 
L 363.459124 263.518902 
L 363.657897 59.030176 
L 363.74624 86.81397 
L 364.092252 269.19389 
L 364.129061 259.428182 
L 364.364644 87.452406 
L 364.475073 121.40775 
L 364.637036 181.657203 
L 364.703293 173.877741 
L 364.740103 170.23629 
L 364.806361 175.178259 
L 364.887342 185.275008 
L 364.909428 190.193331 
L 364.983047 184.045427 
L 365.093477 158.389753 
L 365.14501 143.303744 
L 365.203906 152.147267 
L 365.314335 201.070391 
L 365.373231 189.885936 
L 365.542555 125.971386 
L 365.616175 143.114578 
L 365.770776 200.90487 
L 365.814947 193.101762 
L 365.910653 170.945664 
L 366.124149 118.002757 
L 366.175683 123.512224 
L 366.227217 148.198421 
L 366.389179 292.366757 
L 366.455437 249.000392 
L 366.639486 56.476431 
L 366.705743 75.984202 
L 367.073841 268.673683 
L 367.125374 250.821117 
L 367.346233 87.121365 
L 367.419852 105.115806 
L 367.618625 181.609912 
L 367.699606 171.796912 
L 367.721692 169.550563 
L 367.780588 174.516177 
L 367.832121 180.167519 
L 367.891017 190.879059 
L 367.964636 184.58928 
L 368.111875 145.28999 
L 368.126599 142.121455 
L 368.185495 152.667474 
L 368.295924 200.975808 
L 368.35482 190.051456 
L 368.524144 127.366487 
L 368.597764 143.658431 
L 368.752365 197.925502 
L 368.803898 189.696769 
L 368.995309 141.719477 
L 369.105738 118.452027 
L 369.14991 123.795974 
L 369.194082 138.834691 
L 369.370768 293.809149 
L 369.444388 238.288852 
L 369.621075 54.892164 
L 369.672608 69.150571 
L 370.055429 267.727851 
L 370.129049 230.864077 
L 370.327822 87.310532 
L 370.371993 95.208223 
L 370.600214 181.704495 
L 370.762177 174.043261 
L 370.857882 187.615941 
L 370.872606 191.517495 
L 370.953587 184.140011 
L 371.019845 169.00671 
L 371.108188 141.601248 
L 371.167084 153.991638 
L 371.277513 200.73935 
L 371.336408 189.86229 
L 371.505733 128.596068 
L 371.579353 144.533325 
L 371.733954 195.01707 
L 371.785487 187.828753 
L 372.079965 118.924943 
L 372.168309 137.013966 
L 372.278738 248.929454 
L 372.344995 294.991439 
L 372.396529 268.626391 
L 372.595302 53.851749 
L 372.676283 83.881893 
L 373.037018 266.6165 
L 373.088552 246.612168 
L 373.309411 87.71251 
L 373.360944 98.613216 
L 373.581803 181.184288 
L 373.662784 168.391919 
L 373.68487 166.949527 
L 373.729042 172.340765 
L 373.854195 191.966765 
L 373.920452 186.55188 
L 374.082415 141.36479 
L 374.156035 161.085373 
L 374.25174 200.171851 
L 374.317997 188.34896 
L 374.47996 129.139921 
L 374.55358 143.587494 
L 374.708181 193.480095 
L 374.759714 187.2849 
L 374.914315 156.498091 
L 375.054192 119.255984 
L 375.098364 123.701391 
L 375.164621 151.296019 
L 375.319222 295.417063 
L 375.38548 251.128512 
L 375.569529 53.568 
L 375.628424 71.751607 
L 376.011245 265.386919 
L 376.055417 250.608305 
L 376.283638 88.374592 
L 376.349895 105.754242 
L 376.548668 180.403977 
L 376.614925 169.834312 
L 376.651735 165.412551 
L 376.703269 172.104307 
L 376.82106 192.605201 
L 376.894679 186.906567 
L 377.005108 155.528614 
L 377.056642 141.719477 
L 377.115538 154.299033 
L 377.225967 199.509769 
L 377.284862 189.744061 
L 377.454187 129.849294 
L 377.527807 145.171761 
L 377.675046 192.936242 
L 377.733941 187.166671 
L 377.91799 142.736246 
L 378.028419 119.1614 
L 378.065229 122.590039 
L 378.153572 167.256922 
L 378.293449 295.062376 
L 378.344983 263.116924 
L 378.543756 54.301019 
L 378.610013 79.294611 
L 378.97811 263.849943 
L 379.000196 260.870575 
L 379.073816 204.593612 
L 379.250503 89.485944 
L 379.287312 96.248637 
L 379.515533 179.339917 
L 379.677496 172.742743 
L 379.795287 192.983533 
L 379.88363 184.518343 
L 380.023507 141.672185 
L 380.082403 153.30591 
L 380.192832 198.729458 
L 380.259089 187.403129 
L 380.421052 130.203981 
L 380.494672 145.360927 
L 380.649273 193.740198 
L 380.693444 187.923336 
L 380.737616 181.751787 
L 380.995284 119.019526 
L 381.061542 128.430547 
L 381.171971 227.530021 
L 381.252952 294.282065 
L 381.304486 269.548577 
L 381.503259 55.128622 
L 381.58424 84.945953 
L 381.944976 262.147447 
L 381.989147 248.409247 
L 382.217368 91.164794 
L 382.290987 111.381938 
L 382.482398 178.606897 
L 382.541293 168.935772 
L 382.585465 163.473597 
L 382.636999 171.513163 
L 382.75479 193.385511 
L 382.828409 187.970627 
L 382.938839 155.954238 
L 382.990372 142.168747 
L 383.049268 154.109867 
L 383.159697 197.854564 
L 383.218593 187.994273 
L 383.380555 130.369501 
L 383.454175 144.296867 
L 383.608776 195.891964 
L 383.660309 188.845521 
L 383.792824 160.612457 
L 383.954787 118.641193 
L 384.021045 126.893571 
L 384.124112 215.163277 
L 384.219817 293.549046 
L 384.271351 264.251921 
L 384.470124 56.216328 
L 384.543743 83.432623 
L 384.904479 260.515888 
L 384.94865 247.179667 
L 385.176871 92.819999 
L 385.25049 112.777039 
L 385.441901 178.157628 
L 385.500796 168.368274 
L 385.544968 163.024327 
L 385.596502 170.96931 
L 385.714293 192.794367 
L 385.795274 187.190316 
L 385.861532 171.465871 
L 385.949875 142.736246 
L 386.008771 153.353202 
L 386.1192 196.837796 
L 386.178096 186.83563 
L 386.340059 129.660128 
L 386.406316 141.81406 
L 386.568279 199.131437 
L 386.619813 190.713538 
L 386.803861 138.740108 
L 386.91429 117.671716 
L 386.9511 121.242229 
L 387.039444 165.601717 
L 387.179321 292.650506 
L 387.230854 262.40755 
L 387.429627 58.10799 
L 387.503246 84.118351 
L 387.85662 259.546411 
L 387.915515 238.170623 
L 388.129012 94.286037 
L 388.180546 104.950285 
L 388.394042 178.252211 
L 388.482385 164.088387 
L 388.497109 162.977035 
L 388.541281 167.635254 
L 388.673796 192.179577 
L 388.732692 189.2475 
L 388.850483 161.321831 
L 388.902016 143.823952 
L 388.968274 154.511845 
L 389.071341 196.152068 
L 389.137599 184.42376 
L 389.2922 128.903463 
L 389.365819 143.729368 
L 389.52042 203.222157 
L 389.571954 194.213114 
L 389.719193 153.518722 
L 389.851708 116.536719 
L 389.903241 119.941711 
L 389.998947 169.361397 
L 390.131462 291.799258 
L 390.190357 257.229124 
L 390.381768 60.51986 
L 390.455387 82.084814 
L 390.816123 260.019326 
L 390.867657 238.265207 
L 391.081153 94.877182 
L 391.132687 105.872471 
L 391.346183 179.056167 
L 391.434527 164.655886 
L 391.456612 163.166202 
L 391.493422 167.446088 
L 391.625937 191.2101 
L 391.692195 187.663232 
L 391.890967 145.715614 
L 391.942501 162.078496 
L 392.023482 194.922487 
L 392.097102 181.444391 
L 392.251703 127.91034 
L 392.332684 150.066438 
L 392.479923 206.650795 
L 392.538819 194.922487 
L 392.811211 114.645056 
L 392.862744 120.698376 
L 392.951088 167.517026 
L 393.083603 290.616969 
L 393.142498 258.293184 
L 393.333909 63.428291 
L 393.414891 84.662204 
L 393.760902 261.130678 
L 393.82716 232.046366 
L 394.033294 94.900828 
L 394.070104 102.041854 
L 394.305686 179.670958 
L 394.39403 164.963281 
L 394.408754 163.7337 
L 394.452925 168.935772 
L 394.578078 189.673124 
L 394.636974 187.095733 
L 394.732679 170.851081 
L 394.843108 147.394465 
L 394.88728 160.234125 
L 394.975624 193.834781 
L 395.056605 178.654189 
L 395.203844 127.0118 
L 395.284825 149.333419 
L 395.432064 209.157248 
L 395.498322 196.790504 
L 395.75599 112.422352 
L 395.844333 127.059092 
L 395.969487 242.876134 
L 396.035744 288.914472 
L 396.09464 258.269538 
L 396.308136 66.029327 
L 396.367032 84.331163 
L 396.713043 262.502134 
L 396.794025 218.166291 
L 396.985435 94.427912 
L 397.022245 101.568938 
L 397.257827 180.427623 
L 397.353533 165.365259 
L 397.360895 164.915989 
L 397.397704 167.729838 
L 397.530219 188.278022 
L 397.596477 185.416883 
L 397.79525 149.238836 
L 397.846783 163.237139 
L 397.927765 192.676138 
L 398.001384 179.481791 
L 398.155985 126.042323 
L 398.236966 148.032901 
L 398.384205 210.599641 
L 398.450463 200.762996 
L 398.487273 188.06521 
L 398.487273 188.06521 
" clip-path="url(#pbfe9aa733f)" style="fill: none; stroke: #1f77b4; stroke-width: 1.5; stroke-linecap: square"/>
   </g>
   <g id="patch_3">
    <path d="M 57.6 307.584 
L 57.6 41.472 
" style="fill: none; stroke: #000000; stroke-width: 0.8; stroke-linejoin: miter; stroke-linecap: square"/>
   </g>
   <g id="patch_4">
    <path d="M 414.72 307.584 
L 414.72 41.472 
" style="fill: none; stroke: #000000; stroke-width: 0.8; stroke-linejoin: miter; stroke-linecap: square"/>
   </g>
   <g id="patch_5">
    <path d="M 57.6 307.584 
L 414.72 307.584 
" style="fill: none; stroke: #000000; stroke-width: 0.8; stroke-linejoin: miter; stroke-linecap: square"/>
   </g>
   <g id="patch_6">
    <path d="M 57.6 41.472 
L 414.72 41.472 
" style="fill: none; stroke: #000000; stroke-width: 0.8; stroke-linejoin: miter; stroke-linecap: square"/>
   </g>
   <g id="text_14">
    <text style="font: 12px 'IPAexGothic'; text-anchor: middle" x="236.16" y="35.472" transform="rotate(-0 236.16 35.472)">"071_A2.wav"の波形グラフ</text>
   </g>
  </g>
 </g>
 <defs>
  <clipPath id="pbfe9aa733f">
   <rect x="57.6" y="41.472" width="357.12" height="266.112"/>
  </clipPath>
 </defs>
</svg>
