<?xml version="1.0" encoding="utf-8" standalone="no"?>
<!DOCTYPE svg PUBLIC "-//W3C//DTD SVG 1.1//EN"
  "http://www.w3.org/Graphics/SVG/1.1/DTD/svg11.dtd">
<svg xmlns:xlink="http://www.w3.org/1999/xlink" width="460.8pt" height="345.6pt" viewBox="0 0 460.8 345.6" xmlns="http://www.w3.org/2000/svg" version="1.1">
 <metadata>
  <rdf:RDF xmlns:dc="http://purl.org/dc/elements/1.1/" xmlns:cc="http://creativecommons.org/ns#" xmlns:rdf="http://www.w3.org/1999/02/22-rdf-syntax-ns#">
   <cc:Work>
    <dc:type rdf:resource="http://purl.org/dc/dcmitype/StillImage"/>
    <dc:date>2022-11-28T11:33:36.053151</dc:date>
    <dc:format>image/svg+xml</dc:format>
    <dc:creator>
     <cc:Agent>
      <dc:title>Matplotlib v3.6.2, https://matplotlib.org/</dc:title>
     </cc:Agent>
    </dc:creator>
   </cc:Work>
  </rdf:RDF>
 </metadata>
 <defs>
  <style type="text/css">*{stroke-linejoin: round; stroke-linecap: butt}</style>
 </defs>
 <g id="figure_1">
  <g id="patch_1">
   <path d="M 0 345.6 
L 460.8 345.6 
L 460.8 0 
L 0 0 
z
" style="fill: #ffffff"/>
  </g>
  <g id="axes_1">
   <g id="patch_2">
    <path d="M 57.6 307.584 
L 414.72 307.584 
L 414.72 41.472 
L 57.6 41.472 
z
" style="fill: #ffffff"/>
   </g>
   <g id="matplotlib.axis_1">
    <g id="xtick_1">
     <g id="line2d_1">
      <defs>
       <path id="mfcdda79dec" d="M 0 0 
L 0 3.5 
" style="stroke: #000000; stroke-width: 0.8"/>
      </defs>
      <g>
       <use xlink:href="#mfcdda79dec" x="73.832727" y="307.584" style="stroke: #000000; stroke-width: 0.8"/>
      </g>
     </g>
     <g id="text_1">
      <text style="font: 10px 'IPAexGothic'; text-anchor: middle" x="73.832727" y="322.074625" transform="rotate(-0 73.832727 322.074625)">0</text>
     </g>
    </g>
    <g id="xtick_2">
     <g id="line2d_2">
      <g>
       <use xlink:href="#mfcdda79dec" x="140.102281" y="307.584" style="stroke: #000000; stroke-width: 0.8"/>
      </g>
     </g>
     <g id="text_2">
      <text style="font: 10px 'IPAexGothic'; text-anchor: middle" x="140.102281" y="322.074625" transform="rotate(-0 140.102281 322.074625)">1000</text>
     </g>
    </g>
    <g id="xtick_3">
     <g id="line2d_3">
      <g>
       <use xlink:href="#mfcdda79dec" x="206.371835" y="307.584" style="stroke: #000000; stroke-width: 0.8"/>
      </g>
     </g>
     <g id="text_3">
      <text style="font: 10px 'IPAexGothic'; text-anchor: middle" x="206.371835" y="322.074625" transform="rotate(-0 206.371835 322.074625)">2000</text>
     </g>
    </g>
    <g id="xtick_4">
     <g id="line2d_4">
      <g>
       <use xlink:href="#mfcdda79dec" x="272.64139" y="307.584" style="stroke: #000000; stroke-width: 0.8"/>
      </g>
     </g>
     <g id="text_4">
      <text style="font: 10px 'IPAexGothic'; text-anchor: middle" x="272.64139" y="322.074625" transform="rotate(-0 272.64139 322.074625)">3000</text>
     </g>
    </g>
    <g id="xtick_5">
     <g id="line2d_5">
      <g>
       <use xlink:href="#mfcdda79dec" x="338.910944" y="307.584" style="stroke: #000000; stroke-width: 0.8"/>
      </g>
     </g>
     <g id="text_5">
      <text style="font: 10px 'IPAexGothic'; text-anchor: middle" x="338.910944" y="322.074625" transform="rotate(-0 338.910944 322.074625)">4000</text>
     </g>
    </g>
    <g id="xtick_6">
     <g id="line2d_6">
      <g>
       <use xlink:href="#mfcdda79dec" x="405.180498" y="307.584" style="stroke: #000000; stroke-width: 0.8"/>
      </g>
     </g>
     <g id="text_6">
      <text style="font: 10px 'IPAexGothic'; text-anchor: middle" x="405.180498" y="322.074625" transform="rotate(-0 405.180498 322.074625)">5000</text>
     </g>
    </g>
    <g id="text_7">
     <text style="font: 10px 'IPAexGothic'; text-anchor: middle" x="236.16" y="335.924625" transform="rotate(-0 236.16 335.924625)">周波数[Hz]</text>
    </g>
   </g>
   <g id="matplotlib.axis_2">
    <g id="ytick_1">
     <g id="line2d_7">
      <defs>
       <path id="m7db655947b" d="M 0 0 
L -3.5 0 
" style="stroke: #000000; stroke-width: 0.8"/>
      </defs>
      <g>
       <use xlink:href="#m7db655947b" x="57.6" y="295.488756" style="stroke: #000000; stroke-width: 0.8"/>
      </g>
     </g>
     <g id="text_8">
      <text style="font: 10px 'IPAexGothic'; text-anchor: end" x="50.6" y="299.234068" transform="rotate(-0 50.6 299.234068)">0.0</text>
     </g>
    </g>
    <g id="ytick_2">
     <g id="line2d_8">
      <g>
       <use xlink:href="#m7db655947b" x="57.6" y="261.63113" style="stroke: #000000; stroke-width: 0.8"/>
      </g>
     </g>
     <g id="text_9">
      <text style="font: 10px 'IPAexGothic'; text-anchor: end" x="50.6" y="265.376443" transform="rotate(-0 50.6 265.376443)">0.2</text>
     </g>
    </g>
    <g id="ytick_3">
     <g id="line2d_9">
      <g>
       <use xlink:href="#m7db655947b" x="57.6" y="227.773505" style="stroke: #000000; stroke-width: 0.8"/>
      </g>
     </g>
     <g id="text_10">
      <text style="font: 10px 'IPAexGothic'; text-anchor: end" x="50.6" y="231.518818" transform="rotate(-0 50.6 231.518818)">0.4</text>
     </g>
    </g>
    <g id="ytick_4">
     <g id="line2d_10">
      <g>
       <use xlink:href="#m7db655947b" x="57.6" y="193.91588" style="stroke: #000000; stroke-width: 0.8"/>
      </g>
     </g>
     <g id="text_11">
      <text style="font: 10px 'IPAexGothic'; text-anchor: end" x="50.6" y="197.661192" transform="rotate(-0 50.6 197.661192)">0.6</text>
     </g>
    </g>
    <g id="ytick_5">
     <g id="line2d_11">
      <g>
       <use xlink:href="#m7db655947b" x="57.6" y="160.058255" style="stroke: #000000; stroke-width: 0.8"/>
      </g>
     </g>
     <g id="text_12">
      <text style="font: 10px 'IPAexGothic'; text-anchor: end" x="50.6" y="163.803567" transform="rotate(-0 50.6 163.803567)">0.8</text>
     </g>
    </g>
    <g id="ytick_6">
     <g id="line2d_12">
      <g>
       <use xlink:href="#m7db655947b" x="57.6" y="126.200629" style="stroke: #000000; stroke-width: 0.8"/>
      </g>
     </g>
     <g id="text_13">
      <text style="font: 10px 'IPAexGothic'; text-anchor: end" x="50.6" y="129.945942" transform="rotate(-0 50.6 129.945942)">1.0</text>
     </g>
    </g>
    <g id="ytick_7">
     <g id="line2d_13">
      <g>
       <use xlink:href="#m7db655947b" x="57.6" y="92.343004" style="stroke: #000000; stroke-width: 0.8"/>
      </g>
     </g>
     <g id="text_14">
      <text style="font: 10px 'IPAexGothic'; text-anchor: end" x="50.6" y="96.088317" transform="rotate(-0 50.6 96.088317)">1.2</text>
     </g>
    </g>
    <g id="ytick_8">
     <g id="line2d_14">
      <g>
       <use xlink:href="#m7db655947b" x="57.6" y="58.485379" style="stroke: #000000; stroke-width: 0.8"/>
      </g>
     </g>
     <g id="text_15">
      <text style="font: 10px 'IPAexGothic'; text-anchor: end" x="50.6" y="62.230691" transform="rotate(-0 50.6 62.230691)">1.4</text>
     </g>
    </g>
    <g id="text_16">
     <text style="font: 10px 'IPAexGothic'; text-anchor: middle" x="29.460938" y="174.528" transform="rotate(-90 29.460938 174.528)">振幅</text>
    </g>
    <g id="text_17">
     <text style="font: 10px 'IPAexGothic'; text-anchor: start" x="57.6" y="38.472" transform="rotate(-0 57.6 38.472)">1e7</text>
    </g>
   </g>
   <g id="line2d_15">
    <path d="M 73.832727 289.169179 
L 73.965266 294.684908 
L 74.097805 294.71783 
L 74.362884 294.921389 
L 75.025579 294.923673 
L 75.953353 294.89855 
L 76.085892 294.90346 
L 76.152162 294.994995 
L 76.218431 294.930075 
L 76.284701 294.830168 
L 76.35097 294.9135 
L 76.483509 294.882032 
L 76.682318 294.742718 
L 76.814857 294.96028 
L 76.881127 294.895551 
L 76.947396 294.501776 
L 77.013666 294.599254 
L 77.079935 294.877206 
L 77.146205 294.72349 
L 77.212475 294.088565 
L 77.278744 294.425718 
L 77.411283 294.537473 
L 77.543822 293.830955 
L 77.610092 294.148779 
L 77.676361 294.04971 
L 77.87517 291.648049 
L 77.94144 291.939511 
L 78.007709 292.741075 
L 78.073979 292.216431 
L 78.140248 292.527176 
L 78.272787 291.50908 
L 78.405327 293.083432 
L 78.670405 289.380285 
L 78.736674 293.850747 
L 78.802944 290.92592 
L 78.869213 291.116183 
L 78.935483 292.546565 
L 79.200561 282.635162 
L 79.266831 293.055382 
L 79.3331 288.385962 
L 79.465639 282.094257 
L 79.664448 287.352299 
L 79.796987 289.549817 
L 79.863257 288.905558 
L 80.062065 291.914574 
L 80.194604 290.238854 
L 80.393413 282.66214 
L 80.525952 285.422157 
L 80.724761 282.563042 
L 80.8573 276.662497 
L 80.989839 260.090116 
L 81.122378 53.568 
L 81.254917 263.352449 
L 81.321187 268.062473 
L 81.387456 282.646367 
L 81.453726 279.663043 
L 81.519996 278.60077 
L 81.586265 282.353111 
L 81.652535 278.969389 
L 81.851343 289.312674 
L 81.917613 289.060031 
L 82.182691 294.346496 
L 82.248961 291.68911 
L 82.31523 293.006916 
L 82.3815 293.096471 
L 82.447769 292.778611 
L 82.646578 294.353869 
L 82.712848 294.740912 
L 82.779117 294.214257 
L 82.845387 294.464637 
L 82.911656 294.506788 
L 82.977926 294.3948 
L 83.044195 293.656117 
L 83.110465 293.892945 
L 83.176734 293.747382 
L 83.309274 292.341908 
L 83.375543 292.572225 
L 83.508082 293.81711 
L 83.640621 292.961631 
L 83.706891 293.639387 
L 83.77316 293.527518 
L 83.905699 293.664471 
L 83.971969 293.542976 
L 84.038239 293.59234 
L 84.104508 293.729716 
L 84.303317 295.200484 
L 84.568395 293.826455 
L 84.700934 293.294995 
L 84.767204 293.5575 
L 84.833473 293.694888 
L 84.966012 292.002839 
L 85.098551 290.03266 
L 85.496169 294.4083 
L 85.694977 293.434246 
L 85.893786 294.69383 
L 85.960056 294.603543 
L 86.225134 295.176466 
L 86.357673 294.041984 
L 86.423943 294.313884 
L 86.556482 295.127884 
L 86.622751 294.905778 
L 86.75529 294.423946 
L 87.020369 292.016383 
L 87.152908 288.869858 
L 87.285447 291.975689 
L 87.351716 291.592009 
L 87.484255 294.029888 
L 87.550525 294.005601 
L 87.616795 293.671176 
L 87.881873 287.479601 
L 87.948142 287.812743 
L 88.014412 284.519003 
L 88.213221 255.657572 
L 88.34576 123.158679 
L 88.412029 199.492043 
L 88.610838 267.193431 
L 88.809646 285.809131 
L 88.942186 281.661477 
L 89.008455 285.046278 
L 89.207264 278.762237 
L 89.406072 290.212612 
L 89.538612 287.060954 
L 89.671151 290.610454 
L 89.73742 290.579127 
L 89.869959 290.432915 
L 90.002498 293.172097 
L 90.068768 292.885631 
L 90.135038 291.580789 
L 90.333846 293.155721 
L 90.532655 294.237869 
L 90.797733 292.698369 
L 90.996542 294.543565 
L 91.062811 294.580825 
L 91.26162 293.696308 
L 91.394159 293.746 
L 91.460429 293.964271 
L 91.526698 293.770653 
L 91.592968 293.94805 
L 91.725507 293.459956 
L 91.858046 294.112118 
L 91.924316 293.967018 
L 91.990585 294.148554 
L 92.056855 294.001046 
L 92.321933 292.736884 
L 92.388202 292.584662 
L 92.587011 293.575185 
L 92.653281 293.442549 
L 92.78582 292.825018 
L 92.852089 292.952595 
L 92.918359 292.293918 
L 92.984628 292.461145 
L 93.050898 292.658664 
L 93.315976 290.075382 
L 93.382246 289.837944 
L 93.581054 292.048202 
L 93.647324 291.598852 
L 93.846133 289.396252 
L 93.978672 289.86454 
L 94.111211 292.697544 
L 94.17748 292.390853 
L 94.376289 289.484078 
L 94.442559 289.816814 
L 94.508828 291.118411 
L 94.575098 289.033032 
L 94.641367 289.308509 
L 94.707637 290.102265 
L 94.773906 293.168863 
L 94.840176 292.451398 
L 95.038985 291.34237 
L 95.171524 293.19596 
L 95.436602 275.392276 
L 95.569141 246.101451 
L 95.70168 95.541091 
L 95.834219 275.132815 
L 96.033028 288.024819 
L 96.298106 286.561277 
L 96.364376 286.951381 
L 96.496915 290.480972 
L 96.563184 290.210999 
L 96.629454 288.964541 
L 96.828263 291.54236 
L 96.894532 291.774129 
L 96.960802 292.696241 
L 97.027071 292.129579 
L 97.093341 292.461443 
L 97.22588 291.360218 
L 97.358419 292.999709 
L 97.424689 292.916882 
L 97.557228 293.764681 
L 97.623497 293.549624 
L 97.822306 294.358112 
L 97.888575 294.168501 
L 97.954845 294.176949 
L 98.153654 294.710193 
L 98.286193 294.172233 
L 98.485001 294.55666 
L 98.551271 294.374899 
L 98.61754 294.379313 
L 98.882619 293.549505 
L 98.948888 293.749119 
L 99.015158 293.253694 
L 99.081427 293.311461 
L 99.280236 293.77245 
L 99.479045 293.15649 
L 99.545314 293.184555 
L 99.611584 292.794186 
L 99.744123 293.236941 
L 100.075471 291.478918 
L 100.14174 291.736345 
L 100.20801 291.540789 
L 100.274279 291.712818 
L 100.340549 293.471483 
L 100.406818 292.609351 
L 100.473088 292.986344 
L 100.539358 292.72849 
L 100.605627 292.529932 
L 100.671897 292.910303 
L 100.738166 292.60876 
L 100.804436 292.902439 
L 101.135784 291.704712 
L 101.268323 290.842449 
L 101.334592 290.916873 
L 101.533401 289.12159 
L 101.59967 289.461217 
L 101.66594 289.657576 
L 101.73221 289.349072 
L 101.798479 290.748659 
L 101.864749 289.529051 
L 101.931018 291.984883 
L 101.997288 289.413522 
L 102.063557 291.030904 
L 102.129827 291.379245 
L 102.328636 288.783684 
L 102.394905 289.776903 
L 102.461175 290.400848 
L 102.792522 279.4412 
L 102.858792 272.020164 
L 102.991331 220.901762 
L 103.12387 288.38713 
L 103.322679 293.7147 
L 103.455218 292.030914 
L 103.720296 293.453889 
L 103.985374 294.224349 
L 104.117913 294.72863 
L 104.184183 294.225453 
L 104.250453 294.441612 
L 104.316722 294.629149 
L 104.382992 294.548103 
L 104.515531 294.222514 
L 104.5818 293.99274 
L 104.64807 294.096955 
L 104.913148 295.174587 
L 104.979418 295.240978 
L 105.045687 295.132592 
L 105.178226 294.777915 
L 105.244496 294.72292 
L 105.509574 295.432698 
L 105.907191 295.05213 
L 106.039731 294.708258 
L 106.238539 295.062953 
L 106.304809 295.078983 
L 106.371078 294.559022 
L 106.437348 294.710843 
L 106.569887 294.963713 
L 106.702426 294.956079 
L 106.768696 295.084471 
L 106.834965 295.005606 
L 107.497661 294.978667 
L 107.6302 294.564181 
L 107.762739 293.755293 
L 107.961548 294.777737 
L 108.094087 294.545165 
L 108.160356 294.737451 
L 108.425435 293.565219 
L 108.624243 293.969621 
L 108.690513 293.881949 
L 109.08813 291.420076 
L 109.1544 292.78546 
L 109.220669 292.246113 
L 109.286939 293.109419 
L 109.353208 292.590752 
L 109.419478 293.168734 
L 109.485747 292.752916 
L 109.552017 293.402431 
L 109.618286 292.733747 
L 109.750826 289.999142 
L 109.817095 291.00538 
L 110.015904 286.78145 
L 110.148443 266.455197 
L 110.280982 163.534053 
L 110.413521 274.670819 
L 110.61233 287.901667 
L 110.678599 288.296884 
L 110.943678 291.690601 
L 111.009947 291.834429 
L 111.076217 291.604672 
L 111.208756 292.446349 
L 111.275025 293.698618 
L 111.341295 292.567515 
L 111.407564 292.65961 
L 111.540104 293.765904 
L 111.672643 293.251805 
L 111.738912 294.604988 
L 111.805182 294.47777 
L 111.871451 294.376652 
L 111.937721 294.436895 
L 112.13653 295.093437 
L 112.269069 294.880278 
L 112.401608 295.167164 
L 112.467877 295.07904 
L 112.600416 295.142304 
L 112.732956 295.010228 
L 112.799225 295.100946 
L 112.931764 295.264391 
L 113.329382 295.070027 
L 113.52819 295.137716 
L 113.59446 295.043303 
L 113.726999 295.400117 
L 113.992077 295.152153 
L 114.323425 295.192343 
L 114.389694 295.366011 
L 114.455964 295.315645 
L 114.721042 294.869231 
L 114.787312 294.929198 
L 114.853581 294.740142 
L 114.98612 295.097258 
L 115.251199 294.596728 
L 115.317468 294.705941 
L 115.383738 294.390128 
L 115.450007 294.601725 
L 115.648816 294.909103 
L 115.715085 295.06155 
L 116.178972 293.903136 
L 116.245242 294.010213 
L 116.444051 295.060464 
L 116.642859 294.566623 
L 116.907937 293.059474 
L 116.974207 293.200081 
L 117.173016 291.050082 
L 117.239285 291.167859 
L 117.504363 271.500376 
L 117.570633 206.90102 
L 117.703172 285.867655 
L 117.96825 293.682787 
L 118.167059 294.436165 
L 118.233329 294.122088 
L 118.365868 294.562223 
L 118.432137 294.120097 
L 118.498407 294.342706 
L 118.564676 294.614576 
L 118.630946 294.356904 
L 118.697215 294.646413 
L 118.763485 294.570682 
L 119.094833 294.336985 
L 119.293641 295.195972 
L 119.42618 295.315882 
L 119.49245 295.400657 
L 119.890067 294.818643 
L 120.287685 295.387937 
L 120.420224 295.382522 
L 120.486493 295.468467 
L 120.552763 295.405145 
L 121.01665 295.11044 
L 121.082919 295.134926 
L 121.215458 294.855692 
L 121.414267 295.105331 
L 121.480537 295.05383 
L 121.613076 295.142253 
L 121.745615 295.060458 
L 121.878154 295.158285 
L 121.944424 295.02735 
L 122.010693 294.424179 
L 122.076963 294.499138 
L 122.209502 294.285171 
L 122.342041 294.850405 
L 122.739658 293.946957 
L 122.805928 293.588963 
L 122.872197 294.092749 
L 122.938467 294.066691 
L 123.004736 293.888272 
L 123.071006 293.124614 
L 123.137276 293.200664 
L 123.203545 293.581359 
L 123.336084 292.640409 
L 123.468623 293.378765 
L 123.534893 292.292417 
L 123.601162 292.557398 
L 123.799971 294.049456 
L 123.866241 292.745266 
L 123.93251 292.771548 
L 123.99878 292.829345 
L 124.197588 290.952657 
L 124.462667 291.804034 
L 124.727745 286.735903 
L 124.926553 263.902555 
L 125.125362 290.972975 
L 125.39044 287.093328 
L 125.45671 290.146397 
L 125.522979 289.372058 
L 125.589249 288.493085 
L 125.721788 290.857967 
L 125.788058 290.810784 
L 125.854327 290.604569 
L 126.053136 291.417807 
L 126.119405 292.149881 
L 126.185675 292.089871 
L 126.583292 293.994372 
L 126.649562 293.640594 
L 126.715831 293.063061 
L 126.782101 293.316998 
L 126.91464 294.233984 
L 126.98091 294.154021 
L 127.047179 293.932054 
L 127.113449 294.240553 
L 127.179718 294.035032 
L 127.312257 294.516841 
L 127.378527 293.902578 
L 127.444797 294.169144 
L 127.511066 294.512646 
L 127.577336 294.42728 
L 127.643605 294.072251 
L 127.709875 294.286893 
L 127.776144 294.392086 
L 127.842414 294.313318 
L 127.974953 294.548225 
L 128.041223 294.295586 
L 128.107492 294.374171 
L 128.173762 294.783639 
L 128.240031 294.733915 
L 128.637648 295.253877 
L 128.902727 295.055681 
L 129.035266 294.994511 
L 129.167805 294.837183 
L 129.234074 294.983334 
L 129.300344 294.891166 
L 129.631692 294.095381 
L 129.697961 294.116041 
L 129.764231 294.548812 
L 129.8305 294.105541 
L 129.89677 294.326638 
L 130.029309 294.714583 
L 130.161848 293.812488 
L 130.228118 293.919477 
L 130.360657 294.066936 
L 130.426926 294.189013 
L 130.493196 293.895096 
L 130.559466 294.113098 
L 130.625735 293.796943 
L 130.824544 294.443077 
L 130.957083 294.267415 
L 131.089622 294.504024 
L 131.288431 294.238192 
L 131.553509 295.146554 
L 131.619778 295.319164 
L 131.686048 295.245981 
L 131.752318 295.211888 
L 131.951126 294.116239 
L 132.083665 295.08956 
L 132.149935 294.294269 
L 132.216204 279.715497 
L 132.348744 293.807692 
L 132.481283 294.087755 
L 132.613822 292.901175 
L 132.680091 293.468683 
L 132.746361 293.027221 
L 132.94517 293.943971 
L 133.011439 293.582322 
L 133.077709 293.660648 
L 133.276517 294.471245 
L 133.342787 294.525705 
L 133.409056 294.790701 
L 133.475326 294.752175 
L 133.541596 294.647091 
L 133.607865 294.866876 
L 133.674135 294.792609 
L 133.806674 294.498387 
L 133.872943 294.343445 
L 133.939213 294.506287 
L 134.071752 294.127454 
L 134.138021 294.214876 
L 134.204291 294.210823 
L 134.469369 295.152656 
L 134.734447 295.076727 
L 134.800717 295.08247 
L 135.065795 294.581522 
L 135.198334 294.758162 
L 135.264604 294.539194 
L 135.330873 294.642144 
L 135.397143 294.757402 
L 135.463413 294.668709 
L 135.595952 294.452763 
L 135.662221 294.480787 
L 135.86103 294.241875 
L 136.192378 295.253297 
L 136.258647 295.09243 
L 136.324917 294.522534 
L 136.523725 295.276276 
L 136.589995 295.327135 
L 136.788804 295.057296 
L 136.855073 295.10895 
L 137.584038 294.566572 
L 137.650308 294.709701 
L 137.782847 294.210918 
L 137.849117 294.30414 
L 137.915386 294.318489 
L 137.981656 294.499351 
L 138.047925 294.118103 
L 138.114195 294.464328 
L 138.180464 294.17787 
L 138.379273 292.784948 
L 138.511812 293.483971 
L 138.710621 292.586025 
L 138.84316 290.526267 
L 138.975699 287.501996 
L 139.041968 291.569187 
L 139.108238 289.183067 
L 139.174508 289.644202 
L 139.439586 280.793497 
L 139.505855 255.835609 
L 139.572125 130.108394 
L 139.770934 284.051207 
L 139.969742 289.616869 
L 140.168551 292.150808 
L 140.23482 292.00935 
L 140.30109 291.384015 
L 140.499899 293.660027 
L 140.566168 293.261897 
L 140.632438 293.346265 
L 140.764977 293.905993 
L 140.897516 294.451211 
L 140.963786 294.060791 
L 141.030055 294.499488 
L 141.162594 293.965421 
L 141.228864 294.124357 
L 141.295133 294.055154 
L 141.361403 294.078987 
L 141.626481 295.062373 
L 141.692751 294.991833 
L 141.82529 295.290217 
L 141.891559 295.194358 
L 141.957829 294.762853 
L 142.024098 294.80541 
L 142.222907 295.189482 
L 142.421716 294.965327 
L 142.554255 294.973424 
L 142.620524 294.725448 
L 142.686794 294.870201 
L 142.753064 294.882211 
L 142.951872 295.122968 
L 143.018142 295.079538 
L 143.084411 294.371482 
L 143.150681 294.595779 
L 143.34949 294.891673 
L 143.415759 294.782888 
L 143.482029 294.855245 
L 143.813376 294.99531 
L 143.879646 294.6699 
L 144.078455 295.115699 
L 144.210994 295.303709 
L 144.409802 295.138596 
L 144.476072 295.222035 
L 144.542341 295.016624 
L 144.608611 295.101622 
L 144.80742 295.223088 
L 144.939959 295.451827 
L 145.470115 294.468546 
L 145.536385 294.469031 
L 145.602654 294.301427 
L 145.668924 293.547237 
L 145.735193 294.038966 
L 145.801463 294.095441 
L 145.867733 294.516493 
L 146.000272 294.164704 
L 146.066541 294.333721 
L 146.397889 292.165772 
L 146.464159 292.55113 
L 146.530428 292.698354 
L 146.662967 290.678457 
L 146.795506 283.429209 
L 146.861776 275.629151 
L 146.928045 202.99487 
L 147.126854 286.2772 
L 147.524471 292.835635 
L 147.988358 293.932244 
L 148.054628 293.86359 
L 148.120897 293.943341 
L 148.187167 293.923544 
L 148.253437 293.673363 
L 148.319706 293.906893 
L 148.452245 293.531214 
L 148.518515 294.052689 
L 148.584784 294.019448 
L 148.717323 294.05387 
L 148.783593 294.526159 
L 148.849862 294.441624 
L 148.916132 294.579239 
L 148.982402 294.28142 
L 149.048671 294.377487 
L 149.313749 294.805274 
L 149.380019 294.711012 
L 149.512558 294.891366 
L 149.578828 294.806062 
L 149.645097 295.050742 
L 149.711367 295.031799 
L 149.777636 295.041438 
L 149.976445 294.502844 
L 150.042714 294.555955 
L 150.108984 294.805689 
L 150.175254 294.626136 
L 150.374062 294.778225 
L 150.506601 294.534718 
L 150.572871 294.761155 
L 150.63914 294.65278 
L 151.368106 295.125187 
L 151.500645 294.893106 
L 151.566914 295.068965 
L 151.699453 294.986642 
L 151.765723 294.857065 
L 151.831992 294.938791 
L 151.898262 294.938147 
L 152.097071 295.272753 
L 152.494688 294.908481 
L 152.759766 295.163634 
L 152.826036 295.029042 
L 152.958575 294.834976 
L 153.024844 294.892855 
L 153.356192 295.287216 
L 153.422462 295.185416 
L 153.68754 294.63005 
L 153.820079 295.119769 
L 153.886349 295.103457 
L 154.085157 294.006353 
L 154.151427 292.766649 
L 154.217696 293.677812 
L 154.283966 290.035136 
L 154.350235 264.10888 
L 154.482775 291.678741 
L 154.549044 292.070177 
L 154.615314 293.37255 
L 154.681583 293.19572 
L 154.747853 293.147537 
L 155.012931 294.420458 
L 155.079201 294.247671 
L 155.410548 295.063871 
L 155.543087 294.956348 
L 155.609357 295.044225 
L 155.741896 295.079285 
L 156.073244 294.997356 
L 156.205783 295.089653 
L 156.66967 295.313957 
L 156.934748 295.376872 
L 157.133557 295.092797 
L 157.266096 294.982727 
L 157.464905 295.090958 
L 158.061331 295.408538 
L 158.19387 295.348968 
L 158.392678 295.289814 
L 158.790296 295.007218 
L 159.519261 295.38841 
L 160.115687 294.963891 
L 160.248226 295.2086 
L 160.314495 295.083427 
L 160.447034 295.154678 
L 160.579574 294.804854 
L 160.645843 294.892825 
L 160.712113 294.733636 
L 160.778382 294.907629 
L 160.844652 294.83576 
L 160.977191 294.084471 
L 161.04346 294.502921 
L 161.10973 294.213654 
L 161.242269 293.292397 
L 161.308539 294.159606 
L 161.374808 293.780457 
L 161.441078 293.296543 
L 161.639886 287.291652 
L 161.706156 274.114176 
L 161.772426 290.067851 
L 161.838695 284.040486 
L 162.037504 292.375812 
L 162.103773 292.531432 
L 162.302582 293.818006 
L 162.368852 293.44715 
L 162.435121 293.689495 
L 162.56766 294.070835 
L 162.63393 293.761149 
L 162.766469 294.265093 
L 162.832738 293.794213 
L 162.899008 294.373853 
L 162.965278 294.323023 
L 163.097817 293.994059 
L 163.230356 294.720506 
L 163.561704 294.631126 
L 163.627973 294.566777 
L 163.760512 294.667383 
L 163.893051 294.564952 
L 164.09186 294.927341 
L 164.224399 294.881547 
L 164.489477 294.742931 
L 164.622016 294.949363 
L 164.688286 294.896965 
L 164.754555 295.096107 
L 164.820825 295.055488 
L 165.682329 295.202296 
L 165.881138 295.364633 
L 166.013677 295.317265 
L 166.146216 295.416631 
L 166.345025 295.187165 
L 166.411294 295.24464 
L 166.543833 295.218806 
L 166.610103 295.192348 
L 166.742642 295.329621 
L 166.941451 295.204183 
L 167.140259 295.356626 
L 167.272799 295.16116 
L 167.537877 295.388436 
L 167.670416 295.006036 
L 167.935494 295.17764 
L 168.068033 295.078369 
L 168.333111 295.148736 
L 168.53192 294.810069 
L 168.59819 294.055383 
L 168.664459 294.401926 
L 168.730729 294.999861 
L 168.796998 294.926023 
L 168.929537 294.492726 
L 168.995807 294.119252 
L 169.128346 289.635263 
L 169.194616 274.582846 
L 169.327155 292.004069 
L 169.592233 294.748883 
L 169.658502 294.34686 
L 169.923581 295.250023 
L 170.05612 295.320152 
L 170.188659 294.973205 
L 170.586276 295.300617 
L 170.652546 295.231249 
L 170.718815 295.312562 
L 171.182702 295.322299 
L 171.51405 295.484166 
L 171.845398 295.268037 
L 171.977937 295.345678 
L 172.905711 295.349589 
L 173.104519 295.01518 
L 173.170789 295.163096 
L 173.369598 295.415164 
L 173.568406 295.239467 
L 173.899754 295.05583 
L 174.032293 295.070302 
L 174.164832 295.159344 
L 174.297371 294.934292 
L 174.363641 295.0409 
L 174.562449 294.704076 
L 174.761258 295.118009 
L 175.158875 294.942549 
L 175.556493 292.117173 
L 175.821571 295.176014 
L 175.95411 294.733562 
L 176.086649 295.160321 
L 176.285458 294.332632 
L 176.749345 284.338336 
L 177.014423 294.518624 
L 177.080693 293.679819 
L 177.146962 294.018823 
L 177.213232 294.813427 
L 177.41204 293.453248 
L 177.47831 293.387566 
L 177.544579 293.657543 
L 177.743388 292.754625 
L 177.942197 294.287817 
L 178.008466 294.277682 
L 178.074736 294.328086 
L 178.207275 294.694525 
L 178.273545 294.554605 
L 178.339814 293.792543 
L 178.406084 294.145075 
L 178.472353 293.982364 
L 178.538623 294.267782 
L 178.604892 293.973164 
L 178.671162 294.210626 
L 178.737431 294.08175 
L 178.86997 293.99052 
L 179.135049 294.777859 
L 179.466396 295.205418 
L 179.532666 295.139177 
L 179.665205 294.730257 
L 179.731475 294.791245 
L 179.930283 295.04276 
L 180.062822 294.958562 
L 180.129092 295.038573 
L 180.195362 294.952845 
L 180.261631 294.861919 
L 180.327901 294.925544 
L 180.592979 295.073883 
L 180.725518 294.913662 
L 180.791788 295.043787 
L 180.858057 295.114172 
L 180.924327 294.979725 
L 181.123135 295.1743 
L 181.255674 295.205573 
L 181.454483 295.087366 
L 181.653292 295.196938 
L 181.91837 295.082294 
L 181.98464 295.174235 
L 182.050909 295.117143 
L 182.183448 295.035631 
L 182.448526 295.436454 
L 182.514796 295.324213 
L 182.779874 295.080495 
L 182.912413 295.298577 
L 183.3763 294.158715 
L 183.508839 293.214975 
L 183.575109 293.294113 
L 183.641378 293.27517 
L 183.840187 294.005652 
L 183.906457 293.576502 
L 184.038996 290.98906 
L 184.171535 277.683235 
L 184.237804 269.084651 
L 184.370343 289.230084 
L 184.502883 293.346407 
L 184.569152 293.338317 
L 184.83423 294.620695 
L 184.9005 294.465257 
L 184.966769 294.522048 
L 185.033039 294.529036 
L 185.099309 294.386911 
L 185.165578 294.422708 
L 185.364387 294.782456 
L 185.496926 294.85536 
L 185.563195 294.728005 
L 185.629465 294.813501 
L 185.894543 295.171017 
L 186.159621 295.122355 
L 186.4247 295.355053 
L 186.689778 295.253465 
L 186.888587 295.418933 
L 187.219934 295.288199 
L 187.485013 295.384636 
L 188.213978 295.373553 
L 188.479056 295.277898 
L 188.611595 295.285381 
L 189.141751 295.331377 
L 189.34056 295.257987 
L 189.605638 295.430525 
L 190.268334 295.1256 
L 190.467142 295.228761 
L 190.599682 294.760127 
L 190.79849 295.2761 
L 190.931029 295.14422 
L 191.129838 295.371545 
L 191.461186 294.654018 
L 191.593725 292.657639 
L 191.726264 284.562376 
L 191.858803 295.198842 
L 191.925073 294.987679 
L 191.991342 295.040149 
L 192.057612 295.195289 
L 192.190151 294.847518 
L 192.25642 294.952954 
L 192.587768 295.084171 
L 192.654038 294.992614 
L 192.786577 295.088375 
L 192.985386 295.130282 
L 193.250464 295.323519 
L 193.449272 295.181955 
L 193.648081 295.334431 
L 193.979429 295.302391 
L 194.310777 295.412855 
L 195.172281 295.439007 
L 195.503629 295.347266 
L 195.967515 295.349333 
L 196.232594 295.418371 
L 197.094098 295.344571 
L 197.359176 295.390344 
L 197.491715 295.444612 
L 197.690524 295.40736 
L 197.756793 295.480461 
L 197.823063 295.397227 
L 197.889333 295.423034 
L 198.021872 295.253971 
L 198.22068 295.406885 
L 198.353219 295.269318 
L 198.485759 295.202861 
L 198.618298 295.153367 
L 198.817106 294.465172 
L 199.015915 295.248661 
L 199.082184 295.112082 
L 199.214724 292.302823 
L 199.280993 284.101888 
L 199.479802 294.018765 
L 199.67861 295.176313 
L 199.74488 295.062309 
L 199.943689 295.258966 
L 200.275036 295.349718 
L 200.540115 295.21814 
L 200.805193 295.336597 
L 201.136541 295.373798 
L 201.335349 295.409732 
L 201.931775 295.32599 
L 202.130584 295.395617 
L 202.461932 295.330682 
L 202.79328 295.181362 
L 203.058358 295.338449 
L 203.389706 295.336957 
L 203.986131 295.344672 
L 204.118671 295.164902 
L 204.317479 295.360451 
L 204.516288 295.363722 
L 204.781366 295.471787 
L 205.311523 295.246571 
L 205.377792 295.43736 
L 205.444062 295.378949 
L 206.305566 295.122825 
L 206.371835 294.84271 
L 206.438105 294.900304 
L 206.570644 294.715624 
L 206.636914 294.840957 
L 206.703183 294.211047 
L 206.901992 288.125663 
L 207.16707 294.559738 
L 207.498418 294.701408 
L 207.630957 295.013249 
L 207.697227 294.900997 
L 207.763496 294.970119 
L 207.896035 295.075931 
L 208.094844 295.109652 
L 208.359922 295.219892 
L 208.492461 295.120133 
L 208.625 295.218182 
L 208.69127 295.147057 
L 208.757539 295.211693 
L 209.155157 295.344549 
L 209.685313 295.27282 
L 209.884122 295.36582 
L 210.546817 295.295568 
L 210.878165 295.402112 
L 211.143243 295.351475 
L 211.209513 295.323594 
L 211.275782 295.174603 
L 211.408322 295.367023 
L 211.540861 295.331901 
L 211.872208 295.448219 
L 212.601174 295.285393 
L 212.733713 294.870917 
L 212.932521 295.299836 
L 212.998791 295.244094 
L 213.06506 295.32729 
L 213.263869 295.352068 
L 213.528947 295.295719 
L 213.595217 295.427247 
L 213.661486 295.385151 
L 213.860295 295.261324 
L 213.992834 295.350064 
L 214.191643 295.341331 
L 214.257912 295.370421 
L 214.390451 294.84722 
L 214.456721 293.047377 
L 214.522991 284.621646 
L 214.58926 288.081595 
L 214.65553 295.175478 
L 214.721799 289.233719 
L 214.920608 294.935673 
L 214.986877 295.062541 
L 215.053147 294.981113 
L 215.119417 294.97551 
L 215.318225 295.325239 
L 215.517034 295.403884 
L 215.649573 295.373096 
L 215.848382 295.313851 
L 216.842425 295.360256 
L 217.041234 295.41472 
L 217.505121 295.373091 
L 218.035277 295.349377 
L 218.631703 295.387332 
L 218.830512 295.416986 
L 219.957094 295.275444 
L 220.089633 295.116033 
L 220.155903 295.440985 
L 220.222172 295.366409 
L 220.951137 295.212155 
L 221.083676 295.22148 
L 221.216216 295.137791 
L 221.348755 294.84844 
L 221.415024 294.893998 
L 221.547563 295.037529 
L 221.945181 293.929839 
L 222.01145 294.113312 
L 222.143989 290.213817 
L 222.210259 281.534622 
L 222.276528 292.622848 
L 222.342798 290.514611 
L 222.541607 294.246714 
L 222.607876 294.295356 
L 222.872954 295.025689 
L 223.138033 295.151602 
L 223.336841 295.19781 
L 223.403111 295.184095 
L 223.53565 295.30103 
L 223.734459 295.191586 
L 223.800728 295.298853 
L 223.866998 295.234548 
L 224.728502 295.371094 
L 227.313015 295.454974 
L 227.511823 295.317241 
L 227.710632 295.437746 
L 228.174519 295.428359 
L 228.770945 295.453943 
L 229.49991 295.235217 
L 229.698718 294.977936 
L 229.831258 294.413803 
L 229.963797 290.469916 
L 230.228875 294.940523 
L 230.692762 295.30801 
L 230.825301 295.364553 
L 231.02411 295.406653 
L 231.156649 295.384068 
L 231.554266 295.41808 
L 232.283231 295.434298 
L 233.8737 295.361114 
L 234.801474 295.284094 
L 235.132822 295.118256 
L 235.530439 295.132215 
L 235.994326 294.8613 
L 236.193135 295.005546 
L 236.259404 294.713491 
L 236.325674 294.734719 
L 236.458213 294.928002 
L 236.723291 294.421056 
L 236.85583 294.98064 
L 237.120909 294.660836 
L 237.452256 292.885259 
L 237.584795 291.249571 
L 237.717335 284.311854 
L 237.849874 293.341605 
L 238.048682 294.867035 
L 238.247491 295.301284 
L 238.645108 295.361118 
L 238.843917 295.205557 
L 239.108995 295.312787 
L 239.572882 295.283531 
L 240.036769 295.379801 
L 240.368117 295.302131 
L 240.832004 295.330065 
L 240.964543 295.344976 
L 241.163351 295.394608 
L 241.560969 295.238378 
L 241.693508 295.242419 
L 241.892316 295.256711 
L 242.223664 295.250239 
L 242.621282 295.394831 
L 243.350247 295.311826 
L 243.482786 295.231547 
L 243.880403 295.431673 
L 244.675638 295.348017 
L 244.741907 295.39877 
L 245.073255 295.042834 
L 245.205794 295.197817 
L 245.338333 294.701152 
L 245.470872 291.5195 
L 245.537142 288.621499 
L 245.735951 294.223319 
L 245.86849 295.230609 
L 245.934759 295.173669 
L 246.001029 295.054694 
L 246.133568 295.281614 
L 246.199837 295.044716 
L 246.266107 295.087744 
L 246.464916 295.185973 
L 246.663724 295.097971 
L 246.862533 295.243544 
L 249.579585 295.443914 
L 250.507358 295.4643 
L 252.826793 295.390868 
L 253.025602 295.307355 
L 253.29068 293.98339 
L 253.356949 292.058972 
L 253.555758 294.989374 
L 253.688297 295.28082 
L 253.754567 295.180075 
L 253.820836 295.252267 
L 254.350993 295.438294 
L 255.146227 295.440447 
L 255.676384 295.416314 
L 256.27281 295.454226 
L 257.001775 295.429879 
L 257.266853 295.426108 
L 257.863279 295.396836 
L 258.062088 295.385129 
L 258.393435 295.432402 
L 259.453748 295.413015 
L 259.718826 295.383816 
L 260.050174 295.415906 
L 260.845409 295.369336 
L 261.044218 295.2005 
L 261.243026 294.802807 
L 261.309296 295.291563 
L 261.375565 295.227739 
L 261.574374 295.417077 
L 263.695 295.484119 
L 264.092617 295.435312 
L 264.490234 295.408062 
L 264.689043 295.227446 
L 265.15293 295.423392 
L 265.616817 295.444269 
L 266.080704 295.433661 
L 266.478321 295.446138 
L 268.864025 295.3642 
L 269.062834 295.052583 
L 269.129103 294.809159 
L 269.195373 293.381336 
L 269.261642 294.003084 
L 269.394181 295.070042 
L 269.65926 295.351074 
L 270.056877 295.426719 
L 270.520764 295.418857 
L 270.719572 295.435378 
L 271.11719 295.453794 
L 271.581077 295.422319 
L 272.177503 295.436021 
L 273.171546 295.44167 
L 275.027093 295.464794 
L 276.286215 295.377323 
L 276.816371 295.212434 
L 277.01518 294.70544 
L 277.08145 294.77149 
L 277.147719 294.551209 
L 277.213989 294.580019 
L 277.479067 295.362673 
L 277.677876 295.361948 
L 278.009223 295.410958 
L 279.334614 295.350335 
L 279.467154 295.072295 
L 279.599693 293.909776 
L 279.798501 295.159882 
L 279.99731 295.229037 
L 280.262388 295.402815 
L 280.394927 295.282507 
L 280.593736 295.466903 
L 281.057623 295.350546 
L 281.322701 295.37521 
L 281.45524 295.333554 
L 281.587779 295.400353 
L 282.449284 295.46336 
L 283.04571 295.474874 
L 284.106022 295.451595 
L 284.371101 295.365676 
L 284.901257 295.381117 
L 285.166335 295.297213 
L 285.232605 295.139464 
L 285.365144 293.805251 
L 285.497683 295.373955 
L 285.563953 295.214632 
L 286.027839 295.403637 
L 286.756805 295.446782 
L 288.546083 295.478984 
L 292.787334 295.4062 
L 293.118682 295.297202 
L 293.184951 295.294794 
L 293.38376 294.610516 
L 293.45003 292.93928 
L 293.648838 295.097182 
L 293.913916 295.412488 
L 294.510342 295.469851 
L 294.642881 295.379658 
L 295.173038 295.485087 
L 295.703194 295.470392 
L 296.29962 295.463029 
L 296.829777 295.449467 
L 301.269837 295.442114 
L 301.534915 295.282941 
L 301.667454 294.943734 
L 301.733724 295.269132 
L 301.799993 294.622721 
L 301.866263 295.335545 
L 301.932532 295.298254 
L 302.131341 295.429994 
L 302.926576 295.432794 
L 304.318236 295.470706 
L 304.715854 295.442783 
L 307.830523 295.431037 
L 308.426949 295.440225 
L 309.487262 295.396428 
L 309.68607 295.169404 
L 309.818609 294.348969 
L 309.884879 293.754825 
L 310.083688 295.019886 
L 310.282496 295.318975 
L 312.071774 295.456365 
L 313.065818 295.480167 
L 318.036034 295.340036 
L 318.168573 294.572527 
L 318.367382 295.393858 
L 319.692773 295.463014 
L 326.452267 295.437622 
L 326.518537 295.329476 
L 326.584807 295.429627 
L 327.181233 295.465773 
L 328.705432 295.469942 
L 329.964554 295.46936 
L 334.868501 295.433551 
L 335.00104 295.382121 
L 335.199849 295.475987 
L 338.049439 295.470792 
L 340.501413 295.472163 
L 342.887117 295.462392 
L 343.218465 295.428101 
L 343.483543 295.219844 
L 343.682352 295.419131 
L 343.94743 295.473814 
L 346.399403 295.475804 
L 351.700968 295.408047 
L 351.966046 295.156353 
L 352.098585 294.470636 
L 352.231124 295.278129 
L 352.89382 295.44395 
L 354.948176 295.460262 
L 357.26761 295.464824 
L 359.123158 295.473583 
L 360.581088 295.304282 
L 360.713627 295.048707 
L 360.978705 295.453455 
L 362.834253 295.467223 
L 366.611617 295.471767 
L 368.732243 295.469494 
L 369.262399 295.407868 
L 369.328669 295.183391 
L 369.394938 295.2984 
L 369.527478 295.45079 
L 369.660017 295.435683 
L 370.521521 295.468336 
L 377.214746 295.441841 
L 377.744902 295.320387 
L 377.877441 295.119044 
L 377.943711 295.258661 
L 378.009981 295.331013 
L 378.07625 295.131041 
L 378.208789 295.458559 
L 378.275059 295.338837 
L 378.341328 295.423585 
L 378.540137 295.32194 
L 378.871485 295.401873 
L 380.727032 295.430421 
L 381.05838 295.433281 
L 382.51631 295.425555 
L 386.227405 295.471896 
L 386.95637 295.406764 
L 387.552796 295.442444 
L 387.751605 295.433816 
L 388.016683 295.471757 
L 388.811918 295.483231 
L 390.402387 295.483599 
L 392.390474 295.478215 
L 398.487273 295.483203 
L 398.487273 295.483203 
" clip-path="url(#ped4ceb2a97)" style="fill: none; stroke: #1f77b4; stroke-width: 1.5; stroke-linecap: square"/>
   </g>
   <g id="patch_3">
    <path d="M 57.6 307.584 
L 57.6 41.472 
" style="fill: none; stroke: #000000; stroke-width: 0.8; stroke-linejoin: miter; stroke-linecap: square"/>
   </g>
   <g id="patch_4">
    <path d="M 414.72 307.584 
L 414.72 41.472 
" style="fill: none; stroke: #000000; stroke-width: 0.8; stroke-linejoin: miter; stroke-linecap: square"/>
   </g>
   <g id="patch_5">
    <path d="M 57.6 307.584 
L 414.72 307.584 
" style="fill: none; stroke: #000000; stroke-width: 0.8; stroke-linejoin: miter; stroke-linecap: square"/>
   </g>
   <g id="patch_6">
    <path d="M 57.6 41.472 
L 414.72 41.472 
" style="fill: none; stroke: #000000; stroke-width: 0.8; stroke-linejoin: miter; stroke-linecap: square"/>
   </g>
   <g id="text_18">
    <text style="font: 12px 'IPAexGothic'; text-anchor: middle" x="236.16" y="35.472" transform="rotate(-0 236.16 35.472)">"001_A2.wav"の振幅スペクトル</text>
   </g>
  </g>
 </g>
 <defs>
  <clipPath id="ped4ceb2a97">
   <rect x="57.6" y="41.472" width="357.12" height="266.112"/>
  </clipPath>
 </defs>
</svg>
