<?xml version="1.0" encoding="utf-8" standalone="no"?>
<!DOCTYPE svg PUBLIC "-//W3C//DTD SVG 1.1//EN"
  "http://www.w3.org/Graphics/SVG/1.1/DTD/svg11.dtd">
<svg xmlns:xlink="http://www.w3.org/1999/xlink" width="460.8pt" height="345.6pt" viewBox="0 0 460.8 345.6" xmlns="http://www.w3.org/2000/svg" version="1.1">
 <metadata>
  <rdf:RDF xmlns:dc="http://purl.org/dc/elements/1.1/" xmlns:cc="http://creativecommons.org/ns#" xmlns:rdf="http://www.w3.org/1999/02/22-rdf-syntax-ns#">
   <cc:Work>
    <dc:type rdf:resource="http://purl.org/dc/dcmitype/StillImage"/>
    <dc:date>2022-11-28T11:27:56.563104</dc:date>
    <dc:format>image/svg+xml</dc:format>
    <dc:creator>
     <cc:Agent>
      <dc:title>Matplotlib v3.6.2, https://matplotlib.org/</dc:title>
     </cc:Agent>
    </dc:creator>
   </cc:Work>
  </rdf:RDF>
 </metadata>
 <defs>
  <style type="text/css">*{stroke-linejoin: round; stroke-linecap: butt}</style>
 </defs>
 <g id="figure_1">
  <g id="patch_1">
   <path d="M 0 345.6 
L 460.8 345.6 
L 460.8 0 
L 0 0 
z
" style="fill: #ffffff"/>
  </g>
  <g id="axes_1">
   <g id="patch_2">
    <path d="M 57.6 307.584 
L 414.72 307.584 
L 414.72 41.472 
L 57.6 41.472 
z
" style="fill: #ffffff"/>
   </g>
   <g id="matplotlib.axis_1">
    <g id="xtick_1">
     <g id="line2d_1">
      <defs>
       <path id="md3666ce1e1" d="M 0 0 
L 0 3.5 
" style="stroke: #000000; stroke-width: 0.8"/>
      </defs>
      <g>
       <use xlink:href="#md3666ce1e1" x="73.832727" y="307.584" style="stroke: #000000; stroke-width: 0.8"/>
      </g>
     </g>
     <g id="text_1">
      <text style="font: 10px 'IPAexGothic'; text-anchor: middle" x="73.832727" y="322.074625" transform="rotate(-0 73.832727 322.074625)">0</text>
     </g>
    </g>
    <g id="xtick_2">
     <g id="line2d_2">
      <g>
       <use xlink:href="#md3666ce1e1" x="140.102281" y="307.584" style="stroke: #000000; stroke-width: 0.8"/>
      </g>
     </g>
     <g id="text_2">
      <text style="font: 10px 'IPAexGothic'; text-anchor: middle" x="140.102281" y="322.074625" transform="rotate(-0 140.102281 322.074625)">1000</text>
     </g>
    </g>
    <g id="xtick_3">
     <g id="line2d_3">
      <g>
       <use xlink:href="#md3666ce1e1" x="206.371835" y="307.584" style="stroke: #000000; stroke-width: 0.8"/>
      </g>
     </g>
     <g id="text_3">
      <text style="font: 10px 'IPAexGothic'; text-anchor: middle" x="206.371835" y="322.074625" transform="rotate(-0 206.371835 322.074625)">2000</text>
     </g>
    </g>
    <g id="xtick_4">
     <g id="line2d_4">
      <g>
       <use xlink:href="#md3666ce1e1" x="272.64139" y="307.584" style="stroke: #000000; stroke-width: 0.8"/>
      </g>
     </g>
     <g id="text_4">
      <text style="font: 10px 'IPAexGothic'; text-anchor: middle" x="272.64139" y="322.074625" transform="rotate(-0 272.64139 322.074625)">3000</text>
     </g>
    </g>
    <g id="xtick_5">
     <g id="line2d_5">
      <g>
       <use xlink:href="#md3666ce1e1" x="338.910944" y="307.584" style="stroke: #000000; stroke-width: 0.8"/>
      </g>
     </g>
     <g id="text_5">
      <text style="font: 10px 'IPAexGothic'; text-anchor: middle" x="338.910944" y="322.074625" transform="rotate(-0 338.910944 322.074625)">4000</text>
     </g>
    </g>
    <g id="xtick_6">
     <g id="line2d_6">
      <g>
       <use xlink:href="#md3666ce1e1" x="405.180498" y="307.584" style="stroke: #000000; stroke-width: 0.8"/>
      </g>
     </g>
     <g id="text_6">
      <text style="font: 10px 'IPAexGothic'; text-anchor: middle" x="405.180498" y="322.074625" transform="rotate(-0 405.180498 322.074625)">5000</text>
     </g>
    </g>
    <g id="text_7">
     <text style="font: 10px 'IPAexGothic'; text-anchor: middle" x="236.16" y="335.924625" transform="rotate(-0 236.16 335.924625)">周波数[Hz]</text>
    </g>
   </g>
   <g id="matplotlib.axis_2">
    <g id="ytick_1">
     <g id="line2d_7">
      <defs>
       <path id="m32b49d266f" d="M 0 0 
L -3.5 0 
" style="stroke: #000000; stroke-width: 0.8"/>
      </defs>
      <g>
       <use xlink:href="#m32b49d266f" x="57.6" y="295.496718" style="stroke: #000000; stroke-width: 0.8"/>
      </g>
     </g>
     <g id="text_8">
      <text style="font: 10px 'IPAexGothic'; text-anchor: end" x="50.6" y="299.24203" transform="rotate(-0 50.6 299.24203)">0.0</text>
     </g>
    </g>
    <g id="ytick_2">
     <g id="line2d_8">
      <g>
       <use xlink:href="#m32b49d266f" x="57.6" y="264.95689" style="stroke: #000000; stroke-width: 0.8"/>
      </g>
     </g>
     <g id="text_9">
      <text style="font: 10px 'IPAexGothic'; text-anchor: end" x="50.6" y="268.702203" transform="rotate(-0 50.6 268.702203)">0.2</text>
     </g>
    </g>
    <g id="ytick_3">
     <g id="line2d_9">
      <g>
       <use xlink:href="#m32b49d266f" x="57.6" y="234.417063" style="stroke: #000000; stroke-width: 0.8"/>
      </g>
     </g>
     <g id="text_10">
      <text style="font: 10px 'IPAexGothic'; text-anchor: end" x="50.6" y="238.162375" transform="rotate(-0 50.6 238.162375)">0.4</text>
     </g>
    </g>
    <g id="ytick_4">
     <g id="line2d_10">
      <g>
       <use xlink:href="#m32b49d266f" x="57.6" y="203.877235" style="stroke: #000000; stroke-width: 0.8"/>
      </g>
     </g>
     <g id="text_11">
      <text style="font: 10px 'IPAexGothic'; text-anchor: end" x="50.6" y="207.622548" transform="rotate(-0 50.6 207.622548)">0.6</text>
     </g>
    </g>
    <g id="ytick_5">
     <g id="line2d_11">
      <g>
       <use xlink:href="#m32b49d266f" x="57.6" y="173.337408" style="stroke: #000000; stroke-width: 0.8"/>
      </g>
     </g>
     <g id="text_12">
      <text style="font: 10px 'IPAexGothic'; text-anchor: end" x="50.6" y="177.08272" transform="rotate(-0 50.6 177.08272)">0.8</text>
     </g>
    </g>
    <g id="ytick_6">
     <g id="line2d_12">
      <g>
       <use xlink:href="#m32b49d266f" x="57.6" y="142.79758" style="stroke: #000000; stroke-width: 0.8"/>
      </g>
     </g>
     <g id="text_13">
      <text style="font: 10px 'IPAexGothic'; text-anchor: end" x="50.6" y="146.542893" transform="rotate(-0 50.6 146.542893)">1.0</text>
     </g>
    </g>
    <g id="ytick_7">
     <g id="line2d_13">
      <g>
       <use xlink:href="#m32b49d266f" x="57.6" y="112.257753" style="stroke: #000000; stroke-width: 0.8"/>
      </g>
     </g>
     <g id="text_14">
      <text style="font: 10px 'IPAexGothic'; text-anchor: end" x="50.6" y="116.003065" transform="rotate(-0 50.6 116.003065)">1.2</text>
     </g>
    </g>
    <g id="ytick_8">
     <g id="line2d_14">
      <g>
       <use xlink:href="#m32b49d266f" x="57.6" y="81.717925" style="stroke: #000000; stroke-width: 0.8"/>
      </g>
     </g>
     <g id="text_15">
      <text style="font: 10px 'IPAexGothic'; text-anchor: end" x="50.6" y="85.463238" transform="rotate(-0 50.6 85.463238)">1.4</text>
     </g>
    </g>
    <g id="ytick_9">
     <g id="line2d_15">
      <g>
       <use xlink:href="#m32b49d266f" x="57.6" y="51.178098" style="stroke: #000000; stroke-width: 0.8"/>
      </g>
     </g>
     <g id="text_16">
      <text style="font: 10px 'IPAexGothic'; text-anchor: end" x="50.6" y="54.92341" transform="rotate(-0 50.6 54.92341)">1.6</text>
     </g>
    </g>
    <g id="text_17">
     <text style="font: 10px 'IPAexGothic'; text-anchor: middle" x="29.460938" y="174.528" transform="rotate(-90 29.460938 174.528)">振幅</text>
    </g>
    <g id="text_18">
     <text style="font: 10px 'IPAexGothic'; text-anchor: start" x="57.6" y="38.472" transform="rotate(-0 57.6 38.472)">1e7</text>
    </g>
   </g>
   <g id="line2d_16">
    <path d="M 73.832727 292.220207 
L 73.965266 295.199211 
L 74.230345 295.392554 
L 75.091849 295.408018 
L 75.224388 295.436197 
L 75.489466 295.179272 
L 75.688275 295.368643 
L 75.754544 295.244216 
L 76.35097 295.290931 
L 76.549779 295.373063 
L 76.814857 294.895795 
L 77.013666 295.044964 
L 77.146205 295.008041 
L 77.411283 295.074284 
L 77.543822 294.960533 
L 77.610092 295.109926 
L 77.742631 294.867347 
L 77.94144 294.99442 
L 78.140248 294.851065 
L 78.206518 294.612839 
L 78.272787 294.872566 
L 78.736674 292.707989 
L 78.802944 291.219326 
L 78.869213 291.943945 
L 78.935483 291.700449 
L 79.001752 292.883053 
L 79.068022 290.716109 
L 79.134292 291.546653 
L 79.266831 290.189862 
L 79.3331 290.600513 
L 79.39937 290.180437 
L 79.465639 287.215068 
L 79.531909 289.675134 
L 79.598178 289.002661 
L 79.863257 284.096001 
L 79.929526 282.819385 
L 80.062065 287.626534 
L 80.128335 284.891015 
L 80.194604 282.726776 
L 80.327144 287.763731 
L 80.393413 286.447209 
L 80.459683 288.145522 
L 80.592222 280.315546 
L 80.658491 280.553511 
L 80.724761 284.527847 
L 81.056109 262.95917 
L 81.122378 53.568 
L 81.321187 276.688686 
L 81.387456 279.854605 
L 81.453726 275.121751 
L 81.519996 278.72598 
L 81.586265 291.76035 
L 81.652535 289.6998 
L 81.718804 288.243501 
L 81.917613 293.655023 
L 81.983882 293.878655 
L 82.182691 290.179217 
L 82.248961 292.041993 
L 82.447769 287.541028 
L 82.514039 288.411865 
L 82.580308 287.672812 
L 82.646578 288.997924 
L 82.712848 287.397133 
L 82.911656 289.880872 
L 83.044195 290.795214 
L 83.110465 290.454125 
L 83.176734 290.9423 
L 83.243004 290.762524 
L 83.309274 290.460677 
L 83.441813 294.767729 
L 83.640621 291.991826 
L 83.706891 293.739176 
L 83.77316 293.584855 
L 83.83943 293.861056 
L 83.971969 293.529121 
L 84.038239 294.600685 
L 84.104508 293.554574 
L 84.303317 295.227067 
L 84.435856 294.618506 
L 84.568395 293.150708 
L 84.700934 294.066667 
L 84.767204 292.655632 
L 84.966012 295.121301 
L 85.29736 288.096915 
L 85.36363 288.246336 
L 85.429899 289.857782 
L 85.496169 289.671934 
L 85.562438 289.768316 
L 85.628708 287.842672 
L 85.694977 287.917394 
L 85.761247 291.468186 
L 85.827517 289.509511 
L 85.960056 283.270228 
L 86.026325 285.856246 
L 86.092595 285.830883 
L 86.225134 290.369251 
L 86.291403 293.476631 
L 86.357673 291.157548 
L 86.423943 291.72774 
L 86.490212 292.520599 
L 86.556482 292.154861 
L 86.689021 289.683386 
L 86.82156 290.507195 
L 86.887829 290.233783 
L 86.954099 292.672825 
L 87.020369 291.070168 
L 87.152908 289.668115 
L 87.285447 290.579269 
L 87.417986 288.571122 
L 87.616795 292.350879 
L 87.881873 282.192542 
L 88.014412 290.670854 
L 88.080681 290.16427 
L 88.27949 277.751084 
L 88.34576 266.423796 
L 88.412029 98.8573 
L 88.478299 282.960037 
L 88.544568 282.770367 
L 88.610838 283.181731 
L 88.677107 286.774214 
L 88.743377 286.634888 
L 88.809646 285.930741 
L 88.875916 286.39742 
L 89.008455 289.465608 
L 89.074725 285.128876 
L 89.140994 286.392451 
L 89.273533 292.062596 
L 89.339803 290.426196 
L 89.472342 285.745285 
L 89.604881 287.194321 
L 89.869959 294.3354 
L 90.068768 293.82623 
L 90.135038 292.164483 
L 90.201307 292.9909 
L 90.400116 291.445004 
L 90.665194 295.058858 
L 90.797733 294.444963 
L 90.996542 292.595812 
L 91.062811 292.58206 
L 91.129081 291.440382 
L 91.19535 292.188245 
L 91.32789 293.225939 
L 91.460429 291.312779 
L 91.526698 291.670739 
L 91.592968 292.33491 
L 91.725507 288.71882 
L 91.858046 291.468211 
L 91.924316 291.006664 
L 92.056855 292.802279 
L 92.123124 292.825073 
L 92.189394 292.990179 
L 92.255663 293.621285 
L 92.321933 292.86176 
L 92.388202 292.887107 
L 92.520742 293.919803 
L 92.71955 293.648372 
L 92.852089 294.436749 
L 92.984628 293.786831 
L 93.117168 294.426242 
L 93.249707 293.973706 
L 93.315976 293.233146 
L 93.448515 294.403525 
L 93.514785 294.158267 
L 93.713593 294.547187 
L 93.912402 294.183182 
L 93.978672 294.214966 
L 94.24375 293.116041 
L 94.310019 293.641965 
L 94.376289 293.416782 
L 94.508828 292.823415 
L 94.707637 290.709059 
L 94.840176 289.980048 
L 94.906445 290.606852 
L 94.972715 293.210734 
L 95.237793 286.42883 
L 95.304063 293.290748 
L 95.370332 290.908791 
L 95.502871 286.658374 
L 95.569141 293.381523 
L 95.635411 268.053475 
L 95.70168 66.347081 
L 95.834219 278.124004 
L 95.900489 287.088087 
L 95.966758 285.661233 
L 96.033028 285.144706 
L 96.165567 292.466429 
L 96.231837 292.953539 
L 96.298106 291.10696 
L 96.364376 291.166068 
L 96.430645 291.224083 
L 96.563184 294.738818 
L 96.629454 294.562886 
L 96.695723 294.486042 
L 96.761993 294.568401 
L 96.828263 294.155881 
L 96.894532 295.334325 
L 97.027071 293.660882 
L 97.15961 294.328573 
L 97.22588 293.730029 
L 97.358419 294.676991 
L 97.424689 293.592547 
L 97.490958 293.659411 
L 97.557228 293.868616 
L 97.689767 292.564019 
L 97.954845 294.378892 
L 98.021115 293.86567 
L 98.087384 294.216542 
L 98.219923 294.297729 
L 98.286193 294.467894 
L 98.418732 294.283857 
L 98.485001 294.941049 
L 98.551271 294.650223 
L 98.816349 295.404329 
L 98.882619 295.174474 
L 99.015158 295.121842 
L 99.213966 294.93539 
L 99.412775 295.354931 
L 99.810392 294.781619 
L 99.942932 293.35215 
L 100.009201 294.048949 
L 100.075471 293.524039 
L 100.14174 294.415192 
L 100.20801 294.185048 
L 100.274279 293.960089 
L 100.340549 294.608713 
L 100.605627 293.139376 
L 100.671897 293.052541 
L 100.870705 294.311169 
L 100.936975 294.338421 
L 101.135784 293.700301 
L 101.202053 293.749679 
L 101.400862 294.198413 
L 101.533401 294.041464 
L 101.73221 293.246465 
L 101.931018 295.386173 
L 102.063557 293.471832 
L 102.196096 293.328451 
L 102.262366 293.724284 
L 102.527444 292.071423 
L 102.593714 292.301867 
L 102.659983 292.404253 
L 102.792522 294.091497 
L 102.858792 292.167062 
L 102.925062 285.335596 
L 102.991331 234.693741 
L 103.12387 293.743235 
L 103.19014 293.579106 
L 103.322679 294.762014 
L 103.388948 294.598434 
L 103.654027 293.306046 
L 103.720296 294.02604 
L 103.786566 293.07247 
L 103.852835 293.366106 
L 104.051644 294.474393 
L 104.117913 294.859566 
L 104.250453 294.113369 
L 104.449261 294.834515 
L 104.64807 293.334348 
L 104.714339 293.670948 
L 104.846879 294.178142 
L 104.979418 294.735844 
L 105.045687 294.506562 
L 105.111957 293.862427 
L 105.244496 294.832142 
L 105.310765 294.570421 
L 105.708383 295.368524 
L 105.774652 295.259435 
L 105.840922 295.352749 
L 105.907191 295.436951 
L 105.973461 295.345869 
L 106.039731 295.12608 
L 106.106 295.19835 
L 106.371078 295.268342 
L 106.503617 295.360643 
L 106.636157 295.256207 
L 106.834965 295.312526 
L 107.298852 294.60674 
L 107.431391 294.843225 
L 107.56393 294.858141 
L 107.6302 294.711011 
L 107.696469 294.087933 
L 107.762739 294.471642 
L 107.829009 294.952088 
L 107.895278 294.916881 
L 108.160356 295.046882 
L 108.226626 294.853508 
L 108.292895 294.931259 
L 108.491704 295.224261 
L 108.624243 295.269706 
L 108.690513 295.386211 
L 108.756782 295.338262 
L 109.08813 295.135104 
L 109.1544 295.191471 
L 109.353208 294.741542 
L 109.552017 294.957331 
L 109.883365 293.030223 
L 110.015904 291.50681 
L 110.214712 282.653721 
L 110.347252 212.538607 
L 110.54606 280.592652 
L 110.744869 290.105184 
L 110.811138 289.069709 
L 110.877408 290.429604 
L 110.943678 290.208833 
L 111.009947 290.647448 
L 111.076217 290.220959 
L 111.208756 293.608025 
L 111.341295 292.19305 
L 111.407564 292.25146 
L 111.540104 293.142036 
L 111.672643 292.684761 
L 111.871451 294.746459 
L 111.937721 294.371754 
L 112.13653 294.86886 
L 112.202799 294.545415 
L 112.269069 294.729531 
L 112.401608 294.911123 
L 112.865495 295.006481 
L 112.931764 294.666001 
L 112.998034 294.932339 
L 113.064303 294.790108 
L 113.196842 294.407896 
L 113.263112 294.510691 
L 113.329382 293.88765 
L 113.395651 294.102473 
L 113.461921 294.400416 
L 113.59446 293.879367 
L 113.726999 294.112613 
L 113.793268 294.064708 
L 114.058347 294.758867 
L 114.323425 294.164075 
L 114.389694 294.604263 
L 114.455964 294.18375 
L 114.654773 294.856002 
L 114.721042 294.802092 
L 114.787312 295.202 
L 114.853581 295.02368 
L 114.919851 295.205222 
L 114.98612 295.11254 
L 115.118659 294.875933 
L 115.251199 295.287777 
L 115.317468 295.253842 
L 115.450007 294.960982 
L 115.582546 295.243425 
L 115.648816 295.084583 
L 115.715085 295.02426 
L 115.781355 294.809965 
L 115.847625 295.017012 
L 115.913894 294.848184 
L 115.980164 294.898779 
L 116.046433 295.337374 
L 116.245242 294.639505 
L 116.311511 295.005594 
L 116.444051 294.62837 
L 116.57659 295.151642 
L 116.775398 294.205099 
L 116.841668 294.539262 
L 116.907937 294.335492 
L 116.974207 294.461977 
L 117.106746 293.538281 
L 117.239285 293.96967 
L 117.438094 291.856725 
L 117.504363 289.182933 
L 117.703172 244.92771 
L 117.901981 289.645881 
L 117.96825 293.419625 
L 118.03452 292.687603 
L 118.100789 292.997552 
L 118.167059 292.551167 
L 118.233329 290.596374 
L 118.498407 294.65448 
L 118.564676 294.795619 
L 118.763485 294.020341 
L 118.829754 294.292222 
L 118.896024 294.228761 
L 118.962294 294.302429 
L 119.094833 293.788002 
L 119.161102 294.757757 
L 119.227372 294.577855 
L 119.293641 295.044749 
L 119.42618 294.565145 
L 119.49245 294.645257 
L 119.55872 294.433425 
L 119.691259 294.914115 
L 119.956337 294.102771 
L 120.088876 294.715234 
L 120.221415 294.711236 
L 120.353954 294.855233 
L 120.420224 294.736918 
L 120.619032 294.58507 
L 120.817841 295.230739 
L 120.95038 295.121641 
L 121.149189 295.236032 
L 121.281728 295.180824 
L 121.414267 295.378221 
L 121.546806 295.254179 
L 121.613076 295.312416 
L 121.679345 295.22492 
L 121.878154 295.217973 
L 122.010693 295.249011 
L 122.076963 295.215718 
L 122.209502 294.91317 
L 122.40831 295.223043 
L 122.54085 295.034658 
L 122.607119 294.836278 
L 122.739658 294.995478 
L 122.872197 295.037765 
L 123.071006 295.236352 
L 123.203545 295.355591 
L 123.534893 294.820629 
L 123.799971 295.080322 
L 124.065049 294.961863 
L 124.131319 295.007828 
L 124.330127 294.528187 
L 124.396397 294.612975 
L 124.661475 293.61337 
L 124.860284 285.570342 
L 124.926553 277.298828 
L 124.992823 250.703528 
L 125.059093 285.687272 
L 125.125362 285.403403 
L 125.45671 292.452799 
L 125.522979 291.478729 
L 125.589249 290.346147 
L 125.788058 293.725544 
L 125.854327 293.573348 
L 125.986866 293.03655 
L 126.119405 294.149207 
L 126.185675 293.54096 
L 126.318214 294.684237 
L 126.450753 293.838578 
L 126.517023 295.021197 
L 126.583292 294.990062 
L 126.715831 294.446358 
L 126.782101 294.620363 
L 126.91464 294.865516 
L 127.047179 294.591375 
L 127.312257 295.319526 
L 127.378527 295.075119 
L 127.444797 295.166828 
L 127.643605 295.250076 
L 127.776144 295.273216 
L 127.908683 294.972984 
L 127.974953 294.726925 
L 128.041223 294.865296 
L 128.107492 294.855532 
L 128.173762 295.024085 
L 128.240031 294.665372 
L 128.306301 294.79554 
L 128.37257 294.856314 
L 128.43884 294.774247 
L 128.505109 294.739791 
L 128.571379 294.221812 
L 128.637648 294.622341 
L 128.836457 293.933238 
L 128.968996 294.701205 
L 129.035266 294.506731 
L 129.167805 293.559204 
L 129.234074 293.93988 
L 129.366614 294.553354 
L 129.432883 294.388458 
L 129.565422 294.565494 
L 129.697961 294.365857 
L 129.89677 295.15971 
L 129.96304 295.094448 
L 130.095579 295.257931 
L 130.426926 294.897204 
L 130.493196 294.650449 
L 130.559466 295.387154 
L 130.625735 294.870034 
L 130.692005 294.99517 
L 130.758274 295.117713 
L 130.957083 294.168407 
L 131.155892 294.802368 
L 131.222161 294.889914 
L 131.487239 294.550449 
L 131.553509 294.426936 
L 131.619778 294.687443 
L 131.752318 293.863027 
L 131.818587 293.934984 
L 131.884857 294.366441 
L 132.083665 292.453042 
L 132.149935 293.318271 
L 132.216204 291.670439 
L 132.348744 265.396921 
L 132.481283 291.73917 
L 132.547552 289.592214 
L 132.680091 293.623253 
L 132.746361 292.971553 
L 132.94517 294.496661 
L 133.011439 294.35646 
L 133.077709 294.542323 
L 133.143978 295.146314 
L 133.210248 294.947778 
L 133.276517 295.099905 
L 133.342787 294.930088 
L 133.409056 295.102076 
L 133.541596 294.768704 
L 133.607865 295.096774 
L 133.674135 295.070686 
L 134.071752 295.38465 
L 134.270561 295.26879 
L 134.469369 295.361227 
L 134.535639 295.114148 
L 134.601908 295.199066 
L 134.866987 295.030392 
L 135.198334 295.406438 
L 135.397143 295.413835 
L 135.79476 294.982477 
L 135.86103 295.052701 
L 136.059839 295.234037 
L 136.258647 295.245928 
L 136.457456 294.942574 
L 136.722534 294.794685 
L 136.788804 294.965631 
L 136.855073 294.750782 
L 136.921343 294.860471 
L 137.584038 294.924846 
L 137.650308 294.975795 
L 137.716577 294.794413 
L 137.782847 294.910254 
L 137.849117 295.328494 
L 137.915386 295.069538 
L 137.981656 295.118424 
L 138.047925 295.029004 
L 138.180464 295.384126 
L 138.313003 295.155276 
L 138.445543 294.227666 
L 138.644351 294.683403 
L 138.710621 294.836009 
L 138.77689 294.711438 
L 138.909429 294.186613 
L 138.975699 292.800894 
L 139.108238 294.269232 
L 139.307047 292.180882 
L 139.505855 286.26447 
L 139.572125 284.861532 
L 139.704664 181.722345 
L 139.903473 285.667229 
L 140.036012 292.18388 
L 140.102281 290.673635 
L 140.168551 291.681587 
L 140.23482 291.631915 
L 140.36736 290.220338 
L 140.499899 292.447279 
L 140.566168 291.400565 
L 140.632438 291.711522 
L 140.764977 292.335214 
L 140.897516 293.314149 
L 140.963786 293.008584 
L 141.030055 293.342122 
L 141.162594 292.283504 
L 141.228864 292.708725 
L 141.361403 291.377873 
L 141.560212 292.901621 
L 141.626481 293.501878 
L 141.692751 292.008639 
L 141.75902 292.571991 
L 141.891559 293.951881 
L 141.957829 292.658265 
L 142.024098 292.716031 
L 142.156638 293.389131 
L 142.289177 293.308417 
L 142.421716 292.469371 
L 142.620524 294.459523 
L 142.686794 294.1927 
L 142.753064 294.247225 
L 142.819333 294.480584 
L 142.885603 294.390383 
L 143.084411 293.85188 
L 143.21695 294.565287 
L 143.415759 293.906948 
L 143.548298 294.441345 
L 143.614568 294.348752 
L 143.680837 294.242853 
L 143.945915 294.723237 
L 144.012185 294.767246 
L 144.078455 294.372628 
L 144.144724 294.541144 
L 144.210994 294.527426 
L 144.542341 293.902992 
L 144.608611 294.034636 
L 144.674881 294.431391 
L 144.74115 294.340164 
L 144.873689 294.001639 
L 144.939959 294.641174 
L 145.006228 294.341951 
L 145.138767 293.476402 
L 145.337576 294.450545 
L 145.403846 294.4405 
L 145.602654 294.923847 
L 145.668924 294.979892 
L 145.735193 295.266438 
L 145.801463 295.154348 
L 145.934002 295.036891 
L 146.000272 295.051113 
L 146.066541 294.951517 
L 146.132811 295.047415 
L 146.26535 295.318212 
L 146.397889 294.98004 
L 146.464159 295.093528 
L 146.530428 295.037778 
L 146.662967 294.235385 
L 146.729237 293.553432 
L 146.928045 285.267575 
L 146.994315 289.799002 
L 147.060585 221.572103 
L 147.126854 233.714621 
L 147.259393 283.173156 
L 147.325663 283.00551 
L 147.590741 292.398292 
L 147.657011 291.771964 
L 147.922089 294.354722 
L 147.988358 293.710093 
L 148.054628 294.07637 
L 148.319706 294.823769 
L 148.385976 294.40997 
L 148.452245 294.68184 
L 148.651054 295.132973 
L 148.849862 294.630189 
L 148.982402 294.995566 
L 149.048671 294.809511 
L 149.114941 294.926557 
L 149.24748 294.88511 
L 149.380019 294.748772 
L 149.578828 295.197956 
L 149.645097 295.091815 
L 149.711367 294.997575 
L 149.777636 295.061105 
L 149.843906 295.108458 
L 149.976445 294.900754 
L 150.042714 294.971489 
L 150.108984 295.043101 
L 150.175254 294.871683 
L 150.241523 295.052794 
L 150.307793 294.911058 
L 150.374062 295.021608 
L 150.506601 294.689794 
L 150.572871 295.071062 
L 150.63914 294.952023 
L 150.837949 294.920681 
L 150.904219 294.698118 
L 151.036758 295.185279 
L 151.169297 294.971969 
L 151.368106 295.36672 
L 151.566914 295.225749 
L 151.765723 295.133576 
L 151.831992 295.251489 
L 151.898262 295.022524 
L 151.964532 295.108978 
L 152.097071 295.244226 
L 152.22961 294.856222 
L 152.428418 295.331742 
L 152.494688 295.163738 
L 152.693497 294.622883 
L 152.759766 295.046457 
L 152.958575 294.27822 
L 153.091114 294.815881 
L 153.223653 294.370188 
L 153.289923 294.284964 
L 153.356192 293.583136 
L 153.422462 294.017494 
L 153.488731 294.0936 
L 153.555001 294.353831 
L 153.753809 293.154735 
L 153.820079 293.343931 
L 153.952618 292.910018 
L 154.085157 293.388778 
L 154.350235 291.34962 
L 154.416505 288.265625 
L 154.482775 288.679223 
L 154.549044 240.265398 
L 154.681583 281.835573 
L 154.946661 294.861499 
L 155.012931 295.153015 
L 155.14547 294.691786 
L 155.21174 295.398695 
L 155.278009 294.490679 
L 155.344279 294.855458 
L 155.476818 295.339651 
L 155.609357 295.281943 
L 155.675627 295.405069 
L 155.874435 295.117827 
L 156.139513 295.412953 
L 156.338322 295.306994 
L 157.266096 294.881387 
L 157.332365 295.140756 
L 157.398635 295.110495 
L 157.464905 295.076458 
L 157.597444 295.223348 
L 157.862522 294.904672 
L 157.995061 295.288262 
L 158.260139 295.084321 
L 158.591487 295.248175 
L 158.790296 295.162177 
L 159.055374 295.09468 
L 159.121643 295.107425 
L 159.187913 295.331152 
L 159.254182 295.040896 
L 159.320452 295.183002 
L 159.386722 295.024104 
L 159.452991 295.279504 
L 159.519261 295.204759 
L 160.115687 295.453045 
L 160.380765 295.191414 
L 160.579574 295.366214 
L 161.04346 295.073938 
L 161.176 294.182064 
L 161.308539 295.326748 
L 161.573617 293.030894 
L 161.772426 294.922546 
L 161.904965 287.53927 
L 161.971234 274.275542 
L 162.170043 292.305527 
L 162.435121 294.658305 
L 162.501391 294.644622 
L 162.63393 294.107062 
L 162.766469 294.742596 
L 162.832738 294.515839 
L 162.965278 294.849258 
L 163.031547 294.64539 
L 163.097817 294.795222 
L 163.164086 295.211041 
L 163.230356 294.982548 
L 163.561704 295.237091 
L 163.694243 294.964691 
L 163.760512 295.0074 
L 164.02559 295.360918 
L 164.158129 295.330065 
L 164.423208 295.338857 
L 164.555747 295.171462 
L 164.754555 295.183333 
L 164.887095 295.343164 
L 165.085903 295.044855 
L 165.284712 295.137189 
L 165.483521 294.964006 
L 165.54979 295.136095 
L 165.61606 295.001817 
L 165.748599 294.909063 
L 165.881138 295.159567 
L 166.013677 294.725997 
L 166.212486 295.171411 
L 166.477564 295.17733 
L 166.676373 294.6855 
L 166.808912 295.08748 
L 166.875181 295.112679 
L 167.07399 294.814555 
L 167.140259 294.956735 
L 167.272799 294.658561 
L 167.339068 294.91233 
L 167.405338 294.825349 
L 167.471607 294.566176 
L 167.537877 294.964694 
L 167.670416 294.251298 
L 167.736685 294.312027 
L 167.802955 294.678419 
L 167.935494 294.00321 
L 168.001764 293.939793 
L 168.068033 294.086652 
L 168.200572 293.230845 
L 168.266842 293.347348 
L 168.333111 293.102091 
L 168.399381 292.186972 
L 168.465651 293.449763 
L 168.53192 292.776768 
L 168.59819 292.568786 
L 168.664459 292.951133 
L 168.730729 292.86207 
L 168.796998 293.059235 
L 168.863268 292.98818 
L 168.995807 290.545611 
L 169.062076 288.004035 
L 169.128346 289.315697 
L 169.194616 289.807255 
L 169.327155 292.951223 
L 169.393424 277.860233 
L 169.459694 224.732994 
L 169.525963 246.06147 
L 169.724772 279.191669 
L 169.923581 293.807322 
L 169.98985 294.314804 
L 170.122389 292.703923 
L 170.188659 293.384594 
L 170.321198 294.104138 
L 170.387468 293.247635 
L 170.586276 294.62404 
L 170.652546 294.451823 
L 170.917624 295.164697 
L 171.050163 295.008569 
L 171.116433 294.650165 
L 171.182702 294.814535 
L 171.315241 294.765883 
L 171.381511 294.776763 
L 171.58032 295.133715 
L 171.712859 294.958989 
L 171.845398 295.097674 
L 171.911667 295.236275 
L 172.044206 295.020796 
L 172.176746 295.220919 
L 172.375554 295.248929 
L 172.905711 295.393921 
L 173.03825 295.361442 
L 173.237058 295.39797 
L 173.700945 295.474214 
L 173.966023 295.373207 
L 174.164832 295.447894 
L 174.628719 295.380895 
L 175.158875 295.377338 
L 175.357684 295.328682 
L 175.490223 295.239437 
L 175.622762 295.204248 
L 175.821571 295.420707 
L 175.887841 295.333182 
L 176.086649 295.038377 
L 176.152919 295.072897 
L 176.219188 294.910898 
L 176.417997 295.4623 
L 176.484267 295.385505 
L 176.616806 295.070448 
L 176.683075 295.162971 
L 176.749345 294.868599 
L 176.948153 284.756284 
L 177.146962 292.934148 
L 177.213232 294.626952 
L 177.279501 294.588429 
L 177.345771 293.657114 
L 177.41204 293.698881 
L 177.677119 294.927111 
L 177.743388 294.403133 
L 177.809658 294.504843 
L 177.875927 294.355841 
L 178.008466 294.639998 
L 178.074736 294.534839 
L 178.141005 294.619923 
L 178.273545 294.786773 
L 178.339814 294.658845 
L 178.406084 294.996333 
L 178.472353 294.77104 
L 178.604892 294.910575 
L 178.671162 294.855247 
L 178.86997 294.761683 
L 179.135049 294.856933 
L 179.201318 294.7429 
L 179.267588 294.837188 
L 179.333857 294.861348 
L 179.466396 295.203543 
L 179.532666 295.168789 
L 179.598936 294.864063 
L 179.665205 295.015632 
L 179.797744 295.172716 
L 179.930283 294.945911 
L 179.996553 295.065736 
L 180.062822 294.986094 
L 180.129092 295.033643 
L 180.261631 294.868819 
L 180.327901 294.988021 
L 180.526709 294.589543 
L 180.659248 294.82857 
L 180.791788 294.655253 
L 180.858057 294.694334 
L 181.056866 294.015667 
L 181.189405 294.551104 
L 181.321944 294.070751 
L 181.454483 294.152594 
L 181.520753 294.299134 
L 181.587022 293.845959 
L 181.653292 294.104031 
L 181.719561 294.396589 
L 181.785831 294.285577 
L 181.8521 294.33719 
L 181.91837 294.046774 
L 181.98464 294.724111 
L 182.050909 294.569473 
L 182.117179 294.092587 
L 182.249718 295.003569 
L 182.382257 294.419832 
L 182.448526 294.530707 
L 182.581066 294.003353 
L 182.647335 294.172764 
L 182.713605 294.420543 
L 182.846144 293.75374 
L 182.912413 294.424364 
L 182.978683 294.159363 
L 183.111222 294.416928 
L 183.177492 294.326472 
L 183.310031 292.744038 
L 183.3763 293.650553 
L 183.44257 291.900949 
L 183.575109 294.053921 
L 183.641378 293.398619 
L 183.707648 293.681558 
L 183.773917 293.677205 
L 183.840187 293.554293 
L 183.972726 291.709054 
L 184.038996 292.475403 
L 184.105265 292.449577 
L 184.304074 287.356093 
L 184.370343 291.983199 
L 184.569152 257.477676 
L 184.701691 282.713606 
L 184.767961 283.312167 
L 184.966769 292.450254 
L 185.033039 293.093882 
L 185.099309 292.664992 
L 185.165578 292.281854 
L 185.430656 294.302859 
L 185.563195 293.624679 
L 185.828274 294.736884 
L 185.894543 294.616877 
L 185.960813 295.019848 
L 186.159621 294.139147 
L 186.292161 295.016634 
L 186.35843 294.833991 
L 186.4247 294.915602 
L 186.490969 294.760256 
L 186.557239 294.818618 
L 186.689778 295.032862 
L 186.822317 295.02067 
L 187.021126 295.102409 
L 187.087395 295.143708 
L 187.286204 294.556029 
L 187.485013 294.867126 
L 187.617552 295.030601 
L 187.683821 294.899621 
L 187.750091 294.966079 
L 187.81636 295.180036 
L 187.88263 294.923366 
L 187.948899 295.279312 
L 188.081439 294.888041 
L 188.280247 295.16945 
L 188.412786 294.987352 
L 188.611595 295.247013 
L 188.677864 294.687701 
L 188.744134 294.841907 
L 189.009212 294.325677 
L 189.141751 294.962382 
L 189.208021 294.534505 
L 189.27429 294.993083 
L 189.34056 294.327006 
L 189.40683 294.646429 
L 189.473099 294.922411 
L 189.539369 294.870112 
L 189.671908 294.523681 
L 189.804447 293.721309 
L 189.936986 295.070617 
L 190.069525 295.123613 
L 190.202064 294.466223 
L 190.268334 294.571305 
L 190.467142 294.207567 
L 190.599682 292.912688 
L 190.732221 294.076777 
L 190.79849 293.954807 
L 190.931029 292.374201 
L 190.997299 292.699925 
L 191.129838 293.690058 
L 191.196108 292.853811 
L 191.262377 293.04117 
L 191.328647 292.756436 
L 191.394916 293.277692 
L 191.461186 293.130346 
L 191.527455 292.505731 
L 191.659994 293.319909 
L 191.726264 291.998042 
L 191.792534 285.544422 
L 191.858803 289.098069 
L 191.925073 288.333616 
L 191.991342 295.058209 
L 192.123881 286.855726 
L 192.190151 286.91248 
L 192.32269 287.242985 
L 192.521499 292.150101 
L 192.587768 293.368124 
L 192.720307 291.901804 
L 192.786577 292.802575 
L 192.852846 292.186351 
L 193.117925 294.582562 
L 193.449272 293.499209 
L 193.648081 294.630735 
L 193.714351 294.582003 
L 193.78062 293.88443 
L 193.913159 294.565266 
L 194.045698 294.609544 
L 194.178237 295.028014 
L 194.244507 294.985319 
L 194.377046 295.170226 
L 194.443316 294.960505 
L 194.509585 295.035149 
L 194.708394 294.921738 
L 194.907203 295.043044 
L 195.106011 294.919377 
L 195.172281 295.173792 
L 195.23855 295.071016 
L 195.371089 295.111982 
L 195.503629 294.88241 
L 195.636168 295.153705 
L 195.702437 295.125215 
L 195.768707 294.820267 
L 195.834976 294.965735 
L 196.232594 294.905416 
L 196.298863 295.154195 
L 196.365133 295.001228 
L 196.431402 294.853273 
L 196.696481 295.327443 
L 196.895289 295.436061 
L 197.160367 295.404284 
L 197.359176 295.474401 
L 197.690524 295.409487 
L 197.955602 295.239253 
L 198.021872 295.262995 
L 198.154411 294.929313 
L 198.22068 293.948863 
L 198.28695 294.582467 
L 198.419489 293.618808 
L 198.618298 294.877837 
L 198.750837 293.712914 
L 198.817106 294.000374 
L 198.949645 294.968357 
L 199.015915 294.958018 
L 199.082184 294.344921 
L 199.148454 294.358346 
L 199.214724 294.516429 
L 199.280993 294.415243 
L 199.347263 294.276496 
L 199.413532 294.323529 
L 199.479802 294.499911 
L 199.546071 292.260906 
L 199.612341 295.218094 
L 199.74488 286.085017 
L 199.877419 294.281122 
L 200.142497 293.3797 
L 200.275036 294.209756 
L 200.341306 294.075829 
L 200.407576 294.772081 
L 200.540115 293.380059 
L 200.672654 294.678398 
L 200.738923 294.46302 
L 200.871462 295.068452 
L 200.937732 294.838 
L 201.004002 295.02419 
L 201.136541 294.741028 
L 201.401619 294.964257 
L 201.467888 294.886795 
L 201.534158 294.96218 
L 201.799236 295.226898 
L 202.064314 294.890406 
L 202.130584 294.754126 
L 202.196854 294.896051 
L 202.263123 294.843667 
L 202.461932 294.828354 
L 202.594471 294.837586 
L 202.66074 294.617115 
L 202.72701 294.686521 
L 202.925819 294.772342 
L 202.992088 294.770903 
L 203.257166 294.185837 
L 203.455975 294.913718 
L 203.522245 294.783638 
L 203.588514 294.826478 
L 203.654784 295.135288 
L 203.721053 295.028431 
L 203.853592 295.215458 
L 203.919862 295.074708 
L 204.118671 294.203448 
L 204.317479 295.120564 
L 204.450018 294.972709 
L 204.582557 295.418108 
L 204.715097 295.036288 
L 204.781366 295.097944 
L 204.913905 295.334909 
L 204.980175 295.207224 
L 205.046444 295.275944 
L 205.245253 295.37913 
L 205.377792 295.363787 
L 205.510331 295.3939 
L 205.70914 294.163369 
L 205.841679 294.750017 
L 205.907949 294.649421 
L 205.974218 294.751059 
L 206.040488 294.684534 
L 206.106757 294.721209 
L 206.239296 294.88666 
L 206.371835 294.302733 
L 206.570644 294.998206 
L 206.703183 294.300362 
L 206.769453 294.44674 
L 206.835722 294.878692 
L 206.901992 294.767411 
L 207.034531 292.792514 
L 207.100801 293.297465 
L 207.16707 294.325752 
L 207.365879 270.778767 
L 207.432148 276.769532 
L 207.630957 292.40681 
L 207.763496 293.83641 
L 207.829766 293.443972 
L 208.094844 294.545619 
L 208.227383 294.61603 
L 208.359922 295.301761 
L 208.426192 294.876332 
L 208.492461 294.980579 
L 208.558731 295.17442 
L 208.625 295.123141 
L 208.890078 295.398087 
L 209.022618 295.221952 
L 209.221426 295.38339 
L 209.353965 295.393399 
L 209.751583 295.275202 
L 210.016661 295.346242 
L 210.1492 295.240031 
L 210.613087 295.271134 
L 210.679356 295.15381 
L 210.745626 295.243438 
L 210.811896 295.29454 
L 211.010704 295.052707 
L 211.143243 295.314272 
L 211.275782 295.086854 
L 211.474591 295.32029 
L 211.739669 295.313425 
L 212.137287 295.447585 
L 212.336095 295.380736 
L 212.534904 295.252027 
L 212.601174 295.349412 
L 212.799982 294.750869 
L 212.866252 295.160186 
L 212.932521 294.691827 
L 212.998791 291.266973 
L 213.06506 292.958677 
L 213.263869 295.159177 
L 213.330139 295.300703 
L 213.396408 295.255659 
L 213.462678 295.141874 
L 213.595217 295.43183 
L 213.727756 295.177508 
L 213.794025 295.210508 
L 214.059104 295.180685 
L 214.390451 294.767501 
L 214.58926 294.177991 
L 214.721799 294.441296 
L 214.788069 294.167647 
L 214.854338 289.956918 
L 214.920608 293.332301 
L 215.119417 265.437009 
L 215.251956 290.364097 
L 215.318225 288.629383 
L 215.583303 294.082338 
L 215.649573 294.002594 
L 215.782112 294.776348 
L 215.848382 294.734342 
L 215.980921 293.923478 
L 216.04719 294.231675 
L 216.245999 295.208263 
L 216.577347 295.107578 
L 216.643616 294.965846 
L 216.709886 295.022837 
L 216.776155 294.972302 
L 216.908695 295.245793 
L 217.107503 294.901762 
L 217.306312 295.243998 
L 217.372581 295.198198 
L 217.438851 295.214963 
L 217.505121 295.047352 
L 217.57139 295.081271 
L 217.63766 295.122058 
L 217.703929 294.990519 
L 217.902738 295.240295 
L 218.101547 295.22245 
L 218.234086 295.216063 
L 218.366625 295.269174 
L 218.631703 295.167232 
L 218.764242 295.336621 
L 218.830512 295.306997 
L 218.963051 295.368883 
L 219.824555 295.429529 
L 220.089633 295.129932 
L 220.288442 295.441832 
L 220.354711 295.242085 
L 220.420981 295.336402 
L 220.55352 295.425561 
L 221.481294 294.934392 
L 221.547563 294.948496 
L 221.613833 294.669564 
L 221.680102 294.778762 
L 221.746372 294.938893 
L 221.945181 294.019344 
L 222.01145 294.47369 
L 222.07772 294.370758 
L 222.342798 293.275456 
L 222.409068 293.143824 
L 222.475337 292.344538 
L 222.674146 285.541034 
L 222.740415 268.700222 
L 222.806685 279.676756 
L 223.138033 293.945914 
L 223.336841 292.185072 
L 223.403111 291.956851 
L 223.46938 294.067962 
L 223.53565 293.994325 
L 223.60192 293.746801 
L 223.668189 293.872594 
L 223.734459 293.978395 
L 223.800728 294.308263 
L 223.866998 293.9405 
L 223.933267 294.097157 
L 224.198345 294.852012 
L 224.330885 295.121163 
L 224.397154 295.080105 
L 225.05985 295.304004 
L 225.192389 295.288836 
L 225.258658 295.45326 
L 225.324928 295.353349 
L 225.788815 295.289424 
L 225.855084 295.411774 
L 225.921354 295.350682 
L 226.252702 295.258284 
L 226.385241 295.251139 
L 226.650319 295.17365 
L 226.716589 295.098934 
L 226.782858 295.165473 
L 227.114206 295.151031 
L 227.180475 295.204014 
L 227.246745 295.065947 
L 227.313015 295.203223 
L 227.379284 295.002663 
L 227.445554 295.050005 
L 227.710632 295.029142 
L 227.776901 294.685987 
L 227.843171 293.458257 
L 227.909441 293.536838 
L 227.97571 293.728102 
L 228.174519 295.045161 
L 228.307058 295.189248 
L 228.572136 295.11592 
L 228.770945 295.256144 
L 229.102292 295.273834 
L 229.234832 295.41244 
L 229.301101 295.243572 
L 229.367371 295.362462 
L 229.698718 295.286673 
L 229.963797 295.421561 
L 230.030066 295.225539 
L 230.096336 295.283844 
L 230.162605 295.247276 
L 230.295144 294.898421 
L 230.493953 287.482159 
L 230.560223 280.353697 
L 230.692762 293.425456 
L 230.759031 293.381554 
L 231.02411 295.002435 
L 231.156649 294.822213 
L 231.487996 295.326422 
L 231.554266 295.215341 
L 231.686805 295.167209 
L 231.819344 295.286687 
L 231.885614 295.113393 
L 231.951883 295.169425 
L 232.018153 295.161454 
L 232.150692 295.302671 
L 232.680848 295.360232 
L 232.879657 295.221251 
L 233.542353 295.457966 
L 234.006239 295.359617 
L 234.470126 295.419775 
L 234.602665 295.313941 
L 234.934013 295.35999 
L 235.000283 295.138525 
L 235.066552 295.401453 
L 235.132822 295.144869 
L 235.199091 295.325512 
L 235.331631 292.401163 
L 235.530439 295.113829 
L 235.928057 295.126191 
L 236.193135 295.347845 
L 236.259404 295.131765 
L 236.325674 295.214671 
L 236.458213 295.420267 
L 236.723291 295.169323 
L 236.85583 295.436312 
L 236.988369 295.389647 
L 237.253448 295.405245 
L 237.452256 295.385507 
L 237.651065 295.455835 
L 238.048682 295.025243 
L 238.114952 295.208589 
L 238.38003 286.170213 
L 238.4463 294.744083 
L 238.512569 293.140523 
L 238.711378 294.104285 
L 238.777647 293.594349 
L 238.843917 293.735556 
L 239.042726 294.613447 
L 239.108995 294.805133 
L 239.175265 294.703554 
L 239.307804 294.816905 
L 239.440343 294.700202 
L 239.572882 294.751767 
L 239.639152 294.918824 
L 239.705421 294.476044 
L 239.90423 295.096386 
L 240.103038 295.21526 
L 240.169308 295.090736 
L 240.235578 295.180565 
L 240.368117 295.215753 
L 240.434386 295.075471 
L 240.500656 295.183177 
L 240.566925 295.075123 
L 240.699464 295.371517 
L 240.765734 295.236402 
L 241.163351 295.099548 
L 241.229621 295.026905 
L 241.36216 295.295772 
L 241.494699 295.134691 
L 241.627238 294.880698 
L 241.759777 295.058548 
L 241.892316 295.233216 
L 241.958586 295.153631 
L 242.024856 294.891025 
L 242.091125 294.918548 
L 242.157395 295.059569 
L 242.223664 295.000025 
L 242.289934 294.653898 
L 242.356203 294.738846 
L 242.422473 295.248895 
L 242.488742 295.159402 
L 242.621282 295.41255 
L 242.687551 294.327396 
L 242.753821 294.579612 
L 242.952629 295.174304 
L 243.217708 295.100323 
L 243.283977 295.233733 
L 243.350247 295.199891 
L 243.482786 295.085208 
L 243.615325 295.068932 
L 243.814133 294.832077 
L 243.880403 294.998793 
L 243.946673 295.467982 
L 244.079212 294.999423 
L 244.27802 295.048857 
L 244.543099 294.494619 
L 244.675638 294.711249 
L 244.741907 294.591158 
L 244.808177 294.090173 
L 244.874446 294.331942 
L 245.073255 294.824877 
L 245.139525 294.994283 
L 245.272064 294.184577 
L 245.338333 294.448146 
L 245.470872 294.454748 
L 245.603411 293.767343 
L 245.669681 294.345187 
L 245.735951 294.129924 
L 245.86849 291.932073 
L 245.934759 292.523402 
L 246.001029 294.197283 
L 246.067298 292.391277 
L 246.133568 294.024961 
L 246.199837 292.748587 
L 246.332377 275.571775 
L 246.398646 278.524098 
L 246.531185 272.561072 
L 246.796263 291.496233 
L 246.995072 293.589969 
L 247.061342 294.084321 
L 247.127611 294.042504 
L 247.193881 293.309108 
L 247.392689 294.213107 
L 247.525229 293.52035 
L 247.724037 294.721992 
L 247.790307 294.600822 
L 247.856576 294.631486 
L 247.989115 293.745662 
L 248.055385 293.764361 
L 248.187924 294.837443 
L 248.386733 293.804667 
L 248.453002 294.096393 
L 248.585541 294.650468 
L 248.651811 294.517786 
L 248.71808 294.736063 
L 248.78435 294.233602 
L 248.85062 294.443429 
L 248.916889 294.366868 
L 249.049428 294.87441 
L 249.115698 294.782587 
L 249.248237 295.071195 
L 249.314506 295.091759 
L 249.380776 294.881173 
L 249.447046 294.904444 
L 249.579585 295.101901 
L 249.778393 294.894205 
L 249.910932 295.130662 
L 249.977202 295.341995 
L 250.043472 295.155424 
L 250.176011 294.339525 
L 250.441089 295.168669 
L 250.706167 295.264529 
L 250.904976 295.094734 
L 251.170054 295.321848 
L 251.236324 295.203669 
L 251.302593 295.241531 
L 251.501402 295.154548 
L 251.567671 295.080693 
L 251.70021 295.296135 
L 251.76648 295.107115 
L 251.83275 295.148331 
L 251.899019 295.293653 
L 251.965289 295.20991 
L 252.296636 295.087626 
L 252.362906 294.906507 
L 252.429176 294.933002 
L 252.561715 295.248579 
L 252.760523 295.034245 
L 253.025602 295.143579 
L 253.22441 294.210149 
L 253.29068 294.405008 
L 253.356949 294.44588 
L 253.423219 294.102317 
L 253.489488 293.1126 
L 253.622028 294.018834 
L 253.688297 293.820885 
L 253.754567 292.910988 
L 253.820836 293.770792 
L 253.953375 291.403086 
L 254.019645 292.000778 
L 254.085914 284.05109 
L 254.152184 292.213118 
L 254.218453 275.726669 
L 254.284723 282.40817 
L 254.350993 277.107453 
L 254.549801 286.160485 
L 254.68234 284.969255 
L 254.947419 291.042799 
L 255.079958 292.448953 
L 255.146227 291.675255 
L 255.212497 292.169021 
L 255.345036 293.37733 
L 255.411305 293.026954 
L 255.477575 293.853059 
L 255.543845 293.297207 
L 255.610114 293.286864 
L 255.742653 294.152798 
L 255.808923 293.780516 
L 256.007731 294.977092 
L 256.074001 294.36942 
L 256.140271 294.520228 
L 256.20654 294.896658 
L 256.27281 294.837345 
L 256.339079 294.84393 
L 256.405349 295.191986 
L 256.537888 294.377496 
L 256.604157 294.552326 
L 256.736697 294.995813 
L 256.869236 294.647361 
L 256.935505 294.806706 
L 257.001775 295.082397 
L 257.134314 294.588046 
L 257.200583 294.729846 
L 257.333123 294.618451 
L 257.465662 295.035427 
L 257.66447 291.224596 
L 257.73074 291.683725 
L 257.863279 293.355009 
L 257.929549 293.12456 
L 257.995818 291.43883 
L 258.062088 292.268586 
L 258.260896 294.387841 
L 258.327166 294.366097 
L 258.459705 294.741434 
L 258.592244 294.355442 
L 258.658514 294.419296 
L 258.791053 294.698362 
L 258.923592 294.321156 
L 259.1224 295.103733 
L 259.18867 295.029633 
L 259.25494 294.831428 
L 259.387479 295.109731 
L 259.453748 295.037267 
L 259.652557 294.798568 
L 259.785096 294.185467 
L 259.983905 295.1244 
L 260.116444 294.620504 
L 260.182713 294.662184 
L 260.248983 294.775689 
L 260.447792 294.542044 
L 260.6466 295.100753 
L 260.779139 294.52443 
L 260.845409 294.66519 
L 260.911678 294.546044 
L 261.044218 293.769921 
L 261.110487 293.805252 
L 261.309296 295.221421 
L 261.508104 294.599679 
L 261.839452 295.371866 
L 261.905722 295.392274 
L 261.971991 295.075228 
L 262.038261 295.467459 
L 262.303339 293.491825 
L 262.568417 294.871789 
L 262.700956 295.167277 
L 262.767226 294.806044 
L 262.833496 294.92465 
L 262.899765 294.754788 
L 263.032304 295.010735 
L 263.098574 294.925773 
L 263.363652 295.203911 
L 263.496191 295.264211 
L 263.960078 295.413346 
L 264.092617 295.471138 
L 264.357695 295.338568 
L 264.490234 295.377479 
L 264.689043 295.188226 
L 264.821582 295.359277 
L 264.887852 295.292807 
L 265.020391 295.251434 
L 265.15293 294.027546 
L 265.550547 295.319496 
L 265.815625 295.379124 
L 265.948165 295.367749 
L 266.345782 295.215738 
L 266.544591 295.323933 
L 266.809669 295.339732 
L 266.942208 295.176264 
L 267.141017 295.315453 
L 267.339825 295.306109 
L 267.472364 295.288142 
L 267.803712 295.274056 
L 267.869982 295.086924 
L 267.936251 295.218473 
L 268.002521 295.393177 
L 268.06879 295.334202 
L 268.267599 295.294473 
L 268.532677 295.361219 
L 268.665216 295.208875 
L 268.864025 295.343376 
L 269.195373 294.845203 
L 269.261642 294.812755 
L 269.327912 295.083824 
L 269.394181 294.922081 
L 269.460451 295.039701 
L 269.52672 294.965652 
L 269.65926 294.460191 
L 269.725529 294.479256 
L 269.990607 292.41039 
L 270.056877 294.323531 
L 270.189416 288.116435 
L 270.321955 283.826818 
L 270.388225 286.532341 
L 270.454494 285.796918 
L 270.587033 283.832709 
L 270.785842 292.683506 
L 270.852112 292.545285 
L 271.11719 294.708753 
L 271.249729 294.283434 
L 271.514807 295.136868 
L 271.713616 295.108767 
L 271.846155 294.944467 
L 271.912424 295.029314 
L 272.111233 295.343872 
L 272.310042 295.103166 
L 272.57512 294.721896 
L 272.64139 295.452045 
L 272.707659 295.147826 
L 272.773929 295.20435 
L 272.906468 295.077847 
L 273.171546 295.043663 
L 273.304085 294.944942 
L 273.436624 295.165143 
L 273.635433 295.10421 
L 273.767972 295.365541 
L 273.834241 295.200221 
L 274.165589 295.199888 
L 274.496937 295.335648 
L 274.563207 295.120344 
L 274.629476 295.220481 
L 274.828285 295.330267 
L 275.027093 295.351818 
L 275.225902 295.342167 
L 275.424711 295.263138 
L 275.55725 295.301671 
L 275.689789 295.249997 
L 275.954867 295.368585 
L 276.683832 295.436326 
L 277.01518 295.439508 
L 277.479067 295.370498 
L 277.677876 295.307654 
L 277.876684 295.318625 
L 278.141763 294.614591 
L 278.208032 295.36315 
L 278.53938 289.141501 
L 278.738188 294.121943 
L 278.870728 293.760293 
L 279.003267 294.139882 
L 279.069536 293.748777 
L 279.135806 293.938824 
L 279.268345 294.032671 
L 279.334614 294.628744 
L 279.400884 294.484736 
L 279.533423 294.669341 
L 279.665962 294.484457 
L 279.732232 294.79804 
L 279.798501 294.775502 
L 279.93104 294.231378 
L 279.99731 294.311488 
L 280.129849 292.510922 
L 280.262388 294.154468 
L 280.328658 293.875657 
L 280.394927 294.183261 
L 280.461197 293.955561 
L 280.660006 294.945573 
L 280.726275 294.982797 
L 280.858814 295.302026 
L 280.991353 295.190618 
L 281.123892 295.329442 
L 281.256432 295.130411 
L 281.52151 295.376273 
L 281.587779 295.271845 
L 281.654049 295.32047 
L 282.250475 295.340595 
L 282.648092 295.221014 
L 282.780631 295.342835 
L 282.846901 295.35313 
L 282.97944 295.284377 
L 283.111979 295.355755 
L 284.106022 295.369591 
L 284.304831 295.218825 
L 284.834987 295.298141 
L 285.431413 294.908644 
L 285.497683 295.057501 
L 285.563953 294.765447 
L 285.630222 294.928036 
L 285.829031 294.562668 
L 285.8953 294.309008 
L 286.027839 294.926927 
L 286.160379 294.470379 
L 286.226648 294.609576 
L 286.292918 293.307443 
L 286.359187 293.669544 
L 286.425457 293.207887 
L 286.491726 289.704285 
L 286.557996 274.769031 
L 286.624265 283.874719 
L 287.088152 293.300137 
L 287.286961 294.902699 
L 287.353231 294.875549 
L 287.4195 294.257431 
L 287.48577 294.345874 
L 287.618309 295.057536 
L 287.750848 294.447727 
L 287.817117 293.577596 
L 288.015926 295.019773 
L 288.082196 295.116708 
L 288.214735 294.667119 
L 288.347274 294.98638 
L 288.479813 294.798094 
L 288.744891 295.176527 
L 288.87743 295.172383 
L 288.9437 295.239414 
L 289.142508 295.081034 
L 289.208778 295.131454 
L 289.275048 295.332327 
L 289.341317 295.167888 
L 289.407587 295.272879 
L 289.606395 295.192202 
L 289.738934 295.296555 
L 289.937743 295.226223 
L 290.136552 295.350109 
L 290.33536 295.374346 
L 290.865517 295.414452 
L 292.124638 295.427098 
L 292.455986 295.446666 
L 293.118682 295.344653 
L 293.251221 295.382339 
L 293.38376 295.355048 
L 293.516299 295.420548 
L 293.648838 295.298182 
L 293.847647 295.447111 
L 294.046455 295.387642 
L 294.311534 295.419829 
L 294.377803 295.426958 
L 294.444073 294.763492 
L 294.576612 295.342121 
L 294.709151 292.984352 
L 294.775421 294.551103 
L 294.84169 292.523463 
L 294.90796 293.114765 
L 295.040499 294.640826 
L 295.173038 293.536112 
L 295.239307 294.845766 
L 295.305577 294.785442 
L 295.504386 295.211367 
L 295.835733 295.131509 
L 296.034542 295.351967 
L 296.233351 295.348885 
L 296.498429 295.380702 
L 296.630968 295.267501 
L 296.763507 295.3588 
L 297.028585 295.298092 
L 297.094855 295.175097 
L 297.161125 295.228274 
L 297.293664 295.367789 
L 297.426203 295.235461 
L 298.221437 295.267824 
L 298.353977 295.345041 
L 299.016672 295.311262 
L 299.149211 295.40805 
L 299.34802 295.272551 
L 299.414289 295.382995 
L 299.480559 295.331238 
L 299.811907 295.317303 
L 300.010715 295.208273 
L 300.474602 295.298913 
L 300.673411 295.33025 
L 301.004759 295.401078 
L 301.137298 295.140581 
L 301.203567 295.214025 
L 301.336106 295.229116 
L 301.998802 295.294602 
L 302.131341 295.106027 
L 302.26388 295.271563 
L 302.396419 295.03828 
L 302.462689 295.142131 
L 302.595228 295.325226 
L 302.727767 294.596407 
L 302.860306 294.911911 
L 303.125384 291.936627 
L 303.390463 294.687206 
L 303.456732 293.407327 
L 303.523002 293.576652 
L 303.72181 293.999433 
L 303.920619 294.819486 
L 304.053158 294.453816 
L 304.119428 294.469796 
L 304.384506 295.026092 
L 304.517045 294.976583 
L 304.583315 295.23875 
L 304.649584 295.157962 
L 304.715854 295.198353 
L 304.848393 294.822699 
L 304.980932 295.106938 
L 305.047201 295.133839 
L 305.24601 294.686149 
L 305.511088 295.408897 
L 305.577358 295.310532 
L 305.776167 294.965576 
L 305.974975 295.275696 
L 306.173784 294.913459 
L 306.306323 294.974506 
L 306.505132 294.650456 
L 306.571401 294.691653 
L 306.637671 295.091113 
L 306.70394 295.059851 
L 306.77021 294.874159 
L 306.836479 294.954174 
L 307.167827 294.699279 
L 307.234097 294.276856 
L 307.300366 294.740111 
L 307.366636 294.638501 
L 307.432905 294.501594 
L 307.499175 294.573307 
L 307.565445 294.717715 
L 307.631714 294.642142 
L 307.697984 294.387363 
L 307.764253 294.592756 
L 307.830523 294.102036 
L 307.963062 294.759606 
L 308.095601 294.698228 
L 308.161871 294.937877 
L 308.22814 294.904882 
L 308.426949 294.410674 
L 308.493218 294.457686 
L 308.559488 295.050628 
L 308.625757 295.009226 
L 308.824566 294.710369 
L 308.890836 294.728446 
L 309.023375 294.148661 
L 309.089644 294.424038 
L 309.155914 294.54415 
L 309.222183 294.268878 
L 309.288453 294.334092 
L 309.354722 294.264227 
L 309.420992 293.820717 
L 309.487262 294.075885 
L 309.68607 293.665326 
L 309.75234 294.458654 
L 309.884879 293.509511 
L 309.951148 293.775967 
L 310.017418 293.098889 
L 310.083688 293.306116 
L 310.149957 293.962624 
L 310.348766 290.051562 
L 310.415035 285.124782 
L 310.547574 291.005779 
L 310.613844 291.225747 
L 310.878922 294.882241 
L 310.945192 295.259112 
L 311.011461 295.095521 
L 311.21027 294.124124 
L 311.27654 294.743349 
L 311.342809 294.055469 
L 311.409079 294.421522 
L 311.475348 294.095731 
L 311.541618 295.051612 
L 311.607887 290.622307 
L 311.674157 292.357316 
L 311.806696 292.843969 
L 312.005505 288.880495 
L 312.071774 291.318371 
L 312.138044 290.523233 
L 312.204313 290.861423 
L 312.336852 294.711777 
L 312.403122 294.463086 
L 312.535661 293.283489 
L 312.73447 294.147695 
L 312.999548 294.44063 
L 313.198357 294.995155 
L 313.463435 295.336441 
L 313.662244 295.392249 
L 313.794783 295.209615 
L 313.861052 295.280833 
L 314.258669 295.135051 
L 314.324939 294.802323 
L 314.391209 294.998365 
L 314.523748 295.286153 
L 314.656287 295.158431 
L 314.921365 295.192051 
L 314.987635 295.145415 
L 315.186443 294.821365 
L 315.385252 294.708428 
L 315.65033 294.995211 
L 315.7166 294.819864 
L 315.782869 294.957698 
L 315.915408 294.892101 
L 315.981678 294.879051 
L 316.047947 295.039089 
L 316.114217 294.986325 
L 316.180487 295.003151 
L 316.313026 295.17191 
L 316.578104 294.967996 
L 316.644373 294.978124 
L 316.710643 295.106943 
L 316.776913 295.047364 
L 316.843182 295.084173 
L 316.975721 295.362856 
L 317.041991 295.164709 
L 317.10826 295.207186 
L 317.572147 295.362898 
L 317.770956 295.295173 
L 317.969765 295.344509 
L 318.036034 294.97985 
L 318.102304 295.201687 
L 318.301112 295.124221 
L 318.499921 295.220577 
L 318.764999 294.933764 
L 318.831269 295.033223 
L 319.030077 294.878359 
L 319.096347 294.857117 
L 319.361425 295.23928 
L 319.626503 294.109034 
L 319.692773 293.397939 
L 319.759042 295.063744 
L 319.957851 290.306043 
L 320.024121 284.313983 
L 320.09039 286.538614 
L 320.15666 288.062053 
L 320.355468 295.154523 
L 320.421738 295.158154 
L 320.554277 294.912443 
L 320.620547 295.010263 
L 320.686816 294.944364 
L 320.819355 295.056604 
L 321.216973 295.313914 
L 321.349512 295.366549 
L 321.482051 295.406123 
L 322.144746 295.361516 
L 322.343555 295.250802 
L 322.409825 295.362177 
L 322.476094 295.274919 
L 322.608633 295.27728 
L 322.674903 295.182753 
L 322.741172 295.279342 
L 323.006251 295.310182 
L 323.07252 295.303173 
L 323.205059 295.46895 
L 323.470138 295.352218 
L 323.602677 295.483585 
L 323.668946 295.389989 
L 323.801485 295.393953 
L 324.066563 295.222051 
L 324.199103 295.311313 
L 324.331642 295.295831 
L 324.53045 295.086095 
L 324.59672 295.23369 
L 324.729259 295.265041 
L 324.795529 295.158095 
L 324.861798 295.226431 
L 325.259415 295.170361 
L 325.325685 294.318432 
L 325.391955 294.80435 
L 325.458224 295.022691 
L 325.657033 293.118911 
L 325.855841 293.842827 
L 325.922111 293.162634 
L 325.988381 294.722054 
L 326.05465 294.190854 
L 326.12092 293.643063 
L 326.187189 293.748133 
L 326.319728 294.79139 
L 326.385998 294.715132 
L 326.651076 295.057195 
L 326.849885 294.960956 
L 326.982424 295.29071 
L 327.048693 295.16485 
L 327.181233 295.0795 
L 327.313772 295.304234 
L 327.380041 295.257823 
L 327.777659 295.32401 
L 327.910198 295.3605 
L 328.042737 295.286501 
L 328.175276 295.337497 
L 328.241545 294.91301 
L 328.307815 295.078385 
L 328.374085 295.458134 
L 328.440354 294.50926 
L 328.506624 291.373399 
L 328.572893 295.098033 
L 328.639163 293.643619 
L 328.837971 292.803606 
L 329.03678 293.938345 
L 329.500667 295.073278 
L 329.566936 295.060109 
L 329.699476 294.890457 
L 329.765745 294.917944 
L 330.030823 295.34005 
L 330.163362 295.254203 
L 330.229632 295.147805 
L 330.295902 295.218538 
L 330.428441 295.19526 
L 330.56098 295.267134 
L 331.091136 295.109082 
L 331.356214 295.283031 
L 331.488754 295.304145 
L 331.555023 295.322044 
L 331.687562 295.180686 
L 331.886371 295.202871 
L 332.151449 295.358054 
L 332.217719 295.237417 
L 332.283988 295.275732 
L 332.946684 295.454012 
L 333.145492 295.395076 
L 333.278032 295.390888 
L 333.410571 295.332031 
L 333.609379 295.408397 
L 333.940727 295.358437 
L 334.868501 295.394199 
L 335.067309 295.379298 
L 335.266118 295.372376 
L 335.398657 295.361561 
L 335.663735 295.380284 
L 335.862544 295.284529 
L 335.995083 295.371 
L 336.193892 295.261553 
L 336.326431 295.291122 
L 336.591509 295.075032 
L 336.724048 294.287394 
L 336.790318 295.126549 
L 336.856587 294.943415 
L 336.989127 290.391372 
L 337.055396 291.834376 
L 337.121666 293.766977 
L 337.254205 291.357331 
L 337.453013 294.086325 
L 337.585553 293.335438 
L 337.784361 294.558915 
L 338.248248 295.287535 
L 338.447057 295.244568 
L 338.778404 295.319434 
L 339.772448 295.189883 
L 339.838717 295.337725 
L 339.904987 295.254711 
L 340.037526 295.293908 
L 340.633952 295.144761 
L 340.832761 295.161793 
L 340.89903 295.093566 
L 340.9653 294.763545 
L 341.031569 294.924111 
L 341.164108 294.991492 
L 341.362917 295.35681 
L 341.760534 295.416892 
L 341.959343 295.31659 
L 344.212508 295.353883 
L 344.543856 295.428698 
L 344.742664 295.39557 
L 344.941473 295.397453 
L 345.074012 295.340558 
L 345.33909 295.036385 
L 345.40536 295.303794 
L 345.471629 294.968928 
L 345.537899 295.143937 
L 345.736708 294.282754 
L 345.802977 294.939137 
L 345.869247 293.759546 
L 345.935516 294.532727 
L 346.068055 294.024834 
L 346.333134 294.762838 
L 346.399403 294.70426 
L 346.531942 294.99924 
L 346.598212 294.888494 
L 346.730751 294.827503 
L 346.92956 294.894749 
L 347.062099 295.193535 
L 347.128368 294.955408 
L 347.194638 294.976567 
L 347.327177 295.10116 
L 347.658525 295.203352 
L 347.989873 295.250603 
L 348.122412 295.257092 
L 348.38749 295.361997 
L 348.520029 295.331676 
L 348.586299 295.297994 
L 348.652568 295.399015 
L 348.718838 295.319461 
L 348.851377 295.248874 
L 349.182724 295.439932 
L 349.977959 295.260978 
L 350.309307 295.343591 
L 350.375576 295.298415 
L 350.574385 295.395617 
L 351.237081 295.330235 
L 351.435889 295.375079 
L 351.568428 295.337946 
L 351.700968 295.36659 
L 351.899776 295.327899 
L 352.098585 295.343294 
L 352.297394 295.236376 
L 352.429933 295.406764 
L 352.89382 295.30491 
L 353.026359 295.319959 
L 353.225167 295.222149 
L 353.357706 294.988393 
L 353.490246 295.302425 
L 353.887863 295.063943 
L 354.020402 294.755767 
L 354.086671 295.22817 
L 354.418019 292.220128 
L 354.484289 294.391639 
L 354.550558 293.10017 
L 354.616828 291.916307 
L 354.881906 295.336191 
L 355.014445 294.981482 
L 355.213254 295.242702 
L 355.345793 295.213203 
L 355.478332 295.171947 
L 355.610871 295.250099 
L 355.942219 295.068095 
L 356.074758 295.379645 
L 356.141028 295.244812 
L 356.339836 294.191788 
L 356.538645 294.759822 
L 356.604915 294.98388 
L 356.671184 294.96249 
L 356.737454 294.91047 
L 356.936262 295.268525 
L 358.327923 295.3892 
L 358.79181 295.329868 
L 359.255697 295.413752 
L 359.454505 295.317926 
L 360.846166 295.398145 
L 362.370366 295.152102 
L 362.569174 294.905301 
L 362.701714 295.292181 
L 362.834253 295.16595 
L 362.900522 294.407498 
L 362.966792 295.07099 
L 363.033061 294.458813 
L 363.099331 295.051962 
L 363.23187 291.584102 
L 363.29814 293.024177 
L 363.364409 293.918924 
L 363.430679 292.082691 
L 363.629487 294.172229 
L 363.762026 294.868536 
L 363.828296 295.382423 
L 363.894565 295.373374 
L 364.093374 295.246018 
L 364.292183 295.391878 
L 364.424722 295.366229 
L 364.557261 295.295081 
L 364.6898 295.373519 
L 364.888609 295.295092 
L 365.087417 295.359395 
L 365.683843 295.325388 
L 365.816383 295.422668 
L 366.081461 295.41104 
L 366.876695 295.3845 
L 367.340582 295.418913 
L 367.539391 295.383426 
L 368.931052 295.342272 
L 369.328669 295.427943 
L 370.190173 295.33392 
L 370.65406 295.30739 
L 371.184216 295.157655 
L 371.316756 295.210958 
L 371.383025 295.097571 
L 371.515564 294.45189 
L 371.581834 294.835386 
L 371.648103 294.715101 
L 371.846912 293.997019 
L 371.913182 294.328733 
L 372.045721 291.631137 
L 372.11199 284.059783 
L 372.17826 291.072602 
L 372.244529 286.923343 
L 372.443338 293.028348 
L 372.509608 292.944566 
L 372.840955 295.222113 
L 373.039764 294.93257 
L 373.172303 295.301869 
L 373.238573 295.24997 
L 373.371112 295.110858 
L 373.503651 295.151609 
L 373.63619 295.103512 
L 373.70246 295.303909 
L 373.768729 295.153228 
L 373.901268 295.058187 
L 374.563964 295.281753 
L 375.027851 295.08471 
L 375.09412 295.069006 
L 375.359198 295.286733 
L 376.61832 295.25942 
L 376.817129 294.948878 
L 377.015937 295.192907 
L 377.678633 295.033844 
L 377.811172 295.255471 
L 377.877441 295.126457 
L 377.943711 295.205574 
L 378.208789 295.170824 
L 378.407598 295.295829 
L 378.473867 295.089723 
L 378.540137 295.121602 
L 378.805215 295.317782 
L 379.004024 295.302995 
L 379.202832 295.307983 
L 379.401641 295.192288 
L 379.53418 295.156889 
L 379.60045 295.115663 
L 379.732989 294.777238 
L 379.998067 295.154072 
L 380.130606 295.113236 
L 380.196876 294.980254 
L 380.263145 295.025531 
L 380.329415 295.029917 
L 380.461954 294.657588 
L 380.528224 294.869893 
L 380.594493 293.866341 
L 380.660763 294.095737 
L 380.727032 294.245646 
L 380.793302 291.035399 
L 380.925841 294.56936 
L 381.12465 292.809393 
L 381.190919 292.454959 
L 381.323458 294.271711 
L 381.522267 294.719801 
L 381.588536 295.11095 
L 381.654806 294.839172 
L 381.721076 292.971777 
L 381.787345 293.64351 
L 381.853615 294.386415 
L 381.919884 293.012329 
L 381.986154 293.565774 
L 382.251232 295.159419 
L 382.383771 295.206238 
L 382.58258 294.803344 
L 382.715119 295.260778 
L 382.913928 295.042295 
L 383.311545 295.248503 
L 383.444084 295.066603 
L 383.510354 295.129005 
L 384.239319 295.331507 
L 384.438127 295.266772 
L 384.769475 295.400806 
L 384.968284 295.378451 
L 385.167092 295.340318 
L 385.630979 295.39959 
L 385.962327 295.401938 
L 386.161136 295.423943 
L 386.359944 295.228978 
L 386.625023 295.348365 
L 387.221449 295.405387 
L 387.353988 295.296208 
L 387.552796 295.459276 
L 387.751605 295.416367 
L 388.149222 295.399931 
L 388.54684 295.19565 
L 388.811918 295.377615 
L 389.408344 295.003096 
L 389.540883 295.130989 
L 389.673422 294.998937 
L 389.739692 293.859865 
L 389.805961 294.078674 
L 389.872231 295.019748 
L 390.00477 292.56186 
L 390.071039 289.558434 
L 390.137309 290.506668 
L 390.269848 292.548053 
L 390.336118 291.668883 
L 390.402387 291.889186 
L 390.534926 294.611021 
L 390.601196 294.24241 
L 390.667465 293.221706 
L 390.733735 293.638384 
L 390.866274 294.915778 
L 390.998813 294.776812 
L 391.197622 295.389241 
L 391.330161 295.079334 
L 391.595239 295.226337 
L 391.860317 295.359885 
L 391.926587 295.154756 
L 391.992856 295.217623 
L 392.125396 295.294002 
L 392.324204 295.264211 
L 392.456743 295.303851 
L 392.721822 295.327259 
L 393.649595 295.430147 
L 394.709908 295.431938 
L 394.974986 295.346937 
L 395.041256 295.427674 
L 395.173795 295.290215 
L 395.306334 294.465367 
L 395.505143 295.232609 
L 396.234108 295.383701 
L 396.764264 295.413594 
L 398.487273 295.424143 
L 398.487273 295.424143 
" clip-path="url(#p9c7aeff3a6)" style="fill: none; stroke: #1f77b4; stroke-width: 1.5; stroke-linecap: square"/>
   </g>
   <g id="patch_3">
    <path d="M 57.6 307.584 
L 57.6 41.472 
" style="fill: none; stroke: #000000; stroke-width: 0.8; stroke-linejoin: miter; stroke-linecap: square"/>
   </g>
   <g id="patch_4">
    <path d="M 414.72 307.584 
L 414.72 41.472 
" style="fill: none; stroke: #000000; stroke-width: 0.8; stroke-linejoin: miter; stroke-linecap: square"/>
   </g>
   <g id="patch_5">
    <path d="M 57.6 307.584 
L 414.72 307.584 
" style="fill: none; stroke: #000000; stroke-width: 0.8; stroke-linejoin: miter; stroke-linecap: square"/>
   </g>
   <g id="patch_6">
    <path d="M 57.6 41.472 
L 414.72 41.472 
" style="fill: none; stroke: #000000; stroke-width: 0.8; stroke-linejoin: miter; stroke-linecap: square"/>
   </g>
   <g id="text_19">
    <text style="font: 12px 'IPAexGothic'; text-anchor: middle" x="236.16" y="35.472" transform="rotate(-0 236.16 35.472)">"002_A2.wav"の振幅スペクトル</text>
   </g>
  </g>
 </g>
 <defs>
  <clipPath id="p9c7aeff3a6">
   <rect x="57.6" y="41.472" width="357.12" height="266.112"/>
  </clipPath>
 </defs>
</svg>
