<?xml version="1.0" encoding="utf-8" standalone="no"?>
<!DOCTYPE svg PUBLIC "-//W3C//DTD SVG 1.1//EN"
  "http://www.w3.org/Graphics/SVG/1.1/DTD/svg11.dtd">
<svg xmlns:xlink="http://www.w3.org/1999/xlink" width="460.8pt" height="345.6pt" viewBox="0 0 460.8 345.6" xmlns="http://www.w3.org/2000/svg" version="1.1">
 <metadata>
  <rdf:RDF xmlns:dc="http://purl.org/dc/elements/1.1/" xmlns:cc="http://creativecommons.org/ns#" xmlns:rdf="http://www.w3.org/1999/02/22-rdf-syntax-ns#">
   <cc:Work>
    <dc:type rdf:resource="http://purl.org/dc/dcmitype/StillImage"/>
    <dc:date>2022-11-28T11:34:30.399269</dc:date>
    <dc:format>image/svg+xml</dc:format>
    <dc:creator>
     <cc:Agent>
      <dc:title>Matplotlib v3.6.2, https://matplotlib.org/</dc:title>
     </cc:Agent>
    </dc:creator>
   </cc:Work>
  </rdf:RDF>
 </metadata>
 <defs>
  <style type="text/css">*{stroke-linejoin: round; stroke-linecap: butt}</style>
 </defs>
 <g id="figure_1">
  <g id="patch_1">
   <path d="M 0 345.6 
L 460.8 345.6 
L 460.8 0 
L 0 0 
z
" style="fill: #ffffff"/>
  </g>
  <g id="axes_1">
   <g id="patch_2">
    <path d="M 57.6 307.584 
L 414.72 307.584 
L 414.72 41.472 
L 57.6 41.472 
z
" style="fill: #ffffff"/>
   </g>
   <g id="matplotlib.axis_1">
    <g id="xtick_1">
     <g id="line2d_1">
      <defs>
       <path id="m8200a8b8e3" d="M 0 0 
L 0 3.5 
" style="stroke: #000000; stroke-width: 0.8"/>
      </defs>
      <g>
       <use xlink:href="#m8200a8b8e3" x="73.832727" y="307.584" style="stroke: #000000; stroke-width: 0.8"/>
      </g>
     </g>
     <g id="text_1">
      <text style="font: 10px 'IPAexGothic'; text-anchor: middle" x="73.832727" y="322.074625" transform="rotate(-0 73.832727 322.074625)">0</text>
     </g>
    </g>
    <g id="xtick_2">
     <g id="line2d_2">
      <g>
       <use xlink:href="#m8200a8b8e3" x="140.102281" y="307.584" style="stroke: #000000; stroke-width: 0.8"/>
      </g>
     </g>
     <g id="text_2">
      <text style="font: 10px 'IPAexGothic'; text-anchor: middle" x="140.102281" y="322.074625" transform="rotate(-0 140.102281 322.074625)">1000</text>
     </g>
    </g>
    <g id="xtick_3">
     <g id="line2d_3">
      <g>
       <use xlink:href="#m8200a8b8e3" x="206.371835" y="307.584" style="stroke: #000000; stroke-width: 0.8"/>
      </g>
     </g>
     <g id="text_3">
      <text style="font: 10px 'IPAexGothic'; text-anchor: middle" x="206.371835" y="322.074625" transform="rotate(-0 206.371835 322.074625)">2000</text>
     </g>
    </g>
    <g id="xtick_4">
     <g id="line2d_4">
      <g>
       <use xlink:href="#m8200a8b8e3" x="272.64139" y="307.584" style="stroke: #000000; stroke-width: 0.8"/>
      </g>
     </g>
     <g id="text_4">
      <text style="font: 10px 'IPAexGothic'; text-anchor: middle" x="272.64139" y="322.074625" transform="rotate(-0 272.64139 322.074625)">3000</text>
     </g>
    </g>
    <g id="xtick_5">
     <g id="line2d_5">
      <g>
       <use xlink:href="#m8200a8b8e3" x="338.910944" y="307.584" style="stroke: #000000; stroke-width: 0.8"/>
      </g>
     </g>
     <g id="text_5">
      <text style="font: 10px 'IPAexGothic'; text-anchor: middle" x="338.910944" y="322.074625" transform="rotate(-0 338.910944 322.074625)">4000</text>
     </g>
    </g>
    <g id="xtick_6">
     <g id="line2d_6">
      <g>
       <use xlink:href="#m8200a8b8e3" x="405.180498" y="307.584" style="stroke: #000000; stroke-width: 0.8"/>
      </g>
     </g>
     <g id="text_6">
      <text style="font: 10px 'IPAexGothic'; text-anchor: middle" x="405.180498" y="322.074625" transform="rotate(-0 405.180498 322.074625)">5000</text>
     </g>
    </g>
    <g id="text_7">
     <text style="font: 10px 'IPAexGothic'; text-anchor: middle" x="236.16" y="335.924625" transform="rotate(-0 236.16 335.924625)">周波数[Hz]</text>
    </g>
   </g>
   <g id="matplotlib.axis_2">
    <g id="ytick_1">
     <g id="line2d_7">
      <defs>
       <path id="ma7a0cf40f6" d="M 0 0 
L -3.5 0 
" style="stroke: #000000; stroke-width: 0.8"/>
      </defs>
      <g>
       <use xlink:href="#ma7a0cf40f6" x="57.6" y="295.496821" style="stroke: #000000; stroke-width: 0.8"/>
      </g>
     </g>
     <g id="text_8">
      <text style="font: 10px 'IPAexGothic'; text-anchor: end" x="50.6" y="299.242134" transform="rotate(-0 50.6 299.242134)">0.0</text>
     </g>
    </g>
    <g id="ytick_2">
     <g id="line2d_8">
      <g>
       <use xlink:href="#ma7a0cf40f6" x="57.6" y="256.691078" style="stroke: #000000; stroke-width: 0.8"/>
      </g>
     </g>
     <g id="text_9">
      <text style="font: 10px 'IPAexGothic'; text-anchor: end" x="50.6" y="260.436391" transform="rotate(-0 50.6 260.436391)">0.2</text>
     </g>
    </g>
    <g id="ytick_3">
     <g id="line2d_9">
      <g>
       <use xlink:href="#ma7a0cf40f6" x="57.6" y="217.885335" style="stroke: #000000; stroke-width: 0.8"/>
      </g>
     </g>
     <g id="text_10">
      <text style="font: 10px 'IPAexGothic'; text-anchor: end" x="50.6" y="221.630647" transform="rotate(-0 50.6 221.630647)">0.4</text>
     </g>
    </g>
    <g id="ytick_4">
     <g id="line2d_10">
      <g>
       <use xlink:href="#ma7a0cf40f6" x="57.6" y="179.079592" style="stroke: #000000; stroke-width: 0.8"/>
      </g>
     </g>
     <g id="text_11">
      <text style="font: 10px 'IPAexGothic'; text-anchor: end" x="50.6" y="182.824904" transform="rotate(-0 50.6 182.824904)">0.6</text>
     </g>
    </g>
    <g id="ytick_5">
     <g id="line2d_11">
      <g>
       <use xlink:href="#ma7a0cf40f6" x="57.6" y="140.273849" style="stroke: #000000; stroke-width: 0.8"/>
      </g>
     </g>
     <g id="text_12">
      <text style="font: 10px 'IPAexGothic'; text-anchor: end" x="50.6" y="144.019161" transform="rotate(-0 50.6 144.019161)">0.8</text>
     </g>
    </g>
    <g id="ytick_6">
     <g id="line2d_12">
      <g>
       <use xlink:href="#ma7a0cf40f6" x="57.6" y="101.468106" style="stroke: #000000; stroke-width: 0.8"/>
      </g>
     </g>
     <g id="text_13">
      <text style="font: 10px 'IPAexGothic'; text-anchor: end" x="50.6" y="105.213418" transform="rotate(-0 50.6 105.213418)">1.0</text>
     </g>
    </g>
    <g id="ytick_7">
     <g id="line2d_13">
      <g>
       <use xlink:href="#ma7a0cf40f6" x="57.6" y="62.662363" style="stroke: #000000; stroke-width: 0.8"/>
      </g>
     </g>
     <g id="text_14">
      <text style="font: 10px 'IPAexGothic'; text-anchor: end" x="50.6" y="66.407675" transform="rotate(-0 50.6 66.407675)">1.2</text>
     </g>
    </g>
    <g id="text_15">
     <text style="font: 10px 'IPAexGothic'; text-anchor: middle" x="29.460938" y="174.528" transform="rotate(-90 29.460938 174.528)">振幅</text>
    </g>
    <g id="text_16">
     <text style="font: 10px 'IPAexGothic'; text-anchor: start" x="57.6" y="38.472" transform="rotate(-0 57.6 38.472)">1e7</text>
    </g>
   </g>
   <g id="line2d_14">
    <path d="M 73.832727 295.215751 
L 74.031536 294.595175 
L 74.429153 295.199158 
L 75.356927 295.240415 
L 75.622005 295.155727 
L 76.152162 295.242385 
L 77.079935 295.182313 
L 77.146205 295.255503 
L 77.278744 295.178249 
L 77.543822 295.190417 
L 77.742631 295.207545 
L 79.266831 295.137474 
L 79.39937 295.174965 
L 79.465639 295.135654 
L 79.598178 295.222716 
L 79.995796 295.237506 
L 80.194604 295.306065 
L 80.8573 295.397682 
L 81.188648 295.269025 
L 81.387456 295.24483 
L 81.718804 295.051187 
L 81.917613 295.085421 
L 82.050152 294.902909 
L 82.182691 295.019582 
L 82.646578 294.734746 
L 82.779117 294.98679 
L 82.845387 294.812042 
L 82.911656 294.850472 
L 83.176734 294.941395 
L 83.309274 294.717966 
L 83.441813 294.974687 
L 83.640621 294.875006 
L 83.706891 295.067855 
L 83.77316 295.002716 
L 83.905699 295.016525 
L 84.237047 295.173607 
L 84.303317 295.158157 
L 84.502125 295.300208 
L 84.833473 295.414284 
L 85.098551 295.3122 
L 85.562438 295.173261 
L 85.694977 295.019484 
L 85.761247 295.092346 
L 86.490212 294.906388 
L 86.556482 295.000936 
L 86.622751 294.869368 
L 86.689021 294.909452 
L 86.954099 294.998078 
L 87.152908 294.908293 
L 87.351716 295.083501 
L 87.484255 295.15588 
L 88.014412 295.255622 
L 88.544568 295.109715 
L 88.743377 294.818514 
L 88.809646 294.952262 
L 88.875916 294.897916 
L 88.942186 294.770945 
L 89.008455 294.942883 
L 89.207264 294.504092 
L 89.406072 294.84369 
L 89.538612 294.277812 
L 89.73742 294.620504 
L 89.80369 294.58094 
L 89.869959 294.358084 
L 89.936229 294.423309 
L 90.002498 294.596315 
L 90.068768 294.485442 
L 90.135038 294.080015 
L 90.201307 294.483821 
L 90.267577 294.250355 
L 90.400116 294.633349 
L 90.532655 294.667975 
L 90.797733 294.210834 
L 90.930272 294.878427 
L 91.129081 294.797642 
L 91.26162 294.863476 
L 92.056855 295.399968 
L 92.454472 295.037538 
L 93.249707 294.479913 
L 93.382246 294.094459 
L 93.581054 294.54942 
L 93.647324 294.439749 
L 93.846133 293.867482 
L 94.044941 294.112386 
L 94.111211 294.45935 
L 94.24375 293.646695 
L 94.310019 293.65817 
L 94.508828 294.328938 
L 94.707637 293.555646 
L 94.773906 293.451498 
L 94.972715 294.209757 
L 95.038985 294.0261 
L 95.237793 293.09998 
L 95.370332 294.079085 
L 95.569141 293.757275 
L 95.635411 293.965059 
L 95.70168 293.716863 
L 95.76795 294.046763 
L 95.834219 293.990259 
L 95.900489 293.990034 
L 96.033028 293.497126 
L 96.099297 294.223534 
L 96.165567 294.148973 
L 96.364376 293.906043 
L 96.430645 293.98715 
L 96.496915 294.465982 
L 96.563184 294.442351 
L 96.629454 294.169797 
L 96.761993 294.622742 
L 96.828263 294.566289 
L 96.894532 294.516346 
L 97.093341 294.957038 
L 97.557228 294.941832 
L 97.756036 294.557498 
L 97.822306 294.552692 
L 98.153654 293.485972 
L 98.352462 293.089273 
L 98.418732 293.221715 
L 98.485001 293.812684 
L 98.68381 292.244051 
L 98.75008 292.762683 
L 98.882619 291.139384 
L 98.948888 291.787494 
L 99.015158 291.044062 
L 99.081427 291.331729 
L 99.213966 291.844386 
L 99.346506 290.668009 
L 99.412775 291.342621 
L 99.479045 291.298526 
L 99.545314 291.085003 
L 99.611584 290.276759 
L 99.744123 291.370644 
L 99.942932 289.527877 
L 100.009201 290.297989 
L 100.075471 289.66796 
L 100.14174 290.261768 
L 100.20801 290.093292 
L 100.274279 290.027811 
L 100.340549 292.168066 
L 100.406818 290.839776 
L 100.473088 291.360389 
L 100.605627 290.481216 
L 100.870705 292.316265 
L 100.936975 292.288459 
L 101.069514 292.765486 
L 101.202053 292.427421 
L 101.268323 292.716938 
L 101.334592 292.683207 
L 101.66594 290.603054 
L 101.73221 289.927089 
L 101.798479 290.51498 
L 101.864749 289.447701 
L 101.931018 290.769353 
L 101.997288 287.753729 
L 102.063557 288.529054 
L 102.129827 288.14644 
L 102.328636 284.56965 
L 102.394905 285.185218 
L 102.461175 284.653596 
L 102.792522 270.050677 
L 102.925062 245.005926 
L 103.057601 144.789634 
L 103.19014 265.019764 
L 103.322679 278.37955 
L 103.388948 277.487876 
L 103.455218 275.463409 
L 103.720296 285.567199 
L 103.852835 286.10438 
L 103.919105 287.727496 
L 103.985374 287.456917 
L 104.382992 291.293567 
L 104.449261 291.391548 
L 104.515531 291.316736 
L 104.5818 291.08542 
L 104.64807 291.194799 
L 104.913148 293.266794 
L 104.979418 293.430736 
L 105.045687 293.190534 
L 105.111957 290.573521 
L 105.178226 290.749354 
L 105.244496 290.142818 
L 105.310765 290.202534 
L 105.443305 291.118808 
L 105.575844 290.833209 
L 105.642113 290.880223 
L 105.840922 291.370616 
L 105.907191 290.732412 
L 106.039731 287.573613 
L 106.17227 291.022068 
L 106.304809 289.719632 
L 106.371078 287.087165 
L 106.437348 288.505473 
L 106.569887 290.894789 
L 106.636157 290.745414 
L 106.702426 291.148377 
L 106.768696 292.481151 
L 106.834965 291.687951 
L 107.033774 290.80789 
L 107.298852 292.084577 
L 107.431391 293.157393 
L 107.6302 292.928891 
L 107.762739 292.006995 
L 107.961548 294.227663 
L 108.027817 293.903142 
L 108.094087 294.011046 
L 108.292895 294.492563 
L 108.359165 294.488922 
L 108.624243 294.869439 
L 108.823052 294.792832 
L 109.220669 293.651029 
L 109.286939 293.995031 
L 109.353208 293.63532 
L 109.419478 293.97087 
L 109.485747 293.489872 
L 109.552017 293.854081 
L 109.618286 293.677904 
L 109.684556 293.256284 
L 109.750826 293.291064 
L 109.817095 293.840479 
L 109.949634 293.13512 
L 110.015904 293.6917 
L 110.148443 292.91873 
L 110.214712 292.837879 
L 110.347252 293.333254 
L 110.479791 292.846987 
L 110.61233 293.304273 
L 110.678599 292.954945 
L 110.744869 293.183429 
L 110.811138 292.867938 
L 110.943678 293.295089 
L 111.208756 292.830956 
L 111.275025 293.530005 
L 111.407564 292.872272 
L 111.540104 293.573445 
L 111.672643 292.69356 
L 111.738912 293.88292 
L 111.805182 293.618731 
L 111.937721 293.183136 
L 112.13653 293.895264 
L 112.269069 293.501341 
L 112.335338 293.726032 
L 112.401608 293.899724 
L 112.467877 293.685048 
L 112.534147 293.830382 
L 112.732956 294.03503 
L 112.865495 294.72028 
L 112.931764 294.613005 
L 113.064303 294.843978 
L 113.130573 294.551034 
L 113.196842 294.593418 
L 113.461921 295.061644 
L 113.59446 295.056925 
L 113.793268 295.234324 
L 114.058347 295.160329 
L 114.190886 295.095249 
L 114.522233 294.733335 
L 114.654773 294.810938 
L 114.853581 294.220881 
L 114.919851 294.412962 
L 114.98612 294.857067 
L 115.05239 294.701631 
L 115.251199 294.313113 
L 115.317468 294.527758 
L 115.383738 294.220739 
L 115.450007 294.333603 
L 115.516277 294.390282 
L 115.582546 294.303232 
L 115.648816 294.099769 
L 115.715085 294.191299 
L 115.847625 294.350833 
L 115.980164 294.028173 
L 116.046433 294.446611 
L 116.112703 294.173449 
L 116.245242 294.037343 
L 116.311511 294.397726 
L 116.377781 294.077203 
L 116.444051 294.163804 
L 116.51032 294.427822 
L 116.57659 294.376895 
L 116.642859 294.186091 
L 116.841668 294.544537 
L 116.907937 294.498117 
L 116.974207 294.667375 
L 117.040477 294.537368 
L 117.173016 294.635144 
L 117.239285 294.934395 
L 117.305555 294.757124 
L 117.504363 295.032951 
L 117.636903 295.013219 
L 117.96825 295.195549 
L 118.100789 295.092854 
L 118.167059 295.007921 
L 118.233329 294.617563 
L 118.365868 294.942572 
L 118.432137 294.688211 
L 118.498407 294.887196 
L 118.564676 294.86428 
L 118.630946 294.715996 
L 118.697215 294.904325 
L 118.763485 294.772602 
L 119.094833 294.157085 
L 119.161102 294.703907 
L 119.227372 294.447772 
L 119.293641 294.745151 
L 119.42618 294.331403 
L 119.691259 294.578649 
L 119.757528 294.31851 
L 119.823798 294.445527 
L 119.890067 294.298061 
L 119.956337 294.329259 
L 120.022606 294.669775 
L 120.088876 294.605018 
L 120.221415 294.410031 
L 120.287685 294.684421 
L 120.420224 294.435572 
L 120.486493 294.48817 
L 120.685302 294.797269 
L 120.751572 294.562986 
L 120.817841 294.817919 
L 120.884111 294.736294 
L 121.082919 295.023625 
L 121.215458 294.793357 
L 121.414267 295.119691 
L 121.480537 295.001975 
L 121.546806 295.079291 
L 121.745615 295.086694 
L 121.944424 295.213972 
L 122.010693 294.904934 
L 122.076963 294.976008 
L 122.209502 294.802257 
L 122.342041 295.053604 
L 122.607119 294.70483 
L 122.673389 294.86441 
L 122.805928 294.423131 
L 123.004736 294.8317 
L 123.137276 294.571177 
L 123.203545 294.736307 
L 123.269815 294.640479 
L 123.336084 294.493478 
L 123.402354 294.608052 
L 123.468623 294.824258 
L 123.601162 294.451721 
L 123.799971 294.999059 
L 123.866241 294.447388 
L 123.93251 294.607667 
L 123.99878 294.737242 
L 124.065049 294.547453 
L 124.131319 294.781124 
L 124.197588 294.598042 
L 124.263858 294.707401 
L 124.727745 295.092868 
L 124.794014 294.882036 
L 124.860284 294.94522 
L 125.191632 295.251178 
L 125.721788 295.28172 
L 126.318214 294.946736 
L 126.384484 294.98151 
L 126.450753 294.782893 
L 126.517023 294.906751 
L 126.583292 295.029476 
L 126.848371 294.593988 
L 126.98091 294.837144 
L 127.047179 294.566338 
L 127.113449 294.759924 
L 127.179718 294.598058 
L 127.245988 294.675534 
L 127.312257 294.873178 
L 127.444797 294.325392 
L 127.577336 294.664981 
L 127.643605 294.44167 
L 127.776144 294.786374 
L 127.842414 294.7288 
L 128.041223 294.33679 
L 128.107492 294.101305 
L 128.173762 294.702638 
L 128.240031 294.589931 
L 128.43884 294.156073 
L 128.505109 294.608649 
L 128.571379 294.303632 
L 128.703918 294.637117 
L 128.836457 294.103943 
L 128.968996 294.496758 
L 129.035266 294.43694 
L 129.167805 293.840719 
L 129.300344 294.25694 
L 129.366614 294.324405 
L 129.697961 293.629944 
L 129.764231 294.376609 
L 129.96304 293.46775 
L 130.029309 294.183501 
L 130.095579 294.158015 
L 130.161848 293.191838 
L 130.228118 293.299513 
L 130.426926 293.668556 
L 130.625735 292.577747 
L 130.692005 293.215887 
L 130.758274 293.044151 
L 130.824544 293.051564 
L 130.957083 292.279565 
L 131.023352 292.318576 
L 131.089622 292.526106 
L 131.222161 291.863701 
L 131.288431 290.714486 
L 131.3547 291.127182 
L 131.42097 292.142249 
L 131.553509 289.816657 
L 131.619778 291.82408 
L 131.818587 285.942839 
L 131.884857 287.206278 
L 132.149935 259.150091 
L 132.216204 53.568 
L 132.348744 274.032282 
L 132.481283 286.283158 
L 132.547552 283.9292 
L 132.94517 291.193214 
L 133.077709 289.449129 
L 133.276517 291.641974 
L 133.342787 290.994157 
L 133.409056 292.866718 
L 133.475326 292.593256 
L 133.541596 291.76343 
L 133.674135 293.024805 
L 133.740404 293.128717 
L 133.872943 292.761442 
L 133.939213 293.279212 
L 134.005482 293.15642 
L 134.204291 292.694197 
L 134.33683 293.03681 
L 134.469369 293.743462 
L 134.535639 293.707173 
L 134.601908 293.487318 
L 134.668178 293.562639 
L 134.734447 293.537597 
L 134.800717 294.365939 
L 134.866987 294.126885 
L 134.933256 294.287011 
L 135.065795 293.804008 
L 135.198334 294.124553 
L 135.264604 293.904222 
L 135.463413 294.423669 
L 135.595952 294.292239 
L 135.662221 294.310307 
L 135.79476 294.138157 
L 135.993569 294.19743 
L 136.258647 295.199516 
L 136.324917 293.929534 
L 136.391186 294.002013 
L 136.523725 294.312277 
L 136.589995 294.245318 
L 136.722534 294.39004 
L 136.855073 294.28108 
L 136.921343 294.699079 
L 136.987612 294.634089 
L 137.053882 294.656517 
L 137.120151 294.83912 
L 137.186421 294.803825 
L 137.451499 294.611493 
L 137.517769 294.429953 
L 137.584038 294.492445 
L 137.716577 294.765237 
L 137.849117 294.569291 
L 137.981656 294.845736 
L 138.047925 294.811145 
L 138.246734 295.03141 
L 138.379273 294.932595 
L 138.909429 295.264741 
L 138.975699 295.180164 
L 139.041968 295.272753 
L 139.307047 295.342046 
L 139.373316 295.303506 
L 139.439586 295.397843 
L 139.505855 295.310122 
L 139.704664 295.131896 
L 139.837203 295.187684 
L 139.903473 294.965309 
L 139.969742 295.065013 
L 140.036012 295.109665 
L 140.102281 294.889422 
L 140.168551 295.022507 
L 140.30109 294.685292 
L 140.36736 294.729106 
L 140.433629 294.998833 
L 140.499899 294.975953 
L 140.632438 294.641642 
L 140.897516 294.800352 
L 140.963786 294.505209 
L 141.030055 294.765992 
L 141.162594 294.47346 
L 141.295133 294.532169 
L 141.361403 294.463806 
L 141.427672 294.528185 
L 141.493942 294.506725 
L 141.626481 294.986649 
L 141.82529 294.388606 
L 141.891559 294.586334 
L 141.957829 294.382815 
L 142.024098 294.451832 
L 142.156638 294.838407 
L 142.421716 294.62994 
L 142.554255 294.855694 
L 142.620524 294.684389 
L 142.686794 294.765641 
L 142.885603 294.926721 
L 143.084411 294.450111 
L 143.150681 294.694954 
L 143.21695 294.707983 
L 143.482029 294.112095 
L 143.614568 294.633524 
L 143.680837 294.555585 
L 143.813376 294.538392 
L 143.879646 294.110164 
L 143.945915 294.296492 
L 144.012185 294.359457 
L 144.078455 294.143485 
L 144.144724 294.298871 
L 144.210994 294.346553 
L 144.343533 293.942483 
L 144.409802 294.151345 
L 144.476072 294.394682 
L 144.542341 293.978888 
L 144.608611 294.240388 
L 144.674881 294.51375 
L 144.873689 294.0863 
L 144.939959 294.412882 
L 145.006228 294.211674 
L 145.138767 294.104257 
L 145.205037 294.189925 
L 145.271307 294.098143 
L 145.536385 294.303461 
L 145.668924 293.643994 
L 145.801463 294.369245 
L 145.867733 294.329676 
L 145.934002 294.108373 
L 146.000272 294.15674 
L 146.066541 294.381581 
L 146.19908 294.033792 
L 146.331619 294.276201 
L 146.397889 294.042642 
L 146.530428 294.399006 
L 146.928045 293.981301 
L 146.994315 294.474269 
L 147.060585 294.329013 
L 147.126854 294.409108 
L 147.325663 294.114328 
L 147.458202 294.422478 
L 147.524471 294.228095 
L 147.590741 294.25451 
L 147.78955 294.369519 
L 147.855819 294.204111 
L 148.054628 294.60273 
L 148.253437 294.466449 
L 148.319706 294.646549 
L 148.385976 294.511025 
L 148.452245 294.460495 
L 148.518515 294.649518 
L 148.584784 294.565112 
L 148.717323 294.464323 
L 148.783593 294.791296 
L 148.982402 294.326415 
L 149.313749 294.556232 
L 149.446288 294.241988 
L 149.512558 294.270817 
L 149.578828 294.079162 
L 149.645097 294.588749 
L 149.711367 294.383836 
L 149.910175 294.240041 
L 150.108984 294.663486 
L 150.241523 294.287526 
L 150.307793 294.311617 
L 150.374062 294.643115 
L 150.440332 294.403359 
L 150.506601 294.470528 
L 150.572871 294.787787 
L 150.63914 294.510288 
L 150.70541 294.53158 
L 150.77168 294.752474 
L 150.837949 294.715103 
L 150.904219 294.567061 
L 151.036758 294.889259 
L 151.103027 294.818509 
L 151.235566 294.770528 
L 151.434375 294.984695 
L 151.500645 294.877839 
L 151.633184 295.124323 
L 151.765723 295.011131 
L 151.831992 295.136546 
L 151.898262 295.08228 
L 152.16334 295.080281 
L 152.362149 294.964703 
L 152.428418 295.157581 
L 152.494688 295.042929 
L 152.627227 294.987191 
L 152.892305 294.831163 
L 152.958575 294.709353 
L 153.024844 294.763571 
L 153.157384 294.795153 
L 153.488731 294.463379 
L 153.555001 294.799685 
L 153.62127 294.653659 
L 153.753809 294.371374 
L 153.820079 294.464956 
L 153.886349 294.561108 
L 153.952618 294.339396 
L 154.018888 294.425804 
L 154.085157 294.50363 
L 154.151427 294.285329 
L 154.217696 294.381917 
L 154.350235 294.341485 
L 154.416505 294.166183 
L 154.482775 294.421716 
L 154.549044 294.198137 
L 154.615314 294.420133 
L 154.747853 294.047547 
L 154.814122 294.137777 
L 154.880392 294.037548 
L 154.946661 294.096002 
L 155.012931 294.346107 
L 155.079201 293.989084 
L 155.14547 294.097989 
L 155.21174 294.491572 
L 155.278009 293.451394 
L 155.344279 293.47237 
L 155.543087 294.085548 
L 155.609357 294.014391 
L 155.741896 294.188166 
L 155.874435 293.83442 
L 155.940705 293.210831 
L 156.006974 293.335107 
L 156.272053 294.030641 
L 156.6034 292.844782 
L 156.66967 293.913964 
L 156.735939 293.367872 
L 156.802209 293.855123 
L 157.067287 292.913041 
L 157.133557 293.379748 
L 157.199826 293.211349 
L 157.266096 293.162617 
L 157.332365 293.41731 
L 157.398635 293.242136 
L 157.464905 292.700375 
L 157.531174 293.038124 
L 157.597444 293.156311 
L 157.663713 292.646449 
L 157.729983 292.787646 
L 157.796252 293.281942 
L 157.862522 293.260998 
L 157.928791 292.753006 
L 157.995061 293.15561 
L 158.061331 292.630061 
L 158.1276 292.678647 
L 158.19387 293.210267 
L 158.260139 292.874899 
L 158.392678 292.210547 
L 158.657756 292.984311 
L 158.790296 292.420372 
L 158.856565 292.623534 
L 158.989104 291.832717 
L 159.055374 292.425892 
L 159.121643 292.215908 
L 159.254182 291.863683 
L 159.320452 292.999969 
L 159.386722 291.019493 
L 159.452991 292.057578 
L 159.519261 291.032016 
L 159.58553 291.385636 
L 159.6518 291.516943 
L 159.718069 290.877022 
L 159.784339 292.185685 
L 159.850608 291.440779 
L 159.983148 290.545312 
L 160.049417 291.000662 
L 160.115687 289.844272 
L 160.181956 290.647249 
L 160.314495 289.327637 
L 160.380765 289.505392 
L 160.513304 290.055131 
L 160.645843 289.533955 
L 160.712113 286.588566 
L 160.778382 288.053914 
L 160.844652 286.595363 
L 160.977191 279.68032 
L 161.04346 283.650607 
L 161.176 267.500584 
L 161.242269 269.420255 
L 161.308539 278.918565 
L 161.441078 58.564125 
L 161.639886 267.564406 
L 161.971234 286.908753 
L 162.037504 285.109413 
L 162.302582 289.986175 
L 162.368852 289.853622 
L 162.435121 290.353357 
L 162.501391 290.12999 
L 162.63393 286.744369 
L 162.700199 288.743056 
L 162.766469 289.849714 
L 162.832738 287.941559 
L 162.899008 291.588153 
L 162.965278 290.911286 
L 163.031547 289.605567 
L 163.097817 290.035499 
L 163.164086 293.017057 
L 163.230356 292.556841 
L 163.296625 292.464743 
L 163.362895 291.779357 
L 163.495434 292.746221 
L 163.627973 291.848645 
L 163.694243 292.106391 
L 163.760512 291.933081 
L 163.893051 291.571109 
L 163.959321 292.232295 
L 164.02559 292.074276 
L 164.09186 292.163382 
L 164.158129 293.146878 
L 164.224399 292.941204 
L 164.290669 292.668103 
L 164.356938 293.062656 
L 164.489477 292.12445 
L 164.555747 293.06323 
L 164.622016 292.793509 
L 164.688286 292.316209 
L 164.820825 293.423057 
L 164.887095 293.549485 
L 165.019634 292.887733 
L 165.284712 293.472925 
L 165.483521 293.3052 
L 165.54979 293.343742 
L 165.61606 293.667429 
L 165.682329 293.541497 
L 165.748599 293.557702 
L 165.881138 294.050418 
L 166.013677 292.858685 
L 166.212486 293.946941 
L 166.278755 294.029731 
L 166.477564 293.6826 
L 166.610103 292.422458 
L 166.742642 294.155727 
L 166.808912 293.991922 
L 166.875181 293.965421 
L 167.07399 293.203175 
L 167.206529 293.477593 
L 167.272799 293.264137 
L 167.339068 293.87619 
L 167.405338 293.538737 
L 167.537877 294.485853 
L 167.670416 293.175155 
L 167.869225 293.714792 
L 168.001764 293.415571 
L 168.266842 294.031224 
L 168.333111 293.957133 
L 168.399381 293.221333 
L 168.465651 293.407985 
L 168.730729 294.061558 
L 168.863268 293.768739 
L 168.929537 293.837691 
L 168.995807 293.928986 
L 169.128346 293.560997 
L 169.194616 293.782793 
L 169.260885 294.677499 
L 169.327155 294.250848 
L 169.459694 293.928439 
L 169.525963 293.965553 
L 170.05612 294.984795 
L 170.188659 294.280933 
L 170.254928 294.320041 
L 170.321198 294.649584 
L 170.387468 294.467744 
L 170.520007 294.403309 
L 170.718815 294.723645 
L 171.182702 294.295379 
L 171.381511 294.114336 
L 171.44778 294.225579 
L 171.51405 294.608321 
L 171.646589 294.039035 
L 171.712859 294.121448 
L 171.779128 294.156742 
L 171.845398 293.939225 
L 171.911667 294.403604 
L 171.977937 294.251208 
L 172.044206 294.144276 
L 172.110476 294.465543 
L 172.176746 294.221289 
L 172.243015 294.259809 
L 172.309285 294.288753 
L 172.508093 294.716489 
L 172.640632 294.520059 
L 172.905711 294.929473 
L 172.97198 294.833067 
L 173.104519 294.594823 
L 173.303328 295.039443 
L 173.634676 294.678914 
L 173.700945 294.53772 
L 173.767215 294.624135 
L 173.833484 294.862074 
L 173.966023 294.592975 
L 174.098563 294.968423 
L 174.164832 294.910496 
L 174.297371 294.488036 
L 174.363641 294.672194 
L 174.42991 294.304584 
L 174.49618 294.735156 
L 174.562449 294.534217 
L 174.761258 294.919489 
L 175.026336 294.954184 
L 175.225145 294.793189 
L 175.357684 294.813035 
L 175.423954 294.828263 
L 175.556493 294.570717 
L 175.622762 294.88089 
L 175.689032 294.832712 
L 175.755301 294.929252 
L 175.821571 295.231989 
L 175.95411 294.940105 
L 176.02038 295.128846 
L 176.086649 295.014662 
L 176.152919 294.701645 
L 176.219188 294.77848 
L 176.616806 295.142388 
L 176.881884 295.228226 
L 177.146962 295.450811 
L 177.345771 295.246291 
L 177.47831 295.208583 
L 177.544579 295.224792 
L 177.875927 294.807054 
L 177.942197 294.963865 
L 178.074736 294.718814 
L 178.273545 294.879514 
L 178.339814 294.407161 
L 178.406084 294.716738 
L 178.472353 294.628829 
L 178.538623 294.78428 
L 178.604892 294.624463 
L 178.671162 294.799323 
L 178.737431 294.721202 
L 178.86997 294.54303 
L 179.068779 294.856112 
L 179.201318 294.475151 
L 179.267588 294.637404 
L 179.598936 294.831785 
L 179.665205 294.605974 
L 179.731475 294.692898 
L 179.797744 294.729744 
L 179.864014 294.423202 
L 179.930283 294.591327 
L 179.996553 294.512558 
L 180.129092 294.802263 
L 180.327901 294.47216 
L 180.46044 294.664856 
L 180.526709 294.424822 
L 180.592979 294.454192 
L 180.659248 294.576126 
L 180.725518 294.323767 
L 180.791788 294.35888 
L 180.858057 294.430626 
L 180.924327 294.081272 
L 180.990596 294.141374 
L 181.056866 294.016272 
L 181.255674 294.44126 
L 181.388214 294.246526 
L 181.587022 293.770051 
L 181.653292 294.263767 
L 181.719561 294.205241 
L 181.785831 293.892332 
L 181.8521 294.141964 
L 181.91837 293.830112 
L 182.050909 294.246615 
L 182.315987 293.670799 
L 182.382257 293.842952 
L 182.448526 294.382835 
L 182.514796 294.088073 
L 182.647335 293.752036 
L 182.713605 294.064492 
L 182.846144 293.711636 
L 182.912413 294.124203 
L 183.044952 293.71205 
L 183.111222 293.952457 
L 183.177492 293.830889 
L 183.3763 293.920334 
L 183.44257 293.685768 
L 183.508839 293.714056 
L 183.575109 293.939033 
L 183.641378 293.816286 
L 183.773917 293.855119 
L 183.840187 293.537586 
L 183.906457 293.877074 
L 183.972726 293.804004 
L 184.038996 293.946774 
L 184.237804 293.653882 
L 184.304074 293.949672 
L 184.370343 293.568387 
L 184.502883 293.96091 
L 184.569152 293.556857 
L 184.635422 293.860748 
L 184.701691 293.834035 
L 184.767961 293.599749 
L 184.83423 293.840448 
L 184.9005 293.221355 
L 184.966769 293.625827 
L 185.033039 293.958754 
L 185.099309 293.779605 
L 185.165578 293.659634 
L 185.231848 293.945248 
L 185.298117 293.89575 
L 185.364387 293.871283 
L 185.563195 292.948752 
L 185.629465 293.061678 
L 185.828274 293.809595 
L 186.093352 292.670034 
L 186.159621 292.867341 
L 186.225891 293.072827 
L 186.292161 294.320377 
L 186.35843 293.673368 
L 186.490969 293.33968 
L 186.557239 293.065446 
L 186.623508 293.134068 
L 186.756047 293.203983 
L 186.954856 293.754089 
L 187.021126 293.812323 
L 187.087395 293.69982 
L 187.153665 293.021527 
L 187.219934 293.110004 
L 187.286204 292.947541 
L 187.352473 293.539865 
L 187.418743 293.113422 
L 187.551282 293.716114 
L 187.617552 293.630093 
L 187.683821 293.305042 
L 187.750091 293.330489 
L 187.81636 294.237799 
L 187.88263 292.864364 
L 187.948899 293.0927 
L 188.147708 293.888195 
L 188.346517 293.171357 
L 188.479056 293.180049 
L 188.545325 293.377356 
L 188.611595 292.8772 
L 188.744134 293.540391 
L 188.942943 292.2427 
L 189.141751 293.197178 
L 189.34056 290.587542 
L 189.473099 292.770937 
L 189.804447 290.339575 
L 189.870716 291.352457 
L 190.268334 285.612191 
L 190.400873 282.822351 
L 190.467142 279.077099 
L 190.533412 262.741198 
L 190.599682 184.261207 
L 190.665951 233.340052 
L 190.79849 278.255226 
L 191.129838 288.975003 
L 191.461186 292.079519 
L 191.527455 291.21726 
L 191.593725 291.261958 
L 191.659994 291.869412 
L 191.726264 291.418893 
L 191.858803 292.31344 
L 191.925073 291.796556 
L 192.123881 292.820455 
L 192.25642 291.939982 
L 192.32269 292.028192 
L 192.38896 292.733631 
L 192.455229 292.5799 
L 192.521499 292.066495 
L 192.587768 292.935105 
L 192.654038 292.318402 
L 192.720307 292.890147 
L 192.786577 292.817615 
L 192.919116 292.521642 
L 193.051655 292.899788 
L 193.117925 293.530845 
L 193.316733 292.725073 
L 193.383003 293.159666 
L 193.449272 292.52386 
L 193.648081 293.659902 
L 193.78062 292.60206 
L 193.84689 292.785939 
L 193.913159 293.050174 
L 193.979429 292.959997 
L 194.045698 293.001606 
L 194.310777 293.647241 
L 194.575855 292.779105 
L 194.642124 293.196033 
L 194.708394 292.920877 
L 194.774663 293.004012 
L 194.840933 292.919951 
L 194.973472 292.940385 
L 195.039742 293.691024 
L 195.106011 293.230448 
L 195.172281 293.607316 
L 195.30482 292.711035 
L 195.437359 293.060851 
L 195.503629 293.013437 
L 195.636168 293.693251 
L 195.768707 292.747285 
L 195.901246 293.075263 
L 195.967515 293.017892 
L 196.100055 293.46788 
L 196.365133 292.838029 
L 196.431402 292.987523 
L 196.497672 292.949968 
L 196.630211 293.515046 
L 196.696481 293.462476 
L 196.895289 293.869779 
L 197.027828 293.051276 
L 197.160367 292.933281 
L 197.226637 292.805955 
L 197.425446 293.750944 
L 197.491715 293.857515 
L 197.557985 293.784563 
L 197.756793 293.480663 
L 197.823063 293.481474 
L 197.955602 293.746172 
L 198.021872 293.682055 
L 198.22068 294.107359 
L 198.28695 293.727571 
L 198.353219 293.865399 
L 198.485759 293.698527 
L 198.618298 294.190971 
L 198.817106 292.804738 
L 198.949645 294.666121 
L 199.280993 293.994543 
L 199.413532 293.902663 
L 199.612341 294.286521 
L 199.67861 294.488733 
L 199.74488 294.115493 
L 199.81115 294.548754 
L 199.877419 294.384228 
L 199.943689 294.075445 
L 200.009958 294.313028 
L 200.076228 294.108743 
L 200.208767 294.477988 
L 200.540115 293.85391 
L 200.738923 294.565419 
L 200.805193 294.72907 
L 200.871462 294.690404 
L 201.136541 294.471372 
L 201.401619 294.945634 
L 201.534158 294.79331 
L 201.732967 295.015473 
L 201.799236 295.132893 
L 201.865506 295.074273 
L 201.931775 295.007701 
L 201.998045 295.171601 
L 202.064314 295.137846 
L 202.263123 295.200499 
L 202.528201 295.308708 
L 202.66074 295.264195 
L 202.79328 295.161448 
L 202.925819 295.229541 
L 203.323436 295.02194 
L 203.654784 295.106029 
L 203.787323 294.910383 
L 203.986131 295.074358 
L 204.118671 294.185546 
L 204.18494 294.557092 
L 204.25121 295.002992 
L 204.317479 294.979818 
L 204.450018 294.683 
L 204.516288 294.8739 
L 204.582557 295.086423 
L 204.648827 295.029525 
L 204.980175 294.745949 
L 205.046444 294.930063 
L 205.245253 294.659436 
L 205.377792 295.087693 
L 205.444062 294.988616 
L 205.576601 294.937382 
L 205.775409 294.874131 
L 205.907949 294.95006 
L 205.974218 294.92554 
L 206.173027 295.092801 
L 206.305566 295.069853 
L 206.371835 294.959396 
L 206.438105 295.133221 
L 206.504375 295.046957 
L 206.570644 295.000721 
L 206.636914 295.113909 
L 206.703183 295.054655 
L 206.835722 295.133129 
L 206.901992 295.225405 
L 206.968261 295.144164 
L 207.034531 295.004307 
L 207.100801 295.059473 
L 207.23334 295.234372 
L 207.432148 295.146571 
L 208.359922 295.297929 
L 208.492461 295.078954 
L 208.625 295.122821 
L 208.757539 294.928493 
L 209.022618 295.00957 
L 209.155157 295.061046 
L 209.420235 295.020497 
L 209.552774 294.711681 
L 209.619044 294.750634 
L 209.685313 294.457701 
L 209.884122 294.955284 
L 209.950391 294.9315 
L 210.08293 294.540201 
L 210.1492 294.63667 
L 210.21547 294.935972 
L 210.281739 294.794085 
L 210.348009 294.98379 
L 210.414278 294.918947 
L 210.679356 294.697515 
L 210.878165 295.039278 
L 210.944435 294.860894 
L 211.010704 294.747734 
L 211.076974 294.947682 
L 211.143243 294.907815 
L 211.275782 294.437594 
L 211.408322 295.0441 
L 211.540861 294.867918 
L 211.60713 295.08845 
L 211.6734 295.00164 
L 211.872208 294.840794 
L 212.071017 295.070836 
L 212.137287 294.825534 
L 212.203556 294.923518 
L 212.269826 295.011527 
L 212.336095 294.803733 
L 212.402365 294.920983 
L 212.601174 294.995133 
L 212.667443 294.90085 
L 212.733713 295.00227 
L 212.799982 294.888006 
L 212.866252 294.95006 
L 212.932521 294.958393 
L 213.06506 294.854516 
L 213.13133 295.136723 
L 213.1976 295.074287 
L 213.396408 294.971673 
L 213.528947 294.973181 
L 213.661486 295.204734 
L 213.794025 295.130095 
L 214.125373 295.249378 
L 214.58926 295.372184 
L 214.920608 295.40951 
L 215.251956 295.307273 
L 215.384495 295.168522 
L 215.450764 295.208811 
L 215.649573 294.987941 
L 215.782112 295.129936 
L 216.04719 294.556651 
L 216.11346 294.834781 
L 216.179729 294.717936 
L 216.312269 294.522689 
L 216.378538 294.627498 
L 216.444808 294.579919 
L 216.577347 294.097477 
L 216.643616 294.47705 
L 216.709886 294.277724 
L 216.842425 294.057239 
L 216.908695 294.614905 
L 216.974964 293.81004 
L 217.041234 293.865143 
L 217.107503 293.764106 
L 217.372581 294.195039 
L 217.438851 294.050406 
L 217.505121 292.577915 
L 217.57139 293.333828 
L 217.63766 293.830198 
L 217.703929 293.234393 
L 217.770199 293.401138 
L 217.836468 294.12757 
L 217.902738 293.996276 
L 218.167816 293.039161 
L 218.300355 293.851049 
L 218.432894 293.209756 
L 218.499164 293.419042 
L 218.565433 292.682503 
L 218.631703 293.018955 
L 218.764242 293.420299 
L 218.963051 291.917863 
L 219.09559 290.800424 
L 219.161859 292.469297 
L 219.228129 292.098914 
L 219.360668 291.21167 
L 219.559477 284.830485 
L 219.758285 264.472812 
L 219.824555 191.111655 
L 219.957094 274.449955 
L 220.155903 290.766192 
L 220.222172 288.683595 
L 220.288442 289.169977 
L 220.420981 291.168748 
L 220.48725 290.053486 
L 220.686059 292.392523 
L 220.818598 292.852802 
L 220.884868 292.858309 
L 221.017407 293.323965 
L 221.083676 293.123539 
L 221.216216 293.500769 
L 221.348755 293.065607 
L 221.547563 294.221815 
L 221.613833 293.899387 
L 221.680102 294.116596 
L 221.746372 294.048608 
L 221.812642 293.69781 
L 222.01145 294.568487 
L 222.143989 294.222602 
L 222.210259 294.358327 
L 222.276528 293.957516 
L 222.342798 294.200858 
L 222.475337 294.63686 
L 222.541607 294.528783 
L 222.607876 294.358893 
L 222.872954 294.848243 
L 223.270572 294.778118 
L 223.403111 294.567466 
L 223.53565 295.024573 
L 223.734459 294.80022 
L 223.800728 295.090175 
L 223.933267 294.891311 
L 223.999537 295.022254 
L 224.065806 294.953613 
L 224.198345 294.911502 
L 224.595963 295.1389 
L 224.794771 295.146361 
L 224.927311 295.141438 
L 225.05985 295.130849 
L 225.324928 295.09893 
L 225.391197 295.348389 
L 225.457467 295.278906 
L 226.51778 295.138166 
L 226.782858 295.070895 
L 226.915397 295.026868 
L 227.047936 294.895948 
L 227.180475 295.1283 
L 227.379284 294.544642 
L 227.644362 294.685786 
L 227.776901 294.594122 
L 227.97571 294.311893 
L 228.108249 294.629888 
L 228.439597 293.80852 
L 228.505867 294.278274 
L 228.572136 294.128684 
L 228.704675 294.388707 
L 228.903484 294.27333 
L 229.036023 293.820279 
L 229.102292 293.514157 
L 229.168562 294.43259 
L 229.234832 294.252029 
L 229.367371 294.609203 
L 229.49991 294.154203 
L 229.632449 294.34535 
L 229.698718 294.13195 
L 229.897527 294.437912 
L 229.963797 294.36103 
L 230.030066 293.951852 
L 230.228875 294.645224 
L 230.560223 294.216501 
L 230.626492 294.618088 
L 230.692762 294.471324 
L 230.759031 294.292492 
L 231.02411 294.807224 
L 231.090379 294.374798 
L 231.156649 294.425828 
L 231.487996 294.665263 
L 231.554266 294.460955 
L 231.753075 294.726359 
L 231.885614 294.520113 
L 231.951883 294.62151 
L 232.018153 294.461716 
L 232.084422 294.516746 
L 232.150692 294.508289 
L 232.283231 294.759431 
L 232.349501 294.618907 
L 232.41577 294.731364 
L 232.680848 294.539276 
L 232.813388 294.736104 
L 232.879657 294.590575 
L 232.945927 294.822307 
L 233.012196 294.700878 
L 233.078466 294.584242 
L 233.211005 294.791393 
L 233.343544 294.690714 
L 233.476083 294.705192 
L 233.542353 294.794072 
L 233.608622 294.732964 
L 233.741161 294.610828 
L 233.807431 294.82883 
L 233.8737 294.806638 
L 234.205048 294.688694 
L 234.470126 295.021005 
L 234.536396 294.767273 
L 234.668935 295.078146 
L 234.801474 294.954179 
L 235.066552 295.245856 
L 235.530439 295.373392 
L 236.060596 295.008115 
L 236.193135 295.112517 
L 236.325674 294.737636 
L 236.458213 294.902343 
L 236.590752 294.564628 
L 236.723291 294.006378 
L 236.85583 294.808474 
L 237.054639 294.505438 
L 237.120909 294.653897 
L 237.319717 294.367943 
L 237.717335 294.617475 
L 237.849874 294.318457 
L 237.916143 294.317785 
L 238.048682 293.825919 
L 238.247491 294.482465 
L 238.313761 294.677357 
L 238.512569 294.373128 
L 238.578839 294.603361 
L 238.711378 294.293839 
L 238.843917 294.295452 
L 239.108995 294.665234 
L 239.241534 294.657507 
L 239.374073 294.256622 
L 239.440343 294.421461 
L 239.572882 294.466807 
L 239.639152 294.493086 
L 239.705421 294.142885 
L 239.771691 294.516767 
L 239.83796 294.457318 
L 239.970499 294.83889 
L 240.103038 294.711416 
L 240.169308 294.468739 
L 240.235578 294.510881 
L 240.434386 294.579392 
L 240.500656 294.742264 
L 240.566925 294.668689 
L 240.699464 294.830221 
L 240.898273 294.61628 
L 241.030812 294.96644 
L 241.163351 294.858625 
L 241.29589 294.835644 
L 241.494699 295.057109 
L 241.627238 294.889271 
L 241.826047 295.17241 
L 242.091125 295.125853 
L 242.223664 295.176941 
L 242.356203 295.194698 
L 242.422473 295.341046 
L 242.488742 295.300657 
L 243.549055 295.381324 
L 244.012942 295.35478 
L 244.543099 295.096909 
L 244.741907 295.074107 
L 244.808177 294.955493 
L 244.874446 295.07233 
L 244.940716 295.011254 
L 245.073255 294.942062 
L 245.139525 295.019238 
L 245.272064 294.781367 
L 245.338333 294.881408 
L 245.404603 294.818257 
L 245.603411 294.749359 
L 245.669681 294.96667 
L 245.80222 294.601904 
L 246.133568 295.03457 
L 246.266107 294.461582 
L 246.332377 294.500592 
L 246.464916 294.65461 
L 246.663724 294.270174 
L 246.796263 294.7507 
L 246.995072 294.213536 
L 247.061342 294.423306 
L 247.193881 294.058036 
L 247.32642 294.384975 
L 247.392689 294.422969 
L 247.525229 293.66359 
L 247.591498 293.844216 
L 247.657768 294.27384 
L 247.724037 294.184802 
L 247.922846 293.498249 
L 248.055385 292.756852 
L 248.187924 293.835636 
L 248.453002 291.779131 
L 248.519272 291.580136 
L 248.585541 292.265898 
L 248.71808 291.083394 
L 249.049428 260.334073 
L 249.248237 288.824035 
L 249.513315 291.942349 
L 249.579585 292.068845 
L 249.645854 292.018818 
L 249.712124 292.063642 
L 249.844663 293.001215 
L 250.043472 293.584884 
L 250.109741 293.450008 
L 250.24228 293.735128 
L 250.30855 293.359755 
L 250.441089 294.123519 
L 250.507358 293.993317 
L 250.573628 294.245968 
L 250.706167 293.867359 
L 250.904976 294.111173 
L 250.971245 293.98778 
L 251.037515 294.087336 
L 251.236324 294.343316 
L 251.368863 294.170502 
L 251.435132 293.870957 
L 251.501402 293.947529 
L 251.567671 293.928372 
L 251.70021 294.261326 
L 251.83275 293.978095 
L 251.899019 294.506155 
L 251.965289 294.166044 
L 252.031558 294.123697 
L 252.296636 294.445095 
L 252.362906 294.194551 
L 252.429176 294.352337 
L 252.561715 294.70979 
L 252.694254 294.66956 
L 253.025602 295.207637 
L 253.091871 295.082012 
L 253.158141 295.125507 
L 253.423219 295.270075 
L 253.555758 295.260378 
L 253.688297 295.242461 
L 253.754567 295.022327 
L 253.820836 295.097898 
L 254.019645 295.061705 
L 254.085914 294.851673 
L 254.152184 294.89166 
L 254.284723 294.854655 
L 254.68234 294.50102 
L 254.74861 294.689337 
L 254.881149 294.378991 
L 254.947419 294.411569 
L 255.013688 294.522298 
L 255.079958 294.435745 
L 255.212497 294.209585 
L 255.345036 294.448291 
L 255.543845 294.013427 
L 255.610114 293.756893 
L 255.742653 294.276656 
L 255.875192 293.834367 
L 256.007731 294.305786 
L 256.140271 293.884654 
L 256.471618 294.069126 
L 256.537888 293.589602 
L 256.604157 294.154275 
L 256.670427 294.130829 
L 256.736697 294.249295 
L 256.869236 293.89178 
L 256.935505 293.951789 
L 257.068044 294.118066 
L 257.134314 293.878701 
L 257.399392 294.602138 
L 257.465662 294.542596 
L 257.531931 294.019343 
L 257.66447 294.479171 
L 257.73074 294.37294 
L 257.863279 294.660709 
L 257.929549 294.606356 
L 257.995818 294.079946 
L 258.194627 294.790754 
L 258.327166 294.904147 
L 258.393435 294.802779 
L 258.592244 294.973803 
L 258.791053 294.921445 
L 258.923592 294.771879 
L 258.989861 294.912005 
L 259.056131 294.873627 
L 259.25494 294.843071 
L 259.453748 295.126644 
L 259.520018 295.019373 
L 259.586287 295.070543 
L 259.785096 295.070941 
L 259.917635 295.218405 
L 260.514061 295.166165 
L 261.243026 294.947702 
L 261.309296 295.316871 
L 261.375565 295.091656 
L 261.574374 295.000889 
L 262.833496 295.102176 
L 262.899765 295.007211 
L 262.966035 295.093285 
L 263.164843 295.178843 
L 263.297382 295.037751 
L 263.496191 295.154525 
L 264.689043 295.207701 
L 265.15293 294.931766 
L 265.219199 294.829157 
L 265.285469 294.882037 
L 265.683086 295.00972 
L 266.213243 294.617404 
L 266.279512 294.804773 
L 266.345782 294.663558 
L 266.61086 294.765624 
L 266.67713 295.019993 
L 266.743399 294.943739 
L 266.942208 294.68478 
L 267.074747 294.878122 
L 267.141017 294.800036 
L 267.207286 294.947169 
L 267.273556 294.870736 
L 267.406095 294.820014 
L 267.472364 294.934733 
L 267.538634 294.85296 
L 267.671173 294.937936 
L 267.803712 295.002916 
L 267.869982 294.589032 
L 267.936251 294.790963 
L 268.06879 295.128597 
L 268.400138 295.011599 
L 268.598947 295.038319 
L 268.797755 295.059904 
L 268.864025 295.17572 
L 268.930294 295.057284 
L 268.996564 295.138109 
L 269.195373 295.083466 
L 269.261642 295.018591 
L 269.327912 295.222498 
L 269.394181 295.178341 
L 269.65926 295.121321 
L 270.056877 295.19017 
L 270.587033 294.922692 
L 270.785842 295.238857 
L 270.984651 295.038256 
L 271.05092 295.138574 
L 271.11719 295.094145 
L 271.183459 294.988034 
L 271.249729 295.040402 
L 271.514807 295.077067 
L 271.846155 294.978164 
L 271.978694 295.174641 
L 272.177503 294.914562 
L 272.906468 294.914394 
L 273.105276 294.972465 
L 273.502894 294.718255 
L 273.569163 294.76456 
L 273.635433 294.621664 
L 273.701702 294.786634 
L 273.767972 295.263863 
L 273.834241 294.9396 
L 274.03305 294.763204 
L 274.364398 294.922994 
L 274.430667 294.810623 
L 274.496937 294.891931 
L 274.563207 294.842265 
L 274.629476 294.970235 
L 274.695746 294.867665 
L 274.762015 294.955538 
L 274.828285 294.901194 
L 274.894554 294.867576 
L 274.960824 295.002095 
L 275.027093 294.930443 
L 275.55725 294.995071 
L 275.689789 294.845791 
L 276.021137 295.039563 
L 276.153676 294.674442 
L 276.219945 294.845484 
L 276.286215 294.777829 
L 276.485024 294.417988 
L 276.617563 294.646881 
L 276.683832 294.563969 
L 276.750102 294.298734 
L 276.816371 294.456579 
L 276.882641 294.255639 
L 277.01518 294.602212 
L 277.213989 294.183067 
L 277.280258 293.854398 
L 277.346528 293.872387 
L 277.412797 293.797844 
L 277.479067 294.149881 
L 277.744145 292.962992 
L 277.810415 293.362199 
L 277.876684 293.130209 
L 278.009223 290.846877 
L 278.141763 283.57744 
L 278.208032 275.935142 
L 278.274302 278.898725 
L 278.406841 290.809867 
L 278.53938 291.738084 
L 278.738188 293.459036 
L 278.804458 293.409648 
L 279.334614 294.204084 
L 279.400884 293.995821 
L 279.533423 294.403498 
L 279.665962 294.249778 
L 279.798501 294.513919 
L 279.93104 294.226884 
L 279.99731 294.4077 
L 280.129849 294.421887 
L 280.262388 294.760888 
L 280.394927 294.168482 
L 280.527466 294.300499 
L 280.792545 294.571398 
L 280.991353 294.391332 
L 281.256432 294.586234 
L 281.322701 294.439692 
L 281.52151 295.019192 
L 281.654049 294.616523 
L 281.852858 294.810789 
L 281.985397 294.854931 
L 282.117936 294.680575 
L 282.250475 294.868473 
L 282.449284 294.76608 
L 282.648092 294.45095 
L 282.714362 295.014028 
L 282.780631 294.810041 
L 282.846901 294.957775 
L 282.91317 294.607311 
L 282.97944 294.671735 
L 283.244518 294.858229 
L 283.377057 294.85855 
L 283.443327 294.755216 
L 283.509596 294.895831 
L 283.575866 294.812446 
L 283.708405 294.73218 
L 284.106022 295.100908 
L 284.238561 294.778974 
L 286.094109 295.398866 
L 286.690535 295.338094 
L 286.889344 295.206326 
L 287.021883 295.21318 
L 287.4195 295.108877 
L 287.552039 295.24589 
L 287.618309 295.128554 
L 288.015926 295.110562 
L 288.148465 295.212423 
L 288.413543 295.195155 
L 288.744891 295.282672 
L 289.142508 295.247646 
L 289.341317 295.228665 
L 289.407587 295.328179 
L 289.473856 295.273247 
L 289.672665 295.259631 
L 289.871474 295.245334 
L 290.33536 295.263405 
L 291.528212 295.245999 
L 291.660752 295.256223 
L 291.85956 295.311233 
L 291.992099 295.307481 
L 292.190908 295.370392 
L 293.184951 295.395368 
L 293.781377 295.332474 
L 294.245264 295.381102 
L 295.769464 295.323594 
L 295.968273 295.269979 
L 296.167081 295.250353 
L 296.564699 295.248316 
L 296.896046 295.162723 
L 297.293664 295.277036 
L 297.558742 295.190904 
L 298.420246 295.217564 
L 298.685324 295.085966 
L 298.817863 295.163889 
L 298.884133 295.10265 
L 298.950402 295.179102 
L 299.149211 295.164973 
L 299.28175 295.062555 
L 299.679368 295.181177 
L 299.944446 295.126811 
L 300.209524 295.230782 
L 300.408333 295.312406 
L 300.540872 295.107968 
L 300.80595 295.259999 
L 301.004759 295.302637 
L 301.137298 295.280626 
L 301.336106 295.342061 
L 302.396419 295.437844 
L 302.595228 295.472303 
L 303.257924 295.364398 
L 303.589271 295.326942 
L 303.986889 295.203273 
L 304.119428 295.201944 
L 304.318236 295.200126 
L 304.517045 295.135619 
L 304.649584 295.125989 
L 304.848393 295.107091 
L 304.914662 295.245772 
L 304.980932 295.199777 
L 305.577358 295.088901 
L 305.776167 294.960377 
L 305.908706 295.104287 
L 306.041245 294.886296 
L 306.107514 294.938637 
L 306.372593 294.493256 
L 306.438862 294.679397 
L 306.505132 294.56335 
L 306.77021 294.151702 
L 306.836479 294.329376 
L 306.969019 293.693877 
L 307.101558 292.738424 
L 307.366636 286.105264 
L 307.432905 280.736767 
L 307.631714 291.983534 
L 307.697984 292.211041 
L 307.896792 294.206815 
L 307.963062 294.372905 
L 308.029331 294.342936 
L 308.095601 294.34375 
L 308.22814 294.677361 
L 308.360679 294.645101 
L 308.426949 294.835336 
L 308.493218 294.776597 
L 308.559488 294.77211 
L 308.625757 295.013014 
L 308.692027 294.900951 
L 308.824566 294.937586 
L 308.890836 295.026854 
L 309.023375 294.515381 
L 309.089644 294.726574 
L 309.155914 294.862043 
L 309.222183 294.805072 
L 309.420992 294.569497 
L 309.487262 294.706604 
L 309.553531 294.554733 
L 309.619801 294.603474 
L 309.68607 294.652173 
L 309.75234 294.562179 
L 309.951148 294.843156 
L 310.017418 294.742422 
L 310.083688 294.842486 
L 310.216227 295.010717 
L 310.348766 295.032879 
L 310.613844 295.090553 
L 310.746383 295.182453 
L 311.21027 295.110709 
L 311.342809 295.233422 
L 311.674157 295.19746 
L 312.005505 295.282119 
L 312.270583 295.337758 
L 312.800739 295.407067 
L 313.330896 295.39668 
L 314.12613 295.137936 
L 314.324939 294.878503 
L 314.523748 295.026315 
L 314.656287 294.88599 
L 314.722556 294.937741 
L 314.788826 294.770097 
L 314.921365 294.952605 
L 315.252713 294.649523 
L 315.318982 294.686318 
L 315.385252 294.562684 
L 315.451521 294.62063 
L 315.584061 294.87682 
L 315.65033 294.812719 
L 315.849139 294.574687 
L 316.047947 294.8455 
L 316.180487 294.679041 
L 316.246756 294.894569 
L 316.313026 294.755241 
L 316.511834 294.912342 
L 316.578104 295.011638 
L 316.644373 294.937025 
L 316.710643 294.955817 
L 316.776913 294.844397 
L 316.909452 295.076241 
L 317.10826 294.996214 
L 317.307069 295.121026 
L 317.439608 295.048653 
L 317.505878 295.176209 
L 317.572147 295.070649 
L 317.770956 295.036909 
L 318.036034 295.092376 
L 318.102304 294.870018 
L 318.168573 294.970983 
L 318.301112 295.096175 
L 318.764999 295.112543 
L 318.831269 295.210883 
L 318.963808 295.089458 
L 319.162616 295.138929 
L 319.626503 295.229932 
L 319.759042 295.215229 
L 319.957851 295.206675 
L 320.024121 295.139453 
L 320.09039 295.207039 
L 320.289199 295.194772 
L 320.421738 295.23076 
L 320.554277 295.249677 
L 320.819355 295.282045 
L 321.018164 295.321097 
L 321.349512 295.39017 
L 321.747129 295.389023 
L 323.13879 295.211645 
L 323.403868 295.251202 
L 323.602677 295.25195 
L 325.325685 295.424513 
L 335.266118 295.149128 
L 335.464927 295.030361 
L 335.663735 295.062818 
L 335.928814 294.830512 
L 336.061353 294.707897 
L 336.326431 293.979922 
L 336.392701 293.636474 
L 336.591509 289.210058 
L 336.657779 290.165201 
L 336.856587 293.929875 
L 336.922857 294.04478 
L 337.187935 294.843807 
L 337.386744 294.880851 
L 337.453013 295.004146 
L 337.519283 294.943821 
L 337.98317 295.24761 
L 338.115709 295.30891 
L 338.380787 295.395182 
L 338.977213 294.979357 
L 339.109752 295.21121 
L 339.37483 295.122141 
L 339.573639 295.112979 
L 339.772448 295.18629 
L 340.103796 295.340335 
L 340.435143 295.382707 
L 340.89903 295.439034 
L 343.019656 295.276096 
L 343.284734 295.20977 
L 343.351004 295.153443 
L 343.483543 295.280058 
L 344.808934 295.300246 
L 345.33909 295.360172 
L 347.791064 295.452272 
L 348.38749 295.4158 
L 348.652568 295.449391 
L 348.983916 295.41914 
L 349.580342 295.442424 
L 350.044229 295.418287 
L 350.309307 295.450786 
L 350.574385 295.425817 
L 351.104542 295.434953 
L 351.568428 295.431015 
L 351.966046 295.432706 
L 352.297394 295.342619 
L 352.562472 295.417457 
L 354.683097 295.309581 
L 355.080715 295.349239 
L 356.207297 295.353651 
L 356.869993 295.297871 
L 357.33388 295.309422 
L 358.394193 295.363775 
L 358.990618 295.37873 
L 361.177514 295.447102 
L 361.840209 295.422973 
L 364.6898 295.320198 
L 365.418765 294.912725 
L 365.551304 294.51984 
L 365.750113 292.385264 
L 365.882652 292.86741 
L 366.081461 294.658147 
L 366.214 294.796441 
L 366.479078 295.150686 
L 366.545348 295.067286 
L 366.611617 295.144628 
L 366.810426 295.248236 
L 366.942965 295.259461 
L 367.075504 295.300817 
L 367.208043 295.231743 
L 367.340582 295.256194 
L 367.473121 295.100052 
L 367.539391 295.15268 
L 367.804469 295.201007 
L 368.069547 295.265086 
L 368.334626 295.163623 
L 368.732243 295.384761 
L 372.774686 295.37987 
L 376.220703 295.473705 
L 378.871485 295.424757 
L 381.522267 295.421383 
L 382.052423 295.412527 
L 382.980197 295.433746 
L 385.56471 295.435398 
L 386.757562 295.41781 
L 390.800004 295.357823 
L 391.794048 295.335962 
L 392.191665 295.285797 
L 392.523013 295.334875 
L 392.854361 295.259668 
L 393.053169 295.279992 
L 394.44483 295.058442 
L 394.643639 294.823169 
L 394.776178 294.562007 
L 394.908717 293.520815 
L 394.974986 292.719772 
L 395.041256 293.169038 
L 395.306334 294.777148 
L 395.372604 294.809866 
L 395.637682 295.228953 
L 395.770221 295.247227 
L 395.96903 295.325094 
L 396.499186 295.331049 
L 396.830534 295.241317 
L 397.095612 295.272849 
L 398.487273 295.426728 
L 398.487273 295.426728 
" clip-path="url(#pfeacdbca37)" style="fill: none; stroke: #1f77b4; stroke-width: 1.5; stroke-linecap: square"/>
   </g>
   <g id="patch_3">
    <path d="M 57.6 307.584 
L 57.6 41.472 
" style="fill: none; stroke: #000000; stroke-width: 0.8; stroke-linejoin: miter; stroke-linecap: square"/>
   </g>
   <g id="patch_4">
    <path d="M 414.72 307.584 
L 414.72 41.472 
" style="fill: none; stroke: #000000; stroke-width: 0.8; stroke-linejoin: miter; stroke-linecap: square"/>
   </g>
   <g id="patch_5">
    <path d="M 57.6 307.584 
L 414.72 307.584 
" style="fill: none; stroke: #000000; stroke-width: 0.8; stroke-linejoin: miter; stroke-linecap: square"/>
   </g>
   <g id="patch_6">
    <path d="M 57.6 41.472 
L 414.72 41.472 
" style="fill: none; stroke: #000000; stroke-width: 0.8; stroke-linejoin: miter; stroke-linecap: square"/>
   </g>
   <g id="text_17">
    <text style="font: 12px 'IPAexGothic'; text-anchor: middle" x="236.16" y="35.472" transform="rotate(-0 236.16 35.472)">"003_A4.wav"の振幅スペクトル</text>
   </g>
  </g>
 </g>
 <defs>
  <clipPath id="pfeacdbca37">
   <rect x="57.6" y="41.472" width="357.12" height="266.112"/>
  </clipPath>
 </defs>
</svg>
