<?xml version="1.0" encoding="utf-8" standalone="no"?>
<!DOCTYPE svg PUBLIC "-//W3C//DTD SVG 1.1//EN"
  "http://www.w3.org/Graphics/SVG/1.1/DTD/svg11.dtd">
<svg xmlns:xlink="http://www.w3.org/1999/xlink" width="460.8pt" height="345.6pt" viewBox="0 0 460.8 345.6" xmlns="http://www.w3.org/2000/svg" version="1.1">
 <metadata>
  <rdf:RDF xmlns:dc="http://purl.org/dc/elements/1.1/" xmlns:cc="http://creativecommons.org/ns#" xmlns:rdf="http://www.w3.org/1999/02/22-rdf-syntax-ns#">
   <cc:Work>
    <dc:type rdf:resource="http://purl.org/dc/dcmitype/StillImage"/>
    <dc:date>2022-11-28T11:33:11.760951</dc:date>
    <dc:format>image/svg+xml</dc:format>
    <dc:creator>
     <cc:Agent>
      <dc:title>Matplotlib v3.6.2, https://matplotlib.org/</dc:title>
     </cc:Agent>
    </dc:creator>
   </cc:Work>
  </rdf:RDF>
 </metadata>
 <defs>
  <style type="text/css">*{stroke-linejoin: round; stroke-linecap: butt}</style>
 </defs>
 <g id="figure_1">
  <g id="patch_1">
   <path d="M 0 345.6 
L 460.8 345.6 
L 460.8 0 
L 0 0 
z
" style="fill: #ffffff"/>
  </g>
  <g id="axes_1">
   <g id="patch_2">
    <path d="M 57.6 307.584 
L 414.72 307.584 
L 414.72 41.472 
L 57.6 41.472 
z
" style="fill: #ffffff"/>
   </g>
   <g id="matplotlib.axis_1">
    <g id="xtick_1">
     <g id="line2d_1">
      <defs>
       <path id="mc9f051f061" d="M 0 0 
L 0 3.5 
" style="stroke: #000000; stroke-width: 0.8"/>
      </defs>
      <g>
       <use xlink:href="#mc9f051f061" x="73.832727" y="307.584" style="stroke: #000000; stroke-width: 0.8"/>
      </g>
     </g>
     <g id="text_1">
      <text style="font: 10px 'IPAexGothic'; text-anchor: middle" x="73.832727" y="322.074625" transform="rotate(-0 73.832727 322.074625)">0</text>
     </g>
    </g>
    <g id="xtick_2">
     <g id="line2d_2">
      <g>
       <use xlink:href="#mc9f051f061" x="140.102281" y="307.584" style="stroke: #000000; stroke-width: 0.8"/>
      </g>
     </g>
     <g id="text_2">
      <text style="font: 10px 'IPAexGothic'; text-anchor: middle" x="140.102281" y="322.074625" transform="rotate(-0 140.102281 322.074625)">1000</text>
     </g>
    </g>
    <g id="xtick_3">
     <g id="line2d_3">
      <g>
       <use xlink:href="#mc9f051f061" x="206.371835" y="307.584" style="stroke: #000000; stroke-width: 0.8"/>
      </g>
     </g>
     <g id="text_3">
      <text style="font: 10px 'IPAexGothic'; text-anchor: middle" x="206.371835" y="322.074625" transform="rotate(-0 206.371835 322.074625)">2000</text>
     </g>
    </g>
    <g id="xtick_4">
     <g id="line2d_4">
      <g>
       <use xlink:href="#mc9f051f061" x="272.64139" y="307.584" style="stroke: #000000; stroke-width: 0.8"/>
      </g>
     </g>
     <g id="text_4">
      <text style="font: 10px 'IPAexGothic'; text-anchor: middle" x="272.64139" y="322.074625" transform="rotate(-0 272.64139 322.074625)">3000</text>
     </g>
    </g>
    <g id="xtick_5">
     <g id="line2d_5">
      <g>
       <use xlink:href="#mc9f051f061" x="338.910944" y="307.584" style="stroke: #000000; stroke-width: 0.8"/>
      </g>
     </g>
     <g id="text_5">
      <text style="font: 10px 'IPAexGothic'; text-anchor: middle" x="338.910944" y="322.074625" transform="rotate(-0 338.910944 322.074625)">4000</text>
     </g>
    </g>
    <g id="xtick_6">
     <g id="line2d_6">
      <g>
       <use xlink:href="#mc9f051f061" x="405.180498" y="307.584" style="stroke: #000000; stroke-width: 0.8"/>
      </g>
     </g>
     <g id="text_6">
      <text style="font: 10px 'IPAexGothic'; text-anchor: middle" x="405.180498" y="322.074625" transform="rotate(-0 405.180498 322.074625)">5000</text>
     </g>
    </g>
    <g id="text_7">
     <text style="font: 10px 'IPAexGothic'; text-anchor: middle" x="236.16" y="335.924625" transform="rotate(-0 236.16 335.924625)">周波数[Hz]</text>
    </g>
   </g>
   <g id="matplotlib.axis_2">
    <g id="ytick_1">
     <g id="line2d_7">
      <defs>
       <path id="mabf26f827d" d="M 0 0 
L -3.5 0 
" style="stroke: #000000; stroke-width: 0.8"/>
      </defs>
      <g>
       <use xlink:href="#mabf26f827d" x="57.6" y="295.48833" style="stroke: #000000; stroke-width: 0.8"/>
      </g>
     </g>
     <g id="text_8">
      <text style="font: 10px 'IPAexGothic'; text-anchor: end" x="50.6" y="299.233642" transform="rotate(-0 50.6 299.233642)">0.00</text>
     </g>
    </g>
    <g id="ytick_2">
     <g id="line2d_8">
      <g>
       <use xlink:href="#mabf26f827d" x="57.6" y="260.062059" style="stroke: #000000; stroke-width: 0.8"/>
      </g>
     </g>
     <g id="text_9">
      <text style="font: 10px 'IPAexGothic'; text-anchor: end" x="50.6" y="263.807372" transform="rotate(-0 50.6 263.807372)">0.25</text>
     </g>
    </g>
    <g id="ytick_3">
     <g id="line2d_9">
      <g>
       <use xlink:href="#mabf26f827d" x="57.6" y="224.635789" style="stroke: #000000; stroke-width: 0.8"/>
      </g>
     </g>
     <g id="text_10">
      <text style="font: 10px 'IPAexGothic'; text-anchor: end" x="50.6" y="228.381101" transform="rotate(-0 50.6 228.381101)">0.50</text>
     </g>
    </g>
    <g id="ytick_4">
     <g id="line2d_10">
      <g>
       <use xlink:href="#mabf26f827d" x="57.6" y="189.209518" style="stroke: #000000; stroke-width: 0.8"/>
      </g>
     </g>
     <g id="text_11">
      <text style="font: 10px 'IPAexGothic'; text-anchor: end" x="50.6" y="192.95483" transform="rotate(-0 50.6 192.95483)">0.75</text>
     </g>
    </g>
    <g id="ytick_5">
     <g id="line2d_11">
      <g>
       <use xlink:href="#mabf26f827d" x="57.6" y="153.783247" style="stroke: #000000; stroke-width: 0.8"/>
      </g>
     </g>
     <g id="text_12">
      <text style="font: 10px 'IPAexGothic'; text-anchor: end" x="50.6" y="157.52856" transform="rotate(-0 50.6 157.52856)">1.00</text>
     </g>
    </g>
    <g id="ytick_6">
     <g id="line2d_12">
      <g>
       <use xlink:href="#mabf26f827d" x="57.6" y="118.356977" style="stroke: #000000; stroke-width: 0.8"/>
      </g>
     </g>
     <g id="text_13">
      <text style="font: 10px 'IPAexGothic'; text-anchor: end" x="50.6" y="122.102289" transform="rotate(-0 50.6 122.102289)">1.25</text>
     </g>
    </g>
    <g id="ytick_7">
     <g id="line2d_13">
      <g>
       <use xlink:href="#mabf26f827d" x="57.6" y="82.930706" style="stroke: #000000; stroke-width: 0.8"/>
      </g>
     </g>
     <g id="text_14">
      <text style="font: 10px 'IPAexGothic'; text-anchor: end" x="50.6" y="86.676019" transform="rotate(-0 50.6 86.676019)">1.50</text>
     </g>
    </g>
    <g id="ytick_8">
     <g id="line2d_14">
      <g>
       <use xlink:href="#mabf26f827d" x="57.6" y="47.504436" style="stroke: #000000; stroke-width: 0.8"/>
      </g>
     </g>
     <g id="text_15">
      <text style="font: 10px 'IPAexGothic'; text-anchor: end" x="50.6" y="51.249748" transform="rotate(-0 50.6 51.249748)">1.75</text>
     </g>
    </g>
    <g id="text_16">
     <text style="font: 10px 'IPAexGothic'; text-anchor: middle" x="23.1625" y="174.528" transform="rotate(-90 23.1625 174.528)">振幅</text>
    </g>
    <g id="text_17">
     <text style="font: 10px 'IPAexGothic'; text-anchor: start" x="57.6" y="38.472" transform="rotate(-0 57.6 38.472)">1e7</text>
    </g>
   </g>
   <g id="line2d_15">
    <path d="M 73.832727 292.651026 
L 73.898997 295.031439 
L 73.965266 294.52904 
L 74.097805 293.324169 
L 74.164075 293.342454 
L 74.362884 293.698324 
L 74.826771 292.950341 
L 74.95931 293.113157 
L 75.091849 293.88457 
L 75.158118 294.297534 
L 75.489466 292.647233 
L 75.555736 293.202915 
L 75.754544 292.404138 
L 75.953353 293.415149 
L 76.218431 293.761067 
L 76.35097 293.69676 
L 76.549779 292.986237 
L 76.616049 293.231508 
L 76.682318 293.137704 
L 76.881127 293.319499 
L 76.947396 293.07386 
L 77.013666 293.504785 
L 77.079935 293.176069 
L 77.146205 293.661245 
L 77.212475 293.380347 
L 77.345014 293.07433 
L 77.411283 293.510333 
L 77.543822 293.141982 
L 77.610092 293.590205 
L 77.676361 293.061626 
L 77.742631 293.191695 
L 77.94144 293.086481 
L 78.007709 293.162809 
L 78.073979 292.888462 
L 78.140248 293.283504 
L 78.206518 293.016204 
L 78.272787 292.939388 
L 78.339057 293.05653 
L 78.471596 292.60919 
L 78.537866 293.039834 
L 78.604135 292.683053 
L 78.670405 292.796108 
L 78.736674 292.999858 
L 78.802944 292.421376 
L 78.869213 292.746447 
L 78.935483 292.890524 
L 79.001752 292.777323 
L 79.200561 291.737148 
L 79.3331 292.348384 
L 79.39937 292.033988 
L 79.465639 291.440632 
L 79.531909 292.510982 
L 79.598178 292.249884 
L 79.863257 291.228319 
L 79.929526 291.131246 
L 79.995796 290.786633 
L 80.062065 291.48527 
L 80.128335 290.47155 
L 80.194604 290.653956 
L 80.327144 290.490032 
L 80.459683 288.963562 
L 80.525952 288.9516 
L 80.724761 287.055269 
L 80.8573 283.792732 
L 81.056109 265.820605 
L 81.188648 188.367272 
L 81.321187 277.387222 
L 81.519996 288.420245 
L 81.718804 291.559771 
L 81.983882 293.278063 
L 82.514039 294.304954 
L 82.580308 294.30035 
L 82.712848 293.905439 
L 82.779117 294.593588 
L 82.845387 294.183969 
L 82.911656 294.132443 
L 82.977926 294.331667 
L 83.044195 294.039252 
L 83.110465 294.198012 
L 83.176734 294.494154 
L 83.309274 293.687668 
L 83.375543 293.97461 
L 83.508082 294.255595 
L 83.640621 293.754748 
L 83.77316 294.289976 
L 83.905699 293.921968 
L 84.104508 293.955765 
L 84.170778 294.378332 
L 84.303317 293.611017 
L 84.435856 294.196648 
L 84.502125 294.160855 
L 84.568395 293.75529 
L 84.634665 294.099108 
L 84.767204 293.504856 
L 84.899743 294.229727 
L 85.098551 293.567439 
L 85.231091 294.17712 
L 85.29736 293.957643 
L 85.429899 293.675708 
L 85.562438 294.072812 
L 85.694977 293.391681 
L 85.827517 293.993091 
L 85.893786 293.955279 
L 86.026325 293.530469 
L 86.092595 293.749282 
L 86.158864 293.117494 
L 86.225134 293.188245 
L 86.291403 293.692975 
L 86.357673 293.602987 
L 86.423943 293.037755 
L 86.490212 293.239703 
L 86.556482 293.807546 
L 86.622751 292.920702 
L 86.689021 293.051628 
L 86.887829 293.358825 
L 86.954099 293.23512 
L 87.152908 291.421373 
L 87.285447 292.712936 
L 87.351716 292.298883 
L 87.417986 290.905259 
L 87.550525 291.932549 
L 87.616795 291.844617 
L 87.881873 286.661576 
L 87.948142 287.396236 
L 88.014412 287.735652 
L 88.146951 285.203907 
L 88.27949 272.912798 
L 88.412029 247.447975 
L 88.478299 53.568 
L 88.610838 257.15025 
L 88.809646 285.325282 
L 89.008455 291.136427 
L 89.207264 289.70844 
L 89.406072 293.951368 
L 89.538612 291.647787 
L 89.80369 293.931983 
L 89.936229 293.394218 
L 90.068768 294.451477 
L 90.135038 293.45746 
L 90.201307 294.207099 
L 90.267577 294.022354 
L 90.532655 294.804567 
L 90.598924 294.985562 
L 90.665194 294.916551 
L 90.731464 294.918057 
L 90.864003 294.590395 
L 91.062811 295.00372 
L 91.26162 295.130648 
L 91.858046 295.0814 
L 91.924316 294.96651 
L 91.990585 295.061536 
L 92.189394 294.928266 
L 92.255663 295.003568 
L 92.388202 294.871986 
L 92.520742 294.913895 
L 92.71955 294.692067 
L 92.78582 294.838436 
L 92.852089 294.784751 
L 92.918359 294.624681 
L 92.984628 294.728638 
L 93.249707 294.484561 
L 93.315976 294.279995 
L 93.382246 294.313301 
L 93.448515 294.62879 
L 93.514785 294.45087 
L 93.647324 294.357377 
L 93.779863 293.883744 
L 93.978672 293.961453 
L 94.111211 294.094019 
L 94.24375 293.119299 
L 94.508828 293.581122 
L 94.707637 291.623698 
L 94.773906 291.474946 
L 94.906445 292.114584 
L 94.972715 292.001913 
L 95.237793 285.958497 
L 95.304063 288.673659 
L 95.370332 288.135147 
L 95.569141 279.340417 
L 95.635411 274.378826 
L 95.76795 228.139399 
L 95.834219 117.528596 
L 95.966758 262.370835 
L 96.231837 285.060087 
L 96.298106 285.166267 
L 96.430645 287.376597 
L 96.496915 290.651789 
L 96.563184 290.264895 
L 96.629454 289.102351 
L 96.761993 291.646206 
L 96.828263 291.099812 
L 96.894532 290.575666 
L 97.093341 292.790266 
L 97.22588 292.078301 
L 97.358419 293.326341 
L 97.424689 292.93557 
L 97.557228 293.211505 
L 97.623497 293.114605 
L 97.822306 293.972799 
L 97.888575 293.707741 
L 97.954845 293.852551 
L 98.087384 294.012355 
L 98.153654 293.851242 
L 98.418732 294.742108 
L 98.485001 294.642956 
L 98.551271 294.399791 
L 98.75008 294.851722 
L 98.816349 294.370319 
L 98.882619 294.681312 
L 99.081427 295.090307 
L 99.213966 295.16425 
L 99.280236 295.124809 
L 99.479045 295.293496 
L 100.009201 295.310359 
L 100.075471 295.28189 
L 100.274279 294.972329 
L 100.340549 294.979188 
L 100.406818 295.143289 
L 100.473088 295.013421 
L 100.738166 294.66296 
L 100.936975 294.675883 
L 101.003244 294.494431 
L 101.069514 294.59388 
L 101.467131 293.965513 
L 101.73221 292.985918 
L 101.798479 293.622226 
L 101.864749 292.847483 
L 101.931018 293.831876 
L 101.997288 292.455221 
L 102.063557 292.77445 
L 102.129827 292.892124 
L 102.394905 290.778016 
L 102.461175 291.081136 
L 102.858792 280.763962 
L 102.991331 265.679055 
L 103.057601 254.115963 
L 103.12387 145.776234 
L 103.322679 279.177929 
L 103.388948 278.917808 
L 103.455218 276.551088 
L 103.654027 285.759009 
L 103.786566 289.070351 
L 103.852835 288.914045 
L 103.919105 290.552539 
L 103.985374 290.130771 
L 104.051644 290.549618 
L 104.117913 292.225348 
L 104.184183 290.846194 
L 104.250453 291.198896 
L 104.382992 292.535307 
L 104.449261 292.491 
L 104.64807 291.213778 
L 104.913148 293.865687 
L 104.979418 294.238482 
L 105.045687 294.009504 
L 105.111957 292.16365 
L 105.178226 292.640107 
L 105.244496 292.544968 
L 105.708383 294.096726 
L 105.840922 294.376237 
L 105.907191 294.320933 
L 106.039731 293.409744 
L 106.17227 294.465 
L 106.304809 294.301705 
L 106.371078 293.718066 
L 106.437348 293.841198 
L 106.569887 294.503638 
L 106.636157 294.41757 
L 106.702426 294.527619 
L 106.768696 294.892805 
L 106.834965 294.807395 
L 107.100043 294.624206 
L 107.6302 295.102774 
L 107.696469 294.972452 
L 107.762739 294.735565 
L 107.961548 295.255787 
L 108.027817 295.203457 
L 108.160356 295.219528 
L 108.823052 295.424007 
L 109.08813 294.92866 
L 109.1544 295.198962 
L 109.220669 294.915483 
L 109.286939 295.125275 
L 109.485747 294.650865 
L 109.552017 294.988431 
L 109.684556 294.229589 
L 109.750826 294.258733 
L 109.817095 294.55351 
L 109.949634 293.172391 
L 110.015904 293.469536 
L 110.347252 284.693849 
L 110.413521 269.16302 
L 110.479791 209.421905 
L 110.61233 284.026839 
L 110.877408 290.937764 
L 111.009947 291.354097 
L 111.076217 291.084872 
L 111.208756 291.635839 
L 111.275025 292.870232 
L 111.341295 292.06471 
L 111.407564 292.100246 
L 111.540104 293.131044 
L 111.672643 292.168352 
L 111.738912 293.703437 
L 111.805182 293.373091 
L 111.937721 292.817587 
L 112.13653 293.599422 
L 112.269069 293.046517 
L 112.335338 293.272784 
L 112.401608 293.451115 
L 112.467877 293.100886 
L 112.534147 293.206281 
L 112.732956 293.1689 
L 112.865495 294.087752 
L 112.931764 293.845916 
L 112.998034 294.19903 
L 113.064303 294.080088 
L 113.196842 293.302631 
L 113.263112 293.580414 
L 113.329382 293.025046 
L 113.461921 293.727655 
L 113.59446 293.220318 
L 113.726999 293.827694 
L 113.793268 293.453826 
L 113.859538 293.552116 
L 113.992077 293.900608 
L 114.058347 293.937522 
L 114.124616 294.176276 
L 114.323425 293.414365 
L 114.389694 293.830547 
L 114.455964 293.417357 
L 114.522233 293.560272 
L 114.654773 294.034961 
L 114.853581 292.98182 
L 114.98612 294.417849 
L 115.05239 294.194298 
L 115.251199 293.633355 
L 115.317468 294.075942 
L 115.383738 293.629939 
L 115.450007 293.785368 
L 115.516277 293.987242 
L 115.582546 293.868466 
L 115.648816 293.63884 
L 115.715085 293.749483 
L 115.847625 294.001465 
L 115.980164 293.569375 
L 116.046433 294.120693 
L 116.112703 293.78378 
L 116.245242 293.508776 
L 116.311511 293.894166 
L 116.444051 293.493464 
L 116.51032 293.7731 
L 116.57659 293.710018 
L 116.775398 293.142229 
L 116.841668 293.472818 
L 116.907937 293.164137 
L 116.974207 293.396002 
L 117.173016 292.35248 
L 117.239285 292.909652 
L 117.636903 285.555511 
L 117.703172 279.427939 
L 117.769442 242.044338 
L 117.835711 263.63494 
L 118.03452 291.05005 
L 118.167059 292.25848 
L 118.233329 290.832785 
L 118.365868 293.404559 
L 118.432137 293.035721 
L 118.564676 293.996632 
L 118.630946 293.814071 
L 118.763485 294.379549 
L 119.094833 294.114186 
L 119.293641 294.839893 
L 119.42618 294.556994 
L 119.691259 294.798997 
L 119.757528 294.641674 
L 119.823798 294.751752 
L 119.956337 294.676004 
L 120.088876 294.862467 
L 120.221415 294.708891 
L 120.287685 294.893914 
L 120.353954 294.795796 
L 120.486493 294.763173 
L 120.685302 294.958636 
L 120.751572 294.792205 
L 120.817841 294.936234 
L 120.884111 294.867255 
L 121.082919 295.006363 
L 121.215458 294.796344 
L 121.414267 295.000588 
L 121.480537 294.856031 
L 121.546806 294.913798 
L 121.745615 294.904398 
L 121.944424 295.059369 
L 122.010693 294.800231 
L 122.076963 294.862143 
L 122.209502 294.772029 
L 122.342041 294.98493 
L 122.607119 294.780637 
L 122.673389 294.916309 
L 122.805928 294.580484 
L 122.938467 294.86634 
L 123.004736 294.864435 
L 123.137276 294.652402 
L 123.203545 294.782339 
L 123.269815 294.684108 
L 123.336084 294.553441 
L 123.468623 294.791131 
L 123.601162 294.454078 
L 123.799971 294.722137 
L 123.866241 294.175683 
L 123.93251 294.362351 
L 123.99878 294.443334 
L 124.065049 294.050756 
L 124.131319 294.387931 
L 124.197588 293.883882 
L 124.263858 294.011346 
L 124.462667 294.103593 
L 124.661475 293.572199 
L 124.926553 288.930679 
L 125.059093 281.64252 
L 125.125362 252.463173 
L 125.257901 286.254748 
L 125.45671 292.011483 
L 125.589249 291.51817 
L 125.721788 293.398421 
L 125.788058 293.236498 
L 125.854327 292.956628 
L 125.920597 292.977875 
L 125.986866 292.937459 
L 126.053136 293.097445 
L 126.119405 293.612035 
L 126.185675 293.4663 
L 126.384484 293.76392 
L 126.450753 293.454323 
L 126.583292 294.115182 
L 126.649562 293.901657 
L 126.715831 293.525958 
L 126.782101 293.603779 
L 126.848371 293.641659 
L 126.98091 294.134947 
L 127.047179 293.762993 
L 127.113449 294.109246 
L 127.179718 293.947234 
L 127.312257 294.290074 
L 127.378527 293.626024 
L 127.444797 293.788478 
L 127.577336 294.28762 
L 127.643605 294.054001 
L 127.776144 294.5036 
L 127.842414 294.420596 
L 128.107492 293.981837 
L 128.173762 294.514274 
L 128.240031 294.412025 
L 128.43884 294.160206 
L 128.505109 294.547894 
L 128.571379 294.3211 
L 128.637648 294.594265 
L 128.703918 294.569806 
L 128.836457 294.243655 
L 128.968996 294.58162 
L 129.035266 294.494536 
L 129.167805 294.165264 
L 129.300344 294.506166 
L 129.366614 294.525635 
L 129.631692 294.186518 
L 129.697961 294.184891 
L 129.764231 294.524326 
L 129.8305 294.107903 
L 129.89677 294.200172 
L 129.96304 294.310312 
L 130.029309 294.637072 
L 130.095579 294.456293 
L 130.161848 294.044184 
L 130.228118 294.195282 
L 130.426926 294.357743 
L 130.493196 293.99901 
L 130.559466 294.167721 
L 130.625735 293.995681 
L 130.692005 294.302688 
L 130.758274 294.18656 
L 130.824544 294.248297 
L 130.957083 293.907005 
L 131.089622 294.135498 
L 131.222161 293.950972 
L 131.288431 293.687374 
L 131.42097 294.107429 
L 131.487239 293.723552 
L 131.553509 293.824828 
L 131.619778 293.935248 
L 131.752318 293.277599 
L 131.884857 293.490661 
L 131.951126 292.568709 
L 132.017396 292.628224 
L 132.149935 292.612018 
L 132.348744 287.638412 
L 132.481283 277.835441 
L 132.680091 292.063452 
L 132.746361 292.038951 
L 132.94517 294.075305 
L 133.011439 293.875512 
L 133.409056 294.922261 
L 133.475326 294.840069 
L 133.541596 294.771665 
L 133.674135 294.98579 
L 133.806674 294.938226 
L 133.872943 294.89157 
L 133.939213 295.047321 
L 134.005482 294.978529 
L 134.204291 294.898379 
L 134.469369 295.118251 
L 134.668178 294.960083 
L 134.734447 294.954925 
L 134.800717 295.17104 
L 134.866987 295.061612 
L 134.933256 295.049671 
L 135.065795 294.892174 
L 135.198334 295.05579 
L 135.264604 294.94315 
L 135.330873 295.039179 
L 135.463413 295.055575 
L 135.662221 294.972326 
L 135.86103 294.89249 
L 135.993569 294.982162 
L 136.258647 295.215749 
L 136.324917 294.3618 
L 136.391186 294.606319 
L 136.523725 294.784095 
L 136.855073 294.785721 
L 136.921343 295.06405 
L 136.987612 295.00002 
L 137.186421 294.872307 
L 137.517769 294.293738 
L 137.584038 294.426122 
L 137.650308 294.743147 
L 137.716577 294.624814 
L 137.849117 294.305216 
L 137.981656 294.705415 
L 138.047925 294.466001 
L 138.114195 294.801239 
L 138.180464 294.645839 
L 138.379273 293.999315 
L 138.644351 294.382003 
L 138.84316 293.905377 
L 138.975699 292.992123 
L 139.041968 294.225563 
L 139.108238 293.658561 
L 139.174508 293.924902 
L 139.373316 292.822621 
L 139.439586 293.081456 
L 139.572125 290.693395 
L 139.704664 282.883589 
L 139.770934 258.792469 
L 139.903473 286.754646 
L 140.036012 292.396193 
L 140.102281 292.044384 
L 140.168551 293.30449 
L 140.23482 293.242202 
L 140.30109 292.954894 
L 140.433629 294.36153 
L 140.499899 294.170259 
L 140.566168 293.840311 
L 140.632438 293.92596 
L 140.897516 294.537543 
L 140.963786 294.258894 
L 141.030055 294.619856 
L 141.096325 294.396321 
L 141.162594 294.370556 
L 141.228864 294.572146 
L 141.295133 294.48491 
L 141.427672 294.591528 
L 141.493942 294.621036 
L 141.626481 295.066586 
L 141.75902 294.596074 
L 141.82529 294.54361 
L 141.891559 294.733089 
L 141.957829 294.563727 
L 142.024098 294.686897 
L 142.156638 294.97737 
L 142.355446 294.819848 
L 142.421716 294.797865 
L 142.554255 294.983412 
L 142.620524 294.859379 
L 142.686794 294.930692 
L 142.885603 295.072182 
L 143.018142 295.085222 
L 143.084411 294.843603 
L 143.21695 295.043883 
L 143.548298 295.018634 
L 143.680837 295.113769 
L 143.813376 295.123787 
L 143.879646 294.941495 
L 143.945915 295.041177 
L 144.210994 295.082669 
L 144.409802 295.00193 
L 144.476072 295.08183 
L 144.542341 294.927514 
L 144.608611 295.024551 
L 144.674881 295.133689 
L 144.74115 295.03563 
L 144.873689 294.933651 
L 144.939959 295.068401 
L 145.006228 294.97761 
L 145.271307 294.8951 
L 145.536385 294.948432 
L 145.668924 294.602284 
L 145.735193 294.795379 
L 145.801463 294.950756 
L 145.867733 294.902404 
L 146.000272 294.78485 
L 146.066541 294.878834 
L 146.26535 294.608577 
L 146.331619 294.691138 
L 146.397889 294.454453 
L 146.464159 294.664595 
L 146.530428 294.624847 
L 146.795506 293.578362 
L 146.994315 292.051486 
L 147.126854 282.817736 
L 147.325663 293.019039 
L 147.458202 294.223365 
L 147.524471 294.178757 
L 147.78955 294.630908 
L 147.855819 294.55389 
L 148.054628 294.9066 
L 148.253437 294.840787 
L 148.319706 294.960315 
L 148.385976 294.87707 
L 148.452245 294.871658 
L 148.584784 294.986252 
L 148.717323 294.976801 
L 148.783593 295.178409 
L 148.849862 295.053541 
L 149.24748 295.19812 
L 149.512558 295.179142 
L 149.578828 295.136892 
L 149.645097 295.289086 
L 149.711367 295.24 
L 150.042714 295.286845 
L 150.175254 295.28013 
L 150.506601 295.302236 
L 150.63914 295.31339 
L 151.964532 295.291132 
L 152.16334 295.242699 
L 152.362149 295.180131 
L 152.428418 295.285827 
L 152.494688 295.216235 
L 152.627227 295.192105 
L 153.488731 294.788795 
L 153.555001 295.043169 
L 153.62127 294.919118 
L 153.753809 294.591079 
L 153.820079 294.653068 
L 153.886349 294.664338 
L 154.018888 294.336675 
L 154.085157 294.309511 
L 154.283966 292.310669 
L 154.350235 290.011752 
L 154.416505 275.760306 
L 154.615314 293.249137 
L 155.012931 294.627894 
L 155.079201 294.451337 
L 155.14547 294.586309 
L 155.21174 294.936734 
L 155.278009 294.326158 
L 155.344279 294.365738 
L 155.543087 294.850976 
L 155.675627 294.959028 
L 155.808166 294.966418 
L 155.874435 294.904682 
L 155.940705 294.679466 
L 156.006974 294.74502 
L 156.272053 295.092335 
L 156.338322 295.036044 
L 156.537131 294.92542 
L 156.6034 294.865983 
L 156.66967 295.155096 
L 156.735939 295.044135 
L 156.802209 295.168264 
L 156.868479 295.121291 
L 157.067287 295.060851 
L 157.266096 295.150006 
L 157.398635 295.203231 
L 157.531174 295.174486 
L 157.862522 295.257087 
L 158.061331 295.221382 
L 159.718069 295.359429 
L 159.916878 295.413216 
L 161.04346 295.36911 
L 161.242269 295.274531 
L 161.308539 295.359522 
L 161.573617 294.398024 
L 161.639886 293.812172 
L 161.772426 288.526762 
L 161.971234 294.360018 
L 162.037504 294.327757 
L 162.368852 294.899821 
L 162.501391 294.944417 
L 162.56766 294.849728 
L 162.63393 294.538948 
L 162.700199 294.698117 
L 162.766469 294.838049 
L 162.832738 294.585586 
L 162.899008 294.97097 
L 162.965278 294.926573 
L 163.097817 294.739977 
L 163.164086 295.107021 
L 163.230356 295.090853 
L 164.09186 294.942399 
L 164.224399 295.051643 
L 164.688286 294.891565 
L 164.887095 295.133011 
L 165.085903 294.974395 
L 165.284712 295.028883 
L 165.814868 295.0514 
L 165.881138 295.141569 
L 166.013677 294.759258 
L 166.079947 294.941249 
L 166.146216 294.801437 
L 166.278755 294.992112 
L 166.477564 294.913936 
L 166.610103 294.479618 
L 166.742642 294.96109 
L 166.808912 294.911316 
L 166.941451 294.797696 
L 167.140259 294.60961 
L 167.206529 294.630698 
L 167.272799 294.519972 
L 167.339068 294.725298 
L 167.405338 294.576823 
L 167.537877 294.926366 
L 167.670416 294.287106 
L 167.869225 294.442218 
L 168.068033 294.227324 
L 168.266842 294.313627 
L 168.333111 294.208228 
L 168.465651 293.541103 
L 168.53192 293.576721 
L 168.730729 293.115507 
L 168.863268 291.333728 
L 168.995807 286.429129 
L 169.062076 271.558603 
L 169.128346 276.206584 
L 169.260885 292.266828 
L 169.327155 292.177003 
L 169.525963 293.085808 
L 169.857311 294.301047 
L 170.05612 294.72211 
L 170.188659 294.015302 
L 170.321198 294.552973 
L 170.387468 294.30034 
L 170.586276 294.579498 
L 170.652546 294.485082 
L 170.718815 294.857192 
L 170.785085 294.836561 
L 170.851354 294.738393 
L 170.917624 294.933714 
L 170.983894 294.864375 
L 171.248972 294.753315 
L 171.44778 294.865709 
L 171.51405 295.060525 
L 171.58032 295.003433 
L 171.646589 294.900825 
L 171.712859 294.955358 
L 172.110476 295.119969 
L 172.309285 295.052736 
L 172.508093 295.172077 
L 172.706902 295.099535 
L 172.905711 295.20453 
L 173.104519 295.035333 
L 173.303328 295.239404 
L 174.628719 295.259823 
L 174.960067 295.323487 
L 175.755301 295.335212 
L 175.821571 295.397704 
L 175.887841 295.314081 
L 176.086649 295.2288 
L 176.351727 293.779452 
L 176.417997 291.785556 
L 176.616806 294.781151 
L 177.014423 295.14554 
L 177.080693 295.021367 
L 177.146962 295.125753 
L 177.279501 295.137708 
L 177.47831 295.160533 
L 177.610849 295.194581 
L 178.604892 295.1396 
L 178.737431 295.170291 
L 178.93624 295.165907 
L 179.068779 295.198834 
L 179.267588 295.113874 
L 179.598936 295.183998 
L 179.665205 295.082792 
L 179.731475 295.139337 
L 179.797744 295.144464 
L 179.864014 295.003453 
L 179.930283 295.11011 
L 180.062822 295.12675 
L 180.129092 295.202159 
L 180.195362 295.128281 
L 180.327901 295.067873 
L 180.659248 295.121541 
L 180.791788 295.030014 
L 180.858057 295.058658 
L 181.056866 294.873081 
L 181.255674 295.036529 
L 181.520753 294.843193 
L 181.587022 294.661815 
L 181.653292 294.87412 
L 181.719561 294.848363 
L 181.91837 294.593089 
L 182.050909 294.77055 
L 182.315987 294.361187 
L 182.382257 294.40195 
L 182.448526 294.736031 
L 182.514796 294.542382 
L 182.846144 294.041625 
L 182.912413 294.309203 
L 183.044952 293.79123 
L 183.111222 293.897616 
L 183.3763 293.122021 
L 183.575109 290.661496 
L 183.773917 278.50082 
L 183.972726 291.827379 
L 184.171535 293.281943 
L 184.237804 293.419085 
L 184.304074 293.889908 
L 184.370343 293.677826 
L 184.502883 294.232485 
L 184.569152 293.979663 
L 184.701691 294.316772 
L 184.767961 294.193782 
L 184.83423 294.410783 
L 184.9005 294.067697 
L 185.033039 294.585627 
L 185.099309 294.539715 
L 185.165578 294.506686 
L 185.298117 294.711208 
L 185.364387 294.735027 
L 185.563195 294.488512 
L 185.695735 294.71725 
L 185.828274 294.950226 
L 186.159621 294.793843 
L 186.225891 294.862274 
L 186.292161 295.183391 
L 186.35843 295.045958 
L 186.822317 295.083081 
L 187.087395 295.159 
L 187.286204 295.032978 
L 187.485013 295.157525 
L 187.683821 295.129918 
L 187.750091 295.136279 
L 187.81636 295.280912 
L 187.88263 295.0668 
L 187.948899 295.112904 
L 188.147708 295.238974 
L 188.412786 295.182952 
L 188.876673 295.254223 
L 189.009212 295.237714 
L 189.208021 295.236032 
L 190.79849 295.286106 
L 190.931029 294.948512 
L 190.997299 294.422248 
L 191.063568 292.954541 
L 191.262377 294.896087 
L 191.858803 295.198185 
L 191.991342 295.211516 
L 192.123881 295.233657 
L 192.32269 295.175614 
L 192.455229 295.204985 
L 192.654038 295.178221 
L 192.786577 295.221888 
L 193.051655 295.210869 
L 193.184194 295.209044 
L 193.714351 295.224818 
L 193.84689 295.179155 
L 194.178237 295.255449 
L 196.298863 295.048267 
L 196.497672 295.021343 
L 196.76275 295.102396 
L 197.359176 294.794832 
L 197.491715 294.947859 
L 197.955602 294.361308 
L 198.22068 293.206334 
L 198.419489 282.715121 
L 198.618298 293.525395 
L 198.750837 292.891731 
L 198.817106 293.1251 
L 198.949645 294.79941 
L 199.148454 294.560483 
L 199.214724 294.637608 
L 199.413532 294.601947 
L 199.67861 294.948915 
L 199.74488 294.785109 
L 199.81115 295.010102 
L 199.877419 294.898452 
L 199.943689 294.79707 
L 200.142497 294.966472 
L 200.275036 294.93325 
L 200.540115 294.724008 
L 200.738923 295.086778 
L 200.871462 295.133348 
L 201.20281 294.999716 
L 201.401619 295.187743 
L 201.600428 295.058021 
L 202.66074 295.158765 
L 202.79328 295.035234 
L 202.992088 295.145543 
L 203.522245 295.105019 
L 203.986131 295.194804 
L 204.118671 294.759369 
L 204.18494 294.974416 
L 204.25121 295.184158 
L 204.317479 295.163219 
L 204.450018 295.030143 
L 204.516288 295.135375 
L 204.648827 295.181215 
L 205.311523 294.947319 
L 205.377792 295.071929 
L 205.576601 294.38454 
L 205.64287 293.66745 
L 205.70914 291.31679 
L 205.907949 294.956484 
L 206.173027 295.364354 
L 206.636914 295.384341 
L 207.498418 295.293193 
L 207.829766 295.294934 
L 208.227383 295.276113 
L 208.359922 295.3069 
L 208.492461 295.196134 
L 208.625 295.227351 
L 208.757539 295.162575 
L 209.420235 295.234558 
L 209.552774 295.120498 
L 209.619044 295.136577 
L 209.685313 295.02852 
L 209.884122 295.22348 
L 210.281739 295.116268 
L 210.348009 295.200092 
L 210.414278 295.126137 
L 210.679356 294.961748 
L 210.878165 295.105649 
L 211.010704 294.871664 
L 211.076974 295.001515 
L 211.143243 294.928537 
L 211.275782 294.551978 
L 211.408322 294.990605 
L 211.540861 294.761859 
L 211.60713 294.971939 
L 211.805939 294.574412 
L 212.004748 294.652955 
L 212.071017 294.740342 
L 212.137287 294.365832 
L 212.203556 294.566032 
L 212.269826 294.520516 
L 212.336095 294.223556 
L 212.402365 294.347355 
L 212.534904 294.377729 
L 212.866252 292.329798 
L 212.932521 290.288551 
L 213.06506 278.299286 
L 213.1976 291.845196 
L 213.396408 293.275772 
L 213.595217 294.693773 
L 213.661486 294.40242 
L 213.727756 294.26082 
L 213.926565 294.744531 
L 214.059104 294.643297 
L 214.191643 294.829762 
L 214.324182 294.765238 
L 214.390451 294.899345 
L 214.456721 294.83927 
L 214.721799 294.987054 
L 214.854338 294.964465 
L 215.053147 295.063672 
L 215.185686 295.086256 
L 215.251956 295.200135 
L 215.318225 295.062814 
L 215.384495 295.105875 
L 215.583303 295.184467 
L 215.715843 295.222299 
L 215.848382 295.2424 
L 216.245999 295.257724 
L 217.770199 295.295548 
L 217.902738 295.346376 
L 218.234086 295.305664 
L 218.366625 295.309682 
L 219.09559 295.238335 
L 219.294398 295.312539 
L 219.559477 295.214268 
L 219.692016 295.215799 
L 219.824555 295.176802 
L 220.023364 294.964386 
L 220.089633 294.866653 
L 220.155903 295.016354 
L 220.288442 293.704319 
L 220.354711 291.921595 
L 220.420981 292.985416 
L 220.686059 294.959578 
L 220.884868 295.128244 
L 221.149946 295.214948 
L 222.541607 295.30133 
L 222.740415 295.291317 
L 223.005494 295.319815 
L 223.204302 295.30623 
L 223.403111 295.22693 
L 223.53565 295.34413 
L 223.734459 295.273832 
L 223.800728 295.357301 
L 223.866998 295.29793 
L 225.324928 295.088214 
L 225.391197 295.312199 
L 225.457467 295.252252 
L 225.855084 295.071591 
L 226.053893 295.121145 
L 226.252702 295.057074 
L 226.318971 295.168669 
L 226.45151 294.996493 
L 226.782858 294.972814 
L 226.915397 294.926027 
L 227.047936 294.761026 
L 227.114206 294.806765 
L 227.180475 295.027854 
L 227.379284 293.915893 
L 227.445554 293.79666 
L 227.578093 292.557331 
L 227.644362 290.761265 
L 227.710632 285.509536 
L 227.909441 293.480638 
L 228.307058 294.780631 
L 228.439597 294.507015 
L 228.638406 294.952442 
L 228.903484 294.983253 
L 229.102292 294.714065 
L 229.168562 295.097411 
L 229.234832 295.037544 
L 229.367371 295.193495 
L 229.49991 295.04732 
L 229.897527 295.169101 
L 230.096336 295.15547 
L 230.295144 295.238436 
L 230.560223 295.129918 
L 230.626492 295.25196 
L 230.692762 295.214544 
L 230.825301 295.204586 
L 231.090379 295.200636 
L 233.343544 295.167066 
L 233.741161 295.079995 
L 233.8737 295.139412 
L 234.337587 295.014027 
L 234.470126 295.048476 
L 234.536396 294.733609 
L 234.602665 294.839284 
L 234.668935 294.835463 
L 234.867744 293.810455 
L 234.934013 292.894926 
L 235.000283 288.934838 
L 235.066552 291.030975 
L 235.265361 294.197602 
L 235.530439 295.089881 
L 235.729248 295.115961 
L 236.126865 295.28371 
L 236.193135 295.323654 
L 236.325674 295.23989 
L 236.524483 295.308641 
L 236.723291 295.20735 
L 236.85583 295.365979 
L 237.651065 295.386741 
L 237.982413 295.359575 
L 238.181221 295.39032 
L 238.578839 295.411297 
L 238.843917 295.377095 
L 239.307804 295.373904 
L 239.572882 295.355456 
L 240.301847 295.30851 
L 241.560969 295.118469 
L 241.627238 295.067788 
L 241.693508 295.155143 
L 241.826047 295.184955 
L 242.157395 294.561648 
L 242.223664 293.925762 
L 242.356203 287.544892 
L 242.488742 294.316696 
L 242.687551 294.960849 
L 242.82009 294.973671 
L 243.416516 295.195514 
L 244.211751 295.281771 
L 244.34429 295.293945 
L 244.808177 295.292364 
L 245.006985 295.332585 
L 246.133568 295.421183 
L 246.332377 295.338644 
L 246.862533 295.366415 
L 247.591498 295.283496 
L 247.724037 295.336053 
L 248.121655 295.274286 
L 248.254194 295.259211 
L 248.519272 295.202121 
L 248.71808 295.255536 
L 248.916889 294.975295 
L 249.049428 295.077698 
L 249.248237 295.037871 
L 249.380776 294.724393 
L 249.579585 293.481658 
L 249.712124 289.186151 
L 249.844663 293.998183 
L 250.043472 294.810021 
L 250.176011 294.890569 
L 250.24228 294.964938 
L 250.30855 294.86918 
L 250.441089 295.10874 
L 250.772437 295.100136 
L 251.236324 295.233946 
L 253.091871 295.276679 
L 253.489488 295.283053 
L 253.688297 295.315509 
L 253.754567 295.227901 
L 253.820836 295.292905 
L 254.019645 295.313236 
L 254.152184 295.283241 
L 254.417262 295.31119 
L 254.68234 295.254201 
L 254.814879 295.273012 
L 255.212497 295.231172 
L 255.345036 295.279961 
L 255.610114 295.136128 
L 255.808923 295.182434 
L 255.875192 295.140833 
L 256.007731 295.232652 
L 256.20654 295.107307 
L 256.471618 295.072776 
L 256.537888 294.894344 
L 256.604157 295.020033 
L 256.802966 294.69437 
L 256.935505 293.375157 
L 257.001775 290.424842 
L 257.200583 294.609085 
L 257.399392 295.198151 
L 257.465662 295.216574 
L 257.531931 295.082047 
L 257.598201 295.197899 
L 257.929549 295.281909 
L 257.995818 295.160266 
L 258.062088 295.256557 
L 259.056131 295.386923 
L 260.248983 295.4035 
L 260.6466 295.395428 
L 261.375565 295.406115 
L 261.773183 295.363442 
L 262.568417 295.341093 
L 263.62873 295.166813 
L 263.695 295.234504 
L 263.761269 295.16264 
L 263.893808 295.047672 
L 264.158887 294.61495 
L 264.291426 293.179094 
L 264.357695 290.275598 
L 264.490234 294.318506 
L 264.622773 295.012627 
L 264.689043 294.988666 
L 265.020391 295.271411 
L 265.219199 295.176693 
L 265.550547 295.333875 
L 266.146973 295.369527 
L 266.412051 295.369842 
L 270.123146 295.41251 
L 270.587033 295.325924 
L 270.785842 295.405389 
L 271.249729 295.256528 
L 271.448538 295.134482 
L 271.581077 294.595339 
L 271.647346 293.311287 
L 271.713616 293.96802 
L 271.912424 295.220716 
L 272.111233 295.321876 
L 272.310042 295.310991 
L 272.707659 295.369182 
L 273.370355 295.410979 
L 278.208032 295.222232 
L 278.274302 295.131902 
L 278.340571 295.227917 
L 278.47311 295.107813 
L 278.804458 294.617813 
L 278.936997 292.961574 
L 279.003267 290.375568 
L 279.202075 294.670596 
L 279.732232 295.18545 
L 279.864771 295.208499 
L 279.99731 295.215225 
L 282.051666 295.388162 
L 282.648092 295.378052 
L 282.846901 295.434021 
L 283.111979 295.406004 
L 284.106022 295.456747 
L 284.43737 295.454534 
L 285.232605 295.477426 
L 286.094109 295.378393 
L 286.292918 294.916238 
L 286.359187 294.566565 
L 286.557996 295.268772 
L 286.889344 295.347252 
L 287.286961 295.372277 
L 290.865517 295.432059 
L 291.130595 295.399572 
L 292.257178 295.352397 
L 292.455986 295.301167 
L 292.588525 295.359178 
L 292.853604 295.256456 
L 293.118682 295.246995 
L 293.251221 295.168532 
L 293.516299 294.879207 
L 293.582569 293.970152 
L 293.648838 291.291033 
L 293.847647 294.948777 
L 293.980186 295.147332 
L 294.112725 295.189423 
L 295.106768 295.34774 
L 295.305577 295.356274 
L 296.167081 295.391906 
L 296.763507 295.411627 
L 298.155168 295.417268 
L 299.082942 295.446871 
L 300.143254 295.42772 
L 300.73968 295.393515 
L 300.87222 295.332452 
L 301.004759 295.10746 
L 301.269837 295.414816 
L 302.065072 295.426006 
L 303.920619 295.43419 
L 304.517045 295.417388 
L 305.047201 295.445363 
L 305.444819 295.420442 
L 307.035288 295.359373 
L 308.029331 295.1954 
L 308.22814 294.646552 
L 308.29441 293.106786 
L 308.493218 295.072982 
L 308.824566 295.329592 
L 308.957105 295.344598 
L 309.089644 295.353125 
L 309.354722 295.390065 
L 310.613844 295.431149 
L 311.077731 295.447213 
L 312.204313 295.462337 
L 315.584061 295.335463 
L 315.65033 295.206392 
L 315.849139 295.388173 
L 316.180487 295.417919 
L 316.710643 295.442229 
L 317.373339 295.450902 
L 322.674903 295.309975 
L 322.807442 295.162951 
L 322.873712 294.979832 
L 322.939981 294.010825 
L 323.006251 294.455134 
L 323.205059 295.152298 
L 323.337598 295.213803 
L 323.867755 295.340356 
L 324.265372 295.404126 
L 325.922111 295.410883 
L 326.12092 295.41919 
L 327.247502 295.422216 
L 328.771702 295.379296 
L 329.10305 295.313487 
L 329.368128 295.369449 
L 329.832015 295.226324 
L 330.030823 295.369422 
L 330.163362 295.033066 
L 330.295902 294.387009 
L 330.49471 295.331465 
L 330.56098 295.314071 
L 330.826058 295.222456 
L 331.356214 295.401483 
L 331.820101 295.42702 
L 334.669692 295.476626 
L 335.928814 295.441307 
L 336.392701 295.390139 
L 336.591509 295.402515 
L 336.856587 295.321412 
L 337.055396 295.217286 
L 337.386744 295.386757 
L 337.519283 294.900377 
L 337.651822 294.516304 
L 337.850631 295.148377 
L 338.115709 295.074415 
L 338.513326 295.288526 
L 338.977213 295.286297 
L 339.176022 295.377736 
L 339.639909 295.354617 
L 340.766491 295.389218 
L 341.164108 295.405416 
L 341.627995 295.398767 
L 342.42323 295.413939 
L 342.953386 295.363021 
L 343.152195 295.371085 
L 344.676395 295.300303 
L 344.742664 295.313925 
L 344.941473 294.574573 
L 345.140282 295.400597 
L 345.537899 295.250617 
L 345.670438 295.317537 
L 345.935516 295.386276 
L 346.266864 295.373593 
L 346.598212 295.413844 
L 347.194638 295.425502 
L 347.724794 295.442867 
L 350.839463 295.417367 
L 351.30335 295.405992 
L 351.700968 295.345256 
L 351.899776 295.310237 
L 352.032315 295.331442 
L 352.164854 295.122975 
L 352.231124 294.609795 
L 352.297394 294.891922 
L 352.496202 295.42656 
L 352.695011 295.426083 
L 353.026359 295.422502 
L 353.821593 295.461609 
L 356.406106 295.46513 
L 358.593001 295.469441 
L 359.520775 295.344168 
L 359.587044 295.143744 
L 359.785853 295.45259 
L 362.237827 295.466587 
L 366.744156 295.452104 
L 366.876695 295.310014 
L 366.942965 295.203093 
L 367.075504 295.41029 
L 368.798512 295.464234 
L 369.461208 295.456195 
L 374.166346 295.474925 
L 375.955624 295.460484 
L 386.227405 295.461655 
L 386.691292 295.470972 
L 389.474613 295.468275 
L 392.324204 295.464122 
L 398.487273 295.471288 
L 398.487273 295.471288 
" clip-path="url(#p848aca6d16)" style="fill: none; stroke: #1f77b4; stroke-width: 1.5; stroke-linecap: square"/>
   </g>
   <g id="patch_3">
    <path d="M 57.6 307.584 
L 57.6 41.472 
" style="fill: none; stroke: #000000; stroke-width: 0.8; stroke-linejoin: miter; stroke-linecap: square"/>
   </g>
   <g id="patch_4">
    <path d="M 414.72 307.584 
L 414.72 41.472 
" style="fill: none; stroke: #000000; stroke-width: 0.8; stroke-linejoin: miter; stroke-linecap: square"/>
   </g>
   <g id="patch_5">
    <path d="M 57.6 307.584 
L 414.72 307.584 
" style="fill: none; stroke: #000000; stroke-width: 0.8; stroke-linejoin: miter; stroke-linecap: square"/>
   </g>
   <g id="patch_6">
    <path d="M 57.6 41.472 
L 414.72 41.472 
" style="fill: none; stroke: #000000; stroke-width: 0.8; stroke-linejoin: miter; stroke-linecap: square"/>
   </g>
   <g id="text_18">
    <text style="font: 12px 'IPAexGothic'; text-anchor: middle" x="236.16" y="35.472" transform="rotate(-0 236.16 35.472)">"003_A2.wav"の振幅スペクトル</text>
   </g>
  </g>
 </g>
 <defs>
  <clipPath id="p848aca6d16">
   <rect x="57.6" y="41.472" width="357.12" height="266.112"/>
  </clipPath>
 </defs>
</svg>
