<?xml version="1.0" encoding="utf-8" standalone="no"?>
<!DOCTYPE svg PUBLIC "-//W3C//DTD SVG 1.1//EN"
  "http://www.w3.org/Graphics/SVG/1.1/DTD/svg11.dtd">
<svg xmlns:xlink="http://www.w3.org/1999/xlink" width="460.8pt" height="345.6pt" viewBox="0 0 460.8 345.6" xmlns="http://www.w3.org/2000/svg" version="1.1">
 <metadata>
  <rdf:RDF xmlns:dc="http://purl.org/dc/elements/1.1/" xmlns:cc="http://creativecommons.org/ns#" xmlns:rdf="http://www.w3.org/1999/02/22-rdf-syntax-ns#">
   <cc:Work>
    <dc:type rdf:resource="http://purl.org/dc/dcmitype/StillImage"/>
    <dc:date>2022-11-28T11:30:18.634734</dc:date>
    <dc:format>image/svg+xml</dc:format>
    <dc:creator>
     <cc:Agent>
      <dc:title>Matplotlib v3.6.2, https://matplotlib.org/</dc:title>
     </cc:Agent>
    </dc:creator>
   </cc:Work>
  </rdf:RDF>
 </metadata>
 <defs>
  <style type="text/css">*{stroke-linejoin: round; stroke-linecap: butt}</style>
 </defs>
 <g id="figure_1">
  <g id="patch_1">
   <path d="M 0 345.6 
L 460.8 345.6 
L 460.8 0 
L 0 0 
z
" style="fill: #ffffff"/>
  </g>
  <g id="axes_1">
   <g id="patch_2">
    <path d="M 57.6 307.584 
L 414.72 307.584 
L 414.72 41.472 
L 57.6 41.472 
z
" style="fill: #ffffff"/>
   </g>
   <g id="matplotlib.axis_1">
    <g id="xtick_1">
     <g id="line2d_1">
      <defs>
       <path id="m844008fc74" d="M 0 0 
L 0 3.5 
" style="stroke: #000000; stroke-width: 0.8"/>
      </defs>
      <g>
       <use xlink:href="#m844008fc74" x="73.832727" y="307.584" style="stroke: #000000; stroke-width: 0.8"/>
      </g>
     </g>
     <g id="text_1">
      <text style="font: 10px 'IPAexGothic'; text-anchor: middle" x="73.832727" y="322.074625" transform="rotate(-0 73.832727 322.074625)">0</text>
     </g>
    </g>
    <g id="xtick_2">
     <g id="line2d_2">
      <g>
       <use xlink:href="#m844008fc74" x="140.102281" y="307.584" style="stroke: #000000; stroke-width: 0.8"/>
      </g>
     </g>
     <g id="text_2">
      <text style="font: 10px 'IPAexGothic'; text-anchor: middle" x="140.102281" y="322.074625" transform="rotate(-0 140.102281 322.074625)">1000</text>
     </g>
    </g>
    <g id="xtick_3">
     <g id="line2d_3">
      <g>
       <use xlink:href="#m844008fc74" x="206.371835" y="307.584" style="stroke: #000000; stroke-width: 0.8"/>
      </g>
     </g>
     <g id="text_3">
      <text style="font: 10px 'IPAexGothic'; text-anchor: middle" x="206.371835" y="322.074625" transform="rotate(-0 206.371835 322.074625)">2000</text>
     </g>
    </g>
    <g id="xtick_4">
     <g id="line2d_4">
      <g>
       <use xlink:href="#m844008fc74" x="272.64139" y="307.584" style="stroke: #000000; stroke-width: 0.8"/>
      </g>
     </g>
     <g id="text_4">
      <text style="font: 10px 'IPAexGothic'; text-anchor: middle" x="272.64139" y="322.074625" transform="rotate(-0 272.64139 322.074625)">3000</text>
     </g>
    </g>
    <g id="xtick_5">
     <g id="line2d_5">
      <g>
       <use xlink:href="#m844008fc74" x="338.910944" y="307.584" style="stroke: #000000; stroke-width: 0.8"/>
      </g>
     </g>
     <g id="text_5">
      <text style="font: 10px 'IPAexGothic'; text-anchor: middle" x="338.910944" y="322.074625" transform="rotate(-0 338.910944 322.074625)">4000</text>
     </g>
    </g>
    <g id="xtick_6">
     <g id="line2d_6">
      <g>
       <use xlink:href="#m844008fc74" x="405.180498" y="307.584" style="stroke: #000000; stroke-width: 0.8"/>
      </g>
     </g>
     <g id="text_6">
      <text style="font: 10px 'IPAexGothic'; text-anchor: middle" x="405.180498" y="322.074625" transform="rotate(-0 405.180498 322.074625)">5000</text>
     </g>
    </g>
    <g id="text_7">
     <text style="font: 10px 'IPAexGothic'; text-anchor: middle" x="236.16" y="335.924625" transform="rotate(-0 236.16 335.924625)">周波数[Hz]</text>
    </g>
   </g>
   <g id="matplotlib.axis_2">
    <g id="ytick_1">
     <g id="line2d_7">
      <defs>
       <path id="m03b362c436" d="M 0 0 
L -3.5 0 
" style="stroke: #000000; stroke-width: 0.8"/>
      </defs>
      <g>
       <use xlink:href="#m03b362c436" x="57.6" y="295.491378" style="stroke: #000000; stroke-width: 0.8"/>
      </g>
     </g>
     <g id="text_8">
      <text style="font: 10px 'IPAexGothic'; text-anchor: end" x="50.6" y="299.23669" transform="rotate(-0 50.6 299.23669)">0</text>
     </g>
    </g>
    <g id="ytick_2">
     <g id="line2d_8">
      <g>
       <use xlink:href="#m03b362c436" x="57.6" y="256.15778" style="stroke: #000000; stroke-width: 0.8"/>
      </g>
     </g>
     <g id="text_9">
      <text style="font: 10px 'IPAexGothic'; text-anchor: end" x="50.6" y="259.903092" transform="rotate(-0 50.6 259.903092)">1</text>
     </g>
    </g>
    <g id="ytick_3">
     <g id="line2d_9">
      <g>
       <use xlink:href="#m03b362c436" x="57.6" y="216.824182" style="stroke: #000000; stroke-width: 0.8"/>
      </g>
     </g>
     <g id="text_10">
      <text style="font: 10px 'IPAexGothic'; text-anchor: end" x="50.6" y="220.569495" transform="rotate(-0 50.6 220.569495)">2</text>
     </g>
    </g>
    <g id="ytick_4">
     <g id="line2d_10">
      <g>
       <use xlink:href="#m03b362c436" x="57.6" y="177.490584" style="stroke: #000000; stroke-width: 0.8"/>
      </g>
     </g>
     <g id="text_11">
      <text style="font: 10px 'IPAexGothic'; text-anchor: end" x="50.6" y="181.235897" transform="rotate(-0 50.6 181.235897)">3</text>
     </g>
    </g>
    <g id="ytick_5">
     <g id="line2d_11">
      <g>
       <use xlink:href="#m03b362c436" x="57.6" y="138.156987" style="stroke: #000000; stroke-width: 0.8"/>
      </g>
     </g>
     <g id="text_12">
      <text style="font: 10px 'IPAexGothic'; text-anchor: end" x="50.6" y="141.902299" transform="rotate(-0 50.6 141.902299)">4</text>
     </g>
    </g>
    <g id="ytick_6">
     <g id="line2d_12">
      <g>
       <use xlink:href="#m03b362c436" x="57.6" y="98.823389" style="stroke: #000000; stroke-width: 0.8"/>
      </g>
     </g>
     <g id="text_13">
      <text style="font: 10px 'IPAexGothic'; text-anchor: end" x="50.6" y="102.568701" transform="rotate(-0 50.6 102.568701)">5</text>
     </g>
    </g>
    <g id="ytick_7">
     <g id="line2d_13">
      <g>
       <use xlink:href="#m03b362c436" x="57.6" y="59.489791" style="stroke: #000000; stroke-width: 0.8"/>
      </g>
     </g>
     <g id="text_14">
      <text style="font: 10px 'IPAexGothic'; text-anchor: end" x="50.6" y="63.235104" transform="rotate(-0 50.6 63.235104)">6</text>
     </g>
    </g>
    <g id="text_15">
     <text style="font: 10px 'IPAexGothic'; text-anchor: middle" x="38.401563" y="174.528" transform="rotate(-90 38.401563 174.528)">振幅</text>
    </g>
    <g id="text_16">
     <text style="font: 10px 'IPAexGothic'; text-anchor: start" x="57.6" y="38.472" transform="rotate(-0 57.6 38.472)">1e6</text>
    </g>
   </g>
   <g id="line2d_14">
    <path d="M 73.832727 53.568 
L 73.965266 279.252273 
L 74.097805 289.696615 
L 74.164075 289.444213 
L 74.230345 289.592057 
L 74.429153 290.492554 
L 74.694231 291.972321 
L 74.760501 291.023262 
L 74.89304 294.705251 
L 74.95931 293.409499 
L 75.025579 293.910395 
L 75.091849 293.984675 
L 75.158118 293.782694 
L 75.224388 294.097994 
L 75.290657 291.923256 
L 75.423197 294.388443 
L 75.555736 292.906483 
L 75.622005 293.098447 
L 75.688275 292.615197 
L 75.754544 295.012021 
L 75.820814 294.177028 
L 75.887083 295.213178 
L 75.953353 293.730542 
L 76.019623 294.592657 
L 76.085892 294.036461 
L 76.152162 294.796169 
L 76.218431 294.031275 
L 76.284701 295.309682 
L 76.35097 293.589508 
L 76.41724 294.280663 
L 76.549779 292.627266 
L 76.616049 292.833166 
L 76.814857 294.517967 
L 76.881127 293.871761 
L 76.947396 294.169273 
L 77.013666 293.921653 
L 77.079935 292.757808 
L 77.146205 288.691859 
L 77.212475 290.228787 
L 77.278744 288.535934 
L 77.411283 294.968375 
L 77.543822 294.313762 
L 77.610092 284.044983 
L 77.742631 294.128485 
L 77.808901 289.228667 
L 77.87517 291.509898 
L 77.94144 295.191336 
L 78.007709 292.549794 
L 78.073979 293.680096 
L 78.140248 293.347356 
L 78.272787 294.810585 
L 78.471596 286.5869 
L 78.537866 291.595673 
L 78.604135 290.543936 
L 78.670405 292.504627 
L 78.802944 286.776447 
L 79.001752 294.717611 
L 79.134292 291.847109 
L 79.200561 292.47855 
L 79.266831 287.133749 
L 79.3331 292.1968 
L 79.39937 292.028009 
L 79.465639 293.289269 
L 79.531909 291.713278 
L 79.598178 292.131886 
L 79.796987 290.045442 
L 79.995796 293.692186 
L 80.128335 294.556141 
L 80.194604 292.729898 
L 80.327144 294.454203 
L 80.393413 294.005206 
L 80.459683 294.321758 
L 80.525952 293.716218 
L 80.592222 294.755409 
L 80.724761 291.373026 
L 80.79103 292.413879 
L 81.056109 288.748244 
L 81.122378 291.589846 
L 81.188648 283.91686 
L 81.254917 292.414422 
L 81.321187 289.697836 
L 81.387456 290.136456 
L 81.453726 292.705919 
L 81.519996 290.38327 
L 81.586265 293.563105 
L 81.652535 292.680761 
L 81.718804 291.133965 
L 81.785074 292.131517 
L 81.851343 293.866369 
L 81.917613 292.501955 
L 81.983882 293.4305 
L 82.050152 292.061927 
L 82.116422 295.070896 
L 82.182691 293.403138 
L 82.248961 292.675707 
L 82.3815 294.43244 
L 82.447769 293.34965 
L 82.514039 293.669727 
L 82.580308 293.723769 
L 82.646578 291.468514 
L 82.712848 295.097749 
L 82.779117 294.407685 
L 82.845387 293.358074 
L 82.911656 293.729838 
L 82.977926 294.346071 
L 83.044195 294.235771 
L 83.176734 294.258987 
L 83.309274 293.634818 
L 83.375543 293.958275 
L 83.441813 293.855854 
L 83.508082 293.66622 
L 83.706891 294.741701 
L 83.77316 294.573444 
L 83.905699 294.025482 
L 83.971969 294.830281 
L 84.038239 294.319893 
L 84.104508 294.990646 
L 84.170778 294.752461 
L 84.303317 293.597293 
L 84.369586 294.491743 
L 84.435856 294.465518 
L 84.502125 294.359688 
L 84.568395 294.614269 
L 84.700934 294.022795 
L 84.767204 294.81407 
L 84.833473 294.760925 
L 84.899743 293.976266 
L 84.966012 294.813418 
L 85.032282 294.570632 
L 85.098551 294.273753 
L 85.164821 295.355204 
L 85.231091 295.170705 
L 85.29736 294.593211 
L 85.36363 295.101643 
L 85.429899 293.999329 
L 85.628708 295.133349 
L 85.694977 294.515247 
L 85.761247 295.264132 
L 85.827517 294.938498 
L 85.893786 294.724443 
L 85.960056 295.11029 
L 86.026325 295.057121 
L 86.092595 295.08287 
L 86.225134 293.736808 
L 86.291403 294.783204 
L 86.357673 294.547131 
L 86.423943 294.586978 
L 86.490212 294.884924 
L 86.556482 294.416489 
L 86.689021 295.262539 
L 86.82156 293.47572 
L 86.887829 293.81809 
L 86.954099 293.862864 
L 87.020369 292.897016 
L 87.086638 293.762237 
L 87.152908 292.395986 
L 87.351716 294.270495 
L 87.417986 293.88755 
L 87.484255 295.09434 
L 87.550525 294.82307 
L 87.616795 295.429187 
L 87.683064 294.780909 
L 87.749334 295.257266 
L 87.881873 294.19148 
L 87.948142 295.177052 
L 88.014412 294.937751 
L 88.146951 295.090863 
L 88.34576 294.042874 
L 88.478299 294.865714 
L 88.677107 291.798803 
L 88.743377 292.370724 
L 88.875916 293.349026 
L 88.942186 290.875926 
L 89.074725 292.849656 
L 89.406072 294.826183 
L 89.472342 293.848358 
L 89.538612 294.064232 
L 89.73742 295.021096 
L 89.869959 294.880381 
L 89.936229 294.860314 
L 90.002498 295.101126 
L 90.068768 294.988183 
L 90.135038 294.333129 
L 90.201307 294.720204 
L 90.267577 294.665918 
L 90.333846 294.75586 
L 90.400116 294.574297 
L 90.466385 295.03544 
L 90.532655 294.974147 
L 90.731464 293.467015 
L 90.797733 293.66654 
L 90.996542 294.914415 
L 91.062811 295.14783 
L 91.32789 292.582396 
L 91.460429 294.459458 
L 91.725507 293.353796 
L 92.056855 294.640284 
L 92.123124 294.735534 
L 92.321933 294.29952 
L 92.388202 294.44785 
L 92.520742 294.888502 
L 92.587011 294.742027 
L 92.71955 294.823857 
L 92.78582 295.345235 
L 92.852089 294.54552 
L 92.918359 294.700988 
L 93.050898 295.273359 
L 93.183437 294.784472 
L 93.315976 295.370465 
L 93.448515 294.571722 
L 93.514785 294.899446 
L 93.581054 294.800685 
L 93.647324 294.987945 
L 93.779863 293.874915 
L 93.846133 294.971398 
L 93.912402 294.787328 
L 93.978672 293.686791 
L 94.044941 294.983978 
L 94.111211 294.975271 
L 94.17748 295.302368 
L 94.310019 294.417075 
L 94.376289 294.979193 
L 94.442559 294.771407 
L 94.575098 294.664058 
L 94.641367 294.876003 
L 94.707637 294.342906 
L 94.773906 294.656066 
L 94.840176 294.538009 
L 95.038985 294.909204 
L 95.171524 294.467419 
L 95.237793 294.792239 
L 95.436602 294.141488 
L 95.502871 294.372518 
L 95.569141 293.97413 
L 95.635411 294.474747 
L 95.70168 294.186961 
L 95.76795 294.321232 
L 95.834219 293.964855 
L 95.900489 294.696152 
L 96.033028 292.862918 
L 96.099297 294.098886 
L 96.165567 294.093555 
L 96.298106 294.731931 
L 96.364376 294.540091 
L 96.430645 294.55863 
L 96.563184 294.846852 
L 96.629454 294.463552 
L 96.695723 294.494017 
L 96.761993 294.549043 
L 96.828263 294.773191 
L 96.894532 294.42971 
L 96.960802 294.574056 
L 97.027071 294.396046 
L 97.15961 295.137199 
L 97.22588 294.200806 
L 97.292149 294.489003 
L 97.358419 294.939882 
L 97.424689 294.301456 
L 97.490958 294.655776 
L 97.689767 294.145312 
L 97.822306 294.9 
L 97.954845 294.224924 
L 98.087384 295.148296 
L 98.153654 294.939153 
L 98.219923 295.090301 
L 98.286193 294.745167 
L 98.418732 295.238996 
L 98.61754 294.879475 
L 98.68381 295.000303 
L 98.75008 294.96386 
L 98.816349 294.928665 
L 98.882619 294.627633 
L 99.015158 295.097915 
L 99.081427 294.894164 
L 99.213966 295.303536 
L 99.280236 295.120165 
L 99.346506 295.263619 
L 99.479045 295.263198 
L 99.545314 295.413456 
L 99.611584 295.100613 
L 99.677853 295.196766 
L 99.810392 294.914902 
L 99.942932 294.274572 
L 100.009201 294.36324 
L 100.20801 294.108996 
L 100.406818 294.871499 
L 100.539358 294.542035 
L 100.671897 293.983264 
L 100.738166 294.007436 
L 100.804436 294.205931 
L 100.870705 294.808134 
L 100.936975 294.443386 
L 101.069514 295.038268 
L 101.135784 294.848288 
L 101.202053 294.61144 
L 101.268323 295.056647 
L 101.334592 294.992926 
L 101.400862 294.75181 
L 101.467131 294.848931 
L 101.533401 294.867441 
L 101.59967 295.322575 
L 101.66594 295.15569 
L 101.798479 295.197719 
L 101.997288 295.140013 
L 102.063557 295.336988 
L 102.196096 295.046745 
L 102.394905 295.199616 
L 102.461175 295.118696 
L 102.527444 295.376829 
L 102.792522 294.881299 
L 102.858792 295.242248 
L 102.925062 295.111874 
L 103.057601 294.970332 
L 103.19014 295.068345 
L 103.256409 294.552176 
L 103.322679 295.158193 
L 103.455218 294.082602 
L 103.654027 295.318227 
L 103.720296 294.999648 
L 103.786566 295.141979 
L 103.985374 294.699052 
L 104.051644 294.716002 
L 104.117913 294.997463 
L 104.184183 294.562474 
L 104.250453 294.752927 
L 104.449261 295.286884 
L 104.5818 295.35106 
L 104.64807 295.27713 
L 104.714339 294.97448 
L 104.846879 295.408174 
L 104.913148 295.3389 
L 105.178226 295.19435 
L 105.244496 294.909839 
L 105.377035 295.320734 
L 105.443305 295.313317 
L 105.509574 295.033746 
L 105.575844 295.204159 
L 105.642113 295.105298 
L 105.774652 295.274672 
L 105.840922 295.275053 
L 106.039731 294.583436 
L 106.17227 294.973415 
L 106.238539 294.919124 
L 106.371078 294.510298 
L 106.437348 294.706039 
L 106.569887 294.968224 
L 106.636157 294.655438 
L 106.768696 295.133274 
L 106.834965 294.970233 
L 106.901235 295.090929 
L 106.967504 295.188115 
L 107.100043 294.827535 
L 107.6302 295.287398 
L 107.696469 295.10894 
L 107.762739 295.142065 
L 107.829009 295.305825 
L 107.895278 295.230423 
L 108.094087 295.210136 
L 108.160356 295.421528 
L 108.226626 295.38609 
L 108.292895 295.376145 
L 108.425435 295.17452 
L 108.823052 295.461186 
L 109.02186 295.100883 
L 109.08813 294.692106 
L 109.1544 295.23511 
L 109.220669 295.128124 
L 109.286939 294.979965 
L 109.353208 295.214552 
L 109.419478 295.106621 
L 109.485747 294.778818 
L 109.552017 295.078746 
L 109.618286 295.014763 
L 109.684556 295.042701 
L 109.750826 295.290012 
L 109.883365 295.091535 
L 109.949634 295.209004 
L 110.148443 294.984278 
L 110.214712 295.238741 
L 110.280982 294.959131 
L 110.347252 295.093948 
L 110.479791 295.20191 
L 110.54606 294.974225 
L 110.61233 294.000919 
L 110.744869 295.090509 
L 110.811138 294.903062 
L 110.877408 295.008775 
L 111.009947 295.182652 
L 111.208756 294.443233 
L 111.341295 294.75872 
L 111.407564 294.523885 
L 111.473834 294.636801 
L 111.606373 294.591576 
L 111.672643 294.396064 
L 111.738912 294.895964 
L 111.805182 294.806741 
L 111.937721 294.958396 
L 112.13653 294.856833 
L 112.269069 295.003878 
L 112.534147 294.565069 
L 112.600416 294.692654 
L 112.666686 294.572444 
L 112.865495 295.063348 
L 112.931764 294.973838 
L 113.130573 294.864909 
L 113.196842 294.91592 
L 113.329382 294.361665 
L 113.395651 294.493725 
L 113.461921 294.527107 
L 113.660729 295.069297 
L 113.726999 295.004895 
L 113.992077 294.188783 
L 114.124616 294.672758 
L 114.190886 294.581105 
L 114.323425 294.636239 
L 114.389694 294.92558 
L 114.455964 294.757602 
L 114.787312 295.291706 
L 114.919851 294.995424 
L 114.98612 295.382264 
L 115.05239 295.323404 
L 115.251199 294.951743 
L 115.317468 295.269669 
L 115.383738 294.98096 
L 115.450007 295.037205 
L 115.582546 295.223083 
L 115.648816 294.917626 
L 115.847625 295.295613 
L 115.913894 295.310983 
L 115.980164 295.180943 
L 116.046433 295.474915 
L 116.178972 295.190731 
L 116.311511 295.466143 
L 116.444051 295.304132 
L 116.57659 295.247668 
L 116.841668 295.00303 
L 116.974207 295.320403 
L 117.040477 295.15278 
L 117.106746 295.308003 
L 117.173016 295.0697 
L 117.239285 295.341842 
L 117.305555 295.166147 
L 117.371824 295.250133 
L 117.438094 295.094116 
L 117.504363 295.187039 
L 117.636903 295.272877 
L 117.769442 295.138577 
L 117.835711 295.198076 
L 117.901981 295.013644 
L 117.96825 295.092555 
L 118.100789 295.386615 
L 118.167059 295.231188 
L 118.233329 295.404674 
L 118.299598 295.230161 
L 118.365868 295.37418 
L 118.432137 295.170307 
L 118.564676 295.38039 
L 118.630946 295.015059 
L 118.697215 295.255042 
L 118.829754 295.257653 
L 119.028563 295.120688 
L 119.161102 295.30479 
L 119.359911 294.849868 
L 119.42618 294.790312 
L 119.55872 294.950298 
L 119.691259 294.889439 
L 119.890067 295.103163 
L 119.956337 295.242006 
L 120.088876 294.982173 
L 120.221415 294.916458 
L 120.420224 295.421526 
L 120.486493 295.130913 
L 120.552763 295.280323 
L 120.685302 295.134685 
L 120.751572 295.038886 
L 120.817841 295.205828 
L 120.884111 294.715064 
L 120.95038 295.019933 
L 121.01665 295.017413 
L 121.149189 294.67012 
L 121.215458 294.7348 
L 121.480537 295.246883 
L 121.546806 295.105003 
L 121.613076 295.22112 
L 121.679345 295.196771 
L 121.745615 295.318959 
L 121.811884 295.269697 
L 121.944424 295.207856 
L 122.010693 294.93049 
L 122.076963 294.991251 
L 122.143232 295.138584 
L 122.209502 294.858468 
L 122.275771 295.175676 
L 122.342041 295.079985 
L 122.673389 295.236833 
L 123.203545 295.351509 
L 123.336084 295.054673 
L 123.402354 295.299812 
L 123.468623 295.159942 
L 123.534893 295.215532 
L 123.601162 295.012413 
L 123.667432 295.144788 
L 123.733701 295.050572 
L 123.799971 295.163138 
L 123.866241 294.901963 
L 123.93251 295.009762 
L 123.99878 295.038205 
L 124.065049 294.836501 
L 124.197588 295.243016 
L 124.263858 295.157588 
L 124.396397 295.210514 
L 124.727745 294.735598 
L 124.794014 294.499833 
L 125.059093 294.964185 
L 125.191632 295.025484 
L 125.324171 294.598695 
L 125.39044 294.682042 
L 125.45671 295.097043 
L 125.522979 295.004379 
L 125.589249 294.927149 
L 125.854327 295.379519 
L 125.986866 295.116073 
L 126.053136 295.182301 
L 126.318214 295.289123 
L 126.450753 295.035163 
L 126.517023 295.324488 
L 126.583292 295.292796 
L 126.649562 295.151905 
L 126.715831 295.211545 
L 126.848371 295.185972 
L 126.91464 295.346747 
L 126.98091 295.29786 
L 127.047179 295.261922 
L 127.245988 295.019567 
L 127.312257 295.251938 
L 127.378527 294.990417 
L 127.444797 295.042093 
L 127.511066 295.243962 
L 127.643605 294.611686 
L 127.908683 294.97772 
L 128.107492 294.852742 
L 128.306301 295.262041 
L 128.43884 295.148755 
L 128.571379 295.383604 
L 128.703918 295.094516 
L 128.968996 295.247007 
L 129.167805 295.160358 
L 129.234074 295.189187 
L 129.300344 295.066873 
L 129.366614 295.236897 
L 129.432883 295.150556 
L 129.565422 295.386504 
L 129.631692 295.301235 
L 129.89677 295.000606 
L 129.96304 295.260526 
L 130.161848 294.842479 
L 130.360657 295.302041 
L 130.493196 295.201555 
L 130.758274 295.4171 
L 130.957083 294.725112 
L 131.023352 295.208373 
L 131.089622 295.178318 
L 131.288431 295.005949 
L 131.42097 295.099104 
L 131.487239 294.852061 
L 131.553509 295.003595 
L 131.619778 295.190753 
L 131.686048 295.098837 
L 131.752318 295.004064 
L 131.818587 295.074372 
L 131.884857 295.205055 
L 131.951126 294.936335 
L 132.017396 295.058224 
L 132.149935 295.215429 
L 132.216204 294.981732 
L 132.282474 295.152741 
L 132.348744 295.08535 
L 132.415013 295.278083 
L 132.613822 294.990113 
L 132.746361 295.356997 
L 132.94517 295.14995 
L 133.342787 295.390764 
L 133.409056 295.15515 
L 133.475326 295.356792 
L 133.541596 295.03395 
L 133.607865 295.294887 
L 133.674135 295.156884 
L 133.740404 295.248422 
L 133.939213 294.958442 
L 134.005482 294.889834 
L 134.204291 295.156498 
L 134.270561 294.293368 
L 134.33683 294.698712 
L 134.469369 295.109094 
L 134.535639 294.867049 
L 134.601908 295.01372 
L 134.668178 295.04002 
L 134.734447 294.829694 
L 134.800717 295.115662 
L 134.866987 294.972162 
L 134.933256 295.153788 
L 135.065795 294.494361 
L 135.198334 295.286188 
L 135.264604 295.096076 
L 135.330873 295.321839 
L 135.397143 295.192017 
L 135.463413 295.160774 
L 135.529682 294.855358 
L 135.595952 295.141962 
L 135.662221 294.975232 
L 135.728491 295.03533 
L 135.79476 294.798396 
L 135.86103 295.052248 
L 135.927299 294.888645 
L 136.258647 295.165155 
L 136.324917 294.437622 
L 136.391186 294.562638 
L 136.457456 294.978124 
L 136.523725 294.844385 
L 136.656265 294.957613 
L 136.722534 295.039422 
L 136.788804 294.877579 
L 136.855073 294.906502 
L 136.987612 295.173498 
L 137.053882 294.939903 
L 137.120151 295.120983 
L 137.186421 295.026002 
L 137.31896 294.88844 
L 137.451499 294.974012 
L 137.517769 294.887943 
L 137.584038 295.361836 
L 137.650308 295.210423 
L 137.782847 294.928331 
L 138.047925 295.470233 
L 138.511812 295.021818 
L 138.644351 295.110936 
L 138.710621 295.064905 
L 139.041968 295.469827 
L 139.307047 295.289574 
L 139.505855 295.347895 
L 139.572125 295.417343 
L 139.638394 295.271123 
L 139.704664 295.358339 
L 139.770934 295.483054 
L 139.903473 295.363833 
L 139.969742 295.350688 
L 140.036012 295.146682 
L 140.102281 295.472147 
L 140.168551 295.163152 
L 140.23482 295.202426 
L 140.30109 295.092442 
L 140.36736 295.168297 
L 140.433629 295.235638 
L 140.566168 295.063582 
L 140.698707 295.295685 
L 140.963786 294.871128 
L 141.030055 294.842182 
L 141.162594 294.47801 
L 141.295133 294.715314 
L 141.493942 294.656996 
L 141.626481 295.111308 
L 141.82529 294.42755 
L 141.891559 294.830021 
L 141.957829 294.805277 
L 142.156638 295.229884 
L 142.222907 295.062448 
L 142.289177 295.020293 
L 142.355446 295.147081 
L 142.487985 294.955062 
L 142.554255 295.210597 
L 142.620524 294.972327 
L 142.753064 295.19741 
L 142.819333 295.182989 
L 142.951872 295.334077 
L 143.084411 294.790733 
L 143.150681 295.071654 
L 143.415759 295.206465 
L 143.482029 295.051368 
L 143.548298 295.11842 
L 143.747107 295.33655 
L 143.813376 295.309558 
L 144.078455 294.906496 
L 144.277263 294.960976 
L 144.343533 294.567643 
L 144.409802 294.760159 
L 144.476072 294.855719 
L 144.542341 294.703439 
L 144.674881 295.147802 
L 144.74115 295.096876 
L 144.873689 295.474902 
L 145.072498 294.907225 
L 145.271307 295.229724 
L 145.403846 295.269366 
L 145.602654 295.301185 
L 145.668924 295.052152 
L 145.735193 295.184308 
L 145.867733 295.18841 
L 145.934002 294.997628 
L 146.000272 295.045734 
L 146.066541 295.087442 
L 146.19908 294.696631 
L 146.331619 295.121556 
L 146.397889 294.819615 
L 146.464159 294.864682 
L 146.596698 294.832222 
L 146.928045 294.640582 
L 146.994315 294.839001 
L 147.060585 294.806627 
L 147.126854 294.79204 
L 147.193124 294.958209 
L 147.259393 294.862001 
L 147.391932 294.829276 
L 147.524471 294.936558 
L 147.72328 294.698208 
L 147.855819 294.517398 
L 148.054628 295.166924 
L 148.120897 295.184164 
L 148.253437 295.060577 
L 148.584784 294.98132 
L 148.717323 294.604405 
L 148.783593 294.977334 
L 148.849862 294.873793 
L 148.916132 294.870307 
L 148.982402 294.430837 
L 149.18121 295.000852 
L 149.313749 295.060896 
L 149.380019 294.937587 
L 149.446288 295.2228 
L 149.512558 295.101012 
L 149.578828 295.110528 
L 149.711367 295.322506 
L 149.843906 295.197666 
L 149.910175 294.94577 
L 149.976445 294.993547 
L 150.042714 295.01018 
L 150.108984 295.21242 
L 150.307793 294.725007 
L 150.374062 294.929979 
L 150.506601 294.586235 
L 150.572871 294.830554 
L 150.63914 294.667218 
L 150.70541 294.69511 
L 150.837949 294.994442 
L 150.970488 294.575536 
L 151.036758 294.752667 
L 151.103027 294.640391 
L 151.169297 294.386353 
L 151.235566 294.468136 
L 151.368106 294.845541 
L 151.434375 294.812093 
L 151.500645 294.808939 
L 151.633184 295.130757 
L 151.765723 295.037708 
L 151.964532 295.272202 
L 152.030801 295.396918 
L 152.16334 295.051541 
L 152.295879 295.451802 
L 152.362149 295.411643 
L 152.627227 295.024399 
L 152.693497 294.816004 
L 152.759766 294.868331 
L 152.892305 294.91711 
L 153.024844 295.101244 
L 153.356192 294.457251 
L 153.555001 294.987262 
L 153.68754 294.892156 
L 153.886349 294.582314 
L 153.952618 294.431969 
L 154.018888 294.555981 
L 154.151427 294.584782 
L 154.350235 294.237666 
L 154.416505 294.382736 
L 154.482775 294.604887 
L 154.549044 294.325204 
L 154.615314 294.485537 
L 154.880392 294.180405 
L 155.012931 294.584011 
L 155.14547 294.267516 
L 155.21174 294.670076 
L 155.278009 293.757952 
L 155.344279 293.845065 
L 155.543087 294.380574 
L 155.808166 294.511788 
L 156.006974 293.549324 
L 156.073244 293.578772 
L 156.139513 293.614411 
L 156.205783 294.0143 
L 156.272053 293.964993 
L 156.470861 293.41428 
L 156.537131 293.156898 
L 156.6034 293.203832 
L 156.66967 294.326822 
L 156.735939 294.045643 
L 156.868479 294.596367 
L 157.001018 294.425334 
L 157.133557 294.623863 
L 157.266096 294.471186 
L 157.332365 294.587874 
L 157.464905 294.153483 
L 157.531174 294.222955 
L 157.663713 294.337086 
L 157.729983 294.339354 
L 157.862522 294.572415 
L 157.928791 294.504719 
L 157.995061 294.747816 
L 158.061331 294.650217 
L 158.1276 294.657739 
L 158.260139 294.94416 
L 158.326409 294.76777 
L 158.392678 294.852568 
L 158.591487 294.956339 
L 158.856565 294.384723 
L 158.922835 294.067638 
L 158.989104 294.166998 
L 159.055374 294.20188 
L 159.187913 294.01553 
L 159.254182 294.085739 
L 159.320452 294.633131 
L 159.386722 293.914021 
L 159.452991 294.240221 
L 159.519261 294.008733 
L 159.58553 294.257946 
L 159.6518 294.215181 
L 159.718069 294.048115 
L 159.784339 294.81973 
L 159.850608 294.462736 
L 159.983148 294.49529 
L 160.115687 294.165528 
L 160.314495 294.91652 
L 160.645843 295.189866 
L 160.712113 294.988949 
L 160.778382 295.12313 
L 160.844652 295.061562 
L 161.04346 295.349103 
L 161.242269 295.282422 
L 161.308539 295.470993 
L 161.507347 295.216076 
L 161.706156 294.968532 
L 161.904965 294.461848 
L 161.971234 294.622107 
L 162.037504 294.242635 
L 162.103773 294.387738 
L 162.302582 294.603146 
L 162.435121 294.684246 
L 162.501391 294.293854 
L 162.56766 294.853762 
L 162.63393 294.641972 
L 162.899008 295.119968 
L 163.031547 294.832576 
L 163.097817 294.971965 
L 163.164086 295.187877 
L 163.230356 295.067755 
L 163.296625 295.058198 
L 163.362895 294.647679 
L 163.429164 294.719116 
L 163.561704 294.712956 
L 163.627973 294.671027 
L 163.760512 294.812792 
L 163.826782 294.751144 
L 164.02559 295.011061 
L 164.224399 295.211141 
L 164.290669 295.001816 
L 164.356938 295.052774 
L 164.489477 294.872468 
L 164.622016 295.208709 
L 164.688286 295.087104 
L 164.754555 295.360489 
L 164.820825 295.219622 
L 164.953364 295.329842 
L 165.218442 295.099368 
L 165.417251 295.016475 
L 165.61606 294.944218 
L 165.814868 295.288435 
L 165.881138 295.237733 
L 166.146216 294.915089 
L 166.212486 295.088951 
L 166.278755 295.04159 
L 166.411294 294.983838 
L 166.610103 294.478563 
L 166.875181 295.360869 
L 167.07399 295.016609 
L 167.140259 295.129308 
L 167.471607 294.411207 
L 167.537877 294.941426 
L 167.670416 293.895605 
L 167.736685 294.128218 
L 167.802955 293.875882 
L 167.869225 294.193643 
L 167.935494 294.072597 
L 168.068033 293.869971 
L 168.134303 293.969771 
L 168.266842 294.484709 
L 168.333111 294.200932 
L 168.399381 293.384332 
L 168.465651 293.80147 
L 168.664459 294.752609 
L 168.929537 294.029443 
L 169.062076 294.113373 
L 169.194616 293.756808 
L 169.260885 294.430576 
L 169.459694 293.314173 
L 169.525963 293.57841 
L 169.592233 293.478719 
L 169.658502 293.482714 
L 169.724772 293.370069 
L 170.05612 294.526697 
L 170.122389 293.659148 
L 170.188659 293.79085 
L 170.586276 295.245532 
L 170.652546 295.244238 
L 170.718815 295.447993 
L 170.785085 295.418887 
L 170.917624 295.196125 
L 171.050163 294.332637 
L 171.182702 294.878101 
L 171.315241 294.725735 
L 171.646589 294.96245 
L 171.712859 294.837916 
L 171.779128 294.989108 
L 171.845398 294.623189 
L 171.911667 294.786432 
L 172.243015 294.18435 
L 172.309285 293.959322 
L 172.375554 294.338484 
L 172.574363 293.817582 
L 172.640632 293.818148 
L 172.706902 293.64605 
L 172.905711 294.570434 
L 172.97198 294.390013 
L 173.104519 293.686867 
L 173.303328 294.648372 
L 173.568406 294.889073 
L 173.634676 294.897956 
L 173.767215 294.236314 
L 173.833484 294.628709 
L 173.966023 293.932314 
L 174.032293 293.967351 
L 174.164832 294.88817 
L 174.231102 294.837827 
L 174.42991 293.930943 
L 174.49618 294.418378 
L 174.562449 293.837531 
L 174.694989 294.660865 
L 174.761258 294.539245 
L 174.960067 294.874318 
L 175.092606 295.241523 
L 175.158875 295.076388 
L 175.225145 294.941086 
L 175.423954 295.103631 
L 175.490223 294.986801 
L 175.556493 294.60644 
L 175.622762 295.024215 
L 175.689032 294.721847 
L 175.755301 294.803377 
L 175.821571 295.213111 
L 175.95411 294.767296 
L 176.086649 295.143412 
L 176.351727 294.324358 
L 176.417997 294.965388 
L 176.683075 293.216274 
L 176.749345 293.41404 
L 176.815614 292.35953 
L 177.014423 294.131455 
L 177.080693 294.16659 
L 177.146962 294.531156 
L 177.213232 294.396623 
L 177.345771 294.101993 
L 177.41204 294.156407 
L 177.610849 295.255478 
L 177.677119 295.133127 
L 177.809658 294.034788 
L 177.875927 293.921727 
L 178.008466 294.195529 
L 178.141005 294.376752 
L 178.273545 294.991823 
L 178.406084 294.679692 
L 178.604892 294.655053 
L 178.737431 294.264085 
L 178.803701 294.644778 
L 178.93624 293.904454 
L 179.068779 294.603397 
L 179.201318 294.059816 
L 179.400127 294.41124 
L 179.532666 294.369808 
L 179.598936 294.236698 
L 179.665205 293.676013 
L 179.797744 294.77754 
L 179.864014 293.833456 
L 179.930283 294.297566 
L 179.996553 294.105724 
L 180.129092 294.533058 
L 180.327901 294.080784 
L 180.46044 294.016151 
L 180.526709 293.290678 
L 180.592979 293.299607 
L 180.659248 293.646891 
L 180.725518 292.978605 
L 180.858057 293.585316 
L 180.924327 292.866452 
L 180.990596 293.576985 
L 181.056866 293.322134 
L 181.123135 292.640092 
L 181.255674 293.765362 
L 181.454483 291.865353 
L 181.587022 290.802521 
L 181.719561 293.033983 
L 181.785831 292.827167 
L 181.8521 293.591672 
L 181.91837 292.187459 
L 182.117179 294.892745 
L 182.183448 294.824817 
L 182.249718 294.585539 
L 182.382257 293.353228 
L 182.448526 294.646514 
L 182.647335 292.815393 
L 182.713605 293.593076 
L 182.846144 291.685029 
L 182.912413 292.717088 
L 182.978683 292.089608 
L 183.044952 292.079822 
L 183.111222 293.14363 
L 183.177492 292.429831 
L 183.243761 290.660022 
L 183.310031 291.466392 
L 183.3763 291.392316 
L 183.44257 291.037628 
L 183.508839 291.323424 
L 183.707648 292.71474 
L 183.840187 292.523278 
L 183.906457 293.358455 
L 183.972726 292.801534 
L 184.038996 292.636639 
L 184.237804 289.84178 
L 184.304074 291.429898 
L 184.370343 290.967558 
L 184.502883 292.084062 
L 184.569152 291.083628 
L 184.635422 291.841731 
L 184.701691 291.440355 
L 184.83423 290.919343 
L 184.9005 288.364506 
L 184.966769 288.863631 
L 185.033039 289.725457 
L 185.165578 287.509133 
L 185.231848 288.413165 
L 185.298117 287.882175 
L 185.364387 287.351097 
L 185.563195 281.894701 
L 185.894543 289.036662 
L 186.027082 288.813849 
L 186.093352 287.575275 
L 186.159621 287.694502 
L 186.225891 287.612438 
L 186.292161 291.241911 
L 186.35843 288.968816 
L 186.4247 289.079236 
L 186.623508 284.304117 
L 186.689778 284.859826 
L 186.756047 285.798345 
L 186.822317 284.895112 
L 187.021126 288.211647 
L 187.087395 287.708367 
L 187.153665 283.640806 
L 187.219934 285.813379 
L 187.286204 284.074872 
L 187.352473 286.966115 
L 187.418743 285.391816 
L 187.551282 287.995483 
L 187.617552 287.859023 
L 187.683821 287.901571 
L 187.750091 287.115032 
L 187.81636 289.220976 
L 187.88263 282.443531 
L 187.948899 285.256534 
L 188.015169 286.881961 
L 188.081439 285.084684 
L 188.147708 287.183588 
L 188.213978 285.652231 
L 188.280247 285.875767 
L 188.346517 285.942196 
L 188.545325 287.336202 
L 188.611595 286.268328 
L 188.744134 289.765786 
L 188.810404 289.050951 
L 188.876673 290.333313 
L 188.942943 288.787536 
L 189.141751 292.593431 
L 189.34056 287.098155 
L 189.473099 290.741694 
L 189.671908 287.163087 
L 190.069525 236.388075 
L 190.135795 181.56103 
L 190.202064 196.417345 
L 190.400873 278.164726 
L 190.467142 134.947819 
L 190.533412 161.7427 
L 190.599682 167.632387 
L 190.732221 231.370833 
L 190.79849 230.001256 
L 191.063568 253.01764 
L 191.129838 252.190763 
L 191.196108 252.219631 
L 191.262377 258.380282 
L 191.328647 247.255261 
L 191.461186 267.831952 
L 191.527455 261.906481 
L 191.792534 276.522604 
L 191.858803 274.450818 
L 191.925073 268.470556 
L 192.123881 277.687073 
L 192.190151 278.610624 
L 192.25642 277.722734 
L 192.32269 279.078874 
L 192.455229 284.667337 
L 192.521499 282.824022 
L 192.720307 289.362581 
L 192.852846 285.19521 
L 192.919116 283.191788 
L 193.117925 285.970496 
L 193.316733 282.496214 
L 193.383003 284.874314 
L 193.449272 282.492352 
L 193.648081 290.082307 
L 193.714351 289.614585 
L 193.78062 288.210485 
L 193.979429 290.820715 
L 194.111968 290.598365 
L 194.310777 292.255591 
L 194.509585 290.922092 
L 194.575855 290.439557 
L 194.642124 291.963104 
L 194.708394 289.573825 
L 194.774663 290.009327 
L 194.840933 289.744638 
L 194.907203 289.853516 
L 195.172281 292.015959 
L 195.30482 290.232706 
L 195.437359 291.073076 
L 195.503629 291.115058 
L 195.636168 292.396038 
L 195.768707 291.012548 
L 196.100055 292.510386 
L 196.431402 289.847678 
L 196.630211 292.857714 
L 196.696481 292.817938 
L 196.76275 292.919787 
L 196.82902 292.328142 
L 196.895289 292.941279 
L 197.094098 289.760958 
L 197.226637 289.515508 
L 197.292907 290.335032 
L 197.359176 289.624796 
L 197.491715 292.170894 
L 197.557985 291.992904 
L 197.624254 291.583943 
L 197.690524 291.659729 
L 197.823063 292.156636 
L 197.889333 292.11181 
L 198.088141 290.642392 
L 198.154411 290.773895 
L 198.22068 291.465535 
L 198.353219 290.099589 
L 198.419489 290.034916 
L 198.485759 289.577339 
L 198.618298 291.126164 
L 198.817106 286.132422 
L 198.949645 292.272795 
L 199.082184 291.399038 
L 199.148454 291.423715 
L 199.214724 291.992971 
L 199.280993 291.798063 
L 199.413532 290.991497 
L 199.479802 291.243897 
L 199.67861 292.038088 
L 199.74488 291.046217 
L 199.81115 291.824102 
L 199.943689 289.227291 
L 200.142497 291.176409 
L 200.208767 291.419789 
L 200.341306 290.576863 
L 200.407576 291.539308 
L 200.473845 291.386103 
L 200.540115 291.176358 
L 200.606384 293.1962 
L 200.672654 292.793862 
L 200.805193 293.795839 
L 200.871462 293.51149 
L 201.136541 292.731032 
L 201.401619 293.820667 
L 201.666697 292.098998 
L 201.799236 292.606484 
L 201.865506 292.471496 
L 201.931775 291.933776 
L 202.064314 292.946609 
L 202.130584 292.900431 
L 202.263123 293.474042 
L 202.329393 293.219769 
L 202.528201 294.173576 
L 202.594471 294.534066 
L 202.66074 294.293052 
L 202.79328 293.963401 
L 202.992088 295.073801 
L 203.058358 294.833556 
L 203.190897 295.051251 
L 203.389706 294.763106 
L 203.455975 295.033398 
L 203.522245 294.986405 
L 203.721053 294.775287 
L 203.787323 294.853396 
L 203.853592 294.842319 
L 203.919862 294.672632 
L 203.986131 294.99149 
L 204.118671 294.097826 
L 204.18494 295.128386 
L 204.25121 295.001979 
L 204.383749 294.778277 
L 204.450018 294.427171 
L 204.582557 294.793412 
L 204.648827 294.835762 
L 204.715097 295.045839 
L 204.847636 294.741082 
L 205.046444 295.266281 
L 205.178983 294.925203 
L 205.245253 295.025339 
L 205.444062 294.610073 
L 205.576601 294.620979 
L 205.775409 294.299262 
L 205.974218 294.55468 
L 206.106757 294.935673 
L 206.371835 294.169146 
L 206.504375 294.84183 
L 206.570644 294.802837 
L 206.703183 294.922768 
L 207.100801 293.970913 
L 207.16707 294.413684 
L 207.23334 294.302474 
L 207.365879 293.798721 
L 207.432148 294.085945 
L 207.498418 294.013888 
L 207.630957 294.087134 
L 207.697227 293.780574 
L 207.763496 293.993295 
L 207.896035 293.894302 
L 208.094844 293.507792 
L 208.293653 294.430499 
L 208.359922 294.365584 
L 208.426192 293.934824 
L 208.492461 294.016783 
L 208.625 294.314501 
L 208.69127 294.187466 
L 208.823809 294.659026 
L 209.022618 295.245166 
L 209.088887 295.212259 
L 209.287696 294.910853 
L 209.685313 294.219162 
L 209.751583 294.510055 
L 209.817852 294.330429 
L 209.884122 294.518623 
L 209.950391 294.445909 
L 210.08293 293.982551 
L 210.1492 294.096348 
L 210.21547 294.704023 
L 210.281739 294.579251 
L 210.348009 294.699518 
L 210.679356 293.962415 
L 210.878165 294.580891 
L 210.944435 294.276631 
L 211.010704 294.180682 
L 211.076974 294.460044 
L 211.143243 294.283955 
L 211.275782 293.326105 
L 211.408322 294.364896 
L 211.540861 293.944728 
L 211.60713 294.387616 
L 211.805939 293.551634 
L 211.938478 293.96895 
L 212.071017 294.426788 
L 212.137287 293.926948 
L 212.203556 294.168388 
L 212.269826 294.077297 
L 212.336095 293.718411 
L 212.468634 294.247564 
L 212.534904 294.320905 
L 212.667443 293.917896 
L 212.733713 294.20786 
L 212.799982 294.001456 
L 212.932521 294.08889 
L 212.998791 293.742234 
L 213.13133 294.471908 
L 213.263869 293.869355 
L 213.330139 294.04341 
L 213.462678 293.580198 
L 213.528947 293.723843 
L 213.595217 294.49775 
L 213.661486 294.160367 
L 213.727756 294.024662 
L 213.926565 294.669888 
L 214.059104 294.294864 
L 214.125373 294.509992 
L 214.191643 294.439084 
L 214.324182 294.313448 
L 214.65553 294.86831 
L 214.788069 294.937447 
L 214.854338 294.708523 
L 214.920608 294.90972 
L 214.986877 294.871939 
L 215.119417 294.498959 
L 215.185686 294.55077 
L 215.251956 294.84238 
L 215.384495 294.37945 
L 215.517034 294.495429 
L 215.583303 294.390623 
L 215.914651 294.939965 
L 216.11346 294.889018 
L 216.444808 295.095415 
L 216.577347 294.901038 
L 216.643616 295.040426 
L 216.709886 294.895015 
L 216.776155 294.934084 
L 216.908695 295.136272 
L 216.974964 294.838774 
L 217.041234 294.860047 
L 217.107503 295.032043 
L 217.240042 294.898092 
L 217.438851 294.860587 
L 217.505121 294.354614 
L 217.63766 294.89558 
L 217.703929 294.545802 
L 217.770199 294.655324 
L 217.902738 294.988684 
L 217.969007 294.866074 
L 218.035277 294.964479 
L 218.101547 294.898157 
L 218.300355 295.16421 
L 218.366625 295.042052 
L 218.432894 295.112067 
L 218.499164 295.276105 
L 218.565433 295.2128 
L 218.764242 295.218972 
L 218.963051 294.791444 
L 219.09559 294.878843 
L 219.161859 295.148262 
L 219.228129 295.012552 
L 219.360668 295.135475 
L 219.559477 294.957699 
L 219.625746 294.847535 
L 219.758285 295.174404 
L 219.890824 294.982364 
L 219.957094 295.100904 
L 220.023364 295.029099 
L 220.155903 295.326487 
L 220.222172 295.215864 
L 220.420981 295.084205 
L 220.752329 295.128727 
L 221.282485 294.546179 
L 221.348755 294.417624 
L 221.547563 294.982864 
L 221.613833 294.818401 
L 221.680102 295.188249 
L 221.746372 295.15475 
L 222.01145 295.226829 
L 222.143989 295.092795 
L 222.210259 295.151918 
L 222.342798 294.870268 
L 222.475337 295.046453 
L 222.674146 294.887341 
L 222.740415 295.010079 
L 223.071763 295.349089 
L 223.270572 295.104771 
L 223.403111 294.865809 
L 223.46938 295.088792 
L 223.53565 294.958221 
L 223.60192 294.858261 
L 223.668189 294.916375 
L 223.734459 294.935891 
L 223.800728 295.094009 
L 223.866998 294.838959 
L 224.065806 295.103488 
L 224.264615 295.048878 
L 224.397154 295.12201 
L 224.529693 295.220806 
L 224.861041 295.180366 
L 224.927311 295.054075 
L 224.99358 295.12131 
L 225.192389 295.029699 
L 225.258658 294.746511 
L 225.324928 294.901031 
L 225.391197 295.299272 
L 225.457467 295.28221 
L 225.656276 295.283748 
L 225.921354 295.338628 
L 226.120163 295.402734 
L 226.385241 295.302103 
L 226.45151 295.191419 
L 226.51778 295.325143 
L 226.584049 295.210198 
L 226.716589 295.072885 
L 226.849128 295.21492 
L 227.379284 295.247988 
L 227.578093 295.188123 
L 227.909441 295.295305 
L 227.97571 295.21333 
L 228.108249 295.299425 
L 228.240788 295.265378 
L 228.439597 295.139387 
L 228.638406 295.28239 
L 228.903484 295.320678 
L 229.036023 295.101318 
L 229.102292 295.2072 
L 229.168562 295.338603 
L 229.234832 295.251918 
L 229.43364 295.210078 
L 229.49991 295.151672 
L 229.698718 295.440391 
L 229.764988 295.325122 
L 229.831258 295.374757 
L 229.963797 295.372747 
L 230.030066 295.104764 
L 230.096336 295.248993 
L 230.295144 295.305569 
L 230.560223 295.159705 
L 230.626492 295.345525 
L 230.692762 295.204648 
L 230.759031 295.159292 
L 230.95784 295.298907 
L 231.487996 295.296149 
L 231.554266 295.186735 
L 231.620536 295.266168 
L 232.084422 295.371956 
L 232.349501 295.394498 
L 232.747118 295.323386 
L 233.012196 295.387311 
L 233.144735 295.279546 
L 233.343544 295.308331 
L 233.409814 295.282059 
L 233.476083 295.104203 
L 233.674892 295.32363 
L 233.93997 295.350997 
L 234.403857 295.307651 
L 234.470126 295.32254 
L 234.536396 295.158481 
L 234.602665 295.262694 
L 234.867744 295.075372 
L 235.000283 295.034594 
L 235.132822 295.151353 
L 235.199091 295.141293 
L 235.331631 294.917485 
L 235.3979 295.142397 
L 235.46417 295.068834 
L 235.596709 294.997218 
L 235.662978 294.93536 
L 235.729248 295.01351 
L 236.126865 295.140975 
L 236.193135 295.272904 
L 236.325674 295.029154 
L 236.524483 295.243478 
L 236.657022 295.16832 
L 236.723291 295.047733 
L 236.789561 295.360082 
L 236.85583 295.309585 
L 236.988369 295.301568 
L 237.054639 295.224176 
L 237.120909 295.343915 
L 237.187178 295.286433 
L 237.518526 295.438733 
L 237.584795 295.448572 
L 237.783604 295.306833 
L 237.982413 295.384606 
L 239.241534 295.228958 
L 239.307804 295.151161 
L 239.440343 295.216385 
L 239.572882 295.210443 
L 239.705421 295.006467 
L 239.771691 295.352445 
L 239.83796 295.333284 
L 240.036769 295.394808 
L 240.169308 295.328878 
L 240.235578 295.443729 
L 240.301847 295.338511 
L 240.368117 295.396193 
L 240.434386 295.283305 
L 240.500656 295.38217 
L 240.699464 295.306341 
L 241.163351 295.169049 
L 241.29589 295.087392 
L 241.36216 295.002422 
L 241.494699 295.144726 
L 241.627238 294.955065 
L 241.759777 295.15508 
L 241.826047 295.195351 
L 241.958586 295.044551 
L 242.024856 295.083198 
L 242.091125 294.869636 
L 242.157395 295.012577 
L 242.289934 294.819658 
L 242.356203 294.906786 
L 242.488742 295.247136 
L 242.687551 295.169372 
L 243.085168 295.069129 
L 243.681594 295.130134 
L 243.747864 295.254984 
L 243.814133 295.210308 
L 243.946673 295.169095 
L 244.211751 294.891087 
L 244.27802 294.895855 
L 244.476829 294.626038 
L 244.675638 294.875322 
L 244.808177 294.68406 
L 244.874446 294.918249 
L 244.940716 294.823554 
L 245.073255 294.7085 
L 245.139525 294.864997 
L 245.272064 294.61535 
L 245.603411 294.773394 
L 245.669681 295.120289 
L 245.735951 294.922967 
L 245.80222 294.80705 
L 245.86849 294.863741 
L 246.332377 295.394154 
L 246.531185 295.035366 
L 246.597455 295.13212 
L 246.729994 294.837131 
L 246.796263 294.885498 
L 246.995072 294.41187 
L 247.061342 294.644506 
L 247.193881 294.28902 
L 247.392689 294.812875 
L 247.458959 294.655089 
L 247.525229 294.197322 
L 247.591498 294.427873 
L 247.724037 294.746245 
L 248.055385 294.516615 
L 248.187924 295.092591 
L 248.386733 294.985782 
L 248.85062 295.298645 
L 248.916889 295.125146 
L 248.983159 295.236652 
L 249.314506 295.103736 
L 249.447046 294.78141 
L 249.513315 294.927886 
L 249.579585 295.164334 
L 249.645854 295.019806 
L 249.712124 294.958979 
L 249.910932 295.13639 
L 250.109741 295.243162 
L 250.639898 294.659196 
L 250.706167 294.725018 
L 250.838706 294.836773 
L 250.971245 294.643927 
L 251.103784 295.093734 
L 251.170054 295.077827 
L 251.302593 295.2012 
L 251.435132 295.182877 
L 251.70021 295.408293 
L 251.83275 295.365881 
L 251.965289 295.3791 
L 252.296636 295.180701 
L 252.561715 295.163183 
L 252.694254 295.137694 
L 252.893062 295.225708 
L 253.025602 295.349521 
L 253.091871 295.241577 
L 253.158141 295.299067 
L 254.085914 295.464633 
L 254.152184 295.319204 
L 254.218453 295.410521 
L 254.947419 295.308911 
L 255.013688 295.430234 
L 255.212497 295.136862 
L 255.345036 295.241815 
L 255.676384 294.905749 
L 255.742653 295.180649 
L 255.808923 295.155384 
L 255.941462 295.133899 
L 256.537888 295.047794 
L 256.802966 295.375096 
L 257.001775 295.365717 
L 257.068044 295.479444 
L 257.134314 295.397737 
L 257.465662 295.428699 
L 257.73074 295.27986 
L 257.929549 295.296896 
L 257.995818 295.146899 
L 258.062088 295.227961 
L 258.260896 295.350611 
L 258.525975 295.430912 
L 258.658514 295.307822 
L 258.724783 295.369645 
L 259.18867 295.336349 
L 259.25494 295.438472 
L 259.321209 295.276368 
L 259.387479 295.343722 
L 259.453748 295.345864 
L 259.652557 295.053302 
L 259.785096 294.891105 
L 259.983905 295.203265 
L 260.116444 295.085947 
L 260.248983 295.298114 
L 260.315252 295.256121 
L 260.6466 295.375467 
L 261.243026 295.095823 
L 261.309296 295.40147 
L 261.375565 295.256003 
L 261.441835 295.15719 
L 261.640644 295.302998 
L 261.706913 295.176202 
L 261.905722 295.467449 
L 262.038261 295.234225 
L 262.10453 295.298333 
L 262.833496 295.252896 
L 262.966035 295.187492 
L 263.098574 295.175589 
L 263.164843 295.188778 
L 263.297382 295.106957 
L 263.496191 295.23834 
L 264.092617 295.273662 
L 264.225156 295.171428 
L 264.291426 295.268381 
L 264.357695 295.168313 
L 264.423965 295.282192 
L 264.490234 295.224357 
L 264.622773 295.248383 
L 264.755313 295.07984 
L 264.821582 295.205161 
L 264.954121 294.997685 
L 265.020391 295.136439 
L 265.08666 295.037024 
L 265.219199 295.051787 
L 265.351739 295.116935 
L 265.948165 295.347054 
L 266.279512 295.091478 
L 266.478321 294.780031 
L 266.67713 295.047726 
L 266.942208 294.79961 
L 267.074747 294.993262 
L 267.406095 294.939768 
L 267.472364 295.079628 
L 267.538634 295.017006 
L 267.604903 294.929401 
L 267.803712 295.209181 
L 267.869982 295.093446 
L 268.06879 295.315306 
L 268.201329 295.245369 
L 268.466408 295.296316 
L 268.731486 295.031607 
L 268.797755 295.100746 
L 268.864025 295.331492 
L 268.930294 295.095048 
L 268.996564 295.197991 
L 269.129103 295.075024 
L 269.327912 295.24019 
L 269.52672 295.067466 
L 269.59299 295.034362 
L 269.65926 295.197499 
L 269.725529 295.10075 
L 269.791799 295.04227 
L 269.858068 295.239317 
L 269.924338 295.19488 
L 270.189416 294.712714 
L 270.255686 294.934933 
L 270.388225 294.720963 
L 270.587033 294.456573 
L 270.785842 295.106907 
L 270.984651 294.932498 
L 271.05092 295.146073 
L 271.11719 295.035304 
L 271.183459 295.012908 
L 271.382268 295.329311 
L 271.846155 295.065697 
L 271.978694 295.175854 
L 272.044964 294.90942 
L 272.111233 295.075633 
L 272.243772 294.956281 
L 272.50885 295.316351 
L 272.57512 295.249755 
L 272.707659 295.241595 
L 272.840198 295.345955 
L 273.171546 295.244031 
L 273.237816 295.137095 
L 273.304085 295.215459 
L 273.502894 295.257811 
L 273.900511 295.300678 
L 274.894554 294.862639 
L 274.960824 294.950315 
L 275.027093 294.799971 
L 275.093363 294.863262 
L 275.225902 294.910904 
L 275.292172 294.833351 
L 275.358441 295.032789 
L 275.424711 294.994368 
L 275.623519 295.049314 
L 275.689789 294.999605 
L 275.888598 295.332128 
L 276.153676 294.951614 
L 276.219945 295.039775 
L 276.286215 294.965563 
L 276.418754 294.811202 
L 276.485024 294.623985 
L 276.617563 294.840119 
L 276.816371 294.888223 
L 276.882641 294.661213 
L 277.08145 295.049116 
L 277.280258 294.839976 
L 277.545337 295.041293 
L 277.744145 294.975049 
L 277.810415 295.164446 
L 277.876684 295.102334 
L 278.274302 294.923997 
L 278.406841 295.101365 
L 278.605649 295.04441 
L 278.738188 295.291859 
L 278.804458 295.217276 
L 278.936997 295.193852 
L 279.069536 295.151458 
L 279.268345 295.000606 
L 279.334614 295.099855 
L 279.400884 295.023227 
L 280.262388 295.180484 
L 280.394927 294.772114 
L 280.527466 294.759047 
L 280.660006 294.767664 
L 280.858814 295.147162 
L 281.057623 295.03225 
L 281.123892 295.059854 
L 281.322701 294.620681 
L 281.388971 294.776354 
L 281.52151 295.125947 
L 281.654049 294.616796 
L 281.720318 294.639827 
L 281.852858 294.682877 
L 281.919127 294.815479 
L 281.985397 294.749344 
L 282.051666 294.722897 
L 282.117936 294.527968 
L 282.316744 294.792766 
L 282.449284 294.74579 
L 282.648092 294.36288 
L 282.714362 295.057593 
L 282.780631 294.83023 
L 282.846901 295.034942 
L 282.91317 294.950309 
L 283.111979 295.031437 
L 283.244518 295.279473 
L 283.443327 295.117973 
L 283.642136 295.37919 
L 283.708405 295.286564 
L 283.774675 295.435678 
L 283.840944 295.395202 
L 283.907214 295.363037 
L 283.973483 295.156145 
L 284.039753 295.213732 
L 284.106022 295.177801 
L 284.172292 294.938559 
L 284.238561 295.064876 
L 284.304831 294.981189 
L 284.43737 295.14064 
L 284.50364 295.068294 
L 284.636179 295.296437 
L 284.768718 295.297208 
L 284.834987 295.374732 
L 285.033796 295.186719 
L 285.166335 295.174204 
L 285.563953 294.546121 
L 285.630222 294.722895 
L 285.696492 294.66727 
L 285.8953 294.058428 
L 286.027839 294.689945 
L 286.160379 294.247825 
L 286.292918 294.761776 
L 286.359187 294.186094 
L 286.425457 294.252485 
L 286.557996 294.329264 
L 286.823074 294.804582 
L 286.889344 294.653166 
L 287.021883 294.884542 
L 287.286961 294.586554 
L 287.552039 295.073235 
L 287.684578 294.969251 
L 287.750848 295.048307 
L 287.817117 294.884366 
L 287.883387 295.017629 
L 287.949657 294.971579 
L 288.015926 294.763318 
L 288.082196 294.958983 
L 288.214735 294.737737 
L 288.281004 294.826539 
L 288.413543 294.278021 
L 288.479813 294.323239 
L 288.546083 294.459899 
L 288.612352 294.195389 
L 288.678622 294.291658 
L 288.87743 294.518612 
L 289.009969 294.563814 
L 289.076239 294.391266 
L 289.142508 294.428801 
L 289.208778 294.511463 
L 289.407587 295.007387 
L 289.473856 294.609505 
L 289.540126 294.715919 
L 289.738934 295.037356 
L 289.937743 295.094601 
L 290.070282 295.327661 
L 290.202821 294.967625 
L 290.269091 294.993472 
L 290.4679 294.774595 
L 290.666708 294.82283 
L 290.732978 294.652983 
L 290.865517 294.866541 
L 290.931786 294.56138 
L 290.998056 294.616707 
L 291.130595 294.956519 
L 291.196865 294.854565 
L 291.528212 295.138918 
L 291.660752 295.151503 
L 291.727021 295.273392 
L 291.793291 295.182282 
L 291.85956 295.235377 
L 291.92583 295.070106 
L 291.992099 295.224488 
L 292.058369 295.180539 
L 292.389717 295.088906 
L 292.455986 295.015583 
L 292.588525 295.221697 
L 292.787334 294.938119 
L 292.853604 294.867988 
L 292.986143 295.025561 
L 293.052412 294.748066 
L 293.184951 294.975537 
L 293.38376 295.077182 
L 293.582569 295.452775 
L 293.648838 295.235258 
L 293.715108 295.277706 
L 294.046455 294.804842 
L 294.178995 294.985467 
L 294.311534 294.846154 
L 294.444073 294.784814 
L 294.510342 295.013683 
L 294.576612 294.85617 
L 294.642881 294.618487 
L 294.709151 294.779418 
L 295.040499 295.411578 
L 295.106768 295.326244 
L 295.239307 294.84085 
L 295.438116 295.338454 
L 295.504386 295.259159 
L 295.835733 294.753553 
L 295.902003 294.845631 
L 296.167081 295.10064 
L 296.36589 294.525182 
L 296.498429 295.060071 
L 296.763507 295.054521 
L 297.094855 294.542914 
L 297.161125 294.639678 
L 297.293664 295.015884 
L 297.691281 294.664694 
L 297.89009 294.864959 
L 298.088898 294.325924 
L 298.221437 294.929597 
L 298.287707 294.858239 
L 298.552785 294.536366 
L 298.619055 295.191608 
L 298.685324 294.764982 
L 298.751594 294.823029 
L 298.817863 294.74566 
L 298.884133 294.621073 
L 299.149211 295.420059 
L 299.215481 295.175604 
L 299.34802 294.923866 
L 299.546828 295.384879 
L 299.679368 295.260746 
L 299.944446 295.386868 
L 300.010715 294.967333 
L 300.076985 294.988973 
L 300.209524 295.090367 
L 300.408333 295.411765 
L 300.540872 295.284089 
L 300.607141 295.456421 
L 300.73968 295.335159 
L 301.004759 295.222321 
L 301.137298 294.647286 
L 301.203567 294.769886 
L 301.336106 294.618007 
L 301.534915 293.931106 
L 301.601185 294.047065 
L 301.667454 294.065217 
L 301.866263 294.86328 
L 301.932532 293.984205 
L 301.998802 294.404507 
L 302.197611 294.968138 
L 302.33015 295.146822 
L 302.396419 295.097202 
L 302.528958 295.268876 
L 302.661498 294.728337 
L 302.727767 294.793333 
L 302.860306 295.069555 
L 302.926576 295.02839 
L 302.992845 294.653279 
L 303.125384 295.054758 
L 303.257924 294.742536 
L 303.324193 294.841511 
L 303.456732 293.950483 
L 303.655541 295.127007 
L 303.854349 294.661692 
L 304.053158 295.444096 
L 304.251967 294.732393 
L 304.384506 293.346949 
L 304.450775 293.45128 
L 304.583315 294.863054 
L 304.715854 293.943292 
L 304.914662 294.488403 
L 305.047201 294.456266 
L 305.113471 294.919617 
L 305.31228 294.303194 
L 305.378549 294.296057 
L 305.776167 290.712797 
L 305.842436 291.246651 
L 305.908706 291.753666 
L 305.974975 290.208467 
L 306.107514 294.676145 
L 306.240053 293.076783 
L 306.306323 294.388438 
L 306.70394 264.338687 
L 306.77021 241.534707 
L 306.836479 242.352663 
L 306.902749 248.057714 
L 307.101558 275.704196 
L 307.167827 216.295052 
L 307.234097 243.271401 
L 307.366636 269.076111 
L 307.432905 270.874221 
L 307.631714 280.43348 
L 307.697984 276.306225 
L 307.896792 290.010089 
L 307.963062 289.948438 
L 308.029331 286.83572 
L 308.22814 291.556873 
L 308.360679 291.056722 
L 308.426949 291.935697 
L 308.493218 291.834636 
L 308.559488 291.740264 
L 308.625757 292.494192 
L 308.692027 291.806638 
L 308.758296 291.921417 
L 308.890836 292.978341 
L 309.023375 290.564083 
L 309.089644 291.431773 
L 309.222183 292.402134 
L 309.288453 292.435547 
L 309.354722 293.768737 
L 309.420992 293.739644 
L 309.487262 293.785487 
L 309.553531 293.438745 
L 309.68607 294.069926 
L 309.818609 292.908583 
L 309.884879 292.867831 
L 309.951148 293.229845 
L 310.017418 292.74049 
L 310.083688 293.064204 
L 310.348766 294.464125 
L 310.481305 294.076147 
L 310.613844 294.753249 
L 310.680114 294.75212 
L 310.812653 294.43931 
L 310.878922 294.862717 
L 311.077731 293.47709 
L 311.21027 293.55666 
L 311.27654 294.155835 
L 311.342809 293.882084 
L 311.475348 293.671574 
L 311.674157 294.819115 
L 311.806696 294.392737 
L 311.939235 294.744501 
L 312.336852 294.119907 
L 312.403122 294.289461 
L 312.469392 294.071168 
L 312.535661 294.180256 
L 312.601931 294.128804 
L 312.6682 294.355538 
L 312.73447 294.194082 
L 312.999548 294.497104 
L 313.065818 294.726866 
L 313.132087 294.673153 
L 313.198357 294.768162 
L 313.264626 294.413471 
L 313.330896 294.493799 
L 313.662244 295.054641 
L 313.794783 294.794058 
L 313.861052 294.874043 
L 313.927322 294.944215 
L 313.993591 295.296537 
L 314.059861 295.274283 
L 314.1924 295.030286 
L 314.324939 294.76788 
L 314.457478 294.93649 
L 314.590017 294.743806 
L 314.656287 294.590124 
L 314.722556 294.782026 
L 314.788826 294.588026 
L 314.921365 295.084422 
L 314.987635 295.015111 
L 315.252713 295.216945 
L 315.451521 294.831391 
L 315.7166 295.101554 
L 315.915408 295.071466 
L 316.180487 294.722616 
L 316.246756 294.764281 
L 316.379295 294.407677 
L 316.578104 294.585114 
L 316.644373 294.408811 
L 316.710643 294.507154 
L 316.776913 294.37869 
L 317.041991 294.815356 
L 317.17453 294.920023 
L 317.373339 294.919938 
L 317.505878 294.978531 
L 317.704686 294.332316 
L 317.969765 294.75845 
L 318.036034 294.731584 
L 318.102304 294.329085 
L 318.168573 294.54878 
L 318.301112 294.790642 
L 318.367382 294.618519 
L 318.433651 294.829336 
L 318.499921 294.594081 
L 318.566191 294.640166 
L 318.764999 294.971893 
L 318.831269 295.062226 
L 318.897538 294.968257 
L 318.963808 294.979778 
L 319.030077 294.827596 
L 319.096347 294.934203 
L 319.162616 294.871991 
L 319.361425 295.111581 
L 319.427695 294.975958 
L 319.493964 295.011656 
L 319.626503 295.350375 
L 319.759042 295.237414 
L 319.825312 295.381004 
L 319.891582 295.298295 
L 320.15666 295.034307 
L 320.289199 294.860546 
L 320.355468 295.004048 
L 320.421738 294.953145 
L 320.488008 294.830907 
L 320.554277 294.938372 
L 320.819355 294.981925 
L 320.885625 294.948673 
L 321.084434 295.416957 
L 321.283242 295.293242 
L 321.482051 295.171157 
L 321.61459 294.949939 
L 321.879668 295.205153 
L 322.012207 295.103882 
L 322.144746 294.926075 
L 322.542364 295.374362 
L 322.674903 295.156578 
L 322.807442 295.259396 
L 322.873712 295.248223 
L 323.07252 294.947786 
L 323.337598 295.171837 
L 323.536407 295.237315 
L 323.735216 295.395541 
L 323.867755 295.133381 
L 323.934024 295.191222 
L 324.265372 295.401674 
L 324.397911 295.431018 
L 324.53045 295.235487 
L 324.59672 295.350248 
L 324.795529 295.280034 
L 325.325685 295.112389 
L 325.524494 295.36764 
L 325.723302 295.400634 
L 325.922111 295.447063 
L 326.05465 295.380143 
L 326.385998 295.119094 
L 326.651076 295.242868 
L 326.849885 295.066187 
L 326.916154 295.19925 
L 327.048693 294.843431 
L 327.313772 295.390748 
L 327.380041 295.406901 
L 327.446311 295.251866 
L 327.51258 295.322049 
L 327.711389 295.360225 
L 328.705432 295.2684 
L 328.837971 295.166972 
L 328.97051 295.250296 
L 329.10305 294.950856 
L 329.301858 295.356535 
L 329.500667 295.203401 
L 329.633206 295.309136 
L 329.832015 295.129929 
L 330.030823 295.454693 
L 330.229632 295.43225 
L 330.826058 295.179073 
L 331.091136 295.344697 
L 331.356214 295.311679 
L 331.555023 295.484745 
L 331.687562 295.261096 
L 332.217719 295.315989 
L 332.283988 295.408384 
L 332.350258 295.347202 
L 332.482797 295.449049 
L 332.681606 295.344167 
L 332.880414 295.253862 
L 332.946684 295.292005 
L 333.145492 295.087475 
L 333.344301 295.251469 
L 333.47684 295.286866 
L 333.675649 295.223564 
L 334.338344 295.42421 
L 334.470883 295.397037 
L 334.603423 295.374456 
L 335.199849 295.229726 
L 335.332388 295.205946 
L 335.464927 295.275246 
L 335.663735 295.418609 
L 335.862544 295.431733 
L 336.260161 295.438092 
L 336.45897 295.40325 
L 336.989127 295.236923 
L 337.121666 295.251332 
L 337.187935 295.174151 
L 337.386744 295.332712 
L 338.778404 295.441181 
L 338.910944 295.408992 
L 339.043483 295.353855 
L 339.176022 295.311347 
L 339.308561 295.212508 
L 339.4411 295.303605 
L 339.639909 295.249658 
L 339.706178 295.258744 
L 339.838717 295.372924 
L 340.170065 295.372667 
L 340.236335 295.206282 
L 340.302604 295.234363 
L 340.501413 295.27917 
L 340.766491 295.184847 
L 340.89903 295.384998 
L 341.164108 295.267435 
L 341.296648 295.436361 
L 341.561726 295.206159 
L 341.627995 295.382635 
L 341.694265 295.300552 
L 341.826804 295.278983 
L 341.959343 295.352239 
L 342.158152 295.24176 
L 342.290691 295.387732 
L 342.42323 295.327589 
L 342.688308 295.274152 
L 342.820847 295.189324 
L 342.887117 295.221885 
L 342.953386 295.114823 
L 343.085926 295.25538 
L 343.351004 295.208385 
L 343.549812 295.387216 
L 343.682352 295.190128 
L 344.013699 295.302352 
L 344.146238 295.314479 
L 344.278777 295.353966 
L 344.543856 295.363366 
L 344.742664 295.296213 
L 345.604169 295.111503 
L 345.802977 295.317387 
L 346.200595 295.151708 
L 346.86329 295.360632 
L 347.857333 295.260446 
L 347.989873 295.467041 
L 348.056142 295.422973 
L 348.851377 295.1655 
L 348.917646 295.269577 
L 348.983916 295.182571 
L 349.248994 295.276576 
L 349.381533 295.128613 
L 349.84542 295.437741 
L 349.977959 295.243124 
L 350.110498 295.420729 
L 350.176768 295.322198 
L 350.574385 295.2331 
L 350.839463 295.252166 
L 351.038272 295.410751 
L 351.237081 295.360692 
L 351.30335 295.280323 
L 351.36962 295.339543 
L 351.435889 295.346105 
L 351.502159 295.240006 
L 351.568428 295.290088 
L 351.833507 295.325285 
L 351.966046 295.367709 
L 352.429933 295.396875 
L 353.357706 295.290666 
L 353.423976 295.399691 
L 353.490246 295.332213 
L 353.622785 295.165419 
L 353.689054 295.288354 
L 353.821593 295.25005 
L 353.887863 295.182633 
L 354.086671 295.371879 
L 354.35175 295.402261 
L 354.484289 295.449264 
L 354.749367 295.358471 
L 355.279523 295.454543 
L 355.942219 295.261756 
L 356.141028 295.367646 
L 356.671184 295.270846 
L 356.869993 295.1391 
L 357.33388 295.225166 
L 357.665227 295.034905 
L 357.797767 295.187731 
L 357.864036 295.131979 
L 358.062845 295.243825 
L 358.394193 295.371689 
L 358.460462 295.264454 
L 358.526732 295.356547 
L 358.659271 295.380246 
L 358.924349 295.15462 
L 359.321966 295.231726 
L 359.719584 295.251912 
L 359.918392 295.227728 
L 359.984662 295.132594 
L 360.050931 295.196499 
L 360.581088 295.310085 
L 361.111244 295.426254 
L 361.243783 295.320225 
L 361.310053 295.361932 
L 361.442592 295.261427 
L 361.508862 295.366557 
L 361.575131 295.270581 
L 361.70767 295.255305 
L 361.906479 295.359744 
L 362.105288 295.379409 
L 362.304096 295.196242 
L 362.834253 295.333286 
L 363.033061 295.226155 
L 363.496948 295.413285 
L 363.828296 295.315862 
L 364.424722 295.255665 
L 365.021148 295.417486 
L 365.153687 295.420999 
L 365.683843 295.385729 
L 366.081461 295.429664 
L 366.280269 295.402624 
L 366.479078 295.41467 
L 366.611617 295.327558 
L 366.744156 295.384535 
L 367.009235 295.318092 
L 367.141774 295.200583 
L 367.274313 295.247302 
L 367.539391 295.429283 
L 367.67193 295.331996 
L 367.937008 295.450842 
L 368.135817 295.327725 
L 368.334626 295.220679 
L 368.400895 295.333148 
L 368.467165 295.217109 
L 368.599704 295.332623 
L 369.12986 295.425293 
L 369.19613 295.328157 
L 369.262399 295.399776 
L 369.461208 295.430836 
L 369.593747 295.378339 
L 369.660017 295.430729 
L 369.792556 295.354141 
L 369.925095 295.397066 
L 370.123904 295.353453 
L 370.322712 295.399702 
L 374.232616 295.322208 
L 374.365155 295.243128 
L 374.895311 295.421007 
L 375.09412 295.377128 
L 375.292929 295.40253 
L 375.756816 295.337492 
L 375.889355 295.379198 
L 376.883398 295.227998 
L 377.082207 295.378783 
L 377.281015 295.366656 
L 377.546094 295.426939 
L 378.275059 295.414702 
L 378.407598 295.408152 
L 378.805215 295.29246 
L 379.004024 295.354919 
L 379.53418 295.341187 
L 379.60045 295.455933 
L 379.666719 295.411607 
L 379.799258 295.426286 
L 379.931798 295.395817 
L 381.389728 295.324747 
L 381.919884 295.421774 
L 382.184962 295.376333 
L 382.383771 295.45875 
L 382.450041 295.441921 
L 382.51631 295.305175 
L 382.58258 295.370263 
L 382.715119 295.404262 
L 382.980197 295.308666 
L 383.179006 295.231876 
L 383.377814 295.308423 
L 383.510354 295.264935 
L 383.576623 295.376529 
L 383.642893 295.325013 
L 383.841701 295.392381 
L 385.299631 295.265298 
L 385.49844 295.328427 
L 385.697249 295.331938 
L 385.896057 295.260886 
L 386.028597 295.313169 
L 386.359944 295.156665 
L 386.492483 295.323359 
L 386.890101 295.244081 
L 387.088909 295.362444 
L 387.221449 295.330389 
L 387.353988 295.285043 
L 387.420257 295.416864 
L 387.486527 295.370286 
L 387.685335 295.356758 
L 387.817875 295.331222 
L 388.149222 295.375643 
L 388.281761 295.415564 
L 388.414301 295.342616 
L 388.811918 295.320401 
L 389.076996 295.349149 
L 389.209535 295.433447 
L 389.408344 295.357838 
L 389.540883 295.335834 
L 389.739692 295.207548 
L 391.065083 295.361462 
L 391.330161 295.238268 
L 391.595239 295.464536 
L 391.860317 295.440676 
L 392.059126 295.441503 
L 392.390474 295.428443 
L 392.721822 295.428096 
L 392.92063 295.390974 
L 393.119439 295.410086 
L 393.384517 295.376654 
L 393.583326 295.41282 
L 394.246021 295.35229 
L 394.37856 295.428298 
L 395.041256 295.344618 
L 395.173795 295.171854 
L 395.240065 295.228453 
L 395.372604 295.223664 
L 395.637682 295.235283 
L 396.830534 295.446699 
L 397.029343 295.352726 
L 397.161882 295.394586 
L 398.487273 295.314655 
L 398.487273 295.314655 
" clip-path="url(#pa28e56e2a7)" style="fill: none; stroke: #1f77b4; stroke-width: 1.5; stroke-linecap: square"/>
   </g>
   <g id="patch_3">
    <path d="M 57.6 307.584 
L 57.6 41.472 
" style="fill: none; stroke: #000000; stroke-width: 0.8; stroke-linejoin: miter; stroke-linecap: square"/>
   </g>
   <g id="patch_4">
    <path d="M 414.72 307.584 
L 414.72 41.472 
" style="fill: none; stroke: #000000; stroke-width: 0.8; stroke-linejoin: miter; stroke-linecap: square"/>
   </g>
   <g id="patch_5">
    <path d="M 57.6 307.584 
L 414.72 307.584 
" style="fill: none; stroke: #000000; stroke-width: 0.8; stroke-linejoin: miter; stroke-linecap: square"/>
   </g>
   <g id="patch_6">
    <path d="M 57.6 41.472 
L 414.72 41.472 
" style="fill: none; stroke: #000000; stroke-width: 0.8; stroke-linejoin: miter; stroke-linecap: square"/>
   </g>
   <g id="text_17">
    <text style="font: 12px 'IPAexGothic'; text-anchor: middle" x="236.16" y="35.472" transform="rotate(-0 236.16 35.472)">"007_A6.wav"の振幅スペクトル</text>
   </g>
  </g>
 </g>
 <defs>
  <clipPath id="pa28e56e2a7">
   <rect x="57.6" y="41.472" width="357.12" height="266.112"/>
  </clipPath>
 </defs>
</svg>
