<?xml version="1.0" encoding="utf-8" standalone="no"?>
<!DOCTYPE svg PUBLIC "-//W3C//DTD SVG 1.1//EN"
  "http://www.w3.org/Graphics/SVG/1.1/DTD/svg11.dtd">
<svg xmlns:xlink="http://www.w3.org/1999/xlink" width="460.8pt" height="345.6pt" viewBox="0 0 460.8 345.6" xmlns="http://www.w3.org/2000/svg" version="1.1">
 <metadata>
  <rdf:RDF xmlns:dc="http://purl.org/dc/elements/1.1/" xmlns:cc="http://creativecommons.org/ns#" xmlns:rdf="http://www.w3.org/1999/02/22-rdf-syntax-ns#">
   <cc:Work>
    <dc:type rdf:resource="http://purl.org/dc/dcmitype/StillImage"/>
    <dc:date>2022-11-28T11:30:57.402800</dc:date>
    <dc:format>image/svg+xml</dc:format>
    <dc:creator>
     <cc:Agent>
      <dc:title>Matplotlib v3.6.2, https://matplotlib.org/</dc:title>
     </cc:Agent>
    </dc:creator>
   </cc:Work>
  </rdf:RDF>
 </metadata>
 <defs>
  <style type="text/css">*{stroke-linejoin: round; stroke-linecap: butt}</style>
 </defs>
 <g id="figure_1">
  <g id="patch_1">
   <path d="M 0 345.6 
L 460.8 345.6 
L 460.8 0 
L 0 0 
z
" style="fill: #ffffff"/>
  </g>
  <g id="axes_1">
   <g id="patch_2">
    <path d="M 57.6 307.584 
L 414.72 307.584 
L 414.72 41.472 
L 57.6 41.472 
z
" style="fill: #ffffff"/>
   </g>
   <g id="matplotlib.axis_1">
    <g id="xtick_1">
     <g id="line2d_1">
      <defs>
       <path id="mb8705e9bbb" d="M 0 0 
L 0 3.5 
" style="stroke: #000000; stroke-width: 0.8"/>
      </defs>
      <g>
       <use xlink:href="#mb8705e9bbb" x="73.832727" y="307.584" style="stroke: #000000; stroke-width: 0.8"/>
      </g>
     </g>
     <g id="text_1">
      <text style="font: 10px 'IPAexGothic'; text-anchor: middle" x="73.832727" y="322.074625" transform="rotate(-0 73.832727 322.074625)">0</text>
     </g>
    </g>
    <g id="xtick_2">
     <g id="line2d_2">
      <g>
       <use xlink:href="#mb8705e9bbb" x="140.102281" y="307.584" style="stroke: #000000; stroke-width: 0.8"/>
      </g>
     </g>
     <g id="text_2">
      <text style="font: 10px 'IPAexGothic'; text-anchor: middle" x="140.102281" y="322.074625" transform="rotate(-0 140.102281 322.074625)">1000</text>
     </g>
    </g>
    <g id="xtick_3">
     <g id="line2d_3">
      <g>
       <use xlink:href="#mb8705e9bbb" x="206.371835" y="307.584" style="stroke: #000000; stroke-width: 0.8"/>
      </g>
     </g>
     <g id="text_3">
      <text style="font: 10px 'IPAexGothic'; text-anchor: middle" x="206.371835" y="322.074625" transform="rotate(-0 206.371835 322.074625)">2000</text>
     </g>
    </g>
    <g id="xtick_4">
     <g id="line2d_4">
      <g>
       <use xlink:href="#mb8705e9bbb" x="272.64139" y="307.584" style="stroke: #000000; stroke-width: 0.8"/>
      </g>
     </g>
     <g id="text_4">
      <text style="font: 10px 'IPAexGothic'; text-anchor: middle" x="272.64139" y="322.074625" transform="rotate(-0 272.64139 322.074625)">3000</text>
     </g>
    </g>
    <g id="xtick_5">
     <g id="line2d_5">
      <g>
       <use xlink:href="#mb8705e9bbb" x="338.910944" y="307.584" style="stroke: #000000; stroke-width: 0.8"/>
      </g>
     </g>
     <g id="text_5">
      <text style="font: 10px 'IPAexGothic'; text-anchor: middle" x="338.910944" y="322.074625" transform="rotate(-0 338.910944 322.074625)">4000</text>
     </g>
    </g>
    <g id="xtick_6">
     <g id="line2d_6">
      <g>
       <use xlink:href="#mb8705e9bbb" x="405.180498" y="307.584" style="stroke: #000000; stroke-width: 0.8"/>
      </g>
     </g>
     <g id="text_6">
      <text style="font: 10px 'IPAexGothic'; text-anchor: middle" x="405.180498" y="322.074625" transform="rotate(-0 405.180498 322.074625)">5000</text>
     </g>
    </g>
    <g id="text_7">
     <text style="font: 10px 'IPAexGothic'; text-anchor: middle" x="236.16" y="335.924625" transform="rotate(-0 236.16 335.924625)">周波数[Hz]</text>
    </g>
   </g>
   <g id="matplotlib.axis_2">
    <g id="ytick_1">
     <g id="line2d_7">
      <defs>
       <path id="m76d79e925f" d="M 0 0 
L -3.5 0 
" style="stroke: #000000; stroke-width: 0.8"/>
      </defs>
      <g>
       <use xlink:href="#m76d79e925f" x="57.6" y="295.494491" style="stroke: #000000; stroke-width: 0.8"/>
      </g>
     </g>
     <g id="text_8">
      <text style="font: 10px 'IPAexGothic'; text-anchor: end" x="50.6" y="299.239804" transform="rotate(-0 50.6 299.239804)">0</text>
     </g>
    </g>
    <g id="ytick_2">
     <g id="line2d_8">
      <g>
       <use xlink:href="#m76d79e925f" x="57.6" y="245.391769" style="stroke: #000000; stroke-width: 0.8"/>
      </g>
     </g>
     <g id="text_9">
      <text style="font: 10px 'IPAexGothic'; text-anchor: end" x="50.6" y="249.137082" transform="rotate(-0 50.6 249.137082)">1</text>
     </g>
    </g>
    <g id="ytick_3">
     <g id="line2d_9">
      <g>
       <use xlink:href="#m76d79e925f" x="57.6" y="195.289047" style="stroke: #000000; stroke-width: 0.8"/>
      </g>
     </g>
     <g id="text_10">
      <text style="font: 10px 'IPAexGothic'; text-anchor: end" x="50.6" y="199.034359" transform="rotate(-0 50.6 199.034359)">2</text>
     </g>
    </g>
    <g id="ytick_4">
     <g id="line2d_10">
      <g>
       <use xlink:href="#m76d79e925f" x="57.6" y="145.186325" style="stroke: #000000; stroke-width: 0.8"/>
      </g>
     </g>
     <g id="text_11">
      <text style="font: 10px 'IPAexGothic'; text-anchor: end" x="50.6" y="148.931637" transform="rotate(-0 50.6 148.931637)">3</text>
     </g>
    </g>
    <g id="ytick_5">
     <g id="line2d_11">
      <g>
       <use xlink:href="#m76d79e925f" x="57.6" y="95.083602" style="stroke: #000000; stroke-width: 0.8"/>
      </g>
     </g>
     <g id="text_12">
      <text style="font: 10px 'IPAexGothic'; text-anchor: end" x="50.6" y="98.828915" transform="rotate(-0 50.6 98.828915)">4</text>
     </g>
    </g>
    <g id="ytick_6">
     <g id="line2d_12">
      <g>
       <use xlink:href="#m76d79e925f" x="57.6" y="44.98088" style="stroke: #000000; stroke-width: 0.8"/>
      </g>
     </g>
     <g id="text_13">
      <text style="font: 10px 'IPAexGothic'; text-anchor: end" x="50.6" y="48.726193" transform="rotate(-0 50.6 48.726193)">5</text>
     </g>
    </g>
    <g id="text_14">
     <text style="font: 10px 'IPAexGothic'; text-anchor: middle" x="38.401563" y="174.528" transform="rotate(-90 38.401563 174.528)">振幅</text>
    </g>
    <g id="text_15">
     <text style="font: 10px 'IPAexGothic'; text-anchor: start" x="57.6" y="38.472" transform="rotate(-0 57.6 38.472)">1e7</text>
    </g>
   </g>
   <g id="line2d_13">
    <path d="M 73.832727 294.487271 
L 73.898997 294.828411 
L 73.965266 292.996531 
L 74.031536 287.320024 
L 74.097805 290.034095 
L 74.164075 294.473553 
L 74.230345 290.114898 
L 74.296614 292.323959 
L 74.362884 291.091731 
L 74.429153 293.188285 
L 74.495423 291.954553 
L 74.561692 291.312811 
L 74.89304 294.965039 
L 74.95931 293.397797 
L 75.025579 294.454786 
L 75.091849 293.89306 
L 75.158118 294.552642 
L 75.356927 291.511579 
L 75.423197 291.693623 
L 75.622005 293.063172 
L 75.688275 293.838654 
L 75.820814 290.957337 
L 75.887083 290.468241 
L 76.019623 292.607357 
L 76.085892 292.197653 
L 76.218431 294.16572 
L 76.284701 293.541001 
L 76.549779 290.160449 
L 76.748588 294.502656 
L 76.814857 294.377842 
L 76.881127 294.820465 
L 77.079935 290.518903 
L 77.278744 294.445718 
L 77.411283 262.994354 
L 77.477553 53.568 
L 77.610092 290.349581 
L 77.676361 274.968034 
L 77.742631 285.271428 
L 77.94144 265.001169 
L 78.007709 266.414115 
L 78.073979 264.090365 
L 78.272787 274.510738 
L 78.537866 286.434199 
L 78.604135 286.448849 
L 78.935483 294.634207 
L 79.001752 294.417591 
L 79.200561 291.002687 
L 79.266831 291.529558 
L 79.39937 294.318586 
L 79.465639 293.726436 
L 79.531909 293.507193 
L 79.664448 292.799413 
L 79.863257 295.238514 
L 79.929526 294.523747 
L 79.995796 294.242688 
L 80.062065 294.417691 
L 80.128335 294.575088 
L 80.194604 295.36769 
L 80.260874 295.129532 
L 80.393413 294.891711 
L 80.525952 295.371666 
L 80.592222 295.139854 
L 80.79103 293.534356 
L 80.8573 293.443899 
L 80.92357 292.965107 
L 81.122378 294.50631 
L 81.321187 293.948598 
L 81.387456 293.953224 
L 81.519996 293.079554 
L 81.586265 293.598003 
L 81.652535 293.415522 
L 81.851343 293.916252 
L 81.917613 293.91259 
L 82.050152 293.446475 
L 82.31523 295.380402 
L 82.514039 294.784814 
L 82.580308 295.307267 
L 82.845387 293.386229 
L 82.911656 293.423286 
L 83.243004 295.115109 
L 83.375543 294.848945 
L 83.441813 294.796241 
L 83.574352 295.038957 
L 83.706891 294.429 
L 83.77316 294.31537 
L 83.83943 293.100971 
L 83.905699 293.259342 
L 84.038239 288.142509 
L 84.170778 294.211908 
L 84.237047 294.631005 
L 84.369586 293.339132 
L 84.435856 293.844113 
L 84.502125 293.414641 
L 84.568395 294.106026 
L 84.634665 294.055897 
L 84.700934 293.720851 
L 84.767204 293.755263 
L 85.231091 295.325958 
L 85.29736 295.03776 
L 85.36363 294.003607 
L 85.429899 294.066823 
L 85.628708 295.224147 
L 85.761247 294.702801 
L 86.225134 294.909436 
L 86.357673 295.341386 
L 86.490212 294.800767 
L 86.622751 294.851385 
L 87.219177 293.846646 
L 87.285447 293.960969 
L 87.683064 292.998202 
L 88.014412 294.436175 
L 88.080681 294.587324 
L 88.146951 294.474984 
L 88.213221 294.283139 
L 88.27949 294.31022 
L 88.34576 294.301242 
L 88.478299 294.905959 
L 88.677107 295.114669 
L 88.875916 293.687013 
L 88.942186 293.697287 
L 89.140994 294.98379 
L 89.339803 295.425653 
L 89.604881 295.082932 
L 90.068768 295.384712 
L 90.267577 294.73986 
L 90.466385 294.975002 
L 90.532655 294.983822 
L 90.731464 295.319902 
L 90.864003 294.752139 
L 90.930272 294.81904 
L 91.062811 294.962325 
L 91.19535 295.207744 
L 91.26162 295.327648 
L 91.32789 295.278282 
L 91.526698 294.919277 
L 91.592968 294.915993 
L 91.659237 295.215373 
L 91.725507 295.081664 
L 91.791776 294.867249 
L 92.056855 295.342838 
L 92.454472 294.506165 
L 92.587011 294.610886 
L 92.653281 294.810384 
L 92.71955 294.735455 
L 92.918359 294.248022 
L 92.984628 294.453646 
L 93.050898 294.845527 
L 93.117168 294.642874 
L 93.249707 294.990925 
L 93.448515 293.701008 
L 93.514785 288.370717 
L 93.581054 288.917873 
L 93.779863 293.349884 
L 93.846133 292.555189 
L 93.912402 293.0821 
L 93.978672 293.327731 
L 94.111211 294.519823 
L 94.17748 294.355424 
L 94.24375 294.477699 
L 94.442559 295.263704 
L 94.773906 294.331333 
L 95.171524 295.319322 
L 95.304063 294.680135 
L 95.370332 294.780746 
L 95.436602 294.702516 
L 95.502871 294.717475 
L 95.635411 295.334211 
L 95.70168 295.114493 
L 95.76795 295.197844 
L 95.966758 294.823021 
L 96.033028 294.413115 
L 96.099297 294.757626 
L 96.298106 294.360435 
L 96.430645 294.083364 
L 96.629454 294.830802 
L 96.894532 294.583511 
L 96.960802 294.707794 
L 97.027071 295.047303 
L 97.093341 295.018357 
L 97.22588 294.065639 
L 97.292149 294.651648 
L 97.358419 294.443089 
L 97.623497 295.222932 
L 97.756036 294.961424 
L 97.888575 295.281236 
L 98.219923 294.645668 
L 98.418732 295.20953 
L 98.485001 295.136219 
L 98.551271 295.227629 
L 98.61754 295.312472 
L 98.816349 294.993226 
L 98.882619 295.045571 
L 98.948888 295.210227 
L 99.015158 295.170162 
L 99.081427 295.027034 
L 99.147697 294.453309 
L 99.213966 295.449853 
L 99.280236 295.236596 
L 99.346506 295.291958 
L 99.479045 295.124933 
L 99.545314 295.156704 
L 99.611584 294.974057 
L 99.677853 295.294294 
L 99.744123 295.262189 
L 99.876662 294.929053 
L 99.942932 295.055776 
L 100.009201 295.177276 
L 100.075471 295.119395 
L 100.20801 294.935337 
L 100.340549 295.271406 
L 100.605627 294.449926 
L 100.936975 294.923652 
L 101.069514 294.989521 
L 101.202053 295.226619 
L 101.467131 294.702264 
L 102.394905 295.200932 
L 102.659983 294.987888 
L 103.057601 295.337422 
L 103.322679 295.204725 
L 103.654027 295.214107 
L 103.919105 295.360518 
L 104.184183 295.11807 
L 104.316722 295.119167 
L 104.5818 295.077176 
L 104.913148 295.449248 
L 104.979418 295.465587 
L 105.244496 294.890634 
L 105.774652 295.376763 
L 105.973461 295.239356 
L 106.106 295.122166 
L 106.238539 295.043637 
L 106.636157 295.016661 
L 106.834965 295.166311 
L 106.901235 295.100143 
L 106.967504 295.260529 
L 107.166313 294.694756 
L 107.232583 292.498708 
L 107.365122 295.288229 
L 107.6302 295.411487 
L 107.829009 295.09312 
L 108.094087 295.27522 
L 108.226626 295.25202 
L 108.557974 295.41271 
L 108.756782 295.38733 
L 108.823052 295.398611 
L 109.08813 294.88275 
L 109.1544 295.142381 
L 109.220669 295.074148 
L 109.419478 295.293531 
L 109.618286 295.331114 
L 109.883365 295.035357 
L 109.949634 295.055602 
L 110.015904 295.417879 
L 110.082173 295.401496 
L 110.214712 295.271659 
L 110.280982 295.429489 
L 110.347252 295.368526 
L 110.479791 295.248719 
L 110.54606 295.26433 
L 110.61233 295.449717 
L 110.811138 295.116095 
L 111.009947 295.188965 
L 111.076217 295.100088 
L 111.142486 295.195147 
L 111.341295 295.374586 
L 111.473834 295.349381 
L 111.606373 295.433513 
L 111.672643 295.237985 
L 111.738912 295.314922 
L 111.871451 295.351248 
L 112.13653 295.169406 
L 112.401608 295.092142 
L 112.467877 295.437543 
L 112.534147 295.365787 
L 112.732956 295.341504 
L 113.196842 295.264589 
L 113.329382 295.171258 
L 113.660729 295.416127 
L 113.859538 295.295151 
L 113.992077 295.401966 
L 114.190886 295.305594 
L 114.455964 295.3551 
L 114.721042 295.281019 
L 114.98612 295.363823 
L 115.184929 295.424494 
L 115.251199 295.26876 
L 115.317468 295.322123 
L 115.715085 295.250097 
L 115.847625 295.43587 
L 116.046433 295.303961 
L 116.377781 295.317637 
L 116.51032 295.327576 
L 116.841668 295.236007 
L 117.106746 295.206236 
L 117.239285 295.313463 
L 117.438094 295.029486 
L 117.570633 295.147323 
L 117.703172 295.205751 
L 117.96825 295.460969 
L 118.365868 295.45577 
L 118.896024 295.280713 
L 119.028563 295.279048 
L 119.161102 295.261926 
L 119.293641 295.360761 
L 119.42618 295.170627 
L 119.691259 295.314699 
L 119.823798 295.281231 
L 120.088876 295.300042 
L 120.486493 295.246609 
L 120.685302 295.305006 
L 120.95038 295.290815 
L 121.347998 295.426608 
L 121.546806 295.415925 
L 121.745615 295.423076 
L 122.872197 295.346897 
L 123.004736 295.317864 
L 123.203545 295.351595 
L 123.468623 295.380707 
L 123.534893 294.978938 
L 123.667432 291.486533 
L 123.866241 294.730966 
L 123.99878 295.148598 
L 124.065049 295.163636 
L 124.197588 295.437898 
L 124.727745 295.410341 
L 125.854327 295.46452 
L 126.053136 295.378556 
L 127.577336 295.279905 
L 127.709875 295.303756 
L 127.974953 295.338 
L 128.505109 295.333434 
L 128.703918 295.311765 
L 128.770188 295.205908 
L 128.836457 295.260422 
L 129.035266 295.45171 
L 129.300344 295.199784 
L 129.366614 295.476013 
L 129.432883 295.418079 
L 129.631692 295.433205 
L 129.8305 295.311818 
L 130.029309 295.430128 
L 130.692005 295.234823 
L 130.824544 295.276608 
L 131.023352 295.401353 
L 131.222161 295.379211 
L 131.42097 295.444098 
L 131.818587 295.342737 
L 132.017396 295.391462 
L 132.81263 295.414317 
L 133.011439 295.427504 
L 133.276517 295.321692 
L 133.872943 295.385863 
L 134.535639 295.287243 
L 135.198334 295.361923 
L 135.330873 295.319039 
L 135.463413 295.365946 
L 135.662221 295.372701 
L 135.927299 295.395724 
L 136.324917 295.34366 
L 136.523725 295.480305 
L 136.722534 295.376227 
L 136.987612 295.333143 
L 137.252691 295.388466 
L 138.246734 295.430344 
L 138.379273 295.428479 
L 138.710621 295.286681 
L 139.307047 295.354329 
L 139.704664 295.361797 
L 140.36736 295.468341 
L 140.632438 295.388068 
L 140.897516 295.470583 
L 141.295133 295.372228 
L 141.891559 295.370448 
L 142.620524 295.389144 
L 142.885603 295.448944 
L 143.415759 295.186787 
L 143.482029 294.886203 
L 143.680837 295.334926 
L 144.210994 295.392277 
L 144.542341 295.448889 
L 144.939959 295.428933 
L 145.470115 295.456842 
L 145.602654 295.388967 
L 145.735193 295.413412 
L 145.934002 295.367029 
L 146.132811 295.401838 
L 146.331619 295.445163 
L 146.530428 295.414165 
L 147.78955 295.460258 
L 147.988358 295.410159 
L 148.518515 295.402157 
L 148.916132 295.416876 
L 151.434375 295.449945 
L 151.831992 295.43256 
L 152.428418 295.429066 
L 153.157384 295.404939 
L 153.422462 295.398235 
L 171.248972 295.42335 
L 171.51405 295.435748 
L 177.014423 295.437035 
L 177.809658 295.421157 
L 202.992088 295.447262 
L 204.18494 295.444692 
L 206.106757 295.455954 
L 208.426192 295.450801 
L 238.777647 295.459522 
L 256.869236 295.462855 
L 349.050185 295.473484 
L 361.044975 295.474185 
L 374.497694 295.474893 
L 398.487273 295.476428 
L 398.487273 295.476428 
" clip-path="url(#pb17867773c)" style="fill: none; stroke: #1f77b4; stroke-width: 1.5; stroke-linecap: square"/>
   </g>
   <g id="patch_3">
    <path d="M 57.6 307.584 
L 57.6 41.472 
" style="fill: none; stroke: #000000; stroke-width: 0.8; stroke-linejoin: miter; stroke-linecap: square"/>
   </g>
   <g id="patch_4">
    <path d="M 414.72 307.584 
L 414.72 41.472 
" style="fill: none; stroke: #000000; stroke-width: 0.8; stroke-linejoin: miter; stroke-linecap: square"/>
   </g>
   <g id="patch_5">
    <path d="M 57.6 307.584 
L 414.72 307.584 
" style="fill: none; stroke: #000000; stroke-width: 0.8; stroke-linejoin: miter; stroke-linecap: square"/>
   </g>
   <g id="patch_6">
    <path d="M 57.6 41.472 
L 414.72 41.472 
" style="fill: none; stroke: #000000; stroke-width: 0.8; stroke-linejoin: miter; stroke-linecap: square"/>
   </g>
   <g id="text_16">
    <text style="font: 12px 'IPAexGothic'; text-anchor: middle" x="236.16" y="35.472" transform="rotate(-0 236.16 35.472)">"009_A1.wav"の振幅スペクトル</text>
   </g>
  </g>
 </g>
 <defs>
  <clipPath id="pb17867773c">
   <rect x="57.6" y="41.472" width="357.12" height="266.112"/>
  </clipPath>
 </defs>
</svg>
