<?xml version="1.0" encoding="utf-8" standalone="no"?>
<!DOCTYPE svg PUBLIC "-//W3C//DTD SVG 1.1//EN"
  "http://www.w3.org/Graphics/SVG/1.1/DTD/svg11.dtd">
<svg xmlns:xlink="http://www.w3.org/1999/xlink" width="460.8pt" height="345.6pt" viewBox="0 0 460.8 345.6" xmlns="http://www.w3.org/2000/svg" version="1.1">
 <metadata>
  <rdf:RDF xmlns:dc="http://purl.org/dc/elements/1.1/" xmlns:cc="http://creativecommons.org/ns#" xmlns:rdf="http://www.w3.org/1999/02/22-rdf-syntax-ns#">
   <cc:Work>
    <dc:type rdf:resource="http://purl.org/dc/dcmitype/StillImage"/>
    <dc:date>2022-11-28T11:31:23.461509</dc:date>
    <dc:format>image/svg+xml</dc:format>
    <dc:creator>
     <cc:Agent>
      <dc:title>Matplotlib v3.6.2, https://matplotlib.org/</dc:title>
     </cc:Agent>
    </dc:creator>
   </cc:Work>
  </rdf:RDF>
 </metadata>
 <defs>
  <style type="text/css">*{stroke-linejoin: round; stroke-linecap: butt}</style>
 </defs>
 <g id="figure_1">
  <g id="patch_1">
   <path d="M 0 345.6 
L 460.8 345.6 
L 460.8 0 
L 0 0 
z
" style="fill: #ffffff"/>
  </g>
  <g id="axes_1">
   <g id="patch_2">
    <path d="M 57.6 307.584 
L 414.72 307.584 
L 414.72 41.472 
L 57.6 41.472 
z
" style="fill: #ffffff"/>
   </g>
   <g id="matplotlib.axis_1">
    <g id="xtick_1">
     <g id="line2d_1">
      <defs>
       <path id="m892e835f05" d="M 0 0 
L 0 3.5 
" style="stroke: #000000; stroke-width: 0.8"/>
      </defs>
      <g>
       <use xlink:href="#m892e835f05" x="73.832727" y="307.584" style="stroke: #000000; stroke-width: 0.8"/>
      </g>
     </g>
     <g id="text_1">
      <text style="font: 10px 'IPAexGothic'; text-anchor: middle" x="73.832727" y="322.074625" transform="rotate(-0 73.832727 322.074625)">0</text>
     </g>
    </g>
    <g id="xtick_2">
     <g id="line2d_2">
      <g>
       <use xlink:href="#m892e835f05" x="140.102281" y="307.584" style="stroke: #000000; stroke-width: 0.8"/>
      </g>
     </g>
     <g id="text_2">
      <text style="font: 10px 'IPAexGothic'; text-anchor: middle" x="140.102281" y="322.074625" transform="rotate(-0 140.102281 322.074625)">1000</text>
     </g>
    </g>
    <g id="xtick_3">
     <g id="line2d_3">
      <g>
       <use xlink:href="#m892e835f05" x="206.371835" y="307.584" style="stroke: #000000; stroke-width: 0.8"/>
      </g>
     </g>
     <g id="text_3">
      <text style="font: 10px 'IPAexGothic'; text-anchor: middle" x="206.371835" y="322.074625" transform="rotate(-0 206.371835 322.074625)">2000</text>
     </g>
    </g>
    <g id="xtick_4">
     <g id="line2d_4">
      <g>
       <use xlink:href="#m892e835f05" x="272.64139" y="307.584" style="stroke: #000000; stroke-width: 0.8"/>
      </g>
     </g>
     <g id="text_4">
      <text style="font: 10px 'IPAexGothic'; text-anchor: middle" x="272.64139" y="322.074625" transform="rotate(-0 272.64139 322.074625)">3000</text>
     </g>
    </g>
    <g id="xtick_5">
     <g id="line2d_5">
      <g>
       <use xlink:href="#m892e835f05" x="338.910944" y="307.584" style="stroke: #000000; stroke-width: 0.8"/>
      </g>
     </g>
     <g id="text_5">
      <text style="font: 10px 'IPAexGothic'; text-anchor: middle" x="338.910944" y="322.074625" transform="rotate(-0 338.910944 322.074625)">4000</text>
     </g>
    </g>
    <g id="xtick_6">
     <g id="line2d_6">
      <g>
       <use xlink:href="#m892e835f05" x="405.180498" y="307.584" style="stroke: #000000; stroke-width: 0.8"/>
      </g>
     </g>
     <g id="text_6">
      <text style="font: 10px 'IPAexGothic'; text-anchor: middle" x="405.180498" y="322.074625" transform="rotate(-0 405.180498 322.074625)">5000</text>
     </g>
    </g>
    <g id="text_7">
     <text style="font: 10px 'IPAexGothic'; text-anchor: middle" x="236.16" y="335.924625" transform="rotate(-0 236.16 335.924625)">周波数[Hz]</text>
    </g>
   </g>
   <g id="matplotlib.axis_2">
    <g id="ytick_1">
     <g id="line2d_7">
      <defs>
       <path id="mae6e330d13" d="M 0 0 
L -3.5 0 
" style="stroke: #000000; stroke-width: 0.8"/>
      </defs>
      <g>
       <use xlink:href="#mae6e330d13" x="57.6" y="295.489258" style="stroke: #000000; stroke-width: 0.8"/>
      </g>
     </g>
     <g id="text_8">
      <text style="font: 10px 'IPAexGothic'; text-anchor: end" x="50.6" y="299.23457" transform="rotate(-0 50.6 299.23457)">0.0</text>
     </g>
    </g>
    <g id="ytick_2">
     <g id="line2d_8">
      <g>
       <use xlink:href="#mae6e330d13" x="57.6" y="262.20993" style="stroke: #000000; stroke-width: 0.8"/>
      </g>
     </g>
     <g id="text_9">
      <text style="font: 10px 'IPAexGothic'; text-anchor: end" x="50.6" y="265.955243" transform="rotate(-0 50.6 265.955243)">0.5</text>
     </g>
    </g>
    <g id="ytick_3">
     <g id="line2d_9">
      <g>
       <use xlink:href="#mae6e330d13" x="57.6" y="228.930602" style="stroke: #000000; stroke-width: 0.8"/>
      </g>
     </g>
     <g id="text_10">
      <text style="font: 10px 'IPAexGothic'; text-anchor: end" x="50.6" y="232.675915" transform="rotate(-0 50.6 232.675915)">1.0</text>
     </g>
    </g>
    <g id="ytick_4">
     <g id="line2d_10">
      <g>
       <use xlink:href="#mae6e330d13" x="57.6" y="195.651274" style="stroke: #000000; stroke-width: 0.8"/>
      </g>
     </g>
     <g id="text_11">
      <text style="font: 10px 'IPAexGothic'; text-anchor: end" x="50.6" y="199.396587" transform="rotate(-0 50.6 199.396587)">1.5</text>
     </g>
    </g>
    <g id="ytick_5">
     <g id="line2d_11">
      <g>
       <use xlink:href="#mae6e330d13" x="57.6" y="162.371947" style="stroke: #000000; stroke-width: 0.8"/>
      </g>
     </g>
     <g id="text_12">
      <text style="font: 10px 'IPAexGothic'; text-anchor: end" x="50.6" y="166.117259" transform="rotate(-0 50.6 166.117259)">2.0</text>
     </g>
    </g>
    <g id="ytick_6">
     <g id="line2d_12">
      <g>
       <use xlink:href="#mae6e330d13" x="57.6" y="129.092619" style="stroke: #000000; stroke-width: 0.8"/>
      </g>
     </g>
     <g id="text_13">
      <text style="font: 10px 'IPAexGothic'; text-anchor: end" x="50.6" y="132.837931" transform="rotate(-0 50.6 132.837931)">2.5</text>
     </g>
    </g>
    <g id="ytick_7">
     <g id="line2d_13">
      <g>
       <use xlink:href="#mae6e330d13" x="57.6" y="95.813291" style="stroke: #000000; stroke-width: 0.8"/>
      </g>
     </g>
     <g id="text_14">
      <text style="font: 10px 'IPAexGothic'; text-anchor: end" x="50.6" y="99.558603" transform="rotate(-0 50.6 99.558603)">3.0</text>
     </g>
    </g>
    <g id="ytick_8">
     <g id="line2d_14">
      <g>
       <use xlink:href="#mae6e330d13" x="57.6" y="62.533963" style="stroke: #000000; stroke-width: 0.8"/>
      </g>
     </g>
     <g id="text_15">
      <text style="font: 10px 'IPAexGothic'; text-anchor: end" x="50.6" y="66.279276" transform="rotate(-0 50.6 66.279276)">3.5</text>
     </g>
    </g>
    <g id="text_16">
     <text style="font: 10px 'IPAexGothic'; text-anchor: middle" x="29.460938" y="174.528" transform="rotate(-90 29.460938 174.528)">振幅</text>
    </g>
    <g id="text_17">
     <text style="font: 10px 'IPAexGothic'; text-anchor: start" x="57.6" y="38.472" transform="rotate(-0 57.6 38.472)">1e7</text>
    </g>
   </g>
   <g id="line2d_15">
    <path d="M 73.832727 295.482176 
L 73.898997 295.344812 
L 73.965266 295.387003 
L 74.164075 295.407082 
L 74.561692 295.400888 
L 74.95931 295.419683 
L 75.158118 295.462117 
L 75.489466 295.423323 
L 76.085892 295.402217 
L 76.881127 295.396127 
L 77.411283 295.45496 
L 77.477553 295.185768 
L 77.543822 295.254398 
L 77.742631 295.33197 
L 78.736674 295.317627 
L 78.802944 295.437929 
L 78.869213 295.37996 
L 78.935483 295.43986 
L 79.134292 295.194272 
L 79.200561 295.192314 
L 79.266831 294.941631 
L 79.3331 294.161824 
L 79.465639 295.33607 
L 79.531909 295.434336 
L 79.598178 295.354235 
L 79.664448 295.203381 
L 79.796987 295.44109 
L 79.863257 295.407652 
L 79.929526 295.373606 
L 79.995796 294.940726 
L 80.128335 295.423158 
L 80.260874 295.311219 
L 80.327144 294.579157 
L 80.393413 294.648253 
L 80.592222 295.057326 
L 80.92357 294.312581 
L 80.989839 294.011293 
L 81.056109 293.119324 
L 81.122378 287.694806 
L 81.188648 288.770579 
L 81.321187 294.082651 
L 81.586265 295.32904 
L 81.652535 294.968031 
L 81.718804 294.985934 
L 81.785074 294.989118 
L 81.851343 295.254995 
L 81.917613 295.150239 
L 81.983882 295.239753 
L 82.050152 293.398519 
L 82.116422 295.175524 
L 82.182691 295.164721 
L 82.447769 295.102039 
L 82.514039 294.654876 
L 82.712848 295.319438 
L 82.911656 295.337119 
L 82.977926 294.005193 
L 83.110465 295.224273 
L 83.243004 295.169083 
L 83.309274 295.050511 
L 83.441813 295.126289 
L 83.508082 294.983348 
L 83.574352 293.786521 
L 83.640621 294.41457 
L 83.77316 295.193845 
L 84.104508 295.160533 
L 84.170778 295.23033 
L 84.369586 294.713465 
L 84.435856 295.311401 
L 84.502125 295.133755 
L 84.634665 294.864004 
L 84.700934 294.275395 
L 84.767204 292.020029 
L 84.833473 293.058547 
L 84.966012 295.067056 
L 85.36363 295.364081 
L 85.429899 295.193671 
L 85.562438 295.440451 
L 85.761247 295.392731 
L 85.893786 295.342823 
L 86.092595 295.162122 
L 86.158864 295.01408 
L 86.225134 295.42416 
L 86.291403 295.381558 
L 86.357673 295.407302 
L 86.423943 295.148682 
L 86.490212 295.435593 
L 86.556482 295.393078 
L 86.622751 294.975554 
L 86.689021 295.368461 
L 86.75529 295.338828 
L 86.82156 295.114563 
L 86.887829 294.21386 
L 87.020369 295.104609 
L 87.086638 295.132782 
L 87.285447 295.354525 
L 87.351716 295.373209 
L 87.417986 295.275767 
L 87.616795 295.444992 
L 87.683064 295.224536 
L 87.749334 295.302119 
L 88.412029 295.330168 
L 88.478299 294.522621 
L 88.544568 295.279386 
L 88.610838 295.193288 
L 88.942186 295.168567 
L 89.008455 295.277779 
L 89.074725 295.200146 
L 89.273533 295.144474 
L 89.339803 295.337801 
L 89.406072 295.299504 
L 89.604881 295.109641 
L 89.671151 295.306303 
L 89.73742 295.244554 
L 89.869959 295.242143 
L 89.936229 295.159441 
L 90.002498 295.230108 
L 90.068768 295.242939 
L 90.135038 295.118983 
L 90.201307 295.207125 
L 90.267577 294.271438 
L 90.400116 295.211662 
L 90.731464 295.123736 
L 90.797733 294.997903 
L 90.864003 295.106113 
L 91.062811 295.258668 
L 91.19535 295.137847 
L 91.26162 295.355317 
L 91.32789 295.213922 
L 91.592968 295.225928 
L 92.056855 295.272872 
L 92.123124 295.108617 
L 92.189394 295.199461 
L 92.71955 295.271282 
L 92.78582 295.150927 
L 92.852089 295.244843 
L 93.315976 295.288847 
L 93.382246 294.948792 
L 93.448515 295.070631 
L 93.713593 295.171918 
L 93.978672 294.816685 
L 94.111211 295.081625 
L 94.17748 294.918515 
L 94.376289 294.50794 
L 94.575098 294.707612 
L 94.641367 294.660886 
L 94.773906 294.228857 
L 94.840176 294.304837 
L 94.906445 294.444738 
L 94.972715 294.945866 
L 95.038985 294.763231 
L 95.237793 294.19803 
L 95.370332 294.656107 
L 95.436602 294.615632 
L 95.70168 294.441045 
L 95.76795 295.279047 
L 95.900489 294.676266 
L 95.966758 294.601128 
L 96.033028 294.325515 
L 96.099297 294.691408 
L 96.165567 294.643693 
L 96.430645 294.428376 
L 96.563184 294.741352 
L 96.629454 294.44851 
L 96.695723 294.504987 
L 96.828263 294.653877 
L 96.894532 294.448538 
L 96.960802 294.59249 
L 97.027071 294.449531 
L 97.093341 294.676853 
L 97.15961 294.622612 
L 97.22588 294.489073 
L 97.358419 294.600156 
L 97.623497 294.111951 
L 97.689767 294.262904 
L 97.822306 294.363415 
L 98.219923 293.656604 
L 98.286193 293.715863 
L 98.352462 293.607191 
L 98.485001 294.104391 
L 98.551271 293.585451 
L 98.61754 293.736574 
L 98.68381 293.475221 
L 98.75008 293.750864 
L 98.882619 293.201601 
L 98.948888 293.513026 
L 99.015158 293.160057 
L 99.081427 293.311916 
L 99.213966 293.554286 
L 99.346506 293.253018 
L 99.412775 293.356171 
L 99.479045 293.585984 
L 99.545314 293.539044 
L 99.611584 293.306304 
L 99.744123 293.631891 
L 99.942932 293.085714 
L 100.009201 293.288388 
L 100.075471 293.07886 
L 100.14174 293.248949 
L 100.274279 292.955547 
L 100.340549 293.565676 
L 100.406818 293.082082 
L 100.473088 293.391153 
L 100.605627 292.766652 
L 100.671897 292.980409 
L 100.738166 292.711498 
L 100.804436 292.947449 
L 100.870705 292.912355 
L 100.936975 292.769877 
L 101.003244 292.861943 
L 101.135784 292.567948 
L 101.202053 292.192115 
L 101.268323 291.175961 
L 101.334592 292.29752 
L 101.400862 291.954272 
L 101.59967 291.186972 
L 101.73221 290.627049 
L 101.798479 291.058896 
L 101.864749 290.732167 
L 101.931018 291.295846 
L 101.997288 289.550505 
L 102.063557 290.159646 
L 102.593714 283.894574 
L 102.858792 271.40391 
L 102.991331 249.348596 
L 103.057601 199.959597 
L 103.12387 53.568 
L 103.256409 265.182906 
L 103.521488 286.413804 
L 103.852835 291.284514 
L 103.919105 290.755142 
L 104.117913 292.193394 
L 104.184183 291.898809 
L 104.316722 292.616247 
L 104.449261 292.643124 
L 104.5818 292.50776 
L 104.979418 293.636859 
L 105.111957 293.118001 
L 105.377035 293.866876 
L 105.642113 294.038103 
L 105.840922 294.062012 
L 105.973461 293.776779 
L 106.106 294.325781 
L 106.17227 294.24885 
L 106.371078 293.889692 
L 106.503617 294.621003 
L 106.569887 294.505438 
L 106.636157 294.604342 
L 106.768696 294.588592 
L 106.967504 294.552767 
L 107.298852 294.932401 
L 107.6302 294.904228 
L 107.762739 295.123765 
L 107.829009 294.996881 
L 108.359165 294.650878 
L 108.491704 294.469933 
L 108.690513 294.481876 
L 109.02186 294.356379 
L 109.08813 294.19206 
L 109.286939 294.65203 
L 109.353208 294.558289 
L 109.419478 294.638148 
L 109.485747 294.568429 
L 109.552017 294.807708 
L 109.618286 294.651117 
L 109.750826 294.761745 
L 109.817095 294.895762 
L 109.949634 294.770954 
L 110.015904 294.894461 
L 110.082173 294.742263 
L 110.148443 294.785818 
L 110.280982 294.846937 
L 110.347252 294.999781 
L 110.413521 294.893007 
L 110.479791 294.829351 
L 110.54606 294.912988 
L 110.744869 294.967309 
L 110.811138 294.730298 
L 110.877408 294.934883 
L 110.943678 294.908773 
L 111.142486 294.883143 
L 111.275025 295.055249 
L 111.341295 294.794236 
L 111.407564 294.887499 
L 111.540104 294.95615 
L 111.672643 294.880192 
L 111.738912 295.037132 
L 111.937721 294.87389 
L 112.13653 294.978615 
L 112.202799 294.966485 
L 112.269069 295.133882 
L 112.335338 295.022417 
L 112.799225 295.02264 
L 112.865495 294.457684 
L 112.998034 295.386097 
L 113.064303 295.320681 
L 113.196842 295.227625 
L 113.395651 295.370237 
L 113.461921 295.255555 
L 113.52819 295.305319 
L 113.793268 295.333821 
L 113.992077 295.457024 
L 114.058347 295.220013 
L 114.124616 295.252997 
L 114.588503 295.365668 
L 114.853581 295.352785 
L 114.98612 295.323238 
L 117.504363 295.298415 
L 117.636903 295.248613 
L 117.703172 295.43947 
L 117.769442 295.335325 
L 118.167059 295.315359 
L 118.432137 295.314906 
L 118.697215 295.326228 
L 119.094833 295.299122 
L 119.359911 295.341411 
L 121.347998 295.296202 
L 121.414267 295.16492 
L 121.546806 295.365947 
L 124.528936 295.355503 
L 124.727745 295.317764 
L 124.794014 295.197433 
L 124.860284 295.271333 
L 124.926553 295.230872 
L 124.992823 295.356795 
L 125.059093 295.188962 
L 125.191632 295.345704 
L 127.245988 295.106908 
L 127.312257 295.156104 
L 127.444797 294.938099 
L 127.577336 295.14205 
L 127.709875 295.06504 
L 127.842414 295.123305 
L 128.107492 294.986324 
L 128.240031 295.075037 
L 128.43884 294.908381 
L 128.505109 295.003227 
L 128.571379 294.901375 
L 128.703918 295.066019 
L 128.836457 294.8153 
L 129.101535 294.781915 
L 129.167805 294.609007 
L 129.234074 294.732355 
L 129.366614 294.745363 
L 129.697961 294.022567 
L 129.764231 294.950451 
L 129.8305 294.503142 
L 129.96304 294.442165 
L 130.029309 294.611239 
L 130.095579 294.512244 
L 130.161848 294.244477 
L 130.228118 294.368734 
L 130.294387 294.294801 
L 130.426926 294.434932 
L 130.559466 293.805369 
L 130.625735 294.018629 
L 130.692005 294.170049 
L 130.758274 294.119411 
L 130.824544 294.117821 
L 130.957083 293.740443 
L 131.089622 293.74155 
L 131.155892 293.728713 
L 131.288431 292.891212 
L 131.3547 293.066793 
L 131.42097 293.228307 
L 131.487239 292.634222 
L 131.553509 290.678603 
L 131.619778 292.733651 
L 131.686048 292.024199 
L 131.752318 289.568437 
L 131.818587 290.278567 
L 131.884857 291.120322 
L 131.951126 290.37376 
L 132.216204 277.246114 
L 132.282474 266.796462 
L 132.348744 209.34007 
L 132.415013 232.885859 
L 132.547552 278.843646 
L 132.746361 287.833724 
L 132.81263 288.292744 
L 133.011439 291.857411 
L 133.077709 290.405637 
L 133.143978 291.057197 
L 133.210248 293.627027 
L 133.276517 292.760652 
L 133.342787 292.554014 
L 133.475326 293.097517 
L 133.541596 292.852497 
L 133.740404 293.400522 
L 133.872943 293.417021 
L 133.939213 293.635401 
L 134.005482 293.537341 
L 134.33683 293.88065 
L 134.469369 294.239133 
L 134.734447 294.11915 
L 134.800717 294.421264 
L 134.866987 294.335015 
L 134.933256 294.344205 
L 134.999526 293.729979 
L 135.132065 294.356431 
L 135.198334 294.450354 
L 135.264604 294.297453 
L 135.463413 294.484658 
L 135.728491 294.301568 
L 135.993569 294.340591 
L 136.059839 294.953653 
L 136.126108 294.810699 
L 136.192378 294.747045 
L 136.258647 294.906953 
L 136.324917 294.257783 
L 136.391186 294.389543 
L 136.589995 294.619901 
L 137.186421 294.864524 
L 137.31896 294.869131 
L 138.909429 295.014147 
L 138.975699 294.974198 
L 139.108238 295.034513 
L 139.240777 295.04338 
L 139.373316 295.022336 
L 139.505855 295.123781 
L 139.572125 294.864725 
L 139.638394 294.947302 
L 139.770934 295.053119 
L 140.30109 294.991056 
L 140.566168 295.066954 
L 140.698707 295.049843 
L 141.75902 295.09753 
L 142.024098 295.101492 
L 142.222907 295.137502 
L 142.620524 295.135342 
L 143.018142 295.184783 
L 143.150681 295.1613 
L 143.21695 295.184942 
L 143.28322 295.076599 
L 143.34949 295.336856 
L 143.415759 295.177414 
L 143.548298 295.146519 
L 144.210994 295.126336 
L 145.801463 295.194678 
L 146.26535 295.211003 
L 147.524471 295.233588 
L 147.590741 295.167031 
L 147.657011 295.247846 
L 147.922089 295.25047 
L 148.584784 295.195742 
L 148.651054 295.301605 
L 148.717323 295.239742 
L 148.982402 295.245264 
L 150.63914 295.381582 
L 150.70541 294.96904 
L 150.77168 295.185171 
L 151.036758 295.235524 
L 151.964532 295.209491 
L 152.16334 295.258567 
L 152.362149 295.102756 
L 152.494688 295.281724 
L 152.627227 295.159501 
L 153.091114 295.097018 
L 153.289923 295.172014 
L 153.488731 294.888904 
L 153.62127 295.098738 
L 153.820079 295.008427 
L 154.151427 295.013114 
L 154.350235 294.659129 
L 154.482775 294.931125 
L 154.549044 294.879252 
L 154.681583 294.937116 
L 154.880392 294.841502 
L 155.14547 294.780376 
L 155.21174 294.951958 
L 155.344279 294.618714 
L 155.410548 294.677717 
L 155.609357 294.739785 
L 155.808166 294.817204 
L 156.006974 294.687796 
L 156.073244 294.085069 
L 156.139513 294.263925 
L 156.205783 294.787525 
L 156.272053 294.751751 
L 156.537131 294.463905 
L 156.6034 294.289687 
L 156.66967 294.656455 
L 156.735939 294.451041 
L 156.802209 294.69971 
L 156.868479 294.593964 
L 157.067287 294.418068 
L 157.398635 294.565261 
L 157.464905 294.270777 
L 157.531174 294.312359 
L 157.597444 294.403567 
L 157.663713 294.353933 
L 157.729983 294.216382 
L 157.796252 294.427268 
L 157.862522 294.396741 
L 157.928791 294.338852 
L 157.995061 294.010812 
L 158.061331 294.166888 
L 158.1276 294.172768 
L 158.19387 294.338144 
L 158.260139 294.272773 
L 158.392678 294.023156 
L 158.458948 294.082513 
L 158.724026 294.204842 
L 158.922835 293.711505 
L 159.254182 293.380095 
L 159.320452 293.797806 
L 159.386722 293.120544 
L 159.452991 293.403606 
L 159.519261 293.056429 
L 159.58553 293.113342 
L 159.6518 293.020943 
L 159.718069 292.732455 
L 159.784339 293.219194 
L 159.850608 292.923912 
L 160.579574 291.405239 
L 160.645843 291.498657 
L 160.977191 286.944137 
L 161.04346 288.394423 
L 161.374808 273.619675 
L 161.441078 253.272125 
L 161.507347 160.355585 
L 161.573617 177.925459 
L 161.706156 269.344941 
L 161.904965 285.231046 
L 162.302582 290.86589 
L 162.368852 291.064301 
L 162.435121 291.670612 
L 162.501391 291.578736 
L 162.56766 291.778726 
L 162.63393 290.991101 
L 162.700199 291.473426 
L 162.899008 292.627612 
L 162.965278 292.67587 
L 163.031547 292.429744 
L 163.097817 292.547719 
L 163.164086 293.379636 
L 163.230356 293.34392 
L 163.429164 293.378476 
L 163.495434 293.867196 
L 163.561704 293.483377 
L 163.627973 293.620128 
L 163.893051 293.598848 
L 163.959321 293.800778 
L 164.02559 293.770464 
L 164.290669 294.104948 
L 164.356938 294.311231 
L 164.489477 294.118063 
L 164.622016 294.272265 
L 164.688286 294.193504 
L 164.820825 294.416992 
L 164.953364 294.409011 
L 165.085903 294.435799 
L 165.152173 294.568087 
L 165.218442 294.41417 
L 165.284712 294.697361 
L 165.350981 294.35487 
L 165.417251 294.455264 
L 165.881138 294.713264 
L 165.947407 294.570599 
L 166.013677 294.623432 
L 166.212486 294.831617 
L 166.543833 294.901741 
L 166.610103 294.848117 
L 166.742642 295.014352 
L 167.00772 294.923725 
L 167.405338 295.04969 
L 168.59819 295.121099 
L 169.857311 295.123559 
L 170.122389 295.158418 
L 170.652546 295.166899 
L 171.315241 295.203933 
L 171.58032 295.208349 
L 174.297371 295.262021 
L 174.49618 295.242862 
L 176.152919 295.318177 
L 176.219188 295.212533 
L 176.285458 295.297756 
L 176.550536 295.285212 
L 177.080693 295.293436 
L 177.743388 295.276451 
L 178.008466 295.29964 
L 178.339814 295.297736 
L 179.135049 295.323334 
L 179.797744 295.427708 
L 179.864014 295.02377 
L 179.930283 295.336746 
L 179.996553 295.192128 
L 180.129092 295.273943 
L 185.231848 295.310165 
L 185.298117 295.245921 
L 185.364387 295.357802 
L 185.430656 295.282727 
L 185.629465 295.323734 
L 185.894543 295.299599 
L 186.093352 295.301278 
L 186.4247 295.31285 
L 187.021126 295.289579 
L 187.087395 295.302175 
L 187.153665 295.143161 
L 187.219934 295.314564 
L 187.286204 295.224461 
L 187.485013 295.28602 
L 188.545325 295.272802 
L 188.942943 295.050119 
L 189.009212 295.358137 
L 189.075482 294.990556 
L 189.141751 295.255314 
L 189.208021 295.202315 
L 189.870716 295.206858 
L 190.003256 294.785232 
L 190.069525 294.899396 
L 190.135795 295.19517 
L 190.268334 294.834811 
L 190.400873 295.328016 
L 190.732221 292.519059 
L 190.79849 284.43262 
L 190.86476 292.813196 
L 190.931029 277.069577 
L 191.063568 294.948027 
L 191.129838 294.69762 
L 191.196108 294.919661 
L 191.262377 294.89181 
L 191.328647 294.714425 
L 191.527455 295.254437 
L 191.593725 295.129688 
L 191.659994 295.318136 
L 191.726264 295.181392 
L 191.792534 295.311363 
L 191.925073 295.188839 
L 192.123881 295.292563 
L 192.455229 295.300002 
L 193.250464 295.323454 
L 195.636168 295.387644 
L 195.901246 295.423571 
L 196.232594 295.441555 
L 196.298863 295.353546 
L 196.365133 295.456142 
L 196.431402 295.322259 
L 196.497672 295.403302 
L 198.552028 295.360313 
L 198.750837 295.342233 
L 198.817106 295.2547 
L 198.883376 295.322001 
L 199.148454 295.342197 
L 201.732967 295.271564 
L 201.799236 295.426627 
L 201.865506 295.275326 
L 201.931775 295.436889 
L 201.998045 295.375898 
L 202.395662 295.368468 
L 203.389706 295.358218 
L 203.787323 295.389964 
L 203.986131 295.367716 
L 204.317479 295.37606 
L 205.444062 295.362849 
L 205.841679 295.363867 
L 206.305566 295.365304 
L 206.968261 295.364119 
L 207.697227 295.364039 
L 208.227383 295.357931 
L 208.625 295.373824 
L 209.155157 295.363505 
L 212.667443 295.349222 
L 212.866252 295.328236 
L 212.998791 295.347639 
L 213.06506 295.265448 
L 213.1976 295.369763 
L 213.727756 295.39953 
L 213.860295 295.373495 
L 214.257912 295.391517 
L 215.517034 295.368559 
L 215.914651 295.371508 
L 216.378538 295.360185 
L 216.577347 295.399717 
L 216.776155 295.37035 
L 217.505121 295.412987 
L 217.57139 295.150815 
L 217.63766 295.328135 
L 218.101547 295.366419 
L 218.234086 295.260804 
L 218.300355 295.353151 
L 218.366625 295.112581 
L 218.432894 295.410361 
L 218.499164 295.362601 
L 218.764242 295.40075 
L 218.896781 295.413134 
L 218.963051 295.335184 
L 219.02932 295.4094 
L 219.09559 295.427661 
L 219.161859 295.161247 
L 219.228129 295.344893 
L 219.294398 295.415003 
L 219.426938 295.253794 
L 219.493207 295.451149 
L 219.758285 294.741032 
L 219.824555 294.975966 
L 219.890824 294.855703 
L 220.089633 280.931885 
L 220.155903 288.187133 
L 220.222172 283.178779 
L 220.354711 293.754286 
L 220.420981 294.711053 
L 220.48725 294.39402 
L 220.55352 294.402143 
L 220.61979 294.032834 
L 220.818598 295.193204 
L 220.884868 294.768823 
L 220.951137 294.83511 
L 221.017407 295.407609 
L 221.216216 294.750525 
L 221.282485 294.999323 
L 221.348755 294.925291 
L 221.680102 295.133383 
L 221.878911 294.892851 
L 222.01145 295.388492 
L 222.143989 295.045473 
L 222.210259 295.16551 
L 222.276528 295.107003 
L 222.674146 295.279327 
L 222.740415 294.964358 
L 222.806685 295.136806 
L 222.939224 295.244713 
L 223.403111 295.127093 
L 223.53565 295.256625 
L 223.668189 295.163747 
L 223.734459 295.332008 
L 223.800728 295.236099 
L 223.933267 295.120678 
L 223.999537 295.268692 
L 224.065806 295.215992 
L 224.132076 295.127467 
L 224.198345 295.190274 
L 224.529693 295.212742 
L 225.192389 295.212696 
L 225.258658 295.089205 
L 225.324928 295.177192 
L 225.391197 295.349107 
L 225.457467 295.31972 
L 225.523737 295.208721 
L 225.590006 295.364846 
L 225.656276 295.174574 
L 225.788815 295.310042 
L 225.855084 295.243734 
L 225.921354 295.380226 
L 225.987623 295.343315 
L 226.716589 295.349677 
L 226.849128 295.36746 
L 227.047936 295.358895 
L 227.246745 295.336288 
L 227.578093 295.335922 
L 227.710632 295.374214 
L 228.439597 295.315111 
L 228.638406 295.406073 
L 230.030066 295.366827 
L 230.096336 295.000035 
L 230.228875 295.402619 
L 231.289188 295.396716 
L 231.487996 295.435082 
L 232.150692 295.426177 
L 232.41577 295.43948 
L 233.211005 295.426991 
L 233.476083 295.469345 
L 234.403857 295.452305 
L 234.668935 295.442386 
L 234.801474 295.419389 
L 235.066552 295.448435 
L 235.994326 295.428168 
L 236.259404 295.44017 
L 237.187178 295.432614 
L 237.651065 295.410368 
L 238.114952 295.390828 
L 238.247491 295.33919 
L 238.313761 295.423472 
L 238.38003 295.289402 
L 238.4463 295.466166 
L 238.512569 295.317296 
L 238.578839 295.396859 
L 239.705421 295.396202 
L 239.90423 295.409137 
L 240.301847 295.430762 
L 240.500656 295.379391 
L 240.832004 295.408637 
L 241.29589 295.406854 
L 245.537142 295.310628 
L 245.603411 295.130801 
L 245.669681 295.377939 
L 245.735951 295.043353 
L 245.80222 295.293055 
L 245.86849 295.119473 
L 246.133568 295.281439 
L 246.266107 295.102341 
L 246.597455 295.197479 
L 246.663724 294.931362 
L 246.796263 295.221393 
L 247.127611 295.011484 
L 247.458959 295.110321 
L 247.525229 294.280858 
L 247.591498 295.21617 
L 247.657768 294.786046 
L 247.790307 294.993454 
L 247.989115 294.706619 
L 248.187924 294.95728 
L 248.386733 294.63818 
L 248.453002 294.322312 
L 248.519272 294.434152 
L 248.585541 294.762725 
L 248.78435 294.097979 
L 248.85062 294.471081 
L 248.916889 294.443324 
L 248.983159 293.782544 
L 249.049428 293.87439 
L 249.115698 293.681717 
L 249.181967 291.995491 
L 249.380776 271.491115 
L 249.579585 292.745746 
L 249.645854 292.506375 
L 249.844663 293.814475 
L 250.176011 295.036362 
L 250.24228 294.491503 
L 250.30855 294.973694 
L 250.374819 294.829364 
L 250.441089 295.082687 
L 250.507358 294.728536 
L 250.573628 294.959789 
L 250.772437 295.003624 
L 251.236324 295.147583 
L 251.302593 295.058188 
L 251.368863 295.166007 
L 251.435132 294.994577 
L 251.501402 295.092263 
L 251.76648 295.157905 
L 251.899019 295.171552 
L 251.965289 295.009069 
L 252.097828 295.467595 
L 252.164097 295.244399 
L 252.429176 295.217206 
L 252.694254 295.287399 
L 253.29068 295.272651 
L 253.489488 295.327989 
L 254.68234 295.264765 
L 254.74861 295.337971 
L 254.814879 295.145848 
L 254.881149 295.418804 
L 254.947419 295.215086 
L 255.013688 295.368461 
L 255.411305 295.420354 
L 256.604157 295.353707 
L 256.670427 295.274571 
L 256.736697 295.359255 
L 256.869236 295.384482 
L 257.001775 295.434632 
L 257.200583 295.466097 
L 257.66447 295.432199 
L 259.586287 295.356917 
L 259.652557 294.837221 
L 259.785096 295.439092 
L 260.050174 295.465071 
L 260.447792 295.279527 
L 260.6466 295.416751 
L 261.110487 295.417265 
L 261.839452 295.407514 
L 262.1708 295.427651 
L 262.369609 295.405159 
L 262.899765 295.402496 
L 263.893808 295.37944 
L 263.960078 295.461746 
L 264.026347 295.353751 
L 264.092617 295.411427 
L 264.556504 295.395889 
L 265.08666 295.412908 
L 265.351739 295.396733 
L 266.146973 295.387135 
L 267.604903 295.382327 
L 267.671173 295.220266 
L 267.803712 295.364456 
L 267.869982 295.299447 
L 267.936251 295.388318 
L 268.797755 295.386713 
L 269.062834 295.373405 
L 272.64139 295.425901 
L 273.171546 295.419276 
L 276.750102 295.440654 
L 276.816371 295.255505 
L 276.882641 295.386408 
L 277.01518 295.357675 
L 277.213989 295.347621 
L 278.141763 295.238398 
L 278.208032 295.30897 
L 278.274302 295.04001 
L 278.340571 295.107258 
L 278.406841 295.142576 
L 278.605649 293.547669 
L 278.870728 295.436891 
L 279.003267 295.354906 
L 279.135806 295.436599 
L 279.334614 295.398117 
L 279.93104 295.474277 
L 280.262388 295.458286 
L 280.394927 295.446395 
L 280.593736 295.426961 
L 281.123892 295.46179 
L 281.52151 295.443687 
L 282.316744 295.458349 
L 282.383014 295.282161 
L 282.449284 295.411517 
L 282.846901 295.436645 
L 283.907214 295.453408 
L 285.630222 295.44354 
L 285.96157 295.430225 
L 286.292918 295.436134 
L 287.088152 295.454724 
L 287.883387 295.447149 
L 288.347274 295.461931 
L 288.811161 295.45221 
L 289.540126 295.433233 
L 289.606395 295.229048 
L 289.672665 295.480577 
L 289.738934 295.386151 
L 290.136552 295.436227 
L 290.865517 295.445612 
L 292.986143 295.453375 
L 293.118682 295.416359 
L 293.582569 295.433894 
L 294.84169 295.357625 
L 294.90796 295.317737 
L 295.040499 295.454694 
L 295.239307 295.369576 
L 295.570655 295.409632 
L 296.36589 295.448356 
L 297.227394 295.438023 
L 298.420246 295.40499 
L 298.486516 295.256125 
L 298.619055 295.467903 
L 298.884133 295.411778 
L 299.28175 295.396478 
L 299.480559 295.423318 
L 300.076985 295.374532 
L 300.474602 295.414899 
L 300.540872 295.274828 
L 300.607141 295.455999 
L 300.673411 295.413796 
L 302.26388 295.447841 
L 302.396419 295.389368 
L 302.926576 295.420187 
L 307.101558 295.255906 
L 307.167827 295.147609 
L 307.234097 295.194494 
L 307.300366 295.326531 
L 307.366636 295.214268 
L 307.565445 295.079896 
L 307.764253 293.711102 
L 307.830523 294.42184 
L 307.896792 290.659853 
L 307.963062 294.021251 
L 308.029331 292.282763 
L 308.161871 295.098194 
L 308.360679 295.240103 
L 308.559488 295.389615 
L 308.890836 295.413274 
L 309.023375 295.382407 
L 309.222183 295.435711 
L 309.487262 295.409421 
L 309.619801 295.437526 
L 310.017418 295.463816 
L 311.144 295.439925 
L 313.065818 295.438414 
L 336.724048 295.360701 
L 336.790318 295.232334 
L 336.856587 295.408993 
L 337.055396 294.399093 
L 337.121666 294.473609 
L 337.187935 292.437447 
L 337.254205 295.485879 
L 337.320474 294.62624 
L 337.386744 294.71406 
L 337.453013 295.222489 
L 337.519283 295.194824 
L 338.513326 295.40654 
L 338.910944 295.415143 
L 339.4411 295.442012 
L 341.164108 295.417311 
L 342.224421 295.428128 
L 343.351004 295.417314 
L 343.682352 295.409412 
L 345.537899 295.436731 
L 346.266864 295.429142 
L 346.664481 295.430721 
L 351.104542 295.472514 
L 351.502159 295.474845 
L 352.231124 295.43696 
L 352.297394 295.195691 
L 352.496202 295.46504 
L 354.28548 295.469529 
L 364.225913 295.456441 
L 365.286226 295.450386 
L 365.683843 295.432217 
L 366.015191 295.410439 
L 366.081461 295.284134 
L 366.14773 295.43602 
L 366.214 295.332748 
L 366.280269 295.108621 
L 366.346539 294.443183 
L 366.545348 295.347797 
L 366.677887 295.311737 
L 366.876695 295.408371 
L 367.539391 295.474875 
L 368.069547 295.470941 
L 368.732243 295.40326 
L 368.864782 295.254031 
L 368.997321 295.433639 
L 369.328669 295.464155 
L 369.660017 295.460727 
L 370.65406 295.424917 
L 371.184216 295.413881 
L 371.979451 295.439021 
L 372.17826 295.420252 
L 380.064337 295.43426 
L 383.377814 295.450982 
L 383.907971 295.433642 
L 384.570666 295.435174 
L 385.56471 295.456969 
L 386.161136 295.423684 
L 386.227405 295.301374 
L 386.359944 294.569323 
L 386.492483 295.297692 
L 386.757562 295.395336 
L 386.95637 295.389916 
L 387.420257 295.41714 
L 388.082953 295.431705 
L 388.811918 295.436095 
L 391.065083 295.472724 
L 391.4627 295.464886 
L 393.384517 295.475887 
L 395.041256 295.453355 
L 395.240065 295.315081 
L 395.306334 295.443949 
L 395.505143 295.133904 
L 395.571412 294.947027 
L 395.637682 295.030828 
L 395.770221 295.289252 
L 395.836491 295.22561 
L 395.90276 295.399137 
L 395.96903 295.370763 
L 396.631725 295.441608 
L 398.487273 295.462052 
L 398.487273 295.462052 
" clip-path="url(#p5b9e7f9586)" style="fill: none; stroke: #1f77b4; stroke-width: 1.5; stroke-linecap: square"/>
   </g>
   <g id="patch_3">
    <path d="M 57.6 307.584 
L 57.6 41.472 
" style="fill: none; stroke: #000000; stroke-width: 0.8; stroke-linejoin: miter; stroke-linecap: square"/>
   </g>
   <g id="patch_4">
    <path d="M 414.72 307.584 
L 414.72 41.472 
" style="fill: none; stroke: #000000; stroke-width: 0.8; stroke-linejoin: miter; stroke-linecap: square"/>
   </g>
   <g id="patch_5">
    <path d="M 57.6 307.584 
L 414.72 307.584 
" style="fill: none; stroke: #000000; stroke-width: 0.8; stroke-linejoin: miter; stroke-linecap: square"/>
   </g>
   <g id="patch_6">
    <path d="M 57.6 41.472 
L 414.72 41.472 
" style="fill: none; stroke: #000000; stroke-width: 0.8; stroke-linejoin: miter; stroke-linecap: square"/>
   </g>
   <g id="text_18">
    <text style="font: 12px 'IPAexGothic'; text-anchor: middle" x="236.16" y="35.472" transform="rotate(-0 236.16 35.472)">"017_A4.wav"の振幅スペクトル</text>
   </g>
  </g>
 </g>
 <defs>
  <clipPath id="p5b9e7f9586">
   <rect x="57.6" y="41.472" width="357.12" height="266.112"/>
  </clipPath>
 </defs>
</svg>
