<?xml version="1.0" encoding="utf-8" standalone="no"?>
<!DOCTYPE svg PUBLIC "-//W3C//DTD SVG 1.1//EN"
  "http://www.w3.org/Graphics/SVG/1.1/DTD/svg11.dtd">
<svg xmlns:xlink="http://www.w3.org/1999/xlink" width="460.8pt" height="345.6pt" viewBox="0 0 460.8 345.6" xmlns="http://www.w3.org/2000/svg" version="1.1">
 <metadata>
  <rdf:RDF xmlns:dc="http://purl.org/dc/elements/1.1/" xmlns:cc="http://creativecommons.org/ns#" xmlns:rdf="http://www.w3.org/1999/02/22-rdf-syntax-ns#">
   <cc:Work>
    <dc:type rdf:resource="http://purl.org/dc/dcmitype/StillImage"/>
    <dc:date>2022-11-28T11:25:48.056145</dc:date>
    <dc:format>image/svg+xml</dc:format>
    <dc:creator>
     <cc:Agent>
      <dc:title>Matplotlib v3.6.2, https://matplotlib.org/</dc:title>
     </cc:Agent>
    </dc:creator>
   </cc:Work>
  </rdf:RDF>
 </metadata>
 <defs>
  <style type="text/css">*{stroke-linejoin: round; stroke-linecap: butt}</style>
 </defs>
 <g id="figure_1">
  <g id="patch_1">
   <path d="M 0 345.6 
L 460.8 345.6 
L 460.8 0 
L 0 0 
z
" style="fill: #ffffff"/>
  </g>
  <g id="axes_1">
   <g id="patch_2">
    <path d="M 57.6 307.584 
L 414.72 307.584 
L 414.72 41.472 
L 57.6 41.472 
z
" style="fill: #ffffff"/>
   </g>
   <g id="matplotlib.axis_1">
    <g id="xtick_1">
     <g id="line2d_1">
      <defs>
       <path id="m3e0c680eb8" d="M 0 0 
L 0 3.5 
" style="stroke: #000000; stroke-width: 0.8"/>
      </defs>
      <g>
       <use xlink:href="#m3e0c680eb8" x="73.832727" y="307.584" style="stroke: #000000; stroke-width: 0.8"/>
      </g>
     </g>
     <g id="text_1">
      <text style="font: 10px 'IPAexGothic'; text-anchor: middle" x="73.832727" y="322.074625" transform="rotate(-0 73.832727 322.074625)">0</text>
     </g>
    </g>
    <g id="xtick_2">
     <g id="line2d_2">
      <g>
       <use xlink:href="#m3e0c680eb8" x="140.102281" y="307.584" style="stroke: #000000; stroke-width: 0.8"/>
      </g>
     </g>
     <g id="text_2">
      <text style="font: 10px 'IPAexGothic'; text-anchor: middle" x="140.102281" y="322.074625" transform="rotate(-0 140.102281 322.074625)">1000</text>
     </g>
    </g>
    <g id="xtick_3">
     <g id="line2d_3">
      <g>
       <use xlink:href="#m3e0c680eb8" x="206.371835" y="307.584" style="stroke: #000000; stroke-width: 0.8"/>
      </g>
     </g>
     <g id="text_3">
      <text style="font: 10px 'IPAexGothic'; text-anchor: middle" x="206.371835" y="322.074625" transform="rotate(-0 206.371835 322.074625)">2000</text>
     </g>
    </g>
    <g id="xtick_4">
     <g id="line2d_4">
      <g>
       <use xlink:href="#m3e0c680eb8" x="272.64139" y="307.584" style="stroke: #000000; stroke-width: 0.8"/>
      </g>
     </g>
     <g id="text_4">
      <text style="font: 10px 'IPAexGothic'; text-anchor: middle" x="272.64139" y="322.074625" transform="rotate(-0 272.64139 322.074625)">3000</text>
     </g>
    </g>
    <g id="xtick_5">
     <g id="line2d_5">
      <g>
       <use xlink:href="#m3e0c680eb8" x="338.910944" y="307.584" style="stroke: #000000; stroke-width: 0.8"/>
      </g>
     </g>
     <g id="text_5">
      <text style="font: 10px 'IPAexGothic'; text-anchor: middle" x="338.910944" y="322.074625" transform="rotate(-0 338.910944 322.074625)">4000</text>
     </g>
    </g>
    <g id="xtick_6">
     <g id="line2d_6">
      <g>
       <use xlink:href="#m3e0c680eb8" x="405.180498" y="307.584" style="stroke: #000000; stroke-width: 0.8"/>
      </g>
     </g>
     <g id="text_6">
      <text style="font: 10px 'IPAexGothic'; text-anchor: middle" x="405.180498" y="322.074625" transform="rotate(-0 405.180498 322.074625)">5000</text>
     </g>
    </g>
    <g id="text_7">
     <text style="font: 10px 'IPAexGothic'; text-anchor: middle" x="236.16" y="335.924625" transform="rotate(-0 236.16 335.924625)">周波数[Hz]</text>
    </g>
   </g>
   <g id="matplotlib.axis_2">
    <g id="ytick_1">
     <g id="line2d_7">
      <defs>
       <path id="mdfd2c25e63" d="M 0 0 
L -3.5 0 
" style="stroke: #000000; stroke-width: 0.8"/>
      </defs>
      <g>
       <use xlink:href="#mdfd2c25e63" x="57.6" y="295.489264" style="stroke: #000000; stroke-width: 0.8"/>
      </g>
     </g>
     <g id="text_8">
      <text style="font: 10px 'IPAexGothic'; text-anchor: end" x="50.6" y="299.234577" transform="rotate(-0 50.6 299.234577)">0.0</text>
     </g>
    </g>
    <g id="ytick_2">
     <g id="line2d_8">
      <g>
       <use xlink:href="#mdfd2c25e63" x="57.6" y="261.323049" style="stroke: #000000; stroke-width: 0.8"/>
      </g>
     </g>
     <g id="text_9">
      <text style="font: 10px 'IPAexGothic'; text-anchor: end" x="50.6" y="265.068362" transform="rotate(-0 50.6 265.068362)">0.2</text>
     </g>
    </g>
    <g id="ytick_3">
     <g id="line2d_9">
      <g>
       <use xlink:href="#mdfd2c25e63" x="57.6" y="227.156834" style="stroke: #000000; stroke-width: 0.8"/>
      </g>
     </g>
     <g id="text_10">
      <text style="font: 10px 'IPAexGothic'; text-anchor: end" x="50.6" y="230.902146" transform="rotate(-0 50.6 230.902146)">0.4</text>
     </g>
    </g>
    <g id="ytick_4">
     <g id="line2d_10">
      <g>
       <use xlink:href="#mdfd2c25e63" x="57.6" y="192.990619" style="stroke: #000000; stroke-width: 0.8"/>
      </g>
     </g>
     <g id="text_11">
      <text style="font: 10px 'IPAexGothic'; text-anchor: end" x="50.6" y="196.735931" transform="rotate(-0 50.6 196.735931)">0.6</text>
     </g>
    </g>
    <g id="ytick_5">
     <g id="line2d_11">
      <g>
       <use xlink:href="#mdfd2c25e63" x="57.6" y="158.824404" style="stroke: #000000; stroke-width: 0.8"/>
      </g>
     </g>
     <g id="text_12">
      <text style="font: 10px 'IPAexGothic'; text-anchor: end" x="50.6" y="162.569716" transform="rotate(-0 50.6 162.569716)">0.8</text>
     </g>
    </g>
    <g id="ytick_6">
     <g id="line2d_12">
      <g>
       <use xlink:href="#mdfd2c25e63" x="57.6" y="124.658189" style="stroke: #000000; stroke-width: 0.8"/>
      </g>
     </g>
     <g id="text_13">
      <text style="font: 10px 'IPAexGothic'; text-anchor: end" x="50.6" y="128.403501" transform="rotate(-0 50.6 128.403501)">1.0</text>
     </g>
    </g>
    <g id="ytick_7">
     <g id="line2d_13">
      <g>
       <use xlink:href="#mdfd2c25e63" x="57.6" y="90.491974" style="stroke: #000000; stroke-width: 0.8"/>
      </g>
     </g>
     <g id="text_14">
      <text style="font: 10px 'IPAexGothic'; text-anchor: end" x="50.6" y="94.237286" transform="rotate(-0 50.6 94.237286)">1.2</text>
     </g>
    </g>
    <g id="ytick_8">
     <g id="line2d_14">
      <g>
       <use xlink:href="#mdfd2c25e63" x="57.6" y="56.325759" style="stroke: #000000; stroke-width: 0.8"/>
      </g>
     </g>
     <g id="text_15">
      <text style="font: 10px 'IPAexGothic'; text-anchor: end" x="50.6" y="60.071071" transform="rotate(-0 50.6 60.071071)">1.4</text>
     </g>
    </g>
    <g id="text_16">
     <text style="font: 10px 'IPAexGothic'; text-anchor: middle" x="29.460938" y="174.528" transform="rotate(-90 29.460938 174.528)">振幅</text>
    </g>
    <g id="text_17">
     <text style="font: 10px 'IPAexGothic'; text-anchor: start" x="57.6" y="38.472" transform="rotate(-0 57.6 38.472)">1e7</text>
    </g>
   </g>
   <g id="line2d_15">
    <path d="M 73.832727 212.078617 
L 73.965266 292.558519 
L 74.031536 293.772762 
L 74.097805 293.623099 
L 74.164075 293.14748 
L 74.230345 293.375512 
L 74.429153 294.213843 
L 74.627962 293.972827 
L 74.694231 295.22046 
L 74.760501 295.078842 
L 74.826771 293.17581 
L 74.89304 293.790471 
L 74.95931 294.146781 
L 75.091849 293.359006 
L 75.158118 295.024143 
L 75.224388 294.092885 
L 75.423197 294.972894 
L 75.489466 294.517346 
L 75.555736 294.654862 
L 75.688275 295.481897 
L 75.754544 293.031911 
L 75.820814 293.551028 
L 75.887083 295.340398 
L 75.953353 294.207794 
L 76.019623 294.309486 
L 76.085892 294.804573 
L 76.152162 294.346291 
L 76.218431 294.835175 
L 76.284701 294.699052 
L 76.41724 293.412945 
L 76.483509 293.817933 
L 76.549779 295.179743 
L 76.616049 294.345164 
L 76.682318 294.913301 
L 76.748588 293.862102 
L 76.881127 295.412459 
L 76.947396 294.407862 
L 77.013666 294.830915 
L 77.079935 294.983695 
L 77.146205 294.197823 
L 77.212475 295.04352 
L 77.278744 294.970809 
L 77.411283 293.629799 
L 77.543822 294.689563 
L 77.610092 294.608751 
L 77.676361 295.109982 
L 77.742631 294.975561 
L 77.808901 294.124357 
L 77.87517 294.516313 
L 77.94144 294.946735 
L 78.073979 294.32031 
L 78.272787 295.152498 
L 78.405327 294.401086 
L 78.471596 295.272418 
L 78.537866 294.438801 
L 78.604135 295.162308 
L 78.670405 295.058352 
L 78.802944 294.05839 
L 78.869213 294.121834 
L 79.001752 294.178782 
L 79.068022 295.432535 
L 79.134292 295.055425 
L 79.200561 294.531821 
L 79.266831 294.750263 
L 79.39937 293.984317 
L 79.465639 294.178362 
L 79.531909 294.634273 
L 79.598178 294.475543 
L 79.664448 292.403099 
L 79.730718 292.547184 
L 79.796987 294.139612 
L 79.863257 293.267492 
L 79.929526 292.369047 
L 79.995796 292.428419 
L 80.062065 293.70529 
L 80.128335 291.451445 
L 80.260874 294.715299 
L 80.525952 288.822141 
L 80.592222 288.836113 
L 80.658491 290.091909 
L 80.724761 289.369583 
L 80.79103 287.444587 
L 80.8573 290.556577 
L 80.92357 286.69253 
L 80.989839 268.841595 
L 81.056109 210.714474 
L 81.254917 281.679353 
L 81.453726 291.527145 
L 81.519996 291.471762 
L 81.586265 292.169664 
L 81.652535 288.977209 
L 81.851343 294.788712 
L 81.917613 293.3697 
L 81.983882 293.962962 
L 82.050152 292.968711 
L 82.116422 294.307767 
L 82.182691 293.231625 
L 82.248961 294.35589 
L 82.31523 293.58079 
L 82.3815 295.196827 
L 82.447769 295.009398 
L 82.514039 293.627325 
L 82.580308 294.269013 
L 82.646578 293.800846 
L 82.712848 293.959805 
L 82.779117 294.385312 
L 82.845387 293.930718 
L 82.911656 294.634761 
L 82.977926 294.579197 
L 83.110465 294.951414 
L 83.176734 294.833191 
L 83.243004 294.630965 
L 83.441813 295.099458 
L 83.508082 294.553261 
L 83.574352 295.24756 
L 83.640621 294.990274 
L 83.706891 294.89441 
L 83.77316 295.323915 
L 83.83943 294.89846 
L 83.905699 295.10734 
L 83.971969 295.14368 
L 84.038239 294.97889 
L 84.104508 295.029116 
L 84.237047 295.294571 
L 84.369586 294.913575 
L 84.502125 295.249397 
L 84.568395 295.18224 
L 84.634665 294.880039 
L 84.700934 294.923926 
L 84.767204 295.272964 
L 84.833473 295.037695 
L 84.899743 294.652734 
L 84.966012 295.113643 
L 85.032282 295.08098 
L 85.231091 294.434412 
L 85.36363 293.980197 
L 85.429899 295.32914 
L 85.496169 292.779817 
L 85.562438 294.843855 
L 85.628708 293.487647 
L 85.694977 294.802988 
L 85.761247 294.337552 
L 85.827517 295.116007 
L 85.893786 294.089421 
L 85.960056 294.406142 
L 86.225134 295.46076 
L 86.423943 294.203 
L 86.689021 295.20038 
L 86.75529 295.133702 
L 87.020369 294.183134 
L 87.086638 291.780608 
L 87.219177 294.452683 
L 87.285447 294.667295 
L 87.417986 291.828431 
L 87.550525 294.759152 
L 87.815603 289.371833 
L 87.881873 292.571119 
L 88.146951 242.095379 
L 88.34576 53.568 
L 88.478299 292.225006 
L 88.544568 260.963724 
L 88.677107 285.453441 
L 88.743377 275.177422 
L 88.942186 293.31777 
L 89.074725 292.999553 
L 89.207264 291.401894 
L 89.339803 292.867708 
L 89.406072 292.383041 
L 89.472342 291.799029 
L 89.604881 293.782537 
L 89.73742 292.682715 
L 89.80369 294.914951 
L 89.869959 294.308109 
L 90.135038 293.630766 
L 90.201307 294.127377 
L 90.267577 294.045035 
L 90.333846 294.051942 
L 90.665194 295.253546 
L 90.731464 294.748595 
L 90.797733 292.060599 
L 90.864003 292.948743 
L 91.062811 293.398102 
L 91.129081 292.929189 
L 91.19535 293.006265 
L 91.460429 295.301188 
L 91.526698 294.985163 
L 91.659237 294.380986 
L 91.725507 294.057217 
L 91.791776 294.425336 
L 91.858046 294.180572 
L 91.924316 294.019572 
L 91.990585 294.466904 
L 92.056855 294.232637 
L 92.123124 294.253499 
L 92.189394 294.746782 
L 92.255663 294.058228 
L 92.321933 294.453812 
L 92.388202 294.724358 
L 92.454472 294.490117 
L 92.520742 294.516714 
L 92.587011 294.447058 
L 92.653281 294.977285 
L 92.71955 293.820193 
L 92.78582 294.322558 
L 92.984628 294.588322 
L 93.050898 294.266087 
L 93.117168 294.643547 
L 93.183437 294.216807 
L 93.249707 294.545327 
L 93.315976 294.453169 
L 93.382246 294.05026 
L 93.448515 294.405039 
L 93.514785 294.352993 
L 93.581054 294.448693 
L 93.713593 293.937147 
L 93.846133 295.171967 
L 93.978672 294.109067 
L 94.111211 293.820575 
L 94.17748 294.265874 
L 94.24375 293.168408 
L 94.310019 293.489635 
L 94.376289 293.140797 
L 94.508828 294.252243 
L 94.575098 294.283356 
L 94.641367 293.711204 
L 94.707637 294.343252 
L 94.773906 294.010597 
L 94.906445 292.891523 
L 94.972715 293.45805 
L 95.038985 290.01023 
L 95.105254 290.428961 
L 95.171524 290.234912 
L 95.237793 288.569458 
L 95.370332 292.957967 
L 95.436602 290.562467 
L 95.502871 282.447225 
L 95.569141 287.521697 
L 95.635411 229.111688 
L 95.70168 239.991288 
L 95.834219 289.908434 
L 95.900489 294.25031 
L 95.966758 292.430541 
L 96.033028 289.934073 
L 96.099297 291.226322 
L 96.165567 291.306413 
L 96.231837 294.401987 
L 96.298106 292.265979 
L 96.364376 292.777177 
L 96.430645 292.606293 
L 96.761993 294.422288 
L 96.828263 293.91112 
L 96.894532 294.838479 
L 96.960802 293.674674 
L 97.027071 294.218471 
L 97.15961 294.6559 
L 97.22588 294.623679 
L 97.292149 295.015275 
L 97.358419 294.961462 
L 97.490958 294.495435 
L 97.623497 294.980381 
L 97.689767 294.754926 
L 97.756036 295.027385 
L 97.888575 294.549792 
L 98.021115 295.419904 
L 98.087384 294.83704 
L 98.153654 295.046573 
L 98.219923 295.044631 
L 98.485001 293.885439 
L 98.551271 294.686281 
L 98.61754 294.547852 
L 98.75008 295.240817 
L 99.015158 293.396443 
L 99.147697 294.69695 
L 99.280236 294.782301 
L 99.479045 294.233877 
L 99.545314 294.40635 
L 99.611584 294.227353 
L 99.677853 294.473828 
L 99.744123 294.398135 
L 99.810392 294.212045 
L 99.876662 294.632738 
L 99.942932 293.628936 
L 100.009201 293.709196 
L 100.075471 293.510378 
L 100.274279 295.04813 
L 100.406818 294.783582 
L 100.605627 292.640498 
L 100.804436 294.215626 
L 101.003244 292.983995 
L 101.202053 294.220607 
L 101.400862 293.293296 
L 101.467131 294.508505 
L 101.533401 291.482899 
L 101.59967 292.725889 
L 101.66594 293.664004 
L 101.864749 289.293323 
L 101.997288 292.325653 
L 102.262366 276.958127 
L 102.394905 289.162472 
L 102.461175 280.741276 
L 102.527444 284.561097 
L 102.593714 288.001021 
L 102.726253 240.550812 
L 102.792522 111.87247 
L 102.858792 164.623338 
L 102.925062 88.861287 
L 103.057601 268.903495 
L 103.12387 288.426169 
L 103.19014 284.071317 
L 103.256409 286.540829 
L 103.322679 279.257948 
L 103.388948 280.69383 
L 103.587757 291.442725 
L 103.654027 288.426764 
L 103.720296 289.887346 
L 103.852835 293.585899 
L 103.919105 291.422222 
L 103.985374 291.695352 
L 104.051644 292.492683 
L 104.117913 291.378803 
L 104.184183 292.878553 
L 104.250453 292.567023 
L 104.515531 294.390414 
L 104.5818 293.835756 
L 104.64807 294.36868 
L 104.780609 292.99699 
L 104.846879 293.47291 
L 104.913148 293.755701 
L 104.979418 293.71631 
L 105.045687 293.746223 
L 105.178226 295.302535 
L 105.310765 293.238317 
L 105.377035 293.388743 
L 105.509574 294.181025 
L 105.575844 293.430162 
L 105.642113 294.590432 
L 105.708383 294.289804 
L 105.774652 294.924351 
L 105.907191 294.239793 
L 105.973461 295.027316 
L 106.106 293.838735 
L 106.17227 293.77968 
L 106.238539 293.945068 
L 106.304809 293.510877 
L 106.371078 291.160429 
L 106.437348 292.617207 
L 106.503617 295.128098 
L 106.569887 294.653733 
L 106.636157 294.929051 
L 106.702426 294.730897 
L 106.834965 293.988792 
L 106.901235 294.464207 
L 106.967504 293.620991 
L 107.033774 294.942377 
L 107.100043 294.564546 
L 107.298852 295.150782 
L 107.365122 294.669531 
L 107.431391 294.95758 
L 107.497661 294.902515 
L 107.56393 294.652261 
L 107.6302 294.701265 
L 107.696469 294.872756 
L 107.762739 294.51008 
L 107.961548 295.04649 
L 108.027817 294.31909 
L 108.094087 294.455227 
L 108.226626 294.464927 
L 108.359165 295.16721 
L 108.425435 294.878722 
L 108.491704 294.975842 
L 108.557974 294.819716 
L 108.624243 295.163545 
L 108.690513 294.927173 
L 108.756782 294.924489 
L 108.823052 295.202137 
L 108.955591 293.886758 
L 109.02186 294.244667 
L 109.08813 294.540539 
L 109.220669 292.016002 
L 109.419478 294.520245 
L 109.485747 294.506181 
L 109.618286 293.996574 
L 109.750826 291.120852 
L 109.817095 293.316332 
L 110.082173 283.8446 
L 110.148443 290.729719 
L 110.214712 198.904547 
L 110.280982 225.070224 
L 110.413521 288.316505 
L 110.479791 286.419959 
L 110.61233 289.708775 
L 110.678599 290.416786 
L 110.744869 289.507769 
L 110.943678 294.259239 
L 111.009947 294.444084 
L 111.076217 293.461634 
L 111.142486 293.476879 
L 111.275025 293.789597 
L 111.341295 293.590108 
L 111.407564 293.680939 
L 111.540104 295.132862 
L 111.672643 293.085982 
L 111.738912 294.310789 
L 111.805182 294.113399 
L 111.871451 294.470613 
L 112.00399 293.834991 
L 112.269069 294.993861 
L 112.335338 294.952123 
L 112.732956 294.379372 
L 112.799225 294.857104 
L 112.865495 294.566337 
L 112.931764 294.013655 
L 113.064303 294.615718 
L 113.130573 293.852497 
L 113.196842 294.156866 
L 113.263112 295.162201 
L 113.329382 294.954832 
L 113.395651 294.656429 
L 113.461921 294.820718 
L 113.52819 294.76839 
L 113.59446 294.123834 
L 113.660729 294.500854 
L 113.726999 294.724499 
L 113.859538 294.116578 
L 113.925807 295.07719 
L 113.992077 294.44151 
L 114.124616 294.633684 
L 114.190886 294.504767 
L 114.257155 294.061194 
L 114.455964 294.714186 
L 114.522233 294.890976 
L 114.787312 293.64665 
L 114.853581 294.764491 
L 114.919851 294.664522 
L 115.05239 294.676059 
L 115.184929 294.136058 
L 115.251199 294.591015 
L 115.383738 293.749539 
L 115.516277 294.67248 
L 115.582546 294.886684 
L 115.715085 294.082116 
L 115.781355 294.47914 
L 116.112703 292.244163 
L 116.245242 293.827892 
L 116.444051 292.018842 
L 116.51032 291.751108 
L 116.642859 288.981053 
L 116.841668 292.31378 
L 116.907937 292.118401 
L 116.974207 292.264697 
L 117.239285 244.991221 
L 117.305555 279.006616 
L 117.438094 140.259339 
L 117.703172 282.176479 
L 117.769442 275.630504 
L 117.96825 289.66777 
L 118.03452 293.315729 
L 118.100789 292.786661 
L 118.167059 291.500641 
L 118.233329 292.017155 
L 118.432137 292.790569 
L 118.498407 292.732096 
L 118.630946 292.654922 
L 118.697215 293.488532 
L 118.763485 292.765538 
L 118.896024 293.751717 
L 118.962294 293.578892 
L 119.028563 293.74363 
L 119.227372 294.998203 
L 119.293641 294.919276 
L 119.359911 295.022034 
L 119.49245 293.963305 
L 119.691259 294.45598 
L 119.757528 294.290687 
L 119.823798 294.682386 
L 119.890067 294.55232 
L 120.022606 295.174695 
L 120.088876 294.932857 
L 120.155146 294.474854 
L 120.221415 295.38857 
L 120.287685 294.951658 
L 120.552763 294.000006 
L 120.619032 294.043685 
L 120.751572 295.426858 
L 120.817841 295.289194 
L 120.95038 294.797951 
L 121.01665 295.165713 
L 121.082919 294.799548 
L 121.149189 295.046883 
L 121.281728 294.504582 
L 121.347998 295.04185 
L 121.546806 294.059804 
L 121.613076 295.214219 
L 121.679345 295.148788 
L 121.745615 295.080442 
L 121.811884 295.240412 
L 121.878154 294.578899 
L 121.944424 295.120006 
L 122.010693 294.919363 
L 122.076963 294.608376 
L 122.143232 294.762374 
L 122.275771 295.074068 
L 122.40831 294.797841 
L 122.54085 294.611644 
L 122.673389 295.261753 
L 122.739658 294.748665 
L 122.805928 294.980714 
L 122.938467 295.165536 
L 123.137276 294.627166 
L 123.269815 294.884988 
L 123.534893 293.610541 
L 123.667432 295.088976 
L 123.733701 295.016507 
L 123.99878 293.559628 
L 124.065049 293.717978 
L 124.197588 291.635313 
L 124.263858 292.247274 
L 124.396397 285.828167 
L 124.528936 289.817634 
L 124.595206 289.221601 
L 124.794014 262.611025 
L 124.926553 288.741948 
L 124.992823 283.451735 
L 125.191632 292.203905 
L 125.324171 294.7523 
L 125.39044 293.998504 
L 125.522979 294.753352 
L 125.589249 294.819671 
L 125.655519 294.475997 
L 125.721788 294.957484 
L 125.854327 294.225792 
L 125.920597 294.555512 
L 125.986866 293.762188 
L 126.119405 295.149657 
L 126.185675 295.100097 
L 126.251945 294.75004 
L 126.384484 295.102339 
L 126.450753 294.997996 
L 126.583292 295.336972 
L 126.715831 294.794791 
L 126.782101 294.830993 
L 126.91464 294.852276 
L 126.98091 294.72986 
L 127.113449 294.990486 
L 127.179718 294.720116 
L 127.245988 294.772913 
L 127.312257 294.860601 
L 127.378527 294.448404 
L 127.511066 295.343193 
L 127.577336 295.305833 
L 127.776144 294.872635 
L 127.842414 294.822598 
L 128.041223 292.900352 
L 128.107492 293.340979 
L 128.306301 294.46673 
L 128.37257 294.121751 
L 128.43884 295.398872 
L 128.505109 294.932054 
L 128.571379 294.897134 
L 128.637648 294.412636 
L 128.703918 295.248712 
L 128.770188 295.160126 
L 128.836457 295.204969 
L 128.902727 294.887379 
L 128.968996 294.909477 
L 129.035266 295.305915 
L 129.101535 294.551539 
L 129.167805 295.012638 
L 129.366614 294.067978 
L 129.432883 294.510789 
L 129.499153 294.200488 
L 129.631692 292.834265 
L 129.8305 294.408967 
L 129.89677 294.204235 
L 130.029309 295.267173 
L 130.095579 294.676547 
L 130.161848 295.124854 
L 130.228118 294.36633 
L 130.294387 294.881836 
L 130.426926 294.239732 
L 130.493196 293.666171 
L 130.625735 294.645205 
L 130.692005 294.794573 
L 130.758274 292.994363 
L 130.824544 294.326777 
L 131.023352 289.427536 
L 131.089622 291.70281 
L 131.155892 291.574114 
L 131.288431 290.764688 
L 131.42097 281.412027 
L 131.487239 289.19078 
L 131.553509 285.683838 
L 131.619778 275.193338 
L 131.686048 283.345433 
L 131.752318 173.247773 
L 131.818587 231.063175 
L 131.884857 146.626545 
L 131.951126 259.599996 
L 132.017396 237.786696 
L 132.083665 122.409606 
L 132.216204 286.180237 
L 132.282474 281.857975 
L 132.348744 283.643458 
L 132.481283 289.383118 
L 132.547552 294.900868 
L 132.613822 292.327763 
L 132.746361 287.297999 
L 132.94517 293.798964 
L 133.011439 294.884327 
L 133.143978 292.333108 
L 133.210248 293.211859 
L 133.276517 291.520682 
L 133.342787 294.141957 
L 133.409056 293.803773 
L 133.475326 294.0247 
L 133.674135 293.335296 
L 133.806674 294.421491 
L 133.872943 294.071416 
L 133.939213 293.693305 
L 134.071752 294.564802 
L 134.138021 294.507725 
L 134.4031 293.812236 
L 134.535639 294.708295 
L 134.601908 293.985946 
L 134.668178 294.345945 
L 134.734447 294.081453 
L 134.933256 295.016173 
L 135.198334 293.474895 
L 135.397143 294.788592 
L 135.463413 294.452461 
L 135.529682 294.52758 
L 135.595952 294.901364 
L 135.662221 294.648455 
L 135.728491 294.748564 
L 135.927299 293.681506 
L 136.059839 294.952702 
L 136.126108 294.837616 
L 136.192378 295.088106 
L 136.258647 295.003082 
L 136.324917 294.512663 
L 136.457456 295.402859 
L 136.523725 295.198954 
L 136.589995 295.006971 
L 136.656265 295.331883 
L 136.722534 294.547635 
L 136.788804 294.748332 
L 136.921343 294.901829 
L 136.987612 294.728313 
L 137.053882 294.822537 
L 137.120151 294.714214 
L 137.186421 294.962571 
L 137.31896 294.68697 
L 137.451499 295.092964 
L 137.517769 294.586107 
L 137.584038 294.638423 
L 137.650308 295.019091 
L 137.716577 294.827181 
L 137.782847 294.841737 
L 137.849117 295.083229 
L 137.915386 294.583302 
L 137.981656 294.845996 
L 138.047925 295.051979 
L 138.114195 294.163876 
L 138.180464 294.38619 
L 138.379273 292.497877 
L 138.445543 292.843971 
L 138.511812 294.285293 
L 138.578082 292.680907 
L 138.644351 293.626501 
L 138.710621 293.564838 
L 138.77689 294.286462 
L 138.84316 294.247829 
L 138.909429 294.179588 
L 138.975699 285.055389 
L 139.041968 287.021076 
L 139.174508 278.468671 
L 139.307047 236.166264 
L 139.373316 178.793495 
L 139.505855 290.973771 
L 139.572125 294.221964 
L 139.638394 293.791995 
L 139.704664 293.992869 
L 139.903473 292.765694 
L 139.969742 292.850364 
L 140.036012 293.182281 
L 140.102281 292.878938 
L 140.168551 293.07761 
L 140.30109 292.578262 
L 140.433629 293.537401 
L 140.499899 293.303945 
L 140.632438 294.115294 
L 140.698707 293.639817 
L 140.764977 293.658099 
L 141.030055 294.473293 
L 141.295133 293.90631 
L 141.361403 293.963666 
L 141.493942 294.320268 
L 141.560212 294.021725 
L 141.626481 294.047419 
L 141.82529 294.700099 
L 141.891559 293.965562 
L 142.024098 294.540629 
L 142.156638 293.971213 
L 142.289177 294.072596 
L 142.355446 294.193478 
L 142.421716 294.611567 
L 142.487985 294.523627 
L 142.686794 294.038993 
L 142.819333 294.965612 
L 142.885603 294.743049 
L 142.951872 293.849187 
L 143.018142 294.752361 
L 143.084411 293.514419 
L 143.150681 293.67119 
L 143.28322 294.611955 
L 143.34949 294.524967 
L 143.415759 294.605409 
L 143.482029 294.249644 
L 143.548298 294.38006 
L 143.614568 294.445088 
L 143.680837 294.181259 
L 143.747107 294.324744 
L 143.879646 294.616746 
L 143.945915 294.37602 
L 144.012185 294.483358 
L 144.144724 294.616002 
L 144.343533 294.05127 
L 144.409802 294.631196 
L 144.476072 294.577173 
L 144.542341 294.286237 
L 144.608611 294.415358 
L 144.674881 294.738311 
L 144.74115 294.598308 
L 144.939959 294.222492 
L 145.072498 294.708332 
L 145.271307 293.38589 
L 145.337576 293.541434 
L 145.403846 293.139831 
L 145.470115 293.236155 
L 145.602654 294.934307 
L 145.668924 294.541273 
L 145.735193 294.139855 
L 145.934002 290.349619 
L 146.000272 290.905713 
L 146.066541 288.76795 
L 146.132811 290.359522 
L 146.19908 287.238642 
L 146.331619 291.794428 
L 146.397889 283.980647 
L 146.464159 251.754184 
L 146.530428 293.11337 
L 146.596698 265.932954 
L 146.662967 259.523967 
L 146.795506 292.605094 
L 146.861776 291.868231 
L 146.928045 289.292308 
L 146.994315 293.209225 
L 147.060585 291.340658 
L 147.259393 295.326279 
L 147.325663 294.422664 
L 147.391932 294.904668 
L 147.458202 294.57645 
L 147.590741 294.921379 
L 147.657011 294.861352 
L 147.72328 295.165055 
L 147.78955 295.018989 
L 147.855819 294.885906 
L 147.922089 294.97479 
L 147.988358 295.337733 
L 148.054628 295.235156 
L 148.120897 295.141239 
L 148.253437 294.764931 
L 148.452245 295.280552 
L 148.518515 295.174892 
L 148.651054 295.47332 
L 148.783593 295.208941 
L 148.849862 295.347462 
L 148.982402 295.133574 
L 149.114941 295.23009 
L 149.18121 295.015362 
L 149.24748 295.07943 
L 149.446288 295.412455 
L 149.578828 294.910555 
L 149.711367 295.36889 
L 149.843906 294.848322 
L 150.042714 295.236473 
L 150.175254 294.891928 
L 150.241523 295.037051 
L 150.307793 294.971177 
L 150.440332 294.717457 
L 150.572871 295.254037 
L 150.77168 294.995805 
L 150.837949 295.199071 
L 150.904219 295.158942 
L 151.036758 295.121337 
L 151.235566 295.257902 
L 151.434375 295.468672 
L 151.500645 295.377026 
L 151.633184 295.330145 
L 151.898262 295.068566 
L 152.030801 295.287801 
L 152.097071 295.214053 
L 152.16334 295.165315 
L 152.22961 295.380749 
L 152.494688 294.865765 
L 152.560958 295.026272 
L 152.627227 294.839678 
L 152.693497 294.872296 
L 152.759766 294.926972 
L 152.826036 295.399045 
L 152.958575 294.507718 
L 153.024844 295.406781 
L 153.223653 293.568055 
L 153.356192 294.270717 
L 153.422462 292.05972 
L 153.488731 294.775263 
L 153.753809 283.84885 
L 153.820079 288.446502 
L 153.886349 241.942296 
L 153.952618 251.740569 
L 154.085157 289.523412 
L 154.151427 294.700868 
L 154.217696 293.171731 
L 154.350235 292.032168 
L 154.482775 294.097478 
L 154.549044 293.740422 
L 154.615314 293.944033 
L 154.814122 295.236895 
L 154.946661 294.261338 
L 155.012931 294.59835 
L 155.079201 294.338387 
L 155.21174 294.653751 
L 155.543087 294.760484 
L 155.609357 294.839458 
L 155.675627 294.671805 
L 155.741896 294.713199 
L 155.874435 295.065792 
L 156.006974 294.372374 
L 156.073244 294.396514 
L 156.139513 294.30166 
L 156.272053 294.968932 
L 156.404592 294.747218 
L 156.537131 294.860242 
L 156.66967 294.56892 
L 156.735939 294.899141 
L 156.802209 294.761657 
L 156.868479 294.517376 
L 157.001018 295.241242 
L 157.133557 294.598565 
L 157.199826 295.005118 
L 157.266096 294.767522 
L 157.332365 294.616233 
L 157.464905 293.408531 
L 157.531174 294.687155 
L 157.597444 294.080917 
L 157.663713 295.001465 
L 157.729983 294.460762 
L 157.862522 294.743606 
L 157.928791 294.186144 
L 157.995061 294.264208 
L 158.061331 294.273486 
L 158.19387 294.647343 
L 158.392678 293.351048 
L 158.591487 294.66488 
L 158.724026 294.196536 
L 158.790296 295.423987 
L 158.856565 294.986254 
L 158.922835 294.378114 
L 158.989104 294.948756 
L 159.055374 294.780153 
L 159.121643 294.959879 
L 159.187913 293.598523 
L 159.254182 294.473919 
L 159.452991 291.644509 
L 159.58553 291.997302 
L 159.784339 293.890084 
L 159.850608 293.413976 
L 159.916878 293.760265 
L 160.049417 292.208284 
L 160.115687 292.694217 
L 160.181956 291.2589 
L 160.248226 293.05374 
L 160.380765 282.272833 
L 160.447034 288.092604 
L 160.513304 284.577273 
L 160.579574 284.694693 
L 160.645843 256.737451 
L 160.712113 278.055227 
L 160.778382 275.347009 
L 160.844652 271.300069 
L 160.977191 224.404729 
L 161.04346 250.11347 
L 161.10973 236.071485 
L 161.176 203.245992 
L 161.374808 280.612099 
L 161.573617 292.637067 
L 161.639886 287.130878 
L 161.706156 289.125482 
L 161.772426 294.080775 
L 161.838695 292.57686 
L 161.904965 292.84931 
L 162.103773 293.993324 
L 162.236312 293.865481 
L 162.302582 293.139439 
L 162.368852 293.264923 
L 162.501391 294.845504 
L 162.56766 294.575075 
L 162.63393 293.223186 
L 162.766469 294.746627 
L 162.832738 294.637502 
L 162.899008 294.98605 
L 162.965278 294.884282 
L 163.031547 294.401003 
L 163.164086 295.292248 
L 163.296625 294.842085 
L 163.429164 295.111844 
L 163.561704 294.777372 
L 163.627973 294.820612 
L 163.694243 295.383799 
L 163.760512 295.254182 
L 163.826782 295.076017 
L 163.893051 295.306068 
L 163.959321 295.252111 
L 164.09186 295.197074 
L 164.158129 294.81549 
L 164.290669 295.282292 
L 164.423208 294.936452 
L 164.489477 295.115897 
L 164.555747 294.862574 
L 164.688286 295.14372 
L 164.754555 294.770835 
L 164.820825 295.390333 
L 164.887095 295.296676 
L 164.953364 294.850864 
L 165.019634 294.939199 
L 165.218442 295.296918 
L 165.350981 294.965553 
L 165.417251 295.198413 
L 165.483521 294.978605 
L 165.682329 295.371846 
L 165.748599 295.359914 
L 165.814868 295.16016 
L 165.881138 295.312855 
L 165.947407 295.409411 
L 166.013677 295.211211 
L 166.079947 295.280013 
L 166.146216 295.336484 
L 166.345025 295.025748 
L 166.411294 295.260128 
L 166.477564 295.173272 
L 166.610103 294.854521 
L 166.742642 295.476855 
L 167.00772 295.085767 
L 167.07399 295.321506 
L 167.140259 294.773415 
L 167.206529 294.940553 
L 167.471607 295.37006 
L 167.670416 294.770127 
L 167.736685 294.498804 
L 167.802955 293.550351 
L 167.869225 293.793943 
L 167.935494 294.058749 
L 168.001764 295.148107 
L 168.333111 288.813103 
L 168.399381 291.005596 
L 168.465651 231.402667 
L 168.53192 263.549267 
L 168.730729 291.208887 
L 169.062076 293.842357 
L 169.260885 294.718616 
L 169.327155 294.623012 
L 169.525963 294.161088 
L 169.592233 295.12684 
L 169.658502 294.812067 
L 169.724772 294.916418 
L 169.857311 294.198601 
L 169.98985 294.840023 
L 170.05612 294.710973 
L 170.122389 294.106786 
L 170.188659 295.110235 
L 170.254928 295.071853 
L 170.321198 295.191574 
L 170.520007 294.588901 
L 170.586276 294.81956 
L 170.652546 294.694208 
L 170.917624 294.897979 
L 170.983894 294.822117 
L 171.182702 295.275758 
L 171.248972 295.364563 
L 171.381511 295.210414 
L 171.51405 294.446605 
L 171.58032 294.661364 
L 171.646589 294.064769 
L 171.712859 294.348702 
L 171.911667 295.340445 
L 172.044206 293.980485 
L 172.110476 295.02305 
L 172.176746 294.728496 
L 172.309285 295.15082 
L 172.375554 295.098063 
L 172.441824 295.014295 
L 172.508093 295.145662 
L 172.574363 294.901942 
L 172.640632 295.084045 
L 172.706902 294.918226 
L 172.839441 295.088425 
L 173.369598 295.144089 
L 173.435867 294.992187 
L 173.568406 295.320913 
L 173.767215 294.977842 
L 173.899754 295.074499 
L 173.966023 295.028463 
L 174.032293 294.846105 
L 174.098563 295.12464 
L 174.164832 295.023237 
L 174.363641 295.273728 
L 174.42991 295.033483 
L 174.49618 295.225326 
L 174.562449 294.697712 
L 174.628719 294.800941 
L 174.827528 295.244266 
L 175.092606 294.04836 
L 175.158875 294.21186 
L 175.291415 294.006461 
L 175.490223 290.599149 
L 175.556493 286.868428 
L 175.689032 294.103299 
L 175.755301 286.159828 
L 175.821571 292.710603 
L 175.887841 292.49306 
L 176.02038 294.404074 
L 176.219188 295.259412 
L 176.285458 295.11332 
L 176.417997 295.098628 
L 176.484267 294.805963 
L 176.616806 295.076189 
L 176.749345 294.647067 
L 176.815614 295.168344 
L 176.881884 295.042892 
L 177.014423 294.993174 
L 177.080693 295.279358 
L 177.146962 294.957246 
L 177.213232 295.149762 
L 177.544579 294.897733 
L 177.610849 294.922854 
L 177.677119 294.810428 
L 178.008466 295.324952 
L 178.074736 294.818301 
L 178.141005 294.923776 
L 178.406084 294.94444 
L 178.472353 295.106952 
L 178.538623 294.795519 
L 178.671162 295.088466 
L 178.803701 294.85134 
L 178.86997 295.306253 
L 178.93624 294.873142 
L 179.00251 295.230139 
L 179.068779 295.051122 
L 179.201318 294.873708 
L 179.267588 294.860067 
L 179.400127 295.103074 
L 179.466396 294.597518 
L 179.665205 295.250316 
L 179.731475 295.05944 
L 179.797744 295.113747 
L 179.864014 295.183334 
L 180.062822 294.979775 
L 180.261631 294.966322 
L 180.39417 295.068719 
L 180.46044 294.863172 
L 180.526709 294.974895 
L 180.725518 295.031615 
L 180.858057 295.056266 
L 181.189405 294.990982 
L 181.388214 295.143468 
L 181.454483 294.812695 
L 181.587022 295.17684 
L 181.785831 294.898294 
L 181.98464 295.033168 
L 182.050909 294.779207 
L 182.117179 295.063272 
L 182.249718 294.352718 
L 182.382257 295.110857 
L 182.514796 294.92604 
L 182.581066 295.124219 
L 182.779874 293.840333 
L 182.846144 294.061248 
L 182.978683 286.021678 
L 183.044952 266.488101 
L 183.111222 291.067478 
L 183.177492 290.774291 
L 183.44257 293.417636 
L 183.707648 294.502703 
L 183.840187 293.954702 
L 183.906457 294.323427 
L 183.972726 294.161437 
L 184.038996 293.875439 
L 184.105265 294.563898 
L 184.171535 294.203297 
L 184.370343 294.62554 
L 184.436613 294.183349 
L 184.502883 294.20114 
L 184.635422 294.371771 
L 184.701691 294.219731 
L 184.767961 294.787546 
L 184.83423 294.464736 
L 184.9005 293.536181 
L 184.966769 294.156383 
L 185.033039 294.175664 
L 185.099309 294.381261 
L 185.165578 294.31243 
L 185.231848 294.23709 
L 185.430656 294.801064 
L 185.496926 294.450407 
L 185.563195 294.755066 
L 185.629465 294.585846 
L 186.093352 293.002894 
L 186.35843 294.900709 
L 186.623508 292.508362 
L 186.756047 294.119529 
L 186.822317 293.933345 
L 186.888587 294.13834 
L 186.954856 293.896811 
L 187.021126 293.928883 
L 187.153665 294.804699 
L 187.286204 292.721168 
L 187.352473 294.431508 
L 187.418743 293.309324 
L 187.551282 292.828967 
L 187.683821 294.808503 
L 187.750091 293.481418 
L 187.81636 293.832188 
L 187.88263 293.835353 
L 188.081439 290.277182 
L 188.147708 290.093433 
L 188.213978 289.339891 
L 188.611595 293.518 
L 188.744134 290.209549 
L 188.810404 292.731734 
L 189.009212 286.705231 
L 189.141751 293.121477 
L 189.208021 290.956446 
L 189.34056 287.244584 
L 189.605638 262.57826 
L 189.671908 219.787518 
L 189.870716 287.424271 
L 190.003256 240.68851 
L 190.069525 259.736425 
L 190.135795 155.040333 
L 190.202064 225.660433 
L 190.268334 235.348263 
L 190.400873 286.529418 
L 190.533412 289.458637 
L 190.599682 287.043732 
L 190.665951 291.997162 
L 190.732221 290.818052 
L 190.931029 289.119178 
L 190.997299 291.440346 
L 191.063568 290.209955 
L 191.129838 290.585489 
L 191.196108 288.844294 
L 191.328647 291.225976 
L 191.394916 290.03098 
L 191.726264 294.870223 
L 191.792534 294.564148 
L 191.858803 295.151455 
L 191.925073 294.775991 
L 191.991342 293.883947 
L 192.057612 293.95885 
L 192.123881 293.755591 
L 192.190151 293.950337 
L 192.32269 292.653236 
L 192.455229 293.398604 
L 192.521499 293.371864 
L 192.587768 293.3788 
L 192.919116 294.677289 
L 193.051655 294.245257 
L 193.117925 294.457809 
L 193.383003 293.562871 
L 193.449272 293.788813 
L 193.581812 294.687236 
L 193.714351 294.721471 
L 193.84689 294.997552 
L 193.913159 294.327352 
L 193.979429 294.66054 
L 194.045698 294.250522 
L 194.111968 294.331882 
L 194.178237 294.782681 
L 194.244507 294.754694 
L 194.575855 294.473866 
L 194.708394 295.028152 
L 194.840933 294.458943 
L 194.907203 294.872385 
L 194.973472 294.845628 
L 195.106011 294.498053 
L 195.172281 294.89483 
L 195.23855 294.737959 
L 195.30482 294.688593 
L 195.371089 294.919525 
L 195.437359 294.877242 
L 195.702437 294.833832 
L 195.768707 294.702893 
L 195.901246 294.963576 
L 195.967515 294.553761 
L 196.100055 295.046914 
L 196.166324 294.930993 
L 196.232594 294.552317 
L 196.365133 295.109016 
L 196.431402 295.103088 
L 196.563941 295.245023 
L 196.696481 294.583801 
L 196.82902 295.393789 
L 197.027828 294.012263 
L 197.094098 294.04834 
L 197.226637 295.377023 
L 197.491715 290.219578 
L 197.624254 274.170692 
L 197.756793 293.77508 
L 197.823063 294.097658 
L 197.889333 293.826961 
L 198.021872 294.961695 
L 198.088141 294.461408 
L 198.22068 294.778325 
L 198.28695 294.704486 
L 198.485759 295.002213 
L 198.552028 294.986347 
L 198.750837 295.248107 
L 198.883376 294.845904 
L 199.082184 295.015129 
L 199.148454 295.192675 
L 199.214724 295.05395 
L 199.347263 295.13463 
L 199.413532 295.27016 
L 199.612341 294.921196 
L 199.74488 295.098177 
L 199.877419 294.977895 
L 200.009958 295.132119 
L 200.076228 295.038892 
L 200.275036 295.334647 
L 200.341306 295.036498 
L 200.407576 295.143135 
L 200.540115 294.689475 
L 200.738923 295.37187 
L 200.871462 295.264333 
L 200.937732 295.33011 
L 201.070271 294.680283 
L 201.20281 294.80614 
L 201.26908 294.871766 
L 201.401619 295.252418 
L 201.467888 295.155533 
L 201.534158 295.202903 
L 201.600428 295.297993 
L 201.732967 294.934677 
L 201.799236 294.931596 
L 201.998045 295.245243 
L 202.064314 295.034013 
L 202.130584 295.219166 
L 202.196854 295.13601 
L 202.263123 295.053071 
L 202.329393 295.430678 
L 202.395662 295.366599 
L 202.528201 295.276078 
L 202.594471 295.306542 
L 202.72701 294.895681 
L 202.859549 294.824877 
L 202.992088 295.062278 
L 203.058358 294.831977 
L 203.190897 295.315183 
L 203.389706 294.981431 
L 203.455975 295.197938 
L 203.522245 294.567029 
L 203.588514 294.584574 
L 203.721053 295.31758 
L 203.787323 295.076475 
L 203.853592 294.352766 
L 203.919862 294.676569 
L 203.986131 295.011759 
L 204.052401 282.080708 
L 204.118671 284.702364 
L 204.18494 293.312258 
L 204.25121 290.959549 
L 204.317479 293.726422 
L 204.383749 289.842593 
L 204.450018 289.933533 
L 204.516288 292.515267 
L 204.582557 290.503905 
L 204.648827 292.307454 
L 204.715097 287.579118 
L 204.913905 293.587266 
L 205.046444 294.437071 
L 205.112714 294.505418 
L 205.245253 295.139235 
L 205.377792 294.467875 
L 205.510331 295.258411 
L 205.576601 295.126717 
L 205.64287 294.982502 
L 205.70914 295.299563 
L 205.775409 294.923602 
L 205.841679 295.056068 
L 205.907949 295.071705 
L 206.040488 295.469886 
L 206.305566 295.027241 
L 206.504375 295.332852 
L 206.636914 295.328916 
L 206.703183 295.012743 
L 206.769453 295.089867 
L 206.835722 295.281772 
L 206.901992 295.228093 
L 207.100801 295.070782 
L 207.23334 295.296907 
L 207.365879 295.261065 
L 207.432148 295.3908 
L 207.498418 295.319948 
L 207.763496 295.223857 
L 207.829766 295.476064 
L 207.896035 295.393836 
L 207.962305 295.210616 
L 208.028574 295.385349 
L 208.094844 294.920997 
L 208.161113 295.047008 
L 208.293653 295.011406 
L 208.426192 295.303204 
L 208.492461 295.242919 
L 208.757539 295.01689 
L 208.956348 295.295757 
L 209.088887 295.396578 
L 209.155157 295.297631 
L 209.221426 295.382112 
L 209.420235 295.310022 
L 209.552774 295.382331 
L 209.619044 295.437851 
L 209.685313 295.286186 
L 209.751583 295.386684 
L 209.817852 295.278631 
L 209.884122 295.368102 
L 209.950391 295.319809 
L 210.016661 295.433374 
L 210.08293 295.211028 
L 210.1492 295.241573 
L 210.21547 295.28072 
L 210.281739 295.450011 
L 210.348009 295.401039 
L 210.414278 295.421994 
L 210.480548 295.250712 
L 210.546817 295.316285 
L 210.679356 295.349032 
L 210.878165 295.157044 
L 210.944435 295.390202 
L 211.010704 295.342842 
L 211.275782 294.972052 
L 211.342052 295.036314 
L 211.408322 295.370344 
L 211.474591 295.321077 
L 211.6734 294.997744 
L 211.805939 295.372608 
L 212.004748 294.064453 
L 212.071017 294.384602 
L 212.137287 290.461566 
L 212.203556 292.652452 
L 212.269826 294.699023 
L 212.336095 294.527323 
L 212.468634 295.253967 
L 212.667443 295.113696 
L 212.733713 295.054989 
L 212.932521 295.462391 
L 213.13133 295.286338 
L 213.1976 295.34727 
L 213.263869 295.240032 
L 213.330139 295.283537 
L 213.396408 295.448737 
L 213.462678 295.268611 
L 213.528947 295.457056 
L 213.595217 295.380812 
L 213.794025 295.395816 
L 214.58926 295.226284 
L 214.920608 295.434169 
L 215.185686 295.260911 
L 215.251956 295.372004 
L 215.384495 295.18781 
L 215.450764 295.435288 
L 215.649573 295.108882 
L 215.715843 295.34773 
L 215.782112 295.187539 
L 215.848382 295.3275 
L 215.914651 295.168172 
L 215.980921 295.228392 
L 216.04719 295.399104 
L 216.11346 295.335677 
L 216.378538 295.257275 
L 216.643616 295.329841 
L 216.709886 295.186951 
L 216.908695 295.367439 
L 216.974964 295.27345 
L 217.107503 295.415782 
L 217.173773 295.250373 
L 217.240042 295.324242 
L 217.306312 295.278263 
L 217.372581 295.422008 
L 217.63766 294.82167 
L 217.703929 294.935146 
L 217.902738 295.361051 
L 218.035277 294.668626 
L 218.167816 294.872978 
L 218.234086 295.176405 
L 218.300355 295.095905 
L 218.366625 294.569274 
L 218.432894 294.582312 
L 218.499164 294.595829 
L 218.697972 291.742119 
L 218.764242 293.868466 
L 218.830512 293.3051 
L 218.896781 293.26495 
L 218.963051 293.517059 
L 219.161859 284.146683 
L 219.228129 289.285515 
L 219.294398 281.570775 
L 219.360668 287.420269 
L 219.426938 277.918275 
L 219.559477 291.774642 
L 219.758285 295.197803 
L 219.824555 295.168787 
L 220.023364 294.529382 
L 220.222172 295.338786 
L 220.288442 294.369271 
L 220.354711 295.059371 
L 220.420981 295.021252 
L 220.48725 295.268194 
L 220.61979 294.762607 
L 221.083676 295.202481 
L 221.282485 295.235677 
L 221.348755 295.3623 
L 221.547563 295.157758 
L 221.812642 295.169815 
L 222.01145 295.401682 
L 222.210259 295.18433 
L 222.276528 295.327219 
L 222.342798 295.115593 
L 222.409068 295.220872 
L 222.541607 295.271786 
L 222.607876 295.179115 
L 222.674146 295.273627 
L 222.806685 295.428436 
L 222.872954 295.351072 
L 223.005494 295.259618 
L 223.071763 295.376114 
L 223.138033 295.170082 
L 223.336841 295.402265 
L 223.734459 295.214594 
L 223.866998 295.40364 
L 223.933267 295.274796 
L 223.999537 295.425124 
L 224.132076 295.295774 
L 224.330885 295.400986 
L 224.463424 295.379669 
L 224.927311 295.342455 
L 225.05985 295.392003 
L 225.324928 295.130004 
L 225.457467 295.348259 
L 225.722545 295.01792 
L 225.788815 295.163257 
L 225.855084 295.030176 
L 225.921354 295.424654 
L 225.987623 295.221547 
L 226.120163 295.167503 
L 226.318971 294.766358 
L 226.51778 294.788393 
L 226.650319 293.732483 
L 226.716589 287.033877 
L 226.849128 294.217002 
L 226.915397 293.994773 
L 227.114206 295.088093 
L 227.180475 295.281999 
L 227.246745 295.227425 
L 227.313015 295.18672 
L 227.445554 295.009975 
L 227.578093 295.329631 
L 227.776901 295.188463 
L 227.909441 295.17598 
L 227.97571 295.145481 
L 228.174519 295.398383 
L 228.373327 295.253301 
L 228.505867 295.40849 
L 228.572136 295.303041 
L 228.638406 295.38235 
L 228.704675 295.312368 
L 228.770945 295.412122 
L 228.837214 295.330657 
L 229.102292 295.425297 
L 229.168562 295.218413 
L 229.234832 295.322416 
L 229.698718 295.315278 
L 229.897527 295.431182 
L 230.030066 295.26884 
L 230.162605 295.391687 
L 230.361414 295.244811 
L 230.560223 295.447855 
L 231.421727 295.284402 
L 231.885614 295.444101 
L 232.216962 295.245586 
L 232.349501 295.448982 
L 233.012196 295.223601 
L 233.144735 295.365576 
L 233.409814 294.821025 
L 233.542353 295.389656 
L 233.608622 294.998938 
L 233.674892 293.879846 
L 233.741161 294.989556 
L 233.807431 294.489015 
L 233.8737 295.092347 
L 233.93997 294.577456 
L 234.006239 293.010586 
L 234.138779 295.108748 
L 234.205048 294.811842 
L 234.271318 295.232686 
L 234.337587 295.111817 
L 234.536396 295.410937 
L 234.602665 295.196552 
L 234.668935 295.273507 
L 234.735205 295.358603 
L 234.801474 295.188384 
L 234.867744 295.252648 
L 234.934013 295.435801 
L 235.000283 295.301415 
L 235.066552 295.451507 
L 235.265361 295.312039 
L 235.46417 295.424102 
L 236.126865 295.355078 
L 236.259404 295.446277 
L 236.458213 295.37005 
L 236.723291 295.398018 
L 236.988369 295.11259 
L 237.120909 295.247302 
L 237.187178 295.140782 
L 237.253448 295.295599 
L 237.319717 295.266064 
L 237.452256 295.252854 
L 237.584795 295.343054 
L 237.717335 295.234322 
L 238.114952 295.407539 
L 238.181221 295.270705 
L 238.247491 295.350657 
L 238.711378 295.256752 
L 238.843917 295.291568 
L 239.108995 295.2693 
L 239.241534 295.354058 
L 239.771691 295.204136 
L 239.83796 295.418444 
L 239.90423 295.364138 
L 240.036769 295.295783 
L 240.301847 295.29063 
L 240.368117 295.123235 
L 240.434386 295.169337 
L 240.566925 295.218573 
L 240.633195 295.064368 
L 240.699464 295.180181 
L 240.898273 294.914228 
L 241.030812 295.42555 
L 241.097082 295.169064 
L 241.163351 295.162086 
L 241.229621 294.444357 
L 241.29589 292.28852 
L 241.42843 294.984809 
L 241.627238 295.303173 
L 241.693508 295.096326 
L 241.759777 295.384409 
L 241.826047 295.293645 
L 242.024856 295.26964 
L 242.091125 294.931576 
L 242.157395 294.974849 
L 242.356203 294.8105 
L 242.422473 295.245433 
L 242.488742 295.06033 
L 242.753821 294.754409 
L 242.88636 295.248968 
L 243.018899 295.185787 
L 243.085168 295.022004 
L 243.283977 295.457881 
L 243.416516 295.137465 
L 243.482786 295.387273 
L 243.549055 294.959207 
L 243.615325 294.973054 
L 243.747864 295.24472 
L 243.880403 294.888586 
L 243.946673 295.165221 
L 244.476829 293.607009 
L 244.675638 295.035734 
L 244.741907 294.909469 
L 244.874446 294.078445 
L 244.940716 295.106919 
L 245.073255 292.444 
L 245.139525 293.372147 
L 245.205794 292.723564 
L 245.404603 294.969186 
L 245.470872 295.007301 
L 245.537142 295.382185 
L 245.669681 294.203222 
L 245.86849 292.517733 
L 246.001029 294.12623 
L 246.067298 291.88397 
L 246.133568 293.261592 
L 246.332377 291.170252 
L 246.398646 291.432374 
L 246.531185 293.659078 
L 246.663724 290.920838 
L 246.796263 293.346821 
L 246.995072 290.141515 
L 247.061342 290.698567 
L 247.127611 290.738585 
L 247.193881 294.429543 
L 247.26015 292.827837 
L 247.32642 291.134142 
L 247.458959 272.387515 
L 247.525229 294.188873 
L 247.591498 287.343397 
L 247.657768 287.422353 
L 247.922846 255.473463 
L 247.989115 140.183896 
L 248.121655 267.543276 
L 248.187924 292.78876 
L 248.320463 221.6459 
L 248.386733 139.527449 
L 248.453002 288.425239 
L 248.519272 279.159191 
L 248.651811 285.160929 
L 248.71808 284.381321 
L 248.85062 288.835182 
L 248.916889 288.170371 
L 249.115698 292.438417 
L 249.314506 294.016353 
L 249.447046 293.10685 
L 249.513315 293.929589 
L 249.645854 291.876091 
L 249.712124 292.497399 
L 249.844663 292.458792 
L 249.977202 294.849168 
L 250.043472 294.816793 
L 250.109741 294.445103 
L 250.24228 294.881588 
L 250.374819 293.958913 
L 250.507358 294.30239 
L 250.573628 294.228125 
L 250.639898 294.483126 
L 250.706167 294.024289 
L 250.772437 295.031002 
L 250.838706 293.999872 
L 250.904976 294.462269 
L 251.103784 293.783487 
L 251.170054 294.499762 
L 251.236324 294.251044 
L 251.435132 294.894151 
L 251.501402 294.812357 
L 251.567671 294.880466 
L 251.633941 294.443952 
L 251.70021 294.75928 
L 251.76648 294.709497 
L 251.83275 294.63199 
L 252.031558 295.06448 
L 252.097828 294.747497 
L 252.164097 294.806243 
L 252.230367 294.784012 
L 252.296636 294.904646 
L 252.429176 294.697725 
L 252.495445 294.759972 
L 252.561715 295.037251 
L 252.627984 294.415168 
L 252.694254 295.152439 
L 252.760523 295.004018 
L 252.959332 294.843814 
L 253.091871 294.942629 
L 253.158141 294.801263 
L 253.22441 295.172375 
L 253.29068 294.917873 
L 253.356949 294.681458 
L 253.423219 295.051551 
L 253.489488 294.866303 
L 253.754567 294.967914 
L 253.820836 295.207057 
L 253.887106 295.133466 
L 254.218453 294.847492 
L 254.284723 294.937367 
L 254.417262 294.983321 
L 254.483532 294.996647 
L 254.549801 295.203293 
L 254.616071 295.006716 
L 254.68234 295.101924 
L 254.814879 295.23406 
L 254.881149 295.115874 
L 254.947419 295.290166 
L 255.146227 295.000598 
L 255.212497 295.015703 
L 255.278766 295.159729 
L 255.345036 295.063698 
L 255.477575 295.017418 
L 255.543845 294.914088 
L 255.610114 294.530467 
L 255.676384 294.859405 
L 255.742653 294.826784 
L 255.808923 293.674361 
L 255.875192 294.253164 
L 256.007731 295.096204 
L 256.140271 294.816055 
L 256.27281 295.240815 
L 256.339079 295.134792 
L 256.405349 295.29977 
L 256.471618 295.204383 
L 256.537888 295.212415 
L 256.604157 295.092642 
L 256.670427 295.249374 
L 256.736697 295.145387 
L 256.869236 294.97261 
L 256.935505 295.090906 
L 257.001775 294.956 
L 257.200583 295.134752 
L 257.333123 295.100171 
L 257.531931 295.245359 
L 257.598201 295.046539 
L 257.66447 295.128725 
L 257.929549 295.081455 
L 258.128357 295.327714 
L 258.194627 295.058174 
L 258.260896 295.128511 
L 258.393435 295.114542 
L 258.857322 295.329539 
L 258.923592 295.194105 
L 258.989861 295.276956 
L 259.18867 295.22254 
L 259.453748 295.26254 
L 259.586287 295.122012 
L 259.718826 295.20575 
L 259.917635 295.132994 
L 259.983905 295.175587 
L 260.116444 295.064628 
L 260.182713 295.246087 
L 260.248983 295.205498 
L 260.315252 295.272457 
L 260.447792 295.059163 
L 260.514061 295.269794 
L 260.580331 295.236455 
L 260.911678 295.210645 
L 261.044218 295.21612 
L 262.10453 295.072062 
L 262.1708 295.008383 
L 262.23707 295.263088 
L 262.303339 295.209005 
L 262.369609 294.996205 
L 262.435878 295.10256 
L 262.700956 295.425345 
L 262.899765 294.586832 
L 262.966035 294.64538 
L 263.032304 294.895839 
L 263.098574 294.152122 
L 263.297382 295.366463 
L 263.429922 295.041218 
L 263.496191 295.130835 
L 263.562461 295.33064 
L 263.62873 295.229851 
L 263.761269 295.238981 
L 263.827539 295.336557 
L 263.893808 295.266093 
L 264.092617 295.232752 
L 264.291426 295.160085 
L 264.556504 295.276862 
L 265.020391 295.306481 
L 265.219199 295.172899 
L 265.285469 295.276601 
L 265.351739 295.167477 
L 265.418008 295.290656 
L 265.484278 295.22384 
L 265.683086 295.163017 
L 265.815625 295.312268 
L 266.146973 295.239505 
L 266.213243 295.081592 
L 266.279512 295.128656 
L 266.412051 295.193233 
L 266.478321 295.378546 
L 266.544591 295.323107 
L 266.942208 295.135679 
L 267.141017 295.319392 
L 267.406095 295.235053 
L 267.803712 295.247086 
L 267.936251 295.218092 
L 268.002521 295.336939 
L 268.06879 295.258223 
L 268.400138 295.268915 
L 269.52672 295.281047 
L 269.725529 295.281246 
L 269.924338 295.190487 
L 269.990607 295.249739 
L 270.189416 294.989589 
L 270.255686 295.004923 
L 270.321955 295.164474 
L 270.388225 293.79499 
L 270.454494 294.242964 
L 270.587033 295.192789 
L 270.719572 295.275631 
L 270.785842 295.164803 
L 270.852112 295.323267 
L 270.918381 295.235984 
L 271.11719 295.32715 
L 271.183459 295.188139 
L 271.249729 295.311493 
L 271.315998 295.266367 
L 271.514807 295.369228 
L 271.779885 295.266883 
L 271.978694 295.248923 
L 272.111233 295.356712 
L 272.376311 295.284633 
L 272.64139 295.280253 
L 272.972737 295.352217 
L 273.237816 295.306068 
L 273.304085 295.365162 
L 273.370355 295.224314 
L 273.436624 295.265164 
L 273.569163 295.378798 
L 273.701702 295.280088 
L 273.900511 295.32499 
L 273.966781 295.201052 
L 274.03305 295.287012 
L 274.231859 295.243723 
L 274.298128 295.179211 
L 274.496937 295.369352 
L 274.629476 295.260785 
L 274.894554 295.34242 
L 275.225902 295.30546 
L 275.49098 295.165696 
L 275.55725 295.424826 
L 275.623519 295.373015 
L 275.689789 295.132386 
L 275.756059 295.270293 
L 275.822328 295.394583 
L 275.888598 295.320075 
L 275.954867 295.197552 
L 276.021137 295.297799 
L 276.087406 295.231303 
L 276.153676 294.997321 
L 276.286215 295.419933 
L 276.485024 294.656361 
L 276.551293 294.808376 
L 276.617563 295.252079 
L 276.683832 293.54958 
L 276.750102 293.675012 
L 276.882641 295.23122 
L 276.948911 294.910636 
L 277.01518 295.160772 
L 277.147719 294.090336 
L 277.412797 295.084637 
L 277.611606 285.689761 
L 277.810415 295.296625 
L 277.876684 295.174085 
L 278.009223 294.603202 
L 278.141763 295.085226 
L 278.208032 294.887498 
L 278.274302 294.963754 
L 278.340571 295.342559 
L 278.406841 295.094572 
L 278.47311 295.191521 
L 278.53938 295.000076 
L 278.605649 295.089561 
L 278.671919 295.26676 
L 278.738188 295.020477 
L 278.804458 295.306105 
L 278.870728 295.210762 
L 279.003267 295.15733 
L 279.069536 295.047731 
L 279.268345 295.282529 
L 279.334614 295.337496 
L 279.467154 295.161128 
L 279.665962 295.302687 
L 279.798501 295.231533 
L 279.864771 295.279147 
L 279.93104 295.178858 
L 280.129849 295.326425 
L 280.660006 295.199512 
L 280.726275 295.333603 
L 280.792545 295.193353 
L 280.858814 295.251497 
L 280.925084 295.229972 
L 280.991353 295.341378 
L 281.057623 295.253904 
L 281.52151 295.271214 
L 281.654049 295.287665 
L 281.852858 295.299367 
L 282.117936 295.199382 
L 282.449284 295.346155 
L 282.648092 295.218538 
L 282.91317 295.337558 
L 282.97944 295.217751 
L 283.04571 295.288309 
L 283.244518 295.229283 
L 283.509596 295.286568 
L 283.708405 295.354718 
L 284.304831 295.307048 
L 284.371101 295.119211 
L 284.43737 295.257161 
L 284.569909 295.214301 
L 284.636179 295.239756 
L 284.702448 295.456759 
L 284.768718 295.252379 
L 284.834987 295.37156 
L 284.901257 295.412131 
L 284.967527 294.63986 
L 285.100066 295.382053 
L 285.232605 295.181006 
L 285.497683 295.388999 
L 285.630222 295.276308 
L 285.762761 295.251809 
L 285.8953 295.220788 
L 285.96157 295.341897 
L 286.027839 295.236295 
L 286.359187 295.38249 
L 286.491726 295.261832 
L 286.557996 295.332209 
L 286.624265 295.244967 
L 286.756805 295.334715 
L 286.823074 295.253283 
L 286.889344 295.383378 
L 287.021883 295.16291 
L 287.088152 295.336699 
L 287.154422 295.30852 
L 287.220691 295.193686 
L 287.286961 295.395642 
L 287.353231 295.297101 
L 287.48577 295.258289 
L 287.750848 295.285048 
L 287.949657 295.346676 
L 288.015926 295.201627 
L 288.082196 295.296724 
L 288.214735 295.298426 
L 288.281004 295.321322 
L 288.479813 295.001831 
L 288.612352 295.367865 
L 288.744891 295.186785 
L 288.811161 295.407852 
L 288.87743 295.242409 
L 289.142508 295.285198 
L 289.208778 295.187735 
L 289.341317 295.375559 
L 289.473856 295.249588 
L 289.540126 295.361916 
L 289.672665 295.239994 
L 290.202821 295.310581 
L 290.40163 295.113692 
L 290.666708 295.307899 
L 290.732978 295.188869 
L 290.865517 295.424334 
L 291.064326 295.088768 
L 291.130595 295.017071 
L 291.196865 295.386912 
L 291.263134 295.154819 
L 291.329404 295.192984 
L 291.395673 295.383542 
L 291.461943 294.873169 
L 291.528212 294.992338 
L 291.594482 295.337027 
L 291.727021 294.877289 
L 291.793291 295.198406 
L 291.92583 293.947572 
L 291.992099 292.879537 
L 292.124638 295.389997 
L 292.190908 295.23192 
L 292.257178 294.388566 
L 292.323447 295.150494 
L 292.389717 295.125209 
L 292.455986 295.346114 
L 292.522256 295.119304 
L 292.588525 295.349375 
L 292.654795 295.232512 
L 292.986143 295.403538 
L 293.184951 295.247098 
L 293.251221 295.153233 
L 293.38376 295.278955 
L 293.582569 295.287338 
L 293.648838 295.193275 
L 293.847647 295.318426 
L 295.106768 295.268131 
L 295.173038 295.412168 
L 295.371847 295.197261 
L 295.570655 295.34507 
L 295.769464 295.269944 
L 295.968273 295.217616 
L 296.100812 295.266234 
L 296.36589 295.247961 
L 296.630968 295.209928 
L 296.697238 295.180539 
L 296.829777 295.338882 
L 296.962316 295.204543 
L 297.094855 295.339363 
L 297.227394 295.244555 
L 297.625011 295.259966 
L 297.691281 295.366807 
L 297.757551 295.286796 
L 298.155168 295.199045 
L 298.353977 295.374839 
L 298.420246 295.247693 
L 298.685324 295.179452 
L 298.751594 295.311577 
L 298.817863 295.234489 
L 299.082942 295.313699 
L 299.149211 295.247578 
L 299.215481 295.358264 
L 299.28175 295.199339 
L 299.34802 295.444674 
L 299.414289 295.2662 
L 299.480559 295.251531 
L 299.546828 294.758492 
L 299.679368 295.284122 
L 299.811907 295.273856 
L 300.076985 295.108617 
L 300.143254 295.160536 
L 300.275794 294.975693 
L 300.408333 295.236541 
L 300.474602 295.119539 
L 300.673411 294.778163 
L 300.80595 294.986068 
L 301.137298 294.839224 
L 301.203567 295.077996 
L 301.269837 295.015527 
L 301.534915 294.973473 
L 301.601185 295.189588 
L 301.667454 295.01473 
L 301.799993 295.448678 
L 301.932532 295.144244 
L 302.131341 295.353608 
L 302.396419 294.422395 
L 302.462689 294.671098 
L 302.528958 294.744923 
L 302.661498 294.403911 
L 302.727767 294.85041 
L 302.860306 294.027276 
L 303.059115 294.352922 
L 303.125384 294.108278 
L 303.191654 294.175031 
L 303.324193 294.578468 
L 303.456732 294.213616 
L 303.523002 294.305463 
L 303.589271 294.187538 
L 303.655541 294.481129 
L 303.72181 293.817928 
L 303.986889 295.242125 
L 304.053158 295.120251 
L 304.251967 295.349828 
L 304.318236 294.916875 
L 304.450775 295.351469 
L 304.517045 295.266266 
L 304.583315 293.955054 
L 304.649584 294.779074 
L 304.715854 294.439611 
L 304.782123 292.596872 
L 304.848393 293.361286 
L 305.047201 294.320329 
L 305.179741 292.733044 
L 305.24601 292.845253 
L 305.378549 277.249865 
L 305.511088 291.747104 
L 305.709897 283.005865 
L 305.776167 287.465033 
L 305.842436 273.661386 
L 305.908706 277.660322 
L 305.974975 292.37021 
L 306.041245 288.112666 
L 306.107514 263.933926 
L 306.173784 273.136561 
L 306.240053 283.341827 
L 306.306323 245.495112 
L 306.372593 258.865305 
L 306.505132 283.559825 
L 306.571401 278.952193 
L 306.637671 220.600728 
L 306.77021 283.384964 
L 306.836479 279.923726 
L 306.969019 294.134874 
L 307.035288 287.150028 
L 307.101558 291.571329 
L 307.366636 294.868424 
L 307.631714 293.869257 
L 307.697984 294.084762 
L 307.764253 293.627233 
L 307.963062 294.581255 
L 308.095601 294.188831 
L 308.161871 294.13778 
L 308.22814 294.23144 
L 308.426949 294.900315 
L 308.493218 294.684816 
L 308.692027 295.303694 
L 308.758296 295.283523 
L 308.824566 295.064804 
L 308.890836 295.199358 
L 308.957105 295.193796 
L 309.089644 294.822283 
L 309.155914 294.95478 
L 309.288453 294.944864 
L 309.354722 295.268227 
L 309.420992 295.130381 
L 309.818609 294.969061 
L 310.017418 295.215392 
L 310.149957 295.198003 
L 310.216227 295.135196 
L 310.348766 295.281492 
L 310.481305 295.11071 
L 310.613844 295.250467 
L 310.680114 295.175567 
L 310.746383 295.267651 
L 310.812653 295.302257 
L 310.878922 295.190872 
L 310.945192 295.285117 
L 311.011461 295.315838 
L 311.077731 295.172307 
L 311.21027 295.387194 
L 311.27654 295.271569 
L 311.409079 295.454524 
L 311.607887 295.169231 
L 311.740426 295.382036 
L 311.872966 295.117077 
L 311.939235 295.306872 
L 312.005505 295.265191 
L 312.138044 295.232406 
L 312.204313 295.378984 
L 312.270583 295.250328 
L 312.469392 295.412735 
L 312.800739 295.287831 
L 312.999548 295.285858 
L 313.132087 295.31779 
L 313.198357 295.371386 
L 313.264626 295.261974 
L 313.330896 295.360125 
L 313.662244 295.413851 
L 313.794783 295.332124 
L 313.861052 295.295965 
L 313.927322 295.392496 
L 313.993591 295.336601 
L 314.059861 295.020984 
L 314.12613 295.125368 
L 314.1924 295.474345 
L 314.258669 295.342823 
L 314.391209 295.37131 
L 314.590017 295.461414 
L 314.788826 295.236156 
L 314.855095 295.311962 
L 314.987635 295.339599 
L 315.120174 295.322946 
L 315.451521 295.379287 
L 315.849139 295.457761 
L 316.047947 295.424086 
L 316.644373 295.484744 
L 316.843182 295.408039 
L 316.975721 295.441834 
L 317.041991 295.300347 
L 317.10826 295.407947 
L 319.692773 295.371099 
L 319.759042 295.335519 
L 319.825312 295.447013 
L 319.891582 295.360327 
L 320.09039 295.429427 
L 320.819355 295.334655 
L 320.885625 295.165309 
L 320.951894 295.276797 
L 321.283242 295.350802 
L 321.349512 295.130621 
L 321.415781 295.385683 
L 321.482051 295.324948 
L 321.54832 295.44212 
L 321.61459 295.386746 
L 321.68086 295.307067 
L 321.747129 295.368656 
L 321.879668 295.455837 
L 322.012207 295.278001 
L 322.211016 295.435404 
L 322.277286 295.265714 
L 322.409825 295.439 
L 323.403868 295.413655 
L 323.602677 295.407374 
L 323.801485 295.464357 
L 324.132833 295.378563 
L 324.265372 295.443856 
L 328.109006 295.400018 
L 328.241545 295.461805 
L 328.440354 295.342486 
L 328.506624 295.282652 
L 328.572893 295.443719 
L 328.639163 294.772375 
L 328.771702 295.34945 
L 328.904241 295.331032 
L 329.03678 295.195428 
L 329.10305 295.44514 
L 329.169319 295.378362 
L 329.235589 295.261918 
L 329.301858 295.385068 
L 329.368128 295.317833 
L 329.566936 295.322585 
L 329.699476 295.44665 
L 329.898284 295.414751 
L 330.097093 295.455233 
L 330.229632 295.405602 
L 330.627249 295.271947 
L 330.693519 295.288481 
L 330.759788 295.428893 
L 330.826058 295.34555 
L 330.892328 295.259932 
L 330.958597 295.337528 
L 331.091136 295.460157 
L 331.157406 295.278261 
L 331.223675 295.376613 
L 331.356214 295.430238 
L 331.488754 295.313413 
L 331.687562 295.39794 
L 331.753832 295.303043 
L 331.820101 295.378349 
L 331.95264 295.408241 
L 332.151449 295.437919 
L 332.350258 295.365191 
L 332.549066 295.466294 
L 332.747875 295.340876 
L 332.946684 295.372206 
L 333.278032 295.164895 
L 333.344301 295.435238 
L 333.609379 294.751713 
L 333.675649 293.295222 
L 333.741918 293.733355 
L 333.940727 294.81942 
L 334.205805 290.989493 
L 334.272075 280.210477 
L 334.470883 292.892532 
L 334.603423 294.47553 
L 334.669692 294.34982 
L 334.735962 293.601136 
L 334.802231 291.316585 
L 334.868501 294.007189 
L 334.93477 292.737785 
L 335.067309 293.681925 
L 335.133579 288.651102 
L 335.199849 295.106324 
L 335.266118 294.575136 
L 335.332388 291.846535 
L 335.398657 294.444061 
L 335.464927 293.117708 
L 335.531196 288.236258 
L 335.597466 293.47329 
L 335.663735 289.64823 
L 335.796275 294.160946 
L 335.862544 288.770687 
L 335.995083 294.75819 
L 336.127622 293.694625 
L 336.326431 295.15701 
L 336.392701 295.208482 
L 336.45897 295.432132 
L 336.591509 295.230364 
L 336.724048 295.281849 
L 336.856587 295.330289 
L 336.922857 295.135116 
L 337.121666 295.39448 
L 337.320474 295.428529 
L 337.585553 295.379654 
L 337.718092 295.470412 
L 337.850631 295.269293 
L 337.98317 295.396657 
L 338.115709 295.366453 
L 338.314518 295.414832 
L 338.447057 295.44868 
L 338.579596 295.388275 
L 338.712135 295.426485 
L 339.242291 295.440185 
L 339.573639 295.414278 
L 340.170065 295.463886 
L 340.302604 295.420822 
L 340.832761 295.464495 
L 340.9653 295.47245 
L 341.627995 295.439016 
L 341.760534 295.4555 
L 341.959343 295.456423 
L 342.754578 295.418094 
L 342.820847 295.34285 
L 342.887117 295.44265 
L 342.953386 295.380119 
L 343.218465 294.933474 
L 343.284734 295.41331 
L 343.351004 295.235797 
L 343.483543 295.387806 
L 343.549812 295.263318 
L 343.616082 295.33102 
L 343.748621 295.328824 
L 343.94743 295.419029 
L 344.212508 295.358018 
L 344.543856 295.390992 
L 344.610125 295.322467 
L 344.742664 295.409412 
L 345.272821 295.389611 
L 345.40536 295.397937 
L 345.670438 295.380652 
L 345.869247 295.335567 
L 345.935516 295.409401 
L 346.001786 295.31575 
L 346.068055 295.3753 
L 346.531942 295.37434 
L 346.730751 295.428832 
L 347.062099 295.449361 
L 347.327177 295.423476 
L 347.459716 295.460865 
L 347.525986 295.372677 
L 347.592255 295.448172 
L 348.056142 295.460553 
L 348.188681 295.417411 
L 348.718838 295.451744 
L 348.785107 295.348313 
L 348.851377 295.47157 
L 348.917646 295.426533 
L 349.712881 295.413515 
L 350.441846 295.398244 
L 350.508116 295.466519 
L 350.574385 295.320072 
L 350.640655 295.350518 
L 350.839463 295.383595 
L 351.502159 295.461827 
L 351.568428 295.373774 
L 351.634698 295.447106 
L 351.833507 295.426535 
L 351.899776 295.371663 
L 352.032315 295.45836 
L 352.297394 295.399942 
L 352.496202 295.456403 
L 354.948176 295.450957 
L 355.610871 295.445617 
L 355.80968 295.364007 
L 355.875949 295.472815 
L 355.942219 295.43089 
L 356.207297 295.454876 
L 356.406106 295.455953 
L 357.068801 295.42462 
L 357.201341 295.436709 
L 357.466419 295.342644 
L 357.598958 295.423021 
L 357.731497 295.441748 
L 357.797767 295.478227 
L 357.864036 295.360068 
L 357.930306 295.410296 
L 358.261653 295.44394 
L 358.460462 295.445064 
L 358.593001 295.467019 
L 359.056888 295.452933 
L 359.189427 295.440992 
L 359.321966 295.437894 
L 359.719584 295.473746 
L 362.105288 295.38076 
L 362.171557 295.221673 
L 362.237827 295.400889 
L 362.304096 295.307065 
L 362.370366 295.404059 
L 362.436635 295.250446 
L 362.502905 295.360821 
L 362.569174 295.436483 
L 362.767983 295.28853 
L 362.900522 295.290201 
L 362.966792 295.08231 
L 363.033061 295.268919 
L 363.099331 295.001043 
L 363.1656 295.214124 
L 363.23187 294.433294 
L 363.29814 295.415563 
L 363.364409 295.000584 
L 363.430679 295.002864 
L 363.629487 294.301475 
L 363.695757 294.370975 
L 363.828296 293.325681 
L 363.960835 294.91919 
L 364.027105 294.164612 
L 364.093374 290.932585 
L 364.159644 292.188547 
L 364.225913 294.762793 
L 364.292183 293.512504 
L 364.424722 290.454594 
L 364.623531 294.487123 
L 364.75607 292.823278 
L 364.822339 294.820829 
L 364.888609 293.990624 
L 364.954878 292.844444 
L 365.087417 294.934012 
L 365.153687 294.189564 
L 365.352496 295.237031 
L 365.418765 295.055271 
L 365.485035 295.294314 
L 365.551304 295.07407 
L 365.617574 295.121336 
L 365.683843 295.175631 
L 365.750113 295.391939 
L 365.816383 295.348303 
L 365.882652 295.424616 
L 366.081461 295.288354 
L 366.214 295.317344 
L 366.412809 295.27444 
L 366.479078 295.400818 
L 366.545348 295.294824 
L 367.340582 295.378017 
L 367.539391 295.318275 
L 367.7382 295.454706 
L 368.003278 295.407144 
L 368.202087 295.405985 
L 368.467165 295.297489 
L 368.599704 295.389282 
L 368.798512 295.401572 
L 368.931052 295.454116 
L 369.461208 295.398954 
L 369.593747 295.388038 
L 369.792556 295.438493 
L 370.786599 295.383826 
L 370.852869 295.488 
L 370.919138 295.408662 
L 371.515564 295.402822 
L 371.581834 295.293909 
L 371.780642 295.466793 
L 371.846912 295.339894 
L 371.913182 295.438624 
L 372.17826 295.291751 
L 372.244529 295.276832 
L 372.310799 294.853409 
L 372.377068 295.133145 
L 372.443338 295.341386 
L 372.509608 295.307504 
L 372.973494 295.444122 
L 373.106034 295.42067 
L 373.304842 295.405397 
L 373.768729 295.412676 
L 373.967538 295.437807 
L 375.425468 295.433645 
L 375.690546 295.45697 
L 376.61832 295.451701 
L 377.148476 295.459767 
L 377.281015 295.324768 
L 377.479824 295.473399 
L 377.612363 295.316927 
L 377.744902 295.127287 
L 377.877441 295.475356 
L 378.07625 295.306729 
L 378.14252 295.280169 
L 378.341328 295.441364 
L 378.540137 295.219673 
L 378.606407 295.029842 
L 378.738946 295.313305 
L 378.805215 295.2043 
L 378.871485 294.780802 
L 379.070293 295.416991 
L 379.136563 295.349248 
L 379.269102 294.909835 
L 379.335372 295.298992 
L 379.401641 295.279822 
L 379.666719 295.410658 
L 379.799258 295.40149 
L 380.263145 295.439417 
L 380.925841 295.397603 
L 380.99211 295.373478 
L 381.05838 295.469508 
L 381.190919 295.407354 
L 381.853615 295.42806 
L 384.504397 295.456574 
L 384.703205 295.398767 
L 384.968284 295.468749 
L 385.233362 295.430853 
L 385.365901 295.453541 
L 385.829788 295.431051 
L 386.028597 295.4695 
L 386.359944 295.394715 
L 386.492483 295.443304 
L 386.625023 295.410991 
L 387.353988 295.463611 
L 387.552796 295.415651 
L 387.751605 295.43771 
L 388.281761 295.446423 
L 388.414301 295.425791 
L 388.54684 295.466635 
L 388.745648 295.423918 
L 389.010726 295.435096 
L 389.143266 295.44494 
L 389.474613 295.443437 
L 389.673422 295.434838 
L 390.071039 295.448831 
L 390.269848 295.445955 
L 390.733735 295.430331 
L 392.523013 295.40448 
L 392.92063 295.153443 
L 392.9869 295.344104 
L 393.053169 295.120766 
L 393.119439 295.297162 
L 393.185708 295.250254 
L 393.251978 295.213149 
L 393.318248 295.445585 
L 393.384517 295.303484 
L 393.450787 295.222876 
L 393.649595 294.559343 
L 393.782134 294.812031 
L 393.848404 294.714081 
L 393.914673 295.259737 
L 393.980943 294.818545 
L 394.047213 291.413861 
L 394.113482 292.095484 
L 394.312291 295.442595 
L 394.44483 295.231137 
L 394.577369 295.31227 
L 394.709908 295.429431 
L 394.842447 295.400128 
L 394.974986 295.465311 
L 395.107525 295.428573 
L 395.240065 295.386366 
L 395.571412 295.437563 
L 395.96903 295.454106 
L 396.234108 295.479689 
L 397.42696 295.445176 
L 397.625769 295.424563 
L 397.957116 295.456531 
L 398.288464 295.426999 
L 398.487273 295.460624 
L 398.487273 295.460624 
" clip-path="url(#p9153b9909c)" style="fill: none; stroke: #1f77b4; stroke-width: 1.5; stroke-linecap: square"/>
   </g>
   <g id="patch_3">
    <path d="M 57.6 307.584 
L 57.6 41.472 
" style="fill: none; stroke: #000000; stroke-width: 0.8; stroke-linejoin: miter; stroke-linecap: square"/>
   </g>
   <g id="patch_4">
    <path d="M 414.72 307.584 
L 414.72 41.472 
" style="fill: none; stroke: #000000; stroke-width: 0.8; stroke-linejoin: miter; stroke-linecap: square"/>
   </g>
   <g id="patch_5">
    <path d="M 57.6 307.584 
L 414.72 307.584 
" style="fill: none; stroke: #000000; stroke-width: 0.8; stroke-linejoin: miter; stroke-linecap: square"/>
   </g>
   <g id="patch_6">
    <path d="M 57.6 41.472 
L 414.72 41.472 
" style="fill: none; stroke: #000000; stroke-width: 0.8; stroke-linejoin: miter; stroke-linecap: square"/>
   </g>
   <g id="text_18">
    <text style="font: 12px 'IPAexGothic'; text-anchor: middle" x="236.16" y="35.472" transform="rotate(-0 236.16 35.472)">"020_A3.wav"の振幅スペクトル</text>
   </g>
  </g>
 </g>
 <defs>
  <clipPath id="p9153b9909c">
   <rect x="57.6" y="41.472" width="357.12" height="266.112"/>
  </clipPath>
 </defs>
</svg>
