<?xml version="1.0" encoding="utf-8" standalone="no"?>
<!DOCTYPE svg PUBLIC "-//W3C//DTD SVG 1.1//EN"
  "http://www.w3.org/Graphics/SVG/1.1/DTD/svg11.dtd">
<svg xmlns:xlink="http://www.w3.org/1999/xlink" width="460.8pt" height="345.6pt" viewBox="0 0 460.8 345.6" xmlns="http://www.w3.org/2000/svg" version="1.1">
 <metadata>
  <rdf:RDF xmlns:dc="http://purl.org/dc/elements/1.1/" xmlns:cc="http://creativecommons.org/ns#" xmlns:rdf="http://www.w3.org/1999/02/22-rdf-syntax-ns#">
   <cc:Work>
    <dc:type rdf:resource="http://purl.org/dc/dcmitype/StillImage"/>
    <dc:date>2022-11-28T11:27:21.412492</dc:date>
    <dc:format>image/svg+xml</dc:format>
    <dc:creator>
     <cc:Agent>
      <dc:title>Matplotlib v3.6.2, https://matplotlib.org/</dc:title>
     </cc:Agent>
    </dc:creator>
   </cc:Work>
  </rdf:RDF>
 </metadata>
 <defs>
  <style type="text/css">*{stroke-linejoin: round; stroke-linecap: butt}</style>
 </defs>
 <g id="figure_1">
  <g id="patch_1">
   <path d="M 0 345.6 
L 460.8 345.6 
L 460.8 0 
L 0 0 
z
" style="fill: #ffffff"/>
  </g>
  <g id="axes_1">
   <g id="patch_2">
    <path d="M 57.6 307.584 
L 414.72 307.584 
L 414.72 41.472 
L 57.6 41.472 
z
" style="fill: #ffffff"/>
   </g>
   <g id="matplotlib.axis_1">
    <g id="xtick_1">
     <g id="line2d_1">
      <defs>
       <path id="m89ccd6d99c" d="M 0 0 
L 0 3.5 
" style="stroke: #000000; stroke-width: 0.8"/>
      </defs>
      <g>
       <use xlink:href="#m89ccd6d99c" x="73.832727" y="307.584" style="stroke: #000000; stroke-width: 0.8"/>
      </g>
     </g>
     <g id="text_1">
      <text style="font: 10px 'IPAexGothic'; text-anchor: middle" x="73.832727" y="322.074625" transform="rotate(-0 73.832727 322.074625)">0</text>
     </g>
    </g>
    <g id="xtick_2">
     <g id="line2d_2">
      <g>
       <use xlink:href="#m89ccd6d99c" x="140.102281" y="307.584" style="stroke: #000000; stroke-width: 0.8"/>
      </g>
     </g>
     <g id="text_2">
      <text style="font: 10px 'IPAexGothic'; text-anchor: middle" x="140.102281" y="322.074625" transform="rotate(-0 140.102281 322.074625)">1000</text>
     </g>
    </g>
    <g id="xtick_3">
     <g id="line2d_3">
      <g>
       <use xlink:href="#m89ccd6d99c" x="206.371835" y="307.584" style="stroke: #000000; stroke-width: 0.8"/>
      </g>
     </g>
     <g id="text_3">
      <text style="font: 10px 'IPAexGothic'; text-anchor: middle" x="206.371835" y="322.074625" transform="rotate(-0 206.371835 322.074625)">2000</text>
     </g>
    </g>
    <g id="xtick_4">
     <g id="line2d_4">
      <g>
       <use xlink:href="#m89ccd6d99c" x="272.64139" y="307.584" style="stroke: #000000; stroke-width: 0.8"/>
      </g>
     </g>
     <g id="text_4">
      <text style="font: 10px 'IPAexGothic'; text-anchor: middle" x="272.64139" y="322.074625" transform="rotate(-0 272.64139 322.074625)">3000</text>
     </g>
    </g>
    <g id="xtick_5">
     <g id="line2d_5">
      <g>
       <use xlink:href="#m89ccd6d99c" x="338.910944" y="307.584" style="stroke: #000000; stroke-width: 0.8"/>
      </g>
     </g>
     <g id="text_5">
      <text style="font: 10px 'IPAexGothic'; text-anchor: middle" x="338.910944" y="322.074625" transform="rotate(-0 338.910944 322.074625)">4000</text>
     </g>
    </g>
    <g id="xtick_6">
     <g id="line2d_6">
      <g>
       <use xlink:href="#m89ccd6d99c" x="405.180498" y="307.584" style="stroke: #000000; stroke-width: 0.8"/>
      </g>
     </g>
     <g id="text_6">
      <text style="font: 10px 'IPAexGothic'; text-anchor: middle" x="405.180498" y="322.074625" transform="rotate(-0 405.180498 322.074625)">5000</text>
     </g>
    </g>
    <g id="text_7">
     <text style="font: 10px 'IPAexGothic'; text-anchor: middle" x="236.16" y="335.924625" transform="rotate(-0 236.16 335.924625)">周波数[Hz]</text>
    </g>
   </g>
   <g id="matplotlib.axis_2">
    <g id="ytick_1">
     <g id="line2d_7">
      <defs>
       <path id="m5ed0cd8dd9" d="M 0 0 
L -3.5 0 
" style="stroke: #000000; stroke-width: 0.8"/>
      </defs>
      <g>
       <use xlink:href="#m5ed0cd8dd9" x="57.6" y="295.490319" style="stroke: #000000; stroke-width: 0.8"/>
      </g>
     </g>
     <g id="text_8">
      <text style="font: 10px 'IPAexGothic'; text-anchor: end" x="50.6" y="299.235631" transform="rotate(-0 50.6 299.235631)">0.0</text>
     </g>
    </g>
    <g id="ytick_2">
     <g id="line2d_8">
      <g>
       <use xlink:href="#m5ed0cd8dd9" x="57.6" y="243.704808" style="stroke: #000000; stroke-width: 0.8"/>
      </g>
     </g>
     <g id="text_9">
      <text style="font: 10px 'IPAexGothic'; text-anchor: end" x="50.6" y="247.45012" transform="rotate(-0 50.6 247.45012)">0.5</text>
     </g>
    </g>
    <g id="ytick_3">
     <g id="line2d_9">
      <g>
       <use xlink:href="#m5ed0cd8dd9" x="57.6" y="191.919296" style="stroke: #000000; stroke-width: 0.8"/>
      </g>
     </g>
     <g id="text_10">
      <text style="font: 10px 'IPAexGothic'; text-anchor: end" x="50.6" y="195.664609" transform="rotate(-0 50.6 195.664609)">1.0</text>
     </g>
    </g>
    <g id="ytick_4">
     <g id="line2d_10">
      <g>
       <use xlink:href="#m5ed0cd8dd9" x="57.6" y="140.133785" style="stroke: #000000; stroke-width: 0.8"/>
      </g>
     </g>
     <g id="text_11">
      <text style="font: 10px 'IPAexGothic'; text-anchor: end" x="50.6" y="143.879098" transform="rotate(-0 50.6 143.879098)">1.5</text>
     </g>
    </g>
    <g id="ytick_5">
     <g id="line2d_11">
      <g>
       <use xlink:href="#m5ed0cd8dd9" x="57.6" y="88.348274" style="stroke: #000000; stroke-width: 0.8"/>
      </g>
     </g>
     <g id="text_12">
      <text style="font: 10px 'IPAexGothic'; text-anchor: end" x="50.6" y="92.093587" transform="rotate(-0 50.6 92.093587)">2.0</text>
     </g>
    </g>
    <g id="text_13">
     <text style="font: 10px 'IPAexGothic'; text-anchor: middle" x="29.460938" y="174.528" transform="rotate(-90 29.460938 174.528)">振幅</text>
    </g>
    <g id="text_14">
     <text style="font: 10px 'IPAexGothic'; text-anchor: start" x="57.6" y="38.472" transform="rotate(-0 57.6 38.472)">1e7</text>
    </g>
   </g>
   <g id="line2d_12">
    <path d="M 73.832727 292.675652 
L 73.965266 295.19368 
L 74.031536 295.227546 
L 74.097805 295.086115 
L 74.164075 295.307161 
L 74.230345 295.183855 
L 74.362884 295.140437 
L 74.429153 295.274839 
L 74.495423 295.202549 
L 74.826771 295.241387 
L 75.025579 295.195609 
L 75.224388 295.224974 
L 76.483509 295.198149 
L 76.881127 295.199091 
L 77.278744 295.15403 
L 77.87517 295.125776 
L 78.339057 294.957976 
L 78.471596 294.541392 
L 78.537866 292.959446 
L 78.736674 295.171624 
L 78.869213 295.196402 
L 79.200561 295.145611 
L 80.062065 294.930982 
L 80.327144 294.794473 
L 80.459683 294.763046 
L 80.658491 294.552278 
L 80.92357 293.660731 
L 81.056109 282.826403 
L 81.122378 274.250652 
L 81.321187 292.273399 
L 81.387456 292.588924 
L 81.453726 292.376174 
L 81.519996 292.135597 
L 81.652535 294.253399 
L 81.718804 293.999201 
L 81.983882 295.263742 
L 82.050152 295.189532 
L 82.116422 294.872066 
L 82.182691 295.328387 
L 82.31523 294.980677 
L 82.3815 294.997715 
L 82.447769 294.779125 
L 82.514039 295.376534 
L 82.580308 295.346009 
L 82.646578 294.992584 
L 82.712848 295.135837 
L 82.779117 295.322011 
L 82.845387 295.117943 
L 82.911656 295.345554 
L 82.977926 295.190044 
L 83.044195 295.070238 
L 83.110465 295.284341 
L 83.309274 294.632097 
L 83.375543 295.195712 
L 83.441813 295.059537 
L 83.574352 294.765854 
L 83.77316 295.286303 
L 84.104508 295.354233 
L 84.170778 295.020389 
L 84.237047 295.208099 
L 84.303317 295.325995 
L 84.568395 294.82696 
L 84.634665 295.246329 
L 84.767204 291.691615 
L 84.899743 294.720158 
L 84.966012 294.204786 
L 85.032282 295.335882 
L 85.098551 294.709672 
L 85.29736 294.648339 
L 85.36363 294.881489 
L 85.496169 293.738153 
L 85.562438 294.651403 
L 85.628708 293.381539 
L 85.694977 293.480593 
L 85.827517 294.803904 
L 85.893786 294.688277 
L 85.960056 294.1238 
L 86.026325 294.974626 
L 86.092595 294.710202 
L 86.158864 294.906898 
L 86.225134 294.690619 
L 86.357673 293.258406 
L 86.490212 295.065597 
L 86.556482 294.389408 
L 86.622751 294.514231 
L 86.82156 294.023363 
L 86.954099 294.417087 
L 87.219177 293.475021 
L 87.285447 293.469127 
L 87.351716 293.06478 
L 87.417986 293.241542 
L 87.484255 295.18728 
L 87.550525 294.191978 
L 87.815603 289.354167 
L 87.948142 293.624764 
L 88.146951 283.625379 
L 88.27949 271.570032 
L 88.34576 165.957599 
L 88.544568 277.355941 
L 88.809646 290.891484 
L 88.875916 289.103431 
L 88.942186 292.382079 
L 89.008455 292.061588 
L 89.074725 291.699096 
L 89.207264 294.683141 
L 89.273533 293.930244 
L 89.339803 292.85577 
L 89.406072 293.936723 
L 89.538612 292.639954 
L 89.80369 294.554851 
L 89.936229 293.500297 
L 90.068768 293.633791 
L 90.201307 294.430208 
L 90.400116 294.362155 
L 90.466385 294.241644 
L 90.598924 294.863881 
L 90.665194 294.088028 
L 90.731464 294.482953 
L 90.797733 294.304923 
L 90.864003 294.686575 
L 90.930272 294.590596 
L 91.062811 294.603851 
L 91.129081 294.433981 
L 91.19535 294.568785 
L 91.32789 294.862944 
L 91.526698 294.646501 
L 91.592968 294.807142 
L 91.659237 294.619785 
L 91.725507 294.927055 
L 91.791776 294.759105 
L 91.858046 294.607092 
L 91.924316 294.800284 
L 91.990585 294.09012 
L 92.123124 295.060703 
L 92.189394 294.924915 
L 92.255663 294.517777 
L 92.321933 294.789516 
L 92.388202 294.407716 
L 92.454472 294.66708 
L 92.520742 294.670632 
L 92.71955 292.312498 
L 92.984628 288.522586 
L 93.117168 292.222171 
L 93.183437 290.637423 
L 93.249707 291.490281 
L 93.315976 293.840402 
L 93.382246 292.262724 
L 93.581054 294.350951 
L 93.779863 294.901269 
L 93.846133 294.67769 
L 93.978672 295.152 
L 94.24375 294.773489 
L 94.310019 295.099995 
L 94.376289 295.023263 
L 94.575098 294.722762 
L 94.773906 295.292525 
L 94.972715 294.320178 
L 95.105254 295.057539 
L 95.304063 292.913941 
L 95.436602 293.921603 
L 95.502871 293.127573 
L 95.569141 294.021388 
L 95.635411 284.361391 
L 95.70168 288.477831 
L 95.834219 294.879611 
L 95.900489 293.055016 
L 95.966758 293.94482 
L 96.033028 293.56733 
L 96.165567 294.754345 
L 96.298106 293.274848 
L 96.496915 294.903225 
L 96.563184 293.992616 
L 96.695723 295.056916 
L 96.761993 295.218838 
L 96.828263 294.634238 
L 96.894532 294.868061 
L 96.960802 294.894101 
L 97.027071 293.800727 
L 97.15961 295.219327 
L 97.22588 294.329545 
L 97.292149 294.399413 
L 97.424689 295.347982 
L 97.490958 294.494564 
L 97.557228 295.117341 
L 97.623497 294.164849 
L 97.756036 295.090587 
L 97.888575 294.555543 
L 98.021115 295.132276 
L 98.219923 294.687521 
L 98.418732 295.056765 
L 98.61754 294.800771 
L 98.68381 294.945449 
L 98.816349 294.822291 
L 98.882619 294.797387 
L 98.948888 294.983597 
L 99.015158 294.70914 
L 99.081427 294.836559 
L 99.280236 294.896148 
L 99.346506 294.301557 
L 99.412775 294.908249 
L 99.479045 294.891101 
L 99.611584 294.991392 
L 99.744123 294.603456 
L 99.810392 294.847422 
L 100.009201 294.980941 
L 100.14174 294.002374 
L 100.340549 294.460966 
L 100.473088 293.98043 
L 100.539358 293.897845 
L 100.671897 294.859881 
L 100.738166 294.082955 
L 100.804436 294.132806 
L 100.870705 294.166988 
L 101.135784 295.023249 
L 101.202053 294.663049 
L 101.268323 294.76138 
L 101.400862 295.221273 
L 101.467131 294.51341 
L 101.533401 294.794178 
L 101.59967 294.74277 
L 101.66594 293.989818 
L 101.73221 291.922366 
L 101.798479 292.76611 
L 101.997288 289.827791 
L 102.129827 291.051678 
L 102.262366 287.872332 
L 102.394905 289.233974 
L 102.461175 288.645383 
L 102.527444 289.692358 
L 102.593714 288.186057 
L 102.792522 277.710506 
L 102.858792 260.17629 
L 102.925062 103.32927 
L 103.12387 273.773502 
L 103.322679 290.820106 
L 103.455218 288.69216 
L 103.587757 293.157198 
L 103.654027 291.25795 
L 103.786566 293.762798 
L 103.852835 292.797402 
L 103.985374 294.793432 
L 104.051644 293.693474 
L 104.117913 294.238213 
L 104.184183 293.652347 
L 104.382992 295.052846 
L 104.64807 293.998633 
L 104.846879 294.947555 
L 104.913148 295.25721 
L 104.979418 294.903165 
L 105.045687 295.01915 
L 105.111957 295.061479 
L 105.178226 294.647181 
L 105.244496 294.908193 
L 105.310765 294.746785 
L 105.443305 295.33665 
L 105.509574 294.922225 
L 105.575844 295.013135 
L 105.774652 295.36761 
L 105.840922 295.017338 
L 105.907191 295.341248 
L 105.973461 295.052602 
L 106.039731 295.100779 
L 106.106 295.292696 
L 106.17227 295.180551 
L 106.238539 295.029804 
L 106.304809 295.086646 
L 106.371078 295.090709 
L 106.569887 295.463002 
L 106.636157 295.131618 
L 106.702426 295.150912 
L 106.834965 295.348989 
L 106.901235 295.296316 
L 106.967504 295.439499 
L 107.033774 295.016887 
L 107.166313 295.404401 
L 107.232583 295.396928 
L 107.298852 295.136927 
L 107.365122 295.36573 
L 107.431391 295.255053 
L 107.497661 295.22767 
L 107.6302 295.463351 
L 107.696469 295.402103 
L 107.762739 295.101658 
L 107.829009 295.446776 
L 107.895278 295.41821 
L 107.961548 295.273917 
L 108.027817 295.319745 
L 108.094087 295.408459 
L 108.160356 295.356449 
L 108.226626 295.325664 
L 108.491704 294.797065 
L 108.690513 295.252427 
L 108.889321 294.982502 
L 109.02186 295.399165 
L 109.1544 295.290953 
L 109.220669 295.379207 
L 109.353208 294.694994 
L 109.419478 295.181913 
L 109.552017 293.386219 
L 109.684556 294.892192 
L 109.949634 290.422948 
L 110.015904 274.903452 
L 110.082173 277.443928 
L 110.280982 292.850307 
L 110.347252 293.7257 
L 110.479791 291.614767 
L 110.54606 288.79947 
L 110.678599 293.06798 
L 110.744869 293.746153 
L 110.811138 293.053341 
L 110.943678 295.202986 
L 111.142486 291.481893 
L 111.208756 291.818288 
L 111.341295 294.564537 
L 111.407564 294.481738 
L 111.540104 295.380148 
L 111.606373 295.220928 
L 111.672643 294.799025 
L 111.805182 295.259951 
L 112.00399 295.140491 
L 112.07026 295.190787 
L 112.13653 295.388731 
L 112.202799 295.30783 
L 112.269069 295.095792 
L 112.335338 295.463313 
L 112.401608 295.191294 
L 112.467877 295.314428 
L 112.534147 295.29892 
L 112.600416 295.404854 
L 112.666686 295.165853 
L 112.732956 295.187282 
L 112.931764 295.285475 
L 113.064303 295.260765 
L 113.130573 295.399759 
L 113.196842 295.326623 
L 113.263112 295.213417 
L 113.329382 295.328299 
L 113.395651 295.236756 
L 113.461921 295.142092 
L 113.660729 295.413282 
L 113.859538 295.186792 
L 114.124616 295.371925 
L 114.190886 295.269943 
L 114.257155 295.368641 
L 114.455964 295.334601 
L 114.522233 295.415009 
L 114.588503 295.346019 
L 114.787312 295.404319 
L 114.919851 295.203681 
L 115.184929 295.430373 
L 115.317468 295.251393 
L 115.582546 295.357697 
L 115.847625 295.034599 
L 115.913894 295.239899 
L 115.980164 295.208295 
L 116.112703 295.034815 
L 116.311511 294.910774 
L 116.444051 293.85947 
L 116.57659 294.430596 
L 116.775398 293.082015 
L 116.841668 294.353335 
L 116.907937 294.223821 
L 116.974207 294.348857 
L 117.173016 288.175467 
L 117.239285 293.026689 
L 117.504363 235.364142 
L 117.636903 286.168143 
L 117.703172 286.78373 
L 117.835711 291.786934 
L 117.901981 294.675325 
L 117.96825 294.108878 
L 118.03452 294.346423 
L 118.167059 293.025831 
L 118.233329 294.143448 
L 118.365868 293.304593 
L 118.432137 294.543535 
L 118.498407 293.668698 
L 118.564676 293.961467 
L 118.697215 295.291203 
L 119.028563 294.584415 
L 119.094833 294.249249 
L 119.359911 295.095587 
L 119.42618 294.675507 
L 119.49245 295.040342 
L 119.55872 294.67354 
L 119.624989 295.168136 
L 119.691259 294.851743 
L 119.823798 295.187391 
L 119.890067 294.85774 
L 119.956337 294.903193 
L 120.022606 294.770104 
L 120.088876 294.839832 
L 120.221415 295.347217 
L 120.287685 294.677952 
L 120.353954 294.900137 
L 120.420224 294.857695 
L 120.486493 295.199207 
L 120.552763 294.929597 
L 120.619032 294.954909 
L 120.685302 294.948155 
L 120.751572 295.178062 
L 120.817841 295.12888 
L 120.884111 294.991212 
L 121.01665 295.321486 
L 121.281728 294.720327 
L 121.347998 295.118572 
L 121.414267 294.861158 
L 121.480537 294.622439 
L 121.613076 294.828089 
L 121.679345 294.725571 
L 121.745615 295.070289 
L 121.811884 294.943326 
L 121.944424 295.036938 
L 122.010693 294.949931 
L 122.143232 295.351883 
L 122.275771 295.061402 
L 122.40831 295.169506 
L 122.47458 294.728343 
L 122.54085 294.910217 
L 122.607119 294.704721 
L 122.805928 295.242563 
L 122.938467 294.813458 
L 123.071006 295.158463 
L 123.137276 294.949265 
L 123.269815 295.176149 
L 123.667432 295.007979 
L 123.799971 295.048227 
L 123.866241 294.973941 
L 123.99878 295.084001 
L 124.065049 294.971867 
L 124.263858 295.192634 
L 124.396397 294.871181 
L 124.595206 295.102162 
L 124.794014 295.037866 
L 124.860284 295.040867 
L 124.926553 295.409467 
L 124.992823 294.898088 
L 125.059093 295.052037 
L 125.125362 294.963921 
L 125.191632 295.172485 
L 125.257901 295.024072 
L 125.324171 294.639526 
L 125.39044 294.82358 
L 125.45671 294.901883 
L 125.522979 295.278273 
L 125.589249 294.806878 
L 125.655519 294.992068 
L 125.788058 294.992462 
L 125.854327 294.629576 
L 126.053136 295.18966 
L 126.119405 295.245788 
L 126.251945 294.979239 
L 126.318214 295.112766 
L 126.384484 294.568598 
L 126.450753 295.031266 
L 126.517023 294.999866 
L 126.649562 294.823356 
L 126.782101 294.610393 
L 126.91464 294.771866 
L 126.98091 294.895671 
L 127.047179 294.702637 
L 127.179718 294.843762 
L 127.378527 294.53368 
L 127.577336 295.076448 
L 127.709875 294.801807 
L 127.842414 294.829043 
L 127.908683 294.567027 
L 127.974953 294.697056 
L 128.041223 294.564084 
L 128.173762 294.952047 
L 128.37257 294.722207 
L 128.43884 293.83378 
L 128.505109 294.141252 
L 128.703918 293.883241 
L 128.770188 293.903093 
L 128.968996 294.694379 
L 129.101535 295.292815 
L 129.167805 294.99555 
L 129.300344 294.458586 
L 129.499153 292.609176 
L 129.631692 293.438202 
L 129.89677 292.78605 
L 129.96304 292.880639 
L 130.029309 292.897301 
L 130.161848 292.14446 
L 130.294387 293.983305 
L 130.625735 290.004377 
L 130.758274 290.120362 
L 131.155892 292.155777 
L 131.222161 294.089932 
L 131.288431 293.29901 
L 131.487239 289.11903 
L 131.553509 292.205001 
L 131.619778 288.218598 
L 131.686048 290.937706 
L 131.884857 240.16784 
L 131.951126 53.568 
L 132.017396 232.718894 
L 132.083665 177.046089 
L 132.282474 288.522023 
L 132.348744 286.999889 
L 132.613822 293.399423 
L 132.680091 291.684531 
L 132.746361 293.706626 
L 132.81263 292.675391 
L 132.8789 291.485308 
L 132.94517 291.900474 
L 133.143978 294.214869 
L 133.210248 293.21378 
L 133.276517 293.566304 
L 133.541596 292.573121 
L 133.806674 293.752851 
L 133.872943 294.140949 
L 133.939213 293.893111 
L 134.005482 293.917389 
L 134.071752 294.872102 
L 134.138021 294.605224 
L 134.204291 294.161925 
L 134.270561 294.949778 
L 134.33683 294.72552 
L 134.601908 293.643013 
L 134.734447 294.912738 
L 134.800717 294.670432 
L 134.866987 294.660128 
L 134.933256 294.932051 
L 134.999526 294.754019 
L 135.132065 294.678001 
L 135.198334 294.558087 
L 135.264604 294.122083 
L 135.330873 294.955389 
L 135.397143 294.903785 
L 135.529682 294.704125 
L 135.595952 294.850746 
L 135.662221 294.727591 
L 135.728491 294.23213 
L 135.927299 294.926748 
L 135.993569 295.081095 
L 136.059839 294.865545 
L 136.192378 295.11095 
L 136.391186 294.872588 
L 136.457456 294.736613 
L 136.523725 294.806945 
L 136.589995 294.812847 
L 136.722534 295.061615 
L 136.788804 294.663009 
L 136.855073 294.746653 
L 136.921343 295.06496 
L 136.987612 294.856977 
L 137.186421 295.096904 
L 137.252691 294.96873 
L 137.31896 295.06823 
L 137.38523 295.137255 
L 137.517769 294.778167 
L 137.584038 294.922047 
L 137.650308 295.14117 
L 137.716577 295.077797 
L 137.782847 295.048077 
L 137.915386 295.307069 
L 138.114195 294.991335 
L 138.313003 295.326362 
L 138.511812 294.799954 
L 138.710621 295.243563 
L 138.77689 295.197481 
L 138.909429 295.364094 
L 139.041968 295.050915 
L 139.108238 295.234306 
L 139.174508 295.081857 
L 139.240777 292.238537 
L 139.307047 292.998793 
L 139.439586 294.491949 
L 139.638394 295.337128 
L 139.704664 295.213012 
L 139.770934 294.626615 
L 139.837203 295.039322 
L 139.903473 294.897172 
L 140.102281 295.275281 
L 140.36736 294.771374 
L 140.566168 295.222861 
L 140.632438 295.3323 
L 140.698707 295.134133 
L 140.764977 295.209561 
L 141.162594 295.026987 
L 141.228864 295.439723 
L 141.295133 295.355089 
L 141.427672 295.15934 
L 141.560212 295.209892 
L 141.626481 295.17891 
L 141.75902 295.363771 
L 141.957829 295.013399 
L 142.090368 295.222335 
L 142.156638 295.105264 
L 142.222907 295.179667 
L 142.289177 295.326915 
L 142.421716 295.051387 
L 142.487985 295.114708 
L 142.554255 295.173741 
L 142.686794 295.37752 
L 143.084411 295.080245 
L 143.28322 295.441314 
L 143.482029 295.136335 
L 143.614568 295.298507 
L 143.813376 295.183494 
L 143.945915 295.199236 
L 144.012185 295.415341 
L 144.210994 295.042218 
L 144.343533 295.012517 
L 144.409802 295.254072 
L 144.476072 295.089878 
L 144.542341 295.115999 
L 144.608611 295.367734 
L 144.674881 295.106945 
L 144.74115 295.238427 
L 144.939959 294.954693 
L 145.006228 295.36474 
L 145.072498 295.283835 
L 145.205037 295.140356 
L 145.271307 295.233473 
L 145.403846 294.631457 
L 145.470115 294.94211 
L 145.668924 293.759782 
L 145.801463 294.91678 
L 145.867733 294.629762 
L 145.934002 294.44807 
L 146.000272 294.810546 
L 146.066541 294.283645 
L 146.132811 292.0368 
L 146.19908 285.039752 
L 146.331619 292.308129 
L 146.397889 293.257727 
L 146.464159 292.957423 
L 146.530428 288.99426 
L 146.596698 292.291974 
L 146.662967 280.85458 
L 146.729237 282.404584 
L 146.795506 294.431382 
L 146.861776 287.677868 
L 146.928045 293.887534 
L 146.994315 290.847896 
L 147.060585 290.09311 
L 147.126854 290.924997 
L 147.193124 287.119278 
L 147.391932 294.191706 
L 147.458202 294.467427 
L 147.72328 293.503601 
L 147.78955 292.182379 
L 147.988358 295.41642 
L 148.120897 294.390465 
L 148.187167 295.1431 
L 148.253437 294.593095 
L 148.385976 295.214732 
L 148.518515 294.876476 
L 148.584784 295.336752 
L 148.651054 294.635861 
L 148.717323 295.109636 
L 148.849862 294.957783 
L 148.916132 295.18686 
L 149.18121 294.676716 
L 149.24748 295.202027 
L 149.313749 295.107257 
L 149.380019 295.272069 
L 149.578828 294.950825 
L 149.645097 295.203061 
L 149.777636 294.899336 
L 149.843906 294.996331 
L 149.910175 294.878045 
L 149.976445 294.97933 
L 150.108984 295.222611 
L 150.175254 295.080823 
L 150.241523 295.141216 
L 150.307793 295.350016 
L 150.374062 295.233753 
L 150.440332 295.341814 
L 150.572871 295.175128 
L 150.77168 295.17965 
L 150.837949 295.121247 
L 151.036758 295.454179 
L 151.169297 295.187619 
L 151.368106 295.34713 
L 151.500645 294.946821 
L 151.633184 295.273546 
L 151.699453 295.237142 
L 151.765723 295.314083 
L 151.831992 295.226205 
L 151.898262 295.174281 
L 151.964532 295.319558 
L 152.030801 295.096145 
L 152.16334 295.283192 
L 152.362149 295.194811 
L 152.494688 295.359822 
L 152.627227 295.119997 
L 152.759766 295.306845 
L 152.892305 295.237343 
L 153.091114 295.27436 
L 153.289923 295.174215 
L 153.356192 295.430561 
L 153.422462 295.250284 
L 153.488731 295.053075 
L 153.555001 295.190886 
L 153.68754 295.402444 
L 153.886349 295.131599 
L 153.952618 295.377867 
L 154.018888 295.11556 
L 154.085157 295.274372 
L 154.151427 295.292244 
L 154.283966 295.083133 
L 154.416505 295.27085 
L 154.549044 295.16078 
L 154.747853 295.328195 
L 155.012931 295.311721 
L 155.21174 295.237233 
L 155.278009 295.296705 
L 155.344279 295.218254 
L 155.476818 295.171019 
L 155.675627 295.222324 
L 155.808166 295.195869 
L 155.874435 295.200273 
L 155.940705 295.041948 
L 156.073244 295.363377 
L 156.272053 295.194339 
L 156.470861 295.388165 
L 156.6034 295.08418 
L 156.66967 295.139945 
L 156.868479 295.206499 
L 157.266096 295.329983 
L 157.332365 295.175149 
L 157.398635 295.391423 
L 157.464905 295.107848 
L 157.531174 295.140164 
L 157.729983 295.342646 
L 157.796252 295.191638 
L 157.862522 295.117416 
L 157.995061 294.826948 
L 158.061331 294.951778 
L 158.1276 294.762006 
L 158.19387 294.80721 
L 158.326409 295.347511 
L 158.392678 295.253275 
L 158.657756 294.648723 
L 158.922835 295.170369 
L 158.989104 294.947291 
L 159.055374 295.330949 
L 159.254182 294.280184 
L 159.320452 294.417447 
L 159.386722 293.953918 
L 159.519261 295.018055 
L 159.58553 294.885298 
L 159.6518 294.800132 
L 159.784339 294.915838 
L 159.983148 293.528463 
L 160.049417 293.598685 
L 160.248226 291.463439 
L 160.447034 293.130111 
L 160.645843 281.277134 
L 160.712113 283.675333 
L 160.778382 284.468774 
L 160.844652 282.660608 
L 160.910921 287.426689 
L 161.04346 269.235392 
L 161.176 223.688192 
L 161.374808 293.696047 
L 161.639886 282.008393 
L 161.772426 293.823202 
L 161.838695 291.81353 
L 161.971234 294.703097 
L 162.037504 293.154095 
L 162.103773 293.405802 
L 162.302582 295.145183 
L 162.501391 294.548064 
L 162.56766 294.668227 
L 162.63393 294.555276 
L 162.766469 295.295144 
L 162.832738 294.180554 
L 162.899008 294.88909 
L 162.965278 294.991163 
L 163.031547 293.95969 
L 163.097817 294.20837 
L 163.164086 294.904954 
L 163.230356 294.768422 
L 163.296625 294.494108 
L 163.429164 295.320627 
L 163.561704 294.730782 
L 163.694243 295.304845 
L 163.826782 294.473067 
L 163.893051 295.193655 
L 163.959321 294.978335 
L 164.02559 295.420674 
L 164.09186 295.207017 
L 164.158129 295.377838 
L 164.224399 295.304919 
L 164.290669 295.285677 
L 164.356938 295.44256 
L 164.423208 295.403757 
L 164.489477 294.380633 
L 164.555747 294.906446 
L 164.622016 294.581056 
L 164.688286 294.810178 
L 164.754555 294.616587 
L 164.820825 294.742052 
L 164.953364 295.37616 
L 165.218442 294.888214 
L 165.284712 294.968052 
L 165.350981 295.155368 
L 165.417251 295.03313 
L 165.54979 294.908513 
L 165.682329 295.385962 
L 165.748599 295.261874 
L 165.814868 295.026245 
L 165.881138 295.361486 
L 166.013677 294.8913 
L 166.212486 295.124369 
L 166.345025 295.125874 
L 166.543833 295.357507 
L 166.676373 294.981319 
L 166.875181 295.157355 
L 166.941451 295.112194 
L 167.07399 295.425376 
L 167.140259 295.402217 
L 167.206529 295.219867 
L 167.272799 295.394319 
L 167.339068 295.217817 
L 167.405338 295.314709 
L 167.537877 295.342891 
L 167.670416 294.63728 
L 167.869225 295.157361 
L 168.068033 295.349875 
L 168.200572 295.205048 
L 168.399381 294.869958 
L 168.664459 295.431588 
L 168.863268 295.280128 
L 168.929537 295.179105 
L 168.995807 295.41617 
L 169.062076 295.371579 
L 169.194616 295.022632 
L 169.260885 295.258882 
L 169.393424 295.01332 
L 169.525963 295.440319 
L 169.592233 295.387806 
L 169.791042 295.273019 
L 169.923581 295.325309 
L 169.98985 295.423221 
L 170.05612 295.375953 
L 170.122389 295.092694 
L 170.188659 295.109015 
L 170.321198 295.168207 
L 170.387468 295.062301 
L 170.453737 295.106714 
L 170.652546 295.162938 
L 170.917624 295.371558 
L 171.050163 295.366102 
L 171.116433 295.446376 
L 171.182702 295.371557 
L 171.315241 295.21117 
L 171.381511 295.359563 
L 171.44778 295.091289 
L 171.646589 295.367976 
L 171.779128 295.155765 
L 172.176746 295.428584 
L 172.375554 295.27414 
L 172.508093 295.474351 
L 172.574363 295.128013 
L 172.640632 295.187169 
L 172.706902 295.346225 
L 172.839441 295.186623 
L 172.905711 295.318377 
L 172.97198 295.244074 
L 173.03825 295.295186 
L 173.104519 295.156972 
L 173.237058 295.453345 
L 173.502137 295.188481 
L 173.568406 295.118256 
L 173.767215 295.3647 
L 173.833484 295.230843 
L 173.899754 295.387122 
L 173.966023 295.288421 
L 174.231102 295.310141 
L 174.297371 295.287671 
L 174.363641 295.442158 
L 174.42991 295.273795 
L 174.49618 295.468037 
L 174.562449 295.233206 
L 174.628719 295.262523 
L 174.761258 295.304972 
L 174.893797 295.251134 
L 174.960067 295.374066 
L 175.026336 295.319335 
L 175.225145 295.105203 
L 175.291415 295.334353 
L 175.357684 294.367868 
L 175.423954 294.869667 
L 175.490223 294.255221 
L 175.556493 294.652231 
L 175.689032 295.240637 
L 175.755301 294.690269 
L 175.821571 295.261156 
L 175.887841 294.631042 
L 175.95411 294.984588 
L 176.152919 295.226103 
L 176.417997 295.18778 
L 176.616806 295.430355 
L 176.881884 295.324218 
L 176.948153 295.408891 
L 177.014423 295.295841 
L 177.080693 295.371628 
L 177.345771 295.407158 
L 177.41204 295.186646 
L 177.47831 295.233511 
L 177.610849 295.479141 
L 177.743388 295.263734 
L 177.809658 295.400216 
L 177.875927 295.227936 
L 177.942197 295.25717 
L 178.207275 295.296873 
L 178.273545 295.192129 
L 178.339814 295.269004 
L 178.406084 295.427651 
L 178.472353 295.328218 
L 178.803701 295.352951 
L 178.86997 295.215566 
L 178.93624 295.271817 
L 179.135049 295.343076 
L 180.261631 295.312793 
L 180.39417 295.395909 
L 180.46044 295.297098 
L 180.526709 295.419487 
L 180.592979 295.352633 
L 180.725518 295.162437 
L 180.858057 295.2372 
L 180.990596 294.974192 
L 181.056866 295.173979 
L 181.123135 295.138574 
L 181.520753 295.48207 
L 181.587022 295.17036 
L 181.653292 295.286874 
L 181.719561 295.392653 
L 181.785831 295.282031 
L 181.8521 295.336927 
L 181.91837 294.83575 
L 182.050909 295.391832 
L 182.117179 295.187634 
L 182.183448 295.348265 
L 182.382257 294.905053 
L 182.448526 293.260219 
L 182.581066 295.251561 
L 182.647335 295.445972 
L 182.713605 295.316846 
L 182.779874 295.298447 
L 182.846144 295.413367 
L 182.912413 295.26199 
L 182.978683 294.588452 
L 183.044952 294.908404 
L 183.177492 295.310741 
L 183.243761 295.271891 
L 183.3763 295.40632 
L 183.44257 295.349624 
L 183.508839 295.141335 
L 183.575109 295.228412 
L 183.641378 295.101481 
L 183.707648 295.180671 
L 183.906457 295.402781 
L 184.105265 295.110918 
L 184.304074 295.470468 
L 184.370343 295.367947 
L 184.569152 294.777198 
L 184.635422 295.029111 
L 184.701691 294.925397 
L 184.767961 294.852522 
L 184.966769 295.268029 
L 185.033039 295.046274 
L 185.099309 295.076905 
L 185.165578 295.032044 
L 185.231848 295.202572 
L 185.298117 295.083369 
L 185.430656 295.138072 
L 185.496926 294.812736 
L 185.563195 294.8908 
L 185.695735 295.329804 
L 185.762004 295.227235 
L 185.828274 295.45704 
L 185.960813 294.769062 
L 186.093352 294.375058 
L 186.159621 294.325985 
L 186.4247 295.277649 
L 186.490969 294.976112 
L 186.689778 294.49834 
L 186.888587 294.935955 
L 187.021126 294.94747 
L 187.087395 295.351661 
L 187.153665 295.110557 
L 187.219934 295.4031 
L 187.286204 294.872775 
L 187.352473 294.953265 
L 187.418743 294.751955 
L 187.485013 294.998763 
L 187.551282 294.917677 
L 187.617552 294.854674 
L 187.683821 294.928603 
L 187.81636 294.930237 
L 187.948899 295.213379 
L 188.081439 294.944317 
L 188.213978 294.088562 
L 188.280247 294.330721 
L 188.346517 294.058804 
L 188.479056 295.207373 
L 188.545325 294.853749 
L 188.611595 294.506141 
L 188.677864 294.737556 
L 188.744134 294.81714 
L 188.810404 294.044704 
L 188.876673 294.795076 
L 189.075482 290.948252 
L 189.208021 291.412024 
L 189.473099 294.713514 
L 189.605638 288.47347 
L 189.671908 290.268292 
L 189.804447 281.852656 
L 189.870716 282.107464 
L 190.003256 270.532314 
L 190.069525 260.0255 
L 190.202064 209.338982 
L 190.268334 275.596088 
L 190.334603 274.487279 
L 190.467142 290.815148 
L 190.599682 270.901246 
L 190.665951 292.691832 
L 190.732221 291.154107 
L 190.79849 289.8401 
L 191.063568 294.379794 
L 191.129838 292.358993 
L 191.196108 293.208185 
L 191.262377 293.462836 
L 191.328647 294.404768 
L 191.394916 293.954759 
L 191.461186 294.64244 
L 191.593725 293.156731 
L 191.659994 293.583284 
L 191.991342 294.837473 
L 192.057612 294.658797 
L 192.190151 294.246286 
L 192.38896 294.999436 
L 192.587768 294.611173 
L 192.720307 294.14748 
L 192.919116 295.347299 
L 192.985386 295.035035 
L 193.051655 295.184399 
L 193.184194 295.186585 
L 193.316733 294.750511 
L 193.383003 294.769449 
L 193.449272 294.569241 
L 193.581812 295.09112 
L 193.648081 295.070297 
L 193.714351 294.898669 
L 193.78062 294.94711 
L 193.84689 295.298683 
L 193.913159 295.095284 
L 193.979429 294.862873 
L 194.045698 295.113533 
L 194.111968 295.023626 
L 194.244507 295.400031 
L 194.377046 295.077801 
L 194.509585 295.268241 
L 194.575855 294.990785 
L 194.642124 295.181032 
L 194.708394 295.381097 
L 194.774663 295.023266 
L 194.840933 295.244428 
L 194.973472 294.77692 
L 195.172281 295.328666 
L 195.437359 295.172392 
L 195.503629 295.361968 
L 195.569898 295.316494 
L 195.636168 295.218395 
L 195.702437 294.808411 
L 195.768707 295.144481 
L 195.901246 294.659456 
L 196.033785 295.231058 
L 196.232594 294.528124 
L 196.298863 294.752896 
L 196.365133 294.581878 
L 196.563941 295.394853 
L 196.76275 295.040973 
L 196.82902 295.182445 
L 196.895289 295.121198 
L 196.961559 294.900136 
L 197.160367 295.454451 
L 197.226637 295.128146 
L 197.292907 295.199108 
L 197.624254 295.316275 
L 197.756793 295.108732 
L 197.955602 294.926956 
L 198.154411 295.270587 
L 198.353219 295.403847 
L 198.419489 295.260299 
L 198.485759 295.317142 
L 198.817106 295.347342 
L 198.883376 295.253355 
L 198.949645 295.398341 
L 199.015915 295.356107 
L 199.280993 295.186662 
L 199.479802 295.421896 
L 199.67861 295.239195 
L 199.81115 295.393798 
L 199.877419 295.253321 
L 200.009958 295.386353 
L 200.275036 295.315681 
L 200.341306 295.403345 
L 200.407576 295.351333 
L 200.473845 295.223173 
L 200.540115 295.319233 
L 200.937732 295.420618 
L 201.070271 295.40369 
L 201.20281 295.348896 
L 201.26908 295.445239 
L 201.467888 295.283475 
L 201.732967 295.406643 
L 201.865506 295.268293 
L 201.931775 295.443045 
L 201.998045 295.324957 
L 202.064314 295.251702 
L 202.263123 295.451593 
L 202.528201 295.22341 
L 202.72701 295.345947 
L 202.79328 295.274581 
L 202.859549 295.413809 
L 202.925819 295.254529 
L 202.992088 295.335993 
L 203.058358 295.240796 
L 203.124627 295.465864 
L 203.190897 295.385477 
L 203.257166 295.256099 
L 203.323436 295.427062 
L 203.389706 295.367046 
L 203.522245 295.266272 
L 203.654784 295.437583 
L 204.052401 294.991574 
L 204.118671 295.324908 
L 204.18494 294.745406 
L 204.25121 295.400349 
L 204.383749 294.314031 
L 204.450018 294.369697 
L 204.516288 294.235651 
L 204.582557 294.544387 
L 204.648827 295.404789 
L 204.715097 294.909701 
L 204.781366 293.663301 
L 204.847636 289.351259 
L 204.913905 291.123728 
L 205.178983 294.718384 
L 205.245253 295.164266 
L 205.311523 294.649599 
L 205.444062 295.350946 
L 205.510331 295.327347 
L 205.64287 295.035829 
L 205.775409 295.450073 
L 205.907949 295.212386 
L 205.974218 295.284838 
L 206.305566 295.40134 
L 206.371835 295.172943 
L 206.438105 295.304587 
L 206.504375 295.254572 
L 206.570644 295.360704 
L 206.636914 295.241515 
L 206.703183 295.336437 
L 206.769453 295.405604 
L 206.835722 295.238477 
L 206.901992 295.453979 
L 206.968261 295.399402 
L 207.100801 295.353341 
L 207.299609 295.392671 
L 207.365879 295.294452 
L 207.498418 295.395138 
L 207.697227 295.280122 
L 207.763496 295.437091 
L 207.829766 295.293744 
L 207.896035 295.33835 
L 208.492461 295.412037 
L 208.69127 295.291675 
L 208.890078 295.437535 
L 209.221426 295.380203 
L 209.420235 295.431424 
L 209.552774 295.285565 
L 209.751583 295.369018 
L 209.950391 295.368543 
L 210.016661 295.440745 
L 210.08293 295.345065 
L 210.1492 295.394112 
L 210.546817 295.339429 
L 210.613087 295.139332 
L 210.679356 295.432628 
L 210.745626 295.401712 
L 210.944435 295.319705 
L 211.010704 295.303384 
L 211.076974 295.425647 
L 211.143243 295.336276 
L 211.209513 295.359358 
L 211.275782 295.247107 
L 211.342052 295.392841 
L 211.408322 295.353055 
L 211.540861 295.296792 
L 211.739669 295.485791 
L 212.071017 295.191395 
L 212.137287 295.396001 
L 212.203556 295.260169 
L 212.468634 295.326247 
L 212.534904 295.432569 
L 212.601174 295.364517 
L 212.998791 295.15819 
L 213.263869 295.372299 
L 213.462678 295.420071 
L 213.528947 295.249739 
L 213.595217 295.332913 
L 213.661486 295.411759 
L 213.727756 295.20902 
L 213.794025 295.333631 
L 213.860295 295.284826 
L 213.926565 295.447446 
L 213.992834 295.401244 
L 214.390451 295.330084 
L 214.854338 295.425693 
L 215.251956 295.410193 
L 215.384495 295.44509 
L 215.517034 295.159568 
L 216.179729 295.448682 
L 216.378538 295.035781 
L 216.577347 295.229328 
L 216.643616 295.267517 
L 216.776155 295.120672 
L 216.908695 295.469958 
L 217.041234 294.924585 
L 217.107503 295.005377 
L 217.173773 295.082288 
L 217.240042 294.951791 
L 217.438851 295.275288 
L 217.703929 295.408205 
L 217.770199 295.32423 
L 217.902738 294.588226 
L 217.969007 295.078814 
L 218.234086 293.078944 
L 218.366625 294.557181 
L 218.565433 293.182633 
L 218.830512 283.993564 
L 218.896781 283.982709 
L 219.02932 290.028792 
L 219.09559 289.418344 
L 219.161859 257.576075 
L 219.228129 268.046864 
L 219.360668 292.913982 
L 219.426938 289.371403 
L 219.493207 293.521226 
L 219.559477 292.936326 
L 219.625746 292.509566 
L 219.758285 285.477765 
L 219.890824 292.901713 
L 219.957094 292.626461 
L 220.023364 292.524679 
L 220.089633 291.764266 
L 220.155903 293.152257 
L 220.288442 291.739489 
L 220.420981 292.571105 
L 220.48725 292.464836 
L 220.686059 293.107577 
L 220.752329 292.966422 
L 220.884868 294.678976 
L 220.951137 294.451377 
L 221.017407 295.205683 
L 221.149946 294.369748 
L 221.481294 295.25019 
L 221.680102 294.397864 
L 221.746372 295.449529 
L 221.812642 294.933632 
L 221.945181 294.642791 
L 222.01145 294.650633 
L 222.210259 295.209064 
L 222.276528 295.215811 
L 222.342798 294.866754 
L 222.409068 295.031865 
L 222.607876 295.360548 
L 222.674146 294.891883 
L 222.740415 294.940937 
L 222.872954 295.399133 
L 222.939224 295.095901 
L 223.005494 294.868078 
L 223.071763 295.023249 
L 223.138033 295.214334 
L 223.204302 295.162953 
L 223.270572 295.152346 
L 223.403111 294.509535 
L 223.53565 295.039581 
L 223.668189 294.772472 
L 223.734459 295.155127 
L 223.800728 295.071595 
L 223.866998 295.233489 
L 223.933267 295.041317 
L 223.999537 295.170945 
L 224.065806 295.317677 
L 224.132076 294.874911 
L 224.198345 295.060023 
L 224.264615 295.093548 
L 224.330885 295.304602 
L 224.397154 295.08112 
L 224.463424 295.325095 
L 224.529693 295.188652 
L 224.728502 294.664962 
L 224.794771 294.872304 
L 224.861041 294.591296 
L 224.927311 294.79161 
L 224.99358 294.637221 
L 225.126119 293.964296 
L 225.192389 294.224606 
L 225.258658 292.995421 
L 225.324928 293.268586 
L 225.457467 295.180263 
L 225.523737 295.058155 
L 225.590006 295.275078 
L 225.656276 295.145918 
L 225.855084 294.462273 
L 226.053893 293.744313 
L 226.318971 294.967666 
L 226.385241 294.643328 
L 226.716589 295.43172 
L 226.782858 295.207564 
L 226.849128 295.330474 
L 226.915397 295.300562 
L 226.981667 295.11698 
L 227.114206 295.306527 
L 227.313015 295.349462 
L 227.379284 295.46368 
L 227.578093 295.207854 
L 227.710632 295.239614 
L 227.843171 295.259424 
L 227.909441 295.333562 
L 227.97571 295.247311 
L 228.240788 295.207111 
L 228.373327 295.357872 
L 228.505867 295.234614 
L 228.572136 295.224897 
L 228.704675 295.350173 
L 228.837214 295.384334 
L 228.969753 295.250544 
L 229.036023 295.34119 
L 229.102292 295.190451 
L 229.168562 295.266104 
L 229.301101 295.316157 
L 229.367371 295.355198 
L 229.43364 295.174454 
L 229.632449 295.386325 
L 229.897527 295.289765 
L 229.963797 295.324546 
L 230.162605 295.171 
L 230.361414 295.263282 
L 230.825301 295.316267 
L 231.289188 295.228186 
L 231.355457 295.331421 
L 231.421727 295.281123 
L 231.620536 295.280816 
L 231.885614 295.215927 
L 231.951883 295.320843 
L 232.018153 295.216099 
L 232.084422 295.310058 
L 232.150692 295.488 
L 232.349501 295.25815 
L 232.548309 295.311026 
L 232.614579 295.350502 
L 232.747118 295.186944 
L 233.144735 295.180473 
L 233.343544 295.365225 
L 233.409814 295.104176 
L 233.476083 295.257636 
L 233.608622 295.361826 
L 233.741161 294.746446 
L 233.807431 295.355715 
L 233.8737 295.214041 
L 233.93997 294.882438 
L 234.006239 294.997796 
L 234.072509 295.086185 
L 234.138779 294.616183 
L 234.271318 295.283401 
L 234.470126 295.374731 
L 234.536396 295.143881 
L 234.602665 295.217042 
L 234.735205 295.372741 
L 234.801474 295.232928 
L 234.867744 295.350168 
L 235.000283 295.098041 
L 235.199091 295.346024 
L 235.265361 295.184998 
L 235.331631 295.262251 
L 235.46417 295.313103 
L 235.530439 295.191808 
L 235.596709 295.346127 
L 235.729248 295.094081 
L 235.795517 295.282723 
L 235.861787 295.165379 
L 236.060596 295.338836 
L 236.126865 295.200352 
L 236.193135 295.267408 
L 236.391943 295.352919 
L 236.85583 295.239004 
L 237.187178 295.223572 
L 237.253448 295.025655 
L 237.319717 295.121414 
L 237.849874 295.335883 
L 237.982413 295.237992 
L 238.114952 295.386891 
L 238.181221 295.24569 
L 238.38003 295.184092 
L 238.645108 295.235833 
L 238.843917 295.163119 
L 239.042726 295.26465 
L 239.175265 295.214014 
L 239.307804 295.13383 
L 239.506612 295.044609 
L 239.639152 295.275293 
L 239.83796 295.247915 
L 240.169308 295.143893 
L 240.368117 295.256278 
L 240.434386 295.081862 
L 240.500656 295.181979 
L 240.633195 295.353878 
L 240.765734 295.053699 
L 240.964543 295.182957 
L 241.229621 295.127965 
L 241.36216 295.122884 
L 241.42843 295.074844 
L 241.560969 295.14308 
L 241.693508 294.992765 
L 241.892316 295.239833 
L 242.024856 295.062418 
L 242.091125 295.300672 
L 242.289934 294.854816 
L 242.356203 295.230489 
L 242.422473 295.2149 
L 242.88636 294.753557 
L 243.151438 295.370091 
L 243.217708 295.368924 
L 243.283977 294.756684 
L 243.350247 295.043372 
L 243.482786 294.974748 
L 243.549055 295.148518 
L 243.615325 294.871046 
L 243.747864 295.176114 
L 243.946673 294.731454 
L 244.079212 294.241754 
L 244.27802 294.84199 
L 244.34429 294.610709 
L 244.410559 294.740714 
L 244.543099 294.972902 
L 244.609368 295.228381 
L 244.675638 294.9175 
L 244.741907 295.244029 
L 244.808177 295.122375 
L 244.940716 295.018822 
L 245.139525 294.912909 
L 245.205794 295.131038 
L 245.537142 294.466294 
L 245.603411 294.471979 
L 245.80222 294.120052 
L 245.86849 294.354931 
L 245.934759 295.064134 
L 246.001029 294.683787 
L 246.266107 293.503236 
L 246.332377 293.090175 
L 246.398646 293.790396 
L 246.531185 292.662935 
L 246.663724 293.114994 
L 246.796263 294.833691 
L 246.862533 294.781967 
L 246.928803 293.960382 
L 246.995072 294.275539 
L 247.061342 295.094418 
L 247.392689 291.587916 
L 247.458959 291.173916 
L 247.525229 291.301634 
L 247.591498 288.91557 
L 247.657768 291.982003 
L 247.724037 291.280191 
L 247.790307 291.087466 
L 247.989115 275.679929 
L 248.055385 258.403315 
L 248.121655 275.625974 
L 248.187924 266.839883 
L 248.254194 247.031672 
L 248.386733 273.876859 
L 248.453002 222.802022 
L 248.585541 279.363529 
L 248.651811 275.740652 
L 248.78435 288.755949 
L 248.85062 283.237387 
L 248.916889 266.719993 
L 248.983159 277.421119 
L 249.181967 295.242818 
L 249.314506 288.276727 
L 249.513315 293.911127 
L 249.579585 293.750157 
L 249.645854 294.455966 
L 249.712124 293.76417 
L 249.778393 294.486695 
L 249.844663 294.386573 
L 249.910932 292.985703 
L 249.977202 293.611325 
L 250.043472 293.669949 
L 250.109741 294.41879 
L 250.176011 293.758248 
L 250.24228 294.837587 
L 250.30855 294.790305 
L 250.374819 294.311183 
L 250.441089 294.481781 
L 250.706167 294.802505 
L 250.772437 294.330048 
L 250.904976 294.901956 
L 250.971245 294.604844 
L 251.037515 294.767915 
L 251.103784 294.696188 
L 251.170054 295.148967 
L 251.236324 294.42985 
L 251.302593 294.86419 
L 251.435132 294.723744 
L 251.501402 295.315051 
L 251.567671 295.040243 
L 251.633941 294.797192 
L 251.76648 295.179275 
L 251.83275 294.629305 
L 251.899019 295.124074 
L 251.965289 295.020366 
L 252.031558 294.873075 
L 252.097828 294.980928 
L 252.230367 295.046029 
L 252.296636 295.061218 
L 252.362906 294.821056 
L 252.429176 294.850485 
L 252.495445 294.763493 
L 252.561715 295.261854 
L 252.627984 295.16942 
L 252.694254 294.846765 
L 252.760523 295.053369 
L 252.826793 294.89155 
L 252.893062 294.995547 
L 253.091871 294.69336 
L 253.158141 295.223179 
L 253.22441 294.658088 
L 253.29068 295.158146 
L 253.356949 295.005214 
L 253.555758 295.181159 
L 253.622028 295.102111 
L 253.688297 295.17224 
L 253.887106 295.286624 
L 254.019645 295.138117 
L 254.085914 295.326752 
L 254.284723 294.818993 
L 254.350993 295.093209 
L 254.417262 295.035065 
L 254.483532 294.917861 
L 254.616071 295.079224 
L 254.814879 294.922521 
L 254.881149 295.184019 
L 255.146227 294.347623 
L 255.212497 294.568221 
L 255.278766 295.274358 
L 255.345036 295.174162 
L 255.477575 294.782943 
L 255.543845 295.014695 
L 255.610114 294.683548 
L 255.676384 294.85731 
L 255.742653 295.224797 
L 255.808923 295.058632 
L 255.875192 294.846671 
L 256.074001 295.355982 
L 256.140271 295.393508 
L 256.20654 295.159513 
L 256.27281 295.1908 
L 256.339079 295.141561 
L 256.471618 295.391263 
L 256.537888 294.737698 
L 256.604157 294.8482 
L 256.670427 294.702305 
L 256.736697 294.91926 
L 256.802966 294.688158 
L 256.935505 295.203945 
L 257.134314 295.154796 
L 257.200583 295.452865 
L 257.266853 295.011728 
L 257.333123 295.17733 
L 257.929549 294.459593 
L 257.995818 294.602433 
L 258.062088 294.537312 
L 258.128357 294.519397 
L 258.194627 295.130289 
L 258.260896 295.037143 
L 258.327166 295.282001 
L 258.393435 295.141147 
L 258.459705 295.298382 
L 258.525975 295.104895 
L 258.592244 295.207068 
L 258.724783 295.053246 
L 258.857322 295.295678 
L 258.923592 295.073275 
L 258.989861 295.20887 
L 259.056131 295.139335 
L 259.1224 295.267768 
L 259.18867 295.029256 
L 259.321209 295.31419 
L 259.520018 295.085972 
L 259.652557 295.217746 
L 259.718826 294.795291 
L 259.851366 295.341447 
L 259.917635 295.446798 
L 259.983905 295.375032 
L 260.514061 295.268549 
L 260.580331 295.413056 
L 260.6466 295.216168 
L 260.71287 295.413826 
L 260.779139 295.349565 
L 260.845409 295.127626 
L 260.911678 295.353295 
L 260.977948 295.315056 
L 261.044218 295.261816 
L 261.243026 295.407795 
L 261.375565 295.216319 
L 261.441835 295.340034 
L 261.508104 295.077178 
L 261.640644 295.463459 
L 261.706913 295.441037 
L 261.905722 295.445715 
L 261.971991 295.400619 
L 262.10453 295.159186 
L 262.303339 295.309652 
L 262.369609 295.317957 
L 262.435878 295.1201 
L 262.502148 295.308209 
L 262.568417 295.19724 
L 262.700956 295.07875 
L 262.767226 295.353043 
L 262.833496 295.242415 
L 262.899765 295.239517 
L 262.966035 295.02209 
L 263.098574 295.336998 
L 263.164843 295.362032 
L 263.231113 295.16978 
L 263.297382 295.425584 
L 263.363652 295.355435 
L 264.158887 295.378636 
L 264.423965 295.433381 
L 264.556504 295.200677 
L 264.622773 295.44248 
L 264.689043 295.383008 
L 265.08666 295.421572 
L 265.15293 295.257784 
L 265.219199 295.419693 
L 265.285469 295.268866 
L 265.351739 295.377183 
L 265.418008 295.336964 
L 265.550547 295.408209 
L 265.616817 295.339917 
L 265.683086 295.408181 
L 265.881895 295.342432 
L 265.948165 295.464356 
L 266.014434 295.374617 
L 266.412051 295.438123 
L 266.478321 295.318556 
L 266.544591 295.387352 
L 266.67713 295.382046 
L 266.809669 295.318073 
L 266.942208 295.37709 
L 267.141017 295.235688 
L 267.406095 295.409438 
L 267.604903 295.428775 
L 267.737443 295.368586 
L 267.803712 295.423286 
L 267.869982 295.339241 
L 268.06879 295.333066 
L 268.13506 295.465019 
L 268.201329 295.398553 
L 268.466408 295.330685 
L 268.532677 295.300167 
L 268.665216 295.386367 
L 268.930294 295.442571 
L 269.195373 295.380814 
L 269.261642 295.322606 
L 269.327912 295.455791 
L 269.394181 295.30423 
L 269.460451 295.382472 
L 269.59299 295.351313 
L 269.65926 295.455552 
L 269.725529 295.402392 
L 270.454494 295.377879 
L 270.653303 295.427103 
L 270.918381 295.384719 
L 271.11719 295.406905 
L 271.183459 295.303102 
L 271.315998 295.387912 
L 271.581077 295.363124 
L 271.779885 295.410989 
L 271.912424 295.362538 
L 271.978694 295.361704 
L 272.044964 295.48238 
L 272.111233 295.418888 
L 272.64139 295.407656 
L 272.773929 295.354643 
L 272.906468 295.458025 
L 273.039007 295.435245 
L 273.237816 295.387991 
L 273.370355 295.320709 
L 273.436624 295.46976 
L 273.502894 295.353322 
L 273.569163 295.468817 
L 273.635433 295.362419 
L 274.03305 295.323826 
L 274.165589 295.446421 
L 274.298128 295.428618 
L 274.960824 295.371242 
L 275.093363 295.246363 
L 275.225902 295.414629 
L 275.424711 295.385373 
L 275.49098 295.46857 
L 275.689789 295.264049 
L 275.888598 295.48176 
L 276.286215 295.385845 
L 276.352485 295.437654 
L 276.418754 295.291354 
L 276.485024 295.402561 
L 276.551293 295.329923 
L 276.617563 295.399342 
L 276.683832 295.388729 
L 276.750102 295.247224 
L 276.816371 295.374571 
L 276.882641 295.261714 
L 277.01518 295.32902 
L 277.08145 295.064777 
L 277.147719 295.264429 
L 277.213989 295.121428 
L 277.346528 294.305977 
L 277.412797 295.003884 
L 277.479067 294.949942 
L 277.677876 293.326479 
L 277.744145 293.622006 
L 277.942954 295.362229 
L 278.009223 295.453283 
L 278.075493 295.266992 
L 278.141763 295.34667 
L 278.274302 295.222609 
L 278.406841 295.402798 
L 278.53938 295.29993 
L 278.738188 295.399685 
L 278.870728 295.395703 
L 279.135806 295.452934 
L 279.202075 295.355436 
L 279.268345 295.406634 
L 279.400884 295.402781 
L 279.864771 295.281241 
L 280.06358 295.41246 
L 280.328658 295.42543 
L 280.461197 295.390766 
L 280.726275 295.444016 
L 281.057623 295.37766 
L 281.322701 295.344263 
L 281.45524 295.479488 
L 281.720318 295.2765 
L 281.919127 295.443327 
L 282.184205 295.441614 
L 282.581823 295.438992 
L 282.648092 295.287474 
L 282.714362 295.38242 
L 282.846901 295.428534 
L 282.91317 295.300655 
L 282.97944 295.407503 
L 283.244518 295.354693 
L 283.443327 295.391745 
L 283.708405 295.434765 
L 284.901257 295.320262 
L 285.100066 295.444708 
L 285.298874 295.341008 
L 285.431413 295.454026 
L 285.630222 295.431089 
L 285.762761 295.374905 
L 285.8953 295.406153 
L 286.160379 295.41822 
L 286.292918 295.37123 
L 286.491726 295.460839 
L 287.088152 295.420357 
L 287.353231 295.459623 
L 287.48577 295.444927 
L 287.949657 295.463199 
L 288.015926 295.29215 
L 288.082196 295.483889 
L 288.148465 295.454001 
L 288.281004 295.295918 
L 288.347274 295.224837 
L 288.479813 295.413003 
L 288.546083 295.272632 
L 288.612352 295.361643 
L 288.678622 295.307542 
L 288.744891 295.447675 
L 288.811161 295.369955 
L 289.076239 295.469777 
L 289.275048 295.387748 
L 289.540126 295.443515 
L 289.738934 295.443436 
L 289.871474 295.37449 
L 290.070282 295.468737 
L 290.269091 295.395443 
L 290.534169 295.422636 
L 290.998056 295.266015 
L 291.064326 295.231981 
L 291.130595 295.4864 
L 291.196865 295.328025 
L 291.329404 295.460954 
L 291.461943 295.259303 
L 291.528212 295.298248 
L 291.594482 295.095278 
L 291.660752 295.436134 
L 291.727021 295.227821 
L 291.793291 295.238497 
L 291.85956 295.064487 
L 291.92583 295.351947 
L 291.992099 295.332858 
L 292.058369 295.026967 
L 292.124638 293.96502 
L 292.190908 294.182891 
L 292.323447 294.954878 
L 292.389717 294.414282 
L 292.455986 295.178464 
L 292.522256 294.976438 
L 292.588525 295.352285 
L 292.654795 294.800537 
L 292.721064 295.333748 
L 292.787334 295.106114 
L 292.853604 295.100293 
L 292.919873 295.360787 
L 292.986143 295.297074 
L 293.052412 295.396907 
L 293.118682 295.134749 
L 293.184951 295.361056 
L 293.31749 294.956507 
L 293.45003 295.42127 
L 293.582569 295.371305 
L 293.715108 295.405883 
L 294.046455 295.250201 
L 294.245264 295.423983 
L 294.444073 295.299312 
L 294.642881 295.46294 
L 295.173038 295.257356 
L 295.371847 295.485443 
L 295.636925 295.311651 
L 295.769464 295.338187 
L 295.968273 295.444663 
L 296.034542 295.230686 
L 296.100812 295.43829 
L 296.167081 295.371789 
L 296.564699 295.397099 
L 296.763507 295.453001 
L 297.028585 295.287302 
L 297.161125 295.346908 
L 297.227394 295.31775 
L 297.293664 295.457804 
L 297.359933 295.385989 
L 297.426203 295.458146 
L 297.492472 295.373423 
L 297.691281 295.436154 
L 297.89009 295.408011 
L 298.088898 295.39695 
L 298.287707 295.345602 
L 298.486516 295.467423 
L 298.552785 295.199824 
L 298.619055 295.277468 
L 298.685324 295.257179 
L 298.751594 295.456539 
L 298.817863 295.363099 
L 299.149211 295.343456 
L 299.215481 295.185608 
L 299.34802 295.455286 
L 299.414289 295.453372 
L 299.613098 295.169406 
L 299.745637 295.392084 
L 299.878176 295.261845 
L 300.076985 295.451727 
L 300.209524 295.253475 
L 300.275794 295.451814 
L 300.342063 295.310776 
L 300.408333 295.468454 
L 300.474602 295.429207 
L 300.673411 295.02902 
L 300.73968 294.954665 
L 300.80595 295.381489 
L 300.87222 295.230859 
L 301.137298 295.419535 
L 301.203567 295.227638 
L 301.269837 295.314103 
L 301.336106 295.211576 
L 301.402376 295.287613 
L 301.667454 295.354933 
L 301.866263 295.33637 
L 301.998802 295.448536 
L 302.065072 295.17139 
L 302.131341 295.417472 
L 302.197611 295.035807 
L 302.26388 295.176944 
L 302.396419 294.92068 
L 302.528958 295.221729 
L 302.595228 295.066102 
L 302.661498 295.192969 
L 302.727767 295.190531 
L 302.794037 295.357454 
L 302.860306 295.327825 
L 303.059115 295.289082 
L 303.125384 295.435261 
L 303.257924 294.966927 
L 303.324193 294.987203 
L 303.456732 295.100122 
L 303.655541 295.387015 
L 303.72181 295.088842 
L 303.920619 295.412044 
L 304.053158 294.915555 
L 304.119428 295.084304 
L 304.185697 294.743481 
L 304.251967 295.116199 
L 304.318236 294.928461 
L 304.517045 294.511862 
L 304.583315 294.576915 
L 304.649584 294.600805 
L 304.715854 294.851912 
L 304.782123 294.755938 
L 305.047201 295.223767 
L 305.179741 294.17772 
L 305.24601 295.209321 
L 305.444819 293.112683 
L 305.511088 294.604447 
L 305.577358 294.331639 
L 305.709897 293.562399 
L 305.776167 294.291276 
L 305.974975 288.245821 
L 306.041245 289.730051 
L 306.173784 291.825531 
L 306.372593 255.125302 
L 306.438862 282.736411 
L 306.505132 280.00262 
L 306.571401 267.352356 
L 306.637671 292.608266 
L 306.70394 283.640256 
L 306.836479 293.482782 
L 306.902749 289.13737 
L 307.101558 292.047002 
L 307.167827 289.871869 
L 307.300366 293.762874 
L 307.366636 293.155819 
L 307.565445 293.85014 
L 307.697984 293.725459 
L 307.764253 293.785515 
L 307.830523 293.433657 
L 308.029331 295.193599 
L 308.095601 294.868555 
L 308.22814 294.176578 
L 308.29441 294.377707 
L 308.426949 295.395849 
L 308.493218 295.295545 
L 308.559488 295.061812 
L 308.625757 294.399584 
L 308.692027 294.602795 
L 308.824566 295.181044 
L 309.023375 294.766793 
L 309.089644 295.269214 
L 309.155914 295.243007 
L 309.222183 294.749271 
L 309.288453 294.90427 
L 309.354722 295.19851 
L 309.487262 294.819535 
L 309.68607 295.230756 
L 309.75234 294.750637 
L 309.818609 294.837743 
L 309.951148 295.377135 
L 310.149957 295.26261 
L 310.216227 294.662473 
L 310.282496 295.167881 
L 310.348766 294.658882 
L 310.415035 295.246843 
L 310.481305 295.037738 
L 310.613844 295.392781 
L 310.680114 295.334783 
L 310.746383 295.065991 
L 310.878922 295.302179 
L 311.077731 295.325691 
L 311.21027 294.931025 
L 311.409079 295.295847 
L 311.475348 295.455867 
L 311.541618 295.22872 
L 311.607887 295.253213 
L 311.674157 295.362958 
L 311.740426 295.018872 
L 311.806696 295.171858 
L 311.872966 295.21727 
L 311.939235 295.114085 
L 312.005505 295.319398 
L 312.071774 295.038973 
L 312.138044 295.326736 
L 312.204313 295.023336 
L 312.336852 295.440449 
L 312.403122 295.441487 
L 312.469392 295.148623 
L 312.535661 295.239996 
L 312.601931 295.290608 
L 312.6682 295.185536 
L 312.73447 295.279251 
L 312.933278 295.241678 
L 312.999548 295.20033 
L 313.198357 295.352967 
L 313.264626 295.249004 
L 313.330896 295.361236 
L 313.397165 295.265836 
L 313.529704 295.307191 
L 313.728513 295.103998 
L 313.794783 295.03385 
L 314.059861 295.455453 
L 314.1924 295.04632 
L 314.258669 295.108839 
L 314.324939 294.993525 
L 314.391209 295.362379 
L 314.457478 295.215087 
L 314.523748 295.343942 
L 314.656287 295.176878 
L 314.722556 295.267892 
L 314.921365 294.955498 
L 314.987635 295.23249 
L 315.053904 295.084551 
L 315.120174 294.937456 
L 315.186443 295.201332 
L 315.252713 295.103223 
L 315.318982 294.896267 
L 315.385252 295.082383 
L 315.451521 295.054859 
L 315.517791 295.009062 
L 315.65033 295.264565 
L 315.7166 295.037582 
L 315.782869 295.326246 
L 315.915408 294.944641 
L 315.981678 295.187277 
L 316.379295 293.940577 
L 316.511834 294.434036 
L 316.644373 295.243961 
L 316.776913 294.065002 
L 316.843182 294.403128 
L 316.909452 294.368845 
L 316.975721 293.949928 
L 317.041991 293.96248 
L 317.10826 293.96676 
L 317.17453 294.516467 
L 317.240799 294.381505 
L 317.307069 294.550122 
L 317.373339 294.347131 
L 317.439608 294.443938 
L 317.505878 294.807136 
L 317.572147 294.785661 
L 317.837225 294.477555 
L 317.903495 294.179526 
L 317.969765 294.431888 
L 318.036034 294.32704 
L 318.102304 293.667273 
L 318.168573 293.914204 
L 318.367382 295.137693 
L 318.433651 295.12121 
L 318.566191 294.277653 
L 318.897538 295.387462 
L 319.162616 294.499807 
L 319.361425 295.168145 
L 319.560234 295.343677 
L 319.759042 295.327618 
L 319.825312 295.295497 
L 319.957851 294.965959 
L 320.09039 295.06432 
L 320.289199 294.387865 
L 320.355468 294.88708 
L 320.421738 294.631414 
L 320.554277 294.476613 
L 320.753086 295.262324 
L 320.819355 294.66303 
L 320.885625 295.209217 
L 321.018164 294.69209 
L 321.084434 295.114489 
L 321.150703 294.733929 
L 321.216973 294.940103 
L 321.415781 295.430905 
L 321.61459 294.873645 
L 321.68086 295.349851 
L 321.747129 295.242937 
L 321.813399 295.157173 
L 321.879668 295.271562 
L 321.945938 295.204214 
L 322.144746 295.009341 
L 322.277286 295.347116 
L 322.476094 295.246594 
L 322.608633 295.30012 
L 322.674903 295.125081 
L 322.741172 295.152438 
L 322.939981 295.320796 
L 323.07252 295.180053 
L 323.337598 295.374377 
L 323.403868 295.25678 
L 323.470138 295.300243 
L 323.536407 295.360647 
L 323.668946 295.27214 
L 323.735216 295.431142 
L 323.801485 295.401063 
L 324.199103 295.258736 
L 324.265372 295.342889 
L 324.331642 295.27242 
L 324.397911 295.24136 
L 324.464181 295.467666 
L 324.53045 295.410174 
L 324.59672 295.306011 
L 324.662989 295.390509 
L 324.795529 295.426698 
L 327.247502 295.3596 
L 327.380041 295.398558 
L 327.446311 295.266263 
L 327.51258 295.339049 
L 327.711389 295.400208 
L 327.910198 295.450534 
L 327.976467 295.300133 
L 328.042737 295.389551 
L 328.440354 295.354686 
L 328.572893 295.395715 
L 329.765745 295.343025 
L 329.898284 295.416879 
L 329.964554 295.357917 
L 330.030823 295.466598 
L 330.097093 295.377777 
L 330.362171 295.427337 
L 330.428441 295.286313 
L 330.49471 295.354848 
L 330.627249 295.308443 
L 330.693519 295.454963 
L 330.759788 295.387329 
L 330.892328 295.4141 
L 330.958597 295.329412 
L 331.024867 295.413825 
L 331.356214 295.367578 
L 331.488754 295.43378 
L 331.886371 295.362524 
L 331.95264 295.407015 
L 332.01891 295.251131 
L 332.08518 295.356621 
L 332.350258 295.462977 
L 332.482797 295.265638 
L 333.145492 295.436271 
L 333.278032 295.261462 
L 333.410571 295.42422 
L 333.609379 295.323656 
L 333.675649 295.473142 
L 333.741918 295.360124 
L 334.205805 295.222984 
L 334.338344 295.280577 
L 334.404614 294.955501 
L 334.470883 295.407304 
L 334.537153 295.328894 
L 334.603423 295.236619 
L 334.669692 295.437415 
L 334.735962 295.325771 
L 334.93477 294.930753 
L 335.00104 294.823557 
L 335.199849 293.923668 
L 335.332388 292.727454 
L 335.398657 293.308075 
L 335.464927 294.268215 
L 335.531196 294.146802 
L 335.597466 291.306951 
L 335.663735 292.015307 
L 335.730005 294.709332 
L 335.796275 294.237601 
L 335.862544 293.773209 
L 335.928814 291.279358 
L 335.995083 294.800939 
L 336.061353 294.265129 
L 336.127622 294.377731 
L 336.260161 293.538279 
L 336.326431 294.12067 
L 336.392701 293.555354 
L 336.45897 293.923569 
L 336.52524 294.569993 
L 336.591509 294.524016 
L 336.657779 294.702256 
L 336.790318 295.343222 
L 336.989127 295.104207 
L 337.254205 295.360921 
L 337.320474 295.256333 
L 337.386744 295.445451 
L 337.585553 295.177371 
L 337.718092 295.426284 
L 337.850631 295.196522 
L 338.049439 295.447122 
L 338.115709 295.299705 
L 338.181979 295.435439 
L 338.248248 295.347613 
L 338.910944 295.309416 
L 338.977213 295.255575 
L 339.176022 295.385168 
L 339.308561 295.333895 
L 339.50737 295.414513 
L 339.706178 295.264052 
L 339.838717 295.454741 
L 339.971256 295.319755 
L 340.103796 295.429117 
L 340.170065 295.406732 
L 340.236335 295.248875 
L 340.302604 295.369534 
L 340.633952 295.376073 
L 340.700222 295.217579 
L 340.766491 295.470705 
L 340.832761 295.395132 
L 340.89903 295.398598 
L 340.9653 295.194656 
L 341.031569 295.315809 
L 341.230378 295.098523 
L 341.362917 295.360729 
L 341.429187 295.271071 
L 341.495456 295.477298 
L 341.561726 295.316425 
L 341.627995 295.36503 
L 341.826804 295.350201 
L 341.959343 295.294035 
L 342.091882 295.386346 
L 342.35696 295.332413 
L 342.42323 295.455206 
L 342.4895 295.360565 
L 342.622039 295.330414 
L 342.688308 295.468834 
L 342.754578 295.348351 
L 342.820847 295.403837 
L 342.887117 295.421823 
L 342.953386 295.314986 
L 343.019656 295.390503 
L 343.351004 295.207915 
L 343.549812 295.433279 
L 343.748621 295.229846 
L 343.814891 295.433854 
L 343.88116 295.322838 
L 343.94743 295.367883 
L 344.013699 295.187289 
L 344.146238 295.427862 
L 344.278777 295.438256 
L 344.808934 295.271486 
L 344.875203 295.40717 
L 344.941473 295.233951 
L 345.007743 295.391813 
L 345.074012 295.259005 
L 345.206551 295.452717 
L 345.40536 295.348704 
L 345.471629 295.185824 
L 345.537899 295.323409 
L 345.604169 295.262785 
L 345.802977 295.307097 
L 345.869247 295.466528 
L 345.935516 295.429983 
L 346.200595 295.324704 
L 346.399403 295.340204 
L 346.797021 295.299252 
L 346.92956 295.400737 
L 347.128368 295.305693 
L 347.327177 295.409285 
L 347.459716 295.359358 
L 347.592255 295.393696 
L 347.791064 295.373302 
L 347.857333 295.323122 
L 347.989873 295.392577 
L 348.32122 295.233679 
L 348.453759 295.446184 
L 348.520029 295.410327 
L 348.652568 295.352195 
L 348.718838 295.181676 
L 348.785107 295.43494 
L 348.851377 295.415712 
L 348.983916 295.389259 
L 349.050185 295.27463 
L 349.116455 295.400896 
L 349.182724 295.264772 
L 349.248994 295.338209 
L 349.580342 295.332741 
L 349.77915 295.391996 
L 349.91169 295.226232 
L 350.044229 295.326433 
L 350.110498 295.329174 
L 350.243037 295.146965 
L 350.309307 295.430749 
L 350.375576 295.302871 
L 350.441846 295.154195 
L 350.508116 295.273879 
L 350.773194 295.426653 
L 351.038272 295.329321 
L 351.170811 295.067764 
L 351.237081 295.316966 
L 351.30335 295.125354 
L 351.36962 295.159552 
L 351.435889 295.372284 
L 351.502159 295.207006 
L 351.634698 295.33408 
L 351.700968 295.324053 
L 351.833507 295.100515 
L 351.899776 295.369033 
L 351.966046 295.324463 
L 352.032315 295.245755 
L 352.098585 295.362136 
L 352.297394 295.149415 
L 352.429933 295.16386 
L 352.496202 295.075679 
L 352.628741 295.24544 
L 352.695011 295.058079 
L 352.76128 295.098264 
L 352.89382 295.154729 
L 353.026359 295.035811 
L 353.092628 295.135192 
L 353.158898 294.956489 
L 353.225167 295.059636 
L 353.423976 295.464479 
L 353.490246 295.383051 
L 353.689054 294.998175 
L 353.755324 295.177329 
L 353.954132 294.791926 
L 354.086671 295.032477 
L 354.152941 294.875461 
L 354.418019 295.426577 
L 354.616828 294.995466 
L 354.683097 294.906342 
L 354.749367 294.983784 
L 354.948176 295.09562 
L 355.014445 294.934347 
L 355.080715 295.033628 
L 355.213254 295.236512 
L 355.279523 295.066574 
L 355.345793 295.135561 
L 355.544602 295.04038 
L 355.610871 295.234063 
L 355.677141 295.194345 
L 355.74341 295.123625 
L 355.875949 295.369168 
L 355.942219 295.159656 
L 356.008489 295.246774 
L 356.207297 295.15217 
L 356.538645 295.322305 
L 356.671184 295.412464 
L 356.869993 295.376736 
L 356.936262 295.456082 
L 357.002532 295.391615 
L 357.201341 295.297866 
L 357.400149 295.200628 
L 357.598958 295.386979 
L 357.797767 295.277572 
L 358.062845 295.248426 
L 358.129114 295.07404 
L 358.195384 295.172463 
L 358.593001 295.291199 
L 358.72554 295.444873 
L 358.924349 295.368745 
L 359.056888 295.449936 
L 359.255697 295.427452 
L 359.321966 295.448912 
L 359.388236 295.33993 
L 359.454505 295.407487 
L 359.653314 295.361772 
L 359.918392 295.446301 
L 360.24974 295.299716 
L 360.448549 295.372949 
L 360.581088 295.289088 
L 361.044975 295.447816 
L 361.243783 295.427244 
L 361.310053 295.316042 
L 361.376322 295.431622 
L 361.442592 295.287194 
L 361.508862 295.327398 
L 361.70767 295.315063 
L 361.840209 295.372426 
L 361.972748 295.337643 
L 362.370366 295.465285 
L 362.436635 295.292653 
L 362.502905 295.321402 
L 362.635444 295.406692 
L 362.767983 295.330273 
L 362.834253 295.45188 
L 362.900522 295.37518 
L 362.966792 295.413705 
L 363.033061 295.28218 
L 363.099331 295.341893 
L 363.29814 295.091283 
L 363.364409 295.412633 
L 363.430679 295.287915 
L 363.496948 295.30968 
L 363.563218 294.898914 
L 363.695757 295.32572 
L 363.762026 294.150765 
L 363.828296 295.005236 
L 363.894565 294.177188 
L 363.960835 295.228011 
L 364.159644 292.772614 
L 364.292183 294.951276 
L 364.358452 293.12146 
L 364.424722 293.775412 
L 364.490991 292.737019 
L 364.557261 293.738654 
L 364.623531 293.63007 
L 364.6898 293.826341 
L 364.75607 295.152955 
L 364.822339 294.915177 
L 365.021148 294.495944 
L 365.153687 295.415459 
L 365.286226 295.129276 
L 365.352496 295.391453 
L 365.418765 295.354829 
L 365.551304 294.776623 
L 365.617574 295.0286 
L 365.683843 294.712386 
L 365.882652 295.335143 
L 366.015191 295.310098 
L 366.081461 295.274486 
L 366.14773 294.684655 
L 366.214 295.019425 
L 366.346539 295.224279 
L 366.412809 295.349924 
L 366.545348 294.946852 
L 366.611617 295.276775 
L 366.677887 295.229755 
L 366.876695 295.268914 
L 367.141774 295.393834 
L 367.274313 295.243829 
L 367.340582 295.394641 
L 367.406852 295.315119 
L 367.473121 295.411815 
L 367.539391 295.333484 
L 367.67193 295.417951 
L 367.804469 295.365315 
L 368.202087 295.424953 
L 368.334626 295.333898 
L 368.467165 295.431525 
L 368.533434 295.336136 
L 368.732243 295.459132 
L 369.660017 295.403667 
L 370.388982 295.433479 
L 370.852869 295.428935 
L 370.985408 295.429913 
L 371.117947 295.391783 
L 372.17826 295.41577 
L 372.244529 295.236944 
L 372.310799 295.356679 
L 372.509608 295.428144 
L 372.708416 295.335413 
L 373.039764 295.433499 
L 373.304842 295.399575 
L 373.437381 295.372476 
L 373.56992 295.216916 
L 373.70246 295.314283 
L 374.232616 295.38651 
L 374.365155 295.284126 
L 374.895311 295.352252 
L 374.961581 295.262244 
L 375.027851 295.311719 
L 375.09412 295.340283 
L 375.16039 295.219139 
L 375.226659 295.277757 
L 375.359198 295.174484 
L 375.425468 295.389427 
L 375.491737 295.356671 
L 375.690546 295.102792 
L 375.823085 295.384258 
L 375.955624 295.293151 
L 376.088163 295.357125 
L 376.353242 295.276858 
L 376.485781 295.247 
L 376.55205 295.261067 
L 376.61832 295.461905 
L 376.684589 295.369231 
L 376.883398 294.925701 
L 377.082207 295.283759 
L 377.214746 295.415975 
L 377.347285 295.336979 
L 377.413555 295.315913 
L 377.479824 295.413219 
L 377.678633 295.046155 
L 377.744902 295.271727 
L 377.811172 295.178861 
L 377.943711 295.394165 
L 378.208789 295.089364 
L 378.275059 295.326126 
L 378.341328 295.098932 
L 378.407598 295.165914 
L 378.540137 295.096557 
L 378.606407 295.081858 
L 378.738946 295.402718 
L 378.805215 295.156482 
L 378.871485 295.296151 
L 379.070293 295.337037 
L 379.136563 295.292939 
L 379.269102 294.986124 
L 379.335372 295.096682 
L 379.467911 294.778952 
L 379.60045 295.203078 
L 379.666719 295.068238 
L 379.732989 294.711759 
L 379.799258 294.923623 
L 379.931798 295.284102 
L 379.998067 295.059833 
L 380.064337 295.173276 
L 380.130606 295.34314 
L 380.196876 295.268119 
L 380.263145 295.22491 
L 380.329415 295.381646 
L 380.395684 295.282656 
L 380.461954 295.218463 
L 380.528224 295.440309 
L 380.594493 295.212363 
L 380.660763 295.248346 
L 380.859571 295.438416 
L 381.05838 295.313161 
L 381.12465 295.471227 
L 381.257189 295.291061 
L 381.323458 295.455519 
L 381.389728 295.408073 
L 381.853615 295.331222 
L 381.919884 295.450496 
L 381.986154 295.385738 
L 382.052423 295.28878 
L 382.118693 295.435787 
L 382.184962 295.391093 
L 382.317502 295.334434 
L 382.450041 295.223147 
L 382.51631 295.411238 
L 382.58258 295.323097 
L 382.781388 295.45419 
L 382.847658 295.314606 
L 382.980197 295.419802 
L 383.245275 295.447144 
L 383.377814 295.386798 
L 383.510354 295.434277 
L 383.576623 295.348368 
L 383.642893 295.403534 
L 383.775432 295.467011 
L 383.841701 295.362903 
L 383.97424 295.462396 
L 384.239319 295.407228 
L 384.504397 295.40631 
L 384.769475 295.451001 
L 385.630979 295.395984 
L 385.763518 295.393673 
L 386.293675 295.397087 
L 386.359944 295.290114 
L 386.426214 295.374562 
L 386.558753 295.401443 
L 386.625023 295.309896 
L 386.691292 295.394346 
L 387.088909 295.378326 
L 387.155179 295.463986 
L 387.221449 295.368713 
L 387.420257 295.414853 
L 387.619066 295.434212 
L 387.685335 295.468256 
L 387.884144 295.337044 
L 388.082953 295.413911 
L 388.215492 295.386043 
L 388.281761 295.48246 
L 388.348031 295.428011 
L 388.745648 295.46398 
L 389.275805 295.368041 
L 389.474613 295.429222 
L 389.607152 295.40572 
L 389.673422 295.454075 
L 389.739692 295.301408 
L 389.805961 295.437319 
L 389.872231 295.387846 
L 390.203578 295.414461 
L 390.336118 295.386433 
L 390.468657 295.371748 
L 390.601196 295.354963 
L 390.800004 295.391279 
L 391.065083 295.400101 
L 391.131352 295.297043 
L 391.263891 295.41657 
L 391.39643 295.292682 
L 391.4627 295.383932 
L 391.52897 295.479631 
L 391.595239 295.390568 
L 391.661509 295.422348 
L 391.727778 295.293587 
L 391.860317 295.432746 
L 392.059126 295.372878 
L 392.191665 295.439602 
L 392.324204 295.399848 
L 392.589282 295.414346 
L 392.721822 295.359609 
L 393.119439 295.447135 
L 393.251978 295.340883 
L 393.318248 295.396015 
L 393.517056 295.178995 
L 393.715865 295.381426 
L 393.782134 295.354183 
L 393.848404 295.459008 
L 393.980943 295.268637 
L 394.047213 295.249385 
L 394.113482 295.445524 
L 394.179752 295.135148 
L 394.246021 295.401496 
L 394.312291 295.368228 
L 394.37856 295.294797 
L 394.44483 295.362537 
L 394.511099 295.356128 
L 394.577369 295.473369 
L 394.643639 295.318623 
L 394.709908 295.411087 
L 394.908717 295.453807 
L 395.240065 295.334779 
L 395.306334 295.455886 
L 395.372604 295.403186 
L 396.565456 295.444887 
L 396.631725 295.380498 
L 396.697995 295.462302 
L 397.42696 295.435091 
L 398.487273 295.476311 
L 398.487273 295.476311 
" clip-path="url(#p43eeced862)" style="fill: none; stroke: #1f77b4; stroke-width: 1.5; stroke-linecap: square"/>
   </g>
   <g id="patch_3">
    <path d="M 57.6 307.584 
L 57.6 41.472 
" style="fill: none; stroke: #000000; stroke-width: 0.8; stroke-linejoin: miter; stroke-linecap: square"/>
   </g>
   <g id="patch_4">
    <path d="M 414.72 307.584 
L 414.72 41.472 
" style="fill: none; stroke: #000000; stroke-width: 0.8; stroke-linejoin: miter; stroke-linecap: square"/>
   </g>
   <g id="patch_5">
    <path d="M 57.6 307.584 
L 414.72 307.584 
" style="fill: none; stroke: #000000; stroke-width: 0.8; stroke-linejoin: miter; stroke-linecap: square"/>
   </g>
   <g id="patch_6">
    <path d="M 57.6 41.472 
L 414.72 41.472 
" style="fill: none; stroke: #000000; stroke-width: 0.8; stroke-linejoin: miter; stroke-linecap: square"/>
   </g>
   <g id="text_15">
    <text style="font: 12px 'IPAexGothic'; text-anchor: middle" x="236.16" y="35.472" transform="rotate(-0 236.16 35.472)">"020_A4.wav"の振幅スペクトル</text>
   </g>
  </g>
 </g>
 <defs>
  <clipPath id="p43eeced862">
   <rect x="57.6" y="41.472" width="357.12" height="266.112"/>
  </clipPath>
 </defs>
</svg>
