<?xml version="1.0" encoding="utf-8" standalone="no"?>
<!DOCTYPE svg PUBLIC "-//W3C//DTD SVG 1.1//EN"
  "http://www.w3.org/Graphics/SVG/1.1/DTD/svg11.dtd">
<svg xmlns:xlink="http://www.w3.org/1999/xlink" width="460.8pt" height="345.6pt" viewBox="0 0 460.8 345.6" xmlns="http://www.w3.org/2000/svg" version="1.1">
 <metadata>
  <rdf:RDF xmlns:dc="http://purl.org/dc/elements/1.1/" xmlns:cc="http://creativecommons.org/ns#" xmlns:rdf="http://www.w3.org/1999/02/22-rdf-syntax-ns#">
   <cc:Work>
    <dc:type rdf:resource="http://purl.org/dc/dcmitype/StillImage"/>
    <dc:date>2022-11-28T11:27:53.287147</dc:date>
    <dc:format>image/svg+xml</dc:format>
    <dc:creator>
     <cc:Agent>
      <dc:title>Matplotlib v3.6.2, https://matplotlib.org/</dc:title>
     </cc:Agent>
    </dc:creator>
   </cc:Work>
  </rdf:RDF>
 </metadata>
 <defs>
  <style type="text/css">*{stroke-linejoin: round; stroke-linecap: butt}</style>
 </defs>
 <g id="figure_1">
  <g id="patch_1">
   <path d="M 0 345.6 
L 460.8 345.6 
L 460.8 0 
L 0 0 
z
" style="fill: #ffffff"/>
  </g>
  <g id="axes_1">
   <g id="patch_2">
    <path d="M 57.6 307.584 
L 414.72 307.584 
L 414.72 41.472 
L 57.6 41.472 
z
" style="fill: #ffffff"/>
   </g>
   <g id="matplotlib.axis_1">
    <g id="xtick_1">
     <g id="line2d_1">
      <defs>
       <path id="mc2e75b0f36" d="M 0 0 
L 0 3.5 
" style="stroke: #000000; stroke-width: 0.8"/>
      </defs>
      <g>
       <use xlink:href="#mc2e75b0f36" x="73.832727" y="307.584" style="stroke: #000000; stroke-width: 0.8"/>
      </g>
     </g>
     <g id="text_1">
      <text style="font: 10px 'IPAexGothic'; text-anchor: middle" x="73.832727" y="322.074625" transform="rotate(-0 73.832727 322.074625)">0</text>
     </g>
    </g>
    <g id="xtick_2">
     <g id="line2d_2">
      <g>
       <use xlink:href="#mc2e75b0f36" x="140.102281" y="307.584" style="stroke: #000000; stroke-width: 0.8"/>
      </g>
     </g>
     <g id="text_2">
      <text style="font: 10px 'IPAexGothic'; text-anchor: middle" x="140.102281" y="322.074625" transform="rotate(-0 140.102281 322.074625)">1000</text>
     </g>
    </g>
    <g id="xtick_3">
     <g id="line2d_3">
      <g>
       <use xlink:href="#mc2e75b0f36" x="206.371835" y="307.584" style="stroke: #000000; stroke-width: 0.8"/>
      </g>
     </g>
     <g id="text_3">
      <text style="font: 10px 'IPAexGothic'; text-anchor: middle" x="206.371835" y="322.074625" transform="rotate(-0 206.371835 322.074625)">2000</text>
     </g>
    </g>
    <g id="xtick_4">
     <g id="line2d_4">
      <g>
       <use xlink:href="#mc2e75b0f36" x="272.64139" y="307.584" style="stroke: #000000; stroke-width: 0.8"/>
      </g>
     </g>
     <g id="text_4">
      <text style="font: 10px 'IPAexGothic'; text-anchor: middle" x="272.64139" y="322.074625" transform="rotate(-0 272.64139 322.074625)">3000</text>
     </g>
    </g>
    <g id="xtick_5">
     <g id="line2d_5">
      <g>
       <use xlink:href="#mc2e75b0f36" x="338.910944" y="307.584" style="stroke: #000000; stroke-width: 0.8"/>
      </g>
     </g>
     <g id="text_5">
      <text style="font: 10px 'IPAexGothic'; text-anchor: middle" x="338.910944" y="322.074625" transform="rotate(-0 338.910944 322.074625)">4000</text>
     </g>
    </g>
    <g id="xtick_6">
     <g id="line2d_6">
      <g>
       <use xlink:href="#mc2e75b0f36" x="405.180498" y="307.584" style="stroke: #000000; stroke-width: 0.8"/>
      </g>
     </g>
     <g id="text_6">
      <text style="font: 10px 'IPAexGothic'; text-anchor: middle" x="405.180498" y="322.074625" transform="rotate(-0 405.180498 322.074625)">5000</text>
     </g>
    </g>
    <g id="text_7">
     <text style="font: 10px 'IPAexGothic'; text-anchor: middle" x="236.16" y="335.924625" transform="rotate(-0 236.16 335.924625)">周波数[Hz]</text>
    </g>
   </g>
   <g id="matplotlib.axis_2">
    <g id="ytick_1">
     <g id="line2d_7">
      <defs>
       <path id="mf7b4291012" d="M 0 0 
L -3.5 0 
" style="stroke: #000000; stroke-width: 0.8"/>
      </defs>
      <g>
       <use xlink:href="#mf7b4291012" x="57.6" y="295.48956" style="stroke: #000000; stroke-width: 0.8"/>
      </g>
     </g>
     <g id="text_8">
      <text style="font: 10px 'IPAexGothic'; text-anchor: end" x="50.6" y="299.234872" transform="rotate(-0 50.6 299.234872)">0.0</text>
     </g>
    </g>
    <g id="ytick_2">
     <g id="line2d_8">
      <g>
       <use xlink:href="#mf7b4291012" x="57.6" y="237.943999" style="stroke: #000000; stroke-width: 0.8"/>
      </g>
     </g>
     <g id="text_9">
      <text style="font: 10px 'IPAexGothic'; text-anchor: end" x="50.6" y="241.689311" transform="rotate(-0 50.6 241.689311)">0.5</text>
     </g>
    </g>
    <g id="ytick_3">
     <g id="line2d_9">
      <g>
       <use xlink:href="#mf7b4291012" x="57.6" y="180.398437" style="stroke: #000000; stroke-width: 0.8"/>
      </g>
     </g>
     <g id="text_10">
      <text style="font: 10px 'IPAexGothic'; text-anchor: end" x="50.6" y="184.14375" transform="rotate(-0 50.6 184.14375)">1.0</text>
     </g>
    </g>
    <g id="ytick_4">
     <g id="line2d_10">
      <g>
       <use xlink:href="#mf7b4291012" x="57.6" y="122.852876" style="stroke: #000000; stroke-width: 0.8"/>
      </g>
     </g>
     <g id="text_11">
      <text style="font: 10px 'IPAexGothic'; text-anchor: end" x="50.6" y="126.598188" transform="rotate(-0 50.6 126.598188)">1.5</text>
     </g>
    </g>
    <g id="ytick_5">
     <g id="line2d_11">
      <g>
       <use xlink:href="#mf7b4291012" x="57.6" y="65.307315" style="stroke: #000000; stroke-width: 0.8"/>
      </g>
     </g>
     <g id="text_12">
      <text style="font: 10px 'IPAexGothic'; text-anchor: end" x="50.6" y="69.052627" transform="rotate(-0 50.6 69.052627)">2.0</text>
     </g>
    </g>
    <g id="text_13">
     <text style="font: 10px 'IPAexGothic'; text-anchor: middle" x="29.460938" y="174.528" transform="rotate(-90 29.460938 174.528)">振幅</text>
    </g>
    <g id="text_14">
     <text style="font: 10px 'IPAexGothic'; text-anchor: start" x="57.6" y="38.472" transform="rotate(-0 57.6 38.472)">1e7</text>
    </g>
   </g>
   <g id="line2d_12">
    <path d="M 73.832727 290.41769 
L 73.965266 294.954113 
L 74.031536 295.349585 
L 74.097805 295.258563 
L 74.230345 295.322483 
L 74.561692 295.380883 
L 74.826771 295.365902 
L 75.555736 295.362221 
L 76.152162 295.368967 
L 76.218431 295.313712 
L 76.284701 295.395833 
L 76.483509 295.436491 
L 77.212475 295.450293 
L 78.073979 295.462892 
L 78.604135 295.446684 
L 78.670405 295.239379 
L 78.736674 295.356688 
L 79.001752 295.425125 
L 81.056109 295.404706 
L 81.122378 295.141106 
L 81.254917 295.455798 
L 82.050152 295.430541 
L 83.309274 295.402613 
L 83.441813 295.292802 
L 83.574352 294.679791 
L 83.706891 295.34839 
L 84.966012 295.46426 
L 85.562438 295.432987 
L 85.893786 295.391805 
L 85.960056 294.976189 
L 86.092595 295.448901 
L 87.616795 295.45486 
L 88.27949 295.41223 
L 88.412029 295.199801 
L 88.544568 295.439158 
L 89.273533 295.431323 
L 90.731464 295.368485 
L 90.797733 295.082981 
L 90.996542 295.482905 
L 91.725507 295.429429 
L 93.183437 295.437401 
L 93.249707 294.141666 
L 93.382246 295.381844 
L 93.713593 295.438123 
L 95.635411 295.378744 
L 95.70168 295.238791 
L 95.834219 295.422941 
L 97.093341 295.447 
L 99.611584 295.441101 
L 100.473088 295.446041 
L 100.539358 295.279229 
L 100.671897 295.443935 
L 102.858792 295.317504 
L 102.925062 295.071446 
L 102.991331 295.105772 
L 103.12387 295.460509 
L 103.455218 295.469306 
L 104.64807 295.434822 
L 105.310765 295.439411 
L 105.377035 295.361035 
L 105.509574 295.461714 
L 108.690513 295.441689 
L 110.148443 295.435342 
L 110.280982 295.368134 
L 110.479791 295.43933 
L 111.738912 295.44632 
L 112.600416 295.445375 
L 112.666686 294.545311 
L 112.799225 295.373291 
L 113.196842 295.409992 
L 115.05239 295.440062 
L 115.118659 295.326603 
L 115.184929 295.422286 
L 115.847625 295.434211 
L 124.794014 295.417161 
L 125.059093 295.442874 
L 127.179718 295.459008 
L 127.245988 295.302023 
L 127.312257 295.414161 
L 129.631692 295.357437 
L 129.697961 295.269222 
L 129.89677 295.401211 
L 131.089622 295.450419 
L 132.017396 295.389049 
L 132.083665 294.548902 
L 132.216204 295.447071 
L 132.481283 295.421621 
L 133.276517 295.404987 
L 134.734447 295.421187 
L 135.927299 295.423363 
L 141.692751 295.371377 
L 141.82529 295.333268 
L 142.024098 295.423205 
L 150.241523 295.403696 
L 151.301836 295.390631 
L 151.434375 295.36788 
L 151.500645 293.969075 
L 151.633184 295.46519 
L 152.030801 295.447009 
L 156.338322 295.260518 
L 156.470861 295.430481 
L 157.398635 295.389264 
L 158.724026 295.389875 
L 158.790296 295.271968 
L 158.922835 295.382676 
L 160.049417 295.396065 
L 161.10973 295.29767 
L 161.176 295.161982 
L 161.374808 295.416177 
L 162.170043 295.386019 
L 166.013677 295.30302 
L 166.079947 295.243559 
L 166.146216 295.412261 
L 166.212486 295.376314 
L 167.670416 295.357262 
L 168.333111 295.293983 
L 168.399381 295.221395 
L 168.465651 294.931241 
L 168.59819 295.449729 
L 168.664459 295.416771 
L 169.062076 295.363226 
L 170.851354 295.427693 
L 170.917624 294.880695 
L 170.983894 295.208585 
L 171.315241 295.302028 
L 171.911667 295.349817 
L 173.303328 295.340211 
L 173.369598 294.977454 
L 173.502137 295.315039 
L 174.164832 295.307906 
L 175.689032 295.257822 
L 175.755301 295.072218 
L 175.821571 295.382482 
L 175.887841 295.335114 
L 176.749345 295.253661 
L 178.074736 295.241452 
L 178.141005 295.223382 
L 178.207275 294.876962 
L 178.339814 295.225083 
L 179.135049 295.230049 
L 179.532666 295.257416 
L 180.46044 295.164069 
L 180.526709 295.113597 
L 180.659248 294.75609 
L 180.791788 295.163008 
L 181.454483 295.210716 
L 182.779874 295.041342 
L 182.978683 294.987647 
L 183.044952 293.73771 
L 183.177492 295.080016 
L 183.3763 295.193889 
L 183.641378 295.219106 
L 184.767961 294.955007 
L 185.364387 295.011223 
L 185.430656 295.051225 
L 185.496926 292.757033 
L 185.629465 294.916438 
L 185.894543 294.902218 
L 186.756047 294.555875 
L 187.087395 294.527664 
L 187.286204 294.419565 
L 187.485013 294.44876 
L 187.750091 294.308763 
L 187.81636 294.496866 
L 187.948899 291.687575 
L 188.081439 293.377114 
L 188.147708 293.571865 
L 188.412786 293.166107 
L 188.545325 293.237745 
L 188.611595 292.956643 
L 188.677864 293.283308 
L 188.744134 293.216655 
L 188.942943 292.421834 
L 189.075482 293.191028 
L 189.141751 293.124804 
L 189.34056 292.166691 
L 189.40683 294.3563 
L 189.473099 293.905828 
L 189.605638 293.116444 
L 189.804447 293.651355 
L 189.870716 294.945671 
L 190.069525 293.263399 
L 190.268334 266.415808 
L 190.334603 53.568 
L 190.467142 280.990596 
L 190.533412 287.147919 
L 190.599682 282.530344 
L 190.665951 284.566682 
L 190.79849 289.2195 
L 190.86476 288.569786 
L 191.063568 290.40998 
L 191.129838 290.486007 
L 191.328647 291.413201 
L 191.394916 291.568 
L 191.461186 292.308152 
L 191.527455 292.17369 
L 192.521499 294.656117 
L 192.654038 294.596684 
L 192.720307 294.237285 
L 192.786577 292.588116 
L 192.919116 294.724351 
L 193.449272 294.368263 
L 193.714351 294.481867 
L 193.84689 294.43965 
L 194.310777 294.774354 
L 194.575855 294.959959 
L 194.907203 295.103021 
L 195.106011 294.858333 
L 195.172281 293.951386 
L 195.23855 294.364819 
L 195.371089 295.043577 
L 197.557985 295.089555 
L 197.624254 293.871666 
L 197.690524 295.123002 
L 197.756793 295.115325 
L 199.67861 295.21648 
L 200.009958 295.275532 
L 200.076228 294.691361 
L 200.208767 295.174582 
L 201.26908 295.265936 
L 202.263123 295.310395 
L 202.395662 295.32102 
L 202.461932 295.13178 
L 202.528201 295.274777 
L 202.79328 295.355687 
L 203.721053 295.288061 
L 204.847636 295.387 
L 204.913905 294.717989 
L 205.046444 295.331395 
L 206.636914 295.394704 
L 207.23334 295.467219 
L 207.365879 294.785126 
L 207.498418 295.232874 
L 207.829766 295.31377 
L 209.619044 295.283591 
L 209.685313 295.054403 
L 209.751583 292.91842 
L 209.884122 295.374464 
L 210.08293 295.456255 
L 211.275782 295.328732 
L 211.60713 295.362147 
L 212.137287 295.2779 
L 212.203556 295.059257 
L 212.336095 295.406369 
L 213.263869 295.393091 
L 214.58926 295.293734 
L 214.721799 295.364252 
L 215.251956 295.398156 
L 215.914651 295.41053 
L 216.974964 295.413985 
L 217.041234 295.311163 
L 217.107503 295.386231 
L 218.101547 295.431126 
L 219.360668 295.432997 
L 219.426938 295.345535 
L 219.493207 295.038606 
L 219.625746 295.376129 
L 220.089633 295.437929 
L 224.264615 295.434032 
L 224.330885 295.288915 
L 224.463424 295.444991 
L 225.324928 295.431972 
L 226.252702 295.456018 
L 226.650319 295.430824 
L 226.782858 295.237131 
L 226.915397 295.405052 
L 229.036023 295.395851 
L 229.102292 295.200921 
L 229.168562 294.258703 
L 229.301101 295.378794 
L 229.49991 295.448451 
L 230.096336 295.458789 
L 231.222918 295.433518 
L 231.554266 295.363307 
L 231.620536 295.204124 
L 231.753075 295.484006 
L 233.93997 295.399538 
L 234.006239 295.227308 
L 234.072509 295.278271 
L 234.271318 295.456078 
L 235.861787 295.475091 
L 236.391943 295.467663 
L 236.458213 295.216821 
L 236.590752 295.466032 
L 237.385987 295.466694 
L 238.843917 295.38498 
L 238.910186 295.221834 
L 239.042726 295.445673 
L 240.036769 295.463457 
L 241.826047 295.478555 
L 248.453002 295.32908 
L 248.519272 295.176863 
L 248.585541 293.977693 
L 248.71808 295.327726 
L 250.904976 295.4623 
L 250.971245 295.439158 
L 251.037515 295.255968 
L 251.170054 295.475438 
L 253.356949 295.432892 
L 253.489488 295.281522 
L 253.688297 295.454259 
L 255.808923 295.45511 
L 255.875192 295.197112 
L 256.007731 295.433312 
L 258.260896 295.345877 
L 258.327166 295.13344 
L 258.459705 295.457573 
L 259.18867 295.471206 
L 260.845409 295.463398 
L 261.375565 295.47577 
L 263.231113 295.4632 
L 264.490234 295.476565 
L 265.616817 295.407393 
L 265.815625 295.449308 
L 267.869982 295.396236 
L 267.936251 295.343986 
L 268.002521 294.920722 
L 268.13506 295.412518 
L 268.797755 295.434256 
L 271.05092 295.442331 
L 275.225902 295.442794 
L 275.292172 295.225986 
L 275.424711 295.415034 
L 277.08145 295.419774 
L 277.677876 295.324341 
L 277.744145 295.248489 
L 277.876684 295.450458 
L 281.985397 295.425465 
L 282.515553 295.424705 
L 282.581823 295.227782 
L 282.714362 295.40292 
L 284.834987 295.378413 
L 285.166335 295.404064 
L 287.353231 295.393737 
L 287.4195 294.691722 
L 287.48577 295.073048 
L 287.684578 295.324739 
L 288.546083 295.360065 
L 289.208778 295.366638 
L 289.805204 295.419114 
L 289.871474 295.07909 
L 290.004013 295.375429 
L 294.642881 295.248354 
L 294.709151 294.903084 
L 294.775421 295.336567 
L 294.84169 295.310511 
L 296.829777 295.187131 
L 297.161125 295.067485 
L 297.227394 295.336541 
L 297.293664 295.309263 
L 298.884133 295.166581 
L 299.34802 295.269642 
L 299.480559 295.252575 
L 299.613098 295.06726 
L 299.811907 295.232333 
L 300.275794 295.13355 
L 301.071028 294.982261 
L 301.269837 295.048459 
L 301.932532 295.019115 
L 301.998802 293.641276 
L 302.065072 295.132036 
L 302.131341 295.098462 
L 302.396419 295.062344 
L 302.528958 295.013355 
L 302.661498 294.984086 
L 302.926576 295.093903 
L 303.059115 295.105819 
L 303.257924 295.11674 
L 303.456732 295.387766 
L 303.655541 295.152709 
L 303.72181 295.213127 
L 303.920619 295.089747 
L 304.053158 295.074101 
L 304.251967 294.858005 
L 304.318236 294.77746 
L 304.384506 293.949568 
L 304.450775 291.330944 
L 304.583315 294.177362 
L 304.980932 294.352664 
L 305.113471 294.332924 
L 305.511088 294.8348 
L 305.577358 294.836618 
L 305.709897 295.189826 
L 305.776167 294.982455 
L 305.842436 294.292673 
L 305.908706 294.692034 
L 305.974975 294.607057 
L 306.240053 292.466955 
L 306.306323 292.322124 
L 306.70394 274.540424 
L 306.77021 248.159593 
L 306.836479 110.85249 
L 307.035288 273.113926 
L 307.300366 286.467627 
L 307.631714 289.941361 
L 307.697984 289.691547 
L 307.896792 291.833559 
L 308.426949 293.636233 
L 308.559488 293.893848 
L 308.625757 294.176085 
L 308.692027 294.098968 
L 308.890836 294.380859 
L 308.957105 294.304887 
L 309.089644 294.471788 
L 309.155914 294.426867 
L 309.222183 294.231083 
L 309.288453 292.851814 
L 309.354722 294.715778 
L 309.420992 294.604574 
L 309.884879 294.563 
L 311.011461 295.061052 
L 311.21027 295.0088 
L 311.541618 294.835515 
L 311.607887 294.695265 
L 311.674157 294.000936 
L 311.872966 295.042146 
L 313.463435 295.214902 
L 314.059861 295.10048 
L 314.12613 293.25006 
L 314.258669 295.037093 
L 314.590017 295.145325 
L 315.186443 295.168753 
L 316.246756 295.156955 
L 316.445565 294.553579 
L 316.511834 293.423736 
L 316.578104 287.147089 
L 316.710643 294.517792 
L 316.975721 295.159864 
L 317.240799 295.33367 
L 317.770956 295.329768 
L 318.367382 295.303638 
L 318.831269 295.320128 
L 318.897538 295.211647 
L 318.963808 294.247688 
L 319.030077 294.394364 
L 319.228886 295.109293 
L 319.493964 295.152459 
L 320.09039 295.233097 
L 321.349512 295.339407 
L 321.415781 294.669111 
L 321.54832 295.291802 
L 322.277286 295.310787 
L 323.271329 295.346667 
L 323.735216 295.315699 
L 323.867755 294.961126 
L 324.000294 295.356614 
L 324.729259 295.35551 
L 325.657033 295.373231 
L 326.05465 295.484351 
L 326.187189 295.069444 
L 326.253459 293.108934 
L 326.319728 294.283481 
L 326.518537 295.182923 
L 326.783615 295.317164 
L 327.446311 295.376461 
L 332.151449 295.405456 
L 333.47684 295.366232 
L 333.54311 294.921435 
L 333.675649 295.363379 
L 334.404614 295.461784 
L 334.868501 295.437454 
L 335.862544 295.241753 
L 335.928814 295.052483 
L 335.995083 293.871233 
L 336.127622 295.390306 
L 336.392701 295.431348 
L 337.187935 295.393995 
L 338.380787 295.385094 
L 338.579596 295.436046 
L 340.103796 295.437352 
L 343.152195 295.42519 
L 343.351004 295.461824 
L 343.88116 295.450569 
L 345.272821 295.426271 
L 345.537899 295.356213 
L 345.604169 295.169766 
L 345.670438 294.128573 
L 345.736708 294.774933 
L 345.935516 295.308551 
L 346.531942 295.403283 
L 352.89382 295.453567 
L 352.960089 295.340488 
L 353.026359 295.401644 
L 353.490246 295.442626 
L 355.345793 295.401471 
L 355.412063 294.956411 
L 355.544602 295.431574 
L 356.207297 295.452339 
L 357.532688 295.460178 
L 360.514818 295.453074 
L 365.153687 295.461437 
L 365.485035 295.468502 
L 368.732243 295.459886 
L 369.858825 295.443638 
L 369.991364 295.336434 
L 370.190173 295.473808 
L 372.310799 295.450791 
L 372.377068 295.182018 
L 372.443338 295.377232 
L 372.708416 295.438352 
L 374.696503 295.416915 
L 374.762772 295.374865 
L 374.829042 294.707475 
L 374.961581 295.441575 
L 375.491737 295.482366 
L 377.082207 295.452903 
L 377.744902 295.469995 
L 379.60045 295.456612 
L 379.666719 295.363919 
L 379.799258 295.473016 
L 381.654806 295.455907 
L 382.052423 295.449908 
L 382.118693 295.357658 
L 382.184962 295.446648 
L 383.907971 295.450341 
L 384.371858 295.387855 
L 384.438127 295.293513 
L 384.504397 294.85182 
L 384.570666 295.111528 
L 384.769475 295.445458 
L 385.432171 295.464932 
L 389.342074 295.423452 
L 389.474613 295.440385 
L 391.197622 295.462065 
L 391.727778 295.444999 
L 391.794048 295.296119 
L 391.860317 295.381545 
L 392.125396 295.431873 
L 394.113482 295.409943 
L 394.179752 295.318123 
L 394.246021 294.301467 
L 394.37856 295.420399 
L 395.107525 295.442798 
L 396.565456 295.372095 
L 396.631725 295.235719 
L 396.697995 295.349547 
L 396.830534 295.475777 
L 397.42696 295.417146 
L 398.487273 295.429295 
L 398.487273 295.429295 
" clip-path="url(#p40921dbcfd)" style="fill: none; stroke: #1f77b4; stroke-width: 1.5; stroke-linecap: square"/>
   </g>
   <g id="patch_3">
    <path d="M 57.6 307.584 
L 57.6 41.472 
" style="fill: none; stroke: #000000; stroke-width: 0.8; stroke-linejoin: miter; stroke-linecap: square"/>
   </g>
   <g id="patch_4">
    <path d="M 414.72 307.584 
L 414.72 41.472 
" style="fill: none; stroke: #000000; stroke-width: 0.8; stroke-linejoin: miter; stroke-linecap: square"/>
   </g>
   <g id="patch_5">
    <path d="M 57.6 307.584 
L 414.72 307.584 
" style="fill: none; stroke: #000000; stroke-width: 0.8; stroke-linejoin: miter; stroke-linecap: square"/>
   </g>
   <g id="patch_6">
    <path d="M 57.6 41.472 
L 414.72 41.472 
" style="fill: none; stroke: #000000; stroke-width: 0.8; stroke-linejoin: miter; stroke-linecap: square"/>
   </g>
   <g id="text_15">
    <text style="font: 12px 'IPAexGothic'; text-anchor: middle" x="236.16" y="35.472" transform="rotate(-0 236.16 35.472)">"024_A6.wav"の振幅スペクトル</text>
   </g>
  </g>
 </g>
 <defs>
  <clipPath id="p40921dbcfd">
   <rect x="57.6" y="41.472" width="357.12" height="266.112"/>
  </clipPath>
 </defs>
</svg>
