<?xml version="1.0" encoding="utf-8" standalone="no"?>
<!DOCTYPE svg PUBLIC "-//W3C//DTD SVG 1.1//EN"
  "http://www.w3.org/Graphics/SVG/1.1/DTD/svg11.dtd">
<svg xmlns:xlink="http://www.w3.org/1999/xlink" width="460.8pt" height="345.6pt" viewBox="0 0 460.8 345.6" xmlns="http://www.w3.org/2000/svg" version="1.1">
 <metadata>
  <rdf:RDF xmlns:dc="http://purl.org/dc/elements/1.1/" xmlns:cc="http://creativecommons.org/ns#" xmlns:rdf="http://www.w3.org/1999/02/22-rdf-syntax-ns#">
   <cc:Work>
    <dc:type rdf:resource="http://purl.org/dc/dcmitype/StillImage"/>
    <dc:date>2022-11-28T11:27:27.889549</dc:date>
    <dc:format>image/svg+xml</dc:format>
    <dc:creator>
     <cc:Agent>
      <dc:title>Matplotlib v3.6.2, https://matplotlib.org/</dc:title>
     </cc:Agent>
    </dc:creator>
   </cc:Work>
  </rdf:RDF>
 </metadata>
 <defs>
  <style type="text/css">*{stroke-linejoin: round; stroke-linecap: butt}</style>
 </defs>
 <g id="figure_1">
  <g id="patch_1">
   <path d="M 0 345.6 
L 460.8 345.6 
L 460.8 0 
L 0 0 
z
" style="fill: #ffffff"/>
  </g>
  <g id="axes_1">
   <g id="patch_2">
    <path d="M 57.6 307.584 
L 414.72 307.584 
L 414.72 41.472 
L 57.6 41.472 
z
" style="fill: #ffffff"/>
   </g>
   <g id="matplotlib.axis_1">
    <g id="xtick_1">
     <g id="line2d_1">
      <defs>
       <path id="m024cc8307b" d="M 0 0 
L 0 3.5 
" style="stroke: #000000; stroke-width: 0.8"/>
      </defs>
      <g>
       <use xlink:href="#m024cc8307b" x="73.832727" y="307.584" style="stroke: #000000; stroke-width: 0.8"/>
      </g>
     </g>
     <g id="text_1">
      <text style="font: 10px 'IPAexGothic'; text-anchor: middle" x="73.832727" y="322.074625" transform="rotate(-0 73.832727 322.074625)">0</text>
     </g>
    </g>
    <g id="xtick_2">
     <g id="line2d_2">
      <g>
       <use xlink:href="#m024cc8307b" x="140.102281" y="307.584" style="stroke: #000000; stroke-width: 0.8"/>
      </g>
     </g>
     <g id="text_2">
      <text style="font: 10px 'IPAexGothic'; text-anchor: middle" x="140.102281" y="322.074625" transform="rotate(-0 140.102281 322.074625)">1000</text>
     </g>
    </g>
    <g id="xtick_3">
     <g id="line2d_3">
      <g>
       <use xlink:href="#m024cc8307b" x="206.371835" y="307.584" style="stroke: #000000; stroke-width: 0.8"/>
      </g>
     </g>
     <g id="text_3">
      <text style="font: 10px 'IPAexGothic'; text-anchor: middle" x="206.371835" y="322.074625" transform="rotate(-0 206.371835 322.074625)">2000</text>
     </g>
    </g>
    <g id="xtick_4">
     <g id="line2d_4">
      <g>
       <use xlink:href="#m024cc8307b" x="272.64139" y="307.584" style="stroke: #000000; stroke-width: 0.8"/>
      </g>
     </g>
     <g id="text_4">
      <text style="font: 10px 'IPAexGothic'; text-anchor: middle" x="272.64139" y="322.074625" transform="rotate(-0 272.64139 322.074625)">3000</text>
     </g>
    </g>
    <g id="xtick_5">
     <g id="line2d_5">
      <g>
       <use xlink:href="#m024cc8307b" x="338.910944" y="307.584" style="stroke: #000000; stroke-width: 0.8"/>
      </g>
     </g>
     <g id="text_5">
      <text style="font: 10px 'IPAexGothic'; text-anchor: middle" x="338.910944" y="322.074625" transform="rotate(-0 338.910944 322.074625)">4000</text>
     </g>
    </g>
    <g id="xtick_6">
     <g id="line2d_6">
      <g>
       <use xlink:href="#m024cc8307b" x="405.180498" y="307.584" style="stroke: #000000; stroke-width: 0.8"/>
      </g>
     </g>
     <g id="text_6">
      <text style="font: 10px 'IPAexGothic'; text-anchor: middle" x="405.180498" y="322.074625" transform="rotate(-0 405.180498 322.074625)">5000</text>
     </g>
    </g>
    <g id="text_7">
     <text style="font: 10px 'IPAexGothic'; text-anchor: middle" x="236.16" y="335.924625" transform="rotate(-0 236.16 335.924625)">周波数[Hz]</text>
    </g>
   </g>
   <g id="matplotlib.axis_2">
    <g id="ytick_1">
     <g id="line2d_7">
      <defs>
       <path id="mff3db890d4" d="M 0 0 
L -3.5 0 
" style="stroke: #000000; stroke-width: 0.8"/>
      </defs>
      <g>
       <use xlink:href="#mff3db890d4" x="57.6" y="295.488278" style="stroke: #000000; stroke-width: 0.8"/>
      </g>
     </g>
     <g id="text_8">
      <text style="font: 10px 'IPAexGothic'; text-anchor: end" x="50.6" y="299.23359" transform="rotate(-0 50.6 299.23359)">0.00</text>
     </g>
    </g>
    <g id="ytick_2">
     <g id="line2d_8">
      <g>
       <use xlink:href="#mff3db890d4" x="57.6" y="262.262452" style="stroke: #000000; stroke-width: 0.8"/>
      </g>
     </g>
     <g id="text_9">
      <text style="font: 10px 'IPAexGothic'; text-anchor: end" x="50.6" y="266.007764" transform="rotate(-0 50.6 266.007764)">0.25</text>
     </g>
    </g>
    <g id="ytick_3">
     <g id="line2d_9">
      <g>
       <use xlink:href="#mff3db890d4" x="57.6" y="229.036626" style="stroke: #000000; stroke-width: 0.8"/>
      </g>
     </g>
     <g id="text_10">
      <text style="font: 10px 'IPAexGothic'; text-anchor: end" x="50.6" y="232.781938" transform="rotate(-0 50.6 232.781938)">0.50</text>
     </g>
    </g>
    <g id="ytick_4">
     <g id="line2d_10">
      <g>
       <use xlink:href="#mff3db890d4" x="57.6" y="195.8108" style="stroke: #000000; stroke-width: 0.8"/>
      </g>
     </g>
     <g id="text_11">
      <text style="font: 10px 'IPAexGothic'; text-anchor: end" x="50.6" y="199.556113" transform="rotate(-0 50.6 199.556113)">0.75</text>
     </g>
    </g>
    <g id="ytick_5">
     <g id="line2d_11">
      <g>
       <use xlink:href="#mff3db890d4" x="57.6" y="162.584974" style="stroke: #000000; stroke-width: 0.8"/>
      </g>
     </g>
     <g id="text_12">
      <text style="font: 10px 'IPAexGothic'; text-anchor: end" x="50.6" y="166.330287" transform="rotate(-0 50.6 166.330287)">1.00</text>
     </g>
    </g>
    <g id="ytick_6">
     <g id="line2d_12">
      <g>
       <use xlink:href="#mff3db890d4" x="57.6" y="129.359149" style="stroke: #000000; stroke-width: 0.8"/>
      </g>
     </g>
     <g id="text_13">
      <text style="font: 10px 'IPAexGothic'; text-anchor: end" x="50.6" y="133.104461" transform="rotate(-0 50.6 133.104461)">1.25</text>
     </g>
    </g>
    <g id="ytick_7">
     <g id="line2d_13">
      <g>
       <use xlink:href="#mff3db890d4" x="57.6" y="96.133323" style="stroke: #000000; stroke-width: 0.8"/>
      </g>
     </g>
     <g id="text_14">
      <text style="font: 10px 'IPAexGothic'; text-anchor: end" x="50.6" y="99.878635" transform="rotate(-0 50.6 99.878635)">1.50</text>
     </g>
    </g>
    <g id="ytick_8">
     <g id="line2d_14">
      <g>
       <use xlink:href="#mff3db890d4" x="57.6" y="62.907497" style="stroke: #000000; stroke-width: 0.8"/>
      </g>
     </g>
     <g id="text_15">
      <text style="font: 10px 'IPAexGothic'; text-anchor: end" x="50.6" y="66.652809" transform="rotate(-0 50.6 66.652809)">1.75</text>
     </g>
    </g>
    <g id="text_16">
     <text style="font: 10px 'IPAexGothic'; text-anchor: middle" x="23.1625" y="174.528" transform="rotate(-90 23.1625 174.528)">振幅</text>
    </g>
    <g id="text_17">
     <text style="font: 10px 'IPAexGothic'; text-anchor: start" x="57.6" y="38.472" transform="rotate(-0 57.6 38.472)">1e7</text>
    </g>
   </g>
   <g id="line2d_15">
    <path d="M 73.832727 291.525207 
L 73.965266 295.015801 
L 74.031536 295.334981 
L 74.097805 295.185081 
L 74.164075 295.075335 
L 74.230345 295.119301 
L 74.561692 295.230641 
L 74.760501 295.231302 
L 75.158118 295.38505 
L 75.953353 295.213738 
L 76.483509 294.968486 
L 76.682318 294.881371 
L 77.079935 294.704425 
L 77.146205 294.968804 
L 77.212475 294.831222 
L 77.278744 294.846122 
L 77.345014 295.016253 
L 77.411283 294.91992 
L 77.477553 294.410463 
L 77.543822 294.653943 
L 77.676361 295.188778 
L 77.742631 295.16335 
L 78.206518 292.761198 
L 78.670405 288.614912 
L 78.736674 288.871468 
L 78.802944 286.464976 
L 78.869213 287.164467 
L 78.935483 287.411433 
L 79.001752 286.3401 
L 79.200561 276.464783 
L 79.266831 276.879752 
L 79.3331 279.970553 
L 79.39937 279.339462 
L 79.465639 278.36575 
L 79.598178 286.058227 
L 79.730718 284.05184 
L 79.796987 285.838514 
L 79.863257 284.86274 
L 79.995796 285.730827 
L 80.062065 288.730834 
L 80.128335 286.97868 
L 80.327144 289.986572 
L 80.459683 286.930686 
L 80.592222 288.051585 
L 80.79103 283.934415 
L 80.8573 283.682652 
L 81.056109 260.907655 
L 81.122378 53.568 
L 81.254917 260.350408 
L 81.586265 286.946422 
L 81.917613 290.051439 
L 81.983882 289.826789 
L 82.050152 289.941305 
L 82.182691 291.169848 
L 82.31523 290.47197 
L 82.3815 291.406353 
L 82.447769 291.086684 
L 82.514039 290.838344 
L 82.646578 290.147111 
L 82.712848 291.955251 
L 82.779117 291.753284 
L 82.845387 290.65307 
L 82.911656 291.131803 
L 82.977926 291.285778 
L 83.044195 290.996003 
L 83.110465 291.774025 
L 83.176734 291.477149 
L 83.309274 289.207504 
L 83.441813 291.760781 
L 83.640621 290.031697 
L 83.706891 292.273062 
L 83.77316 291.244911 
L 83.83943 290.788377 
L 84.170778 293.027979 
L 84.303317 290.956529 
L 84.435856 292.71209 
L 84.568395 292.100698 
L 84.833473 293.557414 
L 84.899743 293.489392 
L 85.032282 292.72973 
L 85.098551 292.781044 
L 85.231091 293.748413 
L 85.36363 292.864856 
L 85.429899 292.998106 
L 85.496169 293.297376 
L 85.562438 293.273024 
L 85.694977 291.778053 
L 85.761247 292.59756 
L 85.827517 292.518646 
L 85.893786 292.45088 
L 85.960056 292.123464 
L 86.026325 292.203584 
L 86.291403 293.519291 
L 86.357673 293.303151 
L 86.423943 292.885894 
L 86.490212 293.012671 
L 86.556482 293.537333 
L 86.622751 292.366725 
L 86.689021 292.752439 
L 86.75529 292.697195 
L 86.82156 292.377811 
L 86.887829 292.651936 
L 86.954099 292.59656 
L 87.152908 290.261096 
L 87.285447 291.734751 
L 87.351716 291.129913 
L 87.417986 289.602194 
L 87.484255 290.700506 
L 87.550525 290.603981 
L 87.616795 290.461496 
L 87.881873 284.670948 
L 87.948142 285.329754 
L 88.014412 285.324959 
L 88.146951 282.27677 
L 88.27949 261.477828 
L 88.34576 246.89827 
L 88.412029 130.661881 
L 88.544568 269.226338 
L 88.610838 269.850621 
L 88.809646 287.453555 
L 89.008455 291.473837 
L 89.074725 290.772973 
L 89.140994 290.692471 
L 89.207264 290.936071 
L 89.406072 293.594061 
L 89.538612 292.030613 
L 89.73742 293.506068 
L 89.80369 293.730918 
L 89.936229 293.351657 
L 90.068768 294.020244 
L 90.135038 292.721369 
L 90.333846 294.523191 
L 90.400116 294.347084 
L 90.466385 294.414887 
L 90.532655 294.577083 
L 90.598924 294.451549 
L 90.797733 294.124942 
L 90.930272 294.772814 
L 90.996542 294.681373 
L 91.19535 294.878216 
L 91.526698 295.040743 
L 91.725507 295.025117 
L 91.924316 294.673122 
L 92.189394 294.845652 
L 92.587011 295.201862 
L 92.71955 295.007516 
L 92.984628 294.54612 
L 93.050898 294.701319 
L 93.117168 294.315729 
L 93.183437 294.337928 
L 93.249707 294.282392 
L 93.382246 293.773966 
L 93.448515 293.800119 
L 93.581054 294.332791 
L 93.647324 294.164037 
L 93.846133 293.211777 
L 94.111211 294.051781 
L 94.310019 292.665929 
L 94.376289 292.710662 
L 94.508828 293.374484 
L 94.840176 290.800563 
L 94.972715 291.906013 
L 95.038985 291.579333 
L 95.237793 285.792935 
L 95.304063 286.179168 
L 95.370332 286.407739 
L 95.502871 280.855671 
L 95.635411 259.420045 
L 95.70168 156.535451 
L 95.900489 277.215798 
L 96.298106 289.192931 
L 96.430645 289.542974 
L 96.563184 292.419137 
L 96.629454 291.240886 
L 96.695723 291.83856 
L 96.828263 292.840744 
L 96.894532 292.252815 
L 97.093341 293.486166 
L 97.15961 293.452975 
L 97.22588 293.277198 
L 97.358419 293.979433 
L 97.424689 293.821258 
L 97.490958 293.927442 
L 97.557228 293.851781 
L 97.623497 293.999192 
L 97.689767 293.919592 
L 97.822306 294.099661 
L 98.021115 293.784271 
L 98.087384 293.801589 
L 98.153654 293.546604 
L 98.219923 293.658786 
L 98.418732 294.165587 
L 98.485001 294.410215 
L 98.551271 294.189344 
L 98.75008 294.824775 
L 98.816349 294.625589 
L 99.147697 295.386003 
L 99.280236 295.41195 
L 99.346506 295.199102 
L 99.479045 295.398658 
L 99.611584 295.382526 
L 99.744123 295.404026 
L 99.810392 295.421552 
L 99.942932 295.109626 
L 100.075471 295.197065 
L 100.274279 295.050633 
L 100.406818 295.150239 
L 101.202053 294.718294 
L 101.268323 294.502106 
L 101.334592 294.673512 
L 101.400862 294.572831 
L 101.73221 293.678675 
L 101.798479 294.072376 
L 101.864749 293.485172 
L 101.931018 294.156398 
L 101.997288 293.173132 
L 102.063557 293.358301 
L 102.129827 293.324157 
L 102.394905 291.638274 
L 102.461175 291.796644 
L 102.726253 287.388967 
L 102.858792 278.264834 
L 102.925062 269.883343 
L 102.991331 240.053148 
L 103.057601 257.726686 
L 103.256409 287.486782 
L 103.322679 289.505912 
L 103.388948 289.489412 
L 103.455218 288.443495 
L 103.720296 292.310346 
L 103.919105 293.025409 
L 103.985374 292.908641 
L 104.117913 293.6874 
L 104.184183 293.108857 
L 104.250453 293.332911 
L 104.382992 293.818377 
L 104.449261 293.797977 
L 104.5818 293.480586 
L 104.64807 293.532832 
L 104.979418 294.861992 
L 105.045687 294.788462 
L 105.111957 294.544573 
L 105.178226 294.699858 
L 105.708383 294.939425 
L 105.907191 294.965587 
L 106.039731 294.868109 
L 106.238539 295.096778 
L 106.371078 294.995606 
L 106.636157 295.35644 
L 106.834965 295.2843 
L 107.100043 295.427873 
L 107.497661 295.41092 
L 107.6302 295.321741 
L 107.762739 295.058049 
L 107.961548 295.318095 
L 108.094087 295.161391 
L 108.160356 295.217872 
L 108.226626 295.088267 
L 108.292895 295.122711 
L 108.889321 295.009868 
L 109.02186 294.838877 
L 109.08813 294.599163 
L 109.1544 294.854073 
L 109.220669 294.579756 
L 109.286939 294.824178 
L 109.353208 294.549174 
L 109.419478 294.759128 
L 109.485747 294.419514 
L 109.552017 294.696291 
L 109.684556 293.978098 
L 109.750826 294.049224 
L 109.817095 294.386623 
L 109.949634 292.938317 
L 110.015904 293.420781 
L 110.214712 288.410603 
L 110.280982 283.074334 
L 110.347252 255.292176 
L 110.54606 289.342897 
L 110.744869 292.640378 
L 110.811138 292.831588 
L 110.943678 293.944671 
L 111.076217 294.109224 
L 111.275025 294.634006 
L 111.341295 294.228236 
L 111.407564 294.262448 
L 111.540104 294.558813 
L 111.672643 294.331263 
L 111.738912 294.884206 
L 111.805182 294.738266 
L 111.871451 294.607218 
L 111.937721 294.662419 
L 112.13653 294.991818 
L 112.269069 294.893171 
L 112.401608 294.985783 
L 112.534147 295.01794 
L 112.732956 295.102277 
L 112.931764 295.182904 
L 113.064303 295.167721 
L 113.196842 295.063024 
L 113.395651 295.186875 
L 113.59446 295.088061 
L 113.726999 295.207722 
L 113.859538 295.219343 
L 114.058347 295.277534 
L 114.522233 295.285292 
L 114.654773 295.335148 
L 114.853581 295.2853 
L 114.98612 295.416652 
L 115.184929 295.397179 
L 115.648816 295.468488 
L 116.112703 295.421274 
L 116.444051 295.258992 
L 116.57659 295.262551 
L 116.907937 294.905697 
L 116.974207 294.879464 
L 117.106746 294.67355 
L 117.173016 294.703976 
L 117.239285 294.871516 
L 117.371824 294.608247 
L 117.570633 292.444626 
L 117.636903 274.947406 
L 117.835711 293.268303 
L 118.03452 294.777089 
L 118.167059 294.695734 
L 118.233329 294.319421 
L 118.365868 295.078713 
L 118.432137 294.966067 
L 118.498407 295.243302 
L 118.564676 295.19922 
L 118.962294 295.207799 
L 119.094833 295.187519 
L 119.161102 295.392715 
L 119.227372 295.340296 
L 119.55872 295.369039 
L 119.691259 295.425592 
L 119.890067 295.395937 
L 120.884111 295.468689 
L 121.944424 295.409972 
L 122.143232 295.41813 
L 122.40831 295.391018 
L 122.805928 295.3593 
L 123.004736 295.362942 
L 123.269815 295.431206 
L 123.733701 295.362005 
L 124.528936 295.36547 
L 124.860284 295.337771 
L 124.926553 294.937491 
L 125.059093 295.472382 
L 125.324171 295.439608 
L 125.589249 295.455457 
L 126.185675 295.43462 
L 126.782101 295.413434 
L 127.312257 295.414506 
L 127.444797 295.395603 
L 128.173762 295.386991 
L 129.035266 295.385812 
L 129.366614 295.362674 
L 130.426926 295.316704 
L 130.824544 295.295198 
L 131.288431 295.250217 
L 131.619778 295.271577 
L 132.083665 295.051815 
L 132.149935 295.131465 
L 132.216204 293.440858 
L 132.348744 295.15245 
L 132.481283 295.307103 
L 132.547552 295.233812 
L 132.81263 295.343478 
L 133.011439 295.386623 
L 133.210248 295.366803 
L 133.872943 295.40353 
L 135.397143 295.370023 
L 136.258647 295.3539 
L 136.324917 295.250222 
L 136.391186 295.338307 
L 136.722534 295.421332 
L 138.047925 295.420251 
L 139.439586 295.410456 
L 139.505855 294.346375 
L 139.572125 295.430514 
L 139.638394 295.234728 
L 139.770934 295.243614 
L 139.969742 295.341273 
L 145.470115 295.395643 
L 146.464159 295.431554 
L 146.729237 295.400757 
L 146.795506 295.245569 
L 146.861776 295.335549 
L 147.325663 295.36317 
L 147.855819 295.412505 
L 148.120897 295.473693 
L 148.584784 295.370774 
L 149.24748 295.360056 
L 153.488731 295.438392 
L 154.018888 295.453412 
L 154.151427 295.110258 
L 154.350235 295.401132 
L 154.549044 295.202089 
L 154.681583 295.256382 
L 154.880392 295.297916 
L 155.21174 295.42984 
L 155.410548 295.469808 
L 158.392678 295.392666 
L 159.519261 295.377764 
L 160.049417 295.393041 
L 160.447034 295.362775 
L 161.10973 295.363045 
L 161.242269 295.365827 
L 161.308539 295.384035 
L 161.374808 295.03376 
L 161.441078 295.08278 
L 161.573617 295.304947 
L 161.639886 295.379671 
L 161.772426 295.031468 
L 161.904965 295.162687 
L 161.971234 295.243042 
L 162.037504 295.177818 
L 162.170043 295.300833 
L 162.368852 295.410736 
L 162.766469 295.414177 
L 163.097817 295.372164 
L 163.429164 295.391819 
L 163.959321 295.380523 
L 165.284712 295.381117 
L 166.543833 295.330341 
L 166.676373 295.318465 
L 166.875181 295.369989 
L 167.140259 295.302282 
L 167.670416 295.283738 
L 168.399381 295.213516 
L 168.53192 295.076976 
L 168.59819 295.308899 
L 168.664459 294.076417 
L 168.730729 294.153002 
L 168.796998 295.334338 
L 168.863268 294.82463 
L 168.929537 294.917257 
L 168.995807 295.280157 
L 169.194616 293.696467 
L 169.260885 294.537122 
L 169.327155 294.48897 
L 169.525963 294.97768 
L 169.98985 295.456675 
L 170.254928 295.471018 
L 170.851354 295.441755 
L 171.845398 295.376187 
L 172.176746 295.385226 
L 172.640632 295.358078 
L 175.423954 295.144217 
L 175.556493 295.048845 
L 175.622762 295.119576 
L 175.755301 294.983016 
L 175.821571 295.208272 
L 175.887841 294.981755 
L 175.95411 293.340918 
L 176.02038 293.499735 
L 176.152919 295.026483 
L 176.219188 295.041024 
L 176.285458 294.517705 
L 176.351727 294.637223 
L 176.417997 294.983621 
L 176.683075 292.848864 
L 176.815614 293.820874 
L 177.014423 294.920158 
L 177.080693 294.85072 
L 177.213232 295.183756 
L 177.345771 295.218775 
L 177.942197 295.401822 
L 178.538623 295.435743 
L 179.201318 295.45843 
L 180.791788 295.450649 
L 182.978683 295.458705 
L 183.177492 295.443112 
L 183.310031 294.88075 
L 183.3763 295.381907 
L 183.44257 295.271883 
L 183.575109 295.453377 
L 183.707648 295.298015 
L 183.773917 295.361846 
L 183.906457 295.072274 
L 184.038996 294.848694 
L 184.105265 294.838397 
L 184.304074 295.297331 
L 184.370343 295.241233 
L 184.701691 295.372327 
L 185.828274 295.414682 
L 190.202064 295.227746 
L 190.334603 295.110125 
L 190.400873 295.237349 
L 190.467142 294.788247 
L 190.599682 291.674591 
L 190.79849 295.189604 
L 190.931029 294.669284 
L 190.997299 294.919621 
L 191.063568 295.141579 
L 191.196108 294.281557 
L 191.262377 294.685749 
L 191.328647 294.370392 
L 191.527455 292.036575 
L 191.991342 295.066753 
L 192.587768 295.245041 
L 192.919116 295.295744 
L 193.250464 295.349143 
L 193.449272 295.346154 
L 193.78062 295.342806 
L 194.509585 295.396224 
L 197.491715 295.386436 
L 197.756793 295.109755 
L 197.889333 294.117939 
L 198.021872 295.311196 
L 198.154411 295.221793 
L 198.22068 295.376699 
L 198.28695 295.315018 
L 198.485759 295.068119 
L 198.618298 294.892632 
L 198.817106 294.167303 
L 198.949645 294.367999 
L 199.015915 294.134057 
L 199.082184 294.163262 
L 199.214724 294.915055 
L 199.280993 294.899391 
L 199.347263 294.892781 
L 199.546071 295.141395 
L 199.81115 295.285323 
L 200.076228 295.240994 
L 200.275036 295.290859 
L 200.540115 295.257786 
L 200.738923 295.374834 
L 202.66074 295.425122 
L 203.190897 295.444304 
L 203.919862 295.461391 
L 205.046444 295.396517 
L 205.112714 295.389963 
L 205.178983 295.115718 
L 205.245253 295.42403 
L 205.311523 295.385752 
L 205.510331 295.411111 
L 205.974218 295.115634 
L 206.305566 295.176173 
L 206.504375 294.988469 
L 206.968261 295.312763 
L 210.281739 295.462783 
L 213.330139 295.220701 
L 213.462678 295.156728 
L 214.257912 295.390429 
L 214.522991 295.358277 
L 214.65553 295.377844 
L 214.854338 295.395403 
L 215.053147 295.415694 
L 215.848382 295.461745 
L 219.09559 295.357665 
L 219.294398 295.380343 
L 219.692016 295.363554 
L 219.758285 294.713485 
L 219.824555 295.07031 
L 219.890824 295.342667 
L 219.957094 295.265409 
L 220.089633 295.419821 
L 220.155903 295.363713 
L 220.48725 295.201162 
L 220.55352 295.278871 
L 220.61979 295.220234 
L 220.752329 295.258623 
L 221.083676 295.302103 
L 221.216216 295.250312 
L 221.282485 295.290809 
L 221.481294 294.655406 
L 221.746372 295.221401 
L 221.812642 295.15991 
L 221.945181 295.353979 
L 222.143989 295.299652 
L 222.210259 295.417983 
L 222.276528 295.354714 
L 222.409068 295.359814 
L 222.674146 295.443693 
L 224.065806 295.44124 
L 224.595963 295.42358 
L 226.849128 295.205944 
L 226.915397 295.096376 
L 226.981667 295.303938 
L 227.047936 293.638465 
L 227.114206 294.151798 
L 227.180475 295.276052 
L 227.246745 295.108079 
L 227.379284 295.402751 
L 227.511823 295.167561 
L 227.644362 295.350049 
L 227.776901 295.249009 
L 227.843171 295.353889 
L 227.97571 295.071553 
L 228.108249 295.320163 
L 228.240788 295.121406 
L 228.307058 295.277875 
L 228.373327 295.179847 
L 228.439597 294.92296 
L 228.572136 295.218542 
L 228.704675 294.886947 
L 228.770945 294.977647 
L 228.837214 295.060409 
L 229.102292 292.108317 
L 229.301101 294.954239 
L 229.367371 295.022983 
L 229.43364 294.89603 
L 229.566179 295.18826 
L 229.698718 295.051784 
L 229.897527 295.281208 
L 230.692762 295.396291 
L 230.95784 295.419225 
L 231.222918 295.43288 
L 232.349501 295.448543 
L 234.072509 295.451487 
L 234.205048 295.159112 
L 234.271318 295.322374 
L 234.337587 293.534905 
L 234.403857 293.603029 
L 234.470126 295.09684 
L 234.536396 294.971653 
L 234.602665 294.964576 
L 234.735205 295.360926 
L 234.801474 295.028681 
L 234.867744 295.134091 
L 234.934013 295.432209 
L 235.066552 295.144634 
L 235.199091 295.335296 
L 235.265361 295.027699 
L 235.331631 295.065015 
L 235.3979 295.346512 
L 235.46417 295.284477 
L 235.596709 295.129163 
L 235.662978 295.273058 
L 235.795517 294.982071 
L 235.928057 295.109041 
L 236.060596 294.803514 
L 236.126865 295.095199 
L 236.193135 295.057432 
L 236.325674 294.272766 
L 236.391943 294.945048 
L 236.458213 294.579144 
L 236.657022 290.366578 
L 236.723291 290.506854 
L 236.85583 294.702223 
L 237.054639 294.73133 
L 237.120909 295.081297 
L 237.187178 294.946072 
L 237.253448 294.91435 
L 237.385987 295.136374 
L 237.518526 295.107944 
L 237.651065 295.260618 
L 238.048682 295.250818 
L 238.313761 295.38994 
L 238.512569 295.346678 
L 238.645108 295.347083 
L 238.976456 295.387395 
L 239.307804 295.426399 
L 239.506612 295.427908 
L 240.765734 295.473907 
L 241.560969 295.333137 
L 241.693508 293.622449 
L 241.759777 295.371609 
L 241.826047 295.24241 
L 241.892316 295.130492 
L 242.024856 295.443851 
L 242.091125 295.291987 
L 242.223664 295.309506 
L 242.289934 295.462161 
L 242.356203 295.270998 
L 242.422473 295.365824 
L 242.555012 295.391327 
L 242.621282 295.266641 
L 242.687551 295.302133 
L 242.82009 295.320588 
L 242.88636 295.196706 
L 242.952629 295.232539 
L 243.018899 295.340702 
L 243.085168 295.26778 
L 243.217708 295.217692 
L 243.283977 295.252519 
L 243.681594 294.834713 
L 243.747864 295.118441 
L 243.946673 294.520359 
L 244.012942 294.890993 
L 244.145481 293.291852 
L 244.211751 291.996942 
L 244.27802 292.557325 
L 244.34429 292.394284 
L 244.543099 294.384536 
L 244.741907 294.929856 
L 244.808177 294.717056 
L 245.006985 295.112651 
L 245.073255 295.059283 
L 245.205794 295.14683 
L 245.338333 295.146925 
L 245.537142 295.190684 
L 245.603411 295.184338 
L 245.669681 295.316681 
L 245.735951 295.262535 
L 245.86849 295.238424 
L 246.133568 295.369663 
L 246.332377 295.263372 
L 246.464916 295.325604 
L 246.597455 295.324974 
L 247.26015 295.359616 
L 247.724037 295.382948 
L 248.85062 295.346921 
L 248.983159 294.42497 
L 249.049428 295.376322 
L 249.115698 295.301328 
L 249.380776 295.396683 
L 249.778393 295.427227 
L 249.910932 295.43086 
L 250.043472 295.403192 
L 250.374819 295.369982 
L 250.507358 295.360525 
L 251.302593 295.06096 
L 251.368863 295.163426 
L 251.435132 295.098375 
L 251.567671 294.565257 
L 251.70021 295.179473 
L 251.83275 293.108659 
L 251.899019 293.62528 
L 251.965289 293.031375 
L 252.296636 294.827934 
L 253.025602 295.282445 
L 253.29068 295.27295 
L 253.423219 295.271223 
L 253.555758 295.325356 
L 253.688297 295.299122 
L 253.754567 295.218863 
L 253.953375 295.320902 
L 255.079958 295.383846 
L 255.411305 295.371706 
L 255.742653 295.424013 
L 256.20654 295.231279 
L 256.27281 294.856245 
L 256.339079 295.429193 
L 256.405349 295.328624 
L 256.802966 295.440966 
L 257.001775 295.447348 
L 257.797009 295.470173 
L 257.929549 295.447681 
L 258.128357 295.402952 
L 258.525975 295.248336 
L 258.724783 295.312641 
L 258.923592 295.130228 
L 259.056131 295.337563 
L 259.25494 295.02823 
L 259.387479 295.365905 
L 259.586287 294.275479 
L 259.652557 294.292598 
L 259.718826 294.325649 
L 259.983905 295.177969 
L 260.116444 295.164492 
L 260.248983 295.236386 
L 260.381522 295.333288 
L 260.6466 295.287478 
L 260.911678 295.333092 
L 261.905722 295.392062 
L 262.10453 295.365246 
L 262.568417 295.398209 
L 263.496191 295.398254 
L 263.562461 295.066317 
L 263.695 295.342868 
L 264.026347 295.415531 
L 265.484278 295.455596 
L 266.014434 295.448999 
L 266.213243 295.256662 
L 266.412051 295.400634 
L 266.61086 295.294061 
L 266.809669 295.391983 
L 267.604903 295.346814 
L 267.803712 295.411139 
L 267.936251 295.369979 
L 268.13506 295.424609 
L 273.436624 295.419196 
L 273.635433 295.406572 
L 273.767972 295.481182 
L 273.966781 295.328278 
L 274.298128 295.366408 
L 274.960824 295.34704 
L 275.358441 295.453452 
L 276.153676 295.427575 
L 276.418754 295.429417 
L 276.948911 295.439845 
L 278.009223 295.463487 
L 278.274302 295.373883 
L 278.406841 295.434485 
L 278.671919 295.436556 
L 279.202075 295.468502 
L 279.533423 295.311461 
L 279.798501 295.400572 
L 280.858814 295.465579 
L 281.45524 295.406842 
L 281.587779 295.382222 
L 281.852858 295.346761 
L 282.117936 295.343045 
L 282.581823 295.333012 
L 282.648092 295.224819 
L 282.714362 295.316135 
L 282.780631 295.248403 
L 282.846901 295.322676 
L 282.97944 295.392369 
L 283.310788 295.478053 
L 290.202821 295.455783 
L 290.4679 295.456083 
L 290.799247 295.420683 
L 291.329404 295.421641 
L 293.980186 295.426649 
L 294.510342 295.435304 
L 296.829777 295.402257 
L 297.89009 295.456494 
L 298.287707 295.345993 
L 298.552785 295.272188 
L 298.950402 295.38504 
L 299.944446 295.395875 
L 300.010715 295.28617 
L 300.076985 295.343317 
L 300.342063 295.443284 
L 301.534915 295.420281 
L 306.240053 295.385483 
L 306.571401 295.381944 
L 307.234097 295.423351 
L 307.499175 295.40452 
L 307.764253 295.466243 
L 308.559488 295.443685 
L 309.487262 295.439824 
L 310.613844 295.425357 
L 311.011461 295.426007 
L 311.872966 295.43021 
L 312.800739 295.418698 
L 314.12613 295.124879 
L 314.1924 295.043657 
L 314.523748 295.410351 
L 314.921365 295.42489 
L 315.252713 295.471795 
L 315.65033 295.450357 
L 316.578104 295.472241 
L 318.764999 295.446378 
L 319.361425 295.456444 
L 319.825312 295.447617 
L 321.415781 295.309159 
L 321.747129 295.29338 
L 321.945938 295.365346 
L 322.144746 294.455001 
L 322.211016 294.527044 
L 322.409825 295.219972 
L 322.608633 295.389297 
L 323.470138 295.422432 
L 323.801485 295.447212 
L 324.729259 295.477622 
L 326.982424 295.444257 
L 327.51258 295.435677 
L 328.042737 295.431374 
L 329.235589 295.408826 
L 329.368128 295.2426 
L 329.566936 295.291587 
L 329.699476 295.270815 
L 330.030823 294.781713 
L 330.097093 294.603477 
L 330.163362 294.684288 
L 330.49471 295.26495 
L 330.759788 295.384249 
L 331.024867 295.365726 
L 331.488754 295.438867 
L 331.753832 295.420509 
L 332.681606 295.46914 
L 333.808188 295.466642 
L 335.398657 295.444423 
L 336.326431 295.420621 
L 336.45897 295.391032 
L 336.591509 295.255642 
L 336.724048 295.321952 
L 337.121666 295.382332 
L 337.254205 295.332054 
L 337.453013 295.300203 
L 337.9169 295.297992 
L 338.181979 294.996493 
L 338.380787 295.261706 
L 338.910944 295.38328 
L 343.748621 295.438921 
L 343.94743 295.358966 
L 344.477586 295.425438 
L 344.808934 295.38371 
L 345.140282 295.452635 
L 345.670438 295.43331 
L 346.001786 295.41344 
L 346.333134 295.339846 
L 346.797021 295.433748 
L 347.393447 295.464882 
L 355.942219 295.467892 
L 357.26761 295.464791 
L 362.304096 295.414863 
L 362.635444 295.463492 
L 364.822339 295.47999 
L 370.190173 295.435805 
L 370.72033 295.289997 
L 371.184216 295.439482 
L 372.17826 295.468124 
L 375.889355 295.476554 
L 378.738946 295.27707 
L 378.937754 295.257541 
L 379.865528 295.382707 
L 381.588536 295.468837 
L 383.775432 295.467946 
L 386.823831 295.284256 
L 387.287718 294.904389 
L 387.353988 294.956903 
L 387.486527 295.244323 
L 387.751605 295.33081 
L 388.016683 295.447819 
L 388.745648 295.44345 
L 389.275805 295.460911 
L 389.805961 295.472459 
L 391.065083 295.477478 
L 394.179752 295.384537 
L 394.709908 295.419046 
L 394.908717 295.422176 
L 395.173795 295.256627 
L 395.372604 295.130381 
L 395.505143 294.874892 
L 395.571412 294.955774 
L 395.836491 295.291044 
L 396.167838 295.394585 
L 398.222195 295.477152 
L 398.487273 295.472957 
L 398.487273 295.472957 
" clip-path="url(#p588f420368)" style="fill: none; stroke: #1f77b4; stroke-width: 1.5; stroke-linecap: square"/>
   </g>
   <g id="patch_3">
    <path d="M 57.6 307.584 
L 57.6 41.472 
" style="fill: none; stroke: #000000; stroke-width: 0.8; stroke-linejoin: miter; stroke-linecap: square"/>
   </g>
   <g id="patch_4">
    <path d="M 414.72 307.584 
L 414.72 41.472 
" style="fill: none; stroke: #000000; stroke-width: 0.8; stroke-linejoin: miter; stroke-linecap: square"/>
   </g>
   <g id="patch_5">
    <path d="M 57.6 307.584 
L 414.72 307.584 
" style="fill: none; stroke: #000000; stroke-width: 0.8; stroke-linejoin: miter; stroke-linecap: square"/>
   </g>
   <g id="patch_6">
    <path d="M 57.6 41.472 
L 414.72 41.472 
" style="fill: none; stroke: #000000; stroke-width: 0.8; stroke-linejoin: miter; stroke-linecap: square"/>
   </g>
   <g id="text_18">
    <text style="font: 12px 'IPAexGothic'; text-anchor: middle" x="236.16" y="35.472" transform="rotate(-0 236.16 35.472)">"034_A2.wav"の振幅スペクトル</text>
   </g>
  </g>
 </g>
 <defs>
  <clipPath id="p588f420368">
   <rect x="57.6" y="41.472" width="357.12" height="266.112"/>
  </clipPath>
 </defs>
</svg>
