<?xml version="1.0" encoding="utf-8" standalone="no"?>
<!DOCTYPE svg PUBLIC "-//W3C//DTD SVG 1.1//EN"
  "http://www.w3.org/Graphics/SVG/1.1/DTD/svg11.dtd">
<svg xmlns:xlink="http://www.w3.org/1999/xlink" width="460.8pt" height="345.6pt" viewBox="0 0 460.8 345.6" xmlns="http://www.w3.org/2000/svg" version="1.1">
 <metadata>
  <rdf:RDF xmlns:dc="http://purl.org/dc/elements/1.1/" xmlns:cc="http://creativecommons.org/ns#" xmlns:rdf="http://www.w3.org/1999/02/22-rdf-syntax-ns#">
   <cc:Work>
    <dc:type rdf:resource="http://purl.org/dc/dcmitype/StillImage"/>
    <dc:date>2022-11-28T11:26:20.970464</dc:date>
    <dc:format>image/svg+xml</dc:format>
    <dc:creator>
     <cc:Agent>
      <dc:title>Matplotlib v3.6.2, https://matplotlib.org/</dc:title>
     </cc:Agent>
    </dc:creator>
   </cc:Work>
  </rdf:RDF>
 </metadata>
 <defs>
  <style type="text/css">*{stroke-linejoin: round; stroke-linecap: butt}</style>
 </defs>
 <g id="figure_1">
  <g id="patch_1">
   <path d="M 0 345.6 
L 460.8 345.6 
L 460.8 0 
L 0 0 
z
" style="fill: #ffffff"/>
  </g>
  <g id="axes_1">
   <g id="patch_2">
    <path d="M 57.6 307.584 
L 414.72 307.584 
L 414.72 41.472 
L 57.6 41.472 
z
" style="fill: #ffffff"/>
   </g>
   <g id="matplotlib.axis_1">
    <g id="xtick_1">
     <g id="line2d_1">
      <defs>
       <path id="m8c0056b714" d="M 0 0 
L 0 3.5 
" style="stroke: #000000; stroke-width: 0.8"/>
      </defs>
      <g>
       <use xlink:href="#m8c0056b714" x="73.832727" y="307.584" style="stroke: #000000; stroke-width: 0.8"/>
      </g>
     </g>
     <g id="text_1">
      <text style="font: 10px 'IPAexGothic'; text-anchor: middle" x="73.832727" y="322.074625" transform="rotate(-0 73.832727 322.074625)">0</text>
     </g>
    </g>
    <g id="xtick_2">
     <g id="line2d_2">
      <g>
       <use xlink:href="#m8c0056b714" x="140.102281" y="307.584" style="stroke: #000000; stroke-width: 0.8"/>
      </g>
     </g>
     <g id="text_2">
      <text style="font: 10px 'IPAexGothic'; text-anchor: middle" x="140.102281" y="322.074625" transform="rotate(-0 140.102281 322.074625)">1000</text>
     </g>
    </g>
    <g id="xtick_3">
     <g id="line2d_3">
      <g>
       <use xlink:href="#m8c0056b714" x="206.371835" y="307.584" style="stroke: #000000; stroke-width: 0.8"/>
      </g>
     </g>
     <g id="text_3">
      <text style="font: 10px 'IPAexGothic'; text-anchor: middle" x="206.371835" y="322.074625" transform="rotate(-0 206.371835 322.074625)">2000</text>
     </g>
    </g>
    <g id="xtick_4">
     <g id="line2d_4">
      <g>
       <use xlink:href="#m8c0056b714" x="272.64139" y="307.584" style="stroke: #000000; stroke-width: 0.8"/>
      </g>
     </g>
     <g id="text_4">
      <text style="font: 10px 'IPAexGothic'; text-anchor: middle" x="272.64139" y="322.074625" transform="rotate(-0 272.64139 322.074625)">3000</text>
     </g>
    </g>
    <g id="xtick_5">
     <g id="line2d_5">
      <g>
       <use xlink:href="#m8c0056b714" x="338.910944" y="307.584" style="stroke: #000000; stroke-width: 0.8"/>
      </g>
     </g>
     <g id="text_5">
      <text style="font: 10px 'IPAexGothic'; text-anchor: middle" x="338.910944" y="322.074625" transform="rotate(-0 338.910944 322.074625)">4000</text>
     </g>
    </g>
    <g id="xtick_6">
     <g id="line2d_6">
      <g>
       <use xlink:href="#m8c0056b714" x="405.180498" y="307.584" style="stroke: #000000; stroke-width: 0.8"/>
      </g>
     </g>
     <g id="text_6">
      <text style="font: 10px 'IPAexGothic'; text-anchor: middle" x="405.180498" y="322.074625" transform="rotate(-0 405.180498 322.074625)">5000</text>
     </g>
    </g>
    <g id="text_7">
     <text style="font: 10px 'IPAexGothic'; text-anchor: middle" x="236.16" y="335.924625" transform="rotate(-0 236.16 335.924625)">周波数[Hz]</text>
    </g>
   </g>
   <g id="matplotlib.axis_2">
    <g id="ytick_1">
     <g id="line2d_7">
      <defs>
       <path id="m1f66dd8db4" d="M 0 0 
L -3.5 0 
" style="stroke: #000000; stroke-width: 0.8"/>
      </defs>
      <g>
       <use xlink:href="#m1f66dd8db4" x="57.6" y="295.489707" style="stroke: #000000; stroke-width: 0.8"/>
      </g>
     </g>
     <g id="text_8">
      <text style="font: 10px 'IPAexGothic'; text-anchor: end" x="50.6" y="299.235019" transform="rotate(-0 50.6 299.235019)">0.00</text>
     </g>
    </g>
    <g id="ytick_2">
     <g id="line2d_8">
      <g>
       <use xlink:href="#m1f66dd8db4" x="57.6" y="262.172835" style="stroke: #000000; stroke-width: 0.8"/>
      </g>
     </g>
     <g id="text_9">
      <text style="font: 10px 'IPAexGothic'; text-anchor: end" x="50.6" y="265.918148" transform="rotate(-0 50.6 265.918148)">0.25</text>
     </g>
    </g>
    <g id="ytick_3">
     <g id="line2d_9">
      <g>
       <use xlink:href="#m1f66dd8db4" x="57.6" y="228.855963" style="stroke: #000000; stroke-width: 0.8"/>
      </g>
     </g>
     <g id="text_10">
      <text style="font: 10px 'IPAexGothic'; text-anchor: end" x="50.6" y="232.601276" transform="rotate(-0 50.6 232.601276)">0.50</text>
     </g>
    </g>
    <g id="ytick_4">
     <g id="line2d_10">
      <g>
       <use xlink:href="#m1f66dd8db4" x="57.6" y="195.539092" style="stroke: #000000; stroke-width: 0.8"/>
      </g>
     </g>
     <g id="text_11">
      <text style="font: 10px 'IPAexGothic'; text-anchor: end" x="50.6" y="199.284404" transform="rotate(-0 50.6 199.284404)">0.75</text>
     </g>
    </g>
    <g id="ytick_5">
     <g id="line2d_11">
      <g>
       <use xlink:href="#m1f66dd8db4" x="57.6" y="162.22222" style="stroke: #000000; stroke-width: 0.8"/>
      </g>
     </g>
     <g id="text_12">
      <text style="font: 10px 'IPAexGothic'; text-anchor: end" x="50.6" y="165.967532" transform="rotate(-0 50.6 165.967532)">1.00</text>
     </g>
    </g>
    <g id="ytick_6">
     <g id="line2d_12">
      <g>
       <use xlink:href="#m1f66dd8db4" x="57.6" y="128.905348" style="stroke: #000000; stroke-width: 0.8"/>
      </g>
     </g>
     <g id="text_13">
      <text style="font: 10px 'IPAexGothic'; text-anchor: end" x="50.6" y="132.650661" transform="rotate(-0 50.6 132.650661)">1.25</text>
     </g>
    </g>
    <g id="ytick_7">
     <g id="line2d_13">
      <g>
       <use xlink:href="#m1f66dd8db4" x="57.6" y="95.588476" style="stroke: #000000; stroke-width: 0.8"/>
      </g>
     </g>
     <g id="text_14">
      <text style="font: 10px 'IPAexGothic'; text-anchor: end" x="50.6" y="99.333789" transform="rotate(-0 50.6 99.333789)">1.50</text>
     </g>
    </g>
    <g id="ytick_8">
     <g id="line2d_14">
      <g>
       <use xlink:href="#m1f66dd8db4" x="57.6" y="62.271605" style="stroke: #000000; stroke-width: 0.8"/>
      </g>
     </g>
     <g id="text_15">
      <text style="font: 10px 'IPAexGothic'; text-anchor: end" x="50.6" y="66.016917" transform="rotate(-0 50.6 66.016917)">1.75</text>
     </g>
    </g>
    <g id="text_16">
     <text style="font: 10px 'IPAexGothic'; text-anchor: middle" x="23.1625" y="174.528" transform="rotate(-90 23.1625 174.528)">振幅</text>
    </g>
    <g id="text_17">
     <text style="font: 10px 'IPAexGothic'; text-anchor: start" x="57.6" y="38.472" transform="rotate(-0 57.6 38.472)">1e7</text>
    </g>
   </g>
   <g id="line2d_15">
    <path d="M 73.832727 258.099234 
L 73.965266 292.555271 
L 74.097805 294.265508 
L 74.164075 294.042076 
L 74.230345 294.127168 
L 74.296614 294.032269 
L 74.362884 293.937326 
L 74.429153 294.139514 
L 74.495423 293.872232 
L 74.561692 294.809227 
L 74.627962 294.598737 
L 74.826771 294.755373 
L 74.89304 294.148805 
L 74.95931 295.141717 
L 75.025579 294.887093 
L 75.290657 295.201139 
L 75.356927 294.878691 
L 75.489466 295.152781 
L 75.555736 295.202912 
L 75.622005 294.503278 
L 75.688275 295.196799 
L 75.754544 294.710265 
L 75.820814 294.999671 
L 75.887083 295.373697 
L 75.953353 294.958469 
L 76.019623 295.426324 
L 76.085892 295.324199 
L 76.152162 294.921955 
L 76.218431 295.167656 
L 76.41724 294.938496 
L 76.549779 295.357213 
L 76.616049 295.245171 
L 76.682318 294.295937 
L 76.748588 295.19684 
L 76.814857 294.577422 
L 76.881127 294.71554 
L 76.947396 294.711636 
L 77.146205 295.21506 
L 77.212475 295.103623 
L 77.278744 295.188046 
L 77.345014 295.4139 
L 77.411283 294.753596 
L 77.477553 294.978834 
L 77.543822 294.772055 
L 77.610092 295.123079 
L 77.676361 294.80305 
L 77.742631 295.278641 
L 77.808901 294.899218 
L 77.87517 294.911315 
L 77.94144 295.290153 
L 78.007709 295.257716 
L 78.073979 294.8402 
L 78.140248 295.117353 
L 78.206518 295.120855 
L 78.272787 295.260165 
L 78.339057 295.009907 
L 78.405327 295.044847 
L 78.537866 295.301747 
L 78.604135 295.086439 
L 78.670405 295.158864 
L 78.736674 295.282444 
L 78.802944 295.140245 
L 78.869213 295.348535 
L 78.935483 295.056492 
L 79.001752 295.3252 
L 79.068022 295.301373 
L 79.200561 295.153816 
L 79.3331 294.90601 
L 79.39937 295.29761 
L 79.465639 295.035184 
L 79.531909 295.317477 
L 79.598178 295.241622 
L 79.796987 294.946187 
L 79.863257 295.334623 
L 79.929526 295.27442 
L 79.995796 295.092081 
L 80.062065 295.215594 
L 80.128335 295.275627 
L 80.194604 294.959918 
L 80.260874 295.104529 
L 80.393413 295.246162 
L 80.459683 295.249947 
L 80.525952 294.994392 
L 80.592222 295.273722 
L 80.724761 295.067808 
L 80.79103 295.380652 
L 80.8573 295.320201 
L 80.92357 295.040669 
L 80.989839 295.27128 
L 81.056109 295.037698 
L 81.122378 295.378424 
L 81.188648 295.222222 
L 81.321187 294.858917 
L 81.453726 295.392863 
L 81.519996 295.054803 
L 81.586265 295.318444 
L 81.652535 295.225744 
L 82.116422 295.133637 
L 82.182691 295.430778 
L 82.248961 295.077109 
L 82.31523 295.189904 
L 82.3815 295.395724 
L 82.447769 295.12691 
L 82.580308 295.341149 
L 82.646578 294.841915 
L 82.712848 295.183641 
L 82.845387 295.391258 
L 82.911656 295.110684 
L 82.977926 295.408414 
L 83.044195 295.38013 
L 83.441813 295.15878 
L 83.508082 295.407791 
L 83.640621 294.694337 
L 83.77316 295.377414 
L 83.83943 295.026343 
L 83.905699 295.11873 
L 83.971969 295.394561 
L 84.104508 294.976706 
L 84.237047 295.27062 
L 84.303317 294.895621 
L 84.435856 295.447646 
L 84.634665 294.873848 
L 84.700934 295.446746 
L 84.767204 295.3438 
L 84.899743 295.060419 
L 85.032282 295.417661 
L 85.098551 295.108992 
L 85.164821 295.246306 
L 85.29736 295.265441 
L 85.429899 294.969326 
L 85.628708 295.262067 
L 85.694977 295.153068 
L 85.827517 295.141337 
L 85.893786 295.357985 
L 85.960056 295.212911 
L 86.026325 295.384764 
L 86.092595 295.338388 
L 86.225134 295.018792 
L 86.291403 295.371815 
L 86.357673 295.255148 
L 86.490212 294.884676 
L 86.556482 295.252913 
L 86.622751 295.10962 
L 86.75529 295.323319 
L 86.887829 295.265329 
L 86.954099 295.384723 
L 87.020369 295.132128 
L 87.086638 295.180558 
L 87.285447 295.42483 
L 87.351716 295.240733 
L 87.417986 295.41278 
L 87.484255 295.328928 
L 87.550525 295.258783 
L 87.616795 295.408444 
L 87.881873 295.100801 
L 88.014412 295.357159 
L 88.146951 295.071635 
L 88.213221 295.428815 
L 88.27949 295.069048 
L 88.34576 295.230982 
L 88.412029 295.108018 
L 88.544568 295.488 
L 88.743377 294.985286 
L 88.809646 295.30231 
L 88.875916 295.253418 
L 89.074725 295.393684 
L 89.339803 295.375893 
L 89.406072 295.460687 
L 89.538612 295.237238 
L 89.604881 295.323595 
L 89.671151 295.23664 
L 89.73742 295.102119 
L 89.80369 295.202181 
L 89.869959 295.198468 
L 89.936229 295.359776 
L 90.002498 295.240504 
L 90.068768 295.347058 
L 90.135038 295.170455 
L 90.201307 295.326682 
L 90.267577 295.215304 
L 90.333846 295.124364 
L 90.532655 295.315058 
L 90.598924 295.364584 
L 90.731464 295.059683 
L 90.864003 295.292424 
L 90.996542 295.253604 
L 91.129081 295.176214 
L 91.26162 295.322949 
L 91.32789 295.024803 
L 91.394159 295.404742 
L 91.460429 295.120616 
L 91.659237 295.453718 
L 91.791776 295.164282 
L 91.990585 295.347947 
L 92.189394 295.071181 
L 92.321933 295.328691 
L 92.388202 295.245483 
L 92.520742 295.325567 
L 92.587011 295.161719 
L 92.71955 295.292378 
L 92.78582 295.221476 
L 92.852089 295.339172 
L 92.918359 295.102585 
L 92.984628 295.22877 
L 93.050898 295.384578 
L 93.117168 295.333198 
L 93.448515 295.320224 
L 93.713593 295.393896 
L 94.044941 295.069725 
L 94.17748 295.363244 
L 94.24375 295.299601 
L 94.310019 295.443807 
L 94.376289 295.388833 
L 94.575098 295.158048 
L 94.773906 295.291009 
L 94.972715 295.41366 
L 95.038985 295.26007 
L 95.105254 295.293154 
L 95.171524 295.331724 
L 95.237793 295.16804 
L 95.304063 295.401775 
L 95.370332 295.246747 
L 95.502871 295.354461 
L 95.635411 295.312631 
L 95.70168 295.46337 
L 95.834219 295.270316 
L 95.900489 295.443674 
L 95.966758 295.319097 
L 96.033028 295.084522 
L 96.099297 295.423362 
L 96.165567 295.317631 
L 96.298106 295.082875 
L 96.364376 295.177104 
L 96.430645 295.47117 
L 96.496915 295.357214 
L 96.563184 295.176511 
L 96.629454 295.288518 
L 96.894532 295.250441 
L 96.960802 295.174475 
L 97.027071 295.335973 
L 97.093341 295.303362 
L 97.424689 295.371181 
L 97.490958 295.199363 
L 97.557228 295.297205 
L 97.689767 295.467618 
L 97.756036 295.414876 
L 97.888575 295.133759 
L 97.954845 295.29478 
L 98.021115 295.454457 
L 98.087384 295.358734 
L 98.286193 295.298382 
L 98.551271 295.42053 
L 98.68381 295.321457 
L 99.081427 295.457492 
L 99.280236 295.338246 
L 99.545314 295.417688 
L 99.677853 295.299455 
L 99.810392 295.364782 
L 100.14174 295.344165 
L 100.274279 295.453312 
L 100.671897 295.351327 
L 100.804436 295.373644 
L 101.069514 295.373825 
L 101.135784 295.335067 
L 101.268323 295.385394 
L 101.467131 295.266848 
L 101.59967 295.38118 
L 101.798479 295.208033 
L 102.063557 295.356285 
L 102.196096 295.266355 
L 102.461175 295.308165 
L 102.659983 295.310487 
L 102.792522 295.370914 
L 102.925062 295.142355 
L 103.12387 295.442376 
L 103.256409 295.27169 
L 103.322679 295.269745 
L 103.455218 295.436728 
L 103.521488 295.21447 
L 103.587757 295.25739 
L 103.654027 295.181214 
L 103.852835 295.416605 
L 103.985374 295.267805 
L 104.051644 295.334696 
L 104.117913 295.471313 
L 104.184183 295.366063 
L 104.316722 295.331993 
L 104.515531 295.376423 
L 104.5818 295.374788 
L 104.64807 295.192596 
L 104.846879 295.396126 
L 105.045687 295.433507 
L 105.111957 295.267607 
L 105.178226 295.356096 
L 105.310765 295.270614 
L 105.443305 295.367766 
L 105.774652 295.404414 
L 105.907191 295.301612 
L 105.973461 295.47474 
L 106.039731 295.369163 
L 106.569887 295.454122 
L 106.967504 295.394639 
L 108.226626 295.375052 
L 108.292895 295.31262 
L 108.359165 295.395431 
L 108.425435 295.451477 
L 108.491704 295.327414 
L 108.557974 295.459171 
L 108.624243 295.404452 
L 108.823052 295.374761 
L 109.08813 295.46639 
L 109.353208 295.42618 
L 109.618286 295.422909 
L 109.817095 295.420545 
L 110.280982 295.280238 
L 110.413521 295.320807 
L 110.479791 295.20583 
L 110.54606 295.283726 
L 110.61233 295.327754 
L 110.678599 295.229507 
L 110.744869 295.304397 
L 110.943678 295.311597 
L 111.208756 295.252335 
L 111.275025 295.391956 
L 111.407564 295.250691 
L 111.473834 295.402047 
L 111.540104 295.284639 
L 111.805182 295.277108 
L 112.202799 295.287837 
L 112.269069 295.277736 
L 112.335338 295.404279 
L 112.401608 295.341568 
L 112.467877 295.262847 
L 112.534147 295.351841 
L 112.799225 295.440188 
L 112.998034 295.442507 
L 113.461921 295.390614 
L 113.52819 295.454574 
L 113.59446 295.373456 
L 113.793268 295.353592 
L 115.980164 295.363709 
L 116.178972 295.392372 
L 116.444051 295.396574 
L 116.642859 295.370914 
L 116.775398 295.35476 
L 116.974207 295.438012 
L 117.239285 295.313194 
L 118.962294 295.360166 
L 119.094833 295.280944 
L 119.293641 295.400297 
L 119.42618 295.319478 
L 119.49245 295.4161 
L 119.55872 295.349491 
L 119.691259 295.38925 
L 119.757528 295.300908 
L 119.823798 295.428169 
L 119.890067 295.316482 
L 120.155146 295.406563 
L 120.287685 295.337047 
L 120.353954 295.40795 
L 120.420224 295.274706 
L 120.486493 295.342308 
L 120.619032 295.303297 
L 120.685302 295.411409 
L 120.751572 295.275389 
L 120.817841 295.341906 
L 120.95038 295.294766 
L 121.01665 295.388561 
L 121.082919 295.33112 
L 121.281728 295.324977 
L 121.414267 295.353355 
L 121.811884 295.360506 
L 121.944424 295.34629 
L 122.805928 295.292046 
L 123.004736 295.328466 
L 123.799971 295.374064 
L 123.93251 295.354707 
L 124.131319 295.300685 
L 124.330127 295.301966 
L 124.992823 295.357791 
L 125.257901 295.397096 
L 125.986866 295.385375 
L 126.119405 295.422037 
L 126.848371 295.377221 
L 127.312257 295.403137 
L 127.511066 295.356912 
L 128.37257 295.364296 
L 128.505109 295.304272 
L 128.770188 295.277613 
L 128.902727 295.259749 
L 129.035266 295.285779 
L 129.234074 295.282688 
L 129.499153 295.330634 
L 130.559466 295.185129 
L 130.625735 295.118533 
L 130.692005 295.189738 
L 130.824544 295.21651 
L 130.957083 295.093579 
L 131.089622 295.241812 
L 131.288431 295.189423 
L 131.42097 295.369205 
L 131.487239 295.332311 
L 131.619778 295.303909 
L 131.818587 295.476064 
L 132.083665 295.305452 
L 132.149935 295.421062 
L 132.216204 295.361041 
L 132.348744 295.231219 
L 132.481283 295.354014 
L 132.680091 295.175472 
L 132.746361 295.185156 
L 132.81263 295.342931 
L 132.8789 295.278374 
L 133.011439 295.153871 
L 133.077709 295.243555 
L 133.143978 295.328841 
L 133.210248 295.264675 
L 133.342787 295.226257 
L 133.475326 295.323045 
L 133.607865 295.221708 
L 133.806674 295.289916 
L 134.005482 295.18041 
L 134.138021 295.242905 
L 134.270561 295.100139 
L 134.535639 295.155602 
L 134.668178 295.07676 
L 134.800717 295.258131 
L 134.866987 295.130737 
L 135.065795 295.046506 
L 135.198334 295.108244 
L 135.264604 294.982367 
L 135.463413 295.160177 
L 135.595952 295.04106 
L 135.86103 295.020789 
L 135.993569 295.094705 
L 136.258647 295.239074 
L 136.324917 294.661969 
L 136.391186 294.806217 
L 136.589995 294.951769 
L 136.855073 295.049713 
L 136.921343 295.167241 
L 136.987612 295.112943 
L 137.584038 294.989018 
L 137.650308 295.089218 
L 137.782847 294.896089 
L 137.849117 294.962853 
L 137.981656 295.105588 
L 138.047925 294.991169 
L 138.180464 295.107037 
L 138.379273 294.848794 
L 138.578082 295.031288 
L 138.77689 295.009846 
L 138.975699 294.782571 
L 139.041968 295.079908 
L 139.108238 294.920734 
L 139.174508 294.995896 
L 139.240777 294.904108 
L 139.572125 294.886562 
L 139.638394 294.820016 
L 139.704664 294.888474 
L 139.837203 294.927187 
L 139.903473 294.796324 
L 140.036012 294.982485 
L 140.102281 294.782262 
L 140.168551 294.903598 
L 140.30109 294.699105 
L 140.433629 295.070049 
L 140.632438 294.767579 
L 140.897516 294.906203 
L 140.963786 294.690577 
L 141.030055 294.904571 
L 141.096325 294.795081 
L 141.162594 294.744153 
L 141.228864 294.863057 
L 141.361403 294.75596 
L 141.626481 295.151095 
L 141.692751 294.769248 
L 141.75902 294.828852 
L 141.82529 294.806376 
L 141.891559 294.932043 
L 141.957829 294.758771 
L 142.090368 295.177965 
L 142.156638 295.151714 
L 142.355446 295.010647 
L 142.487985 295.062049 
L 142.554255 295.119366 
L 142.620524 295.012344 
L 142.686794 295.08746 
L 143.018142 295.165621 
L 143.084411 294.85028 
L 143.21695 295.153119 
L 143.482029 294.981515 
L 143.614568 295.249608 
L 144.144724 295.196526 
L 144.210994 295.300661 
L 144.343533 295.106163 
L 144.476072 295.233322 
L 145.602654 295.307604 
L 145.668924 295.146049 
L 145.735193 295.373768 
L 145.801463 295.320235 
L 145.867733 295.396093 
L 145.934002 295.336572 
L 146.000272 295.204551 
L 146.066541 295.331811 
L 146.132811 295.230544 
L 146.19908 295.227219 
L 146.26535 295.34888 
L 146.331619 295.304504 
L 146.596698 295.327992 
L 146.729237 295.246438 
L 147.126854 295.438926 
L 147.325663 295.288681 
L 147.657011 295.471661 
L 147.855819 295.245849 
L 147.988358 295.320528 
L 148.054628 295.387467 
L 148.120897 295.306442 
L 148.319706 295.351365 
L 148.385976 295.341099 
L 148.452245 295.193513 
L 148.518515 295.292781 
L 150.506601 295.360571 
L 150.572871 295.276527 
L 150.63914 295.362517 
L 150.837949 295.415443 
L 150.904219 295.469318 
L 151.036758 295.322693 
L 151.169297 295.376484 
L 151.235566 295.257301 
L 151.301836 295.317962 
L 151.368106 295.483965 
L 151.434375 295.410494 
L 151.566914 295.447348 
L 151.964532 295.343286 
L 152.097071 295.462927 
L 152.22961 295.216303 
L 152.295879 295.368337 
L 152.362149 295.264878 
L 152.494688 295.456284 
L 152.560958 295.304579 
L 152.759766 295.290184 
L 152.892305 295.16682 
L 152.958575 295.341298 
L 153.024844 295.292873 
L 153.091114 295.271633 
L 153.223653 295.347135 
L 153.356192 295.271995 
L 153.422462 295.280076 
L 153.488731 295.142458 
L 153.62127 295.395961 
L 153.820079 295.246926 
L 153.886349 295.276207 
L 154.018888 295.162621 
L 154.085157 295.318374 
L 154.151427 295.191224 
L 154.350235 295.171675 
L 154.482775 295.217541 
L 154.549044 295.206264 
L 154.681583 295.294033 
L 154.814122 295.202292 
L 154.880392 295.25533 
L 154.946661 295.156972 
L 155.012931 295.247615 
L 155.21174 295.387783 
L 155.344279 295.246422 
L 155.410548 295.094357 
L 155.476818 295.163783 
L 155.543087 295.351306 
L 155.609357 295.124605 
L 155.675627 295.238076 
L 155.874435 295.248981 
L 155.940705 295.190855 
L 156.006974 295.319202 
L 156.073244 295.148768 
L 156.139513 295.239888 
L 156.338322 295.300976 
L 156.404592 295.251146 
L 156.470861 295.359768 
L 156.537131 295.102992 
L 156.6034 295.272282 
L 156.802209 295.386018 
L 156.868479 295.18195 
L 156.934748 295.301303 
L 157.133557 295.126054 
L 157.266096 295.285223 
L 157.332365 295.120818 
L 157.398635 295.273801 
L 157.464905 295.173919 
L 157.729983 295.230881 
L 157.796252 295.123529 
L 157.862522 295.329924 
L 157.928791 295.278764 
L 157.995061 295.082526 
L 158.061331 295.178112 
L 158.326409 295.252917 
L 158.591487 295.103645 
L 158.724026 295.154291 
L 159.055374 295.185925 
L 159.254182 295.147334 
L 159.386722 295.251344 
L 159.452991 295.126852 
L 159.58553 295.245059 
L 159.718069 295.214218 
L 159.850608 295.350313 
L 159.916878 295.129565 
L 159.983148 295.248219 
L 160.248226 295.147149 
L 160.314495 295.317956 
L 160.380765 295.151573 
L 160.447034 295.291398 
L 160.513304 295.183478 
L 160.645843 295.281956 
L 160.712113 295.064424 
L 160.778382 295.182474 
L 160.977191 295.222348 
L 161.04346 295.24732 
L 161.176 295.060021 
L 161.308539 295.350831 
L 161.507347 295.18096 
L 161.904965 295.272835 
L 161.971234 295.4213 
L 162.037504 295.164658 
L 162.103773 295.275348 
L 162.170043 295.1203 
L 162.302582 295.333771 
L 162.501391 295.1802 
L 162.63393 295.393949 
L 162.899008 295.146426 
L 162.965278 295.301461 
L 163.031547 295.239067 
L 163.164086 295.146406 
L 163.296625 295.345311 
L 163.495434 295.388259 
L 163.561704 295.389635 
L 163.694243 295.174877 
L 163.893051 295.325327 
L 163.959321 295.333276 
L 164.02559 295.0653 
L 164.09186 295.13807 
L 164.224399 295.411929 
L 164.489477 295.147223 
L 164.555747 295.374751 
L 164.622016 295.29232 
L 164.688286 295.368361 
L 164.820825 295.196035 
L 164.953364 295.379951 
L 165.019634 295.171409 
L 165.085903 295.374549 
L 165.152173 295.277006 
L 165.284712 295.367064 
L 165.417251 295.333823 
L 165.483521 295.394068 
L 165.61606 295.153223 
L 165.748599 295.384058 
L 166.278755 295.239912 
L 166.345025 295.423551 
L 166.411294 295.361228 
L 166.477564 295.372171 
L 166.543833 295.238827 
L 166.610103 295.298136 
L 166.742642 295.421301 
L 166.808912 295.266262 
L 166.875181 295.350328 
L 167.140259 295.400599 
L 167.272799 295.396975 
L 167.339068 295.18596 
L 167.405338 295.454809 
L 167.471607 295.087705 
L 167.537877 295.221455 
L 167.604146 295.433729 
L 167.670416 295.348208 
L 167.802955 295.449303 
L 168.001764 294.966364 
L 168.068033 295.411045 
L 168.200572 295.006805 
L 168.266842 295.394466 
L 168.333111 295.369131 
L 168.53192 295.161175 
L 168.59819 295.382521 
L 168.664459 295.050698 
L 168.730729 295.096185 
L 168.796998 295.305898 
L 168.863268 295.131663 
L 168.929537 295.20775 
L 168.995807 295.28596 
L 169.194616 295.097689 
L 169.260885 295.142456 
L 169.327155 295.033329 
L 169.525963 295.255322 
L 169.592233 295.060808 
L 169.724772 295.300036 
L 169.791042 295.14577 
L 169.857311 295.192607 
L 170.05612 295.43437 
L 170.122389 295.316565 
L 170.188659 295.147303 
L 170.254928 295.342113 
L 170.321198 295.248423 
L 170.453737 295.103635 
L 170.520007 295.308232 
L 170.586276 295.286425 
L 170.652546 295.169488 
L 170.718815 295.318161 
L 170.851354 295.034536 
L 170.917624 295.345082 
L 170.983894 295.249983 
L 171.050163 295.155829 
L 171.182702 295.315816 
L 171.248972 295.137973 
L 171.315241 295.16549 
L 171.44778 295.213868 
L 171.51405 295.04073 
L 171.646589 295.363431 
L 171.712859 295.202705 
L 171.779128 295.447611 
L 171.845398 295.316606 
L 171.977937 294.938879 
L 172.044206 295.262357 
L 172.110476 295.230932 
L 172.243015 294.986166 
L 172.375554 295.450266 
L 172.508093 295.327105 
L 172.706902 295.192556 
L 172.773172 295.3225 
L 172.839441 295.177366 
L 172.97198 295.37232 
L 173.170789 294.820356 
L 173.237058 295.436804 
L 173.303328 295.375005 
L 173.369598 295.394973 
L 173.502137 295.06705 
L 173.568406 295.136293 
L 173.634676 295.158293 
L 173.700945 295.060694 
L 173.899754 295.246596 
L 173.966023 294.983065 
L 174.032293 295.24913 
L 174.098563 295.170952 
L 174.231102 295.342095 
L 174.297371 294.994237 
L 174.363641 295.425392 
L 174.42991 294.816707 
L 174.562449 295.29656 
L 174.628719 295.003889 
L 174.694989 295.089831 
L 174.761258 294.928145 
L 174.827528 295.357432 
L 174.893797 295.238564 
L 174.960067 295.166831 
L 175.026336 295.326952 
L 175.092606 294.979542 
L 175.158875 295.383651 
L 175.225145 295.125198 
L 175.291415 295.14453 
L 175.357684 294.941397 
L 175.490223 295.218535 
L 175.556493 295.109174 
L 175.689032 295.253033 
L 175.755301 295.301105 
L 175.821571 295.169801 
L 175.887841 295.23879 
L 176.152919 295.35616 
L 176.285458 295.039987 
L 176.417997 295.315412 
L 176.484267 295.204389 
L 176.616806 295.030939 
L 176.749345 295.224623 
L 176.815614 295.004124 
L 176.881884 295.08455 
L 176.948153 295.303843 
L 177.014423 295.20595 
L 177.080693 295.170318 
L 177.146962 294.65479 
L 177.213232 295.349342 
L 177.279501 295.157413 
L 177.41204 294.96671 
L 177.47831 295.401901 
L 177.544579 295.107997 
L 177.677119 295.322751 
L 177.809658 294.615419 
L 177.875927 295.354225 
L 177.942197 294.65877 
L 178.008466 295.114804 
L 178.074736 295.161386 
L 178.207275 294.749441 
L 178.273545 295.206669 
L 178.339814 294.223556 
L 178.406084 295.16826 
L 178.472353 294.949591 
L 178.538623 294.944701 
L 178.604892 294.700539 
L 178.671162 295.071442 
L 178.737431 294.914921 
L 178.803701 294.92202 
L 178.86997 294.773577 
L 178.93624 295.023611 
L 179.00251 294.889765 
L 179.135049 295.090053 
L 179.201318 294.333436 
L 179.267588 294.861289 
L 179.333857 294.75064 
L 179.466396 294.789962 
L 179.598936 295.204254 
L 179.665205 294.515464 
L 179.731475 294.810098 
L 179.797744 294.772749 
L 179.864014 295.070549 
L 179.930283 294.886241 
L 179.996553 294.664985 
L 180.062822 294.780483 
L 180.129092 294.874115 
L 180.327901 294.365687 
L 180.46044 295.186918 
L 180.526709 295.002674 
L 180.592979 294.409342 
L 180.659248 295.153655 
L 180.725518 294.672615 
L 180.990596 295.029846 
L 181.123135 294.619963 
L 181.189405 294.738117 
L 181.321944 295.161101 
L 181.454483 294.501735 
L 181.587022 294.968197 
L 181.653292 294.787479 
L 181.719561 294.981389 
L 181.785831 294.883976 
L 181.91837 294.737834 
L 181.98464 295.228384 
L 182.050909 294.683591 
L 182.117179 295.061395 
L 182.183448 294.69119 
L 182.315987 295.194134 
L 182.382257 295.14266 
L 182.448526 294.86009 
L 182.581066 295.398305 
L 182.713605 294.814413 
L 182.779874 294.860483 
L 182.912413 295.013567 
L 182.978683 295.050023 
L 183.044952 294.627968 
L 183.111222 294.972141 
L 183.177492 294.810899 
L 183.3763 294.873912 
L 183.44257 294.545802 
L 183.508839 294.975188 
L 183.575109 294.474924 
L 183.641378 294.779142 
L 183.707648 294.892151 
L 183.773917 294.628779 
L 183.906457 295.336455 
L 183.972726 294.583577 
L 184.038996 294.74293 
L 184.105265 295.261148 
L 184.171535 294.921858 
L 184.237804 294.680546 
L 184.304074 294.954563 
L 184.370343 294.746686 
L 184.436613 294.862154 
L 184.502883 294.699243 
L 184.569152 294.916753 
L 184.635422 294.779207 
L 184.83423 295.245769 
L 184.9005 294.980098 
L 184.966769 295.303086 
L 185.033039 294.839326 
L 185.099309 295.031144 
L 185.165578 295.110433 
L 185.231848 294.870822 
L 185.298117 295.17935 
L 185.364387 294.906218 
L 185.430656 295.15915 
L 185.496926 294.978967 
L 185.563195 294.958662 
L 185.695735 295.266867 
L 185.762004 294.879774 
L 185.828274 294.97768 
L 185.894543 294.973628 
L 185.960813 295.233337 
L 186.159621 294.662566 
L 186.225891 294.656826 
L 186.292161 294.34078 
L 186.623508 295.221939 
L 186.756047 295.215883 
L 187.021126 294.617229 
L 187.153665 295.127287 
L 187.219934 295.00831 
L 187.352473 294.581961 
L 187.418743 294.631403 
L 187.485013 294.985041 
L 187.551282 294.94963 
L 187.617552 294.656206 
L 187.683821 294.965294 
L 187.88263 293.959751 
L 187.948899 294.704621 
L 188.015169 294.335536 
L 188.081439 293.437697 
L 188.147708 294.796075 
L 188.213978 293.662836 
L 188.280247 293.796523 
L 188.479056 293.058183 
L 188.545325 293.321268 
L 188.677864 292.072697 
L 188.744134 293.994081 
L 188.810404 293.823833 
L 189.141751 286.628878 
L 189.27429 294.607762 
L 189.34056 293.628289 
L 189.473099 271.293092 
L 189.539369 277.106452 
L 189.671908 290.085026 
L 189.738177 278.271472 
L 189.870716 228.110178 
L 190.003256 273.553568 
L 190.069525 271.061543 
L 190.202064 126.586497 
L 190.334603 248.139701 
L 190.400873 254.701658 
L 190.467142 234.776547 
L 190.533412 59.576086 
L 190.665951 234.054202 
L 190.732221 230.094156 
L 190.86476 53.568 
L 190.931029 75.134992 
L 191.063568 278.658189 
L 191.129838 267.250015 
L 191.196108 98.581033 
L 191.262377 105.112053 
L 191.394916 275.25795 
L 191.461186 283.535533 
L 191.593725 121.071245 
L 191.792534 284.223368 
L 191.858803 277.13093 
L 191.925073 221.114645 
L 191.991342 235.075981 
L 192.190151 291.187745 
L 192.32269 259.701304 
L 192.521499 286.466707 
L 192.587768 286.834339 
L 192.654038 279.91175 
L 192.720307 283.719633 
L 192.919116 290.941754 
L 193.051655 289.396662 
L 193.250464 291.916577 
L 193.316733 291.748506 
L 193.449272 292.373761 
L 193.515542 292.049161 
L 193.714351 293.029032 
L 193.84689 292.059233 
L 193.913159 292.102032 
L 194.111968 293.597682 
L 194.178237 293.394332 
L 194.244507 293.553675 
L 194.310777 293.374098 
L 194.509585 293.927801 
L 194.575855 293.411854 
L 194.642124 293.754454 
L 194.708394 294.246452 
L 194.973472 293.240824 
L 195.039742 293.921222 
L 195.106011 293.634036 
L 195.172281 293.780757 
L 195.23855 293.144201 
L 195.30482 293.438672 
L 195.371089 293.333566 
L 195.569898 294.238551 
L 195.702437 293.788959 
L 195.834976 294.36604 
L 195.967515 293.89664 
L 196.033785 294.246768 
L 196.100055 293.790458 
L 196.166324 294.224966 
L 196.232594 294.187754 
L 196.298863 293.546119 
L 196.431402 294.542628 
L 196.497672 293.916779 
L 196.563941 294.850004 
L 196.630211 294.392645 
L 196.696481 294.03852 
L 196.82902 294.489264 
L 196.895289 294.147646 
L 197.027828 294.590707 
L 197.094098 294.482496 
L 197.160367 294.6037 
L 197.226637 295.17055 
L 197.292907 294.229051 
L 197.359176 294.500107 
L 197.491715 294.909701 
L 197.690524 294.336284 
L 197.756793 295.06911 
L 197.823063 294.782537 
L 197.889333 294.345496 
L 198.021872 294.898464 
L 198.088141 294.396128 
L 198.154411 294.617813 
L 198.22068 294.713299 
L 198.28695 294.634074 
L 198.353219 294.390063 
L 198.485759 294.925452 
L 198.618298 294.39721 
L 198.684567 294.825666 
L 198.750837 294.485097 
L 198.817106 295.142656 
L 198.883376 294.433847 
L 198.949645 294.6405 
L 199.015915 294.932631 
L 199.082184 294.560336 
L 199.148454 294.815032 
L 199.214724 294.954913 
L 199.280993 294.913334 
L 199.347263 294.471514 
L 199.413532 295.177142 
L 199.479802 294.748228 
L 199.612341 294.612675 
L 199.81115 294.934037 
L 199.877419 294.785094 
L 200.009958 295.206012 
L 200.142497 294.800333 
L 200.275036 295.057983 
L 200.473845 294.451347 
L 200.540115 294.922697 
L 200.606384 294.168852 
L 200.672654 294.773538 
L 200.738923 294.757022 
L 200.805193 294.845093 
L 200.871462 294.792906 
L 200.937732 294.699198 
L 201.004002 295.07701 
L 201.136541 294.681143 
L 201.26908 295.264253 
L 201.335349 295.169179 
L 201.401619 294.521871 
L 201.467888 294.928746 
L 201.534158 295.429477 
L 201.600428 294.63721 
L 201.666697 294.703266 
L 201.865506 295.109901 
L 201.931775 294.376891 
L 201.998045 294.635245 
L 202.064314 295.029207 
L 202.130584 295.004385 
L 202.196854 294.67265 
L 202.263123 295.181096 
L 202.329393 294.784474 
L 202.395662 295.327973 
L 202.461932 294.708947 
L 202.528201 295.221856 
L 202.594471 294.872627 
L 202.66074 295.211468 
L 202.859549 294.76871 
L 202.925819 295.087103 
L 202.992088 294.698715 
L 203.058358 294.992256 
L 203.124627 294.322847 
L 203.190897 295.32306 
L 203.257166 294.93234 
L 203.323436 294.921153 
L 203.389706 294.675019 
L 203.455975 294.795959 
L 203.522245 294.951537 
L 203.588514 294.896118 
L 203.853592 294.902211 
L 203.919862 295.164204 
L 203.986131 295.00276 
L 204.052401 294.807224 
L 204.118671 295.004155 
L 204.18494 294.663085 
L 204.25121 295.142021 
L 204.317479 294.767204 
L 204.383749 294.915826 
L 204.450018 295.191207 
L 204.582557 294.942377 
L 204.715097 295.331155 
L 204.781366 294.857099 
L 204.847636 295.359345 
L 204.913905 295.280869 
L 205.178983 294.965304 
L 205.245253 295.328118 
L 205.311523 294.972526 
L 205.377792 295.069852 
L 205.444062 295.327169 
L 205.510331 294.984955 
L 205.576601 295.098373 
L 205.64287 295.033229 
L 205.70914 295.395713 
L 205.775409 294.989561 
L 205.841679 295.253027 
L 205.907949 295.219373 
L 205.974218 294.818607 
L 206.040488 294.998957 
L 206.106757 295.084354 
L 206.173027 295.414512 
L 206.239296 294.934931 
L 206.305566 295.177769 
L 206.371835 295.272801 
L 206.438105 295.074293 
L 206.504375 295.406685 
L 206.636914 295.125266 
L 206.703183 295.258739 
L 206.769453 295.010938 
L 206.835722 295.189235 
L 206.901992 295.248638 
L 206.968261 295.160847 
L 207.100801 294.894052 
L 207.16707 295.311396 
L 207.23334 295.10838 
L 207.299609 295.074441 
L 207.365879 295.360412 
L 207.564687 294.755606 
L 207.630957 295.118345 
L 207.697227 295.035228 
L 207.763496 295.014574 
L 207.829766 295.338259 
L 207.896035 294.941866 
L 207.962305 295.384717 
L 208.028574 295.186321 
L 208.094844 294.892283 
L 208.161113 294.95719 
L 208.227383 294.848378 
L 208.293653 295.350331 
L 208.359922 295.002503 
L 208.426192 295.303766 
L 208.558731 294.94389 
L 208.69127 295.023077 
L 208.757539 295.313533 
L 208.823809 294.395712 
L 208.956348 295.420511 
L 209.022618 294.992622 
L 209.088887 295.061607 
L 209.155157 295.08059 
L 209.221426 295.329876 
L 209.287696 295.155007 
L 209.420235 295.384303 
L 209.486504 295.075692 
L 209.552774 295.294123 
L 209.619044 295.408557 
L 209.751583 294.822425 
L 209.884122 295.331455 
L 209.950391 295.1104 
L 210.016661 295.267177 
L 210.414278 295.022844 
L 210.546817 295.276532 
L 210.613087 295.127099 
L 210.679356 295.188829 
L 210.811896 295.403351 
L 210.878165 295.197372 
L 211.010704 295.144471 
L 211.076974 295.208912 
L 211.143243 295.116467 
L 211.275782 295.483149 
L 211.408322 295.034928 
L 211.474591 295.306202 
L 211.540861 295.045716 
L 211.60713 295.123965 
L 211.6734 295.188689 
L 211.805939 294.921341 
L 211.938478 295.374865 
L 212.071017 295.182382 
L 212.137287 295.21772 
L 212.203556 295.039512 
L 212.269826 295.141338 
L 212.402365 295.22141 
L 212.468634 295.403687 
L 212.534904 295.194722 
L 212.601174 295.374471 
L 212.667443 295.326103 
L 212.799982 295.075431 
L 212.932521 295.307372 
L 212.998791 294.937326 
L 213.13133 295.338178 
L 213.330139 295.150814 
L 213.396408 295.478023 
L 213.462678 295.44719 
L 213.528947 294.979526 
L 213.595217 295.259457 
L 213.661486 295.328383 
L 213.727756 295.08682 
L 213.794025 295.389703 
L 213.860295 295.13266 
L 213.992834 295.394683 
L 214.059104 294.850713 
L 214.125373 295.184877 
L 214.324182 295.465065 
L 214.390451 295.007553 
L 214.456721 295.212865 
L 214.522991 295.359494 
L 214.721799 294.910522 
L 214.788069 295.331342 
L 214.854338 295.275009 
L 214.920608 295.146118 
L 214.986877 295.369212 
L 215.053147 295.052674 
L 215.119417 295.263639 
L 215.185686 295.321841 
L 215.251956 295.004298 
L 215.318225 295.282082 
L 215.384495 295.119212 
L 215.450764 295.231719 
L 215.517034 295.168621 
L 215.583303 294.987178 
L 215.848382 295.438356 
L 215.980921 295.035844 
L 216.179729 295.459661 
L 216.245999 295.161279 
L 216.312269 295.321541 
L 216.444808 295.282554 
L 216.577347 295.233975 
L 216.709886 295.251204 
L 216.776155 295.050427 
L 216.842425 295.243619 
L 216.908695 295.205991 
L 216.974964 295.205812 
L 217.107503 295.051156 
L 217.240042 295.268977 
L 217.306312 295.284558 
L 217.438851 295.119699 
L 217.63766 295.295823 
L 217.703929 295.060992 
L 217.902738 295.323625 
L 217.969007 295.326159 
L 218.035277 295.04051 
L 218.234086 295.409203 
L 218.300355 295.402936 
L 218.432894 295.249525 
L 218.631703 295.34158 
L 218.764242 295.247145 
L 218.830512 295.327747 
L 218.896781 295.226535 
L 218.963051 295.28979 
L 219.02932 295.279798 
L 219.161859 295.131721 
L 219.426938 295.236753 
L 219.559477 294.985907 
L 219.625746 295.004473 
L 219.758285 295.406869 
L 219.957094 295.042731 
L 220.089633 295.384724 
L 220.222172 295.124744 
L 220.288442 295.222376 
L 220.420981 295.374809 
L 220.61979 295.209179 
L 220.686059 295.369122 
L 220.752329 295.340487 
L 220.951137 295.258979 
L 221.017407 295.443093 
L 221.083676 295.3909 
L 221.149946 295.256176 
L 221.216216 295.30935 
L 221.282485 295.273763 
L 221.348755 295.393223 
L 221.415024 295.319613 
L 221.481294 295.162897 
L 221.547563 295.233438 
L 221.680102 295.402633 
L 221.878911 295.125708 
L 221.945181 295.380169 
L 222.01145 295.330361 
L 222.143989 295.218243 
L 222.409068 295.35213 
L 222.475337 295.126024 
L 222.541607 295.347419 
L 222.607876 295.299781 
L 222.806685 295.175266 
L 222.872954 295.425064 
L 222.939224 295.268333 
L 223.071763 295.303166 
L 223.138033 295.151591 
L 223.204302 295.257596 
L 223.270572 295.188962 
L 223.336841 295.395574 
L 223.403111 295.21779 
L 223.46938 295.323592 
L 223.60192 295.22265 
L 223.668189 295.420593 
L 223.734459 295.240516 
L 223.800728 295.308354 
L 224.065806 295.316843 
L 224.264615 295.252172 
L 224.397154 295.349984 
L 224.463424 295.218595 
L 224.529693 295.420284 
L 224.595963 295.27517 
L 224.728502 295.212748 
L 224.861041 295.346443 
L 224.927311 295.301103 
L 224.99358 295.398222 
L 225.05985 295.201813 
L 225.126119 295.37643 
L 225.192389 295.262451 
L 225.457467 295.454181 
L 225.523737 295.216191 
L 225.590006 295.339274 
L 225.722545 295.291353 
L 225.788815 295.40624 
L 225.855084 295.179134 
L 225.921354 295.388399 
L 225.987623 295.244306 
L 226.053893 295.323759 
L 226.120163 295.261911 
L 226.186432 295.200406 
L 226.252702 295.402578 
L 226.318971 295.196787 
L 226.385241 295.407079 
L 226.45151 295.282131 
L 226.584049 295.423674 
L 226.650319 295.211716 
L 226.716589 295.417562 
L 226.782858 295.257931 
L 226.849128 295.342339 
L 226.915397 295.380789 
L 227.047936 295.283442 
L 227.180475 295.425722 
L 227.246745 295.244444 
L 227.313015 295.35834 
L 227.379284 295.347758 
L 227.445554 295.204425 
L 227.644362 295.433177 
L 227.776901 295.305076 
L 227.843171 295.404735 
L 227.909441 295.207468 
L 227.97571 295.31566 
L 228.04198 295.473822 
L 228.108249 295.354146 
L 228.240788 295.393973 
L 228.373327 295.368061 
L 228.704675 295.3969 
L 228.770945 295.455961 
L 228.903484 295.353065 
L 228.969753 295.336261 
L 229.036023 295.184165 
L 229.102292 295.255959 
L 229.168562 295.469291 
L 229.234832 295.419081 
L 229.43364 295.45232 
L 229.566179 295.373826 
L 229.698718 295.432068 
L 229.831258 295.395827 
L 229.963797 295.431972 
L 230.096336 295.378399 
L 230.295144 295.390848 
L 230.89157 295.156098 
L 231.02411 295.236667 
L 231.355457 295.057197 
L 231.487996 295.259122 
L 231.554266 295.205402 
L 231.951883 295.204447 
L 232.41577 295.23106 
L 232.48204 295.165982 
L 232.680848 295.334387 
L 232.747118 295.349424 
L 232.813388 295.231852 
L 232.879657 295.308881 
L 233.144735 295.229281 
L 233.409814 295.390266 
L 233.542353 295.313523 
L 233.741161 295.319415 
L 233.8737 295.392123 
L 234.072509 295.295488 
L 234.205048 295.373577 
L 234.337587 295.307086 
L 234.470126 295.317898 
L 234.536396 295.414135 
L 234.602665 295.295957 
L 234.668935 295.35361 
L 234.801474 295.270496 
L 234.867744 295.411867 
L 234.934013 295.296602 
L 235.199091 295.433459 
L 235.265361 295.315338 
L 235.331631 295.401161 
L 235.928057 295.364635 
L 237.187178 295.422927 
L 237.253448 295.286574 
L 237.319717 295.361863 
L 237.452256 295.292075 
L 237.518526 295.446496 
L 237.584795 295.265823 
L 237.651065 295.341666 
L 238.048682 295.386152 
L 238.114952 295.276562 
L 238.181221 295.380176 
L 238.38003 295.436548 
L 238.4463 295.316415 
L 238.512569 295.363588 
L 238.578839 295.45097 
L 238.645108 295.366907 
L 238.711378 295.428302 
L 238.843917 295.307352 
L 238.910186 295.461182 
L 238.976456 295.371972 
L 239.042726 295.463335 
L 239.175265 295.344442 
L 239.241534 295.424861 
L 239.307804 295.314949 
L 239.374073 295.4305 
L 239.440343 295.360882 
L 239.506612 295.335036 
L 239.572882 295.43293 
L 239.639152 295.272868 
L 239.705421 295.361575 
L 239.90423 295.409871 
L 240.036769 295.335332 
L 240.235578 295.440859 
L 240.368117 295.286673 
L 240.566925 295.412595 
L 240.699464 295.365265 
L 240.832004 295.416848 
L 241.560969 295.306953 
L 241.693508 295.378182 
L 241.892316 295.321971 
L 242.024856 295.393813 
L 242.223664 295.308416 
L 242.422473 295.373001 
L 242.621282 295.384464 
L 242.82009 295.354429 
L 244.079212 295.297444 
L 244.211751 295.301375 
L 244.34429 295.284265 
L 244.543099 295.331804 
L 245.006985 295.367603 
L 245.669681 295.380235 
L 245.80222 295.313623 
L 246.001029 295.428336 
L 246.199837 295.372756 
L 246.332377 295.445075 
L 246.531185 295.363111 
L 246.729994 295.391141 
L 248.386733 295.381591 
L 248.519272 295.355758 
L 248.651811 295.295728 
L 248.85062 295.377922 
L 248.983159 295.249717 
L 249.181967 295.409559 
L 249.314506 295.305277 
L 249.447046 295.457412 
L 249.513315 295.382596 
L 249.712124 295.347987 
L 249.844663 295.35842 
L 249.977202 295.329617 
L 250.109741 295.382664 
L 250.24228 295.270237 
L 250.441089 295.391287 
L 250.573628 295.244758 
L 250.772437 295.395072 
L 250.904976 295.187746 
L 251.103784 295.426466 
L 251.170054 295.275437 
L 251.302593 295.218201 
L 251.435132 295.419433 
L 251.567671 295.145931 
L 251.633941 295.184839 
L 251.76648 295.441243 
L 251.965289 295.193769 
L 252.097828 295.484744 
L 252.164097 295.329047 
L 252.296636 295.219186 
L 252.495445 295.369896 
L 252.627984 295.262646 
L 252.826793 295.386831 
L 253.025602 295.376121 
L 253.158141 295.343464 
L 253.29068 295.355656 
L 253.423219 295.427771 
L 253.555758 295.316535 
L 253.754567 295.387259 
L 253.953375 295.335322 
L 254.350993 295.345812 
L 254.74861 295.344683 
L 255.013688 295.369268 
L 255.411305 295.388008 
L 255.543845 295.379439 
L 255.676384 295.343247 
L 255.808923 295.479329 
L 255.875192 295.395081 
L 256.074001 295.371014 
L 256.20654 295.41706 
L 256.405349 295.373161 
L 257.068044 295.465319 
L 257.266853 295.400547 
L 257.531931 295.396741 
L 257.863279 295.411025 
L 258.459705 295.40331 
L 258.658514 295.440326 
L 259.520018 295.401854 
L 259.652557 295.375708 
L 259.785096 295.317414 
L 259.983905 295.424024 
L 260.381522 295.3503 
L 260.580331 295.382277 
L 260.779139 295.371455 
L 260.911678 295.254532 
L 260.977948 295.400741 
L 261.044218 295.337962 
L 261.176757 295.307858 
L 261.243026 295.281731 
L 261.309296 295.436961 
L 261.375565 295.396875 
L 261.508104 295.326843 
L 261.574374 295.222661 
L 261.706913 295.455362 
L 261.773183 295.407907 
L 261.971991 295.393461 
L 262.10453 295.29913 
L 262.1708 295.392995 
L 262.23707 295.219893 
L 262.303339 295.346119 
L 262.502148 295.403664 
L 262.568417 295.24399 
L 262.634687 295.339009 
L 262.767226 295.120346 
L 262.833496 295.382491 
L 262.899765 295.232541 
L 262.966035 295.235773 
L 263.032304 295.453199 
L 263.098574 295.312605 
L 263.164843 295.362528 
L 263.297382 295.196812 
L 263.363652 295.420363 
L 263.429922 295.217649 
L 263.496191 295.274561 
L 263.562461 295.403007 
L 263.62873 295.333716 
L 263.827539 295.454669 
L 263.960078 295.262889 
L 264.026347 295.467632 
L 264.092617 295.243968 
L 264.158887 295.276114 
L 264.225156 295.462778 
L 264.291426 295.413436 
L 264.357695 295.440781 
L 264.490234 295.250847 
L 264.689043 295.425868 
L 264.887852 295.367993 
L 265.08666 295.408478 
L 265.351739 295.422561 
L 265.948165 295.279239 
L 266.146973 295.416882 
L 266.279512 295.21771 
L 266.345782 295.396613 
L 266.412051 295.309506 
L 266.61086 295.253489 
L 266.743399 295.352096 
L 266.875938 295.321834 
L 267.472364 295.30282 
L 267.538634 295.248504 
L 267.671173 295.331485 
L 268.002521 295.348928 
L 268.13506 295.427894 
L 268.201329 295.217837 
L 268.267599 295.255088 
L 268.333869 295.441399 
L 268.400138 295.277628 
L 268.466408 295.328474 
L 268.598947 295.416471 
L 268.930294 295.271641 
L 268.996564 295.446181 
L 269.062834 295.390657 
L 269.195373 295.43504 
L 269.460451 295.335789 
L 269.52672 295.248913 
L 269.59299 295.338442 
L 269.725529 295.397419 
L 269.858068 295.28385 
L 269.924338 295.399761 
L 269.990607 295.327496 
L 270.123146 295.401033 
L 270.321955 295.340214 
L 270.454494 295.392724 
L 270.520764 295.34673 
L 270.653303 295.457098 
L 271.11719 295.389772 
L 271.183459 295.460885 
L 271.315998 295.223031 
L 271.581077 295.45185 
L 271.713616 295.366493 
L 271.846155 295.313974 
L 271.912424 295.487354 
L 271.978694 295.432263 
L 272.044964 295.441838 
L 272.177503 295.239262 
L 272.310042 295.413163 
L 272.50885 295.324349 
L 273.171546 295.396306 
L 273.304085 295.204631 
L 273.370355 295.4027 
L 273.436624 295.310765 
L 273.569163 295.314427 
L 273.635433 295.203121 
L 273.767972 295.413238 
L 273.900511 295.30521 
L 274.03305 295.434252 
L 274.09932 295.194176 
L 274.165589 295.432445 
L 274.231859 295.192733 
L 274.298128 295.428902 
L 274.364398 295.262552 
L 274.496937 295.374612 
L 274.563207 295.143004 
L 274.629476 295.283703 
L 275.027093 295.262035 
L 275.093363 295.471366 
L 275.159633 295.254337 
L 275.225902 295.303231 
L 275.358441 295.18888 
L 275.424711 295.380859 
L 275.623519 295.025419 
L 275.756059 295.310181 
L 275.822328 295.057475 
L 275.888598 295.290194 
L 275.954867 295.2423 
L 276.087406 295.256735 
L 276.153676 295.197528 
L 276.219945 295.317582 
L 276.286215 295.275403 
L 276.352485 295.309084 
L 276.485024 295.237089 
L 276.617563 295.408714 
L 276.816371 295.159658 
L 276.882641 295.3469 
L 276.948911 295.273243 
L 277.213989 295.33436 
L 277.280258 294.95657 
L 277.412797 295.308952 
L 277.479067 295.217227 
L 277.545337 295.398569 
L 277.611606 295.177222 
L 277.677876 295.353322 
L 277.744145 295.184888 
L 277.810415 295.267043 
L 277.876684 295.313362 
L 277.942954 295.139826 
L 278.009223 295.393225 
L 278.075493 295.121603 
L 278.141763 295.358989 
L 278.208032 295.176141 
L 278.274302 295.251316 
L 278.53938 295.197679 
L 278.605649 295.273575 
L 278.671919 295.184304 
L 278.738188 295.069426 
L 278.870728 295.338945 
L 279.003267 295.190685 
L 279.069536 295.307056 
L 279.135806 295.111984 
L 279.202075 295.387795 
L 279.268345 294.959212 
L 279.334614 295.078858 
L 279.533423 295.291005 
L 279.599693 294.966094 
L 279.665962 295.230362 
L 279.732232 295.199313 
L 279.864771 295.192898 
L 279.99731 295.060433 
L 280.196119 295.332343 
L 280.394927 294.85951 
L 280.461197 294.970213 
L 280.527466 295.418886 
L 280.660006 294.895931 
L 280.726275 294.916412 
L 280.858814 295.312438 
L 280.925084 294.781097 
L 280.991353 294.821146 
L 281.057623 294.757589 
L 281.190162 295.394612 
L 281.388971 294.778485 
L 281.52151 295.391984 
L 281.587779 295.306005 
L 281.654049 294.972199 
L 281.720318 295.005707 
L 281.786588 295.010146 
L 281.919127 295.371811 
L 281.985397 295.294167 
L 282.117936 295.01449 
L 282.316744 295.293512 
L 282.383014 295.070231 
L 282.449284 295.216893 
L 282.581823 295.0185 
L 282.648092 295.404381 
L 282.714362 295.331757 
L 282.91317 295.420661 
L 282.97944 295.278439 
L 283.111979 295.475078 
L 283.178249 295.360633 
L 283.244518 295.438368 
L 283.377057 295.24048 
L 283.575866 294.973666 
L 283.642136 294.992413 
L 283.708405 295.422196 
L 283.774675 295.171558 
L 283.840944 295.023123 
L 283.907214 295.301169 
L 283.973483 295.168541 
L 284.039753 295.251314 
L 284.106022 295.154298 
L 284.172292 294.834553 
L 284.238561 294.958583 
L 284.43737 295.356505 
L 284.569909 295.23074 
L 284.636179 295.345544 
L 284.768718 295.092179 
L 285.033796 295.449515 
L 285.232605 295.01325 
L 285.298874 294.913923 
L 285.365144 294.993335 
L 285.431413 295.364281 
L 285.497683 294.982464 
L 285.563953 295.085761 
L 285.630222 295.125921 
L 285.762761 295.068331 
L 285.8953 295.278595 
L 286.027839 294.833364 
L 286.226648 295.27671 
L 286.292918 295.25339 
L 286.359187 294.770442 
L 286.425457 295.271908 
L 286.491726 295.240487 
L 286.557996 295.081251 
L 286.624265 295.400814 
L 286.823074 294.821082 
L 286.889344 294.68283 
L 287.088152 295.353899 
L 287.154422 295.471695 
L 287.220691 294.767685 
L 287.286961 295.2054 
L 287.353231 295.006233 
L 287.4195 295.09709 
L 287.48577 295.077517 
L 287.552039 294.465942 
L 287.684578 295.291949 
L 287.817117 294.69812 
L 287.949657 295.347959 
L 288.082196 295.097188 
L 288.148465 295.389236 
L 288.347274 294.978946 
L 288.413543 295.429067 
L 288.479813 295.31669 
L 288.546083 295.335781 
L 288.678622 294.78483 
L 288.744891 295.286886 
L 288.811161 295.171889 
L 288.87743 295.274013 
L 289.009969 294.933311 
L 289.076239 295.182451 
L 289.142508 294.888454 
L 289.208778 295.090058 
L 289.275048 295.221968 
L 289.341317 294.751676 
L 289.473856 295.339525 
L 289.540126 294.830528 
L 289.606395 295.394283 
L 289.672665 294.977683 
L 289.738934 295.168261 
L 289.937743 294.985017 
L 290.004013 295.319399 
L 290.070282 295.220064 
L 290.136552 294.771118 
L 290.269091 295.091549 
L 290.33536 295.116283 
L 290.40163 294.915821 
L 290.4679 295.029304 
L 290.534169 295.382767 
L 290.600439 294.351813 
L 290.666708 295.014425 
L 290.732978 295.347222 
L 290.931786 294.464903 
L 291.064326 294.939239 
L 291.130595 294.953777 
L 291.196865 295.111197 
L 291.263134 294.68497 
L 291.329404 294.836858 
L 291.395673 294.707263 
L 291.461943 295.190768 
L 291.528212 294.997136 
L 291.594482 294.54777 
L 291.793291 295.283534 
L 291.85956 293.932302 
L 291.92583 294.983655 
L 291.992099 294.823678 
L 292.190908 294.189021 
L 292.257178 294.727964 
L 292.323447 294.342108 
L 292.389717 294.622175 
L 292.455986 294.04523 
L 292.588525 295.001346 
L 292.654795 293.994447 
L 292.721064 294.899943 
L 292.787334 294.13989 
L 292.853604 294.371018 
L 293.052412 294.862755 
L 293.31749 293.924133 
L 293.45003 294.50856 
L 293.516299 294.212903 
L 293.582569 294.634238 
L 293.648838 294.051107 
L 293.715108 294.279861 
L 293.781377 294.296769 
L 293.980186 294.968589 
L 294.046455 294.337003 
L 294.112725 294.662412 
L 294.178995 294.202862 
L 294.245264 295.00701 
L 294.311534 293.853282 
L 294.377803 294.806401 
L 294.444073 293.577429 
L 294.510342 294.885404 
L 294.576612 294.525941 
L 294.642881 294.528857 
L 294.775421 294.250744 
L 294.84169 294.613932 
L 294.90796 294.503884 
L 294.974229 294.620648 
L 295.040499 295.1501 
L 295.173038 294.261059 
L 295.305577 295.115994 
L 295.438116 295.049808 
L 295.504386 294.348251 
L 295.570655 294.914579 
L 295.636925 294.484485 
L 295.703194 294.588113 
L 295.769464 294.766131 
L 295.835733 293.904515 
L 295.902003 294.926676 
L 295.968273 294.299463 
L 296.034542 295.078303 
L 296.100812 294.910194 
L 296.167081 294.46002 
L 296.36589 295.288211 
L 296.432159 294.337702 
L 296.498429 295.336635 
L 296.564699 294.808376 
L 296.630968 294.515287 
L 296.697238 294.650026 
L 296.763507 294.942177 
L 296.829777 294.364486 
L 296.896046 295.092139 
L 296.962316 294.726599 
L 297.028585 294.682206 
L 297.227394 294.831297 
L 297.293664 295.391887 
L 297.359933 294.532966 
L 297.426203 295.065005 
L 297.492472 295.010009 
L 297.558742 294.126295 
L 297.625011 294.702426 
L 297.691281 295.30129 
L 297.89009 294.3629 
L 297.956359 294.525439 
L 298.022629 295.003581 
L 298.088898 294.992597 
L 298.155168 293.985882 
L 298.221437 294.105381 
L 298.287707 295.168802 
L 298.353977 295.02481 
L 298.420246 294.989947 
L 298.486516 295.196181 
L 298.552785 295.090055 
L 298.619055 295.110963 
L 298.685324 294.851132 
L 298.751594 295.002541 
L 298.884133 294.892073 
L 298.950402 294.977385 
L 299.016672 294.774074 
L 299.082942 294.837712 
L 299.149211 295.249309 
L 299.215481 294.212392 
L 299.28175 294.918418 
L 299.34802 294.85258 
L 299.414289 294.478533 
L 299.480559 295.090633 
L 299.546828 294.740278 
L 299.613098 294.976628 
L 299.811907 294.446362 
L 299.878176 295.258713 
L 300.076985 294.192272 
L 300.143254 294.336578 
L 300.209524 295.142847 
L 300.275794 294.564897 
L 300.408333 294.985943 
L 300.474602 294.959031 
L 300.673411 294.015051 
L 300.938489 295.471198 
L 301.004759 295.324626 
L 301.071028 294.002378 
L 301.137298 294.289998 
L 301.203567 295.221545 
L 301.336106 294.175464 
L 301.402376 294.852619 
L 301.534915 293.939085 
L 301.601185 294.66779 
L 301.667454 294.247339 
L 301.866263 295.033518 
L 301.932532 294.89507 
L 301.998802 293.726117 
L 302.065072 294.427471 
L 302.197611 294.756106 
L 302.396419 293.619859 
L 302.528958 294.742972 
L 302.595228 294.182425 
L 302.661498 295.035819 
L 302.727767 293.555981 
L 302.794037 294.141216 
L 302.860306 294.108245 
L 302.926576 294.961043 
L 302.992845 294.38063 
L 303.059115 294.520039 
L 303.125384 294.364778 
L 303.191654 295.127084 
L 303.257924 295.04536 
L 303.324193 295.20344 
L 303.456732 293.878502 
L 303.589271 294.753947 
L 303.655541 294.672036 
L 303.72181 293.910603 
L 303.78808 294.095818 
L 303.920619 294.753155 
L 303.986889 294.366683 
L 304.053158 294.435217 
L 304.119428 294.913115 
L 304.251967 294.514137 
L 304.384506 294.931579 
L 304.450775 294.769847 
L 304.583315 295.206027 
L 304.715854 293.982259 
L 304.782123 294.030002 
L 304.980932 294.402472 
L 305.113471 291.226416 
L 305.179741 292.357014 
L 305.31228 293.760672 
L 305.511088 286.532363 
L 305.643627 291.707445 
L 305.709897 290.323713 
L 305.842436 276.020151 
L 306.041245 292.115152 
L 306.173784 263.073666 
L 306.240053 265.183582 
L 306.372593 284.098454 
L 306.438862 280.969698 
L 306.505132 246.975925 
L 306.571401 257.134314 
L 306.70394 284.385269 
L 306.77021 281.910694 
L 306.902749 253.644209 
L 307.035288 287.014186 
L 307.101558 287.681731 
L 307.167827 236.592573 
L 307.234097 250.616671 
L 307.366636 285.9387 
L 307.432905 275.994772 
L 307.565445 258.780608 
L 307.631714 208.975027 
L 307.764253 274.080445 
L 307.830523 229.314132 
L 307.896792 267.580499 
L 307.963062 258.866425 
L 308.029331 245.464945 
L 308.095601 285.367941 
L 308.161871 278.718157 
L 308.22814 235.624105 
L 308.29441 254.033167 
L 308.360679 242.945022 
L 308.426949 283.507539 
L 308.493218 280.915092 
L 308.559488 253.001736 
L 308.625757 261.858304 
L 308.692027 254.411754 
L 308.890836 289.046858 
L 308.957105 239.813338 
L 309.023375 243.422908 
L 309.089644 293.25153 
L 309.155914 288.647851 
L 309.222183 289.140855 
L 309.354722 242.191415 
L 309.553531 287.497824 
L 309.619801 282.637976 
L 309.68607 259.365196 
L 309.75234 267.151594 
L 309.951148 291.231573 
L 310.083688 273.962632 
L 310.282496 290.992834 
L 310.348766 290.59386 
L 310.415035 282.796479 
L 310.481305 284.158214 
L 310.680114 293.696073 
L 310.812653 289.903844 
L 311.011461 293.757986 
L 311.144 292.129951 
L 311.409079 293.629162 
L 311.475348 292.677573 
L 311.541618 293.320339 
L 311.607887 294.56122 
L 311.740426 293.262597 
L 311.872966 293.792949 
L 311.939235 293.674715 
L 312.005505 294.24257 
L 312.071774 293.619352 
L 312.138044 293.81024 
L 312.204313 293.938961 
L 312.336852 295.05974 
L 312.403122 294.65607 
L 312.469392 294.804629 
L 312.535661 294.719663 
L 312.601931 294.826802 
L 312.6682 294.237765 
L 312.73447 294.819863 
L 312.800739 293.385922 
L 312.867009 294.052546 
L 313.065818 294.663727 
L 313.132087 295.045004 
L 313.264626 294.117463 
L 313.330896 294.904516 
L 313.397165 294.679592 
L 313.529704 295.414559 
L 313.595974 294.027643 
L 313.662244 294.662851 
L 313.728513 294.761285 
L 313.861052 294.012373 
L 313.927322 294.813456 
L 313.993591 294.651055 
L 314.059861 294.558716 
L 314.1924 294.73587 
L 314.391209 294.749976 
L 314.457478 295.211109 
L 314.523748 294.96047 
L 314.590017 294.176609 
L 314.656287 294.493872 
L 314.722556 294.89888 
L 314.788826 294.024087 
L 314.987635 294.979478 
L 315.053904 294.969344 
L 315.120174 294.322467 
L 315.186443 294.688728 
L 315.252713 295.305021 
L 315.318982 295.132685 
L 315.385252 294.45726 
L 315.451521 294.549497 
L 315.517791 294.411906 
L 315.7166 295.259747 
L 315.849139 294.63043 
L 315.981678 295.086257 
L 316.180487 294.382883 
L 316.246756 295.456582 
L 316.313026 294.939179 
L 316.445565 294.92343 
L 316.511834 295.304577 
L 316.578104 294.992546 
L 316.644373 295.144462 
L 316.843182 294.875584 
L 316.909452 295.414192 
L 317.10826 294.221982 
L 317.240799 295.258513 
L 317.373339 294.819678 
L 317.505878 295.261211 
L 317.572147 294.774834 
L 317.638417 294.868269 
L 317.704686 294.987803 
L 317.770956 295.468295 
L 317.837225 295.13786 
L 317.903495 294.759108 
L 317.969765 295.109122 
L 318.036034 294.501316 
L 318.102304 294.893432 
L 318.168573 295.130757 
L 318.234843 295.063016 
L 318.301112 295.15325 
L 318.367382 295.0414 
L 318.433651 294.660957 
L 318.499921 294.68335 
L 318.566191 294.663788 
L 318.69873 295.124667 
L 318.897538 294.634257 
L 318.963808 294.628809 
L 319.096347 295.355269 
L 319.162616 294.943184 
L 319.228886 294.900501 
L 319.295156 295.232594 
L 319.361425 295.088598 
L 319.493964 294.594017 
L 319.626503 295.297056 
L 319.692773 294.706668 
L 319.759042 295.386329 
L 319.825312 295.087552 
L 319.891582 295.306082 
L 319.957851 295.119533 
L 320.024121 295.3659 
L 320.15666 294.677196 
L 320.222929 295.345473 
L 320.289199 294.887999 
L 320.355468 295.409956 
L 320.421738 295.071128 
L 320.554277 294.761092 
L 320.620547 295.33579 
L 320.686816 295.187549 
L 320.753086 295.381148 
L 320.819355 295.354729 
L 320.885625 295.105348 
L 320.951894 295.253933 
L 321.084434 295.024762 
L 321.150703 295.395496 
L 321.216973 294.828681 
L 321.283242 295.187054 
L 321.482051 295.023129 
L 321.54832 295.162624 
L 321.61459 295.12294 
L 321.68086 294.996988 
L 321.879668 295.27718 
L 321.945938 294.751466 
L 322.012207 294.917417 
L 322.078477 294.867078 
L 322.144746 295.316717 
L 322.211016 295.143956 
L 322.343555 294.861534 
L 322.409825 295.410969 
L 322.476094 295.200377 
L 322.608633 295.359098 
L 322.741172 294.950639 
L 322.873712 295.347486 
L 322.939981 295.114143 
L 323.006251 295.190831 
L 323.07252 295.128244 
L 323.13879 295.386654 
L 323.205059 295.35215 
L 323.337598 295.029335 
L 323.403868 295.310761 
L 323.470138 295.125432 
L 323.536407 295.002039 
L 323.602677 295.331761 
L 323.735216 294.852151 
L 323.934024 295.292146 
L 324.000294 294.949399 
L 324.066563 295.368693 
L 324.132833 295.125861 
L 324.199103 294.819522 
L 324.265372 294.988779 
L 324.331642 295.258007 
L 324.397911 294.793908 
L 324.464181 294.971328 
L 324.53045 295.158341 
L 324.59672 295.082036 
L 324.729259 295.159848 
L 324.861798 294.575001 
L 324.994337 295.161047 
L 325.060607 295.055232 
L 325.126876 295.206385 
L 325.325685 294.376426 
L 325.458224 295.390646 
L 325.524494 294.781939 
L 325.590763 295.028484 
L 325.657033 294.997318 
L 325.723302 295.147614 
L 325.789572 294.735634 
L 325.922111 295.314692 
L 325.988381 295.127933 
L 326.12092 295.368797 
L 326.253459 294.830661 
L 326.319728 294.906439 
L 326.385998 295.033856 
L 326.452267 294.436778 
L 326.518537 295.143391 
L 326.584807 294.917314 
L 326.717346 295.33389 
L 326.916154 294.864221 
L 326.982424 295.303405 
L 327.048693 294.968223 
L 327.114963 295.273806 
L 327.181233 294.849768 
L 327.247502 295.341038 
L 327.313772 295.185336 
L 327.380041 295.358686 
L 327.446311 295.327567 
L 327.51258 294.834553 
L 327.57885 294.952943 
L 327.645119 295.298782 
L 327.711389 294.822732 
L 327.843928 295.443089 
L 327.910198 295.298548 
L 327.976467 295.224416 
L 328.042737 294.914348 
L 328.109006 295.264636 
L 328.175276 295.195622 
L 328.241545 295.081008 
L 328.307815 295.184743 
L 328.506624 295.197179 
L 328.572893 295.427511 
L 328.639163 295.383268 
L 328.837971 295.241419 
L 328.904241 295.155841 
L 329.10305 295.347437 
L 329.169319 295.305807 
L 329.235589 295.421781 
L 329.434397 295.155216 
L 329.566936 294.939868 
L 329.633206 295.233716 
L 329.699476 295.210707 
L 329.765745 295.221859 
L 329.832015 294.841923 
L 329.898284 295.075949 
L 329.964554 295.404976 
L 330.097093 295.110697 
L 330.295902 295.417904 
L 330.362171 295.160993 
L 330.56098 295.480279 
L 330.759788 295.205945 
L 330.892328 295.431919 
L 330.958597 295.059288 
L 331.024867 295.143029 
L 331.091136 295.41979 
L 331.289945 294.880199 
L 331.356214 295.309909 
L 331.422484 295.113079 
L 331.621293 295.258507 
L 331.687562 295.121129 
L 331.753832 295.434331 
L 331.820101 294.927816 
L 331.886371 295.163024 
L 332.01891 295.067449 
L 332.08518 295.268407 
L 332.151449 295.012785 
L 332.217719 295.165576 
L 332.416527 295.404789 
L 332.482797 294.875123 
L 332.549066 295.01834 
L 332.615336 295.296304 
L 332.681606 295.132181 
L 332.747875 295.30633 
L 332.814145 295.030759 
L 332.880414 295.291652 
L 332.946684 295.174828 
L 333.079223 294.894451 
L 333.145492 295.331879 
L 333.211762 295.045591 
L 333.278032 295.366484 
L 333.344301 295.127934 
L 333.410571 295.295408 
L 333.47684 295.200977 
L 333.54311 295.28255 
L 333.609379 295.36637 
L 333.741918 295.050245 
L 333.874457 295.368895 
L 334.073266 295.018104 
L 334.205805 295.389234 
L 334.404614 295.194151 
L 334.470883 295.337158 
L 334.537153 295.230874 
L 334.735962 295.124751 
L 334.802231 295.401811 
L 334.93477 295.083763 
L 335.067309 295.321473 
L 335.133579 295.083695 
L 335.199849 295.190181 
L 335.266118 295.203122 
L 335.332388 295.348943 
L 335.531196 295.060886 
L 335.730005 295.425684 
L 335.862544 295.238435 
L 335.995083 295.43452 
L 336.061353 295.381972 
L 336.193892 295.155107 
L 336.392701 295.388024 
L 336.45897 295.286682 
L 336.52524 295.389741 
L 336.591509 295.238346 
L 336.657779 295.363625 
L 336.724048 295.431656 
L 336.790318 295.246172 
L 336.856587 295.363774 
L 336.922857 295.225241 
L 336.989127 295.329907 
L 337.055396 295.218447 
L 337.121666 295.275433 
L 337.187935 295.372888 
L 337.254205 295.276183 
L 337.386744 295.299681 
L 337.519283 295.362898 
L 337.718092 295.084439 
L 337.850631 295.417718 
L 338.049439 295.166999 
L 338.181979 295.144829 
L 338.248248 295.391552 
L 338.314518 295.34807 
L 338.380787 295.092094 
L 338.447057 295.11196 
L 338.645865 295.311453 
L 338.778404 295.189677 
L 339.838717 295.42782 
L 339.904987 295.268963 
L 339.971256 295.318145 
L 340.037526 295.274144 
L 340.103796 295.434443 
L 340.170065 295.405972 
L 340.236335 295.035564 
L 340.302604 295.08256 
L 340.435143 295.407942 
L 340.700222 295.105888 
L 340.832761 295.323945 
L 340.9653 295.148071 
L 341.097839 295.456513 
L 341.230378 295.329729 
L 341.296648 295.368357 
L 341.429187 295.215331 
L 341.495456 295.354302 
L 341.561726 295.222664 
L 341.627995 295.273038 
L 342.025613 295.29286 
L 342.091882 295.359339 
L 342.158152 295.150812 
L 342.224421 295.293215 
L 342.290691 295.172464 
L 342.35696 295.212501 
L 342.555769 295.478551 
L 342.622039 295.204406 
L 342.754578 295.464465 
L 342.820847 295.02419 
L 342.887117 295.180221 
L 343.019656 295.333566 
L 343.085926 295.139012 
L 343.152195 295.448454 
L 343.218465 295.389047 
L 343.284734 295.153551 
L 343.351004 295.219489 
L 343.483543 295.292993 
L 343.549812 295.119845 
L 343.616082 295.446623 
L 343.682352 295.373505 
L 343.748621 295.07161 
L 343.814891 295.193113 
L 343.88116 295.437397 
L 343.94743 295.261643 
L 344.013699 295.138842 
L 344.079969 295.396378 
L 344.146238 295.324558 
L 344.212508 295.257567 
L 344.278777 295.400467 
L 344.345047 295.308829 
L 344.477586 295.154636 
L 344.543856 295.385071 
L 344.676395 295.16634 
L 344.742664 295.387011 
L 344.808934 295.314177 
L 344.941473 295.17063 
L 345.007743 295.297775 
L 345.074012 295.145572 
L 345.140282 295.191636 
L 345.33909 295.32234 
L 345.471629 295.329586 
L 345.604169 295.198008 
L 345.670438 295.314315 
L 345.736708 295.138595 
L 345.802977 295.26445 
L 345.869247 295.430009 
L 345.935516 295.361086 
L 346.399403 295.294691 
L 346.598212 295.370603 
L 346.664481 295.270994 
L 346.730751 295.325627 
L 346.797021 295.425062 
L 346.86329 295.259352 
L 346.92956 295.365417 
L 347.062099 295.39246 
L 347.194638 295.221755 
L 347.459716 295.454866 
L 347.525986 295.337888 
L 347.592255 295.385241 
L 347.857333 295.271784 
L 348.122412 295.454703 
L 348.520029 295.288391 
L 348.586299 295.436736 
L 348.652568 295.394184 
L 348.917646 295.336557 
L 348.983916 295.247622 
L 349.050185 295.304886 
L 349.315264 295.378807 
L 349.381533 295.462943 
L 349.447803 295.38771 
L 349.646611 295.304096 
L 350.176768 295.429458 
L 350.309307 295.346307 
L 350.508116 295.399817 
L 351.568428 295.431611 
L 351.966046 295.469799 
L 352.231124 295.330972 
L 352.297394 295.340384 
L 352.363663 295.470837 
L 352.429933 295.401454 
L 352.496202 295.452808 
L 352.562472 295.336798 
L 352.628741 295.390671 
L 352.82755 295.429124 
L 352.960089 295.370673 
L 353.026359 295.476562 
L 353.092628 295.407932 
L 353.225167 295.399373 
L 353.556515 295.426496 
L 354.086671 295.378916 
L 354.28548 295.427818 
L 354.550558 295.357244 
L 354.815637 295.476736 
L 354.948176 295.334265 
L 355.146984 295.449048 
L 355.345793 295.387078 
L 355.544602 295.387217 
L 355.80968 295.38537 
L 356.008489 295.47323 
L 356.141028 295.331213 
L 356.207297 295.436503 
L 356.273567 295.344254 
L 356.406106 295.381242 
L 356.472375 295.26801 
L 356.538645 295.429808 
L 356.604915 295.335873 
L 356.737454 295.377906 
L 356.803723 295.238977 
L 357.002532 295.377087 
L 357.201341 295.443254 
L 357.33388 295.389181 
L 357.400149 295.464463 
L 357.466419 295.404971 
L 357.731497 295.465488 
L 357.864036 295.391148 
L 358.062845 295.469889 
L 358.195384 295.352042 
L 358.460462 295.413963 
L 358.593001 295.400771 
L 358.858079 295.415927 
L 359.123158 295.417949 
L 359.388236 295.392038 
L 359.520775 295.386643 
L 359.918392 295.447114 
L 360.117201 295.246479 
L 360.24974 295.357345 
L 360.514818 295.305916 
L 360.846166 295.280319 
L 361.77394 295.330947 
L 361.906479 295.311441 
L 362.039018 295.350981 
L 362.237827 295.248416 
L 362.370366 295.3483 
L 362.569174 295.282065 
L 362.767983 295.370439 
L 363.033061 295.359761 
L 363.23187 295.351566 
L 363.496948 295.293869 
L 363.960835 295.091389 
L 364.093374 295.046531 
L 364.225913 295.181855 
L 364.424722 295.004919 
L 364.623531 295.059174 
L 364.75607 295.094691 
L 364.888609 295.152871 
L 365.021148 295.112341 
L 365.219957 295.239222 
L 365.485035 295.305472 
L 366.015191 295.344388 
L 366.214 295.305769 
L 366.346539 295.312627 
L 366.545348 295.289333 
L 366.677887 295.342745 
L 366.876695 295.280049 
L 367.009235 295.351186 
L 367.141774 295.189728 
L 367.208043 295.256395 
L 367.340582 295.351815 
L 367.473121 295.167828 
L 367.67193 295.411008 
L 367.804469 295.300791 
L 368.003278 295.462303 
L 368.135817 295.327177 
L 368.268356 295.420245 
L 368.467165 295.406251 
L 368.931052 295.414778 
L 369.063591 295.350886 
L 369.328669 295.288995 
L 369.461208 295.324145 
L 369.593747 295.402475 
L 369.792556 295.256514 
L 369.925095 295.440896 
L 370.057634 295.302871 
L 370.985408 295.448546 
L 371.250486 295.391112 
L 371.449295 295.482205 
L 371.581834 295.372226 
L 372.310799 295.412851 
L 372.708416 295.399943 
L 372.973494 295.374381 
L 373.106034 295.33375 
L 373.238573 295.377388 
L 373.437381 295.349014 
L 373.56992 295.360034 
L 373.70246 295.295719 
L 374.232616 295.338082 
L 374.829042 295.340674 
L 375.027851 295.384891 
L 375.226659 295.317116 
L 375.425468 295.321216 
L 375.955624 295.361024 
L 376.286972 295.415272 
L 377.347285 295.305459 
L 377.479824 295.354708 
L 377.678633 295.157302 
L 377.943711 295.269279 
L 378.14252 295.297671 
L 378.275059 295.204303 
L 378.738946 295.242554 
L 379.335372 295.279653 
L 379.401641 295.190075 
L 379.60045 295.332876 
L 379.799258 295.406138 
L 379.998067 295.419435 
L 380.064337 295.310458 
L 380.130606 295.37003 
L 380.461954 295.447851 
L 380.594493 295.302614 
L 380.660763 295.451467 
L 380.727032 295.388587 
L 381.853615 295.352133 
L 381.919884 295.482127 
L 381.986154 295.395228 
L 382.118693 295.445342 
L 382.317502 295.398465 
L 382.383771 295.467698 
L 382.51631 295.281654 
L 382.781388 295.456569 
L 383.179006 295.325775 
L 383.377814 295.402364 
L 383.642893 295.220763 
L 383.775432 295.377619 
L 383.97424 295.325949 
L 384.438127 295.30779 
L 384.570666 295.2557 
L 384.703205 295.336683 
L 384.769475 295.287318 
L 384.902014 295.38632 
L 384.968284 295.252813 
L 385.034553 295.319711 
L 385.233362 295.158004 
L 385.299631 295.352264 
L 385.365901 295.304018 
L 385.432171 295.187557 
L 385.49844 295.354003 
L 385.56471 295.327383 
L 385.763518 295.22187 
L 386.028597 295.313663 
L 386.094866 295.245498 
L 386.161136 295.34729 
L 386.293675 295.186303 
L 386.492483 295.359868 
L 386.625023 295.259951 
L 386.823831 295.358185 
L 386.890101 295.274207 
L 386.95637 295.331997 
L 387.088909 295.328256 
L 387.420257 295.296641 
L 387.619066 295.422882 
L 387.751605 295.211994 
L 387.950414 295.371455 
L 388.016683 295.236939 
L 388.082953 295.340324 
L 388.149222 295.419376 
L 388.215492 295.301009 
L 388.281761 295.372555 
L 388.414301 295.332087 
L 390.00477 295.239733 
L 390.203578 295.279113 
L 390.269848 295.322788 
L 390.402387 295.163025 
L 390.468657 295.320882 
L 390.534926 295.285561 
L 390.932544 295.241592 
L 391.131352 295.3102 
L 391.4627 295.348283 
L 391.727778 295.442213 
L 391.926587 295.35522 
L 392.324204 295.350958 
L 392.589282 295.318161 
L 392.788091 295.438416 
L 393.185708 295.359883 
L 393.251978 295.436118 
L 393.318248 295.328631 
L 393.384517 295.386683 
L 393.450787 295.43883 
L 393.583326 295.30953 
L 393.914673 295.455514 
L 393.980943 295.302297 
L 394.047213 295.35601 
L 394.842447 295.315713 
L 394.908717 295.447145 
L 394.974986 295.25857 
L 395.041256 295.384808 
L 395.107525 295.225348 
L 395.173795 295.410495 
L 395.240065 295.215639 
L 395.306334 295.287474 
L 395.438873 295.325067 
L 395.571412 295.187644 
L 395.703951 295.28691 
L 395.770221 295.160435 
L 395.836491 295.347426 
L 395.90276 295.195441 
L 395.96903 295.354466 
L 396.035299 295.246048 
L 396.101569 295.188181 
L 396.167838 295.265122 
L 396.366647 295.292588 
L 396.499186 295.136308 
L 396.631725 295.23702 
L 396.764264 295.110277 
L 396.830534 295.314507 
L 396.896803 295.208281 
L 397.228151 295.154865 
L 397.294421 295.212874 
L 397.42696 294.832952 
L 397.625769 295.289462 
L 397.758308 294.793387 
L 397.824577 294.806553 
L 397.890847 295.209531 
L 397.957116 294.965419 
L 398.023386 294.871036 
L 398.089655 294.560602 
L 398.155925 294.629428 
L 398.288464 295.129124 
L 398.421003 294.345569 
L 398.487273 294.537584 
" clip-path="url(#p9a62d19277)" style="fill: none; stroke: #1f77b4; stroke-width: 1.5; stroke-linecap: square"/>
   </g>
   <g id="patch_3">
    <path d="M 57.6 307.584 
L 57.6 41.472 
" style="fill: none; stroke: #000000; stroke-width: 0.8; stroke-linejoin: miter; stroke-linecap: square"/>
   </g>
   <g id="patch_4">
    <path d="M 414.72 307.584 
L 414.72 41.472 
" style="fill: none; stroke: #000000; stroke-width: 0.8; stroke-linejoin: miter; stroke-linecap: square"/>
   </g>
   <g id="patch_5">
    <path d="M 57.6 307.584 
L 414.72 307.584 
" style="fill: none; stroke: #000000; stroke-width: 0.8; stroke-linejoin: miter; stroke-linecap: square"/>
   </g>
   <g id="patch_6">
    <path d="M 57.6 41.472 
L 414.72 41.472 
" style="fill: none; stroke: #000000; stroke-width: 0.8; stroke-linejoin: miter; stroke-linecap: square"/>
   </g>
   <g id="text_18">
    <text style="font: 12px 'IPAexGothic'; text-anchor: middle" x="236.16" y="35.472" transform="rotate(-0 236.16 35.472)">"043_A6.wav"の振幅スペクトル</text>
   </g>
  </g>
 </g>
 <defs>
  <clipPath id="p9a62d19277">
   <rect x="57.6" y="41.472" width="357.12" height="266.112"/>
  </clipPath>
 </defs>
</svg>
