<?xml version="1.0" encoding="utf-8" standalone="no"?>
<!DOCTYPE svg PUBLIC "-//W3C//DTD SVG 1.1//EN"
  "http://www.w3.org/Graphics/SVG/1.1/DTD/svg11.dtd">
<svg xmlns:xlink="http://www.w3.org/1999/xlink" width="460.8pt" height="345.6pt" viewBox="0 0 460.8 345.6" xmlns="http://www.w3.org/2000/svg" version="1.1">
 <metadata>
  <rdf:RDF xmlns:dc="http://purl.org/dc/elements/1.1/" xmlns:cc="http://creativecommons.org/ns#" xmlns:rdf="http://www.w3.org/1999/02/22-rdf-syntax-ns#">
   <cc:Work>
    <dc:type rdf:resource="http://purl.org/dc/dcmitype/StillImage"/>
    <dc:date>2022-11-28T11:25:49.684773</dc:date>
    <dc:format>image/svg+xml</dc:format>
    <dc:creator>
     <cc:Agent>
      <dc:title>Matplotlib v3.6.2, https://matplotlib.org/</dc:title>
     </cc:Agent>
    </dc:creator>
   </cc:Work>
  </rdf:RDF>
 </metadata>
 <defs>
  <style type="text/css">*{stroke-linejoin: round; stroke-linecap: butt}</style>
 </defs>
 <g id="figure_1">
  <g id="patch_1">
   <path d="M 0 345.6 
L 460.8 345.6 
L 460.8 0 
L 0 0 
z
" style="fill: #ffffff"/>
  </g>
  <g id="axes_1">
   <g id="patch_2">
    <path d="M 57.6 307.584 
L 414.72 307.584 
L 414.72 41.472 
L 57.6 41.472 
z
" style="fill: #ffffff"/>
   </g>
   <g id="matplotlib.axis_1">
    <g id="xtick_1">
     <g id="line2d_1">
      <defs>
       <path id="ma47d1e4a9e" d="M 0 0 
L 0 3.5 
" style="stroke: #000000; stroke-width: 0.8"/>
      </defs>
      <g>
       <use xlink:href="#ma47d1e4a9e" x="73.832727" y="307.584" style="stroke: #000000; stroke-width: 0.8"/>
      </g>
     </g>
     <g id="text_1">
      <text style="font: 10px 'IPAexGothic'; text-anchor: middle" x="73.832727" y="322.074625" transform="rotate(-0 73.832727 322.074625)">0</text>
     </g>
    </g>
    <g id="xtick_2">
     <g id="line2d_2">
      <g>
       <use xlink:href="#ma47d1e4a9e" x="140.102281" y="307.584" style="stroke: #000000; stroke-width: 0.8"/>
      </g>
     </g>
     <g id="text_2">
      <text style="font: 10px 'IPAexGothic'; text-anchor: middle" x="140.102281" y="322.074625" transform="rotate(-0 140.102281 322.074625)">1000</text>
     </g>
    </g>
    <g id="xtick_3">
     <g id="line2d_3">
      <g>
       <use xlink:href="#ma47d1e4a9e" x="206.371835" y="307.584" style="stroke: #000000; stroke-width: 0.8"/>
      </g>
     </g>
     <g id="text_3">
      <text style="font: 10px 'IPAexGothic'; text-anchor: middle" x="206.371835" y="322.074625" transform="rotate(-0 206.371835 322.074625)">2000</text>
     </g>
    </g>
    <g id="xtick_4">
     <g id="line2d_4">
      <g>
       <use xlink:href="#ma47d1e4a9e" x="272.64139" y="307.584" style="stroke: #000000; stroke-width: 0.8"/>
      </g>
     </g>
     <g id="text_4">
      <text style="font: 10px 'IPAexGothic'; text-anchor: middle" x="272.64139" y="322.074625" transform="rotate(-0 272.64139 322.074625)">3000</text>
     </g>
    </g>
    <g id="xtick_5">
     <g id="line2d_5">
      <g>
       <use xlink:href="#ma47d1e4a9e" x="338.910944" y="307.584" style="stroke: #000000; stroke-width: 0.8"/>
      </g>
     </g>
     <g id="text_5">
      <text style="font: 10px 'IPAexGothic'; text-anchor: middle" x="338.910944" y="322.074625" transform="rotate(-0 338.910944 322.074625)">4000</text>
     </g>
    </g>
    <g id="xtick_6">
     <g id="line2d_6">
      <g>
       <use xlink:href="#ma47d1e4a9e" x="405.180498" y="307.584" style="stroke: #000000; stroke-width: 0.8"/>
      </g>
     </g>
     <g id="text_6">
      <text style="font: 10px 'IPAexGothic'; text-anchor: middle" x="405.180498" y="322.074625" transform="rotate(-0 405.180498 322.074625)">5000</text>
     </g>
    </g>
    <g id="text_7">
     <text style="font: 10px 'IPAexGothic'; text-anchor: middle" x="236.16" y="335.924625" transform="rotate(-0 236.16 335.924625)">周波数[Hz]</text>
    </g>
   </g>
   <g id="matplotlib.axis_2">
    <g id="ytick_1">
     <g id="line2d_7">
      <defs>
       <path id="m00f1ee3c80" d="M 0 0 
L -3.5 0 
" style="stroke: #000000; stroke-width: 0.8"/>
      </defs>
      <g>
       <use xlink:href="#m00f1ee3c80" x="57.6" y="295.489667" style="stroke: #000000; stroke-width: 0.8"/>
      </g>
     </g>
     <g id="text_8">
      <text style="font: 10px 'IPAexGothic'; text-anchor: end" x="50.6" y="299.234979" transform="rotate(-0 50.6 299.234979)">0.0</text>
     </g>
    </g>
    <g id="ytick_2">
     <g id="line2d_8">
      <g>
       <use xlink:href="#m00f1ee3c80" x="57.6" y="255.451315" style="stroke: #000000; stroke-width: 0.8"/>
      </g>
     </g>
     <g id="text_9">
      <text style="font: 10px 'IPAexGothic'; text-anchor: end" x="50.6" y="259.196627" transform="rotate(-0 50.6 259.196627)">0.5</text>
     </g>
    </g>
    <g id="ytick_3">
     <g id="line2d_9">
      <g>
       <use xlink:href="#m00f1ee3c80" x="57.6" y="215.412963" style="stroke: #000000; stroke-width: 0.8"/>
      </g>
     </g>
     <g id="text_10">
      <text style="font: 10px 'IPAexGothic'; text-anchor: end" x="50.6" y="219.158275" transform="rotate(-0 50.6 219.158275)">1.0</text>
     </g>
    </g>
    <g id="ytick_4">
     <g id="line2d_10">
      <g>
       <use xlink:href="#m00f1ee3c80" x="57.6" y="175.374611" style="stroke: #000000; stroke-width: 0.8"/>
      </g>
     </g>
     <g id="text_11">
      <text style="font: 10px 'IPAexGothic'; text-anchor: end" x="50.6" y="179.119923" transform="rotate(-0 50.6 179.119923)">1.5</text>
     </g>
    </g>
    <g id="ytick_5">
     <g id="line2d_11">
      <g>
       <use xlink:href="#m00f1ee3c80" x="57.6" y="135.336259" style="stroke: #000000; stroke-width: 0.8"/>
      </g>
     </g>
     <g id="text_12">
      <text style="font: 10px 'IPAexGothic'; text-anchor: end" x="50.6" y="139.081571" transform="rotate(-0 50.6 139.081571)">2.0</text>
     </g>
    </g>
    <g id="ytick_6">
     <g id="line2d_12">
      <g>
       <use xlink:href="#m00f1ee3c80" x="57.6" y="95.297907" style="stroke: #000000; stroke-width: 0.8"/>
      </g>
     </g>
     <g id="text_13">
      <text style="font: 10px 'IPAexGothic'; text-anchor: end" x="50.6" y="99.043219" transform="rotate(-0 50.6 99.043219)">2.5</text>
     </g>
    </g>
    <g id="ytick_7">
     <g id="line2d_13">
      <g>
       <use xlink:href="#m00f1ee3c80" x="57.6" y="55.259555" style="stroke: #000000; stroke-width: 0.8"/>
      </g>
     </g>
     <g id="text_14">
      <text style="font: 10px 'IPAexGothic'; text-anchor: end" x="50.6" y="59.004867" transform="rotate(-0 50.6 59.004867)">3.0</text>
     </g>
    </g>
    <g id="text_15">
     <text style="font: 10px 'IPAexGothic'; text-anchor: middle" x="29.460938" y="174.528" transform="rotate(-90 29.460938 174.528)">振幅</text>
    </g>
    <g id="text_16">
     <text style="font: 10px 'IPAexGothic'; text-anchor: start" x="57.6" y="38.472" transform="rotate(-0 57.6 38.472)">1e7</text>
    </g>
   </g>
   <g id="line2d_14">
    <path d="M 73.832727 285.26673 
L 73.965266 294.429453 
L 74.097805 294.461747 
L 74.429153 295.268782 
L 74.561692 295.246641 
L 74.760501 295.110975 
L 75.158118 295.269956 
L 75.555736 295.314823 
L 75.688275 295.313429 
L 75.887083 295.253221 
L 76.35097 295.244631 
L 76.549779 295.193588 
L 76.814857 295.302973 
L 77.146205 295.257698 
L 79.465639 295.269049 
L 79.730718 295.123403 
L 79.995796 295.178174 
L 80.327144 295.126806 
L 80.459683 295.114185 
L 80.79103 295.20338 
L 80.989839 295.156296 
L 81.851343 295.223929 
L 82.116422 295.046712 
L 82.3815 295.116521 
L 82.580308 294.686794 
L 82.646578 294.499639 
L 82.712848 294.807903 
L 82.779117 294.632107 
L 82.845387 294.416668 
L 82.911656 294.521989 
L 83.176734 294.782773 
L 83.309274 294.159807 
L 83.508082 294.725699 
L 83.640621 294.523664 
L 83.77316 294.807671 
L 83.905699 294.672543 
L 84.237047 294.600688 
L 84.303317 294.311624 
L 84.369586 294.38821 
L 84.502125 294.379075 
L 84.700934 293.989424 
L 84.767204 293.911144 
L 84.833473 294.169683 
L 84.899743 294.123878 
L 85.098551 293.757694 
L 85.231091 293.989657 
L 85.429899 293.80581 
L 85.562438 293.911041 
L 85.694977 293.9061 
L 85.761247 294.066879 
L 85.827517 294.015586 
L 86.092595 293.84502 
L 86.158864 293.916929 
L 86.291403 294.333077 
L 86.357673 294.269532 
L 86.423943 294.31453 
L 86.689021 293.503242 
L 86.82156 293.472159 
L 86.954099 293.45726 
L 87.417986 290.925577 
L 87.484255 291.139428 
L 87.616795 289.580182 
L 87.683064 287.154091 
L 87.749334 289.057359 
L 87.815603 287.150929 
L 87.881873 287.217212 
L 87.948142 288.676599 
L 88.27949 232.854559 
L 88.412029 53.568 
L 88.544568 259.44915 
L 88.677107 274.355517 
L 88.743377 249.477397 
L 88.875916 290.236138 
L 88.942186 291.541988 
L 89.008455 291.172795 
L 89.074725 289.623894 
L 89.140994 290.415508 
L 89.273533 293.209466 
L 89.339803 292.927821 
L 89.472342 293.579385 
L 89.604881 291.37288 
L 89.80369 291.640947 
L 89.936229 291.280647 
L 90.068768 291.889037 
L 90.135038 291.725124 
L 90.400116 293.610658 
L 90.665194 294.225341 
L 90.731464 294.166326 
L 90.864003 293.634443 
L 91.062811 293.981117 
L 91.19535 294.075484 
L 91.26162 293.779797 
L 91.32789 293.866416 
L 91.526698 293.707419 
L 91.659237 293.828911 
L 91.791776 293.743406 
L 91.990585 293.851952 
L 92.388202 294.004679 
L 92.653281 294.24289 
L 92.984628 294.124457 
L 93.050898 294.223252 
L 93.117168 294.138007 
L 93.249707 294.05934 
L 93.448515 293.421716 
L 93.581054 293.622471 
L 93.647324 293.443047 
L 93.846133 292.74159 
L 94.111211 293.819892 
L 94.17748 293.455949 
L 94.24375 293.535551 
L 94.508828 294.204218 
L 94.707637 293.642129 
L 94.972715 294.306636 
L 95.171524 293.964007 
L 95.237793 293.847903 
L 95.370332 294.519563 
L 95.502871 294.442996 
L 95.70168 294.744262 
L 95.966758 294.701856 
L 96.099297 294.970486 
L 96.364376 295.017472 
L 96.430645 295.119978 
L 96.563184 294.855487 
L 96.629454 295.078393 
L 96.695723 295.019861 
L 96.828263 294.890462 
L 96.894532 295.008691 
L 96.960802 294.822918 
L 97.027071 294.907209 
L 97.22588 294.80599 
L 97.490958 294.738827 
L 98.219923 294.502913 
L 98.418732 294.535393 
L 98.68381 294.312583 
L 98.75008 294.491674 
L 98.816349 294.262746 
L 98.948888 294.518288 
L 99.081427 294.447682 
L 99.346506 294.467557 
L 99.545314 294.772094 
L 99.611584 294.787016 
L 99.876662 294.126403 
L 99.942932 294.246701 
L 100.14174 295.10254 
L 100.274279 295.035536 
L 100.340549 294.799896 
L 100.406818 295.174064 
L 100.539358 294.561394 
L 100.605627 294.593596 
L 100.738166 294.323985 
L 100.936975 294.246936 
L 101.202053 294.281119 
L 101.268323 294.374257 
L 101.334592 294.259183 
L 101.400862 294.330501 
L 101.533401 294.600564 
L 101.66594 294.915002 
L 101.864749 293.408875 
L 101.931018 294.155784 
L 102.129827 293.009388 
L 102.262366 285.464769 
L 102.394905 291.350381 
L 102.461175 289.997319 
L 102.527444 282.174921 
L 102.593714 251.09011 
L 102.726253 278.32313 
L 102.792522 272.493961 
L 102.858792 253.314062 
L 102.925062 78.745323 
L 102.991331 195.605319 
L 103.19014 282.874505 
L 103.322679 250.093682 
L 103.521488 291.89969 
L 103.587757 292.594877 
L 103.654027 285.308483 
L 103.720296 288.635671 
L 103.919105 292.184844 
L 103.985374 291.958798 
L 104.184183 294.194069 
L 104.382992 293.598731 
L 104.449261 293.595895 
L 104.64807 292.969294 
L 104.714339 293.224907 
L 104.780609 293.169455 
L 104.846879 293.257784 
L 104.979418 293.733865 
L 105.045687 293.50139 
L 105.111957 292.303012 
L 105.178226 292.826791 
L 105.509574 294.9518 
L 105.575844 294.927103 
L 105.973461 294.785342 
L 106.039731 294.501962 
L 106.106 294.539811 
L 106.17227 294.504801 
L 106.304809 294.073144 
L 106.371078 293.382606 
L 106.437348 293.652626 
L 106.636157 294.21833 
L 106.768696 294.685775 
L 106.834965 294.555803 
L 106.967504 294.674067 
L 107.298852 295.413757 
L 107.365122 295.300026 
L 107.762739 294.781873 
L 107.961548 295.105296 
L 108.094087 295.108478 
L 108.226626 295.10556 
L 108.359165 295.054419 
L 108.889321 294.591105 
L 109.02186 294.225673 
L 109.08813 293.700573 
L 109.1544 294.254159 
L 109.220669 293.80338 
L 109.419478 294.510735 
L 109.485747 294.233421 
L 109.618286 294.616195 
L 109.684556 294.483231 
L 109.750826 294.571406 
L 109.817095 294.900886 
L 109.883365 294.744094 
L 109.949634 294.668409 
L 110.015904 294.89702 
L 110.148443 294.592378 
L 110.214712 294.574703 
L 110.413521 294.794203 
L 110.479791 294.798727 
L 110.744869 295.130603 
L 111.208756 295.100128 
L 111.341295 295.218378 
L 112.732956 295.213213 
L 113.196842 295.046925 
L 113.395651 295.255175 
L 113.461921 295.298592 
L 113.660729 295.125049 
L 113.793268 295.162626 
L 113.992077 295.122022 
L 114.853581 294.718713 
L 115.05239 295.132367 
L 115.251199 295.383604 
L 115.317468 295.235897 
L 115.516277 294.979803 
L 115.715085 294.80402 
L 116.046433 294.860778 
L 116.112703 294.632345 
L 116.178972 294.757591 
L 116.245242 294.664056 
L 116.311511 294.746955 
L 116.377781 294.684397 
L 116.444051 294.795765 
L 116.709129 293.221688 
L 116.775398 289.793044 
L 116.841668 290.113005 
L 116.974207 293.144445 
L 117.040477 291.230023 
L 117.173016 262.667125 
L 117.305555 288.588449 
L 117.371824 287.938341 
L 117.438094 277.326055 
L 117.504363 210.105862 
L 117.636903 288.366328 
L 117.703172 290.034758 
L 117.769442 288.085769 
L 117.835711 266.699748 
L 117.901981 278.566806 
L 118.100789 293.05733 
L 118.233329 285.675273 
L 118.365868 293.235554 
L 118.498407 294.203376 
L 118.564676 293.003707 
L 118.630946 293.387592 
L 118.829754 294.157876 
L 118.896024 294.122199 
L 119.161102 294.75033 
L 119.42618 294.737442 
L 119.624989 295.034246 
L 119.890067 295.06524 
L 119.956337 295.076371 
L 120.022606 295.227827 
L 120.088876 295.163527 
L 120.221415 294.997356 
L 120.287685 295.22589 
L 120.353954 295.166733 
L 120.486493 295.018304 
L 120.685302 295.147299 
L 120.751572 294.930344 
L 120.817841 295.018267 
L 120.95038 294.989812 
L 121.878154 295.334082 
L 122.143232 295.312935 
L 122.47458 295.366609 
L 123.004736 295.398845 
L 123.203545 295.368234 
L 123.799971 295.324274 
L 123.866241 295.128227 
L 123.93251 295.168247 
L 124.131319 295.252978 
L 124.263858 295.155328 
L 124.926553 295.276477 
L 125.191632 295.429622 
L 125.788058 295.428896 
L 125.920597 295.421797 
L 126.384484 295.222627 
L 126.715831 295.196017 
L 126.91464 295.104145 
L 126.98091 295.074428 
L 127.179718 294.814367 
L 127.312257 294.861712 
L 127.378527 294.576259 
L 127.444797 294.679268 
L 127.577336 294.902782 
L 127.643605 294.845836 
L 127.842414 295.095705 
L 128.107492 295.031601 
L 128.240031 295.163781 
L 128.43884 295.152694 
L 128.505109 295.282526 
L 128.571379 295.17998 
L 128.703918 295.139059 
L 128.902727 294.540782 
L 128.968996 294.524154 
L 129.167805 293.479508 
L 129.234074 293.769393 
L 129.366614 293.741233 
L 129.432883 293.584333 
L 129.499153 293.853033 
L 129.565422 293.713968 
L 129.631692 293.722692 
L 129.764231 294.393838 
L 129.8305 294.014146 
L 129.89677 294.106846 
L 130.029309 294.298746 
L 130.161848 293.199914 
L 130.228118 293.434979 
L 130.360657 293.714364 
L 130.426926 293.648543 
L 130.625735 292.821244 
L 130.692005 293.927985 
L 130.758274 293.744624 
L 130.824544 293.992567 
L 130.890813 293.856671 
L 130.957083 293.103326 
L 131.023352 289.77494 
L 131.089622 291.403863 
L 131.155892 291.443717 
L 131.288431 290.4827 
L 131.3547 284.491052 
L 131.42097 284.628892 
L 131.553509 286.31646 
L 131.619778 283.4471 
L 131.686048 253.767223 
L 131.752318 262.441367 
L 131.884857 277.382528 
L 131.951126 266.886229 
L 132.017396 230.60294 
L 132.083665 232.1628 
L 132.216204 284.363996 
L 132.282474 288.456127 
L 132.348744 280.560692 
L 132.415013 258.191297 
L 132.547552 291.964168 
L 132.680091 292.940948 
L 132.746361 281.190381 
L 132.81263 284.673477 
L 133.011439 294.081952 
L 133.143978 290.900325 
L 133.342787 293.805119 
L 133.409056 294.025317 
L 133.475326 293.738447 
L 133.674135 294.62131 
L 133.806674 294.600862 
L 134.005482 294.705559 
L 134.138021 294.788787 
L 134.469369 294.929617 
L 134.668178 295.032665 
L 134.866987 295.107887 
L 134.999526 295.094463 
L 135.463413 295.146834 
L 135.662221 295.18825 
L 136.192378 295.107991 
L 136.258647 295.216093 
L 136.457456 294.814057 
L 136.855073 294.660624 
L 136.921343 294.836748 
L 136.987612 294.80084 
L 137.517769 294.832176 
L 137.650308 295.202828 
L 137.716577 295.141804 
L 137.782847 295.088849 
L 137.981656 295.410462 
L 138.047925 295.359209 
L 138.313003 295.225066 
L 138.511812 295.13845 
L 138.975699 295.200796 
L 139.240777 295.282292 
L 139.837203 295.337919 
L 139.969742 295.222478 
L 140.23482 295.207047 
L 140.36736 295.100312 
L 140.499899 295.132357 
L 140.698707 294.85934 
L 141.162594 294.847612 
L 141.361403 295.087893 
L 141.626481 295.436656 
L 141.82529 295.233157 
L 141.957829 295.179073 
L 142.090368 295.183231 
L 142.355446 295.241926 
L 142.554255 295.24713 
L 142.753064 295.136068 
L 143.018142 295.160605 
L 143.21695 294.964346 
L 143.482029 294.770598 
L 143.680837 295.006669 
L 144.078455 295.232543 
L 144.210994 295.396584 
L 144.409802 294.571851 
L 144.476072 294.656409 
L 144.542341 293.852004 
L 144.608611 293.897416 
L 144.674881 293.973947 
L 144.873689 292.825243 
L 144.939959 293.509645 
L 145.006228 293.214082 
L 145.138767 293.626095 
L 145.271307 292.52715 
L 145.337576 292.987336 
L 145.403846 292.799802 
L 145.668924 288.677177 
L 145.735193 289.716097 
L 145.801463 289.892678 
L 145.867733 280.710523 
L 145.934002 280.767187 
L 146.066541 289.482067 
L 146.132811 286.877702 
L 146.19908 275.849382 
L 146.26535 241.356395 
L 146.397889 290.077765 
L 146.530428 280.527337 
L 146.596698 224.142945 
L 146.795506 288.873024 
L 146.861776 293.570893 
L 146.994315 256.0836 
L 147.126854 289.930971 
L 147.193124 293.070049 
L 147.325663 274.288958 
L 147.524471 292.227669 
L 147.590741 294.056731 
L 147.657011 288.804499 
L 147.72328 290.330946 
L 147.922089 294.042859 
L 148.054628 293.23981 
L 148.253437 294.413526 
L 148.385976 294.344638 
L 148.584784 294.694322 
L 149.380019 294.967915 
L 149.512558 295.128808 
L 149.777636 295.076293 
L 150.70541 295.291972 
L 151.235566 294.825216 
L 151.434375 294.963065 
L 151.500645 294.924319 
L 151.633184 295.095132 
L 152.16334 294.983629 
L 152.295879 294.950118 
L 152.826036 295.292117 
L 153.223653 293.916423 
L 153.289923 293.882737 
L 153.488731 293.119213 
L 153.555001 294.035673 
L 153.62127 293.673314 
L 153.753809 293.320571 
L 153.886349 293.914654 
L 153.952618 293.654603 
L 154.085157 294.214775 
L 154.151427 293.906027 
L 154.350235 294.388323 
L 154.416505 294.369961 
L 154.615314 294.88119 
L 154.880392 294.782863 
L 154.946661 294.769552 
L 155.012931 294.894032 
L 155.079201 294.780591 
L 155.14547 294.822923 
L 155.21174 295.036898 
L 155.344279 294.655505 
L 155.543087 294.881078 
L 155.675627 294.88386 
L 155.808166 294.793648 
L 155.874435 294.733167 
L 155.940705 294.488407 
L 156.006974 294.568276 
L 156.205783 294.859821 
L 156.272053 294.814293 
L 156.6034 294.180945 
L 156.66967 294.839015 
L 156.735939 294.500833 
L 156.802209 294.810847 
L 157.067287 294.285304 
L 157.199826 294.527844 
L 157.266096 294.416306 
L 157.398635 294.685322 
L 157.464905 294.425553 
L 157.531174 294.535955 
L 157.597444 294.621531 
L 157.729983 294.48698 
L 157.862522 294.681862 
L 157.928791 294.613218 
L 158.392678 295.207147 
L 158.657756 295.288911 
L 158.989104 294.187094 
L 159.055374 294.213809 
L 159.121643 294.222524 
L 159.187913 293.953491 
L 159.254182 293.986792 
L 159.320452 294.092204 
L 159.386722 293.482662 
L 159.519261 294.316447 
L 159.58553 294.294068 
L 159.6518 294.73138 
L 159.718069 293.940712 
L 159.784339 291.773353 
L 159.850608 292.608911 
L 159.916878 293.081955 
L 159.983148 292.64793 
L 160.115687 284.946746 
L 160.248226 292.007231 
L 160.314495 291.798973 
L 160.380765 288.032652 
L 160.447034 266.13914 
L 160.513304 275.501391 
L 160.645843 291.659989 
L 160.712113 290.143903 
L 160.844652 242.540276 
L 160.977191 286.084047 
L 161.04346 287.867973 
L 161.176 191.513823 
L 161.308539 284.586717 
L 161.441078 278.332706 
L 161.507347 221.291195 
L 161.573617 257.614161 
L 161.772426 292.591199 
L 161.904965 266.612544 
L 162.103773 291.655104 
L 162.170043 291.355641 
L 162.236312 283.59244 
L 162.302582 288.298368 
L 162.501391 292.647096 
L 162.56766 290.277127 
L 162.766469 294.115036 
L 162.832738 294.508429 
L 162.965278 293.842357 
L 163.097817 294.542105 
L 163.164086 294.422696 
L 163.230356 294.464419 
L 163.760512 294.756319 
L 163.959321 294.4243 
L 164.02559 294.527835 
L 164.158129 294.64354 
L 164.423208 294.674912 
L 164.555747 294.668398 
L 164.820825 294.76729 
L 165.019634 294.773051 
L 165.218442 294.757611 
L 165.881138 294.923115 
L 165.947407 294.851302 
L 166.146216 295.046246 
L 166.345025 295.019518 
L 166.610103 295.085344 
L 166.676373 295.410142 
L 166.742642 295.282992 
L 167.07399 295.246211 
L 167.206529 295.330439 
L 167.471607 295.122391 
L 167.537877 295.223985 
L 167.802955 294.89021 
L 167.935494 294.84143 
L 168.068033 294.756205 
L 168.399381 294.895334 
L 169.128346 295.056855 
L 169.327155 295.147784 
L 170.05612 295.042805 
L 170.188659 294.809874 
L 170.321198 295.054778 
L 170.387468 294.905733 
L 170.453737 295.012678 
L 170.652546 295.096585 
L 170.718815 295.326179 
L 170.785085 295.301531 
L 170.851354 295.266114 
L 170.917624 295.39993 
L 170.983894 295.363323 
L 171.51405 295.095273 
L 171.58032 295.167283 
L 171.712859 294.976255 
L 171.779128 294.984392 
L 171.845398 294.876192 
L 171.911667 294.99964 
L 171.977937 294.946998 
L 172.176746 294.856543 
L 172.508093 295.026346 
L 172.640632 294.779922 
L 172.706902 294.80522 
L 172.905711 294.947039 
L 173.104519 294.236109 
L 173.170789 294.511924 
L 173.435867 294.55366 
L 173.634676 294.370176 
L 173.700945 294.327872 
L 173.899754 294.78098 
L 173.966023 294.747843 
L 174.032293 294.57925 
L 174.098563 294.840717 
L 174.164832 294.748405 
L 174.231102 294.279728 
L 174.297371 294.405361 
L 174.363641 295.233758 
L 174.42991 294.17687 
L 174.49618 294.495161 
L 174.562449 294.090423 
L 174.628719 292.725304 
L 174.694989 293.040563 
L 174.827528 295.160358 
L 174.893797 295.043752 
L 175.026336 288.895606 
L 175.092606 292.585829 
L 175.225145 294.391655 
L 175.291415 294.257461 
L 175.357684 282.458199 
L 175.423954 290.218964 
L 175.490223 293.637093 
L 175.556493 291.895515 
L 175.622762 291.374025 
L 175.689032 284.523196 
L 175.755301 286.312998 
L 175.821571 292.604052 
L 175.887841 292.212919 
L 175.95411 292.004135 
L 176.086649 285.052468 
L 176.219188 294.199675 
L 176.285458 294.16413 
L 176.351727 293.278023 
L 176.417997 289.467233 
L 176.484267 291.592273 
L 176.683075 294.780072 
L 176.815614 291.793192 
L 177.014423 294.484073 
L 177.080693 294.625427 
L 177.146962 294.014739 
L 177.213232 294.388611 
L 177.41204 294.831367 
L 177.47831 294.691564 
L 177.544579 294.805807 
L 177.809658 295.186792 
L 178.074736 295.107457 
L 178.472353 294.963796 
L 178.737431 295.076335 
L 178.93624 294.975324 
L 179.068779 294.997304 
L 179.201318 294.604274 
L 179.267588 294.711166 
L 179.797744 295.071616 
L 179.864014 295.024885 
L 180.062822 295.27527 
L 180.261631 295.287029 
L 180.725518 295.340117 
L 180.990596 295.269227 
L 181.321944 295.222725 
L 181.520753 295.213719 
L 182.315987 295.261064 
L 182.514796 295.093432 
L 182.647335 294.953032 
L 182.713605 295.047744 
L 182.846144 295.064955 
L 182.912413 295.212319 
L 182.978683 295.176409 
L 183.3763 295.216923 
L 184.237804 295.27738 
L 184.569152 295.166091 
L 184.83423 295.192843 
L 184.966769 295.09378 
L 185.298117 295.068028 
L 185.496926 294.842719 
L 185.629465 294.729004 
L 185.960813 295.094721 
L 186.159621 295.175497 
L 186.225891 295.133982 
L 186.292161 295.307561 
L 186.490969 295.007932 
L 186.623508 295.010362 
L 187.021126 295.032424 
L 187.087395 294.941006 
L 187.286204 294.439718 
L 187.352473 294.657012 
L 187.418743 294.425043 
L 187.485013 294.570513 
L 187.617552 294.631202 
L 187.750091 294.554469 
L 187.81636 294.972924 
L 187.88263 294.596915 
L 187.948899 294.756666 
L 188.147708 295.002781 
L 188.346517 294.824655 
L 188.412786 294.848025 
L 188.545325 295.091937 
L 188.611595 294.967244 
L 188.744134 295.149143 
L 188.876673 294.703375 
L 189.075482 295.383831 
L 189.141751 295.164544 
L 189.208021 294.004603 
L 189.27429 294.061744 
L 189.40683 294.613469 
L 189.473099 294.572606 
L 189.539369 292.777422 
L 189.605638 293.709076 
L 189.671908 294.082782 
L 189.870716 293.466365 
L 189.936986 290.849105 
L 190.069525 294.107837 
L 190.202064 292.050334 
L 190.268334 290.265434 
L 190.334603 291.126122 
L 190.467142 294.675624 
L 190.533412 294.726273 
L 190.599682 291.213274 
L 190.665951 291.275151 
L 190.79849 294.872858 
L 190.86476 295.141218 
L 190.997299 292.16487 
L 191.129838 294.742481 
L 191.262377 295.266072 
L 191.328647 293.843936 
L 191.394916 294.16028 
L 191.593725 295.225044 
L 191.726264 294.653165 
L 191.925073 295.265557 
L 191.991342 295.275461 
L 192.057612 295.155803 
L 192.123881 295.249963 
L 192.25642 295.343786 
L 193.051655 294.895854 
L 193.117925 294.980535 
L 193.184194 294.898872 
L 193.449272 294.882164 
L 193.648081 295.157267 
L 193.78062 294.961799 
L 193.979429 295.109847 
L 194.509585 295.150601 
L 194.774663 295.155852 
L 195.106011 295.272161 
L 195.30482 295.299035 
L 195.702437 295.266973 
L 196.563941 295.191257 
L 197.094098 295.186608 
L 197.292907 295.236937 
L 197.690524 295.308416 
L 197.889333 295.258869 
L 198.088141 295.196265 
L 198.552028 295.13552 
L 198.618298 295.195023 
L 198.817106 294.840972 
L 198.949645 295.191552 
L 199.546071 295.235568 
L 199.67861 295.270362 
L 200.076228 294.976276 
L 200.275036 294.985354 
L 200.407576 294.958038 
L 200.540115 294.908519 
L 200.738923 295.054156 
L 200.871462 295.000362 
L 201.20281 294.556945 
L 201.401619 294.82468 
L 201.534158 294.449085 
L 201.666697 294.403097 
L 201.799236 294.667658 
L 201.931775 294.135871 
L 202.064314 294.338216 
L 202.72701 294.904625 
L 202.859549 294.451934 
L 202.925819 294.562808 
L 203.058358 293.352587 
L 203.257166 295.235663 
L 203.323436 295.196078 
L 203.455975 290.673529 
L 203.588514 293.719512 
L 203.654784 293.660699 
L 203.787323 285.469259 
L 203.853592 288.859303 
L 203.986131 291.643 
L 204.052401 287.866322 
L 204.118671 262.568754 
L 204.18494 277.474061 
L 204.317479 292.455642 
L 204.383749 292.765409 
L 204.450018 272.017341 
L 204.516288 277.420141 
L 204.648827 292.758553 
L 204.715097 291.993385 
L 204.781366 274.656291 
L 204.847636 277.742679 
L 204.913905 275.728137 
L 205.046444 289.181287 
L 205.112714 287.786265 
L 205.178983 266.722683 
L 205.377792 293.400262 
L 205.444062 294.539119 
L 205.510331 279.981893 
L 205.576601 281.963235 
L 205.70914 293.701205 
L 205.775409 294.058188 
L 205.907949 284.490084 
L 206.106757 293.454539 
L 206.173027 294.720603 
L 206.239296 290.831835 
L 206.305566 291.433045 
L 206.504375 294.745303 
L 206.636914 293.437555 
L 206.835722 295.082382 
L 206.968261 294.65526 
L 207.16707 295.362635 
L 207.299609 295.250077 
L 207.697227 295.235799 
L 207.829766 295.224651 
L 208.227383 295.244611 
L 208.359922 295.276593 
L 208.69127 295.190172 
L 209.088887 295.403436 
L 209.287696 295.407497 
L 209.619044 295.382747 
L 209.685313 295.239865 
L 209.751583 295.27748 
L 209.884122 295.289613 
L 210.016661 295.252296 
L 210.1492 295.108608 
L 210.21547 295.163563 
L 210.546817 294.868097 
L 210.613087 294.907752 
L 210.679356 294.816172 
L 210.745626 294.872491 
L 210.878165 294.958803 
L 211.010704 294.571994 
L 211.076974 294.724214 
L 211.143243 294.6317 
L 211.275782 293.905572 
L 211.408322 294.728837 
L 211.540861 294.44118 
L 211.60713 294.797096 
L 211.6734 294.628478 
L 211.805939 294.473484 
L 212.071017 294.873902 
L 212.137287 294.705969 
L 212.269826 294.916809 
L 212.336095 294.770185 
L 212.402365 294.885014 
L 212.534904 294.992572 
L 212.799982 294.73625 
L 212.866252 294.87104 
L 213.330139 295.184097 
L 213.462678 295.247518 
L 213.727756 295.347466 
L 213.860295 295.266042 
L 214.854338 294.77945 
L 214.986877 294.899388 
L 215.185686 294.826808 
L 215.251956 294.945379 
L 215.318225 294.631078 
L 215.384495 294.666382 
L 215.450764 294.809351 
L 215.517034 294.605563 
L 215.583303 294.68402 
L 215.649573 294.566055 
L 215.782112 294.842353 
L 215.980921 294.339473 
L 216.04719 294.371417 
L 216.11346 294.709319 
L 216.179729 294.660204 
L 216.245999 294.573105 
L 216.312269 294.646052 
L 216.444808 294.805235 
L 216.577347 294.52605 
L 216.709886 294.778546 
L 216.776155 294.747809 
L 216.842425 294.869976 
L 216.908695 295.309339 
L 217.107503 294.768875 
L 217.240042 294.486134 
L 217.438851 295.360828 
L 217.505121 295.287572 
L 217.63766 292.600053 
L 217.703929 292.976408 
L 217.836468 294.243339 
L 217.969007 290.181226 
L 218.035277 290.271971 
L 218.234086 293.486843 
L 218.366625 282.719724 
L 218.565433 294.690735 
L 218.697972 274.73257 
L 218.830512 290.912785 
L 218.896781 293.060584 
L 218.963051 286.881239 
L 219.02932 267.442197 
L 219.09559 275.719515 
L 219.161859 293.202324 
L 219.228129 292.117036 
L 219.426938 271.572043 
L 219.559477 288.033176 
L 219.692016 282.528737 
L 219.758285 276.218603 
L 219.957094 292.711447 
L 220.089633 272.261908 
L 220.288442 292.894813 
L 220.354711 293.608434 
L 220.420981 281.668055 
L 220.48725 283.148771 
L 220.686059 293.780459 
L 220.818598 288.697181 
L 220.884868 291.228973 
L 221.083676 295.112841 
L 221.216216 292.599955 
L 221.415024 294.482233 
L 221.547563 293.972642 
L 221.746372 294.631369 
L 221.812642 294.488841 
L 221.878911 294.569537 
L 222.143989 294.966671 
L 222.276528 295.018479 
L 222.409068 295.131414 
L 223.005494 295.262507 
L 223.270572 295.311764 
L 223.866998 295.220657 
L 224.463424 295.219404 
L 224.662232 295.188668 
L 224.861041 295.244053 
L 225.324928 294.751647 
L 225.391197 295.094615 
L 225.457467 295.022638 
L 226.186432 294.85557 
L 226.51778 295.162684 
L 226.981667 295.323312 
L 227.313015 295.335825 
L 227.445554 295.450113 
L 228.240788 295.298424 
L 228.439597 295.351901 
L 228.638406 295.326184 
L 230.030066 295.241278 
L 230.162605 295.357437 
L 230.692762 295.353838 
L 231.090379 295.186282 
L 231.355457 295.392538 
L 231.885614 294.77692 
L 231.951883 294.862143 
L 232.018153 295.00495 
L 232.216962 292.967882 
L 232.349501 294.839953 
L 232.41577 294.648335 
L 232.548309 289.734482 
L 232.747118 293.705183 
L 232.813388 291.80053 
L 232.879657 284.396469 
L 232.945927 288.234452 
L 233.078466 293.650577 
L 233.144735 294.648868 
L 233.277274 282.987196 
L 233.343544 294.069924 
L 233.409814 293.338003 
L 233.476083 292.685078 
L 233.608622 283.049925 
L 233.807431 292.110489 
L 233.8737 284.171513 
L 233.93997 290.287516 
L 234.006239 278.255356 
L 234.138779 292.009923 
L 234.271318 283.596469 
L 234.337587 285.421966 
L 234.470126 292.436563 
L 234.536396 292.613567 
L 234.668935 283.633439 
L 234.735205 294.534252 
L 234.801474 293.774211 
L 234.867744 294.173576 
L 234.934013 290.969371 
L 235.000283 282.013569 
L 235.199091 294.162297 
L 235.265361 293.783517 
L 235.331631 290.094309 
L 235.3979 290.600968 
L 235.596709 295.332848 
L 235.729248 293.006391 
L 235.994326 295.114054 
L 236.060596 294.255263 
L 236.126865 294.285674 
L 236.325674 294.880977 
L 236.458213 294.865068 
L 236.590752 294.985014 
L 236.657022 294.968296 
L 236.988369 295.366209 
L 237.518526 295.39304 
L 238.048682 295.469144 
L 238.910186 295.396662 
L 239.639152 295.371401 
L 239.705421 295.264888 
L 239.771691 295.318703 
L 240.633195 295.232037 
L 240.765734 295.193924 
L 241.693508 295.083435 
L 241.892316 295.175303 
L 242.356203 294.983392 
L 242.422473 295.240531 
L 242.488742 295.142398 
L 242.687551 295.088659 
L 242.88636 294.804402 
L 243.085168 294.756372 
L 243.151438 294.751516 
L 243.283977 294.569056 
L 243.350247 294.727724 
L 243.482786 294.416312 
L 243.549055 294.535688 
L 243.615325 294.444835 
L 243.747864 294.483218 
L 243.814133 294.3179 
L 243.880403 294.584422 
L 243.946673 294.495414 
L 244.012942 294.277864 
L 244.079212 294.385234 
L 244.145481 294.527309 
L 244.211751 294.403825 
L 244.27802 294.667135 
L 244.34429 294.496296 
L 244.476829 294.340527 
L 244.543099 294.448247 
L 244.675638 294.574874 
L 244.741907 294.589841 
L 244.808177 294.361516 
L 244.874446 294.694728 
L 244.940716 294.589821 
L 245.073255 294.619929 
L 245.139525 294.773376 
L 245.272064 294.503642 
L 245.338333 294.687429 
L 245.404603 294.627351 
L 245.603411 294.747542 
L 245.669681 294.973243 
L 245.735951 294.870346 
L 245.80222 294.823935 
L 245.934759 294.968316 
L 246.001029 294.912528 
L 246.133568 295.185657 
L 246.199837 295.093482 
L 246.332377 294.986718 
L 246.398646 295.115377 
L 246.663724 294.168949 
L 246.729994 293.611061 
L 246.928803 295.256143 
L 246.995072 294.892326 
L 247.127611 291.076978 
L 247.32642 294.648407 
L 247.458959 289.515017 
L 247.657768 294.34222 
L 247.724037 294.609647 
L 247.790307 287.727473 
L 247.856576 292.267885 
L 247.922846 294.834239 
L 247.989115 294.517517 
L 248.121655 289.53209 
L 248.320463 293.823205 
L 248.386733 293.260271 
L 248.453002 285.371669 
L 248.519272 290.519441 
L 248.585541 289.874797 
L 248.71808 293.127853 
L 248.916889 286.144279 
L 249.049428 294.898141 
L 249.115698 293.577768 
L 249.181967 289.298803 
L 249.248237 291.641094 
L 249.447046 295.218371 
L 249.579585 289.454873 
L 249.712124 294.141457 
L 249.778393 294.690016 
L 249.910932 291.906925 
L 249.977202 292.954607 
L 250.176011 295.184496 
L 250.30855 293.175912 
L 250.507358 294.780914 
L 250.573628 294.673687 
L 250.639898 294.083072 
L 250.706167 294.440689 
L 250.838706 295.059714 
L 250.904976 294.901304 
L 250.971245 294.972578 
L 251.170054 295.421276 
L 251.368863 295.428423 
L 251.501402 295.230338 
L 252.230367 295.175339 
L 252.362906 295.161483 
L 255.212497 295.327607 
L 255.345036 295.394528 
L 255.610114 295.314781 
L 255.808923 295.317739 
L 256.074001 295.20421 
L 256.27281 295.234503 
L 256.537888 295.207405 
L 256.736697 295.356113 
L 257.068044 295.278642 
L 257.266853 295.22751 
L 257.465662 295.25164 
L 257.598201 295.151529 
L 257.66447 295.18004 
L 257.73074 295.0802 
L 257.797009 295.125187 
L 257.929549 295.07744 
L 257.995818 294.881808 
L 258.194627 295.114823 
L 258.525975 295.039685 
L 258.791053 295.070532 
L 258.923592 294.970173 
L 258.989861 295.111731 
L 259.056131 295.048199 
L 259.321209 295.034585 
L 259.453748 295.229827 
L 259.718826 294.929903 
L 259.785096 294.867283 
L 259.917635 295.13781 
L 260.116444 295.018535 
L 260.248983 294.725683 
L 260.514061 295.333185 
L 260.6466 294.500123 
L 260.71287 294.6161 
L 260.779139 294.804302 
L 260.977948 293.267128 
L 261.110487 295.347554 
L 261.176757 294.945924 
L 261.309296 292.031979 
L 261.375565 292.8918 
L 261.508104 294.278553 
L 261.640644 286.805806 
L 261.706913 288.199594 
L 261.905722 293.420866 
L 261.971991 282.299426 
L 262.038261 283.154529 
L 262.1708 294.799005 
L 262.303339 289.054336 
L 262.369609 281.781697 
L 262.435878 293.780345 
L 262.502148 292.163989 
L 262.568417 292.466728 
L 262.634687 282.884245 
L 262.700956 287.207671 
L 262.767226 281.384004 
L 262.833496 294.691284 
L 262.899765 293.8581 
L 263.098574 278.740297 
L 263.231113 286.233442 
L 263.297382 283.252127 
L 263.363652 287.952297 
L 263.429922 285.383639 
L 263.496191 282.85365 
L 263.62873 290.919648 
L 263.761269 282.860475 
L 263.893808 293.015712 
L 263.960078 292.682948 
L 264.026347 293.588416 
L 264.092617 281.098224 
L 264.158887 287.203834 
L 264.291426 293.964126 
L 264.357695 293.112314 
L 264.490234 286.32155 
L 264.689043 293.607697 
L 264.755313 294.313843 
L 264.821582 291.071003 
L 264.887852 291.409833 
L 265.08666 294.698516 
L 265.219199 291.958709 
L 265.418008 294.840486 
L 265.550547 294.427888 
L 265.749356 295.371171 
L 265.881895 295.283052 
L 265.948165 294.996298 
L 266.014434 295.017287 
L 266.146973 295.127143 
L 266.279512 294.978231 
L 266.412051 294.928161 
L 266.61086 294.658817 
L 266.67713 294.879329 
L 266.743399 294.831058 
L 266.942208 294.624209 
L 267.074747 294.858616 
L 267.141017 294.883062 
L 267.273556 295.060704 
L 267.604903 295.233401 
L 267.803712 295.275728 
L 267.869982 295.243972 
L 268.13506 295.47823 
L 268.333869 295.468949 
L 268.864025 295.393802 
L 269.195373 295.40927 
L 269.394181 295.385145 
L 269.990607 295.333996 
L 270.321955 295.441758 
L 270.852112 295.241966 
L 270.984651 295.096054 
L 271.11719 295.110615 
L 271.581077 294.211251 
L 271.779885 293.675613 
L 271.978694 294.479904 
L 272.177503 293.753968 
L 272.243772 293.759446 
L 272.310042 293.45037 
L 272.376311 293.643981 
L 272.442581 293.598467 
L 272.64139 294.036876 
L 272.707659 293.899377 
L 273.039007 294.751081 
L 273.370355 294.84572 
L 273.569163 295.089439 
L 273.635433 295.025797 
L 273.701702 295.095724 
L 273.767972 295.388692 
L 273.834241 295.179657 
L 273.966781 295.101216 
L 274.364398 295.289101 
L 274.563207 295.189102 
L 274.629476 295.20818 
L 274.762015 294.975825 
L 274.894554 295.193774 
L 275.027093 295.291051 
L 275.159633 294.708987 
L 275.225902 294.735552 
L 275.358441 294.893742 
L 275.424711 294.786535 
L 275.49098 295.006958 
L 275.623519 293.952508 
L 275.689789 294.229747 
L 275.756059 293.953075 
L 275.822328 293.12538 
L 275.888598 293.425126 
L 276.087406 295.329106 
L 276.219945 290.479965 
L 276.418754 295.020934 
L 276.551293 289.883214 
L 276.617563 291.552948 
L 276.750102 294.498257 
L 276.816371 294.170194 
L 276.882641 289.108931 
L 276.948911 291.634124 
L 277.08145 295.121234 
L 277.147719 293.823799 
L 277.213989 288.482263 
L 277.280258 290.394545 
L 277.346528 289.648191 
L 277.412797 294.098547 
L 277.479067 293.89461 
L 277.545337 289.934897 
L 277.611606 293.547901 
L 277.677876 287.443795 
L 277.744145 289.731019 
L 277.810415 292.201725 
L 277.876684 291.47253 
L 277.942954 292.59628 
L 278.009223 288.838335 
L 278.141763 293.319297 
L 278.208032 292.631195 
L 278.274302 289.829015 
L 278.340571 290.807626 
L 278.47311 294.535676 
L 278.53938 294.305598 
L 278.605649 292.881053 
L 278.671919 288.537442 
L 278.804458 294.199677 
L 278.870728 294.699189 
L 278.936997 294.1609 
L 279.003267 290.762098 
L 279.069536 291.947583 
L 279.268345 294.890217 
L 279.400884 293.169001 
L 279.665962 295.244197 
L 279.798501 293.927219 
L 279.99731 294.732816 
L 280.129849 294.179806 
L 280.262388 294.734124 
L 280.461197 294.376984 
L 280.593736 294.739652 
L 280.660006 294.677257 
L 280.925084 294.837023 
L 281.057623 294.81371 
L 281.256432 294.821605 
L 281.322701 294.683784 
L 281.52151 295.12355 
L 281.654049 294.751078 
L 281.852858 294.888023 
L 282.581823 295.064093 
L 282.648092 295.022536 
L 282.714362 295.297525 
L 282.780631 295.194086 
L 282.846901 295.290041 
L 282.91317 295.115848 
L 282.97944 295.159554 
L 283.310788 295.192942 
L 283.774675 295.139308 
L 284.106022 295.341345 
L 284.304831 295.346634 
L 284.50364 295.424905 
L 285.829031 295.342944 
L 285.8953 295.266857 
L 285.96157 295.336448 
L 286.491726 295.296305 
L 286.690535 295.347721 
L 286.889344 295.287983 
L 287.088152 295.288064 
L 287.48577 295.264193 
L 287.618309 295.256059 
L 287.949657 295.307982 
L 288.015926 295.253909 
L 288.148465 295.330184 
L 288.347274 295.394043 
L 288.546083 295.40026 
L 288.811161 295.264326 
L 289.275048 295.19539 
L 289.341317 294.917918 
L 289.407587 295.012712 
L 289.606395 295.035128 
L 289.672665 295.433255 
L 289.805204 294.772493 
L 289.871474 294.819368 
L 290.004013 294.202737 
L 290.070282 294.281184 
L 290.136552 294.78746 
L 290.202821 294.768597 
L 290.269091 294.882205 
L 290.40163 292.673192 
L 290.4679 293.107719 
L 290.600439 294.800105 
L 290.666708 294.637589 
L 290.799247 292.10038 
L 290.998056 295.124501 
L 291.130595 290.448163 
L 291.263134 295.126682 
L 291.329404 295.069903 
L 291.528212 291.813698 
L 291.660752 294.666828 
L 291.85956 290.556231 
L 291.992099 294.341813 
L 292.058369 293.603907 
L 292.124638 291.416802 
L 292.190908 293.233465 
L 292.257178 290.243845 
L 292.389717 292.73149 
L 292.455986 290.789463 
L 292.522256 294.871021 
L 292.588525 291.262522 
L 292.721064 294.969952 
L 292.853604 290.024421 
L 292.986143 293.464975 
L 293.118682 295.143509 
L 293.251221 291.610659 
L 293.31749 294.673464 
L 293.38376 294.543523 
L 293.45003 294.726265 
L 293.516299 293.861899 
L 293.582569 291.294237 
L 293.648838 292.701402 
L 293.847647 295.147268 
L 293.980186 293.054543 
L 294.178995 295.049905 
L 294.311534 293.829865 
L 294.377803 294.240956 
L 294.576612 295.192689 
L 294.642881 294.756282 
L 294.709151 294.836733 
L 294.90796 295.327453 
L 295.040499 295.170307 
L 295.239307 295.318375 
L 295.371847 295.219747 
L 295.703194 295.332375 
L 296.167081 295.313639 
L 296.36589 295.371164 
L 296.564699 295.396178 
L 297.492472 295.271385 
L 297.691281 295.120157 
L 297.89009 295.168396 
L 298.287707 294.900276 
L 298.420246 295.030602 
L 298.552785 295.046294 
L 298.884133 295.0581 
L 299.082942 295.14622 
L 299.34802 294.929279 
L 299.546828 295.034846 
L 300.408333 295.310034 
L 300.607141 295.049571 
L 300.87222 295.096669 
L 301.004759 295.082001 
L 301.137298 294.952603 
L 301.269837 295.128202 
L 301.733724 295.016457 
L 301.866263 295.253858 
L 301.932532 294.857436 
L 301.998802 294.870013 
L 302.197611 295.01029 
L 302.396419 294.829436 
L 302.528958 295.11578 
L 302.727767 294.752539 
L 303.257924 294.822637 
L 303.456732 294.750432 
L 303.655541 295.127025 
L 304.119428 295.101172 
L 304.185697 295.171583 
L 304.318236 295.003484 
L 304.384506 295.081479 
L 304.649584 295.298243 
L 304.715854 295.096986 
L 304.782123 295.161979 
L 304.848393 295.238274 
L 304.980932 295.006721 
L 305.113471 295.43829 
L 305.179741 295.407597 
L 305.24601 295.308532 
L 305.31228 294.603489 
L 305.378549 294.89775 
L 305.444819 295.419055 
L 305.511088 295.386975 
L 305.709897 294.19897 
L 305.776167 294.864623 
L 305.842436 294.782522 
L 305.908706 295.018369 
L 305.974975 293.802296 
L 306.041245 294.129928 
L 306.107514 294.870265 
L 306.173784 294.37736 
L 306.240053 294.278152 
L 306.306323 294.818705 
L 306.438862 293.305742 
L 306.571401 293.907383 
L 306.637671 293.552173 
L 306.70394 294.07006 
L 306.77021 293.530625 
L 306.969019 295.028012 
L 307.035288 293.915026 
L 307.101558 294.011934 
L 307.300366 294.95344 
L 307.366636 295.220067 
L 307.499175 294.629781 
L 307.631714 295.319143 
L 307.764253 294.757181 
L 307.896792 295.48525 
L 307.963062 295.415927 
L 308.161871 294.676566 
L 308.360679 295.239756 
L 308.426949 295.153267 
L 308.493218 294.763283 
L 308.692027 295.334938 
L 308.758296 295.350332 
L 308.824566 295.112918 
L 308.890836 295.273159 
L 308.957105 295.409153 
L 309.089644 295.266362 
L 309.155914 295.403846 
L 309.222183 295.35099 
L 309.288453 295.253196 
L 309.354722 295.298924 
L 309.619801 295.419613 
L 310.149957 295.464301 
L 311.011461 295.229448 
L 311.21027 294.961516 
L 311.27654 295.150765 
L 311.342809 295.080732 
L 311.541618 295.024719 
L 311.806696 295.07571 
L 312.005505 295.201396 
L 312.204313 295.182239 
L 312.403122 295.332203 
L 313.065818 295.354673 
L 313.397165 295.298394 
L 314.059861 295.255418 
L 314.258669 295.299827 
L 314.457478 295.300597 
L 315.318982 295.251655 
L 315.517791 295.204259 
L 315.65033 295.188379 
L 315.849139 295.043365 
L 316.114217 295.186818 
L 316.710643 295.185661 
L 316.776913 295.114453 
L 316.843182 295.181871 
L 317.041991 295.21507 
L 317.638417 295.290058 
L 317.837225 295.347869 
L 318.036034 295.407309 
L 318.168573 295.203112 
L 318.301112 295.297938 
L 318.566191 295.244392 
L 318.69873 295.210109 
L 318.831269 294.810904 
L 319.030077 295.218126 
L 319.162616 294.018639 
L 319.228886 294.268999 
L 319.361425 295.15548 
L 319.427695 294.901744 
L 319.560234 293.080651 
L 319.759042 295.420513 
L 319.891582 292.944577 
L 320.024121 295.104339 
L 320.09039 294.840554 
L 320.15666 294.267936 
L 320.222929 292.428376 
L 320.421738 295.337837 
L 320.554277 292.921045 
L 320.686816 293.702485 
L 320.753086 294.74546 
L 320.819355 294.136358 
L 320.885625 292.276641 
L 320.951894 293.343134 
L 321.018164 292.653403 
L 321.084434 294.492476 
L 321.150703 293.530217 
L 321.216973 292.343225 
L 321.283242 294.496218 
L 321.349512 292.944697 
L 321.415781 293.610294 
L 321.482051 293.337 
L 321.54832 292.351643 
L 321.61459 294.372939 
L 321.68086 291.968009 
L 321.813399 294.823958 
L 321.945938 293.257627 
L 322.012207 293.528193 
L 322.078477 293.382146 
L 322.144746 294.790719 
L 322.211016 294.498982 
L 322.343555 292.135382 
L 322.409825 294.981115 
L 322.476094 294.767493 
L 322.542364 294.88932 
L 322.608633 294.562213 
L 322.674903 292.372906 
L 322.741172 293.658455 
L 322.873712 294.962564 
L 322.939981 295.25388 
L 323.07252 293.196587 
L 323.271329 294.877122 
L 323.337598 294.906094 
L 323.403868 294.070521 
L 323.470138 294.229743 
L 323.668946 295.235201 
L 323.801485 294.753582 
L 323.867755 294.91671 
L 324.000294 295.448597 
L 324.066563 295.31256 
L 324.199103 295.183122 
L 324.662989 295.422156 
L 325.060607 295.419537 
L 326.385998 295.424682 
L 326.717346 295.441152 
L 327.446311 295.440541 
L 327.711389 295.398376 
L 328.705432 295.366386 
L 329.301858 295.380166 
L 330.163362 295.37098 
L 330.826058 295.460555 
L 331.091136 295.406382 
L 331.356214 295.403541 
L 332.283988 295.270823 
L 332.416527 295.273946 
L 332.482797 295.329264 
L 332.747875 295.100196 
L 332.880414 295.08859 
L 333.079223 294.084378 
L 333.211762 295.054737 
L 333.410571 293.654883 
L 333.47684 294.141692 
L 333.54311 294.726546 
L 333.609379 294.640432 
L 333.741918 291.692955 
L 333.940727 294.891483 
L 334.073266 289.872163 
L 334.139536 290.615218 
L 334.272075 294.116035 
L 334.338344 293.531722 
L 334.404614 287.451452 
L 334.470883 289.287233 
L 334.537153 294.645849 
L 334.603423 294.638921 
L 334.669692 294.733938 
L 334.802231 290.327432 
L 334.93477 294.408095 
L 335.00104 294.394257 
L 335.067309 289.10458 
L 335.133579 292.593712 
L 335.199849 288.995812 
L 335.266118 293.23017 
L 335.332388 292.227372 
L 335.398657 288.413236 
L 335.464927 291.929469 
L 335.531196 288.881786 
L 335.663735 294.651531 
L 335.730005 289.082471 
L 335.796275 289.910617 
L 335.862544 291.74229 
L 335.928814 285.726222 
L 335.995083 292.314199 
L 336.061353 291.235243 
L 336.127622 290.511626 
L 336.193892 294.158248 
L 336.260161 289.036286 
L 336.326431 291.653003 
L 336.392701 293.457921 
L 336.45897 287.07757 
L 336.52524 292.278934 
L 336.591509 289.584298 
L 336.790318 293.686861 
L 336.856587 289.237635 
L 336.922857 290.915254 
L 337.055396 294.630171 
L 337.121666 294.2782 
L 337.254205 288.684477 
L 337.386744 294.241893 
L 337.453013 294.097128 
L 337.519283 293.43755 
L 337.585553 289.633515 
L 337.651822 290.848019 
L 337.850631 294.725889 
L 337.98317 291.352024 
L 338.181979 294.397678 
L 338.248248 295.075868 
L 338.314518 293.739629 
L 338.380787 293.743914 
L 338.579596 295.302691 
L 338.712135 294.230249 
L 338.910944 295.24706 
L 338.977213 295.078782 
L 339.043483 294.886796 
L 339.109752 294.952844 
L 339.242291 295.273013 
L 339.308561 295.228112 
L 339.4411 295.231455 
L 339.639909 295.363053 
L 339.838717 295.423252 
L 340.103796 295.375662 
L 340.435143 295.291084 
L 340.567682 295.325806 
L 340.766491 295.230174 
L 340.9653 295.245933 
L 342.820847 295.402042 
L 343.417273 295.36137 
L 344.013699 295.288366 
L 344.278777 295.311065 
L 344.477586 295.298119 
L 345.471629 295.399519 
L 345.670438 295.399372 
L 347.128368 295.33739 
L 347.260907 295.325706 
L 347.393447 295.418913 
L 347.658525 295.13927 
L 347.791064 295.316064 
L 347.989873 294.752469 
L 348.122412 295.28467 
L 348.188681 295.116356 
L 348.32122 294.146629 
L 348.520029 295.314108 
L 348.652568 294.141231 
L 348.785107 295.082884 
L 348.851377 294.973998 
L 348.917646 294.858727 
L 348.983916 293.532307 
L 349.182724 295.349993 
L 349.315264 293.694265 
L 349.381533 294.314694 
L 349.447803 294.349921 
L 349.514072 295.153138 
L 349.580342 294.776542 
L 349.646611 293.696393 
L 349.84542 295.0373 
L 349.977959 292.719177 
L 350.176768 294.875736 
L 350.243037 295.068765 
L 350.309307 293.972627 
L 350.441846 295.440435 
L 350.508116 293.084872 
L 350.574385 293.70889 
L 350.640655 293.972474 
L 350.706924 294.838173 
L 350.773194 294.330739 
L 350.839463 293.763045 
L 350.972002 294.809146 
L 351.038272 293.459091 
L 351.237081 295.262988 
L 351.435889 293.962183 
L 351.634698 295.039024 
L 351.700968 295.224774 
L 351.767237 293.664568 
L 351.833507 293.992337 
L 351.899776 295.434873 
L 351.966046 295.261581 
L 352.032315 295.159265 
L 352.164854 293.578224 
L 352.363663 294.921591 
L 352.429933 295.232342 
L 352.562472 294.465873 
L 352.76128 295.353177 
L 352.89382 294.691716 
L 353.092628 295.312189 
L 353.158898 295.31076 
L 353.357706 294.938574 
L 353.490246 295.277968 
L 353.622785 295.114069 
L 353.821593 295.29385 
L 353.954132 295.207753 
L 354.086671 295.311473 
L 354.28548 295.298815 
L 354.550558 295.386839 
L 355.213254 295.338462 
L 355.544602 295.330336 
L 356.273567 295.396403 
L 356.671184 295.437955 
L 357.002532 295.471163 
L 357.930306 295.455258 
L 358.659271 295.403547 
L 358.990618 295.383785 
L 360.978705 295.444733 
L 361.641401 295.322422 
L 361.77394 295.278873 
L 361.972748 295.398684 
L 362.039018 295.413532 
L 362.171557 295.021954 
L 362.237827 295.131483 
L 362.304096 295.257699 
L 362.370366 295.205651 
L 362.569174 295.017396 
L 362.701714 295.24131 
L 362.834253 294.573146 
L 362.900522 294.84625 
L 363.099331 295.406871 
L 363.23187 294.633946 
L 363.364409 295.363753 
L 363.430679 295.298098 
L 363.563218 294.450979 
L 363.695757 295.260971 
L 363.762026 295.393164 
L 363.828296 294.492587 
L 363.894565 294.963599 
L 363.960835 294.578129 
L 364.027105 295.088439 
L 364.093374 295.079002 
L 364.225913 294.726055 
L 364.292183 294.284928 
L 364.358452 295.366213 
L 364.424722 295.167337 
L 364.490991 294.197988 
L 364.557261 294.80325 
L 364.623531 294.902555 
L 364.6898 294.762857 
L 364.75607 295.164609 
L 364.888609 294.273368 
L 365.021148 294.340056 
L 365.153687 294.37637 
L 365.219957 295.11608 
L 365.286226 295.10249 
L 365.418765 294.366879 
L 365.485035 294.893341 
L 365.551304 294.479568 
L 365.617574 294.747992 
L 365.683843 294.499636 
L 365.882652 295.313361 
L 365.948922 294.519266 
L 366.015191 294.887638 
L 366.081461 294.937652 
L 366.14773 295.215807 
L 366.214 295.02856 
L 366.280269 295.098454 
L 366.346539 294.401567 
L 366.479078 295.215932 
L 366.545348 295.096032 
L 366.611617 295.334098 
L 366.677887 294.55671 
L 366.744156 294.583418 
L 366.876695 295.304841 
L 366.942965 295.327389 
L 367.075504 294.798916 
L 367.274313 295.195564 
L 367.340582 295.28445 
L 367.473121 294.823691 
L 367.539391 294.92115 
L 367.67193 295.284578 
L 367.7382 295.242189 
L 367.804469 295.097945 
L 367.870739 295.191959 
L 368.069547 295.338993 
L 368.202087 295.22617 
L 368.467165 295.363974 
L 368.665973 295.478281 
L 369.461208 295.449063 
L 370.256443 295.459638 
L 372.045721 295.373696 
L 372.443338 295.430177 
L 373.967538 295.398686 
L 374.630233 295.395317 
L 376.61832 295.360987 
L 376.750859 295.230975 
L 376.949668 295.379611 
L 377.082207 295.18114 
L 377.281015 295.439095 
L 377.413555 294.957183 
L 377.612363 295.389792 
L 377.744902 294.818121 
L 377.811172 295.113436 
L 377.877441 295.446966 
L 377.943711 295.412694 
L 378.07625 294.959272 
L 378.14252 295.071274 
L 378.275059 295.352123 
L 378.341328 295.309213 
L 378.407598 294.938294 
L 378.473867 295.10226 
L 378.540137 294.910923 
L 378.606407 295.486954 
L 378.672676 295.206013 
L 378.738946 294.911997 
L 378.805215 295.196324 
L 378.871485 294.616141 
L 378.937754 295.322043 
L 379.004024 295.024186 
L 379.070293 294.672798 
L 379.202832 295.162703 
L 379.269102 294.985633 
L 379.335372 295.438767 
L 379.401641 294.818133 
L 379.467911 295.041582 
L 379.53418 294.958172 
L 379.60045 294.578078 
L 379.865528 295.39381 
L 379.998067 294.829344 
L 380.064337 294.942482 
L 380.130606 294.729001 
L 380.196876 295.368491 
L 380.263145 294.989115 
L 380.395684 295.311373 
L 380.594493 294.880277 
L 380.727032 295.365899 
L 380.793302 295.235223 
L 380.925841 295.081218 
L 381.05838 295.365257 
L 381.190919 295.295994 
L 381.257189 294.79098 
L 381.323458 295.097255 
L 381.455997 295.327122 
L 381.522267 295.368825 
L 381.654806 294.929816 
L 381.853615 295.403306 
L 381.986154 295.089948 
L 382.251232 295.458005 
L 382.383771 295.271501 
L 382.648849 295.446252 
L 382.847658 295.422655 
L 383.444084 295.456464 
L 385.763518 295.457276 
L 386.227405 295.411733 
L 386.426214 295.391424 
L 386.890101 295.458997 
L 387.751605 295.347531 
L 388.215492 295.435427 
L 390.932544 295.362344 
L 391.131352 295.479352 
L 391.330161 295.208138 
L 391.39643 295.287663 
L 391.860317 295.325474 
L 391.926587 295.035461 
L 391.992856 295.140346 
L 392.125396 295.473364 
L 392.324204 295.062182 
L 392.523013 295.44239 
L 392.655552 295.140629 
L 392.788091 295.273935 
L 392.854361 295.368655 
L 392.92063 295.14005 
L 392.9869 295.172189 
L 393.053169 295.237487 
L 393.119439 295.010023 
L 393.185708 295.177784 
L 393.318248 295.160759 
L 393.450787 295.121575 
L 393.517056 295.381605 
L 393.583326 294.951518 
L 393.649595 295.024839 
L 393.848404 295.296345 
L 393.914673 295.447016 
L 393.980943 295.057779 
L 394.047213 295.22529 
L 394.113482 295.238889 
L 394.246021 294.724093 
L 394.44483 295.30395 
L 394.511099 294.9731 
L 394.577369 295.174286 
L 394.709908 294.975703 
L 394.974986 295.387231 
L 395.173795 294.939104 
L 395.306334 295.310292 
L 395.505143 295.186572 
L 395.703951 295.414352 
L 395.836491 295.197453 
L 395.96903 295.421677 
L 396.167838 295.156149 
L 396.234108 295.251017 
L 396.432917 295.368539 
L 396.565456 295.186679 
L 396.631725 295.291729 
L 396.830534 295.463269 
L 396.963073 295.206602 
L 397.161882 295.335148 
L 397.228151 295.230648 
L 397.294421 295.305773 
L 397.493229 295.394749 
L 398.155925 295.362978 
L 398.288464 295.322054 
L 398.487273 295.329188 
L 398.487273 295.329188 
" clip-path="url(#paa18587ebd)" style="fill: none; stroke: #1f77b4; stroke-width: 1.5; stroke-linecap: square"/>
   </g>
   <g id="patch_3">
    <path d="M 57.6 307.584 
L 57.6 41.472 
" style="fill: none; stroke: #000000; stroke-width: 0.8; stroke-linejoin: miter; stroke-linecap: square"/>
   </g>
   <g id="patch_4">
    <path d="M 414.72 307.584 
L 414.72 41.472 
" style="fill: none; stroke: #000000; stroke-width: 0.8; stroke-linejoin: miter; stroke-linecap: square"/>
   </g>
   <g id="patch_5">
    <path d="M 57.6 307.584 
L 414.72 307.584 
" style="fill: none; stroke: #000000; stroke-width: 0.8; stroke-linejoin: miter; stroke-linecap: square"/>
   </g>
   <g id="patch_6">
    <path d="M 57.6 41.472 
L 414.72 41.472 
" style="fill: none; stroke: #000000; stroke-width: 0.8; stroke-linejoin: miter; stroke-linecap: square"/>
   </g>
   <g id="text_17">
    <text style="font: 12px 'IPAexGothic'; text-anchor: middle" x="236.16" y="35.472" transform="rotate(-0 236.16 35.472)">"043_A3.wav"の振幅スペクトル</text>
   </g>
  </g>
 </g>
 <defs>
  <clipPath id="paa18587ebd">
   <rect x="57.6" y="41.472" width="357.12" height="266.112"/>
  </clipPath>
 </defs>
</svg>
