<?xml version="1.0" encoding="utf-8" standalone="no"?>
<!DOCTYPE svg PUBLIC "-//W3C//DTD SVG 1.1//EN"
  "http://www.w3.org/Graphics/SVG/1.1/DTD/svg11.dtd">
<svg xmlns:xlink="http://www.w3.org/1999/xlink" width="460.8pt" height="345.6pt" viewBox="0 0 460.8 345.6" xmlns="http://www.w3.org/2000/svg" version="1.1">
 <metadata>
  <rdf:RDF xmlns:dc="http://purl.org/dc/elements/1.1/" xmlns:cc="http://creativecommons.org/ns#" xmlns:rdf="http://www.w3.org/1999/02/22-rdf-syntax-ns#">
   <cc:Work>
    <dc:type rdf:resource="http://purl.org/dc/dcmitype/StillImage"/>
    <dc:date>2022-11-28T11:27:37.422131</dc:date>
    <dc:format>image/svg+xml</dc:format>
    <dc:creator>
     <cc:Agent>
      <dc:title>Matplotlib v3.6.2, https://matplotlib.org/</dc:title>
     </cc:Agent>
    </dc:creator>
   </cc:Work>
  </rdf:RDF>
 </metadata>
 <defs>
  <style type="text/css">*{stroke-linejoin: round; stroke-linecap: butt}</style>
 </defs>
 <g id="figure_1">
  <g id="patch_1">
   <path d="M 0 345.6 
L 460.8 345.6 
L 460.8 0 
L 0 0 
z
" style="fill: #ffffff"/>
  </g>
  <g id="axes_1">
   <g id="patch_2">
    <path d="M 57.6 307.584 
L 414.72 307.584 
L 414.72 41.472 
L 57.6 41.472 
z
" style="fill: #ffffff"/>
   </g>
   <g id="matplotlib.axis_1">
    <g id="xtick_1">
     <g id="line2d_1">
      <defs>
       <path id="mb59b152c13" d="M 0 0 
L 0 3.5 
" style="stroke: #000000; stroke-width: 0.8"/>
      </defs>
      <g>
       <use xlink:href="#mb59b152c13" x="73.832727" y="307.584" style="stroke: #000000; stroke-width: 0.8"/>
      </g>
     </g>
     <g id="text_1">
      <text style="font: 10px 'IPAexGothic'; text-anchor: middle" x="73.832727" y="322.074625" transform="rotate(-0 73.832727 322.074625)">0</text>
     </g>
    </g>
    <g id="xtick_2">
     <g id="line2d_2">
      <g>
       <use xlink:href="#mb59b152c13" x="140.102281" y="307.584" style="stroke: #000000; stroke-width: 0.8"/>
      </g>
     </g>
     <g id="text_2">
      <text style="font: 10px 'IPAexGothic'; text-anchor: middle" x="140.102281" y="322.074625" transform="rotate(-0 140.102281 322.074625)">1000</text>
     </g>
    </g>
    <g id="xtick_3">
     <g id="line2d_3">
      <g>
       <use xlink:href="#mb59b152c13" x="206.371835" y="307.584" style="stroke: #000000; stroke-width: 0.8"/>
      </g>
     </g>
     <g id="text_3">
      <text style="font: 10px 'IPAexGothic'; text-anchor: middle" x="206.371835" y="322.074625" transform="rotate(-0 206.371835 322.074625)">2000</text>
     </g>
    </g>
    <g id="xtick_4">
     <g id="line2d_4">
      <g>
       <use xlink:href="#mb59b152c13" x="272.64139" y="307.584" style="stroke: #000000; stroke-width: 0.8"/>
      </g>
     </g>
     <g id="text_4">
      <text style="font: 10px 'IPAexGothic'; text-anchor: middle" x="272.64139" y="322.074625" transform="rotate(-0 272.64139 322.074625)">3000</text>
     </g>
    </g>
    <g id="xtick_5">
     <g id="line2d_5">
      <g>
       <use xlink:href="#mb59b152c13" x="338.910944" y="307.584" style="stroke: #000000; stroke-width: 0.8"/>
      </g>
     </g>
     <g id="text_5">
      <text style="font: 10px 'IPAexGothic'; text-anchor: middle" x="338.910944" y="322.074625" transform="rotate(-0 338.910944 322.074625)">4000</text>
     </g>
    </g>
    <g id="xtick_6">
     <g id="line2d_6">
      <g>
       <use xlink:href="#mb59b152c13" x="405.180498" y="307.584" style="stroke: #000000; stroke-width: 0.8"/>
      </g>
     </g>
     <g id="text_6">
      <text style="font: 10px 'IPAexGothic'; text-anchor: middle" x="405.180498" y="322.074625" transform="rotate(-0 405.180498 322.074625)">5000</text>
     </g>
    </g>
    <g id="text_7">
     <text style="font: 10px 'IPAexGothic'; text-anchor: middle" x="236.16" y="335.924625" transform="rotate(-0 236.16 335.924625)">周波数[Hz]</text>
    </g>
   </g>
   <g id="matplotlib.axis_2">
    <g id="ytick_1">
     <g id="line2d_7">
      <defs>
       <path id="m004803209d" d="M 0 0 
L -3.5 0 
" style="stroke: #000000; stroke-width: 0.8"/>
      </defs>
      <g>
       <use xlink:href="#m004803209d" x="57.6" y="295.490304" style="stroke: #000000; stroke-width: 0.8"/>
      </g>
     </g>
     <g id="text_8">
      <text style="font: 10px 'IPAexGothic'; text-anchor: end" x="50.6" y="299.235616" transform="rotate(-0 50.6 299.235616)">0.0</text>
     </g>
    </g>
    <g id="ytick_2">
     <g id="line2d_8">
      <g>
       <use xlink:href="#m004803209d" x="57.6" y="239.404632" style="stroke: #000000; stroke-width: 0.8"/>
      </g>
     </g>
     <g id="text_9">
      <text style="font: 10px 'IPAexGothic'; text-anchor: end" x="50.6" y="243.149944" transform="rotate(-0 50.6 243.149944)">0.5</text>
     </g>
    </g>
    <g id="ytick_3">
     <g id="line2d_9">
      <g>
       <use xlink:href="#m004803209d" x="57.6" y="183.31896" style="stroke: #000000; stroke-width: 0.8"/>
      </g>
     </g>
     <g id="text_10">
      <text style="font: 10px 'IPAexGothic'; text-anchor: end" x="50.6" y="187.064272" transform="rotate(-0 50.6 187.064272)">1.0</text>
     </g>
    </g>
    <g id="ytick_4">
     <g id="line2d_10">
      <g>
       <use xlink:href="#m004803209d" x="57.6" y="127.233288" style="stroke: #000000; stroke-width: 0.8"/>
      </g>
     </g>
     <g id="text_11">
      <text style="font: 10px 'IPAexGothic'; text-anchor: end" x="50.6" y="130.978601" transform="rotate(-0 50.6 130.978601)">1.5</text>
     </g>
    </g>
    <g id="ytick_5">
     <g id="line2d_11">
      <g>
       <use xlink:href="#m004803209d" x="57.6" y="71.147616" style="stroke: #000000; stroke-width: 0.8"/>
      </g>
     </g>
     <g id="text_12">
      <text style="font: 10px 'IPAexGothic'; text-anchor: end" x="50.6" y="74.892929" transform="rotate(-0 50.6 74.892929)">2.0</text>
     </g>
    </g>
    <g id="text_13">
     <text style="font: 10px 'IPAexGothic'; text-anchor: middle" x="29.460938" y="174.528" transform="rotate(-90 29.460938 174.528)">振幅</text>
    </g>
    <g id="text_14">
     <text style="font: 10px 'IPAexGothic'; text-anchor: start" x="57.6" y="38.472" transform="rotate(-0 57.6 38.472)">1e7</text>
    </g>
   </g>
   <g id="line2d_12">
    <path d="M 73.832727 294.850097 
L 73.898997 295.231218 
L 73.965266 295.20258 
L 74.097805 295.116357 
L 74.164075 295.377442 
L 74.230345 295.198827 
L 74.296614 295.02275 
L 74.362884 295.286231 
L 74.429153 295.023068 
L 74.495423 295.282358 
L 74.627962 293.933166 
L 74.694231 294.212835 
L 74.760501 294.81559 
L 74.89304 293.01199 
L 75.025579 295.225603 
L 75.091849 294.748228 
L 75.224388 295.126358 
L 75.356927 294.703232 
L 75.754544 295.359886 
L 75.820814 294.865681 
L 75.887083 294.984253 
L 75.953353 294.987971 
L 76.019623 295.216707 
L 76.085892 294.899097 
L 76.152162 294.955502 
L 76.218431 294.84128 
L 76.284701 295.254321 
L 76.41724 293.506672 
L 76.549779 293.794455 
L 76.682318 295.120404 
L 76.748588 294.641359 
L 76.814857 294.954835 
L 76.881127 295.305937 
L 77.079935 294.469518 
L 77.146205 294.455702 
L 77.278744 294.75658 
L 77.345014 294.459487 
L 77.411283 294.638907 
L 77.477553 294.676227 
L 77.543822 294.976206 
L 77.676361 294.29523 
L 77.742631 294.382514 
L 77.87517 294.791849 
L 78.007709 294.070275 
L 78.140248 294.712868 
L 78.206518 294.58402 
L 78.272787 294.858722 
L 78.405327 294.428231 
L 78.471596 294.44814 
L 78.537866 293.948217 
L 78.604135 294.423544 
L 78.736674 293.469177 
L 78.802944 293.492761 
L 78.935483 292.953528 
L 79.001752 293.055524 
L 79.068022 293.217668 
L 79.3331 294.666672 
L 79.531909 292.879112 
L 79.730718 291.897127 
L 79.796987 290.783761 
L 79.995796 294.245303 
L 80.194604 292.040221 
L 80.260874 292.675678 
L 80.327144 285.589533 
L 80.393413 286.504679 
L 80.459683 290.91893 
L 80.525952 287.963963 
L 80.658491 275.146041 
L 80.79103 292.873525 
L 80.989839 206.394371 
L 81.188648 53.568 
L 81.387456 288.217669 
L 81.519996 274.273488 
L 81.785074 294.113176 
L 81.851343 286.537524 
L 81.917613 287.431388 
L 81.983882 292.058235 
L 82.050152 291.653967 
L 82.116422 290.930834 
L 82.248961 293.21938 
L 82.31523 289.588484 
L 82.3815 290.672973 
L 82.447769 291.060983 
L 82.580308 292.991705 
L 82.712848 292.150271 
L 82.779117 291.324415 
L 82.911656 293.168947 
L 82.977926 292.871242 
L 83.044195 292.963403 
L 83.243004 293.542875 
L 83.309274 293.93566 
L 83.375543 293.731788 
L 83.441813 294.01797 
L 83.508082 292.872754 
L 83.640621 293.890784 
L 83.706891 293.559544 
L 83.905699 294.473106 
L 84.104508 293.507634 
L 84.303317 293.722404 
L 84.369586 295.17294 
L 84.435856 294.497928 
L 84.568395 295.146293 
L 84.634665 295.017162 
L 84.833473 292.854326 
L 84.899743 293.852852 
L 84.966012 293.310374 
L 85.032282 292.880585 
L 85.231091 289.621271 
L 85.29736 289.336381 
L 85.36363 286.430682 
L 85.429899 287.406507 
L 85.496169 289.595823 
L 85.562438 288.951044 
L 85.628708 289.496847 
L 85.694977 288.511722 
L 85.827517 292.374841 
L 85.893786 291.64397 
L 85.960056 291.675113 
L 86.026325 292.219403 
L 86.092595 292.182734 
L 86.158864 292.084056 
L 86.291403 292.622993 
L 86.357673 291.897954 
L 86.622751 295.2594 
L 86.75529 292.309244 
L 86.82156 292.938812 
L 86.887829 293.760217 
L 86.954099 293.694521 
L 87.020369 291.514147 
L 87.086638 293.053755 
L 87.152908 292.6077 
L 87.351716 294.398379 
L 87.417986 294.054606 
L 87.484255 294.809816 
L 87.616795 292.90164 
L 87.683064 293.69324 
L 87.815603 281.634158 
L 87.881873 292.19089 
L 87.948142 285.102684 
L 88.080681 277.585064 
L 88.146951 281.394972 
L 88.213221 275.430569 
L 88.27949 239.524903 
L 88.34576 253.401468 
L 88.412029 239.862721 
L 88.478299 130.267621 
L 88.544568 175.692056 
L 88.677107 263.716094 
L 88.743377 260.961864 
L 88.875916 287.116813 
L 88.942186 280.637478 
L 89.008455 288.713697 
L 89.074725 283.567347 
L 89.140994 285.327627 
L 89.207264 291.807591 
L 89.273533 289.867651 
L 89.339803 289.501846 
L 89.472342 291.999982 
L 89.538612 290.807351 
L 89.671151 292.356929 
L 89.73742 291.317413 
L 89.80369 291.928756 
L 89.869959 292.810768 
L 89.936229 292.761835 
L 90.201307 292.209679 
L 90.267577 292.87246 
L 90.333846 292.821404 
L 90.400116 292.985524 
L 90.532655 293.855681 
L 90.598924 293.389599 
L 90.665194 294.206993 
L 90.797733 292.122598 
L 90.930272 293.470675 
L 91.129081 294.353815 
L 91.19535 294.136678 
L 91.394159 292.490115 
L 91.791776 294.779802 
L 91.858046 294.711555 
L 91.990585 292.38 
L 92.056855 292.932694 
L 92.123124 293.003297 
L 92.321933 294.562596 
L 92.454472 293.626933 
L 92.520742 293.69331 
L 92.587011 293.798428 
L 92.653281 293.60616 
L 92.852089 295.106382 
L 93.382246 292.340155 
L 93.581054 295.067798 
L 93.647324 295.400369 
L 93.846133 293.512395 
L 93.912402 292.235454 
L 93.978672 293.607142 
L 94.044941 293.115652 
L 94.111211 293.998931 
L 94.17748 293.297791 
L 94.376289 294.726181 
L 94.442559 294.33604 
L 94.508828 294.504565 
L 94.575098 294.928178 
L 94.641367 294.681293 
L 94.707637 292.998311 
L 94.773906 293.830024 
L 94.840176 294.546454 
L 95.038985 291.037725 
L 95.105254 293.103702 
L 95.304063 280.951972 
L 95.436602 293.41704 
L 95.569141 279.660713 
L 95.70168 201.919194 
L 95.76795 234.360705 
L 95.900489 288.768855 
L 96.033028 268.665291 
L 96.099297 284.266866 
L 96.165567 276.61247 
L 96.364376 294.749475 
L 96.496915 292.265516 
L 96.563184 293.260558 
L 96.629454 295.08843 
L 96.695723 292.941269 
L 96.761993 293.404262 
L 97.027071 295.048763 
L 97.093341 294.304849 
L 97.15961 294.326985 
L 97.22588 294.102441 
L 97.424689 294.907639 
L 97.490958 294.454664 
L 97.557228 294.528342 
L 97.623497 295.245762 
L 97.689767 295.123162 
L 97.756036 295.034288 
L 97.822306 294.598701 
L 97.888575 294.696864 
L 98.021115 295.411977 
L 98.286193 294.248942 
L 98.352462 294.390402 
L 98.485001 295.201101 
L 98.551271 294.55063 
L 98.61754 294.708112 
L 98.68381 295.049304 
L 98.75008 295.033404 
L 98.816349 294.748956 
L 98.882619 294.870268 
L 98.948888 295.201681 
L 99.081427 293.932441 
L 99.213966 294.816397 
L 99.280236 294.427833 
L 99.346506 294.236684 
L 99.412775 295.068393 
L 99.479045 294.923874 
L 99.677853 294.631838 
L 99.744123 294.740231 
L 99.810392 294.451244 
L 100.075471 295.195356 
L 100.14174 294.788053 
L 100.20801 295.219583 
L 100.274279 294.673084 
L 100.340549 294.987523 
L 100.406818 295.239612 
L 100.605627 294.318062 
L 100.671897 294.488637 
L 100.738166 295.424395 
L 100.804436 294.501483 
L 100.870705 294.552116 
L 100.936975 294.608003 
L 101.003244 295.101411 
L 101.069514 294.71387 
L 101.135784 294.757739 
L 101.202053 295.344727 
L 101.268323 295.016285 
L 101.334592 295.003484 
L 101.400862 295.298034 
L 101.467131 294.804686 
L 101.533401 295.188474 
L 101.73221 293.871005 
L 101.931018 294.765336 
L 101.997288 294.358602 
L 102.063557 294.918112 
L 102.129827 294.568093 
L 102.196096 293.568162 
L 102.262366 294.109353 
L 102.328636 293.644667 
L 102.527444 287.74577 
L 102.593714 268.870526 
L 102.726253 289.050822 
L 102.925062 250.662394 
L 103.057601 286.208593 
L 103.12387 277.413162 
L 103.19014 278.027319 
L 103.256409 278.20554 
L 103.322679 265.885561 
L 103.587757 294.726403 
L 103.654027 290.966792 
L 103.786566 294.31585 
L 103.919105 292.889294 
L 103.985374 294.295318 
L 104.051644 294.236464 
L 104.184183 293.040374 
L 104.449261 294.982925 
L 104.515531 294.856564 
L 104.64807 293.976168 
L 104.913148 294.858594 
L 104.979418 294.923727 
L 105.111957 293.980319 
L 105.178226 294.491406 
L 105.310765 294.017751 
L 105.443305 295.022823 
L 105.509574 294.931751 
L 105.708383 294.185654 
L 105.774652 294.404442 
L 105.840922 294.281868 
L 105.907191 294.562979 
L 106.039731 294.080136 
L 106.106 294.834017 
L 106.17227 294.796766 
L 106.238539 294.755108 
L 106.304809 294.855504 
L 106.371078 294.636243 
L 106.437348 294.009636 
L 106.503617 294.308327 
L 106.569887 294.488657 
L 106.702426 294.185084 
L 106.768696 294.574333 
L 106.967504 293.978237 
L 107.033774 294.036239 
L 107.232583 295.351066 
L 107.431391 294.35734 
L 107.56393 295.299168 
L 107.6302 295.177879 
L 107.762739 294.845978 
L 107.895278 295.228587 
L 108.160356 294.425008 
L 108.226626 294.569757 
L 108.292895 294.893528 
L 108.359165 294.859001 
L 108.425435 294.966255 
L 108.557974 294.838897 
L 108.690513 295.280783 
L 108.756782 295.325241 
L 108.823052 295.208982 
L 108.889321 295.400319 
L 109.08813 294.0788 
L 109.1544 294.68955 
L 109.220669 294.362318 
L 109.286939 294.386282 
L 109.353208 293.80707 
L 109.552017 295.049328 
L 109.750826 286.830056 
L 109.817095 292.805731 
L 109.883365 283.586342 
L 109.949634 291.688261 
L 110.015904 281.029348 
L 110.082173 288.402486 
L 110.148443 271.042048 
L 110.214712 281.298159 
L 110.280982 278.7174 
L 110.347252 251.319946 
L 110.54606 290.240572 
L 110.61233 291.233647 
L 110.678599 287.193185 
L 110.811138 291.114932 
L 110.877408 290.777203 
L 111.076217 294.435003 
L 111.142486 294.636739 
L 111.208756 294.447057 
L 111.275025 294.61035 
L 111.341295 294.21995 
L 111.407564 294.480689 
L 111.473834 295.293114 
L 111.672643 293.146081 
L 111.805182 294.743246 
L 111.871451 294.58689 
L 112.07026 295.242725 
L 112.13653 295.101784 
L 112.202799 294.614695 
L 112.269069 294.987992 
L 112.335338 294.943922 
L 112.401608 295.034664 
L 112.600416 294.450677 
L 112.732956 295.23122 
L 112.865495 294.792998 
L 113.064303 295.126659 
L 113.196842 294.646013 
L 113.263112 294.893592 
L 113.329382 294.85066 
L 113.395651 293.85503 
L 113.461921 294.749614 
L 113.59446 293.267463 
L 113.726999 294.953311 
L 113.793268 294.37909 
L 113.859538 295.01554 
L 113.925807 294.89779 
L 113.992077 294.591747 
L 114.124616 295.277471 
L 114.190886 294.941667 
L 114.323425 295.288047 
L 114.389694 295.104532 
L 114.522233 295.357029 
L 114.654773 295.038547 
L 114.721042 295.11899 
L 114.787312 295.047871 
L 114.919851 294.693445 
L 115.05239 295.226421 
L 115.118659 294.792976 
L 115.184929 295.206957 
L 115.251199 295.129275 
L 115.383738 294.51285 
L 115.582546 295.330193 
L 115.648816 295.334362 
L 115.913894 294.358386 
L 116.112703 294.957581 
L 116.178972 294.926444 
L 116.245242 295.17504 
L 116.311511 294.86528 
L 116.377781 295.334254 
L 116.444051 295.268295 
L 116.642859 294.220059 
L 116.709129 294.660766 
L 116.775398 294.048472 
L 116.841668 294.838727 
L 117.106746 288.518406 
L 117.173016 293.116404 
L 117.239285 285.206127 
L 117.305555 291.529377 
L 117.504363 277.050183 
L 117.570633 291.146448 
L 117.636903 288.033311 
L 117.703172 287.027713 
L 117.769442 275.279983 
L 117.96825 294.577687 
L 118.03452 287.535662 
L 118.100789 288.771681 
L 118.233329 292.118295 
L 118.299598 294.54919 
L 118.365868 293.640417 
L 118.432137 293.604593 
L 118.564676 294.427604 
L 118.630946 294.976105 
L 118.697215 294.749417 
L 118.763485 294.736946 
L 118.829754 294.960691 
L 118.896024 294.256372 
L 118.962294 294.618219 
L 119.028563 294.236007 
L 119.227372 295.413171 
L 119.359911 294.739963 
L 119.42618 294.986563 
L 119.49245 295.272707 
L 119.691259 294.844584 
L 119.757528 295.255573 
L 119.823798 295.121339 
L 119.890067 294.337099 
L 120.022606 295.131918 
L 120.088876 294.671999 
L 120.155146 295.038655 
L 120.221415 295.023697 
L 120.420224 294.631431 
L 120.486493 294.684057 
L 120.619032 295.214821 
L 120.685302 295.125262 
L 120.751572 294.98002 
L 120.884111 295.394127 
L 120.95038 295.2758 
L 121.082919 294.829571 
L 121.149189 295.074855 
L 121.215458 294.555814 
L 121.281728 294.784377 
L 121.347998 294.700734 
L 121.414267 294.850934 
L 121.480537 294.758598 
L 121.546806 295.471449 
L 121.613076 294.996382 
L 121.679345 295.37168 
L 121.745615 295.295219 
L 122.010693 294.314773 
L 122.143232 295.256718 
L 122.275771 294.895769 
L 122.342041 294.942788 
L 122.47458 294.342599 
L 122.673389 295.225943 
L 122.739658 294.941448 
L 122.872197 295.322648 
L 123.071006 294.68045 
L 123.137276 294.785011 
L 123.269815 295.477917 
L 123.402354 294.529436 
L 123.468623 294.70637 
L 123.534893 294.62652 
L 123.601162 295.331506 
L 123.733701 294.475859 
L 123.799971 294.848651 
L 123.866241 293.239204 
L 123.93251 294.045815 
L 123.99878 292.818926 
L 124.065049 293.98383 
L 124.131319 293.888486 
L 124.197588 291.210041 
L 124.263858 291.927056 
L 124.330127 290.643361 
L 124.396397 291.10413 
L 124.462667 294.163078 
L 124.528936 293.900858 
L 124.727745 288.323459 
L 124.794014 283.818909 
L 124.860284 284.103603 
L 124.926553 294.760921 
L 124.992823 279.057525 
L 125.125362 290.604786 
L 125.191632 291.729655 
L 125.39044 287.249897 
L 125.655519 293.815803 
L 125.721788 293.727868 
L 125.788058 294.163463 
L 125.854327 294.052815 
L 125.920597 292.381207 
L 126.053136 294.860561 
L 126.185675 294.608247 
L 126.251945 295.305808 
L 126.318214 294.860861 
L 126.450753 294.38383 
L 126.583292 295.028126 
L 126.649562 294.799775 
L 126.715831 294.842883 
L 126.848371 295.082921 
L 126.91464 295.32332 
L 126.98091 294.938891 
L 127.113449 293.068111 
L 127.444797 294.850682 
L 127.577336 294.772547 
L 127.709875 294.314761 
L 127.776144 294.442692 
L 127.842414 294.273235 
L 128.041223 295.170709 
L 128.107492 295.075113 
L 128.173762 294.69898 
L 128.37257 295.321705 
L 128.43884 294.499013 
L 128.505109 294.658284 
L 128.571379 295.13227 
L 128.637648 295.059646 
L 128.770188 295.299133 
L 128.968996 294.925634 
L 129.035266 295.122593 
L 129.167805 294.509067 
L 129.366614 294.993352 
L 129.432883 295.34905 
L 129.499153 295.225568 
L 129.697961 294.985302 
L 129.764231 295.11051 
L 129.8305 294.919213 
L 129.89677 294.964251 
L 130.029309 295.043042 
L 130.161848 294.975626 
L 130.228118 295.408699 
L 130.294387 295.191932 
L 130.426926 295.048944 
L 130.493196 295.368458 
L 130.559466 295.050818 
L 130.625735 295.107315 
L 130.692005 295.124102 
L 130.824544 294.801167 
L 130.890813 295.080682 
L 130.957083 294.510265 
L 131.089622 295.387171 
L 131.155892 295.083908 
L 131.3547 293.191689 
L 131.487239 294.51928 
L 131.553509 290.335255 
L 131.619778 292.678247 
L 131.752318 293.816986 
L 131.951126 288.834035 
L 132.017396 288.863902 
L 132.083665 293.345373 
L 132.149935 282.911659 
L 132.216204 293.255493 
L 132.282474 289.593967 
L 132.348744 285.855837 
L 132.481283 294.741596 
L 132.547552 293.331937 
L 132.613822 294.695604 
L 132.746361 289.906595 
L 132.81263 293.437834 
L 132.8789 292.90588 
L 132.94517 293.070398 
L 133.077709 293.847143 
L 133.143978 293.471796 
L 133.210248 293.991453 
L 133.276517 293.528734 
L 133.342787 295.035062 
L 133.409056 294.7624 
L 133.475326 294.813595 
L 133.541596 294.335911 
L 133.607865 295.294228 
L 133.674135 294.69646 
L 133.806674 294.933064 
L 133.872943 295.208854 
L 133.939213 295.055663 
L 134.005482 294.60623 
L 134.071752 295.122607 
L 134.138021 295.004643 
L 134.204291 294.805547 
L 134.270561 295.033518 
L 134.33683 294.620118 
L 134.4031 295.280518 
L 134.469369 294.999769 
L 134.601908 294.49858 
L 134.800717 294.885783 
L 134.866987 294.661552 
L 134.933256 295.0466 
L 134.999526 294.98146 
L 135.065795 294.857386 
L 135.198334 295.265766 
L 135.264604 294.782142 
L 135.330873 294.975424 
L 135.529682 294.390196 
L 135.595952 294.414329 
L 135.662221 295.019149 
L 135.728491 294.900337 
L 135.79476 295.033043 
L 135.86103 294.406564 
L 135.927299 294.721 
L 135.993569 294.732096 
L 136.126108 295.137282 
L 136.192378 294.945399 
L 136.258647 295.256172 
L 136.324917 294.652903 
L 136.457456 295.202868 
L 136.589995 295.405461 
L 136.656265 295.147076 
L 136.722534 295.205803 
L 136.921343 295.015686 
L 136.987612 294.757655 
L 137.120151 295.096427 
L 137.31896 294.429364 
L 137.38523 295.124642 
L 137.451499 294.771049 
L 137.517769 294.349307 
L 137.650308 295.20435 
L 137.716577 295.225414 
L 137.782847 294.602475 
L 137.915386 295.15458 
L 137.981656 295.137617 
L 138.047925 294.804558 
L 138.114195 295.026666 
L 138.313003 294.163941 
L 138.379273 294.712449 
L 138.445543 293.96728 
L 138.578082 294.753341 
L 138.644351 292.666569 
L 138.710621 294.277789 
L 138.77689 293.407013 
L 138.84316 294.357134 
L 138.909429 293.060678 
L 138.975699 289.539835 
L 139.041968 293.502649 
L 139.108238 291.554205 
L 139.240777 286.272633 
L 139.439586 292.660711 
L 139.638394 274.775325 
L 139.770934 292.247478 
L 139.837203 289.756498 
L 139.969742 286.359086 
L 140.036012 293.156518 
L 140.102281 290.959583 
L 140.168551 287.463651 
L 140.36736 293.782813 
L 140.433629 293.601523 
L 140.499899 294.493638 
L 140.566168 293.985664 
L 140.698707 293.082129 
L 140.897516 294.9788 
L 140.963786 294.151927 
L 141.030055 294.788715 
L 141.162594 293.917626 
L 141.228864 294.235516 
L 141.427672 293.118591 
L 141.493942 295.319372 
L 141.560212 294.773059 
L 141.626481 295.343081 
L 141.692751 294.762877 
L 141.75902 294.909096 
L 141.891559 295.438244 
L 141.957829 295.359977 
L 142.024098 294.752483 
L 142.090368 295.431244 
L 142.156638 295.309157 
L 142.222907 294.735782 
L 142.289177 295.183166 
L 142.421716 294.417769 
L 142.554255 294.625423 
L 142.620524 294.370466 
L 142.686794 294.879159 
L 142.753064 294.800782 
L 142.819333 294.575246 
L 142.885603 294.697133 
L 143.084411 294.190371 
L 143.150681 294.512925 
L 143.28322 293.769411 
L 143.34949 294.689295 
L 143.415759 293.359937 
L 143.482029 294.997822 
L 143.548298 294.876994 
L 143.680837 294.974337 
L 143.747107 295.147226 
L 143.945915 293.935597 
L 144.012185 294.429851 
L 144.078455 293.708769 
L 144.144724 294.021147 
L 144.210994 294.772396 
L 144.343533 292.789164 
L 144.476072 293.99995 
L 144.608611 293.318679 
L 144.80742 294.020643 
L 144.873689 293.215747 
L 144.939959 293.677423 
L 145.072498 292.680208 
L 145.138767 293.422986 
L 145.205037 293.37058 
L 145.403846 294.020232 
L 145.602654 294.693067 
L 145.668924 292.359725 
L 145.735193 293.89759 
L 145.867733 295.057734 
L 145.934002 292.655613 
L 146.000272 295.036897 
L 146.066541 294.878235 
L 146.132811 294.927188 
L 146.26535 292.395358 
L 146.331619 293.50141 
L 146.397889 289.401422 
L 146.530428 292.832032 
L 146.596698 292.131929 
L 146.662967 289.764919 
L 146.729237 291.01512 
L 146.795506 292.070318 
L 146.861776 279.860206 
L 146.928045 282.770542 
L 147.060585 293.14539 
L 147.259393 290.921876 
L 147.325663 291.406523 
L 147.458202 293.234199 
L 147.524471 292.025697 
L 147.590741 292.951427 
L 147.657011 292.220313 
L 147.72328 289.63888 
L 147.922089 293.67199 
L 147.988358 294.222648 
L 148.054628 293.949546 
L 148.120897 293.917168 
L 148.253437 295.234887 
L 148.385976 294.3562 
L 148.452245 294.892863 
L 148.518515 294.601174 
L 148.584784 294.479565 
L 148.783593 294.932684 
L 148.916132 295.009958 
L 148.982402 295.196266 
L 149.18121 294.681431 
L 149.24748 295.178838 
L 149.446288 294.581127 
L 149.578828 295.100432 
L 149.777636 294.606807 
L 149.976445 295.395228 
L 150.175254 294.270595 
L 150.241523 294.330566 
L 150.506601 295.127285 
L 150.572871 294.937539 
L 150.63914 295.107863 
L 150.77168 294.852961 
L 150.904219 295.132793 
L 150.970488 294.971374 
L 151.036758 295.1533 
L 151.103027 294.866396 
L 151.169297 295.087612 
L 151.301836 294.756614 
L 151.368106 295.099638 
L 151.434375 294.924403 
L 151.566914 294.901413 
L 151.633184 295.16376 
L 151.699453 295.022284 
L 151.831992 295.111572 
L 151.898262 295.174531 
L 152.097071 294.259288 
L 152.16334 293.871372 
L 152.494688 295.367534 
L 152.560958 295.154638 
L 152.627227 294.482323 
L 152.826036 295.254132 
L 152.892305 293.605157 
L 152.958575 294.648292 
L 153.024844 293.924065 
L 153.091114 294.296446 
L 153.157384 294.342051 
L 153.223653 292.974868 
L 153.289923 293.098558 
L 153.356192 293.831495 
L 153.488731 292.734681 
L 153.555001 295.386994 
L 153.62127 291.638764 
L 153.753809 294.252502 
L 153.820079 289.988676 
L 153.886349 292.58486 
L 153.952618 292.331934 
L 154.018888 292.784053 
L 154.085157 291.914809 
L 154.151427 288.817332 
L 154.217696 292.271317 
L 154.283966 290.042007 
L 154.350235 291.766932 
L 154.416505 289.076151 
L 154.482775 291.730823 
L 154.549044 289.502757 
L 154.615314 290.609805 
L 154.681583 289.291254 
L 154.747853 293.916294 
L 154.814122 290.071155 
L 154.880392 295.145577 
L 154.946661 291.078166 
L 155.012931 291.983428 
L 155.079201 294.59799 
L 155.14547 293.068839 
L 155.21174 294.679614 
L 155.278009 293.440231 
L 155.344279 293.726861 
L 155.410548 293.814786 
L 155.476818 294.942635 
L 155.543087 294.297282 
L 155.675627 295.082043 
L 155.741896 294.659272 
L 155.808166 294.929028 
L 155.874435 295.163322 
L 156.006974 294.645715 
L 156.073244 294.918742 
L 156.139513 294.405567 
L 156.272053 294.926871 
L 156.338322 294.829145 
L 156.470861 295.119154 
L 156.6034 294.408915 
L 156.735939 295.088997 
L 156.802209 294.937865 
L 156.868479 295.112427 
L 157.001018 294.663331 
L 157.067287 294.880331 
L 157.266096 293.445641 
L 157.332365 294.366278 
L 157.398635 293.461123 
L 157.464905 294.312251 
L 157.663713 292.095426 
L 157.796252 293.260662 
L 157.928791 292.138744 
L 157.995061 294.454114 
L 158.061331 293.42105 
L 158.19387 294.405071 
L 158.260139 294.311026 
L 158.326409 293.544985 
L 158.392678 294.054817 
L 158.458948 294.77303 
L 158.525217 294.512511 
L 158.591487 294.346586 
L 158.657756 294.577375 
L 158.724026 294.351473 
L 158.856565 295.123013 
L 158.922835 294.639389 
L 158.989104 294.879827 
L 159.055374 294.607588 
L 159.121643 295.221322 
L 159.254182 294.577138 
L 159.320452 295.29349 
L 159.386722 294.128003 
L 159.452991 294.599814 
L 159.6518 295.322446 
L 159.784339 294.803476 
L 159.850608 295.441474 
L 159.916878 295.39843 
L 160.049417 294.858765 
L 160.115687 295.447441 
L 160.314495 293.638517 
L 160.380765 293.592574 
L 160.579574 294.44419 
L 160.778382 293.231442 
L 160.844652 294.11436 
L 160.910921 293.539266 
L 160.977191 293.602502 
L 161.04346 292.731195 
L 161.10973 295.128787 
L 161.176 293.517091 
L 161.242269 293.465405 
L 161.308539 294.399907 
L 161.374808 289.038313 
L 161.441078 290.128321 
L 161.507347 294.804661 
L 161.573617 292.217802 
L 161.639886 294.164917 
L 161.706156 293.444541 
L 161.772426 293.517405 
L 161.904965 294.391588 
L 161.971234 293.714324 
L 162.037504 294.791199 
L 162.103773 293.76733 
L 162.170043 295.004931 
L 162.236312 294.849573 
L 162.302582 292.220242 
L 162.368852 293.692954 
L 162.501391 295.308395 
L 162.56766 293.993669 
L 162.63393 294.005296 
L 162.700199 295.027485 
L 162.766469 294.328743 
L 162.832738 294.706447 
L 162.965278 295.073734 
L 163.031547 294.919473 
L 163.164086 295.171035 
L 163.230356 294.753734 
L 163.362895 295.358011 
L 163.429164 294.738395 
L 163.495434 295.129906 
L 163.627973 295.329276 
L 163.694243 295.348571 
L 163.959321 294.8905 
L 164.02559 294.99801 
L 164.09186 294.687257 
L 164.158129 294.803688 
L 164.224399 294.862926 
L 164.356938 295.393028 
L 164.423208 295.326418 
L 164.489477 295.095461 
L 164.555747 295.154314 
L 164.622016 295.324899 
L 164.820825 294.905282 
L 164.887095 295.134968 
L 165.085903 294.271232 
L 165.152173 294.408569 
L 165.350981 295.214851 
L 165.417251 294.692371 
L 165.483521 294.998724 
L 165.54979 295.451312 
L 165.61606 294.958125 
L 165.682329 295.150445 
L 165.748599 295.354167 
L 165.814868 294.880218 
L 165.881138 294.930396 
L 166.079947 295.30193 
L 166.146216 294.989854 
L 166.212486 295.344068 
L 166.278755 295.172019 
L 166.345025 295.023858 
L 166.411294 295.132423 
L 166.610103 295.142202 
L 166.676373 294.819831 
L 166.742642 295.428503 
L 166.808912 295.083906 
L 166.941451 295.104314 
L 167.07399 294.212335 
L 167.140259 294.279852 
L 167.206529 295.161697 
L 167.272799 294.28822 
L 167.339068 294.471541 
L 167.471607 294.037644 
L 167.537877 294.736527 
L 167.670416 292.201627 
L 167.736685 293.954657 
L 167.802955 292.773205 
L 167.869225 293.00713 
L 167.935494 294.347536 
L 168.001764 293.248681 
L 168.068033 294.873848 
L 168.134303 292.524395 
L 168.200572 293.710296 
L 168.266842 294.144845 
L 168.333111 293.376699 
L 168.465651 294.694221 
L 168.53192 289.309109 
L 168.59819 292.719012 
L 168.664459 289.967605 
L 168.730729 291.484913 
L 168.863268 294.39203 
L 168.995807 288.012124 
L 169.062076 294.524215 
L 169.128346 287.192237 
L 169.194616 291.732617 
L 169.327155 294.270038 
L 169.393424 292.712091 
L 169.459694 288.318515 
L 169.525963 294.801574 
L 169.592233 293.069539 
L 169.724772 290.997967 
L 169.791042 294.586246 
L 169.857311 294.255484 
L 169.98985 294.753497 
L 170.05612 294.586377 
L 170.122389 295.182959 
L 170.188659 294.974106 
L 170.254928 294.829214 
L 170.321198 295.139442 
L 170.387468 295.114418 
L 170.520007 295.037379 
L 170.586276 294.790392 
L 170.652546 295.295177 
L 170.718815 295.286167 
L 170.851354 295.148465 
L 170.917624 295.383923 
L 170.983894 295.117606 
L 171.050163 295.259994 
L 171.116433 295.211453 
L 171.182702 295.017457 
L 171.248972 295.306805 
L 171.315241 295.190535 
L 171.51405 295.109946 
L 171.646589 294.78331 
L 171.712859 294.998163 
L 171.779128 295.255253 
L 171.845398 295.175059 
L 171.977937 295.291964 
L 172.044206 295.327537 
L 172.110476 295.200261 
L 172.176746 295.365396 
L 172.375554 295.177195 
L 172.706902 295.195224 
L 172.773172 295.044053 
L 172.839441 295.094703 
L 172.905711 295.252822 
L 173.104519 294.790951 
L 173.303328 295.34611 
L 173.502137 295.325145 
L 173.568406 294.966916 
L 173.634676 295.274318 
L 173.700945 294.774167 
L 173.767215 295.392718 
L 173.833484 295.158126 
L 173.899754 295.046478 
L 174.032293 295.390061 
L 174.098563 295.396865 
L 174.363641 294.925308 
L 174.49618 293.968029 
L 174.562449 294.099151 
L 174.628719 292.817447 
L 174.694989 294.481757 
L 174.761258 293.88028 
L 174.827528 294.097196 
L 175.026336 293.001224 
L 175.225145 294.172786 
L 175.291415 292.41449 
L 175.357684 293.119984 
L 175.490223 293.855344 
L 175.556493 293.774963 
L 175.622762 292.545373 
L 175.821571 294.406741 
L 176.086649 284.915067 
L 176.285458 293.182889 
L 176.351727 294.252454 
L 176.417997 293.054935 
L 176.484267 293.853072 
L 176.550536 294.683619 
L 176.683075 293.956183 
L 176.749345 294.450453 
L 176.815614 292.515521 
L 176.948153 294.806544 
L 177.080693 293.301096 
L 177.41204 295.321523 
L 177.47831 295.170048 
L 177.610849 294.820821 
L 177.677119 294.727644 
L 177.743388 294.290026 
L 177.875927 295.193135 
L 177.942197 294.729588 
L 178.141005 295.213725 
L 178.273545 295.118485 
L 178.339814 295.285883 
L 178.406084 295.100202 
L 178.472353 295.181519 
L 178.604892 295.235735 
L 178.671162 295.291707 
L 178.737431 294.992209 
L 178.803701 295.425439 
L 178.86997 295.306164 
L 178.93624 295.291585 
L 179.068779 295.390015 
L 179.135049 294.982566 
L 179.201318 295.320902 
L 179.267588 294.989817 
L 179.333857 295.085998 
L 179.466396 295.191556 
L 179.598936 295.071654 
L 179.665205 295.371269 
L 179.731475 295.246979 
L 179.996553 294.247277 
L 180.129092 294.688419 
L 180.195362 294.530053 
L 180.39417 295.317727 
L 180.46044 295.425728 
L 180.592979 294.962949 
L 180.659248 295.047216 
L 180.791788 294.411526 
L 180.924327 295.138776 
L 180.990596 294.976915 
L 181.056866 295.064082 
L 181.123135 294.545899 
L 181.189405 295.168644 
L 181.255674 294.521639 
L 181.321944 295.066464 
L 181.388214 295.026232 
L 181.454483 293.822138 
L 181.520753 294.032758 
L 181.653292 294.375173 
L 181.719561 292.643239 
L 181.785831 292.870026 
L 181.8521 294.425081 
L 181.91837 290.800651 
L 181.98464 291.168862 
L 182.050909 294.662189 
L 182.117179 294.32415 
L 182.183448 292.577633 
L 182.249718 294.137255 
L 182.315987 292.089253 
L 182.382257 292.467014 
L 182.514796 294.869499 
L 182.713605 291.706418 
L 182.779874 291.213432 
L 182.978683 295.316177 
L 183.111222 292.767957 
L 183.177492 293.684386 
L 183.243761 291.81568 
L 183.310031 294.022217 
L 183.3763 291.518708 
L 183.44257 291.968142 
L 183.508839 290.727672 
L 183.641378 294.274789 
L 183.707648 293.686066 
L 183.773917 293.891691 
L 183.840187 294.93854 
L 183.972726 294.002601 
L 184.105265 294.800436 
L 184.237804 294.521094 
L 184.304074 293.101456 
L 184.370343 295.179984 
L 184.436613 294.822237 
L 184.502883 294.410185 
L 184.569152 294.548449 
L 184.701691 294.964847 
L 184.767961 294.707397 
L 185.033039 295.256828 
L 185.496926 295.016034 
L 185.629465 295.239865 
L 185.894543 295.150746 
L 185.960813 295.370246 
L 186.093352 295.075167 
L 186.159621 295.099808 
L 186.225891 295.326811 
L 186.292161 295.281436 
L 186.35843 295.20258 
L 186.4247 295.270886 
L 186.490969 295.274599 
L 186.557239 295.162467 
L 186.623508 295.252441 
L 186.689778 295.377394 
L 186.756047 295.330293 
L 186.822317 295.058842 
L 186.888587 295.081015 
L 186.954856 295.152776 
L 187.021126 294.967215 
L 187.087395 295.449737 
L 187.153665 294.946085 
L 187.219934 295.246432 
L 187.286204 295.365027 
L 187.485013 294.889287 
L 187.617552 295.218799 
L 187.683821 294.988565 
L 187.81636 295.414119 
L 188.015169 294.728265 
L 188.081439 294.509306 
L 188.280247 294.974551 
L 188.346517 294.818246 
L 188.412786 295.392479 
L 188.479056 295.098848 
L 188.545325 295.085852 
L 188.611595 295.239693 
L 188.810404 294.050686 
L 188.876673 294.975453 
L 188.942943 294.740345 
L 189.009212 294.026736 
L 189.141751 295.285982 
L 189.208021 291.929246 
L 189.27429 293.399929 
L 189.34056 293.173955 
L 189.40683 293.43612 
L 189.473099 295.214628 
L 189.605638 290.450138 
L 189.738177 291.859654 
L 189.804447 293.679509 
L 189.870716 293.252924 
L 190.069525 291.037694 
L 190.135795 293.423007 
L 190.202064 286.682211 
L 190.268334 294.710746 
L 190.334603 293.75767 
L 190.400873 292.804351 
L 190.467142 293.848876 
L 190.533412 293.501028 
L 190.599682 293.220032 
L 190.665951 290.269888 
L 190.86476 294.486969 
L 190.931029 292.76786 
L 190.997299 294.976401 
L 191.063568 294.689422 
L 191.129838 292.177418 
L 191.196108 294.047623 
L 191.328647 292.097751 
L 191.394916 294.275341 
L 191.461186 293.722158 
L 191.527455 294.058802 
L 191.659994 293.548923 
L 191.792534 290.929185 
L 191.925073 294.492693 
L 191.991342 294.396848 
L 192.057612 295.377253 
L 192.123881 294.818343 
L 192.190151 294.718623 
L 192.38896 295.367322 
L 192.455229 294.872212 
L 192.521499 295.033615 
L 192.587768 295.435533 
L 192.654038 295.255107 
L 192.852846 294.898804 
L 192.919116 295.100492 
L 193.051655 294.674283 
L 193.117925 295.032015 
L 193.184194 294.960508 
L 193.250464 294.772277 
L 193.316733 295.236284 
L 193.383003 294.910938 
L 193.449272 294.985821 
L 193.581812 295.059065 
L 193.648081 295.235819 
L 193.78062 294.971124 
L 193.84689 295.126778 
L 193.979429 294.861929 
L 194.111968 295.435783 
L 194.244507 295.129034 
L 194.310777 295.361607 
L 194.377046 294.984339 
L 194.443316 295.369868 
L 194.509585 295.042598 
L 194.575855 295.175366 
L 194.642124 295.230636 
L 194.840933 294.885132 
L 194.907203 295.246042 
L 194.973472 294.886218 
L 195.039742 295.202388 
L 195.106011 295.072422 
L 195.23855 295.09013 
L 195.30482 295.388973 
L 195.371089 295.280663 
L 195.437359 295.307898 
L 195.569898 295.155849 
L 195.636168 295.405727 
L 195.702437 294.893896 
L 195.768707 295.242622 
L 195.834976 294.975731 
L 195.901246 295.056072 
L 196.033785 295.423828 
L 196.232594 294.630804 
L 196.298863 295.020802 
L 196.365133 294.249712 
L 196.431402 295.329941 
L 196.630211 293.976034 
L 196.76275 295.139084 
L 196.82902 294.628471 
L 196.895289 295.14157 
L 196.961559 295.061338 
L 197.027828 293.882964 
L 197.094098 294.287175 
L 197.160367 294.021751 
L 197.226637 294.793106 
L 197.292907 292.378226 
L 197.359176 293.147375 
L 197.557985 293.554931 
L 197.690524 290.55449 
L 197.823063 290.917758 
L 197.889333 290.774903 
L 197.955602 294.924158 
L 198.021872 294.228157 
L 198.088141 293.956102 
L 198.154411 291.878891 
L 198.22068 294.75356 
L 198.28695 293.952402 
L 198.353219 294.371341 
L 198.552028 293.093544 
L 198.618298 295.239725 
L 198.684567 293.787269 
L 198.750837 291.686125 
L 198.883376 295.279509 
L 199.082184 293.305951 
L 199.280993 294.91807 
L 199.347263 294.052349 
L 199.413532 294.379561 
L 199.546071 295.209407 
L 199.612341 295.009372 
L 199.74488 295.414523 
L 199.81115 295.306634 
L 199.877419 295.421073 
L 199.943689 295.343243 
L 200.009958 295.342978 
L 200.076228 295.212367 
L 200.142497 295.272989 
L 200.341306 295.387306 
L 200.407576 294.924522 
L 200.473845 295.106772 
L 200.540115 295.367869 
L 200.606384 295.189658 
L 200.738923 295.416707 
L 200.805193 295.247803 
L 200.871462 295.356708 
L 200.937732 295.341308 
L 201.136541 295.029496 
L 201.335349 295.417125 
L 201.401619 295.271788 
L 201.467888 295.256554 
L 201.666697 294.725322 
L 201.799236 295.21585 
L 201.865506 294.963825 
L 201.931775 295.116307 
L 201.998045 295.38066 
L 202.064314 295.248231 
L 202.263123 295.235241 
L 202.395662 294.76396 
L 202.594471 295.15578 
L 202.72701 295.39672 
L 202.79328 294.96068 
L 202.859549 295.093492 
L 203.058358 295.219248 
L 203.124627 294.881295 
L 203.190897 295.288391 
L 203.257166 295.053282 
L 203.389706 295.072872 
L 203.455975 294.09377 
L 203.522245 295.037136 
L 203.588514 294.862243 
L 203.721053 295.320159 
L 203.787323 295.016509 
L 203.853592 293.853011 
L 204.052401 295.31904 
L 204.25121 294.456899 
L 204.317479 295.226869 
L 204.383749 294.775145 
L 204.450018 294.908281 
L 204.516288 293.254941 
L 204.582557 294.35641 
L 204.648827 294.85316 
L 204.715097 293.745386 
L 204.781366 294.008409 
L 204.847636 294.100714 
L 204.913905 294.390318 
L 204.980175 292.470778 
L 205.046444 294.048103 
L 205.112714 291.71235 
L 205.178983 293.102149 
L 205.245253 293.263723 
L 205.311523 293.994024 
L 205.377792 293.807003 
L 205.576601 294.527057 
L 205.64287 294.06478 
L 205.70914 291.902934 
L 205.841679 294.660105 
L 205.907949 292.867018 
L 205.974218 293.651937 
L 206.040488 295.008695 
L 206.106757 294.192631 
L 206.173027 293.477796 
L 206.305566 294.390069 
L 206.371835 293.894528 
L 206.438105 294.948238 
L 206.570644 294.202557 
L 206.636914 294.796559 
L 206.703183 293.90579 
L 206.835722 295.105435 
L 206.901992 294.710929 
L 207.034531 295.345298 
L 207.100801 295.104146 
L 207.16707 295.399061 
L 207.23334 295.327142 
L 207.299609 295.062554 
L 207.365879 295.14257 
L 207.432148 295.433483 
L 207.564687 295.188705 
L 207.697227 295.375211 
L 207.763496 295.145758 
L 207.829766 295.170991 
L 207.896035 295.327538 
L 207.962305 295.215963 
L 208.028574 295.098973 
L 208.094844 295.351538 
L 208.161113 295.200517 
L 208.359922 295.380079 
L 208.426192 295.401834 
L 208.492461 295.182785 
L 208.625 295.434214 
L 208.757539 294.782958 
L 208.823809 295.413086 
L 208.890078 295.122627 
L 209.022618 295.401006 
L 209.287696 295.167812 
L 209.420235 295.139897 
L 209.552774 295.381478 
L 209.685313 295.197145 
L 209.751583 295.179152 
L 209.950391 295.367542 
L 210.016661 295.360107 
L 210.08293 295.140435 
L 210.1492 295.389868 
L 210.21547 294.836394 
L 210.281739 295.197244 
L 210.348009 295.109649 
L 210.414278 295.297432 
L 210.480548 295.165401 
L 210.546817 294.987128 
L 210.613087 295.168864 
L 210.679356 294.758957 
L 210.745626 295.172659 
L 210.811896 294.96111 
L 210.944435 294.908982 
L 211.010704 294.483522 
L 211.076974 295.080963 
L 211.209513 294.363151 
L 211.275782 294.162467 
L 211.474591 295.411688 
L 211.739669 292.586456 
L 212.004748 295.28974 
L 212.071017 295.005791 
L 212.137287 292.681861 
L 212.203556 293.373651 
L 212.269826 293.404219 
L 212.336095 294.810593 
L 212.468634 291.78673 
L 212.667443 294.949359 
L 212.733713 292.361606 
L 212.799982 293.391919 
L 212.866252 294.847744 
L 212.932521 293.556939 
L 212.998791 293.959194 
L 213.1976 295.436387 
L 213.263869 293.733225 
L 213.330139 294.579689 
L 213.528947 293.215338 
L 213.595217 295.155889 
L 213.661486 295.074467 
L 213.727756 294.92182 
L 213.794025 294.296617 
L 213.860295 294.622367 
L 213.926565 294.255104 
L 213.992834 294.588345 
L 214.059104 294.153988 
L 214.191643 295.273686 
L 214.324182 295.072172 
L 214.390451 295.028673 
L 214.456721 295.368928 
L 214.522991 295.140376 
L 214.58926 295.384528 
L 214.65553 295.340553 
L 214.721799 295.39067 
L 214.788069 295.236024 
L 214.854338 295.423844 
L 214.986877 294.956509 
L 215.053147 295.258327 
L 215.119417 295.067716 
L 215.251956 295.01802 
L 215.450764 295.369258 
L 215.517034 295.213608 
L 215.583303 294.608707 
L 215.649573 295.388025 
L 215.715843 295.129342 
L 215.782112 295.15844 
L 215.848382 294.787009 
L 215.914651 294.957807 
L 215.980921 295.126846 
L 216.04719 294.746599 
L 216.11346 294.989587 
L 216.179729 295.216946 
L 216.312269 294.623191 
L 216.511077 295.38515 
L 216.577347 295.050226 
L 216.643616 295.201857 
L 216.709886 295.343208 
L 216.776155 295.28723 
L 216.842425 295.105931 
L 216.908695 295.412936 
L 216.974964 295.293014 
L 217.041234 295.141178 
L 217.107503 295.433253 
L 217.173773 295.166129 
L 217.240042 295.339464 
L 217.306312 295.243694 
L 217.372581 295.46032 
L 217.505121 294.712363 
L 217.57139 295.365949 
L 217.63766 295.144166 
L 217.703929 295.242587 
L 217.836468 294.467934 
L 217.902738 295.029328 
L 217.969007 294.701151 
L 218.035277 295.142056 
L 218.101547 295.063196 
L 218.167816 293.853507 
L 218.234086 293.988792 
L 218.300355 294.984697 
L 218.366625 294.418236 
L 218.432894 294.426647 
L 218.499164 294.87085 
L 218.565433 294.263764 
L 218.631703 294.823246 
L 218.830512 293.646646 
L 218.963051 294.945901 
L 219.02932 293.793441 
L 219.09559 293.995145 
L 219.294398 294.880489 
L 219.559477 292.525228 
L 219.625746 287.598536 
L 219.692016 291.817721 
L 219.758285 291.072564 
L 219.890824 293.522271 
L 219.957094 289.670626 
L 220.023364 294.242237 
L 220.089633 291.498119 
L 220.288442 294.843886 
L 220.354711 293.904895 
L 220.420981 294.264872 
L 220.48725 295.207957 
L 220.55352 294.994822 
L 220.61979 294.632745 
L 220.686059 295.145841 
L 220.752329 295.020091 
L 220.818598 294.725188 
L 220.884868 295.165903 
L 220.951137 294.599729 
L 221.017407 295.03123 
L 221.083676 294.115847 
L 221.216216 295.183033 
L 221.282485 294.080252 
L 221.348755 294.794247 
L 221.415024 294.533207 
L 221.613833 295.420932 
L 221.680102 295.244658 
L 221.746372 295.029387 
L 221.812642 295.28374 
L 221.878911 295.118099 
L 221.945181 295.181583 
L 222.01145 295.067938 
L 222.07772 295.149365 
L 222.210259 295.241984 
L 222.409068 295.12768 
L 222.475337 295.231621 
L 222.541607 295.110552 
L 222.607876 295.263136 
L 222.674146 295.100984 
L 222.740415 295.145383 
L 222.939224 295.320894 
L 223.005494 295.150611 
L 223.071763 295.426425 
L 223.138033 295.378775 
L 223.204302 295.47218 
L 223.270572 295.078937 
L 223.336841 295.121087 
L 223.403111 295.020516 
L 223.53565 295.39483 
L 223.60192 295.23299 
L 223.668189 295.389249 
L 223.734459 295.306633 
L 223.866998 295.246636 
L 223.999537 295.176831 
L 224.065806 294.846131 
L 224.132076 294.88826 
L 224.529693 295.275339 
L 224.595963 295.095831 
L 224.728502 295.267026 
L 224.861041 295.032281 
L 224.927311 295.263623 
L 224.99358 294.743339 
L 225.05985 295.173019 
L 225.258658 294.09791 
L 225.391197 295.236758 
L 225.457467 294.410294 
L 225.523737 294.981236 
L 225.590006 294.637735 
L 225.656276 294.626587 
L 225.722545 294.459009 
L 225.788815 294.876043 
L 225.855084 294.008395 
L 225.987623 295.227553 
L 226.053893 294.698259 
L 226.120163 294.865422 
L 226.186432 295.317648 
L 226.385241 293.330138 
L 226.45151 294.575099 
L 226.716589 291.384893 
L 226.849128 294.092735 
L 226.915397 293.708915 
L 226.981667 291.830393 
L 227.047936 294.738989 
L 227.114206 292.579547 
L 227.180475 293.276025 
L 227.313015 292.142965 
L 227.578093 294.120231 
L 227.710632 292.327556 
L 227.776901 293.60982 
L 227.843171 293.2565 
L 227.97571 294.63318 
L 228.04198 294.288292 
L 228.174519 294.729756 
L 228.240788 294.607505 
L 228.307058 293.952044 
L 228.439597 294.844831 
L 228.505867 293.159466 
L 228.572136 295.280049 
L 228.638406 295.203696 
L 228.704675 294.824339 
L 228.770945 295.177888 
L 228.837214 294.886367 
L 228.903484 294.924034 
L 228.969753 295.103358 
L 229.036023 294.892162 
L 229.102292 294.967607 
L 229.234832 294.862579 
L 229.367371 295.439266 
L 229.49991 294.736313 
L 229.566179 295.146357 
L 229.632449 294.852492 
L 229.698718 295.058958 
L 229.831258 294.880022 
L 229.897527 295.396599 
L 229.963797 294.916751 
L 230.030066 295.267368 
L 230.096336 294.63522 
L 230.162605 294.82608 
L 230.228875 294.615588 
L 230.295144 295.056547 
L 230.361414 294.934425 
L 230.427684 294.765008 
L 230.493953 294.893664 
L 230.560223 295.273565 
L 230.626492 295.071766 
L 230.759031 295.040539 
L 230.825301 294.937584 
L 231.02411 295.428832 
L 231.090379 295.13961 
L 231.156649 295.26567 
L 231.222918 295.380451 
L 231.289188 295.307179 
L 231.355457 294.917585 
L 231.421727 295.057777 
L 231.487996 295.447676 
L 231.554266 294.914614 
L 231.620536 294.992964 
L 231.686805 294.918308 
L 231.819344 294.383931 
L 231.951883 295.318777 
L 232.150692 295.114693 
L 232.216962 295.235086 
L 232.283231 294.942952 
L 232.349501 295.364199 
L 232.41577 295.180899 
L 232.48204 295.010332 
L 232.548309 295.395836 
L 232.614579 295.146806 
L 232.680848 294.236897 
L 232.747118 295.150601 
L 232.813388 294.573625 
L 232.945927 295.175675 
L 233.012196 294.309137 
L 233.078466 295.090427 
L 233.144735 294.06732 
L 233.211005 294.667813 
L 233.409814 293.168948 
L 233.476083 293.696953 
L 233.542353 292.81965 
L 233.608622 294.727767 
L 233.741161 292.835648 
L 233.807431 294.181959 
L 233.8737 293.914128 
L 234.006239 293.988529 
L 234.072509 293.534855 
L 234.138779 294.282919 
L 234.205048 290.574827 
L 234.271318 293.344096 
L 234.337587 293.163401 
L 234.470126 294.498088 
L 234.536396 290.682809 
L 234.602665 294.963386 
L 234.668935 294.4881 
L 234.735205 294.067618 
L 234.867744 294.616929 
L 234.934013 294.418845 
L 235.000283 294.849039 
L 235.132822 294.222289 
L 235.199091 295.232688 
L 235.265361 293.953603 
L 235.331631 294.526427 
L 235.3979 294.899083 
L 235.46417 294.547802 
L 235.530439 294.726024 
L 235.596709 295.204545 
L 235.662978 293.678661 
L 235.729248 294.156701 
L 235.795517 294.793759 
L 235.861787 294.044585 
L 236.060596 295.013039 
L 236.126865 294.780689 
L 236.259404 295.078733 
L 236.391943 294.850214 
L 236.458213 295.149947 
L 236.524483 294.883038 
L 236.590752 295.225359 
L 236.657022 295.045044 
L 236.85583 295.40399 
L 236.9221 295.450718 
L 237.120909 295.09514 
L 237.319717 295.270355 
L 237.385987 295.332439 
L 237.452256 295.178615 
L 237.518526 295.312137 
L 237.584795 295.244484 
L 237.651065 295.221588 
L 237.717335 295.407127 
L 237.916143 295.138747 
L 238.048682 295.069627 
L 238.313761 295.315883 
L 238.38003 295.193386 
L 238.4463 295.471139 
L 238.512569 295.158268 
L 238.578839 295.23835 
L 238.645108 295.31406 
L 238.711378 295.248242 
L 238.910186 295.049419 
L 239.042726 295.257202 
L 239.175265 295.11047 
L 239.241534 295.284944 
L 239.307804 295.148448 
L 239.374073 295.279753 
L 239.440343 294.49121 
L 239.639152 295.353732 
L 239.705421 294.909271 
L 239.771691 295.310648 
L 239.83796 295.062463 
L 239.970499 294.976676 
L 240.036769 295.342816 
L 240.235578 294.343613 
L 240.301847 295.036215 
L 240.500656 294.038957 
L 240.566925 293.932964 
L 240.633195 295.074206 
L 240.699464 294.426659 
L 240.765734 294.745026 
L 240.832004 293.396997 
L 240.898273 294.99718 
L 240.964543 294.679652 
L 241.030812 295.092133 
L 241.163351 294.016416 
L 241.229621 295.082092 
L 241.36216 293.912584 
L 241.42843 294.653611 
L 241.494699 294.449213 
L 241.693508 292.794638 
L 241.826047 294.731081 
L 241.892316 294.442079 
L 242.024856 294.953354 
L 242.091125 294.153148 
L 242.157395 295.199392 
L 242.223664 295.096245 
L 242.289934 294.933908 
L 242.356203 295.344531 
L 242.422473 294.892535 
L 242.488742 295.355121 
L 242.555012 294.578777 
L 242.621282 294.803665 
L 242.753821 295.253906 
L 242.952629 294.540082 
L 243.085168 294.918666 
L 243.151438 294.861719 
L 243.283977 295.030475 
L 243.350247 295.353671 
L 243.416516 295.196784 
L 243.482786 295.090987 
L 243.615325 295.362162 
L 243.747864 295.0871 
L 243.880403 295.147937 
L 244.012942 294.80837 
L 244.079212 295.151625 
L 244.145481 294.845286 
L 244.27802 295.275849 
L 244.476829 294.718 
L 244.741907 294.970354 
L 244.808177 295.223654 
L 244.874446 295.118323 
L 245.006985 295.431437 
L 245.205794 294.829033 
L 245.338333 295.352527 
L 245.537142 294.675344 
L 245.669681 295.392263 
L 245.735951 294.940978 
L 245.80222 295.115492 
L 245.86849 295.36653 
L 245.934759 294.257877 
L 246.067298 295.337172 
L 246.133568 295.113272 
L 246.199837 294.240014 
L 246.266107 294.723929 
L 246.332377 294.487823 
L 246.398646 294.961236 
L 246.531185 294.370029 
L 246.597455 295.167267 
L 246.663724 294.798016 
L 246.729994 294.984771 
L 246.862533 294.606318 
L 247.127611 295.340804 
L 247.193881 294.923247 
L 247.26015 295.037545 
L 247.392689 294.934247 
L 247.458959 294.513969 
L 247.525229 295.254501 
L 247.591498 293.888279 
L 247.657768 294.224749 
L 247.790307 294.91804 
L 247.856576 294.14586 
L 247.922846 295.016832 
L 247.989115 293.228113 
L 248.055385 294.196095 
L 248.121655 293.372597 
L 248.187924 294.688554 
L 248.254194 293.801619 
L 248.320463 295.059859 
L 248.386733 293.931234 
L 248.519272 295.037985 
L 248.585541 293.69289 
L 248.651811 295.242018 
L 248.71808 295.10335 
L 248.85062 292.612029 
L 248.916889 293.670741 
L 249.115698 291.503297 
L 249.181967 294.674898 
L 249.248237 293.944617 
L 249.314506 293.849562 
L 249.380776 294.457727 
L 249.447046 294.028711 
L 249.579585 294.776766 
L 249.645854 294.453638 
L 249.712124 295.004688 
L 249.778393 294.644165 
L 249.844663 294.968118 
L 249.977202 294.209645 
L 250.109741 294.75151 
L 250.176011 294.48018 
L 250.24228 294.926496 
L 250.30855 293.841079 
L 250.374819 294.958576 
L 250.441089 294.451457 
L 250.507358 294.951461 
L 250.573628 294.671838 
L 250.639898 294.121637 
L 250.706167 295.258254 
L 250.772437 294.921962 
L 250.838706 294.811022 
L 250.904976 295.208624 
L 250.971245 294.934941 
L 251.103784 295.340089 
L 251.236324 295.142957 
L 251.368863 294.592701 
L 251.567671 295.306161 
L 251.633941 295.356853 
L 251.76648 294.842671 
L 251.83275 295.2469 
L 251.899019 295.091873 
L 252.031558 295.003987 
L 252.230367 295.174938 
L 252.362906 294.837508 
L 252.627984 295.320687 
L 252.760523 295.111741 
L 252.826793 295.183734 
L 252.893062 294.735567 
L 253.025602 295.46096 
L 253.091871 295.369553 
L 253.158141 295.034076 
L 253.22441 295.169928 
L 253.356949 294.98425 
L 253.489488 295.31727 
L 253.555758 295.277516 
L 253.754567 294.406249 
L 253.820836 294.535013 
L 254.019645 295.064029 
L 254.284723 295.113827 
L 254.350993 294.556736 
L 254.417262 294.852413 
L 254.483532 294.73877 
L 254.549801 295.425847 
L 254.814879 293.982499 
L 254.947419 294.950083 
L 255.079958 293.724664 
L 255.146227 295.085751 
L 255.212497 292.894435 
L 255.278766 293.726814 
L 255.345036 293.846774 
L 255.477575 292.457437 
L 255.543845 293.220453 
L 255.610114 291.78298 
L 255.676384 294.160164 
L 255.742653 292.35004 
L 255.808923 294.081868 
L 255.875192 293.630672 
L 255.941462 294.268673 
L 256.007731 294.186166 
L 256.074001 292.821682 
L 256.140271 293.361173 
L 256.20654 294.961359 
L 256.27281 294.640059 
L 256.471618 293.219126 
L 256.670427 295.22388 
L 256.802966 293.942623 
L 256.869236 294.495305 
L 256.935505 293.546925 
L 257.068044 294.850905 
L 257.134314 294.59482 
L 257.200583 293.389218 
L 257.399392 294.805603 
L 257.465662 294.939887 
L 257.531931 293.547336 
L 257.598201 294.969156 
L 257.66447 294.728811 
L 257.73074 293.934839 
L 257.797009 294.134533 
L 257.863279 295.134996 
L 257.929549 294.990678 
L 257.995818 293.022736 
L 258.128357 294.783984 
L 258.194627 294.765512 
L 258.260896 295.278193 
L 258.327166 294.518471 
L 258.393435 294.990113 
L 258.459705 295.20134 
L 258.525975 294.631383 
L 258.592244 294.929271 
L 258.658514 295.116974 
L 258.724783 294.86032 
L 258.791053 294.984458 
L 258.857322 295.286841 
L 258.923592 294.703283 
L 258.989861 295.189265 
L 259.056131 294.320855 
L 259.1224 294.793867 
L 259.18867 294.332665 
L 259.25494 294.600535 
L 259.453748 295.279599 
L 259.586287 294.916017 
L 259.652557 294.99308 
L 259.718826 295.046728 
L 259.785096 294.706008 
L 259.851366 295.274381 
L 259.917635 294.928225 
L 259.983905 295.028876 
L 260.050174 294.823419 
L 260.116444 295.104043 
L 260.182713 295.05286 
L 260.248983 294.730208 
L 260.447792 295.408713 
L 260.514061 295.368578 
L 260.6466 295.085402 
L 260.71287 295.208989 
L 260.779139 294.87609 
L 260.845409 295.292052 
L 260.911678 295.030417 
L 260.977948 295.210937 
L 261.110487 294.887695 
L 261.243026 295.373725 
L 261.309296 295.336654 
L 261.375565 295.061679 
L 261.441835 295.226585 
L 261.508104 295.194058 
L 261.574374 294.979833 
L 261.706913 295.257675 
L 261.773183 295.238914 
L 261.839452 295.081428 
L 261.905722 295.31818 
L 261.971991 294.977668 
L 262.038261 295.164942 
L 262.10453 295.292392 
L 262.1708 294.652095 
L 262.369609 295.402203 
L 262.502148 294.508616 
L 262.634687 295.177813 
L 262.700956 294.14463 
L 262.767226 294.600034 
L 262.899765 294.944159 
L 262.966035 294.57654 
L 263.032304 294.957994 
L 263.098574 294.558688 
L 263.164843 295.273593 
L 263.231113 294.901945 
L 263.297382 292.760258 
L 263.363652 293.66864 
L 263.429922 294.93316 
L 263.496191 293.835569 
L 263.562461 294.470143 
L 263.62873 294.877541 
L 263.695 293.91694 
L 263.761269 294.427388 
L 263.827539 294.42988 
L 263.893808 294.016752 
L 264.092617 295.435438 
L 264.291426 294.723865 
L 264.490234 295.408859 
L 264.689043 294.611769 
L 264.755313 295.131208 
L 264.821582 294.956026 
L 265.08666 295.326608 
L 265.15293 294.931592 
L 265.219199 293.846212 
L 265.285469 294.297435 
L 265.484278 295.188245 
L 265.550547 295.156449 
L 265.616817 295.181687 
L 265.749356 295.32717 
L 265.815625 295.070113 
L 265.881895 295.222177 
L 266.014434 295.13496 
L 266.080704 295.385501 
L 266.146973 295.305317 
L 266.279512 295.281064 
L 266.412051 295.139652 
L 266.544591 295.378628 
L 266.61086 295.151186 
L 266.67713 295.302672 
L 266.743399 295.430265 
L 266.809669 295.100625 
L 266.875938 295.330054 
L 267.008477 295.153088 
L 267.074747 295.319874 
L 267.141017 295.22539 
L 267.207286 295.320361 
L 267.273556 295.241968 
L 267.339825 295.029628 
L 267.406095 295.378089 
L 267.472364 295.253826 
L 267.538634 295.123981 
L 267.604903 295.210128 
L 267.671173 295.391582 
L 267.869982 294.985635 
L 268.06879 295.367204 
L 268.267599 295.199285 
L 268.333869 295.412213 
L 268.400138 295.226505 
L 268.466408 295.355136 
L 268.532677 295.364777 
L 268.665216 295.156791 
L 268.797755 295.324535 
L 268.864025 295.139407 
L 268.930294 295.438989 
L 269.062834 295.076659 
L 269.129103 295.271895 
L 269.195373 294.845225 
L 269.261642 295.38402 
L 269.327912 294.518733 
L 269.394181 294.876826 
L 269.460451 295.394838 
L 269.65926 294.673306 
L 269.725529 295.13154 
L 269.791799 293.987417 
L 269.858068 295.078139 
L 269.924338 294.586061 
L 270.123146 295.214468 
L 270.189416 294.741472 
L 270.321955 295.256141 
L 270.520764 294.253629 
L 270.587033 293.805076 
L 270.785842 295.160036 
L 270.918381 293.441593 
L 270.984651 293.837431 
L 271.05092 293.789854 
L 271.11719 295.120717 
L 271.183459 294.830601 
L 271.249729 294.963872 
L 271.315998 294.308113 
L 271.448538 295.391451 
L 271.647346 294.732015 
L 271.713616 294.655396 
L 271.779885 295.117916 
L 271.846155 294.782122 
L 272.044964 295.211921 
L 272.111233 294.887222 
L 272.177503 295.223645 
L 272.243772 294.521193 
L 272.310042 295.297029 
L 272.376311 295.104909 
L 272.442581 294.792189 
L 272.50885 295.002078 
L 272.57512 294.704144 
L 272.64139 295.257976 
L 272.707659 294.358889 
L 272.773929 294.789943 
L 272.840198 294.586442 
L 272.906468 295.221677 
L 272.972737 295.12651 
L 273.039007 295.110038 
L 273.105276 294.879514 
L 273.237816 295.136282 
L 273.304085 294.783398 
L 273.436624 295.185502 
L 273.569163 295.324321 
L 273.635433 295.127179 
L 273.701702 295.210634 
L 273.834241 295.302139 
L 274.03305 295.344287 
L 274.165589 295.343506 
L 274.298128 295.196304 
L 274.364398 295.322889 
L 274.430667 295.363141 
L 274.496937 295.242587 
L 274.563207 295.345608 
L 274.629476 295.477067 
L 274.828285 295.127579 
L 274.894554 295.048091 
L 274.960824 295.331382 
L 275.027093 295.101442 
L 275.093363 295.237754 
L 275.159633 295.404305 
L 275.225902 295.37783 
L 275.292172 295.298073 
L 275.358441 295.454978 
L 275.424711 295.354346 
L 275.623519 295.165252 
L 275.822328 295.021217 
L 275.888598 295.410003 
L 275.954867 295.07406 
L 276.021137 295.376328 
L 276.153676 295.035588 
L 276.286215 295.22559 
L 276.683832 295.004206 
L 276.750102 295.295103 
L 276.816371 295.261764 
L 276.882641 295.344919 
L 277.01518 294.927918 
L 277.147719 295.397609 
L 277.213989 295.182731 
L 277.346528 295.04328 
L 277.412797 295.310071 
L 277.479067 295.241696 
L 277.611606 295.323758 
L 277.677876 294.989185 
L 277.744145 295.293655 
L 277.810415 295.092144 
L 277.876684 295.331092 
L 277.942954 295.189325 
L 278.009223 295.269927 
L 278.075493 294.759999 
L 278.141763 294.768844 
L 278.274302 294.896995 
L 278.47311 295.327553 
L 278.53938 295.38595 
L 278.605649 295.300115 
L 278.804458 295.055156 
L 278.870728 295.206858 
L 278.936997 295.263039 
L 279.135806 294.982436 
L 279.334614 295.095083 
L 279.400884 294.809053 
L 279.467154 295.163981 
L 279.533423 294.861432 
L 279.599693 295.134906 
L 279.665962 294.967626 
L 279.798501 295.165016 
L 279.864771 295.052484 
L 279.93104 295.32895 
L 279.99731 294.976955 
L 280.06358 295.179177 
L 280.461197 295.240428 
L 280.527466 295.436483 
L 280.593736 295.343028 
L 280.660006 295.148419 
L 280.726275 295.246963 
L 280.991353 295.288025 
L 281.057623 295.180357 
L 281.256432 295.41146 
L 281.322701 295.220668 
L 281.388971 295.312609 
L 281.52151 295.41388 
L 281.587779 295.205919 
L 281.654049 295.338182 
L 281.852858 295.455106 
L 282.051666 295.319525 
L 282.250475 295.414718 
L 282.449284 295.407154 
L 282.581823 295.039555 
L 282.648092 295.256333 
L 282.780631 295.38929 
L 282.91317 295.202208 
L 283.04571 295.32007 
L 283.443327 295.308034 
L 283.509596 295.385229 
L 283.575866 295.092925 
L 283.642136 295.372997 
L 283.708405 295.090113 
L 283.774675 295.16639 
L 283.840944 295.100857 
L 284.039753 295.432039 
L 284.238561 295.103607 
L 284.304831 295.357458 
L 284.43737 294.431707 
L 284.50364 294.788129 
L 284.702448 295.247231 
L 284.834987 294.833406 
L 285.100066 295.420974 
L 285.166335 295.131873 
L 285.232605 295.198111 
L 285.298874 295.198738 
L 285.431413 294.720741 
L 285.563953 295.288631 
L 285.630222 294.99007 
L 285.696492 295.064615 
L 285.762761 295.220454 
L 285.829031 294.804933 
L 285.8953 294.921576 
L 285.96157 295.376588 
L 286.027839 295.311765 
L 286.160379 295.03087 
L 286.292918 295.297013 
L 286.359187 295.198241 
L 286.425457 294.775005 
L 286.491726 294.913855 
L 286.557996 295.179922 
L 286.624265 295.066709 
L 286.823074 295.294408 
L 286.889344 295.093392 
L 286.955613 295.349679 
L 287.021883 294.735871 
L 287.088152 295.243456 
L 287.154422 295.036574 
L 287.286961 295.289946 
L 287.353231 295.198264 
L 287.4195 294.976386 
L 287.48577 295.04289 
L 287.552039 295.051219 
L 287.750848 295.433771 
L 287.949657 295.1826 
L 288.082196 295.419664 
L 288.281004 295.296756 
L 288.347274 295.418726 
L 288.413543 295.259684 
L 288.479813 295.357954 
L 288.612352 295.346091 
L 288.678622 295.323071 
L 288.744891 295.433782 
L 288.811161 295.376853 
L 289.009969 295.389182 
L 289.076239 295.444312 
L 289.142508 295.309126 
L 289.208778 295.402742 
L 289.275048 295.353953 
L 289.341317 295.474137 
L 289.407587 295.430502 
L 289.540126 295.378688 
L 289.672665 295.150553 
L 289.738934 295.43476 
L 289.805204 295.32296 
L 289.937743 295.463726 
L 290.004013 295.236357 
L 290.070282 295.380601 
L 290.600439 295.283649 
L 290.666708 295.458955 
L 290.732978 295.279367 
L 290.799247 295.378917 
L 290.865517 295.399945 
L 290.931786 295.190181 
L 290.998056 295.302304 
L 291.064326 295.208898 
L 291.130595 295.35008 
L 291.196865 295.195409 
L 291.263134 295.338619 
L 291.329404 295.002038 
L 291.395673 295.302298 
L 291.461943 295.21564 
L 291.528212 295.298033 
L 291.594482 294.964043 
L 291.660752 295.091698 
L 291.793291 295.272594 
L 291.85956 294.719423 
L 291.92583 294.828871 
L 292.124638 295.281144 
L 292.190908 294.931151 
L 292.257178 295.074422 
L 292.323447 295.348127 
L 292.389717 294.700768 
L 292.455986 294.857966 
L 292.588525 295.194125 
L 292.654795 294.635213 
L 292.721064 295.07041 
L 292.787334 294.913031 
L 292.986143 295.097716 
L 293.052412 294.668159 
L 293.118682 295.425224 
L 293.184951 295.273416 
L 293.251221 295.418367 
L 293.31749 295.348182 
L 293.38376 295.181877 
L 293.516299 295.322231 
L 293.715108 294.851427 
L 293.781377 295.381516 
L 293.847647 295.224766 
L 293.980186 294.958632 
L 294.046455 295.385363 
L 294.112725 294.979862 
L 294.178995 295.465015 
L 294.245264 295.152921 
L 294.311534 295.24491 
L 294.377803 295.052422 
L 294.444073 295.095537 
L 294.510342 295.356835 
L 294.576612 295.019203 
L 294.642881 295.210888 
L 294.709151 295.106348 
L 294.84169 295.433339 
L 294.90796 295.371671 
L 294.974229 295.296984 
L 295.040499 295.426223 
L 295.106768 295.203789 
L 295.173038 295.445302 
L 295.239307 295.206897 
L 295.305577 295.264584 
L 295.438116 295.32891 
L 295.703194 295.269559 
L 295.769464 295.38256 
L 295.835733 295.162973 
L 295.902003 295.434575 
L 295.968273 295.373803 
L 296.100812 295.398452 
L 296.763507 295.243173 
L 296.896046 295.479915 
L 297.426203 295.282156 
L 297.492472 295.396737 
L 297.625011 295.273416 
L 297.691281 295.399922 
L 297.757551 295.318445 
L 297.89009 295.457471 
L 297.956359 295.369853 
L 298.022629 295.420388 
L 298.088898 295.427839 
L 298.155168 295.2623 
L 298.221437 295.420365 
L 298.287707 295.344693 
L 298.353977 295.210927 
L 298.420246 295.382296 
L 298.486516 295.10678 
L 298.552785 295.175095 
L 298.751594 295.356463 
L 299.082942 295.219503 
L 299.149211 295.413817 
L 299.28175 295.004303 
L 299.34802 295.102975 
L 299.546828 295.260006 
L 299.613098 295.283082 
L 299.745637 294.84302 
L 299.811907 295.310178 
L 299.878176 295.268211 
L 299.944446 294.90848 
L 300.010715 295.008525 
L 300.076985 295.11221 
L 300.143254 295.065165 
L 300.209524 294.935631 
L 300.408333 295.442743 
L 300.474602 295.298929 
L 300.540872 295.344152 
L 300.607141 295.30529 
L 300.73968 295.405339 
L 300.80595 295.151921 
L 300.87222 295.305139 
L 301.004759 295.430611 
L 301.071028 295.203926 
L 301.137298 295.467077 
L 301.203567 295.343812 
L 301.269837 295.190145 
L 301.402376 295.300512 
L 301.468646 295.264656 
L 301.534915 295.397832 
L 301.601185 295.3504 
L 301.667454 295.142343 
L 301.733724 295.420302 
L 301.799993 295.12803 
L 301.866263 295.271315 
L 301.932532 295.142155 
L 302.065072 295.374845 
L 302.26388 294.886695 
L 302.396419 295.448612 
L 302.462689 295.362242 
L 302.727767 295.333916 
L 302.860306 295.414328 
L 302.992845 295.249748 
L 303.257924 295.468524 
L 303.390463 295.461946 
L 303.456732 295.46877 
L 303.523002 295.238379 
L 303.589271 295.383001 
L 303.72181 295.404265 
L 303.78808 295.286542 
L 303.854349 295.400244 
L 304.053158 295.125762 
L 304.251967 295.451837 
L 304.450775 295.191279 
L 304.517045 295.455182 
L 304.583315 295.398762 
L 304.649584 295.369463 
L 304.715854 295.210055 
L 304.782123 295.428024 
L 304.848393 295.393821 
L 305.179741 295.3667 
L 305.24601 295.2176 
L 305.31228 295.339981 
L 305.444819 295.401235 
L 305.511088 295.446618 
L 305.643627 295.218652 
L 305.709897 295.269868 
L 305.842436 295.158832 
L 305.908706 295.362041 
L 305.974975 295.268397 
L 306.306323 295.280294 
L 306.372593 294.880547 
L 306.438862 295.250291 
L 306.505132 295.218444 
L 306.571401 295.041545 
L 306.637671 295.334992 
L 306.70394 295.079849 
L 306.77021 295.159278 
L 307.101558 294.957697 
L 307.167827 295.428886 
L 307.234097 294.858391 
L 307.300366 294.987832 
L 307.565445 295.408613 
L 307.631714 295.082438 
L 307.697984 295.225182 
L 307.830523 295.063835 
L 307.963062 295.440221 
L 308.095601 295.09489 
L 308.161871 295.397849 
L 308.22814 295.27058 
L 308.360679 295.025859 
L 308.426949 295.155884 
L 308.692027 295.346081 
L 308.758296 295.067999 
L 308.824566 295.413282 
L 308.890836 295.362689 
L 309.155914 295.131161 
L 309.222183 295.420688 
L 309.288453 295.166824 
L 309.354722 295.214883 
L 309.619801 295.109282 
L 309.68607 295.350097 
L 309.75234 295.146451 
L 309.884879 295.347544 
L 309.951148 295.159894 
L 310.017418 295.357932 
L 310.083688 294.967724 
L 310.149957 295.145194 
L 310.216227 295.457718 
L 310.282496 295.359744 
L 310.547574 295.361004 
L 310.680114 295.442973 
L 310.746383 295.249611 
L 310.812653 295.39082 
L 310.878922 295.435243 
L 311.011461 295.167325 
L 311.077731 295.34195 
L 311.144 295.280253 
L 311.27654 295.308526 
L 311.342809 295.414964 
L 311.409079 295.316265 
L 311.475348 295.245739 
L 311.607887 295.393022 
L 311.740426 295.348566 
L 311.939235 295.374334 
L 312.071774 295.37057 
L 312.138044 295.470366 
L 312.270583 295.248133 
L 312.403122 295.433299 
L 312.535661 295.379121 
L 312.601931 295.39702 
L 312.73447 295.133312 
L 312.933278 295.35685 
L 312.999548 295.403154 
L 313.132087 295.261509 
L 313.397165 295.328964 
L 313.463435 295.27797 
L 313.529704 295.027911 
L 313.662244 295.419097 
L 313.728513 295.151776 
L 313.794783 295.440422 
L 313.861052 295.239906 
L 313.927322 295.344035 
L 313.993591 295.104527 
L 314.059861 295.26418 
L 314.324939 295.141691 
L 314.391209 295.294339 
L 314.457478 295.052618 
L 314.523748 295.206995 
L 314.590017 295.072193 
L 314.656287 295.209658 
L 314.722556 294.930088 
L 314.788826 295.071073 
L 314.855095 295.375635 
L 314.921365 295.160672 
L 315.053904 295.269502 
L 315.186443 295.276022 
L 315.318982 295.462196 
L 315.385252 295.022738 
L 315.451521 295.272186 
L 315.517791 295.35318 
L 315.65033 295.24271 
L 315.7166 295.469464 
L 315.782869 295.303187 
L 315.849139 294.716775 
L 315.981678 295.459704 
L 316.047947 295.214835 
L 316.114217 295.394985 
L 316.246756 295.308951 
L 316.511834 295.253945 
L 316.644373 295.145082 
L 316.710643 295.295808 
L 316.776913 295.254012 
L 317.041991 295.304084 
L 317.10826 295.115232 
L 317.240799 295.382897 
L 317.307069 295.144614 
L 317.373339 295.452722 
L 317.439608 295.379087 
L 317.572147 295.205329 
L 317.704686 295.391465 
L 317.770956 295.305081 
L 317.837225 295.407555 
L 317.903495 295.358222 
L 317.969765 295.308709 
L 318.036034 295.430763 
L 318.102304 295.352877 
L 318.168573 295.229766 
L 318.301112 295.479088 
L 318.367382 295.332683 
L 318.433651 295.481556 
L 318.499921 295.382633 
L 318.764999 295.348131 
L 318.831269 295.421254 
L 318.963808 295.20333 
L 319.096347 295.37854 
L 319.162616 295.267908 
L 319.228886 295.365415 
L 319.295156 295.304105 
L 319.361425 295.424442 
L 319.427695 295.320559 
L 320.222929 295.17524 
L 320.421738 295.342 
L 320.620547 295.160497 
L 320.753086 295.438038 
L 320.819355 295.398947 
L 320.885625 295.4108 
L 320.951894 295.280813 
L 321.018164 295.411399 
L 321.084434 295.324692 
L 321.216973 295.377522 
L 321.283242 295.266824 
L 321.349512 294.900174 
L 321.415781 295.369419 
L 321.482051 295.214149 
L 321.54832 295.050992 
L 321.747129 295.355303 
L 322.078477 295.127976 
L 322.144746 294.53297 
L 322.211016 294.912899 
L 322.343555 295.218019 
L 322.476094 295.198728 
L 322.542364 295.398933 
L 322.608633 295.28148 
L 322.807442 295.368192 
L 322.873712 295.414826 
L 323.006251 295.131808 
L 323.13879 295.328407 
L 323.205059 295.148547 
L 323.337598 295.319077 
L 323.536407 295.183203 
L 323.602677 295.026449 
L 323.668946 295.357458 
L 323.735216 295.297801 
L 323.934024 295.176868 
L 324.066563 295.230628 
L 324.132833 294.836908 
L 324.265372 295.399381 
L 324.331642 295.328926 
L 324.397911 295.413802 
L 324.662989 295.290807 
L 324.994337 295.430056 
L 325.458224 295.298984 
L 325.590763 295.431515 
L 325.789572 295.262846 
L 326.05465 295.44728 
L 326.187189 295.221076 
L 326.253459 295.446684 
L 326.319728 295.273803 
L 326.452267 295.420895 
L 326.584807 295.118526 
L 326.717346 295.431769 
L 326.849885 295.309903 
L 326.916154 295.315973 
L 326.982424 295.461963 
L 327.048693 295.35064 
L 327.247502 294.966876 
L 327.446311 295.27092 
L 327.51258 295.110541 
L 327.57885 295.438321 
L 327.645119 295.237348 
L 327.711389 295.093654 
L 327.777659 295.3367 
L 327.910198 295.015373 
L 327.976467 295.41928 
L 328.042737 295.240672 
L 328.440354 295.196544 
L 328.506624 295.036486 
L 328.572893 295.323654 
L 328.639163 295.265089 
L 328.837971 295.368482 
L 328.97051 295.178008 
L 329.03678 295.299854 
L 329.169319 295.107354 
L 329.301858 295.353897 
L 329.500667 294.873652 
L 329.633206 295.411188 
L 329.765745 295.014456 
L 329.964554 295.414046 
L 330.030823 295.452016 
L 330.229632 295.031044 
L 330.295902 295.321755 
L 330.362171 295.305261 
L 330.56098 295.276873 
L 330.627249 295.45431 
L 330.693519 295.418162 
L 330.958597 295.278686 
L 331.024867 295.372879 
L 331.091136 295.295255 
L 331.886371 295.29772 
L 331.95264 295.438581 
L 332.01891 295.333009 
L 332.217719 295.385604 
L 332.283988 295.226177 
L 332.350258 295.322334 
L 332.482797 295.416645 
L 332.615336 295.409173 
L 332.880414 295.374523 
L 332.946684 295.277498 
L 333.012953 295.37368 
L 333.211762 295.331349 
L 333.940727 295.356283 
L 334.006997 295.167653 
L 334.139536 295.397488 
L 334.205805 295.251331 
L 334.272075 295.472833 
L 334.338344 295.304443 
L 334.404614 295.35925 
L 334.470883 295.488 
L 334.537153 295.336126 
L 334.603423 295.395121 
L 334.868501 295.317313 
L 335.00104 295.243967 
L 335.133579 295.460618 
L 335.199849 295.20391 
L 335.266118 295.400304 
L 335.332388 295.351098 
L 335.398657 295.234847 
L 335.531196 295.323577 
L 335.597466 295.297651 
L 335.663735 295.435307 
L 335.796275 295.228396 
L 335.862544 295.426074 
L 335.928814 295.275306 
L 336.061353 295.095537 
L 336.193892 295.447037 
L 336.326431 295.20786 
L 336.392701 295.382645 
L 336.45897 295.326758 
L 336.724048 295.04015 
L 336.790318 295.236776 
L 336.856587 295.401665 
L 336.922857 295.362682 
L 337.055396 295.287042 
L 337.187935 295.357089 
L 337.254205 295.254479 
L 337.320474 295.373953 
L 337.453013 295.160546 
L 337.585553 295.171415 
L 337.718092 295.338648 
L 337.850631 295.047885 
L 337.98317 295.44951 
L 338.049439 295.215537 
L 338.115709 295.286198 
L 338.181979 295.257334 
L 338.248248 295.433033 
L 338.314518 295.19669 
L 338.380787 295.42929 
L 338.447057 295.400674 
L 338.513326 295.444339 
L 338.579596 295.237139 
L 338.645865 295.358644 
L 338.778404 295.288287 
L 338.910944 295.091453 
L 339.37483 295.392005 
L 339.639909 295.337236 
L 340.037526 295.444715 
L 340.103796 295.318159 
L 340.170065 295.359432 
L 340.236335 295.330537 
L 340.302604 295.461948 
L 340.368874 295.332668 
L 340.435143 295.374413 
L 340.700222 295.360628 
L 340.766491 295.209435 
L 340.832761 295.339388 
L 340.89903 295.254539 
L 341.097839 295.414797 
L 341.164108 295.462012 
L 341.230378 295.05719 
L 341.296648 295.330223 
L 341.561726 295.426203 
L 341.627995 295.268472 
L 341.694265 295.364872 
L 341.760534 295.335732 
L 341.826804 295.433071 
L 341.893074 295.277809 
L 341.959343 295.324613 
L 342.091882 295.43401 
L 342.290691 295.16119 
L 342.622039 295.401493 
L 342.688308 295.382406 
L 342.887117 294.984988 
L 342.953386 295.036095 
L 343.019656 295.416495 
L 343.085926 295.159566 
L 343.218465 295.378092 
L 343.284734 295.042587 
L 343.351004 295.156855 
L 343.417273 295.157824 
L 343.549812 295.343682 
L 343.94743 295.210418 
L 344.013699 295.285469 
L 344.079969 294.899784 
L 344.146238 295.167923 
L 344.212508 295.054826 
L 344.411317 295.417096 
L 344.477586 295.079011 
L 344.543856 295.35861 
L 344.610125 295.166811 
L 344.676395 295.31371 
L 344.742664 295.070068 
L 344.808934 295.321266 
L 344.875203 294.722636 
L 344.941473 295.260111 
L 345.007743 295.16119 
L 345.206551 295.113629 
L 345.471629 295.42389 
L 345.537899 295.195329 
L 345.604169 295.352286 
L 345.736708 295.365887 
L 345.869247 295.42914 
L 345.935516 295.277653 
L 346.001786 295.439731 
L 346.068055 295.349172 
L 346.134325 295.465487 
L 346.266864 295.066312 
L 346.333134 295.029153 
L 346.399403 295.394241 
L 346.465673 295.107007 
L 346.598212 295.401508 
L 346.730751 295.340472 
L 346.86329 295.376956 
L 346.995829 295.254511 
L 347.128368 295.287059 
L 347.327177 295.453575 
L 347.525986 295.287096 
L 347.592255 295.38519 
L 348.056142 295.455687 
L 348.122412 295.253696 
L 348.188681 295.411487 
L 348.254951 295.380319 
L 348.453759 295.411287 
L 348.520029 295.24964 
L 348.586299 295.370188 
L 348.718838 295.377478 
L 348.785107 295.268746 
L 348.851377 295.352232 
L 348.983916 295.394959 
L 349.050185 295.224261 
L 349.116455 295.3492 
L 349.182724 295.287765 
L 349.248994 295.433713 
L 349.315264 295.338739 
L 349.91169 295.348482 
L 350.110498 295.429301 
L 350.441846 295.289033 
L 350.508116 295.334002 
L 350.574385 295.159762 
L 350.640655 295.416754 
L 350.706924 295.155296 
L 350.773194 295.248573 
L 351.038272 295.392235 
L 351.104542 295.161415 
L 351.170811 295.239124 
L 351.237081 295.231506 
L 351.30335 295.417074 
L 351.36962 295.389415 
L 351.435889 295.442383 
L 351.502159 295.293062 
L 351.634698 295.42904 
L 351.700968 295.25385 
L 351.767237 295.446042 
L 351.833507 295.292817 
L 351.899776 295.364943 
L 351.966046 295.414674 
L 352.032315 294.999583 
L 352.098585 295.111092 
L 352.164854 295.225407 
L 352.231124 295.02119 
L 352.297394 295.341075 
L 352.363663 295.200486 
L 352.496202 295.328612 
L 352.628741 295.37912 
L 352.695011 295.354642 
L 352.76128 295.44903 
L 352.82755 295.231104 
L 352.89382 295.3448 
L 352.960089 295.432543 
L 353.026359 295.28335 
L 353.092628 295.450814 
L 353.158898 295.355289 
L 353.291437 295.012758 
L 353.423976 295.486394 
L 353.490246 295.195486 
L 353.556515 295.216314 
L 353.689054 295.438367 
L 353.755324 295.141966 
L 353.821593 295.224475 
L 353.887863 295.10985 
L 354.086671 295.359124 
L 354.28548 295.267797 
L 354.484289 295.475593 
L 354.550558 295.326763 
L 354.616828 295.365903 
L 354.749367 295.42853 
L 354.881906 295.467049 
L 355.014445 295.213072 
L 355.080715 295.433046 
L 355.146984 295.332293 
L 355.412063 295.465613 
L 355.544602 295.305188 
L 355.74341 295.445642 
L 355.875949 295.379954 
L 356.008489 295.417897 
L 356.074758 295.283741 
L 356.207297 295.46198 
L 356.339836 295.241235 
L 356.406106 295.4609 
L 356.472375 295.335238 
L 356.538645 295.480053 
L 356.604915 295.34937 
L 356.671184 295.40484 
L 356.936262 295.309543 
L 357.068801 295.449676 
L 357.26761 295.313888 
L 357.797767 295.447805 
L 357.996575 295.166098 
L 358.062845 295.134504 
L 358.261653 295.437581 
L 358.327923 295.239515 
L 358.394193 295.360926 
L 358.526732 295.265182 
L 358.593001 295.486549 
L 358.659271 295.321884 
L 358.79181 295.106247 
L 358.924349 295.386876 
L 359.056888 295.461275 
L 359.189427 295.351816 
L 359.255697 295.303827 
L 359.321966 295.422789 
L 359.388236 295.348394 
L 359.454505 295.393727 
L 359.653314 295.188128 
L 359.719584 295.399198 
L 359.785853 295.199205 
L 359.852123 295.314824 
L 359.984662 295.190301 
L 360.117201 295.375711 
L 360.18347 295.170122 
L 360.24974 295.318792 
L 360.31601 295.214305 
L 360.382279 295.428584 
L 360.448549 295.296253 
L 360.581088 295.363486 
L 360.779896 295.34013 
L 360.846166 295.422866 
L 360.912436 295.35961 
L 360.978705 295.310321 
L 361.111244 295.417644 
L 361.177514 295.253627 
L 361.243783 295.352825 
L 361.442592 295.237832 
L 361.508862 295.426952 
L 361.641401 295.067693 
L 361.70767 295.415344 
L 361.77394 295.260514 
L 361.972748 295.402572 
L 362.039018 295.459299 
L 362.171557 295.401308 
L 362.237827 295.464985 
L 362.304096 295.241042 
L 362.370366 295.410294 
L 362.436635 295.326555 
L 362.502905 295.429004 
L 362.569174 295.356272 
L 362.701714 295.401412 
L 362.767983 295.478663 
L 362.966792 295.141508 
L 363.099331 295.432231 
L 363.1656 295.353926 
L 363.29814 295.474769 
L 363.563218 295.310489 
L 363.629487 295.466985 
L 363.695757 295.380131 
L 363.828296 295.320558 
L 363.894565 295.427499 
L 363.960835 295.35611 
L 364.093374 295.231467 
L 364.292183 295.437538 
L 364.358452 295.263588 
L 364.424722 295.335673 
L 364.557261 295.351406 
L 364.623531 295.289565 
L 364.822339 295.402302 
L 365.021148 295.37963 
L 365.087417 295.205744 
L 365.153687 295.343194 
L 365.219957 295.267702 
L 365.286226 295.346445 
L 365.418765 295.487163 
L 365.485035 295.198685 
L 365.551304 295.258939 
L 365.617574 295.370762 
L 365.683843 295.244484 
L 365.816383 295.388636 
L 365.882652 295.158054 
L 365.948922 295.381225 
L 366.015191 295.331854 
L 366.214 295.30839 
L 366.280269 295.442314 
L 366.346539 295.370456 
L 366.545348 295.452013 
L 366.611617 295.275379 
L 366.677887 295.36196 
L 366.810426 295.212316 
L 366.876695 295.391158 
L 366.942965 295.30545 
L 367.009235 295.271133 
L 367.075504 295.408471 
L 367.141774 295.236981 
L 367.208043 295.267564 
L 367.605661 295.436642 
L 367.7382 295.34042 
L 367.804469 295.395571 
L 367.870739 295.31048 
L 367.937008 295.190936 
L 368.069547 295.379539 
L 368.268356 295.445244 
L 368.334626 295.072137 
L 368.400895 295.22401 
L 368.533434 295.306345 
L 368.599704 295.207089 
L 368.665973 295.392102 
L 368.732243 295.334062 
L 368.997321 295.401618 
L 369.063591 295.473713 
L 369.12986 295.292998 
L 369.19613 295.327989 
L 369.328669 295.417964 
L 369.726286 295.296871 
L 369.925095 295.381149 
L 369.991364 295.313822 
L 370.057634 295.396098 
L 370.190173 295.465102 
L 370.256443 295.309481 
L 370.322712 295.370319 
L 370.58779 295.426016 
L 370.65406 295.366152 
L 370.72033 295.442601 
L 371.316756 295.355051 
L 372.443338 295.362492 
L 372.509608 295.16417 
L 372.575877 295.26426 
L 372.642147 295.438904 
L 372.708416 295.405975 
L 372.840955 295.439217 
L 373.039764 295.289073 
L 373.304842 295.393269 
L 373.437381 295.23728 
L 373.56992 295.415562 
L 373.63619 295.319733 
L 373.70246 295.45729 
L 373.768729 295.359662 
L 373.901268 295.337124 
L 374.033807 295.302303 
L 374.100077 295.420733 
L 374.166346 295.35095 
L 374.232616 295.370391 
L 374.298885 295.137079 
L 374.365155 295.367815 
L 374.431425 295.18069 
L 374.497694 295.231634 
L 374.563964 295.376431 
L 374.630233 295.203475 
L 374.696503 295.246203 
L 374.762772 295.244351 
L 374.895311 295.390612 
L 374.961581 295.155445 
L 375.027851 295.198544 
L 375.16039 295.24329 
L 375.226659 295.043275 
L 375.425468 295.359771 
L 375.823085 295.323334 
L 375.889355 295.070026 
L 375.955624 295.200341 
L 376.286972 295.414173 
L 376.353242 295.216524 
L 376.419511 295.328287 
L 376.55205 295.352473 
L 376.61832 295.173052 
L 376.684589 295.449273 
L 376.750859 295.311985 
L 376.817129 295.25029 
L 376.949668 295.437449 
L 377.281015 295.411487 
L 377.678633 295.409065 
L 377.744902 295.264331 
L 377.811172 295.333031 
L 378.275059 295.469046 
L 378.540137 295.364124 
L 378.871485 295.465366 
L 378.937754 295.331834 
L 379.004024 295.44999 
L 379.070293 295.344831 
L 379.202832 295.359581 
L 379.335372 295.421665 
L 379.401641 295.273315 
L 379.467911 295.461959 
L 379.53418 295.405016 
L 380.064337 295.410405 
L 380.130606 295.283604 
L 380.196876 295.451726 
L 380.263145 295.39559 
L 380.395684 295.404126 
L 380.461954 295.235507 
L 380.528224 295.38421 
L 380.594493 295.19326 
L 380.660763 295.449439 
L 380.727032 295.421675 
L 380.925841 295.393981 
L 381.190919 295.430923 
L 381.257189 295.242939 
L 381.323458 295.317685 
L 381.455997 295.466661 
L 381.522267 295.360393 
L 381.588536 295.451691 
L 381.721076 295.402456 
L 382.317502 295.36153 
L 382.383771 295.155276 
L 382.450041 295.391832 
L 382.51631 295.362453 
L 382.781388 295.301765 
L 382.847658 295.136127 
L 382.913928 295.439984 
L 382.980197 295.39598 
L 383.377814 295.326647 
L 383.576623 295.392232 
L 383.642893 295.271962 
L 383.775432 295.416919 
L 384.239319 295.43344 
L 384.371858 295.415445 
L 384.636936 295.392676 
L 384.703205 295.297275 
L 384.769475 295.363952 
L 384.968284 295.422949 
L 385.167092 295.372356 
L 385.299631 295.391428 
L 385.365901 295.271359 
L 385.49844 295.44983 
L 385.763518 295.357052 
L 385.829788 295.418351 
L 385.896057 295.282537 
L 385.962327 295.390158 
L 386.094866 295.447831 
L 386.227405 295.314732 
L 386.293675 294.96946 
L 386.359944 295.180927 
L 386.426214 295.227148 
L 386.492483 295.110882 
L 386.558753 295.434568 
L 386.625023 295.350574 
L 386.757562 295.423717 
L 386.823831 295.235462 
L 386.890101 295.335692 
L 387.088909 295.483951 
L 387.287718 295.212068 
L 387.353988 295.436534 
L 387.420257 295.318777 
L 387.619066 295.413329 
L 387.685335 295.225376 
L 387.751605 295.297953 
L 387.950414 295.326071 
L 388.016683 295.247971 
L 388.082953 295.357667 
L 388.149222 295.200019 
L 388.281761 295.446331 
L 388.414301 295.387669 
L 388.54684 295.448931 
L 388.613109 295.303274 
L 388.679379 295.389207 
L 388.944457 295.268264 
L 389.010726 295.413814 
L 389.076996 295.307647 
L 389.275805 295.400536 
L 389.474613 295.306311 
L 389.673422 295.358735 
L 389.872231 295.313211 
L 389.9385 295.364384 
L 390.00477 295.276765 
L 390.137309 295.303331 
L 390.203578 295.413634 
L 390.269848 295.295229 
L 390.336118 295.428241 
L 390.402387 295.336604 
L 390.468657 295.289747 
L 390.534926 295.447953 
L 390.601196 295.386483 
L 390.733735 295.258348 
L 390.800004 295.458784 
L 390.866274 295.343939 
L 391.263891 295.453726 
L 391.330161 295.307882 
L 391.39643 295.414182 
L 391.52897 295.448438 
L 391.992856 295.408896 
L 392.059126 295.468249 
L 392.191665 295.367972 
L 392.390474 295.421192 
L 392.523013 295.386965 
L 392.589282 295.45386 
L 392.655552 295.333392 
L 392.721822 295.401765 
L 392.788091 295.363584 
L 392.92063 295.477909 
L 392.9869 295.464605 
L 393.053169 295.310043 
L 393.119439 295.340812 
L 393.384517 295.4126 
L 393.517056 295.307896 
L 393.649595 295.342373 
L 393.980943 295.315499 
L 394.047213 295.455204 
L 394.113482 295.320736 
L 394.246021 295.432825 
L 394.37856 295.480599 
L 394.511099 295.359171 
L 394.577369 295.472353 
L 394.643639 295.384642 
L 394.709908 295.466124 
L 394.776178 295.274359 
L 394.842447 295.299871 
L 395.041256 295.280331 
L 395.173795 295.292601 
L 395.240065 295.419828 
L 395.372604 295.102076 
L 395.571412 295.442018 
L 396.167838 295.387348 
L 396.366647 295.188085 
L 396.565456 295.392331 
L 396.764264 295.294561 
L 396.830534 295.442583 
L 396.896803 295.34488 
L 397.095612 295.450509 
L 397.294421 295.346287 
L 397.493229 295.361431 
L 397.625769 295.250639 
L 397.692038 295.396095 
L 397.758308 295.314033 
L 397.824577 295.417459 
L 397.890847 295.360647 
L 397.957116 295.403531 
L 398.089655 295.126476 
L 398.155925 295.350874 
L 398.222195 295.308426 
L 398.288464 295.375266 
L 398.421003 295.238204 
L 398.487273 295.303153 
L 398.487273 295.303153 
" clip-path="url(#pc9a0e3644f)" style="fill: none; stroke: #1f77b4; stroke-width: 1.5; stroke-linecap: square"/>
   </g>
   <g id="patch_3">
    <path d="M 57.6 307.584 
L 57.6 41.472 
" style="fill: none; stroke: #000000; stroke-width: 0.8; stroke-linejoin: miter; stroke-linecap: square"/>
   </g>
   <g id="patch_4">
    <path d="M 414.72 307.584 
L 414.72 41.472 
" style="fill: none; stroke: #000000; stroke-width: 0.8; stroke-linejoin: miter; stroke-linecap: square"/>
   </g>
   <g id="patch_5">
    <path d="M 57.6 307.584 
L 414.72 307.584 
" style="fill: none; stroke: #000000; stroke-width: 0.8; stroke-linejoin: miter; stroke-linecap: square"/>
   </g>
   <g id="patch_6">
    <path d="M 57.6 41.472 
L 414.72 41.472 
" style="fill: none; stroke: #000000; stroke-width: 0.8; stroke-linejoin: miter; stroke-linecap: square"/>
   </g>
   <g id="text_15">
    <text style="font: 12px 'IPAexGothic'; text-anchor: middle" x="236.16" y="35.472" transform="rotate(-0 236.16 35.472)">"045_A2.wav"の振幅スペクトル</text>
   </g>
  </g>
 </g>
 <defs>
  <clipPath id="pc9a0e3644f">
   <rect x="57.6" y="41.472" width="357.12" height="266.112"/>
  </clipPath>
 </defs>
</svg>
