<?xml version="1.0" encoding="utf-8" standalone="no"?>
<!DOCTYPE svg PUBLIC "-//W3C//DTD SVG 1.1//EN"
  "http://www.w3.org/Graphics/SVG/1.1/DTD/svg11.dtd">
<svg xmlns:xlink="http://www.w3.org/1999/xlink" width="460.8pt" height="345.6pt" viewBox="0 0 460.8 345.6" xmlns="http://www.w3.org/2000/svg" version="1.1">
 <metadata>
  <rdf:RDF xmlns:dc="http://purl.org/dc/elements/1.1/" xmlns:cc="http://creativecommons.org/ns#" xmlns:rdf="http://www.w3.org/1999/02/22-rdf-syntax-ns#">
   <cc:Work>
    <dc:type rdf:resource="http://purl.org/dc/dcmitype/StillImage"/>
    <dc:date>2022-11-28T11:34:06.349703</dc:date>
    <dc:format>image/svg+xml</dc:format>
    <dc:creator>
     <cc:Agent>
      <dc:title>Matplotlib v3.6.2, https://matplotlib.org/</dc:title>
     </cc:Agent>
    </dc:creator>
   </cc:Work>
  </rdf:RDF>
 </metadata>
 <defs>
  <style type="text/css">*{stroke-linejoin: round; stroke-linecap: butt}</style>
 </defs>
 <g id="figure_1">
  <g id="patch_1">
   <path d="M 0 345.6 
L 460.8 345.6 
L 460.8 0 
L 0 0 
z
" style="fill: #ffffff"/>
  </g>
  <g id="axes_1">
   <g id="patch_2">
    <path d="M 57.6 307.584 
L 414.72 307.584 
L 414.72 41.472 
L 57.6 41.472 
z
" style="fill: #ffffff"/>
   </g>
   <g id="matplotlib.axis_1">
    <g id="xtick_1">
     <g id="line2d_1">
      <defs>
       <path id="mad2b8cb9f9" d="M 0 0 
L 0 3.5 
" style="stroke: #000000; stroke-width: 0.8"/>
      </defs>
      <g>
       <use xlink:href="#mad2b8cb9f9" x="73.832727" y="307.584" style="stroke: #000000; stroke-width: 0.8"/>
      </g>
     </g>
     <g id="text_1">
      <text style="font: 10px 'IPAexGothic'; text-anchor: middle" x="73.832727" y="322.074625" transform="rotate(-0 73.832727 322.074625)">0</text>
     </g>
    </g>
    <g id="xtick_2">
     <g id="line2d_2">
      <g>
       <use xlink:href="#mad2b8cb9f9" x="140.102281" y="307.584" style="stroke: #000000; stroke-width: 0.8"/>
      </g>
     </g>
     <g id="text_2">
      <text style="font: 10px 'IPAexGothic'; text-anchor: middle" x="140.102281" y="322.074625" transform="rotate(-0 140.102281 322.074625)">1000</text>
     </g>
    </g>
    <g id="xtick_3">
     <g id="line2d_3">
      <g>
       <use xlink:href="#mad2b8cb9f9" x="206.371835" y="307.584" style="stroke: #000000; stroke-width: 0.8"/>
      </g>
     </g>
     <g id="text_3">
      <text style="font: 10px 'IPAexGothic'; text-anchor: middle" x="206.371835" y="322.074625" transform="rotate(-0 206.371835 322.074625)">2000</text>
     </g>
    </g>
    <g id="xtick_4">
     <g id="line2d_4">
      <g>
       <use xlink:href="#mad2b8cb9f9" x="272.64139" y="307.584" style="stroke: #000000; stroke-width: 0.8"/>
      </g>
     </g>
     <g id="text_4">
      <text style="font: 10px 'IPAexGothic'; text-anchor: middle" x="272.64139" y="322.074625" transform="rotate(-0 272.64139 322.074625)">3000</text>
     </g>
    </g>
    <g id="xtick_5">
     <g id="line2d_5">
      <g>
       <use xlink:href="#mad2b8cb9f9" x="338.910944" y="307.584" style="stroke: #000000; stroke-width: 0.8"/>
      </g>
     </g>
     <g id="text_5">
      <text style="font: 10px 'IPAexGothic'; text-anchor: middle" x="338.910944" y="322.074625" transform="rotate(-0 338.910944 322.074625)">4000</text>
     </g>
    </g>
    <g id="xtick_6">
     <g id="line2d_6">
      <g>
       <use xlink:href="#mad2b8cb9f9" x="405.180498" y="307.584" style="stroke: #000000; stroke-width: 0.8"/>
      </g>
     </g>
     <g id="text_6">
      <text style="font: 10px 'IPAexGothic'; text-anchor: middle" x="405.180498" y="322.074625" transform="rotate(-0 405.180498 322.074625)">5000</text>
     </g>
    </g>
    <g id="text_7">
     <text style="font: 10px 'IPAexGothic'; text-anchor: middle" x="236.16" y="335.924625" transform="rotate(-0 236.16 335.924625)">周波数[Hz]</text>
    </g>
   </g>
   <g id="matplotlib.axis_2">
    <g id="ytick_1">
     <g id="line2d_7">
      <defs>
       <path id="m3713973e7c" d="M 0 0 
L -3.5 0 
" style="stroke: #000000; stroke-width: 0.8"/>
      </defs>
      <g>
       <use xlink:href="#m3713973e7c" x="57.6" y="295.488138" style="stroke: #000000; stroke-width: 0.8"/>
      </g>
     </g>
     <g id="text_8">
      <text style="font: 10px 'IPAexGothic'; text-anchor: end" x="50.6" y="299.233451" transform="rotate(-0 50.6 299.233451)">0.00</text>
     </g>
    </g>
    <g id="ytick_2">
     <g id="line2d_8">
      <g>
       <use xlink:href="#m3713973e7c" x="57.6" y="259.017203" style="stroke: #000000; stroke-width: 0.8"/>
      </g>
     </g>
     <g id="text_9">
      <text style="font: 10px 'IPAexGothic'; text-anchor: end" x="50.6" y="262.762516" transform="rotate(-0 50.6 262.762516)">0.25</text>
     </g>
    </g>
    <g id="ytick_3">
     <g id="line2d_9">
      <g>
       <use xlink:href="#m3713973e7c" x="57.6" y="222.546269" style="stroke: #000000; stroke-width: 0.8"/>
      </g>
     </g>
     <g id="text_10">
      <text style="font: 10px 'IPAexGothic'; text-anchor: end" x="50.6" y="226.291581" transform="rotate(-0 50.6 226.291581)">0.50</text>
     </g>
    </g>
    <g id="ytick_4">
     <g id="line2d_10">
      <g>
       <use xlink:href="#m3713973e7c" x="57.6" y="186.075334" style="stroke: #000000; stroke-width: 0.8"/>
      </g>
     </g>
     <g id="text_11">
      <text style="font: 10px 'IPAexGothic'; text-anchor: end" x="50.6" y="189.820646" transform="rotate(-0 50.6 189.820646)">0.75</text>
     </g>
    </g>
    <g id="ytick_5">
     <g id="line2d_11">
      <g>
       <use xlink:href="#m3713973e7c" x="57.6" y="149.604399" style="stroke: #000000; stroke-width: 0.8"/>
      </g>
     </g>
     <g id="text_12">
      <text style="font: 10px 'IPAexGothic'; text-anchor: end" x="50.6" y="153.349712" transform="rotate(-0 50.6 153.349712)">1.00</text>
     </g>
    </g>
    <g id="ytick_6">
     <g id="line2d_12">
      <g>
       <use xlink:href="#m3713973e7c" x="57.6" y="113.133464" style="stroke: #000000; stroke-width: 0.8"/>
      </g>
     </g>
     <g id="text_13">
      <text style="font: 10px 'IPAexGothic'; text-anchor: end" x="50.6" y="116.878777" transform="rotate(-0 50.6 116.878777)">1.25</text>
     </g>
    </g>
    <g id="ytick_7">
     <g id="line2d_13">
      <g>
       <use xlink:href="#m3713973e7c" x="57.6" y="76.66253" style="stroke: #000000; stroke-width: 0.8"/>
      </g>
     </g>
     <g id="text_14">
      <text style="font: 10px 'IPAexGothic'; text-anchor: end" x="50.6" y="80.407842" transform="rotate(-0 50.6 80.407842)">1.50</text>
     </g>
    </g>
    <g id="text_15">
     <text style="font: 10px 'IPAexGothic'; text-anchor: middle" x="23.1625" y="174.528" transform="rotate(-90 23.1625 174.528)">振幅</text>
    </g>
    <g id="text_16">
     <text style="font: 10px 'IPAexGothic'; text-anchor: start" x="57.6" y="38.472" transform="rotate(-0 57.6 38.472)">1e7</text>
    </g>
   </g>
   <g id="line2d_14">
    <path d="M 73.832727 276.471609 
L 73.965266 294.587636 
L 74.031536 294.962997 
L 74.097805 294.93063 
L 74.296614 295.150989 
L 74.429153 295.351544 
L 74.495423 295.310108 
L 74.627962 295.19116 
L 74.760501 295.201322 
L 74.826771 294.964935 
L 74.89304 295.173825 
L 74.95931 295.057892 
L 75.025579 294.400185 
L 75.158118 295.304159 
L 75.224388 294.30435 
L 75.290657 295.369054 
L 75.356927 294.719548 
L 75.489466 292.989537 
L 75.555736 294.527453 
L 75.622005 294.108257 
L 75.688275 293.811533 
L 75.953353 295.008566 
L 76.019623 295.124077 
L 76.085892 294.453364 
L 76.152162 294.612602 
L 76.218431 295.29684 
L 76.284701 295.116834 
L 76.41724 294.516315 
L 76.483509 295.140497 
L 76.549779 294.566156 
L 76.616049 294.588152 
L 76.682318 294.658822 
L 76.748588 294.521157 
L 76.814857 294.125303 
L 77.013666 294.673328 
L 77.146205 292.819731 
L 77.212475 293.247921 
L 77.278744 293.037005 
L 77.345014 293.153471 
L 77.411283 293.111722 
L 77.543822 287.610787 
L 77.610092 289.022793 
L 77.676361 288.82234 
L 77.808901 286.720305 
L 77.87517 287.139461 
L 78.007709 288.924626 
L 78.073979 286.308866 
L 78.140248 288.026526 
L 78.272787 286.79571 
L 78.339057 286.590504 
L 78.405327 288.546156 
L 78.471596 286.338304 
L 78.537866 288.522552 
L 78.604135 287.540084 
L 78.670405 287.993726 
L 78.736674 289.611381 
L 78.802944 285.281769 
L 78.935483 293.99066 
L 79.001752 293.173649 
L 79.465639 266.821876 
L 79.664448 277.373386 
L 79.796987 274.002059 
L 79.929526 257.553597 
L 80.194604 274.567889 
L 80.327144 271.538909 
L 80.525952 251.497603 
L 80.592222 274.184596 
L 80.658491 261.2129 
L 80.8573 214.25033 
L 80.92357 53.568 
L 80.989839 208.631539 
L 81.056109 149.478838 
L 81.254917 285.928217 
L 81.387456 281.117608 
L 81.519996 274.886188 
L 81.586265 286.401749 
L 81.652535 279.151574 
L 81.851343 291.909529 
L 81.917613 290.44656 
L 81.983882 290.338495 
L 82.050152 289.36638 
L 82.116422 290.44346 
L 82.182691 290.238565 
L 82.31523 287.37026 
L 82.580308 293.893877 
L 82.646578 294.824187 
L 82.845387 292.351209 
L 83.044195 294.156085 
L 83.110465 293.920603 
L 83.309274 288.906284 
L 83.508082 293.918388 
L 83.574352 293.724004 
L 83.640621 294.141998 
L 83.706891 295.321625 
L 83.905699 292.737513 
L 84.170778 295.412369 
L 84.303317 295.241019 
L 84.369586 295.315448 
L 84.502125 294.655563 
L 84.568395 294.59566 
L 85.032282 295.434978 
L 85.098551 294.201871 
L 85.164821 294.91208 
L 85.36363 293.760578 
L 85.496169 291.465457 
L 85.628708 292.275029 
L 85.694977 291.535378 
L 85.827517 294.849397 
L 86.158864 289.633785 
L 86.291403 292.844925 
L 86.357673 291.998938 
L 86.423943 292.324754 
L 86.556482 293.906779 
L 86.82156 292.033207 
L 86.887829 292.213691 
L 86.954099 291.884324 
L 87.020369 290.541036 
L 87.086638 290.965652 
L 87.285447 294.695969 
L 87.417986 291.566879 
L 87.484255 291.807157 
L 87.550525 294.560889 
L 87.683064 291.57518 
L 87.749334 291.972783 
L 88.014412 270.405484 
L 88.080681 270.563983 
L 88.213221 257.899251 
L 88.34576 215.341059 
L 88.544568 293.299591 
L 88.677107 281.915313 
L 88.743377 281.985545 
L 88.875916 289.342251 
L 88.942186 289.893126 
L 89.008455 293.458688 
L 89.074725 291.719082 
L 89.273533 293.220426 
L 89.339803 292.816396 
L 89.406072 292.403729 
L 89.538612 290.514876 
L 89.671151 292.681658 
L 89.73742 292.634897 
L 89.869959 290.844307 
L 90.201307 294.513535 
L 90.400116 293.789513 
L 90.532655 293.931651 
L 90.731464 292.049004 
L 90.797733 291.606922 
L 90.930272 294.179897 
L 90.996542 294.149799 
L 91.129081 293.901958 
L 91.26162 294.843382 
L 91.526698 292.078853 
L 91.659237 293.287934 
L 91.725507 293.061508 
L 91.858046 294.927884 
L 91.924316 294.682561 
L 91.990585 294.431349 
L 92.056855 294.510237 
L 92.123124 294.411653 
L 92.189394 293.725132 
L 92.255663 294.180351 
L 92.520742 291.736212 
L 92.587011 292.146621 
L 92.71955 291.22164 
L 92.852089 293.629138 
L 92.918359 293.536554 
L 92.984628 293.366812 
L 93.117168 293.906144 
L 93.382246 290.429051 
L 93.581054 295.097225 
L 93.647324 294.812565 
L 93.713593 293.430114 
L 93.779863 293.744406 
L 93.846133 295.406063 
L 93.912402 294.478389 
L 93.978672 294.776791 
L 94.17748 293.405103 
L 94.310019 294.948267 
L 94.442559 292.494123 
L 94.508828 292.813597 
L 94.641367 290.839482 
L 94.707637 290.801469 
L 94.773906 291.438587 
L 94.840176 291.1511 
L 94.906445 291.472427 
L 95.171524 285.131047 
L 95.237793 267.994797 
L 95.304063 276.913402 
L 95.436602 285.221837 
L 95.502871 285.019259 
L 95.569141 279.909915 
L 95.70168 293.021104 
L 95.76795 290.619838 
L 95.834219 293.689554 
L 95.900489 293.405421 
L 95.966758 293.318871 
L 96.033028 293.430089 
L 96.099297 294.361479 
L 96.165567 293.930596 
L 96.298106 292.327244 
L 96.364376 292.622129 
L 96.629454 294.942176 
L 96.828263 293.614293 
L 96.894532 292.53708 
L 96.960802 293.395118 
L 97.027071 292.322451 
L 97.292149 294.858804 
L 97.358419 295.18076 
L 97.490958 294.003171 
L 97.557228 294.191227 
L 97.623497 293.776112 
L 97.689767 294.056319 
L 97.954845 295.093186 
L 98.021115 294.584649 
L 98.087384 294.885829 
L 98.286193 295.127782 
L 98.551271 293.961205 
L 98.68381 294.14495 
L 98.75008 294.462546 
L 98.816349 294.072354 
L 98.882619 294.093732 
L 99.015158 294.790505 
L 99.081427 294.803479 
L 99.280236 295.154352 
L 99.412775 295.214303 
L 99.611584 295.019178 
L 99.744123 295.416955 
L 99.876662 294.981184 
L 100.009201 295.067021 
L 100.075471 295.024565 
L 100.20801 294.179899 
L 100.274279 293.155247 
L 100.340549 293.832618 
L 100.473088 293.635863 
L 100.539358 292.87586 
L 100.605627 293.248358 
L 100.671897 294.60866 
L 100.738166 294.441219 
L 100.804436 294.34434 
L 100.870705 294.403685 
L 101.003244 294.766524 
L 101.069514 295.377701 
L 101.135784 295.011605 
L 101.268323 293.183944 
L 101.400862 294.427484 
L 101.467131 293.706594 
L 101.533401 294.045962 
L 101.59967 294.352816 
L 101.66594 294.209508 
L 101.73221 294.217894 
L 101.864749 295.057606 
L 101.931018 294.694656 
L 101.997288 293.58687 
L 102.063557 294.411721 
L 102.129827 294.021965 
L 102.262366 292.665774 
L 102.328636 289.951671 
L 102.394905 290.563791 
L 102.527444 287.395869 
L 102.659983 292.92012 
L 102.726253 291.261306 
L 102.858792 286.797822 
L 102.925062 291.052402 
L 102.991331 287.475962 
L 103.057601 292.59184 
L 103.12387 292.431399 
L 103.19014 291.850915 
L 103.322679 293.242816 
L 103.388948 292.998222 
L 103.521488 293.866068 
L 103.587757 293.526037 
L 103.654027 292.687929 
L 103.852835 294.791571 
L 103.919105 294.992027 
L 104.051644 294.539883 
L 104.184183 295.438836 
L 104.250453 295.252694 
L 104.382992 295.30209 
L 104.64807 294.738755 
L 104.714339 295.187768 
L 104.780609 294.98495 
L 104.846879 294.949425 
L 104.979418 295.192741 
L 105.045687 295.070145 
L 105.244496 293.664902 
L 105.310765 293.864547 
L 105.377035 293.817204 
L 105.443305 293.801284 
L 105.774652 294.759301 
L 105.840922 295.015429 
L 105.907191 294.900465 
L 105.973461 294.503224 
L 106.106 295.322278 
L 106.17227 295.129596 
L 106.304809 295.095747 
L 106.437348 293.905863 
L 106.569887 295.412351 
L 106.636157 295.069193 
L 106.834965 294.984787 
L 106.967504 295.334829 
L 107.166313 294.70295 
L 107.298852 294.975766 
L 107.365122 294.786213 
L 107.497661 294.603105 
L 107.56393 294.909602 
L 107.696469 293.948086 
L 107.762739 294.029649 
L 107.829009 294.939155 
L 107.895278 294.649015 
L 107.961548 294.738232 
L 108.027817 294.554965 
L 108.094087 294.755302 
L 108.160356 294.673441 
L 108.226626 294.362635 
L 108.359165 294.946843 
L 108.425435 294.777014 
L 108.624243 294.89953 
L 108.690513 295.087751 
L 108.889321 294.664522 
L 109.220669 293.729219 
L 109.286939 294.152158 
L 109.485747 292.796107 
L 109.552017 292.661087 
L 109.817095 287.85685 
L 109.883365 291.084903 
L 109.949634 289.40826 
L 110.082173 292.257629 
L 110.148443 291.30783 
L 110.280982 294.048871 
L 110.347252 293.208074 
L 110.413521 293.997885 
L 110.479791 291.758166 
L 110.54606 292.649586 
L 110.744869 294.495741 
L 110.877408 295.087182 
L 111.076217 294.399916 
L 111.208756 293.899473 
L 111.275025 294.410701 
L 111.341295 294.351067 
L 111.407564 294.312861 
L 111.606373 295.180776 
L 111.672643 295.037035 
L 111.738912 295.230688 
L 111.805182 295.190382 
L 111.937721 294.691668 
L 112.00399 294.830746 
L 112.13653 294.809854 
L 112.202799 294.829303 
L 112.335338 295.173012 
L 112.401608 295.069977 
L 112.666686 294.211968 
L 112.732956 294.151393 
L 112.865495 294.710412 
L 112.931764 294.610744 
L 113.064303 294.803587 
L 113.196842 294.167914 
L 113.263112 294.267568 
L 113.329382 293.830319 
L 113.461921 294.232262 
L 113.52819 294.162529 
L 113.660729 294.525797 
L 113.859538 295.029202 
L 113.925807 295.110211 
L 114.323425 294.563308 
L 114.588503 295.29318 
L 114.654773 295.280022 
L 114.853581 294.112693 
L 114.919851 294.525694 
L 114.98612 295.111963 
L 115.05239 295.027357 
L 115.184929 295.35273 
L 115.383738 294.777627 
L 115.582546 294.550384 
L 115.648816 294.32485 
L 115.847625 295.199054 
L 115.913894 295.139051 
L 116.178972 294.102307 
L 116.245242 294.050328 
L 116.311511 294.196344 
L 116.444051 293.322831 
L 116.642859 294.797192 
L 116.709129 294.393848 
L 116.775398 294.823948 
L 116.841668 294.30818 
L 116.907937 292.494114 
L 116.974207 292.704557 
L 117.040477 294.724386 
L 117.106746 293.638166 
L 117.173016 293.522529 
L 117.371824 294.576419 
L 117.438094 294.039469 
L 117.504363 294.691857 
L 117.703172 292.34514 
L 117.835711 295.036159 
L 117.901981 294.982098 
L 118.03452 295.254704 
L 118.233329 294.991917 
L 118.299598 295.24675 
L 118.365868 295.194104 
L 118.432137 294.885484 
L 118.498407 295.105841 
L 118.564676 295.14569 
L 118.630946 294.971652 
L 118.829754 295.364048 
L 119.49245 295.132652 
L 119.823798 295.358929 
L 119.956337 295.294572 
L 120.221415 295.425079 
L 120.353954 295.431783 
L 120.552763 295.168637 
L 120.751572 294.924046 
L 120.817841 295.004317 
L 120.884111 294.914827 
L 121.149189 294.837154 
L 121.215458 294.737796 
L 121.281728 294.917458 
L 121.347998 294.887907 
L 121.679345 294.958765 
L 122.076963 295.38778 
L 122.143232 295.324074 
L 122.209502 295.100268 
L 122.275771 295.172185 
L 122.607119 295.264586 
L 122.739658 295.355694 
L 122.872197 295.407731 
L 123.004736 295.265924 
L 123.137276 294.873486 
L 123.203545 294.866556 
L 123.336084 294.319923 
L 123.468623 294.703764 
L 123.534893 294.37114 
L 123.601162 294.424749 
L 123.799971 294.871188 
L 123.866241 294.346828 
L 123.93251 294.66087 
L 124.065049 294.765508 
L 124.197588 293.80126 
L 124.263858 293.998181 
L 124.528936 295.265606 
L 124.595206 294.93551 
L 124.661475 294.703345 
L 124.794014 292.26749 
L 124.860284 293.306145 
L 124.992823 294.678467 
L 125.059093 294.559917 
L 125.191632 294.085863 
L 125.324171 295.322232 
L 125.522979 294.897382 
L 125.589249 294.902803 
L 125.721788 295.293954 
L 125.788058 295.262334 
L 125.854327 295.115136 
L 125.920597 295.190687 
L 126.251945 295.17078 
L 126.318214 295.111384 
L 126.384484 295.220773 
L 126.517023 295.058666 
L 126.649562 295.240933 
L 126.91464 295.213973 
L 127.113449 295.242608 
L 127.179718 295.17164 
L 127.312257 295.331446 
L 127.378527 295.29714 
L 127.444797 295.393485 
L 127.842414 294.745679 
L 128.041223 295.057152 
L 128.173762 295.301645 
L 128.37257 294.950479 
L 128.43884 294.992912 
L 128.571379 295.167074 
L 128.902727 295.152045 
L 129.035266 295.325948 
L 129.167805 295.22242 
L 129.366614 295.412701 
L 129.499153 295.239295 
L 129.697961 295.024492 
L 129.89677 295.420102 
L 130.493196 294.579756 
L 130.758274 295.395485 
L 130.957083 295.235249 
L 131.089622 295.030369 
L 131.155892 295.154218 
L 131.288431 294.724021 
L 131.42097 295.128971 
L 131.553509 294.00827 
L 131.752318 294.850862 
L 131.818587 293.883224 
L 131.884857 294.21215 
L 132.149935 295.28376 
L 132.415013 294.498346 
L 132.481283 294.422667 
L 132.81263 295.309762 
L 133.210248 295.255345 
L 133.276517 295.316294 
L 133.541596 295.045443 
L 133.740404 295.373647 
L 133.806674 295.397895 
L 133.872943 295.284271 
L 133.939213 295.362862 
L 134.138021 295.159245 
L 134.270561 294.983981 
L 134.33683 295.033402 
L 134.535639 295.17851 
L 134.800717 295.384991 
L 135.065795 295.132987 
L 135.595952 295.341765 
L 135.79476 295.207016 
L 136.126108 295.435432 
L 136.457456 295.292488 
L 136.656265 295.320883 
L 136.788804 295.294339 
L 137.252691 295.365514 
L 137.451499 295.308137 
L 137.584038 295.417368 
L 137.849117 295.210996 
L 138.114195 295.389216 
L 138.313003 295.208723 
L 138.644351 294.824878 
L 138.77689 294.74063 
L 138.909429 294.463933 
L 138.975699 294.512205 
L 139.041968 295.039858 
L 139.108238 294.866843 
L 139.240777 295.348947 
L 139.373316 294.467015 
L 139.572125 294.958446 
L 139.704664 294.429433 
L 139.770934 294.443315 
L 139.837203 294.712446 
L 139.903473 294.360717 
L 139.969742 294.49268 
L 140.23482 295.213439 
L 140.36736 295.069952 
L 140.433629 295.193527 
L 140.499899 295.153636 
L 140.632438 295.043446 
L 140.963786 295.476204 
L 141.361403 295.312264 
L 141.626481 295.457655 
L 141.891559 295.279841 
L 142.289177 295.351056 
L 142.554255 295.343109 
L 142.620524 295.474416 
L 142.686794 295.34276 
L 142.753064 295.380432 
L 142.885603 295.391513 
L 143.482029 295.148423 
L 143.614568 295.377594 
L 143.680837 295.339504 
L 144.210994 295.283315 
L 144.542341 295.404219 
L 144.674881 295.421844 
L 144.873689 295.342438 
L 145.403846 295.329315 
L 145.602654 295.195412 
L 145.668924 294.718801 
L 145.735193 294.920353 
L 145.867733 294.96323 
L 146.066541 294.734972 
L 146.132811 294.554174 
L 146.19908 294.676978 
L 146.26535 294.687852 
L 146.530428 295.384965 
L 146.596698 295.341595 
L 146.928045 294.981051 
L 147.126854 295.311217 
L 147.259393 295.273644 
L 147.325663 294.916552 
L 147.391932 294.976897 
L 147.458202 295.16841 
L 147.524471 295.13615 
L 147.72328 295.077857 
L 147.922089 295.307251 
L 148.319706 295.279524 
L 148.518515 295.165816 
L 148.982402 295.390292 
L 149.114941 295.39632 
L 150.506601 295.437588 
L 150.904219 295.377754 
L 151.036758 295.3034 
L 151.169297 295.309604 
L 151.235566 295.233989 
L 151.434375 295.416438 
L 151.566914 295.414718 
L 151.831992 295.219577 
L 151.964532 295.203061 
L 152.16334 295.237148 
L 152.295879 295.119973 
L 152.693497 295.132352 
L 152.759766 295.180507 
L 152.892305 294.986567 
L 153.024844 295.198049 
L 153.157384 295.014633 
L 153.488731 293.975824 
L 153.555001 294.483302 
L 153.62127 294.280208 
L 153.753809 294.124512 
L 153.886349 295.202382 
L 153.952618 295.175443 
L 154.151427 294.663611 
L 154.416505 295.277716 
L 154.615314 295.032257 
L 154.681583 294.855489 
L 154.747853 294.93538 
L 154.946661 295.334751 
L 155.079201 295.103149 
L 155.14547 295.248889 
L 155.21174 295.292282 
L 155.278009 294.901037 
L 155.344279 295.028696 
L 155.476818 295.321838 
L 155.609357 295.394811 
L 155.808166 295.360725 
L 156.073244 295.392622 
L 156.205783 295.283419 
L 156.338322 295.453953 
L 156.470861 295.308723 
L 156.66967 295.443326 
L 156.868479 295.319453 
L 156.934748 295.46216 
L 157.001018 295.353686 
L 157.067287 295.273922 
L 157.133557 295.33162 
L 157.266096 295.422649 
L 157.398635 295.32512 
L 157.464905 295.454464 
L 157.531174 295.402866 
L 157.663713 295.441727 
L 157.862522 295.455914 
L 158.19387 295.366191 
L 158.392678 295.385496 
L 158.525217 295.389668 
L 158.657756 295.425178 
L 158.856565 295.406868 
L 159.121643 295.429116 
L 159.386722 295.436165 
L 159.6518 295.438039 
L 160.579574 295.335122 
L 160.778382 295.359202 
L 160.977191 294.995969 
L 161.04346 295.190845 
L 161.242269 295.135595 
L 161.308539 295.293872 
L 161.507347 294.769611 
L 161.838695 295.294449 
L 161.971234 295.287272 
L 162.037504 295.176843 
L 162.236312 295.407757 
L 162.63393 294.999304 
L 162.832738 294.957815 
L 162.965278 295.294636 
L 163.097817 295.281289 
L 163.230356 295.406519 
L 163.893051 295.358139 
L 164.02559 295.41219 
L 164.224399 295.318444 
L 164.423208 295.383674 
L 167.339068 295.428919 
L 167.537877 295.436071 
L 167.604146 295.287886 
L 167.670416 295.320124 
L 167.935494 295.433095 
L 168.068033 295.277002 
L 168.995807 295.31149 
L 169.194616 295.294286 
L 169.393424 295.435155 
L 169.857311 295.218154 
L 169.98985 295.381454 
L 170.122389 295.287083 
L 170.254928 295.406426 
L 170.520007 295.340141 
L 170.718815 295.43959 
L 171.248972 295.429384 
L 171.51405 295.458491 
L 171.911667 295.376504 
L 172.176746 295.468114 
L 172.309285 295.403574 
L 172.441824 295.39725 
L 173.237058 295.451654 
L 173.634676 295.439741 
L 173.899754 295.448524 
L 174.562449 295.205568 
L 174.827528 295.475625 
L 175.158875 295.397316 
L 175.291415 295.427555 
L 175.490223 295.26316 
L 175.622762 295.28182 
L 175.821571 295.409219 
L 175.95411 295.280709 
L 176.219188 295.431805 
L 176.351727 295.385746 
L 176.616806 295.258551 
L 176.948153 295.388403 
L 177.279501 295.255493 
L 177.47831 295.474801 
L 177.544579 295.410266 
L 178.141005 295.267251 
L 178.472353 295.455721 
L 178.737431 295.364563 
L 181.520753 295.345693 
L 181.653292 295.397198 
L 182.315987 295.373226 
L 182.382257 295.285824 
L 182.448526 295.40222 
L 182.514796 295.35709 
L 184.83423 295.382076 
L 185.033039 295.473858 
L 186.027082 295.3606 
L 186.35843 295.431684 
L 186.557239 295.408361 
L 186.756047 295.412986 
L 189.075482 295.401405 
L 189.473099 295.463421 
L 189.936986 295.293693 
L 190.268334 295.41792 
L 190.931029 295.413431 
L 191.063568 295.359935 
L 191.593725 295.311241 
L 191.925073 295.434726 
L 193.316733 295.37461 
L 193.581812 295.47345 
L 195.437359 295.401322 
L 195.636168 295.436048 
L 196.033785 295.385633 
L 196.232594 295.433531 
L 196.563941 295.437532 
L 196.696481 295.433156 
L 196.82902 295.421879 
L 197.226637 295.405806 
L 197.425446 295.357312 
L 197.690524 295.375316 
L 198.419489 295.391101 
L 198.618298 295.422072 
L 198.817106 295.265123 
L 198.949645 295.417635 
L 199.413532 295.416067 
L 199.546071 295.418723 
L 200.009958 295.39529 
L 200.208767 295.436138 
L 200.738923 295.400169 
L 201.136541 295.380284 
L 201.335349 295.287186 
L 201.600428 295.466724 
L 201.799236 295.335402 
L 202.130584 295.39956 
L 202.329393 295.333127 
L 202.594471 295.483762 
L 202.79328 295.412464 
L 202.925819 295.451999 
L 203.058358 295.420453 
L 203.257166 295.423788 
L 204.383749 295.392207 
L 204.516288 295.360254 
L 204.715097 295.376223 
L 205.64287 295.420593 
L 206.504375 295.412448 
L 206.769453 295.448872 
L 206.968261 295.411034 
L 207.16707 295.446432 
L 208.161113 295.37582 
L 208.426192 295.448321 
L 208.69127 295.387361 
L 208.890078 295.390979 
L 209.287696 295.409934 
L 209.619044 295.483472 
L 209.884122 295.461757 
L 210.811896 295.378697 
L 211.143243 295.381224 
L 211.474591 295.4078 
L 211.805939 295.342253 
L 225.258658 295.395736 
L 225.457467 295.416995 
L 225.788815 295.420304 
L 226.252702 295.375401 
L 226.385241 295.35279 
L 226.716589 295.399214 
L 226.915397 295.42694 
L 227.114206 295.419745 
L 227.511823 295.461661 
L 228.04198 295.453846 
L 228.307058 295.452445 
L 228.439597 295.36994 
L 228.770945 295.465455 
L 229.036023 295.397255 
L 229.234832 295.403994 
L 229.632449 295.432263 
L 229.831258 295.446605 
L 230.361414 295.461959 
L 230.560223 295.385406 
L 230.825301 295.452663 
L 231.487996 295.442022 
L 232.150692 295.372319 
L 232.41577 295.418769 
L 232.747118 295.364941 
L 233.012196 295.43407 
L 233.343544 295.437674 
L 233.807431 295.459282 
L 234.271318 295.414791 
L 234.470126 295.447534 
L 234.735205 295.409308 
L 236.590752 295.477851 
L 236.789561 295.453491 
L 237.187178 295.451066 
L 237.717335 295.449699 
L 238.910186 295.454117 
L 239.108995 295.474449 
L 239.440343 295.429615 
L 239.970499 295.475667 
L 240.434386 295.457024 
L 240.765734 295.483519 
L 241.29589 295.429006 
L 241.560969 295.435587 
L 241.693508 295.446093 
L 242.223664 295.475925 
L 242.555012 295.439145 
L 242.952629 295.437624 
L 244.145481 295.46557 
L 244.410559 295.455922 
L 244.675638 295.457897 
L 245.073255 295.463789 
L 245.338333 295.421938 
L 246.266107 295.454114 
L 246.729994 295.432177 
L 246.995072 295.450053 
L 247.26015 295.408937 
L 247.657768 295.475121 
L 247.989115 295.412823 
L 248.121655 295.414919 
L 248.320463 295.412925 
L 248.585541 295.426642 
L 251.037515 295.446276 
L 251.302593 295.423071 
L 251.965289 295.459299 
L 252.230367 295.440831 
L 252.561715 295.459463 
L 253.091871 295.464479 
L 253.356949 295.450242 
L 253.622028 295.460903 
L 265.15293 295.435338 
L 265.550547 295.441488 
L 265.815625 295.482246 
L 266.014434 295.457697 
L 266.743399 295.474299 
L 283.178249 295.448112 
L 283.443327 295.444786 
L 285.100066 295.436666 
L 285.563953 295.38932 
L 285.696492 295.398336 
L 287.48577 295.458461 
L 287.817117 295.462074 
L 288.413543 295.448779 
L 288.678622 295.470884 
L 289.937743 295.464043 
L 290.33536 295.480172 
L 290.666708 295.464597 
L 291.85956 295.461039 
L 292.522256 295.447566 
L 294.576612 295.479146 
L 294.775421 295.409185 
L 296.233351 295.457402 
L 305.179741 295.414919 
L 305.378549 295.429652 
L 305.974975 295.457443 
L 306.571401 295.461149 
L 307.631714 295.436455 
L 307.963062 295.431044 
L 308.29441 295.423784 
L 308.559488 295.368307 
L 308.758296 295.424581 
L 309.553531 295.457209 
L 310.348766 295.406362 
L 310.547574 295.455184 
L 310.878922 295.456147 
L 311.342809 295.423908 
L 312.999548 295.442264 
L 313.330896 295.47582 
L 317.572147 295.44361 
L 318.036034 295.459894 
L 318.433651 295.42969 
L 319.295156 295.450108 
L 319.825312 295.454008 
L 320.951894 295.429258 
L 321.945938 295.484462 
L 322.144746 295.428058 
L 322.409825 295.460311 
L 322.741172 295.451456 
L 323.403868 295.427227 
L 324.928068 295.399544 
L 325.259415 295.439056 
L 325.458224 295.445173 
L 326.518537 295.44466 
L 326.783615 295.414599 
L 327.181233 295.372832 
L 327.446311 295.390473 
L 331.488754 295.455754 
L 331.820101 295.407633 
L 332.01891 295.461162 
L 332.350258 295.447413 
L 332.615336 295.464569 
L 333.211762 295.453249 
L 334.073266 295.439307 
L 334.404614 295.447134 
L 336.856587 295.466302 
L 339.176022 295.450331 
L 339.639909 295.48512 
L 340.766491 295.431259 
L 341.164108 295.461176 
L 343.814891 295.456314 
L 344.543856 295.454964 
L 344.808934 295.457947 
L 345.140282 295.480085 
L 352.231124 295.477171 
L 352.429933 295.470673 
L 355.74341 295.470213 
L 357.665227 295.450074 
L 357.996575 295.463024 
L 358.659271 295.474883 
L 361.177514 295.474723 
L 361.442592 295.449915 
L 362.635444 295.473054 
L 367.340582 295.478818 
L 384.570666 295.434186 
L 385.100823 295.43914 
L 385.365901 295.483826 
L 385.630979 295.439988 
L 386.227405 295.423095 
L 386.426214 295.418569 
L 395.571412 295.439285 
L 395.836491 295.458211 
L 398.487273 295.464279 
L 398.487273 295.464279 
" clip-path="url(#pc910a5848e)" style="fill: none; stroke: #1f77b4; stroke-width: 1.5; stroke-linecap: square"/>
   </g>
   <g id="patch_3">
    <path d="M 57.6 307.584 
L 57.6 41.472 
" style="fill: none; stroke: #000000; stroke-width: 0.8; stroke-linejoin: miter; stroke-linecap: square"/>
   </g>
   <g id="patch_4">
    <path d="M 414.72 307.584 
L 414.72 41.472 
" style="fill: none; stroke: #000000; stroke-width: 0.8; stroke-linejoin: miter; stroke-linecap: square"/>
   </g>
   <g id="patch_5">
    <path d="M 57.6 307.584 
L 414.72 307.584 
" style="fill: none; stroke: #000000; stroke-width: 0.8; stroke-linejoin: miter; stroke-linecap: square"/>
   </g>
   <g id="patch_6">
    <path d="M 57.6 41.472 
L 414.72 41.472 
" style="fill: none; stroke: #000000; stroke-width: 0.8; stroke-linejoin: miter; stroke-linecap: square"/>
   </g>
   <g id="text_17">
    <text style="font: 12px 'IPAexGothic'; text-anchor: middle" x="236.16" y="35.472" transform="rotate(-0 236.16 35.472)">"046_A2.wav"の振幅スペクトル</text>
   </g>
  </g>
 </g>
 <defs>
  <clipPath id="pc910a5848e">
   <rect x="57.6" y="41.472" width="357.12" height="266.112"/>
  </clipPath>
 </defs>
</svg>
