<?xml version="1.0" encoding="utf-8" standalone="no"?>
<!DOCTYPE svg PUBLIC "-//W3C//DTD SVG 1.1//EN"
  "http://www.w3.org/Graphics/SVG/1.1/DTD/svg11.dtd">
<svg xmlns:xlink="http://www.w3.org/1999/xlink" width="460.8pt" height="345.6pt" viewBox="0 0 460.8 345.6" xmlns="http://www.w3.org/2000/svg" version="1.1">
 <metadata>
  <rdf:RDF xmlns:dc="http://purl.org/dc/elements/1.1/" xmlns:cc="http://creativecommons.org/ns#" xmlns:rdf="http://www.w3.org/1999/02/22-rdf-syntax-ns#">
   <cc:Work>
    <dc:type rdf:resource="http://purl.org/dc/dcmitype/StillImage"/>
    <dc:date>2022-11-28T11:33:47.321874</dc:date>
    <dc:format>image/svg+xml</dc:format>
    <dc:creator>
     <cc:Agent>
      <dc:title>Matplotlib v3.6.2, https://matplotlib.org/</dc:title>
     </cc:Agent>
    </dc:creator>
   </cc:Work>
  </rdf:RDF>
 </metadata>
 <defs>
  <style type="text/css">*{stroke-linejoin: round; stroke-linecap: butt}</style>
 </defs>
 <g id="figure_1">
  <g id="patch_1">
   <path d="M 0 345.6 
L 460.8 345.6 
L 460.8 0 
L 0 0 
z
" style="fill: #ffffff"/>
  </g>
  <g id="axes_1">
   <g id="patch_2">
    <path d="M 57.6 307.584 
L 414.72 307.584 
L 414.72 41.472 
L 57.6 41.472 
z
" style="fill: #ffffff"/>
   </g>
   <g id="matplotlib.axis_1">
    <g id="xtick_1">
     <g id="line2d_1">
      <defs>
       <path id="m5a803f4a90" d="M 0 0 
L 0 3.5 
" style="stroke: #000000; stroke-width: 0.8"/>
      </defs>
      <g>
       <use xlink:href="#m5a803f4a90" x="73.832727" y="307.584" style="stroke: #000000; stroke-width: 0.8"/>
      </g>
     </g>
     <g id="text_1">
      <text style="font: 10px 'IPAexGothic'; text-anchor: middle" x="73.832727" y="322.074625" transform="rotate(-0 73.832727 322.074625)">0</text>
     </g>
    </g>
    <g id="xtick_2">
     <g id="line2d_2">
      <g>
       <use xlink:href="#m5a803f4a90" x="140.102281" y="307.584" style="stroke: #000000; stroke-width: 0.8"/>
      </g>
     </g>
     <g id="text_2">
      <text style="font: 10px 'IPAexGothic'; text-anchor: middle" x="140.102281" y="322.074625" transform="rotate(-0 140.102281 322.074625)">1000</text>
     </g>
    </g>
    <g id="xtick_3">
     <g id="line2d_3">
      <g>
       <use xlink:href="#m5a803f4a90" x="206.371835" y="307.584" style="stroke: #000000; stroke-width: 0.8"/>
      </g>
     </g>
     <g id="text_3">
      <text style="font: 10px 'IPAexGothic'; text-anchor: middle" x="206.371835" y="322.074625" transform="rotate(-0 206.371835 322.074625)">2000</text>
     </g>
    </g>
    <g id="xtick_4">
     <g id="line2d_4">
      <g>
       <use xlink:href="#m5a803f4a90" x="272.64139" y="307.584" style="stroke: #000000; stroke-width: 0.8"/>
      </g>
     </g>
     <g id="text_4">
      <text style="font: 10px 'IPAexGothic'; text-anchor: middle" x="272.64139" y="322.074625" transform="rotate(-0 272.64139 322.074625)">3000</text>
     </g>
    </g>
    <g id="xtick_5">
     <g id="line2d_5">
      <g>
       <use xlink:href="#m5a803f4a90" x="338.910944" y="307.584" style="stroke: #000000; stroke-width: 0.8"/>
      </g>
     </g>
     <g id="text_5">
      <text style="font: 10px 'IPAexGothic'; text-anchor: middle" x="338.910944" y="322.074625" transform="rotate(-0 338.910944 322.074625)">4000</text>
     </g>
    </g>
    <g id="xtick_6">
     <g id="line2d_6">
      <g>
       <use xlink:href="#m5a803f4a90" x="405.180498" y="307.584" style="stroke: #000000; stroke-width: 0.8"/>
      </g>
     </g>
     <g id="text_6">
      <text style="font: 10px 'IPAexGothic'; text-anchor: middle" x="405.180498" y="322.074625" transform="rotate(-0 405.180498 322.074625)">5000</text>
     </g>
    </g>
    <g id="text_7">
     <text style="font: 10px 'IPAexGothic'; text-anchor: middle" x="236.16" y="335.924625" transform="rotate(-0 236.16 335.924625)">周波数[Hz]</text>
    </g>
   </g>
   <g id="matplotlib.axis_2">
    <g id="ytick_1">
     <g id="line2d_7">
      <defs>
       <path id="m688eae82ad" d="M 0 0 
L -3.5 0 
" style="stroke: #000000; stroke-width: 0.8"/>
      </defs>
      <g>
       <use xlink:href="#m688eae82ad" x="57.6" y="295.555514" style="stroke: #000000; stroke-width: 0.8"/>
      </g>
     </g>
     <g id="text_8">
      <text style="font: 10px 'IPAexGothic'; text-anchor: end" x="50.6" y="299.300826" transform="rotate(-0 50.6 299.300826)">0.0</text>
     </g>
    </g>
    <g id="ytick_2">
     <g id="line2d_8">
      <g>
       <use xlink:href="#m688eae82ad" x="57.6" y="258.365887" style="stroke: #000000; stroke-width: 0.8"/>
      </g>
     </g>
     <g id="text_9">
      <text style="font: 10px 'IPAexGothic'; text-anchor: end" x="50.6" y="262.111199" transform="rotate(-0 50.6 262.111199)">0.2</text>
     </g>
    </g>
    <g id="ytick_3">
     <g id="line2d_9">
      <g>
       <use xlink:href="#m688eae82ad" x="57.6" y="221.17626" style="stroke: #000000; stroke-width: 0.8"/>
      </g>
     </g>
     <g id="text_10">
      <text style="font: 10px 'IPAexGothic'; text-anchor: end" x="50.6" y="224.921573" transform="rotate(-0 50.6 224.921573)">0.4</text>
     </g>
    </g>
    <g id="ytick_4">
     <g id="line2d_10">
      <g>
       <use xlink:href="#m688eae82ad" x="57.6" y="183.986633" style="stroke: #000000; stroke-width: 0.8"/>
      </g>
     </g>
     <g id="text_11">
      <text style="font: 10px 'IPAexGothic'; text-anchor: end" x="50.6" y="187.731946" transform="rotate(-0 50.6 187.731946)">0.6</text>
     </g>
    </g>
    <g id="ytick_5">
     <g id="line2d_11">
      <g>
       <use xlink:href="#m688eae82ad" x="57.6" y="146.797006" style="stroke: #000000; stroke-width: 0.8"/>
      </g>
     </g>
     <g id="text_12">
      <text style="font: 10px 'IPAexGothic'; text-anchor: end" x="50.6" y="150.542319" transform="rotate(-0 50.6 150.542319)">0.8</text>
     </g>
    </g>
    <g id="ytick_6">
     <g id="line2d_12">
      <g>
       <use xlink:href="#m688eae82ad" x="57.6" y="109.607379" style="stroke: #000000; stroke-width: 0.8"/>
      </g>
     </g>
     <g id="text_13">
      <text style="font: 10px 'IPAexGothic'; text-anchor: end" x="50.6" y="113.352692" transform="rotate(-0 50.6 113.352692)">1.0</text>
     </g>
    </g>
    <g id="ytick_7">
     <g id="line2d_13">
      <g>
       <use xlink:href="#m688eae82ad" x="57.6" y="72.417752" style="stroke: #000000; stroke-width: 0.8"/>
      </g>
     </g>
     <g id="text_14">
      <text style="font: 10px 'IPAexGothic'; text-anchor: end" x="50.6" y="76.163065" transform="rotate(-0 50.6 76.163065)">1.2</text>
     </g>
    </g>
    <g id="text_15">
     <text style="font: 10px 'IPAexGothic'; text-anchor: middle" x="29.460938" y="174.528" transform="rotate(-90 29.460938 174.528)">振幅</text>
    </g>
    <g id="text_16">
     <text style="font: 10px 'IPAexGothic'; text-anchor: start" x="57.6" y="38.472" transform="rotate(-0 57.6 38.472)">1e6</text>
    </g>
   </g>
   <g id="line2d_14">
    <path d="M 73.832727 295.392065 
L 73.898997 287.588734 
L 73.965266 287.795579 
L 74.164075 289.107665 
L 74.826771 294.41207 
L 75.025579 294.918128 
L 75.158118 294.637697 
L 75.489466 293.884325 
L 75.622005 293.953023 
L 75.820814 294.459367 
L 76.152162 295.31024 
L 76.41724 294.965547 
L 76.616049 295.075316 
L 76.947396 295.488 
L 77.742631 294.650424 
L 78.007709 294.958673 
L 78.140248 295.046195 
L 78.339057 294.74355 
L 78.670405 294.32828 
L 78.935483 294.424652 
L 79.465639 294.646968 
L 79.730718 294.480515 
L 79.995796 294.346527 
L 80.194604 294.540349 
L 80.459683 294.812129 
L 80.724761 294.451114 
L 80.989839 294.298852 
L 81.387456 294.354233 
L 81.917613 293.963734 
L 82.248961 293.780254 
L 82.845387 293.794625 
L 83.176734 293.664044 
L 83.706891 293.891771 
L 84.038239 293.951021 
L 84.502125 293.826938 
L 84.966012 294.053644 
L 85.36363 293.837715 
L 86.158864 294.04023 
L 86.490212 294.003002 
L 86.887829 294.065316 
L 87.351716 293.877344 
L 87.616795 293.820294 
L 88.743377 292.787976 
L 89.207264 292.828795 
L 89.604881 292.581819 
L 90.267577 292.84805 
L 90.532655 292.861624 
L 90.864003 292.774891 
L 91.32789 293.180695 
L 91.659237 292.811619 
L 91.858046 292.96997 
L 92.056855 293.071655 
L 92.520742 292.818624 
L 92.78582 292.927155 
L 93.183437 292.79803 
L 93.581054 293.115217 
L 93.912402 292.913858 
L 94.17748 293.334371 
L 94.376289 293.464128 
L 94.773906 293.331202 
L 95.038985 293.32948 
L 95.370332 293.15116 
L 95.70168 293.256226 
L 96.231837 292.854319 
L 96.563184 293.08987 
L 96.894532 293.066522 
L 97.822306 293.780577 
L 98.286193 293.60592 
L 98.551271 293.881095 
L 98.68381 293.657708 
L 99.015158 292.867441 
L 99.147697 292.914433 
L 99.479045 293.295877 
L 99.677853 292.986031 
L 99.942932 292.60816 
L 100.20801 292.648375 
L 100.936975 293.06257 
L 101.202053 293.124633 
L 101.59967 293.150603 
L 101.931018 293.546435 
L 102.262366 293.803656 
L 102.659983 293.877193 
L 103.19014 294.22527 
L 103.455218 293.954456 
L 103.720296 293.814864 
L 104.184183 294.033872 
L 104.5818 293.469793 
L 104.979418 293.897035 
L 105.377035 293.214371 
L 105.509574 293.431186 
L 105.840922 294.217388 
L 106.238539 293.762702 
L 106.304809 293.851549 
L 106.834965 294.765762 
L 107.033774 294.858528 
L 107.365122 295.354217 
L 107.696469 295.087541 
L 107.895278 295.055585 
L 108.425435 294.35581 
L 108.756782 294.363296 
L 109.220669 293.983894 
L 110.280982 294.2299 
L 110.54606 294.328883 
L 110.811138 294.417826 
L 111.208756 294.275044 
L 111.540104 294.328581 
L 111.871451 294.223301 
L 112.202799 294.36431 
L 112.666686 294.147518 
L 113.064303 294.540791 
L 113.461921 294.227382 
L 114.190886 294.531955 
L 114.389694 294.397948 
L 114.721042 294.078276 
L 114.98612 294.206064 
L 115.184929 294.186249 
L 115.582546 293.89599 
L 116.377781 294.195008 
L 116.775398 294.556081 
L 117.040477 294.726844 
L 117.438094 295.145292 
L 117.703172 295.1328 
L 117.901981 295.182473 
L 118.498407 294.752452 
L 118.697215 294.7743 
L 119.161102 294.438428 
L 119.55872 294.553187 
L 119.823798 294.471398 
L 120.088876 294.767687 
L 120.353954 294.934748 
L 120.619032 294.956894 
L 120.95038 295.06925 
L 121.281728 294.894814 
L 121.613076 294.930232 
L 122.010693 294.66648 
L 122.607119 294.794354 
L 122.805928 294.909143 
L 123.203545 295.272621 
L 123.667432 295.241862 
L 124.065049 294.693875 
L 124.263858 294.795467 
L 124.462667 294.850704 
L 125.059093 294.390353 
L 126.318214 294.679547 
L 126.715831 294.862518 
L 127.113449 294.791344 
L 127.511066 294.864494 
L 127.776144 294.723118 
L 128.041223 294.277469 
L 128.37257 293.785675 
L 128.571379 293.880912 
L 129.300344 294.707262 
L 129.631692 294.895544 
L 129.96304 294.970435 
L 130.426926 295.424176 
L 130.692005 295.338571 
L 130.890813 295.394901 
L 132.149935 294.208456 
L 132.547552 294.354696 
L 133.011439 294.078475 
L 133.409056 294.313428 
L 134.204291 293.719564 
L 134.4031 293.895599 
L 134.933256 294.576686 
L 135.132065 294.551218 
L 135.330873 294.836086 
L 135.595952 295.354825 
L 135.86103 295.001287 
L 136.192378 295.000784 
L 136.589995 293.882608 
L 136.722534 293.936169 
L 136.987612 294.34017 
L 137.120151 294.040693 
L 137.451499 293.067597 
L 137.584038 293.131345 
L 137.981656 293.819771 
L 138.511812 293.540184 
L 139.439586 293.728093 
L 139.638394 293.668887 
L 140.102281 293.836604 
L 140.433629 293.489694 
L 141.427672 293.858632 
L 141.957829 293.537374 
L 142.222907 293.780898 
L 142.686794 293.688183 
L 142.951872 293.928197 
L 143.21695 293.599064 
L 143.415759 293.547734 
L 143.813376 293.786174 
L 144.210994 293.65391 
L 144.542341 293.67412 
L 145.403846 293.281089 
L 145.801463 292.767215 
L 146.066541 292.546521 
L 146.464159 292.703752 
L 146.928045 292.133579 
L 147.259393 292.385183 
L 147.78955 292.026662 
L 148.054628 292.211281 
L 148.584784 292.045257 
L 148.783593 292.052101 
L 149.380019 291.768949 
L 149.645097 291.644816 
L 149.976445 291.509425 
L 150.440332 291.676093 
L 150.837949 291.98596 
L 151.301836 291.718819 
L 151.699453 292.277154 
L 151.898262 291.810976 
L 152.16334 291.239433 
L 152.295879 291.281714 
L 152.627227 291.561429 
L 152.826036 291.210281 
L 153.091114 290.763406 
L 153.289923 290.827843 
L 153.62127 291.005047 
L 153.952618 291.034976 
L 154.217696 291.106576 
L 155.344279 290.541804 
L 155.609357 291.330514 
L 155.808166 291.580735 
L 156.272053 290.948238 
L 156.537131 291.008548 
L 157.001018 290.464416 
L 157.199826 290.489633 
L 157.398635 290.200865 
L 157.597444 289.996819 
L 157.729983 290.16552 
L 157.995061 290.585747 
L 158.1276 290.322222 
L 158.458948 289.402356 
L 158.591487 289.483325 
L 158.922835 289.896171 
L 159.386722 289.697057 
L 159.850608 290.270354 
L 160.248226 290.103807 
L 160.579574 290.229965 
L 160.778382 289.765416 
L 161.04346 289.247742 
L 161.176 289.362584 
L 161.374808 289.54807 
L 161.507347 289.271947 
L 161.772426 288.472585 
L 161.838695 288.520497 
L 161.971234 289.095309 
L 162.236312 290.857681 
L 162.302582 290.826922 
L 162.501391 289.293053 
L 162.766469 287.869315 
L 162.899008 288.358044 
L 163.362895 292.034314 
L 163.429164 291.873035 
L 163.893051 290.15929 
L 164.02559 290.329322 
L 164.290669 290.75447 
L 164.423208 290.570197 
L 164.820825 289.634894 
L 165.019634 289.760233 
L 165.218442 289.826308 
L 165.814868 289.31382 
L 166.212486 288.559604 
L 166.345025 288.714343 
L 166.610103 289.151294 
L 166.742642 288.993685 
L 167.00772 288.590855 
L 167.140259 288.818393 
L 167.471607 289.771948 
L 167.604146 289.650761 
L 167.935494 289.064822 
L 168.134303 289.224142 
L 168.399381 289.477735 
L 168.929537 289.5396 
L 169.194616 289.797911 
L 169.592233 289.666917 
L 169.923581 290.845441 
L 169.98985 290.763395 
L 170.188659 289.38255 
L 170.387468 288.196066 
L 170.453737 288.175847 
L 170.586276 288.774346 
L 170.851354 290.669003 
L 170.917624 290.655161 
L 171.248972 289.320108 
L 171.315241 289.483905 
L 171.646589 291.32814 
L 171.712859 291.04428 
L 172.110476 288.340636 
L 172.243015 288.555906 
L 172.441824 288.98451 
L 172.574363 288.744423 
L 172.839441 288.089474 
L 172.97198 288.237911 
L 173.237058 288.660678 
L 173.568406 288.555731 
L 173.767215 289.15647 
L 173.966023 289.68099 
L 174.098563 289.532309 
L 174.42991 288.830883 
L 174.562449 289.207821 
L 174.893797 291.322223 
L 174.960067 291.286454 
L 175.158875 289.520436 
L 175.423954 287.540278 
L 175.490223 287.601465 
L 175.622762 288.429793 
L 175.887841 290.374555 
L 176.02038 289.610143 
L 176.285458 287.610131 
L 176.351727 287.571338 
L 176.484267 288.056122 
L 176.749345 289.205509 
L 176.881884 289.087719 
L 177.014423 288.972708 
L 177.146962 289.243166 
L 177.41204 289.941364 
L 177.743388 289.394371 
L 177.942197 290.182802 
L 178.074736 290.56285 
L 178.207275 290.066513 
L 178.472353 288.558461 
L 178.538623 288.54455 
L 178.737431 289.299685 
L 178.86997 289.668019 
L 179.00251 289.3927 
L 179.201318 288.774368 
L 179.267588 288.80418 
L 179.400127 289.319991 
L 179.996553 292.373903 
L 180.129092 292.981554 
L 180.195362 292.854633 
L 180.46044 289.97115 
L 180.659248 288.716872 
L 180.725518 288.718373 
L 180.990596 289.494182 
L 181.056866 289.438236 
L 181.255674 288.413745 
L 181.587022 287.079689 
L 181.98464 286.384602 
L 182.249718 286.484933 
L 182.382257 285.92455 
L 182.779874 283.567427 
L 182.912413 283.918262 
L 183.111222 284.43059 
L 183.243761 283.875802 
L 184.038996 278.278483 
L 184.171535 277.987357 
L 184.304074 278.303553 
L 184.502883 278.910185 
L 184.635422 278.757896 
L 184.767961 278.571305 
L 184.9005 279.229506 
L 185.298117 284.788485 
L 185.364387 284.280056 
L 185.762004 279.058345 
L 185.894543 279.727493 
L 186.093352 280.799227 
L 186.225891 280.134767 
L 187.021126 273.119608 
L 187.087395 273.036179 
L 187.219934 273.513697 
L 187.352473 273.962065 
L 187.418743 273.71174 
L 187.617552 270.395855 
L 187.948899 265.32636 
L 188.015169 265.289858 
L 188.479056 266.854736 
L 188.876673 269.997025 
L 188.942943 269.887208 
L 189.075482 269.419218 
L 189.141751 269.590216 
L 189.27429 271.886324 
L 189.539369 279.30058 
L 189.671908 272.681666 
L 190.069525 245.227641 
L 190.334603 234.544006 
L 190.533412 209.66418 
L 191.461186 59.110219 
L 191.593725 53.568 
L 191.659994 53.577699 
L 191.792534 59.046973 
L 192.123881 92.528967 
L 192.919116 168.715097 
L 193.78062 247.664547 
L 193.979429 246.87255 
L 194.111968 249.394513 
L 194.377046 258.23901 
L 194.443316 258.212166 
L 194.642124 252.362409 
L 194.840933 249.066748 
L 194.973472 251.027707 
L 195.23855 254.939465 
L 195.437359 253.685274 
L 195.503629 253.994021 
L 195.636168 257.219869 
L 195.967515 268.587344 
L 196.100055 265.576629 
L 196.298863 260.798549 
L 196.365133 261.030573 
L 196.563941 267.058725 
L 196.696481 270.777998 
L 196.76275 270.670912 
L 197.160367 260.205533 
L 197.226637 260.743803 
L 197.624254 269.410372 
L 197.690524 269.328221 
L 197.823063 268.68533 
L 197.889333 268.70614 
L 198.021872 269.957537 
L 198.22068 272.418436 
L 198.28695 272.396281 
L 198.618298 269.305847 
L 198.684567 269.833545 
L 199.082184 277.493514 
L 199.148454 276.802833 
L 199.479802 272.231599 
L 199.612341 274.137048 
L 199.943689 280.151055 
L 200.142497 276.56447 
L 200.341306 273.896542 
L 200.407576 273.951144 
L 200.540115 275.360118 
L 200.871462 280.089661 
L 200.937732 280.158143 
L 201.070271 279.433442 
L 201.401619 277.583623 
L 201.534158 277.731324 
L 201.799236 278.868825 
L 202.395662 281.793236 
L 202.72701 282.186792 
L 202.992088 283.829391 
L 203.257166 284.929371 
L 203.455975 284.747195 
L 203.919862 284.276288 
L 204.118671 283.9071 
L 204.25121 284.437235 
L 204.648827 287.617042 
L 204.847636 286.006897 
L 204.980175 285.198927 
L 205.046444 285.224682 
L 205.178983 286.225155 
L 205.510331 289.526885 
L 205.841679 287.722078 
L 205.907949 287.901069 
L 206.106757 289.840892 
L 206.371835 291.849633 
L 206.636914 291.177246 
L 206.703183 291.231592 
L 206.968261 291.632681 
L 207.23334 291.182741 
L 207.299609 291.245699 
L 207.564687 291.996606 
L 207.630957 291.906165 
L 207.962305 290.388987 
L 208.028574 290.442688 
L 208.161113 291.135816 
L 208.426192 292.933206 
L 208.558731 292.354806 
L 208.823809 291.281096 
L 208.956348 291.719602 
L 209.287696 293.157727 
L 209.751583 292.493699 
L 209.884122 292.378209 
L 210.1492 291.9868 
L 210.281739 292.13695 
L 210.546817 292.571707 
L 210.679356 292.157857 
L 211.010704 291.043478 
L 211.143243 291.216689 
L 211.60713 292.481001 
L 211.739669 292.37189 
L 212.137287 291.735863 
L 212.269826 291.956365 
L 212.667443 293.279466 
L 213.06506 292.3012 
L 213.13133 292.374815 
L 213.528947 293.125508 
L 213.992834 292.349039 
L 214.390451 291.695725 
L 214.522991 291.959301 
L 214.788069 292.548844 
L 214.920608 292.13135 
L 215.185686 291.119541 
L 215.251956 291.104166 
L 215.384495 291.401126 
L 215.649573 292.155336 
L 215.782112 291.935553 
L 216.11346 291.085044 
L 216.312269 291.067162 
L 216.577347 291.334226 
L 216.974964 292.17626 
L 217.041234 292.091355 
L 217.438851 291.095106 
L 217.57139 291.312708 
L 217.836468 291.93004 
L 217.969007 291.778256 
L 218.300355 291.124073 
L 218.432894 291.172029 
L 218.764242 291.682968 
L 219.161859 292.433997 
L 219.294398 292.233278 
L 219.625746 291.589112 
L 219.758285 291.8475 
L 220.089633 292.90555 
L 220.155903 292.881861 
L 220.61979 292.293121 
L 220.884868 292.484634 
L 221.017407 292.346272 
L 221.680102 291.095992 
L 222.07772 291.613802 
L 222.143989 291.544481 
L 222.541607 290.833771 
L 222.674146 291.011538 
L 223.005494 291.706795 
L 223.138033 291.632033 
L 223.403111 291.356704 
L 223.60192 291.506256 
L 224.595963 292.869525 
L 225.05985 292.75224 
L 225.523737 293.740094 
L 225.590006 293.620476 
L 225.921354 293.059836 
L 226.053893 293.328613 
L 226.318971 294.095245 
L 226.45151 293.795817 
L 226.782858 292.877532 
L 226.915397 293.00894 
L 227.246745 293.441 
L 227.578093 293.223042 
L 227.97571 293.379338 
L 228.174519 293.359034 
L 228.505867 293.816687 
L 228.572136 293.724888 
L 229.036023 292.467135 
L 229.234832 292.981344 
L 229.43364 293.485866 
L 229.566179 293.339374 
L 229.831258 292.842395 
L 229.963797 292.895461 
L 230.427684 293.37148 
L 230.692762 293.267459 
L 231.156649 292.88305 
L 231.355457 293.404234 
L 231.620536 294.008455 
L 231.819344 293.33367 
L 232.084422 292.655823 
L 232.216962 292.665436 
L 232.614579 292.94386 
L 232.879657 292.730756 
L 233.211005 292.500955 
L 233.343544 292.668163 
L 233.807431 293.779457 
L 233.8737 293.687339 
L 234.138779 293.254977 
L 234.271318 293.384399 
L 234.602665 294.278459 
L 234.668935 294.230749 
L 235.199091 293.038952 
L 235.3979 293.281817 
L 235.662978 293.542982 
L 235.795517 293.393505 
L 236.193135 292.295492 
L 236.458213 291.797665 
L 236.590752 291.818171 
L 236.789561 292.220334 
L 237.187178 293.035746 
L 237.385987 293.265598 
L 237.717335 294.356568 
L 237.783604 294.186841 
L 238.4463 290.760628 
L 238.578839 291.014137 
L 238.843917 292.188386 
L 239.241534 295.40698 
L 239.307804 295.019728 
L 239.639152 292.866229 
L 239.771691 292.743936 
L 239.970499 292.810862 
L 240.103038 292.366254 
L 240.500656 290.568689 
L 240.633195 290.863595 
L 240.898273 292.75315 
L 241.229621 295.148535 
L 241.29589 295.18215 
L 241.826047 293.580675 
L 241.958586 293.825082 
L 242.223664 294.677718 
L 242.621282 293.105561 
L 242.687551 293.140924 
L 242.88636 293.849779 
L 243.085168 294.352609 
L 243.350247 293.325065 
L 243.880403 291.513261 
L 244.012942 291.661881 
L 244.27802 292.271822 
L 244.410559 291.587831 
L 244.675638 290.130019 
L 244.741907 290.241216 
L 245.006985 291.874979 
L 245.073255 291.438049 
L 245.404603 284.183954 
L 245.669681 280.600784 
L 246.001029 279.309222 
L 246.199837 278.962523 
L 246.332377 279.71038 
L 246.597455 282.795492 
L 246.663724 282.757876 
L 246.796263 280.482141 
L 247.591498 255.931434 
L 248.055385 233.56769 
L 248.254194 231.418459 
L 248.320463 231.426309 
L 248.585541 232.248782 
L 248.71808 233.395401 
L 249.115698 240.777375 
L 249.181967 239.453673 
L 249.380776 225.076336 
L 249.844663 183.307558 
L 250.043472 179.915567 
L 250.176011 181.403347 
L 250.507358 189.486023 
L 250.772437 201.798341 
L 252.097828 284.924986 
L 252.164097 285.10906 
L 252.362906 280.693093 
L 252.893062 268.918579 
L 253.091871 267.814241 
L 253.22441 268.550336 
L 253.489488 272.244989 
L 253.820836 279.911153 
L 254.218453 289.963116 
L 254.350993 288.391874 
L 254.74861 282.556648 
L 255.079958 280.908264 
L 255.278766 280.736945 
L 255.477575 281.067699 
L 255.676384 281.823605 
L 256.007731 284.407072 
L 256.20654 285.483735 
L 256.27281 285.492922 
L 256.471618 284.893559 
L 257.333123 282.070017 
L 257.399392 282.154175 
L 257.66447 282.492635 
L 257.863279 282.489858 
L 257.995818 283.245989 
L 258.194627 286.457135 
L 258.459705 290.118144 
L 258.923592 284.01223 
L 258.989861 284.242392 
L 259.18867 286.494593 
L 259.520018 290.387048 
L 259.652557 290.582519 
L 259.785096 290.073863 
L 260.182713 288.265829 
L 260.315252 288.790517 
L 260.580331 290.335216 
L 260.6466 290.197325 
L 261.044218 288.045509 
L 261.176757 288.424619 
L 261.375565 288.955497 
L 261.508104 288.484499 
L 261.839452 287.10339 
L 261.971991 287.32062 
L 262.303339 287.965412 
L 262.700956 287.873639 
L 263.098574 287.354709 
L 263.231113 287.752193 
L 263.761269 290.133777 
L 264.092617 290.109725 
L 264.490234 289.488629 
L 264.556504 289.599926 
L 264.821582 290.401495 
L 264.887852 290.323563 
L 265.285469 288.460642 
L 265.351739 288.589268 
L 265.683086 290.434936 
L 265.749356 290.369989 
L 266.146973 288.639757 
L 266.279512 289.062694 
L 266.743399 291.152922 
L 267.074747 291.790403 
L 267.207286 291.517218 
L 267.472364 291.017627 
L 267.604903 291.376958 
L 267.869982 292.254878 
L 268.002521 292.060533 
L 268.267599 291.640053 
L 268.400138 291.475563 
L 268.598947 290.518585 
L 268.930294 289.086053 
L 269.129103 288.578688 
L 269.59299 285.449584 
L 269.65926 285.522439 
L 269.924338 286.628015 
L 269.990607 286.561268 
L 270.189416 284.929352 
L 270.454494 282.975241 
L 270.587033 282.968159 
L 270.785842 283.097883 
L 270.918381 282.580895 
L 271.448538 279.808356 
L 271.581077 279.829627 
L 271.713616 280.355239 
L 271.978694 283.199457 
L 272.177503 284.922207 
L 272.243772 284.870942 
L 272.57512 283.136818 
L 272.64139 283.31644 
L 272.906468 284.713592 
L 273.039007 283.495918 
L 273.436624 277.826303 
L 273.502894 277.881266 
L 273.834241 279.542887 
L 273.966781 278.833129 
L 274.231859 277.188969 
L 274.298128 277.229713 
L 274.563207 278.048877 
L 274.629476 277.97703 
L 274.894554 277.060745 
L 274.960824 277.175983 
L 275.093363 278.196679 
L 275.424711 281.418719 
L 275.49098 281.344359 
L 275.756059 280.447172 
L 275.954867 280.603216 
L 276.087406 279.641964 
L 276.551293 272.657891 
L 276.683832 273.997167 
L 276.948911 278.203914 
L 277.01518 278.091111 
L 277.213989 274.653895 
L 277.412797 271.860688 
L 277.479067 271.773729 
L 277.611606 272.699154 
L 277.876684 274.651191 
L 278.009223 274.055498 
L 278.208032 273.140293 
L 278.340571 273.761299 
L 278.738188 277.247495 
L 278.870728 277.003045 
L 279.069536 276.724776 
L 279.268345 277.373268 
L 279.467154 277.767345 
L 279.665962 277.702765 
L 279.798501 278.125493 
L 280.461197 281.824908 
L 280.660006 282.690078 
L 280.925084 283.920432 
L 280.991353 283.921917 
L 281.190162 283.375446 
L 281.587779 281.818879 
L 281.919127 280.130809 
L 281.985397 280.117498 
L 282.117936 280.479668 
L 282.383014 281.326294 
L 282.515553 281.237015 
L 282.714362 281.087575 
L 282.97944 281.398819 
L 283.111979 280.910052 
L 283.509596 278.123343 
L 283.575866 278.246033 
L 283.774675 279.949307 
L 284.106022 282.587941 
L 284.238561 282.374502 
L 284.43737 282.069139 
L 284.569909 282.571599 
L 285.033796 286.179306 
L 285.100066 285.976098 
L 285.298874 283.930007 
L 285.630222 280.725396 
L 285.696492 280.586983 
L 285.762761 280.635049 
L 285.96157 281.611836 
L 286.491726 284.574302 
L 287.154422 286.627474 
L 287.4195 286.888376 
L 287.684578 286.639063 
L 287.883387 286.586493 
L 288.612352 287.175813 
L 288.87743 287.672555 
L 289.009969 287.403712 
L 289.275048 286.611365 
L 289.341317 286.647186 
L 289.473856 287.153043 
L 289.871474 289.317213 
L 290.004013 289.140541 
L 290.269091 288.751205 
L 290.4679 288.751191 
L 290.666708 288.283666 
L 290.865517 287.790418 
L 290.931786 287.800249 
L 291.064326 288.144337 
L 291.329404 288.999258 
L 291.461943 288.708139 
L 291.793291 287.420238 
L 291.85956 287.439152 
L 291.992099 287.821509 
L 292.455986 289.741417 
L 292.522256 289.726948 
L 292.654795 289.355158 
L 293.31749 286.086459 
L 293.38376 286.113747 
L 293.847647 286.518564 
L 294.046455 286.443308 
L 294.245264 286.119636 
L 294.510342 285.603978 
L 294.642881 285.711264 
L 295.239307 287.027416 
L 295.371847 287.214604 
L 295.769464 288.866993 
L 295.835733 288.780194 
L 296.233351 287.43567 
L 296.36589 287.808631 
L 296.697238 288.991687 
L 296.962316 289.563557 
L 297.161125 290.050605 
L 297.293664 289.492426 
L 297.691281 286.669691 
L 297.82382 287.217526 
L 298.353977 291.51657 
L 298.619055 290.932726 
L 298.817863 289.875724 
L 299.215481 287.421577 
L 299.28175 287.457964 
L 299.480559 288.222746 
L 299.878176 289.565916 
L 300.076985 290.153048 
L 300.143254 290.068568 
L 300.275794 288.925612 
L 300.73968 282.879673 
L 300.80595 282.87695 
L 300.938489 283.719954 
L 301.336106 287.7197 
L 301.402376 287.679344 
L 301.601185 286.595612 
L 301.998802 283.259724 
L 302.661498 276.034797 
L 302.794037 275.900417 
L 302.926576 276.175426 
L 303.125384 277.30297 
L 303.390463 280.522989 
L 303.920619 287.948773 
L 304.053158 287.409595 
L 304.318236 286.014266 
L 304.450775 286.013379 
L 304.848393 287.102015 
L 304.914662 287.040994 
L 305.047201 286.530787 
L 306.372593 278.59816 
L 306.505132 278.618158 
L 306.902749 279.213832 
L 307.101558 279.26403 
L 307.234097 279.747334 
L 307.432905 281.676959 
L 308.22814 291.681334 
L 308.625757 294.77087 
L 308.890836 292.982233 
L 309.487262 289.450898 
L 310.282496 286.879678 
L 310.415035 286.931202 
L 310.613844 287.729221 
L 310.945192 289.343644 
L 311.077731 289.383602 
L 311.409079 289.100683 
L 311.674157 289.575088 
L 311.872966 289.744129 
L 312.138044 289.485176 
L 312.403122 289.386499 
L 312.601931 289.638116 
L 312.867009 290.603867 
L 313.065818 291.177997 
L 313.198357 290.858223 
L 313.595974 289.101808 
L 313.728513 289.401944 
L 314.12613 291.227165 
L 314.1924 291.173711 
L 314.590017 290.443592 
L 314.788826 290.330901 
L 315.252713 289.339917 
L 315.318982 289.384108 
L 315.584061 290.029216 
L 315.981678 290.777124 
L 316.379295 291.500258 
L 316.511834 291.324908 
L 316.909452 290.537191 
L 317.10826 290.765046 
L 317.307069 290.965581 
L 317.439608 290.797135 
L 317.969765 289.595587 
L 318.102304 289.754072 
L 318.69873 291.196362 
L 318.764999 291.124813 
L 319.030077 290.375368 
L 319.295156 289.761948 
L 319.427695 289.74431 
L 319.626503 290.142703 
L 319.957851 291.718323 
L 320.222929 292.638348 
L 320.355468 292.341275 
L 320.753086 290.967988 
L 320.885625 291.191978 
L 321.084434 292.327988 
L 321.415781 294.550078 
L 321.61459 293.429854 
L 321.945938 292.021907 
L 322.078477 292.017309 
L 322.211016 292.344637 
L 322.476094 293.816357 
L 322.674903 294.515469 
L 323.205059 292.172367 
L 323.271329 292.251181 
L 323.470138 292.997522 
L 323.801485 294.188186 
L 324.066563 294.39033 
L 324.265372 294.902897 
L 324.331642 294.803197 
L 325.193146 291.071174 
L 325.657033 289.243523 
L 325.922111 287.010616 
L 326.385998 282.598599 
L 326.518537 282.367469 
L 326.651076 282.702657 
L 326.916154 284.476971 
L 328.042737 292.976033 
L 328.175276 293.175189 
L 328.307815 292.905258 
L 328.705432 291.799541 
L 328.837971 291.894552 
L 329.434397 292.862168 
L 329.699476 293.205877 
L 330.693519 295.088812 
L 330.826058 295.092327 
L 331.488754 294.044918 
L 331.687562 294.001227 
L 331.886371 293.579113 
L 332.283988 292.722164 
L 332.482797 292.652857 
L 332.747875 292.839885 
L 333.145492 293.201192 
L 333.410571 293.252705 
L 333.609379 293.627626 
L 333.808188 294.03135 
L 333.940727 293.850013 
L 334.338344 292.85336 
L 334.470883 292.918273 
L 335.266118 293.859673 
L 335.332388 293.799284 
L 335.597466 292.825394 
L 335.862544 292.220704 
L 336.45897 292.147494 
L 336.591509 292.316651 
L 337.453013 294.357876 
L 337.585553 294.036014 
L 337.98317 292.9182 
L 338.314518 292.910222 
L 338.778404 291.726277 
L 338.844674 291.799604 
L 339.176022 292.467971 
L 339.242291 292.397293 
L 339.772448 291.281317 
L 340.170065 291.627223 
L 340.435143 292.04182 
L 340.766491 293.293925 
L 341.164108 294.690714 
L 341.362917 293.973841 
L 341.760534 292.533482 
L 342.091882 292.05262 
L 342.42323 291.877173 
L 342.953386 291.878831 
L 343.152195 292.106421 
L 343.616082 292.790703 
L 344.013699 292.889935 
L 344.676395 293.496573 
L 344.875203 293.534626 
L 345.074012 293.133959 
L 345.670438 291.450853 
L 346.134325 290.899125 
L 346.399403 290.951995 
L 346.664481 290.966454 
L 346.92956 290.998433 
L 347.128368 291.404348 
L 347.525986 292.496088 
L 347.658525 292.471794 
L 348.122412 292.10762 
L 348.785107 292.278651 
L 349.050185 292.293701 
L 349.447803 292.500355 
L 349.646611 292.077852 
L 349.91169 291.536069 
L 350.044229 291.617354 
L 350.243037 292.227343 
L 350.773194 294.116743 
L 350.905733 293.983511 
L 351.36962 292.868073 
L 351.502159 293.200141 
L 351.767237 294.371584 
L 351.833507 294.281532 
L 352.297394 292.380971 
L 352.429933 292.571142 
L 352.628741 292.93514 
L 352.76128 292.801738 
L 353.026359 292.283243 
L 353.158898 292.383703 
L 353.490246 293.051463 
L 353.622785 292.80047 
L 354.152941 291.250902 
L 354.35175 291.252112 
L 354.550558 291.689754 
L 355.014445 293.589411 
L 355.080715 293.569111 
L 355.213254 293.04194 
L 356.008489 288.572284 
L 356.604915 287.248339 
L 356.737454 287.504021 
L 357.002532 288.867383 
L 357.33388 290.374174 
L 357.532688 290.558643 
L 357.864036 290.702033 
L 358.129114 291.23567 
L 358.858079 293.59398 
L 359.056888 294.24308 
L 359.123158 294.202446 
L 359.388236 293.000808 
L 359.653314 292.228938 
L 360.117201 291.79858 
L 360.647357 290.589562 
L 360.912436 290.464339 
L 361.111244 290.638978 
L 361.376322 291.341703 
L 361.840209 292.560218 
L 361.972748 292.529387 
L 362.171557 292.068243 
L 362.502905 290.361384 
L 362.834253 288.911943 
L 362.966792 288.833827 
L 363.29814 289.110066 
L 363.430679 288.710127 
L 363.960835 286.487902 
L 364.159644 286.655459 
L 364.490991 286.909479 
L 364.6898 287.109126 
L 365.286226 288.077497 
L 365.485035 288.34425 
L 365.750113 289.306745 
L 366.280269 291.488633 
L 366.412809 291.510386 
L 366.677887 291.399177 
L 366.876695 291.723674 
L 367.075504 291.904369 
L 367.274313 291.375742 
L 367.473121 290.969397 
L 367.605661 291.160227 
L 367.870739 291.807542 
L 368.003278 291.450742 
L 368.334626 290.321961 
L 368.467165 290.622934 
L 368.732243 291.544191 
L 368.798512 291.496777 
L 369.19613 290.415158 
L 369.262399 290.500713 
L 370.256443 293.177718 
L 370.322712 293.138517 
L 370.65406 292.675969 
L 370.985408 292.78523 
L 371.383025 292.007309 
L 371.449295 292.066918 
L 371.846912 292.728593 
L 372.244529 292.318737 
L 372.575877 292.413184 
L 372.973494 292.063087 
L 373.304842 292.234395 
L 373.768729 292.051795 
L 374.563964 293.008955 
L 374.961581 293.762908 
L 375.226659 293.90397 
L 375.359198 293.759604 
L 375.756816 293.033253 
L 375.889355 293.155997 
L 376.154433 293.52247 
L 376.286972 293.24132 
L 376.684589 292.174447 
L 376.817129 292.288614 
L 377.214746 292.907331 
L 377.678633 292.796667 
L 378.009981 293.285154 
L 378.341328 293.655108 
L 378.738946 293.714515 
L 379.732989 293.770799 
L 380.263145 294.15597 
L 380.528224 293.662149 
L 380.793302 293.33994 
L 381.190919 293.258699 
L 381.522267 292.951027 
L 381.654806 293.060619 
L 382.118693 293.711829 
L 382.383771 293.356425 
L 382.980197 292.580979 
L 383.112736 292.691321 
L 383.311545 293.224194 
L 383.841701 294.830096 
L 384.106779 294.499005 
L 384.438127 294.16986 
L 384.636936 294.200366 
L 384.968284 294.604337 
L 385.56471 295.414432 
L 385.829788 294.689135 
L 386.227405 293.779841 
L 386.426214 293.712135 
L 386.625023 293.976556 
L 386.890101 294.842264 
L 387.02264 295.265783 
L 387.155179 294.804157 
L 387.619066 292.947881 
L 387.817875 292.740141 
L 388.082953 292.813601 
L 388.414301 293.12536 
L 388.679379 293.82741 
L 389.076996 294.954689 
L 389.209535 294.619051 
L 389.607152 292.358831 
L 389.9385 290.977327 
L 390.071039 290.943453 
L 390.269848 291.390944 
L 390.866274 293.766297 
L 391.131352 294.728486 
L 391.330161 294.018545 
L 392.125396 291.337064 
L 392.257935 291.140119 
L 392.390474 291.327398 
L 392.854361 293.129193 
L 392.92063 293.062274 
L 393.185708 292.070958 
L 393.517056 290.336545 
L 393.848404 286.857489 
L 394.246021 282.881676 
L 394.37856 282.739365 
L 394.511099 283.33957 
L 395.107525 287.441579 
L 395.306334 288.191221 
L 395.637682 291.049408 
L 395.90276 292.709938 
L 396.366647 294.014969 
L 396.432917 293.975593 
L 396.697995 292.759108 
L 397.029343 291.760233 
L 397.42696 291.231422 
L 397.559499 291.421215 
L 397.824577 292.492316 
L 398.288464 294.252509 
L 398.487273 294.696374 
L 398.487273 294.696374 
" clip-path="url(#pea34c4f515)" style="fill: none; stroke: #1f77b4; stroke-width: 1.5; stroke-linecap: square"/>
   </g>
   <g id="patch_3">
    <path d="M 57.6 307.584 
L 57.6 41.472 
" style="fill: none; stroke: #000000; stroke-width: 0.8; stroke-linejoin: miter; stroke-linecap: square"/>
   </g>
   <g id="patch_4">
    <path d="M 414.72 307.584 
L 414.72 41.472 
" style="fill: none; stroke: #000000; stroke-width: 0.8; stroke-linejoin: miter; stroke-linecap: square"/>
   </g>
   <g id="patch_5">
    <path d="M 57.6 307.584 
L 414.72 307.584 
" style="fill: none; stroke: #000000; stroke-width: 0.8; stroke-linejoin: miter; stroke-linecap: square"/>
   </g>
   <g id="patch_6">
    <path d="M 57.6 41.472 
L 414.72 41.472 
" style="fill: none; stroke: #000000; stroke-width: 0.8; stroke-linejoin: miter; stroke-linecap: square"/>
   </g>
   <g id="text_17">
    <text style="font: 12px 'IPAexGothic'; text-anchor: middle" x="236.16" y="35.472" transform="rotate(-0 236.16 35.472)">"048_A6.wav"の振幅スペクトル</text>
   </g>
  </g>
 </g>
 <defs>
  <clipPath id="pea34c4f515">
   <rect x="57.6" y="41.472" width="357.12" height="266.112"/>
  </clipPath>
 </defs>
</svg>
