<?xml version="1.0" encoding="utf-8" standalone="no"?>
<!DOCTYPE svg PUBLIC "-//W3C//DTD SVG 1.1//EN"
  "http://www.w3.org/Graphics/SVG/1.1/DTD/svg11.dtd">
<svg xmlns:xlink="http://www.w3.org/1999/xlink" width="460.8pt" height="345.6pt" viewBox="0 0 460.8 345.6" xmlns="http://www.w3.org/2000/svg" version="1.1">
 <metadata>
  <rdf:RDF xmlns:dc="http://purl.org/dc/elements/1.1/" xmlns:cc="http://creativecommons.org/ns#" xmlns:rdf="http://www.w3.org/1999/02/22-rdf-syntax-ns#">
   <cc:Work>
    <dc:type rdf:resource="http://purl.org/dc/dcmitype/StillImage"/>
    <dc:date>2022-11-28T11:29:56.283329</dc:date>
    <dc:format>image/svg+xml</dc:format>
    <dc:creator>
     <cc:Agent>
      <dc:title>Matplotlib v3.6.2, https://matplotlib.org/</dc:title>
     </cc:Agent>
    </dc:creator>
   </cc:Work>
  </rdf:RDF>
 </metadata>
 <defs>
  <style type="text/css">*{stroke-linejoin: round; stroke-linecap: butt}</style>
 </defs>
 <g id="figure_1">
  <g id="patch_1">
   <path d="M 0 345.6 
L 460.8 345.6 
L 460.8 0 
L 0 0 
z
" style="fill: #ffffff"/>
  </g>
  <g id="axes_1">
   <g id="patch_2">
    <path d="M 57.6 307.584 
L 414.72 307.584 
L 414.72 41.472 
L 57.6 41.472 
z
" style="fill: #ffffff"/>
   </g>
   <g id="matplotlib.axis_1">
    <g id="xtick_1">
     <g id="line2d_1">
      <defs>
       <path id="m717ae6ae11" d="M 0 0 
L 0 3.5 
" style="stroke: #000000; stroke-width: 0.8"/>
      </defs>
      <g>
       <use xlink:href="#m717ae6ae11" x="73.832727" y="307.584" style="stroke: #000000; stroke-width: 0.8"/>
      </g>
     </g>
     <g id="text_1">
      <text style="font: 10px 'IPAexGothic'; text-anchor: middle" x="73.832727" y="322.074625" transform="rotate(-0 73.832727 322.074625)">0</text>
     </g>
    </g>
    <g id="xtick_2">
     <g id="line2d_2">
      <g>
       <use xlink:href="#m717ae6ae11" x="140.102281" y="307.584" style="stroke: #000000; stroke-width: 0.8"/>
      </g>
     </g>
     <g id="text_2">
      <text style="font: 10px 'IPAexGothic'; text-anchor: middle" x="140.102281" y="322.074625" transform="rotate(-0 140.102281 322.074625)">1000</text>
     </g>
    </g>
    <g id="xtick_3">
     <g id="line2d_3">
      <g>
       <use xlink:href="#m717ae6ae11" x="206.371835" y="307.584" style="stroke: #000000; stroke-width: 0.8"/>
      </g>
     </g>
     <g id="text_3">
      <text style="font: 10px 'IPAexGothic'; text-anchor: middle" x="206.371835" y="322.074625" transform="rotate(-0 206.371835 322.074625)">2000</text>
     </g>
    </g>
    <g id="xtick_4">
     <g id="line2d_4">
      <g>
       <use xlink:href="#m717ae6ae11" x="272.64139" y="307.584" style="stroke: #000000; stroke-width: 0.8"/>
      </g>
     </g>
     <g id="text_4">
      <text style="font: 10px 'IPAexGothic'; text-anchor: middle" x="272.64139" y="322.074625" transform="rotate(-0 272.64139 322.074625)">3000</text>
     </g>
    </g>
    <g id="xtick_5">
     <g id="line2d_5">
      <g>
       <use xlink:href="#m717ae6ae11" x="338.910944" y="307.584" style="stroke: #000000; stroke-width: 0.8"/>
      </g>
     </g>
     <g id="text_5">
      <text style="font: 10px 'IPAexGothic'; text-anchor: middle" x="338.910944" y="322.074625" transform="rotate(-0 338.910944 322.074625)">4000</text>
     </g>
    </g>
    <g id="xtick_6">
     <g id="line2d_6">
      <g>
       <use xlink:href="#m717ae6ae11" x="405.180498" y="307.584" style="stroke: #000000; stroke-width: 0.8"/>
      </g>
     </g>
     <g id="text_6">
      <text style="font: 10px 'IPAexGothic'; text-anchor: middle" x="405.180498" y="322.074625" transform="rotate(-0 405.180498 322.074625)">5000</text>
     </g>
    </g>
    <g id="text_7">
     <text style="font: 10px 'IPAexGothic'; text-anchor: middle" x="236.16" y="335.924625" transform="rotate(-0 236.16 335.924625)">周波数[Hz]</text>
    </g>
   </g>
   <g id="matplotlib.axis_2">
    <g id="ytick_1">
     <g id="line2d_7">
      <defs>
       <path id="m555ae6c53a" d="M 0 0 
L -3.5 0 
" style="stroke: #000000; stroke-width: 0.8"/>
      </defs>
      <g>
       <use xlink:href="#m555ae6c53a" x="57.6" y="295.493778" style="stroke: #000000; stroke-width: 0.8"/>
      </g>
     </g>
     <g id="text_8">
      <text style="font: 10px 'IPAexGothic'; text-anchor: end" x="50.6" y="299.239091" transform="rotate(-0 50.6 299.239091)">0.0</text>
     </g>
    </g>
    <g id="ytick_2">
     <g id="line2d_8">
      <g>
       <use xlink:href="#m555ae6c53a" x="57.6" y="252.873873" style="stroke: #000000; stroke-width: 0.8"/>
      </g>
     </g>
     <g id="text_9">
      <text style="font: 10px 'IPAexGothic'; text-anchor: end" x="50.6" y="256.619185" transform="rotate(-0 50.6 256.619185)">0.2</text>
     </g>
    </g>
    <g id="ytick_3">
     <g id="line2d_9">
      <g>
       <use xlink:href="#m555ae6c53a" x="57.6" y="210.253967" style="stroke: #000000; stroke-width: 0.8"/>
      </g>
     </g>
     <g id="text_10">
      <text style="font: 10px 'IPAexGothic'; text-anchor: end" x="50.6" y="213.99928" transform="rotate(-0 50.6 213.99928)">0.4</text>
     </g>
    </g>
    <g id="ytick_4">
     <g id="line2d_10">
      <g>
       <use xlink:href="#m555ae6c53a" x="57.6" y="167.634062" style="stroke: #000000; stroke-width: 0.8"/>
      </g>
     </g>
     <g id="text_11">
      <text style="font: 10px 'IPAexGothic'; text-anchor: end" x="50.6" y="171.379374" transform="rotate(-0 50.6 171.379374)">0.6</text>
     </g>
    </g>
    <g id="ytick_5">
     <g id="line2d_11">
      <g>
       <use xlink:href="#m555ae6c53a" x="57.6" y="125.014156" style="stroke: #000000; stroke-width: 0.8"/>
      </g>
     </g>
     <g id="text_12">
      <text style="font: 10px 'IPAexGothic'; text-anchor: end" x="50.6" y="128.759469" transform="rotate(-0 50.6 128.759469)">0.8</text>
     </g>
    </g>
    <g id="ytick_6">
     <g id="line2d_12">
      <g>
       <use xlink:href="#m555ae6c53a" x="57.6" y="82.394251" style="stroke: #000000; stroke-width: 0.8"/>
      </g>
     </g>
     <g id="text_13">
      <text style="font: 10px 'IPAexGothic'; text-anchor: end" x="50.6" y="86.139563" transform="rotate(-0 50.6 86.139563)">1.0</text>
     </g>
    </g>
    <g id="text_14">
     <text style="font: 10px 'IPAexGothic'; text-anchor: middle" x="29.460938" y="174.528" transform="rotate(-90 29.460938 174.528)">振幅</text>
    </g>
    <g id="text_15">
     <text style="font: 10px 'IPAexGothic'; text-anchor: start" x="57.6" y="38.472" transform="rotate(-0 57.6 38.472)">1e7</text>
    </g>
   </g>
   <g id="line2d_13">
    <path d="M 73.832727 276.249165 
L 74.031536 293.310597 
L 74.296614 294.693321 
L 74.561692 294.957899 
L 74.826771 295.10592 
L 76.947396 295.332296 
L 80.327144 295.442377 
L 80.459683 295.319346 
L 82.182691 295.384398 
L 82.580308 295.370921 
L 89.074725 295.381104 
L 89.538612 295.379864 
L 93.117168 295.382961 
L 94.972715 295.387819 
L 95.76795 295.382257 
L 98.816349 295.36349 
L 99.015158 295.382468 
L 99.479045 295.390476 
L 99.810392 295.380493 
L 100.274279 295.392375 
L 100.473088 295.376739 
L 101.003244 295.376831 
L 101.798479 295.39277 
L 101.931018 295.36636 
L 102.196096 295.380254 
L 102.726253 295.368901 
L 103.322679 295.407469 
L 103.587757 295.34056 
L 104.184183 295.342433 
L 104.316722 295.399071 
L 104.780609 295.358087 
L 105.178226 295.387966 
L 105.642113 295.375299 
L 107.365122 295.372063 
L 110.479791 295.40634 
L 110.811138 295.402891 
L 111.076217 295.311993 
L 111.407564 295.376818 
L 111.672643 295.378532 
L 112.13653 295.412248 
L 112.202799 295.325284 
L 112.269069 295.377647 
L 112.534147 295.339379 
L 112.600416 295.439596 
L 112.666686 295.281571 
L 112.732956 295.361381 
L 112.931764 295.429263 
L 113.130573 295.307127 
L 113.196842 295.42049 
L 113.263112 295.372554 
L 113.395651 295.384283 
L 113.59446 295.321808 
L 113.793268 295.420649 
L 113.925807 295.376353 
L 114.058347 295.372226 
L 114.522233 295.328254 
L 114.588503 295.426056 
L 114.654773 295.352358 
L 114.919851 295.370913 
L 116.311511 295.402112 
L 116.377781 295.227636 
L 116.444051 295.34301 
L 116.57659 295.363172 
L 116.709129 295.4246 
L 116.775398 295.473629 
L 116.841668 295.321639 
L 116.907937 295.439198 
L 116.974207 295.473372 
L 117.040477 295.238248 
L 117.106746 295.45255 
L 117.173016 295.308048 
L 117.371824 295.344894 
L 117.438094 295.210599 
L 117.504363 295.457126 
L 117.570633 295.281343 
L 117.769442 295.383481 
L 117.835711 295.228598 
L 117.901981 295.46545 
L 117.96825 295.386809 
L 118.564676 295.313446 
L 118.630946 295.395392 
L 118.697215 295.320214 
L 118.763485 295.246644 
L 118.896024 295.39934 
L 118.962294 295.211824 
L 119.028563 295.326966 
L 119.359911 295.437278 
L 119.42618 295.212445 
L 119.49245 295.429133 
L 119.55872 295.207265 
L 119.624989 295.348839 
L 119.823798 295.138702 
L 120.022606 295.327594 
L 120.088876 295.371374 
L 120.221415 294.974392 
L 120.287685 295.400879 
L 120.353954 295.38182 
L 120.420224 295.467911 
L 120.619032 295.267654 
L 120.751572 295.444395 
L 120.95038 295.298338 
L 121.149189 295.410906 
L 121.215458 295.191812 
L 121.281728 295.398755 
L 121.347998 295.371919 
L 121.613076 295.391623 
L 122.739658 295.377561 
L 122.805928 295.258766 
L 122.872197 295.366832 
L 123.071006 295.379521 
L 123.534893 295.295661 
L 123.733701 295.365833 
L 123.799971 295.40483 
L 123.866241 295.297899 
L 123.93251 295.406525 
L 124.065049 295.288396 
L 124.197588 295.394778 
L 124.263858 295.197018 
L 124.330127 295.34272 
L 124.396397 295.439047 
L 124.462667 295.355818 
L 124.528936 295.303067 
L 124.661475 295.357778 
L 125.986866 295.354996 
L 127.179718 295.367516 
L 127.312257 295.35916 
L 127.444797 295.347967 
L 127.643605 295.382749 
L 127.842414 295.289643 
L 127.974953 295.397833 
L 128.107492 295.384068 
L 128.703918 295.402249 
L 128.902727 295.259039 
L 129.035266 295.39148 
L 129.167805 295.355693 
L 129.697961 295.409773 
L 129.96304 295.350891 
L 130.294387 295.391135 
L 130.493196 295.323008 
L 130.625735 295.377201 
L 130.824544 295.333812 
L 130.890813 295.438083 
L 130.957083 295.343403 
L 131.818587 295.39029 
L 132.017396 295.427682 
L 132.083665 295.339131 
L 132.149935 295.388848 
L 132.547552 295.403934 
L 132.81263 295.153094 
L 132.94517 295.309434 
L 133.011439 295.127459 
L 133.143978 295.379997 
L 133.409056 295.174404 
L 133.475326 295.321293 
L 133.541596 295.096077 
L 133.674135 295.322442 
L 133.740404 295.027739 
L 133.806674 295.200012 
L 134.005482 295.133773 
L 134.071752 294.923205 
L 134.204291 295.308225 
L 134.270561 295.082084 
L 134.33683 295.158031 
L 134.4031 295.460087 
L 134.469369 295.367319 
L 134.601908 295.218721 
L 134.668178 295.229696 
L 134.734447 295.410545 
L 134.800717 295.381078 
L 134.933256 295.200623 
L 134.999526 295.38172 
L 135.065795 295.227905 
L 135.132065 295.314973 
L 135.264604 295.094248 
L 135.397143 295.42768 
L 135.463413 295.255789 
L 135.529682 295.374985 
L 135.79476 295.235417 
L 135.86103 295.423919 
L 135.927299 295.222322 
L 135.993569 295.370012 
L 136.059839 295.212429 
L 136.126108 295.254566 
L 136.192378 295.462188 
L 136.391186 294.818657 
L 136.589995 295.230012 
L 136.656265 295.061712 
L 136.722534 295.367074 
L 136.788804 295.188019 
L 136.921343 295.43786 
L 136.987612 295.394041 
L 137.053882 295.271647 
L 137.120151 295.41781 
L 137.252691 295.227477 
L 137.38523 295.404952 
L 137.451499 295.341304 
L 137.517769 295.072545 
L 137.584038 295.36046 
L 137.650308 295.166558 
L 137.849117 295.404363 
L 137.915386 295.241413 
L 137.981656 295.288999 
L 138.114195 295.419474 
L 138.379273 295.310799 
L 138.445543 295.440618 
L 138.511812 295.259231 
L 138.578082 295.34676 
L 138.84316 295.318459 
L 138.975699 295.207031 
L 139.108238 295.39164 
L 139.240777 295.343088 
L 139.307047 295.422335 
L 139.439586 295.28586 
L 139.638394 295.452626 
L 139.704664 295.229979 
L 139.770934 295.48222 
L 139.837203 295.23612 
L 139.903473 295.29461 
L 140.23482 295.228262 
L 140.36736 295.374871 
L 140.698707 295.331785 
L 140.764977 295.398055 
L 140.831246 295.230864 
L 140.897516 295.388592 
L 140.963786 295.334047 
L 141.030055 295.245958 
L 141.096325 295.43647 
L 141.162594 295.241444 
L 141.295133 295.397148 
L 141.427672 295.257808 
L 141.626481 295.303202 
L 141.891559 295.375997 
L 142.024098 295.348737 
L 142.156638 295.35999 
L 142.222907 295.262741 
L 142.289177 295.358331 
L 142.487985 295.363995 
L 142.554255 295.2972 
L 142.620524 295.366875 
L 143.150681 295.347409 
L 143.28322 295.324284 
L 143.813376 295.334454 
L 144.078455 295.250603 
L 144.409802 295.368616 
L 144.542341 295.383109 
L 144.674881 295.427585 
L 144.74115 295.263278 
L 144.80742 295.364732 
L 144.873689 295.299289 
L 144.939959 295.403361 
L 145.006228 295.336739 
L 145.470115 295.33428 
L 145.536385 295.427129 
L 145.602654 295.279809 
L 145.668924 295.387153 
L 145.735193 295.437152 
L 145.867733 295.27963 
L 146.000272 295.479006 
L 146.066541 295.291761 
L 146.132811 295.473829 
L 146.19908 295.299417 
L 146.26535 295.409996 
L 146.397889 295.266134 
L 146.464159 295.464676 
L 146.530428 295.320623 
L 146.729237 295.414628 
L 146.861776 295.391642 
L 146.928045 295.429193 
L 146.994315 295.310698 
L 147.060585 295.403185 
L 147.325663 295.333117 
L 147.391932 295.250744 
L 147.458202 295.387229 
L 147.524471 294.991037 
L 147.590741 295.376751 
L 147.657011 295.188883 
L 147.72328 295.20959 
L 147.855819 295.435518 
L 148.054628 295.118625 
L 148.120897 295.42273 
L 148.187167 295.184369 
L 148.253437 295.366487 
L 148.319706 295.225174 
L 148.385976 295.260763 
L 148.452245 294.973737 
L 148.518515 295.15534 
L 148.584784 295.357109 
L 148.651054 294.819008 
L 148.717323 295.301769 
L 148.783593 295.080875 
L 148.849862 295.070362 
L 148.916132 295.465325 
L 148.982402 294.879864 
L 149.048671 295.432608 
L 149.114941 295.04465 
L 149.18121 295.383829 
L 149.24748 295.158737 
L 149.380019 295.433258 
L 149.446288 295.223396 
L 149.512558 295.373374 
L 149.578828 295.259343 
L 149.645097 295.329637 
L 149.777636 295.286394 
L 149.843906 295.242498 
L 149.910175 295.337267 
L 149.976445 295.194011 
L 150.108984 295.323122 
L 150.175254 295.223564 
L 150.241523 295.354772 
L 150.307793 295.303823 
L 150.374062 295.189844 
L 150.572871 295.413558 
L 150.70541 295.216557 
L 150.837949 295.47417 
L 150.904219 295.3952 
L 150.970488 295.242982 
L 151.036758 295.337719 
L 151.235566 295.261361 
L 151.301836 295.354425 
L 151.368106 295.293547 
L 151.434375 295.227614 
L 151.500645 295.312419 
L 151.633184 295.292428 
L 151.699453 295.432962 
L 151.765723 295.196524 
L 151.831992 295.357018 
L 151.898262 295.185179 
L 151.964532 295.225956 
L 152.030801 295.359829 
L 152.097071 295.305658 
L 152.22961 295.267874 
L 152.362149 295.318829 
L 152.428418 295.218963 
L 152.627227 295.420792 
L 152.693497 295.217008 
L 152.759766 295.389253 
L 152.826036 295.360013 
L 153.356192 295.24658 
L 153.488731 295.34341 
L 153.62127 295.31725 
L 153.886349 295.36179 
L 154.018888 295.337859 
L 154.151427 295.306051 
L 154.217696 295.28452 
L 154.350235 295.341101 
L 154.549044 295.288903 
L 154.681583 295.346222 
L 154.747853 295.271303 
L 154.814122 295.411656 
L 154.946661 295.252712 
L 155.012931 295.37664 
L 155.079201 295.326327 
L 155.609357 295.221508 
L 155.675627 295.393385 
L 155.741896 295.307467 
L 155.874435 295.334652 
L 156.139513 295.29855 
L 156.272053 295.334574 
L 156.404592 295.289058 
L 156.537131 295.396165 
L 156.6034 295.256904 
L 156.66967 295.302949 
L 159.452991 295.350842 
L 159.519261 295.242481 
L 159.58553 295.393578 
L 159.718069 295.068167 
L 159.784339 295.354629 
L 159.850608 295.318794 
L 159.916878 295.412401 
L 160.049417 295.31088 
L 160.248226 295.162091 
L 160.314495 295.338209 
L 160.380765 295.233897 
L 160.645843 295.358975 
L 161.10973 295.412978 
L 161.176 295.0439 
L 161.242269 295.14445 
L 161.507347 295.339843 
L 161.573617 295.078543 
L 161.639886 295.432983 
L 161.706156 295.314698 
L 161.971234 295.157138 
L 162.037504 295.309483 
L 162.170043 295.050159 
L 162.368852 295.341703 
L 162.501391 295.215516 
L 162.700199 294.915326 
L 162.832738 295.258727 
L 162.899008 295.039598 
L 163.031547 295.261592 
L 163.097817 294.598905 
L 163.296625 295.250931 
L 163.362895 295.143026 
L 163.429164 294.74417 
L 163.495434 295.273102 
L 163.561704 294.918029 
L 163.694243 295.338521 
L 163.760512 295.217987 
L 163.826782 294.732616 
L 163.959321 295.285472 
L 164.09186 295.230375 
L 164.224399 295.055282 
L 164.290669 295.370658 
L 164.356938 295.050591 
L 164.423208 295.239705 
L 164.489477 295.448891 
L 164.622016 295.205386 
L 164.887095 295.241528 
L 165.152173 295.262259 
L 165.284712 295.199436 
L 165.350981 295.298906 
L 165.417251 295.194148 
L 165.483521 295.259496 
L 165.748599 295.256882 
L 165.947407 295.267542 
L 166.013677 295.151819 
L 166.079947 295.246908 
L 166.146216 295.156896 
L 166.212486 295.212933 
L 166.345025 295.306692 
L 166.543833 295.21941 
L 166.875181 295.235036 
L 168.068033 295.222384 
L 168.200572 295.274515 
L 168.266842 295.202146 
L 168.333111 295.269053 
L 169.393424 295.197626 
L 169.525963 295.203458 
L 169.791042 295.207442 
L 170.785085 295.235421 
L 171.050163 295.19557 
L 171.248972 295.231247 
L 171.712859 295.170869 
L 171.911667 295.18939 
L 172.110476 295.19931 
L 172.574363 295.227445 
L 173.03825 295.188507 
L 173.104519 295.264648 
L 173.237058 295.185678 
L 174.231102 295.177945 
L 174.363641 295.153967 
L 174.562449 295.273366 
L 174.761258 295.154904 
L 175.026336 295.195126 
L 175.357684 295.165557 
L 175.622762 295.200254 
L 175.689032 295.057133 
L 175.755301 295.187007 
L 175.821571 295.089167 
L 175.95411 295.087053 
L 176.152919 295.367104 
L 176.285458 295.432429 
L 176.351727 295.091177 
L 176.417997 295.446432 
L 176.484267 295.207249 
L 176.683075 295.252708 
L 176.749345 295.254978 
L 176.948153 294.929112 
L 177.014423 295.143074 
L 177.080693 294.645758 
L 177.146962 294.83936 
L 177.213232 295.379038 
L 177.279501 295.204776 
L 177.41204 294.699605 
L 177.47831 295.301209 
L 177.544579 294.731998 
L 177.610849 295.098365 
L 177.677119 295.342532 
L 177.875927 294.317771 
L 177.942197 295.335609 
L 178.008466 293.97651 
L 178.074736 295.112669 
L 178.141005 294.65999 
L 178.207275 294.339839 
L 178.273545 295.082343 
L 178.406084 293.844237 
L 178.472353 295.269032 
L 178.538623 295.072101 
L 178.604892 294.479148 
L 178.671162 295.156725 
L 178.737431 294.996092 
L 178.86997 294.548584 
L 178.93624 295.135719 
L 179.00251 295.119912 
L 179.135049 294.63805 
L 179.267588 295.139909 
L 179.333857 294.900559 
L 179.400127 295.192113 
L 179.532666 294.782683 
L 179.598936 295.219415 
L 179.665205 294.810765 
L 179.731475 295.148007 
L 179.864014 294.655177 
L 179.930283 294.740447 
L 180.062822 295.107444 
L 180.195362 294.963649 
L 180.327901 295.050826 
L 180.39417 294.733406 
L 180.46044 294.947014 
L 180.526709 295.03673 
L 180.592979 294.738165 
L 180.659248 294.874504 
L 180.725518 294.751079 
L 180.791788 295.028896 
L 180.858057 294.84765 
L 180.990596 294.904128 
L 181.056866 295.250803 
L 181.123135 294.859878 
L 181.189405 295.126921 
L 181.321944 294.78185 
L 181.388214 295.030849 
L 181.454483 294.814846 
L 181.653292 295.03843 
L 181.719561 294.774549 
L 181.785831 294.835661 
L 181.98464 294.817882 
L 182.050909 295.01974 
L 182.117179 294.785434 
L 182.183448 294.934452 
L 182.249718 294.960102 
L 182.315987 294.847319 
L 182.514796 295.064053 
L 182.581066 294.912214 
L 182.647335 295.083134 
L 182.713605 294.872698 
L 182.779874 294.95733 
L 182.978683 295.040649 
L 183.044952 294.78299 
L 183.111222 295.030495 
L 183.177492 294.949487 
L 183.243761 294.982742 
L 183.44257 294.784224 
L 183.575109 294.789338 
L 183.840187 294.664315 
L 183.972726 294.77508 
L 184.502883 294.70147 
L 184.569152 294.953542 
L 184.635422 294.896079 
L 184.701691 294.772565 
L 184.767961 294.936547 
L 184.83423 294.703794 
L 184.9005 294.986456 
L 184.966769 294.823379 
L 185.231848 294.899292 
L 185.298117 295.000134 
L 185.496926 294.723739 
L 185.563195 294.759005 
L 185.629465 295.065304 
L 185.762004 294.739395 
L 185.828274 294.777167 
L 185.894543 294.934777 
L 185.960813 294.847942 
L 186.027082 294.940709 
L 186.093352 294.843655 
L 186.292161 294.3336 
L 186.490969 294.41759 
L 186.689778 293.67506 
L 186.756047 293.842815 
L 186.888587 293.710527 
L 187.021126 293.827452 
L 187.087395 293.430027 
L 187.153665 293.473503 
L 187.418743 292.867293 
L 187.617552 293.679388 
L 187.683821 293.230824 
L 187.750091 293.311687 
L 187.81636 293.789405 
L 188.015169 292.6095 
L 188.081439 292.849505 
L 188.147708 294.09587 
L 188.213978 293.196305 
L 188.280247 294.373997 
L 188.412786 289.860457 
L 188.479056 292.244161 
L 188.545325 289.619276 
L 188.611595 289.902794 
L 188.677864 292.030644 
L 188.744134 285.917976 
L 188.810404 289.638965 
L 188.942943 285.525624 
L 189.009212 287.212674 
L 189.075482 273.524463 
L 189.141751 284.721517 
L 189.208021 283.112604 
L 189.27429 270.982468 
L 189.34056 276.117054 
L 189.40683 290.876962 
L 189.473099 288.526503 
L 189.605638 232.55595 
L 189.671908 245.955771 
L 189.738177 269.576833 
L 189.804447 256.502862 
L 189.870716 271.031406 
L 190.069525 207.131948 
L 190.135795 269.011645 
L 190.202064 138.962581 
L 190.268334 255.353158 
L 190.334603 237.620579 
L 190.533412 103.597247 
L 190.599682 119.206832 
L 190.665951 203.053976 
L 190.732221 82.948767 
L 190.79849 128.344186 
L 190.86476 161.523972 
L 190.931029 263.859473 
L 190.997299 194.743076 
L 191.063568 194.802668 
L 191.262377 258.73412 
L 191.394916 229.939639 
L 191.461186 276.602732 
L 191.527455 272.090044 
L 191.593725 271.82495 
L 191.659994 283.746047 
L 191.726264 261.147701 
L 191.792534 273.390239 
L 191.858803 287.405115 
L 191.925073 280.731699 
L 192.123881 291.748027 
L 192.190151 279.198152 
L 192.25642 285.227295 
L 192.455229 292.716757 
L 192.587768 292.058267 
L 192.654038 291.779115 
L 192.786577 293.448724 
L 192.852846 293.321334 
L 192.919116 291.804877 
L 193.117925 293.820711 
L 193.184194 293.590692 
L 193.316733 294.140868 
L 193.449272 292.872841 
L 193.581812 293.966539 
L 193.648081 293.493079 
L 193.714351 293.817399 
L 193.78062 293.41693 
L 193.84689 293.586366 
L 193.913159 294.764909 
L 194.045698 293.767545 
L 194.111968 294.795639 
L 194.178237 294.238525 
L 194.244507 294.613173 
L 194.509585 293.918951 
L 194.575855 294.174126 
L 194.642124 293.994489 
L 194.708394 294.087396 
L 194.907203 294.594099 
L 194.973472 294.315016 
L 195.039742 294.675537 
L 195.106011 294.656597 
L 195.172281 294.715945 
L 195.30482 294.428276 
L 195.371089 294.492039 
L 195.569898 295.139259 
L 195.768707 295.349702 
L 196.232594 294.406779 
L 196.497672 294.960808 
L 196.563941 294.870407 
L 196.630211 294.712097 
L 196.696481 294.783103 
L 196.76275 294.774237 
L 196.82902 295.202654 
L 196.961559 294.752355 
L 197.292907 294.466628 
L 197.491715 295.119078 
L 197.557985 295.016799 
L 197.756793 295.460578 
L 197.823063 295.42496 
L 197.889333 295.135662 
L 197.955602 295.173206 
L 198.021872 295.326962 
L 198.088141 295.129195 
L 198.154411 295.309795 
L 198.22068 295.224174 
L 198.28695 295.192715 
L 198.353219 295.335362 
L 198.419489 295.049991 
L 198.485759 295.198291 
L 198.552028 295.416371 
L 198.750837 294.431327 
L 198.949645 295.40939 
L 199.015915 294.957227 
L 199.082184 295.046984 
L 199.280993 295.262127 
L 199.413532 295.31648 
L 199.546071 294.952194 
L 199.67861 295.38982 
L 199.74488 294.963948 
L 199.81115 295.32087 
L 199.877419 294.908525 
L 199.943689 295.041922 
L 200.076228 294.62833 
L 200.142497 295.27072 
L 200.208767 294.500058 
L 200.275036 295.283269 
L 200.341306 294.520278 
L 200.407576 294.838084 
L 200.473845 294.925065 
L 200.540115 294.742379 
L 200.606384 295.089635 
L 200.672654 294.694723 
L 200.738923 295.353586 
L 200.805193 295.268469 
L 200.871462 295.333593 
L 201.004002 294.906002 
L 201.070271 295.295711 
L 201.136541 294.678968 
L 201.20281 294.796554 
L 201.26908 295.176516 
L 201.335349 295.126668 
L 201.401619 294.888756 
L 201.467888 295.30865 
L 201.534158 294.302232 
L 201.600428 294.8274 
L 201.666697 295.13823 
L 201.732967 294.82659 
L 201.799236 295.215309 
L 201.865506 295.061016 
L 201.931775 294.984404 
L 201.998045 295.206203 
L 202.064314 294.800155 
L 202.130584 295.018883 
L 202.196854 295.166345 
L 202.395662 294.287166 
L 202.461932 294.423482 
L 202.528201 295.205766 
L 202.594471 295.03753 
L 202.79328 294.412984 
L 202.992088 295.184538 
L 203.058358 294.541598 
L 203.124627 294.771912 
L 203.190897 294.431598 
L 203.257166 294.875845 
L 203.323436 294.749298 
L 203.455975 294.977026 
L 203.522245 294.895022 
L 203.588514 295.228717 
L 203.654784 294.573822 
L 203.721053 294.685935 
L 203.787323 294.835656 
L 203.853592 294.360946 
L 203.986131 295.082951 
L 204.118671 294.370915 
L 204.18494 294.406611 
L 204.317479 295.055222 
L 204.450018 294.698008 
L 204.516288 294.813316 
L 204.582557 295.253545 
L 204.648827 294.946851 
L 204.715097 295.265126 
L 204.980175 294.500469 
L 205.046444 295.119201 
L 205.112714 294.715662 
L 205.178983 294.654172 
L 205.245253 295.075811 
L 205.311523 294.943718 
L 205.377792 294.955649 
L 205.444062 294.835429 
L 205.510331 295.233522 
L 205.576601 295.016092 
L 205.64287 294.867089 
L 205.70914 295.169846 
L 205.775409 294.709578 
L 205.841679 295.174735 
L 205.907949 295.0432 
L 206.040488 294.836413 
L 206.239296 295.186675 
L 206.305566 295.224634 
L 206.371835 295.0776 
L 206.438105 295.146742 
L 206.504375 295.177311 
L 206.636914 294.894734 
L 206.703183 295.102621 
L 206.769453 294.990073 
L 206.901992 295.217323 
L 207.034531 294.85052 
L 207.16707 295.153734 
L 207.23334 294.927308 
L 207.299609 295.368178 
L 207.432148 294.825678 
L 207.498418 295.146691 
L 207.564687 294.877965 
L 207.630957 295.004963 
L 207.829766 295.039609 
L 207.896035 294.967122 
L 207.962305 295.167683 
L 208.028574 295.097289 
L 208.094844 294.837798 
L 208.161113 295.406137 
L 208.227383 295.081257 
L 208.293653 295.204536 
L 208.426192 294.827212 
L 208.492461 295.043565 
L 208.558731 295.305091 
L 208.625 295.089977 
L 208.69127 295.226806 
L 208.890078 294.95248 
L 209.088887 295.176681 
L 209.155157 295.051405 
L 209.221426 295.257584 
L 209.287696 295.231147 
L 209.486504 295.05726 
L 209.619044 295.217561 
L 209.751583 294.966283 
L 209.884122 295.222622 
L 209.950391 295.207651 
L 210.016661 295.372399 
L 210.21547 295.163931 
L 210.348009 295.295206 
L 210.414278 295.078199 
L 210.480548 295.284906 
L 210.546817 295.250728 
L 210.613087 295.286717 
L 210.679356 294.894269 
L 210.745626 294.921412 
L 210.878165 295.20815 
L 211.209513 295.077501 
L 211.275782 294.876312 
L 211.408322 295.216899 
L 211.540861 295.096986 
L 211.6734 295.178705 
L 211.805939 295.231993 
L 211.872208 295.283753 
L 211.938478 295.132763 
L 212.004748 295.168503 
L 212.203556 295.194238 
L 212.336095 295.052393 
L 212.402365 295.242592 
L 212.468634 295.177243 
L 212.534904 295.192853 
L 212.601174 295.069224 
L 212.667443 295.136112 
L 212.932521 295.153526 
L 212.998791 295.080203 
L 213.13133 295.360753 
L 213.263869 295.016889 
L 213.330139 295.066813 
L 213.396408 295.052014 
L 213.462678 295.388294 
L 213.528947 295.143339 
L 213.595217 295.21534 
L 213.661486 295.359404 
L 213.794025 295.001434 
L 213.860295 295.461485 
L 213.926565 295.27559 
L 214.059104 294.975572 
L 214.191643 295.160336 
L 214.324182 295.176795 
L 214.65553 295.221121 
L 214.788069 295.32084 
L 214.920608 295.456669 
L 215.119417 295.10338 
L 215.185686 295.286067 
L 215.251956 295.259446 
L 215.318225 295.15242 
L 215.384495 295.389187 
L 215.450764 295.197062 
L 215.517034 295.326531 
L 215.649573 295.090687 
L 215.715843 295.270382 
L 215.782112 295.204809 
L 215.848382 295.236788 
L 215.914651 294.927676 
L 215.980921 295.001343 
L 216.04719 295.24453 
L 216.11346 295.209399 
L 216.179729 295.261304 
L 216.312269 295.000854 
L 216.378538 295.458797 
L 216.511077 294.919009 
L 216.577347 295.347955 
L 216.643616 295.188915 
L 216.709886 295.011073 
L 216.842425 295.293581 
L 216.908695 295.231999 
L 216.974964 294.877374 
L 217.107503 295.266609 
L 217.306312 295.164381 
L 217.438851 295.306562 
L 217.505121 294.429566 
L 217.57139 295.207003 
L 217.63766 294.928546 
L 217.770199 295.208469 
L 217.836468 295.217528 
L 217.902738 294.967396 
L 217.969007 295.1544 
L 218.035277 295.024493 
L 218.101547 294.886095 
L 218.234086 295.322209 
L 218.300355 295.19487 
L 218.432894 294.597144 
L 218.631703 295.181315 
L 218.697972 295.094558 
L 218.764242 294.593037 
L 218.830512 295.337308 
L 218.896781 295.220684 
L 218.963051 295.239148 
L 219.161859 294.562086 
L 219.228129 295.158052 
L 219.294398 295.063285 
L 219.360668 294.961478 
L 219.426938 295.0659 
L 219.493207 294.908214 
L 219.559477 294.989487 
L 219.692016 295.347057 
L 219.758285 295.313715 
L 219.890824 294.986842 
L 220.155903 295.39749 
L 220.222172 295.072186 
L 220.354711 295.381323 
L 220.48725 294.903437 
L 220.55352 295.413021 
L 220.61979 294.866725 
L 220.686059 295.225536 
L 220.818598 295.061441 
L 221.017407 295.333894 
L 221.083676 294.961444 
L 221.149946 295.200672 
L 221.348755 295.139333 
L 221.481294 295.262771 
L 221.547563 295.078605 
L 221.613833 295.261943 
L 221.680102 295.19811 
L 221.812642 295.189669 
L 221.878911 294.966018 
L 222.01145 295.370466 
L 222.143989 294.761926 
L 222.276528 295.209087 
L 222.342798 295.093774 
L 222.409068 295.450991 
L 222.607876 295.043477 
L 222.674146 295.082361 
L 222.740415 295.360594 
L 222.939224 294.829108 
L 223.005494 295.29559 
L 223.071763 295.087452 
L 223.138033 295.282216 
L 223.204302 294.879114 
L 223.270572 295.120598 
L 223.336841 295.443236 
L 223.46938 294.975647 
L 223.53565 295.271799 
L 223.60192 295.180695 
L 223.800728 295.407574 
L 223.999537 295.391897 
L 224.132076 295.126504 
L 224.198345 295.128836 
L 224.264615 295.261567 
L 224.330885 295.121584 
L 224.463424 295.382771 
L 224.529693 295.235565 
L 224.595963 295.368642 
L 224.662232 295.308193 
L 224.728502 295.190884 
L 224.794771 295.319346 
L 224.927311 294.924172 
L 224.99358 295.279878 
L 225.05985 295.205861 
L 225.126119 295.227149 
L 225.258658 295.102806 
L 225.523737 295.330032 
L 225.590006 295.135882 
L 225.656276 295.209625 
L 225.722545 295.136993 
L 225.921354 295.308058 
L 225.987623 295.266045 
L 226.120163 295.379853 
L 226.318971 295.317713 
L 226.45151 295.323288 
L 226.51778 295.262776 
L 226.584049 295.005979 
L 226.650319 295.26529 
L 226.716589 295.03589 
L 226.782858 295.133085 
L 226.849128 295.380963 
L 226.915397 295.332848 
L 227.114206 294.95688 
L 227.246745 295.209799 
L 227.313015 294.980188 
L 227.379284 295.358917 
L 227.445554 295.191574 
L 227.511823 295.361062 
L 227.578093 294.741031 
L 227.710632 295.276179 
L 227.776901 295.257876 
L 227.843171 295.383995 
L 227.97571 295.159213 
L 228.04198 295.302472 
L 228.108249 295.079149 
L 228.240788 295.396322 
L 228.439597 295.185381 
L 228.505867 295.426039 
L 228.572136 295.341343 
L 228.704675 295.406244 
L 228.770945 295.451513 
L 228.837214 295.100702 
L 228.903484 295.246607 
L 228.969753 295.252677 
L 229.036023 295.393709 
L 229.102292 295.331657 
L 229.301101 294.915791 
L 229.367371 295.251286 
L 229.43364 295.114543 
L 229.632449 295.327665 
L 229.698718 294.986623 
L 229.764988 295.290772 
L 229.831258 295.075662 
L 229.897527 295.094929 
L 229.963797 294.917099 
L 230.030066 295.005647 
L 230.096336 295.29182 
L 230.162605 295.105047 
L 230.228875 295.13667 
L 230.361414 294.808282 
L 230.493953 295.36449 
L 230.692762 294.952285 
L 230.825301 295.383747 
L 230.89157 295.232178 
L 230.95784 295.415294 
L 231.090379 294.971577 
L 231.222918 295.054588 
L 231.289188 295.426997 
L 231.355457 295.213764 
L 231.620536 295.259202 
L 231.686805 295.340168 
L 231.819344 295.043587 
L 231.951883 295.368264 
L 232.018153 294.999087 
L 232.084422 295.093472 
L 232.150692 295.378315 
L 232.216962 295.316807 
L 232.283231 295.28782 
L 232.349501 295.056324 
L 232.41577 295.224723 
L 232.48204 295.191209 
L 232.614579 294.895957 
L 232.813388 295.257665 
L 232.879657 295.259265 
L 232.945927 294.685934 
L 233.012196 294.88998 
L 233.078466 294.557258 
L 233.144735 295.144507 
L 233.211005 295.032601 
L 233.343544 295.048062 
L 233.409814 295.272623 
L 233.542353 294.877584 
L 233.608622 295.194278 
L 233.674892 294.732269 
L 233.741161 294.922078 
L 233.807431 295.363864 
L 233.8737 295.274747 
L 234.072509 294.602979 
L 234.138779 295.174738 
L 234.205048 294.690926 
L 234.271318 295.146279 
L 234.337587 294.693566 
L 234.403857 295.307407 
L 234.470126 294.976973 
L 234.602665 294.910888 
L 234.735205 295.377443 
L 234.934013 294.757177 
L 235.199091 295.338865 
L 235.265361 295.047449 
L 235.3979 295.380651 
L 235.46417 295.063732 
L 235.530439 295.400476 
L 235.596709 295.315746 
L 235.662978 294.88139 
L 235.729248 295.067082 
L 235.795517 294.980655 
L 235.994326 295.373016 
L 236.259404 295.177327 
L 236.325674 295.322945 
L 236.391943 295.258337 
L 236.590752 295.24484 
L 236.723291 294.954412 
L 236.789561 295.327413 
L 236.85583 295.229479 
L 236.9221 295.163281 
L 236.988369 295.229725 
L 237.187178 295.261058 
L 237.319717 295.369635 
L 237.385987 294.968132 
L 237.452256 295.225995 
L 237.651065 295.465979 
L 237.783604 295.068158 
L 237.849874 295.362925 
L 237.916143 295.267201 
L 237.982413 295.004093 
L 238.048682 295.35312 
L 238.114952 294.961795 
L 238.181221 295.2085 
L 238.247491 295.33259 
L 238.313761 295.157073 
L 238.38003 295.247726 
L 238.645108 295.166464 
L 238.777647 295.319755 
L 238.843917 295.207211 
L 238.976456 295.304017 
L 239.042726 295.275389 
L 239.108995 295.434998 
L 239.175265 295.362845 
L 239.307804 295.398658 
L 239.639152 295.094523 
L 239.705421 295.255942 
L 239.771691 295.176233 
L 239.90423 295.130236 
L 239.970499 295.400083 
L 240.036769 295.23455 
L 240.103038 295.467373 
L 240.169308 294.80063 
L 240.235578 295.075659 
L 240.301847 295.37899 
L 240.368117 295.055184 
L 240.500656 295.340827 
L 240.566925 295.068553 
L 240.633195 295.248815 
L 240.699464 295.280231 
L 240.765734 294.870933 
L 240.832004 295.279312 
L 240.898273 295.005749 
L 240.964543 295.093536 
L 241.030812 294.970106 
L 241.229621 295.339531 
L 241.29589 295.039621 
L 241.36216 295.159498 
L 241.42843 295.177089 
L 241.494699 295.365386 
L 241.560969 295.324902 
L 241.693508 294.963864 
L 241.826047 295.344578 
L 241.958586 295.008895 
L 242.024856 295.178529 
L 242.223664 294.160313 
L 242.289934 295.253075 
L 242.356203 294.673357 
L 242.422473 295.288426 
L 242.488742 295.258058 
L 242.555012 295.432931 
L 242.621282 294.928742 
L 242.687551 295.17708 
L 242.753821 295.368069 
L 242.82009 295.273393 
L 242.88636 295.225503 
L 242.952629 294.649676 
L 243.018899 294.935953 
L 243.217708 295.405225 
L 243.283977 295.138412 
L 243.350247 295.260932 
L 243.416516 295.216458 
L 243.482786 295.39051 
L 243.681594 294.860964 
L 243.747864 294.286369 
L 243.880403 294.869789 
L 244.012942 295.323813 
L 244.079212 294.319671 
L 244.145481 294.695202 
L 244.27802 295.186492 
L 244.476829 295.037045 
L 244.543099 295.23444 
L 244.609368 294.926054 
L 244.675638 295.13173 
L 244.741907 295.131353 
L 244.808177 294.972868 
L 244.874446 295.163375 
L 244.940716 294.922505 
L 245.006985 295.187611 
L 245.139525 294.600742 
L 245.205794 294.929054 
L 245.272064 294.844873 
L 245.338333 294.529073 
L 245.470872 295.00571 
L 245.537142 294.986674 
L 245.603411 294.593594 
L 245.669681 294.983614 
L 245.735951 293.66324 
L 245.80222 294.41517 
L 245.86849 294.621102 
L 246.001029 294.212585 
L 246.067298 295.035697 
L 246.133568 294.994999 
L 246.199837 295.083121 
L 246.398646 294.640692 
L 246.464916 294.819395 
L 246.531185 295.191132 
L 246.597455 294.815235 
L 246.663724 295.215244 
L 246.729994 295.153254 
L 246.796263 294.776071 
L 246.928803 295.246048 
L 246.995072 294.576974 
L 247.127611 295.314032 
L 247.193881 294.574329 
L 247.26015 294.659456 
L 247.392689 295.307478 
L 247.591498 294.852889 
L 247.657768 294.975798 
L 247.724037 294.711913 
L 247.790307 295.286526 
L 247.856576 294.91191 
L 248.055385 293.552527 
L 248.187924 295.333868 
L 248.320463 294.459904 
L 248.386733 295.350573 
L 248.453002 294.8849 
L 248.585541 295.198242 
L 248.651811 294.949189 
L 248.71808 295.327305 
L 248.78435 293.941222 
L 248.85062 294.750396 
L 248.916889 294.749247 
L 249.248237 295.327865 
L 249.314506 294.55631 
L 249.380776 294.789668 
L 249.447046 294.757931 
L 249.513315 294.452072 
L 249.579585 294.848038 
L 249.645854 294.746017 
L 249.712124 294.51278 
L 249.778393 295.00719 
L 249.977202 294.239852 
L 250.043472 295.102555 
L 250.176011 294.358264 
L 250.24228 295.034797 
L 250.30855 294.526752 
L 250.374819 294.643342 
L 250.573628 295.197748 
L 250.772437 294.208022 
L 250.838706 295.236944 
L 250.904976 294.863422 
L 250.971245 295.051797 
L 251.037515 294.6228 
L 251.103784 295.176928 
L 251.170054 295.156179 
L 251.236324 295.183178 
L 251.435132 294.65381 
L 251.633941 295.230198 
L 251.76648 294.834886 
L 251.83275 294.977516 
L 251.899019 295.20334 
L 252.031558 294.905195 
L 252.097828 295.094719 
L 252.230367 294.553531 
L 252.362906 295.173398 
L 252.429176 294.991993 
L 252.561715 295.255825 
L 252.694254 295.037423 
L 252.760523 295.118852 
L 252.826793 294.609671 
L 252.893062 295.253688 
L 252.959332 294.765741 
L 253.025602 295.068469 
L 253.091871 294.674049 
L 253.22441 295.190754 
L 253.29068 294.840344 
L 253.356949 294.988022 
L 253.423219 294.783883 
L 253.489488 295.181842 
L 253.555758 295.161527 
L 253.688297 295.233631 
L 253.820836 295.153922 
L 253.887106 295.281003 
L 253.953375 294.924434 
L 254.019645 295.063006 
L 254.085914 295.39565 
L 254.218453 294.696139 
L 254.350993 295.247973 
L 254.417262 294.955726 
L 254.483532 295.121311 
L 254.549801 294.920998 
L 254.616071 295.245311 
L 254.68234 295.112106 
L 254.814879 295.118475 
L 254.881149 294.782783 
L 255.013688 295.139264 
L 255.146227 294.621435 
L 255.212497 295.264436 
L 255.278766 295.135706 
L 255.477575 295.098746 
L 255.543845 295.196691 
L 255.610114 294.606139 
L 255.742653 295.228008 
L 255.808923 295.169645 
L 255.875192 294.715769 
L 256.007731 295.345804 
L 256.074001 294.825692 
L 256.140271 294.869203 
L 256.20654 295.151597 
L 256.27281 295.089158 
L 256.339079 294.817241 
L 256.405349 294.967678 
L 256.471618 295.289853 
L 256.604157 294.996679 
L 256.670427 295.185353 
L 256.736697 295.056869 
L 256.935505 294.626485 
L 257.001775 295.24426 
L 257.068044 294.641087 
L 257.134314 294.810561 
L 257.200583 295.297002 
L 257.266853 295.222757 
L 257.399392 295.348504 
L 257.465662 295.255123 
L 257.598201 294.810566 
L 257.66447 295.134526 
L 257.73074 294.828363 
L 257.797009 294.993983 
L 257.863279 295.00675 
L 257.929549 294.782187 
L 257.995818 294.836225 
L 258.128357 295.440598 
L 258.194627 295.25218 
L 258.260896 294.697926 
L 258.327166 295.160375 
L 258.393435 294.829243 
L 258.459705 295.112524 
L 258.525975 294.841072 
L 258.658514 295.158308 
L 258.724783 295.177676 
L 258.791053 295.400469 
L 258.923592 294.99012 
L 259.056131 295.090212 
L 259.1224 294.906157 
L 259.18867 295.046164 
L 259.25494 295.237228 
L 259.453748 294.805376 
L 259.586287 295.459368 
L 259.652557 295.098664 
L 259.718826 294.761947 
L 259.785096 294.879229 
L 259.917635 295.127712 
L 259.983905 295.284074 
L 260.050174 295.196329 
L 260.182713 294.613539 
L 260.248983 295.364953 
L 260.315252 294.899003 
L 260.381522 295.161556 
L 260.447792 294.585933 
L 260.514061 294.96531 
L 260.580331 295.214052 
L 260.6466 294.949017 
L 260.71287 295.002084 
L 260.779139 295.125516 
L 260.845409 294.727755 
L 260.911678 295.264152 
L 260.977948 295.172125 
L 261.044218 294.688936 
L 261.110487 295.009933 
L 261.176757 295.083069 
L 261.243026 294.857586 
L 261.309296 295.20859 
L 261.375565 294.822457 
L 261.441835 294.982729 
L 261.574374 295.201472 
L 261.640644 294.345449 
L 261.773183 294.972989 
L 261.905722 295.288063 
L 261.971991 294.480615 
L 262.038261 295.257262 
L 262.10453 294.41685 
L 262.1708 294.933316 
L 262.303339 294.839994 
L 262.502148 295.45451 
L 262.767226 294.731858 
L 262.833496 294.829613 
L 263.098574 295.216877 
L 263.164843 295.206465 
L 263.231113 294.832201 
L 263.363652 295.199333 
L 263.429922 294.801251 
L 263.496191 295.196653 
L 263.562461 294.864955 
L 263.62873 294.910746 
L 263.695 295.204925 
L 263.761269 294.463871 
L 263.893808 295.304914 
L 263.960078 294.922022 
L 264.026347 294.965276 
L 264.158887 295.331482 
L 264.423965 294.129124 
L 264.556504 295.191888 
L 264.689043 295.032911 
L 264.755313 294.387803 
L 264.821582 295.14602 
L 264.887852 294.886025 
L 264.954121 294.424388 
L 265.15293 295.244128 
L 265.285469 294.365828 
L 265.418008 294.971489 
L 265.484278 294.361606 
L 265.616817 295.248566 
L 265.749356 294.946192 
L 265.815625 295.166871 
L 265.881895 294.480317 
L 265.948165 294.586638 
L 266.014434 294.407946 
L 266.080704 295.047248 
L 266.146973 294.865574 
L 266.213243 294.889495 
L 266.345782 294.512618 
L 266.412051 294.981078 
L 266.478321 294.514707 
L 266.61086 295.397889 
L 266.67713 295.058568 
L 266.809669 294.768545 
L 266.875938 295.438217 
L 266.942208 294.845145 
L 267.008477 295.178692 
L 267.074747 294.975921 
L 267.207286 295.463413 
L 267.406095 294.795938 
L 267.538634 295.382905 
L 267.671173 294.809263 
L 267.803712 295.344802 
L 267.869982 294.825509 
L 267.936251 295.160242 
L 268.201329 295.167341 
L 268.267599 294.820155 
L 268.333869 295.177699 
L 268.400138 294.978529 
L 268.598947 295.337529 
L 268.731486 294.918442 
L 268.930294 295.411287 
L 268.996564 295.093595 
L 269.062834 295.142602 
L 269.129103 295.355833 
L 269.195373 295.31224 
L 269.261642 294.960091 
L 269.327912 295.029676 
L 269.394181 295.11652 
L 269.460451 294.895466 
L 269.52672 294.9811 
L 269.65926 295.206669 
L 269.725529 294.859819 
L 269.791799 295.230655 
L 269.858068 294.995177 
L 269.924338 295.103602 
L 269.990607 294.964569 
L 270.189416 295.328384 
L 270.255686 295.086266 
L 270.321955 295.182364 
L 270.388225 295.352228 
L 270.454494 295.266833 
L 270.520764 294.80254 
L 270.587033 295.322873 
L 270.653303 295.185588 
L 270.719572 294.939221 
L 270.852112 295.288387 
L 270.918381 294.629467 
L 271.05092 295.443965 
L 271.11719 294.511926 
L 271.183459 294.897525 
L 271.249729 295.201645 
L 271.315998 294.784945 
L 271.382268 295.314085 
L 271.448538 294.947559 
L 271.581077 295.357559 
L 271.713616 294.919208 
L 271.779885 295.216107 
L 271.846155 295.035835 
L 271.912424 295.242054 
L 271.978694 294.997288 
L 272.044964 295.402535 
L 272.111233 295.201266 
L 272.177503 294.982823 
L 272.243772 295.224647 
L 272.310042 294.874823 
L 272.376311 294.904607 
L 272.442581 295.236732 
L 272.50885 294.986072 
L 272.57512 295.214715 
L 272.64139 294.915513 
L 272.707659 294.940701 
L 272.773929 295.284183 
L 272.840198 295.062875 
L 272.906468 295.347211 
L 272.972737 294.924945 
L 273.039007 295.271813 
L 273.171546 294.985256 
L 273.237816 295.061814 
L 273.304085 294.936531 
L 273.436624 295.09302 
L 273.569163 294.77401 
L 273.701702 295.330155 
L 273.900511 295.035495 
L 274.03305 295.275787 
L 274.09932 294.97083 
L 274.298128 295.488 
L 274.430667 294.703182 
L 274.563207 294.776373 
L 274.629476 295.184347 
L 274.695746 294.972935 
L 274.894554 295.040526 
L 274.960824 294.684559 
L 275.093363 295.099937 
L 275.159633 295.05083 
L 275.225902 295.329985 
L 275.292172 295.153254 
L 275.424711 295.088146 
L 275.623519 295.336762 
L 275.689789 295.234765 
L 275.756059 294.733121 
L 275.822328 294.888861 
L 275.954867 295.359035 
L 276.021137 295.273304 
L 276.087406 294.447156 
L 276.153676 295.203342 
L 276.219945 295.125428 
L 276.352485 294.840219 
L 276.418754 294.944485 
L 276.551293 295.294988 
L 276.617563 294.948105 
L 276.683832 295.132829 
L 276.750102 295.287108 
L 276.816371 295.198862 
L 277.01518 295.22098 
L 277.08145 295.345354 
L 277.147719 294.930775 
L 277.213989 295.028713 
L 277.280258 295.121376 
L 277.346528 294.931755 
L 277.479067 295.395755 
L 277.545337 295.115039 
L 277.611606 295.315658 
L 277.810415 295.06294 
L 277.876684 295.280707 
L 277.942954 295.149648 
L 278.075493 295.15178 
L 278.274302 295.215823 
L 278.340571 294.936844 
L 278.406841 295.087857 
L 278.47311 294.948232 
L 278.605649 295.234856 
L 278.671919 294.852301 
L 278.738188 295.057926 
L 278.870728 295.287573 
L 278.936997 294.724745 
L 279.003267 294.977636 
L 279.135806 295.03901 
L 279.268345 295.39859 
L 279.400884 295.287571 
L 279.467154 294.617119 
L 279.533423 295.00845 
L 279.665962 294.915696 
L 279.732232 295.382899 
L 279.864771 294.961634 
L 280.06358 295.42764 
L 280.196119 294.695186 
L 280.262388 295.248291 
L 280.328658 294.536973 
L 280.461197 295.426513 
L 280.593736 294.91783 
L 280.858814 295.347305 
L 281.190162 294.873506 
L 281.256432 295.229235 
L 281.322701 295.128385 
L 281.388971 295.065921 
L 281.52151 295.264421 
L 281.720318 294.791761 
L 281.786588 294.925985 
L 281.919127 295.350507 
L 282.117936 294.945648 
L 282.184205 294.893056 
L 282.250475 295.146588 
L 282.316744 295.102429 
L 282.383014 295.17833 
L 282.449284 295.440488 
L 282.515553 294.828099 
L 282.581823 295.220884 
L 282.780631 294.776084 
L 282.846901 295.17703 
L 282.91317 294.951916 
L 282.97944 294.523775 
L 283.111979 295.161947 
L 283.244518 295.136072 
L 283.310788 294.820314 
L 283.377057 294.846356 
L 283.509596 295.340501 
L 283.642136 294.877516 
L 283.840944 295.271663 
L 283.907214 294.954105 
L 283.973483 295.083188 
L 284.039753 295.323531 
L 284.172292 294.941853 
L 284.238561 295.010433 
L 284.304831 295.339606 
L 284.50364 294.694498 
L 284.569909 295.307624 
L 284.636179 295.237992 
L 284.702448 294.773332 
L 284.768718 294.819479 
L 284.901257 294.977681 
L 284.967527 294.758681 
L 285.033796 295.045305 
L 285.100066 294.954939 
L 285.166335 294.890008 
L 285.298874 295.132599 
L 285.365144 294.928472 
L 285.431413 295.002949 
L 285.497683 294.909525 
L 285.563953 294.996346 
L 285.630222 295.124586 
L 285.696492 294.850969 
L 285.762761 295.017955 
L 285.829031 294.936014 
L 285.8953 295.015458 
L 285.96157 295.288325 
L 286.027839 295.20648 
L 286.094109 295.353273 
L 286.160379 294.805878 
L 286.226648 295.112947 
L 286.359187 294.797165 
L 286.557996 295.190974 
L 286.756805 294.815382 
L 287.021883 295.090978 
L 287.088152 295.086111 
L 287.286961 294.796255 
L 287.353231 295.204759 
L 287.4195 294.969699 
L 287.48577 294.781256 
L 287.552039 294.904909 
L 287.684578 295.152207 
L 287.750848 295.007991 
L 287.817117 294.558286 
L 287.883387 295.019949 
L 287.949657 294.7623 
L 288.015926 294.962931 
L 288.082196 294.789675 
L 288.148465 294.911725 
L 288.214735 295.235862 
L 288.281004 295.095934 
L 288.413543 294.711679 
L 288.479813 295.164797 
L 288.546083 295.126808 
L 288.678622 294.885282 
L 288.744891 295.103214 
L 288.811161 295.040672 
L 288.9437 295.020763 
L 289.009969 294.546394 
L 289.142508 295.347765 
L 289.341317 294.780677 
L 289.407587 295.126083 
L 289.473856 295.104175 
L 289.606395 294.401625 
L 289.738934 294.817202 
L 290.004013 295.002171 
L 290.136552 294.589342 
L 290.269091 295.039298 
L 290.33536 294.965458 
L 290.40163 294.64975 
L 290.4679 294.935423 
L 290.534169 294.765154 
L 290.600439 294.676651 
L 290.799247 295.0621 
L 290.998056 294.618023 
L 291.064326 294.66071 
L 291.130595 295.348907 
L 291.196865 294.974601 
L 291.263134 294.712445 
L 291.329404 294.794263 
L 291.395673 294.761526 
L 291.461943 295.125741 
L 291.528212 294.57643 
L 291.594482 295.150777 
L 291.660752 294.820183 
L 291.727021 295.155659 
L 291.793291 294.916069 
L 291.85956 294.941979 
L 292.058369 294.999756 
L 292.124638 294.466258 
L 292.190908 294.663933 
L 292.257178 295.056891 
L 292.323447 294.401406 
L 292.389717 294.55212 
L 292.455986 295.146078 
L 292.588525 294.23649 
L 292.654795 294.246921 
L 292.787334 294.803583 
L 292.919873 294.335115 
L 293.052412 294.41199 
L 293.118682 294.99524 
L 293.184951 294.533592 
L 293.251221 294.60159 
L 293.31749 295.302246 
L 293.38376 295.010442 
L 293.45003 295.063897 
L 293.516299 294.800961 
L 293.582569 295.100267 
L 293.648838 295.034919 
L 293.715108 294.127212 
L 293.847647 295.014762 
L 293.913916 294.92648 
L 294.046455 295.209658 
L 294.112725 295.166421 
L 294.178995 294.572527 
L 294.245264 295.349947 
L 294.377803 293.903101 
L 294.444073 295.221275 
L 294.510342 295.083344 
L 294.576612 294.740009 
L 294.642881 294.809675 
L 294.775421 294.401033 
L 294.84169 294.845266 
L 294.90796 294.152647 
L 294.974229 294.999569 
L 295.040499 294.456172 
L 295.106768 294.120237 
L 295.173038 294.753935 
L 295.239307 293.924923 
L 295.305577 295.355107 
L 295.371847 294.223695 
L 295.438116 295.010492 
L 295.504386 294.666703 
L 295.570655 294.234772 
L 295.703194 295.248541 
L 295.835733 294.425409 
L 295.902003 294.975798 
L 295.968273 294.373106 
L 296.034542 294.421652 
L 296.233351 294.826348 
L 296.29962 294.990434 
L 296.36589 294.47702 
L 296.432159 294.632666 
L 296.763507 294.830978 
L 296.829777 294.418028 
L 296.896046 294.711514 
L 296.962316 294.562986 
L 297.028585 294.720816 
L 297.094855 295.201658 
L 297.161125 294.202165 
L 297.227394 294.627101 
L 297.359933 294.424824 
L 297.426203 294.619442 
L 297.492472 294.556185 
L 297.691281 293.911736 
L 297.757551 293.748605 
L 297.82382 294.597076 
L 297.89009 294.01415 
L 297.956359 294.199814 
L 298.022629 294.438096 
L 298.155168 293.797699 
L 298.287707 294.751068 
L 298.353977 294.255195 
L 298.420246 295.192457 
L 298.486516 294.211578 
L 298.552785 294.401089 
L 298.619055 294.461197 
L 298.685324 293.897288 
L 298.751594 295.037615 
L 298.817863 294.36815 
L 298.884133 294.177244 
L 298.950402 294.9589 
L 299.016672 294.460139 
L 299.082942 294.660994 
L 299.149211 294.3813 
L 299.215481 294.570683 
L 299.34802 294.565775 
L 299.546828 293.976274 
L 299.679368 294.336518 
L 299.811907 293.751596 
L 299.878176 294.369657 
L 299.944446 293.981481 
L 300.010715 293.769748 
L 300.143254 294.29136 
L 300.275794 293.874236 
L 300.342063 294.146469 
L 300.408333 294.042287 
L 300.540872 293.680218 
L 300.607141 294.302979 
L 300.673411 294.085394 
L 300.73968 294.084034 
L 300.80595 294.360335 
L 300.87222 293.624825 
L 300.938489 294.122186 
L 301.004759 294.286983 
L 301.071028 293.766794 
L 301.137298 294.346855 
L 301.203567 293.80281 
L 301.269837 294.147441 
L 301.336106 293.918895 
L 301.534915 294.333681 
L 301.733724 293.596972 
L 301.998802 293.666996 
L 302.065072 294.07418 
L 302.26388 293.626304 
L 302.33015 293.477951 
L 302.462689 293.724678 
L 302.528958 293.610838 
L 302.595228 293.090233 
L 302.794037 293.949975 
L 302.992845 293.135812 
L 303.059115 293.196633 
L 303.125384 293.38758 
L 303.191654 293.159517 
L 303.324193 294.04111 
L 303.390463 293.23529 
L 303.456732 294.154274 
L 303.523002 293.83679 
L 303.72181 293.153613 
L 303.78808 293.597301 
L 303.920619 292.264918 
L 303.986889 294.525061 
L 304.053158 293.220206 
L 304.119428 294.596231 
L 304.185697 294.378975 
L 304.318236 291.766248 
L 304.384506 292.126259 
L 304.450775 290.184348 
L 304.517045 293.53038 
L 304.583315 292.548098 
L 304.649584 294.156011 
L 304.715854 294.088878 
L 304.848393 285.959071 
L 304.914662 292.767355 
L 304.980932 286.916435 
L 305.047201 291.883809 
L 305.113471 287.914171 
L 305.179741 291.073097 
L 305.31228 279.927716 
L 305.378549 287.616369 
L 305.444819 275.844984 
L 305.511088 275.993385 
L 305.577358 290.26383 
L 305.643627 280.859359 
L 305.709897 279.569359 
L 305.776167 260.68437 
L 305.842436 278.215127 
L 305.908706 268.522545 
L 306.041245 243.084563 
L 306.240053 275.696465 
L 306.306323 257.535424 
L 306.372593 275.203337 
L 306.571401 157.892386 
L 306.836479 276.341644 
L 307.167827 53.568 
L 307.234097 268.721949 
L 307.300366 261.787049 
L 307.366636 198.786719 
L 307.432905 209.817306 
L 307.499175 214.096857 
L 307.565445 257.196682 
L 307.631714 201.296194 
L 307.697984 266.810525 
L 307.764253 133.206696 
L 307.830523 232.403017 
L 307.896792 205.741826 
L 307.963062 212.78818 
L 308.029331 93.743317 
L 308.095601 161.093279 
L 308.161871 267.045554 
L 308.22814 239.427523 
L 308.29441 114.351094 
L 308.493218 267.755487 
L 308.559488 211.67615 
L 308.625757 235.937079 
L 308.692027 256.016846 
L 308.758296 247.583443 
L 308.824566 247.044618 
L 308.890836 279.97379 
L 309.023375 247.209327 
L 309.155914 292.872007 
L 309.222183 291.058621 
L 309.354722 272.117922 
L 309.487262 290.720855 
L 309.553531 287.437753 
L 309.619801 288.283475 
L 309.68607 288.215696 
L 309.75234 285.031651 
L 309.884879 292.247601 
L 310.017418 289.365854 
L 310.083688 291.357409 
L 310.149957 289.977546 
L 310.216227 293.016036 
L 310.282496 292.746445 
L 310.348766 290.257777 
L 310.415035 292.33148 
L 310.481305 292.05543 
L 310.547574 290.982088 
L 310.680114 292.512227 
L 310.746383 291.414714 
L 310.812653 292.007605 
L 310.878922 292.997965 
L 310.945192 292.423015 
L 311.077731 292.182636 
L 311.144 292.563174 
L 311.21027 292.264693 
L 311.27654 293.590887 
L 311.342809 293.393312 
L 311.409079 292.427465 
L 311.475348 293.028683 
L 311.541618 292.438779 
L 311.607887 292.680558 
L 311.674157 292.288338 
L 311.740426 293.254738 
L 311.806696 292.481724 
L 311.872966 293.578311 
L 311.939235 293.546631 
L 312.005505 293.675477 
L 312.138044 292.866213 
L 312.270583 293.507474 
L 312.336852 293.157495 
L 312.403122 293.427474 
L 312.469392 293.410753 
L 312.535661 293.002499 
L 312.601931 293.021241 
L 312.800739 293.867873 
L 312.867009 293.113312 
L 312.933278 293.30153 
L 312.999548 293.333083 
L 313.198357 294.076155 
L 313.264626 293.622401 
L 313.330896 293.966516 
L 313.397165 293.743457 
L 313.463435 293.646987 
L 313.595974 293.779981 
L 313.662244 293.744697 
L 313.728513 294.348656 
L 313.794783 293.517144 
L 313.861052 293.983453 
L 313.927322 293.498834 
L 313.993591 293.563094 
L 314.12613 293.948915 
L 314.324939 292.596295 
L 314.457478 294.327283 
L 314.590017 293.653576 
L 314.656287 293.860515 
L 314.855095 294.544378 
L 314.987635 294.10053 
L 315.186443 294.493901 
L 315.252713 294.268844 
L 315.318982 294.528705 
L 315.451521 294.304752 
L 315.517791 294.998834 
L 315.584061 294.971141 
L 315.65033 294.249196 
L 315.7166 294.784344 
L 315.782869 293.743488 
L 315.849139 294.507379 
L 315.915408 293.858022 
L 315.981678 293.993247 
L 316.114217 294.922269 
L 316.313026 294.37863 
L 316.445565 294.92196 
L 316.511834 294.011557 
L 316.578104 295.30885 
L 316.644373 295.016701 
L 316.710643 294.712782 
L 316.776913 294.848338 
L 316.843182 295.330042 
L 316.909452 294.615834 
L 316.975721 294.976554 
L 317.041991 294.986085 
L 317.240799 294.46985 
L 317.307069 294.82241 
L 317.373339 294.419642 
L 317.572147 294.990083 
L 317.638417 294.225492 
L 317.704686 294.652729 
L 317.770956 295.115171 
L 317.837225 294.940741 
L 317.903495 295.077154 
L 317.969765 294.588632 
L 318.036034 294.748679 
L 318.102304 295.286164 
L 318.168573 295.071219 
L 318.234843 294.772925 
L 318.301112 294.958061 
L 318.433651 295.340582 
L 318.566191 294.604412 
L 318.764999 295.367461 
L 318.963808 294.511386 
L 319.030077 294.865491 
L 319.096347 294.559341 
L 319.162616 295.076937 
L 319.228886 294.525894 
L 319.295156 295.40757 
L 319.361425 294.633594 
L 319.427695 295.039863 
L 319.493964 295.378138 
L 319.692773 294.500037 
L 319.759042 295.289211 
L 319.825312 295.272672 
L 319.957851 295.221009 
L 320.024121 294.664291 
L 320.09039 294.756276 
L 320.355468 295.271773 
L 320.421738 294.400376 
L 320.488008 294.899972 
L 320.554277 295.148904 
L 320.620547 294.906392 
L 320.686816 295.291307 
L 320.753086 294.293372 
L 320.819355 294.55005 
L 320.885625 294.672447 
L 320.951894 294.392213 
L 321.084434 295.149139 
L 321.150703 295.096974 
L 321.283242 294.131635 
L 321.482051 294.871569 
L 321.54832 294.512062 
L 321.61459 294.918752 
L 321.68086 294.674313 
L 321.747129 294.686543 
L 321.813399 294.533366 
L 321.879668 294.613753 
L 321.945938 294.745091 
L 322.012207 295.13111 
L 322.078477 293.966151 
L 322.144746 294.407227 
L 322.343555 293.755782 
L 322.409825 294.955537 
L 322.476094 294.439684 
L 322.542364 294.787204 
L 322.608633 294.754091 
L 322.674903 294.808909 
L 322.741172 294.693618 
L 322.873712 294.884941 
L 322.939981 294.365288 
L 323.006251 295.028384 
L 323.07252 294.909248 
L 323.13879 294.359181 
L 323.205059 295.046597 
L 323.271329 294.888348 
L 323.337598 294.020053 
L 323.403868 294.533952 
L 323.470138 294.255576 
L 323.536407 295.305197 
L 323.602677 294.622056 
L 323.668946 294.332988 
L 323.735216 294.906457 
L 323.801485 294.857925 
L 323.867755 294.664193 
L 323.934024 295.147589 
L 324.000294 294.567396 
L 324.066563 294.803911 
L 324.132833 295.173128 
L 324.265372 294.749924 
L 324.331642 294.774825 
L 324.397911 294.549465 
L 324.464181 294.710373 
L 324.53045 294.85535 
L 324.59672 294.57544 
L 324.662989 295.012316 
L 324.795529 294.193503 
L 324.928068 294.980777 
L 324.994337 294.865395 
L 325.060607 294.615261 
L 325.126876 294.982174 
L 325.193146 294.745723 
L 325.259415 294.747807 
L 325.325685 294.512802 
L 325.391955 295.092879 
L 325.458224 295.084985 
L 325.524494 294.567185 
L 325.590763 294.674514 
L 325.657033 294.895156 
L 325.723302 294.817406 
L 325.789572 294.896768 
L 325.922111 294.700005 
L 326.05465 295.112324 
L 326.12092 295.075906 
L 326.187189 295.272971 
L 326.319728 294.775716 
L 326.452267 295.183544 
L 326.651076 294.91724 
L 326.916154 295.172443 
L 326.982424 294.603608 
L 327.048693 295.118565 
L 327.181233 294.523202 
L 327.380041 295.200045 
L 327.645119 294.355639 
L 327.843928 295.094863 
L 327.976467 294.791334 
L 328.042737 295.322283 
L 328.109006 295.263817 
L 328.175276 294.673493 
L 328.241545 295.109926 
L 328.307815 294.865205 
L 328.374085 295.006522 
L 328.440354 294.869433 
L 328.572893 295.26065 
L 328.705432 294.905962 
L 328.771702 295.275979 
L 328.837971 295.1359 
L 328.97051 295.284842 
L 329.03678 294.886494 
L 329.10305 294.931719 
L 329.169319 294.905909 
L 329.235589 295.038204 
L 329.368128 294.892121 
L 329.434397 295.218384 
L 329.500667 294.78767 
L 329.566936 295.256744 
L 329.633206 295.042799 
L 329.699476 294.734061 
L 329.765745 294.79804 
L 329.832015 295.307021 
L 329.898284 295.104942 
L 329.964554 295.111067 
L 330.097093 294.920807 
L 330.163362 295.275522 
L 330.229632 294.930395 
L 330.295902 295.027969 
L 330.428441 295.412468 
L 330.56098 294.732858 
L 330.759788 295.380183 
L 330.958597 294.766665 
L 331.024867 295.174518 
L 331.223675 294.607551 
L 331.356214 295.136569 
L 331.488754 294.738885 
L 331.555023 295.205265 
L 331.621293 294.950653 
L 331.687562 294.952247 
L 331.886371 295.43252 
L 331.95264 295.052984 
L 332.01891 295.092628 
L 332.08518 295.084715 
L 332.151449 295.266223 
L 332.217719 294.488056 
L 332.283988 295.43183 
L 332.350258 295.04633 
L 332.416527 295.152598 
L 332.482797 295.059525 
L 332.615336 294.994795 
L 332.681606 295.329509 
L 332.747875 295.005835 
L 332.814145 295.169384 
L 332.880414 295.212904 
L 332.946684 294.619101 
L 333.012953 294.796667 
L 333.079223 294.651301 
L 333.145492 294.748845 
L 333.211762 294.820576 
L 333.278032 295.192895 
L 333.344301 294.81174 
L 333.410571 294.937422 
L 333.47684 295.336589 
L 333.54311 295.044106 
L 333.609379 295.381672 
L 333.675649 294.414613 
L 333.741918 295.425496 
L 333.808188 294.886486 
L 333.940727 295.284208 
L 334.006997 294.939216 
L 334.073266 295.312996 
L 334.272075 294.77753 
L 334.404614 295.06916 
L 334.537153 294.818516 
L 334.603423 295.306301 
L 334.669692 295.14268 
L 334.735962 295.338494 
L 334.802231 295.270161 
L 334.868501 294.760915 
L 334.93477 294.772137 
L 335.00104 295.174199 
L 335.067309 295.087744 
L 335.133579 294.89399 
L 335.199849 295.214275 
L 335.266118 295.103298 
L 335.332388 294.753047 
L 335.398657 295.220194 
L 335.464927 294.648143 
L 335.531196 294.803682 
L 335.597466 294.850967 
L 335.730005 295.282604 
L 335.796275 294.887941 
L 335.862544 295.421582 
L 335.928814 295.072653 
L 336.061353 294.728929 
L 336.193892 295.268112 
L 336.45897 294.808484 
L 336.52524 295.367593 
L 336.591509 295.055841 
L 336.724048 295.098546 
L 336.922857 294.78855 
L 336.989127 295.240663 
L 337.055396 294.813482 
L 337.121666 294.861511 
L 337.187935 295.109114 
L 337.254205 295.022229 
L 337.320474 294.83093 
L 337.386744 295.22996 
L 337.453013 295.144356 
L 337.585553 295.23862 
L 337.784361 295.154525 
L 337.850631 295.195607 
L 338.049439 294.588453 
L 338.181979 295.161421 
L 338.248248 294.855921 
L 338.380787 295.372327 
L 338.447057 295.122988 
L 338.513326 295.341892 
L 338.579596 295.034153 
L 338.645865 295.201092 
L 338.844674 294.890242 
L 338.910944 295.46695 
L 338.977213 295.21478 
L 339.043483 295.145192 
L 339.109752 295.245166 
L 339.176022 294.916168 
L 339.308561 295.374848 
L 339.50737 294.998336 
L 339.573639 295.047942 
L 339.639909 295.174541 
L 339.706178 295.040188 
L 339.772448 295.195804 
L 339.904987 294.888631 
L 340.037526 295.42855 
L 340.103796 294.910097 
L 340.170065 295.351298 
L 340.236335 295.101687 
L 340.501413 295.390758 
L 340.633952 295.060058 
L 340.700222 295.420488 
L 340.766491 295.364251 
L 340.89903 295.17534 
L 340.9653 295.059864 
L 341.164108 295.366554 
L 341.230378 295.372293 
L 341.296648 295.091823 
L 341.362917 295.138143 
L 341.495456 295.253363 
L 341.561726 295.162612 
L 341.694265 295.387129 
L 341.893074 294.888719 
L 341.959343 295.331837 
L 342.025613 295.130087 
L 342.091882 295.411289 
L 342.158152 295.248311 
L 342.290691 295.289148 
L 342.35696 295.443814 
L 342.4895 295.208557 
L 342.555769 295.251302 
L 342.622039 295.414297 
L 342.688308 295.120896 
L 342.754578 295.188623 
L 342.820847 295.370226 
L 342.887117 295.251434 
L 342.953386 295.375041 
L 343.019656 295.271353 
L 343.085926 295.355893 
L 343.152195 295.263034 
L 343.351004 295.264613 
L 343.417273 295.174815 
L 343.483543 295.255756 
L 343.549812 295.341363 
L 343.748621 295.081441 
L 343.814891 295.476384 
L 343.88116 295.164718 
L 343.94743 295.321307 
L 344.212508 295.416923 
L 344.278777 295.211664 
L 344.345047 295.357588 
L 344.477586 295.194485 
L 344.610125 295.369434 
L 344.875203 295.163873 
L 344.941473 295.395597 
L 345.007743 295.129942 
L 345.140282 295.475605 
L 345.206551 295.192204 
L 345.272821 295.381161 
L 345.471629 295.17232 
L 345.537899 295.377168 
L 345.604169 295.330274 
L 345.670438 295.137581 
L 345.736708 295.181792 
L 345.869247 295.357469 
L 346.068055 294.998089 
L 346.266864 295.353085 
L 346.399403 295.128258 
L 346.465673 295.270323 
L 346.531942 295.1868 
L 346.598212 295.12747 
L 346.664481 295.470407 
L 346.730751 295.385018 
L 346.86329 294.939848 
L 346.92956 295.137924 
L 346.995829 295.343789 
L 347.062099 295.08391 
L 347.128368 295.233138 
L 347.327177 295.289771 
L 347.393447 295.249885 
L 347.459716 295.076871 
L 347.525986 295.38969 
L 347.592255 294.979011 
L 347.658525 295.166868 
L 347.923603 295.318897 
L 348.056142 295.094961 
L 348.254951 295.333251 
L 348.32122 295.241687 
L 348.38749 295.415692 
L 348.453759 295.289974 
L 348.520029 295.356205 
L 348.785107 294.856864 
L 348.917646 295.304852 
L 348.983916 295.024523 
L 349.182724 295.144666 
L 349.381533 295.2165 
L 349.447803 294.792462 
L 349.514072 294.89669 
L 349.580342 295.300497 
L 349.712881 294.892055 
L 349.77915 295.302256 
L 349.84542 294.811576 
L 349.91169 294.959627 
L 349.977959 294.922419 
L 350.110498 295.446251 
L 350.176768 295.143703 
L 350.243037 295.403885 
L 350.375576 294.919512 
L 350.441846 295.158324 
L 350.574385 294.714615 
L 350.640655 294.967734 
L 350.706924 294.815296 
L 350.773194 294.609819 
L 350.905733 295.429288 
L 351.237081 294.218234 
L 351.36962 294.904564 
L 351.502159 294.781079 
L 351.634698 295.312357 
L 351.700968 295.273536 
L 351.833507 295.181745 
L 352.032315 294.642521 
L 352.098585 295.075669 
L 352.164854 294.866221 
L 352.231124 295.051034 
L 352.297394 294.655394 
L 352.363663 294.736502 
L 352.429933 295.100695 
L 352.496202 294.956811 
L 352.562472 295.179278 
L 352.628741 294.588646 
L 352.695011 295.201146 
L 352.76128 294.993623 
L 352.82755 295.100302 
L 352.89382 295.046884 
L 353.092628 295.057609 
L 353.158898 295.330563 
L 353.225167 295.292889 
L 353.291437 294.864697 
L 353.423976 295.401651 
L 353.755324 294.80777 
L 353.821593 295.360343 
L 353.887863 295.169278 
L 353.954132 294.901981 
L 354.020402 295.351614 
L 354.086671 295.337605 
L 354.152941 294.805996 
L 354.219211 295.308168 
L 354.28548 295.266174 
L 354.35175 295.180006 
L 354.418019 295.260125 
L 354.683097 295.266284 
L 354.749367 295.057031 
L 354.815637 295.239436 
L 354.881906 294.993763 
L 354.948176 295.419843 
L 355.014445 294.995367 
L 355.080715 295.212738 
L 355.213254 295.385745 
L 355.279523 294.89574 
L 355.345793 295.387144 
L 355.412063 295.201346 
L 355.544602 295.137688 
L 355.610871 295.284775 
L 355.74341 295.136778 
L 355.875949 295.255367 
L 355.942219 295.007816 
L 356.008489 295.333277 
L 356.074758 295.160717 
L 356.141028 295.079783 
L 356.207297 295.430566 
L 356.273567 295.330901 
L 356.339836 295.049429 
L 356.406106 295.224076 
L 356.538645 295.450165 
L 356.604915 294.944555 
L 356.671184 295.174688 
L 356.803723 295.322207 
L 356.936262 295.003616 
L 357.002532 295.136546 
L 357.068801 295.039976 
L 357.26761 294.939337 
L 357.400149 295.432198 
L 357.598958 294.966635 
L 357.665227 295.237333 
L 357.797767 295.190927 
L 357.864036 295.174841 
L 357.930306 294.868951 
L 358.062845 295.406732 
L 358.195384 294.791051 
L 358.261653 295.415953 
L 358.327923 295.312493 
L 358.394193 295.355996 
L 358.460462 295.175051 
L 358.526732 295.354288 
L 358.593001 295.111654 
L 358.659271 295.210652 
L 358.72554 295.147498 
L 358.79181 295.472056 
L 358.858079 295.047544 
L 358.924349 295.142559 
L 358.990618 295.160821 
L 359.056888 294.933811 
L 359.189427 295.358908 
L 359.388236 294.831076 
L 359.454505 295.080069 
L 359.520775 294.952347 
L 359.653314 295.323596 
L 359.719584 295.076405 
L 359.785853 295.217429 
L 359.852123 295.274095 
L 359.918392 295.072868 
L 359.984662 295.119739 
L 360.117201 295.022682 
L 360.24974 295.374595 
L 360.31601 295.377437 
L 360.514818 294.984574 
L 360.581088 294.972554 
L 360.647357 295.258874 
L 360.713627 295.161061 
L 360.779896 295.006006 
L 360.846166 295.252972 
L 360.912436 295.141471 
L 361.044975 295.108851 
L 361.111244 295.301101 
L 361.310053 294.810065 
L 361.376322 294.60359 
L 361.442592 295.114254 
L 361.508862 294.914198 
L 361.575131 294.553237 
L 361.70767 295.352825 
L 361.77394 294.777488 
L 361.840209 294.848695 
L 361.906479 295.270773 
L 362.039018 294.5507 
L 362.105288 295.290604 
L 362.171557 294.722626 
L 362.237827 294.869465 
L 362.304096 295.168297 
L 362.370366 295.045851 
L 362.436635 295.177597 
L 362.635444 294.549123 
L 362.701714 295.032517 
L 362.767983 294.969207 
L 362.834253 294.652317 
L 362.900522 295.139085 
L 362.966792 295.129767 
L 363.033061 294.649897 
L 363.099331 294.864842 
L 363.1656 294.77341 
L 363.364409 295.426362 
L 363.496948 294.601727 
L 363.629487 294.675117 
L 363.695757 294.646402 
L 363.762026 295.299832 
L 363.828296 294.421557 
L 363.894565 294.873421 
L 364.027105 295.179406 
L 364.159644 294.51046 
L 364.225913 294.842645 
L 364.292183 295.163315 
L 364.424722 294.410214 
L 364.623531 295.118919 
L 364.6898 295.028979 
L 364.75607 294.284708 
L 364.822339 294.430924 
L 364.888609 295.213428 
L 364.954878 295.006996 
L 365.021148 295.384217 
L 365.087417 295.255598 
L 365.153687 294.636903 
L 365.219957 295.044694 
L 365.286226 294.770434 
L 365.352496 295.283521 
L 365.418765 295.011975 
L 365.551304 294.432914 
L 365.750113 295.380789 
L 365.882652 294.9304 
L 365.948922 295.460851 
L 366.14773 294.791303 
L 366.280269 295.302782 
L 366.412809 294.846631 
L 366.479078 295.320897 
L 366.545348 294.600684 
L 366.611617 294.881664 
L 366.677887 295.351174 
L 366.744156 295.317131 
L 366.810426 294.316271 
L 366.876695 294.786811 
L 366.942965 294.733204 
L 367.009235 294.470997 
L 367.075504 294.928509 
L 367.141774 294.727001 
L 367.274313 295.32757 
L 367.340582 294.476566 
L 367.406852 294.868144 
L 367.473121 294.272706 
L 367.539391 295.080416 
L 367.605661 294.816967 
L 367.67193 294.842777 
L 367.870739 295.178165 
L 368.069547 294.369193 
L 368.268356 295.18192 
L 368.334626 294.96721 
L 368.400895 295.013914 
L 368.467165 294.99253 
L 368.533434 295.408571 
L 368.599704 294.811102 
L 368.665973 295.333933 
L 368.732243 295.088173 
L 368.931052 295.406397 
L 368.997321 294.911238 
L 369.063591 295.409442 
L 369.12986 295.056183 
L 369.19613 295.105085 
L 369.262399 295.1485 
L 369.328669 294.832778 
L 369.461208 295.463628 
L 369.527478 294.978271 
L 369.660017 295.463018 
L 369.858825 294.833722 
L 369.925095 295.29228 
L 369.991364 295.148766 
L 370.123904 295.157003 
L 370.322712 295.143214 
L 370.388982 295.385141 
L 370.455251 295.105054 
L 370.521521 295.375416 
L 370.58779 295.192605 
L 370.65406 295.017775 
L 370.852869 295.369009 
L 370.985408 295.188433 
L 371.051677 295.272088 
L 371.117947 295.189831 
L 371.184216 294.932532 
L 371.316756 295.307546 
L 371.515564 295.395038 
L 371.648103 294.855396 
L 371.780642 295.443488 
L 371.846912 295.197114 
L 371.913182 295.301297 
L 371.979451 295.151444 
L 372.045721 295.305998 
L 372.11199 295.138916 
L 372.17826 295.295126 
L 372.244529 294.993019 
L 372.310799 295.221917 
L 372.377068 294.817623 
L 372.443338 295.085587 
L 372.509608 294.892295 
L 372.642147 295.256364 
L 372.708416 294.82998 
L 372.774686 294.971436 
L 372.973494 295.360398 
L 373.172303 295.399063 
L 373.304842 294.863763 
L 373.437381 295.437718 
L 373.503651 294.674551 
L 373.56992 295.137589 
L 373.70246 295.404227 
L 373.768729 295.203874 
L 373.834999 295.317626 
L 373.901268 295.342715 
L 374.100077 294.883404 
L 374.232616 295.421748 
L 374.365155 295.063335 
L 374.431425 295.279545 
L 374.497694 294.738899 
L 374.630233 295.38638 
L 374.696503 294.748946 
L 374.829042 295.233477 
L 374.961581 294.737547 
L 375.09412 295.319308 
L 375.16039 295.105702 
L 375.226659 295.361588 
L 375.292929 294.865704 
L 375.359198 295.068769 
L 375.425468 295.31708 
L 375.558007 294.69693 
L 375.690546 295.372713 
L 375.823085 295.164613 
L 375.889355 295.424527 
L 376.088163 294.754135 
L 376.154433 295.133333 
L 376.220703 294.987435 
L 376.286972 295.022832 
L 376.353242 295.249423 
L 376.419511 294.884052 
L 376.485781 295.315905 
L 376.55205 295.159934 
L 376.61832 295.329441 
L 376.684589 294.997823 
L 376.750859 295.166437 
L 376.817129 295.249569 
L 376.883398 295.162818 
L 377.082207 295.165133 
L 377.214746 294.953513 
L 377.347285 295.18738 
L 377.413555 294.849387 
L 377.546094 295.274014 
L 377.612363 295.235067 
L 377.678633 295.350377 
L 377.744902 294.526325 
L 377.811172 295.061375 
L 377.877441 294.844302 
L 377.943711 294.950829 
L 378.07625 294.787061 
L 378.14252 295.264929 
L 378.208789 294.72623 
L 378.341328 295.415535 
L 378.540137 294.593137 
L 378.606407 294.938288 
L 378.672676 294.568988 
L 378.738946 294.670902 
L 378.805215 294.674554 
L 379.004024 295.249632 
L 379.070293 294.795692 
L 379.136563 294.981144 
L 379.202832 294.920411 
L 379.269102 295.253139 
L 379.335372 294.783325 
L 379.401641 294.819934 
L 379.467911 295.1914 
L 379.53418 295.10282 
L 379.60045 295.29491 
L 379.666719 294.913829 
L 379.732989 295.207275 
L 379.799258 294.734355 
L 379.865528 295.287456 
L 379.931798 294.838911 
L 379.998067 294.977774 
L 380.064337 295.07197 
L 380.130606 294.784597 
L 380.196876 295.28358 
L 380.263145 295.218117 
L 380.395684 295.327346 
L 380.528224 294.788335 
L 380.594493 295.090481 
L 380.660763 294.961922 
L 380.793302 295.437417 
L 380.859571 295.062054 
L 380.925841 295.175715 
L 381.05838 295.11902 
L 381.190919 295.28759 
L 381.455997 294.969711 
L 381.522267 295.335445 
L 381.588536 295.23974 
L 381.787345 294.910801 
L 381.986154 295.298032 
L 382.118693 294.538719 
L 382.184962 294.989652 
L 382.251232 295.146184 
L 382.317502 295.066278 
L 382.383771 294.692108 
L 382.450041 295.352912 
L 382.51631 294.596137 
L 382.58258 295.002744 
L 382.715119 295.327932 
L 382.781388 294.824991 
L 382.847658 294.90681 
L 382.980197 295.307088 
L 383.179006 294.662972 
L 383.311545 295.319945 
L 383.377814 294.972229 
L 383.510354 295.374594 
L 383.576623 294.958801 
L 383.642893 295.299184 
L 383.709162 294.989077 
L 383.775432 295.200236 
L 384.04051 295.198864 
L 384.106779 295.131144 
L 384.173049 295.423603 
L 384.239319 294.912884 
L 384.305588 295.317637 
L 384.371858 295.134862 
L 384.438127 295.297036 
L 384.504397 295.18338 
L 384.570666 295.282928 
L 384.636936 295.179114 
L 384.703205 295.239882 
L 384.835745 295.441631 
L 385.034553 295.217052 
L 385.100823 295.448127 
L 385.167092 295.169594 
L 385.233362 295.340039 
L 385.299631 295.414801 
L 385.365901 295.171433 
L 385.432171 295.268411 
L 385.49844 295.399887 
L 385.56471 295.31058 
L 385.630979 295.01969 
L 385.763518 295.352105 
L 385.829788 295.053918 
L 385.896057 295.242001 
L 385.962327 295.321902 
L 386.028597 295.199913 
L 386.161136 295.334572 
L 386.293675 294.841972 
L 386.359944 295.181141 
L 386.426214 295.106281 
L 386.492483 294.978748 
L 386.625023 295.330064 
L 386.823831 295.136592 
L 386.890101 295.369807 
L 386.95637 295.316666 
L 387.02264 295.181083 
L 387.088909 295.280238 
L 387.155179 295.377939 
L 387.353988 294.921904 
L 387.420257 295.29247 
L 387.486527 295.221064 
L 387.552796 295.120811 
L 387.685335 295.324223 
L 387.751605 295.245739 
L 387.817875 295.356447 
L 387.884144 295.288421 
L 388.016683 295.225432 
L 388.082953 294.952166 
L 388.281761 295.339629 
L 388.414301 295.358196 
L 388.48057 294.994419 
L 388.54684 295.43306 
L 388.613109 295.259314 
L 388.679379 295.208627 
L 388.811918 294.953668 
L 388.878187 295.321793 
L 388.944457 295.087412 
L 389.143266 295.328414 
L 389.209535 295.306732 
L 389.275805 295.402455 
L 389.342074 295.10975 
L 389.408344 295.253577 
L 389.474613 295.359429 
L 389.540883 295.158989 
L 389.607152 295.305952 
L 389.739692 295.271933 
L 389.805961 295.072278 
L 389.872231 295.276549 
L 389.9385 295.108627 
L 390.071039 295.350037 
L 390.137309 295.304809 
L 390.203578 295.263257 
L 390.269848 295.392558 
L 390.336118 295.278845 
L 390.402387 295.326301 
L 390.733735 295.023194 
L 390.866274 295.332285 
L 390.998813 294.99818 
L 391.065083 295.177808 
L 391.131352 295.128191 
L 391.197622 294.965145 
L 391.39643 295.289531 
L 391.4627 294.569546 
L 391.595239 295.317978 
L 391.794048 295.126516 
L 391.860317 295.284499 
L 391.926587 294.962781 
L 391.992856 295.15847 
L 392.059126 295.078834 
L 392.125396 295.150092 
L 392.191665 295.278465 
L 392.257935 294.942779 
L 392.390474 295.265918 
L 392.589282 295.43831 
L 392.655552 294.849488 
L 392.721822 295.342835 
L 392.788091 295.042859 
L 392.854361 295.357173 
L 392.92063 295.211908 
L 392.9869 295.033597 
L 393.119439 295.293343 
L 393.185708 295.262501 
L 393.251978 295.067018 
L 393.318248 295.133375 
L 393.450787 295.316032 
L 393.517056 295.020222 
L 393.583326 295.178622 
L 393.649595 295.075151 
L 393.715865 295.357953 
L 393.782134 295.072546 
L 393.848404 295.32006 
L 393.914673 295.137485 
L 393.980943 295.247827 
L 394.047213 295.406727 
L 394.246021 295.059896 
L 394.37856 295.346142 
L 394.44483 294.798085 
L 394.511099 295.072542 
L 394.577369 295.422806 
L 394.643639 295.21456 
L 394.709908 294.758338 
L 394.776178 295.314833 
L 394.842447 295.131637 
L 395.041256 295.069525 
L 395.107525 295.399548 
L 395.306334 294.613818 
L 395.505143 295.215986 
L 395.637682 295.075799 
L 395.770221 295.255945 
L 395.90276 294.757293 
L 396.035299 295.460562 
L 396.234108 294.945793 
L 396.499186 295.160671 
L 396.565456 295.095542 
L 396.631725 295.258967 
L 396.830534 294.510095 
L 396.896803 294.947703 
L 396.963073 294.517047 
L 397.029343 294.771264 
L 397.095612 295.287113 
L 397.161882 295.158939 
L 397.228151 295.190783 
L 397.294421 294.828494 
L 397.36069 295.064355 
L 397.625769 295.281122 
L 397.758308 294.891275 
L 397.824577 295.255781 
L 397.890847 295.058908 
L 397.957116 294.969292 
L 398.089655 295.27578 
L 398.155925 295.126469 
L 398.222195 295.173259 
L 398.354734 295.022546 
L 398.421003 295.215261 
L 398.487273 294.98449 
L 398.487273 294.98449 
" clip-path="url(#pf273d3ea89)" style="fill: none; stroke: #1f77b4; stroke-width: 1.5; stroke-linecap: square"/>
   </g>
   <g id="patch_3">
    <path d="M 57.6 307.584 
L 57.6 41.472 
" style="fill: none; stroke: #000000; stroke-width: 0.8; stroke-linejoin: miter; stroke-linecap: square"/>
   </g>
   <g id="patch_4">
    <path d="M 414.72 307.584 
L 414.72 41.472 
" style="fill: none; stroke: #000000; stroke-width: 0.8; stroke-linejoin: miter; stroke-linecap: square"/>
   </g>
   <g id="patch_5">
    <path d="M 57.6 307.584 
L 414.72 307.584 
" style="fill: none; stroke: #000000; stroke-width: 0.8; stroke-linejoin: miter; stroke-linecap: square"/>
   </g>
   <g id="patch_6">
    <path d="M 57.6 41.472 
L 414.72 41.472 
" style="fill: none; stroke: #000000; stroke-width: 0.8; stroke-linejoin: miter; stroke-linecap: square"/>
   </g>
   <g id="text_16">
    <text style="font: 12px 'IPAexGothic'; text-anchor: middle" x="236.16" y="35.472" transform="rotate(-0 236.16 35.472)">"057_A6.wav"の振幅スペクトル</text>
   </g>
  </g>
 </g>
 <defs>
  <clipPath id="pf273d3ea89">
   <rect x="57.6" y="41.472" width="357.12" height="266.112"/>
  </clipPath>
 </defs>
</svg>
