<?xml version="1.0" encoding="utf-8" standalone="no"?>
<!DOCTYPE svg PUBLIC "-//W3C//DTD SVG 1.1//EN"
  "http://www.w3.org/Graphics/SVG/1.1/DTD/svg11.dtd">
<svg xmlns:xlink="http://www.w3.org/1999/xlink" width="460.8pt" height="345.6pt" viewBox="0 0 460.8 345.6" xmlns="http://www.w3.org/2000/svg" version="1.1">
 <metadata>
  <rdf:RDF xmlns:dc="http://purl.org/dc/elements/1.1/" xmlns:cc="http://creativecommons.org/ns#" xmlns:rdf="http://www.w3.org/1999/02/22-rdf-syntax-ns#">
   <cc:Work>
    <dc:type rdf:resource="http://purl.org/dc/dcmitype/StillImage"/>
    <dc:date>2022-11-28T11:34:09.413470</dc:date>
    <dc:format>image/svg+xml</dc:format>
    <dc:creator>
     <cc:Agent>
      <dc:title>Matplotlib v3.6.2, https://matplotlib.org/</dc:title>
     </cc:Agent>
    </dc:creator>
   </cc:Work>
  </rdf:RDF>
 </metadata>
 <defs>
  <style type="text/css">*{stroke-linejoin: round; stroke-linecap: butt}</style>
 </defs>
 <g id="figure_1">
  <g id="patch_1">
   <path d="M 0 345.6 
L 460.8 345.6 
L 460.8 0 
L 0 0 
z
" style="fill: #ffffff"/>
  </g>
  <g id="axes_1">
   <g id="patch_2">
    <path d="M 57.6 307.584 
L 414.72 307.584 
L 414.72 41.472 
L 57.6 41.472 
z
" style="fill: #ffffff"/>
   </g>
   <g id="matplotlib.axis_1">
    <g id="xtick_1">
     <g id="line2d_1">
      <defs>
       <path id="m10e96da437" d="M 0 0 
L 0 3.5 
" style="stroke: #000000; stroke-width: 0.8"/>
      </defs>
      <g>
       <use xlink:href="#m10e96da437" x="73.832727" y="307.584" style="stroke: #000000; stroke-width: 0.8"/>
      </g>
     </g>
     <g id="text_1">
      <text style="font: 10px 'IPAexGothic'; text-anchor: middle" x="73.832727" y="322.074625" transform="rotate(-0 73.832727 322.074625)">0</text>
     </g>
    </g>
    <g id="xtick_2">
     <g id="line2d_2">
      <g>
       <use xlink:href="#m10e96da437" x="140.102281" y="307.584" style="stroke: #000000; stroke-width: 0.8"/>
      </g>
     </g>
     <g id="text_2">
      <text style="font: 10px 'IPAexGothic'; text-anchor: middle" x="140.102281" y="322.074625" transform="rotate(-0 140.102281 322.074625)">1000</text>
     </g>
    </g>
    <g id="xtick_3">
     <g id="line2d_3">
      <g>
       <use xlink:href="#m10e96da437" x="206.371835" y="307.584" style="stroke: #000000; stroke-width: 0.8"/>
      </g>
     </g>
     <g id="text_3">
      <text style="font: 10px 'IPAexGothic'; text-anchor: middle" x="206.371835" y="322.074625" transform="rotate(-0 206.371835 322.074625)">2000</text>
     </g>
    </g>
    <g id="xtick_4">
     <g id="line2d_4">
      <g>
       <use xlink:href="#m10e96da437" x="272.64139" y="307.584" style="stroke: #000000; stroke-width: 0.8"/>
      </g>
     </g>
     <g id="text_4">
      <text style="font: 10px 'IPAexGothic'; text-anchor: middle" x="272.64139" y="322.074625" transform="rotate(-0 272.64139 322.074625)">3000</text>
     </g>
    </g>
    <g id="xtick_5">
     <g id="line2d_5">
      <g>
       <use xlink:href="#m10e96da437" x="338.910944" y="307.584" style="stroke: #000000; stroke-width: 0.8"/>
      </g>
     </g>
     <g id="text_5">
      <text style="font: 10px 'IPAexGothic'; text-anchor: middle" x="338.910944" y="322.074625" transform="rotate(-0 338.910944 322.074625)">4000</text>
     </g>
    </g>
    <g id="xtick_6">
     <g id="line2d_6">
      <g>
       <use xlink:href="#m10e96da437" x="405.180498" y="307.584" style="stroke: #000000; stroke-width: 0.8"/>
      </g>
     </g>
     <g id="text_6">
      <text style="font: 10px 'IPAexGothic'; text-anchor: middle" x="405.180498" y="322.074625" transform="rotate(-0 405.180498 322.074625)">5000</text>
     </g>
    </g>
    <g id="text_7">
     <text style="font: 10px 'IPAexGothic'; text-anchor: middle" x="236.16" y="335.924625" transform="rotate(-0 236.16 335.924625)">周波数[Hz]</text>
    </g>
   </g>
   <g id="matplotlib.axis_2">
    <g id="ytick_1">
     <g id="line2d_7">
      <defs>
       <path id="mcd461f2a18" d="M 0 0 
L -3.5 0 
" style="stroke: #000000; stroke-width: 0.8"/>
      </defs>
      <g>
       <use xlink:href="#mcd461f2a18" x="57.6" y="295.505875" style="stroke: #000000; stroke-width: 0.8"/>
      </g>
     </g>
     <g id="text_8">
      <text style="font: 10px 'IPAexGothic'; text-anchor: end" x="50.6" y="299.251187" transform="rotate(-0 50.6 299.251187)">0.0</text>
     </g>
    </g>
    <g id="ytick_2">
     <g id="line2d_8">
      <g>
       <use xlink:href="#mcd461f2a18" x="57.6" y="244.957688" style="stroke: #000000; stroke-width: 0.8"/>
      </g>
     </g>
     <g id="text_9">
      <text style="font: 10px 'IPAexGothic'; text-anchor: end" x="50.6" y="248.703" transform="rotate(-0 50.6 248.703)">0.2</text>
     </g>
    </g>
    <g id="ytick_3">
     <g id="line2d_9">
      <g>
       <use xlink:href="#mcd461f2a18" x="57.6" y="194.409501" style="stroke: #000000; stroke-width: 0.8"/>
      </g>
     </g>
     <g id="text_10">
      <text style="font: 10px 'IPAexGothic'; text-anchor: end" x="50.6" y="198.154813" transform="rotate(-0 50.6 198.154813)">0.4</text>
     </g>
    </g>
    <g id="ytick_4">
     <g id="line2d_10">
      <g>
       <use xlink:href="#mcd461f2a18" x="57.6" y="143.861313" style="stroke: #000000; stroke-width: 0.8"/>
      </g>
     </g>
     <g id="text_11">
      <text style="font: 10px 'IPAexGothic'; text-anchor: end" x="50.6" y="147.606626" transform="rotate(-0 50.6 147.606626)">0.6</text>
     </g>
    </g>
    <g id="ytick_5">
     <g id="line2d_11">
      <g>
       <use xlink:href="#mcd461f2a18" x="57.6" y="93.313126" style="stroke: #000000; stroke-width: 0.8"/>
      </g>
     </g>
     <g id="text_12">
      <text style="font: 10px 'IPAexGothic'; text-anchor: end" x="50.6" y="97.058439" transform="rotate(-0 50.6 97.058439)">0.8</text>
     </g>
    </g>
    <g id="ytick_6">
     <g id="line2d_12">
      <g>
       <use xlink:href="#mcd461f2a18" x="57.6" y="42.764939" style="stroke: #000000; stroke-width: 0.8"/>
      </g>
     </g>
     <g id="text_13">
      <text style="font: 10px 'IPAexGothic'; text-anchor: end" x="50.6" y="46.510252" transform="rotate(-0 50.6 46.510252)">1.0</text>
     </g>
    </g>
    <g id="text_14">
     <text style="font: 10px 'IPAexGothic'; text-anchor: middle" x="29.460938" y="174.528" transform="rotate(-90 29.460938 174.528)">振幅</text>
    </g>
    <g id="text_15">
     <text style="font: 10px 'IPAexGothic'; text-anchor: start" x="57.6" y="38.472" transform="rotate(-0 57.6 38.472)">1e7</text>
    </g>
   </g>
   <g id="line2d_13">
    <path d="M 73.832727 205.76275 
L 73.965266 291.25666 
L 74.495423 294.180532 
L 74.627962 293.850478 
L 74.694231 295.182391 
L 74.760501 294.368445 
L 74.89304 294.325683 
L 75.025579 294.636566 
L 75.091849 294.214277 
L 75.158118 294.695317 
L 75.224388 294.607844 
L 75.290657 294.492973 
L 75.423197 295.037698 
L 75.489466 293.973751 
L 75.555736 294.588813 
L 75.622005 295.054595 
L 75.688275 294.63011 
L 75.754544 294.743755 
L 75.820814 294.511385 
L 75.953353 294.818521 
L 76.019623 294.469885 
L 76.085892 294.669245 
L 76.152162 294.553321 
L 76.284701 294.801898 
L 76.35097 294.691941 
L 76.41724 294.816032 
L 76.549779 294.560107 
L 76.616049 294.568124 
L 76.881127 294.934492 
L 76.947396 294.828802 
L 77.013666 294.941277 
L 77.079935 294.901425 
L 77.278744 294.648397 
L 77.345014 294.899323 
L 77.411283 294.693588 
L 77.477553 294.757048 
L 77.543822 295.037569 
L 77.610092 294.969554 
L 77.742631 294.748472 
L 77.808901 294.959877 
L 77.87517 294.829272 
L 77.94144 294.994501 
L 78.007709 294.590832 
L 78.073979 294.75842 
L 78.272787 294.906018 
L 78.339057 294.469151 
L 78.405327 294.884914 
L 78.471596 294.628877 
L 78.604135 294.673342 
L 78.802944 295.031344 
L 78.935483 294.814873 
L 79.001752 294.966266 
L 79.068022 294.662775 
L 79.134292 294.858262 
L 79.266831 294.616327 
L 79.3331 294.707966 
L 79.39937 295.173151 
L 79.465639 294.687204 
L 79.531909 294.850618 
L 79.664448 294.776312 
L 79.730718 294.622335 
L 79.796987 294.830423 
L 79.863257 294.798484 
L 79.929526 294.804046 
L 79.995796 294.632118 
L 80.062065 294.755728 
L 80.194604 294.74495 
L 80.327144 294.435535 
L 80.525952 294.758064 
L 80.592222 294.676247 
L 80.79103 294.992174 
L 80.92357 294.627161 
L 81.056109 294.813332 
L 81.254917 294.30612 
L 81.321187 294.300006 
L 81.453726 294.47638 
L 81.519996 294.520696 
L 81.652535 294.354988 
L 81.785074 294.760781 
L 81.851343 294.670094 
L 82.116422 295.239454 
L 82.182691 294.503717 
L 82.248961 294.647079 
L 82.31523 294.883589 
L 82.3815 294.605158 
L 82.447769 294.920356 
L 82.514039 294.653233 
L 82.580308 294.670089 
L 82.646578 294.71801 
L 82.779117 294.589277 
L 82.845387 294.638372 
L 82.911656 294.512299 
L 82.977926 294.552327 
L 83.044195 294.665541 
L 83.176734 294.441118 
L 83.309274 294.881308 
L 83.508082 294.587672 
L 83.640621 294.358111 
L 83.706891 294.674239 
L 83.77316 294.639543 
L 83.971969 294.048611 
L 84.104508 294.925218 
L 84.170778 294.103415 
L 84.237047 294.589626 
L 84.303317 294.322664 
L 84.369586 294.428817 
L 84.502125 294.953656 
L 84.700934 294.156145 
L 84.767204 294.571023 
L 84.833473 294.449315 
L 84.899743 294.660137 
L 85.032282 294.265326 
L 85.164821 294.560284 
L 85.29736 294.474183 
L 85.496169 293.910497 
L 85.562438 294.016307 
L 85.628708 293.612554 
L 85.694977 293.850554 
L 85.761247 293.79097 
L 86.026325 294.935639 
L 86.357673 292.949988 
L 86.423943 293.185978 
L 86.622751 295.044689 
L 86.689021 294.73204 
L 86.954099 291.657683 
L 87.020369 289.697209 
L 87.086638 290.444328 
L 87.219177 293.297328 
L 87.550525 287.308398 
L 87.749334 283.76853 
L 88.080681 266.074621 
L 88.146951 266.587387 
L 88.213221 192.592622 
L 88.27949 260.645877 
L 88.34576 237.638429 
L 88.412029 53.568 
L 88.544568 288.904296 
L 88.610838 265.838093 
L 88.677107 265.301423 
L 89.008455 285.11933 
L 89.074725 283.572521 
L 89.339803 289.370327 
L 89.406072 289.232828 
L 89.472342 288.650259 
L 89.671151 293.532545 
L 89.73742 292.676769 
L 89.80369 293.01885 
L 89.869959 291.008767 
L 89.936229 292.023883 
L 90.002498 292.2998 
L 90.135038 291.078097 
L 90.333846 293.59364 
L 90.400116 293.726198 
L 90.466385 294.646593 
L 90.532655 294.352785 
L 90.598924 293.750407 
L 90.665194 294.281292 
L 90.731464 293.501941 
L 90.930272 295.204759 
L 91.129081 294.336124 
L 91.19535 294.38066 
L 91.26162 295.03405 
L 91.394159 294.055296 
L 91.460429 295.124365 
L 91.526698 294.818672 
L 91.592968 294.460418 
L 91.659237 294.495841 
L 91.858046 294.859432 
L 91.924316 294.730837 
L 91.990585 294.801621 
L 92.056855 294.807953 
L 92.123124 294.147787 
L 92.189394 294.433725 
L 92.321933 294.456598 
L 92.454472 294.978905 
L 92.520742 294.859624 
L 92.587011 294.036841 
L 92.653281 294.479052 
L 92.71955 294.411308 
L 92.78582 293.392156 
L 92.918359 294.635572 
L 92.984628 294.389659 
L 93.050898 294.432514 
L 93.117168 294.863665 
L 93.183437 294.314849 
L 93.249707 294.680411 
L 93.315976 295.035492 
L 93.514785 294.224036 
L 93.581054 294.339711 
L 93.779863 294.069548 
L 93.846133 294.706246 
L 93.912402 293.989582 
L 94.044941 295.030948 
L 94.111211 294.984041 
L 94.17748 294.184087 
L 94.24375 294.236556 
L 94.310019 294.144328 
L 94.376289 294.334746 
L 94.442559 293.97529 
L 94.508828 295.177541 
L 94.575098 294.205971 
L 94.641367 294.292646 
L 94.707637 293.975075 
L 94.773906 294.132423 
L 94.840176 293.922534 
L 94.972715 294.686656 
L 95.038985 294.660679 
L 95.171524 294.413846 
L 95.304063 295.310306 
L 95.370332 295.086419 
L 95.436602 294.450928 
L 95.502871 295.249238 
L 95.569141 294.927646 
L 95.635411 295.13513 
L 95.70168 293.533795 
L 95.76795 295.306553 
L 95.834219 294.642551 
L 95.900489 293.94082 
L 95.966758 294.608428 
L 96.033028 294.493949 
L 96.165567 294.814076 
L 96.231837 293.780794 
L 96.298106 294.679158 
L 96.364376 294.179511 
L 96.430645 294.807191 
L 96.496915 294.492181 
L 96.563184 294.368742 
L 96.629454 294.757741 
L 96.695723 294.461756 
L 96.761993 294.7202 
L 96.828263 294.414624 
L 96.960802 295.088496 
L 97.027071 295.136644 
L 97.093341 294.487002 
L 97.15961 294.906181 
L 97.22588 295.132412 
L 97.424689 293.184362 
L 97.557228 294.708007 
L 97.623497 294.888854 
L 97.689767 294.743769 
L 97.756036 293.911847 
L 97.822306 294.951836 
L 97.888575 294.369526 
L 97.954845 294.930157 
L 98.021115 294.606034 
L 98.087384 294.956981 
L 98.153654 294.93219 
L 98.219923 293.967128 
L 98.286193 294.710605 
L 98.418732 293.892657 
L 98.551271 295.080421 
L 98.61754 294.480927 
L 98.68381 294.562737 
L 98.75008 294.349988 
L 98.816349 294.626535 
L 98.882619 294.529412 
L 99.213966 293.316866 
L 99.280236 294.386094 
L 99.346506 293.749481 
L 99.412775 293.821908 
L 99.545314 293.442134 
L 99.611584 293.875609 
L 99.677853 293.479981 
L 99.744123 293.654386 
L 99.876662 294.005895 
L 99.942932 293.36452 
L 100.009201 294.983106 
L 100.075471 294.162544 
L 100.14174 293.98145 
L 100.20801 295.115791 
L 100.406818 292.171996 
L 100.605627 290.834868 
L 100.870705 294.398585 
L 101.003244 292.661086 
L 101.069514 293.025268 
L 101.135784 293.094417 
L 101.268323 291.956365 
L 101.334592 291.986482 
L 101.59967 286.975379 
L 101.66594 287.308863 
L 101.73221 286.308164 
L 101.864749 293.198851 
L 102.063557 286.052848 
L 102.129827 287.098947 
L 102.196096 287.585742 
L 102.394905 289.954979 
L 102.527444 284.271239 
L 102.593714 285.907516 
L 102.726253 233.561672 
L 102.792522 264.055853 
L 102.991331 172.479763 
L 103.057601 211.118383 
L 103.12387 181.224563 
L 103.322679 274.525926 
L 103.388948 269.731789 
L 103.587757 290.240162 
L 103.654027 290.618887 
L 103.852835 283.980835 
L 104.117913 288.050622 
L 104.184183 287.17592 
L 104.250453 288.408381 
L 104.515531 285.159924 
L 104.5818 284.427812 
L 104.913148 294.348494 
L 105.178226 290.97422 
L 105.244496 290.586034 
L 105.310765 289.102433 
L 105.443305 291.762952 
L 105.509574 290.115903 
L 105.708383 293.048333 
L 105.774652 291.896139 
L 105.840922 292.459368 
L 105.907191 292.516218 
L 105.973461 290.217729 
L 106.106 292.654647 
L 106.17227 292.853779 
L 106.304809 294.441854 
L 106.371078 292.679371 
L 106.437348 294.659371 
L 106.503617 294.55125 
L 106.569887 295.063414 
L 106.636157 294.196635 
L 106.702426 294.381166 
L 106.768696 294.436331 
L 106.901235 293.353073 
L 107.033774 295.398917 
L 107.100043 294.386292 
L 107.166313 294.653153 
L 107.232583 294.90391 
L 107.298852 294.750175 
L 107.365122 294.448657 
L 107.431391 294.666446 
L 107.497661 294.483687 
L 107.56393 295.011974 
L 107.6302 294.923694 
L 107.762739 293.982159 
L 107.829009 293.794347 
L 107.961548 294.91167 
L 108.027817 294.665395 
L 108.094087 295.208027 
L 108.160356 293.441912 
L 108.226626 295.108796 
L 108.292895 294.176084 
L 108.359165 293.865842 
L 108.624243 295.041408 
L 108.690513 294.809562 
L 108.756782 294.916212 
L 108.823052 295.128484 
L 108.955591 294.121805 
L 109.02186 295.138284 
L 109.08813 293.294382 
L 109.1544 294.467288 
L 109.220669 294.430068 
L 109.485747 293.574492 
L 109.552017 294.609047 
L 109.618286 294.113964 
L 109.750826 295.009289 
L 109.817095 294.518677 
L 109.883365 294.370008 
L 109.949634 294.666945 
L 110.015904 294.615045 
L 110.082173 294.573977 
L 110.214712 292.864121 
L 110.280982 294.230949 
L 110.347252 293.744427 
L 110.413521 293.665222 
L 110.479791 293.920945 
L 110.54606 293.894908 
L 110.61233 293.559222 
L 110.678599 294.310317 
L 110.744869 294.245005 
L 110.811138 293.939376 
L 110.877408 294.878944 
L 110.943678 294.139407 
L 111.009947 294.615516 
L 111.208756 295.350102 
L 111.275025 294.08795 
L 111.341295 294.866184 
L 111.407564 295.156963 
L 111.606373 294.034052 
L 111.738912 294.870942 
L 111.805182 293.937691 
L 111.871451 294.308879 
L 111.937721 293.769666 
L 112.00399 295.308594 
L 112.07026 293.516282 
L 112.13653 294.649236 
L 112.269069 293.557388 
L 112.401608 294.942356 
L 112.467877 294.986399 
L 112.600416 293.276478 
L 112.666686 294.778477 
L 112.732956 294.143388 
L 112.865495 294.343048 
L 112.998034 293.626839 
L 113.064303 294.226452 
L 113.130573 293.970657 
L 113.196842 293.79507 
L 113.263112 294.605101 
L 113.329382 292.524051 
L 113.395651 294.147313 
L 113.461921 293.427132 
L 113.52819 292.880362 
L 113.59446 295.031148 
L 113.660729 294.460846 
L 113.726999 295.132835 
L 113.793268 295.12072 
L 113.859538 293.318086 
L 113.925807 293.837431 
L 113.992077 293.81523 
L 114.058347 293.675337 
L 114.124616 293.984352 
L 114.190886 293.459813 
L 114.257155 294.532873 
L 114.389694 293.512511 
L 114.455964 293.940755 
L 114.522233 293.363779 
L 114.654773 294.930447 
L 114.787312 292.245612 
L 114.919851 289.009671 
L 114.98612 290.56274 
L 115.05239 289.791964 
L 115.184929 288.308275 
L 115.317468 292.168946 
L 115.383738 291.411255 
L 115.516277 292.621632 
L 115.781355 282.512584 
L 115.847625 282.414145 
L 115.980164 273.894347 
L 116.046433 280.018242 
L 116.112703 278.935076 
L 116.178972 277.812502 
L 116.311511 289.065049 
L 116.377781 288.298328 
L 116.642859 278.653177 
L 116.709129 278.688071 
L 116.907937 257.741359 
L 116.974207 256.129954 
L 117.106746 198.558629 
L 117.239285 267.335322 
L 117.438094 166.733068 
L 117.570633 128.220703 
L 117.769442 265.85413 
L 117.835711 254.799699 
L 117.901981 287.598758 
L 117.96825 281.858963 
L 118.100789 294.387012 
L 118.299598 287.79084 
L 118.432137 288.551313 
L 118.498407 287.761499 
L 118.697215 289.607212 
L 118.896024 287.320168 
L 118.962294 288.652789 
L 119.028563 287.101263 
L 119.293641 294.129763 
L 119.42618 290.95325 
L 119.49245 291.831601 
L 119.55872 291.189448 
L 119.624989 291.947593 
L 119.691259 291.58585 
L 119.757528 291.628223 
L 119.823798 291.234312 
L 119.890067 290.064487 
L 120.088876 293.678524 
L 120.155146 294.974599 
L 120.221415 294.161001 
L 120.287685 293.744596 
L 120.486493 288.026141 
L 120.552763 288.207518 
L 120.685302 290.006954 
L 120.751572 288.1753 
L 120.817841 290.11111 
L 120.884111 289.44096 
L 120.95038 289.521145 
L 121.01665 291.155741 
L 121.082919 291.081828 
L 121.149189 290.138871 
L 121.215458 290.49282 
L 121.347998 292.433797 
L 121.414267 292.309363 
L 121.480537 292.380955 
L 121.546806 292.510249 
L 121.613076 294.159494 
L 121.679345 293.872806 
L 121.745615 293.588421 
L 121.878154 294.928186 
L 121.944424 294.808808 
L 122.010693 293.317369 
L 122.143232 294.858893 
L 122.275771 295.060644 
L 122.342041 294.105642 
L 122.40831 294.400189 
L 122.47458 294.499484 
L 122.54085 293.456002 
L 122.607119 293.978309 
L 122.673389 293.849392 
L 122.739658 292.876217 
L 122.805928 293.166339 
L 122.872197 294.398922 
L 122.938467 293.722947 
L 123.004736 293.635198 
L 123.071006 293.714433 
L 123.269815 294.929448 
L 123.336084 293.150769 
L 123.402354 294.757354 
L 123.468623 294.244824 
L 123.534893 293.579365 
L 123.601162 294.369406 
L 123.667432 293.880287 
L 123.866241 294.934234 
L 124.065049 293.815829 
L 124.197588 293.943813 
L 124.263858 293.047839 
L 124.330127 294.142741 
L 124.396397 294.027071 
L 124.462667 293.865241 
L 124.528936 293.95863 
L 124.595206 293.851602 
L 124.727745 294.911377 
L 124.794014 292.841655 
L 124.926553 295.423892 
L 125.059093 294.342792 
L 125.125362 294.940104 
L 125.191632 294.885602 
L 125.324171 293.720297 
L 125.39044 295.355209 
L 125.45671 294.386095 
L 125.522979 293.961122 
L 125.589249 294.532879 
L 125.655519 294.034337 
L 125.721788 294.280683 
L 125.854327 294.952711 
L 125.920597 294.617407 
L 126.053136 295.276853 
L 126.185675 293.566757 
L 126.251945 293.968596 
L 126.318214 293.55854 
L 126.384484 294.251841 
L 126.517023 293.299331 
L 126.583292 294.319295 
L 126.649562 293.710879 
L 126.715831 293.922025 
L 126.782101 293.223414 
L 126.91464 294.81523 
L 127.113449 292.88225 
L 127.179718 293.690236 
L 127.245988 293.566241 
L 127.378527 292.960903 
L 127.444797 294.635061 
L 127.511066 293.812626 
L 127.577336 294.047148 
L 127.709875 295.19978 
L 127.842414 294.631146 
L 127.974953 294.790191 
L 128.041223 293.883722 
L 128.107492 295.351798 
L 128.173762 293.924546 
L 128.240031 294.031173 
L 128.306301 295.354466 
L 128.37257 293.286608 
L 128.43884 293.437678 
L 128.505109 293.958561 
L 128.571379 293.169433 
L 128.637648 293.234276 
L 128.703918 294.235875 
L 128.770188 293.409653 
L 128.902727 294.671635 
L 128.968996 293.522846 
L 129.035266 293.576524 
L 129.101535 293.590023 
L 129.167805 292.329908 
L 129.234074 292.77997 
L 129.432883 294.46232 
L 129.697961 288.522045 
L 129.764231 291.16425 
L 129.89677 284.460146 
L 130.029309 288.682024 
L 130.161848 279.094272 
L 130.228118 282.417502 
L 130.493196 293.386834 
L 130.890813 273.302989 
L 130.957083 274.658937 
L 131.089622 290.382682 
L 131.288431 266.425455 
L 131.3547 249.830583 
L 131.487239 264.552365 
L 131.553509 230.800004 
L 131.619778 278.245605 
L 131.686048 274.75761 
L 131.752318 219.148246 
L 131.818587 224.926466 
L 131.951126 260.614694 
L 132.017396 121.911738 
L 132.083665 127.976474 
L 132.282474 251.225207 
L 132.348744 231.784097 
L 132.415013 240.906007 
L 132.481283 277.96708 
L 132.547552 248.694884 
L 132.746361 280.438394 
L 132.94517 290.780487 
L 133.077709 287.060922 
L 133.143978 288.627032 
L 133.210248 288.844377 
L 133.276517 291.889847 
L 133.342787 290.789962 
L 133.409056 292.538187 
L 133.475326 292.031172 
L 133.541596 291.571389 
L 133.740404 294.447087 
L 133.806674 294.298346 
L 133.872943 292.78867 
L 133.939213 293.112557 
L 134.005482 294.830692 
L 134.138021 291.790346 
L 134.204291 294.44824 
L 134.270561 294.017355 
L 134.33683 292.522463 
L 134.4031 294.621926 
L 134.469369 293.956648 
L 134.668178 288.567536 
L 134.734447 289.637112 
L 134.800717 292.27743 
L 134.866987 290.819715 
L 134.999526 293.601443 
L 135.065795 290.837852 
L 135.198334 293.114883 
L 135.264604 291.788087 
L 135.330873 291.932826 
L 135.397143 291.936005 
L 135.463413 293.043674 
L 135.529682 289.537759 
L 135.595952 290.383857 
L 135.662221 290.781207 
L 135.728491 289.248234 
L 135.79476 290.759307 
L 135.86103 289.615235 
L 136.059839 292.785974 
L 136.126108 292.562567 
L 136.192378 292.748024 
L 136.258647 293.372429 
L 136.324917 288.434826 
L 136.391186 288.842808 
L 136.457456 292.889345 
L 136.523725 292.321682 
L 136.589995 292.531811 
L 136.656265 294.532306 
L 136.722534 294.25033 
L 136.788804 293.340268 
L 136.855073 295.013429 
L 136.921343 293.930712 
L 137.053882 294.311425 
L 137.120151 294.193746 
L 137.38523 291.214509 
L 137.451499 292.320342 
L 137.517769 290.491408 
L 137.584038 291.382574 
L 137.650308 293.506277 
L 137.716577 293.018487 
L 137.782847 291.017993 
L 138.047925 294.780853 
L 138.114195 294.295108 
L 138.180464 294.390296 
L 138.246734 294.247028 
L 138.313003 295.175455 
L 138.379273 294.657583 
L 138.445543 295.377099 
L 138.511812 294.839937 
L 138.578082 295.015137 
L 138.644351 294.795507 
L 138.710621 295.332234 
L 138.84316 294.24992 
L 138.909429 294.955487 
L 138.975699 294.589715 
L 139.041968 294.3909 
L 139.108238 295.226296 
L 139.174508 294.951506 
L 139.240777 294.623614 
L 139.307047 294.996498 
L 139.373316 294.045582 
L 139.439586 294.135882 
L 139.505855 295.156568 
L 139.572125 294.206955 
L 139.638394 294.598108 
L 139.704664 294.179754 
L 139.770934 294.355788 
L 139.837203 294.762597 
L 139.903473 294.497998 
L 139.969742 294.32306 
L 140.036012 294.704817 
L 140.102281 294.623006 
L 140.23482 295.102394 
L 140.30109 293.51571 
L 140.36736 293.562317 
L 140.499899 294.977564 
L 140.566168 295.059828 
L 140.632438 294.230954 
L 140.698707 294.469782 
L 140.764977 295.175879 
L 140.831246 295.014473 
L 140.897516 294.463205 
L 140.963786 294.503359 
L 141.030055 295.444858 
L 141.096325 294.88343 
L 141.228864 293.931527 
L 141.361403 294.348964 
L 141.427672 293.538515 
L 141.493942 295.163211 
L 141.560212 293.823848 
L 141.626481 293.97105 
L 141.692751 295.387999 
L 141.82529 293.659377 
L 141.891559 294.955739 
L 142.024098 293.95894 
L 142.090368 294.895187 
L 142.156638 293.919116 
L 142.222907 295.243364 
L 142.289177 294.577109 
L 142.355446 293.810318 
L 142.421716 295.081343 
L 142.487985 294.471232 
L 142.554255 293.490378 
L 142.620524 294.272777 
L 142.686794 294.185871 
L 142.753064 293.444484 
L 142.819333 293.737672 
L 142.885603 294.633145 
L 143.084411 291.804944 
L 143.150681 293.778957 
L 143.21695 291.689385 
L 143.28322 291.926445 
L 143.34949 292.700744 
L 143.482029 288.544209 
L 143.614568 291.889125 
L 143.680837 289.979816 
L 143.747107 291.885853 
L 143.813376 290.640799 
L 143.945915 286.030451 
L 144.012185 285.592564 
L 144.144724 283.939642 
L 144.277263 286.737967 
L 144.343533 285.969381 
L 144.476072 293.661036 
L 144.80742 277.589234 
L 144.873689 277.252308 
L 145.138767 292.006646 
L 145.205037 292.615681 
L 145.470115 277.279467 
L 145.536385 280.222161 
L 145.602654 279.516506 
L 145.668924 276.740149 
L 145.735193 279.122429 
L 145.934002 254.576846 
L 146.000272 252.75237 
L 146.066541 281.386683 
L 146.132811 251.666353 
L 146.26535 289.578481 
L 146.397889 216.419422 
L 146.530428 288.691364 
L 146.596698 194.036406 
L 146.729237 286.084392 
L 146.795506 280.880534 
L 146.928045 182.870301 
L 146.994315 276.832096 
L 147.060585 266.485594 
L 147.126854 275.255224 
L 147.193124 264.281953 
L 147.259393 270.955909 
L 147.590741 292.575279 
L 147.657011 293.276296 
L 147.72328 292.90868 
L 147.922089 290.279731 
L 148.253437 292.837514 
L 148.385976 292.249657 
L 148.452245 292.546714 
L 148.518515 290.526986 
L 148.584784 294.282037 
L 148.651054 292.322186 
L 148.717323 291.4334 
L 148.783593 294.652561 
L 148.849862 294.645628 
L 148.916132 293.797767 
L 148.982402 295.027432 
L 149.048671 294.546017 
L 149.18121 292.62731 
L 149.24748 293.534256 
L 149.380019 290.917496 
L 149.446288 291.188555 
L 149.512558 290.939238 
L 149.711367 292.822719 
L 149.843906 292.875559 
L 149.910175 292.802643 
L 149.976445 292.549801 
L 150.042714 293.922823 
L 150.108984 293.293813 
L 150.175254 292.978449 
L 150.241523 293.612458 
L 150.307793 293.552751 
L 150.374062 293.683173 
L 150.572871 295.20669 
L 150.70541 294.289736 
L 150.77168 295.125481 
L 150.837949 294.935022 
L 150.904219 294.595705 
L 150.970488 294.762059 
L 151.036758 294.747099 
L 151.235566 292.035564 
L 151.301836 292.767945 
L 151.368106 292.504136 
L 151.500645 291.271842 
L 151.633184 292.419383 
L 151.699453 292.673463 
L 151.765723 292.240284 
L 151.964532 293.254598 
L 152.030801 292.6054 
L 152.097071 294.043814 
L 152.16334 292.125342 
L 152.22961 292.984155 
L 152.295879 292.969756 
L 152.362149 294.550571 
L 152.428418 294.357197 
L 152.560958 294.968149 
L 152.693497 294.489087 
L 152.759766 294.715688 
L 152.826036 294.411432 
L 152.892305 294.684736 
L 152.958575 294.174398 
L 153.024844 294.4527 
L 153.157384 295.096324 
L 153.223653 293.812027 
L 153.289923 294.766407 
L 153.356192 294.375818 
L 153.422462 293.615817 
L 153.555001 294.775572 
L 153.62127 293.101971 
L 153.68754 294.866868 
L 153.753809 293.546709 
L 153.820079 294.765802 
L 153.886349 294.241821 
L 153.952618 293.232411 
L 154.018888 293.693286 
L 154.085157 294.786969 
L 154.151427 292.934834 
L 154.217696 294.086357 
L 154.283966 294.444673 
L 154.350235 294.181601 
L 154.416505 294.588412 
L 154.549044 294.08382 
L 154.681583 295.02745 
L 154.747853 294.359476 
L 154.814122 294.893197 
L 154.946661 293.812033 
L 155.012931 294.73151 
L 155.079201 294.437883 
L 155.14547 294.515669 
L 155.21174 294.245114 
L 155.278009 294.449212 
L 155.344279 295.380837 
L 155.410548 294.911677 
L 155.476818 294.398232 
L 155.543087 295.370085 
L 155.675627 293.761463 
L 155.741896 294.879038 
L 155.808166 294.384234 
L 155.874435 294.788639 
L 155.940705 294.648767 
L 156.006974 293.798935 
L 156.073244 294.393103 
L 156.205783 293.400926 
L 156.272053 294.842451 
L 156.338322 294.13245 
L 156.537131 292.611058 
L 156.6034 293.004186 
L 156.66967 294.512469 
L 156.735939 293.48526 
L 156.802209 294.5315 
L 157.067287 290.313242 
L 157.133557 290.566649 
L 157.266096 289.303959 
L 157.398635 290.78984 
L 157.464905 288.407928 
L 157.531174 288.725837 
L 157.597444 290.528887 
L 157.729983 287.445131 
L 157.862522 289.725119 
L 158.1276 282.777993 
L 158.326409 288.509152 
L 158.392678 288.192499 
L 158.458948 290.308786 
L 158.790296 284.03909 
L 158.989104 288.625389 
L 159.121643 291.756348 
L 159.187913 290.984974 
L 159.254182 291.953501 
L 159.320452 291.319362 
L 159.519261 281.737704 
L 159.6518 284.183427 
L 159.784339 293.859287 
L 159.850608 289.069537 
L 159.916878 291.134302 
L 159.983148 290.954358 
L 160.049417 287.065491 
L 160.115687 288.656304 
L 160.248226 246.119479 
L 160.314495 257.336326 
L 160.447034 292.602179 
L 160.579574 281.677057 
L 160.645843 247.243179 
L 160.712113 265.528211 
L 160.778382 276.911538 
L 160.910921 241.114194 
L 161.10973 283.979526 
L 161.176 248.048443 
L 161.308539 282.224253 
L 161.441078 280.809187 
L 161.507347 217.427985 
L 161.639886 278.429769 
L 161.772426 272.257751 
L 161.838695 273.148681 
L 162.037504 289.053775 
L 162.170043 293.345268 
L 162.236312 292.36058 
L 162.302582 293.25028 
L 162.368852 292.576664 
L 162.501391 293.998299 
L 162.63393 291.460435 
L 162.700199 292.106872 
L 162.766469 291.652814 
L 162.832738 289.427816 
L 163.031547 293.713743 
L 163.097817 295.385092 
L 163.164086 292.933009 
L 163.230356 293.883328 
L 163.296625 294.397771 
L 163.362895 293.729457 
L 163.429164 293.922348 
L 163.495434 294.824454 
L 163.694243 293.956128 
L 163.760512 293.912184 
L 163.893051 290.481345 
L 163.959321 291.911233 
L 164.02559 291.385135 
L 164.09186 291.800514 
L 164.158129 293.838131 
L 164.224399 292.300686 
L 164.290669 293.27291 
L 164.489477 291.014923 
L 164.622016 292.53163 
L 164.688286 291.674329 
L 164.754555 292.026655 
L 164.820825 294.11728 
L 164.887095 293.717474 
L 164.953364 292.359794 
L 165.085903 294.286451 
L 165.218442 293.105211 
L 165.284712 293.421398 
L 165.350981 292.650527 
L 165.417251 292.76946 
L 165.54979 293.509293 
L 165.61606 293.311017 
L 165.682329 294.619736 
L 165.748599 294.058385 
L 165.814868 294.967874 
L 165.881138 294.44014 
L 165.947407 294.055007 
L 166.013677 292.657656 
L 166.079947 294.826328 
L 166.146216 294.010018 
L 166.212486 293.421204 
L 166.278755 293.675227 
L 166.345025 294.603318 
L 166.477564 293.290796 
L 166.543833 293.215914 
L 166.610103 292.211529 
L 166.808912 295.299082 
L 166.875181 294.35972 
L 166.941451 295.161626 
L 167.206529 293.059896 
L 167.339068 295.149445 
L 167.405338 292.753193 
L 167.471607 294.342687 
L 167.537877 294.444425 
L 167.604146 292.745781 
L 167.670416 292.960222 
L 167.736685 295.214745 
L 167.802955 293.329918 
L 167.869225 294.173585 
L 167.935494 295.331154 
L 168.001764 293.630988 
L 168.068033 294.057126 
L 168.134303 294.349353 
L 168.200572 293.878926 
L 168.266842 294.67487 
L 168.333111 294.636372 
L 168.399381 293.736636 
L 168.465651 295.063323 
L 168.53192 294.305106 
L 168.59819 295.033398 
L 168.664459 294.321609 
L 168.863268 295.050349 
L 169.062076 294.232052 
L 169.128346 294.277137 
L 169.194616 293.764162 
L 169.260885 294.571006 
L 169.327155 294.511775 
L 169.459694 293.685852 
L 169.525963 294.941435 
L 169.592233 294.279493 
L 169.791042 295.053227 
L 169.857311 294.673958 
L 169.923581 295.315956 
L 169.98985 294.919962 
L 170.05612 295.128598 
L 170.387468 292.713935 
L 170.453737 293.375678 
L 170.652546 291.94471 
L 170.785085 293.381916 
L 170.851354 292.714445 
L 170.917624 293.318777 
L 171.050163 292.191166 
L 171.116433 292.571602 
L 171.182702 292.495468 
L 171.381511 291.260956 
L 171.44778 290.597088 
L 171.51405 291.016541 
L 171.58032 290.455578 
L 171.845398 285.202384 
L 171.911667 288.81192 
L 171.977937 287.344988 
L 172.044206 286.509294 
L 172.110476 290.275804 
L 172.176746 289.865193 
L 172.243015 288.948026 
L 172.375554 292.479601 
L 172.441824 291.897071 
L 172.773172 284.405748 
L 172.905711 288.949202 
L 172.97198 287.485593 
L 173.104519 292.19573 
L 173.369598 282.853627 
L 173.435867 281.133995 
L 173.502137 281.341079 
L 173.568406 282.91367 
L 173.767215 293.955665 
L 173.899754 284.77962 
L 174.032293 278.681294 
L 174.098563 281.571857 
L 174.164832 281.490309 
L 174.231102 281.419272 
L 174.297371 281.77129 
L 174.363641 283.448789 
L 174.49618 291.133541 
L 174.562449 286.887738 
L 174.694989 251.379151 
L 174.827528 291.9395 
L 174.893797 274.993977 
L 175.026336 280.016748 
L 175.092606 268.716659 
L 175.158875 237.564255 
L 175.291415 275.994233 
L 175.357684 243.813765 
L 175.423954 253.824016 
L 175.556493 286.293199 
L 175.622762 251.118986 
L 175.755301 288.900037 
L 175.821571 270.418807 
L 175.887841 282.869682 
L 175.95411 274.176055 
L 176.152919 289.302311 
L 176.285458 274.900368 
L 176.351727 277.565698 
L 176.484267 285.718977 
L 176.616806 287.209946 
L 177.014423 294.730289 
L 177.146962 293.26223 
L 177.213232 294.37499 
L 177.279501 294.127215 
L 177.345771 294.425431 
L 177.41204 289.507676 
L 177.47831 293.798696 
L 177.544579 292.747517 
L 177.610849 292.942584 
L 177.677119 293.944104 
L 177.743388 292.626285 
L 177.809658 293.29651 
L 177.942197 293.951676 
L 178.008466 293.85921 
L 178.074736 295.098203 
L 178.141005 295.073122 
L 178.339814 294.602727 
L 178.538623 292.144014 
L 178.604892 291.899199 
L 178.671162 293.089657 
L 178.737431 291.653753 
L 178.803701 292.451167 
L 178.86997 292.525937 
L 179.00251 293.809994 
L 179.068779 292.57918 
L 179.135049 293.631492 
L 179.201318 292.592032 
L 179.267588 294.784715 
L 179.333857 294.505746 
L 179.400127 294.223066 
L 179.466396 294.931866 
L 179.532666 294.573487 
L 179.598936 294.584378 
L 179.665205 293.745783 
L 179.797744 294.74321 
L 179.864014 294.233728 
L 179.930283 294.527829 
L 179.996553 294.090514 
L 180.062822 295.136402 
L 180.129092 294.910622 
L 180.261631 294.208501 
L 180.327901 294.950655 
L 180.39417 294.58371 
L 180.526709 294.417211 
L 180.592979 293.896488 
L 180.659248 294.333596 
L 180.791788 293.635528 
L 180.858057 294.218268 
L 180.924327 293.076781 
L 181.123135 295.174298 
L 181.189405 295.069299 
L 181.255674 294.603114 
L 181.321944 294.70609 
L 181.520753 293.868574 
L 181.587022 293.955085 
L 181.719561 294.847684 
L 181.785831 294.437146 
L 181.8521 294.473064 
L 181.98464 294.77748 
L 182.050909 295.472541 
L 182.183448 294.670595 
L 182.315987 295.019998 
L 182.382257 294.792033 
L 182.448526 295.175765 
L 182.514796 294.837988 
L 182.581066 295.154937 
L 182.647335 293.869902 
L 182.713605 295.280173 
L 182.779874 293.711412 
L 182.846144 294.786631 
L 182.912413 294.232249 
L 182.978683 293.140394 
L 183.044952 294.527899 
L 183.111222 294.475892 
L 183.177492 294.355711 
L 183.310031 294.946191 
L 183.3763 294.471742 
L 183.44257 294.85713 
L 183.508839 294.477297 
L 183.575109 295.02729 
L 183.641378 294.629838 
L 183.773917 295.270405 
L 183.840187 294.296669 
L 183.906457 294.524533 
L 183.972726 295.262729 
L 184.038996 295.220865 
L 184.304074 293.244438 
L 184.502883 294.109383 
L 184.569152 293.119012 
L 184.635422 294.03712 
L 184.767961 292.454858 
L 184.83423 293.715505 
L 184.9005 292.580853 
L 185.033039 293.780947 
L 185.099309 292.625279 
L 185.165578 293.412448 
L 185.231848 293.33422 
L 185.298117 293.071486 
L 185.364387 293.345829 
L 185.563195 291.877372 
L 185.629465 291.126239 
L 185.695735 291.267973 
L 185.828274 292.729893 
L 185.960813 290.615042 
L 186.027082 290.768465 
L 186.225891 290.146203 
L 186.35843 294.530424 
L 186.689778 289.860582 
L 186.756047 289.327028 
L 186.822317 289.641624 
L 187.021126 293.844224 
L 187.087395 293.914074 
L 187.286204 287.569611 
L 187.352473 287.952928 
L 187.418743 286.917418 
L 187.683821 293.48321 
L 187.750091 293.824488 
L 187.81636 293.217171 
L 187.88263 287.700253 
L 187.948899 288.866161 
L 188.015169 288.710759 
L 188.081439 287.40912 
L 188.280247 292.969076 
L 188.346517 293.623741 
L 188.744134 287.8655 
L 188.810404 285.614924 
L 188.876673 293.280473 
L 189.075482 276.806437 
L 189.141751 278.14811 
L 189.27429 285.531774 
L 189.34056 281.84906 
L 189.473099 291.724677 
L 189.605638 266.175928 
L 189.671908 282.695827 
L 189.738177 275.389592 
L 189.870716 282.394009 
L 190.003256 276.326626 
L 190.069525 287.897423 
L 190.268334 262.94941 
L 190.400873 281.701427 
L 190.467142 278.454332 
L 190.533412 277.689076 
L 190.599682 254.746684 
L 190.79849 291.66801 
L 190.931029 279.513487 
L 190.997299 294.749798 
L 191.063568 287.33697 
L 191.129838 292.003381 
L 191.196108 289.935752 
L 191.394916 293.494371 
L 191.461186 294.349486 
L 191.527455 293.064434 
L 191.593725 293.703036 
L 191.659994 293.786734 
L 191.726264 295.163406 
L 191.792534 292.99917 
L 191.858803 293.183317 
L 191.925073 292.742115 
L 191.991342 294.71716 
L 192.057612 293.660908 
L 192.123881 294.594767 
L 192.190151 293.198783 
L 192.25642 294.055897 
L 192.32269 294.136862 
L 192.455229 294.860634 
L 192.521499 294.107376 
L 192.587768 294.647822 
L 192.654038 294.618451 
L 192.720307 293.95153 
L 192.852846 294.882523 
L 192.985386 294.227817 
L 193.117925 294.585148 
L 193.184194 294.462547 
L 193.250464 293.743845 
L 193.316733 294.66748 
L 193.383003 294.051528 
L 193.449272 294.138078 
L 193.515542 295.01085 
L 193.581812 294.436036 
L 193.648081 294.91986 
L 193.714351 294.015618 
L 193.78062 294.13138 
L 193.84689 295.18392 
L 193.913159 293.238351 
L 193.979429 294.488304 
L 194.244507 294.771159 
L 194.310777 294.812126 
L 194.377046 294.571877 
L 194.509585 295.34838 
L 194.575855 294.620376 
L 194.642124 294.752185 
L 194.708394 294.819959 
L 194.774663 295.276958 
L 194.840933 295.032046 
L 194.973472 295.059993 
L 195.106011 294.88434 
L 195.172281 295.102801 
L 195.23855 294.851115 
L 195.30482 294.906827 
L 195.371089 295.237836 
L 195.503629 294.043038 
L 195.636168 294.7739 
L 195.702437 294.15615 
L 195.768707 295.00284 
L 195.834976 294.959714 
L 195.901246 294.954263 
L 196.100055 295.387648 
L 196.232594 294.711328 
L 196.298863 295.364679 
L 196.365133 295.050488 
L 196.630211 294.612578 
L 196.82902 295.17602 
L 196.895289 295.099021 
L 196.961559 295.318643 
L 197.094098 294.758463 
L 197.160367 295.33639 
L 197.292907 294.73355 
L 197.557985 295.250344 
L 197.756793 294.575341 
L 197.823063 294.951803 
L 198.021872 294.279388 
L 198.088141 294.714021 
L 198.154411 293.831724 
L 198.22068 294.458161 
L 198.353219 293.244903 
L 198.485759 294.597008 
L 198.552028 294.169642 
L 198.618298 294.446786 
L 198.817106 292.8949 
L 198.949645 294.79974 
L 199.082184 293.940524 
L 199.148454 294.351723 
L 199.280993 292.992517 
L 199.347263 293.026106 
L 199.479802 293.739374 
L 199.546071 293.354687 
L 199.612341 293.022309 
L 199.67861 293.571001 
L 199.74488 292.57621 
L 199.877419 294.142574 
L 199.943689 293.103879 
L 200.009958 293.280171 
L 200.142497 293.726375 
L 200.341306 290.036992 
L 200.407576 291.79631 
L 200.540115 287.493343 
L 200.738923 292.335874 
L 200.805193 292.312838 
L 201.004002 294.762621 
L 201.070271 295.068968 
L 201.20281 291.277811 
L 201.26908 292.271543 
L 201.335349 290.77955 
L 201.401619 292.706134 
L 201.467888 291.036731 
L 201.534158 293.697615 
L 201.600428 291.308619 
L 201.666697 293.723572 
L 201.732967 293.488621 
L 201.931775 290.291049 
L 201.998045 291.220959 
L 202.196854 293.093762 
L 202.329393 292.097458 
L 202.395662 293.965587 
L 202.461932 293.022588 
L 202.528201 291.10291 
L 202.594471 291.274609 
L 202.66074 290.932846 
L 202.79328 286.343713 
L 202.859549 290.083689 
L 202.925819 288.898984 
L 202.992088 288.991796 
L 203.058358 289.985963 
L 203.124627 288.756048 
L 203.190897 282.599958 
L 203.257166 286.06121 
L 203.323436 283.280011 
L 203.389706 285.461075 
L 203.455975 282.897266 
L 203.522245 270.912009 
L 203.588514 275.95068 
L 203.721053 293.15461 
L 203.787323 287.486157 
L 203.853592 288.030964 
L 203.919862 291.478051 
L 204.052401 278.16505 
L 204.18494 263.075972 
L 204.317479 285.971352 
L 204.383749 279.762986 
L 204.450018 280.175012 
L 204.582557 292.310965 
L 204.781366 270.430783 
L 204.847636 272.546479 
L 204.913905 275.438086 
L 204.980175 273.903386 
L 205.046444 287.126836 
L 205.245253 269.014437 
L 205.311523 287.347731 
L 205.377792 287.230057 
L 205.510331 292.666777 
L 205.576601 292.211114 
L 205.64287 290.475883 
L 205.70914 293.767922 
L 205.775409 291.369168 
L 205.841679 292.048855 
L 205.907949 293.103267 
L 205.974218 291.467727 
L 206.173027 294.530089 
L 206.239296 293.397221 
L 206.305566 294.430385 
L 206.371835 294.258244 
L 206.438105 294.453471 
L 206.504375 293.676955 
L 206.570644 295.024746 
L 206.636914 293.547344 
L 206.703183 294.508006 
L 206.769453 293.948189 
L 206.835722 294.030102 
L 206.901992 293.984117 
L 206.968261 293.63081 
L 207.23334 295.312454 
L 207.432148 293.858971 
L 207.498418 295.001034 
L 207.564687 294.522613 
L 207.630957 294.952135 
L 207.697227 294.091055 
L 207.763496 294.918362 
L 207.829766 294.170757 
L 207.896035 295.005102 
L 208.028574 294.111908 
L 208.227383 294.606457 
L 208.293653 294.615212 
L 208.359922 295.295915 
L 208.426192 294.994998 
L 208.492461 294.095008 
L 208.558731 294.671421 
L 208.625 294.92953 
L 208.757539 293.55314 
L 208.823809 294.537966 
L 208.890078 294.462808 
L 208.956348 294.24045 
L 209.022618 294.888774 
L 209.088887 294.747044 
L 209.155157 294.63999 
L 209.420235 295.102785 
L 209.486504 294.532326 
L 209.619044 295.197308 
L 209.817852 294.392594 
L 209.950391 295.259203 
L 210.08293 294.600413 
L 210.1492 294.733687 
L 210.21547 294.637837 
L 210.281739 294.463999 
L 210.414278 295.286762 
L 210.480548 294.167583 
L 210.546817 294.84947 
L 210.613087 295.141833 
L 210.745626 294.679642 
L 210.811896 295.324024 
L 210.878165 295.093454 
L 210.944435 293.995549 
L 211.010704 294.55309 
L 211.076974 295.136191 
L 211.143243 294.446835 
L 211.209513 294.563234 
L 211.275782 295.404348 
L 211.342052 295.095797 
L 211.408322 295.461883 
L 211.474591 295.229002 
L 211.540861 295.024598 
L 211.60713 295.296139 
L 211.6734 295.21204 
L 211.739669 294.672029 
L 211.805939 294.950836 
L 211.872208 294.644972 
L 212.137287 295.19645 
L 212.269826 294.714724 
L 212.402365 295.40928 
L 212.468634 295.275647 
L 212.534904 294.777106 
L 212.601174 295.12654 
L 212.667443 294.490203 
L 212.733713 294.502134 
L 212.799982 294.637583 
L 212.866252 295.141099 
L 212.998791 294.00682 
L 213.263869 295.074569 
L 213.330139 295.055662 
L 213.396408 293.669732 
L 213.462678 294.171643 
L 213.528947 294.89463 
L 213.595217 294.572143 
L 213.727756 293.986478 
L 213.794025 294.974419 
L 213.860295 294.64246 
L 213.926565 293.843703 
L 213.992834 294.201326 
L 214.257912 294.804036 
L 214.324182 293.331711 
L 214.456721 295.082338 
L 214.522991 293.589929 
L 214.58926 293.86726 
L 214.65553 294.476258 
L 214.788069 292.067584 
L 214.854338 294.579224 
L 214.920608 293.898369 
L 214.986877 293.318127 
L 215.119417 294.340263 
L 215.185686 292.512013 
L 215.251956 294.959589 
L 215.384495 291.359627 
L 215.517034 293.894721 
L 215.583303 292.768366 
L 215.649573 293.080807 
L 215.715843 293.619485 
L 215.782112 293.183532 
L 215.848382 293.519682 
L 215.914651 292.899576 
L 215.980921 289.496324 
L 216.179729 294.263758 
L 216.312269 293.238549 
L 216.378538 293.039907 
L 216.444808 292.313773 
L 216.511077 292.794388 
L 216.643616 292.421936 
L 216.842425 293.516843 
L 216.908695 294.810537 
L 217.173773 290.556152 
L 217.240042 290.608567 
L 217.438851 291.675931 
L 217.505121 291.482062 
L 217.63766 289.393964 
L 217.703929 290.992479 
L 217.770199 285.153492 
L 217.836468 286.797732 
L 217.902738 286.594661 
L 218.035277 275.339231 
L 218.234086 292.624238 
L 218.300355 289.5783 
L 218.366625 292.274384 
L 218.565433 271.748279 
L 218.697972 283.16724 
L 218.764242 281.681579 
L 219.294398 293.153751 
L 219.426938 275.496326 
L 219.493207 282.986422 
L 219.559477 282.915756 
L 219.625746 278.794009 
L 219.758285 288.713315 
L 219.890824 277.953323 
L 220.089633 288.420747 
L 220.155903 292.297349 
L 220.222172 291.272416 
L 220.288442 291.958748 
L 220.354711 290.876579 
L 220.420981 293.776334 
L 220.48725 292.347724 
L 220.55352 293.833923 
L 220.61979 292.329459 
L 220.818598 294.903083 
L 220.951137 293.808734 
L 221.017407 294.879188 
L 221.083676 293.357246 
L 221.149946 295.231114 
L 221.216216 294.139433 
L 221.282485 294.319026 
L 221.348755 294.950943 
L 221.415024 294.606129 
L 221.613833 295.371849 
L 221.680102 295.112798 
L 221.746372 294.023639 
L 221.812642 294.74929 
L 221.878911 295.023119 
L 221.945181 294.773455 
L 222.01145 295.274481 
L 222.143989 294.456222 
L 222.210259 294.923592 
L 222.276528 294.46844 
L 222.475337 295.425498 
L 222.607876 293.472274 
L 222.674146 295.04738 
L 222.740415 294.648985 
L 222.806685 294.481685 
L 222.939224 294.890182 
L 223.005494 294.065579 
L 223.071763 294.377059 
L 223.204302 294.88181 
L 223.270572 293.841463 
L 223.336841 294.321315 
L 223.403111 295.441906 
L 223.46938 294.681265 
L 223.53565 294.825374 
L 223.60192 295.37791 
L 223.734459 294.186817 
L 223.866998 295.112141 
L 223.999537 294.695688 
L 224.132076 295.102473 
L 224.264615 294.755328 
L 224.330885 294.785759 
L 224.397154 294.909133 
L 224.463424 294.652746 
L 224.529693 295.20259 
L 224.595963 295.155886 
L 224.728502 294.984422 
L 224.794771 295.0991 
L 224.861041 294.562144 
L 224.927311 295.014219 
L 224.99358 294.788764 
L 225.126119 294.321738 
L 225.192389 294.723302 
L 225.324928 293.819928 
L 225.391197 295.2897 
L 225.457467 294.960969 
L 225.523737 294.288599 
L 225.590006 294.653448 
L 225.656276 295.389042 
L 225.788815 294.017406 
L 225.855084 295.089888 
L 225.921354 294.628137 
L 225.987623 294.677647 
L 226.120163 295.289321 
L 226.186432 294.482763 
L 226.252702 294.913914 
L 226.318971 295.246501 
L 226.385241 295.133531 
L 226.51778 294.548477 
L 226.584049 294.663806 
L 226.650319 295.083245 
L 226.716589 294.815209 
L 226.782858 294.644435 
L 226.915397 295.152253 
L 227.047936 294.51598 
L 227.180475 295.219875 
L 227.246745 294.609362 
L 227.313015 295.128366 
L 227.445554 294.276795 
L 227.776901 295.239337 
L 227.909441 294.336251 
L 228.04198 294.859945 
L 228.174519 294.278857 
L 228.240788 295.091714 
L 228.307058 294.761081 
L 228.439597 294.719695 
L 228.505867 294.561234 
L 228.704675 293.263051 
L 228.770945 293.846008 
L 228.837214 293.814388 
L 228.903484 293.54715 
L 228.969753 292.402243 
L 229.036023 292.60071 
L 229.102292 292.701121 
L 229.301101 294.750948 
L 229.367371 294.326985 
L 229.43364 293.474597 
L 229.49991 294.460128 
L 229.566179 291.8938 
L 229.632449 292.352892 
L 229.698718 293.260914 
L 229.831258 292.173239 
L 229.897527 294.35323 
L 230.030066 291.653099 
L 230.228875 294.237157 
L 230.427684 291.376644 
L 230.493953 293.788069 
L 230.560223 291.560278 
L 230.626492 292.524052 
L 230.692762 294.196251 
L 230.759031 291.81917 
L 230.825301 292.919592 
L 230.89157 292.509454 
L 230.95784 292.76683 
L 231.02411 293.438214 
L 231.156649 290.653435 
L 231.222918 291.621304 
L 231.289188 290.106885 
L 231.355457 291.289345 
L 231.421727 291.055706 
L 231.487996 291.388398 
L 231.620536 287.752939 
L 231.753075 290.953737 
L 231.885614 288.226784 
L 231.951883 293.706651 
L 232.084422 288.448935 
L 232.150692 290.110831 
L 232.349501 279.334614 
L 232.41577 278.078717 
L 232.48204 279.971573 
L 232.680848 290.541842 
L 232.747118 290.430563 
L 232.813388 292.564262 
L 232.879657 281.876749 
L 232.945927 290.693151 
L 233.012196 278.441154 
L 233.078466 285.262136 
L 233.211005 279.492501 
L 233.343544 287.899545 
L 233.409814 280.041552 
L 233.542353 292.631026 
L 233.608622 291.887793 
L 233.674892 291.777496 
L 233.807431 282.984829 
L 233.8737 290.263552 
L 233.93997 289.050627 
L 234.138779 278.083387 
L 234.205048 288.872642 
L 234.271318 287.686979 
L 234.337587 290.938836 
L 234.403857 289.198838 
L 234.470126 290.356749 
L 234.536396 281.592558 
L 234.735205 293.227006 
L 234.801474 290.03847 
L 234.867744 293.295875 
L 234.934013 292.000064 
L 235.066552 294.164967 
L 235.265361 293.004229 
L 235.331631 292.934981 
L 235.530439 295.007523 
L 235.596709 293.966537 
L 235.729248 295.293306 
L 235.861787 295.123735 
L 235.994326 294.513614 
L 236.126865 295.132154 
L 236.193135 294.979964 
L 236.259404 294.489453 
L 236.391943 295.186241 
L 236.458213 295.149992 
L 236.723291 294.213298 
L 236.85583 295.099119 
L 236.9221 295.062342 
L 236.988369 295.367326 
L 237.054639 294.508443 
L 237.120909 295.091629 
L 237.187178 295.091978 
L 237.385987 294.755672 
L 237.452256 294.873314 
L 237.518526 294.042647 
L 237.584795 294.445411 
L 237.651065 294.747732 
L 237.717335 294.693819 
L 237.849874 294.085254 
L 237.916143 294.95919 
L 238.048682 293.983868 
L 238.114952 293.858348 
L 238.181221 295.431487 
L 238.247491 294.858913 
L 238.313761 294.803695 
L 238.38003 294.564245 
L 238.4463 295.165517 
L 238.512569 294.298398 
L 238.645108 295.053794 
L 238.711378 294.475349 
L 238.843917 295.105325 
L 238.910186 294.847098 
L 238.976456 295.488 
L 239.042726 295.356152 
L 239.108995 294.96924 
L 239.175265 295.177812 
L 239.307804 295.125232 
L 239.374073 295.277496 
L 239.440343 295.171387 
L 239.506612 295.259031 
L 239.572882 294.560458 
L 239.639152 294.866559 
L 239.705421 295.046251 
L 239.771691 294.458283 
L 239.90423 295.142246 
L 239.970499 294.843709 
L 240.103038 295.380048 
L 240.169308 294.664365 
L 240.235578 295.124139 
L 240.301847 295.287284 
L 240.434386 295.096562 
L 240.500656 295.059511 
L 240.566925 294.674356 
L 240.633195 295.159816 
L 240.699464 295.031642 
L 240.765734 294.396753 
L 240.898273 295.005022 
L 240.964543 294.582869 
L 241.097082 295.011711 
L 241.29589 294.284055 
L 241.42843 295.044708 
L 241.560969 294.515205 
L 241.693508 295.411609 
L 241.759777 294.751508 
L 241.826047 294.78485 
L 241.892316 294.907715 
L 241.958586 294.351605 
L 242.024856 294.616476 
L 242.091125 294.783412 
L 242.289934 293.775053 
L 242.422473 294.763348 
L 242.488742 294.553815 
L 242.555012 294.529071 
L 242.687551 294.969441 
L 242.82009 293.77319 
L 242.88636 294.179027 
L 243.018899 293.214698 
L 243.085168 293.202822 
L 243.283977 292.660247 
L 243.549055 294.95451 
L 243.615325 294.948363 
L 243.814133 291.940251 
L 243.880403 293.410561 
L 244.012942 291.159403 
L 244.145481 294.072537 
L 244.211751 292.749342 
L 244.27802 293.609303 
L 244.34429 292.660321 
L 244.410559 289.829933 
L 244.476829 290.981079 
L 244.609368 291.667043 
L 244.675638 293.659691 
L 244.741907 293.375447 
L 244.808177 293.216687 
L 244.874446 293.751482 
L 244.940716 293.348263 
L 245.006985 293.416653 
L 245.073255 290.761208 
L 245.139525 293.754746 
L 245.205794 290.151639 
L 245.272064 291.80094 
L 245.338333 291.975736 
L 245.470872 293.027583 
L 245.537142 293.010828 
L 245.603411 290.74936 
L 245.669681 292.223293 
L 245.80222 287.813776 
L 245.934759 290.667289 
L 246.001029 290.823777 
L 246.067298 291.523395 
L 246.133568 293.995311 
L 246.199837 292.916113 
L 246.266107 288.567467 
L 246.332377 288.668841 
L 246.398646 293.906321 
L 246.464916 291.089046 
L 246.531185 291.032365 
L 246.597455 291.153566 
L 246.663724 281.045412 
L 246.729994 283.385154 
L 246.796263 287.584984 
L 246.995072 278.347728 
L 247.127611 290.318648 
L 247.193881 289.330974 
L 247.26015 289.161176 
L 247.32642 290.141885 
L 247.392689 294.031111 
L 247.458959 282.403432 
L 247.525229 293.769163 
L 247.657768 284.406046 
L 247.724037 285.606543 
L 247.790307 289.923653 
L 247.856576 288.928743 
L 247.922846 287.153554 
L 248.121655 293.178083 
L 248.254194 292.533694 
L 248.453002 281.376355 
L 248.585541 291.471553 
L 248.651811 285.713904 
L 248.71808 292.668001 
L 248.78435 290.774788 
L 248.85062 288.102186 
L 248.916889 293.83734 
L 248.983159 292.005416 
L 249.049428 281.746722 
L 249.115698 287.721556 
L 249.181967 288.515025 
L 249.314506 294.39813 
L 249.380776 290.944204 
L 249.513315 294.228066 
L 249.579585 292.114057 
L 249.645854 292.832942 
L 249.712124 292.112392 
L 249.778393 294.949691 
L 249.844663 293.456953 
L 249.910932 294.18799 
L 249.977202 293.423296 
L 250.043472 295.125903 
L 250.109741 293.475001 
L 250.176011 295.056622 
L 250.24228 294.721259 
L 250.374819 295.299817 
L 250.507358 294.951772 
L 250.573628 295.026006 
L 250.639898 294.627191 
L 250.706167 294.845051 
L 250.838706 295.397792 
L 250.904976 295.320273 
L 251.103784 294.063713 
L 251.170054 295.415791 
L 251.236324 294.912774 
L 251.302593 295.335919 
L 251.368863 295.224672 
L 251.435132 294.300359 
L 251.501402 294.345336 
L 251.76648 295.416353 
L 251.83275 294.48305 
L 251.899019 295.404939 
L 251.965289 294.835788 
L 252.031558 294.406134 
L 252.230367 295.224658 
L 252.296636 294.73205 
L 252.362906 295.123769 
L 252.429176 294.740016 
L 252.495445 294.923472 
L 252.561715 295.096053 
L 252.627984 294.368412 
L 252.694254 294.662141 
L 252.826793 294.750757 
L 252.893062 294.725127 
L 253.025602 295.196025 
L 253.091871 294.862352 
L 253.158141 294.962044 
L 253.22441 295.47337 
L 253.356949 294.767589 
L 253.423219 294.980148 
L 253.489488 294.817179 
L 253.622028 295.22543 
L 253.688297 295.025897 
L 253.754567 294.174018 
L 253.887106 294.977083 
L 253.953375 294.961936 
L 254.019645 295.176873 
L 254.085914 294.81123 
L 254.152184 294.958563 
L 254.218453 295.299889 
L 254.284723 295.267796 
L 254.350993 294.258697 
L 254.417262 294.591287 
L 254.483532 295.104456 
L 254.616071 294.34031 
L 254.68234 295.365967 
L 254.74861 294.832414 
L 254.881149 295.207746 
L 255.013688 294.612547 
L 255.079958 295.149383 
L 255.146227 295.136984 
L 255.212497 294.667066 
L 255.278766 294.983692 
L 255.345036 295.034524 
L 255.411305 294.547725 
L 255.610114 295.284103 
L 255.808923 294.729919 
L 256.007731 295.106247 
L 256.140271 294.394992 
L 256.20654 294.53852 
L 256.27281 295.185249 
L 256.339079 294.970852 
L 256.405349 294.993253 
L 256.471618 295.309808 
L 256.537888 294.916629 
L 256.604157 295.377481 
L 256.869236 293.552345 
L 256.935505 293.986543 
L 257.001775 294.063774 
L 257.068044 294.517512 
L 257.134314 292.997269 
L 257.200583 293.243918 
L 257.333123 294.5187 
L 257.399392 294.502426 
L 257.465662 294.362206 
L 257.531931 292.764157 
L 257.598201 294.82954 
L 257.66447 294.11858 
L 257.797009 293.473335 
L 257.929549 294.060079 
L 257.995818 292.637293 
L 258.062088 295.113798 
L 258.128357 294.472296 
L 258.327166 294.082506 
L 258.393435 291.887944 
L 258.459705 293.34772 
L 258.724783 294.584429 
L 258.923592 293.339002 
L 259.056131 294.151936 
L 259.25494 291.47379 
L 259.453748 294.868138 
L 259.520018 293.004304 
L 259.586287 294.420263 
L 259.718826 291.774202 
L 259.785096 291.788467 
L 259.851366 292.52093 
L 260.050174 290.768176 
L 260.116444 290.948518 
L 260.315252 292.915827 
L 260.381522 292.852171 
L 260.447792 290.781174 
L 260.514061 292.091574 
L 260.6466 293.937966 
L 260.779139 290.65826 
L 260.845409 294.362449 
L 260.911678 293.843168 
L 260.977948 295.002523 
L 261.110487 280.11191 
L 261.176757 281.061882 
L 261.309296 292.710158 
L 261.441835 284.91414 
L 261.508104 289.143457 
L 261.574374 291.031651 
L 261.640644 288.091273 
L 261.706913 292.814346 
L 261.773183 292.720652 
L 261.905722 287.775048 
L 261.971991 293.867461 
L 262.038261 286.110743 
L 262.10453 289.806042 
L 262.23707 284.487789 
L 262.502148 292.151404 
L 262.634687 293.60671 
L 262.700956 290.964148 
L 262.767226 293.327283 
L 262.966035 284.317255 
L 263.032304 277.682481 
L 263.231113 293.697723 
L 263.297382 287.374259 
L 263.363652 289.325282 
L 263.429922 286.224286 
L 263.562461 290.761369 
L 263.761269 289.037391 
L 263.827539 294.383366 
L 263.893808 290.218195 
L 263.960078 293.769737 
L 264.026347 293.237286 
L 264.291426 294.508909 
L 264.357695 293.772838 
L 264.423965 293.864556 
L 264.490234 294.010553 
L 264.556504 294.687461 
L 264.622773 294.570338 
L 264.887852 295.24861 
L 265.219199 294.203374 
L 265.285469 294.658315 
L 265.351739 294.281828 
L 265.550547 295.313749 
L 265.616817 294.96912 
L 265.683086 295.086213 
L 265.749356 295.027691 
L 265.815625 294.354897 
L 265.881895 295.196119 
L 265.948165 295.119617 
L 266.014434 295.001456 
L 266.146973 295.104296 
L 266.213243 294.253731 
L 266.279512 294.667003 
L 266.478321 294.403099 
L 266.544591 295.295173 
L 266.67713 294.534571 
L 266.743399 295.251432 
L 266.809669 294.80593 
L 266.875938 294.690681 
L 267.074747 295.335401 
L 267.141017 295.206088 
L 267.273556 294.712517 
L 267.339825 295.345057 
L 267.406095 295.093284 
L 267.538634 295.344589 
L 267.671173 295.066348 
L 267.803712 295.333877 
L 267.869982 294.781077 
L 267.936251 294.810615 
L 268.06879 295.37805 
L 268.13506 294.964679 
L 268.201329 295.320954 
L 268.267599 295.16125 
L 268.333869 294.926301 
L 268.400138 295.03902 
L 268.598947 295.287944 
L 268.665216 294.912189 
L 268.731486 295.099474 
L 268.797755 295.118138 
L 268.864025 295.341562 
L 268.930294 295.272466 
L 269.261642 294.293241 
L 269.327912 295.007694 
L 269.394181 294.084496 
L 269.460451 294.185829 
L 269.52672 294.635753 
L 269.65926 293.968864 
L 269.725529 295.325365 
L 269.791799 294.365744 
L 269.858068 294.979759 
L 270.123146 295.310242 
L 270.321955 294.664544 
L 270.454494 295.081791 
L 270.520764 295.109102 
L 270.719572 294.130221 
L 270.785842 294.683378 
L 270.852112 294.422367 
L 270.918381 293.720055 
L 270.984651 293.850902 
L 271.05092 294.612669 
L 271.11719 293.356597 
L 271.183459 293.461517 
L 271.448538 295.037496 
L 271.514807 294.740372 
L 271.779885 292.634439 
L 272.044964 294.607793 
L 272.111233 294.287279 
L 272.243772 295.217757 
L 272.376311 292.954554 
L 272.442581 293.999043 
L 272.50885 292.626963 
L 272.57512 292.727557 
L 272.64139 293.014706 
L 272.707659 294.038471 
L 272.773929 293.746921 
L 272.840198 293.705342 
L 272.906468 295.249086 
L 272.972737 294.559876 
L 273.171546 294.289775 
L 273.237816 292.687379 
L 273.304085 293.672244 
L 273.370355 293.497875 
L 273.436624 292.87917 
L 273.502894 294.660949 
L 273.569163 293.596695 
L 273.701702 291.955669 
L 273.767972 294.960386 
L 273.834241 293.143167 
L 273.900511 292.836281 
L 273.966781 290.680766 
L 274.03305 293.147015 
L 274.09932 292.703298 
L 274.165589 291.833148 
L 274.231859 292.819663 
L 274.430667 289.864421 
L 274.629476 292.420894 
L 274.695746 291.261045 
L 274.828285 292.540391 
L 274.894554 290.354286 
L 275.093363 294.064541 
L 275.225902 289.997431 
L 275.292172 293.885862 
L 275.358441 292.190858 
L 275.424711 292.725413 
L 275.55725 282.545857 
L 275.623519 284.070367 
L 275.756059 291.914238 
L 275.888598 287.35515 
L 276.021137 292.166644 
L 276.087406 287.931131 
L 276.153676 293.571129 
L 276.219945 292.602185 
L 276.286215 293.061732 
L 276.485024 286.961517 
L 276.551293 290.529165 
L 276.617563 284.944031 
L 276.683832 285.636502 
L 276.750102 285.73 
L 277.147719 295.271962 
L 277.213989 291.31374 
L 277.280258 294.948224 
L 277.346528 290.905667 
L 277.412797 293.035017 
L 277.479067 294.554361 
L 277.677876 283.810591 
L 277.744145 291.590426 
L 277.810415 290.744828 
L 277.876684 292.083178 
L 277.942954 290.361227 
L 278.075493 293.280009 
L 278.274302 287.166536 
L 278.47311 293.733477 
L 278.53938 293.61703 
L 278.738188 295.349821 
L 278.804458 293.763643 
L 278.870728 294.502699 
L 279.069536 295.211488 
L 279.135806 294.501398 
L 279.202075 295.065795 
L 279.268345 294.635067 
L 279.400884 295.278175 
L 279.533423 294.665959 
L 279.665962 295.444398 
L 279.864771 294.965225 
L 279.99731 295.409062 
L 280.06358 294.767119 
L 280.129849 295.090258 
L 280.262388 295.440414 
L 280.328658 294.349605 
L 280.394927 295.293877 
L 280.461197 295.192143 
L 280.527466 295.333263 
L 280.593736 294.941771 
L 280.660006 295.226908 
L 280.726275 295.038667 
L 280.792545 294.307412 
L 280.858814 294.681923 
L 280.991353 294.740395 
L 281.057623 295.105293 
L 281.123892 294.976201 
L 281.190162 294.790211 
L 281.256432 295.121331 
L 281.322701 294.893225 
L 281.388971 294.881203 
L 281.45524 294.636121 
L 281.52151 295.124792 
L 281.587779 295.01036 
L 281.654049 295.174802 
L 281.720318 294.859456 
L 281.786588 294.938061 
L 281.852858 295.092605 
L 281.919127 294.852515 
L 281.985397 295.167213 
L 282.051666 295.08794 
L 282.117936 294.862927 
L 282.184205 294.978472 
L 282.250475 295.312624 
L 282.383014 294.888176 
L 282.449284 295.283336 
L 282.581823 294.464856 
L 282.648092 294.547852 
L 282.714362 295.16169 
L 282.780631 294.796414 
L 282.846901 294.780459 
L 282.91317 295.327234 
L 282.97944 294.76319 
L 283.04571 294.904139 
L 283.111979 295.218101 
L 283.244518 294.696695 
L 283.377057 295.299928 
L 283.443327 295.202919 
L 283.509596 295.031871 
L 283.575866 295.277543 
L 283.774675 294.149218 
L 283.907214 295.029776 
L 284.106022 294.833307 
L 284.172292 293.981809 
L 284.371101 295.246375 
L 284.43737 294.96682 
L 284.50364 295.117434 
L 284.569909 295.041767 
L 284.702448 294.683568 
L 284.834987 294.998549 
L 284.901257 294.081664 
L 284.967527 295.260369 
L 285.033796 295.08649 
L 285.100066 294.766931 
L 285.166335 294.933706 
L 285.232605 294.846546 
L 285.298874 295.440409 
L 285.365144 294.242405 
L 285.431413 294.645095 
L 285.563953 293.38185 
L 285.630222 294.61621 
L 285.762761 293.586728 
L 286.027839 294.533397 
L 286.226648 294.392458 
L 286.292918 294.687712 
L 286.359187 293.524433 
L 286.425457 294.382688 
L 286.491726 294.025279 
L 286.690535 295.229614 
L 286.823074 293.906951 
L 286.889344 294.522873 
L 286.955613 293.331266 
L 287.021883 293.583034 
L 287.088152 293.471703 
L 287.154422 295.009827 
L 287.220691 293.786845 
L 287.286961 294.117111 
L 287.353231 295.361664 
L 287.4195 294.742485 
L 287.48577 294.310333 
L 287.552039 295.185112 
L 287.684578 293.251501 
L 287.750848 294.08491 
L 287.817117 293.241395 
L 287.883387 293.80067 
L 288.015926 294.867617 
L 288.148465 292.959645 
L 288.214735 295.116088 
L 288.281004 293.929153 
L 288.347274 292.675906 
L 288.413543 292.9208 
L 288.479813 292.989759 
L 288.546083 294.199992 
L 288.612352 291.685991 
L 288.678622 293.442336 
L 288.744891 292.312767 
L 288.87743 292.320257 
L 289.009969 292.685982 
L 289.076239 292.26076 
L 289.142508 292.288048 
L 289.275048 294.06004 
L 289.341317 292.871161 
L 289.407587 293.448912 
L 289.540126 294.475945 
L 289.606395 290.766916 
L 289.672665 291.817711 
L 289.738934 294.266809 
L 290.004013 282.554972 
L 290.202821 294.301322 
L 290.33536 287.593149 
L 290.40163 291.41885 
L 290.4679 289.075152 
L 290.534169 290.096397 
L 290.600439 294.892268 
L 290.666708 290.102979 
L 290.732978 292.490181 
L 290.799247 291.613208 
L 290.865517 292.424189 
L 291.064326 285.244138 
L 291.130595 288.26156 
L 291.196865 287.977635 
L 291.461943 292.614973 
L 291.528212 292.518078 
L 291.594482 292.609905 
L 291.660752 293.094097 
L 291.727021 292.372854 
L 291.793291 293.424709 
L 291.85956 292.622857 
L 291.992099 289.66805 
L 292.124638 291.14606 
L 292.190908 286.738914 
L 292.257178 292.598302 
L 292.323447 287.893561 
L 292.389717 289.226477 
L 292.455986 287.233796 
L 292.588525 291.284593 
L 292.654795 290.316928 
L 292.721064 291.248415 
L 292.853604 289.801328 
L 292.919873 286.951312 
L 293.118682 293.959897 
L 293.184951 292.915161 
L 293.251221 293.559251 
L 293.31749 292.954001 
L 293.582569 295.157998 
L 293.715108 295.010304 
L 293.781377 294.347757 
L 293.847647 295.26354 
L 293.913916 294.738289 
L 293.980186 294.194094 
L 294.046455 294.425212 
L 294.112725 295.173194 
L 294.178995 294.973759 
L 294.311534 295.334892 
L 294.444073 294.971063 
L 294.510342 295.303759 
L 294.576612 295.178485 
L 294.642881 294.543847 
L 294.709151 294.805854 
L 294.775421 295.014978 
L 294.84169 294.494242 
L 294.974229 295.32794 
L 295.040499 294.590253 
L 295.106768 294.73311 
L 295.173038 295.112802 
L 295.239307 294.817184 
L 295.305577 295.039228 
L 295.438116 294.51237 
L 295.504386 295.213458 
L 295.570655 295.034874 
L 295.636925 294.971635 
L 295.703194 295.106172 
L 295.835733 294.773789 
L 295.968273 295.327221 
L 296.034542 294.768974 
L 296.100812 295.277361 
L 296.167081 295.236238 
L 296.233351 295.333678 
L 296.29962 295.193504 
L 296.432159 295.339732 
L 296.498429 294.894365 
L 296.564699 295.084471 
L 296.630968 294.943948 
L 296.697238 295.100569 
L 296.763507 294.74243 
L 296.829777 295.128225 
L 296.896046 295.009556 
L 296.962316 294.625414 
L 297.028585 294.708797 
L 297.161125 295.423246 
L 297.227394 295.173236 
L 297.426203 294.976378 
L 297.492472 295.301351 
L 297.558742 295.237141 
L 297.625011 294.930266 
L 297.691281 295.292713 
L 297.757551 295.069242 
L 297.82382 294.951964 
L 297.89009 295.295757 
L 297.956359 294.874544 
L 298.022629 294.956795 
L 298.088898 294.843864 
L 298.155168 295.105996 
L 298.221437 294.604918 
L 298.287707 294.642546 
L 298.353977 295.297224 
L 298.420246 295.277377 
L 298.486516 294.832699 
L 298.619055 295.292478 
L 298.685324 294.86533 
L 298.817863 295.20864 
L 298.884133 294.846012 
L 298.950402 295.379744 
L 299.082942 294.745813 
L 299.149211 294.998879 
L 299.28175 294.297362 
L 299.34802 294.193604 
L 299.414289 295.22865 
L 299.480559 294.474676 
L 299.546828 294.552712 
L 299.679368 294.72072 
L 299.811907 294.603122 
L 299.878176 294.653126 
L 299.944446 293.761686 
L 300.010715 294.143198 
L 300.209524 294.238469 
L 300.275794 294.66725 
L 300.342063 294.522952 
L 300.408333 294.421089 
L 300.474602 293.564516 
L 300.673411 295.141251 
L 301.004759 294.12867 
L 301.071028 294.403826 
L 301.203567 293.622894 
L 301.269837 295.058175 
L 301.336106 294.456312 
L 301.402376 293.987395 
L 301.468646 294.076713 
L 301.534915 294.650056 
L 301.667454 293.217125 
L 301.799993 294.913805 
L 301.866263 294.642064 
L 301.932532 293.479538 
L 301.998802 295.243524 
L 302.065072 293.901738 
L 302.131341 294.072663 
L 302.197611 294.451824 
L 302.33015 293.262014 
L 302.462689 295.017127 
L 302.595228 292.525582 
L 302.661498 293.364765 
L 302.727767 293.349904 
L 302.794037 291.676323 
L 302.860306 294.22955 
L 302.926576 292.190971 
L 302.992845 292.818464 
L 303.059115 291.987191 
L 303.125384 292.850963 
L 303.191654 292.593381 
L 303.324193 291.882932 
L 303.655541 294.601267 
L 303.72181 294.143046 
L 303.920619 293.250969 
L 303.986889 294.007562 
L 304.053158 288.446222 
L 304.119428 292.519997 
L 304.185697 292.288494 
L 304.450775 284.185164 
L 304.583315 294.017607 
L 304.649584 293.981977 
L 304.715854 290.356024 
L 304.782123 291.98657 
L 304.914662 290.367164 
L 305.047201 291.205226 
L 305.113471 289.212541 
L 305.179741 293.50884 
L 305.24601 291.751843 
L 305.31228 291.765107 
L 305.378549 292.873036 
L 305.511088 290.496071 
L 305.577358 289.925274 
L 305.643627 288.181039 
L 305.709897 288.569669 
L 306.041245 294.399887 
L 306.107514 293.534873 
L 306.173784 292.638603 
L 306.240053 293.950138 
L 306.306323 293.210648 
L 306.438862 288.961511 
L 306.505132 290.017313 
L 306.571401 290.071921 
L 306.637671 293.150279 
L 306.70394 291.110303 
L 306.836479 293.501537 
L 306.969019 289.515638 
L 307.101558 292.602291 
L 307.167827 290.21831 
L 307.234097 292.081252 
L 307.300366 290.822884 
L 307.366636 291.05055 
L 307.432905 289.32259 
L 307.499175 291.152787 
L 307.565445 290.32856 
L 307.764253 294.771033 
L 307.830523 292.019806 
L 307.896792 295.246844 
L 307.963062 293.264212 
L 308.029331 294.951117 
L 308.095601 294.204244 
L 308.22814 295.172335 
L 308.29441 294.890065 
L 308.360679 295.25847 
L 308.426949 294.924306 
L 308.493218 295.124612 
L 308.559488 295.419528 
L 308.625757 294.688637 
L 308.692027 295.148813 
L 308.890836 294.891081 
L 308.957105 295.283476 
L 309.023375 294.949687 
L 309.089644 295.169603 
L 309.155914 294.898058 
L 309.222183 295.04479 
L 309.288453 295.092481 
L 309.354722 294.543882 
L 309.420992 294.803724 
L 309.487262 294.42376 
L 309.68607 295.02664 
L 309.75234 295.261602 
L 309.884879 294.617902 
L 309.951148 295.234206 
L 310.017418 295.145378 
L 310.083688 294.777853 
L 310.149957 295.021727 
L 310.216227 295.28405 
L 310.415035 294.660196 
L 310.481305 295.213199 
L 310.547574 295.14462 
L 310.613844 294.791169 
L 310.680114 295.220679 
L 310.746383 294.794537 
L 310.878922 295.407654 
L 311.011461 294.763936 
L 311.077731 294.876205 
L 311.144 294.723788 
L 311.342809 295.3471 
L 311.475348 294.798891 
L 311.541618 295.284768 
L 311.607887 295.142588 
L 311.740426 294.989456 
L 311.806696 294.657644 
L 311.939235 295.327272 
L 312.005505 295.183916 
L 312.138044 294.741788 
L 312.270583 295.454524 
L 312.336852 295.280064 
L 312.403122 295.004764 
L 312.469392 295.170167 
L 312.535661 295.169925 
L 312.601931 295.294345 
L 312.6682 294.942231 
L 312.73447 295.185803 
L 312.800739 295.086196 
L 312.867009 295.41775 
L 312.933278 294.906596 
L 312.999548 295.022517 
L 313.065818 295.043195 
L 313.132087 295.306153 
L 313.198357 295.16074 
L 313.264626 295.181885 
L 313.463435 294.399757 
L 313.595974 294.579077 
L 313.728513 294.049319 
L 313.794783 294.615612 
L 313.927322 293.92865 
L 314.12613 295.151159 
L 314.324939 293.725486 
L 314.391209 294.032078 
L 314.457478 294.901364 
L 314.523748 294.444754 
L 314.722556 294.855133 
L 314.788826 294.59278 
L 314.921365 295.287969 
L 314.987635 295.040542 
L 315.053904 295.136487 
L 315.120174 294.10691 
L 315.186443 294.332256 
L 315.252713 294.825158 
L 315.318982 294.064331 
L 315.385252 294.077788 
L 315.451521 293.927847 
L 315.517791 294.998021 
L 315.65033 294.125781 
L 315.7166 295.19583 
L 315.782869 294.061675 
L 315.849139 294.287715 
L 315.915408 294.393133 
L 315.981678 294.794588 
L 316.047947 294.640888 
L 316.114217 294.531789 
L 316.180487 295.291454 
L 316.246756 295.120058 
L 316.379295 294.059817 
L 316.445565 295.152603 
L 316.511834 293.746064 
L 316.578104 294.250654 
L 316.776913 292.947089 
L 316.909452 294.563912 
L 316.975721 292.193453 
L 317.041991 293.354324 
L 317.10826 293.177747 
L 317.17453 293.957708 
L 317.240799 291.841498 
L 317.307069 293.78832 
L 317.373339 291.508235 
L 317.439608 291.641769 
L 317.505878 292.616618 
L 317.572147 291.973198 
L 317.638417 292.619098 
L 317.704686 291.866265 
L 317.969765 294.090555 
L 318.036034 293.702881 
L 318.102304 293.894411 
L 318.168573 294.330926 
L 318.234843 293.870969 
L 318.301112 292.543611 
L 318.367382 293.014851 
L 318.433651 294.161793 
L 318.499921 290.280783 
L 318.566191 293.230084 
L 318.69873 287.147435 
L 318.764999 287.373414 
L 318.831269 286.756825 
L 318.897538 284.932415 
L 319.030077 292.953878 
L 319.096347 293.267159 
L 319.162616 292.938838 
L 319.228886 294.24477 
L 319.361425 291.055353 
L 319.427695 291.353963 
L 319.493964 288.69615 
L 319.626503 293.345796 
L 319.692773 292.01578 
L 319.825312 294.006234 
L 320.024121 288.461197 
L 320.09039 289.47459 
L 320.15666 288.16386 
L 320.222929 290.420163 
L 320.289199 287.817681 
L 320.488008 293.847796 
L 320.620547 293.430423 
L 320.686816 292.31389 
L 320.819355 293.735495 
L 320.885625 293.042554 
L 320.951894 290.17095 
L 321.018164 294.938971 
L 321.084434 293.950379 
L 321.216973 285.916686 
L 321.283242 294.178628 
L 321.349512 291.460386 
L 321.415781 289.452626 
L 321.61459 292.238504 
L 321.68086 291.571204 
L 321.747129 294.153328 
L 321.813399 292.444996 
L 321.945938 294.197437 
L 322.211016 289.363089 
L 322.409825 294.266776 
L 322.542364 295.104402 
L 322.608633 294.667817 
L 322.674903 294.733622 
L 322.741172 294.93478 
L 322.807442 294.66324 
L 322.939981 295.176131 
L 323.006251 294.899116 
L 323.07252 295.121304 
L 323.13879 295.053429 
L 323.205059 295.079569 
L 323.403868 295.337011 
L 323.668946 294.646801 
L 323.735216 295.161774 
L 323.801485 295.036139 
L 323.867755 295.025242 
L 323.934024 294.509134 
L 324.132833 295.258288 
L 324.199103 294.78179 
L 324.265372 294.882254 
L 324.464181 295.066823 
L 324.53045 294.920438 
L 324.59672 295.320921 
L 324.662989 295.143126 
L 324.729259 294.910403 
L 324.795529 295.460362 
L 324.861798 295.179961 
L 324.928068 294.951503 
L 325.060607 295.260799 
L 325.193146 294.872111 
L 325.259415 295.310524 
L 325.325685 295.2156 
L 325.391955 294.631859 
L 325.458224 294.89409 
L 325.524494 294.958823 
L 325.590763 294.807274 
L 325.657033 295.145742 
L 325.723302 295.125236 
L 325.855841 294.902693 
L 325.988381 295.456877 
L 326.187189 294.812424 
L 326.253459 294.62796 
L 326.385998 295.313167 
L 326.452267 295.181219 
L 326.518537 295.264409 
L 326.584807 295.292263 
L 326.651076 294.74011 
L 326.783615 295.392977 
L 326.982424 294.824035 
L 327.247502 295.401677 
L 327.380041 294.978664 
L 327.446311 295.202737 
L 327.51258 294.474152 
L 327.57885 294.711458 
L 327.645119 294.860301 
L 327.711389 293.795952 
L 327.777659 294.223694 
L 327.843928 294.739323 
L 327.910198 294.491626 
L 328.042737 294.981589 
L 328.175276 294.411777 
L 328.241545 295.122764 
L 328.307815 294.115966 
L 328.374085 294.604147 
L 328.506624 294.888155 
L 328.639163 294.39302 
L 328.705432 294.6847 
L 328.771702 294.163016 
L 328.904241 295.028813 
L 328.97051 294.726178 
L 329.301858 295.20743 
L 329.500667 294.489334 
L 329.566936 293.901411 
L 329.633206 294.569112 
L 329.699476 294.387692 
L 329.765745 293.426367 
L 329.898284 294.857297 
L 329.964554 294.733641 
L 330.030823 294.202895 
L 330.163362 295.136981 
L 330.362171 294.466722 
L 330.428441 294.682895 
L 330.49471 294.352748 
L 330.56098 295.079965 
L 330.627249 295.03251 
L 330.693519 294.772583 
L 330.759788 293.767293 
L 330.826058 294.15627 
L 330.892328 294.666853 
L 330.958597 293.582006 
L 331.024867 294.167157 
L 331.157406 293.234091 
L 331.223675 293.198349 
L 331.289945 294.064295 
L 331.356214 293.840633 
L 331.422484 292.545544 
L 331.488754 294.197252 
L 331.687562 292.162496 
L 331.753832 292.378068 
L 331.820101 292.987024 
L 331.886371 292.064321 
L 331.95264 293.818177 
L 332.01891 292.804526 
L 332.08518 294.021675 
L 332.151449 293.236723 
L 332.350258 294.692072 
L 332.416527 294.342849 
L 332.482797 294.453034 
L 332.615336 294.961944 
L 332.747875 292.415427 
L 332.814145 294.0858 
L 332.880414 294.056343 
L 332.946684 293.312815 
L 333.012953 294.663126 
L 333.079223 284.23302 
L 333.145492 285.776343 
L 333.211762 288.614262 
L 333.278032 285.278429 
L 333.47684 291.703006 
L 333.675649 295.166173 
L 333.808188 292.112392 
L 333.874457 293.017766 
L 333.940727 291.445746 
L 334.006997 293.518011 
L 334.073266 292.781084 
L 334.139536 292.078627 
L 334.205805 292.326218 
L 334.272075 293.065727 
L 334.338344 290.117805 
L 334.404614 293.42969 
L 334.470883 290.839957 
L 334.537153 293.144834 
L 334.603423 290.74581 
L 334.669692 292.06047 
L 334.868501 291.340619 
L 335.00104 293.628888 
L 335.067309 293.073212 
L 335.133579 293.854697 
L 335.199849 292.968338 
L 335.398657 294.391182 
L 335.464927 292.787768 
L 335.531196 295.07451 
L 335.597466 294.144754 
L 335.796275 289.702119 
L 335.862544 290.947727 
L 335.995083 292.458549 
L 336.061353 291.236674 
L 336.260161 295.135638 
L 336.326431 292.746421 
L 336.392701 294.010307 
L 336.45897 292.928709 
L 336.52524 294.04779 
L 336.724048 288.025929 
L 336.989127 295.321001 
L 337.055396 294.908557 
L 337.121666 295.043418 
L 337.187935 295.036986 
L 337.254205 294.261096 
L 337.320474 294.620822 
L 337.386744 295.054503 
L 337.453013 294.983476 
L 337.519283 294.652283 
L 337.585553 294.888448 
L 337.651822 294.852117 
L 337.718092 294.892427 
L 337.784361 295.326634 
L 337.850631 294.628576 
L 337.9169 295.351475 
L 337.98317 295.078607 
L 338.049439 294.692326 
L 338.115709 294.780143 
L 338.248248 295.261354 
L 338.380787 294.689456 
L 338.447057 294.764772 
L 338.513326 295.371218 
L 338.579596 295.122889 
L 338.645865 295.034217 
L 338.712135 294.691617 
L 338.910944 295.30427 
L 338.977213 294.586615 
L 339.043483 294.813782 
L 339.109752 294.697539 
L 339.176022 295.393307 
L 339.242291 294.975988 
L 339.308561 295.339796 
L 339.37483 294.820493 
L 339.4411 295.258221 
L 339.50737 295.151187 
L 339.639909 294.759371 
L 339.706178 295.388119 
L 339.772448 295.2885 
L 339.838717 294.852014 
L 339.904987 295.321893 
L 339.971256 295.11835 
L 340.170065 295.312757 
L 340.236335 294.915515 
L 340.368874 295.398709 
L 340.567682 294.803431 
L 340.633952 294.964043 
L 340.700222 294.978223 
L 340.89903 295.424307 
L 340.9653 294.914873 
L 341.031569 294.98536 
L 341.164108 295.442604 
L 341.230378 295.230329 
L 341.362917 295.11849 
L 341.429187 295.408178 
L 341.561726 294.598886 
L 341.627995 295.225024 
L 341.694265 295.074687 
L 341.760534 294.979215 
L 341.826804 295.253887 
L 341.893074 294.776772 
L 341.959343 295.057694 
L 342.091882 294.933765 
L 342.158152 294.264478 
L 342.224421 294.731971 
L 342.35696 294.269069 
L 342.42323 294.717005 
L 342.4895 294.68804 
L 342.555769 294.082892 
L 342.688308 295.110254 
L 342.754578 294.484033 
L 342.820847 294.740185 
L 343.019656 294.211214 
L 343.085926 294.918182 
L 343.152195 294.250255 
L 343.351004 295.246847 
L 343.483543 295.337602 
L 343.549812 295.003859 
L 343.616082 295.180779 
L 343.682352 295.137057 
L 343.814891 294.150672 
L 343.88116 294.697986 
L 344.013699 293.891821 
L 344.079969 294.855526 
L 344.146238 294.711821 
L 344.212508 294.350174 
L 344.278777 294.522652 
L 344.345047 294.93214 
L 344.411317 294.669352 
L 344.477586 294.429264 
L 344.610125 295.373794 
L 344.676395 295.077506 
L 344.742664 294.993742 
L 344.808934 294.356442 
L 344.875203 294.634684 
L 345.007743 294.957226 
L 345.206551 293.95684 
L 345.272821 294.578338 
L 345.33909 294.448183 
L 345.40536 293.596336 
L 345.471629 294.439786 
L 345.604169 293.098617 
L 345.670438 293.322687 
L 345.736708 294.791153 
L 345.802977 292.718354 
L 345.869247 293.08201 
L 346.001786 294.179175 
L 346.068055 293.148887 
L 346.134325 294.159714 
L 346.200595 292.975364 
L 346.266864 294.49495 
L 346.333134 292.782343 
L 346.399403 294.672442 
L 346.465673 293.577147 
L 346.531942 294.526775 
L 346.664481 293.53816 
L 346.797021 294.767759 
L 346.86329 293.874453 
L 346.92956 294.060466 
L 347.062099 295.126241 
L 347.194638 292.078868 
L 347.260907 294.457877 
L 347.327177 293.403954 
L 347.393447 293.240817 
L 347.459716 292.178926 
L 347.525986 286.653966 
L 347.592255 287.714804 
L 347.791064 292.342719 
L 347.857333 292.03042 
L 347.923603 292.060503 
L 347.989873 294.376008 
L 348.056142 294.141271 
L 348.122412 293.881822 
L 348.38749 289.616829 
L 348.453759 293.741255 
L 348.520029 291.829553 
L 348.586299 293.8246 
L 348.652568 293.74424 
L 348.785107 291.304746 
L 348.851377 294.651496 
L 348.917646 292.017262 
L 348.983916 292.863594 
L 349.116455 290.445048 
L 349.248994 292.882924 
L 349.315264 290.976972 
L 349.381533 291.192566 
L 349.580342 293.687775 
L 349.646611 293.422358 
L 349.712881 293.981928 
L 349.77915 293.817087 
L 349.91169 293.401457 
L 349.977959 291.989785 
L 350.044229 294.374073 
L 350.110498 294.085849 
L 350.176768 293.456986 
L 350.243037 291.176378 
L 350.309307 293.47422 
L 350.375576 290.373321 
L 350.441846 291.895168 
L 350.508116 291.561385 
L 350.574385 289.719377 
L 350.640655 294.278045 
L 350.706924 291.342236 
L 350.773194 295.202512 
L 350.839463 292.383911 
L 350.905733 294.464198 
L 350.972002 293.884337 
L 351.038272 293.322803 
L 351.104542 293.430959 
L 351.170811 295.23354 
L 351.30335 291.245945 
L 351.36962 291.674444 
L 351.700968 295.088228 
L 351.833507 294.881649 
L 351.899776 294.783195 
L 352.231124 295.426283 
L 352.363663 294.967043 
L 352.562472 295.323585 
L 352.628741 295.083444 
L 352.695011 295.476375 
L 352.82755 294.65166 
L 352.89382 294.787747 
L 353.026359 295.268429 
L 353.092628 294.559124 
L 353.158898 294.80518 
L 353.225167 295.225242 
L 353.357706 294.666294 
L 353.490246 295.381369 
L 353.556515 295.049637 
L 353.622785 295.217474 
L 353.755324 294.802482 
L 353.954132 294.989369 
L 354.020402 294.951418 
L 354.152941 295.336066 
L 354.219211 295.064808 
L 354.28548 295.111987 
L 354.484289 295.409327 
L 354.749367 295.229699 
L 354.815637 295.441925 
L 354.881906 295.375829 
L 354.948176 295.458442 
L 355.080715 294.826636 
L 355.279523 295.330896 
L 355.345793 295.074976 
L 355.412063 295.410556 
L 355.478332 295.377799 
L 355.544602 295.013652 
L 355.610871 295.310236 
L 355.677141 295.240124 
L 355.80968 295.18638 
L 355.875949 295.163311 
L 355.942219 294.692505 
L 356.008489 295.037682 
L 356.074758 294.915032 
L 356.339836 294.345393 
L 356.472375 294.737547 
L 356.538645 294.771597 
L 356.604915 295.298856 
L 356.671184 295.134901 
L 356.737454 294.933937 
L 356.803723 295.218937 
L 356.869993 294.575035 
L 356.936262 294.743515 
L 357.002532 294.836502 
L 357.068801 295.234674 
L 357.135071 294.804944 
L 357.201341 295.065036 
L 357.33388 295.181845 
L 357.400149 295.054323 
L 357.466419 295.290745 
L 357.532688 294.845151 
L 357.598958 294.981448 
L 357.665227 295.311264 
L 357.731497 294.887043 
L 357.864036 295.36702 
L 357.996575 294.885815 
L 358.062845 294.482379 
L 358.129114 294.905206 
L 358.261653 294.288679 
L 358.327923 294.594054 
L 358.394193 294.321599 
L 358.460462 294.499871 
L 358.593001 295.093892 
L 358.659271 295.059547 
L 358.72554 294.64436 
L 358.79181 295.226105 
L 358.858079 294.653703 
L 358.924349 294.824527 
L 359.056888 295.368205 
L 359.189427 294.725657 
L 359.255697 294.852693 
L 359.321966 295.02172 
L 359.388236 294.75299 
L 359.454505 295.062375 
L 359.653314 293.85997 
L 359.719584 294.288302 
L 359.785853 294.059392 
L 359.918392 294.254845 
L 360.050931 293.588898 
L 360.18347 294.581541 
L 360.24974 293.23131 
L 360.31601 293.78795 
L 360.448549 294.409531 
L 360.514818 293.544342 
L 360.581088 295.028231 
L 360.779896 293.140375 
L 360.846166 294.362076 
L 360.912436 293.57404 
L 361.044975 294.374476 
L 361.111244 294.430274 
L 361.177514 294.002977 
L 361.243783 294.436559 
L 361.376322 293.875112 
L 361.442592 294.014746 
L 361.508862 295.408422 
L 361.641401 291.232381 
L 361.70767 294.752106 
L 361.77394 293.837525 
L 361.840209 294.639445 
L 361.972748 290.635916 
L 362.039018 291.23373 
L 362.105288 292.257029 
L 362.171557 292.040061 
L 362.237827 291.773825 
L 362.304096 290.88933 
L 362.569174 294.226603 
L 362.701714 294.227752 
L 362.834253 291.20626 
L 363.033061 294.184093 
L 363.099331 292.979547 
L 363.1656 293.601903 
L 363.23187 293.725212 
L 363.29814 294.89307 
L 363.364409 293.008269 
L 363.430679 295.010585 
L 363.496948 291.379314 
L 363.563218 291.680971 
L 363.762026 292.581178 
L 363.828296 291.446961 
L 364.027105 294.014746 
L 364.292183 294.519361 
L 364.490991 293.306627 
L 364.623531 294.031639 
L 364.75607 292.722733 
L 364.954878 294.603907 
L 365.021148 292.633867 
L 365.087417 293.526754 
L 365.286226 294.833042 
L 365.352496 293.715141 
L 365.418765 294.741069 
L 365.617574 293.14354 
L 365.683843 292.797132 
L 365.750113 294.87877 
L 365.816383 294.65222 
L 365.948922 292.616167 
L 366.214 294.865958 
L 366.280269 294.815006 
L 366.479078 295.210695 
L 366.545348 294.944508 
L 366.611617 295.419195 
L 366.677887 295.4058 
L 366.942965 294.892312 
L 367.075504 295.336453 
L 367.406852 294.933458 
L 367.473121 295.316536 
L 367.539391 295.000569 
L 367.605661 295.130334 
L 367.67193 295.438652 
L 367.804469 295.142209 
L 368.003278 295.438802 
L 368.202087 294.673894 
L 368.268356 295.295899 
L 368.334626 294.779345 
L 368.400895 294.924336 
L 368.467165 295.292593 
L 368.533434 295.141813 
L 368.732243 295.372447 
L 368.864782 295.226324 
L 368.997321 295.367948 
L 369.262399 295.379379 
L 369.394938 295.17162 
L 369.527478 295.265362 
L 369.726286 295.384756 
L 369.925095 294.847368 
L 369.991364 295.097603 
L 370.057634 295.033904 
L 370.256443 295.244474 
L 370.322712 294.957414 
L 370.388982 295.012088 
L 370.455251 295.217999 
L 370.521521 295.066155 
L 370.58779 294.803523 
L 370.65406 295.089604 
L 370.72033 294.76559 
L 370.786599 294.862079 
L 370.852869 294.71874 
L 370.919138 294.786142 
L 370.985408 294.815458 
L 371.051677 295.127855 
L 371.117947 294.577076 
L 371.250486 295.317855 
L 371.383025 295.033268 
L 371.449295 295.013768 
L 371.515564 294.629209 
L 371.581834 295.003602 
L 371.648103 294.876299 
L 371.780642 295.180892 
L 371.913182 295.147637 
L 371.979451 295.403442 
L 372.11199 294.682638 
L 372.244529 295.409957 
L 372.377068 295.047056 
L 372.443338 295.171049 
L 372.509608 294.735932 
L 372.575877 294.828954 
L 372.840955 294.374665 
L 372.973494 295.182618 
L 373.039764 294.878351 
L 373.106034 295.22836 
L 373.172303 295.03485 
L 373.304842 295.197509 
L 373.371112 294.946974 
L 373.437381 295.288849 
L 373.503651 295.210585 
L 373.63619 294.57048 
L 373.70246 295.454875 
L 373.768729 294.855643 
L 373.834999 294.577332 
L 373.901268 294.622148 
L 373.967538 295.054203 
L 374.100077 294.014378 
L 374.166346 294.02475 
L 374.232616 293.914669 
L 374.365155 294.386018 
L 374.431425 294.32665 
L 374.497694 293.96843 
L 374.563964 294.593978 
L 374.630233 294.45744 
L 374.696503 293.696252 
L 374.762772 294.213722 
L 374.895311 294.556028 
L 374.961581 294.09206 
L 375.027851 295.137037 
L 375.226659 293.887372 
L 375.292929 294.308501 
L 375.359198 294.193596 
L 375.491737 294.365058 
L 375.558007 293.834701 
L 375.624277 294.130853 
L 375.690546 294.660888 
L 375.756816 294.088311 
L 375.823085 294.415557 
L 375.955624 295.150017 
L 376.021894 293.094154 
L 376.088163 293.119044 
L 376.154433 295.055476 
L 376.220703 293.625654 
L 376.286972 294.709055 
L 376.419511 288.918062 
L 376.61832 293.956869 
L 376.750859 291.234689 
L 376.817129 292.14863 
L 377.082207 294.942827 
L 377.214746 291.542179 
L 377.281015 292.439636 
L 377.479824 294.81492 
L 377.546094 292.69447 
L 377.612363 294.316058 
L 377.678633 294.293503 
L 377.744902 294.202445 
L 377.811172 293.628189 
L 377.877441 294.750632 
L 378.07625 292.716998 
L 378.14252 292.551098 
L 378.208789 292.857751 
L 378.275059 291.910254 
L 378.341328 292.050489 
L 378.407598 293.863586 
L 378.473867 293.720113 
L 378.738946 294.736012 
L 378.937754 293.4595 
L 379.004024 293.901115 
L 379.070293 293.790631 
L 379.136563 295.035504 
L 379.335372 292.839751 
L 379.401641 292.22056 
L 379.53418 293.608835 
L 379.60045 292.462078 
L 379.666719 295.135941 
L 379.732989 292.487689 
L 379.799258 294.902841 
L 379.865528 293.921846 
L 379.931798 294.880794 
L 379.998067 293.88502 
L 380.064337 294.583586 
L 380.130606 294.542558 
L 380.196876 294.768271 
L 380.263145 294.327759 
L 380.329415 294.45809 
L 380.395684 294.452109 
L 380.594493 292.628039 
L 380.793302 295.096137 
L 380.859571 294.389115 
L 380.925841 295.402725 
L 380.99211 295.228191 
L 381.05838 295.177896 
L 381.12465 294.780638 
L 381.323458 295.458326 
L 381.455997 294.725118 
L 381.522267 295.389056 
L 381.588536 295.080269 
L 381.721076 294.566418 
L 381.853615 295.421684 
L 381.919884 295.13224 
L 381.986154 295.048514 
L 382.052423 295.255599 
L 382.118693 295.113661 
L 382.251232 295.01984 
L 382.317502 295.338518 
L 382.383771 294.942434 
L 382.51631 295.284813 
L 382.648849 295.253221 
L 382.715119 295.26454 
L 382.781388 295.462287 
L 382.847658 295.319703 
L 382.913928 295.096829 
L 383.046467 295.395763 
L 383.112736 295.211743 
L 383.179006 295.250805 
L 383.444084 295.447872 
L 383.576623 295.2608 
L 383.642893 295.482335 
L 383.775432 295.269439 
L 383.841701 295.289473 
L 383.907971 294.943315 
L 383.97424 294.994862 
L 384.106779 295.308727 
L 384.239319 295.260997 
L 384.371858 294.98464 
L 384.438127 295.269541 
L 384.504397 295.225496 
L 384.636936 294.864451 
L 384.902014 295.124133 
L 384.968284 294.957207 
L 385.034553 295.164013 
L 385.167092 294.953062 
L 385.299631 295.204382 
L 385.365901 295.195606 
L 385.432171 295.370567 
L 385.56471 294.996134 
L 385.697249 295.160816 
L 385.763518 294.986246 
L 385.829788 295.047362 
L 386.161136 295.267282 
L 386.293675 295.308678 
L 386.359944 295.045554 
L 386.426214 295.400263 
L 386.558753 294.615654 
L 386.625023 295.024117 
L 386.691292 294.938758 
L 386.757562 295.120376 
L 386.823831 294.803594 
L 386.890101 294.887815 
L 386.95637 294.959031 
L 387.02264 295.203767 
L 387.088909 295.182482 
L 387.221449 295.012258 
L 387.287718 294.791397 
L 387.420257 295.346855 
L 387.486527 295.106227 
L 387.619066 294.885388 
L 387.685335 295.150832 
L 387.817875 294.812385 
L 387.884144 295.337058 
L 387.950414 295.275536 
L 388.016683 294.777066 
L 388.082953 294.806976 
L 388.149222 295.132942 
L 388.348031 294.263759 
L 388.414301 294.828134 
L 388.48057 293.764541 
L 388.54684 294.287695 
L 388.613109 294.193498 
L 388.679379 293.766504 
L 388.745648 294.450263 
L 388.811918 294.424902 
L 388.878187 294.411538 
L 388.944457 294.196515 
L 389.010726 294.805086 
L 389.076996 294.525969 
L 389.143266 294.012818 
L 389.209535 294.285237 
L 389.275805 295.06183 
L 389.342074 294.632651 
L 389.408344 294.473451 
L 389.474613 295.018485 
L 389.540883 294.975234 
L 389.673422 294.237827 
L 389.805961 294.755429 
L 389.872231 294.451281 
L 389.9385 294.73514 
L 390.00477 293.897922 
L 390.071039 294.340592 
L 390.137309 294.905136 
L 390.203578 294.553127 
L 390.269848 294.378755 
L 390.402387 294.869109 
L 390.468657 293.440286 
L 390.534926 293.631069 
L 390.601196 294.503439 
L 390.800004 291.56472 
L 390.866274 291.162405 
L 391.065083 294.458126 
L 391.197622 293.103374 
L 391.263891 293.610171 
L 391.330161 292.61649 
L 391.39643 292.903704 
L 391.52897 295.11237 
L 391.661509 293.764658 
L 391.727778 294.054406 
L 391.860317 292.926612 
L 391.926587 293.931979 
L 391.992856 292.898529 
L 392.059126 295.019787 
L 392.125396 294.27117 
L 392.191665 294.099031 
L 392.324204 294.491092 
L 392.390474 294.408421 
L 392.589282 293.495966 
L 392.655552 293.99635 
L 392.854361 292.917808 
L 393.053169 294.695469 
L 393.119439 294.610617 
L 393.185708 295.058762 
L 393.318248 294.157858 
L 393.384517 294.53251 
L 393.517056 293.352154 
L 393.649595 294.917414 
L 393.715865 294.275131 
L 393.782134 294.587219 
L 393.914673 294.818509 
L 394.113482 293.378639 
L 394.179752 294.647361 
L 394.246021 293.327412 
L 394.312291 294.624782 
L 394.37856 293.942723 
L 394.577369 294.895778 
L 394.709908 294.800857 
L 394.776178 295.149411 
L 394.842447 294.662845 
L 394.908717 295.278861 
L 394.974986 295.00647 
L 395.041256 294.93124 
L 395.240065 293.336411 
L 395.438873 295.283493 
L 395.505143 294.781595 
L 395.571412 295.380085 
L 395.637682 295.254948 
L 395.703951 295.077838 
L 395.770221 295.191141 
L 395.836491 295.32002 
L 395.96903 295.212765 
L 396.035299 295.293249 
L 396.101569 294.825351 
L 396.167838 294.964677 
L 396.499186 295.316611 
L 396.565456 295.093187 
L 396.631725 295.145328 
L 396.697995 295.452015 
L 396.764264 295.341402 
L 396.830534 295.263177 
L 396.896803 294.932929 
L 396.963073 295.345853 
L 397.029343 294.945375 
L 397.095612 295.377999 
L 397.161882 295.227182 
L 397.36069 295.451297 
L 397.758308 295.104296 
L 397.824577 295.410083 
L 397.890847 295.246434 
L 398.023386 295.421538 
L 398.089655 295.214127 
L 398.222195 295.464022 
L 398.288464 294.97289 
L 398.354734 295.015836 
L 398.421003 295.288419 
L 398.487273 295.112442 
" clip-path="url(#p0d2d4ab834)" style="fill: none; stroke: #1f77b4; stroke-width: 1.5; stroke-linecap: square"/>
   </g>
   <g id="patch_3">
    <path d="M 57.6 307.584 
L 57.6 41.472 
" style="fill: none; stroke: #000000; stroke-width: 0.8; stroke-linejoin: miter; stroke-linecap: square"/>
   </g>
   <g id="patch_4">
    <path d="M 414.72 307.584 
L 414.72 41.472 
" style="fill: none; stroke: #000000; stroke-width: 0.8; stroke-linejoin: miter; stroke-linecap: square"/>
   </g>
   <g id="patch_5">
    <path d="M 57.6 307.584 
L 414.72 307.584 
" style="fill: none; stroke: #000000; stroke-width: 0.8; stroke-linejoin: miter; stroke-linecap: square"/>
   </g>
   <g id="patch_6">
    <path d="M 57.6 41.472 
L 414.72 41.472 
" style="fill: none; stroke: #000000; stroke-width: 0.8; stroke-linejoin: miter; stroke-linecap: square"/>
   </g>
   <g id="text_16">
    <text style="font: 12px 'IPAexGothic'; text-anchor: middle" x="236.16" y="35.472" transform="rotate(-0 236.16 35.472)">"062_A3.wav"の振幅スペクトル</text>
   </g>
  </g>
 </g>
 <defs>
  <clipPath id="p0d2d4ab834">
   <rect x="57.6" y="41.472" width="357.12" height="266.112"/>
  </clipPath>
 </defs>
</svg>
