<?xml version="1.0" encoding="utf-8" standalone="no"?>
<!DOCTYPE svg PUBLIC "-//W3C//DTD SVG 1.1//EN"
  "http://www.w3.org/Graphics/SVG/1.1/DTD/svg11.dtd">
<svg xmlns:xlink="http://www.w3.org/1999/xlink" width="460.8pt" height="345.6pt" viewBox="0 0 460.8 345.6" xmlns="http://www.w3.org/2000/svg" version="1.1">
 <metadata>
  <rdf:RDF xmlns:dc="http://purl.org/dc/elements/1.1/" xmlns:cc="http://creativecommons.org/ns#" xmlns:rdf="http://www.w3.org/1999/02/22-rdf-syntax-ns#">
   <cc:Work>
    <dc:type rdf:resource="http://purl.org/dc/dcmitype/StillImage"/>
    <dc:date>2022-11-28T11:27:02.346683</dc:date>
    <dc:format>image/svg+xml</dc:format>
    <dc:creator>
     <cc:Agent>
      <dc:title>Matplotlib v3.6.2, https://matplotlib.org/</dc:title>
     </cc:Agent>
    </dc:creator>
   </cc:Work>
  </rdf:RDF>
 </metadata>
 <defs>
  <style type="text/css">*{stroke-linejoin: round; stroke-linecap: butt}</style>
 </defs>
 <g id="figure_1">
  <g id="patch_1">
   <path d="M 0 345.6 
L 460.8 345.6 
L 460.8 0 
L 0 0 
z
" style="fill: #ffffff"/>
  </g>
  <g id="axes_1">
   <g id="patch_2">
    <path d="M 57.6 307.584 
L 414.72 307.584 
L 414.72 41.472 
L 57.6 41.472 
z
" style="fill: #ffffff"/>
   </g>
   <g id="matplotlib.axis_1">
    <g id="xtick_1">
     <g id="line2d_1">
      <defs>
       <path id="m506a59e1da" d="M 0 0 
L 0 3.5 
" style="stroke: #000000; stroke-width: 0.8"/>
      </defs>
      <g>
       <use xlink:href="#m506a59e1da" x="73.832727" y="307.584" style="stroke: #000000; stroke-width: 0.8"/>
      </g>
     </g>
     <g id="text_1">
      <text style="font: 10px 'IPAexGothic'; text-anchor: middle" x="73.832727" y="322.074625" transform="rotate(-0 73.832727 322.074625)">0</text>
     </g>
    </g>
    <g id="xtick_2">
     <g id="line2d_2">
      <g>
       <use xlink:href="#m506a59e1da" x="140.102281" y="307.584" style="stroke: #000000; stroke-width: 0.8"/>
      </g>
     </g>
     <g id="text_2">
      <text style="font: 10px 'IPAexGothic'; text-anchor: middle" x="140.102281" y="322.074625" transform="rotate(-0 140.102281 322.074625)">1000</text>
     </g>
    </g>
    <g id="xtick_3">
     <g id="line2d_3">
      <g>
       <use xlink:href="#m506a59e1da" x="206.371835" y="307.584" style="stroke: #000000; stroke-width: 0.8"/>
      </g>
     </g>
     <g id="text_3">
      <text style="font: 10px 'IPAexGothic'; text-anchor: middle" x="206.371835" y="322.074625" transform="rotate(-0 206.371835 322.074625)">2000</text>
     </g>
    </g>
    <g id="xtick_4">
     <g id="line2d_4">
      <g>
       <use xlink:href="#m506a59e1da" x="272.64139" y="307.584" style="stroke: #000000; stroke-width: 0.8"/>
      </g>
     </g>
     <g id="text_4">
      <text style="font: 10px 'IPAexGothic'; text-anchor: middle" x="272.64139" y="322.074625" transform="rotate(-0 272.64139 322.074625)">3000</text>
     </g>
    </g>
    <g id="xtick_5">
     <g id="line2d_5">
      <g>
       <use xlink:href="#m506a59e1da" x="338.910944" y="307.584" style="stroke: #000000; stroke-width: 0.8"/>
      </g>
     </g>
     <g id="text_5">
      <text style="font: 10px 'IPAexGothic'; text-anchor: middle" x="338.910944" y="322.074625" transform="rotate(-0 338.910944 322.074625)">4000</text>
     </g>
    </g>
    <g id="xtick_6">
     <g id="line2d_6">
      <g>
       <use xlink:href="#m506a59e1da" x="405.180498" y="307.584" style="stroke: #000000; stroke-width: 0.8"/>
      </g>
     </g>
     <g id="text_6">
      <text style="font: 10px 'IPAexGothic'; text-anchor: middle" x="405.180498" y="322.074625" transform="rotate(-0 405.180498 322.074625)">5000</text>
     </g>
    </g>
    <g id="text_7">
     <text style="font: 10px 'IPAexGothic'; text-anchor: middle" x="236.16" y="335.924625" transform="rotate(-0 236.16 335.924625)">周波数[Hz]</text>
    </g>
   </g>
   <g id="matplotlib.axis_2">
    <g id="ytick_1">
     <g id="line2d_7">
      <defs>
       <path id="m78d0ca09c1" d="M 0 0 
L -3.5 0 
" style="stroke: #000000; stroke-width: 0.8"/>
      </defs>
      <g>
       <use xlink:href="#m78d0ca09c1" x="57.6" y="295.489548" style="stroke: #000000; stroke-width: 0.8"/>
      </g>
     </g>
     <g id="text_8">
      <text style="font: 10px 'IPAexGothic'; text-anchor: end" x="50.6" y="299.234861" transform="rotate(-0 50.6 299.234861)">0.0</text>
     </g>
    </g>
    <g id="ytick_2">
     <g id="line2d_8">
      <g>
       <use xlink:href="#m78d0ca09c1" x="57.6" y="255.092186" style="stroke: #000000; stroke-width: 0.8"/>
      </g>
     </g>
     <g id="text_9">
      <text style="font: 10px 'IPAexGothic'; text-anchor: end" x="50.6" y="258.837499" transform="rotate(-0 50.6 258.837499)">0.5</text>
     </g>
    </g>
    <g id="ytick_3">
     <g id="line2d_9">
      <g>
       <use xlink:href="#m78d0ca09c1" x="57.6" y="214.694824" style="stroke: #000000; stroke-width: 0.8"/>
      </g>
     </g>
     <g id="text_10">
      <text style="font: 10px 'IPAexGothic'; text-anchor: end" x="50.6" y="218.440137" transform="rotate(-0 50.6 218.440137)">1.0</text>
     </g>
    </g>
    <g id="ytick_4">
     <g id="line2d_10">
      <g>
       <use xlink:href="#m78d0ca09c1" x="57.6" y="174.297462" style="stroke: #000000; stroke-width: 0.8"/>
      </g>
     </g>
     <g id="text_11">
      <text style="font: 10px 'IPAexGothic'; text-anchor: end" x="50.6" y="178.042775" transform="rotate(-0 50.6 178.042775)">1.5</text>
     </g>
    </g>
    <g id="ytick_5">
     <g id="line2d_11">
      <g>
       <use xlink:href="#m78d0ca09c1" x="57.6" y="133.9001" style="stroke: #000000; stroke-width: 0.8"/>
      </g>
     </g>
     <g id="text_12">
      <text style="font: 10px 'IPAexGothic'; text-anchor: end" x="50.6" y="137.645413" transform="rotate(-0 50.6 137.645413)">2.0</text>
     </g>
    </g>
    <g id="ytick_6">
     <g id="line2d_12">
      <g>
       <use xlink:href="#m78d0ca09c1" x="57.6" y="93.502738" style="stroke: #000000; stroke-width: 0.8"/>
      </g>
     </g>
     <g id="text_13">
      <text style="font: 10px 'IPAexGothic'; text-anchor: end" x="50.6" y="97.248051" transform="rotate(-0 50.6 97.248051)">2.5</text>
     </g>
    </g>
    <g id="ytick_7">
     <g id="line2d_13">
      <g>
       <use xlink:href="#m78d0ca09c1" x="57.6" y="53.105376" style="stroke: #000000; stroke-width: 0.8"/>
      </g>
     </g>
     <g id="text_14">
      <text style="font: 10px 'IPAexGothic'; text-anchor: end" x="50.6" y="56.850689" transform="rotate(-0 50.6 56.850689)">3.0</text>
     </g>
    </g>
    <g id="text_15">
     <text style="font: 10px 'IPAexGothic'; text-anchor: middle" x="29.460938" y="174.528" transform="rotate(-90 29.460938 174.528)">振幅</text>
    </g>
    <g id="text_16">
     <text style="font: 10px 'IPAexGothic'; text-anchor: start" x="57.6" y="38.472" transform="rotate(-0 57.6 38.472)">1e7</text>
    </g>
   </g>
   <g id="line2d_14">
    <path d="M 73.832727 294.21266 
L 73.898997 294.967283 
L 73.965266 294.929414 
L 74.031536 294.707989 
L 74.097805 294.945756 
L 74.230345 294.764818 
L 74.362884 294.815377 
L 74.495423 294.675934 
L 74.627962 294.802654 
L 74.694231 294.482266 
L 74.760501 294.634662 
L 74.826771 294.683885 
L 75.091849 294.373126 
L 75.224388 294.406416 
L 75.622005 294.022505 
L 75.688275 293.961467 
L 75.887083 293.6034 
L 76.152162 293.122034 
L 76.35097 292.611298 
L 76.483509 292.270848 
L 76.881127 288.653024 
L 77.013666 287.121287 
L 77.079935 288.508275 
L 77.146205 287.6148 
L 77.212475 285.985345 
L 77.345014 196.8179 
L 77.477553 53.568 
L 77.610092 278.658249 
L 78.140248 289.524252 
L 78.670405 291.77591 
L 79.266831 293.13713 
L 79.3331 292.873983 
L 79.39937 292.966319 
L 79.664448 293.361856 
L 79.730718 293.171079 
L 79.796987 293.270802 
L 80.062065 293.440087 
L 80.194604 293.147854 
L 80.260874 293.105911 
L 80.459683 293.639783 
L 80.592222 292.976089 
L 80.79103 288.27586 
L 80.8573 287.765485 
L 80.989839 276.518237 
L 81.056109 251.689803 
L 81.254917 290.993956 
L 81.453726 294.599269 
L 81.519996 295.087133 
L 81.586265 294.951645 
L 81.652535 294.840633 
L 81.718804 294.912275 
L 81.785074 295.080897 
L 81.983882 294.548703 
L 82.050152 294.982642 
L 82.116422 294.904085 
L 82.31523 294.321436 
L 82.3815 294.736874 
L 82.447769 294.573299 
L 82.580308 294.849234 
L 82.646578 294.477203 
L 82.712848 294.70703 
L 82.779117 294.638148 
L 82.845387 294.984943 
L 82.911656 294.512465 
L 82.977926 294.585522 
L 83.110465 294.726324 
L 83.176734 294.851552 
L 83.309274 294.077918 
L 83.375543 294.091186 
L 83.508082 295.036557 
L 83.640621 294.229938 
L 83.706891 294.320103 
L 83.77316 294.219147 
L 83.83943 294.265404 
L 83.905699 294.973941 
L 83.971969 294.743791 
L 84.303317 290.07521 
L 84.369586 290.597511 
L 84.568395 273.937577 
L 84.634665 277.063651 
L 84.700934 238.464177 
L 84.899743 291.680919 
L 85.29736 294.016795 
L 85.36363 294.043352 
L 85.429899 294.64001 
L 85.496169 294.201596 
L 85.562438 294.479756 
L 85.628708 294.4961 
L 85.694977 294.283185 
L 85.827517 294.73243 
L 85.893786 294.646257 
L 86.026325 294.824808 
L 86.158864 294.420328 
L 86.225134 295.027421 
L 86.291403 294.814623 
L 86.357673 294.897574 
L 86.423943 294.816751 
L 86.490212 294.200518 
L 86.622751 295.32747 
L 86.689021 294.67603 
L 86.75529 294.731784 
L 86.82156 294.795721 
L 86.887829 294.456746 
L 87.086638 295.036794 
L 87.285447 294.424938 
L 87.484255 295.152974 
L 87.749334 293.998301 
L 87.815603 294.074795 
L 88.146951 289.248755 
L 88.213221 289.088973 
L 88.27949 290.051329 
L 88.34576 289.177002 
L 88.478299 294.454349 
L 88.610838 294.649695 
L 88.743377 295.122594 
L 88.942186 295.210321 
L 89.140994 294.790426 
L 89.339803 295.10528 
L 89.472342 295.303003 
L 89.538612 294.822437 
L 89.604881 295.324723 
L 89.671151 295.007462 
L 89.73742 295.216731 
L 89.80369 295.136436 
L 89.936229 295.008218 
L 90.002498 294.94144 
L 90.068768 294.698193 
L 90.135038 293.211663 
L 90.267577 295.102075 
L 90.333846 295.152087 
L 90.466385 294.660177 
L 90.532655 294.737453 
L 90.598924 294.460411 
L 90.665194 294.565242 
L 90.731464 294.835112 
L 90.864003 294.374359 
L 90.930272 294.534335 
L 90.996542 294.112945 
L 91.129081 294.751409 
L 91.32789 291.820343 
L 91.394159 288.985441 
L 91.526698 293.15181 
L 91.659237 284.907178 
L 91.725507 278.972458 
L 91.791776 285.369787 
L 91.858046 285.312438 
L 91.924316 243.708144 
L 91.990585 259.176264 
L 92.123124 287.367302 
L 92.321933 293.355227 
L 92.388202 293.139967 
L 92.71955 294.595359 
L 92.852089 293.992716 
L 92.984628 294.546121 
L 93.050898 294.361355 
L 93.117168 293.531046 
L 93.183437 293.726686 
L 93.249707 294.594069 
L 93.315976 293.741564 
L 93.382246 295.101381 
L 93.448515 294.390553 
L 93.514785 294.197134 
L 93.647324 294.839524 
L 93.713593 294.697852 
L 93.779863 293.981538 
L 93.846133 294.674766 
L 93.912402 294.353049 
L 93.978672 294.418154 
L 94.044941 294.003824 
L 94.111211 295.293287 
L 94.310019 293.263494 
L 94.508828 295.195925 
L 94.641367 294.180033 
L 94.773906 292.300513 
L 94.972715 294.403535 
L 95.038985 292.727998 
L 95.237793 283.498601 
L 95.370332 287.573522 
L 95.569141 258.336054 
L 95.76795 293.004475 
L 95.834219 292.997909 
L 95.900489 293.835541 
L 95.966758 293.143414 
L 96.165567 295.042354 
L 96.231837 294.822879 
L 96.298106 295.117206 
L 96.364376 294.648607 
L 96.430645 294.907072 
L 96.563184 294.820848 
L 96.828263 295.360532 
L 96.960802 295.181155 
L 97.027071 295.419756 
L 97.093341 295.29743 
L 97.15961 295.143755 
L 97.22588 294.602105 
L 97.292149 294.875767 
L 97.358419 295.057652 
L 97.424689 295.014088 
L 97.557228 295.220569 
L 97.623497 295.367537 
L 97.756036 294.3842 
L 97.954845 295.213876 
L 98.153654 294.409236 
L 98.219923 293.685575 
L 98.286193 294.114388 
L 98.418732 293.903934 
L 98.485001 294.441031 
L 98.551271 293.152291 
L 98.61754 294.482296 
L 98.816349 291.778699 
L 98.882619 292.205536 
L 98.948888 293.38311 
L 99.213966 280.466727 
L 99.412775 293.912478 
L 99.744123 294.377554 
L 99.810392 294.396732 
L 99.876662 295.025237 
L 99.942932 294.972739 
L 100.009201 294.834834 
L 100.075471 294.29803 
L 100.14174 294.464412 
L 100.20801 295.363339 
L 100.274279 294.402944 
L 100.340549 294.75315 
L 100.473088 294.689711 
L 100.539358 294.447918 
L 100.605627 294.470836 
L 100.738166 294.841629 
L 100.804436 294.356744 
L 100.870705 294.445556 
L 100.936975 294.426691 
L 101.069514 295.019853 
L 101.135784 295.280141 
L 101.334592 294.545093 
L 101.533401 295.240722 
L 101.59967 294.634633 
L 101.66594 294.917987 
L 101.73221 295.186115 
L 101.798479 294.70713 
L 101.931018 295.420644 
L 101.997288 294.473961 
L 102.063557 294.877863 
L 102.129827 295.000835 
L 102.196096 294.6535 
L 102.394905 295.160046 
L 102.593714 294.451168 
L 102.659983 295.369642 
L 102.858792 291.6797 
L 102.991331 295.132136 
L 103.057601 295.077952 
L 103.19014 294.804014 
L 103.256409 295.078334 
L 103.388948 294.692263 
L 103.455218 295.308444 
L 103.521488 295.096479 
L 103.587757 295.033729 
L 103.654027 294.725265 
L 103.720296 294.92934 
L 103.852835 295.278113 
L 103.985374 294.713027 
L 104.051644 295.240827 
L 104.117913 295.083297 
L 104.250453 294.502 
L 104.316722 294.939217 
L 104.382992 294.548415 
L 104.449261 294.768049 
L 104.64807 293.679501 
L 104.714339 294.744858 
L 104.780609 294.672098 
L 104.846879 294.857389 
L 104.913148 295.42332 
L 104.979418 295.265692 
L 105.045687 295.12862 
L 105.111957 295.330006 
L 105.178226 295.222886 
L 105.310765 294.905889 
L 105.377035 294.93914 
L 105.443305 294.796223 
L 105.509574 295.101402 
L 105.642113 293.714012 
L 105.774652 294.462511 
L 105.973461 291.331785 
L 106.039731 289.877797 
L 106.106 292.205178 
L 106.17227 292.161168 
L 106.437348 279.567989 
L 106.569887 294.875786 
L 106.702426 294.563475 
L 106.768696 294.728852 
L 106.834965 294.511985 
L 106.967504 295.193257 
L 107.033774 294.649529 
L 107.100043 295.330264 
L 107.166313 294.774305 
L 107.232583 294.903653 
L 107.298852 295.240513 
L 107.497661 294.653591 
L 107.6302 295.415975 
L 108.027817 294.473467 
L 108.094087 295.292115 
L 108.292895 293.420006 
L 108.425435 295.292314 
L 108.557974 294.700905 
L 108.624243 295.289883 
L 108.690513 295.01497 
L 108.823052 294.671498 
L 108.955591 295.363393 
L 109.1544 294.762976 
L 109.286939 295.321813 
L 109.485747 293.001453 
L 109.552017 294.009165 
L 109.618286 293.663237 
L 109.750826 290.916929 
L 109.817095 292.156871 
L 109.883365 290.794552 
L 109.949634 286.627874 
L 110.015904 290.223711 
L 110.082173 283.891741 
L 110.148443 287.701888 
L 110.280982 294.261247 
L 110.413521 295.162913 
L 110.479791 294.598863 
L 110.54606 294.860977 
L 110.811138 295.213044 
L 110.877408 295.033796 
L 111.009947 295.218732 
L 111.142486 294.965495 
L 111.275025 295.255977 
L 111.473834 295.181045 
L 111.738912 294.973915 
L 111.805182 295.254477 
L 111.871451 294.709469 
L 111.937721 295.192093 
L 112.00399 295.02385 
L 112.07026 295.000431 
L 112.13653 295.134646 
L 112.202799 294.993746 
L 112.269069 295.168725 
L 112.335338 295.063564 
L 112.467877 294.791382 
L 112.534147 295.002884 
L 112.600416 294.755012 
L 112.666686 295.058325 
L 112.732956 294.326877 
L 112.799225 295.029687 
L 112.865495 294.82023 
L 112.931764 294.882392 
L 112.998034 295.175319 
L 113.130573 294.066492 
L 113.329382 292.951459 
L 113.395651 292.811198 
L 113.726999 278.841103 
L 113.925807 294.390566 
L 113.992077 293.812809 
L 114.058347 294.130643 
L 114.124616 294.323905 
L 114.257155 295.256897 
L 114.323425 294.576678 
L 114.389694 294.830851 
L 114.455964 294.797845 
L 114.522233 294.431959 
L 114.588503 295.084315 
L 114.654773 294.787224 
L 114.721042 294.668742 
L 114.787312 295.074367 
L 114.853581 294.86189 
L 114.98612 294.650696 
L 115.05239 294.799457 
L 115.118659 295.358685 
L 115.184929 295.000311 
L 115.251199 294.685179 
L 115.317468 294.895063 
L 115.383738 294.950909 
L 115.450007 294.819755 
L 115.516277 295.105415 
L 115.648816 294.749816 
L 115.715085 295.042207 
L 115.781355 294.86483 
L 115.847625 294.999717 
L 115.913894 294.630587 
L 116.046433 294.967495 
L 116.245242 294.335212 
L 116.377781 295.471532 
L 116.444051 295.383963 
L 116.642859 294.164042 
L 116.775398 295.00172 
L 116.907937 293.017011 
L 116.974207 293.353754 
L 117.040477 293.270055 
L 117.106746 291.720956 
L 117.173016 291.935084 
L 117.239285 293.061087 
L 117.371824 286.27046 
L 117.636903 295.199668 
L 117.769442 294.28444 
L 117.901981 295.02767 
L 117.96825 294.638412 
L 118.03452 295.305788 
L 118.100789 294.87543 
L 118.233329 294.211894 
L 118.432137 295.0795 
L 118.564676 295.451831 
L 118.829754 294.944116 
L 118.962294 295.228885 
L 119.161102 295.046715 
L 119.227372 294.718743 
L 119.293641 295.114486 
L 119.359911 294.706751 
L 119.49245 295.250913 
L 119.55872 294.93901 
L 119.624989 295.042605 
L 119.757528 295.046064 
L 119.823798 295.015547 
L 119.890067 295.266052 
L 119.956337 294.975397 
L 120.022606 295.14322 
L 120.088876 294.962612 
L 120.221415 295.341234 
L 120.420224 294.187361 
L 120.486493 294.39247 
L 120.619032 294.900626 
L 120.685302 294.505171 
L 120.751572 294.648052 
L 120.817841 295.127246 
L 121.01665 292.980752 
L 121.215458 295.274219 
L 121.281728 295.148915 
L 121.347998 295.32381 
L 121.414267 295.231276 
L 121.480537 294.4466 
L 121.546806 295.398609 
L 121.613076 295.048511 
L 121.679345 295.135942 
L 121.745615 295.418957 
L 121.878154 295.065237 
L 122.076963 295.171987 
L 122.342041 295.341621 
L 122.607119 295.358387 
L 122.805928 294.689467 
L 122.872197 295.353193 
L 122.938467 294.994506 
L 123.004736 295.448565 
L 123.203545 294.976128 
L 123.269815 295.334702 
L 123.336084 295.244698 
L 123.468623 295.413479 
L 123.534893 294.951621 
L 123.601162 295.051538 
L 123.667432 294.941931 
L 123.799971 295.419097 
L 123.93251 294.523447 
L 123.99878 294.831052 
L 124.065049 293.931856 
L 124.131319 294.65798 
L 124.197588 293.913857 
L 124.263858 294.296417 
L 124.396397 293.792447 
L 124.528936 292.945163 
L 124.595206 291.343849 
L 124.794014 295.234887 
L 124.860284 294.954789 
L 124.926553 295.375592 
L 124.992823 294.674665 
L 125.059093 295.077378 
L 125.125362 295.222791 
L 125.191632 295.088755 
L 125.39044 295.456903 
L 125.522979 294.983178 
L 125.788058 295.357301 
L 125.854327 295.109728 
L 125.920597 295.254339 
L 126.053136 295.287279 
L 126.119405 295.077313 
L 126.185675 295.375169 
L 126.251945 295.008228 
L 126.318214 295.257174 
L 126.517023 295.018231 
L 126.649562 295.368819 
L 126.782101 295.08645 
L 126.91464 295.174055 
L 127.113449 295.280996 
L 127.179718 295.06058 
L 127.312257 295.394481 
L 127.444797 294.492965 
L 127.577336 294.554022 
L 127.643605 294.845358 
L 127.776144 293.873951 
L 127.842414 294.029231 
L 127.908683 293.905602 
L 127.974953 292.644983 
L 128.041223 292.842418 
L 128.173762 292.022535 
L 128.240031 289.546279 
L 128.505109 295.212909 
L 128.571379 294.819894 
L 128.637648 294.933883 
L 128.770188 295.266143 
L 128.836457 295.165027 
L 128.902727 295.402883 
L 128.968996 295.266642 
L 129.035266 294.897048 
L 129.101535 295.066173 
L 129.300344 295.389179 
L 129.366614 295.069498 
L 129.432883 295.119966 
L 129.631692 295.37233 
L 129.8305 294.934265 
L 129.89677 295.340959 
L 129.96304 295.203565 
L 130.029309 295.095313 
L 130.095579 295.247481 
L 130.161848 294.901532 
L 130.228118 295.10953 
L 130.426926 295.437835 
L 130.493196 295.395892 
L 130.758274 295.25988 
L 131.089622 294.655343 
L 131.155892 294.899378 
L 131.288431 293.696535 
L 131.3547 293.871205 
L 131.42097 294.101251 
L 131.487239 293.461826 
L 131.553509 294.198173 
L 131.619778 294.141615 
L 131.686048 292.853761 
L 131.752318 293.73594 
L 131.884857 290.58839 
L 132.083665 294.837047 
L 132.216204 295.148652 
L 132.282474 294.669526 
L 132.415013 295.267571 
L 132.481283 295.027209 
L 132.547552 295.104924 
L 132.746361 295.019275 
L 132.81263 295.434179 
L 132.8789 295.383548 
L 133.011439 295.266584 
L 133.077709 295.073333 
L 133.143978 295.351853 
L 133.210248 295.268858 
L 133.342787 295.234673 
L 133.409056 295.402233 
L 133.475326 295.375592 
L 133.541596 295.213476 
L 133.607865 295.38151 
L 133.674135 295.330838 
L 133.806674 294.902163 
L 134.005482 295.38419 
L 134.071752 295.327718 
L 134.204291 295.083873 
L 134.4031 295.359263 
L 134.469369 295.24263 
L 134.535639 295.285283 
L 134.668178 294.341548 
L 134.800717 295.081909 
L 134.999526 293.739575 
L 135.198334 294.881093 
L 135.330873 294.241396 
L 135.397143 294.907763 
L 135.529682 292.701714 
L 135.728491 295.369506 
L 135.86103 294.946818 
L 135.927299 295.452008 
L 135.993569 294.959991 
L 136.126108 295.386864 
L 136.258647 295.280298 
L 136.324917 294.779022 
L 136.391186 295.280315 
L 136.457456 295.199067 
L 136.523725 295.39985 
L 136.589995 295.126798 
L 136.656265 295.229043 
L 136.722534 295.154086 
L 136.921343 295.392477 
L 137.186421 295.274288 
L 137.252691 295.217334 
L 137.31896 295.369113 
L 137.38523 295.195046 
L 137.451499 295.220662 
L 137.650308 295.392892 
L 137.782847 295.068628 
L 137.981656 295.338522 
L 138.114195 295.046567 
L 138.180464 295.227064 
L 138.379273 294.357266 
L 138.445543 294.479591 
L 138.578082 294.729991 
L 138.644351 294.360972 
L 138.710621 295.095632 
L 138.77689 295.011312 
L 138.84316 294.501402 
L 138.909429 294.989543 
L 138.975699 294.370046 
L 139.041968 295.205656 
L 139.108238 293.849942 
L 139.174508 294.671899 
L 139.240777 294.580037 
L 139.307047 295.300291 
L 139.373316 295.083482 
L 139.439586 295.128651 
L 139.572125 295.357407 
L 139.638394 295.213687 
L 139.704664 295.434327 
L 139.770934 295.239912 
L 139.837203 295.410935 
L 139.903473 295.013033 
L 139.969742 295.260393 
L 140.102281 295.381996 
L 140.30109 295.030393 
L 140.36736 295.363735 
L 140.433629 295.259871 
L 140.499899 295.400514 
L 140.566168 295.362822 
L 140.632438 295.161631 
L 140.698707 295.29856 
L 140.831246 295.344378 
L 140.897516 295.227098 
L 140.963786 295.332254 
L 141.361403 295.130591 
L 141.427672 295.302296 
L 141.493942 295.226545 
L 141.626481 295.318983 
L 141.75902 294.918837 
L 141.82529 295.358008 
L 141.891559 295.082237 
L 141.957829 295.232192 
L 142.024098 295.144281 
L 142.222907 295.144048 
L 142.355446 295.066308 
L 142.487985 294.482079 
L 142.620524 295.125236 
L 142.753064 294.330868 
L 142.819333 294.414079 
L 142.951872 295.297315 
L 143.018142 294.924658 
L 143.21695 295.422568 
L 143.415759 295.255603 
L 143.482029 295.0871 
L 143.548298 295.191925 
L 143.614568 295.355114 
L 143.680837 295.319922 
L 143.747107 295.373342 
L 143.879646 295.250136 
L 143.945915 295.398735 
L 144.012185 295.320346 
L 144.144724 295.250731 
L 144.210994 295.398862 
L 144.277263 295.085894 
L 144.343533 295.242122 
L 144.476072 295.392495 
L 144.608611 294.946772 
L 144.74115 295.309248 
L 144.80742 295.201268 
L 144.873689 295.26733 
L 145.138767 295.353293 
L 145.205037 295.127021 
L 145.271307 295.44531 
L 145.337576 295.399023 
L 145.536385 294.940296 
L 145.867733 294.841758 
L 145.934002 295.114884 
L 146.000272 294.405918 
L 146.066541 294.534121 
L 146.132811 294.279458 
L 146.26535 294.496451 
L 146.397889 292.860101 
L 146.662967 295.136928 
L 146.861776 294.753058 
L 146.994315 295.128613 
L 147.126854 295.129916 
L 147.259393 295.267106 
L 147.391932 295.450667 
L 147.458202 295.238975 
L 147.524471 295.434366 
L 147.72328 294.940507 
L 147.78955 295.293867 
L 147.855819 295.054166 
L 147.988358 295.351807 
L 148.054628 295.104663 
L 148.120897 295.198453 
L 148.253437 295.185503 
L 148.452245 294.839273 
L 148.584784 295.415993 
L 148.651054 295.081402 
L 148.783593 295.326875 
L 149.048671 294.477122 
L 149.114941 294.704618 
L 149.18121 294.652511 
L 149.24748 294.467002 
L 149.313749 294.610552 
L 149.380019 294.657929 
L 149.446288 294.171437 
L 149.512558 294.242499 
L 149.645097 294.646161 
L 149.711367 294.456415 
L 149.777636 295.009918 
L 149.976445 293.372456 
L 150.307793 295.18883 
L 150.374062 295.170172 
L 150.440332 294.861517 
L 150.506601 294.984728 
L 150.63914 295.394123 
L 150.70541 295.362297 
L 150.837949 295.35253 
L 151.036758 294.994633 
L 151.103027 295.333711 
L 151.169297 294.947073 
L 151.368106 295.350539 
L 151.434375 295.415422 
L 151.566914 295.081234 
L 151.765723 295.220137 
L 151.898262 294.907251 
L 151.964532 295.45315 
L 152.030801 295.351402 
L 152.16334 295.35179 
L 152.22961 294.704006 
L 152.295879 294.968751 
L 152.362149 295.164026 
L 152.494688 294.672014 
L 152.627227 294.619015 
L 152.693497 294.145812 
L 152.826036 294.645795 
L 152.958575 293.593362 
L 153.024844 293.925623 
L 153.157384 294.715867 
L 153.223653 294.635506 
L 153.289923 294.648213 
L 153.356192 294.363223 
L 153.422462 294.462221 
L 153.488731 294.388512 
L 153.555001 294.628162 
L 153.68754 293.763699 
L 153.753809 294.03658 
L 153.820079 294.857523 
L 153.886349 294.668313 
L 154.085157 295.39885 
L 154.151427 295.429644 
L 154.283966 295.081798 
L 154.350235 295.298191 
L 154.615314 295.255915 
L 154.681583 295.022181 
L 154.747853 295.103542 
L 154.814122 295.426208 
L 154.880392 295.389999 
L 155.14547 295.119275 
L 155.21174 295.322616 
L 155.278009 295.02297 
L 155.344279 295.219179 
L 155.476818 295.053595 
L 155.543087 295.394031 
L 155.609357 295.24014 
L 155.808166 294.868241 
L 155.940705 295.240992 
L 156.139513 294.614665 
L 156.272053 295.108573 
L 156.6034 293.022954 
L 156.735939 295.196839 
L 156.802209 294.813574 
L 156.868479 294.69532 
L 156.934748 294.296389 
L 157.001018 294.47322 
L 157.067287 294.624467 
L 157.332365 293.471093 
L 157.531174 295.089622 
L 157.663713 294.8343 
L 157.729983 295.369858 
L 157.796252 295.191416 
L 157.862522 294.962262 
L 157.928791 295.03581 
L 157.995061 295.305117 
L 158.061331 295.174286 
L 158.1276 295.372929 
L 158.326409 294.968305 
L 158.392678 295.031243 
L 158.525217 295.359312 
L 158.591487 295.390297 
L 158.724026 295.076944 
L 158.790296 295.102982 
L 158.856565 295.355712 
L 158.922835 294.920828 
L 158.989104 295.177324 
L 159.055374 295.108474 
L 159.121643 295.202779 
L 159.254182 294.960464 
L 159.320452 295.328228 
L 159.386722 295.066475 
L 159.452991 295.354714 
L 159.519261 295.242827 
L 159.58553 295.355441 
L 159.850608 294.761202 
L 159.916878 294.804382 
L 160.049417 295.351205 
L 160.115687 294.648044 
L 160.181956 294.655864 
L 160.314495 295.377279 
L 160.513304 294.747704 
L 160.579574 294.818456 
L 160.645843 295.29528 
L 160.712113 294.902816 
L 160.778382 295.243449 
L 160.910921 293.471793 
L 161.10973 295.095215 
L 161.176 295.269128 
L 161.242269 295.197586 
L 161.507347 295.202091 
L 161.838695 295.182856 
L 161.904965 295.10914 
L 161.971234 295.235088 
L 162.037504 295.194569 
L 162.170043 295.012655 
L 162.368852 295.370372 
L 162.435121 295.317614 
L 162.501391 295.108117 
L 162.56766 295.264285 
L 162.63393 295.306636 
L 162.832738 294.876878 
L 162.965278 295.41589 
L 163.031547 294.915432 
L 163.097817 295.188444 
L 163.164086 295.128072 
L 163.296625 295.302121 
L 163.362895 294.863116 
L 163.429164 294.974358 
L 163.561704 295.046261 
L 163.694243 294.760313 
L 163.760512 294.976865 
L 163.826782 294.88173 
L 163.959321 294.607342 
L 164.02559 294.96744 
L 164.09186 294.729918 
L 164.290669 295.290725 
L 164.356938 294.569149 
L 164.423208 294.886232 
L 164.489477 294.947037 
L 164.622016 294.421035 
L 164.887095 295.448734 
L 164.953364 295.063144 
L 165.019634 294.970455 
L 165.085903 295.358499 
L 165.152173 295.119326 
L 165.218442 295.341883 
L 165.284712 295.227579 
L 165.483521 295.110325 
L 165.54979 295.342033 
L 165.61606 295.072441 
L 165.682329 295.353432 
L 165.748599 295.222021 
L 165.814868 295.399281 
L 165.881138 295.302617 
L 166.013677 294.877709 
L 166.146216 295.332678 
L 166.212486 295.371941 
L 166.278755 295.142294 
L 166.411294 295.372728 
L 166.477564 295.28067 
L 166.543833 295.397504 
L 166.610103 295.239507 
L 166.676373 295.293512 
L 166.808912 295.376801 
L 167.07399 294.947676 
L 167.206529 294.964687 
L 167.339068 295.226878 
L 167.405338 294.855651 
L 167.471607 294.877128 
L 167.537877 295.221331 
L 167.604146 295.047064 
L 167.736685 294.951251 
L 167.935494 295.055886 
L 168.001764 294.533626 
L 168.068033 294.881121 
L 168.134303 295.128155 
L 168.266842 294.733164 
L 168.399381 295.299232 
L 168.53192 295.171684 
L 168.664459 295.324816 
L 168.730729 295.196234 
L 168.796998 295.463426 
L 168.863268 295.29024 
L 169.128346 295.285541 
L 169.194616 295.222396 
L 169.260885 295.404742 
L 169.327155 295.373394 
L 169.592233 295.300382 
L 169.658502 295.192033 
L 169.724772 295.340641 
L 169.857311 295.117467 
L 169.98985 295.396038 
L 170.122389 295.286684 
L 170.188659 295.021375 
L 170.254928 295.196248 
L 170.321198 295.433357 
L 170.387468 295.309882 
L 170.453737 295.274037 
L 170.520007 294.652661 
L 170.586276 294.970854 
L 170.652546 295.116939 
L 170.718815 295.013928 
L 170.785085 294.9524 
L 170.917624 295.160491 
L 171.050163 294.626876 
L 171.116433 295.120467 
L 171.182702 294.879702 
L 171.248972 294.923119 
L 171.381511 294.35019 
L 171.51405 294.943416 
L 171.646589 294.152958 
L 171.712859 294.693566 
L 171.779128 293.835146 
L 171.845398 294.407748 
L 172.110476 295.247015 
L 172.176746 295.125284 
L 172.243015 295.362556 
L 172.309285 295.095663 
L 172.375554 295.342318 
L 172.441824 295.097349 
L 172.508093 295.435476 
L 172.574363 295.199066 
L 172.706902 295.399655 
L 172.839441 295.167158 
L 173.03825 295.374977 
L 173.104519 295.23788 
L 173.170789 295.350797 
L 173.237058 295.417142 
L 173.303328 295.167211 
L 173.369598 295.232955 
L 173.435867 295.299251 
L 173.502137 295.223737 
L 173.899754 295.299959 
L 174.098563 295.147158 
L 174.164832 295.386386 
L 174.363641 295.014146 
L 174.42991 294.856389 
L 174.49618 294.992176 
L 174.562449 294.825139 
L 174.761258 295.378034 
L 174.893797 295.072234 
L 174.960067 295.129761 
L 175.026336 295.218678 
L 175.092606 295.127622 
L 175.158875 294.938094 
L 175.225145 294.963063 
L 175.291415 294.965955 
L 175.357684 294.510465 
L 175.423954 294.595245 
L 175.622762 295.116952 
L 175.755301 295.424709 
L 175.821571 295.339797 
L 175.887841 295.228035 
L 175.95411 295.429786 
L 176.02038 295.313631 
L 176.152919 295.394364 
L 176.219188 295.195145 
L 176.351727 295.400724 
L 176.616806 295.16299 
L 176.815614 295.432183 
L 176.948153 295.267568 
L 177.014423 295.423914 
L 177.146962 295.285743 
L 177.279501 295.218031 
L 177.41204 295.232903 
L 177.544579 295.409107 
L 177.610849 295.179207 
L 177.677119 295.386774 
L 177.743388 295.243543 
L 178.008466 295.215667 
L 178.207275 295.435312 
L 178.339814 295.142697 
L 178.406084 295.465694 
L 178.472353 295.289844 
L 178.538623 295.115859 
L 178.671162 295.417165 
L 178.737431 295.416019 
L 178.803701 295.237652 
L 178.86997 295.311843 
L 178.93624 295.224104 
L 179.00251 294.844858 
L 179.068779 295.017818 
L 179.135049 294.825253 
L 179.201318 294.879811 
L 179.267588 295.463433 
L 179.333857 295.324349 
L 179.598936 295.360751 
L 179.665205 295.197322 
L 179.864014 295.423247 
L 180.062822 295.225661 
L 180.195362 295.327677 
L 180.39417 295.100798 
L 180.46044 295.331246 
L 180.526709 295.236538 
L 180.725518 295.417509 
L 180.858057 295.092311 
L 180.990596 295.401258 
L 181.056866 295.203462 
L 181.189405 295.381574 
L 181.388214 295.225921 
L 181.719561 295.396151 
L 181.8521 295.204136 
L 181.91837 295.339098 
L 181.98464 295.102294 
L 182.050909 295.130131 
L 182.117179 295.488 
L 182.183448 295.240244 
L 182.382257 295.012198 
L 182.448526 295.306829 
L 182.514796 295.075195 
L 182.581066 295.325556 
L 182.647335 295.29024 
L 182.779874 294.907022 
L 182.912413 295.34539 
L 182.978683 295.278408 
L 183.310031 295.272211 
L 183.508839 295.449376 
L 183.575109 295.444871 
L 183.641378 295.281277 
L 183.707648 295.38587 
L 183.773917 295.281097 
L 183.840187 295.42905 
L 183.906457 295.36895 
L 183.972726 295.19999 
L 184.038996 295.231028 
L 184.171535 295.417812 
L 184.237804 295.257784 
L 184.304074 295.399743 
L 184.370343 295.32254 
L 184.502883 295.411417 
L 184.569152 295.357273 
L 184.635422 295.441442 
L 184.966769 295.296355 
L 185.099309 295.389812 
L 185.165578 295.169593 
L 185.298117 295.408375 
L 185.496926 295.298359 
L 185.563195 295.06382 
L 185.629465 295.142269 
L 185.762004 295.400445 
L 186.027082 295.002118 
L 186.225891 294.981619 
L 186.4247 295.257769 
L 186.490969 295.081177 
L 186.689778 295.350482 
L 186.822317 295.278311 
L 186.888587 295.275789 
L 187.021126 295.431279 
L 187.153665 295.310044 
L 187.352473 295.316355 
L 187.551282 295.282032 
L 187.683821 295.399557 
L 187.88263 295.255477 
L 188.015169 295.40991 
L 188.213978 295.256193 
L 188.346517 295.3931 
L 188.479056 295.203091 
L 188.611595 295.257826 
L 188.810404 295.221767 
L 188.942943 295.440957 
L 189.208021 295.02331 
L 189.27429 295.21363 
L 189.34056 295.112053 
L 189.473099 295.389269 
L 189.671908 295.114404 
L 189.738177 295.193508 
L 189.804447 294.968214 
L 189.870716 295.0158 
L 190.003256 295.267351 
L 190.069525 295.125779 
L 190.135795 295.366084 
L 190.202064 295.339595 
L 190.599682 295.454221 
L 190.665951 295.226345 
L 190.732221 295.294609 
L 190.86476 295.479994 
L 190.931029 295.383959 
L 190.997299 295.100295 
L 191.129838 295.391902 
L 191.196108 295.33435 
L 191.262377 295.472033 
L 191.328647 295.321188 
L 191.394916 295.353521 
L 191.659994 295.203667 
L 191.858803 295.363566 
L 192.057612 295.248006 
L 192.25642 295.398312 
L 192.32269 295.226344 
L 192.38896 295.336303 
L 192.455229 295.424724 
L 192.521499 295.26768 
L 192.587768 295.388309 
L 192.720307 295.42716 
L 192.985386 295.108788 
L 193.117925 295.426963 
L 193.184194 295.335996 
L 193.316733 295.372225 
L 193.515542 294.993914 
L 193.581812 295.127026 
L 193.648081 295.358101 
L 193.714351 295.294996 
L 193.84689 295.349576 
L 194.111968 295.271541 
L 194.310777 295.446998 
L 194.443316 295.336656 
L 194.509585 295.447439 
L 194.575855 295.341972 
L 194.642124 295.267809 
L 194.708394 295.333982 
L 194.774663 295.364465 
L 194.840933 295.147217 
L 194.907203 295.429258 
L 194.973472 295.355774 
L 195.039742 295.417721 
L 195.172281 295.181917 
L 195.30482 295.231291 
L 195.371089 295.366614 
L 195.437359 295.286557 
L 195.569898 295.319957 
L 195.636168 295.356696 
L 195.702437 295.092283 
L 195.768707 295.261537 
L 195.834976 295.223093 
L 195.967515 295.34706 
L 196.232594 295.330506 
L 196.431402 295.38146 
L 196.630211 295.203314 
L 196.82902 295.439438 
L 197.027828 295.451031 
L 197.226637 294.973796 
L 197.292907 295.038596 
L 197.359176 294.953653 
L 197.491715 295.410136 
L 197.624254 295.390716 
L 197.690524 295.156076 
L 197.756793 295.370319 
L 197.823063 295.221744 
L 198.021872 295.344783 
L 198.088141 295.129172 
L 198.28695 295.366215 
L 198.419489 295.146223 
L 198.485759 295.370364 
L 198.552028 295.330286 
L 198.684567 295.287601 
L 198.750837 294.940623 
L 198.817106 295.136979 
L 198.883376 295.417302 
L 198.949645 295.356205 
L 199.082184 295.390902 
L 199.148454 295.223272 
L 199.214724 295.332779 
L 199.280993 295.38214 
L 199.347263 295.162259 
L 199.546071 295.446806 
L 199.67861 295.33522 
L 199.943689 295.399171 
L 200.009958 295.227814 
L 200.076228 295.469106 
L 200.142497 295.345936 
L 200.341306 295.250644 
L 200.473845 295.374131 
L 200.540115 295.193537 
L 200.606384 295.382737 
L 200.672654 295.292618 
L 200.871462 295.15842 
L 201.136541 295.440637 
L 201.20281 295.296056 
L 201.26908 295.366197 
L 201.534158 295.430349 
L 201.600428 295.126021 
L 201.799236 295.465215 
L 201.865506 295.311972 
L 201.931775 295.368898 
L 201.998045 295.454505 
L 202.064314 295.369482 
L 202.329393 295.447597 
L 202.395662 295.310049 
L 202.461932 295.388873 
L 202.594471 295.415155 
L 202.66074 295.425664 
L 202.72701 295.26301 
L 202.859549 295.399853 
L 203.058358 295.395802 
L 203.257166 295.421914 
L 203.389706 295.443249 
L 203.455975 295.475151 
L 203.588514 295.191412 
L 203.654784 295.402868 
L 203.721053 295.359078 
L 203.787323 295.252748 
L 203.853592 295.411798 
L 203.919862 295.353909 
L 204.582557 295.29197 
L 204.715097 295.443219 
L 204.913905 295.211215 
L 205.112714 295.360778 
L 205.245253 295.176584 
L 205.377792 295.473407 
L 205.510331 295.308001 
L 205.775409 295.364306 
L 206.968261 295.41031 
L 207.100801 295.309234 
L 207.16707 295.322052 
L 207.23334 295.459967 
L 207.299609 295.387428 
L 207.365879 295.393816 
L 207.498418 295.298079 
L 207.630957 295.415212 
L 207.763496 295.341723 
L 208.028574 295.338932 
L 208.094844 295.208055 
L 208.161113 295.373524 
L 208.227383 295.293674 
L 208.293653 295.354708 
L 208.359922 295.252828 
L 208.426192 295.340189 
L 208.492461 295.38593 
L 208.558731 295.227058 
L 208.625 295.423004 
L 208.69127 295.253935 
L 208.757539 295.422504 
L 208.823809 295.245358 
L 208.956348 295.380392 
L 209.088887 295.311318 
L 209.221426 295.377212 
L 209.287696 295.234182 
L 209.353965 295.393042 
L 209.420235 295.297401 
L 209.619044 295.385724 
L 209.685313 295.378867 
L 209.751583 295.259344 
L 209.950391 295.461072 
L 210.016661 295.150088 
L 210.08293 295.241852 
L 210.1492 295.40681 
L 210.21547 295.376489 
L 210.281739 295.208996 
L 210.348009 295.324133 
L 210.480548 295.342882 
L 210.878165 295.437746 
L 210.944435 295.252566 
L 211.010704 295.34167 
L 211.474591 295.334893 
L 211.540861 295.117558 
L 211.60713 295.382247 
L 211.6734 295.300286 
L 211.739669 295.297257 
L 211.805939 295.100978 
L 211.872208 295.209504 
L 211.938478 295.411558 
L 212.004748 295.360247 
L 212.071017 295.36197 
L 212.137287 295.091259 
L 212.203556 295.464728 
L 212.269826 295.24063 
L 212.336095 295.443604 
L 212.402365 295.411821 
L 212.468634 295.274777 
L 212.534904 295.32837 
L 212.733713 295.266559 
L 212.932521 295.398429 
L 212.998791 295.2619 
L 213.06506 295.330707 
L 213.13133 295.467508 
L 213.1976 295.419651 
L 213.263869 295.412807 
L 213.396408 295.294036 
L 213.661486 295.431022 
L 213.727756 295.220288 
L 213.794025 295.280293 
L 213.992834 295.366795 
L 214.390451 295.379117 
L 214.456721 295.27798 
L 214.522991 295.323551 
L 214.721799 295.422022 
L 214.788069 295.29471 
L 214.854338 295.448341 
L 214.920608 295.41625 
L 215.119417 295.234977 
L 215.185686 295.363532 
L 215.980921 295.380625 
L 216.04719 295.201851 
L 216.179729 295.461839 
L 217.041234 295.350144 
L 217.173773 295.471009 
L 217.306312 295.40309 
L 217.438851 295.449048 
L 217.505121 295.367971 
L 217.57139 295.434812 
L 217.63766 295.441262 
L 217.703929 295.32972 
L 217.902738 295.465712 
L 218.101547 295.433623 
L 220.023364 295.374632 
L 220.155903 295.437868 
L 220.222172 295.374797 
L 220.288442 295.479542 
L 220.354711 295.428301 
L 220.420981 295.464361 
L 220.48725 295.351207 
L 220.55352 295.462295 
L 220.61979 295.397725 
L 220.884868 295.445286 
L 221.282485 295.415663 
L 221.481294 295.443212 
L 221.680102 295.467889 
L 222.740415 295.376729 
L 222.872954 295.478674 
L 223.071763 295.394488 
L 223.270572 295.446562 
L 223.53565 295.436939 
L 223.999537 295.449152 
L 224.198345 295.419388 
L 224.330885 295.373099 
L 224.927311 295.410191 
L 225.126119 295.362833 
L 225.192389 295.478779 
L 225.258658 295.416573 
L 225.391197 295.375885 
L 226.318971 295.469981 
L 226.650319 295.42094 
L 231.753075 295.441224 
L 231.951883 295.428432 
L 232.614579 295.446481 
L 232.879657 295.466056 
L 238.114952 295.451517 
L 238.645108 295.445554 
L 240.699464 295.447448 
L 242.356203 295.453711 
L 243.416516 295.446522 
L 245.139525 295.452963 
L 245.537142 295.446918 
L 246.332377 295.449145 
L 249.910932 295.450096 
L 259.983905 295.453364 
L 398.487273 295.46804 
L 398.487273 295.46804 
" clip-path="url(#p421f1fc203)" style="fill: none; stroke: #1f77b4; stroke-width: 1.5; stroke-linecap: square"/>
   </g>
   <g id="patch_3">
    <path d="M 57.6 307.584 
L 57.6 41.472 
" style="fill: none; stroke: #000000; stroke-width: 0.8; stroke-linejoin: miter; stroke-linecap: square"/>
   </g>
   <g id="patch_4">
    <path d="M 414.72 307.584 
L 414.72 41.472 
" style="fill: none; stroke: #000000; stroke-width: 0.8; stroke-linejoin: miter; stroke-linecap: square"/>
   </g>
   <g id="patch_5">
    <path d="M 57.6 307.584 
L 414.72 307.584 
" style="fill: none; stroke: #000000; stroke-width: 0.8; stroke-linejoin: miter; stroke-linecap: square"/>
   </g>
   <g id="patch_6">
    <path d="M 57.6 41.472 
L 414.72 41.472 
" style="fill: none; stroke: #000000; stroke-width: 0.8; stroke-linejoin: miter; stroke-linecap: square"/>
   </g>
   <g id="text_17">
    <text style="font: 12px 'IPAexGothic'; text-anchor: middle" x="236.16" y="35.472" transform="rotate(-0 236.16 35.472)">"065_A1.wav"の振幅スペクトル</text>
   </g>
  </g>
 </g>
 <defs>
  <clipPath id="p421f1fc203">
   <rect x="57.6" y="41.472" width="357.12" height="266.112"/>
  </clipPath>
 </defs>
</svg>
