<?xml version="1.0" encoding="utf-8" standalone="no"?>
<!DOCTYPE svg PUBLIC "-//W3C//DTD SVG 1.1//EN"
  "http://www.w3.org/Graphics/SVG/1.1/DTD/svg11.dtd">
<svg xmlns:xlink="http://www.w3.org/1999/xlink" width="460.8pt" height="345.6pt" viewBox="0 0 460.8 345.6" xmlns="http://www.w3.org/2000/svg" version="1.1">
 <metadata>
  <rdf:RDF xmlns:dc="http://purl.org/dc/elements/1.1/" xmlns:cc="http://creativecommons.org/ns#" xmlns:rdf="http://www.w3.org/1999/02/22-rdf-syntax-ns#">
   <cc:Work>
    <dc:type rdf:resource="http://purl.org/dc/dcmitype/StillImage"/>
    <dc:date>2022-11-28T11:25:56.377076</dc:date>
    <dc:format>image/svg+xml</dc:format>
    <dc:creator>
     <cc:Agent>
      <dc:title>Matplotlib v3.6.2, https://matplotlib.org/</dc:title>
     </cc:Agent>
    </dc:creator>
   </cc:Work>
  </rdf:RDF>
 </metadata>
 <defs>
  <style type="text/css">*{stroke-linejoin: round; stroke-linecap: butt}</style>
 </defs>
 <g id="figure_1">
  <g id="patch_1">
   <path d="M 0 345.6 
L 460.8 345.6 
L 460.8 0 
L 0 0 
z
" style="fill: #ffffff"/>
  </g>
  <g id="axes_1">
   <g id="patch_2">
    <path d="M 57.6 307.584 
L 414.72 307.584 
L 414.72 41.472 
L 57.6 41.472 
z
" style="fill: #ffffff"/>
   </g>
   <g id="matplotlib.axis_1">
    <g id="xtick_1">
     <g id="line2d_1">
      <defs>
       <path id="m6e0d224212" d="M 0 0 
L 0 3.5 
" style="stroke: #000000; stroke-width: 0.8"/>
      </defs>
      <g>
       <use xlink:href="#m6e0d224212" x="73.832727" y="307.584" style="stroke: #000000; stroke-width: 0.8"/>
      </g>
     </g>
     <g id="text_1">
      <text style="font: 10px 'IPAexGothic'; text-anchor: middle" x="73.832727" y="322.074625" transform="rotate(-0 73.832727 322.074625)">0</text>
     </g>
    </g>
    <g id="xtick_2">
     <g id="line2d_2">
      <g>
       <use xlink:href="#m6e0d224212" x="140.102281" y="307.584" style="stroke: #000000; stroke-width: 0.8"/>
      </g>
     </g>
     <g id="text_2">
      <text style="font: 10px 'IPAexGothic'; text-anchor: middle" x="140.102281" y="322.074625" transform="rotate(-0 140.102281 322.074625)">1000</text>
     </g>
    </g>
    <g id="xtick_3">
     <g id="line2d_3">
      <g>
       <use xlink:href="#m6e0d224212" x="206.371835" y="307.584" style="stroke: #000000; stroke-width: 0.8"/>
      </g>
     </g>
     <g id="text_3">
      <text style="font: 10px 'IPAexGothic'; text-anchor: middle" x="206.371835" y="322.074625" transform="rotate(-0 206.371835 322.074625)">2000</text>
     </g>
    </g>
    <g id="xtick_4">
     <g id="line2d_4">
      <g>
       <use xlink:href="#m6e0d224212" x="272.64139" y="307.584" style="stroke: #000000; stroke-width: 0.8"/>
      </g>
     </g>
     <g id="text_4">
      <text style="font: 10px 'IPAexGothic'; text-anchor: middle" x="272.64139" y="322.074625" transform="rotate(-0 272.64139 322.074625)">3000</text>
     </g>
    </g>
    <g id="xtick_5">
     <g id="line2d_5">
      <g>
       <use xlink:href="#m6e0d224212" x="338.910944" y="307.584" style="stroke: #000000; stroke-width: 0.8"/>
      </g>
     </g>
     <g id="text_5">
      <text style="font: 10px 'IPAexGothic'; text-anchor: middle" x="338.910944" y="322.074625" transform="rotate(-0 338.910944 322.074625)">4000</text>
     </g>
    </g>
    <g id="xtick_6">
     <g id="line2d_6">
      <g>
       <use xlink:href="#m6e0d224212" x="405.180498" y="307.584" style="stroke: #000000; stroke-width: 0.8"/>
      </g>
     </g>
     <g id="text_6">
      <text style="font: 10px 'IPAexGothic'; text-anchor: middle" x="405.180498" y="322.074625" transform="rotate(-0 405.180498 322.074625)">5000</text>
     </g>
    </g>
    <g id="text_7">
     <text style="font: 10px 'IPAexGothic'; text-anchor: middle" x="236.16" y="335.924625" transform="rotate(-0 236.16 335.924625)">周波数[Hz]</text>
    </g>
   </g>
   <g id="matplotlib.axis_2">
    <g id="ytick_1">
     <g id="line2d_7">
      <defs>
       <path id="m4b9e6effd5" d="M 0 0 
L -3.5 0 
" style="stroke: #000000; stroke-width: 0.8"/>
      </defs>
      <g>
       <use xlink:href="#m4b9e6effd5" x="57.6" y="295.492792" style="stroke: #000000; stroke-width: 0.8"/>
      </g>
     </g>
     <g id="text_8">
      <text style="font: 10px 'IPAexGothic'; text-anchor: end" x="50.6" y="299.238104" transform="rotate(-0 50.6 299.238104)">0.0</text>
     </g>
    </g>
    <g id="ytick_2">
     <g id="line2d_8">
      <g>
       <use xlink:href="#m4b9e6effd5" x="57.6" y="250.56898" style="stroke: #000000; stroke-width: 0.8"/>
      </g>
     </g>
     <g id="text_9">
      <text style="font: 10px 'IPAexGothic'; text-anchor: end" x="50.6" y="254.314292" transform="rotate(-0 50.6 254.314292)">0.5</text>
     </g>
    </g>
    <g id="ytick_3">
     <g id="line2d_9">
      <g>
       <use xlink:href="#m4b9e6effd5" x="57.6" y="205.645168" style="stroke: #000000; stroke-width: 0.8"/>
      </g>
     </g>
     <g id="text_10">
      <text style="font: 10px 'IPAexGothic'; text-anchor: end" x="50.6" y="209.39048" transform="rotate(-0 50.6 209.39048)">1.0</text>
     </g>
    </g>
    <g id="ytick_4">
     <g id="line2d_10">
      <g>
       <use xlink:href="#m4b9e6effd5" x="57.6" y="160.721356" style="stroke: #000000; stroke-width: 0.8"/>
      </g>
     </g>
     <g id="text_11">
      <text style="font: 10px 'IPAexGothic'; text-anchor: end" x="50.6" y="164.466668" transform="rotate(-0 50.6 164.466668)">1.5</text>
     </g>
    </g>
    <g id="ytick_5">
     <g id="line2d_11">
      <g>
       <use xlink:href="#m4b9e6effd5" x="57.6" y="115.797544" style="stroke: #000000; stroke-width: 0.8"/>
      </g>
     </g>
     <g id="text_12">
      <text style="font: 10px 'IPAexGothic'; text-anchor: end" x="50.6" y="119.542856" transform="rotate(-0 50.6 119.542856)">2.0</text>
     </g>
    </g>
    <g id="ytick_6">
     <g id="line2d_12">
      <g>
       <use xlink:href="#m4b9e6effd5" x="57.6" y="70.873731" style="stroke: #000000; stroke-width: 0.8"/>
      </g>
     </g>
     <g id="text_13">
      <text style="font: 10px 'IPAexGothic'; text-anchor: end" x="50.6" y="74.619044" transform="rotate(-0 50.6 74.619044)">2.5</text>
     </g>
    </g>
    <g id="text_14">
     <text style="font: 10px 'IPAexGothic'; text-anchor: middle" x="29.460938" y="174.528" transform="rotate(-90 29.460938 174.528)">振幅</text>
    </g>
    <g id="text_15">
     <text style="font: 10px 'IPAexGothic'; text-anchor: start" x="57.6" y="38.472" transform="rotate(-0 57.6 38.472)">1e7</text>
    </g>
   </g>
   <g id="line2d_13">
    <path d="M 73.832727 275.071829 
L 73.965266 294.331844 
L 74.097805 294.993533 
L 74.230345 294.889019 
L 74.561692 295.418536 
L 74.627962 295.274024 
L 74.89304 294.954602 
L 75.091849 294.965353 
L 75.224388 295.161878 
L 75.356927 295.03616 
L 75.489466 294.714549 
L 75.555736 294.832294 
L 75.820814 294.845015 
L 76.085892 294.961165 
L 76.814857 294.96921 
L 77.013666 295.026354 
L 77.543822 294.959458 
L 77.610092 295.105223 
L 77.676361 295.035845 
L 77.808901 294.973811 
L 78.007709 295.094773 
L 78.206518 295.133922 
L 78.272787 295.056084 
L 78.339057 295.132261 
L 78.604135 295.142529 
L 78.670405 294.617276 
L 78.736674 295.201143 
L 78.802944 295.031658 
L 78.935483 295.266161 
L 79.001752 295.216585 
L 79.068022 295.068628 
L 79.134292 295.18942 
L 79.266831 295.182411 
L 79.39937 295.336012 
L 79.531909 295.172068 
L 79.796987 295.343232 
L 80.062065 295.381847 
L 80.459683 294.259477 
L 80.525952 294.320062 
L 80.8573 292.945614 
L 80.92357 290.825684 
L 80.989839 291.35701 
L 81.056109 292.183123 
L 81.122378 247.878462 
L 81.254917 293.798573 
L 81.321187 294.704124 
L 81.387456 294.254367 
L 81.652535 293.894818 
L 81.851343 294.552499 
L 82.248961 294.543197 
L 82.3815 294.460311 
L 82.646578 294.296519 
L 82.712848 294.586113 
L 82.779117 294.563209 
L 82.845387 294.446049 
L 82.911656 294.488535 
L 83.110465 294.496453 
L 83.243004 294.37674 
L 83.309274 294.21223 
L 83.441813 294.632577 
L 83.508082 294.53535 
L 83.574352 294.729726 
L 83.640621 294.456304 
L 83.706891 294.716233 
L 83.77316 294.682095 
L 84.237047 294.68877 
L 84.435856 294.748443 
L 84.767204 294.54479 
L 84.833473 294.695537 
L 84.899743 294.631944 
L 85.032282 294.399146 
L 85.098551 294.455853 
L 85.164821 294.632303 
L 85.231091 294.506812 
L 85.29736 294.524602 
L 85.36363 294.393724 
L 85.429899 294.465474 
L 85.562438 294.465026 
L 85.694977 294.348225 
L 85.827517 294.539679 
L 85.893786 294.404359 
L 85.960056 294.447912 
L 86.026325 293.826744 
L 86.092595 294.067812 
L 86.225134 294.035071 
L 86.291403 294.343927 
L 86.423943 293.807683 
L 86.556482 293.98752 
L 86.689021 293.671022 
L 86.82156 293.751725 
L 86.954099 293.569932 
L 87.152908 292.968455 
L 87.219177 293.298317 
L 87.285447 293.193569 
L 87.417986 292.343555 
L 87.484255 292.493706 
L 87.616795 291.562226 
L 87.815603 288.299861 
L 87.881873 288.693432 
L 87.948142 288.030503 
L 88.014412 288.687359 
L 88.080681 288.051959 
L 88.27949 278.61761 
L 88.34576 280.458328 
L 88.412029 141.456617 
L 88.544568 288.131185 
L 88.610838 288.613562 
L 88.743377 293.094321 
L 88.809646 293.105262 
L 88.875916 292.747374 
L 89.074725 293.404989 
L 89.273533 294.315593 
L 89.339803 294.060491 
L 89.406072 293.607406 
L 89.604881 294.609061 
L 89.80369 294.325405 
L 89.936229 294.389805 
L 90.068768 294.269274 
L 90.135038 294.285244 
L 90.333846 294.070017 
L 90.532655 294.052315 
L 90.731464 293.950224 
L 90.864003 293.670196 
L 90.996542 293.9248 
L 91.062811 293.95081 
L 91.26162 293.787847 
L 91.659237 293.721413 
L 91.725507 293.501024 
L 91.791776 293.527186 
L 91.858046 293.64534 
L 91.924316 293.49886 
L 91.990585 293.561345 
L 92.321933 293.524519 
L 92.454472 293.395023 
L 92.587011 293.3706 
L 92.71955 293.157912 
L 92.852089 293.419732 
L 92.918359 293.080711 
L 92.984628 293.179339 
L 93.050898 293.361549 
L 93.183437 292.879522 
L 93.249707 294.327972 
L 93.315976 291.802913 
L 93.382246 292.500428 
L 93.448515 292.525818 
L 93.514785 292.403398 
L 93.581054 292.660529 
L 93.647324 292.542898 
L 93.846133 291.231224 
L 93.978672 290.872316 
L 94.111211 291.622069 
L 94.310019 289.273045 
L 94.442559 289.384869 
L 94.508828 289.926067 
L 94.773906 284.849393 
L 94.972715 286.216576 
L 95.237793 272.243182 
L 95.304063 281.511113 
L 95.370332 281.0434 
L 95.502871 271.943486 
L 95.569141 277.417807 
L 95.635411 275.449835 
L 95.70168 53.568 
L 95.834219 286.272686 
L 95.900489 286.077958 
L 95.966758 286.982948 
L 96.033028 290.716456 
L 96.099297 289.856089 
L 96.165567 289.633856 
L 96.298106 290.784773 
L 96.496915 292.340397 
L 96.629454 292.012544 
L 96.761993 292.939214 
L 96.828263 292.820054 
L 97.093341 293.843117 
L 97.15961 293.759209 
L 97.358419 294.143142 
L 97.424689 294.067141 
L 97.490958 294.244524 
L 97.557228 294.150023 
L 97.623497 294.14759 
L 97.756036 294.44456 
L 97.888575 294.296331 
L 97.954845 294.463157 
L 98.021115 294.403509 
L 98.087384 293.986488 
L 98.153654 294.271793 
L 98.352462 294.977522 
L 98.418732 295.109753 
L 98.485001 294.921228 
L 98.551271 294.980023 
L 98.75008 295.142593 
L 98.816349 294.968139 
L 98.948888 295.245063 
L 99.081427 295.13507 
L 99.213966 295.259731 
L 99.280236 295.197973 
L 99.412775 295.194034 
L 99.611584 295.272176 
L 99.810392 295.2186 
L 99.876662 295.307093 
L 99.942932 295.240471 
L 100.274279 295.042231 
L 100.340549 295.082379 
L 100.473088 294.766165 
L 100.539358 295.28085 
L 100.605627 294.276841 
L 100.671897 294.409948 
L 100.804436 294.208331 
L 100.936975 294.1137 
L 101.467131 293.179512 
L 101.533401 293.141365 
L 101.66594 293.446128 
L 101.73221 293.391458 
L 101.798479 293.619517 
L 101.864749 293.207461 
L 101.931018 293.63352 
L 101.997288 292.380301 
L 102.063557 292.811161 
L 102.196096 291.533019 
L 102.792522 285.21033 
L 102.858792 286.431723 
L 102.925062 290.169649 
L 102.991331 239.280012 
L 103.12387 293.140301 
L 103.256409 292.968049 
L 103.388948 293.598126 
L 103.455218 293.476599 
L 103.919105 294.366566 
L 104.051644 294.169687 
L 104.117913 294.509442 
L 104.184183 294.098213 
L 104.250453 294.176773 
L 104.449261 294.506499 
L 104.5818 294.251144 
L 104.64807 294.127609 
L 104.979418 294.999873 
L 105.045687 294.96803 
L 105.111957 294.270584 
L 105.178226 294.337599 
L 105.244496 294.22924 
L 105.310765 294.318958 
L 105.377035 294.377538 
L 105.443305 294.726929 
L 105.509574 294.579082 
L 105.708383 294.621405 
L 105.907191 294.794088 
L 106.039731 294.032245 
L 106.17227 294.690548 
L 106.304809 294.538141 
L 106.437348 293.980686 
L 106.569887 294.40795 
L 106.636157 294.348293 
L 106.702426 294.407242 
L 106.768696 294.679963 
L 106.834965 294.576233 
L 107.232583 293.865529 
L 107.298852 293.910843 
L 107.365122 294.191848 
L 107.431391 294.138966 
L 107.497661 294.069925 
L 107.56393 294.188687 
L 107.6302 294.0342 
L 107.762739 292.603037 
L 107.961548 294.314751 
L 108.094087 293.345752 
L 108.160356 293.551308 
L 108.425435 292.522433 
L 108.624243 292.175794 
L 108.690513 292.274632 
L 108.889321 291.112089 
L 109.02186 289.294076 
L 109.220669 285.84132 
L 109.286939 287.423552 
L 109.485747 282.924858 
L 109.552017 285.361146 
L 109.618286 283.85317 
L 109.684556 281.277136 
L 109.750826 281.722912 
L 109.817095 285.205693 
L 110.082173 272.01529 
L 110.148443 273.527216 
L 110.214712 266.618228 
L 110.280982 128.436831 
L 110.413521 288.868756 
L 110.479791 287.670533 
L 110.54606 288.142206 
L 110.678599 289.969673 
L 110.744869 289.668336 
L 110.811138 289.827321 
L 110.943678 291.816001 
L 111.009947 291.71457 
L 111.076217 291.804897 
L 111.275025 292.979595 
L 111.341295 292.541135 
L 111.540104 293.600604 
L 111.606373 293.524977 
L 111.738912 294.156495 
L 111.871451 294.000418 
L 111.937721 293.952489 
L 112.13653 294.276744 
L 112.269069 294.116866 
L 112.335338 294.335556 
L 112.401608 294.231336 
L 112.467877 294.03485 
L 112.600416 294.272923 
L 112.666686 293.018329 
L 112.732956 294.831648 
L 112.799225 294.703382 
L 112.931764 294.816474 
L 113.064303 294.710435 
L 113.196842 294.540869 
L 113.263112 294.580542 
L 113.329382 294.411766 
L 113.395651 294.685847 
L 113.461921 294.634939 
L 113.59446 294.507846 
L 113.726999 294.775537 
L 113.793268 294.646561 
L 113.925807 294.850475 
L 114.058347 294.849828 
L 114.124616 294.980086 
L 114.190886 294.943385 
L 114.323425 294.831788 
L 114.389694 294.988626 
L 114.522233 294.801963 
L 114.588503 294.921329 
L 114.654773 294.86066 
L 114.919851 294.289222 
L 114.98612 294.543304 
L 115.05239 294.422819 
L 115.118659 293.486672 
L 115.184929 294.659883 
L 115.251199 294.518007 
L 115.847625 293.36389 
L 115.980164 292.795504 
L 116.046433 293.33116 
L 116.245242 292.114855 
L 116.311511 292.543423 
L 116.377781 291.856713 
L 116.444051 291.913015 
L 116.51032 292.296435 
L 116.57659 292.138354 
L 116.907937 289.464416 
L 116.974207 288.548692 
L 117.173016 282.57818 
L 117.239285 283.66664 
L 117.438094 274.473227 
L 117.504363 277.444611 
L 117.570633 178.401476 
L 117.703172 289.506141 
L 117.769442 286.949085 
L 117.835711 288.368305 
L 117.96825 290.570296 
L 118.03452 290.545859 
L 118.100789 290.8144 
L 118.299598 292.289539 
L 118.697215 293.716282 
L 118.829754 293.478486 
L 119.094833 293.841446 
L 119.161102 294.23558 
L 119.227372 294.131814 
L 119.890067 294.855977 
L 119.956337 294.156193 
L 120.022606 294.289473 
L 120.155146 295.120309 
L 120.221415 294.985482 
L 120.287685 294.845191 
L 120.420224 295.155786 
L 120.619032 294.908482 
L 120.751572 294.998411 
L 120.95038 295.143052 
L 121.149189 294.849326 
L 121.347998 295.407508 
L 121.480537 295.187084 
L 121.679345 295.436555 
L 121.811884 295.29593 
L 121.944424 295.366293 
L 122.010693 294.903244 
L 122.076963 294.953745 
L 122.143232 295.038146 
L 122.275771 294.814852 
L 122.342041 294.988319 
L 122.40831 294.045822 
L 122.54085 295.38115 
L 122.673389 294.824705 
L 122.739658 294.904072 
L 122.805928 294.279723 
L 122.872197 294.372138 
L 123.004736 294.597137 
L 123.137276 293.864826 
L 123.203545 293.979877 
L 123.269815 293.780507 
L 123.402354 292.926637 
L 123.468623 293.358421 
L 123.601162 291.893522 
L 123.667432 292.076971 
L 123.733701 292.004631 
L 123.799971 292.899949 
L 123.866241 290.170895 
L 123.93251 290.39415 
L 123.99878 290.302506 
L 124.197588 286.714475 
L 124.330127 285.300066 
L 124.396397 285.464745 
L 124.462667 285.435546 
L 124.727745 276.876682 
L 124.794014 260.123111 
L 124.860284 206.882234 
L 124.992823 289.774963 
L 125.059093 289.351291 
L 125.257901 292.094169 
L 125.324171 291.637776 
L 125.39044 291.679293 
L 125.522979 293.220218 
L 125.589249 293.00581 
L 125.854327 293.743096 
L 125.986866 294.045784 
L 126.053136 293.925878 
L 126.251945 294.215147 
L 126.450753 294.125257 
L 126.649562 294.40211 
L 126.782101 294.20014 
L 126.98091 294.506664 
L 127.047179 294.476793 
L 127.113449 294.65121 
L 127.245988 293.783755 
L 127.312257 294.053879 
L 127.378527 294.212239 
L 127.444797 294.681769 
L 127.511066 294.654218 
L 127.643605 294.492485 
L 127.776144 294.78202 
L 127.974953 294.638852 
L 128.107492 294.564348 
L 128.173762 294.77543 
L 128.240031 294.753193 
L 128.43884 294.297328 
L 128.505109 294.589634 
L 128.571379 294.491663 
L 128.637648 294.62039 
L 128.703918 294.520701 
L 128.770188 294.31234 
L 128.968996 294.696893 
L 129.167805 294.383366 
L 129.234074 294.597794 
L 129.300344 294.540605 
L 129.366614 294.531225 
L 129.565422 294.142958 
L 129.631692 294.163093 
L 129.697961 293.131262 
L 129.764231 295.202697 
L 129.8305 294.470458 
L 129.89677 294.485451 
L 130.029309 295.067963 
L 130.095579 294.836699 
L 130.161848 294.446676 
L 130.228118 294.570032 
L 130.360657 294.71411 
L 130.426926 294.651794 
L 130.625735 293.89299 
L 130.692005 294.201863 
L 130.758274 293.980522 
L 130.824544 294.078193 
L 131.155892 293.631336 
L 131.222161 293.513664 
L 131.288431 293.0426 
L 131.3547 293.327971 
L 131.42097 293.747209 
L 131.553509 293.456699 
L 131.619778 293.573398 
L 131.686048 293.11524 
L 131.752318 293.429343 
L 131.884857 293.905189 
L 131.951126 294.606891 
L 132.017396 293.99647 
L 132.149935 283.543301 
L 132.282474 291.656629 
L 132.481283 294.509482 
L 132.547552 294.027201 
L 132.613822 294.211148 
L 132.680091 294.73505 
L 132.746361 294.606343 
L 133.143978 294.963502 
L 133.342787 294.896851 
L 133.409056 295.066804 
L 133.475326 294.959343 
L 133.541596 294.801503 
L 133.674135 295.033916 
L 133.872943 294.897821 
L 133.939213 295.006539 
L 134.005482 294.916313 
L 134.071752 294.787415 
L 134.138021 294.823048 
L 134.535639 295.140241 
L 134.601908 294.272025 
L 134.668178 294.898851 
L 134.734447 294.867717 
L 134.933256 295.055417 
L 135.065795 294.99559 
L 135.264604 294.995143 
L 135.397143 295.064548 
L 135.728491 294.828373 
L 136.059839 295.161015 
L 136.126108 295.223743 
L 136.258647 295.078102 
L 136.324917 294.587653 
L 136.391186 294.919259 
L 136.788804 295.050922 
L 136.855073 295.33119 
L 136.921343 295.185914 
L 136.987612 294.628085 
L 137.053882 294.708348 
L 137.186421 294.911573 
L 137.517769 294.032902 
L 137.584038 294.168615 
L 137.650308 294.671683 
L 137.716577 294.482981 
L 137.849117 293.545357 
L 137.915386 293.733115 
L 137.981656 293.962809 
L 138.047925 293.34689 
L 138.114195 294.089346 
L 138.180464 293.671378 
L 138.379273 291.30977 
L 138.445543 291.631207 
L 138.511812 291.922182 
L 138.77689 291.054085 
L 138.975699 285.752144 
L 139.041968 289.943243 
L 139.108238 287.349085 
L 139.174508 287.354602 
L 139.240777 284.494244 
L 139.307047 284.657893 
L 139.373316 288.737117 
L 139.439586 263.428956 
L 139.638394 293.822919 
L 139.704664 295.326795 
L 139.770934 295.160086 
L 139.837203 295.403191 
L 139.969742 294.778722 
L 140.168551 295.206717 
L 140.23482 295.12119 
L 140.36736 295.193101 
L 140.499899 295.0379 
L 140.566168 295.136115 
L 140.632438 295.167479 
L 140.698707 295.030884 
L 140.764977 295.064056 
L 140.897516 295.273664 
L 140.963786 295.17978 
L 141.030055 295.24806 
L 141.295133 295.278572 
L 141.493942 295.336482 
L 141.626481 295.246611 
L 141.692751 295.029983 
L 141.75902 295.274965 
L 141.82529 293.781918 
L 141.891559 294.220889 
L 141.957829 295.40732 
L 142.024098 294.997615 
L 142.222907 295.269331 
L 142.289177 295.159686 
L 142.355446 295.202184 
L 142.554255 295.219225 
L 142.819333 295.115409 
L 142.951872 295.098161 
L 143.21695 294.968297 
L 143.28322 294.93095 
L 143.34949 295.060213 
L 143.482029 294.719648 
L 143.548298 294.840917 
L 143.680837 295.03228 
L 144.078455 294.525109 
L 144.144724 294.986823 
L 144.210994 294.901748 
L 144.343533 293.741646 
L 144.476072 294.436097 
L 144.542341 294.155249 
L 144.608611 294.240033 
L 144.674881 294.61808 
L 144.873689 294.062493 
L 144.939959 294.568212 
L 145.006228 294.31393 
L 145.271307 293.891098 
L 145.470115 294.145041 
L 145.602654 293.05253 
L 145.668924 291.643794 
L 145.735193 292.38702 
L 145.801463 292.720464 
L 145.867733 292.398129 
L 146.000272 290.824179 
L 146.066541 291.1732 
L 146.26535 287.538253 
L 146.331619 287.960875 
L 146.397889 285.081345 
L 146.464159 285.846035 
L 146.596698 283.934599 
L 146.662967 279.951035 
L 146.729237 245.091046 
L 146.861776 293.733396 
L 146.928045 293.944725 
L 146.994315 293.618275 
L 147.126854 294.669049 
L 147.193124 294.011377 
L 147.259393 294.043035 
L 147.391932 294.823461 
L 147.458202 294.751216 
L 147.590741 294.95431 
L 147.657011 294.836531 
L 147.72328 294.673479 
L 147.855819 294.886345 
L 147.988358 294.86778 
L 148.120897 295.079659 
L 148.253437 294.901211 
L 148.452245 295.076796 
L 148.717323 295.221667 
L 149.048671 295.237368 
L 149.114941 294.32261 
L 149.18121 294.875184 
L 149.380019 295.457867 
L 149.578828 295.361902 
L 149.711367 295.355796 
L 149.910175 295.381835 
L 151.169297 295.217318 
L 151.301836 295.100358 
L 151.368106 295.297951 
L 151.434375 295.183866 
L 151.633184 294.283159 
L 151.831992 294.669783 
L 151.898262 294.378141 
L 151.964532 294.484711 
L 152.030801 294.447146 
L 152.295879 293.210617 
L 152.362149 293.241842 
L 152.428418 293.661766 
L 152.494688 293.042333 
L 152.560958 293.435597 
L 152.693497 292.625072 
L 152.759766 293.076967 
L 152.958575 291.065828 
L 153.091114 291.622464 
L 153.422462 288.087579 
L 153.488731 286.022027 
L 153.555001 289.115934 
L 153.62127 287.549861 
L 153.753809 281.482571 
L 153.820079 281.898861 
L 153.886349 283.757679 
L 153.952618 276.072162 
L 154.018888 243.84459 
L 154.151427 291.740217 
L 154.217696 294.534824 
L 154.283966 293.992898 
L 154.350235 294.644987 
L 154.482775 293.826996 
L 154.549044 293.900554 
L 154.681583 294.983737 
L 154.747853 294.865525 
L 154.946661 294.394948 
L 155.012931 294.456812 
L 155.21174 294.723554 
L 155.278009 294.677518 
L 155.410548 294.854787 
L 155.543087 294.884586 
L 155.808166 295.071064 
L 155.874435 295.068226 
L 155.940705 294.863596 
L 156.006974 294.910379 
L 156.073244 295.0428 
L 156.139513 294.933933 
L 156.338322 295.022379 
L 156.404592 293.460143 
L 156.470861 294.162641 
L 156.66967 295.201647 
L 156.735939 295.033054 
L 156.802209 295.140585 
L 156.934748 295.266137 
L 157.067287 295.166025 
L 157.199826 295.196583 
L 157.332365 295.232303 
L 157.531174 295.34097 
L 157.729983 295.313345 
L 158.061331 295.273872 
L 158.1276 295.154303 
L 158.19387 295.26049 
L 158.260139 295.315503 
L 158.326409 295.232903 
L 158.724026 295.173136 
L 158.922835 293.890026 
L 159.055374 294.435952 
L 159.121643 294.289238 
L 159.254182 293.768724 
L 159.320452 294.23064 
L 159.386722 293.080575 
L 159.452991 293.462346 
L 159.519261 292.972897 
L 159.58553 293.066312 
L 159.6518 292.886211 
L 159.718069 292.256847 
L 159.784339 293.227041 
L 159.850608 292.886081 
L 160.115687 291.636606 
L 160.181956 292.110322 
L 160.314495 291.61995 
L 160.380765 291.654447 
L 160.645843 292.249033 
L 160.712113 290.537655 
L 160.778382 291.495858 
L 160.844652 291.628061 
L 160.977191 289.607596 
L 161.04346 291.005881 
L 161.10973 289.88047 
L 161.176 289.960518 
L 161.242269 291.634104 
L 161.308539 283.611869 
L 161.507347 294.154282 
L 161.573617 295.201661 
L 161.639886 295.149515 
L 161.706156 294.965622 
L 161.971234 295.37553 
L 162.170043 295.383546 
L 162.56766 295.417838 
L 162.700199 295.369876 
L 162.766469 295.404293 
L 162.832738 295.2365 
L 162.899008 295.334693 
L 163.031547 295.366707 
L 163.097817 295.262575 
L 163.164086 295.350161 
L 163.627973 295.431244 
L 163.760512 295.079951 
L 163.893051 295.353698 
L 164.02559 295.345864 
L 164.224399 295.431957 
L 164.423208 295.416389 
L 165.483521 295.321208 
L 165.881138 295.308983 
L 166.013677 295.095682 
L 166.212486 294.726524 
L 166.345025 294.94893 
L 166.543833 294.423877 
L 166.610103 293.96991 
L 166.742642 294.702937 
L 166.808912 294.609638 
L 166.875181 294.533024 
L 167.140259 293.647321 
L 167.206529 293.611645 
L 167.272799 293.306878 
L 167.339068 293.776961 
L 167.405338 293.352497 
L 167.471607 293.575993 
L 167.537877 294.282173 
L 167.670416 292.681587 
L 167.869225 293.111616 
L 168.001764 292.447622 
L 168.068033 292.591785 
L 168.200572 293.586919 
L 168.266842 293.516899 
L 168.399381 293.031914 
L 168.465651 294.764809 
L 168.59819 277.159448 
L 168.730729 293.816591 
L 169.194616 295.358633 
L 169.260885 295.390382 
L 169.393424 295.148597 
L 170.05612 295.397869 
L 170.254928 294.932249 
L 170.321198 295.136032 
L 170.387468 295.077136 
L 170.520007 294.974483 
L 170.652546 295.139235 
L 170.785085 295.172598 
L 171.050163 295.032337 
L 171.58032 295.261634 
L 171.712859 295.26036 
L 171.977937 295.287685 
L 172.044206 295.153999 
L 172.110476 295.19323 
L 172.574363 295.09177 
L 172.706902 294.98487 
L 172.839441 295.106609 
L 172.97198 294.967888 
L 173.104519 294.632756 
L 173.170789 294.880904 
L 173.237058 294.976503 
L 173.303328 294.923296 
L 173.369598 294.636135 
L 173.435867 295.236783 
L 173.502137 294.196809 
L 173.568406 294.281133 
L 173.634676 294.154286 
L 173.767215 293.66236 
L 173.833484 294.175884 
L 173.966023 293.416709 
L 174.032293 293.494329 
L 174.098563 294.025753 
L 174.164832 293.992458 
L 174.297371 292.915182 
L 174.363641 293.364121 
L 174.42991 292.577241 
L 174.49618 293.480956 
L 174.562449 293.020886 
L 174.761258 293.913257 
L 174.960067 294.194456 
L 175.026336 294.134751 
L 175.357684 294.874924 
L 175.423954 295.385772 
L 175.755301 292.238265 
L 175.887841 284.868639 
L 176.02038 294.121215 
L 176.086649 294.109645 
L 176.484267 295.27775 
L 176.683075 295.358033 
L 176.815614 295.376337 
L 177.47831 295.196173 
L 177.677119 295.236596 
L 178.207275 295.368836 
L 178.538623 295.391052 
L 178.737431 295.365631 
L 178.93624 295.426031 
L 179.068779 295.412696 
L 179.333857 295.154693 
L 179.797744 295.230403 
L 179.930283 295.082089 
L 179.996553 295.068308 
L 180.129092 295.213391 
L 180.261631 294.934271 
L 180.327901 294.991289 
L 180.46044 295.110603 
L 180.526709 295.008506 
L 180.725518 294.926462 
L 180.924327 294.474315 
L 180.990596 294.454753 
L 181.056866 294.284104 
L 181.189405 294.601346 
L 181.255674 294.566272 
L 181.587022 293.89825 
L 181.719561 294.405889 
L 181.785831 294.158161 
L 181.98464 294.670916 
L 182.249718 295.02792 
L 182.448526 295.107333 
L 182.713605 293.751725 
L 183.044952 288.469404 
L 183.111222 283.355905 
L 183.177492 285.128042 
L 183.243761 294.594388 
L 183.310031 293.589814 
L 183.3763 293.61678 
L 183.773917 295.103948 
L 184.038996 295.328435 
L 184.171535 295.23503 
L 184.701691 295.320459 
L 184.767961 295.249755 
L 184.9005 295.375503 
L 185.033039 295.371225 
L 185.099309 295.440202 
L 185.165578 295.358041 
L 185.496926 295.210604 
L 185.563195 295.427697 
L 185.629465 294.906234 
L 185.695735 295.172859 
L 185.960813 295.328629 
L 186.093352 295.069468 
L 186.159621 295.127324 
L 186.292161 295.290597 
L 186.4247 295.172489 
L 187.087395 295.157346 
L 187.219934 295.019687 
L 187.352473 295.037183 
L 187.418743 294.791928 
L 187.485013 294.840188 
L 187.617552 294.917198 
L 187.750091 294.759329 
L 187.81636 295.012177 
L 187.948899 294.420118 
L 188.015169 295.286517 
L 188.081439 294.475582 
L 188.147708 294.773778 
L 188.412786 294.545262 
L 188.545325 294.781952 
L 188.611595 294.608846 
L 188.677864 294.73348 
L 188.744134 294.849871 
L 188.810404 294.651653 
L 189.009212 294.935497 
L 189.141751 295.11369 
L 189.34056 294.502999 
L 189.473099 294.759856 
L 189.804447 293.026932 
L 189.870716 293.637289 
L 190.334603 288.163575 
L 190.400873 283.37768 
L 190.467142 286.130521 
L 190.533412 293.892009 
L 190.599682 292.883007 
L 191.063568 295.398055 
L 191.129838 295.443791 
L 191.394916 295.091398 
L 191.461186 295.230194 
L 191.527455 295.167771 
L 191.659994 295.214203 
L 191.726264 295.1043 
L 191.792534 295.187348 
L 191.858803 295.271873 
L 191.991342 295.131582 
L 192.190151 295.298373 
L 192.32269 295.263221 
L 192.455229 295.373649 
L 192.521499 295.230507 
L 192.587768 295.304651 
L 192.852846 295.107981 
L 192.919116 295.27561 
L 192.985386 295.235933 
L 193.117925 295.301282 
L 193.250464 295.234754 
L 193.316733 295.091558 
L 193.383003 295.170953 
L 193.714351 295.058425 
L 193.84689 294.956564 
L 194.178237 295.074554 
L 194.642124 294.916755 
L 194.840933 294.653406 
L 194.973472 294.643569 
L 195.039742 294.829856 
L 195.106011 294.689985 
L 195.172281 294.786449 
L 195.23855 294.469104 
L 195.30482 295.102079 
L 195.371089 294.536751 
L 195.437359 294.572695 
L 195.569898 294.741763 
L 195.636168 294.941998 
L 195.702437 294.612993 
L 195.768707 294.701292 
L 195.901246 294.996366 
L 196.166324 294.73017 
L 196.82902 292.958943 
L 196.895289 293.107341 
L 197.094098 290.762935 
L 197.226637 289.868557 
L 197.292907 290.555022 
L 197.359176 289.17779 
L 197.425446 289.746518 
L 197.557985 287.165546 
L 197.624254 283.080116 
L 197.690524 271.69837 
L 197.756793 275.680005 
L 197.889333 291.568329 
L 198.22068 295.181833 
L 198.419489 294.907029 
L 198.485759 294.966114 
L 198.618298 295.039616 
L 198.684567 295.016117 
L 198.883376 295.345524 
L 200.009958 295.409115 
L 200.208767 295.091902 
L 200.407576 295.368297 
L 200.606384 295.203446 
L 200.871462 295.210634 
L 201.136541 294.982675 
L 201.20281 294.983674 
L 201.401619 295.184875 
L 201.666697 294.935359 
L 201.799236 295.113611 
L 201.865506 295.016507 
L 201.931775 294.651959 
L 201.998045 294.737998 
L 202.263123 294.713416 
L 202.528201 294.628417 
L 202.594471 295.006794 
L 202.66074 294.86656 
L 202.79328 294.647201 
L 202.925819 294.941074 
L 202.992088 294.903789 
L 203.124627 294.883479 
L 203.190897 294.942127 
L 203.721053 293.563218 
L 203.787323 293.138688 
L 203.853592 293.183071 
L 203.919862 293.252925 
L 203.986131 292.961506 
L 204.118671 287.882175 
L 204.18494 289.672496 
L 204.25121 291.695246 
L 204.317479 291.044613 
L 204.450018 288.659463 
L 204.582557 291.703293 
L 204.781366 287.49119 
L 204.913905 282.40148 
L 204.980175 271.947235 
L 205.046444 277.687605 
L 205.245253 292.568786 
L 205.444062 294.939035 
L 205.510331 295.258838 
L 205.64287 294.68574 
L 205.70914 294.730513 
L 205.974218 295.212483 
L 206.040488 295.394716 
L 206.106757 295.33662 
L 206.239296 295.357327 
L 206.371835 295.368985 
L 206.703183 295.372489 
L 206.769453 295.488 
L 206.835722 295.389737 
L 207.034531 295.359342 
L 207.299609 295.342503 
L 207.498418 295.099087 
L 207.564687 295.26977 
L 207.763496 295.395822 
L 208.028574 295.355593 
L 208.227383 295.250076 
L 208.359922 295.312808 
L 208.492461 295.264427 
L 208.625 295.313385 
L 208.757539 295.183404 
L 209.155157 295.215743 
L 209.287696 295.057724 
L 209.420235 295.102114 
L 209.552774 294.862323 
L 209.619044 294.903205 
L 209.685313 294.632647 
L 209.751583 294.775153 
L 209.884122 294.754668 
L 209.950391 295.053143 
L 210.016661 294.974391 
L 210.08293 294.728711 
L 210.1492 294.756193 
L 210.21547 295.024154 
L 210.281739 294.832073 
L 210.348009 294.973297 
L 210.414278 294.861679 
L 210.613087 294.397792 
L 210.679356 294.042546 
L 210.745626 294.110123 
L 210.878165 294.485421 
L 211.010704 293.727194 
L 211.076974 294.004714 
L 211.143243 293.7429 
L 211.275782 292.371032 
L 211.342052 293.572585 
L 211.408322 293.534557 
L 211.540861 292.329015 
L 211.60713 293.312539 
L 211.805939 291.478269 
L 211.938478 291.254922 
L 212.071017 290.036665 
L 212.336095 274.793468 
L 212.534904 293.53831 
L 212.799982 295.210357 
L 212.932521 294.582184 
L 212.998791 294.738012 
L 213.06506 295.248128 
L 213.13133 295.112996 
L 213.528947 295.39669 
L 213.595217 295.241821 
L 213.661486 295.279471 
L 213.727756 295.434956 
L 213.794025 295.330714 
L 213.926565 295.210041 
L 214.059104 295.379028 
L 214.191643 295.270037 
L 214.390451 295.318847 
L 214.522991 295.323229 
L 214.65553 295.415063 
L 214.721799 295.066735 
L 214.788069 295.267536 
L 215.185686 295.235325 
L 215.318225 295.331568 
L 215.517034 295.232089 
L 215.848382 295.32133 
L 216.444808 295.228679 
L 216.577347 295.055117 
L 216.643616 295.139056 
L 216.842425 294.766933 
L 216.908695 294.995967 
L 217.173773 293.683331 
L 217.306312 294.795631 
L 217.438851 294.475167 
L 217.505121 293.602445 
L 217.57139 294.13654 
L 217.63766 294.393097 
L 217.703929 294.02392 
L 217.770199 294.131615 
L 217.836468 294.505873 
L 217.902738 294.330231 
L 218.167816 293.566606 
L 218.234086 293.601723 
L 218.300355 293.835949 
L 218.432894 293.170504 
L 218.499164 293.265021 
L 218.565433 292.541529 
L 218.631703 292.765916 
L 218.764242 293.075118 
L 218.830512 292.216106 
L 218.896781 292.703391 
L 218.963051 292.196699 
L 219.02932 292.334458 
L 219.09559 292.559345 
L 219.161859 293.792328 
L 219.228129 293.494817 
L 219.360668 292.188317 
L 219.493207 288.822793 
L 219.625746 278.050298 
L 219.824555 295.133688 
L 219.957094 294.467333 
L 220.023364 294.487631 
L 220.089633 293.97658 
L 220.155903 294.227345 
L 220.222172 294.014186 
L 220.48725 294.961894 
L 220.55352 295.124329 
L 220.686059 294.876153 
L 220.752329 294.930365 
L 220.884868 295.022175 
L 221.348755 295.090155 
L 221.680102 295.168411 
L 221.878911 295.1597 
L 221.945181 295.267421 
L 222.01145 294.921491 
L 222.143989 295.443887 
L 222.276528 295.348084 
L 222.409068 295.416934 
L 222.607876 295.422127 
L 222.806685 295.460399 
L 223.336841 295.286805 
L 223.46938 295.180535 
L 223.668189 295.222483 
L 223.866998 294.909428 
L 223.999537 294.931369 
L 224.463424 293.658982 
L 224.595963 294.453318 
L 224.728502 294.292679 
L 225.192389 293.126105 
L 225.324928 291.836064 
L 225.391197 293.912794 
L 225.457467 293.435356 
L 225.722545 291.966785 
L 225.788815 292.08912 
L 225.855084 291.476844 
L 225.987623 292.323141 
L 226.186432 291.363252 
L 226.252702 291.569512 
L 226.318971 292.801407 
L 226.385241 291.600087 
L 226.45151 292.161183 
L 226.51778 291.732344 
L 226.849128 283.008489 
L 226.915397 278.871167 
L 227.114206 294.357042 
L 227.180475 295.135562 
L 227.246745 295.022417 
L 227.313015 295.372833 
L 227.445554 294.054312 
L 227.511823 294.207074 
L 227.644362 295.213428 
L 227.710632 295.020842 
L 227.776901 294.991566 
L 227.909441 295.204469 
L 227.97571 295.051334 
L 228.174519 295.313344 
L 228.505867 295.248605 
L 228.638406 295.340435 
L 228.770945 295.318252 
L 229.102292 295.437385 
L 229.168562 295.375775 
L 229.234832 295.448223 
L 229.301101 294.546719 
L 229.367371 295.143048 
L 229.49991 295.24179 
L 229.632449 295.236874 
L 229.698718 295.204908 
L 229.831258 295.353105 
L 230.162605 295.257089 
L 230.427684 295.231715 
L 230.560223 295.131197 
L 230.626492 295.229151 
L 230.692762 295.181911 
L 230.825301 295.094934 
L 230.95784 295.11956 
L 231.02411 295.074755 
L 231.090379 294.790129 
L 231.156649 294.887007 
L 231.222918 294.9713 
L 231.355457 294.76618 
L 231.487996 294.828433 
L 231.753075 293.568006 
L 231.885614 294.731691 
L 232.150692 294.186298 
L 232.283231 294.381057 
L 232.349501 294.156538 
L 232.41577 294.329108 
L 232.680848 293.816227 
L 232.747118 293.903856 
L 232.813388 293.83567 
L 232.879657 293.397489 
L 232.945927 293.81685 
L 233.012196 293.539262 
L 233.078466 293.185125 
L 233.144735 293.529586 
L 233.211005 293.464082 
L 233.277274 293.138462 
L 233.343544 293.28093 
L 233.608622 293.883118 
L 233.807431 294.463021 
L 234.006239 291.245042 
L 234.072509 289.361128 
L 234.205048 277.328185 
L 234.403857 295.162409 
L 234.536396 294.713553 
L 234.602665 295.08781 
L 234.735205 294.39759 
L 234.801474 294.460026 
L 234.934013 295.095756 
L 235.000283 294.895287 
L 235.066552 295.027943 
L 235.132822 295.110694 
L 235.199091 295.021036 
L 235.265361 294.905776 
L 235.3979 295.219328 
L 235.46417 295.188107 
L 236.524483 295.193873 
L 236.590752 293.9587 
L 236.657022 294.618824 
L 236.85583 295.338851 
L 236.988369 295.224132 
L 237.120909 295.332945 
L 237.253448 295.249741 
L 237.518526 295.323985 
L 237.651065 295.325112 
L 238.114952 295.055944 
L 238.247491 295.10219 
L 238.910186 294.342799 
L 238.976456 294.520175 
L 239.042726 293.109605 
L 239.108995 294.818464 
L 239.175265 294.730275 
L 239.374073 294.112717 
L 239.506612 294.291715 
L 239.572882 294.156323 
L 239.639152 294.191039 
L 239.705421 293.502306 
L 239.771691 293.975442 
L 239.83796 293.761933 
L 239.970499 294.394766 
L 240.036769 294.197363 
L 240.103038 293.94093 
L 240.235578 293.086301 
L 240.434386 292.69218 
L 240.500656 292.936615 
L 240.566925 292.486465 
L 240.633195 292.718671 
L 240.699464 292.911703 
L 240.765734 292.271882 
L 240.832004 292.445923 
L 240.898273 292.288113 
L 241.030812 294.158914 
L 241.36216 289.348544 
L 241.42843 278.36361 
L 241.494699 278.535901 
L 241.693508 294.517466 
L 241.759777 294.210261 
L 241.892316 295.13034 
L 242.024856 294.293201 
L 242.091125 294.517023 
L 242.157395 295.182821 
L 242.223664 295.052247 
L 242.289934 294.768211 
L 242.422473 295.177628 
L 242.488742 295.07568 
L 242.555012 295.050647 
L 242.687551 295.277723 
L 242.753821 295.237063 
L 242.952629 295.26472 
L 243.085168 295.289015 
L 243.350247 295.287245 
L 243.482786 295.23637 
L 243.615325 295.408184 
L 243.747864 295.296909 
L 243.814133 295.355755 
L 243.880403 294.397791 
L 243.946673 295.018632 
L 244.012942 295.05518 
L 244.145481 295.347971 
L 244.27802 295.2438 
L 244.410559 295.306497 
L 244.543099 295.279591 
L 244.808177 295.348621 
L 244.874446 295.374058 
L 245.073255 295.136466 
L 245.205794 295.142485 
L 245.404603 295.040007 
L 245.537142 295.008443 
L 245.603411 294.926776 
L 245.669681 295.041781 
L 245.934759 294.711487 
L 246.067298 294.944102 
L 246.133568 295.092918 
L 246.332377 293.269655 
L 246.398646 294.78305 
L 246.464916 294.674377 
L 246.531185 294.444643 
L 246.729994 294.792832 
L 246.796263 294.972179 
L 246.995072 294.634402 
L 247.061342 294.785959 
L 247.127611 294.52222 
L 247.193881 294.542891 
L 247.32642 294.728541 
L 247.392689 294.738501 
L 247.525229 294.115558 
L 247.591498 294.183623 
L 247.657768 294.540892 
L 247.724037 294.478931 
L 248.055385 293.649863 
L 248.254194 294.843977 
L 248.320463 294.7587 
L 248.651811 292.765759 
L 248.78435 281.508684 
L 248.916889 293.815391 
L 249.049428 294.073743 
L 249.181967 295.021423 
L 249.314506 294.748942 
L 249.447046 295.31818 
L 249.579585 294.944903 
L 249.712124 295.176659 
L 249.778393 295.11596 
L 249.910932 295.24848 
L 250.109741 295.24713 
L 250.507358 295.197982 
L 250.639898 295.18922 
L 250.706167 295.152236 
L 250.838706 295.397204 
L 250.904976 295.33235 
L 250.971245 295.259122 
L 251.103784 295.331101 
L 251.170054 294.440785 
L 251.236324 294.975856 
L 251.435132 295.273321 
L 251.567671 295.146703 
L 251.70021 295.270254 
L 251.83275 295.265423 
L 252.097828 295.329207 
L 252.429176 295.07068 
L 252.561715 295.034772 
L 252.893062 294.825803 
L 253.025602 294.969624 
L 253.158141 294.706176 
L 253.489488 294.783519 
L 253.555758 295.331976 
L 253.622028 294.304985 
L 253.688297 294.899292 
L 253.754567 294.620567 
L 253.953375 295.188015 
L 254.085914 294.917969 
L 254.152184 295.111953 
L 254.284723 295.200405 
L 254.616071 294.971909 
L 254.68234 294.85023 
L 254.74861 294.989301 
L 254.947419 294.685625 
L 255.013688 294.763122 
L 255.278766 294.52751 
L 255.411305 294.328085 
L 255.543845 294.719183 
L 255.610114 294.496107 
L 255.742653 294.895907 
L 255.941462 293.958739 
L 256.007731 286.473181 
L 256.074001 286.782873 
L 256.27281 294.440361 
L 256.339079 294.529962 
L 256.471618 295.324592 
L 256.537888 295.213713 
L 256.604157 295.18701 
L 256.736697 295.361665 
L 256.869236 295.163148 
L 257.068044 295.304933 
L 257.333123 295.380175 
L 257.66447 295.336853 
L 257.797009 295.288605 
L 257.929549 295.312207 
L 257.995818 295.237104 
L 258.128357 295.361584 
L 258.260896 295.347076 
L 258.327166 295.445683 
L 258.459705 294.623942 
L 258.525975 294.944289 
L 258.658514 295.296036 
L 258.724783 295.258241 
L 258.857322 295.123351 
L 258.989861 295.239768 
L 259.1224 295.228131 
L 259.321209 295.247289 
L 259.453748 295.237167 
L 259.586287 295.062613 
L 259.718826 295.035483 
L 259.851366 295.101753 
L 260.6466 294.881099 
L 260.845409 295.314176 
L 260.911678 294.503686 
L 260.977948 294.908884 
L 261.044218 294.813929 
L 261.110487 294.885682 
L 261.309296 295.423777 
L 261.441835 295.134809 
L 261.574374 295.167872 
L 261.773183 295.040053 
L 261.905722 295.110937 
L 261.971991 294.69379 
L 262.038261 294.713197 
L 262.1708 294.641098 
L 262.23707 294.26554 
L 262.303339 294.358367 
L 262.369609 294.365698 
L 262.700956 293.575536 
L 262.833496 293.926685 
L 262.899765 293.45084 
L 263.098574 295.298698 
L 263.164843 294.865975 
L 263.231113 294.178069 
L 263.297382 278.199432 
L 263.363652 284.67151 
L 263.496191 294.73451 
L 263.562461 294.673133 
L 263.62873 294.156246 
L 263.827539 295.14739 
L 263.893808 295.056247 
L 264.026347 295.378979 
L 264.092617 295.275048 
L 264.225156 295.226441 
L 264.556504 295.377867 
L 264.755313 295.378164 
L 264.821582 295.466776 
L 264.887852 295.390468 
L 264.954121 295.260704 
L 265.020391 295.31367 
L 265.15293 295.365153 
L 265.285469 295.204459 
L 265.418008 295.465933 
L 265.683086 295.201428 
L 265.749356 294.501662 
L 265.948165 295.363257 
L 266.146973 295.239366 
L 266.412051 295.477315 
L 266.61086 295.230823 
L 266.743399 295.189311 
L 266.942208 295.083348 
L 267.074747 295.094065 
L 267.406095 294.878097 
L 267.671173 295.037123 
L 267.803712 294.988271 
L 267.869982 294.687364 
L 268.06879 295.335067 
L 268.13506 295.189078 
L 268.201329 294.664402 
L 268.267599 295.079385 
L 268.333869 294.958901 
L 268.466408 295.301354 
L 268.532677 295.258888 
L 268.665216 295.080842 
L 268.864025 295.273763 
L 269.062834 295.082658 
L 269.195373 295.035694 
L 269.261642 294.871625 
L 269.327912 295.102332 
L 269.394181 295.001374 
L 269.924338 293.983017 
L 269.990607 293.971493 
L 270.123146 294.246831 
L 270.189416 294.117001 
L 270.388225 295.415773 
L 270.520764 294.531787 
L 270.587033 282.882235 
L 270.653303 287.937573 
L 270.852112 295.316502 
L 270.984651 294.596378 
L 271.183459 295.115105 
L 271.382268 295.361349 
L 271.448538 295.276177 
L 271.713616 295.241107 
L 272.840198 295.377979 
L 273.039007 294.986674 
L 273.171546 295.427763 
L 273.370355 295.434879 
L 273.767972 295.443223 
L 274.03305 295.186759 
L 274.364398 295.273709 
L 274.563207 295.196482 
L 274.695746 295.191976 
L 275.358441 295.408934 
L 275.424711 295.263915 
L 275.49098 294.83153 
L 275.55725 295.30242 
L 275.623519 295.202944 
L 276.087406 295.323793 
L 276.485024 295.010863 
L 276.617563 295.108012 
L 276.683832 295.065113 
L 276.882641 294.728612 
L 277.01518 294.922258 
L 277.280258 294.284683 
L 277.346528 294.517505 
L 277.479067 294.721134 
L 277.545337 294.455649 
L 277.611606 294.519931 
L 277.677876 294.599137 
L 277.744145 294.416188 
L 277.810415 293.879632 
L 277.876684 287.902415 
L 277.942954 290.964919 
L 278.141763 295.23296 
L 278.274302 294.74008 
L 278.47311 295.319092 
L 278.605649 295.320618 
L 278.738188 295.287311 
L 278.870728 295.23617 
L 279.135806 295.317085 
L 280.06358 295.414757 
L 280.262388 295.322864 
L 280.328658 295.037951 
L 280.394927 295.420751 
L 280.461197 295.394825 
L 281.256432 295.376597 
L 281.388971 295.373674 
L 281.654049 295.382156 
L 282.714362 295.354084 
L 282.780631 295.101752 
L 282.846901 295.394294 
L 282.91317 295.331839 
L 283.04571 295.395718 
L 283.178249 295.40095 
L 284.106022 295.23182 
L 284.304831 294.900617 
L 284.569909 294.839023 
L 284.834987 294.844494 
L 284.901257 294.73715 
L 284.967527 294.966977 
L 285.033796 294.926754 
L 285.100066 294.737907 
L 285.166335 291.895237 
L 285.232605 293.463117 
L 285.431413 295.478326 
L 285.563953 295.155118 
L 285.696492 295.389806 
L 285.762761 295.319592 
L 285.8953 295.284784 
L 286.027839 295.352742 
L 286.160379 295.302129 
L 286.292918 295.37638 
L 286.491726 295.367503 
L 286.823074 295.440269 
L 287.286961 295.390069 
L 287.552039 295.385505 
L 287.618309 295.182395 
L 287.684578 295.443456 
L 287.750848 295.384931 
L 288.015926 295.316178 
L 288.214735 295.40543 
L 289.142508 295.258017 
L 289.341317 295.204985 
L 289.407587 295.302639 
L 289.473856 295.255663 
L 289.738934 295.318345 
L 289.937743 295.339865 
L 290.004013 295.338473 
L 290.070282 295.195891 
L 290.269091 295.452787 
L 290.600439 295.332873 
L 291.196865 295.023156 
L 291.461943 294.979755 
L 291.594482 294.430715 
L 291.660752 294.666435 
L 291.793291 294.886987 
L 291.992099 294.568692 
L 292.058369 294.747797 
L 292.124638 294.680349 
L 292.389717 294.066226 
L 292.455986 289.99817 
L 292.654795 294.69 
L 292.787334 295.180678 
L 292.853604 295.154779 
L 292.986143 295.390751 
L 293.052412 295.334094 
L 293.184951 295.35578 
L 293.31749 295.398165 
L 293.582569 295.430263 
L 293.980186 295.442981 
L 294.112725 295.351505 
L 294.311534 295.367991 
L 294.510342 295.402385 
L 294.84169 295.309109 
L 294.90796 295.12925 
L 294.974229 295.452383 
L 295.040499 295.405945 
L 295.438116 295.359972 
L 295.570655 295.375501 
L 295.835733 295.261374 
L 296.29962 295.312455 
L 296.564699 295.282502 
L 296.962316 295.352274 
L 297.161125 295.411107 
L 297.293664 295.225127 
L 297.426203 295.433094 
L 297.625011 295.347238 
L 297.757551 295.331293 
L 298.022629 295.359935 
L 299.215481 294.972512 
L 299.613098 294.735439 
L 299.679368 294.812788 
L 299.745637 294.429146 
L 299.878176 295.213678 
L 300.209524 295.268629 
L 300.474602 295.467944 
L 300.938489 295.403819 
L 301.733724 295.428708 
L 301.866263 295.447814 
L 302.065072 295.356567 
L 302.131341 295.360045 
L 302.197611 295.245016 
L 302.33015 295.426345 
L 302.528958 295.381508 
L 302.661498 295.305578 
L 302.794037 295.431008 
L 302.992845 295.331995 
L 303.390463 295.33132 
L 303.523002 295.341183 
L 303.920619 295.418696 
L 304.119428 295.373006 
L 304.384506 295.411208 
L 304.583315 295.104893 
L 304.715854 295.313647 
L 305.378549 295.062516 
L 305.577358 295.100568 
L 305.709897 295.017349 
L 306.107514 295.126915 
L 306.372593 294.806533 
L 306.505132 294.954013 
L 306.969019 295.222938 
L 307.035288 294.352211 
L 307.101558 294.693599 
L 307.234097 295.386197 
L 307.300366 295.325053 
L 307.432905 295.092821 
L 307.764253 295.391147 
L 308.29441 295.379113 
L 308.493218 295.401183 
L 308.625757 295.403717 
L 309.155914 295.437764 
L 309.75234 295.336641 
L 309.884879 295.252931 
L 310.083688 295.361079 
L 310.348766 295.339044 
L 310.547574 295.374843 
L 310.680114 295.405966 
L 310.878922 295.415543 
L 311.21027 295.430528 
L 311.409079 295.479374 
L 311.740426 295.297185 
L 311.872966 295.285421 
L 311.939235 295.432446 
L 312.005505 295.339422 
L 312.204313 295.129871 
L 312.270583 295.1983 
L 312.933278 295.23879 
L 313.264626 295.301234 
L 313.794783 295.063639 
L 313.993591 295.443327 
L 314.059861 295.409895 
L 314.258669 295.325342 
L 314.324939 292.480012 
L 314.391209 294.090108 
L 314.590017 295.370402 
L 314.722556 295.099872 
L 314.788826 295.137014 
L 314.921365 295.449029 
L 315.120174 295.344773 
L 315.318982 295.286841 
L 315.584061 295.391437 
L 315.782869 295.362481 
L 316.114217 295.3929 
L 316.578104 295.469708 
L 316.776913 295.243861 
L 316.843182 295.36058 
L 316.975721 295.422359 
L 317.17453 295.287295 
L 317.373339 295.369939 
L 317.505878 295.396467 
L 318.301112 295.460096 
L 318.63246 295.400114 
L 318.897538 295.339353 
L 319.096347 295.26156 
L 319.295156 295.292971 
L 319.361425 295.265441 
L 319.493964 295.021659 
L 319.759042 295.102577 
L 319.957851 295.029483 
L 320.15666 294.999002 
L 320.355468 295.169798 
L 320.554277 295.119505 
L 320.686816 295.073697 
L 320.819355 294.936483 
L 320.951894 294.723378 
L 321.482051 295.304893 
L 321.54832 295.058605 
L 321.61459 291.245835 
L 321.68086 293.627136 
L 321.879668 295.385478 
L 322.012207 294.985519 
L 322.078477 295.075311 
L 322.211016 295.400299 
L 322.277286 295.325609 
L 322.409825 295.317286 
L 322.608633 295.29048 
L 322.741172 295.366238 
L 322.873712 295.393956 
L 322.939981 295.479611 
L 323.006251 295.404307 
L 323.13879 295.379847 
L 323.337598 295.421867 
L 323.470138 295.39563 
L 323.602677 295.346367 
L 323.934024 295.385373 
L 324.000294 295.274045 
L 324.066563 295.375822 
L 324.199103 295.357347 
L 324.331642 295.316263 
L 324.464181 295.244882 
L 324.662989 295.304606 
L 324.795529 295.306569 
L 324.994337 295.398049 
L 325.259415 295.424785 
L 325.458224 295.356643 
L 325.657033 295.323676 
L 325.922111 295.347957 
L 326.05465 295.365284 
L 326.319728 295.252259 
L 326.518537 295.357652 
L 326.783615 295.26478 
L 326.982424 295.212243 
L 327.048693 295.071466 
L 327.114963 295.15305 
L 327.51258 295.010398 
L 327.57885 295.144953 
L 327.645119 295.032101 
L 327.777659 294.941928 
L 327.976467 295.052125 
L 328.175276 294.882877 
L 328.374085 294.743207 
L 328.771702 295.330203 
L 328.837971 295.191641 
L 328.904241 293.16446 
L 329.03678 294.886883 
L 329.169319 295.224175 
L 329.301858 295.175476 
L 329.633206 295.414194 
L 329.832015 295.321454 
L 329.964554 295.439987 
L 330.163362 295.444342 
L 330.295902 295.426438 
L 330.428441 295.435383 
L 330.627249 295.444255 
L 332.08518 295.359272 
L 332.482797 295.440294 
L 332.681606 295.278587 
L 332.946684 295.336845 
L 333.079223 295.195721 
L 333.278032 295.351517 
L 333.410571 295.348304 
L 333.609379 295.31132 
L 333.675649 295.400626 
L 333.741918 295.274589 
L 333.808188 295.399876 
L 333.874457 295.325033 
L 334.073266 295.239032 
L 334.205805 295.227556 
L 334.404614 294.973834 
L 334.537153 295.269397 
L 334.735962 295.149357 
L 335.266118 294.986599 
L 335.464927 294.703905 
L 335.730005 294.885977 
L 335.862544 294.849241 
L 335.995083 295.145394 
L 336.061353 295.069714 
L 336.127622 294.857357 
L 336.193892 291.572724 
L 336.326431 294.527917 
L 336.52524 295.160821 
L 336.657779 295.155504 
L 336.856587 295.446996 
L 337.121666 295.400126 
L 337.453013 295.418006 
L 340.435143 295.334181 
L 340.633952 295.302617 
L 340.832761 295.325409 
L 340.9653 295.364665 
L 341.031569 295.241276 
L 341.097839 295.380239 
L 341.164108 295.326387 
L 341.230378 295.256391 
L 341.296648 295.328053 
L 341.495456 295.319426 
L 341.627995 295.223662 
L 341.959343 295.270606 
L 342.158152 295.243277 
L 342.555769 295.063227 
L 342.754578 294.800811 
L 342.820847 294.866971 
L 342.953386 294.820663 
L 343.085926 295.062041 
L 343.218465 294.984322 
L 343.284734 294.99778 
L 343.417273 294.793621 
L 343.483543 291.78446 
L 343.616082 294.241346 
L 343.748621 295.093141 
L 343.814891 295.026141 
L 343.94743 295.045092 
L 344.079969 295.458619 
L 344.146238 295.418276 
L 344.278777 295.40367 
L 344.411317 295.261352 
L 344.610125 295.406813 
L 344.742664 295.342628 
L 345.007743 295.397461 
L 345.869247 295.454893 
L 345.935516 295.232349 
L 346.001786 295.319731 
L 346.664481 295.263586 
L 346.797021 295.394498 
L 347.194638 295.26301 
L 347.393447 295.362751 
L 347.658525 295.34233 
L 347.857333 295.42969 
L 348.122412 295.306178 
L 348.32122 295.393455 
L 348.38749 295.145681 
L 348.453759 295.24123 
L 348.520029 295.093349 
L 348.586299 295.128713 
L 348.718838 295.108233 
L 348.917646 294.944186 
L 349.646611 294.898082 
L 349.77915 295.065697 
L 349.977959 294.752626 
L 350.044229 294.661677 
L 350.110498 294.813771 
L 350.176768 294.70327 
L 350.309307 294.762682 
L 350.441846 294.198338 
L 350.508116 294.331621 
L 350.640655 295.14699 
L 350.706924 294.293761 
L 350.773194 286.446953 
L 350.972002 294.456661 
L 351.104542 295.226017 
L 351.170811 294.750503 
L 351.237081 294.761077 
L 351.36962 295.396531 
L 351.435889 295.246886 
L 351.502159 295.247423 
L 351.568428 295.411955 
L 351.634698 295.347551 
L 351.767237 295.20949 
L 351.899776 295.346301 
L 352.032315 295.259553 
L 352.231124 295.334578 
L 352.429933 295.367811 
L 353.092628 295.455951 
L 353.225167 294.979845 
L 353.291437 295.32695 
L 353.357706 295.262593 
L 353.490246 295.393061 
L 353.689054 295.286138 
L 353.821593 295.301496 
L 353.954132 295.276505 
L 354.086671 295.382639 
L 354.28548 295.339828 
L 354.616828 295.327633 
L 355.213254 295.466268 
L 355.544602 295.413853 
L 355.610871 295.405713 
L 355.80968 295.198881 
L 356.141028 295.233685 
L 356.339836 295.06214 
L 356.538645 295.091733 
L 357.26761 295.107863 
L 357.466419 294.996096 
L 357.598958 295.024089 
L 357.731497 294.842294 
L 357.864036 295.138095 
L 357.996575 294.100991 
L 358.062845 289.116597 
L 358.195384 293.707908 
L 358.327923 295.215224 
L 358.394193 295.200476 
L 358.460462 294.826287 
L 358.526732 294.940573 
L 358.659271 295.450686 
L 358.72554 295.235612 
L 358.79181 295.28752 
L 358.858079 295.461548 
L 358.990618 295.174566 
L 359.189427 295.379686 
L 359.255697 295.296191 
L 359.388236 295.368702 
L 359.520775 295.334634 
L 359.653314 295.363112 
L 360.24974 295.425463 
L 360.382279 295.340853 
L 360.514818 294.747291 
L 360.581088 295.27441 
L 360.647357 295.205921 
L 360.846166 295.212273 
L 361.111244 295.313485 
L 361.243783 295.154901 
L 361.376322 295.291053 
L 361.70767 295.284428 
L 361.972748 295.433284 
L 362.635444 295.236797 
L 362.834253 295.205335 
L 363.033061 295.050051 
L 363.1656 295.227935 
L 363.29814 295.262429 
L 363.430679 295.171921 
L 363.563218 295.0886 
L 363.695757 295.159454 
L 363.828296 295.079538 
L 363.960835 295.065503 
L 364.093374 294.971469 
L 364.292183 295.212679 
L 364.424722 295.150757 
L 364.623531 295.147593 
L 364.888609 294.698313 
L 365.021148 293.968777 
L 365.087417 294.094992 
L 365.219957 294.849603 
L 365.286226 293.735793 
L 365.352496 285.115182 
L 365.485035 293.261595 
L 365.617574 294.830338 
L 365.683843 294.539247 
L 365.750113 294.512173 
L 365.948922 295.30188 
L 366.015191 295.159104 
L 366.14773 295.462045 
L 366.280269 295.030899 
L 366.479078 295.329487 
L 366.545348 295.205822 
L 366.611617 295.25739 
L 366.744156 295.314414 
L 366.876695 295.267877 
L 367.141774 295.390631 
L 367.340582 295.456242 
L 367.473121 295.423099 
L 367.67193 295.273788 
L 367.804469 294.485344 
L 367.870739 295.258986 
L 367.937008 295.20939 
L 369.12986 295.349009 
L 369.262399 295.411444 
L 369.527478 295.210226 
L 369.660017 295.291189 
L 369.991364 295.079814 
L 370.057634 295.145604 
L 370.123904 295.076743 
L 370.190173 295.003855 
L 370.256443 294.669005 
L 370.322712 294.852261 
L 370.521521 295.088088 
L 370.58779 294.954214 
L 370.65406 294.994112 
L 370.852869 295.041115 
L 370.985408 294.934004 
L 371.117947 294.705989 
L 371.383025 294.757959 
L 371.449295 294.555949 
L 371.515564 294.617224 
L 371.846912 295.066306 
L 371.979451 295.093492 
L 372.244529 293.804039 
L 372.310799 293.254018 
L 372.377068 293.351122 
L 372.509608 294.375034 
L 372.575877 293.395863 
L 372.642147 283.216993 
L 372.708416 293.348193 
L 372.774686 293.205989 
L 372.907225 295.241384 
L 372.973494 294.666552 
L 373.039764 294.145839 
L 373.238573 295.308771 
L 373.304842 295.134364 
L 373.371112 295.202738 
L 373.437381 295.457814 
L 373.56992 295.017411 
L 373.70246 295.375297 
L 373.768729 295.316162 
L 373.834999 295.187972 
L 373.901268 295.259444 
L 374.033807 295.304932 
L 374.166346 295.262663 
L 374.365155 295.424008 
L 374.563964 295.407577 
L 374.762772 295.461182 
L 374.961581 295.298023 
L 375.09412 294.298615 
L 375.16039 295.24041 
L 375.226659 295.160792 
L 375.359198 295.20384 
L 375.491737 295.204747 
L 375.624277 295.106113 
L 376.684589 295.251242 
L 376.883398 295.200467 
L 377.082207 295.188582 
L 377.214746 295.047831 
L 377.281015 295.114439 
L 377.347285 295.151059 
L 377.413555 295.031378 
L 377.479824 295.129542 
L 377.546094 294.5508 
L 377.612363 294.726382 
L 377.811172 294.950674 
L 378.07625 294.802041 
L 378.208789 294.797494 
L 378.341328 294.726418 
L 378.407598 295.022098 
L 378.606407 294.65691 
L 378.738946 294.734892 
L 378.871485 294.76716 
L 379.004024 294.819592 
L 379.202832 294.965569 
L 379.401641 294.570354 
L 379.53418 293.773895 
L 379.60045 293.412193 
L 379.666719 293.54969 
L 379.732989 293.67901 
L 379.799258 294.290477 
L 379.865528 293.841144 
L 379.931798 283.394422 
L 380.064337 293.742151 
L 380.196876 295.314876 
L 380.263145 294.892387 
L 380.395684 294.600401 
L 380.528224 295.430624 
L 380.594493 295.193601 
L 380.660763 295.307452 
L 380.727032 295.465875 
L 380.859571 295.104925 
L 380.99211 295.420507 
L 381.05838 295.360576 
L 381.190919 295.297318 
L 381.323458 295.34883 
L 381.455997 295.298838 
L 381.721076 295.397359 
L 382.251232 295.338835 
L 382.383771 294.46659 
L 382.450041 295.238048 
L 382.51631 295.085335 
L 382.58258 295.087331 
L 382.715119 295.256454 
L 382.913928 295.143149 
L 383.245275 295.218376 
L 383.444084 295.226585 
L 383.709162 295.391306 
L 384.636936 294.870087 
L 384.703205 294.924801 
L 384.769475 295.285154 
L 384.835745 294.709779 
L 384.902014 294.888447 
L 385.56471 294.82665 
L 385.829788 294.708716 
L 386.028597 295.004018 
L 386.094866 294.857959 
L 386.161136 294.895961 
L 386.293675 294.443519 
L 386.625023 294.955342 
L 386.691292 294.875443 
L 386.823831 293.981174 
L 386.890101 293.28343 
L 386.95637 293.561738 
L 387.088909 294.346846 
L 387.155179 293.459472 
L 387.221449 284.17795 
L 387.287718 294.145269 
L 387.353988 293.77002 
L 387.486527 295.400867 
L 387.619066 294.490584 
L 387.685335 294.612479 
L 387.817875 295.312253 
L 387.884144 295.214565 
L 388.016683 295.429387 
L 388.149222 295.146802 
L 388.348031 295.40253 
L 388.48057 295.348587 
L 388.613109 295.404872 
L 388.745648 295.373983 
L 388.944457 295.440432 
L 389.209535 295.32386 
L 389.275805 295.415224 
L 389.342074 295.350523 
L 389.474613 295.246959 
L 389.540883 295.383631 
L 389.673422 294.458107 
L 389.739692 295.2063 
L 389.805961 295.049328 
L 390.00477 295.185926 
L 390.071039 295.101087 
L 390.203578 295.223463 
L 390.667465 295.208818 
L 390.866274 295.329897 
L 391.197622 295.236708 
L 391.330161 295.158107 
L 391.4627 295.138292 
L 391.992856 294.83098 
L 392.059126 295.255289 
L 392.125396 294.659113 
L 392.191665 294.792602 
L 392.257935 294.924613 
L 392.324204 294.822387 
L 392.390474 294.759705 
L 392.523013 294.93804 
L 392.655552 294.697996 
L 392.788091 294.845812 
L 392.854361 294.784219 
L 392.9869 294.897977 
L 393.185708 294.770104 
L 393.318248 294.857205 
L 393.517056 294.622374 
L 393.715865 294.666518 
L 393.914673 295.144862 
L 393.980943 294.922749 
L 394.179752 293.202454 
L 394.246021 293.215828 
L 394.37856 294.027651 
L 394.44483 293.143358 
L 394.511099 284.050798 
L 394.577369 294.288003 
L 394.643639 294.240524 
L 394.776178 295.367542 
L 394.842447 295.067922 
L 394.908717 294.83687 
L 394.974986 294.886266 
L 395.107525 295.408387 
L 395.173795 295.328438 
L 395.306334 295.475271 
L 395.438873 295.19058 
L 395.505143 295.215536 
L 395.637682 295.461752 
L 395.836491 295.421746 
L 396.035299 295.353439 
L 396.366647 295.267376 
L 396.499186 295.302774 
L 396.631725 295.255335 
L 396.764264 295.181266 
L 396.830534 295.348755 
L 396.963073 294.53371 
L 397.029343 295.207252 
L 397.095612 295.072794 
L 397.625769 295.206622 
L 398.222195 295.269405 
L 398.487273 295.176613 
L 398.487273 295.176613 
" clip-path="url(#p3aac144406)" style="fill: none; stroke: #1f77b4; stroke-width: 1.5; stroke-linecap: square"/>
   </g>
   <g id="patch_3">
    <path d="M 57.6 307.584 
L 57.6 41.472 
" style="fill: none; stroke: #000000; stroke-width: 0.8; stroke-linejoin: miter; stroke-linecap: square"/>
   </g>
   <g id="patch_4">
    <path d="M 414.72 307.584 
L 414.72 41.472 
" style="fill: none; stroke: #000000; stroke-width: 0.8; stroke-linejoin: miter; stroke-linecap: square"/>
   </g>
   <g id="patch_5">
    <path d="M 57.6 307.584 
L 414.72 307.584 
" style="fill: none; stroke: #000000; stroke-width: 0.8; stroke-linejoin: miter; stroke-linecap: square"/>
   </g>
   <g id="patch_6">
    <path d="M 57.6 41.472 
L 414.72 41.472 
" style="fill: none; stroke: #000000; stroke-width: 0.8; stroke-linejoin: miter; stroke-linecap: square"/>
   </g>
   <g id="text_16">
    <text style="font: 12px 'IPAexGothic'; text-anchor: middle" x="236.16" y="35.472" transform="rotate(-0 236.16 35.472)">"067_A2.wav"の振幅スペクトル</text>
   </g>
  </g>
 </g>
 <defs>
  <clipPath id="p3aac144406">
   <rect x="57.6" y="41.472" width="357.12" height="266.112"/>
  </clipPath>
 </defs>
</svg>
