<?xml version="1.0" encoding="utf-8" standalone="no"?>
<!DOCTYPE svg PUBLIC "-//W3C//DTD SVG 1.1//EN"
  "http://www.w3.org/Graphics/SVG/1.1/DTD/svg11.dtd">
<svg xmlns:xlink="http://www.w3.org/1999/xlink" width="460.8pt" height="345.6pt" viewBox="0 0 460.8 345.6" xmlns="http://www.w3.org/2000/svg" version="1.1">
 <metadata>
  <rdf:RDF xmlns:dc="http://purl.org/dc/elements/1.1/" xmlns:cc="http://creativecommons.org/ns#" xmlns:rdf="http://www.w3.org/1999/02/22-rdf-syntax-ns#">
   <cc:Work>
    <dc:type rdf:resource="http://purl.org/dc/dcmitype/StillImage"/>
    <dc:date>2022-11-28T11:26:28.939643</dc:date>
    <dc:format>image/svg+xml</dc:format>
    <dc:creator>
     <cc:Agent>
      <dc:title>Matplotlib v3.6.2, https://matplotlib.org/</dc:title>
     </cc:Agent>
    </dc:creator>
   </cc:Work>
  </rdf:RDF>
 </metadata>
 <defs>
  <style type="text/css">*{stroke-linejoin: round; stroke-linecap: butt}</style>
 </defs>
 <g id="figure_1">
  <g id="patch_1">
   <path d="M 0 345.6 
L 460.8 345.6 
L 460.8 0 
L 0 0 
z
" style="fill: #ffffff"/>
  </g>
  <g id="axes_1">
   <g id="patch_2">
    <path d="M 57.6 307.584 
L 414.72 307.584 
L 414.72 41.472 
L 57.6 41.472 
z
" style="fill: #ffffff"/>
   </g>
   <g id="matplotlib.axis_1">
    <g id="xtick_1">
     <g id="line2d_1">
      <defs>
       <path id="mf9ea98cbfc" d="M 0 0 
L 0 3.5 
" style="stroke: #000000; stroke-width: 0.8"/>
      </defs>
      <g>
       <use xlink:href="#mf9ea98cbfc" x="73.832727" y="307.584" style="stroke: #000000; stroke-width: 0.8"/>
      </g>
     </g>
     <g id="text_1">
      <text style="font: 10px 'IPAexGothic'; text-anchor: middle" x="73.832727" y="322.074625" transform="rotate(-0 73.832727 322.074625)">0</text>
     </g>
    </g>
    <g id="xtick_2">
     <g id="line2d_2">
      <g>
       <use xlink:href="#mf9ea98cbfc" x="140.102281" y="307.584" style="stroke: #000000; stroke-width: 0.8"/>
      </g>
     </g>
     <g id="text_2">
      <text style="font: 10px 'IPAexGothic'; text-anchor: middle" x="140.102281" y="322.074625" transform="rotate(-0 140.102281 322.074625)">1000</text>
     </g>
    </g>
    <g id="xtick_3">
     <g id="line2d_3">
      <g>
       <use xlink:href="#mf9ea98cbfc" x="206.371835" y="307.584" style="stroke: #000000; stroke-width: 0.8"/>
      </g>
     </g>
     <g id="text_3">
      <text style="font: 10px 'IPAexGothic'; text-anchor: middle" x="206.371835" y="322.074625" transform="rotate(-0 206.371835 322.074625)">2000</text>
     </g>
    </g>
    <g id="xtick_4">
     <g id="line2d_4">
      <g>
       <use xlink:href="#mf9ea98cbfc" x="272.64139" y="307.584" style="stroke: #000000; stroke-width: 0.8"/>
      </g>
     </g>
     <g id="text_4">
      <text style="font: 10px 'IPAexGothic'; text-anchor: middle" x="272.64139" y="322.074625" transform="rotate(-0 272.64139 322.074625)">3000</text>
     </g>
    </g>
    <g id="xtick_5">
     <g id="line2d_5">
      <g>
       <use xlink:href="#mf9ea98cbfc" x="338.910944" y="307.584" style="stroke: #000000; stroke-width: 0.8"/>
      </g>
     </g>
     <g id="text_5">
      <text style="font: 10px 'IPAexGothic'; text-anchor: middle" x="338.910944" y="322.074625" transform="rotate(-0 338.910944 322.074625)">4000</text>
     </g>
    </g>
    <g id="xtick_6">
     <g id="line2d_6">
      <g>
       <use xlink:href="#mf9ea98cbfc" x="405.180498" y="307.584" style="stroke: #000000; stroke-width: 0.8"/>
      </g>
     </g>
     <g id="text_6">
      <text style="font: 10px 'IPAexGothic'; text-anchor: middle" x="405.180498" y="322.074625" transform="rotate(-0 405.180498 322.074625)">5000</text>
     </g>
    </g>
    <g id="text_7">
     <text style="font: 10px 'IPAexGothic'; text-anchor: middle" x="236.16" y="335.924625" transform="rotate(-0 236.16 335.924625)">周波数[Hz]</text>
    </g>
   </g>
   <g id="matplotlib.axis_2">
    <g id="ytick_1">
     <g id="line2d_7">
      <defs>
       <path id="m272157837f" d="M 0 0 
L -3.5 0 
" style="stroke: #000000; stroke-width: 0.8"/>
      </defs>
      <g>
       <use xlink:href="#m272157837f" x="57.6" y="295.488409" style="stroke: #000000; stroke-width: 0.8"/>
      </g>
     </g>
     <g id="text_8">
      <text style="font: 10px 'IPAexGothic'; text-anchor: end" x="50.6" y="299.233722" transform="rotate(-0 50.6 299.233722)">0.0</text>
     </g>
    </g>
    <g id="ytick_2">
     <g id="line2d_8">
      <g>
       <use xlink:href="#m272157837f" x="57.6" y="263.464768" style="stroke: #000000; stroke-width: 0.8"/>
      </g>
     </g>
     <g id="text_9">
      <text style="font: 10px 'IPAexGothic'; text-anchor: end" x="50.6" y="267.21008" transform="rotate(-0 50.6 267.21008)">0.5</text>
     </g>
    </g>
    <g id="ytick_3">
     <g id="line2d_9">
      <g>
       <use xlink:href="#m272157837f" x="57.6" y="231.441126" style="stroke: #000000; stroke-width: 0.8"/>
      </g>
     </g>
     <g id="text_10">
      <text style="font: 10px 'IPAexGothic'; text-anchor: end" x="50.6" y="235.186438" transform="rotate(-0 50.6 235.186438)">1.0</text>
     </g>
    </g>
    <g id="ytick_4">
     <g id="line2d_10">
      <g>
       <use xlink:href="#m272157837f" x="57.6" y="199.417484" style="stroke: #000000; stroke-width: 0.8"/>
      </g>
     </g>
     <g id="text_11">
      <text style="font: 10px 'IPAexGothic'; text-anchor: end" x="50.6" y="203.162797" transform="rotate(-0 50.6 203.162797)">1.5</text>
     </g>
    </g>
    <g id="ytick_5">
     <g id="line2d_11">
      <g>
       <use xlink:href="#m272157837f" x="57.6" y="167.393842" style="stroke: #000000; stroke-width: 0.8"/>
      </g>
     </g>
     <g id="text_12">
      <text style="font: 10px 'IPAexGothic'; text-anchor: end" x="50.6" y="171.139155" transform="rotate(-0 50.6 171.139155)">2.0</text>
     </g>
    </g>
    <g id="ytick_6">
     <g id="line2d_12">
      <g>
       <use xlink:href="#m272157837f" x="57.6" y="135.370201" style="stroke: #000000; stroke-width: 0.8"/>
      </g>
     </g>
     <g id="text_13">
      <text style="font: 10px 'IPAexGothic'; text-anchor: end" x="50.6" y="139.115513" transform="rotate(-0 50.6 139.115513)">2.5</text>
     </g>
    </g>
    <g id="ytick_7">
     <g id="line2d_13">
      <g>
       <use xlink:href="#m272157837f" x="57.6" y="103.346559" style="stroke: #000000; stroke-width: 0.8"/>
      </g>
     </g>
     <g id="text_14">
      <text style="font: 10px 'IPAexGothic'; text-anchor: end" x="50.6" y="107.091871" transform="rotate(-0 50.6 107.091871)">3.0</text>
     </g>
    </g>
    <g id="ytick_8">
     <g id="line2d_14">
      <g>
       <use xlink:href="#m272157837f" x="57.6" y="71.322917" style="stroke: #000000; stroke-width: 0.8"/>
      </g>
     </g>
     <g id="text_15">
      <text style="font: 10px 'IPAexGothic'; text-anchor: end" x="50.6" y="75.06823" transform="rotate(-0 50.6 75.06823)">3.5</text>
     </g>
    </g>
    <g id="text_16">
     <text style="font: 10px 'IPAexGothic'; text-anchor: middle" x="29.460938" y="174.528" transform="rotate(-90 29.460938 174.528)">振幅</text>
    </g>
    <g id="text_17">
     <text style="font: 10px 'IPAexGothic'; text-anchor: start" x="57.6" y="38.472" transform="rotate(-0 57.6 38.472)">1e7</text>
    </g>
   </g>
   <g id="line2d_15">
    <path d="M 73.832727 290.345252 
L 73.965266 295.026106 
L 74.031536 293.613112 
L 74.097805 294.207656 
L 74.164075 293.426022 
L 74.296614 295.068387 
L 74.429153 294.5655 
L 74.495423 295.282462 
L 74.561692 295.178577 
L 74.627962 295.228299 
L 74.694231 294.855116 
L 74.760501 295.05943 
L 74.826771 294.761392 
L 74.89304 294.949697 
L 75.025579 295.298151 
L 75.224388 294.924845 
L 75.290657 295.078877 
L 75.423197 295.154656 
L 75.555736 295.168691 
L 75.688275 295.358243 
L 75.754544 295.031622 
L 75.820814 295.180841 
L 75.953353 295.333772 
L 76.616049 295.114785 
L 76.682318 295.279329 
L 76.748588 295.226912 
L 76.947396 295.283314 
L 77.212475 295.213114 
L 79.068022 294.941985 
L 79.995796 294.547853 
L 80.459683 293.730078 
L 80.658491 292.244888 
L 80.92357 287.028399 
L 80.989839 291.205844 
L 81.056109 285.902117 
L 81.122378 195.806028 
L 81.254917 292.594917 
L 81.321187 288.486538 
L 81.387456 288.684074 
L 81.453726 289.271913 
L 81.652535 292.087149 
L 81.851343 293.924196 
L 82.050152 294.561661 
L 82.182691 294.491964 
L 83.706891 294.9087 
L 84.767204 294.988788 
L 86.75529 294.831875 
L 86.887829 294.80971 
L 87.219177 294.673408 
L 87.351716 294.534535 
L 87.948142 292.451244 
L 88.014412 291.037391 
L 88.080681 292.062664 
L 88.146951 291.083965 
L 88.34576 285.672704 
L 88.412029 215.353471 
L 88.544568 289.744438 
L 88.610838 289.492412 
L 88.809646 293.566366 
L 88.942186 293.131399 
L 89.140994 293.940866 
L 89.604881 294.842751 
L 89.869959 295.014645 
L 90.068768 295.048804 
L 90.797733 295.124734 
L 91.129081 295.132098 
L 91.394159 295.125088 
L 91.592968 295.20757 
L 91.725507 295.14787 
L 91.990585 295.180461 
L 92.056855 295.225657 
L 92.255663 295.12164 
L 92.918359 295.220206 
L 93.050898 295.13247 
L 93.581054 295.167257 
L 93.779863 295.088503 
L 93.846133 295.148263 
L 93.912402 295.053171 
L 93.978672 295.144674 
L 94.24375 295.183852 
L 94.310019 295.223507 
L 94.508828 295.097854 
L 94.641367 295.090157 
L 94.773906 294.467296 
L 94.840176 294.223413 
L 94.906445 294.266137 
L 94.972715 294.176951 
L 95.171524 293.059851 
L 95.304063 291.3051 
L 95.436602 293.244036 
L 95.635411 288.911359 
L 95.70168 259.057132 
L 95.834219 291.637509 
L 95.966758 295.361705 
L 96.033028 294.24574 
L 96.099297 295.084707 
L 96.165567 294.686897 
L 96.364376 294.755492 
L 96.430645 294.668732 
L 96.629454 294.905856 
L 96.761993 294.908103 
L 97.027071 294.916162 
L 97.358419 295.066116 
L 97.623497 295.010592 
L 97.756036 294.947815 
L 98.485001 294.943976 
L 98.816349 294.83372 
L 99.015158 294.812143 
L 99.479045 294.694607 
L 99.810392 294.588873 
L 100.738166 294.241842 
L 100.870705 294.200318 
L 100.936975 294.030473 
L 101.003244 294.0858 
L 101.069514 294.100359 
L 101.334592 293.521464 
L 101.400862 293.469117 
L 101.59967 292.806702 
L 101.864749 293.666011 
L 101.931018 293.500225 
L 101.997288 293.974431 
L 102.262366 289.300415 
L 102.527444 281.310921 
L 102.593714 272.749204 
L 102.659983 281.436792 
L 102.726253 280.407929 
L 102.925062 247.298446 
L 102.991331 53.568 
L 103.19014 293.135838 
L 103.322679 288.169226 
L 103.388948 293.928778 
L 103.455218 285.349567 
L 103.521488 287.387267 
L 103.587757 287.765812 
L 103.786566 290.32719 
L 104.5818 293.508361 
L 104.64807 293.608443 
L 104.714339 293.286746 
L 104.780609 293.391983 
L 105.045687 293.727529 
L 105.111957 293.488248 
L 105.178226 293.65824 
L 105.509574 293.958382 
L 105.575844 293.810962 
L 105.642113 293.922325 
L 105.907191 294.108703 
L 105.973461 294.009686 
L 106.17227 294.24517 
L 106.238539 293.936605 
L 106.371078 294.228354 
L 106.503617 294.228571 
L 106.636157 294.24462 
L 106.967504 294.227504 
L 107.033774 294.406349 
L 107.100043 294.064213 
L 107.298852 294.469252 
L 107.365122 294.291678 
L 107.431391 294.393619 
L 107.6302 294.344467 
L 107.696469 294.547228 
L 107.895278 294.277628 
L 108.027817 294.301793 
L 108.226626 294.189071 
L 108.359165 294.267764 
L 108.491704 294.187018 
L 108.690513 294.187051 
L 108.756782 294.046665 
L 108.823052 294.114255 
L 108.889321 294.082658 
L 109.08813 294.558263 
L 109.353208 293.76933 
L 109.419478 293.830707 
L 109.485747 293.734203 
L 109.817095 290.592651 
L 109.883365 286.552198 
L 109.949634 292.530625 
L 110.015904 290.220073 
L 110.214712 278.972792 
L 110.280982 216.992594 
L 110.479791 285.945753 
L 110.744869 289.966835 
L 110.811138 289.36461 
L 111.275025 294.829603 
L 111.341295 294.583141 
L 111.407564 294.75524 
L 111.473834 294.49269 
L 111.606373 294.766852 
L 111.672643 294.588255 
L 111.738912 294.696816 
L 111.805182 294.807583 
L 111.871451 294.76642 
L 111.937721 294.716266 
L 112.00399 295.072074 
L 112.07026 294.880565 
L 112.202799 295.062177 
L 112.269069 294.808147 
L 112.335338 294.935296 
L 112.600416 295.072606 
L 112.666686 294.894984 
L 112.732956 294.987033 
L 112.865495 295.289176 
L 112.998034 295.176306 
L 113.064303 295.174639 
L 113.130573 294.938325 
L 113.196842 295.005513 
L 113.263112 295.204321 
L 113.329382 295.132877 
L 113.395651 295.085286 
L 113.461921 295.260923 
L 113.52819 295.04323 
L 113.59446 295.069252 
L 113.660729 295.004249 
L 113.726999 295.104313 
L 113.859538 294.97953 
L 113.992077 295.008134 
L 114.190886 294.894755 
L 114.323425 294.885923 
L 114.455964 294.923208 
L 114.522233 295.049575 
L 114.588503 295.003329 
L 114.787312 294.902386 
L 114.98612 294.786678 
L 115.05239 294.615169 
L 115.118659 294.75098 
L 115.184929 294.682468 
L 115.251199 294.861391 
L 115.516277 294.439811 
L 115.715085 294.546201 
L 115.913894 294.041028 
L 115.980164 294.280214 
L 116.245242 293.499768 
L 116.311511 293.592776 
L 116.51032 294.217888 
L 116.57659 294.280791 
L 116.642859 294.591075 
L 116.709129 294.527274 
L 116.775398 293.829114 
L 116.907937 290.969777 
L 116.974207 291.80582 
L 117.106746 284.484683 
L 117.173016 274.889487 
L 117.239285 290.877417 
L 117.305555 282.376118 
L 117.438094 261.773301 
L 117.504363 267.310411 
L 117.570633 140.327616 
L 117.769442 283.000781 
L 117.835711 283.229549 
L 117.901981 283.964103 
L 117.96825 289.750379 
L 118.03452 287.384023 
L 118.498407 293.470279 
L 118.564676 293.289773 
L 118.630946 293.644695 
L 118.697215 293.409154 
L 118.763485 293.209054 
L 118.829754 293.654671 
L 118.896024 293.497477 
L 119.094833 293.812336 
L 119.161102 293.605885 
L 119.227372 293.720867 
L 119.42618 293.874406 
L 119.691259 294.125853 
L 120.022606 294.163757 
L 120.221415 294.302102 
L 120.420224 294.269629 
L 120.619032 294.316497 
L 120.884111 294.323332 
L 121.082919 294.380136 
L 121.149189 294.289513 
L 121.281728 294.433889 
L 121.613076 294.379778 
L 121.745615 294.34543 
L 121.944424 294.366818 
L 122.010693 294.333118 
L 122.076963 294.428387 
L 122.143232 294.34977 
L 122.342041 294.252003 
L 123.269815 294.082126 
L 123.468623 293.724343 
L 123.534893 293.692521 
L 123.601162 293.480689 
L 123.733701 293.882605 
L 123.799971 293.522941 
L 123.866241 294.077194 
L 123.93251 293.801226 
L 124.065049 294.30781 
L 124.197588 292.171597 
L 124.263858 292.573858 
L 124.396397 288.761471 
L 124.462667 282.375265 
L 124.528936 290.0985 
L 124.595206 288.243868 
L 124.727745 266.657072 
L 124.860284 168.154876 
L 125.059093 288.993989 
L 125.125362 293.085156 
L 125.191632 291.949208 
L 125.257901 291.954282 
L 125.39044 289.820966 
L 125.655519 292.785409 
L 125.986866 294.812806 
L 126.053136 294.741632 
L 126.119405 295.12879 
L 126.318214 294.567985 
L 126.384484 294.566579 
L 126.450753 293.956909 
L 126.517023 294.113665 
L 126.583292 294.34936 
L 126.649562 294.314183 
L 126.715831 294.173095 
L 126.91464 294.698502 
L 127.047179 294.651458 
L 127.245988 294.817445 
L 127.312257 294.792647 
L 127.378527 294.902852 
L 127.444797 294.790849 
L 127.511066 295.042562 
L 127.577336 294.839358 
L 127.643605 294.988644 
L 128.37257 295.226553 
L 128.43884 295.407097 
L 128.571379 295.232103 
L 128.703918 295.200837 
L 128.902727 295.104074 
L 129.035266 295.226213 
L 129.499153 295.252178 
L 129.697961 295.32789 
L 129.96304 295.225218 
L 130.161848 295.227638 
L 130.228118 295.174713 
L 130.294387 295.34785 
L 130.360657 295.249573 
L 130.625735 295.314669 
L 130.692005 295.401015 
L 130.758274 295.251382 
L 130.824544 295.313512 
L 131.023352 295.263227 
L 131.089622 295.393496 
L 131.155892 295.223421 
L 131.222161 295.427793 
L 131.288431 295.350291 
L 131.487239 294.931883 
L 131.553509 295.262609 
L 131.619778 295.007306 
L 131.752318 292.236695 
L 131.818587 294.552631 
L 131.884857 294.401393 
L 132.083665 290.210635 
L 132.149935 284.896853 
L 132.216204 287.227259 
L 132.348744 293.096028 
L 132.415013 293.596734 
L 132.481283 295.116662 
L 132.547552 293.564202 
L 132.613822 294.575274 
L 132.680091 295.032529 
L 132.746361 294.503054 
L 132.81263 294.868768 
L 132.8789 294.749877 
L 132.94517 294.927895 
L 133.011439 294.62065 
L 133.210248 295.139404 
L 133.276517 295.003561 
L 133.342787 295.339878 
L 133.409056 295.17026 
L 133.475326 295.336681 
L 133.541596 295.165354 
L 133.740404 295.410375 
L 133.806674 295.309144 
L 133.872943 295.384634 
L 134.005482 295.301247 
L 134.204291 295.155124 
L 134.4031 295.403203 
L 134.601908 295.323505 
L 134.999526 295.344043 
L 135.065795 295.191368 
L 135.132065 295.235034 
L 135.264604 295.46284 
L 135.397143 295.347601 
L 135.463413 295.39217 
L 135.529682 295.293365 
L 135.595952 295.388815 
L 135.86103 295.28398 
L 136.126108 295.477097 
L 136.324917 295.240917 
L 136.523725 295.437524 
L 136.656265 295.267795 
L 136.722534 295.307431 
L 136.855073 295.360194 
L 137.053882 295.382316 
L 137.252691 295.084454 
L 137.31896 295.206671 
L 137.517769 295.37749 
L 137.650308 295.375704 
L 137.915386 295.472777 
L 138.047925 295.259551 
L 138.246734 295.396152 
L 138.710621 295.098889 
L 138.909429 295.237691 
L 139.174508 294.964936 
L 139.439586 289.720687 
L 139.572125 293.917212 
L 139.638394 293.153634 
L 139.837203 294.703821 
L 139.903473 294.613666 
L 140.036012 295.275921 
L 140.36736 295.388335 
L 140.499899 295.376686 
L 140.764977 295.333184 
L 140.963786 295.419681 
L 141.295133 295.255893 
L 141.427672 295.355435 
L 141.692751 295.287611 
L 141.75902 295.441728 
L 141.82529 295.372017 
L 141.891559 295.430446 
L 141.957829 295.19655 
L 142.024098 295.226453 
L 142.090368 295.222924 
L 142.156638 295.103557 
L 142.222907 295.204471 
L 142.289177 295.169617 
L 142.355446 295.299001 
L 142.421716 295.117016 
L 142.554255 295.329823 
L 142.620524 295.091146 
L 142.686794 295.171701 
L 142.753064 295.269617 
L 142.819333 295.126683 
L 142.885603 295.203674 
L 142.951872 295.407616 
L 143.018142 295.335443 
L 143.34949 295.259857 
L 143.415759 294.921086 
L 143.482029 295.288168 
L 143.548298 295.198341 
L 143.945915 295.09344 
L 144.012185 295.263303 
L 144.078455 295.12967 
L 144.144724 295.18668 
L 144.210994 294.987253 
L 144.277263 295.085538 
L 144.476072 295.094247 
L 144.542341 295.388021 
L 144.608611 295.287084 
L 144.74115 294.811736 
L 144.80742 294.997656 
L 144.873689 294.869559 
L 144.939959 294.872311 
L 145.006228 294.728536 
L 145.072498 294.800662 
L 145.403846 294.701859 
L 145.470115 294.765796 
L 145.536385 294.68937 
L 145.668924 294.52386 
L 145.801463 294.69249 
L 145.867733 294.452557 
L 146.066541 294.80254 
L 146.132811 294.875989 
L 146.26535 292.749248 
L 146.331619 289.391184 
L 146.397889 292.146682 
L 146.662967 281.017423 
L 146.729237 247.748699 
L 146.795506 259.654957 
L 146.928045 293.733125 
L 147.060585 292.704433 
L 147.126854 293.272488 
L 147.193124 292.039077 
L 147.391932 293.864418 
L 147.458202 293.632968 
L 147.524471 294.400592 
L 147.590741 294.21198 
L 147.657011 294.606752 
L 147.72328 294.373834 
L 147.855819 294.814161 
L 147.922089 294.533074 
L 147.988358 294.813119 
L 148.054628 294.743104 
L 149.114941 295.095245 
L 149.18121 295.021196 
L 149.24748 295.081128 
L 149.380019 295.093328 
L 151.036758 295.127421 
L 151.301836 295.142692 
L 151.566914 295.183749 
L 151.831992 295.164525 
L 152.030801 295.169259 
L 152.295879 295.075444 
L 152.627227 294.818138 
L 152.759766 294.835915 
L 152.958575 294.772652 
L 153.223653 295.100076 
L 153.356192 294.66911 
L 153.422462 295.068984 
L 153.555001 294.230978 
L 153.62127 291.58156 
L 153.68754 294.016971 
L 153.952618 284.123714 
L 154.018888 268.335309 
L 154.085157 276.217276 
L 154.283966 294.809317 
L 154.350235 294.704152 
L 154.416505 292.672222 
L 154.482775 294.053781 
L 154.549044 293.91447 
L 154.615314 293.979183 
L 154.681583 294.393704 
L 154.747853 294.047362 
L 154.946661 294.921605 
L 155.344279 295.204687 
L 155.543087 295.336018 
L 155.675627 295.176583 
L 155.940705 295.345989 
L 156.139513 295.287701 
L 156.205783 295.399529 
L 156.272053 295.315687 
L 156.802209 295.414198 
L 157.001018 295.427305 
L 157.663713 295.445737 
L 157.862522 295.405249 
L 158.326409 295.335114 
L 158.392678 295.462668 
L 158.458948 295.420526 
L 158.657756 295.430578 
L 160.579574 295.410491 
L 160.844652 294.964146 
L 160.910921 293.721877 
L 160.977191 295.256864 
L 161.308539 288.56822 
L 161.374808 289.337499 
L 161.573617 295.13875 
L 161.706156 294.417118 
L 162.103773 295.456659 
L 162.368852 295.349839 
L 162.63393 295.360569 
L 162.700199 295.443475 
L 162.766469 295.350685 
L 162.899008 295.33165 
L 163.164086 295.427928 
L 163.296625 295.40942 
L 163.429164 295.456521 
L 164.02559 295.360361 
L 164.09186 295.448868 
L 164.158129 295.390811 
L 164.356938 295.445755 
L 164.555747 295.398851 
L 164.688286 295.374057 
L 165.085903 295.438079 
L 165.218442 295.420841 
L 165.417251 295.419295 
L 165.881138 295.458776 
L 166.013677 295.438885 
L 166.543833 295.372025 
L 166.808912 295.366917 
L 166.941451 295.33701 
L 167.206529 295.267991 
L 167.272799 295.466876 
L 167.339068 295.324291 
L 167.604146 295.320225 
L 167.670416 295.199035 
L 167.802955 295.397085 
L 167.869225 295.249155 
L 167.935494 295.295712 
L 168.001764 295.406599 
L 168.200572 294.48156 
L 168.266842 294.844226 
L 168.333111 294.743104 
L 168.53192 292.571609 
L 168.59819 288.08334 
L 168.664459 288.630156 
L 168.796998 294.57998 
L 168.929537 295.142852 
L 168.995807 294.317703 
L 169.062076 294.841846 
L 169.194616 294.830641 
L 169.393424 295.235695 
L 169.459694 295.155725 
L 169.658502 295.31745 
L 169.857311 295.409563 
L 170.05612 295.378436 
L 170.122389 295.436206 
L 170.188659 295.274197 
L 170.254928 295.358364 
L 170.586276 295.393234 
L 171.050163 295.417866 
L 173.104519 295.422144 
L 173.369598 295.418239 
L 173.966023 295.291011 
L 174.164832 295.381879 
L 174.231102 295.221247 
L 174.297371 295.300609 
L 174.42991 295.348951 
L 174.562449 295.420947 
L 174.694989 295.360044 
L 174.893797 295.312695 
L 174.960067 295.277675 
L 175.026336 295.466984 
L 175.092606 295.400005 
L 175.225145 295.363551 
L 175.357684 295.267238 
L 175.423954 295.217344 
L 175.490223 294.412179 
L 175.556493 294.906175 
L 175.622762 294.792759 
L 175.755301 293.821245 
L 175.821571 294.107584 
L 175.95411 290.305921 
L 176.086649 294.701313 
L 176.219188 295.418869 
L 176.285458 294.694595 
L 176.351727 295.136911 
L 176.550536 295.288814 
L 176.616806 295.166243 
L 176.683075 295.295469 
L 176.749345 295.244626 
L 177.014423 295.397374 
L 177.080693 295.350059 
L 177.146962 295.445594 
L 177.213232 295.366668 
L 177.41204 295.453141 
L 177.544579 295.435756 
L 178.671162 295.433069 
L 178.93624 295.366492 
L 179.135049 295.429936 
L 180.858057 295.401328 
L 180.924327 295.335595 
L 181.123135 295.443628 
L 181.321944 295.464435 
L 182.117179 295.395604 
L 182.249718 295.235087 
L 182.315987 295.412053 
L 182.382257 295.377721 
L 182.581066 295.371719 
L 182.647335 295.471417 
L 183.111222 294.292814 
L 183.177492 292.121091 
L 183.243761 292.409908 
L 183.3763 294.801442 
L 183.508839 295.283323 
L 183.575109 294.893236 
L 183.641378 295.409292 
L 183.707648 295.288359 
L 184.304074 295.414898 
L 184.370343 295.327845 
L 184.436613 295.446908 
L 184.502883 295.367174 
L 184.767961 295.410723 
L 184.9005 295.422783 
L 186.093352 295.420412 
L 186.292161 295.47114 
L 190.003256 295.34731 
L 190.069525 295.17521 
L 190.135795 295.215042 
L 190.202064 295.238245 
L 190.268334 295.121214 
L 190.467142 293.60528 
L 190.533412 293.670962 
L 190.732221 295.393195 
L 190.79849 295.426571 
L 190.86476 295.101647 
L 190.931029 295.426303 
L 190.997299 295.294689 
L 191.262377 295.42199 
L 191.925073 295.464626 
L 195.901246 295.425394 
L 196.100055 295.385169 
L 196.298863 295.419895 
L 196.563941 295.451677 
L 197.425446 295.362343 
L 197.557985 295.361826 
L 197.823063 294.706599 
L 197.955602 295.308791 
L 198.28695 295.464572 
L 198.485759 295.451397 
L 198.750837 295.477085 
L 198.949645 295.448764 
L 199.479802 295.476462 
L 199.81115 295.473357 
L 204.847636 295.330364 
L 205.112714 294.628475 
L 205.311523 295.357292 
L 206.703183 295.453089 
L 207.100801 295.409126 
L 207.23334 295.42729 
L 207.630957 295.461488 
L 209.022618 295.467234 
L 209.353965 295.463961 
L 210.613087 295.461176 
L 211.408322 295.451181 
L 212.601174 295.42285 
L 212.866252 295.464877 
L 213.661486 295.476051 
L 215.583303 295.439576 
L 215.848382 295.446279 
L 216.11346 295.469825 
L 217.041234 295.462298 
L 217.703929 295.474347 
L 218.035277 295.473464 
L 218.565433 295.455735 
L 219.493207 295.365878 
L 219.559477 295.335789 
L 219.625746 295.10735 
L 219.692016 295.266275 
L 219.890824 295.447275 
L 226.45151 295.37995 
L 226.51778 295.038003 
L 226.584049 295.405046 
L 226.650319 295.211434 
L 226.782858 295.026815 
L 226.849128 295.190234 
L 226.915397 294.140837 
L 226.981667 294.320721 
L 227.047936 295.296724 
L 227.114206 295.207834 
L 227.313015 295.329364 
L 227.379284 295.20392 
L 227.445554 295.45212 
L 227.511823 295.400862 
L 227.710632 295.473473 
L 228.174519 295.466007 
L 228.770945 295.4708 
L 229.43364 295.473076 
L 230.692762 295.483784 
L 231.222918 295.467799 
L 233.211005 295.473257 
L 233.8737 295.453186 
L 234.138779 295.436131 
L 234.205048 295.329411 
L 234.271318 295.395679 
L 234.536396 295.43949 
L 234.934013 295.459892 
L 241.42843 295.421733 
L 241.560969 295.232362 
L 241.759777 295.448891 
L 242.091125 295.469079 
L 242.555012 295.47409 
L 245.272064 295.478466 
L 248.320463 295.448581 
L 248.386733 295.337121 
L 248.453002 295.42373 
L 248.71808 295.301093 
L 248.85062 294.8535 
L 248.983159 295.34572 
L 249.181967 295.450737 
L 249.314506 295.464306 
L 250.838706 295.45915 
L 251.76648 295.474723 
L 253.688297 295.46702 
L 257.598201 295.473939 
L 259.25494 295.48181 
L 263.62873 295.426366 
L 263.893808 295.477989 
L 266.743399 295.478891 
L 269.261642 295.484435 
L 269.858068 295.463291 
L 270.719572 295.424232 
L 270.918381 295.463327 
L 277.147719 295.471521 
L 277.545337 295.436587 
L 277.744145 295.463204 
L 278.009223 295.357037 
L 278.141763 295.44878 
L 278.605649 295.462788 
L 278.936997 295.473643 
L 280.726275 295.475423 
L 282.383014 295.476395 
L 285.166335 295.436846 
L 285.298874 295.265504 
L 285.497683 295.457262 
L 286.557996 295.482528 
L 287.088152 295.477073 
L 293.715108 295.478293 
L 297.691281 295.479145 
L 298.420246 295.484144 
L 300.209524 295.459544 
L 300.87222 295.483015 
L 302.926576 295.485805 
L 307.035288 295.484778 
L 307.167827 295.345869 
L 307.366636 295.469578 
L 308.824566 295.475022 
L 314.324939 295.448352 
L 314.457478 295.379006 
L 314.656287 295.458444 
L 315.318982 295.477601 
L 330.097093 295.473231 
L 330.627249 295.480497 
L 331.422484 295.482285 
L 334.073266 295.458515 
L 334.603423 295.480053 
L 340.170065 295.463958 
L 340.700222 295.469066 
L 341.230378 295.476574 
L 342.555769 295.45725 
L 343.284734 295.481653 
L 343.814891 295.453132 
L 344.079969 295.48051 
L 344.477586 295.480589 
L 350.773194 295.481217 
L 350.905733 295.403083 
L 351.104542 295.47328 
L 352.297394 295.475503 
L 353.556515 295.478851 
L 357.002532 295.474514 
L 357.665227 295.461573 
L 359.520775 295.480578 
L 360.779896 295.472199 
L 361.575131 295.480498 
L 365.418765 295.412964 
L 365.485035 295.375681 
L 365.683843 295.47282 
L 390.402387 295.480139 
L 391.39643 295.47947 
L 391.661509 295.470112 
L 392.523013 295.484176 
L 393.251978 295.463094 
L 393.848404 295.486153 
L 394.643639 295.302474 
L 394.842447 295.474078 
L 398.487273 295.481879 
L 398.487273 295.481879 
" clip-path="url(#p876f144f0b)" style="fill: none; stroke: #1f77b4; stroke-width: 1.5; stroke-linecap: square"/>
   </g>
   <g id="patch_3">
    <path d="M 57.6 307.584 
L 57.6 41.472 
" style="fill: none; stroke: #000000; stroke-width: 0.8; stroke-linejoin: miter; stroke-linecap: square"/>
   </g>
   <g id="patch_4">
    <path d="M 414.72 307.584 
L 414.72 41.472 
" style="fill: none; stroke: #000000; stroke-width: 0.8; stroke-linejoin: miter; stroke-linecap: square"/>
   </g>
   <g id="patch_5">
    <path d="M 57.6 307.584 
L 414.72 307.584 
" style="fill: none; stroke: #000000; stroke-width: 0.8; stroke-linejoin: miter; stroke-linecap: square"/>
   </g>
   <g id="patch_6">
    <path d="M 57.6 41.472 
L 414.72 41.472 
" style="fill: none; stroke: #000000; stroke-width: 0.8; stroke-linejoin: miter; stroke-linecap: square"/>
   </g>
   <g id="text_18">
    <text style="font: 12px 'IPAexGothic'; text-anchor: middle" x="236.16" y="35.472" transform="rotate(-0 236.16 35.472)">"069_A2.wav"の振幅スペクトル</text>
   </g>
  </g>
 </g>
 <defs>
  <clipPath id="p876f144f0b">
   <rect x="57.6" y="41.472" width="357.12" height="266.112"/>
  </clipPath>
 </defs>
</svg>
