<?xml version="1.0" encoding="utf-8" standalone="no"?>
<!DOCTYPE svg PUBLIC "-//W3C//DTD SVG 1.1//EN"
  "http://www.w3.org/Graphics/SVG/1.1/DTD/svg11.dtd">
<svg xmlns:xlink="http://www.w3.org/1999/xlink" width="460.8pt" height="345.6pt" viewBox="0 0 460.8 345.6" xmlns="http://www.w3.org/2000/svg" version="1.1">
 <metadata>
  <rdf:RDF xmlns:dc="http://purl.org/dc/elements/1.1/" xmlns:cc="http://creativecommons.org/ns#" xmlns:rdf="http://www.w3.org/1999/02/22-rdf-syntax-ns#">
   <cc:Work>
    <dc:type rdf:resource="http://purl.org/dc/dcmitype/StillImage"/>
    <dc:date>2022-11-28T11:34:31.942397</dc:date>
    <dc:format>image/svg+xml</dc:format>
    <dc:creator>
     <cc:Agent>
      <dc:title>Matplotlib v3.6.2, https://matplotlib.org/</dc:title>
     </cc:Agent>
    </dc:creator>
   </cc:Work>
  </rdf:RDF>
 </metadata>
 <defs>
  <style type="text/css">*{stroke-linejoin: round; stroke-linecap: butt}</style>
 </defs>
 <g id="figure_1">
  <g id="patch_1">
   <path d="M 0 345.6 
L 460.8 345.6 
L 460.8 0 
L 0 0 
z
" style="fill: #ffffff"/>
  </g>
  <g id="axes_1">
   <g id="patch_2">
    <path d="M 57.6 307.584 
L 414.72 307.584 
L 414.72 41.472 
L 57.6 41.472 
z
" style="fill: #ffffff"/>
   </g>
   <g id="matplotlib.axis_1">
    <g id="xtick_1">
     <g id="line2d_1">
      <defs>
       <path id="m7ef6ae079c" d="M 0 0 
L 0 3.5 
" style="stroke: #000000; stroke-width: 0.8"/>
      </defs>
      <g>
       <use xlink:href="#m7ef6ae079c" x="73.832727" y="307.584" style="stroke: #000000; stroke-width: 0.8"/>
      </g>
     </g>
     <g id="text_1">
      <text style="font: 10px 'IPAexGothic'; text-anchor: middle" x="73.832727" y="322.074625" transform="rotate(-0 73.832727 322.074625)">0</text>
     </g>
    </g>
    <g id="xtick_2">
     <g id="line2d_2">
      <g>
       <use xlink:href="#m7ef6ae079c" x="140.102281" y="307.584" style="stroke: #000000; stroke-width: 0.8"/>
      </g>
     </g>
     <g id="text_2">
      <text style="font: 10px 'IPAexGothic'; text-anchor: middle" x="140.102281" y="322.074625" transform="rotate(-0 140.102281 322.074625)">1000</text>
     </g>
    </g>
    <g id="xtick_3">
     <g id="line2d_3">
      <g>
       <use xlink:href="#m7ef6ae079c" x="206.371835" y="307.584" style="stroke: #000000; stroke-width: 0.8"/>
      </g>
     </g>
     <g id="text_3">
      <text style="font: 10px 'IPAexGothic'; text-anchor: middle" x="206.371835" y="322.074625" transform="rotate(-0 206.371835 322.074625)">2000</text>
     </g>
    </g>
    <g id="xtick_4">
     <g id="line2d_4">
      <g>
       <use xlink:href="#m7ef6ae079c" x="272.64139" y="307.584" style="stroke: #000000; stroke-width: 0.8"/>
      </g>
     </g>
     <g id="text_4">
      <text style="font: 10px 'IPAexGothic'; text-anchor: middle" x="272.64139" y="322.074625" transform="rotate(-0 272.64139 322.074625)">3000</text>
     </g>
    </g>
    <g id="xtick_5">
     <g id="line2d_5">
      <g>
       <use xlink:href="#m7ef6ae079c" x="338.910944" y="307.584" style="stroke: #000000; stroke-width: 0.8"/>
      </g>
     </g>
     <g id="text_5">
      <text style="font: 10px 'IPAexGothic'; text-anchor: middle" x="338.910944" y="322.074625" transform="rotate(-0 338.910944 322.074625)">4000</text>
     </g>
    </g>
    <g id="xtick_6">
     <g id="line2d_6">
      <g>
       <use xlink:href="#m7ef6ae079c" x="405.180498" y="307.584" style="stroke: #000000; stroke-width: 0.8"/>
      </g>
     </g>
     <g id="text_6">
      <text style="font: 10px 'IPAexGothic'; text-anchor: middle" x="405.180498" y="322.074625" transform="rotate(-0 405.180498 322.074625)">5000</text>
     </g>
    </g>
    <g id="text_7">
     <text style="font: 10px 'IPAexGothic'; text-anchor: middle" x="236.16" y="335.924625" transform="rotate(-0 236.16 335.924625)">周波数[Hz]</text>
    </g>
   </g>
   <g id="matplotlib.axis_2">
    <g id="ytick_1">
     <g id="line2d_7">
      <defs>
       <path id="m1ba5241d0a" d="M 0 0 
L -3.5 0 
" style="stroke: #000000; stroke-width: 0.8"/>
      </defs>
      <g>
       <use xlink:href="#m1ba5241d0a" x="57.6" y="295.48812" style="stroke: #000000; stroke-width: 0.8"/>
      </g>
     </g>
     <g id="text_8">
      <text style="font: 10px 'IPAexGothic'; text-anchor: end" x="50.6" y="299.233432" transform="rotate(-0 50.6 299.233432)">0.0</text>
     </g>
    </g>
    <g id="ytick_2">
     <g id="line2d_8">
      <g>
       <use xlink:href="#m1ba5241d0a" x="57.6" y="262.539232" style="stroke: #000000; stroke-width: 0.8"/>
      </g>
     </g>
     <g id="text_9">
      <text style="font: 10px 'IPAexGothic'; text-anchor: end" x="50.6" y="266.284545" transform="rotate(-0 50.6 266.284545)">0.5</text>
     </g>
    </g>
    <g id="ytick_3">
     <g id="line2d_9">
      <g>
       <use xlink:href="#m1ba5241d0a" x="57.6" y="229.590345" style="stroke: #000000; stroke-width: 0.8"/>
      </g>
     </g>
     <g id="text_10">
      <text style="font: 10px 'IPAexGothic'; text-anchor: end" x="50.6" y="233.335657" transform="rotate(-0 50.6 233.335657)">1.0</text>
     </g>
    </g>
    <g id="ytick_4">
     <g id="line2d_10">
      <g>
       <use xlink:href="#m1ba5241d0a" x="57.6" y="196.641457" style="stroke: #000000; stroke-width: 0.8"/>
      </g>
     </g>
     <g id="text_11">
      <text style="font: 10px 'IPAexGothic'; text-anchor: end" x="50.6" y="200.38677" transform="rotate(-0 50.6 200.38677)">1.5</text>
     </g>
    </g>
    <g id="ytick_5">
     <g id="line2d_11">
      <g>
       <use xlink:href="#m1ba5241d0a" x="57.6" y="163.69257" style="stroke: #000000; stroke-width: 0.8"/>
      </g>
     </g>
     <g id="text_12">
      <text style="font: 10px 'IPAexGothic'; text-anchor: end" x="50.6" y="167.437882" transform="rotate(-0 50.6 167.437882)">2.0</text>
     </g>
    </g>
    <g id="ytick_6">
     <g id="line2d_12">
      <g>
       <use xlink:href="#m1ba5241d0a" x="57.6" y="130.743682" style="stroke: #000000; stroke-width: 0.8"/>
      </g>
     </g>
     <g id="text_13">
      <text style="font: 10px 'IPAexGothic'; text-anchor: end" x="50.6" y="134.488995" transform="rotate(-0 50.6 134.488995)">2.5</text>
     </g>
    </g>
    <g id="ytick_7">
     <g id="line2d_13">
      <g>
       <use xlink:href="#m1ba5241d0a" x="57.6" y="97.794795" style="stroke: #000000; stroke-width: 0.8"/>
      </g>
     </g>
     <g id="text_14">
      <text style="font: 10px 'IPAexGothic'; text-anchor: end" x="50.6" y="101.540107" transform="rotate(-0 50.6 101.540107)">3.0</text>
     </g>
    </g>
    <g id="ytick_8">
     <g id="line2d_14">
      <g>
       <use xlink:href="#m1ba5241d0a" x="57.6" y="64.845907" style="stroke: #000000; stroke-width: 0.8"/>
      </g>
     </g>
     <g id="text_15">
      <text style="font: 10px 'IPAexGothic'; text-anchor: end" x="50.6" y="68.59122" transform="rotate(-0 50.6 68.59122)">3.5</text>
     </g>
    </g>
    <g id="text_16">
     <text style="font: 10px 'IPAexGothic'; text-anchor: middle" x="29.460938" y="174.528" transform="rotate(-90 29.460938 174.528)">振幅</text>
    </g>
    <g id="text_17">
     <text style="font: 10px 'IPAexGothic'; text-anchor: start" x="57.6" y="38.472" transform="rotate(-0 57.6 38.472)">1e7</text>
    </g>
   </g>
   <g id="line2d_15">
    <path d="M 73.832727 295.161642 
L 74.031536 294.699664 
L 74.164075 295.157093 
L 74.230345 295.105328 
L 74.429153 295.021929 
L 74.627962 295.05309 
L 74.826771 295.002203 
L 74.95931 295.055497 
L 75.158118 295.033984 
L 75.290657 295.046202 
L 75.489466 294.787775 
L 75.622005 294.876273 
L 75.754544 294.808778 
L 75.820814 294.930698 
L 75.887083 294.859521 
L 76.019623 294.80166 
L 76.085892 294.913117 
L 76.152162 294.837894 
L 76.35097 294.412674 
L 76.41724 294.549078 
L 76.483509 295.03569 
L 76.549779 294.948862 
L 76.616049 294.84753 
L 76.748588 295.032707 
L 76.881127 294.795728 
L 76.947396 295.145014 
L 77.278744 293.309351 
L 77.411283 290.872987 
L 77.477553 259.719741 
L 77.610092 289.806762 
L 77.94144 294.854843 
L 78.140248 294.097733 
L 78.206518 294.252273 
L 78.272787 294.204143 
L 78.471596 294.081483 
L 78.537866 294.250128 
L 78.604135 294.120276 
L 78.736674 294.074078 
L 78.802944 294.087676 
L 78.935483 294.31867 
L 79.001752 294.263991 
L 79.200561 293.832841 
L 79.39937 294.174185 
L 79.465639 294.18439 
L 79.531909 294.492677 
L 79.598178 294.325252 
L 79.730718 294.214541 
L 79.995796 294.393941 
L 80.128335 294.630035 
L 80.459683 293.864913 
L 80.592222 293.946107 
L 80.724761 292.621295 
L 80.8573 292.779442 
L 80.92357 293.659275 
L 81.056109 289.640692 
L 81.122378 235.376993 
L 81.254917 287.114173 
L 81.586265 294.861179 
L 81.652535 295.359632 
L 81.785074 294.361725 
L 82.248961 294.972826 
L 82.31523 294.950674 
L 82.447769 295.120834 
L 82.580308 294.969983 
L 82.712848 295.12354 
L 82.977926 294.848557 
L 83.110465 294.897748 
L 83.243004 295.141643 
L 83.309274 295.043856 
L 83.640621 294.204341 
L 83.77316 294.35292 
L 83.971969 293.927276 
L 84.104508 293.485328 
L 84.237047 293.600879 
L 84.303317 293.539268 
L 84.502125 291.453107 
L 84.568395 290.494616 
L 84.700934 284.749466 
L 84.767204 208.214047 
L 84.899743 283.548836 
L 85.032282 286.8959 
L 85.164821 292.535236 
L 85.231091 292.496035 
L 85.36363 293.518117 
L 85.429899 293.288638 
L 85.496169 293.358833 
L 85.562438 293.369454 
L 85.628708 293.831894 
L 85.694977 293.774322 
L 86.026325 293.673737 
L 86.225134 293.989553 
L 86.423943 293.730905 
L 86.689021 293.956566 
L 86.887829 293.664016 
L 86.954099 293.769769 
L 87.020369 293.72709 
L 87.152908 293.419383 
L 87.219177 293.83404 
L 87.285447 293.789172 
L 87.616795 293.303194 
L 87.683064 292.558495 
L 87.749334 292.648597 
L 87.815603 292.712255 
L 87.881873 292.530624 
L 87.948142 292.753976 
L 88.146951 286.51807 
L 88.27949 277.51658 
L 88.34576 280.199152 
L 88.412029 189.069982 
L 88.544568 279.751847 
L 88.610838 282.577614 
L 88.743377 294.85657 
L 88.809646 294.422469 
L 88.875916 292.693011 
L 88.942186 293.448891 
L 89.074725 294.258756 
L 89.207264 293.718053 
L 89.339803 294.90949 
L 89.406072 294.960049 
L 89.538612 294.638441 
L 89.604881 294.827745 
L 89.671151 294.783843 
L 89.80369 294.541276 
L 89.869959 294.594567 
L 89.936229 294.767348 
L 90.002498 294.688033 
L 90.068768 294.485754 
L 90.135038 294.596616 
L 90.400116 294.077319 
L 90.466385 294.237464 
L 90.598924 293.985018 
L 90.731464 294.31676 
L 90.797733 294.16742 
L 90.996542 293.205919 
L 91.19535 292.340455 
L 91.26162 292.988747 
L 91.592968 287.932189 
L 91.659237 282.194437 
L 91.725507 284.764454 
L 91.791776 286.935763 
L 91.858046 285.116012 
L 91.990585 269.602044 
L 92.056855 53.568 
L 92.189394 238.622042 
L 92.454472 293.60687 
L 92.587011 288.966853 
L 92.653281 289.054952 
L 93.050898 292.329298 
L 93.183437 293.198745 
L 93.315976 292.372602 
L 93.448515 293.645365 
L 93.514785 293.446941 
L 93.647324 292.974362 
L 93.713593 293.264523 
L 93.779863 293.140014 
L 93.846133 293.051901 
L 93.978672 293.626807 
L 94.17748 293.356237 
L 94.310019 293.755171 
L 94.376289 293.651411 
L 94.508828 293.824944 
L 94.707637 293.732254 
L 94.773906 293.875375 
L 94.840176 293.776199 
L 95.038985 293.63656 
L 95.171524 293.038916 
L 95.237793 293.560005 
L 95.304063 292.038547 
L 95.370332 292.230078 
L 95.436602 291.59482 
L 95.502871 291.946522 
L 95.569141 291.739206 
L 95.635411 287.599494 
L 95.70168 239.633906 
L 95.834219 280.469077 
L 96.165567 294.597102 
L 96.298106 293.287302 
L 96.496915 294.933889 
L 96.629454 294.837778 
L 96.761993 294.638909 
L 96.894532 294.842558 
L 97.027071 295.26169 
L 97.358419 293.929454 
L 97.424689 293.978351 
L 97.623497 294.537586 
L 98.087384 294.794203 
L 98.219923 294.393245 
L 98.286193 294.442445 
L 98.485001 294.472909 
L 98.551271 294.649795 
L 98.816349 293.936962 
L 98.882619 294.086168 
L 98.948888 293.148251 
L 99.081427 294.261237 
L 99.280236 287.30826 
L 99.346506 263.094238 
L 99.545314 287.237333 
L 99.810392 294.567063 
L 99.876662 294.513071 
L 100.009201 295.00128 
L 100.14174 294.649021 
L 100.340549 295.262779 
L 100.406818 295.115239 
L 100.473088 295.186933 
L 100.539358 295.163987 
L 100.738166 294.707384 
L 101.069514 295.411897 
L 101.268323 294.994738 
L 101.467131 295.398886 
L 101.533401 295.212925 
L 101.66594 295.202833 
L 102.063557 295.124583 
L 102.328636 294.868787 
L 102.527444 295.149469 
L 102.792522 293.173018 
L 102.858792 293.239037 
L 102.925062 293.877093 
L 102.991331 276.71291 
L 103.12387 292.178206 
L 103.322679 295.244038 
L 103.388948 295.019772 
L 103.455218 294.349227 
L 103.521488 294.805281 
L 103.654027 295.356874 
L 103.720296 295.334471 
L 104.117913 295.296014 
L 104.382992 295.348948 
L 104.5818 295.304778 
L 104.64807 295.470423 
L 104.714339 295.401232 
L 104.846879 295.252367 
L 105.045687 295.365946 
L 105.244496 295.04767 
L 105.310765 295.099856 
L 105.642113 295.129027 
L 105.840922 294.984528 
L 105.973461 294.746083 
L 106.106 295.031837 
L 106.17227 294.987137 
L 106.371078 291.929805 
L 106.503617 293.900262 
L 106.569887 293.436208 
L 106.636157 266.838343 
L 106.768696 290.511698 
L 106.967504 294.735672 
L 107.100043 294.332988 
L 107.232583 294.539665 
L 107.365122 295.034106 
L 107.431391 294.941871 
L 107.497661 295.029257 
L 107.6302 294.956042 
L 107.696469 294.879799 
L 107.829009 295.182483 
L 107.961548 295.163178 
L 108.027817 295.25368 
L 108.226626 294.837596 
L 108.359165 295.323022 
L 108.557974 294.869532 
L 108.756782 295.312359 
L 108.823052 295.256291 
L 109.02186 295.045036 
L 109.220669 294.700703 
L 109.353208 294.812063 
L 109.552017 294.019982 
L 109.618286 294.215589 
L 109.684556 294.963435 
L 109.750826 294.590326 
L 109.817095 293.980878 
L 109.883365 291.775888 
L 109.949634 292.571243 
L 110.015904 292.561903 
L 110.148443 292.790583 
L 110.214712 291.91964 
L 110.280982 245.422513 
L 110.347252 276.600575 
L 110.61233 294.504349 
L 110.678599 295.072673 
L 110.744869 293.560979 
L 110.811138 293.999943 
L 111.142486 294.774507 
L 111.208756 294.687772 
L 111.341295 294.653827 
L 111.407564 294.931169 
L 111.473834 294.87924 
L 111.606373 294.916512 
L 111.672643 295.088671 
L 111.738912 294.985658 
L 111.871451 294.945288 
L 112.00399 295.187568 
L 112.269069 294.979717 
L 112.401608 295.269202 
L 112.600416 294.782855 
L 112.666686 294.831483 
L 112.865495 295.06657 
L 112.998034 295.005913 
L 113.064303 294.880482 
L 113.196842 294.18681 
L 113.395651 295.089154 
L 113.461921 294.726385 
L 113.52819 292.875701 
L 113.59446 293.661783 
L 113.726999 295.279834 
L 113.859538 292.47521 
L 113.925807 273.111499 
L 113.992077 285.052655 
L 114.257155 295.362521 
L 114.389694 294.36529 
L 114.654773 295.111705 
L 114.721042 295.140908 
L 114.853581 294.778329 
L 114.919851 294.85281 
L 115.05239 295.170723 
L 115.118659 295.129798 
L 115.450007 295.173187 
L 115.913894 295.158649 
L 116.112703 295.320946 
L 116.245242 295.050355 
L 116.57659 295.262082 
L 116.841668 294.869227 
L 116.907937 295.042406 
L 117.040477 295.388569 
L 117.173016 294.096651 
L 117.305555 294.220563 
L 117.371824 294.819867 
L 117.438094 294.59297 
L 117.504363 293.42985 
L 117.570633 284.429317 
L 117.636903 290.356682 
L 117.901981 295.089433 
L 117.96825 294.903336 
L 118.03452 295.19095 
L 118.100789 295.02699 
L 118.233329 295.151452 
L 118.299598 295.447736 
L 118.365868 295.397241 
L 118.498407 295.369676 
L 120.088876 295.296507 
L 120.155146 295.364889 
L 120.353954 295.120705 
L 120.420224 295.186051 
L 120.486493 294.964999 
L 120.552763 295.097758 
L 120.685302 295.37532 
L 120.817841 294.245484 
L 120.95038 294.359265 
L 121.01665 294.945104 
L 121.082919 294.865339 
L 121.149189 294.043187 
L 121.215458 279.809826 
L 121.281728 288.98398 
L 121.480537 294.165878 
L 121.613076 295.058402 
L 121.811884 294.848362 
L 121.878154 294.952897 
L 122.143232 295.320954 
L 122.342041 295.253211 
L 123.468623 295.330393 
L 123.667432 295.296597 
L 124.065049 295.383492 
L 124.263858 295.223144 
L 124.396397 295.354954 
L 124.528936 294.993145 
L 124.595206 294.978271 
L 124.727745 295.298008 
L 124.794014 294.853361 
L 124.860284 290.348711 
L 124.926553 293.181659 
L 125.191632 295.2465 
L 125.257901 295.432126 
L 125.324171 295.316979 
L 125.522979 295.16353 
L 125.655519 295.300692 
L 125.854327 295.427516 
L 126.185675 295.314285 
L 126.384484 295.343311 
L 126.583292 295.364383 
L 127.047179 295.36831 
L 127.245988 295.410083 
L 127.709875 295.377466 
L 128.107492 295.338491 
L 128.306301 295.316505 
L 128.37257 295.321124 
L 128.43884 295.150624 
L 128.505109 294.190355 
L 128.637648 295.315789 
L 129.035266 295.367635 
L 129.167805 295.404456 
L 129.366614 295.362097 
L 129.764231 295.389774 
L 129.89677 295.392499 
L 130.095579 295.443098 
L 130.426926 295.394025 
L 131.686048 295.403103 
L 131.818587 294.856215 
L 131.884857 294.944046 
L 131.951126 295.007287 
L 132.017396 295.360055 
L 132.083665 294.927767 
L 132.149935 288.780889 
L 132.216204 291.361099 
L 132.415013 295.333757 
L 132.481283 295.085159 
L 132.547552 295.426822 
L 132.613822 294.945706 
L 132.680091 295.2802 
L 132.746361 295.233007 
L 134.204291 295.470496 
L 134.33683 295.168315 
L 134.4031 295.214989 
L 134.668178 295.342024 
L 134.933256 295.178121 
L 134.999526 295.19607 
L 135.065795 294.856262 
L 135.132065 295.083047 
L 135.330873 295.095497 
L 135.397143 294.233147 
L 135.463413 294.345359 
L 135.529682 294.137325 
L 135.595952 294.328753 
L 135.662221 294.250629 
L 135.728491 293.646242 
L 135.79476 277.993381 
L 135.86103 284.758183 
L 136.059839 295.039009 
L 136.126108 294.305854 
L 136.192378 294.798336 
L 136.258647 294.481386 
L 136.324917 294.498685 
L 136.391186 295.119209 
L 136.457456 295.056876 
L 136.656265 294.963977 
L 136.855073 295.162506 
L 137.053882 295.297655 
L 137.120151 295.285497 
L 137.252691 295.37572 
L 137.451499 294.875797 
L 137.782847 295.339825 
L 137.849117 295.353117 
L 138.047925 295.102556 
L 138.246734 295.395621 
L 138.379273 295.317638 
L 138.710621 295.174454 
L 138.84316 295.432082 
L 139.041968 294.680624 
L 139.240777 295.101446 
L 139.373316 294.165564 
L 139.439586 287.792277 
L 139.505855 289.97694 
L 139.704664 294.729892 
L 139.770934 294.490692 
L 139.837203 294.911401 
L 139.903473 294.502331 
L 140.036012 295.406553 
L 140.23482 295.23082 
L 140.499899 295.384472 
L 140.632438 295.426301 
L 140.831246 295.340287 
L 141.096325 294.903937 
L 141.493942 295.301448 
L 141.692751 295.398927 
L 141.82529 295.204205 
L 141.891559 295.273468 
L 142.289177 295.451448 
L 142.355446 295.134153 
L 142.421716 295.197538 
L 142.487985 295.387794 
L 142.554255 295.358004 
L 142.620524 295.222541 
L 142.686794 294.795196 
L 142.753064 295.134826 
L 142.819333 295.058262 
L 143.018142 294.334397 
L 143.084411 287.66788 
L 143.150681 290.651202 
L 143.28322 295.067184 
L 143.34949 294.993913 
L 143.415759 294.43544 
L 143.614568 295.13873 
L 143.813376 295.316471 
L 143.945915 295.27623 
L 144.078455 295.26542 
L 144.210994 295.28255 
L 144.476072 295.407034 
L 144.74115 295.066196 
L 144.939959 295.387564 
L 145.006228 295.481455 
L 145.271307 295.009738 
L 145.536385 295.365437 
L 145.801463 295.10565 
L 146.000272 295.193287 
L 146.132811 295.382695 
L 146.331619 294.868242 
L 146.397889 295.305887 
L 146.464159 295.11557 
L 146.662967 294.133767 
L 146.729237 290.930087 
L 146.795506 291.886136 
L 146.994315 294.977147 
L 147.060585 294.875397 
L 147.126854 295.042886 
L 147.193124 294.922527 
L 147.524471 295.406024 
L 147.590741 295.285703 
L 147.657011 295.339513 
L 148.054628 295.283526 
L 148.253437 294.953114 
L 148.319706 295.036034 
L 148.385976 294.943279 
L 148.452245 295.019513 
L 148.584784 295.434916 
L 148.651054 295.339667 
L 148.717323 295.256233 
L 148.783593 295.343376 
L 149.048671 295.314262 
L 149.114941 295.45023 
L 149.380019 295.096058 
L 149.711367 295.432994 
L 149.910175 295.307163 
L 149.976445 295.147869 
L 150.042714 295.345406 
L 150.108984 295.303155 
L 150.241523 294.835806 
L 150.307793 295.012768 
L 150.440332 293.615482 
L 150.572871 295.189266 
L 150.70541 294.613247 
L 150.904219 295.328466 
L 151.036758 295.42854 
L 151.169297 295.378279 
L 151.235566 295.282208 
L 151.368106 295.438195 
L 151.500645 295.249746 
L 151.566914 295.311305 
L 151.765723 295.322058 
L 151.898262 295.315181 
L 152.030801 295.30017 
L 152.22961 295.296841 
L 152.362149 295.322587 
L 152.494688 295.431625 
L 152.826036 295.305625 
L 153.091114 295.362965 
L 153.488731 295.463973 
L 153.62127 295.26776 
L 153.753809 295.450576 
L 153.886349 295.310623 
L 153.952618 295.364169 
L 154.018888 294.266612 
L 154.085157 294.681483 
L 154.217696 295.474911 
L 154.283966 295.393086 
L 154.350235 295.436867 
L 154.416505 295.275949 
L 154.482775 295.370883 
L 154.549044 295.249235 
L 154.615314 295.306211 
L 154.946661 295.468479 
L 155.344279 295.361746 
L 155.543087 295.426353 
L 155.940705 295.28875 
L 156.205783 295.450474 
L 157.199826 295.417939 
L 157.266096 295.143649 
L 157.332365 295.31287 
L 157.464905 295.277114 
L 157.597444 294.701802 
L 157.663713 291.803085 
L 157.729983 292.486711 
L 157.928791 295.349379 
L 158.326409 295.037016 
L 158.458948 295.333129 
L 158.525217 295.270345 
L 158.724026 295.13475 
L 158.856565 295.448828 
L 158.922835 295.357271 
L 159.121643 295.136729 
L 159.254182 295.103315 
L 159.320452 295.270337 
L 159.386722 294.98952 
L 159.452991 295.113526 
L 159.519261 295.093108 
L 159.6518 295.415135 
L 159.718069 295.365348 
L 159.916878 295.322233 
L 159.983148 295.438998 
L 160.049417 295.364294 
L 160.115687 295.236425 
L 160.181956 295.28567 
L 160.314495 295.478723 
L 160.380765 295.406388 
L 160.844652 295.329193 
L 160.910921 294.881287 
L 160.977191 295.16392 
L 161.10973 295.424523 
L 161.242269 294.88187 
L 161.374808 292.728563 
L 161.573617 295.102852 
L 161.639886 295.247138 
L 161.706156 295.105475 
L 161.904965 295.327008 
L 162.103773 295.388402 
L 162.435121 295.424964 
L 162.56766 295.299263 
L 162.63393 295.126547 
L 162.700199 295.182582 
L 162.965278 295.395242 
L 163.097817 295.31628 
L 163.296625 295.45801 
L 163.495434 295.437482 
L 164.423208 295.398633 
L 164.820825 295.361298 
L 164.887095 295.4185 
L 164.953364 295.084456 
L 165.085903 295.398967 
L 165.284712 295.435965 
L 165.54979 295.440113 
L 166.079947 295.446284 
L 166.278755 295.441397 
L 167.935494 295.372464 
L 168.068033 295.311383 
L 168.134303 295.358719 
L 168.200572 295.205959 
L 168.266842 295.287814 
L 168.399381 295.302853 
L 168.53192 295.091571 
L 168.59819 292.999907 
L 168.664459 293.412633 
L 168.796998 295.291605 
L 168.863268 295.253216 
L 168.995807 295.28486 
L 169.062076 295.374244 
L 169.194616 295.047658 
L 169.260885 295.219319 
L 169.327155 295.18226 
L 169.393424 295.201747 
L 169.525963 295.403302 
L 169.791042 295.403488 
L 170.05612 295.384959 
L 170.188659 295.395147 
L 170.586276 295.419572 
L 170.851354 295.397399 
L 171.050163 295.452704 
L 172.176746 295.339951 
L 172.309285 294.761705 
L 172.441824 295.375268 
L 172.574363 295.317512 
L 172.706902 295.472969 
L 172.839441 295.349037 
L 173.03825 295.452 
L 173.104519 295.371094 
L 173.170789 295.426235 
L 173.369598 295.451918 
L 174.231102 295.449731 
L 174.49618 295.434085 
L 174.628719 295.431019 
L 175.423954 295.37833 
L 175.490223 295.233733 
L 175.556493 295.355657 
L 175.755301 295.393701 
L 175.821571 295.390225 
L 175.95411 294.876174 
L 176.086649 295.401448 
L 176.219188 295.3491 
L 176.484267 295.411792 
L 176.683075 295.455537 
L 176.881884 295.472815 
L 177.743388 295.415308 
L 179.068779 295.428911 
L 179.135049 295.325329 
L 179.201318 295.391212 
L 179.400127 295.358118 
L 179.466396 295.350327 
L 179.598936 294.558412 
L 179.797744 295.346018 
L 179.864014 295.286594 
L 180.062822 295.456442 
L 180.725518 295.421636 
L 180.990596 295.459521 
L 181.255674 295.436037 
L 182.779874 295.46108 
L 183.111222 295.456729 
L 183.243761 295.112365 
L 183.3763 295.483876 
L 183.508839 295.399055 
L 183.707648 295.433409 
L 184.370343 295.445783 
L 186.557239 295.422655 
L 186.888587 294.791781 
L 187.087395 295.337536 
L 187.286204 295.317504 
L 187.485013 295.441425 
L 188.412786 295.468248 
L 190.069525 295.468121 
L 190.202064 295.386505 
L 190.400873 295.415936 
L 190.467142 295.246639 
L 190.533412 295.27722 
L 191.262377 295.468013 
L 191.726264 295.46418 
L 192.32269 295.450021 
L 193.051655 295.433465 
L 193.648081 295.473587 
L 193.84689 295.323798 
L 194.045698 295.338894 
L 194.111968 295.123521 
L 194.178237 295.181124 
L 194.377046 295.466097 
L 194.907203 295.466626 
L 195.503629 295.442482 
L 195.702437 295.445608 
L 196.365133 295.464451 
L 196.696481 295.44659 
L 197.292907 295.430588 
L 197.690524 295.480634 
L 197.823063 295.273202 
L 198.021872 295.468677 
L 199.479802 295.450625 
L 201.335349 295.425991 
L 201.467888 295.097602 
L 201.666697 295.440171 
L 202.196854 295.486813 
L 202.66074 295.47027 
L 204.913905 295.483988 
L 204.980175 295.401769 
L 205.112714 294.940517 
L 205.178983 295.30629 
L 205.245253 295.287343 
L 205.70914 295.447462 
L 206.305566 295.441933 
L 207.896035 295.438171 
L 208.028574 295.447845 
L 208.227383 295.452057 
L 208.426192 295.440709 
L 208.625 295.42032 
L 208.757539 294.848605 
L 208.890078 295.257833 
L 209.022618 295.363734 
L 209.088887 295.477317 
L 209.155157 295.431431 
L 209.486504 295.479488 
L 210.21547 295.468999 
L 211.739669 295.466634 
L 212.269826 295.459388 
L 212.336095 295.250207 
L 212.402365 295.303771 
L 212.534904 295.418848 
L 212.799982 295.445129 
L 213.13133 295.476923 
L 213.727756 295.470747 
L 214.522991 295.48079 
L 215.318225 295.4752 
L 215.914651 295.433291 
L 216.04719 295.140031 
L 216.179729 295.440445 
L 216.444808 295.472116 
L 217.240042 295.458672 
L 220.089633 295.430716 
L 220.288442 295.455087 
L 221.282485 295.471396 
L 223.204302 295.467296 
L 223.336841 295.303642 
L 223.53565 295.401324 
L 223.866998 295.456572 
L 224.99358 295.463527 
L 225.788815 295.448693 
L 226.318971 295.45164 
L 226.716589 295.442469 
L 226.849128 295.457654 
L 226.981667 295.24983 
L 227.047936 295.39644 
L 227.114206 295.351686 
L 227.445554 295.431028 
L 232.945927 295.477372 
L 234.735205 295.432886 
L 235.066552 295.469692 
L 236.988369 295.483113 
L 237.849874 295.438732 
L 237.982413 295.476164 
L 239.241534 295.475102 
L 241.42843 295.469428 
L 241.560969 295.313389 
L 241.693508 295.450005 
L 245.139525 295.31383 
L 245.205794 295.19436 
L 245.338333 295.430257 
L 246.001029 295.479729 
L 247.525229 295.480638 
L 248.254194 295.448831 
L 248.71808 295.439975 
L 248.85062 295.169015 
L 248.916889 295.400222 
L 248.983159 295.379768 
L 249.778393 295.469035 
L 250.441089 295.463504 
L 252.362906 295.441491 
L 252.495445 295.124154 
L 252.561715 295.429252 
L 252.627984 295.384946 
L 252.826793 295.400283 
L 253.025602 295.430135 
L 254.218453 295.466163 
L 255.146227 295.479945 
L 256.471618 295.435409 
L 257.266853 295.483632 
L 258.459705 295.475174 
L 259.586287 295.477031 
L 261.176757 295.47647 
L 270.520764 295.460071 
L 270.984651 295.481056 
L 273.370355 295.47866 
L 274.364398 295.407795 
L 274.629476 295.476521 
L 275.55725 295.478738 
L 275.954867 295.468619 
L 281.52151 295.437476 
L 281.654049 295.201745 
L 281.786588 295.386536 
L 282.051666 295.455565 
L 282.97944 295.453968 
L 283.178249 295.441629 
L 284.901257 295.419496 
L 285.100066 295.461528 
L 285.497683 295.433316 
L 286.690535 295.467893 
L 288.811161 295.457953 
L 289.009969 295.452095 
L 289.937743 295.455897 
L 290.666708 295.46326 
L 291.263134 295.478552 
L 292.522256 295.423088 
L 292.588525 295.333497 
L 292.721064 295.424152 
L 293.251221 295.460273 
L 294.642881 295.472079 
L 296.167081 295.432049 
L 296.432159 295.452703 
L 297.359933 295.478303 
L 301.402376 295.478708 
L 302.528958 295.472905 
L 309.884879 295.480287 
L 310.746383 295.439147 
L 311.011461 295.474161 
L 312.535661 295.478403 
L 314.1924 295.482444 
L 316.445565 295.484147 
L 319.825312 295.481355 
L 325.060607 295.482884 
L 369.063591 295.479959 
L 369.858825 295.48135 
L 393.914673 295.482566 
L 398.487273 295.482541 
L 398.487273 295.482541 
" clip-path="url(#p733d10d8e4)" style="fill: none; stroke: #1f77b4; stroke-width: 1.5; stroke-linecap: square"/>
   </g>
   <g id="patch_3">
    <path d="M 57.6 307.584 
L 57.6 41.472 
" style="fill: none; stroke: #000000; stroke-width: 0.8; stroke-linejoin: miter; stroke-linecap: square"/>
   </g>
   <g id="patch_4">
    <path d="M 414.72 307.584 
L 414.72 41.472 
" style="fill: none; stroke: #000000; stroke-width: 0.8; stroke-linejoin: miter; stroke-linecap: square"/>
   </g>
   <g id="patch_5">
    <path d="M 57.6 307.584 
L 414.72 307.584 
" style="fill: none; stroke: #000000; stroke-width: 0.8; stroke-linejoin: miter; stroke-linecap: square"/>
   </g>
   <g id="patch_6">
    <path d="M 57.6 41.472 
L 414.72 41.472 
" style="fill: none; stroke: #000000; stroke-width: 0.8; stroke-linejoin: miter; stroke-linecap: square"/>
   </g>
   <g id="text_18">
    <text style="font: 12px 'IPAexGothic'; text-anchor: middle" x="236.16" y="35.472" transform="rotate(-0 236.16 35.472)">"070_A1.wav"の振幅スペクトル</text>
   </g>
  </g>
 </g>
 <defs>
  <clipPath id="p733d10d8e4">
   <rect x="57.6" y="41.472" width="357.12" height="266.112"/>
  </clipPath>
 </defs>
</svg>
