<?xml version="1.0" encoding="utf-8" standalone="no"?>
<!DOCTYPE svg PUBLIC "-//W3C//DTD SVG 1.1//EN"
  "http://www.w3.org/Graphics/SVG/1.1/DTD/svg11.dtd">
<svg xmlns:xlink="http://www.w3.org/1999/xlink" width="460.8pt" height="345.6pt" viewBox="0 0 460.8 345.6" xmlns="http://www.w3.org/2000/svg" version="1.1">
 <metadata>
  <rdf:RDF xmlns:dc="http://purl.org/dc/elements/1.1/" xmlns:cc="http://creativecommons.org/ns#" xmlns:rdf="http://www.w3.org/1999/02/22-rdf-syntax-ns#">
   <cc:Work>
    <dc:type rdf:resource="http://purl.org/dc/dcmitype/StillImage"/>
    <dc:date>2022-11-28T11:28:17.325715</dc:date>
    <dc:format>image/svg+xml</dc:format>
    <dc:creator>
     <cc:Agent>
      <dc:title>Matplotlib v3.6.2, https://matplotlib.org/</dc:title>
     </cc:Agent>
    </dc:creator>
   </cc:Work>
  </rdf:RDF>
 </metadata>
 <defs>
  <style type="text/css">*{stroke-linejoin: round; stroke-linecap: butt}</style>
 </defs>
 <g id="figure_1">
  <g id="patch_1">
   <path d="M 0 345.6 
L 460.8 345.6 
L 460.8 0 
L 0 0 
z
" style="fill: #ffffff"/>
  </g>
  <g id="axes_1">
   <g id="patch_2">
    <path d="M 57.6 307.584 
L 414.72 307.584 
L 414.72 41.472 
L 57.6 41.472 
z
" style="fill: #ffffff"/>
   </g>
   <g id="matplotlib.axis_1">
    <g id="xtick_1">
     <g id="line2d_1">
      <defs>
       <path id="m188cbbeee2" d="M 0 0 
L 0 3.5 
" style="stroke: #000000; stroke-width: 0.8"/>
      </defs>
      <g>
       <use xlink:href="#m188cbbeee2" x="73.832727" y="307.584" style="stroke: #000000; stroke-width: 0.8"/>
      </g>
     </g>
     <g id="text_1">
      <text style="font: 10px 'IPAexGothic'; text-anchor: middle" x="73.832727" y="322.074625" transform="rotate(-0 73.832727 322.074625)">0</text>
     </g>
    </g>
    <g id="xtick_2">
     <g id="line2d_2">
      <g>
       <use xlink:href="#m188cbbeee2" x="140.102281" y="307.584" style="stroke: #000000; stroke-width: 0.8"/>
      </g>
     </g>
     <g id="text_2">
      <text style="font: 10px 'IPAexGothic'; text-anchor: middle" x="140.102281" y="322.074625" transform="rotate(-0 140.102281 322.074625)">1000</text>
     </g>
    </g>
    <g id="xtick_3">
     <g id="line2d_3">
      <g>
       <use xlink:href="#m188cbbeee2" x="206.371835" y="307.584" style="stroke: #000000; stroke-width: 0.8"/>
      </g>
     </g>
     <g id="text_3">
      <text style="font: 10px 'IPAexGothic'; text-anchor: middle" x="206.371835" y="322.074625" transform="rotate(-0 206.371835 322.074625)">2000</text>
     </g>
    </g>
    <g id="xtick_4">
     <g id="line2d_4">
      <g>
       <use xlink:href="#m188cbbeee2" x="272.64139" y="307.584" style="stroke: #000000; stroke-width: 0.8"/>
      </g>
     </g>
     <g id="text_4">
      <text style="font: 10px 'IPAexGothic'; text-anchor: middle" x="272.64139" y="322.074625" transform="rotate(-0 272.64139 322.074625)">3000</text>
     </g>
    </g>
    <g id="xtick_5">
     <g id="line2d_5">
      <g>
       <use xlink:href="#m188cbbeee2" x="338.910944" y="307.584" style="stroke: #000000; stroke-width: 0.8"/>
      </g>
     </g>
     <g id="text_5">
      <text style="font: 10px 'IPAexGothic'; text-anchor: middle" x="338.910944" y="322.074625" transform="rotate(-0 338.910944 322.074625)">4000</text>
     </g>
    </g>
    <g id="xtick_6">
     <g id="line2d_6">
      <g>
       <use xlink:href="#m188cbbeee2" x="405.180498" y="307.584" style="stroke: #000000; stroke-width: 0.8"/>
      </g>
     </g>
     <g id="text_6">
      <text style="font: 10px 'IPAexGothic'; text-anchor: middle" x="405.180498" y="322.074625" transform="rotate(-0 405.180498 322.074625)">5000</text>
     </g>
    </g>
    <g id="text_7">
     <text style="font: 10px 'IPAexGothic'; text-anchor: middle" x="236.16" y="335.924625" transform="rotate(-0 236.16 335.924625)">周波数[Hz]</text>
    </g>
   </g>
   <g id="matplotlib.axis_2">
    <g id="ytick_1">
     <g id="line2d_7">
      <defs>
       <path id="mced0e7e3e5" d="M 0 0 
L -3.5 0 
" style="stroke: #000000; stroke-width: 0.8"/>
      </defs>
      <g>
       <use xlink:href="#mced0e7e3e5" x="57.6" y="295.488087" style="stroke: #000000; stroke-width: 0.8"/>
      </g>
     </g>
     <g id="text_8">
      <text style="font: 10px 'IPAexGothic'; text-anchor: end" x="50.6" y="299.233399" transform="rotate(-0 50.6 299.233399)">0</text>
     </g>
    </g>
    <g id="ytick_2">
     <g id="line2d_8">
      <g>
       <use xlink:href="#mced0e7e3e5" x="57.6" y="251.41364" style="stroke: #000000; stroke-width: 0.8"/>
      </g>
     </g>
     <g id="text_9">
      <text style="font: 10px 'IPAexGothic'; text-anchor: end" x="50.6" y="255.158953" transform="rotate(-0 50.6 255.158953)">1</text>
     </g>
    </g>
    <g id="ytick_3">
     <g id="line2d_9">
      <g>
       <use xlink:href="#mced0e7e3e5" x="57.6" y="207.339194" style="stroke: #000000; stroke-width: 0.8"/>
      </g>
     </g>
     <g id="text_10">
      <text style="font: 10px 'IPAexGothic'; text-anchor: end" x="50.6" y="211.084506" transform="rotate(-0 50.6 211.084506)">2</text>
     </g>
    </g>
    <g id="ytick_4">
     <g id="line2d_10">
      <g>
       <use xlink:href="#mced0e7e3e5" x="57.6" y="163.264747" style="stroke: #000000; stroke-width: 0.8"/>
      </g>
     </g>
     <g id="text_11">
      <text style="font: 10px 'IPAexGothic'; text-anchor: end" x="50.6" y="167.01006" transform="rotate(-0 50.6 167.01006)">3</text>
     </g>
    </g>
    <g id="ytick_5">
     <g id="line2d_11">
      <g>
       <use xlink:href="#mced0e7e3e5" x="57.6" y="119.190301" style="stroke: #000000; stroke-width: 0.8"/>
      </g>
     </g>
     <g id="text_12">
      <text style="font: 10px 'IPAexGothic'; text-anchor: end" x="50.6" y="122.935614" transform="rotate(-0 50.6 122.935614)">4</text>
     </g>
    </g>
    <g id="ytick_6">
     <g id="line2d_12">
      <g>
       <use xlink:href="#mced0e7e3e5" x="57.6" y="75.115855" style="stroke: #000000; stroke-width: 0.8"/>
      </g>
     </g>
     <g id="text_13">
      <text style="font: 10px 'IPAexGothic'; text-anchor: end" x="50.6" y="78.861167" transform="rotate(-0 50.6 78.861167)">5</text>
     </g>
    </g>
    <g id="text_14">
     <text style="font: 10px 'IPAexGothic'; text-anchor: middle" x="38.401563" y="174.528" transform="rotate(-90 38.401563 174.528)">振幅</text>
    </g>
    <g id="text_15">
     <text style="font: 10px 'IPAexGothic'; text-anchor: start" x="57.6" y="38.472" transform="rotate(-0 57.6 38.472)">1e7</text>
    </g>
   </g>
   <g id="line2d_13">
    <path d="M 73.832727 287.913064 
L 73.965266 294.585445 
L 74.097805 294.819769 
L 74.362884 295.396759 
L 74.694231 295.119509 
L 75.423197 295.385185 
L 75.754544 295.294939 
L 75.887083 295.376555 
L 75.953353 295.250491 
L 76.019623 295.344156 
L 76.748588 295.418771 
L 77.278744 295.265189 
L 77.543822 295.383276 
L 77.676361 295.429851 
L 78.007709 295.382585 
L 78.206518 295.441651 
L 78.670405 295.303314 
L 79.068022 295.483234 
L 79.465639 295.447473 
L 79.995796 295.453415 
L 80.062065 295.291098 
L 80.194604 295.460336 
L 81.321187 295.458092 
L 82.116422 295.408945 
L 84.700934 295.457303 
L 86.158864 295.450255 
L 88.27949 295.39127 
L 88.412029 295.290595 
L 88.544568 295.445561 
L 89.273533 295.457302 
L 91.659237 295.447108 
L 93.779863 295.441582 
L 94.773906 295.454231 
L 95.76795 295.428018 
L 101.931018 295.414838 
L 102.394905 295.419071 
L 102.858792 295.441111 
L 102.925062 295.258465 
L 103.057601 295.444776 
L 105.708383 295.394225 
L 107.497661 295.40986 
L 109.883365 295.327171 
L 110.214712 295.269916 
L 111.341295 295.443583 
L 111.738912 295.330974 
L 112.998034 295.347889 
L 117.438094 295.343549 
L 117.504363 295.13511 
L 117.636903 295.311377 
L 118.299598 295.299373 
L 120.486493 295.23469 
L 121.281728 295.233617 
L 123.667432 295.161858 
L 123.99878 295.130808 
L 124.462667 295.115038 
L 128.505109 294.643502 
L 128.836457 294.535475 
L 129.101535 294.465069 
L 129.432883 294.368899 
L 129.8305 294.284589 
L 130.095579 293.993262 
L 130.360657 293.509627 
L 130.559466 293.111828 
L 130.957083 291.582592 
L 131.089622 292.097799 
L 131.155892 292.222451 
L 131.3547 293.50431 
L 131.619778 291.579517 
L 131.686048 291.834261 
L 131.818587 285.724886 
L 131.884857 281.822147 
L 131.951126 258.107073 
L 132.017396 53.568 
L 132.216204 266.317354 
L 132.481283 283.241216 
L 132.547552 281.377448 
L 132.94517 290.088735 
L 133.011439 289.925044 
L 133.342787 292.704263 
L 133.541596 293.214891 
L 133.740404 293.549651 
L 133.872943 293.486265 
L 134.071752 293.929934 
L 134.138021 293.169649 
L 134.204291 293.600718 
L 134.4031 294.044188 
L 134.535639 293.912941 
L 134.800717 294.29441 
L 134.999526 294.310449 
L 135.330873 294.572181 
L 136.126108 294.657505 
L 136.192378 294.805279 
L 136.324917 294.386928 
L 136.391186 294.621754 
L 136.656265 294.786333 
L 138.180464 294.928816 
L 138.246734 294.828455 
L 138.313003 294.928233 
L 140.30109 295.016286 
L 140.36736 295.175944 
L 140.433629 295.098213 
L 140.632438 295.07507 
L 141.228864 295.115071 
L 141.692751 295.10087 
L 143.28322 295.159451 
L 144.343533 295.196166 
L 144.542341 295.186609 
L 145.006228 295.197861 
L 146.19908 295.19844 
L 146.530428 295.29551 
L 146.596698 295.041751 
L 146.662967 295.226329 
L 147.126854 295.223814 
L 148.584784 295.252313 
L 148.916132 295.231978 
L 149.512558 295.252134 
L 149.910175 295.389084 
L 150.241523 295.208829 
L 150.506601 294.996049 
L 150.572871 295.047251 
L 150.70541 294.886321 
L 150.77168 295.008829 
L 150.837949 294.965372 
L 150.904219 294.910118 
L 151.036758 295.104877 
L 151.103027 295.058875 
L 151.699453 295.3634 
L 151.898262 295.162135 
L 152.362149 294.853765 
L 152.428418 294.970312 
L 152.627227 294.827698 
L 152.693497 294.815097 
L 152.759766 294.931233 
L 152.892305 294.741418 
L 153.024844 294.895768 
L 153.289923 295.049757 
L 153.356192 294.891624 
L 153.422462 295.020053 
L 153.488731 294.973579 
L 153.555001 295.267746 
L 153.62127 295.18029 
L 153.820079 295.160007 
L 153.952618 295.108831 
L 154.350235 295.12942 
L 154.549044 295.185109 
L 154.946661 295.412256 
L 155.940705 295.308512 
L 156.205783 295.280934 
L 157.663713 295.316737 
L 158.724026 295.299669 
L 161.04346 295.269416 
L 161.10973 295.072385 
L 161.242269 295.375069 
L 161.507347 295.334258 
L 167.272799 295.272151 
L 167.471607 295.237292 
L 167.604146 295.183011 
L 167.802955 295.118542 
L 168.796998 295.256068 
L 169.194616 294.990708 
L 169.260885 295.15109 
L 169.327155 295.069871 
L 169.592233 294.984238 
L 169.923581 295.194657 
L 170.05612 295.18423 
L 170.188659 295.087459 
L 170.321198 295.329704 
L 170.387468 295.23806 
L 170.453737 295.287111 
L 170.718815 295.273555 
L 170.785085 295.283511 
L 170.851354 295.180171 
L 170.917624 295.246343 
L 171.381511 295.078326 
L 171.845398 295.319316 
L 172.309285 295.297071 
L 175.490223 295.313221 
L 175.622762 295.406 
L 175.689032 294.574174 
L 175.755301 295.291853 
L 175.821571 295.259407 
L 177.146962 295.242861 
L 177.677119 295.229517 
L 177.743388 295.119684 
L 177.875927 295.255564 
L 179.333857 295.216017 
L 180.924327 295.195118 
L 181.91837 294.9724 
L 182.050909 295.192436 
L 183.3763 295.121899 
L 183.972726 295.267692 
L 184.038996 294.990427 
L 184.105265 295.070993 
L 184.370343 295.069444 
L 185.033039 295.01132 
L 185.960813 294.878088 
L 186.093352 294.747234 
L 186.292161 294.897556 
L 186.822317 294.809707 
L 187.617552 294.877204 
L 187.88263 294.53611 
L 188.081439 293.912557 
L 188.147708 294.353263 
L 188.280247 293.566502 
L 188.412786 293.466309 
L 188.545325 293.649953 
L 188.611595 293.527905 
L 188.677864 293.652305 
L 188.744134 293.56184 
L 188.942943 293.015496 
L 189.141751 294.395087 
L 189.27429 294.696726 
L 189.40683 292.360611 
L 189.473099 292.698474 
L 189.605638 291.579562 
L 189.936986 285.401149 
L 190.069525 274.924093 
L 190.135795 252.15258 
L 190.202064 157.2982 
L 190.268334 174.684078 
L 190.400873 272.671576 
L 190.599682 282.352701 
L 190.79849 289.415056 
L 191.063568 294.270705 
L 191.129838 294.652552 
L 191.196108 294.438028 
L 191.328647 294.158984 
L 191.394916 294.270218 
L 191.461186 294.119813 
L 191.726264 295.042828 
L 191.925073 294.645153 
L 191.991342 294.514843 
L 192.057612 294.575507 
L 192.25642 294.832441 
L 192.32269 294.144132 
L 192.455229 294.700676 
L 192.521499 294.575134 
L 192.587768 294.636451 
L 192.786577 294.580113 
L 192.919116 294.560553 
L 194.642124 295.03026 
L 198.485759 295.24196 
L 198.552028 295.331775 
L 198.618298 295.265765 
L 207.962305 295.359721 
L 208.625 295.425737 
L 208.956348 295.407063 
L 209.619044 295.375398 
L 210.613087 295.357536 
L 211.209513 295.363216 
L 211.540861 295.429597 
L 211.6734 295.41849 
L 212.004748 295.298357 
L 212.269826 295.282197 
L 212.402365 295.277291 
L 212.998791 295.461224 
L 213.1976 295.438322 
L 213.992834 295.405669 
L 217.240042 295.437097 
L 217.505121 295.402455 
L 218.300355 295.43576 
L 219.228129 295.368642 
L 219.360668 294.993685 
L 219.493207 295.428637 
L 220.951137 295.423269 
L 222.276528 295.417086 
L 223.270572 295.442997 
L 223.668189 295.440575 
L 224.264615 295.345141 
L 225.324928 295.248226 
L 225.457467 295.356547 
L 225.855084 295.119515 
L 226.120163 295.121345 
L 226.252702 295.126036 
L 226.318971 295.218451 
L 226.385241 295.100436 
L 226.45151 295.145094 
L 227.180475 295.335937 
L 227.379284 295.089312 
L 227.776901 295.165752 
L 227.97571 295.127605 
L 228.174519 295.219655 
L 228.439597 295.168694 
L 228.638406 295.336484 
L 228.969753 295.306284 
L 229.102292 295.158024 
L 229.168562 295.297623 
L 229.234832 295.262544 
L 231.222918 295.387655 
L 231.951883 295.431547 
L 232.680848 295.427972 
L 233.476083 295.415113 
L 233.807431 295.417505 
L 233.8737 295.236002 
L 233.93997 295.472054 
L 234.006239 295.450633 
L 235.596709 295.41948 
L 238.711378 295.400609 
L 244.211751 295.345773 
L 244.27802 295.269136 
L 244.34429 295.329659 
L 245.669681 295.248196 
L 246.266107 295.182981 
L 246.332377 295.347624 
L 246.398646 295.033354 
L 246.464916 295.105761 
L 246.729994 295.169524 
L 246.995072 295.101907 
L 247.127611 295.232683 
L 247.193881 295.329145 
L 247.458959 294.856103 
L 247.591498 294.143218 
L 247.657768 294.263685 
L 247.922846 293.834091 
L 248.121655 292.894752 
L 248.187924 292.214608 
L 248.320463 286.73025 
L 248.453002 249.124855 
L 248.585541 291.962174 
L 248.85062 294.825882 
L 249.181967 294.561487 
L 249.513315 294.724211 
L 249.778393 294.990527 
L 250.109741 295.01955 
L 250.441089 295.232601 
L 250.507358 295.041939 
L 250.639898 295.225584 
L 252.495445 295.341093 
L 252.561715 295.271818 
L 252.694254 295.369927 
L 253.091871 295.356307 
L 254.085914 295.407127 
L 256.670427 295.434441 
L 256.935505 295.431068 
L 258.658514 295.439418 
L 260.315252 295.446204 
L 262.899765 295.474057 
L 262.966035 295.340591 
L 263.032304 295.393949 
L 263.363652 295.453532 
L 265.616817 295.468333 
L 267.803712 295.384917 
L 267.936251 295.318075 
L 268.13506 295.365658 
L 268.532677 295.350083 
L 269.791799 295.348861 
L 270.255686 295.402833 
L 270.984651 295.42598 
L 271.448538 295.451298 
L 275.358441 295.46608 
L 275.888598 295.472802 
L 277.479067 295.40813 
L 277.545337 295.272245 
L 277.677876 295.463777 
L 278.936997 295.475481 
L 284.106022 295.443546 
L 284.371101 295.402702 
L 285.232605 295.399072 
L 285.696492 295.376329 
L 286.624265 295.412691 
L 287.154422 295.424776 
L 288.281004 295.482788 
L 296.697238 295.472048 
L 300.80595 295.474906 
L 305.511088 295.335133 
L 305.842436 295.312199 
L 306.240053 295.26697 
L 306.571401 294.744458 
L 306.637671 287.57002 
L 306.77021 295.154771 
L 306.902749 295.268678 
L 307.234097 295.034807 
L 307.432905 295.166698 
L 307.830523 295.449419 
L 308.22814 295.431253 
L 308.692027 295.452829 
L 308.890836 295.436357 
L 315.120174 295.471657 
L 322.277286 295.477448 
L 326.916154 295.455697 
L 328.904241 295.441024 
L 332.482797 295.473018 
L 335.067309 295.468993 
L 335.663735 295.461216 
L 335.730005 295.244945 
L 335.862544 295.455333 
L 336.52524 295.475012 
L 349.315264 295.472698 
L 355.345793 295.470378 
L 364.557261 295.296117 
L 364.6898 295.198786 
L 364.75607 294.874085 
L 364.822339 289.02399 
L 364.954878 294.602009 
L 365.286226 294.983544 
L 365.816383 295.429145 
L 366.876695 295.412436 
L 367.009235 295.403717 
L 367.804469 295.473445 
L 370.521521 295.481618 
L 374.166346 295.487348 
L 379.335372 295.43061 
L 379.401641 295.335056 
L 379.60045 295.48724 
L 382.184962 295.472942 
L 393.980943 295.477418 
L 395.703951 295.479278 
L 398.487273 295.484784 
L 398.487273 295.484784 
" clip-path="url(#pb86abd82ee)" style="fill: none; stroke: #1f77b4; stroke-width: 1.5; stroke-linecap: square"/>
   </g>
   <g id="patch_3">
    <path d="M 57.6 307.584 
L 57.6 41.472 
" style="fill: none; stroke: #000000; stroke-width: 0.8; stroke-linejoin: miter; stroke-linecap: square"/>
   </g>
   <g id="patch_4">
    <path d="M 414.72 307.584 
L 414.72 41.472 
" style="fill: none; stroke: #000000; stroke-width: 0.8; stroke-linejoin: miter; stroke-linecap: square"/>
   </g>
   <g id="patch_5">
    <path d="M 57.6 307.584 
L 414.72 307.584 
" style="fill: none; stroke: #000000; stroke-width: 0.8; stroke-linejoin: miter; stroke-linecap: square"/>
   </g>
   <g id="patch_6">
    <path d="M 57.6 41.472 
L 414.72 41.472 
" style="fill: none; stroke: #000000; stroke-width: 0.8; stroke-linejoin: miter; stroke-linecap: square"/>
   </g>
   <g id="text_16">
    <text style="font: 12px 'IPAexGothic'; text-anchor: middle" x="236.16" y="35.472" transform="rotate(-0 236.16 35.472)">"071_A5.wav"の振幅スペクトル</text>
   </g>
  </g>
 </g>
 <defs>
  <clipPath id="pb86abd82ee">
   <rect x="57.6" y="41.472" width="357.12" height="266.112"/>
  </clipPath>
 </defs>
</svg>
