<?xml version="1.0" encoding="utf-8" standalone="no"?>
<!DOCTYPE svg PUBLIC "-//W3C//DTD SVG 1.1//EN"
  "http://www.w3.org/Graphics/SVG/1.1/DTD/svg11.dtd">
<svg xmlns:xlink="http://www.w3.org/1999/xlink" width="460.8pt" height="345.6pt" viewBox="0 0 460.8 345.6" xmlns="http://www.w3.org/2000/svg" version="1.1">
 <metadata>
  <rdf:RDF xmlns:dc="http://purl.org/dc/elements/1.1/" xmlns:cc="http://creativecommons.org/ns#" xmlns:rdf="http://www.w3.org/1999/02/22-rdf-syntax-ns#">
   <cc:Work>
    <dc:type rdf:resource="http://purl.org/dc/dcmitype/StillImage"/>
    <dc:date>2022-11-28T11:31:54.366629</dc:date>
    <dc:format>image/svg+xml</dc:format>
    <dc:creator>
     <cc:Agent>
      <dc:title>Matplotlib v3.6.2, https://matplotlib.org/</dc:title>
     </cc:Agent>
    </dc:creator>
   </cc:Work>
  </rdf:RDF>
 </metadata>
 <defs>
  <style type="text/css">*{stroke-linejoin: round; stroke-linecap: butt}</style>
 </defs>
 <g id="figure_1">
  <g id="patch_1">
   <path d="M 0 345.6 
L 460.8 345.6 
L 460.8 0 
L 0 0 
z
" style="fill: #ffffff"/>
  </g>
  <g id="axes_1">
   <g id="patch_2">
    <path d="M 57.6 307.584 
L 414.72 307.584 
L 414.72 41.472 
L 57.6 41.472 
z
" style="fill: #ffffff"/>
   </g>
   <g id="matplotlib.axis_1">
    <g id="xtick_1">
     <g id="line2d_1">
      <defs>
       <path id="mf9a4def586" d="M 0 0 
L 0 3.5 
" style="stroke: #000000; stroke-width: 0.8"/>
      </defs>
      <g>
       <use xlink:href="#mf9a4def586" x="73.832727" y="307.584" style="stroke: #000000; stroke-width: 0.8"/>
      </g>
     </g>
     <g id="text_1">
      <text style="font: 10px 'IPAexGothic'; text-anchor: middle" x="73.832727" y="322.074625" transform="rotate(-0 73.832727 322.074625)">0</text>
     </g>
    </g>
    <g id="xtick_2">
     <g id="line2d_2">
      <g>
       <use xlink:href="#mf9a4def586" x="140.102281" y="307.584" style="stroke: #000000; stroke-width: 0.8"/>
      </g>
     </g>
     <g id="text_2">
      <text style="font: 10px 'IPAexGothic'; text-anchor: middle" x="140.102281" y="322.074625" transform="rotate(-0 140.102281 322.074625)">1000</text>
     </g>
    </g>
    <g id="xtick_3">
     <g id="line2d_3">
      <g>
       <use xlink:href="#mf9a4def586" x="206.371835" y="307.584" style="stroke: #000000; stroke-width: 0.8"/>
      </g>
     </g>
     <g id="text_3">
      <text style="font: 10px 'IPAexGothic'; text-anchor: middle" x="206.371835" y="322.074625" transform="rotate(-0 206.371835 322.074625)">2000</text>
     </g>
    </g>
    <g id="xtick_4">
     <g id="line2d_4">
      <g>
       <use xlink:href="#mf9a4def586" x="272.64139" y="307.584" style="stroke: #000000; stroke-width: 0.8"/>
      </g>
     </g>
     <g id="text_4">
      <text style="font: 10px 'IPAexGothic'; text-anchor: middle" x="272.64139" y="322.074625" transform="rotate(-0 272.64139 322.074625)">3000</text>
     </g>
    </g>
    <g id="xtick_5">
     <g id="line2d_5">
      <g>
       <use xlink:href="#mf9a4def586" x="338.910944" y="307.584" style="stroke: #000000; stroke-width: 0.8"/>
      </g>
     </g>
     <g id="text_5">
      <text style="font: 10px 'IPAexGothic'; text-anchor: middle" x="338.910944" y="322.074625" transform="rotate(-0 338.910944 322.074625)">4000</text>
     </g>
    </g>
    <g id="xtick_6">
     <g id="line2d_6">
      <g>
       <use xlink:href="#mf9a4def586" x="405.180498" y="307.584" style="stroke: #000000; stroke-width: 0.8"/>
      </g>
     </g>
     <g id="text_6">
      <text style="font: 10px 'IPAexGothic'; text-anchor: middle" x="405.180498" y="322.074625" transform="rotate(-0 405.180498 322.074625)">5000</text>
     </g>
    </g>
    <g id="text_7">
     <text style="font: 10px 'IPAexGothic'; text-anchor: middle" x="236.16" y="335.924625" transform="rotate(-0 236.16 335.924625)">周波数[Hz]</text>
    </g>
   </g>
   <g id="matplotlib.axis_2">
    <g id="ytick_1">
     <g id="line2d_7">
      <defs>
       <path id="mb0fffb8215" d="M 0 0 
L -3.5 0 
" style="stroke: #000000; stroke-width: 0.8"/>
      </defs>
      <g>
       <use xlink:href="#mb0fffb8215" x="57.6" y="295.489859" style="stroke: #000000; stroke-width: 0.8"/>
      </g>
     </g>
     <g id="text_8">
      <text style="font: 10px 'IPAexGothic'; text-anchor: end" x="50.6" y="299.235172" transform="rotate(-0 50.6 299.235172)">0</text>
     </g>
    </g>
    <g id="ytick_2">
     <g id="line2d_8">
      <g>
       <use xlink:href="#mb0fffb8215" x="57.6" y="257.437591" style="stroke: #000000; stroke-width: 0.8"/>
      </g>
     </g>
     <g id="text_9">
      <text style="font: 10px 'IPAexGothic'; text-anchor: end" x="50.6" y="261.182903" transform="rotate(-0 50.6 261.182903)">1</text>
     </g>
    </g>
    <g id="ytick_3">
     <g id="line2d_9">
      <g>
       <use xlink:href="#mb0fffb8215" x="57.6" y="219.385322" style="stroke: #000000; stroke-width: 0.8"/>
      </g>
     </g>
     <g id="text_10">
      <text style="font: 10px 'IPAexGothic'; text-anchor: end" x="50.6" y="223.130635" transform="rotate(-0 50.6 223.130635)">2</text>
     </g>
    </g>
    <g id="ytick_4">
     <g id="line2d_10">
      <g>
       <use xlink:href="#mb0fffb8215" x="57.6" y="181.333054" style="stroke: #000000; stroke-width: 0.8"/>
      </g>
     </g>
     <g id="text_11">
      <text style="font: 10px 'IPAexGothic'; text-anchor: end" x="50.6" y="185.078366" transform="rotate(-0 50.6 185.078366)">3</text>
     </g>
    </g>
    <g id="ytick_5">
     <g id="line2d_11">
      <g>
       <use xlink:href="#mb0fffb8215" x="57.6" y="143.280785" style="stroke: #000000; stroke-width: 0.8"/>
      </g>
     </g>
     <g id="text_12">
      <text style="font: 10px 'IPAexGothic'; text-anchor: end" x="50.6" y="147.026098" transform="rotate(-0 50.6 147.026098)">4</text>
     </g>
    </g>
    <g id="ytick_6">
     <g id="line2d_12">
      <g>
       <use xlink:href="#mb0fffb8215" x="57.6" y="105.228517" style="stroke: #000000; stroke-width: 0.8"/>
      </g>
     </g>
     <g id="text_13">
      <text style="font: 10px 'IPAexGothic'; text-anchor: end" x="50.6" y="108.973829" transform="rotate(-0 50.6 108.973829)">5</text>
     </g>
    </g>
    <g id="ytick_7">
     <g id="line2d_13">
      <g>
       <use xlink:href="#mb0fffb8215" x="57.6" y="67.176248" style="stroke: #000000; stroke-width: 0.8"/>
      </g>
     </g>
     <g id="text_14">
      <text style="font: 10px 'IPAexGothic'; text-anchor: end" x="50.6" y="70.921561" transform="rotate(-0 50.6 70.921561)">6</text>
     </g>
    </g>
    <g id="text_15">
     <text style="font: 10px 'IPAexGothic'; text-anchor: middle" x="38.401563" y="174.528" transform="rotate(-90 38.401563 174.528)">振幅</text>
    </g>
    <g id="text_16">
     <text style="font: 10px 'IPAexGothic'; text-anchor: start" x="57.6" y="38.472" transform="rotate(-0 57.6 38.472)">1e7</text>
    </g>
   </g>
   <g id="line2d_14">
    <path d="M 73.832727 295.381776 
L 74.031536 295.45023 
L 74.89304 295.460014 
L 76.284701 295.46267 
L 79.664448 295.471708 
L 80.194604 295.452957 
L 80.525952 295.472991 
L 80.8573 295.46256 
L 82.3815 295.456331 
L 82.646578 295.4487 
L 82.911656 295.414741 
L 83.110465 295.422293 
L 83.309274 295.431684 
L 83.574352 295.273125 
L 83.706891 294.823454 
L 83.83943 295.39682 
L 84.038239 295.401797 
L 84.237047 295.45305 
L 88.610838 295.450423 
L 88.942186 295.454316 
L 89.339803 295.468473 
L 89.869959 295.459915 
L 90.135038 295.441533 
L 90.466385 295.466094 
L 91.526698 295.462142 
L 91.858046 295.440522 
L 91.990585 295.457055 
L 92.255663 295.473205 
L 92.918359 295.451988 
L 93.315976 295.427643 
L 93.581054 295.410808 
L 93.779863 295.464382 
L 93.978672 295.466497 
L 94.376289 295.429975 
L 94.641367 295.461035 
L 95.105254 295.369017 
L 95.304063 295.449217 
L 95.502871 295.481351 
L 95.70168 295.450778 
L 95.900489 295.462686 
L 95.966758 295.326923 
L 96.099297 295.469438 
L 96.430645 295.472456 
L 97.358419 295.460877 
L 101.59967 295.459421 
L 102.792522 295.466566 
L 103.322679 295.455818 
L 103.985374 295.459474 
L 105.310765 295.469896 
L 105.509574 295.452136 
L 106.304809 295.456941 
L 112.269069 295.461547 
L 112.931764 295.447763 
L 117.96825 295.443166 
L 118.564676 295.4381 
L 118.763485 295.453033 
L 119.293641 295.449573 
L 119.956337 295.467241 
L 120.884111 295.441102 
L 121.347998 295.453438 
L 121.811884 295.45178 
L 122.54085 295.454515 
L 122.739658 295.445182 
L 123.534893 295.465982 
L 123.866241 295.442687 
L 124.595206 295.460885 
L 124.727745 295.459688 
L 125.125362 295.450551 
L 126.384484 295.44005 
L 126.649562 295.455801 
L 126.91464 295.466489 
L 127.643605 295.440369 
L 128.107492 295.449184 
L 128.37257 295.437133 
L 128.703918 295.406414 
L 128.770188 295.347293 
L 128.836457 295.433484 
L 128.968996 295.4462 
L 129.366614 295.254905 
L 129.432883 295.449036 
L 129.499153 295.239603 
L 129.565422 295.430291 
L 129.631692 295.228044 
L 129.697961 295.38728 
L 129.764231 295.193208 
L 129.8305 295.285039 
L 130.029309 295.368308 
L 130.161848 295.460064 
L 130.294387 295.33777 
L 130.493196 295.367203 
L 130.824544 295.379586 
L 130.957083 295.377619 
L 131.023352 295.278599 
L 131.089622 295.364554 
L 131.3547 294.994225 
L 131.42097 295.383642 
L 131.487239 295.279762 
L 131.553509 295.122673 
L 131.619778 295.395716 
L 131.752318 294.889986 
L 131.818587 295.116535 
L 131.884857 294.932053 
L 131.951126 295.355726 
L 132.017396 295.212449 
L 132.216204 294.95731 
L 132.348744 295.23442 
L 132.415013 295.094235 
L 132.481283 294.913687 
L 132.547552 295.079613 
L 132.613822 294.550642 
L 132.680091 295.205948 
L 132.746361 294.744786 
L 132.81263 295.018113 
L 133.011439 295.271986 
L 133.077709 295.067563 
L 133.143978 295.096689 
L 133.276517 295.100737 
L 133.409056 295.284171 
L 133.475326 295.100138 
L 133.541596 295.133109 
L 133.607865 295.298197 
L 133.674135 295.230475 
L 134.270561 295.375341 
L 134.33683 295.257866 
L 134.4031 295.323098 
L 134.734447 295.242216 
L 134.800717 295.435333 
L 134.866987 295.355306 
L 134.933256 295.211678 
L 134.999526 295.299587 
L 135.132065 295.23759 
L 135.198334 295.376928 
L 135.264604 295.287294 
L 135.529682 295.429924 
L 135.79476 295.419518 
L 136.059839 295.459819 
L 137.252691 295.428032 
L 137.782847 295.416659 
L 140.23482 295.420745 
L 140.897516 295.419561 
L 141.626481 295.429577 
L 141.82529 295.398017 
L 142.024098 295.40391 
L 143.614568 295.428829 
L 143.813376 295.437108 
L 144.277263 295.440341 
L 148.187167 295.413621 
L 148.584784 295.429238 
L 148.849862 295.40438 
L 149.380019 295.408993 
L 150.63914 295.427843 
L 150.837949 295.410972 
L 152.627227 295.400197 
L 152.958575 295.356439 
L 153.157384 295.406319 
L 155.012931 295.412181 
L 155.278009 295.38477 
L 155.675627 295.393819 
L 156.537131 295.40811 
L 159.386722 295.390783 
L 159.983148 295.384081 
L 162.56766 295.375584 
L 163.097817 295.344198 
L 163.760512 295.364246 
L 165.152173 295.363105 
L 165.947407 295.351301 
L 166.610103 295.364955 
L 166.808912 295.349892 
L 167.206529 295.34031 
L 167.471607 295.346853 
L 169.260885 295.340298 
L 169.525963 295.329417 
L 172.044206 295.338971 
L 172.309285 295.339399 
L 172.574363 295.278993 
L 172.773172 295.30013 
L 174.098563 295.259511 
L 174.297371 295.287289 
L 174.49618 295.309557 
L 174.694989 295.269914 
L 174.960067 295.302879 
L 175.225145 295.341435 
L 175.423954 295.342233 
L 175.622762 295.223951 
L 175.755301 295.284262 
L 175.95411 295.250369 
L 176.219188 295.249006 
L 176.550536 295.299182 
L 176.683075 295.293483 
L 177.610849 295.177993 
L 177.809658 295.220282 
L 178.406084 295.250115 
L 178.472353 295.100726 
L 178.538623 295.173055 
L 178.93624 295.222358 
L 179.068779 295.152554 
L 179.400127 295.198508 
L 179.665205 295.156922 
L 179.930283 295.236413 
L 180.062822 295.184332 
L 180.261631 295.183533 
L 180.327901 295.064551 
L 180.39417 295.220533 
L 180.592979 295.026521 
L 180.725518 295.213082 
L 180.791788 294.909364 
L 180.924327 295.184584 
L 180.990596 295.006058 
L 181.056866 295.235159 
L 181.123135 295.057538 
L 181.189405 295.08636 
L 181.255674 295.22319 
L 181.388214 295.038589 
L 181.454483 295.173894 
L 181.520753 295.131918 
L 181.719561 295.047371 
L 181.98464 295.23605 
L 182.249718 295.090452 
L 182.448526 295.155135 
L 182.514796 294.98871 
L 182.581066 295.133783 
L 182.647335 294.989576 
L 182.713605 295.109402 
L 182.779874 295.187361 
L 182.846144 295.000703 
L 182.912413 295.043501 
L 183.111222 295.140457 
L 183.243761 294.962748 
L 183.44257 295.116592 
L 183.508839 295.140711 
L 183.575109 294.853928 
L 183.641378 295.053864 
L 183.773917 294.912002 
L 183.840187 295.103515 
L 183.906457 294.966941 
L 183.972726 295.100074 
L 184.038996 294.943788 
L 184.105265 295.029715 
L 184.237804 295.029665 
L 184.569152 294.945246 
L 184.635422 294.788729 
L 184.701691 295.091885 
L 184.767961 294.837156 
L 184.83423 294.906866 
L 184.9005 295.10404 
L 184.966769 294.811246 
L 185.033039 294.994468 
L 185.563195 294.691718 
L 185.629465 294.96133 
L 185.695735 294.940783 
L 185.762004 294.620944 
L 185.828274 294.687511 
L 186.093352 294.842323 
L 186.225891 294.59256 
L 186.292161 294.689069 
L 186.35843 294.771007 
L 186.4247 294.680971 
L 186.689778 294.422711 
L 186.756047 294.682917 
L 186.822317 294.612488 
L 186.888587 294.475236 
L 186.954856 294.650865 
L 187.153665 294.192229 
L 187.219934 294.33183 
L 187.352473 294.947178 
L 187.418743 294.589406 
L 187.485013 294.971179 
L 187.551282 294.739269 
L 187.617552 294.496411 
L 187.750091 294.693098 
L 187.81636 294.540044 
L 187.88263 294.603704 
L 187.948899 295.287418 
L 188.147708 294.286115 
L 188.213978 295.096407 
L 188.280247 294.788195 
L 188.412786 294.721253 
L 188.545325 293.483652 
L 188.611595 294.746117 
L 188.810404 292.652786 
L 188.876673 293.81053 
L 189.009212 290.152662 
L 189.208021 293.055606 
L 189.27429 293.64961 
L 189.40683 289.826832 
L 189.473099 289.543882 
L 189.539369 291.349732 
L 189.605638 290.35199 
L 189.738177 288.981461 
L 189.804447 290.72386 
L 189.936986 281.051576 
L 190.003256 270.838177 
L 190.069525 281.357224 
L 190.135795 274.53702 
L 190.268334 271.386854 
L 190.467142 208.065902 
L 190.533412 229.597601 
L 190.665951 53.568 
L 190.86476 232.585479 
L 190.931029 287.759626 
L 190.997299 278.06265 
L 191.063568 283.21919 
L 191.129838 269.647291 
L 191.196108 281.075966 
L 191.262377 274.897419 
L 191.328647 274.215042 
L 191.527455 290.965059 
L 191.659994 284.647129 
L 191.792534 292.663117 
L 191.858803 289.730951 
L 191.925073 294.051914 
L 191.991342 291.874238 
L 192.123881 292.488281 
L 192.190151 292.021671 
L 192.38896 293.460496 
L 192.455229 291.465361 
L 192.654038 294.366264 
L 192.720307 292.902521 
L 192.919116 294.562724 
L 192.985386 294.087893 
L 193.051655 294.116025 
L 193.117925 294.977826 
L 193.250464 294.109233 
L 193.316733 294.668766 
L 193.383003 294.561076 
L 193.449272 294.830026 
L 193.515542 294.198669 
L 193.581812 294.285374 
L 193.648081 294.350072 
L 193.714351 294.73334 
L 193.78062 294.348236 
L 193.84689 294.628489 
L 193.913159 294.582806 
L 193.979429 294.242219 
L 194.045698 294.474545 
L 194.178237 294.320847 
L 194.244507 294.502154 
L 194.310777 294.288041 
L 194.509585 294.635194 
L 194.708394 294.701674 
L 194.774663 294.680229 
L 194.840933 294.538266 
L 194.907203 294.615514 
L 194.973472 294.801472 
L 195.039742 294.664534 
L 195.172281 294.680446 
L 195.30482 294.640384 
L 195.702437 294.906706 
L 195.768707 294.6457 
L 195.834976 294.688337 
L 195.967515 294.781653 
L 196.298863 294.685877 
L 196.497672 294.872796 
L 197.160367 294.875523 
L 197.425446 294.966419 
L 197.557985 294.904999 
L 197.756793 295.000052 
L 198.353219 294.997143 
L 198.485759 294.920698 
L 198.684567 295.064084 
L 199.082184 295.033176 
L 199.214724 295.109739 
L 199.479802 294.987436 
L 199.546071 295.10867 
L 199.612341 295.060327 
L 199.81115 295.101332 
L 199.943689 295.121777 
L 200.009958 294.991186 
L 200.076228 295.13803 
L 200.208767 295.002821 
L 200.341306 295.053377 
L 200.473845 295.027911 
L 200.540115 294.912082 
L 200.606384 295.128555 
L 200.672654 295.007172 
L 200.805193 295.121974 
L 200.871462 295.050232 
L 201.070271 295.155465 
L 201.136541 295.011865 
L 201.26908 295.179264 
L 201.600428 295.086005 
L 201.732967 295.168992 
L 201.799236 295.055091 
L 201.865506 295.097298 
L 202.064314 295.168509 
L 202.196854 295.152239 
L 202.461932 295.201818 
L 202.594471 295.152976 
L 202.79328 295.195024 
L 203.257166 295.191697 
L 203.323436 295.242901 
L 203.455975 295.128336 
L 203.787323 295.273702 
L 203.919862 295.225567 
L 204.052401 295.188945 
L 204.118671 295.109743 
L 204.25121 295.177698 
L 204.317479 295.198706 
L 204.383749 295.074724 
L 204.450018 295.183714 
L 204.582557 295.250418 
L 205.112714 295.147973 
L 205.311523 295.231057 
L 205.576601 295.236219 
L 205.775409 295.170533 
L 206.040488 295.220255 
L 206.901992 295.231419 
L 207.034531 295.253114 
L 207.498418 295.260415 
L 208.757539 295.208759 
L 208.956348 295.301775 
L 209.088887 295.266825 
L 209.420235 295.335594 
L 209.685313 295.28121 
L 209.950391 295.331744 
L 210.21547 295.277931 
L 210.613087 295.324976 
L 210.679356 295.218833 
L 210.745626 295.30186 
L 211.143243 295.373242 
L 211.209513 295.192221 
L 211.275782 295.309938 
L 211.474591 295.281807 
L 211.739669 295.290832 
L 211.805939 295.396879 
L 211.938478 295.229648 
L 212.071017 295.286972 
L 212.203556 295.307423 
L 212.402365 295.221993 
L 212.601174 295.346413 
L 212.799982 295.184271 
L 212.866252 295.312903 
L 212.932521 295.262275 
L 213.263869 295.334836 
L 213.330139 295.252301 
L 213.396408 295.356671 
L 213.462678 295.303228 
L 214.059104 295.338102 
L 214.125373 295.271735 
L 214.191643 295.355979 
L 218.764242 295.357642 
L 220.222172 295.367622 
L 220.55352 295.346933 
L 220.951137 295.341783 
L 221.149946 295.352107 
L 221.481294 295.330489 
L 222.143989 295.391907 
L 222.541607 295.353715 
L 223.138033 295.347475 
L 223.336841 295.379812 
L 224.264615 295.368032 
L 224.529693 295.408795 
L 224.794771 295.357345 
L 224.927311 295.349036 
L 225.523737 295.388484 
L 225.722545 295.371847 
L 225.987623 295.386164 
L 226.981667 295.374083 
L 227.776901 295.404182 
L 227.97571 295.379739 
L 228.704675 295.427477 
L 228.837214 295.380692 
L 229.102292 295.399506 
L 230.427684 295.42703 
L 230.493953 295.337272 
L 230.560223 295.387612 
L 234.735205 295.391897 
L 234.867744 295.37946 
L 235.199091 295.42503 
L 235.3979 295.396181 
L 238.578839 295.443751 
L 238.645108 295.291202 
L 238.711378 295.451403 
L 238.777647 295.351147 
L 238.910186 295.382596 
L 239.042726 295.433374 
L 240.434386 295.366817 
L 240.633195 295.465244 
L 240.964543 295.390923 
L 241.494699 295.445934 
L 241.627238 295.378547 
L 241.958586 295.438046 
L 242.091125 295.372058 
L 242.289934 295.427953 
L 242.488742 295.288598 
L 242.621282 295.439932 
L 242.687551 295.302527 
L 242.753821 295.345827 
L 242.82009 295.452667 
L 242.88636 295.362117 
L 243.085168 295.319967 
L 243.151438 295.406611 
L 243.350247 295.211765 
L 243.416516 295.073937 
L 243.482786 295.33286 
L 243.549055 295.315595 
L 243.814133 295.440261 
L 244.012942 295.308063 
L 244.079212 295.425654 
L 244.211751 295.22594 
L 244.27802 295.456265 
L 244.34429 295.092898 
L 244.410559 295.255082 
L 244.543099 295.315738 
L 244.609368 295.113753 
L 244.675638 295.396664 
L 244.741907 295.175474 
L 244.808177 295.419902 
L 245.006985 294.96239 
L 245.073255 295.292781 
L 245.139525 294.983046 
L 245.205794 295.183593 
L 245.338333 295.201084 
L 245.404603 294.844679 
L 245.603411 295.340886 
L 245.669681 294.783565 
L 245.735951 294.993569 
L 245.80222 294.907448 
L 245.86849 295.361021 
L 245.934759 295.055071 
L 246.001029 294.998928 
L 246.133568 295.364034 
L 246.266107 294.209804 
L 246.332377 294.853871 
L 246.398646 294.804742 
L 246.464916 294.954111 
L 246.531185 294.377253 
L 246.597455 294.718912 
L 246.663724 294.588809 
L 246.796263 295.257724 
L 246.862533 295.289986 
L 246.928803 295.166545 
L 246.995072 294.802994 
L 247.061342 294.894184 
L 247.32642 295.39974 
L 247.392689 295.339599 
L 247.458959 295.399198 
L 247.525229 295.302456 
L 247.591498 295.434177 
L 247.657768 295.362662 
L 247.790307 295.401471 
L 247.989115 295.030718 
L 248.055385 295.269885 
L 248.121655 295.065159 
L 248.187924 295.356683 
L 248.254194 295.31202 
L 248.320463 295.394554 
L 248.386733 294.757343 
L 248.453002 295.452803 
L 248.519272 295.108246 
L 248.585541 295.103989 
L 248.651811 294.979365 
L 248.85062 295.388913 
L 248.916889 294.29334 
L 249.049428 295.399782 
L 249.181967 295.408955 
L 249.248237 295.29891 
L 249.314506 295.440921 
L 249.380776 295.381135 
L 249.513315 295.152816 
L 249.977202 295.391596 
L 250.043472 295.439175 
L 250.24228 295.313012 
L 250.507358 295.46982 
L 250.573628 295.172885 
L 250.639898 295.291002 
L 250.706167 295.384762 
L 250.772437 295.301156 
L 250.838706 295.368575 
L 250.971245 295.163392 
L 251.037515 295.364571 
L 251.103784 295.208616 
L 251.170054 295.35244 
L 251.236324 295.228221 
L 251.302593 295.405158 
L 251.368863 295.335321 
L 251.501402 295.053886 
L 251.567671 295.387316 
L 251.633941 294.97061 
L 251.70021 295.249214 
L 251.83275 295.102177 
L 251.965289 295.271645 
L 252.031558 295.143444 
L 252.097828 295.207635 
L 252.164097 295.387527 
L 252.230367 295.360928 
L 252.362906 295.155138 
L 252.429176 295.291419 
L 252.495445 295.245771 
L 252.561715 295.108863 
L 252.694254 295.299164 
L 252.760523 295.330305 
L 252.826793 295.216639 
L 253.025602 295.381926 
L 253.22441 295.178128 
L 253.423219 295.39698 
L 253.489488 295.209031 
L 253.555758 295.436072 
L 253.622028 295.398156 
L 253.754567 295.346545 
L 253.953375 295.3962 
L 254.085914 295.353958 
L 254.152184 295.421824 
L 254.218453 295.339427 
L 254.417262 295.367623 
L 254.68234 295.4122 
L 254.881149 295.397766 
L 255.013688 295.282561 
L 255.146227 295.41744 
L 255.345036 295.382591 
L 255.941462 295.362719 
L 256.007731 295.437464 
L 256.074001 295.327737 
L 256.140271 295.419142 
L 256.20654 295.376583 
L 256.339079 295.439509 
L 256.405349 295.357807 
L 256.471618 295.421488 
L 257.001775 295.390896 
L 257.134314 295.405624 
L 257.333123 295.462937 
L 257.66447 295.451978 
L 257.73074 295.319655 
L 257.863279 295.444225 
L 258.062088 295.439656 
L 258.592244 295.412622 
L 258.724783 295.351147 
L 258.923592 295.479401 
L 259.18867 295.388755 
L 259.387479 295.474209 
L 259.586287 295.369909 
L 279.069536 295.431198 
L 279.268345 295.412718 
L 279.599693 295.427953 
L 279.798501 295.455681 
L 280.461197 295.465462 
L 281.123892 295.435048 
L 281.322701 295.437645 
L 281.720318 295.43561 
L 282.184205 295.399936 
L 282.383014 295.486172 
L 282.515553 295.40013 
L 282.780631 295.479463 
L 282.91317 295.451042 
L 283.509596 295.462061 
L 283.774675 295.405221 
L 283.907214 295.445045 
L 284.172292 295.398864 
L 284.371101 295.463769 
L 284.43737 295.482749 
L 284.636179 295.321391 
L 284.834987 295.476563 
L 284.901257 295.396904 
L 284.967527 295.4579 
L 285.365144 295.461503 
L 285.829031 295.465752 
L 285.96157 295.449218 
L 286.292918 295.466559 
L 286.491726 295.442601 
L 287.353231 295.357025 
L 287.48577 295.429928 
L 287.684578 295.471138 
L 287.883387 295.372252 
L 288.082196 295.450648 
L 288.347274 295.443185 
L 288.413543 295.309465 
L 288.546083 295.44941 
L 289.208778 295.43555 
L 289.407587 295.45043 
L 292.455986 295.341108 
L 292.522256 295.46875 
L 292.588525 295.373422 
L 293.184951 295.382126 
L 293.31749 295.347293 
L 293.45003 295.444088 
L 293.781377 295.438926 
L 294.377803 295.402685 
L 294.709151 295.462875 
L 294.90796 295.434584 
L 295.835733 295.473096 
L 296.100812 295.421738 
L 296.29962 295.467351 
L 296.432159 295.46296 
L 297.558742 295.432089 
L 297.625011 295.350417 
L 297.691281 295.434891 
L 298.088898 295.434585 
L 298.486516 295.430958 
L 298.817863 295.35406 
L 298.884133 295.432769 
L 298.950402 295.313477 
L 299.016672 295.465394 
L 299.082942 295.401955 
L 299.28175 295.451177 
L 299.34802 295.224967 
L 299.414289 295.317054 
L 299.613098 295.374725 
L 299.745637 295.168787 
L 299.878176 295.369167 
L 299.944446 294.937981 
L 300.010715 295.325668 
L 300.076985 295.179361 
L 300.342063 295.422814 
L 300.607141 295.192787 
L 300.673411 295.379573 
L 300.73968 295.211118 
L 300.87222 295.396686 
L 301.137298 295.165906 
L 301.203567 295.466467 
L 301.269837 295.447947 
L 301.336106 295.195397 
L 301.402376 295.345594 
L 301.799993 295.131458 
L 301.932532 295.33872 
L 301.998802 294.965692 
L 302.065072 295.435305 
L 302.131341 295.388398 
L 302.197611 295.402869 
L 302.33015 295.244988 
L 302.396419 295.338125 
L 302.462689 295.272397 
L 302.727767 295.24341 
L 302.794037 295.390043 
L 302.860306 294.903388 
L 302.992845 295.353788 
L 303.059115 295.306354 
L 303.125384 295.453213 
L 303.191654 295.336585 
L 303.257924 295.0983 
L 303.324193 295.436866 
L 303.390463 295.312134 
L 303.523002 295.231309 
L 303.655541 295.405146 
L 303.72181 295.32923 
L 303.78808 295.068768 
L 303.854349 295.39589 
L 304.053158 294.508254 
L 304.119428 295.197275 
L 304.185697 295.042103 
L 304.318236 295.154407 
L 304.517045 294.796528 
L 304.649584 295.144413 
L 304.715854 295.069141 
L 304.782123 295.029144 
L 304.848393 294.785235 
L 304.914662 295.13073 
L 304.980932 295.073587 
L 305.113471 294.857808 
L 305.179741 295.165729 
L 305.24601 294.996765 
L 305.378549 294.858449 
L 305.643627 295.228495 
L 305.709897 295.052582 
L 305.776167 295.190076 
L 305.842436 295.306325 
L 306.041245 295.074099 
L 306.173784 295.112989 
L 306.240053 294.77412 
L 306.306323 294.97015 
L 306.372593 294.986785 
L 306.438862 294.776033 
L 306.505132 295.087705 
L 306.571401 294.710692 
L 306.637671 295.080296 
L 306.70394 295.005252 
L 306.836479 294.270863 
L 306.902749 294.897692 
L 307.234097 287.691521 
L 307.300366 288.728955 
L 307.366636 294.85179 
L 307.499175 282.27951 
L 307.565445 280.725746 
L 307.631714 287.984382 
L 307.697984 282.725137 
L 307.830523 295.106821 
L 307.896792 295.051071 
L 307.963062 291.94001 
L 308.029331 294.791945 
L 308.095601 293.264406 
L 308.29441 294.708064 
L 308.360679 294.224553 
L 308.426949 295.029247 
L 308.493218 294.190238 
L 308.559488 294.785074 
L 308.625757 294.34339 
L 308.692027 295.254515 
L 308.758296 294.522998 
L 308.824566 295.357882 
L 308.890836 295.315952 
L 309.155914 294.966877 
L 309.288453 295.246811 
L 309.354722 294.740492 
L 309.420992 295.300427 
L 309.487262 294.995292 
L 309.553531 294.863463 
L 309.619801 294.919519 
L 309.68607 295.151666 
L 309.75234 295.09132 
L 309.884879 295.183735 
L 310.017418 294.901654 
L 310.083688 295.041748 
L 310.216227 295.209496 
L 310.348766 295.054365 
L 311.011461 295.414875 
L 311.21027 295.264642 
L 311.409079 295.370685 
L 311.475348 295.300027 
L 311.541618 295.479331 
L 311.607887 295.416017 
L 311.872966 295.267439 
L 312.005505 295.415398 
L 312.204313 295.3024 
L 312.933278 295.360133 
L 313.264626 295.360168 
L 313.397165 295.391747 
L 313.662244 295.354223 
L 314.523748 295.406001 
L 314.590017 295.467494 
L 314.656287 295.382622 
L 314.722556 295.31142 
L 314.788826 295.430507 
L 314.855095 295.381309 
L 315.053904 295.389484 
L 315.186443 295.35718 
L 315.252713 295.270411 
L 315.318982 295.392306 
L 315.451521 295.302107 
L 315.782869 295.378199 
L 315.915408 295.26566 
L 316.114217 295.451729 
L 316.445565 295.327396 
L 316.578104 295.399511 
L 316.776913 295.373675 
L 317.10826 295.372603 
L 317.240799 295.405806 
L 317.307069 295.474014 
L 317.439608 295.359241 
L 317.770956 295.400821 
L 318.168573 295.349206 
L 318.367382 295.393273 
L 319.427695 295.441893 
L 319.692773 295.385168 
L 320.951894 295.428946 
L 321.415781 295.421836 
L 321.54832 295.395929 
L 322.211016 295.428521 
L 322.409825 295.406885 
L 322.608633 295.449208 
L 323.13879 295.437715 
L 323.536407 295.459067 
L 323.668946 295.397793 
L 324.59672 295.433324 
L 324.795529 295.406345 
L 325.060607 295.43977 
L 325.325685 295.414066 
L 327.711389 295.439582 
L 328.042737 295.410411 
L 328.837971 295.444345 
L 329.434397 295.425297 
L 329.633206 295.438348 
L 329.765745 295.420365 
L 330.362171 295.460431 
L 330.693519 295.431644 
L 331.95264 295.44326 
L 333.278032 295.422198 
L 333.54311 295.437384 
L 334.006997 295.419299 
L 334.669692 295.43096 
L 336.657779 295.462055 
L 336.856587 295.420792 
L 337.187935 295.468213 
L 337.453013 295.430513 
L 337.651822 295.440597 
L 337.850631 295.447515 
L 338.314518 295.411568 
L 340.766491 295.409956 
L 340.89903 295.409792 
L 342.290691 295.472415 
L 342.35696 295.380426 
L 342.42323 295.445639 
L 342.4895 295.441772 
L 342.555769 295.298691 
L 342.622039 295.352766 
L 342.688308 295.440929 
L 342.754578 295.355765 
L 343.019656 295.393064 
L 343.152195 295.388954 
L 343.218465 295.333952 
L 343.351004 295.469462 
L 343.417273 295.339119 
L 343.483543 295.440427 
L 343.682352 295.381863 
L 343.814891 295.409987 
L 344.146238 295.335156 
L 344.212508 295.458629 
L 344.278777 295.420036 
L 344.875203 295.43384 
L 345.007743 295.40023 
L 345.140282 295.433857 
L 345.537899 295.408134 
L 345.670438 295.449248 
L 345.869247 295.381148 
L 346.730751 295.43213 
L 346.92956 295.397384 
L 347.592255 295.453256 
L 347.923603 295.360009 
L 348.188681 295.400075 
L 349.977959 295.407883 
L 350.243037 295.395739 
L 350.441846 295.415193 
L 350.972002 295.407012 
L 351.170811 295.359983 
L 351.30335 295.465375 
L 351.36962 295.298836 
L 351.435889 295.424072 
L 351.502159 295.337397 
L 351.634698 295.479443 
L 351.767237 295.328724 
L 351.899776 295.417419 
L 352.164854 295.316539 
L 352.231124 295.404285 
L 352.363663 295.324852 
L 352.628741 295.475648 
L 352.76128 295.305034 
L 352.89382 295.473406 
L 353.092628 295.355707 
L 353.225167 295.252785 
L 353.490246 295.446498 
L 353.689054 295.295609 
L 353.821593 295.427172 
L 354.219211 295.36697 
L 354.418019 295.42036 
L 354.484289 295.313948 
L 354.550558 295.367785 
L 354.683097 295.361516 
L 354.749367 295.271689 
L 354.815637 295.329705 
L 354.948176 295.455097 
L 355.146984 295.258021 
L 355.213254 295.451789 
L 355.279523 295.399481 
L 355.345793 295.44789 
L 355.544602 295.230525 
L 355.610871 295.416859 
L 355.677141 295.253413 
L 355.74341 295.384406 
L 355.80968 295.257543 
L 355.875949 295.48551 
L 355.942219 295.396479 
L 356.141028 295.445953 
L 356.273567 295.362536 
L 356.339836 295.379019 
L 356.406106 295.244946 
L 356.472375 295.314125 
L 356.671184 295.206336 
L 356.737454 295.084501 
L 356.803723 295.446402 
L 356.869993 295.208606 
L 356.936262 295.410698 
L 357.002532 295.323629 
L 357.201341 295.439475 
L 357.466419 295.173039 
L 357.598958 295.425956 
L 357.665227 295.146976 
L 357.731497 295.455757 
L 357.797767 295.184358 
L 357.930306 295.409365 
L 358.129114 295.238401 
L 358.261653 295.398766 
L 358.327923 295.337367 
L 358.394193 295.262559 
L 358.460462 295.348454 
L 358.526732 295.429436 
L 358.593001 295.263859 
L 358.659271 295.304812 
L 358.858079 295.445616 
L 358.924349 295.320826 
L 358.990618 295.402259 
L 359.056888 295.343708 
L 359.123158 295.438541 
L 359.255697 295.210109 
L 359.388236 295.321491 
L 359.454505 295.16296 
L 359.520775 295.221565 
L 359.587044 295.331868 
L 359.653314 295.282821 
L 359.719584 295.15544 
L 359.852123 295.350392 
L 359.984662 294.802444 
L 360.050931 295.311493 
L 360.117201 295.269358 
L 360.18347 295.295684 
L 360.24974 295.452668 
L 360.31601 295.326116 
L 360.382279 295.39491 
L 360.448549 295.21701 
L 360.514818 295.250014 
L 360.581088 295.439455 
L 360.647357 295.298875 
L 360.779896 295.418324 
L 360.846166 295.294458 
L 360.912436 295.356038 
L 361.177514 295.330789 
L 361.376322 295.136153 
L 361.442592 295.419209 
L 361.508862 295.293733 
L 361.575131 295.263261 
L 361.641401 295.410089 
L 361.77394 295.248473 
L 361.906479 295.425041 
L 361.972748 295.211979 
L 362.039018 295.328694 
L 362.105288 295.383916 
L 362.237827 295.102234 
L 362.370366 295.471971 
L 362.436635 295.095887 
L 362.502905 295.277047 
L 362.569174 295.197227 
L 362.635444 295.271896 
L 362.834253 295.42086 
L 363.033061 295.200212 
L 363.099331 295.279831 
L 363.1656 295.203812 
L 363.23187 295.188645 
L 363.29814 295.402467 
L 363.364409 295.365692 
L 363.430679 295.358062 
L 363.496948 295.125644 
L 363.695757 295.390102 
L 363.762026 295.472649 
L 363.828296 295.280606 
L 363.894565 294.726297 
L 363.960835 295.429161 
L 364.027105 294.753484 
L 364.093374 295.347586 
L 364.159644 295.202582 
L 364.292183 295.134279 
L 364.358452 295.286594 
L 364.424722 294.971792 
L 364.490991 295.346587 
L 364.557261 294.772894 
L 364.623531 295.070919 
L 364.6898 295.083644 
L 364.75607 294.91536 
L 364.822339 295.077674 
L 364.888609 295.009305 
L 364.954878 294.929244 
L 365.021148 295.085544 
L 365.087417 294.803921 
L 365.153687 295.235997 
L 365.219957 295.113994 
L 365.286226 295.090956 
L 365.352496 295.204125 
L 365.485035 294.739183 
L 365.551304 295.149365 
L 365.617574 294.639319 
L 365.683843 294.874044 
L 365.750113 295.248745 
L 365.816383 295.113368 
L 365.882652 294.984202 
L 366.081461 295.23476 
L 366.14773 295.248655 
L 366.346539 294.465899 
L 366.412809 295.397743 
L 366.479078 295.176664 
L 366.545348 294.977405 
L 366.677887 295.342278 
L 366.810426 295.08259 
L 366.942965 295.391039 
L 367.009235 295.293318 
L 367.075504 295.32494 
L 367.141774 295.105829 
L 367.208043 295.41872 
L 367.274313 295.212763 
L 367.340582 295.446534 
L 367.406852 295.142255 
L 367.473121 295.318308 
L 367.870739 295.383759 
L 367.937008 295.209137 
L 368.003278 295.392511 
L 368.069547 295.314079 
L 368.202087 295.210676 
L 368.268356 295.359524 
L 368.334626 295.168559 
L 368.400895 295.203675 
L 368.665973 295.378598 
L 368.798512 295.363316 
L 368.864782 295.192756 
L 368.997321 295.45659 
L 369.12986 295.301868 
L 369.262399 295.424647 
L 369.328669 295.243516 
L 369.394938 295.305754 
L 369.527478 295.416003 
L 369.726286 295.29257 
L 369.792556 295.373545 
L 369.858825 295.186416 
L 370.057634 295.40903 
L 370.256443 295.307854 
L 370.455251 295.435057 
L 370.521521 295.467416 
L 370.65406 295.393972 
L 370.919138 295.384763 
L 371.117947 295.441616 
L 371.250486 295.329148 
L 371.316756 295.449537 
L 371.383025 295.396329 
L 371.449295 295.322781 
L 371.515564 295.474586 
L 371.581834 295.329847 
L 371.648103 295.395177 
L 376.088163 295.42363 
L 376.286972 295.449914 
L 376.750859 295.467336 
L 376.883398 295.378991 
L 377.546094 295.456781 
L 377.877441 295.393561 
L 378.009981 295.43768 
L 378.672676 295.476462 
L 378.871485 295.467303 
L 379.269102 295.442348 
L 379.60045 295.458526 
L 379.931798 295.445174 
L 380.660763 295.446554 
L 381.12465 295.435447 
L 381.986154 295.474877 
L 382.251232 295.45776 
L 383.245275 295.46898 
L 383.576623 295.418572 
L 384.371858 295.428834 
L 384.636936 295.394819 
L 384.835745 295.45984 
L 385.299631 295.389117 
L 385.49844 295.47274 
L 385.896057 295.407052 
L 386.094866 295.449744 
L 386.227405 295.439866 
L 386.426214 295.432249 
L 386.823831 295.3933 
L 387.02264 295.438205 
L 388.745648 295.460751 
L 389.010726 295.457964 
L 389.342074 295.469141 
L 389.540883 295.440518 
L 389.805961 295.45742 
L 390.203578 295.443375 
L 390.866274 295.457172 
L 391.926587 295.411025 
L 392.125396 295.465563 
L 392.721822 295.432383 
L 394.047213 295.461776 
L 394.113482 295.393201 
L 394.179752 295.459025 
L 394.709908 295.434268 
L 394.974986 295.440845 
L 395.438873 295.39433 
L 395.637682 295.46847 
L 395.770221 295.438854 
L 396.035299 295.463197 
L 396.234108 295.384258 
L 396.432917 295.453178 
L 398.487273 295.440172 
L 398.487273 295.440172 
" clip-path="url(#p9582feb572)" style="fill: none; stroke: #1f77b4; stroke-width: 1.5; stroke-linecap: square"/>
   </g>
   <g id="patch_3">
    <path d="M 57.6 307.584 
L 57.6 41.472 
" style="fill: none; stroke: #000000; stroke-width: 0.8; stroke-linejoin: miter; stroke-linecap: square"/>
   </g>
   <g id="patch_4">
    <path d="M 414.72 307.584 
L 414.72 41.472 
" style="fill: none; stroke: #000000; stroke-width: 0.8; stroke-linejoin: miter; stroke-linecap: square"/>
   </g>
   <g id="patch_5">
    <path d="M 57.6 307.584 
L 414.72 307.584 
" style="fill: none; stroke: #000000; stroke-width: 0.8; stroke-linejoin: miter; stroke-linecap: square"/>
   </g>
   <g id="patch_6">
    <path d="M 57.6 41.472 
L 414.72 41.472 
" style="fill: none; stroke: #000000; stroke-width: 0.8; stroke-linejoin: miter; stroke-linecap: square"/>
   </g>
   <g id="text_17">
    <text style="font: 12px 'IPAexGothic'; text-anchor: middle" x="236.16" y="35.472" transform="rotate(-0 236.16 35.472)">"074_A6.wav"の振幅スペクトル</text>
   </g>
  </g>
 </g>
 <defs>
  <clipPath id="p9582feb572">
   <rect x="57.6" y="41.472" width="357.12" height="266.112"/>
  </clipPath>
 </defs>
</svg>
