<?xml version="1.0" encoding="utf-8" standalone="no"?>
<!DOCTYPE svg PUBLIC "-//W3C//DTD SVG 1.1//EN"
  "http://www.w3.org/Graphics/SVG/1.1/DTD/svg11.dtd">
<svg xmlns:xlink="http://www.w3.org/1999/xlink" width="460.8pt" height="345.6pt" viewBox="0 0 460.8 345.6" xmlns="http://www.w3.org/2000/svg" version="1.1">
 <metadata>
  <rdf:RDF xmlns:dc="http://purl.org/dc/elements/1.1/" xmlns:cc="http://creativecommons.org/ns#" xmlns:rdf="http://www.w3.org/1999/02/22-rdf-syntax-ns#">
   <cc:Work>
    <dc:type rdf:resource="http://purl.org/dc/dcmitype/StillImage"/>
    <dc:date>2022-11-28T11:31:31.634013</dc:date>
    <dc:format>image/svg+xml</dc:format>
    <dc:creator>
     <cc:Agent>
      <dc:title>Matplotlib v3.6.2, https://matplotlib.org/</dc:title>
     </cc:Agent>
    </dc:creator>
   </cc:Work>
  </rdf:RDF>
 </metadata>
 <defs>
  <style type="text/css">*{stroke-linejoin: round; stroke-linecap: butt}</style>
 </defs>
 <g id="figure_1">
  <g id="patch_1">
   <path d="M 0 345.6 
L 460.8 345.6 
L 460.8 0 
L 0 0 
z
" style="fill: #ffffff"/>
  </g>
  <g id="axes_1">
   <g id="patch_2">
    <path d="M 57.6 307.584 
L 414.72 307.584 
L 414.72 41.472 
L 57.6 41.472 
z
" style="fill: #ffffff"/>
   </g>
   <g id="matplotlib.axis_1">
    <g id="xtick_1">
     <g id="line2d_1">
      <defs>
       <path id="m16bde2b2f7" d="M 0 0 
L 0 3.5 
" style="stroke: #000000; stroke-width: 0.8"/>
      </defs>
      <g>
       <use xlink:href="#m16bde2b2f7" x="73.832727" y="307.584" style="stroke: #000000; stroke-width: 0.8"/>
      </g>
     </g>
     <g id="text_1">
      <text style="font: 10px 'IPAexGothic'; text-anchor: middle" x="73.832727" y="322.074625" transform="rotate(-0 73.832727 322.074625)">0</text>
     </g>
    </g>
    <g id="xtick_2">
     <g id="line2d_2">
      <g>
       <use xlink:href="#m16bde2b2f7" x="140.102281" y="307.584" style="stroke: #000000; stroke-width: 0.8"/>
      </g>
     </g>
     <g id="text_2">
      <text style="font: 10px 'IPAexGothic'; text-anchor: middle" x="140.102281" y="322.074625" transform="rotate(-0 140.102281 322.074625)">1000</text>
     </g>
    </g>
    <g id="xtick_3">
     <g id="line2d_3">
      <g>
       <use xlink:href="#m16bde2b2f7" x="206.371835" y="307.584" style="stroke: #000000; stroke-width: 0.8"/>
      </g>
     </g>
     <g id="text_3">
      <text style="font: 10px 'IPAexGothic'; text-anchor: middle" x="206.371835" y="322.074625" transform="rotate(-0 206.371835 322.074625)">2000</text>
     </g>
    </g>
    <g id="xtick_4">
     <g id="line2d_4">
      <g>
       <use xlink:href="#m16bde2b2f7" x="272.64139" y="307.584" style="stroke: #000000; stroke-width: 0.8"/>
      </g>
     </g>
     <g id="text_4">
      <text style="font: 10px 'IPAexGothic'; text-anchor: middle" x="272.64139" y="322.074625" transform="rotate(-0 272.64139 322.074625)">3000</text>
     </g>
    </g>
    <g id="xtick_5">
     <g id="line2d_5">
      <g>
       <use xlink:href="#m16bde2b2f7" x="338.910944" y="307.584" style="stroke: #000000; stroke-width: 0.8"/>
      </g>
     </g>
     <g id="text_5">
      <text style="font: 10px 'IPAexGothic'; text-anchor: middle" x="338.910944" y="322.074625" transform="rotate(-0 338.910944 322.074625)">4000</text>
     </g>
    </g>
    <g id="xtick_6">
     <g id="line2d_6">
      <g>
       <use xlink:href="#m16bde2b2f7" x="405.180498" y="307.584" style="stroke: #000000; stroke-width: 0.8"/>
      </g>
     </g>
     <g id="text_6">
      <text style="font: 10px 'IPAexGothic'; text-anchor: middle" x="405.180498" y="322.074625" transform="rotate(-0 405.180498 322.074625)">5000</text>
     </g>
    </g>
    <g id="text_7">
     <text style="font: 10px 'IPAexGothic'; text-anchor: middle" x="236.16" y="335.924625" transform="rotate(-0 236.16 335.924625)">周波数[Hz]</text>
    </g>
   </g>
   <g id="matplotlib.axis_2">
    <g id="ytick_1">
     <g id="line2d_7">
      <defs>
       <path id="m64f1982d33" d="M 0 0 
L -3.5 0 
" style="stroke: #000000; stroke-width: 0.8"/>
      </defs>
      <g>
       <use xlink:href="#m64f1982d33" x="57.6" y="295.501167" style="stroke: #000000; stroke-width: 0.8"/>
      </g>
     </g>
     <g id="text_8">
      <text style="font: 10px 'IPAexGothic'; text-anchor: end" x="50.6" y="299.24648" transform="rotate(-0 50.6 299.24648)">0.0</text>
     </g>
    </g>
    <g id="ytick_2">
     <g id="line2d_8">
      <g>
       <use xlink:href="#m64f1982d33" x="57.6" y="265.206719" style="stroke: #000000; stroke-width: 0.8"/>
      </g>
     </g>
     <g id="text_9">
      <text style="font: 10px 'IPAexGothic'; text-anchor: end" x="50.6" y="268.952031" transform="rotate(-0 50.6 268.952031)">0.5</text>
     </g>
    </g>
    <g id="ytick_3">
     <g id="line2d_9">
      <g>
       <use xlink:href="#m64f1982d33" x="57.6" y="234.91227" style="stroke: #000000; stroke-width: 0.8"/>
      </g>
     </g>
     <g id="text_10">
      <text style="font: 10px 'IPAexGothic'; text-anchor: end" x="50.6" y="238.657582" transform="rotate(-0 50.6 238.657582)">1.0</text>
     </g>
    </g>
    <g id="ytick_4">
     <g id="line2d_10">
      <g>
       <use xlink:href="#m64f1982d33" x="57.6" y="204.617821" style="stroke: #000000; stroke-width: 0.8"/>
      </g>
     </g>
     <g id="text_11">
      <text style="font: 10px 'IPAexGothic'; text-anchor: end" x="50.6" y="208.363133" transform="rotate(-0 50.6 208.363133)">1.5</text>
     </g>
    </g>
    <g id="ytick_5">
     <g id="line2d_11">
      <g>
       <use xlink:href="#m64f1982d33" x="57.6" y="174.323372" style="stroke: #000000; stroke-width: 0.8"/>
      </g>
     </g>
     <g id="text_12">
      <text style="font: 10px 'IPAexGothic'; text-anchor: end" x="50.6" y="178.068684" transform="rotate(-0 50.6 178.068684)">2.0</text>
     </g>
    </g>
    <g id="ytick_6">
     <g id="line2d_12">
      <g>
       <use xlink:href="#m64f1982d33" x="57.6" y="144.028923" style="stroke: #000000; stroke-width: 0.8"/>
      </g>
     </g>
     <g id="text_13">
      <text style="font: 10px 'IPAexGothic'; text-anchor: end" x="50.6" y="147.774236" transform="rotate(-0 50.6 147.774236)">2.5</text>
     </g>
    </g>
    <g id="ytick_7">
     <g id="line2d_13">
      <g>
       <use xlink:href="#m64f1982d33" x="57.6" y="113.734474" style="stroke: #000000; stroke-width: 0.8"/>
      </g>
     </g>
     <g id="text_14">
      <text style="font: 10px 'IPAexGothic'; text-anchor: end" x="50.6" y="117.479787" transform="rotate(-0 50.6 117.479787)">3.0</text>
     </g>
    </g>
    <g id="ytick_8">
     <g id="line2d_14">
      <g>
       <use xlink:href="#m64f1982d33" x="57.6" y="83.440025" style="stroke: #000000; stroke-width: 0.8"/>
      </g>
     </g>
     <g id="text_15">
      <text style="font: 10px 'IPAexGothic'; text-anchor: end" x="50.6" y="87.185338" transform="rotate(-0 50.6 87.185338)">3.5</text>
     </g>
    </g>
    <g id="ytick_9">
     <g id="line2d_15">
      <g>
       <use xlink:href="#m64f1982d33" x="57.6" y="53.145577" style="stroke: #000000; stroke-width: 0.8"/>
      </g>
     </g>
     <g id="text_16">
      <text style="font: 10px 'IPAexGothic'; text-anchor: end" x="50.6" y="56.890889" transform="rotate(-0 50.6 56.890889)">4.0</text>
     </g>
    </g>
    <g id="text_17">
     <text style="font: 10px 'IPAexGothic'; text-anchor: middle" x="29.460938" y="174.528" transform="rotate(-90 29.460938 174.528)">振幅</text>
    </g>
    <g id="text_18">
     <text style="font: 10px 'IPAexGothic'; text-anchor: start" x="57.6" y="38.472" transform="rotate(-0 57.6 38.472)">1e7</text>
    </g>
   </g>
   <g id="line2d_16">
    <path d="M 73.832727 286.416886 
L 73.898997 294.557524 
L 73.965266 293.713603 
L 74.031536 293.422505 
L 74.097805 293.50306 
L 74.230345 293.684879 
L 74.296614 293.613533 
L 74.495423 293.103445 
L 74.627962 293.806699 
L 74.694231 293.69684 
L 74.826771 293.291373 
L 74.95931 293.413185 
L 75.025579 293.392013 
L 75.091849 293.493033 
L 75.356927 293.067634 
L 75.423197 293.095969 
L 75.622005 292.743128 
L 75.688275 292.818984 
L 75.754544 293.093243 
L 75.820814 292.805491 
L 75.887083 292.973141 
L 75.953353 293.017231 
L 76.152162 292.304146 
L 76.218431 292.29637 
L 76.549779 291.018516 
L 76.616049 291.338467 
L 76.682318 288.671858 
L 76.748588 290.222322 
L 77.146205 283.627755 
L 77.212475 279.547367 
L 77.278744 281.628554 
L 77.411283 155.681525 
L 77.477553 53.568 
L 77.610092 269.100883 
L 77.676361 264.961842 
L 77.87517 287.593979 
L 77.94144 290.85393 
L 78.007709 290.557934 
L 78.073979 287.596205 
L 78.206518 290.463931 
L 78.339057 291.830974 
L 78.405327 290.816963 
L 78.537866 292.860694 
L 78.604135 292.109763 
L 78.670405 293.078237 
L 78.736674 292.546773 
L 78.869213 292.920441 
L 79.001752 293.863366 
L 79.068022 293.886735 
L 79.200561 293.049367 
L 79.266831 294.695019 
L 79.3331 294.232125 
L 79.39937 294.282723 
L 79.531909 293.907054 
L 79.598178 294.48698 
L 79.664448 294.306255 
L 79.730718 293.931081 
L 79.796987 295.152193 
L 79.863257 294.310576 
L 79.929526 294.530678 
L 79.995796 294.758868 
L 80.194604 294.039348 
L 80.260874 294.784721 
L 80.327144 294.75434 
L 80.393413 294.262214 
L 80.459683 294.592334 
L 80.525952 294.749506 
L 80.592222 294.640078 
L 80.658491 294.605407 
L 80.79103 294.907498 
L 80.8573 294.482116 
L 80.92357 294.922737 
L 80.989839 294.768332 
L 81.122378 291.613124 
L 81.188648 292.052983 
L 81.321187 294.553209 
L 81.387456 294.356873 
L 81.519996 295.119059 
L 81.586265 294.818828 
L 81.652535 294.580102 
L 81.718804 294.749385 
L 81.785074 295.007186 
L 81.851343 294.847937 
L 81.983882 295.185632 
L 82.050152 294.897237 
L 82.116422 295.171124 
L 82.182691 294.969481 
L 82.248961 295.342424 
L 82.31523 294.492331 
L 82.3815 295.254835 
L 82.447769 294.264148 
L 82.514039 294.610782 
L 82.646578 295.131546 
L 82.712848 294.918059 
L 82.779117 295.114768 
L 82.977926 293.047848 
L 83.044195 293.136682 
L 83.110465 294.460597 
L 83.176734 293.54921 
L 83.375543 294.861777 
L 83.441813 294.246898 
L 83.508082 294.744315 
L 83.640621 293.456043 
L 83.77316 292.480911 
L 84.038239 294.860098 
L 84.237047 288.605156 
L 84.303317 292.939837 
L 84.369586 284.962673 
L 84.435856 288.349104 
L 84.502125 287.350742 
L 84.634665 258.920418 
L 84.700934 176.376527 
L 84.767204 216.249891 
L 85.032282 288.626309 
L 85.098551 286.724084 
L 85.164821 291.145657 
L 85.231091 287.672495 
L 85.29736 289.849991 
L 85.36363 292.580209 
L 85.429899 291.536119 
L 85.496169 289.388514 
L 85.562438 293.312499 
L 85.694977 287.895862 
L 85.827517 294.395903 
L 85.893786 290.494489 
L 85.960056 291.484685 
L 86.026325 294.775209 
L 86.092595 292.940038 
L 86.158864 294.215792 
L 86.225134 293.981792 
L 86.291403 294.40991 
L 86.490212 292.247649 
L 86.556482 294.825229 
L 86.622751 293.568296 
L 86.75529 293.778795 
L 86.82156 294.921098 
L 86.954099 291.669971 
L 87.020369 292.443163 
L 87.086638 291.231908 
L 87.219177 294.776742 
L 87.285447 294.123422 
L 87.351716 294.466203 
L 87.417986 295.275331 
L 87.484255 291.801979 
L 87.550525 293.416154 
L 87.683064 295.148861 
L 87.815603 292.137971 
L 87.881873 294.355719 
L 87.948142 294.252253 
L 88.014412 293.764761 
L 88.080681 293.804911 
L 88.146951 294.041596 
L 88.27949 282.330996 
L 88.34576 282.741447 
L 88.412029 283.247435 
L 88.478299 292.326322 
L 88.544568 291.582413 
L 88.610838 292.274015 
L 88.677107 294.897714 
L 88.743377 294.505186 
L 88.942186 293.315315 
L 89.008455 294.366916 
L 89.207264 291.781139 
L 89.273533 294.820016 
L 89.339803 294.526786 
L 89.406072 294.578098 
L 89.472342 294.432558 
L 89.538612 293.380521 
L 89.604881 294.546906 
L 89.671151 294.508099 
L 89.73742 294.867099 
L 89.869959 294.068213 
L 89.936229 294.023748 
L 90.068768 295.104351 
L 90.135038 294.984777 
L 90.201307 294.456916 
L 90.267577 294.775219 
L 90.333846 295.264612 
L 90.400116 295.076546 
L 90.466385 294.065236 
L 90.532655 294.565161 
L 90.665194 293.43213 
L 90.731464 294.839376 
L 90.797733 293.521748 
L 90.930272 294.859821 
L 91.062811 295.259438 
L 91.129081 294.125091 
L 91.19535 294.919317 
L 91.26162 294.712868 
L 91.32789 293.25579 
L 91.394159 294.004239 
L 91.460429 294.629568 
L 91.526698 292.688466 
L 91.592968 294.200857 
L 91.659237 293.130213 
L 91.725507 287.619845 
L 91.791776 293.176746 
L 92.056855 266.827097 
L 92.189394 286.962257 
L 92.388202 291.183051 
L 92.454472 290.778107 
L 92.520742 293.570461 
L 92.587011 290.464451 
L 92.653281 293.560352 
L 92.71955 293.316967 
L 92.78582 291.657178 
L 92.852089 292.723814 
L 92.918359 292.345054 
L 92.984628 293.348549 
L 93.050898 292.998368 
L 93.117168 288.325557 
L 93.183437 290.573559 
L 93.315976 294.936741 
L 93.382246 292.333872 
L 93.448515 293.951007 
L 93.581054 293.087097 
L 93.647324 290.964439 
L 93.713593 291.108319 
L 93.846133 294.692617 
L 93.912402 295.339654 
L 93.978672 291.980917 
L 94.044941 293.571363 
L 94.111211 294.541488 
L 94.17748 294.433518 
L 94.310019 293.945957 
L 94.508828 294.423721 
L 94.641367 293.139074 
L 94.707637 294.407114 
L 94.773906 293.249849 
L 94.840176 293.555272 
L 94.972715 295.270169 
L 95.038985 293.793971 
L 95.105254 294.554806 
L 95.171524 294.230232 
L 95.237793 292.068877 
L 95.304063 294.80761 
L 95.370332 293.470921 
L 95.436602 294.938831 
L 95.70168 291.237708 
L 95.834219 294.766182 
L 95.966758 293.713637 
L 96.033028 293.856306 
L 96.165567 294.923407 
L 96.364376 292.436952 
L 96.430645 294.313878 
L 96.496915 293.76656 
L 96.629454 294.794217 
L 96.695723 294.471175 
L 96.761993 293.812408 
L 96.828263 294.781072 
L 96.894532 294.572089 
L 96.960802 293.071294 
L 97.027071 293.662202 
L 97.22588 294.790613 
L 97.557228 293.89711 
L 97.689767 295.131127 
L 97.822306 294.154144 
L 97.888575 295.163771 
L 97.954845 293.960052 
L 98.021115 294.896605 
L 98.087384 294.786635 
L 98.153654 294.379702 
L 98.219923 294.549048 
L 98.286193 295.031528 
L 98.418732 292.779591 
L 98.485001 294.212554 
L 98.551271 293.10595 
L 98.68381 294.601839 
L 98.816349 292.922671 
L 98.882619 293.887164 
L 98.948888 292.976817 
L 99.015158 294.007309 
L 99.147697 291.182738 
L 99.213966 292.786647 
L 99.346506 287.610187 
L 99.412775 293.974697 
L 99.479045 290.688221 
L 99.545314 290.51134 
L 99.611584 292.176825 
L 99.677853 288.203616 
L 99.744123 293.113361 
L 99.810392 290.253927 
L 99.876662 293.724638 
L 99.942932 286.089276 
L 100.009201 291.169992 
L 100.075471 284.516595 
L 100.14174 287.244821 
L 100.274279 294.77619 
L 100.340549 292.831356 
L 100.406818 292.69049 
L 100.539358 291.621084 
L 100.671897 294.069465 
L 100.738166 294.394826 
L 100.936975 292.565799 
L 101.069514 295.020817 
L 101.135784 293.983627 
L 101.202053 294.919798 
L 101.268323 294.514354 
L 101.334592 294.32875 
L 101.400862 294.397799 
L 101.467131 294.730108 
L 101.533401 294.348153 
L 101.59967 294.747518 
L 101.66594 294.421055 
L 101.73221 295.276803 
L 101.798479 294.303527 
L 101.864749 294.545596 
L 101.931018 295.329599 
L 102.063557 294.026464 
L 102.129827 295.052014 
L 102.196096 293.886389 
L 102.328636 295.13764 
L 102.394905 294.266406 
L 102.461175 295.406647 
L 102.527444 294.881379 
L 102.593714 294.808071 
L 102.659983 294.877561 
L 102.792522 292.924475 
L 102.858792 293.261998 
L 102.925062 292.23376 
L 102.991331 294.727013 
L 103.057601 293.659358 
L 103.12387 294.632352 
L 103.19014 294.54835 
L 103.256409 294.290871 
L 103.388948 294.856144 
L 103.521488 293.64525 
L 103.587757 294.360716 
L 103.654027 293.870207 
L 103.720296 293.973252 
L 103.786566 294.508804 
L 103.852835 293.465155 
L 103.985374 294.612358 
L 104.051644 294.356379 
L 104.117913 294.719048 
L 104.184183 294.253094 
L 104.250453 294.474231 
L 104.316722 294.626841 
L 104.382992 295.066898 
L 104.449261 294.812841 
L 104.515531 294.368365 
L 104.5818 295.113276 
L 104.64807 294.001923 
L 104.714339 294.40807 
L 104.846879 295.38124 
L 104.913148 294.74392 
L 104.979418 295.27941 
L 105.111957 294.454573 
L 105.244496 295.375763 
L 105.310765 294.604007 
L 105.443305 295.208269 
L 105.509574 293.062898 
L 105.575844 294.981597 
L 105.642113 292.395132 
L 105.708383 295.236588 
L 105.774652 291.589473 
L 105.840922 292.551877 
L 105.907191 293.451106 
L 106.039731 291.378561 
L 106.106 295.043087 
L 106.17227 294.848611 
L 106.304809 294.040193 
L 106.371078 294.760387 
L 106.437348 292.807815 
L 106.503617 293.355043 
L 106.569887 292.875242 
L 106.768696 293.939464 
L 106.834965 294.059485 
L 106.901235 291.128888 
L 106.967504 294.643215 
L 107.033774 292.347579 
L 107.166313 294.602822 
L 107.232583 290.749816 
L 107.298852 292.507912 
L 107.365122 294.287284 
L 107.431391 294.243824 
L 107.497661 294.043199 
L 107.56393 294.616407 
L 107.6302 293.93982 
L 107.696469 291.846734 
L 107.762739 291.985825 
L 107.961548 294.374238 
L 108.027817 293.855142 
L 108.094087 293.977506 
L 108.160356 294.196779 
L 108.226626 294.892286 
L 108.292895 294.461116 
L 108.359165 294.602798 
L 108.425435 292.708386 
L 108.557974 294.673521 
L 108.624243 294.545632 
L 108.690513 294.599959 
L 108.823052 295.156027 
L 108.955591 294.890058 
L 109.02186 295.043943 
L 109.08813 293.943996 
L 109.220669 294.75554 
L 109.286939 294.910236 
L 109.419478 293.876067 
L 109.485747 294.179166 
L 109.552017 294.680498 
L 109.618286 294.475202 
L 109.684556 293.604923 
L 109.817095 294.71687 
L 109.883365 294.591271 
L 110.082173 293.689122 
L 110.148443 294.467552 
L 110.214712 294.141863 
L 110.280982 294.387302 
L 110.347252 293.556337 
L 110.479791 295.257228 
L 110.54606 293.935545 
L 110.61233 294.721563 
L 110.811138 293.306166 
L 111.009947 294.724679 
L 111.142486 293.286647 
L 111.275025 294.634085 
L 111.341295 294.625046 
L 111.540104 295.175745 
L 111.606373 294.558667 
L 111.672643 295.023787 
L 111.738912 294.882043 
L 111.805182 294.454342 
L 111.871451 295.254118 
L 111.937721 295.017105 
L 112.00399 295.166177 
L 112.13653 294.952832 
L 112.202799 295.245546 
L 112.401608 294.729179 
L 112.467877 294.702127 
L 112.666686 293.545595 
L 112.732956 293.753878 
L 112.865495 295.455414 
L 112.931764 295.185151 
L 112.998034 294.311113 
L 113.064303 294.53292 
L 113.196842 294.408442 
L 113.263112 293.512736 
L 113.329382 293.577014 
L 113.52819 294.889059 
L 113.59446 293.199792 
L 113.660729 294.689034 
L 113.726999 293.70028 
L 113.793268 293.425824 
L 113.859538 292.557016 
L 113.992077 294.585868 
L 114.058347 293.92245 
L 114.124616 294.486638 
L 114.190886 293.919581 
L 114.257155 292.238496 
L 114.323425 295.073999 
L 114.389694 293.769921 
L 114.455964 293.586301 
L 114.522233 293.87418 
L 114.588503 292.569377 
L 114.654773 293.139527 
L 114.721042 293.334724 
L 114.787312 294.503453 
L 114.919851 292.183453 
L 114.98612 294.744618 
L 115.05239 293.679242 
L 115.118659 294.615972 
L 115.184929 294.453523 
L 115.317468 293.926341 
L 115.383738 294.498578 
L 115.450007 294.41299 
L 115.648816 294.888808 
L 115.715085 293.929755 
L 115.781355 294.384087 
L 115.847625 294.855879 
L 115.913894 293.904618 
L 115.980164 294.910601 
L 116.046433 294.591963 
L 116.112703 295.003446 
L 116.178972 294.353588 
L 116.245242 295.224641 
L 116.311511 295.12997 
L 116.377781 294.646242 
L 116.444051 295.339686 
L 116.51032 295.256555 
L 116.57659 295.022844 
L 116.642859 295.194931 
L 116.841668 294.745809 
L 116.907937 294.184392 
L 116.974207 294.964636 
L 117.040477 294.666643 
L 117.106746 294.42129 
L 117.239285 294.884083 
L 117.305555 294.58539 
L 117.371824 295.261596 
L 117.438094 295.215228 
L 117.504363 294.287602 
L 117.570633 294.376746 
L 117.636903 294.402536 
L 117.769442 294.933495 
L 117.835711 294.807565 
L 117.901981 294.678555 
L 117.96825 293.919696 
L 118.03452 294.363093 
L 118.100789 295.087515 
L 118.167059 294.666505 
L 118.233329 294.32813 
L 118.299598 295.230279 
L 118.365868 294.963673 
L 118.432137 294.53162 
L 118.630946 295.291632 
L 118.896024 294.798397 
L 118.962294 295.121344 
L 119.028563 294.135562 
L 119.094833 294.34979 
L 119.227372 295.023407 
L 119.293641 294.94515 
L 119.359911 295.155432 
L 119.42618 294.738659 
L 119.624989 295.300922 
L 119.691259 295.122881 
L 119.757528 295.289644 
L 119.823798 295.111822 
L 119.956337 295.408756 
L 120.155146 294.828684 
L 120.221415 295.046326 
L 120.287685 294.837579 
L 120.353954 295.386966 
L 120.420224 294.877969 
L 120.486493 295.002456 
L 120.619032 294.726666 
L 120.751572 295.393343 
L 120.95038 294.113266 
L 121.149189 294.395303 
L 121.215458 293.239289 
L 121.281728 294.885612 
L 121.347998 294.135929 
L 121.546806 292.829084 
L 121.679345 294.771769 
L 121.745615 293.192606 
L 121.811884 295.263398 
L 121.878154 294.132565 
L 121.944424 294.121267 
L 122.076963 293.19118 
L 122.342041 294.606574 
L 122.40831 294.609558 
L 122.47458 294.922308 
L 122.54085 294.464172 
L 122.607119 295.307093 
L 122.673389 294.229522 
L 122.739658 294.37679 
L 122.805928 295.144272 
L 122.872197 294.39735 
L 122.938467 295.133605 
L 123.004736 294.578834 
L 123.071006 294.634858 
L 123.137276 294.615435 
L 123.203545 294.43684 
L 123.269815 295.329119 
L 123.336084 294.253874 
L 123.402354 295.000442 
L 123.468623 294.655652 
L 123.799971 295.140368 
L 123.93251 294.43243 
L 123.99878 294.463216 
L 124.131319 295.140707 
L 124.197588 294.988781 
L 124.263858 295.219905 
L 124.330127 295.137084 
L 124.396397 294.859303 
L 124.528936 295.456691 
L 124.727745 294.997459 
L 124.794014 295.325726 
L 124.926553 294.373541 
L 125.191632 295.178359 
L 125.39044 293.840364 
L 125.45671 295.276675 
L 125.522979 295.158858 
L 125.655519 294.896936 
L 125.721788 295.171992 
L 125.788058 294.179823 
L 125.854327 295.172521 
L 125.920597 294.971603 
L 125.986866 294.65529 
L 126.053136 295.182469 
L 126.119405 294.838925 
L 126.185675 294.868086 
L 126.251945 295.280875 
L 126.450753 294.381277 
L 126.583292 295.249012 
L 126.649562 295.000588 
L 126.715831 295.213138 
L 126.782101 295.020724 
L 126.848371 294.375757 
L 126.98091 295.266417 
L 127.179718 294.031609 
L 127.245988 294.154422 
L 127.312257 295.147593 
L 127.378527 294.387649 
L 127.444797 295.145104 
L 127.511066 294.754504 
L 127.709875 295.351863 
L 127.908683 294.667515 
L 127.974953 294.575226 
L 128.041223 295.402731 
L 128.107492 294.418658 
L 128.173762 294.905769 
L 128.37257 295.224397 
L 128.43884 294.280978 
L 128.505109 294.541808 
L 128.637648 295.332512 
L 128.703918 293.648532 
L 128.770188 294.451148 
L 128.836457 294.540318 
L 128.902727 293.643162 
L 128.968996 293.933642 
L 129.035266 294.650775 
L 129.167805 293.376219 
L 129.300344 295.023503 
L 129.366614 294.748186 
L 129.432883 293.78297 
L 129.499153 294.814735 
L 129.565422 294.689097 
L 129.631692 294.858713 
L 129.697961 294.794282 
L 129.89677 294.20616 
L 130.029309 294.788778 
L 130.161848 293.630882 
L 130.228118 293.817106 
L 130.426926 295.039916 
L 130.493196 294.263075 
L 130.559466 294.562944 
L 130.625735 294.38646 
L 130.758274 295.248896 
L 130.890813 295.220086 
L 130.957083 295.173494 
L 131.089622 294.41986 
L 131.288431 295.242558 
L 131.42097 294.336791 
L 131.553509 294.83405 
L 131.619778 295.458824 
L 131.686048 294.957263 
L 131.752318 295.286671 
L 131.951126 295.249566 
L 132.017396 294.681282 
L 132.083665 295.04984 
L 132.282474 295.274202 
L 132.348744 295.007006 
L 132.415013 295.118526 
L 132.547552 295.01664 
L 132.613822 294.524953 
L 132.81263 295.296707 
L 132.94517 294.973934 
L 133.077709 295.457031 
L 133.143978 295.387267 
L 133.342787 294.535075 
L 133.409056 295.255334 
L 133.475326 295.046344 
L 133.541596 295.37563 
L 133.607865 295.350468 
L 133.806674 294.946793 
L 133.872943 295.339408 
L 133.939213 295.327303 
L 134.005482 295.292595 
L 134.270561 294.706251 
L 134.4031 295.330569 
L 134.469369 294.998497 
L 134.535639 295.286433 
L 134.601908 295.173248 
L 134.800717 295.35058 
L 134.933256 295.331562 
L 135.065795 294.513951 
L 135.132065 295.197246 
L 135.198334 294.64033 
L 135.264604 295.072987 
L 135.330873 294.633211 
L 135.397143 295.134362 
L 135.463413 295.112706 
L 135.595952 295.066425 
L 135.662221 295.390055 
L 135.728491 295.167186 
L 135.79476 295.263769 
L 135.86103 295.093095 
L 135.927299 294.394768 
L 135.993569 294.65642 
L 136.059839 294.88681 
L 136.126108 294.814393 
L 136.192378 294.838642 
L 136.258647 295.342138 
L 136.324917 293.536368 
L 136.391186 295.25858 
L 136.457456 294.855871 
L 136.523725 294.287569 
L 136.589995 294.886733 
L 136.656265 294.642338 
L 136.722534 294.723885 
L 136.921343 294.295411 
L 137.252691 295.394309 
L 137.38523 294.589584 
L 137.451499 295.078053 
L 137.517769 294.971454 
L 137.650308 294.799282 
L 137.915386 295.19267 
L 137.981656 294.908086 
L 138.047925 295.007694 
L 138.180464 294.76338 
L 138.246734 294.837524 
L 138.313003 294.60749 
L 138.445543 295.417067 
L 138.511812 294.626115 
L 138.578082 294.944605 
L 138.710621 295.043023 
L 138.84316 295.422611 
L 138.909429 295.024124 
L 138.975699 295.14116 
L 139.041968 295.212882 
L 139.108238 294.711451 
L 139.174508 294.904792 
L 139.240777 294.578947 
L 139.373316 295.112103 
L 139.572125 294.279032 
L 139.704664 295.052805 
L 139.903473 294.535488 
L 140.036012 295.382866 
L 140.102281 294.835486 
L 140.168551 295.151441 
L 140.30109 294.985779 
L 140.433629 295.268454 
L 140.566168 294.436988 
L 140.632438 294.518605 
L 140.698707 294.963423 
L 140.764977 294.622704 
L 140.831246 295.281166 
L 140.897516 295.183742 
L 141.030055 295.130254 
L 141.096325 295.164559 
L 141.228864 294.971015 
L 141.295133 294.312627 
L 141.361403 295.158632 
L 141.427672 294.731859 
L 141.626481 295.308065 
L 141.692751 294.239405 
L 141.75902 294.359957 
L 141.82529 294.284108 
L 141.891559 294.686638 
L 141.957829 294.618975 
L 142.024098 294.354686 
L 142.222907 295.036798 
L 142.355446 294.425127 
L 142.554255 295.086005 
L 142.686794 294.81838 
L 142.753064 295.262963 
L 142.819333 295.111313 
L 142.885603 294.733072 
L 142.951872 295.400311 
L 143.018142 294.938066 
L 143.084411 295.200076 
L 143.150681 294.923072 
L 143.21695 295.361788 
L 143.34949 294.263324 
L 143.482029 294.833891 
L 143.548298 294.615177 
L 143.680837 295.116265 
L 143.747107 294.97772 
L 143.813376 294.782122 
L 143.879646 293.823711 
L 143.945915 294.133467 
L 144.078455 295.257218 
L 144.144724 295.100328 
L 144.210994 294.539911 
L 144.277263 294.830027 
L 144.343533 295.080528 
L 144.409802 294.833163 
L 144.476072 295.166561 
L 144.542341 294.989727 
L 144.608611 295.230642 
L 144.74115 294.385295 
L 144.80742 295.269382 
L 144.873689 295.077816 
L 145.006228 293.96042 
L 145.072498 294.522026 
L 145.138767 294.124229 
L 145.205037 294.85376 
L 145.271307 294.625022 
L 145.337576 294.544662 
L 145.403846 294.874804 
L 145.536385 294.269495 
L 145.602654 295.02288 
L 145.668924 294.587076 
L 145.801463 294.725973 
L 145.867733 294.164082 
L 145.934002 294.201332 
L 146.066541 294.771985 
L 146.132811 294.675741 
L 146.26535 294.765429 
L 146.331619 294.772002 
L 146.397889 293.709852 
L 146.530428 295.113406 
L 146.596698 294.838881 
L 146.662967 294.99734 
L 146.729237 295.125806 
L 146.795506 294.584961 
L 146.861776 294.646272 
L 146.928045 295.090308 
L 146.994315 294.922809 
L 147.060585 294.974652 
L 147.126854 294.667116 
L 147.193124 295.178968 
L 147.259393 295.089141 
L 147.325663 294.012856 
L 147.391932 294.574495 
L 147.458202 294.973576 
L 147.524471 293.809929 
L 147.590741 294.981944 
L 147.657011 294.796809 
L 147.855819 293.642486 
L 148.054628 295.27844 
L 148.120897 295.262481 
L 148.187167 294.036558 
L 148.253437 295.050827 
L 148.319706 294.984139 
L 148.385976 294.178379 
L 148.452245 294.209899 
L 148.518515 294.039379 
L 148.584784 294.850108 
L 148.651054 294.371025 
L 148.717323 294.610419 
L 148.783593 295.28803 
L 148.982402 293.685547 
L 149.114941 295.041356 
L 149.18121 294.891079 
L 149.313749 295.4025 
L 149.380019 294.157181 
L 149.446288 294.270815 
L 149.512558 293.810575 
L 149.711367 294.924314 
L 149.777636 294.504295 
L 149.843906 294.772626 
L 149.910175 294.803688 
L 149.976445 295.116298 
L 150.042714 294.954368 
L 150.175254 295.04438 
L 150.307793 294.600591 
L 150.440332 294.847113 
L 150.506601 295.344084 
L 150.70541 294.104966 
L 150.837949 294.684917 
L 150.904219 294.586712 
L 151.103027 294.982791 
L 151.169297 294.843668 
L 151.235566 294.207537 
L 151.301836 295.095199 
L 151.368106 294.986494 
L 151.434375 295.337254 
L 151.633184 294.152431 
L 151.699453 295.09539 
L 151.765723 294.69371 
L 151.831992 295.32466 
L 151.964532 294.756937 
L 152.030801 295.191195 
L 152.097071 294.432949 
L 152.295879 295.310184 
L 152.362149 294.522988 
L 152.428418 294.925495 
L 152.494688 294.87444 
L 152.560958 294.669562 
L 152.627227 295.202675 
L 152.759766 294.642127 
L 152.892305 295.041775 
L 153.024844 294.68378 
L 153.157384 295.242999 
L 153.223653 295.068536 
L 153.289923 294.968451 
L 153.356192 294.391222 
L 153.488731 295.021261 
L 153.68754 294.388535 
L 153.753809 294.059817 
L 153.886349 295.270527 
L 153.952618 295.20795 
L 154.018888 295.356951 
L 154.217696 294.76795 
L 154.283966 295.050945 
L 154.416505 294.162682 
L 154.549044 295.283207 
L 154.615314 294.213113 
L 154.681583 294.893513 
L 154.747853 295.082586 
L 154.946661 294.621967 
L 155.012931 294.984875 
L 155.079201 294.232538 
L 155.14547 294.288812 
L 155.21174 294.768059 
L 155.278009 293.737202 
L 155.344279 293.917265 
L 155.410548 294.208568 
L 155.476818 294.128392 
L 155.543087 294.092607 
L 155.874435 295.220432 
L 156.006974 293.984993 
L 156.073244 294.996065 
L 156.139513 294.949059 
L 156.205783 294.947038 
L 156.272053 295.332594 
L 156.338322 295.095507 
L 156.404592 294.956359 
L 156.470861 295.278252 
L 156.6034 294.244201 
L 156.66967 294.737943 
L 156.735939 294.39032 
L 156.868479 295.344474 
L 157.001018 295.055759 
L 157.067287 295.448416 
L 157.199826 294.973036 
L 157.266096 295.098637 
L 157.464905 294.604789 
L 157.531174 295.225856 
L 157.597444 295.035675 
L 157.928791 294.853931 
L 157.995061 295.117755 
L 158.061331 295.064339 
L 158.1276 294.652902 
L 158.19387 295.102988 
L 158.260139 294.935604 
L 158.326409 294.97636 
L 158.458948 295.416566 
L 158.525217 295.249785 
L 158.591487 295.401437 
L 158.790296 293.907099 
L 158.856565 294.424718 
L 158.922835 293.99947 
L 158.989104 294.238429 
L 159.187913 293.669121 
L 159.386722 295.219658 
L 159.452991 295.20303 
L 159.58553 294.035343 
L 159.6518 295.09101 
L 159.718069 294.993167 
L 159.850608 295.224189 
L 159.916878 295.175201 
L 159.983148 294.540488 
L 160.049417 294.633088 
L 160.115687 295.183913 
L 160.181956 294.925718 
L 160.248226 294.571238 
L 160.447034 295.213653 
L 160.513304 294.981149 
L 160.645843 295.463388 
L 160.844652 294.790946 
L 161.04346 295.096947 
L 161.176 294.617536 
L 161.308539 295.337085 
L 161.507347 294.464151 
L 161.573617 295.449362 
L 161.639886 294.603172 
L 161.706156 294.665922 
L 161.838695 294.951745 
L 161.971234 294.917876 
L 162.103773 295.150146 
L 162.170043 295.016367 
L 162.236312 295.056431 
L 162.368852 295.222036 
L 162.435121 294.775557 
L 162.56766 295.321561 
L 162.63393 294.732931 
L 162.700199 294.909916 
L 162.766469 294.659181 
L 162.832738 293.7591 
L 162.899008 294.975268 
L 162.965278 294.939354 
L 163.031547 294.65278 
L 163.097817 294.670581 
L 163.230356 294.949434 
L 163.296625 294.932763 
L 163.362895 295.035095 
L 163.429164 294.883494 
L 163.495434 294.92647 
L 163.694243 295.108002 
L 163.826782 294.136027 
L 163.959321 295.019962 
L 164.02559 294.96524 
L 164.09186 294.917749 
L 164.158129 295.021661 
L 164.224399 294.68912 
L 164.290669 295.148 
L 164.356938 295.013383 
L 164.489477 295.283379 
L 164.754555 294.574433 
L 164.953364 295.308439 
L 165.019634 295.261336 
L 165.085903 294.935111 
L 165.152173 295.294239 
L 165.218442 295.169884 
L 165.284712 294.290076 
L 165.417251 295.409243 
L 165.54979 294.912632 
L 165.881138 295.337689 
L 166.079947 294.15442 
L 166.345025 295.364147 
L 166.543833 294.144514 
L 166.742642 294.922657 
L 166.875181 294.797633 
L 166.941451 294.941755 
L 167.07399 294.250451 
L 167.206529 295.064397 
L 167.272799 293.924625 
L 167.339068 294.319909 
L 167.604146 295.218267 
L 167.670416 295.331524 
L 167.736685 294.613146 
L 167.802955 294.661961 
L 167.869225 295.172922 
L 167.935494 294.862615 
L 168.001764 295.140027 
L 168.068033 294.587685 
L 168.200572 295.225306 
L 168.266842 295.19921 
L 168.399381 295.310318 
L 168.465651 294.94887 
L 168.53192 295.058527 
L 168.664459 295.321406 
L 168.730729 295.170928 
L 168.796998 295.223618 
L 168.863268 294.460563 
L 168.929537 295.036265 
L 168.995807 295.00074 
L 169.128346 294.893801 
L 169.194616 294.481457 
L 169.260885 295.022804 
L 169.327155 294.768171 
L 169.459694 295.12612 
L 169.525963 293.842426 
L 169.592233 294.208775 
L 169.923581 295.214898 
L 170.188659 293.891902 
L 170.453737 295.076041 
L 170.520007 294.819221 
L 170.586276 295.315879 
L 170.851354 293.82087 
L 171.050163 295.052116 
L 171.116433 295.210781 
L 171.248972 294.407561 
L 171.315241 294.512594 
L 171.381511 294.847457 
L 171.44778 294.745904 
L 171.51405 294.736667 
L 171.58032 295.2467 
L 171.646589 294.787526 
L 171.712859 295.095573 
L 171.977937 294.669055 
L 172.044206 295.019679 
L 172.176746 294.548136 
L 172.243015 294.601831 
L 172.309285 295.177958 
L 172.375554 295.087361 
L 172.574363 294.002267 
L 172.640632 293.894392 
L 172.905711 295.200781 
L 173.104519 294.476394 
L 173.170789 295.399844 
L 173.237058 294.311949 
L 173.303328 294.820481 
L 173.369598 295.393192 
L 173.435867 294.60092 
L 173.502137 295.080943 
L 173.568406 295.1881 
L 173.700945 292.999143 
L 173.767215 293.611714 
L 173.899754 294.89031 
L 173.966023 294.924095 
L 174.032293 294.417061 
L 174.098563 294.709719 
L 174.164832 294.798194 
L 174.231102 294.701508 
L 174.363641 294.816019 
L 174.42991 293.975412 
L 174.49618 294.781379 
L 174.562449 294.693012 
L 174.628719 294.076589 
L 174.694989 294.273534 
L 174.893797 295.257258 
L 175.158875 294.457141 
L 175.225145 294.951745 
L 175.291415 294.897073 
L 175.556493 295.321321 
L 175.755301 294.860651 
L 175.821571 295.079601 
L 175.887841 295.0038 
L 175.95411 294.786779 
L 176.086649 295.078214 
L 176.152919 294.840479 
L 176.219188 295.145921 
L 176.285458 294.996584 
L 176.351727 294.659308 
L 176.417997 294.794043 
L 176.484267 295.257101 
L 176.550536 295.198263 
L 176.616806 294.114321 
L 176.683075 294.641998 
L 176.815614 295.338071 
L 176.948153 294.53049 
L 177.014423 294.503659 
L 177.080693 293.251046 
L 177.213232 294.726633 
L 177.345771 295.223685 
L 177.41204 295.092947 
L 177.47831 293.840167 
L 177.544579 294.555242 
L 177.610849 294.454864 
L 177.677119 295.31352 
L 177.743388 295.289644 
L 177.875927 293.610574 
L 177.942197 293.793965 
L 178.008466 294.849381 
L 178.074736 294.122165 
L 178.207275 295.276516 
L 178.273545 294.699058 
L 178.339814 294.738485 
L 178.406084 294.754643 
L 178.472353 294.492206 
L 178.671162 295.223606 
L 178.737431 294.944357 
L 178.803701 295.214763 
L 178.86997 294.87503 
L 178.93624 295.119248 
L 179.00251 294.524326 
L 179.068779 294.617365 
L 179.135049 295.33439 
L 179.267588 293.77612 
L 179.400127 295.050867 
L 179.466396 294.285844 
L 179.532666 295.288303 
L 179.598936 294.808401 
L 179.731475 294.27776 
L 179.797744 294.942149 
L 179.864014 294.801366 
L 179.996553 295.382202 
L 180.062822 295.090557 
L 180.129092 295.113932 
L 180.195362 295.352747 
L 180.261631 295.237957 
L 180.39417 294.964678 
L 180.46044 295.206315 
L 180.526709 294.86078 
L 180.659248 295.431166 
L 180.858057 294.749005 
L 180.924327 295.040216 
L 180.990596 295.021248 
L 181.056866 294.800583 
L 181.123135 295.262717 
L 181.189405 295.18343 
L 181.255674 295.371011 
L 181.454483 294.776509 
L 181.520753 295.255623 
L 181.587022 294.563725 
L 181.653292 294.665481 
L 181.785831 295.406649 
L 181.8521 295.2858 
L 181.98464 294.506817 
L 182.050909 294.877892 
L 182.117179 294.77016 
L 182.183448 294.495073 
L 182.249718 294.527808 
L 182.315987 294.660347 
L 182.382257 294.494293 
L 182.448526 294.960535 
L 182.514796 294.812296 
L 182.779874 295.393696 
L 182.912413 295.242377 
L 182.978683 295.021063 
L 183.044952 295.141874 
L 183.177492 295.091927 
L 183.243761 294.969567 
L 183.310031 295.074645 
L 183.3763 295.001584 
L 183.575109 295.444729 
L 183.641378 295.231108 
L 183.707648 295.42432 
L 183.840187 295.040867 
L 184.038996 295.151385 
L 184.171535 295.133538 
L 184.237804 295.428797 
L 184.304074 295.379485 
L 184.767961 295.389573 
L 184.9005 295.282841 
L 184.966769 295.360713 
L 185.033039 295.278014 
L 185.099309 295.182574 
L 185.165578 295.400039 
L 185.430656 294.875676 
L 185.563195 295.163981 
L 185.629465 295.354046 
L 185.695735 295.183609 
L 185.762004 295.37499 
L 185.894543 295.141666 
L 185.960813 295.209774 
L 186.027082 294.871768 
L 186.159621 295.419602 
L 186.225891 295.369315 
L 186.35843 295.485815 
L 186.4247 295.173821 
L 186.490969 295.352389 
L 186.623508 295.141009 
L 186.756047 295.457031 
L 187.021126 295.227208 
L 187.153665 295.236691 
L 187.219934 294.985927 
L 187.418743 295.469801 
L 187.485013 295.27935 
L 187.551282 295.449989 
L 187.617552 295.317725 
L 187.750091 295.464618 
L 187.81636 295.279883 
L 187.88263 295.389936 
L 188.081439 295.225225 
L 188.147708 295.329596 
L 188.412786 295.326861 
L 188.545325 295.411013 
L 188.611595 295.168134 
L 188.677864 295.195629 
L 188.744134 295.376782 
L 188.810404 295.287407 
L 189.208021 295.470758 
L 189.40683 295.157976 
L 189.671908 295.392436 
L 189.804447 295.285477 
L 189.870716 295.466224 
L 190.003256 295.253973 
L 190.135795 295.283548 
L 190.268334 295.204935 
L 190.467142 295.437331 
L 190.533412 295.372312 
L 190.732221 295.473758 
L 190.931029 295.15579 
L 190.997299 295.264689 
L 191.527455 295.434389 
L 191.726264 295.231385 
L 191.925073 295.429209 
L 192.123881 295.39555 
L 192.190151 295.451382 
L 192.32269 295.212734 
L 192.455229 295.441846 
L 192.521499 295.28023 
L 192.654038 295.454465 
L 192.919116 295.232901 
L 193.051655 295.451673 
L 193.184194 295.314765 
L 193.250464 295.386671 
L 193.316733 295.285414 
L 193.383003 295.41523 
L 193.515542 295.233789 
L 193.581812 295.463439 
L 193.648081 295.432765 
L 194.244507 295.183921 
L 194.377046 295.392939 
L 194.509585 295.396658 
L 194.642124 295.328514 
L 194.708394 295.272306 
L 194.907203 295.448057 
L 195.106011 295.392201 
L 195.23855 295.416465 
L 195.437359 295.280602 
L 195.569898 295.430279 
L 195.702437 295.211078 
L 195.901246 295.47043 
L 195.967515 295.362734 
L 196.033785 295.479935 
L 196.100055 295.419146 
L 196.298863 295.186445 
L 196.497672 295.432425 
L 196.630211 295.438576 
L 196.82902 295.316296 
L 197.094098 295.313776 
L 197.226637 295.185173 
L 197.292907 295.197083 
L 197.359176 295.042812 
L 197.491715 295.318849 
L 197.557985 295.28872 
L 197.823063 295.340256 
L 197.889333 295.140622 
L 197.955602 295.238314 
L 198.021872 295.466982 
L 198.088141 295.397523 
L 198.28695 295.32735 
L 198.419489 295.436268 
L 198.485759 295.231792 
L 198.552028 295.363761 
L 198.750837 295.313691 
L 198.817106 295.298579 
L 198.949645 295.445646 
L 199.148454 295.281416 
L 199.347263 295.444515 
L 199.479802 295.379638 
L 199.67861 295.478971 
L 199.877419 295.234694 
L 200.009958 295.37952 
L 200.076228 295.242222 
L 200.208767 295.457596 
L 200.275036 295.153726 
L 200.341306 295.201509 
L 200.407576 295.408616 
L 200.540115 295.237057 
L 200.805193 295.443302 
L 200.937732 295.394127 
L 201.070271 295.420586 
L 201.136541 295.269908 
L 201.20281 295.464535 
L 201.26908 295.261163 
L 201.335349 295.392601 
L 201.534158 295.446916 
L 201.666697 295.093917 
L 201.799236 295.435027 
L 202.130584 295.344257 
L 202.196854 295.44304 
L 202.329393 295.275394 
L 202.395662 295.378808 
L 202.461932 295.291696 
L 202.528201 295.270744 
L 202.594471 295.464573 
L 202.66074 295.306937 
L 202.79328 295.471556 
L 202.925819 295.311009 
L 203.058358 295.421549 
L 203.257166 295.416335 
L 203.455975 295.449072 
L 203.588514 295.373214 
L 203.721053 295.439464 
L 203.853592 295.384911 
L 204.25121 295.457164 
L 204.450018 295.291133 
L 204.516288 295.445937 
L 204.582557 295.393028 
L 204.781366 295.399742 
L 204.913905 295.414478 
L 205.046444 295.470127 
L 205.112714 295.358263 
L 205.178983 295.400824 
L 205.311523 295.373129 
L 205.510331 295.419422 
L 205.841679 295.288333 
L 206.040488 295.467499 
L 208.028574 295.437135 
L 208.227383 295.422201 
L 208.426192 295.427314 
L 208.625 295.449003 
L 208.757539 295.387578 
L 208.890078 295.454737 
L 209.287696 295.441205 
L 209.486504 295.455198 
L 209.619044 295.448135 
L 209.950391 295.423399 
L 210.21547 295.436764 
L 210.878165 295.431743 
L 211.938478 295.43836 
L 212.468634 295.422423 
L 213.727756 295.441363 
L 215.649573 295.436141 
L 216.312269 295.438969 
L 219.02932 295.440561 
L 221.613833 295.444614 
L 298.685324 295.464516 
L 305.842436 295.465266 
L 321.415781 295.467895 
L 370.65406 295.472973 
L 398.487273 295.475685 
L 398.487273 295.475685 
" clip-path="url(#p26ed638253)" style="fill: none; stroke: #1f77b4; stroke-width: 1.5; stroke-linecap: square"/>
   </g>
   <g id="patch_3">
    <path d="M 57.6 307.584 
L 57.6 41.472 
" style="fill: none; stroke: #000000; stroke-width: 0.8; stroke-linejoin: miter; stroke-linecap: square"/>
   </g>
   <g id="patch_4">
    <path d="M 414.72 307.584 
L 414.72 41.472 
" style="fill: none; stroke: #000000; stroke-width: 0.8; stroke-linejoin: miter; stroke-linecap: square"/>
   </g>
   <g id="patch_5">
    <path d="M 57.6 307.584 
L 414.72 307.584 
" style="fill: none; stroke: #000000; stroke-width: 0.8; stroke-linejoin: miter; stroke-linecap: square"/>
   </g>
   <g id="patch_6">
    <path d="M 57.6 41.472 
L 414.72 41.472 
" style="fill: none; stroke: #000000; stroke-width: 0.8; stroke-linejoin: miter; stroke-linecap: square"/>
   </g>
   <g id="text_19">
    <text style="font: 12px 'IPAexGothic'; text-anchor: middle" x="236.16" y="35.472" transform="rotate(-0 236.16 35.472)">"076_A1.wav"の振幅スペクトル</text>
   </g>
  </g>
 </g>
 <defs>
  <clipPath id="p26ed638253">
   <rect x="57.6" y="41.472" width="357.12" height="266.112"/>
  </clipPath>
 </defs>
</svg>
