<?xml version="1.0" encoding="utf-8" standalone="no"?>
<!DOCTYPE svg PUBLIC "-//W3C//DTD SVG 1.1//EN"
  "http://www.w3.org/Graphics/SVG/1.1/DTD/svg11.dtd">
<svg xmlns:xlink="http://www.w3.org/1999/xlink" width="460.8pt" height="345.6pt" viewBox="0 0 460.8 345.6" xmlns="http://www.w3.org/2000/svg" version="1.1">
 <metadata>
  <rdf:RDF xmlns:dc="http://purl.org/dc/elements/1.1/" xmlns:cc="http://creativecommons.org/ns#" xmlns:rdf="http://www.w3.org/1999/02/22-rdf-syntax-ns#">
   <cc:Work>
    <dc:type rdf:resource="http://purl.org/dc/dcmitype/StillImage"/>
    <dc:date>2022-11-28T11:32:04.163598</dc:date>
    <dc:format>image/svg+xml</dc:format>
    <dc:creator>
     <cc:Agent>
      <dc:title>Matplotlib v3.6.2, https://matplotlib.org/</dc:title>
     </cc:Agent>
    </dc:creator>
   </cc:Work>
  </rdf:RDF>
 </metadata>
 <defs>
  <style type="text/css">*{stroke-linejoin: round; stroke-linecap: butt}</style>
 </defs>
 <g id="figure_1">
  <g id="patch_1">
   <path d="M 0 345.6 
L 460.8 345.6 
L 460.8 0 
L 0 0 
z
" style="fill: #ffffff"/>
  </g>
  <g id="axes_1">
   <g id="patch_2">
    <path d="M 57.6 307.584 
L 414.72 307.584 
L 414.72 41.472 
L 57.6 41.472 
z
" style="fill: #ffffff"/>
   </g>
   <g id="matplotlib.axis_1">
    <g id="xtick_1">
     <g id="line2d_1">
      <defs>
       <path id="maa76f2fe0e" d="M 0 0 
L 0 3.5 
" style="stroke: #000000; stroke-width: 0.8"/>
      </defs>
      <g>
       <use xlink:href="#maa76f2fe0e" x="73.832727" y="307.584" style="stroke: #000000; stroke-width: 0.8"/>
      </g>
     </g>
     <g id="text_1">
      <text style="font: 10px 'IPAexGothic'; text-anchor: middle" x="73.832727" y="322.074625" transform="rotate(-0 73.832727 322.074625)">0</text>
     </g>
    </g>
    <g id="xtick_2">
     <g id="line2d_2">
      <g>
       <use xlink:href="#maa76f2fe0e" x="140.102281" y="307.584" style="stroke: #000000; stroke-width: 0.8"/>
      </g>
     </g>
     <g id="text_2">
      <text style="font: 10px 'IPAexGothic'; text-anchor: middle" x="140.102281" y="322.074625" transform="rotate(-0 140.102281 322.074625)">1000</text>
     </g>
    </g>
    <g id="xtick_3">
     <g id="line2d_3">
      <g>
       <use xlink:href="#maa76f2fe0e" x="206.371835" y="307.584" style="stroke: #000000; stroke-width: 0.8"/>
      </g>
     </g>
     <g id="text_3">
      <text style="font: 10px 'IPAexGothic'; text-anchor: middle" x="206.371835" y="322.074625" transform="rotate(-0 206.371835 322.074625)">2000</text>
     </g>
    </g>
    <g id="xtick_4">
     <g id="line2d_4">
      <g>
       <use xlink:href="#maa76f2fe0e" x="272.64139" y="307.584" style="stroke: #000000; stroke-width: 0.8"/>
      </g>
     </g>
     <g id="text_4">
      <text style="font: 10px 'IPAexGothic'; text-anchor: middle" x="272.64139" y="322.074625" transform="rotate(-0 272.64139 322.074625)">3000</text>
     </g>
    </g>
    <g id="xtick_5">
     <g id="line2d_5">
      <g>
       <use xlink:href="#maa76f2fe0e" x="338.910944" y="307.584" style="stroke: #000000; stroke-width: 0.8"/>
      </g>
     </g>
     <g id="text_5">
      <text style="font: 10px 'IPAexGothic'; text-anchor: middle" x="338.910944" y="322.074625" transform="rotate(-0 338.910944 322.074625)">4000</text>
     </g>
    </g>
    <g id="xtick_6">
     <g id="line2d_6">
      <g>
       <use xlink:href="#maa76f2fe0e" x="405.180498" y="307.584" style="stroke: #000000; stroke-width: 0.8"/>
      </g>
     </g>
     <g id="text_6">
      <text style="font: 10px 'IPAexGothic'; text-anchor: middle" x="405.180498" y="322.074625" transform="rotate(-0 405.180498 322.074625)">5000</text>
     </g>
    </g>
    <g id="text_7">
     <text style="font: 10px 'IPAexGothic'; text-anchor: middle" x="236.16" y="335.924625" transform="rotate(-0 236.16 335.924625)">周波数[Hz]</text>
    </g>
   </g>
   <g id="matplotlib.axis_2">
    <g id="ytick_1">
     <g id="line2d_7">
      <defs>
       <path id="m2240eea280" d="M 0 0 
L -3.5 0 
" style="stroke: #000000; stroke-width: 0.8"/>
      </defs>
      <g>
       <use xlink:href="#m2240eea280" x="57.6" y="295.489859" style="stroke: #000000; stroke-width: 0.8"/>
      </g>
     </g>
     <g id="text_8">
      <text style="font: 10px 'IPAexGothic'; text-anchor: end" x="50.6" y="299.235172" transform="rotate(-0 50.6 299.235172)">0</text>
     </g>
    </g>
    <g id="ytick_2">
     <g id="line2d_8">
      <g>
       <use xlink:href="#m2240eea280" x="57.6" y="243.606487" style="stroke: #000000; stroke-width: 0.8"/>
      </g>
     </g>
     <g id="text_9">
      <text style="font: 10px 'IPAexGothic'; text-anchor: end" x="50.6" y="247.3518" transform="rotate(-0 50.6 247.3518)">1</text>
     </g>
    </g>
    <g id="ytick_3">
     <g id="line2d_9">
      <g>
       <use xlink:href="#m2240eea280" x="57.6" y="191.723115" style="stroke: #000000; stroke-width: 0.8"/>
      </g>
     </g>
     <g id="text_10">
      <text style="font: 10px 'IPAexGothic'; text-anchor: end" x="50.6" y="195.468427" transform="rotate(-0 50.6 195.468427)">2</text>
     </g>
    </g>
    <g id="ytick_4">
     <g id="line2d_10">
      <g>
       <use xlink:href="#m2240eea280" x="57.6" y="139.839742" style="stroke: #000000; stroke-width: 0.8"/>
      </g>
     </g>
     <g id="text_11">
      <text style="font: 10px 'IPAexGothic'; text-anchor: end" x="50.6" y="143.585055" transform="rotate(-0 50.6 143.585055)">3</text>
     </g>
    </g>
    <g id="ytick_5">
     <g id="line2d_11">
      <g>
       <use xlink:href="#m2240eea280" x="57.6" y="87.95637" style="stroke: #000000; stroke-width: 0.8"/>
      </g>
     </g>
     <g id="text_12">
      <text style="font: 10px 'IPAexGothic'; text-anchor: end" x="50.6" y="91.701682" transform="rotate(-0 50.6 91.701682)">4</text>
     </g>
    </g>
    <g id="text_13">
     <text style="font: 10px 'IPAexGothic'; text-anchor: middle" x="38.401563" y="174.528" transform="rotate(-90 38.401563 174.528)">振幅</text>
    </g>
    <g id="text_14">
     <text style="font: 10px 'IPAexGothic'; text-anchor: start" x="57.6" y="38.472" transform="rotate(-0 57.6 38.472)">1e7</text>
    </g>
   </g>
   <g id="line2d_12">
    <path d="M 73.832727 293.373729 
L 74.031536 294.97642 
L 74.296614 295.402349 
L 74.429153 295.364747 
L 74.495423 295.418591 
L 74.561692 295.285387 
L 74.627962 295.339042 
L 74.694231 295.379574 
L 74.89304 295.24445 
L 75.025579 295.453919 
L 75.555736 295.226936 
L 75.688275 295.090181 
L 75.754544 295.314549 
L 75.820814 295.229678 
L 75.887083 295.356418 
L 75.953353 295.273793 
L 76.41724 295.073567 
L 76.483509 295.33527 
L 76.549779 295.089543 
L 76.616049 295.161817 
L 76.682318 295.245021 
L 76.814857 295.076697 
L 76.881127 295.145203 
L 77.013666 295.071743 
L 77.278744 295.002259 
L 77.345014 294.943885 
L 77.477553 295.059462 
L 77.610092 295.100075 
L 77.742631 294.917709 
L 77.87517 294.987701 
L 77.94144 294.914775 
L 78.007709 295.081641 
L 78.140248 294.706813 
L 78.206518 294.835174 
L 78.405327 294.601726 
L 78.471596 294.55896 
L 78.537866 294.748575 
L 78.802944 294.29274 
L 79.001752 294.35468 
L 79.200561 294.135926 
L 79.266831 294.373868 
L 79.531909 293.07548 
L 79.664448 294.431938 
L 79.730718 293.770286 
L 79.796987 293.145042 
L 79.863257 293.394172 
L 79.929526 293.68769 
L 80.260874 291.922011 
L 80.327144 291.841867 
L 80.393413 292.288634 
L 80.592222 290.10457 
L 80.658491 290.41331 
L 80.724761 291.399172 
L 80.8573 272.951958 
L 80.92357 249.137576 
L 80.989839 251.838516 
L 81.056109 268.777026 
L 81.122378 53.568 
L 81.254917 270.452775 
L 81.387456 280.377321 
L 81.453726 279.31423 
L 81.718804 291.969476 
L 81.785074 291.136229 
L 82.050152 293.935798 
L 82.116422 293.090105 
L 82.248961 291.629519 
L 82.31523 291.817039 
L 82.447769 293.228122 
L 82.514039 292.880972 
L 82.580308 292.835403 
L 82.845387 293.541144 
L 82.911656 293.524415 
L 82.977926 293.035908 
L 83.110465 294.141164 
L 83.309274 293.643539 
L 83.441813 294.152893 
L 83.508082 294.126442 
L 83.574352 293.763445 
L 83.640621 293.842817 
L 83.83943 294.118659 
L 84.170778 294.424151 
L 84.369586 294.252533 
L 84.502125 294.144304 
L 84.700934 294.815974 
L 84.899743 294.445373 
L 84.966012 294.59822 
L 85.032282 294.186819 
L 85.164821 294.602023 
L 85.29736 294.478885 
L 85.36363 294.832467 
L 85.429899 294.620286 
L 85.628708 294.414726 
L 85.761247 294.891896 
L 85.893786 294.609084 
L 86.026325 294.67027 
L 86.092595 294.891064 
L 86.158864 294.749059 
L 86.423943 294.619945 
L 86.490212 294.788948 
L 86.622751 294.528827 
L 86.75529 294.756119 
L 86.82156 294.673746 
L 86.887829 294.792107 
L 86.954099 294.633398 
L 87.020369 294.684065 
L 87.152908 294.646827 
L 87.219177 294.744945 
L 87.285447 294.518809 
L 87.417986 295.020839 
L 87.616795 294.638522 
L 87.749334 294.825288 
L 87.815603 294.581354 
L 87.881873 294.650454 
L 88.014412 295.18392 
L 88.146951 294.541052 
L 88.213221 294.67342 
L 88.34576 293.208511 
L 88.412029 293.191788 
L 88.478299 294.307836 
L 88.610838 293.134935 
L 88.809646 294.95775 
L 88.875916 295.134055 
L 89.074725 294.392058 
L 89.140994 294.449335 
L 89.273533 295.012561 
L 89.538612 294.366614 
L 89.604881 295.140409 
L 89.671151 294.776224 
L 89.73742 294.51195 
L 89.80369 294.795941 
L 89.869959 294.733662 
L 89.936229 294.537047 
L 90.135038 294.929029 
L 90.333846 294.519162 
L 90.400116 294.565931 
L 90.466385 294.9925 
L 90.532655 294.945287 
L 90.731464 294.633981 
L 90.797733 294.936455 
L 90.864003 294.721453 
L 91.062811 295.052605 
L 91.19535 294.045636 
L 91.26162 294.564859 
L 91.460429 294.777524 
L 91.526698 294.497024 
L 91.592968 294.858465 
L 91.659237 294.6826 
L 91.791776 294.250128 
L 91.924316 295.103943 
L 92.123124 293.965052 
L 92.255663 294.940341 
L 92.321933 294.195815 
L 92.388202 294.474145 
L 92.520742 294.930157 
L 92.653281 294.04652 
L 92.71955 294.962514 
L 92.78582 294.658837 
L 92.918359 294.25222 
L 92.984628 294.670817 
L 93.050898 294.182351 
L 93.117168 294.895743 
L 93.249707 293.995002 
L 93.315976 294.689415 
L 93.382246 293.999263 
L 93.448515 294.440051 
L 93.514785 294.311845 
L 93.713593 294.820421 
L 93.978672 293.537882 
L 94.111211 293.37729 
L 94.17748 293.233433 
L 94.24375 293.471119 
L 94.310019 292.347124 
L 94.376289 292.903518 
L 94.442559 293.952781 
L 94.575098 293.009064 
L 94.707637 293.74258 
L 94.773906 290.423781 
L 94.972715 294.566761 
L 95.038985 293.083213 
L 95.237793 280.963319 
L 95.370332 293.639758 
L 95.569141 267.457646 
L 95.635411 288.43911 
L 95.70168 163.054928 
L 95.76795 218.784543 
L 95.900489 291.116004 
L 95.966758 291.677414 
L 96.099297 288.172421 
L 96.165567 290.93608 
L 96.231837 290.278405 
L 96.298106 289.242719 
L 96.430645 295.154725 
L 96.496915 294.096075 
L 96.563184 290.912482 
L 96.629454 291.17792 
L 96.695723 293.61324 
L 96.761993 292.845156 
L 96.894532 293.702844 
L 96.960802 293.436634 
L 97.027071 291.697392 
L 97.093341 292.319532 
L 97.15961 291.512463 
L 97.22588 292.120021 
L 97.292149 294.458189 
L 97.358419 293.368223 
L 97.424689 293.554344 
L 97.490958 293.049541 
L 97.557228 293.309792 
L 97.623497 293.293254 
L 97.689767 295.387683 
L 97.756036 294.232145 
L 97.888575 292.872929 
L 98.153654 295.018618 
L 98.219923 294.129525 
L 98.286193 294.577494 
L 98.352462 294.99399 
L 98.418732 294.318241 
L 98.485001 294.576139 
L 98.61754 293.820035 
L 98.75008 294.813555 
L 98.882619 293.945275 
L 98.948888 294.821468 
L 99.015158 294.650527 
L 99.147697 294.661004 
L 99.213966 294.926904 
L 99.280236 294.879068 
L 99.346506 294.44819 
L 99.412775 294.569768 
L 99.677853 295.214703 
L 99.942932 294.338827 
L 100.14174 294.381812 
L 100.274279 293.285643 
L 100.473088 295.287891 
L 100.671897 295.139203 
L 100.738166 294.524934 
L 100.804436 294.888784 
L 100.870705 295.406223 
L 100.936975 295.123077 
L 101.003244 294.87342 
L 101.069514 295.043789 
L 101.135784 293.655844 
L 101.202053 293.73388 
L 101.334592 295.091944 
L 101.400862 295.070899 
L 101.467131 295.149436 
L 101.533401 295.059747 
L 101.59967 294.670625 
L 101.66594 294.973926 
L 101.73221 294.235639 
L 101.798479 294.355728 
L 101.997288 295.20953 
L 102.196096 294.837671 
L 102.262366 293.96395 
L 102.328636 294.926349 
L 102.394905 294.696068 
L 102.461175 295.115586 
L 102.858792 289.353663 
L 102.925062 290.069194 
L 102.991331 286.323105 
L 103.256409 293.614452 
L 103.455218 295.134688 
L 103.521488 295.061131 
L 103.587757 294.937815 
L 103.654027 295.35122 
L 103.786566 294.795828 
L 103.852835 295.120203 
L 103.919105 295.027499 
L 104.051644 293.795685 
L 104.184183 295.29324 
L 104.316722 294.344889 
L 104.382992 294.275833 
L 104.449261 295.229162 
L 104.5818 293.556546 
L 104.64807 294.222411 
L 104.714339 294.9235 
L 104.780609 294.623485 
L 104.913148 295.127546 
L 104.979418 295.076814 
L 105.045687 294.813501 
L 105.178226 295.109894 
L 105.443305 294.592253 
L 105.575844 295.248535 
L 105.642113 294.988973 
L 105.708383 294.785116 
L 105.907191 295.280279 
L 105.973461 295.153434 
L 106.106 294.387073 
L 106.304809 295.164105 
L 106.371078 294.736589 
L 106.437348 295.017892 
L 106.503617 295.047018 
L 106.569887 294.876224 
L 106.636157 295.007388 
L 106.834965 295.218327 
L 106.901235 295.064977 
L 106.967504 295.277722 
L 107.166313 294.653015 
L 107.232583 295.158852 
L 107.298852 294.441884 
L 107.365122 294.578462 
L 107.6302 295.328479 
L 107.696469 295.158521 
L 107.762739 294.75451 
L 107.961548 295.306211 
L 108.027817 295.236169 
L 108.094087 294.728381 
L 108.160356 294.820214 
L 108.226626 295.086899 
L 108.292895 294.459259 
L 108.359165 294.835936 
L 108.425435 294.446283 
L 108.491704 294.608028 
L 108.557974 294.751896 
L 108.690513 294.181465 
L 109.02186 294.851829 
L 109.08813 294.221458 
L 109.1544 294.88832 
L 109.220669 292.921398 
L 109.286939 293.377901 
L 109.419478 294.803808 
L 109.485747 294.772441 
L 109.684556 291.776262 
L 109.817095 294.229706 
L 109.883365 294.138248 
L 109.949634 287.111721 
L 110.015904 291.811861 
L 110.082173 291.340679 
L 110.214712 285.168954 
L 110.347252 260.468503 
L 110.479791 294.557529 
L 110.54606 294.603924 
L 110.678599 290.927981 
L 110.744869 292.81192 
L 110.811138 292.411342 
L 110.877408 289.853588 
L 110.943678 294.745363 
L 111.009947 294.7366 
L 111.076217 293.789352 
L 111.142486 293.803241 
L 111.275025 294.22276 
L 111.407564 291.984554 
L 111.606373 295.095247 
L 111.672643 292.988972 
L 111.738912 294.216327 
L 111.805182 294.41942 
L 111.871451 293.766738 
L 112.00399 294.572294 
L 112.13653 293.444105 
L 112.335338 295.017685 
L 112.401608 294.566663 
L 112.467877 292.102984 
L 112.534147 293.871938 
L 112.600416 292.870628 
L 112.666686 291.904406 
L 112.865495 295.453881 
L 112.931764 294.092125 
L 113.064303 295.187506 
L 113.130573 293.506198 
L 113.196842 293.919748 
L 113.329382 294.762729 
L 113.461921 293.974162 
L 113.52819 292.915167 
L 113.59446 294.179563 
L 113.660729 293.663303 
L 113.925807 295.164917 
L 114.058347 295.144874 
L 114.257155 293.907046 
L 114.323425 294.269036 
L 114.389694 294.944263 
L 114.455964 294.698351 
L 114.588503 295.167688 
L 114.787312 294.684151 
L 114.853581 294.847633 
L 114.919851 294.61562 
L 114.98612 294.997218 
L 115.05239 294.912624 
L 115.251199 294.361106 
L 115.317468 295.090878 
L 115.383738 294.606925 
L 115.450007 294.405103 
L 115.582546 295.081329 
L 115.648816 294.896424 
L 115.715085 295.196787 
L 115.781355 294.39885 
L 115.847625 294.737968 
L 115.980164 294.63916 
L 116.112703 295.301749 
L 116.178972 295.21424 
L 116.245242 294.276122 
L 116.377781 295.240293 
L 116.444051 294.930024 
L 116.51032 295.197783 
L 116.642859 294.401749 
L 116.841668 294.920208 
L 116.907937 294.837925 
L 116.974207 294.440692 
L 117.106746 295.301438 
L 117.504363 293.646816 
L 117.636903 290.199553 
L 117.769442 295.143878 
L 117.835711 294.671481 
L 117.901981 294.835699 
L 117.96825 295.273829 
L 118.03452 295.078794 
L 118.100789 294.689339 
L 118.167059 294.998466 
L 118.233329 294.466596 
L 118.299598 295.024388 
L 118.365868 294.976319 
L 118.432137 294.667628 
L 118.630946 295.322788 
L 118.962294 294.348019 
L 119.094833 294.664907 
L 119.161102 295.282885 
L 119.227372 294.843481 
L 119.293641 295.095847 
L 119.42618 294.634887 
L 119.55872 295.262319 
L 119.757528 294.509861 
L 119.823798 294.666939 
L 119.890067 294.71491 
L 119.956337 295.319556 
L 120.022606 295.110307 
L 120.088876 294.943358 
L 120.155146 294.065684 
L 120.221415 294.511787 
L 120.353954 295.285539 
L 120.486493 294.889226 
L 120.552763 295.02289 
L 120.685302 295.262145 
L 120.751572 295.22643 
L 120.884111 295.170112 
L 120.95038 295.003265 
L 121.01665 295.0465 
L 121.082919 295.058904 
L 121.149189 294.954964 
L 121.215458 295.105952 
L 121.281728 295.073908 
L 121.414267 294.862452 
L 121.613076 295.215369 
L 121.878154 295.187837 
L 121.944424 294.816242 
L 122.010693 295.16317 
L 122.076963 294.78343 
L 122.143232 295.242348 
L 122.209502 294.691724 
L 122.342041 295.302149 
L 122.47458 294.715997 
L 122.54085 294.965309 
L 122.607119 295.21191 
L 122.673389 294.612815 
L 122.739658 294.907171 
L 122.805928 294.916701 
L 122.872197 295.395553 
L 123.137276 293.86713 
L 123.203545 294.522989 
L 123.269815 294.089599 
L 123.336084 294.230554 
L 123.402354 293.90447 
L 123.468623 294.711262 
L 123.534893 293.807148 
L 123.733701 295.313888 
L 123.93251 293.330815 
L 123.99878 295.012565 
L 124.065049 294.203598 
L 124.131319 295.224351 
L 124.197588 293.852238 
L 124.263858 294.310166 
L 124.330127 294.714864 
L 124.396397 294.483998 
L 124.528936 292.840159 
L 124.595206 294.261184 
L 124.661475 293.670251 
L 124.727745 292.893129 
L 124.794014 294.466498 
L 124.860284 292.279248 
L 124.926553 284.787264 
L 125.125362 294.333997 
L 125.191632 292.653581 
L 125.257901 294.062837 
L 125.324171 292.455059 
L 125.39044 293.918191 
L 125.45671 291.66975 
L 125.522979 292.310276 
L 125.589249 291.059063 
L 125.721788 294.180153 
L 125.788058 294.499229 
L 125.854327 291.571844 
L 125.920597 293.31856 
L 126.053136 294.513487 
L 126.185675 292.137545 
L 126.251945 294.200712 
L 126.450753 290.416779 
L 126.649562 293.80175 
L 126.715831 293.529712 
L 126.848371 294.870134 
L 126.91464 293.84278 
L 126.98091 294.92786 
L 127.047179 294.435562 
L 127.113449 294.519534 
L 127.179718 294.294534 
L 127.245988 293.084946 
L 127.444797 294.696068 
L 127.511066 294.344334 
L 127.643605 294.885277 
L 127.776144 294.698373 
L 127.842414 295.092688 
L 128.041223 293.529315 
L 128.107492 293.690173 
L 128.173762 294.867201 
L 128.240031 294.763748 
L 128.306301 294.725645 
L 128.43884 295.044033 
L 128.505109 294.942843 
L 128.571379 295.161636 
L 128.637648 294.929359 
L 128.703918 295.018465 
L 128.770188 295.152903 
L 128.836457 294.367611 
L 128.968996 295.347102 
L 129.035266 294.815343 
L 129.101535 295.124492 
L 129.300344 294.839036 
L 129.366614 294.902762 
L 129.499153 295.162104 
L 129.565422 294.81668 
L 129.631692 295.057403 
L 129.697961 295.218246 
L 129.8305 294.88492 
L 130.095579 295.274524 
L 130.161848 295.351422 
L 130.294387 294.691494 
L 130.360657 295.046416 
L 130.493196 295.308623 
L 130.559466 295.265664 
L 130.692005 294.898913 
L 130.957083 295.346503 
L 131.023352 294.930566 
L 131.089622 295.014122 
L 131.155892 295.43722 
L 131.222161 295.186753 
L 131.288431 295.342809 
L 131.3547 295.262016 
L 131.487239 295.066296 
L 131.553509 295.368109 
L 131.686048 294.74264 
L 131.752318 294.037502 
L 131.818587 294.728016 
L 131.884857 294.636493 
L 131.951126 294.06956 
L 132.017396 294.282099 
L 132.083665 294.886259 
L 132.149935 294.814623 
L 132.216204 293.722297 
L 132.282474 293.941721 
L 132.348744 294.945296 
L 132.415013 294.744695 
L 132.547552 295.410381 
L 132.613822 294.558693 
L 132.680091 294.940208 
L 132.746361 294.825372 
L 132.8789 295.30156 
L 133.077709 294.685775 
L 133.210248 295.036942 
L 133.276517 294.719123 
L 133.342787 294.905626 
L 133.475326 295.15454 
L 133.541596 294.630724 
L 133.607865 295.081023 
L 133.674135 294.926264 
L 133.740404 295.043719 
L 133.939213 294.620377 
L 134.204291 295.124385 
L 134.270561 295.018573 
L 134.33683 295.174913 
L 134.4031 295.087313 
L 134.535639 294.924533 
L 134.734447 295.234556 
L 134.866987 295.07816 
L 134.933256 295.039468 
L 134.999526 295.160566 
L 135.065795 294.860106 
L 135.198334 295.217296 
L 135.264604 294.864191 
L 135.397143 295.398179 
L 135.595952 295.018051 
L 135.662221 295.265388 
L 135.728491 294.715238 
L 135.86103 295.231904 
L 135.993569 295.167 
L 136.059839 295.369938 
L 136.126108 294.976082 
L 136.192378 295.188644 
L 136.258647 295.430603 
L 136.324917 294.422638 
L 136.391186 294.714669 
L 136.457456 294.761156 
L 136.656265 295.395677 
L 136.855073 294.691587 
L 136.921343 295.313186 
L 136.987612 294.910875 
L 137.186421 295.259629 
L 137.252691 293.906831 
L 137.31896 295.018399 
L 137.38523 294.752307 
L 137.451499 295.022414 
L 137.584038 292.909465 
L 137.650308 294.990439 
L 137.716577 294.289602 
L 137.782847 293.759318 
L 137.849117 291.329457 
L 137.915386 291.870375 
L 137.981656 294.437207 
L 138.047925 294.23168 
L 138.114195 295.068105 
L 138.180464 294.614056 
L 138.246734 293.767296 
L 138.313003 294.397763 
L 138.379273 293.405167 
L 138.511812 295.364691 
L 138.578082 295.335186 
L 138.77689 294.610152 
L 138.909429 295.03723 
L 138.975699 293.427992 
L 139.041968 294.38612 
L 139.108238 294.524225 
L 139.174508 295.216853 
L 139.240777 294.678091 
L 139.307047 295.181493 
L 139.505855 293.369929 
L 139.572125 295.038815 
L 139.638394 293.655638 
L 139.704664 294.742116 
L 139.770934 294.229542 
L 139.837203 293.578597 
L 139.969742 295.221715 
L 140.036012 293.539309 
L 140.102281 293.919805 
L 140.168551 294.47266 
L 140.23482 294.279447 
L 140.30109 293.547641 
L 140.36736 294.514969 
L 140.433629 294.394995 
L 140.499899 294.470677 
L 140.698707 292.735725 
L 140.764977 294.610449 
L 140.831246 293.502732 
L 141.030055 295.136904 
L 141.096325 294.005808 
L 141.228864 295.207919 
L 141.427672 293.775109 
L 141.626481 294.879321 
L 141.692751 293.833565 
L 141.75902 294.092388 
L 141.82529 294.936901 
L 141.891559 293.83665 
L 141.957829 294.507965 
L 142.024098 294.322541 
L 142.090368 295.032112 
L 142.156638 294.647563 
L 142.355446 294.705542 
L 142.421716 295.031584 
L 142.487985 294.52944 
L 142.554255 294.60948 
L 142.620524 295.348691 
L 142.686794 294.799971 
L 142.753064 294.955829 
L 142.819333 294.948361 
L 142.885603 294.828067 
L 142.951872 295.359662 
L 143.018142 295.004934 
L 143.084411 293.67889 
L 143.21695 294.835233 
L 143.34949 294.83487 
L 143.415759 295.028931 
L 143.482029 294.533638 
L 143.548298 295.400552 
L 143.614568 295.329663 
L 143.680837 294.979812 
L 143.747107 295.351136 
L 143.813376 295.021218 
L 143.879646 295.332703 
L 143.945915 295.191543 
L 144.012185 294.85092 
L 144.078455 295.332707 
L 144.144724 295.199531 
L 144.277263 295.097332 
L 144.343533 295.293026 
L 144.542341 294.779478 
L 144.674881 295.336483 
L 144.74115 295.271545 
L 144.873689 294.888989 
L 144.939959 295.082406 
L 145.006228 294.931142 
L 145.072498 294.170551 
L 145.138767 295.031913 
L 145.205037 294.998776 
L 145.271307 294.677177 
L 145.337576 295.1358 
L 145.403846 295.088266 
L 145.470115 295.126723 
L 145.668924 294.517829 
L 145.801463 295.417425 
L 145.867733 295.176568 
L 145.934002 295.146026 
L 146.000272 294.799208 
L 146.066541 294.929222 
L 146.132811 295.090785 
L 146.26535 294.648378 
L 146.331619 294.757044 
L 146.397889 294.896253 
L 146.464159 294.736108 
L 146.530428 295.195886 
L 146.596698 295.092486 
L 146.729237 294.819892 
L 146.795506 295.15778 
L 146.861776 294.956392 
L 146.928045 294.267346 
L 146.994315 294.535671 
L 147.126854 295.31389 
L 147.259393 295.265382 
L 147.391932 294.809083 
L 147.458202 294.974966 
L 147.524471 295.056983 
L 147.657011 294.741195 
L 147.72328 294.839362 
L 147.78955 295.021798 
L 147.855819 294.389359 
L 147.922089 294.818814 
L 147.988358 294.739483 
L 148.054628 294.79588 
L 148.120897 295.234035 
L 148.187167 294.885656 
L 148.385976 295.380211 
L 148.452245 294.688198 
L 148.518515 294.727143 
L 148.584784 294.630844 
L 148.849862 295.245628 
L 148.916132 295.004279 
L 148.982402 295.051093 
L 149.048671 295.262054 
L 149.114941 295.115315 
L 149.18121 295.144534 
L 149.313749 295.322159 
L 149.380019 295.322021 
L 149.446288 295.064591 
L 149.512558 295.124804 
L 149.578828 295.02224 
L 149.711367 295.33924 
L 149.910175 294.829166 
L 150.042714 295.402141 
L 150.241523 294.955464 
L 150.374062 295.338753 
L 150.506601 295.061512 
L 150.572871 295.277135 
L 150.63914 294.71261 
L 150.70541 295.315185 
L 150.77168 295.017522 
L 150.970488 295.34063 
L 151.103027 295.191194 
L 151.235566 294.565658 
L 151.301836 295.031871 
L 151.368106 294.112155 
L 151.434375 295.145095 
L 151.500645 294.082747 
L 151.566914 295.227929 
L 151.633184 295.106767 
L 151.699453 295.472415 
L 151.765723 294.476985 
L 151.831992 294.981355 
L 151.964532 294.568604 
L 152.030801 294.663467 
L 152.16334 295.131874 
L 152.428418 294.306378 
L 152.494688 295.300038 
L 152.560958 294.975899 
L 152.627227 294.650233 
L 152.693497 295.253242 
L 152.759766 294.526893 
L 152.826036 294.939986 
L 152.958575 294.414144 
L 153.091114 295.175658 
L 153.157384 294.715109 
L 153.223653 295.327756 
L 153.422462 294.187818 
L 153.488731 295.167791 
L 153.555001 294.887735 
L 153.62127 295.157162 
L 153.68754 295.060976 
L 153.886349 293.982346 
L 153.952618 293.404266 
L 154.018888 293.751475 
L 154.151427 295.068057 
L 154.217696 293.79975 
L 154.283966 295.165323 
L 154.350235 293.646075 
L 154.416505 293.907528 
L 154.482775 294.900099 
L 154.549044 294.69582 
L 154.615314 294.091433 
L 154.681583 295.128028 
L 154.747853 294.448525 
L 154.814122 293.57924 
L 154.880392 293.993876 
L 155.012931 294.810598 
L 155.079201 294.09918 
L 155.14547 295.278407 
L 155.21174 294.547156 
L 155.278009 295.11828 
L 155.344279 293.746301 
L 155.410548 294.628672 
L 155.476818 293.743241 
L 155.609357 294.654162 
L 155.675627 294.328493 
L 155.874435 295.394042 
L 155.940705 293.751526 
L 156.006974 294.629346 
L 156.139513 294.055998 
L 156.205783 294.323738 
L 156.272053 295.110335 
L 156.338322 295.075309 
L 156.404592 293.71596 
L 156.537131 295.138441 
L 156.6034 294.808074 
L 156.66967 295.054596 
L 156.735939 295.00772 
L 156.802209 295.102479 
L 156.868479 294.563245 
L 156.934748 294.885486 
L 157.067287 294.342964 
L 157.133557 295.091176 
L 157.199826 294.402746 
L 157.332365 295.189439 
L 157.464905 294.521751 
L 157.531174 294.782901 
L 157.597444 295.042051 
L 157.663713 294.175419 
L 157.729983 294.740901 
L 157.796252 295.088973 
L 157.862522 294.931834 
L 157.928791 294.747501 
L 157.995061 294.841725 
L 158.061331 294.879431 
L 158.1276 294.742515 
L 158.260139 295.25814 
L 158.458948 294.691906 
L 158.591487 295.223195 
L 158.657756 294.709303 
L 158.724026 295.388737 
L 158.790296 294.994183 
L 158.989104 295.239847 
L 159.187913 294.973627 
L 159.254182 295.021893 
L 159.320452 295.272339 
L 159.386722 295.14876 
L 159.452991 295.060056 
L 159.58553 295.361285 
L 159.6518 295.395516 
L 159.850608 295.077505 
L 159.916878 295.303973 
L 159.983148 295.277466 
L 160.049417 294.728723 
L 160.115687 294.90804 
L 160.314495 295.235788 
L 160.447034 295.235546 
L 160.513304 294.972803 
L 160.579574 295.344977 
L 160.645843 295.191394 
L 160.712113 295.119848 
L 160.778382 295.187234 
L 160.844652 295.162404 
L 160.910921 294.987489 
L 160.977191 295.043019 
L 161.04346 295.398885 
L 161.10973 295.189901 
L 161.176 295.242901 
L 161.242269 295.096239 
L 161.308539 295.326706 
L 161.441078 294.763152 
L 161.507347 294.84086 
L 161.706156 295.052918 
L 161.772426 295.018133 
L 161.838695 295.25995 
L 161.904965 295.206225 
L 162.037504 295.230294 
L 162.170043 294.783856 
L 162.236312 294.897376 
L 162.435121 295.291059 
L 162.501391 295.377726 
L 162.766469 295.024239 
L 162.965278 295.446428 
L 163.031547 294.979916 
L 163.097817 295.268047 
L 163.495434 295.1972 
L 163.561704 295.376592 
L 163.627973 295.336218 
L 163.893051 295.006836 
L 164.02559 295.325263 
L 164.09186 295.343727 
L 164.224399 295.204161 
L 164.290669 295.305819 
L 164.423208 294.835768 
L 164.489477 295.075959 
L 164.555747 294.98957 
L 165.019634 295.287266 
L 165.085903 295.001013 
L 165.152173 295.130915 
L 165.218442 295.297877 
L 165.350981 295.178785 
L 165.417251 295.159014 
L 165.483521 294.661292 
L 165.61606 295.408889 
L 165.814868 294.939375 
L 165.881138 295.375694 
L 165.947407 295.162385 
L 166.013677 295.070528 
L 166.146216 295.349473 
L 166.212486 295.218139 
L 166.278755 295.283382 
L 166.345025 295.207685 
L 166.411294 295.437698 
L 166.543833 294.900781 
L 166.610103 295.266715 
L 166.676373 294.926196 
L 166.875181 295.343803 
L 166.941451 295.143798 
L 167.00772 295.232884 
L 167.140259 295.231964 
L 167.206529 295.391804 
L 167.272799 295.295541 
L 167.405338 295.141408 
L 167.471607 295.425382 
L 167.537877 295.386669 
L 167.604146 294.865077 
L 167.670416 295.202542 
L 167.736685 294.92138 
L 167.802955 295.242588 
L 167.869225 295.028064 
L 167.935494 294.384191 
L 168.001764 294.803181 
L 168.068033 295.173406 
L 168.134303 294.790359 
L 168.200572 294.973007 
L 168.266842 294.900935 
L 168.333111 294.600877 
L 168.399381 294.900804 
L 168.465651 294.133603 
L 168.53192 294.435499 
L 168.664459 295.132578 
L 168.730729 294.447537 
L 168.796998 294.687918 
L 168.863268 294.964261 
L 168.995807 294.326252 
L 169.128346 295.115767 
L 169.194616 294.629795 
L 169.260885 295.07577 
L 169.459694 294.099655 
L 169.658502 295.345164 
L 169.791042 294.39039 
L 169.923581 295.3854 
L 169.98985 295.271057 
L 170.122389 294.461721 
L 170.188659 294.583819 
L 170.254928 294.105804 
L 170.387468 295.297316 
L 170.453737 293.626603 
L 170.520007 294.927244 
L 170.586276 294.600417 
L 170.652546 294.083046 
L 170.718815 295.198341 
L 170.785085 295.0846 
L 170.851354 294.513422 
L 170.917624 294.80402 
L 170.983894 294.381684 
L 171.116433 295.260828 
L 171.182702 295.041866 
L 171.248972 295.249037 
L 171.315241 295.158745 
L 171.381511 294.977289 
L 171.51405 295.174583 
L 171.58032 294.95995 
L 171.646589 294.281387 
L 171.712859 295.206418 
L 171.779128 294.575121 
L 171.977937 295.411932 
L 172.110476 294.674865 
L 172.176746 295.364984 
L 172.243015 294.967397 
L 172.640632 295.134 
L 172.706902 294.847764 
L 172.773172 294.954434 
L 172.905711 295.275552 
L 172.97198 294.988521 
L 173.03825 295.132622 
L 173.104519 295.318389 
L 173.170789 295.217137 
L 173.369598 294.961737 
L 173.435867 295.248069 
L 173.502137 295.230571 
L 173.568406 295.227567 
L 173.634676 295.371667 
L 173.700945 295.202322 
L 173.767215 295.274449 
L 174.164832 295.171395 
L 174.231102 295.258733 
L 174.42991 294.732186 
L 174.562449 295.332404 
L 174.628719 295.133978 
L 174.694989 295.402609 
L 174.761258 295.251304 
L 174.893797 295.393316 
L 174.960067 295.326428 
L 175.026336 295.338855 
L 175.158875 295.135783 
L 175.225145 295.385577 
L 175.291415 295.11102 
L 175.357684 295.474006 
L 175.423954 295.297578 
L 175.490223 295.067388 
L 175.622762 295.339682 
L 175.689032 295.373572 
L 175.755301 295.067867 
L 175.821571 295.410399 
L 175.887841 295.329639 
L 175.95411 295.466708 
L 176.152919 294.735743 
L 176.351727 295.463042 
L 176.550536 294.878186 
L 176.616806 295.420898 
L 176.683075 295.302318 
L 176.815614 295.027952 
L 176.881884 295.17079 
L 176.948153 295.208061 
L 177.146962 294.84141 
L 177.213232 295.427845 
L 177.279501 295.257261 
L 177.41204 295.437814 
L 177.47831 295.084178 
L 177.544579 295.259951 
L 177.743388 295.241904 
L 177.942197 294.790448 
L 178.008466 295.444587 
L 178.074736 295.106799 
L 178.141005 295.208662 
L 178.273545 294.847408 
L 178.339814 295.254835 
L 178.406084 295.193453 
L 178.472353 295.255646 
L 178.604892 295.152097 
L 178.737431 295.267407 
L 178.803701 295.403147 
L 178.86997 294.983794 
L 178.93624 295.204682 
L 179.00251 295.188046 
L 179.068779 295.04702 
L 179.135049 294.322203 
L 179.201318 295.244203 
L 179.267588 295.148676 
L 179.333857 294.750517 
L 179.400127 295.46856 
L 179.466396 294.887297 
L 179.532666 295.138421 
L 179.598936 295.241196 
L 179.665205 294.918878 
L 179.731475 295.132575 
L 179.797744 295.354713 
L 179.864014 294.819657 
L 179.930283 295.337458 
L 179.996553 294.410698 
L 180.062822 295.335856 
L 180.129092 295.329726 
L 180.261631 295.19782 
L 180.526709 295.156632 
L 180.592979 295.313883 
L 180.659248 294.69929 
L 180.725518 294.752217 
L 180.924327 295.22303 
L 180.990596 294.942419 
L 181.056866 295.006361 
L 181.123135 294.878633 
L 181.255674 295.410545 
L 181.321944 294.997002 
L 181.388214 295.085061 
L 181.454483 295.356118 
L 181.520753 295.256224 
L 181.587022 295.347826 
L 181.719561 295.011588 
L 181.785831 295.328887 
L 181.8521 295.275894 
L 181.91837 294.871779 
L 181.98464 295.339093 
L 182.050909 294.807955 
L 182.117179 295.178877 
L 182.183448 294.797404 
L 182.382257 295.251125 
L 182.448526 295.400125 
L 182.514796 295.314779 
L 182.581066 294.612328 
L 182.713605 295.350175 
L 182.779874 295.343599 
L 182.912413 294.938734 
L 182.978683 294.964367 
L 183.111222 295.227936 
L 183.310031 294.743685 
L 183.3763 295.369899 
L 183.44257 294.991913 
L 183.508839 295.255831 
L 183.641378 294.884165 
L 183.707648 295.113639 
L 183.773917 294.650011 
L 183.840187 295.307021 
L 183.906457 294.975705 
L 183.972726 294.809297 
L 184.038996 295.274592 
L 184.105265 294.282833 
L 184.171535 294.751167 
L 184.237804 294.712539 
L 184.304074 295.145783 
L 184.370343 294.457223 
L 184.436613 295.132763 
L 184.502883 295.080188 
L 184.569152 294.204402 
L 184.635422 294.429869 
L 184.701691 294.949575 
L 184.767961 294.907225 
L 184.966769 294.629269 
L 185.033039 294.75047 
L 185.099309 295.440803 
L 185.165578 295.2146 
L 185.231848 294.509772 
L 185.364387 295.250347 
L 185.430656 294.970112 
L 185.496926 295.216957 
L 185.563195 295.073657 
L 185.629465 294.316078 
L 185.695735 295.234692 
L 185.762004 295.059079 
L 185.828274 295.285567 
L 185.894543 294.835178 
L 185.960813 295.270861 
L 186.027082 294.553796 
L 186.093352 294.969579 
L 186.159621 294.88675 
L 186.292161 295.216656 
L 186.35843 295.057632 
L 186.4247 295.146187 
L 186.490969 295.13816 
L 186.557239 294.569457 
L 186.623508 294.920173 
L 186.756047 294.486655 
L 186.888587 295.031338 
L 186.954856 294.941489 
L 187.087395 295.415367 
L 187.219934 295.333412 
L 187.352473 294.904305 
L 187.418743 294.958507 
L 187.485013 295.090537 
L 187.551282 294.8816 
L 187.683821 295.360685 
L 187.750091 295.092423 
L 187.88263 295.331172 
L 187.948899 295.187377 
L 188.015169 295.397227 
L 188.081439 294.919295 
L 188.147708 295.068011 
L 188.213978 295.340897 
L 188.280247 295.170921 
L 188.412786 294.915703 
L 188.611595 295.193299 
L 188.744134 295.234205 
L 188.876673 295.356361 
L 189.009212 295.225496 
L 189.208021 294.769546 
L 189.27429 295.149146 
L 189.34056 294.704315 
L 189.539369 295.398111 
L 189.738177 295.080759 
L 189.936986 295.348148 
L 190.003256 295.377926 
L 190.069525 295.219406 
L 190.135795 295.413741 
L 190.202064 295.306783 
L 190.268334 295.227639 
L 190.334603 295.404364 
L 190.400873 295.139504 
L 190.467142 295.377841 
L 190.533412 295.219809 
L 190.599682 295.184648 
L 190.79849 295.333091 
L 190.86476 295.214175 
L 190.931029 295.322283 
L 191.063568 295.115614 
L 191.129838 295.183794 
L 191.196108 295.421832 
L 191.262377 295.32001 
L 191.659994 295.091445 
L 191.726264 295.446771 
L 191.792534 295.189918 
L 191.858803 295.303133 
L 191.925073 295.376154 
L 191.991342 295.274447 
L 192.057612 295.351433 
L 192.190151 295.38492 
L 192.32269 295.078372 
L 192.38896 295.334849 
L 192.455229 295.255645 
L 192.786577 295.342664 
L 192.852846 294.889485 
L 192.919116 295.284207 
L 193.051655 294.966852 
L 193.316733 295.458406 
L 193.383003 295.074187 
L 193.449272 295.451869 
L 193.515542 295.198388 
L 193.581812 295.429243 
L 193.714351 295.183452 
L 193.913159 295.243649 
L 193.979429 295.033415 
L 194.111968 295.32025 
L 194.310777 295.208503 
L 194.377046 295.39303 
L 194.575855 294.925388 
L 194.642124 295.274529 
L 194.708394 295.114046 
L 194.774663 295.294007 
L 194.840933 295.042297 
L 194.907203 295.072019 
L 194.973472 295.087668 
L 195.039742 295.273053 
L 195.106011 295.179325 
L 195.172281 295.220992 
L 195.23855 295.101593 
L 195.30482 295.371619 
L 195.371089 295.245861 
L 195.569898 295.376336 
L 195.636168 294.977874 
L 195.702437 295.030646 
L 195.967515 295.450946 
L 196.100055 295.323072 
L 196.298863 295.281095 
L 196.365133 294.939555 
L 196.431402 295.096641 
L 196.563941 295.053343 
L 196.630211 295.396035 
L 196.696481 295.018713 
L 196.76275 295.394909 
L 196.82902 295.265824 
L 196.961559 295.069284 
L 197.027828 294.533263 
L 197.094098 295.218134 
L 197.160367 295.08391 
L 197.359176 295.450406 
L 197.557985 295.137367 
L 197.690524 295.281421 
L 197.823063 295.130564 
L 197.889333 295.336053 
L 197.955602 295.217873 
L 198.021872 295.310704 
L 198.22068 294.894848 
L 198.28695 295.312298 
L 198.485759 294.862805 
L 198.552028 294.923013 
L 198.618298 295.24462 
L 198.684567 295.22692 
L 198.750837 294.835653 
L 198.883376 295.25779 
L 198.949645 295.102329 
L 199.015915 295.351876 
L 199.082184 294.678477 
L 199.280993 295.477141 
L 199.347263 294.882412 
L 199.413532 295.163551 
L 199.479802 294.947194 
L 199.546071 295.284901 
L 199.612341 295.141516 
L 199.67861 294.992536 
L 199.877419 295.345978 
L 200.009958 294.856605 
L 200.076228 295.078466 
L 200.142497 294.939225 
L 200.341306 294.808377 
L 200.540115 295.199488 
L 200.606384 295.032854 
L 200.738923 295.424066 
L 200.937732 295.174503 
L 201.004002 295.1924 
L 201.136541 295.058736 
L 201.26908 295.353934 
L 201.335349 295.220966 
L 201.401619 295.400591 
L 201.467888 295.348962 
L 201.534158 295.372161 
L 201.600428 294.905623 
L 201.666697 295.127576 
L 201.799236 295.367059 
L 201.865506 295.036776 
L 201.931775 295.061842 
L 202.064314 295.383105 
L 202.130584 295.376702 
L 202.196854 295.244575 
L 202.263123 295.425229 
L 202.329393 294.970496 
L 202.395662 295.221664 
L 202.528201 295.064622 
L 202.594471 295.400597 
L 202.66074 295.23457 
L 202.72701 294.840363 
L 202.79328 295.009423 
L 202.859549 295.17471 
L 202.925819 295.139144 
L 203.190897 295.429856 
L 203.257166 295.3208 
L 203.455975 294.996736 
L 203.588514 295.420164 
L 203.787323 294.979479 
L 203.853592 295.464334 
L 203.919862 295.27617 
L 204.052401 295.302203 
L 204.18494 295.132041 
L 204.25121 295.380519 
L 204.317479 295.312338 
L 204.450018 295.382323 
L 204.648827 295.09283 
L 204.715097 295.197874 
L 204.781366 294.946738 
L 204.847636 295.385366 
L 204.913905 295.087526 
L 205.112714 295.364303 
L 205.178983 295.286795 
L 205.245253 294.900265 
L 205.311523 295.136214 
L 205.377792 295.252037 
L 205.510331 295.067508 
L 205.841679 295.255094 
L 205.907949 294.978769 
L 205.974218 295.141814 
L 206.106757 294.981411 
L 206.173027 295.243631 
L 206.239296 295.12838 
L 206.305566 295.164649 
L 206.371835 295.33604 
L 206.438105 295.253678 
L 206.504375 295.306839 
L 206.570644 295.106166 
L 206.636914 295.430419 
L 206.703183 295.219878 
L 206.769453 294.980085 
L 206.835722 295.214526 
L 206.901992 294.95685 
L 207.100801 295.467601 
L 207.299609 295.182225 
L 207.365879 295.195295 
L 207.432148 295.082527 
L 207.498418 295.236104 
L 207.564687 294.762483 
L 207.630957 295.077056 
L 207.697227 294.91991 
L 207.829766 295.34087 
L 207.962305 294.984052 
L 208.028574 295.367595 
L 208.094844 295.110638 
L 208.161113 295.008887 
L 208.227383 295.432812 
L 208.293653 295.261999 
L 208.359922 295.325544 
L 208.426192 295.10054 
L 208.492461 295.29899 
L 208.558731 295.21755 
L 208.69127 295.277298 
L 208.757539 294.88299 
L 208.823809 295.037838 
L 209.088887 295.305399 
L 209.155157 295.105248 
L 209.221426 295.154381 
L 209.287696 295.164378 
L 209.353965 295.332875 
L 209.420235 295.265421 
L 209.486504 295.07883 
L 209.552774 295.249367 
L 209.619044 294.944094 
L 209.685313 295.041278 
L 209.751583 295.121286 
L 209.817852 294.690952 
L 209.884122 295.101618 
L 209.950391 294.986174 
L 210.016661 294.990766 
L 210.08293 295.309207 
L 210.1492 295.223094 
L 210.480548 295.092425 
L 210.546817 295.30715 
L 210.613087 294.971604 
L 210.679356 295.069208 
L 210.878165 295.394876 
L 211.010704 294.800332 
L 211.076974 295.095522 
L 211.209513 295.096462 
L 211.275782 295.295219 
L 211.342052 295.141422 
L 211.474591 295.351414 
L 211.540861 294.890084 
L 211.60713 295.356393 
L 211.6734 295.244793 
L 212.004748 295.378457 
L 212.137287 294.957874 
L 212.336095 295.350216 
L 212.402365 294.945599 
L 212.468634 295.383683 
L 212.534904 295.292114 
L 212.601174 295.12107 
L 212.667443 295.189533 
L 212.733713 295.45789 
L 212.799982 295.334675 
L 212.866252 295.003213 
L 212.932521 295.40958 
L 213.06506 294.67988 
L 213.263869 295.383587 
L 213.330139 295.316441 
L 213.396408 294.923024 
L 213.462678 295.07552 
L 213.528947 294.970868 
L 213.661486 295.148786 
L 213.727756 294.98034 
L 213.794025 295.289572 
L 213.860295 295.142941 
L 213.992834 294.954077 
L 214.125373 295.064294 
L 214.191643 294.746605 
L 214.257912 294.906357 
L 214.721799 295.373917 
L 214.788069 294.788851 
L 214.854338 295.14116 
L 214.920608 295.404399 
L 214.986877 295.102375 
L 215.053147 295.31437 
L 215.318225 295.050964 
L 215.450764 295.454792 
L 215.517034 294.921465 
L 215.583303 295.359987 
L 215.649573 294.89371 
L 215.715843 294.98297 
L 215.782112 295.055171 
L 215.848382 295.323495 
L 215.914651 295.036801 
L 215.980921 295.155244 
L 216.179729 295.333965 
L 216.378538 294.948516 
L 216.511077 294.991718 
L 216.577347 294.724464 
L 216.776155 295.201493 
L 216.842425 294.972299 
L 216.908695 295.181143 
L 216.974964 295.080662 
L 217.041234 295.063774 
L 217.107503 295.306787 
L 217.173773 295.185065 
L 217.438851 294.913775 
L 217.505121 294.995425 
L 217.57139 295.273886 
L 217.63766 295.20513 
L 217.703929 295.256067 
L 217.770199 295.035405 
L 217.836468 295.294605 
L 217.902738 295.051922 
L 217.969007 295.138397 
L 218.234086 294.705621 
L 218.300355 295.384546 
L 218.366625 295.244553 
L 218.565433 294.949857 
L 218.631703 295.054527 
L 218.697972 295.358671 
L 218.764242 295.237104 
L 218.830512 295.242902 
L 218.963051 295.019627 
L 219.09559 295.37819 
L 219.228129 294.800997 
L 219.294398 295.193749 
L 219.360668 295.123305 
L 219.426938 295.27876 
L 219.559477 295.040139 
L 219.625746 295.349792 
L 219.692016 295.324913 
L 219.758285 295.272158 
L 219.824555 295.449118 
L 220.023364 294.845956 
L 220.155903 295.410283 
L 220.222172 295.371342 
L 220.288442 295.23291 
L 220.354711 295.453217 
L 220.420981 295.072186 
L 220.48725 295.141752 
L 220.55352 295.13389 
L 220.61979 294.952718 
L 220.686059 295.328338 
L 220.752329 295.29132 
L 220.818598 295.240822 
L 221.017407 294.772139 
L 221.083676 294.885137 
L 221.282485 295.407056 
L 221.415024 294.574487 
L 221.613833 295.351608 
L 221.680102 295.38306 
L 221.812642 294.610758 
L 221.878911 294.777011 
L 222.01145 295.375146 
L 222.143989 294.679261 
L 222.342798 295.259427 
L 222.409068 295.241524 
L 222.475337 295.372506 
L 222.541607 295.330246 
L 222.740415 294.640987 
L 222.806685 295.317712 
L 222.872954 295.29499 
L 222.939224 295.323546 
L 223.204302 294.853037 
L 223.270572 295.026419 
L 223.46938 294.283813 
L 223.53565 295.088123 
L 223.60192 295.036353 
L 223.668189 294.67975 
L 223.800728 295.31881 
L 223.866998 295.107536 
L 223.933267 295.172225 
L 223.999537 295.147864 
L 224.132076 294.988033 
L 224.198345 295.130373 
L 224.264615 294.631761 
L 224.330885 295.17917 
L 224.397154 294.406185 
L 224.463424 295.344498 
L 224.529693 295.129549 
L 224.595963 295.348617 
L 224.662232 295.202075 
L 224.794771 295.271828 
L 224.861041 295.039803 
L 224.99358 295.397575 
L 225.126119 294.979505 
L 225.192389 294.648226 
L 225.258658 294.79183 
L 225.324928 295.216945 
L 225.391197 295.045738 
L 225.523737 294.889657 
L 225.590006 295.359224 
L 225.656276 295.061502 
L 225.788815 295.092345 
L 225.855084 295.190879 
L 225.921354 295.092523 
L 226.120163 295.253017 
L 226.186432 295.057905 
L 226.318971 295.272104 
L 226.716589 295.226117 
L 226.981667 295.226111 
L 227.114206 294.962016 
L 227.180475 295.328997 
L 227.246745 295.045949 
L 227.313015 295.215775 
L 227.379284 295.199383 
L 227.445554 294.904726 
L 227.511823 294.998306 
L 227.644362 295.198883 
L 227.710632 295.059105 
L 227.776901 294.88245 
L 227.843171 295.088032 
L 227.909441 294.735724 
L 228.04198 295.088714 
L 228.108249 295.090746 
L 228.307058 295.241152 
L 228.439597 294.996372 
L 228.505867 295.033143 
L 228.770945 295.301074 
L 228.903484 295.006668 
L 228.969753 295.292965 
L 229.036023 295.161295 
L 229.168562 295.127083 
L 229.234832 295.387498 
L 229.301101 295.318021 
L 229.43364 295.0994 
L 229.632449 294.64158 
L 229.831258 295.220457 
L 229.897527 295.04545 
L 230.030066 295.279154 
L 230.096336 295.233594 
L 230.162605 295.377523 
L 230.228875 295.071261 
L 230.295144 295.203223 
L 230.493953 295.260504 
L 230.626492 294.956393 
L 230.759031 295.347467 
L 230.825301 295.27755 
L 231.02411 295.411212 
L 231.156649 294.930358 
L 231.222918 294.949466 
L 231.355457 295.361884 
L 231.421727 294.973276 
L 231.487996 295.249603 
L 231.554266 294.994309 
L 231.620536 295.27043 
L 231.686805 295.252009 
L 231.819344 295.269775 
L 231.885614 294.719109 
L 232.018153 295.219002 
L 232.084422 295.291558 
L 232.150692 295.229857 
L 232.216962 295.165794 
L 232.283231 295.311936 
L 232.41577 295.075196 
L 232.48204 295.139057 
L 232.747118 295.279858 
L 232.879657 295.177372 
L 233.012196 295.384494 
L 233.078466 294.779667 
L 233.211005 295.257838 
L 233.277274 295.117546 
L 233.343544 295.182141 
L 233.409814 295.406882 
L 233.476083 295.107117 
L 233.608622 295.332055 
L 233.741161 295.02601 
L 233.8737 295.148426 
L 233.93997 294.892028 
L 234.138779 295.368438 
L 234.205048 295.159854 
L 234.271318 295.445433 
L 234.337587 295.380804 
L 234.470126 295.362569 
L 234.536396 295.169348 
L 234.602665 295.192626 
L 234.668935 295.412917 
L 234.801474 294.995938 
L 234.867744 295.290337 
L 234.934013 295.125322 
L 235.000283 295.259322 
L 235.066552 295.185936 
L 235.199091 294.858644 
L 235.530439 295.360885 
L 235.662978 294.829002 
L 235.861787 295.349055 
L 235.928057 295.314287 
L 235.994326 295.069556 
L 236.060596 295.220989 
L 236.126865 295.203618 
L 236.193135 295.340766 
L 236.391943 294.933939 
L 236.458213 295.387984 
L 236.590752 294.673839 
L 236.657022 295.284974 
L 236.723291 294.211114 
L 236.85583 295.159667 
L 236.9221 295.112025 
L 236.988369 294.703098 
L 237.054639 295.189314 
L 237.120909 294.949238 
L 237.187178 294.890955 
L 237.319717 295.305357 
L 237.452256 294.542849 
L 237.518526 294.99179 
L 237.584795 294.843104 
L 237.651065 295.048352 
L 237.717335 294.974541 
L 237.783604 295.012245 
L 237.849874 294.787514 
L 237.982413 295.272508 
L 238.048682 294.515717 
L 238.114952 295.020343 
L 238.313761 295.317723 
L 238.38003 294.845719 
L 238.4463 295.033533 
L 238.512569 294.944445 
L 238.645108 295.27671 
L 238.711378 295.242397 
L 238.777647 295.058393 
L 238.843917 295.150221 
L 238.910186 295.394097 
L 238.976456 295.371187 
L 239.307804 295.215271 
L 239.440343 295.466839 
L 239.506612 295.066671 
L 239.572882 295.228305 
L 239.639152 294.963854 
L 239.705421 295.125474 
L 239.83796 294.761365 
L 240.036769 295.342094 
L 240.169308 295.440701 
L 240.368117 295.136488 
L 240.566925 295.482146 
L 240.699464 295.226006 
L 240.765734 295.314783 
L 240.832004 295.221226 
L 241.030812 295.285544 
L 241.229621 294.988338 
L 241.494699 295.318352 
L 241.560969 295.032161 
L 241.627238 295.465637 
L 241.693508 295.160182 
L 241.759777 295.368258 
L 241.892316 295.08654 
L 241.958586 295.429271 
L 242.024856 294.999454 
L 242.091125 295.333139 
L 242.157395 295.137014 
L 242.223664 294.9408 
L 242.289934 295.057478 
L 242.488742 295.405929 
L 242.687551 295.118198 
L 242.88636 295.117665 
L 242.952629 295.035575 
L 243.018899 295.355836 
L 243.085168 295.273946 
L 243.217708 295.456507 
L 243.615325 295.37979 
L 243.814133 295.013486 
L 243.880403 295.084067 
L 244.012942 294.612134 
L 244.145481 295.158569 
L 244.211751 295.102115 
L 244.543099 294.771347 
L 244.675638 294.827628 
L 244.741907 294.532539 
L 244.808177 294.673789 
L 244.940716 295.098119 
L 245.073255 295.120107 
L 245.139525 295.38842 
L 245.205794 295.335137 
L 245.338333 295.303759 
L 245.404603 295.041975 
L 245.470872 295.317938 
L 245.537142 295.299018 
L 245.603411 294.796012 
L 245.669681 295.1327 
L 245.735951 295.251878 
L 245.80222 295.046794 
L 245.86849 295.414796 
L 245.934759 295.153527 
L 246.133568 295.459877 
L 246.266107 295.318908 
L 246.332377 294.988086 
L 246.398646 295.010713 
L 246.464916 295.18292 
L 246.531185 294.952814 
L 246.597455 295.407271 
L 246.663724 295.310101 
L 246.862533 295.05123 
L 246.928803 295.257713 
L 246.995072 295.147831 
L 247.193881 295.188075 
L 247.392689 295.381276 
L 247.525229 295.020476 
L 247.591498 295.39232 
L 247.657768 295.261724 
L 247.724037 295.398146 
L 247.922846 295.213923 
L 247.989115 295.116876 
L 248.055385 295.301113 
L 248.121655 295.115504 
L 248.320463 295.383584 
L 248.453002 294.921759 
L 248.519272 295.388865 
L 248.585541 295.287713 
L 248.651811 295.157563 
L 248.71808 295.332109 
L 248.78435 295.01445 
L 248.916889 295.474414 
L 248.983159 295.245113 
L 249.049428 295.46814 
L 249.115698 295.183079 
L 249.181967 295.241745 
L 249.248237 295.342115 
L 249.314506 295.285866 
L 249.380776 295.294665 
L 249.447046 295.039621 
L 249.513315 295.171294 
L 249.579585 295.389396 
L 249.712124 294.961593 
L 249.778393 295.348627 
L 249.844663 295.157429 
L 249.910932 295.410811 
L 249.977202 295.184934 
L 250.043472 295.309042 
L 250.176011 295.134427 
L 250.24228 295.316204 
L 250.30855 295.232952 
L 250.374819 295.157348 
L 250.573628 295.421091 
L 251.170054 295.236345 
L 251.302593 295.211091 
L 251.368863 295.12556 
L 251.435132 295.385281 
L 251.501402 295.023602 
L 251.567671 295.24547 
L 251.633941 295.356003 
L 251.76648 295.157029 
L 251.899019 295.430465 
L 252.031558 294.912052 
L 252.164097 294.979757 
L 252.296636 295.387234 
L 252.362906 295.072145 
L 252.495445 295.32737 
L 252.760523 294.779126 
L 252.826793 295.148342 
L 252.893062 295.133076 
L 253.025602 295.252442 
L 253.158141 295.11525 
L 253.22441 295.237786 
L 253.29068 295.055986 
L 253.356949 295.283701 
L 253.423219 295.187297 
L 253.489488 294.88213 
L 253.555758 295.360965 
L 253.622028 295.131663 
L 253.754567 295.20822 
L 253.820836 295.034387 
L 253.887106 295.423389 
L 253.953375 295.347553 
L 254.085914 294.812301 
L 254.152184 294.903072 
L 254.350993 295.353758 
L 254.68234 295.132706 
L 254.74861 295.372931 
L 254.814879 295.017544 
L 254.881149 295.097516 
L 255.146227 295.419573 
L 255.212497 295.031106 
L 255.278766 295.27805 
L 255.411305 295.415655 
L 255.477575 295.280242 
L 255.543845 295.426215 
L 255.610114 294.929735 
L 255.676384 295.176943 
L 255.742653 295.413219 
L 255.808923 295.250543 
L 256.007731 295.095598 
L 256.074001 295.389041 
L 256.140271 295.320739 
L 256.27281 295.019965 
L 256.339079 295.463854 
L 256.405349 295.400338 
L 256.604157 295.198321 
L 256.736697 295.437451 
L 256.935505 295.124477 
L 257.001775 294.781344 
L 257.134314 295.323485 
L 257.200583 295.120917 
L 257.333123 295.428901 
L 257.531931 295.16325 
L 257.598201 295.266211 
L 257.66447 295.043726 
L 257.863279 295.358191 
L 257.929549 295.38556 
L 257.995818 295.153546 
L 258.062088 295.315973 
L 258.260896 295.422142 
L 258.459705 295.070964 
L 258.525975 295.28201 
L 258.658514 295.028877 
L 258.724783 295.196789 
L 258.791053 295.029057 
L 258.857322 295.074896 
L 258.923592 295.064119 
L 259.056131 295.419453 
L 259.1224 295.345054 
L 259.321209 294.940344 
L 259.387479 295.265992 
L 259.453748 295.212544 
L 259.520018 294.852267 
L 259.652557 295.35096 
L 259.718826 294.945952 
L 259.785096 295.013467 
L 259.917635 295.271941 
L 259.983905 295.103446 
L 260.050174 295.131606 
L 260.182713 295.135494 
L 260.248983 294.962008 
L 260.315252 295.28741 
L 260.381522 295.171307 
L 260.447792 295.148944 
L 260.514061 295.38937 
L 260.6466 294.993299 
L 260.71287 295.129052 
L 260.779139 295.062124 
L 260.911678 295.422442 
L 261.044218 294.794405 
L 261.176757 294.737908 
L 261.309296 295.350209 
L 261.574374 295.054458 
L 261.640644 295.39873 
L 261.706913 295.211459 
L 261.773183 295.402065 
L 261.905722 295.121927 
L 262.038261 295.297816 
L 262.10453 294.970187 
L 262.1708 295.407881 
L 262.23707 295.175371 
L 262.502148 295.343601 
L 262.634687 295.126044 
L 262.899765 295.344605 
L 263.098574 295.227067 
L 263.164843 295.380225 
L 263.231113 295.171628 
L 263.297382 295.348228 
L 263.363652 295.125892 
L 263.429922 295.20373 
L 263.496191 295.419636 
L 263.562461 295.311171 
L 263.62873 295.242435 
L 263.761269 295.408707 
L 263.893808 295.063341 
L 264.026347 295.34133 
L 264.225156 295.119107 
L 264.556504 295.439655 
L 264.755313 295.034637 
L 264.887852 295.19469 
L 264.954121 295.078089 
L 265.020391 295.391109 
L 265.08666 295.045317 
L 265.15293 295.099503 
L 265.219199 295.30807 
L 265.285469 295.278905 
L 265.351739 295.164162 
L 265.418008 295.37855 
L 265.484278 294.709088 
L 265.550547 294.938794 
L 265.881895 295.258508 
L 266.014434 295.140152 
L 266.080704 295.180288 
L 266.213243 295.069225 
L 266.279512 295.4471 
L 266.478321 294.806049 
L 266.67713 295.335673 
L 266.809669 294.949817 
L 266.875938 295.038219 
L 266.942208 295.260269 
L 267.008477 294.91178 
L 267.074747 295.005259 
L 267.207286 295.282609 
L 267.273556 295.096314 
L 267.339825 295.213241 
L 267.406095 295.361317 
L 267.472364 295.298734 
L 267.538634 295.257298 
L 267.671173 295.401269 
L 267.737443 295.378692 
L 267.936251 294.847088 
L 268.002521 295.071306 
L 268.06879 294.848238 
L 268.13506 294.881374 
L 268.400138 294.971504 
L 268.466408 295.408304 
L 268.532677 295.352368 
L 269.129103 295.106653 
L 269.394181 295.326358 
L 269.52672 294.789303 
L 269.65926 295.386015 
L 269.791799 295.098073 
L 269.924338 295.335042 
L 270.388225 295.013616 
L 270.520764 295.35078 
L 270.587033 295.056409 
L 270.653303 295.119666 
L 270.719572 295.046536 
L 270.785842 295.197927 
L 270.852112 295.144151 
L 270.918381 294.920178 
L 271.11719 295.466843 
L 271.315998 294.981137 
L 271.448538 295.074855 
L 271.514807 295.057156 
L 271.581077 294.703069 
L 271.647346 295.002614 
L 271.713616 294.806825 
L 271.779885 294.668033 
L 271.912424 295.221984 
L 271.978694 295.04108 
L 272.044964 295.033414 
L 272.243772 295.439 
L 272.376311 295.156791 
L 272.442581 295.20202 
L 272.50885 294.934876 
L 272.64139 295.212937 
L 272.773929 295.098103 
L 272.840198 295.237243 
L 272.906468 294.787592 
L 273.039007 295.280545 
L 273.105276 295.12983 
L 273.171546 295.318281 
L 273.237816 295.232554 
L 273.304085 294.986989 
L 273.436624 295.333081 
L 273.502894 295.187805 
L 273.635433 295.453389 
L 273.966781 294.436868 
L 274.09932 295.252594 
L 274.165589 294.904578 
L 274.364398 295.329071 
L 274.496937 295.10894 
L 274.563207 294.898326 
L 274.629476 295.045207 
L 274.695746 295.023526 
L 274.828285 295.166686 
L 274.894554 294.972208 
L 275.027093 295.423866 
L 275.093363 295.022876 
L 275.159633 295.261374 
L 275.225902 295.255938 
L 275.424711 294.960345 
L 275.55725 295.149005 
L 275.822328 294.76357 
L 276.021137 295.387229 
L 276.153676 294.917599 
L 276.219945 295.426122 
L 276.286215 295.318048 
L 276.418754 295.098089 
L 276.551293 295.259688 
L 276.750102 294.697122 
L 276.882641 295.347857 
L 276.948911 295.288603 
L 277.01518 295.208117 
L 277.147719 295.38001 
L 277.213989 295.187968 
L 277.346528 295.453534 
L 277.412797 295.288618 
L 277.479067 295.37616 
L 277.677876 295.117914 
L 277.876684 295.332909 
L 277.942954 295.166722 
L 278.009223 295.298836 
L 278.075493 295.358843 
L 278.208032 295.120207 
L 278.274302 295.320073 
L 278.340571 295.215458 
L 278.406841 295.103198 
L 278.47311 295.209091 
L 278.605649 295.201318 
L 278.671919 295.216993 
L 278.738188 295.392963 
L 278.804458 294.988569 
L 278.936997 295.409055 
L 279.135806 295.28463 
L 279.202075 294.993802 
L 279.268345 295.067997 
L 279.467154 295.346606 
L 279.665962 295.058734 
L 279.732232 294.816151 
L 279.798501 294.860992 
L 279.93104 295.282769 
L 280.06358 295.346057 
L 280.196119 295.372937 
L 280.328658 294.957106 
L 280.461197 295.115117 
L 280.593736 294.548954 
L 280.726275 295.340634 
L 280.792545 295.110858 
L 280.925084 294.948794 
L 281.190162 295.308756 
L 281.256432 295.393769 
L 281.45524 294.715746 
L 281.52151 295.283406 
L 281.587779 294.90901 
L 281.654049 294.876845 
L 281.852858 295.404433 
L 281.919127 295.326621 
L 282.051666 295.269521 
L 282.316744 294.627229 
L 282.515553 295.182061 
L 282.581823 294.79013 
L 282.648092 294.865264 
L 282.780631 295.279636 
L 282.91317 295.278599 
L 283.111979 295.011458 
L 283.244518 295.293722 
L 283.310788 295.294756 
L 283.377057 294.820722 
L 283.509596 295.352122 
L 283.642136 295.105255 
L 283.840944 295.454604 
L 283.907214 295.070086 
L 283.973483 295.284942 
L 284.172292 295.406551 
L 284.304831 295.164237 
L 284.371101 295.343212 
L 284.50364 294.969491 
L 284.702448 295.128956 
L 284.768718 295.411435 
L 284.834987 295.239022 
L 285.033796 294.945786 
L 285.100066 294.980075 
L 285.166335 295.414353 
L 285.232605 295.287045 
L 285.298874 295.270473 
L 285.431413 294.70597 
L 285.630222 295.405866 
L 285.762761 295.123111 
L 285.829031 295.039168 
L 285.8953 294.731392 
L 285.96157 294.863457 
L 286.027839 295.33147 
L 286.094109 295.213368 
L 286.160379 295.15208 
L 286.292918 295.421948 
L 286.425457 295.358856 
L 286.557996 295.441645 
L 286.756805 295.239948 
L 286.889344 295.464043 
L 286.955613 295.256593 
L 287.021883 295.354549 
L 287.286961 295.215908 
L 287.353231 295.32923 
L 287.4195 295.188877 
L 287.48577 295.246315 
L 287.552039 295.374776 
L 287.684578 295.175133 
L 287.750848 295.359913 
L 287.817117 295.313765 
L 287.949657 295.258943 
L 288.082196 295.469681 
L 288.148465 295.016672 
L 288.214735 295.276875 
L 288.281004 295.439666 
L 288.347274 295.168939 
L 288.413543 295.209507 
L 288.479813 295.358724 
L 288.546083 295.324962 
L 288.612352 295.107289 
L 288.744891 295.415689 
L 288.811161 295.291135 
L 288.87743 295.361147 
L 289.009969 295.366872 
L 289.076239 295.238143 
L 289.142508 295.293458 
L 289.341317 295.126798 
L 289.540126 295.44725 
L 289.606395 295.109809 
L 289.672665 295.186066 
L 289.805204 295.1834 
L 289.871474 295.045048 
L 290.070282 295.331742 
L 290.269091 295.349211 
L 290.33536 295.345419 
L 290.4679 294.961396 
L 290.799247 295.277421 
L 290.865517 295.240784 
L 290.931786 294.965323 
L 290.998056 294.984836 
L 291.196865 295.218081 
L 291.329404 295.174164 
L 291.461943 295.264495 
L 291.594482 295.06182 
L 291.660752 295.150961 
L 291.727021 295.427712 
L 291.793291 295.330799 
L 291.85956 295.410226 
L 291.992099 295.349671 
L 292.190908 295.475963 
L 292.323447 295.322227 
L 292.389717 295.36109 
L 292.455986 295.221555 
L 292.522256 295.465967 
L 292.588525 295.325948 
L 292.721064 295.351395 
L 292.853604 295.247142 
L 292.919873 295.452709 
L 292.986143 295.298594 
L 293.184951 295.158833 
L 293.251221 295.338937 
L 293.31749 295.293 
L 293.516299 295.407726 
L 293.715108 295.359755 
L 293.781377 295.445579 
L 293.847647 295.391414 
L 294.046455 295.360791 
L 294.245264 295.32232 
L 294.576612 295.360935 
L 294.642881 295.415505 
L 294.709151 295.309355 
L 294.775421 295.35832 
L 294.974229 295.375143 
L 295.040499 295.487138 
L 295.106768 295.403281 
L 295.173038 295.31974 
L 295.239307 295.384641 
L 295.371847 295.391048 
L 295.504386 295.369756 
L 295.769464 295.466308 
L 295.968273 295.408431 
L 296.100812 295.380659 
L 296.36589 295.406261 
L 296.630968 295.362854 
L 296.697238 295.145886 
L 296.763507 295.430123 
L 296.829777 295.297066 
L 296.896046 295.292158 
L 297.028585 295.42403 
L 297.094855 295.162094 
L 297.161125 295.233036 
L 297.227394 295.378294 
L 297.293664 295.33217 
L 297.492472 295.182349 
L 297.558742 295.414697 
L 297.625011 295.30761 
L 297.691281 295.28765 
L 297.82382 295.415982 
L 298.088898 295.350684 
L 298.155168 295.286458 
L 298.221437 295.374039 
L 298.486516 295.376013 
L 298.619055 295.242231 
L 298.685324 295.260479 
L 298.751594 295.426175 
L 298.817863 295.390315 
L 299.016672 295.426177 
L 299.215481 295.442628 
L 299.414289 295.288796 
L 299.480559 295.422815 
L 299.546828 295.371883 
L 300.010715 295.417877 
L 300.275794 295.422906 
L 300.408333 295.439139 
L 300.540872 295.24991 
L 300.607141 295.421429 
L 300.673411 295.292933 
L 300.73968 295.451506 
L 300.80595 295.313882 
L 300.87222 295.392986 
L 301.071028 295.335866 
L 301.269837 295.441178 
L 301.601185 295.416815 
L 301.733724 295.404098 
L 302.131341 295.41912 
L 302.197611 295.367002 
L 302.26388 295.460478 
L 302.33015 295.399479 
L 302.727767 295.331351 
L 302.794037 295.446047 
L 302.860306 295.400227 
L 303.059115 295.414948 
L 303.456732 295.344068 
L 303.523002 295.46424 
L 303.589271 295.419681 
L 304.119428 295.456359 
L 304.185697 295.377441 
L 304.251967 295.436286 
L 304.517045 295.484029 
L 304.715854 295.433585 
L 305.047201 295.404998 
L 305.31228 295.300882 
L 305.577358 295.407378 
L 306.173784 295.347115 
L 306.240053 295.467626 
L 306.306323 295.410068 
L 306.372593 295.445656 
L 306.438862 295.345304 
L 306.505132 295.391849 
L 306.969019 295.457253 
L 307.101558 295.356049 
L 307.366636 295.471869 
L 307.631714 295.463166 
L 307.963062 295.420569 
L 308.029331 295.48504 
L 308.095601 295.410087 
L 308.29441 295.411045 
L 308.426949 295.349714 
L 308.625757 295.461993 
L 308.692027 295.381027 
L 308.758296 295.460116 
L 309.023375 295.319254 
L 309.222183 295.454547 
L 309.619801 295.413637 
L 309.884879 295.451768 
L 309.951148 295.374292 
L 310.017418 295.443335 
L 310.812653 295.415624 
L 311.011461 295.456476 
L 311.21027 295.356855 
L 311.409079 295.481113 
L 311.607887 295.378408 
L 311.872966 295.47598 
L 312.138044 295.41851 
L 312.270583 295.466841 
L 312.403122 295.427076 
L 313.065818 295.463138 
L 313.330896 295.427255 
L 314.324939 295.407283 
L 314.590017 295.446605 
L 314.656287 295.328847 
L 314.722556 295.42224 
L 314.855095 295.378779 
L 315.385252 295.465616 
L 315.451521 295.329901 
L 315.517791 295.404268 
L 315.65033 295.465433 
L 318.897538 295.413163 
L 318.963808 295.301259 
L 319.030077 295.34715 
L 319.427695 295.456291 
L 319.759042 295.447765 
L 320.421738 295.449709 
L 320.554277 295.397287 
L 321.150703 295.345996 
L 321.349512 295.391598 
L 322.542364 295.416661 
L 322.674903 295.450241 
L 323.470138 295.421495 
L 323.602677 295.427497 
L 323.867755 295.469005 
L 324.066563 295.467249 
L 324.53045 295.454035 
L 324.795529 295.436199 
L 325.193146 295.453997 
L 325.458224 295.435338 
L 326.12092 295.432432 
L 326.187189 295.294909 
L 326.253459 295.349333 
L 326.584807 295.442349 
L 327.247502 295.405838 
L 327.446311 295.406171 
L 327.711389 295.379969 
L 327.910198 295.467368 
L 328.175276 295.475357 
L 328.241545 295.383601 
L 328.307815 295.468076 
L 329.964554 295.386982 
L 330.163362 295.46667 
L 330.826058 295.417344 
L 330.958597 295.449209 
L 331.621293 295.36533 
L 331.820101 295.420308 
L 331.95264 295.474271 
L 332.482797 295.427245 
L 332.681606 295.474852 
L 333.012953 295.448775 
L 335.332388 295.46018 
L 335.464927 295.426444 
L 336.127622 295.464266 
L 336.856587 295.439849 
L 337.187935 295.44784 
L 337.718092 295.461748 
L 338.049439 295.460601 
L 338.314518 295.421854 
L 338.645865 295.482855 
L 339.109752 295.478246 
L 339.904987 295.47008 
L 342.091882 295.461121 
L 342.754578 295.483252 
L 343.284734 295.459865 
L 343.748621 295.481346 
L 344.411317 295.471878 
L 352.231124 295.469063 
L 354.616828 295.473903 
L 356.869993 295.476099 
L 359.653314 295.473388 
L 365.948922 295.475291 
L 398.487273 295.476935 
L 398.487273 295.476935 
" clip-path="url(#p895fde5bbe)" style="fill: none; stroke: #1f77b4; stroke-width: 1.5; stroke-linecap: square"/>
   </g>
   <g id="patch_3">
    <path d="M 57.6 307.584 
L 57.6 41.472 
" style="fill: none; stroke: #000000; stroke-width: 0.8; stroke-linejoin: miter; stroke-linecap: square"/>
   </g>
   <g id="patch_4">
    <path d="M 414.72 307.584 
L 414.72 41.472 
" style="fill: none; stroke: #000000; stroke-width: 0.8; stroke-linejoin: miter; stroke-linecap: square"/>
   </g>
   <g id="patch_5">
    <path d="M 57.6 307.584 
L 414.72 307.584 
" style="fill: none; stroke: #000000; stroke-width: 0.8; stroke-linejoin: miter; stroke-linecap: square"/>
   </g>
   <g id="patch_6">
    <path d="M 57.6 41.472 
L 414.72 41.472 
" style="fill: none; stroke: #000000; stroke-width: 0.8; stroke-linejoin: miter; stroke-linecap: square"/>
   </g>
   <g id="text_15">
    <text style="font: 12px 'IPAexGothic'; text-anchor: middle" x="236.16" y="35.472" transform="rotate(-0 236.16 35.472)">"076_A2.wav"の振幅スペクトル</text>
   </g>
  </g>
 </g>
 <defs>
  <clipPath id="p895fde5bbe">
   <rect x="57.6" y="41.472" width="357.12" height="266.112"/>
  </clipPath>
 </defs>
</svg>
