<?xml version="1.0" encoding="utf-8" standalone="no"?>
<!DOCTYPE svg PUBLIC "-//W3C//DTD SVG 1.1//EN"
  "http://www.w3.org/Graphics/SVG/1.1/DTD/svg11.dtd">
<svg xmlns:xlink="http://www.w3.org/1999/xlink" width="460.8pt" height="345.6pt" viewBox="0 0 460.8 345.6" xmlns="http://www.w3.org/2000/svg" version="1.1">
 <metadata>
  <rdf:RDF xmlns:dc="http://purl.org/dc/elements/1.1/" xmlns:cc="http://creativecommons.org/ns#" xmlns:rdf="http://www.w3.org/1999/02/22-rdf-syntax-ns#">
   <cc:Work>
    <dc:type rdf:resource="http://purl.org/dc/dcmitype/StillImage"/>
    <dc:date>2022-11-28T11:25:30.219456</dc:date>
    <dc:format>image/svg+xml</dc:format>
    <dc:creator>
     <cc:Agent>
      <dc:title>Matplotlib v3.6.2, https://matplotlib.org/</dc:title>
     </cc:Agent>
    </dc:creator>
   </cc:Work>
  </rdf:RDF>
 </metadata>
 <defs>
  <style type="text/css">*{stroke-linejoin: round; stroke-linecap: butt}</style>
 </defs>
 <g id="figure_1">
  <g id="patch_1">
   <path d="M 0 345.6 
L 460.8 345.6 
L 460.8 0 
L 0 0 
z
" style="fill: #ffffff"/>
  </g>
  <g id="axes_1">
   <g id="patch_2">
    <path d="M 57.6 307.584 
L 414.72 307.584 
L 414.72 41.472 
L 57.6 41.472 
z
" style="fill: #ffffff"/>
   </g>
   <g id="matplotlib.axis_1">
    <g id="xtick_1">
     <g id="line2d_1">
      <defs>
       <path id="m0cf23e988b" d="M 0 0 
L 0 3.5 
" style="stroke: #000000; stroke-width: 0.8"/>
      </defs>
      <g>
       <use xlink:href="#m0cf23e988b" x="73.832727" y="307.584" style="stroke: #000000; stroke-width: 0.8"/>
      </g>
     </g>
     <g id="text_1">
      <text style="font: 10px 'IPAexGothic'; text-anchor: middle" x="73.832727" y="322.074625" transform="rotate(-0 73.832727 322.074625)">0</text>
     </g>
    </g>
    <g id="xtick_2">
     <g id="line2d_2">
      <g>
       <use xlink:href="#m0cf23e988b" x="140.102281" y="307.584" style="stroke: #000000; stroke-width: 0.8"/>
      </g>
     </g>
     <g id="text_2">
      <text style="font: 10px 'IPAexGothic'; text-anchor: middle" x="140.102281" y="322.074625" transform="rotate(-0 140.102281 322.074625)">1000</text>
     </g>
    </g>
    <g id="xtick_3">
     <g id="line2d_3">
      <g>
       <use xlink:href="#m0cf23e988b" x="206.371835" y="307.584" style="stroke: #000000; stroke-width: 0.8"/>
      </g>
     </g>
     <g id="text_3">
      <text style="font: 10px 'IPAexGothic'; text-anchor: middle" x="206.371835" y="322.074625" transform="rotate(-0 206.371835 322.074625)">2000</text>
     </g>
    </g>
    <g id="xtick_4">
     <g id="line2d_4">
      <g>
       <use xlink:href="#m0cf23e988b" x="272.64139" y="307.584" style="stroke: #000000; stroke-width: 0.8"/>
      </g>
     </g>
     <g id="text_4">
      <text style="font: 10px 'IPAexGothic'; text-anchor: middle" x="272.64139" y="322.074625" transform="rotate(-0 272.64139 322.074625)">3000</text>
     </g>
    </g>
    <g id="xtick_5">
     <g id="line2d_5">
      <g>
       <use xlink:href="#m0cf23e988b" x="338.910944" y="307.584" style="stroke: #000000; stroke-width: 0.8"/>
      </g>
     </g>
     <g id="text_5">
      <text style="font: 10px 'IPAexGothic'; text-anchor: middle" x="338.910944" y="322.074625" transform="rotate(-0 338.910944 322.074625)">4000</text>
     </g>
    </g>
    <g id="xtick_6">
     <g id="line2d_6">
      <g>
       <use xlink:href="#m0cf23e988b" x="405.180498" y="307.584" style="stroke: #000000; stroke-width: 0.8"/>
      </g>
     </g>
     <g id="text_6">
      <text style="font: 10px 'IPAexGothic'; text-anchor: middle" x="405.180498" y="322.074625" transform="rotate(-0 405.180498 322.074625)">5000</text>
     </g>
    </g>
    <g id="text_7">
     <text style="font: 10px 'IPAexGothic'; text-anchor: middle" x="236.16" y="335.924625" transform="rotate(-0 236.16 335.924625)">周波数[Hz]</text>
    </g>
   </g>
   <g id="matplotlib.axis_2">
    <g id="ytick_1">
     <g id="line2d_7">
      <defs>
       <path id="mbb5079e05a" d="M 0 0 
L -3.5 0 
" style="stroke: #000000; stroke-width: 0.8"/>
      </defs>
      <g>
       <use xlink:href="#mbb5079e05a" x="57.6" y="295.488213" style="stroke: #000000; stroke-width: 0.8"/>
      </g>
     </g>
     <g id="text_8">
      <text style="font: 10px 'IPAexGothic'; text-anchor: end" x="50.6" y="299.233525" transform="rotate(-0 50.6 299.233525)">0.0</text>
     </g>
    </g>
    <g id="ytick_2">
     <g id="line2d_8">
      <g>
       <use xlink:href="#mbb5079e05a" x="57.6" y="261.232005" style="stroke: #000000; stroke-width: 0.8"/>
      </g>
     </g>
     <g id="text_9">
      <text style="font: 10px 'IPAexGothic'; text-anchor: end" x="50.6" y="264.977317" transform="rotate(-0 50.6 264.977317)">0.5</text>
     </g>
    </g>
    <g id="ytick_3">
     <g id="line2d_9">
      <g>
       <use xlink:href="#mbb5079e05a" x="57.6" y="226.975797" style="stroke: #000000; stroke-width: 0.8"/>
      </g>
     </g>
     <g id="text_10">
      <text style="font: 10px 'IPAexGothic'; text-anchor: end" x="50.6" y="230.721109" transform="rotate(-0 50.6 230.721109)">1.0</text>
     </g>
    </g>
    <g id="ytick_4">
     <g id="line2d_10">
      <g>
       <use xlink:href="#mbb5079e05a" x="57.6" y="192.719588" style="stroke: #000000; stroke-width: 0.8"/>
      </g>
     </g>
     <g id="text_11">
      <text style="font: 10px 'IPAexGothic'; text-anchor: end" x="50.6" y="196.464901" transform="rotate(-0 50.6 196.464901)">1.5</text>
     </g>
    </g>
    <g id="ytick_5">
     <g id="line2d_11">
      <g>
       <use xlink:href="#mbb5079e05a" x="57.6" y="158.46338" style="stroke: #000000; stroke-width: 0.8"/>
      </g>
     </g>
     <g id="text_12">
      <text style="font: 10px 'IPAexGothic'; text-anchor: end" x="50.6" y="162.208693" transform="rotate(-0 50.6 162.208693)">2.0</text>
     </g>
    </g>
    <g id="ytick_6">
     <g id="line2d_12">
      <g>
       <use xlink:href="#mbb5079e05a" x="57.6" y="124.207172" style="stroke: #000000; stroke-width: 0.8"/>
      </g>
     </g>
     <g id="text_13">
      <text style="font: 10px 'IPAexGothic'; text-anchor: end" x="50.6" y="127.952485" transform="rotate(-0 50.6 127.952485)">2.5</text>
     </g>
    </g>
    <g id="ytick_7">
     <g id="line2d_13">
      <g>
       <use xlink:href="#mbb5079e05a" x="57.6" y="89.950964" style="stroke: #000000; stroke-width: 0.8"/>
      </g>
     </g>
     <g id="text_14">
      <text style="font: 10px 'IPAexGothic'; text-anchor: end" x="50.6" y="93.696277" transform="rotate(-0 50.6 93.696277)">3.0</text>
     </g>
    </g>
    <g id="ytick_8">
     <g id="line2d_14">
      <g>
       <use xlink:href="#mbb5079e05a" x="57.6" y="55.694756" style="stroke: #000000; stroke-width: 0.8"/>
      </g>
     </g>
     <g id="text_15">
      <text style="font: 10px 'IPAexGothic'; text-anchor: end" x="50.6" y="59.440068" transform="rotate(-0 50.6 59.440068)">3.5</text>
     </g>
    </g>
    <g id="text_16">
     <text style="font: 10px 'IPAexGothic'; text-anchor: middle" x="29.460938" y="174.528" transform="rotate(-90 29.460938 174.528)">振幅</text>
    </g>
    <g id="text_17">
     <text style="font: 10px 'IPAexGothic'; text-anchor: start" x="57.6" y="38.472" transform="rotate(-0 57.6 38.472)">1e7</text>
    </g>
   </g>
   <g id="line2d_15">
    <path d="M 73.832727 294.974281 
L 73.965266 295.416975 
L 74.164075 295.390203 
L 74.230345 295.325937 
L 74.296614 295.463381 
L 74.362884 295.430679 
L 74.495423 295.339294 
L 74.561692 295.081242 
L 74.760501 295.447417 
L 74.89304 295.419771 
L 74.95931 295.239383 
L 75.091849 295.473858 
L 75.290657 295.389278 
L 75.356927 294.977187 
L 75.489466 295.454545 
L 75.688275 295.312912 
L 75.754544 295.150031 
L 75.887083 295.385808 
L 76.41724 295.405957 
L 76.483509 295.292888 
L 76.616049 295.433701 
L 77.146205 295.30931 
L 77.212475 295.115748 
L 77.411283 295.468337 
L 77.543822 295.465292 
L 77.610092 295.300399 
L 77.676361 295.418735 
L 78.007709 295.444277 
L 78.339057 295.458618 
L 78.405327 295.362903 
L 78.471596 295.420467 
L 79.3331 295.434087 
L 85.098551 295.410838 
L 85.29736 295.440064 
L 86.954099 295.425929 
L 87.683064 295.431295 
L 88.213221 295.387298 
L 88.34576 295.450179 
L 89.207264 295.432635 
L 90.068768 295.423076 
L 90.135038 295.354413 
L 90.201307 295.422316 
L 91.19535 295.441506 
L 91.460429 295.417914 
L 91.592968 295.389465 
L 91.659237 294.952438 
L 91.791776 295.371039 
L 91.990585 295.477814 
L 92.056855 295.378463 
L 92.123124 295.428239 
L 93.050898 295.419972 
L 93.382246 295.437797 
L 94.111211 295.42061 
L 95.370332 295.414156 
L 95.502871 295.414998 
L 96.761993 295.410813 
L 97.689767 295.397289 
L 97.888575 295.438604 
L 99.942932 295.380192 
L 100.075471 295.432603 
L 102.527444 295.44301 
L 102.593714 295.484258 
L 102.659983 295.325175 
L 102.726253 295.406443 
L 103.322679 295.426098 
L 103.521488 295.418961 
L 105.973461 295.40994 
L 106.039731 295.280965 
L 106.17227 295.400617 
L 109.419478 295.339508 
L 109.485747 295.465125 
L 109.552017 295.418443 
L 111.341295 295.364566 
L 111.540104 295.351684 
L 112.00399 295.337114 
L 112.07026 295.27971 
L 112.13653 295.428011 
L 112.202799 295.376135 
L 112.467877 295.300909 
L 112.799225 295.357329 
L 112.865495 295.188589 
L 112.998034 295.357353 
L 113.461921 295.384133 
L 113.59446 295.415938 
L 113.660729 295.277531 
L 113.726999 295.362125 
L 113.925807 295.404907 
L 113.992077 295.18254 
L 114.058347 295.461929 
L 114.124616 295.424277 
L 114.522233 295.33425 
L 114.654773 295.398272 
L 114.787312 294.963084 
L 114.919851 295.391599 
L 115.05239 295.361818 
L 115.118659 295.159838 
L 115.184929 295.215724 
L 115.450007 295.353089 
L 115.516277 295.085824 
L 115.648816 295.439333 
L 115.781355 295.372992 
L 115.913894 295.067659 
L 115.980164 295.424653 
L 116.046433 295.379857 
L 116.245242 295.318822 
L 116.311511 295.227013 
L 116.444051 295.365298 
L 116.57659 295.371619 
L 116.642859 295.165819 
L 116.709129 295.285351 
L 117.040477 295.124454 
L 117.173016 295.331757 
L 117.371824 295.378404 
L 117.504363 295.315122 
L 117.703172 295.257242 
L 117.769442 295.039402 
L 117.835711 295.170412 
L 118.100789 295.319857 
L 118.365868 295.369659 
L 118.498407 295.40641 
L 118.564676 294.98646 
L 118.697215 295.366371 
L 118.829754 295.378306 
L 118.896024 295.137379 
L 118.962294 295.302905 
L 119.028563 295.324719 
L 119.094833 295.198541 
L 119.161102 295.24123 
L 119.227372 295.216709 
L 119.293641 295.389903 
L 119.359911 295.045626 
L 119.42618 295.104264 
L 119.691259 295.27947 
L 120.088876 294.790022 
L 120.287685 295.242357 
L 120.353954 295.302024 
L 120.420224 294.584337 
L 120.486493 294.816629 
L 120.619032 295.336635 
L 120.751572 295.266089 
L 120.884111 295.208572 
L 121.215458 295.168385 
L 121.281728 295.411086 
L 121.347998 295.390339 
L 121.480537 295.348204 
L 121.613076 294.757219 
L 121.745615 295.156932 
L 121.944424 295.187298 
L 122.209502 295.003418 
L 122.47458 295.203539 
L 122.673389 295.14051 
L 122.739658 295.352099 
L 122.805928 295.240314 
L 123.004736 295.156025 
L 123.071006 294.786091 
L 123.137276 294.826598 
L 123.336084 295.131599 
L 123.402354 295.277881 
L 123.468623 294.789395 
L 123.534893 295.122983 
L 123.667432 295.337963 
L 123.799971 295.145641 
L 123.866241 294.225233 
L 123.93251 294.96386 
L 123.99878 294.903743 
L 124.197588 294.455511 
L 124.462667 295.158102 
L 124.528936 295.167525 
L 124.595206 294.464316 
L 124.727745 295.413155 
L 124.926553 294.972776 
L 124.992823 294.807773 
L 125.125362 294.94979 
L 125.257901 294.677621 
L 125.39044 294.001782 
L 125.45671 295.07123 
L 125.522979 294.912928 
L 125.589249 294.798542 
L 125.655519 294.982596 
L 125.788058 293.571828 
L 125.986866 294.84042 
L 126.119405 294.938707 
L 126.251945 294.894181 
L 126.384484 295.013519 
L 126.450753 295.254127 
L 126.517023 293.372906 
L 126.649562 294.75333 
L 126.782101 294.258329 
L 126.848371 293.167853 
L 126.98091 294.974424 
L 127.047179 294.837915 
L 127.113449 294.79933 
L 127.179718 294.592688 
L 127.245988 292.685035 
L 127.378527 295.213708 
L 127.444797 295.381985 
L 127.577336 295.024866 
L 127.643605 293.86591 
L 127.709875 294.735858 
L 127.776144 294.719112 
L 127.908683 294.451499 
L 128.041223 292.737466 
L 128.173762 295.243998 
L 128.240031 295.261074 
L 128.306301 295.042712 
L 128.43884 293.168294 
L 128.505109 294.304909 
L 128.571379 294.085909 
L 128.703918 294.479337 
L 128.770188 291.099799 
L 128.836457 292.522205 
L 129.035266 294.614974 
L 129.101535 293.845615 
L 129.167805 283.970152 
L 129.234074 292.645893 
L 129.300344 291.975685 
L 129.432883 289.389971 
L 129.499153 286.194821 
L 129.631692 292.726297 
L 129.8305 291.6638 
L 129.89677 284.574811 
L 130.029309 294.605151 
L 130.294387 287.242118 
L 130.426926 291.645645 
L 130.493196 291.94375 
L 130.559466 292.792032 
L 130.692005 263.589713 
L 130.758274 291.063117 
L 130.824544 290.862446 
L 131.023352 273.297197 
L 131.089622 255.91498 
L 131.155892 266.119329 
L 131.222161 267.173626 
L 131.3547 262.439701 
L 131.42097 53.568 
L 131.487239 176.454684 
L 131.619778 234.511397 
L 131.686048 228.870239 
L 131.752318 229.868147 
L 131.818587 173.442476 
L 131.884857 273.087306 
L 131.951126 269.054358 
L 132.149935 289.484147 
L 132.216204 273.487423 
L 132.348744 288.204778 
L 132.415013 288.567352 
L 132.481283 287.880531 
L 132.547552 272.998034 
L 132.613822 282.960075 
L 132.680091 286.340408 
L 132.746361 283.292035 
L 132.8789 288.486465 
L 132.94517 289.078437 
L 133.011439 286.987083 
L 133.077709 288.217361 
L 133.276517 293.719676 
L 133.342787 279.464538 
L 133.409056 290.122917 
L 133.475326 289.829502 
L 133.674135 285.203417 
L 133.740404 294.291166 
L 133.806674 292.444431 
L 133.872943 291.259891 
L 133.939213 291.970281 
L 134.005482 291.27473 
L 134.071752 288.09032 
L 134.138021 292.107104 
L 134.204291 291.286852 
L 134.33683 291.89972 
L 134.4031 292.718038 
L 134.469369 291.481929 
L 134.601908 292.940315 
L 134.734447 292.569467 
L 134.800717 292.874104 
L 134.866987 295.073538 
L 134.933256 293.908516 
L 135.065795 292.411022 
L 135.132065 292.555989 
L 135.198334 291.666841 
L 135.397143 294.370717 
L 135.463413 294.386343 
L 135.529682 294.238941 
L 135.595952 292.165097 
L 135.662221 294.326726 
L 135.728491 293.983184 
L 135.927299 293.366121 
L 136.059839 294.794179 
L 136.126108 294.864656 
L 136.258647 294.6128 
L 136.324917 292.101605 
L 136.457456 295.074602 
L 136.589995 294.7491 
L 136.656265 294.799122 
L 136.722534 294.793503 
L 136.788804 294.543694 
L 136.855073 294.612081 
L 136.921343 295.021696 
L 136.987612 295.000424 
L 137.053882 295.045259 
L 137.120151 293.705438 
L 137.186421 295.003609 
L 137.252691 294.917437 
L 137.38523 294.496649 
L 137.517769 292.411958 
L 137.650308 295.276618 
L 137.716577 295.244179 
L 137.782847 295.065258 
L 137.849117 294.308635 
L 137.981656 295.390591 
L 138.047925 295.304456 
L 138.114195 295.451128 
L 138.180464 295.284985 
L 138.246734 292.685378 
L 138.313003 294.188243 
L 138.578082 294.934272 
L 138.644351 294.750694 
L 138.77689 295.169177 
L 138.909429 294.964698 
L 139.041968 294.671211 
L 139.307047 295.155241 
L 139.439586 294.757744 
L 139.505855 294.876712 
L 139.704664 294.948532 
L 139.770934 294.526332 
L 139.903473 295.086502 
L 140.036012 295.28016 
L 140.102281 295.146559 
L 140.168551 294.717998 
L 140.23482 295.305435 
L 140.30109 295.250528 
L 140.433629 294.927933 
L 140.566168 293.354828 
L 140.764977 295.080191 
L 140.831246 295.277424 
L 140.897516 293.841058 
L 140.963786 294.48227 
L 141.096325 294.808388 
L 141.228864 294.885652 
L 141.295133 294.589849 
L 141.427672 295.15511 
L 141.560212 295.117979 
L 141.692751 294.540964 
L 141.82529 295.453312 
L 141.957829 295.412387 
L 142.024098 294.978904 
L 142.090368 295.184905 
L 142.355446 295.356839 
L 142.421716 293.976798 
L 142.554255 295.364977 
L 142.819333 295.319102 
L 142.951872 295.403725 
L 143.018142 295.423294 
L 143.084411 295.260469 
L 143.21695 294.52205 
L 143.415759 295.281665 
L 143.482029 295.363863 
L 143.548298 294.721324 
L 143.614568 295.130391 
L 143.813376 295.194309 
L 143.879646 295.06564 
L 143.945915 294.369374 
L 144.012185 295.364255 
L 144.078455 295.336741 
L 144.210994 295.307878 
L 144.343533 294.988981 
L 144.476072 295.413887 
L 144.674881 295.262933 
L 144.80742 295.397988 
L 145.006228 295.417298 
L 145.072498 295.124726 
L 145.205037 295.40894 
L 145.403846 295.348739 
L 145.470115 295.22046 
L 145.602654 295.453842 
L 145.735193 295.438763 
L 145.867733 295.151511 
L 146.066541 295.39197 
L 146.132811 295.313177 
L 146.19908 294.797539 
L 146.331619 295.331793 
L 146.464159 295.355898 
L 146.530428 295.359022 
L 146.596698 294.583234 
L 146.662967 295.308293 
L 146.729237 295.270976 
L 146.861776 295.059683 
L 146.928045 294.646373 
L 146.994315 294.839719 
L 147.060585 295.374156 
L 147.126854 295.347791 
L 147.325663 295.223887 
L 147.391932 294.87523 
L 147.590741 295.247405 
L 147.657011 295.307897 
L 147.72328 295.103996 
L 147.78955 295.324701 
L 147.855819 295.292921 
L 148.054628 295.369552 
L 148.120897 294.949586 
L 148.319706 295.44615 
L 148.385976 295.400887 
L 148.518515 294.8817 
L 148.651054 295.375105 
L 148.849862 295.385686 
L 148.982402 295.337637 
L 149.18121 295.418371 
L 149.24748 295.240545 
L 149.380019 295.441341 
L 149.578828 295.391988 
L 149.645097 295.20922 
L 149.843906 295.425445 
L 149.910175 295.436089 
L 150.042714 295.26293 
L 150.241523 295.428392 
L 150.307793 295.438754 
L 150.374062 294.944093 
L 150.506601 295.384822 
L 150.70541 295.348693 
L 150.77168 295.128718 
L 150.904219 295.464008 
L 151.036758 295.422566 
L 151.169297 295.238368 
L 151.301836 295.399669 
L 151.434375 295.358446 
L 151.500645 295.071819 
L 151.566914 295.403855 
L 151.633184 295.375 
L 152.22961 295.197644 
L 152.295879 295.398058 
L 152.362149 295.299202 
L 152.494688 295.288402 
L 152.560958 295.24759 
L 152.627227 294.98228 
L 152.693497 295.440578 
L 152.759766 295.371153 
L 152.958575 295.269692 
L 153.024844 295.326947 
L 153.091114 295.243675 
L 153.356192 295.385554 
L 153.422462 295.273743 
L 153.555001 295.409371 
L 153.68754 295.328703 
L 153.753809 295.140208 
L 153.820079 295.209646 
L 153.952618 295.43002 
L 154.085157 295.381043 
L 154.151427 294.847381 
L 154.217696 295.169984 
L 154.416505 295.424555 
L 154.482775 295.455419 
L 154.549044 295.289221 
L 154.681583 295.435095 
L 154.946661 295.302683 
L 155.012931 295.458692 
L 155.079201 295.427666 
L 155.21174 295.38866 
L 155.278009 294.901455 
L 155.344279 294.933345 
L 155.476818 295.349695 
L 155.741896 295.337559 
L 156.006974 295.226306 
L 156.073244 295.123295 
L 156.205783 295.377561 
L 156.338322 295.341876 
L 156.404592 295.262542 
L 156.470861 295.412224 
L 156.537131 295.375445 
L 156.735939 295.34465 
L 157.001018 295.313311 
L 157.332365 295.369707 
L 157.531174 295.390158 
L 157.597444 294.968737 
L 157.729983 295.458289 
L 157.928791 295.238211 
L 157.995061 295.374516 
L 158.19387 295.480804 
L 158.260139 295.430938 
L 158.326409 294.710051 
L 158.525217 295.480576 
L 158.657756 295.421655 
L 158.724026 295.168882 
L 158.790296 295.442565 
L 158.856565 295.424235 
L 159.386722 295.373439 
L 159.452991 295.022215 
L 159.519261 295.153474 
L 159.718069 295.382282 
L 159.784339 295.420806 
L 159.850608 295.305432 
L 159.983148 295.484578 
L 160.181956 295.425597 
L 160.248226 295.336639 
L 160.314495 295.414213 
L 161.242269 295.356534 
L 161.441078 295.404854 
L 161.639886 295.33671 
L 161.706156 295.202674 
L 161.772426 295.25147 
L 161.904965 295.401077 
L 162.037504 295.410925 
L 162.103773 295.140703 
L 162.170043 295.249082 
L 162.368852 295.486584 
L 162.435121 295.443668 
L 162.501391 294.972679 
L 162.56766 295.459875 
L 162.63393 295.42328 
L 162.766469 295.342885 
L 162.899008 294.828441 
L 163.031547 295.469039 
L 163.429164 295.396158 
L 163.561704 295.374299 
L 163.627973 295.167002 
L 163.760512 295.355315 
L 163.959321 295.335619 
L 164.02559 295.056845 
L 164.158129 295.287398 
L 164.356938 295.333446 
L 164.423208 294.946159 
L 164.489477 295.12879 
L 164.688286 295.370831 
L 164.754555 294.952382 
L 164.820825 295.030676 
L 164.887095 295.33212 
L 164.953364 295.271606 
L 165.085903 295.20109 
L 165.152173 294.488102 
L 165.284712 295.043398 
L 165.814868 295.407877 
L 165.881138 295.266385 
L 165.947407 295.124387 
L 166.079947 295.321545 
L 166.212486 295.349019 
L 166.477564 295.383081 
L 166.610103 295.320455 
L 166.676373 295.226937 
L 166.808912 295.347274 
L 167.00772 295.217091 
L 167.07399 295.105819 
L 167.206529 295.42928 
L 167.339068 295.350098 
L 167.405338 295.047499 
L 167.471607 295.206615 
L 167.537877 295.404615 
L 167.604146 295.364211 
L 168.001764 295.451111 
L 168.134303 295.466757 
L 168.200572 294.963973 
L 168.333111 295.35992 
L 168.53192 295.257312 
L 168.730729 295.387597 
L 169.724772 295.265462 
L 169.857311 295.415808 
L 170.05612 295.322815 
L 170.122389 295.296541 
L 170.321198 295.456907 
L 170.387468 295.44784 
L 170.453737 295.261751 
L 170.520007 295.404055 
L 170.785085 295.481499 
L 170.851354 295.310091 
L 170.983894 295.443392 
L 171.44778 295.363793 
L 171.58032 295.414707 
L 171.712859 295.412625 
L 171.977937 295.40723 
L 172.243015 295.310356 
L 172.839441 295.357865 
L 173.03825 295.388583 
L 173.104519 295.272547 
L 173.237058 295.44957 
L 173.435867 295.437828 
L 173.502137 295.313178 
L 173.634676 295.445869 
L 173.833484 295.423951 
L 173.899754 295.349045 
L 174.032293 295.461792 
L 174.164832 295.472601 
L 174.297371 295.231554 
L 174.49618 295.417821 
L 174.562449 295.457843 
L 174.628719 295.24499 
L 174.694989 295.468855 
L 174.761258 295.448136 
L 174.960067 295.320077 
L 175.026336 295.086861 
L 175.158875 295.415572 
L 175.755301 295.377117 
L 175.95411 295.429817 
L 176.086649 295.401017 
L 176.152919 295.19752 
L 176.285458 295.36344 
L 176.484267 295.446101 
L 176.550536 295.139382 
L 176.616806 295.346613 
L 176.815614 295.429206 
L 176.881884 295.165313 
L 176.948153 295.299418 
L 177.014423 295.412706 
L 177.080693 295.371573 
L 177.213232 295.374269 
L 177.279501 294.996376 
L 177.41204 295.361772 
L 177.610849 295.397758 
L 177.677119 295.238425 
L 177.743388 295.362148 
L 178.339814 295.42355 
L 178.406084 295.354014 
L 178.472353 295.430447 
L 179.135049 295.427339 
L 179.201318 295.253748 
L 179.333857 295.422164 
L 179.466396 295.409941 
L 179.532666 295.288389 
L 179.598936 295.388061 
L 179.797744 295.468537 
L 180.261631 295.456479 
L 180.327901 295.257125 
L 180.46044 295.460131 
L 180.592979 295.447567 
L 180.725518 295.307177 
L 180.791788 295.482312 
L 180.858057 295.444982 
L 180.990596 295.333114 
L 181.056866 295.146333 
L 181.123135 295.446862 
L 181.189405 295.417033 
L 181.388214 295.422549 
L 181.454483 295.193239 
L 181.587022 295.451977 
L 181.785831 295.403994 
L 181.8521 295.287933 
L 181.91837 295.377219 
L 182.117179 295.424777 
L 182.249718 295.375748 
L 182.448526 295.442637 
L 182.514796 295.415051 
L 182.581066 295.11714 
L 182.713605 295.388168 
L 183.243761 295.343811 
L 183.3763 295.242774 
L 183.508839 295.414039 
L 183.641378 295.400921 
L 183.773917 295.332967 
L 184.038996 295.393503 
L 184.105265 295.04116 
L 184.237804 295.349912 
L 184.436613 295.357154 
L 184.502883 295.213922 
L 184.635422 295.418176 
L 184.83423 295.331038 
L 184.9005 295.190308 
L 185.099309 295.416117 
L 185.165578 295.437174 
L 185.231848 295.164177 
L 185.430656 295.467346 
L 185.563195 295.435685 
L 185.629465 295.32931 
L 185.695735 295.393232 
L 185.894543 295.306087 
L 186.027082 295.14461 
L 186.093352 295.47956 
L 186.159621 295.431147 
L 187.485013 295.420965 
L 187.750091 295.437081 
L 188.479056 295.438092 
L 189.473099 295.450128 
L 191.925073 295.456802 
L 192.38896 295.45576 
L 192.455229 295.375806 
L 192.521499 295.464811 
L 193.383003 295.463766 
L 197.027828 295.454764 
L 200.407576 295.474508 
L 201.335349 295.460844 
L 214.788069 295.432542 
L 214.986877 295.474528 
L 216.378538 295.480603 
L 220.420981 295.476519 
L 220.61979 295.471282 
L 234.072509 295.470935 
L 234.138779 295.402153 
L 234.205048 295.478549 
L 236.325674 295.476676 
L 237.452256 295.47525 
L 237.717335 295.476361 
L 259.453748 295.475866 
L 260.182713 295.471008 
L 260.6466 295.473445 
L 269.59299 295.470992 
L 270.918381 295.475874 
L 271.581077 295.479474 
L 271.846155 295.484948 
L 281.057623 295.478603 
L 281.190162 295.475789 
L 288.9437 295.480445 
L 307.896792 295.482622 
L 398.487273 295.475278 
L 398.487273 295.475278 
" clip-path="url(#p4ff919d15b)" style="fill: none; stroke: #1f77b4; stroke-width: 1.5; stroke-linecap: square"/>
   </g>
   <g id="patch_3">
    <path d="M 57.6 307.584 
L 57.6 41.472 
" style="fill: none; stroke: #000000; stroke-width: 0.8; stroke-linejoin: miter; stroke-linecap: square"/>
   </g>
   <g id="patch_4">
    <path d="M 414.72 307.584 
L 414.72 41.472 
" style="fill: none; stroke: #000000; stroke-width: 0.8; stroke-linejoin: miter; stroke-linecap: square"/>
   </g>
   <g id="patch_5">
    <path d="M 57.6 307.584 
L 414.72 307.584 
" style="fill: none; stroke: #000000; stroke-width: 0.8; stroke-linejoin: miter; stroke-linecap: square"/>
   </g>
   <g id="patch_6">
    <path d="M 57.6 41.472 
L 414.72 41.472 
" style="fill: none; stroke: #000000; stroke-width: 0.8; stroke-linejoin: miter; stroke-linecap: square"/>
   </g>
   <g id="text_18">
    <text style="font: 12px 'IPAexGothic'; text-anchor: middle" x="236.16" y="35.472" transform="rotate(-0 236.16 35.472)">"077_A5.wav"の振幅スペクトル</text>
   </g>
  </g>
 </g>
 <defs>
  <clipPath id="p4ff919d15b">
   <rect x="57.6" y="41.472" width="357.12" height="266.112"/>
  </clipPath>
 </defs>
</svg>
