<?xml version="1.0" encoding="utf-8" standalone="no"?>
<!DOCTYPE svg PUBLIC "-//W3C//DTD SVG 1.1//EN"
  "http://www.w3.org/Graphics/SVG/1.1/DTD/svg11.dtd">
<svg xmlns:xlink="http://www.w3.org/1999/xlink" width="460.8pt" height="345.6pt" viewBox="0 0 460.8 345.6" xmlns="http://www.w3.org/2000/svg" version="1.1">
 <metadata>
  <rdf:RDF xmlns:dc="http://purl.org/dc/elements/1.1/" xmlns:cc="http://creativecommons.org/ns#" xmlns:rdf="http://www.w3.org/1999/02/22-rdf-syntax-ns#">
   <cc:Work>
    <dc:type rdf:resource="http://purl.org/dc/dcmitype/StillImage"/>
    <dc:date>2022-11-28T11:29:33.897894</dc:date>
    <dc:format>image/svg+xml</dc:format>
    <dc:creator>
     <cc:Agent>
      <dc:title>Matplotlib v3.6.2, https://matplotlib.org/</dc:title>
     </cc:Agent>
    </dc:creator>
   </cc:Work>
  </rdf:RDF>
 </metadata>
 <defs>
  <style type="text/css">*{stroke-linejoin: round; stroke-linecap: butt}</style>
 </defs>
 <g id="figure_1">
  <g id="patch_1">
   <path d="M 0 345.6 
L 460.8 345.6 
L 460.8 0 
L 0 0 
z
" style="fill: #ffffff"/>
  </g>
  <g id="axes_1">
   <g id="patch_2">
    <path d="M 57.6 307.584 
L 414.72 307.584 
L 414.72 41.472 
L 57.6 41.472 
z
" style="fill: #ffffff"/>
   </g>
   <g id="matplotlib.axis_1">
    <g id="xtick_1">
     <g id="line2d_1">
      <defs>
       <path id="m3c01c150fe" d="M 0 0 
L 0 3.5 
" style="stroke: #000000; stroke-width: 0.8"/>
      </defs>
      <g>
       <use xlink:href="#m3c01c150fe" x="73.832727" y="307.584" style="stroke: #000000; stroke-width: 0.8"/>
      </g>
     </g>
     <g id="text_1">
      <text style="font: 10px 'IPAexGothic'; text-anchor: middle" x="73.832727" y="322.074625" transform="rotate(-0 73.832727 322.074625)">0</text>
     </g>
    </g>
    <g id="xtick_2">
     <g id="line2d_2">
      <g>
       <use xlink:href="#m3c01c150fe" x="140.102281" y="307.584" style="stroke: #000000; stroke-width: 0.8"/>
      </g>
     </g>
     <g id="text_2">
      <text style="font: 10px 'IPAexGothic'; text-anchor: middle" x="140.102281" y="322.074625" transform="rotate(-0 140.102281 322.074625)">1000</text>
     </g>
    </g>
    <g id="xtick_3">
     <g id="line2d_3">
      <g>
       <use xlink:href="#m3c01c150fe" x="206.371835" y="307.584" style="stroke: #000000; stroke-width: 0.8"/>
      </g>
     </g>
     <g id="text_3">
      <text style="font: 10px 'IPAexGothic'; text-anchor: middle" x="206.371835" y="322.074625" transform="rotate(-0 206.371835 322.074625)">2000</text>
     </g>
    </g>
    <g id="xtick_4">
     <g id="line2d_4">
      <g>
       <use xlink:href="#m3c01c150fe" x="272.64139" y="307.584" style="stroke: #000000; stroke-width: 0.8"/>
      </g>
     </g>
     <g id="text_4">
      <text style="font: 10px 'IPAexGothic'; text-anchor: middle" x="272.64139" y="322.074625" transform="rotate(-0 272.64139 322.074625)">3000</text>
     </g>
    </g>
    <g id="xtick_5">
     <g id="line2d_5">
      <g>
       <use xlink:href="#m3c01c150fe" x="338.910944" y="307.584" style="stroke: #000000; stroke-width: 0.8"/>
      </g>
     </g>
     <g id="text_5">
      <text style="font: 10px 'IPAexGothic'; text-anchor: middle" x="338.910944" y="322.074625" transform="rotate(-0 338.910944 322.074625)">4000</text>
     </g>
    </g>
    <g id="xtick_6">
     <g id="line2d_6">
      <g>
       <use xlink:href="#m3c01c150fe" x="405.180498" y="307.584" style="stroke: #000000; stroke-width: 0.8"/>
      </g>
     </g>
     <g id="text_6">
      <text style="font: 10px 'IPAexGothic'; text-anchor: middle" x="405.180498" y="322.074625" transform="rotate(-0 405.180498 322.074625)">5000</text>
     </g>
    </g>
    <g id="text_7">
     <text style="font: 10px 'IPAexGothic'; text-anchor: middle" x="236.16" y="335.924625" transform="rotate(-0 236.16 335.924625)">周波数[Hz]</text>
    </g>
   </g>
   <g id="matplotlib.axis_2">
    <g id="ytick_1">
     <g id="line2d_7">
      <defs>
       <path id="mdf98c79e13" d="M 0 0 
L -3.5 0 
" style="stroke: #000000; stroke-width: 0.8"/>
      </defs>
      <g>
       <use xlink:href="#mdf98c79e13" x="57.6" y="295.48814" style="stroke: #000000; stroke-width: 0.8"/>
      </g>
     </g>
     <g id="text_8">
      <text style="font: 10px 'IPAexGothic'; text-anchor: end" x="50.6" y="299.233452" transform="rotate(-0 50.6 299.233452)">0</text>
     </g>
    </g>
    <g id="ytick_2">
     <g id="line2d_8">
      <g>
       <use xlink:href="#mdf98c79e13" x="57.6" y="261.875997" style="stroke: #000000; stroke-width: 0.8"/>
      </g>
     </g>
     <g id="text_9">
      <text style="font: 10px 'IPAexGothic'; text-anchor: end" x="50.6" y="265.62131" transform="rotate(-0 50.6 265.62131)">1</text>
     </g>
    </g>
    <g id="ytick_3">
     <g id="line2d_9">
      <g>
       <use xlink:href="#mdf98c79e13" x="57.6" y="228.263855" style="stroke: #000000; stroke-width: 0.8"/>
      </g>
     </g>
     <g id="text_10">
      <text style="font: 10px 'IPAexGothic'; text-anchor: end" x="50.6" y="232.009168" transform="rotate(-0 50.6 232.009168)">2</text>
     </g>
    </g>
    <g id="ytick_4">
     <g id="line2d_10">
      <g>
       <use xlink:href="#mdf98c79e13" x="57.6" y="194.651713" style="stroke: #000000; stroke-width: 0.8"/>
      </g>
     </g>
     <g id="text_11">
      <text style="font: 10px 'IPAexGothic'; text-anchor: end" x="50.6" y="198.397026" transform="rotate(-0 50.6 198.397026)">3</text>
     </g>
    </g>
    <g id="ytick_5">
     <g id="line2d_11">
      <g>
       <use xlink:href="#mdf98c79e13" x="57.6" y="161.039571" style="stroke: #000000; stroke-width: 0.8"/>
      </g>
     </g>
     <g id="text_12">
      <text style="font: 10px 'IPAexGothic'; text-anchor: end" x="50.6" y="164.784884" transform="rotate(-0 50.6 164.784884)">4</text>
     </g>
    </g>
    <g id="ytick_6">
     <g id="line2d_12">
      <g>
       <use xlink:href="#mdf98c79e13" x="57.6" y="127.427429" style="stroke: #000000; stroke-width: 0.8"/>
      </g>
     </g>
     <g id="text_13">
      <text style="font: 10px 'IPAexGothic'; text-anchor: end" x="50.6" y="131.172742" transform="rotate(-0 50.6 131.172742)">5</text>
     </g>
    </g>
    <g id="ytick_7">
     <g id="line2d_13">
      <g>
       <use xlink:href="#mdf98c79e13" x="57.6" y="93.815287" style="stroke: #000000; stroke-width: 0.8"/>
      </g>
     </g>
     <g id="text_14">
      <text style="font: 10px 'IPAexGothic'; text-anchor: end" x="50.6" y="97.5606" transform="rotate(-0 50.6 97.5606)">6</text>
     </g>
    </g>
    <g id="ytick_8">
     <g id="line2d_14">
      <g>
       <use xlink:href="#mdf98c79e13" x="57.6" y="60.203145" style="stroke: #000000; stroke-width: 0.8"/>
      </g>
     </g>
     <g id="text_15">
      <text style="font: 10px 'IPAexGothic'; text-anchor: end" x="50.6" y="63.948458" transform="rotate(-0 50.6 63.948458)">7</text>
     </g>
    </g>
    <g id="text_16">
     <text style="font: 10px 'IPAexGothic'; text-anchor: middle" x="38.401563" y="174.528" transform="rotate(-90 38.401563 174.528)">振幅</text>
    </g>
    <g id="text_17">
     <text style="font: 10px 'IPAexGothic'; text-anchor: start" x="57.6" y="38.472" transform="rotate(-0 57.6 38.472)">1e7</text>
    </g>
   </g>
   <g id="line2d_15">
    <path d="M 73.832727 291.742473 
L 73.965266 295.209712 
L 74.296614 295.233678 
L 74.760501 295.311514 
L 75.622005 295.39764 
L 76.549779 295.430457 
L 78.802944 295.402176 
L 80.658491 295.418226 
L 112.467877 295.325008 
L 112.931764 295.328697 
L 115.913894 295.414438 
L 115.980164 295.154447 
L 116.046433 295.285904 
L 116.377781 295.315273 
L 116.974207 295.28972 
L 122.342041 295.226329 
L 122.47458 295.247687 
L 123.269815 295.241935 
L 123.601162 295.194408 
L 123.733701 295.206332 
L 124.131319 295.159879 
L 124.661475 295.140528 
L 125.655519 295.095472 
L 125.788058 295.044178 
L 126.119405 295.089103 
L 126.384484 295.152408 
L 126.782101 295.200922 
L 127.312257 295.228663 
L 127.378527 295.414826 
L 127.511066 295.142162 
L 127.709875 295.056032 
L 128.107492 294.737404 
L 128.173762 294.852013 
L 128.306301 294.817861 
L 128.571379 294.474196 
L 128.637648 294.559101 
L 128.703918 294.539661 
L 128.902727 293.570545 
L 129.035266 294.235036 
L 129.167805 293.813449 
L 129.300344 293.954923 
L 129.499153 293.710638 
L 129.697961 293.059627 
L 129.764231 293.550566 
L 129.8305 292.828273 
L 129.89677 292.922643 
L 129.96304 292.951247 
L 130.029309 293.252179 
L 130.161848 292.207729 
L 130.228118 292.390155 
L 130.426926 292.318356 
L 130.493196 291.523981 
L 130.559466 291.979605 
L 130.625735 291.756066 
L 130.692005 292.194429 
L 130.758274 291.789055 
L 130.824544 292.139606 
L 130.890813 291.546601 
L 130.957083 291.679173 
L 131.023352 291.975839 
L 131.089622 291.798692 
L 131.288431 290.780073 
L 131.3547 291.592084 
L 131.619778 288.530833 
L 131.752318 283.847287 
L 131.818587 291.13807 
L 131.884857 291.070771 
L 132.083665 277.669184 
L 132.149935 53.568 
L 132.282474 282.120347 
L 132.415013 291.097374 
L 132.481283 290.406787 
L 132.547552 283.698558 
L 132.613822 293.549384 
L 132.680091 293.51228 
L 132.746361 292.322978 
L 132.81263 292.341983 
L 133.011439 293.811285 
L 133.077709 292.443919 
L 133.143978 293.135364 
L 133.210248 292.844047 
L 133.276517 293.53963 
L 133.342787 292.51803 
L 133.409056 293.926849 
L 133.475326 293.909409 
L 133.541596 293.732662 
L 133.674135 294.029197 
L 133.806674 294.071463 
L 133.872943 293.691515 
L 133.939213 293.736313 
L 134.005482 293.709523 
L 134.138021 293.231199 
L 134.270561 293.141286 
L 134.33683 293.273447 
L 134.469369 293.73906 
L 134.535639 293.611385 
L 134.601908 293.857601 
L 134.668178 293.753213 
L 134.734447 293.858405 
L 134.800717 294.213807 
L 134.866987 294.160623 
L 135.198334 294.098301 
L 135.264604 293.770403 
L 135.330873 293.887213 
L 135.397143 293.805829 
L 135.463413 294.665187 
L 135.529682 294.461087 
L 135.728491 294.38903 
L 135.993569 294.841849 
L 136.589995 294.846338 
L 136.921343 295.013355 
L 137.584038 295.17646 
L 137.782847 295.181201 
L 138.313003 295.216224 
L 138.578082 295.313018 
L 138.644351 294.728541 
L 138.77689 295.183434 
L 139.174508 295.149244 
L 139.638394 295.127953 
L 140.36736 295.235941 
L 141.096325 295.24929 
L 141.560212 295.236486 
L 141.692751 295.197586 
L 141.82529 294.823644 
L 141.891559 294.924193 
L 141.957829 295.460455 
L 142.024098 295.32904 
L 142.421716 295.29449 
L 143.21695 295.2729 
L 144.343533 295.310953 
L 144.873689 295.329301 
L 145.072498 295.339852 
L 145.138767 295.142112 
L 145.337576 295.358452 
L 146.861776 295.352812 
L 147.72328 295.324318 
L 148.253437 295.29592 
L 148.319706 295.190702 
L 148.452245 295.386634 
L 148.916132 295.37522 
L 149.313749 295.420586 
L 149.711367 295.377519 
L 151.566914 295.400691 
L 151.699453 295.327373 
L 152.958575 295.412589 
L 154.747853 295.392352 
L 154.880392 295.368274 
L 157.531174 295.443391 
L 157.995061 295.416737 
L 158.061331 295.230384 
L 158.1276 295.344076 
L 158.458948 295.410393 
L 159.254182 295.395092 
L 160.579574 295.433506 
L 164.02559 295.413558 
L 164.489477 295.461739 
L 164.555747 295.18037 
L 164.688286 295.447045 
L 168.664459 295.437681 
L 170.917624 295.433828 
L 171.381511 295.431978 
L 172.176746 295.43661 
L 174.164832 295.44093 
L 174.363641 295.454706 
L 175.026336 295.445215 
L 177.345771 295.454251 
L 178.008466 295.443566 
L 180.659248 295.389066 
L 180.725518 295.219269 
L 180.924327 295.452852 
L 182.117179 295.456124 
L 187.153665 295.479742 
L 187.219934 295.272739 
L 187.286204 295.413514 
L 187.81636 295.476916 
L 189.870716 295.430461 
L 190.400873 295.333767 
L 190.467142 293.66177 
L 190.533412 295.377746 
L 190.599682 295.335092 
L 190.997299 295.430539 
L 192.587768 295.453097 
L 193.648081 295.475088 
L 193.714351 295.253804 
L 193.84689 295.456543 
L 195.437359 295.451629 
L 196.895289 295.411434 
L 196.961559 295.312152 
L 197.094098 295.468541 
L 206.438105 295.450421 
L 206.570644 295.392895 
L 206.636914 295.26535 
L 206.703183 295.314776 
L 206.901992 295.459492 
L 213.06506 295.454811 
L 213.13133 295.353665 
L 213.1976 295.415396 
L 213.661486 295.460607 
L 216.312269 295.451331 
L 216.378538 295.247319 
L 216.511077 295.457248 
L 217.306312 295.472076 
L 219.559477 295.467373 
L 219.625746 295.333266 
L 219.758285 295.463013 
L 221.415024 295.480344 
L 222.806685 295.460105 
L 222.872954 295.398918 
L 222.939224 295.48262 
L 224.529693 295.466954 
L 226.053893 295.424851 
L 226.120163 295.242603 
L 226.318971 295.486005 
L 227.578093 295.464717 
L 229.301101 295.424726 
L 229.367371 295.352037 
L 229.43364 295.439014 
L 230.030066 295.483426 
L 230.825301 295.472505 
L 232.41577 295.452434 
L 232.879657 295.46777 
L 234.536396 295.466198 
L 235.729248 295.41841 
L 235.861787 295.28406 
L 236.060596 295.46041 
L 236.9221 295.462077 
L 238.976456 295.405779 
L 239.042726 295.221554 
L 239.241534 295.456719 
L 242.223664 295.449567 
L 242.356203 295.456824 
L 245.470872 295.442226 
L 245.537142 295.357185 
L 245.603411 295.420312 
L 245.80222 295.437327 
L 248.187924 295.130663 
L 248.320463 294.75994 
L 248.386733 294.176629 
L 248.519272 295.38013 
L 248.71808 295.149845 
L 248.78435 283.954511 
L 248.85062 295.160421 
L 248.916889 294.974716 
L 248.983159 294.929302 
L 249.049428 295.080276 
L 249.181967 294.933986 
L 249.645854 295.414309 
L 249.977202 295.365283 
L 250.176011 295.434541 
L 250.706167 295.413482 
L 252.362906 295.411366 
L 252.561715 295.445962 
L 255.146227 295.471909 
L 255.212497 295.422588 
L 255.278766 295.216142 
L 255.411305 295.449969 
L 255.742653 295.458566 
L 257.995818 295.482693 
L 258.525975 295.271895 
L 258.658514 295.474402 
L 261.574374 295.469538 
L 262.435878 295.477571 
L 264.821582 295.473074 
L 265.219199 295.456714 
L 266.345782 295.484242 
L 268.13506 295.469965 
L 268.267599 295.416036 
L 268.598947 295.470688 
L 269.062834 295.468396 
L 271.382268 295.448943 
L 271.448538 295.25395 
L 271.514807 295.398717 
L 271.846155 295.475029 
L 272.243772 295.465963 
L 274.629476 295.470761 
L 274.695746 295.203542 
L 274.828285 295.440681 
L 275.689789 295.475003 
L 277.876684 295.468111 
L 277.942954 295.319197 
L 278.075493 295.469937 
L 279.732232 295.476548 
L 281.123892 295.460416 
L 281.190162 295.267717 
L 281.322701 295.466415 
L 281.852858 295.469085 
L 284.371101 295.428579 
L 284.43737 295.354604 
L 284.569909 295.481682 
L 285.8953 295.45592 
L 286.955613 295.4737 
L 287.618309 295.395794 
L 287.684578 295.316892 
L 287.883387 295.474984 
L 290.732978 295.4651 
L 291.130595 295.481012 
L 294.046455 295.464573 
L 294.178995 295.389458 
L 294.444073 295.4768 
L 295.968273 295.47635 
L 297.293664 295.440912 
L 297.359933 295.315283 
L 297.426203 295.41271 
L 297.691281 295.470085 
L 298.420246 295.479303 
L 301.269837 295.483217 
L 303.78808 295.457235 
L 303.854349 295.268615 
L 303.986889 295.468328 
L 307.035288 295.429784 
L 307.101558 294.748512 
L 307.167827 295.485698 
L 307.234097 295.459818 
L 312.270583 295.482058 
L 316.710643 295.465799 
L 316.975721 295.474791 
L 318.168573 295.476399 
L 324.662989 295.48242 
L 326.452267 295.466943 
L 326.584807 295.416143 
L 326.849885 295.471601 
L 328.109006 295.476083 
L 329.699476 295.44736 
L 329.765745 295.21711 
L 329.832015 295.384769 
L 330.030823 295.455653 
L 332.946684 295.483155 
L 333.012953 295.303977 
L 333.079223 295.419423 
L 333.47684 295.469816 
L 334.272075 295.46874 
L 339.904987 295.476727 
L 341.164108 295.482131 
L 343.549812 295.477902 
L 349.050185 295.469453 
L 349.381533 295.467018 
L 349.977959 295.475311 
L 351.104542 295.485994 
L 353.622785 295.48096 
L 357.598958 295.477769 
L 358.858079 295.465273 
L 358.924349 295.333558 
L 358.990618 295.44337 
L 359.321966 295.464109 
L 360.24974 295.48139 
L 364.888609 295.404968 
L 365.021148 295.226144 
L 365.153687 295.460144 
L 365.352496 295.347963 
L 365.418765 294.363042 
L 365.485035 295.458698 
L 365.551304 295.453344 
L 365.882652 295.383154 
L 366.081461 295.468158 
L 366.611617 295.465226 
L 367.075504 295.484674 
L 371.846912 295.45329 
L 372.045721 295.478968 
L 374.100077 295.48231 
L 384.504397 295.483889 
L 398.487273 295.484807 
L 398.487273 295.484807 
" clip-path="url(#p731a084f1a)" style="fill: none; stroke: #1f77b4; stroke-width: 1.5; stroke-linecap: square"/>
   </g>
   <g id="patch_3">
    <path d="M 57.6 307.584 
L 57.6 41.472 
" style="fill: none; stroke: #000000; stroke-width: 0.8; stroke-linejoin: miter; stroke-linecap: square"/>
   </g>
   <g id="patch_4">
    <path d="M 414.72 307.584 
L 414.72 41.472 
" style="fill: none; stroke: #000000; stroke-width: 0.8; stroke-linejoin: miter; stroke-linecap: square"/>
   </g>
   <g id="patch_5">
    <path d="M 57.6 307.584 
L 414.72 307.584 
" style="fill: none; stroke: #000000; stroke-width: 0.8; stroke-linejoin: miter; stroke-linecap: square"/>
   </g>
   <g id="patch_6">
    <path d="M 57.6 41.472 
L 414.72 41.472 
" style="fill: none; stroke: #000000; stroke-width: 0.8; stroke-linejoin: miter; stroke-linecap: square"/>
   </g>
   <g id="text_18">
    <text style="font: 12px 'IPAexGothic'; text-anchor: middle" x="236.16" y="35.472" transform="rotate(-0 236.16 35.472)">"080_A5.wav"の振幅スペクトル</text>
   </g>
  </g>
 </g>
 <defs>
  <clipPath id="p731a084f1a">
   <rect x="57.6" y="41.472" width="357.12" height="266.112"/>
  </clipPath>
 </defs>
</svg>
