<?xml version="1.0" encoding="utf-8" standalone="no"?>
<!DOCTYPE svg PUBLIC "-//W3C//DTD SVG 1.1//EN"
  "http://www.w3.org/Graphics/SVG/1.1/DTD/svg11.dtd">
<svg xmlns:xlink="http://www.w3.org/1999/xlink" width="460.8pt" height="345.6pt" viewBox="0 0 460.8 345.6" xmlns="http://www.w3.org/2000/svg" version="1.1">
 <metadata>
  <rdf:RDF xmlns:dc="http://purl.org/dc/elements/1.1/" xmlns:cc="http://creativecommons.org/ns#" xmlns:rdf="http://www.w3.org/1999/02/22-rdf-syntax-ns#">
   <cc:Work>
    <dc:type rdf:resource="http://purl.org/dc/dcmitype/StillImage"/>
    <dc:date>2022-11-28T12:38:27.800153</dc:date>
    <dc:format>image/svg+xml</dc:format>
    <dc:creator>
     <cc:Agent>
      <dc:title>Matplotlib v3.6.2, https://matplotlib.org/</dc:title>
     </cc:Agent>
    </dc:creator>
   </cc:Work>
  </rdf:RDF>
 </metadata>
 <defs>
  <style type="text/css">*{stroke-linejoin: round; stroke-linecap: butt}</style>
 </defs>
 <g id="figure_1">
  <g id="patch_1">
   <path d="M 0 345.6 
L 460.8 345.6 
L 460.8 0 
L 0 0 
z
" style="fill: #ffffff"/>
  </g>
  <g id="axes_1">
   <g id="patch_2">
    <path d="M 57.6 307.584 
L 414.72 307.584 
L 414.72 41.472 
L 57.6 41.472 
z
" style="fill: #ffffff"/>
   </g>
   <g id="matplotlib.axis_1">
    <g id="xtick_1">
     <g id="line2d_1">
      <defs>
       <path id="maefcba7380" d="M 0 0 
L 0 3.5 
" style="stroke: #000000; stroke-width: 0.8"/>
      </defs>
      <g>
       <use xlink:href="#maefcba7380" x="73.832727" y="307.584" style="stroke: #000000; stroke-width: 0.8"/>
      </g>
     </g>
     <g id="text_1">
      <text style="font: 10px 'IPAexGothic'; text-anchor: middle" x="73.832727" y="322.074625" transform="rotate(-0 73.832727 322.074625)">0</text>
     </g>
    </g>
    <g id="xtick_2">
     <g id="line2d_2">
      <g>
       <use xlink:href="#maefcba7380" x="140.102281" y="307.584" style="stroke: #000000; stroke-width: 0.8"/>
      </g>
     </g>
     <g id="text_2">
      <text style="font: 10px 'IPAexGothic'; text-anchor: middle" x="140.102281" y="322.074625" transform="rotate(-0 140.102281 322.074625)">1000</text>
     </g>
    </g>
    <g id="xtick_3">
     <g id="line2d_3">
      <g>
       <use xlink:href="#maefcba7380" x="206.371835" y="307.584" style="stroke: #000000; stroke-width: 0.8"/>
      </g>
     </g>
     <g id="text_3">
      <text style="font: 10px 'IPAexGothic'; text-anchor: middle" x="206.371835" y="322.074625" transform="rotate(-0 206.371835 322.074625)">2000</text>
     </g>
    </g>
    <g id="xtick_4">
     <g id="line2d_4">
      <g>
       <use xlink:href="#maefcba7380" x="272.64139" y="307.584" style="stroke: #000000; stroke-width: 0.8"/>
      </g>
     </g>
     <g id="text_4">
      <text style="font: 10px 'IPAexGothic'; text-anchor: middle" x="272.64139" y="322.074625" transform="rotate(-0 272.64139 322.074625)">3000</text>
     </g>
    </g>
    <g id="xtick_5">
     <g id="line2d_5">
      <g>
       <use xlink:href="#maefcba7380" x="338.910944" y="307.584" style="stroke: #000000; stroke-width: 0.8"/>
      </g>
     </g>
     <g id="text_5">
      <text style="font: 10px 'IPAexGothic'; text-anchor: middle" x="338.910944" y="322.074625" transform="rotate(-0 338.910944 322.074625)">4000</text>
     </g>
    </g>
    <g id="xtick_6">
     <g id="line2d_6">
      <g>
       <use xlink:href="#maefcba7380" x="405.180498" y="307.584" style="stroke: #000000; stroke-width: 0.8"/>
      </g>
     </g>
     <g id="text_6">
      <text style="font: 10px 'IPAexGothic'; text-anchor: middle" x="405.180498" y="322.074625" transform="rotate(-0 405.180498 322.074625)">5000</text>
     </g>
    </g>
    <g id="text_7">
     <text style="font: 10px 'IPAexGothic'; text-anchor: middle" x="236.16" y="335.924625" transform="rotate(-0 236.16 335.924625)">周波数[Hz]</text>
    </g>
   </g>
   <g id="matplotlib.axis_2">
    <g id="ytick_1">
     <g id="line2d_7">
      <defs>
       <path id="mfe5afcc013" d="M 0 0 
L -3.5 0 
" style="stroke: #000000; stroke-width: 0.8"/>
      </defs>
      <g>
       <use xlink:href="#mfe5afcc013" x="57.6" y="295.488164" style="stroke: #000000; stroke-width: 0.8"/>
      </g>
     </g>
     <g id="text_8">
      <text style="font: 10px 'IPAexGothic'; text-anchor: end" x="50.6" y="299.233476" transform="rotate(-0 50.6 299.233476)">0.0</text>
     </g>
    </g>
    <g id="ytick_2">
     <g id="line2d_8">
      <g>
       <use xlink:href="#mfe5afcc013" x="57.6" y="259.825343" style="stroke: #000000; stroke-width: 0.8"/>
      </g>
     </g>
     <g id="text_9">
      <text style="font: 10px 'IPAexGothic'; text-anchor: end" x="50.6" y="263.570655" transform="rotate(-0 50.6 263.570655)">0.5</text>
     </g>
    </g>
    <g id="ytick_3">
     <g id="line2d_9">
      <g>
       <use xlink:href="#mfe5afcc013" x="57.6" y="224.162522" style="stroke: #000000; stroke-width: 0.8"/>
      </g>
     </g>
     <g id="text_10">
      <text style="font: 10px 'IPAexGothic'; text-anchor: end" x="50.6" y="227.907834" transform="rotate(-0 50.6 227.907834)">1.0</text>
     </g>
    </g>
    <g id="ytick_4">
     <g id="line2d_10">
      <g>
       <use xlink:href="#mfe5afcc013" x="57.6" y="188.4997" style="stroke: #000000; stroke-width: 0.8"/>
      </g>
     </g>
     <g id="text_11">
      <text style="font: 10px 'IPAexGothic'; text-anchor: end" x="50.6" y="192.245013" transform="rotate(-0 50.6 192.245013)">1.5</text>
     </g>
    </g>
    <g id="ytick_5">
     <g id="line2d_11">
      <g>
       <use xlink:href="#mfe5afcc013" x="57.6" y="152.836879" style="stroke: #000000; stroke-width: 0.8"/>
      </g>
     </g>
     <g id="text_12">
      <text style="font: 10px 'IPAexGothic'; text-anchor: end" x="50.6" y="156.582192" transform="rotate(-0 50.6 156.582192)">2.0</text>
     </g>
    </g>
    <g id="ytick_6">
     <g id="line2d_12">
      <g>
       <use xlink:href="#mfe5afcc013" x="57.6" y="117.174058" style="stroke: #000000; stroke-width: 0.8"/>
      </g>
     </g>
     <g id="text_13">
      <text style="font: 10px 'IPAexGothic'; text-anchor: end" x="50.6" y="120.919371" transform="rotate(-0 50.6 120.919371)">2.5</text>
     </g>
    </g>
    <g id="ytick_7">
     <g id="line2d_13">
      <g>
       <use xlink:href="#mfe5afcc013" x="57.6" y="81.511237" style="stroke: #000000; stroke-width: 0.8"/>
      </g>
     </g>
     <g id="text_14">
      <text style="font: 10px 'IPAexGothic'; text-anchor: end" x="50.6" y="85.25655" transform="rotate(-0 50.6 85.25655)">3.0</text>
     </g>
    </g>
    <g id="ytick_8">
     <g id="line2d_14">
      <g>
       <use xlink:href="#mfe5afcc013" x="57.6" y="45.848416" style="stroke: #000000; stroke-width: 0.8"/>
      </g>
     </g>
     <g id="text_15">
      <text style="font: 10px 'IPAexGothic'; text-anchor: end" x="50.6" y="49.593728" transform="rotate(-0 50.6 49.593728)">3.5</text>
     </g>
    </g>
    <g id="text_16">
     <text style="font: 10px 'IPAexGothic'; text-anchor: middle" x="29.460938" y="174.528" transform="rotate(-90 29.460938 174.528)">振幅</text>
    </g>
    <g id="text_17">
     <text style="font: 10px 'IPAexGothic'; text-anchor: start" x="57.6" y="38.472" transform="rotate(-0 57.6 38.472)">1e7</text>
    </g>
   </g>
   <g id="line2d_15">
    <path d="M 73.832727 293.068513 
L 74.031536 295.244971 
L 74.495423 294.550692 
L 74.760501 294.029457 
L 74.826771 294.101156 
L 74.95931 293.999102 
L 75.091849 294.390706 
L 75.158118 295.06682 
L 75.224388 294.773652 
L 75.489466 293.419271 
L 75.555736 293.936373 
L 75.754544 292.689905 
L 75.953353 293.34283 
L 76.284701 293.585605 
L 76.35097 293.561675 
L 76.682318 290.960454 
L 76.748588 291.036199 
L 76.947396 288.457314 
L 77.013666 288.844269 
L 77.278744 277.184632 
L 77.345014 265.377863 
L 77.411283 221.995816 
L 77.477553 53.568 
L 77.676361 273.437895 
L 77.87517 285.098464 
L 78.405327 290.383466 
L 78.471596 290.283603 
L 78.537866 291.111152 
L 78.604135 290.942335 
L 78.935483 292.044347 
L 79.001752 292.071077 
L 79.068022 291.738142 
L 79.134292 292.10627 
L 79.200561 291.807379 
L 79.266831 292.017512 
L 79.3331 292.319845 
L 79.39937 292.253174 
L 79.465639 292.0477 
L 79.531909 292.718891 
L 79.598178 292.456775 
L 79.796987 292.322845 
L 79.995796 292.328493 
L 80.062065 292.557458 
L 80.128335 292.271388 
L 80.194604 292.357002 
L 80.327144 292.241728 
L 80.393413 291.710841 
L 80.459683 292.093619 
L 80.525952 291.866725 
L 80.592222 291.355162 
L 80.658491 291.989672 
L 80.724761 291.746463 
L 80.79103 291.406356 
L 80.92357 287.137569 
L 81.056109 278.381552 
L 81.122378 256.730249 
L 81.188648 170.061843 
L 81.321187 280.66786 
L 81.387456 288.825147 
L 81.453726 288.577732 
L 81.586265 293.174022 
L 81.652535 291.581598 
L 81.851343 294.296848 
L 81.917613 294.371321 
L 82.050152 294.148103 
L 82.116422 294.910267 
L 82.182691 294.814376 
L 82.31523 294.190216 
L 82.3815 294.840343 
L 82.447769 294.690071 
L 82.514039 294.594866 
L 82.646578 293.917904 
L 82.712848 294.172292 
L 82.779117 294.705749 
L 82.911656 294.142843 
L 82.977926 294.354804 
L 83.044195 294.045298 
L 83.110465 294.255851 
L 83.176734 294.38614 
L 83.309274 293.428973 
L 83.441813 294.115572 
L 83.508082 294.089692 
L 83.640621 293.471199 
L 83.706891 293.996913 
L 83.77316 293.967645 
L 83.905699 293.441746 
L 84.038239 293.480739 
L 84.104508 293.391756 
L 84.170778 293.816735 
L 84.303317 292.555083 
L 84.369586 292.922967 
L 84.435856 292.936183 
L 84.502125 292.569159 
L 84.700934 287.566711 
L 84.767204 269.944177 
L 84.833473 273.049091 
L 84.966012 293.701871 
L 85.231091 295.340698 
L 85.29736 295.266497 
L 85.429899 295.02464 
L 85.562438 295.024058 
L 85.694977 294.771722 
L 85.827517 294.989434 
L 86.026325 294.803952 
L 86.092595 294.810915 
L 86.158864 294.625 
L 86.291403 295.045331 
L 86.423943 294.703253 
L 86.556482 294.981331 
L 86.622751 294.776777 
L 86.887829 294.955518 
L 87.152908 294.800989 
L 87.285447 295.106625 
L 87.417986 294.938192 
L 87.550525 295.097998 
L 87.948142 295.016577 
L 88.146951 295.097637 
L 88.34576 294.664772 
L 88.478299 284.47766 
L 88.610838 295.110183 
L 88.677107 294.999602 
L 88.743377 295.069602 
L 88.875916 295.327279 
L 88.942186 295.236871 
L 89.008455 295.43652 
L 89.207264 295.058407 
L 89.406072 295.342874 
L 89.538612 294.982744 
L 89.73742 295.245133 
L 89.80369 295.239299 
L 89.869959 295.079461 
L 89.936229 295.113269 
L 90.002498 295.243946 
L 90.068768 295.172865 
L 90.135038 294.849591 
L 90.201307 295.153583 
L 90.267577 295.022766 
L 90.400116 295.238856 
L 90.665194 295.087437 
L 90.797733 294.814595 
L 90.930272 295.276356 
L 90.996542 295.184242 
L 91.062811 295.285148 
L 91.26162 295.151403 
L 91.394159 295.107717 
L 91.526698 295.122666 
L 91.592968 295.278067 
L 91.659237 295.241482 
L 91.725507 295.165963 
L 91.791776 295.243648 
L 91.990585 295.168484 
L 92.123124 293.57508 
L 92.321933 294.941121 
L 92.454472 295.02219 
L 92.653281 295.063351 
L 92.78582 295.083312 
L 92.852089 295.167749 
L 92.918359 295.093423 
L 93.249707 295.158922 
L 93.382246 295.045799 
L 93.647324 295.26659 
L 93.846133 295.086205 
L 94.111211 295.315497 
L 94.310019 295.123146 
L 94.773906 295.197238 
L 94.906445 295.244478 
L 95.038985 295.299553 
L 95.304063 295.215663 
L 95.502871 295.296276 
L 95.569141 295.254016 
L 95.70168 295.465946 
L 95.76795 295.008259 
L 95.834219 295.236131 
L 95.966758 295.373024 
L 96.033028 295.259721 
L 96.165567 295.380312 
L 96.496915 295.372765 
L 96.563184 295.434623 
L 96.629454 295.363002 
L 97.358419 295.411674 
L 97.623497 295.356317 
L 97.954845 295.35186 
L 98.087384 295.375138 
L 98.286193 295.324806 
L 98.418732 295.311977 
L 98.485001 295.405143 
L 98.551271 295.337555 
L 98.75008 295.383485 
L 99.015158 295.268585 
L 99.346506 295.181597 
L 99.412775 295.399171 
L 99.479045 295.307849 
L 99.744123 295.323889 
L 100.274279 295.218041 
L 100.406818 295.27948 
L 100.605627 295.270187 
L 100.738166 295.22727 
L 101.069514 295.340238 
L 101.268323 295.253989 
L 101.467131 295.292577 
L 101.73221 295.225827 
L 105.244496 295.455745 
L 105.377035 295.468018 
L 105.840922 295.468574 
L 106.039731 295.331909 
L 106.238539 295.412577 
L 106.636157 295.322762 
L 106.768696 295.423911 
L 107.298852 295.319692 
L 107.497661 295.350901 
L 107.6302 295.259083 
L 107.762739 295.096493 
L 107.961548 295.345109 
L 108.094087 295.224402 
L 108.226626 295.199258 
L 108.624243 295.22465 
L 108.955591 295.227274 
L 109.220669 295.070135 
L 109.419478 295.231291 
L 109.552017 295.132227 
L 109.618286 295.169208 
L 109.684556 295.07325 
L 109.750826 295.119814 
L 109.817095 295.19929 
L 109.883365 295.123887 
L 110.54606 295.05785 
L 110.61233 295.129121 
L 110.678599 295.044521 
L 110.943678 295.128159 
L 111.407564 294.995716 
L 111.540104 295.120675 
L 111.672643 294.885265 
L 111.738912 295.153781 
L 111.805182 295.094691 
L 112.00399 295.027681 
L 112.732956 294.895997 
L 112.998034 295.12947 
L 113.064303 295.108042 
L 113.130573 294.868335 
L 113.196842 294.92148 
L 113.263112 294.92801 
L 113.329382 294.736757 
L 113.461921 294.909361 
L 113.59446 294.677267 
L 113.726999 294.79101 
L 113.992077 294.16602 
L 114.124616 293.917434 
L 114.190886 290.622841 
L 114.257155 293.647775 
L 114.323425 293.419877 
L 114.389694 293.943996 
L 114.455964 293.746377 
L 114.654773 294.666657 
L 114.721042 294.560009 
L 114.787312 294.587116 
L 114.853581 294.338142 
L 114.919851 294.47572 
L 114.98612 294.981313 
L 115.05239 294.90803 
L 115.251199 294.728581 
L 115.317468 294.87854 
L 115.383738 294.741241 
L 115.450007 294.788802 
L 115.516277 294.899951 
L 115.582546 294.838719 
L 115.648816 294.769523 
L 115.715085 294.835146 
L 115.847625 294.899035 
L 115.980164 294.745588 
L 116.046433 294.9861 
L 116.112703 294.881491 
L 116.245242 294.816902 
L 116.311511 294.943233 
L 116.377781 294.813535 
L 116.444051 294.847645 
L 116.57659 294.951522 
L 116.642859 294.796235 
L 116.709129 294.849472 
L 116.775398 294.805872 
L 116.974207 294.984012 
L 117.173016 294.825806 
L 117.239285 295.043098 
L 117.305555 294.887134 
L 117.371824 294.955581 
L 117.438094 294.78617 
L 117.504363 294.935019 
L 117.570633 294.891597 
L 117.769442 294.760411 
L 117.96825 294.987461 
L 118.167059 294.959317 
L 118.233329 294.453718 
L 118.365868 294.963575 
L 118.432137 294.793714 
L 118.564676 294.980861 
L 118.630946 294.90476 
L 118.763485 295.027488 
L 119.094833 294.784919 
L 119.161102 295.05514 
L 119.227372 294.950666 
L 119.293641 295.097826 
L 119.42618 294.956473 
L 119.691259 295.097694 
L 119.757528 294.955702 
L 119.823798 295.054441 
L 119.956337 294.944019 
L 120.088876 295.098255 
L 120.221415 295.070595 
L 120.420224 295.135487 
L 120.552763 295.238407 
L 120.817841 295.322945 
L 120.95038 295.048718 
L 121.082919 294.318322 
L 121.215458 287.441881 
L 121.414267 293.962313 
L 121.480537 293.862756 
L 121.679345 294.296633 
L 121.944424 294.771642 
L 122.010693 294.393663 
L 122.076963 294.564944 
L 122.209502 294.462326 
L 122.342041 294.845185 
L 122.607119 294.655099 
L 122.673389 294.832324 
L 122.805928 294.507142 
L 122.938467 294.851755 
L 123.004736 294.869513 
L 123.137276 294.699282 
L 123.203545 294.857381 
L 123.269815 294.790603 
L 123.336084 294.679634 
L 123.468623 294.910469 
L 123.534893 294.677311 
L 123.601162 294.723645 
L 123.799971 294.969967 
L 123.866241 294.677103 
L 123.93251 294.782455 
L 123.99878 294.844996 
L 124.065049 294.664168 
L 124.131319 294.879992 
L 124.197588 294.656391 
L 124.263858 294.771129 
L 124.528936 294.945868 
L 124.661475 294.968294 
L 124.794014 294.378742 
L 124.860284 294.700801 
L 125.257901 294.874765 
L 125.39044 294.630923 
L 125.45671 294.947879 
L 125.522979 294.89543 
L 125.589249 294.769471 
L 125.721788 294.984794 
L 125.788058 294.929016 
L 125.986866 294.778898 
L 126.053136 294.797019 
L 126.119405 294.930482 
L 126.185675 294.846859 
L 126.318214 294.853686 
L 126.384484 294.919272 
L 126.450753 294.780642 
L 126.583292 294.98335 
L 126.782101 294.778545 
L 126.98091 294.936592 
L 127.047179 294.843596 
L 127.113449 294.939514 
L 127.245988 294.896072 
L 127.312257 294.994138 
L 127.378527 294.725684 
L 127.444797 294.786319 
L 127.577336 294.974629 
L 127.643605 294.873602 
L 127.776144 295.065882 
L 128.107492 294.943457 
L 128.240031 295.233907 
L 128.306301 295.245963 
L 128.37257 294.966278 
L 128.505109 290.153504 
L 128.571379 291.093826 
L 128.637648 292.794324 
L 128.703918 289.863423 
L 128.836457 293.320682 
L 129.035266 294.403702 
L 129.167805 294.344609 
L 129.300344 294.748457 
L 129.565422 294.700173 
L 129.697961 294.65341 
L 129.764231 294.854593 
L 129.8305 294.618863 
L 129.89677 294.723379 
L 130.029309 295.038869 
L 130.095579 294.871034 
L 130.161848 294.675989 
L 130.228118 294.754113 
L 130.426926 294.894777 
L 130.493196 294.73015 
L 130.559466 294.804619 
L 130.625735 294.727715 
L 130.692005 294.906904 
L 130.758274 294.88039 
L 130.824544 294.928306 
L 130.957083 294.803649 
L 131.089622 294.908506 
L 131.3547 294.88845 
L 131.42097 295.004636 
L 131.487239 294.832316 
L 131.553509 294.936772 
L 131.619778 294.971809 
L 131.752318 294.844912 
L 131.884857 294.970646 
L 131.951126 294.793311 
L 132.017396 294.908393 
L 132.149935 295.045621 
L 132.216204 294.832021 
L 132.282474 294.925193 
L 132.481283 295.10788 
L 132.547552 294.821897 
L 132.613822 294.869332 
L 132.680091 294.977422 
L 132.746361 294.770095 
L 132.8789 295.043968 
L 132.94517 295.020836 
L 133.077709 294.824553 
L 133.276517 295.002393 
L 133.342787 294.989284 
L 133.409056 295.128327 
L 133.475326 295.053622 
L 133.541596 294.928475 
L 133.674135 295.094096 
L 134.270561 294.95621 
L 134.535639 295.107915 
L 134.734447 294.996326 
L 134.800717 295.190719 
L 134.866987 295.107816 
L 134.933256 295.125544 
L 135.065795 294.983994 
L 135.198334 295.144335 
L 135.264604 295.052319 
L 135.397143 295.212872 
L 135.463413 295.165222 
L 135.79476 295.099389 
L 135.993569 295.176761 
L 136.258647 295.365968 
L 136.324917 294.903655 
L 136.391186 295.018671 
L 136.589995 295.169997 
L 137.38523 295.237442 
L 137.584038 295.218893 
L 137.650308 295.318328 
L 137.716577 295.261951 
L 137.849117 295.207648 
L 138.180464 295.337981 
L 138.379273 295.288626 
L 139.837203 295.38681 
L 139.903473 295.279757 
L 139.969742 295.351868 
L 140.499899 295.366916 
L 140.698707 295.317059 
L 141.030055 295.354708 
L 141.427672 295.323941 
L 143.018142 295.409637 
L 143.084411 295.249077 
L 143.150681 295.366305 
L 143.482029 295.286508 
L 143.813376 295.386976 
L 144.078455 295.33692 
L 144.277263 295.360714 
L 144.409802 295.332176 
L 144.674881 295.390466 
L 145.006228 295.370204 
L 145.470115 295.390041 
L 145.602654 295.345288 
L 145.735193 295.348897 
L 146.066541 295.394513 
L 146.26535 295.377718 
L 146.530428 295.408805 
L 146.928045 295.352124 
L 147.193124 295.381614 
L 147.72328 295.384411 
L 148.054628 295.396373 
L 155.14547 295.264536 
L 155.21174 295.353577 
L 155.344279 295.176093 
L 155.609357 295.313751 
L 155.675627 295.200497 
L 155.741896 295.2795 
L 156.6034 295.185295 
L 156.66967 295.294796 
L 156.735939 295.215406 
L 156.868479 295.264429 
L 157.266096 295.223216 
L 157.398635 295.291476 
L 157.464905 295.172016 
L 157.531174 295.214274 
L 157.597444 295.280541 
L 157.663713 295.195523 
L 157.796252 295.23825 
L 159.254182 295.144739 
L 159.320452 295.321795 
L 159.386722 295.156182 
L 159.452991 295.216931 
L 159.718069 295.14378 
L 159.850608 295.240296 
L 160.115687 295.185354 
L 160.645843 295.266258 
L 160.712113 295.140031 
L 160.778382 295.236995 
L 161.242269 295.214348 
L 161.308539 295.356977 
L 161.374808 295.263495 
L 161.573617 295.076057 
L 161.706156 295.056304 
L 161.772426 295.079405 
L 161.838695 294.945552 
L 161.971234 295.193977 
L 162.170043 295.205466 
L 162.435121 295.248091 
L 162.56766 295.21075 
L 162.63393 295.067337 
L 162.700199 295.109207 
L 162.766469 295.18235 
L 162.832738 295.053153 
L 162.899008 295.248587 
L 162.965278 295.224784 
L 163.097817 295.094961 
L 163.230356 295.288996 
L 163.429164 295.248496 
L 163.561704 295.235201 
L 163.694243 295.211857 
L 163.826782 295.156318 
L 164.953364 295.244503 
L 165.218442 295.278229 
L 167.272799 295.276111 
L 167.537877 295.361113 
L 167.736685 295.302437 
L 168.001764 295.309189 
L 169.194616 295.27894 
L 169.327155 295.323732 
L 170.05612 295.358734 
L 170.188659 295.261344 
L 170.321198 295.335115 
L 170.387468 295.238865 
L 170.453737 295.285134 
L 172.839441 295.285126 
L 172.97198 295.294511 
L 173.104519 295.160378 
L 173.303328 295.303293 
L 173.634676 295.245263 
L 174.032293 295.238527 
L 174.231102 295.285961 
L 174.42991 295.151771 
L 174.761258 295.280954 
L 175.423954 295.218541 
L 175.556493 295.131191 
L 175.622762 295.257006 
L 175.689032 295.219312 
L 176.086649 295.247441 
L 176.285458 295.047066 
L 177.014423 295.234441 
L 177.146962 295.209999 
L 177.345771 295.169701 
L 177.544579 295.240931 
L 177.743388 295.199617 
L 177.875927 295.17215 
L 178.008466 295.1821 
L 178.074736 295.132272 
L 178.273545 295.266596 
L 178.339814 295.083473 
L 178.406084 295.230825 
L 178.472353 295.187014 
L 178.671162 295.239052 
L 178.93624 295.181068 
L 179.135049 295.206419 
L 179.267588 295.191511 
L 179.400127 295.184297 
L 179.731475 295.267026 
L 180.062822 295.236875 
L 180.195362 295.230323 
L 180.39417 295.237304 
L 180.659248 295.269192 
L 180.924327 295.157879 
L 181.388214 295.224044 
L 181.785831 295.210445 
L 181.8521 295.28885 
L 181.91837 295.208426 
L 182.117179 295.250889 
L 182.315987 295.198374 
L 182.779874 295.262998 
L 182.846144 295.199288 
L 182.912413 295.31436 
L 182.978683 295.23881 
L 183.177492 295.28078 
L 183.3763 295.27427 
L 183.707648 295.265234 
L 186.225891 295.303148 
L 186.292161 295.416583 
L 186.35843 295.361348 
L 186.689778 295.321586 
L 186.888587 295.35491 
L 187.153665 295.324512 
L 187.352473 295.329576 
L 187.551282 295.364985 
L 187.81636 295.376632 
L 187.88263 295.244827 
L 187.948899 295.308019 
L 188.876673 295.380369 
L 189.009212 295.371482 
L 189.936986 295.378975 
L 190.135795 295.348856 
L 190.334603 295.41532 
L 190.665951 295.383037 
L 191.129838 295.414262 
L 192.985386 295.389221 
L 193.184194 295.399311 
L 193.78062 295.419311 
L 193.84689 295.344587 
L 193.913159 295.408579 
L 194.045698 295.415776 
L 194.708394 295.372313 
L 194.840933 295.420595 
L 194.973472 295.342433 
L 195.106011 295.46731 
L 195.371089 295.427071 
L 196.232594 295.457427 
L 196.431402 295.420718 
L 197.094098 295.432794 
L 202.72701 295.447647 
L 202.859549 295.470696 
L 203.455975 295.412406 
L 203.787323 295.432973 
L 204.118671 295.413684 
L 204.648827 295.425436 
L 207.100801 295.437752 
L 207.365879 295.44535 
L 208.359922 295.437092 
L 209.088887 295.443448 
L 209.353965 295.472272 
L 209.685313 295.417336 
L 209.950391 295.4712 
L 210.414278 295.453236 
L 210.878165 295.464788 
L 211.474591 295.452276 
L 213.263869 295.446031 
L 213.727756 295.451482 
L 214.191643 295.46931 
L 214.58926 295.446453 
L 215.649573 295.460577 
L 216.378538 295.46174 
L 398.487273 295.481562 
L 398.487273 295.481562 
" clip-path="url(#p4dfdaf77d0)" style="fill: none; stroke: #1f77b4; stroke-width: 1.5; stroke-linecap: square"/>
   </g>
   <g id="patch_3">
    <path d="M 57.6 307.584 
L 57.6 41.472 
" style="fill: none; stroke: #000000; stroke-width: 0.8; stroke-linejoin: miter; stroke-linecap: square"/>
   </g>
   <g id="patch_4">
    <path d="M 414.72 307.584 
L 414.72 41.472 
" style="fill: none; stroke: #000000; stroke-width: 0.8; stroke-linejoin: miter; stroke-linecap: square"/>
   </g>
   <g id="patch_5">
    <path d="M 57.6 307.584 
L 414.72 307.584 
" style="fill: none; stroke: #000000; stroke-width: 0.8; stroke-linejoin: miter; stroke-linecap: square"/>
   </g>
   <g id="patch_6">
    <path d="M 57.6 41.472 
L 414.72 41.472 
" style="fill: none; stroke: #000000; stroke-width: 0.8; stroke-linejoin: miter; stroke-linecap: square"/>
   </g>
   <g id="text_18">
    <text style="font: 12px 'IPAexGothic'; text-anchor: middle" x="236.16" y="35.472" transform="rotate(-0 236.16 35.472)">"005_A1.wav"の振幅スペクトル</text>
   </g>
  </g>
 </g>
 <defs>
  <clipPath id="p4dfdaf77d0">
   <rect x="57.6" y="41.472" width="357.12" height="266.112"/>
  </clipPath>
 </defs>
</svg>
