<?xml version="1.0" encoding="utf-8" standalone="no"?>
<!DOCTYPE svg PUBLIC "-//W3C//DTD SVG 1.1//EN"
  "http://www.w3.org/Graphics/SVG/1.1/DTD/svg11.dtd">
<svg xmlns:xlink="http://www.w3.org/1999/xlink" width="460.8pt" height="345.6pt" viewBox="0 0 460.8 345.6" xmlns="http://www.w3.org/2000/svg" version="1.1">
 <metadata>
  <rdf:RDF xmlns:dc="http://purl.org/dc/elements/1.1/" xmlns:cc="http://creativecommons.org/ns#" xmlns:rdf="http://www.w3.org/1999/02/22-rdf-syntax-ns#">
   <cc:Work>
    <dc:type rdf:resource="http://purl.org/dc/dcmitype/StillImage"/>
    <dc:date>2022-11-28T12:38:03.383945</dc:date>
    <dc:format>image/svg+xml</dc:format>
    <dc:creator>
     <cc:Agent>
      <dc:title>Matplotlib v3.6.2, https://matplotlib.org/</dc:title>
     </cc:Agent>
    </dc:creator>
   </cc:Work>
  </rdf:RDF>
 </metadata>
 <defs>
  <style type="text/css">*{stroke-linejoin: round; stroke-linecap: butt}</style>
 </defs>
 <g id="figure_1">
  <g id="patch_1">
   <path d="M 0 345.6 
L 460.8 345.6 
L 460.8 0 
L 0 0 
z
" style="fill: #ffffff"/>
  </g>
  <g id="axes_1">
   <g id="patch_2">
    <path d="M 57.6 307.584 
L 414.72 307.584 
L 414.72 41.472 
L 57.6 41.472 
z
" style="fill: #ffffff"/>
   </g>
   <g id="matplotlib.axis_1">
    <g id="xtick_1">
     <g id="line2d_1">
      <defs>
       <path id="ma70e22fb46" d="M 0 0 
L 0 3.5 
" style="stroke: #000000; stroke-width: 0.8"/>
      </defs>
      <g>
       <use xlink:href="#ma70e22fb46" x="73.832727" y="307.584" style="stroke: #000000; stroke-width: 0.8"/>
      </g>
     </g>
     <g id="text_1">
      <text style="font: 10px 'IPAexGothic'; text-anchor: middle" x="73.832727" y="322.074625" transform="rotate(-0 73.832727 322.074625)">0</text>
     </g>
    </g>
    <g id="xtick_2">
     <g id="line2d_2">
      <g>
       <use xlink:href="#ma70e22fb46" x="140.102281" y="307.584" style="stroke: #000000; stroke-width: 0.8"/>
      </g>
     </g>
     <g id="text_2">
      <text style="font: 10px 'IPAexGothic'; text-anchor: middle" x="140.102281" y="322.074625" transform="rotate(-0 140.102281 322.074625)">1000</text>
     </g>
    </g>
    <g id="xtick_3">
     <g id="line2d_3">
      <g>
       <use xlink:href="#ma70e22fb46" x="206.371835" y="307.584" style="stroke: #000000; stroke-width: 0.8"/>
      </g>
     </g>
     <g id="text_3">
      <text style="font: 10px 'IPAexGothic'; text-anchor: middle" x="206.371835" y="322.074625" transform="rotate(-0 206.371835 322.074625)">2000</text>
     </g>
    </g>
    <g id="xtick_4">
     <g id="line2d_4">
      <g>
       <use xlink:href="#ma70e22fb46" x="272.64139" y="307.584" style="stroke: #000000; stroke-width: 0.8"/>
      </g>
     </g>
     <g id="text_4">
      <text style="font: 10px 'IPAexGothic'; text-anchor: middle" x="272.64139" y="322.074625" transform="rotate(-0 272.64139 322.074625)">3000</text>
     </g>
    </g>
    <g id="xtick_5">
     <g id="line2d_5">
      <g>
       <use xlink:href="#ma70e22fb46" x="338.910944" y="307.584" style="stroke: #000000; stroke-width: 0.8"/>
      </g>
     </g>
     <g id="text_5">
      <text style="font: 10px 'IPAexGothic'; text-anchor: middle" x="338.910944" y="322.074625" transform="rotate(-0 338.910944 322.074625)">4000</text>
     </g>
    </g>
    <g id="xtick_6">
     <g id="line2d_6">
      <g>
       <use xlink:href="#ma70e22fb46" x="405.180498" y="307.584" style="stroke: #000000; stroke-width: 0.8"/>
      </g>
     </g>
     <g id="text_6">
      <text style="font: 10px 'IPAexGothic'; text-anchor: middle" x="405.180498" y="322.074625" transform="rotate(-0 405.180498 322.074625)">5000</text>
     </g>
    </g>
    <g id="text_7">
     <text style="font: 10px 'IPAexGothic'; text-anchor: middle" x="236.16" y="335.924625" transform="rotate(-0 236.16 335.924625)">周波数[Hz]</text>
    </g>
   </g>
   <g id="matplotlib.axis_2">
    <g id="ytick_1">
     <g id="line2d_7">
      <defs>
       <path id="m6530b9840c" d="M 0 0 
L -3.5 0 
" style="stroke: #000000; stroke-width: 0.8"/>
      </defs>
      <g>
       <use xlink:href="#m6530b9840c" x="57.6" y="295.489082" style="stroke: #000000; stroke-width: 0.8"/>
      </g>
     </g>
     <g id="text_8">
      <text style="font: 10px 'IPAexGothic'; text-anchor: end" x="50.6" y="299.234395" transform="rotate(-0 50.6 299.234395)">0.0</text>
     </g>
    </g>
    <g id="ytick_2">
     <g id="line2d_8">
      <g>
       <use xlink:href="#m6530b9840c" x="57.6" y="249.080232" style="stroke: #000000; stroke-width: 0.8"/>
      </g>
     </g>
     <g id="text_9">
      <text style="font: 10px 'IPAexGothic'; text-anchor: end" x="50.6" y="252.825544" transform="rotate(-0 50.6 252.825544)">0.5</text>
     </g>
    </g>
    <g id="ytick_3">
     <g id="line2d_9">
      <g>
       <use xlink:href="#m6530b9840c" x="57.6" y="202.671382" style="stroke: #000000; stroke-width: 0.8"/>
      </g>
     </g>
     <g id="text_10">
      <text style="font: 10px 'IPAexGothic'; text-anchor: end" x="50.6" y="206.416694" transform="rotate(-0 50.6 206.416694)">1.0</text>
     </g>
    </g>
    <g id="ytick_4">
     <g id="line2d_10">
      <g>
       <use xlink:href="#m6530b9840c" x="57.6" y="156.262531" style="stroke: #000000; stroke-width: 0.8"/>
      </g>
     </g>
     <g id="text_11">
      <text style="font: 10px 'IPAexGothic'; text-anchor: end" x="50.6" y="160.007844" transform="rotate(-0 50.6 160.007844)">1.5</text>
     </g>
    </g>
    <g id="ytick_5">
     <g id="line2d_11">
      <g>
       <use xlink:href="#m6530b9840c" x="57.6" y="109.853681" style="stroke: #000000; stroke-width: 0.8"/>
      </g>
     </g>
     <g id="text_12">
      <text style="font: 10px 'IPAexGothic'; text-anchor: end" x="50.6" y="113.598994" transform="rotate(-0 50.6 113.598994)">2.0</text>
     </g>
    </g>
    <g id="ytick_6">
     <g id="line2d_12">
      <g>
       <use xlink:href="#m6530b9840c" x="57.6" y="63.444831" style="stroke: #000000; stroke-width: 0.8"/>
      </g>
     </g>
     <g id="text_13">
      <text style="font: 10px 'IPAexGothic'; text-anchor: end" x="50.6" y="67.190143" transform="rotate(-0 50.6 67.190143)">2.5</text>
     </g>
    </g>
    <g id="text_14">
     <text style="font: 10px 'IPAexGothic'; text-anchor: middle" x="29.460938" y="174.528" transform="rotate(-90 29.460938 174.528)">振幅</text>
    </g>
    <g id="text_15">
     <text style="font: 10px 'IPAexGothic'; text-anchor: start" x="57.6" y="38.472" transform="rotate(-0 57.6 38.472)">1e7</text>
    </g>
   </g>
   <g id="line2d_13">
    <path d="M 73.832727 280.618461 
L 73.965266 293.902924 
L 74.164075 294.821694 
L 74.429153 295.10742 
L 74.826771 295.2601 
L 74.89304 294.990822 
L 75.025579 295.432941 
L 75.091849 295.171675 
L 75.158118 295.351429 
L 75.290657 295.440552 
L 75.489466 294.506247 
L 75.555736 295.195067 
L 75.622005 295.015211 
L 75.688275 295.332626 
L 75.754544 295.290869 
L 75.820814 295.393641 
L 75.887083 295.263602 
L 75.953353 295.3987 
L 76.019623 295.297323 
L 76.682318 295.28928 
L 76.814857 295.338723 
L 76.881127 295.39512 
L 76.947396 295.256008 
L 77.013666 295.346951 
L 77.146205 295.363872 
L 77.345014 295.046176 
L 77.543822 295.25229 
L 77.87517 294.881719 
L 78.073979 295.265712 
L 78.140248 295.227983 
L 78.471596 295.183651 
L 78.604135 295.330701 
L 78.670405 295.236828 
L 78.736674 295.379856 
L 78.869213 294.974761 
L 79.068022 295.39474 
L 79.134292 295.452282 
L 79.3331 295.220948 
L 79.465639 294.859979 
L 79.598178 295.133106 
L 79.730718 295.059796 
L 79.929526 295.442971 
L 80.194604 295.356023 
L 80.327144 295.359541 
L 82.116422 295.370364 
L 82.248961 295.451916 
L 82.447769 295.375436 
L 82.580308 295.348981 
L 82.646578 295.415326 
L 82.712848 295.340675 
L 83.441813 295.376527 
L 83.77316 295.403875 
L 83.83943 294.753275 
L 83.971969 295.388024 
L 84.170778 295.277186 
L 85.231091 295.427911 
L 85.36363 295.3224 
L 85.628708 295.434406 
L 85.960056 295.261611 
L 86.092595 295.402682 
L 86.423943 295.201349 
L 86.556482 295.360247 
L 86.887829 295.064447 
L 87.020369 294.108228 
L 87.086638 292.726031 
L 87.152908 288.243827 
L 87.219177 289.97058 
L 87.351716 294.612598 
L 87.616795 295.198877 
L 87.683064 295.130158 
L 87.948142 294.921511 
L 88.146951 295.068821 
L 88.27949 295.404723 
L 88.677107 295.267157 
L 89.074725 295.383321 
L 89.140994 295.456906 
L 89.207264 295.38791 
L 89.538612 295.057476 
L 89.604881 295.222989 
L 89.80369 295.419386 
L 90.002498 295.418626 
L 90.267577 295.331625 
L 91.062811 295.40568 
L 91.460429 295.342985 
L 92.321933 295.369689 
L 92.520742 295.339023 
L 92.852089 295.383202 
L 92.984628 295.374867 
L 93.315976 295.370572 
L 93.846133 295.364297 
L 94.111211 295.422278 
L 94.376289 295.411552 
L 105.907191 295.287677 
L 106.039731 295.157049 
L 106.17227 295.341828 
L 106.371078 295.053549 
L 106.437348 295.14531 
L 106.636157 295.319254 
L 106.901235 295.347007 
L 107.232583 295.338602 
L 107.6302 295.348145 
L 107.762739 295.109616 
L 107.961548 295.480357 
L 108.226626 295.406917 
L 108.359165 295.360079 
L 108.823052 295.327645 
L 109.08813 294.464766 
L 109.1544 294.811436 
L 109.220669 294.386524 
L 109.286939 294.745429 
L 109.353208 294.461488 
L 109.419478 294.86703 
L 109.485747 294.507161 
L 109.618286 294.784312 
L 109.750826 294.499264 
L 109.817095 294.878817 
L 109.883365 294.820862 
L 109.949634 294.518711 
L 110.015904 294.942405 
L 110.214712 293.973687 
L 110.280982 293.909832 
L 110.347252 294.153666 
L 110.479791 293.586512 
L 110.54606 293.136066 
L 110.61233 293.655403 
L 110.744869 290.221215 
L 110.811138 226.229798 
L 110.943678 293.862834 
L 111.009947 294.130336 
L 111.076217 293.26444 
L 111.275025 294.275935 
L 111.341295 294.271753 
L 111.407564 293.759058 
L 111.540104 294.318774 
L 111.606373 294.260698 
L 111.672643 293.679103 
L 111.871451 294.745204 
L 111.937721 294.766242 
L 112.202799 295.217455 
L 112.335338 294.957089 
L 112.401608 295.097227 
L 112.534147 294.921454 
L 112.799225 294.953747 
L 112.865495 295.119147 
L 112.931764 295.058041 
L 113.064303 295.168437 
L 113.196842 295.092465 
L 113.263112 295.116615 
L 113.329382 295.008467 
L 113.395651 295.093719 
L 113.461921 295.172823 
L 113.660729 294.999132 
L 113.726999 295.07205 
L 113.793268 294.991793 
L 113.859538 294.962865 
L 114.124616 295.244726 
L 114.389694 295.33895 
L 114.588503 295.286281 
L 114.787312 295.304742 
L 114.919851 295.141193 
L 115.05239 295.29453 
L 115.251199 295.308204 
L 115.383738 295.336976 
L 115.648816 295.253792 
L 115.980164 295.244992 
L 116.112703 295.279166 
L 116.444051 295.220593 
L 116.841668 295.308657 
L 117.305555 295.301036 
L 117.636903 295.403345 
L 118.167059 295.388046 
L 118.233329 295.221109 
L 118.299598 295.25464 
L 118.365868 295.306224 
L 118.432137 295.218223 
L 118.896024 295.26758 
L 119.094833 295.096585 
L 119.293641 295.284219 
L 119.49245 295.193597 
L 120.420224 295.248959 
L 120.751572 295.212176 
L 120.95038 295.242366 
L 121.414267 295.289123 
L 121.613076 295.202917 
L 122.739658 295.255518 
L 122.872197 295.227761 
L 123.269815 295.244385 
L 123.733701 295.171579 
L 123.799971 295.25407 
L 123.866241 295.061363 
L 123.93251 295.128609 
L 124.727745 295.15429 
L 124.794014 295.011771 
L 124.860284 295.095918 
L 125.125362 295.243389 
L 125.655519 295.165033 
L 125.788058 295.199548 
L 126.053136 295.165688 
L 126.251945 295.209569 
L 126.98091 295.23386 
L 127.179718 295.146075 
L 127.643605 295.132849 
L 127.842414 295.216705 
L 128.43884 295.068037 
L 128.637648 295.193037 
L 129.101535 295.130542 
L 129.167805 295.07894 
L 129.366614 295.211711 
L 129.697961 295.218814 
L 129.8305 295.214095 
L 130.360657 295.250121 
L 131.3547 295.247692 
L 131.619778 295.202976 
L 131.752318 295.111457 
L 132.149935 295.231559 
L 132.282474 295.186037 
L 132.481283 295.19687 
L 132.613822 295.039913 
L 132.680091 295.111341 
L 132.746361 295.012199 
L 132.8789 295.132236 
L 133.541596 295.143722 
L 133.740404 295.219011 
L 134.933256 295.044615 
L 135.065795 294.914955 
L 135.397143 295.122409 
L 135.79476 294.917701 
L 136.258647 295.205179 
L 136.324917 294.694931 
L 136.391186 294.890827 
L 136.457456 294.982826 
L 136.523725 294.929425 
L 136.855073 294.932207 
L 136.921343 295.08254 
L 136.987612 295.02033 
L 137.186421 294.852465 
L 137.517769 294.485953 
L 137.650308 294.961043 
L 137.716577 294.873445 
L 137.782847 294.755174 
L 137.849117 294.846626 
L 137.981656 295.133966 
L 138.047925 295.048257 
L 138.114195 295.171648 
L 138.180464 295.103186 
L 138.379273 294.712819 
L 138.644351 294.895762 
L 138.975699 294.578152 
L 139.041968 295.062992 
L 139.108238 294.93923 
L 139.174508 295.062712 
L 139.240777 294.981932 
L 139.373316 295.094742 
L 139.572125 295.24194 
L 140.036012 295.006809 
L 140.102281 294.82743 
L 140.168551 294.937182 
L 140.30109 294.69409 
L 140.433629 295.019514 
L 140.632438 294.611371 
L 140.831246 294.65992 
L 141.162594 294.037623 
L 141.228864 294.329312 
L 141.295133 294.111177 
L 141.361403 294.167588 
L 141.626481 294.810919 
L 141.82529 294.17046 
L 141.891559 294.536047 
L 141.957829 294.334602 
L 142.090368 294.92404 
L 142.156638 294.806793 
L 142.289177 294.564585 
L 142.421716 294.67031 
L 142.554255 295.000258 
L 142.620524 294.937731 
L 142.686794 295.027379 
L 142.819333 295.089513 
L 143.084411 294.49121 
L 143.150681 294.779376 
L 143.21695 294.581567 
L 143.34949 294.413502 
L 143.482029 293.514829 
L 143.614568 294.381075 
L 143.680837 294.260822 
L 143.813376 294.318795 
L 143.879646 293.590808 
L 143.945915 294.080313 
L 144.012185 294.111643 
L 144.078455 293.753933 
L 144.210994 294.295967 
L 144.277263 294.232968 
L 144.343533 294.009608 
L 144.409802 294.336767 
L 144.476072 294.272208 
L 144.542341 293.389693 
L 144.608611 293.456913 
L 144.674881 293.873196 
L 144.873689 292.061931 
L 144.939959 293.055716 
L 145.072498 291.921312 
L 145.138767 291.896973 
L 145.470115 294.084225 
L 145.536385 294.984538 
L 145.602654 294.171696 
L 145.735193 291.05296 
L 145.801463 292.236912 
L 145.867733 232.150905 
L 146.000272 290.195457 
L 146.066541 290.22695 
L 146.132811 290.575484 
L 146.19908 290.219027 
L 146.331619 291.887906 
L 146.397889 291.324182 
L 146.530428 293.09981 
L 146.596698 292.954018 
L 146.662967 293.27767 
L 146.729237 292.994408 
L 146.795506 293.061996 
L 146.928045 293.122142 
L 146.994315 294.216481 
L 147.060585 293.966412 
L 147.126854 294.12348 
L 147.259393 293.462814 
L 147.325663 293.50601 
L 147.657011 294.122309 
L 147.72328 294.12275 
L 147.78955 294.431534 
L 147.855819 294.051477 
L 148.054628 294.635041 
L 148.120897 294.619952 
L 148.253437 294.485568 
L 148.319706 294.73555 
L 148.385976 294.64697 
L 148.452245 294.588763 
L 148.518515 294.86737 
L 148.584784 294.830516 
L 148.717323 294.85667 
L 148.916132 295.216648 
L 149.048671 295.303092 
L 149.24748 295.443035 
L 149.512558 295.11545 
L 149.578828 294.930837 
L 149.645097 295.130406 
L 149.777636 294.922779 
L 150.108984 295.227882 
L 150.175254 295.12004 
L 150.307793 295.086031 
L 150.374062 295.23482 
L 150.440332 295.112929 
L 150.506601 295.102026 
L 150.572871 295.205559 
L 150.70541 294.953619 
L 150.837949 295.008235 
L 150.904219 294.80999 
L 150.970488 294.839793 
L 151.103027 294.940844 
L 151.235566 294.851942 
L 151.434375 295.072525 
L 151.500645 294.94197 
L 151.633184 295.072896 
L 151.898262 294.955054 
L 152.097071 295.080062 
L 152.295879 295.017 
L 152.560958 295.196446 
L 152.693497 295.160988 
L 152.759766 295.223073 
L 152.826036 295.1438 
L 153.024844 295.093407 
L 153.289923 295.080637 
L 153.488731 294.8709 
L 153.555001 295.123016 
L 153.62127 295.018505 
L 153.753809 294.869867 
L 153.886349 295.04444 
L 153.952618 294.937066 
L 154.018888 295.012363 
L 154.085157 295.107546 
L 154.151427 295.008876 
L 154.615314 295.284107 
L 155.14547 294.892752 
L 155.21174 295.085913 
L 155.344279 294.582511 
L 155.543087 294.903502 
L 155.675627 294.971895 
L 155.874435 294.945876 
L 155.940705 294.805335 
L 156.006974 294.896589 
L 156.272053 295.162947 
L 156.537131 295.106695 
L 156.6034 295.128397 
L 156.802209 295.36046 
L 157.199826 295.332928 
L 157.464905 295.2878 
L 157.796252 295.360037 
L 158.525217 295.103665 
L 158.724026 295.148391 
L 159.121643 295.102605 
L 159.187913 294.969655 
L 159.254182 295.061655 
L 159.320452 295.213103 
L 159.386722 295.040661 
L 159.452991 295.138768 
L 159.58553 295.123066 
L 160.248226 295.234631 
L 160.447034 295.225684 
L 160.645843 295.202217 
L 160.712113 295.06714 
L 160.778382 295.115287 
L 160.844652 295.09399 
L 160.977191 294.905956 
L 161.04346 295.084134 
L 161.10973 295.024215 
L 161.176 294.930941 
L 161.308539 295.263045 
L 161.374808 295.104756 
L 161.838695 294.953477 
L 161.971234 295.059509 
L 162.037504 294.953443 
L 162.103773 294.994864 
L 162.368852 295.290405 
L 162.56766 295.377734 
L 162.832738 295.228596 
L 162.899008 295.346962 
L 162.965278 295.299613 
L 163.097817 295.267962 
L 163.230356 295.375042 
L 164.02559 295.357055 
L 164.688286 295.225763 
L 164.887095 295.33535 
L 165.085903 295.297088 
L 165.417251 295.337951 
L 167.140259 295.400854 
L 167.471607 295.464736 
L 167.935494 295.412754 
L 168.929537 295.302231 
L 169.327155 295.402944 
L 169.592233 295.430562 
L 169.98985 295.457523 
L 170.652546 295.137867 
L 170.785085 295.273313 
L 170.851354 295.206876 
L 170.983894 295.261251 
L 171.315241 295.157551 
L 171.911667 295.34831 
L 171.977937 295.237043 
L 172.110476 295.440257 
L 172.773172 295.323356 
L 173.03825 295.326393 
L 173.104519 295.239924 
L 173.170789 295.305645 
L 173.502137 295.283204 
L 174.231102 295.082556 
L 174.42991 294.849742 
L 174.49618 295.120743 
L 174.562449 295.02109 
L 174.761258 295.195588 
L 175.423954 295.179571 
L 175.556493 295.020137 
L 175.622762 295.138457 
L 176.02038 295.234691 
L 176.351727 294.922066 
L 176.550536 294.973784 
L 176.749345 294.893209 
L 176.815614 294.829896 
L 177.213232 295.270024 
L 177.41204 295.31459 
L 178.074736 294.900781 
L 178.273545 295.051176 
L 178.339814 294.927996 
L 178.538623 295.098428 
L 178.671162 295.099193 
L 178.93624 295.168793 
L 179.135049 295.199242 
L 179.400127 295.229616 
L 179.930283 295.309205 
L 181.255674 295.272261 
L 181.454483 295.360359 
L 181.785831 295.046937 
L 181.98464 295.098856 
L 182.249718 295.362484 
L 182.448526 295.389119 
L 182.846144 295.070825 
L 182.978683 295.228683 
L 183.177492 295.125117 
L 183.508839 294.814011 
L 184.105265 295.041462 
L 184.502883 295.318906 
L 184.767961 294.81601 
L 184.83423 294.944313 
L 184.9005 294.628901 
L 184.966769 294.649068 
L 185.033039 294.785466 
L 185.099309 294.751909 
L 185.165578 294.602001 
L 185.364387 294.873085 
L 185.629465 294.058068 
L 185.695735 294.10665 
L 185.828274 294.355396 
L 185.894543 294.253102 
L 186.159621 293.626618 
L 186.225891 293.761514 
L 186.292161 294.468658 
L 186.35843 294.178453 
L 186.4247 294.162714 
L 186.689778 293.648266 
L 186.756047 293.644546 
L 186.954856 294.031665 
L 187.087395 294.007453 
L 187.153665 293.547785 
L 187.219934 293.600907 
L 187.286204 293.521725 
L 187.352473 293.937044 
L 187.418743 293.742142 
L 187.551282 294.017693 
L 187.750091 293.682265 
L 187.81636 294.205167 
L 187.88263 293.369223 
L 187.948899 293.561426 
L 188.147708 294.053059 
L 188.479056 293.435432 
L 188.545325 293.455017 
L 188.611595 293.026657 
L 188.677864 293.152388 
L 188.744134 293.345048 
L 188.942943 292.145859 
L 189.141751 292.806953 
L 189.34056 290.463903 
L 189.473099 292.528758 
L 189.539369 292.398097 
L 189.671908 292.393958 
L 189.870716 293.39807 
L 189.936986 293.225807 
L 190.069525 292.369871 
L 190.334603 287.532398 
L 190.467142 285.948469 
L 190.665951 268.123136 
L 190.732221 262.020667 
L 190.79849 219.684884 
L 190.86476 53.568 
L 190.931029 117.167791 
L 191.063568 262.328091 
L 191.262377 279.183951 
L 191.394916 282.239863 
L 191.461186 285.799267 
L 191.527455 284.184068 
L 192.123881 290.907218 
L 192.190151 290.529965 
L 192.852846 293.485691 
L 193.117925 293.585233 
L 193.316733 292.987923 
L 193.515542 293.572695 
L 193.648081 293.848199 
L 193.78062 293.384553 
L 194.045698 294.31619 
L 194.244507 294.139884 
L 194.310777 294.23988 
L 194.377046 294.191623 
L 194.575855 294.189411 
L 194.642124 294.398628 
L 194.708394 294.348372 
L 195.106011 294.731377 
L 195.172281 294.783577 
L 195.371089 294.534557 
L 195.569898 294.611225 
L 195.636168 294.633085 
L 195.834976 294.080694 
L 195.967515 293.773178 
L 196.033785 293.914775 
L 196.100055 293.992215 
L 196.232594 293.82131 
L 196.365133 293.94803 
L 196.696481 294.391305 
L 196.895289 294.661837 
L 196.961559 294.484613 
L 197.027828 294.520849 
L 197.557985 294.889411 
L 197.756793 294.760784 
L 198.154411 294.83655 
L 198.353219 294.92939 
L 198.618298 294.917026 
L 198.817106 294.516047 
L 198.949645 294.964039 
L 199.280993 294.695704 
L 199.479802 294.754724 
L 199.81115 295.04173 
L 199.943689 294.935154 
L 200.142497 295.094266 
L 200.540115 295.050794 
L 200.738923 295.341669 
L 201.401619 295.090025 
L 201.534158 294.95923 
L 201.666697 295.045668 
L 201.865506 295.188859 
L 202.064314 295.221471 
L 202.263123 295.264451 
L 202.72701 295.249066 
L 203.124627 295.330007 
L 203.323436 295.357817 
L 203.787323 294.81042 
L 203.853592 294.878638 
L 203.986131 294.96153 
L 204.118671 294.412615 
L 204.25121 295.070454 
L 204.317479 295.022107 
L 204.450018 294.933234 
L 204.582557 295.223768 
L 204.913905 295.260539 
L 205.178983 295.367015 
L 205.775409 295.343453 
L 206.173027 295.165379 
L 206.371835 295.217205 
L 206.636914 295.394347 
L 207.564687 295.327066 
L 207.896035 295.39818 
L 208.823809 295.124488 
L 209.155157 295.152079 
L 209.685313 294.956655 
L 209.884122 295.200059 
L 210.1492 295.189126 
L 210.21547 295.323162 
L 210.281739 295.267147 
L 210.414278 295.2994 
L 210.679356 295.3227 
L 210.944435 295.401318 
L 211.275782 295.193982 
L 211.474591 295.302994 
L 211.872208 295.295184 
L 212.203556 295.333175 
L 212.998791 295.327598 
L 213.462678 294.930324 
L 213.528947 294.983372 
L 213.595217 295.216828 
L 213.661486 295.142828 
L 214.324182 294.956786 
L 214.58926 295.134225 
L 214.788069 295.148457 
L 215.185686 295.081508 
L 215.251956 295.193062 
L 215.318225 295.079946 
L 215.384495 295.162039 
L 215.583303 295.349655 
L 215.848382 295.435219 
L 216.245999 295.1971 
L 216.842425 295.016461 
L 216.908695 295.175203 
L 216.974964 295.039153 
L 217.041234 295.086819 
L 217.438851 295.061326 
L 217.505121 294.723848 
L 217.63766 295.128087 
L 217.770199 295.17724 
L 217.969007 295.337354 
L 218.764242 295.320127 
L 218.963051 295.237694 
L 219.426938 295.221645 
L 219.625746 295.077349 
L 219.758285 295.241298 
L 219.957094 295.103307 
L 220.089633 295.159585 
L 220.155903 295.315418 
L 220.222172 295.269855 
L 220.288442 295.159451 
L 220.354711 295.255397 
L 220.55352 295.258655 
L 221.149946 295.203844 
L 221.481294 295.078007 
L 221.680102 295.145662 
L 221.945181 295.152864 
L 222.01145 295.244031 
L 222.07772 295.130208 
L 222.143989 295.186817 
L 222.607876 295.289432 
L 223.005494 295.34022 
L 223.403111 295.328419 
L 223.53565 295.339528 
L 223.734459 295.217803 
L 223.800728 295.304943 
L 223.866998 295.233851 
L 225.258658 295.229857 
L 225.324928 295.154603 
L 225.391197 295.331807 
L 225.457467 295.300994 
L 225.722545 295.209103 
L 226.120163 295.19523 
L 226.252702 295.208341 
L 226.318971 295.293125 
L 226.51778 295.152771 
L 226.716589 295.043823 
L 226.849128 295.148543 
L 227.114206 295.137898 
L 227.180475 295.247404 
L 227.246745 294.994228 
L 227.313015 295.076 
L 227.379284 294.986859 
L 227.445554 295.063376 
L 227.776901 295.203841 
L 228.04198 295.135704 
L 228.174519 295.077192 
L 228.439597 294.850776 
L 228.638406 295.174785 
L 228.704675 295.043567 
L 228.770945 295.098612 
L 229.102292 295.179818 
L 229.234832 295.46702 
L 229.963797 294.963876 
L 230.030066 294.732441 
L 230.162605 295.031844 
L 230.228875 294.9664 
L 230.560223 294.778407 
L 230.692762 295.079349 
L 230.825301 295.184068 
L 231.02411 295.263821 
L 231.289188 294.827648 
L 231.355457 294.923297 
L 231.753075 295.189591 
L 232.018153 295.013089 
L 232.614579 294.641823 
L 232.680848 294.387775 
L 232.747118 294.427214 
L 232.813388 294.348447 
L 233.078466 293.142149 
L 233.144735 293.154985 
L 233.277274 290.957113 
L 233.409814 289.117952 
L 233.807431 293.511264 
L 234.006239 293.358541 
L 234.072509 292.971541 
L 234.138779 293.059423 
L 234.470126 294.468196 
L 234.536396 294.122668 
L 234.735205 295.007816 
L 234.934013 295.395833 
L 235.331631 294.634432 
L 235.46417 294.956723 
L 235.729248 294.843831 
L 235.928057 294.913159 
L 236.060596 294.979341 
L 236.193135 295.182498 
L 236.259404 295.052921 
L 236.325674 295.112155 
L 236.524483 295.378319 
L 236.657022 295.237329 
L 236.723291 295.089934 
L 236.85583 295.267387 
L 237.319717 294.961365 
L 237.982413 295.433627 
L 238.181221 295.187005 
L 238.843917 294.809071 
L 239.175265 295.26327 
L 239.374073 295.358019 
L 239.705421 294.664405 
L 239.83796 294.74887 
L 239.90423 294.788337 
L 239.970499 294.98407 
L 240.036769 294.948452 
L 240.103038 294.911078 
L 240.169308 294.743601 
L 240.235578 294.773868 
L 240.434386 294.767389 
L 240.699464 295.165888 
L 241.163351 295.09939 
L 241.560969 294.88695 
L 241.627238 294.793234 
L 241.826047 294.912482 
L 242.091125 294.546143 
L 242.422473 295.273899 
L 242.687551 295.390192 
L 243.018899 294.395922 
L 243.085168 294.496996 
L 243.283977 294.639503 
L 243.350247 294.652202 
L 243.747864 291.041764 
L 244.27802 275.478594 
L 244.34429 266.29585 
L 244.410559 228.265918 
L 244.476829 234.271973 
L 244.675638 287.594287 
L 244.874446 294.266089 
L 244.940716 294.868468 
L 245.006985 294.572922 
L 245.272064 293.496425 
L 245.338333 293.825461 
L 245.537142 293.411981 
L 245.603411 293.342149 
L 245.669681 294.110543 
L 245.80222 293.409898 
L 246.067298 294.451137 
L 246.133568 294.877609 
L 246.266107 294.466058 
L 246.464916 294.633028 
L 246.663724 294.056962 
L 246.796263 294.628533 
L 246.862533 294.459346 
L 246.928803 294.472088 
L 246.995072 294.353867 
L 247.061342 294.673368 
L 247.127611 294.588461 
L 247.458959 295.328867 
L 247.525229 295.23644 
L 247.591498 295.122437 
L 247.657768 295.189029 
L 247.856576 294.946335 
L 248.055385 294.301122 
L 248.121655 294.577426 
L 248.187924 294.78971 
L 248.386733 294.116514 
L 248.453002 294.102907 
L 248.519272 294.21952 
L 248.71808 294.761032 
L 248.916889 294.14052 
L 249.049428 294.473641 
L 249.314506 294.645097 
L 249.447046 294.526705 
L 249.513315 294.77519 
L 249.579585 294.740359 
L 249.712124 294.62936 
L 249.910932 294.85393 
L 250.109741 294.885545 
L 250.24228 294.931895 
L 250.30855 294.787155 
L 250.441089 295.007871 
L 250.706167 294.907159 
L 250.904976 295.050391 
L 251.103784 295.031263 
L 251.302593 295.013862 
L 251.567671 294.854337 
L 251.899019 295.216008 
L 252.031558 295.182925 
L 252.296636 295.281814 
L 252.495445 295.218439 
L 252.893062 295.191013 
L 253.025602 295.24922 
L 253.22441 295.097853 
L 253.423219 295.10707 
L 253.489488 295.02116 
L 253.555758 295.096675 
L 253.688297 295.046591 
L 253.754567 294.736589 
L 253.820836 294.903899 
L 253.953375 294.958236 
L 254.019645 294.909548 
L 254.085914 294.67409 
L 254.152184 294.807333 
L 254.284723 294.844638 
L 254.483532 294.774892 
L 254.549801 294.867021 
L 254.616071 294.773439 
L 254.68234 294.695684 
L 254.74861 294.876577 
L 254.814879 294.759775 
L 254.947419 294.681216 
L 255.013688 294.769627 
L 255.079958 294.699052 
L 255.212497 294.566226 
L 255.345036 294.80955 
L 255.411305 294.633069 
L 255.477575 294.754193 
L 255.610114 294.54285 
L 255.742653 294.851349 
L 255.808923 294.741496 
L 255.875192 294.665962 
L 256.007731 294.946526 
L 256.140271 294.861565 
L 256.471618 295.082432 
L 256.537888 295.009788 
L 256.736697 295.28193 
L 256.935505 295.065552 
L 257.200583 294.935086 
L 257.465662 295.054598 
L 257.531931 294.755857 
L 257.598201 294.883623 
L 257.73074 294.780367 
L 257.863279 295.195212 
L 257.929549 295.132675 
L 257.995818 294.821661 
L 258.062088 294.949139 
L 258.194627 294.983361 
L 258.327166 294.962569 
L 258.393435 294.816666 
L 258.459705 294.890369 
L 258.923592 294.613254 
L 258.989861 294.804391 
L 259.056131 294.738498 
L 259.25494 294.715426 
L 259.387479 295.032479 
L 259.453748 294.966378 
L 259.586287 294.684308 
L 259.652557 294.618771 
L 259.718826 294.359953 
L 259.785096 294.394871 
L 259.851366 294.758324 
L 259.917635 294.731023 
L 260.315252 294.728936 
L 260.381522 294.805411 
L 260.447792 294.641127 
L 260.514061 294.743521 
L 260.580331 294.703911 
L 260.779139 294.423665 
L 260.845409 294.540794 
L 260.911678 294.497503 
L 261.243026 294.169776 
L 261.309296 295.066957 
L 261.375565 294.592815 
L 261.508104 294.317346 
L 261.905722 294.772739 
L 261.971991 294.387945 
L 262.038261 294.479868 
L 262.23707 294.479585 
L 262.435878 294.828635 
L 262.700956 294.858718 
L 262.966035 294.540086 
L 263.032304 294.789517 
L 263.098574 294.651863 
L 263.164843 294.824344 
L 263.231113 294.608385 
L 263.297382 294.630029 
L 263.496191 294.927127 
L 263.62873 294.839577 
L 263.695 294.998999 
L 263.761269 294.901509 
L 263.893808 294.849873 
L 264.092617 294.874427 
L 264.291426 294.990585 
L 264.357695 294.814791 
L 264.423965 294.933267 
L 264.556504 294.800578 
L 264.622773 294.911047 
L 264.755313 294.659097 
L 264.821582 294.863198 
L 264.887852 294.735929 
L 264.954121 294.634363 
L 265.020391 294.831862 
L 265.219199 294.36246 
L 265.550547 294.776629 
L 266.146973 294.957795 
L 266.213243 294.832477 
L 266.279512 294.966827 
L 266.345782 294.892561 
L 266.809669 295.111796 
L 266.942208 294.98888 
L 267.008477 295.067046 
L 267.406095 294.767054 
L 267.472364 294.861757 
L 267.538634 294.772776 
L 267.671173 294.886571 
L 267.803712 295.0018 
L 267.869982 294.693926 
L 268.06879 295.139376 
L 268.532677 294.982076 
L 268.797755 294.935394 
L 268.864025 295.058159 
L 268.930294 294.931283 
L 269.129103 295.088892 
L 269.261642 295.059414 
L 269.327912 295.229456 
L 269.394181 295.157563 
L 269.791799 294.995665 
L 269.990607 295.20739 
L 270.056877 295.097004 
L 270.388225 295.023593 
L 270.520764 294.911796 
L 270.587033 294.794075 
L 270.785842 295.159803 
L 270.918381 294.848434 
L 270.984651 294.886524 
L 271.05092 295.044259 
L 271.11719 294.96769 
L 271.183459 294.829011 
L 271.249729 294.899153 
L 271.514807 294.879568 
L 271.846155 294.83084 
L 271.978694 295.042413 
L 272.177503 294.800694 
L 272.707659 295.080248 
L 273.105276 294.986548 
L 273.370355 294.82777 
L 273.569163 294.902411 
L 273.635433 294.785995 
L 273.767972 295.354484 
L 273.834241 295.072688 
L 274.03305 294.966308 
L 274.364398 294.883013 
L 274.430667 294.71846 
L 274.496937 294.812291 
L 274.563207 294.754769 
L 274.629476 294.903251 
L 274.695746 294.770462 
L 274.762015 294.875024 
L 274.894554 294.774078 
L 274.960824 294.935395 
L 275.027093 294.833895 
L 275.55725 294.776639 
L 275.689789 294.568288 
L 275.888598 294.755379 
L 276.021137 294.961724 
L 276.087406 294.528621 
L 276.153676 294.570163 
L 276.219945 294.806123 
L 276.286215 294.727972 
L 276.485024 294.467104 
L 276.617563 294.767649 
L 276.683832 294.719837 
L 276.750102 294.520174 
L 276.948911 294.815801 
L 277.08145 294.789684 
L 277.412797 294.464968 
L 277.479067 294.746018 
L 277.545337 294.600442 
L 277.744145 294.606686 
L 277.876684 294.862417 
L 278.141763 294.436298 
L 278.208032 294.486864 
L 278.274302 294.267079 
L 278.406841 294.662726 
L 278.53938 294.47171 
L 279.003267 294.723763 
L 279.135806 294.78179 
L 279.334614 294.983518 
L 279.400884 294.88931 
L 279.467154 294.984146 
L 279.599693 294.956526 
L 279.732232 294.953641 
L 279.864771 294.952825 
L 279.93104 294.849837 
L 279.99731 294.936663 
L 280.196119 294.960202 
L 280.262388 295.078966 
L 280.394927 294.730017 
L 280.792545 294.883275 
L 281.057623 294.640022 
L 281.256432 294.641478 
L 281.322701 294.497423 
L 281.388971 294.557134 
L 281.45524 294.615452 
L 281.52151 295.001159 
L 281.587779 294.661954 
L 281.654049 294.676457 
L 281.985397 295.233664 
L 282.581823 295.20211 
L 282.648092 295.156184 
L 282.714362 295.308682 
L 282.780631 295.192942 
L 282.846901 295.245316 
L 282.91317 295.062299 
L 282.97944 295.106562 
L 283.377057 295.32661 
L 283.708405 295.303127 
L 283.973483 295.414991 
L 284.238561 295.252004 
L 284.50364 295.15963 
L 284.636179 295.19962 
L 284.901257 295.130783 
L 285.100066 295.248252 
L 285.298874 295.203191 
L 285.762761 295.055632 
L 285.8953 294.840009 
L 286.027839 295.100708 
L 286.160379 294.917618 
L 286.292918 295.142462 
L 286.425457 294.860046 
L 286.624265 295.041259 
L 286.690535 295.137324 
L 286.756805 295.057758 
L 287.021883 295.116656 
L 287.220691 295.19094 
L 287.618309 295.23604 
L 287.817117 294.986671 
L 287.883387 295.132446 
L 288.214735 295.112718 
L 288.413543 295.202493 
L 288.546083 295.264483 
L 288.678622 295.170171 
L 289.341317 295.16521 
L 289.407587 295.302103 
L 289.473856 295.232502 
L 289.738934 295.195102 
L 289.871474 295.128143 
L 290.40163 295.050579 
L 290.534169 294.995275 
L 290.865517 295.201281 
L 290.998056 295.041629 
L 291.263134 295.163205 
L 291.461943 295.207311 
L 291.594482 295.064313 
L 291.793291 295.223488 
L 291.992099 295.067487 
L 292.124638 295.220501 
L 292.389717 295.083046 
L 292.455986 294.923973 
L 292.522256 295.038259 
L 292.588525 295.03069 
L 292.787334 294.78062 
L 293.184951 294.986896 
L 293.38376 294.909562 
L 293.516299 295.142715 
L 293.648838 295.04483 
L 293.913916 295.271221 
L 295.106768 295.223607 
L 295.239307 295.104634 
L 295.504386 295.135609 
L 295.636925 295.062476 
L 295.769464 295.089746 
L 295.902003 295.017617 
L 296.167081 295.090082 
L 296.36589 295.026425 
L 296.432159 294.975603 
L 296.498429 295.109821 
L 296.564699 295.052241 
L 296.697238 295.019972 
L 296.829777 295.066615 
L 297.161125 294.864757 
L 297.293664 294.993911 
L 297.359933 294.81879 
L 297.426203 294.889757 
L 297.691281 294.512968 
L 297.757551 294.616095 
L 297.89009 294.790668 
L 297.956359 294.686729 
L 298.155168 294.524532 
L 298.420246 294.843442 
L 298.486516 294.735921 
L 298.552785 294.802552 
L 298.685324 294.63937 
L 298.817863 294.879007 
L 298.884133 294.781567 
L 299.082942 295.028215 
L 299.149211 294.999312 
L 299.215481 294.821923 
L 299.28175 294.885972 
L 299.546828 294.952522 
L 300.209524 294.848225 
L 300.408333 295.058531 
L 300.540872 294.47346 
L 300.73968 294.643344 
L 300.87222 294.69557 
L 301.004759 294.711878 
L 301.137298 294.396672 
L 301.269837 294.743819 
L 301.601185 294.605638 
L 301.733724 294.779732 
L 301.866263 295.237914 
L 301.932532 295.010738 
L 302.131341 295.061511 
L 302.26388 294.837066 
L 302.396419 294.549429 
L 302.528958 294.878214 
L 302.727767 294.313615 
L 302.860306 294.261405 
L 302.926576 294.376224 
L 303.059115 294.275673 
L 303.125384 294.408124 
L 303.456732 292.96008 
L 303.523002 293.417191 
L 303.589271 293.568307 
L 303.655541 293.487179 
L 303.72181 292.818162 
L 303.78808 292.934847 
L 303.854349 292.826675 
L 303.986889 291.321761 
L 304.053158 290.360311 
L 304.251967 291.961816 
L 304.384506 290.558968 
L 304.583315 286.692617 
L 304.980932 261.261503 
L 305.179741 283.111515 
L 305.444819 291.524948 
L 305.577358 292.602562 
L 305.709897 292.013505 
L 305.776167 291.977084 
L 305.908706 293.442974 
L 305.974975 292.569892 
L 306.041245 292.813627 
L 306.240053 293.642312 
L 306.306323 293.812695 
L 306.372593 293.41071 
L 306.438862 294.062478 
L 306.505132 294.043444 
L 306.571401 294.083984 
L 306.637671 294.313989 
L 306.70394 294.227476 
L 306.77021 294.120236 
L 306.836479 294.425536 
L 306.902749 294.390705 
L 307.167827 293.870696 
L 307.565445 294.709846 
L 307.631714 294.668369 
L 307.697984 294.443088 
L 307.896792 294.775003 
L 308.095601 294.648411 
L 308.22814 294.877413 
L 308.360679 294.87957 
L 308.493218 295.031286 
L 308.559488 295.049342 
L 308.625757 295.185725 
L 308.692027 295.137922 
L 308.824566 295.192285 
L 309.089644 295.38386 
L 309.222183 295.396464 
L 309.420992 295.270457 
L 309.619801 295.246586 
L 310.613844 295.080152 
L 310.812653 295.203054 
L 311.011461 295.285345 
L 311.21027 295.279776 
L 311.342809 295.339601 
L 311.806696 295.172664 
L 312.071774 295.196648 
L 312.204313 295.169081 
L 312.403122 295.238883 
L 312.535661 295.217659 
L 312.867009 295.328135 
L 313.264626 295.366611 
L 314.855095 295.347469 
L 315.186443 295.399923 
L 315.849139 295.353466 
L 316.047947 295.373351 
L 316.445565 295.202044 
L 318.036034 295.377144 
L 318.168573 295.276892 
L 318.63246 295.377569 
L 320.819355 295.366109 
L 321.150703 295.329308 
L 321.68086 295.311964 
L 321.945938 295.377719 
L 322.409825 295.327266 
L 322.741172 295.344949 
L 323.801485 295.423173 
L 324.132833 295.429988 
L 324.59672 295.422478 
L 324.994337 295.384321 
L 325.590763 295.451895 
L 326.187189 295.397665 
L 326.783615 295.486647 
L 330.295902 295.36515 
L 330.56098 295.359404 
L 336.061353 295.422559 
L 337.055396 295.426151 
L 337.718092 295.48124 
L 338.977213 295.398169 
L 339.242291 295.427209 
L 339.838717 295.426885 
L 343.94743 295.380018 
L 344.610125 295.387147 
L 344.941473 295.460742 
L 345.40536 295.410152 
L 346.134325 295.383431 
L 346.995829 295.378322 
L 348.652568 295.438164 
L 348.983916 295.395976 
L 349.91169 295.407092 
L 351.700968 295.458005 
L 353.092628 295.466493 
L 353.821593 295.455122 
L 357.996575 295.369021 
L 358.261653 295.351489 
L 359.255697 295.372439 
L 359.321966 295.27423 
L 359.388236 295.362694 
L 359.653314 295.382856 
L 360.050931 295.388154 
L 360.24974 295.355894 
L 360.31601 295.308696 
L 360.382279 295.428346 
L 360.448549 295.385079 
L 360.581088 295.25967 
L 360.713627 294.594433 
L 360.779896 294.689447 
L 360.912436 295.091879 
L 360.978705 295.050925 
L 361.111244 295.193723 
L 361.177514 293.761767 
L 361.243783 289.563078 
L 361.376322 295.317358 
L 361.442592 283.933667 
L 361.508862 288.048433 
L 361.641401 295.019586 
L 361.70767 295.357825 
L 361.77394 295.264808 
L 361.840209 295.187123 
L 361.972748 294.465107 
L 362.171557 295.383464 
L 362.370366 295.449218 
L 362.900522 295.395913 
L 363.430679 295.392612 
L 363.629487 295.452308 
L 364.75607 295.418344 
L 365.683843 295.387518 
L 366.015191 295.404581 
L 366.810426 295.353911 
L 367.009235 295.472412 
L 368.268356 295.343404 
L 368.400895 295.324195 
L 369.063591 295.451241 
L 369.328669 295.301835 
L 369.858825 295.258914 
L 370.123904 295.399979 
L 370.256443 295.418483 
L 370.388982 295.169309 
L 370.919138 292.621624 
L 371.051677 291.022194 
L 371.316756 294.543003 
L 371.581834 295.091463 
L 371.846912 295.13817 
L 372.045721 295.170603 
L 372.11199 295.369375 
L 372.17826 295.307327 
L 372.377068 295.223071 
L 372.575877 295.282916 
L 375.226659 295.407261 
L 375.624277 295.385674 
L 376.154433 295.426055 
L 377.214746 295.389978 
L 378.341328 295.477615 
L 379.202832 295.428125 
L 392.059126 295.301617 
L 392.125396 295.220381 
L 392.324204 295.444787 
L 392.721822 295.40191 
L 393.318248 295.359515 
L 393.848404 295.030244 
L 393.914673 294.77059 
L 394.179752 295.309698 
L 394.709908 295.321147 
L 396.035299 295.415244 
L 397.36069 295.387084 
L 398.487273 295.401181 
L 398.487273 295.401181 
" clip-path="url(#pb1b3c677ff)" style="fill: none; stroke: #1f77b4; stroke-width: 1.5; stroke-linecap: square"/>
   </g>
   <g id="patch_3">
    <path d="M 57.6 307.584 
L 57.6 41.472 
" style="fill: none; stroke: #000000; stroke-width: 0.8; stroke-linejoin: miter; stroke-linecap: square"/>
   </g>
   <g id="patch_4">
    <path d="M 414.72 307.584 
L 414.72 41.472 
" style="fill: none; stroke: #000000; stroke-width: 0.8; stroke-linejoin: miter; stroke-linecap: square"/>
   </g>
   <g id="patch_5">
    <path d="M 57.6 307.584 
L 414.72 307.584 
" style="fill: none; stroke: #000000; stroke-width: 0.8; stroke-linejoin: miter; stroke-linecap: square"/>
   </g>
   <g id="patch_6">
    <path d="M 57.6 41.472 
L 414.72 41.472 
" style="fill: none; stroke: #000000; stroke-width: 0.8; stroke-linejoin: miter; stroke-linecap: square"/>
   </g>
   <g id="text_16">
    <text style="font: 12px 'IPAexGothic'; text-anchor: middle" x="236.16" y="35.472" transform="rotate(-0 236.16 35.472)">"015_A5.wav"の振幅スペクトル</text>
   </g>
  </g>
 </g>
 <defs>
  <clipPath id="pb1b3c677ff">
   <rect x="57.6" y="41.472" width="357.12" height="266.112"/>
  </clipPath>
 </defs>
</svg>
