<?xml version="1.0" encoding="utf-8" standalone="no"?>
<!DOCTYPE svg PUBLIC "-//W3C//DTD SVG 1.1//EN"
  "http://www.w3.org/Graphics/SVG/1.1/DTD/svg11.dtd">
<svg xmlns:xlink="http://www.w3.org/1999/xlink" width="460.8pt" height="345.6pt" viewBox="0 0 460.8 345.6" xmlns="http://www.w3.org/2000/svg" version="1.1">
 <metadata>
  <rdf:RDF xmlns:dc="http://purl.org/dc/elements/1.1/" xmlns:cc="http://creativecommons.org/ns#" xmlns:rdf="http://www.w3.org/1999/02/22-rdf-syntax-ns#">
   <cc:Work>
    <dc:type rdf:resource="http://purl.org/dc/dcmitype/StillImage"/>
    <dc:date>2022-11-28T12:39:25.240376</dc:date>
    <dc:format>image/svg+xml</dc:format>
    <dc:creator>
     <cc:Agent>
      <dc:title>Matplotlib v3.6.2, https://matplotlib.org/</dc:title>
     </cc:Agent>
    </dc:creator>
   </cc:Work>
  </rdf:RDF>
 </metadata>
 <defs>
  <style type="text/css">*{stroke-linejoin: round; stroke-linecap: butt}</style>
 </defs>
 <g id="figure_1">
  <g id="patch_1">
   <path d="M 0 345.6 
L 460.8 345.6 
L 460.8 0 
L 0 0 
z
" style="fill: #ffffff"/>
  </g>
  <g id="axes_1">
   <g id="patch_2">
    <path d="M 57.6 307.584 
L 414.72 307.584 
L 414.72 41.472 
L 57.6 41.472 
z
" style="fill: #ffffff"/>
   </g>
   <g id="matplotlib.axis_1">
    <g id="xtick_1">
     <g id="line2d_1">
      <defs>
       <path id="ma480e97154" d="M 0 0 
L 0 3.5 
" style="stroke: #000000; stroke-width: 0.8"/>
      </defs>
      <g>
       <use xlink:href="#ma480e97154" x="73.832727" y="307.584" style="stroke: #000000; stroke-width: 0.8"/>
      </g>
     </g>
     <g id="text_1">
      <text style="font: 10px 'IPAexGothic'; text-anchor: middle" x="73.832727" y="322.074625" transform="rotate(-0 73.832727 322.074625)">0</text>
     </g>
    </g>
    <g id="xtick_2">
     <g id="line2d_2">
      <g>
       <use xlink:href="#ma480e97154" x="140.102281" y="307.584" style="stroke: #000000; stroke-width: 0.8"/>
      </g>
     </g>
     <g id="text_2">
      <text style="font: 10px 'IPAexGothic'; text-anchor: middle" x="140.102281" y="322.074625" transform="rotate(-0 140.102281 322.074625)">1000</text>
     </g>
    </g>
    <g id="xtick_3">
     <g id="line2d_3">
      <g>
       <use xlink:href="#ma480e97154" x="206.371835" y="307.584" style="stroke: #000000; stroke-width: 0.8"/>
      </g>
     </g>
     <g id="text_3">
      <text style="font: 10px 'IPAexGothic'; text-anchor: middle" x="206.371835" y="322.074625" transform="rotate(-0 206.371835 322.074625)">2000</text>
     </g>
    </g>
    <g id="xtick_4">
     <g id="line2d_4">
      <g>
       <use xlink:href="#ma480e97154" x="272.64139" y="307.584" style="stroke: #000000; stroke-width: 0.8"/>
      </g>
     </g>
     <g id="text_4">
      <text style="font: 10px 'IPAexGothic'; text-anchor: middle" x="272.64139" y="322.074625" transform="rotate(-0 272.64139 322.074625)">3000</text>
     </g>
    </g>
    <g id="xtick_5">
     <g id="line2d_5">
      <g>
       <use xlink:href="#ma480e97154" x="338.910944" y="307.584" style="stroke: #000000; stroke-width: 0.8"/>
      </g>
     </g>
     <g id="text_5">
      <text style="font: 10px 'IPAexGothic'; text-anchor: middle" x="338.910944" y="322.074625" transform="rotate(-0 338.910944 322.074625)">4000</text>
     </g>
    </g>
    <g id="xtick_6">
     <g id="line2d_6">
      <g>
       <use xlink:href="#ma480e97154" x="405.180498" y="307.584" style="stroke: #000000; stroke-width: 0.8"/>
      </g>
     </g>
     <g id="text_6">
      <text style="font: 10px 'IPAexGothic'; text-anchor: middle" x="405.180498" y="322.074625" transform="rotate(-0 405.180498 322.074625)">5000</text>
     </g>
    </g>
    <g id="text_7">
     <text style="font: 10px 'IPAexGothic'; text-anchor: middle" x="236.16" y="335.924625" transform="rotate(-0 236.16 335.924625)">周波数[Hz]</text>
    </g>
   </g>
   <g id="matplotlib.axis_2">
    <g id="ytick_1">
     <g id="line2d_7">
      <defs>
       <path id="m026fa32b72" d="M 0 0 
L -3.5 0 
" style="stroke: #000000; stroke-width: 0.8"/>
      </defs>
      <g>
       <use xlink:href="#m026fa32b72" x="57.6" y="295.489594" style="stroke: #000000; stroke-width: 0.8"/>
      </g>
     </g>
     <g id="text_8">
      <text style="font: 10px 'IPAexGothic'; text-anchor: end" x="50.6" y="299.234907" transform="rotate(-0 50.6 299.234907)">0</text>
     </g>
    </g>
    <g id="ytick_2">
     <g id="line2d_8">
      <g>
       <use xlink:href="#m026fa32b72" x="57.6" y="242.229244" style="stroke: #000000; stroke-width: 0.8"/>
      </g>
     </g>
     <g id="text_9">
      <text style="font: 10px 'IPAexGothic'; text-anchor: end" x="50.6" y="245.974557" transform="rotate(-0 50.6 245.974557)">1</text>
     </g>
    </g>
    <g id="ytick_3">
     <g id="line2d_9">
      <g>
       <use xlink:href="#m026fa32b72" x="57.6" y="188.968894" style="stroke: #000000; stroke-width: 0.8"/>
      </g>
     </g>
     <g id="text_10">
      <text style="font: 10px 'IPAexGothic'; text-anchor: end" x="50.6" y="192.714207" transform="rotate(-0 50.6 192.714207)">2</text>
     </g>
    </g>
    <g id="ytick_4">
     <g id="line2d_10">
      <g>
       <use xlink:href="#m026fa32b72" x="57.6" y="135.708544" style="stroke: #000000; stroke-width: 0.8"/>
      </g>
     </g>
     <g id="text_11">
      <text style="font: 10px 'IPAexGothic'; text-anchor: end" x="50.6" y="139.453857" transform="rotate(-0 50.6 139.453857)">3</text>
     </g>
    </g>
    <g id="ytick_5">
     <g id="line2d_11">
      <g>
       <use xlink:href="#m026fa32b72" x="57.6" y="82.448194" style="stroke: #000000; stroke-width: 0.8"/>
      </g>
     </g>
     <g id="text_12">
      <text style="font: 10px 'IPAexGothic'; text-anchor: end" x="50.6" y="86.193507" transform="rotate(-0 50.6 86.193507)">4</text>
     </g>
    </g>
    <g id="text_13">
     <text style="font: 10px 'IPAexGothic'; text-anchor: middle" x="38.401563" y="174.528" transform="rotate(-90 38.401563 174.528)">振幅</text>
    </g>
    <g id="text_14">
     <text style="font: 10px 'IPAexGothic'; text-anchor: start" x="57.6" y="38.472" transform="rotate(-0 57.6 38.472)">1e7</text>
    </g>
   </g>
   <g id="line2d_12">
    <path d="M 73.832727 295.479672 
L 73.898997 295.400048 
L 73.965266 295.477391 
L 74.164075 295.458323 
L 74.694231 295.462501 
L 76.218431 295.440504 
L 76.35097 295.46225 
L 76.616049 295.425008 
L 76.881127 295.448056 
L 78.471596 295.449353 
L 78.802944 295.464171 
L 80.79103 295.40133 
L 80.8573 294.854719 
L 80.989839 295.398409 
L 81.321187 294.911369 
L 81.519996 295.383838 
L 81.718804 295.376135 
L 81.785074 294.943541 
L 81.851343 295.313277 
L 81.917613 295.290033 
L 82.050152 295.117194 
L 82.182691 295.343677 
L 82.248961 294.880056 
L 82.31523 295.155553 
L 82.447769 295.456691 
L 82.712848 295.406398 
L 82.845387 295.45482 
L 83.110465 295.4186 
L 83.176734 295.295132 
L 83.243004 295.335435 
L 83.441813 295.424637 
L 83.574352 295.389676 
L 83.640621 295.085737 
L 83.83943 295.436797 
L 84.104508 295.430214 
L 84.170778 295.318369 
L 84.237047 295.404857 
L 84.435856 295.41918 
L 84.502125 295.395526 
L 84.568395 295.161172 
L 84.634665 295.240402 
L 84.966012 295.476964 
L 85.098551 295.333292 
L 85.231091 295.47375 
L 85.694977 295.481569 
L 86.689021 295.461484 
L 88.213221 295.353595 
L 88.27949 295.262002 
L 88.34576 294.952413 
L 88.544568 295.304138 
L 89.207264 295.422619 
L 89.339803 295.444884 
L 89.604881 295.469008 
L 90.135038 295.420345 
L 90.267577 295.218882 
L 90.466385 295.426955 
L 90.598924 295.377979 
L 90.665194 295.227799 
L 90.731464 295.333379 
L 90.930272 295.4416 
L 92.123124 295.361069 
L 92.454472 295.417956 
L 92.653281 295.437257 
L 93.846133 295.398288 
L 93.912402 295.378903 
L 93.978672 295.480667 
L 94.044941 295.413735 
L 94.376289 295.443579 
L 94.442559 295.358166 
L 94.508828 295.412802 
L 94.906445 295.294015 
L 95.105254 295.397553 
L 95.635411 295.407977 
L 95.76795 295.338734 
L 95.834219 294.976941 
L 96.033028 295.407264 
L 98.087384 295.423789 
L 98.153654 295.365896 
L 98.219923 295.451487 
L 98.418732 295.476 
L 98.551271 295.433491 
L 98.68381 295.404076 
L 98.882619 295.459904 
L 101.997288 295.357362 
L 102.262366 295.380813 
L 102.527444 295.368478 
L 102.792522 295.387812 
L 102.858792 295.06205 
L 102.925062 295.328682 
L 102.991331 295.236288 
L 103.19014 295.364262 
L 103.256409 295.459366 
L 103.322679 295.161344 
L 103.388948 295.334776 
L 103.720296 295.435515 
L 103.786566 295.372748 
L 103.852835 295.444135 
L 104.250453 295.429819 
L 104.515531 295.42676 
L 106.569887 295.453941 
L 106.636157 295.237766 
L 106.702426 295.388908 
L 106.901235 295.388373 
L 110.744869 295.458925 
L 110.811138 295.395878 
L 110.877408 295.471028 
L 111.208756 295.440582 
L 111.540104 295.453985 
L 112.07026 295.445777 
L 112.600416 295.460396 
L 112.732956 295.338068 
L 112.865495 295.44393 
L 113.196842 295.348192 
L 113.395651 295.436085 
L 113.859538 295.458956 
L 115.383738 295.471164 
L 116.57659 295.465272 
L 118.432137 295.47489 
L 119.094833 295.445161 
L 120.088876 295.421318 
L 131.42097 295.444358 
L 132.216204 295.447896 
L 132.613822 295.456481 
L 139.373316 295.405738 
L 139.969742 295.404341 
L 143.018142 295.419931 
L 143.482029 295.387104 
L 145.602654 295.405515 
L 146.397889 295.41307 
L 147.126854 295.420098 
L 151.831992 295.431469 
L 171.779128 295.357299 
L 172.044206 295.321938 
L 172.110476 295.361256 
L 172.176746 295.214618 
L 172.243015 295.389282 
L 172.309285 295.349358 
L 172.574363 295.371433 
L 172.640632 295.198975 
L 172.706902 295.295991 
L 175.490223 295.299752 
L 175.689032 295.285999 
L 176.815614 295.279434 
L 176.948153 295.276542 
L 177.213232 295.289786 
L 178.141005 295.250645 
L 178.207275 295.392244 
L 178.273545 295.083581 
L 178.339814 295.229925 
L 178.671162 295.189351 
L 178.803701 295.218047 
L 179.333857 295.167523 
L 179.598936 295.225869 
L 179.665205 295.098267 
L 179.731475 295.166854 
L 183.310031 294.923166 
L 183.3763 294.783734 
L 183.44257 294.870255 
L 183.508839 294.815333 
L 183.575109 294.904518 
L 183.773917 294.935217 
L 183.840187 294.70041 
L 183.972726 294.904142 
L 184.105265 294.879446 
L 184.304074 294.89672 
L 184.502883 294.890006 
L 184.635422 294.871818 
L 185.099309 294.823449 
L 185.231848 294.824774 
L 185.298117 294.927826 
L 185.364387 294.850226 
L 185.629465 294.68711 
L 185.695735 294.813348 
L 185.762004 294.725711 
L 185.894543 294.714433 
L 186.225891 294.513172 
L 186.292161 294.906702 
L 186.35843 294.744978 
L 186.623508 294.546741 
L 186.689778 294.796644 
L 186.756047 294.580649 
L 186.822317 294.66429 
L 187.087395 294.647223 
L 187.153665 295.252324 
L 187.286204 293.440905 
L 187.485013 294.342119 
L 187.551282 294.164846 
L 187.617552 294.867936 
L 187.683821 294.121475 
L 187.750091 294.332989 
L 187.81636 294.472053 
L 187.88263 293.887143 
L 187.948899 294.174478 
L 188.015169 294.310383 
L 188.081439 293.698883 
L 188.147708 293.922198 
L 188.213978 293.861665 
L 188.280247 293.970403 
L 188.545325 293.50035 
L 188.611595 294.130289 
L 188.677864 293.890641 
L 188.744134 293.871038 
L 188.942943 293.17048 
L 189.009212 294.236337 
L 189.075482 293.040264 
L 189.141751 293.541424 
L 189.34056 292.43976 
L 189.40683 293.070503 
L 189.473099 292.397965 
L 189.539369 292.823577 
L 189.804447 291.596337 
L 189.870716 292.106446 
L 189.936986 292.091678 
L 190.003256 291.892129 
L 190.400873 287.671259 
L 190.665951 278.5176 
L 190.732221 274.871798 
L 190.79849 261.481516 
L 190.931029 152.879444 
L 191.063568 273.604766 
L 191.328647 289.281248 
L 191.394916 287.291596 
L 191.461186 288.833976 
L 191.527455 287.64185 
L 191.659994 290.180011 
L 191.726264 290.107001 
L 191.792534 290.042646 
L 191.991342 292.47735 
L 192.190151 292.339065 
L 192.25642 292.481421 
L 192.32269 293.320435 
L 192.38896 292.887005 
L 192.455229 292.812333 
L 192.587768 293.283397 
L 192.654038 292.984365 
L 192.720307 293.709484 
L 192.786577 292.658574 
L 192.852846 293.346495 
L 192.985386 293.445168 
L 193.117925 293.85783 
L 193.184194 293.380455 
L 193.250464 294.242959 
L 193.316733 293.681452 
L 193.383003 294.030727 
L 193.449272 293.805007 
L 193.648081 294.425003 
L 193.714351 293.723808 
L 193.78062 293.770587 
L 193.84689 293.878239 
L 193.913159 294.210474 
L 193.979429 294.143379 
L 194.045698 294.0889 
L 194.244507 294.641731 
L 194.310777 294.602312 
L 194.443316 294.28551 
L 194.509585 294.32719 
L 194.575855 294.699743 
L 194.642124 293.935103 
L 194.774663 294.863024 
L 194.907203 294.715407 
L 195.039742 294.951463 
L 195.106011 294.6415 
L 195.172281 294.829291 
L 195.23855 294.696894 
L 195.30482 294.732056 
L 195.371089 294.873749 
L 195.437359 294.808738 
L 195.636168 295.098855 
L 195.768707 294.855774 
L 195.901246 295.006344 
L 195.967515 294.946241 
L 196.033785 295.102439 
L 196.100055 294.876768 
L 196.166324 294.945214 
L 196.497672 294.936237 
L 196.563941 295.253858 
L 196.630211 295.119154 
L 196.82902 295.182974 
L 196.895289 295.145354 
L 196.961559 295.247247 
L 197.027828 295.038009 
L 197.094098 295.171322 
L 197.226637 295.169134 
L 197.359176 295.288513 
L 197.557985 295.241858 
L 197.955602 295.335542 
L 198.28695 295.300553 
L 198.353219 295.409429 
L 198.419489 295.198615 
L 198.485759 295.333087 
L 198.750837 295.298391 
L 198.817106 295.368932 
L 198.883376 295.280382 
L 199.214724 295.349913 
L 199.67861 295.325306 
L 199.877419 295.315829 
L 200.606384 295.312653 
L 201.600428 295.272192 
L 201.732967 295.280074 
L 201.998045 295.296572 
L 202.395662 295.303026 
L 211.143243 295.386709 
L 211.540861 295.393952 
L 212.402365 295.417772 
L 212.998791 295.322176 
L 213.263869 295.398816 
L 213.396408 295.393944 
L 213.794025 295.420762 
L 214.986877 295.442611 
L 215.517034 295.42326 
L 216.179729 295.46677 
L 216.776155 295.472602 
L 217.703929 295.478095 
L 230.162605 295.370173 
L 230.228875 295.152511 
L 230.427684 295.421342 
L 231.090379 295.444676 
L 231.289188 295.437497 
L 235.729248 295.472064 
L 239.108995 295.462407 
L 239.440343 295.418814 
L 239.83796 295.435445 
L 240.964543 295.453386 
L 241.229621 295.440309 
L 241.892316 295.419417 
L 242.091125 295.334106 
L 242.82009 295.459031 
L 243.018899 295.434035 
L 244.211751 295.452995 
L 244.609368 295.449425 
L 246.663724 295.427903 
L 247.127611 295.473091 
L 247.458959 295.461754 
L 247.790307 295.448346 
L 248.85062 295.457851 
L 248.983159 295.206398 
L 249.049428 295.436616 
L 249.115698 295.345381 
L 249.447046 295.092286 
L 249.513315 295.40794 
L 249.579585 295.386345 
L 250.639898 295.440573 
L 251.236324 295.44177 
L 251.501402 295.438635 
L 257.333123 295.441388 
L 257.73074 295.44266 
L 266.279512 295.416434 
L 266.61086 295.393833 
L 267.008477 295.404354 
L 270.719572 295.380214 
L 270.852112 295.403141 
L 270.918381 295.324798 
L 270.984651 295.415002 
L 271.448538 295.211569 
L 271.581077 295.412381 
L 272.773929 295.37315 
L 275.093363 295.362509 
L 275.159633 295.260057 
L 275.225902 295.414956 
L 275.292172 295.350435 
L 275.623519 295.354624 
L 275.888598 295.358749 
L 276.286215 295.353885 
L 276.882641 295.355641 
L 277.213989 295.346233 
L 277.479067 295.365256 
L 277.677876 295.356108 
L 277.942954 295.388387 
L 278.009223 295.30631 
L 278.075493 295.367557 
L 278.406841 295.376103 
L 278.738188 295.391687 
L 279.003267 295.372272 
L 279.732232 295.379601 
L 281.388971 295.387208 
L 281.852858 295.4079 
L 282.117936 295.406755 
L 282.184205 295.472008 
L 282.250475 295.302365 
L 282.316744 295.425236 
L 282.449284 295.344181 
L 282.581823 295.301163 
L 282.648092 295.425948 
L 282.714362 295.321548 
L 282.846901 295.353869 
L 283.111979 295.311227 
L 283.443327 295.366461 
L 284.039753 295.384341 
L 284.304831 295.34199 
L 284.636179 295.36725 
L 285.166335 295.367234 
L 285.563953 295.371647 
L 285.8953 295.370114 
L 285.96157 295.268316 
L 286.094109 295.385894 
L 286.491726 295.352621 
L 286.823074 295.364998 
L 286.955613 295.392025 
L 287.286961 295.370636 
L 287.552039 295.39678 
L 287.817117 295.387632 
L 288.082196 295.414102 
L 288.413543 295.400829 
L 288.9437 295.400509 
L 289.672665 295.304934 
L 289.805204 295.44344 
L 290.070282 295.417422 
L 290.202821 295.400343 
L 290.534169 295.440441 
L 290.732978 295.436066 
L 293.715108 295.443807 
L 293.847647 295.447693 
L 293.980186 295.41889 
L 294.178995 295.445827 
L 294.377803 295.380732 
L 294.510342 295.416807 
L 295.239307 295.445894 
L 295.438116 295.418708 
L 295.769464 295.377668 
L 295.902003 295.434947 
L 296.697238 295.399776 
L 297.161125 295.399307 
L 297.359933 295.379875 
L 297.625011 295.37197 
L 297.757551 295.39436 
L 298.817863 295.375311 
L 299.016672 295.387513 
L 299.215481 295.327581 
L 299.34802 295.423195 
L 299.546828 295.260728 
L 299.613098 295.413472 
L 299.679368 295.36721 
L 300.010715 295.374575 
L 300.408333 295.358582 
L 300.474602 294.879439 
L 300.540872 295.356577 
L 300.607141 295.282368 
L 300.87222 295.413931 
L 300.938489 295.19612 
L 301.004759 295.291262 
L 301.137298 295.337061 
L 301.336106 295.473978 
L 301.402376 295.158622 
L 301.468646 295.336993 
L 301.667454 295.373244 
L 301.733724 295.380793 
L 301.932532 295.089896 
L 302.131341 295.325121 
L 302.26388 295.397988 
L 302.33015 294.790938 
L 302.528958 295.402328 
L 302.727767 295.156822 
L 302.794037 295.305172 
L 302.860306 295.010685 
L 302.926576 295.189632 
L 302.992845 295.224353 
L 303.059115 295.133064 
L 303.125384 295.296128 
L 303.191654 295.26693 
L 303.257924 294.750295 
L 303.324193 294.810479 
L 303.390463 295.099508 
L 303.456732 294.958937 
L 303.589271 294.975972 
L 303.655541 295.190597 
L 303.72181 294.60784 
L 303.78808 294.749034 
L 303.854349 295.272636 
L 303.920619 295.16326 
L 303.986889 295.227291 
L 304.185697 293.944284 
L 304.251967 292.805596 
L 304.450775 294.735274 
L 304.517045 294.907301 
L 304.715854 293.798318 
L 304.914662 295.028166 
L 304.980932 294.873918 
L 305.047201 295.110751 
L 305.31228 294.318868 
L 305.444819 294.648308 
L 305.643627 293.686422 
L 305.709897 294.700941 
L 305.776167 294.221371 
L 305.842436 293.921237 
L 305.908706 294.612775 
L 305.974975 294.547255 
L 306.041245 293.533321 
L 306.107514 294.504628 
L 306.173784 293.793248 
L 306.240053 294.219003 
L 306.306323 294.653381 
L 306.372593 293.52896 
L 306.438862 293.749595 
L 306.505132 294.697213 
L 306.571401 289.465602 
L 306.637671 293.501975 
L 306.70394 293.41246 
L 307.035288 289.944993 
L 307.101558 294.731545 
L 307.167827 292.055236 
L 307.234097 290.037971 
L 307.366636 292.976758 
L 307.565445 284.907709 
L 307.631714 286.459277 
L 307.764253 279.732269 
L 307.896792 261.905313 
L 307.963062 53.568 
L 308.095601 260.945982 
L 308.22814 285.827878 
L 308.29441 283.943432 
L 308.360679 283.030558 
L 308.426949 291.01193 
L 308.493218 286.875454 
L 308.559488 290.879105 
L 308.625757 290.416825 
L 308.824566 293.468876 
L 309.023375 288.571269 
L 309.222183 292.354512 
L 309.288453 292.351341 
L 309.354722 290.039998 
L 309.420992 295.160658 
L 309.487262 293.782443 
L 309.553531 293.192747 
L 309.619801 293.539338 
L 309.68607 293.897853 
L 309.75234 293.171306 
L 309.818609 294.561638 
L 309.884879 292.318265 
L 309.951148 293.57817 
L 310.083688 293.246617 
L 310.216227 294.108451 
L 310.282496 292.861481 
L 310.348766 294.21145 
L 310.415035 293.702639 
L 310.481305 294.162418 
L 310.547574 293.852512 
L 310.613844 293.523228 
L 310.746383 294.758271 
L 310.812653 293.657176 
L 310.878922 294.18538 
L 310.945192 294.039387 
L 311.011461 294.147151 
L 311.077731 294.222327 
L 311.21027 292.896498 
L 311.27654 293.620791 
L 311.409079 294.309228 
L 311.607887 292.727036 
L 311.674157 290.724786 
L 311.872966 295.015422 
L 311.939235 294.921169 
L 312.005505 294.750398 
L 312.071774 294.90314 
L 312.138044 294.810472 
L 312.204313 294.312067 
L 312.270583 294.459854 
L 312.469392 294.706053 
L 312.6682 294.32205 
L 312.73447 294.6552 
L 312.800739 294.565684 
L 312.867009 294.42771 
L 312.999548 294.629942 
L 313.065818 294.542297 
L 313.132087 295.119432 
L 313.198357 294.572551 
L 313.264626 294.727472 
L 313.463435 294.54429 
L 313.529704 294.768897 
L 313.595974 294.179046 
L 313.728513 294.649359 
L 313.794783 294.542601 
L 313.861052 294.718346 
L 313.993591 294.502339 
L 314.059861 294.833742 
L 314.12613 294.749613 
L 314.258669 294.679503 
L 314.324939 294.498483 
L 314.391209 294.620207 
L 314.457478 294.792969 
L 314.523748 294.672152 
L 314.656287 294.549465 
L 314.722556 294.73027 
L 314.788826 294.58083 
L 314.855095 294.636102 
L 314.921365 294.802011 
L 314.987635 294.54429 
L 315.053904 294.89968 
L 315.120174 294.733353 
L 315.252713 294.757916 
L 315.318982 294.815563 
L 315.385252 294.60552 
L 315.451521 294.778762 
L 315.517791 294.574473 
L 315.65033 294.799455 
L 315.915408 294.576845 
L 316.114217 294.773165 
L 316.313026 294.740993 
L 316.379295 294.888227 
L 316.445565 294.745659 
L 316.511834 294.816772 
L 316.710643 294.857746 
L 316.776913 294.748011 
L 316.843182 294.841364 
L 317.17453 294.858885 
L 317.373339 294.932525 
L 317.439608 294.858222 
L 317.505878 294.967747 
L 317.572147 294.911461 
L 317.704686 294.86395 
L 317.969765 294.972367 
L 318.036034 294.969713 
L 318.168573 294.879857 
L 318.301112 294.940894 
L 318.63246 294.963902 
L 318.69873 294.89063 
L 318.831269 295.031187 
L 318.963808 295.002542 
L 319.361425 295.077023 
L 319.560234 295.020239 
L 319.825312 295.066145 
L 321.349512 295.136571 
L 321.54832 295.228356 
L 321.61459 295.006718 
L 321.68086 295.144885 
L 321.747129 295.211143 
L 321.945938 294.953407 
L 322.012207 295.339677 
L 322.078477 294.941432 
L 322.144746 295.051591 
L 323.337598 295.189115 
L 323.403868 295.089754 
L 323.470138 295.155829 
L 324.132833 295.211527 
L 324.331642 295.259038 
L 324.397911 295.157608 
L 324.464181 295.207872 
L 325.060607 295.271537 
L 325.922111 295.248333 
L 326.12092 295.267519 
L 326.319728 295.286664 
L 326.982424 295.279458 
L 327.51258 295.305508 
L 328.440354 295.306674 
L 329.699476 295.326946 
L 330.693519 295.337579 
L 333.211762 295.362812 
L 333.808188 295.373132 
L 336.45897 295.450764 
L 336.52524 295.178545 
L 336.591509 295.321164 
L 336.856587 295.355717 
L 337.585553 295.395904 
L 339.308561 295.379522 
L 339.706178 295.399923 
L 340.9653 295.4143 
L 342.4895 295.412072 
L 351.899776 295.424235 
L 352.098585 295.387554 
L 368.798512 295.352178 
L 368.864782 295.136553 
L 368.931052 295.263855 
L 369.19613 295.339377 
L 369.262399 295.378039 
L 369.328669 295.269433 
L 369.394938 295.342349 
L 369.726286 295.282139 
L 369.792556 295.460345 
L 369.858825 295.342134 
L 370.190173 295.397531 
L 370.388982 295.329554 
L 371.051677 295.354949 
L 371.316756 295.366361 
L 371.581834 295.385101 
L 371.648103 295.255728 
L 371.780642 295.361589 
L 372.973494 295.362771 
L 373.039764 295.178038 
L 373.106034 295.451294 
L 373.172303 295.401602 
L 373.503651 295.396356 
L 373.56992 295.233127 
L 373.70246 295.390372 
L 374.033807 295.239328 
L 374.232616 295.35804 
L 374.497694 295.307501 
L 374.762772 295.483253 
L 374.829042 295.385653 
L 374.961581 294.616379 
L 375.027851 295.357379 
L 375.09412 295.064119 
L 375.292929 294.132588 
L 375.359198 293.045901 
L 375.425468 293.615209 
L 375.491737 295.282874 
L 375.558007 295.209658 
L 375.624277 295.227869 
L 375.690546 295.426405 
L 375.756816 295.314889 
L 375.889355 295.026892 
L 376.021894 295.466534 
L 376.154433 295.395565 
L 376.220703 295.440048 
L 376.353242 295.266557 
L 376.55205 295.411935 
L 376.750859 295.344289 
L 376.817129 295.078307 
L 376.883398 295.403179 
L 376.949668 295.369198 
L 377.678633 295.457106 
L 377.744902 295.297886 
L 377.811172 295.366991 
L 378.208789 295.311537 
L 378.341328 295.408723 
L 391.727778 295.426866 
L 392.191665 295.450348 
L 393.119439 295.43725 
L 398.487273 295.43052 
L 398.487273 295.43052 
" clip-path="url(#pda129dc098)" style="fill: none; stroke: #1f77b4; stroke-width: 1.5; stroke-linecap: square"/>
   </g>
   <g id="patch_3">
    <path d="M 57.6 307.584 
L 57.6 41.472 
" style="fill: none; stroke: #000000; stroke-width: 0.8; stroke-linejoin: miter; stroke-linecap: square"/>
   </g>
   <g id="patch_4">
    <path d="M 414.72 307.584 
L 414.72 41.472 
" style="fill: none; stroke: #000000; stroke-width: 0.8; stroke-linejoin: miter; stroke-linecap: square"/>
   </g>
   <g id="patch_5">
    <path d="M 57.6 307.584 
L 414.72 307.584 
" style="fill: none; stroke: #000000; stroke-width: 0.8; stroke-linejoin: miter; stroke-linecap: square"/>
   </g>
   <g id="patch_6">
    <path d="M 57.6 41.472 
L 414.72 41.472 
" style="fill: none; stroke: #000000; stroke-width: 0.8; stroke-linejoin: miter; stroke-linecap: square"/>
   </g>
   <g id="text_15">
    <text style="font: 12px 'IPAexGothic'; text-anchor: middle" x="236.16" y="35.472" transform="rotate(-0 236.16 35.472)">"017_A6.wav"の振幅スペクトル</text>
   </g>
  </g>
 </g>
 <defs>
  <clipPath id="pda129dc098">
   <rect x="57.6" y="41.472" width="357.12" height="266.112"/>
  </clipPath>
 </defs>
</svg>
