<?xml version="1.0" encoding="utf-8" standalone="no"?>
<!DOCTYPE svg PUBLIC "-//W3C//DTD SVG 1.1//EN"
  "http://www.w3.org/Graphics/SVG/1.1/DTD/svg11.dtd">
<svg xmlns:xlink="http://www.w3.org/1999/xlink" width="460.8pt" height="345.6pt" viewBox="0 0 460.8 345.6" xmlns="http://www.w3.org/2000/svg" version="1.1">
 <metadata>
  <rdf:RDF xmlns:dc="http://purl.org/dc/elements/1.1/" xmlns:cc="http://creativecommons.org/ns#" xmlns:rdf="http://www.w3.org/1999/02/22-rdf-syntax-ns#">
   <cc:Work>
    <dc:type rdf:resource="http://purl.org/dc/dcmitype/StillImage"/>
    <dc:date>2022-11-28T12:32:17.091359</dc:date>
    <dc:format>image/svg+xml</dc:format>
    <dc:creator>
     <cc:Agent>
      <dc:title>Matplotlib v3.6.2, https://matplotlib.org/</dc:title>
     </cc:Agent>
    </dc:creator>
   </cc:Work>
  </rdf:RDF>
 </metadata>
 <defs>
  <style type="text/css">*{stroke-linejoin: round; stroke-linecap: butt}</style>
 </defs>
 <g id="figure_1">
  <g id="patch_1">
   <path d="M 0 345.6 
L 460.8 345.6 
L 460.8 0 
L 0 0 
z
" style="fill: #ffffff"/>
  </g>
  <g id="axes_1">
   <g id="patch_2">
    <path d="M 57.6 307.584 
L 414.72 307.584 
L 414.72 41.472 
L 57.6 41.472 
z
" style="fill: #ffffff"/>
   </g>
   <g id="matplotlib.axis_1">
    <g id="xtick_1">
     <g id="line2d_1">
      <defs>
       <path id="mbc029bd69c" d="M 0 0 
L 0 3.5 
" style="stroke: #000000; stroke-width: 0.8"/>
      </defs>
      <g>
       <use xlink:href="#mbc029bd69c" x="73.832727" y="307.584" style="stroke: #000000; stroke-width: 0.8"/>
      </g>
     </g>
     <g id="text_1">
      <text style="font: 10px 'IPAexGothic'; text-anchor: middle" x="73.832727" y="322.074625" transform="rotate(-0 73.832727 322.074625)">0</text>
     </g>
    </g>
    <g id="xtick_2">
     <g id="line2d_2">
      <g>
       <use xlink:href="#mbc029bd69c" x="140.102281" y="307.584" style="stroke: #000000; stroke-width: 0.8"/>
      </g>
     </g>
     <g id="text_2">
      <text style="font: 10px 'IPAexGothic'; text-anchor: middle" x="140.102281" y="322.074625" transform="rotate(-0 140.102281 322.074625)">1000</text>
     </g>
    </g>
    <g id="xtick_3">
     <g id="line2d_3">
      <g>
       <use xlink:href="#mbc029bd69c" x="206.371835" y="307.584" style="stroke: #000000; stroke-width: 0.8"/>
      </g>
     </g>
     <g id="text_3">
      <text style="font: 10px 'IPAexGothic'; text-anchor: middle" x="206.371835" y="322.074625" transform="rotate(-0 206.371835 322.074625)">2000</text>
     </g>
    </g>
    <g id="xtick_4">
     <g id="line2d_4">
      <g>
       <use xlink:href="#mbc029bd69c" x="272.64139" y="307.584" style="stroke: #000000; stroke-width: 0.8"/>
      </g>
     </g>
     <g id="text_4">
      <text style="font: 10px 'IPAexGothic'; text-anchor: middle" x="272.64139" y="322.074625" transform="rotate(-0 272.64139 322.074625)">3000</text>
     </g>
    </g>
    <g id="xtick_5">
     <g id="line2d_5">
      <g>
       <use xlink:href="#mbc029bd69c" x="338.910944" y="307.584" style="stroke: #000000; stroke-width: 0.8"/>
      </g>
     </g>
     <g id="text_5">
      <text style="font: 10px 'IPAexGothic'; text-anchor: middle" x="338.910944" y="322.074625" transform="rotate(-0 338.910944 322.074625)">4000</text>
     </g>
    </g>
    <g id="xtick_6">
     <g id="line2d_6">
      <g>
       <use xlink:href="#mbc029bd69c" x="405.180498" y="307.584" style="stroke: #000000; stroke-width: 0.8"/>
      </g>
     </g>
     <g id="text_6">
      <text style="font: 10px 'IPAexGothic'; text-anchor: middle" x="405.180498" y="322.074625" transform="rotate(-0 405.180498 322.074625)">5000</text>
     </g>
    </g>
    <g id="text_7">
     <text style="font: 10px 'IPAexGothic'; text-anchor: middle" x="236.16" y="335.924625" transform="rotate(-0 236.16 335.924625)">周波数[Hz]</text>
    </g>
   </g>
   <g id="matplotlib.axis_2">
    <g id="ytick_1">
     <g id="line2d_7">
      <defs>
       <path id="ma6c1abe9df" d="M 0 0 
L -3.5 0 
" style="stroke: #000000; stroke-width: 0.8"/>
      </defs>
      <g>
       <use xlink:href="#ma6c1abe9df" x="57.6" y="295.488905" style="stroke: #000000; stroke-width: 0.8"/>
      </g>
     </g>
     <g id="text_8">
      <text style="font: 10px 'IPAexGothic'; text-anchor: end" x="50.6" y="299.234218" transform="rotate(-0 50.6 299.234218)">0.0</text>
     </g>
    </g>
    <g id="ytick_2">
     <g id="line2d_8">
      <g>
       <use xlink:href="#ma6c1abe9df" x="57.6" y="244.254131" style="stroke: #000000; stroke-width: 0.8"/>
      </g>
     </g>
     <g id="text_9">
      <text style="font: 10px 'IPAexGothic'; text-anchor: end" x="50.6" y="247.999444" transform="rotate(-0 50.6 247.999444)">0.5</text>
     </g>
    </g>
    <g id="ytick_3">
     <g id="line2d_9">
      <g>
       <use xlink:href="#ma6c1abe9df" x="57.6" y="193.019357" style="stroke: #000000; stroke-width: 0.8"/>
      </g>
     </g>
     <g id="text_10">
      <text style="font: 10px 'IPAexGothic'; text-anchor: end" x="50.6" y="196.764669" transform="rotate(-0 50.6 196.764669)">1.0</text>
     </g>
    </g>
    <g id="ytick_4">
     <g id="line2d_10">
      <g>
       <use xlink:href="#ma6c1abe9df" x="57.6" y="141.784583" style="stroke: #000000; stroke-width: 0.8"/>
      </g>
     </g>
     <g id="text_11">
      <text style="font: 10px 'IPAexGothic'; text-anchor: end" x="50.6" y="145.529895" transform="rotate(-0 50.6 145.529895)">1.5</text>
     </g>
    </g>
    <g id="ytick_5">
     <g id="line2d_11">
      <g>
       <use xlink:href="#ma6c1abe9df" x="57.6" y="90.549808" style="stroke: #000000; stroke-width: 0.8"/>
      </g>
     </g>
     <g id="text_12">
      <text style="font: 10px 'IPAexGothic'; text-anchor: end" x="50.6" y="94.295121" transform="rotate(-0 50.6 94.295121)">2.0</text>
     </g>
    </g>
    <g id="text_13">
     <text style="font: 10px 'IPAexGothic'; text-anchor: middle" x="29.460938" y="174.528" transform="rotate(-90 29.460938 174.528)">振幅</text>
    </g>
    <g id="text_14">
     <text style="font: 10px 'IPAexGothic'; text-anchor: start" x="57.6" y="38.472" transform="rotate(-0 57.6 38.472)">1e7</text>
    </g>
   </g>
   <g id="line2d_12">
    <path d="M 73.832727 295.261802 
L 73.965266 294.608972 
L 74.031536 294.505518 
L 74.230345 294.654026 
L 74.495423 294.651954 
L 75.224388 294.667263 
L 75.290657 294.565361 
L 75.356927 294.626112 
L 76.152162 294.572789 
L 76.284701 294.642313 
L 76.41724 294.546811 
L 76.483509 294.703844 
L 76.549779 294.57789 
L 76.616049 294.515793 
L 76.682318 294.744513 
L 76.748588 294.198728 
L 76.814857 294.281214 
L 76.881127 294.321294 
L 76.947396 294.520444 
L 77.013666 294.275462 
L 77.079935 294.297544 
L 77.146205 295.349359 
L 77.212475 291.119596 
L 77.278744 294.84742 
L 77.345014 294.535615 
L 77.411283 294.388238 
L 77.477553 294.492512 
L 77.610092 294.443872 
L 77.676361 294.27773 
L 77.742631 294.491691 
L 77.94144 294.027367 
L 78.007709 294.310713 
L 78.073979 294.235093 
L 78.206518 293.965549 
L 78.272787 294.116238 
L 78.339057 294.022703 
L 78.405327 294.109812 
L 78.471596 294.155933 
L 78.670405 293.651025 
L 78.736674 294.184528 
L 78.802944 293.676834 
L 78.869213 293.686095 
L 79.001752 293.756229 
L 79.266831 293.330579 
L 79.3331 293.361188 
L 79.531909 292.646322 
L 79.598178 292.765822 
L 79.730718 292.124166 
L 79.796987 292.241024 
L 79.995796 291.44582 
L 80.062065 291.672886 
L 80.260874 290.532536 
L 80.393413 288.78563 
L 80.658491 282.02172 
L 80.724761 278.809612 
L 80.8573 260.089245 
L 81.056109 207.170193 
L 81.122378 53.568 
L 81.254917 271.757994 
L 81.453726 286.076317 
L 81.785074 290.726908 
L 82.050152 291.932901 
L 82.248961 292.557776 
L 82.3815 292.751953 
L 82.580308 293.566521 
L 82.646578 293.059973 
L 82.712848 293.487956 
L 82.779117 293.441451 
L 82.845387 293.431096 
L 82.977926 293.627379 
L 83.044195 293.401883 
L 83.110465 293.82459 
L 83.176734 293.699018 
L 83.441813 293.965327 
L 83.508082 293.791815 
L 83.574352 293.862606 
L 83.706891 294.137332 
L 83.77316 293.894562 
L 83.905699 294.492033 
L 83.971969 293.816562 
L 84.038239 294.651423 
L 84.104508 294.277257 
L 84.170778 294.355305 
L 84.303317 294.202247 
L 84.435856 294.307326 
L 84.502125 294.148989 
L 84.568395 294.431187 
L 84.634665 294.304647 
L 84.700934 294.241161 
L 84.833473 294.461808 
L 84.899743 294.414564 
L 84.966012 294.199723 
L 85.032282 294.254534 
L 85.164821 294.354588 
L 85.231091 294.299634 
L 85.36363 294.426594 
L 85.628708 294.305163 
L 86.026325 294.305035 
L 86.357673 294.175196 
L 86.423943 293.966006 
L 86.490212 294.169339 
L 86.556482 294.122327 
L 86.82156 294.005407 
L 86.887829 294.026961 
L 87.086638 293.708343 
L 87.219177 293.737892 
L 87.351716 293.640456 
L 87.417986 293.704989 
L 87.616795 293.270573 
L 87.683064 293.345745 
L 87.815603 294.538208 
L 88.146951 284.168036 
L 88.27949 254.10455 
L 88.412029 173.337953 
L 88.544568 286.300857 
L 88.677107 288.172207 
L 88.942186 292.375657 
L 89.273533 293.667138 
L 89.339803 293.702968 
L 89.538612 294.14985 
L 89.671151 294.255586 
L 90.068768 294.687413 
L 90.135038 294.614886 
L 90.267577 294.936079 
L 90.333846 294.557392 
L 90.400116 294.766069 
L 90.996542 295.006199 
L 91.129081 294.969168 
L 91.26162 295.081848 
L 91.394159 294.985578 
L 91.592968 295.041517 
L 92.189394 295.046372 
L 92.255663 294.847909 
L 92.321933 295.080378 
L 92.388202 295.045508 
L 92.454472 295.108577 
L 92.653281 294.987198 
L 92.71955 295.023189 
L 92.78582 294.920153 
L 92.852089 294.975037 
L 93.050898 294.92275 
L 93.846133 294.600083 
L 94.044941 294.494693 
L 94.310019 294.25861 
L 94.641367 293.752949 
L 94.906445 292.785774 
L 95.038985 291.86082 
L 95.171524 291.989161 
L 95.237793 292.401071 
L 95.304063 294.663798 
L 95.370332 294.531898 
L 95.502871 278.800653 
L 95.70168 198.238967 
L 95.834219 286.722334 
L 96.231837 292.436058 
L 96.496915 293.208362 
L 96.894532 294.015978 
L 97.424689 294.372661 
L 97.557228 294.300017 
L 97.822306 294.597676 
L 98.153654 294.744149 
L 98.286193 294.713014 
L 98.485001 294.72969 
L 98.551271 294.684982 
L 98.75008 294.828364 
L 99.081427 294.739892 
L 99.213966 294.853697 
L 99.479045 294.924745 
L 99.545314 294.712459 
L 99.611584 295.026985 
L 99.677853 294.924305 
L 99.876662 294.977665 
L 100.20801 294.914325 
L 100.406818 294.983432 
L 100.473088 294.988694 
L 100.539358 294.793313 
L 100.605627 295.021988 
L 100.671897 294.902432 
L 100.936975 295.032027 
L 101.003244 294.742053 
L 101.069514 294.905497 
L 101.400862 294.919942 
L 101.467131 295.023668 
L 101.533401 294.820057 
L 101.59967 294.911595 
L 101.66594 294.811188 
L 101.73221 294.865208 
L 101.864749 295.051098 
L 101.931018 295.183295 
L 101.997288 295.086785 
L 102.196096 294.724639 
L 102.262366 294.806047 
L 102.328636 294.446875 
L 102.593714 287.68904 
L 102.726253 283.614157 
L 102.792522 284.478116 
L 102.858792 283.105398 
L 102.925062 260.867386 
L 102.991331 274.368539 
L 103.12387 293.373457 
L 103.388948 294.383047 
L 103.455218 294.142466 
L 103.587757 294.827547 
L 103.720296 294.815534 
L 103.919105 295.225963 
L 103.985374 294.95536 
L 104.051644 295.148588 
L 104.184183 294.998556 
L 104.382992 295.166003 
L 104.449261 295.089766 
L 104.515531 295.160354 
L 105.244496 295.180246 
L 105.310765 295.106181 
L 105.509574 295.250778 
L 105.840922 295.182212 
L 105.907191 295.283257 
L 105.973461 295.220903 
L 106.238539 295.240806 
L 106.304809 295.129142 
L 106.371078 295.183243 
L 106.437348 295.304909 
L 106.503617 295.231686 
L 106.834965 295.211572 
L 106.901235 295.303872 
L 106.967504 295.209047 
L 107.100043 295.19519 
L 107.232583 295.213192 
L 107.56393 295.113058 
L 107.696469 295.123368 
L 107.829009 295.020269 
L 108.027817 295.078289 
L 108.690513 294.953713 
L 108.756782 295.111553 
L 108.955591 294.699982 
L 109.02186 294.611755 
L 109.220669 294.974754 
L 109.286939 294.863945 
L 109.419478 295.132228 
L 109.485747 294.941842 
L 109.618286 292.721621 
L 109.949634 283.105984 
L 110.015904 286.403377 
L 110.082173 285.056283 
L 110.148443 284.876873 
L 110.214712 226.485593 
L 110.280982 260.750323 
L 110.413521 290.848656 
L 110.811138 293.862685 
L 110.943678 293.905958 
L 111.341295 294.627834 
L 111.407564 294.528458 
L 111.473834 294.592257 
L 111.738912 294.842355 
L 112.07026 294.911631 
L 112.13653 295.013922 
L 112.202799 294.920849 
L 112.269069 294.977036 
L 112.335338 294.898161 
L 112.998034 295.069676 
L 113.329382 295.114715 
L 113.59446 295.151422 
L 113.793268 295.115976 
L 114.058347 295.222744 
L 114.124616 295.109975 
L 114.190886 295.17 
L 114.323425 295.180192 
L 114.588503 295.239842 
L 114.654773 295.138186 
L 114.721042 295.200008 
L 115.251199 295.178511 
L 115.516277 295.326144 
L 115.582546 295.120534 
L 115.648816 295.228339 
L 116.046433 295.358485 
L 116.112703 295.127743 
L 116.178972 295.258779 
L 116.377781 295.144245 
L 116.642859 294.553192 
L 116.841668 294.820836 
L 116.907937 294.738082 
L 116.974207 294.557827 
L 117.106746 291.700892 
L 117.305555 284.311229 
L 117.371824 285.207938 
L 117.438094 285.551327 
L 117.504363 257.587863 
L 117.703172 293.190274 
L 118.167059 294.56052 
L 118.365868 294.670694 
L 118.630946 294.898246 
L 118.896024 294.937371 
L 118.962294 295.043285 
L 119.028563 294.92942 
L 119.094833 294.99682 
L 119.359911 295.017676 
L 119.691259 295.041228 
L 119.890067 295.011821 
L 119.956337 295.162009 
L 120.022606 295.105615 
L 120.287685 295.118495 
L 120.884111 295.11456 
L 121.01665 295.166327 
L 123.99878 295.212465 
L 124.462667 293.378437 
L 124.727745 290.229072 
L 124.794014 277.562607 
L 124.992823 293.751327 
L 125.257901 294.633071 
L 125.324171 294.570504 
L 125.522979 294.708012 
L 125.721788 294.804414 
L 125.788058 294.883315 
L 125.854327 294.812173 
L 126.251945 294.973311 
L 126.384484 294.91062 
L 126.649562 294.957883 
L 126.715831 294.989141 
L 126.782101 294.782785 
L 126.91464 294.952991 
L 127.179718 294.91589 
L 127.312257 294.936596 
L 129.101535 294.90732 
L 129.234074 294.861123 
L 129.631692 294.781785 
L 129.697961 294.881327 
L 129.764231 294.834212 
L 129.96304 294.82411 
L 130.095579 294.670882 
L 130.228118 294.884874 
L 130.559466 294.539077 
L 130.758274 294.801557 
L 131.023352 294.389473 
L 131.42097 292.428002 
L 131.487239 291.668541 
L 131.619778 292.4313 
L 131.686048 292.365722 
L 131.752318 291.928127 
L 131.884857 286.323872 
L 132.017396 272.636004 
L 132.083665 243.874693 
L 132.216204 289.334563 
L 132.415013 293.655083 
L 132.613822 294.45519 
L 132.81263 294.741813 
L 133.011439 295.183256 
L 133.077709 295.052027 
L 133.409056 295.096266 
L 133.541596 295.277656 
L 133.674135 295.064091 
L 133.939213 295.101706 
L 134.005482 295.034174 
L 134.071752 295.250787 
L 134.204291 295.003626 
L 134.270561 295.123134 
L 134.33683 295.080814 
L 134.535639 295.038841 
L 134.866987 294.987717 
L 134.933256 294.893844 
L 134.999526 295.098734 
L 135.065795 295.02382 
L 135.132065 295.111622 
L 135.330873 294.897786 
L 135.529682 294.885493 
L 135.595952 294.805917 
L 135.662221 294.913413 
L 135.728491 294.847087 
L 135.927299 294.453268 
L 135.993569 294.968135 
L 136.059839 294.832925 
L 136.192378 294.841524 
L 136.258647 294.829892 
L 136.457456 293.877979 
L 136.523725 294.764564 
L 136.589995 294.390368 
L 136.722534 294.674011 
L 136.921343 294.141092 
L 136.987612 294.633744 
L 137.053882 294.409883 
L 137.120151 294.457003 
L 137.252691 294.272438 
L 137.31896 294.499831 
L 137.38523 293.767025 
L 137.517769 294.874024 
L 138.180464 292.630335 
L 138.379273 291.035077 
L 138.511812 293.718995 
L 138.578082 293.647695 
L 138.644351 292.427176 
L 138.77689 284.088883 
L 138.975699 253.634312 
L 139.041968 274.310591 
L 139.108238 271.39373 
L 139.174508 270.341526 
L 139.373316 141.176604 
L 139.505855 277.456568 
L 139.704664 288.369836 
L 139.903473 291.003137 
L 140.168551 292.505419 
L 140.23482 292.633431 
L 140.30109 294.079809 
L 140.36736 293.278591 
L 140.499899 293.153928 
L 140.764977 294.116856 
L 140.831246 294.181347 
L 140.963786 293.878893 
L 141.162594 294.168957 
L 141.295133 294.430271 
L 141.427672 294.164256 
L 141.560212 294.427537 
L 141.75902 294.278863 
L 141.82529 294.900854 
L 141.891559 294.599577 
L 142.156638 294.554437 
L 142.222907 294.318744 
L 142.355446 294.903155 
L 142.421716 294.845811 
L 142.554255 294.707995 
L 142.620524 294.706491 
L 142.686794 294.900157 
L 142.753064 294.645734 
L 142.819333 294.732909 
L 142.885603 294.751307 
L 142.951872 294.905451 
L 143.018142 294.800325 
L 143.084411 294.721812 
L 143.150681 294.874651 
L 143.21695 294.308357 
L 143.28322 294.689108 
L 143.415759 295.031322 
L 143.482029 294.90913 
L 143.548298 294.789221 
L 143.614568 294.848543 
L 143.680837 295.048682 
L 143.747107 294.756909 
L 143.813376 294.797197 
L 143.879646 294.694684 
L 143.945915 295.122943 
L 144.012185 294.999751 
L 144.078455 294.819256 
L 144.144724 295.138944 
L 144.210994 294.682336 
L 144.343533 295.054212 
L 144.476072 294.926081 
L 144.608611 295.130698 
L 144.74115 294.759915 
L 144.80742 294.866258 
L 144.939959 294.50829 
L 145.006228 294.585247 
L 145.205037 295.14064 
L 145.403846 293.821884 
L 145.536385 293.527977 
L 145.602654 293.273896 
L 145.668924 293.343424 
L 145.735193 293.296027 
L 145.801463 293.577079 
L 146.066541 286.451455 
L 146.26535 277.668338 
L 146.464159 284.123151 
L 146.530428 277.706684 
L 146.662967 250.190616 
L 146.795506 291.67421 
L 146.861776 291.762222 
L 147.193124 294.415028 
L 147.325663 294.13254 
L 147.524471 294.550628 
L 147.590741 294.616034 
L 147.657011 294.960816 
L 147.72328 294.633346 
L 147.78955 294.657508 
L 147.988358 294.863508 
L 148.054628 294.782727 
L 148.187167 294.927919 
L 148.319706 294.923069 
L 148.518515 295.136079 
L 148.584784 294.767411 
L 148.651054 295.027865 
L 148.717323 294.884221 
L 148.849862 295.0264 
L 148.916132 295.003366 
L 148.982402 295.119122 
L 149.048671 294.820267 
L 149.114941 295.032349 
L 149.380019 295.100196 
L 149.512558 295.160831 
L 149.578828 295.001817 
L 149.645097 295.113573 
L 149.777636 295.089093 
L 149.976445 295.169805 
L 150.175254 295.021084 
L 150.440332 295.223897 
L 150.572871 294.954373 
L 150.970488 295.163261 
L 151.169297 295.031272 
L 151.500645 295.186231 
L 151.765723 295.043102 
L 152.097071 294.951628 
L 152.295879 294.840668 
L 152.428418 295.062846 
L 152.759766 295.066805 
L 152.826036 295.103177 
L 153.157384 293.084613 
L 153.289923 294.0786 
L 153.422462 292.738072 
L 153.62127 288.868877 
L 153.68754 289.015368 
L 153.753809 291.027068 
L 153.820079 286.132536 
L 153.886349 259.795181 
L 153.952618 262.897298 
L 154.085157 292.368409 
L 154.151427 292.663907 
L 154.350235 294.323356 
L 154.416505 294.086388 
L 154.615314 294.67675 
L 155.278009 295.147087 
L 155.344279 295.186803 
L 155.410548 295.029656 
L 155.543087 295.18834 
L 155.675627 295.180387 
L 155.808166 295.293297 
L 155.874435 295.12947 
L 155.940705 295.291592 
L 156.006974 295.261919 
L 156.139513 295.259536 
L 156.6034 295.322413 
L 157.001018 295.292504 
L 157.332365 295.343537 
L 157.597444 295.313563 
L 157.796252 295.195678 
L 157.862522 295.420863 
L 157.928791 295.255579 
L 158.790296 295.216767 
L 158.856565 295.33525 
L 158.922835 295.287446 
L 159.187913 295.095685 
L 159.718069 294.846274 
L 159.983148 294.24207 
L 160.181956 294.59685 
L 160.314495 292.850481 
L 160.579574 289.825992 
L 160.645843 290.031922 
L 160.712113 288.52709 
L 160.778382 291.233636 
L 160.844652 289.213958 
L 160.977191 278.167371 
L 161.10973 290.185681 
L 161.176 228.698429 
L 161.242269 255.177406 
L 161.374808 290.333798 
L 161.639886 293.041728 
L 161.706156 293.036773 
L 161.904965 293.879269 
L 162.103773 294.139259 
L 162.170043 294.502053 
L 162.236312 294.239205 
L 162.368852 294.422006 
L 162.435121 294.418354 
L 162.56766 294.618149 
L 162.700199 294.560091 
L 163.097817 294.782959 
L 163.164086 294.553021 
L 163.296625 294.822645 
L 163.362895 294.74985 
L 163.429164 294.841628 
L 163.495434 294.863481 
L 163.561704 294.746815 
L 163.694243 294.89313 
L 163.893051 294.891056 
L 164.489477 294.922559 
L 164.555747 294.668701 
L 164.688286 294.933793 
L 164.887095 294.989529 
L 165.019634 294.733686 
L 165.085903 294.847086 
L 165.152173 295.286012 
L 165.218442 295.020051 
L 165.284712 294.962046 
L 165.350981 295.047026 
L 165.682329 295.000743 
L 165.814868 295.005471 
L 165.947407 295.123055 
L 166.079947 294.815554 
L 166.212486 294.893296 
L 166.610103 294.81013 
L 166.808912 295.092844 
L 167.00772 294.844239 
L 167.07399 294.438416 
L 167.140259 294.465977 
L 167.339068 294.611218 
L 167.405338 294.52564 
L 167.471607 294.628864 
L 167.537877 295.150339 
L 167.935494 290.464652 
L 168.068033 292.392524 
L 168.134303 291.701904 
L 168.333111 287.623297 
L 168.399381 289.259449 
L 168.465651 254.499982 
L 168.53192 276.455431 
L 168.664459 293.125499 
L 168.863268 294.030287 
L 169.128346 294.737032 
L 169.592233 295.113377 
L 170.254928 295.324111 
L 170.387468 295.217989 
L 170.453737 295.072382 
L 170.586276 295.328268 
L 170.718815 295.313132 
L 170.983894 295.359712 
L 171.315241 295.372478 
L 171.381511 295.259315 
L 171.44778 295.324332 
L 171.845398 295.224823 
L 171.911667 295.390635 
L 171.977937 295.358481 
L 172.176746 295.298244 
L 172.243015 295.35617 
L 172.309285 295.234345 
L 172.375554 295.306346 
L 173.104519 295.286281 
L 173.303328 295.250426 
L 173.369598 295.312646 
L 173.435867 295.233841 
L 174.032293 295.202976 
L 174.231102 295.429815 
L 174.761258 294.021406 
L 174.827528 294.21094 
L 175.026336 294.356447 
L 175.158875 293.416461 
L 175.291415 292.098299 
L 175.423954 293.238019 
L 175.490223 292.408388 
L 175.556493 289.315627 
L 175.622762 289.388772 
L 175.689032 289.243738 
L 175.755301 274.179254 
L 175.95411 294.147807 
L 176.152919 294.763063 
L 176.351727 295.038237 
L 176.616806 295.169429 
L 176.749345 295.304709 
L 176.881884 295.261155 
L 177.213232 295.310889 
L 178.074736 295.418586 
L 178.472353 295.398527 
L 178.86997 295.432953 
L 179.731475 295.458456 
L 180.526709 295.425011 
L 180.592979 295.298206 
L 180.659248 295.410599 
L 180.791788 295.392048 
L 181.189405 295.455802 
L 181.454483 295.288839 
L 181.587022 295.304093 
L 181.8521 295.449915 
L 182.050909 295.169411 
L 182.315987 294.302319 
L 182.382257 294.316994 
L 182.448526 294.60752 
L 182.647335 293.436961 
L 182.713605 294.130606 
L 182.779874 294.020014 
L 182.978683 291.40848 
L 183.044952 286.213854 
L 183.177492 294.265815 
L 183.3763 295.049136 
L 183.44257 295.097826 
L 183.508839 295.291004 
L 183.575109 295.186708 
L 183.840187 295.277046 
L 184.9005 295.373869 
L 185.033039 295.402393 
L 185.298117 295.381536 
L 185.828274 295.39703 
L 186.093352 295.416247 
L 186.888587 295.400774 
L 187.021126 295.426582 
L 188.545325 295.371232 
L 188.677864 295.337933 
L 188.810404 295.36016 
L 189.009212 295.227782 
L 189.141751 295.211134 
L 189.34056 294.313547 
L 189.473099 294.64931 
L 189.671908 294.003604 
L 189.738177 294.065597 
L 189.804447 293.967218 
L 189.870716 294.265129 
L 190.003256 293.507033 
L 190.069525 293.905602 
L 190.202064 292.05368 
L 190.334603 287.139517 
L 190.467142 294.355088 
L 190.665951 295.013847 
L 190.997299 295.176987 
L 191.394916 295.234668 
L 193.648081 295.304525 
L 194.111968 295.295206 
L 194.178237 295.107654 
L 194.244507 295.331873 
L 194.310777 295.286635 
L 195.172281 295.205858 
L 195.23855 295.42302 
L 195.30482 295.36571 
L 195.702437 294.998912 
L 196.100055 295.428308 
L 196.166324 295.279613 
L 196.431402 294.508539 
L 196.497672 294.579653 
L 196.630211 294.957992 
L 196.961559 292.579465 
L 197.027828 292.864476 
L 197.094098 293.224272 
L 197.226637 290.397877 
L 197.292907 290.510338 
L 197.425446 293.008652 
L 197.557985 278.707021 
L 197.624254 272.921072 
L 197.690524 293.379278 
L 197.756793 292.611086 
L 197.955602 294.508582 
L 198.021872 294.797423 
L 198.088141 294.630049 
L 198.419489 295.167778 
L 198.618298 295.093329 
L 198.817106 295.283204 
L 198.949645 295.297451 
L 199.015915 295.407641 
L 199.082184 295.21278 
L 199.148454 295.311428 
L 199.347263 295.293161 
L 200.937732 295.445009 
L 201.004002 295.27722 
L 201.070271 295.38703 
L 201.534158 295.377539 
L 201.732967 295.462807 
L 202.263123 295.34223 
L 202.461932 295.116266 
L 202.528201 295.438044 
L 202.594471 295.413102 
L 202.79328 295.260802 
L 202.925819 295.309458 
L 203.124627 295.083559 
L 203.323436 294.9507 
L 203.522245 294.499295 
L 203.654784 294.459435 
L 203.787323 293.843256 
L 203.986131 294.446049 
L 204.118671 292.510049 
L 204.18494 293.012316 
L 204.25121 293.859806 
L 204.317479 293.82664 
L 204.450018 293.595323 
L 204.516288 293.173287 
L 204.582557 293.226265 
L 204.648827 293.164833 
L 204.715097 294.049811 
L 204.781366 292.459486 
L 204.847636 283.91464 
L 204.913905 284.594891 
L 204.980175 294.236461 
L 205.046444 294.214693 
L 205.245253 294.918116 
L 205.444062 295.089695 
L 205.64287 295.218171 
L 205.775409 295.067842 
L 205.841679 295.431426 
L 205.907949 295.303763 
L 206.305566 295.278515 
L 206.371835 295.45175 
L 206.438105 295.293424 
L 206.504375 295.323071 
L 206.703183 295.31673 
L 206.769453 295.277703 
L 206.835722 295.419887 
L 206.901992 295.368903 
L 207.23334 295.380845 
L 207.299609 295.258194 
L 207.365879 295.43594 
L 207.432148 295.342489 
L 208.625 295.385528 
L 208.823809 295.38693 
L 209.155157 295.42532 
L 209.221426 295.334723 
L 209.287696 295.484316 
L 209.353965 295.438923 
L 209.486504 295.408996 
L 209.685313 295.355077 
L 209.751583 295.45892 
L 209.817852 295.378781 
L 210.016661 295.357561 
L 210.1492 295.359984 
L 210.348009 295.457183 
L 210.944435 295.286329 
L 211.209513 294.786172 
L 211.408322 295.30318 
L 211.474591 295.174781 
L 211.6734 294.791933 
L 211.739669 295.121834 
L 211.805939 295.021837 
L 211.938478 294.473446 
L 212.071017 295.332045 
L 212.137287 290.97227 
L 212.203556 292.451635 
L 212.336095 295.151254 
L 212.799982 295.42122 
L 215.980921 295.46115 
L 216.11346 295.464475 
L 217.173773 295.457548 
L 217.505121 295.388713 
L 217.63766 295.375333 
L 218.432894 295.311976 
L 218.565433 295.176311 
L 218.764242 295.275299 
L 218.963051 295.088896 
L 219.294398 295.12388 
L 219.360668 295.376839 
L 219.426938 293.822511 
L 219.493207 294.48521 
L 219.625746 295.35495 
L 220.354711 295.445382 
L 220.55352 295.448009 
L 221.945181 295.43596 
L 222.210259 295.451603 
L 222.475337 295.45403 
L 223.270572 295.434712 
L 223.336841 295.301863 
L 223.46938 295.448811 
L 224.330885 295.430364 
L 224.662232 295.368214 
L 225.258658 295.230997 
L 225.324928 295.05471 
L 225.391197 295.205253 
L 225.855084 294.219232 
L 226.053893 294.739195 
L 226.120163 294.626285 
L 226.252702 294.089269 
L 226.318971 294.405829 
L 226.385241 294.26982 
L 226.45151 294.364515 
L 226.584049 292.613192 
L 226.650319 293.227151 
L 226.716589 285.629103 
L 226.915397 294.835664 
L 227.114206 295.0771 
L 227.511823 295.301564 
L 229.102292 295.4296 
L 229.168562 295.338096 
L 229.234832 295.421345 
L 230.030066 295.438461 
L 230.162605 295.449178 
L 230.493953 295.451884 
L 230.626492 295.395473 
L 230.759031 295.447343 
L 231.090379 295.387125 
L 231.289188 295.480813 
L 231.753075 295.397457 
L 232.283231 295.390206 
L 232.879657 295.038052 
L 232.945927 295.148813 
L 233.012196 295.087822 
L 233.078466 294.94521 
L 233.144735 295.030035 
L 233.409814 295.128022 
L 233.608622 294.860188 
L 233.741161 294.923628 
L 233.93997 294.185692 
L 234.006239 291.253341 
L 234.205048 295.294076 
L 234.470126 295.323855 
L 234.668935 295.382552 
L 237.385987 295.466801 
L 237.651065 295.442505 
L 239.970499 295.363651 
L 240.301847 294.964466 
L 240.368117 295.12659 
L 240.434386 295.03203 
L 240.500656 294.991988 
L 240.566925 294.808318 
L 240.633195 294.876749 
L 240.699464 295.031322 
L 240.765734 294.933199 
L 240.832004 294.824858 
L 240.898273 294.338303 
L 240.964543 294.452939 
L 241.030812 295.05226 
L 241.097082 294.781157 
L 241.29589 289.927405 
L 241.42843 294.727431 
L 241.627238 295.258656 
L 242.753821 295.44396 
L 242.952629 295.43466 
L 244.012942 295.461926 
L 247.32642 295.293478 
L 247.591498 295.281281 
L 247.724037 295.317799 
L 247.989115 295.122414 
L 248.055385 295.2174 
L 248.121655 295.167989 
L 248.187924 295.202851 
L 248.320463 295.092157 
L 248.386733 295.134531 
L 248.585541 293.014706 
L 248.651811 295.280151 
L 248.71808 295.176188 
L 248.983159 295.388333 
L 249.248237 295.41777 
L 249.977202 295.459117 
L 250.176011 295.439794 
L 250.971245 295.481941 
L 251.170054 295.440261 
L 252.097828 295.452116 
L 254.350993 295.444384 
L 254.549801 295.462984 
L 255.742653 295.331404 
L 255.875192 295.033283 
L 256.007731 295.444255 
L 259.18867 295.472762 
L 259.586287 295.479859 
L 261.441835 295.436313 
L 261.839452 295.367101 
L 262.038261 295.337646 
L 262.303339 295.341147 
L 262.435878 295.334391 
L 262.634687 295.221524 
L 262.767226 295.23148 
L 262.899765 294.955557 
L 263.032304 295.191741 
L 263.098574 293.540747 
L 263.164843 293.928108 
L 263.297382 295.289816 
L 264.291426 295.440155 
L 264.622773 295.427688 
L 265.020391 295.479724 
L 265.08666 295.402537 
L 265.15293 295.468851 
L 266.213243 295.45882 
L 267.869982 295.480471 
L 267.936251 295.388418 
L 268.002521 295.477475 
L 268.267599 295.421798 
L 268.996564 295.152675 
L 269.129103 295.075546 
L 269.261642 295.104044 
L 269.327912 295.290452 
L 269.394181 295.231464 
L 269.52672 294.981963 
L 269.59299 294.907995 
L 269.725529 295.132952 
L 269.924338 294.769291 
L 270.056877 295.102732 
L 270.189416 293.859073 
L 270.255686 294.276112 
L 270.321955 294.98626 
L 270.388225 288.463358 
L 270.454494 290.68306 
L 270.587033 294.932733 
L 270.653303 294.944989 
L 270.852112 295.277159 
L 270.918381 295.166048 
L 270.984651 295.257021 
L 271.315998 295.42129 
L 271.448538 295.295023 
L 271.581077 295.348506 
L 271.713616 295.373433 
L 271.846155 295.417779 
L 271.912424 295.318304 
L 271.978694 295.368329 
L 272.177503 295.40985 
L 275.623519 295.281907 
L 275.954867 294.897009 
L 276.021137 294.936226 
L 276.087406 294.484137 
L 276.153676 294.518206 
L 276.219945 294.720323 
L 276.485024 293.491282 
L 276.683832 294.472444 
L 276.882641 293.142281 
L 277.08145 294.404981 
L 277.280258 291.97153 
L 277.346528 293.303197 
L 277.412797 292.672561 
L 277.545337 289.703549 
L 277.611606 292.523908 
L 277.677876 273.542397 
L 277.744145 283.604726 
L 277.876684 293.886539 
L 277.942954 293.995764 
L 278.141763 294.899223 
L 278.208032 294.568972 
L 278.274302 294.801763 
L 278.53938 294.942625 
L 278.605649 295.164248 
L 278.671919 295.047732 
L 278.738188 294.987646 
L 278.870728 295.207472 
L 279.003267 295.127043 
L 279.069536 295.145247 
L 279.202075 295.087026 
L 279.334614 295.181196 
L 279.533423 295.232448 
L 279.665962 295.290886 
L 279.864771 295.174092 
L 279.93104 295.142828 
L 279.99731 295.333077 
L 280.06358 295.274401 
L 280.129849 295.349643 
L 280.196119 295.173041 
L 280.262388 295.235476 
L 280.461197 295.232586 
L 281.985397 295.252604 
L 282.051666 295.046491 
L 282.117936 295.220772 
L 282.184205 295.128234 
L 282.316744 295.228858 
L 282.515553 295.047524 
L 282.648092 295.244143 
L 282.714362 295.435108 
L 282.780631 295.395378 
L 282.846901 295.408844 
L 283.04571 294.730265 
L 283.111979 294.766371 
L 283.443327 294.006502 
L 283.509596 294.311221 
L 283.774675 292.307114 
L 283.840944 292.620394 
L 284.039753 293.828487 
L 284.106022 293.626834 
L 284.238561 290.730998 
L 284.371101 291.798761 
L 284.43737 291.711704 
L 284.569909 290.112752 
L 284.702448 291.089456 
L 284.901257 285.654322 
L 284.967527 264.901224 
L 285.166335 293.893919 
L 285.298874 294.131655 
L 285.431413 294.804452 
L 285.497683 294.148181 
L 285.630222 294.792919 
L 285.762761 294.912318 
L 285.829031 294.849099 
L 285.96157 295.156443 
L 286.027839 295.028811 
L 286.094109 295.121681 
L 286.160379 295.244901 
L 286.226648 295.106219 
L 286.292918 295.180221 
L 286.359187 295.370382 
L 286.491726 295.05509 
L 286.690535 295.266693 
L 286.889344 295.107108 
L 286.955613 295.003391 
L 287.021883 295.264282 
L 287.088152 295.17936 
L 287.220691 295.106188 
L 287.4195 295.260793 
L 287.552039 295.27354 
L 287.618309 295.372062 
L 287.684578 295.29049 
L 287.750848 295.278897 
L 287.817117 295.414248 
L 287.883387 295.056658 
L 287.949657 295.295259 
L 288.214735 295.266736 
L 288.744891 295.333676 
L 288.811161 295.334667 
L 288.87743 295.194665 
L 288.9437 295.261434 
L 289.142508 295.401571 
L 289.341317 294.984816 
L 289.407587 295.447701 
L 289.473856 295.312896 
L 289.606395 295.154411 
L 289.805204 295.387226 
L 289.937743 295.308687 
L 290.070282 295.068124 
L 290.136552 295.109685 
L 290.33536 295.191482 
L 290.732978 293.791772 
L 290.799247 293.983966 
L 290.865517 294.205605 
L 291.064326 292.917602 
L 291.329404 294.396815 
L 291.395673 294.233439 
L 291.528212 292.654212 
L 291.594482 291.534444 
L 291.727021 293.592527 
L 291.793291 293.179482 
L 291.92583 290.921281 
L 291.992099 292.390616 
L 292.058369 292.012723 
L 292.190908 285.910367 
L 292.257178 272.600507 
L 292.455986 294.252439 
L 292.721064 294.843522 
L 292.787334 294.54123 
L 292.986143 295.053224 
L 293.251221 295.190733 
L 293.38376 295.171272 
L 293.45003 295.289424 
L 293.516299 295.207383 
L 293.582569 295.151942 
L 293.648838 295.321523 
L 293.715108 295.126813 
L 293.781377 295.212772 
L 295.106768 295.304482 
L 295.173038 295.201257 
L 295.239307 295.421607 
L 295.305577 295.371175 
L 295.636925 295.308333 
L 295.968273 295.369652 
L 296.100812 295.36194 
L 296.233351 295.3991 
L 296.498429 295.350927 
L 296.630968 295.349268 
L 297.094855 295.333778 
L 297.426203 295.303331 
L 297.89009 295.279037 
L 298.155168 295.11985 
L 298.353977 295.255274 
L 298.685324 295.055541 
L 298.751594 295.085758 
L 298.884133 294.735488 
L 299.082942 295.166375 
L 299.215481 294.403634 
L 299.28175 294.719528 
L 299.34802 294.798413 
L 299.480559 293.349886 
L 299.546828 292.086407 
L 299.679368 295.034062 
L 299.878176 295.397486 
L 300.408333 295.470955 
L 300.540872 295.395396 
L 300.73968 295.453511 
L 301.203567 295.466085 
L 302.197611 295.455031 
L 304.715854 295.446652 
L 305.378549 295.376259 
L 306.372593 295.273206 
L 306.571401 295.193129 
L 306.637671 295.308594 
L 306.70394 295.098929 
L 306.836479 294.040346 
L 306.902749 295.386598 
L 306.969019 295.300479 
L 307.432905 295.436488 
L 312.73447 295.412485 
L 312.933278 295.368538 
L 313.132087 295.369489 
L 313.330896 295.313568 
L 313.463435 295.32268 
L 313.595974 295.239833 
L 313.728513 295.347446 
L 313.861052 295.081165 
L 313.993591 295.201442 
L 314.059861 293.993755 
L 314.12613 294.121301 
L 314.1924 295.370902 
L 314.258669 295.319763 
L 314.722556 295.459548 
L 316.445565 295.460505 
L 316.909452 295.465788 
L 317.10826 295.474849 
L 317.704686 295.461798 
L 318.234843 295.457434 
L 319.427695 295.401877 
L 319.891582 295.368318 
L 320.686816 295.349158 
L 321.216973 295.309129 
L 321.283242 295.35445 
L 321.349512 294.423514 
L 321.415781 294.704298 
L 321.54832 295.402592 
L 321.747129 295.420716 
L 322.476094 295.455495 
L 323.205059 295.460791 
L 323.536407 295.457217 
L 324.729259 295.456328 
L 324.861798 295.443533 
L 327.247502 295.423405 
L 327.380041 295.448571 
L 327.57885 295.380941 
L 327.777659 295.360688 
L 327.976467 295.361414 
L 328.109006 295.361465 
L 328.506624 295.10398 
L 328.572893 295.337709 
L 328.639163 294.183776 
L 328.705432 294.826278 
L 328.837971 295.443602 
L 329.03678 295.448624 
L 330.030823 295.470343 
L 330.428441 295.472425 
L 331.488754 295.48048 
L 331.621293 295.451803 
L 332.283988 295.483825 
L 332.615336 295.479098 
L 333.278032 295.479168 
L 333.940727 295.445961 
L 334.139536 295.368622 
L 334.404614 295.233657 
L 334.537153 295.379955 
L 334.868501 295.300358 
L 335.133579 295.319348 
L 335.531196 295.177308 
L 335.663735 295.318245 
L 335.796275 294.854147 
L 335.862544 294.967971 
L 335.928814 293.395535 
L 336.127622 295.362036 
L 336.392701 295.373744 
L 337.121666 295.441987 
L 338.049439 295.437261 
L 338.712135 295.449759 
L 339.639909 295.443909 
L 340.103796 295.46515 
L 340.567682 295.42569 
L 341.164108 295.417983 
L 343.019656 295.180989 
L 343.152195 294.763833 
L 343.218465 293.437527 
L 343.417273 295.401544 
L 348.520029 295.388552 
L 348.718838 295.268937 
L 348.851377 295.22464 
L 349.116455 295.272179 
L 349.77915 295.249491 
L 349.91169 295.110586 
L 350.044229 295.165739 
L 350.176768 294.924897 
L 350.309307 295.280476 
L 350.508116 292.014058 
L 350.640655 294.929671 
L 350.839463 295.321864 
L 351.104542 295.396098 
L 352.82755 295.469152 
L 352.960089 295.465632 
L 354.086671 295.449727 
L 354.28548 295.437626 
L 354.881906 295.442338 
L 355.213254 295.413432 
L 355.478332 295.431001 
L 355.80968 295.422287 
L 355.875949 295.298057 
L 355.942219 295.357957 
L 356.207297 295.424542 
L 356.472375 295.38068 
L 356.737454 295.365718 
L 356.936262 295.400489 
L 357.068801 295.394528 
L 357.201341 295.357149 
L 357.33388 295.363381 
L 357.532688 295.332707 
L 357.598958 295.403815 
L 357.797767 294.259849 
L 357.864036 295.390706 
L 357.930306 295.298965 
L 358.195384 295.447527 
L 359.056888 295.466798 
L 362.767983 295.461334 
L 363.033061 295.382942 
L 363.364409 295.395518 
L 363.629487 295.395697 
L 364.093374 295.38023 
L 364.623531 295.376855 
L 364.6898 295.406848 
L 364.822339 295.247128 
L 364.888609 295.394321 
L 364.954878 295.30764 
L 365.087417 294.483467 
L 365.153687 295.411493 
L 365.219957 295.355577 
L 365.485035 295.464933 
L 365.816383 295.471767 
L 366.744156 295.484092 
L 372.244529 295.394579 
L 372.310799 294.645718 
L 372.377068 294.792414 
L 372.509608 295.399959 
L 375.690546 295.465663 
L 376.817129 295.457855 
L 377.546094 295.444279 
L 377.811172 295.422682 
L 378.07625 295.3738 
L 378.275059 295.41093 
L 378.473867 295.375205 
L 378.606407 295.356478 
L 378.738946 295.385094 
L 378.937754 295.34734 
L 379.070293 295.329531 
L 379.467911 295.153348 
L 379.53418 295.349019 
L 379.60045 294.07536 
L 379.666719 294.630478 
L 379.799258 295.420121 
L 379.998067 295.44551 
L 380.528224 295.478676 
L 381.257189 295.477986 
L 385.896057 295.376136 
L 386.094866 295.408514 
L 386.293675 295.288732 
L 386.492483 295.267558 
L 386.625023 295.379541 
L 386.823831 295.199591 
L 386.890101 294.190594 
L 386.95637 294.838301 
L 387.088909 295.3975 
L 388.679379 295.461371 
L 389.275805 295.467179 
L 389.805961 295.460298 
L 390.336118 295.486532 
L 390.800004 295.45674 
L 391.860317 295.421785 
L 392.854361 295.383114 
L 393.053169 295.408284 
L 393.251978 295.395074 
L 393.384517 295.387893 
L 393.782134 295.252131 
L 393.914673 295.449245 
L 394.113482 295.02178 
L 394.179752 293.97413 
L 394.37856 295.41345 
L 394.908717 295.457627 
L 395.96903 295.472618 
L 396.896803 295.478319 
L 398.421003 295.481062 
L 398.487273 295.471126 
L 398.487273 295.471126 
" clip-path="url(#p95936d1f5c)" style="fill: none; stroke: #1f77b4; stroke-width: 1.5; stroke-linecap: square"/>
   </g>
   <g id="patch_3">
    <path d="M 57.6 307.584 
L 57.6 41.472 
" style="fill: none; stroke: #000000; stroke-width: 0.8; stroke-linejoin: miter; stroke-linecap: square"/>
   </g>
   <g id="patch_4">
    <path d="M 414.72 307.584 
L 414.72 41.472 
" style="fill: none; stroke: #000000; stroke-width: 0.8; stroke-linejoin: miter; stroke-linecap: square"/>
   </g>
   <g id="patch_5">
    <path d="M 57.6 307.584 
L 414.72 307.584 
" style="fill: none; stroke: #000000; stroke-width: 0.8; stroke-linejoin: miter; stroke-linecap: square"/>
   </g>
   <g id="patch_6">
    <path d="M 57.6 41.472 
L 414.72 41.472 
" style="fill: none; stroke: #000000; stroke-width: 0.8; stroke-linejoin: miter; stroke-linecap: square"/>
   </g>
   <g id="text_15">
    <text style="font: 12px 'IPAexGothic'; text-anchor: middle" x="236.16" y="35.472" transform="rotate(-0 236.16 35.472)">"022_A2.wav"の振幅スペクトル</text>
   </g>
  </g>
 </g>
 <defs>
  <clipPath id="p95936d1f5c">
   <rect x="57.6" y="41.472" width="357.12" height="266.112"/>
  </clipPath>
 </defs>
</svg>
