<?xml version="1.0" encoding="utf-8" standalone="no"?>
<!DOCTYPE svg PUBLIC "-//W3C//DTD SVG 1.1//EN"
  "http://www.w3.org/Graphics/SVG/1.1/DTD/svg11.dtd">
<svg xmlns:xlink="http://www.w3.org/1999/xlink" width="460.8pt" height="345.6pt" viewBox="0 0 460.8 345.6" xmlns="http://www.w3.org/2000/svg" version="1.1">
 <metadata>
  <rdf:RDF xmlns:dc="http://purl.org/dc/elements/1.1/" xmlns:cc="http://creativecommons.org/ns#" xmlns:rdf="http://www.w3.org/1999/02/22-rdf-syntax-ns#">
   <cc:Work>
    <dc:type rdf:resource="http://purl.org/dc/dcmitype/StillImage"/>
    <dc:date>2022-11-28T12:31:09.172956</dc:date>
    <dc:format>image/svg+xml</dc:format>
    <dc:creator>
     <cc:Agent>
      <dc:title>Matplotlib v3.6.2, https://matplotlib.org/</dc:title>
     </cc:Agent>
    </dc:creator>
   </cc:Work>
  </rdf:RDF>
 </metadata>
 <defs>
  <style type="text/css">*{stroke-linejoin: round; stroke-linecap: butt}</style>
 </defs>
 <g id="figure_1">
  <g id="patch_1">
   <path d="M 0 345.6 
L 460.8 345.6 
L 460.8 0 
L 0 0 
z
" style="fill: #ffffff"/>
  </g>
  <g id="axes_1">
   <g id="patch_2">
    <path d="M 57.6 307.584 
L 414.72 307.584 
L 414.72 41.472 
L 57.6 41.472 
z
" style="fill: #ffffff"/>
   </g>
   <g id="matplotlib.axis_1">
    <g id="xtick_1">
     <g id="line2d_1">
      <defs>
       <path id="m0d94a5b89d" d="M 0 0 
L 0 3.5 
" style="stroke: #000000; stroke-width: 0.8"/>
      </defs>
      <g>
       <use xlink:href="#m0d94a5b89d" x="73.832727" y="307.584" style="stroke: #000000; stroke-width: 0.8"/>
      </g>
     </g>
     <g id="text_1">
      <text style="font: 10px 'IPAexGothic'; text-anchor: middle" x="73.832727" y="322.074625" transform="rotate(-0 73.832727 322.074625)">0</text>
     </g>
    </g>
    <g id="xtick_2">
     <g id="line2d_2">
      <g>
       <use xlink:href="#m0d94a5b89d" x="140.102281" y="307.584" style="stroke: #000000; stroke-width: 0.8"/>
      </g>
     </g>
     <g id="text_2">
      <text style="font: 10px 'IPAexGothic'; text-anchor: middle" x="140.102281" y="322.074625" transform="rotate(-0 140.102281 322.074625)">1000</text>
     </g>
    </g>
    <g id="xtick_3">
     <g id="line2d_3">
      <g>
       <use xlink:href="#m0d94a5b89d" x="206.371835" y="307.584" style="stroke: #000000; stroke-width: 0.8"/>
      </g>
     </g>
     <g id="text_3">
      <text style="font: 10px 'IPAexGothic'; text-anchor: middle" x="206.371835" y="322.074625" transform="rotate(-0 206.371835 322.074625)">2000</text>
     </g>
    </g>
    <g id="xtick_4">
     <g id="line2d_4">
      <g>
       <use xlink:href="#m0d94a5b89d" x="272.64139" y="307.584" style="stroke: #000000; stroke-width: 0.8"/>
      </g>
     </g>
     <g id="text_4">
      <text style="font: 10px 'IPAexGothic'; text-anchor: middle" x="272.64139" y="322.074625" transform="rotate(-0 272.64139 322.074625)">3000</text>
     </g>
    </g>
    <g id="xtick_5">
     <g id="line2d_5">
      <g>
       <use xlink:href="#m0d94a5b89d" x="338.910944" y="307.584" style="stroke: #000000; stroke-width: 0.8"/>
      </g>
     </g>
     <g id="text_5">
      <text style="font: 10px 'IPAexGothic'; text-anchor: middle" x="338.910944" y="322.074625" transform="rotate(-0 338.910944 322.074625)">4000</text>
     </g>
    </g>
    <g id="xtick_6">
     <g id="line2d_6">
      <g>
       <use xlink:href="#m0d94a5b89d" x="405.180498" y="307.584" style="stroke: #000000; stroke-width: 0.8"/>
      </g>
     </g>
     <g id="text_6">
      <text style="font: 10px 'IPAexGothic'; text-anchor: middle" x="405.180498" y="322.074625" transform="rotate(-0 405.180498 322.074625)">5000</text>
     </g>
    </g>
    <g id="text_7">
     <text style="font: 10px 'IPAexGothic'; text-anchor: middle" x="236.16" y="335.924625" transform="rotate(-0 236.16 335.924625)">周波数[Hz]</text>
    </g>
   </g>
   <g id="matplotlib.axis_2">
    <g id="ytick_1">
     <g id="line2d_7">
      <defs>
       <path id="mbb50e583d5" d="M 0 0 
L -3.5 0 
" style="stroke: #000000; stroke-width: 0.8"/>
      </defs>
      <g>
       <use xlink:href="#mbb50e583d5" x="57.6" y="295.492572" style="stroke: #000000; stroke-width: 0.8"/>
      </g>
     </g>
     <g id="text_8">
      <text style="font: 10px 'IPAexGothic'; text-anchor: end" x="50.6" y="299.237884" transform="rotate(-0 50.6 299.237884)">0.0</text>
     </g>
    </g>
    <g id="ytick_2">
     <g id="line2d_8">
      <g>
       <use xlink:href="#mbb50e583d5" x="57.6" y="264.249287" style="stroke: #000000; stroke-width: 0.8"/>
      </g>
     </g>
     <g id="text_9">
      <text style="font: 10px 'IPAexGothic'; text-anchor: end" x="50.6" y="267.9946" transform="rotate(-0 50.6 267.9946)">0.5</text>
     </g>
    </g>
    <g id="ytick_3">
     <g id="line2d_9">
      <g>
       <use xlink:href="#mbb50e583d5" x="57.6" y="233.006002" style="stroke: #000000; stroke-width: 0.8"/>
      </g>
     </g>
     <g id="text_10">
      <text style="font: 10px 'IPAexGothic'; text-anchor: end" x="50.6" y="236.751315" transform="rotate(-0 50.6 236.751315)">1.0</text>
     </g>
    </g>
    <g id="ytick_4">
     <g id="line2d_10">
      <g>
       <use xlink:href="#mbb50e583d5" x="57.6" y="201.762717" style="stroke: #000000; stroke-width: 0.8"/>
      </g>
     </g>
     <g id="text_11">
      <text style="font: 10px 'IPAexGothic'; text-anchor: end" x="50.6" y="205.50803" transform="rotate(-0 50.6 205.50803)">1.5</text>
     </g>
    </g>
    <g id="ytick_5">
     <g id="line2d_11">
      <g>
       <use xlink:href="#mbb50e583d5" x="57.6" y="170.519433" style="stroke: #000000; stroke-width: 0.8"/>
      </g>
     </g>
     <g id="text_12">
      <text style="font: 10px 'IPAexGothic'; text-anchor: end" x="50.6" y="174.264745" transform="rotate(-0 50.6 174.264745)">2.0</text>
     </g>
    </g>
    <g id="ytick_6">
     <g id="line2d_12">
      <g>
       <use xlink:href="#mbb50e583d5" x="57.6" y="139.276148" style="stroke: #000000; stroke-width: 0.8"/>
      </g>
     </g>
     <g id="text_13">
      <text style="font: 10px 'IPAexGothic'; text-anchor: end" x="50.6" y="143.02146" transform="rotate(-0 50.6 143.02146)">2.5</text>
     </g>
    </g>
    <g id="ytick_7">
     <g id="line2d_13">
      <g>
       <use xlink:href="#mbb50e583d5" x="57.6" y="108.032863" style="stroke: #000000; stroke-width: 0.8"/>
      </g>
     </g>
     <g id="text_14">
      <text style="font: 10px 'IPAexGothic'; text-anchor: end" x="50.6" y="111.778175" transform="rotate(-0 50.6 111.778175)">3.0</text>
     </g>
    </g>
    <g id="ytick_8">
     <g id="line2d_14">
      <g>
       <use xlink:href="#mbb50e583d5" x="57.6" y="76.789578" style="stroke: #000000; stroke-width: 0.8"/>
      </g>
     </g>
     <g id="text_15">
      <text style="font: 10px 'IPAexGothic'; text-anchor: end" x="50.6" y="80.53489" transform="rotate(-0 50.6 80.53489)">3.5</text>
     </g>
    </g>
    <g id="ytick_9">
     <g id="line2d_15">
      <g>
       <use xlink:href="#mbb50e583d5" x="57.6" y="45.546293" style="stroke: #000000; stroke-width: 0.8"/>
      </g>
     </g>
     <g id="text_16">
      <text style="font: 10px 'IPAexGothic'; text-anchor: end" x="50.6" y="49.291606" transform="rotate(-0 50.6 49.291606)">4.0</text>
     </g>
    </g>
    <g id="text_17">
     <text style="font: 10px 'IPAexGothic'; text-anchor: middle" x="29.460938" y="174.528" transform="rotate(-90 29.460938 174.528)">振幅</text>
    </g>
    <g id="text_18">
     <text style="font: 10px 'IPAexGothic'; text-anchor: start" x="57.6" y="38.472" transform="rotate(-0 57.6 38.472)">1e7</text>
    </g>
   </g>
   <g id="line2d_16">
    <path d="M 73.832727 292.430499 
L 73.965266 295.169836 
L 74.164075 295.342758 
L 74.826771 295.405579 
L 74.89304 295.14125 
L 75.025579 295.36256 
L 75.820814 295.397065 
L 75.953353 295.218941 
L 76.019623 295.419067 
L 76.085892 295.369866 
L 76.814857 295.380481 
L 76.947396 295.403301 
L 77.013666 295.281272 
L 77.079935 294.782146 
L 77.212475 295.293497 
L 77.477553 295.311529 
L 77.87517 295.379665 
L 78.007709 295.443279 
L 78.073979 295.349616 
L 78.140248 294.899919 
L 78.206518 294.991973 
L 78.405327 295.355481 
L 78.670405 295.34986 
L 79.068022 295.276616 
L 79.134292 295.044927 
L 79.266831 293.620437 
L 79.39937 295.326444 
L 79.465639 295.329737 
L 79.598178 295.17231 
L 79.796987 295.150029 
L 79.929526 294.867908 
L 80.062065 294.908237 
L 80.194604 293.530718 
L 80.260874 292.211638 
L 80.327144 287.587327 
L 80.393413 292.523812 
L 80.459683 292.278499 
L 80.79103 295.29952 
L 80.8573 295.265763 
L 80.92357 294.900568 
L 80.989839 295.005926 
L 81.122378 295.376879 
L 81.188648 295.249629 
L 81.321187 295.146095 
L 81.387456 293.220703 
L 81.453726 294.366969 
L 81.652535 295.22681 
L 81.917613 295.206159 
L 82.050152 295.242071 
L 82.248961 295.406163 
L 82.3815 295.24092 
L 82.447769 294.759475 
L 82.514039 295.052389 
L 82.580308 295.351561 
L 82.646578 295.332494 
L 82.977926 295.467771 
L 83.375543 295.195429 
L 83.508082 294.686384 
L 83.574352 294.001629 
L 83.640621 295.326425 
L 83.706891 295.278784 
L 83.905699 295.404597 
L 84.104508 295.470538 
L 84.568395 295.387922 
L 84.634665 294.475215 
L 84.700934 294.967625 
L 84.966012 295.425951 
L 85.098551 295.300802 
L 85.36363 295.458414 
L 85.628708 295.301805 
L 85.694977 294.842303 
L 85.761247 295.145394 
L 85.893786 295.349105 
L 86.291403 295.377587 
L 86.423943 295.335112 
L 86.556482 295.327401 
L 86.689021 295.19353 
L 86.82156 293.793811 
L 86.954099 295.418142 
L 87.152908 295.279488 
L 87.351716 295.383885 
L 87.550525 295.264921 
L 87.749334 295.163339 
L 87.815603 295.053861 
L 87.881873 295.120223 
L 88.146951 295.26669 
L 88.809646 295.427353 
L 88.875916 295.432747 
L 88.942186 295.128432 
L 89.008455 295.327212 
L 89.074725 295.469956 
L 89.140994 295.437907 
L 89.339803 295.389123 
L 89.73742 295.429088 
L 90.135038 295.360912 
L 90.466385 295.47513 
L 90.797733 295.408269 
L 90.996542 295.373693 
L 91.062811 295.332787 
L 91.129081 295.097867 
L 91.26162 295.40469 
L 91.526698 295.458425 
L 92.123124 295.386853 
L 92.189394 295.010252 
L 92.255663 295.21029 
L 92.388202 295.474675 
L 92.454472 295.441958 
L 92.918359 295.452632 
L 93.117168 295.45885 
L 93.183437 295.428707 
L 93.315976 294.635108 
L 93.448515 295.382129 
L 93.581054 295.374939 
L 93.647324 295.451427 
L 93.713593 295.368289 
L 93.912402 294.948894 
L 93.978672 294.992938 
L 94.17748 295.429079 
L 94.376289 294.34942 
L 94.508828 295.325008 
L 95.038985 295.45072 
L 95.502871 295.329744 
L 95.635411 295.415748 
L 95.834219 295.37657 
L 96.165567 295.400771 
L 96.496915 295.396568 
L 96.563184 295.320828 
L 96.629454 295.400688 
L 97.15961 295.364919 
L 97.557228 295.31998 
L 97.623497 295.162741 
L 97.756036 295.459109 
L 98.021115 295.428718 
L 98.485001 295.386059 
L 98.68381 295.287737 
L 98.882619 295.451989 
L 99.280236 295.402802 
L 100.009201 295.410988 
L 100.738166 295.432709 
L 100.804436 295.480295 
L 100.870705 295.282143 
L 100.936975 295.403801 
L 102.991331 295.412318 
L 103.12387 295.382129 
L 103.786566 295.38833 
L 104.5818 295.386665 
L 105.178226 295.396309 
L 105.575844 295.375102 
L 107.100043 295.377262 
L 107.365122 295.391066 
L 112.401608 295.350543 
L 113.196842 295.323893 
L 113.992077 295.339628 
L 114.853581 295.286806 
L 114.919851 295.380411 
L 114.98612 295.332698 
L 117.040477 295.299395 
L 117.305555 295.320359 
L 118.697215 295.276736 
L 121.281728 295.233518 
L 121.480537 295.213271 
L 122.076963 295.210764 
L 123.336084 295.160815 
L 123.468623 295.159035 
L 123.534893 295.264596 
L 123.601162 295.129244 
L 123.667432 295.171312 
L 125.655519 295.137394 
L 125.721788 294.832933 
L 125.854327 295.050213 
L 126.053136 294.997437 
L 126.450753 294.965506 
L 126.649562 294.917039 
L 126.715831 294.961964 
L 126.782101 294.50887 
L 126.848371 295.149234 
L 126.91464 295.014761 
L 127.113449 294.958314 
L 127.444797 294.929759 
L 127.709875 294.838609 
L 127.776144 294.844292 
L 127.842414 294.559661 
L 127.908683 295.092918 
L 127.974953 294.88856 
L 128.107492 294.727961 
L 128.240031 294.792552 
L 128.43884 294.76336 
L 128.637648 294.738089 
L 128.770188 294.812573 
L 128.836457 294.879568 
L 128.902727 294.606122 
L 128.968996 294.714889 
L 129.035266 294.687701 
L 129.167805 294.512939 
L 129.366614 294.41709 
L 129.764231 294.170432 
L 129.89677 294.278833 
L 130.029309 293.535555 
L 130.161848 293.648814 
L 130.360657 293.918076 
L 130.559466 293.599023 
L 131.023352 291.252348 
L 131.089622 289.753114 
L 131.155892 290.692108 
L 131.686048 282.841617 
L 131.884857 276.465231 
L 132.083665 262.200104 
L 132.149935 214.2253 
L 132.216204 53.568 
L 132.348744 276.35658 
L 132.547552 289.285826 
L 132.746361 293.822695 
L 132.8789 292.854013 
L 132.94517 292.992939 
L 133.011439 293.782819 
L 133.077709 293.369949 
L 133.210248 292.328953 
L 133.276517 294.183095 
L 133.342787 292.468531 
L 133.409056 293.151955 
L 133.475326 293.41774 
L 133.541596 293.289243 
L 133.674135 293.350615 
L 133.806674 293.579388 
L 133.872943 293.533867 
L 134.071752 293.879955 
L 134.270561 294.061434 
L 134.33683 295.038766 
L 134.4031 293.578769 
L 134.469369 294.097769 
L 134.601908 294.380328 
L 134.668178 294.35387 
L 134.933256 294.501014 
L 135.065795 294.504149 
L 135.198334 294.525877 
L 135.330873 294.453904 
L 135.397143 294.64786 
L 135.463413 293.939765 
L 135.595952 294.5924 
L 135.79476 294.581746 
L 135.993569 294.690897 
L 136.391186 294.714667 
L 136.457456 294.809907 
L 136.523725 294.249678 
L 136.589995 295.002273 
L 136.656265 294.932412 
L 136.855073 294.861813 
L 137.252691 294.882097 
L 137.584038 294.825713 
L 137.650308 295.078721 
L 137.716577 295.050051 
L 137.915386 295.005475 
L 138.313003 295.056939 
L 138.578082 295.083286 
L 138.644351 295.140487 
L 138.710621 294.984242 
L 138.77689 295.054767 
L 139.041968 295.057076 
L 139.638394 295.149882 
L 139.704664 295.203735 
L 139.770934 294.924239 
L 139.837203 295.115545 
L 140.30109 295.110485 
L 141.162594 295.162417 
L 144.012185 295.238728 
L 144.210994 295.234738 
L 146.132811 295.281873 
L 146.596698 295.289347 
L 149.380019 295.315983 
L 149.777636 295.319621 
L 152.22961 295.336491 
L 168.863268 295.402326 
L 168.929537 295.320483 
L 168.995807 295.389502 
L 169.459694 295.402229 
L 170.851354 295.420052 
L 171.977937 295.413062 
L 172.574363 295.408913 
L 174.297371 295.459567 
L 174.363641 295.309992 
L 174.42991 295.41192 
L 175.887841 295.409877 
L 177.544579 295.429354 
L 177.809658 295.421993 
L 187.286204 295.400236 
L 187.352473 295.137324 
L 187.418743 295.255899 
L 187.551282 295.361473 
L 188.346517 295.313994 
L 188.412786 295.077179 
L 188.545325 295.45216 
L 188.744134 295.451135 
L 189.075482 295.147351 
L 189.141751 295.175556 
L 189.34056 294.398444 
L 189.539369 294.830364 
L 190.069525 293.124979 
L 190.334603 290.175985 
L 190.400873 289.55083 
L 190.467142 287.448075 
L 190.533412 268.572922 
L 190.599682 273.875379 
L 190.79849 291.234769 
L 191.196108 294.324354 
L 191.527455 295.080056 
L 191.659994 294.621197 
L 191.726264 294.922754 
L 191.792534 294.905724 
L 192.25642 295.267177 
L 192.521499 295.187793 
L 192.852846 295.229613 
L 193.051655 295.31219 
L 193.78062 295.363051 
L 193.84689 295.242118 
L 193.913159 295.320655 
L 194.310777 295.382132 
L 195.901246 295.339187 
L 195.967515 295.447504 
L 196.033785 295.405691 
L 196.497672 295.425354 
L 196.961559 295.406805 
L 197.955602 295.41357 
L 198.485759 295.422143 
L 199.280993 295.410992 
L 199.81115 295.424113 
L 202.395662 295.43779 
L 202.461932 295.344475 
L 202.528201 295.432064 
L 205.64287 295.363515 
L 205.775409 295.444002 
L 206.703183 295.455204 
L 206.769453 295.330343 
L 206.835722 295.407519 
L 207.697227 295.398248 
L 207.763496 295.435447 
L 207.829766 295.30761 
L 207.896035 295.365983 
L 208.028574 295.4468 
L 208.625 295.417985 
L 209.751583 295.426825 
L 210.016661 295.307981 
L 210.21547 295.448296 
L 211.143243 295.347247 
L 211.540861 295.420774 
L 213.1976 295.402709 
L 213.263869 295.224849 
L 213.396408 295.456141 
L 213.661486 295.438603 
L 216.179729 295.414942 
L 216.444808 295.419715 
L 216.511077 295.28497 
L 216.643616 295.437491 
L 218.499164 295.395063 
L 218.631703 295.429659 
L 218.697972 295.330221 
L 218.764242 295.410663 
L 218.963051 295.406497 
L 219.228129 295.399026 
L 219.692016 295.417583 
L 219.758285 295.327112 
L 219.824555 295.418252 
L 221.216216 295.401632 
L 221.812642 295.403122 
L 221.878911 295.321613 
L 221.945181 295.406907 
L 222.342798 295.398508 
L 223.999537 295.396701 
L 224.132076 295.385252 
L 227.180475 295.379726 
L 227.710632 295.373971 
L 229.102292 295.328463 
L 229.43364 295.48195 
L 229.49991 295.223825 
L 229.566179 295.3324 
L 230.162605 295.339395 
L 231.554266 295.362184 
L 231.686805 295.369501 
L 232.018153 295.348119 
L 234.801474 295.269888 
L 234.867744 295.078829 
L 235.000283 295.35001 
L 235.265361 295.28478 
L 235.530439 295.299108 
L 235.861787 295.257946 
L 235.928057 295.124307 
L 235.994326 295.210906 
L 236.325674 295.259718 
L 236.9221 295.263523 
L 237.120909 295.251179 
L 238.4463 295.24138 
L 239.440343 295.221729 
L 239.705421 295.201924 
L 240.036769 295.184124 
L 240.235578 295.288948 
L 240.301847 295.054311 
L 240.368117 295.193958 
L 240.566925 295.150516 
L 240.832004 295.135562 
L 242.356203 294.99478 
L 242.422473 294.707905 
L 242.488742 295.036304 
L 242.555012 294.993619 
L 243.416516 294.877345 
L 243.482786 294.293632 
L 243.615325 294.988848 
L 244.079212 294.890226 
L 244.34429 294.881141 
L 244.410559 294.905927 
L 244.543099 294.343091 
L 244.609368 294.905713 
L 244.675638 294.757479 
L 244.874446 294.878734 
L 245.073255 294.77452 
L 245.205794 294.774884 
L 245.272064 294.576024 
L 245.338333 294.614498 
L 245.470872 294.689077 
L 245.603411 294.328254 
L 245.669681 294.723679 
L 245.735951 293.588493 
L 245.80222 293.951868 
L 245.86849 294.257242 
L 245.934759 294.229458 
L 246.001029 294.091303 
L 246.067298 294.155105 
L 246.133568 294.274522 
L 246.332377 293.885354 
L 246.398646 293.964149 
L 246.531185 294.066802 
L 246.597455 293.903781 
L 246.796263 291.911438 
L 246.928803 293.351669 
L 247.061342 292.928918 
L 247.127611 292.391669 
L 247.193881 292.51826 
L 247.26015 292.826297 
L 247.32642 292.626689 
L 247.458959 291.764458 
L 247.525229 291.427666 
L 247.591498 292.925018 
L 247.657768 292.554854 
L 247.790307 289.876715 
L 247.922846 291.600794 
L 247.989115 291.508832 
L 248.121655 293.758783 
L 248.254194 292.390589 
L 248.320463 292.622297 
L 248.453002 293.816898 
L 248.585541 292.663301 
L 248.71808 286.425578 
L 248.85062 271.016488 
L 248.916889 54.712406 
L 249.049428 269.340749 
L 249.380776 288.334399 
L 249.447046 288.10697 
L 249.645854 290.825762 
L 249.712124 290.757074 
L 249.778393 290.816406 
L 249.844663 291.18965 
L 249.910932 292.770312 
L 250.043472 290.223818 
L 250.109741 293.103038 
L 250.176011 292.987017 
L 250.24228 292.74187 
L 250.30855 292.873454 
L 250.441089 293.683303 
L 250.573628 293.741592 
L 250.706167 294.326462 
L 250.772437 294.279806 
L 250.838706 294.086615 
L 250.904976 294.163186 
L 251.037515 294.71409 
L 251.103784 292.322142 
L 251.170054 294.151108 
L 251.236324 294.019079 
L 251.302593 293.947138 
L 251.501402 294.256295 
L 251.633941 294.184182 
L 251.76648 294.44332 
L 251.83275 294.394175 
L 251.965289 294.347316 
L 252.097828 294.910848 
L 252.164097 292.820083 
L 252.230367 294.696435 
L 252.296636 294.554554 
L 252.362906 294.464502 
L 252.561715 294.683994 
L 252.694254 294.617325 
L 252.826793 294.731612 
L 253.025602 294.624584 
L 253.158141 294.739499 
L 253.22441 293.686712 
L 253.29068 295.090481 
L 253.356949 294.821364 
L 253.423219 294.765324 
L 253.489488 294.84472 
L 253.622028 294.885569 
L 253.754567 294.868778 
L 253.887106 294.930805 
L 254.085914 294.874895 
L 254.152184 294.978757 
L 254.218453 294.911498 
L 254.284723 294.488305 
L 254.350993 295.359872 
L 254.417262 295.005275 
L 254.549801 295.008396 
L 254.68234 295.009617 
L 254.881149 295.020832 
L 255.411305 295.043414 
L 255.543845 294.938839 
L 255.742653 295.055974 
L 256.140271 295.075408 
L 256.405349 295.074208 
L 256.537888 294.86567 
L 256.604157 295.002333 
L 256.802966 295.07624 
L 257.068044 295.118801 
L 257.66447 295.133688 
L 257.929549 295.139176 
L 259.983905 295.216517 
L 286.690535 295.402163 
L 287.552039 295.402228 
L 290.998056 295.40384 
L 291.461943 295.405536 
L 299.28175 295.405201 
L 299.679368 295.453684 
L 299.745637 295.322241 
L 299.811907 295.401981 
L 300.408333 295.407391 
L 300.73968 295.475482 
L 300.80595 295.194971 
L 300.87222 295.379966 
L 301.203567 295.394253 
L 301.866263 295.185653 
L 301.932532 295.435991 
L 301.998802 295.393236 
L 302.396419 295.389156 
L 302.661498 295.342839 
L 302.860306 295.392574 
L 302.926576 295.122195 
L 302.992845 295.231668 
L 303.059115 295.42241 
L 303.125384 295.374192 
L 303.920619 295.379771 
L 304.053158 294.604962 
L 304.185697 295.25601 
L 304.450775 295.346576 
L 304.583315 295.371133 
L 304.715854 295.364603 
L 304.914662 295.393302 
L 305.047201 295.440908 
L 305.113471 294.341403 
L 305.179741 294.774018 
L 305.378549 295.249863 
L 305.577358 295.098421 
L 305.643627 295.104713 
L 305.842436 294.72913 
L 305.908706 294.896536 
L 305.974975 294.821925 
L 306.107514 294.380195 
L 306.173784 293.073331 
L 306.240053 293.455264 
L 306.306323 293.986425 
L 306.372593 293.831206 
L 306.438862 294.140759 
L 306.70394 293.3084 
L 306.836479 293.183205 
L 307.035288 291.607725 
L 307.167827 293.01125 
L 307.234097 284.9525 
L 307.300366 251.63675 
L 307.432905 290.589405 
L 307.631714 293.932404 
L 307.697984 294.010657 
L 307.830523 294.976622 
L 307.963062 294.693784 
L 308.095601 294.983644 
L 308.161871 294.882562 
L 308.29441 294.462468 
L 308.360679 293.19048 
L 308.559488 295.066593 
L 308.758296 294.934961 
L 308.957105 295.192566 
L 309.023375 295.082462 
L 309.089644 295.165036 
L 309.222183 295.343873 
L 309.354722 295.177437 
L 309.487262 294.45377 
L 309.619801 295.260018 
L 309.68607 295.251076 
L 309.818609 295.191908 
L 310.017418 295.259829 
L 310.149957 295.241748 
L 310.282496 295.315867 
L 310.415035 295.121269 
L 310.547574 294.527462 
L 310.680114 295.382062 
L 310.945192 295.324873 
L 311.342809 295.343169 
L 311.541618 295.271002 
L 311.607887 294.923189 
L 311.740426 295.488 
L 311.939235 295.377493 
L 312.138044 295.36581 
L 312.336852 295.370814 
L 312.601931 295.38839 
L 312.73447 295.244689 
L 312.867009 295.415604 
L 313.132087 295.407105 
L 313.662244 295.42402 
L 313.728513 295.467848 
L 313.794783 295.225796 
L 313.861052 295.388171 
L 314.788826 295.443557 
L 314.855095 295.265686 
L 314.921365 295.405677 
L 315.517791 295.399146 
L 315.849139 295.414278 
L 315.915408 295.299828 
L 315.981678 295.47716 
L 316.047947 295.427932 
L 316.578104 295.408713 
L 320.222929 295.458823 
L 320.355468 295.420265 
L 321.349512 295.36545 
L 321.54832 295.426374 
L 323.403868 295.429318 
L 323.602677 295.444084 
L 328.109006 295.436293 
L 347.260907 295.415718 
L 347.459716 295.451877 
L 347.989873 295.413636 
L 348.254951 295.432947 
L 348.32122 295.3348 
L 348.38749 295.390802 
L 348.586299 295.451139 
L 351.502159 295.41733 
L 351.568428 295.318681 
L 351.700968 295.456323 
L 351.899776 295.432246 
L 352.429933 295.434106 
L 352.89382 295.431178 
L 354.683097 295.421402 
L 355.014445 295.432764 
L 355.544602 295.412121 
L 357.135071 295.428226 
L 357.598958 295.422062 
L 358.858079 295.39448 
L 359.123158 295.359143 
L 359.189427 295.2496 
L 359.388236 295.393181 
L 359.653314 295.385937 
L 359.984662 295.355009 
L 360.24974 295.159323 
L 360.382279 295.389032 
L 361.376322 295.244909 
L 361.442592 295.390281 
L 361.508862 295.345118 
L 361.641401 295.284332 
L 361.840209 295.323039 
L 362.237827 295.278162 
L 362.304096 295.350654 
L 362.436635 294.648265 
L 362.569174 295.260939 
L 362.767983 295.203698 
L 362.900522 295.245601 
L 363.033061 295.256998 
L 363.1656 295.298253 
L 363.430679 295.165744 
L 363.496948 294.255474 
L 363.563218 295.444689 
L 363.629487 295.290587 
L 363.762026 295.244981 
L 363.960835 295.459006 
L 364.159644 295.287308 
L 364.292183 295.202868 
L 364.424722 295.247288 
L 364.490991 295.021027 
L 364.557261 293.291927 
L 364.623531 294.479932 
L 364.6898 294.439925 
L 364.954878 293.922801 
L 365.418765 290.122508 
L 365.551304 287.589138 
L 365.683843 257.020815 
L 365.816383 288.357782 
L 366.015191 294.564907 
L 366.14773 294.161303 
L 366.346539 294.832484 
L 366.479078 294.853678 
L 366.545348 295.136328 
L 366.744156 294.098289 
L 366.810426 294.974634 
L 366.876695 294.906714 
L 367.075504 295.144456 
L 367.208043 295.057494 
L 367.340582 295.175938 
L 367.473121 295.072215 
L 367.67193 295.269613 
L 367.7382 295.168037 
L 367.804469 294.738884 
L 367.870739 294.920193 
L 368.135817 295.237507 
L 368.268356 295.220892 
L 368.467165 295.244857 
L 368.798512 295.257915 
L 368.931052 294.912421 
L 369.12986 295.303027 
L 369.328669 295.276958 
L 369.726286 295.334874 
L 369.925095 295.153625 
L 369.991364 295.058509 
L 370.123904 295.404831 
L 370.985408 295.299237 
L 372.642147 295.394965 
L 373.106034 295.41704 
L 373.172303 295.46694 
L 373.238573 295.337175 
L 373.304842 295.402927 
L 398.487273 295.467706 
L 398.487273 295.467706 
" clip-path="url(#p86b91bbb5d)" style="fill: none; stroke: #1f77b4; stroke-width: 1.5; stroke-linecap: square"/>
   </g>
   <g id="patch_3">
    <path d="M 57.6 307.584 
L 57.6 41.472 
" style="fill: none; stroke: #000000; stroke-width: 0.8; stroke-linejoin: miter; stroke-linecap: square"/>
   </g>
   <g id="patch_4">
    <path d="M 414.72 307.584 
L 414.72 41.472 
" style="fill: none; stroke: #000000; stroke-width: 0.8; stroke-linejoin: miter; stroke-linecap: square"/>
   </g>
   <g id="patch_5">
    <path d="M 57.6 307.584 
L 414.72 307.584 
" style="fill: none; stroke: #000000; stroke-width: 0.8; stroke-linejoin: miter; stroke-linecap: square"/>
   </g>
   <g id="patch_6">
    <path d="M 57.6 41.472 
L 414.72 41.472 
" style="fill: none; stroke: #000000; stroke-width: 0.8; stroke-linejoin: miter; stroke-linecap: square"/>
   </g>
   <g id="text_19">
    <text style="font: 12px 'IPAexGothic'; text-anchor: middle" x="236.16" y="35.472" transform="rotate(-0 236.16 35.472)">"022_A5.wav"の振幅スペクトル</text>
   </g>
  </g>
 </g>
 <defs>
  <clipPath id="p86b91bbb5d">
   <rect x="57.6" y="41.472" width="357.12" height="266.112"/>
  </clipPath>
 </defs>
</svg>
