<?xml version="1.0" encoding="utf-8" standalone="no"?>
<!DOCTYPE svg PUBLIC "-//W3C//DTD SVG 1.1//EN"
  "http://www.w3.org/Graphics/SVG/1.1/DTD/svg11.dtd">
<svg xmlns:xlink="http://www.w3.org/1999/xlink" width="460.8pt" height="345.6pt" viewBox="0 0 460.8 345.6" xmlns="http://www.w3.org/2000/svg" version="1.1">
 <metadata>
  <rdf:RDF xmlns:dc="http://purl.org/dc/elements/1.1/" xmlns:cc="http://creativecommons.org/ns#" xmlns:rdf="http://www.w3.org/1999/02/22-rdf-syntax-ns#">
   <cc:Work>
    <dc:type rdf:resource="http://purl.org/dc/dcmitype/StillImage"/>
    <dc:date>2022-11-28T12:36:00.306980</dc:date>
    <dc:format>image/svg+xml</dc:format>
    <dc:creator>
     <cc:Agent>
      <dc:title>Matplotlib v3.6.2, https://matplotlib.org/</dc:title>
     </cc:Agent>
    </dc:creator>
   </cc:Work>
  </rdf:RDF>
 </metadata>
 <defs>
  <style type="text/css">*{stroke-linejoin: round; stroke-linecap: butt}</style>
 </defs>
 <g id="figure_1">
  <g id="patch_1">
   <path d="M 0 345.6 
L 460.8 345.6 
L 460.8 0 
L 0 0 
z
" style="fill: #ffffff"/>
  </g>
  <g id="axes_1">
   <g id="patch_2">
    <path d="M 57.6 307.584 
L 414.72 307.584 
L 414.72 41.472 
L 57.6 41.472 
z
" style="fill: #ffffff"/>
   </g>
   <g id="matplotlib.axis_1">
    <g id="xtick_1">
     <g id="line2d_1">
      <defs>
       <path id="m3b3c3a6c8f" d="M 0 0 
L 0 3.5 
" style="stroke: #000000; stroke-width: 0.8"/>
      </defs>
      <g>
       <use xlink:href="#m3b3c3a6c8f" x="73.832727" y="307.584" style="stroke: #000000; stroke-width: 0.8"/>
      </g>
     </g>
     <g id="text_1">
      <text style="font: 10px 'IPAexGothic'; text-anchor: middle" x="73.832727" y="322.074625" transform="rotate(-0 73.832727 322.074625)">0</text>
     </g>
    </g>
    <g id="xtick_2">
     <g id="line2d_2">
      <g>
       <use xlink:href="#m3b3c3a6c8f" x="140.102281" y="307.584" style="stroke: #000000; stroke-width: 0.8"/>
      </g>
     </g>
     <g id="text_2">
      <text style="font: 10px 'IPAexGothic'; text-anchor: middle" x="140.102281" y="322.074625" transform="rotate(-0 140.102281 322.074625)">1000</text>
     </g>
    </g>
    <g id="xtick_3">
     <g id="line2d_3">
      <g>
       <use xlink:href="#m3b3c3a6c8f" x="206.371835" y="307.584" style="stroke: #000000; stroke-width: 0.8"/>
      </g>
     </g>
     <g id="text_3">
      <text style="font: 10px 'IPAexGothic'; text-anchor: middle" x="206.371835" y="322.074625" transform="rotate(-0 206.371835 322.074625)">2000</text>
     </g>
    </g>
    <g id="xtick_4">
     <g id="line2d_4">
      <g>
       <use xlink:href="#m3b3c3a6c8f" x="272.64139" y="307.584" style="stroke: #000000; stroke-width: 0.8"/>
      </g>
     </g>
     <g id="text_4">
      <text style="font: 10px 'IPAexGothic'; text-anchor: middle" x="272.64139" y="322.074625" transform="rotate(-0 272.64139 322.074625)">3000</text>
     </g>
    </g>
    <g id="xtick_5">
     <g id="line2d_5">
      <g>
       <use xlink:href="#m3b3c3a6c8f" x="338.910944" y="307.584" style="stroke: #000000; stroke-width: 0.8"/>
      </g>
     </g>
     <g id="text_5">
      <text style="font: 10px 'IPAexGothic'; text-anchor: middle" x="338.910944" y="322.074625" transform="rotate(-0 338.910944 322.074625)">4000</text>
     </g>
    </g>
    <g id="xtick_6">
     <g id="line2d_6">
      <g>
       <use xlink:href="#m3b3c3a6c8f" x="405.180498" y="307.584" style="stroke: #000000; stroke-width: 0.8"/>
      </g>
     </g>
     <g id="text_6">
      <text style="font: 10px 'IPAexGothic'; text-anchor: middle" x="405.180498" y="322.074625" transform="rotate(-0 405.180498 322.074625)">5000</text>
     </g>
    </g>
    <g id="text_7">
     <text style="font: 10px 'IPAexGothic'; text-anchor: middle" x="236.16" y="335.924625" transform="rotate(-0 236.16 335.924625)">周波数[Hz]</text>
    </g>
   </g>
   <g id="matplotlib.axis_2">
    <g id="ytick_1">
     <g id="line2d_7">
      <defs>
       <path id="m0e4f8acaa1" d="M 0 0 
L -3.5 0 
" style="stroke: #000000; stroke-width: 0.8"/>
      </defs>
      <g>
       <use xlink:href="#m0e4f8acaa1" x="57.6" y="295.48928" style="stroke: #000000; stroke-width: 0.8"/>
      </g>
     </g>
     <g id="text_8">
      <text style="font: 10px 'IPAexGothic'; text-anchor: end" x="50.6" y="299.234592" transform="rotate(-0 50.6 299.234592)">0.00</text>
     </g>
    </g>
    <g id="ytick_2">
     <g id="line2d_8">
      <g>
       <use xlink:href="#m0e4f8acaa1" x="57.6" y="259.157627" style="stroke: #000000; stroke-width: 0.8"/>
      </g>
     </g>
     <g id="text_9">
      <text style="font: 10px 'IPAexGothic'; text-anchor: end" x="50.6" y="262.902939" transform="rotate(-0 50.6 262.902939)">0.25</text>
     </g>
    </g>
    <g id="ytick_3">
     <g id="line2d_9">
      <g>
       <use xlink:href="#m0e4f8acaa1" x="57.6" y="222.825974" style="stroke: #000000; stroke-width: 0.8"/>
      </g>
     </g>
     <g id="text_10">
      <text style="font: 10px 'IPAexGothic'; text-anchor: end" x="50.6" y="226.571286" transform="rotate(-0 50.6 226.571286)">0.50</text>
     </g>
    </g>
    <g id="ytick_4">
     <g id="line2d_10">
      <g>
       <use xlink:href="#m0e4f8acaa1" x="57.6" y="186.494321" style="stroke: #000000; stroke-width: 0.8"/>
      </g>
     </g>
     <g id="text_11">
      <text style="font: 10px 'IPAexGothic'; text-anchor: end" x="50.6" y="190.239633" transform="rotate(-0 50.6 190.239633)">0.75</text>
     </g>
    </g>
    <g id="ytick_5">
     <g id="line2d_11">
      <g>
       <use xlink:href="#m0e4f8acaa1" x="57.6" y="150.162668" style="stroke: #000000; stroke-width: 0.8"/>
      </g>
     </g>
     <g id="text_12">
      <text style="font: 10px 'IPAexGothic'; text-anchor: end" x="50.6" y="153.90798" transform="rotate(-0 50.6 153.90798)">1.00</text>
     </g>
    </g>
    <g id="ytick_6">
     <g id="line2d_12">
      <g>
       <use xlink:href="#m0e4f8acaa1" x="57.6" y="113.831014" style="stroke: #000000; stroke-width: 0.8"/>
      </g>
     </g>
     <g id="text_13">
      <text style="font: 10px 'IPAexGothic'; text-anchor: end" x="50.6" y="117.576327" transform="rotate(-0 50.6 117.576327)">1.25</text>
     </g>
    </g>
    <g id="ytick_7">
     <g id="line2d_13">
      <g>
       <use xlink:href="#m0e4f8acaa1" x="57.6" y="77.499361" style="stroke: #000000; stroke-width: 0.8"/>
      </g>
     </g>
     <g id="text_14">
      <text style="font: 10px 'IPAexGothic'; text-anchor: end" x="50.6" y="81.244674" transform="rotate(-0 50.6 81.244674)">1.50</text>
     </g>
    </g>
    <g id="text_15">
     <text style="font: 10px 'IPAexGothic'; text-anchor: middle" x="23.1625" y="174.528" transform="rotate(-90 23.1625 174.528)">振幅</text>
    </g>
    <g id="text_16">
     <text style="font: 10px 'IPAexGothic'; text-anchor: start" x="57.6" y="38.472" transform="rotate(-0 57.6 38.472)">1e7</text>
    </g>
   </g>
   <g id="line2d_14">
    <path d="M 73.832727 294.103242 
L 74.031536 295.060343 
L 74.097805 295.146991 
L 74.164075 295.070664 
L 74.362884 295.016752 
L 74.495423 295.037126 
L 74.826771 294.931574 
L 74.95931 294.993162 
L 75.158118 295.095801 
L 75.356927 295.03394 
L 75.489466 295.17768 
L 75.622005 294.398204 
L 75.688275 295.346721 
L 75.754544 294.903082 
L 76.483509 295.007138 
L 76.549779 294.894609 
L 76.682318 295.176333 
L 76.881127 295.096387 
L 77.079935 295.045599 
L 77.411283 294.867416 
L 77.477553 295.285383 
L 77.543822 294.748319 
L 77.610092 294.767907 
L 77.808901 294.701705 
L 78.339057 294.685525 
L 78.405327 294.439421 
L 78.471596 294.579318 
L 78.736674 294.710096 
L 79.001752 294.715672 
L 79.465639 294.03814 
L 79.863257 292.966871 
L 80.062065 292.217756 
L 80.592222 285.519929 
L 80.724761 279.669069 
L 81.056109 248.100758 
L 81.122378 86.424628 
L 81.254917 279.080818 
L 81.387456 291.417687 
L 81.453726 291.122448 
L 81.586265 291.637906 
L 81.652535 291.26544 
L 81.718804 293.693705 
L 81.785074 293.598855 
L 81.917613 293.20805 
L 82.050152 294.442669 
L 82.116422 293.835255 
L 82.248961 293.852707 
L 82.31523 294.016224 
L 82.447769 293.865682 
L 82.845387 293.852584 
L 82.911656 294.180703 
L 82.977926 293.900421 
L 83.044195 294.001902 
L 83.309274 293.923499 
L 83.640621 294.108214 
L 83.83943 294.283579 
L 83.971969 294.159026 
L 84.767204 294.460857 
L 85.032282 294.277699 
L 85.429899 294.046094 
L 85.628708 294.187639 
L 85.694977 293.85454 
L 85.761247 293.910106 
L 85.960056 293.877222 
L 86.158864 293.771538 
L 86.291403 293.949552 
L 86.357673 293.718314 
L 86.490212 294.031602 
L 86.556482 293.847319 
L 86.622751 293.976065 
L 86.689021 293.971009 
L 87.086638 294.957763 
L 87.219177 293.288483 
L 87.285447 293.408214 
L 87.351716 293.540314 
L 87.815603 285.506728 
L 88.213221 256.154013 
L 88.34576 155.120055 
L 88.412029 91.669526 
L 88.544568 278.624309 
L 88.610838 280.314619 
L 88.677107 279.019894 
L 88.743377 280.692177 
L 88.942186 289.119618 
L 89.273533 292.097976 
L 89.339803 292.09526 
L 89.472342 291.880921 
L 89.671151 293.318299 
L 89.936229 293.897334 
L 90.068768 293.784268 
L 90.532655 294.068976 
L 90.598924 294.025795 
L 90.797733 293.77135 
L 90.930272 294.027392 
L 91.129081 293.998342 
L 91.394159 294.216372 
L 91.592968 294.322597 
L 91.791776 294.329168 
L 92.189394 294.431239 
L 92.653281 294.164211 
L 92.78582 294.012748 
L 92.918359 294.206006 
L 93.117168 293.881962 
L 93.382246 293.95931 
L 93.713593 293.842936 
L 93.779863 293.792604 
L 93.912402 294.049642 
L 94.044941 293.717674 
L 94.111211 293.587504 
L 94.17748 293.637399 
L 94.24375 293.754232 
L 94.508828 292.929623 
L 94.575098 292.973266 
L 94.641367 292.700605 
L 94.773906 291.267471 
L 94.840176 291.405129 
L 94.906445 291.336474 
L 95.105254 289.668054 
L 95.171524 290.512809 
L 95.237793 293.882926 
L 95.502871 263.202571 
L 95.569141 240.286814 
L 95.70168 109.503467 
L 95.834219 263.892508 
L 96.033028 293.825696 
L 96.165567 289.132195 
L 96.364376 293.21114 
L 96.430645 292.392229 
L 96.496915 291.929946 
L 96.563184 292.217714 
L 96.695723 293.070809 
L 96.828263 292.918473 
L 97.027071 293.67385 
L 97.093341 293.508127 
L 97.15961 293.513541 
L 97.358419 293.813287 
L 97.490958 293.665661 
L 97.623497 293.886184 
L 97.756036 293.976846 
L 97.888575 294.051184 
L 98.021115 294.20099 
L 98.219923 294.10637 
L 98.352462 294.383774 
L 98.418732 294.167045 
L 98.485001 294.283573 
L 98.68381 294.458195 
L 98.882619 294.488958 
L 99.412775 294.442291 
L 99.677853 294.486105 
L 100.14174 294.581167 
L 100.20801 294.594158 
L 100.340549 294.468575 
L 100.473088 294.504147 
L 100.671897 294.391508 
L 100.804436 294.495557 
L 101.003244 294.293333 
L 101.069514 294.352644 
L 101.268323 293.939146 
L 101.400862 294.08946 
L 101.533401 294.307155 
L 101.66594 294.11237 
L 101.73221 294.396854 
L 101.798479 294.250749 
L 101.931018 293.714415 
L 101.997288 293.760396 
L 102.129827 293.690556 
L 102.328636 291.897263 
L 102.394905 292.411035 
L 102.527444 290.354784 
L 102.726253 284.184241 
L 102.858792 257.088234 
L 102.925062 154.923639 
L 103.057601 288.92724 
L 103.12387 284.24538 
L 103.256409 281.481986 
L 103.388948 283.325032 
L 103.521488 292.847019 
L 103.587757 292.766849 
L 103.654027 291.825677 
L 103.720296 292.33571 
L 103.852835 293.362888 
L 103.985374 292.657375 
L 104.051644 292.895039 
L 104.250453 293.948626 
L 104.316722 293.846185 
L 104.382992 293.890736 
L 104.515531 294.079195 
L 104.64807 293.719581 
L 104.846879 294.423311 
L 105.045687 294.202575 
L 105.178226 294.673211 
L 105.310765 294.220078 
L 105.509574 294.535666 
L 105.774652 294.213364 
L 105.907191 294.227953 
L 105.973461 294.126104 
L 106.039731 294.179863 
L 106.17227 294.318721 
L 106.304809 294.189755 
L 106.371078 294.035582 
L 106.503617 294.242091 
L 106.569887 294.115508 
L 106.768696 294.260054 
L 106.901235 294.374938 
L 107.100043 294.071583 
L 107.232583 294.184486 
L 107.497661 293.870164 
L 107.56393 294.074873 
L 107.6302 293.989409 
L 107.762739 293.564623 
L 107.895278 293.816225 
L 108.425435 293.249748 
L 108.491704 293.56404 
L 108.557974 293.485989 
L 108.690513 293.19184 
L 108.756782 293.216494 
L 108.889321 293.153434 
L 109.353208 290.203428 
L 109.485747 291.218392 
L 109.552017 291.061327 
L 109.883365 285.302786 
L 110.082173 274.965743 
L 110.148443 282.057374 
L 110.214712 53.568 
L 110.280982 189.042867 
L 110.479791 268.524453 
L 110.61233 293.331837 
L 110.811138 287.06058 
L 111.009947 292.980101 
L 111.076217 291.935311 
L 111.142486 291.986028 
L 111.208756 292.061726 
L 111.341295 293.373712 
L 111.473834 292.793822 
L 111.672643 293.812316 
L 111.738912 293.531365 
L 111.805182 293.512839 
L 111.871451 293.612894 
L 112.00399 294.185754 
L 112.07026 293.732402 
L 112.13653 294.003866 
L 112.269069 294.228438 
L 112.467877 293.889463 
L 112.666686 294.400204 
L 112.799225 294.193686 
L 112.931764 294.684229 
L 112.998034 294.424879 
L 113.064303 294.473711 
L 113.196842 294.320425 
L 113.395651 294.569165 
L 113.52819 294.550484 
L 113.726999 294.775152 
L 113.793268 294.706096 
L 113.859538 294.888369 
L 113.925807 294.632982 
L 113.992077 294.71492 
L 114.323425 294.987542 
L 114.654773 294.853043 
L 114.721042 294.930436 
L 114.787312 294.858671 
L 115.118659 294.880557 
L 115.317468 294.785957 
L 115.450007 294.843275 
L 115.582546 294.767882 
L 115.648816 294.936744 
L 115.715085 294.37705 
L 115.781355 294.514061 
L 115.980164 294.091998 
L 116.178972 294.67509 
L 116.51032 293.41762 
L 116.775398 291.329371 
L 116.841668 291.164794 
L 117.106746 287.598635 
L 117.173016 287.905918 
L 117.239285 290.027516 
L 117.371824 287.345505 
L 117.438094 290.089022 
L 117.504363 157.277281 
L 117.636903 289.165853 
L 117.703172 292.621626 
L 117.769442 291.223477 
L 117.901981 287.296544 
L 117.96825 287.388592 
L 118.564676 294.112972 
L 118.630946 293.754095 
L 118.829754 293.308547 
L 119.293641 294.539486 
L 119.359911 294.257647 
L 119.42618 294.273671 
L 119.757528 294.612746 
L 119.890067 294.89753 
L 119.956337 294.816446 
L 120.088876 294.62511 
L 120.685302 294.671608 
L 120.817841 294.535639 
L 121.082919 294.620944 
L 121.149189 294.721529 
L 121.281728 294.572964 
L 122.010693 294.655504 
L 122.275771 294.435973 
L 122.54085 294.464734 
L 122.607119 294.388811 
L 122.673389 294.446803 
L 122.739658 294.465168 
L 122.805928 294.637487 
L 122.872197 294.512149 
L 122.938467 294.58008 
L 123.004736 294.236524 
L 123.071006 294.449812 
L 123.137276 294.429127 
L 123.336084 293.686483 
L 123.468623 293.696203 
L 123.601162 292.954784 
L 123.667432 293.124829 
L 123.866241 294.626149 
L 124.197588 290.592814 
L 124.263858 289.305923 
L 124.330127 289.35749 
L 124.462667 291.613095 
L 124.595206 282.679308 
L 124.727745 250.154253 
L 124.794014 161.170858 
L 124.926553 273.479494 
L 124.992823 275.523043 
L 125.257901 293.783443 
L 125.39044 288.883049 
L 125.589249 294.309618 
L 125.788058 293.116219 
L 125.986866 294.218358 
L 126.053136 293.850802 
L 126.119405 293.894358 
L 126.251945 294.440359 
L 126.318214 294.41994 
L 126.450753 294.228258 
L 126.583292 294.558044 
L 126.649562 294.403029 
L 126.782101 294.360734 
L 126.98091 294.631975 
L 127.113449 294.481866 
L 127.378527 294.66293 
L 127.511066 294.645517 
L 127.709875 294.791244 
L 127.908683 294.856554 
L 128.107492 294.871534 
L 128.637648 294.932556 
L 128.836457 295.039659 
L 129.035266 294.807969 
L 129.300344 294.929704 
L 129.432883 295.022863 
L 129.89677 294.786121 
L 130.228118 295.051727 
L 130.294387 294.753761 
L 130.360657 294.78668 
L 130.493196 294.855967 
L 130.824544 295.428998 
L 131.089622 294.845586 
L 131.155892 294.920526 
L 131.222161 294.77924 
L 131.42097 293.395201 
L 131.686048 287.13758 
L 131.752318 286.668136 
L 131.818587 286.953938 
L 131.884857 286.764051 
L 132.017396 265.087278 
L 132.083665 238.86485 
L 132.216204 290.631311 
L 132.282474 292.783628 
L 132.348744 292.649018 
L 132.481283 291.896224 
L 132.613822 288.633502 
L 132.94517 293.128023 
L 133.210248 295.227394 
L 133.276517 294.923042 
L 133.342787 294.447912 
L 133.409056 294.490716 
L 133.475326 294.411946 
L 133.872943 295.120002 
L 133.939213 295.034718 
L 134.4031 295.113182 
L 134.535639 295.205394 
L 134.734447 294.876067 
L 135.198334 295.129597 
L 135.595952 295.0351 
L 135.662221 295.194491 
L 135.728491 295.021492 
L 135.79476 295.116849 
L 135.927299 295.068297 
L 136.126108 295.144044 
L 136.324917 295.085797 
L 136.391186 295.207117 
L 136.457456 295.162331 
L 136.656265 295.118993 
L 136.788804 295.187929 
L 136.921343 295.075362 
L 137.120151 295.276604 
L 137.186421 295.35547 
L 137.252691 295.267347 
L 137.451499 295.209219 
L 137.517769 295.226751 
L 137.584038 294.800938 
L 137.650308 294.895511 
L 138.180464 295.09792 
L 138.313003 294.763915 
L 138.379273 294.659057 
L 138.445543 294.784144 
L 138.578082 294.217377 
L 138.644351 294.238668 
L 138.84316 294.973567 
L 138.975699 292.539666 
L 139.108238 294.419141 
L 139.174508 293.516911 
L 139.240777 285.813271 
L 139.373316 255.816031 
L 139.505855 293.91181 
L 139.638394 287.129544 
L 139.969742 293.667692 
L 140.036012 293.273863 
L 140.102281 292.76043 
L 140.30109 294.969387 
L 140.433629 294.236611 
L 140.499899 294.289946 
L 140.632438 294.84143 
L 140.764977 294.43974 
L 140.963786 294.81756 
L 141.162594 294.582733 
L 141.295133 294.839574 
L 141.493942 294.683109 
L 141.692751 294.747233 
L 141.82529 294.741861 
L 141.957829 294.818104 
L 142.024098 294.701604 
L 142.090368 294.766306 
L 142.289177 294.697751 
L 142.620524 294.76114 
L 142.753064 294.721064 
L 142.885603 294.742214 
L 143.018142 294.742023 
L 143.21695 294.865175 
L 143.415759 294.627069 
L 143.614568 294.681966 
L 143.813376 294.621495 
L 143.879646 294.78839 
L 144.078455 294.378979 
L 144.343533 294.381126 
L 144.476072 294.41638 
L 144.80742 293.829209 
L 144.939959 294.238775 
L 145.138767 294.373532 
L 145.668924 292.796346 
L 145.735193 293.398546 
L 146.000272 291.956576 
L 146.19908 291.111659 
L 146.26535 291.893719 
L 146.331619 291.613225 
L 146.397889 288.893432 
L 146.530428 265.093827 
L 146.596698 156.329739 
L 146.662967 196.716906 
L 146.861776 272.630257 
L 147.126854 292.915695 
L 147.193124 293.79712 
L 147.259393 293.575339 
L 147.524471 290.627849 
L 147.922089 294.738437 
L 148.054628 294.353851 
L 148.253437 293.794683 
L 148.651054 294.701074 
L 148.717323 294.710319 
L 148.916132 294.395175 
L 148.982402 294.427473 
L 149.18121 294.7687 
L 149.843906 294.849774 
L 149.976445 294.867503 
L 150.108984 294.807049 
L 150.241523 294.804886 
L 150.307793 295.107552 
L 150.374062 294.964448 
L 150.506601 294.906376 
L 150.63914 294.999646 
L 150.837949 294.805411 
L 151.169297 295.093473 
L 151.699453 294.981566 
L 151.964532 294.999956 
L 152.030801 294.899517 
L 152.22961 295.132821 
L 152.362149 294.838241 
L 152.428418 294.88159 
L 152.627227 295.106899 
L 152.759766 294.966618 
L 152.826036 295.068952 
L 152.892305 295.391509 
L 153.091114 294.734991 
L 153.223653 295.1561 
L 153.289923 294.925902 
L 153.356192 294.651529 
L 153.422462 294.767377 
L 153.488731 295.301886 
L 153.62127 293.722431 
L 153.753809 291.58261 
L 153.820079 292.918007 
L 153.886349 285.919265 
L 153.952618 288.07916 
L 154.085157 293.623356 
L 154.283966 291.701662 
L 154.416505 292.014732 
L 154.482775 293.118588 
L 154.549044 292.65267 
L 154.814122 294.483812 
L 154.880392 294.746311 
L 154.946661 294.592692 
L 155.079201 294.827771 
L 155.14547 295.364921 
L 155.21174 295.23105 
L 155.344279 294.718508 
L 155.476818 295.2605 
L 155.543087 295.18939 
L 155.675627 294.938582 
L 155.808166 295.143203 
L 156.139513 295.187089 
L 156.338322 295.066481 
L 156.470861 295.231884 
L 156.6034 294.644521 
L 156.66967 295.124912 
L 156.735939 295.099737 
L 156.868479 295.105885 
L 157.001018 295.025713 
L 157.199826 295.093691 
L 157.398635 295.102357 
L 157.464905 295.154236 
L 157.663713 295.018847 
L 157.862522 295.06357 
L 158.19387 294.893108 
L 158.326409 294.767973 
L 158.392678 294.860065 
L 158.458948 294.592387 
L 158.525217 294.851249 
L 158.591487 294.81646 
L 158.989104 294.807572 
L 159.187913 295.052188 
L 159.320452 294.818659 
L 159.386722 294.981212 
L 159.452991 294.915427 
L 159.519261 294.866617 
L 159.6518 294.605608 
L 159.784339 294.661814 
L 159.916878 293.929942 
L 160.115687 293.032771 
L 160.181956 293.22618 
L 160.248226 292.984625 
L 160.314495 293.172844 
L 160.513304 294.905119 
L 160.712113 293.777842 
L 160.844652 288.361492 
L 160.977191 273.794879 
L 161.04346 276.200572 
L 161.10973 271.652115 
L 161.176 215.831527 
L 161.374808 284.337741 
L 161.507347 292.538491 
L 161.706156 284.156619 
L 161.971234 292.686508 
L 162.037504 292.564296 
L 162.236312 295.192464 
L 162.302582 294.703268 
L 162.435121 294.067694 
L 162.63393 295.19394 
L 162.700199 294.614952 
L 162.766469 294.642077 
L 162.899008 295.007758 
L 162.965278 294.87294 
L 163.097817 294.688312 
L 163.296625 295.125196 
L 163.429164 294.926581 
L 163.495434 294.984957 
L 163.627973 295.008402 
L 163.760512 294.93348 
L 163.826782 295.037436 
L 163.893051 295.388368 
L 163.959321 295.15497 
L 164.02559 295.269826 
L 164.09186 295.223901 
L 164.290669 295.152551 
L 164.754555 295.336414 
L 164.887095 295.310025 
L 165.417251 295.15812 
L 165.61606 295.298368 
L 165.682329 295.160695 
L 165.947407 295.449023 
L 166.146216 295.166413 
L 166.345025 295.330228 
L 166.543833 295.281362 
L 166.610103 295.28223 
L 166.676373 295.050848 
L 166.875181 295.322132 
L 166.941451 295.34285 
L 167.07399 294.918057 
L 167.140259 294.959304 
L 167.272799 295.292856 
L 167.339068 295.201414 
L 167.405338 295.00084 
L 167.471607 295.064391 
L 167.537877 295.059019 
L 167.604146 295.273391 
L 167.802955 294.260524 
L 167.869225 294.247927 
L 168.134303 291.935041 
L 168.266842 292.778055 
L 168.333111 292.659876 
L 168.399381 290.081598 
L 168.465651 281.047607 
L 168.59819 289.934522 
L 168.730729 291.936794 
L 168.796998 291.916466 
L 169.062076 288.133048 
L 169.128346 288.044615 
L 169.260885 292.669653 
L 169.393424 292.65572 
L 169.459694 292.747384 
L 169.724772 294.053967 
L 169.98985 295.165888 
L 170.05612 295.130993 
L 170.254928 294.508366 
L 170.453737 295.330489 
L 170.520007 295.370782 
L 170.652546 295.124785 
L 170.785085 295.382035 
L 171.050163 295.169031 
L 171.116433 295.322287 
L 171.182702 295.089911 
L 171.248972 295.304159 
L 171.315241 295.216682 
L 171.44778 295.484488 
L 171.51405 295.289614 
L 171.58032 295.281823 
L 171.646589 295.113545 
L 171.712859 295.175002 
L 171.845398 295.256589 
L 172.110476 294.989138 
L 172.176746 295.313141 
L 172.243015 295.197241 
L 172.375554 295.104891 
L 172.773172 295.262439 
L 173.03825 294.889126 
L 173.104519 295.205248 
L 173.170789 295.057472 
L 173.369598 294.891167 
L 173.435867 294.90855 
L 173.700945 294.193552 
L 173.833484 294.576015 
L 173.899754 294.076328 
L 173.966023 294.3984 
L 174.032293 294.510476 
L 174.098563 294.847285 
L 174.164832 294.804663 
L 174.231102 294.868151 
L 174.363641 294.532725 
L 174.42991 295.052198 
L 174.49618 295.04315 
L 174.628719 294.174189 
L 174.694989 294.25129 
L 174.761258 294.230298 
L 175.026336 291.742488 
L 175.225145 293.856164 
L 175.357684 290.895409 
L 175.423954 291.588514 
L 175.490223 291.296928 
L 175.622762 268.306146 
L 175.755301 177.049855 
L 175.887841 290.088067 
L 175.95411 290.037678 
L 176.02038 291.3851 
L 176.086649 295.082444 
L 176.285458 282.592239 
L 176.417997 287.024801 
L 176.616806 293.658162 
L 176.749345 292.518445 
L 176.881884 294.641992 
L 177.080693 292.15732 
L 177.279501 294.700078 
L 177.345771 294.429079 
L 177.41204 294.094713 
L 177.544579 295.3047 
L 177.610849 294.834282 
L 177.743388 294.187333 
L 177.809658 294.248182 
L 177.942197 294.689247 
L 178.074736 294.584226 
L 178.207275 294.9079 
L 178.273545 294.845015 
L 178.406084 294.555719 
L 178.472353 294.961265 
L 178.538623 294.927832 
L 178.604892 294.968258 
L 178.737431 294.864821 
L 178.86997 295.095213 
L 179.068779 294.707982 
L 179.135049 294.776588 
L 179.201318 295.037213 
L 179.267588 294.998358 
L 179.333857 294.72871 
L 179.400127 295.213383 
L 179.466396 295.038597 
L 179.598936 295.113308 
L 179.797744 294.995792 
L 179.930283 294.983019 
L 180.062822 294.923831 
L 180.592979 295.25214 
L 180.924327 294.858891 
L 181.123135 295.220059 
L 181.189405 295.063271 
L 181.321944 295.295291 
L 181.587022 294.715993 
L 181.653292 294.971888 
L 181.8521 295.440122 
L 181.91837 295.255762 
L 182.117179 294.399635 
L 182.183448 294.50793 
L 182.249718 294.758773 
L 182.315987 294.543231 
L 182.514796 293.334202 
L 182.581066 293.351474 
L 182.713605 294.358 
L 182.846144 291.615749 
L 182.912413 289.828685 
L 183.044952 271.775982 
L 183.177492 293.925523 
L 183.243761 294.488167 
L 183.3763 293.457188 
L 183.508839 294.72332 
L 183.707648 292.654292 
L 183.773917 292.735921 
L 183.972726 294.45082 
L 184.038996 294.020166 
L 184.105265 293.779136 
L 184.237804 294.686345 
L 184.304074 295.444235 
L 184.436613 294.574438 
L 184.502883 294.662521 
L 184.635422 295.274523 
L 184.767961 294.68463 
L 184.83423 295.148312 
L 184.9005 294.862432 
L 184.966769 295.214874 
L 185.033039 295.068552 
L 185.165578 294.948407 
L 185.298117 295.221234 
L 185.496926 294.967028 
L 185.629465 295.182614 
L 185.695735 294.92911 
L 185.762004 295.269944 
L 185.894543 295.038913 
L 186.027082 295.098303 
L 186.159621 294.955746 
L 186.557239 295.209269 
L 186.756047 295.075126 
L 187.021126 295.053477 
L 187.153665 295.072276 
L 187.286204 295.249043 
L 187.551282 295.070922 
L 187.617552 295.172442 
L 187.683821 295.117937 
L 187.88263 295.001049 
L 188.015169 295.126948 
L 188.346517 294.944087 
L 188.611595 294.923835 
L 188.810404 295.379992 
L 189.141751 294.72444 
L 189.34056 293.65701 
L 189.40683 294.377231 
L 189.473099 294.163781 
L 189.671908 293.413615 
L 189.936986 294.722662 
L 190.003256 294.678687 
L 190.069525 295.245035 
L 190.202064 285.735665 
L 190.268334 258.805595 
L 190.334603 272.853654 
L 190.467142 291.591007 
L 190.665951 293.388033 
L 190.79849 294.712892 
L 190.931029 293.387628 
L 190.997299 293.437879 
L 191.196108 294.109207 
L 191.394916 294.583463 
L 191.527455 295.467607 
L 191.726264 294.675063 
L 191.925073 295.396201 
L 191.991342 295.290201 
L 192.123881 295.118988 
L 192.25642 295.326455 
L 192.38896 295.182483 
L 192.919116 295.345136 
L 193.117925 295.293604 
L 193.383003 295.326546 
L 194.045698 295.336564 
L 194.244507 295.380637 
L 194.840933 295.363332 
L 195.834976 295.397676 
L 195.967515 295.437859 
L 196.431402 295.324899 
L 196.497672 295.459329 
L 196.76275 295.034936 
L 196.895289 295.185078 
L 196.961559 295.390688 
L 197.094098 294.777977 
L 197.292907 293.694075 
L 197.359176 293.903383 
L 197.425446 295.008964 
L 197.491715 293.55395 
L 197.557985 272.223114 
L 197.624254 283.194214 
L 197.823063 295.24715 
L 198.021872 293.928349 
L 198.154411 295.393334 
L 198.22068 294.820975 
L 198.353219 293.682807 
L 198.485759 294.021798 
L 198.552028 294.952755 
L 198.618298 294.934345 
L 198.750837 293.781014 
L 198.949645 295.288005 
L 199.015915 295.080179 
L 199.148454 294.790742 
L 199.280993 295.264584 
L 199.347263 295.140882 
L 199.546071 295.262913 
L 199.612341 295.379202 
L 199.81115 295.092314 
L 200.009958 295.180713 
L 200.142497 295.10841 
L 200.341306 295.267704 
L 200.738923 295.120204 
L 201.070271 295.174307 
L 201.335349 295.190165 
L 201.534158 295.220008 
L 201.666697 295.31665 
L 202.064314 295.162332 
L 202.130584 295.239007 
L 202.196854 295.170654 
L 202.594471 295.097835 
L 202.859549 295.05132 
L 203.058358 295.106114 
L 203.190897 295.255614 
L 203.455975 295.114019 
L 203.853592 294.62484 
L 204.052401 294.817044 
L 204.118671 295.329491 
L 204.450018 292.013629 
L 204.516288 292.234606 
L 204.648827 291.525054 
L 204.715097 291.630676 
L 204.781366 293.532098 
L 204.847636 237.24915 
L 204.980175 285.47392 
L 205.245253 293.807014 
L 205.311523 294.816818 
L 205.377792 294.59187 
L 205.444062 295.101469 
L 205.510331 295.065939 
L 205.775409 291.670452 
L 206.106757 294.904112 
L 206.173027 294.806317 
L 206.305566 295.273126 
L 206.371835 295.065796 
L 206.570644 294.483821 
L 206.769453 294.973248 
L 206.901992 295.057452 
L 207.034531 295.24175 
L 207.16707 294.877662 
L 207.299609 294.922392 
L 207.564687 295.164949 
L 207.763496 295.017244 
L 207.962305 294.9978 
L 208.227383 295.083981 
L 208.492461 295.051533 
L 208.625 295.021614 
L 208.823809 295.103972 
L 210.21547 295.020279 
L 210.281739 295.175996 
L 210.480548 294.959949 
L 210.613087 294.826248 
L 211.010704 294.86682 
L 211.143243 294.62556 
L 211.209513 294.835535 
L 211.275782 294.681528 
L 211.342052 294.872225 
L 211.474591 294.393925 
L 211.540861 293.969413 
L 211.60713 294.13774 
L 211.6734 294.364908 
L 211.739669 295.28348 
L 212.071017 285.878251 
L 212.137287 260.751746 
L 212.269826 291.669731 
L 212.336095 292.13689 
L 212.534904 294.872103 
L 212.667443 294.526837 
L 212.799982 295.180616 
L 212.866252 294.938122 
L 212.998791 294.286023 
L 213.1976 295.174398 
L 213.263869 295.273179 
L 213.396408 294.887037 
L 213.462678 294.924612 
L 213.595217 295.488 
L 213.661486 295.428399 
L 213.860295 295.200633 
L 214.059104 295.287635 
L 214.788069 295.389839 
L 214.854338 295.167376 
L 214.920608 295.330911 
L 215.517034 295.307039 
L 215.914651 295.347389 
L 216.444808 295.313229 
L 216.643616 295.312133 
L 216.709886 295.134198 
L 216.776155 295.206033 
L 216.974964 295.349294 
L 217.438851 295.234622 
L 217.836468 295.255164 
L 218.167816 295.209112 
L 218.366625 295.343453 
L 218.432894 295.390083 
L 218.697972 294.887787 
L 218.830512 295.251916 
L 218.896781 295.076067 
L 219.09559 293.956642 
L 219.228129 294.821875 
L 219.294398 294.607529 
L 219.360668 292.599028 
L 219.426938 286.211949 
L 219.559477 294.571267 
L 219.625746 294.303769 
L 219.758285 295.138375 
L 219.824555 295.108923 
L 220.023364 293.73864 
L 220.089633 293.763942 
L 220.155903 294.575747 
L 220.222172 294.460324 
L 220.288442 294.748027 
L 220.354711 294.709913 
L 220.48725 293.622677 
L 220.55352 293.938259 
L 220.686059 294.339711 
L 221.017407 295.297695 
L 221.083676 295.359509 
L 221.216216 294.972755 
L 221.282485 294.996986 
L 221.415024 295.39735 
L 221.481294 295.340268 
L 221.613833 295.258025 
L 221.746372 295.394497 
L 221.945181 295.164476 
L 222.07772 295.357748 
L 222.143989 295.222073 
L 222.210259 295.278063 
L 223.336841 295.308944 
L 223.403111 295.372148 
L 223.60192 295.138406 
L 223.999537 295.257393 
L 224.132076 295.309664 
L 224.330885 295.127094 
L 224.794771 295.250347 
L 224.99358 295.036844 
L 225.258658 295.096634 
L 225.590006 294.844738 
L 225.722545 295.233003 
L 225.788815 295.076469 
L 225.921354 294.516763 
L 226.120163 294.94223 
L 226.252702 293.597441 
L 226.318971 293.652546 
L 226.385241 293.478962 
L 226.45151 295.010429 
L 226.584049 288.281979 
L 226.716589 269.467219 
L 226.849128 293.930852 
L 226.981667 293.317301 
L 227.180475 295.011388 
L 227.313015 294.942558 
L 227.379284 295.3863 
L 227.644362 294.152195 
L 227.843171 294.778753 
L 227.97571 294.540381 
L 228.174519 295.179258 
L 228.373327 294.963981 
L 228.837214 295.454197 
L 229.036023 295.358654 
L 229.102292 295.465339 
L 229.168562 295.411768 
L 229.367371 295.346166 
L 229.566179 295.385273 
L 230.030066 295.368441 
L 230.162605 295.418386 
L 230.560223 295.359359 
L 231.156649 295.380236 
L 231.487996 295.338883 
L 231.951883 295.345594 
L 232.150692 294.998884 
L 232.283231 295.237253 
L 232.41577 295.223831 
L 232.614579 295.342618 
L 232.747118 295.185841 
L 232.945927 295.180276 
L 233.012196 295.112447 
L 233.144735 295.448949 
L 233.409814 294.050402 
L 233.476083 294.196512 
L 233.608622 294.709867 
L 233.741161 294.735145 
L 233.807431 295.029927 
L 233.8737 293.088357 
L 233.93997 281.929542 
L 234.006239 282.352897 
L 234.205048 295.256332 
L 234.337587 295.32233 
L 234.470126 294.533756 
L 234.536396 293.07077 
L 234.602665 293.344922 
L 234.801474 294.467259 
L 234.867744 295.458505 
L 235.000283 293.730473 
L 235.066552 293.817833 
L 235.265361 292.553608 
L 235.331631 293.114686 
L 235.530439 295.08836 
L 235.596709 295.309508 
L 235.729248 294.823916 
L 235.795517 295.041157 
L 235.861787 294.88588 
L 235.994326 294.906237 
L 236.259404 295.335657 
L 236.391943 295.344133 
L 236.524483 295.3593 
L 236.657022 295.032994 
L 236.85583 295.350211 
L 237.054639 295.31883 
L 237.187178 295.407984 
L 237.385987 295.286592 
L 237.518526 295.368713 
L 237.584795 295.259812 
L 237.717335 295.35858 
L 237.916143 295.350205 
L 238.048682 295.343016 
L 238.181221 295.451226 
L 238.38003 295.370285 
L 238.4463 295.39251 
L 238.512569 295.157132 
L 238.578839 295.366688 
L 238.645108 295.311155 
L 239.042726 295.368585 
L 239.241534 295.381011 
L 239.440343 295.277801 
L 239.705421 295.343126 
L 239.970499 295.3028 
L 240.103038 295.332609 
L 240.169308 295.452869 
L 240.235578 295.362394 
L 240.301847 295.30258 
L 240.368117 294.984553 
L 240.500656 295.420757 
L 240.765734 295.034199 
L 240.832004 295.144068 
L 240.964543 294.30384 
L 241.030812 294.4399 
L 241.097082 294.235362 
L 241.163351 294.828853 
L 241.229621 290.061637 
L 241.29589 292.560678 
L 241.42843 295.211547 
L 241.560969 294.600554 
L 241.693508 295.403629 
L 241.759777 295.210679 
L 241.892316 294.995622 
L 241.958586 295.206227 
L 242.024856 295.164762 
L 242.289934 293.812514 
L 242.356203 294.039912 
L 242.422473 294.89721 
L 242.488742 294.467914 
L 242.621282 294.26634 
L 242.82009 294.996579 
L 242.952629 294.65 
L 243.018899 294.728133 
L 243.085168 295.408281 
L 243.151438 295.375348 
L 243.283977 294.964903 
L 243.350247 295.042824 
L 243.482786 295.347147 
L 243.549055 295.219377 
L 243.615325 295.113746 
L 243.681594 295.157465 
L 243.814133 295.354143 
L 244.012942 295.127877 
L 244.145481 295.215925 
L 244.34429 295.081962 
L 244.476829 295.22246 
L 244.675638 295.062847 
L 244.808177 295.183073 
L 244.874446 294.851688 
L 244.940716 295.10618 
L 245.006985 295.055744 
L 245.205794 295.054632 
L 245.338333 294.992272 
L 245.603411 295.085158 
L 245.735951 295.058503 
L 245.80222 295.259637 
L 246.001029 294.865907 
L 246.531185 294.861823 
L 246.597455 294.879152 
L 246.663724 295.119757 
L 246.729994 294.404642 
L 246.796263 294.764517 
L 246.928803 294.727059 
L 247.193881 294.414761 
L 247.458959 294.123111 
L 247.657768 294.746486 
L 247.856576 293.225748 
L 248.055385 289.591427 
L 248.121655 290.316108 
L 248.187924 290.29858 
L 248.320463 289.249348 
L 248.386733 290.276244 
L 248.453002 294.496004 
L 248.519272 192.254258 
L 248.651811 282.577187 
L 248.916889 292.102591 
L 249.115698 294.685424 
L 249.447046 291.275761 
L 249.579585 292.832639 
L 249.712124 292.623169 
L 249.910932 293.96977 
L 249.977202 294.109473 
L 250.109741 293.724188 
L 250.374819 294.289343 
L 250.507358 294.46156 
L 250.706167 295.242624 
L 250.838706 294.908829 
L 250.904976 294.952241 
L 251.103784 294.862773 
L 251.368863 295.198239 
L 251.501402 295.001533 
L 251.70021 294.995079 
L 251.76648 294.942085 
L 251.965289 295.345182 
L 252.031558 295.283574 
L 252.097828 295.172199 
L 252.164097 295.365036 
L 252.230367 295.170452 
L 252.296636 295.206757 
L 252.429176 295.140242 
L 252.627984 295.392968 
L 252.694254 295.318632 
L 252.826793 295.200891 
L 253.423219 295.310212 
L 253.953375 295.271664 
L 254.019645 295.451837 
L 254.085914 295.330682 
L 254.284723 295.361236 
L 254.616071 295.344971 
L 254.814879 295.364225 
L 255.013688 295.382561 
L 255.212497 295.278261 
L 255.345036 295.455571 
L 255.411305 295.365597 
L 255.543845 294.949167 
L 255.742653 294.065632 
L 255.808923 286.961443 
L 255.941462 294.253146 
L 256.20654 295.271928 
L 256.27281 295.014168 
L 256.339079 294.964282 
L 256.537888 295.367887 
L 256.736697 294.948902 
L 256.802966 295.211077 
L 256.869236 295.139572 
L 257.068044 294.64043 
L 257.134314 294.663101 
L 257.266853 295.22318 
L 257.333123 295.15114 
L 257.531931 294.991055 
L 257.598201 295.370777 
L 257.66447 295.339956 
L 257.797009 295.187515 
L 258.327166 295.399571 
L 258.525975 295.345785 
L 259.1224 295.301235 
L 259.520018 295.402844 
L 259.718826 295.415899 
L 259.983905 295.384941 
L 260.248983 295.348344 
L 260.447792 295.245479 
L 261.441835 295.358907 
L 261.773183 294.912586 
L 261.905722 294.990919 
L 261.971991 294.720189 
L 262.038261 294.769966 
L 262.1708 294.573927 
L 262.700956 293.704123 
L 262.767226 293.775745 
L 263.032304 294.883572 
L 263.098574 291.098643 
L 263.164843 293.517942 
L 263.297382 292.645485 
L 263.496191 293.815753 
L 263.695 294.442844 
L 264.026347 292.871204 
L 264.092617 292.984663 
L 264.291426 293.656854 
L 264.357695 292.979604 
L 264.423965 293.417952 
L 264.490234 292.929877 
L 264.556504 293.000601 
L 264.622773 293.605646 
L 264.689043 293.238571 
L 264.755313 293.409869 
L 264.887852 294.381439 
L 264.954121 294.319026 
L 265.020391 294.74362 
L 265.08666 294.584147 
L 265.219199 294.451878 
L 265.484278 294.917184 
L 265.749356 295.111327 
L 265.881895 295.117033 
L 266.279512 295.287921 
L 266.544591 295.227364 
L 266.875938 295.336868 
L 267.141017 295.398918 
L 267.273556 295.435287 
L 267.604903 295.303316 
L 268.13506 295.429009 
L 268.797755 295.408224 
L 270.189416 295.407215 
L 270.255686 295.222091 
L 270.388225 293.599248 
L 270.520764 295.464019 
L 270.653303 295.265543 
L 270.852112 295.427806 
L 270.984651 295.251707 
L 271.05092 295.303063 
L 271.183459 295.447145 
L 271.249729 295.323812 
L 271.647346 295.209694 
L 271.779885 295.167765 
L 271.978694 295.385496 
L 272.111233 295.243666 
L 272.310042 295.4429 
L 272.50885 295.358181 
L 272.64139 295.467411 
L 272.840198 295.334435 
L 273.105276 295.378871 
L 274.496937 295.323337 
L 274.629476 295.408099 
L 275.093363 295.270154 
L 275.292172 295.252238 
L 275.689789 295.035182 
L 275.888598 295.430619 
L 275.954867 295.325445 
L 276.021137 295.280933 
L 276.352485 294.591022 
L 276.418754 294.663877 
L 276.551293 295.303157 
L 276.617563 295.2705 
L 277.01518 293.853846 
L 277.147719 293.72224 
L 277.280258 294.024146 
L 277.346528 293.624695 
L 277.479067 290.675852 
L 277.545337 285.146107 
L 277.611606 258.737151 
L 277.677876 263.56663 
L 277.810415 292.098661 
L 277.942954 294.648866 
L 278.009223 294.353785 
L 278.208032 293.141792 
L 278.274302 292.957795 
L 278.406841 293.957534 
L 278.47311 293.833268 
L 278.53938 294.199685 
L 278.671919 293.387356 
L 278.738188 293.417878 
L 278.936997 292.688119 
L 279.268345 293.642804 
L 279.334614 294.165854 
L 279.400884 294.02983 
L 279.467154 294.113002 
L 279.533423 294.433184 
L 279.599693 294.344261 
L 279.665962 294.210614 
L 280.262388 295.283628 
L 280.394927 294.690945 
L 280.461197 294.856571 
L 280.858814 295.413899 
L 281.057623 295.117405 
L 281.322701 295.251758 
L 281.45524 295.450635 
L 281.786588 295.2559 
L 282.250475 295.302285 
L 282.515553 295.292409 
L 282.780631 295.36374 
L 283.178249 295.351519 
L 283.377057 295.427513 
L 283.642136 295.358055 
L 283.907214 295.41269 
L 283.973483 295.473358 
L 284.172292 295.350689 
L 284.371101 295.268666 
L 284.50364 295.470225 
L 284.569909 295.364212 
L 284.702448 295.137449 
L 284.834987 295.406749 
L 284.901257 293.13535 
L 284.967527 294.258712 
L 285.100066 295.292097 
L 285.365144 295.306129 
L 285.497683 295.387116 
L 285.630222 295.37152 
L 285.762761 295.42688 
L 285.829031 295.283273 
L 285.8953 295.360924 
L 286.027839 295.441282 
L 286.292918 295.291745 
L 286.425457 295.455157 
L 286.624265 295.174446 
L 286.690535 295.202055 
L 286.823074 295.411589 
L 287.021883 295.296541 
L 287.220691 295.390348 
L 287.4195 295.385153 
L 287.552039 295.416823 
L 287.684578 295.431855 
L 287.883387 295.324607 
L 288.347274 295.30638 
L 288.479813 295.399393 
L 288.612352 295.370995 
L 289.275048 295.216728 
L 289.473856 295.229425 
L 289.871474 295.257798 
L 290.269091 295.368579 
L 290.732978 294.972589 
L 290.865517 295.15329 
L 291.130595 294.829155 
L 291.594482 293.824681 
L 291.793291 294.937042 
L 291.992099 295.167431 
L 292.124638 293.826641 
L 292.190908 272.237403 
L 292.323447 291.551763 
L 292.522256 293.974319 
L 292.853604 295.381706 
L 292.919873 295.159334 
L 293.118682 294.626869 
L 293.184951 294.72052 
L 293.31749 294.557703 
L 293.516299 294.944649 
L 293.648838 294.564104 
L 293.913916 294.8265 
L 294.046455 294.649727 
L 294.112725 294.780417 
L 294.510342 295.238631 
L 294.84169 295.145694 
L 295.106768 295.438412 
L 295.438116 295.310708 
L 295.769464 295.459529 
L 295.835733 295.291894 
L 295.902003 295.415518 
L 296.167081 295.407366 
L 296.36589 295.446121 
L 296.630968 295.393473 
L 296.896046 295.397309 
L 297.094855 295.462566 
L 297.492472 295.399592 
L 298.685324 295.400115 
L 298.884133 295.230891 
L 299.082942 295.429951 
L 299.34802 294.744277 
L 299.414289 294.853249 
L 299.480559 292.509556 
L 299.613098 295.170603 
L 299.878176 295.405473 
L 300.209524 295.396883 
L 300.474602 295.437264 
L 301.203567 295.354618 
L 301.269837 295.290637 
L 301.402376 295.467359 
L 301.733724 295.418181 
L 301.932532 295.43037 
L 302.462689 295.46805 
L 303.456732 295.45366 
L 303.986889 295.422292 
L 304.119428 295.401035 
L 304.914662 295.436912 
L 305.113471 295.245015 
L 305.31228 295.272088 
L 305.511088 295.407843 
L 305.974975 295.112429 
L 306.173784 295.386245 
L 306.306323 295.090105 
L 306.637671 292.139095 
L 306.70394 288.883673 
L 306.77021 279.470745 
L 306.902749 294.493933 
L 307.035288 294.535268 
L 307.432905 295.278838 
L 307.830523 294.919414 
L 308.029331 295.107223 
L 308.29441 294.897677 
L 308.360679 294.815044 
L 308.426949 294.894855 
L 308.559488 294.923687 
L 309.089644 295.220869 
L 309.288453 295.20591 
L 309.553531 295.36233 
L 309.68607 295.463968 
L 309.951148 295.322034 
L 310.149957 295.368661 
L 310.415035 295.420743 
L 310.680114 295.33748 
L 312.270583 295.396734 
L 313.662244 295.314597 
L 313.728513 295.417582 
L 313.794783 295.357992 
L 313.927322 294.754557 
L 314.059861 293.584713 
L 314.1924 295.436889 
L 314.590017 295.41539 
L 315.517791 295.452318 
L 315.849139 295.333215 
L 315.981678 295.432515 
L 316.379295 295.408417 
L 316.909452 295.436074 
L 319.427695 295.313145 
L 319.493964 295.189436 
L 319.560234 295.263576 
L 319.825312 295.348191 
L 320.024121 295.360744 
L 320.686816 295.004957 
L 320.753086 295.018374 
L 320.885625 295.245729 
L 321.018164 294.549103 
L 321.150703 292.997144 
L 321.216973 290.626876 
L 321.283242 281.272459 
L 321.349512 281.507138 
L 321.482051 293.076103 
L 321.68086 295.261602 
L 321.945938 294.81368 
L 322.012207 294.746565 
L 322.078477 294.83489 
L 322.211016 294.991857 
L 322.277286 295.354077 
L 322.343555 295.293665 
L 322.674903 294.870792 
L 323.006251 295.169191 
L 323.271329 294.934789 
L 323.602677 295.074795 
L 323.735216 295.40015 
L 323.801485 295.344216 
L 324.000294 295.296485 
L 324.132833 295.224104 
L 324.662989 295.377437 
L 324.928068 295.289132 
L 324.994337 295.464265 
L 325.060607 295.434703 
L 325.325685 295.353489 
L 325.590763 295.346902 
L 325.922111 295.406058 
L 327.777659 295.435001 
L 327.976467 295.429451 
L 328.506624 295.21594 
L 328.572893 294.447553 
L 328.639163 294.804417 
L 328.837971 295.362494 
L 332.482797 295.36009 
L 332.880414 295.36437 
L 333.211762 295.439823 
L 333.410571 295.428903 
L 334.073266 295.318593 
L 334.205805 295.389786 
L 334.669692 295.334844 
L 334.802231 295.298264 
L 335.067309 295.05677 
L 335.266118 294.994569 
L 335.398657 294.925312 
L 335.663735 295.365246 
L 335.730005 295.235723 
L 335.796275 294.148017 
L 335.862544 281.430078 
L 335.995083 293.550729 
L 336.260161 294.791352 
L 336.45897 295.170365 
L 336.591509 295.404819 
L 336.790318 294.971621 
L 336.856587 295.048102 
L 337.055396 294.979791 
L 337.254205 295.081855 
L 337.453013 295.155306 
L 337.585553 295.030651 
L 337.718092 295.004042 
L 337.850631 294.963573 
L 338.314518 295.360986 
L 338.579596 295.082681 
L 338.712135 295.268394 
L 339.043483 295.422628 
L 339.573639 295.416062 
L 339.772448 295.410687 
L 340.170065 295.415796 
L 340.700222 295.39749 
L 341.959343 295.420915 
L 343.085926 295.31761 
L 343.152195 294.291989 
L 343.284734 295.226101 
L 343.616082 295.372211 
L 344.013699 295.467693 
L 344.079969 295.305978 
L 344.146238 295.405999 
L 344.941473 295.312457 
L 345.007743 295.438926 
L 345.074012 295.380794 
L 346.797021 295.257722 
L 346.92956 295.39565 
L 347.459716 295.321385 
L 348.38749 295.27028 
L 348.586299 295.248632 
L 348.718838 295.110388 
L 348.983916 295.299193 
L 349.248994 295.053922 
L 349.381533 294.831165 
L 349.447803 294.847218 
L 349.646611 295.224168 
L 349.712881 295.409871 
L 349.77915 295.358379 
L 349.91169 294.595572 
L 350.309307 290.952474 
L 350.375576 286.473685 
L 350.441846 268.245623 
L 350.574385 294.789826 
L 350.773194 294.113489 
L 351.237081 295.337274 
L 351.36962 295.044002 
L 351.435889 295.127913 
L 351.767237 295.344529 
L 351.833507 295.418432 
L 352.098585 295.018026 
L 352.164854 295.065338 
L 352.231124 295.216148 
L 352.297394 294.936326 
L 352.496202 295.332828 
L 352.695011 295.426954 
L 353.026359 295.281408 
L 353.225167 295.411066 
L 353.357706 295.398893 
L 354.749367 295.441884 
L 356.207297 295.435064 
L 357.002532 295.459758 
L 357.532688 295.415472 
L 357.731497 295.129795 
L 357.797767 295.475205 
L 357.864036 295.449573 
L 363.099331 295.416566 
L 363.29814 295.458366 
L 363.496948 295.429336 
L 363.828296 295.266343 
L 364.292183 295.300481 
L 364.490991 295.026382 
L 364.75607 295.035138 
L 364.822339 295.010125 
L 364.888609 294.746536 
L 365.021148 291.584861 
L 365.219957 294.936163 
L 365.418765 295.250675 
L 365.683843 295.097065 
L 365.816383 295.246748 
L 365.882652 295.143698 
L 366.015191 295.291252 
L 366.346539 295.048843 
L 366.479078 295.065537 
L 366.545348 294.912696 
L 366.611617 294.945709 
L 366.744156 294.99797 
L 366.876695 294.88516 
L 366.942965 294.896473 
L 367.009235 295.085927 
L 367.075504 295.021572 
L 367.141774 294.92418 
L 367.208043 294.974537 
L 367.340582 295.105521 
L 367.473121 294.968564 
L 367.7382 295.241987 
L 367.937008 295.313929 
L 368.268356 295.327258 
L 368.400895 295.355511 
L 368.732243 295.421407 
L 369.063591 295.420269 
L 370.786599 295.430949 
L 371.250486 295.477732 
L 371.979451 295.460377 
L 372.377068 295.437399 
L 373.834999 295.419769 
L 374.365155 295.416809 
L 374.895311 295.434805 
L 375.292929 295.398266 
L 376.55205 295.376405 
L 377.015937 295.399366 
L 377.281015 295.367931 
L 377.678633 295.343015 
L 377.744902 295.092839 
L 377.877441 295.394092 
L 378.14252 295.262194 
L 378.341328 295.081527 
L 378.540137 295.364648 
L 379.136563 294.035241 
L 379.202832 294.113328 
L 379.269102 294.140549 
L 379.401641 294.693821 
L 379.467911 292.875346 
L 379.53418 273.154716 
L 379.732989 292.867161 
L 379.998067 295.140806 
L 380.064337 295.247393 
L 380.130606 295.199495 
L 380.395684 294.877205 
L 380.461954 294.841442 
L 380.660763 295.290338 
L 381.522267 295.086388 
L 381.654806 294.904984 
L 382.251232 295.384355 
L 382.383771 295.182674 
L 382.51631 295.17818 
L 383.046467 295.370954 
L 383.311545 295.393575 
L 384.239319 295.442758 
L 384.636936 295.436237 
L 384.902014 295.454756 
L 385.167092 295.430171 
L 385.697249 295.423767 
L 387.287718 295.464287 
L 387.619066 295.454789 
L 388.613109 295.448224 
L 388.944457 295.460793 
L 392.390474 295.391534 
L 392.788091 295.27953 
L 393.053169 295.44303 
L 393.384517 295.112389 
L 393.715865 295.187585 
L 393.914673 294.647365 
L 394.047213 292.81676 
L 394.113482 283.976958 
L 394.246021 294.918899 
L 394.37856 294.692196 
L 394.643639 294.991295 
L 394.908717 295.386045 
L 394.974986 295.327276 
L 395.173795 294.991615 
L 395.637682 295.266563 
L 395.770221 295.061055 
L 395.836491 295.117502 
L 396.101569 294.881766 
L 396.167838 295.051177 
L 396.234108 294.995956 
L 396.432917 294.899483 
L 396.499186 295.009067 
L 396.565456 294.939439 
L 396.764264 295.094552 
L 396.830534 294.910879 
L 397.029343 295.279477 
L 397.758308 295.338496 
L 397.957116 295.393159 
L 398.288464 295.406686 
L 398.487273 295.447772 
L 398.487273 295.447772 
" clip-path="url(#pcc6faf241b)" style="fill: none; stroke: #1f77b4; stroke-width: 1.5; stroke-linecap: square"/>
   </g>
   <g id="patch_3">
    <path d="M 57.6 307.584 
L 57.6 41.472 
" style="fill: none; stroke: #000000; stroke-width: 0.8; stroke-linejoin: miter; stroke-linecap: square"/>
   </g>
   <g id="patch_4">
    <path d="M 414.72 307.584 
L 414.72 41.472 
" style="fill: none; stroke: #000000; stroke-width: 0.8; stroke-linejoin: miter; stroke-linecap: square"/>
   </g>
   <g id="patch_5">
    <path d="M 57.6 307.584 
L 414.72 307.584 
" style="fill: none; stroke: #000000; stroke-width: 0.8; stroke-linejoin: miter; stroke-linecap: square"/>
   </g>
   <g id="patch_6">
    <path d="M 57.6 41.472 
L 414.72 41.472 
" style="fill: none; stroke: #000000; stroke-width: 0.8; stroke-linejoin: miter; stroke-linecap: square"/>
   </g>
   <g id="text_17">
    <text style="font: 12px 'IPAexGothic'; text-anchor: middle" x="236.16" y="35.472" transform="rotate(-0 236.16 35.472)">"024_A2.wav"の振幅スペクトル</text>
   </g>
  </g>
 </g>
 <defs>
  <clipPath id="pcc6faf241b">
   <rect x="57.6" y="41.472" width="357.12" height="266.112"/>
  </clipPath>
 </defs>
</svg>
