<?xml version="1.0" encoding="utf-8" standalone="no"?>
<!DOCTYPE svg PUBLIC "-//W3C//DTD SVG 1.1//EN"
  "http://www.w3.org/Graphics/SVG/1.1/DTD/svg11.dtd">
<svg xmlns:xlink="http://www.w3.org/1999/xlink" width="460.8pt" height="345.6pt" viewBox="0 0 460.8 345.6" xmlns="http://www.w3.org/2000/svg" version="1.1">
 <metadata>
  <rdf:RDF xmlns:dc="http://purl.org/dc/elements/1.1/" xmlns:cc="http://creativecommons.org/ns#" xmlns:rdf="http://www.w3.org/1999/02/22-rdf-syntax-ns#">
   <cc:Work>
    <dc:type rdf:resource="http://purl.org/dc/dcmitype/StillImage"/>
    <dc:date>2022-11-28T12:34:44.241408</dc:date>
    <dc:format>image/svg+xml</dc:format>
    <dc:creator>
     <cc:Agent>
      <dc:title>Matplotlib v3.6.2, https://matplotlib.org/</dc:title>
     </cc:Agent>
    </dc:creator>
   </cc:Work>
  </rdf:RDF>
 </metadata>
 <defs>
  <style type="text/css">*{stroke-linejoin: round; stroke-linecap: butt}</style>
 </defs>
 <g id="figure_1">
  <g id="patch_1">
   <path d="M 0 345.6 
L 460.8 345.6 
L 460.8 0 
L 0 0 
z
" style="fill: #ffffff"/>
  </g>
  <g id="axes_1">
   <g id="patch_2">
    <path d="M 57.6 307.584 
L 414.72 307.584 
L 414.72 41.472 
L 57.6 41.472 
z
" style="fill: #ffffff"/>
   </g>
   <g id="matplotlib.axis_1">
    <g id="xtick_1">
     <g id="line2d_1">
      <defs>
       <path id="mee1d331639" d="M 0 0 
L 0 3.5 
" style="stroke: #000000; stroke-width: 0.8"/>
      </defs>
      <g>
       <use xlink:href="#mee1d331639" x="73.832727" y="307.584" style="stroke: #000000; stroke-width: 0.8"/>
      </g>
     </g>
     <g id="text_1">
      <text style="font: 10px 'IPAexGothic'; text-anchor: middle" x="73.832727" y="322.074625" transform="rotate(-0 73.832727 322.074625)">0</text>
     </g>
    </g>
    <g id="xtick_2">
     <g id="line2d_2">
      <g>
       <use xlink:href="#mee1d331639" x="140.102281" y="307.584" style="stroke: #000000; stroke-width: 0.8"/>
      </g>
     </g>
     <g id="text_2">
      <text style="font: 10px 'IPAexGothic'; text-anchor: middle" x="140.102281" y="322.074625" transform="rotate(-0 140.102281 322.074625)">1000</text>
     </g>
    </g>
    <g id="xtick_3">
     <g id="line2d_3">
      <g>
       <use xlink:href="#mee1d331639" x="206.371835" y="307.584" style="stroke: #000000; stroke-width: 0.8"/>
      </g>
     </g>
     <g id="text_3">
      <text style="font: 10px 'IPAexGothic'; text-anchor: middle" x="206.371835" y="322.074625" transform="rotate(-0 206.371835 322.074625)">2000</text>
     </g>
    </g>
    <g id="xtick_4">
     <g id="line2d_4">
      <g>
       <use xlink:href="#mee1d331639" x="272.64139" y="307.584" style="stroke: #000000; stroke-width: 0.8"/>
      </g>
     </g>
     <g id="text_4">
      <text style="font: 10px 'IPAexGothic'; text-anchor: middle" x="272.64139" y="322.074625" transform="rotate(-0 272.64139 322.074625)">3000</text>
     </g>
    </g>
    <g id="xtick_5">
     <g id="line2d_5">
      <g>
       <use xlink:href="#mee1d331639" x="338.910944" y="307.584" style="stroke: #000000; stroke-width: 0.8"/>
      </g>
     </g>
     <g id="text_5">
      <text style="font: 10px 'IPAexGothic'; text-anchor: middle" x="338.910944" y="322.074625" transform="rotate(-0 338.910944 322.074625)">4000</text>
     </g>
    </g>
    <g id="xtick_6">
     <g id="line2d_6">
      <g>
       <use xlink:href="#mee1d331639" x="405.180498" y="307.584" style="stroke: #000000; stroke-width: 0.8"/>
      </g>
     </g>
     <g id="text_6">
      <text style="font: 10px 'IPAexGothic'; text-anchor: middle" x="405.180498" y="322.074625" transform="rotate(-0 405.180498 322.074625)">5000</text>
     </g>
    </g>
    <g id="text_7">
     <text style="font: 10px 'IPAexGothic'; text-anchor: middle" x="236.16" y="335.924625" transform="rotate(-0 236.16 335.924625)">周波数[Hz]</text>
    </g>
   </g>
   <g id="matplotlib.axis_2">
    <g id="ytick_1">
     <g id="line2d_7">
      <defs>
       <path id="m063ac43258" d="M 0 0 
L -3.5 0 
" style="stroke: #000000; stroke-width: 0.8"/>
      </defs>
      <g>
       <use xlink:href="#m063ac43258" x="57.6" y="295.489799" style="stroke: #000000; stroke-width: 0.8"/>
      </g>
     </g>
     <g id="text_8">
      <text style="font: 10px 'IPAexGothic'; text-anchor: end" x="50.6" y="299.235111" transform="rotate(-0 50.6 299.235111)">0.0</text>
     </g>
    </g>
    <g id="ytick_2">
     <g id="line2d_8">
      <g>
       <use xlink:href="#m063ac43258" x="57.6" y="265.633592" style="stroke: #000000; stroke-width: 0.8"/>
      </g>
     </g>
     <g id="text_9">
      <text style="font: 10px 'IPAexGothic'; text-anchor: end" x="50.6" y="269.378905" transform="rotate(-0 50.6 269.378905)">0.2</text>
     </g>
    </g>
    <g id="ytick_3">
     <g id="line2d_9">
      <g>
       <use xlink:href="#m063ac43258" x="57.6" y="235.777385" style="stroke: #000000; stroke-width: 0.8"/>
      </g>
     </g>
     <g id="text_10">
      <text style="font: 10px 'IPAexGothic'; text-anchor: end" x="50.6" y="239.522698" transform="rotate(-0 50.6 239.522698)">0.4</text>
     </g>
    </g>
    <g id="ytick_4">
     <g id="line2d_10">
      <g>
       <use xlink:href="#m063ac43258" x="57.6" y="205.921179" style="stroke: #000000; stroke-width: 0.8"/>
      </g>
     </g>
     <g id="text_11">
      <text style="font: 10px 'IPAexGothic'; text-anchor: end" x="50.6" y="209.666491" transform="rotate(-0 50.6 209.666491)">0.6</text>
     </g>
    </g>
    <g id="ytick_5">
     <g id="line2d_11">
      <g>
       <use xlink:href="#m063ac43258" x="57.6" y="176.064972" style="stroke: #000000; stroke-width: 0.8"/>
      </g>
     </g>
     <g id="text_12">
      <text style="font: 10px 'IPAexGothic'; text-anchor: end" x="50.6" y="179.810284" transform="rotate(-0 50.6 179.810284)">0.8</text>
     </g>
    </g>
    <g id="ytick_6">
     <g id="line2d_12">
      <g>
       <use xlink:href="#m063ac43258" x="57.6" y="146.208765" style="stroke: #000000; stroke-width: 0.8"/>
      </g>
     </g>
     <g id="text_13">
      <text style="font: 10px 'IPAexGothic'; text-anchor: end" x="50.6" y="149.954077" transform="rotate(-0 50.6 149.954077)">1.0</text>
     </g>
    </g>
    <g id="ytick_7">
     <g id="line2d_13">
      <g>
       <use xlink:href="#m063ac43258" x="57.6" y="116.352558" style="stroke: #000000; stroke-width: 0.8"/>
      </g>
     </g>
     <g id="text_14">
      <text style="font: 10px 'IPAexGothic'; text-anchor: end" x="50.6" y="120.097871" transform="rotate(-0 50.6 120.097871)">1.2</text>
     </g>
    </g>
    <g id="ytick_8">
     <g id="line2d_14">
      <g>
       <use xlink:href="#m063ac43258" x="57.6" y="86.496351" style="stroke: #000000; stroke-width: 0.8"/>
      </g>
     </g>
     <g id="text_15">
      <text style="font: 10px 'IPAexGothic'; text-anchor: end" x="50.6" y="90.241664" transform="rotate(-0 50.6 90.241664)">1.4</text>
     </g>
    </g>
    <g id="ytick_9">
     <g id="line2d_15">
      <g>
       <use xlink:href="#m063ac43258" x="57.6" y="56.640145" style="stroke: #000000; stroke-width: 0.8"/>
      </g>
     </g>
     <g id="text_16">
      <text style="font: 10px 'IPAexGothic'; text-anchor: end" x="50.6" y="60.385457" transform="rotate(-0 50.6 60.385457)">1.6</text>
     </g>
    </g>
    <g id="text_17">
     <text style="font: 10px 'IPAexGothic'; text-anchor: middle" x="29.460938" y="174.528" transform="rotate(-90 29.460938 174.528)">振幅</text>
    </g>
    <g id="text_18">
     <text style="font: 10px 'IPAexGothic'; text-anchor: start" x="57.6" y="38.472" transform="rotate(-0 57.6 38.472)">1e7</text>
    </g>
   </g>
   <g id="line2d_16">
    <path d="M 73.832727 294.044341 
L 73.965266 295.155725 
L 74.164075 293.841839 
L 74.230345 293.682681 
L 74.296614 293.91827 
L 74.362884 293.839336 
L 74.495423 294.005644 
L 74.561692 293.84179 
L 74.627962 294.192552 
L 74.826771 293.682106 
L 75.224388 294.116083 
L 75.356927 294.019879 
L 75.555736 294.071159 
L 75.622005 294.063802 
L 75.754544 293.469643 
L 75.820814 293.550771 
L 75.953353 293.404343 
L 76.284701 292.581839 
L 76.35097 292.464942 
L 77.013666 286.055113 
L 77.212475 274.601827 
L 77.345014 235.89797 
L 77.411283 243.53985 
L 77.477553 57.551725 
L 77.610092 284.910712 
L 77.676361 284.348424 
L 77.94144 292.350609 
L 78.007709 292.004247 
L 78.206518 293.29132 
L 78.405327 293.857321 
L 78.670405 293.262382 
L 78.802944 293.402489 
L 78.869213 293.135018 
L 78.935483 293.197626 
L 79.001752 293.356861 
L 79.068022 293.309307 
L 79.266831 293.526842 
L 79.39937 293.269339 
L 79.465639 293.38367 
L 79.531909 293.277724 
L 79.598178 293.339171 
L 79.664448 293.971059 
L 79.730718 293.928596 
L 79.929526 293.44371 
L 79.995796 293.520931 
L 80.393413 290.668461 
L 80.79103 274.740999 
L 80.989839 243.064598 
L 81.122378 80.461861 
L 81.254917 264.629939 
L 81.453726 284.411804 
L 81.586265 287.09159 
L 81.652535 287.416125 
L 81.851343 290.89565 
L 81.917613 290.800313 
L 82.116422 292.214244 
L 82.182691 292.150067 
L 82.248961 291.947829 
L 82.31523 292.545027 
L 82.3815 292.439817 
L 82.646578 292.887549 
L 82.779117 292.55694 
L 82.977926 292.783607 
L 83.243004 292.047908 
L 83.309274 292.110479 
L 83.375543 292.192871 
L 83.441813 291.684813 
L 83.508082 291.871909 
L 83.77316 291.181397 
L 83.83943 291.39512 
L 84.104508 289.177964 
L 84.170778 288.978889 
L 84.435856 283.871344 
L 84.502125 287.124827 
L 84.634665 240.198361 
L 84.767204 53.568 
L 84.899743 288.286634 
L 84.966012 279.94033 
L 85.098551 287.546689 
L 85.164821 287.69608 
L 85.36363 290.866086 
L 85.562438 292.189708 
L 85.628708 291.804153 
L 85.827517 292.642858 
L 85.893786 292.916273 
L 85.960056 292.541115 
L 86.158864 293.145595 
L 86.291403 293.073202 
L 86.357673 293.235606 
L 86.423943 293.070676 
L 86.490212 293.27858 
L 86.556482 293.141594 
L 87.020369 293.50483 
L 87.086638 293.305361 
L 87.152908 293.438199 
L 87.285447 293.787407 
L 87.351716 293.486652 
L 87.417986 293.881176 
L 87.484255 293.383571 
L 87.550525 293.442921 
L 87.616795 294.103375 
L 87.881873 292.005656 
L 87.948142 291.947833 
L 88.014412 289.943576 
L 88.080681 291.604646 
L 88.146951 291.211898 
L 88.213221 288.87558 
L 88.34576 166.622685 
L 88.478299 257.01773 
L 88.610838 277.597891 
L 88.677107 291.137713 
L 88.743377 289.664989 
L 88.809646 292.032588 
L 88.875916 290.474595 
L 89.008455 292.876889 
L 89.074725 292.642137 
L 89.273533 293.932535 
L 89.406072 293.709383 
L 89.472342 293.90287 
L 89.538612 293.450141 
L 89.604881 294.105219 
L 89.73742 293.499544 
L 89.936229 293.855151 
L 90.068768 293.433466 
L 90.201307 293.701625 
L 90.267577 293.764568 
L 90.400116 293.104892 
L 90.466385 293.386502 
L 90.532655 293.210166 
L 90.598924 293.103332 
L 90.665194 293.438695 
L 90.731464 292.510023 
L 90.797733 293.087648 
L 90.930272 292.639871 
L 90.996542 292.659263 
L 91.062811 292.5849 
L 91.129081 292.692423 
L 91.394159 289.954705 
L 91.460429 290.323886 
L 91.659237 288.553445 
L 91.858046 277.736876 
L 91.924316 279.483465 
L 92.056855 122.679623 
L 92.189394 278.361206 
L 92.255663 273.471883 
L 92.388202 288.906148 
L 92.454472 287.744064 
L 92.520742 290.368885 
L 92.587011 289.818809 
L 92.852089 292.439337 
L 92.918359 291.696037 
L 93.183437 293.386533 
L 93.249707 292.843381 
L 93.315976 293.264621 
L 93.382246 292.805822 
L 93.514785 293.537266 
L 93.581054 293.497025 
L 93.647324 293.510961 
L 93.713593 293.774665 
L 93.779863 293.227151 
L 93.846133 293.547737 
L 93.912402 294.015764 
L 93.978672 293.810207 
L 94.24375 293.728207 
L 94.310019 293.828481 
L 94.376289 293.780881 
L 94.508828 293.500257 
L 94.575098 293.574686 
L 94.707637 292.835294 
L 94.773906 293.139647 
L 94.840176 292.789256 
L 94.906445 293.535623 
L 95.171524 290.755711 
L 95.304063 292.90072 
L 95.370332 290.091022 
L 95.569141 261.225814 
L 95.635411 186.032124 
L 95.70168 210.58981 
L 95.76795 268.520503 
L 95.834219 267.006093 
L 96.033028 292.036344 
L 96.165567 291.639515 
L 96.231837 290.408748 
L 96.430645 293.536162 
L 96.496915 293.398205 
L 96.563184 292.681144 
L 96.761993 293.679377 
L 96.894532 293.144539 
L 97.093341 293.977281 
L 97.22588 293.698109 
L 97.358419 294.135027 
L 97.490958 294.016881 
L 97.623497 294.144121 
L 97.689767 294.115828 
L 97.822306 293.740819 
L 97.888575 293.810685 
L 98.087384 294.231687 
L 98.153654 293.943013 
L 98.219923 294.260579 
L 98.352462 293.448741 
L 98.418732 293.77829 
L 98.485001 293.114405 
L 98.551271 293.195823 
L 98.75008 294.006474 
L 99.015158 287.698223 
L 99.081427 292.945523 
L 99.213966 280.465882 
L 99.280236 224.168767 
L 99.346506 236.724252 
L 99.412775 285.477121 
L 99.479045 284.248996 
L 99.545314 282.432084 
L 99.677853 292.644974 
L 99.744123 291.219375 
L 99.810392 293.610906 
L 99.876662 293.024045 
L 100.009201 293.896053 
L 100.075471 293.173421 
L 100.14174 293.988232 
L 100.20801 293.371575 
L 100.340549 294.124105 
L 100.406818 293.895498 
L 100.473088 294.291572 
L 100.539358 294.26447 
L 100.605627 294.054052 
L 100.671897 294.456077 
L 100.738166 294.418662 
L 100.870705 294.460754 
L 100.936975 294.312192 
L 101.003244 294.412275 
L 101.069514 294.348432 
L 101.202053 294.699074 
L 101.334592 294.202859 
L 101.400862 294.290926 
L 101.467131 294.59426 
L 101.533401 294.521538 
L 101.66594 294.06402 
L 101.73221 294.142384 
L 101.864749 294.525187 
L 101.997288 294.380912 
L 102.129827 294.405328 
L 102.262366 293.173723 
L 102.328636 292.335997 
L 102.394905 292.893705 
L 102.461175 293.310957 
L 102.593714 287.164415 
L 102.726253 280.32946 
L 102.858792 292.935565 
L 102.925062 232.311194 
L 102.991331 264.964994 
L 103.19014 287.200232 
L 103.322679 292.791127 
L 103.388948 292.641574 
L 103.455218 291.947203 
L 103.654027 294.989016 
L 103.720296 294.427189 
L 103.786566 294.647857 
L 103.852835 294.418552 
L 103.985374 295.165454 
L 104.184183 294.881397 
L 104.250453 295.265072 
L 104.316722 295.22679 
L 104.5818 295.184567 
L 104.714339 295.015669 
L 105.045687 295.416774 
L 105.178226 295.381383 
L 105.244496 295.036187 
L 105.310765 295.249101 
L 105.377035 295.031124 
L 105.443305 295.068985 
L 105.642113 295.283215 
L 105.708383 294.737242 
L 105.774652 295.279615 
L 105.840922 295.130575 
L 105.907191 295.324793 
L 106.039731 294.498953 
L 106.106 294.85367 
L 106.17227 294.443417 
L 106.238539 294.537085 
L 106.437348 285.55309 
L 106.503617 279.536819 
L 106.569887 259.516617 
L 106.768696 291.581637 
L 106.834965 286.896813 
L 106.901235 289.73331 
L 106.967504 294.697084 
L 107.033774 291.199004 
L 107.100043 294.025317 
L 107.166313 293.363583 
L 107.298852 293.960299 
L 107.365122 293.622002 
L 107.431391 293.992451 
L 107.497661 293.955739 
L 107.56393 293.898944 
L 107.6302 294.130699 
L 107.696469 293.883463 
L 107.762739 294.035817 
L 107.829009 293.870542 
L 107.895278 294.003348 
L 108.027817 294.036727 
L 108.160356 293.757869 
L 108.226626 293.958467 
L 108.292895 293.745206 
L 108.359165 293.768027 
L 108.425435 293.888259 
L 108.491704 293.424742 
L 108.557974 293.841142 
L 108.624243 293.668211 
L 108.823052 293.579695 
L 108.955591 293.653416 
L 109.02186 293.583036 
L 109.1544 293.14245 
L 109.220669 293.069489 
L 109.286939 293.322348 
L 109.485747 291.134503 
L 109.552017 291.848145 
L 109.618286 291.504903 
L 109.750826 290.222955 
L 109.949634 285.07167 
L 110.015904 280.179227 
L 110.148443 247.448143 
L 110.214712 94.864925 
L 110.280982 275.241506 
L 110.347252 268.551701 
L 110.413521 268.432775 
L 110.744869 292.653866 
L 110.877408 290.247187 
L 111.076217 293.345931 
L 111.142486 292.133809 
L 111.208756 292.649793 
L 111.407564 293.729849 
L 111.473834 293.648299 
L 111.540104 293.470366 
L 111.805182 294.265238 
L 111.871451 294.079654 
L 111.937721 294.458236 
L 112.00399 294.046529 
L 112.07026 294.182555 
L 112.13653 294.548511 
L 112.202799 294.331606 
L 112.335338 294.783495 
L 112.467877 294.450613 
L 112.666686 294.888668 
L 112.732956 294.797241 
L 112.931764 294.757239 
L 113.130573 295.396613 
L 113.196842 294.774089 
L 113.263112 295.339731 
L 113.329382 294.292426 
L 113.395651 294.746521 
L 113.461921 295.160901 
L 113.59446 294.659292 
L 113.793268 286.93343 
L 113.925807 287.387342 
L 114.058347 290.198192 
L 114.124616 289.955745 
L 114.190886 290.613213 
L 114.389694 293.971988 
L 114.455964 294.758555 
L 114.522233 294.1434 
L 114.588503 295.225972 
L 114.654773 294.931866 
L 114.721042 294.856293 
L 114.853581 295.196887 
L 114.98612 294.980086 
L 115.118659 295.179439 
L 115.184929 294.685028 
L 115.317468 295.184494 
L 115.383738 295.177022 
L 115.450007 295.381521 
L 115.516277 295.256885 
L 115.582546 295.428161 
L 115.648816 295.170035 
L 115.715085 295.198153 
L 115.781355 295.45801 
L 115.847625 295.33248 
L 115.913894 295.378616 
L 116.046433 295.019988 
L 116.112703 295.041521 
L 116.178972 295.415113 
L 116.245242 294.981644 
L 116.311511 295.194053 
L 116.444051 294.76143 
L 116.51032 295.218581 
L 116.57659 295.01074 
L 116.642859 294.641743 
L 116.709129 295.470163 
L 116.775398 294.992887 
L 116.841668 294.639889 
L 117.106746 289.330622 
L 117.173016 290.93986 
L 117.239285 290.14772 
L 117.371824 280.627383 
L 117.438094 238.772452 
L 117.504363 250.489167 
L 117.636903 286.164558 
L 117.703172 285.483794 
L 117.769442 274.047702 
L 117.835711 280.090844 
L 117.96825 292.050353 
L 118.03452 292.40981 
L 118.100789 294.801862 
L 118.167059 292.570408 
L 118.233329 292.703879 
L 118.299598 294.029308 
L 118.365868 293.664535 
L 118.432137 294.254805 
L 118.498407 293.717261 
L 118.564676 294.021076 
L 118.630946 294.435821 
L 118.697215 294.353392 
L 118.763485 294.522875 
L 118.829754 294.000971 
L 118.896024 294.239892 
L 119.161102 294.621733 
L 119.293641 294.255823 
L 119.359911 294.619265 
L 119.42618 294.469979 
L 119.49245 294.567575 
L 119.55872 294.959541 
L 119.624989 294.80342 
L 119.757528 294.686593 
L 119.823798 294.736938 
L 119.890067 294.415265 
L 120.022606 294.868931 
L 120.088876 294.754626 
L 120.155146 294.933942 
L 120.221415 294.431195 
L 120.287685 294.548787 
L 120.353954 294.649825 
L 120.420224 294.200431 
L 120.486493 295.229024 
L 120.552763 294.369789 
L 120.619032 294.414487 
L 120.685302 294.736187 
L 121.01665 287.693438 
L 121.082919 291.818744 
L 121.149189 275.953106 
L 121.215458 285.747524 
L 121.281728 285.885331 
L 121.347998 285.850473 
L 121.414267 285.479209 
L 121.480537 282.118902 
L 121.745615 292.673484 
L 121.944424 295.046288 
L 122.010693 293.373169 
L 122.076963 293.974021 
L 122.143232 294.605843 
L 122.209502 293.962017 
L 122.275771 294.879308 
L 122.40831 294.090733 
L 122.607119 294.690485 
L 122.739658 293.992267 
L 122.805928 294.277693 
L 122.872197 293.8208 
L 123.004736 294.342129 
L 123.071006 293.834044 
L 123.269815 294.339849 
L 123.336084 293.796552 
L 123.402354 294.068355 
L 123.468623 294.264677 
L 123.733701 292.282886 
L 123.866241 292.715977 
L 123.93251 291.996865 
L 123.99878 293.055066 
L 124.065049 291.934204 
L 124.131319 293.122585 
L 124.197588 292.647294 
L 124.263858 292.846723 
L 124.330127 290.882741 
L 124.396397 285.435766 
L 124.462667 287.844484 
L 124.528936 287.017214 
L 124.661475 280.667042 
L 124.794014 178.113796 
L 124.926553 284.594826 
L 125.059093 273.741423 
L 125.191632 291.144049 
L 125.324171 289.477008 
L 125.522979 292.110965 
L 125.721788 293.424981 
L 125.788058 292.839065 
L 125.854327 293.150023 
L 125.920597 293.164061 
L 126.053136 293.980955 
L 126.119405 293.136695 
L 126.318214 294.270096 
L 126.384484 294.422596 
L 126.450753 293.790583 
L 126.517023 294.340926 
L 126.583292 293.851494 
L 126.715831 294.6243 
L 126.782101 294.446832 
L 126.848371 294.577582 
L 127.047179 294.275488 
L 127.245988 295.037891 
L 127.312257 294.743464 
L 127.378527 294.317235 
L 127.444797 294.425728 
L 127.511066 294.552398 
L 127.577336 295.146931 
L 127.709875 294.131866 
L 127.776144 294.375888 
L 127.908683 295.119026 
L 128.107492 291.729869 
L 128.173762 291.103793 
L 128.306301 292.579493 
L 128.37257 272.480418 
L 128.43884 275.023005 
L 128.505109 292.358078 
L 128.571379 291.399899 
L 128.637648 291.964274 
L 128.703918 293.557739 
L 128.770188 289.416979 
L 128.836457 290.483055 
L 128.902727 294.026773 
L 128.968996 292.617299 
L 129.101535 294.489259 
L 129.167805 293.500808 
L 129.234074 294.934856 
L 129.300344 294.113058 
L 129.366614 294.119283 
L 129.432883 294.454823 
L 129.499153 294.053556 
L 129.565422 294.630008 
L 129.631692 294.328919 
L 129.764231 294.535431 
L 129.8305 294.289404 
L 129.89677 294.529943 
L 130.029309 294.259775 
L 130.095579 294.294013 
L 130.228118 294.634355 
L 130.426926 294.360076 
L 130.493196 294.27932 
L 130.625735 294.671752 
L 130.824544 294.395356 
L 130.890813 294.472651 
L 130.957083 294.670567 
L 131.222161 293.581316 
L 131.42097 294.861808 
L 131.619778 293.118031 
L 131.752318 289.728927 
L 131.818587 291.65735 
L 131.884857 290.177423 
L 131.951126 291.434141 
L 132.017396 253.942866 
L 132.216204 289.79958 
L 132.282474 294.137803 
L 132.348744 291.918292 
L 132.415013 292.05023 
L 132.613822 294.583405 
L 132.680091 294.8041 
L 132.746361 294.082425 
L 132.8789 295.340936 
L 132.94517 295.035694 
L 133.011439 295.169203 
L 133.077709 295.218036 
L 133.276517 295.454963 
L 133.342787 295.211107 
L 133.409056 295.420435 
L 133.475326 295.305894 
L 133.541596 295.216558 
L 133.607865 295.290106 
L 133.740404 295.186627 
L 133.872943 295.265932 
L 134.005482 295.069476 
L 134.33683 295.232057 
L 134.4031 294.970063 
L 134.469369 294.998842 
L 134.601908 295.093641 
L 134.668178 295.246863 
L 134.800717 294.765786 
L 134.866987 294.869084 
L 134.933256 294.859386 
L 134.999526 294.9938 
L 135.065795 294.603724 
L 135.132065 294.702408 
L 135.198334 295.313224 
L 135.264604 293.719126 
L 135.330873 294.05554 
L 135.397143 294.446829 
L 135.463413 293.450548 
L 135.595952 290.180868 
L 135.662221 271.728372 
L 135.728491 281.777518 
L 135.79476 293.742225 
L 135.86103 292.287126 
L 135.993569 293.680153 
L 136.059839 292.696004 
L 136.192378 294.512805 
L 136.258647 294.494935 
L 136.324917 293.572135 
L 136.523725 295.388335 
L 136.589995 294.966681 
L 136.656265 295.20537 
L 136.788804 294.877873 
L 136.987612 295.251312 
L 137.186421 295.145341 
L 137.252691 294.95761 
L 137.38523 295.101447 
L 137.584038 295.015063 
L 137.650308 295.250681 
L 137.716577 295.222873 
L 137.849117 294.867705 
L 137.915386 294.987855 
L 137.981656 295.061282 
L 138.313003 294.595448 
L 138.379273 295.101273 
L 138.445543 294.944272 
L 138.644351 294.487629 
L 138.975699 293.550034 
L 139.108238 288.861997 
L 139.240777 284.567243 
L 139.307047 242.011927 
L 139.505855 290.099333 
L 139.572125 292.768657 
L 139.638394 292.384561 
L 139.770934 289.612614 
L 140.102281 294.749246 
L 140.23482 293.875455 
L 140.433629 294.971945 
L 140.499899 294.670134 
L 140.566168 294.716593 
L 140.632438 294.634661 
L 140.764977 294.965436 
L 140.831246 294.770885 
L 140.897516 294.860567 
L 140.963786 294.860957 
L 141.030055 295.000779 
L 141.162594 294.795775 
L 141.361403 295.101607 
L 141.493942 294.85294 
L 141.560212 294.948763 
L 141.692751 295.049818 
L 141.75902 295.273343 
L 141.957829 294.783581 
L 142.024098 295.23441 
L 142.090368 295.104354 
L 142.222907 294.716103 
L 142.289177 294.816229 
L 142.355446 294.960734 
L 142.487985 294.445994 
L 142.554255 294.591045 
L 142.686794 293.033549 
L 142.753064 295.097432 
L 142.951872 271.833274 
L 143.150681 293.823294 
L 143.21695 293.633659 
L 143.28322 294.537572 
L 143.415759 292.976486 
L 143.482029 294.550311 
L 143.548298 294.104426 
L 143.680837 295.265286 
L 143.747107 294.675858 
L 143.813376 294.882325 
L 143.879646 294.583582 
L 144.078455 295.096579 
L 144.210994 295.152345 
L 144.343533 294.698086 
L 144.476072 295.162744 
L 144.674881 295.240038 
L 144.80742 295.085032 
L 144.873689 295.232016 
L 144.939959 295.16821 
L 145.205037 294.975424 
L 145.271307 295.262123 
L 145.337576 295.177102 
L 145.602654 295.372072 
L 145.668924 294.858799 
L 145.735193 295.155902 
L 145.934002 295.329481 
L 146.132811 294.805405 
L 146.19908 294.573635 
L 146.26535 295.107539 
L 146.331619 294.710517 
L 146.397889 293.229182 
L 146.464159 293.915566 
L 146.530428 294.303601 
L 146.596698 286.944793 
L 146.729237 293.511765 
L 146.795506 294.237543 
L 146.861776 291.638245 
L 146.928045 291.863201 
L 146.994315 294.323764 
L 147.060585 293.262492 
L 147.126854 293.179167 
L 147.193124 292.86549 
L 147.259393 292.897184 
L 147.391932 294.903221 
L 147.458202 294.62193 
L 147.524471 295.269533 
L 147.590741 294.762217 
L 147.657011 294.999573 
L 147.72328 295.027488 
L 147.78955 294.863407 
L 147.855819 295.444814 
L 147.922089 294.904459 
L 147.988358 295.164336 
L 148.120897 294.98799 
L 148.187167 295.215648 
L 148.253437 294.887181 
L 148.319706 295.051207 
L 148.518515 295.166542 
L 148.651054 294.843354 
L 148.717323 295.189535 
L 148.783593 295.087005 
L 148.849862 295.20543 
L 148.982402 294.734061 
L 149.18121 295.118854 
L 149.24748 294.778628 
L 149.313749 294.948664 
L 149.578828 294.504002 
L 149.645097 294.585928 
L 149.711367 295.048519 
L 149.843906 293.662965 
L 149.910175 294.465573 
L 149.976445 292.18334 
L 150.042714 293.899427 
L 150.108984 291.598609 
L 150.241523 272.356635 
L 150.440332 294.800888 
L 150.506601 293.978065 
L 150.572871 294.864495 
L 150.70541 292.315358 
L 150.77168 294.52239 
L 150.837949 293.930616 
L 150.904219 293.71361 
L 150.970488 294.91882 
L 151.036758 294.538678 
L 151.103027 294.575889 
L 151.169297 295.091359 
L 151.235566 294.904389 
L 151.301836 295.233199 
L 151.368106 295.125363 
L 151.500645 295.26655 
L 151.566914 295.035242 
L 151.633184 295.236117 
L 151.699453 295.185285 
L 151.765723 295.186532 
L 151.831992 295.303261 
L 151.898262 295.149443 
L 151.964532 295.184094 
L 152.030801 295.14955 
L 152.097071 295.319772 
L 152.16334 295.292339 
L 152.295879 295.405721 
L 152.494688 295.123266 
L 152.560958 295.300284 
L 152.627227 295.240905 
L 152.759766 295.098537 
L 152.892305 294.888308 
L 152.958575 295.267741 
L 153.024844 295.214876 
L 153.091114 295.337144 
L 153.223653 294.985207 
L 153.422462 295.190188 
L 153.488731 293.195443 
L 153.555001 293.554582 
L 153.68754 295.081238 
L 153.753809 294.235092 
L 153.886349 279.62779 
L 153.952618 294.79715 
L 154.018888 294.608645 
L 154.085157 293.68464 
L 154.151427 290.581956 
L 154.217696 291.440713 
L 154.283966 294.090438 
L 154.350235 292.762216 
L 154.416505 290.988959 
L 154.482775 291.841546 
L 154.549044 291.711605 
L 154.681583 294.899695 
L 154.747853 293.778091 
L 154.814122 294.361898 
L 155.012931 295.157266 
L 155.079201 294.865603 
L 155.278009 295.371095 
L 155.410548 294.879722 
L 155.543087 295.328186 
L 155.609357 295.149692 
L 155.675627 295.281769 
L 155.940705 294.886618 
L 156.139513 295.403002 
L 156.470861 294.998505 
L 156.537131 295.231371 
L 156.6034 295.196097 
L 156.66967 295.08293 
L 156.735939 295.133317 
L 156.802209 295.083752 
L 156.868479 295.244488 
L 157.001018 294.99021 
L 157.067287 295.206194 
L 157.332365 293.450821 
L 157.398635 294.105779 
L 157.464905 290.347347 
L 157.663713 294.487894 
L 157.796252 295.176328 
L 158.061331 292.355076 
L 158.392678 294.518723 
L 158.458948 294.609781 
L 158.525217 295.222943 
L 158.591487 294.90492 
L 158.724026 295.076743 
L 158.790296 294.573817 
L 158.856565 294.981008 
L 158.922835 294.886903 
L 158.989104 294.815894 
L 159.055374 295.008623 
L 159.121643 294.657087 
L 159.187913 294.984671 
L 159.254182 294.592347 
L 159.320452 294.991929 
L 159.386722 294.935834 
L 159.452991 294.701441 
L 159.519261 294.886795 
L 159.718069 294.397594 
L 159.784339 294.584715 
L 159.850608 294.271655 
L 159.916878 294.457864 
L 160.049417 294.630609 
L 160.181956 294.234672 
L 160.248226 294.595681 
L 160.314495 293.219929 
L 160.380765 293.656833 
L 160.447034 293.33781 
L 160.579574 293.630126 
L 160.645843 293.409139 
L 160.844652 288.273859 
L 160.910921 289.11177 
L 160.977191 291.50545 
L 161.04346 279.076191 
L 161.10973 208.028729 
L 161.176 223.203102 
L 161.308539 288.300505 
L 161.374808 290.911087 
L 161.507347 285.493051 
L 161.706156 293.155901 
L 161.772426 291.254099 
L 161.838695 289.057822 
L 162.103773 294.865344 
L 162.236312 293.223607 
L 162.435121 294.443681 
L 162.56766 294.100675 
L 162.63393 294.155063 
L 162.766469 294.865858 
L 162.832738 294.562665 
L 162.965278 294.175566 
L 163.097817 294.987611 
L 163.230356 294.533575 
L 163.429164 294.890916 
L 163.495434 295.011317 
L 163.561704 294.871771 
L 163.627973 294.938307 
L 163.694243 294.89415 
L 163.760512 295.009797 
L 163.826782 294.656758 
L 163.893051 294.787094 
L 163.959321 295.121717 
L 164.02559 295.061283 
L 164.224399 295.078425 
L 164.356938 295.123404 
L 164.423208 295.040039 
L 164.489477 295.291763 
L 164.555747 295.124724 
L 164.688286 294.474955 
L 164.754555 289.981061 
L 164.820825 291.280058 
L 164.887095 294.486224 
L 164.953364 294.437161 
L 165.019634 294.371524 
L 165.085903 295.226979 
L 165.284712 294.299394 
L 165.350981 293.749025 
L 165.483521 294.468092 
L 165.54979 294.27041 
L 165.61606 295.217447 
L 165.682329 295.045579 
L 165.748599 294.745285 
L 165.814868 295.353681 
L 165.881138 295.009904 
L 165.947407 295.112346 
L 166.013677 295.006931 
L 166.079947 295.062388 
L 166.146216 295.131168 
L 166.212486 295.013397 
L 166.278755 295.141188 
L 166.345025 295.09193 
L 166.411294 295.072068 
L 166.543833 295.297418 
L 166.610103 295.246936 
L 166.676373 294.987842 
L 166.742642 295.087702 
L 166.941451 295.118658 
L 167.07399 294.791382 
L 167.206529 295.299094 
L 167.405338 295.016605 
L 167.537877 295.152105 
L 167.670416 294.4654 
L 167.736685 294.528688 
L 167.869225 294.217074 
L 168.134303 292.503053 
L 168.266842 293.079151 
L 168.333111 292.955263 
L 168.399381 288.72479 
L 168.465651 289.145668 
L 168.59819 291.648846 
L 168.664459 293.244531 
L 168.730729 293.229876 
L 168.863268 290.091877 
L 168.929537 290.28186 
L 168.995807 291.156376 
L 169.062076 290.677957 
L 169.128346 289.672437 
L 169.194616 290.403427 
L 169.327155 293.35737 
L 169.459694 293.80304 
L 169.525963 293.790871 
L 169.658502 294.257197 
L 169.923581 295.060264 
L 170.05612 295.190923 
L 170.188659 294.881757 
L 170.254928 294.913134 
L 170.453737 295.45958 
L 170.586276 295.028956 
L 170.652546 295.042921 
L 170.785085 295.467297 
L 170.917624 295.306845 
L 171.182702 295.348921 
L 171.381511 295.230497 
L 171.51405 295.380768 
L 171.58032 295.398675 
L 171.646589 295.28501 
L 171.779128 295.433273 
L 171.977937 295.146834 
L 172.044206 293.72414 
L 172.110476 294.685973 
L 172.243015 295.360525 
L 172.309285 295.143143 
L 172.508093 295.434362 
L 172.706902 295.007556 
L 172.905711 295.262514 
L 173.104519 295.335451 
L 173.170789 295.229106 
L 173.303328 295.446247 
L 173.369598 295.39469 
L 173.435867 295.402225 
L 173.568406 295.222955 
L 173.634676 295.259299 
L 173.700945 295.424727 
L 173.767215 295.33255 
L 173.833484 295.347603 
L 173.899754 295.22587 
L 173.966023 295.276127 
L 174.032293 295.36689 
L 174.231102 295.092454 
L 174.363641 295.28092 
L 174.49618 295.189084 
L 174.628719 295.359024 
L 174.827528 294.137748 
L 174.960067 294.506941 
L 175.026336 295.384969 
L 175.225145 293.233249 
L 175.291415 293.335262 
L 175.357684 294.170309 
L 175.490223 287.504766 
L 175.556493 282.026688 
L 175.622762 285.069754 
L 175.689032 251.602572 
L 175.821571 289.568219 
L 175.95411 294.388847 
L 176.02038 293.683805 
L 176.152919 287.731965 
L 176.219188 288.68922 
L 176.417997 292.305016 
L 176.484267 291.587106 
L 176.550536 291.964541 
L 176.616806 291.596267 
L 176.749345 294.394608 
L 176.815614 294.094472 
L 176.881884 293.64715 
L 176.948153 293.836014 
L 177.014423 294.128024 
L 177.080693 295.13289 
L 177.146962 295.036615 
L 177.279501 294.59682 
L 177.345771 294.717942 
L 177.41204 295.338249 
L 177.47831 295.018808 
L 177.544579 294.671051 
L 177.610849 294.807463 
L 177.677119 294.881236 
L 177.743388 295.151223 
L 177.809658 295.091063 
L 177.942197 294.883854 
L 178.074736 295.269611 
L 178.207275 295.030582 
L 178.339814 295.13949 
L 178.406084 295.021223 
L 178.538623 295.011912 
L 178.737431 295.229544 
L 178.86997 294.941859 
L 179.068779 295.274683 
L 179.135049 294.96876 
L 179.201318 295.261021 
L 179.333857 293.607265 
L 179.466396 295.162189 
L 179.532666 295.009058 
L 179.797744 295.133816 
L 179.864014 294.851017 
L 179.996553 295.362082 
L 180.062822 294.986215 
L 180.129092 295.173272 
L 180.327901 295.294665 
L 180.46044 295.131436 
L 180.526709 295.219956 
L 180.592979 295.011438 
L 180.659248 295.203403 
L 180.725518 294.920814 
L 180.791788 295.028608 
L 180.990596 295.326493 
L 181.056866 295.062172 
L 181.123135 295.309233 
L 181.189405 295.191687 
L 181.388214 294.981907 
L 181.454483 294.937308 
L 181.520753 295.298178 
L 181.587022 295.264895 
L 181.719561 295.248638 
L 181.91837 294.686683 
L 182.117179 295.068033 
L 182.183448 295.05291 
L 182.382257 293.635394 
L 182.581066 294.879461 
L 182.846144 290.286278 
L 182.912413 285.837333 
L 182.978683 272.182468 
L 183.111222 294.532987 
L 183.243761 293.4364 
L 183.3763 294.951626 
L 183.44257 294.57926 
L 183.575109 293.205167 
L 183.641378 293.252727 
L 183.773917 294.568367 
L 183.840187 294.283586 
L 183.972726 293.923525 
L 184.171535 295.271883 
L 184.237804 294.998798 
L 184.370343 294.75519 
L 184.502883 295.313985 
L 184.635422 294.996304 
L 184.701691 295.072565 
L 184.767961 295.086203 
L 184.9005 295.216548 
L 184.966769 295.064558 
L 185.165578 295.327626 
L 185.364387 295.157839 
L 185.563195 295.242568 
L 185.695735 295.019592 
L 185.762004 295.181607 
L 185.894543 295.252356 
L 185.960813 295.104134 
L 186.027082 295.172126 
L 186.225891 295.39652 
L 186.35843 294.831331 
L 186.4247 295.060073 
L 186.490969 294.823862 
L 186.557239 292.56215 
L 186.623508 293.174176 
L 186.756047 295.372635 
L 186.888587 295.351452 
L 186.954856 295.326622 
L 187.021126 295.464261 
L 187.087395 295.431565 
L 187.153665 295.449332 
L 187.286204 295.271959 
L 187.352473 295.387701 
L 187.418743 295.128125 
L 187.485013 295.155554 
L 187.551282 295.409529 
L 187.617552 295.249174 
L 187.683821 295.236706 
L 187.750091 295.41665 
L 187.81636 295.377269 
L 187.948899 295.358088 
L 188.015169 295.26466 
L 188.081439 295.380946 
L 188.147708 295.314132 
L 188.280247 295.347817 
L 188.346517 295.257497 
L 188.412786 295.332469 
L 188.611595 295.452755 
L 188.876673 295.260306 
L 189.075482 295.347282 
L 189.208021 295.312548 
L 189.27429 295.424707 
L 189.34056 295.021688 
L 189.40683 295.18461 
L 189.539369 295.066674 
L 189.671908 295.299174 
L 189.804447 294.875572 
L 189.870716 294.459186 
L 189.936986 294.496595 
L 190.069525 295.161331 
L 190.135795 292.087542 
L 190.202064 282.744547 
L 190.268334 284.302179 
L 190.400873 294.081485 
L 190.665951 295.43605 
L 190.86476 293.835563 
L 190.931029 293.895226 
L 191.129838 294.988277 
L 191.196108 294.327663 
L 191.262377 294.34665 
L 191.328647 294.515289 
L 191.461186 295.370657 
L 191.527455 295.278437 
L 191.593725 294.80006 
L 191.659994 294.976665 
L 191.792534 295.361888 
L 191.858803 295.330841 
L 191.991342 295.16184 
L 192.190151 295.336724 
L 192.32269 295.151256 
L 192.521499 295.229544 
L 193.250464 295.299194 
L 193.316733 295.220115 
L 193.383003 295.299174 
L 193.449272 295.379301 
L 193.515542 295.261844 
L 193.581812 295.392583 
L 193.714351 294.871932 
L 193.78062 295.197268 
L 193.84689 293.13508 
L 193.913159 293.979584 
L 194.045698 295.232226 
L 194.178237 295.337621 
L 194.244507 295.240835 
L 194.310777 295.393991 
L 194.377046 295.328674 
L 194.443316 295.302112 
L 194.509585 295.40644 
L 194.642124 295.264664 
L 194.708394 295.460585 
L 194.774663 295.245691 
L 194.840933 295.272865 
L 194.907203 295.429191 
L 194.973472 295.382691 
L 195.039742 295.413512 
L 195.23855 295.294895 
L 195.503629 295.373643 
L 195.702437 295.372802 
L 195.768707 295.261128 
L 195.834976 295.339645 
L 196.100055 295.361203 
L 196.166324 295.272361 
L 196.298863 295.449055 
L 196.431402 295.307929 
L 196.497672 295.34499 
L 196.563941 295.199167 
L 196.630211 295.358441 
L 196.696481 295.156826 
L 196.76275 295.189742 
L 196.895289 295.376026 
L 197.027828 295.275166 
L 197.226637 293.872963 
L 197.292907 294.033347 
L 197.359176 294.015572 
L 197.425446 292.630285 
L 197.491715 280.997134 
L 197.557985 286.867449 
L 197.756793 295.349209 
L 197.955602 294.202386 
L 198.088141 295.272792 
L 198.28695 293.936784 
L 198.485759 294.849025 
L 198.684567 294.375939 
L 198.750837 294.472521 
L 198.883376 295.105694 
L 199.082184 295.042802 
L 199.214724 295.35385 
L 199.347263 295.029022 
L 199.413532 295.222109 
L 199.479802 295.36026 
L 199.546071 295.276399 
L 199.74488 295.106795 
L 199.877419 295.306174 
L 200.009958 295.177385 
L 200.208767 295.211748 
L 200.606384 295.231846 
L 200.805193 295.297742 
L 200.871462 295.351701 
L 201.004002 295.209702 
L 201.070271 295.364651 
L 201.136541 294.009997 
L 201.20281 294.730615 
L 201.335349 295.193077 
L 201.732967 295.236136 
L 202.196854 295.252077 
L 202.395662 295.330714 
L 202.594471 295.253294 
L 202.859549 295.265025 
L 202.992088 295.466049 
L 203.058358 295.34596 
L 203.323436 295.124738 
L 203.389706 295.228446 
L 203.455975 295.161704 
L 203.721053 295.314849 
L 203.787323 295.140745 
L 203.853592 295.243901 
L 204.052401 295.093294 
L 204.18494 295.301274 
L 204.317479 295.15931 
L 204.450018 294.238047 
L 204.516288 294.287586 
L 204.648827 294.438207 
L 204.715097 295.102198 
L 204.781366 282.796364 
L 204.913905 293.365237 
L 205.112714 295.2486 
L 205.178983 294.810081 
L 205.245253 294.436033 
L 205.311523 294.53457 
L 205.444062 294.864047 
L 205.576601 294.58086 
L 205.70914 294.253088 
L 205.907949 295.019694 
L 206.040488 294.887014 
L 206.239296 295.347881 
L 206.305566 295.299888 
L 206.371835 295.181158 
L 206.570644 295.414123 
L 206.769453 295.32998 
L 206.901992 295.408975 
L 206.968261 295.378425 
L 207.034531 295.211893 
L 207.100801 295.336383 
L 207.299609 295.379057 
L 207.432148 295.342433 
L 207.896035 295.412235 
L 208.094844 295.346169 
L 208.161113 295.326631 
L 208.227383 295.457086 
L 208.426192 294.632755 
L 208.625 295.409167 
L 208.757539 295.418301 
L 208.890078 295.447645 
L 208.956348 295.310365 
L 209.022618 295.38575 
L 209.155157 295.336765 
L 209.287696 295.368437 
L 209.420235 295.453 
L 209.552774 295.401854 
L 210.281739 295.316036 
L 210.348009 295.425379 
L 210.414278 295.380402 
L 210.613087 295.299126 
L 210.679356 295.3197 
L 210.745626 295.471731 
L 210.811896 295.401332 
L 210.878165 295.441266 
L 211.076974 295.147289 
L 211.143243 295.432672 
L 211.209513 294.800116 
L 211.275782 295.333287 
L 211.342052 295.260621 
L 211.540861 294.783841 
L 211.6734 295.054471 
L 211.805939 293.027657 
L 212.004748 288.295474 
L 212.071017 273.62179 
L 212.203556 293.185217 
L 212.336095 294.034369 
L 212.468634 295.305262 
L 212.534904 294.613277 
L 212.601174 294.755928 
L 212.733713 295.200329 
L 212.799982 295.148478 
L 212.998791 294.096187 
L 213.13133 295.340303 
L 213.1976 295.302444 
L 213.396408 294.751712 
L 213.528947 295.359043 
L 213.727756 295.114932 
L 213.794025 295.281963 
L 213.860295 295.19817 
L 214.920608 295.287998 
L 215.583303 295.430909 
L 215.715843 295.198385 
L 216.04719 295.359531 
L 217.041234 295.421247 
L 217.173773 295.31219 
L 217.306312 295.350989 
L 217.505121 295.417386 
L 217.57139 295.281843 
L 217.63766 295.358712 
L 218.035277 295.382715 
L 218.167816 295.370165 
L 218.366625 295.406584 
L 218.432894 295.229438 
L 218.499164 295.315867 
L 218.764242 295.190076 
L 218.963051 294.842269 
L 219.09559 294.6128 
L 219.228129 295.005127 
L 219.294398 294.192369 
L 219.360668 291.419415 
L 219.493207 294.898634 
L 219.625746 294.458349 
L 219.824555 295.152841 
L 220.023364 294.379401 
L 220.089633 294.530898 
L 220.155903 294.965794 
L 220.288442 294.138952 
L 220.354711 294.270629 
L 220.48725 294.346862 
L 220.61979 294.887336 
L 220.686059 294.725738 
L 220.951137 295.368036 
L 221.017407 295.279469 
L 221.083676 295.145908 
L 221.149946 295.233936 
L 221.680102 295.377665 
L 221.812642 295.266779 
L 221.945181 295.466446 
L 222.01145 295.403295 
L 223.933267 295.398812 
L 224.132076 295.358682 
L 224.264615 295.309481 
L 224.662232 295.413586 
L 224.794771 295.233293 
L 224.861041 295.440988 
L 224.927311 295.279397 
L 224.99358 295.361871 
L 225.590006 295.152283 
L 225.656276 295.362097 
L 225.855084 295.013858 
L 225.921354 294.851328 
L 226.053893 295.317098 
L 226.252702 293.50069 
L 226.385241 293.683219 
L 226.45151 294.467154 
L 226.51778 290.27448 
L 226.584049 274.667085 
L 226.650319 278.271712 
L 226.782858 294.164139 
L 226.849128 294.131207 
L 226.915397 293.897756 
L 226.981667 294.027725 
L 227.379284 295.162897 
L 227.578093 293.913229 
L 227.644362 294.263414 
L 227.843171 295.294198 
L 227.909441 294.966724 
L 227.97571 294.438624 
L 228.240788 295.331628 
L 228.439597 294.963613 
L 228.505867 295.333289 
L 228.572136 295.296745 
L 228.704675 295.147511 
L 228.903484 295.233741 
L 228.969753 295.270669 
L 229.036023 295.174194 
L 229.168562 295.308657 
L 229.234832 295.301484 
L 229.301101 295.177253 
L 229.367371 295.255443 
L 229.566179 295.300519 
L 229.698718 295.226515 
L 229.831258 295.417266 
L 229.897527 295.342175 
L 230.228875 295.293123 
L 230.427684 295.362197 
L 230.825301 295.320009 
L 232.018153 295.426796 
L 232.150692 295.265481 
L 232.41577 295.393602 
L 232.747118 295.328022 
L 233.012196 295.278135 
L 233.078466 295.081124 
L 233.144735 295.110092 
L 233.277274 295.308191 
L 233.476083 294.748662 
L 233.608622 295.353947 
L 233.807431 294.937864 
L 233.8737 287.703081 
L 233.93997 291.266771 
L 234.138779 295.046537 
L 234.337587 294.500061 
L 234.470126 295.159868 
L 234.801474 294.467194 
L 234.867744 294.493375 
L 235.000283 293.829453 
L 235.199091 294.779144 
L 235.331631 294.627079 
L 235.596709 295.317545 
L 235.729248 295.000765 
L 235.795517 295.110293 
L 235.928057 295.459547 
L 235.994326 295.265492 
L 236.126865 295.200038 
L 236.259404 295.39784 
L 236.458213 295.27667 
L 236.657022 295.319497 
L 236.789561 295.345568 
L 236.9221 295.378323 
L 237.054639 295.232479 
L 237.120909 295.31254 
L 237.584795 295.375415 
L 238.114952 295.294738 
L 238.38003 295.360908 
L 240.633195 295.298036 
L 240.832004 294.916818 
L 241.097082 294.115111 
L 241.163351 291.804991 
L 241.36216 295.041911 
L 241.42843 295.435008 
L 241.494699 295.27519 
L 241.627238 294.888795 
L 241.759777 295.37745 
L 242.024856 294.815596 
L 242.091125 294.830911 
L 242.289934 294.00284 
L 242.356203 294.197795 
L 242.488742 295.039175 
L 242.555012 295.004052 
L 242.621282 294.803126 
L 242.687551 294.870881 
L 242.753821 294.893386 
L 242.88636 295.264977 
L 243.018899 295.056512 
L 243.217708 295.457662 
L 243.283977 295.314063 
L 243.416516 295.220188 
L 243.549055 295.420782 
L 243.747864 295.280006 
L 243.946673 295.354173 
L 244.079212 295.335494 
L 244.27802 295.35158 
L 245.073255 295.402225 
L 245.272064 295.37919 
L 245.470872 295.351244 
L 245.735951 295.380365 
L 246.464916 295.395316 
L 246.663724 295.281652 
L 246.862533 295.40327 
L 247.26015 295.388716 
L 247.458959 295.466122 
L 247.591498 295.243477 
L 247.657768 295.367983 
L 247.724037 295.289104 
L 247.922846 295.371584 
L 248.055385 294.953013 
L 248.121655 295.349704 
L 248.187924 295.297244 
L 248.320463 293.118806 
L 248.453002 286.121801 
L 248.585541 294.466815 
L 248.651811 294.36351 
L 248.85062 295.445734 
L 248.916889 294.69249 
L 248.983159 294.799322 
L 249.115698 295.307941 
L 249.181967 295.2738 
L 249.380776 294.855285 
L 249.513315 295.16723 
L 249.712124 294.622251 
L 249.910932 295.162672 
L 250.109741 295.029227 
L 250.24228 295.44747 
L 250.374819 295.150096 
L 250.507358 295.292695 
L 250.639898 295.345104 
L 250.706167 295.174447 
L 250.772437 295.24798 
L 250.904976 295.345849 
L 251.103784 295.280009 
L 251.368863 295.270962 
L 251.633941 295.260816 
L 251.899019 295.358659 
L 252.495445 295.31023 
L 252.627984 295.357298 
L 252.760523 295.279063 
L 252.893062 295.345411 
L 253.158141 295.317666 
L 253.622028 295.329964 
L 254.74861 295.310853 
L 254.814879 295.353036 
L 255.013688 295.229114 
L 255.345036 295.145609 
L 255.477575 295.294362 
L 255.543845 295.04195 
L 255.742653 290.987539 
L 255.875192 295.139239 
L 255.941462 295.324069 
L 256.007731 295.25683 
L 256.140271 295.136222 
L 256.20654 295.348584 
L 256.27281 295.26498 
L 256.471618 295.383032 
L 256.670427 295.169611 
L 256.736697 295.183276 
L 257.001775 294.952969 
L 257.465662 295.301729 
L 257.73074 295.283206 
L 257.929549 295.442515 
L 258.062088 295.306615 
L 258.260896 295.408551 
L 258.459705 295.391385 
L 258.658514 295.390145 
L 262.634687 295.279581 
L 262.767226 294.922199 
L 262.833496 294.972117 
L 262.899765 294.768606 
L 262.966035 291.491611 
L 263.032304 292.786413 
L 263.231113 295.380747 
L 263.297382 295.079944 
L 263.363652 295.15802 
L 263.429922 295.173967 
L 263.496191 295.39006 
L 263.562461 295.285258 
L 263.62873 295.145484 
L 263.695 295.213441 
L 263.827539 295.4635 
L 263.893808 295.324714 
L 263.960078 295.104811 
L 264.026347 295.159951 
L 264.158887 295.312004 
L 264.357695 294.96353 
L 264.622773 295.313988 
L 264.755313 295.161719 
L 264.954121 295.416102 
L 265.15293 295.31751 
L 265.616817 295.397066 
L 265.881895 295.382526 
L 266.080704 295.343562 
L 266.146973 295.319432 
L 266.279512 295.419886 
L 266.478321 295.381593 
L 267.339825 295.322696 
L 267.406095 295.255287 
L 267.472364 295.40481 
L 267.538634 295.332881 
L 268.598947 295.363114 
L 269.195373 295.380101 
L 269.791799 295.331562 
L 270.123146 295.223924 
L 270.189416 295.431204 
L 270.255686 293.962273 
L 270.454494 295.345766 
L 270.785842 295.468366 
L 270.984651 295.354911 
L 271.183459 295.418723 
L 271.315998 295.313101 
L 271.514807 295.358513 
L 271.713616 295.2194 
L 271.846155 295.417837 
L 271.912424 295.36085 
L 272.177503 295.39364 
L 272.243772 295.455885 
L 272.310042 295.371335 
L 272.840198 295.392943 
L 273.039007 295.374477 
L 273.834241 295.400954 
L 273.966781 295.35377 
L 274.298128 295.385282 
L 274.496937 295.372081 
L 274.828285 295.389051 
L 275.49098 295.363531 
L 276.087406 295.389913 
L 276.286215 295.354904 
L 276.485024 295.386429 
L 276.683832 295.364164 
L 276.816371 295.364067 
L 276.948911 295.32283 
L 277.147719 295.384047 
L 277.412797 294.882004 
L 277.479067 295.019108 
L 277.545337 293.108665 
L 277.677876 295.348122 
L 277.744145 295.313509 
L 277.876684 295.441748 
L 278.208032 295.352915 
L 278.340571 295.412167 
L 279.135806 295.359166 
L 279.202075 295.439095 
L 279.268345 295.378913 
L 279.467154 295.368848 
L 279.665962 295.411805 
L 279.864771 295.405378 
L 280.06358 295.394301 
L 280.527466 295.407561 
L 281.52151 295.384918 
L 281.654049 295.353117 
L 281.985397 295.406043 
L 282.117936 295.176436 
L 282.184205 295.419442 
L 282.250475 295.376449 
L 282.449284 295.400219 
L 282.581823 295.343243 
L 282.780631 295.410259 
L 284.172292 295.395857 
L 284.304831 295.452073 
L 284.43737 295.285269 
L 284.636179 295.279724 
L 284.834987 293.695533 
L 284.967527 295.246515 
L 285.100066 295.314491 
L 285.298874 295.374768 
L 286.027839 295.315208 
L 286.160379 295.424496 
L 286.425457 295.271252 
L 286.557996 295.456583 
L 286.756805 295.323003 
L 287.021883 295.382727 
L 287.154422 295.360177 
L 287.353231 295.397817 
L 288.148465 295.406794 
L 288.87743 295.404144 
L 289.076239 295.3155 
L 289.142508 295.422497 
L 289.208778 295.381339 
L 289.341317 295.328406 
L 289.407587 295.451877 
L 289.473856 295.392088 
L 289.805204 295.418243 
L 291.130595 295.414707 
L 291.196865 295.455054 
L 291.263134 295.34098 
L 291.329404 295.379926 
L 291.793291 295.219472 
L 291.85956 295.341275 
L 291.92583 295.265266 
L 292.058369 293.248594 
L 292.124638 293.615771 
L 292.257178 295.355684 
L 292.588525 295.476546 
L 292.721064 295.347162 
L 292.919873 295.447772 
L 292.986143 295.358631 
L 293.118682 295.457004 
L 293.648838 295.346113 
L 293.781377 295.392788 
L 293.913916 295.453938 
L 294.444073 295.383447 
L 294.84169 295.435027 
L 297.227394 295.424866 
L 297.492472 295.410307 
L 297.691281 295.427294 
L 297.89009 295.430184 
L 298.155168 295.430035 
L 298.353977 295.449186 
L 298.486516 295.407167 
L 298.685324 295.422799 
L 299.215481 294.963558 
L 299.28175 294.808643 
L 299.34802 292.795158 
L 299.546828 295.183322 
L 299.745637 295.342738 
L 299.878176 295.253789 
L 300.076985 295.363301 
L 300.143254 295.437755 
L 300.342063 295.332119 
L 300.540872 295.361797 
L 300.73968 295.34039 
L 300.80595 295.456256 
L 300.87222 295.396694 
L 301.071028 295.311444 
L 301.269837 295.406289 
L 301.468646 295.372707 
L 301.601185 295.409145 
L 301.667454 295.31757 
L 301.733724 295.37536 
L 302.26388 295.422436 
L 303.456732 295.359156 
L 303.655541 295.402133 
L 306.306323 295.279721 
L 306.505132 294.666453 
L 306.571401 294.902171 
L 306.637671 292.108127 
L 306.77021 295.098846 
L 306.969019 295.461045 
L 307.035288 295.400006 
L 307.167827 295.304663 
L 307.366636 295.472432 
L 307.631714 295.440642 
L 308.029331 295.430098 
L 308.161871 295.452717 
L 308.360679 295.366673 
L 308.559488 295.460754 
L 308.758296 295.397899 
L 308.957105 295.458691 
L 309.089644 295.413188 
L 309.354722 295.43853 
L 309.68607 295.419491 
L 313.662244 295.277851 
L 313.728513 295.207801 
L 313.861052 294.797935 
L 313.927322 293.527906 
L 314.059861 295.306777 
L 314.1924 295.316371 
L 314.391209 295.314318 
L 315.65033 295.401984 
L 315.782869 295.375513 
L 315.981678 295.408781 
L 316.246756 295.366492 
L 316.511834 295.410808 
L 316.776913 295.385073 
L 316.975721 295.415128 
L 317.10826 295.342611 
L 317.17453 295.476535 
L 317.240799 295.400392 
L 317.439608 295.395678 
L 317.572147 295.417742 
L 317.837225 295.370149 
L 317.969765 295.253407 
L 318.036034 295.101438 
L 318.102304 295.15626 
L 318.168573 295.266287 
L 318.301112 295.042513 
L 318.367382 295.336535 
L 318.499921 295.077648 
L 318.566191 295.454909 
L 318.63246 295.408843 
L 318.831269 295.367765 
L 318.897538 295.14961 
L 319.030077 295.473572 
L 319.096347 295.426918 
L 319.560234 295.418391 
L 320.024121 295.426034 
L 320.885625 295.378064 
L 320.951894 295.467335 
L 321.084434 295.03572 
L 321.216973 294.281621 
L 321.349512 295.471601 
L 321.482051 295.43085 
L 321.68086 295.449727 
L 321.879668 295.430326 
L 322.476094 295.440668 
L 322.741172 295.411135 
L 323.006251 295.437053 
L 323.205059 295.44809 
L 324.132833 295.419621 
L 325.325685 295.41515 
L 325.458224 295.394852 
L 325.988381 295.454226 
L 326.584807 295.38851 
L 326.916154 295.412157 
L 327.843928 295.433924 
L 328.109006 295.417672 
L 328.241545 295.424996 
L 328.374085 295.142185 
L 328.440354 294.617477 
L 328.506624 294.841981 
L 328.639163 295.356738 
L 328.904241 295.393345 
L 329.169319 295.410803 
L 330.759788 295.3443 
L 330.958597 295.436991 
L 331.223675 295.406423 
L 331.422484 295.418642 
L 331.687562 295.412707 
L 331.886371 295.410818 
L 332.482797 295.34855 
L 332.549066 295.183063 
L 332.681606 295.292363 
L 332.880414 295.259991 
L 333.012953 295.191918 
L 333.079223 295.16122 
L 333.211762 295.45627 
L 333.410571 295.396337 
L 333.47684 295.218477 
L 333.609379 295.432072 
L 334.338344 295.37924 
L 334.537153 295.423918 
L 335.663735 295.428292 
L 335.730005 294.385896 
L 335.796275 295.008607 
L 335.995083 295.428073 
L 336.52524 295.430705 
L 336.922857 295.438343 
L 337.187935 295.427109 
L 337.9169 295.439196 
L 338.115709 295.438622 
L 338.844674 295.441628 
L 338.977213 295.37961 
L 339.176022 295.432662 
L 339.904987 295.358472 
L 339.971256 295.453036 
L 340.037526 295.396746 
L 340.103796 295.278922 
L 340.170065 295.331143 
L 340.236335 295.414694 
L 340.302604 295.361093 
L 340.700222 295.451419 
L 340.832761 295.377476 
L 341.164108 295.420805 
L 341.362917 295.436108 
L 342.953386 295.254899 
L 343.019656 294.732992 
L 343.152195 295.400579 
L 343.351004 295.418415 
L 344.543856 295.431052 
L 344.875203 295.418956 
L 345.471629 295.414094 
L 346.86329 295.441107 
L 347.128368 295.406266 
L 347.260907 295.438135 
L 347.393447 295.413173 
L 347.525986 295.37793 
L 347.592255 295.338723 
L 347.791064 295.426576 
L 350.110498 295.417965 
L 350.309307 295.212332 
L 350.441846 295.428127 
L 352.82755 295.426584 
L 354.28548 295.423719 
L 354.418019 295.357921 
L 354.484289 295.460466 
L 354.550558 295.397263 
L 354.683097 295.387104 
L 354.815637 295.411333 
L 354.881906 295.340794 
L 355.014445 295.429146 
L 356.141028 295.435471 
L 356.339836 295.426206 
L 357.33388 295.431703 
L 357.665227 295.414176 
L 358.261653 295.430306 
L 364.6898 295.429542 
L 365.286226 295.440933 
L 366.346539 295.431751 
L 367.406852 295.434427 
L 375.226659 295.434387 
L 379.202832 295.437568 
L 398.487273 295.440216 
L 398.487273 295.440216 
" clip-path="url(#pda2d199c1b)" style="fill: none; stroke: #1f77b4; stroke-width: 1.5; stroke-linecap: square"/>
   </g>
   <g id="patch_3">
    <path d="M 57.6 307.584 
L 57.6 41.472 
" style="fill: none; stroke: #000000; stroke-width: 0.8; stroke-linejoin: miter; stroke-linecap: square"/>
   </g>
   <g id="patch_4">
    <path d="M 414.72 307.584 
L 414.72 41.472 
" style="fill: none; stroke: #000000; stroke-width: 0.8; stroke-linejoin: miter; stroke-linecap: square"/>
   </g>
   <g id="patch_5">
    <path d="M 57.6 307.584 
L 414.72 307.584 
" style="fill: none; stroke: #000000; stroke-width: 0.8; stroke-linejoin: miter; stroke-linecap: square"/>
   </g>
   <g id="patch_6">
    <path d="M 57.6 41.472 
L 414.72 41.472 
" style="fill: none; stroke: #000000; stroke-width: 0.8; stroke-linejoin: miter; stroke-linecap: square"/>
   </g>
   <g id="text_19">
    <text style="font: 12px 'IPAexGothic'; text-anchor: middle" x="236.16" y="35.472" transform="rotate(-0 236.16 35.472)">"024_A1.wav"の振幅スペクトル</text>
   </g>
  </g>
 </g>
 <defs>
  <clipPath id="pda2d199c1b">
   <rect x="57.6" y="41.472" width="357.12" height="266.112"/>
  </clipPath>
 </defs>
</svg>
