<?xml version="1.0" encoding="utf-8" standalone="no"?>
<!DOCTYPE svg PUBLIC "-//W3C//DTD SVG 1.1//EN"
  "http://www.w3.org/Graphics/SVG/1.1/DTD/svg11.dtd">
<svg xmlns:xlink="http://www.w3.org/1999/xlink" width="460.8pt" height="345.6pt" viewBox="0 0 460.8 345.6" xmlns="http://www.w3.org/2000/svg" version="1.1">
 <metadata>
  <rdf:RDF xmlns:dc="http://purl.org/dc/elements/1.1/" xmlns:cc="http://creativecommons.org/ns#" xmlns:rdf="http://www.w3.org/1999/02/22-rdf-syntax-ns#">
   <cc:Work>
    <dc:type rdf:resource="http://purl.org/dc/dcmitype/StillImage"/>
    <dc:date>2022-11-28T12:34:06.746044</dc:date>
    <dc:format>image/svg+xml</dc:format>
    <dc:creator>
     <cc:Agent>
      <dc:title>Matplotlib v3.6.2, https://matplotlib.org/</dc:title>
     </cc:Agent>
    </dc:creator>
   </cc:Work>
  </rdf:RDF>
 </metadata>
 <defs>
  <style type="text/css">*{stroke-linejoin: round; stroke-linecap: butt}</style>
 </defs>
 <g id="figure_1">
  <g id="patch_1">
   <path d="M 0 345.6 
L 460.8 345.6 
L 460.8 0 
L 0 0 
z
" style="fill: #ffffff"/>
  </g>
  <g id="axes_1">
   <g id="patch_2">
    <path d="M 57.6 307.584 
L 414.72 307.584 
L 414.72 41.472 
L 57.6 41.472 
z
" style="fill: #ffffff"/>
   </g>
   <g id="matplotlib.axis_1">
    <g id="xtick_1">
     <g id="line2d_1">
      <defs>
       <path id="mfec555a8f3" d="M 0 0 
L 0 3.5 
" style="stroke: #000000; stroke-width: 0.8"/>
      </defs>
      <g>
       <use xlink:href="#mfec555a8f3" x="73.832727" y="307.584" style="stroke: #000000; stroke-width: 0.8"/>
      </g>
     </g>
     <g id="text_1">
      <text style="font: 10px 'IPAexGothic'; text-anchor: middle" x="73.832727" y="322.074625" transform="rotate(-0 73.832727 322.074625)">0</text>
     </g>
    </g>
    <g id="xtick_2">
     <g id="line2d_2">
      <g>
       <use xlink:href="#mfec555a8f3" x="140.102281" y="307.584" style="stroke: #000000; stroke-width: 0.8"/>
      </g>
     </g>
     <g id="text_2">
      <text style="font: 10px 'IPAexGothic'; text-anchor: middle" x="140.102281" y="322.074625" transform="rotate(-0 140.102281 322.074625)">1000</text>
     </g>
    </g>
    <g id="xtick_3">
     <g id="line2d_3">
      <g>
       <use xlink:href="#mfec555a8f3" x="206.371835" y="307.584" style="stroke: #000000; stroke-width: 0.8"/>
      </g>
     </g>
     <g id="text_3">
      <text style="font: 10px 'IPAexGothic'; text-anchor: middle" x="206.371835" y="322.074625" transform="rotate(-0 206.371835 322.074625)">2000</text>
     </g>
    </g>
    <g id="xtick_4">
     <g id="line2d_4">
      <g>
       <use xlink:href="#mfec555a8f3" x="272.64139" y="307.584" style="stroke: #000000; stroke-width: 0.8"/>
      </g>
     </g>
     <g id="text_4">
      <text style="font: 10px 'IPAexGothic'; text-anchor: middle" x="272.64139" y="322.074625" transform="rotate(-0 272.64139 322.074625)">3000</text>
     </g>
    </g>
    <g id="xtick_5">
     <g id="line2d_5">
      <g>
       <use xlink:href="#mfec555a8f3" x="338.910944" y="307.584" style="stroke: #000000; stroke-width: 0.8"/>
      </g>
     </g>
     <g id="text_5">
      <text style="font: 10px 'IPAexGothic'; text-anchor: middle" x="338.910944" y="322.074625" transform="rotate(-0 338.910944 322.074625)">4000</text>
     </g>
    </g>
    <g id="xtick_6">
     <g id="line2d_6">
      <g>
       <use xlink:href="#mfec555a8f3" x="405.180498" y="307.584" style="stroke: #000000; stroke-width: 0.8"/>
      </g>
     </g>
     <g id="text_6">
      <text style="font: 10px 'IPAexGothic'; text-anchor: middle" x="405.180498" y="322.074625" transform="rotate(-0 405.180498 322.074625)">5000</text>
     </g>
    </g>
    <g id="text_7">
     <text style="font: 10px 'IPAexGothic'; text-anchor: middle" x="236.16" y="335.924625" transform="rotate(-0 236.16 335.924625)">周波数[Hz]</text>
    </g>
   </g>
   <g id="matplotlib.axis_2">
    <g id="ytick_1">
     <g id="line2d_7">
      <defs>
       <path id="mecd4433ce2" d="M 0 0 
L -3.5 0 
" style="stroke: #000000; stroke-width: 0.8"/>
      </defs>
      <g>
       <use xlink:href="#mecd4433ce2" x="57.6" y="295.489654" style="stroke: #000000; stroke-width: 0.8"/>
      </g>
     </g>
     <g id="text_8">
      <text style="font: 10px 'IPAexGothic'; text-anchor: end" x="50.6" y="299.234966" transform="rotate(-0 50.6 299.234966)">0.0</text>
     </g>
    </g>
    <g id="ytick_2">
     <g id="line2d_8">
      <g>
       <use xlink:href="#mecd4433ce2" x="57.6" y="252.781395" style="stroke: #000000; stroke-width: 0.8"/>
      </g>
     </g>
     <g id="text_9">
      <text style="font: 10px 'IPAexGothic'; text-anchor: end" x="50.6" y="256.526707" transform="rotate(-0 50.6 256.526707)">0.2</text>
     </g>
    </g>
    <g id="ytick_3">
     <g id="line2d_9">
      <g>
       <use xlink:href="#mecd4433ce2" x="57.6" y="210.073136" style="stroke: #000000; stroke-width: 0.8"/>
      </g>
     </g>
     <g id="text_10">
      <text style="font: 10px 'IPAexGothic'; text-anchor: end" x="50.6" y="213.818448" transform="rotate(-0 50.6 213.818448)">0.4</text>
     </g>
    </g>
    <g id="ytick_4">
     <g id="line2d_10">
      <g>
       <use xlink:href="#mecd4433ce2" x="57.6" y="167.364877" style="stroke: #000000; stroke-width: 0.8"/>
      </g>
     </g>
     <g id="text_11">
      <text style="font: 10px 'IPAexGothic'; text-anchor: end" x="50.6" y="171.110189" transform="rotate(-0 50.6 171.110189)">0.6</text>
     </g>
    </g>
    <g id="ytick_5">
     <g id="line2d_11">
      <g>
       <use xlink:href="#mecd4433ce2" x="57.6" y="124.656618" style="stroke: #000000; stroke-width: 0.8"/>
      </g>
     </g>
     <g id="text_12">
      <text style="font: 10px 'IPAexGothic'; text-anchor: end" x="50.6" y="128.401931" transform="rotate(-0 50.6 128.401931)">0.8</text>
     </g>
    </g>
    <g id="ytick_6">
     <g id="line2d_12">
      <g>
       <use xlink:href="#mecd4433ce2" x="57.6" y="81.948359" style="stroke: #000000; stroke-width: 0.8"/>
      </g>
     </g>
     <g id="text_13">
      <text style="font: 10px 'IPAexGothic'; text-anchor: end" x="50.6" y="85.693672" transform="rotate(-0 50.6 85.693672)">1.0</text>
     </g>
    </g>
    <g id="text_14">
     <text style="font: 10px 'IPAexGothic'; text-anchor: middle" x="29.460938" y="174.528" transform="rotate(-90 29.460938 174.528)">振幅</text>
    </g>
    <g id="text_15">
     <text style="font: 10px 'IPAexGothic'; text-anchor: start" x="57.6" y="38.472" transform="rotate(-0 57.6 38.472)">1e7</text>
    </g>
   </g>
   <g id="line2d_13">
    <path d="M 73.832727 266.11139 
L 73.965266 291.383683 
L 74.164075 268.928872 
L 74.230345 272.02793 
L 74.362884 279.715557 
L 74.561692 273.17471 
L 74.627962 273.75088 
L 74.760501 276.040802 
L 74.95931 274.437159 
L 75.158118 287.757452 
L 75.224388 283.904903 
L 75.423197 280.716789 
L 75.489466 280.104652 
L 75.555736 284.706606 
L 75.622005 283.240758 
L 75.820814 286.731487 
L 76.085892 291.565746 
L 76.152162 290.860022 
L 76.218431 290.911914 
L 76.35097 292.023124 
L 76.549779 283.825328 
L 76.616049 285.031766 
L 76.682318 284.221261 
L 76.748588 284.075859 
L 76.881127 284.323597 
L 76.947396 281.865107 
L 77.013666 285.048868 
L 77.079935 281.345274 
L 77.146205 284.799622 
L 77.345014 268.308715 
L 77.411283 268.808959 
L 77.477553 53.568 
L 77.610092 278.148521 
L 78.007709 291.84441 
L 78.073979 291.758409 
L 78.140248 291.908381 
L 78.339057 290.98413 
L 78.405327 290.991442 
L 78.471596 290.621823 
L 78.537866 291.050624 
L 78.670405 290.492948 
L 78.736674 290.69046 
L 78.802944 289.794618 
L 78.869213 290.143867 
L 78.935483 290.414744 
L 79.001752 290.210186 
L 79.200561 287.859464 
L 79.3331 289.069888 
L 79.465639 286.97423 
L 79.531909 289.18342 
L 79.598178 288.620971 
L 79.730718 286.878357 
L 79.796987 287.314419 
L 79.995796 285.170528 
L 80.062065 287.02817 
L 80.128335 284.450251 
L 80.194604 284.877795 
L 80.327144 284.766349 
L 80.393413 281.202588 
L 80.459683 281.241181 
L 80.525952 281.735043 
L 80.724761 275.715717 
L 80.8573 266.928774 
L 81.056109 215.868106 
L 81.188648 83.780062 
L 81.321187 242.274703 
L 81.453726 266.332755 
L 81.851343 285.297083 
L 81.917613 286.851768 
L 81.983882 286.086108 
L 82.050152 286.47356 
L 82.182691 289.987982 
L 82.248961 290.207827 
L 82.31523 289.829521 
L 82.3815 291.789227 
L 82.447769 291.76263 
L 82.712848 293.187896 
L 82.779117 293.9649 
L 82.845387 293.783119 
L 82.911656 293.896549 
L 83.176734 295.044901 
L 83.309274 295.079863 
L 83.508082 294.965446 
L 84.170778 291.857 
L 84.568395 282.830956 
L 84.700934 263.100503 
L 84.767204 225.844264 
L 84.833473 66.370778 
L 84.966012 256.235877 
L 85.164821 285.895644 
L 85.231091 284.695626 
L 85.496169 289.536406 
L 85.628708 289.773063 
L 85.827517 291.706718 
L 85.893786 291.564635 
L 85.960056 291.455356 
L 86.026325 292.240859 
L 86.092595 291.91113 
L 86.158864 291.980836 
L 86.291403 293.983226 
L 86.357673 292.312297 
L 86.423943 292.669829 
L 86.556482 293.731598 
L 86.622751 293.289366 
L 86.887829 294.069161 
L 87.020369 294.093495 
L 87.086638 293.924966 
L 87.351716 294.915352 
L 87.417986 294.931326 
L 87.616795 295.301824 
L 87.683064 295.378333 
L 87.749334 295.304628 
L 88.014412 294.475878 
L 88.080681 294.336266 
L 88.27949 290.885959 
L 88.412029 284.497339 
L 88.478299 220.179442 
L 88.677107 284.032274 
L 89.008455 292.471111 
L 89.074725 291.626212 
L 89.140994 291.741934 
L 89.207264 291.788745 
L 89.339803 293.91048 
L 89.406072 293.52171 
L 89.472342 292.671805 
L 89.538612 292.72964 
L 89.73742 293.914954 
L 89.80369 293.842846 
L 89.869959 293.317127 
L 90.002498 294.136583 
L 90.135038 293.27201 
L 90.333846 294.504025 
L 90.532655 294.479157 
L 90.797733 293.592929 
L 90.930272 294.834855 
L 91.129081 294.346497 
L 91.19535 294.415944 
L 91.526698 294.688458 
L 91.592968 294.944159 
L 91.725507 294.425717 
L 91.791776 294.484849 
L 91.858046 294.710864 
L 91.924316 294.154619 
L 91.990585 294.332626 
L 92.056855 295.106559 
L 92.123124 282.932356 
L 92.189394 289.980022 
L 92.388202 294.509048 
L 92.587011 295.197094 
L 92.78582 295.193829 
L 93.382246 294.903013 
L 93.448515 295.068576 
L 93.514785 294.946035 
L 93.647324 294.975227 
L 93.846133 294.715873 
L 94.111211 294.887321 
L 94.24375 294.496102 
L 94.508828 294.786441 
L 94.707637 294.100698 
L 94.773906 294.026 
L 94.972715 294.396415 
L 95.237793 292.533562 
L 95.370332 293.499899 
L 95.635411 291.12437 
L 95.76795 286.242005 
L 95.834219 266.323077 
L 95.900489 277.181339 
L 96.165567 292.685425 
L 96.563184 294.699188 
L 96.629454 294.377162 
L 96.828263 294.977923 
L 96.894532 294.794973 
L 97.093341 295.204284 
L 97.623497 295.219671 
L 98.286193 294.597665 
L 98.352462 294.450482 
L 98.418732 294.544862 
L 98.485001 294.66863 
L 98.68381 293.671144 
L 98.75008 293.914513 
L 99.015158 291.9471 
L 99.213966 291.074503 
L 99.280236 289.780791 
L 99.412775 283.097097 
L 99.479045 227.994121 
L 99.545314 243.739405 
L 99.810392 288.06112 
L 99.942932 288.785003 
L 100.14174 291.266013 
L 100.473088 293.272219 
L 100.539358 293.100084 
L 100.605627 293.14412 
L 100.738166 293.355155 
L 100.936975 293.921629 
L 101.003244 293.902714 
L 101.135784 294.147338 
L 101.268323 294.110773 
L 101.400862 294.454163 
L 101.59967 294.34202 
L 101.798479 294.562686 
L 101.864749 294.383001 
L 101.997288 294.572547 
L 102.394905 294.443622 
L 102.659983 293.760087 
L 102.792522 292.996845 
L 102.925062 291.38978 
L 103.057601 285.558496 
L 103.19014 232.274405 
L 103.388948 281.400606 
L 103.720296 292.093609 
L 103.852835 292.087504 
L 103.919105 292.646579 
L 103.985374 292.460072 
L 104.117913 293.61505 
L 104.184183 292.677588 
L 104.250453 293.053137 
L 104.382992 293.562768 
L 104.515531 293.153938 
L 104.64807 292.626945 
L 104.913148 294.435527 
L 104.979418 294.369554 
L 105.045687 294.005147 
L 105.111957 292.705395 
L 105.178226 293.01181 
L 105.244496 292.916179 
L 105.708383 294.072143 
L 105.840922 294.166726 
L 105.907191 294.016721 
L 106.039731 292.998614 
L 106.17227 293.989732 
L 106.304809 293.460401 
L 106.371078 292.440873 
L 106.437348 292.650558 
L 106.569887 293.205627 
L 106.702426 292.478468 
L 106.768696 293.306675 
L 106.834965 280.267895 
L 106.901235 282.542063 
L 107.100043 292.526495 
L 107.298852 294.316303 
L 107.431391 294.593048 
L 107.6302 294.29589 
L 107.762739 293.035836 
L 107.961548 294.277577 
L 108.094087 293.702356 
L 108.160356 293.940014 
L 108.226626 293.542213 
L 108.292895 293.628004 
L 108.425435 293.389906 
L 108.690513 293.814983 
L 108.756782 293.72819 
L 108.823052 293.943704 
L 109.08813 292.383913 
L 109.1544 293.148107 
L 109.220669 292.429484 
L 109.286939 293.03695 
L 109.353208 292.560924 
L 109.419478 293.129697 
L 109.485747 292.441407 
L 109.552017 292.931814 
L 109.618286 292.643035 
L 109.750826 291.947362 
L 109.817095 292.64678 
L 109.949634 291.290946 
L 110.015904 291.986043 
L 110.214712 288.941721 
L 110.280982 288.529221 
L 110.347252 288.755089 
L 110.61233 259.478401 
L 110.678599 264.769878 
L 110.877408 287.461714 
L 111.076217 291.115984 
L 111.341295 293.508165 
L 111.937721 295.376548 
L 112.00399 295.454582 
L 112.335338 294.947242 
L 112.401608 294.927951 
L 112.600416 294.494898 
L 112.732956 294.280826 
L 112.799225 294.42211 
L 112.865495 294.476284 
L 112.931764 294.250439 
L 112.998034 294.365642 
L 113.064303 294.20747 
L 113.196842 293.397849 
L 113.263112 293.459441 
L 113.329382 292.813822 
L 113.395651 293.184866 
L 113.461921 293.056046 
L 113.59446 291.970373 
L 113.660729 292.076614 
L 113.726999 292.05037 
L 113.992077 288.736616 
L 114.058347 289.459919 
L 114.124616 284.220821 
L 114.190886 284.273505 
L 114.323425 219.440257 
L 114.522233 275.357257 
L 114.721042 287.790233 
L 114.787312 288.805298 
L 114.853581 288.072123 
L 114.98612 292.738548 
L 115.05239 292.550903 
L 115.118659 292.299712 
L 115.184929 292.371555 
L 115.582546 294.011704 
L 115.648816 293.901393 
L 115.847625 294.573691 
L 115.913894 294.444399 
L 116.311511 295.22529 
L 116.377781 295.199742 
L 116.51032 295.434075 
L 116.974207 294.810773 
L 117.173016 294.250743 
L 117.239285 294.279688 
L 117.703172 290.690646 
L 117.901981 283.712123 
L 118.03452 255.632997 
L 118.564676 290.851108 
L 118.630946 290.641907 
L 118.697215 292.282719 
L 118.763485 292.224612 
L 118.896024 291.934067 
L 118.962294 292.109282 
L 119.094833 291.821087 
L 119.161102 293.245289 
L 119.227372 292.901144 
L 119.293641 293.587247 
L 119.359911 292.962405 
L 119.42618 293.013937 
L 119.624989 293.543305 
L 119.691259 293.687416 
L 119.757528 293.308818 
L 119.823798 293.50883 
L 119.890067 293.342903 
L 119.956337 293.4044 
L 120.022606 293.880033 
L 120.088876 293.778503 
L 120.221415 293.54303 
L 120.287685 293.902277 
L 120.420224 293.532333 
L 120.486493 293.533147 
L 120.552763 293.828357 
L 120.619032 293.758411 
L 120.685302 293.881899 
L 120.751572 293.486164 
L 120.817841 293.822372 
L 120.884111 293.635353 
L 121.01665 293.687522 
L 121.082919 293.754088 
L 121.215458 292.784775 
L 121.281728 293.357438 
L 121.347998 292.716077 
L 121.480537 279.156172 
L 121.546806 282.909755 
L 121.613076 287.746381 
L 121.679345 285.566444 
L 121.745615 273.881644 
L 121.811884 278.603193 
L 121.944424 291.215606 
L 122.010693 289.687662 
L 122.209502 293.348311 
L 122.342041 294.518391 
L 122.40831 294.401039 
L 122.47458 294.083122 
L 122.54085 294.139287 
L 122.607119 294.093145 
L 122.673389 294.342814 
L 122.805928 293.794952 
L 123.004736 294.379393 
L 123.137276 294.022031 
L 123.203545 294.311148 
L 123.269815 294.155816 
L 123.336084 293.97076 
L 123.468623 294.384747 
L 123.601162 293.901389 
L 123.799971 294.524277 
L 123.866241 293.731652 
L 123.93251 293.851508 
L 123.99878 294.027542 
L 124.065049 293.655459 
L 124.131319 294.055793 
L 124.197588 293.584279 
L 124.263858 293.783513 
L 124.462667 294.104711 
L 124.528936 294.0172 
L 124.661475 294.138785 
L 124.727745 293.727609 
L 124.794014 292.507644 
L 124.860284 293.051239 
L 124.926553 293.159679 
L 124.992823 293.499739 
L 125.059093 292.944739 
L 125.125362 293.787044 
L 125.324171 289.667969 
L 125.522979 276.396422 
L 125.589249 277.853375 
L 125.788058 292.482656 
L 125.986866 293.930263 
L 126.384484 295.449462 
L 126.848371 294.746779 
L 126.91464 294.868327 
L 126.98091 294.79944 
L 127.179718 294.472413 
L 127.245988 294.4075 
L 127.312257 294.517371 
L 127.444797 293.871117 
L 127.577336 294.176522 
L 127.643605 293.764696 
L 127.709875 293.947569 
L 127.776144 294.050923 
L 127.974953 293.396785 
L 128.107492 292.438382 
L 128.173762 293.351517 
L 128.240031 292.927098 
L 128.43884 291.351238 
L 128.505109 292.378558 
L 128.571379 291.579301 
L 128.637648 293.780252 
L 128.770188 280.713082 
L 128.836457 251.28513 
L 128.902727 255.87819 
L 129.101535 287.616924 
L 129.300344 258.776354 
L 129.432883 269.216321 
L 129.631692 284.280026 
L 130.029309 292.629992 
L 130.095579 292.417881 
L 130.161848 291.39945 
L 130.360657 293.027585 
L 130.426926 293.222467 
L 130.493196 292.85851 
L 130.824544 294.24073 
L 130.890813 294.153738 
L 130.957083 294.263423 
L 131.089622 294.64261 
L 131.155892 294.570017 
L 131.222161 294.63314 
L 131.288431 294.666125 
L 131.619778 295.17939 
L 131.884857 294.560842 
L 132.083665 293.364002 
L 132.149935 293.218753 
L 132.216204 291.749727 
L 132.282474 292.022609 
L 132.481283 290.949434 
L 132.547552 286.938227 
L 132.680091 293.505359 
L 132.746361 291.56357 
L 132.81263 291.906469 
L 132.8789 293.370168 
L 133.077709 284.824129 
L 133.210248 283.68592 
L 133.342787 275.244213 
L 133.541596 286.296535 
L 133.740404 292.674014 
L 133.872943 293.468962 
L 134.005482 294.086694 
L 134.071752 294.19518 
L 134.4031 295.31424 
L 134.535639 295.194736 
L 134.601908 295.314456 
L 134.668178 295.271435 
L 135.065795 295.463965 
L 135.264604 295.410911 
L 135.529682 295.339997 
L 135.662221 295.302257 
L 135.927299 295.387839 
L 136.059839 295.138959 
L 136.126108 295.259835 
L 136.324917 286.541145 
L 136.457456 294.624961 
L 136.523725 294.50581 
L 136.722534 291.011595 
L 136.855073 279.917351 
L 136.921343 284.636161 
L 137.31896 293.018549 
L 137.451499 293.241029 
L 137.517769 293.098298 
L 137.650308 294.348256 
L 137.716577 294.203663 
L 137.782847 293.943347 
L 137.849117 294.020233 
L 137.981656 294.728426 
L 138.047925 294.526054 
L 138.114195 294.8714 
L 138.180464 294.824682 
L 138.379273 294.383018 
L 138.644351 294.782022 
L 138.909429 294.458909 
L 138.975699 294.200558 
L 139.041968 294.915344 
L 139.108238 294.648436 
L 139.174508 294.873249 
L 139.240777 294.707188 
L 139.373316 294.698516 
L 139.439586 294.866804 
L 139.638394 294.485028 
L 139.704664 294.54354 
L 139.969742 293.954587 
L 140.168551 295.029434 
L 140.30109 294.183973 
L 140.36736 294.49971 
L 140.433629 294.969629 
L 140.499899 294.45388 
L 140.566168 292.938922 
L 140.632438 294.666293 
L 140.698707 292.654509 
L 140.764977 293.536175 
L 140.897516 295.420399 
L 140.963786 295.159754 
L 141.030055 295.178568 
L 141.096325 295.328458 
L 141.162594 294.947191 
L 141.228864 295.116136 
L 141.295133 294.930657 
L 141.361403 295.005449 
L 141.493942 295.132046 
L 141.626481 295.310345 
L 141.692751 294.872675 
L 141.75902 294.908657 
L 141.82529 294.761972 
L 141.891559 294.911093 
L 141.957829 294.68339 
L 142.024098 294.745902 
L 142.090368 295.068889 
L 142.156638 295.044277 
L 142.355446 294.760715 
L 142.487985 294.830303 
L 142.554255 294.888071 
L 142.620524 294.696725 
L 142.686794 294.732008 
L 142.885603 294.849774 
L 143.018142 294.81841 
L 143.084411 294.287232 
L 143.150681 294.643596 
L 143.34949 294.649484 
L 143.482029 293.83103 
L 143.747107 294.956776 
L 143.813376 294.860669 
L 143.879646 294.457077 
L 143.945915 294.587493 
L 144.078455 294.688405 
L 144.144724 294.514167 
L 144.210994 295.053889 
L 144.277263 294.531288 
L 144.542341 269.006218 
L 144.80742 291.070448 
L 144.873689 291.627834 
L 145.006228 293.807911 
L 145.138767 294.253307 
L 145.337576 294.913906 
L 145.602654 295.198933 
L 145.668924 295.154815 
L 145.867733 295.395266 
L 146.26535 295.185143 
L 146.795506 294.811977 
L 146.928045 294.673654 
L 146.994315 294.817487 
L 147.060585 294.705416 
L 147.126854 294.743462 
L 147.391932 293.744594 
L 147.524471 294.431169 
L 147.590741 294.467188 
L 147.78955 294.151321 
L 147.922089 293.4755 
L 147.988358 293.495975 
L 148.120897 292.897477 
L 148.187167 290.424354 
L 148.253437 280.926939 
L 148.319706 291.779147 
L 148.452245 270.979644 
L 148.651054 287.079153 
L 148.916132 292.64537 
L 148.982402 292.585703 
L 149.313749 294.486219 
L 149.380019 294.16601 
L 149.645097 294.963457 
L 149.711367 294.921274 
L 150.042714 295.18637 
L 150.108984 295.312383 
L 150.175254 295.268703 
L 150.374062 295.402117 
L 150.506601 295.382886 
L 150.63914 295.262032 
L 150.77168 294.856175 
L 150.837949 294.274482 
L 150.904219 294.751792 
L 151.169297 291.736098 
L 151.500645 295.285423 
L 151.633184 295.230779 
L 151.831992 294.417906 
L 152.030801 292.597867 
L 152.295879 267.380531 
L 152.627227 289.928812 
L 152.759766 292.381079 
L 152.826036 292.218403 
L 152.892305 292.264225 
L 152.958575 292.469783 
L 153.157384 293.655132 
L 153.289923 294.083115 
L 153.356192 293.77695 
L 153.555001 294.552235 
L 153.62127 294.381974 
L 153.753809 294.178632 
L 153.886349 294.520228 
L 153.952618 294.389447 
L 154.085157 294.719074 
L 154.151427 294.491306 
L 154.217696 294.625077 
L 154.350235 294.677051 
L 154.416505 294.569414 
L 154.549044 295.061324 
L 154.681583 294.677282 
L 154.814122 294.801704 
L 154.946661 294.577931 
L 155.012931 294.788143 
L 155.079201 294.63226 
L 155.21174 294.959895 
L 155.278009 294.346053 
L 155.344279 294.496967 
L 155.410548 294.57077 
L 155.609357 295.088539 
L 155.675627 294.796187 
L 155.741896 295.110026 
L 155.808166 294.990291 
L 155.874435 294.736112 
L 156.006974 291.722809 
L 156.073244 293.095516 
L 156.139513 291.442449 
L 156.205783 291.826645 
L 156.6034 293.219507 
L 156.66967 294.477236 
L 156.735939 293.979383 
L 156.802209 294.364159 
L 156.868479 294.316977 
L 156.934748 294.055383 
L 157.001018 294.089234 
L 157.199826 294.671936 
L 157.266096 294.613525 
L 157.398635 294.758196 
L 157.464905 294.537271 
L 157.531174 294.629105 
L 157.597444 294.761149 
L 157.729983 294.578665 
L 157.862522 294.823191 
L 157.928791 294.673608 
L 157.995061 294.781821 
L 158.1276 294.743002 
L 158.19387 295.124006 
L 158.260139 294.707158 
L 158.326409 293.457848 
L 158.392678 295.168254 
L 158.458948 294.285566 
L 158.591487 292.885749 
L 158.657756 292.985886 
L 158.724026 292.980238 
L 159.055374 294.108182 
L 159.254182 293.941391 
L 159.320452 294.60892 
L 159.386722 293.519945 
L 159.452991 294.226044 
L 159.519261 293.594111 
L 159.6518 294.388023 
L 159.850608 293.39905 
L 160.115687 281.175649 
L 160.314495 291.307433 
L 160.513304 294.282586 
L 160.579574 294.367917 
L 160.778382 295.115537 
L 160.910921 295.127387 
L 161.374808 295.310065 
L 161.639886 295.141159 
L 161.904965 295.047507 
L 161.971234 294.96927 
L 162.037504 294.719026 
L 162.103773 295.256501 
L 162.170043 294.936818 
L 162.236312 295.274485 
L 162.368852 294.759367 
L 162.435121 294.843338 
L 162.501391 294.786346 
L 162.56766 294.686849 
L 162.63393 294.27145 
L 162.700199 294.357936 
L 162.766469 294.473716 
L 162.832738 294.075316 
L 162.899008 294.552464 
L 162.965278 294.499901 
L 163.097817 294.081405 
L 163.164086 294.67049 
L 163.230356 294.514957 
L 163.429164 294.16745 
L 163.495434 294.337988 
L 163.561704 294.031663 
L 163.694243 290.662824 
L 163.760512 291.607781 
L 163.826782 282.916739 
L 163.893051 286.808427 
L 163.959321 285.103867 
L 164.02559 275.90533 
L 164.09186 276.260235 
L 164.290669 289.852376 
L 164.356938 291.5838 
L 164.423208 291.549051 
L 164.489477 291.925493 
L 164.622016 293.188759 
L 164.688286 293.270156 
L 164.887095 294.504782 
L 164.953364 294.307997 
L 165.019634 294.375875 
L 165.284712 294.89844 
L 165.682329 295.206804 
L 165.748599 294.95593 
L 165.814868 295.419431 
L 165.881138 295.363586 
L 166.013677 294.444342 
L 166.212486 295.074477 
L 166.345025 295.19378 
L 166.543833 295.146189 
L 166.610103 294.925362 
L 166.676373 295.078416 
L 166.808912 295.046872 
L 167.272799 294.398494 
L 167.339068 294.514043 
L 167.405338 294.034443 
L 167.471607 294.232963 
L 167.537877 294.292748 
L 167.604146 293.720938 
L 167.802955 286.723941 
L 167.869225 285.784256 
L 168.001764 271.435826 
L 168.333111 290.999307 
L 168.399381 290.407587 
L 168.730729 293.368004 
L 169.128346 293.60078 
L 169.260885 294.72388 
L 169.327155 294.368814 
L 169.525963 294.04858 
L 169.592233 294.292694 
L 169.658502 294.147469 
L 169.724772 293.709807 
L 169.791042 293.91734 
L 169.98985 295.162711 
L 170.05612 295.152458 
L 170.188659 294.909113 
L 170.321198 295.120363 
L 170.387468 294.897487 
L 170.453737 294.970255 
L 170.917624 295.186795 
L 171.116433 295.073124 
L 171.248972 295.256286 
L 171.44778 295.306134 
L 171.58032 294.582337 
L 171.646589 295.449664 
L 171.779128 290.307412 
L 171.845398 293.379268 
L 172.044206 287.426702 
L 172.243015 291.502523 
L 172.508093 293.841379 
L 172.574363 293.726413 
L 172.773172 293.929901 
L 172.905711 294.444005 
L 173.104519 294.032706 
L 173.303328 294.650657 
L 173.435867 294.731573 
L 173.700945 294.348901 
L 173.833484 294.829747 
L 173.899754 294.60666 
L 174.032293 294.686062 
L 174.164832 294.918876 
L 174.297371 294.472707 
L 174.363641 294.614156 
L 174.42991 294.262488 
L 174.49618 294.617421 
L 174.562449 294.444774 
L 174.761258 294.743064 
L 175.158875 294.555303 
L 175.225145 294.421567 
L 175.291415 294.787099 
L 175.357684 294.70827 
L 175.622762 293.612342 
L 175.689032 294.730727 
L 175.755301 292.972601 
L 175.821571 294.7118 
L 175.95411 290.43914 
L 176.152919 293.275498 
L 176.351727 295.377155 
L 176.417997 295.330216 
L 176.484267 295.200055 
L 176.550536 295.244089 
L 176.616806 295.234035 
L 176.815614 294.945024 
L 176.948153 295.114415 
L 177.014423 294.763618 
L 177.080693 295.363132 
L 177.345771 293.953303 
L 177.677119 295.291039 
L 177.743388 295.187041 
L 177.809658 295.336098 
L 177.875927 295.056196 
L 177.942197 295.177235 
L 178.141005 294.885624 
L 178.207275 295.008638 
L 178.273545 294.956816 
L 178.339814 294.53709 
L 178.406084 294.794634 
L 178.472353 294.726457 
L 178.671162 294.973096 
L 178.86997 294.639559 
L 178.93624 294.677264 
L 179.00251 294.725361 
L 179.135049 294.497833 
L 179.201318 294.057824 
L 179.333857 294.41927 
L 179.466396 294.172145 
L 179.665205 293.497507 
L 179.731475 293.30259 
L 179.797744 285.131565 
L 179.864014 289.625345 
L 179.996553 278.954843 
L 180.062822 282.85885 
L 180.261631 289.871943 
L 180.46044 293.88154 
L 180.526709 293.686121 
L 180.659248 294.512215 
L 180.725518 294.277558 
L 180.791788 294.400665 
L 180.990596 295.325465 
L 181.123135 294.772662 
L 181.321944 295.175492 
L 181.587022 295.223685 
L 181.785831 295.40824 
L 182.183448 295.197245 
L 182.382257 295.046189 
L 182.448526 295.203082 
L 182.514796 295.080206 
L 182.713605 295.008607 
L 182.846144 294.692357 
L 182.912413 294.793464 
L 183.044952 294.45601 
L 183.111222 294.530874 
L 183.508839 293.793357 
L 183.575109 294.080391 
L 183.641378 293.702743 
L 183.707648 294.083186 
L 183.773917 289.726842 
L 183.840187 294.414593 
L 183.972726 278.651598 
L 184.038996 279.815069 
L 184.105265 280.49977 
L 184.436613 291.10851 
L 184.635422 292.932895 
L 184.701691 292.261422 
L 184.767961 292.332744 
L 184.83423 293.569676 
L 184.9005 293.056832 
L 184.966769 293.209356 
L 185.231848 294.926192 
L 185.298117 294.93434 
L 185.430656 294.643136 
L 185.496926 294.769739 
L 185.563195 294.54746 
L 185.762004 295.144271 
L 185.828274 295.06689 
L 185.894543 295.063418 
L 186.159621 294.693468 
L 186.225891 294.753089 
L 186.292161 295.196101 
L 186.35843 295.057307 
L 186.557239 294.786299 
L 186.888587 295.454261 
L 187.021126 295.361592 
L 187.153665 294.945855 
L 187.219934 295.091691 
L 187.286204 294.698624 
L 187.485013 295.180544 
L 187.551282 295.102282 
L 187.617552 295.170377 
L 187.750091 293.729327 
L 187.81636 293.842121 
L 187.948899 284.630269 
L 188.015169 291.934102 
L 188.081439 288.082924 
L 188.213978 284.850035 
L 188.545325 292.08874 
L 188.611595 292.043477 
L 188.744134 293.700312 
L 188.942943 292.361019 
L 189.141751 293.840528 
L 189.34056 292.656734 
L 189.539369 294.200837 
L 189.671908 293.576037 
L 189.804447 293.893925 
L 189.870716 294.366156 
L 189.936986 294.035568 
L 190.003256 294.257474 
L 190.069525 294.102676 
L 190.135795 293.639697 
L 190.202064 293.896737 
L 190.400873 294.594635 
L 190.467142 294.607685 
L 190.599682 293.801739 
L 190.665951 294.00309 
L 190.732221 294.380817 
L 190.79849 294.284524 
L 190.931029 294.091465 
L 190.997299 294.184762 
L 191.129838 294.423285 
L 191.196108 294.225255 
L 191.328647 294.874048 
L 191.593725 294.375547 
L 191.792534 294.774755 
L 191.858803 294.63797 
L 191.925073 294.814976 
L 191.991342 294.281094 
L 192.123881 294.913124 
L 192.190151 294.514195 
L 192.32269 292.857885 
L 192.521499 294.305828 
L 192.654038 292.251998 
L 192.720307 293.244731 
L 192.786577 293.129724 
L 192.852846 293.098888 
L 193.184194 295.022643 
L 193.383003 294.45897 
L 193.449272 294.402535 
L 193.581812 295.042432 
L 193.648081 294.809484 
L 193.78062 294.585492 
L 193.913159 295.082237 
L 193.979429 295.016676 
L 194.045698 294.946934 
L 194.244507 295.206786 
L 194.377046 295.255662 
L 194.575855 295.017911 
L 194.907203 294.745502 
L 194.973472 294.542399 
L 195.172281 295.169113 
L 195.30482 295.009481 
L 195.371089 294.697352 
L 195.437359 294.76594 
L 195.636168 295.172515 
L 195.702437 294.818869 
L 195.768707 294.93444 
L 195.834976 294.918784 
L 195.901246 295.032201 
L 196.298863 292.652807 
L 196.431402 288.243137 
L 196.497672 288.852381 
L 196.696481 293.261723 
L 196.895289 294.741731 
L 196.961559 294.550414 
L 197.027828 294.620052 
L 197.160367 294.742003 
L 197.226637 294.629226 
L 197.425446 294.852697 
L 197.823063 295.240941 
L 198.684567 295.23248 
L 198.817106 295.02856 
L 198.883376 295.329135 
L 198.949645 295.299391 
L 199.280993 295.086769 
L 199.347263 294.964796 
L 199.413532 295.034489 
L 199.479802 295.049726 
L 199.546071 294.918936 
L 199.612341 295.016534 
L 199.74488 295.288644 
L 199.943689 294.585889 
L 200.009958 294.78439 
L 200.076228 294.323551 
L 200.142497 294.893613 
L 200.208767 294.22435 
L 200.275036 294.900608 
L 200.473845 290.102722 
L 200.540115 293.909421 
L 200.606384 292.35114 
L 200.672654 290.240189 
L 200.738923 291.151093 
L 200.937732 293.121363 
L 201.401619 294.817646 
L 201.467888 294.701887 
L 201.666697 294.847508 
L 201.865506 295.129332 
L 201.931775 295.030582 
L 201.998045 295.126014 
L 202.395662 295.298385 
L 203.389706 295.32323 
L 203.455975 295.282692 
L 203.522245 295.448694 
L 203.588514 295.397841 
L 203.919862 295.374008 
L 203.986131 295.454573 
L 204.052401 295.145846 
L 204.118671 294.272012 
L 204.18494 294.312641 
L 204.317479 295.094744 
L 204.383749 294.367134 
L 204.450018 292.359009 
L 204.516288 292.635601 
L 204.582557 292.495843 
L 204.648827 293.936264 
L 204.847636 284.328292 
L 205.377792 294.189637 
L 205.444062 294.068605 
L 205.510331 294.264948 
L 205.576601 294.108511 
L 205.70914 294.408136 
L 205.775409 294.269345 
L 205.974218 294.564057 
L 206.239296 294.764356 
L 206.305566 294.766535 
L 206.371835 294.64423 
L 206.438105 294.926592 
L 206.504375 294.859443 
L 206.570644 294.815955 
L 206.769453 294.924783 
L 206.901992 295.127619 
L 207.034531 294.792354 
L 207.100801 294.93096 
L 207.16707 295.231239 
L 207.23334 294.967957 
L 207.299609 295.196423 
L 207.432148 294.766018 
L 207.498418 295.399802 
L 207.564687 295.208857 
L 207.630957 295.308923 
L 207.763496 294.787389 
L 207.896035 294.622092 
L 208.161113 295.072108 
L 208.492461 295.230458 
L 208.558731 294.854274 
L 208.625 295.119679 
L 208.823809 293.345225 
L 208.890078 293.603926 
L 208.956348 294.909158 
L 209.088887 292.895663 
L 209.221426 292.981078 
L 209.420235 293.980735 
L 209.486504 293.532969 
L 209.619044 294.125724 
L 209.685313 293.853806 
L 209.884122 294.71159 
L 210.016661 294.571798 
L 210.08293 294.353145 
L 210.21547 294.962855 
L 210.281739 294.706829 
L 210.348009 294.877044 
L 210.546817 294.639207 
L 210.878165 294.970128 
L 211.010704 294.672173 
L 211.076974 294.925129 
L 211.143243 294.80393 
L 211.209513 294.539323 
L 211.275782 294.616231 
L 211.408322 294.853174 
L 211.540861 294.455936 
L 211.60713 294.845032 
L 211.6734 294.763043 
L 211.739669 294.725105 
L 211.938478 295.102481 
L 212.004748 294.888798 
L 212.137287 295.318027 
L 212.336095 294.799288 
L 212.402365 294.889383 
L 212.601174 294.867604 
L 212.667443 294.754139 
L 212.733713 294.979817 
L 213.06506 293.789414 
L 213.13133 295.006613 
L 213.330139 292.431106 
L 213.396408 292.596811 
L 213.661486 295.029125 
L 213.727756 295.281841 
L 213.794025 295.240167 
L 214.059104 295.134031 
L 214.191643 295.42477 
L 214.324182 295.329275 
L 214.522991 295.196365 
L 214.788069 294.867166 
L 215.119417 294.936788 
L 215.185686 294.875921 
L 215.251956 295.101294 
L 215.318225 294.940076 
L 215.914651 295.053767 
L 215.980921 294.873163 
L 216.04719 294.914857 
L 216.179729 295.05769 
L 216.312269 294.931596 
L 216.444808 295.07561 
L 216.577347 294.682227 
L 216.643616 294.837652 
L 216.842425 294.635623 
L 216.908695 294.897136 
L 216.974964 294.389558 
L 217.041234 294.399442 
L 217.240042 294.232897 
L 217.306312 294.711742 
L 217.57139 288.774782 
L 217.63766 289.575471 
L 217.703929 288.483749 
L 217.969007 293.407553 
L 218.300355 294.956029 
L 218.366625 294.916738 
L 218.565433 294.871336 
L 218.764242 295.28373 
L 218.896781 295.039735 
L 219.09559 295.443693 
L 219.294398 295.057879 
L 219.559477 295.267506 
L 219.692016 295.474115 
L 219.758285 295.431016 
L 221.149946 294.867637 
L 221.348755 294.339168 
L 221.415024 294.700537 
L 221.481294 294.199595 
L 221.547563 294.489418 
L 221.613833 294.202797 
L 221.945181 286.622173 
L 222.01145 289.978928 
L 222.07772 289.332126 
L 222.674146 293.967545 
L 223.071763 294.948909 
L 223.270572 294.133665 
L 223.403111 294.062606 
L 223.53565 294.856369 
L 223.668189 294.781728 
L 223.734459 294.761903 
L 223.800728 295.087484 
L 223.866998 294.924827 
L 223.999537 295.145468 
L 224.065806 295.099842 
L 224.198345 295.091815 
L 224.861041 295.441397 
L 225.05985 295.2143 
L 225.258658 295.262484 
L 225.457467 295.467253 
L 225.722545 295.392107 
L 225.921354 294.892677 
L 225.987623 295.15959 
L 226.120163 293.498682 
L 226.186432 293.609334 
L 226.252702 294.523067 
L 226.385241 290.931124 
L 226.51778 291.264594 
L 226.849128 294.197144 
L 226.915397 294.25557 
L 227.047936 293.953137 
L 227.180475 294.746561 
L 227.246745 294.049946 
L 227.313015 294.351617 
L 227.379284 294.103774 
L 227.644362 294.761453 
L 227.710632 294.885813 
L 227.776901 294.818495 
L 227.97571 294.643559 
L 228.108249 294.932198 
L 228.174519 294.886533 
L 228.240788 294.826067 
L 228.307058 294.92878 
L 228.439597 294.650615 
L 228.638406 295.036089 
L 229.036023 295.001276 
L 229.102292 294.860454 
L 229.234832 295.279705 
L 229.566179 294.988477 
L 229.632449 295.030394 
L 229.698718 294.882883 
L 229.764988 294.966231 
L 229.963797 294.957988 
L 230.030066 294.486362 
L 230.162605 295.179167 
L 230.228875 295.033836 
L 230.295144 294.999815 
L 230.361414 295.160361 
L 230.493953 293.860579 
L 230.560223 294.012129 
L 230.692762 295.402465 
L 230.95784 294.80933 
L 231.02411 295.057768 
L 231.090379 294.98917 
L 231.156649 295.007526 
L 231.289188 294.802106 
L 231.487996 294.968098 
L 231.554266 294.865403 
L 231.753075 295.043613 
L 231.885614 295.023075 
L 232.084422 295.118118 
L 232.283231 294.987992 
L 232.349501 294.839934 
L 232.41577 294.903898 
L 232.614579 294.894595 
L 232.680848 294.871072 
L 232.813388 295.087162 
L 233.078466 294.833885 
L 233.211005 295.010183 
L 233.343544 294.985693 
L 233.674892 295.043258 
L 233.8737 294.868345 
L 234.205048 294.548871 
L 234.337587 294.876939 
L 234.403857 294.69258 
L 234.470126 294.962054 
L 234.536396 294.76212 
L 234.668935 294.975515 
L 234.735205 294.833569 
L 234.934013 291.44982 
L 235.000283 292.682914 
L 235.066552 292.359702 
L 235.265361 289.843692 
L 235.530439 294.31402 
L 235.596709 294.39617 
L 235.861787 295.041363 
L 235.994326 295.116009 
L 236.126865 295.138483 
L 236.193135 295.247163 
L 236.325674 295.140421 
L 236.590752 295.363905 
L 236.988369 295.295454 
L 237.452256 295.145196 
L 237.916143 295.058953 
L 238.048682 294.782303 
L 238.313761 295.067451 
L 238.38003 294.73625 
L 238.4463 294.91704 
L 238.645108 294.49987 
L 238.711378 294.76456 
L 238.777647 294.584676 
L 239.042726 294.305165 
L 239.108995 294.5257 
L 239.307804 293.116836 
L 239.572882 288.425825 
L 239.639152 288.623702 
L 239.705421 286.7104 
L 239.90423 291.929081 
L 240.036769 293.525052 
L 240.169308 293.195743 
L 240.368117 294.029315 
L 240.699464 294.72885 
L 240.898273 294.450951 
L 240.964543 294.549062 
L 241.030812 294.84965 
L 241.097082 294.744283 
L 241.42843 295.12439 
L 241.494699 295.140491 
L 241.627238 294.924149 
L 241.826047 295.209526 
L 241.892316 295.057032 
L 241.958586 295.3102 
L 242.091125 294.720342 
L 242.223664 295.319912 
L 242.289934 293.978867 
L 242.356203 294.086878 
L 242.422473 295.396472 
L 242.621282 293.141521 
L 242.82009 293.871171 
L 243.085168 294.483034 
L 243.350247 295.070223 
L 243.482786 294.863082 
L 243.549055 294.916676 
L 243.747864 294.777821 
L 243.814133 294.870248 
L 244.012942 291.804102 
L 244.145481 293.65722 
L 244.34429 291.042522 
L 244.476829 291.325219 
L 244.675638 293.387052 
L 244.741907 293.53709 
L 244.808177 293.265908 
L 244.874446 294.075093 
L 244.940716 293.93257 
L 245.006985 293.96497 
L 245.139525 294.403432 
L 245.205794 294.071994 
L 245.272064 294.182987 
L 245.338333 294.483632 
L 245.404603 294.426272 
L 245.603411 294.536934 
L 245.669681 294.869109 
L 245.735951 294.576667 
L 245.80222 294.603874 
L 245.934759 294.744425 
L 246.001029 294.73828 
L 246.133568 295.128058 
L 246.266107 294.688593 
L 246.332377 294.769539 
L 246.464916 294.903757 
L 246.531185 294.837998 
L 246.796263 295.394786 
L 247.127611 294.51244 
L 247.193881 294.616865 
L 247.392689 295.108582 
L 247.525229 294.771729 
L 247.591498 294.945242 
L 247.724037 295.26971 
L 247.790307 295.218114 
L 247.856576 295.330281 
L 248.055385 294.987517 
L 248.121655 295.055219 
L 248.187924 295.296848 
L 248.320463 294.868501 
L 248.386733 294.878975 
L 248.519272 294.610766 
L 248.585541 294.764318 
L 248.916889 293.844444 
L 248.983159 294.428352 
L 249.049428 294.39078 
L 249.248237 294.635408 
L 249.447046 294.235321 
L 249.513315 294.603714 
L 249.579585 294.407621 
L 249.712124 294.148447 
L 249.778393 294.536165 
L 249.844663 294.024049 
L 250.043472 294.657831 
L 250.109741 293.317552 
L 250.176011 294.049076 
L 250.24228 294.297494 
L 250.30855 292.49736 
L 250.374819 292.969276 
L 250.706167 294.910346 
L 250.838706 295.136604 
L 250.971245 295.075809 
L 251.170054 295.326488 
L 251.236324 295.306808 
L 251.501402 294.649125 
L 251.567671 294.679267 
L 252.097828 295.017486 
L 252.164097 294.995053 
L 252.296636 295.067533 
L 252.429176 295.013335 
L 252.561715 295.118253 
L 252.893062 294.998767 
L 252.959332 295.107106 
L 253.158141 294.763849 
L 253.29068 293.993297 
L 253.423219 294.197544 
L 253.489488 294.122845 
L 253.688297 294.757545 
L 253.754567 294.492873 
L 253.887106 295.01393 
L 253.953375 294.889616 
L 254.019645 294.953143 
L 254.284723 295.262973 
L 254.549801 295.205952 
L 254.68234 295.197955 
L 254.814879 295.325418 
L 255.013688 295.293566 
L 255.610114 295.36687 
L 255.941462 295.433677 
L 256.20654 295.414919 
L 257.001775 295.299401 
L 257.134314 295.247464 
L 257.399392 295.06036 
L 257.465662 295.209572 
L 257.66447 293.80833 
L 257.73074 293.835343 
L 257.995818 294.55735 
L 258.128357 294.084859 
L 258.260896 294.926683 
L 258.327166 294.850916 
L 258.393435 294.632015 
L 258.658514 295.021496 
L 259.18867 295.239745 
L 259.321209 295.315138 
L 259.520018 295.371224 
L 259.785096 295.376632 
L 259.983905 295.45293 
L 260.71287 295.400483 
L 260.977948 295.297171 
L 261.243026 295.249783 
L 261.309296 295.426999 
L 261.375565 295.370399 
L 261.773183 294.999762 
L 261.905722 294.968857 
L 262.038261 294.3808 
L 262.1708 294.519927 
L 262.303339 293.416497 
L 262.369609 294.096112 
L 262.435878 293.703883 
L 262.634687 291.755641 
L 262.700956 291.75657 
L 262.767226 292.024936 
L 263.032304 294.064979 
L 263.098574 293.935212 
L 263.164843 294.337879 
L 263.231113 294.004998 
L 263.297382 294.036147 
L 263.496191 294.647083 
L 263.827539 294.956284 
L 263.960078 294.892743 
L 264.291426 295.120223 
L 264.357695 294.977972 
L 264.423965 295.097864 
L 264.490234 295.027067 
L 264.556504 295.093274 
L 264.622773 295.179531 
L 264.689043 295.111285 
L 264.755313 295.060813 
L 264.887852 295.167749 
L 265.08666 295.139287 
L 265.285469 295.110254 
L 265.484278 295.3569 
L 265.749356 295.313802 
L 265.815625 295.328694 
L 265.948165 294.994342 
L 266.014434 295.149056 
L 266.080704 295.224974 
L 266.213243 295.003918 
L 266.478321 295.24901 
L 266.544591 295.229857 
L 266.67713 295.354982 
L 266.743399 295.227646 
L 266.809669 295.349221 
L 266.942208 294.397201 
L 267.008477 294.418081 
L 267.141017 294.82819 
L 267.207286 294.628402 
L 267.339825 293.607756 
L 267.406095 293.727549 
L 267.472364 294.187843 
L 267.538634 294.121199 
L 267.604903 294.20572 
L 267.803712 294.802084 
L 267.869982 294.303891 
L 267.936251 294.625504 
L 268.06879 294.980331 
L 268.400138 294.949213 
L 268.598947 295.021101 
L 268.797755 295.081943 
L 268.996564 295.2241 
L 269.261642 295.094528 
L 269.327912 295.256205 
L 269.394181 295.193984 
L 269.858068 295.243323 
L 269.990607 295.411974 
L 270.056877 295.207167 
L 270.123146 295.076599 
L 270.189416 295.18558 
L 270.255686 295.416328 
L 270.520764 294.810911 
L 270.587033 294.646917 
L 270.785842 295.175245 
L 270.918381 294.930398 
L 270.984651 294.975226 
L 271.05092 295.172048 
L 271.11719 295.103688 
L 271.183459 294.971626 
L 271.249729 295.035219 
L 271.315998 295.042925 
L 271.382268 295.210734 
L 271.448538 295.170272 
L 271.514807 295.141491 
L 271.647346 294.858478 
L 271.713616 294.988061 
L 271.846155 294.158875 
L 271.978694 294.758603 
L 272.044964 294.640854 
L 272.243772 294.991781 
L 272.64139 295.454013 
L 273.237816 295.184516 
L 273.569163 295.214678 
L 273.635433 294.996566 
L 273.701702 295.09098 
L 273.767972 295.408956 
L 273.834241 295.330026 
L 273.966781 294.815102 
L 274.03305 295.171677 
L 274.09932 294.966821 
L 274.165589 294.702007 
L 274.231859 294.723484 
L 274.563207 295.391768 
L 274.695746 295.284939 
L 275.159633 295.162005 
L 275.424711 295.09803 
L 275.689789 294.856482 
L 276.021137 295.080127 
L 276.153676 294.590829 
L 276.219945 294.920211 
L 276.286215 294.705777 
L 276.485024 293.185412 
L 276.617563 294.254285 
L 276.683832 294.155149 
L 276.882641 292.951738 
L 277.08145 294.233509 
L 277.412797 294.83302 
L 277.479067 295.075539 
L 277.545337 295.028948 
L 277.744145 295.155108 
L 277.876684 295.256694 
L 278.009223 295.261173 
L 278.141763 295.133973 
L 278.406841 295.365979 
L 279.069536 295.332262 
L 279.400884 295.210245 
L 279.599693 295.295126 
L 280.06358 295.096762 
L 280.196119 295.124882 
L 280.262388 295.218354 
L 280.394927 294.877186 
L 280.461197 294.898963 
L 280.792545 295.02422 
L 281.190162 294.419586 
L 281.45524 291.86636 
L 281.52151 292.888637 
L 281.587779 290.911051 
L 281.654049 291.032428 
L 281.919127 293.711798 
L 282.184205 294.433287 
L 282.383014 294.625636 
L 282.515553 294.647872 
L 282.648092 294.703713 
L 282.714362 295.131495 
L 282.780631 295.050275 
L 282.846901 295.181746 
L 282.97944 295.030383 
L 283.244518 295.19748 
L 283.443327 295.231018 
L 283.774675 295.360528 
L 284.50364 295.234557 
L 284.834987 295.456849 
L 285.100066 295.429758 
L 285.365144 295.359462 
L 285.696492 295.398303 
L 286.160379 293.888981 
L 286.292918 295.115834 
L 286.491726 292.961596 
L 287.021883 294.477499 
L 287.088152 294.519516 
L 287.154422 294.707589 
L 287.220691 294.663504 
L 287.552039 295.039771 
L 287.684578 294.869489 
L 288.015926 294.92473 
L 288.082196 295.127224 
L 288.148465 295.061 
L 288.413543 295.038793 
L 288.744891 295.250838 
L 288.9437 295.070033 
L 289.341317 294.930848 
L 289.407587 295.150183 
L 289.473856 295.055827 
L 289.606395 295.030463 
L 289.805204 295.218034 
L 290.070282 295.141241 
L 290.202821 295.154842 
L 290.33536 295.156998 
L 290.666708 295.35091 
L 290.799247 295.174097 
L 290.865517 295.315874 
L 290.998056 295.144433 
L 291.064326 295.204105 
L 291.263134 294.834233 
L 291.461943 295.064722 
L 291.594482 294.749513 
L 291.660752 294.954633 
L 291.85956 295.068248 
L 291.992099 294.921508 
L 292.124638 295.121848 
L 292.389717 295.120842 
L 292.455986 294.997548 
L 292.522256 295.075574 
L 292.588525 295.082234 
L 292.721064 294.941733 
L 292.919873 295.001449 
L 293.118682 295.151747 
L 293.516299 295.299545 
L 293.781377 294.887349 
L 293.913916 294.972769 
L 294.112725 294.683377 
L 294.178995 294.751022 
L 294.245264 294.947153 
L 294.377803 294.69335 
L 294.444073 294.735826 
L 294.576612 295.164269 
L 294.84169 295.04465 
L 295.040499 295.099623 
L 295.239307 294.749267 
L 295.305577 294.834204 
L 295.438116 294.753907 
L 295.504386 294.858236 
L 295.636925 294.777983 
L 295.769464 294.746695 
L 295.968273 294.267688 
L 296.034542 294.417424 
L 296.100812 294.21585 
L 296.233351 293.611245 
L 296.29962 293.806765 
L 296.36589 293.650042 
L 296.432159 293.82937 
L 296.564699 294.551958 
L 296.697238 294.788973 
L 297.227394 295.454024 
L 297.492472 295.341251 
L 297.691281 295.21368 
L 298.022629 295.311506 
L 298.155168 295.193888 
L 298.353977 295.27534 
L 298.751594 295.225901 
L 298.950402 295.295218 
L 299.34802 294.938097 
L 299.546828 295.02068 
L 299.679368 295.016296 
L 300.076985 294.708844 
L 300.209524 294.824645 
L 300.275794 294.92886 
L 300.342063 294.811167 
L 300.408333 294.98376 
L 300.607141 293.866603 
L 300.673411 294.044984 
L 300.73968 293.877319 
L 301.071028 290.664671 
L 301.137298 290.903556 
L 301.269837 292.945053 
L 301.402376 293.143597 
L 301.601185 293.424407 
L 301.799993 294.243458 
L 301.866263 294.913632 
L 301.932532 294.17331 
L 301.998802 294.349256 
L 302.197611 294.819354 
L 302.528958 295.383142 
L 302.595228 295.209182 
L 302.794037 294.415623 
L 302.860306 294.469489 
L 303.059115 294.942478 
L 303.125384 295.040738 
L 303.191654 294.969081 
L 303.986889 295.17319 
L 304.053158 295.161818 
L 304.251967 295.361706 
L 304.782123 295.418284 
L 305.047201 295.438478 
L 305.511088 295.142589 
L 305.842436 293.990554 
L 305.908706 294.049 
L 305.974975 293.253645 
L 306.041245 293.600407 
L 306.107514 294.191583 
L 306.372593 292.190328 
L 306.438862 293.104578 
L 306.505132 293.066336 
L 306.571401 293.208866 
L 306.70394 293.740361 
L 306.77021 293.811239 
L 306.902749 294.392999 
L 306.969019 294.263824 
L 307.035288 294.301338 
L 307.234097 294.280668 
L 307.300366 294.640568 
L 307.366636 294.549919 
L 307.432905 294.477025 
L 307.565445 294.708444 
L 307.697984 294.557882 
L 307.896792 294.961191 
L 308.161871 295.124347 
L 308.29441 294.99179 
L 308.559488 294.609713 
L 308.625757 294.864823 
L 308.692027 294.756635 
L 308.824566 294.954019 
L 308.890836 295.085189 
L 309.023375 294.858923 
L 309.222183 295.299566 
L 309.420992 295.271793 
L 309.68607 295.227981 
L 310.017418 295.043301 
L 310.348766 295.375281 
L 310.613844 293.598788 
L 310.746383 294.646344 
L 310.945192 293.4926 
L 311.077731 293.257094 
L 311.21027 293.822736 
L 311.342809 294.864744 
L 311.607887 295.328915 
L 311.674157 295.224882 
L 311.872966 295.04723 
L 312.005505 294.841029 
L 312.204313 294.315494 
L 312.270583 294.643639 
L 312.336852 294.61867 
L 312.6682 295.08009 
L 312.800739 295.030682 
L 312.999548 295.153008 
L 313.198357 295.340457 
L 313.595974 295.241922 
L 313.861052 295.41926 
L 314.059861 295.423754 
L 314.324939 295.39522 
L 314.656287 295.287874 
L 314.722556 295.359873 
L 314.788826 295.252068 
L 314.855095 295.303855 
L 314.987635 295.386912 
L 315.252713 295.253672 
L 315.451521 295.350707 
L 315.915408 295.384215 
L 316.180487 295.109447 
L 316.246756 295.120009 
L 316.445565 294.650166 
L 316.710643 294.851493 
L 316.776913 294.77818 
L 316.975721 295.136983 
L 317.373339 295.361183 
L 317.572147 295.394332 
L 318.234843 295.314251 
L 318.499921 295.371805 
L 318.566191 295.29558 
L 318.63246 295.42788 
L 318.69873 295.324532 
L 318.831269 295.194435 
L 318.897538 294.923402 
L 319.030077 295.292247 
L 319.228886 294.666659 
L 319.560234 295.299212 
L 319.692773 295.433258 
L 320.024121 295.274402 
L 320.222929 295.325029 
L 321.150703 295.06459 
L 321.349512 294.530064 
L 321.415781 294.553639 
L 321.54832 294.498427 
L 321.747129 294.826864 
L 321.813399 294.697503 
L 321.879668 294.865221 
L 321.945938 294.776479 
L 322.012207 294.668476 
L 322.078477 294.736009 
L 322.211016 294.643068 
L 322.476094 295.219365 
L 322.741172 295.273541 
L 323.205059 295.400625 
L 323.668946 295.419735 
L 323.801485 295.456313 
L 323.934024 295.390669 
L 324.265372 295.445508 
L 325.259415 295.305608 
L 325.657033 295.230926 
L 325.789572 295.23798 
L 325.922111 295.141091 
L 325.988381 295.348065 
L 326.05465 295.227159 
L 326.518537 294.807279 
L 326.584807 294.893137 
L 326.651076 294.781011 
L 327.048693 293.221301 
L 327.247502 294.396458 
L 327.380041 294.699701 
L 327.51258 294.539507 
L 327.57885 294.83607 
L 327.645119 294.739068 
L 327.843928 294.925052 
L 328.175276 295.145255 
L 328.374085 295.193255 
L 328.771702 295.313165 
L 328.904241 295.292274 
L 329.03678 295.246637 
L 329.169319 295.274779 
L 329.368128 295.272991 
L 329.500667 295.265243 
L 329.699476 295.315371 
L 329.898284 295.354884 
L 331.687562 295.312578 
L 332.151449 294.895121 
L 332.350258 294.599311 
L 332.482797 294.813855 
L 332.549066 294.727013 
L 332.747875 294.866238 
L 332.946684 295.107016 
L 333.079223 294.664567 
L 333.211762 295.025886 
L 333.278032 294.985925 
L 333.47684 295.176987 
L 334.338344 295.144254 
L 334.404614 295.065157 
L 334.537153 295.311849 
L 334.603423 295.226599 
L 334.669692 295.29969 
L 334.93477 295.199257 
L 335.199849 295.298953 
L 336.45897 295.239378 
L 336.591509 295.290794 
L 336.657779 295.188349 
L 336.790318 295.275678 
L 336.989127 295.236486 
L 337.187935 295.084072 
L 337.386744 295.037307 
L 337.784361 295.420783 
L 337.98317 295.38384 
L 339.838717 295.275228 
L 339.971256 295.239544 
L 340.170065 295.25185 
L 340.236335 295.150161 
L 340.302604 295.203997 
L 340.567682 295.299776 
L 340.700222 295.232016 
L 340.766491 295.1671 
L 340.832761 295.238755 
L 341.031569 295.159599 
L 341.164108 295.209702 
L 341.230378 295.127076 
L 341.296648 295.217858 
L 341.826804 295.097021 
L 341.959343 295.188825 
L 342.158152 294.990104 
L 342.622039 294.743083 
L 342.688308 294.818818 
L 342.953386 294.220361 
L 343.085926 294.627516 
L 343.351004 294.681706 
L 343.483543 295.10328 
L 344.345047 295.416639 
L 345.537899 295.335678 
L 345.670438 295.351327 
L 346.598212 295.184757 
L 346.797021 295.099472 
L 346.995829 295.063267 
L 347.327177 294.980585 
L 347.592255 294.518468 
L 347.724794 294.4038 
L 347.989873 293.154636 
L 348.056142 293.454012 
L 348.122412 293.450675 
L 348.188681 293.806099 
L 348.254951 293.737476 
L 348.32122 293.766874 
L 348.652568 294.694361 
L 348.785107 294.410098 
L 349.050185 295.028849 
L 349.248994 295.138272 
L 349.315264 295.025105 
L 349.381533 295.066396 
L 349.514072 295.151247 
L 349.84542 295.267896 
L 350.044229 295.296117 
L 350.243037 295.382433 
L 350.508116 295.366578 
L 350.839463 295.373611 
L 350.972002 295.450588 
L 351.170811 295.428393 
L 351.435889 295.451495 
L 351.833507 295.391569 
L 352.032315 295.429379 
L 352.363663 295.471175 
L 352.960089 295.279425 
L 353.357706 294.474316 
L 353.423976 295.07296 
L 353.490246 294.854455 
L 353.622785 294.148209 
L 353.689054 294.232334 
L 353.755324 294.498342 
L 353.887863 294.031474 
L 354.086671 294.623618 
L 354.152941 294.306736 
L 354.35175 294.68333 
L 354.484289 294.872093 
L 354.550558 294.740213 
L 354.616828 294.826785 
L 355.080715 295.196051 
L 355.279523 295.19724 
L 355.677141 295.081756 
L 356.008489 295.257353 
L 356.074758 295.170294 
L 356.141028 295.233498 
L 356.406106 295.221336 
L 356.604915 295.266622 
L 356.803723 295.19317 
L 356.869993 295.184283 
L 357.068801 295.430772 
L 357.33388 295.425483 
L 357.598958 294.993323 
L 357.665227 294.880861 
L 357.731497 294.940638 
L 357.996575 295.061037 
L 358.062845 295.023745 
L 358.261653 295.160816 
L 358.659271 295.232701 
L 358.79181 295.127664 
L 358.990618 295.430902 
L 359.056888 295.354455 
L 359.321966 295.183633 
L 359.918392 295.214763 
L 359.984662 295.094871 
L 360.050931 295.148241 
L 360.647357 295.282297 
L 360.978705 295.207919 
L 361.111244 295.253887 
L 361.243783 294.754674 
L 361.310053 294.89827 
L 361.376322 294.795559 
L 361.508862 294.986405 
L 361.575131 294.847381 
L 361.641401 294.904672 
L 361.972748 295.170745 
L 362.171557 295.044893 
L 362.502905 295.114129 
L 362.767983 295.085014 
L 362.966792 294.809476 
L 363.033061 294.792827 
L 363.1656 294.929203 
L 363.23187 294.866804 
L 363.29814 294.954715 
L 363.430679 294.880986 
L 363.563218 294.766794 
L 363.629487 294.844375 
L 363.695757 294.757496 
L 363.828296 294.590887 
L 363.894565 294.61493 
L 364.027105 294.374319 
L 364.292183 294.511225 
L 364.424722 293.929798 
L 364.490991 294.00143 
L 364.822339 294.81931 
L 364.954878 295.067092 
L 365.087417 294.973172 
L 365.219957 295.079534 
L 365.352496 295.134567 
L 365.750113 295.330842 
L 365.816383 295.349837 
L 366.214 294.688308 
L 366.346539 294.749097 
L 366.412809 294.957611 
L 366.479078 294.891679 
L 366.545348 294.681774 
L 366.611617 294.770381 
L 366.744156 294.951763 
L 366.942965 294.938649 
L 367.009235 295.097821 
L 367.075504 295.027046 
L 367.141774 294.876115 
L 367.208043 294.90689 
L 367.340582 295.033835 
L 367.473121 294.832012 
L 367.67193 295.128365 
L 368.268356 295.099569 
L 368.334626 294.962849 
L 368.400895 294.995658 
L 368.732243 295.245389 
L 369.925095 295.464184 
L 370.58779 294.99243 
L 370.786599 295.072072 
L 370.919138 295.062568 
L 371.979451 295.359626 
L 372.973494 295.382156 
L 373.106034 295.355189 
L 373.371112 295.374644 
L 373.63619 295.383826 
L 373.834999 295.400915 
L 374.696503 295.111802 
L 374.961581 295.359838 
L 375.491737 295.206876 
L 375.756816 294.810831 
L 375.889355 294.743137 
L 375.955624 294.592754 
L 376.021894 294.62971 
L 376.220703 294.949678 
L 376.61832 295.139773 
L 376.750859 295.148543 
L 376.817129 295.052491 
L 377.015937 295.304207 
L 377.347285 295.349444 
L 378.275059 295.404671 
L 378.606407 295.420536 
L 379.004024 295.457391 
L 380.329415 295.43866 
L 380.594493 295.434636 
L 380.99211 295.45934 
L 381.389728 295.319469 
L 381.654806 295.256584 
L 382.052423 295.387965 
L 382.317502 295.405457 
L 384.636936 295.368941 
L 384.968284 295.41242 
L 385.100823 295.375199 
L 385.49844 295.433301 
L 386.823831 295.388885 
L 386.890101 295.319408 
L 386.95637 295.387629 
L 387.353988 295.34009 
L 387.552796 295.397651 
L 387.751605 295.348045 
L 388.149222 295.460928 
L 392.788091 295.245149 
L 393.053169 295.228072 
L 393.517056 295.296184 
L 393.715865 295.287826 
L 393.914673 295.386912 
L 394.179752 295.317408 
L 394.511099 295.38054 
L 396.499186 295.309299 
L 396.631725 295.325186 
L 397.42696 295.194033 
L 397.625769 295.086251 
L 397.758308 294.833408 
L 397.824577 294.927063 
L 397.957116 294.868101 
L 398.089655 294.621442 
L 398.222195 294.709219 
L 398.354734 294.199485 
L 398.487273 294.323104 
L 398.487273 294.323104 
" clip-path="url(#pf7ee3367c8)" style="fill: none; stroke: #1f77b4; stroke-width: 1.5; stroke-linecap: square"/>
   </g>
   <g id="patch_3">
    <path d="M 57.6 307.584 
L 57.6 41.472 
" style="fill: none; stroke: #000000; stroke-width: 0.8; stroke-linejoin: miter; stroke-linecap: square"/>
   </g>
   <g id="patch_4">
    <path d="M 414.72 307.584 
L 414.72 41.472 
" style="fill: none; stroke: #000000; stroke-width: 0.8; stroke-linejoin: miter; stroke-linecap: square"/>
   </g>
   <g id="patch_5">
    <path d="M 57.6 307.584 
L 414.72 307.584 
" style="fill: none; stroke: #000000; stroke-width: 0.8; stroke-linejoin: miter; stroke-linecap: square"/>
   </g>
   <g id="patch_6">
    <path d="M 57.6 41.472 
L 414.72 41.472 
" style="fill: none; stroke: #000000; stroke-width: 0.8; stroke-linejoin: miter; stroke-linecap: square"/>
   </g>
   <g id="text_16">
    <text style="font: 12px 'IPAexGothic'; text-anchor: middle" x="236.16" y="35.472" transform="rotate(-0 236.16 35.472)">"026_A1.wav"の振幅スペクトル</text>
   </g>
  </g>
 </g>
 <defs>
  <clipPath id="pf7ee3367c8">
   <rect x="57.6" y="41.472" width="357.12" height="266.112"/>
  </clipPath>
 </defs>
</svg>
