<?xml version="1.0" encoding="utf-8" standalone="no"?>
<!DOCTYPE svg PUBLIC "-//W3C//DTD SVG 1.1//EN"
  "http://www.w3.org/Graphics/SVG/1.1/DTD/svg11.dtd">
<svg xmlns:xlink="http://www.w3.org/1999/xlink" width="460.8pt" height="345.6pt" viewBox="0 0 460.8 345.6" xmlns="http://www.w3.org/2000/svg" version="1.1">
 <metadata>
  <rdf:RDF xmlns:dc="http://purl.org/dc/elements/1.1/" xmlns:cc="http://creativecommons.org/ns#" xmlns:rdf="http://www.w3.org/1999/02/22-rdf-syntax-ns#">
   <cc:Work>
    <dc:type rdf:resource="http://purl.org/dc/dcmitype/StillImage"/>
    <dc:date>2022-11-28T12:41:08.272470</dc:date>
    <dc:format>image/svg+xml</dc:format>
    <dc:creator>
     <cc:Agent>
      <dc:title>Matplotlib v3.6.2, https://matplotlib.org/</dc:title>
     </cc:Agent>
    </dc:creator>
   </cc:Work>
  </rdf:RDF>
 </metadata>
 <defs>
  <style type="text/css">*{stroke-linejoin: round; stroke-linecap: butt}</style>
 </defs>
 <g id="figure_1">
  <g id="patch_1">
   <path d="M 0 345.6 
L 460.8 345.6 
L 460.8 0 
L 0 0 
z
" style="fill: #ffffff"/>
  </g>
  <g id="axes_1">
   <g id="patch_2">
    <path d="M 57.6 307.584 
L 414.72 307.584 
L 414.72 41.472 
L 57.6 41.472 
z
" style="fill: #ffffff"/>
   </g>
   <g id="matplotlib.axis_1">
    <g id="xtick_1">
     <g id="line2d_1">
      <defs>
       <path id="mb3ffaad1c2" d="M 0 0 
L 0 3.5 
" style="stroke: #000000; stroke-width: 0.8"/>
      </defs>
      <g>
       <use xlink:href="#mb3ffaad1c2" x="73.832727" y="307.584" style="stroke: #000000; stroke-width: 0.8"/>
      </g>
     </g>
     <g id="text_1">
      <text style="font: 10px 'IPAexGothic'; text-anchor: middle" x="73.832727" y="322.074625" transform="rotate(-0 73.832727 322.074625)">0</text>
     </g>
    </g>
    <g id="xtick_2">
     <g id="line2d_2">
      <g>
       <use xlink:href="#mb3ffaad1c2" x="140.102281" y="307.584" style="stroke: #000000; stroke-width: 0.8"/>
      </g>
     </g>
     <g id="text_2">
      <text style="font: 10px 'IPAexGothic'; text-anchor: middle" x="140.102281" y="322.074625" transform="rotate(-0 140.102281 322.074625)">1000</text>
     </g>
    </g>
    <g id="xtick_3">
     <g id="line2d_3">
      <g>
       <use xlink:href="#mb3ffaad1c2" x="206.371835" y="307.584" style="stroke: #000000; stroke-width: 0.8"/>
      </g>
     </g>
     <g id="text_3">
      <text style="font: 10px 'IPAexGothic'; text-anchor: middle" x="206.371835" y="322.074625" transform="rotate(-0 206.371835 322.074625)">2000</text>
     </g>
    </g>
    <g id="xtick_4">
     <g id="line2d_4">
      <g>
       <use xlink:href="#mb3ffaad1c2" x="272.64139" y="307.584" style="stroke: #000000; stroke-width: 0.8"/>
      </g>
     </g>
     <g id="text_4">
      <text style="font: 10px 'IPAexGothic'; text-anchor: middle" x="272.64139" y="322.074625" transform="rotate(-0 272.64139 322.074625)">3000</text>
     </g>
    </g>
    <g id="xtick_5">
     <g id="line2d_5">
      <g>
       <use xlink:href="#mb3ffaad1c2" x="338.910944" y="307.584" style="stroke: #000000; stroke-width: 0.8"/>
      </g>
     </g>
     <g id="text_5">
      <text style="font: 10px 'IPAexGothic'; text-anchor: middle" x="338.910944" y="322.074625" transform="rotate(-0 338.910944 322.074625)">4000</text>
     </g>
    </g>
    <g id="xtick_6">
     <g id="line2d_6">
      <g>
       <use xlink:href="#mb3ffaad1c2" x="405.180498" y="307.584" style="stroke: #000000; stroke-width: 0.8"/>
      </g>
     </g>
     <g id="text_6">
      <text style="font: 10px 'IPAexGothic'; text-anchor: middle" x="405.180498" y="322.074625" transform="rotate(-0 405.180498 322.074625)">5000</text>
     </g>
    </g>
    <g id="text_7">
     <text style="font: 10px 'IPAexGothic'; text-anchor: middle" x="236.16" y="335.924625" transform="rotate(-0 236.16 335.924625)">周波数[Hz]</text>
    </g>
   </g>
   <g id="matplotlib.axis_2">
    <g id="ytick_1">
     <g id="line2d_7">
      <defs>
       <path id="m4cbe10e062" d="M 0 0 
L -3.5 0 
" style="stroke: #000000; stroke-width: 0.8"/>
      </defs>
      <g>
       <use xlink:href="#m4cbe10e062" x="57.6" y="295.488655" style="stroke: #000000; stroke-width: 0.8"/>
      </g>
     </g>
     <g id="text_8">
      <text style="font: 10px 'IPAexGothic'; text-anchor: end" x="50.6" y="299.233968" transform="rotate(-0 50.6 299.233968)">0.0</text>
     </g>
    </g>
    <g id="ytick_2">
     <g id="line2d_8">
      <g>
       <use xlink:href="#m4cbe10e062" x="57.6" y="263.67335" style="stroke: #000000; stroke-width: 0.8"/>
      </g>
     </g>
     <g id="text_9">
      <text style="font: 10px 'IPAexGothic'; text-anchor: end" x="50.6" y="267.418662" transform="rotate(-0 50.6 267.418662)">0.5</text>
     </g>
    </g>
    <g id="ytick_3">
     <g id="line2d_9">
      <g>
       <use xlink:href="#m4cbe10e062" x="57.6" y="231.858045" style="stroke: #000000; stroke-width: 0.8"/>
      </g>
     </g>
     <g id="text_10">
      <text style="font: 10px 'IPAexGothic'; text-anchor: end" x="50.6" y="235.603357" transform="rotate(-0 50.6 235.603357)">1.0</text>
     </g>
    </g>
    <g id="ytick_4">
     <g id="line2d_10">
      <g>
       <use xlink:href="#m4cbe10e062" x="57.6" y="200.04274" style="stroke: #000000; stroke-width: 0.8"/>
      </g>
     </g>
     <g id="text_11">
      <text style="font: 10px 'IPAexGothic'; text-anchor: end" x="50.6" y="203.788052" transform="rotate(-0 50.6 203.788052)">1.5</text>
     </g>
    </g>
    <g id="ytick_5">
     <g id="line2d_11">
      <g>
       <use xlink:href="#m4cbe10e062" x="57.6" y="168.227435" style="stroke: #000000; stroke-width: 0.8"/>
      </g>
     </g>
     <g id="text_12">
      <text style="font: 10px 'IPAexGothic'; text-anchor: end" x="50.6" y="171.972747" transform="rotate(-0 50.6 171.972747)">2.0</text>
     </g>
    </g>
    <g id="ytick_6">
     <g id="line2d_12">
      <g>
       <use xlink:href="#m4cbe10e062" x="57.6" y="136.412129" style="stroke: #000000; stroke-width: 0.8"/>
      </g>
     </g>
     <g id="text_13">
      <text style="font: 10px 'IPAexGothic'; text-anchor: end" x="50.6" y="140.157442" transform="rotate(-0 50.6 140.157442)">2.5</text>
     </g>
    </g>
    <g id="ytick_7">
     <g id="line2d_13">
      <g>
       <use xlink:href="#m4cbe10e062" x="57.6" y="104.596824" style="stroke: #000000; stroke-width: 0.8"/>
      </g>
     </g>
     <g id="text_14">
      <text style="font: 10px 'IPAexGothic'; text-anchor: end" x="50.6" y="108.342137" transform="rotate(-0 50.6 108.342137)">3.0</text>
     </g>
    </g>
    <g id="ytick_8">
     <g id="line2d_14">
      <g>
       <use xlink:href="#m4cbe10e062" x="57.6" y="72.781519" style="stroke: #000000; stroke-width: 0.8"/>
      </g>
     </g>
     <g id="text_15">
      <text style="font: 10px 'IPAexGothic'; text-anchor: end" x="50.6" y="76.526832" transform="rotate(-0 50.6 76.526832)">3.5</text>
     </g>
    </g>
    <g id="text_16">
     <text style="font: 10px 'IPAexGothic'; text-anchor: middle" x="29.460938" y="174.528" transform="rotate(-90 29.460938 174.528)">振幅</text>
    </g>
    <g id="text_17">
     <text style="font: 10px 'IPAexGothic'; text-anchor: start" x="57.6" y="38.472" transform="rotate(-0 57.6 38.472)">1e7</text>
    </g>
   </g>
   <g id="line2d_15">
    <path d="M 73.832727 295.466753 
L 73.965266 295.378394 
L 75.688275 295.312463 
L 76.085892 295.272368 
L 77.013666 295.166134 
L 77.742631 294.918185 
L 77.808901 294.982773 
L 77.87517 294.908508 
L 78.405327 294.469825 
L 78.604135 294.259217 
L 78.736674 294.305911 
L 78.802944 294.083219 
L 78.935483 294.360188 
L 79.001752 294.316147 
L 79.266831 293.746839 
L 79.3331 293.777741 
L 79.465639 293.210347 
L 79.531909 294.168695 
L 79.598178 293.737988 
L 79.863257 293.285014 
L 79.929526 293.311462 
L 79.995796 293.140783 
L 80.062065 293.78201 
L 80.128335 292.806444 
L 80.194604 293.257237 
L 80.327144 293.696417 
L 80.393413 292.134589 
L 80.459683 292.201128 
L 80.592222 292.260298 
L 80.79103 290.231509 
L 80.8573 290.753132 
L 81.056109 269.296876 
L 81.122378 53.568 
L 81.254917 274.31674 
L 81.321187 276.096711 
L 81.519996 284.90704 
L 81.652535 288.688549 
L 81.718804 287.585688 
L 81.917613 290.76989 
L 82.050152 290.0916 
L 82.248961 291.775872 
L 82.31523 291.51772 
L 82.447769 292.516334 
L 83.375543 294.332494 
L 83.574352 294.430051 
L 83.640621 294.328484 
L 83.706891 294.380439 
L 83.905699 294.378148 
L 84.104508 294.635652 
L 84.303317 294.785545 
L 84.435856 294.73831 
L 84.634665 295.130752 
L 84.700934 295.093502 
L 84.767204 294.818041 
L 84.966012 295.076075 
L 85.164821 294.718338 
L 85.231091 294.896872 
L 85.29736 294.801665 
L 85.562438 295.020512 
L 85.694977 294.470127 
L 85.761247 294.604553 
L 85.893786 294.634566 
L 86.026325 294.434681 
L 86.092595 294.561165 
L 86.158864 294.287798 
L 86.225134 294.346452 
L 86.357673 294.67533 
L 86.490212 294.332034 
L 86.556482 294.498706 
L 86.622751 294.061784 
L 86.689021 294.100481 
L 86.75529 294.10491 
L 86.954099 293.74171 
L 87.152908 292.403825 
L 87.285447 293.194241 
L 87.417986 291.918323 
L 87.484255 292.492301 
L 87.616795 292.265352 
L 88.146951 285.545523 
L 88.27949 275.12693 
L 88.34576 264.163524 
L 88.412029 202.522499 
L 88.610838 274.939218 
L 88.809646 289.232811 
L 88.875916 289.536473 
L 88.942186 289.367243 
L 89.008455 291.764459 
L 89.074725 290.880343 
L 89.207264 290.80181 
L 89.406072 293.40341 
L 89.538612 291.914757 
L 89.73742 293.83144 
L 89.80369 293.972703 
L 89.869959 293.66301 
L 89.936229 293.751981 
L 90.002498 294.204815 
L 90.068768 294.171917 
L 90.135038 293.591852 
L 90.333846 294.582804 
L 90.532655 294.848389 
L 90.598924 294.61112 
L 90.665194 294.768261 
L 90.797733 294.411778 
L 90.930272 294.968861 
L 90.996542 294.806947 
L 91.062811 294.983298 
L 91.129081 294.87644 
L 91.394159 294.800898 
L 91.924316 295.018245 
L 92.321933 295.035348 
L 92.454472 294.989182 
L 93.315976 295.127719 
L 93.448515 295.137712 
L 93.713593 295.236326 
L 94.044941 295.264943 
L 94.376289 295.268968 
L 94.508828 295.267756 
L 94.707637 294.921105 
L 94.773906 294.904073 
L 94.972715 295.084935 
L 95.171524 294.169514 
L 95.237793 293.492085 
L 95.304063 294.052166 
L 95.370332 293.887837 
L 95.569141 291.027224 
L 95.635411 288.952673 
L 95.76795 256.604409 
L 95.900489 289.272995 
L 96.231837 293.37107 
L 96.364376 293.383528 
L 96.430645 293.551597 
L 96.496915 294.266308 
L 96.563184 294.129938 
L 96.629454 293.763717 
L 96.761993 294.522777 
L 96.828263 294.389423 
L 96.894532 294.254833 
L 97.093341 294.855408 
L 97.22588 294.715039 
L 97.358419 295.026718 
L 97.424689 294.881134 
L 97.490958 294.926423 
L 97.623497 294.874246 
L 97.822306 295.060133 
L 97.888575 294.956981 
L 97.954845 295.008416 
L 98.087384 295.054264 
L 98.219923 295.05718 
L 98.485001 295.153037 
L 98.551271 295.054784 
L 98.61754 295.154884 
L 98.68381 295.096455 
L 98.75008 295.218671 
L 98.816349 295.002721 
L 98.882619 295.105165 
L 99.081427 295.217768 
L 99.213966 295.251243 
L 99.412775 295.245059 
L 100.075471 295.149073 
L 100.14174 295.256276 
L 100.20801 295.199999 
L 100.274279 295.234123 
L 100.340549 295.42549 
L 100.406818 295.246316 
L 100.473088 295.331732 
L 100.738166 295.356544 
L 100.870705 295.359415 
L 101.135784 295.292188 
L 101.533401 295.248368 
L 101.931018 295.391006 
L 101.997288 295.1858 
L 102.063557 295.301476 
L 102.394905 295.249888 
L 102.461175 295.294942 
L 102.925062 294.34777 
L 102.991331 293.939518 
L 103.057601 283.765509 
L 103.19014 294.692191 
L 103.322679 295.111528 
L 103.455218 295.046097 
L 103.720296 295.28518 
L 103.985374 295.276777 
L 104.117913 295.390822 
L 105.045687 295.456604 
L 105.178226 295.302713 
L 105.443305 295.334726 
L 105.907191 295.357431 
L 106.039731 295.091482 
L 106.17227 295.239528 
L 106.304809 295.157166 
L 106.437348 294.937195 
L 106.569887 295.115577 
L 106.702426 295.092345 
L 106.768696 295.240708 
L 106.834965 295.189995 
L 107.298852 294.960109 
L 107.431391 295.11869 
L 107.6302 295.054169 
L 107.762739 294.65803 
L 107.961548 295.088806 
L 108.094087 294.892443 
L 108.160356 294.953568 
L 108.359165 294.804396 
L 108.425435 294.728514 
L 108.491704 294.790087 
L 108.624243 294.868444 
L 108.823052 294.969785 
L 109.08813 294.349276 
L 109.1544 294.660032 
L 109.220669 294.354669 
L 109.286939 294.611831 
L 109.353208 294.424164 
L 109.419478 294.614179 
L 109.485747 294.28179 
L 109.552017 294.445264 
L 109.750826 293.676676 
L 109.817095 294.04381 
L 109.949634 293.175416 
L 110.015904 293.529381 
L 110.280982 288.035591 
L 110.413521 271.180661 
L 110.61233 292.372682 
L 111.009947 294.455332 
L 111.076217 294.408618 
L 111.606373 295.132019 
L 111.672643 295.069387 
L 111.738912 295.283687 
L 111.805182 295.261723 
L 112.07026 295.247089 
L 112.202799 295.28004 
L 112.335338 295.263267 
L 112.534147 295.30078 
L 114.654773 295.395169 
L 115.251199 295.368624 
L 115.582546 295.331627 
L 115.980164 295.174597 
L 116.046433 295.244102 
L 116.112703 295.168909 
L 116.245242 295.098577 
L 116.311511 295.171451 
L 116.444051 295.084703 
L 116.57659 295.099414 
L 116.775398 294.871346 
L 116.841668 294.925008 
L 117.173016 294.218293 
L 117.239285 294.372798 
L 117.570633 291.107159 
L 117.769442 277.168305 
L 117.96825 292.809664 
L 118.167059 293.647965 
L 118.233329 292.849663 
L 118.365868 294.184513 
L 118.432137 293.925262 
L 118.564676 294.531873 
L 118.630946 294.502681 
L 118.697215 294.786576 
L 118.763485 294.757794 
L 119.028563 294.761156 
L 119.094833 294.792664 
L 119.161102 295.038655 
L 119.227372 294.972449 
L 119.293641 295.077212 
L 119.42618 294.998526 
L 119.691259 295.107242 
L 119.890067 295.097095 
L 120.817841 295.231485 
L 121.01665 295.240156 
L 121.414267 295.265877 
L 121.679345 295.290331 
L 121.944424 295.327523 
L 122.076963 295.317708 
L 122.805928 295.404187 
L 123.336084 295.407577 
L 124.396397 295.25865 
L 124.661475 295.0908 
L 124.727745 294.91199 
L 124.992823 292.845423 
L 125.059093 294.08454 
L 125.125362 293.874996 
L 125.257901 294.769607 
L 125.324171 294.759863 
L 125.39044 294.813612 
L 125.522979 295.169392 
L 125.655519 295.230289 
L 125.788058 295.2986 
L 126.053136 295.27537 
L 126.251945 295.33435 
L 126.91464 295.395519 
L 127.179718 295.40843 
L 128.173762 295.41119 
L 129.101535 295.392946 
L 131.3547 295.37823 
L 132.149935 295.471667 
L 132.282474 294.818765 
L 132.348744 294.435704 
L 132.415013 294.724159 
L 132.481283 294.044941 
L 132.680091 295.441324 
L 132.94517 295.376298 
L 133.342787 295.38801 
L 137.38523 295.403904 
L 138.77689 295.442924 
L 139.307047 295.37871 
L 139.572125 295.168055 
L 139.638394 295.014998 
L 139.704664 295.486269 
L 139.837203 294.341498 
L 139.903473 292.644889 
L 140.036012 294.926543 
L 140.102281 294.910808 
L 140.23482 295.212153 
L 140.30109 295.201372 
L 140.433629 295.463883 
L 140.499899 295.424063 
L 141.162594 295.444956 
L 141.560212 295.484163 
L 141.957829 295.442825 
L 143.28322 295.416948 
L 143.747107 295.423047 
L 145.072498 295.417352 
L 146.861776 295.421341 
L 147.060585 295.199007 
L 147.193124 294.817018 
L 147.259393 294.384389 
L 147.325663 292.597822 
L 147.524471 294.861125 
L 147.988358 295.32921 
L 150.572871 295.365089 
L 150.904219 295.340588 
L 151.169297 295.34017 
L 153.62127 295.350785 
L 154.217696 295.123639 
L 154.283966 295.034525 
L 154.416505 295.442825 
L 154.615314 295.093795 
L 154.814122 293.9598 
L 155.012931 295.108103 
L 155.21174 295.293302 
L 155.278009 295.180972 
L 155.344279 295.226936 
L 155.609357 295.379495 
L 156.073244 295.431077 
L 158.326409 295.452012 
L 159.254182 295.400185 
L 159.452991 295.403999 
L 159.718069 295.358244 
L 159.916878 295.378162 
L 160.513304 295.338315 
L 160.910921 295.234328 
L 160.977191 295.170712 
L 161.04346 295.264484 
L 161.10973 295.207282 
L 161.242269 295.169249 
L 161.308539 295.327259 
L 161.374808 295.201589 
L 161.573617 294.960946 
L 161.639886 295.093241 
L 161.706156 295.037503 
L 161.772426 295.031667 
L 162.037504 294.134875 
L 162.170043 293.254102 
L 162.236312 290.249966 
L 162.302582 292.249344 
L 162.501391 294.564736 
L 162.56766 294.560921 
L 162.63393 294.412397 
L 162.766469 294.940548 
L 162.832738 294.804725 
L 162.899008 295.148892 
L 162.965278 295.117124 
L 163.031547 295.03937 
L 163.097817 295.105514 
L 163.230356 295.329741 
L 166.345025 295.431557 
L 169.062076 295.087145 
L 169.194616 294.883446 
L 169.260885 294.992123 
L 169.525963 293.705583 
L 169.592233 294.090361 
L 169.658502 293.413812 
L 169.791042 287.847473 
L 169.98985 294.159772 
L 170.05612 294.461857 
L 170.122389 293.933569 
L 170.188659 293.990578 
L 170.453737 294.764902 
L 170.652546 294.902296 
L 170.785085 295.106206 
L 170.851354 295.058155 
L 170.983894 295.137888 
L 171.315241 295.096697 
L 172.375554 295.296609 
L 172.706902 295.281072 
L 172.97198 295.318098 
L 173.237058 295.341619 
L 173.568406 295.323118 
L 175.158875 295.413293 
L 176.02038 295.477979 
L 176.219188 295.260302 
L 176.351727 295.386339 
L 176.484267 295.282278 
L 176.616806 295.218532 
L 176.749345 295.00844 
L 176.815614 294.641133 
L 176.881884 294.888486 
L 176.948153 295.17422 
L 177.014423 295.146441 
L 177.080693 294.555435 
L 177.213232 295.0112 
L 177.41204 293.897021 
L 177.544579 294.761641 
L 177.610849 294.70349 
L 177.743388 295.090674 
L 177.809658 295.06904 
L 178.273545 295.291804 
L 178.339814 295.158045 
L 178.406084 295.265859 
L 178.604892 295.284373 
L 178.737431 295.314107 
L 178.93624 295.318804 
L 179.135049 295.323683 
L 179.267588 295.318015 
L 182.779874 295.349818 
L 183.111222 295.299863 
L 184.038996 295.337821 
L 184.105265 295.402353 
L 184.237804 295.133263 
L 184.304074 295.228334 
L 184.569152 294.714606 
L 184.701691 294.722573 
L 184.83423 294.336541 
L 184.966769 291.692366 
L 185.165578 294.81408 
L 185.364387 295.216016 
L 185.563195 295.236744 
L 185.960813 295.429712 
L 187.352473 295.442551 
L 187.750091 295.431618 
L 188.280247 295.431032 
L 190.135795 295.4042 
L 190.86476 295.431374 
L 191.328647 295.369646 
L 191.593725 295.466348 
L 191.792534 295.318521 
L 192.057612 295.318606 
L 192.25642 295.084083 
L 192.32269 295.252575 
L 192.38896 295.295115 
L 192.587768 294.982564 
L 192.654038 294.642714 
L 192.720307 294.805595 
L 193.117925 295.329967 
L 193.449272 295.318269 
L 193.714351 295.377077 
L 194.045698 295.385107 
L 194.642124 295.426751 
L 195.30482 295.430208 
L 197.823063 295.453521 
L 198.817106 295.263557 
L 198.949645 295.447221 
L 199.214724 295.464556 
L 200.076228 295.407762 
L 200.208767 295.384774 
L 200.275036 295.217193 
L 200.341306 295.266446 
L 200.606384 295.459436 
L 201.467888 295.468628 
L 205.576601 295.421515 
L 205.974218 295.390841 
L 207.962305 295.450122 
L 208.094844 295.316364 
L 208.359922 295.467343 
L 209.420235 295.444995 
L 211.540861 295.452135 
L 212.998791 295.405358 
L 213.528947 295.351751 
L 213.860295 295.421105 
L 214.456721 295.384286 
L 215.517034 295.217416 
L 215.649573 294.957588 
L 215.782112 294.486179 
L 215.848382 294.585219 
L 216.11346 295.271561 
L 216.378538 295.343342 
L 217.240042 295.446452 
L 217.902738 295.469926 
L 218.963051 295.452988 
L 223.005494 295.37876 
L 223.138033 295.388114 
L 223.270572 295.329448 
L 223.53565 295.0515 
L 223.668189 293.977683 
L 223.734459 294.233453 
L 223.800728 294.981359 
L 223.866998 294.921421 
L 224.132076 295.173229 
L 224.595963 295.314658 
L 224.99358 295.379715 
L 225.656276 295.407107 
L 230.295144 295.416837 
L 230.560223 295.440004 
L 230.825301 295.425206 
L 231.02411 295.448058 
L 231.222918 295.424318 
L 231.554266 295.002777 
L 231.620536 295.183991 
L 232.283231 295.422791 
L 233.741161 295.422945 
L 234.934013 295.413184 
L 235.265361 295.398252 
L 238.711378 295.35749 
L 239.307804 295.192266 
L 239.440343 294.928984 
L 239.970499 295.468719 
L 242.753821 295.478434 
L 246.464916 295.448956 
L 246.796263 295.430502 
L 247.26015 295.29887 
L 247.392689 295.181867 
L 247.525229 294.91371 
L 247.724037 295.326383 
L 248.85062 295.430222 
L 251.567671 295.464269 
L 251.899019 295.464649 
L 253.22441 295.463543 
L 254.152184 295.460162 
L 255.345036 295.36104 
L 255.610114 295.011152 
L 255.808923 295.302565 
L 257.995818 295.445573 
L 258.724783 295.457112 
L 259.652557 295.457516 
L 260.050174 295.458982 
L 261.176757 295.465187 
L 262.767226 295.460991 
L 263.496191 295.466234 
L 265.683086 295.474651 
L 267.936251 295.476197 
L 269.129103 295.469315 
L 271.05092 295.463464 
L 274.762015 295.46674 
L 357.930306 295.474462 
L 359.653314 295.477325 
L 365.352496 295.476981 
L 370.455251 295.476543 
L 382.715119 295.476872 
L 398.487273 295.476107 
L 398.487273 295.476107 
" clip-path="url(#pab4779f1ac)" style="fill: none; stroke: #1f77b4; stroke-width: 1.5; stroke-linecap: square"/>
   </g>
   <g id="patch_3">
    <path d="M 57.6 307.584 
L 57.6 41.472 
" style="fill: none; stroke: #000000; stroke-width: 0.8; stroke-linejoin: miter; stroke-linecap: square"/>
   </g>
   <g id="patch_4">
    <path d="M 414.72 307.584 
L 414.72 41.472 
" style="fill: none; stroke: #000000; stroke-width: 0.8; stroke-linejoin: miter; stroke-linecap: square"/>
   </g>
   <g id="patch_5">
    <path d="M 57.6 307.584 
L 414.72 307.584 
" style="fill: none; stroke: #000000; stroke-width: 0.8; stroke-linejoin: miter; stroke-linecap: square"/>
   </g>
   <g id="patch_6">
    <path d="M 57.6 41.472 
L 414.72 41.472 
" style="fill: none; stroke: #000000; stroke-width: 0.8; stroke-linejoin: miter; stroke-linecap: square"/>
   </g>
   <g id="text_18">
    <text style="font: 12px 'IPAexGothic'; text-anchor: middle" x="236.16" y="35.472" transform="rotate(-0 236.16 35.472)">"027_A2.wav"の振幅スペクトル</text>
   </g>
  </g>
 </g>
 <defs>
  <clipPath id="pab4779f1ac">
   <rect x="57.6" y="41.472" width="357.12" height="266.112"/>
  </clipPath>
 </defs>
</svg>
