<?xml version="1.0" encoding="utf-8" standalone="no"?>
<!DOCTYPE svg PUBLIC "-//W3C//DTD SVG 1.1//EN"
  "http://www.w3.org/Graphics/SVG/1.1/DTD/svg11.dtd">
<svg xmlns:xlink="http://www.w3.org/1999/xlink" width="460.8pt" height="345.6pt" viewBox="0 0 460.8 345.6" xmlns="http://www.w3.org/2000/svg" version="1.1">
 <metadata>
  <rdf:RDF xmlns:dc="http://purl.org/dc/elements/1.1/" xmlns:cc="http://creativecommons.org/ns#" xmlns:rdf="http://www.w3.org/1999/02/22-rdf-syntax-ns#">
   <cc:Work>
    <dc:type rdf:resource="http://purl.org/dc/dcmitype/StillImage"/>
    <dc:date>2022-11-28T12:32:03.863978</dc:date>
    <dc:format>image/svg+xml</dc:format>
    <dc:creator>
     <cc:Agent>
      <dc:title>Matplotlib v3.6.2, https://matplotlib.org/</dc:title>
     </cc:Agent>
    </dc:creator>
   </cc:Work>
  </rdf:RDF>
 </metadata>
 <defs>
  <style type="text/css">*{stroke-linejoin: round; stroke-linecap: butt}</style>
 </defs>
 <g id="figure_1">
  <g id="patch_1">
   <path d="M 0 345.6 
L 460.8 345.6 
L 460.8 0 
L 0 0 
z
" style="fill: #ffffff"/>
  </g>
  <g id="axes_1">
   <g id="patch_2">
    <path d="M 57.6 307.584 
L 414.72 307.584 
L 414.72 41.472 
L 57.6 41.472 
z
" style="fill: #ffffff"/>
   </g>
   <g id="matplotlib.axis_1">
    <g id="xtick_1">
     <g id="line2d_1">
      <defs>
       <path id="m4296cda55a" d="M 0 0 
L 0 3.5 
" style="stroke: #000000; stroke-width: 0.8"/>
      </defs>
      <g>
       <use xlink:href="#m4296cda55a" x="73.832727" y="307.584" style="stroke: #000000; stroke-width: 0.8"/>
      </g>
     </g>
     <g id="text_1">
      <text style="font: 10px 'IPAexGothic'; text-anchor: middle" x="73.832727" y="322.074625" transform="rotate(-0 73.832727 322.074625)">0</text>
     </g>
    </g>
    <g id="xtick_2">
     <g id="line2d_2">
      <g>
       <use xlink:href="#m4296cda55a" x="140.102281" y="307.584" style="stroke: #000000; stroke-width: 0.8"/>
      </g>
     </g>
     <g id="text_2">
      <text style="font: 10px 'IPAexGothic'; text-anchor: middle" x="140.102281" y="322.074625" transform="rotate(-0 140.102281 322.074625)">1000</text>
     </g>
    </g>
    <g id="xtick_3">
     <g id="line2d_3">
      <g>
       <use xlink:href="#m4296cda55a" x="206.371835" y="307.584" style="stroke: #000000; stroke-width: 0.8"/>
      </g>
     </g>
     <g id="text_3">
      <text style="font: 10px 'IPAexGothic'; text-anchor: middle" x="206.371835" y="322.074625" transform="rotate(-0 206.371835 322.074625)">2000</text>
     </g>
    </g>
    <g id="xtick_4">
     <g id="line2d_4">
      <g>
       <use xlink:href="#m4296cda55a" x="272.64139" y="307.584" style="stroke: #000000; stroke-width: 0.8"/>
      </g>
     </g>
     <g id="text_4">
      <text style="font: 10px 'IPAexGothic'; text-anchor: middle" x="272.64139" y="322.074625" transform="rotate(-0 272.64139 322.074625)">3000</text>
     </g>
    </g>
    <g id="xtick_5">
     <g id="line2d_5">
      <g>
       <use xlink:href="#m4296cda55a" x="338.910944" y="307.584" style="stroke: #000000; stroke-width: 0.8"/>
      </g>
     </g>
     <g id="text_5">
      <text style="font: 10px 'IPAexGothic'; text-anchor: middle" x="338.910944" y="322.074625" transform="rotate(-0 338.910944 322.074625)">4000</text>
     </g>
    </g>
    <g id="xtick_6">
     <g id="line2d_6">
      <g>
       <use xlink:href="#m4296cda55a" x="405.180498" y="307.584" style="stroke: #000000; stroke-width: 0.8"/>
      </g>
     </g>
     <g id="text_6">
      <text style="font: 10px 'IPAexGothic'; text-anchor: middle" x="405.180498" y="322.074625" transform="rotate(-0 405.180498 322.074625)">5000</text>
     </g>
    </g>
    <g id="text_7">
     <text style="font: 10px 'IPAexGothic'; text-anchor: middle" x="236.16" y="335.924625" transform="rotate(-0 236.16 335.924625)">周波数[Hz]</text>
    </g>
   </g>
   <g id="matplotlib.axis_2">
    <g id="ytick_1">
     <g id="line2d_7">
      <defs>
       <path id="m2a43bd51b3" d="M 0 0 
L -3.5 0 
" style="stroke: #000000; stroke-width: 0.8"/>
      </defs>
      <g>
       <use xlink:href="#m2a43bd51b3" x="57.6" y="295.492006" style="stroke: #000000; stroke-width: 0.8"/>
      </g>
     </g>
     <g id="text_8">
      <text style="font: 10px 'IPAexGothic'; text-anchor: end" x="50.6" y="299.237319" transform="rotate(-0 50.6 299.237319)">0.0</text>
     </g>
    </g>
    <g id="ytick_2">
     <g id="line2d_8">
      <g>
       <use xlink:href="#m2a43bd51b3" x="57.6" y="265.394514" style="stroke: #000000; stroke-width: 0.8"/>
      </g>
     </g>
     <g id="text_9">
      <text style="font: 10px 'IPAexGothic'; text-anchor: end" x="50.6" y="269.139826" transform="rotate(-0 50.6 269.139826)">0.5</text>
     </g>
    </g>
    <g id="ytick_3">
     <g id="line2d_9">
      <g>
       <use xlink:href="#m2a43bd51b3" x="57.6" y="235.297021" style="stroke: #000000; stroke-width: 0.8"/>
      </g>
     </g>
     <g id="text_10">
      <text style="font: 10px 'IPAexGothic'; text-anchor: end" x="50.6" y="239.042333" transform="rotate(-0 50.6 239.042333)">1.0</text>
     </g>
    </g>
    <g id="ytick_4">
     <g id="line2d_10">
      <g>
       <use xlink:href="#m2a43bd51b3" x="57.6" y="205.199528" style="stroke: #000000; stroke-width: 0.8"/>
      </g>
     </g>
     <g id="text_11">
      <text style="font: 10px 'IPAexGothic'; text-anchor: end" x="50.6" y="208.944841" transform="rotate(-0 50.6 208.944841)">1.5</text>
     </g>
    </g>
    <g id="ytick_5">
     <g id="line2d_11">
      <g>
       <use xlink:href="#m2a43bd51b3" x="57.6" y="175.102035" style="stroke: #000000; stroke-width: 0.8"/>
      </g>
     </g>
     <g id="text_12">
      <text style="font: 10px 'IPAexGothic'; text-anchor: end" x="50.6" y="178.847348" transform="rotate(-0 50.6 178.847348)">2.0</text>
     </g>
    </g>
    <g id="ytick_6">
     <g id="line2d_12">
      <g>
       <use xlink:href="#m2a43bd51b3" x="57.6" y="145.004542" style="stroke: #000000; stroke-width: 0.8"/>
      </g>
     </g>
     <g id="text_13">
      <text style="font: 10px 'IPAexGothic'; text-anchor: end" x="50.6" y="148.749855" transform="rotate(-0 50.6 148.749855)">2.5</text>
     </g>
    </g>
    <g id="ytick_7">
     <g id="line2d_13">
      <g>
       <use xlink:href="#m2a43bd51b3" x="57.6" y="114.90705" style="stroke: #000000; stroke-width: 0.8"/>
      </g>
     </g>
     <g id="text_14">
      <text style="font: 10px 'IPAexGothic'; text-anchor: end" x="50.6" y="118.652362" transform="rotate(-0 50.6 118.652362)">3.0</text>
     </g>
    </g>
    <g id="ytick_8">
     <g id="line2d_14">
      <g>
       <use xlink:href="#m2a43bd51b3" x="57.6" y="84.809557" style="stroke: #000000; stroke-width: 0.8"/>
      </g>
     </g>
     <g id="text_15">
      <text style="font: 10px 'IPAexGothic'; text-anchor: end" x="50.6" y="88.554869" transform="rotate(-0 50.6 88.554869)">3.5</text>
     </g>
    </g>
    <g id="ytick_9">
     <g id="line2d_15">
      <g>
       <use xlink:href="#m2a43bd51b3" x="57.6" y="54.712064" style="stroke: #000000; stroke-width: 0.8"/>
      </g>
     </g>
     <g id="text_16">
      <text style="font: 10px 'IPAexGothic'; text-anchor: end" x="50.6" y="58.457377" transform="rotate(-0 50.6 58.457377)">4.0</text>
     </g>
    </g>
    <g id="text_17">
     <text style="font: 10px 'IPAexGothic'; text-anchor: middle" x="29.460938" y="174.528" transform="rotate(-90 29.460938 174.528)">振幅</text>
    </g>
    <g id="text_18">
     <text style="font: 10px 'IPAexGothic'; text-anchor: start" x="57.6" y="38.472" transform="rotate(-0 57.6 38.472)">1e7</text>
    </g>
   </g>
   <g id="line2d_16">
    <path d="M 73.832727 281.933164 
L 73.965266 294.748517 
L 74.164075 294.36146 
L 74.230345 294.487798 
L 74.429153 294.598952 
L 74.694231 294.454049 
L 75.025579 294.810466 
L 75.158118 295.158284 
L 75.224388 295.071069 
L 75.754544 294.143433 
L 76.019623 294.801626 
L 76.35097 295.202873 
L 76.616049 295.004578 
L 76.814857 294.742712 
L 77.079935 294.6082 
L 77.146205 294.798874 
L 77.212475 294.727306 
L 77.278744 294.657138 
L 77.345014 294.734535 
L 77.543822 294.987899 
L 77.742631 295.179567 
L 78.007709 295.059982 
L 78.206518 294.909292 
L 78.471596 294.817923 
L 78.736674 295.13401 
L 78.802944 295.132269 
L 79.001752 295.331914 
L 79.200561 295.06124 
L 79.465639 294.633549 
L 79.531909 294.814239 
L 79.598178 294.748416 
L 79.730718 294.516036 
L 79.796987 294.583757 
L 79.929526 294.512539 
L 79.995796 294.513397 
L 80.062065 294.785629 
L 80.128335 294.618238 
L 80.327144 294.978755 
L 80.393413 294.869775 
L 80.724761 295.398133 
L 80.92357 295.321297 
L 81.321187 295.182767 
L 81.387456 295.26441 
L 81.453726 295.178278 
L 81.917613 295.340137 
L 82.050152 295.141204 
L 82.116422 295.216524 
L 82.248961 295.17844 
L 82.31523 295.041171 
L 82.3815 295.122048 
L 82.712848 295.008454 
L 82.779117 295.092115 
L 82.845387 295.018979 
L 83.441813 295.264863 
L 83.574352 295.169583 
L 83.706891 295.074864 
L 84.303317 294.782175 
L 84.435856 294.938935 
L 84.767204 294.809889 
L 84.899743 294.855245 
L 85.098551 294.596701 
L 85.164821 294.747541 
L 85.231091 294.645005 
L 85.29736 294.621738 
L 85.36363 294.450494 
L 85.429899 294.560997 
L 85.562438 294.604531 
L 85.694977 294.622508 
L 85.827517 294.741677 
L 86.158864 294.876194 
L 86.291403 295.047425 
L 86.357673 294.859648 
L 86.423943 294.916259 
L 86.556482 294.931322 
L 86.75529 294.911468 
L 87.152908 294.919405 
L 87.550525 293.934374 
L 87.749334 292.783643 
L 87.948142 291.489164 
L 88.014412 291.392739 
L 88.080681 290.894322 
L 88.27949 284.019489 
L 88.34576 277.513426 
L 88.412029 221.18567 
L 88.544568 291.609085 
L 88.610838 290.942407 
L 88.677107 292.733721 
L 88.743377 292.29588 
L 88.809646 293.090126 
L 88.875916 292.873917 
L 88.942186 292.110305 
L 89.008455 293.07077 
L 89.207264 291.206391 
L 89.406072 292.923077 
L 89.538612 291.445656 
L 89.73742 293.230058 
L 89.80369 293.348647 
L 89.869959 293.054094 
L 90.002498 294.102828 
L 90.068768 294.076418 
L 90.135038 293.908804 
L 90.333846 294.897727 
L 90.466385 294.911398 
L 90.598924 294.493771 
L 90.797733 293.506042 
L 90.930272 294.478523 
L 91.129081 294.128933 
L 91.19535 294.034893 
L 91.26162 294.119617 
L 91.394159 294.186995 
L 91.592968 294.843654 
L 91.659237 294.819661 
L 91.725507 294.728535 
L 91.858046 294.962351 
L 91.924316 294.883784 
L 92.056855 294.877912 
L 92.388202 294.307721 
L 92.587011 294.304877 
L 92.78582 293.964824 
L 92.852089 294.243077 
L 92.918359 293.813205 
L 92.984628 293.899232 
L 93.050898 294.134917 
L 93.117168 293.747989 
L 93.183437 293.861941 
L 93.249707 293.882072 
L 93.382246 293.422047 
L 93.581054 294.314698 
L 93.647324 294.262339 
L 93.779863 293.907116 
L 93.912402 294.159242 
L 94.044941 294.616668 
L 94.111211 294.925205 
L 94.24375 294.607229 
L 94.508828 295.025897 
L 94.840176 294.100729 
L 94.972715 294.404466 
L 95.171524 293.652048 
L 95.237793 292.937123 
L 95.370332 294.016608 
L 95.569141 293.751192 
L 95.76795 294.311253 
L 95.966758 294.377223 
L 96.033028 294.25586 
L 96.099297 294.949267 
L 96.165567 294.931754 
L 96.298106 294.58622 
L 96.430645 294.033488 
L 96.496915 294.251356 
L 96.563184 294.217307 
L 96.629454 293.380672 
L 96.695723 293.445877 
L 96.761993 293.454276 
L 96.828263 293.177124 
L 96.894532 292.309562 
L 96.960802 292.879007 
L 97.027071 292.16969 
L 97.093341 292.959961 
L 97.15961 292.462196 
L 97.22588 291.81452 
L 97.358419 292.809272 
L 97.424689 292.169618 
L 97.490958 292.225826 
L 97.557228 292.310836 
L 97.623497 291.884185 
L 97.689767 292.124847 
L 97.822306 292.993295 
L 97.888575 292.605784 
L 97.954845 292.6445 
L 98.087384 293.001969 
L 98.153654 292.604784 
L 98.219923 292.756637 
L 98.485001 294.59884 
L 98.551271 293.883035 
L 98.61754 294.186421 
L 98.68381 293.955928 
L 98.75008 294.390275 
L 98.816349 294.289917 
L 98.882619 294.025194 
L 98.948888 294.245298 
L 99.015158 294.122195 
L 99.213966 294.241009 
L 99.346506 293.939752 
L 99.412775 294.105049 
L 99.479045 294.05666 
L 99.611584 293.727338 
L 99.744123 294.18669 
L 99.876662 293.650679 
L 99.942932 293.677939 
L 100.14174 294.309219 
L 100.274279 294.411782 
L 100.473088 295.235931 
L 100.539358 295.134454 
L 100.605627 295.283048 
L 100.870705 294.45645 
L 101.202053 293.434036 
L 101.268323 293.829521 
L 101.334592 293.606634 
L 101.73221 290.9625 
L 101.798479 292.464021 
L 101.864749 290.335368 
L 101.931018 292.750849 
L 101.997288 289.173713 
L 102.063557 289.645458 
L 102.129827 289.78772 
L 102.394905 283.270228 
L 102.461175 283.220328 
L 102.792522 261.016334 
L 102.858792 246.337304 
L 102.991331 53.568 
L 103.12387 280.697575 
L 103.322679 292.059292 
L 103.388948 294.461861 
L 103.587757 289.566084 
L 103.654027 288.749252 
L 103.720296 288.916066 
L 103.786566 288.954831 
L 103.852835 288.459442 
L 103.919105 289.260815 
L 103.985374 288.88758 
L 104.051644 289.347584 
L 104.117913 290.702909 
L 104.184183 289.602871 
L 104.449261 292.502458 
L 104.5818 293.493725 
L 104.714339 294.857403 
L 104.913148 293.505999 
L 104.979418 293.766559 
L 105.045687 293.213485 
L 105.244496 289.897566 
L 105.310765 289.944693 
L 105.443305 290.834438 
L 105.509574 290.794593 
L 105.642113 291.263551 
L 105.840922 292.233651 
L 105.907191 291.971449 
L 105.973461 291.150019 
L 106.039731 291.753321 
L 106.17227 293.914217 
L 106.304809 294.36162 
L 106.371078 294.808721 
L 106.702426 292.615909 
L 106.768696 293.03712 
L 107.100043 288.954606 
L 107.166313 289.540499 
L 107.232583 289.265858 
L 107.298852 289.471325 
L 107.431391 291.027748 
L 107.6302 290.053509 
L 107.762739 287.559696 
L 107.961548 292.949897 
L 108.027817 292.260964 
L 108.094087 292.577735 
L 108.292895 293.87519 
L 108.359165 293.902436 
L 108.491704 294.357863 
L 108.557974 294.30663 
L 108.690513 294.178354 
L 109.02186 292.65986 
L 109.08813 291.66182 
L 109.1544 293.054875 
L 109.220669 291.486866 
L 109.286939 293.222546 
L 109.353208 292.731972 
L 109.419478 293.632485 
L 109.485747 292.966365 
L 109.552017 293.886433 
L 109.618286 293.748162 
L 109.684556 293.468051 
L 110.015904 294.849912 
L 110.082173 294.437628 
L 110.148443 294.537543 
L 110.214712 294.545555 
L 110.347252 294.784548 
L 110.479791 294.316377 
L 110.54606 294.415883 
L 110.61233 294.455194 
L 110.811138 293.89372 
L 110.943678 294.138056 
L 111.208756 293.477862 
L 111.275025 293.983879 
L 111.341295 293.654937 
L 111.407564 293.382909 
L 111.540104 293.958361 
L 111.606373 293.792526 
L 111.672643 293.229372 
L 111.738912 294.037494 
L 111.805182 294.013174 
L 111.937721 293.760668 
L 112.13653 294.212739 
L 112.202799 294.242163 
L 112.269069 294.099674 
L 112.335338 294.168149 
L 112.401608 294.324615 
L 112.467877 294.211862 
L 112.799225 294.323666 
L 112.998034 294.486954 
L 113.064303 294.468654 
L 113.130573 294.276269 
L 113.196842 294.322068 
L 113.263112 294.613171 
L 113.329382 294.550689 
L 113.395651 294.453603 
L 113.59446 295.179344 
L 113.793268 294.780194 
L 113.992077 294.106076 
L 114.257155 293.197233 
L 114.455964 291.838388 
L 114.522233 291.880534 
L 114.588503 292.417683 
L 114.654773 292.353326 
L 114.853581 290.207799 
L 114.98612 292.839745 
L 115.05239 292.32174 
L 115.251199 291.37613 
L 115.317468 292.19659 
L 115.383738 291.480641 
L 115.450007 292.34185 
L 115.516277 291.845277 
L 115.582546 291.7881 
L 115.648816 291.261559 
L 115.847625 292.03609 
L 115.913894 291.236801 
L 115.980164 291.292061 
L 116.046433 292.327863 
L 116.178972 291.419894 
L 116.245242 291.632013 
L 116.311511 292.885778 
L 116.377781 291.933989 
L 116.51032 293.70028 
L 116.57659 293.555832 
L 116.642859 293.571663 
L 116.709129 293.929725 
L 117.040477 289.248519 
L 117.371824 274.22901 
L 117.504363 214.416197 
L 117.570633 158.933636 
L 117.703172 279.548005 
L 117.901981 292.607081 
L 117.96825 293.075805 
L 118.03452 292.818561 
L 118.167059 290.619492 
L 118.233329 284.819031 
L 118.299598 287.744061 
L 118.365868 289.191979 
L 118.432137 286.680051 
L 118.498407 288.188546 
L 118.564676 288.933363 
L 118.630946 287.582839 
L 118.697215 289.906681 
L 118.763485 289.534378 
L 118.896024 288.624273 
L 118.962294 288.908989 
L 119.028563 288.6881 
L 119.094833 288.820869 
L 119.293641 292.577303 
L 119.359911 292.090784 
L 119.624989 294.845625 
L 119.691259 294.541628 
L 119.956337 293.451848 
L 120.022606 293.804601 
L 120.088876 293.648659 
L 120.221415 292.818124 
L 120.287685 293.443985 
L 120.420224 292.860778 
L 120.486493 292.993582 
L 120.685302 293.910933 
L 120.751572 293.793444 
L 120.95038 294.575244 
L 121.082919 294.743251 
L 121.215458 293.646338 
L 121.281728 293.882757 
L 121.347998 293.717392 
L 121.414267 293.61395 
L 121.613076 292.09493 
L 121.679345 291.728995 
L 121.878154 292.709089 
L 121.944424 292.980743 
L 122.010693 291.279989 
L 122.076963 291.794886 
L 122.209502 291.481814 
L 122.342041 293.101569 
L 122.40831 292.98458 
L 122.47458 292.772457 
L 123.071006 294.95251 
L 123.203545 294.950667 
L 123.601162 294.003609 
L 123.667432 294.093583 
L 123.733701 294.15411 
L 123.799971 294.463127 
L 123.866241 293.768485 
L 123.93251 293.998948 
L 123.99878 294.160855 
L 124.065049 293.913312 
L 124.131319 294.333791 
L 124.197588 294.072649 
L 124.462667 294.877207 
L 124.727745 295.048778 
L 124.794014 294.901723 
L 124.926553 295.220135 
L 124.992823 295.162762 
L 125.191632 295.260111 
L 125.721788 295.156371 
L 125.788058 295.065374 
L 125.854327 294.710947 
L 125.920597 294.965 
L 125.986866 294.883599 
L 126.053136 294.865456 
L 126.119405 294.978785 
L 126.185675 294.920481 
L 126.517023 295.124897 
L 126.715831 295.36347 
L 126.782101 295.371804 
L 126.98091 294.989079 
L 127.179718 294.356224 
L 127.312257 294.297427 
L 127.378527 293.300669 
L 127.444797 293.360832 
L 127.511066 293.754449 
L 127.577336 293.662246 
L 127.643605 293.102331 
L 127.709875 293.487543 
L 127.776144 293.706527 
L 128.107492 292.109112 
L 128.173762 293.293185 
L 128.240031 293.051142 
L 128.43884 292.570627 
L 128.505109 293.493283 
L 128.571379 293.098814 
L 128.703918 293.78035 
L 128.770188 293.345514 
L 128.836457 293.480094 
L 129.101535 294.308336 
L 129.167805 294.360215 
L 129.366614 295.051908 
L 129.631692 295.31849 
L 129.89677 295.09826 
L 130.029309 295.041204 
L 130.095579 295.021902 
L 130.294387 294.766694 
L 130.426926 294.583408 
L 130.625735 293.999183 
L 130.692005 294.150699 
L 130.957083 292.976696 
L 131.023352 293.388003 
L 131.089622 293.243012 
L 131.288431 292.129328 
L 131.42097 293.119786 
L 131.487239 292.270998 
L 131.553509 292.622111 
L 131.619778 293.228847 
L 131.818587 291.051836 
L 131.884857 290.747081 
L 132.017396 278.949012 
L 132.083665 246.352145 
L 132.149935 251.662634 
L 132.348744 289.352975 
L 132.547552 292.706755 
L 132.613822 293.12472 
L 132.680091 293.06824 
L 132.746361 291.715617 
L 132.81263 291.870025 
L 132.94517 290.820024 
L 133.077709 287.622738 
L 133.210248 288.327143 
L 133.342787 287.72733 
L 133.409056 289.421511 
L 133.541596 286.691258 
L 133.607865 289.068272 
L 133.674135 288.830123 
L 133.740404 288.953353 
L 133.872943 287.560743 
L 133.939213 289.670114 
L 134.005482 288.981331 
L 134.071752 288.401191 
L 134.4031 292.309414 
L 134.469369 292.075344 
L 134.535639 291.391629 
L 134.601908 291.70613 
L 134.668178 291.354807 
L 134.734447 291.498938 
L 134.800717 293.081985 
L 134.866987 292.382452 
L 134.933256 292.403213 
L 135.065795 291.48764 
L 135.198334 292.696055 
L 135.264604 292.008182 
L 135.397143 293.35517 
L 135.463413 293.180015 
L 135.529682 292.84465 
L 135.662221 293.294067 
L 135.728491 293.177482 
L 136.192378 295.111253 
L 136.324917 294.342196 
L 136.391186 294.492826 
L 136.457456 294.670627 
L 136.589995 294.439885 
L 136.722534 294.43236 
L 136.788804 294.31724 
L 136.855073 294.372658 
L 136.921343 294.850872 
L 136.987612 294.77659 
L 137.451499 295.124255 
L 137.584038 295.464379 
L 137.650308 295.303016 
L 137.915386 294.612054 
L 137.981656 294.653499 
L 138.047925 294.282832 
L 138.114195 294.588848 
L 138.313003 293.315135 
L 138.445543 293.581358 
L 138.644351 293.949152 
L 138.84316 293.528754 
L 138.975699 292.880796 
L 139.041968 294.264058 
L 139.108238 293.897913 
L 139.174508 294.268529 
L 139.240777 294.059808 
L 139.307047 294.070729 
L 139.439586 294.538752 
L 139.572125 294.41334 
L 139.638394 294.288401 
L 139.837203 294.685888 
L 139.903473 294.45248 
L 140.036012 294.706531 
L 140.102281 294.474566 
L 140.168551 294.691016 
L 140.23482 294.573943 
L 140.30109 294.398684 
L 140.433629 295.074853 
L 140.499899 294.740973 
L 140.566168 294.608494 
L 140.632438 294.676978 
L 140.897516 295.145952 
L 140.963786 295.106604 
L 141.030055 295.242344 
L 141.096325 295.170193 
L 141.295133 294.959111 
L 141.493942 294.708865 
L 141.626481 294.941434 
L 141.82529 293.866317 
L 141.891559 294.069952 
L 141.957829 293.588127 
L 142.024098 293.749365 
L 142.090368 294.282274 
L 142.156638 294.159636 
L 142.355446 293.497821 
L 142.421716 293.452119 
L 142.554255 293.682182 
L 142.620524 293.350691 
L 142.686794 293.565409 
L 142.885603 293.918341 
L 142.951872 293.845381 
L 143.018142 293.951242 
L 143.084411 293.143831 
L 143.21695 293.872645 
L 143.28322 293.839632 
L 143.34949 294.06469 
L 143.482029 293.583609 
L 143.614568 294.48437 
L 143.680837 294.469317 
L 143.813376 294.612351 
L 143.879646 294.342457 
L 144.078455 294.816128 
L 144.277263 295.170859 
L 144.409802 295.131389 
L 144.476072 295.177447 
L 144.608611 294.545071 
L 144.674881 294.822083 
L 145.138767 293.082264 
L 145.205037 293.020898 
L 145.337576 292.625339 
L 145.470115 292.696302 
L 145.602654 291.787868 
L 145.668924 290.72632 
L 145.801463 292.681742 
L 145.867733 292.299328 
L 145.934002 291.964723 
L 146.331619 294.718379 
L 146.397889 293.980432 
L 146.530428 288.858906 
L 146.596698 280.464938 
L 146.662967 228.148604 
L 146.729237 247.851127 
L 146.928045 283.872067 
L 147.060585 289.059693 
L 147.193124 290.895689 
L 147.259393 290.88897 
L 147.458202 293.324083 
L 147.524471 293.086119 
L 147.657011 293.497295 
L 147.855819 292.597777 
L 147.988358 293.427604 
L 148.054628 293.351623 
L 148.120897 293.3229 
L 148.253437 292.959662 
L 148.319706 293.426596 
L 148.385976 293.299156 
L 148.452245 293.323729 
L 148.651054 294.188507 
L 148.982402 295.397838 
L 149.313749 294.756528 
L 149.578828 293.737594 
L 149.645097 294.304983 
L 149.711367 294.099455 
L 149.910175 293.903351 
L 150.108984 294.44442 
L 150.175254 294.245155 
L 150.241523 294.249956 
L 150.77168 295.173808 
L 150.837949 294.964658 
L 150.970488 295.318204 
L 151.235566 295.045973 
L 151.898262 295.026664 
L 152.16334 295.110997 
L 152.627227 295.124669 
L 152.958575 295.069023 
L 153.289923 295.0688 
L 153.422462 295.03544 
L 153.820079 295.089609 
L 154.085157 295.18412 
L 154.151427 295.119997 
L 154.217696 295.202487 
L 155.21174 295.363408 
L 155.278009 295.18038 
L 155.344279 295.311029 
L 155.543087 295.434282 
L 156.006974 295.156002 
L 156.6034 294.990108 
L 156.66967 295.114708 
L 156.735939 295.044357 
L 156.802209 295.124596 
L 156.868479 295.060258 
L 157.067287 294.9738 
L 157.133557 295.215716 
L 157.199826 295.09998 
L 157.398635 295.071051 
L 157.464905 294.885498 
L 157.531174 294.926985 
L 157.597444 294.948329 
L 157.729983 294.617671 
L 157.796252 294.809565 
L 157.862522 294.766501 
L 158.061331 294.38305 
L 158.1276 294.300168 
L 158.19387 294.540381 
L 158.260139 294.410695 
L 158.392678 294.095156 
L 158.458948 294.13101 
L 158.657756 294.446393 
L 158.790296 294.340488 
L 158.922835 294.437252 
L 158.989104 294.47659 
L 159.055374 294.710779 
L 159.121643 294.679134 
L 159.254182 294.766373 
L 159.320452 295.083159 
L 159.386722 294.68235 
L 159.452991 294.923289 
L 159.519261 294.699016 
L 159.58553 294.765371 
L 159.6518 294.730247 
L 159.718069 294.466949 
L 159.784339 294.798158 
L 159.850608 294.622559 
L 160.115687 294.047791 
L 160.181956 294.163987 
L 160.314495 293.949763 
L 160.645843 294.395859 
L 160.712113 294.190921 
L 160.844652 294.534973 
L 160.910921 294.389343 
L 161.04346 295.299464 
L 161.10973 295.179528 
L 161.176 293.296111 
L 161.242269 279.814719 
L 161.374808 293.81348 
L 161.573617 294.283307 
L 161.772426 294.811146 
L 162.170043 295.195455 
L 162.435121 295.212119 
L 162.56766 295.096974 
L 162.63393 294.928881 
L 162.700199 295.010489 
L 162.766469 295.051985 
L 162.832738 294.863007 
L 162.899008 295.142884 
L 162.965278 295.061111 
L 163.097817 294.891993 
L 163.164086 295.224431 
L 163.230356 295.190075 
L 163.296625 295.195724 
L 163.362895 294.988847 
L 163.429164 295.11722 
L 163.561704 295.124792 
L 163.826782 295.073717 
L 164.02559 295.180176 
L 164.356938 295.3986 
L 164.489477 295.449625 
L 164.622016 295.35406 
L 164.820825 295.204241 
L 164.887095 295.223485 
L 165.085903 294.844269 
L 165.218442 294.831813 
L 165.54979 294.568025 
L 165.682329 294.645353 
L 165.748599 294.630257 
L 165.881138 294.882238 
L 166.013677 294.475305 
L 166.212486 294.953501 
L 166.477564 295.122003 
L 166.610103 294.993356 
L 166.808912 295.298668 
L 166.941451 295.231443 
L 167.272799 294.961644 
L 167.339068 295.046554 
L 167.405338 294.966469 
L 167.537877 295.127928 
L 167.670416 294.846728 
L 167.869225 295.015305 
L 168.068033 295.081757 
L 168.333111 295.254876 
L 168.399381 295.184622 
L 168.465651 295.2648 
L 168.796998 295.478212 
L 169.658502 295.391838 
L 170.122389 295.367358 
L 170.453737 295.216027 
L 170.652546 295.149451 
L 170.718815 295.244111 
L 170.785085 295.195825 
L 171.315241 294.915485 
L 171.44778 294.973613 
L 171.51405 295.142358 
L 171.58032 295.028341 
L 171.845398 294.825588 
L 171.977937 295.009074 
L 172.044206 294.915328 
L 172.110476 295.063162 
L 172.176746 294.99177 
L 172.309285 294.966361 
L 172.508093 295.13448 
L 172.706902 295.113832 
L 172.97198 295.238869 
L 173.237058 295.36206 
L 173.502137 295.419681 
L 174.231102 295.170129 
L 174.42991 295.001831 
L 174.49618 295.130376 
L 174.562449 295.03666 
L 174.761258 295.159991 
L 175.026336 295.092065 
L 175.225145 294.853317 
L 175.490223 294.386488 
L 175.556493 294.030761 
L 175.622762 294.361386 
L 175.755301 292.901719 
L 175.821571 281.049713 
L 175.95411 293.601484 
L 176.086649 294.321964 
L 176.152919 293.948249 
L 176.219188 294.066767 
L 176.616806 294.722084 
L 176.815614 294.755364 
L 177.014423 295.163334 
L 177.080693 295.018396 
L 177.146962 295.139079 
L 177.213232 295.228544 
L 177.279501 295.145106 
L 177.47831 295.035354 
L 177.610849 295.048858 
L 177.875927 294.956305 
L 177.942197 295.114838 
L 178.008466 295.044149 
L 178.141005 295.142535 
L 178.273545 295.209321 
L 178.339814 295.007598 
L 178.406084 295.156287 
L 178.604892 295.0586 
L 178.737431 295.035848 
L 178.86997 294.817403 
L 178.93624 294.886317 
L 179.068779 294.946083 
L 179.201318 294.661668 
L 179.267588 294.777348 
L 179.797744 295.055814 
L 179.864014 294.94818 
L 180.062822 295.278152 
L 180.46044 295.430037 
L 180.659248 295.401352 
L 181.520753 295.19697 
L 181.587022 295.127919 
L 181.653292 295.195207 
L 182.315987 295.153701 
L 182.581066 295.308624 
L 184.105265 295.397486 
L 184.171535 295.237512 
L 184.237804 295.286737 
L 184.502883 295.241138 
L 184.635422 295.144483 
L 184.83423 295.088445 
L 184.9005 294.945105 
L 184.966769 295.022176 
L 185.099309 295.046818 
L 185.629465 295.089736 
L 185.894543 295.283887 
L 186.225891 295.058363 
L 186.292161 295.294269 
L 186.35843 295.214333 
L 186.888587 295.150254 
L 187.087395 295.163815 
L 187.219934 295.097399 
L 187.286204 295.090563 
L 187.352473 295.207845 
L 187.418743 295.146771 
L 187.617552 295.237671 
L 187.750091 295.149627 
L 187.81636 295.2805 
L 187.948899 295.084701 
L 188.213978 295.151883 
L 188.280247 295.172044 
L 188.346517 294.895049 
L 188.412786 295.040383 
L 188.744134 295.231982 
L 188.942943 295.196517 
L 189.141751 295.429272 
L 189.936986 294.28076 
L 190.334603 292.836654 
L 190.400873 268.842269 
L 190.467142 294.773697 
L 190.533412 294.578212 
L 190.599682 293.94484 
L 190.665951 294.157146 
L 190.79849 294.599034 
L 190.86476 294.478738 
L 190.931029 294.564436 
L 190.997299 294.593208 
L 191.262377 295.036814 
L 191.659994 295.388185 
L 191.925073 295.087777 
L 192.521499 295.028583 
L 193.383003 295.419981 
L 193.648081 295.359996 
L 193.979429 295.288804 
L 195.30482 295.367596 
L 195.967515 295.369447 
L 196.298863 295.410148 
L 196.961559 295.430478 
L 197.557985 295.423741 
L 198.021872 295.397709 
L 198.684567 295.275367 
L 198.750837 294.940727 
L 198.817106 295.076184 
L 198.949645 295.296444 
L 199.413532 295.218371 
L 199.877419 295.272284 
L 200.076228 295.273674 
L 200.275036 295.305235 
L 200.540115 295.191001 
L 200.738923 295.310824 
L 200.871462 295.35518 
L 201.335349 295.308975 
L 201.865506 295.311751 
L 202.064314 295.304112 
L 202.594471 295.363067 
L 202.79328 295.254892 
L 202.859549 295.325281 
L 202.925819 295.196301 
L 202.992088 295.248687 
L 204.18494 295.351298 
L 204.317479 295.446202 
L 204.648827 295.102726 
L 204.847636 294.46899 
L 204.913905 293.724013 
L 204.980175 290.291891 
L 205.046444 295.272009 
L 205.112714 295.129033 
L 205.245253 294.773918 
L 205.311523 294.841201 
L 205.377792 294.987664 
L 205.444062 294.917207 
L 205.907949 294.960344 
L 206.173027 295.179976 
L 206.305566 295.141338 
L 206.371835 295.058685 
L 206.438105 295.188068 
L 206.504375 295.127191 
L 206.636914 295.177867 
L 206.769453 295.187008 
L 206.968261 295.284801 
L 207.100801 295.298275 
L 207.23334 295.38561 
L 208.492461 295.301463 
L 208.625 295.335006 
L 208.823809 295.324031 
L 209.486504 295.412221 
L 210.016661 295.152324 
L 210.1492 295.008953 
L 210.21547 295.154444 
L 210.281739 295.039104 
L 210.348009 295.135808 
L 210.414278 295.071676 
L 210.679356 294.91054 
L 210.878165 295.133564 
L 210.944435 295.041128 
L 211.010704 295.025958 
L 211.143243 295.135295 
L 211.209513 294.81889 
L 211.408322 295.351078 
L 212.402365 295.222908 
L 212.866252 295.350761 
L 213.462678 295.34623 
L 214.059104 295.379199 
L 214.522991 295.448077 
L 215.185686 295.190081 
L 215.251956 295.273126 
L 215.384495 295.170192 
L 215.583303 295.273021 
L 216.179729 295.376901 
L 216.577347 295.126156 
L 216.709886 295.136557 
L 216.842425 295.088658 
L 216.908695 295.188208 
L 217.041234 295.085636 
L 217.240042 295.204594 
L 217.438851 295.352595 
L 217.505121 294.957401 
L 217.57139 295.204193 
L 217.836468 295.221634 
L 218.167816 295.037484 
L 218.366625 295.151589 
L 218.432894 295.135713 
L 218.631703 295.318154 
L 218.764242 295.23692 
L 219.294398 292.779142 
L 219.426938 289.409095 
L 219.559477 262.12043 
L 219.692016 293.163491 
L 219.890824 294.800294 
L 220.089633 294.234551 
L 220.155903 294.610722 
L 220.222172 294.592657 
L 220.288442 294.288275 
L 220.354711 294.41433 
L 220.420981 294.528237 
L 220.48725 294.246413 
L 220.752329 294.855425 
L 221.083676 295.428036 
L 221.415024 294.793336 
L 221.481294 294.829686 
L 221.547563 294.917487 
L 221.613833 294.423149 
L 221.680102 294.879195 
L 221.746372 294.837776 
L 221.812642 294.72022 
L 222.01145 295.09383 
L 222.07772 295.049079 
L 222.409068 295.374962 
L 222.541607 295.306139 
L 222.740415 295.083235 
L 223.403111 295.155173 
L 223.46938 295.35469 
L 223.53565 295.327672 
L 223.668189 295.298001 
L 223.734459 295.023631 
L 223.800728 295.335587 
L 223.866998 295.240464 
L 224.264615 294.990708 
L 224.595963 295.036007 
L 224.794771 295.149708 
L 224.927311 295.192841 
L 225.192389 295.305672 
L 225.324928 295.109061 
L 225.391197 295.302105 
L 225.457467 295.278156 
L 225.788815 295.025831 
L 225.921354 295.096164 
L 226.186432 295.172029 
L 226.584049 295.33023 
L 227.114206 295.150978 
L 227.180475 295.240888 
L 227.379284 294.985111 
L 227.843171 295.342549 
L 227.909441 295.053296 
L 227.97571 295.137135 
L 228.174519 295.293954 
L 228.638406 295.356872 
L 228.969753 295.190355 
L 229.102292 295.010998 
L 229.168562 295.199158 
L 229.234832 295.135747 
L 229.43364 295.082605 
L 229.698718 295.091706 
L 229.897527 295.257738 
L 230.030066 295.138107 
L 230.228875 295.383607 
L 230.493953 295.311062 
L 230.759031 295.206827 
L 231.02411 295.284302 
L 231.156649 295.17918 
L 231.951883 295.40047 
L 232.084422 295.282983 
L 232.41577 295.438538 
L 233.277274 295.265603 
L 233.542353 295.304979 
L 233.674892 294.961303 
L 233.8737 293.984345 
L 234.006239 291.655075 
L 234.138779 280.034532 
L 234.271318 293.799228 
L 234.403857 295.227233 
L 234.470126 295.114391 
L 234.602665 294.970685 
L 234.668935 295.002873 
L 234.867744 294.439062 
L 234.934013 294.424529 
L 235.000283 294.232799 
L 235.132822 294.512279 
L 235.199091 294.505413 
L 235.265361 294.338752 
L 235.530439 294.991516 
L 235.729248 295.282496 
L 235.861787 295.436499 
L 236.259404 294.885883 
L 236.391943 294.936532 
L 236.524483 294.894825 
L 236.723291 294.697405 
L 236.85583 295.194842 
L 237.054639 295.253371 
L 237.187178 295.334116 
L 237.916143 294.883222 
L 238.048682 294.713786 
L 238.247491 295.175481 
L 238.4463 295.188812 
L 238.910186 295.305701 
L 239.307804 295.00958 
L 239.374073 294.860222 
L 239.440343 294.944564 
L 239.639152 294.877684 
L 239.705421 294.591669 
L 239.771691 294.860365 
L 239.83796 294.779795 
L 240.036769 295.001066 
L 240.103038 294.93284 
L 240.235578 294.674489 
L 240.301847 294.646754 
L 240.368117 294.860223 
L 240.434386 294.717609 
L 240.500656 294.856333 
L 240.566925 294.76433 
L 240.832004 294.875057 
L 240.898273 294.799982 
L 241.229621 295.156399 
L 241.560969 295.376749 
L 242.289934 294.978795 
L 242.422473 295.13465 
L 242.488742 295.289597 
L 242.555012 295.236612 
L 242.88636 295.3658 
L 243.151438 295.424934 
L 244.012942 295.240755 
L 244.27802 295.38848 
L 244.543099 295.110764 
L 244.675638 295.367975 
L 244.940716 295.349995 
L 245.735951 295.043736 
L 245.934759 294.937834 
L 246.067298 295.013798 
L 246.133568 295.109004 
L 246.266107 294.690801 
L 246.332377 294.718624 
L 246.464916 294.769684 
L 246.531185 294.668852 
L 246.597455 295.262384 
L 246.663724 294.552557 
L 246.729994 294.772451 
L 246.796263 294.969925 
L 246.862533 294.828612 
L 247.127611 294.859771 
L 247.392689 295.345426 
L 247.458959 295.295997 
L 247.525229 295.268636 
L 247.657768 295.414363 
L 248.055385 295.106791 
L 248.187924 295.254812 
L 248.320463 294.741486 
L 248.519272 292.634646 
L 248.585541 291.423727 
L 248.651811 281.503495 
L 248.71808 284.929614 
L 248.916889 293.676812 
L 249.115698 295.089693 
L 249.314506 295.23605 
L 249.778393 294.9247 
L 250.24228 294.775193 
L 250.30855 294.569331 
L 250.441089 294.81405 
L 250.507358 294.737496 
L 250.573628 294.838585 
L 250.706167 294.619345 
L 250.772437 294.962512 
L 250.838706 294.817019 
L 251.103784 294.955685 
L 251.302593 295.092535 
L 251.567671 295.051192 
L 251.76648 295.108947 
L 251.83275 295.086406 
L 251.899019 295.240789 
L 251.965289 295.150582 
L 252.164097 295.140805 
L 252.296636 295.174486 
L 252.429176 295.103143 
L 252.561715 295.152943 
L 252.826793 294.922998 
L 252.959332 295.071288 
L 253.025602 295.074762 
L 253.158141 294.761265 
L 253.423219 294.784041 
L 253.489488 294.663678 
L 253.622028 294.869365 
L 253.688297 294.845261 
L 253.754567 294.507483 
L 253.953375 294.973401 
L 254.019645 294.983696 
L 254.085914 294.857839 
L 254.350993 295.21571 
L 254.68234 295.459668 
L 254.881149 295.331009 
L 254.947419 295.14321 
L 255.013688 295.241718 
L 255.411305 295.110121 
L 255.543845 295.112947 
L 255.676384 295.162148 
L 255.808923 295.221127 
L 255.941462 295.323812 
L 256.339079 295.329322 
L 256.604157 295.289251 
L 256.935505 295.203513 
L 257.001775 295.068272 
L 257.068044 295.237138 
L 257.134314 295.169978 
L 257.465662 295.226283 
L 257.531931 295.075893 
L 257.598201 295.161264 
L 257.929549 295.161413 
L 257.995818 294.977424 
L 258.062088 295.110925 
L 258.923592 295.089552 
L 259.056131 295.23068 
L 259.1224 294.982136 
L 259.18867 295.04328 
L 259.321209 295.113551 
L 259.453748 295.208371 
L 259.718826 294.912829 
L 259.785096 294.908595 
L 259.851366 295.076601 
L 259.917635 295.04561 
L 260.248983 294.939191 
L 260.381522 295.07604 
L 260.447792 294.992475 
L 260.580331 295.100866 
L 260.71287 295.136079 
L 260.779139 295.101727 
L 260.977948 295.220036 
L 261.110487 295.224473 
L 261.176757 294.965854 
L 261.309296 295.430351 
L 261.375565 295.40077 
L 261.905722 295.190361 
L 262.10453 295.015976 
L 262.435878 294.955207 
L 262.833496 295.344175 
L 263.098574 292.292364 
L 263.164843 289.487535 
L 263.231113 265.832002 
L 263.297382 276.47357 
L 263.429922 290.107282 
L 263.62873 292.680088 
L 263.827539 293.848958 
L 263.893808 293.871451 
L 264.291426 295.239645 
L 264.556504 294.683104 
L 264.622773 294.84973 
L 264.755313 294.469643 
L 264.821582 294.638284 
L 264.887852 294.53417 
L 264.954121 294.419723 
L 265.020391 294.627074 
L 265.219199 294.371444 
L 265.484278 295.035144 
L 265.749356 295.291224 
L 266.014434 295.250788 
L 266.412051 295.123986 
L 267.207286 295.292609 
L 267.339825 295.232457 
L 267.406095 294.99322 
L 267.472364 295.192833 
L 267.538634 295.136493 
L 267.803712 295.108242 
L 267.869982 294.856772 
L 268.06879 295.239356 
L 268.333869 295.108991 
L 268.532677 295.225426 
L 269.261642 295.084012 
L 269.327912 295.199718 
L 269.394181 295.152528 
L 269.59299 295.094783 
L 269.924338 295.233264 
L 270.587033 295.137621 
L 270.785842 295.383778 
L 271.05092 295.284712 
L 271.779885 295.237767 
L 271.978694 295.31818 
L 272.442581 295.276591 
L 272.64139 295.262746 
L 272.840198 295.104019 
L 273.105276 295.103919 
L 273.635433 294.697007 
L 273.767972 295.333608 
L 273.900511 294.842816 
L 274.03305 294.86315 
L 274.298128 295.074685 
L 274.364398 295.080381 
L 274.430667 294.971492 
L 274.496937 295.065338 
L 274.563207 295.024039 
L 274.629476 295.157871 
L 274.695746 295.067006 
L 274.828285 295.108438 
L 274.960824 295.156295 
L 275.159633 295.181316 
L 275.55725 295.297481 
L 275.954867 295.339419 
L 276.021137 295.384512 
L 276.153676 295.136327 
L 276.286215 295.183486 
L 276.485024 294.950386 
L 276.551293 295.03431 
L 277.213989 294.911279 
L 277.280258 294.783196 
L 277.346528 294.87809 
L 277.412797 294.846856 
L 277.479067 295.078818 
L 277.677876 294.039325 
L 277.744145 292.260794 
L 277.810415 280.356375 
L 277.942954 293.769486 
L 278.141763 294.448805 
L 278.406841 294.831244 
L 278.53938 294.729634 
L 279.135806 294.991928 
L 279.334614 295.067301 
L 279.400884 294.974909 
L 279.467154 295.059028 
L 279.599693 295.023431 
L 279.732232 294.961621 
L 279.798501 294.963326 
L 279.864771 294.794373 
L 279.93104 295.078488 
L 279.99731 294.987874 
L 280.129849 294.945242 
L 280.262388 295.127995 
L 280.394927 294.881746 
L 281.190162 295.128087 
L 281.45524 295.012189 
L 281.52151 295.168564 
L 281.654049 294.833201 
L 281.985397 295.172881 
L 282.117936 294.917024 
L 282.316744 295.127306 
L 282.648092 295.317869 
L 282.846901 295.476553 
L 283.178249 295.223718 
L 283.840944 295.14342 
L 284.43737 295.4332 
L 285.563953 294.938817 
L 285.696492 295.027009 
L 285.829031 294.932441 
L 285.8953 294.816113 
L 286.027839 295.12298 
L 286.160379 295.016717 
L 286.292918 295.221599 
L 286.425457 295.029262 
L 287.552039 295.422728 
L 288.015926 295.312662 
L 288.148465 295.321227 
L 288.214735 295.146291 
L 288.281004 295.425887 
L 288.347274 295.384522 
L 289.142508 295.339358 
L 289.606395 295.176987 
L 289.805204 295.24352 
L 290.004013 295.192768 
L 290.269091 295.039291 
L 290.33536 295.334027 
L 290.40163 295.240149 
L 290.600439 295.139177 
L 290.865517 295.200854 
L 290.998056 295.10681 
L 291.395673 295.424652 
L 291.528212 295.302896 
L 291.660752 294.997461 
L 291.793291 294.981259 
L 291.992099 294.734425 
L 292.124638 294.794294 
L 292.323447 294.885774 
L 292.389717 277.87882 
L 292.522256 293.362586 
L 292.588525 294.211849 
L 292.654795 293.975581 
L 292.787334 294.016415 
L 292.919873 294.313774 
L 293.118682 294.689536 
L 293.516299 295.267799 
L 293.715108 295.316477 
L 294.112725 295.079984 
L 294.444073 294.910285 
L 294.510342 295.126398 
L 294.576612 295.049339 
L 294.642881 294.894203 
L 294.709151 294.930463 
L 294.775421 294.961211 
L 294.84169 294.794099 
L 294.90796 294.878658 
L 295.040499 295.00942 
L 295.239307 294.665516 
L 295.305577 294.762421 
L 295.371847 294.708569 
L 295.438116 294.687965 
L 295.504386 294.838484 
L 295.570655 294.742215 
L 295.636925 294.757909 
L 295.769464 294.877308 
L 295.835733 294.791161 
L 295.902003 294.861418 
L 296.29962 295.239383 
L 296.432159 295.295816 
L 296.630968 295.396335 
L 296.962316 295.409502 
L 297.757551 295.405983 
L 298.552785 295.256503 
L 298.619055 295.303582 
L 298.685324 295.171748 
L 298.751594 295.267257 
L 299.679368 295.318944 
L 300.010715 295.238132 
L 301.004759 295.38635 
L 301.203567 295.334954 
L 301.534915 295.311877 
L 301.799993 295.305835 
L 301.866263 295.37377 
L 301.932532 295.297325 
L 302.462689 295.37652 
L 302.727767 295.403758 
L 302.794037 295.230627 
L 302.926576 295.479653 
L 303.390463 295.368232 
L 303.523002 295.325573 
L 303.854349 295.293481 
L 304.450775 295.209137 
L 304.782123 295.143146 
L 304.848393 295.00715 
L 304.914662 295.382185 
L 304.980932 295.257065 
L 305.444819 295.088438 
L 305.908706 295.370444 
L 306.041245 295.343942 
L 306.173784 295.303361 
L 306.306323 295.267944 
L 306.505132 295.119682 
L 306.902749 294.882233 
L 306.969019 286.739143 
L 307.101558 294.946693 
L 307.234097 294.964996 
L 307.366636 295.205558 
L 307.499175 295.195683 
L 307.631714 295.260727 
L 307.697984 295.203577 
L 307.764253 295.291338 
L 308.426949 295.342903 
L 308.758296 295.239222 
L 308.957105 295.239419 
L 309.023375 294.99856 
L 309.155914 295.332226 
L 309.951148 295.218909 
L 310.083688 295.165991 
L 310.216227 295.196058 
L 310.415035 295.164255 
L 311.011461 295.375347 
L 311.144 295.18901 
L 311.27654 295.377405 
L 311.806696 295.199053 
L 312.005505 295.249226 
L 312.336852 295.310853 
L 312.800739 295.365372 
L 313.132087 295.306995 
L 313.198357 295.037339 
L 313.264626 295.356177 
L 313.330896 295.297056 
L 313.662244 295.272558 
L 314.391209 295.458264 
L 315.186443 295.208198 
L 315.252713 295.072362 
L 315.318982 295.131425 
L 315.517791 295.296696 
L 315.7166 295.294783 
L 316.180487 295.287626 
L 316.379295 295.313657 
L 317.307069 295.359151 
L 317.373339 295.006628 
L 317.505878 295.394499 
L 317.837225 295.450211 
L 318.102304 295.421631 
L 318.764999 295.288921 
L 318.831269 295.33793 
L 318.963808 295.24809 
L 319.162616 295.258508 
L 319.361425 295.232971 
L 319.427695 294.713409 
L 319.560234 295.421726 
L 319.626503 295.398065 
L 320.024121 295.166126 
L 320.620547 295.309577 
L 321.150703 294.31115 
L 321.349512 293.563248 
L 321.415781 292.886483 
L 321.482051 290.395131 
L 321.54832 277.276174 
L 321.68086 295.233268 
L 321.747129 295.195512 
L 321.879668 294.950755 
L 321.945938 295.038616 
L 322.012207 294.988521 
L 322.211016 295.041669 
L 322.476094 295.368725 
L 322.674903 295.342779 
L 323.13879 295.18886 
L 323.536407 295.342061 
L 323.602677 295.151442 
L 323.735216 295.460461 
L 323.801485 295.383408 
L 324.59672 295.354925 
L 325.060607 295.40322 
L 325.524494 295.379651 
L 325.723302 295.335208 
L 325.855841 295.41927 
L 326.319728 295.400686 
L 326.783615 295.409567 
L 327.114963 295.331466 
L 327.910198 295.33417 
L 328.705432 295.453086 
L 329.10305 295.314803 
L 329.500667 295.296456 
L 330.826058 295.387273 
L 331.289945 295.382103 
L 331.886371 295.452283 
L 331.95264 295.255346 
L 332.08518 295.42765 
L 332.283988 295.335915 
L 332.549066 295.240235 
L 332.946684 295.240061 
L 333.079223 295.046975 
L 333.278032 295.206636 
L 333.47684 295.312028 
L 333.940727 295.351677 
L 334.006997 295.21958 
L 334.073266 295.352654 
L 334.139536 295.280126 
L 334.404614 294.97357 
L 334.537153 295.183849 
L 334.735962 295.134507 
L 334.93477 295.218652 
L 335.199849 295.375321 
L 335.398657 294.996471 
L 335.796275 294.023757 
L 335.928814 293.351684 
L 335.995083 292.394101 
L 336.127622 280.860691 
L 336.260161 294.200828 
L 336.52524 295.116443 
L 336.657779 295.113649 
L 336.989127 294.994942 
L 337.055396 294.949297 
L 337.187935 295.026226 
L 337.386744 294.964645 
L 337.651822 295.135472 
L 338.049439 295.152056 
L 338.115709 295.239482 
L 338.181979 295.062549 
L 338.314518 295.334835 
L 338.844674 295.286143 
L 338.977213 295.176084 
L 339.176022 295.28027 
L 339.37483 295.263744 
L 339.838717 295.316746 
L 340.236335 295.042258 
L 340.368874 295.407427 
L 340.766491 295.303938 
L 340.89903 295.329707 
L 341.097839 295.326518 
L 341.495456 295.275909 
L 341.627995 295.267441 
L 342.025613 295.294199 
L 342.290691 295.366738 
L 342.35696 295.095572 
L 342.4895 295.368819 
L 343.085926 295.431266 
L 344.278777 295.289872 
L 344.411317 295.12173 
L 344.477586 295.407327 
L 344.543856 295.354437 
L 344.808934 295.367007 
L 345.272821 295.44354 
L 346.465673 295.247407 
L 346.531942 295.451925 
L 346.598212 295.307007 
L 346.86329 295.198029 
L 347.194638 295.287845 
L 347.327177 295.310678 
L 348.520029 295.206202 
L 348.586299 295.37865 
L 348.785107 295.160527 
L 349.116455 295.448748 
L 349.315264 295.436261 
L 349.646611 295.293128 
L 349.977959 295.314112 
L 350.176768 295.181239 
L 350.375576 294.539266 
L 350.508116 293.707299 
L 350.574385 292.440916 
L 350.706924 284.571165 
L 350.905733 295.073389 
L 351.104542 295.267641 
L 351.36962 295.030389 
L 351.700968 295.205018 
L 351.833507 295.242334 
L 352.032315 295.407927 
L 352.231124 295.268206 
L 352.363663 295.23938 
L 352.695011 295.156479 
L 352.76128 294.874612 
L 352.960089 295.185066 
L 353.225167 295.194528 
L 353.357706 295.230123 
L 353.490246 295.430478 
L 353.887863 295.344022 
L 354.815637 295.322535 
L 355.014445 295.178663 
L 355.544602 295.246027 
L 355.942219 295.336032 
L 356.074758 295.357308 
L 356.472375 295.345732 
L 357.400149 295.443076 
L 357.930306 295.421396 
L 359.719584 295.357996 
L 359.918392 295.367555 
L 360.050931 295.338044 
L 360.448549 295.379171 
L 362.304096 295.206107 
L 362.569174 295.199431 
L 362.701714 295.280806 
L 362.966792 295.134908 
L 364.954878 295.378058 
L 365.153687 295.214433 
L 365.219957 294.611778 
L 365.286226 294.858498 
L 365.418765 295.382607 
L 365.816383 295.395031 
L 366.015191 295.395105 
L 366.942965 295.362642 
L 367.141774 295.334187 
L 368.268356 295.255385 
L 368.400895 295.235687 
L 368.864782 295.317156 
L 369.394938 295.271184 
L 369.527478 295.393576 
L 370.322712 295.473301 
L 373.967538 295.382624 
L 375.491737 295.438603 
L 376.883398 295.446037 
L 377.546094 295.455613 
L 378.473867 295.377124 
L 378.937754 295.363842 
L 379.60045 295.348218 
L 379.666719 295.272188 
L 379.732989 294.968116 
L 379.799258 292.807668 
L 379.865528 294.206921 
L 380.064337 295.214165 
L 380.329415 295.351794 
L 380.660763 295.383982 
L 385.49844 295.394777 
L 385.896057 295.406267 
L 386.227405 295.415567 
L 386.492483 295.398252 
L 388.082953 295.428966 
L 388.215492 295.429445 
L 392.125396 295.466343 
L 393.119439 295.439939 
L 393.914673 295.35774 
L 394.113482 295.383768 
L 394.246021 295.415009 
L 394.312291 295.13259 
L 394.37856 292.157924 
L 394.511099 294.917541 
L 394.776178 295.307588 
L 395.173795 295.386298 
L 395.637682 295.406953 
L 396.101569 295.357739 
L 396.300377 295.373264 
L 396.697995 295.427874 
L 398.487273 295.461671 
L 398.487273 295.461671 
" clip-path="url(#pd07499f4df)" style="fill: none; stroke: #1f77b4; stroke-width: 1.5; stroke-linecap: square"/>
   </g>
   <g id="patch_3">
    <path d="M 57.6 307.584 
L 57.6 41.472 
" style="fill: none; stroke: #000000; stroke-width: 0.8; stroke-linejoin: miter; stroke-linecap: square"/>
   </g>
   <g id="patch_4">
    <path d="M 414.72 307.584 
L 414.72 41.472 
" style="fill: none; stroke: #000000; stroke-width: 0.8; stroke-linejoin: miter; stroke-linecap: square"/>
   </g>
   <g id="patch_5">
    <path d="M 57.6 307.584 
L 414.72 307.584 
" style="fill: none; stroke: #000000; stroke-width: 0.8; stroke-linejoin: miter; stroke-linecap: square"/>
   </g>
   <g id="patch_6">
    <path d="M 57.6 41.472 
L 414.72 41.472 
" style="fill: none; stroke: #000000; stroke-width: 0.8; stroke-linejoin: miter; stroke-linecap: square"/>
   </g>
   <g id="text_19">
    <text style="font: 12px 'IPAexGothic'; text-anchor: middle" x="236.16" y="35.472" transform="rotate(-0 236.16 35.472)">"030_A3.wav"の振幅スペクトル</text>
   </g>
  </g>
 </g>
 <defs>
  <clipPath id="pd07499f4df">
   <rect x="57.6" y="41.472" width="357.12" height="266.112"/>
  </clipPath>
 </defs>
</svg>
