<?xml version="1.0" encoding="utf-8" standalone="no"?>
<!DOCTYPE svg PUBLIC "-//W3C//DTD SVG 1.1//EN"
  "http://www.w3.org/Graphics/SVG/1.1/DTD/svg11.dtd">
<svg xmlns:xlink="http://www.w3.org/1999/xlink" width="460.8pt" height="345.6pt" viewBox="0 0 460.8 345.6" xmlns="http://www.w3.org/2000/svg" version="1.1">
 <metadata>
  <rdf:RDF xmlns:dc="http://purl.org/dc/elements/1.1/" xmlns:cc="http://creativecommons.org/ns#" xmlns:rdf="http://www.w3.org/1999/02/22-rdf-syntax-ns#">
   <cc:Work>
    <dc:type rdf:resource="http://purl.org/dc/dcmitype/StillImage"/>
    <dc:date>2022-11-28T12:31:34.653144</dc:date>
    <dc:format>image/svg+xml</dc:format>
    <dc:creator>
     <cc:Agent>
      <dc:title>Matplotlib v3.6.2, https://matplotlib.org/</dc:title>
     </cc:Agent>
    </dc:creator>
   </cc:Work>
  </rdf:RDF>
 </metadata>
 <defs>
  <style type="text/css">*{stroke-linejoin: round; stroke-linecap: butt}</style>
 </defs>
 <g id="figure_1">
  <g id="patch_1">
   <path d="M 0 345.6 
L 460.8 345.6 
L 460.8 0 
L 0 0 
z
" style="fill: #ffffff"/>
  </g>
  <g id="axes_1">
   <g id="patch_2">
    <path d="M 57.6 307.584 
L 414.72 307.584 
L 414.72 41.472 
L 57.6 41.472 
z
" style="fill: #ffffff"/>
   </g>
   <g id="matplotlib.axis_1">
    <g id="xtick_1">
     <g id="line2d_1">
      <defs>
       <path id="m49d6a0c489" d="M 0 0 
L 0 3.5 
" style="stroke: #000000; stroke-width: 0.8"/>
      </defs>
      <g>
       <use xlink:href="#m49d6a0c489" x="73.832727" y="307.584" style="stroke: #000000; stroke-width: 0.8"/>
      </g>
     </g>
     <g id="text_1">
      <text style="font: 10px 'IPAexGothic'; text-anchor: middle" x="73.832727" y="322.074625" transform="rotate(-0 73.832727 322.074625)">0</text>
     </g>
    </g>
    <g id="xtick_2">
     <g id="line2d_2">
      <g>
       <use xlink:href="#m49d6a0c489" x="140.102281" y="307.584" style="stroke: #000000; stroke-width: 0.8"/>
      </g>
     </g>
     <g id="text_2">
      <text style="font: 10px 'IPAexGothic'; text-anchor: middle" x="140.102281" y="322.074625" transform="rotate(-0 140.102281 322.074625)">1000</text>
     </g>
    </g>
    <g id="xtick_3">
     <g id="line2d_3">
      <g>
       <use xlink:href="#m49d6a0c489" x="206.371835" y="307.584" style="stroke: #000000; stroke-width: 0.8"/>
      </g>
     </g>
     <g id="text_3">
      <text style="font: 10px 'IPAexGothic'; text-anchor: middle" x="206.371835" y="322.074625" transform="rotate(-0 206.371835 322.074625)">2000</text>
     </g>
    </g>
    <g id="xtick_4">
     <g id="line2d_4">
      <g>
       <use xlink:href="#m49d6a0c489" x="272.64139" y="307.584" style="stroke: #000000; stroke-width: 0.8"/>
      </g>
     </g>
     <g id="text_4">
      <text style="font: 10px 'IPAexGothic'; text-anchor: middle" x="272.64139" y="322.074625" transform="rotate(-0 272.64139 322.074625)">3000</text>
     </g>
    </g>
    <g id="xtick_5">
     <g id="line2d_5">
      <g>
       <use xlink:href="#m49d6a0c489" x="338.910944" y="307.584" style="stroke: #000000; stroke-width: 0.8"/>
      </g>
     </g>
     <g id="text_5">
      <text style="font: 10px 'IPAexGothic'; text-anchor: middle" x="338.910944" y="322.074625" transform="rotate(-0 338.910944 322.074625)">4000</text>
     </g>
    </g>
    <g id="xtick_6">
     <g id="line2d_6">
      <g>
       <use xlink:href="#m49d6a0c489" x="405.180498" y="307.584" style="stroke: #000000; stroke-width: 0.8"/>
      </g>
     </g>
     <g id="text_6">
      <text style="font: 10px 'IPAexGothic'; text-anchor: middle" x="405.180498" y="322.074625" transform="rotate(-0 405.180498 322.074625)">5000</text>
     </g>
    </g>
    <g id="text_7">
     <text style="font: 10px 'IPAexGothic'; text-anchor: middle" x="236.16" y="335.924625" transform="rotate(-0 236.16 335.924625)">周波数[Hz]</text>
    </g>
   </g>
   <g id="matplotlib.axis_2">
    <g id="ytick_1">
     <g id="line2d_7">
      <defs>
       <path id="mc86cb1c815" d="M 0 0 
L -3.5 0 
" style="stroke: #000000; stroke-width: 0.8"/>
      </defs>
      <g>
       <use xlink:href="#mc86cb1c815" x="57.6" y="295.491614" style="stroke: #000000; stroke-width: 0.8"/>
      </g>
     </g>
     <g id="text_8">
      <text style="font: 10px 'IPAexGothic'; text-anchor: end" x="50.6" y="299.236927" transform="rotate(-0 50.6 299.236927)">0.0</text>
     </g>
    </g>
    <g id="ytick_2">
     <g id="line2d_8">
      <g>
       <use xlink:href="#mc86cb1c815" x="57.6" y="256.504464" style="stroke: #000000; stroke-width: 0.8"/>
      </g>
     </g>
     <g id="text_9">
      <text style="font: 10px 'IPAexGothic'; text-anchor: end" x="50.6" y="260.249776" transform="rotate(-0 50.6 260.249776)">0.5</text>
     </g>
    </g>
    <g id="ytick_3">
     <g id="line2d_9">
      <g>
       <use xlink:href="#mc86cb1c815" x="57.6" y="217.517314" style="stroke: #000000; stroke-width: 0.8"/>
      </g>
     </g>
     <g id="text_10">
      <text style="font: 10px 'IPAexGothic'; text-anchor: end" x="50.6" y="221.262626" transform="rotate(-0 50.6 221.262626)">1.0</text>
     </g>
    </g>
    <g id="ytick_4">
     <g id="line2d_10">
      <g>
       <use xlink:href="#mc86cb1c815" x="57.6" y="178.530164" style="stroke: #000000; stroke-width: 0.8"/>
      </g>
     </g>
     <g id="text_11">
      <text style="font: 10px 'IPAexGothic'; text-anchor: end" x="50.6" y="182.275476" transform="rotate(-0 50.6 182.275476)">1.5</text>
     </g>
    </g>
    <g id="ytick_5">
     <g id="line2d_11">
      <g>
       <use xlink:href="#mc86cb1c815" x="57.6" y="139.543014" style="stroke: #000000; stroke-width: 0.8"/>
      </g>
     </g>
     <g id="text_12">
      <text style="font: 10px 'IPAexGothic'; text-anchor: end" x="50.6" y="143.288326" transform="rotate(-0 50.6 143.288326)">2.0</text>
     </g>
    </g>
    <g id="ytick_6">
     <g id="line2d_12">
      <g>
       <use xlink:href="#mc86cb1c815" x="57.6" y="100.555863" style="stroke: #000000; stroke-width: 0.8"/>
      </g>
     </g>
     <g id="text_13">
      <text style="font: 10px 'IPAexGothic'; text-anchor: end" x="50.6" y="104.301176" transform="rotate(-0 50.6 104.301176)">2.5</text>
     </g>
    </g>
    <g id="ytick_7">
     <g id="line2d_13">
      <g>
       <use xlink:href="#mc86cb1c815" x="57.6" y="61.568713" style="stroke: #000000; stroke-width: 0.8"/>
      </g>
     </g>
     <g id="text_14">
      <text style="font: 10px 'IPAexGothic'; text-anchor: end" x="50.6" y="65.314026" transform="rotate(-0 50.6 65.314026)">3.0</text>
     </g>
    </g>
    <g id="text_15">
     <text style="font: 10px 'IPAexGothic'; text-anchor: middle" x="29.460938" y="174.528" transform="rotate(-90 29.460938 174.528)">振幅</text>
    </g>
    <g id="text_16">
     <text style="font: 10px 'IPAexGothic'; text-anchor: start" x="57.6" y="38.472" transform="rotate(-0 57.6 38.472)">1e7</text>
    </g>
   </g>
   <g id="line2d_14">
    <path d="M 73.832727 272.295718 
L 73.965266 294.241821 
L 74.097805 294.877253 
L 74.230345 294.843262 
L 74.495423 294.99586 
L 74.95931 294.966892 
L 75.224388 295.04138 
L 75.489466 294.836829 
L 75.555736 294.974379 
L 75.622005 294.863743 
L 75.688275 294.929362 
L 75.754544 294.837174 
L 75.953353 295.109072 
L 76.284701 295.181267 
L 76.549779 295.045534 
L 76.616049 295.191269 
L 76.682318 295.118506 
L 76.947396 295.090268 
L 77.146205 295.20778 
L 77.345014 295.078022 
L 77.411283 295.185467 
L 77.477553 295.101848 
L 79.001752 295.244564 
L 79.200561 295.113061 
L 79.3331 295.210007 
L 79.465639 295.071596 
L 79.598178 295.210543 
L 79.863257 295.127797 
L 81.983882 295.301975 
L 82.116422 295.378678 
L 82.182691 295.13089 
L 82.248961 295.235094 
L 82.646578 295.122184 
L 82.779117 295.250301 
L 82.911656 295.160929 
L 83.176734 295.190442 
L 83.309274 295.002282 
L 83.441813 295.178603 
L 83.905699 295.096588 
L 84.237047 295.150377 
L 84.303317 295.07366 
L 84.435856 295.228813 
L 84.767204 295.200409 
L 84.966012 295.429498 
L 85.098551 295.339203 
L 85.36363 295.404058 
L 85.761247 295.418155 
L 87.550525 295.173599 
L 87.749334 295.124069 
L 87.881873 295.043787 
L 88.146951 295.151196 
L 88.34576 295.133011 
L 88.544568 295.231928 
L 88.610838 295.105397 
L 88.677107 295.179133 
L 88.809646 295.270745 
L 89.273533 295.311042 
L 89.472342 295.324552 
L 90.466385 295.317438 
L 90.532655 295.410431 
L 90.598924 295.329201 
L 90.797733 295.179409 
L 90.864003 295.291273 
L 91.062811 295.32787 
L 91.32789 295.231375 
L 91.526698 295.233766 
L 91.659237 295.269071 
L 91.791776 295.205831 
L 92.056855 295.244368 
L 92.255663 295.238729 
L 93.050898 295.317035 
L 93.249707 295.270726 
L 93.581054 295.36843 
L 94.906445 295.304527 
L 95.038985 295.297344 
L 95.237793 295.121297 
L 95.436602 295.275897 
L 95.70168 295.218846 
L 95.900489 295.27205 
L 96.099297 295.271357 
L 98.816349 295.316512 
L 98.882619 295.156775 
L 98.948888 295.246972 
L 99.081427 295.238789 
L 99.280236 295.266662 
L 99.412775 295.271242 
L 101.73221 295.358577 
L 101.997288 295.385537 
L 102.394905 295.405044 
L 103.388948 295.285089 
L 103.521488 295.255556 
L 103.919105 295.298456 
L 104.051644 295.26147 
L 104.117913 295.333245 
L 104.250453 295.239066 
L 104.449261 295.28418 
L 104.714339 295.220824 
L 105.045687 295.322398 
L 105.111957 295.14443 
L 105.178226 295.190601 
L 105.377035 295.269497 
L 105.907191 295.366862 
L 106.039731 295.284504 
L 106.238539 295.394323 
L 107.895278 295.345429 
L 108.027817 295.337059 
L 108.557974 295.285374 
L 109.02186 295.258107 
L 109.08813 295.173981 
L 109.286939 295.28633 
L 109.485747 295.264714 
L 109.684556 295.276367 
L 111.540104 295.416219 
L 111.937721 295.315752 
L 112.202799 295.315598 
L 112.467877 295.229591 
L 113.263112 295.166964 
L 113.329382 295.060619 
L 113.395651 295.160692 
L 113.52819 295.096716 
L 113.660729 295.115401 
L 113.793268 295.098465 
L 114.389694 295.17611 
L 114.522233 295.132387 
L 114.654773 295.223391 
L 114.919851 295.132557 
L 114.98612 295.302074 
L 115.05239 295.269866 
L 115.251199 295.197256 
L 115.383738 295.21184 
L 115.781355 295.276301 
L 116.112703 295.31483 
L 116.51032 295.381567 
L 118.167059 295.421288 
L 118.299598 295.369465 
L 118.564676 295.396392 
L 119.094833 295.333974 
L 119.293641 295.397581 
L 119.55872 295.363012 
L 120.088876 295.389673 
L 120.619032 295.404373 
L 122.54085 295.472353 
L 124.727745 295.401256 
L 124.860284 295.380169 
L 125.522979 295.376224 
L 125.655519 295.360854 
L 125.854327 295.350324 
L 126.517023 295.343572 
L 126.782101 295.315751 
L 133.806674 295.188096 
L 134.071752 295.11271 
L 135.993569 295.255373 
L 136.258647 295.392868 
L 136.324917 295.147754 
L 136.391186 295.216502 
L 136.656265 295.302153 
L 137.31896 295.263405 
L 137.650308 295.219493 
L 137.716577 295.202817 
L 137.849117 295.029905 
L 137.981656 295.165 
L 138.047925 295.071158 
L 138.114195 295.191642 
L 138.180464 295.131067 
L 138.445543 294.926196 
L 138.644351 295.020706 
L 138.909429 294.763643 
L 138.975699 294.596226 
L 139.041968 295.018425 
L 139.108238 294.86532 
L 139.174508 294.965926 
L 139.373316 294.840071 
L 139.439586 294.958677 
L 139.638394 294.709469 
L 139.837203 294.91445 
L 139.903473 294.734503 
L 140.036012 294.922352 
L 140.102281 294.756953 
L 140.168551 294.918196 
L 140.23482 294.835777 
L 140.30109 294.708552 
L 140.433629 295.063467 
L 140.499899 294.920639 
L 140.632438 294.853395 
L 140.897516 295.045833 
L 140.963786 294.931328 
L 141.030055 295.084381 
L 141.096325 294.984589 
L 141.493942 295.081213 
L 141.626481 295.270826 
L 141.75902 294.991154 
L 141.82529 294.943992 
L 141.891559 295.038905 
L 141.957829 294.893995 
L 142.024098 294.958059 
L 142.090368 295.133953 
L 142.156638 295.095574 
L 142.421716 294.798274 
L 142.554255 294.899068 
L 142.620524 294.723507 
L 142.686794 294.764665 
L 142.885603 294.806933 
L 143.018142 294.738892 
L 143.084411 294.241707 
L 143.150681 294.564488 
L 143.34949 294.535807 
L 143.482029 293.952235 
L 143.614568 294.564332 
L 143.680837 294.460261 
L 143.813376 294.425437 
L 143.879646 293.896293 
L 143.945915 294.182451 
L 144.012185 294.222272 
L 144.078455 293.959357 
L 144.210994 294.19681 
L 144.343533 293.650261 
L 144.409802 293.934666 
L 144.476072 294.155578 
L 144.542341 293.677738 
L 144.608611 293.980924 
L 144.674881 294.33843 
L 144.873689 293.714849 
L 144.939959 294.159309 
L 145.006228 293.85919 
L 145.138767 293.727353 
L 145.205037 293.84503 
L 145.271307 293.704661 
L 145.470115 294.055333 
L 145.536385 293.983306 
L 145.668924 293.105915 
L 145.801463 294.137114 
L 145.867733 294.025 
L 145.934002 293.741031 
L 146.000272 293.835599 
L 146.066541 294.06058 
L 146.19908 293.638165 
L 146.331619 294.002918 
L 146.397889 293.700275 
L 146.530428 294.205043 
L 146.795506 293.83041 
L 146.928045 293.747895 
L 146.994315 294.383797 
L 147.060585 294.216556 
L 147.126854 294.326836 
L 147.325663 294.026341 
L 147.458202 294.402063 
L 147.524471 294.187056 
L 147.590741 294.225418 
L 147.78955 294.340053 
L 147.855819 294.139044 
L 147.988358 294.570331 
L 148.120897 294.517647 
L 148.253437 294.359196 
L 148.319706 294.579492 
L 148.452245 294.330471 
L 148.518515 294.580139 
L 148.584784 294.484634 
L 148.717323 294.381984 
L 148.783593 294.786597 
L 148.849862 294.578848 
L 148.916132 294.539951 
L 148.982402 294.337986 
L 149.048671 294.443716 
L 149.313749 294.677455 
L 149.446288 294.387142 
L 149.512558 294.432139 
L 149.578828 294.24415 
L 149.645097 294.732918 
L 149.711367 294.542843 
L 149.910175 294.374095 
L 150.042714 294.507386 
L 150.108984 294.760359 
L 150.307793 294.335838 
L 150.374062 294.671635 
L 150.440332 294.402635 
L 150.506601 294.433327 
L 150.572871 294.744837 
L 150.70541 294.418378 
L 150.77168 294.635678 
L 150.837949 294.612469 
L 150.904219 294.384811 
L 150.970488 294.503477 
L 151.036758 294.690016 
L 151.103027 294.610374 
L 151.235566 294.45561 
L 151.368106 294.706828 
L 151.434375 294.680887 
L 151.500645 294.47884 
L 151.633184 294.823497 
L 151.765723 294.664736 
L 151.831992 294.837395 
L 151.898262 294.726566 
L 152.097071 294.933579 
L 152.295879 294.80658 
L 152.560958 295.164772 
L 152.693497 295.159866 
L 152.826036 295.23565 
L 153.024844 295.336179 
L 153.289923 295.479124 
L 153.820079 295.160884 
L 153.886349 295.164935 
L 154.018888 295.067083 
L 154.085157 295.09739 
L 154.151427 294.920516 
L 154.217696 294.945513 
L 154.681583 294.695073 
L 154.880392 294.517868 
L 154.946661 294.553857 
L 155.012931 294.730416 
L 155.079201 294.422447 
L 155.14547 294.502921 
L 155.21174 294.820027 
L 155.278009 293.93011 
L 155.344279 293.957612 
L 155.543087 294.447739 
L 155.609357 294.386087 
L 155.741896 294.540496 
L 155.874435 294.233068 
L 155.940705 293.71093 
L 156.006974 293.813305 
L 156.272053 294.466031 
L 156.6034 293.592781 
L 156.66967 294.446528 
L 156.735939 294.029871 
L 156.802209 294.431136 
L 156.868479 294.206526 
L 157.067287 293.854541 
L 157.133557 294.159586 
L 157.199826 294.14471 
L 157.266096 294.09519 
L 157.332365 294.285342 
L 157.398635 294.249227 
L 157.464905 293.887732 
L 157.531174 294.092491 
L 157.597444 294.220331 
L 157.729983 293.981158 
L 157.862522 294.365186 
L 157.928791 294.131997 
L 157.995061 294.348629 
L 158.061331 294.104136 
L 158.1276 294.128028 
L 158.19387 294.464371 
L 158.260139 294.346998 
L 158.392678 294.085653 
L 158.657756 294.547985 
L 158.724026 294.392157 
L 158.790296 294.381603 
L 158.856565 294.487789 
L 158.922835 294.393589 
L 158.989104 294.379073 
L 159.121643 294.520862 
L 159.254182 294.419685 
L 159.320452 294.840512 
L 159.386722 294.294567 
L 159.452991 294.590579 
L 159.519261 294.38788 
L 159.58553 294.508207 
L 159.6518 294.559378 
L 159.718069 294.410539 
L 159.784339 294.80172 
L 159.850608 294.703849 
L 159.916878 294.681377 
L 159.983148 294.433392 
L 160.049417 294.642228 
L 160.115687 294.453913 
L 160.181956 294.611282 
L 160.248226 294.50414 
L 160.380765 294.521971 
L 160.645843 294.769424 
L 160.712113 294.417062 
L 160.778382 294.635345 
L 160.844652 294.606042 
L 160.977191 294.062685 
L 161.04346 294.545532 
L 161.10973 294.28701 
L 161.176 293.988909 
L 161.308539 294.962483 
L 161.374808 294.428243 
L 161.507347 293.853676 
L 161.573617 293.916613 
L 161.639886 294.045016 
L 161.706156 293.719348 
L 161.772426 293.943044 
L 161.838695 293.868275 
L 161.971234 294.163838 
L 162.103773 293.73419 
L 162.302582 294.133699 
L 162.56766 293.524963 
L 162.63393 292.38573 
L 162.700199 292.799394 
L 162.766469 293.141255 
L 162.832738 292.128505 
L 162.899008 293.505786 
L 162.965278 293.27451 
L 163.097817 292.255851 
L 163.164086 293.82071 
L 163.230356 293.711541 
L 163.296625 293.598867 
L 163.362895 293.154337 
L 163.429164 293.390037 
L 163.495434 293.623519 
L 163.760512 292.600739 
L 163.893051 292.171022 
L 163.959321 292.671943 
L 164.02559 292.517045 
L 164.09186 292.383129 
L 164.158129 293.064657 
L 164.224399 292.933729 
L 164.290669 292.762107 
L 164.356938 292.968008 
L 164.489477 291.906009 
L 164.555747 292.719716 
L 164.622016 292.463878 
L 164.688286 291.785493 
L 164.887095 293.228762 
L 165.019634 292.219568 
L 165.085903 292.285849 
L 165.218442 292.678951 
L 165.417251 292.553704 
L 165.483521 292.381769 
L 165.54979 292.468319 
L 165.61606 292.791003 
L 165.682329 292.775419 
L 165.748599 292.706458 
L 165.881138 293.595321 
L 166.013677 291.854062 
L 166.212486 293.145677 
L 166.345025 293.295877 
L 166.477564 293.219227 
L 166.610103 291.870636 
L 166.742642 293.777695 
L 166.808912 293.684555 
L 166.875181 293.757554 
L 167.07399 293.206256 
L 167.206529 293.575334 
L 167.272799 293.464007 
L 167.339068 293.996608 
L 167.405338 293.807492 
L 167.537877 294.579697 
L 167.604146 293.824863 
L 167.670416 293.864852 
L 167.869225 294.389883 
L 168.001764 294.389348 
L 168.333111 294.918468 
L 168.399381 294.775698 
L 168.730729 295.196707 
L 168.995807 295.139486 
L 169.194616 294.95774 
L 169.260885 295.127126 
L 169.525963 294.613759 
L 169.857311 294.553926 
L 170.05612 294.68363 
L 170.188659 293.702845 
L 170.254928 293.791075 
L 170.321198 294.165971 
L 170.453737 293.700514 
L 170.520007 293.606711 
L 170.586276 293.876716 
L 170.652546 293.616887 
L 170.718815 294.230183 
L 170.785085 294.105548 
L 170.851354 293.859964 
L 170.917624 294.199819 
L 170.983894 293.965559 
L 171.116433 293.620413 
L 171.182702 293.651329 
L 171.315241 293.346185 
L 171.44778 293.565044 
L 171.51405 294.113318 
L 171.58032 293.801635 
L 171.646589 293.417034 
L 171.712859 293.538469 
L 171.779128 293.598547 
L 171.845398 293.25673 
L 171.911667 293.873691 
L 171.977937 293.706605 
L 172.044206 293.494878 
L 172.110476 293.923103 
L 172.243015 293.558921 
L 172.309285 293.547096 
L 172.375554 293.954482 
L 172.441824 293.745051 
L 172.508093 294.044579 
L 172.640632 293.597303 
L 172.905711 294.167052 
L 172.97198 293.947283 
L 173.03825 293.801981 
L 173.104519 293.381412 
L 173.303328 294.431539 
L 173.435867 294.326784 
L 173.568406 294.194786 
L 173.634676 294.15498 
L 173.700945 293.963862 
L 173.767215 294.072342 
L 173.833484 294.581191 
L 173.899754 294.287116 
L 173.966023 294.260753 
L 174.164832 294.766865 
L 174.297371 294.239171 
L 174.363641 294.466778 
L 174.42991 293.994087 
L 174.49618 294.484793 
L 174.562449 294.240789 
L 174.761258 294.668907 
L 175.026336 294.704566 
L 175.158875 294.617615 
L 175.357684 294.424442 
L 175.423954 294.493171 
L 175.556493 294.09735 
L 175.622762 294.441577 
L 175.689032 294.40115 
L 175.755301 294.501249 
L 175.821571 294.85453 
L 175.887841 294.614209 
L 175.95411 294.509484 
L 176.02038 294.73486 
L 176.086649 294.603048 
L 176.152919 294.192729 
L 176.219188 294.24393 
L 176.616806 294.768687 
L 176.815614 294.260212 
L 177.014423 294.631572 
L 177.080693 294.359742 
L 177.213232 294.679156 
L 177.41204 294.450395 
L 177.544579 294.805293 
L 177.743388 294.667744 
L 177.875927 294.715037 
L 177.942197 294.906635 
L 178.008466 294.776653 
L 178.141005 294.90768 
L 178.273545 294.973705 
L 178.339814 294.756019 
L 178.538623 295.049283 
L 178.604892 295.00845 
L 178.671162 295.111722 
L 178.737431 295.061645 
L 178.86997 295.068537 
L 179.00251 295.126812 
L 179.996553 294.797928 
L 180.129092 294.930902 
L 180.327901 294.71011 
L 180.46044 294.808514 
L 180.526709 294.641377 
L 180.592979 294.671715 
L 180.659248 294.778693 
L 180.725518 294.518619 
L 180.791788 294.586024 
L 180.858057 294.650578 
L 180.924327 294.33669 
L 180.990596 294.496152 
L 181.056866 294.382745 
L 181.189405 294.763506 
L 181.255674 294.738142 
L 181.587022 294.287265 
L 181.653292 294.713759 
L 181.719561 294.620562 
L 181.785831 294.451489 
L 181.8521 294.60493 
L 181.91837 294.298023 
L 181.98464 294.790016 
L 182.050909 294.722793 
L 182.183448 293.974385 
L 182.249718 294.505137 
L 182.315987 294.412376 
L 182.382257 294.529658 
L 182.448526 294.924715 
L 182.514796 294.718955 
L 182.647335 294.483996 
L 182.713605 294.707659 
L 182.779874 294.559248 
L 182.846144 294.47326 
L 182.912413 294.794375 
L 183.044952 294.508906 
L 183.177492 294.63715 
L 183.773917 294.791936 
L 183.840187 294.523567 
L 183.906457 294.662664 
L 184.105265 294.644054 
L 184.370343 294.415884 
L 184.502883 294.5537 
L 184.569152 294.256 
L 184.635422 294.301155 
L 184.701691 294.279964 
L 184.83423 293.935444 
L 184.966769 292.70435 
L 185.033039 294.945876 
L 185.099309 294.664282 
L 185.165578 294.460343 
L 185.231848 294.528866 
L 185.496926 294.255709 
L 185.563195 294.13923 
L 185.629465 294.199517 
L 185.762004 294.629152 
L 185.828274 294.58406 
L 186.093352 294.251268 
L 186.292161 295.115476 
L 186.490969 294.462597 
L 186.623508 294.461736 
L 186.756047 294.487282 
L 186.954856 294.722984 
L 187.021126 294.704067 
L 187.087395 294.532832 
L 187.286204 293.523382 
L 187.352473 294.047326 
L 187.485013 293.429499 
L 187.551282 293.595222 
L 187.617552 293.033986 
L 187.750091 286.728497 
L 187.81636 294.638037 
L 187.88263 292.617231 
L 188.015169 293.491744 
L 188.081439 292.978151 
L 188.147708 293.794546 
L 188.213978 293.429898 
L 188.479056 292.764263 
L 188.545325 292.992471 
L 188.611595 292.423137 
L 188.677864 292.53269 
L 188.744134 292.972697 
L 188.942943 291.206135 
L 189.009212 291.121342 
L 189.141751 291.731553 
L 189.34056 286.827792 
L 189.473099 289.499115 
L 189.936986 282.242185 
L 190.268334 269.234548 
L 190.400873 250.535562 
L 190.533412 53.568 
L 190.665951 267.114629 
L 190.86476 285.565128 
L 190.931029 286.440694 
L 191.129838 291.395244 
L 191.196108 290.924098 
L 191.394916 293.727464 
L 191.461186 292.73026 
L 191.527455 292.786618 
L 191.792534 294.388784 
L 191.858803 294.553154 
L 191.925073 294.295867 
L 192.057612 295.187908 
L 192.32269 294.564843 
L 192.455229 294.909996 
L 192.521499 294.446138 
L 192.587768 294.75475 
L 192.720307 294.519333 
L 193.051655 294.931272 
L 193.117925 295.121534 
L 193.184194 294.711768 
L 193.316733 286.614593 
L 193.449272 292.777616 
L 193.648081 293.893466 
L 193.78062 293.676471 
L 193.913159 293.993012 
L 193.979429 293.907982 
L 194.045698 293.97056 
L 194.111968 294.212792 
L 194.178237 294.091009 
L 194.310777 294.18061 
L 194.509585 293.732791 
L 194.575855 293.786069 
L 194.642124 294.121352 
L 194.708394 293.858073 
L 194.774663 294.151768 
L 194.840933 293.8689 
L 194.907203 293.931811 
L 195.172281 294.499388 
L 195.30482 293.876497 
L 195.437359 294.273931 
L 195.569898 294.422193 
L 195.636168 294.775549 
L 195.702437 294.055355 
L 195.768707 294.103617 
L 195.834976 294.308082 
L 195.901246 294.273001 
L 195.967515 294.04724 
L 196.033785 293.230282 
L 196.100055 293.712893 
L 196.166324 294.555321 
L 196.232594 294.420657 
L 196.365133 294.157787 
L 196.76275 294.608409 
L 196.82902 294.393508 
L 196.895289 294.785349 
L 197.094098 293.998309 
L 197.160367 293.98601 
L 197.226637 293.781126 
L 197.425446 294.347812 
L 197.557985 294.532651 
L 197.756793 294.303366 
L 197.889333 294.342753 
L 197.955602 294.49637 
L 198.021872 294.393223 
L 198.22068 294.692849 
L 198.28695 294.453201 
L 198.353219 294.500879 
L 198.419489 294.538177 
L 198.485759 294.42006 
L 198.618298 294.741392 
L 198.750837 294.232886 
L 198.817106 293.657076 
L 198.949645 294.841814 
L 199.015915 294.855751 
L 199.082184 294.731237 
L 199.148454 294.782918 
L 199.81115 295.191729 
L 200.009958 295.282068 
L 200.407576 295.427911 
L 200.606384 295.223423 
L 200.871462 295.282361 
L 201.070271 295.1777 
L 201.20281 294.99634 
L 201.401619 295.096964 
L 201.732967 294.920058 
L 201.865506 294.990146 
L 201.931775 294.84677 
L 201.998045 294.907023 
L 203.588514 294.87915 
L 203.654784 294.979614 
L 203.721053 294.791874 
L 203.787323 294.843452 
L 203.986131 294.944586 
L 204.118671 294.061207 
L 204.25121 294.99943 
L 204.317479 294.889125 
L 204.383749 294.597394 
L 204.450018 294.616147 
L 204.582557 295.073809 
L 204.648827 294.971261 
L 204.980175 294.599099 
L 205.046444 294.790491 
L 205.245253 294.399488 
L 205.377792 294.956118 
L 205.444062 294.808641 
L 205.510331 294.809482 
L 205.70914 294.549742 
L 205.775409 294.520472 
L 205.907949 294.607749 
L 205.974218 294.576225 
L 206.173027 294.804344 
L 206.305566 294.755029 
L 206.371835 294.599313 
L 206.438105 294.848973 
L 206.504375 294.73633 
L 206.570644 294.659684 
L 206.636914 294.832745 
L 206.703183 294.757008 
L 206.835722 294.876502 
L 206.901992 295.000216 
L 206.968261 294.907807 
L 207.034531 294.754277 
L 207.100801 294.809944 
L 207.16707 294.843559 
L 207.23334 295.103121 
L 207.299609 295.038933 
L 207.630957 295.158282 
L 208.028574 295.327707 
L 208.359922 295.376479 
L 208.492461 295.139993 
L 208.625 295.129139 
L 208.757539 294.906092 
L 209.022618 294.937713 
L 209.155157 294.963442 
L 209.420235 294.859323 
L 209.552774 294.43939 
L 209.619044 294.470273 
L 209.685313 294.073842 
L 209.884122 294.674074 
L 210.08293 294.091067 
L 210.1492 294.206868 
L 210.21547 294.6122 
L 210.281739 294.377483 
L 210.348009 294.636821 
L 210.414278 294.510842 
L 210.679356 294.147621 
L 210.878165 294.632933 
L 211.010704 294.178157 
L 211.076974 294.487033 
L 211.143243 294.421506 
L 211.275782 293.805492 
L 211.408322 294.645823 
L 211.540861 294.408828 
L 211.60713 294.737893 
L 211.6734 294.573749 
L 211.805939 294.451126 
L 212.004748 294.709058 
L 212.071017 294.829564 
L 212.137287 294.62615 
L 212.269826 294.853835 
L 212.336095 294.778623 
L 212.534904 295.056573 
L 212.667443 295.055694 
L 212.866252 295.173202 
L 213.06506 295.222737 
L 213.13133 295.3195 
L 213.1976 295.229204 
L 213.330139 295.144692 
L 213.528947 294.934923 
L 213.595217 295.14095 
L 213.661486 295.020087 
L 213.860295 294.759222 
L 213.926565 294.896631 
L 214.059104 294.645246 
L 214.191643 294.72574 
L 214.324182 294.442377 
L 214.390451 294.583378 
L 214.456721 294.4062 
L 214.522991 294.443108 
L 214.788069 294.262345 
L 214.854338 294.156203 
L 214.986877 294.369905 
L 215.119417 294.044182 
L 215.185686 294.117852 
L 215.251956 294.514131 
L 215.318225 293.953927 
L 215.384495 293.990695 
L 215.450764 294.246612 
L 215.517034 293.909667 
L 215.583303 294.111129 
L 215.649573 293.990403 
L 215.782112 294.428858 
L 215.980921 293.773649 
L 216.04719 293.841085 
L 216.11346 294.281685 
L 216.179729 294.246542 
L 216.312269 294.165716 
L 216.444808 294.349738 
L 216.577347 294.093042 
L 216.643616 294.448806 
L 216.709886 294.372385 
L 216.842425 294.37083 
L 216.908695 294.738727 
L 216.974964 294.365332 
L 217.041234 294.470811 
L 217.173773 294.625662 
L 217.372581 294.883249 
L 217.438851 294.843034 
L 217.505121 294.439111 
L 217.63766 294.975436 
L 217.703929 294.878769 
L 217.902738 295.155106 
L 218.167816 295.101034 
L 218.300355 295.312318 
L 218.366625 295.185388 
L 218.764242 295.065654 
L 218.963051 294.747483 
L 219.09559 294.509396 
L 219.161859 294.824449 
L 219.228129 294.789273 
L 219.426938 294.633533 
L 219.625746 294.179046 
L 219.758285 294.566527 
L 219.957094 294.153954 
L 220.089633 294.126112 
L 220.155903 294.613297 
L 220.288442 294.096874 
L 220.354711 294.30024 
L 220.420981 294.261066 
L 220.48725 293.853655 
L 220.61979 294.142654 
L 220.818598 294.210487 
L 220.884868 294.154714 
L 221.017407 294.233852 
L 221.149946 294.223638 
L 221.216216 294.223249 
L 221.348755 293.896911 
L 221.547563 294.486533 
L 221.613833 294.273972 
L 221.680102 294.409547 
L 221.746372 294.344447 
L 221.812642 294.085513 
L 222.01145 294.698264 
L 222.143989 294.444501 
L 222.210259 294.575004 
L 222.276528 294.358531 
L 222.342798 294.520299 
L 222.475337 294.771404 
L 222.541607 294.68613 
L 222.607876 294.589197 
L 222.872954 294.965697 
L 223.403111 294.874937 
L 223.53565 295.239055 
L 223.734459 295.102969 
L 223.800728 295.33559 
L 223.933267 295.138735 
L 224.065806 295.187411 
L 224.264615 295.084664 
L 224.861041 294.972158 
L 225.126119 294.853597 
L 225.192389 294.885601 
L 225.324928 294.657747 
L 225.391197 295.079585 
L 225.457467 294.975479 
L 225.722545 294.830863 
L 226.053893 294.917732 
L 226.252702 294.919346 
L 226.318971 295.058345 
L 226.385241 294.866598 
L 226.45151 294.925964 
L 226.716589 294.943354 
L 226.849128 295.116222 
L 227.047936 295.084235 
L 227.180475 295.270904 
L 227.246745 295.052176 
L 227.313015 295.161576 
L 227.379284 295.089921 
L 227.445554 295.172195 
L 228.108249 295.454442 
L 230.030066 295.161993 
L 230.228875 295.276876 
L 230.759031 295.256884 
L 231.02411 295.373437 
L 231.156649 295.356849 
L 231.554266 295.412735 
L 231.819344 295.409696 
L 232.150692 295.259665 
L 232.283231 295.300527 
L 232.747118 295.168079 
L 233.012196 295.118884 
L 233.144735 295.113035 
L 233.608622 295.020246 
L 233.741161 294.938107 
L 233.8737 295.021483 
L 234.205048 294.895008 
L 234.470126 295.02544 
L 234.536396 294.833399 
L 234.668935 295.014691 
L 234.801474 294.823204 
L 234.867744 294.917098 
L 235.000283 294.882376 
L 235.132822 295.016588 
L 235.265361 294.815758 
L 235.331631 294.917614 
L 235.3979 295.171173 
L 235.46417 295.144893 
L 235.729248 294.99725 
L 235.861787 295.007255 
L 235.994326 294.99712 
L 236.193135 295.239378 
L 236.259404 294.981212 
L 236.325674 295.030775 
L 236.458213 295.20191 
L 236.657022 294.944048 
L 236.723291 294.825911 
L 236.85583 295.244122 
L 237.518526 295.144562 
L 237.717335 295.264209 
L 238.048682 295.040126 
L 238.313761 295.252302 
L 238.512569 295.188249 
L 238.645108 295.180777 
L 239.705421 295.256415 
L 239.90423 295.375699 
L 240.103038 295.363517 
L 240.301847 295.338848 
L 240.434386 295.344175 
L 240.500656 295.443076 
L 240.633195 295.326331 
L 240.832004 295.290901 
L 240.964543 295.191022 
L 241.030812 295.304986 
L 241.097082 295.250286 
L 241.42843 295.229384 
L 241.494699 295.237717 
L 241.627238 295.032097 
L 241.826047 295.1847 
L 242.356203 294.913636 
L 242.422473 295.180429 
L 242.488742 295.102226 
L 244.211751 295.182516 
L 244.34429 295.206676 
L 245.272064 295.435931 
L 245.537142 295.466019 
L 245.934759 295.367717 
L 246.729994 295.23623 
L 246.862533 295.236311 
L 247.32642 295.210984 
L 247.458959 295.164941 
L 247.525229 295.080523 
L 247.591498 295.148513 
L 247.724037 295.208629 
L 248.055385 295.085273 
L 248.187924 295.244729 
L 248.386733 295.140681 
L 248.519272 295.181649 
L 248.585541 295.275685 
L 248.651811 295.224642 
L 248.71808 295.267124 
L 248.78435 295.10284 
L 248.85062 295.191773 
L 248.916889 295.097173 
L 249.115698 295.27743 
L 249.314506 295.272 
L 249.712124 295.231108 
L 249.910932 295.299878 
L 250.24228 295.311782 
L 250.30855 295.235238 
L 250.374819 295.29642 
L 250.573628 295.338216 
L 250.838706 295.278111 
L 251.236324 295.305616 
L 252.826793 295.348949 
L 254.019645 295.404067 
L 254.152184 295.347107 
L 254.417262 295.322921 
L 255.875192 295.127125 
L 256.007731 295.221181 
L 256.27281 295.16435 
L 256.471618 295.193319 
L 256.537888 295.127411 
L 256.604157 295.205894 
L 259.056131 295.263406 
L 259.321209 295.210388 
L 259.453748 295.26314 
L 259.718826 295.078522 
L 259.785096 295.070716 
L 259.917635 295.160787 
L 261.243026 294.994777 
L 261.309296 295.308177 
L 261.375565 295.115303 
L 261.574374 295.039217 
L 264.423965 295.389193 
L 265.351739 295.301325 
L 267.538634 295.216711 
L 268.797755 295.037047 
L 268.864025 295.105963 
L 269.062834 294.950985 
L 269.195373 294.937148 
L 269.261642 294.874305 
L 269.327912 295.103537 
L 269.394181 294.98823 
L 269.65926 294.891624 
L 269.990607 294.95655 
L 270.123146 294.918826 
L 270.189416 294.795216 
L 270.255686 294.959695 
L 270.321955 294.886956 
L 270.520764 294.751082 
L 270.587033 294.644149 
L 270.785842 295.135982 
L 270.918381 294.793707 
L 270.984651 294.861231 
L 271.05092 295.06052 
L 271.183459 294.775468 
L 271.382268 294.992442 
L 271.713616 294.935378 
L 271.779885 294.893747 
L 271.978694 295.183107 
L 272.177503 295.011944 
L 272.57512 295.200424 
L 272.840198 295.193751 
L 273.105276 295.319903 
L 273.502894 295.291356 
L 273.900511 295.374988 
L 274.629476 295.381358 
L 274.894554 295.297524 
L 275.027093 295.288752 
L 275.55725 295.267393 
L 275.756059 295.20316 
L 276.021137 295.332503 
L 276.087406 295.128511 
L 276.153676 295.159059 
L 276.286215 295.225021 
L 276.485024 295.099179 
L 276.617563 295.245508 
L 276.882641 295.133669 
L 277.08145 295.278304 
L 277.412797 295.163851 
L 277.479067 295.280542 
L 277.545337 295.221857 
L 277.744145 295.176422 
L 277.942954 295.287494 
L 278.274302 295.182004 
L 278.406841 295.316359 
L 278.605649 295.259921 
L 279.003267 295.317775 
L 279.400884 295.121461 
L 279.533423 295.347559 
L 280.196119 295.266009 
L 280.262388 295.382588 
L 280.461197 295.183819 
L 280.858814 295.264435 
L 281.057623 295.180818 
L 281.256432 295.204322 
L 281.388971 295.136064 
L 281.587779 295.148703 
L 281.720318 295.118131 
L 282.383014 295.175421 
L 282.581823 295.074209 
L 282.648092 295.046358 
L 282.714362 295.242368 
L 282.780631 295.184939 
L 282.846901 295.251188 
L 282.97944 295.154976 
L 283.509596 295.248832 
L 283.907214 295.298032 
L 284.569909 295.393453 
L 284.967527 295.441361 
L 285.365144 295.355179 
L 285.563953 295.280972 
L 285.696492 295.313161 
L 285.96157 295.210173 
L 286.027839 295.295891 
L 286.094109 295.227557 
L 286.226648 295.179671 
L 286.292918 295.335535 
L 286.491726 295.075145 
L 286.823074 295.081816 
L 287.088152 294.988997 
L 287.220691 294.982911 
L 287.48577 294.966332 
L 287.552039 295.074753 
L 287.817117 294.740413 
L 287.949657 294.94344 
L 288.015926 294.846682 
L 288.082196 294.997594 
L 288.148465 294.94802 
L 288.413543 294.827285 
L 288.546083 294.941387 
L 288.612352 294.828632 
L 288.678622 294.869199 
L 289.009969 294.9498 
L 289.208778 294.774647 
L 289.407587 295.02711 
L 289.606395 294.846988 
L 289.805204 295.037543 
L 289.937743 294.958375 
L 290.202821 295.035891 
L 290.40163 295.026831 
L 290.534169 294.901713 
L 290.666708 295.126545 
L 290.799247 295.143731 
L 290.865517 295.173238 
L 290.998056 295.003377 
L 291.461943 295.228762 
L 291.594482 294.951776 
L 291.793291 295.27023 
L 291.992099 295.107825 
L 292.124638 295.2923 
L 292.455986 295.104856 
L 292.588525 295.289809 
L 292.787334 295.098405 
L 292.919873 295.089412 
L 292.986143 295.151207 
L 293.052412 295.072321 
L 293.184951 295.078473 
L 293.251221 294.945222 
L 293.31749 295.324312 
L 293.38376 295.033993 
L 293.45003 295.142452 
L 293.516299 295.18275 
L 293.781377 294.95802 
L 293.980186 295.06723 
L 294.112725 295.00732 
L 294.444073 294.959806 
L 294.576612 295.05193 
L 294.709151 294.993766 
L 295.040499 295.09452 
L 295.305577 295.066523 
L 295.570655 295.097517 
L 295.902003 295.187898 
L 297.028585 295.436594 
L 297.227394 295.348049 
L 297.625011 295.222113 
L 297.82382 295.100653 
L 297.956359 295.152926 
L 298.287707 294.953676 
L 298.420246 294.999513 
L 298.751594 294.62248 
L 298.817863 294.181403 
L 298.884133 295.35919 
L 298.950402 295.055183 
L 299.28175 294.647096 
L 299.878176 294.734318 
L 300.076985 294.753326 
L 300.408333 294.967898 
L 300.540872 294.679543 
L 300.73968 294.886955 
L 301.004759 294.998149 
L 301.071028 294.950134 
L 301.269837 295.258015 
L 301.468646 295.358687 
L 301.534915 294.939119 
L 301.667454 292.697521 
L 301.799993 295.077578 
L 301.932532 295.129877 
L 302.065072 295.413137 
L 302.528958 295.113416 
L 302.661498 295.040599 
L 302.860306 294.930088 
L 302.992845 294.999754 
L 303.72181 294.426603 
L 303.854349 294.482931 
L 304.053158 294.264489 
L 304.251967 295.208129 
L 304.318236 294.748566 
L 304.384506 287.829648 
L 304.450775 288.043729 
L 304.649584 293.006775 
L 304.914662 294.21068 
L 305.047201 294.193712 
L 305.113471 294.106756 
L 305.378549 294.416574 
L 305.511088 294.392418 
L 305.643627 294.136774 
L 305.842436 294.744343 
L 305.974975 294.215626 
L 306.173784 295.042889 
L 306.240053 295.291884 
L 306.306323 295.155252 
L 306.372593 294.077204 
L 306.438862 294.214286 
L 306.505132 293.997715 
L 306.836479 289.16226 
L 306.969019 284.329493 
L 307.101558 260.804436 
L 307.167827 117.689367 
L 307.366636 278.819303 
L 307.631714 288.298171 
L 307.697984 287.739868 
L 307.896792 290.541408 
L 307.963062 290.950497 
L 308.029331 290.906888 
L 308.095601 290.741404 
L 308.22814 291.471582 
L 308.360679 291.252284 
L 308.426949 291.806168 
L 308.493218 291.635862 
L 308.559488 291.705346 
L 308.625757 292.627645 
L 308.692027 292.231982 
L 308.824566 292.829857 
L 308.890836 293.245722 
L 309.023375 292.565674 
L 309.155914 293.862845 
L 309.222183 293.846618 
L 309.288453 293.756373 
L 309.487262 294.404112 
L 309.553531 294.393125 
L 309.619801 294.605557 
L 309.68607 294.558946 
L 309.818609 294.416133 
L 309.884879 293.77668 
L 309.951148 287.245549 
L 310.083688 294.385965 
L 310.216227 295.142787 
L 310.282496 295.09991 
L 310.348766 295.195081 
L 310.613844 294.823614 
L 310.746383 294.993418 
L 310.812653 294.741593 
L 310.878922 294.876266 
L 311.011461 294.732166 
L 311.21027 294.080602 
L 311.27654 294.617313 
L 311.342809 294.4965 
L 311.806696 294.110748 
L 311.939235 294.420328 
L 312.005505 294.329636 
L 312.138044 294.166968 
L 312.204313 294.105819 
L 312.336852 294.324071 
L 312.403122 294.337961 
L 312.601931 294.11188 
L 312.6682 294.054237 
L 312.73447 290.664549 
L 312.800739 294.847366 
L 312.867009 294.480231 
L 312.933278 294.515096 
L 312.999548 294.402721 
L 313.065818 294.584072 
L 313.132087 294.506456 
L 313.264626 294.380026 
L 313.397165 294.32303 
L 313.728513 294.626293 
L 313.794783 294.479867 
L 313.861052 294.625156 
L 313.927322 294.481164 
L 313.993591 294.738166 
L 314.059861 294.642409 
L 314.12613 294.77139 
L 314.324939 294.556641 
L 314.457478 295.010155 
L 314.523748 294.986626 
L 314.590017 294.882817 
L 314.656287 294.969365 
L 314.722556 295.029185 
L 314.788826 294.914282 
L 314.921365 295.144732 
L 315.186443 295.054282 
L 315.451521 295.129339 
L 315.517791 294.485832 
L 315.65033 295.305696 
L 315.981678 295.275268 
L 316.114217 295.300286 
L 316.379295 295.27815 
L 317.837225 295.25135 
L 318.036034 295.211957 
L 318.102304 295.123279 
L 318.301112 295.341999 
L 318.499921 295.247537 
L 319.957851 295.315118 
L 320.024121 295.213629 
L 320.222929 295.324034 
L 320.488008 295.285149 
L 320.753086 295.334825 
L 321.018164 295.306294 
L 321.084434 295.14617 
L 321.150703 295.349866 
L 321.216973 295.318899 
L 321.54832 295.315757 
L 321.813399 295.308875 
L 322.144746 295.327474 
L 322.343555 295.323894 
L 323.205059 295.331661 
L 323.668946 295.322673 
L 323.801485 295.325028 
L 323.867755 295.002145 
L 324.000294 295.301672 
L 324.464181 295.305151 
L 326.982424 295.209177 
L 327.048693 295.15769 
L 327.181233 295.261288 
L 327.380041 295.318092 
L 327.51258 295.217645 
L 327.57885 295.306945 
L 327.645119 295.224543 
L 327.777659 295.1959 
L 328.109006 295.326649 
L 328.639163 295.31968 
L 328.771702 295.320411 
L 328.904241 295.326444 
L 329.235589 295.371816 
L 330.097093 295.438869 
L 331.157406 295.385785 
L 331.753832 295.296751 
L 332.08518 295.332474 
L 332.350258 295.235378 
L 332.549066 295.263876 
L 332.946684 295.333106 
L 333.079223 295.043509 
L 333.211762 295.213262 
L 333.278032 295.160903 
L 333.47684 295.259248 
L 334.338344 295.172673 
L 334.404614 295.113168 
L 334.537153 295.329128 
L 334.603423 295.274065 
L 334.802231 295.269581 
L 335.067309 295.279613 
L 335.531196 295.323305 
L 336.392701 295.401161 
L 336.922857 295.386871 
L 337.453013 295.377311 
L 337.651822 295.385473 
L 337.718092 295.408641 
L 337.850631 295.305765 
L 338.447057 295.33865 
L 338.579596 295.253342 
L 338.844674 295.31354 
L 338.977213 295.226826 
L 339.176022 295.333644 
L 339.639909 295.27516 
L 339.971256 295.336232 
L 340.170065 295.339354 
L 340.435143 295.367421 
L 341.097839 295.425752 
L 341.959343 295.432534 
L 342.35696 295.364157 
L 342.688308 295.348314 
L 342.953386 295.250295 
L 343.152195 295.294298 
L 344.079969 295.242292 
L 344.278777 295.269019 
L 344.610125 295.228885 
L 344.808934 295.259096 
L 345.935516 295.398588 
L 347.923603 295.248647 
L 348.122412 295.185242 
L 348.32122 295.133923 
L 348.718838 295.127817 
L 348.851377 295.023547 
L 349.050185 295.156722 
L 349.91169 295.114131 
L 350.044229 295.10062 
L 350.110498 295.208292 
L 350.176768 295.15992 
L 350.508116 295.196042 
L 350.839463 295.211516 
L 351.038272 295.2838 
L 351.30335 295.25982 
L 351.700968 295.362385 
L 351.899776 295.368432 
L 352.562472 295.410078 
L 353.291437 295.250781 
L 353.357706 295.231748 
L 353.490246 295.376874 
L 353.689054 295.279334 
L 353.821593 295.287425 
L 353.954132 295.249105 
L 354.086671 295.326778 
L 354.219211 295.265104 
L 356.207297 295.307066 
L 356.869993 295.303309 
L 357.201341 295.338594 
L 357.731497 295.287684 
L 358.394193 295.256367 
L 358.526732 295.211841 
L 358.659271 295.218876 
L 358.924349 295.180058 
L 359.255697 295.207528 
L 359.587044 295.141079 
L 359.785853 295.262469 
L 360.050931 295.142164 
L 360.31601 295.230879 
L 360.912436 295.210649 
L 361.111244 295.307243 
L 361.243783 295.071332 
L 361.310053 295.157302 
L 361.442592 295.185309 
L 362.039018 295.243681 
L 362.304096 295.180026 
L 362.569174 295.192102 
L 362.767983 295.239282 
L 362.966792 295.142653 
L 363.894565 295.19815 
L 364.093374 295.189809 
L 364.292183 295.27049 
L 364.424722 295.169541 
L 365.551304 295.288373 
L 365.683843 295.247571 
L 365.816383 295.334372 
L 365.948922 295.338829 
L 366.479078 295.380972 
L 366.677887 295.396691 
L 369.792556 295.433685 
L 374.033807 295.279256 
L 374.497694 295.242639 
L 374.829042 295.256883 
L 375.359198 295.227222 
L 375.491737 295.269053 
L 375.624277 295.15903 
L 376.154433 295.272055 
L 376.750859 295.18064 
L 376.817129 295.070003 
L 376.883398 295.167392 
L 377.082207 295.259851 
L 377.413555 295.223644 
L 377.546094 295.196929 
L 377.877441 295.233068 
L 378.14252 295.233891 
L 378.341328 295.19664 
L 378.407598 295.308852 
L 378.473867 295.232034 
L 379.070293 295.256084 
L 379.732989 295.243725 
L 380.196876 295.290923 
L 380.528224 295.272536 
L 380.660763 295.294726 
L 381.522267 295.304364 
L 381.721076 295.310984 
L 382.052423 295.318972 
L 382.317502 295.323721 
L 382.913928 295.31926 
L 383.112736 295.314515 
L 383.576623 295.323308 
L 383.775432 295.310106 
L 384.239319 295.312487 
L 384.504397 295.287115 
L 384.703205 295.271417 
L 384.902014 295.311357 
L 385.100823 295.255613 
L 386.227405 295.24487 
L 386.359944 295.168091 
L 386.625023 295.319931 
L 387.287718 295.299227 
L 387.685335 295.297231 
L 387.950414 295.365822 
L 388.281761 295.381138 
L 388.48057 295.35922 
L 389.010726 295.356733 
L 389.408344 295.365393 
L 389.739692 295.342349 
L 391.131352 295.31391 
L 391.52897 295.26256 
L 392.324204 295.234872 
L 392.854361 295.180669 
L 393.053169 295.211858 
L 393.715865 295.144145 
L 393.980943 295.209026 
L 394.179752 295.106991 
L 394.974986 295.221134 
L 395.240065 295.135377 
L 395.438873 295.184859 
L 395.571412 295.214228 
L 395.836491 295.28241 
L 396.101569 295.249239 
L 396.234108 295.265897 
L 396.565456 295.277706 
L 397.559499 295.429161 
L 398.487273 295.424241 
L 398.487273 295.424241 
" clip-path="url(#p0c8906feb0)" style="fill: none; stroke: #1f77b4; stroke-width: 1.5; stroke-linecap: square"/>
   </g>
   <g id="patch_3">
    <path d="M 57.6 307.584 
L 57.6 41.472 
" style="fill: none; stroke: #000000; stroke-width: 0.8; stroke-linejoin: miter; stroke-linecap: square"/>
   </g>
   <g id="patch_4">
    <path d="M 414.72 307.584 
L 414.72 41.472 
" style="fill: none; stroke: #000000; stroke-width: 0.8; stroke-linejoin: miter; stroke-linecap: square"/>
   </g>
   <g id="patch_5">
    <path d="M 57.6 307.584 
L 414.72 307.584 
" style="fill: none; stroke: #000000; stroke-width: 0.8; stroke-linejoin: miter; stroke-linecap: square"/>
   </g>
   <g id="patch_6">
    <path d="M 57.6 41.472 
L 414.72 41.472 
" style="fill: none; stroke: #000000; stroke-width: 0.8; stroke-linejoin: miter; stroke-linecap: square"/>
   </g>
   <g id="text_17">
    <text style="font: 12px 'IPAexGothic'; text-anchor: middle" x="236.16" y="35.472" transform="rotate(-0 236.16 35.472)">"030_A6.wav"の振幅スペクトル</text>
   </g>
  </g>
 </g>
 <defs>
  <clipPath id="p0c8906feb0">
   <rect x="57.6" y="41.472" width="357.12" height="266.112"/>
  </clipPath>
 </defs>
</svg>
