<?xml version="1.0" encoding="utf-8" standalone="no"?>
<!DOCTYPE svg PUBLIC "-//W3C//DTD SVG 1.1//EN"
  "http://www.w3.org/Graphics/SVG/1.1/DTD/svg11.dtd">
<svg xmlns:xlink="http://www.w3.org/1999/xlink" width="460.8pt" height="345.6pt" viewBox="0 0 460.8 345.6" xmlns="http://www.w3.org/2000/svg" version="1.1">
 <metadata>
  <rdf:RDF xmlns:dc="http://purl.org/dc/elements/1.1/" xmlns:cc="http://creativecommons.org/ns#" xmlns:rdf="http://www.w3.org/1999/02/22-rdf-syntax-ns#">
   <cc:Work>
    <dc:type rdf:resource="http://purl.org/dc/dcmitype/StillImage"/>
    <dc:date>2022-11-28T12:38:05.120221</dc:date>
    <dc:format>image/svg+xml</dc:format>
    <dc:creator>
     <cc:Agent>
      <dc:title>Matplotlib v3.6.2, https://matplotlib.org/</dc:title>
     </cc:Agent>
    </dc:creator>
   </cc:Work>
  </rdf:RDF>
 </metadata>
 <defs>
  <style type="text/css">*{stroke-linejoin: round; stroke-linecap: butt}</style>
 </defs>
 <g id="figure_1">
  <g id="patch_1">
   <path d="M 0 345.6 
L 460.8 345.6 
L 460.8 0 
L 0 0 
z
" style="fill: #ffffff"/>
  </g>
  <g id="axes_1">
   <g id="patch_2">
    <path d="M 57.6 307.584 
L 414.72 307.584 
L 414.72 41.472 
L 57.6 41.472 
z
" style="fill: #ffffff"/>
   </g>
   <g id="matplotlib.axis_1">
    <g id="xtick_1">
     <g id="line2d_1">
      <defs>
       <path id="m122052cbd8" d="M 0 0 
L 0 3.5 
" style="stroke: #000000; stroke-width: 0.8"/>
      </defs>
      <g>
       <use xlink:href="#m122052cbd8" x="73.832727" y="307.584" style="stroke: #000000; stroke-width: 0.8"/>
      </g>
     </g>
     <g id="text_1">
      <text style="font: 10px 'IPAexGothic'; text-anchor: middle" x="73.832727" y="322.074625" transform="rotate(-0 73.832727 322.074625)">0</text>
     </g>
    </g>
    <g id="xtick_2">
     <g id="line2d_2">
      <g>
       <use xlink:href="#m122052cbd8" x="140.102281" y="307.584" style="stroke: #000000; stroke-width: 0.8"/>
      </g>
     </g>
     <g id="text_2">
      <text style="font: 10px 'IPAexGothic'; text-anchor: middle" x="140.102281" y="322.074625" transform="rotate(-0 140.102281 322.074625)">1000</text>
     </g>
    </g>
    <g id="xtick_3">
     <g id="line2d_3">
      <g>
       <use xlink:href="#m122052cbd8" x="206.371835" y="307.584" style="stroke: #000000; stroke-width: 0.8"/>
      </g>
     </g>
     <g id="text_3">
      <text style="font: 10px 'IPAexGothic'; text-anchor: middle" x="206.371835" y="322.074625" transform="rotate(-0 206.371835 322.074625)">2000</text>
     </g>
    </g>
    <g id="xtick_4">
     <g id="line2d_4">
      <g>
       <use xlink:href="#m122052cbd8" x="272.64139" y="307.584" style="stroke: #000000; stroke-width: 0.8"/>
      </g>
     </g>
     <g id="text_4">
      <text style="font: 10px 'IPAexGothic'; text-anchor: middle" x="272.64139" y="322.074625" transform="rotate(-0 272.64139 322.074625)">3000</text>
     </g>
    </g>
    <g id="xtick_5">
     <g id="line2d_5">
      <g>
       <use xlink:href="#m122052cbd8" x="338.910944" y="307.584" style="stroke: #000000; stroke-width: 0.8"/>
      </g>
     </g>
     <g id="text_5">
      <text style="font: 10px 'IPAexGothic'; text-anchor: middle" x="338.910944" y="322.074625" transform="rotate(-0 338.910944 322.074625)">4000</text>
     </g>
    </g>
    <g id="xtick_6">
     <g id="line2d_6">
      <g>
       <use xlink:href="#m122052cbd8" x="405.180498" y="307.584" style="stroke: #000000; stroke-width: 0.8"/>
      </g>
     </g>
     <g id="text_6">
      <text style="font: 10px 'IPAexGothic'; text-anchor: middle" x="405.180498" y="322.074625" transform="rotate(-0 405.180498 322.074625)">5000</text>
     </g>
    </g>
    <g id="text_7">
     <text style="font: 10px 'IPAexGothic'; text-anchor: middle" x="236.16" y="335.924625" transform="rotate(-0 236.16 335.924625)">周波数[Hz]</text>
    </g>
   </g>
   <g id="matplotlib.axis_2">
    <g id="ytick_1">
     <g id="line2d_7">
      <defs>
       <path id="mf31b6f1495" d="M 0 0 
L -3.5 0 
" style="stroke: #000000; stroke-width: 0.8"/>
      </defs>
      <g>
       <use xlink:href="#mf31b6f1495" x="57.6" y="295.488056" style="stroke: #000000; stroke-width: 0.8"/>
      </g>
     </g>
     <g id="text_8">
      <text style="font: 10px 'IPAexGothic'; text-anchor: end" x="50.6" y="299.233368" transform="rotate(-0 50.6 299.233368)">0.0</text>
     </g>
    </g>
    <g id="ytick_2">
     <g id="line2d_8">
      <g>
       <use xlink:href="#mf31b6f1495" x="57.6" y="240.534562" style="stroke: #000000; stroke-width: 0.8"/>
      </g>
     </g>
     <g id="text_9">
      <text style="font: 10px 'IPAexGothic'; text-anchor: end" x="50.6" y="244.279874" transform="rotate(-0 50.6 244.279874)">0.5</text>
     </g>
    </g>
    <g id="ytick_3">
     <g id="line2d_9">
      <g>
       <use xlink:href="#mf31b6f1495" x="57.6" y="185.581068" style="stroke: #000000; stroke-width: 0.8"/>
      </g>
     </g>
     <g id="text_10">
      <text style="font: 10px 'IPAexGothic'; text-anchor: end" x="50.6" y="189.32638" transform="rotate(-0 50.6 189.32638)">1.0</text>
     </g>
    </g>
    <g id="ytick_4">
     <g id="line2d_10">
      <g>
       <use xlink:href="#mf31b6f1495" x="57.6" y="130.627574" style="stroke: #000000; stroke-width: 0.8"/>
      </g>
     </g>
     <g id="text_11">
      <text style="font: 10px 'IPAexGothic'; text-anchor: end" x="50.6" y="134.372886" transform="rotate(-0 50.6 134.372886)">1.5</text>
     </g>
    </g>
    <g id="ytick_5">
     <g id="line2d_11">
      <g>
       <use xlink:href="#mf31b6f1495" x="57.6" y="75.67408" style="stroke: #000000; stroke-width: 0.8"/>
      </g>
     </g>
     <g id="text_12">
      <text style="font: 10px 'IPAexGothic'; text-anchor: end" x="50.6" y="79.419392" transform="rotate(-0 50.6 79.419392)">2.0</text>
     </g>
    </g>
    <g id="text_13">
     <text style="font: 10px 'IPAexGothic'; text-anchor: middle" x="29.460938" y="174.528" transform="rotate(-90 29.460938 174.528)">振幅</text>
    </g>
    <g id="text_14">
     <text style="font: 10px 'IPAexGothic'; text-anchor: start" x="57.6" y="38.472" transform="rotate(-0 57.6 38.472)">1e7</text>
    </g>
   </g>
   <g id="line2d_12">
    <path d="M 73.832727 292.649378 
L 73.965266 294.651602 
L 74.031536 294.790414 
L 74.097805 294.65603 
L 74.164075 294.723375 
L 74.495423 294.735229 
L 74.627962 294.379802 
L 74.694231 294.526797 
L 74.760501 294.024005 
L 74.826771 294.896685 
L 74.89304 294.294602 
L 75.025579 294.798312 
L 75.224388 294.241678 
L 75.423197 294.746677 
L 75.489466 294.695054 
L 75.555736 294.27709 
L 75.622005 294.653356 
L 75.754544 293.814186 
L 75.887083 293.861459 
L 75.953353 294.392593 
L 76.019623 294.195407 
L 76.152162 293.208262 
L 76.284701 293.481521 
L 76.881127 284.442775 
L 77.079935 265.07988 
L 77.146205 277.107332 
L 77.212475 276.153945 
L 77.278744 271.786342 
L 77.345014 274.22043 
L 77.411283 237.284639 
L 77.477553 53.568 
L 77.610092 259.521738 
L 77.808901 289.431643 
L 77.87517 290.654482 
L 77.94144 288.229447 
L 78.007709 288.679769 
L 78.073979 288.145815 
L 78.272787 290.633906 
L 78.339057 291.162103 
L 78.802944 286.927998 
L 78.869213 287.665202 
L 78.935483 287.029218 
L 79.001752 284.686628 
L 79.068022 277.673404 
L 79.134292 280.891581 
L 79.200561 277.689724 
L 79.39937 285.60403 
L 79.465639 285.491349 
L 79.598178 288.957006 
L 79.730718 287.5816 
L 79.796987 288.482847 
L 79.863257 287.184752 
L 79.929526 287.190926 
L 80.062065 290.84281 
L 80.260874 287.522523 
L 80.327144 287.550234 
L 80.459683 282.886185 
L 80.525952 283.038107 
L 80.592222 282.473084 
L 80.658491 279.794342 
L 80.79103 283.189011 
L 80.8573 279.660475 
L 80.92357 266.407926 
L 80.989839 267.352096 
L 81.056109 271.305817 
L 81.188648 177.21524 
L 81.387456 280.719225 
L 81.718804 290.812447 
L 81.917613 294.856644 
L 81.983882 294.081631 
L 82.050152 294.20562 
L 82.182691 295.351756 
L 82.31523 294.06872 
L 82.3815 294.521711 
L 82.447769 294.798468 
L 82.514039 294.62482 
L 82.646578 293.585966 
L 83.044195 290.069903 
L 83.176734 291.458535 
L 83.309274 287.712169 
L 83.441813 290.071373 
L 83.574352 290.570001 
L 83.640621 291.11021 
L 83.706891 292.85272 
L 83.77316 292.489077 
L 84.303317 288.181599 
L 84.435856 291.218628 
L 84.502125 290.49476 
L 84.700934 274.87405 
L 84.833473 257.660636 
L 85.032282 276.771588 
L 85.29736 291.712846 
L 85.429899 292.658636 
L 85.694977 291.571837 
L 85.761247 292.5919 
L 85.827517 292.57053 
L 86.158864 290.484617 
L 86.225134 290.050992 
L 86.291403 290.905339 
L 86.423943 284.407237 
L 86.490212 284.658105 
L 86.556482 286.272744 
L 86.622751 283.987183 
L 86.954099 292.919022 
L 87.020369 293.175464 
L 87.152908 292.210675 
L 87.219177 292.34948 
L 87.285447 292.725478 
L 87.417986 291.64506 
L 87.616795 293.295924 
L 87.683064 293.187316 
L 87.749334 293.24467 
L 87.815603 292.667608 
L 88.014412 295.167868 
L 88.080681 295.039562 
L 88.146951 294.916043 
L 88.27949 294.159237 
L 88.412029 295.231154 
L 88.478299 284.012552 
L 88.544568 292.066505 
L 88.610838 290.280251 
L 88.809646 292.67146 
L 88.875916 292.491371 
L 88.942186 291.905531 
L 89.008455 292.671174 
L 89.207264 289.349167 
L 89.339803 291.250787 
L 89.406072 291.123547 
L 89.472342 289.000722 
L 89.538612 289.42296 
L 89.73742 293.360775 
L 89.80369 293.713683 
L 89.869959 293.39164 
L 90.002498 294.162215 
L 90.068768 293.959822 
L 90.135038 293.193193 
L 90.201307 293.970685 
L 90.267577 293.32402 
L 90.466385 294.175747 
L 90.532655 294.291026 
L 90.731464 293.465741 
L 90.797733 292.835126 
L 90.930272 294.352703 
L 91.394159 291.183855 
L 91.592968 292.726426 
L 91.725507 290.107292 
L 91.990585 293.592201 
L 92.056855 287.741737 
L 92.123124 263.454892 
L 92.321933 291.303034 
L 92.454472 291.945794 
L 92.587011 293.361337 
L 92.653281 294.825342 
L 92.71955 294.020556 
L 92.78582 292.692094 
L 92.852089 293.025295 
L 92.918359 292.934688 
L 93.050898 293.704631 
L 93.117168 293.533157 
L 93.249707 294.480352 
L 93.315976 294.411247 
L 93.647324 295.446327 
L 93.846133 294.018775 
L 93.978672 293.239736 
L 94.044941 293.357713 
L 94.111211 293.816954 
L 94.24375 291.868356 
L 94.310019 292.063559 
L 94.508828 293.646137 
L 94.575098 293.090413 
L 94.641367 293.402947 
L 94.707637 293.289684 
L 94.773906 293.32961 
L 94.972715 294.536794 
L 95.038985 294.271045 
L 95.237793 292.912061 
L 95.304063 293.674391 
L 95.370332 293.476728 
L 95.70168 289.935349 
L 95.76795 291.926671 
L 95.834219 285.68531 
L 95.900489 288.661028 
L 95.966758 288.976013 
L 96.165567 294.654876 
L 96.231837 294.616206 
L 96.761993 295.304628 
L 96.960802 295.267153 
L 97.027071 295.212957 
L 97.15961 295.317903 
L 97.424689 295.060721 
L 97.756036 295.277271 
L 97.888575 295.243209 
L 98.286193 294.888812 
L 98.418732 294.939578 
L 98.485001 295.072041 
L 98.68381 294.25091 
L 98.75008 294.362256 
L 98.882619 293.586952 
L 98.948888 294.056514 
L 99.015158 293.795624 
L 99.147697 294.100132 
L 99.213966 294.432949 
L 99.280236 294.105789 
L 99.412775 290.470206 
L 99.545314 294.123647 
L 99.611584 292.89563 
L 99.810392 294.378156 
L 99.876662 294.256705 
L 99.942932 294.303273 
L 100.14174 294.755302 
L 100.340549 295.163763 
L 100.539358 294.831231 
L 100.738166 294.775188 
L 100.870705 294.817417 
L 101.003244 294.866746 
L 101.135784 295.002585 
L 101.268323 295.093848 
L 101.467131 295.28018 
L 101.66594 295.248919 
L 101.864749 295.090982 
L 101.931018 295.226006 
L 101.997288 294.982357 
L 102.063557 295.088233 
L 102.129827 295.08342 
L 102.328636 294.671899 
L 102.461175 294.907966 
L 102.527444 294.821833 
L 102.726253 295.011516 
L 102.925062 295.144002 
L 102.991331 294.762353 
L 103.12387 290.495286 
L 103.256409 293.699617 
L 103.455218 294.450881 
L 103.654027 294.963733 
L 103.852835 295.178526 
L 103.919105 295.211239 
L 104.051644 295.075403 
L 104.117913 295.231177 
L 104.184183 295.11714 
L 104.515531 295.352233 
L 104.714339 295.232068 
L 104.979418 295.269471 
L 105.310765 295.059819 
L 105.575844 295.261277 
L 105.840922 295.292079 
L 106.039731 294.919927 
L 106.106 295.089225 
L 106.17227 295.131253 
L 106.304809 294.77225 
L 106.371078 294.329084 
L 106.437348 294.522942 
L 106.503617 294.693486 
L 106.569887 294.57307 
L 106.636157 294.444717 
L 106.702426 293.981752 
L 106.834965 291.157763 
L 106.967504 292.842802 
L 107.033774 291.873235 
L 107.232583 294.933531 
L 107.6302 295.076074 
L 107.762739 294.810149 
L 107.961548 295.227836 
L 108.094087 295.17382 
L 108.226626 295.169039 
L 108.690513 294.946964 
L 108.823052 295.029721 
L 109.08813 294.233644 
L 109.1544 294.631932 
L 109.220669 294.267416 
L 109.286939 294.524458 
L 109.353208 294.269566 
L 109.419478 294.538204 
L 109.485747 294.228101 
L 109.552017 294.516596 
L 109.618286 294.432828 
L 109.684556 294.176391 
L 109.750826 294.215765 
L 109.817095 294.624512 
L 109.883365 294.390391 
L 109.949634 294.301036 
L 110.015904 294.684734 
L 110.082173 294.361738 
L 110.148443 294.382533 
L 110.280982 294.1739 
L 110.678599 292.749729 
L 110.744869 294.452049 
L 110.811138 294.334157 
L 111.076217 295.040968 
L 111.341295 295.254641 
L 111.606373 295.329776 
L 111.937721 295.149046 
L 112.202799 295.22886 
L 112.335338 295.101175 
L 112.401608 295.207574 
L 112.467877 295.112295 
L 112.732956 294.812992 
L 112.865495 295.029281 
L 113.329382 293.827549 
L 113.461921 294.312322 
L 113.59446 294.235174 
L 113.726999 294.608467 
L 113.793268 294.497849 
L 113.859538 294.557782 
L 113.925807 294.771104 
L 113.992077 294.533839 
L 114.058347 294.585206 
L 114.323425 289.618332 
L 114.588503 294.02966 
L 114.654773 294.16207 
L 114.853581 293.658931 
L 114.98612 294.946101 
L 115.05239 294.935035 
L 115.251199 294.90044 
L 115.317468 295.013391 
L 115.383738 294.780158 
L 115.450007 294.805778 
L 115.582546 294.820147 
L 115.715085 294.811667 
L 115.847625 294.881126 
L 115.913894 294.709268 
L 115.980164 294.737194 
L 116.046433 294.988532 
L 116.112703 294.890848 
L 116.245242 294.850948 
L 116.311511 295.018944 
L 116.377781 294.892179 
L 116.57659 294.982975 
L 116.642859 294.857836 
L 116.709129 294.897209 
L 116.907937 294.898751 
L 116.974207 294.945213 
L 117.173016 294.507875 
L 117.239285 294.773579 
L 117.438094 294.218219 
L 117.504363 294.411368 
L 117.703172 293.835438 
L 117.835711 292.810715 
L 117.96825 293.538787 
L 118.100789 294.636163 
L 118.167059 294.55573 
L 118.233329 294.943824 
L 118.299598 294.898075 
L 118.365868 294.861557 
L 118.432137 294.679626 
L 118.564676 294.971175 
L 118.630946 294.850267 
L 118.763485 295.027316 
L 119.094833 294.92899 
L 119.293641 295.228699 
L 119.42618 295.142675 
L 119.757528 295.281513 
L 120.088876 295.389215 
L 120.817841 295.265493 
L 121.01665 295.210216 
L 121.082919 295.218629 
L 121.215458 294.963689 
L 121.281728 295.032561 
L 121.347998 295.043496 
L 121.480537 294.522223 
L 121.546806 294.764162 
L 121.613076 294.688279 
L 121.745615 294.452032 
L 121.944424 295.072301 
L 122.010693 294.883528 
L 122.143232 295.203772 
L 122.342041 295.260266 
L 123.203545 295.344657 
L 123.601162 295.125791 
L 123.799971 295.230501 
L 123.866241 295.062798 
L 123.93251 295.100531 
L 124.131319 295.154886 
L 124.197588 295.009114 
L 124.263858 295.045417 
L 124.595206 295.17621 
L 124.727745 295.052995 
L 124.794014 294.631266 
L 124.860284 294.869795 
L 124.926553 295.103368 
L 125.059093 294.694288 
L 125.125362 294.955933 
L 125.39044 290.800511 
L 125.522979 292.765951 
L 125.589249 292.802151 
L 125.655519 293.637174 
L 125.721788 293.61995 
L 125.854327 293.261757 
L 126.119405 294.635804 
L 126.251945 294.835067 
L 126.583292 295.21284 
L 126.782101 295.252155 
L 127.312257 295.363833 
L 127.511066 295.259971 
L 128.107492 295.105719 
L 128.173762 295.252435 
L 128.240031 295.217626 
L 128.37257 295.166592 
L 128.505109 295.309504 
L 128.571379 295.234561 
L 128.703918 295.40433 
L 128.770188 295.006422 
L 128.836457 295.278549 
L 129.167805 294.952732 
L 129.300344 295.445204 
L 129.366614 295.320552 
L 129.697961 295.124708 
L 129.89677 295.268786 
L 130.029309 295.315968 
L 130.161848 294.94769 
L 130.228118 294.98944 
L 130.426926 295.056943 
L 130.493196 295.016506 
L 130.692005 295.197137 
L 131.3547 295.322685 
L 131.619778 295.331924 
L 131.818587 295.245321 
L 131.884857 295.291934 
L 132.017396 295.177704 
L 132.149935 295.225335 
L 132.216204 295.049509 
L 132.282474 295.091931 
L 132.415013 295.19523 
L 132.481283 295.025321 
L 132.613822 294.414512 
L 132.680091 294.490458 
L 132.746361 294.057607 
L 132.81263 294.336437 
L 132.94517 294.229775 
L 133.077709 293.908389 
L 133.276517 294.309713 
L 133.342787 294.248967 
L 133.409056 294.611506 
L 133.475326 294.511721 
L 133.541596 294.43508 
L 133.674135 294.839558 
L 133.806674 294.802473 
L 133.872943 294.746202 
L 133.939213 294.92436 
L 134.005482 294.820885 
L 134.204291 294.635246 
L 134.601908 294.887012 
L 134.734447 294.795051 
L 134.800717 295.061149 
L 134.866987 294.965922 
L 134.999526 294.902519 
L 135.132065 295.011674 
L 135.198334 295.084927 
L 135.264604 294.964104 
L 135.330873 295.067878 
L 135.463413 295.084659 
L 135.529682 294.987929 
L 135.595952 295.045568 
L 136.258647 295.246862 
L 136.324917 294.540884 
L 136.391186 294.841958 
L 136.589995 295.160275 
L 136.987612 295.200814 
L 137.186421 295.251909 
L 137.517769 294.985007 
L 137.716577 295.168738 
L 137.849117 295.061064 
L 138.114195 295.290251 
L 138.445543 295.242119 
L 138.710621 295.355945 
L 139.373316 295.421255 
L 139.572125 295.36456 
L 139.704664 295.327946 
L 139.837203 295.470495 
L 140.30109 295.107813 
L 140.499899 295.318046 
L 140.764977 295.118832 
L 140.897516 295.145528 
L 140.963786 295.009667 
L 141.030055 295.115624 
L 141.295133 294.966857 
L 141.560212 295.074315 
L 141.626481 295.19635 
L 141.692751 294.976113 
L 141.75902 295.018446 
L 142.024098 295.208719 
L 142.156638 295.311555 
L 142.819333 295.096971 
L 143.018142 295.094739 
L 143.084411 294.845548 
L 143.150681 295.007801 
L 143.415759 294.928187 
L 143.482029 294.719055 
L 143.614568 295.024747 
L 143.680837 294.951711 
L 143.813376 294.992643 
L 143.879646 294.810262 
L 144.012185 295.04335 
L 144.078455 294.932862 
L 144.144724 295.003174 
L 144.409802 295.004031 
L 144.674881 295.267969 
L 144.873689 295.265654 
L 145.006228 295.310712 
L 145.138767 295.326257 
L 145.536385 295.42193 
L 146.000272 295.380244 
L 146.19908 295.3664 
L 146.397889 295.291647 
L 146.596698 295.364434 
L 146.928045 295.298015 
L 147.126854 295.3406 
L 147.259393 295.279978 
L 147.458202 295.101479 
L 147.590741 295.09042 
L 147.78955 295.154465 
L 147.855819 295.065917 
L 148.120897 295.268283 
L 149.843906 295.463575 
L 150.108984 295.461534 
L 150.506601 295.439699 
L 151.235566 295.385877 
L 151.500645 295.402797 
L 151.831992 295.276734 
L 152.030801 295.212212 
L 152.362149 295.170419 
L 152.428418 295.270662 
L 152.494688 295.209681 
L 152.627227 295.176706 
L 153.024844 295.120505 
L 153.289923 295.164501 
L 153.488731 295.071153 
L 153.555001 295.23625 
L 153.62127 295.172085 
L 153.820079 295.145049 
L 154.085157 295.240012 
L 154.151427 295.123247 
L 154.217696 295.191529 
L 154.350235 295.22372 
L 154.416505 295.096119 
L 154.482775 295.203688 
L 154.681583 295.156218 
L 154.814122 295.175228 
L 155.14547 295.310415 
L 155.21174 295.357714 
L 155.344279 295.175495 
L 155.808166 295.478271 
L 156.6034 295.28268 
L 156.66967 295.370583 
L 156.735939 295.305404 
L 156.868479 295.32588 
L 157.067287 295.294853 
L 157.398635 295.335961 
L 157.663713 295.301629 
L 158.1276 295.290456 
L 158.326409 295.233711 
L 158.525217 295.299614 
L 158.856565 295.390644 
L 160.977191 295.436127 
L 161.374808 295.471243 
L 162.368852 295.347742 
L 162.56766 295.343475 
L 162.700199 295.303583 
L 162.965278 295.385334 
L 163.893051 295.420104 
L 165.881138 295.4352 
L 166.079947 295.412628 
L 166.543833 295.360365 
L 166.676373 295.361761 
L 166.875181 295.384835 
L 167.272799 295.33489 
L 167.537877 295.430436 
L 167.736685 295.383763 
L 168.59819 295.351971 
L 170.05612 295.373314 
L 170.254928 295.27128 
L 170.387468 295.280641 
L 171.182702 295.359602 
L 176.02038 295.479267 
L 176.815614 295.425251 
L 186.159621 295.459739 
L 188.213978 295.481585 
L 189.40683 295.425618 
L 190.003256 295.459811 
L 191.394916 295.460368 
L 192.32269 295.471208 
L 193.714351 295.392812 
L 193.979429 295.365623 
L 198.618298 295.438115 
L 198.817106 295.373259 
L 199.015915 295.444336 
L 199.612341 295.445008 
L 200.805193 295.480508 
L 203.124627 295.459833 
L 203.986131 295.466281 
L 204.450018 295.439125 
L 205.046444 295.439412 
L 205.576601 295.444722 
L 209.420235 295.472672 
L 210.281739 295.449761 
L 210.745626 295.448893 
L 211.408322 295.463091 
L 214.125373 295.449604 
L 214.854338 295.437407 
L 217.836468 295.473896 
L 219.09559 295.455306 
L 219.758285 295.468021 
L 241.560969 295.439701 
L 242.82009 295.452739 
L 244.675638 295.481414 
L 280.394927 295.471611 
L 283.774675 295.464088 
L 284.50364 295.469155 
L 287.750848 295.47658 
L 288.479813 295.479287 
L 293.184951 295.475401 
L 305.842436 295.482684 
L 315.782869 295.467505 
L 318.63246 295.483649 
L 322.741172 295.483033 
L 329.368128 295.472235 
L 330.892328 295.4645 
L 332.615336 295.466277 
L 333.609379 295.458885 
L 334.338344 295.452884 
L 335.00104 295.454661 
L 345.537899 295.466721 
L 346.200595 295.462973 
L 348.122412 295.467806 
L 351.170811 295.477551 
L 354.683097 295.477822 
L 398.487273 295.482473 
L 398.487273 295.482473 
" clip-path="url(#p0008d60dfc)" style="fill: none; stroke: #1f77b4; stroke-width: 1.5; stroke-linecap: square"/>
   </g>
   <g id="patch_3">
    <path d="M 57.6 307.584 
L 57.6 41.472 
" style="fill: none; stroke: #000000; stroke-width: 0.8; stroke-linejoin: miter; stroke-linecap: square"/>
   </g>
   <g id="patch_4">
    <path d="M 414.72 307.584 
L 414.72 41.472 
" style="fill: none; stroke: #000000; stroke-width: 0.8; stroke-linejoin: miter; stroke-linecap: square"/>
   </g>
   <g id="patch_5">
    <path d="M 57.6 307.584 
L 414.72 307.584 
" style="fill: none; stroke: #000000; stroke-width: 0.8; stroke-linejoin: miter; stroke-linecap: square"/>
   </g>
   <g id="patch_6">
    <path d="M 57.6 41.472 
L 414.72 41.472 
" style="fill: none; stroke: #000000; stroke-width: 0.8; stroke-linejoin: miter; stroke-linecap: square"/>
   </g>
   <g id="text_15">
    <text style="font: 12px 'IPAexGothic'; text-anchor: middle" x="236.16" y="35.472" transform="rotate(-0 236.16 35.472)">"033_A1.wav"の振幅スペクトル</text>
   </g>
  </g>
 </g>
 <defs>
  <clipPath id="p0008d60dfc">
   <rect x="57.6" y="41.472" width="357.12" height="266.112"/>
  </clipPath>
 </defs>
</svg>
