<?xml version="1.0" encoding="utf-8" standalone="no"?>
<!DOCTYPE svg PUBLIC "-//W3C//DTD SVG 1.1//EN"
  "http://www.w3.org/Graphics/SVG/1.1/DTD/svg11.dtd">
<svg xmlns:xlink="http://www.w3.org/1999/xlink" width="460.8pt" height="345.6pt" viewBox="0 0 460.8 345.6" xmlns="http://www.w3.org/2000/svg" version="1.1">
 <metadata>
  <rdf:RDF xmlns:dc="http://purl.org/dc/elements/1.1/" xmlns:cc="http://creativecommons.org/ns#" xmlns:rdf="http://www.w3.org/1999/02/22-rdf-syntax-ns#">
   <cc:Work>
    <dc:type rdf:resource="http://purl.org/dc/dcmitype/StillImage"/>
    <dc:date>2022-11-28T12:35:48.205708</dc:date>
    <dc:format>image/svg+xml</dc:format>
    <dc:creator>
     <cc:Agent>
      <dc:title>Matplotlib v3.6.2, https://matplotlib.org/</dc:title>
     </cc:Agent>
    </dc:creator>
   </cc:Work>
  </rdf:RDF>
 </metadata>
 <defs>
  <style type="text/css">*{stroke-linejoin: round; stroke-linecap: butt}</style>
 </defs>
 <g id="figure_1">
  <g id="patch_1">
   <path d="M 0 345.6 
L 460.8 345.6 
L 460.8 0 
L 0 0 
z
" style="fill: #ffffff"/>
  </g>
  <g id="axes_1">
   <g id="patch_2">
    <path d="M 57.6 307.584 
L 414.72 307.584 
L 414.72 41.472 
L 57.6 41.472 
z
" style="fill: #ffffff"/>
   </g>
   <g id="matplotlib.axis_1">
    <g id="xtick_1">
     <g id="line2d_1">
      <defs>
       <path id="m452e829143" d="M 0 0 
L 0 3.5 
" style="stroke: #000000; stroke-width: 0.8"/>
      </defs>
      <g>
       <use xlink:href="#m452e829143" x="73.832727" y="307.584" style="stroke: #000000; stroke-width: 0.8"/>
      </g>
     </g>
     <g id="text_1">
      <text style="font: 10px 'IPAexGothic'; text-anchor: middle" x="73.832727" y="322.074625" transform="rotate(-0 73.832727 322.074625)">0</text>
     </g>
    </g>
    <g id="xtick_2">
     <g id="line2d_2">
      <g>
       <use xlink:href="#m452e829143" x="140.102281" y="307.584" style="stroke: #000000; stroke-width: 0.8"/>
      </g>
     </g>
     <g id="text_2">
      <text style="font: 10px 'IPAexGothic'; text-anchor: middle" x="140.102281" y="322.074625" transform="rotate(-0 140.102281 322.074625)">1000</text>
     </g>
    </g>
    <g id="xtick_3">
     <g id="line2d_3">
      <g>
       <use xlink:href="#m452e829143" x="206.371835" y="307.584" style="stroke: #000000; stroke-width: 0.8"/>
      </g>
     </g>
     <g id="text_3">
      <text style="font: 10px 'IPAexGothic'; text-anchor: middle" x="206.371835" y="322.074625" transform="rotate(-0 206.371835 322.074625)">2000</text>
     </g>
    </g>
    <g id="xtick_4">
     <g id="line2d_4">
      <g>
       <use xlink:href="#m452e829143" x="272.64139" y="307.584" style="stroke: #000000; stroke-width: 0.8"/>
      </g>
     </g>
     <g id="text_4">
      <text style="font: 10px 'IPAexGothic'; text-anchor: middle" x="272.64139" y="322.074625" transform="rotate(-0 272.64139 322.074625)">3000</text>
     </g>
    </g>
    <g id="xtick_5">
     <g id="line2d_5">
      <g>
       <use xlink:href="#m452e829143" x="338.910944" y="307.584" style="stroke: #000000; stroke-width: 0.8"/>
      </g>
     </g>
     <g id="text_5">
      <text style="font: 10px 'IPAexGothic'; text-anchor: middle" x="338.910944" y="322.074625" transform="rotate(-0 338.910944 322.074625)">4000</text>
     </g>
    </g>
    <g id="xtick_6">
     <g id="line2d_6">
      <g>
       <use xlink:href="#m452e829143" x="405.180498" y="307.584" style="stroke: #000000; stroke-width: 0.8"/>
      </g>
     </g>
     <g id="text_6">
      <text style="font: 10px 'IPAexGothic'; text-anchor: middle" x="405.180498" y="322.074625" transform="rotate(-0 405.180498 322.074625)">5000</text>
     </g>
    </g>
    <g id="text_7">
     <text style="font: 10px 'IPAexGothic'; text-anchor: middle" x="236.16" y="335.924625" transform="rotate(-0 236.16 335.924625)">周波数[Hz]</text>
    </g>
   </g>
   <g id="matplotlib.axis_2">
    <g id="ytick_1">
     <g id="line2d_7">
      <defs>
       <path id="m8bb02c424e" d="M 0 0 
L -3.5 0 
" style="stroke: #000000; stroke-width: 0.8"/>
      </defs>
      <g>
       <use xlink:href="#m8bb02c424e" x="57.6" y="295.488563" style="stroke: #000000; stroke-width: 0.8"/>
      </g>
     </g>
     <g id="text_8">
      <text style="font: 10px 'IPAexGothic'; text-anchor: end" x="50.6" y="299.233876" transform="rotate(-0 50.6 299.233876)">0.0</text>
     </g>
    </g>
    <g id="ytick_2">
     <g id="line2d_8">
      <g>
       <use xlink:href="#m8bb02c424e" x="57.6" y="247.354202" style="stroke: #000000; stroke-width: 0.8"/>
      </g>
     </g>
     <g id="text_9">
      <text style="font: 10px 'IPAexGothic'; text-anchor: end" x="50.6" y="251.099515" transform="rotate(-0 50.6 251.099515)">0.2</text>
     </g>
    </g>
    <g id="ytick_3">
     <g id="line2d_9">
      <g>
       <use xlink:href="#m8bb02c424e" x="57.6" y="199.219841" style="stroke: #000000; stroke-width: 0.8"/>
      </g>
     </g>
     <g id="text_10">
      <text style="font: 10px 'IPAexGothic'; text-anchor: end" x="50.6" y="202.965154" transform="rotate(-0 50.6 202.965154)">0.4</text>
     </g>
    </g>
    <g id="ytick_4">
     <g id="line2d_10">
      <g>
       <use xlink:href="#m8bb02c424e" x="57.6" y="151.08548" style="stroke: #000000; stroke-width: 0.8"/>
      </g>
     </g>
     <g id="text_11">
      <text style="font: 10px 'IPAexGothic'; text-anchor: end" x="50.6" y="154.830793" transform="rotate(-0 50.6 154.830793)">0.6</text>
     </g>
    </g>
    <g id="ytick_5">
     <g id="line2d_11">
      <g>
       <use xlink:href="#m8bb02c424e" x="57.6" y="102.951119" style="stroke: #000000; stroke-width: 0.8"/>
      </g>
     </g>
     <g id="text_12">
      <text style="font: 10px 'IPAexGothic'; text-anchor: end" x="50.6" y="106.696431" transform="rotate(-0 50.6 106.696431)">0.8</text>
     </g>
    </g>
    <g id="ytick_6">
     <g id="line2d_12">
      <g>
       <use xlink:href="#m8bb02c424e" x="57.6" y="54.816758" style="stroke: #000000; stroke-width: 0.8"/>
      </g>
     </g>
     <g id="text_13">
      <text style="font: 10px 'IPAexGothic'; text-anchor: end" x="50.6" y="58.56207" transform="rotate(-0 50.6 58.56207)">1.0</text>
     </g>
    </g>
    <g id="text_14">
     <text style="font: 10px 'IPAexGothic'; text-anchor: middle" x="29.460938" y="174.528" transform="rotate(-90 29.460938 174.528)">振幅</text>
    </g>
    <g id="text_15">
     <text style="font: 10px 'IPAexGothic'; text-anchor: start" x="57.6" y="38.472" transform="rotate(-0 57.6 38.472)">1e7</text>
    </g>
   </g>
   <g id="line2d_13">
    <path d="M 73.832727 282.981812 
L 73.965266 294.734352 
L 74.164075 294.767713 
L 74.561692 295.471762 
L 74.95931 295.263628 
L 75.356927 295.363681 
L 75.489466 294.657144 
L 75.622005 295.251472 
L 75.887083 295.339613 
L 76.35097 295.350739 
L 76.549779 295.243381 
L 76.947396 295.378903 
L 77.013666 295.320415 
L 77.079935 294.374227 
L 77.212475 295.301068 
L 77.543822 295.369069 
L 77.742631 295.352921 
L 78.339057 295.17147 
L 78.471596 295.188817 
L 78.604135 295.413897 
L 78.670405 293.72773 
L 78.736674 294.452752 
L 78.935483 295.074015 
L 79.134292 295.12795 
L 79.266831 295.078558 
L 79.39937 295.10575 
L 79.465639 295.031042 
L 79.598178 295.117971 
L 79.929526 294.903842 
L 79.995796 294.887131 
L 80.062065 295.005493 
L 80.260874 294.709739 
L 80.327144 295.211526 
L 80.393413 295.023121 
L 80.658491 294.934554 
L 80.8573 294.948883 
L 80.92357 294.737079 
L 80.989839 294.884653 
L 81.122378 294.941286 
L 81.188648 294.834476 
L 81.254917 295.011675 
L 81.321187 294.910443 
L 81.387456 295.043733 
L 81.519996 294.858188 
L 81.586265 295.015506 
L 81.718804 294.780911 
L 81.851343 294.834471 
L 81.917613 294.323602 
L 81.983882 294.908753 
L 82.050152 294.82897 
L 82.182691 294.991886 
L 82.31523 294.806345 
L 82.3815 294.971126 
L 82.447769 294.886982 
L 82.646578 294.619233 
L 82.779117 294.944267 
L 82.845387 294.727444 
L 82.911656 294.791238 
L 83.176734 294.938056 
L 83.309274 294.58947 
L 83.441813 294.859642 
L 83.640621 294.60041 
L 83.706891 294.88272 
L 83.77316 294.744003 
L 83.905699 294.635427 
L 84.170778 294.869711 
L 84.303317 294.373283 
L 84.435856 294.684984 
L 84.700934 294.291989 
L 84.767204 294.342577 
L 84.833473 294.710225 
L 84.899743 294.680283 
L 85.164821 294.247141 
L 85.29736 294.471616 
L 85.36363 294.232624 
L 85.429899 294.373275 
L 85.562438 294.476538 
L 85.694977 294.248492 
L 85.761247 294.522026 
L 85.827517 294.505539 
L 86.158864 294.028062 
L 86.225134 294.166035 
L 86.291403 294.581898 
L 86.423943 293.996127 
L 86.556482 294.455206 
L 86.622751 294.09967 
L 86.689021 294.246955 
L 86.75529 294.565295 
L 86.82156 294.095074 
L 86.887829 294.236631 
L 86.954099 294.215006 
L 87.086638 293.768588 
L 87.152908 293.785694 
L 87.285447 294.373744 
L 87.417986 293.988373 
L 87.550525 294.315633 
L 87.616795 294.305919 
L 87.815603 293.688166 
L 87.881873 293.768312 
L 88.080681 294.182115 
L 88.27949 293.719943 
L 88.34576 293.873144 
L 88.412029 294.406443 
L 88.478299 294.309416 
L 88.544568 294.19242 
L 88.610838 293.470494 
L 88.677107 293.845316 
L 88.743377 293.687835 
L 88.809646 294.220677 
L 88.875916 294.101598 
L 88.942186 293.906393 
L 89.008455 294.379901 
L 89.207264 293.686695 
L 89.406072 294.405411 
L 89.538612 293.514049 
L 89.73742 294.190704 
L 89.80369 294.150951 
L 89.869959 293.773285 
L 89.936229 293.939602 
L 90.002498 294.332179 
L 90.135038 293.397456 
L 90.201307 294.056425 
L 90.267577 293.668711 
L 90.400116 294.257419 
L 90.532655 294.296005 
L 90.797733 293.21897 
L 90.930272 294.479501 
L 91.129081 294.117269 
L 91.26162 294.002545 
L 91.394159 293.87753 
L 91.659237 294.333126 
L 91.725507 293.952236 
L 91.791776 294.009601 
L 91.858046 294.2109 
L 91.924316 293.990996 
L 92.056855 294.178244 
L 92.123124 294.032535 
L 92.189394 294.143096 
L 92.454472 294.114542 
L 92.653281 294.147487 
L 92.71955 294.052828 
L 92.78582 294.109293 
L 92.852089 294.377058 
L 92.918359 294.045468 
L 92.984628 294.138314 
L 93.050898 294.332334 
L 93.249707 293.804833 
L 93.315976 293.834301 
L 93.382246 293.733088 
L 93.581054 294.456431 
L 93.647324 294.38721 
L 93.846133 293.912658 
L 94.044941 294.281839 
L 94.111211 294.602246 
L 94.24375 293.730964 
L 94.310019 293.74738 
L 94.508828 294.368538 
L 94.707637 293.461225 
L 94.773906 293.354059 
L 94.972715 294.283209 
L 95.038985 294.069268 
L 95.237793 293.094984 
L 95.370332 294.188443 
L 95.569141 293.773287 
L 95.635411 294.021577 
L 95.70168 293.70446 
L 95.76795 294.079957 
L 95.834219 293.992789 
L 95.900489 293.995469 
L 96.033028 293.346449 
L 96.099297 294.238105 
L 96.165567 294.127797 
L 96.430645 293.603863 
L 96.563184 294.194593 
L 96.629454 293.561306 
L 96.695723 293.824204 
L 96.761993 294.144652 
L 96.828263 294.008369 
L 96.894532 293.551887 
L 97.093341 294.219967 
L 97.22588 293.694849 
L 97.358419 294.187123 
L 97.490958 293.868179 
L 97.557228 293.930514 
L 97.623497 293.699921 
L 97.689767 293.79329 
L 97.822306 294.210766 
L 97.954845 294.060752 
L 98.087384 294.072088 
L 98.219923 294.054378 
L 98.485001 294.625247 
L 98.551271 294.02869 
L 98.61754 294.188176 
L 98.68381 293.885032 
L 98.75008 294.247683 
L 98.882619 293.546397 
L 98.948888 293.957129 
L 99.015158 293.67298 
L 99.213966 294.242155 
L 99.346506 293.891918 
L 99.479045 294.187456 
L 99.545314 294.125124 
L 99.611584 293.851684 
L 99.744123 294.260658 
L 99.942932 293.623753 
L 100.009201 293.909087 
L 100.075471 293.70659 
L 100.14174 293.880977 
L 100.20801 293.848337 
L 100.274279 293.797562 
L 100.340549 294.492806 
L 100.406818 294.065983 
L 100.473088 294.188828 
L 100.605627 293.780061 
L 100.870705 294.099124 
L 101.003244 294.064799 
L 101.069514 294.115103 
L 101.202053 293.790566 
L 101.268323 293.936969 
L 101.334592 294.293238 
L 101.533401 293.561089 
L 101.66594 293.638612 
L 101.73221 293.530611 
L 101.931018 294.440615 
L 101.997288 293.557316 
L 102.063557 293.96245 
L 102.129827 294.006683 
L 102.328636 293.517149 
L 102.461175 293.919168 
L 102.527444 293.643847 
L 102.593714 293.86695 
L 102.726253 293.49148 
L 102.925062 293.668087 
L 102.991331 293.273479 
L 103.12387 293.911807 
L 103.256409 294.047004 
L 103.322679 293.969326 
L 103.455218 292.692519 
L 103.521488 293.096211 
L 103.720296 293.717582 
L 103.852835 293.437276 
L 103.919105 293.750737 
L 103.985374 293.463257 
L 104.051644 293.518879 
L 104.117913 294.102366 
L 104.184183 293.239033 
L 104.250453 293.415015 
L 104.382992 293.807328 
L 104.5818 293.00299 
L 104.64807 292.590406 
L 104.913148 294.383626 
L 104.979418 294.404986 
L 105.045687 293.861018 
L 105.111957 292.283517 
L 105.178226 292.645043 
L 105.244496 292.543345 
L 105.575844 293.477095 
L 105.840922 293.863679 
L 105.907191 293.547063 
L 106.039731 292.126524 
L 106.17227 293.63816 
L 106.238539 293.575828 
L 106.304809 293.211553 
L 106.371078 292.02056 
L 106.437348 292.576132 
L 106.569887 293.660204 
L 106.636157 293.52356 
L 106.702426 293.691175 
L 106.768696 294.332699 
L 106.834965 293.932832 
L 107.100043 293.294209 
L 107.298852 293.510755 
L 107.431391 294.08981 
L 107.6302 293.701227 
L 107.762739 292.446075 
L 107.961548 294.204129 
L 108.094087 293.572369 
L 108.160356 293.889565 
L 108.226626 293.436054 
L 108.292895 293.639797 
L 108.425435 293.386726 
L 108.690513 294.072074 
L 108.756782 294.052211 
L 108.823052 294.278951 
L 109.08813 292.989356 
L 109.1544 293.826574 
L 109.220669 293.253875 
L 109.286939 293.865057 
L 109.353208 293.507546 
L 109.552017 294.055976 
L 109.618286 293.940561 
L 109.684556 293.585885 
L 109.750826 293.644461 
L 109.817095 294.213473 
L 109.883365 293.836503 
L 109.949634 293.664539 
L 110.015904 294.174128 
L 110.148443 293.543685 
L 110.214712 293.49879 
L 110.347252 293.901137 
L 110.479791 293.548686 
L 110.61233 293.937116 
L 110.678599 293.594171 
L 110.744869 293.832904 
L 110.811138 293.578287 
L 110.943678 293.873196 
L 111.208756 293.411058 
L 111.275025 293.906448 
L 111.407564 293.371594 
L 111.540104 293.907249 
L 111.672643 293.07399 
L 111.738912 294.067249 
L 111.805182 293.868799 
L 111.937721 293.379863 
L 112.13653 293.884427 
L 112.269069 293.379393 
L 112.335338 293.503203 
L 112.401608 293.671858 
L 112.467877 293.327636 
L 112.534147 293.377355 
L 112.600416 293.346344 
L 112.666686 293.516281 
L 112.732956 293.182767 
L 112.865495 294.091043 
L 112.931764 293.816654 
L 112.998034 294.158319 
L 113.064303 294.066651 
L 113.196842 293.279131 
L 113.263112 293.530249 
L 113.329382 292.930209 
L 113.461921 293.619448 
L 113.59446 293.032138 
L 113.726999 293.626218 
L 113.793268 293.20262 
L 113.859538 293.277354 
L 113.992077 293.649087 
L 114.058347 293.6949 
L 114.124616 293.983317 
L 114.323425 292.989393 
L 114.389694 293.513534 
L 114.455964 293.022022 
L 114.522233 293.203956 
L 114.654773 293.759294 
L 114.853581 292.57654 
L 114.919851 293.055151 
L 114.98612 294.229818 
L 115.05239 293.977581 
L 115.251199 293.307546 
L 115.317468 293.829209 
L 115.383738 293.308348 
L 115.450007 293.48122 
L 115.516277 293.717223 
L 115.582546 293.570287 
L 115.648816 293.333826 
L 115.715085 293.464959 
L 115.847625 293.79117 
L 115.913894 293.180886 
L 115.980164 293.288438 
L 116.046433 293.940281 
L 116.112703 293.551272 
L 116.245242 293.268254 
L 116.311511 293.725862 
L 116.377781 293.283434 
L 116.444051 293.324209 
L 116.51032 293.686045 
L 116.57659 293.64516 
L 116.642859 293.241929 
L 116.709129 293.432992 
L 116.775398 293.258933 
L 116.841668 293.634086 
L 116.907937 293.442434 
L 116.974207 293.737669 
L 117.106746 293.214908 
L 117.173016 293.247311 
L 117.239285 293.83745 
L 117.438094 293.062401 
L 117.504363 293.783756 
L 117.636903 293.204433 
L 117.703172 293.304777 
L 117.769442 292.939591 
L 117.835711 293.12493 
L 118.03452 293.781517 
L 118.167059 293.398452 
L 118.233329 291.910566 
L 118.365868 293.487679 
L 118.432137 292.800181 
L 118.564676 293.544984 
L 118.630946 293.186392 
L 118.697215 293.835102 
L 118.763485 293.631535 
L 119.094833 292.581645 
L 119.161102 293.608128 
L 119.227372 293.207962 
L 119.293641 293.876796 
L 119.42618 293.059376 
L 119.49245 293.238203 
L 119.55872 293.067277 
L 119.691259 293.514264 
L 119.757528 292.995829 
L 119.823798 293.220402 
L 119.890067 292.895812 
L 119.956337 292.948946 
L 120.022606 293.558477 
L 120.088876 293.410701 
L 120.221415 292.9627 
L 120.287685 293.493116 
L 120.420224 292.829312 
L 120.486493 292.86072 
L 120.552763 293.280417 
L 120.619032 293.191856 
L 120.685302 293.365157 
L 120.751572 292.508032 
L 120.817841 293.331114 
L 120.884111 292.990999 
L 121.01665 293.240092 
L 121.082919 293.499639 
L 121.215458 292.484529 
L 121.347998 293.276724 
L 121.414267 293.338804 
L 121.480537 292.742939 
L 121.546806 292.974267 
L 121.613076 292.750927 
L 121.679345 292.809167 
L 121.944424 293.685411 
L 122.010693 292.564536 
L 122.076963 292.921567 
L 122.209502 292.515233 
L 122.40831 293.565595 
L 122.54085 292.808818 
L 122.607119 292.673825 
L 122.673389 293.183616 
L 122.805928 292.019978 
L 122.938467 293.158665 
L 123.004736 293.219743 
L 123.071006 292.516391 
L 123.137276 292.588592 
L 123.203545 293.087277 
L 123.269815 292.807022 
L 123.336084 292.428946 
L 123.468623 293.255484 
L 123.534893 292.335863 
L 123.601162 292.360045 
L 123.799971 293.410924 
L 123.866241 292.043314 
L 123.93251 292.596585 
L 123.99878 292.565137 
L 124.065049 292.092647 
L 124.131319 292.934824 
L 124.197588 292.105423 
L 124.263858 292.525064 
L 124.462667 293.130395 
L 124.528936 293.001728 
L 124.595206 293.17636 
L 124.661475 293.138436 
L 124.794014 290.917316 
L 124.860284 292.05901 
L 125.125362 293.124974 
L 125.39044 291.559703 
L 125.45671 292.992492 
L 125.522979 292.611027 
L 125.655519 292.113015 
L 125.721788 292.93052 
L 125.788058 292.677387 
L 125.986866 291.966543 
L 126.053136 292.055321 
L 126.119405 292.541634 
L 126.185675 292.240103 
L 126.318214 292.150023 
L 126.384484 292.40347 
L 126.450753 291.789949 
L 126.583292 292.790639 
L 126.715831 291.593558 
L 126.782101 291.79698 
L 126.848371 291.864645 
L 126.91464 292.599991 
L 126.98091 292.340815 
L 127.047179 291.534994 
L 127.113449 292.184395 
L 127.179718 291.327799 
L 127.245988 292.736612 
L 127.312257 292.503218 
L 127.378527 290.704444 
L 127.444797 291.188156 
L 127.511066 292.140589 
L 127.577336 292.109235 
L 127.643605 291.415394 
L 127.776144 292.551847 
L 128.107492 290.771486 
L 128.173762 292.20403 
L 128.240031 291.739826 
L 128.43884 290.83924 
L 128.505109 292.051301 
L 128.571379 291.198444 
L 128.637648 292.052392 
L 128.703918 291.794609 
L 128.770188 290.50169 
L 128.836457 291.1938 
L 128.902727 290.736485 
L 128.968996 291.585985 
L 129.035266 291.130106 
L 129.167805 289.781801 
L 129.234074 291.278458 
L 129.300344 291.255576 
L 129.366614 291.17347 
L 129.432883 290.427943 
L 129.499153 290.972513 
L 129.631692 289.042861 
L 129.697961 289.088362 
L 129.764231 290.607266 
L 129.8305 288.334052 
L 129.89677 289.028267 
L 130.029309 291.059639 
L 130.161848 287.280652 
L 130.228118 287.96452 
L 130.360657 288.208621 
L 130.426926 287.641264 
L 130.625735 284.859438 
L 130.692005 286.976297 
L 130.758274 285.783738 
L 130.824544 286.306959 
L 130.957083 282.634585 
L 131.023352 284.358032 
L 131.089622 283.363611 
L 131.288431 274.12599 
L 131.3547 275.745606 
L 131.42097 276.09952 
L 131.487239 268.406337 
L 131.553509 270.021121 
L 131.619778 269.564434 
L 131.752318 257.356834 
L 131.818587 258.998386 
L 131.884857 263.516484 
L 132.017396 237.854487 
L 132.083665 53.568 
L 132.149935 284.732557 
L 132.216204 277.951029 
L 132.481283 282.338753 
L 132.547552 277.484174 
L 132.613822 280.309571 
L 132.81263 289.085736 
L 132.94517 290.273404 
L 133.011439 288.856186 
L 133.210248 291.622263 
L 133.276517 291.321543 
L 133.409056 292.618255 
L 133.541596 292.112187 
L 133.674135 293.663737 
L 133.740404 293.119741 
L 133.806674 293.18052 
L 133.872943 293.118005 
L 133.939213 293.825207 
L 134.005482 293.443074 
L 134.071752 293.222093 
L 134.138021 293.365135 
L 134.204291 293.300279 
L 134.4031 294.568017 
L 134.469369 294.332076 
L 134.535639 293.92912 
L 134.601908 294.253764 
L 134.668178 294.070245 
L 134.800717 294.479746 
L 134.999526 293.945091 
L 135.065795 294.012021 
L 135.198334 294.555514 
L 135.264604 294.477587 
L 135.330873 293.991482 
L 135.397143 294.692146 
L 135.463413 294.543801 
L 135.529682 294.42927 
L 135.595952 294.502238 
L 135.79476 294.427738 
L 135.927299 294.585092 
L 136.126108 294.935121 
L 136.258647 294.657166 
L 136.324917 293.722617 
L 136.391186 294.329547 
L 136.589995 294.657907 
L 136.722534 294.729165 
L 136.855073 294.763193 
L 136.921343 294.369809 
L 136.987612 295.255142 
L 137.053882 295.038584 
L 137.38523 294.636714 
L 137.517769 294.560397 
L 137.650308 294.970713 
L 137.716577 294.829742 
L 137.782847 294.74811 
L 137.981656 294.987092 
L 138.047925 294.875664 
L 138.114195 294.976776 
L 138.379273 294.79988 
L 138.511812 295.124302 
L 138.578082 294.534968 
L 138.644351 294.924608 
L 138.84316 294.838001 
L 138.975699 294.798552 
L 139.041968 294.982112 
L 139.108238 294.883566 
L 139.174508 294.928385 
L 139.240777 294.80768 
L 139.307047 294.858698 
L 139.439586 294.931108 
L 139.638394 294.79337 
L 139.837203 294.916874 
L 139.903473 294.813598 
L 140.036012 294.919021 
L 140.30109 294.750038 
L 140.433629 295.041773 
L 140.632438 294.831996 
L 140.897516 294.890188 
L 140.963786 294.787229 
L 141.030055 294.914914 
L 141.096325 294.808319 
L 141.493942 294.893304 
L 141.626481 294.986354 
L 141.75902 294.391819 
L 141.82529 295.219778 
L 141.891559 294.946123 
L 141.957829 294.761425 
L 142.024098 294.882722 
L 142.090368 295.019971 
L 142.156638 294.934578 
L 142.355446 294.844782 
L 142.753064 294.927436 
L 142.951872 294.900408 
L 143.018142 294.866405 
L 143.084411 294.640027 
L 143.150681 294.858276 
L 143.21695 294.80611 
L 143.34949 294.850463 
L 143.482029 294.616485 
L 143.614568 294.942097 
L 143.879646 294.569786 
L 144.012185 294.783251 
L 144.078455 294.657419 
L 144.144724 294.822152 
L 144.210994 294.779749 
L 144.343533 294.546733 
L 144.476072 294.775456 
L 144.542341 294.611193 
L 144.608611 294.732148 
L 144.674881 294.915961 
L 144.873689 294.636396 
L 144.939959 294.864792 
L 145.006228 294.754455 
L 145.138767 294.646668 
L 145.403846 294.774849 
L 145.536385 294.723911 
L 145.668924 294.36498 
L 145.801463 294.899076 
L 145.867733 294.763797 
L 145.934002 294.64191 
L 146.000272 294.691999 
L 146.066541 294.77727 
L 146.19908 294.475495 
L 146.26535 294.516417 
L 146.331619 294.569385 
L 146.397889 294.460548 
L 146.464159 294.712898 
L 146.530428 294.687246 
L 146.729237 294.557395 
L 146.928045 294.610177 
L 146.994315 295.008616 
L 147.060585 294.885712 
L 147.193124 294.900727 
L 147.325663 294.783001 
L 147.458202 294.904072 
L 147.590741 294.762559 
L 147.78955 294.778282 
L 147.855819 294.66946 
L 147.988358 294.93345 
L 148.120897 294.871845 
L 148.253437 294.80358 
L 148.319706 294.876068 
L 148.452245 294.705479 
L 148.518515 294.865542 
L 148.584784 294.800254 
L 148.717323 294.744431 
L 148.783593 295.066684 
L 148.982402 294.715432 
L 149.24748 294.946311 
L 149.313749 294.932413 
L 149.446288 294.734306 
L 149.512558 294.786851 
L 149.578828 294.679176 
L 149.645097 295.015415 
L 149.711367 294.880126 
L 149.910175 294.718733 
L 149.976445 294.816674 
L 150.108984 295.016328 
L 150.241523 294.752978 
L 150.307793 294.768267 
L 150.374062 294.977364 
L 150.440332 294.799638 
L 150.506601 294.836096 
L 150.572871 295.044673 
L 150.70541 294.815184 
L 150.77168 294.970123 
L 150.837949 294.901868 
L 150.904219 294.754182 
L 150.970488 294.846862 
L 151.036758 294.973349 
L 151.103027 294.878077 
L 151.235566 294.796109 
L 151.368106 294.973072 
L 151.434375 294.931409 
L 151.500645 294.519366 
L 151.566914 295.043795 
L 151.633184 295.021214 
L 151.765723 294.866211 
L 151.831992 294.978487 
L 151.898262 294.84474 
L 151.964532 294.936543 
L 152.097071 294.952965 
L 152.295879 294.734713 
L 152.560958 295.06168 
L 152.693497 294.928128 
L 152.759766 295.064188 
L 152.958575 294.808797 
L 153.091114 294.990374 
L 153.157384 294.935679 
L 153.422462 294.928481 
L 153.488731 294.796559 
L 153.555001 295.145745 
L 153.62127 295.008561 
L 153.753809 294.852535 
L 153.886349 295.033079 
L 153.952618 294.892509 
L 154.018888 294.988604 
L 154.085157 295.058697 
L 154.151427 294.879371 
L 154.217696 294.963407 
L 154.350235 294.96143 
L 154.416505 294.880477 
L 154.482775 295.042215 
L 154.549044 294.91298 
L 154.615314 295.060934 
L 154.681583 294.934073 
L 154.747853 295.023739 
L 154.946661 294.943439 
L 155.012931 295.080345 
L 155.079201 294.910107 
L 155.14547 294.97762 
L 155.21174 295.191175 
L 155.278009 294.670022 
L 155.344279 294.717896 
L 155.543087 295.033494 
L 155.675627 295.107133 
L 155.808166 295.052328 
L 155.940705 294.725516 
L 156.073244 294.87815 
L 156.139513 294.907968 
L 156.272053 295.153075 
L 156.6034 294.764539 
L 156.66967 295.140625 
L 156.735939 294.963899 
L 156.802209 295.131622 
L 156.868479 295.042042 
L 157.067287 294.873061 
L 157.199826 294.995678 
L 157.531174 294.977212 
L 157.597444 295.034556 
L 157.729983 294.902519 
L 157.862522 295.065821 
L 157.928791 294.935935 
L 157.995061 295.127994 
L 158.1276 294.943635 
L 158.19387 295.10342 
L 158.260139 295.044244 
L 158.458948 294.934503 
L 158.724026 295.019867 
L 159.055374 295.040821 
L 159.254182 294.952138 
L 159.320452 295.188888 
L 159.386722 294.875211 
L 159.452991 295.027847 
L 159.58553 294.904847 
L 159.6518 295.018244 
L 159.718069 294.902751 
L 159.784339 295.130152 
L 159.850608 295.066784 
L 159.983148 294.960506 
L 160.049417 295.051477 
L 160.115687 294.928419 
L 160.181956 295.01278 
L 160.380765 294.964218 
L 160.645843 295.135624 
L 160.712113 294.937146 
L 160.778382 295.066632 
L 160.844652 295.070017 
L 160.977191 294.789902 
L 161.04346 295.066105 
L 161.10973 294.994023 
L 161.176 294.969479 
L 161.242269 294.766962 
L 161.308539 295.239083 
L 161.374808 295.067423 
L 161.573617 294.909669 
L 161.639886 294.989238 
L 161.706156 294.875896 
L 161.772426 294.977739 
L 161.904965 294.998341 
L 161.971234 295.065912 
L 162.037504 294.9939 
L 162.103773 294.940329 
L 162.302582 295.121983 
L 162.56766 295.034234 
L 162.63393 294.740791 
L 162.700199 294.807672 
L 162.766469 294.946887 
L 162.832738 294.656549 
L 162.965278 294.997802 
L 163.097817 294.71802 
L 163.230356 295.102843 
L 164.158129 295.015882 
L 164.356938 295.014925 
L 164.423208 294.845992 
L 164.489477 294.941686 
L 164.622016 294.981038 
L 164.688286 294.837238 
L 164.887095 295.111642 
L 165.085903 294.899156 
L 165.284712 294.965981 
L 165.483521 294.93234 
L 165.61606 294.962827 
L 165.881138 295.136078 
L 166.013677 294.737596 
L 166.079947 295.001759 
L 166.146216 294.785157 
L 166.345025 295.019901 
L 166.543833 294.887834 
L 166.610103 294.649406 
L 166.676373 294.819955 
L 166.808912 295.020464 
L 166.941451 294.974502 
L 167.140259 294.852598 
L 167.537877 295.117185 
L 167.670416 294.640298 
L 167.802955 294.920626 
L 167.935494 294.922896 
L 168.068033 294.877689 
L 168.333111 294.982808 
L 168.465651 294.789987 
L 168.730729 294.937099 
L 169.194616 294.808813 
L 169.260885 295.122394 
L 169.327155 294.790572 
L 169.393424 294.830266 
L 169.658502 294.810812 
L 169.923581 294.95911 
L 170.05612 295.061917 
L 170.188659 294.657472 
L 170.453737 294.821763 
L 170.652546 294.781246 
L 170.718815 294.970123 
L 170.785085 294.927017 
L 170.851354 294.797606 
L 170.917624 295.129381 
L 171.116433 294.648743 
L 171.44778 294.707807 
L 171.58032 294.895777 
L 171.646589 294.72415 
L 171.712859 294.763248 
L 171.779128 294.785499 
L 171.845398 294.632032 
L 171.911667 294.824145 
L 171.977937 294.785809 
L 172.044206 294.672627 
L 172.110476 294.830901 
L 172.176746 294.730617 
L 172.309285 294.698434 
L 172.508093 294.967538 
L 172.574363 294.599175 
L 172.640632 294.645504 
L 172.97198 294.750373 
L 173.104519 294.466447 
L 173.303328 294.868093 
L 173.435867 294.814625 
L 173.700945 294.571153 
L 173.767215 294.621086 
L 173.833484 294.837686 
L 173.966023 294.649788 
L 174.164832 294.845707 
L 174.297371 294.588635 
L 174.363641 294.704959 
L 174.42991 294.438487 
L 174.49618 294.709498 
L 174.562449 294.557755 
L 174.761258 294.785659 
L 175.092606 294.787427 
L 175.357684 294.648825 
L 175.423954 294.660316 
L 175.556493 294.385756 
L 175.622762 294.654343 
L 175.689032 294.569689 
L 175.755301 294.538293 
L 175.821571 294.979118 
L 175.887841 294.761388 
L 175.95411 294.702974 
L 176.02038 294.870931 
L 176.086649 294.755469 
L 176.152919 294.464918 
L 176.219188 294.538525 
L 176.550536 294.790233 
L 176.749345 294.616143 
L 176.815614 294.520697 
L 177.014423 294.774218 
L 177.080693 294.550971 
L 177.146962 294.699391 
L 177.213232 294.784366 
L 177.279501 294.709472 
L 177.345771 294.644286 
L 177.41204 294.395037 
L 177.544579 294.818055 
L 177.809658 294.564467 
L 177.875927 294.587941 
L 177.942197 294.772509 
L 178.008466 294.632754 
L 178.074736 294.596151 
L 178.273545 294.766279 
L 178.339814 294.397515 
L 178.406084 294.6581 
L 178.472353 294.597841 
L 178.538623 294.71771 
L 178.604892 294.602074 
L 178.671162 294.75797 
L 178.737431 294.661937 
L 178.86997 294.557658 
L 179.00251 294.818652 
L 179.201318 294.458271 
L 179.400127 294.738933 
L 179.598936 294.709851 
L 179.665205 294.516118 
L 179.731475 294.658728 
L 179.797744 294.63156 
L 179.864014 294.343831 
L 180.062822 294.764018 
L 180.129092 294.829217 
L 180.261631 294.56876 
L 180.327901 294.617601 
L 180.46044 294.747942 
L 180.592979 294.329632 
L 180.659248 295.062498 
L 180.725518 294.693578 
L 180.858057 294.703176 
L 180.924327 294.422195 
L 180.990596 294.518159 
L 181.056866 294.445905 
L 181.255674 294.778188 
L 181.587022 294.429417 
L 181.653292 294.746237 
L 181.719561 294.673884 
L 181.91837 294.456186 
L 181.98464 294.720104 
L 182.050909 294.697197 
L 182.183448 294.513439 
L 182.249718 294.770828 
L 182.315987 294.387958 
L 182.382257 294.584243 
L 182.448526 294.868807 
L 182.514796 294.700581 
L 182.647335 294.54043 
L 182.713605 294.741986 
L 182.846144 294.529442 
L 182.912413 294.723173 
L 183.044952 294.526206 
L 183.111222 294.700826 
L 183.177492 294.65354 
L 183.243761 294.55824 
L 183.310031 294.669285 
L 183.3763 294.623492 
L 183.508839 294.521792 
L 183.575109 294.657094 
L 183.641378 294.597874 
L 183.840187 294.618554 
L 183.906457 294.347855 
L 183.972726 294.426063 
L 184.038996 294.597667 
L 184.105265 294.466617 
L 184.304074 294.699943 
L 184.370343 294.487956 
L 184.436613 294.670056 
L 184.502883 294.608233 
L 184.569152 294.437076 
L 184.635422 294.608835 
L 184.701691 294.490416 
L 184.767961 294.432084 
L 184.83423 294.535359 
L 184.9005 294.205725 
L 185.033039 294.75497 
L 185.099309 294.615525 
L 185.165578 294.67971 
L 185.298117 294.756798 
L 185.364387 294.650162 
L 185.430656 294.31281 
L 185.496926 293.175511 
L 185.563195 294.330048 
L 185.629465 294.264727 
L 185.762004 294.652281 
L 185.828274 294.605085 
L 186.093352 293.982936 
L 186.225891 294.302146 
L 186.292161 295.062738 
L 186.35843 294.580702 
L 186.557239 294.127242 
L 186.623508 294.190205 
L 186.756047 294.247635 
L 186.954856 294.515054 
L 187.021126 294.49264 
L 187.286204 293.78204 
L 187.352473 294.204381 
L 187.418743 293.840938 
L 187.551282 294.363072 
L 187.617552 294.270175 
L 187.683821 293.979162 
L 187.750091 294.068586 
L 187.81636 294.835571 
L 187.88263 293.377861 
L 187.948899 293.757385 
L 188.015169 294.058813 
L 188.081439 293.827005 
L 188.147708 294.364206 
L 188.346517 293.745954 
L 188.479056 293.747764 
L 188.545325 293.947529 
L 188.611595 293.294036 
L 188.677864 293.573748 
L 188.744134 294.638117 
L 188.942943 292.280864 
L 189.141751 293.841268 
L 189.34056 290.911187 
L 189.473099 293.695221 
L 189.804447 287.124266 
L 189.870716 289.289611 
L 190.202064 269.891016 
L 190.268334 259.005499 
L 190.334603 107.43461 
L 190.467142 291.759423 
L 190.533412 293.109408 
L 190.599682 291.467052 
L 190.665951 292.22943 
L 190.732221 293.346659 
L 190.86476 291.869294 
L 190.931029 291.682862 
L 190.997299 291.920895 
L 191.129838 293.258011 
L 191.461186 294.860815 
L 191.593725 294.137809 
L 191.659994 294.388665 
L 191.726264 294.002382 
L 191.792534 294.22328 
L 191.858803 294.529522 
L 191.925073 294.350736 
L 191.991342 294.368074 
L 192.123881 294.933958 
L 192.25642 294.580803 
L 192.32269 294.612312 
L 192.38896 294.945693 
L 192.455229 294.905343 
L 192.521499 294.593888 
L 192.587768 295.00551 
L 192.654038 294.735143 
L 192.786577 294.901712 
L 193.051655 294.951001 
L 193.117925 295.169236 
L 193.316733 294.883627 
L 193.383003 295.018943 
L 193.449272 294.738926 
L 193.515542 294.877359 
L 193.648081 295.183406 
L 193.714351 295.132677 
L 193.78062 294.855823 
L 193.84689 294.884229 
L 194.111968 294.946441 
L 194.310777 295.224834 
L 194.443316 295.218994 
L 194.774663 294.804614 
L 194.973472 294.617996 
L 195.039742 294.867587 
L 195.106011 294.691499 
L 195.172281 294.269612 
L 195.23855 294.468329 
L 195.437359 295.047994 
L 195.702437 295.406423 
L 195.768707 295.339136 
L 196.033785 295.154907 
L 196.630211 295.311455 
L 196.76275 295.200608 
L 196.82902 294.8492 
L 196.895289 295.252531 
L 196.961559 295.241617 
L 197.226637 295.170446 
L 197.624254 295.251353 
L 198.088141 295.248684 
L 198.353219 295.216822 
L 198.419489 294.777931 
L 198.485759 295.384749 
L 198.552028 295.355034 
L 199.214724 295.278986 
L 199.877419 295.200377 
L 200.076228 294.971386 
L 200.208767 295.307868 
L 200.473845 295.299505 
L 201.600428 295.376276 
L 201.666697 295.089579 
L 201.799236 295.406403 
L 202.064314 295.360672 
L 202.395662 295.378617 
L 203.257166 295.425037 
L 203.323436 295.246314 
L 203.389706 295.367307 
L 203.986131 295.397601 
L 204.118671 295.268764 
L 204.25121 295.463492 
L 204.317479 295.427914 
L 204.847636 295.372499 
L 204.913905 294.993696 
L 204.980175 295.444345 
L 205.046444 295.426153 
L 205.245253 295.397702 
L 205.510331 295.427409 
L 205.907949 295.420693 
L 206.438105 295.456861 
L 206.636914 295.412729 
L 207.100801 295.406295 
L 207.299609 295.418961 
L 208.161113 295.406762 
L 208.359922 295.454399 
L 208.558731 295.417091 
L 209.022618 295.421048 
L 209.685313 295.389635 
L 209.751583 295.007326 
L 209.950391 295.453401 
L 210.811896 295.397403 
L 210.944435 295.396095 
L 211.342052 295.282848 
L 211.408322 295.461023 
L 211.474591 295.407265 
L 211.739669 295.310609 
L 212.071017 295.398206 
L 212.203556 295.344879 
L 212.534904 295.381671 
L 214.125373 295.328473 
L 214.58926 295.437603 
L 214.65553 295.186968 
L 214.721799 295.280258 
L 215.251956 295.35062 
L 215.384495 295.266572 
L 215.583303 295.285255 
L 216.04719 295.228858 
L 216.245999 295.270043 
L 216.511077 295.274288 
L 216.709886 295.276633 
L 216.842425 295.24483 
L 216.908695 295.34058 
L 216.974964 295.247203 
L 217.438851 295.304832 
L 217.505121 295.161439 
L 217.57139 295.209948 
L 217.703929 295.213709 
L 217.836468 295.221235 
L 217.969007 295.292786 
L 218.234086 295.239975 
L 218.432894 295.245385 
L 218.830512 295.228697 
L 219.426938 295.274155 
L 219.493207 294.985539 
L 219.559477 295.142988 
L 219.692016 295.189425 
L 219.890824 295.196166 
L 220.089633 295.163771 
L 220.155903 295.274107 
L 220.222172 295.215364 
L 220.48725 295.151505 
L 220.686059 295.218764 
L 221.017407 295.220633 
L 221.083676 295.119501 
L 221.216216 295.225159 
L 221.415024 295.176006 
L 221.680102 295.220798 
L 222.674146 295.122247 
L 222.872954 295.24142 
L 223.403111 295.080117 
L 223.53565 295.242921 
L 223.734459 295.157293 
L 223.800728 295.259451 
L 223.866998 295.182096 
L 224.264615 295.142655 
L 224.330885 295.315713 
L 224.463424 295.183179 
L 224.927311 295.173041 
L 225.192389 295.161513 
L 225.324928 295.063513 
L 225.391197 295.27939 
L 225.457467 295.221925 
L 225.921354 295.116433 
L 226.053893 295.212973 
L 226.716589 295.136859 
L 226.915397 295.204515 
L 227.114206 295.218857 
L 227.180475 295.307786 
L 227.246745 295.13068 
L 227.313015 295.189656 
L 227.445554 295.171112 
L 227.511823 295.209578 
L 227.578093 295.039042 
L 227.710632 295.209307 
L 228.439597 295.082819 
L 228.638406 295.228919 
L 228.969753 295.140573 
L 229.102292 294.974297 
L 229.168562 295.205725 
L 229.234832 295.126551 
L 229.367371 295.225407 
L 229.49991 295.126499 
L 229.963797 295.176398 
L 230.030066 295.075031 
L 230.228875 295.223649 
L 230.560223 295.117206 
L 230.692762 295.202404 
L 230.759031 295.212258 
L 230.825301 295.044572 
L 230.89157 295.170038 
L 231.222918 295.162452 
L 231.421727 295.189272 
L 231.753075 295.2136 
L 232.018153 295.119527 
L 232.548309 295.178923 
L 232.879657 295.152077 
L 233.012196 295.171808 
L 233.144735 295.206066 
L 233.93997 295.107272 
L 234.006239 294.919244 
L 234.072509 295.293107 
L 234.138779 295.18003 
L 234.337587 295.228498 
L 234.470126 295.204598 
L 234.536396 295.106472 
L 234.668935 295.219252 
L 235.000283 295.119157 
L 235.132822 295.191858 
L 235.331631 295.127902 
L 235.46417 295.251354 
L 235.861787 295.136162 
L 236.060596 295.204206 
L 236.193135 295.280275 
L 236.259404 295.062001 
L 236.325674 295.134727 
L 236.458213 295.225778 
L 236.723291 294.952997 
L 236.85583 295.266536 
L 237.054639 295.152332 
L 237.253448 295.335429 
L 237.319717 295.032525 
L 237.385987 295.110522 
L 237.916143 295.113078 
L 238.048682 294.946808 
L 238.247491 295.20775 
L 238.4463 295.181356 
L 238.910186 294.913515 
L 238.976456 295.236203 
L 239.042726 295.209895 
L 239.175265 295.232102 
L 239.374073 294.981939 
L 239.440343 295.076748 
L 239.639152 295.108582 
L 239.705421 294.950626 
L 239.771691 295.142069 
L 239.83796 295.11708 
L 240.036769 295.244473 
L 240.368117 295.05147 
L 240.434386 295.0881 
L 240.500656 295.389856 
L 240.566925 295.028705 
L 240.633195 295.101766 
L 240.699464 295.162388 
L 240.765734 295.072439 
L 240.832004 295.092613 
L 240.964543 295.025724 
L 241.030812 295.225669 
L 241.097082 295.108566 
L 241.36216 295.082532 
L 241.494699 295.1702 
L 241.627238 294.921047 
L 241.826047 295.188532 
L 242.091125 294.724361 
L 242.157395 295.135041 
L 242.223664 294.994631 
L 242.356203 294.808751 
L 242.422473 295.263678 
L 242.488742 295.154685 
L 242.82009 295.025029 
L 243.018899 294.966575 
L 243.151438 295.069657 
L 243.283977 295.008156 
L 243.350247 295.149904 
L 243.416516 295.071508 
L 243.681594 295.169547 
L 243.747864 293.339638 
L 243.880403 295.157043 
L 244.211751 294.8507 
L 244.27802 295.012599 
L 244.476829 294.753438 
L 244.675638 294.931171 
L 244.741907 294.936584 
L 244.808177 294.711642 
L 244.874446 294.935656 
L 244.940716 294.846792 
L 245.073255 294.774948 
L 245.139525 294.908644 
L 245.338333 294.259538 
L 245.404603 295.079919 
L 245.470872 294.843873 
L 245.603411 294.592192 
L 245.669681 294.98146 
L 245.80222 294.357051 
L 245.934759 294.406756 
L 246.001029 294.425638 
L 246.133568 295.116656 
L 246.332377 294.267736 
L 246.464916 294.462596 
L 246.531185 294.021853 
L 246.597455 294.329763 
L 246.663724 293.821335 
L 246.729994 294.101191 
L 246.796263 294.533594 
L 246.862533 294.339221 
L 246.928803 294.20691 
L 246.995072 293.298282 
L 247.061342 294.043505 
L 247.193881 293.191235 
L 247.32642 293.638777 
L 247.392689 293.696412 
L 247.591498 291.703825 
L 247.657768 292.87111 
L 247.724037 292.811582 
L 247.922846 290.873178 
L 248.055385 287.267118 
L 248.187924 290.713681 
L 248.453002 276.972977 
L 248.519272 265.51837 
L 248.585541 183.727953 
L 248.71808 286.071581 
L 248.78435 284.114442 
L 248.983159 288.794248 
L 249.314506 292.169677 
L 249.380776 292.162581 
L 249.447046 291.977575 
L 249.579585 293.194932 
L 249.712124 292.987745 
L 249.844663 293.492527 
L 249.910932 293.478367 
L 249.977202 293.731379 
L 250.043472 293.697282 
L 250.176011 293.525351 
L 250.24228 294.440795 
L 250.30855 293.754574 
L 250.374819 294.15076 
L 250.573628 294.539953 
L 250.706167 294.204654 
L 250.772437 294.270917 
L 251.170054 294.647209 
L 251.368863 294.7781 
L 251.501402 294.554208 
L 251.633941 294.570807 
L 251.70021 294.755561 
L 251.83275 294.564342 
L 251.899019 294.90818 
L 251.965289 294.787895 
L 252.097828 294.766561 
L 252.296636 294.92484 
L 252.362906 294.695807 
L 252.429176 294.72008 
L 252.627984 294.90309 
L 252.760523 294.888243 
L 252.959332 295.018726 
L 253.025602 295.078005 
L 253.22441 294.863866 
L 253.356949 294.90292 
L 253.489488 293.733739 
L 253.622028 294.859468 
L 253.688297 294.93935 
L 253.754567 294.798969 
L 253.953375 295.115409 
L 254.019645 295.114557 
L 254.152184 295.01531 
L 254.417262 295.076627 
L 254.616071 295.113892 
L 255.013688 295.10383 
L 255.079958 294.792346 
L 255.146227 295.163722 
L 255.212497 295.102179 
L 255.543845 295.120909 
L 255.676384 295.124472 
L 255.742653 295.27026 
L 255.808923 295.175572 
L 255.941462 295.207704 
L 256.604157 295.151969 
L 256.670427 294.812217 
L 256.736697 295.438828 
L 256.802966 295.333257 
L 257.068044 295.233222 
L 257.266853 295.229293 
L 257.66447 295.284172 
L 258.327166 294.968671 
L 258.525975 295.295609 
L 258.989861 295.332482 
L 259.321209 295.31456 
L 259.586287 295.341078 
L 259.851366 295.339172 
L 259.917635 295.055369 
L 259.983905 295.405557 
L 260.050174 295.376554 
L 260.6466 295.360973 
L 261.441835 295.397291 
L 261.574374 295.186598 
L 261.773183 295.404529 
L 263.032304 295.377144 
L 263.098574 295.338567 
L 263.164843 295.040615 
L 263.231113 295.383848 
L 263.297382 295.36019 
L 263.827539 295.444732 
L 264.357695 295.429284 
L 264.689043 295.449676 
L 264.755313 295.285017 
L 264.821582 295.375105 
L 265.020391 295.471999 
L 265.285469 295.475566 
L 266.345782 295.402453 
L 266.412051 295.221054 
L 266.544591 295.470199 
L 267.008477 295.472552 
L 267.869982 295.468333 
L 267.936251 295.436395 
L 268.002521 295.133051 
L 268.06879 295.348858 
L 268.333869 295.479578 
L 268.996564 295.448467 
L 269.52672 295.390326 
L 269.59299 295.275068 
L 269.65926 295.326866 
L 269.725529 295.475299 
L 269.791799 295.444104 
L 270.653303 295.421567 
L 271.183459 295.393853 
L 271.249729 295.212913 
L 271.382268 295.415172 
L 272.840198 295.27668 
L 272.906468 295.128263 
L 273.105276 295.380821 
L 273.569163 295.361061 
L 273.701702 295.347836 
L 273.834241 295.392097 
L 274.09932 295.381327 
L 274.430667 295.354923 
L 274.496937 295.238186 
L 274.629476 295.383101 
L 274.960824 295.364922 
L 275.954867 295.367342 
L 276.021137 295.369025 
L 276.087406 295.174671 
L 276.153676 295.442197 
L 276.219945 295.41646 
L 276.750102 295.335213 
L 277.08145 295.386572 
L 277.412797 295.307308 
L 277.611606 295.290154 
L 277.677876 295.21633 
L 277.744145 294.970177 
L 277.876684 295.360606 
L 279.334614 295.204751 
L 279.467154 295.379629 
L 280.660006 295.342131 
L 280.925084 295.295876 
L 281.45524 295.336993 
L 281.587779 295.30815 
L 282.648092 295.225291 
L 282.714362 295.354426 
L 282.780631 295.31794 
L 283.04571 295.333585 
L 283.708405 295.311991 
L 284.106022 295.372222 
L 284.172292 295.219022 
L 284.238561 295.250189 
L 284.43737 295.351542 
L 284.702448 295.319843 
L 284.967527 295.362043 
L 285.762761 295.38597 
L 285.829031 295.066637 
L 285.8953 295.275463 
L 286.027839 295.370296 
L 286.557996 295.319902 
L 287.154422 295.348404 
L 287.353231 295.281228 
L 287.4195 295.000696 
L 287.552039 295.304264 
L 287.817117 295.254213 
L 287.949657 295.329805 
L 288.479813 295.312934 
L 289.009969 295.432101 
L 289.076239 295.11386 
L 289.142508 295.260992 
L 290.534169 295.315241 
L 290.931786 295.283806 
L 292.190908 295.242821 
L 292.257178 295.023222 
L 292.389717 295.429098 
L 292.588525 295.382986 
L 292.787334 295.297507 
L 295.106768 295.310639 
L 295.239307 295.255359 
L 295.504386 295.386068 
L 295.570655 295.118387 
L 295.636925 295.208266 
L 295.769464 295.270541 
L 295.902003 295.249134 
L 296.29962 295.322164 
L 296.432159 295.244896 
L 296.564699 295.291147 
L 296.829777 295.28381 
L 297.028585 295.279562 
L 297.161125 294.620775 
L 297.293664 295.332536 
L 297.691281 295.135456 
L 297.956359 295.263894 
L 298.287707 295.222704 
L 298.420246 295.26693 
L 298.685324 295.081052 
L 299.149211 295.219136 
L 299.28175 295.082296 
L 299.811907 295.183709 
L 300.209524 295.107572 
L 300.275794 295.191366 
L 300.342063 295.020485 
L 300.408333 295.383145 
L 300.540872 294.926762 
L 300.607141 294.978163 
L 301.004759 295.164501 
L 301.137298 294.978542 
L 301.269837 295.152907 
L 301.733724 294.949961 
L 301.799993 295.008985 
L 301.866263 295.313456 
L 301.932532 295.202138 
L 301.998802 293.029474 
L 302.131341 295.183161 
L 302.26388 295.056729 
L 302.396419 294.851625 
L 302.528958 295.125746 
L 302.727767 294.775719 
L 303.191654 294.893379 
L 303.390463 294.607146 
L 303.456732 294.459659 
L 303.655541 295.109971 
L 303.78808 294.861463 
L 303.920619 294.815212 
L 304.053158 294.311126 
L 304.119428 294.497673 
L 304.251967 294.662386 
L 304.517045 294.353584 
L 304.583315 294.472043 
L 304.848393 293.988346 
L 304.914662 294.62815 
L 304.980932 294.469795 
L 305.047201 294.475942 
L 305.24601 293.234479 
L 305.31228 293.692438 
L 305.378549 293.676875 
L 305.577358 293.619721 
L 305.776167 292.585433 
L 305.908706 293.374447 
L 306.041245 291.87692 
L 306.107514 292.127844 
L 306.173784 291.32608 
L 306.240053 291.433176 
L 306.306323 291.120165 
L 306.372593 288.824556 
L 306.438862 289.556165 
L 306.637671 286.745098 
L 306.70394 283.8092 
L 306.77021 273.841768 
L 306.836479 223.267861 
L 307.035288 285.370876 
L 307.366636 290.216264 
L 307.432905 290.020412 
L 307.631714 291.83085 
L 307.697984 291.365523 
L 307.896792 293.308514 
L 307.963062 293.536277 
L 308.029331 293.443638 
L 308.095601 293.242285 
L 308.22814 293.632017 
L 308.360679 293.352475 
L 308.426949 293.576353 
L 308.493218 294.336937 
L 308.559488 293.889197 
L 308.625757 294.26272 
L 308.692027 294.237484 
L 308.758296 294.1901 
L 308.890836 294.509647 
L 308.957105 294.400457 
L 309.023375 293.892801 
L 309.089644 294.192331 
L 309.222183 294.486637 
L 309.288453 294.37415 
L 309.354722 294.473899 
L 309.420992 294.466123 
L 309.487262 294.648595 
L 309.553531 294.576817 
L 309.951148 294.710658 
L 310.083688 294.490592 
L 310.216227 294.778829 
L 310.348766 294.749891 
L 310.613844 294.678126 
L 310.746383 294.851377 
L 310.812653 294.797601 
L 311.011461 294.913659 
L 311.21027 294.812367 
L 311.27654 295.023627 
L 311.342809 294.965726 
L 311.607887 294.767916 
L 311.740426 294.04675 
L 311.939235 294.973566 
L 312.204313 294.998274 
L 312.336852 295.066205 
L 312.999548 295.071731 
L 313.132087 295.139368 
L 313.264626 295.081423 
L 313.330896 294.675065 
L 313.463435 295.051001 
L 314.258669 295.11359 
L 314.324939 295.034646 
L 314.391209 295.116388 
L 314.523748 295.18153 
L 314.788826 295.161739 
L 314.855095 295.183638 
L 314.921365 294.998004 
L 314.987635 295.291734 
L 315.053904 295.259896 
L 315.451521 295.197732 
L 315.7166 295.239983 
L 318.102304 295.306944 
L 318.168573 295.072095 
L 318.234843 295.395934 
L 318.301112 295.379547 
L 320.753086 295.40624 
L 321.150703 295.402594 
L 321.349512 295.377608 
L 321.415781 294.999202 
L 321.54832 295.35857 
L 322.211016 295.422638 
L 322.939981 295.455608 
L 323.07252 295.319079 
L 323.271329 295.448725 
L 325.391955 295.449404 
L 326.12092 295.443386 
L 326.187189 295.423282 
L 326.253459 295.184858 
L 326.319728 295.292367 
L 326.518537 295.423019 
L 327.181233 295.433461 
L 328.506624 295.421114 
L 329.434397 295.42911 
L 329.500667 295.236661 
L 329.633206 295.454278 
L 330.428441 295.416246 
L 330.826058 295.393631 
L 331.024867 295.357207 
L 331.157406 295.1245 
L 331.356214 295.391028 
L 332.217719 295.39016 
L 332.681606 295.415814 
L 332.747875 295.217008 
L 332.880414 295.412374 
L 334.272075 295.363259 
L 334.338344 295.220921 
L 334.404614 295.323361 
L 334.537153 295.430659 
L 335.067309 295.386313 
L 335.862544 295.323336 
L 335.995083 295.214298 
L 336.127622 295.37229 
L 336.989127 295.376231 
L 337.519283 295.385317 
L 337.585553 295.259695 
L 337.718092 295.413927 
L 338.181979 295.399154 
L 338.844674 295.390407 
L 339.043483 295.425515 
L 339.176022 295.431615 
L 339.242291 295.247839 
L 339.308561 295.352292 
L 339.50737 295.386719 
L 340.302604 295.399626 
L 340.633952 295.375732 
L 340.766491 295.329557 
L 340.832761 295.153998 
L 340.9653 295.341211 
L 341.959343 295.373913 
L 342.224421 295.370255 
L 342.42323 295.422662 
L 342.4895 295.272741 
L 342.555769 295.353906 
L 342.820847 295.391843 
L 343.351004 295.366746 
L 343.549812 295.386501 
L 343.94743 295.387532 
L 344.013699 295.402279 
L 344.079969 295.208645 
L 344.212508 295.385725 
L 344.543856 295.393312 
L 344.941473 295.38001 
L 345.604169 295.282511 
L 345.670438 295.024623 
L 345.869247 295.389745 
L 346.995829 295.38994 
L 347.260907 295.435379 
L 347.327177 295.226244 
L 347.393447 295.361689 
L 348.453759 295.426849 
L 348.785107 295.341826 
L 348.917646 295.320914 
L 350.441846 295.345736 
L 350.574385 295.081491 
L 350.706924 295.411603 
L 350.839463 295.398185 
L 351.700968 295.405855 
L 351.899776 295.36228 
L 352.032315 295.310695 
L 352.297394 295.242347 
L 352.496202 295.383339 
L 352.76128 295.364181 
L 353.423976 295.373265 
L 353.556515 295.357627 
L 353.821593 295.218737 
L 354.550558 295.339131 
L 354.815637 295.295084 
L 355.345793 295.427568 
L 355.412063 294.535038 
L 355.544602 295.315831 
L 356.207297 295.233586 
L 356.406106 295.226706 
L 356.671184 295.276582 
L 356.869993 295.119511 
L 356.936262 295.130863 
L 357.002532 294.926897 
L 357.068801 295.271784 
L 357.135071 295.191564 
L 357.400149 295.179825 
L 358.460462 295.065 
L 358.593001 294.982471 
L 358.659271 295.247802 
L 358.72554 295.171868 
L 358.990618 295.031311 
L 359.321966 295.083223 
L 359.587044 294.922098 
L 359.785853 295.05777 
L 359.984662 294.7998 
L 360.050931 294.90091 
L 360.18347 295.119654 
L 360.24974 293.656547 
L 360.382279 295.069062 
L 360.581088 295.015899 
L 360.912436 294.814409 
L 361.111244 295.089594 
L 361.243783 294.539709 
L 361.310053 294.712054 
L 361.376322 294.632663 
L 361.442592 294.725752 
L 361.508862 294.767499 
L 361.641401 294.527096 
L 361.70767 294.547433 
L 361.972748 294.91684 
L 362.370366 294.352576 
L 362.502905 294.22854 
L 362.569174 294.261332 
L 362.701714 294.533647 
L 362.767983 294.452425 
L 362.966792 293.958204 
L 363.033061 293.890195 
L 363.1656 294.188215 
L 363.23187 293.94163 
L 363.364409 294.13888 
L 363.430679 293.948671 
L 363.496948 292.681936 
L 363.563218 293.298522 
L 363.629487 293.507924 
L 364.093374 291.95407 
L 364.225913 292.507197 
L 364.292183 292.482933 
L 364.490991 290.614159 
L 364.623531 290.619525 
L 364.6898 290.210759 
L 364.954878 284.73497 
L 365.021148 276.339423 
L 365.087417 221.492691 
L 365.153687 258.173605 
L 365.352496 285.427353 
L 365.551304 288.712422 
L 365.617574 287.245489 
L 365.683843 287.838967 
L 365.816383 291.04545 
L 365.882652 290.380375 
L 366.081461 292.692005 
L 366.14773 292.680404 
L 366.412809 293.556578 
L 366.479078 293.503544 
L 366.545348 293.023606 
L 366.611617 293.164859 
L 366.677887 293.466635 
L 366.744156 294.468624 
L 366.810426 293.883833 
L 366.942965 293.924578 
L 367.009235 294.336909 
L 367.075504 294.274007 
L 367.141774 294.011612 
L 367.208043 294.03075 
L 367.340582 294.237322 
L 367.473121 293.820115 
L 367.7382 294.445785 
L 367.937008 294.670301 
L 368.069547 294.653517 
L 368.334626 293.851115 
L 368.467165 294.529533 
L 368.732243 294.781659 
L 368.997321 294.579605 
L 369.063591 294.826999 
L 369.12986 294.751334 
L 369.660017 294.89285 
L 369.991364 294.138106 
L 370.123904 294.867272 
L 370.322712 294.971017 
L 370.985408 295.024395 
L 371.117947 295.007673 
L 371.316756 295.149945 
L 371.383025 295.147444 
L 371.581834 294.664465 
L 371.714373 295.148766 
L 371.913182 295.094331 
L 372.244529 295.178479 
L 372.377068 295.122989 
L 372.642147 295.180656 
L 373.106034 295.134661 
L 373.172303 294.989396 
L 373.238573 295.342082 
L 373.304842 295.307783 
L 373.56992 295.210479 
L 374.232616 295.274294 
L 374.829042 295.215621 
L 375.027851 295.289022 
L 375.491737 295.332238 
L 375.690546 295.287842 
L 376.353242 295.28557 
L 376.419511 295.073107 
L 376.55205 295.341546 
L 377.281015 295.327214 
L 378.009981 295.382382 
L 378.07625 295.208182 
L 378.14252 295.327378 
L 379.60045 295.355333 
L 379.666719 295.178826 
L 379.732989 295.279428 
L 380.528224 295.362602 
L 380.99211 295.386707 
L 382.847658 295.412339 
L 382.913928 295.302521 
L 383.046467 295.422169 
L 383.510354 295.408136 
L 384.04051 295.446715 
L 384.438127 295.381118 
L 384.504397 295.268382 
L 384.703205 295.466289 
L 386.094866 295.470253 
L 386.227405 295.438374 
L 388.613109 295.478635 
L 389.275805 295.441969 
L 389.408344 295.284531 
L 389.607152 295.457033 
L 390.336118 295.456359 
L 398.487273 295.468333 
L 398.487273 295.468333 
" clip-path="url(#p501f5467ff)" style="fill: none; stroke: #1f77b4; stroke-width: 1.5; stroke-linecap: square"/>
   </g>
   <g id="patch_3">
    <path d="M 57.6 307.584 
L 57.6 41.472 
" style="fill: none; stroke: #000000; stroke-width: 0.8; stroke-linejoin: miter; stroke-linecap: square"/>
   </g>
   <g id="patch_4">
    <path d="M 414.72 307.584 
L 414.72 41.472 
" style="fill: none; stroke: #000000; stroke-width: 0.8; stroke-linejoin: miter; stroke-linecap: square"/>
   </g>
   <g id="patch_5">
    <path d="M 57.6 307.584 
L 414.72 307.584 
" style="fill: none; stroke: #000000; stroke-width: 0.8; stroke-linejoin: miter; stroke-linecap: square"/>
   </g>
   <g id="patch_6">
    <path d="M 57.6 41.472 
L 414.72 41.472 
" style="fill: none; stroke: #000000; stroke-width: 0.8; stroke-linejoin: miter; stroke-linecap: square"/>
   </g>
   <g id="text_16">
    <text style="font: 12px 'IPAexGothic'; text-anchor: middle" x="236.16" y="35.472" transform="rotate(-0 236.16 35.472)">"034_A5.wav"の振幅スペクトル</text>
   </g>
  </g>
 </g>
 <defs>
  <clipPath id="p501f5467ff">
   <rect x="57.6" y="41.472" width="357.12" height="266.112"/>
  </clipPath>
 </defs>
</svg>
