<?xml version="1.0" encoding="utf-8" standalone="no"?>
<!DOCTYPE svg PUBLIC "-//W3C//DTD SVG 1.1//EN"
  "http://www.w3.org/Graphics/SVG/1.1/DTD/svg11.dtd">
<svg xmlns:xlink="http://www.w3.org/1999/xlink" width="460.8pt" height="345.6pt" viewBox="0 0 460.8 345.6" xmlns="http://www.w3.org/2000/svg" version="1.1">
 <metadata>
  <rdf:RDF xmlns:dc="http://purl.org/dc/elements/1.1/" xmlns:cc="http://creativecommons.org/ns#" xmlns:rdf="http://www.w3.org/1999/02/22-rdf-syntax-ns#">
   <cc:Work>
    <dc:type rdf:resource="http://purl.org/dc/dcmitype/StillImage"/>
    <dc:date>2022-11-28T12:33:25.575428</dc:date>
    <dc:format>image/svg+xml</dc:format>
    <dc:creator>
     <cc:Agent>
      <dc:title>Matplotlib v3.6.2, https://matplotlib.org/</dc:title>
     </cc:Agent>
    </dc:creator>
   </cc:Work>
  </rdf:RDF>
 </metadata>
 <defs>
  <style type="text/css">*{stroke-linejoin: round; stroke-linecap: butt}</style>
 </defs>
 <g id="figure_1">
  <g id="patch_1">
   <path d="M 0 345.6 
L 460.8 345.6 
L 460.8 0 
L 0 0 
z
" style="fill: #ffffff"/>
  </g>
  <g id="axes_1">
   <g id="patch_2">
    <path d="M 57.6 307.584 
L 414.72 307.584 
L 414.72 41.472 
L 57.6 41.472 
z
" style="fill: #ffffff"/>
   </g>
   <g id="matplotlib.axis_1">
    <g id="xtick_1">
     <g id="line2d_1">
      <defs>
       <path id="mca37347d59" d="M 0 0 
L 0 3.5 
" style="stroke: #000000; stroke-width: 0.8"/>
      </defs>
      <g>
       <use xlink:href="#mca37347d59" x="73.832727" y="307.584" style="stroke: #000000; stroke-width: 0.8"/>
      </g>
     </g>
     <g id="text_1">
      <text style="font: 10px 'IPAexGothic'; text-anchor: middle" x="73.832727" y="322.074625" transform="rotate(-0 73.832727 322.074625)">0</text>
     </g>
    </g>
    <g id="xtick_2">
     <g id="line2d_2">
      <g>
       <use xlink:href="#mca37347d59" x="140.102281" y="307.584" style="stroke: #000000; stroke-width: 0.8"/>
      </g>
     </g>
     <g id="text_2">
      <text style="font: 10px 'IPAexGothic'; text-anchor: middle" x="140.102281" y="322.074625" transform="rotate(-0 140.102281 322.074625)">1000</text>
     </g>
    </g>
    <g id="xtick_3">
     <g id="line2d_3">
      <g>
       <use xlink:href="#mca37347d59" x="206.371835" y="307.584" style="stroke: #000000; stroke-width: 0.8"/>
      </g>
     </g>
     <g id="text_3">
      <text style="font: 10px 'IPAexGothic'; text-anchor: middle" x="206.371835" y="322.074625" transform="rotate(-0 206.371835 322.074625)">2000</text>
     </g>
    </g>
    <g id="xtick_4">
     <g id="line2d_4">
      <g>
       <use xlink:href="#mca37347d59" x="272.64139" y="307.584" style="stroke: #000000; stroke-width: 0.8"/>
      </g>
     </g>
     <g id="text_4">
      <text style="font: 10px 'IPAexGothic'; text-anchor: middle" x="272.64139" y="322.074625" transform="rotate(-0 272.64139 322.074625)">3000</text>
     </g>
    </g>
    <g id="xtick_5">
     <g id="line2d_5">
      <g>
       <use xlink:href="#mca37347d59" x="338.910944" y="307.584" style="stroke: #000000; stroke-width: 0.8"/>
      </g>
     </g>
     <g id="text_5">
      <text style="font: 10px 'IPAexGothic'; text-anchor: middle" x="338.910944" y="322.074625" transform="rotate(-0 338.910944 322.074625)">4000</text>
     </g>
    </g>
    <g id="xtick_6">
     <g id="line2d_6">
      <g>
       <use xlink:href="#mca37347d59" x="405.180498" y="307.584" style="stroke: #000000; stroke-width: 0.8"/>
      </g>
     </g>
     <g id="text_6">
      <text style="font: 10px 'IPAexGothic'; text-anchor: middle" x="405.180498" y="322.074625" transform="rotate(-0 405.180498 322.074625)">5000</text>
     </g>
    </g>
    <g id="text_7">
     <text style="font: 10px 'IPAexGothic'; text-anchor: middle" x="236.16" y="335.924625" transform="rotate(-0 236.16 335.924625)">周波数[Hz]</text>
    </g>
   </g>
   <g id="matplotlib.axis_2">
    <g id="ytick_1">
     <g id="line2d_7">
      <defs>
       <path id="mdbdb7230da" d="M 0 0 
L -3.5 0 
" style="stroke: #000000; stroke-width: 0.8"/>
      </defs>
      <g>
       <use xlink:href="#mdbdb7230da" x="57.6" y="295.491627" style="stroke: #000000; stroke-width: 0.8"/>
      </g>
     </g>
     <g id="text_8">
      <text style="font: 10px 'IPAexGothic'; text-anchor: end" x="50.6" y="299.236939" transform="rotate(-0 50.6 299.236939)">0.0</text>
     </g>
    </g>
    <g id="ytick_2">
     <g id="line2d_8">
      <g>
       <use xlink:href="#mdbdb7230da" x="57.6" y="258.417601" style="stroke: #000000; stroke-width: 0.8"/>
      </g>
     </g>
     <g id="text_9">
      <text style="font: 10px 'IPAexGothic'; text-anchor: end" x="50.6" y="262.162914" transform="rotate(-0 50.6 262.162914)">0.5</text>
     </g>
    </g>
    <g id="ytick_3">
     <g id="line2d_9">
      <g>
       <use xlink:href="#mdbdb7230da" x="57.6" y="221.343575" style="stroke: #000000; stroke-width: 0.8"/>
      </g>
     </g>
     <g id="text_10">
      <text style="font: 10px 'IPAexGothic'; text-anchor: end" x="50.6" y="225.088888" transform="rotate(-0 50.6 225.088888)">1.0</text>
     </g>
    </g>
    <g id="ytick_4">
     <g id="line2d_10">
      <g>
       <use xlink:href="#mdbdb7230da" x="57.6" y="184.26955" style="stroke: #000000; stroke-width: 0.8"/>
      </g>
     </g>
     <g id="text_11">
      <text style="font: 10px 'IPAexGothic'; text-anchor: end" x="50.6" y="188.014862" transform="rotate(-0 50.6 188.014862)">1.5</text>
     </g>
    </g>
    <g id="ytick_5">
     <g id="line2d_11">
      <g>
       <use xlink:href="#mdbdb7230da" x="57.6" y="147.195524" style="stroke: #000000; stroke-width: 0.8"/>
      </g>
     </g>
     <g id="text_12">
      <text style="font: 10px 'IPAexGothic'; text-anchor: end" x="50.6" y="150.940836" transform="rotate(-0 50.6 150.940836)">2.0</text>
     </g>
    </g>
    <g id="ytick_6">
     <g id="line2d_12">
      <g>
       <use xlink:href="#mdbdb7230da" x="57.6" y="110.121498" style="stroke: #000000; stroke-width: 0.8"/>
      </g>
     </g>
     <g id="text_13">
      <text style="font: 10px 'IPAexGothic'; text-anchor: end" x="50.6" y="113.866811" transform="rotate(-0 50.6 113.866811)">2.5</text>
     </g>
    </g>
    <g id="ytick_7">
     <g id="line2d_13">
      <g>
       <use xlink:href="#mdbdb7230da" x="57.6" y="73.047472" style="stroke: #000000; stroke-width: 0.8"/>
      </g>
     </g>
     <g id="text_14">
      <text style="font: 10px 'IPAexGothic'; text-anchor: end" x="50.6" y="76.792785" transform="rotate(-0 50.6 76.792785)">3.0</text>
     </g>
    </g>
    <g id="text_15">
     <text style="font: 10px 'IPAexGothic'; text-anchor: middle" x="29.460938" y="174.528" transform="rotate(-90 29.460938 174.528)">振幅</text>
    </g>
    <g id="text_16">
     <text style="font: 10px 'IPAexGothic'; text-anchor: start" x="57.6" y="38.472" transform="rotate(-0 57.6 38.472)">1e7</text>
    </g>
   </g>
   <g id="line2d_14">
    <path d="M 73.832727 292.231434 
L 73.965266 295.391976 
L 75.091849 295.409318 
L 75.290657 295.426688 
L 75.754544 295.385109 
L 76.152162 295.425795 
L 76.41724 295.41748 
L 78.604135 295.360302 
L 78.670405 295.229529 
L 78.802944 295.45749 
L 79.531909 295.432123 
L 81.056109 295.425995 
L 81.122378 295.230803 
L 81.254917 295.442057 
L 82.182691 295.445058 
L 83.309274 295.43297 
L 83.508082 295.414622 
L 83.574352 295.312579 
L 83.77316 295.449607 
L 86.490212 295.454861 
L 87.683064 295.458433 
L 95.635411 295.465496 
L 95.76795 295.446218 
L 96.894532 295.452175 
L 98.087384 295.475275 
L 98.153654 295.315218 
L 98.219923 295.441741 
L 99.015158 295.455088 
L 100.009201 295.463612 
L 101.533401 295.473847 
L 102.858792 295.406301 
L 102.925062 295.333778 
L 102.991331 294.716461 
L 103.19014 295.43728 
L 103.654027 295.465714 
L 105.045687 295.488 
L 105.443305 295.364158 
L 105.575844 295.47876 
L 110.943678 295.445785 
L 118.167059 295.399944 
L 118.299598 295.394674 
L 118.962294 295.387047 
L 119.55872 295.386176 
L 120.088876 295.400733 
L 120.619032 295.390101 
L 121.944424 295.407029 
L 122.143232 295.369065 
L 123.733701 295.390808 
L 124.462667 295.392394 
L 126.450753 295.360379 
L 126.91464 295.390972 
L 127.709875 295.381598 
L 128.240031 295.373804 
L 128.902727 295.367382 
L 129.300344 295.379657 
L 129.697961 295.379934 
L 129.764231 295.269051 
L 129.8305 295.309314 
L 130.095579 295.369256 
L 130.294387 295.365182 
L 130.890813 295.35627 
L 131.3547 295.366133 
L 131.884857 295.373652 
L 132.149935 295.074742 
L 132.216204 294.801655 
L 132.348744 295.335539 
L 132.680091 295.353133 
L 132.81263 295.367778 
L 135.330873 295.381574 
L 135.662221 295.365519 
L 135.993569 295.385634 
L 136.258647 295.406357 
L 136.324917 295.23133 
L 136.391186 295.303461 
L 136.656265 295.363878 
L 138.246734 295.361154 
L 138.511812 295.384511 
L 144.608611 295.388813 
L 144.80742 295.381756 
L 145.337576 295.389359 
L 145.602654 295.371859 
L 145.735193 295.374542 
L 145.934002 295.377352 
L 146.662967 295.387321 
L 146.861776 295.377477 
L 147.391932 295.389375 
L 147.78955 295.387661 
L 148.054628 295.410862 
L 148.717323 295.37809 
L 148.849862 295.39378 
L 151.566914 295.41273 
L 151.633184 295.331953 
L 151.699453 295.399242 
L 152.362149 295.388391 
L 152.560958 295.418903 
L 152.892305 295.382678 
L 153.488731 295.376344 
L 153.62127 295.408201 
L 154.018888 295.372632 
L 154.151427 295.416629 
L 155.21174 295.451012 
L 155.344279 295.353488 
L 155.609357 295.416645 
L 155.874435 295.408395 
L 156.073244 295.392168 
L 156.470861 295.435661 
L 156.537131 295.265587 
L 156.6034 295.309631 
L 156.802209 295.424256 
L 157.266096 295.397954 
L 157.597444 295.416762 
L 157.928791 295.399076 
L 158.260139 295.413696 
L 158.591487 295.416221 
L 158.856565 295.396007 
L 158.922835 295.122958 
L 159.055374 295.438068 
L 160.513304 295.444238 
L 161.242269 295.471736 
L 161.308539 295.38161 
L 161.374808 294.469119 
L 161.507347 295.289884 
L 161.772426 295.390342 
L 163.760512 295.368694 
L 163.826782 295.215309 
L 163.893051 295.33445 
L 164.158129 295.425599 
L 165.54979 295.41164 
L 165.947407 295.381567 
L 166.212486 295.226543 
L 166.345025 295.450353 
L 166.875181 295.449038 
L 168.068033 295.408136 
L 168.863268 295.418968 
L 173.435867 295.390819 
L 173.502137 295.182077 
L 173.568406 295.461245 
L 173.634676 295.434332 
L 173.767215 295.378428 
L 173.899754 295.409857 
L 174.562449 295.35376 
L 175.026336 295.426966 
L 175.490223 295.365797 
L 175.622762 295.362565 
L 175.887841 295.421497 
L 175.95411 295.304204 
L 176.086649 295.439905 
L 176.219188 295.345492 
L 176.749345 295.399489 
L 176.948153 295.400048 
L 177.080693 295.373886 
L 177.743388 295.400524 
L 178.074736 295.378836 
L 178.273545 295.437117 
L 178.406084 295.264057 
L 178.604892 295.39028 
L 179.135049 295.40401 
L 179.267588 295.35023 
L 179.797744 295.402261 
L 179.930283 295.343134 
L 180.39417 295.349526 
L 180.46044 295.418305 
L 180.526709 295.353433 
L 180.725518 295.402348 
L 180.791788 295.151587 
L 180.858057 295.233367 
L 181.520753 295.315539 
L 181.587022 295.242111 
L 181.653292 295.32274 
L 181.719561 295.357113 
L 181.785831 295.254964 
L 181.8521 295.339607 
L 181.98464 295.307833 
L 182.117179 295.348453 
L 182.382257 295.219931 
L 182.514796 295.351872 
L 183.177492 295.386482 
L 183.243761 294.080715 
L 183.310031 295.213773 
L 183.3763 295.197348 
L 183.575109 295.282591 
L 183.707648 295.304511 
L 183.773917 295.322176 
L 183.840187 295.200056 
L 183.906457 295.266494 
L 184.171535 295.253 
L 184.436613 295.231386 
L 184.502883 295.348305 
L 184.569152 295.198529 
L 184.635422 295.246458 
L 184.701691 295.309237 
L 184.9005 295.103638 
L 185.364387 295.233019 
L 185.563195 294.621336 
L 185.695735 292.914868 
L 185.828274 295.102384 
L 185.960813 295.255539 
L 186.093352 295.083376 
L 186.225891 295.021959 
L 186.4247 295.2844 
L 186.888587 295.046429 
L 187.087395 295.205393 
L 187.286204 294.737736 
L 187.352473 294.964674 
L 187.418743 294.798343 
L 187.485013 294.689122 
L 187.617552 294.922439 
L 187.750091 294.601322 
L 187.81636 294.827017 
L 188.015169 293.872975 
L 188.081439 290.234081 
L 188.280247 294.582132 
L 188.479056 294.491786 
L 188.545325 294.634197 
L 188.611595 294.34139 
L 188.677864 294.423773 
L 188.744134 294.722363 
L 188.942943 293.950679 
L 189.009212 293.961954 
L 189.141751 294.556359 
L 189.34056 292.547239 
L 189.539369 294.025603 
L 189.738177 292.756857 
L 189.804447 292.170015 
L 189.870716 293.318027 
L 190.003256 292.07943 
L 190.069525 291.909461 
L 190.467142 278.125556 
L 190.533412 100.117088 
L 190.665951 276.940801 
L 190.79849 289.915153 
L 190.86476 289.375593 
L 191.063568 292.313534 
L 191.129838 292.238732 
L 191.196108 293.080021 
L 191.262377 292.840874 
L 191.328647 293.266249 
L 191.394916 292.733571 
L 191.461186 294.309317 
L 191.527455 293.902106 
L 191.593725 293.723702 
L 191.659994 294.322426 
L 191.726264 293.922113 
L 192.123881 294.877885 
L 192.190151 294.821986 
L 192.25642 294.508128 
L 192.32269 294.522797 
L 192.455229 294.983951 
L 192.521499 294.695913 
L 192.587768 295.086916 
L 192.654038 294.985491 
L 192.786577 295.210149 
L 192.852846 295.070026 
L 192.919116 294.494151 
L 192.985386 290.630235 
L 193.117925 294.642033 
L 193.184194 294.657703 
L 193.250464 294.848054 
L 193.316733 294.711132 
L 193.383003 294.881205 
L 193.449272 294.707391 
L 193.515542 294.821466 
L 193.714351 295.169214 
L 193.84689 294.92841 
L 194.111968 294.904401 
L 194.310777 295.148532 
L 194.443316 295.147329 
L 194.642124 295.036731 
L 194.973472 294.910286 
L 195.039742 295.145574 
L 195.106011 295.008115 
L 195.172281 295.078169 
L 195.30482 294.702918 
L 195.371089 293.974512 
L 195.569898 295.34022 
L 195.834976 295.146547 
L 196.298863 295.137947 
L 196.563941 295.092124 
L 196.76275 295.265302 
L 196.82902 295.174844 
L 196.895289 295.31268 
L 196.961559 295.206648 
L 197.226637 295.04581 
L 197.557985 295.241174 
L 197.823063 295.026299 
L 197.955602 295.228369 
L 198.021872 295.182211 
L 198.684567 295.235781 
L 198.817106 294.919768 
L 199.015915 295.299331 
L 199.81115 295.269395 
L 199.877419 295.336143 
L 200.076228 295.224896 
L 200.407576 295.309743 
L 200.606384 295.229213 
L 201.004002 295.330876 
L 201.335349 295.304294 
L 201.865506 295.356256 
L 201.998045 295.304161 
L 202.263123 295.326479 
L 202.461932 295.32435 
L 203.654784 295.342688 
L 204.052401 295.382303 
L 204.18494 295.22976 
L 204.383749 295.350074 
L 204.582557 295.363658 
L 204.913905 295.345282 
L 205.444062 295.347877 
L 205.64287 295.36959 
L 205.974218 295.331145 
L 206.305566 295.380154 
L 206.570644 295.3429 
L 206.901992 295.382629 
L 207.498418 295.378716 
L 207.564687 295.2337 
L 207.697227 295.369913 
L 209.221426 295.379113 
L 209.619044 295.368293 
L 209.817852 295.326946 
L 210.1492 295.36923 
L 210.944435 295.390116 
L 211.342052 295.361097 
L 211.739669 295.393005 
L 212.137287 295.374731 
L 214.65553 295.396998 
L 214.788069 295.407422 
L 214.854338 295.278437 
L 214.920608 295.381844 
L 215.980921 295.383233 
L 216.312269 295.393906 
L 219.625746 295.173965 
L 219.692016 294.642646 
L 219.890824 295.433878 
L 221.083676 295.420707 
L 221.613833 295.412718 
L 222.07772 295.418561 
L 222.143989 295.260742 
L 222.276528 295.395258 
L 236.657022 295.362448 
L 236.723291 295.295151 
L 236.789561 295.383613 
L 237.385987 295.385526 
L 240.036769 295.402455 
L 241.494699 295.378976 
L 241.560969 295.302807 
L 241.693508 295.399965 
L 246.398646 295.401043 
L 246.464916 295.210538 
L 246.531185 295.349815 
L 246.928803 295.386954 
L 247.392689 295.395162 
L 248.519272 295.405449 
L 248.78435 295.441599 
L 248.916889 294.811346 
L 249.049428 295.308862 
L 249.380776 295.358628 
L 250.109741 295.372916 
L 253.688297 295.403555 
L 253.754567 295.148677 
L 253.887106 295.385258 
L 258.525975 295.402748 
L 258.592244 295.448649 
L 258.724783 295.368409 
L 260.977948 295.37114 
L 261.044218 295.289913 
L 261.110487 295.370206 
L 266.61086 295.379443 
L 267.074747 295.380332 
L 271.846155 295.379522 
L 272.243772 295.36777 
L 273.171546 295.255749 
L 273.304085 295.395135 
L 275.55725 295.403719 
L 275.623519 295.183661 
L 275.689789 295.293702 
L 275.954867 295.369178 
L 277.876684 295.331125 
L 278.009223 295.163549 
L 278.075493 294.377186 
L 278.208032 295.426514 
L 278.870728 295.370304 
L 280.262388 295.346298 
L 280.527466 295.272632 
L 280.660006 295.376631 
L 281.52151 295.378003 
L 281.720318 295.360698 
L 282.846901 295.366733 
L 282.91317 295.198691 
L 283.04571 295.360151 
L 284.43737 295.359467 
L 285.166335 295.371204 
L 285.696492 295.358167 
L 287.618309 295.306595 
L 287.817117 295.329047 
L 287.883387 295.444541 
L 287.949657 295.403489 
L 289.208778 295.349354 
L 289.407587 295.388328 
L 289.606395 295.377257 
L 289.937743 295.395531 
L 290.136552 295.469857 
L 290.269091 295.186232 
L 290.4679 295.314232 
L 290.732978 295.353929 
L 291.329404 295.386208 
L 291.594482 295.306728 
L 291.727021 295.401423 
L 291.992099 295.408117 
L 292.588525 295.364339 
L 292.654795 294.816769 
L 292.787334 295.357471 
L 293.118682 295.394089 
L 293.715108 295.356991 
L 293.913916 295.38675 
L 294.245264 295.360933 
L 295.040499 295.281932 
L 295.106768 295.450274 
L 295.173038 295.374961 
L 295.504386 295.390642 
L 295.769464 295.351615 
L 296.29962 295.380032 
L 296.630968 295.345351 
L 297.028585 295.398437 
L 297.426203 295.305839 
L 297.492472 294.859533 
L 297.558742 294.903065 
L 297.757551 295.324773 
L 297.89009 295.393581 
L 298.155168 295.345053 
L 298.420246 295.407086 
L 298.685324 295.334442 
L 298.751594 295.452007 
L 298.817863 295.392813 
L 298.950402 295.462871 
L 299.149211 295.335415 
L 299.28175 295.355505 
L 299.613098 295.407587 
L 299.811907 295.346549 
L 299.878176 295.187545 
L 299.944446 292.404841 
L 300.076985 295.267806 
L 300.209524 295.395269 
L 300.474602 295.208929 
L 300.87222 295.437539 
L 301.137298 295.364644 
L 301.203567 295.446137 
L 301.269837 295.367137 
L 301.733724 295.229971 
L 301.799993 295.342309 
L 301.932532 294.91406 
L 301.998802 295.05069 
L 302.065072 295.136594 
L 302.131341 295.041714 
L 302.26388 294.332818 
L 302.33015 293.064417 
L 302.396419 289.494811 
L 302.528958 294.885622 
L 302.794037 295.437774 
L 303.257924 295.350077 
L 303.456732 295.001982 
L 303.523002 295.158551 
L 303.655541 295.394002 
L 303.78808 295.258458 
L 303.920619 295.372009 
L 304.053158 294.814797 
L 304.119428 294.848281 
L 304.251967 295.109134 
L 304.318236 295.110177 
L 304.649584 293.673855 
L 304.715854 291.883259 
L 304.782123 283.586038 
L 304.848393 285.724391 
L 304.980932 293.661446 
L 305.047201 294.010909 
L 305.113471 293.764183 
L 305.511088 294.583143 
L 305.577358 294.53036 
L 305.776167 293.89374 
L 305.842436 294.144203 
L 305.908706 294.998369 
L 306.041245 293.798884 
L 306.107514 294.241427 
L 306.173784 293.681753 
L 306.240053 294.048864 
L 306.306323 294.127448 
L 306.372593 292.404657 
L 306.438862 293.301211 
L 306.505132 293.170114 
L 306.571401 292.317971 
L 306.637671 292.982657 
L 306.70394 292.888145 
L 306.77021 290.873168 
L 306.836479 292.233205 
L 306.902749 292.335202 
L 307.035288 288.314454 
L 307.101558 284.323131 
L 307.167827 266.840037 
L 307.234097 53.568 
L 307.366636 286.890667 
L 307.499175 288.716285 
L 307.631714 293.008023 
L 307.697984 290.7199 
L 307.896792 293.260577 
L 308.029331 294.243116 
L 308.095601 293.776127 
L 308.22814 294.608437 
L 308.29441 294.58355 
L 308.360679 294.412413 
L 308.426949 294.491763 
L 308.493218 294.669121 
L 308.625757 294.445861 
L 308.692027 295.09118 
L 308.758296 294.872852 
L 308.890836 294.931048 
L 308.957105 295.165931 
L 309.089644 294.883498 
L 309.354722 295.413123 
L 309.487262 295.061445 
L 309.619801 293.619438 
L 309.68607 285.037436 
L 309.818609 294.362321 
L 310.017418 294.912703 
L 310.149957 295.086941 
L 310.348766 295.212211 
L 310.547574 295.016623 
L 310.680114 295.107724 
L 310.746383 295.237937 
L 310.812653 295.087597 
L 310.945192 295.23727 
L 311.077731 295.113521 
L 311.21027 294.850892 
L 311.27654 295.217354 
L 311.342809 295.171069 
L 311.475348 295.067593 
L 311.607887 295.01457 
L 311.872966 294.771487 
L 311.939235 294.798974 
L 312.005505 294.366175 
L 312.071774 292.553285 
L 312.138044 292.902398 
L 312.270583 295.252009 
L 312.469392 295.416898 
L 312.601931 295.305753 
L 312.6682 295.362258 
L 312.73447 295.27386 
L 312.933278 295.171968 
L 313.065818 295.204718 
L 313.264626 295.285422 
L 313.463435 295.161998 
L 313.728513 295.248838 
L 313.927322 295.131683 
L 314.258669 295.183219 
L 314.324939 295.067307 
L 314.391209 295.165364 
L 314.457478 295.136556 
L 314.523748 294.326011 
L 314.656287 295.056161 
L 314.722556 295.196441 
L 314.788826 295.112382 
L 315.186443 295.199809 
L 315.385252 295.142899 
L 315.584061 295.225448 
L 315.782869 295.231163 
L 315.981678 295.197192 
L 316.114217 295.223992 
L 316.246756 295.260888 
L 316.511834 295.225542 
L 316.710643 295.274082 
L 316.843182 295.203068 
L 316.975721 295.234273 
L 317.439608 295.231241 
L 317.572147 295.286538 
L 317.837225 295.25333 
L 318.102304 295.224448 
L 318.234843 295.252821 
L 318.499921 295.286643 
L 318.963808 295.241657 
L 319.096347 295.241085 
L 319.957851 295.312855 
L 320.15666 295.250835 
L 320.421738 295.295539 
L 320.554277 295.28597 
L 320.819355 295.291609 
L 321.349512 295.314303 
L 321.54832 295.278079 
L 321.879668 295.231198 
L 322.012207 295.315148 
L 322.409825 295.279676 
L 322.741172 295.317883 
L 323.403868 295.332341 
L 323.668946 295.283287 
L 323.801485 295.413537 
L 323.867755 295.34084 
L 324.066563 295.335525 
L 324.199103 295.321533 
L 324.265372 295.062311 
L 324.397911 295.332943 
L 325.922111 295.283011 
L 326.05465 295.375763 
L 326.452267 295.300005 
L 328.639163 295.34126 
L 328.837971 295.313905 
L 329.03678 295.326028 
L 329.10305 295.258931 
L 329.169319 295.330614 
L 329.566936 295.35782 
L 330.826058 295.33824 
L 331.555023 295.385516 
L 331.753832 295.324189 
L 332.283988 295.341737 
L 332.880414 295.372123 
L 333.012953 295.350569 
L 333.145492 295.327842 
L 333.54311 295.376905 
L 333.808188 295.365459 
L 334.205805 295.357592 
L 334.603423 295.376463 
L 335.266118 295.393454 
L 335.796275 295.357551 
L 336.193892 295.396393 
L 336.326431 295.321753 
L 336.392701 294.820605 
L 336.45897 294.852883 
L 336.657779 295.310216 
L 337.254205 295.373139 
L 338.115709 295.375615 
L 341.230378 295.366831 
L 341.429187 295.392325 
L 342.622039 295.381158 
L 343.218465 295.384918 
L 343.682352 295.27422 
L 343.748621 295.449294 
L 343.814891 295.415198 
L 348.718838 295.399899 
L 348.983916 295.392547 
L 350.706924 295.394449 
L 351.038272 295.402109 
L 356.936262 295.403581 
L 357.797767 295.407207 
L 358.261653 295.389703 
L 358.460462 295.400373 
L 377.678633 295.412889 
L 377.811172 295.41621 
L 381.654806 295.415549 
L 382.383771 295.419272 
L 383.576623 295.429354 
L 384.371858 295.433838 
L 384.835745 295.439863 
L 386.094866 295.441224 
L 389.805961 295.40447 
L 390.071039 295.420889 
L 390.402387 295.432669 
L 390.998813 295.433953 
L 392.257935 295.452525 
L 392.390474 295.35966 
L 392.589282 295.409492 
L 393.715865 295.416593 
L 394.37856 295.42748 
L 394.709908 295.413398 
L 394.776178 294.739455 
L 394.908717 295.419799 
L 395.836491 295.448338 
L 396.631725 295.434995 
L 397.161882 295.444763 
L 397.36069 295.433026 
L 398.487273 295.43842 
L 398.487273 295.43842 
" clip-path="url(#p9f947d9f8a)" style="fill: none; stroke: #1f77b4; stroke-width: 1.5; stroke-linecap: square"/>
   </g>
   <g id="patch_3">
    <path d="M 57.6 307.584 
L 57.6 41.472 
" style="fill: none; stroke: #000000; stroke-width: 0.8; stroke-linejoin: miter; stroke-linecap: square"/>
   </g>
   <g id="patch_4">
    <path d="M 414.72 307.584 
L 414.72 41.472 
" style="fill: none; stroke: #000000; stroke-width: 0.8; stroke-linejoin: miter; stroke-linecap: square"/>
   </g>
   <g id="patch_5">
    <path d="M 57.6 307.584 
L 414.72 307.584 
" style="fill: none; stroke: #000000; stroke-width: 0.8; stroke-linejoin: miter; stroke-linecap: square"/>
   </g>
   <g id="patch_6">
    <path d="M 57.6 41.472 
L 414.72 41.472 
" style="fill: none; stroke: #000000; stroke-width: 0.8; stroke-linejoin: miter; stroke-linecap: square"/>
   </g>
   <g id="text_17">
    <text style="font: 12px 'IPAexGothic'; text-anchor: middle" x="236.16" y="35.472" transform="rotate(-0 236.16 35.472)">"036_A6.wav"の振幅スペクトル</text>
   </g>
  </g>
 </g>
 <defs>
  <clipPath id="p9f947d9f8a">
   <rect x="57.6" y="41.472" width="357.12" height="266.112"/>
  </clipPath>
 </defs>
</svg>
