<?xml version="1.0" encoding="utf-8" standalone="no"?>
<!DOCTYPE svg PUBLIC "-//W3C//DTD SVG 1.1//EN"
  "http://www.w3.org/Graphics/SVG/1.1/DTD/svg11.dtd">
<svg xmlns:xlink="http://www.w3.org/1999/xlink" width="460.8pt" height="345.6pt" viewBox="0 0 460.8 345.6" xmlns="http://www.w3.org/2000/svg" version="1.1">
 <metadata>
  <rdf:RDF xmlns:dc="http://purl.org/dc/elements/1.1/" xmlns:cc="http://creativecommons.org/ns#" xmlns:rdf="http://www.w3.org/1999/02/22-rdf-syntax-ns#">
   <cc:Work>
    <dc:type rdf:resource="http://purl.org/dc/dcmitype/StillImage"/>
    <dc:date>2022-11-28T12:35:29.246584</dc:date>
    <dc:format>image/svg+xml</dc:format>
    <dc:creator>
     <cc:Agent>
      <dc:title>Matplotlib v3.6.2, https://matplotlib.org/</dc:title>
     </cc:Agent>
    </dc:creator>
   </cc:Work>
  </rdf:RDF>
 </metadata>
 <defs>
  <style type="text/css">*{stroke-linejoin: round; stroke-linecap: butt}</style>
 </defs>
 <g id="figure_1">
  <g id="patch_1">
   <path d="M 0 345.6 
L 460.8 345.6 
L 460.8 0 
L 0 0 
z
" style="fill: #ffffff"/>
  </g>
  <g id="axes_1">
   <g id="patch_2">
    <path d="M 57.6 307.584 
L 414.72 307.584 
L 414.72 41.472 
L 57.6 41.472 
z
" style="fill: #ffffff"/>
   </g>
   <g id="matplotlib.axis_1">
    <g id="xtick_1">
     <g id="line2d_1">
      <defs>
       <path id="mda4149f2e8" d="M 0 0 
L 0 3.5 
" style="stroke: #000000; stroke-width: 0.8"/>
      </defs>
      <g>
       <use xlink:href="#mda4149f2e8" x="73.832727" y="307.584" style="stroke: #000000; stroke-width: 0.8"/>
      </g>
     </g>
     <g id="text_1">
      <text style="font: 10px 'IPAexGothic'; text-anchor: middle" x="73.832727" y="322.074625" transform="rotate(-0 73.832727 322.074625)">0</text>
     </g>
    </g>
    <g id="xtick_2">
     <g id="line2d_2">
      <g>
       <use xlink:href="#mda4149f2e8" x="140.102281" y="307.584" style="stroke: #000000; stroke-width: 0.8"/>
      </g>
     </g>
     <g id="text_2">
      <text style="font: 10px 'IPAexGothic'; text-anchor: middle" x="140.102281" y="322.074625" transform="rotate(-0 140.102281 322.074625)">1000</text>
     </g>
    </g>
    <g id="xtick_3">
     <g id="line2d_3">
      <g>
       <use xlink:href="#mda4149f2e8" x="206.371835" y="307.584" style="stroke: #000000; stroke-width: 0.8"/>
      </g>
     </g>
     <g id="text_3">
      <text style="font: 10px 'IPAexGothic'; text-anchor: middle" x="206.371835" y="322.074625" transform="rotate(-0 206.371835 322.074625)">2000</text>
     </g>
    </g>
    <g id="xtick_4">
     <g id="line2d_4">
      <g>
       <use xlink:href="#mda4149f2e8" x="272.64139" y="307.584" style="stroke: #000000; stroke-width: 0.8"/>
      </g>
     </g>
     <g id="text_4">
      <text style="font: 10px 'IPAexGothic'; text-anchor: middle" x="272.64139" y="322.074625" transform="rotate(-0 272.64139 322.074625)">3000</text>
     </g>
    </g>
    <g id="xtick_5">
     <g id="line2d_5">
      <g>
       <use xlink:href="#mda4149f2e8" x="338.910944" y="307.584" style="stroke: #000000; stroke-width: 0.8"/>
      </g>
     </g>
     <g id="text_5">
      <text style="font: 10px 'IPAexGothic'; text-anchor: middle" x="338.910944" y="322.074625" transform="rotate(-0 338.910944 322.074625)">4000</text>
     </g>
    </g>
    <g id="xtick_6">
     <g id="line2d_6">
      <g>
       <use xlink:href="#mda4149f2e8" x="405.180498" y="307.584" style="stroke: #000000; stroke-width: 0.8"/>
      </g>
     </g>
     <g id="text_6">
      <text style="font: 10px 'IPAexGothic'; text-anchor: middle" x="405.180498" y="322.074625" transform="rotate(-0 405.180498 322.074625)">5000</text>
     </g>
    </g>
    <g id="text_7">
     <text style="font: 10px 'IPAexGothic'; text-anchor: middle" x="236.16" y="335.924625" transform="rotate(-0 236.16 335.924625)">周波数[Hz]</text>
    </g>
   </g>
   <g id="matplotlib.axis_2">
    <g id="ytick_1">
     <g id="line2d_7">
      <defs>
       <path id="m08f0a54ad1" d="M 0 0 
L -3.5 0 
" style="stroke: #000000; stroke-width: 0.8"/>
      </defs>
      <g>
       <use xlink:href="#m08f0a54ad1" x="57.6" y="295.494811" style="stroke: #000000; stroke-width: 0.8"/>
      </g>
     </g>
     <g id="text_8">
      <text style="font: 10px 'IPAexGothic'; text-anchor: end" x="50.6" y="299.240123" transform="rotate(-0 50.6 299.240123)">0.0</text>
     </g>
    </g>
    <g id="ytick_2">
     <g id="line2d_8">
      <g>
       <use xlink:href="#m08f0a54ad1" x="57.6" y="253.165588" style="stroke: #000000; stroke-width: 0.8"/>
      </g>
     </g>
     <g id="text_9">
      <text style="font: 10px 'IPAexGothic'; text-anchor: end" x="50.6" y="256.910901" transform="rotate(-0 50.6 256.910901)">0.5</text>
     </g>
    </g>
    <g id="ytick_3">
     <g id="line2d_9">
      <g>
       <use xlink:href="#m08f0a54ad1" x="57.6" y="210.836365" style="stroke: #000000; stroke-width: 0.8"/>
      </g>
     </g>
     <g id="text_10">
      <text style="font: 10px 'IPAexGothic'; text-anchor: end" x="50.6" y="214.581678" transform="rotate(-0 50.6 214.581678)">1.0</text>
     </g>
    </g>
    <g id="ytick_4">
     <g id="line2d_10">
      <g>
       <use xlink:href="#m08f0a54ad1" x="57.6" y="168.507143" style="stroke: #000000; stroke-width: 0.8"/>
      </g>
     </g>
     <g id="text_11">
      <text style="font: 10px 'IPAexGothic'; text-anchor: end" x="50.6" y="172.252455" transform="rotate(-0 50.6 172.252455)">1.5</text>
     </g>
    </g>
    <g id="ytick_5">
     <g id="line2d_11">
      <g>
       <use xlink:href="#m08f0a54ad1" x="57.6" y="126.17792" style="stroke: #000000; stroke-width: 0.8"/>
      </g>
     </g>
     <g id="text_12">
      <text style="font: 10px 'IPAexGothic'; text-anchor: end" x="50.6" y="129.923232" transform="rotate(-0 50.6 129.923232)">2.0</text>
     </g>
    </g>
    <g id="ytick_6">
     <g id="line2d_12">
      <g>
       <use xlink:href="#m08f0a54ad1" x="57.6" y="83.848697" style="stroke: #000000; stroke-width: 0.8"/>
      </g>
     </g>
     <g id="text_13">
      <text style="font: 10px 'IPAexGothic'; text-anchor: end" x="50.6" y="87.59401" transform="rotate(-0 50.6 87.59401)">2.5</text>
     </g>
    </g>
    <g id="ytick_7">
     <g id="line2d_13">
      <g>
       <use xlink:href="#m08f0a54ad1" x="57.6" y="41.519474" style="stroke: #000000; stroke-width: 0.8"/>
      </g>
     </g>
     <g id="text_14">
      <text style="font: 10px 'IPAexGothic'; text-anchor: end" x="50.6" y="45.264787" transform="rotate(-0 50.6 45.264787)">3.0</text>
     </g>
    </g>
    <g id="text_15">
     <text style="font: 10px 'IPAexGothic'; text-anchor: middle" x="29.460938" y="174.528" transform="rotate(-90 29.460938 174.528)">振幅</text>
    </g>
    <g id="text_16">
     <text style="font: 10px 'IPAexGothic'; text-anchor: start" x="57.6" y="38.472" transform="rotate(-0 57.6 38.472)">1e7</text>
    </g>
   </g>
   <g id="line2d_14">
    <path d="M 73.832727 293.540267 
L 73.898997 293.139377 
L 74.296614 295.238282 
L 74.362884 295.221695 
L 74.561692 295.029511 
L 74.627962 294.95031 
L 74.694231 295.058531 
L 74.760501 294.426559 
L 74.826771 294.648111 
L 75.025579 293.677272 
L 75.091849 293.770471 
L 75.158118 294.21912 
L 75.754544 288.239656 
L 75.953353 290.658393 
L 76.218431 291.508284 
L 76.284701 291.479644 
L 76.35097 291.018145 
L 76.41724 288.956646 
L 76.483509 289.595162 
L 76.549779 288.636182 
L 76.616049 290.578153 
L 76.682318 289.865829 
L 76.748588 289.860682 
L 76.881127 290.413214 
L 76.947396 289.321963 
L 77.013666 291.885372 
L 77.079935 290.252216 
L 77.146205 292.507513 
L 77.345014 284.331832 
L 77.411283 286.758033 
L 77.477553 68.957823 
L 77.610092 292.296459 
L 77.676361 288.413252 
L 77.808901 292.406868 
L 78.007709 292.783446 
L 78.073979 291.952046 
L 78.140248 293.607919 
L 78.206518 292.834156 
L 78.272787 292.660783 
L 78.339057 293.329312 
L 78.471596 292.089006 
L 78.537866 293.398162 
L 78.604135 292.606515 
L 78.736674 293.162733 
L 78.802944 292.430523 
L 78.869213 292.784892 
L 79.001752 293.388509 
L 79.068022 292.455547 
L 79.134292 293.234193 
L 79.200561 291.95168 
L 79.266831 292.153441 
L 79.3331 292.89103 
L 79.39937 292.619214 
L 79.465639 292.233207 
L 79.531909 292.310782 
L 79.598178 292.888511 
L 79.664448 292.609481 
L 79.730718 292.332906 
L 79.796987 292.601158 
L 79.995796 292.160833 
L 80.062065 292.474647 
L 80.128335 292.455547 
L 80.194604 291.828367 
L 80.260874 292.166518 
L 80.393413 291.620221 
L 80.525952 292.387084 
L 80.592222 291.767017 
L 80.658491 292.395211 
L 80.8573 289.135932 
L 80.92357 285.482524 
L 80.989839 288.101941 
L 81.056109 284.27895 
L 81.122378 53.568 
L 81.254917 288.386604 
L 81.321187 285.524161 
L 81.453726 289.812914 
L 81.519996 288.915867 
L 81.652535 291.392028 
L 81.718804 289.724192 
L 81.785074 290.761274 
L 81.917613 291.703481 
L 81.983882 291.19635 
L 82.050152 289.621552 
L 82.116422 291.866143 
L 82.182691 291.763175 
L 82.248961 291.812802 
L 82.31523 291.112622 
L 82.3815 291.881228 
L 82.447769 291.853277 
L 82.514039 291.871441 
L 82.646578 291.24596 
L 82.779117 292.264165 
L 82.911656 291.399488 
L 82.977926 292.599962 
L 83.044195 291.827051 
L 83.110465 292.375768 
L 83.176734 292.222506 
L 83.309274 291.212377 
L 83.441813 292.284781 
L 83.508082 292.254669 
L 83.640621 291.544695 
L 83.706891 292.856646 
L 83.77316 291.548809 
L 83.83943 292.493875 
L 83.905699 290.947037 
L 83.971969 291.828906 
L 84.038239 291.602533 
L 84.104508 291.704038 
L 84.170778 292.357866 
L 84.303317 289.580525 
L 84.369586 291.33867 
L 84.568395 287.169607 
L 84.700934 273.439401 
L 84.767204 152.876191 
L 84.899743 286.880172 
L 85.164821 294.311415 
L 85.231091 294.099669 
L 85.29736 294.596643 
L 85.36363 293.949208 
L 85.496169 295.050619 
L 85.562438 294.88987 
L 85.628708 294.381178 
L 85.694977 294.514535 
L 85.761247 295.444369 
L 85.827517 295.23834 
L 85.960056 295.081675 
L 86.026325 295.15138 
L 86.158864 294.966593 
L 86.225134 295.027705 
L 86.291403 295.142136 
L 86.423943 294.880041 
L 86.490212 295.209316 
L 86.556482 295.023266 
L 86.622751 295.237628 
L 86.689021 295.19208 
L 86.954099 295.391107 
L 87.020369 295.025736 
L 87.086638 295.165923 
L 87.219177 294.828652 
L 87.351716 295.231668 
L 87.417986 294.709314 
L 87.484255 295.067987 
L 87.550525 294.59541 
L 87.616795 295.017676 
L 87.683064 294.795002 
L 87.815603 294.882084 
L 88.080681 294.225116 
L 88.213221 292.841036 
L 88.34576 288.778771 
L 88.412029 243.650974 
L 88.544568 292.633507 
L 88.610838 291.910881 
L 88.809646 294.703207 
L 88.942186 294.391956 
L 89.008455 295.13124 
L 89.140994 294.524474 
L 89.207264 294.452142 
L 89.273533 293.812905 
L 89.406072 295.241744 
L 89.538612 294.406911 
L 89.604881 294.653101 
L 89.671151 294.851042 
L 89.73742 294.819168 
L 89.869959 294.897707 
L 89.936229 294.681058 
L 90.068768 294.895704 
L 90.135038 294.474803 
L 90.267577 294.843308 
L 90.797733 294.496422 
L 90.930272 294.776236 
L 91.062811 294.668032 
L 91.129081 294.405222 
L 91.19535 294.557038 
L 91.32789 294.348621 
L 91.460429 294.435835 
L 91.526698 294.100976 
L 91.592968 294.6048 
L 91.791776 292.969499 
L 91.858046 293.124321 
L 91.990585 291.034066 
L 92.056855 267.264414 
L 92.189394 292.446525 
L 92.388202 294.080495 
L 92.520742 294.889873 
L 92.587011 294.850508 
L 92.71955 295.230492 
L 92.78582 295.119651 
L 92.918359 295.418049 
L 92.984628 295.055871 
L 93.050898 295.358474 
L 93.117168 295.30456 
L 93.315976 295.419949 
L 93.581054 295.345814 
L 94.044941 295.377849 
L 94.17748 295.359472 
L 94.24375 295.469723 
L 94.310019 295.418426 
L 94.906445 295.202671 
L 95.436602 294.065387 
L 95.635411 288.936951 
L 95.70168 285.946654 
L 95.966758 292.983929 
L 96.033028 292.630116 
L 96.165567 294.243868 
L 96.430645 294.110967 
L 96.563184 294.818274 
L 96.629454 294.376464 
L 96.695723 294.593679 
L 96.761993 294.826839 
L 96.828263 294.793055 
L 96.894532 294.49535 
L 96.960802 294.784396 
L 97.027071 294.649813 
L 97.15961 294.86133 
L 97.22588 294.726999 
L 97.358419 294.955959 
L 97.623497 294.853631 
L 98.087384 295.01736 
L 98.286193 294.913389 
L 98.485001 295.060499 
L 98.551271 294.863777 
L 98.61754 294.90088 
L 98.68381 294.824922 
L 98.75008 294.979786 
L 98.882619 294.434562 
L 98.948888 294.597985 
L 99.280236 292.315515 
L 99.346506 291.42379 
L 99.677853 294.620704 
L 99.876662 294.828873 
L 100.406818 295.202259 
L 100.870705 295.347021 
L 102.129827 295.386654 
L 102.593714 295.221101 
L 102.991331 293.384445 
L 103.256409 294.561962 
L 103.388948 294.804165 
L 103.455218 294.631977 
L 103.521488 294.703965 
L 103.786566 294.975521 
L 103.852835 294.9481 
L 103.919105 295.082521 
L 103.985374 295.013269 
L 104.051644 295.020265 
L 104.117913 295.14427 
L 104.184183 295.0491 
L 104.382992 295.111071 
L 104.515531 295.050048 
L 104.714339 295.004368 
L 105.045687 295.281019 
L 105.111957 294.993203 
L 105.178226 295.020809 
L 105.310765 295.03453 
L 105.509574 295.130213 
L 105.907191 295.147812 
L 105.973461 295.009152 
L 106.039731 295.066942 
L 106.106 295.229221 
L 106.17227 295.196443 
L 106.304809 294.672536 
L 106.437348 293.652552 
L 106.503617 293.80615 
L 106.569887 293.716577 
L 106.636157 293.412418 
L 106.702426 293.469777 
L 106.768696 294.288779 
L 106.834965 294.090595 
L 106.967504 294.400432 
L 107.166313 294.687218 
L 107.298852 294.780902 
L 107.497661 295.051011 
L 107.6302 295.016456 
L 107.762739 294.844312 
L 107.961548 295.179949 
L 108.094087 295.125301 
L 108.226626 295.108699 
L 108.889321 295.263724 
L 109.220669 295.237961 
L 109.286939 295.317772 
L 109.353208 295.247945 
L 109.552017 295.293136 
L 109.750826 295.220181 
L 109.817095 295.260801 
L 110.214712 293.680684 
L 110.280982 293.737858 
L 110.347252 293.943282 
L 110.413521 293.897879 
L 110.479791 293.971595 
L 110.744869 295.071632 
L 110.877408 295.040691 
L 111.142486 295.212091 
L 111.275025 295.168808 
L 111.606373 295.227063 
L 111.672643 295.132992 
L 111.871451 295.250422 
L 112.07026 295.223529 
L 112.269069 295.236486 
L 112.732956 295.246695 
L 113.263112 295.367275 
L 113.59446 295.133281 
L 113.726999 295.127363 
L 113.925807 294.712015 
L 114.323425 294.829482 
L 114.522233 295.127096 
L 114.721042 295.117207 
L 114.919851 295.082019 
L 115.05239 295.234555 
L 115.317468 295.26238 
L 115.913894 295.275046 
L 116.311511 295.36074 
L 116.642859 295.3428 
L 117.173016 295.438651 
L 117.504363 295.484698 
L 117.570633 295.331325 
L 117.636903 295.364639 
L 117.901981 295.32013 
L 118.564676 295.426065 
L 118.829754 295.404852 
L 119.55872 295.348494 
L 120.287685 295.331755 
L 120.685302 295.341424 
L 120.884111 295.278553 
L 121.745615 295.241599 
L 122.143232 295.271251 
L 122.275771 295.275856 
L 122.739658 295.314649 
L 123.137276 295.340991 
L 124.462667 295.377075 
L 125.655519 295.408857 
L 126.251945 295.420283 
L 126.649562 295.39968 
L 126.782101 295.356875 
L 128.041223 295.323783 
L 128.240031 295.333366 
L 129.697961 295.303077 
L 129.89677 295.311419 
L 131.553509 295.358142 
L 131.818587 295.35471 
L 132.547552 295.391969 
L 133.011439 295.384679 
L 135.662221 295.351405 
L 136.059839 295.371711 
L 137.517769 295.327824 
L 137.650308 295.375509 
L 138.511812 295.30656 
L 138.644351 295.369976 
L 139.240777 295.365211 
L 140.897516 295.39828 
L 141.493942 295.378672 
L 142.222907 295.38777 
L 143.548298 295.370627 
L 143.879646 295.362249 
L 144.144724 295.384302 
L 145.536385 295.377266 
L 147.193124 295.37965 
L 147.590741 295.378641 
L 148.120897 295.376606 
L 151.235566 295.355828 
L 151.434375 295.382924 
L 152.362149 295.400885 
L 152.892305 295.391175 
L 153.488731 295.37448 
L 153.753809 295.377499 
L 154.350235 295.388836 
L 154.681583 295.387173 
L 169.459694 295.432605 
L 169.658502 295.408502 
L 172.176746 295.39499 
L 172.706902 295.409502 
L 173.966023 295.423305 
L 183.773917 295.437471 
L 185.695735 295.429367 
L 186.689778 295.433782 
L 188.545325 295.436797 
L 189.870716 295.444475 
L 193.051655 295.441534 
L 193.979429 295.440833 
L 204.052401 295.461577 
L 204.847636 295.445098 
L 208.625 295.460699 
L 208.956348 295.463048 
L 213.396408 295.45092 
L 214.721799 295.454486 
L 237.783604 295.452293 
L 238.048682 295.473493 
L 240.103038 295.467169 
L 245.86849 295.46935 
L 248.055385 295.463273 
L 249.579585 295.464645 
L 253.887106 295.468176 
L 257.66447 295.470997 
L 261.044218 295.468496 
L 263.032304 295.468445 
L 330.627249 295.473704 
L 332.08518 295.471478 
L 337.651822 295.47725 
L 345.007743 295.474202 
L 351.634698 295.479923 
L 354.550558 295.477221 
L 360.18347 295.477717 
L 365.153687 295.477185 
L 370.123904 295.478807 
L 372.642147 295.478154 
L 383.510354 295.477796 
L 386.359944 295.476918 
L 391.661509 295.479051 
L 396.035299 295.479977 
L 398.487273 295.479991 
L 398.487273 295.479991 
" clip-path="url(#p0a2a37f691)" style="fill: none; stroke: #1f77b4; stroke-width: 1.5; stroke-linecap: square"/>
   </g>
   <g id="patch_3">
    <path d="M 57.6 307.584 
L 57.6 41.472 
" style="fill: none; stroke: #000000; stroke-width: 0.8; stroke-linejoin: miter; stroke-linecap: square"/>
   </g>
   <g id="patch_4">
    <path d="M 414.72 307.584 
L 414.72 41.472 
" style="fill: none; stroke: #000000; stroke-width: 0.8; stroke-linejoin: miter; stroke-linecap: square"/>
   </g>
   <g id="patch_5">
    <path d="M 57.6 307.584 
L 414.72 307.584 
" style="fill: none; stroke: #000000; stroke-width: 0.8; stroke-linejoin: miter; stroke-linecap: square"/>
   </g>
   <g id="patch_6">
    <path d="M 57.6 41.472 
L 414.72 41.472 
" style="fill: none; stroke: #000000; stroke-width: 0.8; stroke-linejoin: miter; stroke-linecap: square"/>
   </g>
   <g id="text_17">
    <text style="font: 12px 'IPAexGothic'; text-anchor: middle" x="236.16" y="35.472" transform="rotate(-0 236.16 35.472)">"036_A1.wav"の振幅スペクトル</text>
   </g>
  </g>
 </g>
 <defs>
  <clipPath id="p0a2a37f691">
   <rect x="57.6" y="41.472" width="357.12" height="266.112"/>
  </clipPath>
 </defs>
</svg>
