<?xml version="1.0" encoding="utf-8" standalone="no"?>
<!DOCTYPE svg PUBLIC "-//W3C//DTD SVG 1.1//EN"
  "http://www.w3.org/Graphics/SVG/1.1/DTD/svg11.dtd">
<svg xmlns:xlink="http://www.w3.org/1999/xlink" width="460.8pt" height="345.6pt" viewBox="0 0 460.8 345.6" xmlns="http://www.w3.org/2000/svg" version="1.1">
 <metadata>
  <rdf:RDF xmlns:dc="http://purl.org/dc/elements/1.1/" xmlns:cc="http://creativecommons.org/ns#" xmlns:rdf="http://www.w3.org/1999/02/22-rdf-syntax-ns#">
   <cc:Work>
    <dc:type rdf:resource="http://purl.org/dc/dcmitype/StillImage"/>
    <dc:date>2022-11-28T12:35:31.024238</dc:date>
    <dc:format>image/svg+xml</dc:format>
    <dc:creator>
     <cc:Agent>
      <dc:title>Matplotlib v3.6.2, https://matplotlib.org/</dc:title>
     </cc:Agent>
    </dc:creator>
   </cc:Work>
  </rdf:RDF>
 </metadata>
 <defs>
  <style type="text/css">*{stroke-linejoin: round; stroke-linecap: butt}</style>
 </defs>
 <g id="figure_1">
  <g id="patch_1">
   <path d="M 0 345.6 
L 460.8 345.6 
L 460.8 0 
L 0 0 
z
" style="fill: #ffffff"/>
  </g>
  <g id="axes_1">
   <g id="patch_2">
    <path d="M 57.6 307.584 
L 414.72 307.584 
L 414.72 41.472 
L 57.6 41.472 
z
" style="fill: #ffffff"/>
   </g>
   <g id="matplotlib.axis_1">
    <g id="xtick_1">
     <g id="line2d_1">
      <defs>
       <path id="md02cf9f8fd" d="M 0 0 
L 0 3.5 
" style="stroke: #000000; stroke-width: 0.8"/>
      </defs>
      <g>
       <use xlink:href="#md02cf9f8fd" x="73.832727" y="307.584" style="stroke: #000000; stroke-width: 0.8"/>
      </g>
     </g>
     <g id="text_1">
      <text style="font: 10px 'IPAexGothic'; text-anchor: middle" x="73.832727" y="322.074625" transform="rotate(-0 73.832727 322.074625)">0</text>
     </g>
    </g>
    <g id="xtick_2">
     <g id="line2d_2">
      <g>
       <use xlink:href="#md02cf9f8fd" x="140.102281" y="307.584" style="stroke: #000000; stroke-width: 0.8"/>
      </g>
     </g>
     <g id="text_2">
      <text style="font: 10px 'IPAexGothic'; text-anchor: middle" x="140.102281" y="322.074625" transform="rotate(-0 140.102281 322.074625)">1000</text>
     </g>
    </g>
    <g id="xtick_3">
     <g id="line2d_3">
      <g>
       <use xlink:href="#md02cf9f8fd" x="206.371835" y="307.584" style="stroke: #000000; stroke-width: 0.8"/>
      </g>
     </g>
     <g id="text_3">
      <text style="font: 10px 'IPAexGothic'; text-anchor: middle" x="206.371835" y="322.074625" transform="rotate(-0 206.371835 322.074625)">2000</text>
     </g>
    </g>
    <g id="xtick_4">
     <g id="line2d_4">
      <g>
       <use xlink:href="#md02cf9f8fd" x="272.64139" y="307.584" style="stroke: #000000; stroke-width: 0.8"/>
      </g>
     </g>
     <g id="text_4">
      <text style="font: 10px 'IPAexGothic'; text-anchor: middle" x="272.64139" y="322.074625" transform="rotate(-0 272.64139 322.074625)">3000</text>
     </g>
    </g>
    <g id="xtick_5">
     <g id="line2d_5">
      <g>
       <use xlink:href="#md02cf9f8fd" x="338.910944" y="307.584" style="stroke: #000000; stroke-width: 0.8"/>
      </g>
     </g>
     <g id="text_5">
      <text style="font: 10px 'IPAexGothic'; text-anchor: middle" x="338.910944" y="322.074625" transform="rotate(-0 338.910944 322.074625)">4000</text>
     </g>
    </g>
    <g id="xtick_6">
     <g id="line2d_6">
      <g>
       <use xlink:href="#md02cf9f8fd" x="405.180498" y="307.584" style="stroke: #000000; stroke-width: 0.8"/>
      </g>
     </g>
     <g id="text_6">
      <text style="font: 10px 'IPAexGothic'; text-anchor: middle" x="405.180498" y="322.074625" transform="rotate(-0 405.180498 322.074625)">5000</text>
     </g>
    </g>
    <g id="text_7">
     <text style="font: 10px 'IPAexGothic'; text-anchor: middle" x="236.16" y="335.924625" transform="rotate(-0 236.16 335.924625)">周波数[Hz]</text>
    </g>
   </g>
   <g id="matplotlib.axis_2">
    <g id="ytick_1">
     <g id="line2d_7">
      <defs>
       <path id="m604d25a2fe" d="M 0 0 
L -3.5 0 
" style="stroke: #000000; stroke-width: 0.8"/>
      </defs>
      <g>
       <use xlink:href="#m604d25a2fe" x="57.6" y="295.5003" style="stroke: #000000; stroke-width: 0.8"/>
      </g>
     </g>
     <g id="text_8">
      <text style="font: 10px 'IPAexGothic'; text-anchor: end" x="50.6" y="299.245612" transform="rotate(-0 50.6 299.245612)">0.00</text>
     </g>
    </g>
    <g id="ytick_2">
     <g id="line2d_8">
      <g>
       <use xlink:href="#m604d25a2fe" x="57.6" y="262.454118" style="stroke: #000000; stroke-width: 0.8"/>
      </g>
     </g>
     <g id="text_9">
      <text style="font: 10px 'IPAexGothic'; text-anchor: end" x="50.6" y="266.19943" transform="rotate(-0 50.6 266.19943)">0.25</text>
     </g>
    </g>
    <g id="ytick_3">
     <g id="line2d_9">
      <g>
       <use xlink:href="#m604d25a2fe" x="57.6" y="229.407936" style="stroke: #000000; stroke-width: 0.8"/>
      </g>
     </g>
     <g id="text_10">
      <text style="font: 10px 'IPAexGothic'; text-anchor: end" x="50.6" y="233.153248" transform="rotate(-0 50.6 233.153248)">0.50</text>
     </g>
    </g>
    <g id="ytick_4">
     <g id="line2d_10">
      <g>
       <use xlink:href="#m604d25a2fe" x="57.6" y="196.361753" style="stroke: #000000; stroke-width: 0.8"/>
      </g>
     </g>
     <g id="text_11">
      <text style="font: 10px 'IPAexGothic'; text-anchor: end" x="50.6" y="200.107066" transform="rotate(-0 50.6 200.107066)">0.75</text>
     </g>
    </g>
    <g id="ytick_5">
     <g id="line2d_11">
      <g>
       <use xlink:href="#m604d25a2fe" x="57.6" y="163.315571" style="stroke: #000000; stroke-width: 0.8"/>
      </g>
     </g>
     <g id="text_12">
      <text style="font: 10px 'IPAexGothic'; text-anchor: end" x="50.6" y="167.060884" transform="rotate(-0 50.6 167.060884)">1.00</text>
     </g>
    </g>
    <g id="ytick_6">
     <g id="line2d_12">
      <g>
       <use xlink:href="#m604d25a2fe" x="57.6" y="130.269389" style="stroke: #000000; stroke-width: 0.8"/>
      </g>
     </g>
     <g id="text_13">
      <text style="font: 10px 'IPAexGothic'; text-anchor: end" x="50.6" y="134.014702" transform="rotate(-0 50.6 134.014702)">1.25</text>
     </g>
    </g>
    <g id="ytick_7">
     <g id="line2d_13">
      <g>
       <use xlink:href="#m604d25a2fe" x="57.6" y="97.223207" style="stroke: #000000; stroke-width: 0.8"/>
      </g>
     </g>
     <g id="text_14">
      <text style="font: 10px 'IPAexGothic'; text-anchor: end" x="50.6" y="100.96852" transform="rotate(-0 50.6 100.96852)">1.50</text>
     </g>
    </g>
    <g id="ytick_8">
     <g id="line2d_14">
      <g>
       <use xlink:href="#m604d25a2fe" x="57.6" y="64.177025" style="stroke: #000000; stroke-width: 0.8"/>
      </g>
     </g>
     <g id="text_15">
      <text style="font: 10px 'IPAexGothic'; text-anchor: end" x="50.6" y="67.922337" transform="rotate(-0 50.6 67.922337)">1.75</text>
     </g>
    </g>
    <g id="text_16">
     <text style="font: 10px 'IPAexGothic'; text-anchor: middle" x="23.1625" y="174.528" transform="rotate(-90 23.1625 174.528)">振幅</text>
    </g>
    <g id="text_17">
     <text style="font: 10px 'IPAexGothic'; text-anchor: start" x="57.6" y="38.472" transform="rotate(-0 57.6 38.472)">1e7</text>
    </g>
   </g>
   <g id="line2d_15">
    <path d="M 73.832727 295.463407 
L 74.031536 294.766163 
L 74.164075 294.736585 
L 74.429153 294.771127 
L 74.89304 294.683466 
L 75.025579 294.811834 
L 75.158118 295.065915 
L 75.423197 294.678611 
L 75.489466 294.580035 
L 75.555736 294.781346 
L 75.754544 294.584918 
L 75.953353 294.956173 
L 76.218431 295.136805 
L 76.41724 294.834549 
L 76.616049 294.943995 
L 76.881127 295.04589 
L 76.947396 295.014253 
L 77.146205 295.208419 
L 77.345014 295.054586 
L 77.411283 295.191448 
L 77.477553 295.091309 
L 77.742631 295.10813 
L 77.87517 295.084452 
L 78.007709 295.122159 
L 78.073979 295.020299 
L 78.140248 295.142198 
L 78.272787 294.996781 
L 78.405327 294.978719 
L 78.471596 294.962509 
L 78.670405 295.252846 
L 78.802944 295.128593 
L 79.001752 295.279215 
L 79.068022 295.119779 
L 79.134292 295.257158 
L 79.266831 295.116334 
L 79.39937 295.199385 
L 79.465639 295.125475 
L 79.531909 295.186757 
L 79.598178 295.278757 
L 79.664448 295.217227 
L 79.863257 295.15689 
L 80.393413 295.081038 
L 80.658491 294.958233 
L 80.724761 295.168457 
L 80.92357 294.549068 
L 81.122378 295.236887 
L 81.188648 295.007138 
L 81.254917 295.083574 
L 81.453726 294.921179 
L 81.519996 294.879512 
L 81.652535 294.981019 
L 81.718804 294.90009 
L 81.785074 294.956583 
L 81.917613 295.01434 
L 82.050152 294.846893 
L 82.182691 294.967018 
L 82.646578 294.750857 
L 82.779117 294.977322 
L 82.911656 294.83663 
L 83.176734 294.909459 
L 83.309274 294.676282 
L 83.441813 294.877714 
L 83.640621 294.7662 
L 83.706891 294.901547 
L 83.77316 294.83038 
L 83.905699 294.769559 
L 84.170778 294.920268 
L 84.303317 294.659435 
L 84.435856 294.855102 
L 84.700934 294.719766 
L 84.899743 294.91375 
L 85.032282 294.803893 
L 85.29736 295.002669 
L 85.36363 294.903083 
L 85.429899 294.985355 
L 85.562438 294.922428 
L 85.694977 294.884587 
L 85.827517 294.947421 
L 85.893786 294.962658 
L 85.960056 294.852464 
L 86.026325 294.954825 
L 86.158864 294.877317 
L 86.291403 295.216603 
L 86.357673 294.853866 
L 86.423943 294.872726 
L 86.556482 295.078973 
L 86.622751 294.959825 
L 86.75529 295.117189 
L 86.887829 294.921628 
L 86.954099 295.009199 
L 87.020369 294.941498 
L 87.086638 294.820115 
L 87.285447 295.188544 
L 87.351716 295.121208 
L 87.417986 295.047485 
L 87.550525 295.225347 
L 87.815603 294.892622 
L 87.881873 295.020759 
L 88.080681 295.126988 
L 88.213221 294.957294 
L 88.34576 295.293461 
L 88.412029 295.187514 
L 88.544568 295.119224 
L 88.610838 294.756462 
L 88.677107 294.893032 
L 88.743377 294.876503 
L 88.809646 295.135251 
L 88.875916 295.108744 
L 88.942186 295.030677 
L 89.008455 295.249444 
L 89.207264 294.895562 
L 89.406072 295.281606 
L 89.538612 294.824434 
L 89.80369 295.133874 
L 89.936229 294.951255 
L 90.068768 295.12403 
L 90.135038 294.744067 
L 90.201307 295.015802 
L 90.267577 294.859789 
L 90.466385 295.100078 
L 90.598924 295.063035 
L 90.797733 294.599596 
L 90.930272 295.116873 
L 90.996542 294.986405 
L 91.062811 295.146752 
L 91.129081 295.033513 
L 91.394159 294.872919 
L 91.725507 294.879143 
L 91.990585 294.88689 
L 92.189394 294.904464 
L 92.388202 294.803101 
L 92.587011 294.83792 
L 92.984628 294.712994 
L 93.050898 294.836305 
L 93.117168 294.671655 
L 93.183437 294.72318 
L 93.249707 294.736182 
L 93.382246 294.435495 
L 93.448515 294.510842 
L 93.581054 294.78607 
L 93.647324 294.728524 
L 93.846133 294.334628 
L 94.044941 294.474541 
L 94.111211 294.727194 
L 94.310019 294.142598 
L 94.508828 294.50914 
L 94.773906 293.728472 
L 94.972715 294.805398 
L 95.237793 293.788999 
L 95.370332 294.404073 
L 95.569141 294.129326 
L 95.635411 294.205755 
L 95.70168 294.086945 
L 95.834219 294.249516 
L 95.900489 294.222247 
L 96.033028 293.756383 
L 96.099297 294.27488 
L 96.165567 294.188552 
L 96.430645 293.835947 
L 96.563184 294.235022 
L 96.629454 293.801844 
L 96.695723 293.972597 
L 96.761993 294.172991 
L 96.828263 294.035992 
L 96.894532 293.698961 
L 96.960802 294.017627 
L 97.027071 293.77635 
L 97.093341 294.14443 
L 97.15961 293.977621 
L 97.22588 293.812755 
L 97.358419 294.177711 
L 97.424689 293.949783 
L 97.490958 294.010839 
L 97.557228 294.00203 
L 97.623497 293.879885 
L 97.689767 293.983594 
L 97.822306 294.19993 
L 97.954845 293.988202 
L 98.021115 294.074924 
L 98.087384 293.889939 
L 98.286193 294.143546 
L 98.352462 294.161219 
L 98.418732 294.44676 
L 98.485001 294.39722 
L 98.551271 294.009234 
L 98.61754 294.241826 
L 98.68381 294.030953 
L 98.75008 294.348479 
L 98.816349 293.756118 
L 98.882619 293.962831 
L 98.948888 294.265659 
L 99.015158 294.001978 
L 99.213966 294.462255 
L 99.346506 294.268485 
L 99.412775 294.485344 
L 99.479045 294.435078 
L 99.611584 294.296043 
L 99.744123 294.562898 
L 99.942932 294.374671 
L 100.14174 294.862991 
L 100.20801 294.626797 
L 100.340549 295.28619 
L 100.406818 294.664823 
L 100.473088 295.06481 
L 100.539358 294.547551 
L 100.605627 294.714551 
L 100.671897 295.219011 
L 100.738166 295.204166 
L 100.870705 295.326559 
L 101.135784 295.02122 
L 101.202053 295.19626 
L 101.400862 294.709349 
L 101.66594 294.154303 
L 101.864749 293.208388 
L 101.931018 293.19389 
L 102.063557 292.438282 
L 102.328636 291.197456 
L 102.394905 291.657067 
L 102.726253 285.392155 
L 102.792522 280.352051 
L 102.925062 237.987135 
L 102.991331 53.568 
L 103.12387 275.02287 
L 103.322679 288.778923 
L 103.455218 286.85368 
L 103.720296 292.250581 
L 103.919105 293.321846 
L 104.051644 292.561007 
L 104.117913 293.365473 
L 104.184183 292.860907 
L 104.250453 292.700537 
L 104.449261 293.301169 
L 104.5818 292.725117 
L 104.64807 292.507192 
L 105.045687 293.910949 
L 105.111957 292.384976 
L 105.178226 292.679661 
L 105.310765 292.842681 
L 105.377035 293.546089 
L 105.443305 293.003874 
L 105.509574 293.565545 
L 105.575844 293.54299 
L 105.840922 293.786192 
L 105.907191 293.581467 
L 106.039731 292.758111 
L 106.17227 293.730995 
L 106.304809 293.267599 
L 106.371078 292.469519 
L 106.569887 293.786909 
L 106.702426 293.855293 
L 106.768696 294.206698 
L 107.033774 293.234241 
L 107.298852 293.557363 
L 107.365122 294.046159 
L 107.431391 293.995293 
L 107.6302 293.411082 
L 107.762739 292.185779 
L 107.961548 294.082187 
L 108.094087 293.27109 
L 108.160356 293.653271 
L 108.226626 292.979849 
L 108.292895 293.203672 
L 108.425435 292.828754 
L 108.690513 293.77252 
L 108.756782 293.607255 
L 108.823052 293.905594 
L 109.08813 291.855208 
L 109.1544 293.16873 
L 109.220669 292.311285 
L 109.419478 293.60399 
L 109.485747 292.954009 
L 109.552017 293.603008 
L 109.618286 293.479787 
L 109.684556 293.027889 
L 109.750826 293.093788 
L 109.817095 293.872884 
L 109.883365 293.406598 
L 109.949634 293.164736 
L 110.015904 293.859466 
L 110.214712 292.720318 
L 110.347252 293.565503 
L 110.413521 293.373657 
L 110.479791 293.111258 
L 110.61233 293.595321 
L 110.678599 293.141078 
L 110.744869 293.430009 
L 110.811138 293.07484 
L 110.943678 293.466978 
L 111.009947 293.339158 
L 111.142486 292.95808 
L 111.208756 292.907451 
L 111.275025 293.527155 
L 111.341295 293.149026 
L 111.407564 292.924777 
L 111.540104 293.572271 
L 111.672643 292.595098 
L 111.738912 293.761047 
L 111.805182 293.579907 
L 111.937721 293.063773 
L 112.13653 293.716439 
L 112.202799 293.626342 
L 112.269069 293.252919 
L 112.335338 293.422794 
L 112.401608 293.647651 
L 112.467877 293.293998 
L 112.534147 293.417138 
L 112.600416 293.301393 
L 112.666686 292.917404 
L 112.732956 293.180176 
L 112.865495 294.362162 
L 112.931764 293.97825 
L 112.998034 294.30563 
L 113.064303 294.265928 
L 113.196842 293.654619 
L 113.263112 293.872043 
L 113.329382 293.419387 
L 113.461921 294.052229 
L 113.59446 293.754591 
L 113.726999 294.21206 
L 113.793268 293.995147 
L 113.859538 294.069873 
L 114.058347 294.390371 
L 114.124616 294.571787 
L 114.190886 294.455229 
L 114.455964 294.178668 
L 114.654773 294.563886 
L 114.721042 294.432525 
L 114.787312 294.356571 
L 114.853581 294.014135 
L 114.98612 294.827411 
L 115.05239 294.684435 
L 115.118659 294.396587 
L 115.184929 294.539953 
L 115.251199 294.391398 
L 115.317468 294.644392 
L 115.383738 294.380975 
L 115.450007 294.462986 
L 115.516277 294.549513 
L 115.582546 294.456519 
L 115.648816 294.265887 
L 115.715085 294.30919 
L 115.847625 294.428471 
L 115.980164 294.102228 
L 116.046433 294.515031 
L 116.112703 294.368841 
L 116.245242 294.479449 
L 116.311511 294.698855 
L 116.377781 294.499414 
L 116.444051 294.523053 
L 116.51032 294.684623 
L 116.57659 294.648811 
L 116.642859 294.458059 
L 116.709129 294.543801 
L 116.775398 294.450764 
L 116.974207 294.596464 
L 117.173016 294.309665 
L 117.239285 294.606407 
L 117.438094 294.111951 
L 117.504363 294.489684 
L 117.636903 294.148689 
L 117.703172 294.158862 
L 117.769442 293.926453 
L 117.835711 294.060968 
L 118.03452 294.419471 
L 118.167059 294.139565 
L 118.233329 293.153454 
L 118.365868 294.204846 
L 118.432137 293.744187 
L 118.564676 294.231207 
L 118.630946 294.005081 
L 118.697215 294.423174 
L 118.763485 294.2693 
L 119.094833 293.538767 
L 119.161102 294.293467 
L 119.227372 293.980993 
L 119.293641 294.416879 
L 119.42618 293.862553 
L 119.49245 293.986 
L 119.55872 293.863986 
L 119.691259 294.182949 
L 119.757528 293.84188 
L 119.823798 293.978345 
L 119.890067 293.761333 
L 119.956337 293.856318 
L 120.022606 294.229373 
L 120.088876 294.115368 
L 120.221415 293.824798 
L 120.287685 294.179534 
L 120.420224 293.760702 
L 120.486493 293.800883 
L 120.552763 294.097761 
L 120.619032 294.044482 
L 120.685302 294.157429 
L 120.751572 293.784543 
L 120.817841 294.148014 
L 120.884111 293.925364 
L 121.082919 294.270034 
L 121.215458 293.654517 
L 121.414267 294.241448 
L 121.480537 293.885254 
L 121.546806 294.034919 
L 121.613076 293.898656 
L 121.679345 293.934156 
L 121.944424 294.45835 
L 122.010693 293.766396 
L 122.076963 294.028579 
L 122.209502 293.864899 
L 122.342041 294.468498 
L 122.54085 294.183676 
L 122.607119 294.159048 
L 122.673389 294.521895 
L 122.805928 294.012985 
L 122.938467 294.605357 
L 123.004736 294.640763 
L 123.071006 294.35648 
L 123.137276 294.408164 
L 123.203545 294.632884 
L 123.269815 294.520736 
L 123.336084 294.384875 
L 123.468623 294.760183 
L 123.534893 294.42896 
L 123.601162 294.484824 
L 123.799971 294.916996 
L 123.866241 294.520008 
L 123.93251 294.714512 
L 123.99878 294.824178 
L 124.065049 294.630271 
L 124.131319 294.870456 
L 124.197588 294.614931 
L 124.263858 294.753193 
L 124.661475 295.083915 
L 124.794014 294.559023 
L 124.860284 294.680604 
L 125.059093 295.13029 
L 125.125362 295.223034 
L 125.191632 295.155492 
L 125.324171 295.107803 
L 125.39044 295.006254 
L 125.522979 295.23413 
L 125.655519 295.00476 
L 125.854327 295.301423 
L 126.053136 295.176464 
L 126.251945 295.2335 
L 126.517023 295.119765 
L 126.649562 295.153899 
L 126.848371 295.040024 
L 126.98091 295.112955 
L 127.113449 295.0775 
L 127.179718 295.091912 
L 127.245988 294.788077 
L 127.312257 295.203713 
L 127.378527 294.917613 
L 127.511066 295.200147 
L 127.709875 295.204446 
L 127.842414 295.165805 
L 128.041223 295.062211 
L 128.240031 295.148345 
L 128.43884 294.997235 
L 128.637648 295.264715 
L 128.703918 295.231486 
L 128.836457 295.016138 
L 129.035266 295.208141 
L 129.167805 294.944528 
L 129.234074 295.041501 
L 129.366614 295.023259 
L 129.631692 294.162148 
L 129.764231 294.70604 
L 129.89677 294.109297 
L 129.96304 294.225299 
L 130.029309 294.533796 
L 130.095579 294.40213 
L 130.228118 293.887669 
L 130.426926 293.652518 
L 130.625735 292.825197 
L 130.692005 293.168263 
L 130.957083 292.265694 
L 131.023352 292.425176 
L 131.089622 292.385489 
L 131.288431 291.282405 
L 131.3547 291.60779 
L 131.42097 291.502158 
L 131.686048 289.021909 
L 131.818587 289.559901 
L 131.884857 287.951087 
L 132.083665 260.325014 
L 132.149935 148.774322 
L 132.282474 279.339481 
L 132.481283 288.734017 
L 132.547552 285.097093 
L 132.613822 287.01657 
L 132.680091 290.039602 
L 132.746361 287.934949 
L 132.8789 290.608817 
L 132.94517 290.535304 
L 133.077709 288.095666 
L 133.276517 290.438402 
L 133.342787 289.756114 
L 133.409056 291.431444 
L 133.475326 290.849451 
L 133.541596 289.884507 
L 133.607865 291.291861 
L 133.674135 291.031718 
L 133.740404 290.833456 
L 133.872943 289.68343 
L 133.939213 290.930921 
L 134.005482 290.442838 
L 134.071752 289.800521 
L 134.138021 289.913872 
L 134.204291 289.71015 
L 134.4031 292.284811 
L 134.469369 291.919905 
L 134.601908 290.51633 
L 134.668178 290.537752 
L 134.734447 290.48741 
L 134.800717 292.143143 
L 134.866987 291.374125 
L 134.933256 291.355928 
L 135.065795 290.340941 
L 135.198334 291.796971 
L 135.264604 290.994656 
L 135.397143 292.45833 
L 135.728491 290.713597 
L 135.79476 290.769262 
L 135.86103 290.735048 
L 135.927299 290.869857 
L 136.126108 292.850046 
L 136.192378 292.489759 
L 136.258647 292.948051 
L 136.324917 286.283201 
L 136.391186 288.492187 
L 136.457456 289.969065 
L 136.523725 289.860875 
L 136.589995 289.98977 
L 136.722534 290.714205 
L 136.788804 290.366886 
L 136.855073 290.68148 
L 136.921343 292.664266 
L 136.987612 292.10345 
L 137.053882 292.117966 
L 137.120151 292.447465 
L 137.31896 291.139547 
L 137.451499 290.224522 
L 137.517769 289.296455 
L 137.650308 291.9021 
L 137.716577 291.424989 
L 137.782847 290.340317 
L 137.849117 290.360332 
L 137.981656 292.263328 
L 138.047925 291.360322 
L 138.114195 292.826052 
L 138.180464 292.331306 
L 138.379273 290.342545 
L 138.644351 291.897899 
L 138.710621 291.788589 
L 138.77689 291.886546 
L 138.975699 289.037419 
L 139.041968 292.293078 
L 139.108238 291.188125 
L 139.174508 292.0543 
L 139.307047 291.047021 
L 139.373316 291.307739 
L 139.439586 292.05485 
L 139.638394 290.412009 
L 139.837203 291.897229 
L 139.903473 290.753447 
L 140.036012 292.1053 
L 140.102281 291.130364 
L 140.168551 292.141348 
L 140.23482 291.699755 
L 140.30109 290.907129 
L 140.433629 292.953107 
L 140.499899 292.424075 
L 140.566168 291.562881 
L 140.632438 291.605931 
L 140.897516 292.73016 
L 140.963786 291.931329 
L 141.030055 292.824933 
L 141.162594 292.047735 
L 141.228864 292.592396 
L 141.295133 292.219751 
L 141.361403 292.174233 
L 141.626481 293.822019 
L 141.75902 292.16046 
L 141.82529 291.986087 
L 141.891559 292.561378 
L 141.957829 291.850195 
L 142.024098 292.330871 
L 142.090368 293.343082 
L 142.156638 293.255072 
L 142.355446 292.593282 
L 142.421716 292.538297 
L 142.554255 293.169167 
L 142.620524 292.735477 
L 142.686794 292.992703 
L 142.819333 293.389551 
L 142.885603 293.368614 
L 142.951872 293.264712 
L 143.018142 293.348941 
L 143.084411 292.220344 
L 143.150681 293.152017 
L 143.21695 293.115267 
L 143.28322 293.069721 
L 143.34949 293.333736 
L 143.482029 292.357514 
L 143.614568 293.708596 
L 143.680837 293.554499 
L 143.813376 293.59805 
L 143.879646 292.7365 
L 144.012185 293.435863 
L 144.078455 293.081592 
L 144.144724 293.557563 
L 144.210994 293.547372 
L 144.343533 292.884281 
L 144.476072 293.66405 
L 144.542341 293.119183 
L 144.674881 294.056527 
L 144.873689 293.325849 
L 144.939959 293.90325 
L 145.006228 293.527534 
L 145.138767 293.389101 
L 145.205037 293.537656 
L 145.271307 293.360225 
L 145.470115 293.800812 
L 145.536385 293.6707 
L 145.668924 292.600656 
L 145.801463 293.90754 
L 145.867733 293.7305 
L 145.934002 293.374359 
L 146.000272 293.495744 
L 146.066541 293.852168 
L 146.19908 293.276783 
L 146.331619 293.765099 
L 146.397889 293.396946 
L 146.530428 294.035917 
L 146.795506 293.627927 
L 146.928045 293.55985 
L 146.994315 294.312159 
L 147.060585 294.148173 
L 147.126854 294.289373 
L 147.325663 293.964239 
L 147.458202 294.382122 
L 147.524471 294.125279 
L 147.590741 294.149473 
L 147.657011 294.232288 
L 147.72328 294.156382 
L 147.78955 294.211295 
L 147.855819 293.926474 
L 147.988358 294.433616 
L 148.120897 294.345578 
L 148.253437 294.107401 
L 148.319706 294.389106 
L 148.452245 294.041577 
L 148.518515 294.387895 
L 148.584784 294.25266 
L 148.717323 294.119995 
L 148.783593 294.622947 
L 148.849862 294.316628 
L 148.916132 294.360528 
L 148.982402 294.091279 
L 149.048671 294.208346 
L 149.313749 294.572227 
L 149.380019 294.235178 
L 149.446288 294.272661 
L 149.512558 294.328118 
L 149.578828 294.112137 
L 149.645097 294.698346 
L 149.711367 294.505476 
L 149.910175 294.312189 
L 150.042714 294.437641 
L 150.108984 294.749557 
L 150.307793 294.281841 
L 150.374062 294.667184 
L 150.506601 294.398577 
L 150.572871 294.720206 
L 150.70541 294.384713 
L 150.837949 294.612519 
L 150.904219 294.35346 
L 150.970488 294.444775 
L 151.036758 294.635149 
L 151.103027 294.596972 
L 151.235566 294.370666 
L 151.368106 294.610866 
L 151.434375 294.575153 
L 151.500645 294.308261 
L 151.633184 294.669557 
L 151.964532 294.543268 
L 152.097071 294.570192 
L 152.295879 294.133172 
L 152.428418 294.683358 
L 152.560958 294.631706 
L 152.693497 294.507887 
L 152.759766 294.693472 
L 152.958575 294.402369 
L 153.157384 294.605318 
L 153.223653 294.585725 
L 153.289923 294.720041 
L 153.356192 294.547844 
L 153.422462 294.659556 
L 153.488731 294.586688 
L 153.555001 294.943005 
L 153.62127 294.858417 
L 153.753809 294.7549 
L 153.886349 294.950481 
L 153.952618 294.84384 
L 154.018888 294.894443 
L 154.085157 295.003553 
L 154.151427 294.851077 
L 154.217696 294.910447 
L 154.482775 295.020396 
L 154.549044 294.92284 
L 154.615314 295.039557 
L 154.681583 294.974525 
L 154.814122 294.989812 
L 154.946661 295.033126 
L 155.012931 295.177841 
L 155.079201 295.095059 
L 155.21174 295.301511 
L 155.278009 295.117338 
L 155.344279 295.182459 
L 155.609357 295.351452 
L 155.874435 295.46073 
L 156.139513 295.214326 
L 156.272053 295.202931 
L 156.6034 294.922846 
L 156.66967 295.153451 
L 156.735939 295.019817 
L 156.802209 295.113617 
L 156.868479 295.040736 
L 157.067287 294.914206 
L 157.199826 294.958863 
L 157.729983 294.567058 
L 157.796252 294.715516 
L 157.862522 294.683296 
L 158.061331 294.417382 
L 158.1276 294.384616 
L 158.19387 294.55183 
L 158.458948 293.765158 
L 158.657756 294.028003 
L 158.790296 293.602656 
L 158.856565 293.777229 
L 158.989104 293.465651 
L 159.055374 293.697801 
L 159.121643 293.614063 
L 159.254182 293.215136 
L 159.320452 293.985444 
L 159.386722 292.582284 
L 159.452991 293.168672 
L 159.519261 292.596064 
L 159.58553 292.843481 
L 159.6518 292.864474 
L 159.718069 292.288401 
L 159.784339 293.22006 
L 159.850608 292.770134 
L 159.983148 292.130288 
L 160.049417 292.507286 
L 160.115687 291.725727 
L 160.181956 292.163901 
L 160.314495 291.620612 
L 160.447034 292.299032 
L 160.645843 292.863691 
L 160.712113 291.807929 
L 160.844652 292.828554 
L 160.977191 289.708014 
L 161.04346 291.037369 
L 161.308539 285.176247 
L 161.374808 287.017581 
L 161.507347 282.896676 
L 161.838695 290.05625 
L 161.971234 291.5023 
L 162.037504 290.898131 
L 162.103773 291.220732 
L 162.302582 293.604885 
L 162.63393 290.963868 
L 162.700199 291.235407 
L 162.766469 291.675456 
L 162.832738 290.053779 
L 162.899008 292.402774 
L 162.965278 292.259001 
L 163.097817 290.877658 
L 163.164086 293.069802 
L 163.230356 292.926966 
L 163.296625 292.85889 
L 163.362895 292.400443 
L 163.495434 293.07132 
L 163.760512 291.937303 
L 163.893051 291.528791 
L 163.959321 292.08028 
L 164.02559 291.808392 
L 164.09186 291.559601 
L 164.158129 292.377004 
L 164.224399 292.103897 
L 164.290669 291.782568 
L 164.356938 292.051979 
L 164.489477 290.468096 
L 164.555747 291.571349 
L 164.622016 291.08576 
L 164.688286 290.198997 
L 164.820825 291.875263 
L 164.887095 292.175616 
L 165.019634 290.667521 
L 165.085903 290.709044 
L 165.218442 291.294293 
L 165.417251 291.169171 
L 165.483521 290.992921 
L 165.54979 291.058727 
L 165.61606 291.637221 
L 165.682329 291.626503 
L 165.748599 291.598441 
L 165.881138 292.880392 
L 166.013677 290.540702 
L 166.212486 292.369717 
L 166.345025 292.580249 
L 166.477564 292.434318 
L 166.610103 290.462776 
L 166.742642 293.195162 
L 166.808912 293.018408 
L 166.875181 293.054627 
L 167.07399 291.887899 
L 167.206529 292.196954 
L 167.272799 291.779156 
L 167.339068 292.638392 
L 167.405338 292.054322 
L 167.537877 293.529747 
L 167.670416 291.321199 
L 167.869225 292.126343 
L 168.001764 291.516195 
L 168.068033 291.729411 
L 168.266842 292.398066 
L 168.333111 292.240142 
L 168.399381 290.794481 
L 168.465651 291.032586 
L 168.664459 291.936281 
L 168.730729 292.048121 
L 168.863268 291.41467 
L 168.929537 291.480598 
L 168.995807 291.579557 
L 169.128346 290.604129 
L 169.194616 291.07929 
L 169.260885 292.964526 
L 169.327155 291.808177 
L 169.459694 290.821546 
L 169.525963 290.854095 
L 169.857311 292.053819 
L 169.98985 292.947914 
L 170.05612 292.932767 
L 170.188659 290.057676 
L 170.321198 291.854575 
L 170.387468 290.650714 
L 170.453737 290.76289 
L 170.520007 290.623087 
L 170.586276 291.460391 
L 170.652546 290.859158 
L 170.718815 292.498318 
L 170.785085 292.272234 
L 170.851354 291.690553 
L 170.917624 292.617753 
L 170.983894 292.114248 
L 171.248972 290.980501 
L 171.315241 290.843942 
L 171.381511 290.95333 
L 171.44778 291.350381 
L 171.51405 292.52979 
L 171.58032 292.033046 
L 171.646589 291.160026 
L 171.712859 291.44558 
L 171.779128 291.604432 
L 171.845398 290.837979 
L 171.911667 292.144398 
L 171.977937 291.871738 
L 172.044206 291.35942 
L 172.110476 292.275829 
L 172.243015 291.483773 
L 172.309285 291.407444 
L 172.375554 292.282725 
L 172.441824 291.857819 
L 172.508093 292.430017 
L 172.640632 291.45244 
L 172.706902 291.611142 
L 172.905711 292.590413 
L 173.104519 290.749382 
L 173.303328 292.933461 
L 173.369598 292.918812 
L 173.700945 291.772175 
L 173.767215 292.047574 
L 173.833484 293.115863 
L 173.966023 292.27928 
L 174.164832 293.471199 
L 174.297371 292.239779 
L 174.363641 292.773356 
L 174.42991 291.707198 
L 174.49618 292.897282 
L 174.562449 292.350028 
L 174.761258 293.467239 
L 174.960067 293.74078 
L 175.291415 293.269817 
L 175.357684 293.389761 
L 175.423954 293.51561 
L 175.556493 292.90667 
L 175.622762 293.718502 
L 175.689032 293.645484 
L 175.755301 293.908147 
L 175.821571 294.635198 
L 175.95411 294.028588 
L 176.02038 294.460681 
L 176.086649 294.24199 
L 176.152919 293.594041 
L 176.219188 293.736133 
L 176.550536 294.403111 
L 176.616806 294.365236 
L 176.815614 294.056129 
L 177.014423 294.632729 
L 177.080693 294.277361 
L 177.213232 294.718182 
L 177.279501 294.616877 
L 177.41204 294.414457 
L 177.544579 294.835721 
L 177.610849 294.73357 
L 177.677119 294.710226 
L 177.809658 294.496748 
L 177.942197 294.828359 
L 178.008466 294.704578 
L 178.074736 294.633805 
L 178.273545 294.856319 
L 178.339814 294.407257 
L 178.406084 294.67142 
L 178.472353 294.59224 
L 178.538623 294.753816 
L 178.604892 294.610554 
L 178.671162 294.772308 
L 178.737431 294.687606 
L 178.86997 294.481249 
L 179.00251 294.784942 
L 179.068779 294.747163 
L 179.201318 294.32998 
L 179.267588 294.510672 
L 179.598936 294.678396 
L 179.665205 294.372847 
L 179.731475 294.487723 
L 179.797744 294.501389 
L 179.864014 294.042388 
L 179.930283 294.31178 
L 179.996553 294.193932 
L 180.129092 294.650129 
L 180.261631 294.164582 
L 180.327901 294.22066 
L 180.46044 294.54716 
L 180.526709 294.225897 
L 180.592979 294.300037 
L 180.659248 294.464144 
L 180.791788 294.219195 
L 180.858057 294.340975 
L 180.924327 294.027015 
L 180.990596 294.071446 
L 181.056866 293.980841 
L 181.255674 294.492048 
L 181.388214 294.360607 
L 181.587022 293.936258 
L 181.719561 294.382067 
L 181.785831 294.094691 
L 181.8521 294.340739 
L 181.91837 294.0821 
L 182.050909 294.43072 
L 182.315987 294.011715 
L 182.382257 294.104536 
L 182.448526 294.548507 
L 182.514796 294.356688 
L 182.647335 294.100036 
L 182.713605 294.317529 
L 182.846144 294.060274 
L 182.912413 294.382479 
L 183.044952 294.08177 
L 183.177492 294.290759 
L 183.243761 294.21143 
L 183.3763 294.321113 
L 183.44257 294.128007 
L 183.508839 294.170222 
L 183.575109 294.319346 
L 183.641378 294.229174 
L 183.773917 294.292659 
L 183.840187 294.071754 
L 183.906457 294.285986 
L 183.972726 294.228484 
L 184.038996 294.324574 
L 184.237804 294.134575 
L 184.304074 294.312562 
L 184.370343 294.045932 
L 184.436613 294.237158 
L 184.502883 294.313505 
L 184.569152 294.01558 
L 184.635422 294.21389 
L 184.767961 294.025403 
L 184.83423 294.16165 
L 184.9005 293.679237 
L 184.966769 294.002996 
L 185.033039 294.219045 
L 185.099309 294.057225 
L 185.165578 293.985846 
L 185.231848 294.164913 
L 185.298117 294.129096 
L 185.364387 294.113025 
L 185.563195 293.240147 
L 185.762004 294.237976 
L 185.828274 294.265918 
L 186.093352 293.355882 
L 186.159621 293.531573 
L 186.225891 293.609117 
L 186.292161 294.553353 
L 186.35843 293.984169 
L 186.689778 293.4188 
L 186.756047 293.418988 
L 186.954856 293.850675 
L 187.021126 293.885945 
L 187.087395 293.765863 
L 187.153665 293.110815 
L 187.219934 293.181277 
L 187.286204 293.00584 
L 187.352473 293.549087 
L 187.418743 293.134757 
L 187.551282 293.678357 
L 187.617552 293.611011 
L 187.683821 293.213514 
L 187.750091 293.282553 
L 187.81636 294.302542 
L 187.88263 292.582641 
L 187.948899 293.143113 
L 188.015169 292.747162 
L 188.147708 293.834754 
L 188.412786 293.08947 
L 188.479056 293.093321 
L 188.545325 293.331067 
L 188.611595 292.848679 
L 188.744134 293.592496 
L 188.942943 292.373356 
L 189.141751 293.766043 
L 189.34056 291.388974 
L 189.473099 293.679089 
L 189.539369 293.585828 
L 189.671908 292.781089 
L 189.738177 292.979243 
L 189.804447 292.912679 
L 189.870716 294.038826 
L 189.936986 293.652245 
L 190.135795 292.732506 
L 190.268334 292.145486 
L 190.334603 292.250801 
L 190.400873 280.32939 
L 190.467142 231.203232 
L 190.533412 256.358148 
L 190.732221 285.202054 
L 190.86476 284.867758 
L 190.997299 286.82817 
L 191.129838 289.893205 
L 191.196108 290.202675 
L 191.262377 291.199358 
L 191.328647 291.137155 
L 191.394916 291.338624 
L 191.461186 292.302796 
L 191.527455 291.034323 
L 191.593725 291.299683 
L 191.659994 292.148465 
L 191.726264 291.831181 
L 191.858803 292.650756 
L 191.925073 292.207932 
L 192.123881 293.639322 
L 192.190151 293.402706 
L 192.25642 293.431443 
L 192.786577 295.433961 
L 192.852846 294.74813 
L 192.919116 294.862612 
L 192.985386 295.203604 
L 193.184194 294.84335 
L 193.449272 294.580149 
L 193.648081 294.961248 
L 193.84689 294.874435 
L 193.913159 294.970124 
L 193.979429 294.917031 
L 194.045698 294.909224 
L 194.178237 294.997802 
L 194.443316 295.006182 
L 194.575855 294.967423 
L 194.642124 295.092226 
L 194.708394 295.025192 
L 194.907203 295.003238 
L 194.973472 294.948835 
L 195.039742 295.11643 
L 195.106011 294.98561 
L 195.172281 295.008107 
L 195.30482 294.558717 
L 195.371089 294.871216 
L 195.437359 294.772073 
L 195.503629 294.6569 
L 195.636168 294.862868 
L 195.768707 294.461457 
L 195.901246 294.511433 
L 195.967515 294.482005 
L 196.100055 294.613148 
L 196.365133 294.275287 
L 196.895289 294.77398 
L 197.027828 294.380045 
L 197.226637 294.215207 
L 197.425446 294.6323 
L 197.557985 294.592115 
L 197.823063 294.252238 
L 197.955602 294.357898 
L 198.021872 294.254008 
L 198.088141 294.297674 
L 198.154411 294.295 
L 198.22068 294.48525 
L 198.28695 294.132477 
L 198.353219 294.184559 
L 198.485759 293.942426 
L 198.618298 294.297931 
L 198.817106 292.765718 
L 198.949645 294.511342 
L 199.347263 293.408525 
L 199.479802 293.498878 
L 199.67861 294.03562 
L 199.74488 293.51865 
L 199.81115 294.10051 
L 199.877419 293.739867 
L 199.943689 293.328861 
L 200.009958 293.624397 
L 200.076228 293.337694 
L 200.208767 293.810256 
L 200.540115 292.512772 
L 200.606384 293.562712 
L 200.672654 293.485085 
L 200.805193 294.101298 
L 200.871462 293.958677 
L 201.136541 293.047615 
L 201.20281 293.185078 
L 201.401619 294.021887 
L 201.534158 293.362661 
L 201.666697 293.387038 
L 201.799236 293.942377 
L 201.865506 293.860814 
L 201.931775 293.362151 
L 201.998045 293.796059 
L 202.064314 293.700481 
L 202.130584 293.694295 
L 202.196854 293.859777 
L 202.329393 293.461689 
L 202.395662 293.915134 
L 202.461932 293.754865 
L 202.594471 294.277453 
L 202.66074 293.964319 
L 202.79328 293.440346 
L 202.925819 294.082936 
L 203.124627 293.99028 
L 203.190897 294.054773 
L 203.257166 293.913202 
L 203.323436 293.962242 
L 203.654784 294.380597 
L 203.787323 294.104548 
L 203.986131 294.504105 
L 204.118671 293.080526 
L 204.25121 294.510848 
L 204.317479 294.443005 
L 204.450018 294.058428 
L 204.582557 294.702699 
L 204.648827 294.606233 
L 204.980175 294.296423 
L 205.046444 294.531522 
L 205.112714 294.223961 
L 205.178983 294.285731 
L 205.245253 294.229807 
L 205.377792 294.838349 
L 205.444062 294.717817 
L 205.510331 294.702548 
L 205.70914 294.533967 
L 205.775409 294.524305 
L 205.841679 294.657243 
L 205.907949 294.591612 
L 206.305566 294.702922 
L 206.371835 294.56368 
L 206.438105 294.839943 
L 206.504375 294.697601 
L 206.570644 294.664373 
L 206.636914 294.829415 
L 206.703183 294.743024 
L 206.835722 294.889027 
L 206.901992 295.019119 
L 207.034531 294.678008 
L 207.16707 295.02454 
L 207.23334 294.971593 
L 207.365879 294.822571 
L 207.498418 294.881482 
L 207.896035 294.969167 
L 208.094844 294.839274 
L 208.293653 295.143523 
L 208.359922 295.133306 
L 208.492461 294.946182 
L 208.625 295.052889 
L 208.757539 294.952895 
L 209.420235 295.178233 
L 209.552774 295.040204 
L 209.619044 295.08089 
L 209.685313 294.957584 
L 209.884122 295.182093 
L 210.016661 295.127439 
L 210.1492 295.078448 
L 210.21547 295.214866 
L 210.281739 295.137234 
L 210.414278 295.172405 
L 210.679356 295.044151 
L 210.878165 295.198911 
L 211.010704 295.004615 
L 211.076974 295.112727 
L 211.143243 295.065861 
L 211.275782 294.759265 
L 211.408322 295.105763 
L 211.540861 294.931149 
L 211.60713 295.102299 
L 211.6734 294.982023 
L 211.805939 294.831092 
L 212.071017 295.026092 
L 212.137287 294.795217 
L 212.203556 294.938975 
L 212.733713 294.914532 
L 212.799982 294.780155 
L 212.932521 294.862536 
L 212.998791 294.737384 
L 213.06506 294.839273 
L 213.13133 295.059939 
L 213.1976 294.943624 
L 213.330139 294.865451 
L 213.462678 294.712642 
L 213.528947 294.714269 
L 213.595217 295.023821 
L 213.661486 294.829231 
L 213.727756 294.621349 
L 213.794025 294.718266 
L 213.926565 294.950762 
L 213.992834 294.800687 
L 214.059104 294.7692 
L 214.191643 294.840794 
L 214.324182 294.70184 
L 214.390451 294.790803 
L 214.456721 294.697447 
L 214.65553 294.757105 
L 214.721799 294.520368 
L 214.788069 294.757109 
L 214.854338 294.596702 
L 214.986877 294.749771 
L 215.119417 294.533791 
L 215.251956 294.833707 
L 215.318225 294.534602 
L 215.384495 294.582592 
L 215.450764 294.752343 
L 215.517034 294.588155 
L 215.583303 294.654871 
L 215.649573 294.56779 
L 215.782112 294.816308 
L 215.980921 294.303243 
L 216.04719 294.407239 
L 216.11346 294.714409 
L 216.179729 294.677508 
L 216.312269 294.648626 
L 216.444808 294.777524 
L 216.577347 294.562562 
L 216.643616 294.802444 
L 216.709886 294.664165 
L 216.842425 294.532713 
L 216.908695 294.815702 
L 217.041234 294.403185 
L 217.107503 294.632872 
L 217.173773 293.963382 
L 217.240042 294.541329 
L 217.306312 294.5167 
L 217.372581 294.554761 
L 217.438851 294.387513 
L 217.505121 293.367526 
L 217.63766 294.359147 
L 217.703929 293.968996 
L 217.770199 294.226915 
L 217.836468 294.591948 
L 217.902738 294.459529 
L 218.167816 293.979132 
L 218.300355 294.576256 
L 218.366625 294.340615 
L 218.432894 294.284545 
L 218.499164 294.632569 
L 218.565433 294.454187 
L 218.764242 295.03177 
L 218.830512 294.768064 
L 218.896781 295.017498 
L 219.09559 294.186848 
L 219.228129 295.167131 
L 219.294398 295.186766 
L 219.360668 294.693202 
L 219.493207 290.312496 
L 219.559477 279.08424 
L 219.625746 237.755349 
L 219.824555 281.107831 
L 220.155903 292.589304 
L 220.288442 290.605711 
L 220.420981 292.005002 
L 220.48725 290.607589 
L 220.61979 291.818292 
L 220.686059 291.91718 
L 220.752329 292.288336 
L 220.818598 292.146192 
L 220.884868 292.024489 
L 221.017407 292.600184 
L 221.083676 292.491291 
L 221.216216 293.00297 
L 221.348755 292.41526 
L 221.547563 293.539139 
L 221.613833 293.023175 
L 221.680102 293.239927 
L 221.746372 293.091199 
L 221.812642 292.332924 
L 221.878911 292.827693 
L 221.945181 292.834103 
L 222.01145 293.330298 
L 222.143989 292.862341 
L 222.210259 293.239402 
L 222.276528 292.607515 
L 222.342798 292.992064 
L 222.475337 293.594032 
L 222.607876 293.107227 
L 222.872954 293.922442 
L 223.005494 293.883166 
L 223.071763 293.545673 
L 223.138033 293.64178 
L 223.204302 293.824942 
L 223.403111 293.096699 
L 223.53565 294.268135 
L 223.734459 293.785346 
L 223.800728 294.521871 
L 223.866998 294.026991 
L 223.933267 294.029958 
L 223.999537 294.341503 
L 224.065806 294.187615 
L 224.132076 293.980165 
L 224.198345 294.090822 
L 224.397154 294.269991 
L 224.463424 294.173818 
L 224.529693 294.255844 
L 224.794771 294.392173 
L 224.927311 294.078361 
L 224.99358 294.263983 
L 225.126119 293.962257 
L 225.192389 294.07244 
L 225.324928 293.43607 
L 225.391197 294.648252 
L 225.457467 294.405203 
L 225.722545 293.996289 
L 225.788815 294.107591 
L 225.855084 293.882569 
L 225.987623 294.332491 
L 226.053893 294.25293 
L 226.186432 294.126553 
L 226.252702 294.215634 
L 226.318971 294.598572 
L 226.385241 294.168036 
L 226.45151 294.275758 
L 226.584049 294.236896 
L 226.650319 294.122208 
L 226.716589 294.225073 
L 226.849128 294.636693 
L 227.047936 294.516647 
L 227.180475 294.978403 
L 227.246745 294.498747 
L 227.313015 294.675283 
L 227.379284 294.463128 
L 227.445554 294.594158 
L 227.776901 294.914652 
L 227.97571 294.9072 
L 228.174519 295.101953 
L 228.439597 295.029158 
L 228.638406 295.23083 
L 228.969753 295.23596 
L 229.102292 295.182285 
L 229.234832 295.297913 
L 229.632449 295.307861 
L 229.897527 295.321394 
L 234.337587 295.166474 
L 234.470126 295.20876 
L 234.536396 295.06504 
L 234.602665 295.160122 
L 234.735205 295.1382 
L 234.867744 295.131826 
L 235.331631 295.184475 
L 235.46417 295.316651 
L 235.861787 295.326451 
L 237.187178 295.350609 
L 237.584795 295.376674 
L 238.512569 295.391908 
L 238.777647 295.38166 
L 241.229621 295.240027 
L 241.42843 295.285413 
L 241.494699 295.304413 
L 241.627238 295.154193 
L 241.826047 295.299262 
L 242.289934 295.156524 
L 242.356203 295.166333 
L 242.422473 295.348127 
L 242.488742 295.286302 
L 243.880403 295.144536 
L 243.946673 295.214426 
L 244.012942 295.079067 
L 244.079212 295.14375 
L 244.27802 295.269878 
L 244.476829 295.163683 
L 244.741907 295.221341 
L 244.808177 295.159482 
L 244.940716 295.223829 
L 245.603411 295.203583 
L 245.669681 295.286466 
L 245.735951 295.200592 
L 245.934759 295.198276 
L 246.067298 295.300596 
L 246.133568 295.377219 
L 246.332377 294.947285 
L 246.398646 295.213444 
L 246.464916 295.166684 
L 246.729994 295.212086 
L 246.796263 295.285816 
L 246.862533 295.209591 
L 247.26015 295.315208 
L 247.856576 295.315326 
L 248.055385 295.135119 
L 248.121655 295.286084 
L 248.187924 295.20892 
L 248.386733 294.943702 
L 248.453002 294.985725 
L 248.519272 295.263735 
L 248.651811 294.017847 
L 248.78435 279.006492 
L 248.983159 293.60805 
L 249.049428 293.443327 
L 249.115698 293.487717 
L 249.181967 293.624902 
L 249.447046 293.28345 
L 249.513315 293.903691 
L 249.579585 293.86998 
L 249.712124 293.621675 
L 249.910932 294.247949 
L 250.043472 294.431628 
L 250.30855 293.73255 
L 250.441089 294.158439 
L 250.507358 293.953893 
L 250.573628 294.13698 
L 250.706167 293.673626 
L 250.904976 293.952878 
L 250.971245 293.822594 
L 251.236324 294.273105 
L 251.368863 294.194336 
L 251.435132 293.861912 
L 251.501402 293.973213 
L 251.633941 294.143878 
L 251.70021 294.356 
L 251.83275 294.073224 
L 251.899019 294.59479 
L 251.965289 294.296608 
L 252.097828 294.330341 
L 252.296636 294.438577 
L 252.362906 294.105679 
L 252.429176 294.189287 
L 252.561715 294.435247 
L 252.694254 294.177151 
L 252.760523 294.266489 
L 252.959332 294.548314 
L 253.025602 294.61205 
L 253.091871 294.170286 
L 253.158141 294.184111 
L 253.356949 294.49574 
L 253.423219 294.414956 
L 253.489488 294.2647 
L 253.555758 294.577986 
L 253.622028 294.559971 
L 253.688297 294.527629 
L 253.754567 293.98413 
L 253.953375 294.649935 
L 254.019645 294.61257 
L 254.085914 294.257417 
L 254.152184 294.504797 
L 254.218453 294.644094 
L 254.284723 294.595349 
L 254.350993 294.59484 
L 254.549801 294.764638 
L 254.68234 294.57267 
L 254.74861 294.821331 
L 254.814879 294.706823 
L 254.881149 294.63443 
L 254.947419 294.710795 
L 255.013688 294.846876 
L 255.079958 294.813538 
L 255.212497 294.714976 
L 255.345036 294.922984 
L 255.411305 294.741551 
L 255.477575 294.841744 
L 255.610114 294.590863 
L 255.742653 294.897655 
L 255.808923 294.796079 
L 255.875192 294.711157 
L 256.007731 294.977712 
L 256.20654 294.796914 
L 256.471618 294.899703 
L 256.537888 294.713586 
L 256.670427 294.947817 
L 256.802966 294.959886 
L 256.935505 294.911433 
L 257.068044 294.90654 
L 257.134314 294.725019 
L 257.200583 294.844812 
L 257.465662 295.086006 
L 257.531931 294.853857 
L 257.598201 295.001516 
L 257.863279 295.091152 
L 257.929549 295.057276 
L 257.995818 294.829911 
L 258.062088 294.999334 
L 258.194627 295.133526 
L 258.592244 295.21504 
L 261.905722 295.475598 
L 266.544591 295.459969 
L 267.141017 295.485682 
L 268.665216 295.433539 
L 270.719572 295.399429 
L 270.852112 295.384231 
L 271.183459 295.342055 
L 271.581077 295.376525 
L 272.442581 295.338237 
L 272.773929 295.350821 
L 273.701702 295.321376 
L 273.767972 295.466025 
L 273.834241 295.354768 
L 274.03305 295.296169 
L 274.364398 295.344535 
L 274.563207 295.314047 
L 274.762015 295.330895 
L 275.027093 295.336058 
L 275.623519 295.20405 
L 275.888598 295.254008 
L 276.021137 295.330843 
L 276.153676 295.195066 
L 276.286215 295.252906 
L 276.485024 295.159507 
L 276.617563 295.252602 
L 277.412797 295.074691 
L 277.479067 295.196061 
L 277.545337 295.113753 
L 277.744145 294.969993 
L 277.810415 295.089404 
L 277.876684 294.999494 
L 277.942954 295.085436 
L 278.075493 294.321755 
L 278.141763 294.384974 
L 278.274302 295.428079 
L 278.340571 295.278048 
L 278.53938 295.279832 
L 278.671919 295.270755 
L 279.003267 295.155598 
L 279.268345 295.014526 
L 279.467154 295.086783 
L 279.599693 295.075754 
L 279.732232 295.0883 
L 279.864771 295.073653 
L 279.93104 294.980643 
L 279.99731 295.039288 
L 280.196119 295.100413 
L 280.262388 295.209951 
L 280.394927 294.98706 
L 280.726275 295.110456 
L 280.858814 295.132152 
L 281.057623 295.107882 
L 281.256432 295.145341 
L 281.388971 295.124696 
L 281.52151 295.279007 
L 281.587779 295.133489 
L 281.985397 295.211511 
L 282.117936 295.155061 
L 282.316744 295.242645 
L 282.648092 295.142869 
L 282.714362 295.332779 
L 282.780631 295.242108 
L 282.846901 295.279183 
L 282.97944 295.113582 
L 283.310788 295.302034 
L 284.702448 295.275087 
L 284.834987 295.311117 
L 285.033796 295.34445 
L 285.829031 295.287339 
L 285.96157 295.333917 
L 286.292918 295.379369 
L 286.491726 295.274983 
L 286.823074 295.308314 
L 287.088152 295.283967 
L 287.353231 295.27406 
L 288.015926 295.258691 
L 288.148465 295.305653 
L 288.479813 295.273856 
L 288.744891 295.28103 
L 289.076239 295.249618 
L 289.341317 295.209255 
L 289.407587 295.314415 
L 289.473856 295.249236 
L 289.738934 295.275972 
L 290.070282 295.221443 
L 290.600439 295.235111 
L 290.865517 295.284054 
L 291.064326 295.131742 
L 291.395673 295.242853 
L 291.528212 295.154471 
L 291.594482 295.015397 
L 291.660752 295.117568 
L 291.793291 295.212044 
L 291.992099 295.130127 
L 292.124638 295.249036 
L 292.455986 295.139598 
L 292.588525 295.249147 
L 292.787334 295.14838 
L 293.45003 295.235831 
L 293.582569 295.180021 
L 293.781377 295.161679 
L 293.980186 295.234339 
L 294.112725 295.206134 
L 295.636925 295.284954 
L 295.769464 295.30489 
L 295.968273 295.302464 
L 296.167081 295.305527 
L 296.498429 295.375207 
L 297.094855 295.320466 
L 297.558742 295.356862 
L 300.408333 295.360083 
L 300.540872 295.1729 
L 300.80595 295.243785 
L 301.004759 295.271396 
L 301.137298 295.196975 
L 301.336106 295.274844 
L 301.799993 295.233342 
L 301.866263 295.344907 
L 301.932532 295.159601 
L 301.998802 295.194327 
L 302.131341 295.236155 
L 302.396419 295.108678 
L 302.528958 295.274944 
L 302.727767 295.126572 
L 303.125384 295.235429 
L 303.456732 295.069652 
L 303.655541 295.240379 
L 303.78808 295.225627 
L 303.920619 295.208862 
L 304.053158 295.060354 
L 304.251967 295.205496 
L 304.649584 295.105625 
L 304.848393 295.081599 
L 304.914662 295.271426 
L 304.980932 295.235646 
L 305.842436 295.163458 
L 305.908706 295.249974 
L 306.041245 295.12741 
L 306.240053 295.18015 
L 306.306323 295.165353 
L 306.372593 295.023776 
L 306.505132 295.123985 
L 306.969019 295.132481 
L 307.035288 294.140411 
L 307.101558 294.665169 
L 307.167827 294.711188 
L 307.300366 294.486847 
L 307.432905 293.924631 
L 307.565445 294.404137 
L 307.631714 294.364989 
L 307.697984 294.136731 
L 307.963062 295.059036 
L 308.493218 295.25567 
L 308.824566 295.217221 
L 308.890836 295.241279 
L 309.023375 294.987443 
L 309.089644 295.08037 
L 309.222183 295.111152 
L 309.420992 295.006908 
L 309.487262 295.105967 
L 309.553531 295.027552 
L 310.216227 295.194613 
L 310.415035 295.157863 
L 310.878922 295.305694 
L 311.144 295.077588 
L 311.21027 295.027504 
L 311.27654 295.229478 
L 311.342809 295.202714 
L 311.674157 295.162504 
L 312.071774 295.232842 
L 312.204313 295.19168 
L 312.336852 295.244669 
L 312.800739 295.135402 
L 312.999548 295.162063 
L 313.198357 295.221223 
L 313.595974 295.145377 
L 313.861052 295.180531 
L 313.927322 295.103396 
L 313.993591 295.182802 
L 314.324939 295.022802 
L 314.523748 295.199793 
L 314.656287 295.131027 
L 314.722556 295.17661 
L 314.788826 295.082383 
L 314.855095 295.173165 
L 314.987635 295.175982 
L 315.451521 295.090223 
L 315.65033 295.173753 
L 315.915408 295.122897 
L 316.180487 295.078732 
L 316.246756 295.179477 
L 316.313026 295.104008 
L 317.439608 295.149913 
L 317.505878 295.244931 
L 317.572147 295.174826 
L 317.770956 295.161436 
L 318.036034 295.201464 
L 318.102304 295.042031 
L 318.168573 295.104266 
L 318.301112 295.185192 
L 318.764999 295.14951 
L 318.831269 295.22499 
L 318.963808 295.099016 
L 319.361425 295.227519 
L 319.493964 295.073817 
L 319.759042 295.154718 
L 319.891582 295.182184 
L 320.15666 295.057124 
L 320.355468 295.137316 
L 320.554277 295.104874 
L 320.753086 295.092205 
L 321.482051 295.051527 
L 321.68086 294.985689 
L 321.879668 295.178367 
L 322.211016 294.842149 
L 322.277286 294.940631 
L 322.542364 295.091754 
L 322.741172 295.093603 
L 323.006251 295.07828 
L 323.07252 294.956611 
L 323.13879 295.002427 
L 323.337598 295.070384 
L 323.668946 295.071175 
L 323.735216 295.287717 
L 323.801485 295.173385 
L 323.934024 294.994368 
L 324.132833 295.053469 
L 324.464181 295.086606 
L 324.59672 295.111916 
L 325.060607 295.210186 
L 325.193146 295.21112 
L 325.391955 295.147806 
L 325.922111 295.167645 
L 325.988381 295.364567 
L 326.05465 295.263416 
L 326.253459 295.21238 
L 326.584807 295.261732 
L 326.916154 295.248874 
L 327.048693 295.165246 
L 327.247502 295.284126 
L 327.446311 295.263268 
L 327.777659 295.224099 
L 328.109006 295.335256 
L 329.832015 295.219916 
L 330.030823 295.26775 
L 330.362171 295.180927 
L 330.958597 295.249807 
L 331.289945 295.174866 
L 331.356214 295.317637 
L 331.422484 295.245272 
L 331.488754 295.292145 
L 331.621293 295.157643 
L 331.95264 295.247445 
L 332.946684 295.318768 
L 333.079223 295.037215 
L 333.211762 295.222964 
L 333.278032 295.178443 
L 333.410571 295.282038 
L 333.741918 295.158225 
L 333.808188 295.350781 
L 333.874457 295.279632 
L 334.139536 295.247252 
L 334.404614 295.058605 
L 334.537153 295.33961 
L 334.603423 295.259434 
L 334.735962 295.272439 
L 335.00104 295.17052 
L 335.266118 295.222151 
L 335.398657 295.185264 
L 335.796275 295.249304 
L 335.928814 295.089439 
L 335.995083 295.153376 
L 336.127622 294.172307 
L 336.193892 291.429628 
L 336.260161 292.879654 
L 336.392701 294.867617 
L 336.52524 291.355669 
L 336.591509 291.431874 
L 336.657779 291.463125 
L 336.856587 293.060732 
L 337.320474 294.378457 
L 337.386744 294.325562 
L 337.453013 294.582529 
L 337.519283 294.528324 
L 337.9169 295.043197 
L 338.248248 295.29873 
L 338.447057 295.177277 
L 338.513326 295.037916 
L 338.712135 295.188646 
L 338.844674 294.951883 
L 338.910944 294.644492 
L 338.977213 294.666826 
L 339.109752 295.004894 
L 339.308561 294.810934 
L 339.4411 294.958119 
L 339.706178 294.746523 
L 339.838717 294.913124 
L 339.904987 294.778985 
L 340.037526 295.017048 
L 340.302604 294.753146 
L 340.501413 294.896403 
L 340.766491 294.758037 
L 340.832761 294.946889 
L 340.89903 294.871965 
L 341.031569 294.870197 
L 341.164108 295.002424 
L 341.230378 294.929494 
L 341.362917 295.073922 
L 341.495456 295.007527 
L 341.561726 294.893814 
L 341.760534 295.075433 
L 341.826804 295.02543 
L 341.959343 295.15413 
L 342.158152 295.062855 
L 343.284734 295.044807 
L 343.351004 294.979416 
L 343.417273 295.208202 
L 343.483543 295.148221 
L 343.549812 295.178061 
L 343.682352 295.055739 
L 344.146238 295.187162 
L 344.345047 295.132479 
L 344.543856 295.175438 
L 344.676395 295.204405 
L 346.598212 295.268048 
L 346.92956 295.19253 
L 347.260907 295.301441 
L 347.525986 295.209922 
L 348.188681 295.259453 
L 348.38749 295.217135 
L 348.453759 295.314302 
L 348.520029 295.233051 
L 348.652568 295.288687 
L 348.851377 295.17743 
L 349.182724 295.279181 
L 350.839463 295.154774 
L 350.972002 295.303727 
L 351.237081 295.13565 
L 351.36962 295.147141 
L 351.634698 295.233674 
L 352.032315 295.073889 
L 352.098585 295.019264 
L 352.231124 295.153458 
L 352.297394 295.084742 
L 352.363663 295.150966 
L 352.562472 295.178257 
L 353.357706 294.956935 
L 353.423976 295.308261 
L 353.490246 295.249229 
L 353.689054 295.089699 
L 353.755324 295.178889 
L 353.821593 295.113666 
L 353.954132 295.075856 
L 354.086671 295.215485 
L 354.152941 295.079798 
L 354.219211 295.136919 
L 355.412063 295.169636 
L 355.677141 295.181714 
L 355.942219 295.209662 
L 356.008489 295.313015 
L 356.074758 295.22739 
L 356.604915 295.301791 
L 356.936262 295.30711 
L 357.26761 295.338329 
L 357.864036 295.348135 
L 359.918392 295.455819 
L 360.18347 295.425387 
L 360.448549 295.430398 
L 360.647357 295.319092 
L 361.111244 295.398388 
L 361.310053 295.301951 
L 361.575131 295.219539 
L 362.039018 295.323929 
L 362.237827 295.321605 
L 362.569174 295.345355 
L 362.767983 295.375628 
L 362.966792 295.023954 
L 363.099331 295.290561 
L 363.430679 295.364902 
L 363.695757 295.377492 
L 363.894565 295.382088 
L 364.424722 295.280537 
L 364.623531 295.436939 
L 364.6898 295.449593 
L 364.822339 295.278252 
L 364.954878 295.401562 
L 365.087417 295.18683 
L 365.153687 295.231141 
L 365.286226 292.511742 
L 365.352496 288.224749 
L 365.551304 294.834572 
L 365.683843 287.029337 
L 365.750113 287.833975 
L 366.015191 291.249034 
L 366.14773 289.596146 
L 366.214 289.888036 
L 366.412809 293.482963 
L 366.479078 293.389017 
L 366.545348 293.519996 
L 366.744156 295.050419 
L 366.876695 294.988953 
L 367.075504 294.582231 
L 367.208043 294.205624 
L 367.340582 294.444912 
L 367.473121 293.952104 
L 367.67193 294.488352 
L 367.7382 294.345137 
L 367.937008 294.902231 
L 368.069547 294.860016 
L 368.202087 294.755367 
L 368.268356 294.899285 
L 368.334626 294.774433 
L 368.599704 295.083916 
L 368.732243 295.06564 
L 368.997321 294.626717 
L 369.063591 294.904298 
L 369.12986 294.735252 
L 369.527478 294.627708 
L 369.593747 294.776766 
L 369.660017 294.740567 
L 369.858825 294.376656 
L 369.925095 294.654422 
L 369.991364 294.543809 
L 370.322712 294.526217 
L 370.455251 294.481675 
L 370.521521 294.607692 
L 370.58779 294.437339 
L 370.65406 294.535935 
L 370.786599 294.715041 
L 370.985408 294.630491 
L 371.117947 294.402381 
L 371.383025 294.658775 
L 371.449295 294.319508 
L 371.515564 294.385326 
L 371.714373 294.768276 
L 371.913182 294.632175 
L 371.979451 294.747669 
L 372.045721 294.538751 
L 372.11199 294.626877 
L 372.17826 294.7548 
L 372.377068 294.58682 
L 372.443338 294.773971 
L 372.509608 294.658142 
L 372.907225 294.80389 
L 373.039764 294.513371 
L 373.304842 294.926548 
L 373.503651 294.763544 
L 373.63619 294.802417 
L 373.70246 295.014407 
L 373.834999 294.731594 
L 373.967538 294.825459 
L 374.365155 294.742747 
L 374.431425 294.797913 
L 374.497694 294.665628 
L 374.563964 294.735321 
L 374.696503 294.613498 
L 374.829042 294.725546 
L 375.09412 294.666722 
L 375.226659 294.817236 
L 375.359198 294.68644 
L 375.491737 294.843214 
L 375.624277 294.571516 
L 375.889355 294.897813 
L 376.021894 294.852874 
L 376.220703 295.022194 
L 376.55205 294.947427 
L 376.750859 294.872838 
L 376.817129 294.659465 
L 377.015937 295.08906 
L 377.281015 294.924316 
L 377.479824 294.987232 
L 377.678633 294.882271 
L 378.738946 295.003085 
L 378.871485 295.061213 
L 380.329415 295.124566 
L 380.395684 295.004597 
L 380.461954 295.050028 
L 380.660763 295.06483 
L 380.859571 295.022814 
L 381.05838 295.242217 
L 381.389728 295.284699 
L 381.721076 295.185694 
L 381.853615 295.231042 
L 381.919884 295.098894 
L 381.986154 295.155433 
L 382.317502 295.170279 
L 382.58258 295.118414 
L 382.715119 295.244844 
L 382.913928 295.179963 
L 383.046467 295.228258 
L 383.179006 295.154566 
L 383.377814 295.219759 
L 383.510354 295.178581 
L 383.709162 295.275774 
L 383.907971 295.210264 
L 384.371858 295.272698 
L 384.570666 295.20477 
L 384.703205 295.240385 
L 384.835745 295.279634 
L 386.161136 295.325639 
L 386.359944 295.152294 
L 386.625023 295.328608 
L 387.221449 295.325595 
L 387.353988 295.238025 
L 387.486527 295.306692 
L 388.745648 295.191199 
L 388.878187 295.291046 
L 389.209535 295.175411 
L 389.342074 295.220828 
L 390.733735 295.094841 
L 390.866274 295.195939 
L 391.065083 295.18836 
L 391.197622 295.138304 
L 391.330161 295.102316 
L 391.992856 295.047151 
L 392.059126 295.306467 
L 392.125396 295.131256 
L 392.456743 295.153603 
L 392.589282 295.134108 
L 392.788091 295.156497 
L 393.782134 295.362151 
L 393.914673 295.249166 
L 393.980943 295.353222 
L 394.113482 295.075427 
L 394.179752 295.156664 
L 394.246021 294.776158 
L 394.312291 295.202067 
L 394.44483 291.456204 
L 394.511099 287.17112 
L 394.577369 289.308733 
L 394.842447 294.188824 
L 394.908717 294.045576 
L 395.107525 285.884891 
L 395.173795 286.150792 
L 395.306334 291.277559 
L 395.372604 291.190538 
L 395.438873 291.660129 
L 395.505143 290.825352 
L 395.836491 293.400056 
L 395.96903 293.006724 
L 396.035299 293.053719 
L 396.101569 292.976533 
L 396.167838 293.65456 
L 396.234108 293.57683 
L 396.366647 293.609291 
L 396.697995 294.681443 
L 396.830534 294.652782 
L 396.896803 294.382501 
L 397.095612 295.074307 
L 397.294421 295.159818 
L 397.493229 295.109027 
L 397.625769 294.995105 
L 397.758308 294.759754 
L 397.890847 294.932312 
L 398.089655 294.827068 
L 398.222195 295.067217 
L 398.288464 294.905295 
L 398.354734 295.018974 
L 398.487273 295.145254 
L 398.487273 295.145254 
" clip-path="url(#pd247881a4b)" style="fill: none; stroke: #1f77b4; stroke-width: 1.5; stroke-linecap: square"/>
   </g>
   <g id="patch_3">
    <path d="M 57.6 307.584 
L 57.6 41.472 
" style="fill: none; stroke: #000000; stroke-width: 0.8; stroke-linejoin: miter; stroke-linecap: square"/>
   </g>
   <g id="patch_4">
    <path d="M 414.72 307.584 
L 414.72 41.472 
" style="fill: none; stroke: #000000; stroke-width: 0.8; stroke-linejoin: miter; stroke-linecap: square"/>
   </g>
   <g id="patch_5">
    <path d="M 57.6 307.584 
L 414.72 307.584 
" style="fill: none; stroke: #000000; stroke-width: 0.8; stroke-linejoin: miter; stroke-linecap: square"/>
   </g>
   <g id="patch_6">
    <path d="M 57.6 41.472 
L 414.72 41.472 
" style="fill: none; stroke: #000000; stroke-width: 0.8; stroke-linejoin: miter; stroke-linecap: square"/>
   </g>
   <g id="text_18">
    <text style="font: 12px 'IPAexGothic'; text-anchor: middle" x="236.16" y="35.472" transform="rotate(-0 236.16 35.472)">"038_A4.wav"の振幅スペクトル</text>
   </g>
  </g>
 </g>
 <defs>
  <clipPath id="pd247881a4b">
   <rect x="57.6" y="41.472" width="357.12" height="266.112"/>
  </clipPath>
 </defs>
</svg>
