<?xml version="1.0" encoding="utf-8" standalone="no"?>
<!DOCTYPE svg PUBLIC "-//W3C//DTD SVG 1.1//EN"
  "http://www.w3.org/Graphics/SVG/1.1/DTD/svg11.dtd">
<svg xmlns:xlink="http://www.w3.org/1999/xlink" width="460.8pt" height="345.6pt" viewBox="0 0 460.8 345.6" xmlns="http://www.w3.org/2000/svg" version="1.1">
 <metadata>
  <rdf:RDF xmlns:dc="http://purl.org/dc/elements/1.1/" xmlns:cc="http://creativecommons.org/ns#" xmlns:rdf="http://www.w3.org/1999/02/22-rdf-syntax-ns#">
   <cc:Work>
    <dc:type rdf:resource="http://purl.org/dc/dcmitype/StillImage"/>
    <dc:date>2022-11-28T12:33:27.107180</dc:date>
    <dc:format>image/svg+xml</dc:format>
    <dc:creator>
     <cc:Agent>
      <dc:title>Matplotlib v3.6.2, https://matplotlib.org/</dc:title>
     </cc:Agent>
    </dc:creator>
   </cc:Work>
  </rdf:RDF>
 </metadata>
 <defs>
  <style type="text/css">*{stroke-linejoin: round; stroke-linecap: butt}</style>
 </defs>
 <g id="figure_1">
  <g id="patch_1">
   <path d="M 0 345.6 
L 460.8 345.6 
L 460.8 0 
L 0 0 
z
" style="fill: #ffffff"/>
  </g>
  <g id="axes_1">
   <g id="patch_2">
    <path d="M 57.6 307.584 
L 414.72 307.584 
L 414.72 41.472 
L 57.6 41.472 
z
" style="fill: #ffffff"/>
   </g>
   <g id="matplotlib.axis_1">
    <g id="xtick_1">
     <g id="line2d_1">
      <defs>
       <path id="mb14a907574" d="M 0 0 
L 0 3.5 
" style="stroke: #000000; stroke-width: 0.8"/>
      </defs>
      <g>
       <use xlink:href="#mb14a907574" x="73.832727" y="307.584" style="stroke: #000000; stroke-width: 0.8"/>
      </g>
     </g>
     <g id="text_1">
      <text style="font: 10px 'IPAexGothic'; text-anchor: middle" x="73.832727" y="322.074625" transform="rotate(-0 73.832727 322.074625)">0</text>
     </g>
    </g>
    <g id="xtick_2">
     <g id="line2d_2">
      <g>
       <use xlink:href="#mb14a907574" x="140.102281" y="307.584" style="stroke: #000000; stroke-width: 0.8"/>
      </g>
     </g>
     <g id="text_2">
      <text style="font: 10px 'IPAexGothic'; text-anchor: middle" x="140.102281" y="322.074625" transform="rotate(-0 140.102281 322.074625)">1000</text>
     </g>
    </g>
    <g id="xtick_3">
     <g id="line2d_3">
      <g>
       <use xlink:href="#mb14a907574" x="206.371835" y="307.584" style="stroke: #000000; stroke-width: 0.8"/>
      </g>
     </g>
     <g id="text_3">
      <text style="font: 10px 'IPAexGothic'; text-anchor: middle" x="206.371835" y="322.074625" transform="rotate(-0 206.371835 322.074625)">2000</text>
     </g>
    </g>
    <g id="xtick_4">
     <g id="line2d_4">
      <g>
       <use xlink:href="#mb14a907574" x="272.64139" y="307.584" style="stroke: #000000; stroke-width: 0.8"/>
      </g>
     </g>
     <g id="text_4">
      <text style="font: 10px 'IPAexGothic'; text-anchor: middle" x="272.64139" y="322.074625" transform="rotate(-0 272.64139 322.074625)">3000</text>
     </g>
    </g>
    <g id="xtick_5">
     <g id="line2d_5">
      <g>
       <use xlink:href="#mb14a907574" x="338.910944" y="307.584" style="stroke: #000000; stroke-width: 0.8"/>
      </g>
     </g>
     <g id="text_5">
      <text style="font: 10px 'IPAexGothic'; text-anchor: middle" x="338.910944" y="322.074625" transform="rotate(-0 338.910944 322.074625)">4000</text>
     </g>
    </g>
    <g id="xtick_6">
     <g id="line2d_6">
      <g>
       <use xlink:href="#mb14a907574" x="405.180498" y="307.584" style="stroke: #000000; stroke-width: 0.8"/>
      </g>
     </g>
     <g id="text_6">
      <text style="font: 10px 'IPAexGothic'; text-anchor: middle" x="405.180498" y="322.074625" transform="rotate(-0 405.180498 322.074625)">5000</text>
     </g>
    </g>
    <g id="text_7">
     <text style="font: 10px 'IPAexGothic'; text-anchor: middle" x="236.16" y="335.924625" transform="rotate(-0 236.16 335.924625)">周波数[Hz]</text>
    </g>
   </g>
   <g id="matplotlib.axis_2">
    <g id="ytick_1">
     <g id="line2d_7">
      <defs>
       <path id="m8647582fef" d="M 0 0 
L -3.5 0 
" style="stroke: #000000; stroke-width: 0.8"/>
      </defs>
      <g>
       <use xlink:href="#m8647582fef" x="57.6" y="295.514302" style="stroke: #000000; stroke-width: 0.8"/>
      </g>
     </g>
     <g id="text_8">
      <text style="font: 10px 'IPAexGothic'; text-anchor: end" x="50.6" y="299.259615" transform="rotate(-0 50.6 299.259615)">0.0</text>
     </g>
    </g>
    <g id="ytick_2">
     <g id="line2d_8">
      <g>
       <use xlink:href="#m8647582fef" x="57.6" y="244.754254" style="stroke: #000000; stroke-width: 0.8"/>
      </g>
     </g>
     <g id="text_9">
      <text style="font: 10px 'IPAexGothic'; text-anchor: end" x="50.6" y="248.499567" transform="rotate(-0 50.6 248.499567)">0.2</text>
     </g>
    </g>
    <g id="ytick_3">
     <g id="line2d_9">
      <g>
       <use xlink:href="#m8647582fef" x="57.6" y="193.994206" style="stroke: #000000; stroke-width: 0.8"/>
      </g>
     </g>
     <g id="text_10">
      <text style="font: 10px 'IPAexGothic'; text-anchor: end" x="50.6" y="197.739519" transform="rotate(-0 50.6 197.739519)">0.4</text>
     </g>
    </g>
    <g id="ytick_4">
     <g id="line2d_10">
      <g>
       <use xlink:href="#m8647582fef" x="57.6" y="143.234159" style="stroke: #000000; stroke-width: 0.8"/>
      </g>
     </g>
     <g id="text_11">
      <text style="font: 10px 'IPAexGothic'; text-anchor: end" x="50.6" y="146.979471" transform="rotate(-0 50.6 146.979471)">0.6</text>
     </g>
    </g>
    <g id="ytick_5">
     <g id="line2d_11">
      <g>
       <use xlink:href="#m8647582fef" x="57.6" y="92.474111" style="stroke: #000000; stroke-width: 0.8"/>
      </g>
     </g>
     <g id="text_12">
      <text style="font: 10px 'IPAexGothic'; text-anchor: end" x="50.6" y="96.219423" transform="rotate(-0 50.6 96.219423)">0.8</text>
     </g>
    </g>
    <g id="ytick_6">
     <g id="line2d_12">
      <g>
       <use xlink:href="#m8647582fef" x="57.6" y="41.714063" style="stroke: #000000; stroke-width: 0.8"/>
      </g>
     </g>
     <g id="text_13">
      <text style="font: 10px 'IPAexGothic'; text-anchor: end" x="50.6" y="45.459375" transform="rotate(-0 50.6 45.459375)">1.0</text>
     </g>
    </g>
    <g id="text_14">
     <text style="font: 10px 'IPAexGothic'; text-anchor: middle" x="29.460938" y="174.528" transform="rotate(-90 29.460938 174.528)">振幅</text>
    </g>
    <g id="text_15">
     <text style="font: 10px 'IPAexGothic'; text-anchor: start" x="57.6" y="38.472" transform="rotate(-0 57.6 38.472)">1e7</text>
    </g>
   </g>
   <g id="line2d_13">
    <path d="M 73.832727 292.134673 
L 73.965266 295.065629 
L 74.031536 294.92833 
L 74.164075 295.297419 
L 74.429153 294.646477 
L 74.89304 292.469121 
L 75.025579 292.460001 
L 75.158118 293.928806 
L 75.489466 290.137274 
L 75.555736 291.115538 
L 75.754544 288.744391 
L 75.953353 291.115003 
L 76.019623 291.166386 
L 76.218431 291.663281 
L 76.284701 291.670772 
L 76.35097 291.344437 
L 76.549779 289.310939 
L 76.616049 290.022477 
L 76.682318 289.732019 
L 76.881127 290.234833 
L 76.947396 289.553747 
L 77.013666 290.815593 
L 77.079935 289.902909 
L 77.146205 291.272637 
L 77.212475 290.524565 
L 77.345014 289.776835 
L 77.411283 290.983906 
L 77.477553 290.065694 
L 77.543822 290.156664 
L 77.610092 291.371694 
L 77.676361 290.013521 
L 77.742631 290.4563 
L 77.808901 290.2746 
L 77.94144 290.428883 
L 78.007709 290.153933 
L 78.073979 290.19055 
L 78.140248 291.134226 
L 78.206518 290.548982 
L 78.272787 290.512479 
L 78.339057 290.872874 
L 78.471596 290.071687 
L 78.537866 291.168737 
L 78.604135 290.403077 
L 78.670405 290.829265 
L 78.736674 291.41821 
L 78.802944 290.313922 
L 78.935483 291.562558 
L 79.001752 291.479504 
L 79.068022 290.133862 
L 79.134292 291.25644 
L 79.200561 289.928946 
L 79.266831 290.465657 
L 79.3331 291.426877 
L 79.39937 291.046865 
L 79.465639 290.245104 
L 79.531909 292.0351 
L 79.598178 291.933748 
L 79.730718 291.259831 
L 79.796987 291.771635 
L 79.995796 291.105398 
L 80.062065 292.959081 
L 80.128335 290.906927 
L 80.194604 291.973451 
L 80.327144 292.388737 
L 80.393413 291.455312 
L 80.459683 291.73522 
L 80.658491 292.417014 
L 80.8573 292.894616 
L 80.92357 291.968261 
L 81.056109 293.269978 
L 81.188648 292.580968 
L 81.387456 293.790207 
L 81.519996 293.285898 
L 81.586265 293.996847 
L 81.652535 293.439592 
L 81.718804 293.583832 
L 81.917613 294.261351 
L 81.983882 294.010841 
L 82.050152 294.064849 
L 82.116422 294.242841 
L 82.182691 295.043743 
L 82.248961 294.551077 
L 82.514039 295.05387 
L 82.646578 294.823953 
L 82.712848 295.283004 
L 82.779117 295.15816 
L 82.845387 295.097933 
L 82.911656 295.306003 
L 83.044195 295.079699 
L 83.110465 295.168222 
L 83.243004 294.697954 
L 83.375543 294.735844 
L 83.508082 294.646113 
L 83.640621 293.940998 
L 83.706891 294.473292 
L 83.83943 293.288798 
L 83.905699 293.461062 
L 84.170778 291.372879 
L 84.303317 280.178966 
L 84.369586 285.241836 
L 84.502125 290.712602 
L 84.568395 290.686433 
L 84.767204 291.145869 
L 84.899743 292.581016 
L 85.032282 291.099633 
L 85.098551 291.591641 
L 85.164821 292.989576 
L 85.231091 292.424513 
L 85.29736 292.425649 
L 85.36363 291.719458 
L 85.429899 292.1283 
L 85.562438 292.672277 
L 85.694977 291.667614 
L 85.761247 292.863941 
L 85.827517 292.833335 
L 85.960056 291.95423 
L 86.026325 292.254531 
L 86.092595 291.972748 
L 86.158864 291.19122 
L 86.291403 293.262104 
L 86.357673 292.464059 
L 86.423943 290.913478 
L 86.490212 291.596201 
L 86.556482 292.695566 
L 86.622751 291.188989 
L 86.689021 291.374502 
L 86.887829 291.901239 
L 86.954099 291.694441 
L 87.152908 289.163869 
L 87.285447 291.305624 
L 87.351716 290.650649 
L 87.417986 288.968342 
L 87.484255 290.313848 
L 87.550525 290.262641 
L 87.616795 290.266443 
L 87.815603 286.829276 
L 87.881873 285.191246 
L 87.948142 285.577358 
L 88.014412 285.74937 
L 88.146951 282.699101 
L 88.34576 267.51827 
L 88.412029 53.568 
L 88.544568 270.345475 
L 88.610838 258.656113 
L 88.677107 265.957705 
L 89.008455 285.059922 
L 89.074725 282.526219 
L 89.140994 282.535171 
L 89.207264 282.891569 
L 89.406072 288.619227 
L 89.538612 285.686842 
L 89.73742 289.551631 
L 89.80369 289.663074 
L 89.869959 288.876874 
L 90.002498 290.615853 
L 90.068768 290.247493 
L 90.135038 289.093911 
L 90.333846 292.101521 
L 90.665194 290.464483 
L 90.797733 288.605405 
L 90.930272 292.668848 
L 91.19535 290.095399 
L 91.26162 290.033151 
L 91.394159 289.075519 
L 91.592968 290.894951 
L 91.725507 288.214457 
L 91.791776 288.326878 
L 91.858046 289.324057 
L 91.924316 288.281697 
L 92.056855 289.208822 
L 92.123124 288.480086 
L 92.189394 289.036013 
L 92.255663 288.81757 
L 92.321933 289.163953 
L 92.388202 288.019498 
L 92.454472 288.633998 
L 92.520742 289.010186 
L 92.587011 287.633821 
L 92.653281 288.786692 
L 92.71955 288.079162 
L 92.78582 288.037314 
L 92.852089 289.51791 
L 92.918359 287.743849 
L 92.984628 288.177535 
L 93.050898 289.346927 
L 93.117168 287.733224 
L 93.183437 288.25516 
L 93.249707 288.369886 
L 93.382246 286.307091 
L 93.581054 289.933038 
L 93.647324 289.487515 
L 93.846133 286.793661 
L 94.044941 288.77952 
L 94.111211 290.563084 
L 94.24375 286.56691 
L 94.310019 286.856953 
L 94.508828 290.049783 
L 94.707637 285.236407 
L 94.773906 285.542473 
L 94.972715 290.553871 
L 95.038985 290.23527 
L 95.237793 288.081781 
L 95.370332 291.719396 
L 95.569141 291.130484 
L 95.635411 291.824808 
L 95.70168 291.275217 
L 95.76795 292.270808 
L 95.834219 292.146339 
L 95.900489 292.180159 
L 96.033028 291.054718 
L 96.099297 292.964592 
L 96.165567 292.800951 
L 96.364376 292.241629 
L 96.430645 292.42261 
L 96.496915 293.603861 
L 96.563184 293.435277 
L 96.629454 292.697316 
L 96.761993 293.764435 
L 96.894532 292.689808 
L 97.093341 293.798044 
L 97.22588 293.093213 
L 97.358419 293.886518 
L 97.424689 293.430115 
L 97.490958 293.499346 
L 97.557228 293.46646 
L 97.623497 293.155464 
L 97.689767 293.300393 
L 97.822306 293.759842 
L 97.954845 293.261798 
L 98.087384 293.223946 
L 98.219923 292.679637 
L 98.485001 293.851597 
L 98.551271 292.640328 
L 98.61754 293.135212 
L 98.68381 292.453716 
L 98.75008 293.158516 
L 98.882619 291.748836 
L 98.948888 292.557674 
L 99.015158 291.795905 
L 99.213966 292.997061 
L 99.346506 291.988932 
L 99.479045 292.70497 
L 99.545314 292.54694 
L 99.611584 291.737735 
L 99.744123 292.834129 
L 99.942932 290.831309 
L 100.009201 291.592017 
L 100.075471 290.872582 
L 100.14174 291.01736 
L 100.20801 290.975431 
L 100.274279 290.412829 
L 100.340549 292.375496 
L 100.406818 291.453366 
L 100.473088 291.577106 
L 100.671897 290.180625 
L 100.738166 289.977389 
L 100.936975 291.280072 
L 101.003244 290.299566 
L 101.069514 290.934132 
L 101.202053 289.6096 
L 101.268323 289.711164 
L 101.334592 290.509763 
L 101.400862 290.23948 
L 101.73221 287.512802 
L 101.798479 289.287587 
L 101.864749 287.322562 
L 101.931018 289.958787 
L 101.997288 286.631693 
L 102.063557 287.349747 
L 102.129827 287.58114 
L 102.328636 284.09693 
L 102.461175 285.092764 
L 102.858792 272.342006 
L 102.925062 255.772929 
L 102.991331 94.14493 
L 103.057601 169.544644 
L 103.256409 261.205319 
L 103.322679 268.172508 
L 103.388948 266.256275 
L 103.455218 262.825501 
L 103.720296 281.659158 
L 103.786566 281.67061 
L 103.852835 281.988504 
L 103.919105 283.972284 
L 103.985374 282.890369 
L 104.051644 284.144899 
L 104.117913 287.808152 
L 104.184183 282.445038 
L 104.250453 284.46217 
L 104.382992 286.760082 
L 104.515531 283.838509 
L 104.64807 279.536728 
L 104.913148 289.594373 
L 104.979418 289.635701 
L 105.244496 275.92978 
L 105.642113 281.115618 
L 105.840922 283.019749 
L 105.907191 280.645273 
L 106.039731 268.653483 
L 106.17227 281.067663 
L 106.304809 275.806772 
L 106.371078 265.383486 
L 106.437348 269.460457 
L 106.569887 278.434275 
L 106.636157 277.055934 
L 106.702426 278.469851 
L 106.768696 284.13728 
L 106.834965 280.576376 
L 107.033774 274.785231 
L 107.100043 274.905862 
L 107.298852 276.785851 
L 107.431391 281.721955 
L 107.6302 278.40584 
L 107.762739 267.233436 
L 107.961548 283.964962 
L 108.094087 278.849608 
L 108.160356 281.667969 
L 108.226626 278.039928 
L 108.292895 279.991912 
L 108.425435 278.622161 
L 108.690513 284.719105 
L 108.756782 284.621363 
L 108.823052 286.379446 
L 109.08813 278.070596 
L 109.1544 284.234957 
L 109.220669 280.494407 
L 109.286939 285.436018 
L 109.353208 283.300833 
L 109.419478 286.86185 
L 109.485747 284.060757 
L 109.552017 287.16613 
L 109.618286 286.549012 
L 109.684556 284.763466 
L 109.750826 285.469377 
L 109.817095 288.860624 
L 109.883365 286.794287 
L 109.949634 286.084521 
L 110.015904 288.966688 
L 110.082173 285.871065 
L 110.148443 286.140997 
L 110.214712 286.13633 
L 110.347252 288.460752 
L 110.479791 287.155196 
L 110.61233 289.153882 
L 110.678599 287.914338 
L 110.744869 288.995208 
L 110.811138 288.107976 
L 110.943678 289.62991 
L 111.009947 289.365945 
L 111.076217 288.386138 
L 111.142486 288.516818 
L 111.208756 288.481216 
L 111.275025 290.309229 
L 111.341295 289.23416 
L 111.407564 289.129169 
L 111.540104 290.991348 
L 111.672643 288.703239 
L 111.738912 291.552923 
L 111.805182 291.231259 
L 111.937721 290.115593 
L 112.13653 291.603533 
L 112.202799 291.443775 
L 112.269069 290.622948 
L 112.335338 290.873491 
L 112.401608 291.460922 
L 112.467877 290.763361 
L 112.534147 290.866349 
L 112.732956 290.69419 
L 112.865495 292.480535 
L 112.931764 291.982779 
L 112.998034 292.66405 
L 113.064303 292.578406 
L 113.196842 291.250895 
L 113.263112 291.687334 
L 113.329382 290.768826 
L 113.461921 291.756688 
L 113.59446 291.168815 
L 113.726999 292.093133 
L 113.793268 291.54436 
L 113.859538 291.614812 
L 113.992077 292.240044 
L 114.058347 292.275557 
L 114.124616 292.721934 
L 114.323425 291.441452 
L 114.389694 292.118298 
L 114.455964 291.430139 
L 114.522233 291.643647 
L 114.654773 292.336315 
L 114.853581 290.587439 
L 114.98612 292.855112 
L 115.05239 292.383183 
L 115.251199 291.305051 
L 115.317468 291.997439 
L 115.383738 291.36974 
L 115.450007 291.842524 
L 115.516277 291.815808 
L 115.648816 291.399664 
L 115.847625 293.460602 
L 115.913894 293.577179 
L 116.245242 291.725743 
L 116.311511 292.304219 
L 116.377781 291.44805 
L 116.444051 291.571926 
L 116.51032 292.01601 
L 116.642859 291.028198 
L 116.709129 291.703733 
L 116.775398 291.687894 
L 116.841668 291.186995 
L 116.907937 291.420208 
L 116.974207 291.26347 
L 117.106746 289.878591 
L 117.173016 291.244612 
L 117.438094 281.382144 
L 117.504363 256.434433 
L 117.636903 112.095569 
L 117.769442 239.439237 
L 117.96825 279.559486 
L 118.03452 280.740808 
L 118.100789 280.09604 
L 118.167059 280.121514 
L 118.233329 269.193757 
L 118.365868 282.922651 
L 118.432137 277.662936 
L 118.564676 282.870473 
L 118.630946 279.660124 
L 118.697215 284.86322 
L 118.763485 283.099053 
L 119.094833 273.372797 
L 119.161102 281.681707 
L 119.227372 277.961552 
L 119.293641 283.564758 
L 119.42618 276.621783 
L 119.49245 277.929874 
L 119.55872 277.04026 
L 119.691259 280.630687 
L 119.757528 275.701631 
L 119.823798 277.815482 
L 119.890067 275.638517 
L 119.956337 276.032266 
L 120.022606 280.883776 
L 120.088876 279.884303 
L 120.221415 277.143419 
L 120.287685 281.143229 
L 120.420224 276.940789 
L 120.486493 277.563686 
L 120.552763 280.799209 
L 120.619032 280.394884 
L 120.685302 281.802113 
L 120.751572 277.911626 
L 120.817841 281.966531 
L 120.884111 280.075898 
L 121.01665 282.293328 
L 121.082919 284.089912 
L 121.215458 278.875389 
L 121.414267 284.491874 
L 121.480537 281.614249 
L 121.546806 283.119238 
L 121.613076 282.060804 
L 121.679345 282.552479 
L 121.944424 287.155626 
L 122.010693 281.44414 
L 122.076963 283.59535 
L 122.209502 282.007642 
L 122.342041 287.112773 
L 122.47458 283.993581 
L 122.607119 284.067764 
L 122.673389 286.588488 
L 122.805928 281.827811 
L 122.938467 286.758429 
L 123.004736 287.032805 
L 123.071006 284.07394 
L 123.137276 284.366187 
L 123.203545 286.497233 
L 123.269815 285.40157 
L 123.336084 283.874427 
L 123.468623 287.53493 
L 123.534893 283.848459 
L 123.601162 283.919462 
L 123.799971 288.257234 
L 123.866241 283.376017 
L 123.93251 284.748933 
L 123.99878 286.0686 
L 124.065049 283.334517 
L 124.131319 286.317803 
L 124.197588 283.272781 
L 124.263858 284.799146 
L 124.595206 287.829115 
L 124.661475 287.983503 
L 124.794014 280.104092 
L 124.860284 283.762231 
L 125.125362 288.239886 
L 125.39044 283.570257 
L 125.45671 288.100452 
L 125.522979 287.087691 
L 125.589249 285.254618 
L 125.721788 288.841495 
L 125.788058 288.054355 
L 125.920597 286.496051 
L 125.986866 286.629954 
L 126.053136 286.579322 
L 126.119405 288.178763 
L 126.185675 287.5189 
L 126.251945 287.68353 
L 126.318214 287.560048 
L 126.384484 288.413769 
L 126.450753 287.19358 
L 126.583292 289.585057 
L 126.715831 287.267915 
L 126.782101 287.730183 
L 126.848371 288.02787 
L 126.91464 289.73659 
L 126.98091 289.637214 
L 127.047179 288.34132 
L 127.113449 289.7245 
L 127.179718 288.961924 
L 127.312257 290.288648 
L 127.378527 287.560862 
L 127.444797 288.552603 
L 127.577336 290.34163 
L 127.643605 289.486729 
L 127.776144 291.470143 
L 127.842414 291.180832 
L 127.974953 290.802161 
L 128.041223 290.523197 
L 128.107492 290.62261 
L 128.173762 292.334292 
L 128.240031 291.896798 
L 128.43884 291.505387 
L 128.505109 292.71289 
L 128.571379 292.162412 
L 128.637648 292.935288 
L 128.703918 292.792158 
L 128.770188 291.929544 
L 128.836457 292.11253 
L 128.968996 293.211 
L 129.035266 292.920947 
L 129.167805 292.204059 
L 129.300344 293.277335 
L 129.366614 293.332973 
L 129.432883 293.041437 
L 129.499153 293.472684 
L 129.631692 292.727628 
L 129.697961 292.851726 
L 129.764231 293.729108 
L 129.8305 292.838054 
L 129.89677 293.239274 
L 130.029309 294.421392 
L 130.095579 293.06199 
L 130.161848 293.173205 
L 130.360657 294.297029 
L 130.426926 294.165016 
L 130.493196 293.83403 
L 130.559466 294.344077 
L 130.625735 293.977554 
L 130.758274 294.840184 
L 130.824544 294.98379 
L 130.957083 294.801601 
L 131.155892 295.365283 
L 131.222161 295.270971 
L 131.288431 294.810712 
L 131.3547 294.879797 
L 131.42097 294.947869 
L 131.487239 295.249379 
L 131.553509 293.667262 
L 131.619778 293.73231 
L 131.686048 294.31144 
L 131.884857 290.553872 
L 131.951126 290.910185 
L 132.083665 272.117439 
L 132.149935 248.265993 
L 132.216204 106.673691 
L 132.348744 266.521597 
L 132.481283 281.09798 
L 132.547552 275.308837 
L 132.613822 276.888838 
L 132.680091 281.235812 
L 132.746361 276.74616 
L 132.8789 283.788081 
L 132.94517 284.045812 
L 133.077709 280.572178 
L 133.276517 284.956717 
L 133.342787 285.177017 
L 133.409056 287.705737 
L 133.475326 286.791158 
L 133.541596 285.724337 
L 133.674135 288.455179 
L 133.740404 288.897121 
L 133.872943 287.785689 
L 133.939213 289.983762 
L 134.005482 289.323254 
L 134.071752 288.645966 
L 134.204291 289.731348 
L 134.270561 288.780024 
L 134.4031 292.844128 
L 134.469369 292.637044 
L 134.535639 292.029818 
L 134.800717 294.323779 
L 134.866987 294.011977 
L 134.933256 294.184137 
L 134.999526 293.966327 
L 135.065795 294.093149 
L 135.198334 294.754592 
L 135.264604 294.544076 
L 135.330873 294.702661 
L 135.463413 294.702391 
L 135.86103 293.744408 
L 135.927299 293.671144 
L 136.126108 294.184451 
L 136.192378 293.952319 
L 136.258647 294.020127 
L 136.324917 291.190375 
L 136.391186 292.805289 
L 136.457456 292.942029 
L 136.523725 292.624905 
L 136.589995 292.825526 
L 136.722534 293.013798 
L 136.788804 292.878992 
L 136.855073 293.127044 
L 136.921343 294.000616 
L 136.987612 293.772934 
L 137.120151 293.832779 
L 137.31896 292.83328 
L 137.451499 292.153556 
L 137.517769 291.493834 
L 137.650308 293.181036 
L 137.716577 292.778639 
L 137.849117 291.672813 
L 137.981656 293.072237 
L 138.047925 292.331381 
L 138.114195 293.410464 
L 138.180464 292.929709 
L 138.379273 290.968848 
L 138.445543 291.881551 
L 138.511812 291.859967 
L 138.644351 292.310219 
L 138.84316 291.358047 
L 138.975699 289.512995 
L 139.041968 292.362654 
L 139.108238 291.347223 
L 139.174508 292.045859 
L 139.307047 291.038097 
L 139.373316 291.144919 
L 139.439586 291.952539 
L 139.638394 290.223885 
L 139.837203 291.519917 
L 139.903473 290.286329 
L 140.036012 291.527405 
L 140.102281 290.365636 
L 140.168551 291.447997 
L 140.23482 290.835214 
L 140.30109 289.874152 
L 140.433629 292.399779 
L 140.499899 291.469635 
L 140.632438 290.576076 
L 140.831246 291.959365 
L 140.897516 291.85275 
L 140.963786 290.903575 
L 141.030055 292.106512 
L 141.162594 291.163661 
L 141.228864 291.998326 
L 141.295133 291.414932 
L 141.361403 291.493101 
L 141.626481 293.662961 
L 141.692751 291.685457 
L 141.75902 291.708953 
L 141.82529 291.556623 
L 141.891559 292.41681 
L 141.957829 291.642522 
L 142.090368 293.554675 
L 142.156638 293.39977 
L 142.289177 292.801018 
L 142.355446 292.839168 
L 142.421716 292.799384 
L 142.554255 293.576032 
L 142.620524 293.192335 
L 142.885603 294.046961 
L 142.951872 293.996479 
L 143.018142 294.177521 
L 143.084411 293.268645 
L 143.21695 294.18615 
L 143.28322 294.097375 
L 143.34949 294.40633 
L 143.482029 293.75724 
L 143.614568 294.660627 
L 143.680837 294.650117 
L 143.813376 294.737667 
L 143.879646 294.450564 
L 143.945915 294.544798 
L 144.012185 294.687893 
L 144.078455 294.594013 
L 144.144724 294.602924 
L 144.210994 294.74831 
L 144.277263 294.706465 
L 144.343533 294.554325 
L 144.409802 294.600519 
L 144.476072 294.851899 
L 144.542341 294.655636 
L 144.608611 294.734257 
L 144.674881 295.073274 
L 144.74115 294.564112 
L 144.80742 294.791861 
L 144.873689 294.703961 
L 144.939959 294.768861 
L 145.735193 294.56909 
L 145.801463 294.835661 
L 145.867733 294.703477 
L 146.000272 294.913541 
L 146.066541 294.731917 
L 146.26535 294.46723 
L 146.662967 288.940801 
L 146.729237 284.558281 
L 146.795506 208.700532 
L 146.861776 271.382445 
L 146.928045 266.400235 
L 147.126854 282.233539 
L 147.325663 283.804707 
L 147.458202 288.485641 
L 147.524471 288.025395 
L 147.78955 291.157363 
L 147.855819 291.006445 
L 148.054628 293.162505 
L 148.120897 293.221691 
L 148.253437 292.825981 
L 148.319706 293.462825 
L 148.385976 293.035545 
L 148.452245 292.552463 
L 148.518515 293.140636 
L 148.584784 292.822162 
L 148.651054 292.69767 
L 148.717323 292.263695 
L 148.783593 293.301712 
L 148.849862 293.287841 
L 148.982402 292.078846 
L 149.048671 292.093999 
L 149.313749 292.708599 
L 149.446288 291.710405 
L 149.512558 291.761599 
L 149.578828 291.081555 
L 149.645097 292.687393 
L 149.711367 292.035584 
L 149.910175 291.388658 
L 150.042714 291.861825 
L 150.108984 292.753247 
L 150.307793 291.366751 
L 150.374062 292.564295 
L 150.440332 291.679741 
L 150.506601 291.810681 
L 150.572871 292.910875 
L 150.70541 291.863571 
L 150.837949 292.644942 
L 150.904219 291.866692 
L 151.036758 292.870867 
L 151.235566 292.30205 
L 151.368106 293.173232 
L 151.434375 293.141088 
L 151.500645 292.525708 
L 151.633184 293.582445 
L 151.765723 293.123239 
L 151.831992 293.639196 
L 151.898262 293.333866 
L 152.097071 293.866726 
L 152.295879 293.357703 
L 152.428418 294.303144 
L 152.560958 294.239684 
L 152.693497 294.046167 
L 152.759766 294.340167 
L 152.826036 294.16027 
L 152.958575 293.921707 
L 153.024844 294.32691 
L 153.091114 294.312641 
L 153.157384 294.335757 
L 153.223653 294.231555 
L 153.289923 294.410281 
L 153.488731 294.059216 
L 153.555001 294.599899 
L 153.62127 294.410312 
L 153.753809 294.12179 
L 153.886349 294.401274 
L 153.952618 294.154115 
L 154.018888 294.311312 
L 154.085157 294.431458 
L 154.151427 294.126307 
L 154.217696 294.237815 
L 154.350235 294.21264 
L 154.416505 294.046717 
L 154.482775 294.346201 
L 154.549044 294.095562 
L 154.615314 294.362436 
L 154.747853 293.989765 
L 154.814122 294.086964 
L 154.880392 294.00374 
L 155.012931 294.353605 
L 155.079201 293.893082 
L 155.14547 294.127793 
L 155.21174 294.57907 
L 155.278009 293.474023 
L 155.344279 293.485694 
L 155.543087 294.202472 
L 155.609357 294.151462 
L 155.741896 294.37514 
L 155.874435 294.079176 
L 155.940705 293.554409 
L 156.006974 293.697443 
L 156.272053 294.417744 
L 156.6034 293.616968 
L 156.66967 294.461173 
L 156.735939 294.038208 
L 156.802209 294.455726 
L 156.868479 294.229094 
L 157.067287 293.929951 
L 157.133557 294.236301 
L 157.199826 294.088644 
L 157.266096 294.096199 
L 157.398635 294.278872 
L 157.464905 293.917963 
L 157.531174 294.10638 
L 157.597444 294.247624 
L 157.729983 293.988664 
L 157.862522 294.398 
L 157.928791 294.126078 
L 157.995061 294.353877 
L 158.1276 294.110855 
L 158.19387 294.465045 
L 158.260139 294.343183 
L 158.392678 294.037597 
L 158.657756 294.52455 
L 158.724026 294.370517 
L 158.790296 294.347493 
L 158.856565 294.452704 
L 158.922835 294.360399 
L 158.989104 294.3465 
L 159.121643 294.511669 
L 159.187913 294.42319 
L 159.254182 294.493992 
L 159.320452 294.781717 
L 159.386722 294.311493 
L 159.452991 294.55525 
L 159.519261 294.395877 
L 159.58553 294.524374 
L 159.6518 294.533078 
L 159.718069 294.362168 
L 159.784339 294.770359 
L 159.850608 294.635754 
L 159.983148 294.441832 
L 160.049417 294.563498 
L 160.115687 294.278411 
L 160.181956 294.432335 
L 160.314495 294.183846 
L 160.380765 294.242426 
L 160.579574 294.414189 
L 160.645843 294.527919 
L 160.712113 294.143171 
L 160.778382 294.331545 
L 160.844652 294.346626 
L 160.977191 293.963922 
L 161.04346 294.411652 
L 161.10973 294.363591 
L 161.308539 294.002143 
L 161.374808 287.06189 
L 161.441078 290.456523 
L 161.507347 290.490767 
L 161.838695 293.548124 
L 161.971234 294.130145 
L 162.037504 293.90385 
L 162.103773 293.967289 
L 162.302582 294.576743 
L 162.368852 294.504033 
L 162.501391 294.692377 
L 162.56766 294.546662 
L 162.63393 294.08162 
L 162.700199 294.397015 
L 162.766469 294.630881 
L 162.832738 294.295714 
L 162.965278 294.916356 
L 163.097817 294.723857 
L 163.230356 295.207119 
L 163.362895 295.220116 
L 163.429164 295.408076 
L 163.495434 295.175125 
L 163.561704 295.341107 
L 163.760512 295.322684 
L 164.224399 295.162367 
L 164.489477 294.843958 
L 164.555747 294.986841 
L 164.622016 294.898531 
L 164.688286 294.724991 
L 164.820825 294.91929 
L 164.887095 294.957573 
L 165.085903 294.640943 
L 165.218442 294.713954 
L 165.483521 294.582072 
L 165.54979 294.27836 
L 165.61606 294.544081 
L 165.682329 294.483306 
L 165.748599 294.462008 
L 165.881138 294.76093 
L 166.013677 293.958507 
L 166.079947 294.358679 
L 166.146216 294.029824 
L 166.278755 294.496387 
L 166.477564 294.361556 
L 166.610103 293.509414 
L 166.742642 294.556501 
L 166.808912 294.475732 
L 166.875181 294.501345 
L 167.07399 293.980781 
L 167.140259 294.071426 
L 167.206529 294.140548 
L 167.272799 293.971875 
L 167.339068 294.346303 
L 167.405338 294.147228 
L 167.471607 294.299343 
L 167.537877 294.732285 
L 167.670416 293.765439 
L 167.869225 294.206883 
L 168.001764 294.021352 
L 168.068033 294.094919 
L 168.333111 294.33867 
L 168.399381 293.855936 
L 168.465651 293.923479 
L 168.730729 294.264453 
L 169.128346 293.835329 
L 169.194616 294.007922 
L 169.260885 294.609233 
L 169.327155 294.233708 
L 169.459694 293.911 
L 169.525963 293.956516 
L 169.857311 294.371215 
L 170.05612 294.612208 
L 170.188659 293.64735 
L 170.321198 294.285265 
L 170.387468 293.863499 
L 170.453737 293.946327 
L 170.520007 293.933297 
L 170.718815 294.580432 
L 170.851354 294.322146 
L 170.917624 294.608044 
L 170.983894 294.451672 
L 171.248972 294.139686 
L 171.381511 294.146655 
L 171.51405 294.675753 
L 171.58032 294.47416 
L 171.646589 294.256189 
L 171.712859 294.359236 
L 171.779128 294.284097 
L 171.845398 294.35037 
L 171.911667 294.606031 
L 171.977937 294.516977 
L 172.044206 294.378081 
L 172.110476 294.624753 
L 172.243015 294.399226 
L 172.309285 294.368985 
L 172.375554 294.626131 
L 172.441824 294.514558 
L 172.508093 294.69247 
L 172.640632 294.396008 
L 172.905711 294.772686 
L 172.97198 294.615751 
L 173.104519 294.22205 
L 173.303328 294.856547 
L 173.435867 294.810125 
L 173.700945 294.607967 
L 173.767215 294.631387 
L 173.833484 294.958333 
L 173.899754 294.764438 
L 174.032293 294.845482 
L 174.164832 295.09991 
L 174.297371 294.82568 
L 174.363641 294.962732 
L 174.42991 294.753641 
L 174.628719 295.007128 
L 174.893797 295.079726 
L 175.291415 294.938016 
L 175.357684 294.72556 
L 175.423954 294.797425 
L 175.490223 294.842448 
L 175.556493 294.521498 
L 175.622762 294.577438 
L 175.689032 294.751704 
L 175.821571 294.14877 
L 175.887841 294.195439 
L 175.95411 285.505143 
L 176.02038 288.711453 
L 176.086649 292.033204 
L 176.152919 291.847927 
L 176.285458 291.299417 
L 176.616806 292.928355 
L 176.815614 292.536748 
L 177.014423 293.86719 
L 177.080693 293.258944 
L 177.213232 294.177801 
L 177.279501 294.091789 
L 177.41204 293.976187 
L 177.610849 294.740553 
L 178.074736 295.24647 
L 178.273545 295.312575 
L 178.339814 295.018106 
L 178.406084 295.088868 
L 178.604892 294.859547 
L 178.671162 294.906122 
L 178.86997 294.459023 
L 178.93624 294.564265 
L 179.00251 294.651448 
L 179.068779 294.597748 
L 179.201318 293.993072 
L 179.267588 294.184335 
L 179.466396 294.32349 
L 179.532666 294.368572 
L 179.598936 294.27383 
L 179.665205 293.868644 
L 179.731475 294.04752 
L 179.797744 294.045613 
L 179.864014 293.457382 
L 179.930283 293.831848 
L 179.996553 293.643383 
L 180.129092 294.166577 
L 180.195362 294.061678 
L 180.261631 293.675177 
L 180.327901 293.73666 
L 180.46044 294.203565 
L 180.526709 293.781737 
L 180.592979 293.892458 
L 180.659248 294.1426 
L 180.725518 293.758745 
L 180.791788 293.865668 
L 180.858057 294.04667 
L 180.924327 293.599662 
L 180.990596 293.743596 
L 181.056866 293.635897 
L 181.255674 294.352202 
L 181.388214 294.216084 
L 181.587022 293.905342 
L 181.719561 294.445443 
L 181.785831 294.225635 
L 181.8521 294.506784 
L 181.91837 294.298155 
L 182.050909 294.695665 
L 182.249718 294.481379 
L 182.382257 294.688456 
L 182.448526 295.002848 
L 182.514796 294.919133 
L 182.846144 294.953489 
L 182.912413 295.10764 
L 182.978683 295.040209 
L 183.773917 295.010737 
L 183.840187 294.874627 
L 183.906457 294.988298 
L 184.237804 294.812473 
L 184.304074 295.030921 
L 184.370343 294.724701 
L 184.436613 294.862141 
L 184.502883 294.909231 
L 184.569152 294.708512 
L 184.635422 294.831271 
L 184.701691 294.83229 
L 184.767961 294.698462 
L 184.83423 294.817451 
L 184.9005 294.556948 
L 184.966769 294.693064 
L 185.033039 294.835852 
L 185.099309 294.776652 
L 185.165578 294.709732 
L 185.298117 294.825049 
L 185.364387 294.828898 
L 185.563195 294.48777 
L 185.629465 294.542028 
L 185.828274 294.864549 
L 186.159621 294.50514 
L 186.225891 294.588109 
L 186.292161 295.037416 
L 186.35843 294.695936 
L 186.4247 294.854381 
L 186.557239 294.590873 
L 186.888587 294.781788 
L 187.087395 294.819639 
L 187.153665 294.57007 
L 187.219934 294.598314 
L 187.286204 294.535799 
L 187.352473 294.74305 
L 187.418743 294.591563 
L 187.551282 294.824074 
L 187.750091 294.701287 
L 187.81636 295.046986 
L 187.88263 294.540435 
L 187.948899 294.670294 
L 188.147708 294.966688 
L 188.346517 294.741069 
L 188.412786 294.795435 
L 188.479056 294.476549 
L 188.545325 294.816777 
L 188.611595 294.574208 
L 188.744134 294.856118 
L 188.942943 294.398088 
L 189.141751 294.793129 
L 189.34056 293.964834 
L 189.473099 294.754539 
L 189.804447 294.275211 
L 189.870716 294.633911 
L 189.936986 294.473615 
L 190.135795 294.296327 
L 190.334603 294.724536 
L 190.400873 295.098335 
L 190.467142 294.959216 
L 190.533412 293.772078 
L 190.599682 290.205129 
L 190.665951 295.288668 
L 190.732221 293.399557 
L 190.86476 290.949005 
L 191.063568 293.683003 
L 191.129838 293.42096 
L 191.328647 292.376088 
L 191.461186 293.229007 
L 191.527455 292.396402 
L 191.593725 292.526431 
L 191.659994 292.978905 
L 191.726264 292.694245 
L 191.858803 293.408335 
L 191.925073 293.025649 
L 192.123881 293.866431 
L 192.25642 293.433291 
L 192.32269 293.593586 
L 192.38896 294.046673 
L 192.455229 293.996945 
L 192.521499 293.941146 
L 192.587768 294.426629 
L 192.654038 294.279373 
L 192.786577 294.571754 
L 192.919116 294.618329 
L 193.117925 294.922122 
L 193.316733 294.607643 
L 193.383003 294.720319 
L 193.449272 294.427468 
L 193.648081 294.786834 
L 193.78062 294.263555 
L 193.84689 294.335074 
L 193.913159 294.427803 
L 193.979429 294.360833 
L 194.111968 294.474709 
L 194.377046 294.470054 
L 194.575855 294.056435 
L 194.642124 294.323982 
L 194.708394 294.067517 
L 194.774663 294.330231 
L 194.840933 294.166532 
L 194.973472 294.186886 
L 195.039742 294.585504 
L 195.106011 294.34663 
L 195.172281 294.544732 
L 195.30482 294.052767 
L 195.437359 294.27798 
L 195.503629 294.252527 
L 195.636168 294.624347 
L 195.768707 294.159956 
L 195.901246 294.35541 
L 195.967515 294.349828 
L 196.100055 294.587851 
L 196.497672 294.359036 
L 196.630211 294.67946 
L 196.696481 294.621959 
L 196.895289 294.883521 
L 197.094098 294.507914 
L 197.226637 294.425074 
L 197.491715 294.88446 
L 198.088141 294.884561 
L 198.353219 294.914291 
L 198.485759 294.823893 
L 198.618298 295.029559 
L 198.817106 294.485063 
L 198.949645 295.122226 
L 199.546071 294.961433 
L 199.67861 295.087379 
L 199.74488 294.945566 
L 199.81115 295.124389 
L 199.877419 295.034238 
L 199.943689 294.9085 
L 200.009958 294.993207 
L 200.076228 294.913888 
L 200.208767 295.061548 
L 200.540115 294.649457 
L 200.606384 294.948296 
L 200.672654 294.919833 
L 200.871462 295.064199 
L 201.20281 294.77245 
L 201.401619 295.023531 
L 201.600428 294.774904 
L 201.732967 294.830742 
L 201.865506 294.920582 
L 201.931775 294.721713 
L 201.998045 294.871723 
L 202.528201 294.765039 
L 202.594471 294.914793 
L 202.79328 294.461195 
L 202.925819 294.717884 
L 203.389706 294.644971 
L 203.455975 294.705716 
L 203.588514 294.624668 
L 203.654784 294.743375 
L 203.787323 294.517963 
L 203.986131 294.711925 
L 204.118671 293.512592 
L 204.25121 294.664099 
L 204.317479 294.577671 
L 204.450018 294.252317 
L 204.582557 294.733188 
L 204.648827 294.643139 
L 204.980175 294.143088 
L 205.046444 294.471025 
L 205.178983 293.080553 
L 205.245253 294.53294 
L 205.311523 294.2986 
L 205.377792 294.505984 
L 205.576601 294.016465 
L 205.70914 294.314123 
L 205.907949 293.500983 
L 206.040488 294.246833 
L 206.106757 294.225134 
L 206.305566 294.207544 
L 206.371835 294.008915 
L 206.438105 294.460212 
L 206.504375 294.235224 
L 206.570644 294.106959 
L 206.636914 294.344111 
L 206.703183 294.188186 
L 206.769453 294.161787 
L 206.901992 294.563149 
L 207.034531 293.72414 
L 207.16707 294.556125 
L 207.23334 294.27373 
L 207.365879 294.026545 
L 207.564687 294.214237 
L 207.630957 294.308415 
L 207.697227 294.07669 
L 207.829766 294.341148 
L 208.094844 293.860397 
L 208.293653 294.638969 
L 208.359922 294.608965 
L 208.492461 294.092724 
L 208.625 294.325251 
L 208.69127 293.971048 
L 208.757539 294.036925 
L 209.287696 294.680697 
L 209.685313 293.994606 
L 209.884122 294.697041 
L 210.016661 294.485678 
L 210.08293 294.22995 
L 210.1492 294.389502 
L 210.21547 294.772197 
L 210.281739 294.567047 
L 210.348009 294.79832 
L 210.414278 294.700021 
L 210.546817 294.515173 
L 210.878165 294.898687 
L 211.010704 294.584948 
L 211.076974 294.810753 
L 211.143243 294.73831 
L 211.275782 294.308253 
L 211.408322 294.963888 
L 211.540861 294.750414 
L 211.60713 294.988463 
L 211.6734 294.839014 
L 211.805939 294.731333 
L 212.071017 294.991292 
L 212.137287 294.765245 
L 212.203556 294.933497 
L 212.269826 294.950764 
L 212.336095 294.818801 
L 212.402365 294.932995 
L 212.534904 295.0455 
L 212.799982 294.868991 
L 212.932521 294.943643 
L 212.998791 294.821261 
L 213.06506 294.930508 
L 213.13133 295.139017 
L 213.1976 295.01561 
L 213.330139 294.990493 
L 213.528947 294.75945 
L 213.595217 295.157095 
L 213.661486 294.984623 
L 213.727756 294.845325 
L 213.794025 294.903114 
L 213.860295 294.90978 
L 213.926565 295.039925 
L 213.992834 294.934115 
L 214.324182 294.896247 
L 214.390451 295.001292 
L 214.456721 294.922506 
L 214.721799 294.987837 
L 214.854338 294.929375 
L 214.986877 295.059093 
L 215.185686 295.014794 
L 215.251956 295.171874 
L 215.384495 294.927403 
L 215.450764 295.089808 
L 215.649573 294.837065 
L 215.782112 295.130036 
L 216.04719 294.848897 
L 216.179729 295.04506 
L 216.312269 294.989774 
L 216.444808 295.073405 
L 216.577347 294.9415 
L 216.709886 295.065718 
L 216.842425 295.041373 
L 216.908695 295.231834 
L 217.041234 295.071879 
L 217.173773 295.112039 
L 217.438851 295.166375 
L 217.505121 294.742109 
L 217.57139 294.985993 
L 217.63766 294.995451 
L 217.703929 295.151106 
L 217.770199 294.96858 
L 217.836468 295.110578 
L 217.902738 295.13534 
L 218.167816 294.864387 
L 218.300355 295.046817 
L 218.366625 294.939792 
L 218.631703 294.869842 
L 218.764242 294.989128 
L 218.830512 294.746671 
L 218.896781 294.854519 
L 219.09559 294.641996 
L 219.161859 294.948246 
L 219.228129 294.82059 
L 219.294398 294.824958 
L 219.360668 294.98165 
L 219.493207 294.431481 
L 219.559477 294.920007 
L 219.692016 292.245513 
L 219.758285 290.31117 
L 219.890824 294.316224 
L 220.023364 294.398039 
L 220.089633 294.992831 
L 220.155903 294.919096 
L 220.420981 290.939006 
L 220.48725 287.493083 
L 220.55352 289.070587 
L 220.818598 292.520019 
L 220.884868 292.298756 
L 220.951137 292.656492 
L 221.017407 292.615564 
L 221.083676 292.055208 
L 221.149946 292.210914 
L 221.216216 292.350928 
L 221.348755 291.323879 
L 221.547563 293.121758 
L 221.613833 292.523808 
L 221.746372 293.062208 
L 221.812642 292.181246 
L 222.01145 294.00208 
L 222.07772 293.635117 
L 222.143989 293.684539 
L 222.210259 294.056945 
L 222.276528 293.704428 
L 222.475337 294.541142 
L 222.541607 294.509603 
L 222.607876 294.443064 
L 222.872954 294.988518 
L 223.138033 295.028583 
L 223.270572 295.07499 
L 223.403111 294.965702 
L 223.53565 295.237796 
L 223.734459 295.093703 
L 223.800728 295.246338 
L 223.866998 294.944492 
L 223.933267 295.38867 
L 223.999537 295.137153 
L 224.529693 295.007025 
L 224.861041 295.015902 
L 225.258658 294.846006 
L 225.324928 294.803487 
L 225.391197 295.219654 
L 225.457467 295.115369 
L 225.921354 295.0831 
L 226.120163 295.193232 
L 226.252702 295.141394 
L 226.318971 295.260374 
L 226.385241 295.09915 
L 226.45151 295.131285 
L 227.114206 295.196003 
L 227.180475 295.306647 
L 227.379284 294.990617 
L 227.710632 295.10469 
L 228.04198 294.83203 
L 228.240788 295.092488 
L 228.307058 295.093419 
L 228.439597 294.893081 
L 228.638406 295.121476 
L 228.903484 295.11019 
L 229.102292 294.876989 
L 229.168562 295.161595 
L 229.234832 295.110271 
L 229.367371 295.233247 
L 229.43364 295.114527 
L 229.764988 295.171485 
L 229.897527 295.237876 
L 230.030066 295.107354 
L 230.096336 295.283051 
L 230.162605 294.930188 
L 230.228875 295.123024 
L 232.150692 295.014298 
L 232.216962 295.396098 
L 232.283231 294.820195 
L 232.349501 295.044054 
L 232.48204 294.994472 
L 232.548309 295.052326 
L 232.680848 294.904347 
L 232.747118 295.06846 
L 232.813388 294.979945 
L 232.879657 294.888493 
L 232.945927 295.118004 
L 233.078466 294.836758 
L 233.144735 295.082568 
L 233.211005 294.955824 
L 233.277274 294.794533 
L 233.343544 294.951976 
L 233.409814 294.905775 
L 233.476083 294.793543 
L 233.542353 295.021369 
L 233.608622 294.986023 
L 233.674892 294.653718 
L 233.741161 294.818335 
L 233.807431 295.261209 
L 233.8737 294.965567 
L 233.93997 294.955561 
L 234.006239 295.423605 
L 234.271318 292.940661 
L 234.337587 287.538286 
L 234.536396 295.464845 
L 234.668935 293.747497 
L 234.735205 294.581012 
L 234.801474 294.55646 
L 234.867744 293.807346 
L 235.000283 294.686576 
L 235.199091 293.490302 
L 235.331631 287.518058 
L 235.46417 290.044474 
L 235.662978 290.34357 
L 235.729248 290.006162 
L 235.861787 290.425359 
L 235.994326 290.055759 
L 236.193135 292.453242 
L 236.259404 290.264403 
L 236.325674 290.803346 
L 236.458213 292.761288 
L 236.524483 292.04376 
L 236.723291 289.937038 
L 236.85583 293.22558 
L 237.054639 292.660489 
L 237.120909 293.289714 
L 237.187178 292.940732 
L 237.253448 292.933535 
L 237.452256 293.181368 
L 237.518526 293.290758 
L 237.717335 293.939637 
L 237.849874 293.426435 
L 237.916143 293.436088 
L 238.048682 292.62024 
L 238.247491 293.85076 
L 238.313761 294.093551 
L 238.512569 293.502504 
L 238.578839 293.878807 
L 238.645108 293.364529 
L 238.711378 293.488097 
L 238.777647 293.396169 
L 238.843917 293.486828 
L 238.976456 293.934236 
L 239.042726 293.898216 
L 239.175265 294.204076 
L 239.307804 293.826201 
L 239.374073 293.402199 
L 239.506612 293.914049 
L 239.572882 293.839638 
L 239.639152 293.86613 
L 239.705421 293.302609 
L 239.771691 293.977787 
L 239.83796 293.862047 
L 239.970499 294.546738 
L 240.036769 294.45214 
L 240.169308 293.944885 
L 240.301847 294.037022 
L 240.500656 294.38793 
L 240.566925 294.540483 
L 240.633195 294.145852 
L 240.699464 294.526172 
L 240.765734 294.317125 
L 240.832004 294.342917 
L 240.898273 294.130012 
L 240.964543 294.245223 
L 241.030812 294.679876 
L 241.097082 294.479533 
L 241.163351 294.492895 
L 241.29589 294.401457 
L 241.494699 294.759479 
L 241.627238 294.353158 
L 241.826047 294.872131 
L 242.091125 294.715495 
L 242.157395 294.841029 
L 242.223664 294.777827 
L 242.356203 294.699524 
L 242.422473 295.124176 
L 242.488742 294.997076 
L 242.555012 295.002972 
L 242.621282 294.840214 
L 242.687551 295.22566 
L 242.753821 294.812728 
L 242.82009 294.869716 
L 243.018899 294.866851 
L 243.151438 294.957169 
L 243.283977 294.890148 
L 243.350247 294.96693 
L 243.482786 294.773268 
L 243.681594 294.820652 
L 243.946673 294.807314 
L 244.012942 294.630765 
L 244.079212 294.701591 
L 244.145481 294.786235 
L 244.211751 294.684343 
L 244.27802 294.839068 
L 244.476829 294.531172 
L 244.675638 294.708168 
L 244.741907 294.500554 
L 244.808177 294.618239 
L 244.874446 294.774879 
L 244.940716 294.689798 
L 245.073255 294.646948 
L 245.139525 294.790281 
L 245.272064 294.503427 
L 245.338333 294.669175 
L 245.404603 294.623431 
L 245.603411 294.60434 
L 245.669681 294.873643 
L 245.80222 294.481873 
L 246.133568 295.047968 
L 246.266107 294.433068 
L 246.464916 294.646995 
L 246.531185 294.443565 
L 246.597455 294.642702 
L 246.663724 294.397719 
L 246.796263 294.918822 
L 246.862533 294.465354 
L 246.928803 294.687748 
L 246.995072 294.432321 
L 247.061342 294.638422 
L 247.193881 294.447169 
L 247.392689 294.833272 
L 247.525229 294.38017 
L 247.591498 294.512349 
L 247.724037 294.767742 
L 248.055385 294.279763 
L 248.187924 294.981136 
L 248.386733 294.632765 
L 248.519272 294.53553 
L 248.585541 294.867436 
L 248.651811 294.819501 
L 248.71808 294.875174 
L 248.78435 294.449622 
L 248.85062 294.975683 
L 248.916889 292.437287 
L 249.115698 295.043172 
L 249.314506 294.64727 
L 249.513315 295.081318 
L 249.579585 294.943089 
L 249.645854 294.570684 
L 249.712124 294.640981 
L 249.778393 295.176672 
L 249.910932 294.48085 
L 249.977202 294.572561 
L 250.043472 294.470628 
L 250.109741 293.935917 
L 250.176011 294.042465 
L 250.30855 295.210802 
L 250.507358 293.633516 
L 250.573628 293.721177 
L 250.706167 293.067498 
L 251.037515 293.706482 
L 251.302593 294.53696 
L 251.567671 294.722271 
L 251.899019 295.274785 
L 252.164097 295.009838 
L 252.296636 294.95982 
L 252.429176 294.726749 
L 252.561715 294.822583 
L 252.760523 294.631729 
L 252.826793 294.77271 
L 252.893062 294.668512 
L 253.025602 294.861606 
L 253.091871 294.242362 
L 253.158141 294.69907 
L 253.22441 294.606496 
L 253.356949 294.765911 
L 253.423219 294.695904 
L 253.489488 294.579504 
L 253.622028 294.838888 
L 253.688297 294.802681 
L 253.754567 294.438965 
L 253.953375 294.91545 
L 254.019645 294.885713 
L 254.085914 294.668244 
L 254.218453 294.925301 
L 254.284723 294.893825 
L 254.616071 294.916799 
L 254.68234 294.860708 
L 254.74861 295.020776 
L 254.814879 294.937755 
L 254.881149 294.867886 
L 254.947419 294.933644 
L 255.013688 295.026558 
L 255.079958 294.955588 
L 255.146227 294.957015 
L 255.212497 294.724184 
L 255.345036 295.055773 
L 255.411305 294.89409 
L 255.477575 294.979368 
L 255.610114 294.79267 
L 255.742653 295.050439 
L 255.808923 294.952164 
L 255.875192 294.892076 
L 256.007731 295.079837 
L 256.20654 294.952754 
L 256.471618 295.016302 
L 256.537888 294.847999 
L 256.670427 295.031185 
L 256.802966 295.026946 
L 256.935505 294.983297 
L 257.200583 295.014299 
L 257.266853 295.16199 
L 257.333123 295.080759 
L 257.465662 295.171707 
L 257.531931 294.945462 
L 257.598201 295.074533 
L 257.863279 295.144003 
L 257.929549 295.089992 
L 257.995818 294.817941 
L 258.062088 295.005565 
L 258.128357 295.014406 
L 258.327166 295.179913 
L 258.393435 295.110026 
L 258.459705 295.187287 
L 258.791053 295.151164 
L 258.923592 295.051031 
L 259.056131 295.125656 
L 259.321209 295.051754 
L 259.387479 295.409931 
L 259.453748 295.274066 
L 259.718826 295.002095 
L 260.050174 295.125884 
L 260.182713 295.105253 
L 260.71287 295.286446 
L 260.911678 295.270867 
L 261.243026 295.113174 
L 261.309296 295.352102 
L 261.375565 295.285621 
L 261.441835 294.906751 
L 261.508104 295.19086 
L 261.574374 295.054344 
L 261.839452 295.010395 
L 261.905722 295.142908 
L 262.038261 294.910217 
L 262.1708 294.997054 
L 262.23707 294.854152 
L 262.369609 295.055726 
L 262.502148 294.958134 
L 262.568417 295.081793 
L 262.634687 295.031445 
L 262.767226 294.980963 
L 262.833496 295.025249 
L 262.899765 294.805377 
L 263.032304 295.112781 
L 263.098574 294.931731 
L 263.164843 295.050084 
L 263.231113 295.010586 
L 263.297382 294.703071 
L 263.363652 294.744849 
L 263.429922 295.000487 
L 263.496191 293.639973 
L 263.695 295.182394 
L 263.761269 295.209213 
L 263.893808 294.66555 
L 264.092617 295.354042 
L 264.490234 294.587117 
L 264.556504 294.678686 
L 264.622773 295.060488 
L 264.689043 294.945224 
L 264.755313 294.883759 
L 264.887852 295.269426 
L 264.954121 294.960926 
L 265.020391 295.119024 
L 265.08666 294.95666 
L 265.219199 293.863555 
L 265.285469 294.061066 
L 265.484278 294.969096 
L 265.550547 294.88762 
L 265.616817 295.053394 
L 265.881895 294.533735 
L 265.948165 294.415458 
L 266.146973 294.821869 
L 266.213243 294.73128 
L 266.279512 294.872717 
L 266.345782 294.752889 
L 266.809669 295.394696 
L 266.942208 295.382863 
L 267.207286 295.178053 
L 267.604903 294.654154 
L 267.671173 294.569936 
L 267.737443 294.933299 
L 267.803712 294.764163 
L 267.869982 294.088371 
L 267.936251 294.375714 
L 268.06879 294.84347 
L 268.333869 294.483853 
L 268.400138 294.609696 
L 268.532677 294.673663 
L 268.731486 294.585564 
L 268.996564 294.81171 
L 269.062834 294.682795 
L 269.129103 294.758758 
L 269.261642 294.651925 
L 269.327912 295.009079 
L 269.394181 294.928217 
L 269.59299 294.829458 
L 270.056877 295.164781 
L 270.587033 295.018455 
L 270.785842 295.304102 
L 270.984651 295.225658 
L 271.11719 295.262348 
L 271.249729 295.233918 
L 271.647346 295.10245 
L 271.779885 294.939727 
L 271.846155 295.242496 
L 271.912424 295.049532 
L 271.978694 295.207263 
L 272.177503 294.999688 
L 272.64139 295.021088 
L 272.707659 294.899293 
L 272.773929 294.935614 
L 273.237816 294.838048 
L 273.370355 294.791332 
L 273.569163 294.788447 
L 273.635433 294.646594 
L 273.701702 294.812402 
L 273.767972 295.324864 
L 273.900511 294.632737 
L 273.966781 295.09365 
L 274.03305 294.71827 
L 274.09932 294.8471 
L 274.364398 294.896737 
L 274.430667 294.699906 
L 274.496937 294.783342 
L 274.563207 294.74567 
L 274.629476 294.886496 
L 274.695746 294.712253 
L 274.762015 294.82801 
L 274.894554 294.66761 
L 274.960824 294.872633 
L 275.027093 294.780119 
L 275.159633 294.821895 
L 275.225902 294.915389 
L 275.292172 294.78513 
L 275.358441 294.929526 
L 275.424711 294.866535 
L 275.756059 294.832111 
L 276.087406 295.084629 
L 276.153676 295.008091 
L 276.219945 295.093876 
L 276.352485 295.086023 
L 276.485024 294.99801 
L 276.617563 295.119918 
L 277.213989 295.146935 
L 277.280258 295.011758 
L 277.346528 295.127959 
L 277.611606 295.131009 
L 277.677876 294.973849 
L 277.744145 295.036894 
L 277.810415 295.269124 
L 277.876684 295.116904 
L 277.942954 295.036878 
L 278.009223 295.317417 
L 278.075493 293.927843 
L 278.141763 294.054275 
L 278.208032 295.16921 
L 278.274302 295.115309 
L 278.340571 295.421048 
L 278.406841 295.284244 
L 278.605649 295.16865 
L 278.738188 295.446204 
L 278.804458 295.247837 
L 278.870728 295.272234 
L 278.936997 295.483199 
L 279.069536 295.117435 
L 279.202075 295.305708 
L 279.400884 294.944531 
L 279.732232 295.094123 
L 279.798501 295.269057 
L 279.93104 294.296734 
L 279.99731 294.528476 
L 280.129849 295.379482 
L 280.394927 293.271314 
L 280.527466 293.68742 
L 280.726275 294.607289 
L 280.858814 295.043363 
L 280.991353 294.818017 
L 281.256432 293.700298 
L 281.388971 293.070285 
L 281.45524 293.124368 
L 281.52151 293.885475 
L 281.654049 292.363515 
L 281.919127 293.310312 
L 281.985397 293.494882 
L 282.117936 293.238623 
L 282.250475 294.199201 
L 282.316744 293.915023 
L 282.449284 294.040758 
L 282.581823 293.807185 
L 282.648092 293.880169 
L 282.714362 294.813267 
L 282.780631 294.644121 
L 282.846901 294.918607 
L 282.91317 294.630163 
L 282.97944 294.780121 
L 283.244518 295.202005 
L 283.509596 295.369173 
L 284.106022 295.416931 
L 284.238561 295.191958 
L 284.304831 295.320676 
L 284.371101 294.663047 
L 284.43737 295.271471 
L 284.50364 295.127247 
L 284.636179 295.193977 
L 284.702448 295.111562 
L 284.768718 295.17565 
L 284.967527 295.16296 
L 285.232605 295.073306 
L 285.431413 294.856335 
L 285.630222 295.040213 
L 285.829031 294.95892 
L 285.8953 294.851064 
L 286.027839 295.169234 
L 286.160379 294.992618 
L 286.226648 295.098633 
L 286.292918 295.293652 
L 286.491726 294.318866 
L 286.624265 294.906625 
L 286.690535 294.916488 
L 286.889344 294.711885 
L 287.021883 294.829647 
L 287.220691 294.746854 
L 287.4195 294.673466 
L 287.552039 294.923092 
L 287.817117 294.401154 
L 287.883387 294.755665 
L 287.949657 294.726825 
L 288.015926 294.591117 
L 288.082196 294.869786 
L 288.148465 294.75845 
L 288.214735 294.714531 
L 288.281004 294.876795 
L 288.347274 294.688816 
L 288.413543 294.719577 
L 288.479813 295.121895 
L 288.546083 294.284971 
L 288.612352 294.680831 
L 288.678622 294.638517 
L 288.811161 294.960651 
L 288.9437 294.992723 
L 289.009969 295.086054 
L 289.142508 294.986774 
L 289.407587 295.291187 
L 289.540126 295.167687 
L 289.805204 295.28778 
L 289.937743 295.164897 
L 290.004013 295.237013 
L 290.070282 295.166991 
L 290.136552 295.107883 
L 290.202821 295.184876 
L 290.600439 294.965791 
L 290.666708 294.83346 
L 290.732978 295.176196 
L 290.799247 294.984711 
L 290.865517 295.144845 
L 290.931786 295.111527 
L 290.998056 294.882973 
L 291.064326 295.000295 
L 291.130595 295.242574 
L 291.196865 295.093191 
L 291.329404 295.33422 
L 291.395673 295.146675 
L 291.528212 295.215922 
L 291.594482 294.908182 
L 291.660752 295.007305 
L 291.727021 295.325735 
L 291.793291 295.128347 
L 291.85956 294.967302 
L 291.92583 295.163133 
L 291.992099 295.123008 
L 292.058369 295.014013 
L 292.124638 295.287617 
L 292.190908 295.122094 
L 292.257178 294.752928 
L 292.323447 295.108336 
L 292.455986 293.981795 
L 292.522256 295.06845 
L 292.588525 294.099744 
L 292.721064 284.73681 
L 292.853604 292.854419 
L 292.919873 294.84354 
L 292.986143 294.712812 
L 293.052412 294.3147 
L 293.118682 294.889586 
L 293.184951 294.82239 
L 293.251221 294.791748 
L 293.31749 295.181486 
L 293.38376 293.991911 
L 293.45003 293.997217 
L 293.516299 294.432709 
L 293.582569 294.354062 
L 293.648838 293.811331 
L 293.980186 295.398493 
L 294.112725 294.692058 
L 294.178995 294.919993 
L 294.311534 294.079542 
L 294.377803 294.419277 
L 294.444073 294.51707 
L 294.510342 294.415768 
L 294.642881 294.9615 
L 294.775421 292.775731 
L 294.84169 294.933386 
L 294.90796 294.383187 
L 295.106768 293.740162 
L 295.239307 291.111746 
L 295.438116 281.113303 
L 295.570655 281.71009 
L 295.703194 286.156632 
L 295.769464 285.264463 
L 295.835733 283.288005 
L 295.902003 284.231738 
L 296.034542 286.91045 
L 296.100812 285.767589 
L 296.167081 284.670908 
L 296.29962 286.939045 
L 296.432159 285.056935 
L 296.498429 287.940369 
L 296.564699 286.863987 
L 296.630968 286.059883 
L 296.697238 286.09244 
L 296.763507 286.366263 
L 296.829777 286.121665 
L 296.896046 284.923005 
L 297.028585 288.095122 
L 297.094855 286.92777 
L 297.293664 291.065841 
L 297.359933 290.105243 
L 297.426203 291.158529 
L 297.492472 290.863009 
L 297.558742 290.164295 
L 297.625011 290.534064 
L 297.691281 290.180213 
L 297.89009 292.350067 
L 298.022629 291.641954 
L 298.088898 291.765629 
L 298.155168 291.468249 
L 298.420246 292.672262 
L 298.486516 292.168712 
L 298.552785 292.497745 
L 298.685324 291.533955 
L 298.751594 292.687624 
L 298.817863 292.608176 
L 298.884133 291.742579 
L 298.950402 293.615312 
L 299.016672 292.527939 
L 299.082942 293.193766 
L 299.149211 292.889442 
L 299.215481 291.711755 
L 299.28175 292.063542 
L 299.480559 293.276675 
L 299.613098 293.243957 
L 299.679368 293.392856 
L 299.745637 293.185809 
L 299.811907 293.466231 
L 299.878176 293.324889 
L 299.944446 293.212188 
L 300.010715 293.2552 
L 300.209524 293.94291 
L 300.408333 294.590982 
L 300.540872 293.506359 
L 300.73968 294.237521 
L 300.938489 294.612712 
L 301.004759 294.995038 
L 301.071028 293.993044 
L 301.137298 294.357152 
L 301.336106 294.788265 
L 301.733724 294.750115 
L 301.866263 295.144369 
L 301.932532 294.717947 
L 301.998802 294.785272 
L 302.197611 295.016484 
L 302.396419 295.025046 
L 302.528958 295.311731 
L 302.661498 295.253231 
L 302.926576 295.421715 
L 303.059115 295.472951 
L 303.125384 295.042858 
L 303.191654 295.349064 
L 303.257924 295.28044 
L 303.655541 295.238907 
L 303.72181 295.128644 
L 303.78808 295.173327 
L 303.920619 295.079929 
L 304.053158 294.805313 
L 304.251967 294.981319 
L 304.517045 294.74923 
L 304.583315 294.843023 
L 304.782123 294.616951 
L 304.848393 294.594263 
L 304.914662 294.974783 
L 304.980932 294.860783 
L 305.047201 294.849937 
L 305.24601 294.385823 
L 305.444819 294.604519 
L 305.577358 294.702399 
L 305.709897 294.509696 
L 305.776167 294.510519 
L 305.908706 294.855606 
L 305.974975 294.52988 
L 306.041245 294.616107 
L 306.240053 294.832722 
L 306.306323 294.836306 
L 306.372593 294.584656 
L 306.505132 294.870103 
L 306.571401 294.871993 
L 306.70394 294.953932 
L 306.77021 294.850044 
L 306.902749 295.017512 
L 307.035288 294.896681 
L 307.101558 294.922579 
L 307.234097 294.547658 
L 307.300366 294.648135 
L 307.366636 295.082884 
L 307.432905 295.058561 
L 307.499175 294.95264 
L 307.565445 295.002771 
L 307.631714 295.035596 
L 307.697984 294.854519 
L 307.896792 295.029551 
L 308.029331 295.016257 
L 308.095601 294.901091 
L 308.161871 294.969195 
L 308.493218 295.360606 
L 308.625757 295.283052 
L 308.824566 295.005055 
L 308.890836 295.084937 
L 309.023375 294.717845 
L 309.155914 295.033426 
L 309.222183 295.011978 
L 309.354722 295.05278 
L 309.487262 295.080364 
L 309.553531 294.899817 
L 309.619801 294.989212 
L 309.68607 295.054699 
L 309.75234 294.821848 
L 309.818609 294.844021 
L 309.951148 295.062171 
L 310.083688 294.24275 
L 310.216227 294.356585 
L 310.282496 294.177206 
L 310.348766 294.333276 
L 310.481305 294.037094 
L 310.547574 293.581726 
L 310.613844 293.829087 
L 310.680114 294.13219 
L 310.746383 294.107746 
L 310.812653 294.117264 
L 310.945192 294.594653 
L 311.011461 294.490132 
L 311.144 292.69745 
L 311.21027 291.221474 
L 311.27654 292.275866 
L 311.475348 290.185112 
L 311.541618 290.458977 
L 311.674157 290.102204 
L 311.939235 292.406265 
L 312.005505 292.271728 
L 312.204313 292.609728 
L 312.403122 294.091459 
L 312.469392 294.112825 
L 312.6682 294.819253 
L 312.73447 294.750481 
L 312.999548 294.612558 
L 313.065818 294.746044 
L 313.132087 294.668959 
L 313.264626 294.532358 
L 313.397165 294.354137 
L 313.463435 294.421406 
L 313.529704 294.286583 
L 313.728513 294.666816 
L 313.794783 294.485294 
L 313.861052 294.670989 
L 313.927322 294.52018 
L 314.12613 294.843207 
L 314.1924 294.789216 
L 314.457478 295.155449 
L 314.722556 295.193033 
L 314.788826 295.112267 
L 314.855095 295.178987 
L 314.987635 295.141558 
L 315.385252 294.828739 
L 315.517791 294.880608 
L 315.584061 295.022666 
L 315.65033 294.785991 
L 315.7166 294.925078 
L 315.849139 294.739384 
L 315.915408 294.876367 
L 315.981678 294.840266 
L 316.047947 294.945445 
L 316.180487 294.7968 
L 316.246756 294.952086 
L 316.379295 294.795138 
L 316.710643 294.722784 
L 316.776913 294.525504 
L 316.909452 294.750451 
L 317.10826 294.502334 
L 317.307069 294.709621 
L 317.439608 294.612998 
L 317.505878 294.850721 
L 317.572147 294.726247 
L 317.638417 294.697292 
L 317.704686 294.474666 
L 317.969765 294.959807 
L 318.102304 294.639306 
L 318.168573 294.827151 
L 318.301112 295.021259 
L 319.030077 295.243278 
L 319.162616 295.242714 
L 319.692773 295.216631 
L 319.759042 295.413295 
L 319.825312 295.107343 
L 319.891582 295.246333 
L 320.024121 295.112713 
L 320.09039 295.187333 
L 320.15666 295.078182 
L 320.222929 295.174525 
L 320.554277 295.12419 
L 320.753086 295.101869 
L 321.018164 295.07859 
L 321.150703 295.152889 
L 321.216973 295.041751 
L 321.283242 295.143077 
L 321.349512 295.232919 
L 321.482051 295.102185 
L 321.54832 295.308716 
L 321.68086 294.89366 
L 321.747129 295.207386 
L 321.813399 295.049485 
L 321.879668 293.105412 
L 321.945938 294.12706 
L 322.078477 295.29689 
L 322.144746 294.90449 
L 322.211016 294.732911 
L 322.277286 295.186349 
L 322.343555 295.14706 
L 322.409825 295.0448 
L 322.542364 295.29134 
L 322.807442 295.211565 
L 322.873712 295.383635 
L 322.939981 295.344036 
L 323.205059 294.835475 
L 323.271329 294.72859 
L 323.337598 294.904621 
L 323.403868 294.812763 
L 323.470138 294.658326 
L 323.801485 295.221751 
L 323.934024 294.521976 
L 324.066563 295.028013 
L 324.132833 295.039307 
L 324.199103 295.170466 
L 324.265372 295.069795 
L 324.331642 294.985952 
L 324.464181 295.08003 
L 324.729259 294.277603 
L 324.861798 294.967119 
L 324.928068 294.883368 
L 325.060607 295.032956 
L 325.391955 294.003151 
L 325.524494 294.540006 
L 325.657033 292.948391 
L 325.723302 293.455426 
L 325.789572 292.796621 
L 325.922111 288.824425 
L 325.988381 292.365836 
L 326.05465 290.00483 
L 326.187189 289.087588 
L 326.385998 290.45423 
L 326.651076 291.905262 
L 326.982424 290.146252 
L 327.048693 289.315499 
L 327.114963 291.368635 
L 327.181233 291.059229 
L 327.380041 292.17132 
L 327.51258 290.901183 
L 327.57885 292.216508 
L 327.711389 290.641149 
L 328.042737 293.063971 
L 328.109006 293.00484 
L 328.175276 293.322381 
L 328.374085 292.514589 
L 328.572893 293.728778 
L 328.639163 293.475099 
L 328.705432 293.849981 
L 328.837971 293.284122 
L 328.97051 293.871672 
L 329.10305 293.314808 
L 329.301858 294.122872 
L 329.434397 293.790115 
L 329.500667 293.878923 
L 329.566936 294.048771 
L 329.633206 293.948885 
L 329.765745 293.724783 
L 329.832015 293.770295 
L 329.964554 294.17611 
L 330.163362 293.926843 
L 330.229632 294.168689 
L 330.362171 293.528801 
L 330.428441 293.645297 
L 330.49471 293.92948 
L 330.56098 293.911539 
L 330.759788 293.926685 
L 330.826058 293.735743 
L 330.892328 293.834715 
L 330.958597 294.032619 
L 331.024867 293.895717 
L 331.091136 293.77918 
L 331.157406 293.894258 
L 331.223675 293.811473 
L 331.289945 293.858259 
L 331.488754 294.340411 
L 331.621293 293.768428 
L 332.08518 294.497075 
L 332.217719 294.266263 
L 332.283988 294.484851 
L 332.350258 294.029107 
L 332.482797 294.494857 
L 332.549066 294.401562 
L 332.615336 294.561494 
L 332.681606 294.396343 
L 332.747875 294.483193 
L 332.946684 294.802114 
L 333.079223 293.964163 
L 333.211762 294.575108 
L 333.278032 294.455336 
L 333.410571 294.829135 
L 333.609379 294.650366 
L 333.675649 294.770517 
L 334.073266 294.96166 
L 334.404614 294.763898 
L 334.537153 295.189933 
L 334.603423 295.123586 
L 334.669692 295.220006 
L 334.735962 295.140862 
L 335.00104 295.071123 
L 335.199849 295.136595 
L 336.260161 295.081337 
L 336.326431 294.890201 
L 336.392701 294.943706 
L 336.45897 295.01031 
L 336.52524 294.582127 
L 336.591509 295.02806 
L 336.657779 294.850864 
L 336.856587 294.988977 
L 336.922857 294.89339 
L 337.121666 295.067686 
L 337.585553 295.005248 
L 337.718092 295.086846 
L 337.784361 295.044859 
L 337.98317 295.24974 
L 338.181979 295.140214 
L 338.447057 295.275148 
L 338.579596 295.154337 
L 338.712135 295.421096 
L 339.109752 295.423065 
L 339.308561 295.22758 
L 339.573639 295.460304 
L 340.501413 295.260686 
L 340.700222 295.459848 
L 341.031569 294.960614 
L 341.164108 294.89886 
L 341.362917 294.585812 
L 341.561726 294.352666 
L 341.694265 294.96494 
L 342.290691 293.055548 
L 342.42323 293.514732 
L 342.4895 293.124103 
L 342.555769 293.160143 
L 342.622039 293.17185 
L 342.688308 293.438215 
L 342.754578 292.933626 
L 342.820847 293.273764 
L 342.953386 292.497192 
L 343.019656 293.272799 
L 343.085926 293.229611 
L 343.351004 291.697016 
L 343.417273 293.280473 
L 343.483543 292.928066 
L 343.549812 292.809478 
L 343.682352 291.78249 
L 343.88116 292.844009 
L 344.013699 292.148434 
L 344.146238 292.782849 
L 344.278777 292.691595 
L 344.345047 292.280916 
L 344.477586 292.84839 
L 344.610125 292.230456 
L 344.742664 292.997243 
L 344.808934 292.571551 
L 344.875203 292.974788 
L 344.941473 292.937532 
L 345.074012 292.852647 
L 345.206551 293.532264 
L 345.272821 293.619267 
L 345.40536 293.271429 
L 345.537899 293.859759 
L 345.604169 293.53771 
L 345.736708 294.031716 
L 345.802977 293.900198 
L 345.935516 294.321615 
L 346.134325 294.282437 
L 346.266864 294.340679 
L 346.531942 294.83169 
L 346.664481 294.710005 
L 346.797021 294.832349 
L 346.92956 294.783816 
L 347.062099 295.024619 
L 347.128368 294.944777 
L 347.260907 295.164253 
L 347.327177 295.106592 
L 347.592255 295.117957 
L 347.857333 295.223114 
L 348.122412 295.270983 
L 348.453759 295.391818 
L 348.586299 295.380066 
L 348.917646 295.428525 
L 349.050185 295.433239 
L 350.706924 295.426544 
L 350.839463 295.330608 
L 350.972002 295.407094 
L 351.104542 294.825992 
L 351.237081 295.428254 
L 351.36962 295.355602 
L 351.435889 295.432077 
L 351.502159 295.356604 
L 352.098585 295.386217 
L 352.164854 295.468136 
L 352.297394 295.258366 
L 352.496202 295.485045 
L 352.76128 295.343294 
L 352.960089 295.285768 
L 354.815637 295.379306 
L 354.948176 295.24996 
L 355.080715 295.147103 
L 355.412063 295.237536 
L 355.610871 295.045508 
L 355.80968 294.835435 
L 356.008489 295.067428 
L 356.074758 294.866235 
L 356.141028 294.94225 
L 356.339836 294.918016 
L 356.472375 295.154795 
L 356.538645 295.075902 
L 356.737454 294.906154 
L 356.936262 295.320183 
L 357.400149 295.206785 
L 357.598958 295.354 
L 357.665227 295.426726 
L 357.731497 295.358982 
L 357.996575 295.268347 
L 358.526732 294.982134 
L 358.593001 295.077805 
L 358.72554 294.881849 
L 358.79181 294.926811 
L 359.454505 294.942643 
L 359.587044 294.901172 
L 359.785853 295.158898 
L 359.984662 294.898773 
L 360.050931 294.987284 
L 360.31601 295.139097 
L 360.846166 295.123511 
L 361.111244 295.31427 
L 361.243783 295.076574 
L 361.310053 295.159523 
L 361.376322 295.150825 
L 361.442592 295.27289 
L 361.508862 295.163298 
L 361.70767 295.221995 
L 361.906479 295.31997 
L 364.093374 295.125551 
L 364.292183 295.243985 
L 364.490991 295.105238 
L 364.6898 295.20368 
L 364.888609 295.179674 
L 365.087417 295.158598 
L 365.485035 295.283488 
L 365.551304 295.115477 
L 365.683843 294.031689 
L 365.750113 295.373201 
L 365.816383 295.236121 
L 365.882652 295.064634 
L 366.015191 295.294279 
L 366.14773 295.1884 
L 366.412809 295.275642 
L 366.611617 295.2002 
L 366.810426 295.242429 
L 366.942965 295.210704 
L 367.009235 295.36315 
L 367.075504 295.318321 
L 367.208043 295.034988 
L 367.473121 295.310077 
L 367.605661 295.165192 
L 367.804469 295.130951 
L 368.003278 295.258292 
L 368.467165 295.163855 
L 368.665973 295.385726 
L 368.864782 295.226045 
L 368.997321 295.147386 
L 369.063591 295.256575 
L 369.12986 295.199163 
L 369.660017 295.214622 
L 369.792556 294.894264 
L 369.858825 295.349627 
L 369.925095 295.288231 
L 370.057634 295.336608 
L 370.322712 295.187724 
L 370.65406 295.154319 
L 370.919138 295.299569 
L 371.515564 295.35196 
L 371.581834 295.458009 
L 371.648103 295.302113 
L 371.714373 295.334332 
L 371.780642 295.443988 
L 371.846912 295.37326 
L 372.17826 294.270095 
L 372.377068 290.992271 
L 372.443338 291.583356 
L 372.509608 290.977531 
L 372.575877 291.224972 
L 372.708416 291.776989 
L 372.774686 291.708719 
L 372.907225 292.237292 
L 373.039764 290.786798 
L 373.238573 292.65359 
L 373.304842 292.580687 
L 373.503651 291.45123 
L 373.56992 291.482077 
L 373.63619 291.672508 
L 373.70246 292.861364 
L 373.834999 291.424948 
L 374.033807 292.146999 
L 374.100077 291.679175 
L 374.166346 291.770721 
L 374.232616 291.991328 
L 374.298885 291.893097 
L 374.365155 291.893734 
L 374.431425 292.242077 
L 374.497694 291.65869 
L 374.563964 292.04142 
L 374.696503 291.596965 
L 374.829042 292.222597 
L 374.895311 292.037534 
L 374.961581 292.358746 
L 375.027851 292.036338 
L 375.09412 292.159986 
L 375.226659 292.826941 
L 375.292929 292.356881 
L 375.359198 292.449503 
L 375.491737 293.109633 
L 375.624277 292.075487 
L 375.889355 293.247619 
L 375.955624 292.983783 
L 376.021894 293.055311 
L 376.088163 293.653751 
L 376.154433 293.620353 
L 376.286972 293.663522 
L 376.419511 293.231395 
L 376.485781 293.307536 
L 376.684589 293.789251 
L 376.750859 293.642115 
L 376.817129 293.112848 
L 377.015937 294.479521 
L 377.214746 294.173228 
L 377.479824 294.592274 
L 377.612363 294.429464 
L 378.009981 294.785518 
L 378.07625 294.729431 
L 378.14252 294.924723 
L 378.208789 294.643534 
L 378.275059 294.760764 
L 378.341328 294.689372 
L 378.407598 295.014504 
L 378.473867 294.852284 
L 378.606407 294.830021 
L 378.672676 294.934296 
L 378.738946 294.883333 
L 378.805215 294.836041 
L 378.937754 294.963979 
L 380.130606 294.962679 
L 380.196876 295.158184 
L 380.263145 294.183529 
L 380.329415 295.101323 
L 380.395684 294.756672 
L 380.528224 294.987625 
L 380.594493 294.834873 
L 380.727032 295.059914 
L 380.793302 294.914091 
L 380.859571 294.967061 
L 380.99211 295.12839 
L 381.190919 295.099797 
L 381.986154 295.3497 
L 382.118693 294.808263 
L 382.184962 294.955039 
L 382.450041 295.249539 
L 382.58258 295.003361 
L 382.648849 295.111363 
L 382.913928 294.854358 
L 383.046467 295.011796 
L 383.179006 295.007191 
L 383.377814 295.251543 
L 383.576623 295.206719 
L 383.709162 295.180436 
L 383.97424 294.796813 
L 384.04051 294.874867 
L 384.239319 294.715453 
L 384.371858 294.869629 
L 384.438127 294.331283 
L 384.504397 294.709924 
L 384.570666 294.573074 
L 384.636936 294.446036 
L 384.769475 294.927059 
L 384.835745 294.905098 
L 385.233362 294.902488 
L 385.49844 295.071006 
L 385.697249 295.083195 
L 386.028597 295.259482 
L 386.359944 294.989619 
L 386.426214 295.088906 
L 386.492483 295.226526 
L 386.558753 295.061711 
L 386.691292 295.26124 
L 386.757562 295.217948 
L 386.95637 295.028257 
L 387.155179 295.29406 
L 387.221449 295.236212 
L 387.353988 295.168652 
L 387.486527 294.990235 
L 387.552796 295.226588 
L 387.619066 295.030406 
L 387.817875 293.269983 
L 387.884144 293.272603 
L 388.016683 293.957171 
L 388.082953 293.843597 
L 388.281761 294.330094 
L 388.348031 293.955026 
L 388.414301 293.970683 
L 388.54684 294.048687 
L 388.613109 294.215265 
L 388.745648 293.630928 
L 388.878187 294.081625 
L 388.944457 293.82623 
L 389.143266 292.541161 
L 389.209535 292.599551 
L 389.275805 293.278061 
L 389.342074 292.940585 
L 389.408344 292.692838 
L 389.474613 293.021562 
L 389.540883 292.908215 
L 389.739692 292.012423 
L 389.805961 292.034023 
L 389.872231 292.545229 
L 390.071039 291.385018 
L 390.137309 292.937963 
L 390.203578 292.896033 
L 390.269848 292.742943 
L 390.336118 292.825619 
L 390.402387 292.751075 
L 390.468657 292.39666 
L 390.534926 292.476234 
L 390.601196 292.561078 
L 390.667465 292.299175 
L 390.866274 293.299729 
L 390.932544 293.036483 
L 390.998813 293.10622 
L 391.131352 293.396573 
L 391.263891 292.690265 
L 391.330161 292.931355 
L 391.661509 293.839409 
L 391.727778 293.655116 
L 391.794048 293.604162 
L 391.926587 293.082701 
L 392.059126 293.713308 
L 392.125396 293.522918 
L 392.191665 293.321469 
L 392.257935 293.666609 
L 392.324204 293.595522 
L 392.390474 293.536801 
L 392.523013 294.124044 
L 392.655552 293.634128 
L 392.788091 293.97984 
L 392.854361 293.798213 
L 392.9869 294.198843 
L 393.185708 294.116988 
L 393.450787 294.531776 
L 393.583326 294.322568 
L 393.715865 294.389352 
L 393.914673 294.869114 
L 394.179752 294.523049 
L 394.44483 294.840855 
L 394.511099 294.682325 
L 394.577369 294.756432 
L 394.842447 295.077321 
L 394.908717 294.879138 
L 394.974986 294.996625 
L 395.041256 295.007925 
L 395.173795 294.848355 
L 395.306334 295.012841 
L 395.372604 294.938525 
L 395.637682 295.176928 
L 395.770221 295.130128 
L 395.90276 295.193575 
L 396.101569 295.152451 
L 396.234108 295.21838 
L 396.432917 295.172712 
L 396.697995 295.246824 
L 396.830534 295.16976 
L 396.896803 294.95997 
L 396.963073 295.09241 
L 397.095612 295.054028 
L 397.228151 295.078505 
L 397.493229 295.027746 
L 397.692038 294.773272 
L 397.758308 294.650157 
L 397.890847 294.873515 
L 398.089655 294.706334 
L 398.222195 294.923236 
L 398.288464 294.663451 
L 398.354734 294.737419 
L 398.487273 294.865952 
L 398.487273 294.865952 
" clip-path="url(#p98c0540e5b)" style="fill: none; stroke: #1f77b4; stroke-width: 1.5; stroke-linecap: square"/>
   </g>
   <g id="patch_3">
    <path d="M 57.6 307.584 
L 57.6 41.472 
" style="fill: none; stroke: #000000; stroke-width: 0.8; stroke-linejoin: miter; stroke-linecap: square"/>
   </g>
   <g id="patch_4">
    <path d="M 414.72 307.584 
L 414.72 41.472 
" style="fill: none; stroke: #000000; stroke-width: 0.8; stroke-linejoin: miter; stroke-linecap: square"/>
   </g>
   <g id="patch_5">
    <path d="M 57.6 307.584 
L 414.72 307.584 
" style="fill: none; stroke: #000000; stroke-width: 0.8; stroke-linejoin: miter; stroke-linecap: square"/>
   </g>
   <g id="patch_6">
    <path d="M 57.6 41.472 
L 414.72 41.472 
" style="fill: none; stroke: #000000; stroke-width: 0.8; stroke-linejoin: miter; stroke-linecap: square"/>
   </g>
   <g id="text_16">
    <text style="font: 12px 'IPAexGothic'; text-anchor: middle" x="236.16" y="35.472" transform="rotate(-0 236.16 35.472)">"038_A3.wav"の振幅スペクトル</text>
   </g>
  </g>
 </g>
 <defs>
  <clipPath id="p98c0540e5b">
   <rect x="57.6" y="41.472" width="357.12" height="266.112"/>
  </clipPath>
 </defs>
</svg>
