<?xml version="1.0" encoding="utf-8" standalone="no"?>
<!DOCTYPE svg PUBLIC "-//W3C//DTD SVG 1.1//EN"
  "http://www.w3.org/Graphics/SVG/1.1/DTD/svg11.dtd">
<svg xmlns:xlink="http://www.w3.org/1999/xlink" width="460.8pt" height="345.6pt" viewBox="0 0 460.8 345.6" xmlns="http://www.w3.org/2000/svg" version="1.1">
 <metadata>
  <rdf:RDF xmlns:dc="http://purl.org/dc/elements/1.1/" xmlns:cc="http://creativecommons.org/ns#" xmlns:rdf="http://www.w3.org/1999/02/22-rdf-syntax-ns#">
   <cc:Work>
    <dc:type rdf:resource="http://purl.org/dc/dcmitype/StillImage"/>
    <dc:date>2022-11-28T12:37:23.515595</dc:date>
    <dc:format>image/svg+xml</dc:format>
    <dc:creator>
     <cc:Agent>
      <dc:title>Matplotlib v3.6.2, https://matplotlib.org/</dc:title>
     </cc:Agent>
    </dc:creator>
   </cc:Work>
  </rdf:RDF>
 </metadata>
 <defs>
  <style type="text/css">*{stroke-linejoin: round; stroke-linecap: butt}</style>
 </defs>
 <g id="figure_1">
  <g id="patch_1">
   <path d="M 0 345.6 
L 460.8 345.6 
L 460.8 0 
L 0 0 
z
" style="fill: #ffffff"/>
  </g>
  <g id="axes_1">
   <g id="patch_2">
    <path d="M 57.6 307.584 
L 414.72 307.584 
L 414.72 41.472 
L 57.6 41.472 
z
" style="fill: #ffffff"/>
   </g>
   <g id="matplotlib.axis_1">
    <g id="xtick_1">
     <g id="line2d_1">
      <defs>
       <path id="m7680f5cafb" d="M 0 0 
L 0 3.5 
" style="stroke: #000000; stroke-width: 0.8"/>
      </defs>
      <g>
       <use xlink:href="#m7680f5cafb" x="73.832727" y="307.584" style="stroke: #000000; stroke-width: 0.8"/>
      </g>
     </g>
     <g id="text_1">
      <text style="font: 10px 'IPAexGothic'; text-anchor: middle" x="73.832727" y="322.074625" transform="rotate(-0 73.832727 322.074625)">0</text>
     </g>
    </g>
    <g id="xtick_2">
     <g id="line2d_2">
      <g>
       <use xlink:href="#m7680f5cafb" x="140.102281" y="307.584" style="stroke: #000000; stroke-width: 0.8"/>
      </g>
     </g>
     <g id="text_2">
      <text style="font: 10px 'IPAexGothic'; text-anchor: middle" x="140.102281" y="322.074625" transform="rotate(-0 140.102281 322.074625)">1000</text>
     </g>
    </g>
    <g id="xtick_3">
     <g id="line2d_3">
      <g>
       <use xlink:href="#m7680f5cafb" x="206.371835" y="307.584" style="stroke: #000000; stroke-width: 0.8"/>
      </g>
     </g>
     <g id="text_3">
      <text style="font: 10px 'IPAexGothic'; text-anchor: middle" x="206.371835" y="322.074625" transform="rotate(-0 206.371835 322.074625)">2000</text>
     </g>
    </g>
    <g id="xtick_4">
     <g id="line2d_4">
      <g>
       <use xlink:href="#m7680f5cafb" x="272.64139" y="307.584" style="stroke: #000000; stroke-width: 0.8"/>
      </g>
     </g>
     <g id="text_4">
      <text style="font: 10px 'IPAexGothic'; text-anchor: middle" x="272.64139" y="322.074625" transform="rotate(-0 272.64139 322.074625)">3000</text>
     </g>
    </g>
    <g id="xtick_5">
     <g id="line2d_5">
      <g>
       <use xlink:href="#m7680f5cafb" x="338.910944" y="307.584" style="stroke: #000000; stroke-width: 0.8"/>
      </g>
     </g>
     <g id="text_5">
      <text style="font: 10px 'IPAexGothic'; text-anchor: middle" x="338.910944" y="322.074625" transform="rotate(-0 338.910944 322.074625)">4000</text>
     </g>
    </g>
    <g id="xtick_6">
     <g id="line2d_6">
      <g>
       <use xlink:href="#m7680f5cafb" x="405.180498" y="307.584" style="stroke: #000000; stroke-width: 0.8"/>
      </g>
     </g>
     <g id="text_6">
      <text style="font: 10px 'IPAexGothic'; text-anchor: middle" x="405.180498" y="322.074625" transform="rotate(-0 405.180498 322.074625)">5000</text>
     </g>
    </g>
    <g id="text_7">
     <text style="font: 10px 'IPAexGothic'; text-anchor: middle" x="236.16" y="335.924625" transform="rotate(-0 236.16 335.924625)">周波数[Hz]</text>
    </g>
   </g>
   <g id="matplotlib.axis_2">
    <g id="ytick_1">
     <g id="line2d_7">
      <defs>
       <path id="mdb18d68bde" d="M 0 0 
L -3.5 0 
" style="stroke: #000000; stroke-width: 0.8"/>
      </defs>
      <g>
       <use xlink:href="#mdb18d68bde" x="57.6" y="295.488544" style="stroke: #000000; stroke-width: 0.8"/>
      </g>
     </g>
     <g id="text_8">
      <text style="font: 10px 'IPAexGothic'; text-anchor: end" x="50.6" y="299.233856" transform="rotate(-0 50.6 299.233856)">0.0</text>
     </g>
    </g>
    <g id="ytick_2">
     <g id="line2d_8">
      <g>
       <use xlink:href="#mdb18d68bde" x="57.6" y="261.778411" style="stroke: #000000; stroke-width: 0.8"/>
      </g>
     </g>
     <g id="text_9">
      <text style="font: 10px 'IPAexGothic'; text-anchor: end" x="50.6" y="265.523723" transform="rotate(-0 50.6 265.523723)">0.2</text>
     </g>
    </g>
    <g id="ytick_3">
     <g id="line2d_9">
      <g>
       <use xlink:href="#mdb18d68bde" x="57.6" y="228.068277" style="stroke: #000000; stroke-width: 0.8"/>
      </g>
     </g>
     <g id="text_10">
      <text style="font: 10px 'IPAexGothic'; text-anchor: end" x="50.6" y="231.81359" transform="rotate(-0 50.6 231.81359)">0.4</text>
     </g>
    </g>
    <g id="ytick_4">
     <g id="line2d_10">
      <g>
       <use xlink:href="#mdb18d68bde" x="57.6" y="194.358144" style="stroke: #000000; stroke-width: 0.8"/>
      </g>
     </g>
     <g id="text_11">
      <text style="font: 10px 'IPAexGothic'; text-anchor: end" x="50.6" y="198.103456" transform="rotate(-0 50.6 198.103456)">0.6</text>
     </g>
    </g>
    <g id="ytick_5">
     <g id="line2d_11">
      <g>
       <use xlink:href="#mdb18d68bde" x="57.6" y="160.648011" style="stroke: #000000; stroke-width: 0.8"/>
      </g>
     </g>
     <g id="text_12">
      <text style="font: 10px 'IPAexGothic'; text-anchor: end" x="50.6" y="164.393323" transform="rotate(-0 50.6 164.393323)">0.8</text>
     </g>
    </g>
    <g id="ytick_6">
     <g id="line2d_12">
      <g>
       <use xlink:href="#mdb18d68bde" x="57.6" y="126.937877" style="stroke: #000000; stroke-width: 0.8"/>
      </g>
     </g>
     <g id="text_13">
      <text style="font: 10px 'IPAexGothic'; text-anchor: end" x="50.6" y="130.68319" transform="rotate(-0 50.6 130.68319)">1.0</text>
     </g>
    </g>
    <g id="ytick_7">
     <g id="line2d_13">
      <g>
       <use xlink:href="#mdb18d68bde" x="57.6" y="93.227744" style="stroke: #000000; stroke-width: 0.8"/>
      </g>
     </g>
     <g id="text_14">
      <text style="font: 10px 'IPAexGothic'; text-anchor: end" x="50.6" y="96.973056" transform="rotate(-0 50.6 96.973056)">1.2</text>
     </g>
    </g>
    <g id="ytick_8">
     <g id="line2d_14">
      <g>
       <use xlink:href="#mdb18d68bde" x="57.6" y="59.51761" style="stroke: #000000; stroke-width: 0.8"/>
      </g>
     </g>
     <g id="text_15">
      <text style="font: 10px 'IPAexGothic'; text-anchor: end" x="50.6" y="63.262923" transform="rotate(-0 50.6 63.262923)">1.4</text>
     </g>
    </g>
    <g id="text_16">
     <text style="font: 10px 'IPAexGothic'; text-anchor: middle" x="29.460938" y="174.528" transform="rotate(-90 29.460938 174.528)">振幅</text>
    </g>
    <g id="text_17">
     <text style="font: 10px 'IPAexGothic'; text-anchor: start" x="57.6" y="38.472" transform="rotate(-0 57.6 38.472)">1e7</text>
    </g>
   </g>
   <g id="line2d_15">
    <path d="M 73.832727 293.690243 
L 73.965266 295.088294 
L 74.097805 295.075496 
L 74.296614 295.100034 
L 74.362884 295.372828 
L 74.429153 295.151014 
L 74.495423 295.18301 
L 74.561692 295.352586 
L 74.627962 295.174055 
L 74.694231 294.447007 
L 74.760501 294.565764 
L 74.826771 294.916049 
L 74.95931 293.492282 
L 75.025579 293.962854 
L 75.091849 295.114882 
L 75.158118 294.6552 
L 75.224388 294.571618 
L 75.290657 295.16665 
L 75.489466 294.010308 
L 75.622005 294.159586 
L 75.688275 293.961122 
L 75.754544 294.649617 
L 75.887083 292.935 
L 76.284701 295.10166 
L 76.41724 295.056484 
L 76.549779 293.942463 
L 76.616049 294.945436 
L 76.682318 294.447614 
L 76.814857 294.713738 
L 76.881127 294.21063 
L 77.013666 295.145208 
L 77.079935 294.861017 
L 77.146205 295.163697 
L 77.212475 294.19015 
L 77.278744 294.512039 
L 77.345014 294.564622 
L 77.610092 295.201459 
L 77.676361 295.327004 
L 77.808901 294.441267 
L 77.87517 294.776677 
L 77.94144 295.351631 
L 78.073979 294.452333 
L 78.140248 294.737265 
L 78.339057 293.819037 
L 78.405327 294.521731 
L 78.471596 294.394523 
L 78.670405 293.979087 
L 78.736674 294.642017 
L 78.802944 294.377842 
L 78.869213 294.388134 
L 79.001752 294.705157 
L 79.068022 294.446005 
L 79.134292 294.513931 
L 79.200561 294.41896 
L 79.266831 293.950658 
L 79.3331 294.189051 
L 79.39937 294.521294 
L 79.465639 293.425193 
L 79.598178 294.871207 
L 79.730718 293.620429 
L 79.796987 293.809839 
L 79.863257 294.634005 
L 79.929526 294.157806 
L 79.995796 293.936944 
L 80.062065 294.596944 
L 80.128335 293.853272 
L 80.194604 294.059929 
L 80.260874 293.964325 
L 80.393413 294.124703 
L 80.459683 293.243279 
L 80.525952 294.5055 
L 80.592222 294.280995 
L 80.658491 293.056187 
L 80.724761 293.839381 
L 80.92357 292.309541 
L 81.056109 294.079546 
L 81.122378 294.040179 
L 81.188648 293.897437 
L 81.254917 294.617738 
L 81.453726 293.518803 
L 81.519996 293.140443 
L 81.586265 293.754953 
L 81.652535 292.972652 
L 81.718804 293.077214 
L 81.851343 292.933477 
L 81.917613 293.066922 
L 82.050152 291.445395 
L 82.116422 292.39857 
L 82.182691 292.346595 
L 82.31523 290.644111 
L 82.3815 291.558354 
L 82.447769 291.002944 
L 82.514039 291.446899 
L 82.646578 288.426303 
L 82.779117 291.912273 
L 82.845387 291.394657 
L 83.044195 293.151943 
L 83.110465 293.609092 
L 83.176734 293.553462 
L 83.243004 293.564681 
L 83.309274 292.957763 
L 83.375543 293.838574 
L 83.441813 293.831264 
L 83.574352 293.511753 
L 83.640621 293.640314 
L 83.706891 294.447843 
L 83.77316 294.092736 
L 83.905699 293.941673 
L 83.971969 294.427853 
L 84.038239 294.12952 
L 84.170778 294.334867 
L 84.303317 293.823591 
L 84.369586 294.023478 
L 84.435856 293.887165 
L 84.568395 293.186908 
L 84.634665 293.530948 
L 84.700934 293.178709 
L 84.767204 293.295852 
L 84.833473 293.974889 
L 84.899743 293.958997 
L 84.966012 293.771773 
L 85.032282 293.815469 
L 85.231091 294.013027 
L 85.36363 292.913673 
L 85.496169 293.268423 
L 85.562438 293.425397 
L 86.092595 289.685541 
L 86.225134 287.928336 
L 86.291403 289.338488 
L 86.423943 285.295499 
L 86.490212 287.678286 
L 86.556482 287.558486 
L 86.622751 283.676307 
L 86.689021 284.157941 
L 86.82156 286.823218 
L 86.887829 286.391189 
L 86.954099 285.311296 
L 87.152908 277.571966 
L 87.285447 280.150446 
L 87.417986 271.550702 
L 87.484255 274.346248 
L 87.616795 272.241908 
L 87.815603 255.008423 
L 88.014412 263.468902 
L 88.080681 259.527375 
L 88.27949 208.739193 
L 88.412029 53.568 
L 88.544568 217.2566 
L 88.610838 207.776976 
L 88.809646 264.961979 
L 88.942186 258.721577 
L 89.008455 271.917644 
L 89.074725 271.217612 
L 89.273533 278.430708 
L 89.472342 283.381635 
L 89.73742 291.284009 
L 89.869959 286.893327 
L 89.936229 287.53702 
L 90.002498 288.235409 
L 90.135038 284.675311 
L 90.201307 292.788539 
L 90.267577 289.411391 
L 90.333846 289.822727 
L 90.532655 284.196108 
L 90.797733 268.720886 
L 90.930272 284.382744 
L 90.996542 283.254775 
L 91.19535 292.541161 
L 91.394159 284.392626 
L 91.592968 288.145966 
L 91.659237 287.703899 
L 91.725507 286.605489 
L 91.990585 292.239552 
L 92.123124 288.124839 
L 92.189394 288.627848 
L 92.255663 288.361217 
L 92.321933 288.581417 
L 92.388202 287.652412 
L 92.520742 289.423973 
L 92.587011 289.264108 
L 92.653281 288.954515 
L 92.71955 289.188761 
L 92.852089 291.998379 
L 92.918359 291.030555 
L 93.050898 291.682515 
L 93.183437 290.612532 
L 93.315976 291.996027 
L 93.382246 291.469221 
L 93.514785 293.781813 
L 93.581054 293.627667 
L 93.713593 291.797327 
L 93.779863 291.927351 
L 93.912402 293.234592 
L 93.978672 293.070573 
L 94.044941 292.969531 
L 94.111211 293.508726 
L 94.24375 292.115351 
L 94.508828 293.662417 
L 94.707637 292.448952 
L 94.773906 292.496548 
L 94.906445 293.737092 
L 94.972715 293.707812 
L 95.237793 292.305429 
L 95.370332 293.804157 
L 95.502871 293.378673 
L 95.569141 293.58503 
L 95.635411 293.495348 
L 95.76795 294.304323 
L 96.033028 293.493076 
L 96.099297 294.046099 
L 96.165567 293.780414 
L 96.430645 292.532038 
L 96.563184 293.441978 
L 96.629454 292.519868 
L 96.695723 292.829129 
L 96.761993 293.047473 
L 96.894532 291.23084 
L 97.093341 293.624389 
L 97.22588 291.754905 
L 97.358419 292.593383 
L 97.623497 290.918105 
L 97.689767 291.13199 
L 97.822306 292.10636 
L 97.888575 291.677354 
L 97.954845 291.70884 
L 98.087384 292.190022 
L 98.153654 291.611271 
L 98.219923 291.869912 
L 98.352462 292.076145 
L 98.485001 293.815535 
L 98.551271 292.820027 
L 98.61754 293.324594 
L 98.68381 292.939975 
L 98.75008 293.831298 
L 98.816349 293.2677 
L 98.882619 293.249107 
L 99.081427 294.217445 
L 99.280236 294.411766 
L 99.346506 294.292555 
L 99.545314 294.767766 
L 99.611584 294.721309 
L 99.744123 295.31734 
L 99.810392 295.225128 
L 99.942932 294.900698 
L 100.009201 295.126687 
L 100.075471 295.007568 
L 100.340549 295.413794 
L 100.406818 295.241343 
L 100.473088 295.350814 
L 100.539358 295.29606 
L 100.605627 295.035512 
L 100.671897 295.120681 
L 101.135784 294.637436 
L 101.66594 293.014862 
L 101.73221 292.337769 
L 101.798479 292.698833 
L 101.864749 292.271369 
L 101.931018 293.162344 
L 101.997288 291.156142 
L 102.063557 291.787448 
L 102.328636 289.555626 
L 102.394905 290.289546 
L 102.461175 290.213357 
L 102.659983 288.322219 
L 102.726253 288.297626 
L 102.858792 286.165068 
L 102.925062 242.312923 
L 102.991331 269.973507 
L 103.057601 245.543503 
L 103.19014 123.367672 
L 103.388948 251.033054 
L 103.455218 253.301081 
L 103.654027 278.160708 
L 103.786566 285.680802 
L 103.852835 286.205783 
L 104.117913 293.626187 
L 104.250453 294.073442 
L 104.316722 295.200753 
L 104.64807 289.061195 
L 104.714339 289.832819 
L 104.780609 290.141252 
L 104.979418 293.44808 
L 105.045687 292.685616 
L 105.178226 290.315032 
L 105.244496 289.930195 
L 105.509574 291.963222 
L 105.575844 292.007393 
L 105.840922 293.051308 
L 105.907191 292.773227 
L 106.039731 291.110103 
L 106.17227 293.138844 
L 106.238539 292.853358 
L 106.304809 292.964968 
L 106.371078 291.743884 
L 106.503617 293.787048 
L 106.569887 293.169039 
L 106.768696 293.913892 
L 106.967504 293.213128 
L 107.033774 293.197143 
L 107.166313 293.351821 
L 107.232583 293.200493 
L 107.431391 294.087289 
L 107.497661 293.762705 
L 107.56393 293.776706 
L 107.6302 293.551339 
L 107.762739 292.508553 
L 107.961548 294.505288 
L 108.027817 294.206156 
L 108.094087 294.290524 
L 108.160356 294.571566 
L 108.226626 294.373332 
L 108.425435 294.763062 
L 108.557974 294.131425 
L 108.823052 295.145729 
L 108.889321 294.752077 
L 108.955591 294.782311 
L 109.08813 294.51409 
L 109.1544 294.717036 
L 109.220669 294.377238 
L 109.286939 294.57267 
L 109.353208 294.319856 
L 109.419478 294.549002 
L 109.485747 294.160227 
L 109.552017 294.447353 
L 109.618286 294.420132 
L 109.684556 294.049782 
L 109.750826 294.226774 
L 109.817095 294.698315 
L 109.883365 294.561739 
L 109.949634 294.566396 
L 110.015904 294.81661 
L 110.082173 294.498661 
L 110.148443 294.517089 
L 110.214712 294.551822 
L 110.347252 294.745773 
L 110.479791 294.359244 
L 110.54606 294.44479 
L 110.61233 294.52966 
L 110.678599 294.416624 
L 110.744869 294.566235 
L 110.811138 294.09574 
L 110.877408 294.338182 
L 111.009947 294.493027 
L 111.208756 294.256345 
L 111.275025 294.587934 
L 111.341295 294.39945 
L 111.407564 294.341205 
L 111.540104 294.589383 
L 111.672643 293.893378 
L 111.738912 294.484799 
L 111.805182 294.24109 
L 111.937721 293.857385 
L 112.00399 294.153698 
L 112.07026 294.016276 
L 112.13653 294.206572 
L 112.600416 293.31439 
L 112.666686 293.296231 
L 112.865495 294.201058 
L 112.931764 293.551971 
L 112.998034 293.638656 
L 113.064303 293.704999 
L 113.196842 292.989401 
L 113.263112 293.337681 
L 113.329382 292.751488 
L 113.461921 293.693762 
L 113.59446 293.343965 
L 113.726999 293.938121 
L 113.793268 293.656325 
L 113.859538 293.822467 
L 113.992077 294.344438 
L 114.058347 294.276159 
L 114.124616 294.640917 
L 114.190886 294.536034 
L 114.522233 293.948003 
L 114.588503 294.260834 
L 114.654773 294.166594 
L 114.853581 293.336658 
L 114.98612 294.633752 
L 115.05239 294.449455 
L 115.251199 293.777385 
L 115.317468 294.255053 
L 115.383738 293.857988 
L 115.450007 293.97516 
L 115.516277 293.941162 
L 115.648816 293.259852 
L 115.715085 293.416675 
L 115.847625 293.725591 
L 115.913894 293.291135 
L 115.980164 293.395223 
L 116.046433 293.991765 
L 116.112703 293.589564 
L 116.245242 292.87122 
L 116.311511 293.421163 
L 116.377781 292.762629 
L 116.444051 292.861913 
L 116.57659 293.663933 
L 116.907937 292.178502 
L 116.974207 292.332272 
L 117.106746 290.667289 
L 117.173016 290.717923 
L 117.239285 291.403831 
L 117.504363 283.097999 
L 117.636903 213.812987 
L 117.835711 281.663132 
L 118.03452 291.282978 
L 118.167059 292.053202 
L 118.233329 290.961338 
L 118.365868 293.579085 
L 118.432137 293.427819 
L 118.564676 294.269665 
L 118.630946 294.09348 
L 118.697215 294.601431 
L 118.763485 294.578158 
L 118.896024 294.506397 
L 119.094833 294.63887 
L 119.227372 295.139501 
L 119.293641 295.266854 
L 119.359911 295.193676 
L 119.691259 295.125613 
L 119.890067 294.627855 
L 119.956337 294.508858 
L 120.088876 294.796651 
L 120.155146 294.764651 
L 120.420224 295.332999 
L 120.619032 295.417504 
L 120.685302 295.393924 
L 120.751572 295.162094 
L 120.817841 295.197741 
L 121.215458 295.142622 
L 121.414267 295.302199 
L 123.99878 295.304287 
L 124.197588 295.175511 
L 124.661475 295.266497 
L 124.926553 295.187487 
L 125.191632 295.234128 
L 125.39044 294.992808 
L 125.45671 295.172879 
L 125.522979 295.083991 
L 125.589249 294.956866 
L 125.721788 295.29342 
L 126.053136 295.035189 
L 126.119405 295.12137 
L 126.251945 294.994641 
L 126.649562 295.082447 
L 126.782101 294.931869 
L 126.848371 294.93663 
L 126.98091 295.199848 
L 127.245988 295.001143 
L 127.312257 295.027272 
L 127.444797 294.6115 
L 127.577336 294.8282 
L 127.643605 294.597408 
L 127.709875 294.758859 
L 127.842414 294.74646 
L 128.107492 294.790615 
L 128.306301 295.153244 
L 128.902727 295.015964 
L 129.167805 295.207968 
L 129.300344 295.189455 
L 129.499153 295.389798 
L 129.96304 295.310412 
L 130.228118 295.432266 
L 130.426926 295.117437 
L 130.625735 294.676814 
L 130.692005 294.834159 
L 130.758274 294.779273 
L 131.023352 294.850262 
L 131.3547 294.155904 
L 131.42097 294.274471 
L 131.487239 293.852345 
L 131.553509 293.92422 
L 131.619778 294.148268 
L 131.686048 293.740008 
L 131.752318 293.752376 
L 131.818587 293.92857 
L 131.884857 293.667674 
L 132.282474 283.466963 
L 132.415013 270.133454 
L 132.481283 276.267391 
L 132.547552 275.533313 
L 132.680091 289.225762 
L 132.746361 288.191913 
L 132.94517 292.839517 
L 133.143978 294.21634 
L 133.276517 294.902158 
L 133.342787 294.795717 
L 133.409056 295.147813 
L 133.475326 295.125288 
L 133.806674 295.259888 
L 134.005482 295.107845 
L 134.138021 295.150815 
L 134.204291 295.049377 
L 134.270561 295.097767 
L 134.33683 295.082075 
L 134.535639 295.284115 
L 134.800717 295.373598 
L 134.999526 295.288714 
L 136.258647 295.436399 
L 136.391186 295.382845 
L 136.589995 295.447434 
L 137.782847 295.426119 
L 138.180464 295.483169 
L 138.644351 295.415611 
L 138.909429 295.429459 
L 138.975699 295.372056 
L 139.041968 295.457597 
L 139.307047 295.429522 
L 140.632438 295.364128 
L 140.897516 295.39672 
L 141.162594 295.450261 
L 141.228864 295.23985 
L 141.295133 295.366709 
L 141.626481 295.439439 
L 141.82529 295.422343 
L 142.156638 295.442853 
L 142.355446 295.38788 
L 145.205037 295.365952 
L 145.470115 295.335331 
L 146.19908 295.300006 
L 146.397889 295.166545 
L 146.530428 295.366305 
L 146.662967 294.659256 
L 146.795506 295.302551 
L 146.861776 295.099859 
L 146.928045 295.02682 
L 147.060585 294.10916 
L 147.259393 295.03175 
L 147.458202 295.406869 
L 147.657011 295.369417 
L 147.855819 295.411245 
L 148.253437 295.399344 
L 148.849862 295.426567 
L 149.114941 295.42785 
L 150.108984 295.449946 
L 150.374062 295.470088 
L 150.70541 295.43448 
L 151.103027 295.446199 
L 151.235566 295.434413 
L 151.765723 295.373753 
L 152.097071 295.374318 
L 152.362149 295.368601 
L 152.759766 295.389838 
L 153.024844 295.384255 
L 153.223653 295.367899 
L 153.422462 295.384304 
L 153.62127 295.357689 
L 154.085157 295.332713 
L 154.283966 295.263587 
L 154.814122 295.266987 
L 157.332365 295.364126 
L 159.254182 295.263355 
L 159.320452 295.359929 
L 159.386722 295.26609 
L 159.58553 295.275745 
L 160.049417 295.244391 
L 160.447034 295.201289 
L 160.645843 295.293007 
L 160.778382 295.209885 
L 160.844652 295.197392 
L 160.977191 294.783788 
L 161.04346 294.99034 
L 161.10973 294.929009 
L 161.176 294.629567 
L 161.242269 294.822865 
L 161.308539 295.183061 
L 161.374808 294.949438 
L 161.639886 293.440589 
L 161.772426 292.092516 
L 161.838695 292.609425 
L 161.904965 290.724863 
L 162.103773 293.767634 
L 162.302582 294.684012 
L 162.501391 294.910021 
L 162.56766 294.855782 
L 162.63393 294.654285 
L 162.766469 295.000688 
L 162.832738 294.888081 
L 162.899008 295.163092 
L 162.965278 295.131454 
L 163.031547 295.045841 
L 163.097817 295.122064 
L 163.230356 295.297534 
L 163.561704 295.386654 
L 164.09186 295.31013 
L 164.290669 295.325703 
L 164.622016 295.308171 
L 164.754555 295.34623 
L 165.284712 295.33332 
L 166.146216 295.335145 
L 166.345025 295.402935 
L 166.941451 295.388784 
L 167.405338 295.38678 
L 168.333111 295.393334 
L 170.122389 295.442334 
L 170.718815 295.442219 
L 175.821571 295.356662 
L 175.95411 295.127755 
L 176.02038 295.210336 
L 176.086649 294.999896 
L 176.219188 293.165681 
L 176.285458 293.425344 
L 176.484267 294.888315 
L 176.550536 294.850794 
L 176.616806 294.585354 
L 176.881884 295.457036 
L 177.279501 295.284609 
L 177.41204 295.201815 
L 177.677119 295.306316 
L 177.875927 295.304845 
L 178.074736 295.374662 
L 183.44257 295.330866 
L 183.641378 295.357318 
L 184.83423 295.385928 
L 184.966769 295.378409 
L 185.298117 295.41786 
L 185.695735 295.388415 
L 185.828274 295.422034 
L 186.159621 295.36001 
L 186.4247 295.39762 
L 186.954856 295.443832 
L 187.087395 295.440833 
L 187.418743 295.399512 
L 187.683821 295.41603 
L 188.479056 295.350501 
L 188.876673 295.325892 
L 189.009212 295.301808 
L 189.141751 295.341895 
L 189.34056 295.123649 
L 189.473099 295.304043 
L 189.539369 295.261191 
L 189.804447 295.144841 
L 189.870716 295.233007 
L 189.936986 295.168956 
L 190.069525 295.174366 
L 190.135795 294.970144 
L 190.202064 294.992171 
L 190.467142 295.184154 
L 190.599682 294.712796 
L 190.665951 294.76387 
L 190.732221 294.860987 
L 190.86476 294.676476 
L 190.931029 294.72116 
L 191.262377 293.897924 
L 191.461186 292.403337 
L 191.593725 289.021597 
L 191.792534 293.003368 
L 191.991342 294.177624 
L 192.123881 294.524827 
L 192.190151 294.418226 
L 192.25642 294.502093 
L 192.587768 295.04956 
L 192.654038 294.992792 
L 192.786577 295.136796 
L 192.985386 295.172942 
L 193.250464 295.243011 
L 193.449272 295.214602 
L 193.648081 295.357411 
L 193.84689 295.307325 
L 194.178237 295.372587 
L 194.642124 295.429993 
L 195.039742 295.457545 
L 200.142497 295.450263 
L 200.275036 295.469462 
L 200.805193 295.451728 
L 202.859549 295.440633 
L 203.455975 295.434224 
L 204.18494 295.420429 
L 204.383749 295.425458 
L 204.516288 295.411213 
L 204.715097 295.403812 
L 205.576601 295.234529 
L 205.70914 295.199815 
L 205.841679 295.197765 
L 206.106757 294.792272 
L 206.371835 293.632892 
L 206.438105 294.193942 
L 206.504375 294.113069 
L 206.901992 295.138006 
L 207.034531 295.028179 
L 207.365879 295.269623 
L 208.094844 295.33904 
L 208.426192 295.383869 
L 213.330139 295.476923 
L 213.992834 295.478209 
L 214.854338 295.432661 
L 215.649573 295.438299 
L 217.041234 295.448693 
L 217.240042 295.434567 
L 217.902738 295.404072 
L 219.890824 295.333826 
L 220.089633 295.308283 
L 220.222172 295.313841 
L 220.48725 295.291971 
L 220.61979 295.139795 
L 220.951137 295.112117 
L 221.083676 294.879034 
L 221.282485 294.176599 
L 221.348755 294.278949 
L 221.547563 295.236476 
L 222.07772 295.381965 
L 222.409068 295.419865 
L 223.60192 295.472592 
L 224.927311 295.463029 
L 225.324928 295.47098 
L 230.493953 295.453352 
L 230.825301 295.44293 
L 231.487996 295.453311 
L 233.741161 295.375409 
L 234.006239 295.393763 
L 234.337587 295.365176 
L 234.602665 295.373454 
L 234.934013 295.35667 
L 235.331631 295.277814 
L 235.530439 295.320869 
L 236.193135 294.986576 
L 236.259404 294.443954 
L 236.325674 294.48985 
L 236.458213 294.898033 
L 236.723291 294.734249 
L 236.85583 295.264864 
L 238.247491 295.468909 
L 238.711378 295.439685 
L 250.971245 295.42697 
L 251.501402 295.394946 
L 251.83275 295.485559 
L 254.284723 295.46198 
L 254.74861 295.45128 
L 255.676384 295.446245 
L 256.20654 295.47308 
L 257.134314 295.454012 
L 260.911678 295.452384 
L 261.375565 295.473333 
L 262.435878 295.469667 
L 265.020391 295.469305 
L 265.550547 295.440495 
L 266.213243 295.424375 
L 266.61086 295.443427 
L 266.809669 295.428256 
L 267.339825 295.407304 
L 268.598947 295.476711 
L 270.852112 295.466761 
L 271.448538 295.467497 
L 277.611606 295.471856 
L 277.942954 295.4677 
L 281.587779 295.387709 
L 281.852858 295.348785 
L 282.250475 295.413902 
L 282.91317 295.434896 
L 283.708405 295.462978 
L 292.257178 295.443799 
L 292.455986 295.441037 
L 292.919873 295.460399 
L 294.178995 295.463377 
L 294.576612 295.475702 
L 298.552785 295.481758 
L 300.209524 295.474689 
L 304.583315 295.458183 
L 304.914662 295.476837 
L 308.22814 295.469095 
L 309.354722 295.444044 
L 309.884879 295.445898 
L 311.872966 295.393751 
L 312.403122 295.37137 
L 312.6682 295.38932 
L 313.198357 295.380215 
L 313.529704 295.371556 
L 314.12613 295.426288 
L 314.722556 295.446028 
L 315.186443 295.447525 
L 316.313026 295.468581 
L 317.704686 295.469684 
L 318.367382 295.47554 
L 320.15666 295.461618 
L 320.620547 295.478774 
L 322.277286 295.466506 
L 322.674903 295.46394 
L 323.337598 295.479868 
L 325.391955 295.475316 
L 326.319728 295.468098 
L 327.51258 295.449746 
L 328.042737 295.470493 
L 328.506624 295.435743 
L 328.771702 295.457151 
L 333.609379 295.479167 
L 334.205805 295.476527 
L 335.597466 295.485909 
L 336.591509 295.473611 
L 339.043483 295.453043 
L 339.4411 295.450865 
L 340.170065 295.436145 
L 343.616082 295.117823 
L 343.814891 295.064143 
L 343.88116 295.101006 
L 344.079969 294.938628 
L 344.146238 295.006482 
L 344.212508 294.93406 
L 344.543856 295.020978 
L 344.610125 294.995121 
L 344.742664 295.15497 
L 344.875203 295.183419 
L 345.33909 295.304667 
L 349.91169 295.450968 
L 350.441846 295.443111 
L 350.706924 295.467373 
L 351.038272 295.461177 
L 352.297394 295.469997 
L 353.092628 295.479353 
L 353.954132 295.453666 
L 354.35175 295.483496 
L 356.472375 295.478645 
L 359.189427 295.421434 
L 359.918392 295.246825 
L 359.984662 295.107801 
L 360.050931 295.147208 
L 360.382279 295.14467 
L 360.647357 295.109186 
L 361.111244 295.348536 
L 361.243783 295.212223 
L 361.508862 295.341938 
L 361.70767 295.336915 
L 361.906479 295.393391 
L 364.888609 295.418447 
L 365.418765 295.430871 
L 367.605661 295.434564 
L 368.798512 295.428346 
L 369.394938 295.411191 
L 369.660017 295.442794 
L 370.057634 295.431606 
L 371.051677 295.437639 
L 371.780642 295.456949 
L 380.196876 295.457228 
L 381.986154 295.479047 
L 391.197622 295.286201 
L 391.4627 295.245941 
L 391.860317 295.20744 
L 391.992856 295.184095 
L 392.125396 295.192309 
L 392.324204 295.201238 
L 392.854361 295.18339 
L 393.119439 295.252879 
L 393.649595 295.251605 
L 394.246021 295.331708 
L 395.438873 295.431838 
L 397.824577 295.445449 
L 398.354734 295.436654 
L 398.487273 295.462036 
L 398.487273 295.462036 
" clip-path="url(#pf6673c9e36)" style="fill: none; stroke: #1f77b4; stroke-width: 1.5; stroke-linecap: square"/>
   </g>
   <g id="patch_3">
    <path d="M 57.6 307.584 
L 57.6 41.472 
" style="fill: none; stroke: #000000; stroke-width: 0.8; stroke-linejoin: miter; stroke-linecap: square"/>
   </g>
   <g id="patch_4">
    <path d="M 414.72 307.584 
L 414.72 41.472 
" style="fill: none; stroke: #000000; stroke-width: 0.8; stroke-linejoin: miter; stroke-linecap: square"/>
   </g>
   <g id="patch_5">
    <path d="M 57.6 307.584 
L 414.72 307.584 
" style="fill: none; stroke: #000000; stroke-width: 0.8; stroke-linejoin: miter; stroke-linecap: square"/>
   </g>
   <g id="patch_6">
    <path d="M 57.6 41.472 
L 414.72 41.472 
" style="fill: none; stroke: #000000; stroke-width: 0.8; stroke-linejoin: miter; stroke-linecap: square"/>
   </g>
   <g id="text_18">
    <text style="font: 12px 'IPAexGothic'; text-anchor: middle" x="236.16" y="35.472" transform="rotate(-0 236.16 35.472)">"047_A3.wav"の振幅スペクトル</text>
   </g>
  </g>
 </g>
 <defs>
  <clipPath id="pf6673c9e36">
   <rect x="57.6" y="41.472" width="357.12" height="266.112"/>
  </clipPath>
 </defs>
</svg>
