<?xml version="1.0" encoding="utf-8" standalone="no"?>
<!DOCTYPE svg PUBLIC "-//W3C//DTD SVG 1.1//EN"
  "http://www.w3.org/Graphics/SVG/1.1/DTD/svg11.dtd">
<svg xmlns:xlink="http://www.w3.org/1999/xlink" width="460.8pt" height="345.6pt" viewBox="0 0 460.8 345.6" xmlns="http://www.w3.org/2000/svg" version="1.1">
 <metadata>
  <rdf:RDF xmlns:dc="http://purl.org/dc/elements/1.1/" xmlns:cc="http://creativecommons.org/ns#" xmlns:rdf="http://www.w3.org/1999/02/22-rdf-syntax-ns#">
   <cc:Work>
    <dc:type rdf:resource="http://purl.org/dc/dcmitype/StillImage"/>
    <dc:date>2022-11-28T12:33:48.208949</dc:date>
    <dc:format>image/svg+xml</dc:format>
    <dc:creator>
     <cc:Agent>
      <dc:title>Matplotlib v3.6.2, https://matplotlib.org/</dc:title>
     </cc:Agent>
    </dc:creator>
   </cc:Work>
  </rdf:RDF>
 </metadata>
 <defs>
  <style type="text/css">*{stroke-linejoin: round; stroke-linecap: butt}</style>
 </defs>
 <g id="figure_1">
  <g id="patch_1">
   <path d="M 0 345.6 
L 460.8 345.6 
L 460.8 0 
L 0 0 
z
" style="fill: #ffffff"/>
  </g>
  <g id="axes_1">
   <g id="patch_2">
    <path d="M 57.6 307.584 
L 414.72 307.584 
L 414.72 41.472 
L 57.6 41.472 
z
" style="fill: #ffffff"/>
   </g>
   <g id="matplotlib.axis_1">
    <g id="xtick_1">
     <g id="line2d_1">
      <defs>
       <path id="m9058589a16" d="M 0 0 
L 0 3.5 
" style="stroke: #000000; stroke-width: 0.8"/>
      </defs>
      <g>
       <use xlink:href="#m9058589a16" x="73.832727" y="307.584" style="stroke: #000000; stroke-width: 0.8"/>
      </g>
     </g>
     <g id="text_1">
      <text style="font: 10px 'IPAexGothic'; text-anchor: middle" x="73.832727" y="322.074625" transform="rotate(-0 73.832727 322.074625)">0</text>
     </g>
    </g>
    <g id="xtick_2">
     <g id="line2d_2">
      <g>
       <use xlink:href="#m9058589a16" x="140.102281" y="307.584" style="stroke: #000000; stroke-width: 0.8"/>
      </g>
     </g>
     <g id="text_2">
      <text style="font: 10px 'IPAexGothic'; text-anchor: middle" x="140.102281" y="322.074625" transform="rotate(-0 140.102281 322.074625)">1000</text>
     </g>
    </g>
    <g id="xtick_3">
     <g id="line2d_3">
      <g>
       <use xlink:href="#m9058589a16" x="206.371835" y="307.584" style="stroke: #000000; stroke-width: 0.8"/>
      </g>
     </g>
     <g id="text_3">
      <text style="font: 10px 'IPAexGothic'; text-anchor: middle" x="206.371835" y="322.074625" transform="rotate(-0 206.371835 322.074625)">2000</text>
     </g>
    </g>
    <g id="xtick_4">
     <g id="line2d_4">
      <g>
       <use xlink:href="#m9058589a16" x="272.64139" y="307.584" style="stroke: #000000; stroke-width: 0.8"/>
      </g>
     </g>
     <g id="text_4">
      <text style="font: 10px 'IPAexGothic'; text-anchor: middle" x="272.64139" y="322.074625" transform="rotate(-0 272.64139 322.074625)">3000</text>
     </g>
    </g>
    <g id="xtick_5">
     <g id="line2d_5">
      <g>
       <use xlink:href="#m9058589a16" x="338.910944" y="307.584" style="stroke: #000000; stroke-width: 0.8"/>
      </g>
     </g>
     <g id="text_5">
      <text style="font: 10px 'IPAexGothic'; text-anchor: middle" x="338.910944" y="322.074625" transform="rotate(-0 338.910944 322.074625)">4000</text>
     </g>
    </g>
    <g id="xtick_6">
     <g id="line2d_6">
      <g>
       <use xlink:href="#m9058589a16" x="405.180498" y="307.584" style="stroke: #000000; stroke-width: 0.8"/>
      </g>
     </g>
     <g id="text_6">
      <text style="font: 10px 'IPAexGothic'; text-anchor: middle" x="405.180498" y="322.074625" transform="rotate(-0 405.180498 322.074625)">5000</text>
     </g>
    </g>
    <g id="text_7">
     <text style="font: 10px 'IPAexGothic'; text-anchor: middle" x="236.16" y="335.924625" transform="rotate(-0 236.16 335.924625)">周波数[Hz]</text>
    </g>
   </g>
   <g id="matplotlib.axis_2">
    <g id="ytick_1">
     <g id="line2d_7">
      <defs>
       <path id="mf70324e034" d="M 0 0 
L -3.5 0 
" style="stroke: #000000; stroke-width: 0.8"/>
      </defs>
      <g>
       <use xlink:href="#mf70324e034" x="57.6" y="295.492876" style="stroke: #000000; stroke-width: 0.8"/>
      </g>
     </g>
     <g id="text_8">
      <text style="font: 10px 'IPAexGothic'; text-anchor: end" x="50.6" y="299.238189" transform="rotate(-0 50.6 299.238189)">0.0</text>
     </g>
    </g>
    <g id="ytick_2">
     <g id="line2d_8">
      <g>
       <use xlink:href="#mf70324e034" x="57.6" y="255.229731" style="stroke: #000000; stroke-width: 0.8"/>
      </g>
     </g>
     <g id="text_9">
      <text style="font: 10px 'IPAexGothic'; text-anchor: end" x="50.6" y="258.975044" transform="rotate(-0 50.6 258.975044)">0.2</text>
     </g>
    </g>
    <g id="ytick_3">
     <g id="line2d_9">
      <g>
       <use xlink:href="#mf70324e034" x="57.6" y="214.966586" style="stroke: #000000; stroke-width: 0.8"/>
      </g>
     </g>
     <g id="text_10">
      <text style="font: 10px 'IPAexGothic'; text-anchor: end" x="50.6" y="218.711898" transform="rotate(-0 50.6 218.711898)">0.4</text>
     </g>
    </g>
    <g id="ytick_4">
     <g id="line2d_10">
      <g>
       <use xlink:href="#mf70324e034" x="57.6" y="174.70344" style="stroke: #000000; stroke-width: 0.8"/>
      </g>
     </g>
     <g id="text_11">
      <text style="font: 10px 'IPAexGothic'; text-anchor: end" x="50.6" y="178.448753" transform="rotate(-0 50.6 178.448753)">0.6</text>
     </g>
    </g>
    <g id="ytick_5">
     <g id="line2d_11">
      <g>
       <use xlink:href="#mf70324e034" x="57.6" y="134.440295" style="stroke: #000000; stroke-width: 0.8"/>
      </g>
     </g>
     <g id="text_12">
      <text style="font: 10px 'IPAexGothic'; text-anchor: end" x="50.6" y="138.185608" transform="rotate(-0 50.6 138.185608)">0.8</text>
     </g>
    </g>
    <g id="ytick_6">
     <g id="line2d_12">
      <g>
       <use xlink:href="#mf70324e034" x="57.6" y="94.17715" style="stroke: #000000; stroke-width: 0.8"/>
      </g>
     </g>
     <g id="text_13">
      <text style="font: 10px 'IPAexGothic'; text-anchor: end" x="50.6" y="97.922462" transform="rotate(-0 50.6 97.922462)">1.0</text>
     </g>
    </g>
    <g id="ytick_7">
     <g id="line2d_13">
      <g>
       <use xlink:href="#mf70324e034" x="57.6" y="53.914005" style="stroke: #000000; stroke-width: 0.8"/>
      </g>
     </g>
     <g id="text_14">
      <text style="font: 10px 'IPAexGothic'; text-anchor: end" x="50.6" y="57.659317" transform="rotate(-0 50.6 57.659317)">1.2</text>
     </g>
    </g>
    <g id="text_15">
     <text style="font: 10px 'IPAexGothic'; text-anchor: middle" x="29.460938" y="174.528" transform="rotate(-90 29.460938 174.528)">振幅</text>
    </g>
    <g id="text_16">
     <text style="font: 10px 'IPAexGothic'; text-anchor: start" x="57.6" y="38.472" transform="rotate(-0 57.6 38.472)">1e7</text>
    </g>
   </g>
   <g id="line2d_14">
    <path d="M 73.832727 295.183051 
L 73.898997 295.207373 
L 74.031536 294.429579 
L 74.097805 293.502937 
L 74.164075 289.855779 
L 74.362884 294.388583 
L 74.495423 292.881203 
L 74.760501 294.54351 
L 74.826771 293.996814 
L 74.95931 295.37853 
L 75.025579 295.098693 
L 75.091849 295.210931 
L 75.224388 295.197339 
L 75.754544 294.983936 
L 76.35097 295.425123 
L 77.411283 295.212134 
L 77.543822 294.924333 
L 77.610092 295.321416 
L 77.676361 295.167758 
L 77.742631 295.162023 
L 77.808901 294.617907 
L 77.94144 295.256834 
L 78.007709 295.198404 
L 78.073979 295.398907 
L 78.206518 295.174519 
L 78.670405 295.185741 
L 78.802944 294.94891 
L 78.869213 295.065558 
L 78.935483 294.996749 
L 79.200561 294.406535 
L 79.39937 295.194375 
L 79.465639 293.196912 
L 79.598178 295.033593 
L 79.664448 295.071076 
L 79.995796 293.352508 
L 80.062065 294.270712 
L 80.128335 293.526135 
L 80.194604 294.019356 
L 80.327144 294.780104 
L 80.393413 294.232028 
L 80.459683 294.568384 
L 80.525952 294.678541 
L 80.592222 294.230359 
L 80.658491 294.71018 
L 80.8573 293.744948 
L 80.92357 294.915025 
L 81.122378 293.580397 
L 81.188648 292.907657 
L 81.387456 295.132653 
L 81.519996 294.144006 
L 81.586265 295.008288 
L 81.652535 294.668957 
L 81.718804 294.546902 
L 81.785074 293.346082 
L 81.851343 293.421095 
L 82.050152 292.166114 
L 82.116422 293.783521 
L 82.182691 293.383685 
L 82.31523 291.587598 
L 82.447769 293.569069 
L 82.514039 291.515819 
L 82.580308 294.146831 
L 82.646578 290.715325 
L 82.712848 292.785181 
L 82.779117 295.004022 
L 82.911656 289.789311 
L 83.044195 295.257607 
L 83.176734 292.297629 
L 83.243004 293.60917 
L 83.309274 291.904977 
L 83.375543 294.552711 
L 83.574352 289.408871 
L 83.640621 289.528456 
L 83.706891 291.669078 
L 83.83943 289.615163 
L 83.971969 289.089846 
L 84.038239 290.773863 
L 84.104508 290.113933 
L 84.170778 291.001299 
L 84.237047 290.430762 
L 84.303317 288.494559 
L 84.369586 289.146529 
L 84.435856 288.94446 
L 84.568395 286.139695 
L 84.634665 286.119382 
L 84.767204 283.662993 
L 84.899743 288.683036 
L 85.098551 284.302017 
L 85.164821 286.359324 
L 85.231091 285.242353 
L 85.29736 285.634854 
L 85.36363 283.89233 
L 85.429899 287.963469 
L 85.496169 286.944961 
L 85.562438 286.535985 
L 85.827517 289.416337 
L 85.893786 290.449959 
L 85.960056 289.506437 
L 86.092595 292.878231 
L 86.158864 292.457486 
L 86.291403 294.259753 
L 86.357673 290.808172 
L 86.423943 290.831546 
L 86.490212 291.791178 
L 86.622751 290.448373 
L 86.689021 292.670901 
L 86.75529 291.666963 
L 86.887829 294.428925 
L 87.020369 291.814222 
L 87.219177 294.685316 
L 87.417986 291.057039 
L 87.484255 293.631885 
L 87.550525 290.615401 
L 87.616795 291.674785 
L 87.749334 289.199035 
L 87.815603 289.335789 
L 87.948142 265.948097 
L 88.014412 174.611407 
L 88.146951 269.532929 
L 88.27949 195.211379 
L 88.412029 286.784948 
L 88.478299 260.704323 
L 88.544568 258.732665 
L 88.610838 264.768153 
L 88.743377 190.041487 
L 88.942186 282.564423 
L 89.008455 283.078641 
L 89.074725 292.575838 
L 89.140994 290.758297 
L 89.207264 289.30317 
L 89.339803 292.980942 
L 89.406072 292.478829 
L 89.472342 292.598944 
L 89.538612 292.657794 
L 89.604881 293.272692 
L 89.671151 292.792558 
L 89.73742 293.186576 
L 89.80369 292.463123 
L 89.869959 292.571285 
L 90.068768 293.87762 
L 90.135038 293.456804 
L 90.267577 294.236063 
L 90.333846 293.722548 
L 90.400116 294.049805 
L 90.466385 294.642501 
L 90.532655 294.479038 
L 90.598924 294.042083 
L 90.731464 294.636622 
L 90.864003 293.024354 
L 90.930272 293.799045 
L 90.996542 293.539899 
L 91.129081 293.337974 
L 91.725507 295.34938 
L 91.990585 293.653556 
L 92.056855 293.809784 
L 92.123124 293.674513 
L 92.189394 293.73521 
L 92.255663 293.719478 
L 92.388202 294.316872 
L 92.520742 295.092944 
L 92.587011 294.714761 
L 92.918359 294.403253 
L 93.183437 295.453094 
L 93.315976 294.426875 
L 93.382246 294.667923 
L 93.448515 294.10185 
L 93.514785 294.342833 
L 93.647324 294.439451 
L 93.846133 294.953716 
L 93.978672 293.446252 
L 94.044941 293.962993 
L 94.24375 291.355294 
L 94.310019 291.551819 
L 94.508828 293.661757 
L 94.641367 292.897368 
L 94.773906 294.926621 
L 94.840176 294.160928 
L 94.972715 294.800079 
L 95.038985 294.653451 
L 95.105254 294.787626 
L 95.171524 295.300755 
L 95.304063 294.875566 
L 95.370332 295.341174 
L 95.436602 295.218899 
L 95.569141 294.359887 
L 95.635411 294.986493 
L 95.76795 293.643845 
L 95.834219 295.009499 
L 95.900489 294.37696 
L 96.033028 293.71954 
L 96.099297 294.514617 
L 96.231837 293.022899 
L 96.298106 294.326739 
L 96.364376 293.578701 
L 96.430645 293.356899 
L 96.629454 295.423779 
L 96.695723 293.76487 
L 96.828263 294.9153 
L 97.027071 293.535988 
L 97.093341 294.633007 
L 97.15961 293.118736 
L 97.22588 294.182159 
L 97.292149 293.848296 
L 97.358419 294.436643 
L 97.424689 294.229643 
L 97.490958 293.489764 
L 97.623497 294.702019 
L 97.689767 294.428967 
L 97.756036 294.962673 
L 97.822306 294.640267 
L 97.888575 294.728479 
L 97.954845 294.099213 
L 98.153654 295.115033 
L 98.219923 295.071625 
L 98.352462 294.716503 
L 98.485001 294.7899 
L 98.816349 291.92681 
L 98.948888 292.43347 
L 99.015158 291.021524 
L 99.081427 291.749189 
L 99.147697 292.890373 
L 99.213966 292.365537 
L 99.346506 291.953522 
L 99.479045 293.554518 
L 99.611584 292.730858 
L 99.677853 293.871558 
L 99.744123 293.760143 
L 99.876662 291.953649 
L 99.942932 292.98555 
L 100.075471 290.048622 
L 100.14174 291.451597 
L 100.20801 291.044747 
L 100.274279 289.865849 
L 100.473088 293.241087 
L 100.539358 293.556597 
L 100.605627 293.273354 
L 100.738166 294.084547 
L 100.804436 293.039085 
L 100.870705 293.300839 
L 101.135784 292.448403 
L 101.202053 291.476304 
L 101.268323 292.048328 
L 101.400862 292.890951 
L 101.467131 293.578792 
L 101.533401 291.368722 
L 101.73221 294.291667 
L 101.798479 294.483539 
L 101.864749 291.433696 
L 101.931018 293.094902 
L 101.997288 293.056722 
L 102.063557 291.895589 
L 102.129827 293.776347 
L 102.196096 279.119196 
L 102.262366 291.355727 
L 102.461175 264.053549 
L 102.527444 211.157169 
L 102.659983 283.114279 
L 102.858792 205.152337 
L 102.925062 53.568 
L 103.057601 274.329496 
L 103.12387 279.260635 
L 103.19014 274.448674 
L 103.256409 274.630893 
L 103.322679 285.764598 
L 103.388948 281.035569 
L 103.455218 277.093599 
L 103.521488 286.882395 
L 103.587757 275.958682 
L 103.786566 291.076898 
L 103.852835 294.443006 
L 103.919105 292.760216 
L 103.985374 294.814792 
L 104.051644 294.266878 
L 104.117913 295.287769 
L 104.250453 294.196103 
L 104.382992 295.365397 
L 104.5818 294.433762 
L 104.64807 294.52788 
L 104.714339 295.204201 
L 104.780609 294.955716 
L 104.846879 294.767464 
L 104.913148 295.148808 
L 104.979418 295.108923 
L 105.045687 295.204725 
L 105.111957 294.799732 
L 105.178226 294.837852 
L 105.244496 294.802775 
L 105.310765 294.115295 
L 105.443305 295.177571 
L 105.509574 294.706129 
L 105.575844 294.898393 
L 105.642113 294.56626 
L 105.708383 294.67597 
L 105.774652 295.352241 
L 105.840922 294.242777 
L 105.907191 294.884246 
L 105.973461 294.709349 
L 106.106 295.211539 
L 106.17227 294.885236 
L 106.238539 295.310432 
L 106.437348 294.898737 
L 106.569887 295.066492 
L 106.636157 294.792588 
L 106.702426 294.983708 
L 106.967504 294.821282 
L 107.033774 294.191187 
L 107.100043 294.363601 
L 107.298852 294.92011 
L 107.431391 294.571096 
L 107.6302 293.997006 
L 107.762739 292.986658 
L 107.961548 294.232428 
L 108.027817 293.831887 
L 108.094087 294.472173 
L 108.292895 292.87949 
L 108.359165 294.529138 
L 108.425435 293.163461 
L 108.491704 293.355315 
L 108.557974 293.649929 
L 108.690513 292.710138 
L 108.756782 292.749292 
L 108.823052 292.604673 
L 108.955591 291.415568 
L 109.08813 288.745566 
L 109.286939 291.081742 
L 109.353208 289.995303 
L 109.552017 292.419826 
L 109.684556 291.928688 
L 109.817095 293.818462 
L 109.883365 293.566429 
L 109.949634 293.509401 
L 110.082173 294.218579 
L 110.148443 293.689545 
L 110.280982 294.704179 
L 110.347252 294.618259 
L 110.54606 295.461807 
L 110.61233 295.372748 
L 110.811138 294.736047 
L 111.076217 293.401334 
L 111.142486 293.237756 
L 111.208756 293.267716 
L 111.275025 293.245126 
L 111.341295 293.429047 
L 111.407564 292.611451 
L 111.473834 293.609112 
L 111.540104 293.572613 
L 111.606373 293.445637 
L 111.672643 292.494303 
L 111.738912 294.37496 
L 111.805182 293.604746 
L 111.871451 292.788823 
L 111.937721 293.286948 
L 112.00399 293.787022 
L 112.07026 293.6709 
L 112.202799 293.919547 
L 112.269069 293.346953 
L 112.401608 294.103503 
L 112.467877 293.458356 
L 112.534147 293.592803 
L 112.600416 293.828898 
L 112.732956 293.380718 
L 112.865495 293.934506 
L 112.931764 293.758692 
L 113.064303 294.410873 
L 113.130573 293.030468 
L 113.196842 293.662727 
L 113.59446 295.127645 
L 113.660729 295.059044 
L 113.859538 294.234142 
L 113.925807 294.394308 
L 113.992077 294.142091 
L 114.058347 294.662873 
L 114.257155 293.488446 
L 114.323425 293.813148 
L 114.455964 292.135471 
L 114.522233 292.604194 
L 114.588503 292.944297 
L 114.654773 292.559046 
L 114.919851 284.958412 
L 114.98612 289.481897 
L 115.05239 287.082479 
L 115.251199 284.414856 
L 115.450007 289.648944 
L 115.648816 294.433551 
L 115.715085 294.138174 
L 115.913894 291.270293 
L 116.046433 291.706977 
L 116.112703 290.587254 
L 116.178972 290.915822 
L 116.245242 290.941722 
L 116.377781 292.003315 
L 116.444051 290.494074 
L 116.51032 293.579133 
L 116.775398 279.280262 
L 116.841668 282.53474 
L 116.974207 223.054212 
L 117.106746 138.718113 
L 117.173016 279.320497 
L 117.239285 276.624133 
L 117.305555 265.776711 
L 117.371824 270.399119 
L 117.438094 87.074843 
L 117.504363 214.944293 
L 117.570633 170.90099 
L 117.636903 220.482883 
L 117.769442 62.515292 
L 117.96825 269.277147 
L 118.03452 269.040436 
L 118.100789 269.827741 
L 118.167059 267.125533 
L 118.233329 268.83978 
L 118.365868 293.73368 
L 118.432137 285.996092 
L 118.498407 293.736375 
L 118.564676 291.738995 
L 118.630946 291.124926 
L 118.697215 291.267694 
L 118.763485 292.413101 
L 118.896024 291.225119 
L 118.962294 291.068021 
L 119.293641 293.982793 
L 119.42618 293.900113 
L 119.49245 294.047927 
L 119.55872 294.598237 
L 119.757528 293.178646 
L 119.890067 293.955957 
L 119.956337 293.497183 
L 120.088876 294.790851 
L 120.155146 294.869003 
L 120.287685 295.265123 
L 120.486493 293.205113 
L 120.685302 294.770828 
L 120.751572 293.379774 
L 120.817841 293.457138 
L 120.95038 292.893612 
L 121.082919 293.771579 
L 121.149189 293.225773 
L 121.215458 293.326573 
L 121.281728 294.85551 
L 121.347998 294.633117 
L 121.480537 294.985285 
L 121.546806 294.923862 
L 121.679345 294.276479 
L 122.010693 295.465458 
L 122.076963 294.532457 
L 122.143232 294.891268 
L 122.342041 293.941551 
L 122.47458 294.00269 
L 122.54085 294.020125 
L 122.607119 293.428103 
L 122.673389 293.849963 
L 122.805928 293.025152 
L 123.004736 294.473621 
L 123.137276 294.054692 
L 123.336084 294.985661 
L 123.402354 294.848856 
L 123.468623 294.939197 
L 123.601162 295.179228 
L 123.667432 295.109994 
L 123.799971 295.382371 
L 123.866241 294.464642 
L 123.93251 294.888299 
L 124.065049 294.492923 
L 124.131319 294.557949 
L 124.197588 294.440737 
L 124.330127 295.356372 
L 124.396397 295.34762 
L 124.528936 294.979579 
L 124.661475 295.31201 
L 124.727745 295.158595 
L 124.794014 294.322235 
L 124.860284 294.618858 
L 124.926553 294.589749 
L 124.992823 294.230831 
L 125.125362 294.679794 
L 125.257901 294.429628 
L 125.324171 295.027298 
L 125.39044 293.9333 
L 125.45671 294.631082 
L 125.655519 295.111028 
L 125.721788 294.937189 
L 125.788058 295.214856 
L 125.920597 294.9749 
L 125.986866 295.165658 
L 126.053136 295.108038 
L 126.119405 294.997722 
L 126.251945 295.102559 
L 126.318214 295.069621 
L 126.517023 294.511018 
L 126.583292 295.059677 
L 126.782101 293.9328 
L 126.848371 294.597566 
L 126.91464 294.462985 
L 126.98091 294.182918 
L 127.113449 295.002938 
L 127.179718 294.997708 
L 127.378527 292.804776 
L 127.444797 293.534687 
L 127.511066 293.586943 
L 127.643605 291.768194 
L 127.709875 293.409051 
L 127.776144 292.942877 
L 127.842414 292.643883 
L 127.908683 293.001153 
L 128.041223 292.352602 
L 128.240031 294.718233 
L 128.306301 294.670493 
L 128.37257 293.499994 
L 128.43884 293.66948 
L 128.505109 294.513185 
L 128.571379 294.287891 
L 128.637648 294.214175 
L 128.703918 294.466297 
L 128.770188 293.593627 
L 128.836457 293.932001 
L 129.035266 294.680052 
L 129.167805 293.969785 
L 129.234074 293.979691 
L 129.300344 294.226696 
L 129.366614 293.105143 
L 129.565422 294.517878 
L 129.631692 293.340336 
L 129.764231 295.185892 
L 129.96304 293.939292 
L 130.029309 294.590729 
L 130.095579 294.497962 
L 130.161848 293.955422 
L 130.228118 294.160508 
L 130.294387 294.001968 
L 130.360657 293.554803 
L 130.426926 294.370285 
L 130.625735 291.817273 
L 130.692005 291.694635 
L 130.758274 290.068583 
L 130.824544 292.292039 
L 130.890813 291.404101 
L 130.957083 287.445152 
L 131.089622 290.426004 
L 131.155892 280.687478 
L 131.222161 287.3769 
L 131.288431 257.021408 
L 131.3547 289.486106 
L 131.42097 284.426709 
L 131.487239 233.627946 
L 131.553509 238.03013 
L 131.619778 220.341252 
L 131.686048 242.244725 
L 131.752318 240.097927 
L 131.884857 200.025825 
L 131.951126 276.037949 
L 132.017396 229.795324 
L 132.149935 272.616746 
L 132.216204 213.129202 
L 132.282474 253.946177 
L 132.348744 244.433927 
L 132.547552 281.327475 
L 132.613822 273.135734 
L 132.680091 281.55518 
L 132.746361 279.157354 
L 132.81263 278.768515 
L 132.94517 290.805433 
L 133.011439 289.345196 
L 133.077709 292.454834 
L 133.143978 290.908712 
L 133.210248 291.61609 
L 133.276517 293.706042 
L 133.342787 292.279636 
L 133.409056 292.935395 
L 133.541596 293.167817 
L 133.674135 294.190504 
L 133.740404 293.947224 
L 133.939213 295.083776 
L 134.005482 294.923017 
L 134.138021 294.177425 
L 134.204291 294.597758 
L 134.270561 293.702447 
L 134.33683 293.720929 
L 134.535639 295.125804 
L 134.734447 294.297588 
L 134.800717 294.264462 
L 134.999526 293.185601 
L 135.132065 293.460035 
L 135.264604 293.06308 
L 135.330873 294.27803 
L 135.397143 294.069652 
L 135.529682 294.906153 
L 135.595952 294.881287 
L 135.662221 294.993551 
L 135.728491 294.848185 
L 135.79476 295.175983 
L 135.927299 294.603911 
L 135.993569 294.722308 
L 136.059839 294.668854 
L 136.192378 294.503737 
L 136.258647 295.055592 
L 136.324917 292.858046 
L 136.391186 293.022259 
L 136.457456 293.129679 
L 136.656265 293.837788 
L 136.722534 293.728461 
L 136.921343 294.384278 
L 137.053882 294.059851 
L 137.120151 293.815775 
L 137.186421 294.060633 
L 137.31896 293.697809 
L 137.451499 294.056328 
L 137.517769 293.555512 
L 137.716577 295.105252 
L 137.782847 294.483057 
L 137.915386 295.285958 
L 137.981656 294.639235 
L 138.047925 294.994125 
L 138.246734 295.332928 
L 138.379273 294.698159 
L 138.445543 294.982042 
L 138.511812 294.964481 
L 138.644351 294.516847 
L 138.710621 294.567994 
L 138.77689 294.769532 
L 138.975699 293.239775 
L 139.041968 294.201652 
L 139.108238 293.327983 
L 139.174508 293.663077 
L 139.307047 292.825805 
L 139.439586 293.316178 
L 139.505855 293.030335 
L 139.704664 293.739481 
L 139.770934 293.578969 
L 139.837203 294.289917 
L 139.903473 293.461002 
L 140.036012 294.54144 
L 140.102281 293.663246 
L 140.168551 294.385835 
L 140.23482 294.120461 
L 140.30109 293.861269 
L 140.36736 293.879419 
L 140.433629 294.48588 
L 140.499899 294.150533 
L 140.698707 293.380307 
L 140.897516 294.497076 
L 140.963786 294.076365 
L 141.162594 295.049413 
L 141.295133 295.061283 
L 141.692751 294.70186 
L 141.82529 293.96989 
L 141.891559 295.171563 
L 141.957829 294.456597 
L 142.289177 295.050286 
L 142.421716 294.492885 
L 142.753064 295.247454 
L 142.951872 294.792557 
L 143.018142 295.171326 
L 143.150681 294.526812 
L 143.21695 294.706587 
L 143.415759 293.901803 
L 143.482029 294.910636 
L 143.548298 294.83587 
L 143.680837 293.933745 
L 143.813376 295.244866 
L 143.879646 293.94881 
L 143.945915 294.028443 
L 144.012185 295.338309 
L 144.144724 294.10186 
L 144.210994 294.599645 
L 144.343533 293.078821 
L 144.409802 294.992794 
L 144.476072 294.140261 
L 144.542341 292.623783 
L 144.608611 293.081716 
L 144.674881 294.161145 
L 144.74115 292.233315 
L 144.80742 293.359041 
L 144.873689 292.870819 
L 145.138767 294.947458 
L 145.271307 292.797264 
L 145.337576 288.89953 
L 145.403846 294.513355 
L 145.470115 283.532577 
L 145.536385 288.200601 
L 145.602654 289.352997 
L 145.801463 250.693005 
L 145.867733 265.574839 
L 145.934002 292.109356 
L 146.066541 195.67033 
L 146.132811 224.525264 
L 146.19908 235.810754 
L 146.331619 282.814488 
L 146.397889 254.427638 
L 146.464159 274.637047 
L 146.530428 230.027046 
L 146.662967 290.933723 
L 146.729237 246.27372 
L 146.795506 262.529611 
L 146.861776 246.416862 
L 146.928045 288.695496 
L 146.994315 274.940056 
L 147.060585 272.91006 
L 147.126854 261.992861 
L 147.259393 280.946956 
L 147.325663 278.336409 
L 147.524471 294.042369 
L 147.657011 290.380423 
L 147.78955 294.120485 
L 147.855819 293.270064 
L 147.922089 294.575035 
L 147.988358 294.455554 
L 148.054628 294.548454 
L 148.120897 294.243739 
L 148.187167 294.974083 
L 148.319706 293.574387 
L 148.385976 293.644034 
L 148.452245 294.225264 
L 148.518515 293.508308 
L 148.584784 294.7024 
L 148.651054 294.223144 
L 148.717323 293.546712 
L 148.849862 295.398836 
L 148.916132 294.298202 
L 148.982402 294.499055 
L 149.048671 294.647327 
L 149.114941 294.355007 
L 149.18121 293.316356 
L 149.24748 294.14471 
L 149.313749 293.701865 
L 149.380019 293.676616 
L 149.446288 294.467552 
L 149.578828 293.619868 
L 149.645097 295.002541 
L 149.711367 294.51627 
L 149.777636 294.505245 
L 149.843906 295.192868 
L 149.910175 294.743945 
L 149.976445 294.754575 
L 150.042714 295.217945 
L 150.108984 295.025832 
L 150.175254 295.225609 
L 150.307793 294.959923 
L 150.374062 295.02402 
L 150.440332 294.82449 
L 150.506601 295.145043 
L 150.63914 294.889519 
L 150.70541 295.001068 
L 150.77168 294.653193 
L 150.837949 294.815761 
L 151.036758 294.199596 
L 151.103027 294.378166 
L 151.169297 293.6556 
L 151.235566 293.707612 
L 151.434375 294.290418 
L 151.500645 293.939542 
L 151.633184 294.587798 
L 151.699453 294.371788 
L 151.831992 295.059348 
L 151.898262 294.890716 
L 152.030801 295.354786 
L 152.16334 294.850006 
L 152.22961 294.949988 
L 152.295879 294.467596 
L 152.362149 294.6288 
L 152.428418 294.819969 
L 152.494688 294.706912 
L 152.560958 294.7595 
L 152.693497 295.238495 
L 152.759766 295.194054 
L 152.826036 295.287227 
L 153.024844 294.725815 
L 153.289923 295.181914 
L 153.488731 294.532672 
L 153.62127 294.853368 
L 153.753809 294.36099 
L 153.820079 294.769734 
L 153.886349 294.721592 
L 153.952618 294.510837 
L 154.018888 294.704524 
L 154.085157 294.649958 
L 154.151427 294.411105 
L 154.283966 294.62463 
L 154.350235 294.605047 
L 154.416505 294.810433 
L 154.482775 294.72774 
L 154.549044 294.639179 
L 154.615314 294.95601 
L 154.681583 294.826504 
L 155.079201 294.470503 
L 155.14547 294.131651 
L 155.21174 294.628955 
L 155.344279 293.687311 
L 155.543087 295.082446 
L 155.609357 295.060864 
L 155.741896 295.071682 
L 156.006974 294.388358 
L 156.073244 295.405126 
L 156.139513 294.870032 
L 156.205783 295.187049 
L 156.272053 295.080446 
L 156.338322 295.054896 
L 156.404592 294.830579 
L 156.470861 294.964624 
L 156.6034 294.72547 
L 156.735939 295.302968 
L 156.868479 295.212878 
L 157.067287 294.801 
L 157.133557 294.855042 
L 157.199826 295.13164 
L 157.266096 295.050802 
L 157.398635 294.858267 
L 157.464905 294.949061 
L 157.531174 295.107948 
L 157.597444 294.941374 
L 157.663713 295.034957 
L 157.729983 295.014557 
L 157.862522 294.706211 
L 157.928791 294.78159 
L 157.995061 295.054264 
L 158.061331 294.885697 
L 158.1276 294.899075 
L 158.19387 295.188043 
L 158.260139 295.064093 
L 158.591487 294.397464 
L 158.657756 294.582259 
L 158.724026 294.165535 
L 158.856565 294.545332 
L 158.922835 294.360039 
L 158.989104 294.880618 
L 159.055374 294.854755 
L 159.121643 294.688815 
L 159.187913 295.053491 
L 159.386722 294.035038 
L 159.452991 293.67211 
L 159.6518 295.054568 
L 159.850608 293.238983 
L 159.916878 292.97707 
L 160.049417 286.326018 
L 160.115687 293.31521 
L 160.181956 293.110726 
L 160.380765 270.963185 
L 160.447034 290.424803 
L 160.513304 273.934284 
L 160.579574 277.299771 
L 160.645843 282.446645 
L 160.844652 273.625123 
L 160.977191 282.255321 
L 161.04346 279.748836 
L 161.10973 281.955116 
L 161.242269 265.17752 
L 161.374808 284.241197 
L 161.441078 276.112943 
L 161.507347 278.851688 
L 161.573617 283.214155 
L 161.772426 271.898455 
L 161.971234 286.629525 
L 162.170043 291.215152 
L 162.236312 286.24204 
L 162.302582 287.869899 
L 162.501391 294.444537 
L 162.63393 292.398822 
L 162.766469 294.235432 
L 162.832738 293.798624 
L 162.899008 294.580173 
L 162.965278 294.362097 
L 163.031547 294.101014 
L 163.097817 294.37281 
L 163.164086 294.237248 
L 163.230356 293.886222 
L 163.362895 295.255988 
L 163.429164 294.128189 
L 163.561704 295.407365 
L 163.694243 294.365661 
L 163.760512 294.636033 
L 163.893051 293.932635 
L 163.959321 294.408461 
L 164.02559 294.267478 
L 164.09186 294.32236 
L 164.290669 295.237123 
L 164.356938 295.34004 
L 164.622016 294.165418 
L 164.688286 294.141314 
L 164.754555 293.978455 
L 164.887095 294.515094 
L 164.953364 294.304692 
L 165.152173 295.114018 
L 165.218442 295.104211 
L 165.54979 293.399177 
L 165.682329 293.148117 
L 165.881138 293.851781 
L 166.013677 292.834215 
L 166.212486 294.051157 
L 166.477564 293.208688 
L 166.610103 290.952526 
L 166.742642 293.530046 
L 166.808912 293.418579 
L 166.875181 293.737556 
L 166.941451 293.539847 
L 167.00772 293.505704 
L 167.140259 293.104388 
L 167.206529 293.2772 
L 167.272799 292.852231 
L 167.339068 293.42879 
L 167.405338 293.304265 
L 167.471607 293.191777 
L 167.537877 294.14219 
L 167.670416 292.540867 
L 167.935494 293.710942 
L 168.068033 293.246029 
L 168.266842 293.711461 
L 168.333111 293.428043 
L 168.399381 292.57515 
L 168.465651 292.640268 
L 168.53192 293.27906 
L 168.59819 292.382812 
L 168.664459 292.967618 
L 168.730729 293.243288 
L 169.128346 290.479778 
L 169.194616 291.133568 
L 169.260885 293.323677 
L 169.327155 292.228995 
L 169.393424 291.370109 
L 169.459694 291.765663 
L 169.857311 294.275326 
L 169.923581 294.207722 
L 170.05612 294.406091 
L 170.188659 293.000034 
L 170.321198 294.548574 
L 170.387468 294.049516 
L 170.718815 295.254581 
L 170.785085 295.305367 
L 171.182702 294.055835 
L 171.248972 294.081097 
L 171.315241 294.043731 
L 171.51405 295.155569 
L 171.58032 295.005367 
L 171.712859 295.297129 
L 171.911667 294.586299 
L 171.977937 294.796296 
L 172.044206 294.571759 
L 172.110476 294.830024 
L 172.176746 294.5638 
L 172.375554 295.305738 
L 172.640632 294.98979 
L 172.706902 294.374267 
L 172.773172 294.487762 
L 172.905711 295.045544 
L 172.97198 294.506611 
L 173.03825 295.271999 
L 173.104519 295.097084 
L 173.170789 294.84779 
L 173.237058 294.86863 
L 173.303328 295.126824 
L 173.369598 294.816765 
L 173.435867 294.847008 
L 173.502137 294.765491 
L 173.568406 295.077093 
L 173.634676 294.825133 
L 173.700945 295.165241 
L 174.032293 293.240662 
L 174.164832 294.732989 
L 174.231102 288.119507 
L 174.297371 292.100907 
L 174.363641 292.627263 
L 174.42991 291.765268 
L 174.49618 292.879642 
L 174.562449 279.183659 
L 174.694989 293.073769 
L 174.893797 275.251563 
L 174.960067 290.821709 
L 175.026336 258.32494 
L 175.092606 270.853128 
L 175.158875 280.287538 
L 175.225145 256.399414 
L 175.291415 282.699888 
L 175.357684 282.60356 
L 175.423954 288.114628 
L 175.490223 278.834455 
L 175.556493 280.049523 
L 175.622762 282.626015 
L 175.689032 279.097473 
L 175.821571 289.63154 
L 175.95411 278.217209 
L 176.02038 290.576908 
L 176.086649 276.440677 
L 176.152919 286.592803 
L 176.219188 282.132134 
L 176.285458 275.260484 
L 176.484267 287.410394 
L 176.550536 288.658141 
L 176.616806 287.79347 
L 176.683075 292.879106 
L 176.749345 291.357227 
L 176.881884 289.781131 
L 176.948153 293.255493 
L 177.014423 291.99613 
L 177.080693 289.858635 
L 177.146962 292.203696 
L 177.213232 291.902693 
L 177.345771 291.900911 
L 177.544579 294.043147 
L 177.610849 293.874948 
L 177.677119 295.316874 
L 177.743388 294.772224 
L 177.809658 292.372854 
L 177.875927 294.309479 
L 177.942197 293.756451 
L 178.141005 294.883977 
L 178.207275 294.006706 
L 178.339814 295.072921 
L 178.406084 295.129387 
L 178.472353 294.368816 
L 178.538623 295.267083 
L 178.671162 294.104609 
L 178.737431 293.850097 
L 178.803701 293.036786 
L 178.86997 294.44911 
L 178.93624 292.632725 
L 179.00251 292.85085 
L 179.135049 292.557478 
L 179.201318 291.946826 
L 179.400127 293.184131 
L 179.466396 292.939602 
L 179.598936 293.653099 
L 179.731475 293.582103 
L 179.797744 293.237103 
L 179.864014 293.314549 
L 179.930283 293.888827 
L 179.996553 293.678694 
L 180.062822 293.191015 
L 180.129092 294.446513 
L 180.195362 293.698426 
L 180.261631 293.547119 
L 180.327901 292.587342 
L 180.39417 293.664608 
L 180.46044 293.442548 
L 180.526709 293.345187 
L 180.659248 294.149223 
L 180.791788 293.762778 
L 180.858057 294.077265 
L 180.924327 294.0026 
L 180.990596 293.227247 
L 181.056866 295.166124 
L 181.123135 294.688135 
L 181.189405 295.397719 
L 181.255674 295.013605 
L 181.321944 294.768949 
L 181.388214 294.89294 
L 181.454483 294.972468 
L 181.520753 294.881065 
L 181.587022 294.212482 
L 181.719561 294.721677 
L 181.785831 293.521072 
L 181.8521 294.101965 
L 181.91837 293.491929 
L 181.98464 293.525229 
L 182.050909 293.347287 
L 182.117179 293.691893 
L 182.183448 293.567821 
L 182.315987 292.741279 
L 182.448526 294.034135 
L 182.514796 293.489749 
L 182.581066 293.56985 
L 182.779874 293.145607 
L 182.912413 293.450532 
L 182.978683 292.808494 
L 183.111222 294.05727 
L 183.177492 293.774503 
L 183.310031 292.750995 
L 183.3763 293.738043 
L 183.508839 292.135217 
L 183.575109 293.766152 
L 183.641378 291.305817 
L 183.707648 291.582005 
L 183.906457 293.602583 
L 183.972726 292.484134 
L 184.038996 293.134785 
L 184.105265 292.577147 
L 184.171535 293.6211 
L 184.370343 290.910925 
L 184.436613 291.54557 
L 184.502883 291.509657 
L 184.569152 291.607557 
L 184.635422 292.426925 
L 184.701691 291.005274 
L 184.767961 291.582833 
L 184.83423 292.184311 
L 184.9005 291.179414 
L 185.033039 292.899434 
L 185.099309 292.671881 
L 185.165578 291.829477 
L 185.231848 293.275868 
L 185.298117 293.188882 
L 185.364387 293.294426 
L 185.430656 292.77609 
L 185.496926 293.165258 
L 185.563195 294.329033 
L 185.629465 293.549884 
L 185.695735 293.609375 
L 185.828274 294.551496 
L 186.093352 292.09959 
L 186.225891 293.582637 
L 186.292161 294.336517 
L 186.490969 293.514721 
L 186.557239 293.183803 
L 186.623508 294.267923 
L 186.689778 292.763804 
L 186.756047 294.212649 
L 186.822317 293.742574 
L 186.888587 293.464123 
L 186.954856 294.419085 
L 187.021126 293.75762 
L 187.087395 294.018887 
L 187.153665 293.858589 
L 187.219934 290.641689 
L 187.352473 294.063264 
L 187.418743 293.364168 
L 187.617552 294.580258 
L 187.750091 293.876598 
L 187.81636 295.207144 
L 187.88263 293.05339 
L 187.948899 293.849886 
L 188.015169 292.752564 
L 188.081439 293.073441 
L 188.213978 292.395092 
L 188.346517 290.425495 
L 188.479056 292.884352 
L 188.611595 290.909299 
L 188.677864 293.076119 
L 188.744134 289.590603 
L 188.810404 293.42611 
L 188.876673 291.398117 
L 188.942943 290.024513 
L 189.075482 275.31192 
L 189.141751 280.890471 
L 189.208021 280.652814 
L 189.27429 279.190125 
L 189.40683 248.131772 
L 189.473099 266.330034 
L 189.605638 276.616568 
L 189.671908 284.639322 
L 189.738177 269.941559 
L 189.804447 273.088615 
L 189.870716 276.822853 
L 189.936986 293.342103 
L 190.003256 289.515901 
L 190.069525 283.267553 
L 190.135795 289.816171 
L 190.202064 287.034392 
L 190.268334 276.291643 
L 190.334603 291.178558 
L 190.400873 290.081047 
L 190.467142 274.76432 
L 190.533412 280.185404 
L 190.599682 275.897801 
L 190.665951 284.086042 
L 190.732221 276.319563 
L 190.79849 255.118674 
L 190.931029 285.846462 
L 191.063568 261.383853 
L 191.129838 288.223573 
L 191.196108 279.225323 
L 191.262377 280.811245 
L 191.328647 291.602507 
L 191.394916 279.770624 
L 191.461186 286.247213 
L 191.527455 282.746872 
L 191.593725 289.961667 
L 191.659994 289.656171 
L 191.726264 283.333763 
L 191.925073 294.291119 
L 191.991342 291.967943 
L 192.057612 292.60334 
L 192.190151 294.691809 
L 192.25642 293.943069 
L 192.32269 294.255697 
L 192.38896 294.375093 
L 192.455229 294.279021 
L 192.587768 294.435306 
L 192.654038 293.539184 
L 192.720307 293.780901 
L 192.786577 295.152314 
L 192.852846 295.07255 
L 192.919116 294.846607 
L 192.985386 293.837666 
L 193.051655 294.575335 
L 193.117925 294.202375 
L 193.184194 293.224374 
L 193.250464 293.640151 
L 193.316733 293.484481 
L 193.581812 295.021727 
L 193.714351 295.070366 
L 193.913159 294.390354 
L 194.111968 295.24408 
L 194.178237 294.921705 
L 194.377046 295.377924 
L 194.443316 295.403714 
L 194.575855 294.098941 
L 194.642124 294.132896 
L 194.774663 294.455709 
L 194.907203 295.438894 
L 195.106011 294.942146 
L 195.30482 294.953006 
L 195.437359 294.868149 
L 195.569898 294.542033 
L 195.636168 294.620181 
L 195.768707 294.96288 
L 195.901246 294.43026 
L 195.967515 294.976739 
L 196.033785 294.726147 
L 196.166324 295.072687 
L 196.232594 294.829071 
L 196.298863 295.096747 
L 196.431402 294.581516 
L 196.497672 294.646581 
L 196.82902 293.473024 
L 196.895289 293.700296 
L 196.961559 293.63538 
L 197.027828 293.601648 
L 197.094098 293.794712 
L 197.160367 293.59595 
L 197.425446 295.427179 
L 197.557985 295.187289 
L 197.756793 294.677293 
L 197.823063 293.770314 
L 197.889333 294.001445 
L 198.088141 294.63872 
L 198.154411 294.141757 
L 198.22068 294.326468 
L 198.28695 294.565295 
L 198.353219 294.416939 
L 198.552028 294.562267 
L 198.618298 294.359465 
L 198.750837 293.196949 
L 199.015915 294.641793 
L 199.347263 292.650633 
L 199.413532 292.991872 
L 199.479802 292.632917 
L 199.612341 293.466687 
L 199.67861 293.449204 
L 199.74488 292.648049 
L 199.81115 294.409578 
L 199.943689 293.039246 
L 200.076228 294.560273 
L 200.142497 294.74925 
L 200.208767 294.631547 
L 200.275036 294.311082 
L 200.341306 295.189598 
L 200.407576 294.971137 
L 200.473845 294.765294 
L 200.540115 295.394583 
L 200.606384 294.940418 
L 200.672654 295.07834 
L 200.738923 295.170118 
L 200.937732 294.53109 
L 201.070271 294.615326 
L 201.26908 293.988145 
L 201.401619 295.363086 
L 201.467888 294.35228 
L 201.534158 294.797735 
L 201.732967 293.639557 
L 201.865506 294.010606 
L 201.931775 293.186002 
L 201.998045 293.852703 
L 202.064314 293.678939 
L 202.263123 293.381955 
L 202.329393 293.725798 
L 202.461932 294.987934 
L 202.528201 293.802474 
L 202.594471 294.530175 
L 202.66074 293.823829 
L 202.72701 293.878526 
L 202.79328 289.358958 
L 202.859549 290.400523 
L 202.925819 293.231566 
L 202.992088 292.578182 
L 203.058358 291.980706 
L 203.124627 289.074395 
L 203.190897 290.244372 
L 203.257166 289.835183 
L 203.323436 292.588045 
L 203.455975 287.739339 
L 203.522245 289.971981 
L 203.588514 269.831483 
L 203.654784 281.119273 
L 203.721053 275.46732 
L 203.853592 291.943935 
L 203.919862 273.354865 
L 203.986131 278.368213 
L 204.118671 265.973653 
L 204.18494 272.60317 
L 204.25121 284.258519 
L 204.317479 275.205237 
L 204.383749 292.311361 
L 204.450018 291.800076 
L 204.516288 287.126895 
L 204.582557 292.74256 
L 204.715097 279.312173 
L 204.781366 285.561797 
L 204.847636 268.569307 
L 204.913905 292.475165 
L 204.980175 277.049285 
L 205.046444 272.619336 
L 205.112714 276.884601 
L 205.178983 241.875276 
L 205.245253 290.288912 
L 205.311523 279.893298 
L 205.377792 269.890559 
L 205.444062 278.510999 
L 205.64287 253.350168 
L 205.841679 290.062917 
L 205.974218 276.115682 
L 206.040488 292.603565 
L 206.106757 289.278514 
L 206.173027 284.43761 
L 206.239296 285.442586 
L 206.371835 292.131046 
L 206.438105 290.755359 
L 206.570644 292.147006 
L 206.636914 290.719643 
L 206.703183 294.708042 
L 206.769453 293.860137 
L 206.835722 293.642983 
L 207.034531 294.762706 
L 207.100801 294.277938 
L 207.23334 295.137478 
L 207.365879 294.452423 
L 207.432148 294.339295 
L 207.498418 292.904364 
L 207.564687 294.306521 
L 207.630957 293.805233 
L 207.697227 294.679257 
L 207.896035 293.556778 
L 208.028574 294.434023 
L 208.094844 294.045813 
L 208.161113 295.070794 
L 208.227383 294.24001 
L 208.293653 294.641081 
L 208.359922 294.859388 
L 208.558731 294.221806 
L 208.625 292.91794 
L 208.69127 294.074587 
L 208.757539 293.492339 
L 208.890078 294.04622 
L 208.956348 293.918744 
L 209.287696 294.885876 
L 209.353965 294.648125 
L 209.420235 294.722028 
L 209.486504 294.624443 
L 209.619044 295.279074 
L 209.685313 295.187123 
L 209.751583 294.856006 
L 209.817852 295.047101 
L 209.884122 295.372255 
L 210.08293 293.952884 
L 210.21547 295.038028 
L 210.348009 294.328324 
L 210.480548 295.078136 
L 210.546817 294.835421 
L 210.613087 295.196773 
L 210.679356 295.104702 
L 210.811896 294.670672 
L 210.878165 294.783325 
L 211.010704 295.131161 
L 211.209513 294.372647 
L 211.342052 295.250618 
L 211.408322 294.682241 
L 211.474591 294.844989 
L 211.739669 293.867201 
L 211.805939 294.413986 
L 211.872208 294.03037 
L 211.938478 295.045765 
L 212.137287 293.979149 
L 212.269826 295.368252 
L 212.336095 293.531612 
L 212.402365 294.140415 
L 212.534904 294.64196 
L 212.601174 294.396088 
L 212.667443 294.548655 
L 212.733713 294.561145 
L 212.866252 293.757013 
L 213.06506 295.181502 
L 213.1976 294.765162 
L 213.263869 295.358233 
L 213.330139 295.142868 
L 213.462678 294.209822 
L 213.528947 294.937626 
L 213.595217 294.841229 
L 213.794025 295.219001 
L 213.926565 294.711984 
L 213.992834 295.149946 
L 214.059104 294.402052 
L 214.125373 294.792233 
L 214.191643 294.590229 
L 214.390451 295.067193 
L 214.456721 295.041974 
L 214.522991 294.282968 
L 214.58926 294.730445 
L 214.65553 294.690347 
L 214.721799 293.663666 
L 214.788069 294.612997 
L 214.854338 294.065557 
L 214.986877 295.016359 
L 215.053147 293.960771 
L 215.119417 294.168638 
L 215.185686 294.414891 
L 215.251956 294.217016 
L 215.318225 294.999064 
L 215.384495 294.656288 
L 215.583303 295.205147 
L 215.649573 295.144758 
L 215.848382 294.265195 
L 215.914651 294.429606 
L 215.980921 294.237441 
L 216.04719 293.521328 
L 216.11346 293.850459 
L 216.245999 294.694238 
L 216.312269 295.138235 
L 216.378538 294.485837 
L 216.444808 295.366688 
L 216.577347 293.143755 
L 216.643616 293.290112 
L 216.709886 294.271474 
L 216.776155 292.09533 
L 216.842425 292.379708 
L 216.908695 293.445894 
L 216.974964 292.952076 
L 217.041234 293.652725 
L 217.107503 292.712175 
L 217.173773 293.129281 
L 217.306312 294.186682 
L 217.505121 286.436863 
L 217.63766 292.147042 
L 217.836468 279.293894 
L 217.969007 291.903007 
L 218.101547 276.800638 
L 218.167816 246.270698 
L 218.300355 291.713335 
L 218.499164 256.062199 
L 218.565433 269.531266 
L 218.697972 293.522837 
L 218.830512 288.277004 
L 219.02932 270.886442 
L 219.09559 278.291606 
L 219.161859 261.636402 
L 219.228129 292.826461 
L 219.294398 279.369831 
L 219.426938 292.110259 
L 219.493207 287.370286 
L 219.559477 285.709766 
L 219.625746 288.627099 
L 219.692016 283.971421 
L 219.758285 290.508808 
L 219.824555 288.203682 
L 219.890824 287.52185 
L 219.957094 288.839339 
L 220.023364 276.623035 
L 220.089633 284.288252 
L 220.155903 282.767023 
L 220.222172 288.022402 
L 220.288442 278.041582 
L 220.420981 289.607681 
L 220.55352 277.485424 
L 220.686059 293.981224 
L 220.752329 291.737884 
L 220.818598 287.713141 
L 220.951137 294.438999 
L 221.017407 294.513553 
L 221.149946 293.187948 
L 221.216216 293.159073 
L 221.282485 294.083239 
L 221.348755 293.56714 
L 221.415024 292.356993 
L 221.481294 292.99113 
L 221.613833 294.133634 
L 221.680102 293.530142 
L 221.746372 294.799304 
L 221.812642 293.481762 
L 221.878911 294.12614 
L 222.07772 295.352692 
L 222.210259 294.234361 
L 222.276528 294.447889 
L 222.342798 295.050114 
L 222.409068 294.270636 
L 222.541607 294.852388 
L 222.806685 294.092883 
L 223.005494 294.947257 
L 223.204302 293.740643 
L 223.270572 293.929218 
L 223.336841 293.92602 
L 223.46938 294.522279 
L 223.734459 293.794298 
L 223.999537 294.990353 
L 224.065806 294.581997 
L 224.264615 295.151564 
L 224.330885 294.779216 
L 224.397154 295.124897 
L 224.529693 294.614636 
L 224.728502 295.141804 
L 224.794771 295.01254 
L 224.861041 294.636324 
L 224.99358 295.330622 
L 225.126119 294.968667 
L 225.192389 295.188799 
L 225.324928 294.913793 
L 225.391197 295.018344 
L 225.457467 295.434546 
L 225.523737 295.197264 
L 225.590006 295.220687 
L 225.656276 295.050477 
L 225.722545 295.098118 
L 225.788815 295.381379 
L 225.921354 294.889348 
L 225.987623 295.060839 
L 226.053893 295.025238 
L 226.120163 294.975201 
L 226.186432 294.48133 
L 226.252702 294.641086 
L 226.318971 294.977599 
L 226.385241 294.551692 
L 226.45151 294.789887 
L 226.51778 294.922328 
L 226.584049 295.320995 
L 226.650319 295.213041 
L 226.716589 295.404832 
L 226.782858 295.23944 
L 226.849128 295.382381 
L 226.915397 295.264572 
L 226.981667 295.25917 
L 227.114206 294.659759 
L 227.180475 294.922288 
L 227.246745 294.800797 
L 227.511823 294.241584 
L 227.843171 294.845417 
L 227.909441 294.664393 
L 227.97571 294.689973 
L 228.04198 294.954425 
L 228.108249 294.687797 
L 228.174519 295.018158 
L 228.240788 294.831572 
L 228.373327 293.901062 
L 228.439597 294.294489 
L 228.638406 295.334032 
L 228.704675 294.872625 
L 228.770945 295.090512 
L 228.837214 294.953489 
L 228.903484 295.225647 
L 229.102292 293.707347 
L 229.301101 295.005181 
L 229.367371 294.8873 
L 229.49991 294.431572 
L 229.566179 295.031751 
L 229.632449 294.390302 
L 229.764988 295.02368 
L 229.831258 294.735063 
L 229.963797 295.041528 
L 230.096336 294.350847 
L 230.228875 294.953215 
L 230.295144 294.745942 
L 230.361414 295.032052 
L 230.427684 294.248575 
L 230.493953 294.875025 
L 230.560223 294.07278 
L 230.626492 294.549667 
L 230.692762 294.081293 
L 230.759031 294.160026 
L 230.89157 294.924532 
L 230.95784 294.77332 
L 231.02411 295.377305 
L 231.156649 294.448557 
L 231.222918 294.586628 
L 231.421727 293.281542 
L 231.487996 293.657234 
L 231.620536 293.986849 
L 231.819344 293.125862 
L 232.018153 294.118433 
L 232.084422 289.888955 
L 232.150692 292.108717 
L 232.216962 292.021364 
L 232.283231 291.407895 
L 232.41577 285.378644 
L 232.48204 292.217793 
L 232.548309 289.240397 
L 232.614579 293.931661 
L 232.680848 277.638721 
L 232.747118 286.209375 
L 232.813388 283.181231 
L 232.945927 290.775694 
L 233.078466 273.492334 
L 233.211005 287.937656 
L 233.277274 283.551724 
L 233.343544 293.477335 
L 233.409814 292.349731 
L 233.476083 292.471786 
L 233.608622 287.645559 
L 233.674892 290.382754 
L 233.741161 283.763154 
L 233.807431 286.695266 
L 233.8737 293.344488 
L 233.93997 293.160794 
L 234.072509 286.176931 
L 234.138779 292.045672 
L 234.205048 282.486777 
L 234.337587 291.45275 
L 234.470126 289.169612 
L 234.536396 278.657922 
L 234.668935 292.494422 
L 234.735205 290.463913 
L 234.801474 283.013101 
L 234.934013 291.337332 
L 235.000283 284.410854 
L 235.066552 286.562731 
L 235.265361 293.987947 
L 235.331631 293.419191 
L 235.3979 291.405852 
L 235.46417 294.30321 
L 235.530439 294.018164 
L 235.596709 294.586816 
L 235.729248 293.163304 
L 235.928057 294.96296 
L 235.994326 295.026528 
L 236.126865 294.65148 
L 236.193135 295.001246 
L 236.259404 294.344374 
L 236.325674 295.365715 
L 236.391943 293.840477 
L 236.458213 294.683026 
L 236.590752 295.049275 
L 236.657022 293.854029 
L 236.723291 294.05511 
L 236.789561 293.817414 
L 236.9221 294.126678 
L 236.988369 293.450458 
L 237.120909 294.802659 
L 237.253448 293.657047 
L 237.319717 294.392239 
L 237.385987 294.29487 
L 237.518526 293.820554 
L 237.584795 294.816216 
L 237.651065 294.342514 
L 237.717335 293.996629 
L 237.849874 294.38404 
L 237.916143 293.512879 
L 237.982413 293.766918 
L 238.048682 294.295763 
L 238.114952 293.901965 
L 238.181221 294.187205 
L 238.247491 293.961158 
L 238.313761 294.45121 
L 238.38003 293.799602 
L 238.4463 294.000495 
L 238.512569 294.375347 
L 238.578839 293.557617 
L 238.645108 293.687767 
L 238.711378 293.640316 
L 238.843917 294.556143 
L 238.910186 293.534205 
L 239.042726 294.444747 
L 239.175265 294.326966 
L 239.241534 294.194592 
L 239.307804 295.2343 
L 239.440343 294.217363 
L 239.506612 294.881658 
L 239.572882 294.373658 
L 239.639152 294.628626 
L 239.705421 295.011205 
L 239.771691 294.634291 
L 239.83796 294.891137 
L 239.970499 295.306791 
L 240.036769 294.394879 
L 240.103038 294.726379 
L 240.169308 294.684404 
L 240.368117 293.765963 
L 240.434386 293.972491 
L 240.500656 294.61285 
L 240.566925 293.742007 
L 240.699464 294.756046 
L 240.832004 294.044856 
L 241.030812 294.682226 
L 241.163351 293.896334 
L 241.229621 295.140663 
L 241.29589 293.187525 
L 241.42843 294.712697 
L 241.494699 294.642105 
L 241.560969 295.125887 
L 241.627238 295.005464 
L 241.759777 294.219603 
L 241.826047 295.043965 
L 241.892316 294.431214 
L 242.024856 295.239122 
L 242.157395 293.81768 
L 242.289934 294.606459 
L 242.356203 294.063491 
L 242.422473 295.145826 
L 242.488742 294.182589 
L 242.555012 294.561635 
L 242.621282 295.079808 
L 242.687551 294.783175 
L 242.753821 294.699992 
L 242.82009 294.859905 
L 242.88636 294.47472 
L 242.952629 294.876763 
L 243.018899 294.776021 
L 243.085168 294.831948 
L 243.151438 295.267238 
L 243.217708 295.03611 
L 243.283977 295.062656 
L 243.350247 295.219042 
L 243.416516 294.836307 
L 243.482786 295.063218 
L 243.549055 295.32071 
L 243.681594 294.828476 
L 243.747864 295.356687 
L 243.814133 295.185113 
L 243.946673 294.692254 
L 244.012942 294.786136 
L 244.079212 295.013363 
L 244.27802 294.335009 
L 244.34429 294.85683 
L 244.410559 293.874573 
L 244.476829 294.68547 
L 244.543099 294.26226 
L 244.609368 294.479657 
L 244.675638 294.20155 
L 244.874446 294.755843 
L 244.940716 295.096381 
L 245.006985 294.423315 
L 245.073255 295.147426 
L 245.139525 294.705224 
L 245.205794 294.366876 
L 245.272064 295.300961 
L 245.338333 294.92395 
L 245.404603 295.379503 
L 245.470872 294.885453 
L 245.537142 295.026606 
L 245.603411 294.810929 
L 245.669681 295.177535 
L 245.735951 295.071293 
L 245.80222 294.717144 
L 245.86849 294.786612 
L 246.001029 294.708601 
L 246.133568 295.329292 
L 246.266107 294.256502 
L 246.332377 294.995167 
L 246.597455 292.535486 
L 246.663724 293.864276 
L 246.729994 292.102189 
L 246.796263 294.051192 
L 246.862533 293.872339 
L 246.928803 285.19926 
L 246.995072 292.257448 
L 247.061342 291.723064 
L 247.193881 286.248389 
L 247.26015 290.382952 
L 247.32642 287.096425 
L 247.392689 292.393213 
L 247.458959 288.777035 
L 247.525229 290.697292 
L 247.591498 288.4299 
L 247.657768 290.142873 
L 247.724037 289.886665 
L 247.790307 290.259157 
L 247.922846 292.196912 
L 247.989115 288.128074 
L 248.055385 294.566412 
L 248.121655 292.130466 
L 248.254194 294.644513 
L 248.386733 293.534428 
L 248.453002 292.737984 
L 248.519272 288.247104 
L 248.585541 293.387947 
L 248.651811 292.52905 
L 248.71808 291.82987 
L 248.78435 287.941312 
L 248.85062 294.695475 
L 248.916889 293.509402 
L 249.049428 288.31644 
L 249.248237 293.663307 
L 249.314506 293.864886 
L 249.380776 290.872369 
L 249.447046 294.534811 
L 249.513315 290.525101 
L 249.579585 292.771497 
L 249.645854 294.502154 
L 249.712124 294.140599 
L 249.778393 292.782653 
L 249.910932 295.358447 
L 250.109741 293.083795 
L 250.176011 294.628993 
L 250.24228 294.371457 
L 250.30855 294.176841 
L 250.374819 295.286154 
L 250.441089 294.677419 
L 250.507358 294.220209 
L 250.706167 294.77161 
L 250.772437 294.827368 
L 250.904976 295.113496 
L 250.971245 294.513981 
L 251.037515 294.580833 
L 251.170054 295.041546 
L 251.236324 294.886594 
L 251.302593 294.820585 
L 251.368863 293.870833 
L 251.567671 295.248708 
L 251.76648 294.684443 
L 251.83275 294.791526 
L 251.899019 294.978585 
L 252.097828 294.338555 
L 252.230367 295.402884 
L 252.362906 294.344304 
L 252.429176 295.180703 
L 252.495445 295.094303 
L 252.561715 294.639019 
L 252.627984 294.780898 
L 252.694254 295.055545 
L 252.826793 294.77894 
L 252.893062 295.158908 
L 253.025602 294.402085 
L 253.158141 295.381674 
L 253.22441 294.940572 
L 253.29068 294.812735 
L 253.356949 295.342983 
L 253.489488 294.235939 
L 253.555758 294.980558 
L 253.622028 294.722467 
L 253.688297 294.283228 
L 253.754567 292.93076 
L 253.820836 293.496691 
L 253.887106 294.945236 
L 253.953375 294.184416 
L 254.019645 294.523551 
L 254.152184 293.585861 
L 254.350993 295.135352 
L 254.417262 294.867807 
L 254.483532 295.408704 
L 254.616071 294.063867 
L 254.68234 294.767696 
L 254.74861 294.254472 
L 254.814879 295.052231 
L 254.881149 294.61546 
L 254.947419 294.872463 
L 255.013688 294.588877 
L 255.079958 295.351047 
L 255.146227 295.111717 
L 255.212497 295.127679 
L 255.278766 294.71352 
L 255.345036 295.005147 
L 255.411305 294.96042 
L 255.477575 294.674163 
L 255.543845 293.525888 
L 255.610114 294.717841 
L 255.676384 293.331075 
L 255.742653 294.833024 
L 255.808923 294.431066 
L 255.875192 293.852792 
L 255.941462 294.852395 
L 256.007731 294.70519 
L 256.074001 294.816559 
L 256.140271 295.284804 
L 256.339079 294.644878 
L 256.405349 294.713246 
L 256.471618 295.453308 
L 256.537888 295.261049 
L 256.670427 294.616721 
L 256.802966 295.486349 
L 256.935505 294.944072 
L 257.001775 295.108609 
L 257.068044 294.521476 
L 257.134314 295.208417 
L 257.200583 294.870189 
L 257.266853 294.686555 
L 257.333123 295.348632 
L 257.399392 294.807323 
L 257.465662 295.273286 
L 257.531931 294.880959 
L 257.598201 294.896378 
L 257.66447 294.975532 
L 257.863279 293.96244 
L 257.929549 295.021112 
L 257.995818 293.368916 
L 258.062088 293.453628 
L 258.128357 295.147736 
L 258.194627 294.994754 
L 258.327166 294.104153 
L 258.393435 295.273053 
L 258.525975 294.065415 
L 258.724783 294.493239 
L 258.923592 294.066187 
L 258.989861 294.91999 
L 259.056131 294.821035 
L 259.1224 294.675482 
L 259.18867 295.068323 
L 259.25494 294.70499 
L 259.321209 294.736355 
L 259.520018 295.100387 
L 259.586287 293.930592 
L 259.652557 295.34677 
L 259.718826 294.309867 
L 259.785096 294.345173 
L 259.983905 295.4039 
L 260.116444 293.83124 
L 260.182713 294.72906 
L 260.248983 294.458678 
L 260.381522 294.005578 
L 260.514061 294.943571 
L 260.580331 294.263766 
L 260.6466 294.663007 
L 260.71287 294.520565 
L 260.779139 295.125417 
L 260.845409 294.967656 
L 261.110487 293.117818 
L 261.176757 293.699046 
L 261.243026 293.404795 
L 261.375565 294.787997 
L 261.441835 287.993206 
L 261.508104 290.516797 
L 261.640644 293.593021 
L 261.706913 289.954658 
L 261.773183 292.797142 
L 261.839452 286.005674 
L 261.905722 293.5529 
L 261.971991 291.864343 
L 262.038261 287.952114 
L 262.10453 288.585139 
L 262.303339 292.920777 
L 262.369609 293.895493 
L 262.502148 291.738925 
L 262.700956 293.894519 
L 262.767226 290.678598 
L 262.899765 294.487013 
L 263.032304 292.543408 
L 263.098574 294.699929 
L 263.164843 293.735436 
L 263.297382 292.837618 
L 263.363652 294.029228 
L 263.429922 288.875957 
L 263.496191 292.217346 
L 263.562461 291.710312 
L 263.695 295.128091 
L 263.761269 289.813227 
L 263.827539 293.591993 
L 263.893808 292.439343 
L 263.960078 292.075366 
L 264.092617 293.436007 
L 264.158887 293.162595 
L 264.225156 293.214278 
L 264.357695 294.53382 
L 264.490234 293.676088 
L 264.689043 294.902952 
L 264.821582 294.321093 
L 265.020391 295.310024 
L 265.08666 295.117894 
L 265.15293 294.080646 
L 265.219199 294.44012 
L 265.351739 295.339264 
L 265.418008 295.246728 
L 265.484278 294.8226 
L 265.550547 295.143447 
L 265.616817 294.902784 
L 265.683086 295.240073 
L 265.749356 295.068058 
L 265.815625 294.943696 
L 265.948165 295.321034 
L 266.014434 294.857621 
L 266.080704 295.269672 
L 266.146973 295.254325 
L 266.213243 295.019148 
L 266.345782 295.386227 
L 266.412051 295.079343 
L 266.478321 295.333095 
L 266.544591 295.12598 
L 266.61086 295.356418 
L 266.67713 295.327059 
L 266.743399 295.208916 
L 266.809669 295.311664 
L 267.074747 295.188827 
L 267.141017 295.06054 
L 267.207286 295.413635 
L 267.273556 295.330116 
L 267.538634 294.962324 
L 267.604903 295.022995 
L 267.671173 295.2749 
L 267.737443 295.254399 
L 267.803712 295.292382 
L 267.936251 295.028268 
L 268.002521 295.366641 
L 268.06879 295.242078 
L 268.201329 295.394868 
L 268.333869 295.064936 
L 268.400138 295.376932 
L 268.466408 295.31482 
L 268.598947 295.338224 
L 268.797755 295.156077 
L 268.864025 295.272417 
L 268.930294 295.194574 
L 268.996564 295.077655 
L 269.062834 295.43419 
L 269.129103 294.874532 
L 269.195373 295.084502 
L 269.261642 295.288348 
L 269.327912 295.179516 
L 269.394181 295.139302 
L 269.52672 295.324735 
L 269.59299 295.037304 
L 269.65926 295.305945 
L 269.725529 295.19366 
L 269.791799 295.26078 
L 269.858068 295.127492 
L 269.924338 295.429956 
L 269.990607 295.408393 
L 270.123146 295.293294 
L 270.189416 295.327105 
L 270.255686 294.953532 
L 270.321955 295.162303 
L 270.388225 295.079304 
L 270.454494 295.292856 
L 270.520764 295.24705 
L 270.587033 295.270455 
L 270.719572 295.120646 
L 270.785842 295.397049 
L 270.852112 295.048173 
L 270.918381 295.070511 
L 270.984651 295.387643 
L 271.05092 295.312011 
L 271.11719 295.359847 
L 271.183459 294.956108 
L 271.249729 294.97811 
L 271.315998 295.009208 
L 271.382268 295.19722 
L 271.448538 295.144092 
L 271.514807 294.851233 
L 271.647346 295.416734 
L 271.713616 295.367713 
L 271.779885 294.818165 
L 271.846155 295.170066 
L 272.111233 295.456615 
L 272.177503 295.196299 
L 272.243772 295.393328 
L 272.442581 295.06901 
L 272.57512 295.36589 
L 272.707659 295.067547 
L 272.840198 295.477571 
L 273.039007 295.13711 
L 273.105276 295.2078 
L 273.237816 294.73108 
L 273.304085 295.311482 
L 273.370355 295.167612 
L 273.436624 294.822508 
L 273.502894 295.096427 
L 273.569163 294.933437 
L 273.701702 294.806497 
L 273.834241 295.306867 
L 274.03305 294.876263 
L 274.09932 295.340259 
L 274.165589 295.265394 
L 274.364398 294.920301 
L 274.496937 294.579104 
L 274.695746 295.027883 
L 274.960824 294.674906 
L 275.027093 295.171075 
L 275.093363 295.000944 
L 275.159633 294.950589 
L 275.225902 295.256888 
L 275.292172 295.182022 
L 275.424711 293.943407 
L 275.49098 294.988767 
L 275.55725 294.262809 
L 275.623519 290.753546 
L 275.689789 294.742482 
L 275.756059 292.499169 
L 275.888598 294.539313 
L 275.954867 292.350329 
L 276.021137 292.809944 
L 276.087406 292.147332 
L 276.153676 293.096521 
L 276.418754 287.724613 
L 276.485024 292.545371 
L 276.551293 290.21458 
L 276.617563 292.663593 
L 276.683832 291.324111 
L 276.750102 290.733695 
L 276.816371 294.832243 
L 276.882641 292.497586 
L 276.948911 294.018989 
L 277.01518 291.486706 
L 277.08145 293.466254 
L 277.147719 291.967708 
L 277.213989 293.307853 
L 277.280258 293.286224 
L 277.346528 289.793245 
L 277.412797 290.563403 
L 277.545337 293.73848 
L 277.611606 292.817281 
L 277.677876 287.039451 
L 277.744145 290.906789 
L 277.810415 288.160044 
L 277.876684 293.269425 
L 278.009223 288.814832 
L 278.075493 290.658448 
L 278.141763 288.706417 
L 278.340571 292.618815 
L 278.47311 285.497856 
L 278.53938 290.926141 
L 278.605649 287.515474 
L 278.671919 287.864926 
L 278.870728 293.48003 
L 278.936997 295.271343 
L 279.003267 290.562635 
L 279.069536 294.560963 
L 279.135806 293.043242 
L 279.202075 294.681718 
L 279.268345 293.230712 
L 279.334614 294.839681 
L 279.467154 293.357365 
L 279.599693 295.215988 
L 279.798501 294.062139 
L 279.864771 295.12647 
L 279.93104 294.804454 
L 279.99731 294.237717 
L 280.06358 294.307934 
L 280.129849 294.408276 
L 280.196119 293.894659 
L 280.394927 294.808561 
L 280.527466 294.514981 
L 280.593736 295.179417 
L 280.660006 294.836549 
L 280.792545 295.079329 
L 280.991353 295.311131 
L 281.057623 294.75216 
L 281.123892 295.395357 
L 281.190162 295.105715 
L 281.256432 295.045936 
L 281.322701 295.189843 
L 281.388971 295.071325 
L 281.45524 295.109913 
L 281.52151 295.335112 
L 281.587779 294.960292 
L 281.654049 295.075144 
L 281.852858 295.383973 
L 281.919127 295.345713 
L 281.985397 294.995892 
L 282.051666 295.238429 
L 282.316744 295.298008 
L 282.449284 294.978355 
L 282.515553 295.059502 
L 282.846901 295.429449 
L 282.91317 295.281786 
L 282.97944 294.413454 
L 283.04571 294.992062 
L 283.111979 294.528815 
L 283.178249 294.744355 
L 283.244518 295.146803 
L 283.310788 294.931941 
L 283.377057 294.899786 
L 283.509596 295.285526 
L 283.642136 294.688802 
L 283.708405 295.168722 
L 283.774675 294.985968 
L 283.840944 295.214198 
L 283.907214 295.073042 
L 284.106022 295.278968 
L 284.172292 295.029845 
L 284.238561 295.093257 
L 284.304831 295.051852 
L 284.371101 295.412024 
L 284.569909 294.378107 
L 284.768718 295.32652 
L 284.901257 295.051227 
L 284.967527 295.097065 
L 285.033796 294.940166 
L 285.166335 295.382206 
L 285.232605 295.297994 
L 285.298874 295.110275 
L 285.365144 295.313868 
L 285.497683 294.773607 
L 285.630222 295.280536 
L 285.696492 295.093189 
L 285.762761 295.40971 
L 285.829031 294.897849 
L 285.8953 294.939856 
L 286.027839 295.254243 
L 286.226648 295.274119 
L 286.359187 295.341701 
L 286.425457 295.149743 
L 286.491726 295.308488 
L 286.557996 295.251344 
L 286.756805 295.425507 
L 286.889344 295.029747 
L 286.955613 295.273144 
L 287.220691 295.152333 
L 287.286961 294.870454 
L 287.353231 295.041092 
L 287.4195 295.463252 
L 287.48577 295.103599 
L 287.552039 295.295112 
L 287.618309 295.248154 
L 287.684578 295.377195 
L 287.750848 295.336373 
L 287.883387 295.411565 
L 288.082196 295.135437 
L 288.148465 295.320023 
L 288.214735 295.094979 
L 288.281004 295.202572 
L 288.479813 295.295807 
L 288.612352 294.889916 
L 288.744891 295.219553 
L 288.9437 295.049268 
L 289.009969 295.246557 
L 289.208778 294.923675 
L 289.341317 295.349237 
L 289.407587 295.278233 
L 289.540126 293.973963 
L 289.738934 294.910864 
L 289.871474 293.250839 
L 289.937743 294.244378 
L 290.136552 291.794757 
L 290.269091 292.877489 
L 290.40163 292.010622 
L 290.666708 294.493608 
L 290.732978 289.031813 
L 290.799247 290.691656 
L 290.865517 289.193096 
L 290.931786 284.418521 
L 291.130595 295.443081 
L 291.196865 292.595641 
L 291.263134 293.570197 
L 291.329404 294.931895 
L 291.395673 294.782977 
L 291.594482 286.277891 
L 291.660752 288.087151 
L 291.727021 293.813279 
L 291.793291 293.153675 
L 291.92583 294.777815 
L 292.058369 291.96557 
L 292.124638 293.693276 
L 292.190908 289.040835 
L 292.257178 294.488592 
L 292.323447 294.366968 
L 292.455986 292.407023 
L 292.654795 295.069144 
L 292.721064 293.900396 
L 292.787334 294.910049 
L 292.853604 293.117552 
L 292.919873 293.309154 
L 292.986143 293.693258 
L 293.052412 293.557155 
L 293.118682 291.054356 
L 293.184951 294.471059 
L 293.251221 292.362762 
L 293.31749 291.318976 
L 293.38376 295.234406 
L 293.45003 292.635251 
L 293.582569 294.310703 
L 293.648838 290.798285 
L 293.715108 294.005055 
L 293.781377 293.490731 
L 293.847647 294.495214 
L 293.913916 294.040522 
L 293.980186 293.446546 
L 294.178995 295.335742 
L 294.311534 294.427324 
L 294.510342 295.129992 
L 294.576612 295.015731 
L 294.709151 294.796103 
L 294.775421 295.115346 
L 294.84169 294.912271 
L 294.90796 294.803728 
L 294.974229 295.307947 
L 295.040499 295.236304 
L 295.106768 295.449972 
L 295.173038 295.109731 
L 295.239307 295.152834 
L 295.438116 295.177264 
L 295.504386 295.373403 
L 295.636925 295.178151 
L 295.703194 295.223875 
L 295.769464 295.118693 
L 295.835733 295.173845 
L 296.034542 295.330731 
L 296.100812 295.406486 
L 296.167081 295.199812 
L 296.233351 295.468336 
L 296.29962 295.393979 
L 296.36589 295.254367 
L 296.432159 295.300712 
L 296.564699 295.354715 
L 296.763507 295.017572 
L 296.829777 295.277226 
L 296.896046 294.93298 
L 296.962316 295.114186 
L 297.028585 295.257316 
L 297.094855 295.075314 
L 297.161125 295.396568 
L 297.227394 295.241643 
L 297.293664 295.3777 
L 297.492472 294.91007 
L 297.558742 295.301311 
L 297.625011 295.181714 
L 297.691281 294.880629 
L 297.82382 295.225042 
L 297.89009 295.123121 
L 297.956359 295.423005 
L 298.022629 295.211645 
L 298.155168 295.167998 
L 298.221437 295.399549 
L 298.287707 295.343011 
L 298.353977 295.458353 
L 298.486516 294.979487 
L 298.552785 295.258653 
L 298.619055 295.118957 
L 298.884133 295.419951 
L 299.016672 295.154252 
L 299.082942 295.352364 
L 299.149211 295.322602 
L 299.28175 294.948347 
L 299.414289 295.025826 
L 299.480559 295.140716 
L 299.613098 294.872761 
L 299.679368 294.969552 
L 299.745637 294.865779 
L 299.811907 295.025157 
L 299.878176 294.896215 
L 299.944446 294.72196 
L 300.076985 295.203887 
L 300.143254 295.062875 
L 300.275794 295.233134 
L 300.342063 295.260324 
L 300.540872 295.076508 
L 300.607141 295.237991 
L 300.673411 294.862851 
L 300.73968 295.300092 
L 300.87222 294.742764 
L 301.004759 295.285708 
L 301.137298 294.552509 
L 301.336106 295.334564 
L 301.402376 294.794435 
L 301.468646 295.180127 
L 301.534915 294.935822 
L 301.601185 294.748452 
L 301.667454 294.99444 
L 301.733724 294.637703 
L 301.799993 294.81359 
L 301.866263 295.238793 
L 301.998802 294.58658 
L 302.065072 294.999296 
L 302.131341 294.753951 
L 302.26388 294.76811 
L 302.33015 295.236396 
L 302.396419 295.143805 
L 302.462689 295.293953 
L 302.595228 295.013865 
L 302.727767 295.332212 
L 302.794037 294.746366 
L 302.860306 295.123523 
L 302.926576 294.569072 
L 302.992845 295.03423 
L 303.059115 294.990801 
L 303.324193 295.062734 
L 303.589271 295.409954 
L 303.655541 295.411335 
L 303.72181 295.218916 
L 303.78808 295.449029 
L 303.854349 295.319752 
L 303.986889 294.940343 
L 304.053158 295.106192 
L 304.119428 295.074333 
L 304.185697 295.279421 
L 304.384506 293.415113 
L 304.450775 294.367623 
L 304.517045 294.217612 
L 304.649584 291.868006 
L 304.782123 292.537807 
L 304.848393 294.387836 
L 304.914662 294.302776 
L 304.980932 293.211962 
L 305.047201 293.413004 
L 305.24601 292.229191 
L 305.31228 292.792891 
L 305.378549 295.091831 
L 305.444819 294.636701 
L 305.511088 294.75616 
L 305.643627 294.180839 
L 305.709897 294.200424 
L 305.842436 293.823811 
L 305.908706 294.141594 
L 305.974975 293.944134 
L 306.107514 294.434334 
L 306.173784 293.413485 
L 306.240053 294.503932 
L 306.306323 293.660007 
L 306.372593 294.902326 
L 306.438862 294.542208 
L 306.505132 294.76256 
L 306.70394 293.185349 
L 306.836479 294.115448 
L 306.902749 293.824507 
L 306.969019 294.867886 
L 307.234097 290.915706 
L 307.300366 294.294046 
L 307.366636 292.021437 
L 307.432905 292.604264 
L 307.499175 291.989186 
L 307.565445 292.33101 
L 307.697984 293.57651 
L 307.764253 293.512594 
L 307.830523 292.379818 
L 307.896792 292.404989 
L 307.963062 293.69568 
L 308.029331 292.29955 
L 308.095601 294.935649 
L 308.29441 292.471251 
L 308.493218 294.196149 
L 308.559488 292.583554 
L 308.625757 293.4909 
L 308.692027 295.35162 
L 308.758296 294.290137 
L 308.824566 295.39613 
L 308.957105 294.216346 
L 309.023375 294.831337 
L 309.089644 294.787956 
L 309.155914 294.992714 
L 309.222183 294.5776 
L 309.487262 295.466366 
L 309.68607 295.10989 
L 309.75234 295.282518 
L 309.818609 295.126277 
L 309.884879 295.177529 
L 309.951148 295.245145 
L 310.017418 295.032486 
L 310.083688 295.177034 
L 310.282496 295.209598 
L 310.415035 295.370386 
L 310.481305 295.238993 
L 311.011461 295.17892 
L 311.077731 295.349498 
L 311.144 295.219215 
L 311.27654 295.35058 
L 311.475348 295.21069 
L 311.541618 295.397763 
L 311.740426 295.112229 
L 311.939235 295.272531 
L 312.005505 295.23932 
L 312.138044 294.970604 
L 312.204313 295.298264 
L 312.270583 295.152 
L 312.336852 295.143809 
L 312.469392 295.350624 
L 312.535661 295.230415 
L 312.601931 295.328899 
L 312.73447 295.381304 
L 312.867009 295.131873 
L 312.999548 295.320365 
L 313.132087 295.226092 
L 313.198357 295.340288 
L 313.264626 295.220122 
L 313.330896 295.390978 
L 313.397165 295.331718 
L 313.662244 295.26914 
L 313.861052 295.391173 
L 313.993591 295.270288 
L 314.1924 295.344025 
L 314.324939 295.122868 
L 314.391209 295.362013 
L 314.457478 295.22135 
L 314.656287 295.399702 
L 314.855095 295.190118 
L 314.921365 295.201181 
L 314.987635 294.892051 
L 315.120174 295.339229 
L 315.186443 295.183685 
L 315.252713 295.241053 
L 315.318982 295.347252 
L 315.385252 295.085506 
L 315.451521 295.185013 
L 315.65033 295.378281 
L 315.7166 295.29472 
L 315.782869 295.427797 
L 315.849139 295.201883 
L 315.981678 295.435969 
L 316.047947 295.273323 
L 316.114217 295.367042 
L 316.180487 295.292081 
L 316.379295 295.475437 
L 316.445565 295.293132 
L 316.511834 295.44073 
L 316.578104 295.344635 
L 316.644373 295.264046 
L 316.776913 295.469383 
L 316.975721 295.303252 
L 317.17453 295.355665 
L 317.439608 295.40634 
L 317.638417 295.140188 
L 317.770956 295.270615 
L 317.903495 295.081015 
L 318.036034 295.37829 
L 318.102304 294.876131 
L 318.168573 295.405407 
L 318.234843 294.743401 
L 318.301112 295.068126 
L 318.367382 295.116375 
L 318.566191 294.521275 
L 318.69873 294.902194 
L 318.764999 294.113332 
L 318.831269 294.42384 
L 318.897538 293.953733 
L 318.963808 294.806266 
L 319.030077 294.03709 
L 319.096347 294.683239 
L 319.162616 293.430159 
L 319.228886 294.959367 
L 319.295156 294.254338 
L 319.361425 294.076983 
L 319.493964 291.146033 
L 319.560234 290.976027 
L 319.692773 294.819073 
L 319.759042 293.44527 
L 319.825312 293.814022 
L 319.891582 294.717484 
L 319.957851 294.15557 
L 320.09039 293.359033 
L 320.289199 294.557335 
L 320.421738 293.055223 
L 320.554277 293.579316 
L 320.620547 292.89349 
L 320.753086 293.812511 
L 320.819355 293.493418 
L 320.951894 294.615167 
L 321.018164 293.657928 
L 321.150703 294.572725 
L 321.216973 294.08536 
L 321.283242 294.855508 
L 321.482051 293.578455 
L 321.54832 294.59011 
L 321.61459 294.511603 
L 321.68086 294.324796 
L 321.747129 293.10299 
L 321.813399 294.571603 
L 321.879668 294.316234 
L 321.945938 294.341968 
L 322.012207 293.553722 
L 322.078477 294.897451 
L 322.144746 292.396979 
L 322.211016 293.063773 
L 322.277286 294.544973 
L 322.343555 294.121218 
L 322.409825 293.590644 
L 322.542364 294.481936 
L 322.608633 294.043692 
L 322.807442 295.117895 
L 322.873712 295.281065 
L 323.07252 293.144951 
L 323.13879 294.962736 
L 323.205059 294.11305 
L 323.337598 295.141573 
L 323.403868 294.266141 
L 323.470138 294.556504 
L 323.536407 294.263368 
L 323.602677 295.43302 
L 323.668946 294.969474 
L 323.801485 295.221393 
L 323.934024 294.796432 
L 324.132833 295.301876 
L 324.331642 294.985676 
L 324.53045 295.422799 
L 324.59672 295.382989 
L 324.928068 295.271332 
L 324.994337 295.394026 
L 325.060607 295.310906 
L 325.391955 295.384557 
L 325.524494 295.169098 
L 325.590763 295.312677 
L 325.657033 295.11265 
L 325.723302 295.372853 
L 325.789572 295.28377 
L 325.855841 295.078473 
L 325.922111 295.158315 
L 325.988381 295.357649 
L 326.12092 295.020302 
L 326.187189 295.083152 
L 326.253459 295.199342 
L 326.385998 295.092662 
L 326.717346 295.244831 
L 326.783615 295.295075 
L 326.849885 295.189681 
L 326.916154 295.268837 
L 327.048693 295.203502 
L 327.247502 295.385272 
L 327.313772 295.433751 
L 327.380041 295.215752 
L 327.446311 295.403593 
L 327.645119 295.213532 
L 327.843928 295.458373 
L 327.976467 295.420193 
L 329.03678 295.278986 
L 329.169319 295.423086 
L 329.434397 295.449519 
L 329.699476 295.358008 
L 329.765745 295.294205 
L 329.832015 295.41903 
L 329.898284 295.264978 
L 329.964554 295.388247 
L 330.362171 295.348885 
L 330.428441 295.444918 
L 330.49471 295.355106 
L 330.627249 295.348669 
L 330.826058 295.393981 
L 330.892328 295.300076 
L 330.958597 295.352093 
L 331.024867 295.469548 
L 331.157406 295.322177 
L 331.223675 295.399313 
L 331.289945 295.252721 
L 331.356214 295.373971 
L 331.488754 295.337375 
L 331.555023 295.321218 
L 331.621293 295.170603 
L 331.687562 295.334876 
L 331.753832 295.043114 
L 331.820101 295.323764 
L 331.886371 295.214346 
L 332.217719 295.416697 
L 332.283988 295.368236 
L 332.416527 295.032358 
L 332.482797 295.39407 
L 332.549066 295.331192 
L 332.615336 295.366375 
L 332.747875 294.625863 
L 332.814145 294.852159 
L 332.880414 295.240345 
L 333.145492 293.107274 
L 333.211762 294.240107 
L 333.278032 293.748489 
L 333.344301 293.494808 
L 333.47684 294.330229 
L 333.54311 293.652442 
L 333.609379 295.200413 
L 333.675649 293.119652 
L 333.741918 294.228402 
L 333.874457 295.286438 
L 334.006997 292.924804 
L 334.139536 291.31696 
L 334.205805 291.467931 
L 334.338344 294.267104 
L 334.404614 293.584945 
L 334.470883 293.607082 
L 334.537153 293.580956 
L 334.669692 294.496142 
L 334.735962 293.019586 
L 334.802231 293.552752 
L 334.868501 293.806299 
L 334.93477 291.897123 
L 335.00104 294.440525 
L 335.067309 292.832794 
L 335.199849 294.34646 
L 335.398657 292.346466 
L 335.531196 295.110738 
L 335.597466 293.269412 
L 335.663735 295.417599 
L 335.730005 293.368554 
L 335.796275 294.784069 
L 335.862544 293.750199 
L 335.928814 294.794362 
L 336.061353 293.854396 
L 336.127622 293.845258 
L 336.193892 294.954291 
L 336.260161 293.250175 
L 336.392701 295.199015 
L 336.591509 293.050229 
L 336.790318 295.070801 
L 336.856587 294.625347 
L 336.922857 291.946871 
L 336.989127 294.157752 
L 337.055396 292.264623 
L 337.121666 295.016816 
L 337.187935 293.153731 
L 337.320474 294.545561 
L 337.386744 293.915058 
L 337.453013 294.070779 
L 337.519283 294.229688 
L 337.585553 293.995709 
L 337.651822 294.841385 
L 337.718092 294.118036 
L 337.784361 294.183159 
L 337.9169 295.110301 
L 338.049439 293.494881 
L 338.115709 294.057864 
L 338.181979 294.137432 
L 338.248248 294.797752 
L 338.314518 294.300587 
L 338.380787 294.408073 
L 338.447057 294.252566 
L 338.579596 294.645705 
L 338.645865 294.492131 
L 338.712135 294.66951 
L 338.844674 295.255774 
L 338.977213 294.653996 
L 339.043483 294.879707 
L 339.176022 295.10865 
L 339.308561 295.149869 
L 339.37483 295.050403 
L 339.4411 295.312251 
L 339.50737 295.094788 
L 339.573639 295.413601 
L 339.639909 295.099514 
L 339.706178 295.264387 
L 339.772448 295.224301 
L 339.971256 295.467824 
L 340.037526 295.339662 
L 340.103796 295.42183 
L 340.368874 295.160876 
L 340.435143 295.462088 
L 340.501413 295.248531 
L 340.633952 295.40131 
L 340.832761 295.161096 
L 340.89903 295.450808 
L 340.9653 295.15708 
L 341.097839 295.476649 
L 341.164108 295.18756 
L 341.230378 295.390168 
L 341.296648 295.262398 
L 341.362917 295.439825 
L 341.429187 295.159316 
L 341.561726 295.403198 
L 341.627995 295.147333 
L 341.694265 295.395509 
L 341.760534 295.323369 
L 342.025613 295.289664 
L 342.158152 295.131217 
L 342.224421 295.376903 
L 342.290691 295.271669 
L 342.622039 295.42087 
L 342.688308 295.219959 
L 342.754578 295.302321 
L 342.887117 295.406199 
L 342.953386 295.277972 
L 343.019656 295.361032 
L 343.152195 295.34648 
L 343.284734 295.170791 
L 343.351004 295.304897 
L 343.417273 295.260986 
L 343.549812 295.362756 
L 343.748621 295.109538 
L 343.88116 295.325479 
L 344.079969 295.223018 
L 344.146238 295.445003 
L 344.212508 295.283759 
L 344.345047 295.404301 
L 344.411317 295.12524 
L 344.477586 295.44838 
L 344.543856 295.250022 
L 344.610125 295.123368 
L 344.676395 295.349935 
L 344.808934 295.021506 
L 344.875203 295.373743 
L 344.941473 295.217263 
L 345.007743 295.196712 
L 345.074012 295.39674 
L 345.140282 295.210196 
L 345.206551 295.292975 
L 345.471629 295.159228 
L 345.537899 295.469189 
L 345.604169 294.932591 
L 345.670438 295.276347 
L 345.802977 295.084006 
L 345.869247 295.203013 
L 346.001786 295.264357 
L 346.266864 295.08657 
L 346.333134 295.341464 
L 346.399403 295.13356 
L 346.465673 295.315834 
L 346.664481 294.985679 
L 346.730751 295.220659 
L 346.86329 294.913663 
L 346.92956 295.278842 
L 346.995829 294.824045 
L 347.062099 295.23406 
L 347.128368 294.917553 
L 347.194638 294.976943 
L 347.260907 295.137057 
L 347.327177 294.715357 
L 347.393447 295.161705 
L 347.459716 294.420455 
L 347.525986 295.049886 
L 347.592255 294.422714 
L 347.658525 294.60097 
L 347.724794 294.562499 
L 347.857333 293.569816 
L 347.923603 293.708641 
L 347.989873 294.467486 
L 348.056142 294.198781 
L 348.122412 294.061702 
L 348.188681 293.444597 
L 348.254951 294.394989 
L 348.32122 293.422031 
L 348.38749 293.987788 
L 348.453759 293.935238 
L 348.586299 293.332051 
L 348.652568 293.393347 
L 348.785107 292.922388 
L 348.851377 294.958991 
L 348.917646 294.259704 
L 348.983916 293.619996 
L 349.050185 294.190162 
L 349.116455 293.932422 
L 349.182724 294.140306 
L 349.381533 292.902494 
L 349.447803 293.116898 
L 349.514072 294.161573 
L 349.580342 293.408451 
L 349.646611 294.859826 
L 349.712881 294.613593 
L 349.77915 293.142494 
L 349.84542 293.51707 
L 349.91169 294.19553 
L 349.977959 293.377132 
L 350.110498 295.282994 
L 350.243037 293.657547 
L 350.309307 295.097393 
L 350.375576 294.910168 
L 350.508116 293.728883 
L 350.574385 293.780272 
L 350.706924 293.446195 
L 350.773194 291.886862 
L 350.839463 295.084671 
L 350.905733 294.918286 
L 350.972002 295.163185 
L 351.104542 292.259482 
L 351.170811 292.744785 
L 351.237081 292.628007 
L 351.36962 294.117392 
L 351.435889 293.885064 
L 351.502159 293.200069 
L 351.700968 295.128438 
L 351.767237 294.770997 
L 351.833507 295.202156 
L 351.899776 294.63749 
L 352.032315 295.056278 
L 352.164854 294.855394 
L 352.231124 295.343457 
L 352.297394 294.20172 
L 352.429933 295.385216 
L 352.496202 295.111024 
L 352.562472 295.332485 
L 352.695011 295.149444 
L 352.76128 295.285421 
L 352.82755 295.040633 
L 352.89382 295.248734 
L 352.960089 294.964928 
L 353.026359 295.279574 
L 353.092628 295.114676 
L 353.225167 295.308876 
L 353.291437 295.053114 
L 353.357706 295.28163 
L 353.423976 295.220302 
L 353.490246 295.308416 
L 353.556515 295.234905 
L 354.152941 295.462641 
L 354.219211 295.230526 
L 354.28548 295.415719 
L 354.35175 295.363374 
L 354.484289 295.307953 
L 354.616828 295.447696 
L 354.749367 295.328844 
L 354.815637 295.409978 
L 354.881906 295.347099 
L 355.014445 295.31665 
L 355.080715 295.203097 
L 355.146984 295.402933 
L 355.213254 295.289572 
L 355.544602 295.170854 
L 355.74341 295.331271 
L 355.80968 295.099736 
L 355.875949 295.122223 
L 356.141028 295.205616 
L 356.207297 295.076031 
L 356.273567 295.191057 
L 356.339836 295.123054 
L 356.406106 295.124718 
L 356.604915 295.281647 
L 356.803723 295.317352 
L 357.068801 295.41868 
L 357.33388 295.373345 
L 357.466419 295.459752 
L 357.665227 295.310655 
L 357.864036 295.385488 
L 357.930306 295.294446 
L 358.062845 295.469198 
L 358.261653 295.375407 
L 358.394193 295.38867 
L 358.460462 295.271335 
L 358.659271 295.459631 
L 358.924349 295.324038 
L 359.056888 295.421163 
L 359.189427 295.297679 
L 359.255697 295.400985 
L 359.321966 295.335321 
L 359.520775 295.370431 
L 359.587044 295.282026 
L 359.653314 295.345646 
L 359.984662 295.29551 
L 360.18347 295.210912 
L 360.31601 295.403575 
L 360.514818 295.315426 
L 360.647357 295.312719 
L 361.243783 295.44102 
L 361.310053 295.21481 
L 361.376322 295.319278 
L 361.442592 295.314649 
L 361.508862 295.101041 
L 361.575131 295.217685 
L 361.641401 295.330608 
L 361.70767 295.280216 
L 361.77394 294.995289 
L 361.840209 295.229072 
L 362.171557 294.370164 
L 362.304096 295.045589 
L 362.436635 294.363193 
L 362.502905 294.827085 
L 362.569174 294.425839 
L 362.635444 295.357949 
L 362.701714 294.894763 
L 362.767983 294.986499 
L 362.834253 294.906158 
L 362.900522 294.626992 
L 363.033061 295.31555 
L 363.099331 295.20017 
L 363.1656 295.234129 
L 363.23187 294.951246 
L 363.364409 295.332399 
L 363.563218 295.07433 
L 363.629487 295.38504 
L 363.695757 295.034221 
L 363.762026 295.378496 
L 363.828296 294.939329 
L 363.894565 295.0728 
L 363.960835 294.853785 
L 364.027105 295.127992 
L 364.093374 294.834482 
L 364.159644 295.201856 
L 364.225913 294.59554 
L 364.292183 294.801032 
L 364.358452 295.35603 
L 364.490991 294.442714 
L 364.557261 295.344199 
L 364.623531 294.510658 
L 364.6898 294.948518 
L 364.75607 295.032263 
L 364.822339 294.34479 
L 364.888609 294.765285 
L 364.954878 295.27702 
L 365.021148 295.198852 
L 365.087417 294.732197 
L 365.153687 295.338826 
L 365.219957 295.027321 
L 365.352496 295.388474 
L 365.418765 294.642709 
L 365.485035 295.013892 
L 365.551304 294.952563 
L 365.683843 293.817018 
L 365.882652 295.24096 
L 366.015191 294.75065 
L 366.081461 295.359281 
L 366.14773 294.996868 
L 366.214 295.173611 
L 366.346539 294.888834 
L 366.412809 295.001499 
L 366.479078 293.821666 
L 366.611617 295.289786 
L 366.677887 293.935049 
L 366.744156 294.89671 
L 366.810426 294.11519 
L 366.876695 295.253426 
L 366.942965 294.427481 
L 367.075504 295.309138 
L 367.141774 294.040615 
L 367.208043 294.764537 
L 367.274313 294.645673 
L 367.340582 295.24573 
L 367.406852 295.088286 
L 367.473121 294.148977 
L 367.539391 295.040386 
L 367.605661 294.837386 
L 367.67193 295.251913 
L 367.7382 294.912066 
L 367.804469 295.039261 
L 368.003278 295.1889 
L 368.069547 294.934028 
L 368.135817 294.986367 
L 368.268356 295.164312 
L 368.334626 294.937227 
L 368.400895 295.410499 
L 368.467165 295.150471 
L 368.533434 295.318309 
L 368.599704 295.091159 
L 368.665973 295.357064 
L 368.732243 295.247633 
L 368.798512 295.351996 
L 368.864782 295.200342 
L 368.931052 295.42882 
L 369.063591 295.218405 
L 369.262399 295.31235 
L 369.593747 295.437631 
L 369.726286 295.385492 
L 370.72033 295.420223 
L 370.786599 295.264385 
L 370.852869 295.488 
L 370.985408 295.225598 
L 371.051677 295.407706 
L 371.117947 295.171643 
L 371.184216 295.389287 
L 371.250486 295.32154 
L 371.383025 295.400166 
L 371.449295 295.153689 
L 371.515564 295.304893 
L 371.714373 295.423048 
L 371.979451 295.412059 
L 372.244529 295.404929 
L 372.310799 295.463291 
L 372.377068 295.348807 
L 372.443338 295.45274 
L 372.708416 295.428545 
L 372.907225 295.455202 
L 372.973494 295.445005 
L 373.039764 295.275707 
L 373.106034 295.439714 
L 373.172303 295.407266 
L 373.371112 295.280416 
L 373.437381 295.39162 
L 373.503651 295.210075 
L 373.56992 295.266312 
L 373.70246 295.344342 
L 373.768729 295.430158 
L 373.834999 295.191397 
L 373.901268 295.394306 
L 373.967538 295.327537 
L 374.630233 295.363804 
L 374.696503 295.205395 
L 374.762772 295.319473 
L 374.895311 295.299732 
L 374.961581 295.433161 
L 375.027851 295.381973 
L 375.226659 295.263898 
L 375.292929 295.479565 
L 375.359198 295.269528 
L 375.425468 295.306205 
L 375.624277 295.316385 
L 375.955624 295.283638 
L 376.088163 295.335626 
L 376.154433 295.129006 
L 376.220703 295.175124 
L 376.353242 295.046227 
L 376.419511 295.378672 
L 376.485781 295.186483 
L 376.55205 295.353551 
L 376.750859 293.98306 
L 376.817129 295.084384 
L 376.883398 293.803815 
L 377.015937 295.098181 
L 377.148476 294.400128 
L 377.214746 295.148327 
L 377.281015 295.074528 
L 377.413555 294.078551 
L 377.546094 295.020776 
L 377.612363 294.904693 
L 377.678633 294.027697 
L 377.744902 294.517163 
L 377.811172 294.647655 
L 377.943711 295.32312 
L 378.009981 295.307156 
L 378.07625 295.240272 
L 378.14252 293.498012 
L 378.208789 295.286228 
L 378.275059 294.588795 
L 378.341328 294.705731 
L 378.407598 295.119373 
L 378.473867 293.908162 
L 378.672676 295.224165 
L 378.805215 295.121232 
L 378.937754 294.311204 
L 379.070293 295.341826 
L 379.136563 294.100534 
L 379.269102 295.271835 
L 379.53418 294.825119 
L 379.60045 295.095493 
L 379.666719 295.07049 
L 379.799258 294.706774 
L 379.865528 294.885152 
L 379.931798 294.27497 
L 380.064337 295.247159 
L 380.196876 294.760141 
L 380.263145 295.045451 
L 380.329415 294.696713 
L 380.395684 295.020908 
L 380.461954 294.737328 
L 380.528224 294.770883 
L 380.660763 294.523985 
L 380.727032 295.36992 
L 380.859571 294.565944 
L 380.925841 295.288338 
L 380.99211 295.210773 
L 381.12465 295.315466 
L 381.190919 294.979319 
L 381.257189 295.327766 
L 381.323458 295.0852 
L 381.522267 295.432309 
L 381.721076 294.996007 
L 381.853615 295.329392 
L 382.118693 295.259489 
L 382.251232 295.404592 
L 382.847658 295.212607 
L 382.913928 295.374289 
L 382.980197 295.338942 
L 383.642893 295.45536 
L 383.709162 295.371536 
L 383.841701 295.436226 
L 383.97424 295.393986 
L 384.239319 295.439014 
L 384.305588 295.270605 
L 384.371858 295.297626 
L 384.504397 295.368157 
L 384.570666 295.427991 
L 384.636936 295.261193 
L 384.769475 295.437536 
L 385.167092 295.284232 
L 385.299631 295.296642 
L 385.49844 295.384502 
L 385.56471 295.280463 
L 385.630979 295.329507 
L 386.227405 295.309994 
L 386.293675 295.200285 
L 386.492483 295.40384 
L 386.625023 295.38958 
L 386.757562 295.437585 
L 387.02264 295.25717 
L 387.221449 295.455643 
L 387.287718 295.29875 
L 387.353988 295.341269 
L 387.486527 295.43867 
L 387.552796 295.366195 
L 387.619066 295.472933 
L 387.685335 295.381532 
L 387.950414 295.398303 
L 388.149222 295.402757 
L 388.348031 295.393719 
L 388.48057 295.273352 
L 388.54684 295.450001 
L 388.613109 295.414283 
L 388.878187 295.383294 
L 389.010726 295.354496 
L 389.673422 295.280098 
L 389.805961 295.206467 
L 389.9385 295.389984 
L 390.00477 295.275687 
L 390.071039 295.336941 
L 390.203578 295.400477 
L 390.269848 295.309406 
L 390.336118 295.409366 
L 390.402387 295.236904 
L 390.468657 295.34875 
L 390.534926 295.280474 
L 390.601196 295.420653 
L 390.800004 295.223513 
L 390.932544 294.976409 
L 390.998813 295.257133 
L 391.065083 295.089231 
L 391.131352 295.041375 
L 391.197622 295.364095 
L 391.330161 294.692117 
L 391.39643 295.415468 
L 391.4627 294.97977 
L 391.595239 294.212195 
L 391.727778 295.007555 
L 391.860317 294.654391 
L 391.926587 295.202053 
L 391.992856 294.512343 
L 392.059126 294.926173 
L 392.125396 295.387821 
L 392.191665 294.871525 
L 392.257935 295.171749 
L 392.324204 295.177255 
L 392.456743 294.893652 
L 392.523013 295.050922 
L 392.589282 295.195099 
L 392.655552 294.394972 
L 392.721822 295.349121 
L 392.788091 294.735251 
L 392.854361 295.305371 
L 392.92063 295.200073 
L 393.119439 294.914785 
L 393.251978 295.1368 
L 393.384517 294.865027 
L 393.517056 295.313141 
L 393.583326 295.045151 
L 393.649595 295.169432 
L 393.715865 295.119839 
L 393.914673 295.329625 
L 394.047213 294.687706 
L 394.179752 294.762414 
L 394.312291 295.124148 
L 394.44483 294.644909 
L 394.643639 295.107687 
L 394.709908 294.951589 
L 394.974986 295.35917 
L 395.041256 294.894442 
L 395.107525 295.179021 
L 395.173795 295.036056 
L 395.240065 295.356714 
L 395.306334 295.25277 
L 395.372604 295.445729 
L 395.438873 295.362489 
L 395.505143 295.276032 
L 395.571412 295.408845 
L 395.637682 295.366955 
L 395.770221 295.217805 
L 395.836491 295.454748 
L 395.90276 295.410433 
L 395.96903 295.425721 
L 396.035299 295.210353 
L 396.101569 295.299549 
L 396.234108 295.362871 
L 396.366647 295.172813 
L 396.432917 295.327707 
L 396.499186 295.24558 
L 396.631725 295.143055 
L 396.697995 295.121015 
L 396.830534 295.344005 
L 396.896803 295.096804 
L 396.963073 295.241223 
L 397.029343 295.10334 
L 397.095612 295.452014 
L 397.161882 295.332902 
L 397.36069 295.159475 
L 397.493229 295.35082 
L 397.758308 295.267925 
L 397.824577 295.471077 
L 397.890847 295.325234 
L 398.089655 295.435701 
L 398.354734 295.438991 
L 398.487273 295.382281 
L 398.487273 295.382281 
" clip-path="url(#p29f59f74c0)" style="fill: none; stroke: #1f77b4; stroke-width: 1.5; stroke-linecap: square"/>
   </g>
   <g id="patch_3">
    <path d="M 57.6 307.584 
L 57.6 41.472 
" style="fill: none; stroke: #000000; stroke-width: 0.8; stroke-linejoin: miter; stroke-linecap: square"/>
   </g>
   <g id="patch_4">
    <path d="M 414.72 307.584 
L 414.72 41.472 
" style="fill: none; stroke: #000000; stroke-width: 0.8; stroke-linejoin: miter; stroke-linecap: square"/>
   </g>
   <g id="patch_5">
    <path d="M 57.6 307.584 
L 414.72 307.584 
" style="fill: none; stroke: #000000; stroke-width: 0.8; stroke-linejoin: miter; stroke-linecap: square"/>
   </g>
   <g id="patch_6">
    <path d="M 57.6 41.472 
L 414.72 41.472 
" style="fill: none; stroke: #000000; stroke-width: 0.8; stroke-linejoin: miter; stroke-linecap: square"/>
   </g>
   <g id="text_17">
    <text style="font: 12px 'IPAexGothic'; text-anchor: middle" x="236.16" y="35.472" transform="rotate(-0 236.16 35.472)">"049_A3.wav"の振幅スペクトル</text>
   </g>
  </g>
 </g>
 <defs>
  <clipPath id="p29f59f74c0">
   <rect x="57.6" y="41.472" width="357.12" height="266.112"/>
  </clipPath>
 </defs>
</svg>
