<?xml version="1.0" encoding="utf-8" standalone="no"?>
<!DOCTYPE svg PUBLIC "-//W3C//DTD SVG 1.1//EN"
  "http://www.w3.org/Graphics/SVG/1.1/DTD/svg11.dtd">
<svg xmlns:xlink="http://www.w3.org/1999/xlink" width="460.8pt" height="345.6pt" viewBox="0 0 460.8 345.6" xmlns="http://www.w3.org/2000/svg" version="1.1">
 <metadata>
  <rdf:RDF xmlns:dc="http://purl.org/dc/elements/1.1/" xmlns:cc="http://creativecommons.org/ns#" xmlns:rdf="http://www.w3.org/1999/02/22-rdf-syntax-ns#">
   <cc:Work>
    <dc:type rdf:resource="http://purl.org/dc/dcmitype/StillImage"/>
    <dc:date>2022-11-28T12:41:57.692106</dc:date>
    <dc:format>image/svg+xml</dc:format>
    <dc:creator>
     <cc:Agent>
      <dc:title>Matplotlib v3.6.2, https://matplotlib.org/</dc:title>
     </cc:Agent>
    </dc:creator>
   </cc:Work>
  </rdf:RDF>
 </metadata>
 <defs>
  <style type="text/css">*{stroke-linejoin: round; stroke-linecap: butt}</style>
 </defs>
 <g id="figure_1">
  <g id="patch_1">
   <path d="M 0 345.6 
L 460.8 345.6 
L 460.8 0 
L 0 0 
z
" style="fill: #ffffff"/>
  </g>
  <g id="axes_1">
   <g id="patch_2">
    <path d="M 57.6 307.584 
L 414.72 307.584 
L 414.72 41.472 
L 57.6 41.472 
z
" style="fill: #ffffff"/>
   </g>
   <g id="matplotlib.axis_1">
    <g id="xtick_1">
     <g id="line2d_1">
      <defs>
       <path id="m61ee78eb33" d="M 0 0 
L 0 3.5 
" style="stroke: #000000; stroke-width: 0.8"/>
      </defs>
      <g>
       <use xlink:href="#m61ee78eb33" x="73.832727" y="307.584" style="stroke: #000000; stroke-width: 0.8"/>
      </g>
     </g>
     <g id="text_1">
      <text style="font: 10px 'IPAexGothic'; text-anchor: middle" x="73.832727" y="322.074625" transform="rotate(-0 73.832727 322.074625)">0</text>
     </g>
    </g>
    <g id="xtick_2">
     <g id="line2d_2">
      <g>
       <use xlink:href="#m61ee78eb33" x="140.102281" y="307.584" style="stroke: #000000; stroke-width: 0.8"/>
      </g>
     </g>
     <g id="text_2">
      <text style="font: 10px 'IPAexGothic'; text-anchor: middle" x="140.102281" y="322.074625" transform="rotate(-0 140.102281 322.074625)">1000</text>
     </g>
    </g>
    <g id="xtick_3">
     <g id="line2d_3">
      <g>
       <use xlink:href="#m61ee78eb33" x="206.371835" y="307.584" style="stroke: #000000; stroke-width: 0.8"/>
      </g>
     </g>
     <g id="text_3">
      <text style="font: 10px 'IPAexGothic'; text-anchor: middle" x="206.371835" y="322.074625" transform="rotate(-0 206.371835 322.074625)">2000</text>
     </g>
    </g>
    <g id="xtick_4">
     <g id="line2d_4">
      <g>
       <use xlink:href="#m61ee78eb33" x="272.64139" y="307.584" style="stroke: #000000; stroke-width: 0.8"/>
      </g>
     </g>
     <g id="text_4">
      <text style="font: 10px 'IPAexGothic'; text-anchor: middle" x="272.64139" y="322.074625" transform="rotate(-0 272.64139 322.074625)">3000</text>
     </g>
    </g>
    <g id="xtick_5">
     <g id="line2d_5">
      <g>
       <use xlink:href="#m61ee78eb33" x="338.910944" y="307.584" style="stroke: #000000; stroke-width: 0.8"/>
      </g>
     </g>
     <g id="text_5">
      <text style="font: 10px 'IPAexGothic'; text-anchor: middle" x="338.910944" y="322.074625" transform="rotate(-0 338.910944 322.074625)">4000</text>
     </g>
    </g>
    <g id="xtick_6">
     <g id="line2d_6">
      <g>
       <use xlink:href="#m61ee78eb33" x="405.180498" y="307.584" style="stroke: #000000; stroke-width: 0.8"/>
      </g>
     </g>
     <g id="text_6">
      <text style="font: 10px 'IPAexGothic'; text-anchor: middle" x="405.180498" y="322.074625" transform="rotate(-0 405.180498 322.074625)">5000</text>
     </g>
    </g>
    <g id="text_7">
     <text style="font: 10px 'IPAexGothic'; text-anchor: middle" x="236.16" y="335.924625" transform="rotate(-0 236.16 335.924625)">周波数[Hz]</text>
    </g>
   </g>
   <g id="matplotlib.axis_2">
    <g id="ytick_1">
     <g id="line2d_7">
      <defs>
       <path id="m7d540ba926" d="M 0 0 
L -3.5 0 
" style="stroke: #000000; stroke-width: 0.8"/>
      </defs>
      <g>
       <use xlink:href="#m7d540ba926" x="57.6" y="295.491142" style="stroke: #000000; stroke-width: 0.8"/>
      </g>
     </g>
     <g id="text_8">
      <text style="font: 10px 'IPAexGothic'; text-anchor: end" x="50.6" y="299.236454" transform="rotate(-0 50.6 299.236454)">0.0</text>
     </g>
    </g>
    <g id="ytick_2">
     <g id="line2d_8">
      <g>
       <use xlink:href="#m7d540ba926" x="57.6" y="256.936918" style="stroke: #000000; stroke-width: 0.8"/>
      </g>
     </g>
     <g id="text_9">
      <text style="font: 10px 'IPAexGothic'; text-anchor: end" x="50.6" y="260.68223" transform="rotate(-0 50.6 260.68223)">0.5</text>
     </g>
    </g>
    <g id="ytick_3">
     <g id="line2d_9">
      <g>
       <use xlink:href="#m7d540ba926" x="57.6" y="218.382694" style="stroke: #000000; stroke-width: 0.8"/>
      </g>
     </g>
     <g id="text_10">
      <text style="font: 10px 'IPAexGothic'; text-anchor: end" x="50.6" y="222.128006" transform="rotate(-0 50.6 222.128006)">1.0</text>
     </g>
    </g>
    <g id="ytick_4">
     <g id="line2d_10">
      <g>
       <use xlink:href="#m7d540ba926" x="57.6" y="179.82847" style="stroke: #000000; stroke-width: 0.8"/>
      </g>
     </g>
     <g id="text_11">
      <text style="font: 10px 'IPAexGothic'; text-anchor: end" x="50.6" y="183.573782" transform="rotate(-0 50.6 183.573782)">1.5</text>
     </g>
    </g>
    <g id="ytick_5">
     <g id="line2d_11">
      <g>
       <use xlink:href="#m7d540ba926" x="57.6" y="141.274246" style="stroke: #000000; stroke-width: 0.8"/>
      </g>
     </g>
     <g id="text_12">
      <text style="font: 10px 'IPAexGothic'; text-anchor: end" x="50.6" y="145.019558" transform="rotate(-0 50.6 145.019558)">2.0</text>
     </g>
    </g>
    <g id="ytick_6">
     <g id="line2d_12">
      <g>
       <use xlink:href="#m7d540ba926" x="57.6" y="102.720022" style="stroke: #000000; stroke-width: 0.8"/>
      </g>
     </g>
     <g id="text_13">
      <text style="font: 10px 'IPAexGothic'; text-anchor: end" x="50.6" y="106.465334" transform="rotate(-0 50.6 106.465334)">2.5</text>
     </g>
    </g>
    <g id="ytick_7">
     <g id="line2d_13">
      <g>
       <use xlink:href="#m7d540ba926" x="57.6" y="64.165797" style="stroke: #000000; stroke-width: 0.8"/>
      </g>
     </g>
     <g id="text_14">
      <text style="font: 10px 'IPAexGothic'; text-anchor: end" x="50.6" y="67.91111" transform="rotate(-0 50.6 67.91111)">3.0</text>
     </g>
    </g>
    <g id="text_15">
     <text style="font: 10px 'IPAexGothic'; text-anchor: middle" x="29.460938" y="174.528" transform="rotate(-90 29.460938 174.528)">振幅</text>
    </g>
    <g id="text_16">
     <text style="font: 10px 'IPAexGothic'; text-anchor: start" x="57.6" y="38.472" transform="rotate(-0 57.6 38.472)">1e7</text>
    </g>
   </g>
   <g id="line2d_14">
    <path d="M 73.832727 290.604402 
L 73.965266 295.097707 
L 74.031536 295.441139 
L 74.097805 295.306544 
L 74.296614 295.281309 
L 74.826771 295.344759 
L 75.290657 295.366665 
L 75.622005 295.305117 
L 76.019623 295.293175 
L 76.284701 295.235335 
L 76.35097 295.044506 
L 76.41724 295.177906 
L 76.881127 295.229718 
L 77.212475 295.145286 
L 78.140248 294.794681 
L 78.272787 294.607485 
L 78.339057 294.944328 
L 78.405327 294.872142 
L 78.537866 294.679921 
L 78.604135 294.32025 
L 78.670405 294.502296 
L 78.869213 295.232239 
L 78.935483 295.152766 
L 79.266831 293.326765 
L 79.3331 293.519708 
L 79.39937 293.98177 
L 79.465639 293.928978 
L 79.531909 293.939687 
L 79.598178 294.12179 
L 79.995796 289.934792 
L 80.062065 290.43084 
L 80.128335 289.172813 
L 80.194604 289.501484 
L 80.327144 288.234915 
L 80.459683 285.573921 
L 80.592222 285.195454 
L 80.989839 267.870777 
L 81.056109 243.380998 
L 81.122378 53.568 
L 81.254917 263.750591 
L 81.321187 260.994253 
L 81.387456 276.520764 
L 81.453726 274.232571 
L 81.785074 289.895726 
L 82.050152 292.959223 
L 82.116422 292.881654 
L 82.3815 294.204468 
L 82.447769 293.831784 
L 82.580308 294.961343 
L 82.646578 294.71234 
L 82.712848 294.225352 
L 82.779117 294.532457 
L 82.845387 294.515559 
L 82.911656 293.711067 
L 82.977926 294.035719 
L 83.044195 294.040445 
L 83.243004 294.641773 
L 83.309274 294.42728 
L 83.375543 294.540453 
L 83.441813 294.383082 
L 83.508082 294.569856 
L 83.574352 295.135712 
L 83.640621 294.77485 
L 83.905699 293.452053 
L 83.971969 293.604173 
L 84.104508 293.304503 
L 84.170778 293.871039 
L 84.237047 292.822926 
L 84.303317 293.128586 
L 84.369586 293.902576 
L 84.435856 293.573006 
L 84.502125 294.03859 
L 84.568395 294.01618 
L 84.634665 293.433658 
L 84.700934 293.525935 
L 84.833473 293.996916 
L 84.899743 294.475915 
L 84.966012 293.943211 
L 85.032282 294.155432 
L 85.098551 294.307403 
L 85.164821 294.259577 
L 85.231091 293.772279 
L 85.29736 294.215117 
L 85.36363 294.170098 
L 85.429899 293.558821 
L 85.496169 294.358966 
L 85.562438 293.243251 
L 85.628708 295.135594 
L 85.694977 294.147377 
L 85.761247 294.030451 
L 85.827517 294.128464 
L 85.893786 294.309237 
L 85.960056 293.522928 
L 86.026325 294.237864 
L 86.092595 293.834165 
L 86.158864 293.780679 
L 86.225134 293.98436 
L 86.291403 293.854996 
L 86.423943 292.941994 
L 86.490212 294.146844 
L 86.556482 293.653614 
L 86.622751 292.968937 
L 86.75529 293.78814 
L 86.82156 293.571824 
L 86.887829 293.803625 
L 86.954099 293.757943 
L 87.152908 291.982047 
L 87.285447 293.68475 
L 87.417986 291.805031 
L 87.484255 292.291718 
L 87.550525 292.602769 
L 87.616795 292.166692 
L 87.815603 286.323274 
L 87.881873 287.170345 
L 87.948142 285.297654 
L 88.080681 287.736686 
L 88.213221 285.435974 
L 88.27949 276.09415 
L 88.412029 212.725168 
L 88.544568 274.080769 
L 88.610838 266.576068 
L 88.809646 288.374638 
L 88.875916 289.03199 
L 88.942186 288.535327 
L 89.008455 292.127364 
L 89.074725 291.267877 
L 89.140994 291.493393 
L 89.339803 293.797103 
L 89.538612 294.399972 
L 89.80369 295.119355 
L 89.869959 294.840516 
L 90.002498 295.113504 
L 90.068768 295.05348 
L 90.267577 294.375883 
L 90.400116 294.747366 
L 90.466385 294.651353 
L 90.598924 294.892782 
L 90.797733 294.611826 
L 90.996542 295.048244 
L 91.129081 294.95307 
L 91.19535 295.221885 
L 91.26162 295.128011 
L 91.32789 294.952788 
L 91.394159 295.334621 
L 91.460429 295.048039 
L 91.526698 295.065713 
L 91.725507 295.320176 
L 91.990585 295.110822 
L 92.056855 295.155231 
L 92.123124 294.979639 
L 92.189394 295.042593 
L 92.255663 295.175653 
L 92.321933 295.076055 
L 92.388202 295.038038 
L 92.587011 295.183756 
L 92.984628 294.861537 
L 93.183437 295.023499 
L 93.382246 294.838454 
L 93.448515 295.170145 
L 93.514785 295.104052 
L 93.779863 295.106916 
L 93.846133 295.257844 
L 93.912402 295.206521 
L 93.978672 295.276421 
L 94.044941 295.168073 
L 94.111211 295.240197 
L 94.24375 295.232313 
L 94.442559 295.045808 
L 94.508828 295.189257 
L 94.575098 295.062816 
L 94.707637 295.470119 
L 94.773906 295.410889 
L 94.840176 294.989791 
L 94.906445 295.318149 
L 95.038985 294.737047 
L 95.171524 295.287755 
L 95.237793 294.679174 
L 95.304063 295.192046 
L 95.370332 295.010197 
L 95.436602 295.211181 
L 95.569141 294.611081 
L 95.70168 291.69772 
L 95.900489 294.330012 
L 95.966758 293.800142 
L 96.033028 293.885456 
L 96.165567 294.858965 
L 96.231837 294.781011 
L 96.364376 295.270135 
L 96.430645 295.160567 
L 96.629454 295.366124 
L 96.894532 295.202861 
L 96.960802 295.314233 
L 97.027071 295.257316 
L 97.093341 295.135861 
L 97.15961 295.335412 
L 97.22588 295.209051 
L 97.358419 295.234016 
L 97.557228 295.433294 
L 97.689767 295.141298 
L 97.822306 295.279557 
L 98.551271 295.305723 
L 98.75008 295.348377 
L 99.479045 295.346649 
L 99.545314 295.426423 
L 99.611584 295.357331 
L 99.810392 295.296733 
L 100.20801 295.32208 
L 100.340549 295.256226 
L 101.400862 295.335131 
L 101.59967 295.20526 
L 101.73221 295.325126 
L 101.997288 295.343615 
L 102.196096 295.15333 
L 102.262366 295.303307 
L 102.328636 295.093233 
L 102.394905 295.172815 
L 102.593714 295.009424 
L 102.726253 294.945597 
L 102.792522 295.398649 
L 102.858792 294.717519 
L 102.925062 292.394303 
L 102.991331 292.901444 
L 103.19014 294.778531 
L 103.256409 294.601648 
L 103.388948 295.274265 
L 103.455218 294.810155 
L 103.521488 295.088977 
L 103.587757 295.313406 
L 103.654027 294.829951 
L 103.720296 295.378764 
L 103.786566 295.363452 
L 103.852835 294.885542 
L 103.919105 295.004247 
L 103.985374 295.087512 
L 104.051644 295.40299 
L 104.117913 295.293891 
L 104.184183 295.131272 
L 104.316722 295.377398 
L 104.449261 295.316998 
L 104.64807 295.33934 
L 105.178226 295.393466 
L 105.443305 295.354041 
L 105.708383 295.353375 
L 105.907191 295.395905 
L 106.304809 295.384762 
L 106.371078 295.265784 
L 106.437348 295.35145 
L 106.702426 295.346494 
L 106.967504 295.301375 
L 107.033774 295.299751 
L 107.166313 295.42319 
L 107.6302 295.346553 
L 107.696469 295.42836 
L 107.762739 295.353091 
L 107.961548 295.374667 
L 108.160356 295.202348 
L 108.292895 295.326603 
L 108.557974 294.674672 
L 108.756782 295.266875 
L 108.823052 294.979839 
L 108.889321 294.95938 
L 108.955591 294.526288 
L 109.02186 295.18571 
L 109.1544 293.809027 
L 109.220669 295.344948 
L 109.286939 294.725997 
L 109.353208 295.335312 
L 109.419478 295.021741 
L 109.485747 294.356497 
L 109.552017 295.236858 
L 109.618286 294.905302 
L 109.684556 294.710435 
L 109.949634 295.442111 
L 110.082173 294.896936 
L 110.148443 295.304296 
L 110.214712 293.58459 
L 110.280982 294.731144 
L 110.347252 294.607888 
L 110.479791 294.876352 
L 110.54606 294.708414 
L 110.61233 294.809631 
L 110.877408 295.272943 
L 111.076217 295.388388 
L 111.208756 295.273434 
L 111.341295 295.286471 
L 111.937721 295.365436 
L 112.13653 295.246238 
L 112.335338 295.422992 
L 112.666686 295.361504 
L 112.732956 295.452937 
L 112.865495 295.28341 
L 112.931764 295.411312 
L 112.998034 295.244256 
L 113.130573 295.442477 
L 113.196842 295.086401 
L 113.263112 295.294171 
L 113.329382 295.231223 
L 113.395651 295.34196 
L 113.461921 295.213656 
L 113.59446 295.449611 
L 113.726999 295.346351 
L 113.793268 295.449058 
L 113.859538 295.35288 
L 113.992077 295.383294 
L 114.058347 295.464753 
L 114.124616 295.27673 
L 114.190886 295.324338 
L 114.323425 295.357382 
L 114.389694 295.198388 
L 114.455964 295.349039 
L 114.522233 295.291217 
L 114.654773 295.424014 
L 114.721042 295.266338 
L 115.118659 295.306488 
L 115.251199 295.125407 
L 115.317468 295.381623 
L 115.383738 295.255841 
L 115.582546 295.334053 
L 115.715085 294.870264 
L 115.781355 295.226826 
L 115.847625 295.096184 
L 115.980164 294.948978 
L 116.046433 295.361257 
L 116.112703 295.257367 
L 116.178972 294.928361 
L 116.311511 295.4004 
L 116.377781 295.407192 
L 116.444051 295.177816 
L 116.57659 295.362339 
L 116.775398 294.808461 
L 116.974207 295.304453 
L 117.040477 295.275385 
L 117.173016 294.862717 
L 117.239285 294.968909 
L 117.504363 291.563478 
L 117.570633 294.497065 
L 117.636903 292.670429 
L 117.769442 295.133741 
L 117.835711 294.672144 
L 117.901981 294.737823 
L 117.96825 295.244733 
L 118.03452 294.93206 
L 118.100789 294.624715 
L 118.167059 294.868681 
L 118.233329 293.065673 
L 118.365868 294.906687 
L 118.432137 295.15402 
L 118.564676 294.669298 
L 118.630946 295.226375 
L 118.697215 294.6161 
L 118.763485 294.987839 
L 118.829754 295.155954 
L 118.962294 294.863152 
L 119.028563 295.06344 
L 119.094833 294.198682 
L 119.161102 295.046257 
L 119.227372 294.996176 
L 119.359911 295.247244 
L 119.42618 294.882261 
L 119.49245 295.217132 
L 119.55872 294.742969 
L 119.691259 295.435893 
L 119.890067 294.708785 
L 119.956337 295.198964 
L 120.022606 294.930375 
L 120.088876 295.293271 
L 120.155146 295.146289 
L 120.221415 295.345717 
L 120.353954 295.043119 
L 120.420224 295.425082 
L 120.486493 295.379464 
L 120.619032 294.870739 
L 120.685302 295.266631 
L 120.751572 294.736188 
L 120.817841 295.240656 
L 120.884111 294.911074 
L 120.95038 294.857967 
L 121.082919 295.114375 
L 121.215458 294.870402 
L 121.281728 295.234828 
L 121.347998 294.910031 
L 121.414267 295.199454 
L 121.480537 294.732678 
L 121.546806 295.062504 
L 121.613076 295.013876 
L 121.745615 295.034331 
L 121.811884 294.918711 
L 121.944424 295.209107 
L 122.010693 294.703888 
L 122.076963 294.846926 
L 122.40831 295.334429 
L 122.47458 295.391728 
L 122.54085 294.810052 
L 122.673389 295.296642 
L 122.739658 295.344577 
L 122.805928 295.073645 
L 122.872197 295.123768 
L 122.938467 295.342476 
L 123.004736 295.217704 
L 123.203545 295.372293 
L 123.402354 294.761003 
L 123.468623 295.058119 
L 123.534893 294.767015 
L 123.667432 295.172065 
L 123.733701 294.791644 
L 123.799971 295.009787 
L 123.93251 294.685137 
L 123.99878 295.054967 
L 124.065049 294.999643 
L 124.131319 295.136322 
L 124.197588 295.054868 
L 124.263858 294.830698 
L 124.330127 293.976738 
L 124.396397 294.170529 
L 124.462667 294.555417 
L 124.595206 293.547994 
L 124.661475 293.960885 
L 124.794014 291.523545 
L 124.926553 295.326924 
L 125.125362 294.821819 
L 125.191632 295.123697 
L 125.324171 294.212999 
L 125.39044 294.29523 
L 125.45671 294.512607 
L 125.522979 293.729975 
L 125.589249 294.135248 
L 125.721788 295.269342 
L 125.788058 295.001595 
L 125.854327 295.224304 
L 125.920597 295.03268 
L 126.053136 295.224533 
L 126.119405 294.904303 
L 126.185675 295.070619 
L 126.384484 295.143747 
L 126.450753 294.837844 
L 126.517023 294.98366 
L 126.583292 295.034361 
L 126.649562 295.324347 
L 126.715831 295.237952 
L 126.848371 295.0712 
L 126.98091 295.43853 
L 127.047179 295.326134 
L 127.179718 295.216043 
L 127.245988 295.415524 
L 127.312257 295.290324 
L 127.444797 295.02946 
L 127.577336 295.42936 
L 127.643605 295.40025 
L 127.709875 295.185308 
L 127.776144 295.245768 
L 128.107492 295.310976 
L 128.173762 295.234729 
L 128.240031 295.379962 
L 128.306301 295.275502 
L 128.43884 295.174255 
L 128.571379 295.338976 
L 128.637648 295.195611 
L 128.836457 295.061955 
L 128.902727 295.333382 
L 129.035266 294.958787 
L 129.234074 295.226555 
L 129.432883 295.215442 
L 129.499153 295.339736 
L 129.565422 295.178052 
L 129.631692 295.301493 
L 129.697961 295.150341 
L 129.8305 295.259235 
L 130.029309 295.200721 
L 130.095579 294.818133 
L 130.228118 295.211372 
L 130.294387 295.128717 
L 130.360657 295.343901 
L 130.426926 295.286014 
L 130.559466 295.141848 
L 130.625735 295.100634 
L 130.824544 295.35544 
L 130.890813 295.463048 
L 131.023352 295.327599 
L 131.155892 295.374626 
L 131.42097 294.93262 
L 131.487239 295.310314 
L 131.553509 295.174584 
L 131.619778 295.218943 
L 131.686048 295.104298 
L 131.752318 295.40528 
L 131.818587 295.214834 
L 131.884857 295.427399 
L 132.083665 294.071775 
L 132.149935 294.35191 
L 132.216204 293.696564 
L 132.282474 293.986288 
L 132.348744 294.205471 
L 132.415013 294.031654 
L 132.481283 294.254213 
L 132.613822 292.936021 
L 132.680091 293.871056 
L 132.746361 293.41439 
L 132.81263 293.485707 
L 132.94517 294.148064 
L 133.077709 293.683265 
L 133.210248 294.619007 
L 133.276517 294.182014 
L 133.342787 294.208065 
L 133.541596 294.838677 
L 133.674135 294.852041 
L 133.872943 295.427966 
L 134.138021 294.760502 
L 134.270561 294.848921 
L 134.33683 295.36958 
L 134.4031 295.213633 
L 134.535639 294.889052 
L 134.601908 295.12592 
L 134.800717 295.417411 
L 134.999526 295.074311 
L 135.132065 295.280043 
L 135.330873 295.206475 
L 135.397143 295.464794 
L 135.463413 295.072549 
L 135.529682 295.430179 
L 135.595952 295.018422 
L 135.662221 295.363728 
L 135.728491 295.135263 
L 135.79476 294.964235 
L 135.86103 295.112859 
L 135.927299 294.854566 
L 135.993569 295.361496 
L 136.059839 294.969366 
L 136.126108 295.381247 
L 136.192378 295.219397 
L 136.258647 295.454117 
L 136.391186 294.700217 
L 136.457456 295.35248 
L 136.523725 294.331993 
L 136.589995 294.914526 
L 136.656265 294.110808 
L 136.722534 294.175354 
L 136.788804 294.409174 
L 136.855073 293.960817 
L 136.987612 294.391791 
L 137.053882 294.366746 
L 137.120151 294.731875 
L 137.186421 294.599622 
L 137.252691 294.624968 
L 137.451499 294.991024 
L 137.517769 294.706376 
L 137.584038 295.00456 
L 137.650308 294.930223 
L 137.782847 293.857219 
L 137.849117 294.068519 
L 137.981656 295.156017 
L 138.047925 294.606091 
L 138.114195 294.667626 
L 138.180464 294.73176 
L 138.246734 295.190431 
L 138.313003 295.144261 
L 138.379273 294.795343 
L 138.445543 294.899453 
L 138.644351 295.213386 
L 138.975699 294.798568 
L 139.041968 295.093032 
L 139.108238 295.04841 
L 139.307047 294.956012 
L 139.505855 295.172435 
L 139.572125 295.08961 
L 139.638394 294.725196 
L 139.704664 294.969548 
L 139.770934 295.122 
L 139.837203 295.056084 
L 139.903473 294.784782 
L 139.969742 294.834937 
L 140.036012 294.921035 
L 140.102281 294.612824 
L 140.168551 294.799653 
L 140.30109 294.606775 
L 140.433629 295.112635 
L 140.499899 295.072469 
L 140.566168 294.880844 
L 140.632438 294.927603 
L 140.698707 294.904541 
L 140.831246 295.309937 
L 140.897516 295.261045 
L 141.295133 295.313875 
L 141.626481 295.334808 
L 141.82529 295.183203 
L 141.891559 295.309038 
L 141.957829 295.240555 
L 142.156638 295.444777 
L 142.686794 294.951279 
L 143.018142 295.135611 
L 143.084411 294.827134 
L 143.150681 295.219487 
L 143.21695 294.720357 
L 143.28322 294.867489 
L 143.34949 294.976505 
L 143.415759 294.689201 
L 143.482029 295.067376 
L 143.548298 294.8496 
L 143.614568 294.875457 
L 143.680837 295.186688 
L 143.747107 294.932609 
L 143.813376 295.3691 
L 143.879646 295.116274 
L 144.012185 294.948271 
L 144.078455 295.104158 
L 144.343533 294.594505 
L 144.476072 294.734498 
L 144.608611 294.021593 
L 144.674881 294.651113 
L 144.80742 294.017002 
L 144.873689 294.087843 
L 144.939959 294.758808 
L 145.006228 294.635838 
L 145.072498 294.641533 
L 145.205037 295.275967 
L 145.271307 295.029018 
L 145.337576 295.184936 
L 145.403846 295.297739 
L 145.602654 294.579593 
L 145.735193 295.412885 
L 145.934002 294.676991 
L 146.000272 295.16518 
L 146.066541 295.14819 
L 146.19908 294.524481 
L 146.331619 294.929698 
L 146.397889 294.823778 
L 146.464159 295.115617 
L 146.530428 295.096595 
L 146.662967 295.10978 
L 146.861776 294.899531 
L 146.928045 294.840871 
L 146.994315 295.133162 
L 147.060585 294.865917 
L 147.126854 295.030632 
L 147.193124 295.195939 
L 147.391932 294.828991 
L 147.590741 294.903731 
L 147.657011 294.957092 
L 147.72328 294.767805 
L 147.922089 295.062053 
L 148.187167 295.034485 
L 148.253437 294.716773 
L 148.385976 295.322887 
L 148.518515 295.24265 
L 148.651054 295.055098 
L 148.783593 295.398094 
L 148.849862 295.272645 
L 148.916132 295.345248 
L 148.982402 295.341722 
L 149.048671 295.220242 
L 149.114941 295.383961 
L 149.18121 295.288641 
L 149.380019 295.212181 
L 149.446288 295.384859 
L 149.512558 295.167732 
L 149.578828 295.217704 
L 149.645097 295.414057 
L 149.777636 295.195123 
L 149.910175 295.393595 
L 149.976445 295.247507 
L 150.042714 295.321296 
L 150.175254 295.320508 
L 150.241523 295.275287 
L 150.374062 295.320601 
L 150.440332 295.12534 
L 150.506601 295.232981 
L 150.572871 295.344045 
L 150.70541 295.13282 
L 150.837949 295.31744 
L 150.904219 295.257287 
L 151.036758 295.43887 
L 151.103027 295.347477 
L 151.235566 295.168753 
L 151.301836 295.275512 
L 151.434375 295.343529 
L 151.699453 295.349132 
L 151.831992 295.399246 
L 152.295879 295.184217 
L 152.362149 295.096353 
L 152.494688 295.31199 
L 152.627227 295.209057 
L 152.826036 295.326651 
L 152.958575 295.186951 
L 153.024844 295.343892 
L 153.091114 295.272191 
L 153.488731 295.323346 
L 153.62127 295.4153 
L 153.753809 295.255687 
L 154.151427 295.432868 
L 154.416505 295.243895 
L 154.615314 295.342949 
L 154.814122 295.255079 
L 155.079201 295.283445 
L 155.14547 295.404544 
L 155.21174 295.308997 
L 155.344279 295.354795 
L 155.476818 295.434182 
L 155.808166 295.393329 
L 156.073244 295.441166 
L 157.464905 295.368877 
L 157.597444 295.335739 
L 157.995061 295.385265 
L 158.260139 295.362765 
L 158.392678 295.331587 
L 159.121643 295.471396 
L 159.254182 295.335532 
L 159.519261 295.412689 
L 159.718069 295.383287 
L 159.784339 295.444523 
L 159.916878 295.348382 
L 160.115687 295.446431 
L 161.573617 295.267545 
L 161.639886 295.397862 
L 161.706156 295.341596 
L 161.971234 295.382496 
L 162.103773 295.283589 
L 162.302582 295.348088 
L 162.435121 295.209078 
L 162.501391 295.348047 
L 162.63393 294.977609 
L 162.700199 295.068288 
L 162.965278 295.369149 
L 163.097817 295.273538 
L 163.230356 295.370966 
L 163.362895 295.326771 
L 163.495434 295.321164 
L 163.627973 295.419757 
L 163.826782 295.260403 
L 163.893051 295.23585 
L 163.959321 295.428231 
L 164.02559 295.393006 
L 164.09186 295.24651 
L 164.158129 295.336365 
L 164.423208 295.41648 
L 164.820825 295.341353 
L 164.887095 295.447657 
L 164.953364 295.34942 
L 165.152173 295.350164 
L 165.483521 295.430695 
L 166.941451 295.371281 
L 167.07399 295.283108 
L 167.339068 295.316636 
L 167.405338 295.23659 
L 167.537877 295.415194 
L 167.736685 295.201764 
L 168.134303 295.222652 
L 168.200572 295.3905 
L 168.266842 295.332801 
L 168.333111 295.298181 
L 168.399381 295.454335 
L 168.465651 295.309834 
L 168.53192 295.447862 
L 168.59819 295.263401 
L 168.664459 295.289252 
L 169.658502 295.336634 
L 169.857311 295.399317 
L 170.188659 295.029341 
L 170.254928 295.163382 
L 170.453737 295.333489 
L 170.718815 295.390909 
L 170.983894 295.423816 
L 171.182702 295.416897 
L 171.248972 295.43804 
L 171.44778 295.242517 
L 171.51405 295.371891 
L 171.58032 295.31913 
L 171.712859 295.270496 
L 172.508093 295.282168 
L 172.640632 295.108232 
L 172.839441 295.13422 
L 172.905711 295.218396 
L 172.97198 295.128964 
L 173.104519 295.067867 
L 173.237058 295.361197 
L 173.303328 295.331398 
L 173.502137 295.447226 
L 173.767215 295.272785 
L 173.833484 295.401177 
L 173.899754 295.33084 
L 174.032293 295.462794 
L 174.231102 295.336843 
L 174.363641 295.424134 
L 174.42991 295.248809 
L 174.49618 295.350516 
L 174.628719 295.309541 
L 174.694989 295.382202 
L 174.761258 295.28319 
L 174.827528 295.333749 
L 175.092606 295.471092 
L 175.225145 295.362103 
L 175.490223 295.277052 
L 175.556493 294.865334 
L 175.622762 295.380288 
L 175.689032 295.159864 
L 175.887841 295.217784 
L 175.95411 295.193627 
L 176.152919 295.433623 
L 176.417997 295.185034 
L 176.550536 295.251052 
L 176.683075 295.222369 
L 176.749345 295.321353 
L 176.815614 295.145753 
L 176.881884 295.196583 
L 177.014423 295.34375 
L 177.080693 295.124729 
L 177.146962 295.168625 
L 177.279501 295.24197 
L 177.345771 295.114393 
L 177.41204 295.180483 
L 177.809658 295.263692 
L 178.141005 295.193224 
L 178.273545 295.29071 
L 178.339814 295.155592 
L 178.406084 295.232583 
L 178.604892 295.265394 
L 179.135049 295.429743 
L 179.267588 295.371049 
L 179.598936 295.415972 
L 179.731475 295.248992 
L 179.797744 295.287902 
L 179.864014 295.152222 
L 179.930283 295.193162 
L 180.195362 295.275744 
L 180.327901 295.160363 
L 180.46044 295.311725 
L 180.725518 295.067092 
L 180.858057 295.218642 
L 181.056866 294.979727 
L 181.255674 295.218872 
L 181.388214 295.198324 
L 181.454483 295.130881 
L 181.653292 295.308284 
L 181.785831 295.288262 
L 182.117179 295.35317 
L 182.382257 295.231263 
L 182.514796 295.354989 
L 184.767961 295.350368 
L 185.099309 295.284107 
L 185.231848 295.208127 
L 186.225891 295.217689 
L 186.35843 295.313518 
L 186.557239 295.285881 
L 186.756047 295.302513 
L 186.888587 295.308881 
L 187.286204 295.348023 
L 187.418743 295.367089 
L 187.617552 295.41054 
L 188.015169 295.391594 
L 188.213978 295.448404 
L 189.40683 295.382784 
L 189.539369 295.33863 
L 189.738177 295.345222 
L 192.521499 295.346025 
L 193.051655 295.245504 
L 193.515542 295.299049 
L 193.714351 295.326169 
L 194.840933 295.303489 
L 195.172281 295.324074 
L 195.371089 295.277581 
L 195.834976 295.282461 
L 196.033785 295.278437 
L 196.298863 295.302149 
L 196.365133 295.206423 
L 196.431402 295.2609 
L 196.563941 295.307812 
L 196.82902 295.286811 
L 197.027828 295.296675 
L 197.160367 295.142168 
L 197.226637 295.238388 
L 197.425446 295.255781 
L 197.889333 295.108637 
L 198.088141 295.129275 
L 198.22068 295.131423 
L 198.618298 295.335023 
L 198.817106 294.991635 
L 198.949645 295.307966 
L 199.214724 295.224469 
L 199.612341 295.258949 
L 199.81115 295.331665 
L 199.943689 295.16059 
L 200.208767 295.232973 
L 200.540115 295.08732 
L 200.805193 295.315473 
L 201.20281 295.173537 
L 201.401619 295.312893 
L 201.467888 295.185029 
L 201.534158 295.224615 
L 201.732967 295.1983 
L 201.865506 295.217316 
L 201.931775 295.081195 
L 201.998045 295.189732 
L 202.528201 295.216607 
L 202.66074 295.233792 
L 202.79328 295.132805 
L 202.992088 295.249187 
L 203.257166 295.132042 
L 203.721053 295.140313 
L 203.986131 295.204814 
L 204.118671 294.785502 
L 204.18494 294.920144 
L 204.317479 295.148061 
L 204.450018 294.939944 
L 204.516288 295.05261 
L 204.582557 295.178524 
L 204.648827 295.140938 
L 204.980175 294.916792 
L 205.046444 295.0459 
L 205.112714 294.938304 
L 205.245253 294.8456 
L 205.377792 295.157811 
L 205.444062 295.126218 
L 206.570644 294.978409 
L 206.703183 295.051665 
L 206.835722 295.082901 
L 206.901992 295.162666 
L 207.034531 295.008626 
L 207.23334 295.191667 
L 207.365879 295.139041 
L 207.630957 295.224938 
L 207.697227 295.118138 
L 207.763496 295.199344 
L 208.094844 295.006031 
L 208.359922 295.227428 
L 208.426192 295.01735 
L 208.492461 295.040382 
L 208.625 295.077632 
L 208.757539 294.905317 
L 209.287696 295.072917 
L 209.420235 294.993932 
L 209.486504 294.788014 
L 209.552774 294.856065 
L 209.619044 294.862109 
L 209.685313 294.718504 
L 209.751583 294.929569 
L 209.817852 294.861136 
L 209.884122 294.977482 
L 209.950391 294.933925 
L 210.016661 294.894151 
L 210.08293 294.702443 
L 210.348009 295.055415 
L 210.679356 294.935506 
L 210.878165 295.129595 
L 211.010704 294.860141 
L 211.076974 295.026547 
L 211.143243 295.014283 
L 211.275782 294.640506 
L 211.408322 295.046461 
L 211.540861 294.820308 
L 211.60713 295.047518 
L 211.805939 294.674653 
L 211.938478 294.67422 
L 212.071017 294.826149 
L 212.137287 294.61077 
L 212.203556 294.807496 
L 212.269826 294.743891 
L 212.336095 294.629148 
L 212.601174 294.962508 
L 212.667443 294.881019 
L 212.866252 295.080308 
L 212.998791 295.1181 
L 213.330139 295.380254 
L 213.992834 295.312993 
L 214.125373 295.271024 
L 214.191643 295.330985 
L 214.257912 295.246449 
L 214.456721 295.237925 
L 214.721799 295.362947 
L 214.986877 295.338311 
L 215.053147 295.408551 
L 215.185686 295.269446 
L 215.384495 295.422404 
L 215.583303 295.33102 
L 215.715843 295.447132 
L 216.04719 295.324363 
L 216.11346 295.440843 
L 216.179729 295.358074 
L 216.643616 295.31308 
L 216.709886 295.294131 
L 216.776155 295.40417 
L 216.974964 295.134087 
L 217.041234 295.398781 
L 217.107503 295.263317 
L 217.372581 295.418725 
L 217.57139 295.173187 
L 217.63766 295.315551 
L 217.703929 295.249084 
L 218.035277 295.376362 
L 218.234086 295.209003 
L 218.300355 295.334695 
L 218.366625 295.213792 
L 218.432894 295.266119 
L 218.631703 295.386451 
L 218.830512 295.185757 
L 219.02932 295.263901 
L 219.09559 295.012953 
L 219.161859 295.322776 
L 219.360668 294.860143 
L 219.426938 295.305693 
L 219.493207 295.049133 
L 219.559477 295.22972 
L 219.625746 295.160154 
L 219.758285 294.976444 
L 219.957094 295.281026 
L 220.023364 295.308866 
L 220.222172 294.938157 
L 220.61979 295.279839 
L 220.818598 295.247955 
L 221.017407 295.360919 
L 221.149946 295.263068 
L 221.216216 295.28119 
L 221.282485 295.114499 
L 221.348755 295.36794 
L 221.415024 295.344963 
L 221.613833 295.081299 
L 221.746372 295.089682 
L 221.945181 294.983873 
L 222.01145 295.172762 
L 222.07772 295.09686 
L 222.342798 295.137873 
L 222.541607 295.435209 
L 222.607876 295.367124 
L 222.674146 295.438914 
L 222.939224 295.329193 
L 223.005494 295.48278 
L 223.204302 295.298606 
L 223.336841 295.367603 
L 223.403111 295.105289 
L 223.60192 295.445201 
L 223.866998 295.433115 
L 223.933267 295.370071 
L 223.999537 295.453742 
L 224.463424 295.354091 
L 224.595963 295.363098 
L 224.794771 295.364979 
L 224.927311 295.463894 
L 225.126119 295.29878 
L 225.523737 295.342035 
L 225.590006 295.305206 
L 225.656276 295.423973 
L 225.722545 295.203296 
L 225.855084 295.459745 
L 226.120163 295.216277 
L 226.252702 295.3118 
L 226.51778 295.093695 
L 226.584049 295.340789 
L 226.650319 294.504414 
L 226.716589 294.916716 
L 226.915397 295.339439 
L 227.114206 295.186479 
L 227.180475 295.335504 
L 227.246745 295.222783 
L 227.445554 295.31583 
L 227.776901 295.425459 
L 227.909441 295.336911 
L 228.108249 295.414665 
L 228.373327 295.371573 
L 228.439597 295.276391 
L 228.505867 295.439189 
L 228.572136 295.392397 
L 228.903484 295.375686 
L 229.764988 295.438023 
L 229.831258 295.450271 
L 229.897527 295.34013 
L 229.963797 295.393102 
L 231.02411 295.412344 
L 231.090379 295.269038 
L 231.156649 295.334542 
L 231.686805 295.348106 
L 231.753075 295.427526 
L 231.885614 295.371416 
L 232.084422 295.422503 
L 232.216962 295.372119 
L 232.41577 295.388386 
L 233.012196 295.450853 
L 233.211005 295.393157 
L 233.409814 295.448154 
L 233.476083 295.354155 
L 233.542353 295.482837 
L 233.608622 295.408075 
L 233.741161 295.199332 
L 233.807431 295.389827 
L 233.8737 295.271781 
L 234.006239 295.471177 
L 234.072509 295.329316 
L 234.138779 295.39306 
L 234.205048 295.30991 
L 234.271318 295.402844 
L 234.668935 295.302899 
L 234.801474 295.11837 
L 234.934013 295.156353 
L 235.000283 295.072142 
L 235.199091 295.272714 
L 235.3979 295.416011 
L 235.530439 295.438266 
L 235.662978 295.300444 
L 235.928057 295.384236 
L 236.060596 295.273629 
L 236.590752 295.039734 
L 236.657022 294.936292 
L 236.723291 295.004004 
L 236.85583 295.285968 
L 237.187178 295.409275 
L 237.319717 295.468237 
L 237.518526 295.398265 
L 237.717335 295.472996 
L 238.048682 295.12537 
L 238.247491 295.262536 
L 238.4463 295.315398 
L 238.578839 295.284036 
L 238.777647 295.121944 
L 238.910186 295.184987 
L 239.108995 295.386131 
L 239.374073 295.261053 
L 239.572882 295.418689 
L 240.235578 295.362426 
L 240.368117 295.346349 
L 240.434386 295.466834 
L 240.566925 295.204729 
L 240.633195 295.297562 
L 240.964543 295.379159 
L 241.163351 295.15195 
L 241.29589 295.359831 
L 241.560969 295.158654 
L 241.693508 295.417449 
L 241.759777 295.315123 
L 242.024856 295.250207 
L 242.157395 295.433483 
L 242.223664 295.364886 
L 242.289934 295.268895 
L 242.356203 295.326597 
L 242.488742 295.450007 
L 242.88636 295.286593 
L 243.085168 295.340009 
L 243.350247 295.39328 
L 243.747864 295.37415 
L 243.946673 295.400202 
L 244.543099 295.186204 
L 244.609368 295.290385 
L 244.675638 295.234476 
L 244.808177 295.177892 
L 245.006985 295.3048 
L 245.537142 295.420385 
L 246.464916 295.388895 
L 247.525229 295.482176 
L 247.724037 295.454762 
L 248.055385 295.468638 
L 248.651811 295.460777 
L 248.916889 295.42379 
L 249.181967 295.4343 
L 249.513315 295.420204 
L 249.844663 295.338709 
L 250.639898 295.364747 
L 250.838706 295.347142 
L 251.965289 295.372428 
L 252.097828 295.33878 
L 252.296636 295.370242 
L 252.561715 295.350367 
L 252.826793 295.35817 
L 253.423219 295.374419 
L 253.688297 295.414962 
L 253.820836 295.450284 
L 254.616071 295.441115 
L 254.814879 295.463531 
L 255.013688 295.415278 
L 255.345036 295.454714 
L 255.411305 295.372858 
L 255.477575 295.4296 
L 255.808923 295.457415 
L 255.875192 295.376374 
L 256.007731 295.450196 
L 256.869236 295.393626 
L 257.465662 295.433565 
L 257.73074 295.392865 
L 258.128357 295.483377 
L 262.833496 295.450084 
L 263.164843 295.461538 
L 264.887852 295.42671 
L 265.351739 295.383909 
L 265.749356 295.455891 
L 266.014434 295.40351 
L 268.13506 295.4497 
L 268.267599 295.416727 
L 268.930294 295.433663 
L 269.327912 295.469238 
L 269.52672 295.417386 
L 269.858068 295.384002 
L 270.123146 295.390075 
L 270.255686 295.403369 
L 270.785842 295.448532 
L 270.984651 295.43495 
L 271.382268 295.443526 
L 272.111233 295.466976 
L 272.64139 295.455333 
L 272.840198 295.450419 
L 273.635433 295.358887 
L 273.834241 295.427149 
L 275.159633 295.413944 
L 275.49098 295.421861 
L 279.135806 295.475888 
L 279.599693 295.454868 
L 279.798501 295.463605 
L 280.792545 295.447094 
L 281.123892 295.466366 
L 281.322701 295.411205 
L 281.852858 295.422888 
L 283.178249 295.414515 
L 283.377057 295.458028 
L 283.973483 295.445593 
L 284.106022 295.443506 
L 284.371101 295.358999 
L 284.636179 295.372063 
L 284.768718 295.410306 
L 285.829031 295.400677 
L 286.094109 295.429235 
L 286.359187 295.42241 
L 286.823074 295.422242 
L 287.883387 295.436915 
L 288.413543 295.376075 
L 288.612352 295.456183 
L 289.473856 295.476847 
L 289.738934 295.447404 
L 289.937743 295.474545 
L 290.202821 295.473021 
L 290.732978 295.460771 
L 290.865517 295.425727 
L 290.931786 295.342833 
L 290.998056 295.397079 
L 291.130595 295.448562 
L 291.329404 295.416803 
L 291.793291 295.45432 
L 292.190908 295.443245 
L 292.389717 295.411947 
L 292.654795 295.431661 
L 292.787334 295.419339 
L 293.38376 295.430758 
L 293.582569 295.462253 
L 293.913916 295.464622 
L 294.90796 295.374056 
L 295.173038 295.326149 
L 295.504386 295.403874 
L 295.636925 295.39756 
L 295.769464 295.42915 
L 296.233351 295.395718 
L 296.432159 295.256964 
L 296.630968 295.454769 
L 296.962316 295.409936 
L 297.094855 295.428739 
L 297.161125 295.327215 
L 297.359933 295.480264 
L 298.685324 295.466687 
L 299.215481 295.465271 
L 299.28175 295.291374 
L 299.34802 295.405336 
L 299.546828 295.329083 
L 299.679368 295.426648 
L 299.745637 295.382613 
L 299.811907 295.481618 
L 299.944446 295.289991 
L 300.010715 295.310451 
L 300.143254 295.462236 
L 300.342063 295.390086 
L 300.474602 295.369407 
L 300.80595 295.393457 
L 301.004759 295.417319 
L 301.269837 295.451315 
L 301.601185 295.405044 
L 301.733724 295.381946 
L 301.932532 295.45278 
L 301.998802 295.339543 
L 302.065072 295.430911 
L 302.26388 295.460474 
L 302.661498 295.410816 
L 302.794037 295.327518 
L 302.992845 295.367011 
L 303.324193 295.43882 
L 303.390463 295.282767 
L 303.456732 295.355361 
L 304.715854 295.302008 
L 304.848393 295.347269 
L 305.047201 295.44101 
L 305.24601 295.354279 
L 305.511088 295.465604 
L 306.306323 295.44563 
L 306.372593 295.250281 
L 306.438862 295.406713 
L 306.505132 295.182812 
L 306.571401 295.252591 
L 306.637671 295.43436 
L 306.77021 295.260486 
L 306.902749 295.398731 
L 306.969019 295.275511 
L 307.035288 295.463996 
L 307.101558 295.360194 
L 307.300366 295.326604 
L 307.366636 295.431402 
L 307.432905 295.372685 
L 309.023375 295.354757 
L 309.089644 295.258469 
L 309.222183 295.418743 
L 309.420992 295.287386 
L 309.487262 295.372985 
L 309.553531 295.26851 
L 309.68607 295.353605 
L 309.75234 295.243667 
L 309.884879 295.476999 
L 309.951148 295.230747 
L 310.017418 295.411367 
L 310.149957 295.38412 
L 310.945192 295.37624 
L 311.144 295.403423 
L 311.21027 295.292984 
L 311.27654 295.35285 
L 312.270583 295.457863 
L 312.469392 295.202269 
L 312.535661 295.352853 
L 312.601931 295.18761 
L 312.6682 295.394976 
L 312.73447 295.3443 
L 312.800739 295.283573 
L 312.867009 295.375462 
L 312.999548 295.174346 
L 313.198357 295.43935 
L 313.794783 295.217047 
L 313.927322 295.433551 
L 314.059861 295.103903 
L 314.1924 295.420902 
L 314.258669 295.240364 
L 314.324939 295.452639 
L 314.391209 295.139079 
L 314.457478 295.407569 
L 314.523748 295.331626 
L 314.788826 295.456801 
L 315.252713 295.382993 
L 315.318982 295.238798 
L 315.385252 295.343543 
L 315.65033 295.424478 
L 315.849139 295.145218 
L 316.047947 295.372637 
L 316.379295 295.367221 
L 316.445565 295.208309 
L 316.511834 295.248379 
L 316.644373 295.34193 
L 316.776913 295.281545 
L 316.843182 295.428717 
L 316.909452 295.381119 
L 317.17453 295.353685 
L 317.307069 295.308018 
L 317.439608 295.24449 
L 317.572147 295.41554 
L 317.638417 295.238081 
L 317.704686 295.338424 
L 317.837225 295.401277 
L 317.903495 295.344411 
L 318.036034 295.444092 
L 318.102304 295.330523 
L 318.168573 295.384122 
L 318.234843 295.333095 
L 318.301112 295.446509 
L 318.367382 295.402241 
L 318.63246 295.405633 
L 318.69873 295.3095 
L 318.831269 295.411951 
L 318.963808 295.273511 
L 319.228886 295.405195 
L 319.427695 295.346053 
L 319.560234 295.11442 
L 319.626503 295.334911 
L 319.692773 295.218775 
L 319.891582 295.44084 
L 320.024121 295.311299 
L 320.09039 295.443867 
L 320.15666 295.241478 
L 320.222929 295.290109 
L 320.289199 295.267804 
L 320.421738 295.392923 
L 320.686816 295.213656 
L 320.819355 295.4241 
L 320.885625 295.246715 
L 320.951894 295.343022 
L 321.018164 295.419687 
L 321.216973 294.780269 
L 321.482051 295.404686 
L 321.61459 294.887284 
L 321.68086 295.034259 
L 321.945938 295.454616 
L 322.012207 295.466057 
L 322.211016 295.12046 
L 322.608633 295.419331 
L 322.939981 295.319894 
L 323.07252 295.230106 
L 323.13879 295.410899 
L 323.205059 295.347225 
L 323.536407 295.477173 
L 323.602677 295.276508 
L 323.735216 295.452498 
L 324.132833 295.237586 
L 324.397911 295.402771 
L 324.729259 295.223517 
L 324.795529 295.416264 
L 324.861798 295.386842 
L 324.994337 295.17027 
L 325.060607 295.282879 
L 325.193146 295.396229 
L 325.458224 295.265917 
L 325.590763 295.362054 
L 325.723302 295.290385 
L 325.988381 295.40204 
L 326.12092 295.284849 
L 326.187189 295.409341 
L 326.319728 295.314803 
L 326.452267 295.371186 
L 326.717346 295.474153 
L 326.849885 295.249647 
L 326.916154 295.340926 
L 326.982424 295.368971 
L 327.048693 295.176952 
L 327.114963 295.243075 
L 327.181233 295.193615 
L 327.247502 295.346834 
L 327.313772 295.312882 
L 327.446311 295.452638 
L 327.51258 295.216737 
L 327.57885 295.306365 
L 327.645119 295.231729 
L 327.711389 295.29149 
L 327.976467 295.357372 
L 328.042737 295.447202 
L 328.109006 295.380953 
L 328.241545 295.277399 
L 328.374085 295.39286 
L 328.506624 294.877498 
L 328.705432 295.413656 
L 328.837971 295.205665 
L 328.904241 295.310058 
L 328.97051 295.060119 
L 329.03678 295.130077 
L 329.10305 295.146016 
L 329.235589 295.415763 
L 329.434397 295.216132 
L 329.699476 295.364104 
L 329.832015 295.046792 
L 329.898284 295.226854 
L 330.163362 295.461409 
L 330.295902 295.256605 
L 330.49471 295.412395 
L 330.826058 295.410554 
L 330.958597 295.273491 
L 331.024867 295.417532 
L 331.091136 295.245592 
L 331.157406 295.291975 
L 331.223675 295.301854 
L 331.356214 295.137704 
L 331.621293 295.39932 
L 331.687562 295.205636 
L 331.753832 295.277921 
L 331.886371 295.173758 
L 332.08518 295.409019 
L 332.151449 295.322437 
L 332.217719 295.227515 
L 332.283988 295.317935 
L 332.350258 295.315297 
L 332.416527 295.449571 
L 332.482797 295.407309 
L 332.615336 295.464319 
L 332.747875 295.202983 
L 333.079223 295.287726 
L 333.145492 295.170116 
L 333.278032 295.471954 
L 333.410571 295.378701 
L 333.675649 295.326504 
L 333.808188 295.307682 
L 334.205805 295.07329 
L 334.272075 295.272655 
L 334.338344 295.193506 
L 334.404614 295.179804 
L 334.537153 295.441992 
L 334.603423 295.229143 
L 334.669692 295.397491 
L 334.868501 295.141078 
L 334.93477 295.384678 
L 335.00104 295.175534 
L 335.067309 295.414011 
L 335.133579 295.37577 
L 335.332388 295.132325 
L 335.398657 295.346816 
L 335.464927 295.017968 
L 335.531196 295.162513 
L 335.597466 295.274488 
L 335.663735 295.083493 
L 335.796275 295.352513 
L 335.928814 295.176519 
L 335.995083 295.314972 
L 336.127622 295.101835 
L 336.392701 295.438546 
L 336.45897 295.308207 
L 336.52524 295.439174 
L 336.657779 295.25787 
L 336.922857 295.421126 
L 337.055396 295.270469 
L 337.320474 295.276725 
L 337.386744 295.20306 
L 337.453013 295.357696 
L 337.519283 295.319503 
L 337.585553 295.209629 
L 337.784361 295.438912 
L 337.850631 295.321333 
L 337.9169 295.359012 
L 338.447057 295.317929 
L 338.645865 295.341756 
L 338.910944 295.334062 
L 339.043483 295.422463 
L 339.308561 295.443562 
L 339.4411 295.479475 
L 339.573639 295.346189 
L 339.639909 295.436718 
L 339.706178 295.384966 
L 339.772448 295.252001 
L 339.904987 295.426963 
L 340.368874 295.337583 
L 340.567682 295.399826 
L 341.561726 295.408986 
L 341.627995 295.47172 
L 341.694265 295.361741 
L 341.760534 295.477246 
L 341.959343 295.286399 
L 342.290691 295.40299 
L 342.35696 295.403329 
L 342.4895 295.269564 
L 342.622039 295.468346 
L 342.688308 295.263496 
L 342.754578 295.360665 
L 343.085926 295.251065 
L 343.284734 295.430037 
L 343.351004 295.130253 
L 343.417273 295.284201 
L 343.483543 295.212275 
L 343.549812 295.394134 
L 343.616082 295.342507 
L 343.748621 295.290713 
L 343.814891 295.407199 
L 343.88116 295.31448 
L 343.94743 295.242832 
L 344.013699 295.323275 
L 344.079969 295.468989 
L 344.146238 295.391815 
L 344.411317 295.404106 
L 344.676395 295.461382 
L 344.875203 295.386026 
L 344.941473 295.369504 
L 345.007743 295.467754 
L 345.074012 295.415395 
L 345.471629 295.409697 
L 345.604169 295.369903 
L 345.935516 295.173011 
L 346.068055 295.203648 
L 346.134325 295.125394 
L 346.266864 295.460001 
L 346.333134 295.359637 
L 346.399403 295.461379 
L 346.531942 295.366446 
L 346.995829 295.354337 
L 347.194638 295.266725 
L 347.459716 295.322482 
L 347.791064 295.40275 
L 347.989873 295.138893 
L 348.122412 295.39008 
L 348.254951 295.277052 
L 348.520029 295.43365 
L 348.785107 295.257574 
L 348.851377 295.37365 
L 348.983916 295.140265 
L 349.050185 295.283119 
L 349.116455 295.243957 
L 349.514072 295.35406 
L 349.646611 295.370736 
L 349.84542 295.327345 
L 349.91169 295.476079 
L 350.044229 295.015851 
L 350.309307 295.239963 
L 350.441846 295.24202 
L 350.508116 295.378727 
L 350.706924 295.116682 
L 350.905733 295.417105 
L 350.972002 295.441094 
L 351.170811 295.309179 
L 351.435889 295.385712 
L 351.700968 295.349732 
L 351.767237 295.25159 
L 351.833507 295.301991 
L 352.032315 295.486042 
L 352.231124 295.388336 
L 352.496202 295.430984 
L 353.225167 295.392413 
L 353.357706 295.215122 
L 353.490246 295.398377 
L 353.622785 295.392169 
L 353.689054 295.461646 
L 353.755324 295.379216 
L 353.954132 295.362296 
L 354.152941 295.444045 
L 354.28548 295.381477 
L 355.478332 295.406471 
L 356.671184 295.440853 
L 357.068801 295.397445 
L 357.400149 295.289456 
L 357.598958 295.375856 
L 357.665227 295.209032 
L 357.731497 295.40563 
L 357.797767 295.337452 
L 357.864036 295.202063 
L 358.062845 295.479912 
L 358.327923 295.408888 
L 358.460462 295.418149 
L 358.659271 295.345609 
L 358.79181 295.481276 
L 358.924349 295.329506 
L 359.255697 295.411673 
L 360.24974 295.423576 
L 360.382279 295.360864 
L 360.581088 295.456031 
L 360.846166 295.371915 
L 361.044975 295.460354 
L 361.641401 295.442586 
L 361.972748 295.406959 
L 362.039018 295.31475 
L 362.105288 295.402106 
L 362.237827 295.390926 
L 362.370366 295.327155 
L 362.436635 295.484269 
L 362.502905 295.433805 
L 362.701714 295.41343 
L 363.033061 295.34508 
L 363.23187 295.414917 
L 363.430679 295.413035 
L 363.563218 295.415844 
L 363.695757 295.465058 
L 363.960835 295.335561 
L 364.225913 295.438129 
L 364.490991 295.389801 
L 364.6898 295.289385 
L 364.888609 295.431382 
L 365.219957 295.335737 
L 365.418765 295.481875 
L 365.617574 295.40966 
L 365.750113 295.435079 
L 366.876695 295.451897 
L 367.075504 295.455513 
L 367.208043 295.399371 
L 367.340582 295.439804 
L 367.473121 295.371757 
L 368.069547 295.438728 
L 368.268356 295.461965 
L 368.798512 295.424837 
L 368.864782 295.318631 
L 368.931052 295.406681 
L 369.12986 295.402617 
L 369.991364 295.432823 
L 370.123904 295.480904 
L 370.322712 295.426759 
L 370.65406 295.404432 
L 371.913182 295.423027 
L 372.840955 295.427454 
L 373.039764 295.449946 
L 373.371112 295.3596 
L 373.437381 295.473456 
L 373.503651 295.369754 
L 373.70246 295.47318 
L 373.834999 295.409847 
L 373.967538 295.436848 
L 374.365155 295.419718 
L 375.889355 295.428245 
L 376.154433 295.413856 
L 379.070293 295.482505 
L 379.136563 295.259517 
L 379.202832 295.415353 
L 379.467911 295.300236 
L 379.53418 295.218625 
L 379.60045 295.281993 
L 379.666719 295.434726 
L 379.732989 295.228833 
L 379.799258 295.468322 
L 379.865528 295.232471 
L 379.931798 295.4464 
L 379.998067 295.419651 
L 380.064337 295.457635 
L 380.130606 295.325914 
L 380.196876 295.402483 
L 381.455997 295.403875 
L 381.522267 295.289884 
L 381.654806 295.396701 
L 382.317502 295.438815 
L 382.383771 295.233806 
L 382.450041 295.350524 
L 382.51631 295.443576 
L 382.58258 295.28807 
L 382.715119 295.460313 
L 382.913928 295.369116 
L 382.980197 295.482182 
L 383.046467 295.346436 
L 383.112736 295.382317 
L 383.642893 295.432682 
L 383.775432 295.41237 
L 384.04051 295.378488 
L 384.305588 295.334263 
L 384.371858 295.326103 
L 384.438127 295.46231 
L 384.636936 295.25542 
L 384.703205 295.427301 
L 384.769475 295.350154 
L 384.835745 295.451692 
L 384.902014 295.373528 
L 385.034553 295.36605 
L 385.233362 295.247509 
L 385.432171 295.465341 
L 385.697249 295.302105 
L 385.896057 295.441025 
L 385.962327 295.383216 
L 386.094866 295.481841 
L 386.426214 295.267846 
L 386.625023 295.324172 
L 386.95637 295.288554 
L 387.221449 295.454777 
L 387.353988 295.33805 
L 387.486527 295.420988 
L 387.619066 295.159334 
L 387.950414 295.384632 
L 388.149222 295.235448 
L 388.215492 295.413535 
L 388.281761 295.35019 
L 388.54684 295.345135 
L 388.745648 295.412709 
L 388.944457 295.2904 
L 389.010726 295.347448 
L 389.076996 295.179016 
L 389.143266 295.292894 
L 389.342074 295.25447 
L 389.540883 295.359915 
L 389.607152 295.208417 
L 389.673422 295.345438 
L 389.739692 295.27784 
L 389.805961 295.243553 
L 390.00477 295.421273 
L 390.071039 295.287173 
L 390.137309 295.330936 
L 390.601196 295.363057 
L 390.667465 295.338357 
L 390.800004 295.399311 
L 390.932544 295.308917 
L 391.131352 295.408185 
L 391.263891 295.253657 
L 391.39643 295.344322 
L 391.595239 295.327322 
L 391.727778 295.385786 
L 391.992856 295.339355 
L 392.059126 295.371366 
L 392.191665 295.265436 
L 392.523013 295.304798 
L 392.655552 295.33751 
L 392.854361 295.429761 
L 393.251978 295.373385 
L 393.450787 295.39092 
L 393.583326 295.249899 
L 393.715865 295.108976 
L 393.980943 295.370979 
L 394.047213 295.400336 
L 394.312291 295.061837 
L 394.643639 295.35228 
L 394.974986 295.336645 
L 395.173795 295.340513 
L 395.240065 295.462525 
L 395.306334 295.369098 
L 395.372604 295.198876 
L 395.438873 295.279817 
L 395.571412 295.436848 
L 395.703951 295.460359 
L 395.90276 295.303169 
L 396.167838 295.414107 
L 396.697995 295.38654 
L 396.830534 295.386765 
L 397.029343 295.382235 
L 397.228151 295.371671 
L 397.36069 295.463778 
L 397.42696 295.354908 
L 397.493229 295.405016 
L 397.559499 295.476932 
L 397.625769 295.399342 
L 397.692038 295.437422 
L 397.758308 295.344581 
L 397.824577 295.449646 
L 397.890847 295.403641 
L 398.089655 295.380068 
L 398.288464 295.333801 
L 398.487273 295.444923 
L 398.487273 295.444923 
" clip-path="url(#pf0b0cec0ca)" style="fill: none; stroke: #1f77b4; stroke-width: 1.5; stroke-linecap: square"/>
   </g>
   <g id="patch_3">
    <path d="M 57.6 307.584 
L 57.6 41.472 
" style="fill: none; stroke: #000000; stroke-width: 0.8; stroke-linejoin: miter; stroke-linecap: square"/>
   </g>
   <g id="patch_4">
    <path d="M 414.72 307.584 
L 414.72 41.472 
" style="fill: none; stroke: #000000; stroke-width: 0.8; stroke-linejoin: miter; stroke-linecap: square"/>
   </g>
   <g id="patch_5">
    <path d="M 57.6 307.584 
L 414.72 307.584 
" style="fill: none; stroke: #000000; stroke-width: 0.8; stroke-linejoin: miter; stroke-linecap: square"/>
   </g>
   <g id="patch_6">
    <path d="M 57.6 41.472 
L 414.72 41.472 
" style="fill: none; stroke: #000000; stroke-width: 0.8; stroke-linejoin: miter; stroke-linecap: square"/>
   </g>
   <g id="text_17">
    <text style="font: 12px 'IPAexGothic'; text-anchor: middle" x="236.16" y="35.472" transform="rotate(-0 236.16 35.472)">"054_A2.wav"の振幅スペクトル</text>
   </g>
  </g>
 </g>
 <defs>
  <clipPath id="pf0b0cec0ca">
   <rect x="57.6" y="41.472" width="357.12" height="266.112"/>
  </clipPath>
 </defs>
</svg>
