<?xml version="1.0" encoding="utf-8" standalone="no"?>
<!DOCTYPE svg PUBLIC "-//W3C//DTD SVG 1.1//EN"
  "http://www.w3.org/Graphics/SVG/1.1/DTD/svg11.dtd">
<svg xmlns:xlink="http://www.w3.org/1999/xlink" width="460.8pt" height="345.6pt" viewBox="0 0 460.8 345.6" xmlns="http://www.w3.org/2000/svg" version="1.1">
 <metadata>
  <rdf:RDF xmlns:dc="http://purl.org/dc/elements/1.1/" xmlns:cc="http://creativecommons.org/ns#" xmlns:rdf="http://www.w3.org/1999/02/22-rdf-syntax-ns#">
   <cc:Work>
    <dc:type rdf:resource="http://purl.org/dc/dcmitype/StillImage"/>
    <dc:date>2022-11-28T12:40:09.373189</dc:date>
    <dc:format>image/svg+xml</dc:format>
    <dc:creator>
     <cc:Agent>
      <dc:title>Matplotlib v3.6.2, https://matplotlib.org/</dc:title>
     </cc:Agent>
    </dc:creator>
   </cc:Work>
  </rdf:RDF>
 </metadata>
 <defs>
  <style type="text/css">*{stroke-linejoin: round; stroke-linecap: butt}</style>
 </defs>
 <g id="figure_1">
  <g id="patch_1">
   <path d="M 0 345.6 
L 460.8 345.6 
L 460.8 0 
L 0 0 
z
" style="fill: #ffffff"/>
  </g>
  <g id="axes_1">
   <g id="patch_2">
    <path d="M 57.6 307.584 
L 414.72 307.584 
L 414.72 41.472 
L 57.6 41.472 
z
" style="fill: #ffffff"/>
   </g>
   <g id="matplotlib.axis_1">
    <g id="xtick_1">
     <g id="line2d_1">
      <defs>
       <path id="m85b06005ad" d="M 0 0 
L 0 3.5 
" style="stroke: #000000; stroke-width: 0.8"/>
      </defs>
      <g>
       <use xlink:href="#m85b06005ad" x="73.832727" y="307.584" style="stroke: #000000; stroke-width: 0.8"/>
      </g>
     </g>
     <g id="text_1">
      <text style="font: 10px 'IPAexGothic'; text-anchor: middle" x="73.832727" y="322.074625" transform="rotate(-0 73.832727 322.074625)">0</text>
     </g>
    </g>
    <g id="xtick_2">
     <g id="line2d_2">
      <g>
       <use xlink:href="#m85b06005ad" x="140.102281" y="307.584" style="stroke: #000000; stroke-width: 0.8"/>
      </g>
     </g>
     <g id="text_2">
      <text style="font: 10px 'IPAexGothic'; text-anchor: middle" x="140.102281" y="322.074625" transform="rotate(-0 140.102281 322.074625)">1000</text>
     </g>
    </g>
    <g id="xtick_3">
     <g id="line2d_3">
      <g>
       <use xlink:href="#m85b06005ad" x="206.371835" y="307.584" style="stroke: #000000; stroke-width: 0.8"/>
      </g>
     </g>
     <g id="text_3">
      <text style="font: 10px 'IPAexGothic'; text-anchor: middle" x="206.371835" y="322.074625" transform="rotate(-0 206.371835 322.074625)">2000</text>
     </g>
    </g>
    <g id="xtick_4">
     <g id="line2d_4">
      <g>
       <use xlink:href="#m85b06005ad" x="272.64139" y="307.584" style="stroke: #000000; stroke-width: 0.8"/>
      </g>
     </g>
     <g id="text_4">
      <text style="font: 10px 'IPAexGothic'; text-anchor: middle" x="272.64139" y="322.074625" transform="rotate(-0 272.64139 322.074625)">3000</text>
     </g>
    </g>
    <g id="xtick_5">
     <g id="line2d_5">
      <g>
       <use xlink:href="#m85b06005ad" x="338.910944" y="307.584" style="stroke: #000000; stroke-width: 0.8"/>
      </g>
     </g>
     <g id="text_5">
      <text style="font: 10px 'IPAexGothic'; text-anchor: middle" x="338.910944" y="322.074625" transform="rotate(-0 338.910944 322.074625)">4000</text>
     </g>
    </g>
    <g id="xtick_6">
     <g id="line2d_6">
      <g>
       <use xlink:href="#m85b06005ad" x="405.180498" y="307.584" style="stroke: #000000; stroke-width: 0.8"/>
      </g>
     </g>
     <g id="text_6">
      <text style="font: 10px 'IPAexGothic'; text-anchor: middle" x="405.180498" y="322.074625" transform="rotate(-0 405.180498 322.074625)">5000</text>
     </g>
    </g>
    <g id="text_7">
     <text style="font: 10px 'IPAexGothic'; text-anchor: middle" x="236.16" y="335.924625" transform="rotate(-0 236.16 335.924625)">周波数[Hz]</text>
    </g>
   </g>
   <g id="matplotlib.axis_2">
    <g id="ytick_1">
     <g id="line2d_7">
      <defs>
       <path id="m0aab3ea3af" d="M 0 0 
L -3.5 0 
" style="stroke: #000000; stroke-width: 0.8"/>
      </defs>
      <g>
       <use xlink:href="#m0aab3ea3af" x="57.6" y="295.488413" style="stroke: #000000; stroke-width: 0.8"/>
      </g>
     </g>
     <g id="text_8">
      <text style="font: 10px 'IPAexGothic'; text-anchor: end" x="50.6" y="299.233726" transform="rotate(-0 50.6 299.233726)">0.0</text>
     </g>
    </g>
    <g id="ytick_2">
     <g id="line2d_8">
      <g>
       <use xlink:href="#m0aab3ea3af" x="57.6" y="257.040451" style="stroke: #000000; stroke-width: 0.8"/>
      </g>
     </g>
     <g id="text_9">
      <text style="font: 10px 'IPAexGothic'; text-anchor: end" x="50.6" y="260.785764" transform="rotate(-0 50.6 260.785764)">0.5</text>
     </g>
    </g>
    <g id="ytick_3">
     <g id="line2d_9">
      <g>
       <use xlink:href="#m0aab3ea3af" x="57.6" y="218.592489" style="stroke: #000000; stroke-width: 0.8"/>
      </g>
     </g>
     <g id="text_10">
      <text style="font: 10px 'IPAexGothic'; text-anchor: end" x="50.6" y="222.337802" transform="rotate(-0 50.6 222.337802)">1.0</text>
     </g>
    </g>
    <g id="ytick_4">
     <g id="line2d_10">
      <g>
       <use xlink:href="#m0aab3ea3af" x="57.6" y="180.144527" style="stroke: #000000; stroke-width: 0.8"/>
      </g>
     </g>
     <g id="text_11">
      <text style="font: 10px 'IPAexGothic'; text-anchor: end" x="50.6" y="183.889839" transform="rotate(-0 50.6 183.889839)">1.5</text>
     </g>
    </g>
    <g id="ytick_5">
     <g id="line2d_11">
      <g>
       <use xlink:href="#m0aab3ea3af" x="57.6" y="141.696565" style="stroke: #000000; stroke-width: 0.8"/>
      </g>
     </g>
     <g id="text_12">
      <text style="font: 10px 'IPAexGothic'; text-anchor: end" x="50.6" y="145.441877" transform="rotate(-0 50.6 145.441877)">2.0</text>
     </g>
    </g>
    <g id="ytick_6">
     <g id="line2d_12">
      <g>
       <use xlink:href="#m0aab3ea3af" x="57.6" y="103.248603" style="stroke: #000000; stroke-width: 0.8"/>
      </g>
     </g>
     <g id="text_13">
      <text style="font: 10px 'IPAexGothic'; text-anchor: end" x="50.6" y="106.993915" transform="rotate(-0 50.6 106.993915)">2.5</text>
     </g>
    </g>
    <g id="ytick_7">
     <g id="line2d_13">
      <g>
       <use xlink:href="#m0aab3ea3af" x="57.6" y="64.80064" style="stroke: #000000; stroke-width: 0.8"/>
      </g>
     </g>
     <g id="text_14">
      <text style="font: 10px 'IPAexGothic'; text-anchor: end" x="50.6" y="68.545953" transform="rotate(-0 50.6 68.545953)">3.0</text>
     </g>
    </g>
    <g id="text_15">
     <text style="font: 10px 'IPAexGothic'; text-anchor: middle" x="29.460938" y="174.528" transform="rotate(-90 29.460938 174.528)">振幅</text>
    </g>
    <g id="text_16">
     <text style="font: 10px 'IPAexGothic'; text-anchor: start" x="57.6" y="38.472" transform="rotate(-0 57.6 38.472)">1e7</text>
    </g>
   </g>
   <g id="line2d_14">
    <path d="M 73.832727 294.564939 
L 73.965266 295.25351 
L 74.097805 295.325042 
L 74.230345 295.367982 
L 74.429153 295.43694 
L 74.89304 295.456601 
L 75.224388 295.462038 
L 78.405327 295.458781 
L 78.604135 295.444591 
L 78.670405 295.304527 
L 78.736674 295.385045 
L 79.001752 295.462474 
L 79.730718 295.452026 
L 90.731464 295.368209 
L 90.797733 295.328665 
L 90.864003 295.446612 
L 90.930272 295.405797 
L 91.526698 295.393429 
L 92.255663 295.385385 
L 93.183437 295.371754 
L 93.448515 295.367303 
L 94.24375 295.318766 
L 94.840176 295.32457 
L 98.087384 295.159527 
L 98.153654 295.095799 
L 98.219923 295.186123 
L 98.418732 295.223301 
L 98.68381 295.175206 
L 99.213966 295.235837 
L 99.346506 295.307524 
L 99.611584 294.928204 
L 99.876662 295.372975 
L 100.14174 294.725483 
L 100.671897 294.146887 
L 100.738166 293.918931 
L 100.804436 294.049393 
L 100.936975 294.145629 
L 101.069514 294.34623 
L 101.533401 293.330567 
L 101.798479 293.780254 
L 101.931018 293.965076 
L 102.196096 291.904928 
L 102.328636 291.540651 
L 102.394905 292.595433 
L 102.461175 292.261758 
L 102.858792 290.15161 
L 102.925062 283.184851 
L 102.991331 170.099465 
L 103.12387 291.723224 
L 103.322679 295.172344 
L 103.388948 294.494325 
L 103.521488 291.955806 
L 103.786566 293.409894 
L 103.919105 294.061097 
L 104.051644 293.870644 
L 104.316722 294.414327 
L 104.382992 294.360228 
L 104.5818 294.251939 
L 104.846879 294.49538 
L 104.913148 294.676027 
L 104.979418 294.635373 
L 105.045687 294.565693 
L 105.178226 294.317342 
L 105.377035 294.551047 
L 105.443305 294.759061 
L 105.509574 294.635393 
L 105.642113 294.647519 
L 105.840922 294.820866 
L 105.973461 294.724538 
L 106.106 294.988211 
L 106.238539 294.680176 
L 106.371078 293.75136 
L 106.437348 294.040535 
L 106.636157 294.675435 
L 106.768696 294.933663 
L 106.834965 294.835265 
L 107.033774 294.780476 
L 107.365122 295.21032 
L 107.762739 294.737495 
L 107.829009 294.840249 
L 107.895278 295.254283 
L 107.961548 295.120883 
L 108.094087 295.09555 
L 108.292895 295.208903 
L 108.425435 295.138869 
L 109.02186 295.280829 
L 109.08813 295.238931 
L 109.1544 295.405999 
L 109.220669 295.334758 
L 109.353208 295.409362 
L 109.552017 295.356345 
L 110.214712 295.253566 
L 110.280982 295.195508 
L 110.347252 295.353975 
L 110.413521 295.319009 
L 111.208756 295.250905 
L 111.275025 295.353051 
L 111.341295 295.141806 
L 111.407564 295.177916 
L 111.540104 295.33563 
L 111.606373 295.290279 
L 111.672643 295.212516 
L 111.871451 295.418505 
L 112.202799 295.397555 
L 113.064303 295.399711 
L 113.329382 295.391479 
L 113.726999 295.345533 
L 114.257155 295.367823 
L 114.853581 295.301102 
L 115.05239 295.291465 
L 115.118659 295.356994 
L 115.184929 295.225875 
L 115.251199 295.266529 
L 115.582546 295.367292 
L 115.715085 295.394319 
L 115.913894 295.389481 
L 116.245242 295.325673 
L 119.49245 295.352794 
L 119.624989 295.36965 
L 120.022606 295.227196 
L 120.221415 295.275442 
L 120.884111 295.280138 
L 121.149189 295.27118 
L 121.944424 295.223625 
L 122.739658 295.197935 
L 123.004736 295.350102 
L 123.468623 295.3275 
L 123.733701 295.219446 
L 123.866241 295.271409 
L 124.330127 295.139975 
L 124.727745 295.133946 
L 124.794014 294.925883 
L 124.860284 295.245155 
L 124.926553 295.125756 
L 125.45671 295.134958 
L 126.649562 295.016198 
L 126.91464 295.065035 
L 126.98091 294.989563 
L 127.047179 295.053577 
L 127.113449 295.123983 
L 127.245988 294.933428 
L 127.312257 294.97935 
L 127.378527 294.691927 
L 127.577336 295.292899 
L 127.643605 295.165729 
L 127.709875 295.217155 
L 128.041223 295.278509 
L 128.107492 295.021129 
L 128.173762 295.134801 
L 128.43884 295.357648 
L 128.703918 294.547425 
L 128.902727 292.796268 
L 128.968996 293.162926 
L 129.035266 292.949674 
L 129.167805 292.252908 
L 129.366614 293.539038 
L 129.432883 293.528116 
L 129.499153 293.63799 
L 129.565422 293.575083 
L 129.697961 292.525567 
L 129.764231 293.515664 
L 129.96304 292.42614 
L 130.029309 292.971442 
L 130.095579 292.513364 
L 130.161848 290.935746 
L 130.228118 291.129235 
L 130.426926 291.818159 
L 130.625735 289.746107 
L 130.692005 290.380498 
L 131.222161 284.510901 
L 131.288431 281.816314 
L 131.3547 282.561449 
L 131.42097 283.109688 
L 131.487239 281.101159 
L 131.553509 284.5926 
L 131.619778 284.392649 
L 131.686048 283.464322 
L 131.752318 283.642645 
L 131.818587 284.110867 
L 131.951126 278.723365 
L 132.017396 271.234885 
L 132.083665 237.10471 
L 132.149935 53.568 
L 132.282474 281.024341 
L 132.415013 292.551385 
L 132.481283 292.129198 
L 132.613822 289.849773 
L 132.680091 290.233985 
L 132.746361 288.953415 
L 132.81263 289.82155 
L 133.077709 293.964466 
L 133.143978 293.528411 
L 133.210248 292.862975 
L 133.276517 293.120201 
L 133.342787 293.256477 
L 133.475326 294.073918 
L 133.607865 293.462417 
L 133.872943 293.367589 
L 134.270561 293.819267 
L 134.4031 294.027412 
L 134.469369 294.098817 
L 134.535639 293.934714 
L 134.601908 294.41919 
L 134.668178 294.148977 
L 134.734447 294.065263 
L 134.933256 294.63672 
L 135.198334 294.573026 
L 135.728491 293.137843 
L 136.126108 294.732162 
L 136.192378 294.702924 
L 136.258647 294.767599 
L 136.324917 294.693679 
L 136.523725 294.69435 
L 136.855073 294.285325 
L 136.987612 294.918509 
L 137.053882 294.611662 
L 137.186421 294.801428 
L 137.451499 294.59145 
L 137.650308 294.681287 
L 137.782847 294.415659 
L 137.849117 294.503007 
L 138.114195 294.905525 
L 138.511812 295.002924 
L 138.710621 294.997518 
L 138.975699 294.940025 
L 139.108238 295.022846 
L 139.307047 294.995724 
L 139.373316 295.154554 
L 139.439586 294.67867 
L 139.505855 295.026789 
L 139.572125 294.946615 
L 139.704664 294.872054 
L 139.837203 294.9956 
L 140.102281 294.71682 
L 140.23482 294.847283 
L 140.36736 294.774973 
L 140.499899 294.848449 
L 140.764977 294.798202 
L 141.030055 294.889404 
L 141.162594 294.837617 
L 141.228864 294.938677 
L 141.295133 294.870627 
L 141.493942 294.874441 
L 141.626481 295.011398 
L 141.82529 294.754167 
L 141.891559 295.37757 
L 141.957829 295.329185 
L 142.156638 295.192675 
L 142.355446 295.302845 
L 142.554255 295.243138 
L 142.686794 295.175549 
L 142.885603 295.097614 
L 143.018142 295.111481 
L 143.150681 295.075693 
L 143.28322 295.200386 
L 143.548298 295.216888 
L 143.747107 295.194311 
L 143.945915 295.091796 
L 144.144724 295.175642 
L 144.210994 295.140119 
L 144.277263 295.376127 
L 144.343533 294.974292 
L 144.409802 295.12239 
L 144.608611 295.152271 
L 144.939959 295.105381 
L 145.138767 295.149873 
L 145.337576 295.294762 
L 145.602654 295.073304 
L 146.397889 295.272195 
L 146.530428 295.39788 
L 146.662967 295.438976 
L 146.729237 294.910313 
L 146.861776 295.353301 
L 147.060585 295.226387 
L 147.458202 295.241522 
L 147.657011 295.172579 
L 147.922089 295.254458 
L 148.452245 295.140969 
L 148.651054 295.128173 
L 148.849862 295.156799 
L 148.982402 295.221218 
L 149.114941 294.846825 
L 149.18121 295.314276 
L 149.24748 295.265917 
L 149.512558 295.234268 
L 149.645097 295.201301 
L 150.440332 295.206871 
L 150.63914 295.195127 
L 151.500645 295.076749 
L 151.566914 295.409359 
L 151.699453 295.136013 
L 151.964532 295.323204 
L 152.295879 295.264112 
L 152.494688 295.314472 
L 153.62127 295.315501 
L 153.886349 295.43203 
L 154.018888 295.082088 
L 154.085157 295.268883 
L 154.681583 295.375081 
L 154.814122 295.311452 
L 155.278009 295.161701 
L 155.410548 294.8968 
L 155.741896 294.954237 
L 155.874435 294.78388 
L 156.006974 294.399263 
L 156.139513 294.525758 
L 156.272053 294.791058 
L 156.6034 294.228587 
L 156.66967 294.667543 
L 156.735939 294.52363 
L 156.868479 294.729037 
L 156.934748 294.70255 
L 157.266096 294.042177 
L 157.332365 294.106953 
L 157.398635 293.915032 
L 157.531174 293.272517 
L 157.597444 293.197798 
L 157.729983 292.292952 
L 157.796252 292.590033 
L 157.862522 292.418166 
L 157.928791 291.729748 
L 158.260139 294.875668 
L 158.326409 295.02825 
L 158.392678 294.921175 
L 158.525217 294.990921 
L 158.657756 294.62446 
L 158.790296 293.901153 
L 158.856565 293.917787 
L 158.989104 293.759807 
L 159.187913 294.378385 
L 159.254182 294.425025 
L 159.320452 294.989695 
L 159.386722 294.042698 
L 159.452991 294.432963 
L 159.519261 294.02741 
L 159.58553 294.125965 
L 159.6518 294.077349 
L 159.718069 293.571018 
L 159.784339 294.355072 
L 159.850608 294.054962 
L 160.579574 288.331663 
L 160.645843 288.50831 
L 160.712113 286.39298 
L 160.778382 288.257641 
L 160.844652 287.959834 
L 160.977191 284.602591 
L 161.04346 287.524992 
L 161.10973 286.326779 
L 161.176 282.856935 
L 161.308539 212.635866 
L 161.507347 280.50204 
L 161.706156 291.502272 
L 161.772426 292.788599 
L 161.838695 292.758262 
L 161.971234 292.944729 
L 162.037504 292.738626 
L 162.103773 292.910746 
L 162.368852 294.92784 
L 162.56766 294.44875 
L 162.63393 294.495205 
L 162.766469 295.241961 
L 162.832738 295.299074 
L 162.965278 295.139409 
L 163.031547 295.142468 
L 163.164086 294.95366 
L 163.296625 294.963357 
L 163.495434 294.999695 
L 163.627973 294.9119 
L 163.826782 295.162498 
L 163.959321 295.283479 
L 164.09186 295.130818 
L 164.158129 295.224 
L 164.423208 294.754091 
L 164.688286 293.995502 
L 164.887095 294.632962 
L 164.953364 294.457471 
L 165.019634 294.583852 
L 165.284712 295.264493 
L 165.54979 295.251411 
L 165.682329 295.365362 
L 165.814868 295.193798 
L 166.079947 295.374053 
L 166.146216 295.127042 
L 166.212486 295.279758 
L 166.543833 295.229352 
L 166.676373 295.21059 
L 166.941451 295.268895 
L 167.869225 295.385618 
L 168.134303 295.38949 
L 168.399381 295.417998 
L 168.59819 295.320561 
L 168.730729 295.348219 
L 169.194616 295.183805 
L 169.327155 295.266995 
L 169.857311 295.251468 
L 170.122389 295.2571 
L 170.254928 295.180377 
L 170.586276 295.332333 
L 171.116433 295.351014 
L 171.44778 295.429854 
L 172.110476 295.387252 
L 172.706902 295.427413 
L 173.303328 295.372378 
L 173.369598 295.375609 
L 173.435867 295.204397 
L 173.502137 295.285376 
L 173.700945 295.306699 
L 173.899754 295.287127 
L 174.098563 295.374576 
L 175.556493 295.30656 
L 175.755301 295.430341 
L 175.887841 295.432209 
L 176.285458 295.359615 
L 176.749345 295.400508 
L 177.809658 295.354582 
L 178.008466 295.347321 
L 178.141005 295.429372 
L 178.339814 295.260736 
L 178.406084 295.374194 
L 178.538623 295.443269 
L 178.737431 295.355053 
L 179.068779 295.343376 
L 179.333857 295.355159 
L 179.665205 295.369855 
L 180.195362 295.339508 
L 180.659248 295.382987 
L 180.725518 295.241813 
L 180.791788 295.32925 
L 180.990596 295.258592 
L 181.255674 295.314954 
L 181.719561 295.288634 
L 181.98464 295.391472 
L 182.382257 295.319536 
L 182.713605 295.383243 
L 182.846144 295.39494 
L 183.044952 295.386891 
L 183.177492 295.337064 
L 183.243761 295.449996 
L 183.310031 295.409038 
L 183.508839 295.332054 
L 183.773917 295.391702 
L 183.906457 295.321173 
L 185.430656 295.081819 
L 185.496926 294.995595 
L 185.563195 294.558546 
L 185.629465 294.897802 
L 185.695735 294.865843 
L 185.894543 294.896895 
L 186.225891 294.562419 
L 186.292161 294.962143 
L 186.35843 294.795322 
L 186.490969 294.870515 
L 186.756047 294.453269 
L 186.954856 294.739886 
L 187.087395 294.574664 
L 187.153665 294.261963 
L 187.219934 294.424343 
L 187.418743 295.158974 
L 187.485013 295.090465 
L 187.750091 294.732993 
L 187.81636 295.020312 
L 187.88263 294.440066 
L 187.948899 294.651152 
L 188.015169 294.595129 
L 188.147708 295.19826 
L 188.213978 295.158193 
L 188.479056 295.190494 
L 188.611595 295.29855 
L 188.744134 295.309707 
L 188.942943 294.967714 
L 189.141751 294.861057 
L 189.34056 293.388208 
L 189.473099 294.265347 
L 189.605638 293.084178 
L 189.804447 291.147186 
L 189.870716 292.067131 
L 189.936986 291.512519 
L 190.003256 291.263019 
L 190.069525 291.311341 
L 190.135795 290.157905 
L 190.202064 290.823699 
L 190.334603 292.101914 
L 190.467142 263.273545 
L 190.665951 289.644933 
L 190.86476 293.589001 
L 191.063568 294.213171 
L 191.196108 294.065356 
L 191.328647 294.297777 
L 191.527455 295.24036 
L 191.659994 295.119359 
L 191.726264 295.055252 
L 191.925073 295.377224 
L 192.123881 295.208776 
L 192.25642 295.111756 
L 192.455229 294.897155 
L 192.521499 294.886291 
L 192.720307 295.208556 
L 192.786577 295.097793 
L 192.852846 294.748916 
L 192.985386 295.272263 
L 193.117925 295.320072 
L 193.316733 295.152803 
L 193.383003 295.209345 
L 193.581812 295.079756 
L 193.648081 295.028705 
L 193.78062 294.500682 
L 193.84689 294.545533 
L 194.443316 295.289474 
L 194.907203 295.451848 
L 195.30482 295.289813 
L 195.437359 295.350383 
L 195.768707 295.305687 
L 196.431402 295.440582 
L 196.696481 295.462649 
L 196.961559 295.437042 
L 197.690524 295.341671 
L 197.756793 295.267388 
L 197.955602 295.425629 
L 198.353219 295.303573 
L 198.684567 295.344543 
L 198.817106 295.333942 
L 199.015915 295.400817 
L 199.74488 295.364436 
L 199.877419 295.398095 
L 200.208767 295.462819 
L 200.473845 295.435692 
L 200.672654 295.368586 
L 201.070271 295.409773 
L 201.26908 295.431609 
L 201.666697 295.458689 
L 202.859549 295.402873 
L 203.588514 295.38673 
L 203.853592 295.30932 
L 204.052401 295.361814 
L 204.18494 295.373429 
L 204.516288 295.453673 
L 205.112714 295.417848 
L 205.70914 295.43247 
L 206.371835 295.374801 
L 206.636914 295.401419 
L 206.835722 295.403538 
L 207.299609 295.452981 
L 207.498418 295.384709 
L 207.697227 295.462058 
L 207.896035 295.39563 
L 208.757539 295.410711 
L 208.956348 295.349655 
L 210.281739 295.365342 
L 211.143243 295.284278 
L 211.540861 295.242157 
L 211.6734 295.246956 
L 211.872208 295.248246 
L 212.137287 295.296536 
L 212.269826 295.268067 
L 212.601174 295.284618 
L 212.733713 295.311772 
L 212.998791 295.194896 
L 213.13133 295.36696 
L 213.1976 295.31445 
L 213.661486 295.350262 
L 213.860295 295.179711 
L 214.059104 295.25393 
L 214.456721 295.195687 
L 214.58926 295.173659 
L 215.251956 295.117814 
L 215.384495 294.80526 
L 215.450764 294.864212 
L 215.649573 294.666755 
L 215.782112 294.737092 
L 216.04719 293.929243 
L 216.11346 294.315784 
L 216.179729 294.2647 
L 216.444808 294.691563 
L 216.511077 294.500111 
L 216.577347 294.2303 
L 216.643616 294.41598 
L 216.776155 294.39083 
L 217.240042 295.333402 
L 217.306312 295.277582 
L 217.505121 295.078106 
L 217.57139 295.266311 
L 217.63766 295.201979 
L 217.703929 295.227302 
L 217.836468 295.42482 
L 217.902738 295.472828 
L 218.764242 293.203921 
L 218.963051 291.614368 
L 219.02932 291.729366 
L 219.161859 292.728402 
L 219.426938 291.078497 
L 219.493207 288.044471 
L 219.625746 235.209857 
L 219.758285 286.193213 
L 219.957094 291.950949 
L 220.089633 292.157314 
L 220.222172 293.439907 
L 220.288442 292.97644 
L 220.354711 293.195466 
L 220.48725 293.517021 
L 220.686059 295.069298 
L 220.818598 294.769698 
L 221.017407 295.076457 
L 221.083676 295.014981 
L 221.216216 294.946619 
L 222.607876 295.190161 
L 222.806685 295.43171 
L 222.939224 295.241964 
L 223.270572 294.816773 
L 223.403111 294.944645 
L 223.53565 295.224009 
L 223.800728 295.356963 
L 223.999537 295.315855 
L 224.397154 295.364717 
L 224.529693 295.377081 
L 224.728502 295.419038 
L 225.05985 295.305765 
L 226.186432 295.336652 
L 231.753075 295.472981 
L 231.951883 295.379777 
L 232.48204 295.454206 
L 232.945927 295.444737 
L 233.608622 295.459127 
L 234.072509 295.477355 
L 234.536396 295.443325 
L 236.193135 295.426701 
L 236.325674 295.380372 
L 236.524483 295.457929 
L 236.723291 295.349641 
L 236.9221 295.462794 
L 240.103038 295.442609 
L 240.368117 295.379548 
L 240.699464 295.385661 
L 241.560969 295.297855 
L 241.693508 295.280212 
L 241.958586 295.318845 
L 242.223664 295.342426 
L 242.621282 295.41653 
L 243.880403 295.408015 
L 244.079212 295.276268 
L 244.34429 295.302965 
L 244.808177 294.946656 
L 244.874446 295.046539 
L 244.940716 294.959079 
L 245.073255 294.867215 
L 245.139525 294.944725 
L 245.205794 294.74338 
L 245.272064 294.805335 
L 245.470872 295.033417 
L 245.603411 294.942708 
L 245.669681 295.119903 
L 245.80222 294.872026 
L 246.133568 295.171016 
L 246.199837 294.997674 
L 246.266107 295.037623 
L 246.464916 295.370859 
L 246.862533 295.290418 
L 247.458959 295.083489 
L 247.591498 294.634936 
L 247.724037 294.846917 
L 247.856576 294.289104 
L 248.055385 292.560977 
L 248.187924 293.783555 
L 248.254194 293.777111 
L 248.320463 293.787877 
L 248.453002 292.871335 
L 248.519272 293.093021 
L 248.585541 293.425266 
L 248.651811 291.049141 
L 248.78435 260.419893 
L 248.983159 290.523368 
L 249.248237 293.377306 
L 249.447046 293.153546 
L 249.778393 295.436262 
L 249.977202 295.04735 
L 250.043472 295.089176 
L 250.176011 295.255966 
L 250.441089 295.175326 
L 250.639898 295.163444 
L 250.838706 295.131207 
L 251.435132 295.144744 
L 251.567671 295.119457 
L 251.899019 295.361297 
L 252.362906 294.800215 
L 252.893062 295.371359 
L 253.158141 295.369565 
L 254.019645 295.358741 
L 254.284723 295.297576 
L 254.549801 295.365768 
L 256.670427 295.402762 
L 257.465662 295.436153 
L 260.977948 295.432022 
L 261.176757 295.38503 
L 261.441835 295.419765 
L 263.164843 295.463253 
L 263.761269 295.426643 
L 264.423965 295.437664 
L 268.13506 295.432398 
L 268.267599 295.39578 
L 268.930294 295.455105 
L 270.056877 295.473704 
L 270.587033 295.418161 
L 270.719572 295.350932 
L 270.918381 295.333548 
L 272.243772 295.377871 
L 272.50885 295.392041 
L 273.569163 295.343289 
L 273.701702 295.253115 
L 273.767972 295.408222 
L 273.834241 295.289767 
L 274.03305 295.153402 
L 274.231859 295.13589 
L 274.364398 294.995514 
L 274.563207 294.745456 
L 274.629476 294.891957 
L 274.695746 294.777365 
L 274.762015 294.906481 
L 274.828285 294.862832 
L 274.894554 294.82886 
L 274.960824 294.992922 
L 275.027093 294.957473 
L 275.689789 295.343702 
L 275.954867 295.251357 
L 276.021137 295.243576 
L 276.153676 295.066681 
L 276.286215 295.101679 
L 276.485024 295.12791 
L 276.617563 295.206526 
L 276.882641 295.097672 
L 277.01518 295.176921 
L 277.213989 294.35778 
L 277.280258 294.000132 
L 277.346528 294.066154 
L 277.479067 294.587356 
L 277.545337 294.406149 
L 277.677876 293.836081 
L 277.810415 294.463377 
L 277.876684 285.203127 
L 277.942954 286.800844 
L 278.141763 292.670866 
L 278.340571 294.843694 
L 278.406841 294.963642 
L 278.671919 294.644982 
L 279.268345 295.386941 
L 279.533423 295.425911 
L 280.593736 295.376196 
L 280.858814 295.313159 
L 281.322701 295.298858 
L 281.720318 295.298463 
L 282.581823 295.421884 
L 285.100066 295.448233 
L 285.298874 295.439548 
L 286.027839 295.437286 
L 287.552039 295.439268 
L 287.883387 295.47664 
L 288.546083 295.456021 
L 289.407587 295.454426 
L 293.052412 295.456681 
L 293.781377 295.481979 
L 294.377803 295.475261 
L 294.84169 295.469513 
L 294.90796 295.369698 
L 294.974229 295.450889 
L 296.763507 295.425883 
L 297.094855 295.446739 
L 297.82382 295.444749 
L 299.679368 295.446106 
L 300.275794 295.43971 
L 301.203567 295.413631 
L 301.866263 295.40745 
L 302.065072 295.358031 
L 302.860306 295.346271 
L 303.986889 295.15979 
L 304.053158 295.057112 
L 304.119428 295.133189 
L 304.318236 295.219805 
L 304.583315 295.23418 
L 304.715854 295.390168 
L 305.047201 295.191836 
L 305.24601 294.994776 
L 305.974975 295.453473 
L 306.306323 294.974893 
L 306.438862 294.232468 
L 306.571401 294.037713 
L 306.637671 294.29219 
L 306.70394 294.253894 
L 306.902749 293.355774 
L 306.969019 293.594545 
L 307.035288 278.085848 
L 307.101558 284.87259 
L 307.366636 293.001092 
L 307.631714 294.814311 
L 307.697984 294.541221 
L 307.764253 294.719886 
L 307.830523 294.626689 
L 307.896792 294.695753 
L 308.029331 294.765887 
L 308.29441 295.415646 
L 308.360679 295.336364 
L 308.493218 295.350774 
L 308.625757 295.400987 
L 309.023375 295.331087 
L 309.619801 295.334175 
L 310.481305 295.319703 
L 310.613844 295.205391 
L 311.342809 295.420639 
L 311.674157 295.397369 
L 321.61459 295.444969 
L 321.879668 295.461313 
L 322.476094 295.458366 
L 328.639163 295.445672 
L 329.368128 295.450645 
L 331.223675 295.324567 
L 331.422484 295.346797 
L 331.753832 295.347978 
L 332.151449 295.344849 
L 332.416527 295.327086 
L 332.615336 295.31093 
L 332.814145 295.217446 
L 332.946684 295.229489 
L 333.079223 294.881105 
L 333.211762 295.133969 
L 333.278032 295.080151 
L 333.47684 295.263521 
L 334.073266 295.367816 
L 334.404614 295.167373 
L 334.537153 295.311693 
L 334.868501 295.268195 
L 335.398657 295.370503 
L 335.730005 294.736079 
L 335.862544 294.78376 
L 336.127622 293.639594 
L 336.193892 283.713482 
L 336.326431 291.756359 
L 336.724048 295.073292 
L 336.856587 295.228295 
L 337.254205 295.018196 
L 337.585553 295.372296 
L 337.784361 295.403408 
L 337.98317 295.420241 
L 338.513326 295.440211 
L 338.778404 295.401687 
L 339.043483 295.363075 
L 339.838717 295.262718 
L 339.971256 295.246116 
L 340.501413 295.440544 
L 340.832761 295.428728 
L 343.483543 295.446627 
L 343.88116 295.46157 
L 345.537899 295.457587 
L 347.724794 295.454095 
L 348.917646 295.462503 
L 351.502159 295.473363 
L 362.039018 295.304787 
L 362.370366 295.164861 
L 362.569174 295.225708 
L 362.767983 295.327807 
L 363.033061 295.400287 
L 363.23187 295.400293 
L 364.093374 295.388911 
L 364.490991 295.459497 
L 364.6898 295.219103 
L 364.888609 294.928185 
L 365.087417 295.082833 
L 365.286226 294.00845 
L 365.352496 289.164488 
L 365.418765 293.793225 
L 365.485035 293.544429 
L 365.551304 293.675986 
L 365.617574 293.276616 
L 365.948922 295.002627 
L 366.081461 295.11399 
L 366.280269 294.990387 
L 366.412809 295.139281 
L 366.545348 295.2349 
L 366.677887 295.468429 
L 366.876695 295.416118 
L 367.075504 295.456286 
L 369.394938 295.345709 
L 369.792556 295.397486 
L 379.931798 295.471348 
L 381.12465 295.460011 
L 387.02264 295.464704 
L 387.619066 295.445376 
L 388.348031 295.450582 
L 389.076996 295.452881 
L 389.805961 295.419478 
L 390.402387 295.433411 
L 391.197622 295.224332 
L 391.39643 295.123878 
L 391.52897 295.160054 
L 391.926587 295.313746 
L 392.456743 295.40573 
L 393.318248 295.378911 
L 393.782134 295.411314 
L 394.312291 294.782958 
L 394.44483 293.710352 
L 394.511099 289.253071 
L 394.577369 294.278229 
L 394.643639 294.137325 
L 394.842447 294.502435 
L 395.173795 295.099389 
L 395.306334 295.187925 
L 395.505143 294.975366 
L 395.90276 295.458471 
L 396.101569 295.433801 
L 396.499186 295.469832 
L 397.758308 295.382011 
L 397.957116 295.389439 
L 398.354734 295.266334 
L 398.487273 295.328269 
L 398.487273 295.328269 
" clip-path="url(#pab8eac324b)" style="fill: none; stroke: #1f77b4; stroke-width: 1.5; stroke-linecap: square"/>
   </g>
   <g id="patch_3">
    <path d="M 57.6 307.584 
L 57.6 41.472 
" style="fill: none; stroke: #000000; stroke-width: 0.8; stroke-linejoin: miter; stroke-linecap: square"/>
   </g>
   <g id="patch_4">
    <path d="M 414.72 307.584 
L 414.72 41.472 
" style="fill: none; stroke: #000000; stroke-width: 0.8; stroke-linejoin: miter; stroke-linecap: square"/>
   </g>
   <g id="patch_5">
    <path d="M 57.6 307.584 
L 414.72 307.584 
" style="fill: none; stroke: #000000; stroke-width: 0.8; stroke-linejoin: miter; stroke-linecap: square"/>
   </g>
   <g id="patch_6">
    <path d="M 57.6 41.472 
L 414.72 41.472 
" style="fill: none; stroke: #000000; stroke-width: 0.8; stroke-linejoin: miter; stroke-linecap: square"/>
   </g>
   <g id="text_17">
    <text style="font: 12px 'IPAexGothic'; text-anchor: middle" x="236.16" y="35.472" transform="rotate(-0 236.16 35.472)">"058_A4.wav"の振幅スペクトル</text>
   </g>
  </g>
 </g>
 <defs>
  <clipPath id="pab8eac324b">
   <rect x="57.6" y="41.472" width="357.12" height="266.112"/>
  </clipPath>
 </defs>
</svg>
