<?xml version="1.0" encoding="utf-8" standalone="no"?>
<!DOCTYPE svg PUBLIC "-//W3C//DTD SVG 1.1//EN"
  "http://www.w3.org/Graphics/SVG/1.1/DTD/svg11.dtd">
<svg xmlns:xlink="http://www.w3.org/1999/xlink" width="460.8pt" height="345.6pt" viewBox="0 0 460.8 345.6" xmlns="http://www.w3.org/2000/svg" version="1.1">
 <metadata>
  <rdf:RDF xmlns:dc="http://purl.org/dc/elements/1.1/" xmlns:cc="http://creativecommons.org/ns#" xmlns:rdf="http://www.w3.org/1999/02/22-rdf-syntax-ns#">
   <cc:Work>
    <dc:type rdf:resource="http://purl.org/dc/dcmitype/StillImage"/>
    <dc:date>2022-11-28T12:41:45.219538</dc:date>
    <dc:format>image/svg+xml</dc:format>
    <dc:creator>
     <cc:Agent>
      <dc:title>Matplotlib v3.6.2, https://matplotlib.org/</dc:title>
     </cc:Agent>
    </dc:creator>
   </cc:Work>
  </rdf:RDF>
 </metadata>
 <defs>
  <style type="text/css">*{stroke-linejoin: round; stroke-linecap: butt}</style>
 </defs>
 <g id="figure_1">
  <g id="patch_1">
   <path d="M 0 345.6 
L 460.8 345.6 
L 460.8 0 
L 0 0 
z
" style="fill: #ffffff"/>
  </g>
  <g id="axes_1">
   <g id="patch_2">
    <path d="M 57.6 307.584 
L 414.72 307.584 
L 414.72 41.472 
L 57.6 41.472 
z
" style="fill: #ffffff"/>
   </g>
   <g id="matplotlib.axis_1">
    <g id="xtick_1">
     <g id="line2d_1">
      <defs>
       <path id="m884bfc9f44" d="M 0 0 
L 0 3.5 
" style="stroke: #000000; stroke-width: 0.8"/>
      </defs>
      <g>
       <use xlink:href="#m884bfc9f44" x="73.832727" y="307.584" style="stroke: #000000; stroke-width: 0.8"/>
      </g>
     </g>
     <g id="text_1">
      <text style="font: 10px 'IPAexGothic'; text-anchor: middle" x="73.832727" y="322.074625" transform="rotate(-0 73.832727 322.074625)">0</text>
     </g>
    </g>
    <g id="xtick_2">
     <g id="line2d_2">
      <g>
       <use xlink:href="#m884bfc9f44" x="140.102281" y="307.584" style="stroke: #000000; stroke-width: 0.8"/>
      </g>
     </g>
     <g id="text_2">
      <text style="font: 10px 'IPAexGothic'; text-anchor: middle" x="140.102281" y="322.074625" transform="rotate(-0 140.102281 322.074625)">1000</text>
     </g>
    </g>
    <g id="xtick_3">
     <g id="line2d_3">
      <g>
       <use xlink:href="#m884bfc9f44" x="206.371835" y="307.584" style="stroke: #000000; stroke-width: 0.8"/>
      </g>
     </g>
     <g id="text_3">
      <text style="font: 10px 'IPAexGothic'; text-anchor: middle" x="206.371835" y="322.074625" transform="rotate(-0 206.371835 322.074625)">2000</text>
     </g>
    </g>
    <g id="xtick_4">
     <g id="line2d_4">
      <g>
       <use xlink:href="#m884bfc9f44" x="272.64139" y="307.584" style="stroke: #000000; stroke-width: 0.8"/>
      </g>
     </g>
     <g id="text_4">
      <text style="font: 10px 'IPAexGothic'; text-anchor: middle" x="272.64139" y="322.074625" transform="rotate(-0 272.64139 322.074625)">3000</text>
     </g>
    </g>
    <g id="xtick_5">
     <g id="line2d_5">
      <g>
       <use xlink:href="#m884bfc9f44" x="338.910944" y="307.584" style="stroke: #000000; stroke-width: 0.8"/>
      </g>
     </g>
     <g id="text_5">
      <text style="font: 10px 'IPAexGothic'; text-anchor: middle" x="338.910944" y="322.074625" transform="rotate(-0 338.910944 322.074625)">4000</text>
     </g>
    </g>
    <g id="xtick_6">
     <g id="line2d_6">
      <g>
       <use xlink:href="#m884bfc9f44" x="405.180498" y="307.584" style="stroke: #000000; stroke-width: 0.8"/>
      </g>
     </g>
     <g id="text_6">
      <text style="font: 10px 'IPAexGothic'; text-anchor: middle" x="405.180498" y="322.074625" transform="rotate(-0 405.180498 322.074625)">5000</text>
     </g>
    </g>
    <g id="text_7">
     <text style="font: 10px 'IPAexGothic'; text-anchor: middle" x="236.16" y="335.924625" transform="rotate(-0 236.16 335.924625)">周波数[Hz]</text>
    </g>
   </g>
   <g id="matplotlib.axis_2">
    <g id="ytick_1">
     <g id="line2d_7">
      <defs>
       <path id="mce4ebe9097" d="M 0 0 
L -3.5 0 
" style="stroke: #000000; stroke-width: 0.8"/>
      </defs>
      <g>
       <use xlink:href="#mce4ebe9097" x="57.6" y="295.488912" style="stroke: #000000; stroke-width: 0.8"/>
      </g>
     </g>
     <g id="text_8">
      <text style="font: 10px 'IPAexGothic'; text-anchor: end" x="50.6" y="299.234224" transform="rotate(-0 50.6 299.234224)">0</text>
     </g>
    </g>
    <g id="ytick_2">
     <g id="line2d_8">
      <g>
       <use xlink:href="#mce4ebe9097" x="57.6" y="257.152272" style="stroke: #000000; stroke-width: 0.8"/>
      </g>
     </g>
     <g id="text_9">
      <text style="font: 10px 'IPAexGothic'; text-anchor: end" x="50.6" y="260.897585" transform="rotate(-0 50.6 260.897585)">1</text>
     </g>
    </g>
    <g id="ytick_3">
     <g id="line2d_9">
      <g>
       <use xlink:href="#mce4ebe9097" x="57.6" y="218.815632" style="stroke: #000000; stroke-width: 0.8"/>
      </g>
     </g>
     <g id="text_10">
      <text style="font: 10px 'IPAexGothic'; text-anchor: end" x="50.6" y="222.560945" transform="rotate(-0 50.6 222.560945)">2</text>
     </g>
    </g>
    <g id="ytick_4">
     <g id="line2d_10">
      <g>
       <use xlink:href="#mce4ebe9097" x="57.6" y="180.478992" style="stroke: #000000; stroke-width: 0.8"/>
      </g>
     </g>
     <g id="text_11">
      <text style="font: 10px 'IPAexGothic'; text-anchor: end" x="50.6" y="184.224305" transform="rotate(-0 50.6 184.224305)">3</text>
     </g>
    </g>
    <g id="ytick_5">
     <g id="line2d_11">
      <g>
       <use xlink:href="#mce4ebe9097" x="57.6" y="142.142353" style="stroke: #000000; stroke-width: 0.8"/>
      </g>
     </g>
     <g id="text_12">
      <text style="font: 10px 'IPAexGothic'; text-anchor: end" x="50.6" y="145.887665" transform="rotate(-0 50.6 145.887665)">4</text>
     </g>
    </g>
    <g id="ytick_6">
     <g id="line2d_12">
      <g>
       <use xlink:href="#mce4ebe9097" x="57.6" y="103.805713" style="stroke: #000000; stroke-width: 0.8"/>
      </g>
     </g>
     <g id="text_13">
      <text style="font: 10px 'IPAexGothic'; text-anchor: end" x="50.6" y="107.551025" transform="rotate(-0 50.6 107.551025)">5</text>
     </g>
    </g>
    <g id="ytick_7">
     <g id="line2d_13">
      <g>
       <use xlink:href="#mce4ebe9097" x="57.6" y="65.469073" style="stroke: #000000; stroke-width: 0.8"/>
      </g>
     </g>
     <g id="text_14">
      <text style="font: 10px 'IPAexGothic'; text-anchor: end" x="50.6" y="69.214386" transform="rotate(-0 50.6 69.214386)">6</text>
     </g>
    </g>
    <g id="text_15">
     <text style="font: 10px 'IPAexGothic'; text-anchor: middle" x="38.401563" y="174.528" transform="rotate(-90 38.401563 174.528)">振幅</text>
    </g>
    <g id="text_16">
     <text style="font: 10px 'IPAexGothic'; text-anchor: start" x="57.6" y="38.472" transform="rotate(-0 57.6 38.472)">1e6</text>
    </g>
   </g>
   <g id="line2d_14">
    <path d="M 73.832727 53.568 
L 73.965266 279.062422 
L 74.164075 290.249231 
L 74.362884 291.540666 
L 74.694231 293.701816 
L 74.826771 293.929991 
L 75.025579 293.732458 
L 75.091849 293.449791 
L 75.158118 293.507102 
L 75.489466 294.727399 
L 75.555736 294.483783 
L 75.754544 294.801928 
L 75.953353 294.435045 
L 76.085892 294.648813 
L 76.218431 293.734474 
L 76.35097 294.738689 
L 76.41724 294.670854 
L 76.549779 294.879297 
L 76.616049 294.746336 
L 76.682318 294.910746 
L 76.748588 294.880018 
L 76.881127 294.910333 
L 77.079935 294.973147 
L 77.146205 294.776494 
L 77.212475 294.907884 
L 77.345014 294.95575 
L 77.411283 294.867798 
L 77.477553 294.937613 
L 77.94144 295.098434 
L 78.007709 295.055913 
L 78.073979 295.221527 
L 78.206518 294.820514 
L 78.272787 294.948028 
L 78.339057 295.171853 
L 78.405327 295.074135 
L 78.471596 295.179911 
L 78.537866 294.665157 
L 78.604135 295.108546 
L 78.670405 295.051868 
L 79.266831 295.220337 
L 79.39937 295.111975 
L 79.465639 295.263475 
L 79.531909 295.033942 
L 79.598178 295.160562 
L 79.863257 295.168974 
L 80.128335 295.089391 
L 80.393413 295.050608 
L 80.525952 294.95733 
L 80.724761 294.982809 
L 80.79103 294.878072 
L 80.8573 295.088156 
L 80.989839 294.87055 
L 81.122378 295.040562 
L 81.321187 294.950033 
L 81.851343 294.896307 
L 81.983882 294.805957 
L 82.050152 294.720147 
L 82.182691 294.950425 
L 82.248961 294.883195 
L 82.31523 294.733666 
L 82.447769 294.910484 
L 82.514039 294.812403 
L 82.580308 294.873177 
L 82.845387 294.956961 
L 83.110465 295.094023 
L 83.309274 294.850555 
L 83.375543 295.277703 
L 83.441813 295.127278 
L 83.574352 295.005429 
L 83.640621 295.024655 
L 83.706891 295.207768 
L 83.77316 295.08551 
L 84.170778 295.285526 
L 84.303317 294.943979 
L 84.502125 295.15707 
L 84.966012 295.273854 
L 85.098551 295.062346 
L 85.231091 295.205078 
L 85.36363 295.04824 
L 85.496169 295.246425 
L 85.628708 294.986987 
L 85.893786 295.068785 
L 86.291403 295.071408 
L 86.357673 295.115643 
L 86.423943 294.933219 
L 86.490212 294.960226 
L 86.556482 295.106103 
L 86.622751 294.997787 
L 86.82156 294.940214 
L 86.954099 295.046832 
L 87.086638 294.791669 
L 87.351716 294.957259 
L 87.417986 294.792419 
L 87.484255 294.887797 
L 87.616795 294.951115 
L 87.815603 294.841328 
L 87.881873 295.000113 
L 87.948142 294.717501 
L 88.014412 294.840718 
L 88.146951 294.940478 
L 88.34576 294.74642 
L 88.544568 294.876599 
L 88.743377 294.696494 
L 88.809646 294.8891 
L 88.875916 294.773492 
L 88.942186 294.602455 
L 89.008455 294.779922 
L 89.207264 294.438443 
L 89.339803 294.835358 
L 89.406072 294.688529 
L 89.472342 294.194232 
L 89.538612 294.260616 
L 89.73742 294.730833 
L 89.80369 294.730479 
L 89.869959 294.312063 
L 89.936229 294.520165 
L 90.002498 294.67902 
L 90.135038 293.897897 
L 90.201307 294.968631 
L 90.267577 294.450151 
L 90.333846 294.89627 
L 90.400116 294.845297 
L 90.532655 294.985386 
L 90.598924 294.775385 
L 90.665194 294.811306 
L 90.731464 294.879334 
L 90.797733 294.421024 
L 90.930272 295.136136 
L 90.996542 294.952548 
L 91.062811 295.079112 
L 91.129081 295.01633 
L 91.19535 294.948467 
L 91.26162 295.077902 
L 91.32789 294.996013 
L 91.394159 294.78075 
L 91.460429 295.169922 
L 91.659237 294.255828 
L 91.791776 295.159149 
L 91.858046 294.878749 
L 91.990585 295.13539 
L 92.056855 295.049781 
L 92.123124 295.135237 
L 92.189394 295.060447 
L 92.255663 294.986127 
L 92.321933 295.186212 
L 92.388202 294.956662 
L 92.454472 295.019482 
L 92.520742 295.006371 
L 92.587011 295.284625 
L 92.653281 295.028651 
L 92.71955 295.091448 
L 92.984628 294.997525 
L 93.050898 295.124758 
L 93.117168 295.083225 
L 93.249707 295.155817 
L 93.382246 294.888756 
L 93.581054 295.160934 
L 93.647324 295.162948 
L 93.779863 294.968254 
L 93.978672 295.054955 
L 94.24375 295.131879 
L 94.310019 295.019297 
L 94.442559 295.133631 
L 94.707637 294.945077 
L 94.773906 295.262877 
L 94.840176 294.091227 
L 94.906445 294.127355 
L 95.038985 295.234957 
L 95.237793 295.390845 
L 95.304063 295.254063 
L 95.370332 295.333566 
L 95.436602 295.34804 
L 95.502871 295.192306 
L 95.569141 295.245676 
L 95.76795 295.333746 
L 96.099297 295.30798 
L 96.165567 295.387825 
L 96.298106 295.290766 
L 96.496915 295.378775 
L 96.828263 295.275389 
L 96.894532 295.365376 
L 97.15961 294.390499 
L 97.22588 293.162011 
L 97.424689 295.171639 
L 97.490958 295.078875 
L 97.557228 295.347219 
L 97.623497 295.192279 
L 97.954845 295.321102 
L 98.153654 295.268317 
L 98.219923 295.250818 
L 98.286193 295.373181 
L 98.352462 295.271406 
L 98.68381 295.341649 
L 98.816349 295.291748 
L 99.081427 295.366464 
L 99.147697 295.332895 
L 99.213966 295.448588 
L 99.280236 295.371558 
L 99.412775 295.375543 
L 99.479045 295.373108 
L 99.611584 294.334679 
L 99.677853 295.345413 
L 99.744123 295.165984 
L 99.810392 295.190041 
L 99.876662 295.377024 
L 99.942932 295.238485 
L 100.804436 295.39155 
L 100.936975 295.396578 
L 101.135784 295.482107 
L 101.334592 295.441135 
L 101.533401 295.437842 
L 101.798479 295.47385 
L 101.931018 295.334606 
L 102.129827 295.484988 
L 102.394905 295.351594 
L 102.593714 295.377683 
L 102.991331 295.288727 
L 103.388948 295.420999 
L 103.587757 295.320306 
L 103.786566 295.32557 
L 103.985374 295.28283 
L 104.117913 295.334381 
L 104.250453 295.127829 
L 104.382992 295.35424 
L 104.515531 295.348132 
L 104.64807 295.270983 
L 105.045687 295.330935 
L 105.244496 295.276309 
L 105.575844 295.321966 
L 105.840922 295.335752 
L 106.371078 295.362132 
L 106.569887 295.395366 
L 106.636157 295.30592 
L 106.702426 295.365376 
L 113.329382 295.432416 
L 113.660729 295.236323 
L 113.793268 295.39278 
L 114.257155 295.413813 
L 115.05239 295.401266 
L 115.317468 295.40584 
L 115.781355 295.327003 
L 115.847625 295.359748 
L 115.913894 295.041151 
L 115.980164 295.204695 
L 116.112703 295.443032 
L 116.377781 295.376303 
L 116.709129 295.384088 
L 116.974207 295.372931 
L 117.106746 295.369075 
L 117.570633 295.357864 
L 117.703172 295.282122 
L 117.769442 295.342584 
L 117.901981 295.291952 
L 117.96825 295.345038 
L 118.100789 295.161482 
L 118.167059 295.283702 
L 118.299598 293.583744 
L 118.432137 295.071832 
L 118.498407 295.424162 
L 118.564676 295.398903 
L 118.697215 295.421624 
L 118.962294 295.460096 
L 119.094833 295.413447 
L 119.293641 295.449099 
L 119.49245 295.433067 
L 119.890067 295.452135 
L 120.022606 295.43931 
L 120.420224 295.449217 
L 120.619032 294.30721 
L 120.817841 295.384748 
L 121.082919 295.441998 
L 121.745615 295.464255 
L 122.076963 295.419613 
L 122.40831 295.425691 
L 122.805928 295.233181 
L 122.872197 295.448412 
L 122.938467 294.6811 
L 123.004736 294.777767 
L 123.071006 295.451191 
L 123.137276 295.315094 
L 123.269815 295.418763 
L 123.866241 295.432855 
L 124.065049 295.437856 
L 124.727745 295.42682 
L 125.191632 295.466415 
L 125.324171 295.224673 
L 125.522979 295.445516 
L 125.788058 295.432288 
L 127.312257 295.41353 
L 127.577336 295.399605 
L 127.643605 295.168911 
L 127.842414 295.441007 
L 128.37257 295.410492 
L 129.101535 295.41861 
L 129.697961 295.410762 
L 129.96304 295.410519 
L 130.294387 295.415611 
L 130.957083 295.443544 
L 131.288431 295.445278 
L 132.149935 295.435452 
L 134.601908 295.424021 
L 134.734447 295.366648 
L 134.933256 295.415752 
L 139.240777 295.396505 
L 139.373316 295.035206 
L 139.439586 295.468666 
L 139.505855 295.393123 
L 139.638394 295.421498 
L 140.036012 295.439988 
L 140.168551 295.398004 
L 140.36736 295.462867 
L 140.566168 295.43558 
L 140.831246 295.362793 
L 141.162594 295.399854 
L 141.427672 295.231328 
L 141.493942 295.422995 
L 141.626481 294.738223 
L 141.692751 293.71342 
L 141.891559 295.425218 
L 141.957829 295.282388 
L 142.024098 295.381656 
L 142.156638 295.419178 
L 142.885603 295.45463 
L 143.150681 295.414616 
L 143.28322 295.398512 
L 143.813376 295.408815 
L 144.012185 294.331285 
L 144.078455 294.690261 
L 144.210994 295.418239 
L 144.343533 295.429836 
L 144.80742 295.470181 
L 145.072498 295.425881 
L 145.337576 295.467287 
L 145.602654 295.414699 
L 145.934002 295.440302 
L 146.19908 295.279295 
L 146.26535 295.432714 
L 146.397889 294.637415 
L 146.464159 295.394364 
L 146.530428 295.338179 
L 146.729237 295.428625 
L 147.458202 295.4677 
L 147.72328 295.414187 
L 147.988358 295.441232 
L 148.651054 295.281919 
L 148.717323 295.174384 
L 148.849862 295.452828 
L 150.970488 295.463939 
L 151.036758 295.277574 
L 151.103027 295.37452 
L 151.368106 295.458057 
L 152.494688 295.465643 
L 153.024844 295.437036 
L 153.952618 295.472122 
L 154.416505 295.43568 
L 155.278009 295.449685 
L 155.543087 295.462975 
L 156.404592 295.451604 
L 157.464905 295.453488 
L 158.1276 295.402714 
L 158.392678 295.464445 
L 160.314495 295.448077 
L 160.380765 295.213387 
L 160.447034 295.315182 
L 160.579574 295.456401 
L 160.977191 295.466179 
L 162.501391 295.412459 
L 162.63393 295.37213 
L 162.766469 294.842742 
L 162.832738 295.409332 
L 162.899008 295.33653 
L 163.031547 295.397731 
L 163.097817 295.310261 
L 163.230356 295.414349 
L 163.429164 295.387911 
L 164.09186 295.330246 
L 164.224399 295.354514 
L 164.887095 295.338861 
L 164.953364 295.12846 
L 165.085903 293.546084 
L 165.284712 295.374956 
L 165.350981 295.232394 
L 165.483521 295.383641 
L 165.54979 295.325899 
L 165.61606 295.433074 
L 165.682329 295.372672 
L 165.748599 295.351302 
L 165.881138 295.428689 
L 166.345025 295.424065 
L 166.808912 295.398498 
L 167.07399 295.338613 
L 167.140259 295.453824 
L 167.272799 295.167139 
L 167.339068 295.3193 
L 167.405338 294.074281 
L 167.471607 294.418691 
L 167.604146 295.327137 
L 167.670416 295.230932 
L 167.736685 295.402931 
L 167.802955 295.358178 
L 168.068033 295.377558 
L 168.200572 295.397348 
L 169.525963 295.357192 
L 169.592233 295.333296 
L 169.658502 295.431387 
L 169.791042 294.731561 
L 169.857311 295.39107 
L 169.923581 295.337857 
L 170.122389 295.43882 
L 170.785085 295.462712 
L 171.050163 295.460799 
L 171.845398 295.435894 
L 172.044206 295.44355 
L 172.110476 295.212159 
L 172.176746 295.366128 
L 172.97198 295.41258 
L 174.032293 295.416603 
L 174.297371 295.444724 
L 174.49618 295.238664 
L 174.694989 295.391644 
L 175.026336 295.397968 
L 176.749345 295.392488 
L 176.815614 295.29903 
L 176.948153 295.441572 
L 177.544579 295.419223 
L 177.875927 295.347732 
L 178.008466 295.367815 
L 178.207275 295.371832 
L 178.604892 295.396541 
L 179.068779 295.422664 
L 179.135049 295.316849 
L 179.201318 295.419215 
L 180.39417 295.459675 
L 180.659248 295.460991 
L 180.990596 295.410252 
L 181.255674 295.435829 
L 182.315987 295.355353 
L 182.448526 295.433604 
L 182.779874 295.332401 
L 183.707648 295.359506 
L 183.773917 295.134836 
L 183.840187 295.224461 
L 184.038996 295.398974 
L 184.436613 295.388453 
L 185.496926 295.379125 
L 185.563195 295.283744 
L 185.629465 295.366131 
L 185.828274 295.400039 
L 186.027082 295.328689 
L 186.159621 294.763429 
L 186.292161 295.414301 
L 186.35843 295.347565 
L 186.4247 295.441661 
L 186.490969 295.353555 
L 186.557239 295.279132 
L 186.623508 295.368275 
L 186.756047 295.285957 
L 186.822317 295.374065 
L 186.888587 295.302029 
L 187.219934 295.249928 
L 187.286204 295.117227 
L 187.352473 295.251965 
L 187.418743 295.193688 
L 187.485013 295.159264 
L 187.617552 295.262126 
L 187.683821 295.134763 
L 187.750091 295.243016 
L 187.81636 295.301764 
L 187.88263 295.057802 
L 187.948899 295.278959 
L 188.015169 295.176864 
L 188.081439 295.142148 
L 188.147708 295.293721 
L 188.213978 295.03 
L 188.280247 295.155867 
L 188.346517 295.069813 
L 188.479056 293.519013 
L 188.545325 294.094526 
L 188.611595 295.135541 
L 188.677864 294.909853 
L 188.810404 295.129523 
L 188.876673 294.991214 
L 188.942943 294.94396 
L 189.009212 295.102182 
L 189.075482 295.020888 
L 189.141751 295.089958 
L 189.34056 294.597897 
L 189.539369 294.920085 
L 189.671908 294.488575 
L 189.738177 294.607464 
L 189.804447 294.634774 
L 189.870716 294.806491 
L 189.936986 294.75308 
L 190.400873 293.610303 
L 190.467142 293.322305 
L 190.599682 292.078064 
L 190.732221 295.036936 
L 190.79849 291.500382 
L 190.86476 292.465167 
L 190.931029 294.96842 
L 190.997299 294.857456 
L 191.129838 295.269572 
L 191.196108 295.19519 
L 191.328647 295.225774 
L 191.461186 295.306308 
L 191.659994 295.198877 
L 191.858803 295.290131 
L 192.057612 295.304246 
L 192.25642 295.315113 
L 192.786577 295.27577 
L 192.919116 295.297783 
L 192.985386 295.231669 
L 193.051655 295.341672 
L 193.184194 294.963217 
L 193.383003 295.372659 
L 193.449272 295.244985 
L 193.515542 295.355684 
L 194.443316 295.272005 
L 194.708394 295.212763 
L 195.23855 295.231913 
L 195.30482 295.155234 
L 195.503629 295.290192 
L 195.569898 295.157614 
L 195.636168 295.284419 
L 195.702437 295.201259 
L 195.834976 295.209528 
L 197.425446 295.272553 
L 197.690524 295.268749 
L 197.756793 295.247255 
L 197.823063 295.350321 
L 197.889333 295.273328 
L 198.22068 295.336578 
L 198.552028 295.299295 
L 198.684567 295.259198 
L 198.817106 295.15608 
L 198.949645 295.349686 
L 200.142497 295.160166 
L 200.208767 295.259599 
L 200.275036 295.175924 
L 200.540115 295.086274 
L 200.738923 295.253065 
L 200.937732 295.22951 
L 201.20281 295.126662 
L 201.401619 295.270976 
L 201.600428 295.133898 
L 201.732967 295.182482 
L 201.865506 295.247966 
L 201.931775 295.182741 
L 201.998045 295.262748 
L 202.196854 295.238072 
L 203.919862 295.281863 
L 203.986131 295.284798 
L 204.118671 295.005345 
L 204.18494 295.133317 
L 204.317479 295.253517 
L 204.450018 295.151623 
L 204.516288 295.252937 
L 204.648827 295.276455 
L 204.847636 295.185893 
L 205.046444 295.239265 
L 205.245253 295.098339 
L 205.377792 295.285987 
L 205.444062 295.230188 
L 206.305566 295.229031 
L 206.504375 295.219481 
L 207.100801 295.278946 
L 207.23334 295.185775 
L 207.432148 295.238681 
L 207.630957 295.310858 
L 208.161113 295.340342 
L 208.359922 295.382188 
L 208.558731 295.335362 
L 209.287696 295.354784 
L 209.420235 295.327988 
L 209.486504 295.201596 
L 209.552774 294.617399 
L 209.619044 295.208866 
L 209.685313 295.05533 
L 209.817852 295.322817 
L 210.016661 295.311885 
L 210.08293 295.223782 
L 210.1492 295.315136 
L 210.348009 295.41005 
L 210.613087 295.277837 
L 210.878165 295.398297 
L 211.010704 295.194135 
L 211.076974 295.344152 
L 211.143243 295.314786 
L 211.209513 295.165288 
L 211.275782 295.236565 
L 211.474591 295.343564 
L 211.540861 295.123374 
L 211.60713 295.199769 
L 211.6734 295.296811 
L 211.805939 294.716073 
L 211.872208 293.170422 
L 212.071017 295.44696 
L 212.203556 295.334739 
L 212.269826 295.446593 
L 212.336095 295.35232 
L 212.402365 295.30269 
L 212.534904 295.372256 
L 212.799982 295.23592 
L 212.866252 295.37452 
L 212.932521 295.298928 
L 213.06506 295.264847 
L 213.263869 295.34957 
L 213.462678 295.255022 
L 213.528947 295.181839 
L 213.595217 295.376513 
L 213.661486 295.291175 
L 213.727756 295.168274 
L 213.794025 295.31335 
L 213.860295 295.241887 
L 213.992834 295.397698 
L 214.257912 294.259852 
L 214.324182 295.196295 
L 214.390451 295.066547 
L 214.456721 295.283255 
L 214.522991 295.257658 
L 214.58926 295.218365 
L 214.65553 295.335228 
L 214.721799 295.259901 
L 214.986877 295.277489 
L 215.251956 295.352696 
L 215.318225 295.229062 
L 215.384495 295.295918 
L 215.583303 295.333351 
L 215.715843 295.300744 
L 215.848382 295.340821 
L 216.04719 295.320553 
L 216.245999 295.323887 
L 216.444808 295.334907 
L 216.577347 294.567358 
L 216.643616 295.266856 
L 216.709886 295.250372 
L 216.776155 295.38177 
L 216.842425 295.341506 
L 218.830512 295.41006 
L 218.896781 295.219249 
L 219.09559 295.450937 
L 219.360668 295.475322 
L 220.288442 295.474033 
L 230.030066 295.38563 
L 230.228875 295.427927 
L 230.493953 295.404857 
L 230.560223 295.19456 
L 230.626492 295.228062 
L 230.759031 295.463707 
L 231.090379 295.415408 
L 231.355457 295.413699 
L 232.813388 295.359302 
L 232.945927 294.86512 
L 233.078466 295.351107 
L 233.409814 295.455805 
L 233.542353 295.402777 
L 233.741161 295.442824 
L 234.006239 295.381738 
L 234.271318 295.345583 
L 234.403857 295.360778 
L 234.536396 295.373267 
L 234.602665 295.306159 
L 234.668935 295.387811 
L 234.801474 295.22825 
L 234.867744 295.380234 
L 235.000283 295.171127 
L 235.066552 295.334582 
L 235.199091 294.771524 
L 235.265361 293.209604 
L 235.331631 293.912769 
L 235.3979 295.327227 
L 235.46417 295.259928 
L 235.928057 295.462943 
L 236.060596 295.41427 
L 236.259404 295.476124 
L 236.391943 295.403229 
L 236.524483 295.411974 
L 237.385987 295.421059 
L 237.452256 295.298268 
L 237.518526 295.427855 
L 237.651065 294.785778 
L 237.717335 295.380362 
L 237.783604 295.298018 
L 237.849874 295.441994 
L 237.916143 295.395659 
L 238.114952 295.411181 
L 238.4463 295.453714 
L 238.777647 295.45489 
L 239.440343 295.426206 
L 239.639152 295.446788 
L 239.83796 295.399896 
L 239.970499 295.037899 
L 240.169308 295.476513 
L 240.301847 295.434258 
L 241.42843 295.487341 
L 241.627238 295.446355 
L 241.826047 295.48489 
L 242.223664 295.379285 
L 242.289934 295.108928 
L 242.356203 295.264801 
L 242.488742 295.453561 
L 242.952629 295.454943 
L 243.946673 295.483248 
L 244.145481 295.468823 
L 244.543099 295.45672 
L 244.675638 295.313694 
L 244.808177 295.4229 
L 245.735951 295.440245 
L 245.934759 295.442983 
L 247.922846 295.427145 
L 248.121655 295.406024 
L 249.181967 295.437994 
L 249.579585 295.454405 
L 250.30855 295.425417 
L 250.904976 295.452578 
L 251.368863 295.421772 
L 251.633941 295.446598 
L 252.296636 295.473867 
L 252.561715 295.455766 
L 253.423219 295.479666 
L 253.622028 295.449241 
L 253.887106 295.471327 
L 254.019645 295.298148 
L 254.218453 295.431552 
L 254.483532 295.411533 
L 254.74861 295.425245 
L 256.20654 295.317405 
L 256.339079 294.872887 
L 256.537888 295.425019 
L 256.670427 295.431915 
L 257.001775 295.425166 
L 257.266853 295.401394 
L 257.399392 295.404734 
L 258.459705 295.307364 
L 258.525975 295.035787 
L 258.592244 295.186169 
L 258.658514 293.815732 
L 258.724783 294.111328 
L 258.791053 295.353702 
L 258.857322 295.181904 
L 259.1224 295.418865 
L 259.321209 295.438939 
L 259.983905 295.484186 
L 260.116444 295.396103 
L 260.248983 295.424848 
L 260.580331 295.401801 
L 260.6466 295.36106 
L 260.71287 295.471629 
L 260.845409 295.247157 
L 260.911678 295.408566 
L 261.044218 294.052723 
L 261.110487 295.163768 
L 261.176757 295.133957 
L 261.309296 295.409775 
L 262.502148 295.457691 
L 262.767226 295.447699 
L 263.231113 295.394736 
L 263.363652 294.804911 
L 263.562461 295.461233 
L 263.695 295.437087 
L 263.893808 295.450498 
L 264.291426 295.476217 
L 264.556504 295.422961 
L 265.616817 295.443553 
L 265.683086 295.259789 
L 265.749356 295.355754 
L 265.948165 295.431873 
L 266.61086 295.40332 
L 267.141017 295.423252 
L 267.671173 295.385948 
L 267.803712 295.426349 
L 268.06879 295.335023 
L 268.201329 295.41555 
L 268.400138 295.380537 
L 268.665216 295.42309 
L 269.062834 295.385509 
L 269.394181 295.411886 
L 269.59299 295.420558 
L 270.321955 295.479608 
L 270.454494 295.391088 
L 277.280258 295.445663 
L 277.412797 295.204577 
L 277.611606 295.436159 
L 277.876684 295.440751 
L 278.406841 295.407057 
L 279.533423 295.326919 
L 279.665962 295.223047 
L 279.732232 294.609813 
L 279.864771 295.218766 
L 279.99731 295.325418 
L 280.06358 295.271278 
L 280.129849 295.368731 
L 280.196119 295.321284 
L 281.388971 295.304742 
L 281.45524 295.415613 
L 281.52151 295.34109 
L 281.587779 295.226194 
L 281.654049 295.412735 
L 281.720318 295.287174 
L 281.852858 295.314387 
L 281.919127 295.052898 
L 281.985397 295.262618 
L 282.051666 293.718952 
L 282.117936 293.821316 
L 282.184205 295.341105 
L 282.250475 295.11245 
L 282.383014 295.404291 
L 282.449284 295.307341 
L 282.515553 295.438224 
L 282.648092 295.25905 
L 282.714362 295.450313 
L 282.780631 295.374345 
L 283.111979 295.430922 
L 283.244518 295.407079 
L 283.509596 295.420817 
L 283.774675 295.338667 
L 283.907214 295.405221 
L 284.039753 295.448172 
L 284.304831 295.265049 
L 284.43737 294.157446 
L 284.50364 295.217356 
L 284.569909 295.164976 
L 284.702448 295.348863 
L 284.834987 295.358597 
L 285.630222 295.394772 
L 286.094109 295.369394 
L 286.226648 295.36775 
L 286.557996 295.376034 
L 286.756805 294.845752 
L 286.955613 295.435504 
L 287.48577 295.398958 
L 287.949657 295.419922 
L 289.009969 295.431712 
L 289.076239 295.072385 
L 289.142508 295.191113 
L 289.208778 295.450404 
L 289.275048 295.414897 
L 289.672665 295.401185 
L 290.269091 295.331024 
L 290.799247 295.298871 
L 291.130595 295.334867 
L 291.395673 295.436042 
L 291.461943 295.204733 
L 291.528212 295.299564 
L 291.594482 295.220133 
L 291.727021 295.342595 
L 292.058369 295.351746 
L 293.052412 295.398604 
L 293.251221 295.413549 
L 293.45003 295.457743 
L 293.715108 295.442634 
L 293.781377 295.206536 
L 293.847647 295.322088 
L 294.112725 295.299494 
L 294.90796 295.175238 
L 295.106768 295.241271 
L 297.094855 295.182528 
L 297.293664 295.239391 
L 297.558742 295.185068 
L 297.89009 295.28265 
L 298.287707 295.284159 
L 298.353977 295.36326 
L 298.420246 295.205185 
L 298.486516 295.305597 
L 298.751594 295.459118 
L 299.149211 295.390731 
L 299.34802 295.42553 
L 299.679368 295.329365 
L 300.076985 295.285839 
L 300.408333 295.261514 
L 300.474602 295.356773 
L 300.73968 294.972306 
L 300.80595 295.219744 
L 300.87222 295.17871 
L 301.004759 295.214593 
L 301.468646 295.134183 
L 301.799993 294.930068 
L 301.866263 295.147756 
L 301.932532 295.032849 
L 302.065072 294.840487 
L 302.197611 294.950981 
L 302.396419 294.654798 
L 302.528958 294.862697 
L 302.595228 294.759752 
L 302.661498 294.444273 
L 302.727767 294.513877 
L 302.992845 294.437093 
L 303.059115 294.612119 
L 303.125384 293.654298 
L 303.191654 294.405371 
L 303.257924 294.216573 
L 303.324193 294.415906 
L 303.456732 293.888022 
L 303.523002 294.197161 
L 303.589271 294.136501 
L 303.655541 294.212304 
L 303.78808 293.874461 
L 303.920619 293.907096 
L 304.053158 293.249189 
L 304.251967 293.786098 
L 304.384506 292.842392 
L 304.450775 293.067188 
L 304.517045 292.870969 
L 304.583315 293.094918 
L 304.782123 292.036458 
L 304.914662 293.384751 
L 304.980932 292.769209 
L 305.047201 292.306116 
L 305.24601 290.273129 
L 305.31228 289.549307 
L 305.378549 290.180617 
L 305.444819 287.695123 
L 305.511088 293.051106 
L 305.577358 290.647479 
L 305.643627 290.427551 
L 305.776167 286.931453 
L 305.842436 288.049959 
L 305.908706 290.164404 
L 305.974975 288.155884 
L 306.041245 289.06948 
L 306.107514 287.935902 
L 306.173784 284.733979 
L 306.240053 285.483683 
L 306.306323 283.879553 
L 306.372593 278.316365 
L 306.505132 284.796157 
L 306.77021 279.01257 
L 306.836479 281.885928 
L 307.234097 248.203002 
L 307.432905 269.430766 
L 307.565445 256.497818 
L 307.631714 267.497357 
L 307.697984 260.543259 
L 307.830523 173.61019 
L 308.029331 292.875506 
L 308.095601 283.548982 
L 308.161871 285.699697 
L 308.360679 291.973245 
L 308.426949 292.838192 
L 308.493218 291.887521 
L 308.559488 292.402362 
L 308.625757 291.917559 
L 308.692027 292.636297 
L 308.758296 294.87762 
L 308.824566 292.227591 
L 308.890836 292.423069 
L 308.957105 293.628 
L 309.023375 292.803784 
L 309.089644 293.099054 
L 309.155914 293.205806 
L 309.222183 293.022379 
L 309.288453 293.413176 
L 309.354722 293.285938 
L 309.420992 293.224874 
L 309.487262 294.10468 
L 309.619801 292.761075 
L 309.818609 293.816998 
L 309.951148 293.461797 
L 310.017418 293.982267 
L 310.083688 293.968639 
L 310.216227 293.018716 
L 310.282496 293.586502 
L 310.348766 293.472153 
L 310.415035 293.436081 
L 310.481305 293.70113 
L 310.547574 293.466653 
L 310.680114 293.965666 
L 310.746383 293.855911 
L 310.945192 294.219236 
L 311.011461 294.144476 
L 311.077731 293.981415 
L 311.144 294.100467 
L 311.21027 294.125302 
L 311.342809 294.350782 
L 311.607887 294.161637 
L 311.939235 294.654869 
L 312.005505 294.518211 
L 312.071774 294.697815 
L 312.138044 294.61317 
L 312.204313 294.385157 
L 312.270583 295.029828 
L 312.336852 294.879215 
L 312.535661 294.522521 
L 312.73447 295.201767 
L 312.800739 294.951968 
L 312.867009 295.027202 
L 312.933278 295.364667 
L 312.999548 295.261632 
L 313.264626 295.300961 
L 313.397165 295.269216 
L 313.595974 295.340391 
L 314.059861 295.277495 
L 314.258669 295.157724 
L 314.391209 295.203511 
L 314.722556 295.11911 
L 314.788826 295.176316 
L 314.855095 294.701883 
L 314.921365 295.121174 
L 314.987635 295.075182 
L 315.252713 295.170071 
L 315.385252 295.205061 
L 315.451521 295.276352 
L 315.517791 295.206339 
L 316.180487 295.443117 
L 316.511834 295.371463 
L 316.776913 295.343719 
L 316.909452 295.336525 
L 316.975721 295.371138 
L 317.17453 294.905847 
L 317.240799 295.233132 
L 317.307069 295.113827 
L 317.505878 295.139345 
L 317.837225 294.897955 
L 318.036034 294.929463 
L 318.102304 294.673108 
L 318.168573 294.756218 
L 318.499921 294.945721 
L 318.764999 294.782181 
L 318.897538 294.999661 
L 319.096347 294.860699 
L 319.228886 294.685844 
L 319.295156 294.835666 
L 319.361425 294.996979 
L 319.560234 294.64982 
L 319.626503 294.825836 
L 319.692773 294.542144 
L 319.759042 294.667462 
L 319.891582 294.815298 
L 320.024121 294.955365 
L 320.09039 294.788596 
L 320.15666 294.689771 
L 320.222929 294.912214 
L 320.289199 294.826418 
L 320.421738 294.881573 
L 320.488008 294.776608 
L 320.620547 295.000302 
L 320.753086 294.861619 
L 320.819355 294.914328 
L 320.885625 294.720472 
L 320.951894 294.805912 
L 321.150703 295.061006 
L 321.283242 294.866436 
L 321.349512 294.98959 
L 321.415781 295.114912 
L 321.482051 295.06122 
L 321.54832 295.121534 
L 321.68086 294.977141 
L 321.813399 295.191709 
L 322.012207 295.211153 
L 322.211016 295.187709 
L 322.608633 295.381781 
L 322.741172 295.39552 
L 322.939981 295.340222 
L 323.07252 295.399868 
L 323.205059 295.415433 
L 323.470138 295.419414 
L 323.602677 295.24477 
L 323.867755 295.401123 
L 324.000294 295.304483 
L 324.066563 295.455128 
L 324.199103 295.001563 
L 324.331642 295.382867 
L 324.397911 295.318247 
L 324.53045 295.286392 
L 324.729259 295.332871 
L 324.861798 295.266979 
L 324.928068 295.338929 
L 324.994337 295.254662 
L 325.922111 295.062636 
L 326.12092 295.227185 
L 326.253459 295.125095 
L 326.319728 295.148446 
L 326.518537 294.353961 
L 326.651076 295.157401 
L 326.783615 295.214613 
L 326.849885 295.048823 
L 326.916154 295.216357 
L 326.982424 295.183656 
L 327.048693 295.050666 
L 327.114963 295.181935 
L 327.181233 295.099118 
L 327.446311 295.115543 
L 327.645119 295.089805 
L 327.843928 295.163108 
L 327.976467 295.159087 
L 328.241545 295.195771 
L 328.307815 295.027735 
L 328.374085 295.098965 
L 328.440354 295.158158 
L 328.506624 295.027542 
L 328.572893 295.223115 
L 328.639163 295.082466 
L 328.705432 294.94603 
L 328.771702 295.193245 
L 328.837971 293.836195 
L 328.904241 294.069811 
L 329.03678 295.35409 
L 329.10305 295.265091 
L 329.169319 295.331667 
L 329.235589 295.39331 
L 329.301858 295.273915 
L 329.368128 295.310755 
L 329.566936 295.356211 
L 329.699476 295.186778 
L 329.765745 295.304366 
L 329.832015 295.260128 
L 330.030823 295.244107 
L 330.428441 295.166575 
L 330.49471 295.304789 
L 330.56098 295.238748 
L 330.826058 295.156101 
L 330.892328 295.23721 
L 331.157406 294.648858 
L 331.223675 294.234785 
L 331.356214 295.344614 
L 331.422484 295.258026 
L 331.488754 295.38866 
L 331.621293 295.160377 
L 331.753832 295.357911 
L 332.350258 295.252746 
L 332.549066 295.352404 
L 332.747875 295.359204 
L 332.880414 295.403477 
L 332.946684 295.422417 
L 333.079223 295.200276 
L 333.211762 295.396157 
L 333.278032 295.275679 
L 333.344301 295.352044 
L 333.410571 295.442157 
L 333.47684 295.358137 
L 333.609379 294.923581 
L 333.741918 295.381117 
L 333.808188 295.291189 
L 333.874457 295.364417 
L 334.338344 295.183533 
L 334.404614 294.954202 
L 334.470883 295.097389 
L 334.669692 295.326015 
L 335.067309 295.113864 
L 335.796275 295.139819 
L 335.862544 294.707678 
L 335.928814 295.279637 
L 335.995083 295.161138 
L 336.127622 295.22295 
L 336.193892 295.14598 
L 336.260161 295.268765 
L 336.326431 295.221297 
L 336.52524 295.181106 
L 337.386744 295.116131 
L 337.519283 295.125029 
L 337.850631 295.179788 
L 338.181979 295.167465 
L 338.248248 294.977768 
L 338.314518 295.306251 
L 338.380787 295.248253 
L 338.645865 295.214688 
L 339.176022 295.306883 
L 339.50737 295.26843 
L 339.706178 295.308684 
L 339.838717 295.252281 
L 339.971256 295.321268 
L 340.170065 295.267805 
L 340.435143 295.415726 
L 340.633952 295.126437 
L 340.832761 295.35748 
L 341.495456 295.395029 
L 341.627995 295.345135 
L 341.893074 295.450063 
L 342.290691 295.398469 
L 343.483543 295.377351 
L 343.682352 295.349703 
L 345.471629 295.292664 
L 345.604169 295.254961 
L 345.802977 295.187632 
L 345.935516 295.276207 
L 346.068055 295.209786 
L 346.200595 295.238751 
L 346.465673 295.187866 
L 346.598212 295.284146 
L 346.797021 295.253239 
L 347.062099 295.302628 
L 347.194638 295.212445 
L 347.327177 295.249385 
L 347.459716 295.271663 
L 347.923603 295.201973 
L 347.989873 295.120801 
L 348.056142 295.20322 
L 348.254951 295.167319 
L 348.38749 295.108409 
L 348.520029 295.213513 
L 348.718838 295.149985 
L 348.851377 295.15131 
L 349.050185 295.232814 
L 349.182724 295.193239 
L 349.315264 295.147801 
L 349.381533 295.328206 
L 349.447803 295.270047 
L 349.580342 295.170476 
L 349.712881 295.292392 
L 349.91169 294.962391 
L 350.110498 295.314861 
L 350.243037 295.329404 
L 350.309307 295.368493 
L 350.441846 295.205214 
L 350.640655 295.312033 
L 350.839463 295.344763 
L 350.972002 295.431313 
L 351.36962 295.400363 
L 351.634698 295.43493 
L 351.833507 295.372057 
L 351.966046 295.456581 
L 352.098585 295.053821 
L 352.164854 295.434334 
L 352.297394 292.885327 
L 352.429933 295.045387 
L 352.562472 295.314962 
L 352.628741 295.245568 
L 352.695011 295.387065 
L 352.76128 295.294965 
L 352.82755 295.26476 
L 352.89382 295.461914 
L 352.960089 295.32738 
L 353.026359 295.266292 
L 353.092628 295.369136 
L 353.158898 295.279129 
L 353.291437 295.327966 
L 353.357706 295.13884 
L 353.490246 295.434789 
L 353.755324 295.278351 
L 353.821593 295.400216 
L 353.954132 295.177849 
L 354.020402 295.392318 
L 354.086671 295.330372 
L 354.152941 295.185789 
L 354.219211 295.354976 
L 354.35175 295.162878 
L 354.418019 295.365461 
L 354.550558 294.441283 
L 354.616828 292.69024 
L 354.815637 295.39261 
L 354.948176 295.162072 
L 355.014445 295.356691 
L 355.080715 295.212193 
L 355.610871 295.28849 
L 355.677141 295.204017 
L 355.74341 295.363089 
L 355.80968 295.325902 
L 355.942219 295.333037 
L 356.273567 295.308017 
L 356.538645 295.267393 
L 356.604915 295.239888 
L 356.671184 295.36894 
L 356.803723 295.070638 
L 356.869993 295.364415 
L 356.936262 294.379158 
L 357.002532 294.860602 
L 357.135071 295.308204 
L 357.26761 295.22703 
L 357.466419 295.359896 
L 357.665227 295.346117 
L 359.056888 295.34388 
L 359.189427 295.335045 
L 359.321966 295.378799 
L 359.918392 295.369529 
L 359.984662 295.327219 
L 360.117201 295.444866 
L 360.24974 295.392826 
L 360.779896 295.472995 
L 361.111244 295.436024 
L 361.575131 295.446725 
L 361.641401 295.144191 
L 361.70767 295.350114 
L 362.105288 295.391567 
L 362.237827 295.401071 
L 362.370366 295.465628 
L 362.635444 295.36907 
L 362.966792 295.432506 
L 363.099331 295.322614 
L 363.23187 295.350712 
L 363.364409 295.338345 
L 363.430679 295.399738 
L 363.563218 295.251744 
L 363.695757 295.368116 
L 363.894565 295.292686 
L 363.960835 295.399231 
L 364.027105 295.249849 
L 364.093374 295.282404 
L 364.292183 295.305926 
L 364.954878 295.290323 
L 365.153687 295.104326 
L 365.352496 295.334225 
L 365.418765 295.271277 
L 365.551304 295.195169 
L 365.948922 295.286728 
L 366.14773 295.150919 
L 366.214 295.289007 
L 366.280269 295.169577 
L 366.346539 295.397319 
L 366.412809 295.26073 
L 366.876695 295.37469 
L 367.009235 295.277122 
L 367.141774 295.294421 
L 367.208043 295.223568 
L 367.274313 295.298771 
L 367.473121 295.349283 
L 367.67193 295.325633 
L 368.069547 295.304712 
L 368.533434 295.266301 
L 368.599704 295.333773 
L 368.665973 295.130216 
L 368.732243 295.400177 
L 368.798512 295.307829 
L 369.063591 295.372387 
L 369.328669 295.444901 
L 369.461208 295.36238 
L 369.660017 295.384071 
L 370.919138 295.314012 
L 370.985408 295.090461 
L 371.051677 295.16998 
L 371.117947 295.437451 
L 371.184216 295.406922 
L 371.515564 295.428085 
L 372.840955 295.418349 
L 373.106034 295.273955 
L 373.238573 295.439338 
L 373.371112 294.677134 
L 373.437381 295.435136 
L 373.503651 295.176622 
L 373.56992 295.165345 
L 373.63619 295.375316 
L 373.70246 295.320906 
L 373.768729 295.258877 
L 373.901268 295.333872 
L 374.298885 295.346638 
L 374.762772 295.329531 
L 374.895311 295.351923 
L 375.09412 295.394496 
L 375.226659 295.331897 
L 375.292929 295.399182 
L 375.359198 295.287791 
L 375.425468 295.332608 
L 375.491737 295.446525 
L 375.624277 294.517395 
L 375.690546 293.701237 
L 375.756816 295.004107 
L 375.823085 294.977941 
L 375.889355 295.243713 
L 375.955624 295.20254 
L 376.021894 295.164338 
L 376.088163 295.306658 
L 376.154433 295.245117 
L 376.949668 295.279083 
L 377.082207 295.313265 
L 377.479824 295.343235 
L 377.546094 295.405283 
L 377.678633 295.269537 
L 377.744902 295.471312 
L 377.943711 295.04835 
L 378.009981 293.771992 
L 378.07625 294.443388 
L 378.208789 295.311017 
L 378.275059 295.126051 
L 378.341328 295.317879 
L 378.407598 295.268014 
L 378.473867 295.175068 
L 378.606407 295.301359 
L 378.672676 295.294 
L 378.738946 295.425003 
L 378.805215 295.323172 
L 378.937754 295.331015 
L 379.865528 295.348529 
L 379.931798 295.270695 
L 380.064337 295.410462 
L 380.130606 295.305719 
L 380.196876 295.36616 
L 380.263145 295.393937 
L 380.395684 294.741311 
L 380.461954 295.367574 
L 380.528224 295.255459 
L 381.05838 295.322508 
L 381.12465 295.205773 
L 381.190919 295.275115 
L 381.257189 295.370878 
L 381.323458 295.312156 
L 381.588536 295.365897 
L 381.721076 295.133223 
L 381.986154 295.34402 
L 382.052423 295.25246 
L 382.118693 295.308395 
L 382.184962 295.371175 
L 382.251232 295.284649 
L 382.450041 295.22117 
L 382.51631 295.352347 
L 382.58258 295.312886 
L 382.715119 295.073013 
L 382.847658 295.415466 
L 383.642893 295.372108 
L 384.371858 295.332513 
L 384.504397 295.391433 
L 385.034553 295.332885 
L 385.100823 295.155817 
L 385.167092 295.284931 
L 385.365901 295.333371 
L 386.161136 295.279638 
L 386.359944 295.258009 
L 386.890101 295.251635 
L 387.287718 295.287849 
L 387.353988 294.98671 
L 387.486527 295.279059 
L 388.281761 295.267667 
L 388.54684 295.238393 
L 388.878187 295.275671 
L 389.474613 295.31203 
L 389.673422 295.416644 
L 389.739692 295.112373 
L 389.805961 295.276668 
L 390.00477 295.317596 
L 390.137309 295.327352 
L 390.269848 295.250772 
L 390.534926 295.368088 
L 390.667465 295.370435 
L 390.932544 295.422383 
L 391.131352 295.391005 
L 391.992856 295.380138 
L 392.059126 294.979642 
L 392.125396 295.294791 
L 392.191665 295.212618 
L 392.324204 295.295226 
L 392.456743 295.272565 
L 392.9869 295.126268 
L 393.251978 295.192685 
L 393.318248 295.084036 
L 393.384517 295.134978 
L 393.450787 295.264228 
L 393.583326 295.035201 
L 393.649595 295.085686 
L 393.715865 295.029417 
L 393.848404 295.231784 
L 393.914673 295.179763 
L 394.312291 294.998408 
L 394.37856 295.38765 
L 394.44483 295.013038 
L 394.511099 295.125523 
L 394.643639 295.1417 
L 395.372604 295.136331 
L 395.571412 295.293289 
L 395.703951 295.211919 
L 395.836491 295.422812 
L 396.035299 295.368642 
L 396.366647 295.467138 
L 396.631725 295.300924 
L 396.764264 294.858852 
L 396.830534 295.350945 
L 396.896803 295.133538 
L 397.029343 295.272207 
L 397.228151 295.165704 
L 397.36069 295.313998 
L 397.493229 295.148039 
L 397.692038 295.175392 
L 397.758308 295.199636 
L 397.890847 295.12059 
L 398.089655 295.180365 
L 398.354734 295.152459 
L 398.487273 295.164811 
L 398.487273 295.164811 
" clip-path="url(#p52363e6cbb)" style="fill: none; stroke: #1f77b4; stroke-width: 1.5; stroke-linecap: square"/>
   </g>
   <g id="patch_3">
    <path d="M 57.6 307.584 
L 57.6 41.472 
" style="fill: none; stroke: #000000; stroke-width: 0.8; stroke-linejoin: miter; stroke-linecap: square"/>
   </g>
   <g id="patch_4">
    <path d="M 414.72 307.584 
L 414.72 41.472 
" style="fill: none; stroke: #000000; stroke-width: 0.8; stroke-linejoin: miter; stroke-linecap: square"/>
   </g>
   <g id="patch_5">
    <path d="M 57.6 307.584 
L 414.72 307.584 
" style="fill: none; stroke: #000000; stroke-width: 0.8; stroke-linejoin: miter; stroke-linecap: square"/>
   </g>
   <g id="patch_6">
    <path d="M 57.6 41.472 
L 414.72 41.472 
" style="fill: none; stroke: #000000; stroke-width: 0.8; stroke-linejoin: miter; stroke-linecap: square"/>
   </g>
   <g id="text_17">
    <text style="font: 12px 'IPAexGothic'; text-anchor: middle" x="236.16" y="35.472" transform="rotate(-0 236.16 35.472)">"060_A6.wav"の振幅スペクトル</text>
   </g>
  </g>
 </g>
 <defs>
  <clipPath id="p52363e6cbb">
   <rect x="57.6" y="41.472" width="357.12" height="266.112"/>
  </clipPath>
 </defs>
</svg>
