<?xml version="1.0" encoding="utf-8" standalone="no"?>
<!DOCTYPE svg PUBLIC "-//W3C//DTD SVG 1.1//EN"
  "http://www.w3.org/Graphics/SVG/1.1/DTD/svg11.dtd">
<svg xmlns:xlink="http://www.w3.org/1999/xlink" width="460.8pt" height="345.6pt" viewBox="0 0 460.8 345.6" xmlns="http://www.w3.org/2000/svg" version="1.1">
 <metadata>
  <rdf:RDF xmlns:dc="http://purl.org/dc/elements/1.1/" xmlns:cc="http://creativecommons.org/ns#" xmlns:rdf="http://www.w3.org/1999/02/22-rdf-syntax-ns#">
   <cc:Work>
    <dc:type rdf:resource="http://purl.org/dc/dcmitype/StillImage"/>
    <dc:date>2022-11-28T12:41:02.743907</dc:date>
    <dc:format>image/svg+xml</dc:format>
    <dc:creator>
     <cc:Agent>
      <dc:title>Matplotlib v3.6.2, https://matplotlib.org/</dc:title>
     </cc:Agent>
    </dc:creator>
   </cc:Work>
  </rdf:RDF>
 </metadata>
 <defs>
  <style type="text/css">*{stroke-linejoin: round; stroke-linecap: butt}</style>
 </defs>
 <g id="figure_1">
  <g id="patch_1">
   <path d="M 0 345.6 
L 460.8 345.6 
L 460.8 0 
L 0 0 
z
" style="fill: #ffffff"/>
  </g>
  <g id="axes_1">
   <g id="patch_2">
    <path d="M 57.6 307.584 
L 414.72 307.584 
L 414.72 41.472 
L 57.6 41.472 
z
" style="fill: #ffffff"/>
   </g>
   <g id="matplotlib.axis_1">
    <g id="xtick_1">
     <g id="line2d_1">
      <defs>
       <path id="m030855c7b2" d="M 0 0 
L 0 3.5 
" style="stroke: #000000; stroke-width: 0.8"/>
      </defs>
      <g>
       <use xlink:href="#m030855c7b2" x="73.832727" y="307.584" style="stroke: #000000; stroke-width: 0.8"/>
      </g>
     </g>
     <g id="text_1">
      <text style="font: 10px 'IPAexGothic'; text-anchor: middle" x="73.832727" y="322.074625" transform="rotate(-0 73.832727 322.074625)">0</text>
     </g>
    </g>
    <g id="xtick_2">
     <g id="line2d_2">
      <g>
       <use xlink:href="#m030855c7b2" x="140.102281" y="307.584" style="stroke: #000000; stroke-width: 0.8"/>
      </g>
     </g>
     <g id="text_2">
      <text style="font: 10px 'IPAexGothic'; text-anchor: middle" x="140.102281" y="322.074625" transform="rotate(-0 140.102281 322.074625)">1000</text>
     </g>
    </g>
    <g id="xtick_3">
     <g id="line2d_3">
      <g>
       <use xlink:href="#m030855c7b2" x="206.371835" y="307.584" style="stroke: #000000; stroke-width: 0.8"/>
      </g>
     </g>
     <g id="text_3">
      <text style="font: 10px 'IPAexGothic'; text-anchor: middle" x="206.371835" y="322.074625" transform="rotate(-0 206.371835 322.074625)">2000</text>
     </g>
    </g>
    <g id="xtick_4">
     <g id="line2d_4">
      <g>
       <use xlink:href="#m030855c7b2" x="272.64139" y="307.584" style="stroke: #000000; stroke-width: 0.8"/>
      </g>
     </g>
     <g id="text_4">
      <text style="font: 10px 'IPAexGothic'; text-anchor: middle" x="272.64139" y="322.074625" transform="rotate(-0 272.64139 322.074625)">3000</text>
     </g>
    </g>
    <g id="xtick_5">
     <g id="line2d_5">
      <g>
       <use xlink:href="#m030855c7b2" x="338.910944" y="307.584" style="stroke: #000000; stroke-width: 0.8"/>
      </g>
     </g>
     <g id="text_5">
      <text style="font: 10px 'IPAexGothic'; text-anchor: middle" x="338.910944" y="322.074625" transform="rotate(-0 338.910944 322.074625)">4000</text>
     </g>
    </g>
    <g id="xtick_6">
     <g id="line2d_6">
      <g>
       <use xlink:href="#m030855c7b2" x="405.180498" y="307.584" style="stroke: #000000; stroke-width: 0.8"/>
      </g>
     </g>
     <g id="text_6">
      <text style="font: 10px 'IPAexGothic'; text-anchor: middle" x="405.180498" y="322.074625" transform="rotate(-0 405.180498 322.074625)">5000</text>
     </g>
    </g>
    <g id="text_7">
     <text style="font: 10px 'IPAexGothic'; text-anchor: middle" x="236.16" y="335.924625" transform="rotate(-0 236.16 335.924625)">周波数[Hz]</text>
    </g>
   </g>
   <g id="matplotlib.axis_2">
    <g id="ytick_1">
     <g id="line2d_7">
      <defs>
       <path id="ma1af177267" d="M 0 0 
L -3.5 0 
" style="stroke: #000000; stroke-width: 0.8"/>
      </defs>
      <g>
       <use xlink:href="#ma1af177267" x="57.6" y="295.488808" style="stroke: #000000; stroke-width: 0.8"/>
      </g>
     </g>
     <g id="text_8">
      <text style="font: 10px 'IPAexGothic'; text-anchor: end" x="50.6" y="299.23412" transform="rotate(-0 50.6 299.23412)">0.0</text>
     </g>
    </g>
    <g id="ytick_2">
     <g id="line2d_8">
      <g>
       <use xlink:href="#ma1af177267" x="57.6" y="259.321769" style="stroke: #000000; stroke-width: 0.8"/>
      </g>
     </g>
     <g id="text_9">
      <text style="font: 10px 'IPAexGothic'; text-anchor: end" x="50.6" y="263.067082" transform="rotate(-0 50.6 263.067082)">0.2</text>
     </g>
    </g>
    <g id="ytick_3">
     <g id="line2d_9">
      <g>
       <use xlink:href="#ma1af177267" x="57.6" y="223.154731" style="stroke: #000000; stroke-width: 0.8"/>
      </g>
     </g>
     <g id="text_10">
      <text style="font: 10px 'IPAexGothic'; text-anchor: end" x="50.6" y="226.900043" transform="rotate(-0 50.6 226.900043)">0.4</text>
     </g>
    </g>
    <g id="ytick_4">
     <g id="line2d_10">
      <g>
       <use xlink:href="#ma1af177267" x="57.6" y="186.987692" style="stroke: #000000; stroke-width: 0.8"/>
      </g>
     </g>
     <g id="text_11">
      <text style="font: 10px 'IPAexGothic'; text-anchor: end" x="50.6" y="190.733005" transform="rotate(-0 50.6 190.733005)">0.6</text>
     </g>
    </g>
    <g id="ytick_5">
     <g id="line2d_11">
      <g>
       <use xlink:href="#ma1af177267" x="57.6" y="150.820654" style="stroke: #000000; stroke-width: 0.8"/>
      </g>
     </g>
     <g id="text_12">
      <text style="font: 10px 'IPAexGothic'; text-anchor: end" x="50.6" y="154.565967" transform="rotate(-0 50.6 154.565967)">0.8</text>
     </g>
    </g>
    <g id="ytick_6">
     <g id="line2d_12">
      <g>
       <use xlink:href="#ma1af177267" x="57.6" y="114.653616" style="stroke: #000000; stroke-width: 0.8"/>
      </g>
     </g>
     <g id="text_13">
      <text style="font: 10px 'IPAexGothic'; text-anchor: end" x="50.6" y="118.398928" transform="rotate(-0 50.6 118.398928)">1.0</text>
     </g>
    </g>
    <g id="ytick_7">
     <g id="line2d_13">
      <g>
       <use xlink:href="#ma1af177267" x="57.6" y="78.486577" style="stroke: #000000; stroke-width: 0.8"/>
      </g>
     </g>
     <g id="text_14">
      <text style="font: 10px 'IPAexGothic'; text-anchor: end" x="50.6" y="82.23189" transform="rotate(-0 50.6 82.23189)">1.2</text>
     </g>
    </g>
    <g id="ytick_8">
     <g id="line2d_14">
      <g>
       <use xlink:href="#ma1af177267" x="57.6" y="42.319539" style="stroke: #000000; stroke-width: 0.8"/>
      </g>
     </g>
     <g id="text_15">
      <text style="font: 10px 'IPAexGothic'; text-anchor: end" x="50.6" y="46.064851" transform="rotate(-0 50.6 46.064851)">1.4</text>
     </g>
    </g>
    <g id="text_16">
     <text style="font: 10px 'IPAexGothic'; text-anchor: middle" x="29.460938" y="174.528" transform="rotate(-90 29.460938 174.528)">振幅</text>
    </g>
    <g id="text_17">
     <text style="font: 10px 'IPAexGothic'; text-anchor: start" x="57.6" y="38.472" transform="rotate(-0 57.6 38.472)">1e7</text>
    </g>
   </g>
   <g id="line2d_15">
    <path d="M 73.832727 231.226581 
L 73.965266 291.470762 
L 74.097805 294.239648 
L 74.164075 294.17412 
L 74.296614 294.260399 
L 74.362884 294.32939 
L 74.429153 294.099277 
L 74.495423 293.061283 
L 74.694231 294.970738 
L 74.826771 295.481834 
L 75.091849 294.543046 
L 75.224388 294.958941 
L 75.356927 294.982585 
L 75.555736 295.120544 
L 75.688275 294.752742 
L 75.754544 293.787124 
L 75.887083 295.169318 
L 76.35097 295.22207 
L 76.41724 295.126106 
L 76.616049 295.419451 
L 76.881127 295.251406 
L 77.013666 295.277089 
L 77.345014 295.374422 
L 77.543822 295.408414 
L 77.676361 294.959629 
L 77.87517 295.344976 
L 78.206518 295.329238 
L 78.272787 294.962153 
L 78.339057 295.296041 
L 78.405327 295.275493 
L 78.736674 295.348565 
L 78.802944 295.392803 
L 78.935483 295.294911 
L 79.068022 295.383865 
L 79.3331 295.339708 
L 79.465639 295.422124 
L 79.531909 294.805392 
L 79.664448 295.300028 
L 80.062065 295.403309 
L 80.128335 295.175915 
L 80.194604 294.453782 
L 80.327144 295.303478 
L 80.724761 295.416006 
L 80.79103 295.322991 
L 80.92357 295.460085 
L 81.122378 295.353457 
L 81.387456 295.333715 
L 81.453726 295.126938 
L 81.586265 295.445098 
L 81.785074 295.402828 
L 81.983882 295.298828 
L 82.050152 295.068248 
L 82.248961 295.422612 
L 82.646578 295.444513 
L 82.712848 295.251184 
L 82.911656 295.474679 
L 83.574352 295.406719 
L 83.905699 295.452391 
L 83.971969 295.115366 
L 84.038239 295.277195 
L 84.303317 295.346734 
L 84.502125 295.292225 
L 84.568395 295.193612 
L 84.634665 294.874199 
L 84.767204 295.440165 
L 85.164821 295.383956 
L 85.231091 294.979167 
L 85.29736 295.069373 
L 85.496169 295.323064 
L 85.827517 295.434681 
L 85.893786 295.012944 
L 86.026325 295.40265 
L 86.423943 295.43345 
L 86.556482 295.18673 
L 86.75529 295.370133 
L 87.086638 295.330301 
L 87.152908 294.936277 
L 87.285447 295.340301 
L 88.34576 295.420628 
L 88.478299 295.309217 
L 88.875916 295.449976 
L 89.008455 295.411693 
L 89.074725 295.324408 
L 89.207264 295.451774 
L 90.135038 295.418584 
L 90.267577 295.434389 
L 90.333846 295.246636 
L 90.466385 295.42219 
L 91.526698 295.317029 
L 91.592968 295.107445 
L 91.725507 295.349313 
L 92.189394 295.436026 
L 92.255663 295.319481 
L 92.321933 295.423708 
L 92.78582 295.358984 
L 92.918359 295.31874 
L 93.249707 295.361003 
L 93.514785 295.300932 
L 93.647324 295.397086 
L 94.376289 295.385658 
L 95.171524 295.409625 
L 95.502871 295.378939 
L 96.894532 295.320395 
L 97.15961 295.36523 
L 97.490958 295.397977 
L 97.888575 295.468445 
L 97.954845 295.237228 
L 98.021115 295.388567 
L 98.551271 295.415215 
L 98.75008 295.391673 
L 99.280236 295.433007 
L 99.744123 295.420872 
L 99.876662 295.227134 
L 100.009201 295.46681 
L 100.473088 295.22316 
L 100.605627 295.407365 
L 101.003244 295.423195 
L 101.135784 295.315107 
L 101.202053 295.462384 
L 101.268323 295.422679 
L 102.328636 295.350475 
L 102.394905 295.31252 
L 102.593714 295.438099 
L 102.858792 295.353776 
L 103.12387 295.322864 
L 103.587757 295.415467 
L 103.654027 295.275485 
L 103.786566 295.42196 
L 106.238539 295.402268 
L 106.503617 295.443034 
L 107.033774 295.458453 
L 107.431391 295.466777 
L 107.56393 295.398729 
L 108.690513 295.303593 
L 108.756782 295.462535 
L 108.823052 295.407627 
L 109.353208 295.265698 
L 109.618286 295.339158 
L 110.015904 295.355603 
L 110.214712 295.460809 
L 111.672643 295.40799 
L 111.805182 295.43723 
L 112.07026 295.381486 
L 112.269069 295.342698 
L 113.859538 295.312767 
L 114.058347 295.357793 
L 114.257155 295.326999 
L 114.455964 295.078881 
L 114.522233 295.217334 
L 114.654773 295.283659 
L 114.919851 295.306786 
L 115.05239 295.41007 
L 115.251199 295.377589 
L 115.516277 295.433711 
L 117.570633 295.266834 
L 117.636903 295.17785 
L 117.769442 295.357879 
L 118.233329 295.412842 
L 118.365868 295.377423 
L 118.564676 295.442689 
L 118.697215 295.464164 
L 118.829754 295.349649 
L 118.896024 295.175953 
L 118.962294 295.436844 
L 119.028563 295.400678 
L 119.359911 295.401315 
L 119.49245 295.464705 
L 119.55872 295.349994 
L 119.624989 295.393358 
L 121.347998 295.395987 
L 121.414267 295.306888 
L 121.546806 295.448822 
L 122.010693 295.312219 
L 122.143232 295.287575 
L 122.673389 295.303066 
L 122.872197 295.404143 
L 123.402354 295.450008 
L 123.733701 295.447146 
L 124.065049 295.38056 
L 124.396397 295.456415 
L 124.528936 295.456729 
L 124.595206 295.33899 
L 124.727745 295.420268 
L 124.926553 295.379255 
L 125.191632 295.325116 
L 125.257901 295.455887 
L 125.324171 295.386185 
L 125.45671 295.395746 
L 127.444797 295.342563 
L 127.709875 295.39503 
L 127.776144 295.305833 
L 127.842414 295.388736 
L 128.571379 295.344511 
L 128.968996 295.389408 
L 129.035266 295.311696 
L 129.101535 295.393887 
L 129.432883 295.427718 
L 129.89677 295.465642 
L 130.228118 295.441027 
L 130.294387 295.292375 
L 130.360657 295.389624 
L 130.824544 295.440587 
L 130.890813 295.411929 
L 130.957083 295.208862 
L 131.089622 295.427808 
L 131.884857 295.418322 
L 132.149935 295.379433 
L 132.216204 295.448468 
L 132.348744 295.357548 
L 133.409056 295.42019 
L 133.475326 295.243255 
L 133.541596 295.369918 
L 134.005482 295.298051 
L 134.138021 295.322617 
L 134.734447 295.297137 
L 134.866987 295.420771 
L 136.192378 295.446536 
L 136.258647 295.467257 
L 136.391186 295.273838 
L 136.788804 295.327735 
L 138.511812 295.268065 
L 138.644351 295.336012 
L 138.975699 295.285639 
L 139.174508 295.458142 
L 139.307047 295.371524 
L 139.572125 295.370331 
L 139.770934 295.292182 
L 139.837203 295.395361 
L 139.903473 295.313128 
L 140.632438 295.430999 
L 141.030055 295.42308 
L 141.096325 295.300757 
L 141.228864 295.400783 
L 141.692751 295.392847 
L 141.75902 295.305349 
L 141.891559 295.438786 
L 142.421716 295.374324 
L 142.753064 295.402895 
L 144.277263 295.388525 
L 144.409802 295.422149 
L 144.80742 295.380856 
L 144.873689 295.256909 
L 145.006228 295.418705 
L 145.536385 295.283849 
L 145.602654 295.456398 
L 145.668924 295.39203 
L 147.259393 295.398155 
L 147.78955 295.398141 
L 147.988358 295.350451 
L 148.717323 295.351339 
L 148.916132 295.412341 
L 149.18121 295.337835 
L 150.241523 295.427697 
L 150.77168 295.298118 
L 151.103027 295.270535 
L 151.235566 295.090406 
L 151.368106 295.326315 
L 152.295879 295.405351 
L 152.892305 295.367968 
L 153.488731 295.344456 
L 153.68754 295.375592 
L 153.753809 295.272687 
L 153.952618 295.453287 
L 154.350235 295.406271 
L 154.416505 295.201667 
L 154.482775 295.348597 
L 154.814122 295.314744 
L 155.741896 295.378947 
L 156.868479 295.349251 
L 156.934748 295.08221 
L 157.001018 295.2085 
L 157.266096 295.410859 
L 157.531174 295.408376 
L 157.862522 295.410577 
L 158.19387 295.413731 
L 158.326409 295.313301 
L 159.187913 295.251036 
L 159.452991 295.308193 
L 159.519261 295.058521 
L 159.718069 295.329432 
L 160.049417 295.400531 
L 160.115687 295.148245 
L 160.248226 295.355325 
L 160.712113 295.234257 
L 160.778382 295.139458 
L 160.910921 295.440609 
L 161.242269 295.330553 
L 161.507347 295.334991 
L 161.838695 295.364261 
L 162.435121 295.397122 
L 163.230356 295.385071 
L 163.296625 295.123972 
L 163.429164 295.431599 
L 163.826782 295.300362 
L 163.893051 295.162939 
L 163.959321 295.232771 
L 164.09186 295.376979 
L 164.489477 295.357278 
L 164.555747 295.023035 
L 164.622016 295.378684 
L 164.688286 295.348296 
L 165.152173 295.258737 
L 165.284712 295.315842 
L 165.748599 295.262419 
L 165.814868 295.108734 
L 165.881138 295.398398 
L 165.947407 295.336753 
L 166.477564 295.309952 
L 166.742642 295.445032 
L 167.00772 295.412103 
L 167.07399 295.149163 
L 167.140259 295.239808 
L 167.272799 295.396048 
L 167.670416 295.216461 
L 167.736685 295.086884 
L 167.935494 295.246294 
L 168.266842 295.265183 
L 168.333111 295.104342 
L 168.399381 295.136224 
L 168.53192 295.323128 
L 168.929537 295.387091 
L 168.995807 295.141256 
L 169.062076 295.410275 
L 169.128346 295.369233 
L 169.393424 295.271494 
L 169.592233 295.236282 
L 169.658502 294.717454 
L 169.791042 295.368371 
L 170.05612 295.327232 
L 170.254928 294.93099 
L 170.321198 295.289238 
L 170.387468 295.200368 
L 171.51405 295.313822 
L 171.58032 295.168821 
L 171.646589 295.26133 
L 172.044206 295.413445 
L 172.110476 295.423176 
L 172.176746 295.289327 
L 172.309285 295.478426 
L 172.640632 295.425345 
L 172.773172 295.453924 
L 172.839441 295.222576 
L 172.905711 295.327271 
L 173.237058 295.34288 
L 175.291415 295.211659 
L 175.357684 295.096908 
L 175.423954 295.174723 
L 175.689032 295.175701 
L 175.95411 295.305563 
L 176.02038 295.106708 
L 176.086649 295.151927 
L 176.285458 295.099921 
L 178.339814 295.21967 
L 178.406084 295.397644 
L 178.472353 295.302759 
L 178.538623 294.484206 
L 178.671162 295.347017 
L 178.803701 295.312355 
L 179.00251 295.361983 
L 179.135049 295.22234 
L 179.201318 295.168429 
L 179.400127 295.38414 
L 179.797744 295.3424 
L 179.864014 295.413602 
L 179.930283 295.341774 
L 180.195362 295.340535 
L 180.39417 295.32207 
L 180.46044 294.775685 
L 180.526709 294.978753 
L 180.858057 295.146267 
L 180.924327 295.104626 
L 180.990596 295.225736 
L 181.056866 294.902896 
L 181.189405 295.240022 
L 182.183448 295.370416 
L 182.382257 295.144057 
L 182.581066 295.341843 
L 182.978683 295.031076 
L 183.177492 295.138133 
L 183.310031 295.16904 
L 183.44257 295.17738 
L 183.575109 295.271227 
L 183.641378 294.784669 
L 183.707648 294.930524 
L 183.773917 294.951549 
L 183.840187 294.687551 
L 183.906457 294.737594 
L 184.038996 294.657297 
L 184.171535 294.461317 
L 184.237804 294.840522 
L 184.370343 294.311078 
L 184.436613 294.351478 
L 184.502883 294.524889 
L 184.569152 294.301261 
L 184.635422 294.396536 
L 184.701691 294.459002 
L 184.83423 294.038454 
L 184.9005 294.531041 
L 184.966769 294.280486 
L 185.033039 294.341807 
L 185.099309 294.251837 
L 185.165578 294.092854 
L 185.231848 294.225034 
L 185.298117 294.173183 
L 185.364387 294.152313 
L 185.629465 293.321903 
L 185.828274 293.685913 
L 186.027082 292.925438 
L 186.093352 292.197344 
L 186.159621 294.710032 
L 186.225891 293.642512 
L 186.292161 294.292961 
L 186.490969 293.105758 
L 186.557239 292.893561 
L 186.623508 292.988958 
L 186.756047 292.987454 
L 186.954856 293.739475 
L 187.021126 293.721504 
L 187.087395 293.501528 
L 187.153665 292.828468 
L 187.219934 293.021934 
L 187.286204 293.054147 
L 187.352473 293.942831 
L 187.418743 292.303059 
L 187.551282 294.252357 
L 187.617552 294.227823 
L 187.750091 293.899399 
L 187.81636 294.852468 
L 188.015169 291.94072 
L 188.081439 294.753525 
L 188.147708 294.749073 
L 188.213978 294.393793 
L 188.280247 294.408785 
L 188.412786 294.20267 
L 188.545325 293.537189 
L 188.611595 292.106822 
L 188.677864 287.238038 
L 188.744134 292.414779 
L 188.810404 289.537444 
L 188.876673 289.444717 
L 188.942943 286.407168 
L 189.009212 286.568061 
L 189.141751 288.121445 
L 189.34056 276.891588 
L 189.473099 291.011326 
L 189.671908 292.038009 
L 189.804447 291.213067 
L 189.870716 292.653187 
L 189.936986 242.62133 
L 190.003256 275.699185 
L 190.069525 278.567061 
L 190.135795 276.388769 
L 190.202064 276.930485 
L 190.268334 277.07574 
L 190.334603 275.873746 
L 190.400873 271.505675 
L 190.467142 257.711843 
L 190.599682 53.568 
L 190.732221 272.394254 
L 191.063568 293.390671 
L 191.129838 290.875347 
L 191.196108 268.719218 
L 191.262377 280.00648 
L 191.461186 289.586097 
L 191.527455 289.898153 
L 191.792534 295.012628 
L 191.858803 287.703793 
L 191.991342 294.787278 
L 192.25642 293.093621 
L 192.32269 293.011094 
L 192.455229 293.373776 
L 192.521499 292.393171 
L 192.786577 294.346376 
L 192.852846 294.131233 
L 193.051655 295.146007 
L 193.117925 294.773476 
L 193.184194 295.18976 
L 193.250464 295.121901 
L 193.316733 295.20192 
L 193.383003 295.080716 
L 193.449272 295.377374 
L 193.515542 295.213677 
L 193.648081 294.977538 
L 193.714351 294.401235 
L 193.78062 294.523331 
L 193.913159 295.190154 
L 194.045698 295.419086 
L 194.111968 295.255104 
L 194.178237 295.421667 
L 194.244507 295.214766 
L 194.310777 295.31102 
L 194.377046 293.477016 
L 194.443316 294.965232 
L 194.509585 294.920978 
L 194.708394 294.830559 
L 194.973472 294.642945 
L 195.172281 295.112802 
L 195.23855 295.16545 
L 195.503629 294.831036 
L 195.636168 295.078626 
L 195.768707 294.69559 
L 195.834976 294.738426 
L 196.100055 295.000012 
L 196.232594 295.300475 
L 196.298863 293.552452 
L 196.431402 295.027136 
L 196.563941 294.973925 
L 196.630211 295.100589 
L 196.696481 294.985212 
L 196.76275 295.097733 
L 196.895289 294.698937 
L 196.961559 295.092124 
L 197.027828 295.041835 
L 197.226637 294.753685 
L 197.491715 294.964648 
L 197.557985 294.818995 
L 197.690524 294.940612 
L 197.889333 294.869994 
L 197.955602 294.979301 
L 198.021872 294.91771 
L 198.154411 295.035824 
L 198.22068 294.594834 
L 198.28695 294.726431 
L 198.684567 294.917015 
L 198.750837 294.750121 
L 198.817106 293.800211 
L 198.949645 294.911048 
L 199.082184 294.890237 
L 199.347263 294.68653 
L 199.413532 294.735387 
L 199.479802 294.46546 
L 199.67861 294.915774 
L 199.81115 294.977292 
L 199.877419 295.033242 
L 200.009958 294.87265 
L 200.076228 294.09293 
L 200.142497 295.237597 
L 200.208767 295.131347 
L 200.540115 294.810237 
L 200.805193 295.228934 
L 201.401619 294.941021 
L 201.534158 295.159509 
L 201.931775 295.218787 
L 201.998045 294.543731 
L 202.064314 295.231421 
L 202.130584 295.192015 
L 202.263123 295.16148 
L 202.461932 295.033325 
L 202.528201 295.041767 
L 202.594471 295.182603 
L 202.66074 294.874949 
L 202.72701 295.002565 
L 203.058358 295.103749 
L 203.190897 294.98078 
L 203.257166 294.022125 
L 203.323436 295.292127 
L 203.389706 295.175274 
L 203.654784 295.135318 
L 203.853592 294.967293 
L 203.919862 295.150967 
L 203.986131 295.085268 
L 204.118671 294.69054 
L 204.18494 294.833687 
L 204.317479 295.029915 
L 204.516288 294.958074 
L 204.648827 295.004415 
L 204.980175 294.908761 
L 205.046444 294.9721 
L 205.112714 294.862188 
L 205.178983 295.350808 
L 205.245253 294.929275 
L 205.311523 295.006012 
L 205.444062 295.072617 
L 205.70914 295.024924 
L 205.775409 294.904875 
L 205.841679 295.189263 
L 205.907949 295.079187 
L 206.106757 295.090354 
L 206.371835 295.124663 
L 206.438105 294.85215 
L 206.570644 295.210636 
L 207.034531 295.348132 
L 207.100801 294.78955 
L 207.16707 295.098942 
L 208.094844 295.042693 
L 208.293653 295.265996 
L 208.359922 295.097246 
L 208.426192 295.161678 
L 208.625 295.316016 
L 208.890078 295.223937 
L 208.956348 294.983877 
L 209.088887 295.404308 
L 210.1492 295.241543 
L 210.21547 295.141914 
L 210.281739 295.483065 
L 210.348009 295.348085 
L 210.679356 295.268844 
L 211.342052 295.40174 
L 211.474591 295.318364 
L 211.540861 295.243678 
L 211.60713 295.33549 
L 211.938478 295.257058 
L 212.071017 295.253901 
L 212.137287 295.071307 
L 212.203556 295.140009 
L 212.269826 295.152211 
L 212.402365 295.054232 
L 212.733713 295.113181 
L 212.799982 294.818368 
L 212.932521 295.089429 
L 212.998791 295.069248 
L 213.13133 295.24498 
L 213.330139 295.240611 
L 213.396408 295.286184 
L 213.462678 294.975134 
L 213.528947 295.155655 
L 213.595217 295.346539 
L 213.661486 295.220493 
L 213.992834 295.362095 
L 214.059104 295.104434 
L 214.191643 295.389965 
L 214.58926 295.393143 
L 214.721799 295.04109 
L 214.788069 295.22502 
L 215.318225 295.345846 
L 215.450764 295.283894 
L 215.715843 295.331873 
L 215.848382 295.267108 
L 215.980921 295.123533 
L 216.11346 295.429861 
L 216.577347 295.264437 
L 216.776155 295.422401 
L 217.240042 295.195987 
L 217.372581 295.418749 
L 217.703929 295.3736 
L 217.969007 295.340648 
L 218.432894 295.431201 
L 218.499164 294.992905 
L 218.631703 295.308453 
L 219.02932 295.246526 
L 219.09559 295.12868 
L 219.161859 295.399521 
L 219.228129 295.354127 
L 219.692016 295.324389 
L 219.758285 295.407717 
L 219.824555 295.324958 
L 220.288442 295.366095 
L 220.420981 295.210433 
L 220.55352 295.380521 
L 220.951137 295.411262 
L 221.083676 295.091361 
L 221.282485 295.14086 
L 221.415024 295.118103 
L 221.878911 295.289537 
L 222.210259 295.262529 
L 222.342798 294.693696 
L 222.475337 295.184489 
L 222.872954 295.387087 
L 222.939224 294.606893 
L 223.005494 295.372301 
L 223.071763 295.343222 
L 223.53565 294.883935 
L 223.668189 295.281265 
L 223.734459 295.260237 
L 223.933267 295.309147 
L 224.132076 295.397973 
L 224.198345 295.144169 
L 224.397154 295.453686 
L 224.595963 295.391292 
L 225.192389 295.098506 
L 225.324928 294.934396 
L 225.391197 295.194011 
L 225.457467 294.899519 
L 225.523737 295.26361 
L 225.590006 295.247482 
L 226.120163 295.139055 
L 226.318971 295.368181 
L 226.45151 295.348349 
L 226.650319 295.395713 
L 226.782858 295.21352 
L 226.915397 295.360538 
L 227.313015 295.233838 
L 227.379284 294.954195 
L 227.511823 295.201925 
L 227.909441 295.305289 
L 228.04198 295.281248 
L 228.174519 295.386733 
L 228.572136 295.32177 
L 228.704675 295.319796 
L 228.969753 295.215301 
L 229.102292 295.064651 
L 229.301101 295.235621 
L 229.367371 295.305978 
L 229.43364 295.230164 
L 229.963797 295.229046 
L 230.030066 295.109757 
L 230.096336 295.151287 
L 230.295144 295.171183 
L 230.560223 295.15648 
L 230.692762 295.289199 
L 231.421727 295.375861 
L 231.753075 295.4311 
L 231.819344 295.113933 
L 231.951883 295.425511 
L 233.012196 295.375568 
L 233.078466 295.039188 
L 233.144735 295.22364 
L 233.343544 295.340274 
L 233.674892 295.183735 
L 233.741161 294.863475 
L 233.8737 295.415707 
L 234.205048 295.3964 
L 234.337587 295.222369 
L 234.403857 295.399807 
L 234.602665 295.422205 
L 234.801474 295.346808 
L 234.934013 295.215735 
L 235.000283 294.698541 
L 235.066552 295.318947 
L 235.132822 295.295718 
L 235.3979 295.3335 
L 235.861787 295.369594 
L 236.193135 295.357435 
L 236.259404 294.978742 
L 236.391943 295.473046 
L 236.657022 295.315488 
L 236.9221 295.080662 
L 237.120909 295.38323 
L 237.452256 295.379235 
L 237.518526 295.248481 
L 237.651065 295.362534 
L 238.4463 295.247128 
L 238.711378 295.207931 
L 239.241534 295.365081 
L 239.374073 295.267517 
L 239.440343 295.001875 
L 239.572882 295.266077 
L 239.83796 295.341394 
L 239.970499 295.387209 
L 240.036769 295.297208 
L 240.103038 295.356632 
L 240.964543 295.316446 
L 241.163351 295.39679 
L 241.229621 295.398893 
L 241.36216 294.873871 
L 241.494699 295.414791 
L 242.356203 295.33117 
L 242.488742 295.440233 
L 242.555012 295.354349 
L 242.621282 294.950189 
L 242.753821 295.388063 
L 243.151438 295.295578 
L 243.217708 294.974314 
L 243.283977 295.063406 
L 243.416516 295.30986 
L 243.747864 295.379621 
L 244.079212 295.30085 
L 244.34429 295.298955 
L 244.410559 295.260551 
L 244.476829 295.050034 
L 244.675638 295.386965 
L 245.735951 295.322988 
L 245.80222 295.267074 
L 245.86849 295.45144 
L 245.934759 295.425567 
L 246.729994 295.375273 
L 247.193881 295.438099 
L 247.657768 295.367863 
L 247.724037 295.211248 
L 247.790307 295.280958 
L 248.254194 295.30585 
L 248.320463 295.157242 
L 248.386733 295.244237 
L 248.651811 295.281472 
L 248.85062 295.309329 
L 248.983159 295.137706 
L 249.115698 295.440563 
L 249.513315 295.250649 
L 249.579585 295.450113 
L 249.645854 295.128673 
L 249.712124 295.155094 
L 249.910932 295.259085 
L 250.176011 295.291841 
L 250.24228 295.045837 
L 250.30855 295.13001 
L 250.507358 295.291444 
L 250.706167 295.332652 
L 250.772437 295.317267 
L 250.838706 295.038244 
L 250.971245 295.409576 
L 251.633941 295.354521 
L 252.031558 295.351835 
L 252.097828 295.180338 
L 252.164097 295.239163 
L 252.362906 295.427922 
L 252.561715 295.440044 
L 252.959332 295.393651 
L 254.616071 295.465348 
L 254.68234 295.103501 
L 254.74861 295.344829 
L 255.212497 295.400687 
L 255.278766 295.142632 
L 255.477575 295.475875 
L 255.875192 295.392987 
L 255.941462 295.232871 
L 256.074001 295.445736 
L 256.604157 295.417031 
L 256.802966 295.45888 
L 257.134314 295.455863 
L 257.200583 295.216651 
L 257.333123 295.45301 
L 257.66447 295.423265 
L 257.863279 295.204359 
L 257.929549 295.430133 
L 257.995818 295.34477 
L 258.393435 295.4059 
L 258.459705 295.086272 
L 258.592244 295.446197 
L 259.652557 295.374912 
L 259.718826 295.093271 
L 259.917635 295.390037 
L 260.315252 295.41698 
L 260.381522 295.070477 
L 260.514061 295.442207 
L 260.911678 295.384601 
L 261.044218 295.072962 
L 261.176757 295.436838 
L 261.640644 295.325004 
L 261.971991 295.476511 
L 262.369609 295.392499 
L 262.833496 295.423315 
L 262.899765 294.849197 
L 263.098574 295.380601 
L 263.363652 295.448252 
L 263.496191 295.325473 
L 263.562461 295.044102 
L 263.695 295.322166 
L 264.026347 295.301931 
L 264.622773 295.447285 
L 264.755313 295.348145 
L 264.821582 295.086838 
L 264.887852 295.385368 
L 264.954121 295.368923 
L 266.014434 295.433696 
L 266.080704 295.016675 
L 266.213243 295.394408 
L 266.412051 295.383054 
L 266.743399 295.19688 
L 266.875938 295.345847 
L 267.074747 295.347322 
L 267.273556 295.425638 
L 267.339825 294.823723 
L 267.406095 295.204387 
L 267.604903 295.448999 
L 267.869982 295.463087 
L 267.936251 295.372219 
L 268.002521 294.978013 
L 268.13506 295.418527 
L 268.333869 295.418107 
L 268.532677 295.296474 
L 268.598947 294.936727 
L 268.797755 295.439403 
L 270.587033 295.350062 
L 270.785842 295.426932 
L 271.05092 295.345551 
L 271.183459 295.015224 
L 271.315998 295.396295 
L 271.647346 295.4088 
L 271.713616 295.341769 
L 271.779885 294.508821 
L 271.846155 295.072162 
L 272.044964 295.33652 
L 272.310042 295.353505 
L 272.376311 295.259371 
L 272.442581 294.961854 
L 272.57512 295.445439 
L 272.972737 295.391355 
L 273.039007 295.220799 
L 273.105276 295.342859 
L 273.304085 295.448472 
L 273.502894 295.432335 
L 273.701702 295.242673 
L 273.767972 295.36981 
L 274.165589 295.355402 
L 274.231859 295.295932 
L 274.298128 294.969626 
L 274.364398 295.01309 
L 274.430667 295.394171 
L 274.496937 295.381954 
L 274.762015 295.247789 
L 274.894554 295.184902 
L 274.960824 294.82255 
L 275.093363 295.238778 
L 275.55725 295.393789 
L 275.623519 295.26367 
L 275.689789 295.378172 
L 276.021137 295.359594 
L 276.219945 295.012848 
L 276.418754 295.337698 
L 276.750102 295.407142 
L 276.816371 295.388003 
L 276.882641 295.21221 
L 277.01518 295.447358 
L 277.412797 295.362602 
L 277.545337 295.254277 
L 277.810415 295.43074 
L 278.141763 295.262598 
L 278.274302 295.450442 
L 278.605649 295.413601 
L 278.804458 295.221064 
L 278.936997 295.432806 
L 279.99731 295.352171 
L 280.06358 295.157991 
L 280.196119 295.466007 
L 280.593736 295.473379 
L 280.660006 295.067579 
L 280.726275 295.218561 
L 280.925084 295.364314 
L 281.256432 295.304476 
L 281.322701 295.220272 
L 281.388971 295.290096 
L 281.852858 295.345348 
L 281.919127 295.258974 
L 281.985397 295.438221 
L 282.051666 295.409088 
L 282.383014 295.447828 
L 282.515553 295.44875 
L 282.581823 295.122056 
L 282.648092 295.291513 
L 282.714362 295.374121 
L 282.780631 295.303821 
L 282.846901 295.334805 
L 283.04571 295.156023 
L 283.178249 295.012829 
L 283.310788 295.234834 
L 283.642136 295.258357 
L 283.774675 295.383389 
L 283.840944 294.74899 
L 283.973483 295.413083 
L 284.106022 295.428453 
L 284.371101 295.209837 
L 284.43737 295.195035 
L 284.50364 294.802984 
L 284.636179 295.210352 
L 284.967527 295.214384 
L 285.033796 295.135331 
L 285.100066 294.762307 
L 285.166335 295.348324 
L 285.232605 295.231439 
L 285.431413 295.112568 
L 285.696492 295.323845 
L 285.762761 294.971803 
L 285.8953 295.28695 
L 286.027839 295.291321 
L 286.226648 295.284281 
L 286.292918 295.25538 
L 286.359187 295.093289 
L 286.491726 295.253057 
L 286.823074 295.291627 
L 286.955613 295.354116 
L 287.021883 294.795729 
L 287.154422 295.344358 
L 287.552039 295.352117 
L 287.684578 294.81954 
L 287.817117 295.300846 
L 287.949657 295.417891 
L 288.214735 295.339704 
L 288.281004 294.727029 
L 288.413543 295.360729 
L 288.87743 295.24875 
L 289.009969 295.359334 
L 289.473856 295.201866 
L 289.540126 295.015742 
L 289.672665 295.288722 
L 290.004013 295.306145 
L 290.136552 295.210929 
L 290.202821 295.329201 
L 290.269091 295.242572 
L 290.534169 295.243629 
L 290.799247 295.287424 
L 290.865517 294.993331 
L 290.931786 295.142437 
L 291.263134 295.32512 
L 291.395673 295.329311 
L 291.461943 295.000474 
L 291.594482 295.305541 
L 291.793291 295.32954 
L 292.058369 295.33973 
L 292.124638 294.875577 
L 292.190908 295.151219 
L 292.522256 295.354478 
L 292.721064 295.243969 
L 292.919873 295.356303 
L 293.251221 295.27017 
L 293.38376 295.108537 
L 293.45003 295.375734 
L 293.516299 295.345167 
L 293.781377 295.306684 
L 293.913916 295.274706 
L 293.980186 295.113791 
L 294.046455 295.381132 
L 294.112725 295.343802 
L 294.510342 295.38126 
L 294.576612 295.312885 
L 294.642881 294.945971 
L 294.709151 295.397332 
L 294.775421 295.363855 
L 294.90796 295.377321 
L 295.106768 295.415776 
L 295.173038 295.372106 
L 295.305577 295.057634 
L 295.504386 295.357941 
L 295.902003 294.860667 
L 296.034542 295.259129 
L 296.233351 295.220924 
L 296.36589 295.313589 
L 296.432159 295.309372 
L 296.498429 295.439057 
L 296.564699 295.024139 
L 296.630968 295.251951 
L 297.094855 294.888624 
L 297.161125 294.417106 
L 297.293664 295.117794 
L 297.426203 295.060282 
L 297.492472 295.110925 
L 297.691281 294.865079 
L 297.757551 294.93456 
L 297.82382 294.676953 
L 297.956359 294.985427 
L 298.155168 295.09679 
L 298.353977 295.462878 
L 298.486516 294.589425 
L 298.685324 295.278828 
L 298.817863 295.434673 
L 299.082942 295.36633 
L 299.149211 295.486525 
L 299.34802 295.161654 
L 299.679368 295.213825 
L 299.745637 294.735471 
L 299.811907 294.889607 
L 299.944446 294.824618 
L 300.209524 294.704326 
L 300.342063 295.047479 
L 300.540872 294.420181 
L 300.607141 294.522579 
L 300.73968 294.618584 
L 300.938489 294.268838 
L 301.004759 294.781441 
L 301.137298 294.265327 
L 301.336106 294.648358 
L 301.468646 294.591072 
L 301.534915 294.381137 
L 301.601185 293.738542 
L 301.667454 294.005307 
L 301.733724 293.947743 
L 301.799993 294.072972 
L 301.866263 294.539926 
L 301.932532 293.839099 
L 301.998802 293.991 
L 302.197611 294.393425 
L 302.26388 293.40925 
L 302.33015 294.015324 
L 302.396419 294.029667 
L 302.462689 294.46819 
L 302.528958 294.421192 
L 302.661498 294.24495 
L 302.794037 294.570948 
L 302.860306 294.213512 
L 302.926576 295.186274 
L 302.992845 294.890774 
L 303.191654 294.89043 
L 303.324193 295.135774 
L 303.456732 294.219095 
L 303.523002 293.339363 
L 303.589271 294.106625 
L 303.655541 293.850062 
L 303.854349 293.118931 
L 303.986889 292.070558 
L 304.119428 291.178412 
L 304.185697 293.336212 
L 304.251967 292.42525 
L 304.517045 290.210048 
L 304.583315 291.090444 
L 304.649584 290.187077 
L 304.715854 290.559988 
L 304.782123 293.442932 
L 304.848393 289.769903 
L 304.914662 292.792573 
L 304.980932 292.609525 
L 305.24601 294.691357 
L 305.31228 293.759168 
L 305.444819 275.330755 
L 305.577358 291.423919 
L 305.776167 288.145252 
L 305.842436 288.512026 
L 305.908706 288.619761 
L 305.974975 285.031832 
L 306.041245 268.399016 
L 306.173784 291.721469 
L 306.306323 287.895469 
L 306.571401 263.991609 
L 306.637671 244.370984 
L 306.70394 110.700437 
L 306.77021 294.019309 
L 306.836479 284.999882 
L 307.101558 275.814084 
L 307.167827 275.261112 
L 307.300366 287.981979 
L 307.366636 267.170139 
L 307.432905 276.613882 
L 307.631714 287.940245 
L 307.697984 288.647377 
L 307.896792 293.766755 
L 307.963062 225.045068 
L 308.095601 291.412926 
L 308.22814 290.338239 
L 308.360679 288.588196 
L 308.426949 289.606198 
L 308.493218 287.52462 
L 308.559488 281.576302 
L 308.692027 294.250658 
L 308.758296 293.005528 
L 308.824566 292.730694 
L 308.890836 293.124017 
L 309.023375 288.548342 
L 309.089644 289.493114 
L 309.155914 290.44814 
L 309.222183 286.388379 
L 309.288453 290.723224 
L 309.354722 290.703066 
L 309.420992 290.453791 
L 309.487262 291.452968 
L 309.553531 291.231495 
L 309.951148 293.623212 
L 310.083688 293.347944 
L 310.149957 293.484788 
L 310.216227 293.422551 
L 310.481305 291.866478 
L 310.547574 293.760521 
L 310.613844 293.659612 
L 310.746383 293.986461 
L 310.812653 293.86734 
L 310.878922 294.000969 
L 310.945192 293.924858 
L 311.21027 293.45725 
L 311.27654 294.078682 
L 311.342809 294.018276 
L 311.475348 294.018528 
L 311.740426 294.620137 
L 311.806696 293.433086 
L 311.872966 293.950474 
L 311.939235 294.107803 
L 312.005505 294.022208 
L 312.204313 293.968983 
L 312.270583 294.28591 
L 312.336852 294.258012 
L 312.403122 292.891098 
L 312.535661 294.264701 
L 312.6682 294.422549 
L 312.867009 294.241557 
L 312.933278 294.369539 
L 312.999548 294.04887 
L 313.065818 295.082287 
L 313.132087 294.667109 
L 313.463435 294.570032 
L 313.595974 294.681041 
L 313.662244 294.598374 
L 313.728513 294.976744 
L 313.794783 294.889539 
L 313.861052 294.964673 
L 313.927322 294.850807 
L 313.993591 295.034582 
L 314.059861 294.892612 
L 314.12613 294.977409 
L 314.1924 294.831643 
L 314.258669 294.875572 
L 314.324939 294.835847 
L 314.457478 295.214493 
L 314.523748 295.18047 
L 314.590017 295.077841 
L 314.656287 295.168851 
L 314.855095 295.379026 
L 314.921365 294.812048 
L 314.987635 294.912247 
L 315.186443 295.233475 
L 315.252713 295.222109 
L 315.451521 295.355189 
L 315.517791 295.28852 
L 315.584061 294.45684 
L 315.65033 295.451612 
L 315.7166 295.395247 
L 315.981678 295.181307 
L 316.180487 295.281429 
L 316.246756 294.919664 
L 316.313026 295.004 
L 316.776913 295.397689 
L 316.843182 293.71524 
L 316.909452 295.404219 
L 316.975721 295.341446 
L 317.17453 295.279093 
L 317.307069 295.294944 
L 317.373339 295.185444 
L 317.439608 294.719549 
L 317.505878 294.835965 
L 317.572147 295.45924 
L 317.638417 295.268517 
L 317.903495 294.975004 
L 317.969765 294.97571 
L 318.036034 294.82901 
L 318.102304 291.45612 
L 318.234843 295.359159 
L 318.301112 295.399066 
L 318.63246 294.679033 
L 318.764999 294.179347 
L 318.831269 295.34504 
L 318.897538 295.0255 
L 319.096347 294.758857 
L 319.295156 294.81754 
L 319.361425 294.547411 
L 319.427695 294.693016 
L 319.560234 294.735467 
L 319.626503 294.818424 
L 319.692773 294.684477 
L 319.759042 294.758804 
L 319.957851 294.808325 
L 320.024121 294.288264 
L 320.09039 294.785073 
L 320.15666 294.775311 
L 320.355468 294.995868 
L 320.554277 294.985666 
L 320.620547 295.172214 
L 320.686816 294.630833 
L 320.753086 294.779871 
L 321.216973 294.93923 
L 321.283242 294.866819 
L 321.349512 294.95434 
L 321.54832 294.891091 
L 321.68086 294.895334 
L 321.945938 295.239204 
L 322.211016 294.839291 
L 322.476094 295.073531 
L 322.542364 294.853088 
L 322.608633 295.131252 
L 322.674903 295.068301 
L 322.873712 295.019023 
L 323.13879 294.861579 
L 323.403868 295.090834 
L 323.735216 295.315245 
L 323.801485 295.382376 
L 323.867755 295.02346 
L 323.934024 295.130961 
L 324.199103 295.224158 
L 324.464181 295.167712 
L 324.795529 295.030938 
L 325.060607 295.079553 
L 325.590763 294.828876 
L 325.855841 294.742905 
L 325.922111 294.691737 
L 325.988381 295.04273 
L 326.05465 294.879507 
L 326.187189 294.712989 
L 326.319728 294.822108 
L 326.385998 294.513338 
L 326.452267 294.733817 
L 326.783615 294.969879 
L 326.916154 294.93059 
L 326.982424 294.170699 
L 327.114963 294.842345 
L 327.247502 294.777302 
L 327.380041 294.788751 
L 327.51258 294.61917 
L 327.645119 294.903396 
L 327.711389 294.715681 
L 327.777659 294.789993 
L 327.976467 294.928674 
L 328.175276 294.781144 
L 328.241545 294.357637 
L 328.307815 294.597724 
L 328.506624 294.676619 
L 328.572893 294.88233 
L 328.639163 294.786683 
L 328.705432 294.809858 
L 328.837971 294.522192 
L 328.904241 295.234939 
L 328.97051 294.846209 
L 329.10305 294.628461 
L 329.301858 294.962183 
L 329.500667 294.749865 
L 329.566936 295.320639 
L 329.633206 295.140527 
L 329.832015 295.12573 
L 330.030823 295.215792 
L 330.097093 295.198508 
L 330.163362 295.053822 
L 330.229632 295.169743 
L 330.49471 295.303133 
L 330.693519 295.105149 
L 330.759788 294.887274 
L 330.826058 295.292306 
L 330.892328 295.260095 
L 331.157406 295.23609 
L 331.289945 295.327408 
L 331.356214 295.440999 
L 331.422484 295.111243 
L 331.555023 295.3731 
L 332.01891 295.369217 
L 332.08518 295.238431 
L 332.151449 295.443425 
L 332.217719 295.390716 
L 332.416527 295.366134 
L 332.615336 295.381145 
L 332.747875 295.199225 
L 332.946684 295.427468 
L 333.344301 294.903489 
L 333.410571 295.278562 
L 333.47684 295.254112 
L 333.741918 295.316964 
L 333.874457 295.352725 
L 334.006997 294.978957 
L 334.139536 295.234214 
L 334.404614 295.166807 
L 334.537153 295.271354 
L 334.603423 294.976377 
L 334.669692 295.34184 
L 334.735962 295.29166 
L 335.266118 295.04878 
L 335.464927 295.290706 
L 335.730005 295.369304 
L 336.326431 295.435036 
L 336.45897 295.376731 
L 336.52524 295.143334 
L 336.591509 295.289769 
L 337.121666 295.105243 
L 337.254205 295.281763 
L 337.718092 295.326439 
L 337.784361 294.145011 
L 337.850631 295.269971 
L 337.9169 295.259413 
L 338.181979 295.361386 
L 338.380787 295.364202 
L 338.579596 295.281269 
L 338.977213 295.320026 
L 339.043483 295.126268 
L 339.176022 295.378842 
L 339.573639 295.298526 
L 339.706178 294.904803 
L 339.838717 295.440538 
L 339.971256 295.327693 
L 340.170065 295.290339 
L 340.302604 295.318866 
L 340.368874 295.063123 
L 340.435143 295.131189 
L 340.633952 295.14501 
L 340.89903 295.237507 
L 340.9653 295.00806 
L 341.097839 295.272536 
L 341.495456 295.260773 
L 341.627995 295.028312 
L 341.694265 295.205751 
L 342.091882 295.404642 
L 342.158152 295.40728 
L 342.224421 294.896083 
L 342.290691 295.376178 
L 342.35696 295.361855 
L 342.820847 295.155578 
L 342.887117 295.126955 
L 343.019656 295.337755 
L 343.682352 295.297626 
L 343.88116 295.437913 
L 344.079969 295.175961 
L 344.146238 295.418818 
L 344.345047 295.05908 
L 344.676395 294.994061 
L 344.742664 294.691967 
L 344.941473 295.13468 
L 345.537899 295.366889 
L 345.802977 295.271742 
L 346.001786 295.404443 
L 346.068055 295.071359 
L 346.134325 295.237515 
L 346.399403 295.442845 
L 346.86329 295.253911 
L 347.260907 295.317856 
L 347.327177 295.214511 
L 347.459716 295.393989 
L 348.122412 295.291195 
L 348.453759 295.444341 
L 348.520029 295.358613 
L 348.586299 294.891729 
L 348.652568 295.286342 
L 348.718838 295.270132 
L 348.851377 295.238793 
L 349.116455 295.385006 
L 349.182724 295.247045 
L 349.248994 295.295827 
L 349.447803 295.414109 
L 349.91169 295.374093 
L 350.309307 295.400151 
L 350.441846 295.228318 
L 350.508116 295.091716 
L 350.574385 295.20417 
L 351.038272 295.357109 
L 351.104542 295.174829 
L 351.237081 295.416841 
L 351.700968 295.359851 
L 351.767237 295.146233 
L 351.966046 295.473451 
L 352.297394 295.453015 
L 352.363663 294.999316 
L 352.429933 295.30844 
L 352.695011 295.418768 
L 352.960089 295.468459 
L 353.026359 295.290619 
L 353.092628 295.372644 
L 353.887863 295.286656 
L 354.219211 295.440878 
L 354.28548 294.629274 
L 354.418019 295.39374 
L 355.478332 295.379163 
L 355.544602 295.173731 
L 355.677141 295.438515 
L 355.875949 295.445139 
L 356.074758 295.299639 
L 356.207297 294.821459 
L 356.339836 295.388762 
L 357.068801 295.464537 
L 357.400149 295.380419 
L 357.466419 295.036699 
L 357.598958 295.389348 
L 357.996575 295.205707 
L 358.062845 294.673274 
L 358.195384 295.317403 
L 358.659271 295.27997 
L 358.72554 295.045003 
L 358.858079 295.405644 
L 359.056888 295.384187 
L 359.255697 295.345588 
L 359.321966 295.447733 
L 359.388236 294.840279 
L 359.454505 295.082309 
L 359.852123 295.307315 
L 359.918392 295.300441 
L 359.984662 294.660124 
L 360.050931 295.305629 
L 360.117201 295.281918 
L 360.382279 295.311754 
L 360.581088 295.376871 
L 360.647357 295.12545 
L 360.713627 295.303357 
L 361.177514 295.335258 
L 361.243783 295.121503 
L 361.310053 295.17917 
L 361.508862 295.350616 
L 361.641401 295.398454 
L 361.77394 295.463656 
L 361.840209 295.386442 
L 361.906479 294.882963 
L 362.039018 295.417575 
L 362.370366 295.31115 
L 362.436635 295.293571 
L 362.502905 295.141385 
L 362.701714 295.423968 
L 362.900522 295.385091 
L 363.099331 295.424641 
L 363.1656 295.155883 
L 363.29814 295.420805 
L 363.695757 295.305276 
L 363.762026 295.222655 
L 363.894565 295.350251 
L 364.358452 295.382791 
L 364.424722 295.195839 
L 364.557261 295.393502 
L 364.954878 295.354181 
L 365.352496 295.314848 
L 365.617574 295.385732 
L 365.683843 295.105395 
L 365.816383 295.434948 
L 366.081461 295.458681 
L 366.744156 295.340644 
L 366.876695 295.345148 
L 366.942965 295.01752 
L 367.009235 295.17178 
L 367.208043 295.424706 
L 367.539391 295.459701 
L 367.605661 295.042052 
L 367.7382 295.466093 
L 368.334626 295.280913 
L 368.665973 295.391702 
L 368.798512 295.395163 
L 368.864782 295.172148 
L 368.931052 295.445243 
L 368.997321 295.401417 
L 369.328669 295.315939 
L 369.527478 295.254701 
L 369.660017 295.291134 
L 369.858825 295.242938 
L 370.190173 295.360037 
L 370.521521 295.391729 
L 370.72033 295.312563 
L 370.786599 295.1219 
L 370.919138 295.288929 
L 371.316756 295.263175 
L 371.383025 295.09519 
L 371.449295 295.19148 
L 371.648103 295.329126 
L 371.979451 295.4357 
L 372.17826 295.416104 
L 372.575877 295.334871 
L 372.708416 295.120984 
L 372.840955 295.369529 
L 373.238573 295.367466 
L 373.304842 295.0128 
L 373.371112 295.441467 
L 373.437381 295.39764 
L 373.70246 295.410232 
L 373.901268 295.386985 
L 373.967538 295.160676 
L 374.100077 295.347118 
L 374.431425 295.34883 
L 374.497694 295.364563 
L 374.563964 295.17203 
L 374.696503 295.439317 
L 375.226659 295.356015 
L 375.359198 295.434269 
L 375.756816 295.394345 
L 375.823085 295.136967 
L 375.889355 295.262726 
L 375.955624 295.464737 
L 376.021894 295.406638 
L 376.353242 295.34985 
L 376.419511 295.376089 
L 376.485781 295.165295 
L 376.61832 295.477464 
L 377.281015 295.383732 
L 377.479824 295.38349 
L 377.678633 295.270828 
L 377.744902 295.019776 
L 377.811172 295.364691 
L 377.877441 295.332353 
L 378.341328 295.163658 
L 378.407598 295.080838 
L 378.540137 295.336847 
L 378.738946 295.335633 
L 378.937754 295.189218 
L 379.004024 294.912263 
L 379.070293 295.41869 
L 379.136563 295.321214 
L 379.60045 295.298815 
L 379.865528 295.337174 
L 380.196876 295.377136 
L 380.263145 294.997291 
L 380.329415 295.079107 
L 380.461954 295.449126 
L 380.925841 295.218357 
L 381.12465 295.353163 
L 381.389728 295.342949 
L 381.588536 295.319076 
L 381.787345 295.402864 
L 382.118693 295.432968 
L 382.184962 295.19811 
L 382.251232 295.469384 
L 382.317502 295.452055 
L 382.847658 295.322703 
L 383.046467 295.375768 
L 383.377814 295.36247 
L 383.444084 295.01259 
L 383.510354 295.236781 
L 383.709162 295.436221 
L 384.04051 295.383086 
L 384.106779 295.095999 
L 384.239319 295.320493 
L 384.636936 295.434657 
L 384.769475 295.162446 
L 384.968284 295.36817 
L 385.299631 295.411882 
L 385.365901 295.085009 
L 385.49844 295.446619 
L 385.763518 295.393719 
L 386.625023 295.116972 
L 386.691292 295.348829 
L 386.757562 295.3238 
L 387.353988 295.290847 
L 387.619066 295.381412 
L 387.817875 295.285944 
L 387.884144 294.988178 
L 388.016683 295.440157 
L 388.811918 295.302447 
L 389.076996 295.327014 
L 389.143266 295.092129 
L 389.209535 295.220785 
L 389.342074 295.44593 
L 389.739692 295.283282 
L 389.805961 294.88892 
L 389.872231 295.263046 
L 389.9385 295.20589 
L 390.137309 295.260216 
L 390.402387 295.278687 
L 390.468657 294.774743 
L 390.601196 295.287615 
L 390.998813 295.224656 
L 391.065083 294.938372 
L 391.197622 295.20841 
L 391.4627 295.18035 
L 391.661509 295.293423 
L 391.727778 295.092157 
L 391.926587 295.398759 
L 392.257935 295.34674 
L 392.390474 295.064094 
L 392.589282 295.257834 
L 393.583326 295.306509 
L 393.715865 295.46416 
L 393.782134 295.402104 
L 394.113482 295.234259 
L 394.179752 295.236743 
L 394.246021 295.093604 
L 394.312291 295.140337 
L 394.577369 295.282975 
L 395.306334 295.322445 
L 395.703951 295.265167 
L 396.764264 295.31124 
L 396.896803 295.232006 
L 397.294421 295.379837 
L 397.758308 295.25519 
L 398.023386 295.395826 
L 398.089655 295.09058 
L 398.155925 295.300953 
L 398.288464 295.355746 
L 398.487273 295.375762 
L 398.487273 295.375762 
" clip-path="url(#p2264cae464)" style="fill: none; stroke: #1f77b4; stroke-width: 1.5; stroke-linecap: square"/>
   </g>
   <g id="patch_3">
    <path d="M 57.6 307.584 
L 57.6 41.472 
" style="fill: none; stroke: #000000; stroke-width: 0.8; stroke-linejoin: miter; stroke-linecap: square"/>
   </g>
   <g id="patch_4">
    <path d="M 414.72 307.584 
L 414.72 41.472 
" style="fill: none; stroke: #000000; stroke-width: 0.8; stroke-linejoin: miter; stroke-linecap: square"/>
   </g>
   <g id="patch_5">
    <path d="M 57.6 307.584 
L 414.72 307.584 
" style="fill: none; stroke: #000000; stroke-width: 0.8; stroke-linejoin: miter; stroke-linecap: square"/>
   </g>
   <g id="patch_6">
    <path d="M 57.6 41.472 
L 414.72 41.472 
" style="fill: none; stroke: #000000; stroke-width: 0.8; stroke-linejoin: miter; stroke-linecap: square"/>
   </g>
   <g id="text_18">
    <text style="font: 12px 'IPAexGothic'; text-anchor: middle" x="236.16" y="35.472" transform="rotate(-0 236.16 35.472)">"062_A6.wav"の振幅スペクトル</text>
   </g>
  </g>
 </g>
 <defs>
  <clipPath id="p2264cae464">
   <rect x="57.6" y="41.472" width="357.12" height="266.112"/>
  </clipPath>
 </defs>
</svg>
