<?xml version="1.0" encoding="utf-8" standalone="no"?>
<!DOCTYPE svg PUBLIC "-//W3C//DTD SVG 1.1//EN"
  "http://www.w3.org/Graphics/SVG/1.1/DTD/svg11.dtd">
<svg xmlns:xlink="http://www.w3.org/1999/xlink" width="460.8pt" height="345.6pt" viewBox="0 0 460.8 345.6" xmlns="http://www.w3.org/2000/svg" version="1.1">
 <metadata>
  <rdf:RDF xmlns:dc="http://purl.org/dc/elements/1.1/" xmlns:cc="http://creativecommons.org/ns#" xmlns:rdf="http://www.w3.org/1999/02/22-rdf-syntax-ns#">
   <cc:Work>
    <dc:type rdf:resource="http://purl.org/dc/dcmitype/StillImage"/>
    <dc:date>2022-11-28T12:30:57.840126</dc:date>
    <dc:format>image/svg+xml</dc:format>
    <dc:creator>
     <cc:Agent>
      <dc:title>Matplotlib v3.6.2, https://matplotlib.org/</dc:title>
     </cc:Agent>
    </dc:creator>
   </cc:Work>
  </rdf:RDF>
 </metadata>
 <defs>
  <style type="text/css">*{stroke-linejoin: round; stroke-linecap: butt}</style>
 </defs>
 <g id="figure_1">
  <g id="patch_1">
   <path d="M 0 345.6 
L 460.8 345.6 
L 460.8 0 
L 0 0 
z
" style="fill: #ffffff"/>
  </g>
  <g id="axes_1">
   <g id="patch_2">
    <path d="M 57.6 307.584 
L 414.72 307.584 
L 414.72 41.472 
L 57.6 41.472 
z
" style="fill: #ffffff"/>
   </g>
   <g id="matplotlib.axis_1">
    <g id="xtick_1">
     <g id="line2d_1">
      <defs>
       <path id="m69552e56ec" d="M 0 0 
L 0 3.5 
" style="stroke: #000000; stroke-width: 0.8"/>
      </defs>
      <g>
       <use xlink:href="#m69552e56ec" x="73.832727" y="307.584" style="stroke: #000000; stroke-width: 0.8"/>
      </g>
     </g>
     <g id="text_1">
      <text style="font: 10px 'IPAexGothic'; text-anchor: middle" x="73.832727" y="322.074625" transform="rotate(-0 73.832727 322.074625)">0</text>
     </g>
    </g>
    <g id="xtick_2">
     <g id="line2d_2">
      <g>
       <use xlink:href="#m69552e56ec" x="140.102281" y="307.584" style="stroke: #000000; stroke-width: 0.8"/>
      </g>
     </g>
     <g id="text_2">
      <text style="font: 10px 'IPAexGothic'; text-anchor: middle" x="140.102281" y="322.074625" transform="rotate(-0 140.102281 322.074625)">1000</text>
     </g>
    </g>
    <g id="xtick_3">
     <g id="line2d_3">
      <g>
       <use xlink:href="#m69552e56ec" x="206.371835" y="307.584" style="stroke: #000000; stroke-width: 0.8"/>
      </g>
     </g>
     <g id="text_3">
      <text style="font: 10px 'IPAexGothic'; text-anchor: middle" x="206.371835" y="322.074625" transform="rotate(-0 206.371835 322.074625)">2000</text>
     </g>
    </g>
    <g id="xtick_4">
     <g id="line2d_4">
      <g>
       <use xlink:href="#m69552e56ec" x="272.64139" y="307.584" style="stroke: #000000; stroke-width: 0.8"/>
      </g>
     </g>
     <g id="text_4">
      <text style="font: 10px 'IPAexGothic'; text-anchor: middle" x="272.64139" y="322.074625" transform="rotate(-0 272.64139 322.074625)">3000</text>
     </g>
    </g>
    <g id="xtick_5">
     <g id="line2d_5">
      <g>
       <use xlink:href="#m69552e56ec" x="338.910944" y="307.584" style="stroke: #000000; stroke-width: 0.8"/>
      </g>
     </g>
     <g id="text_5">
      <text style="font: 10px 'IPAexGothic'; text-anchor: middle" x="338.910944" y="322.074625" transform="rotate(-0 338.910944 322.074625)">4000</text>
     </g>
    </g>
    <g id="xtick_6">
     <g id="line2d_6">
      <g>
       <use xlink:href="#m69552e56ec" x="405.180498" y="307.584" style="stroke: #000000; stroke-width: 0.8"/>
      </g>
     </g>
     <g id="text_6">
      <text style="font: 10px 'IPAexGothic'; text-anchor: middle" x="405.180498" y="322.074625" transform="rotate(-0 405.180498 322.074625)">5000</text>
     </g>
    </g>
    <g id="text_7">
     <text style="font: 10px 'IPAexGothic'; text-anchor: middle" x="236.16" y="335.924625" transform="rotate(-0 236.16 335.924625)">周波数[Hz]</text>
    </g>
   </g>
   <g id="matplotlib.axis_2">
    <g id="ytick_1">
     <g id="line2d_7">
      <defs>
       <path id="m0b1efa30a4" d="M 0 0 
L -3.5 0 
" style="stroke: #000000; stroke-width: 0.8"/>
      </defs>
      <g>
       <use xlink:href="#m0b1efa30a4" x="57.6" y="295.488698" style="stroke: #000000; stroke-width: 0.8"/>
      </g>
     </g>
     <g id="text_8">
      <text style="font: 10px 'IPAexGothic'; text-anchor: end" x="50.6" y="299.234011" transform="rotate(-0 50.6 299.234011)">0.0</text>
     </g>
    </g>
    <g id="ytick_2">
     <g id="line2d_8">
      <g>
       <use xlink:href="#m0b1efa30a4" x="57.6" y="265.748208" style="stroke: #000000; stroke-width: 0.8"/>
      </g>
     </g>
     <g id="text_9">
      <text style="font: 10px 'IPAexGothic'; text-anchor: end" x="50.6" y="269.493521" transform="rotate(-0 50.6 269.493521)">0.5</text>
     </g>
    </g>
    <g id="ytick_3">
     <g id="line2d_9">
      <g>
       <use xlink:href="#m0b1efa30a4" x="57.6" y="236.007718" style="stroke: #000000; stroke-width: 0.8"/>
      </g>
     </g>
     <g id="text_10">
      <text style="font: 10px 'IPAexGothic'; text-anchor: end" x="50.6" y="239.753031" transform="rotate(-0 50.6 239.753031)">1.0</text>
     </g>
    </g>
    <g id="ytick_4">
     <g id="line2d_10">
      <g>
       <use xlink:href="#m0b1efa30a4" x="57.6" y="206.267228" style="stroke: #000000; stroke-width: 0.8"/>
      </g>
     </g>
     <g id="text_11">
      <text style="font: 10px 'IPAexGothic'; text-anchor: end" x="50.6" y="210.012541" transform="rotate(-0 50.6 210.012541)">1.5</text>
     </g>
    </g>
    <g id="ytick_5">
     <g id="line2d_11">
      <g>
       <use xlink:href="#m0b1efa30a4" x="57.6" y="176.526738" style="stroke: #000000; stroke-width: 0.8"/>
      </g>
     </g>
     <g id="text_12">
      <text style="font: 10px 'IPAexGothic'; text-anchor: end" x="50.6" y="180.272051" transform="rotate(-0 50.6 180.272051)">2.0</text>
     </g>
    </g>
    <g id="ytick_6">
     <g id="line2d_12">
      <g>
       <use xlink:href="#m0b1efa30a4" x="57.6" y="146.786248" style="stroke: #000000; stroke-width: 0.8"/>
      </g>
     </g>
     <g id="text_13">
      <text style="font: 10px 'IPAexGothic'; text-anchor: end" x="50.6" y="150.531561" transform="rotate(-0 50.6 150.531561)">2.5</text>
     </g>
    </g>
    <g id="ytick_7">
     <g id="line2d_13">
      <g>
       <use xlink:href="#m0b1efa30a4" x="57.6" y="117.045759" style="stroke: #000000; stroke-width: 0.8"/>
      </g>
     </g>
     <g id="text_14">
      <text style="font: 10px 'IPAexGothic'; text-anchor: end" x="50.6" y="120.791071" transform="rotate(-0 50.6 120.791071)">3.0</text>
     </g>
    </g>
    <g id="ytick_8">
     <g id="line2d_14">
      <g>
       <use xlink:href="#m0b1efa30a4" x="57.6" y="87.305269" style="stroke: #000000; stroke-width: 0.8"/>
      </g>
     </g>
     <g id="text_15">
      <text style="font: 10px 'IPAexGothic'; text-anchor: end" x="50.6" y="91.050581" transform="rotate(-0 50.6 91.050581)">3.5</text>
     </g>
    </g>
    <g id="ytick_9">
     <g id="line2d_15">
      <g>
       <use xlink:href="#m0b1efa30a4" x="57.6" y="57.564779" style="stroke: #000000; stroke-width: 0.8"/>
      </g>
     </g>
     <g id="text_16">
      <text style="font: 10px 'IPAexGothic'; text-anchor: end" x="50.6" y="61.310091" transform="rotate(-0 50.6 61.310091)">4.0</text>
     </g>
    </g>
    <g id="text_17">
     <text style="font: 10px 'IPAexGothic'; text-anchor: middle" x="29.460938" y="174.528" transform="rotate(-90 29.460938 174.528)">振幅</text>
    </g>
    <g id="text_18">
     <text style="font: 10px 'IPAexGothic'; text-anchor: start" x="57.6" y="38.472" transform="rotate(-0 57.6 38.472)">1e7</text>
    </g>
   </g>
   <g id="line2d_16">
    <path d="M 73.832727 291.406804 
L 73.965266 295.154357 
L 74.164075 295.270965 
L 83.77316 295.269578 
L 86.225134 295.251422 
L 89.73742 295.211104 
L 96.364376 295.012717 
L 96.960802 294.989323 
L 97.292149 294.991372 
L 98.021115 294.76509 
L 98.551271 294.846878 
L 98.948888 294.879164 
L 99.015158 294.874713 
L 99.213966 294.621139 
L 99.280236 294.575387 
L 99.479045 294.275631 
L 99.942932 293.543965 
L 100.274279 294.54031 
L 100.340549 295.316506 
L 100.406818 294.759848 
L 100.473088 295.193805 
L 101.003244 292.070799 
L 101.069514 291.933514 
L 101.73221 286.26409 
L 101.931018 291.098249 
L 101.997288 285.938922 
L 102.063557 288.295691 
L 102.129827 288.307584 
L 102.394905 279.764139 
L 102.461175 279.974376 
L 102.659983 267.308442 
L 102.726253 268.720075 
L 102.925062 250.398984 
L 102.991331 227.2812 
L 103.057601 53.568 
L 103.19014 287.5029 
L 103.256409 287.873253 
L 103.322679 287.441999 
L 103.388948 284.231332 
L 103.455218 290.479678 
L 103.521488 287.285137 
L 103.985374 293.883618 
L 104.051644 293.840661 
L 104.117913 293.508845 
L 104.184183 293.754741 
L 104.316722 293.25461 
L 104.5818 293.559201 
L 104.714339 294.004494 
L 104.979418 294.047834 
L 105.045687 294.149555 
L 105.111957 293.800249 
L 105.178226 293.861391 
L 105.377035 294.35539 
L 105.642113 294.645169 
L 106.039731 294.570909 
L 106.371078 294.837719 
L 106.503617 294.678364 
L 107.6302 294.910022 
L 108.624243 295.074961 
L 108.955591 295.088176 
L 109.353208 295.128857 
L 109.817095 295.12943 
L 110.280982 295.192251 
L 111.540104 295.23398 
L 112.666686 295.310457 
L 113.130573 295.298992 
L 114.190886 295.334118 
L 115.251199 295.379818 
L 115.847625 295.377301 
L 116.709129 295.413228 
L 118.100789 295.407067 
L 119.624989 295.401659 
L 120.817841 295.36466 
L 121.414267 295.366227 
L 121.944424 295.3462 
L 122.209502 295.306973 
L 122.47458 295.368105 
L 123.004736 295.346109 
L 124.794014 295.329825 
L 124.926553 295.376426 
L 125.39044 295.287114 
L 125.854327 295.244818 
L 126.119405 295.144695 
L 126.450753 295.24565 
L 126.649562 295.285943 
L 127.179718 295.32292 
L 127.378527 295.190062 
L 127.511066 294.947974 
L 128.107492 294.696112 
L 128.173762 294.829562 
L 128.240031 294.796271 
L 128.37257 294.798595 
L 128.703918 295.197559 
L 128.902727 294.63291 
L 128.968996 294.628729 
L 129.101535 293.9298 
L 129.167805 293.474146 
L 129.234074 293.678424 
L 129.631692 292.829243 
L 129.697961 292.957242 
L 129.764231 293.495485 
L 129.8305 292.86931 
L 129.89677 293.280402 
L 130.029309 294.105462 
L 130.161848 292.996583 
L 130.294387 293.494939 
L 130.426926 293.237878 
L 130.625735 290.221924 
L 130.692005 290.69058 
L 130.957083 286.785114 
L 131.023352 287.676697 
L 131.288431 286.66196 
L 131.42097 289.914075 
L 131.487239 289.334303 
L 131.619778 291.547472 
L 132.149935 263.690108 
L 132.282474 137.203153 
L 132.415013 286.703748 
L 132.547552 292.292803 
L 132.613822 284.952755 
L 132.680091 292.316539 
L 132.746361 289.495549 
L 132.94517 291.223971 
L 133.011439 291.254566 
L 133.276517 293.902506 
L 133.409056 294.023079 
L 133.607865 293.736184 
L 133.674135 293.747974 
L 134.071752 294.638641 
L 134.138021 294.522463 
L 134.33683 294.249485 
L 134.999526 294.751284 
L 135.065795 294.644629 
L 135.264604 294.541205 
L 135.595952 294.842317 
L 135.79476 294.888517 
L 136.059839 294.815522 
L 137.517769 295.03027 
L 137.849117 295.054465 
L 138.909429 295.148 
L 139.572125 295.145464 
L 140.632438 295.157575 
L 141.560212 295.184289 
L 142.289177 295.198659 
L 143.084411 295.239767 
L 144.409802 295.266731 
L 147.126854 295.33481 
L 147.524471 295.331222 
L 148.253437 295.315476 
L 151.103027 295.281687 
L 151.301836 295.265996 
L 152.295879 295.344978 
L 152.826036 295.301816 
L 153.356192 295.332457 
L 153.753809 295.411027 
L 154.350235 295.327541 
L 154.880392 295.41948 
L 155.278009 295.36105 
L 156.006974 295.347443 
L 156.272053 295.451231 
L 156.537131 295.27791 
L 156.6034 295.146659 
L 156.66967 295.265387 
L 156.934748 295.025929 
L 157.067287 294.92267 
L 157.199826 294.965598 
L 157.663713 294.809595 
L 157.729983 294.74248 
L 157.796252 294.889083 
L 157.862522 294.849194 
L 158.061331 294.542967 
L 158.1276 294.503991 
L 158.19387 294.695098 
L 158.260139 294.602122 
L 158.392678 294.41867 
L 158.657756 294.78371 
L 158.724026 294.659478 
L 158.922835 294.608054 
L 159.254182 294.161341 
L 159.320452 294.562596 
L 159.386722 293.830513 
L 159.452991 294.114678 
L 159.519261 293.817371 
L 159.58553 293.954832 
L 159.6518 294.005516 
L 159.718069 293.878225 
L 159.784339 294.409251 
L 159.850608 294.303514 
L 159.983148 294.270478 
L 160.049417 294.499993 
L 160.115687 294.219906 
L 160.181956 294.334593 
L 160.380765 293.865481 
L 160.447034 293.919983 
L 160.645843 294.107096 
L 160.712113 293.984077 
L 160.910921 294.669088 
L 160.977191 294.656945 
L 161.04346 294.143721 
L 161.10973 291.796867 
L 161.176 292.929777 
L 161.374808 287.694805 
L 161.507347 260.41127 
L 161.639886 292.730132 
L 161.706156 295.031092 
L 161.772426 294.4972 
L 161.838695 292.397776 
L 161.971234 294.273041 
L 162.103773 294.194055 
L 162.435121 294.988848 
L 162.63393 295.277117 
L 162.832738 294.898032 
L 162.965278 294.987342 
L 163.031547 294.907871 
L 163.164086 295.172142 
L 163.495434 295.160429 
L 163.826782 295.092555 
L 164.290669 295.250113 
L 164.688286 295.264819 
L 165.019634 295.289237 
L 165.417251 295.254703 
L 166.610103 295.377371 
L 166.742642 295.300886 
L 167.935494 295.336058 
L 168.399381 295.355223 
L 168.664459 295.289433 
L 169.128346 295.251548 
L 169.658502 295.345338 
L 172.044206 295.310702 
L 172.574363 295.33463 
L 173.700945 295.393795 
L 173.966023 295.418611 
L 174.562449 295.327971 
L 175.158875 295.429576 
L 175.490223 295.404817 
L 175.887841 295.364731 
L 176.484267 295.360135 
L 177.279501 295.367506 
L 178.472353 295.400689 
L 179.068779 295.372186 
L 179.598936 295.329309 
L 179.996553 295.415742 
L 180.261631 295.459691 
L 180.924327 295.359251 
L 183.773917 295.380068 
L 183.972726 295.305056 
L 184.370343 295.349457 
L 184.701691 295.392489 
L 185.099309 295.388331 
L 185.298117 295.438945 
L 185.496926 295.291016 
L 185.695735 295.136397 
L 185.894543 295.130326 
L 186.093352 295.005277 
L 186.4247 295.233653 
L 187.087395 294.961865 
L 187.286204 294.667085 
L 187.485013 294.87882 
L 187.617552 294.894351 
L 187.750091 294.82706 
L 187.81636 295.133653 
L 187.88263 294.652831 
L 187.948899 294.725112 
L 188.015169 294.82833 
L 188.081439 294.715697 
L 188.147708 294.902665 
L 188.213978 294.769362 
L 188.479056 294.673103 
L 188.545325 294.779623 
L 188.611595 294.666251 
L 188.744134 294.957594 
L 188.810404 294.832067 
L 188.876673 294.950874 
L 188.942943 294.821314 
L 189.141751 295.177154 
L 189.34056 294.906755 
L 189.473099 295.220543 
L 189.539369 295.187793 
L 189.804447 295.145256 
L 190.069525 295.272448 
L 190.202064 295.393807 
L 190.334603 294.619117 
L 190.400873 295.173524 
L 190.467142 294.984449 
L 190.533412 294.617795 
L 190.599682 293.248554 
L 190.665951 288.928785 
L 190.732221 289.351137 
L 190.931029 294.646894 
L 191.196108 295.358988 
L 191.726264 295.286537 
L 192.190151 295.34907 
L 192.38896 295.30777 
L 193.581812 295.360955 
L 194.443316 295.324042 
L 196.431402 295.421274 
L 196.76275 295.404345 
L 197.226637 295.321063 
L 197.756793 295.395757 
L 198.353219 295.405525 
L 198.750837 295.387812 
L 198.883376 295.33849 
L 199.280993 295.314593 
L 200.407576 295.309492 
L 200.672654 295.371277 
L 200.937732 295.433067 
L 201.20281 295.394199 
L 202.263123 295.434175 
L 202.461932 295.43532 
L 202.925819 295.340347 
L 203.721053 295.400155 
L 204.052401 295.483575 
L 204.25121 295.368285 
L 205.70914 295.385561 
L 206.239296 295.333803 
L 206.968261 295.372845 
L 207.16707 295.438679 
L 207.365879 295.336943 
L 207.697227 295.243288 
L 208.293653 295.37348 
L 208.757539 295.370159 
L 209.022618 295.417066 
L 209.685313 295.288538 
L 209.950391 295.322873 
L 210.1492 295.324871 
L 210.414278 295.391909 
L 210.745626 295.405239 
L 211.805939 295.217955 
L 212.269826 295.414487 
L 212.468634 295.34369 
L 212.601174 295.326406 
L 212.866252 295.181988 
L 213.06506 295.09075 
L 213.13133 295.177342 
L 213.1976 295.106295 
L 213.528947 295.102994 
L 213.595217 295.348354 
L 213.727756 295.128276 
L 213.926565 295.246838 
L 214.125373 295.113673 
L 214.257912 295.008043 
L 214.456721 294.864682 
L 214.920608 294.971231 
L 215.053147 294.968022 
L 215.185686 295.009246 
L 215.251956 295.190943 
L 215.384495 294.927236 
L 215.450764 295.015319 
L 215.649573 294.829994 
L 215.848382 294.930516 
L 216.04719 294.749684 
L 216.11346 294.903707 
L 216.179729 294.853966 
L 216.577347 294.620545 
L 216.643616 294.866355 
L 216.709886 294.721106 
L 216.842425 294.454763 
L 216.908695 294.85302 
L 217.107503 293.959552 
L 217.240042 294.108603 
L 217.372581 294.216588 
L 217.438851 294.101488 
L 217.505121 293.15519 
L 217.63766 294.331749 
L 217.703929 294.099397 
L 217.836468 294.781275 
L 217.902738 294.722616 
L 218.167816 294.062663 
L 218.300355 294.370795 
L 218.366625 294.303972 
L 218.432894 294.24388 
L 218.764242 295.307 
L 219.09559 293.780096 
L 219.228129 294.098618 
L 219.426938 293.942411 
L 219.559477 292.997065 
L 219.625746 294.514627 
L 219.692016 293.832739 
L 219.758285 292.942775 
L 219.824555 289.346299 
L 219.890824 270.33054 
L 219.957094 276.630155 
L 220.155903 293.508073 
L 220.222172 292.998895 
L 220.288442 293.23875 
L 220.420981 295.30459 
L 220.48725 295.077085 
L 220.752329 294.871131 
L 221.282485 295.400549 
L 221.348755 295.299511 
L 221.613833 295.259659 
L 222.210259 295.408031 
L 222.409068 295.388887 
L 223.071763 295.393293 
L 223.46938 295.461145 
L 233.807431 295.46344 
L 234.271318 295.423232 
L 235.199091 295.466274 
L 235.530439 295.455897 
L 236.325674 295.370604 
L 236.657022 295.412508 
L 237.253448 295.407269 
L 238.645108 295.46629 
L 239.90423 295.416456 
L 240.500656 295.42018 
L 240.964543 295.238687 
L 241.097082 295.277135 
L 241.627238 295.36531 
L 241.892316 295.446749 
L 242.223664 295.427014 
L 242.488742 295.358146 
L 243.814133 295.239695 
L 243.946673 295.268884 
L 244.211751 295.090108 
L 244.27802 295.124741 
L 244.476829 294.830645 
L 244.675638 294.843031 
L 244.741907 294.813866 
L 244.808177 294.612643 
L 244.874446 294.860722 
L 244.940716 294.745303 
L 245.073255 294.700965 
L 245.139525 294.831506 
L 245.272064 294.5139 
L 245.338333 294.687386 
L 245.404603 294.619258 
L 245.603411 294.596978 
L 245.669681 294.865042 
L 245.80222 294.532003 
L 246.133568 295.123311 
L 246.266107 294.626226 
L 246.464916 294.850167 
L 246.531185 294.708736 
L 246.796263 295.079987 
L 246.995072 295.02931 
L 247.061342 295.157156 
L 247.127611 295.097169 
L 247.458959 295.139312 
L 247.525229 294.99165 
L 247.591498 295.041422 
L 247.724037 295.135663 
L 247.922846 295.102588 
L 248.187924 295.34623 
L 248.519272 294.916379 
L 248.585541 295.005403 
L 248.651811 294.883068 
L 248.71808 294.509773 
L 248.85062 295.041684 
L 248.916889 295.022555 
L 248.983159 295.044815 
L 249.049428 294.345467 
L 249.115698 287.484249 
L 249.314506 294.239572 
L 249.712124 295.381015 
L 249.844663 295.404333 
L 250.043472 295.271005 
L 250.374819 295.308094 
L 251.236324 295.415928 
L 252.495445 295.432218 
L 253.158141 295.420928 
L 253.688297 295.452863 
L 253.887106 295.421501 
L 256.471618 295.418313 
L 256.736697 295.433229 
L 257.399392 295.388569 
L 258.857322 295.325305 
L 259.18867 295.387566 
L 259.652557 295.471039 
L 260.050174 295.427009 
L 260.580331 295.442881 
L 261.044218 295.4286 
L 261.574374 295.381301 
L 262.369609 295.434151 
L 263.164843 295.445226 
L 263.429922 295.413362 
L 264.291426 295.422254 
L 264.689043 295.386038 
L 265.15293 295.383305 
L 265.418008 295.352619 
L 268.731486 295.415425 
L 272.64139 295.204047 
L 272.773929 295.157884 
L 273.039007 295.259995 
L 273.834241 295.281902 
L 274.03305 295.043684 
L 274.364398 295.053268 
L 274.430667 294.977463 
L 274.496937 295.061266 
L 275.027093 294.978633 
L 275.292172 294.896838 
L 275.424711 294.98311 
L 276.021137 295.181749 
L 276.153676 294.94142 
L 276.286215 295.031984 
L 276.485024 295.080048 
L 276.617563 295.309743 
L 276.683832 295.295753 
L 276.882641 295.032691 
L 277.08145 295.063339 
L 277.147719 294.983981 
L 277.479067 295.474495 
L 277.942954 293.811473 
L 278.009223 294.889673 
L 278.075493 294.759818 
L 278.141763 294.79396 
L 278.274302 295.124858 
L 278.340571 284.10695 
L 278.47311 293.672617 
L 279.069536 295.427376 
L 279.135806 295.363366 
L 279.400884 295.261631 
L 279.93104 295.437277 
L 280.394927 295.432774 
L 280.858814 295.430018 
L 281.322701 295.426366 
L 281.654049 295.47754 
L 286.094109 295.450009 
L 286.889344 295.417197 
L 287.48577 295.457376 
L 289.076239 295.466342 
L 289.738934 295.413402 
L 292.124638 295.462188 
L 297.558742 295.286085 
L 298.155168 295.29674 
L 298.619055 295.396886 
L 299.944446 295.204287 
L 300.474602 295.225652 
L 300.607141 295.162032 
L 301.004759 295.140323 
L 301.137298 294.99999 
L 301.269837 295.150697 
L 301.733724 295.100499 
L 301.866263 295.328024 
L 301.998802 295.060018 
L 302.197611 295.100144 
L 302.396419 294.884336 
L 302.528958 295.089565 
L 302.727767 294.779475 
L 303.125384 294.936995 
L 303.456732 294.382174 
L 303.655541 294.749037 
L 303.72181 294.592305 
L 303.854349 294.782754 
L 303.986889 294.602532 
L 304.053158 294.50301 
L 304.251967 294.918745 
L 304.517045 294.722226 
L 304.583315 294.836119 
L 304.649584 294.757079 
L 304.848393 294.873512 
L 304.914662 295.152879 
L 304.980932 295.137006 
L 305.047201 295.16123 
L 305.24601 294.976978 
L 305.511088 294.947298 
L 305.776167 294.992149 
L 305.908706 295.271277 
L 306.041245 295.190228 
L 306.173784 295.093705 
L 306.306323 295.04054 
L 306.372593 294.775797 
L 306.571401 295.111906 
L 306.70394 295.251067 
L 306.902749 295.072131 
L 307.101558 293.684851 
L 307.167827 291.779476 
L 307.300366 294.902468 
L 307.432905 294.364397 
L 307.499175 294.627704 
L 307.565445 278.87395 
L 307.631714 293.41942 
L 307.697984 292.81746 
L 307.830523 293.630269 
L 307.896792 292.847604 
L 308.095601 294.879208 
L 308.360679 295.328511 
L 308.493218 295.255552 
L 308.758296 295.189273 
L 309.089644 295.386347 
L 309.288453 295.361051 
L 309.619801 295.322744 
L 310.812653 295.439571 
L 311.342809 295.411603 
L 316.379295 295.451363 
L 317.240799 295.4573 
L 320.289199 295.419475 
L 320.686816 295.432097 
L 323.801485 295.410757 
L 324.000294 295.36915 
L 324.464181 295.402027 
L 326.584807 295.334581 
L 326.916154 295.327844 
L 327.181233 295.306604 
L 327.57885 295.29164 
L 327.777659 295.175945 
L 328.109006 295.252095 
L 328.506624 295.141843 
L 328.572893 295.251244 
L 328.639163 295.201973 
L 328.771702 295.161416 
L 328.904241 295.1708 
L 329.03678 295.112617 
L 329.10305 295.051984 
L 329.301858 295.176337 
L 329.832015 294.937708 
L 329.964554 295.051346 
L 330.428441 294.767361 
L 330.56098 294.853686 
L 331.289945 294.574486 
L 331.356214 294.752341 
L 331.422484 294.6691 
L 331.488754 294.783537 
L 331.621293 294.373707 
L 332.08518 294.680978 
L 332.350258 294.397587 
L 332.482797 294.683167 
L 332.549066 294.611653 
L 332.615336 294.725924 
L 332.681606 294.616935 
L 332.946684 295.036723 
L 333.079223 294.534899 
L 333.211762 294.928561 
L 333.278032 294.844147 
L 333.410571 295.060935 
L 333.675649 294.964774 
L 334.139536 294.99842 
L 334.404614 294.767237 
L 334.537153 295.223022 
L 334.603423 295.101286 
L 334.669692 295.181677 
L 334.868501 295.152632 
L 335.00104 295.167316 
L 335.266118 295.307049 
L 335.464927 295.178205 
L 336.127622 295.2976 
L 336.326431 294.322705 
L 336.392701 293.007192 
L 336.45897 295.432386 
L 336.52524 294.647285 
L 336.591509 294.538352 
L 336.724048 293.274802 
L 336.790318 283.84736 
L 336.922857 294.793561 
L 337.055396 294.416653 
L 337.121666 293.483555 
L 337.320474 295.058057 
L 337.519283 295.066274 
L 337.651822 295.460515 
L 337.718092 295.438466 
L 337.9169 295.39548 
L 338.115709 295.394649 
L 338.447057 295.419995 
L 338.778404 295.323881 
L 339.242291 295.44787 
L 339.50737 295.447185 
L 340.435143 295.392977 
L 341.959343 295.401929 
L 342.622039 295.407262 
L 345.007743 295.445066 
L 345.670438 295.409698 
L 347.459716 295.414209 
L 348.122412 295.371694 
L 348.520029 295.421315 
L 349.248994 295.40579 
L 350.508116 295.332228 
L 350.839463 295.350237 
L 351.170811 295.43853 
L 351.568428 295.440544 
L 352.164854 295.371647 
L 352.429933 295.368019 
L 353.158898 295.363342 
L 354.086671 295.366288 
L 354.28548 295.330173 
L 355.146984 295.388796 
L 355.875949 295.378292 
L 357.797767 295.320971 
L 358.062845 295.220624 
L 358.327923 295.287504 
L 360.514818 295.10464 
L 360.779896 295.113884 
L 361.111244 295.364463 
L 361.177514 295.220166 
L 361.243783 295.066535 
L 361.310053 295.115586 
L 361.442592 295.070217 
L 361.508862 295.084074 
L 361.575131 294.953911 
L 361.641401 295.010285 
L 361.972748 295.272568 
L 362.304096 295.074789 
L 362.502905 295.040161 
L 362.900522 295.283805 
L 363.23187 295.10823 
L 363.430679 295.120641 
L 363.563218 295.155592 
L 363.828296 295.360802 
L 363.960835 295.24531 
L 364.159644 295.188805 
L 364.490991 295.297694 
L 364.623531 295.42716 
L 364.75607 295.280269 
L 364.822339 294.998074 
L 364.888609 295.088501 
L 365.153687 294.919362 
L 365.219957 294.982895 
L 365.352496 295.407289 
L 365.485035 295.026242 
L 365.617574 291.860026 
L 365.683843 295.190959 
L 365.750113 294.725313 
L 365.816383 294.393386 
L 365.948922 291.467153 
L 366.015191 283.786687 
L 366.14773 294.976911 
L 366.214 294.969139 
L 366.280269 294.687753 
L 366.346539 292.54434 
L 366.479078 295.179311 
L 366.545348 295.137246 
L 366.744156 295.061175 
L 366.942965 295.373797 
L 367.075504 295.365097 
L 367.208043 295.294956 
L 367.539391 295.298509 
L 367.67193 295.475393 
L 368.202087 295.377248 
L 368.467165 295.454111 
L 369.12986 295.384462 
L 369.991364 295.482053 
L 370.65406 295.423898 
L 371.383025 295.440038 
L 371.648103 295.454331 
L 372.045721 295.451458 
L 373.371112 295.477091 
L 378.14252 295.464559 
L 379.335372 295.480175 
L 380.263145 295.431911 
L 382.58258 295.45879 
L 382.913928 295.466024 
L 391.992856 295.24995 
L 392.257935 295.37191 
L 392.854361 295.320569 
L 393.119439 295.42891 
L 393.517056 295.278078 
L 393.715865 295.334631 
L 393.980943 295.483577 
L 394.179752 295.232139 
L 394.44483 295.144901 
L 394.643639 295.382071 
L 394.709908 295.295309 
L 394.842447 294.243643 
L 394.908717 295.317977 
L 394.974986 294.974773 
L 395.041256 294.694064 
L 395.107525 293.884135 
L 395.240065 288.750236 
L 395.372604 294.920653 
L 395.438873 295.342717 
L 395.505143 295.164213 
L 395.571412 294.070017 
L 395.770221 295.313926 
L 395.90276 295.334128 
L 395.96903 295.205145 
L 396.234108 295.479768 
L 396.764264 295.389908 
L 397.029343 295.476373 
L 397.758308 295.46285 
L 398.155925 295.466861 
L 398.487273 295.476209 
L 398.487273 295.476209 
" clip-path="url(#pa610c1f944)" style="fill: none; stroke: #1f77b4; stroke-width: 1.5; stroke-linecap: square"/>
   </g>
   <g id="patch_3">
    <path d="M 57.6 307.584 
L 57.6 41.472 
" style="fill: none; stroke: #000000; stroke-width: 0.8; stroke-linejoin: miter; stroke-linecap: square"/>
   </g>
   <g id="patch_4">
    <path d="M 414.72 307.584 
L 414.72 41.472 
" style="fill: none; stroke: #000000; stroke-width: 0.8; stroke-linejoin: miter; stroke-linecap: square"/>
   </g>
   <g id="patch_5">
    <path d="M 57.6 307.584 
L 414.72 307.584 
" style="fill: none; stroke: #000000; stroke-width: 0.8; stroke-linejoin: miter; stroke-linecap: square"/>
   </g>
   <g id="patch_6">
    <path d="M 57.6 41.472 
L 414.72 41.472 
" style="fill: none; stroke: #000000; stroke-width: 0.8; stroke-linejoin: miter; stroke-linecap: square"/>
   </g>
   <g id="text_19">
    <text style="font: 12px 'IPAexGothic'; text-anchor: middle" x="236.16" y="35.472" transform="rotate(-0 236.16 35.472)">"065_A4.wav"の振幅スペクトル</text>
   </g>
  </g>
 </g>
 <defs>
  <clipPath id="pa610c1f944">
   <rect x="57.6" y="41.472" width="357.12" height="266.112"/>
  </clipPath>
 </defs>
</svg>
