<?xml version="1.0" encoding="utf-8" standalone="no"?>
<!DOCTYPE svg PUBLIC "-//W3C//DTD SVG 1.1//EN"
  "http://www.w3.org/Graphics/SVG/1.1/DTD/svg11.dtd">
<svg xmlns:xlink="http://www.w3.org/1999/xlink" width="460.8pt" height="345.6pt" viewBox="0 0 460.8 345.6" xmlns="http://www.w3.org/2000/svg" version="1.1">
 <metadata>
  <rdf:RDF xmlns:dc="http://purl.org/dc/elements/1.1/" xmlns:cc="http://creativecommons.org/ns#" xmlns:rdf="http://www.w3.org/1999/02/22-rdf-syntax-ns#">
   <cc:Work>
    <dc:type rdf:resource="http://purl.org/dc/dcmitype/StillImage"/>
    <dc:date>2022-11-28T12:32:25.181737</dc:date>
    <dc:format>image/svg+xml</dc:format>
    <dc:creator>
     <cc:Agent>
      <dc:title>Matplotlib v3.6.2, https://matplotlib.org/</dc:title>
     </cc:Agent>
    </dc:creator>
   </cc:Work>
  </rdf:RDF>
 </metadata>
 <defs>
  <style type="text/css">*{stroke-linejoin: round; stroke-linecap: butt}</style>
 </defs>
 <g id="figure_1">
  <g id="patch_1">
   <path d="M 0 345.6 
L 460.8 345.6 
L 460.8 0 
L 0 0 
z
" style="fill: #ffffff"/>
  </g>
  <g id="axes_1">
   <g id="patch_2">
    <path d="M 57.6 307.584 
L 414.72 307.584 
L 414.72 41.472 
L 57.6 41.472 
z
" style="fill: #ffffff"/>
   </g>
   <g id="matplotlib.axis_1">
    <g id="xtick_1">
     <g id="line2d_1">
      <defs>
       <path id="m739cf32af7" d="M 0 0 
L 0 3.5 
" style="stroke: #000000; stroke-width: 0.8"/>
      </defs>
      <g>
       <use xlink:href="#m739cf32af7" x="73.832727" y="307.584" style="stroke: #000000; stroke-width: 0.8"/>
      </g>
     </g>
     <g id="text_1">
      <text style="font: 10px 'IPAexGothic'; text-anchor: middle" x="73.832727" y="322.074625" transform="rotate(-0 73.832727 322.074625)">0</text>
     </g>
    </g>
    <g id="xtick_2">
     <g id="line2d_2">
      <g>
       <use xlink:href="#m739cf32af7" x="140.102281" y="307.584" style="stroke: #000000; stroke-width: 0.8"/>
      </g>
     </g>
     <g id="text_2">
      <text style="font: 10px 'IPAexGothic'; text-anchor: middle" x="140.102281" y="322.074625" transform="rotate(-0 140.102281 322.074625)">1000</text>
     </g>
    </g>
    <g id="xtick_3">
     <g id="line2d_3">
      <g>
       <use xlink:href="#m739cf32af7" x="206.371835" y="307.584" style="stroke: #000000; stroke-width: 0.8"/>
      </g>
     </g>
     <g id="text_3">
      <text style="font: 10px 'IPAexGothic'; text-anchor: middle" x="206.371835" y="322.074625" transform="rotate(-0 206.371835 322.074625)">2000</text>
     </g>
    </g>
    <g id="xtick_4">
     <g id="line2d_4">
      <g>
       <use xlink:href="#m739cf32af7" x="272.64139" y="307.584" style="stroke: #000000; stroke-width: 0.8"/>
      </g>
     </g>
     <g id="text_4">
      <text style="font: 10px 'IPAexGothic'; text-anchor: middle" x="272.64139" y="322.074625" transform="rotate(-0 272.64139 322.074625)">3000</text>
     </g>
    </g>
    <g id="xtick_5">
     <g id="line2d_5">
      <g>
       <use xlink:href="#m739cf32af7" x="338.910944" y="307.584" style="stroke: #000000; stroke-width: 0.8"/>
      </g>
     </g>
     <g id="text_5">
      <text style="font: 10px 'IPAexGothic'; text-anchor: middle" x="338.910944" y="322.074625" transform="rotate(-0 338.910944 322.074625)">4000</text>
     </g>
    </g>
    <g id="xtick_6">
     <g id="line2d_6">
      <g>
       <use xlink:href="#m739cf32af7" x="405.180498" y="307.584" style="stroke: #000000; stroke-width: 0.8"/>
      </g>
     </g>
     <g id="text_6">
      <text style="font: 10px 'IPAexGothic'; text-anchor: middle" x="405.180498" y="322.074625" transform="rotate(-0 405.180498 322.074625)">5000</text>
     </g>
    </g>
    <g id="text_7">
     <text style="font: 10px 'IPAexGothic'; text-anchor: middle" x="236.16" y="335.924625" transform="rotate(-0 236.16 335.924625)">周波数[Hz]</text>
    </g>
   </g>
   <g id="matplotlib.axis_2">
    <g id="ytick_1">
     <g id="line2d_7">
      <defs>
       <path id="mfe798cbc3d" d="M 0 0 
L -3.5 0 
" style="stroke: #000000; stroke-width: 0.8"/>
      </defs>
      <g>
       <use xlink:href="#mfe798cbc3d" x="57.6" y="295.488978" style="stroke: #000000; stroke-width: 0.8"/>
      </g>
     </g>
     <g id="text_8">
      <text style="font: 10px 'IPAexGothic'; text-anchor: end" x="50.6" y="299.23429" transform="rotate(-0 50.6 299.23429)">0.0</text>
     </g>
    </g>
    <g id="ytick_2">
     <g id="line2d_8">
      <g>
       <use xlink:href="#mfe798cbc3d" x="57.6" y="254.554473" style="stroke: #000000; stroke-width: 0.8"/>
      </g>
     </g>
     <g id="text_9">
      <text style="font: 10px 'IPAexGothic'; text-anchor: end" x="50.6" y="258.299785" transform="rotate(-0 50.6 258.299785)">0.5</text>
     </g>
    </g>
    <g id="ytick_3">
     <g id="line2d_9">
      <g>
       <use xlink:href="#mfe798cbc3d" x="57.6" y="213.619968" style="stroke: #000000; stroke-width: 0.8"/>
      </g>
     </g>
     <g id="text_10">
      <text style="font: 10px 'IPAexGothic'; text-anchor: end" x="50.6" y="217.36528" transform="rotate(-0 50.6 217.36528)">1.0</text>
     </g>
    </g>
    <g id="ytick_4">
     <g id="line2d_10">
      <g>
       <use xlink:href="#mfe798cbc3d" x="57.6" y="172.685463" style="stroke: #000000; stroke-width: 0.8"/>
      </g>
     </g>
     <g id="text_11">
      <text style="font: 10px 'IPAexGothic'; text-anchor: end" x="50.6" y="176.430776" transform="rotate(-0 50.6 176.430776)">1.5</text>
     </g>
    </g>
    <g id="ytick_5">
     <g id="line2d_11">
      <g>
       <use xlink:href="#mfe798cbc3d" x="57.6" y="131.750958" style="stroke: #000000; stroke-width: 0.8"/>
      </g>
     </g>
     <g id="text_12">
      <text style="font: 10px 'IPAexGothic'; text-anchor: end" x="50.6" y="135.496271" transform="rotate(-0 50.6 135.496271)">2.0</text>
     </g>
    </g>
    <g id="ytick_6">
     <g id="line2d_12">
      <g>
       <use xlink:href="#mfe798cbc3d" x="57.6" y="90.816454" style="stroke: #000000; stroke-width: 0.8"/>
      </g>
     </g>
     <g id="text_13">
      <text style="font: 10px 'IPAexGothic'; text-anchor: end" x="50.6" y="94.561766" transform="rotate(-0 50.6 94.561766)">2.5</text>
     </g>
    </g>
    <g id="ytick_7">
     <g id="line2d_13">
      <g>
       <use xlink:href="#mfe798cbc3d" x="57.6" y="49.881949" style="stroke: #000000; stroke-width: 0.8"/>
      </g>
     </g>
     <g id="text_14">
      <text style="font: 10px 'IPAexGothic'; text-anchor: end" x="50.6" y="53.627261" transform="rotate(-0 50.6 53.627261)">3.0</text>
     </g>
    </g>
    <g id="text_15">
     <text style="font: 10px 'IPAexGothic'; text-anchor: middle" x="29.460938" y="174.528" transform="rotate(-90 29.460938 174.528)">振幅</text>
    </g>
    <g id="text_16">
     <text style="font: 10px 'IPAexGothic'; text-anchor: start" x="57.6" y="38.472" transform="rotate(-0 57.6 38.472)">1e7</text>
    </g>
   </g>
   <g id="line2d_14">
    <path d="M 73.832727 294.968405 
L 73.965266 295.385596 
L 74.296614 295.460841 
L 74.429153 295.376594 
L 74.495423 295.422571 
L 74.627962 295.327446 
L 74.826771 295.427107 
L 74.95931 295.303686 
L 75.025579 295.452228 
L 75.091849 295.373837 
L 75.356927 295.439714 
L 75.754544 295.400113 
L 76.019623 295.357591 
L 76.085892 295.399448 
L 76.152162 295.274456 
L 76.218431 295.440093 
L 76.284701 295.407645 
L 76.549779 295.360821 
L 76.682318 295.380871 
L 77.146205 295.372671 
L 77.212475 295.140617 
L 77.345014 295.336989 
L 77.676361 295.38497 
L 77.87517 295.417668 
L 78.272787 295.315144 
L 79.465639 295.351631 
L 79.863257 295.269301 
L 80.525952 295.244244 
L 80.592222 295.338551 
L 80.724761 295.22504 
L 80.92357 295.232348 
L 81.453726 295.139488 
L 84.767204 294.876987 
L 84.966012 294.826011 
L 85.164821 294.653334 
L 85.29736 294.60709 
L 85.36363 294.543855 
L 85.429899 294.623418 
L 85.562438 294.605434 
L 85.694977 294.423306 
L 85.827517 294.362851 
L 86.225134 294.016348 
L 86.291403 294.129774 
L 86.423943 293.816498 
L 86.490212 293.959308 
L 86.556482 293.772454 
L 86.622751 293.889863 
L 86.887829 294.44819 
L 87.086638 294.015221 
L 87.550525 288.102927 
L 87.683064 282.901186 
L 87.948142 267.079822 
L 88.080681 272.924741 
L 88.27949 226.710392 
L 88.412029 53.568 
L 88.610838 282.765227 
L 88.677107 288.7026 
L 88.743377 287.583454 
L 88.942186 294.999245 
L 89.008455 291.990947 
L 89.074725 292.199802 
L 89.273533 290.794715 
L 89.339803 290.863186 
L 89.406072 292.463455 
L 89.472342 291.147611 
L 89.538612 291.31711 
L 89.671151 292.534818 
L 90.201307 293.764639 
L 90.333846 293.705022 
L 90.665194 293.971784 
L 90.731464 293.816944 
L 90.864003 294.141278 
L 90.996542 294.097201 
L 91.129081 294.219935 
L 91.19535 294.141319 
L 91.394159 294.334869 
L 91.460429 294.242596 
L 91.659237 294.408374 
L 91.858046 294.45613 
L 92.123124 294.412021 
L 92.653281 294.718263 
L 92.852089 294.611926 
L 93.117168 294.736549 
L 93.249707 294.687954 
L 93.779863 294.803032 
L 93.912402 294.822027 
L 94.442559 294.852263 
L 94.707637 294.948717 
L 94.840176 294.9334 
L 94.972715 294.925706 
L 95.304063 294.929023 
L 95.502871 295.051626 
L 95.900489 294.897555 
L 96.298106 294.948849 
L 96.828263 294.988011 
L 96.960802 295.030632 
L 97.623497 294.92046 
L 97.888575 295.056928 
L 98.087384 295.039496 
L 98.286193 295.030665 
L 99.015158 294.96981 
L 99.213966 294.984841 
L 99.412775 295.098133 
L 99.479045 294.960394 
L 99.545314 294.992544 
L 99.876662 294.984749 
L 100.009201 294.945044 
L 100.14174 295.220667 
L 100.340549 294.95743 
L 100.406818 295.108501 
L 100.473088 294.985459 
L 100.671897 294.835485 
L 100.738166 294.896987 
L 101.202053 294.096522 
L 101.334592 294.36009 
L 101.533401 293.943473 
L 101.59967 294.278 
L 101.73221 293.753658 
L 101.798479 294.081899 
L 101.864749 293.755147 
L 101.931018 294.657294 
L 101.997288 292.906329 
L 102.063557 293.341359 
L 102.129827 293.229087 
L 102.328636 290.235255 
L 102.394905 290.756627 
L 102.461175 290.525785 
L 102.858792 277.593359 
L 102.991331 261.07409 
L 103.057601 266.191707 
L 103.256409 292.087949 
L 103.720296 295.340107 
L 103.786566 295.260663 
L 103.985374 294.875893 
L 104.184183 295.223188 
L 104.316722 294.969387 
L 104.515531 295.197596 
L 104.64807 294.573869 
L 104.780609 295.248909 
L 104.979418 295.231253 
L 105.111957 295.166719 
L 105.178226 295.415677 
L 105.244496 295.286182 
L 105.310765 295.225317 
L 105.443305 295.403159 
L 105.642113 295.259114 
L 105.907191 295.454693 
L 106.039731 295.303548 
L 106.106 295.416406 
L 106.17227 295.310936 
L 106.371078 295.393563 
L 106.437348 295.249801 
L 106.503617 295.367038 
L 106.702426 295.405532 
L 106.901235 295.373791 
L 107.100043 295.281642 
L 107.232583 295.388065 
L 107.365122 295.325531 
L 107.431391 295.430525 
L 107.497661 295.268318 
L 107.56393 295.33968 
L 107.6302 295.45472 
L 107.696469 295.364408 
L 107.762739 295.090722 
L 107.829009 295.265319 
L 108.292895 295.388427 
L 108.359165 295.285255 
L 108.425435 295.340048 
L 108.491704 295.393056 
L 108.557974 295.274557 
L 108.624243 295.370195 
L 108.756782 295.357326 
L 108.955591 295.380232 
L 109.08813 295.204216 
L 109.220669 295.416215 
L 109.353208 295.288384 
L 109.419478 295.366161 
L 110.148443 295.448107 
L 110.214712 295.248348 
L 110.280982 295.364832 
L 110.347252 295.464584 
L 110.413521 295.353131 
L 110.479791 295.415231 
L 110.54606 295.369163 
L 110.678599 295.443164 
L 111.142486 295.451969 
L 111.341295 295.352575 
L 111.606373 295.369295 
L 111.672643 295.383394 
L 111.738912 295.255449 
L 111.805182 295.322418 
L 111.871451 295.415258 
L 111.937721 295.331281 
L 112.07026 295.292538 
L 112.202799 295.219894 
L 112.269069 295.16168 
L 112.467877 295.310795 
L 112.600416 295.371785 
L 112.666686 295.224454 
L 112.732956 295.450667 
L 112.799225 295.345735 
L 113.064303 295.383178 
L 113.130573 295.314658 
L 113.329382 295.447871 
L 113.395651 295.341035 
L 113.461921 295.404636 
L 113.726999 295.44806 
L 113.859538 295.145922 
L 113.925807 295.241047 
L 113.992077 295.329058 
L 114.058347 295.126355 
L 114.124616 295.178313 
L 114.190886 295.347272 
L 114.257155 295.237968 
L 114.389694 295.276287 
L 114.588503 295.085688 
L 114.721042 295.395336 
L 114.853581 295.076875 
L 114.98612 295.316805 
L 115.05239 295.298514 
L 115.118659 295.080245 
L 115.184929 295.182139 
L 115.251199 295.039739 
L 115.317468 295.179305 
L 115.383738 295.074732 
L 115.781355 294.014579 
L 115.847625 294.234641 
L 115.980164 293.059253 
L 116.046433 293.248642 
L 116.245242 291.614218 
L 116.311511 292.235947 
L 116.444051 290.791489 
L 116.57659 291.631543 
L 116.642859 290.563645 
L 116.841668 292.074759 
L 116.907937 292.097561 
L 116.974207 292.53745 
L 117.504363 275.045726 
L 117.636903 256.768696 
L 117.901981 293.166137 
L 117.96825 292.247745 
L 118.03452 292.495015 
L 118.167059 294.519429 
L 118.233329 293.352978 
L 118.299598 293.893383 
L 118.630946 294.558041 
L 118.697215 294.495795 
L 118.763485 294.671871 
L 118.829754 294.619581 
L 118.896024 294.423052 
L 119.028563 295.178974 
L 119.227372 294.712502 
L 119.359911 295.164435 
L 119.49245 294.775561 
L 119.55872 294.995775 
L 119.624989 294.928433 
L 119.691259 294.787596 
L 119.890067 295.025788 
L 120.022606 295.161049 
L 120.088876 294.998479 
L 120.155146 295.142894 
L 120.353954 294.890696 
L 120.552763 295.128 
L 120.751572 295.045947 
L 121.01665 295.037749 
L 121.215458 295.052969 
L 121.281728 295.26522 
L 121.347998 295.126906 
L 121.613076 295.277207 
L 121.944424 295.085433 
L 122.076963 295.2603 
L 122.143232 295.125695 
L 122.209502 295.241397 
L 122.47458 295.216664 
L 122.673389 295.199339 
L 122.805928 295.108045 
L 123.269815 295.35298 
L 123.402354 295.315691 
L 123.468623 295.143887 
L 123.534893 295.263055 
L 123.733701 295.167892 
L 123.799971 295.167682 
L 123.93251 295.372515 
L 124.131319 295.115734 
L 124.197588 295.256914 
L 124.263858 295.120984 
L 124.330127 295.154766 
L 124.528936 295.23738 
L 124.727745 295.241139 
L 124.794014 295.121932 
L 124.860284 295.436476 
L 124.926553 295.377817 
L 125.059093 295.104171 
L 125.125362 295.142741 
L 125.39044 295.256021 
L 125.589249 295.157067 
L 125.788058 295.280863 
L 125.986866 295.175838 
L 126.384484 295.346372 
L 126.583292 295.234311 
L 127.179718 295.265677 
L 127.511066 295.19751 
L 127.577336 295.281212 
L 127.643605 295.1516 
L 127.776144 295.34326 
L 128.041223 295.291396 
L 128.107492 295.422742 
L 128.173762 295.371406 
L 128.836457 295.133529 
L 128.968996 295.266684 
L 129.035266 295.132251 
L 129.101535 295.200446 
L 129.499153 295.399296 
L 129.697961 295.095773 
L 129.764231 295.113548 
L 129.89677 294.701817 
L 129.96304 294.796914 
L 130.029309 294.924141 
L 130.161848 294.589266 
L 130.228118 294.735908 
L 130.426926 294.586133 
L 130.559466 294.257609 
L 130.692005 294.339531 
L 130.957083 292.826468 
L 131.089622 293.776071 
L 131.155892 293.482526 
L 131.42097 294.671177 
L 131.487239 294.473943 
L 131.619778 295.029081 
L 131.818587 293.191612 
L 131.884857 292.966115 
L 131.951126 291.065828 
L 132.017396 291.163394 
L 132.083665 291.634084 
L 132.282474 294.524214 
L 132.348744 295.242343 
L 132.415013 295.109959 
L 132.481283 295.109257 
L 132.547552 294.915751 
L 132.613822 295.331718 
L 132.680091 295.170543 
L 132.746361 294.956409 
L 132.8789 295.397823 
L 132.94517 295.16274 
L 133.011439 295.312398 
L 133.077709 295.224187 
L 133.276517 295.408358 
L 133.409056 295.273024 
L 133.607865 295.380124 
L 133.740404 295.129543 
L 133.806674 295.392801 
L 133.872943 295.187219 
L 133.939213 295.357605 
L 134.005482 295.288553 
L 134.071752 295.139141 
L 134.204291 295.453537 
L 134.270561 295.215285 
L 134.33683 295.261619 
L 134.866987 295.289944 
L 135.065795 295.214789 
L 135.463413 295.370085 
L 135.728491 295.278204 
L 135.993569 295.346101 
L 136.258647 295.287094 
L 136.324917 295.399443 
L 136.457456 295.236976 
L 136.656265 295.396764 
L 137.38523 295.299203 
L 137.451499 295.124159 
L 137.584038 295.318061 
L 137.650308 295.277955 
L 137.716577 295.422288 
L 137.782847 295.196295 
L 137.849117 295.405236 
L 137.915386 295.349506 
L 138.313003 295.299552 
L 138.379273 295.414794 
L 138.445543 295.366073 
L 138.511812 295.407767 
L 138.578082 295.045483 
L 138.644351 295.212885 
L 138.710621 295.089442 
L 138.77689 295.223676 
L 138.909429 294.773603 
L 139.174508 295.434964 
L 139.240777 295.097843 
L 139.307047 295.210928 
L 139.439586 295.305959 
L 139.505855 295.031221 
L 139.572125 295.151564 
L 139.704664 295.176699 
L 139.903473 295.240018 
L 139.969742 295.130879 
L 140.036012 295.211315 
L 140.433629 295.263584 
L 140.698707 295.224448 
L 140.831246 295.444626 
L 140.897516 295.277146 
L 140.963786 295.081843 
L 141.030055 295.229185 
L 141.162594 295.355964 
L 141.361403 295.090384 
L 141.493942 295.374002 
L 141.692751 295.046917 
L 141.82529 295.17658 
L 141.891559 295.142866 
L 141.957829 294.835718 
L 142.090368 295.352904 
L 142.156638 295.235769 
L 142.289177 295.373285 
L 142.421716 295.117443 
L 142.554255 295.411023 
L 142.620524 295.218366 
L 142.686794 295.284281 
L 142.951872 295.187069 
L 143.084411 294.907509 
L 143.150681 295.033051 
L 143.28322 294.624687 
L 143.482029 294.908573 
L 143.548298 294.882872 
L 143.680837 294.982204 
L 143.945915 294.456166 
L 144.012185 294.63651 
L 144.078455 294.515639 
L 144.144724 294.245339 
L 144.210994 294.681899 
L 144.277263 294.54644 
L 144.409802 294.122038 
L 144.476072 294.318663 
L 144.80742 293.256444 
L 144.873689 292.775997 
L 144.939959 293.45503 
L 145.006228 293.189842 
L 145.138767 292.60531 
L 145.205037 292.763577 
L 145.337576 293.254672 
L 145.470115 292.712269 
L 145.536385 292.753512 
L 145.668924 290.790824 
L 145.735193 291.492092 
L 145.801463 291.820422 
L 146.132811 287.527878 
L 146.26535 280.598911 
L 146.331619 283.832798 
L 146.397889 277.187489 
L 146.464159 280.509945 
L 146.662967 278.629574 
L 146.729237 281.284261 
L 146.861776 270.190262 
L 146.928045 274.327875 
L 147.126854 293.718402 
L 147.193124 293.630756 
L 147.259393 292.83562 
L 147.325663 293.317585 
L 147.458202 294.816799 
L 147.524471 293.97686 
L 147.590741 294.513119 
L 147.657011 294.885783 
L 147.72328 294.65144 
L 147.78955 294.71021 
L 147.855819 294.943084 
L 147.922089 294.698774 
L 148.054628 295.193384 
L 148.187167 294.978451 
L 148.319706 295.182461 
L 148.452245 295.177837 
L 148.584784 295.293682 
L 148.783593 295.186217 
L 148.849862 295.230973 
L 149.048671 295.121432 
L 149.313749 295.233728 
L 149.380019 294.968468 
L 149.446288 295.113984 
L 149.512558 295.289499 
L 149.578828 295.225173 
L 149.843906 295.383753 
L 150.108984 295.215532 
L 150.175254 295.423313 
L 150.241523 295.293361 
L 150.506601 295.228891 
L 150.63914 295.318465 
L 150.77168 295.293685 
L 150.837949 295.424646 
L 150.904219 295.209427 
L 150.970488 295.343046 
L 151.235566 294.945091 
L 151.434375 295.228423 
L 151.500645 295.006108 
L 151.699453 295.369754 
L 151.831992 295.036559 
L 151.898262 295.076648 
L 152.030801 295.293636 
L 152.097071 295.200426 
L 152.295879 295.432651 
L 152.362149 295.22442 
L 152.560958 295.476952 
L 152.627227 295.209166 
L 152.693497 295.319306 
L 152.826036 295.271691 
L 152.892305 295.448705 
L 153.024844 295.111027 
L 153.289923 295.25914 
L 153.488731 295.18931 
L 153.62127 295.398376 
L 153.753809 295.242479 
L 153.886349 295.411634 
L 154.018888 295.436125 
L 154.283966 295.339422 
L 154.482775 295.384429 
L 154.814122 295.031124 
L 155.21174 295.407572 
L 155.344279 295.158861 
L 155.410548 295.332482 
L 155.476818 295.214646 
L 155.543087 295.355406 
L 155.675627 295.088937 
L 155.741896 295.177453 
L 155.874435 295.072207 
L 155.940705 295.249379 
L 156.073244 294.980855 
L 156.139513 295.346481 
L 156.205783 295.255023 
L 156.272053 295.320741 
L 156.338322 295.224928 
L 156.404592 295.360741 
L 156.537131 294.951591 
L 156.66967 295.374331 
L 156.735939 295.058888 
L 156.802209 295.397003 
L 156.868479 295.362017 
L 157.001018 295.192962 
L 157.067287 295.298648 
L 157.133557 295.209673 
L 157.199826 295.258031 
L 157.266096 295.111472 
L 157.332365 295.14643 
L 157.663713 294.801096 
L 157.729983 294.663888 
L 157.796252 294.9852 
L 157.862522 294.820102 
L 157.928791 294.71191 
L 157.995061 294.953739 
L 158.061331 294.812507 
L 158.1276 294.770076 
L 158.19387 294.866904 
L 158.392678 294.601731 
L 158.591487 294.835815 
L 158.989104 293.65241 
L 159.055374 294.015922 
L 159.254182 292.97635 
L 159.320452 293.553131 
L 159.386722 292.300624 
L 159.452991 293.163316 
L 159.519261 292.890048 
L 159.58553 293.329315 
L 159.6518 293.313751 
L 159.718069 293.032827 
L 159.850608 293.932708 
L 159.983148 293.23962 
L 160.049417 293.530641 
L 160.380765 290.539268 
L 160.447034 291.539672 
L 160.513304 291.153776 
L 160.579574 290.602919 
L 160.645843 291.372267 
L 160.977191 281.098305 
L 161.04346 289.411169 
L 161.10973 285.067276 
L 161.374808 291.16989 
L 161.507347 276.325994 
L 161.706156 293.465489 
L 161.838695 293.660614 
L 161.904965 293.594936 
L 162.037504 295.153984 
L 162.103773 294.494321 
L 162.170043 294.837769 
L 162.236312 294.536043 
L 162.302582 294.962944 
L 162.368852 294.757475 
L 162.56766 294.929969 
L 162.63393 295.022462 
L 162.700199 294.941757 
L 163.097817 295.0283 
L 163.230356 295.329157 
L 163.362895 295.030016 
L 163.429164 295.301362 
L 163.495434 295.22054 
L 163.561704 295.121281 
L 163.760512 295.29611 
L 163.826782 295.332059 
L 163.893051 295.208631 
L 163.959321 295.249761 
L 164.158129 295.181337 
L 164.356938 295.296726 
L 164.754555 295.124784 
L 164.953364 295.200196 
L 165.019634 295.131302 
L 165.085903 295.203047 
L 165.61606 295.336518 
L 165.682329 295.22396 
L 165.748599 295.366639 
L 165.814868 295.280888 
L 165.947407 295.42744 
L 166.146216 295.222303 
L 166.411294 295.364516 
L 166.477564 295.240768 
L 166.543833 295.291549 
L 166.610103 295.431514 
L 166.676373 295.266461 
L 166.742642 295.322991 
L 166.875181 295.342063 
L 167.00772 295.389651 
L 167.07399 295.367742 
L 167.140259 295.469971 
L 167.206529 295.233622 
L 167.272799 295.369947 
L 167.405338 295.267255 
L 167.537877 295.294891 
L 167.802955 295.29872 
L 167.869225 295.412532 
L 168.001764 295.253788 
L 168.134303 295.384022 
L 168.200572 295.241778 
L 168.333111 295.384283 
L 168.399381 295.190221 
L 168.465651 295.334807 
L 168.59819 295.326205 
L 169.327155 295.310679 
L 169.658502 294.88741 
L 169.857311 295.161498 
L 170.05612 295.265393 
L 170.122389 295.033544 
L 170.188659 295.114899 
L 170.254928 295.354361 
L 170.321198 295.31439 
L 170.387468 295.387443 
L 170.453737 295.181176 
L 170.520007 295.219003 
L 170.586276 295.357009 
L 170.652546 295.274058 
L 170.851354 295.311593 
L 171.116433 295.389271 
L 171.315241 294.500858 
L 171.44778 295.200141 
L 171.646589 294.570634 
L 171.779128 295.134088 
L 171.845398 294.985332 
L 171.911667 295.185288 
L 171.977937 295.025248 
L 172.110476 295.368736 
L 172.176746 295.287698 
L 172.309285 294.893666 
L 172.441824 295.314544 
L 172.508093 294.870991 
L 172.574363 295.197623 
L 172.640632 294.986818 
L 172.773172 294.655382 
L 172.905711 294.896509 
L 173.104519 294.628559 
L 173.303328 295.193121 
L 173.435867 295.069334 
L 173.700945 294.563952 
L 173.833484 294.948751 
L 173.899754 294.539041 
L 173.966023 294.635106 
L 174.032293 294.580317 
L 174.098563 294.781555 
L 174.42991 293.617884 
L 174.628719 294.915308 
L 174.893797 294.899636 
L 175.092606 294.045398 
L 175.490223 288.66319 
L 175.556493 283.56386 
L 175.622762 288.870407 
L 175.689032 285.716294 
L 175.755301 286.239483 
L 175.821571 290.532313 
L 175.887841 286.530574 
L 175.95411 291.052306 
L 176.086649 280.381226 
L 176.152919 284.156733 
L 176.351727 293.956293 
L 176.417997 293.570024 
L 176.484267 293.42179 
L 176.616806 295.455777 
L 176.683075 294.685709 
L 176.749345 295.011429 
L 176.815614 294.958538 
L 176.881884 295.286211 
L 176.948153 295.203905 
L 177.014423 295.198301 
L 177.146962 295.040859 
L 177.213232 295.324015 
L 177.279501 295.268154 
L 177.345771 295.25818 
L 177.41204 295.371926 
L 177.47831 295.297524 
L 177.544579 294.898462 
L 177.743388 295.296234 
L 177.809658 295.334395 
L 177.942197 294.788084 
L 178.074736 295.280496 
L 178.273545 295.071266 
L 178.604892 295.316754 
L 178.737431 295.154307 
L 178.86997 295.454992 
L 178.93624 295.304452 
L 179.00251 295.360961 
L 179.068779 295.242194 
L 179.135049 295.404159 
L 179.267588 295.23312 
L 179.665205 295.362788 
L 179.930283 295.130427 
L 179.996553 295.429778 
L 180.062822 295.196085 
L 180.129092 295.354737 
L 180.195362 295.433587 
L 180.261631 295.340353 
L 180.327901 295.37086 
L 180.39417 295.111867 
L 180.526709 295.419118 
L 180.725518 295.366241 
L 180.791788 295.110306 
L 180.858057 295.402243 
L 180.924327 295.111248 
L 180.990596 295.232024 
L 181.056866 295.325783 
L 181.123135 295.228717 
L 181.255674 295.29144 
L 181.321944 295.236018 
L 181.388214 295.003062 
L 181.454483 295.107282 
L 181.520753 295.299779 
L 181.587022 295.12176 
L 181.653292 295.328211 
L 181.785831 294.932397 
L 181.98464 295.364273 
L 182.050909 295.12667 
L 182.117179 295.330042 
L 182.249718 294.91485 
L 182.448526 295.429543 
L 182.581066 295.270586 
L 182.647335 295.164792 
L 182.912413 295.384923 
L 183.177492 295.336644 
L 183.243761 295.214844 
L 183.310031 295.376293 
L 183.3763 295.274459 
L 183.44257 295.200363 
L 183.508839 295.368988 
L 183.575109 295.280031 
L 183.773917 295.380434 
L 183.840187 295.194478 
L 183.972726 295.336969 
L 184.105265 295.24563 
L 184.171535 295.432055 
L 184.237804 295.372538 
L 184.370343 295.228106 
L 184.569152 295.403711 
L 184.9005 295.358627 
L 184.966769 295.090453 
L 185.033039 295.444894 
L 185.099309 295.241681 
L 185.165578 295.452074 
L 185.231848 295.242747 
L 185.298117 295.302343 
L 185.364387 295.475164 
L 185.496926 295.308502 
L 185.563195 295.291097 
L 185.695735 295.451294 
L 185.894543 295.297186 
L 186.093352 295.460093 
L 186.225891 295.289149 
L 186.35843 295.392637 
L 186.490969 295.23448 
L 186.557239 295.152146 
L 186.689778 295.431873 
L 186.756047 295.342379 
L 186.888587 295.226364 
L 187.087395 295.399402 
L 187.153665 295.255306 
L 187.352473 295.42688 
L 187.418743 295.314345 
L 187.617552 295.459477 
L 187.81636 295.380439 
L 187.88263 295.464913 
L 187.948899 295.208836 
L 188.015169 295.445109 
L 188.081439 295.353653 
L 188.346517 295.392164 
L 188.479056 295.191446 
L 188.545325 295.2825 
L 188.611595 295.381384 
L 188.810404 295.271442 
L 188.876673 295.421525 
L 189.009212 295.123435 
L 189.075482 295.134115 
L 189.141751 295.364622 
L 189.208021 295.239657 
L 189.27429 294.973776 
L 189.34056 295.28927 
L 189.40683 295.157898 
L 189.473099 295.186227 
L 189.539369 295.451293 
L 189.936986 294.155078 
L 190.069525 294.096847 
L 190.135795 293.229765 
L 190.202064 294.117042 
L 190.268334 292.843283 
L 190.467142 294.39255 
L 190.599682 294.195446 
L 190.732221 292.748953 
L 190.997299 295.22585 
L 191.063568 295.112461 
L 191.129838 295.353181 
L 191.196108 295.302376 
L 191.593725 295.387236 
L 191.858803 295.306253 
L 191.925073 295.420843 
L 191.991342 295.371966 
L 192.123881 295.187932 
L 192.190151 295.312588 
L 192.25642 295.416311 
L 192.32269 295.331424 
L 192.587768 295.401552 
L 192.654038 295.313687 
L 192.720307 295.398537 
L 193.117925 295.333985 
L 193.316733 295.21932 
L 193.449272 295.428447 
L 193.515542 295.225811 
L 193.581812 295.462794 
L 193.648081 295.410728 
L 193.714351 295.244718 
L 193.913159 295.420759 
L 193.979429 295.330384 
L 194.045698 295.409987 
L 194.642124 295.306822 
L 194.708394 295.395631 
L 194.774663 295.343617 
L 194.973472 295.306964 
L 195.172281 295.341015 
L 195.23855 295.236851 
L 195.371089 295.329377 
L 195.569898 295.261225 
L 195.636168 295.207016 
L 195.702437 295.293962 
L 195.768707 295.361864 
L 195.834976 295.17076 
L 195.901246 295.265411 
L 196.033785 295.203688 
L 196.166324 295.328496 
L 196.232594 295.22983 
L 196.298863 295.305126 
L 196.630211 295.213814 
L 196.82902 295.346975 
L 196.895289 295.379475 
L 197.027828 295.038493 
L 197.094098 295.069111 
L 197.160367 295.058583 
L 197.425446 295.468366 
L 197.491715 295.387294 
L 197.557985 295.417218 
L 197.690524 295.27178 
L 197.823063 295.335855 
L 198.088141 295.248878 
L 198.552028 295.331048 
L 198.750837 295.291434 
L 198.817106 294.992318 
L 198.949645 295.408758 
L 199.148454 295.300317 
L 199.214724 295.453854 
L 199.347263 295.326769 
L 199.546071 295.459973 
L 199.74488 295.303684 
L 199.81115 295.397374 
L 199.877419 295.333708 
L 199.943689 295.294445 
L 200.009958 295.424013 
L 200.142497 295.241276 
L 200.208767 295.363103 
L 200.275036 295.304395 
L 200.407576 295.16761 
L 200.540115 295.283295 
L 200.672654 295.198253 
L 200.805193 295.172611 
L 200.871462 295.207994 
L 201.070271 294.920641 
L 201.401619 295.156399 
L 201.467888 294.869121 
L 201.534158 295.028406 
L 201.732967 295.051498 
L 201.799236 295.095099 
L 201.865506 294.989125 
L 201.931775 294.572764 
L 201.998045 294.678808 
L 202.064314 294.659293 
L 202.130584 294.469512 
L 202.196854 294.724709 
L 202.263123 294.638761 
L 202.329393 294.401065 
L 202.461932 294.812489 
L 202.79328 294.108222 
L 202.992088 294.606746 
L 203.190897 294.29477 
L 203.455975 293.739975 
L 203.522245 293.249538 
L 203.654784 293.83739 
L 203.721053 292.933833 
L 203.787323 293.034795 
L 203.986131 293.705097 
L 204.118671 290.890124 
L 204.18494 292.212095 
L 204.25121 293.332186 
L 204.317479 293.085394 
L 204.450018 291.569855 
L 204.582557 293.843177 
L 204.648827 293.753337 
L 204.715097 293.858592 
L 204.781366 293.595873 
L 204.847636 291.841831 
L 204.913905 292.368399 
L 204.980175 292.297336 
L 205.112714 293.301495 
L 205.245253 291.882544 
L 205.311523 292.257221 
L 205.510331 295.256205 
L 205.70914 294.640463 
L 205.775409 295.351974 
L 205.841679 294.923253 
L 205.907949 295.000352 
L 206.040488 295.349388 
L 206.106757 295.379387 
L 206.173027 295.263027 
L 206.239296 295.379081 
L 206.305566 295.260037 
L 206.371835 295.443493 
L 206.438105 295.379667 
L 206.504375 295.397907 
L 206.570644 295.251905 
L 206.636914 295.287272 
L 206.703183 295.30141 
L 206.769453 295.146108 
L 206.968261 295.355687 
L 207.100801 295.341575 
L 207.16707 295.182343 
L 207.23334 295.244607 
L 207.432148 295.312285 
L 207.630957 295.41251 
L 207.697227 295.330104 
L 207.763496 295.444153 
L 207.829766 295.398887 
L 207.962305 295.270376 
L 208.161113 295.451064 
L 208.227383 295.290838 
L 208.293653 295.379782 
L 208.69127 295.273235 
L 208.890078 295.443742 
L 209.022618 295.343595 
L 209.088887 295.449225 
L 209.155157 295.386554 
L 209.420235 295.467466 
L 209.619044 295.287474 
L 209.884122 295.386841 
L 210.21547 295.204964 
L 210.281739 295.362275 
L 210.348009 295.277601 
L 210.679356 295.227302 
L 210.745626 295.238182 
L 210.878165 295.443938 
L 211.275782 295.16232 
L 211.408322 295.395824 
L 211.540861 295.085055 
L 211.739669 295.096943 
L 211.872208 295.405241 
L 212.004748 295.240628 
L 212.137287 295.449751 
L 212.203556 295.364658 
L 212.336095 295.437032 
L 212.534904 295.3439 
L 212.601174 295.339812 
L 212.733713 295.169098 
L 213.13133 295.424347 
L 213.1976 295.290694 
L 213.263869 295.345217 
L 213.330139 295.420148 
L 213.396408 295.353177 
L 213.462678 295.177894 
L 213.595217 295.361331 
L 213.860295 295.312211 
L 214.58926 295.408202 
L 214.721799 295.368995 
L 214.854338 295.454314 
L 215.119417 295.245475 
L 215.251956 295.425454 
L 215.384495 295.253025 
L 215.517034 295.394009 
L 215.914651 295.350273 
L 216.04719 295.10641 
L 216.245999 295.086794 
L 216.312269 294.814676 
L 216.378538 295.125745 
L 216.444808 295.00287 
L 216.577347 294.901632 
L 216.643616 295.092451 
L 216.709886 295.029582 
L 216.776155 294.983481 
L 216.842425 294.724006 
L 216.908695 294.976874 
L 216.974964 294.854431 
L 217.041234 294.968296 
L 217.173773 294.622345 
L 217.306312 294.803764 
L 217.505121 293.878601 
L 217.63766 294.41855 
L 217.703929 294.213074 
L 217.836468 294.587013 
L 217.902738 294.410936 
L 218.101547 293.752452 
L 218.167816 293.720984 
L 218.366625 293.358849 
L 218.499164 293.633408 
L 218.565433 293.447345 
L 218.764242 293.986397 
L 218.963051 290.971893 
L 219.02932 291.281834 
L 219.09559 291.783729 
L 219.161859 293.275885 
L 219.228129 293.025883 
L 219.294398 293.249319 
L 219.493207 290.664376 
L 219.692016 292.250466 
L 219.758285 291.984695 
L 219.824555 292.758935 
L 219.890824 287.616794 
L 219.957094 287.672002 
L 220.222172 294.645773 
L 220.288442 293.889931 
L 220.55352 294.942817 
L 220.61979 294.804569 
L 220.884868 295.417065 
L 221.017407 295.008765 
L 221.216216 295.345572 
L 221.415024 295.295008 
L 221.481294 295.116654 
L 221.547563 295.238332 
L 221.680102 295.289857 
L 221.878911 295.073356 
L 222.342798 295.337614 
L 222.475337 295.296608 
L 222.607876 295.326851 
L 222.674146 295.196883 
L 222.806685 295.356091 
L 222.939224 295.201302 
L 223.138033 295.322129 
L 223.46938 295.269406 
L 223.60192 295.417701 
L 223.800728 295.251808 
L 223.933267 295.428974 
L 224.065806 295.274904 
L 224.132076 295.450595 
L 224.198345 295.319214 
L 224.397154 295.312744 
L 224.529693 295.430406 
L 224.595963 295.245071 
L 224.662232 295.291423 
L 224.728502 295.428656 
L 224.794771 295.364907 
L 224.861041 295.284162 
L 224.927311 295.401856 
L 224.99358 295.306773 
L 225.192389 295.397633 
L 225.324928 295.126046 
L 225.457467 295.390832 
L 225.656276 295.242891 
L 225.921354 295.444288 
L 226.053893 295.118548 
L 226.120163 295.199867 
L 226.318971 295.424694 
L 226.716589 295.23436 
L 226.782858 295.459558 
L 226.849128 295.352785 
L 226.915397 295.379704 
L 226.981667 295.234558 
L 227.114206 295.468951 
L 227.246745 295.270614 
L 227.511823 295.38525 
L 227.578093 295.320306 
L 227.776901 295.446696 
L 227.909441 295.254511 
L 227.97571 295.361953 
L 228.04198 295.406373 
L 228.174519 295.23102 
L 228.373327 295.310814 
L 228.439597 295.233839 
L 228.505867 295.463249 
L 228.572136 295.338099 
L 228.638406 295.293524 
L 228.770945 295.440773 
L 228.837214 295.393431 
L 228.969753 295.108031 
L 229.168562 295.356338 
L 229.367371 295.39018 
L 229.43364 295.192897 
L 229.49991 295.246599 
L 229.764988 295.261283 
L 229.963797 295.271571 
L 230.096336 295.195148 
L 230.295144 295.409682 
L 230.361414 295.260701 
L 230.427684 295.357806 
L 230.692762 295.054652 
L 230.825301 295.268548 
L 231.421727 295.064599 
L 231.487996 295.253919 
L 231.554266 294.988537 
L 231.620536 295.072232 
L 231.686805 294.968754 
L 231.753075 295.170327 
L 231.819344 295.061904 
L 231.885614 294.752135 
L 231.951883 294.850867 
L 232.018153 294.880955 
L 232.283231 294.461119 
L 232.41577 294.2402 
L 232.48204 294.020472 
L 232.548309 294.274216 
L 232.614579 294.094649 
L 232.680848 293.682557 
L 232.813388 294.11969 
L 232.879657 293.433761 
L 232.945927 293.911871 
L 233.343544 291.731306 
L 233.476083 289.965516 
L 233.608622 292.499874 
L 233.674892 292.347927 
L 233.741161 290.908081 
L 233.807431 291.336505 
L 233.8737 291.682998 
L 234.072509 287.785835 
L 234.138779 291.372046 
L 234.205048 290.414391 
L 234.271318 291.373767 
L 234.337587 289.600976 
L 234.403857 293.006183 
L 234.536396 286.041341 
L 234.602665 286.467518 
L 234.801474 294.952357 
L 234.867744 294.213425 
L 235.000283 293.95988 
L 235.066552 294.809912 
L 235.132822 294.739098 
L 235.199091 294.634452 
L 235.331631 295.362218 
L 235.46417 295.267403 
L 235.530439 295.237151 
L 235.596709 294.9956 
L 235.662978 295.087178 
L 235.729248 295.381357 
L 235.795517 295.189012 
L 235.861787 295.269513 
L 235.928057 294.98371 
L 235.994326 295.310115 
L 236.060596 295.009186 
L 236.126865 295.270281 
L 236.193135 295.178331 
L 236.259404 295.182199 
L 236.325674 294.859472 
L 236.458213 295.183521 
L 236.657022 295.003236 
L 236.723291 295.395828 
L 236.789561 295.217901 
L 236.9221 295.356775 
L 237.054639 295.229851 
L 237.187178 295.370426 
L 237.253448 295.223761 
L 237.452256 295.380921 
L 237.518526 295.47131 
L 237.584795 295.384165 
L 237.916143 295.308686 
L 238.114952 295.190287 
L 238.313761 295.454372 
L 238.38003 295.083711 
L 238.4463 295.310586 
L 238.512569 295.317304 
L 238.645108 295.214606 
L 239.108995 295.39573 
L 239.241534 295.290497 
L 239.307804 295.372955 
L 239.440343 295.19734 
L 239.572882 295.41562 
L 239.639152 295.279295 
L 239.705421 295.330729 
L 239.83796 295.306246 
L 239.90423 295.446725 
L 239.970499 295.393086 
L 240.434386 295.294654 
L 240.500656 295.40052 
L 240.566925 295.25965 
L 240.633195 295.303395 
L 240.765734 295.202869 
L 240.964543 295.398666 
L 241.030812 295.311693 
L 241.163351 295.437033 
L 241.229621 295.398886 
L 241.29589 295.205683 
L 241.36216 295.449223 
L 241.42843 295.380402 
L 241.560969 295.298242 
L 241.627238 295.462108 
L 241.693508 295.373192 
L 242.356203 295.308263 
L 242.422473 295.450146 
L 242.488742 295.413614 
L 242.687551 295.312825 
L 242.753821 295.191378 
L 242.82009 295.40886 
L 242.88636 295.314596 
L 243.151438 295.430415 
L 243.217708 295.132175 
L 243.283977 295.256013 
L 243.416516 295.276266 
L 243.482786 295.115978 
L 243.681594 295.288451 
L 243.814133 295.369683 
L 243.880403 295.319172 
L 243.946673 295.438324 
L 244.012942 295.378039 
L 244.34429 295.378851 
L 244.410559 295.230077 
L 244.476829 295.433776 
L 244.543099 295.318421 
L 245.139525 295.284437 
L 245.272064 295.409244 
L 245.338333 295.185097 
L 245.404603 295.310871 
L 245.470872 295.230827 
L 245.537142 295.316371 
L 245.603411 295.289435 
L 245.669681 295.418196 
L 245.934759 294.804138 
L 246.133568 295.132511 
L 246.266107 294.672587 
L 246.398646 294.933776 
L 246.464916 294.84074 
L 246.531185 294.733622 
L 246.597455 294.887392 
L 246.663724 294.611134 
L 246.729994 294.742496 
L 246.796263 294.924555 
L 246.862533 294.823666 
L 246.995072 294.497476 
L 247.061342 294.790703 
L 247.127611 294.715954 
L 247.193881 294.652573 
L 247.392689 294.827586 
L 247.458959 294.558152 
L 247.525229 293.798128 
L 247.591498 293.94334 
L 247.657768 294.442698 
L 247.922846 292.504562 
L 248.055385 290.481952 
L 248.187924 294.237223 
L 248.254194 293.472788 
L 248.519272 291.510341 
L 248.71808 294.705514 
L 248.916889 290.821992 
L 249.049428 293.154448 
L 249.181967 290.640944 
L 249.314506 293.028083 
L 249.447046 295.177495 
L 249.579585 294.473838 
L 249.645854 294.812404 
L 249.712124 294.708249 
L 249.778393 294.795611 
L 249.910932 295.306996 
L 249.977202 295.280301 
L 250.109741 295.316584 
L 250.24228 295.152854 
L 250.30855 295.328142 
L 250.374819 295.08807 
L 250.441089 295.245853 
L 250.507358 295.238368 
L 250.573628 295.407875 
L 250.639898 295.349839 
L 250.706167 295.437172 
L 250.838706 295.283212 
L 251.236324 295.235657 
L 251.302593 295.404843 
L 251.435132 295.164844 
L 251.567671 295.352188 
L 251.633941 295.224165 
L 251.70021 295.367007 
L 251.76648 295.113894 
L 251.899019 295.393964 
L 251.965289 295.130804 
L 252.031558 295.290031 
L 252.164097 295.443187 
L 252.362906 295.32635 
L 252.495445 295.45378 
L 252.694254 295.399728 
L 252.826793 295.374232 
L 252.893062 295.465383 
L 253.025602 295.338492 
L 253.356949 295.399945 
L 253.555758 295.201247 
L 253.688297 295.446877 
L 253.754567 295.360011 
L 253.887106 295.218632 
L 254.019645 295.463846 
L 254.085914 295.343833 
L 254.152184 295.398631 
L 254.417262 295.405316 
L 254.483532 295.295763 
L 254.549801 295.383663 
L 254.881149 295.4257 
L 255.079958 295.250899 
L 255.212497 295.398797 
L 255.543845 295.309326 
L 255.742653 295.44307 
L 255.875192 295.15228 
L 256.007731 295.425133 
L 256.140271 295.349918 
L 256.20654 295.414884 
L 256.27281 295.335688 
L 256.471618 295.377284 
L 256.604157 295.348019 
L 256.869236 295.411291 
L 256.935505 295.273229 
L 257.001775 295.342573 
L 257.465662 295.379915 
L 257.531931 295.265691 
L 257.598201 295.470872 
L 257.66447 295.393929 
L 257.797009 295.278245 
L 257.929549 295.455609 
L 257.995818 295.25047 
L 258.062088 295.323877 
L 258.260896 295.437729 
L 258.327166 295.340859 
L 258.393435 295.400293 
L 258.989861 295.309936 
L 259.1224 295.380187 
L 259.18867 295.272408 
L 259.25494 295.367128 
L 259.387479 295.439846 
L 259.520018 295.405732 
L 259.586287 295.442946 
L 259.718826 295.242964 
L 259.785096 295.416919 
L 259.917635 295.269967 
L 260.182713 295.149223 
L 260.381522 295.227015 
L 260.514061 295.188484 
L 260.580331 295.199834 
L 260.6466 295.349875 
L 260.779139 295.223788 
L 260.977948 295.371493 
L 261.243026 295.112048 
L 261.309296 295.347032 
L 261.375565 295.280667 
L 261.640644 295.332541 
L 261.773183 295.410217 
L 261.905722 295.293191 
L 262.038261 295.06487 
L 262.303339 295.250487 
L 262.634687 294.542504 
L 262.767226 294.948638 
L 262.833496 294.856387 
L 262.899765 294.727935 
L 262.966035 294.260138 
L 263.032304 294.58458 
L 263.098574 294.452495 
L 263.164843 294.536056 
L 263.297382 294.069356 
L 263.363652 294.983315 
L 263.429922 293.917287 
L 263.496191 294.223392 
L 263.562461 293.812307 
L 263.695 294.596476 
L 263.827539 293.281921 
L 264.092617 295.355537 
L 264.158887 295.039388 
L 264.225156 295.014922 
L 264.291426 295.217818 
L 264.357695 294.846044 
L 264.490234 295.450649 
L 264.556504 295.268792 
L 264.622773 295.44062 
L 264.689043 295.398465 
L 264.887852 295.464675 
L 264.954121 295.320162 
L 265.08666 295.436161 
L 265.219199 295.302323 
L 265.351739 295.453079 
L 265.418008 295.372977 
L 265.484278 295.449868 
L 265.683086 295.395368 
L 265.881895 295.342937 
L 266.345782 295.358892 
L 266.412051 295.234915 
L 266.544591 295.447912 
L 266.743399 295.39893 
L 266.809669 295.480775 
L 266.875938 295.34912 
L 266.942208 295.449017 
L 267.207286 295.384301 
L 267.406095 295.429804 
L 267.538634 295.440736 
L 267.604903 295.295688 
L 267.803712 295.44588 
L 268.201329 295.464129 
L 268.400138 295.346771 
L 268.930294 295.416506 
L 269.990607 295.399 
L 270.056877 295.428644 
L 270.189416 295.295222 
L 270.587033 295.450111 
L 270.653303 295.371248 
L 270.719572 295.457095 
L 270.918381 295.416267 
L 271.11719 295.361734 
L 271.315998 295.232691 
L 271.514807 295.423079 
L 272.972737 295.421038 
L 273.105276 295.427387 
L 273.171546 295.302416 
L 273.237816 295.364319 
L 273.569163 295.396577 
L 273.701702 295.3786 
L 273.834241 295.430436 
L 274.03305 295.213636 
L 274.298128 295.228003 
L 274.430667 295.225811 
L 274.496937 295.173808 
L 274.629476 295.311666 
L 274.695746 295.149003 
L 274.762015 295.321524 
L 274.894554 294.981818 
L 275.027093 295.35387 
L 275.093363 295.097295 
L 275.159633 295.185606 
L 275.49098 295.135005 
L 275.623519 295.218198 
L 275.689789 295.096746 
L 275.756059 295.146897 
L 275.954867 295.046323 
L 276.021137 295.161479 
L 276.087406 294.864225 
L 276.153676 294.898631 
L 276.286215 294.991832 
L 276.352485 294.902971 
L 276.485024 294.508514 
L 276.617563 294.862068 
L 276.882641 293.978935 
L 277.01518 294.608714 
L 277.08145 294.311341 
L 277.147719 294.458551 
L 277.213989 294.454613 
L 277.346528 294.943299 
L 277.479067 294.973592 
L 277.744145 293.986049 
L 277.942954 295.460691 
L 278.141763 293.882681 
L 278.274302 294.636328 
L 278.340571 294.24549 
L 278.406841 294.178444 
L 278.605649 295.026958 
L 278.671919 295.391948 
L 278.738188 295.167473 
L 278.804458 295.025405 
L 279.069536 295.360819 
L 279.202075 295.39143 
L 279.268345 295.264359 
L 279.334614 295.344956 
L 279.798501 295.439192 
L 279.93104 295.346603 
L 280.660006 295.355283 
L 280.726275 295.468639 
L 280.792545 295.4054 
L 280.925084 295.42279 
L 281.057623 295.439437 
L 281.190162 295.406419 
L 281.256432 295.447237 
L 281.322701 295.207894 
L 281.388971 295.341282 
L 281.52151 295.439477 
L 281.587779 295.265161 
L 281.654049 295.405519 
L 281.720318 295.327256 
L 281.919127 295.459133 
L 282.117936 295.33453 
L 282.316744 295.436547 
L 282.515553 295.389073 
L 282.714362 295.44272 
L 283.310788 295.313964 
L 283.377057 295.444504 
L 283.443327 295.34714 
L 283.642136 295.363538 
L 283.708405 295.210805 
L 283.774675 295.476701 
L 283.840944 295.435299 
L 283.907214 295.328511 
L 283.973483 295.460032 
L 284.039753 295.400012 
L 284.172292 295.199848 
L 284.238561 295.332206 
L 284.43737 295.39704 
L 284.50364 295.416985 
L 284.569909 295.319589 
L 284.636179 295.36719 
L 285.033796 295.386905 
L 285.298874 295.287833 
L 285.497683 295.433213 
L 285.630222 295.422175 
L 285.96157 295.438097 
L 286.226648 295.467383 
L 286.491726 295.388401 
L 286.690535 295.425284 
L 286.756805 295.375167 
L 286.823074 295.469272 
L 286.889344 295.414126 
L 287.220691 295.467643 
L 287.4195 295.372249 
L 287.618309 295.42162 
L 287.949657 295.412855 
L 288.082196 295.332282 
L 288.281004 295.357343 
L 288.413543 295.142575 
L 288.612352 295.325262 
L 288.744891 295.219902 
L 288.87743 295.306714 
L 288.9437 295.384744 
L 289.076239 295.153026 
L 289.142508 295.240065 
L 289.341317 295.054769 
L 289.407587 295.222433 
L 289.606395 294.894429 
L 289.805204 295.16722 
L 289.871474 294.893032 
L 289.937743 295.174094 
L 290.004013 295.081096 
L 290.33536 294.898456 
L 290.600439 294.980192 
L 290.666708 295.100819 
L 290.732978 294.855634 
L 290.799247 294.887682 
L 290.865517 295.001658 
L 290.931786 294.639976 
L 290.998056 294.733848 
L 291.130595 294.783719 
L 291.395673 294.242553 
L 291.461943 294.218457 
L 291.594482 292.744808 
L 291.660752 293.034154 
L 291.85956 294.881536 
L 291.992099 294.366982 
L 292.058369 294.56397 
L 292.124638 293.807713 
L 292.190908 293.921401 
L 292.257178 294.039418 
L 292.323447 293.674335 
L 292.522256 294.803537 
L 292.588525 294.788201 
L 292.654795 293.861189 
L 292.721064 294.056311 
L 292.787334 294.228978 
L 292.853604 294.984379 
L 293.052412 293.306382 
L 293.31749 295.117848 
L 293.38376 294.967041 
L 293.516299 295.334116 
L 293.582569 295.218987 
L 293.715108 295.187177 
L 293.781377 295.219621 
L 293.913916 295.428438 
L 294.046455 295.239804 
L 294.112725 295.304066 
L 294.576612 295.404466 
L 294.642881 295.191021 
L 294.709151 295.339835 
L 295.173038 295.392821 
L 295.305577 295.365031 
L 295.504386 295.455374 
L 296.36589 295.335502 
L 296.630968 295.390144 
L 296.697238 295.328125 
L 296.763507 295.464785 
L 296.829777 295.369002 
L 297.89009 295.363971 
L 298.022629 295.423979 
L 298.088898 295.245665 
L 298.155168 295.417451 
L 298.221437 295.324677 
L 298.287707 295.23002 
L 298.486516 295.389721 
L 298.552785 295.234882 
L 298.751594 295.442203 
L 298.950402 295.278913 
L 299.016672 295.442755 
L 299.082942 295.406694 
L 299.149211 295.257232 
L 299.215481 295.344375 
L 299.414289 295.356828 
L 299.878176 295.393036 
L 301.534915 295.472169 
L 301.667454 295.239529 
L 301.733724 295.452498 
L 301.799993 295.352514 
L 301.998802 295.362436 
L 302.131341 295.358912 
L 302.26388 295.36718 
L 302.396419 295.225103 
L 302.462689 295.397745 
L 302.528958 295.365486 
L 302.661498 295.188889 
L 302.727767 295.268542 
L 302.794037 295.123446 
L 302.860306 295.177083 
L 303.059115 295.286608 
L 303.257924 295.320363 
L 303.390463 295.057851 
L 303.655541 295.107325 
L 303.72181 295.021628 
L 303.78808 295.079007 
L 303.854349 295.104529 
L 303.986889 294.874353 
L 304.251967 295.204465 
L 304.450775 294.841708 
L 304.517045 295.09869 
L 304.583315 295.049469 
L 304.649584 294.898843 
L 304.715854 295.117036 
L 304.782123 295.038205 
L 304.848393 294.947625 
L 304.914662 295.318362 
L 304.980932 295.130274 
L 305.047201 295.168575 
L 305.24601 294.893795 
L 305.444819 294.952976 
L 305.643627 295.090215 
L 305.908706 294.525875 
L 305.974975 293.878238 
L 306.041245 294.043516 
L 306.107514 294.145584 
L 306.173784 293.795737 
L 306.438862 295.121533 
L 306.505132 294.82888 
L 306.70394 293.909689 
L 306.902749 294.808359 
L 307.035288 294.78991 
L 307.101558 294.545021 
L 307.167827 295.04044 
L 307.234097 293.971116 
L 307.300366 294.229571 
L 307.366636 294.285693 
L 307.432905 294.135962 
L 307.499175 295.048509 
L 307.631714 293.203984 
L 307.697984 293.808583 
L 307.896792 295.183365 
L 307.963062 295.108453 
L 308.029331 294.966421 
L 308.095601 295.038067 
L 308.360679 295.192355 
L 308.493218 295.364914 
L 308.559488 295.209882 
L 308.625757 295.354381 
L 308.692027 295.250434 
L 308.824566 295.374883 
L 309.155914 295.337596 
L 309.354722 295.437098 
L 309.420992 295.307524 
L 309.487262 295.398197 
L 311.740426 295.431498 
L 311.806696 295.284686 
L 311.872966 295.385554 
L 311.939235 295.467223 
L 312.005505 295.390695 
L 312.469392 295.458871 
L 312.535661 295.387939 
L 312.601931 295.4694 
L 312.800739 295.34903 
L 312.999548 295.444183 
L 313.662244 295.310447 
L 313.794783 295.372331 
L 314.258669 295.446205 
L 314.324939 295.326453 
L 314.391209 295.41484 
L 314.590017 295.446557 
L 315.120174 295.330775 
L 315.186443 295.45244 
L 315.252713 295.370688 
L 315.7166 295.481938 
L 315.915408 295.351564 
L 316.047947 295.400854 
L 316.114217 295.427561 
L 316.180487 295.296332 
L 316.246756 295.34946 
L 316.379295 295.389883 
L 316.511834 295.380534 
L 316.710643 295.440515 
L 316.776913 295.253335 
L 316.843182 295.341459 
L 317.17453 295.174754 
L 317.307069 295.326382 
L 317.439608 295.210017 
L 317.505878 295.375965 
L 317.572147 295.270775 
L 317.704686 295.243936 
L 317.837225 295.224876 
L 317.903495 295.168263 
L 317.969765 295.264522 
L 318.168573 295.104956 
L 318.234843 295.198701 
L 318.301112 295.138012 
L 318.764999 295.158898 
L 318.831269 295.323569 
L 318.897538 295.129636 
L 318.963808 295.177873 
L 319.030077 295.154079 
L 319.295156 295.357966 
L 319.560234 295.193451 
L 319.626503 295.291948 
L 319.692773 295.179667 
L 319.825312 295.282306 
L 319.957851 295.087019 
L 320.024121 295.158461 
L 320.09039 295.295093 
L 320.15666 295.181635 
L 320.355468 295.267556 
L 320.554277 294.532128 
L 320.620547 294.727869 
L 320.753086 294.472473 
L 321.018164 295.220063 
L 321.150703 294.906086 
L 321.216973 294.451429 
L 321.283242 294.556049 
L 321.349512 294.365104 
L 321.415781 294.777068 
L 321.482051 294.554849 
L 321.54832 294.552499 
L 321.61459 294.957606 
L 321.68086 294.737006 
L 321.747129 294.977807 
L 321.813399 294.938217 
L 321.879668 294.358978 
L 321.945938 294.527594 
L 322.012207 294.28548 
L 322.078477 294.749548 
L 322.144746 294.552535 
L 322.277286 293.298078 
L 322.542364 295.203929 
L 322.608633 294.892595 
L 322.674903 295.025694 
L 323.13879 295.346552 
L 323.205059 295.326972 
L 323.271329 295.450828 
L 323.337598 295.400537 
L 323.602677 295.369994 
L 323.668946 295.207963 
L 323.735216 295.44476 
L 323.801485 295.346107 
L 324.397911 295.383399 
L 324.59672 295.46314 
L 324.861798 295.4161 
L 325.193146 295.412075 
L 325.259415 295.315798 
L 325.325685 295.406695 
L 325.458224 295.379441 
L 330.295902 295.394358 
L 330.428441 295.454633 
L 330.627249 295.360891 
L 330.693519 295.460141 
L 330.759788 295.395035 
L 330.826058 295.290843 
L 330.892328 295.410994 
L 330.958597 295.31226 
L 331.157406 295.441014 
L 331.422484 295.345122 
L 331.687562 295.240189 
L 331.753832 295.154937 
L 331.886371 295.338448 
L 332.01891 295.234759 
L 332.151449 295.241637 
L 332.350258 295.141373 
L 332.482797 295.283467 
L 332.880414 295.239334 
L 332.946684 295.311967 
L 333.079223 294.96392 
L 333.410571 295.457828 
L 333.609379 295.226075 
L 333.675649 295.338306 
L 333.741918 295.245218 
L 334.006997 295.381574 
L 334.205805 295.34709 
L 334.404614 295.190921 
L 334.669692 295.414032 
L 334.735962 295.313069 
L 335.067309 295.011221 
L 335.199849 295.301786 
L 335.332388 294.711658 
L 335.398657 294.970425 
L 335.531196 295.272192 
L 335.597466 295.290285 
L 335.796275 294.484665 
L 335.928814 294.579415 
L 335.995083 294.899434 
L 336.061353 294.448861 
L 336.260161 295.151786 
L 336.326431 294.832799 
L 336.392701 295.19796 
L 336.45897 294.063685 
L 336.52524 294.222901 
L 336.724048 294.992023 
L 336.856587 294.241953 
L 337.121666 295.385456 
L 337.187935 295.13603 
L 337.254205 295.003492 
L 337.320474 295.047041 
L 337.585553 295.403617 
L 337.850631 295.345356 
L 338.049439 295.418679 
L 338.248248 295.353798 
L 338.513326 295.41217 
L 338.712135 295.389654 
L 338.778404 295.331998 
L 338.844674 295.414041 
L 338.977213 295.456378 
L 339.176022 295.388487 
L 339.242291 295.440648 
L 339.308561 295.344899 
L 339.37483 295.393015 
L 339.573639 295.396559 
L 339.772448 295.372909 
L 339.971256 295.430077 
L 341.959343 295.449151 
L 342.158152 295.175877 
L 342.290691 295.427058 
L 342.4895 295.372689 
L 342.622039 295.410587 
L 342.953386 295.236956 
L 343.152195 295.453167 
L 344.013699 295.287038 
L 344.278777 295.429065 
L 344.345047 295.456021 
L 344.411317 295.3418 
L 344.477586 295.410449 
L 344.676395 295.447214 
L 344.808934 295.3886 
L 344.941473 295.379568 
L 345.206551 295.365977 
L 345.537899 295.29669 
L 345.736708 295.472269 
L 345.935516 295.351395 
L 346.266864 295.403171 
L 346.995829 295.351006 
L 347.128368 295.403951 
L 347.194638 295.309978 
L 347.260907 295.377561 
L 347.327177 295.359554 
L 347.393447 295.458441 
L 347.459716 295.317516 
L 347.525986 295.409196 
L 347.658525 295.271691 
L 347.791064 295.442057 
L 348.056142 295.315637 
L 348.122412 295.453492 
L 348.188681 295.186476 
L 348.254951 295.332515 
L 348.38749 295.221188 
L 348.652568 295.351801 
L 348.718838 295.252082 
L 348.785107 295.346954 
L 348.851377 295.340808 
L 348.917646 295.455324 
L 349.050185 295.344147 
L 349.182724 295.283064 
L 349.248994 295.279117 
L 349.315264 295.079959 
L 349.381533 295.129756 
L 349.447803 295.108779 
L 349.580342 295.167008 
L 349.646611 295.12254 
L 349.712881 295.224229 
L 349.77915 295.135373 
L 349.84542 295.158842 
L 349.91169 295.021999 
L 350.110498 295.438774 
L 350.375576 295.057244 
L 350.574385 294.847212 
L 350.640655 295.133837 
L 350.706924 294.974642 
L 350.773194 294.986051 
L 350.839463 295.241604 
L 350.905733 295.173309 
L 350.972002 295.300095 
L 351.038272 295.218588 
L 351.104542 294.988877 
L 351.170811 295.25595 
L 351.237081 295.150343 
L 351.30335 295.290791 
L 351.36962 295.248164 
L 351.568428 295.309582 
L 351.700968 295.441243 
L 351.833507 295.348715 
L 353.158898 295.45244 
L 353.225167 295.370689 
L 353.291437 295.431146 
L 353.689054 295.444083 
L 353.821593 295.440888 
L 355.014445 295.295484 
L 355.080715 295.463663 
L 355.146984 295.408552 
L 355.279523 295.425431 
L 355.412063 295.420861 
L 355.80968 295.422176 
L 355.875949 295.324323 
L 355.942219 295.373296 
L 356.074758 295.412156 
L 356.803723 295.283241 
L 356.869993 295.428258 
L 356.936262 295.381552 
L 357.135071 295.330024 
L 357.201341 295.468815 
L 357.26761 295.395055 
L 357.532688 295.396512 
L 357.797767 295.451529 
L 357.864036 295.320006 
L 357.930306 295.415325 
L 358.129114 295.465428 
L 358.261653 295.426058 
L 358.72554 295.437939 
L 358.990618 295.360085 
L 359.123158 295.456774 
L 359.388236 295.388665 
L 359.587044 295.449059 
L 360.713627 295.355325 
L 360.779896 295.467753 
L 360.912436 295.292317 
L 361.111244 295.418871 
L 361.310053 295.29062 
L 361.442592 295.341494 
L 361.508862 295.34941 
L 361.575131 295.21507 
L 361.641401 295.292613 
L 361.70767 295.379131 
L 361.77394 295.30599 
L 361.972748 295.38547 
L 362.039018 295.29523 
L 362.105288 295.414009 
L 362.237827 295.310419 
L 362.370366 295.42195 
L 362.502905 295.13681 
L 362.701714 295.332904 
L 362.900522 295.027715 
L 362.966792 294.997805 
L 363.23187 295.408186 
L 363.430679 295.195918 
L 363.496948 295.24841 
L 363.563218 295.141777 
L 363.629487 295.266479 
L 363.695757 295.216126 
L 363.960835 294.594866 
L 364.027105 294.670505 
L 364.093374 294.646137 
L 364.292183 295.059118 
L 364.358452 294.909607 
L 364.557261 295.341576 
L 364.75607 295.402284 
L 364.954878 295.0172 
L 365.087417 295.240054 
L 365.153687 295.377672 
L 365.219957 295.304593 
L 365.286226 295.111569 
L 365.418765 295.3267 
L 365.750113 294.884089 
L 365.816383 295.334159 
L 365.882652 294.955672 
L 365.948922 295.149447 
L 366.015191 295.10494 
L 366.081461 294.839469 
L 366.14773 294.935697 
L 366.214 295.271451 
L 366.280269 295.179687 
L 366.346539 295.160615 
L 366.412809 295.386512 
L 366.479078 295.24046 
L 366.545348 295.16185 
L 366.611617 295.403832 
L 366.677887 295.281937 
L 366.744156 295.182722 
L 366.876695 295.420364 
L 366.942965 295.2984 
L 367.009235 295.357476 
L 367.208043 295.434117 
L 367.340582 295.31863 
L 367.473121 295.429389 
L 367.67193 295.453983 
L 367.7382 295.332619 
L 367.804469 295.420424 
L 367.870739 295.469222 
L 367.937008 295.379126 
L 368.003278 295.452948 
L 368.467165 295.339156 
L 368.599704 295.461504 
L 368.732243 295.410169 
L 368.798512 295.432311 
L 368.864782 295.258247 
L 368.931052 295.297662 
L 369.063591 295.422463 
L 369.593747 295.371618 
L 369.858825 295.357857 
L 370.057634 295.429435 
L 370.123904 295.46482 
L 370.256443 295.359053 
L 370.58779 295.403647 
L 370.786599 295.374532 
L 370.985408 295.482261 
L 371.051677 295.302243 
L 371.117947 295.34171 
L 371.316756 295.438459 
L 371.449295 295.333509 
L 371.581834 295.406576 
L 371.648103 295.306208 
L 371.714373 295.373756 
L 371.913182 295.390419 
L 371.979451 295.41781 
L 372.045721 295.25991 
L 372.11199 295.467384 
L 372.17826 295.388081 
L 372.310799 295.322064 
L 372.509608 295.368361 
L 373.70246 295.399245 
L 373.834999 295.231137 
L 373.901268 295.425015 
L 373.967538 295.353638 
L 374.365155 295.301011 
L 374.431425 295.438527 
L 374.497694 295.359608 
L 374.630233 295.133532 
L 374.762772 295.296574 
L 374.829042 295.16681 
L 374.895311 295.218522 
L 375.09412 295.129965 
L 375.226659 295.347095 
L 375.359198 295.330722 
L 375.624277 295.050494 
L 375.690546 295.267473 
L 375.756816 295.226661 
L 376.088163 295.320953 
L 376.419511 295.129363 
L 376.750859 295.242265 
L 376.883398 295.242794 
L 377.148476 295.250558 
L 377.546094 295.273506 
L 377.678633 295.308554 
L 378.07625 295.144713 
L 378.208789 295.255241 
L 378.275059 295.178899 
L 378.473867 294.888185 
L 378.540137 294.712989 
L 378.606407 294.820623 
L 378.805215 294.891042 
L 378.871485 295.110631 
L 378.937754 294.996946 
L 379.202832 295.420848 
L 379.269102 295.36219 
L 379.401641 294.852983 
L 379.467911 295.147351 
L 379.53418 295.04409 
L 379.60045 294.965271 
L 379.799258 295.356839 
L 379.865528 294.987071 
L 379.931798 295.171249 
L 379.998067 295.047624 
L 380.064337 295.252013 
L 380.130606 294.844392 
L 380.196876 295.16813 
L 380.263145 294.999234 
L 380.395684 294.725995 
L 380.461954 295.126103 
L 380.528224 294.919122 
L 380.594493 295.174851 
L 380.660763 295.103191 
L 380.727032 294.907854 
L 380.793302 295.018887 
L 381.05838 295.367935 
L 381.190919 295.26587 
L 381.522267 295.389634 
L 381.588536 295.299342 
L 381.654806 295.387246 
L 381.853615 295.458721 
L 382.118693 295.381353 
L 382.251232 295.475973 
L 382.51631 295.336369 
L 382.648849 295.399279 
L 382.781388 295.357726 
L 383.046467 295.39534 
L 383.179006 295.333793 
L 383.245275 295.411987 
L 383.311545 295.334073 
L 383.775432 295.410236 
L 383.841701 295.33098 
L 383.907971 295.386529 
L 384.570666 295.311813 
L 384.703205 295.342339 
L 384.835745 295.42332 
L 385.034553 295.390713 
L 385.167092 295.353052 
L 385.299631 295.400668 
L 385.829788 295.397812 
L 385.896057 295.20535 
L 385.962327 295.256472 
L 386.227405 295.293577 
L 386.426214 295.4698 
L 386.691292 295.371199 
L 386.823831 295.458289 
L 387.088909 295.389698 
L 387.221449 295.392111 
L 387.420257 295.274212 
L 387.552796 295.422742 
L 387.619066 295.286491 
L 387.685335 295.38558 
L 387.884144 295.280591 
L 388.215492 295.336779 
L 388.281761 295.426947 
L 388.348031 295.342805 
L 388.414301 295.095973 
L 388.48057 295.300141 
L 388.54684 295.248082 
L 388.613109 295.255716 
L 388.679379 295.149801 
L 388.745648 295.216215 
L 388.811918 295.30217 
L 388.878187 295.236317 
L 388.944457 295.287888 
L 389.010726 295.037295 
L 389.076996 295.253141 
L 389.143266 295.219793 
L 389.209535 295.021227 
L 389.275805 295.132148 
L 389.408344 295.227782 
L 389.739692 295.175169 
L 389.9385 295.368115 
L 390.071039 295.054186 
L 390.137309 295.262341 
L 390.203578 295.11016 
L 390.269848 295.276278 
L 390.336118 295.048589 
L 390.402387 295.128969 
L 390.733735 294.97413 
L 390.800004 295.213269 
L 390.866274 295.159909 
L 391.131352 295.331249 
L 391.263891 295.276848 
L 391.330161 295.32804 
L 391.52897 295.128151 
L 391.661509 295.354861 
L 391.727778 295.280072 
L 391.992856 295.157603 
L 392.059126 295.38228 
L 392.125396 295.316397 
L 392.191665 295.145916 
L 392.257935 295.213995 
L 392.523013 295.257709 
L 392.655552 295.024252 
L 392.721822 295.128632 
L 392.788091 295.214902 
L 392.854361 295.032365 
L 392.92063 295.091079 
L 392.9869 295.186844 
L 393.185708 294.799404 
L 393.251978 294.860826 
L 393.318248 295.098245 
L 393.384517 295.03803 
L 393.517056 294.968394 
L 393.583326 295.018753 
L 393.649595 295.398294 
L 393.715865 295.329989 
L 393.782134 295.370353 
L 394.113482 294.53532 
L 394.179752 294.596816 
L 394.37856 295.0848 
L 394.643639 294.854643 
L 394.776178 295.059475 
L 394.842447 295.002154 
L 394.908717 294.809206 
L 394.974986 294.944647 
L 395.041256 295.03191 
L 395.173795 294.872248 
L 395.240065 295.070917 
L 395.372604 294.837597 
L 395.770221 295.425306 
L 395.96903 295.348586 
L 396.035299 295.31597 
L 396.101569 295.435398 
L 396.167838 295.337307 
L 396.432917 295.443753 
L 396.697995 295.374956 
L 396.830534 295.449597 
L 396.963073 295.223036 
L 397.029343 295.413755 
L 397.095612 295.378863 
L 397.161882 295.328819 
L 397.228151 295.448263 
L 397.294421 295.244981 
L 397.36069 295.396852 
L 397.890847 295.376505 
L 398.155925 295.419141 
L 398.288464 295.43824 
L 398.487273 295.380167 
L 398.487273 295.380167 
" clip-path="url(#pc5e8d89932)" style="fill: none; stroke: #1f77b4; stroke-width: 1.5; stroke-linecap: square"/>
   </g>
   <g id="patch_3">
    <path d="M 57.6 307.584 
L 57.6 41.472 
" style="fill: none; stroke: #000000; stroke-width: 0.8; stroke-linejoin: miter; stroke-linecap: square"/>
   </g>
   <g id="patch_4">
    <path d="M 414.72 307.584 
L 414.72 41.472 
" style="fill: none; stroke: #000000; stroke-width: 0.8; stroke-linejoin: miter; stroke-linecap: square"/>
   </g>
   <g id="patch_5">
    <path d="M 57.6 307.584 
L 414.72 307.584 
" style="fill: none; stroke: #000000; stroke-width: 0.8; stroke-linejoin: miter; stroke-linecap: square"/>
   </g>
   <g id="patch_6">
    <path d="M 57.6 41.472 
L 414.72 41.472 
" style="fill: none; stroke: #000000; stroke-width: 0.8; stroke-linejoin: miter; stroke-linecap: square"/>
   </g>
   <g id="text_17">
    <text style="font: 12px 'IPAexGothic'; text-anchor: middle" x="236.16" y="35.472" transform="rotate(-0 236.16 35.472)">"065_A3.wav"の振幅スペクトル</text>
   </g>
  </g>
 </g>
 <defs>
  <clipPath id="pc5e8d89932">
   <rect x="57.6" y="41.472" width="357.12" height="266.112"/>
  </clipPath>
 </defs>
</svg>
