<?xml version="1.0" encoding="utf-8" standalone="no"?>
<!DOCTYPE svg PUBLIC "-//W3C//DTD SVG 1.1//EN"
  "http://www.w3.org/Graphics/SVG/1.1/DTD/svg11.dtd">
<svg xmlns:xlink="http://www.w3.org/1999/xlink" width="460.8pt" height="345.6pt" viewBox="0 0 460.8 345.6" xmlns="http://www.w3.org/2000/svg" version="1.1">
 <metadata>
  <rdf:RDF xmlns:dc="http://purl.org/dc/elements/1.1/" xmlns:cc="http://creativecommons.org/ns#" xmlns:rdf="http://www.w3.org/1999/02/22-rdf-syntax-ns#">
   <cc:Work>
    <dc:type rdf:resource="http://purl.org/dc/dcmitype/StillImage"/>
    <dc:date>2022-11-28T12:37:32.189233</dc:date>
    <dc:format>image/svg+xml</dc:format>
    <dc:creator>
     <cc:Agent>
      <dc:title>Matplotlib v3.6.2, https://matplotlib.org/</dc:title>
     </cc:Agent>
    </dc:creator>
   </cc:Work>
  </rdf:RDF>
 </metadata>
 <defs>
  <style type="text/css">*{stroke-linejoin: round; stroke-linecap: butt}</style>
 </defs>
 <g id="figure_1">
  <g id="patch_1">
   <path d="M 0 345.6 
L 460.8 345.6 
L 460.8 0 
L 0 0 
z
" style="fill: #ffffff"/>
  </g>
  <g id="axes_1">
   <g id="patch_2">
    <path d="M 57.6 307.584 
L 414.72 307.584 
L 414.72 41.472 
L 57.6 41.472 
z
" style="fill: #ffffff"/>
   </g>
   <g id="matplotlib.axis_1">
    <g id="xtick_1">
     <g id="line2d_1">
      <defs>
       <path id="mb070030668" d="M 0 0 
L 0 3.5 
" style="stroke: #000000; stroke-width: 0.8"/>
      </defs>
      <g>
       <use xlink:href="#mb070030668" x="73.832727" y="307.584" style="stroke: #000000; stroke-width: 0.8"/>
      </g>
     </g>
     <g id="text_1">
      <text style="font: 10px 'IPAexGothic'; text-anchor: middle" x="73.832727" y="322.074625" transform="rotate(-0 73.832727 322.074625)">0</text>
     </g>
    </g>
    <g id="xtick_2">
     <g id="line2d_2">
      <g>
       <use xlink:href="#mb070030668" x="140.102281" y="307.584" style="stroke: #000000; stroke-width: 0.8"/>
      </g>
     </g>
     <g id="text_2">
      <text style="font: 10px 'IPAexGothic'; text-anchor: middle" x="140.102281" y="322.074625" transform="rotate(-0 140.102281 322.074625)">1000</text>
     </g>
    </g>
    <g id="xtick_3">
     <g id="line2d_3">
      <g>
       <use xlink:href="#mb070030668" x="206.371835" y="307.584" style="stroke: #000000; stroke-width: 0.8"/>
      </g>
     </g>
     <g id="text_3">
      <text style="font: 10px 'IPAexGothic'; text-anchor: middle" x="206.371835" y="322.074625" transform="rotate(-0 206.371835 322.074625)">2000</text>
     </g>
    </g>
    <g id="xtick_4">
     <g id="line2d_4">
      <g>
       <use xlink:href="#mb070030668" x="272.64139" y="307.584" style="stroke: #000000; stroke-width: 0.8"/>
      </g>
     </g>
     <g id="text_4">
      <text style="font: 10px 'IPAexGothic'; text-anchor: middle" x="272.64139" y="322.074625" transform="rotate(-0 272.64139 322.074625)">3000</text>
     </g>
    </g>
    <g id="xtick_5">
     <g id="line2d_5">
      <g>
       <use xlink:href="#mb070030668" x="338.910944" y="307.584" style="stroke: #000000; stroke-width: 0.8"/>
      </g>
     </g>
     <g id="text_5">
      <text style="font: 10px 'IPAexGothic'; text-anchor: middle" x="338.910944" y="322.074625" transform="rotate(-0 338.910944 322.074625)">4000</text>
     </g>
    </g>
    <g id="xtick_6">
     <g id="line2d_6">
      <g>
       <use xlink:href="#mb070030668" x="405.180498" y="307.584" style="stroke: #000000; stroke-width: 0.8"/>
      </g>
     </g>
     <g id="text_6">
      <text style="font: 10px 'IPAexGothic'; text-anchor: middle" x="405.180498" y="322.074625" transform="rotate(-0 405.180498 322.074625)">5000</text>
     </g>
    </g>
    <g id="text_7">
     <text style="font: 10px 'IPAexGothic'; text-anchor: middle" x="236.16" y="335.924625" transform="rotate(-0 236.16 335.924625)">周波数[Hz]</text>
    </g>
   </g>
   <g id="matplotlib.axis_2">
    <g id="ytick_1">
     <g id="line2d_7">
      <defs>
       <path id="m1c263dd278" d="M 0 0 
L -3.5 0 
" style="stroke: #000000; stroke-width: 0.8"/>
      </defs>
      <g>
       <use xlink:href="#m1c263dd278" x="57.6" y="295.492075" style="stroke: #000000; stroke-width: 0.8"/>
      </g>
     </g>
     <g id="text_8">
      <text style="font: 10px 'IPAexGothic'; text-anchor: end" x="50.6" y="299.237388" transform="rotate(-0 50.6 299.237388)">0.0</text>
     </g>
    </g>
    <g id="ytick_2">
     <g id="line2d_8">
      <g>
       <use xlink:href="#m1c263dd278" x="57.6" y="262.628065" style="stroke: #000000; stroke-width: 0.8"/>
      </g>
     </g>
     <g id="text_9">
      <text style="font: 10px 'IPAexGothic'; text-anchor: end" x="50.6" y="266.373377" transform="rotate(-0 50.6 266.373377)">0.2</text>
     </g>
    </g>
    <g id="ytick_3">
     <g id="line2d_9">
      <g>
       <use xlink:href="#m1c263dd278" x="57.6" y="229.764054" style="stroke: #000000; stroke-width: 0.8"/>
      </g>
     </g>
     <g id="text_10">
      <text style="font: 10px 'IPAexGothic'; text-anchor: end" x="50.6" y="233.509367" transform="rotate(-0 50.6 233.509367)">0.4</text>
     </g>
    </g>
    <g id="ytick_4">
     <g id="line2d_10">
      <g>
       <use xlink:href="#m1c263dd278" x="57.6" y="196.900043" style="stroke: #000000; stroke-width: 0.8"/>
      </g>
     </g>
     <g id="text_11">
      <text style="font: 10px 'IPAexGothic'; text-anchor: end" x="50.6" y="200.645356" transform="rotate(-0 50.6 200.645356)">0.6</text>
     </g>
    </g>
    <g id="ytick_5">
     <g id="line2d_11">
      <g>
       <use xlink:href="#m1c263dd278" x="57.6" y="164.036033" style="stroke: #000000; stroke-width: 0.8"/>
      </g>
     </g>
     <g id="text_12">
      <text style="font: 10px 'IPAexGothic'; text-anchor: end" x="50.6" y="167.781345" transform="rotate(-0 50.6 167.781345)">0.8</text>
     </g>
    </g>
    <g id="ytick_6">
     <g id="line2d_12">
      <g>
       <use xlink:href="#m1c263dd278" x="57.6" y="131.172022" style="stroke: #000000; stroke-width: 0.8"/>
      </g>
     </g>
     <g id="text_13">
      <text style="font: 10px 'IPAexGothic'; text-anchor: end" x="50.6" y="134.917335" transform="rotate(-0 50.6 134.917335)">1.0</text>
     </g>
    </g>
    <g id="ytick_7">
     <g id="line2d_13">
      <g>
       <use xlink:href="#m1c263dd278" x="57.6" y="98.308011" style="stroke: #000000; stroke-width: 0.8"/>
      </g>
     </g>
     <g id="text_14">
      <text style="font: 10px 'IPAexGothic'; text-anchor: end" x="50.6" y="102.053324" transform="rotate(-0 50.6 102.053324)">1.2</text>
     </g>
    </g>
    <g id="ytick_8">
     <g id="line2d_14">
      <g>
       <use xlink:href="#m1c263dd278" x="57.6" y="65.444001" style="stroke: #000000; stroke-width: 0.8"/>
      </g>
     </g>
     <g id="text_15">
      <text style="font: 10px 'IPAexGothic'; text-anchor: end" x="50.6" y="69.189313" transform="rotate(-0 50.6 69.189313)">1.4</text>
     </g>
    </g>
    <g id="text_16">
     <text style="font: 10px 'IPAexGothic'; text-anchor: middle" x="29.460938" y="174.528" transform="rotate(-90 29.460938 174.528)">振幅</text>
    </g>
    <g id="text_17">
     <text style="font: 10px 'IPAexGothic'; text-anchor: start" x="57.6" y="38.472" transform="rotate(-0 57.6 38.472)">1e7</text>
    </g>
   </g>
   <g id="line2d_15">
    <path d="M 73.832727 284.28088 
L 73.965266 294.823239 
L 74.164075 294.851406 
L 74.296614 294.91059 
L 74.495423 294.951483 
L 74.826771 294.707961 
L 76.019623 295.009821 
L 76.682318 294.892785 
L 77.013666 294.902568 
L 77.278744 294.91824 
L 77.610092 294.916764 
L 78.471596 295.00878 
L 78.935483 294.931536 
L 80.260874 294.970575 
L 80.79103 294.947921 
L 84.568395 294.745478 
L 84.966012 294.731398 
L 85.429899 294.220717 
L 85.562438 294.189802 
L 85.694977 293.792351 
L 85.761247 293.885899 
L 85.893786 293.712568 
L 86.158864 292.976416 
L 86.225134 293.04308 
L 86.291403 293.440816 
L 86.423943 292.534594 
L 86.556482 292.882153 
L 86.622751 292.346453 
L 86.689021 292.435509 
L 86.75529 292.554487 
L 86.954099 292.080011 
L 87.086638 291.275384 
L 87.152908 291.414314 
L 87.219177 292.403035 
L 87.285447 292.381602 
L 87.351716 291.819367 
L 87.417986 291.843174 
L 87.484255 292.278379 
L 87.550525 292.174165 
L 87.616795 291.897522 
L 87.815603 289.637733 
L 88.014412 292.582324 
L 88.080681 292.040142 
L 88.146951 282.889955 
L 88.213221 285.472235 
L 88.27949 284.929973 
L 88.34576 285.908491 
L 88.412029 117.43622 
L 88.544568 289.804085 
L 88.743377 287.769969 
L 88.875916 293.921121 
L 88.942186 293.815174 
L 89.074725 294.5474 
L 89.140994 294.358126 
L 89.273533 293.95842 
L 89.339803 294.089455 
L 89.472342 294.559273 
L 89.604881 294.31461 
L 89.869959 294.75094 
L 89.936229 294.599628 
L 90.068768 294.799417 
L 90.135038 294.727532 
L 90.201307 294.796214 
L 90.731464 294.980788 
L 90.930272 295.027253 
L 92.520742 295.194272 
L 93.846133 295.096436 
L 94.906445 295.133503 
L 96.364376 294.939099 
L 97.027071 295.058165 
L 97.358419 294.990528 
L 97.623497 294.952555 
L 98.021115 294.861867 
L 98.485001 294.838794 
L 98.75008 295.014235 
L 98.816349 294.95712 
L 98.882619 295.262136 
L 98.948888 295.179073 
L 99.015158 295.327564 
L 99.213966 295.108762 
L 99.280236 295.14694 
L 99.412775 294.854628 
L 99.545314 294.757084 
L 99.677853 294.418999 
L 99.810392 294.358187 
L 100.274279 292.55578 
L 100.340549 293.123244 
L 100.406818 292.814522 
L 100.473088 292.680703 
L 100.671897 291.764236 
L 100.738166 291.517635 
L 100.804436 291.819496 
L 100.870705 291.77758 
L 101.202053 290.706185 
L 101.268323 290.991749 
L 101.334592 291.088948 
L 101.533401 289.893456 
L 101.59967 290.095404 
L 101.73221 289.981608 
L 101.931018 291.663296 
L 101.997288 289.580001 
L 102.063557 290.794897 
L 102.196096 290.288802 
L 102.262366 290.392611 
L 102.328636 290.36703 
L 102.394905 290.757136 
L 102.461175 290.7395 
L 102.527444 290.586963 
L 102.593714 291.406428 
L 102.726253 270.767847 
L 102.792522 284.295862 
L 102.858792 282.701945 
L 102.925062 279.61403 
L 102.991331 53.568 
L 103.12387 288.558674 
L 103.19014 289.058173 
L 103.256409 278.090208 
L 103.388948 294.356931 
L 103.455218 293.730292 
L 103.587757 292.76627 
L 103.654027 294.055137 
L 103.720296 293.505685 
L 103.786566 294.005178 
L 103.852835 293.665838 
L 103.985374 294.162197 
L 104.051644 293.886287 
L 104.117913 294.014706 
L 104.184183 294.34509 
L 104.250453 293.987955 
L 104.316722 294.05428 
L 104.515531 294.297466 
L 104.64807 293.677308 
L 104.714339 293.815079 
L 104.846879 293.9302 
L 105.045687 294.588227 
L 105.111957 293.919333 
L 105.178226 294.000886 
L 105.310765 293.989216 
L 105.575844 294.388341 
L 106.768696 295.141089 
L 107.033774 295.160724 
L 107.298852 295.075986 
L 107.56393 295.129759 
L 107.829009 295.165802 
L 108.557974 295.452195 
L 109.02186 295.385809 
L 109.220669 295.283287 
L 109.618286 295.298352 
L 109.750826 295.309622 
L 109.949634 295.346056 
L 110.214712 295.397368 
L 110.479791 295.388888 
L 111.407564 295.162353 
L 111.540104 295.209113 
L 111.672643 295.176886 
L 111.805182 295.269733 
L 111.937721 295.287254 
L 112.13653 295.435977 
L 112.467877 295.329738 
L 112.799225 295.010649 
L 112.931764 294.977484 
L 113.064303 294.955523 
L 113.329382 294.591444 
L 113.461921 294.6632 
L 113.59446 294.47483 
L 113.726999 294.675676 
L 113.793268 294.529439 
L 113.992077 294.758543 
L 114.124616 294.856264 
L 114.323425 294.588225 
L 114.389694 294.790849 
L 114.455964 294.656044 
L 114.522233 294.726974 
L 114.654773 294.993067 
L 114.919851 293.715037 
L 114.98612 294.652706 
L 115.05239 294.55252 
L 115.251199 293.511372 
L 115.317468 293.836902 
L 115.450007 293.050318 
L 115.516277 293.340954 
L 115.781355 292.415734 
L 115.847625 292.475958 
L 115.980164 291.57247 
L 116.046433 292.287294 
L 116.245242 291.023775 
L 116.311511 291.640361 
L 116.377781 290.767099 
L 116.444051 290.896397 
L 116.51032 291.369264 
L 116.642859 290.243422 
L 116.709129 291.036041 
L 116.775398 290.81507 
L 116.841668 290.862375 
L 116.907937 291.560248 
L 116.974207 289.574067 
L 117.040477 289.876725 
L 117.173016 292.423791 
L 117.305555 272.266904 
L 117.371824 286.139264 
L 117.438094 285.080506 
L 117.504363 288.785924 
L 117.570633 112.359014 
L 117.703172 294.872139 
L 117.769442 293.077684 
L 117.901981 275.700968 
L 118.03452 289.780158 
L 118.365868 291.892453 
L 118.432137 291.504213 
L 118.564676 292.547578 
L 118.630946 292.440989 
L 118.829754 293.143648 
L 118.962294 293.404708 
L 119.624989 294.692705 
L 119.757528 294.824942 
L 119.956337 294.793705 
L 120.088876 294.753901 
L 120.155146 294.780265 
L 120.221415 294.59292 
L 120.287685 294.715102 
L 120.619032 294.627487 
L 121.480537 294.811804 
L 121.811884 294.995021 
L 122.607119 295.134244 
L 123.004736 295.126222 
L 123.336084 295.163124 
L 126.715831 295.223393 
L 127.312257 295.235533 
L 127.709875 295.208263 
L 128.240031 295.089904 
L 128.770188 295.068854 
L 128.968996 295.237171 
L 129.167805 295.301833 
L 129.300344 295.482373 
L 129.432883 295.397471 
L 129.697961 294.960529 
L 129.764231 295.027857 
L 129.96304 294.49862 
L 130.029309 294.692321 
L 130.095579 294.603741 
L 130.228118 294.049076 
L 130.426926 293.910495 
L 130.625735 293.188929 
L 130.692005 293.330008 
L 130.957083 292.491565 
L 131.023352 292.780476 
L 131.089622 292.65939 
L 131.222161 292.087524 
L 131.288431 292.1649 
L 131.487239 292.707523 
L 131.553509 290.26598 
L 131.619778 290.409216 
L 131.752318 291.920235 
L 131.884857 271.137022 
L 131.951126 283.363596 
L 132.017396 282.954273 
L 132.083665 283.651409 
L 132.149935 165.850154 
L 132.282474 292.792076 
L 132.348744 293.423024 
L 132.415013 275.973832 
L 132.481283 280.837829 
L 132.547552 291.246523 
L 132.613822 291.049891 
L 132.680091 291.450778 
L 132.746361 288.17834 
L 132.8789 292.626333 
L 132.94517 292.825611 
L 133.011439 292.236748 
L 133.143978 292.944403 
L 133.210248 292.923037 
L 133.409056 293.643193 
L 133.475326 293.589242 
L 133.541596 293.532623 
L 133.740404 294.080643 
L 133.872943 294.119887 
L 134.071752 294.456454 
L 134.469369 294.843431 
L 134.866987 294.856037 
L 135.264604 294.706271 
L 135.463413 294.769127 
L 135.728491 294.817368 
L 136.192378 295.146313 
L 136.324917 294.855335 
L 136.457456 295.474099 
L 136.523725 295.487438 
L 136.722534 295.206134 
L 136.855073 294.894209 
L 136.987612 295.053076 
L 137.31896 294.843514 
L 137.451499 294.654562 
L 137.517769 294.436429 
L 137.584038 294.465947 
L 137.650308 294.660713 
L 137.716577 294.609146 
L 137.849117 294.396477 
L 137.981656 294.663924 
L 138.047925 294.538779 
L 138.114195 294.728754 
L 138.180464 294.661268 
L 138.379273 294.469731 
L 138.644351 294.807059 
L 138.909429 294.749769 
L 139.373316 295.207002 
L 139.505855 295.239756 
L 139.770934 295.344126 
L 141.626481 294.907816 
L 141.82529 294.651306 
L 141.891559 294.706103 
L 141.957829 294.595956 
L 142.024098 294.696479 
L 142.090368 294.794772 
L 142.156638 294.714071 
L 142.421716 294.58409 
L 142.487985 294.706317 
L 142.554255 294.650224 
L 142.753064 294.759741 
L 142.819333 294.821242 
L 142.885603 294.702578 
L 142.951872 294.864088 
L 143.018142 294.73388 
L 143.084411 294.662507 
L 143.150681 294.968621 
L 143.21695 294.841282 
L 143.34949 295.067859 
L 143.415759 294.720729 
L 143.482029 294.754229 
L 143.614568 295.249661 
L 143.680837 295.228272 
L 144.277263 294.1004 
L 144.409802 293.414335 
L 144.476072 293.772673 
L 144.542341 292.986228 
L 144.608611 293.248302 
L 144.674881 293.378247 
L 144.873689 292.414812 
L 144.939959 292.767222 
L 145.138767 291.789006 
L 145.205037 291.907066 
L 145.271307 291.444416 
L 145.337576 291.587476 
L 145.470115 291.637274 
L 145.602654 290.734256 
L 145.668924 289.889467 
L 145.801463 291.845357 
L 145.934002 290.595502 
L 146.000272 290.916371 
L 146.066541 292.722292 
L 146.132811 286.54358 
L 146.19908 287.730241 
L 146.26535 290.478899 
L 146.331619 288.628237 
L 146.464159 265.0399 
L 146.530428 283.854749 
L 146.596698 279.35907 
L 146.662967 273.574421 
L 146.729237 113.1531 
L 146.861776 290.540856 
L 146.928045 293.260673 
L 146.994315 267.120507 
L 147.060585 274.427859 
L 147.126854 289.385638 
L 147.193124 289.283278 
L 147.259393 289.039443 
L 147.325663 285.711868 
L 147.391932 291.923341 
L 147.458202 291.844818 
L 147.590741 291.425032 
L 147.657011 292.426913 
L 147.72328 291.992676 
L 147.78955 292.234402 
L 147.855819 291.895894 
L 148.054628 292.696075 
L 148.187167 292.720821 
L 148.253437 292.715117 
L 148.319706 293.092747 
L 148.385976 292.937759 
L 148.717323 293.43589 
L 148.783593 293.960974 
L 148.849862 293.546113 
L 148.916132 293.61852 
L 149.114941 293.913077 
L 149.24748 294.194761 
L 149.313749 294.143568 
L 149.446288 294.039726 
L 149.645097 294.558085 
L 149.711367 294.419709 
L 149.777636 294.464504 
L 149.843906 294.451166 
L 150.042714 294.932942 
L 150.108984 294.87762 
L 150.175254 294.715741 
L 150.241523 294.758404 
L 150.374062 295.154377 
L 150.440332 294.940133 
L 150.506601 295.016036 
L 150.572871 295.34183 
L 150.70541 294.869812 
L 150.837949 295.115544 
L 150.970488 294.641026 
L 151.103027 294.893933 
L 151.235566 294.266162 
L 151.301836 294.382062 
L 151.434375 294.432144 
L 151.500645 293.933644 
L 151.633184 294.351113 
L 151.699453 294.279653 
L 151.765723 293.944264 
L 151.831992 294.135616 
L 151.898262 293.975435 
L 151.964532 294.013988 
L 152.097071 294.112571 
L 152.295879 293.715429 
L 152.560958 294.218971 
L 152.693497 294.095759 
L 152.759766 294.324518 
L 152.826036 294.154202 
L 152.892305 294.090458 
L 152.958575 294.176872 
L 153.091114 294.496018 
L 153.157384 294.418062 
L 153.289923 294.665102 
L 153.356192 294.474926 
L 153.555001 294.993758 
L 153.62127 294.838815 
L 153.68754 294.898778 
L 153.820079 295.082764 
L 154.085157 295.356921 
L 154.151427 295.247818 
L 154.283966 295.473872 
L 154.350235 295.48312 
L 154.482775 295.344048 
L 154.681583 295.357048 
L 155.012931 295.086796 
L 155.079201 295.199067 
L 155.14547 295.101635 
L 155.21174 295.110424 
L 155.278009 295.3071 
L 155.410548 294.980609 
L 155.874435 295.018467 
L 156.073244 294.70026 
L 156.139513 294.685314 
L 156.272053 294.819358 
L 156.6034 294.471431 
L 156.66967 294.724374 
L 156.735939 294.607033 
L 156.802209 294.714162 
L 156.868479 294.650711 
L 157.067287 294.57818 
L 157.199826 294.665271 
L 157.663713 294.828268 
L 157.796252 295.048228 
L 158.326409 295.444593 
L 158.657756 295.078945 
L 158.790296 294.93111 
L 159.254182 294.397249 
L 159.320452 294.625418 
L 159.386722 294.251023 
L 159.452991 294.387262 
L 159.519261 294.231795 
L 159.58553 294.265027 
L 159.6518 294.257646 
L 159.718069 294.132705 
L 159.784339 294.38836 
L 159.850608 294.265471 
L 159.983148 294.154086 
L 160.049417 294.25852 
L 160.115687 294.147773 
L 160.181956 294.320869 
L 160.248226 294.175008 
L 160.314495 294.262669 
L 160.645843 294.944896 
L 160.712113 293.65899 
L 160.778382 294.168982 
L 160.844652 294.241367 
L 160.910921 293.739382 
L 161.04346 289.708597 
L 161.10973 292.614899 
L 161.176 291.392112 
L 161.242269 291.920846 
L 161.308539 279.549442 
L 161.441078 293.22599 
L 161.507347 293.247631 
L 161.573617 288.328626 
L 161.639886 291.457455 
L 161.772426 294.964768 
L 161.838695 294.803729 
L 161.904965 294.260455 
L 162.037504 295.332827 
L 162.170043 295.322901 
L 162.368852 295.292407 
L 163.097817 295.129977 
L 163.826782 295.169374 
L 165.814868 294.903874 
L 165.881138 294.935452 
L 166.013677 294.776605 
L 166.079947 294.824637 
L 166.278755 294.803864 
L 166.543833 294.700684 
L 166.610103 294.602922 
L 166.742642 294.810508 
L 167.206529 294.822648 
L 167.537877 294.97704 
L 167.604146 294.884487 
L 167.802955 295.136069 
L 168.333111 295.094767 
L 168.399381 295.165673 
L 168.59819 294.936889 
L 168.863268 294.861555 
L 169.128346 294.720549 
L 169.260885 294.741772 
L 169.857311 294.740868 
L 170.188659 294.787315 
L 170.254928 294.592243 
L 170.321198 294.625999 
L 170.387468 294.616068 
L 170.652546 294.150957 
L 170.718815 294.246434 
L 170.785085 294.193168 
L 170.851354 294.007855 
L 170.917624 294.173037 
L 171.315241 293.358638 
L 171.381511 293.391787 
L 171.44778 293.427866 
L 171.51405 293.814011 
L 171.646589 293.276201 
L 171.712859 293.326381 
L 171.779128 293.338108 
L 171.845398 293.169895 
L 171.911667 293.647085 
L 171.977937 293.362564 
L 172.110476 293.769697 
L 172.176746 293.46568 
L 172.375554 294.097761 
L 172.441824 293.976003 
L 172.508093 294.435986 
L 172.574363 294.317165 
L 172.706902 294.767999 
L 172.839441 295.302228 
L 172.97198 295.135973 
L 173.03825 294.836259 
L 173.104519 293.781247 
L 173.170789 293.807701 
L 173.237058 293.667678 
L 173.303328 293.872935 
L 173.369598 293.770364 
L 173.435867 293.648482 
L 173.767215 290.946963 
L 173.833484 292.030827 
L 174.032293 290.265992 
L 174.164832 290.925676 
L 174.42991 287.010185 
L 174.49618 288.535481 
L 174.562449 287.532368 
L 174.628719 288.675272 
L 174.694989 288.580786 
L 174.761258 288.819955 
L 174.827528 288.705307 
L 174.893797 288.769081 
L 175.026336 287.116766 
L 175.092606 287.843999 
L 175.158875 286.806635 
L 175.225145 293.342103 
L 175.291415 271.579264 
L 175.357684 279.841017 
L 175.423954 280.55321 
L 175.490223 274.408325 
L 175.556493 212.641219 
L 175.622762 217.199827 
L 175.755301 266.693687 
L 175.821571 275.050092 
L 175.887841 65.353809 
L 176.02038 280.13582 
L 176.086649 273.991128 
L 176.152919 197.42827 
L 176.219188 231.049102 
L 176.351727 281.038061 
L 176.417997 280.037549 
L 176.484267 271.66967 
L 176.550536 288.320296 
L 176.616806 287.696135 
L 176.683075 288.048098 
L 176.749345 287.144951 
L 176.815614 291.357222 
L 176.881884 290.538619 
L 177.875927 294.685283 
L 177.942197 294.231314 
L 178.008466 294.730104 
L 178.207275 293.97673 
L 178.273545 294.238673 
L 178.472353 293.395759 
L 178.604892 293.439873 
L 178.86997 292.682898 
L 179.068779 293.286418 
L 179.201318 292.438544 
L 179.267588 292.814944 
L 179.598936 293.320087 
L 179.665205 292.995129 
L 179.797744 293.344781 
L 179.864014 293.02724 
L 180.062822 293.904742 
L 180.129092 293.950485 
L 180.261631 293.753715 
L 180.46044 294.280325 
L 180.526709 294.221193 
L 180.659248 294.553747 
L 180.725518 294.37177 
L 180.858057 294.656265 
L 180.924327 294.487938 
L 181.123135 295.054315 
L 181.454483 294.988298 
L 181.653292 295.182781 
L 181.719561 295.153011 
L 181.785831 295.29025 
L 181.8521 295.192743 
L 181.98464 295.209717 
L 182.117179 295.233689 
L 182.315987 295.262037 
L 182.448526 295.09605 
L 182.647335 295.11626 
L 182.846144 294.972191 
L 182.978683 294.966587 
L 183.177492 294.900914 
L 183.641378 294.845003 
L 183.906457 294.90938 
L 184.237804 295.0196 
L 184.436613 295.150697 
L 184.635422 295.184907 
L 184.9005 295.241614 
L 185.099309 295.130682 
L 185.298117 295.020151 
L 185.496926 294.914641 
L 185.629465 294.75364 
L 185.960813 294.702525 
L 186.093352 294.544385 
L 186.159621 294.5987 
L 186.225891 294.653883 
L 186.292161 294.935176 
L 186.35843 294.744632 
L 186.557239 294.581852 
L 187.021126 294.979855 
L 187.286204 294.849973 
L 187.352473 295.101658 
L 187.418743 294.918454 
L 187.551282 295.161865 
L 187.617552 295.084034 
L 187.750091 294.79227 
L 187.81636 295.056104 
L 187.948899 294.45086 
L 188.015169 294.616958 
L 188.081439 294.327774 
L 188.147708 294.602434 
L 188.213978 294.412928 
L 188.346517 294.173296 
L 188.479056 293.933434 
L 188.545325 293.959274 
L 188.611595 293.685574 
L 188.677864 293.762742 
L 188.744134 293.905171 
L 188.942943 293.11158 
L 189.141751 293.468722 
L 189.34056 292.340634 
L 189.473099 293.50225 
L 189.605638 292.237887 
L 189.804447 294.600636 
L 189.870716 289.216982 
L 189.936986 290.644734 
L 190.003256 291.179965 
L 190.069525 288.931345 
L 190.202064 267.296111 
L 190.268334 285.278942 
L 190.334603 284.521246 
L 190.400873 283.89326 
L 190.467142 233.621482 
L 190.599682 289.6358 
L 190.665951 291.037479 
L 190.732221 269.398982 
L 190.79849 280.882212 
L 190.931029 292.220449 
L 191.063568 287.044726 
L 191.129838 293.569858 
L 191.196108 293.177741 
L 191.262377 293.183492 
L 191.328647 292.742108 
L 191.394916 294.563863 
L 191.461186 294.274601 
L 191.527455 294.157822 
L 191.593725 294.249635 
L 191.726264 294.33371 
L 192.057612 294.8633 
L 192.190151 294.902504 
L 192.521499 295.340456 
L 192.587768 295.269153 
L 192.654038 295.356932 
L 193.515542 295.076327 
L 197.094098 295.465752 
L 197.292907 295.44057 
L 197.624254 295.440854 
L 199.214724 295.388495 
L 199.413532 295.417707 
L 199.877419 295.400289 
L 200.009958 295.262885 
L 200.407576 295.054812 
L 200.540115 294.869713 
L 200.606384 294.924516 
L 200.937732 294.86655 
L 201.136541 294.541291 
L 201.401619 294.849531 
L 201.534158 294.515785 
L 201.666697 294.640087 
L 201.799236 294.966273 
L 201.931775 294.725545 
L 202.130584 294.994447 
L 202.196854 295.018716 
L 202.329393 294.724227 
L 202.395662 294.969948 
L 202.461932 294.945695 
L 202.528201 294.700616 
L 202.594471 295.037189 
L 202.79328 293.885872 
L 202.859549 294.142684 
L 202.925819 294.190749 
L 203.124627 293.478604 
L 203.190897 293.542431 
L 203.389706 292.77638 
L 203.455975 292.90847 
L 203.588514 292.339675 
L 203.654784 292.577275 
L 203.787323 291.765575 
L 203.853592 291.775819 
L 203.919862 292.517912 
L 203.986131 292.28427 
L 204.052401 291.447423 
L 204.118671 285.712567 
L 204.18494 288.890454 
L 204.25121 292.265314 
L 204.317479 290.979151 
L 204.383749 290.232881 
L 204.450018 273.61992 
L 204.582557 287.719405 
L 204.648827 283.489926 
L 204.781366 243.293 
L 204.847636 272.25615 
L 204.913905 263.652744 
L 204.980175 256.34868 
L 205.046444 136.761584 
L 205.178983 281.236478 
L 205.245253 279.563928 
L 205.311523 230.663138 
L 205.510331 287.448929 
L 205.64287 273.594318 
L 205.70914 291.407974 
L 205.775409 290.04783 
L 205.841679 290.028206 
L 205.907949 288.269888 
L 205.974218 293.838777 
L 206.040488 292.533895 
L 206.106757 292.47667 
L 206.173027 292.757691 
L 206.239296 292.707731 
L 206.371835 292.474613 
L 206.438105 293.034924 
L 206.504375 292.947388 
L 206.570644 293.001056 
L 206.769453 293.63742 
L 207.16707 294.488451 
L 207.23334 294.46961 
L 207.432148 294.777625 
L 207.498418 294.866495 
L 207.564687 294.793402 
L 207.763496 294.844621 
L 207.962305 294.62094 
L 208.161113 294.578914 
L 208.359922 294.597351 
L 208.492461 294.492179 
L 208.558731 294.657729 
L 208.625 294.62398 
L 208.890078 294.722994 
L 209.155157 294.953804 
L 209.420235 294.998864 
L 209.685313 295.200755 
L 209.817852 294.957325 
L 210.016661 294.961964 
L 210.281739 294.793129 
L 210.414278 294.796275 
L 210.679356 294.623411 
L 210.944435 294.68224 
L 211.010704 294.622703 
L 211.143243 294.717296 
L 211.209513 294.554973 
L 211.275782 294.663225 
L 211.408322 294.883825 
L 211.540861 294.873554 
L 211.6734 294.914708 
L 211.739669 294.835713 
L 211.938478 295.087451 
L 212.137287 295.061943 
L 212.402365 295.093185 
L 212.799982 294.97483 
L 212.932521 295.043319 
L 212.998791 294.998553 
L 213.06506 295.139726 
L 213.13133 295.058007 
L 213.462678 295.230262 
L 213.528947 295.322745 
L 213.595217 295.269174 
L 213.661486 295.20414 
L 213.794025 295.423861 
L 214.456721 294.771177 
L 214.854338 294.21418 
L 214.920608 294.274738 
L 215.053147 294.1696 
L 215.185686 293.967711 
L 215.251956 294.277518 
L 215.318225 293.739031 
L 215.384495 293.806272 
L 215.450764 293.976733 
L 215.517034 293.727667 
L 215.583303 293.793849 
L 215.649573 293.683833 
L 215.782112 294.083136 
L 215.980921 293.424593 
L 216.378538 294.301519 
L 216.511077 294.107648 
L 216.577347 293.866991 
L 216.643616 294.639966 
L 216.709886 294.356935 
L 216.842425 294.32651 
L 216.908695 294.872189 
L 216.974964 294.160094 
L 217.041234 294.346073 
L 217.107503 293.964152 
L 217.173773 294.146817 
L 217.240042 294.106615 
L 217.306312 294.384999 
L 217.372581 294.309726 
L 217.438851 294.270543 
L 217.57139 292.643084 
L 217.63766 293.287347 
L 217.770199 292.426201 
L 217.836468 293.052671 
L 217.902738 292.962575 
L 218.167816 291.242366 
L 218.234086 291.406822 
L 218.300355 291.875422 
L 218.432894 290.380241 
L 218.499164 291.479244 
L 218.565433 290.351374 
L 218.631703 291.562837 
L 218.764242 288.832858 
L 218.896781 290.276401 
L 218.963051 289.79041 
L 219.02932 269.567097 
L 219.09559 281.976232 
L 219.161859 286.208249 
L 219.228129 282.13867 
L 219.294398 250.004239 
L 219.360668 251.405023 
L 219.426938 274.225715 
L 219.493207 263.965909 
L 219.559477 250.395798 
L 219.625746 120.188814 
L 219.758285 281.681483 
L 219.824555 278.889203 
L 219.890824 219.321418 
L 219.957094 257.020536 
L 220.089633 285.804777 
L 220.222172 275.662364 
L 220.288442 292.385085 
L 220.354711 290.383529 
L 220.420981 290.417409 
L 220.48725 287.09544 
L 220.55352 294.574562 
L 220.61979 292.756767 
L 220.686059 292.602687 
L 220.752329 293.01505 
L 220.818598 292.775422 
L 220.884868 292.720097 
L 221.017407 293.086184 
L 221.083676 293.036892 
L 221.680102 294.12645 
L 221.746372 294.081744 
L 221.812642 294.176661 
L 221.945181 294.487264 
L 222.342798 294.787259 
L 222.541607 294.721589 
L 222.806685 294.972776 
L 222.872954 294.881465 
L 222.939224 294.933298 
L 223.071763 294.900202 
L 223.138033 295.147205 
L 223.204302 295.049702 
L 223.403111 295.477215 
L 223.46938 295.159482 
L 223.53565 295.179919 
L 223.668189 295.373241 
L 223.800728 295.192573 
L 223.866998 295.237665 
L 223.999537 295.105105 
L 224.065806 295.166446 
L 224.264615 294.831199 
L 224.595963 294.609396 
L 224.728502 294.697722 
L 225.324928 294.507132 
L 225.391197 294.848904 
L 225.457467 294.754389 
L 225.855084 294.910325 
L 225.987623 295.088083 
L 226.120163 295.168105 
L 226.51778 295.256483 
L 226.716589 295.097167 
L 226.915397 295.024166 
L 227.114206 294.877116 
L 227.180475 294.975529 
L 227.379284 294.685673 
L 227.710632 294.828288 
L 227.97571 294.825384 
L 228.108249 295.017388 
L 228.240788 295.021752 
L 228.439597 295.055216 
L 228.638406 295.403561 
L 228.903484 295.400376 
L 229.036023 295.206315 
L 229.102292 294.923354 
L 229.168562 295.130478 
L 229.234832 295.077236 
L 229.963797 294.730471 
L 230.030066 294.518668 
L 230.228875 294.804165 
L 230.560223 294.644704 
L 230.626492 294.871633 
L 230.692762 294.797985 
L 230.759031 294.747102 
L 230.95784 295.041661 
L 231.02411 295.09877 
L 231.090379 294.931964 
L 231.156649 295.063819 
L 231.487996 295.355026 
L 231.686805 295.231555 
L 231.753075 295.337697 
L 231.819344 295.258959 
L 232.018153 295.084174 
L 232.349501 294.948238 
L 232.548309 294.89399 
L 233.078466 294.850473 
L 233.211005 294.966243 
L 233.343544 294.879588 
L 233.542353 295.242679 
L 233.608622 294.891453 
L 233.674892 294.927305 
L 233.807431 295.033293 
L 233.8737 294.415287 
L 233.93997 294.497284 
L 234.006239 295.02444 
L 234.072509 294.742368 
L 234.138779 294.469044 
L 234.205048 292.215936 
L 234.337587 295.048722 
L 234.403857 294.989477 
L 234.470126 293.915886 
L 234.602665 295.355921 
L 234.668935 295.334758 
L 234.735205 295.061004 
L 234.801474 295.18619 
L 235.066552 295.21791 
L 235.265361 295.127504 
L 236.193135 295.315789 
L 236.259404 295.256431 
L 236.391943 295.38592 
L 238.114952 295.228289 
L 239.108995 295.271229 
L 239.771691 295.287254 
L 239.970499 295.305571 
L 240.898273 295.298893 
L 240.964543 295.177462 
L 241.030812 295.226163 
L 241.229621 295.119628 
L 241.42843 295.086312 
L 241.494699 295.098056 
L 241.627238 294.874409 
L 241.693508 294.955703 
L 241.892316 294.942419 
L 242.289934 294.73834 
L 242.422473 295.084201 
L 242.488742 294.999999 
L 242.621282 294.945837 
L 242.82009 294.96689 
L 243.350247 295.2983 
L 243.482786 295.118432 
L 243.615325 295.087841 
L 243.814133 294.859263 
L 243.880403 294.952733 
L 243.946673 294.949679 
L 244.079212 294.634694 
L 244.27802 294.727334 
L 244.476829 294.294401 
L 244.675638 294.394815 
L 244.741907 294.351538 
L 244.808177 294.109152 
L 244.874446 294.452399 
L 244.940716 294.256902 
L 245.073255 294.214715 
L 245.139525 294.404531 
L 245.205794 294.038559 
L 245.272064 294.079095 
L 245.338333 294.311819 
L 245.404603 294.237853 
L 245.669681 294.594242 
L 245.735951 294.322092 
L 245.80222 294.459525 
L 246.133568 295.277968 
L 246.266107 294.648468 
L 246.464916 294.971051 
L 246.663724 294.195999 
L 246.729994 294.134975 
L 246.796263 294.393917 
L 246.862533 294.292474 
L 246.928803 294.125407 
L 247.127611 293.08052 
L 247.193881 292.89276 
L 247.32642 293.134647 
L 247.392689 293.065369 
L 247.458959 292.815512 
L 247.591498 291.246241 
L 247.657768 292.748006 
L 247.724037 292.344811 
L 247.790307 292.837244 
L 247.922846 288.363092 
L 247.989115 290.377208 
L 248.055385 289.701094 
L 248.121655 290.189038 
L 248.187924 284.032635 
L 248.254194 286.642637 
L 248.320463 285.810535 
L 248.386733 281.909095 
L 248.453002 251.528483 
L 248.519272 260.810819 
L 248.585541 284.351967 
L 248.651811 279.545467 
L 248.71808 275.508825 
L 248.78435 207.12101 
L 248.916889 287.938699 
L 248.983159 287.299322 
L 249.049428 247.314821 
L 249.115698 274.143252 
L 249.248237 288.900574 
L 249.380776 278.079292 
L 249.447046 292.801553 
L 249.513315 291.263406 
L 249.579585 290.745564 
L 249.645854 288.780132 
L 249.712124 294.870834 
L 249.778393 293.229568 
L 249.844663 293.282147 
L 249.910932 293.641215 
L 250.043472 293.338282 
L 250.30855 293.587226 
L 250.374819 294.124317 
L 250.441089 294.095505 
L 250.639898 294.338051 
L 250.838706 294.806116 
L 250.904976 294.766132 
L 251.037515 295.153693 
L 251.170054 295.050475 
L 251.368863 295.125879 
L 251.633941 294.733986 
L 252.230367 294.492775 
L 252.296636 294.599819 
L 252.362906 294.45582 
L 252.429176 294.51091 
L 252.627984 294.54294 
L 252.694254 294.534336 
L 252.893062 294.752986 
L 253.025602 294.808294 
L 253.091871 294.719519 
L 253.356949 294.978706 
L 253.423219 294.951838 
L 253.622028 295.077231 
L 253.688297 295.039196 
L 253.820836 295.146155 
L 254.019645 295.076706 
L 254.152184 295.100572 
L 254.417262 295.087258 
L 255.212497 295.140009 
L 255.808923 294.852004 
L 255.875192 294.720517 
L 255.941462 294.808168 
L 256.471618 294.495871 
L 256.537888 294.274143 
L 256.604157 294.536244 
L 256.670427 294.506414 
L 256.802966 294.423826 
L 256.869236 294.324381 
L 256.935505 294.376545 
L 257.068044 294.437082 
L 257.134314 294.356924 
L 257.399392 294.83858 
L 257.531931 294.410906 
L 257.66447 294.771179 
L 257.73074 294.772695 
L 257.863279 294.979839 
L 257.929549 294.849084 
L 257.995818 294.325586 
L 258.194627 294.867189 
L 258.327166 294.915858 
L 258.459705 294.770151 
L 258.592244 294.743451 
L 258.791053 294.491006 
L 259.056131 294.13843 
L 259.25494 293.893392 
L 259.453748 294.362474 
L 259.520018 294.030607 
L 259.586287 294.129459 
L 259.718826 293.865268 
L 259.785096 293.946305 
L 259.851366 294.351068 
L 259.917635 294.340136 
L 260.116444 294.2465 
L 260.381522 294.837616 
L 260.447792 294.69072 
L 260.514061 294.987973 
L 260.580331 294.912754 
L 260.6466 294.908753 
L 260.71287 295.135215 
L 260.779139 295.043203 
L 260.911678 295.171944 
L 261.243026 294.203814 
L 261.375565 294.800597 
L 261.574374 294.047908 
L 261.839452 293.723997 
L 261.905722 293.968472 
L 261.971991 293.308611 
L 262.038261 293.498172 
L 262.1708 292.763316 
L 262.369609 294.400451 
L 262.502148 291.119462 
L 262.568417 293.182456 
L 262.634687 292.038156 
L 262.700956 289.479427 
L 262.767226 280.06239 
L 262.833496 288.683424 
L 262.899765 287.846573 
L 262.966035 287.728889 
L 263.032304 267.950264 
L 263.098574 273.14496 
L 263.164843 286.065855 
L 263.231113 279.589545 
L 263.297382 271.917549 
L 263.363652 243.535335 
L 263.496191 288.251938 
L 263.562461 285.776732 
L 263.62873 256.993776 
L 263.761269 289.655637 
L 263.827539 291.563661 
L 263.960078 280.912992 
L 264.026347 293.736412 
L 264.092617 293.038417 
L 264.158887 292.829999 
L 264.225156 290.546334 
L 264.357695 294.683584 
L 264.490234 294.572016 
L 264.755313 295.222379 
L 264.887852 295.160622 
L 264.954121 295.33332 
L 265.020391 295.30273 
L 265.351739 295.413824 
L 266.014434 295.190556 
L 266.080704 295.314031 
L 266.146973 295.210572 
L 266.279512 295.191372 
L 266.478321 295.215218 
L 266.743399 295.304634 
L 266.942208 295.2319 
L 267.008477 295.338823 
L 267.074747 295.280705 
L 267.936251 295.270172 
L 268.13506 295.357172 
L 268.400138 295.3616 
L 269.791799 295.435766 
L 270.056877 295.418901 
L 270.587033 295.402092 
L 271.183459 295.38495 
L 271.647346 295.349421 
L 273.105276 295.324775 
L 273.701702 295.029083 
L 273.767972 295.221778 
L 273.834241 295.110894 
L 273.966781 294.942921 
L 274.03305 295.042274 
L 274.09932 294.972244 
L 274.364398 294.994168 
L 274.430667 294.918214 
L 274.629476 295.042937 
L 274.828285 295.028484 
L 274.894554 295.043571 
L 275.093363 295.245883 
L 275.358441 295.371987 
L 275.55725 295.405149 
L 275.888598 294.974382 
L 276.021137 295.059957 
L 276.418754 294.286776 
L 276.617563 294.449706 
L 276.683832 294.273403 
L 276.750102 293.016919 
L 276.948911 294.516845 
L 277.08145 291.766546 
L 277.147719 293.213191 
L 277.280258 287.56737 
L 277.346528 281.587077 
L 277.479067 290.097816 
L 277.545337 287.36304 
L 277.611606 267.953343 
L 277.677876 275.845264 
L 277.810415 286.988426 
L 277.876684 282.388842 
L 277.942954 260.515418 
L 278.075493 289.428693 
L 278.141763 287.050372 
L 278.208032 260.447741 
L 278.406841 292.426784 
L 278.53938 281.989782 
L 278.605649 293.32205 
L 278.671919 292.522429 
L 278.738188 292.383434 
L 278.804458 290.020452 
L 278.870728 294.641318 
L 278.936997 294.130224 
L 279.069536 294.138439 
L 279.135806 294.877418 
L 279.202075 294.452999 
L 279.268345 294.446581 
L 279.334614 294.632938 
L 279.400884 294.511354 
L 279.467154 294.527251 
L 279.599693 294.669003 
L 279.732232 294.762935 
L 279.864771 294.846469 
L 280.129849 294.899572 
L 280.196119 294.990815 
L 280.262388 294.93157 
L 280.461197 294.897215 
L 280.792545 294.987327 
L 280.925084 294.901144 
L 281.256432 294.978578 
L 281.322701 294.932123 
L 281.52151 295.185038 
L 281.654049 295.042662 
L 281.852858 295.268009 
L 282.316744 295.242782 
L 282.449284 295.155064 
L 282.648092 294.641377 
L 282.714362 295.049165 
L 282.780631 294.921622 
L 282.846901 295.055449 
L 282.97944 294.733846 
L 283.840944 294.837288 
L 284.106022 294.972814 
L 284.172292 294.766286 
L 284.238561 294.871422 
L 284.371101 295.005159 
L 284.636179 295.207237 
L 284.702448 295.147802 
L 284.768718 295.280461 
L 284.834987 295.22626 
L 284.901257 295.110626 
L 284.967527 295.20007 
L 285.298874 294.941533 
L 285.563953 294.610948 
L 285.630222 294.704245 
L 285.762761 294.648778 
L 285.8953 294.321146 
L 286.027839 294.664441 
L 286.160379 294.473379 
L 286.292918 294.742678 
L 286.359187 294.401443 
L 286.425457 294.430911 
L 286.624265 294.702181 
L 286.690535 294.774266 
L 286.756805 294.620153 
L 286.823074 294.696355 
L 286.889344 294.605932 
L 286.955613 294.827739 
L 287.021883 294.79108 
L 287.48577 294.652317 
L 287.552039 294.883996 
L 287.817117 293.871491 
L 287.949657 294.292156 
L 288.015926 294.013809 
L 288.082196 294.311525 
L 288.148465 294.228449 
L 288.214735 293.977543 
L 288.281004 294.179884 
L 288.413543 293.710146 
L 288.546083 293.961578 
L 288.678622 293.748281 
L 288.87743 293.94238 
L 289.009969 293.966061 
L 289.208778 293.634973 
L 289.407587 294.429429 
L 289.473856 294.071788 
L 289.540126 294.155233 
L 289.606395 294.046335 
L 289.805204 294.749359 
L 289.871474 294.542055 
L 289.937743 294.580523 
L 290.004013 294.706798 
L 290.070282 294.609674 
L 290.136552 294.577559 
L 290.269091 294.695923 
L 290.40163 294.505108 
L 290.534169 294.03281 
L 290.600439 294.142866 
L 290.666708 294.038427 
L 290.799247 293.940996 
L 290.865517 293.964546 
L 290.998056 292.820183 
L 291.064326 293.084042 
L 291.130595 293.091363 
L 291.263134 293.616631 
L 291.329404 291.953663 
L 291.395673 293.423189 
L 291.461943 293.136557 
L 291.528212 293.333867 
L 291.660752 286.527248 
L 291.727021 291.541367 
L 291.793291 289.330872 
L 291.92583 272.992487 
L 292.058369 287.246034 
L 292.124638 283.333393 
L 292.190908 255.680467 
L 292.257178 268.210854 
L 292.323447 279.332154 
L 292.389717 278.068924 
L 292.522256 246.256772 
L 292.654795 284.201713 
L 292.721064 280.178652 
L 292.787334 236.978566 
L 292.986143 291.139494 
L 293.118682 274.014711 
L 293.184951 291.878996 
L 293.251221 290.882531 
L 293.31749 289.616032 
L 293.38376 284.78365 
L 293.45003 293.337424 
L 293.516299 293.304502 
L 293.648838 292.919004 
L 293.715108 294.62847 
L 293.781377 293.935302 
L 293.913916 294.48488 
L 294.046455 294.137824 
L 294.178995 294.594929 
L 294.311534 294.657894 
L 294.510342 295.097382 
L 294.642881 295.102564 
L 294.90796 295.402536 
L 295.106768 295.34459 
L 295.902003 295.261382 
L 298.155168 295.229736 
L 298.420246 295.363552 
L 298.619055 295.361986 
L 299.215481 295.273018 
L 299.414289 295.221267 
L 299.679368 295.207566 
L 299.944446 295.104386 
L 300.209524 295.176687 
L 300.408333 295.264869 
L 300.540872 295.046929 
L 300.80595 295.241905 
L 301.004759 295.295376 
L 301.137298 295.220873 
L 301.269837 295.340709 
L 301.601185 295.189061 
L 301.799993 295.175471 
L 301.866263 295.341187 
L 301.998802 295.098724 
L 302.197611 295.169363 
L 302.396419 295.089072 
L 302.528958 295.233378 
L 302.727767 295.108284 
L 303.125384 295.269937 
L 303.257924 295.231754 
L 303.456732 295.202787 
L 303.655541 295.344622 
L 304.053158 295.241545 
L 304.384506 295.274996 
L 304.715854 295.252864 
L 305.842436 295.303164 
L 305.908706 295.119817 
L 305.974975 295.369256 
L 306.041245 295.25916 
L 306.107514 295.237517 
L 306.240053 294.493723 
L 306.306323 295.008495 
L 306.438862 293.512967 
L 306.505132 292.434056 
L 306.571401 294.303798 
L 306.637671 294.163296 
L 306.70394 293.517056 
L 306.77021 289.241229 
L 306.902749 293.844287 
L 306.969019 293.350384 
L 307.101558 287.561709 
L 307.234097 294.113287 
L 307.300366 293.869049 
L 307.366636 288.271862 
L 307.499175 294.543328 
L 307.565445 294.934199 
L 307.697984 291.638429 
L 307.764253 294.751991 
L 307.830523 294.620219 
L 307.896792 294.588255 
L 307.963062 293.905323 
L 308.029331 295.158676 
L 308.095601 295.002032 
L 308.22814 295.019708 
L 308.29441 295.326536 
L 308.360679 295.140378 
L 308.559488 295.189414 
L 308.890836 295.33607 
L 309.023375 295.316107 
L 309.222183 295.395366 
L 311.541618 295.436936 
L 312.535661 295.321506 
L 314.590017 295.308518 
L 314.788826 295.206283 
L 315.120174 295.177469 
L 315.451521 295.078123 
L 315.65033 295.116428 
L 315.849139 295.037559 
L 315.915408 295.170281 
L 315.981678 295.114192 
L 316.180487 295.177497 
L 316.578104 295.376444 
L 316.843182 295.302603 
L 316.975721 295.262287 
L 317.240799 295.149424 
L 317.307069 295.185899 
L 317.505878 295.064306 
L 317.704686 294.837223 
L 317.770956 294.979585 
L 317.837225 294.867402 
L 318.036034 294.845736 
L 318.102304 294.60015 
L 318.168573 294.711877 
L 318.234843 294.886065 
L 318.301112 294.783932 
L 318.499921 294.849521 
L 318.63246 294.857551 
L 318.831269 295.141018 
L 318.897538 294.840388 
L 319.030077 295.171393 
L 319.096347 295.132522 
L 319.295156 295.166447 
L 319.361425 295.317335 
L 319.560234 294.790994 
L 319.626503 294.775555 
L 319.825312 294.521508 
L 319.891582 294.586965 
L 320.024121 293.883016 
L 320.09039 294.023007 
L 320.15666 293.184373 
L 320.222929 293.982761 
L 320.289199 293.507135 
L 320.355468 294.131519 
L 320.421738 293.424589 
L 320.488008 290.545992 
L 320.554277 293.291329 
L 320.620547 292.80582 
L 320.686816 293.322033 
L 320.819355 286.824054 
L 320.885625 291.062176 
L 321.084434 276.235526 
L 321.150703 288.978606 
L 321.216973 285.829089 
L 321.283242 283.292088 
L 321.349512 254.136484 
L 321.415781 272.598063 
L 321.482051 281.536757 
L 321.54832 277.891641 
L 321.68086 242.145399 
L 321.813399 287.617838 
L 321.879668 285.688565 
L 321.945938 249.540147 
L 322.078477 289.880583 
L 322.144746 290.84129 
L 322.277286 265.860209 
L 322.343555 290.177575 
L 322.409825 289.214113 
L 322.476094 288.592637 
L 322.542364 283.325518 
L 322.608633 293.291884 
L 322.674903 292.40385 
L 322.741172 292.541137 
L 322.807442 292.351231 
L 322.873712 294.884205 
L 322.939981 293.769324 
L 323.07252 294.092957 
L 323.205059 293.807368 
L 323.337598 294.351157 
L 323.403868 294.277753 
L 323.470138 294.379503 
L 323.668946 295.102428 
L 323.801485 294.83239 
L 323.867755 294.986926 
L 323.934024 295.26862 
L 324.000294 295.204285 
L 324.132833 295.326571 
L 324.59672 295.015968 
L 324.795529 295.046467 
L 324.994337 295.006453 
L 325.325685 295.164707 
L 325.590763 295.268168 
L 325.657033 295.337993 
L 325.723302 295.270634 
L 325.855841 295.375367 
L 325.988381 295.229829 
L 326.12092 295.323796 
L 326.385998 295.024909 
L 326.584807 294.979071 
L 327.114963 294.895045 
L 327.910198 295.217001 
L 328.175276 295.303346 
L 328.771702 295.203624 
L 328.904241 295.092232 
L 328.97051 295.1468 
L 329.10305 294.887876 
L 329.169319 294.964543 
L 329.368128 294.975129 
L 329.500667 294.920842 
L 329.699476 294.872881 
L 329.898284 294.956241 
L 330.295902 295.051136 
L 330.428441 295.075394 
L 330.627249 295.230406 
L 331.422484 295.366058 
L 332.283988 295.157217 
L 332.549066 295.222814 
L 332.946684 295.317769 
L 333.012953 295.217042 
L 333.079223 295.273781 
L 333.211762 295.40077 
L 333.808188 295.27273 
L 334.073266 295.230451 
L 334.404614 294.95823 
L 334.537153 295.21646 
L 334.735962 295.004044 
L 335.00104 295.195893 
L 335.067309 294.44899 
L 335.133579 295.017051 
L 335.199849 294.887394 
L 335.266118 294.792019 
L 335.398657 293.37312 
L 335.464927 294.601943 
L 335.531196 293.820214 
L 335.663735 291.091314 
L 335.730005 294.227472 
L 335.796275 293.090971 
L 335.862544 292.893084 
L 335.928814 286.622202 
L 335.995083 290.796531 
L 336.061353 292.56815 
L 336.127622 292.293889 
L 336.260161 287.850415 
L 336.392701 293.669518 
L 336.45897 292.705833 
L 336.52524 283.757568 
L 336.657779 293.842092 
L 336.724048 294.522688 
L 336.790318 290.414806 
L 336.856587 290.638595 
L 336.922857 294.687996 
L 336.989127 294.43599 
L 337.121666 292.90233 
L 337.187935 295.231633 
L 337.254205 294.851832 
L 337.386744 294.781764 
L 337.453013 295.108098 
L 337.519283 295.036106 
L 337.651822 295.182363 
L 337.784361 295.024916 
L 337.98317 295.119795 
L 338.844674 295.292801 
L 339.573639 295.267116 
L 340.170065 295.286131 
L 341.362917 295.302673 
L 343.682352 295.252948 
L 344.875203 295.395331 
L 345.33909 295.318358 
L 345.670438 295.253384 
L 346.797021 295.31707 
L 347.062099 295.349096 
L 347.658525 295.298107 
L 348.122412 295.257955 
L 348.785107 295.349654 
L 349.182724 295.33506 
L 349.315264 295.216696 
L 349.381533 295.365594 
L 349.580342 295.01556 
L 349.646611 294.587016 
L 349.712881 295.178445 
L 349.77915 295.007079 
L 349.84542 294.91505 
L 349.977959 293.45439 
L 350.044229 294.589076 
L 350.243037 291.584504 
L 350.309307 294.46934 
L 350.375576 293.370602 
L 350.441846 293.289791 
L 350.508116 287.875425 
L 350.574385 291.287254 
L 350.640655 293.37163 
L 350.706924 292.692357 
L 350.773194 288.121141 
L 350.839463 288.304868 
L 350.972002 294.013746 
L 351.038272 293.178729 
L 351.104542 286.522495 
L 351.237081 294.74319 
L 351.30335 295.120917 
L 351.435889 291.206001 
L 351.502159 294.620603 
L 351.568428 294.368823 
L 351.634698 294.103849 
L 351.700968 292.917921 
L 351.767237 294.996171 
L 351.833507 294.698689 
L 351.899776 294.75858 
L 351.966046 294.588036 
L 352.032315 295.444383 
L 352.098585 295.000919 
L 352.429933 295.305623 
L 353.158898 295.371591 
L 353.423976 295.309519 
L 353.622785 295.257027 
L 354.020402 295.260016 
L 354.881906 295.484929 
L 355.279523 295.35415 
L 355.80968 295.199396 
L 357.797767 295.336983 
L 358.062845 295.188932 
L 358.327923 295.190167 
L 359.056888 295.194918 
L 360.448549 295.358955 
L 360.978705 295.255104 
L 361.177514 295.231557 
L 361.243783 295.146492 
L 361.310053 295.200787 
L 361.575131 295.178654 
L 361.906479 295.306065 
L 362.304096 295.364585 
L 362.966792 295.368109 
L 363.099331 295.336529 
L 363.762026 295.212093 
L 363.894565 295.040518 
L 363.960835 295.239758 
L 364.027105 295.125159 
L 364.093374 295.270815 
L 364.225913 294.670044 
L 364.292183 295.158015 
L 364.358452 294.898333 
L 364.424722 294.817241 
L 364.490991 293.614256 
L 364.557261 293.884046 
L 364.623531 294.745306 
L 364.822339 291.441535 
L 364.888609 294.498618 
L 364.954878 293.705725 
L 365.021148 293.459555 
L 365.087417 288.835891 
L 365.219957 293.475208 
L 365.286226 293.47026 
L 365.352496 290.912293 
L 365.418765 291.131095 
L 365.551304 294.062568 
L 365.617574 293.300329 
L 365.683843 286.246105 
L 365.816383 294.49852 
L 365.882652 294.712679 
L 365.948922 291.620951 
L 366.015191 292.499937 
L 366.14773 295.005139 
L 366.280269 292.952331 
L 366.412809 295.033697 
L 366.479078 294.966064 
L 366.545348 294.497086 
L 366.677887 295.396902 
L 366.744156 295.370698 
L 366.876695 295.322519 
L 366.942965 295.273935 
L 367.075504 295.377895 
L 367.208043 295.32513 
L 367.340582 295.390137 
L 367.539391 295.36164 
L 368.069547 295.398608 
L 368.334626 295.348349 
L 370.322712 295.488 
L 373.238573 295.404003 
L 374.961581 295.427414 
L 378.009981 295.416833 
L 378.407598 295.433667 
L 378.540137 295.372547 
L 378.738946 295.375575 
L 378.805215 295.154416 
L 378.871485 295.305271 
L 379.004024 295.09007 
L 379.070293 294.910991 
L 379.136563 295.025905 
L 379.202832 295.306768 
L 379.401641 293.952696 
L 379.467911 295.356949 
L 379.53418 294.999864 
L 379.60045 295.059009 
L 379.666719 293.386392 
L 379.732989 294.264506 
L 379.865528 294.776567 
L 379.931798 293.594445 
L 379.998067 293.61871 
L 380.130606 295.17085 
L 380.196876 295.076599 
L 380.263145 292.992989 
L 380.395684 295.176556 
L 380.461954 295.168945 
L 380.528224 293.711917 
L 380.594493 293.86443 
L 380.660763 295.205859 
L 380.727032 295.194296 
L 380.859571 294.380932 
L 380.925841 295.268636 
L 380.99211 295.199244 
L 381.12465 295.091038 
L 381.190919 295.43178 
L 381.257189 295.312634 
L 381.455997 295.295408 
L 381.787345 295.316166 
L 382.317502 295.367967 
L 385.630979 295.283544 
L 386.426214 295.248309 
L 386.691292 295.328049 
L 388.414301 295.230556 
L 389.209535 295.283132 
L 389.408344 295.338989 
L 390.00477 295.422561 
L 390.203578 295.423775 
L 390.800004 295.278135 
L 391.595239 295.250332 
L 391.860317 295.29131 
L 392.854361 295.283421 
L 392.9869 295.308878 
L 393.053169 295.047569 
L 393.119439 295.130248 
L 393.251978 295.149397 
L 393.318248 295.34521 
L 393.384517 294.572155 
L 393.450787 294.956089 
L 393.715865 293.990961 
L 393.782134 294.873713 
L 393.848404 294.36289 
L 393.980943 293.224016 
L 394.047213 294.679682 
L 394.113482 294.074521 
L 394.179752 293.960823 
L 394.246021 289.861166 
L 394.44483 294.577739 
L 394.511099 291.340122 
L 394.577369 291.860219 
L 394.709908 294.53684 
L 394.776178 294.49327 
L 394.842447 290.94155 
L 394.974986 295.123028 
L 395.041256 294.631113 
L 395.107525 291.768666 
L 395.173795 291.865967 
L 395.240065 294.865206 
L 395.306334 294.778565 
L 395.438873 292.782109 
L 395.505143 294.857925 
L 395.571412 294.762991 
L 395.637682 294.801378 
L 395.703951 294.486442 
L 395.770221 295.43065 
L 395.836491 295.241083 
L 396.101569 295.042183 
L 396.234108 295.191218 
L 396.366647 295.147421 
L 396.565456 295.249531 
L 397.42696 295.394898 
L 398.487273 295.310787 
L 398.487273 295.310787 
" clip-path="url(#p188262c93e)" style="fill: none; stroke: #1f77b4; stroke-width: 1.5; stroke-linecap: square"/>
   </g>
   <g id="patch_3">
    <path d="M 57.6 307.584 
L 57.6 41.472 
" style="fill: none; stroke: #000000; stroke-width: 0.8; stroke-linejoin: miter; stroke-linecap: square"/>
   </g>
   <g id="patch_4">
    <path d="M 414.72 307.584 
L 414.72 41.472 
" style="fill: none; stroke: #000000; stroke-width: 0.8; stroke-linejoin: miter; stroke-linecap: square"/>
   </g>
   <g id="patch_5">
    <path d="M 57.6 307.584 
L 414.72 307.584 
" style="fill: none; stroke: #000000; stroke-width: 0.8; stroke-linejoin: miter; stroke-linecap: square"/>
   </g>
   <g id="patch_6">
    <path d="M 57.6 41.472 
L 414.72 41.472 
" style="fill: none; stroke: #000000; stroke-width: 0.8; stroke-linejoin: miter; stroke-linecap: square"/>
   </g>
   <g id="text_18">
    <text style="font: 12px 'IPAexGothic'; text-anchor: middle" x="236.16" y="35.472" transform="rotate(-0 236.16 35.472)">"066_A3.wav"の振幅スペクトル</text>
   </g>
  </g>
 </g>
 <defs>
  <clipPath id="p188262c93e">
   <rect x="57.6" y="41.472" width="357.12" height="266.112"/>
  </clipPath>
 </defs>
</svg>
