<?xml version="1.0" encoding="utf-8" standalone="no"?>
<!DOCTYPE svg PUBLIC "-//W3C//DTD SVG 1.1//EN"
  "http://www.w3.org/Graphics/SVG/1.1/DTD/svg11.dtd">
<svg xmlns:xlink="http://www.w3.org/1999/xlink" width="460.8pt" height="345.6pt" viewBox="0 0 460.8 345.6" xmlns="http://www.w3.org/2000/svg" version="1.1">
 <metadata>
  <rdf:RDF xmlns:dc="http://purl.org/dc/elements/1.1/" xmlns:cc="http://creativecommons.org/ns#" xmlns:rdf="http://www.w3.org/1999/02/22-rdf-syntax-ns#">
   <cc:Work>
    <dc:type rdf:resource="http://purl.org/dc/dcmitype/StillImage"/>
    <dc:date>2022-11-28T12:31:28.332215</dc:date>
    <dc:format>image/svg+xml</dc:format>
    <dc:creator>
     <cc:Agent>
      <dc:title>Matplotlib v3.6.2, https://matplotlib.org/</dc:title>
     </cc:Agent>
    </dc:creator>
   </cc:Work>
  </rdf:RDF>
 </metadata>
 <defs>
  <style type="text/css">*{stroke-linejoin: round; stroke-linecap: butt}</style>
 </defs>
 <g id="figure_1">
  <g id="patch_1">
   <path d="M 0 345.6 
L 460.8 345.6 
L 460.8 0 
L 0 0 
z
" style="fill: #ffffff"/>
  </g>
  <g id="axes_1">
   <g id="patch_2">
    <path d="M 57.6 307.584 
L 414.72 307.584 
L 414.72 41.472 
L 57.6 41.472 
z
" style="fill: #ffffff"/>
   </g>
   <g id="matplotlib.axis_1">
    <g id="xtick_1">
     <g id="line2d_1">
      <defs>
       <path id="m60690b4e8b" d="M 0 0 
L 0 3.5 
" style="stroke: #000000; stroke-width: 0.8"/>
      </defs>
      <g>
       <use xlink:href="#m60690b4e8b" x="73.832727" y="307.584" style="stroke: #000000; stroke-width: 0.8"/>
      </g>
     </g>
     <g id="text_1">
      <text style="font: 10px 'IPAexGothic'; text-anchor: middle" x="73.832727" y="322.074625" transform="rotate(-0 73.832727 322.074625)">0</text>
     </g>
    </g>
    <g id="xtick_2">
     <g id="line2d_2">
      <g>
       <use xlink:href="#m60690b4e8b" x="140.102281" y="307.584" style="stroke: #000000; stroke-width: 0.8"/>
      </g>
     </g>
     <g id="text_2">
      <text style="font: 10px 'IPAexGothic'; text-anchor: middle" x="140.102281" y="322.074625" transform="rotate(-0 140.102281 322.074625)">1000</text>
     </g>
    </g>
    <g id="xtick_3">
     <g id="line2d_3">
      <g>
       <use xlink:href="#m60690b4e8b" x="206.371835" y="307.584" style="stroke: #000000; stroke-width: 0.8"/>
      </g>
     </g>
     <g id="text_3">
      <text style="font: 10px 'IPAexGothic'; text-anchor: middle" x="206.371835" y="322.074625" transform="rotate(-0 206.371835 322.074625)">2000</text>
     </g>
    </g>
    <g id="xtick_4">
     <g id="line2d_4">
      <g>
       <use xlink:href="#m60690b4e8b" x="272.64139" y="307.584" style="stroke: #000000; stroke-width: 0.8"/>
      </g>
     </g>
     <g id="text_4">
      <text style="font: 10px 'IPAexGothic'; text-anchor: middle" x="272.64139" y="322.074625" transform="rotate(-0 272.64139 322.074625)">3000</text>
     </g>
    </g>
    <g id="xtick_5">
     <g id="line2d_5">
      <g>
       <use xlink:href="#m60690b4e8b" x="338.910944" y="307.584" style="stroke: #000000; stroke-width: 0.8"/>
      </g>
     </g>
     <g id="text_5">
      <text style="font: 10px 'IPAexGothic'; text-anchor: middle" x="338.910944" y="322.074625" transform="rotate(-0 338.910944 322.074625)">4000</text>
     </g>
    </g>
    <g id="xtick_6">
     <g id="line2d_6">
      <g>
       <use xlink:href="#m60690b4e8b" x="405.180498" y="307.584" style="stroke: #000000; stroke-width: 0.8"/>
      </g>
     </g>
     <g id="text_6">
      <text style="font: 10px 'IPAexGothic'; text-anchor: middle" x="405.180498" y="322.074625" transform="rotate(-0 405.180498 322.074625)">5000</text>
     </g>
    </g>
    <g id="text_7">
     <text style="font: 10px 'IPAexGothic'; text-anchor: middle" x="236.16" y="335.924625" transform="rotate(-0 236.16 335.924625)">周波数[Hz]</text>
    </g>
   </g>
   <g id="matplotlib.axis_2">
    <g id="ytick_1">
     <g id="line2d_7">
      <defs>
       <path id="mea2e669e20" d="M 0 0 
L -3.5 0 
" style="stroke: #000000; stroke-width: 0.8"/>
      </defs>
      <g>
       <use xlink:href="#mea2e669e20" x="57.6" y="295.489972" style="stroke: #000000; stroke-width: 0.8"/>
      </g>
     </g>
     <g id="text_8">
      <text style="font: 10px 'IPAexGothic'; text-anchor: end" x="50.6" y="299.235284" transform="rotate(-0 50.6 299.235284)">0</text>
     </g>
    </g>
    <g id="ytick_2">
     <g id="line2d_8">
      <g>
       <use xlink:href="#mea2e669e20" x="57.6" y="263.838864" style="stroke: #000000; stroke-width: 0.8"/>
      </g>
     </g>
     <g id="text_9">
      <text style="font: 10px 'IPAexGothic'; text-anchor: end" x="50.6" y="267.584177" transform="rotate(-0 50.6 267.584177)">1</text>
     </g>
    </g>
    <g id="ytick_3">
     <g id="line2d_9">
      <g>
       <use xlink:href="#mea2e669e20" x="57.6" y="232.187757" style="stroke: #000000; stroke-width: 0.8"/>
      </g>
     </g>
     <g id="text_10">
      <text style="font: 10px 'IPAexGothic'; text-anchor: end" x="50.6" y="235.93307" transform="rotate(-0 50.6 235.93307)">2</text>
     </g>
    </g>
    <g id="ytick_4">
     <g id="line2d_10">
      <g>
       <use xlink:href="#mea2e669e20" x="57.6" y="200.53665" style="stroke: #000000; stroke-width: 0.8"/>
      </g>
     </g>
     <g id="text_11">
      <text style="font: 10px 'IPAexGothic'; text-anchor: end" x="50.6" y="204.281962" transform="rotate(-0 50.6 204.281962)">3</text>
     </g>
    </g>
    <g id="ytick_5">
     <g id="line2d_11">
      <g>
       <use xlink:href="#mea2e669e20" x="57.6" y="168.885543" style="stroke: #000000; stroke-width: 0.8"/>
      </g>
     </g>
     <g id="text_12">
      <text style="font: 10px 'IPAexGothic'; text-anchor: end" x="50.6" y="172.630855" transform="rotate(-0 50.6 172.630855)">4</text>
     </g>
    </g>
    <g id="ytick_6">
     <g id="line2d_12">
      <g>
       <use xlink:href="#mea2e669e20" x="57.6" y="137.234435" style="stroke: #000000; stroke-width: 0.8"/>
      </g>
     </g>
     <g id="text_13">
      <text style="font: 10px 'IPAexGothic'; text-anchor: end" x="50.6" y="140.979748" transform="rotate(-0 50.6 140.979748)">5</text>
     </g>
    </g>
    <g id="ytick_7">
     <g id="line2d_13">
      <g>
       <use xlink:href="#mea2e669e20" x="57.6" y="105.583328" style="stroke: #000000; stroke-width: 0.8"/>
      </g>
     </g>
     <g id="text_14">
      <text style="font: 10px 'IPAexGothic'; text-anchor: end" x="50.6" y="109.32864" transform="rotate(-0 50.6 109.32864)">6</text>
     </g>
    </g>
    <g id="ytick_8">
     <g id="line2d_14">
      <g>
       <use xlink:href="#mea2e669e20" x="57.6" y="73.932221" style="stroke: #000000; stroke-width: 0.8"/>
      </g>
     </g>
     <g id="text_15">
      <text style="font: 10px 'IPAexGothic'; text-anchor: end" x="50.6" y="77.677533" transform="rotate(-0 50.6 77.677533)">7</text>
     </g>
    </g>
    <g id="ytick_9">
     <g id="line2d_15">
      <g>
       <use xlink:href="#mea2e669e20" x="57.6" y="42.281113" style="stroke: #000000; stroke-width: 0.8"/>
      </g>
     </g>
     <g id="text_16">
      <text style="font: 10px 'IPAexGothic'; text-anchor: end" x="50.6" y="46.026426" transform="rotate(-0 50.6 46.026426)">8</text>
     </g>
    </g>
    <g id="text_17">
     <text style="font: 10px 'IPAexGothic'; text-anchor: middle" x="38.401563" y="174.528" transform="rotate(-90 38.401563 174.528)">振幅</text>
    </g>
    <g id="text_18">
     <text style="font: 10px 'IPAexGothic'; text-anchor: start" x="57.6" y="38.472" transform="rotate(-0 57.6 38.472)">1e7</text>
    </g>
   </g>
   <g id="line2d_16">
    <path d="M 73.832727 295.447506 
L 74.031536 295.004317 
L 74.164075 295.198179 
L 74.429153 294.954998 
L 74.561692 295.35623 
L 74.627962 295.065717 
L 74.694231 295.206211 
L 74.760501 295.269705 
L 75.025579 295.0431 
L 75.290657 295.165774 
L 75.356927 294.928323 
L 75.423197 295.098111 
L 75.887083 294.976982 
L 76.019623 295.014699 
L 76.748588 294.965411 
L 77.278744 294.887884 
L 78.339057 294.623225 
L 79.200561 294.241654 
L 79.3331 294.066472 
L 79.664448 293.771641 
L 79.796987 293.725537 
L 79.995796 293.195143 
L 80.062065 293.245719 
L 80.128335 292.741651 
L 80.194604 292.848499 
L 80.327144 292.440121 
L 80.592222 290.080592 
L 80.658491 289.582499 
L 80.8573 283.483304 
L 80.92357 273.073664 
L 80.989839 278.650437 
L 81.056109 282.539822 
L 81.122378 53.568 
L 81.321187 283.137404 
L 81.387456 285.132801 
L 81.453726 282.490503 
L 81.586265 287.699222 
L 81.851343 291.661003 
L 81.917613 291.657346 
L 82.116422 292.587016 
L 82.3815 293.270355 
L 82.447769 293.249491 
L 82.845387 293.880926 
L 82.911656 293.802955 
L 82.977926 293.893786 
L 83.640621 294.345429 
L 83.77316 294.340116 
L 84.038239 294.478874 
L 84.303317 294.525251 
L 84.700934 294.656597 
L 84.767204 294.577078 
L 84.833473 294.665409 
L 84.966012 294.620712 
L 85.032282 294.81595 
L 85.098551 294.628966 
L 85.164821 294.736729 
L 85.231091 294.675477 
L 85.29736 294.875048 
L 85.429899 294.654267 
L 85.496169 294.768133 
L 85.562438 294.718259 
L 85.694977 294.764468 
L 85.827517 294.735724 
L 85.960056 294.98119 
L 86.026325 294.657195 
L 86.092595 294.925896 
L 86.158864 294.381811 
L 86.225134 295.256796 
L 86.291403 294.755848 
L 86.357673 294.366676 
L 86.423943 295.028745 
L 86.490212 294.79817 
L 86.689021 294.909717 
L 86.75529 294.880247 
L 86.82156 294.552005 
L 86.887829 295.013858 
L 86.954099 294.932339 
L 87.086638 295.034241 
L 87.219177 295.034766 
L 87.351716 294.598058 
L 87.417986 294.982142 
L 87.484255 294.820993 
L 87.550525 294.769985 
L 87.683064 295.035635 
L 87.749334 294.472046 
L 87.815603 294.752472 
L 87.948142 295.127839 
L 88.080681 295.052306 
L 88.146951 295.086483 
L 88.213221 294.889757 
L 88.27949 294.318824 
L 88.34576 292.457755 
L 88.412029 285.813197 
L 88.544568 294.578558 
L 88.610838 294.572248 
L 88.677107 294.179444 
L 88.743377 294.368646 
L 88.809646 294.583505 
L 88.875916 293.959548 
L 88.942186 294.457962 
L 89.008455 294.345965 
L 89.140994 294.545999 
L 89.207264 295.012608 
L 89.273533 294.991235 
L 89.339803 295.119907 
L 89.406072 294.95514 
L 89.538612 295.339598 
L 89.73742 294.246994 
L 89.80369 295.192298 
L 89.869959 294.976085 
L 89.936229 295.231775 
L 90.135038 294.952628 
L 90.201307 295.330955 
L 90.267577 295.018362 
L 90.333846 295.113773 
L 90.598924 295.085325 
L 90.731464 295.049205 
L 90.797733 295.354011 
L 90.864003 294.979902 
L 90.930272 295.124176 
L 90.996542 295.104904 
L 91.062811 295.306395 
L 91.129081 295.011692 
L 91.19535 295.219562 
L 91.32789 295.051491 
L 91.394159 295.09122 
L 91.526698 294.852667 
L 91.659237 295.16392 
L 91.725507 294.917521 
L 91.791776 295.024024 
L 92.056855 295.119649 
L 92.123124 295.083123 
L 92.189394 294.800649 
L 92.255663 295.326645 
L 92.321933 294.996925 
L 92.388202 295.306976 
L 92.454472 294.98582 
L 92.520742 295.250353 
L 92.587011 295.083614 
L 92.852089 295.203536 
L 92.918359 295.038224 
L 92.984628 295.233391 
L 93.050898 295.093941 
L 93.315976 295.167363 
L 93.779863 295.085458 
L 93.978672 295.138491 
L 94.707637 295.036403 
L 94.906445 295.06645 
L 94.972715 294.943894 
L 95.038985 294.991571 
L 95.105254 294.964698 
L 95.304063 294.335474 
L 95.370332 294.740095 
L 95.635411 292.889266 
L 95.70168 279.384121 
L 95.76795 287.970872 
L 95.900489 294.105512 
L 96.033028 293.038042 
L 96.165567 295.249793 
L 96.231837 295.183052 
L 96.364376 294.877342 
L 96.496915 295.190613 
L 96.695723 295.453937 
L 96.761993 295.312124 
L 96.828263 295.374353 
L 96.960802 295.39147 
L 97.027071 295.211152 
L 97.093341 295.316288 
L 97.22588 295.466698 
L 97.358419 295.39204 
L 97.557228 295.408059 
L 97.623497 295.293546 
L 97.689767 295.371225 
L 98.485001 295.354019 
L 98.68381 295.342913 
L 99.545314 295.290981 
L 99.744123 295.376288 
L 99.876662 295.28183 
L 99.942932 295.360393 
L 100.009201 295.254192 
L 100.075471 295.442934 
L 100.20801 295.134705 
L 100.274279 295.204484 
L 100.340549 295.375308 
L 100.406818 295.275893 
L 100.671897 295.384404 
L 100.804436 295.310856 
L 100.870705 295.403813 
L 100.936975 295.266693 
L 101.003244 295.33528 
L 101.467131 295.344307 
L 101.533401 295.375198 
L 101.66594 295.195395 
L 101.73221 295.252842 
L 101.931018 295.142215 
L 102.063557 295.40872 
L 102.196096 295.437396 
L 102.394905 294.874435 
L 102.527444 294.983437 
L 102.593714 294.925022 
L 102.659983 295.447415 
L 102.726253 295.316423 
L 102.858792 294.892239 
L 102.925062 293.877633 
L 102.991331 290.611553 
L 103.19014 294.869202 
L 103.256409 294.890677 
L 103.521488 295.346068 
L 103.587757 295.309181 
L 103.720296 295.409989 
L 103.786566 295.270643 
L 103.852835 295.344961 
L 103.985374 295.295089 
L 104.184183 295.341582 
L 104.449261 295.325351 
L 104.714339 295.372982 
L 104.913148 295.362657 
L 105.907191 295.379191 
L 105.973461 295.298083 
L 106.039731 295.354739 
L 106.238539 295.408246 
L 106.437348 295.375142 
L 109.817095 295.25843 
L 109.883365 295.024632 
L 109.949634 295.228072 
L 110.082173 294.845535 
L 110.148443 295.220175 
L 110.214712 294.523674 
L 110.280982 292.217761 
L 110.347252 293.27829 
L 110.413521 295.137087 
L 110.479791 295.076005 
L 110.54606 295.04563 
L 110.744869 295.476489 
L 110.811138 295.153267 
L 110.877408 295.377716 
L 111.142486 295.275211 
L 111.208756 295.438519 
L 111.275025 295.393149 
L 112.13653 295.373568 
L 112.600416 295.365858 
L 112.998034 295.373882 
L 113.395651 295.352476 
L 114.058347 295.400146 
L 114.257155 295.368045 
L 114.654773 295.362486 
L 115.847625 295.363006 
L 116.311511 295.359549 
L 116.51032 295.391431 
L 116.642859 295.395255 
L 117.438094 295.193909 
L 117.570633 294.023005 
L 117.636903 294.203432 
L 117.703172 295.288854 
L 117.769442 295.282527 
L 117.901981 295.08033 
L 118.100789 295.382356 
L 124.197588 295.398236 
L 124.263858 295.233409 
L 124.330127 295.416468 
L 124.396397 295.278849 
L 124.462667 295.261163 
L 124.528936 295.446827 
L 124.595206 295.397064 
L 124.794014 294.993095 
L 124.926553 294.525924 
L 125.059093 295.409448 
L 125.125362 295.364382 
L 125.324171 295.291693 
L 125.45671 295.410353 
L 125.655519 295.367182 
L 125.854327 295.375752 
L 127.113449 295.420014 
L 132.017396 295.288221 
L 132.216204 293.935956 
L 132.282474 295.295899 
L 132.348744 295.250142 
L 132.94517 295.36111 
L 133.077709 295.3919 
L 133.276517 295.393663 
L 134.204291 295.462087 
L 134.270561 295.355516 
L 134.33683 295.400878 
L 136.457456 295.428647 
L 136.722534 295.397003 
L 137.186421 295.440003 
L 137.915386 295.392385 
L 138.180464 295.441875 
L 138.710621 295.405499 
L 139.174508 295.408006 
L 139.373316 295.366063 
L 139.439586 295.415865 
L 139.505855 295.272329 
L 139.572125 295.469182 
L 139.638394 295.38043 
L 140.036012 295.434474 
L 140.433629 295.439428 
L 140.831246 295.414829 
L 141.096325 295.423801 
L 141.427672 295.414919 
L 141.957829 295.437164 
L 142.156638 295.402588 
L 142.421716 295.420829 
L 144.078455 295.411121 
L 144.210994 295.423648 
L 144.409802 295.397843 
L 144.674881 295.403839 
L 145.602654 295.415917 
L 146.596698 295.248607 
L 146.795506 294.652256 
L 146.861776 295.289597 
L 146.928045 295.252756 
L 147.126854 295.389501 
L 147.590741 295.483404 
L 147.78955 295.386775 
L 147.922089 295.438494 
L 148.187167 295.452852 
L 150.307793 295.453262 
L 150.506601 295.432807 
L 151.301836 295.434616 
L 152.826036 295.447596 
L 153.422462 295.453057 
L 153.68754 295.436737 
L 154.350235 295.421687 
L 154.615314 295.444684 
L 154.814122 295.417073 
L 156.404592 295.446474 
L 156.934748 295.42857 
L 157.266096 295.428773 
L 157.597444 295.436756 
L 157.729983 295.414695 
L 158.1276 295.435668 
L 159.519261 295.44164 
L 160.049417 295.436009 
L 161.308539 295.418295 
L 161.374808 295.34553 
L 161.441078 295.431802 
L 161.573617 295.424008 
L 161.772426 295.44418 
L 162.435121 295.422259 
L 162.766469 295.438037 
L 163.627973 295.439778 
L 164.224399 295.441266 
L 165.152173 295.44548 
L 167.00772 295.449934 
L 167.471607 295.449234 
L 175.821571 295.442233 
L 175.95411 295.409271 
L 177.345771 295.446566 
L 177.544579 295.461012 
L 178.074736 295.436453 
L 179.068779 295.456576 
L 180.062822 295.440421 
L 180.725518 295.466833 
L 180.990596 295.448795 
L 181.255674 295.442479 
L 189.141751 295.453165 
L 189.936986 295.458687 
L 190.400873 295.447134 
L 190.86476 295.452856 
L 194.111968 295.449235 
L 194.642124 295.452273 
L 195.371089 295.459308 
L 207.16707 295.45858 
L 207.630957 295.468714 
L 208.426192 295.455803 
L 208.890078 295.455611 
L 398.487273 295.477212 
L 398.487273 295.477212 
" clip-path="url(#p653bde9fad)" style="fill: none; stroke: #1f77b4; stroke-width: 1.5; stroke-linecap: square"/>
   </g>
   <g id="patch_3">
    <path d="M 57.6 307.584 
L 57.6 41.472 
" style="fill: none; stroke: #000000; stroke-width: 0.8; stroke-linejoin: miter; stroke-linecap: square"/>
   </g>
   <g id="patch_4">
    <path d="M 414.72 307.584 
L 414.72 41.472 
" style="fill: none; stroke: #000000; stroke-width: 0.8; stroke-linejoin: miter; stroke-linecap: square"/>
   </g>
   <g id="patch_5">
    <path d="M 57.6 307.584 
L 414.72 307.584 
" style="fill: none; stroke: #000000; stroke-width: 0.8; stroke-linejoin: miter; stroke-linecap: square"/>
   </g>
   <g id="patch_6">
    <path d="M 57.6 41.472 
L 414.72 41.472 
" style="fill: none; stroke: #000000; stroke-width: 0.8; stroke-linejoin: miter; stroke-linecap: square"/>
   </g>
   <g id="text_19">
    <text style="font: 12px 'IPAexGothic'; text-anchor: middle" x="236.16" y="35.472" transform="rotate(-0 236.16 35.472)">"075_A2.wav"の振幅スペクトル</text>
   </g>
  </g>
 </g>
 <defs>
  <clipPath id="p653bde9fad">
   <rect x="57.6" y="41.472" width="357.12" height="266.112"/>
  </clipPath>
 </defs>
</svg>
