<?xml version="1.0" encoding="utf-8" standalone="no"?>
<!DOCTYPE svg PUBLIC "-//W3C//DTD SVG 1.1//EN"
  "http://www.w3.org/Graphics/SVG/1.1/DTD/svg11.dtd">
<svg xmlns:xlink="http://www.w3.org/1999/xlink" width="460.8pt" height="345.6pt" viewBox="0 0 460.8 345.6" xmlns="http://www.w3.org/2000/svg" version="1.1">
 <metadata>
  <rdf:RDF xmlns:dc="http://purl.org/dc/elements/1.1/" xmlns:cc="http://creativecommons.org/ns#" xmlns:rdf="http://www.w3.org/1999/02/22-rdf-syntax-ns#">
   <cc:Work>
    <dc:type rdf:resource="http://purl.org/dc/dcmitype/StillImage"/>
    <dc:date>2022-11-28T12:39:32.453872</dc:date>
    <dc:format>image/svg+xml</dc:format>
    <dc:creator>
     <cc:Agent>
      <dc:title>Matplotlib v3.6.2, https://matplotlib.org/</dc:title>
     </cc:Agent>
    </dc:creator>
   </cc:Work>
  </rdf:RDF>
 </metadata>
 <defs>
  <style type="text/css">*{stroke-linejoin: round; stroke-linecap: butt}</style>
 </defs>
 <g id="figure_1">
  <g id="patch_1">
   <path d="M 0 345.6 
L 460.8 345.6 
L 460.8 0 
L 0 0 
z
" style="fill: #ffffff"/>
  </g>
  <g id="axes_1">
   <g id="patch_2">
    <path d="M 57.6 307.584 
L 414.72 307.584 
L 414.72 41.472 
L 57.6 41.472 
z
" style="fill: #ffffff"/>
   </g>
   <g id="matplotlib.axis_1">
    <g id="xtick_1">
     <g id="line2d_1">
      <defs>
       <path id="ma971108fb5" d="M 0 0 
L 0 3.5 
" style="stroke: #000000; stroke-width: 0.8"/>
      </defs>
      <g>
       <use xlink:href="#ma971108fb5" x="73.832727" y="307.584" style="stroke: #000000; stroke-width: 0.8"/>
      </g>
     </g>
     <g id="text_1">
      <text style="font: 10px 'IPAexGothic'; text-anchor: middle" x="73.832727" y="322.074625" transform="rotate(-0 73.832727 322.074625)">0</text>
     </g>
    </g>
    <g id="xtick_2">
     <g id="line2d_2">
      <g>
       <use xlink:href="#ma971108fb5" x="140.102281" y="307.584" style="stroke: #000000; stroke-width: 0.8"/>
      </g>
     </g>
     <g id="text_2">
      <text style="font: 10px 'IPAexGothic'; text-anchor: middle" x="140.102281" y="322.074625" transform="rotate(-0 140.102281 322.074625)">1000</text>
     </g>
    </g>
    <g id="xtick_3">
     <g id="line2d_3">
      <g>
       <use xlink:href="#ma971108fb5" x="206.371835" y="307.584" style="stroke: #000000; stroke-width: 0.8"/>
      </g>
     </g>
     <g id="text_3">
      <text style="font: 10px 'IPAexGothic'; text-anchor: middle" x="206.371835" y="322.074625" transform="rotate(-0 206.371835 322.074625)">2000</text>
     </g>
    </g>
    <g id="xtick_4">
     <g id="line2d_4">
      <g>
       <use xlink:href="#ma971108fb5" x="272.64139" y="307.584" style="stroke: #000000; stroke-width: 0.8"/>
      </g>
     </g>
     <g id="text_4">
      <text style="font: 10px 'IPAexGothic'; text-anchor: middle" x="272.64139" y="322.074625" transform="rotate(-0 272.64139 322.074625)">3000</text>
     </g>
    </g>
    <g id="xtick_5">
     <g id="line2d_5">
      <g>
       <use xlink:href="#ma971108fb5" x="338.910944" y="307.584" style="stroke: #000000; stroke-width: 0.8"/>
      </g>
     </g>
     <g id="text_5">
      <text style="font: 10px 'IPAexGothic'; text-anchor: middle" x="338.910944" y="322.074625" transform="rotate(-0 338.910944 322.074625)">4000</text>
     </g>
    </g>
    <g id="xtick_6">
     <g id="line2d_6">
      <g>
       <use xlink:href="#ma971108fb5" x="405.180498" y="307.584" style="stroke: #000000; stroke-width: 0.8"/>
      </g>
     </g>
     <g id="text_6">
      <text style="font: 10px 'IPAexGothic'; text-anchor: middle" x="405.180498" y="322.074625" transform="rotate(-0 405.180498 322.074625)">5000</text>
     </g>
    </g>
    <g id="text_7">
     <text style="font: 10px 'IPAexGothic'; text-anchor: middle" x="236.16" y="335.924625" transform="rotate(-0 236.16 335.924625)">周波数[Hz]</text>
    </g>
   </g>
   <g id="matplotlib.axis_2">
    <g id="ytick_1">
     <g id="line2d_7">
      <defs>
       <path id="mc1b4b4c491" d="M 0 0 
L -3.5 0 
" style="stroke: #000000; stroke-width: 0.8"/>
      </defs>
      <g>
       <use xlink:href="#mc1b4b4c491" x="57.6" y="295.498336" style="stroke: #000000; stroke-width: 0.8"/>
      </g>
     </g>
     <g id="text_8">
      <text style="font: 10px 'IPAexGothic'; text-anchor: end" x="50.6" y="299.243648" transform="rotate(-0 50.6 299.243648)">0.00</text>
     </g>
    </g>
    <g id="ytick_2">
     <g id="line2d_8">
      <g>
       <use xlink:href="#mc1b4b4c491" x="57.6" y="264.285572" style="stroke: #000000; stroke-width: 0.8"/>
      </g>
     </g>
     <g id="text_9">
      <text style="font: 10px 'IPAexGothic'; text-anchor: end" x="50.6" y="268.030884" transform="rotate(-0 50.6 268.030884)">0.25</text>
     </g>
    </g>
    <g id="ytick_3">
     <g id="line2d_9">
      <g>
       <use xlink:href="#mc1b4b4c491" x="57.6" y="233.072808" style="stroke: #000000; stroke-width: 0.8"/>
      </g>
     </g>
     <g id="text_10">
      <text style="font: 10px 'IPAexGothic'; text-anchor: end" x="50.6" y="236.81812" transform="rotate(-0 50.6 236.81812)">0.50</text>
     </g>
    </g>
    <g id="ytick_4">
     <g id="line2d_10">
      <g>
       <use xlink:href="#mc1b4b4c491" x="57.6" y="201.860044" style="stroke: #000000; stroke-width: 0.8"/>
      </g>
     </g>
     <g id="text_11">
      <text style="font: 10px 'IPAexGothic'; text-anchor: end" x="50.6" y="205.605357" transform="rotate(-0 50.6 205.605357)">0.75</text>
     </g>
    </g>
    <g id="ytick_5">
     <g id="line2d_11">
      <g>
       <use xlink:href="#mc1b4b4c491" x="57.6" y="170.64728" style="stroke: #000000; stroke-width: 0.8"/>
      </g>
     </g>
     <g id="text_12">
      <text style="font: 10px 'IPAexGothic'; text-anchor: end" x="50.6" y="174.392593" transform="rotate(-0 50.6 174.392593)">1.00</text>
     </g>
    </g>
    <g id="ytick_6">
     <g id="line2d_12">
      <g>
       <use xlink:href="#mc1b4b4c491" x="57.6" y="139.434516" style="stroke: #000000; stroke-width: 0.8"/>
      </g>
     </g>
     <g id="text_13">
      <text style="font: 10px 'IPAexGothic'; text-anchor: end" x="50.6" y="143.179829" transform="rotate(-0 50.6 143.179829)">1.25</text>
     </g>
    </g>
    <g id="ytick_7">
     <g id="line2d_13">
      <g>
       <use xlink:href="#mc1b4b4c491" x="57.6" y="108.221752" style="stroke: #000000; stroke-width: 0.8"/>
      </g>
     </g>
     <g id="text_14">
      <text style="font: 10px 'IPAexGothic'; text-anchor: end" x="50.6" y="111.967065" transform="rotate(-0 50.6 111.967065)">1.50</text>
     </g>
    </g>
    <g id="ytick_8">
     <g id="line2d_14">
      <g>
       <use xlink:href="#mc1b4b4c491" x="57.6" y="77.008988" style="stroke: #000000; stroke-width: 0.8"/>
      </g>
     </g>
     <g id="text_15">
      <text style="font: 10px 'IPAexGothic'; text-anchor: end" x="50.6" y="80.754301" transform="rotate(-0 50.6 80.754301)">1.75</text>
     </g>
    </g>
    <g id="ytick_9">
     <g id="line2d_15">
      <g>
       <use xlink:href="#mc1b4b4c491" x="57.6" y="45.796225" style="stroke: #000000; stroke-width: 0.8"/>
      </g>
     </g>
     <g id="text_16">
      <text style="font: 10px 'IPAexGothic'; text-anchor: end" x="50.6" y="49.541537" transform="rotate(-0 50.6 49.541537)">2.00</text>
     </g>
    </g>
    <g id="text_17">
     <text style="font: 10px 'IPAexGothic'; text-anchor: middle" x="23.1625" y="174.528" transform="rotate(-90 23.1625 174.528)">振幅</text>
    </g>
    <g id="text_18">
     <text style="font: 10px 'IPAexGothic'; text-anchor: start" x="57.6" y="38.472" transform="rotate(-0 57.6 38.472)">1e7</text>
    </g>
   </g>
   <g id="line2d_16">
    <path d="M 73.832727 288.53749 
L 73.965266 292.009683 
L 74.031536 291.923173 
L 74.097805 294.276008 
L 74.164075 293.770948 
L 74.230345 293.220866 
L 74.296614 293.535355 
L 74.362884 294.517634 
L 74.429153 294.373631 
L 74.495423 294.215218 
L 74.561692 293.618171 
L 74.627962 293.993848 
L 74.694231 294.140631 
L 74.826771 294.776674 
L 74.95931 293.892059 
L 75.025579 294.228911 
L 75.091849 294.271193 
L 75.290657 294.961619 
L 75.356927 294.320203 
L 75.423197 294.705787 
L 75.489466 294.794345 
L 75.555736 295.092342 
L 75.887083 292.169965 
L 76.085892 294.47657 
L 76.152162 294.546482 
L 76.41724 292.230774 
L 76.483509 293.600122 
L 76.549779 292.987747 
L 76.616049 293.344325 
L 76.682318 294.613146 
L 77.013666 289.912586 
L 77.146205 293.404781 
L 77.345014 287.318774 
L 77.411283 273.650218 
L 77.477553 209.974279 
L 77.610092 288.621253 
L 77.676361 275.163785 
L 77.808901 292.570618 
L 77.87517 294.549763 
L 77.94144 290.436927 
L 78.007709 294.363945 
L 78.073979 287.978227 
L 78.140248 288.388359 
L 78.206518 286.888737 
L 78.339057 292.939139 
L 78.405327 288.850016 
L 78.471596 291.117758 
L 78.670405 293.72491 
L 78.736674 292.500168 
L 78.802944 288.580068 
L 78.869213 290.473578 
L 79.134292 295.241137 
L 79.266831 290.326762 
L 79.3331 290.530877 
L 79.39937 291.881846 
L 79.863257 282.361378 
L 79.995796 284.496025 
L 80.194604 291.8664 
L 80.393413 288.987524 
L 80.459683 290.444037 
L 80.592222 288.713696 
L 80.658491 294.194901 
L 80.724761 293.189973 
L 80.79103 278.307062 
L 80.8573 279.543009 
L 80.989839 290.716977 
L 81.056109 284.310763 
L 81.188648 236.438087 
L 81.321187 287.208179 
L 81.387456 287.619426 
L 81.453726 294.076815 
L 81.519996 286.944069 
L 81.586265 287.52697 
L 81.652535 285.671703 
L 81.718804 285.92601 
L 81.785074 292.558415 
L 81.851343 289.914953 
L 81.983882 283.947274 
L 82.116422 289.962219 
L 82.248961 287.214534 
L 82.31523 287.771198 
L 82.3815 289.879466 
L 82.447769 289.331079 
L 82.646578 279.057965 
L 82.779117 287.529936 
L 82.845387 287.356305 
L 83.044195 291.888632 
L 83.176734 292.948534 
L 83.243004 292.313613 
L 83.309274 287.615254 
L 83.375543 288.311323 
L 83.508082 285.10516 
L 83.640621 278.507298 
L 83.706891 285.086698 
L 83.77316 282.535445 
L 83.83943 283.70157 
L 83.905699 283.036313 
L 83.971969 282.198026 
L 84.038239 282.653515 
L 84.170778 287.048951 
L 84.237047 284.845722 
L 84.303317 288.750062 
L 84.369586 285.968465 
L 84.435856 291.944182 
L 84.502125 290.353235 
L 84.700934 249.283284 
L 84.767204 111.191426 
L 84.833473 154.549844 
L 84.966012 286.776957 
L 85.032282 283.879354 
L 85.164821 290.228002 
L 85.231091 289.801743 
L 85.36363 280.65267 
L 85.562438 289.018439 
L 85.628708 287.258581 
L 85.827517 293.068726 
L 85.960056 290.292079 
L 86.026325 290.677824 
L 86.092595 289.898422 
L 86.158864 285.955417 
L 86.225134 286.168855 
L 86.291403 289.254089 
L 86.423943 285.107813 
L 86.689021 292.331531 
L 86.75529 290.967842 
L 86.954099 284.376752 
L 87.086638 275.885411 
L 87.152908 276.821426 
L 87.285447 282.193815 
L 87.417986 278.423329 
L 87.550525 282.3337 
L 87.616795 281.756371 
L 87.683064 281.132937 
L 87.749334 281.591899 
L 87.815603 279.990537 
L 87.881873 285.061157 
L 87.948142 283.572992 
L 88.080681 291.835768 
L 88.213221 277.039048 
L 88.27949 286.370092 
L 88.412029 254.082014 
L 88.478299 53.568 
L 88.544568 244.168762 
L 88.610838 235.918758 
L 88.809646 282.465766 
L 88.942186 279.9019 
L 89.008455 287.252629 
L 89.074725 285.96918 
L 89.140994 285.923341 
L 89.207264 286.777362 
L 89.406072 294.329543 
L 89.472342 294.253327 
L 89.869959 286.031802 
L 89.936229 286.236974 
L 90.002498 286.580044 
L 90.135038 281.323504 
L 90.333846 290.531376 
L 90.532655 293.456382 
L 90.731464 282.479747 
L 90.797733 275.016697 
L 90.930272 285.369802 
L 90.996542 282.927219 
L 91.062811 284.662287 
L 91.129081 282.847388 
L 91.19535 282.880868 
L 91.26162 284.345335 
L 91.32789 283.750597 
L 91.394159 284.02052 
L 91.460429 283.340597 
L 91.592968 286.960232 
L 91.659237 285.818702 
L 91.725507 285.129867 
L 91.924316 293.560939 
L 92.056855 249.847399 
L 92.189394 144.255644 
L 92.321933 271.354425 
L 92.520742 291.050975 
L 92.587011 291.467214 
L 92.653281 290.851856 
L 92.78582 286.190362 
L 92.852089 287.213425 
L 92.918359 286.808795 
L 92.984628 287.116056 
L 93.050898 289.532083 
L 93.117168 289.072463 
L 93.249707 289.344817 
L 93.382246 286.754754 
L 93.448515 286.970434 
L 93.647324 289.921345 
L 93.713593 289.69852 
L 93.846133 287.998723 
L 94.111211 291.526464 
L 94.17748 290.14467 
L 94.24375 290.595733 
L 94.310019 290.884885 
L 94.442559 290.09818 
L 94.508828 290.886448 
L 94.707637 283.138012 
L 94.773906 283.571587 
L 94.840176 284.505489 
L 94.972715 289.313763 
L 95.105254 288.235977 
L 95.171524 288.658632 
L 95.237793 288.421471 
L 95.502871 294.710625 
L 95.569141 292.953455 
L 95.635411 293.105271 
L 95.70168 285.694063 
L 95.900489 197.35232 
L 96.099297 291.660865 
L 96.165567 295.254594 
L 96.231837 291.8755 
L 96.298106 293.119852 
L 96.430645 291.313863 
L 96.563184 292.22148 
L 96.629454 290.296589 
L 96.695723 290.85265 
L 97.292149 294.693482 
L 97.358419 294.623818 
L 97.424689 293.432859 
L 97.490958 293.810678 
L 97.557228 294.046543 
L 97.689767 293.026499 
L 97.756036 293.263278 
L 97.822306 293.562322 
L 97.888575 293.338621 
L 97.954845 293.411372 
L 98.021115 293.505811 
L 98.219923 289.531804 
L 98.286193 290.279154 
L 98.68381 294.904337 
L 98.882619 290.953833 
L 98.948888 291.433783 
L 99.015158 292.973456 
L 99.213966 289.805708 
L 99.280236 292.962283 
L 99.346506 292.902438 
L 99.545314 240.385442 
L 99.611584 249.521563 
L 99.677853 287.592974 
L 99.744123 280.487117 
L 99.810392 280.452899 
L 99.876662 281.932164 
L 100.009201 288.23701 
L 100.075471 286.204252 
L 100.14174 287.259213 
L 100.274279 288.931188 
L 100.340549 291.434374 
L 100.406818 289.524837 
L 100.473088 290.461636 
L 100.605627 288.96015 
L 100.671897 289.761857 
L 100.738166 290.232581 
L 100.804436 292.137459 
L 100.870705 291.415338 
L 100.936975 291.271769 
L 101.069514 293.021789 
L 101.135784 292.446688 
L 101.268323 290.920243 
L 101.334592 291.23573 
L 101.533401 289.068614 
L 101.73221 292.083623 
L 101.931018 294.250088 
L 101.997288 293.022309 
L 102.196096 294.341141 
L 102.262366 294.486568 
L 102.328636 293.634548 
L 102.394905 294.593402 
L 102.461175 292.645869 
L 102.527444 292.814857 
L 102.593714 293.369215 
L 102.726253 290.284492 
L 102.792522 286.970146 
L 102.858792 293.59389 
L 102.925062 288.279672 
L 102.991331 290.424897 
L 103.12387 259.835238 
L 103.19014 260.385346 
L 103.256409 281.918343 
L 103.455218 233.348939 
L 103.654027 269.778316 
L 103.720296 279.545281 
L 103.786566 278.944199 
L 103.852835 278.86973 
L 104.117913 288.627803 
L 104.184183 285.49553 
L 104.382992 289.528524 
L 104.515531 288.662641 
L 104.5818 289.01019 
L 104.64807 288.579795 
L 104.979418 292.906456 
L 105.111957 290.059602 
L 105.178226 290.982259 
L 105.244496 290.962476 
L 105.377035 289.411626 
L 105.575844 290.843249 
L 105.642113 289.829523 
L 105.840922 292.133185 
L 106.039731 285.598805 
L 106.17227 290.178497 
L 106.238539 285.813264 
L 106.437348 290.545299 
L 106.503617 290.554731 
L 106.569887 288.60852 
L 106.636157 292.64678 
L 106.702426 275.941977 
L 106.768696 277.993919 
L 106.834965 290.351346 
L 107.033774 259.935107 
L 107.100043 245.408493 
L 107.365122 293.195319 
L 107.431391 289.85768 
L 107.6302 288.110816 
L 107.762739 279.782277 
L 107.895278 290.288256 
L 107.961548 290.308859 
L 108.027817 288.110119 
L 108.094087 288.843109 
L 108.160356 291.346223 
L 108.359165 283.809302 
L 108.425435 283.63407 
L 108.557974 288.42876 
L 108.624243 288.215964 
L 109.02186 295.102133 
L 109.220669 290.322438 
L 109.353208 290.472561 
L 109.419478 291.236418 
L 109.485747 289.735816 
L 109.552017 290.610011 
L 109.618286 291.304736 
L 109.684556 289.872499 
L 109.750826 293.917019 
L 109.817095 293.663442 
L 109.883365 293.085601 
L 110.015904 295.221566 
L 110.280982 286.733705 
L 110.479791 261.642001 
L 110.744869 291.188804 
L 110.943678 280.308558 
L 111.076217 273.272425 
L 111.275025 284.927953 
L 111.341295 283.212641 
L 111.407564 283.979859 
L 111.606373 291.610446 
L 111.672643 288.534369 
L 111.871451 293.664252 
L 111.937721 293.350332 
L 112.07026 290.984161 
L 112.13653 291.366335 
L 112.202799 291.740352 
L 112.335338 290.868695 
L 112.467877 289.093918 
L 112.600416 289.760442 
L 112.666686 289.486629 
L 112.732956 288.223124 
L 112.931764 291.102463 
L 112.998034 290.708218 
L 113.064303 291.183281 
L 113.130573 290.789379 
L 113.329382 293.555909 
L 113.52819 289.952925 
L 113.59446 288.591453 
L 113.726999 292.710889 
L 113.925807 286.90795 
L 113.992077 285.01252 
L 114.058347 279.738389 
L 114.124616 264.129848 
L 114.190886 292.02686 
L 114.257155 289.177078 
L 114.389694 282.39889 
L 114.588503 292.042428 
L 114.654773 291.536358 
L 114.721042 292.110506 
L 114.853581 290.196148 
L 114.98612 293.450722 
L 115.05239 293.068753 
L 115.118659 292.72773 
L 115.184929 292.795661 
L 115.383738 294.705137 
L 115.450007 295.237335 
L 115.582546 294.105228 
L 115.847625 295.197085 
L 116.112703 293.439495 
L 116.311511 294.56221 
L 116.51032 293.152342 
L 116.57659 293.315102 
L 116.642859 292.979129 
L 116.709129 293.172281 
L 117.040477 294.601412 
L 117.173016 292.620178 
L 117.239285 293.28794 
L 117.305555 291.558477 
L 117.371824 292.47463 
L 117.570633 294.490684 
L 117.703172 284.561259 
L 117.769442 272.806569 
L 117.96825 292.266954 
L 118.100789 291.403316 
L 118.233329 293.311971 
L 118.299598 293.296028 
L 118.432137 289.044994 
L 118.498407 289.098039 
L 118.763485 294.013604 
L 118.829754 294.118723 
L 118.896024 295.109604 
L 118.962294 294.878461 
L 119.028563 294.107284 
L 119.161102 295.093096 
L 119.227372 294.547664 
L 119.293641 294.834889 
L 119.359911 294.473795 
L 119.42618 295.21934 
L 119.49245 295.01948 
L 119.55872 294.947277 
L 119.757528 293.546181 
L 119.823798 293.999367 
L 119.956337 294.260653 
L 120.088876 293.956648 
L 120.287685 294.976635 
L 120.552763 293.342724 
L 120.751572 294.864383 
L 120.817841 295.403175 
L 120.884111 293.981828 
L 120.95038 294.650457 
L 121.01665 294.402377 
L 121.281728 286.546369 
L 121.347998 288.846451 
L 121.414267 285.162163 
L 121.480537 272.472098 
L 121.546806 278.945457 
L 121.679345 290.613649 
L 121.745615 285.986938 
L 121.944424 291.912279 
L 122.010693 292.551534 
L 122.076963 294.740397 
L 122.143232 294.203339 
L 122.209502 294.384384 
L 122.275771 294.221249 
L 122.342041 294.735097 
L 122.40831 294.502203 
L 122.47458 294.221752 
L 122.54085 294.82004 
L 122.739658 293.190415 
L 122.805928 292.594113 
L 122.872197 294.331006 
L 122.938467 294.046989 
L 123.004736 293.981471 
L 123.137276 292.71576 
L 123.269815 294.549333 
L 123.336084 293.710055 
L 123.402354 293.975388 
L 123.468623 294.685765 
L 123.534893 294.586905 
L 123.601162 294.468108 
L 123.799971 293.079146 
L 123.866241 292.770771 
L 123.93251 291.576037 
L 123.99878 292.074477 
L 124.065049 291.505191 
L 124.131319 292.370082 
L 124.197588 290.956645 
L 124.462667 294.742203 
L 124.595206 293.85901 
L 124.661475 294.268681 
L 124.794014 291.806278 
L 124.860284 292.45627 
L 124.992823 276.535497 
L 125.125362 288.320662 
L 125.191632 256.231649 
L 125.257901 269.448661 
L 125.522979 289.194504 
L 125.589249 288.038397 
L 125.655519 293.802355 
L 125.721788 291.788318 
L 125.788058 290.809762 
L 125.854327 291.11564 
L 125.920597 293.359886 
L 125.986866 293.311868 
L 126.119405 290.870835 
L 126.185675 291.001269 
L 126.318214 293.113122 
L 126.450753 291.770479 
L 126.517023 290.724098 
L 126.583292 291.674198 
L 126.649562 291.492519 
L 126.848371 289.486373 
L 127.113449 293.36096 
L 127.179718 293.090481 
L 127.312257 294.372727 
L 127.378527 294.064684 
L 127.511066 294.545778 
L 127.577336 294.483768 
L 127.643605 294.172132 
L 127.709875 294.362427 
L 127.776144 294.635511 
L 127.842414 294.505456 
L 127.908683 293.949159 
L 127.974953 294.468683 
L 128.041223 294.411093 
L 128.173762 295.006788 
L 128.306301 292.71571 
L 128.43884 294.646041 
L 128.505109 293.916491 
L 128.571379 293.932601 
L 128.637648 283.406843 
L 128.703918 290.254134 
L 128.770188 288.902037 
L 128.902727 274.011524 
L 129.035266 292.988373 
L 129.101535 292.204937 
L 129.167805 290.562235 
L 129.234074 294.680482 
L 129.300344 293.730746 
L 129.366614 293.560504 
L 129.432883 292.576562 
L 129.499153 294.095254 
L 129.565422 293.631697 
L 129.631692 293.246654 
L 129.764231 294.141674 
L 129.89677 292.493642 
L 129.96304 292.435082 
L 130.029309 293.633326 
L 130.095579 293.184676 
L 130.228118 291.82608 
L 130.360657 292.606756 
L 130.426926 293.069685 
L 130.493196 292.649028 
L 130.758274 294.975317 
L 130.890813 294.475283 
L 131.089622 292.454705 
L 131.155892 292.440439 
L 131.288431 291.650521 
L 131.42097 293.504659 
L 131.487239 293.384088 
L 131.619778 294.928978 
L 131.686048 294.558981 
L 131.752318 293.487313 
L 131.818587 294.807258 
L 131.884857 294.732917 
L 132.017396 291.427055 
L 132.083665 291.512877 
L 132.149935 294.220226 
L 132.348744 289.50727 
L 132.415013 294.468602 
L 132.613822 275.558547 
L 132.680091 292.23921 
L 132.746361 285.511038 
L 132.8789 294.811268 
L 132.94517 294.768948 
L 133.011439 294.428458 
L 133.077709 292.205423 
L 133.210248 294.986111 
L 133.342787 293.472669 
L 133.409056 293.872454 
L 133.674135 294.459051 
L 133.740404 294.588373 
L 134.071752 292.762975 
L 134.270561 294.153986 
L 134.535639 291.097404 
L 134.668178 288.896665 
L 134.800717 291.699383 
L 134.933256 291.54834 
L 134.999526 291.119531 
L 135.065795 291.432761 
L 135.198334 294.288524 
L 135.330873 293.351944 
L 135.397143 294.133869 
L 135.728491 291.146172 
L 135.79476 294.341355 
L 135.86103 292.567395 
L 135.927299 293.899955 
L 135.993569 287.239456 
L 136.059839 293.151714 
L 136.126108 290.119588 
L 136.192378 288.063714 
L 136.324917 290.380042 
L 136.391186 269.73002 
L 136.457456 288.634943 
L 136.523725 288.554744 
L 136.589995 292.35739 
L 136.656265 291.373621 
L 136.722534 293.108514 
L 136.788804 292.21212 
L 136.855073 291.758727 
L 136.921343 293.54801 
L 136.987612 293.434273 
L 137.120151 293.640333 
L 137.252691 294.102317 
L 137.31896 293.999718 
L 137.38523 294.937855 
L 137.584038 292.185028 
L 137.782847 294.934964 
L 137.915386 294.145433 
L 137.981656 294.48213 
L 138.047925 293.949637 
L 138.114195 294.359713 
L 138.180464 294.167774 
L 138.246734 294.215488 
L 138.313003 293.336945 
L 138.379273 293.525971 
L 138.445543 294.271504 
L 138.511812 294.099588 
L 138.975699 292.089748 
L 139.174508 294.853329 
L 139.240777 293.950408 
L 139.307047 294.145545 
L 139.439586 293.883773 
L 139.505855 294.391387 
L 139.704664 284.473234 
L 139.770934 290.869885 
L 139.837203 288.130486 
L 139.903473 291.540913 
L 139.969742 290.58729 
L 140.102281 282.957627 
L 140.30109 292.957695 
L 140.36736 293.012456 
L 140.433629 293.811395 
L 140.566168 292.135307 
L 140.632438 292.30542 
L 140.831246 294.05594 
L 140.897516 293.605276 
L 141.030055 295.073482 
L 141.096325 294.719183 
L 141.228864 294.596108 
L 141.361403 293.745806 
L 141.427672 293.985764 
L 141.560212 295.096852 
L 141.626481 294.890389 
L 141.82529 293.55667 
L 142.024098 294.548741 
L 142.289177 294.089824 
L 142.355446 293.916243 
L 142.487985 295.197529 
L 142.554255 295.154108 
L 142.620524 294.863953 
L 142.686794 295.217072 
L 142.753064 295.015322 
L 142.951872 294.021124 
L 143.018142 294.06138 
L 143.084411 293.538856 
L 143.150681 294.286945 
L 143.34949 289.539917 
L 143.415759 280.186969 
L 143.482029 284.974287 
L 143.548298 285.10496 
L 143.614568 285.996843 
L 143.680837 291.713144 
L 143.747107 281.172498 
L 143.813376 285.086503 
L 143.945915 294.633914 
L 144.012185 291.721776 
L 144.144724 294.377219 
L 144.210994 293.787819 
L 144.277263 293.230527 
L 144.343533 295.031757 
L 144.409802 294.587354 
L 144.542341 292.140164 
L 144.608611 292.819272 
L 144.674881 293.347753 
L 144.873689 291.003506 
L 145.072498 294.19492 
L 145.138767 294.46892 
L 145.271307 293.493738 
L 145.470115 294.320389 
L 145.602654 293.639955 
L 145.668924 292.100508 
L 145.801463 295.052754 
L 145.867733 294.496652 
L 145.934002 294.368154 
L 146.000272 293.891209 
L 146.066541 294.116245 
L 146.132811 293.906736 
L 146.26535 292.216377 
L 146.331619 292.776361 
L 146.397889 293.606002 
L 146.464159 293.217316 
L 146.530428 291.993401 
L 146.662967 294.75589 
L 146.795506 288.136624 
L 146.861776 292.346338 
L 146.928045 286.830894 
L 146.994315 288.188084 
L 147.060585 287.83902 
L 147.126854 291.065164 
L 147.193124 289.274137 
L 147.259393 292.103769 
L 147.325663 280.940831 
L 147.391932 284.583026 
L 147.458202 281.589693 
L 147.524471 291.533775 
L 147.590741 290.26925 
L 147.657011 288.145431 
L 147.72328 289.384432 
L 147.78955 289.723412 
L 148.054628 294.008026 
L 148.120897 293.56846 
L 148.187167 293.183624 
L 148.253437 294.961157 
L 148.319706 293.76813 
L 148.385976 291.771641 
L 148.452245 291.828301 
L 148.651054 294.235211 
L 148.717323 293.699394 
L 148.849862 294.510252 
L 149.114941 291.593483 
L 149.512558 294.937327 
L 149.578828 293.547896 
L 149.645097 293.690005 
L 149.711367 293.637412 
L 149.910175 291.470276 
L 150.042714 293.079649 
L 150.108984 292.828024 
L 150.175254 293.114981 
L 150.241523 293.013178 
L 150.374062 290.524833 
L 150.506601 293.931785 
L 150.572871 288.144722 
L 150.63914 291.196556 
L 150.77168 293.24218 
L 150.837949 278.120326 
L 150.904219 288.868653 
L 150.970488 287.980759 
L 151.036758 288.258299 
L 151.103027 278.531215 
L 151.169297 282.481888 
L 151.235566 283.00763 
L 151.500645 289.649882 
L 151.633184 294.064969 
L 151.765723 293.234251 
L 151.831992 294.04446 
L 151.898262 293.74532 
L 152.030801 294.624824 
L 152.295879 292.456333 
L 152.362149 292.600299 
L 152.428418 293.138397 
L 152.693497 290.312497 
L 152.759766 292.222556 
L 152.826036 291.768827 
L 152.892305 291.183812 
L 153.091114 294.158289 
L 153.157384 294.029782 
L 153.223653 293.981177 
L 153.422462 294.962564 
L 153.488731 294.371104 
L 153.555001 294.698576 
L 153.62127 294.884927 
L 153.68754 294.261874 
L 153.753809 294.26994 
L 153.820079 294.133119 
L 153.952618 294.758677 
L 154.217696 288.70978 
L 154.350235 278.285236 
L 154.416505 288.987213 
L 154.482775 284.533428 
L 154.549044 283.000773 
L 154.615314 286.964673 
L 154.681583 282.313523 
L 154.747853 286.052605 
L 154.814122 283.292563 
L 154.880392 274.512501 
L 155.012931 290.525644 
L 155.079201 289.67099 
L 155.21174 293.090726 
L 155.278009 290.396807 
L 155.344279 292.019422 
L 155.543087 293.688544 
L 155.609357 293.115171 
L 155.741896 293.77515 
L 155.874435 292.30304 
L 155.940705 290.389734 
L 156.006974 290.666353 
L 156.272053 293.520979 
L 156.404592 292.751276 
L 156.537131 294.959426 
L 156.6034 293.621313 
L 156.66967 294.790831 
L 156.735939 294.074701 
L 156.868479 295.00057 
L 156.934748 294.95337 
L 157.133557 293.270285 
L 157.199826 293.953149 
L 157.266096 294.394218 
L 157.332365 294.382922 
L 157.398635 294.381331 
L 157.464905 294.117819 
L 157.531174 293.020657 
L 157.597444 294.104961 
L 157.663713 294.061567 
L 157.729983 292.564821 
L 157.796252 294.066328 
L 157.862522 293.573441 
L 157.928791 288.146144 
L 157.995061 289.363602 
L 158.061331 292.974429 
L 158.1276 282.589128 
L 158.19387 286.339557 
L 158.260139 287.244052 
L 158.326409 291.794165 
L 158.525217 282.280929 
L 158.591487 291.31319 
L 158.657756 289.729466 
L 158.724026 288.608306 
L 158.922835 293.073931 
L 158.989104 293.148852 
L 159.055374 292.942831 
L 159.254182 291.969661 
L 159.320452 293.203548 
L 159.386722 291.773101 
L 159.519261 294.088612 
L 159.6518 294.72681 
L 159.850608 293.702525 
L 159.983148 293.953805 
L 160.049417 293.856813 
L 160.248226 292.361886 
L 160.314495 293.08399 
L 160.380765 292.691623 
L 160.447034 293.27946 
L 160.513304 292.952951 
L 160.579574 292.596963 
L 160.844652 294.689808 
L 160.977191 293.813015 
L 161.176 294.916242 
L 161.573617 287.471231 
L 161.706156 284.992535 
L 161.772426 270.661202 
L 161.838695 276.980083 
L 161.904965 280.80077 
L 161.971234 277.873898 
L 162.037504 291.481468 
L 162.103773 279.674935 
L 162.170043 291.593455 
L 162.236312 288.515332 
L 162.368852 293.133599 
L 162.435121 291.016101 
L 162.501391 292.081249 
L 162.56766 292.079513 
L 162.63393 289.167615 
L 162.766469 292.277364 
L 162.832738 288.389352 
L 162.899008 291.129708 
L 162.965278 289.694359 
L 163.031547 288.879486 
L 163.230356 294.1799 
L 163.296625 294.130599 
L 163.362895 293.115038 
L 163.429164 293.464434 
L 163.561704 294.375333 
L 163.760512 293.211222 
L 163.826782 293.236229 
L 163.893051 293.260437 
L 164.02559 293.899257 
L 164.09186 293.733518 
L 164.224399 293.0256 
L 164.356938 294.030417 
L 164.423208 292.948578 
L 164.622016 294.929466 
L 164.688286 294.652718 
L 164.820825 292.141962 
L 164.887095 293.918137 
L 164.953364 293.104741 
L 165.019634 288.660897 
L 165.152173 293.509694 
L 165.218442 285.267283 
L 165.284712 286.433259 
L 165.417251 291.873308 
L 165.483521 291.354311 
L 165.682329 284.692915 
L 165.814868 292.087433 
L 165.947407 282.950489 
L 166.278755 295.175169 
L 166.411294 290.606869 
L 166.477564 291.410663 
L 166.610103 290.210456 
L 166.742642 293.489947 
L 166.875181 292.880283 
L 166.941451 293.816917 
L 167.00772 293.303811 
L 167.07399 292.949612 
L 167.206529 293.808324 
L 167.339068 295.107437 
L 167.670416 293.444534 
L 167.736685 293.744929 
L 167.802955 293.579942 
L 167.869225 293.623299 
L 167.935494 293.397343 
L 168.001764 293.645896 
L 168.068033 294.431236 
L 168.134303 294.316678 
L 168.333111 292.652016 
L 168.399381 292.782982 
L 168.53192 294.723757 
L 168.59819 294.561407 
L 168.863268 287.932162 
L 168.929537 288.621918 
L 169.128346 276.363817 
L 169.194616 289.161086 
L 169.260885 286.622076 
L 169.393424 285.576035 
L 169.525963 294.378006 
L 169.658502 287.721001 
L 169.724772 287.953698 
L 169.98985 292.945866 
L 170.05612 293.169476 
L 170.188659 288.72159 
L 170.254928 289.784931 
L 170.453737 292.856132 
L 170.586276 294.375694 
L 170.652546 294.255478 
L 170.785085 294.356211 
L 171.050163 291.63587 
L 171.315241 294.562302 
L 171.381511 294.067492 
L 171.58032 292.758663 
L 171.646589 292.03439 
L 171.712859 292.830361 
L 171.779128 294.984396 
L 171.845398 294.947984 
L 171.911667 293.726819 
L 171.977937 294.934148 
L 172.044206 292.691188 
L 172.110476 294.305284 
L 172.243015 290.855195 
L 172.309285 286.119757 
L 172.375554 288.969644 
L 172.441824 294.22995 
L 172.508093 292.247514 
L 172.574363 289.939666 
L 172.640632 282.765559 
L 172.706902 286.197699 
L 172.773172 285.132241 
L 172.839441 291.599465 
L 172.905711 284.577612 
L 172.97198 287.670699 
L 173.104519 284.166565 
L 173.435867 291.240549 
L 173.502137 291.448947 
L 173.568406 293.335619 
L 173.634676 292.84694 
L 173.700945 293.263878 
L 173.767215 292.918617 
L 173.833484 294.504501 
L 173.899754 294.228819 
L 173.966023 294.528979 
L 174.032293 293.645789 
L 174.164832 294.704598 
L 174.231102 293.909539 
L 174.297371 294.516578 
L 174.363641 294.50663 
L 174.49618 294.221473 
L 174.562449 293.327212 
L 174.761258 295.1399 
L 174.827528 295.033513 
L 174.960067 293.044409 
L 175.158875 294.52984 
L 175.225145 294.200343 
L 175.357684 294.951433 
L 175.556493 294.11561 
L 175.622762 292.952111 
L 175.689032 294.501328 
L 175.755301 293.310272 
L 175.821571 294.717247 
L 175.95411 290.681929 
L 176.02038 291.10296 
L 176.086649 292.284988 
L 176.351727 281.352013 
L 176.417997 293.226882 
L 176.484267 290.491822 
L 176.550536 292.48592 
L 176.616806 277.151639 
L 176.683075 290.960931 
L 176.749345 281.431346 
L 176.815614 293.512512 
L 176.881884 292.531683 
L 176.948153 285.684711 
L 177.014423 288.434126 
L 177.146962 295.085971 
L 177.213232 295.211718 
L 177.345771 293.273768 
L 177.47831 294.387034 
L 177.610849 293.433131 
L 177.677119 293.427829 
L 177.875927 294.073444 
L 177.942197 293.998131 
L 178.074736 292.705401 
L 178.207275 294.781937 
L 178.273545 294.699007 
L 178.339814 293.126749 
L 178.406084 293.703496 
L 178.472353 293.656244 
L 178.538623 294.258037 
L 178.604892 294.091635 
L 178.803701 293.617751 
L 179.068779 295.098607 
L 179.201318 291.468176 
L 179.267588 291.784452 
L 179.466396 293.551795 
L 179.598936 290.021116 
L 179.665205 292.26972 
L 179.864014 286.727188 
L 179.930283 285.748385 
L 179.996553 288.157035 
L 180.062822 288.140865 
L 180.129092 284.57978 
L 180.195362 291.732378 
L 180.261631 285.683592 
L 180.327901 287.085356 
L 180.39417 285.305192 
L 180.46044 289.272704 
L 180.526709 281.790297 
L 180.592979 284.854422 
L 180.659248 289.079238 
L 180.725518 285.53173 
L 180.791788 293.622071 
L 180.858057 292.323049 
L 180.924327 292.104672 
L 180.990596 292.326989 
L 181.123135 295.013665 
L 181.388214 292.63328 
L 181.653292 295.281761 
L 181.719561 294.526281 
L 181.785831 292.48075 
L 181.8521 293.038241 
L 181.91837 292.934924 
L 181.98464 293.958287 
L 182.183448 292.356086 
L 182.249718 292.376002 
L 182.448526 295.077033 
L 182.647335 292.74724 
L 182.713605 293.296645 
L 182.912413 292.565943 
L 182.978683 294.494585 
L 183.044952 293.137773 
L 183.111222 295.282212 
L 183.177492 291.705089 
L 183.243761 292.831959 
L 183.310031 293.653463 
L 183.508839 286.865738 
L 183.575109 288.400001 
L 183.641378 282.937323 
L 183.707648 292.959203 
L 183.773917 291.775001 
L 183.840187 283.428736 
L 183.906457 291.609138 
L 183.972726 281.86556 
L 184.038996 286.371089 
L 184.105265 290.830526 
L 184.237804 282.906425 
L 184.304074 284.556675 
L 184.436613 293.317005 
L 184.502883 292.506321 
L 184.569152 294.240271 
L 184.635422 293.562204 
L 184.701691 292.64865 
L 184.767961 293.188217 
L 184.9005 291.76587 
L 184.966769 292.154894 
L 185.033039 292.484675 
L 185.165578 292.034174 
L 185.231848 294.079595 
L 185.298117 293.959073 
L 185.496926 292.736659 
L 185.563195 291.976197 
L 185.629465 292.463557 
L 185.762004 293.337824 
L 185.894543 292.414745 
L 185.960813 291.289397 
L 186.027082 291.445741 
L 186.159621 294.416862 
L 186.225891 294.021226 
L 186.292161 294.39089 
L 186.4247 293.645048 
L 186.490969 294.058793 
L 186.557239 292.52336 
L 186.623508 294.638548 
L 186.689778 294.107983 
L 186.756047 294.504695 
L 186.954856 290.551613 
L 187.021126 293.433471 
L 187.087395 289.622882 
L 187.153665 279.414744 
L 187.219934 280.048181 
L 187.286204 294.641946 
L 187.352473 286.039991 
L 187.485013 291.071432 
L 187.551282 289.794468 
L 187.617552 284.494339 
L 187.683821 285.576742 
L 187.750091 286.61785 
L 187.81636 286.583558 
L 187.88263 282.059167 
L 188.081439 294.23727 
L 188.147708 292.225765 
L 188.213978 288.197187 
L 188.280247 290.542689 
L 188.346517 290.841951 
L 188.545325 292.464031 
L 188.611595 292.824343 
L 188.744134 294.489116 
L 188.942943 291.491545 
L 189.075482 294.440674 
L 189.141751 294.144445 
L 189.208021 293.823906 
L 189.34056 295.287397 
L 189.40683 294.577039 
L 189.473099 294.696856 
L 189.605638 294.154169 
L 189.671908 293.226914 
L 189.738177 293.726746 
L 189.804447 295.235283 
L 190.069525 291.261735 
L 190.135795 291.4925 
L 190.400873 294.64923 
L 190.467142 294.499283 
L 190.533412 291.211787 
L 190.599682 295.265245 
L 190.665951 292.52813 
L 190.732221 289.066082 
L 190.86476 293.126422 
L 190.931029 285.030104 
L 190.997299 289.269174 
L 191.196108 277.385548 
L 191.328647 288.299614 
L 191.394916 285.576246 
L 191.461186 292.187792 
L 191.527455 279.654435 
L 191.593725 280.527352 
L 191.659994 291.031575 
L 191.726264 285.788372 
L 192.057612 294.634239 
L 192.190151 293.237507 
L 192.32269 291.786854 
L 192.455229 293.510181 
L 192.521499 292.910788 
L 192.587768 294.351929 
L 192.654038 293.588355 
L 192.852846 292.456779 
L 193.051655 294.357312 
L 193.117925 294.439338 
L 193.184194 294.317663 
L 193.250464 294.531459 
L 193.449272 293.362818 
L 193.515542 293.564305 
L 193.648081 294.315092 
L 193.913159 290.660462 
L 194.045698 293.317582 
L 194.244507 291.643126 
L 194.310777 293.946522 
L 194.377046 292.352192 
L 194.443316 294.455257 
L 194.575855 289.07105 
L 194.642124 289.472027 
L 194.708394 293.700711 
L 194.907203 282.857178 
L 194.973472 280.78419 
L 195.039742 282.750886 
L 195.172281 294.794739 
L 195.30482 281.575072 
L 195.437359 292.523256 
L 195.503629 293.260209 
L 195.569898 287.413893 
L 195.768707 294.079685 
L 195.901246 295.291627 
L 196.100055 294.154941 
L 196.298863 291.678204 
L 196.497672 294.502619 
L 196.696481 293.497985 
L 196.82902 293.946536 
L 196.895289 294.391411 
L 197.027828 292.866807 
L 197.160367 293.926742 
L 197.226637 293.262144 
L 197.292907 293.423779 
L 197.425446 294.8482 
L 197.491715 294.689682 
L 197.557985 294.780231 
L 197.690524 293.773923 
L 197.756793 293.92895 
L 197.823063 291.867742 
L 197.889333 292.024859 
L 197.955602 293.909788 
L 198.021872 288.936315 
L 198.088141 294.583142 
L 198.154411 290.917556 
L 198.28695 286.64165 
L 198.353219 291.122473 
L 198.419489 285.099691 
L 198.485759 292.789835 
L 198.552028 288.610594 
L 198.684567 292.656867 
L 198.750837 281.484509 
L 198.949645 292.077559 
L 199.015915 287.441441 
L 199.082184 288.457799 
L 199.148454 288.738343 
L 199.214724 292.677713 
L 199.280993 292.157234 
L 199.413532 293.94554 
L 199.479802 293.587053 
L 199.546071 293.870592 
L 199.74488 292.518814 
L 199.877419 294.573185 
L 199.943689 294.677648 
L 200.208767 293.678076 
L 200.275036 293.265937 
L 200.341306 293.286075 
L 200.407576 293.844836 
L 200.540115 291.279814 
L 200.606384 292.064928 
L 200.672654 291.397089 
L 200.871462 293.350434 
L 200.937732 293.216029 
L 201.004002 293.32747 
L 201.136541 290.312365 
L 201.335349 294.553155 
L 201.401619 294.138289 
L 201.467888 294.245221 
L 201.600428 290.024168 
L 201.732967 293.13494 
L 201.799236 291.848073 
L 201.931775 283.519034 
L 202.064314 290.889397 
L 202.130584 281.967746 
L 202.196854 293.319206 
L 202.263123 291.826226 
L 202.395662 288.883507 
L 202.461932 292.8602 
L 202.528201 291.215257 
L 202.594471 291.651051 
L 202.72701 279.460171 
L 202.79328 284.746191 
L 202.859549 293.12254 
L 202.925819 290.884047 
L 203.190897 295.062964 
L 203.257166 294.744124 
L 203.721053 293.635935 
L 203.853592 294.737834 
L 204.118671 293.846859 
L 204.18494 294.731264 
L 204.25121 294.37797 
L 204.317479 293.798889 
L 204.383749 294.062654 
L 204.450018 293.743041 
L 204.582557 294.725504 
L 204.648827 294.595464 
L 204.781366 295.137123 
L 204.847636 293.792107 
L 204.913905 293.908661 
L 205.112714 294.668159 
L 205.245253 291.353944 
L 205.311523 293.772436 
L 205.377792 292.797997 
L 205.444062 292.949754 
L 205.576601 288.390228 
L 205.64287 289.148506 
L 205.70914 287.300176 
L 205.841679 292.219936 
L 205.907949 289.184952 
L 205.974218 294.19468 
L 206.040488 293.170915 
L 206.239296 287.113356 
L 206.305566 287.393142 
L 206.371835 292.390003 
L 206.438105 292.280027 
L 206.504375 291.404612 
L 206.703183 294.970141 
L 206.835722 292.922886 
L 206.968261 293.968106 
L 207.034531 293.815342 
L 207.100801 293.412118 
L 207.23334 295.184931 
L 207.432148 292.685611 
L 207.630957 295.115679 
L 207.697227 294.859294 
L 207.763496 295.076298 
L 207.962305 293.031432 
L 208.227383 292.263814 
L 208.293653 292.328206 
L 208.359922 292.600395 
L 208.426192 292.540749 
L 208.492461 292.282483 
L 208.558731 291.549515 
L 208.69127 293.79564 
L 208.757539 291.093411 
L 208.823809 294.111855 
L 208.890078 290.576893 
L 208.956348 293.982213 
L 209.088887 290.60973 
L 209.155157 292.296384 
L 209.221426 291.330918 
L 209.287696 284.827616 
L 209.353965 286.668894 
L 209.420235 292.39862 
L 209.486504 289.045045 
L 209.552774 291.293107 
L 209.685313 283.620621 
L 209.817852 284.754804 
L 209.950391 291.561565 
L 210.08293 283.539437 
L 210.1492 287.863766 
L 210.21547 294.74839 
L 210.281739 292.750557 
L 210.348009 292.303838 
L 210.414278 290.341339 
L 210.480548 290.36552 
L 210.546817 290.894202 
L 210.745626 294.964862 
L 210.811896 294.834581 
L 211.010704 293.081939 
L 211.143243 295.038626 
L 211.275782 291.806108 
L 211.408322 293.711578 
L 211.540861 294.319618 
L 211.60713 293.859343 
L 211.6734 294.017586 
L 211.739669 293.766622 
L 211.805939 294.016718 
L 211.872208 293.956449 
L 211.938478 293.448071 
L 212.004748 293.958146 
L 212.071017 293.868576 
L 212.137287 291.241327 
L 212.269826 294.491297 
L 212.336095 293.760713 
L 212.402365 294.796767 
L 212.468634 293.954186 
L 212.534904 291.068025 
L 212.601174 293.402203 
L 212.667443 289.603452 
L 212.733713 292.15637 
L 212.799982 294.827782 
L 212.932521 287.911848 
L 212.998791 287.246612 
L 213.06506 294.812524 
L 213.13133 290.177803 
L 213.1976 290.548078 
L 213.263869 293.626535 
L 213.330139 291.208578 
L 213.396408 293.523909 
L 213.528947 285.985646 
L 213.595217 292.769349 
L 213.794025 286.30905 
L 213.926565 294.253618 
L 213.992834 291.427162 
L 214.059104 292.414357 
L 214.125373 294.382274 
L 214.191643 293.707802 
L 214.257912 293.358096 
L 214.324182 291.610133 
L 214.58926 294.531456 
L 214.65553 295.091592 
L 214.721799 294.899618 
L 214.788069 294.661795 
L 214.854338 293.546441 
L 214.920608 293.644119 
L 215.053147 294.131076 
L 215.318225 294.958756 
L 215.384495 294.853937 
L 215.517034 293.287903 
L 215.649573 294.515116 
L 215.715843 294.2874 
L 215.782112 294.530475 
L 215.848382 294.436252 
L 216.11346 293.618768 
L 216.245999 293.414238 
L 216.312269 288.496495 
L 216.378538 292.954686 
L 216.444808 292.052337 
L 216.643616 287.424599 
L 216.842425 294.915861 
L 216.908695 289.347452 
L 216.974964 294.272491 
L 217.173773 284.812877 
L 217.372581 294.349652 
L 217.438851 291.607166 
L 217.505121 282.626408 
L 217.57139 286.971513 
L 217.63766 292.64871 
L 217.703929 289.539541 
L 217.902738 294.268046 
L 218.035277 292.210483 
L 218.101547 292.096532 
L 218.366625 294.975462 
L 218.565433 293.840804 
L 218.697972 294.617016 
L 218.830512 293.416567 
L 218.963051 294.586028 
L 219.02932 294.010319 
L 219.09559 295.067124 
L 219.161859 294.901014 
L 219.228129 294.560269 
L 219.294398 295.030142 
L 219.360668 294.752126 
L 219.493207 293.040812 
L 219.559477 294.459885 
L 219.625746 294.358343 
L 219.758285 293.023072 
L 219.890824 293.714953 
L 219.957094 294.544187 
L 220.023364 291.303324 
L 220.089633 292.14476 
L 220.155903 294.569616 
L 220.222172 284.571085 
L 220.288442 291.262696 
L 220.354711 286.116655 
L 220.420981 290.779113 
L 220.48725 281.716313 
L 220.55352 284.818479 
L 220.61979 293.791974 
L 220.686059 293.76436 
L 220.752329 286.465579 
L 220.818598 293.325658 
L 220.884868 288.852448 
L 221.017407 292.703133 
L 221.083676 294.303912 
L 221.282485 286.064487 
L 221.415024 293.849291 
L 221.613833 291.12197 
L 221.746372 292.281551 
L 221.812642 291.816963 
L 222.01145 294.934186 
L 222.276528 289.858344 
L 222.607876 294.438011 
L 222.674146 294.146493 
L 222.740415 292.9398 
L 222.806685 293.217825 
L 222.939224 293.091161 
L 223.138033 290.907039 
L 223.270572 294.022135 
L 223.336841 292.524588 
L 223.403111 292.850785 
L 223.46938 292.276898 
L 223.60192 294.163146 
L 223.734459 289.852075 
L 223.800728 290.359384 
L 223.866998 288.710314 
L 223.933267 283.117943 
L 224.065806 292.106049 
L 224.132076 291.274596 
L 224.264615 286.976265 
L 224.330885 289.592953 
L 224.397154 285.768517 
L 224.463424 286.795011 
L 224.529693 288.619394 
L 224.595963 286.318574 
L 224.662232 286.989712 
L 224.794771 294.343465 
L 224.861041 291.540001 
L 224.927311 294.916541 
L 224.99358 292.297523 
L 225.05985 293.416587 
L 225.126119 291.472646 
L 225.192389 293.814484 
L 225.258658 292.455415 
L 225.324928 290.707114 
L 225.391197 294.350624 
L 225.457467 293.507335 
L 225.722545 294.881005 
L 225.855084 291.854516 
L 225.921354 292.236729 
L 225.987623 292.402478 
L 226.120163 293.704477 
L 226.186432 293.419578 
L 226.252702 293.746802 
L 226.318971 294.922972 
L 226.45151 292.777657 
L 226.584049 294.446775 
L 226.650319 292.724758 
L 226.716589 292.94267 
L 226.915397 294.118503 
L 226.981667 293.663501 
L 227.047936 292.270383 
L 227.180475 294.195787 
L 227.246745 290.385087 
L 227.313015 293.347239 
L 227.379284 287.263619 
L 227.445554 289.474447 
L 227.578093 290.321688 
L 227.644362 293.423903 
L 227.776901 286.055104 
L 227.97571 291.79851 
L 228.108249 289.414351 
L 228.174519 290.132837 
L 228.240788 289.92842 
L 228.307058 290.301725 
L 228.505867 285.064571 
L 228.572136 284.764006 
L 228.704675 293.157268 
L 228.837214 290.357752 
L 228.903484 293.76355 
L 228.969753 293.746673 
L 229.036023 293.459511 
L 229.102292 291.85786 
L 229.168562 293.909858 
L 229.234832 293.290856 
L 229.367371 295.115886 
L 229.566179 293.594295 
L 229.698718 294.311349 
L 229.764988 294.149487 
L 229.897527 293.584334 
L 229.963797 293.683125 
L 230.096336 291.669459 
L 230.295144 294.451727 
L 230.361414 294.53481 
L 230.493953 293.015375 
L 230.560223 295.016385 
L 230.626492 294.987606 
L 230.759031 291.055933 
L 230.825301 292.777385 
L 230.95784 287.226116 
L 231.02411 293.750852 
L 231.090379 290.56726 
L 231.156649 290.320215 
L 231.222918 288.67678 
L 231.289188 294.779737 
L 231.355457 293.63604 
L 231.487996 288.199666 
L 231.554266 293.504336 
L 231.620536 292.573606 
L 231.686805 285.637082 
L 231.753075 288.663066 
L 231.819344 291.02524 
L 231.885614 284.269453 
L 231.951883 286.787661 
L 232.018153 284.186657 
L 232.150692 292.652433 
L 232.216962 287.667818 
L 232.283231 290.038834 
L 232.41577 294.113422 
L 232.548309 291.256762 
L 232.614579 293.856182 
L 232.680848 293.036031 
L 232.879657 293.889851 
L 232.945927 293.650053 
L 233.012196 294.388875 
L 233.078466 294.193924 
L 233.144735 294.229609 
L 233.343544 295.195023 
L 233.542353 294.187884 
L 233.674892 292.671089 
L 233.741161 294.283257 
L 233.807431 293.671288 
L 233.8737 293.704465 
L 233.93997 294.982188 
L 234.006239 294.696365 
L 234.138779 291.785991 
L 234.271318 294.5092 
L 234.602665 291.010704 
L 234.668935 291.914532 
L 234.801474 288.237573 
L 234.867744 288.581734 
L 234.934013 291.705754 
L 235.000283 285.698386 
L 235.066552 292.70455 
L 235.132822 292.143596 
L 235.199091 290.991191 
L 235.265361 285.464321 
L 235.3979 294.438789 
L 235.46417 289.057641 
L 235.530439 292.815551 
L 235.729248 280.122345 
L 235.928057 292.892284 
L 235.994326 290.539993 
L 236.193135 295.020984 
L 236.259404 291.300234 
L 236.325674 291.778898 
L 236.458213 293.899202 
L 236.524483 293.786272 
L 236.657022 291.783964 
L 236.789561 294.060268 
L 236.85583 293.778833 
L 237.054639 293.181408 
L 237.187178 294.332736 
L 237.319717 293.550627 
L 237.452256 295.20141 
L 237.518526 294.236129 
L 237.651065 293.895486 
L 237.717335 295.44041 
L 237.783604 293.464496 
L 237.849874 293.520306 
L 237.916143 294.26281 
L 237.982413 293.141995 
L 238.048682 293.335592 
L 238.114952 293.999464 
L 238.181221 292.708892 
L 238.247491 293.584722 
L 238.38003 293.119004 
L 238.711378 284.078974 
L 238.777647 292.647228 
L 238.843917 292.629745 
L 238.910186 294.19097 
L 238.976456 287.285994 
L 239.042726 287.671124 
L 239.108995 290.938182 
L 239.175265 287.419501 
L 239.241534 292.831562 
L 239.374073 285.044041 
L 239.440343 283.964346 
L 239.506612 284.4292 
L 239.639152 294.234688 
L 239.705421 289.528193 
L 239.771691 290.492686 
L 239.970499 293.341868 
L 240.103038 294.044808 
L 240.235578 293.379235 
L 240.301847 293.568908 
L 240.500656 294.690467 
L 240.566925 294.32175 
L 240.633195 294.751971 
L 240.832004 292.377164 
L 241.163351 295.306722 
L 241.29589 291.745387 
L 241.36216 294.320722 
L 241.42843 293.738585 
L 241.560969 293.196253 
L 241.627238 291.630325 
L 241.693508 292.538445 
L 241.759777 293.65186 
L 241.892316 291.377681 
L 241.958586 294.618712 
L 242.024856 289.700387 
L 242.091125 289.865546 
L 242.157395 288.738869 
L 242.223664 289.668238 
L 242.289934 282.053887 
L 242.356203 293.200837 
L 242.422473 288.786489 
L 242.555012 293.287392 
L 242.621282 293.82718 
L 242.687551 283.758773 
L 242.753821 290.446483 
L 242.88636 285.716231 
L 242.952629 289.149516 
L 243.018899 288.808699 
L 243.085168 284.815993 
L 243.217708 290.93538 
L 243.283977 287.51803 
L 243.416516 295.14325 
L 243.482786 293.416455 
L 243.549055 293.300355 
L 243.615325 291.322051 
L 243.681594 291.704148 
L 243.814133 292.205563 
L 243.946673 293.462421 
L 244.079212 292.211285 
L 244.145481 292.145623 
L 244.211751 291.71666 
L 244.34429 293.927502 
L 244.543099 292.189451 
L 244.675638 293.704569 
L 244.808177 294.835738 
L 245.006985 292.116765 
L 245.205794 293.781592 
L 245.272064 292.807315 
L 245.338333 292.838688 
L 245.470872 292.643488 
L 245.537142 294.0937 
L 245.603411 293.590145 
L 245.735951 289.395184 
L 245.80222 291.726707 
L 246.001029 286.804265 
L 246.067298 294.018625 
L 246.133568 293.660546 
L 246.199837 288.818174 
L 246.266107 292.960495 
L 246.332377 292.329579 
L 246.531185 286.277193 
L 246.597455 289.648391 
L 246.663724 286.953213 
L 246.729994 292.965353 
L 246.796263 291.164693 
L 246.862533 289.051204 
L 246.928803 292.282404 
L 246.995072 291.901308 
L 247.127611 285.588951 
L 247.32642 294.226018 
L 247.392689 294.723278 
L 247.458959 294.678227 
L 247.591498 292.743183 
L 247.724037 294.919852 
L 247.790307 294.527857 
L 247.856576 294.861678 
L 247.922846 294.325161 
L 248.055385 291.86515 
L 248.121655 292.166906 
L 248.254194 293.110526 
L 248.320463 292.931383 
L 248.386733 292.379851 
L 248.519272 295.095773 
L 248.585541 294.549556 
L 248.651811 295.059441 
L 248.78435 293.960475 
L 248.85062 295.039207 
L 248.916889 290.029128 
L 248.983159 291.253072 
L 249.049428 294.029536 
L 249.115698 292.56248 
L 249.181967 289.736597 
L 249.248237 292.346827 
L 249.314506 291.860089 
L 249.380776 289.799534 
L 249.447046 292.49258 
L 249.513315 285.333379 
L 249.579585 287.196655 
L 249.712124 292.964204 
L 249.910932 287.647909 
L 249.977202 290.515212 
L 250.043472 289.893983 
L 250.109741 282.659655 
L 250.176011 285.901419 
L 250.30855 295.108104 
L 250.374819 287.544864 
L 250.441089 292.611558 
L 250.639898 286.294729 
L 250.772437 294.261753 
L 250.838706 290.168986 
L 250.904976 291.923251 
L 251.037515 294.21003 
L 251.103784 293.551772 
L 251.170054 294.357058 
L 251.236324 294.147472 
L 251.302593 294.194502 
L 251.368863 294.057834 
L 251.435132 294.658942 
L 251.501402 294.372897 
L 251.567671 294.300266 
L 251.633941 295.197539 
L 251.70021 294.859622 
L 251.76648 294.788276 
L 251.83275 294.411054 
L 252.031558 295.053288 
L 252.296636 294.062812 
L 252.429176 292.239737 
L 252.495445 293.668082 
L 252.561715 293.55653 
L 252.694254 290.180971 
L 252.760523 292.234574 
L 252.826793 290.326911 
L 252.893062 293.076365 
L 252.959332 291.008763 
L 253.025602 292.575367 
L 253.22441 286.501528 
L 253.29068 287.607226 
L 253.356949 292.670034 
L 253.423219 292.580106 
L 253.489488 293.960849 
L 253.555758 291.315752 
L 253.622028 292.738397 
L 253.688297 292.424025 
L 253.754567 284.425171 
L 253.820836 293.399883 
L 253.887106 288.672511 
L 253.953375 291.79928 
L 254.152184 285.6679 
L 254.284723 289.920069 
L 254.350993 286.553106 
L 254.483532 294.947347 
L 254.549801 294.310837 
L 254.68234 293.022862 
L 254.74861 294.030869 
L 254.814879 293.718681 
L 254.881149 293.822217 
L 255.013688 294.66573 
L 255.079958 294.605066 
L 255.278766 293.803612 
L 255.477575 295.391466 
L 255.676384 292.846532 
L 255.808923 294.3422 
L 255.875192 293.495237 
L 256.007731 294.971033 
L 256.140271 292.884609 
L 256.20654 294.231053 
L 256.27281 293.858404 
L 256.339079 292.777502 
L 256.405349 294.231002 
L 256.471618 292.996289 
L 256.537888 289.676432 
L 256.604157 292.871151 
L 256.670427 289.483815 
L 256.736697 291.249323 
L 256.802966 293.703 
L 256.869236 292.621967 
L 256.935505 292.567572 
L 257.001775 288.038056 
L 257.068044 289.803228 
L 257.134314 288.198791 
L 257.200583 291.298452 
L 257.266853 288.822587 
L 257.333123 290.347665 
L 257.399392 292.061114 
L 257.531931 289.083867 
L 257.66447 293.886277 
L 257.995818 282.634083 
L 258.194627 293.959673 
L 258.260896 295.089752 
L 258.327166 294.850416 
L 258.393435 294.524361 
L 258.459705 294.944867 
L 258.525975 294.700091 
L 258.592244 294.235576 
L 258.658514 295.332628 
L 258.724783 295.033334 
L 258.791053 294.351055 
L 258.857322 294.571483 
L 258.989861 293.703038 
L 259.056131 294.280278 
L 259.1224 294.214083 
L 259.18867 294.282783 
L 259.25494 294.135206 
L 259.321209 294.317483 
L 259.387479 295.205832 
L 259.453748 294.667715 
L 259.520018 294.157834 
L 259.586287 292.72707 
L 259.652557 292.95927 
L 259.718826 293.957399 
L 259.785096 293.315831 
L 259.917635 294.697331 
L 259.983905 294.396809 
L 260.116444 291.476551 
L 260.315252 294.987388 
L 260.381522 290.467053 
L 260.447792 294.406447 
L 260.514061 289.850028 
L 260.580331 292.30182 
L 260.6466 293.722026 
L 260.779139 286.554506 
L 260.845409 293.487812 
L 260.911678 289.718278 
L 261.044218 294.5704 
L 261.110487 293.173869 
L 261.243026 283.127139 
L 261.309296 294.233099 
L 261.375565 293.985296 
L 261.508104 286.983452 
L 261.574374 292.89916 
L 261.640644 288.932715 
L 261.706913 288.21979 
L 261.773183 293.595131 
L 261.839452 290.482112 
L 261.905722 292.696577 
L 261.971991 292.689834 
L 262.038261 292.106545 
L 262.1708 295.148568 
L 262.23707 293.83949 
L 262.303339 293.112093 
L 262.568417 294.874188 
L 262.634687 295.146074 
L 262.767226 294.300306 
L 262.833496 294.330065 
L 262.966035 291.436343 
L 263.164843 294.135672 
L 263.231113 293.18751 
L 263.429922 294.704981 
L 263.562461 293.544069 
L 263.695 294.12702 
L 263.893808 291.11638 
L 264.026347 294.68065 
L 264.158887 289.221923 
L 264.225156 293.99316 
L 264.291426 289.134061 
L 264.357695 292.161023 
L 264.423965 295.183352 
L 264.490234 288.673997 
L 264.556504 292.624362 
L 264.622773 289.431639 
L 264.689043 291.443215 
L 264.755313 289.549809 
L 264.954121 294.479119 
L 265.020391 291.434287 
L 265.08666 293.223506 
L 265.15293 292.929186 
L 265.219199 288.543137 
L 265.285469 290.478575 
L 265.351739 289.385865 
L 265.484278 293.313926 
L 265.616817 293.465888 
L 265.683086 294.102973 
L 265.749356 294.09229 
L 265.881895 293.939917 
L 265.948165 293.428555 
L 266.014434 293.534525 
L 266.146973 294.184555 
L 266.279512 293.619921 
L 266.412051 294.818621 
L 266.544591 293.184412 
L 266.67713 295.069253 
L 266.743399 294.811351 
L 266.809669 293.99824 
L 266.875938 294.019519 
L 267.008477 294.954206 
L 267.074747 294.801341 
L 267.141017 294.72821 
L 267.207286 294.170212 
L 267.273556 294.952611 
L 267.406095 293.622278 
L 267.472364 294.756503 
L 267.538634 291.749508 
L 267.604903 292.433805 
L 267.671173 293.277395 
L 267.737443 292.990426 
L 267.869982 285.656103 
L 268.06879 293.288899 
L 268.201329 292.51515 
L 268.333869 288.183864 
L 268.466408 294.892794 
L 268.532677 293.624389 
L 268.598947 292.592727 
L 268.665216 288.345551 
L 268.731486 289.742357 
L 268.864025 292.451515 
L 268.930294 291.336496 
L 268.996564 292.891006 
L 269.062834 289.615604 
L 269.129103 290.667228 
L 269.195373 295.08162 
L 269.261642 291.918397 
L 269.327912 293.495726 
L 269.52672 295.147466 
L 269.65926 293.999944 
L 269.791799 295.015815 
L 269.858068 295.03184 
L 270.189416 292.706882 
L 270.454494 294.391211 
L 270.520764 294.795387 
L 270.653303 293.203299 
L 270.719572 293.240938 
L 270.785842 294.153963 
L 270.984651 291.95111 
L 271.05092 292.919508 
L 271.11719 291.934493 
L 271.183459 292.497873 
L 271.249729 292.942328 
L 271.448538 286.93468 
L 271.514807 293.186249 
L 271.581077 289.403519 
L 271.647346 293.422539 
L 271.713616 292.865125 
L 271.846155 291.238724 
L 271.912424 291.991306 
L 271.978694 290.783385 
L 272.111233 294.757624 
L 272.310042 288.997158 
L 272.376311 291.62027 
L 272.442581 285.508633 
L 272.50885 288.723168 
L 272.64139 293.893551 
L 272.773929 287.336778 
L 272.906468 294.688575 
L 272.972737 293.283613 
L 273.039007 293.148815 
L 273.105276 293.183177 
L 273.171546 294.698731 
L 273.237816 294.387848 
L 273.502894 293.508541 
L 273.569163 294.475714 
L 273.635433 293.720693 
L 273.767972 295.444965 
L 273.834241 295.050534 
L 273.966781 293.365878 
L 274.03305 293.553377 
L 274.09932 294.792383 
L 274.165589 294.473424 
L 274.231859 293.837975 
L 274.298128 293.997567 
L 274.364398 294.787362 
L 274.430667 293.877666 
L 274.496937 294.48308 
L 274.563207 294.980957 
L 274.629476 294.894103 
L 274.828285 291.309023 
L 274.894554 291.072591 
L 274.960824 292.678366 
L 275.027093 292.313536 
L 275.093363 291.665425 
L 275.159633 293.142969 
L 275.292172 289.258727 
L 275.358441 293.989554 
L 275.424711 290.876042 
L 275.49098 293.98193 
L 275.55725 291.013722 
L 275.623519 292.88607 
L 275.822328 291.010848 
L 275.954867 293.61 
L 276.021137 293.097825 
L 276.087406 291.506551 
L 276.219945 294.36749 
L 276.286215 292.15962 
L 276.352485 293.87634 
L 276.485024 288.807553 
L 276.551293 294.299301 
L 276.617563 291.019085 
L 276.750102 295.225132 
L 276.816371 293.610321 
L 276.882641 294.191245 
L 277.08145 295.046627 
L 277.213989 294.150644 
L 277.280258 294.388707 
L 277.346528 294.182072 
L 277.412797 294.504978 
L 277.479067 294.359158 
L 277.545337 294.465312 
L 277.744145 295.295602 
L 277.810415 294.912596 
L 277.876684 295.327326 
L 277.942954 294.141568 
L 278.009223 294.587775 
L 278.075493 295.253414 
L 278.274302 293.036821 
L 278.340571 293.072042 
L 278.406841 293.598011 
L 278.47311 291.765689 
L 278.53938 294.901654 
L 278.605649 294.210084 
L 278.804458 288.043672 
L 279.003267 293.308249 
L 279.069536 293.705555 
L 279.268345 290.683591 
L 279.334614 295.032141 
L 279.467154 286.735318 
L 279.599693 292.41793 
L 279.732232 287.551409 
L 279.93104 294.122406 
L 280.129849 287.360535 
L 280.262388 295.274153 
L 280.394927 289.840791 
L 280.660006 295.098069 
L 280.792545 294.198066 
L 280.858814 294.488741 
L 280.925084 295.31935 
L 281.057623 294.40747 
L 281.123892 294.330253 
L 281.190162 295.216599 
L 281.256432 294.964523 
L 281.45524 292.957734 
L 281.52151 293.988001 
L 281.587779 293.485511 
L 281.654049 292.488187 
L 281.786588 294.375937 
L 282.051666 292.10188 
L 282.117936 294.232708 
L 282.184205 294.060103 
L 282.250475 291.479907 
L 282.383014 294.784529 
L 282.449284 292.788823 
L 282.515553 285.400223 
L 282.581823 285.962594 
L 282.714362 291.645945 
L 282.780631 291.682067 
L 282.846901 293.861861 
L 282.91317 292.486757 
L 283.04571 289.579819 
L 283.111979 292.45797 
L 283.244518 288.560394 
L 283.310788 288.84164 
L 283.377057 294.766945 
L 283.443327 290.67654 
L 283.509596 294.660929 
L 283.575866 289.525536 
L 283.642136 292.335968 
L 283.708405 288.072443 
L 283.840944 292.290963 
L 283.907214 292.080755 
L 283.973483 294.92336 
L 284.106022 292.216979 
L 284.172292 291.980273 
L 284.238561 292.83948 
L 284.304831 292.417963 
L 284.371101 292.583688 
L 284.636179 294.348484 
L 284.702448 292.083943 
L 284.768718 292.21547 
L 284.834987 292.183451 
L 285.100066 294.956597 
L 285.497683 294.091794 
L 285.563953 294.269146 
L 285.630222 294.981089 
L 285.696492 294.748686 
L 285.762761 294.490795 
L 285.829031 291.070065 
L 285.8953 291.925659 
L 286.027839 290.416513 
L 286.226648 294.531259 
L 286.292918 293.164286 
L 286.359187 287.908248 
L 286.425457 289.702383 
L 286.491726 294.686541 
L 286.557996 289.428718 
L 286.624265 293.963276 
L 286.690535 292.628721 
L 286.756805 291.83325 
L 286.823074 292.389082 
L 286.955613 290.055857 
L 287.021883 290.653897 
L 287.154422 292.882379 
L 287.220691 288.066928 
L 287.286961 288.962723 
L 287.353231 293.713313 
L 287.4195 292.976472 
L 287.552039 294.947573 
L 287.618309 292.67986 
L 287.684578 292.783421 
L 287.750848 293.522584 
L 287.817117 290.379947 
L 287.949657 294.480198 
L 288.015926 294.094858 
L 288.148465 295.174373 
L 288.214735 294.237045 
L 288.281004 294.630538 
L 288.413543 294.310095 
L 288.479813 294.394549 
L 288.546083 294.692729 
L 288.612352 294.598228 
L 288.811161 293.538064 
L 288.87743 295.001472 
L 288.9437 294.72596 
L 289.076239 294.351466 
L 289.142508 293.95166 
L 289.208778 294.286043 
L 289.275048 292.67715 
L 289.341317 294.287653 
L 289.407587 294.059749 
L 289.540126 293.208701 
L 289.606395 293.841526 
L 289.738934 290.232793 
L 289.805204 293.135272 
L 289.871474 292.771205 
L 289.937743 293.40975 
L 290.004013 292.82014 
L 290.070282 293.692474 
L 290.136552 291.097145 
L 290.202821 294.057954 
L 290.269091 290.173726 
L 290.33536 293.271177 
L 290.40163 289.350277 
L 290.4679 289.729825 
L 290.600439 293.41272 
L 290.666708 289.432369 
L 290.799247 294.553971 
L 290.865517 294.081117 
L 290.998056 284.114516 
L 291.263134 293.589092 
L 291.329404 293.510543 
L 291.395673 292.69215 
L 291.528212 293.923803 
L 291.594482 292.135866 
L 291.727021 295.136488 
L 291.793291 294.741852 
L 291.85956 294.447222 
L 291.92583 293.404963 
L 291.992099 294.067091 
L 292.058369 294.713753 
L 292.124638 294.353344 
L 292.190908 294.006 
L 292.257178 294.063213 
L 292.389717 293.596256 
L 292.455986 294.034865 
L 292.522256 295.276494 
L 292.588525 294.43933 
L 292.654795 295.007166 
L 292.721064 294.469378 
L 292.787334 292.717251 
L 292.853604 293.254834 
L 292.919873 294.788362 
L 292.986143 294.376251 
L 293.118682 291.834909 
L 293.184951 293.484594 
L 293.251221 292.756295 
L 293.31749 293.112958 
L 293.38376 292.771302 
L 293.45003 289.730989 
L 293.516299 293.950116 
L 293.582569 292.419969 
L 293.648838 289.309835 
L 293.715108 294.805241 
L 293.781377 290.075696 
L 293.847647 290.430741 
L 293.913916 294.190022 
L 293.980186 293.888503 
L 294.046455 291.378536 
L 294.112725 294.056169 
L 294.178995 291.398248 
L 294.245264 293.508485 
L 294.377803 287.667836 
L 294.510342 293.693224 
L 294.709151 287.990645 
L 294.84169 292.207761 
L 294.90796 291.270435 
L 295.040499 293.706937 
L 295.173038 292.393619 
L 295.239307 294.39407 
L 295.305577 294.170779 
L 295.371847 294.017568 
L 295.438116 295.090396 
L 295.504386 294.892604 
L 295.636925 294.366674 
L 295.703194 294.463111 
L 295.769464 294.14998 
L 295.835733 294.636385 
L 295.902003 294.357126 
L 295.968273 294.193138 
L 296.034542 294.356931 
L 296.167081 293.613581 
L 296.29962 294.993434 
L 296.36589 293.803964 
L 296.432159 293.997616 
L 296.564699 295.185863 
L 296.630968 294.85929 
L 296.697238 292.969759 
L 296.763507 293.863251 
L 296.829777 294.794188 
L 296.962316 293.082249 
L 297.028585 293.555919 
L 297.094855 293.139733 
L 297.161125 289.297817 
L 297.293664 294.19388 
L 297.426203 292.01513 
L 297.492472 292.28558 
L 297.558742 291.982729 
L 297.625011 291.042067 
L 297.691281 291.322601 
L 297.82382 293.46322 
L 297.956359 289.666606 
L 298.088898 292.725927 
L 298.155168 293.37041 
L 298.221437 290.609739 
L 298.353977 293.917367 
L 298.420246 293.444582 
L 298.486516 291.615368 
L 298.552785 291.717875 
L 298.619055 291.297532 
L 298.685324 289.287425 
L 298.817863 292.204322 
L 298.884133 291.895972 
L 299.082942 295.33568 
L 299.215481 293.796 
L 299.28175 294.241091 
L 299.34802 294.173436 
L 299.414289 294.163069 
L 299.480559 293.589581 
L 299.613098 295.125984 
L 299.679368 294.89941 
L 299.745637 294.835453 
L 299.811907 294.382233 
L 299.878176 294.691338 
L 299.944446 295.294307 
L 300.076985 294.550937 
L 300.209524 295.289026 
L 300.275794 293.673544 
L 300.342063 294.211725 
L 300.408333 293.958718 
L 300.474602 294.876978 
L 300.607141 291.606458 
L 300.673411 294.158032 
L 300.87222 289.284507 
L 301.004759 294.821422 
L 301.071028 292.051753 
L 301.137298 293.65633 
L 301.269837 294.735201 
L 301.402376 291.49088 
L 301.468646 292.679746 
L 301.534915 289.223732 
L 301.601185 292.104458 
L 301.667454 288.46841 
L 301.866263 294.678805 
L 301.932532 294.690921 
L 301.998802 292.190626 
L 302.065072 294.00356 
L 302.33015 288.410734 
L 302.396419 288.666525 
L 302.595228 295.060331 
L 302.727767 294.705011 
L 302.794037 293.828408 
L 302.860306 294.779689 
L 302.926576 294.774671 
L 303.125384 294.306042 
L 303.257924 293.522513 
L 303.324193 293.612323 
L 303.390463 294.843542 
L 303.456732 294.290746 
L 303.523002 294.647158 
L 303.589271 293.833196 
L 303.655541 294.082433 
L 303.78808 294.420161 
L 303.854349 293.729567 
L 303.920619 294.291562 
L 303.986889 294.122567 
L 304.053158 294.068618 
L 304.119428 292.153904 
L 304.251967 294.340128 
L 304.384506 293.169135 
L 304.517045 291.092209 
L 304.583315 291.179095 
L 304.715854 293.515178 
L 304.782123 292.165031 
L 304.848393 289.815 
L 304.980932 294.444562 
L 305.047201 290.07229 
L 305.113471 292.748196 
L 305.179741 294.13057 
L 305.24601 287.057046 
L 305.444819 294.098105 
L 305.511088 294.035459 
L 305.643627 292.858174 
L 305.709897 294.627406 
L 305.776167 292.674066 
L 305.842436 293.70854 
L 305.974975 290.895861 
L 306.240053 295.001042 
L 306.438862 293.417728 
L 306.77021 295.202325 
L 306.836479 294.888275 
L 306.902749 295.077075 
L 306.969019 295.037507 
L 307.167827 293.882682 
L 307.300366 295.21668 
L 307.366636 294.826065 
L 307.432905 294.256878 
L 307.499175 294.595553 
L 307.565445 295.061273 
L 307.697984 291.21922 
L 307.764253 295.279135 
L 307.830523 293.931819 
L 307.896792 294.476685 
L 307.963062 292.46391 
L 308.029331 293.158757 
L 308.095601 292.895567 
L 308.161871 293.585102 
L 308.22814 289.982222 
L 308.29441 291.493566 
L 308.360679 294.818109 
L 308.426949 292.958183 
L 308.493218 294.403887 
L 308.559488 291.213494 
L 308.625757 293.977787 
L 308.692027 292.356617 
L 308.824566 293.634081 
L 308.890836 292.597624 
L 308.957105 292.657011 
L 309.023375 288.730486 
L 309.089644 293.311429 
L 309.155914 291.660743 
L 309.222183 291.49327 
L 309.288453 293.667667 
L 309.354722 289.14455 
L 309.420992 291.313575 
L 309.487262 290.96584 
L 309.619801 294.415124 
L 309.68607 292.407838 
L 309.75234 293.172676 
L 309.884879 294.091392 
L 309.951148 295.127752 
L 310.017418 294.668538 
L 310.083688 294.254169 
L 310.149957 294.768142 
L 310.216227 294.39566 
L 310.282496 294.566573 
L 310.348766 294.505696 
L 310.415035 293.859893 
L 310.613844 295.029418 
L 310.746383 294.994536 
L 310.812653 294.465255 
L 310.878922 294.69537 
L 310.945192 295.135159 
L 311.011461 295.114261 
L 311.077731 294.133955 
L 311.144 294.692128 
L 311.27654 293.549834 
L 311.342809 294.492003 
L 311.409079 294.34889 
L 311.541618 294.920862 
L 311.674157 293.358424 
L 311.740426 294.074877 
L 311.806696 291.095925 
L 311.939235 294.194402 
L 312.005505 293.805958 
L 312.071774 294.898884 
L 312.138044 291.941778 
L 312.204313 294.068366 
L 312.270583 291.841108 
L 312.336852 293.998439 
L 312.403122 293.751677 
L 312.469392 293.628849 
L 312.535661 291.747606 
L 312.601931 292.162414 
L 312.6682 293.539223 
L 312.73447 289.815471 
L 312.933278 294.477283 
L 313.198357 291.288017 
L 313.264626 290.844139 
L 313.463435 295.223224 
L 313.662244 294.100812 
L 314.059861 295.429433 
L 314.258669 294.703398 
L 314.324939 294.078232 
L 314.457478 295.309766 
L 314.656287 294.459774 
L 314.788826 294.846019 
L 314.855095 294.74037 
L 314.921365 294.585214 
L 314.987635 293.818383 
L 315.053904 294.141775 
L 315.252713 292.587695 
L 315.451521 294.274788 
L 315.517791 293.838928 
L 315.584061 294.717419 
L 315.65033 293.393777 
L 315.7166 294.561919 
L 315.849139 292.59215 
L 315.915408 295.091368 
L 315.981678 291.873442 
L 316.047947 291.881741 
L 316.180487 294.546782 
L 316.246756 292.648695 
L 316.313026 293.510216 
L 316.379295 292.726265 
L 316.445565 290.603826 
L 316.511834 293.543139 
L 316.578104 292.016656 
L 316.644373 293.774867 
L 316.710643 293.288508 
L 316.776913 291.489314 
L 316.843182 293.757453 
L 316.909452 292.979117 
L 316.975721 292.47485 
L 317.041991 292.516496 
L 317.10826 294.584728 
L 317.17453 293.996563 
L 317.307069 294.762135 
L 317.505878 294.148134 
L 317.704686 295.370174 
L 317.770956 295.188025 
L 317.837225 294.676495 
L 317.903495 294.871573 
L 318.036034 294.924231 
L 318.102304 294.534991 
L 318.234843 295.090541 
L 318.301112 294.647705 
L 318.367382 295.231405 
L 318.433651 294.931891 
L 318.499921 294.770658 
L 318.566191 293.920882 
L 318.63246 294.22947 
L 318.69873 294.774896 
L 318.963808 292.091928 
L 319.030077 292.263424 
L 319.295156 294.527994 
L 319.361425 294.047514 
L 319.427695 294.553119 
L 319.493964 293.769874 
L 319.560234 294.169892 
L 319.626503 294.801719 
L 319.692773 292.077958 
L 319.759042 293.352608 
L 319.891582 295.018394 
L 319.957851 294.865068 
L 320.024121 291.594709 
L 320.09039 292.058417 
L 320.15666 294.423515 
L 320.222929 294.05775 
L 320.289199 291.942008 
L 320.355468 294.423537 
L 320.421738 293.161634 
L 320.554277 294.367711 
L 320.620547 294.480387 
L 320.819355 293.557361 
L 320.885625 294.784311 
L 320.951894 294.07577 
L 321.018164 295.113239 
L 321.084434 294.78226 
L 321.216973 293.536073 
L 321.349512 295.099873 
L 321.415781 294.873531 
L 321.482051 295.101293 
L 321.54832 295.009334 
L 321.61459 294.76613 
L 321.68086 293.871952 
L 321.747129 294.243364 
L 321.813399 293.816296 
L 322.012207 295.202054 
L 322.144746 292.606226 
L 322.277286 294.574046 
L 322.343555 294.504415 
L 322.409825 294.706751 
L 322.542364 293.87982 
L 322.608633 294.480059 
L 322.674903 294.381265 
L 322.741172 292.810931 
L 322.807442 294.980409 
L 322.873712 294.025922 
L 322.939981 293.350539 
L 323.006251 295.262963 
L 323.07252 293.715613 
L 323.13879 294.133207 
L 323.271329 295.290957 
L 323.470138 290.516979 
L 323.668946 295.175268 
L 323.934024 292.362468 
L 324.066563 293.719233 
L 324.132833 293.98603 
L 324.199103 294.849443 
L 324.331642 293.584761 
L 324.397911 294.708759 
L 324.464181 294.15574 
L 324.53045 293.506482 
L 324.59672 295.09494 
L 324.662989 294.110305 
L 324.861798 295.012826 
L 324.928068 294.475963 
L 324.994337 294.838576 
L 325.193146 295.325226 
L 325.325685 294.845913 
L 325.391955 295.396525 
L 325.524494 294.395479 
L 325.657033 295.025666 
L 325.723302 294.960639 
L 325.855841 295.393407 
L 326.05465 294.998489 
L 326.12092 294.894319 
L 326.187189 294.472445 
L 326.253459 294.709606 
L 326.319728 295.198191 
L 326.452267 293.825741 
L 326.518537 293.52565 
L 326.584807 294.844932 
L 326.651076 293.99463 
L 326.717346 294.979204 
L 326.783615 293.415129 
L 326.849885 293.599393 
L 326.916154 294.630012 
L 326.982424 294.577344 
L 327.048693 293.640296 
L 327.114963 293.992612 
L 327.181233 293.76611 
L 327.247502 293.822789 
L 327.313772 294.461614 
L 327.51258 292.592011 
L 327.57885 294.295647 
L 327.645119 293.168114 
L 327.777659 294.959155 
L 327.976467 292.520273 
L 328.109006 295.023288 
L 328.175276 294.504925 
L 328.241545 294.75675 
L 328.307815 293.940662 
L 328.374085 294.894474 
L 328.440354 294.861595 
L 328.705432 295.301079 
L 328.837971 294.776421 
L 328.97051 295.384362 
L 329.03678 295.353853 
L 329.10305 294.762314 
L 329.169319 294.898632 
L 329.235589 294.682593 
L 329.368128 295.108634 
L 329.566936 294.315843 
L 329.633206 294.384439 
L 329.765745 294.957693 
L 329.898284 294.157801 
L 330.097093 294.970283 
L 330.163362 293.602295 
L 330.229632 293.927861 
L 330.295902 294.57825 
L 330.362171 294.021848 
L 330.428441 294.057486 
L 330.49471 294.932968 
L 330.56098 294.614632 
L 330.693519 294.827418 
L 330.759788 294.495162 
L 330.826058 295.123068 
L 330.958597 293.719771 
L 331.024867 294.307166 
L 331.091136 294.130254 
L 331.223675 293.186434 
L 331.289945 293.584592 
L 331.356214 294.913094 
L 331.422484 294.584816 
L 331.488754 294.140545 
L 331.555023 294.848529 
L 331.687562 292.85089 
L 331.753832 293.64644 
L 331.820101 295.082892 
L 331.886371 294.878631 
L 332.01891 295.32247 
L 332.08518 295.150481 
L 332.283988 295.090699 
L 332.416527 295.434008 
L 332.615336 295.076935 
L 332.681606 295.440657 
L 332.747875 295.045011 
L 332.814145 295.301158 
L 332.880414 295.117843 
L 332.946684 295.179577 
L 333.079223 295.063623 
L 333.145492 295.327146 
L 333.278032 295.021188 
L 333.344301 295.358832 
L 333.410571 294.862381 
L 333.47684 295.243036 
L 333.54311 295.041227 
L 333.609379 294.842391 
L 333.675649 295.356866 
L 333.741918 295.116242 
L 333.808188 294.459321 
L 333.874457 294.560013 
L 333.940727 294.679509 
L 334.139536 295.426942 
L 334.205805 294.797982 
L 334.272075 295.269744 
L 334.404614 294.375895 
L 334.470883 294.509869 
L 334.537153 295.090403 
L 334.603423 294.815102 
L 334.669692 294.33135 
L 334.735962 294.395498 
L 334.802231 294.850019 
L 334.868501 294.827597 
L 334.93477 294.549945 
L 335.133579 295.282284 
L 335.199849 295.209142 
L 335.266118 294.968337 
L 335.332388 295.166506 
L 335.398657 294.4239 
L 335.464927 295.130115 
L 335.531196 294.772395 
L 335.663735 295.138359 
L 335.730005 295.026298 
L 335.862544 294.747671 
L 335.995083 295.233428 
L 336.061353 294.990743 
L 336.193892 295.461501 
L 336.260161 295.148241 
L 336.326431 295.224358 
L 336.45897 295.193072 
L 336.591509 295.429364 
L 336.724048 295.056371 
L 336.922857 295.45334 
L 337.121666 294.739987 
L 337.187935 294.90036 
L 337.254205 294.739718 
L 337.320474 295.344088 
L 337.386744 294.517922 
L 337.453013 295.128035 
L 337.519283 294.318047 
L 337.718092 295.303385 
L 337.850631 295.109583 
L 337.9169 295.150232 
L 338.049439 294.569326 
L 338.181979 295.46186 
L 338.248248 295.158807 
L 338.314518 295.185395 
L 338.380787 295.303927 
L 338.447057 294.520823 
L 338.513326 294.792113 
L 338.645865 295.171472 
L 338.712135 294.875514 
L 338.778404 295.164555 
L 338.844674 294.87506 
L 338.910944 295.105862 
L 338.977213 294.853951 
L 339.109752 295.390757 
L 339.176022 295.367064 
L 339.242291 295.279603 
L 339.308561 295.413524 
L 339.573639 294.669557 
L 339.639909 294.736221 
L 339.838717 295.237554 
L 339.904987 295.004218 
L 340.037526 295.422811 
L 340.236335 294.733041 
L 340.302604 295.260232 
L 340.368874 295.019133 
L 340.501413 295.3379 
L 340.700222 294.995213 
L 340.832761 295.22281 
L 340.89903 294.971552 
L 340.9653 294.2096 
L 341.031569 294.802836 
L 341.097839 294.738135 
L 341.164108 294.446475 
L 341.230378 295.160731 
L 341.296648 294.622177 
L 341.362917 295.30865 
L 341.429187 295.002084 
L 341.561726 294.616185 
L 341.694265 295.336803 
L 341.760534 294.975862 
L 341.826804 295.41425 
L 341.893074 295.264146 
L 341.959343 294.508872 
L 342.025613 294.809479 
L 342.091882 295.020975 
L 342.158152 294.157556 
L 342.290691 295.109511 
L 342.35696 294.386843 
L 342.42323 294.798795 
L 342.4895 295.168228 
L 342.555769 294.789043 
L 342.622039 295.472945 
L 342.688308 295.20515 
L 342.820847 295.046644 
L 342.953386 295.309158 
L 343.085926 295.238337 
L 343.152195 294.87156 
L 343.218465 295.35848 
L 343.284734 295.25108 
L 343.351004 295.184022 
L 343.417273 295.323672 
L 343.483543 294.962075 
L 343.549812 294.985732 
L 343.616082 295.091345 
L 343.682352 294.893478 
L 343.748621 295.168074 
L 343.814891 294.873038 
L 343.88116 295.386866 
L 343.94743 295.245607 
L 344.013699 294.985796 
L 344.079969 295.376418 
L 344.146238 294.702965 
L 344.212508 294.884398 
L 344.278777 294.730744 
L 344.345047 295.092653 
L 344.411317 294.964353 
L 344.477586 294.981417 
L 344.676395 294.195009 
L 344.742664 294.48597 
L 344.808934 293.891708 
L 345.007743 294.947475 
L 345.074012 294.944135 
L 345.272821 295.319785 
L 345.40536 294.584621 
L 345.471629 294.605061 
L 345.604169 295.38638 
L 345.670438 294.720516 
L 345.736708 295.167989 
L 345.802977 295.049632 
L 345.869247 293.96962 
L 345.935516 294.499181 
L 346.068055 294.992338 
L 346.200595 294.80978 
L 346.266864 294.318993 
L 346.333134 295.286662 
L 346.399403 294.647961 
L 346.531942 295.15338 
L 346.598212 294.818988 
L 346.664481 294.880721 
L 346.797021 294.93238 
L 346.86329 295.062813 
L 346.92956 294.97892 
L 346.995829 294.472931 
L 347.062099 295.161496 
L 347.128368 294.744008 
L 347.393447 295.392801 
L 347.525986 294.960711 
L 347.592255 295.130086 
L 347.658525 295.098798 
L 347.791064 294.947566 
L 347.857333 295.298383 
L 347.923603 295.11441 
L 348.056142 294.902346 
L 348.188681 295.236534 
L 348.254951 295.143337 
L 348.32122 293.822797 
L 348.38749 294.454523 
L 348.520029 294.978799 
L 348.586299 294.749887 
L 348.652568 295.041941 
L 348.718838 294.979899 
L 348.785107 294.175553 
L 348.851377 295.122853 
L 348.917646 295.074618 
L 348.983916 294.990969 
L 349.050185 294.622026 
L 349.116455 294.655937 
L 349.248994 295.449397 
L 349.315264 295.226776 
L 349.381533 294.585948 
L 349.447803 295.297216 
L 349.514072 294.218691 
L 349.580342 295.250276 
L 349.646611 294.912973 
L 349.77915 294.740393 
L 349.84542 295.271955 
L 349.91169 294.417282 
L 349.977959 294.815705 
L 350.044229 295.236048 
L 350.110498 295.200599 
L 350.176768 295.256993 
L 350.309307 294.6606 
L 350.375576 295.245224 
L 350.441846 295.170056 
L 350.508116 295.19693 
L 350.574385 295.020491 
L 350.640655 295.27873 
L 350.706924 295.221131 
L 350.773194 295.097539 
L 350.839463 295.238741 
L 350.905733 294.824164 
L 350.972002 295.375491 
L 351.038272 295.230008 
L 351.104542 295.22009 
L 351.237081 295.016651 
L 351.36962 295.139033 
L 351.435889 294.951201 
L 351.502159 295.306481 
L 351.568428 295.255446 
L 351.634698 295.169952 
L 351.700968 295.293688 
L 351.767237 295.093908 
L 351.833507 295.432718 
L 352.032315 294.766611 
L 352.098585 294.867799 
L 352.164854 294.741124 
L 352.231124 294.311381 
L 352.297394 295.294059 
L 352.363663 295.005625 
L 352.695011 295.349024 
L 352.76128 295.274652 
L 352.82755 294.389775 
L 352.89382 294.898585 
L 352.960089 295.02214 
L 353.026359 294.899057 
L 353.092628 294.981348 
L 353.158898 295.124624 
L 353.225167 294.674327 
L 353.291437 295.249802 
L 353.357706 294.753522 
L 353.423976 295.203069 
L 353.490246 294.962413 
L 353.689054 294.500895 
L 353.755324 295.007224 
L 353.821593 294.972016 
L 353.887863 295.132118 
L 353.954132 294.721328 
L 354.020402 295.310548 
L 354.086671 295.08464 
L 354.152941 294.920166 
L 354.219211 295.424391 
L 354.28548 295.264938 
L 354.418019 295.096299 
L 354.484289 295.403575 
L 354.550558 295.385618 
L 354.815637 294.9981 
L 354.881906 295.087531 
L 354.948176 294.625468 
L 355.014445 294.772621 
L 355.080715 295.369795 
L 355.146984 295.052815 
L 355.279523 294.637183 
L 355.412063 295.117984 
L 355.478332 294.892175 
L 355.544602 294.926358 
L 355.610871 295.083723 
L 355.80968 294.24637 
L 355.875949 295.104026 
L 355.942219 295.037528 
L 356.008489 294.919259 
L 356.074758 294.318416 
L 356.141028 294.912765 
L 356.273567 294.217464 
L 356.339836 294.463382 
L 356.472375 295.263338 
L 356.538645 294.763961 
L 356.604915 295.300399 
L 356.737454 294.82487 
L 357.002532 294.977111 
L 357.068801 295.195878 
L 357.26761 294.73744 
L 357.33388 295.107616 
L 357.466419 294.410964 
L 357.598958 295.188464 
L 357.731497 294.636248 
L 357.930306 295.317821 
L 358.062845 295.010033 
L 358.129114 295.452134 
L 358.195384 294.835883 
L 358.327923 295.342979 
L 358.460462 295.074842 
L 358.526732 295.171586 
L 358.593001 295.449914 
L 358.659271 295.082796 
L 358.72554 295.353318 
L 358.858079 294.833084 
L 358.990618 295.385482 
L 359.056888 294.711303 
L 359.123158 295.015745 
L 359.189427 295.118557 
L 359.321966 294.776639 
L 359.454505 294.392201 
L 359.653314 294.97778 
L 359.719584 294.715413 
L 359.785853 295.057475 
L 359.852123 294.978525 
L 359.918392 294.885971 
L 360.117201 295.101814 
L 360.18347 294.950844 
L 360.24974 295.136866 
L 360.31601 294.979271 
L 360.382279 295.221655 
L 360.448549 294.564799 
L 360.514818 294.662407 
L 360.581088 294.640968 
L 360.647357 294.428938 
L 360.846166 295.186753 
L 360.912436 294.815922 
L 360.978705 294.914104 
L 361.044975 294.963748 
L 361.111244 294.840557 
L 361.177514 294.208359 
L 361.243783 294.593464 
L 361.310053 295.295806 
L 361.376322 294.621968 
L 361.442592 294.930925 
L 361.575131 295.192375 
L 361.641401 294.963513 
L 361.70767 295.246713 
L 361.77394 295.164174 
L 361.840209 295.094643 
L 361.906479 295.248521 
L 361.972748 295.127102 
L 362.039018 294.951684 
L 362.105288 295.250428 
L 362.237827 294.863212 
L 362.436635 295.216375 
L 362.502905 294.562836 
L 362.569174 294.874248 
L 362.635444 295.447429 
L 362.701714 295.211761 
L 362.767983 295.15357 
L 362.834253 294.690623 
L 362.900522 294.709075 
L 362.966792 295.249688 
L 363.033061 295.129795 
L 363.099331 294.908659 
L 363.1656 295.020804 
L 363.29814 295.171834 
L 363.496948 294.602566 
L 363.563218 295.270923 
L 363.629487 294.869327 
L 363.695757 294.816285 
L 363.828296 294.286758 
L 363.894565 294.922285 
L 363.960835 294.546118 
L 364.027105 294.333514 
L 364.093374 295.273944 
L 364.159644 294.556042 
L 364.292183 295.162575 
L 364.424722 294.692815 
L 364.557261 295.121196 
L 364.623531 294.358865 
L 364.6898 295.094884 
L 364.75607 294.832095 
L 364.822339 293.993137 
L 364.954878 295.039536 
L 365.021148 295.274188 
L 365.087417 295.068865 
L 365.153687 295.232089 
L 365.219957 294.990576 
L 365.286226 295.028663 
L 365.352496 295.376553 
L 365.418765 294.96361 
L 365.485035 295.024798 
L 365.617574 295.32416 
L 365.683843 294.778044 
L 365.750113 295.068962 
L 365.882652 294.919274 
L 366.081461 295.349147 
L 366.14773 295.414579 
L 366.280269 294.296645 
L 366.412809 295.266714 
L 366.479078 295.299123 
L 366.545348 295.103488 
L 366.611617 294.388948 
L 366.677887 294.828393 
L 366.744156 295.056266 
L 366.810426 294.654969 
L 367.009235 295.259241 
L 367.141774 295.040734 
L 367.208043 295.162119 
L 367.274313 295.221658 
L 367.473121 294.5894 
L 367.605661 295.106516 
L 367.67193 295.095706 
L 367.7382 294.329212 
L 367.804469 295.209371 
L 367.870739 295.093552 
L 367.937008 294.716593 
L 368.003278 294.935539 
L 368.069547 294.933617 
L 368.135817 295.145708 
L 368.334626 293.782716 
L 368.467165 295.215442 
L 368.533434 294.62826 
L 368.599704 294.99101 
L 368.665973 294.886298 
L 368.732243 295.008778 
L 368.798512 294.737026 
L 368.864782 294.95966 
L 368.931052 294.85482 
L 369.063591 295.229998 
L 369.12986 295.084816 
L 369.19613 295.066096 
L 369.262399 295.349387 
L 369.328669 294.658505 
L 369.394938 295.02576 
L 369.461208 294.972412 
L 369.527478 295.323511 
L 369.593747 295.086205 
L 369.660017 295.33051 
L 369.858825 294.70206 
L 370.057634 295.334453 
L 370.190173 295.067466 
L 370.256443 295.351329 
L 370.322712 294.251051 
L 370.388982 294.738178 
L 370.455251 294.962284 
L 370.521521 294.703717 
L 370.65406 295.081103 
L 370.72033 294.998968 
L 370.786599 295.309349 
L 370.852869 295.15509 
L 370.919138 294.686625 
L 370.985408 294.773632 
L 371.051677 294.973832 
L 371.250486 293.621384 
L 371.383025 295.24631 
L 371.449295 293.717787 
L 371.581834 295.128046 
L 371.648103 294.551126 
L 371.714373 295.353232 
L 371.780642 295.187572 
L 371.846912 294.752767 
L 371.979451 295.142027 
L 372.045721 294.950701 
L 372.11199 294.366698 
L 372.17826 294.753808 
L 372.244529 295.094604 
L 372.310799 294.424254 
L 372.377068 294.778545 
L 372.443338 294.468708 
L 372.642147 295.406348 
L 372.708416 295.281524 
L 372.774686 294.682319 
L 372.840955 295.249197 
L 372.907225 295.049914 
L 372.973494 295.179687 
L 373.039764 294.909638 
L 373.106034 295.002386 
L 373.172303 294.920198 
L 373.238573 295.274841 
L 373.304842 294.675832 
L 373.371112 295.280835 
L 373.437381 294.799315 
L 373.503651 295.079785 
L 373.56992 294.895975 
L 373.63619 294.960379 
L 373.70246 295.44131 
L 373.768729 295.192345 
L 373.967538 294.218439 
L 374.166346 295.272094 
L 374.298885 294.496693 
L 374.431425 295.063954 
L 374.497694 294.722247 
L 374.696503 295.224705 
L 374.762772 295.032597 
L 374.829042 295.13092 
L 374.895311 295.176404 
L 374.961581 293.808275 
L 375.09412 295.233752 
L 375.16039 294.61451 
L 375.226659 294.807974 
L 375.292929 295.300324 
L 375.359198 295.203374 
L 375.491737 294.964468 
L 375.558007 294.989835 
L 375.624277 294.823568 
L 375.690546 294.052294 
L 375.823085 294.969409 
L 375.889355 294.400781 
L 375.955624 294.604986 
L 376.088163 294.527077 
L 376.220703 295.398001 
L 376.286972 295.193673 
L 376.353242 295.189668 
L 376.419511 295.417059 
L 376.485781 295.310507 
L 376.55205 295.166666 
L 376.61832 295.334399 
L 376.684589 294.876253 
L 376.750859 295.242357 
L 376.817129 294.76979 
L 376.883398 295.320806 
L 376.949668 295.154973 
L 377.148476 294.65428 
L 377.281015 295.191702 
L 377.546094 294.988241 
L 377.612363 295.152727 
L 377.811172 294.533778 
L 377.877441 295.376903 
L 377.943711 295.13766 
L 378.009981 295.344433 
L 378.07625 294.71039 
L 378.14252 294.852945 
L 378.275059 295.273327 
L 378.341328 294.966839 
L 378.407598 295.253603 
L 378.738946 293.840415 
L 378.871485 295.24293 
L 378.937754 294.41537 
L 379.004024 294.887523 
L 379.070293 294.782322 
L 379.136563 295.348429 
L 379.202832 294.26841 
L 379.269102 295.208911 
L 379.335372 294.718557 
L 379.467911 294.316667 
L 379.53418 294.421376 
L 379.60045 294.281061 
L 379.732989 295.186002 
L 379.799258 294.281976 
L 379.931798 295.453094 
L 379.998067 294.775297 
L 380.064337 295.223735 
L 380.130606 295.235253 
L 380.196876 294.911031 
L 380.263145 295.031494 
L 380.329415 295.153789 
L 380.395684 294.987609 
L 380.528224 295.277244 
L 380.660763 294.650836 
L 380.727032 295.262282 
L 380.793302 294.448303 
L 380.925841 295.295208 
L 381.05838 294.368183 
L 381.12465 294.786722 
L 381.257189 295.256841 
L 381.389728 294.321287 
L 381.522267 295.246874 
L 381.654806 294.898649 
L 381.787345 295.345812 
L 381.853615 294.842057 
L 381.919884 295.117108 
L 381.986154 294.812424 
L 382.052423 294.969729 
L 382.118693 295.036039 
L 382.251232 294.73736 
L 382.317502 295.250675 
L 382.450041 293.768722 
L 382.51631 294.264649 
L 382.58258 295.226052 
L 382.648849 294.748593 
L 382.715119 295.035749 
L 382.781388 294.236838 
L 382.913928 295.141841 
L 382.980197 294.589167 
L 383.046467 295.066354 
L 383.112736 294.771827 
L 383.179006 294.607078 
L 383.245275 295.089706 
L 383.311545 294.775556 
L 383.377814 294.516791 
L 383.576623 295.258417 
L 383.642893 295.182429 
L 383.709162 294.806996 
L 383.775432 294.838596 
L 383.97424 295.24873 
L 384.173049 294.913819 
L 384.239319 295.198645 
L 384.305588 294.795053 
L 384.371858 295.415124 
L 384.570666 294.62056 
L 384.636936 295.400233 
L 384.703205 294.881099 
L 384.902014 295.196105 
L 384.968284 294.645307 
L 385.034553 294.743625 
L 385.299631 295.488 
L 385.365901 294.914803 
L 385.432171 294.964676 
L 385.56471 294.815941 
L 385.630979 295.015617 
L 385.697249 294.687848 
L 385.763518 294.772241 
L 385.829788 295.244587 
L 385.896057 294.940537 
L 386.028597 294.918605 
L 386.094866 295.313467 
L 386.161136 295.115422 
L 386.359944 293.945306 
L 386.426214 294.372157 
L 386.558753 295.02932 
L 386.625023 294.809778 
L 386.757562 295.091958 
L 386.823831 295.072682 
L 386.890101 294.693254 
L 386.95637 295.291839 
L 387.02264 294.854112 
L 387.088909 295.199221 
L 387.155179 294.462336 
L 387.221449 294.855034 
L 387.287718 294.757479 
L 387.420257 295.318948 
L 387.552796 295.067711 
L 387.619066 295.113349 
L 387.685335 295.416308 
L 387.751605 294.896612 
L 387.817875 295.018079 
L 387.884144 294.93958 
L 387.950414 295.307121 
L 388.016683 295.232486 
L 388.082953 294.857664 
L 388.149222 295.0596 
L 388.215492 295.038709 
L 388.281761 295.381417 
L 388.348031 295.226305 
L 388.48057 294.683444 
L 388.613109 295.29313 
L 388.811918 294.793571 
L 388.944457 295.10442 
L 389.010726 294.812832 
L 389.076996 295.263323 
L 389.143266 295.232703 
L 389.209535 294.776121 
L 389.275805 295.036666 
L 389.342074 295.379737 
L 389.408344 295.359839 
L 389.540883 294.959312 
L 389.607152 295.202681 
L 389.673422 294.660702 
L 389.739692 295.230656 
L 389.805961 295.113465 
L 389.872231 295.257139 
L 389.9385 294.699685 
L 390.00477 295.139854 
L 390.071039 295.017513 
L 390.137309 295.048145 
L 390.336118 295.333146 
L 390.468657 294.923769 
L 390.601196 295.002939 
L 390.667465 294.593411 
L 390.800004 295.338497 
L 390.932544 295.044288 
L 390.998813 295.186945 
L 391.131352 295.271953 
L 391.197622 294.658684 
L 391.263891 295.033709 
L 391.330161 295.470004 
L 391.52897 294.918504 
L 391.595239 295.034307 
L 391.661509 294.814253 
L 391.860317 295.235605 
L 391.992856 295.044341 
L 392.059126 295.315505 
L 392.125396 294.667466 
L 392.257935 295.35929 
L 392.324204 294.709626 
L 392.390474 294.891662 
L 392.589282 295.348693 
L 392.655552 295.316155 
L 392.721822 294.949272 
L 392.788091 295.389446 
L 392.854361 295.291561 
L 392.9869 294.841266 
L 393.119439 295.288217 
L 393.185708 294.795841 
L 393.251978 294.826919 
L 393.318248 295.260422 
L 393.384517 294.929827 
L 393.450787 294.97159 
L 393.517056 295.27105 
L 393.583326 294.603557 
L 393.649595 295.288514 
L 393.715865 295.250448 
L 393.782134 295.080832 
L 393.848404 295.450819 
L 393.914673 295.020672 
L 393.980943 295.130372 
L 394.047213 295.085489 
L 394.113482 295.387939 
L 394.312291 294.985194 
L 394.37856 295.105102 
L 394.511099 294.861953 
L 394.776178 295.248123 
L 394.842447 295.234083 
L 394.908717 295.441841 
L 395.041256 295.091076 
L 395.173795 295.41321 
L 395.240065 295.165518 
L 395.306334 295.242418 
L 395.372604 295.348758 
L 395.571412 295.047869 
L 395.637682 294.98618 
L 395.836491 295.360117 
L 395.90276 294.876062 
L 395.96903 295.184931 
L 396.035299 295.237558 
L 396.101569 294.733396 
L 396.167838 294.778517 
L 396.366647 295.436913 
L 396.432917 295.031378 
L 396.499186 295.079956 
L 396.565456 295.404715 
L 396.631725 295.330183 
L 396.830534 295.161014 
L 396.896803 295.304708 
L 396.963073 294.794486 
L 397.095612 295.184541 
L 397.228151 294.937332 
L 397.294421 294.78688 
L 397.36069 295.108083 
L 397.42696 294.978844 
L 397.493229 295.160835 
L 397.559499 295.12781 
L 397.625769 294.925874 
L 397.692038 295.157906 
L 397.758308 294.704948 
L 397.824577 294.774247 
L 397.890847 295.451562 
L 397.957116 294.814231 
L 398.023386 295.066077 
L 398.089655 295.173022 
L 398.155925 294.93633 
L 398.222195 295.421825 
L 398.288464 295.197593 
L 398.421003 295.312415 
L 398.487273 295.091631 
L 398.487273 295.091631 
" clip-path="url(#pa1cf9ffc35)" style="fill: none; stroke: #1f77b4; stroke-width: 1.5; stroke-linecap: square"/>
   </g>
   <g id="patch_3">
    <path d="M 57.6 307.584 
L 57.6 41.472 
" style="fill: none; stroke: #000000; stroke-width: 0.8; stroke-linejoin: miter; stroke-linecap: square"/>
   </g>
   <g id="patch_4">
    <path d="M 414.72 307.584 
L 414.72 41.472 
" style="fill: none; stroke: #000000; stroke-width: 0.8; stroke-linejoin: miter; stroke-linecap: square"/>
   </g>
   <g id="patch_5">
    <path d="M 57.6 307.584 
L 414.72 307.584 
" style="fill: none; stroke: #000000; stroke-width: 0.8; stroke-linejoin: miter; stroke-linecap: square"/>
   </g>
   <g id="patch_6">
    <path d="M 57.6 41.472 
L 414.72 41.472 
" style="fill: none; stroke: #000000; stroke-width: 0.8; stroke-linejoin: miter; stroke-linecap: square"/>
   </g>
   <g id="text_19">
    <text style="font: 12px 'IPAexGothic'; text-anchor: middle" x="236.16" y="35.472" transform="rotate(-0 236.16 35.472)">"085_A1.wav"の振幅スペクトル</text>
   </g>
  </g>
 </g>
 <defs>
  <clipPath id="pa1cf9ffc35">
   <rect x="57.6" y="41.472" width="357.12" height="266.112"/>
  </clipPath>
 </defs>
</svg>
