<?xml version="1.0" encoding="utf-8" standalone="no"?>
<!DOCTYPE svg PUBLIC "-//W3C//DTD SVG 1.1//EN"
  "http://www.w3.org/Graphics/SVG/1.1/DTD/svg11.dtd">
<svg xmlns:xlink="http://www.w3.org/1999/xlink" width="460.8pt" height="345.6pt" viewBox="0 0 460.8 345.6" xmlns="http://www.w3.org/2000/svg" version="1.1">
 <metadata>
  <rdf:RDF xmlns:dc="http://purl.org/dc/elements/1.1/" xmlns:cc="http://creativecommons.org/ns#" xmlns:rdf="http://www.w3.org/1999/02/22-rdf-syntax-ns#">
   <cc:Work>
    <dc:type rdf:resource="http://purl.org/dc/dcmitype/StillImage"/>
    <dc:date>2022-11-28T12:39:42.970588</dc:date>
    <dc:format>image/svg+xml</dc:format>
    <dc:creator>
     <cc:Agent>
      <dc:title>Matplotlib v3.6.2, https://matplotlib.org/</dc:title>
     </cc:Agent>
    </dc:creator>
   </cc:Work>
  </rdf:RDF>
 </metadata>
 <defs>
  <style type="text/css">*{stroke-linejoin: round; stroke-linecap: butt}</style>
 </defs>
 <g id="figure_1">
  <g id="patch_1">
   <path d="M 0 345.6 
L 460.8 345.6 
L 460.8 0 
L 0 0 
z
" style="fill: #ffffff"/>
  </g>
  <g id="axes_1">
   <g id="patch_2">
    <path d="M 57.6 307.584 
L 414.72 307.584 
L 414.72 41.472 
L 57.6 41.472 
z
" style="fill: #ffffff"/>
   </g>
   <g id="matplotlib.axis_1">
    <g id="xtick_1">
     <g id="line2d_1">
      <defs>
       <path id="m8006f9af9d" d="M 0 0 
L 0 3.5 
" style="stroke: #000000; stroke-width: 0.8"/>
      </defs>
      <g>
       <use xlink:href="#m8006f9af9d" x="73.832727" y="307.584" style="stroke: #000000; stroke-width: 0.8"/>
      </g>
     </g>
     <g id="text_1">
      <text style="font: 10px 'IPAexGothic'; text-anchor: middle" x="73.832727" y="322.074625" transform="rotate(-0 73.832727 322.074625)">0.0</text>
     </g>
    </g>
    <g id="xtick_2">
     <g id="line2d_2">
      <g>
       <use xlink:href="#m8006f9af9d" x="138.765109" y="307.584" style="stroke: #000000; stroke-width: 0.8"/>
      </g>
     </g>
     <g id="text_2">
      <text style="font: 10px 'IPAexGothic'; text-anchor: middle" x="138.765109" y="322.074625" transform="rotate(-0 138.765109 322.074625)">0.2</text>
     </g>
    </g>
    <g id="xtick_3">
     <g id="line2d_3">
      <g>
       <use xlink:href="#m8006f9af9d" x="203.69749" y="307.584" style="stroke: #000000; stroke-width: 0.8"/>
      </g>
     </g>
     <g id="text_3">
      <text style="font: 10px 'IPAexGothic'; text-anchor: middle" x="203.69749" y="322.074625" transform="rotate(-0 203.69749 322.074625)">0.4</text>
     </g>
    </g>
    <g id="xtick_4">
     <g id="line2d_4">
      <g>
       <use xlink:href="#m8006f9af9d" x="268.629872" y="307.584" style="stroke: #000000; stroke-width: 0.8"/>
      </g>
     </g>
     <g id="text_4">
      <text style="font: 10px 'IPAexGothic'; text-anchor: middle" x="268.629872" y="322.074625" transform="rotate(-0 268.629872 322.074625)">0.6</text>
     </g>
    </g>
    <g id="xtick_5">
     <g id="line2d_5">
      <g>
       <use xlink:href="#m8006f9af9d" x="333.562253" y="307.584" style="stroke: #000000; stroke-width: 0.8"/>
      </g>
     </g>
     <g id="text_5">
      <text style="font: 10px 'IPAexGothic'; text-anchor: middle" x="333.562253" y="322.074625" transform="rotate(-0 333.562253 322.074625)">0.8</text>
     </g>
    </g>
    <g id="xtick_6">
     <g id="line2d_6">
      <g>
       <use xlink:href="#m8006f9af9d" x="398.494635" y="307.584" style="stroke: #000000; stroke-width: 0.8"/>
      </g>
     </g>
     <g id="text_6">
      <text style="font: 10px 'IPAexGothic'; text-anchor: middle" x="398.494635" y="322.074625" transform="rotate(-0 398.494635 322.074625)">1.0</text>
     </g>
    </g>
    <g id="text_7">
     <text style="font: 10px 'IPAexGothic'; text-anchor: middle" x="236.16" y="335.924625" transform="rotate(-0 236.16 335.924625)">時間[s]</text>
    </g>
   </g>
   <g id="matplotlib.axis_2">
    <g id="ytick_1">
     <g id="line2d_7">
      <defs>
       <path id="m4ca81af691" d="M 0 0 
L -3.5 0 
" style="stroke: #000000; stroke-width: 0.8"/>
      </defs>
      <g>
       <use xlink:href="#m4ca81af691" x="57.6" y="300.768655" style="stroke: #000000; stroke-width: 0.8"/>
      </g>
     </g>
     <g id="text_8">
      <text style="font: 10px 'IPAexGothic'; text-anchor: end" x="50.6" y="304.513967" transform="rotate(-0 50.6 304.513967)">−6000</text>
     </g>
    </g>
    <g id="ytick_2">
     <g id="line2d_8">
      <g>
       <use xlink:href="#m4ca81af691" x="57.6" y="256.763198" style="stroke: #000000; stroke-width: 0.8"/>
      </g>
     </g>
     <g id="text_9">
      <text style="font: 10px 'IPAexGothic'; text-anchor: end" x="50.6" y="260.50851" transform="rotate(-0 50.6 260.50851)">−4000</text>
     </g>
    </g>
    <g id="ytick_3">
     <g id="line2d_9">
      <g>
       <use xlink:href="#m4ca81af691" x="57.6" y="212.757741" style="stroke: #000000; stroke-width: 0.8"/>
      </g>
     </g>
     <g id="text_10">
      <text style="font: 10px 'IPAexGothic'; text-anchor: end" x="50.6" y="216.503053" transform="rotate(-0 50.6 216.503053)">−2000</text>
     </g>
    </g>
    <g id="ytick_4">
     <g id="line2d_10">
      <g>
       <use xlink:href="#m4ca81af691" x="57.6" y="168.752284" style="stroke: #000000; stroke-width: 0.8"/>
      </g>
     </g>
     <g id="text_11">
      <text style="font: 10px 'IPAexGothic'; text-anchor: end" x="50.6" y="172.497596" transform="rotate(-0 50.6 172.497596)">0</text>
     </g>
    </g>
    <g id="ytick_5">
     <g id="line2d_11">
      <g>
       <use xlink:href="#m4ca81af691" x="57.6" y="124.746827" style="stroke: #000000; stroke-width: 0.8"/>
      </g>
     </g>
     <g id="text_12">
      <text style="font: 10px 'IPAexGothic'; text-anchor: end" x="50.6" y="128.492139" transform="rotate(-0 50.6 128.492139)">2000</text>
     </g>
    </g>
    <g id="ytick_6">
     <g id="line2d_12">
      <g>
       <use xlink:href="#m4ca81af691" x="57.6" y="80.74137" style="stroke: #000000; stroke-width: 0.8"/>
      </g>
     </g>
     <g id="text_13">
      <text style="font: 10px 'IPAexGothic'; text-anchor: end" x="50.6" y="84.486682" transform="rotate(-0 50.6 84.486682)">4000</text>
     </g>
    </g>
    <g id="text_14">
     <text style="font: 10px 'IPAexGothic'; text-anchor: middle" x="12.723438" y="174.528" transform="rotate(-90 12.723438 174.528)">振幅</text>
    </g>
   </g>
   <g id="line2d_13">
    <path d="M 73.832727 168.752284 
L 73.876899 168.774286 
L 73.950518 172.580759 
L 74.0315 181.403853 
L 74.090395 174.913048 
L 74.230272 159.44513 
L 74.406959 124.37278 
L 74.480579 137.83845 
L 74.841314 234.628453 
L 74.8634 230.998003 
L 74.995915 143.845195 
L 75.143154 107.672709 
L 75.187326 99.113648 
L 75.231497 111.985244 
L 75.562785 240.767214 
L 75.570147 240.195143 
L 75.687938 188.290707 
L 75.916159 103.030134 
L 75.938244 107.078636 
L 76.313704 221.14078 
L 76.350513 216.828246 
L 76.652353 120.830341 
L 76.689163 135.044104 
L 76.851126 166.970063 
L 76.880574 171.634641 
L 77.064622 219.710603 
L 77.086708 215.838123 
L 77.373824 119.202139 
L 77.410634 129.741446 
L 77.579959 166.353986 
L 77.793455 222.328928 
L 77.867075 206.398952 
L 78.102657 102.150025 
L 78.132105 110.555067 
L 78.375049 205.672862 
L 78.382411 204.990778 
L 78.411859 202.262439 
L 78.448669 208.181173 
L 78.500202 221.492824 
L 78.544374 204.572726 
L 78.824128 116.429795 
L 78.846214 122.810587 
L 79.081796 213.901883 
L 79.09652 215.508082 
L 79.140692 207.081037 
L 79.560323 98.343553 
L 79.221673 207.323067 
L 79.597133 124.416786 
L 79.788543 233.286286 
L 79.817991 242.681452 
L 79.869525 223.869119 
L 80.141917 109.960993 
L 80.164003 106.682587 
L 80.222898 116.121757 
L 80.23026 116.319782 
L 80.244984 114.405544 
L 80.289156 100.939874 
L 80.318603 118.828093 
L 80.539462 241.361288 
L 80.554186 243.319531 
L 80.590996 229.853861 
L 80.885473 92.930881 
L 80.900197 91.63272 
L 80.944369 97.1114 
L 80.959093 99.223662 
L 80.995903 87.936262 
L 81.010627 83.799749 
L 81.047436 104.13027 
L 81.283019 253.748824 
L 81.290381 253.616808 
L 81.386086 204.902767 
L 81.739459 79.465211 
L 81.783631 105.428431 
L 82.019213 272.517151 
L 82.056023 257.885337 
L 82.46093 70.90615 
L 82.483016 75.482718 
L 82.600807 202.83451 
L 82.748046 276.917697 
L 82.784856 267.016469 
L 83.079334 75.922772 
L 83.189763 59.266707 
L 83.211849 62.787143 
L 83.278107 119.862221 
L 83.476879 277.555776 
L 83.484241 277.489768 
L 83.543137 254.672939 
L 83.925958 58.4086 
L 83.93332 59.090685 
L 83.977492 76.71487 
L 84.227798 280.878188 
L 84.27197 263.936087 
L 84.669515 62.4351 
L 84.684239 63.359214 
L 84.735772 102.656087 
L 84.956631 295.488 
L 84.986079 289.19522 
L 85.258471 94.625091 
L 85.413071 63.425222 
L 85.420433 64.019296 
L 85.471967 96.429315 
L 85.692826 265.278254 
L 85.714911 261.77982 
L 85.93577 150.490019 
L 86.12718 60.652879 
L 86.149266 58.782647 
L 86.178714 68.529855 
L 86.421658 272.297124 
L 86.554173 235.530565 
L 86.664603 164.439749 
L 86.863375 66.747634 
L 86.892823 63.931285 
L 86.914909 70.66412 
L 87.165215 274.431389 
L 87.253559 240.393168 
L 87.319816 205.430832 
L 87.621656 73.392458 
L 87.629018 73.480469 
L 87.67319 103.448186 
L 87.90141 285.16872 
L 87.923496 280.790177 
L 88.357851 56.142319 
L 88.409384 93.194914 
L 88.630243 273.199236 
L 88.659691 264.244126 
L 89.086684 53.964049 
L 89.116131 62.567116 
L 89.366438 272.451143 
L 89.476867 244.287651 
L 89.822878 72.292322 
L 89.852326 78.189053 
L 90.09527 268.490652 
L 90.220424 228.775727 
L 90.559073 54.140071 
L 90.595883 67.055673 
L 90.824103 270.426892 
L 90.912447 262.593921 
L 91.111219 142.040971 
L 91.295268 62.67713 
L 91.30263 63.183192 
L 91.368887 114.383542 
L 91.597108 272.913201 
L 91.648641 261.493784 
L 92.024101 53.788027 
L 92.090358 89.322434 
L 92.325941 271.989086 
L 92.39956 246.751956 
L 92.760296 53.568 
L 92.767658 54.844158 
L 92.856001 119.510177 
L 93.076859 269.744808 
L 93.106307 260.525664 
L 93.481767 58.496611 
L 93.511214 61.973042 
L 93.584834 116.011744 
L 93.805692 277.577779 
L 93.842502 265.432273 
L 94.240047 68.089801 
L 94.254771 69.45397 
L 94.328391 126.617059 
L 94.541887 289.217222 
L 94.622868 252.67069 
L 94.792193 136.496284 
L 94.976242 56.428355 
L 94.990966 58.298587 
L 95.123481 154.780551 
L 95.27072 271.70305 
L 95.314892 256.389151 
L 95.705075 55.350221 
L 95.786056 104.680338 
L 95.999553 274.783432 
L 96.095258 240.921233 
L 96.44127 60.740889 
L 96.522251 106.176524 
L 96.662128 231.966123 
L 96.743109 276.433637 
L 96.802005 258.545419 
L 97.177464 65.119432 
L 97.221636 85.647978 
L 97.479304 270.00884 
L 97.545562 247.544055 
L 97.862126 83.095662 
L 97.913659 59.332715 
L 97.965193 82.633604 
L 98.10507 191.085053 
L 98.215499 266.202368 
L 98.274395 251.592557 
L 98.590958 91.808742 
L 98.642492 62.897157 
L 98.70875 84.61385 
L 98.767645 116.803842 
L 98.951694 260.833703 
L 99.010589 251.614559 
L 99.378687 77.308944 
L 99.46703 94.757108 
L 99.709975 257.885337 
L 99.820404 231.130019 
L 99.916109 176.123198 
L 100.10752 83.447705 
L 100.166415 86.06603 
L 100.195863 91.962761 
L 100.33574 200.788256 
L 100.438807 253.39678 
L 100.482979 240.217146 
L 100.887886 84.723864 
L 100.946782 99.421686 
L 101.16764 249.04024 
L 101.300155 222.680971 
L 101.521014 114.93361 
L 101.624081 81.621479 
L 101.660891 85.09791 
L 101.73451 124.922849 
L 101.903835 245.189763 
L 102.006902 235.222527 
L 102.051074 224.639214 
L 102.375 78.233059 
L 102.433895 96.847367 
L 102.64003 241.229271 
L 102.794631 224.309173 
L 102.993403 129.059362 
L 103.111195 86.726112 
L 103.148004 95.549206 
L 103.265795 171.392611 
L 103.376225 241.515307 
L 103.464568 239.733086 
L 103.486654 237.136764 
L 103.678065 162.723536 
L 103.840027 85.537965 
L 103.891561 95.527203 
L 103.96518 138.212497 
L 104.186039 238.742963 
L 104.200763 237.466805 
L 104.311192 201.690368 
L 104.576222 80.763372 
L 104.583584 81.203427 
L 104.649842 93.282925 
L 104.90751 238.852977 
L 105.003215 230.711967 
L 105.319779 80.345321 
L 105.371313 86.616098 
L 105.503828 185.73839 
L 105.636343 238.676955 
L 105.658429 235.948617 
L 105.709962 239.161015 
L 105.77622 206.354947 
L 106.070698 86.616098 
L 106.092783 89.45445 
L 106.203213 152.734297 
L 106.357814 241.405293 
L 106.409347 239.139012 
L 106.438795 243.627569 
L 106.475605 231.020005 
L 106.79953 82.743618 
L 106.821616 84.877883 
L 106.90996 127.827209 
L 107.167628 237.048753 
L 107.182352 235.926614 
L 107.344315 168.268224 
L 107.535725 85.053905 
L 107.579897 93.700977 
L 107.903823 239.35904 
L 107.955356 219.028518 
L 108.264558 89.806494 
L 108.279282 89.388442 
L 108.301368 93.370936 
L 108.448607 185.166319 
L 108.632656 238.192895 
L 108.640017 238.302909 
L 108.647379 237.620824 
L 108.809342 178.169452 
L 109.008115 92.798865 
L 109.081734 106.506565 
L 109.118544 123.932726 
L 109.346764 233.440306 
L 109.36885 237.246778 
L 109.40566 224.507198 
L 109.722224 93.634969 
L 109.736948 91.126658 
L 109.788481 98.211536 
L 109.810567 97.771482 
L 109.847377 114.515558 
L 110.097683 234.826477 
L 110.105045 234.518439 
L 110.289094 177.421359 
L 110.465781 94.779111 
L 110.561486 102.480065 
L 110.826516 238.742963 
L 110.892774 220.634718 
L 111.128356 130.731569 
L 111.260871 96.62734 
L 111.282957 99.28967 
L 111.393386 175.155078 
L 111.562711 239.931111 
L 111.570073 239.161015 
L 111.776207 179.20358 
L 111.997066 92.094778 
L 112.01179 93.854996 
L 112.100133 142.327007 
L 112.291544 231.108016 
L 112.31363 228.907744 
L 112.534488 163.911683 
L 112.733261 94.163034 
L 112.784794 108.948868 
L 113.027738 227.675591 
L 113.093996 216.520207 
L 113.248597 177.02531 
L 113.469455 98.629588 
L 113.528351 114.911607 
L 113.763933 228.093643 
L 113.859639 209.633353 
L 114.198288 97.221413 
L 114.264546 111.941239 
L 114.492766 232.032131 
L 114.640005 212.295683 
L 114.698901 189.302832 
L 114.934483 95.17516 
L 115.022826 117.463924 
L 115.258409 230.469937 
L 115.273133 229.831858 
L 115.479267 177.773402 
L 115.663316 96.495323 
L 115.722211 98.453566 
L 115.781107 140.082729 
L 115.987242 231.284038 
L 116.001965 230.161899 
L 116.303805 130.137495 
L 116.443682 92.798865 
L 116.47313 101.379929 
L 116.716074 232.846232 
L 116.782332 218.940508 
L 116.81178 218.830494 
L 116.878037 204.264688 
L 116.973743 163.141588 
L 117.172515 89.630472 
L 117.187239 90.488578 
L 117.246135 129.85146 
L 117.444907 231.064011 
L 117.459631 229.545823 
L 117.790919 117.551935 
L 117.90871 86.418074 
L 117.938158 93.0849 
L 118.17374 234.562445 
L 118.254722 227.741599 
L 118.298893 220.876748 
L 118.490304 142.062974 
L 118.644905 87.03415 
L 118.666991 92.512829 
L 118.902573 233.066259 
L 118.998278 226.839487 
L 119.145517 184.748267 
L 119.373738 82.501588 
L 119.403185 91.720731 
L 119.638768 228.907744 
L 119.697663 227.565577 
L 119.712387 227.631585 
L 119.719749 227.499569 
L 119.763921 219.028518 
L 119.984779 126.881091 
L 120.109932 82.215553 
L 120.13938 94.669097 
L 120.448582 229.193779 
L 120.455944 228.841735 
L 120.588459 202.702494 
L 120.838765 84.767869 
L 120.897661 109.124889 
L 121.177415 226.245413 
L 121.206863 220.634718 
L 121.567598 87.078156 
L 121.64858 118.212016 
L 121.898886 224.68322 
L 121.91361 223.671094 
L 122.163916 148.971831 
L 122.303793 94.185037 
L 122.347965 101.005883 
L 122.627719 223.737102 
L 122.701338 212.779744 
L 122.789682 198.565981 
L 123.054712 92.776862 
L 123.113607 117.947984 
L 123.356552 224.573206 
L 123.378637 223.297048 
L 123.584772 184.088186 
L 123.790906 93.304928 
L 123.812992 98.871618 
L 124.092746 224.485195 
L 124.159004 216.762237 
L 124.247347 203.120546 
L 124.40931 136.782319 
L 124.519739 90.114532 
L 124.571273 106.7926 
L 124.828941 220.260671 
L 124.858389 217.466325 
L 125.057162 180.259711 
L 125.263296 93.23892 
L 125.285382 99.201659 
L 125.557774 221.954881 
L 125.631393 216.916256 
L 125.646117 217.312306 
L 125.668203 213.483831 
L 125.992129 91.87475 
L 126.07311 122.964606 
L 126.154092 169.170336 
L 126.286607 219.622592 
L 126.330779 214.36394 
L 126.367588 216.520207 
L 126.389674 213.791869 
L 126.691514 99.245664 
L 126.720962 88.882379 
L 126.779857 109.982996 
L 127.089059 222.306925 
L 127.155317 210.73349 
L 127.177403 211.349566 
L 127.199488 209.325315 
L 127.346727 143.427143 
L 127.457157 92.072775 
L 127.523414 112.315285 
L 127.648567 181.799902 
L 127.817892 223.341053 
L 127.832616 221.62484 
L 128.105008 137.244377 
L 128.185989 94.141031 
L 128.259609 113.371416 
L 128.406848 194.077424 
L 128.539363 225.431312 
L 128.561449 222.878996 
L 128.826479 143.207116 
L 128.922184 91.87475 
L 129.003166 108.640829 
L 129.106233 168.334232 
L 129.268196 226.399432 
L 129.305006 220.744731 
L 129.489054 170.160458 
L 129.658379 89.982516 
L 129.709913 99.333675 
L 129.798256 140.522783 
L 130.004391 225.519323 
L 130.026476 222.636966 
L 130.239973 161.755416 
L 130.394574 91.478701 
L 130.490279 112.02925 
L 130.725862 227.147525 
L 130.762671 222.218914 
L 131.012977 152.470265 
L 131.123407 96.803362 
L 131.21175 108.948868 
L 131.454694 228.357675 
L 131.520952 220.326679 
L 131.535676 220.502701 
L 131.5504 219.908628 
L 131.653467 194.583487 
L 131.911135 97.881495 
L 131.947945 110.071007 
L 132.183527 227.389555 
L 132.249785 220.590712 
L 132.34549 210.051405 
L 132.492729 150.996082 
L 132.632606 96.583334 
L 132.676778 107.958745 
L 132.919722 226.839487 
L 133.030151 215.09003 
L 133.103771 201.954401 
L 133.361439 97.683471 
L 133.398249 104.85636 
L 133.655917 221.646843 
L 133.803156 209.171296 
L 133.884137 174.098947 
L 134.090272 97.199411 
L 134.149167 109.322914 
L 134.266959 178.213457 
L 134.414197 220.282674 
L 134.458369 213.527836 
L 134.716037 136.232251 
L 134.826467 100.169779 
L 134.870638 107.474685 
L 134.966344 155.968698 
L 135.150392 222.394936 
L 135.165116 220.788737 
L 135.452232 141.270876 
L 135.555299 106.770598 
L 135.621557 113.745462 
L 135.673091 137.310385 
L 135.871863 222.967007 
L 135.886587 222.35093 
L 136.122169 177.817408 
L 136.284132 109.45493 
L 136.379838 119.202139 
L 136.600696 219.292551 
L 136.65223 214.055902 
L 136.924622 144.615291 
L 137.079223 107.848731 
L 137.101309 111.523187 
L 137.344253 214.077905 
L 137.44732 209.237304 
L 137.454682 209.369321 
L 137.462044 208.467209 
L 137.808056 105.978499 
L 137.866951 126.771078 
L 138.080448 215.420071 
L 138.139343 207.917141 
L 138.176153 213.285806 
L 138.212963 204.550723 
L 138.529526 107.320666 
L 138.536888 106.880611 
L 138.558974 110.269031 
L 138.80928 217.532333 
L 138.956519 200.216186 
L 139.265721 107.672709 
L 139.287807 109.410925 
L 139.37615 147.497648 
L 139.538113 215.354063 
L 139.589647 208.533217 
L 139.641181 214.693981 
L 139.670628 207.565097 
L 140.009278 111.78722 
L 140.031364 113.459427 
L 140.104983 143.339132 
L 140.266946 215.354063 
L 140.347928 213.989894 
L 140.370013 216.212169 
L 140.406823 206.905015 
L 140.752835 113.503432 
L 140.767559 114.515558 
L 140.855902 150.864065 
L 140.995779 211.767618 
L 141.047313 207.147045 
L 141.098846 213.769866 
L 141.128294 207.235056 
L 141.481668 109.102887 
L 141.511115 112.601321 
L 141.628907 167.960186 
L 141.820317 211.085533 
L 141.842403 208.687236 
L 142.2105 107.056633 
L 142.276758 118.366035 
L 142.54915 214.583967 
L 142.578598 209.809375 
L 142.946695 111.479181 
L 143.012953 123.778707 
L 143.270621 218.082401 
L 143.285345 217.356311 
L 143.498841 171.700649 
L 143.704976 110.555067 
L 143.734424 116.605817 
L 143.999454 215.266052 
L 144.036264 210.667482 
L 144.176141 189.104808 
L 144.279208 152.184229 
L 144.441171 108.376797 
L 144.485342 122.964606 
L 144.728287 210.97552 
L 144.750372 209.589348 
L 144.831354 199.886145 
L 145.170004 107.672709 
L 145.228899 127.871214 
L 145.508653 210.425452 
L 145.530739 208.621228 
L 145.862027 121.094374 
L 145.906198 110.049004 
L 145.95037 124.350778 
L 146.230124 210.051405 
L 146.237486 209.875383 
L 146.392087 190.24895 
L 146.635031 108.618827 
L 146.701289 127.871214 
L 146.78227 167.872175 
L 146.944233 205.276813 
L 146.966319 206.310941 
L 147.010491 202.042412 
L 147.341778 117.683951 
L 147.371226 111.743214 
L 147.42276 126.529048 
L 147.496379 156.298739 
L 147.673066 206.574974 
L 147.702514 207.741119 
L 147.739323 203.912644 
L 148.092697 115.285653 
L 148.18104 130.09349 
L 148.438708 207.521091 
L 148.490242 198.081921 
L 148.806806 121.028366 
L 148.82153 117.705954 
L 148.902511 125.384906 
L 148.990855 170.204464 
L 149.167541 207.081037 
L 149.174903 206.70699 
L 149.403124 167.212093 
L 149.557725 118.035995 
L 149.631344 120.962357 
L 149.719687 163.339613 
L 149.896374 206.024906 
L 149.903736 205.804879 
L 150.117233 174.957053 
L 150.345453 120.390286 
L 150.360177 121.600437 
L 150.441158 156.298739 
L 150.625207 206.200928 
L 150.639931 205.298816 
L 150.956495 148.707798 
L 151.074286 122.370532 
L 151.103734 124.790832 
L 151.199439 168.708278 
L 151.35404 206.750996 
L 151.383488 203.824633 
L 151.817843 120.830341 
L 151.869376 133.547918 
L 152.090235 206.332944 
L 152.119682 203.450587 
L 152.554037 119.994237 
L 152.612933 136.540289 
L 152.826429 205.276813 
L 152.863239 200.524224 
L 153.157717 151.436136 
L 153.28287 121.578434 
L 153.31968 126.837086 
L 153.5479 203.494592 
L 153.650968 194.407465 
L 154.019065 122.370532 
L 153.724587 194.671498 
L 154.063237 128.443285 
L 154.284095 198.389959 
L 154.3798 191.4591 
L 154.747898 124.482794 
L 154.446058 194.627492 
L 154.784708 126.529048 
L 154.858327 158.036955 
L 155.049738 199.512098 
L 155.064462 200.502221 
L 155.101271 195.199563 
L 155.498817 124.724824 
L 155.174891 196.695749 
L 155.506179 124.944851 
L 155.55035 135.594172 
L 155.793295 202.504469 
L 155.800656 202.174428 
L 156.168754 131.369648 
L 156.235011 120.74233 
L 156.279183 129.081364 
L 156.514765 201.690368 
L 156.544213 197.817888 
L 156.735624 176.167203 
L 156.787157 167.718156 
L 156.971206 121.116377 
L 157.02274 132.887836 
L 157.243598 202.438461 
L 157.258322 201.734374 
L 157.714763 123.932726 
L 157.758935 137.35439 
L 157.979793 203.604606 
L 158.281633 168.40024 
L 158.450958 120.962357 
L 158.495129 136.452278 
L 158.708626 198.213937 
L 158.72335 197.047793 
L 158.767522 190.358963 
L 158.826417 197.531853 
L 158.870589 191.129059 
L 159.179791 117.969986 
L 159.246048 139.378641 
L 159.55525 196.651744 
L 159.584698 194.253446 
L 159.790832 158.47701 
L 159.908623 119.576186 
L 159.960157 132.447782 
L 160.284083 197.333828 
L 160.306169 196.54173 
L 160.504941 169.038319 
L 160.637456 124.13075 
L 160.696352 133.547918 
L 161.02764 197.861894 
L 161.071811 195.375585 
L 161.285308 157.134843 
L 161.373651 125.252889 
L 161.454633 138.630548 
L 161.631319 191.613119 
L 161.704939 190.028922 
L 161.771196 195.771634 
L 161.830092 192.119181 
L 161.947883 176.255214 
L 162.117208 125.274892 
L 162.168741 131.457659 
L 162.485305 197.399836 
L 162.492667 197.531853 
L 162.522115 196.585735 
L 162.603096 186.420475 
L 162.735611 165.055825 
L 162.860765 125.076868 
L 162.934384 141.666925 
L 163.18469 193.571362 
L 163.265672 197.245817 
L 163.29512 194.561484 
L 163.604321 123.998734 
L 163.670579 140.126734 
L 163.942971 192.163187 
L 163.994505 195.529604 
L 164.023952 192.493228 
L 164.340516 124.328775 
L 164.399412 139.510658 
L 164.679166 191.283078 
L 164.723337 195.793637 
L 164.767509 189.830898 
L 164.811681 190.49098 
L 164.936834 169.764409 
L 165.076711 125.758952 
L 165.128245 140.764813 
L 165.444808 198.675995 
L 165.474256 194.759509 
L 165.805544 125.076868 
L 165.864439 140.126734 
L 166.173641 199.182057 
L 166.225175 192.471225 
L 166.28407 189.36884 
L 166.534377 123.40466 
L 166.615358 139.840698 
L 166.895112 198.521975 
L 167.012903 190.909031 
L 167.270571 122.348529 
L 167.373639 138.960589 
L 167.623945 197.729877 
L 167.749098 190.755012 
L 168.006766 122.370532 
L 168.102472 135.968218 
L 168.36014 199.424087 
L 168.477931 193.593364 
L 168.735599 121.930477 
L 168.823942 132.249757 
L 168.934372 173.108824 
L 169.096335 199.512098 
L 169.103697 199.358079 
L 169.169954 200.458216 
L 169.214126 193.527356 
L 169.471794 122.216513 
L 169.560137 130.423531 
L 169.898787 202.680491 
L 169.920873 200.612235 
L 170.200627 124.548802 
L 170.318418 139.004595 
L 170.62762 201.558352 
L 170.708601 189.588868 
L 170.841116 166.089954 
L 170.980993 124.328775 
L 171.025165 130.555547 
L 171.349091 202.10842 
L 171.393262 196.54173 
L 171.614121 144.637293 
L 171.709826 123.778707 
L 171.746636 127.475165 
L 171.95277 187.476606 
L 172.077924 201.800382 
L 172.100009 199.908147 
L 172.32823 156.254734 
L 172.438659 122.788584 
L 172.482831 126.749075 
L 172.563812 150.203984 
L 172.769947 197.113801 
L 172.814118 201.536349 
L 172.873014 196.673746 
L 173.064425 158.146969 
L 173.174854 124.834838 
L 173.226387 127.475165 
L 173.292645 147.18961 
L 173.491418 194.649495 
L 173.550313 200.524224 
L 173.609209 195.925653 
L 173.778534 171.414614 
L 173.918411 126.79308 
L 173.962582 128.289266 
L 174.021478 145.01134 
L 174.22025 192.097179 
L 174.286508 199.20406 
L 174.352765 195.57361 
L 174.500004 177.26734 
L 174.661967 126.859089 
L 174.706139 128.333271 
L 174.765035 151.194106 
L 174.971169 196.189686 
L 175.007979 199.820136 
L 175.081598 196.2997 
L 175.250923 169.676398 
L 175.42761 126.265015 
L 175.442334 127.453162 
L 175.736812 199.028038 
L 175.839879 190.953037 
L 176.156443 123.668693 
L 176.163805 123.88872 
L 176.2227 144.593288 
L 176.465645 198.367956 
L 176.480368 198.081921 
L 176.48773 198.015913 
L 176.502454 198.565981 
L 176.52454 199.886145 
L 176.553988 195.925653 
L 176.885276 122.238516 
L 176.907361 124.812835 
L 177.253373 200.964278 
L 177.268097 199.842139 
L 177.614108 122.282521 
L 177.687728 139.334636 
L 177.982206 201.998407 
L 178.019016 196.145681 
L 178.350303 123.052617 
L 178.394475 130.181501 
L 178.711039 200.986281 
L 178.740486 198.23594 
L 179.086498 123.866718 
L 179.152756 137.046352 
L 179.447233 201.250314 
L 179.476681 197.773883 
L 179.528215 189.588868 
L 179.616558 190.82102 
L 179.66073 176.013184 
L 179.822693 123.052617 
L 179.852141 126.529048 
L 180.183428 202.152426 
L 180.257048 191.877151 
L 180.293857 191.767138 
L 180.308581 192.141184 
L 180.338029 194.077424 
L 180.367477 189.940911 
L 180.558888 123.206636 
L 180.625145 132.51379 
L 180.912261 200.612235 
L 180.993243 190.556988 
L 181.02269 189.148813 
L 181.0595 192.779263 
L 181.074224 193.571362 
L 181.103672 187.212573 
L 181.28772 123.360655 
L 181.346616 128.377277 
L 181.479131 169.764409 
L 181.641094 201.756377 
L 181.677904 197.245817 
L 181.920848 155.506641 
L 182.016553 126.353026 
L 182.097535 133.921965 
L 182.369927 203.604606 
L 182.384651 202.83451 
L 182.612871 171.150581 
L 182.789558 124.438789 
L 182.826368 131.54567 
L 183.113484 202.724497 
L 183.128207 202.35045 
L 183.194465 190.73301 
L 183.209189 190.028922 
L 183.253361 194.781512 
L 183.268084 195.221566 
L 183.29017 192.581239 
L 183.518391 122.392535 
L 183.59201 140.214745 
L 183.85704 201.118297 
L 183.871764 200.106172 
L 184.203052 130.159498 
L 184.247224 122.282521 
L 184.298757 130.57755 
L 184.585873 201.536349 
L 184.615321 197.773883 
L 184.674217 188.576742 
L 184.733112 195.023542 
L 184.769922 187.520611 
L 184.983418 123.206636 
L 185.034952 132.359771 
L 185.314706 203.098543 
L 185.344154 199.468093 
L 185.719613 122.766581 
L 185.756423 128.443285 
L 186.050901 203.186554 
L 186.102434 193.813392 
L 186.190778 195.133555 
L 186.23495 188.092682 
L 186.352741 151.634161 
L 186.448446 123.558679 
L 186.507342 132.359771 
L 186.706114 183.406101 
L 186.787096 202.570477 
L 186.838629 191.899154 
L 186.860715 188.466729 
L 186.919611 194.803514 
L 186.941697 193.109304 
L 187.044764 170.424491 
L 187.184641 125.604933 
L 187.250898 133.261883 
L 187.52329 203.032535 
L 187.648444 193.197315 
L 187.714701 188.796769 
L 187.839854 150.380005 
L 187.913474 127.409157 
L 187.987093 133.305888 
L 188.252123 202.526472 
L 188.296295 190.887029 
L 188.318381 187.696633 
L 188.406724 190.49098 
L 188.436172 188.840775 
L 188.517153 168.818292 
L 188.679116 127.585179 
L 188.73065 135.704186 
L 188.980956 201.492344 
L 189.010404 194.891525 
L 189.076661 187.322587 
L 189.135557 188.796769 
L 189.165005 188.224698 
L 189.209177 181.579874 
L 189.415311 127.343149 
L 189.466845 136.320262 
L 189.709789 201.954401 
L 189.753961 193.63737 
L 189.805494 189.016797 
L 189.879114 189.984917 
L 189.886476 190.050925 
L 189.908562 189.390843 
L 189.989543 171.040568 
L 190.151506 127.761201 
L 190.217763 141.380889 
L 190.438622 201.074292 
L 190.46807 197.707874 
L 190.549051 189.104808 
L 190.615309 190.226947 
L 190.622671 190.358963 
L 190.644756 188.928786 
L 190.814081 140.082729 
L 190.887701 128.575302 
L 190.931872 135.17612 
L 191.174817 200.744251 
L 191.22635 192.867274 
L 191.307332 188.554739 
L 191.344141 191.107056 
L 191.358865 191.503105 
L 191.380951 189.12681 
L 191.623895 129.169375 
L 191.690153 143.515154 
L 191.911011 199.182057 
L 191.955183 192.559236 
L 192.028803 186.772518 
L 192.072974 190.424971 
L 192.087698 190.843023 
L 192.117146 187.256578 
L 192.36009 129.257386 
L 192.441072 146.683547 
L 192.639844 197.135804 
L 192.676654 193.593364 
L 192.757635 186.068431 
L 192.809169 190.314958 
L 192.860703 185.188322 
L 192.956408 164.923809 
L 193.088923 128.707318 
L 193.140457 134.978095 
L 193.376039 194.649495 
L 193.523278 189.104808 
L 193.538002 189.720884 
L 193.589536 186.552491 
L 193.670517 173.284846 
L 193.825118 129.873462 
L 193.884014 136.122237 
L 194.126958 195.045544 
L 194.17113 190.931034 
L 194.207939 186.486483 
L 194.281559 190.358963 
L 194.369902 184.396224 
L 194.472969 154.098467 
L 194.576037 132.777823 
L 194.620208 138.608546 
L 194.863153 194.407465 
L 194.885238 192.625244 
L 194.936772 185.914412 
L 195.010392 189.434849 
L 195.025115 189.522859 
L 195.047201 188.972791 
L 195.135545 178.433484 
L 195.319593 133.987973 
L 195.356403 140.786816 
L 195.591985 191.70113 
L 195.606709 190.997042 
L 195.665605 184.154194 
L 195.739224 187.476606 
L 195.746586 187.520611 
L 195.768672 187.212573 
L 195.849654 182.547995 
L 196.048426 132.75582 
L 196.107322 145.73743 
L 196.320818 190.00692 
L 196.335542 189.258827 
L 196.394438 183.054057 
L 196.460695 186.46448 
L 196.541677 187.586619 
L 196.497505 186.002423 
L 196.556401 186.860529 
L 196.66683 160.501261 
L 196.784621 133.767945 
L 196.821431 139.708682 
L 197.057013 188.840775 
L 197.071737 187.894658 
L 197.130633 182.437981 
L 197.19689 185.892409 
L 197.218976 185.540366 
L 197.248424 187.300584 
L 197.27051 188.114685 
L 197.307319 184.836278 
L 197.417749 157.134843 
L 197.520816 134.208 
L 197.564988 144.483274 
L 197.793208 188.026674 
L 197.80057 187.938663 
L 197.859465 182.415978 
L 197.955171 184.990297 
L 197.999342 187.608622 
L 198.050876 184.28621 
L 198.117134 169.984437 
L 198.249649 133.811951 
L 198.29382 143.229119 
L 198.529403 189.170816 
L 198.544127 188.15869 
L 198.588298 183.824153 
L 198.676642 184.858281 
L 198.720813 187.630625 
L 198.787071 184.880284 
L 198.868052 164.923809 
L 198.985844 133.96597 
L 199.037377 146.287498 
L 199.258236 189.214821 
L 199.339217 186.310461 
L 199.346579 186.376469 
L 199.368665 185.804398 
L 199.383389 185.49636 
L 199.420198 187.4326 
L 199.46437 188.64275 
L 199.515904 186.992546 
L 199.582161 171.964682 
L 199.714676 132.601801 
L 199.773572 143.493151 
L 200.141669 186.838527 
L 200.222651 189.764889 
L 200.259461 188.598745 
L 200.33308 169.36836 
L 200.450871 134.626052 
L 200.524491 145.693424 
L 200.944122 190.160939 
L 200.980931 191.019045 
L 201.003017 189.082805 
L 201.187066 135.704186 
L 201.319581 148.729801 
L 201.371115 156.38675 
L 201.50363 183.626128 
L 201.547801 182.636005 
L 201.577249 183.428104 
L 201.717126 192.031171 
L 201.746574 187.91666 
L 201.923261 137.332387 
L 202.011604 146.94758 
L 202.122033 162.569517 
L 202.232463 182.547995 
L 202.276634 181.755896 
L 202.283996 181.689888 
L 202.306082 182.34997 
L 202.445959 192.449222 
L 202.475407 188.224698 
L 202.659456 138.410521 
L 202.755161 148.245741 
L 202.791971 147.849692 
L 202.82878 152.800306 
L 202.968657 182.768022 
L 203.020191 181.755896 
L 203.123258 187.234576 
L 203.174792 193.065299 
L 203.218964 186.70651 
L 203.329393 156.562772 
L 203.39565 140.390767 
L 203.461908 146.815563 
L 203.896263 192.581239 
L 203.910987 192.119181 
L 204.043502 167.366112 
L 204.139207 141.86495 
L 204.190741 147.541653 
L 204.632458 190.600993 
L 204.691353 186.684508 
L 204.764973 172.338729 
L 204.875402 139.752688 
L 204.934298 146.551531 
L 204.941659 146.727553 
L 204.971107 145.231367 
L 204.985831 144.681299 
L 205.015279 147.519651 
L 205.295033 180.545746 
L 205.368652 190.072928 
L 205.442272 186.420475 
L 205.493806 175.08907 
L 205.604235 140.830821 
L 205.670492 146.903574 
L 205.714664 145.25337 
L 205.744112 147.43164 
L 206.104847 190.468977 
L 206.119571 190.226947 
L 206.207915 183.494112 
L 206.333068 142.283001 
L 206.428773 146.639542 
L 206.450859 146.177484 
L 206.480307 148.465768 
L 206.83368 189.874903 
L 206.929385 185.782396 
L 207.069262 142.260999 
L 207.201777 146.595536 
L 207.62877 188.840775 
L 207.650856 187.4326 
L 207.753924 153.922445 
L 207.805457 143.229119 
L 207.879077 146.243492 
L 207.908524 144.703302 
L 207.952696 148.39976 
L 208.357603 189.148813 
L 208.379689 188.070679 
L 208.460671 166.904055 
L 208.541652 143.889201 
L 208.615272 145.759432 
L 208.629995 145.275372 
L 208.681529 147.409637 
L 208.740425 161.403372 
L 208.87294 182.305965 
L 208.902387 181.315842 
L 208.931835 180.039683 
L 208.968645 183.472109 
L 209.086436 190.799018 
L 209.115884 189.456851 
L 209.189503 171.458619 
L 209.358828 144.329255 
L 209.395638 144.175236 
L 209.417724 144.659296 
L 209.476619 159.995198 
L 209.609134 181.997926 
L 209.645944 180.325719 
L 209.660668 180.105692 
L 209.682754 181.821905 
L 209.815269 190.204944 
L 209.844717 189.280829 
L 209.888889 183.56012 
L 210.139195 140.962838 
L 210.176004 146.485523 
L 210.337967 180.105692 
L 210.396863 178.653512 
L 210.57355 191.06305 
L 210.610359 188.246701 
L 210.868028 141.62292 
L 210.919561 150.291995 
L 211.0668 180.523744 
L 211.133058 179.775651 
L 211.302383 191.173064 
L 211.33183 190.512982 
L 211.383364 178.191454 
L 211.560051 146.815563 
L 211.59686 144.28525 
L 211.641032 149.059842 
L 211.8987 181.733894 
L 212.060663 190.49098 
L 212.090111 187.806647 
L 212.333055 145.73743 
L 212.355141 146.969583 
L 212.737962 187.278581 
L 212.796858 189.676879 
L 212.818944 187.762641 
L 213.06925 143.581162 
L 213.091336 145.275372 
L 213.481519 186.200447 
L 213.533053 189.874903 
L 213.555139 186.552491 
L 213.798083 142.67905 
L 213.805445 142.83307 
L 213.86434 152.712295 
L 214.158818 184.484235 
L 214.261886 190.09493 
L 214.291333 185.672382 
L 214.526916 143.097102 
L 214.549002 144.549282 
L 214.895013 185.100311 
L 214.924461 184.220202 
L 214.953909 186.750516 
L 214.990718 190.050925 
L 215.03489 183.626128 
L 215.255749 142.899078 
L 215.270473 143.603165 
L 215.388264 166.530008 
L 215.535503 181.601877 
L 215.542865 181.535869 
L 215.550227 181.447858 
L 215.572312 182.239956 
L 215.726913 191.503105 
L 215.748999 189.742887 
L 215.984581 143.383138 
L 216.080287 152.536273 
L 216.315869 183.296087 
L 216.463108 191.437097 
L 216.492556 189.060802 
L 216.720776 143.889201 
L 216.794396 147.321626 
L 217.184579 191.06305 
L 217.206665 191.965162 
L 217.236113 188.070679 
L 217.486419 145.363383 
L 217.515867 146.46352 
L 217.589486 163.141588 
L 217.758811 180.941795 
L 217.935498 191.041048 
L 217.950222 190.226947 
L 218.023841 168.598265 
L 218.193166 144.131231 
L 218.215252 143.911203 
L 218.252061 144.76931 
L 218.310957 158.014952 
L 218.502368 182.151945 
L 218.671692 191.4591 
L 218.568625 181.909915 
L 218.708502 188.004671 
L 218.973532 142.216993 
L 218.988256 143.053097 
L 219.106047 171.876671 
L 219.26801 183.032055 
L 219.30482 182.239956 
L 219.326906 183.538117 
L 219.415249 193.263323 
L 219.452059 187.146565 
L 219.680279 143.141108 
L 219.702365 141.820944 
L 219.739175 145.847443 
L 219.989481 183.648131 
L 220.018929 182.724016 
L 220.026291 182.569997 
L 220.055739 183.934166 
L 220.151444 194.979536 
L 220.188254 187.542614 
L 220.409112 144.505277 
L 220.431198 142.855072 
L 220.47537 147.277621 
L 220.791934 183.714139 
L 220.880277 195.243569 
L 220.924449 186.618499 
L 221.160031 141.688928 
L 221.174755 142.040971 
L 221.255736 155.594652 
L 221.447147 182.019929 
L 221.483957 181.271836 
L 221.520766 182.305965 
L 221.5723 188.40072 
L 221.616472 194.187438 
L 221.660643 185.49636 
L 221.896226 141.446898 
L 221.955121 145.97946 
L 222.234875 181.095814 
L 222.249599 181.007804 
L 222.264323 181.38185 
L 222.352667 193.681375 
L 222.396838 184.572246 
L 222.632421 142.965086 
L 222.647144 142.83307 
L 222.66923 143.515154 
L 222.74285 159.863181 
L 222.93426 181.799902 
L 222.941622 181.887913 
L 222.97107 181.117817 
L 222.978432 180.963798 
L 223.00788 182.636005 
L 223.081499 195.397588 
L 223.133033 185.73839 
L 223.383339 143.251121 
L 223.390701 143.273124 
L 223.427511 146.969583 
L 223.670455 182.239956 
L 223.707265 180.809779 
L 223.714627 180.765774 
L 223.729351 181.271836 
L 223.817694 195.045544 
L 223.869228 185.584371 
L 224.119534 141.820944 
L 224.148982 143.625168 
L 224.546527 194.473473 
L 224.583337 190.24895 
L 224.855729 142.19499 
L 224.914624 149.785932 
L 225.128121 181.887913 
L 225.157569 180.743771 
L 225.187016 179.225583 
L 225.223826 183.956169 
L 225.27536 193.307329 
L 225.341617 186.354467 
L 225.599286 142.238996 
L 225.621371 143.889201 
L 225.864316 180.765774 
L 225.915849 177.487367 
L 225.930573 177.99343 
L 226.026279 192.449222 
L 226.085174 184.352218 
L 226.328118 141.512906 
L 226.33548 141.600917 
L 226.401738 153.988453 
L 226.593149 180.41373 
L 226.615234 179.225583 
L 226.652044 176.431236 
L 226.688854 182.569997 
L 226.769835 192.779263 
L 226.814007 186.420475 
L 227.064313 141.908955 
L 227.079037 142.877075 
L 227.498668 193.043296 
L 227.550202 186.376469 
L 227.793146 143.647171 
L 227.815232 144.76931 
L 228.234863 192.361211 
L 228.286397 185.870407 
L 228.529341 143.515154 
L 228.551427 144.351258 
L 228.97842 191.547111 
L 229.022591 185.056306 
L 229.265536 143.141108 
L 229.287622 143.999214 
L 229.47167 174.406985 
L 229.50848 179.159574 
L 229.596823 177.355351 
L 229.707253 193.109304 
L 229.766148 184.484235 
L 230.00173 142.260999 
L 230.03854 144.967334 
L 230.443447 193.659372 
L 230.465533 192.031171 
L 230.737925 143.361135 
L 230.826269 155.440633 
L 230.988232 177.26734 
L 231.032403 176.123198 
L 231.054489 176.695269 
L 231.13547 188.598745 
L 231.179642 193.021293 
L 231.231176 186.904535 
L 231.481482 143.889201 
L 231.518292 146.573533 
L 231.724426 177.113321 
L 231.77596 176.497244 
L 231.834856 181.007804 
L 231.915837 192.559236 
L 231.967371 187.146565 
L 232.225039 142.92108 
L 232.254487 146.485523 
L 232.467983 177.003307 
L 232.490069 176.893293 
L 232.519517 176.607258 
L 232.541603 177.223334 
L 232.659394 192.295203 
L 232.718289 183.07606 
L 232.953872 142.327007 
L 232.975957 144.219241 
L 233.21154 176.849288 
L 233.263073 176.29922 
L 233.307245 182.019929 
L 233.388227 193.747383 
L 233.43976 187.806647 
L 233.682704 141.86495 
L 233.719514 146.045468 
L 233.947735 176.78328 
L 234.00663 176.651263 
L 234.124421 193.417342 
L 234.183317 185.914412 
L 234.411537 142.83307 
L 234.448347 145.825441 
L 234.860616 193.615367 
L 234.87534 193.285326 
L 234.934236 181.513866 
L 235.147732 142.965086 
L 235.184542 146.375509 
L 235.398038 175.969179 
L 235.47902 175.749151 
L 235.604173 192.933282 
L 235.663069 182.636005 
L 235.883927 142.899078 
L 235.920737 146.551531 
L 236.340368 193.373337 
L 236.355092 192.119181 
L 236.61276 144.373261 
L 236.708465 151.744175 
L 237.069201 194.099427 
L 237.120734 187.036551 
L 237.348955 145.121353 
L 237.437298 151.128098 
L 237.798033 193.241321 
L 237.856929 186.266456 
L 238.077787 144.923329 
L 238.158769 149.12585 
L 238.534228 192.603241 
L 238.600486 185.0123 
L 238.836068 146.001462 
L 238.88024 148.39976 
L 239.034841 171.898674 
L 239.270423 192.207192 
L 239.277785 192.163187 
L 239.314595 189.104808 
L 239.564901 146.573533 
L 239.653244 151.458139 
L 239.741588 166.155962 
L 239.844655 175.155078 
L 239.881465 174.428988 
L 239.903551 175.507121 
L 240.01398 192.119181 
L 240.072875 185.100311 
L 240.301096 146.859569 
L 240.352629 148.839814 
L 240.433611 156.540769 
L 240.742813 191.635121 
L 240.750175 191.745135 
L 240.77226 190.73301 
L 240.941585 162.679531 
L 241.037291 147.211613 
L 241.096186 148.685795 
L 241.191891 160.831302 
L 241.294959 173.350854 
L 241.346492 171.568633 
L 241.383302 175.375105 
L 241.493731 190.97504 
L 241.537903 185.364344 
L 241.788209 148.179733 
L 241.810295 148.707798 
L 241.906 157.178849 
L 242.023792 174.230963 
L 242.082687 171.964682 
L 242.126859 176.78328 
L 242.222564 190.865026 
L 242.274098 184.220202 
L 242.517042 148.267744 
L 242.54649 149.257866 
L 242.649557 159.951192 
L 242.752624 174.494996 
L 242.826244 172.690772 
L 242.921949 187.454603 
L 242.958759 191.503105 
L 243.010293 183.670134 
L 243.245875 148.707798 
L 243.319494 150.291995 
L 243.393114 160.963318 
L 243.687592 191.239072 
L 243.71704 188.268704 
L 244.033603 148.663793 
L 244.055689 149.565905 
L 244.423787 190.072928 
L 244.482682 183.274085 
L 244.762436 149.301872 
L 244.81397 153.460387 
L 245.152619 189.060802 
L 245.189429 186.860529 
L 245.491269 149.257866 
L 245.550165 153.284366 
L 245.896176 188.312709 
L 245.932986 184.902286 
L 246.227464 149.939951 
L 246.278998 152.99833 
L 246.625009 188.840775 
L 246.705991 182.658008 
L 246.801696 172.008688 
L 246.963659 149.917948 
L 246.993107 151.106095 
L 247.103536 167.762161 
L 247.184517 172.250718 
L 247.221327 170.160458 
L 247.243413 169.500377 
L 247.272861 171.964682 
L 247.361204 186.926538 
L 247.434823 182.217954 
L 247.545253 169.61039 
L 247.692492 150.930074 
L 247.721939 151.964202 
L 247.817645 163.889681 
L 247.905988 172.954805 
L 247.95016 170.710527 
L 247.972246 169.676398 
L 248.009055 172.536753 
L 248.090037 186.728513 
L 248.171018 181.86591 
L 248.296171 165.627896 
L 248.421324 150.776055 
L 248.465496 152.184229 
L 248.509668 154.318494 
L 248.642183 172.580759 
L 248.693716 169.192338 
L 248.715802 168.510254 
L 248.74525 171.326603 
L 248.840955 184.660256 
L 248.899851 181.13982 
L 249.017642 169.214341 
L 249.201691 151.942199 
L 249.216415 151.766177 
L 249.238501 153.570401 
L 249.371016 172.162707 
L 249.437273 168.312229 
L 249.451997 167.982188 
L 249.474083 170.226467 
L 249.57715 185.122314 
L 249.636046 181.491864 
L 249.724389 175.749151 
L 249.945248 151.700169 
L 249.95261 151.964202 
L 250.063039 168.906303 
L 250.107211 171.898674 
L 250.158744 168.510254 
L 250.18083 167.366112 
L 250.21764 172.206712 
L 250.305983 185.188322 
L 250.372241 182.239956 
L 250.423774 181.403853 
L 250.512118 166.441997 
L 250.674081 150.622035 
L 250.703528 152.844311 
L 250.843405 172.51475 
L 250.917025 167.652147 
L 250.990644 179.467613 
L 251.042178 184.748267 
L 251.115797 182.614003 
L 251.152607 182.305965 
L 251.211503 173.438865 
L 251.402913 151.260115 
L 251.439723 153.48239 
L 251.778373 183.780147 
L 251.793097 183.538117 
L 251.925612 176.409233 
L 252.131746 151.414134 
L 252.175918 153.746423 
L 252.301071 173.48287 
L 252.404138 169.148333 
L 252.507206 182.371973 
L 252.624997 180.41373 
L 252.875303 151.392131 
L 252.926837 156.276737 
L 253.037266 172.800786 
L 253.118247 167.300104 
L 253.155057 170.512502 
L 253.324382 182.966046 
L 253.331744 182.856033 
L 253.427449 172.228715 
L 253.604136 150.732049 
L 253.626222 151.766177 
L 254.053215 184.154194 
L 254.082662 182.415978 
L 254.274073 156.210729 
L 254.340331 151.150101 
L 254.399226 154.560524 
L 254.774686 184.814276 
L 254.826219 182.085937 
L 254.892477 174.406985 
L 255.069163 151.568153 
L 255.105973 152.294243 
L 255.150145 156.62878 
L 255.24585 171.986685 
L 255.312108 168.114205 
L 255.326832 167.91618 
L 255.348917 169.566385 
L 255.496156 184.484235 
L 255.540328 182.812027 
L 255.606586 178.169452 
L 255.834806 151.194106 
L 255.864254 152.624284 
L 256.210265 183.340093 
L 256.224989 183.714139 
L 256.291247 182.614003 
L 256.34278 178.081441 
L 256.571001 150.027962 
L 256.593087 151.040087 
L 257.02008 183.736142 
L 257.034804 183.494112 
L 257.086337 177.641386 
L 257.314558 150.291995 
L 257.32192 150.512022 
L 257.380815 160.237228 
L 257.454435 170.028442 
L 257.505968 165.407869 
L 257.520692 164.835798 
L 257.55014 168.312229 
L 257.741551 183.868158 
L 257.763636 184.154194 
L 257.785722 183.406101 
L 258.04339 150.402008 
L 258.11701 160.633277 
L 258.190629 170.402488 
L 258.249525 165.363864 
L 258.330506 175.001059 
L 258.499831 184.880284 
L 258.514555 184.418226 
L 258.639708 164.373741 
L 258.779585 150.291995 
L 258.809033 152.580278 
L 258.919462 170.028442 
L 259.02253 168.950308 
L 259.228664 185.078308 
L 259.258112 183.274085 
L 259.51578 150.225986 
L 259.567314 155.880688 
L 259.648295 169.632393 
L 259.758724 168.796289 
L 259.957497 185.232327 
L 259.994307 183.010052 
L 260.244613 150.181981 
L 260.318232 157.926941 
L 260.377128 168.466248 
L 260.458109 165.825921 
L 260.546453 175.08907 
L 260.693692 184.792273 
L 260.715778 183.890161 
L 260.848293 165.275853 
L 260.98817 151.06209 
L 261.032341 153.856437 
L 261.113323 168.268224 
L 261.209028 167.080076 
L 261.429887 184.04418 
L 261.488782 179.709643 
L 261.731726 150.424011 
L 261.775898 155.880688 
L 261.849518 168.312229 
L 261.923137 166.662025 
L 261.996757 171.920677 
L 262.158719 183.516115 
L 262.173443 183.340093 
L 262.254425 175.969179 
L 262.467921 149.60991 
L 262.497369 152.624284 
L 262.585712 167.388115 
L 262.666694 166.816044 
L 262.696142 167.67415 
L 262.894914 183.670134 
L 262.946448 180.89779 
L 263.071601 164.175716 
L 263.196754 149.411885 
L 263.240926 155.154598 
L 263.373441 167.718156 
L 263.402889 167.476126 
L 263.432336 168.774286 
L 263.616385 184.550243 
L 263.667919 182.966046 
L 263.726814 175.529124 
L 263.932949 149.565905 
L 263.955035 151.260115 
L 264.190617 172.250718 
L 264.345218 183.978172 
L 264.38939 183.472109 
L 264.411476 182.746019 
L 264.610248 155.220606 
L 264.669144 148.465768 
L 264.713315 155.638658 
L 264.823745 168.004191 
L 264.867916 167.256098 
L 264.912088 170.468497 
L 265.125584 183.912164 
L 265.132946 183.736142 
L 265.206566 173.526876 
L 265.397977 147.607662 
L 265.44951 155.330619 
L 265.552577 166.772038 
L 265.611473 166.618019 
L 265.854417 184.220202 
L 265.905951 178.785528 
L 266.134171 148.003711 
L 266.185705 155.220606 
L 266.384478 170.226467 
L 266.58325 184.946292 
L 266.605336 183.626128 
L 266.863004 149.389883 
L 266.951348 161.051329 
L 267.120672 170.380486 
L 267.312083 184.77027 
L 267.363617 181.689888 
L 267.599199 149.873943 
L 267.68018 159.665157 
L 267.849505 169.192338 
L 268.048278 184.242205 
L 268.129259 178.543498 
L 268.335394 150.291995 
L 268.409013 158.212977 
L 268.578338 167.960186 
L 268.629872 170.776535 
L 268.784473 184.000175 
L 268.828644 182.283962 
L 268.983245 165.517883 
L 269.071589 151.30412 
L 269.130484 156.540769 
L 269.307171 167.19009 
L 269.343981 168.840295 
L 269.520667 183.912164 
L 269.579563 181.799902 
L 269.770974 154.714543 
L 269.807783 151.656164 
L 269.866679 156.496764 
L 270.036004 166.419995 
L 270.065452 167.454123 
L 270.271586 182.812027 
L 270.32312 180.435733 
L 270.55134 151.590156 
L 270.595512 154.758548 
L 270.772199 165.825921 
L 270.85318 171.458619 
L 271.015143 183.230079 
L 271.066677 178.71952 
L 271.294897 151.832186 
L 271.324345 154.384502 
L 271.464222 165.957937 
L 271.493669 165.847924 
L 271.530479 167.410117 
L 271.751338 184.132191 
L 271.795509 179.797653 
L 272.02373 151.018085 
L 272.060539 154.824557 
L 272.229864 165.649899 
L 272.340294 172.580759 
L 272.480171 184.726265 
L 272.524342 180.89779 
L 272.759925 150.930074 
L 272.804096 156.562772 
L 272.988145 167.168087 
L 273.209003 184.858281 
L 273.260537 180.523744 
L 273.488757 150.203984 
L 273.540291 155.880688 
L 273.768511 169.61039 
L 273.878941 179.247585 
L 273.945198 184.638254 
L 273.996732 179.907667 
L 274.21759 150.886068 
L 274.269124 155.044584 
L 274.497344 168.840295 
L 274.600412 178.015432 
L 274.681393 185.452355 
L 274.725565 180.963798 
L 274.953785 150.776055 
L 275.020043 155.638658 
L 275.410226 185.98042 
L 275.447036 182.636005 
L 275.697342 151.656164 
L 275.763599 156.364748 
L 276.006544 172.294723 
L 276.139059 186.134439 
L 276.205316 180.65576 
L 276.315745 171.392611 
L 276.426175 151.876191 
L 276.507156 157.244857 
L 276.691205 167.212093 
L 276.867892 185.540366 
L 276.963597 179.907667 
L 277.103474 159.973195 
L 277.177093 152.228235 
L 277.228627 155.41863 
L 277.420038 166.486003 
L 277.574639 182.151945 
L 277.604086 183.978172 
L 277.670344 181.029806 
L 277.810221 167.608142 
L 277.92065 153.196355 
L 277.95746 155.924693 
L 278.141509 165.913932 
L 278.2593 173.218838 
L 278.340281 183.120065 
L 278.413901 180.479738 
L 278.56114 164.065703 
L 278.649483 152.932322 
L 278.701017 157.11284 
L 278.943961 170.182461 
L 278.973409 170.710527 
L 279.083838 182.415978 
L 279.172181 178.125446 
L 279.267887 170.33648 
L 279.378316 153.680415 
L 279.429849 156.958821 
L 279.827395 182.636005 
L 279.864204 181.227831 
L 280.114511 154.098467 
L 280.217578 161.271356 
L 280.386903 168.928306 
L 280.41635 168.752284 
L 280.45316 171.634641 
L 280.563589 182.239956 
L 280.607761 179.797653 
L 280.850705 154.164475 
L 280.953773 160.545266 
L 281.123097 168.488251 
L 281.145183 168.466248 
L 281.181993 171.260595 
L 281.292422 182.547995 
L 281.343956 179.44561 
L 281.55009 156.760797 
L 281.5869 154.406505 
L 281.653158 157.244857 
L 282.028617 182.680011 
L 282.139046 178.983553 
L 282.220028 169.500377 
L 282.323095 154.516518 
L 282.389353 156.716791 
L 282.75745 182.503989 
L 282.801622 179.951673 
L 282.956223 169.808415 
L 283.066652 155.000578 
L 283.125547 156.342745 
L 283.346406 167.894177 
L 283.456835 180.435733 
L 283.486283 182.614003 
L 283.559902 180.149697 
L 283.574626 180.083689 
L 283.640884 177.223334 
L 283.824932 154.296491 
L 283.905914 161.689408 
L 284.215116 182.261959 
L 284.340269 179.357599 
L 284.413888 172.778783 
L 284.561127 154.252486 
L 284.605299 158.014952 
L 284.7599 166.133959 
L 284.774624 166.001943 
L 284.781986 166.001943 
L 284.840881 169.038319 
L 284.958672 181.183825 
L 285.098549 178.279465 
L 285.172169 168.268224 
L 285.28996 154.274488 
L 285.32677 157.024829 
L 285.488733 165.627896 
L 285.503457 165.605894 
L 285.547628 167.300104 
L 285.62861 175.111072 
L 285.694867 180.831782 
L 285.768487 180.127694 
L 285.812658 179.20358 
L 285.878916 174.472993 
L 286.018793 154.384502 
L 286.070327 158.058958 
L 286.276461 166.970063 
L 286.327995 169.346357 
L 286.438424 180.369724 
L 286.512043 179.885664 
L 286.607749 175.3311 
L 286.754988 154.604529 
L 286.806521 158.499012 
L 287.211429 179.973675 
L 287.233514 179.665637 
L 287.343944 174.869042 
L 287.483821 155.396628 
L 287.535354 158.829053 
L 287.940261 179.533621 
L 287.991795 178.697517 
L 288.028605 179.621632 
L 288.058053 177.927422 
L 288.212653 156.254734 
L 288.300997 160.193222 
L 288.750076 179.555623 
L 288.757438 179.68764 
L 288.779523 178.785528 
L 288.948848 156.210729 
L 289.059277 161.86543 
L 289.177069 167.366112 
L 289.22124 166.331984 
L 289.228602 166.331984 
L 289.272774 170.006439 
L 289.390565 179.005555 
L 289.434737 177.619383 
L 289.442099 177.597381 
L 289.449461 177.729397 
L 289.48627 178.763525 
L 289.515718 177.26734 
L 289.677681 156.034707 
L 289.780748 160.281233 
L 289.905901 167.300104 
L 289.964797 166.22197 
L 290.023693 172.558756 
L 290.112036 179.159574 
L 290.185655 178.345473 
L 290.215103 179.357599 
L 290.251913 177.311345 
L 290.443324 156.012704 
L 290.509581 159.577146 
L 290.840869 180.105692 
L 290.855593 179.863662 
L 290.943936 180.41373 
L 291.061727 169.588387 
L 291.179518 156.122718 
L 291.22369 157.948944 
L 291.577064 179.313593 
L 291.591788 178.983553 
L 291.621235 178.411482 
L 291.658045 180.083689 
L 291.672769 180.567749 
L 291.716941 178.213457 
L 291.915713 156.100715 
L 292.033504 162.10746 
L 292.305897 178.521495 
L 292.327982 178.125446 
L 292.342706 177.883416 
L 292.379516 179.423607 
L 292.401602 180.369724 
L 292.460497 177.949424 
L 292.512031 173.746903 
L 292.651908 156.848808 
L 292.703442 158.917064 
L 293.130435 180.369724 
L 293.218778 177.971427 
L 293.388103 157.486887 
L 293.49117 161.249353 
L 293.550066 165.913932 
L 293.645771 165.649899 
L 293.712029 171.700649 
L 293.859268 179.775651 
L 293.873991 179.621632 
L 293.977059 175.3311 
L 294.124298 157.618903 
L 294.190555 158.939067 
L 294.242089 162.811547 
L 294.278899 165.25385 
L 294.367242 164.461752 
L 294.426138 168.15821 
L 294.595462 178.785528 
L 294.602824 178.71952 
L 294.654358 178.895542 
L 294.683806 177.883416 
L 294.845769 157.684911 
L 294.96356 161.86543 
L 295.022455 165.363864 
L 295.096075 164.901806 
L 295.125523 165.297855 
L 295.390553 179.951673 
L 295.442086 176.101195 
L 295.648221 159.137091 
L 295.670307 160.149217 
L 295.751288 166.023945 
L 295.83227 165.517883 
L 295.846994 165.341861 
L 295.869079 166.177965 
L 296.104662 178.851536 
L 296.119386 179.159574 
L 296.156195 177.7514 
L 296.377054 158.212977 
L 296.428587 162.195471 
L 296.531655 165.605894 
L 296.561102 164.791793 
L 296.575826 164.373741 
L 296.605274 166.22197 
L 296.804047 178.23546 
L 296.85558 179.621632 
L 296.89239 177.949424 
L 297.105887 157.75092 
L 297.172144 163.009572 
L 297.253126 166.001943 
L 297.297297 164.373741 
L 297.304659 164.263727 
L 297.326745 165.143836 
L 297.577051 178.807531 
L 297.584413 178.873539 
L 297.606499 178.455487 
L 297.694842 169.192338 
L 297.834719 157.024829 
L 297.864167 158.168971 
L 297.981958 165.693905 
L 298.02613 163.889681 
L 298.033492 163.691656 
L 298.06294 165.099831 
L 298.298522 178.807531 
L 298.320608 179.093566 
L 298.36478 177.663389 
L 298.445761 166.838046 
L 298.570914 157.332868 
L 298.600362 159.2031 
L 298.710791 166.111956 
L 298.762325 163.977692 
L 298.769687 163.977692 
L 298.835944 169.61039 
L 299.049441 178.983553 
L 299.064165 178.873539 
L 299.115698 176.981304 
L 299.299747 157.310865 
L 299.380729 162.151465 
L 299.439624 165.73791 
L 299.505882 163.449626 
L 299.778274 178.851536 
L 299.866617 175.617135 
L 300.02858 157.904939 
L 300.080114 159.92919 
L 300.543916 179.335596 
L 300.566002 179.049561 
L 300.624898 171.810663 
L 300.764775 158.411001 
L 300.808946 159.44513 
L 301.287473 179.005555 
L 301.324283 176.915296 
L 301.50097 158.521015 
L 301.552503 159.511138 
L 301.950048 177.817408 
L 302.023668 179.313593 
L 302.045754 178.257462 
L 302.25925 158.499012 
L 302.303422 160.875307 
L 302.354956 165.297855 
L 302.443299 164.219722 
L 302.553728 172.008688 
L 302.752501 179.621632 
L 302.759863 179.511618 
L 302.855568 169.698401 
L 302.995445 157.99295 
L 303.039617 161.051329 
L 303.09115 164.989817 
L 303.179494 164.747787 
L 303.253113 169.016317 
L 303.451886 178.433484 
L 303.481334 179.599629 
L 303.525505 176.29922 
L 303.724278 158.124966 
L 303.761088 160.17122 
L 303.819983 165.077828 
L 303.908327 164.747787 
L 303.95986 166.486003 
L 304.210166 179.137572 
L 304.217528 179.049561 
L 304.320596 170.138456 
L 304.460473 157.398876 
L 304.497282 160.017201 
L 304.629798 164.395744 
L 304.637159 164.373741 
L 304.644521 164.351738 
L 304.659245 164.483754 
L 304.710779 167.608142 
L 304.931637 179.269588 
L 304.938999 179.379602 
L 304.968447 178.323471 
L 305.189306 157.574898 
L 305.285011 164.065703 
L 305.439612 167.454123 
L 305.66047 179.511618 
L 305.667832 179.665637 
L 305.704642 178.323471 
L 305.881329 160.545266 
L 305.9255 157.442881 
L 305.977034 161.645402 
L 306.080101 164.373741 
L 306.109549 163.867678 
L 306.116911 163.757664 
L 306.146359 164.725784 
L 306.404027 179.44561 
L 306.418751 179.115569 
L 306.521818 171.194587 
L 306.654333 157.376873 
L 306.705867 160.677282 
L 306.801572 164.087705 
L 306.845744 163.119585 
L 306.860468 163.295607 
L 306.985621 173.108824 
L 307.13286 179.467613 
L 307.154946 179.049561 
L 307.243289 173.394859 
L 307.383166 157.904939 
L 307.442062 161.13934 
L 307.523043 164.571765 
L 307.581939 163.229599 
L 307.66292 167.740158 
L 307.869055 178.785528 
L 307.92795 177.905419 
L 308.038379 166.794041 
L 308.119361 157.574898 
L 308.185618 161.007323 
L 308.605249 179.027558 
L 308.612611 179.005555 
L 308.642059 179.225583 
L 308.664145 178.71952 
L 308.811384 161.733413 
L 308.855556 158.32299 
L 308.921813 161.117337 
L 309.0985 165.165839 
L 309.275187 176.101195 
L 309.370892 179.467613 
L 309.40034 178.301468 
L 309.584389 158.741042 
L 309.680094 162.965566 
L 309.709542 164.241724 
L 309.805247 164.0437 
L 309.886228 168.818292 
L 310.085001 179.313593 
L 310.099725 179.665637 
L 310.136535 178.059438 
L 310.342669 159.599149 
L 310.408927 163.537637 
L 310.438374 164.703782 
L 310.526718 164.307733 
L 310.600337 166.94806 
L 310.828558 179.093566 
L 310.83592 179.093566 
L 310.887453 175.991181 
L 311.078864 159.181097 
L 311.152483 163.977692 
L 311.174569 164.307733 
L 311.211379 163.55964 
L 311.262913 164.175716 
L 311.284999 164.197719 
L 311.32917 166.331984 
L 311.550029 178.499492 
L 311.564753 178.763525 
L 311.601562 177.069315 
L 311.807697 159.291111 
L 311.881316 164.131711 
L 311.984384 164.681779 
L 311.999107 164.593768 
L 312.021193 164.395744 
L 312.043279 165.165839 
L 312.293585 178.653512 
L 312.308309 178.389479 
L 312.46291 165.759913 
L 312.543892 158.873059 
L 312.595425 162.503509 
L 312.705854 164.549763 
L 312.72794 164.197719 
L 312.750026 163.735662 
L 312.779474 165.143836 
L 313.022418 178.71952 
L 313.037142 178.499492 
L 313.213829 164.131711 
L 313.272724 158.71904 
L 313.33162 162.503509 
L 313.434687 165.143836 
L 313.471497 164.373741 
L 313.478859 164.351738 
L 313.486221 164.483754 
L 313.751251 178.96155 
L 313.839594 176.189206 
L 313.883766 172.932802 
L 314.008919 158.829053 
L 314.067815 162.393495 
L 314.480084 178.191454 
L 314.516894 176.893293 
L 314.656771 168.312229 
L 314.737752 159.027078 
L 314.80401 162.459503 
L 315.142659 173.086821 
L 315.208917 177.883416 
L 315.304622 176.453239 
L 315.385604 169.258347 
L 315.466585 159.093086 
L 315.547566 162.217473 
L 315.93775 177.575378 
L 316.018731 176.453239 
L 316.062903 174.737026 
L 316.173332 160.919312 
L 316.20278 159.269108 
L 316.276399 161.667405 
L 316.673944 177.355351 
L 316.725478 176.981304 
L 316.747564 176.937299 
L 316.799098 175.133075 
L 316.894803 163.119585 
L 316.938975 160.061206 
L 317.012594 161.645402 
L 317.189281 166.111956 
L 317.365968 175.3311 
L 317.410139 176.695269 
L 317.491121 176.563252 
L 317.572102 172.668769 
L 317.704617 159.863181 
L 317.763513 162.503509 
L 317.918114 165.473877 
L 318.087438 174.649015 
L 318.20523 177.685392 
L 318.227315 177.377353 
L 318.323021 171.458619 
L 318.440812 160.435252 
L 318.477622 161.645402 
L 318.632223 164.76979 
L 318.691118 167.828169 
L 318.897253 176.78328 
L 318.934062 177.333348 
L 318.985596 176.607258 
L 319.00032 176.673266 
L 319.007682 176.673266 
L 319.044492 173.548879 
L 319.177007 160.193222 
L 319.213817 161.777419 
L 319.353694 164.065703 
L 319.383141 164.439749 
L 319.655533 177.421359 
L 319.758601 176.079192 
L 319.90584 159.92919 
L 319.979459 163.31761 
L 320.016269 163.185593 
L 320.119336 164.439749 
L 320.377004 177.135323 
L 320.413814 176.519247 
L 320.421176 176.497244 
L 320.4359 176.717271 
L 320.465348 177.487367 
L 320.494795 175.859165 
L 320.634672 160.325239 
L 320.708292 163.427623 
L 320.73774 163.295607 
L 320.774549 163.911683 
L 320.826083 163.361615 
L 320.877617 166.067951 
L 321.105837 176.607258 
L 321.135285 176.211209 
L 321.142647 176.189206 
L 321.150009 176.29922 
L 321.194181 177.773402 
L 321.23099 175.903171 
L 321.370867 160.853304 
L 321.444487 163.339613 
L 321.459211 163.361615 
L 321.554916 163.207596 
L 321.716879 169.918428 
L 321.923013 178.279465 
L 321.930375 178.389479 
L 321.952461 177.487367 
L 322.0997 160.831302 
L 322.210129 163.581643 
L 322.283749 162.855553 
L 322.519331 174.539001 
L 322.659208 178.47749 
L 322.673932 178.169452 
L 322.776999 166.353986 
L 322.850619 160.721288 
L 322.909514 163.097583 
L 322.997858 163.515634 
L 322.961048 163.07558 
L 323.019944 163.163591 
L 323.042029 162.921561 
L 323.071477 164.307733 
L 323.321784 177.047312 
L 323.329145 176.893293 
L 323.351231 176.409233 
L 323.395403 178.015432 
L 323.410127 178.279465 
L 323.439575 176.761277 
L 323.586814 160.809299 
L 323.675157 163.031574 
L 323.719329 163.603645 
L 323.748776 162.987569 
L 323.770862 162.59152 
L 323.807672 164.483754 
L 324.043254 176.409233 
L 324.057978 176.189206 
L 324.080064 175.925173 
L 324.109512 177.003307 
L 324.146322 178.323471 
L 324.183131 175.859165 
L 324.315646 161.183345 
L 324.40399 162.943563 
L 324.4408 163.669653 
L 324.484971 162.34949 
L 324.499695 162.151465 
L 324.529143 163.339613 
L 324.779449 176.497244 
L 324.801535 176.365228 
L 324.823621 176.871291 
L 324.875155 179.269588 
L 324.919326 176.563252 
L 325.073927 161.007323 
L 325.132823 163.097583 
L 325.140185 163.141588 
L 325.169632 162.701533 
L 325.243252 162.635525 
L 325.213804 162.877555 
L 325.257976 162.767542 
L 325.419939 170.732529 
L 325.611349 178.851536 
L 325.626073 179.071563 
L 325.648159 177.927422 
L 325.80276 161.073332 
L 325.898465 162.811547 
L 325.935275 163.119585 
L 325.972085 162.59152 
L 325.994171 162.899558 
L 326.354906 178.433484 
L 326.391716 176.079192 
L 326.531593 160.743291 
L 326.605212 162.261479 
L 326.759813 165.341861 
L 326.988034 176.739274 
L 327.002758 176.585255 
L 327.024843 176.387231 
L 327.046929 177.113321 
L 327.083739 178.96155 
L 327.127911 176.277217 
L 327.289873 160.259231 
L 327.341407 162.415498 
L 327.392941 161.755416 
L 327.525456 166.552011 
L 327.753676 177.575378 
L 327.775762 177.311345 
L 327.790486 177.487367 
L 327.834658 179.049561 
L 327.871467 176.629261 
L 328.018706 160.303236 
L 328.084964 162.063454 
L 328.114412 161.579394 
L 328.158583 162.327487 
L 328.195393 161.997446 
L 328.224841 163.163591 
L 328.475147 177.333348 
L 328.497233 177.201332 
L 328.519319 177.575378 
L 328.570852 179.467613 
L 328.607662 176.629261 
L 328.747539 160.743291 
L 328.821159 161.799422 
L 328.835883 161.689408 
L 328.872692 162.437501 
L 328.887416 162.503509 
L 328.916864 161.931438 
L 328.924226 161.887432 
L 328.93895 162.173468 
L 329.299685 179.401604 
L 329.343857 176.365228 
L 329.498458 160.743291 
L 329.557353 162.283482 
L 329.564715 162.305484 
L 329.579439 162.10746 
L 329.601525 161.821424 
L 329.653059 162.59152 
L 329.667783 162.525512 
L 329.682507 162.59152 
L 329.73404 165.671902 
L 329.991708 177.905419 
L 330.028518 178.785528 
L 330.043242 179.071563 
L 330.080052 177.311345 
L 330.234653 161.205348 
L 330.322996 162.305484 
L 330.418701 162.789544 
L 330.56594 169.544382 
L 330.779437 178.213457 
L 330.786799 178.191454 
L 330.823609 176.101195 
L 330.985571 160.919312 
L 331.051829 162.195471 
L 331.096001 162.063454 
L 331.125448 162.613523 
L 331.294773 169.060322 
L 331.522994 178.103443 
L 331.537717 177.883416 
L 331.603975 170.006439 
L 331.714404 160.875307 
L 331.758576 162.173468 
L 331.869005 163.053577 
L 331.817472 161.953441 
L 331.891091 162.877555 
L 331.905815 163.031574 
L 332.082502 173.284846 
L 332.259188 178.279465 
L 332.273912 177.905419 
L 332.384342 164.681779 
L 332.443237 160.721288 
L 332.524219 161.909435 
L 332.53158 161.821424 
L 332.56839 162.613523 
L 332.789249 171.326603 
L 332.980659 178.521495 
L 332.995383 178.653512 
L 333.017469 177.795405 
L 333.17207 161.161342 
L 333.297223 162.547514 
L 333.348757 162.261479 
L 333.47391 167.696153 
L 333.724216 178.917544 
L 333.768388 176.233211 
L 333.930351 160.809299 
L 333.981884 162.085457 
L 334.026056 161.777419 
L 334.143847 164.109708 
L 334.394153 177.883416 
L 334.416239 177.531372 
L 334.430963 177.399356 
L 334.460411 178.23546 
L 334.475135 178.499492 
L 334.504583 176.959302 
L 334.659183 160.941315 
L 334.740165 161.953441 
L 334.747527 161.931438 
L 334.762251 162.173468 
L 334.997833 171.194587 
L 335.17452 177.223334 
L 335.203968 178.169452 
L 335.240777 176.035187 
L 335.388016 160.743291 
L 335.461636 161.513386 
L 335.483722 161.733413 
L 335.940162 178.169452 
L 335.984334 174.69302 
L 336.146297 160.303236 
L 336.190469 161.86543 
L 336.683719 177.795405 
L 336.698443 177.487367 
L 336.794148 165.97994 
L 336.87513 160.435252 
L 336.948749 161.777419 
L 336.963473 161.843427 
L 337.184332 169.654396 
L 337.419914 177.685392 
L 337.442 176.827285 
L 337.603963 161.051329 
L 337.70703 162.547514 
L 338.148747 178.23546 
L 338.156109 178.191454 
L 338.215004 172.492748 
L 338.362243 160.369244 
L 338.406415 161.711411 
L 338.826046 177.399356 
L 338.899666 176.761277 
L 338.936475 174.561004 
L 339.091076 160.237228 
L 339.149972 161.997446 
L 339.216229 163.515634 
L 339.547517 176.959302 
L 339.665308 174.891045 
L 339.819909 160.281233 
L 339.886167 161.887432 
L 339.9377 163.603645 
L 340.27635 176.365228 
L 340.305798 176.035187 
L 340.320521 175.969179 
L 340.349969 176.607258 
L 340.364693 176.695269 
L 340.386779 175.749151 
L 340.570828 160.017201 
L 340.659171 162.899558 
L 340.784324 165.891929 
L 340.997821 175.903171 
L 341.03463 177.311345 
L 341.10825 176.233211 
L 341.152422 173.900922 
L 341.307023 160.523263 
L 341.365918 162.481506 
L 341.653034 171.876671 
L 341.785549 176.827285 
L 341.844445 175.771154 
L 341.895978 173.064819 
L 342.050579 160.501261 
L 342.094751 161.711411 
L 342.521744 176.849288 
L 342.529106 176.717271 
L 342.661621 169.214341 
L 342.786774 160.149217 
L 342.830946 161.755416 
L 343.088614 170.622516 
L 343.125424 171.832666 
L 343.243215 177.157326 
L 343.294748 175.837162 
L 343.331558 175.617135 
L 343.397816 169.302352 
L 343.522969 160.061206 
L 343.567141 161.931438 
L 343.972048 176.54125 
L 344.045667 176.211209 
L 344.067753 175.881168 
L 344.156096 167.67415 
L 344.251802 160.985321 
L 344.318059 162.811547 
L 344.781862 176.29922 
L 344.818672 175.045064 
L 345.00272 160.809299 
L 345.07634 164.0437 
L 345.098426 163.867678 
L 345.135235 164.505757 
L 345.223579 167.058074 
L 345.400266 173.746903 
L 345.466523 176.607258 
L 345.547505 175.08907 
L 345.576952 173.856917 
L 345.731553 160.721288 
L 345.797811 163.493632 
L 345.87143 164.593768 
L 345.922964 164.571765 
L 346.195356 176.255214 
L 346.232166 175.375105 
L 346.276337 175.507121 
L 346.313147 173.7249 
L 346.460386 161.117337 
L 346.519282 163.141588 
L 346.681245 166.243973 
L 346.857931 172.558756 
L 346.924189 175.903171 
L 347.012532 175.639138 
L 347.064066 171.78866 
L 347.211305 160.963318 
L 347.255477 163.009572 
L 347.395354 164.835798 
L 347.446887 168.180213 
L 347.616212 173.504873 
L 347.675108 176.101195 
L 347.748727 174.516999 
L 347.763451 174.428988 
L 347.822346 170.09445 
L 347.940138 161.447378 
L 347.991671 163.911683 
L 348.087377 165.077828 
L 348.124186 164.703782 
L 348.153634 165.935935 
L 348.374493 174.869042 
L 348.396578 175.705146 
L 348.448112 174.472993 
L 348.47756 174.649015 
L 348.492284 174.583007 
L 348.551179 170.622516 
L 348.668971 161.645402 
L 348.735228 164.0437 
L 348.786762 164.879804 
L 349.125411 175.221086 
L 348.853019 164.505757 
L 349.243202 174.252966 
L 349.427251 162.393495 
L 349.530318 164.703782 
L 349.53768 164.681779 
L 349.559766 164.945812 
L 349.655472 167.718156 
L 349.83952 173.7249 
L 349.891054 175.683143 
L 349.949949 173.96693 
L 349.986759 173.900922 
L 350.038293 170.446494 
L 350.156084 162.019449 
L 350.207618 164.219722 
L 350.303323 164.681779 
L 350.325409 164.571765 
L 350.340133 164.681779 
L 350.399028 168.114205 
L 350.612525 175.08907 
L 350.627249 174.979056 
L 350.818659 166.904055 
L 350.884917 162.481506 
L 350.958536 164.395744 
L 351.002708 164.835798 
L 351.061604 164.681779 
L 351.120499 167.476126 
L 351.31191 174.054941 
L 351.34872 175.265091 
L 351.429701 174.649015 
L 351.437063 174.69302 
L 351.459149 174.296971 
L 351.643198 162.459503 
L 351.797798 164.747787 
L 351.834608 164.835798 
L 352.107 175.683143 
L 352.224791 173.658892 
L 352.37203 163.251602 
L 352.48246 164.615771 
L 352.578165 165.583891 
L 352.835833 174.825037 
L 352.865281 174.472993 
L 353.005158 169.522379 
L 353.108225 163.471629 
L 353.159759 164.505757 
L 353.513132 172.712775 
L 353.586752 174.803034 
L 353.630923 173.196835 
L 353.682457 174.032939 
L 353.733991 170.160458 
L 353.851782 163.361615 
L 353.895954 164.637774 
L 354.006383 165.363864 
L 354.028469 165.297855 
L 354.065278 166.508005 
L 354.308223 175.265091 
L 354.322947 175.067067 
L 354.580615 163.669653 
L 354.698406 164.791793 
L 354.757302 164.76979 
L 354.94135 169.918428 
L 355.037056 174.671018 
L 355.140123 174.516999 
L 355.162209 173.900922 
L 355.309448 163.691656 
L 355.412515 164.52776 
L 355.486134 164.417746 
L 355.736441 173.350854 
L 355.817422 173.108824 
L 355.861594 174.516999 
L 355.876318 174.649015 
L 355.905765 173.460868 
L 356.07509 163.80167 
L 356.126624 165.341861 
L 356.237053 165.649899 
L 356.178157 164.681779 
L 356.251777 165.627896 
L 356.288587 166.750035 
L 356.524169 174.737026 
L 356.656684 173.064819 
L 356.803923 163.515634 
L 356.848095 165.01182 
L 356.958524 165.671902 
L 356.899628 164.681779 
L 356.98061 165.49588 
L 357.002696 165.847924 
L 357.253002 174.36298 
L 357.289812 173.328851 
L 357.304536 173.174832 
L 357.341345 174.12095 
L 357.356069 174.428988 
L 357.392879 172.778783 
L 357.532756 163.823673 
L 357.576928 165.099831 
L 357.679995 165.517883 
L 357.621099 164.76979 
L 357.702081 165.231847 
L 357.709443 165.165839 
L 357.73889 165.825921 
L 357.981835 174.12095 
L 357.996559 173.856917 
L 358.033368 172.888797 
L 358.084902 174.384982 
L 358.092264 174.384982 
L 358.136436 171.700649 
L 358.283675 163.405621 
L 358.320484 164.351738 
L 358.438276 165.583891 
L 358.460361 165.407869 
L 358.475085 165.473877 
L 358.637048 170.842543 
L 358.740115 174.737026 
L 358.776925 173.504873 
L 358.835821 174.472993 
L 358.953612 166.662025 
L 359.019869 163.603645 
L 359.100851 164.28573 
L 359.108213 164.241724 
L 359.130299 164.703782 
L 359.461586 174.913048 
L 359.505758 173.548879 
L 359.51312 173.460868 
L 359.542568 174.164955 
L 359.564654 174.759029 
L 359.601463 173.042816 
L 359.748702 163.493632 
L 359.800236 164.153714 
L 359.829684 163.867678 
L 359.866493 164.747787 
L 360.300848 174.957053 
L 359.925389 164.483754 
L 360.330296 173.526876 
L 360.514345 163.31761 
L 360.551155 164.28573 
L 360.956062 174.406985 
L 361.007595 173.636889 
L 361.044405 174.252966 
L 361.081215 173.196835 
L 361.235816 163.691656 
L 361.324159 164.28573 
L 361.456674 166.904055 
L 361.677533 174.428988 
L 361.684895 174.406985 
L 361.7806 174.516999 
L 361.846857 170.732529 
L 361.964649 163.911683 
L 362.030906 164.131711 
L 362.038268 164.087705 
L 362.067716 164.549763 
L 362.516795 174.715023 
L 362.546243 173.702898 
L 362.730291 163.449626 
L 362.789187 164.76979 
L 362.825997 164.241724 
L 362.870168 165.187842 
L 362.929064 165.97994 
L 363.17937 174.803034 
L 363.201456 174.340977 
L 363.385505 166.530008 
L 363.459124 163.361615 
L 363.540106 164.131711 
L 363.554829 164.087705 
L 363.576915 164.329735 
L 363.790412 170.006439 
L 363.922927 174.715023 
L 363.959737 174.296971 
L 364.055442 172.03069 
L 364.202681 163.405621 
L 364.246853 164.241724 
L 364.298386 163.977692 
L 364.408815 165.649899 
L 364.659122 175.045064 
L 364.666484 175.001059 
L 364.821084 168.972311 
L 364.938876 163.229599 
L 364.990409 164.197719 
L 365.027219 163.603645 
L 365.064029 164.637774 
L 365.358507 174.230963 
L 365.387954 175.023061 
L 365.432126 173.790909 
L 365.476298 174.69302 
L 365.48366 174.737026 
L 365.498384 174.340977 
L 365.667708 163.779667 
L 365.778138 164.571765 
L 366.109425 174.979056 
L 366.175683 173.988933 
L 366.212493 174.84704 
L 366.24194 173.416862 
L 366.462799 163.493632 
L 366.477523 163.449626 
L 366.492247 163.845675 
L 366.933964 174.803034 
L 366.941325 174.869042 
L 366.963411 174.12095 
L 367.162184 163.097583 
L 367.22108 163.933686 
L 367.235803 163.867678 
L 367.265251 164.307733 
L 367.596539 174.913048 
L 367.699606 174.296971 
L 367.780588 168.730281 
L 367.891017 163.515634 
L 367.971998 163.80167 
L 368.119237 167.564136 
L 368.325372 174.913048 
L 368.35482 174.186958 
L 368.421077 174.45099 
L 368.516782 168.730281 
L 368.693469 163.405621 
L 368.708193 163.625648 
L 368.951137 170.842543 
L 369.054205 175.001059 
L 369.135186 174.69302 
L 369.157272 174.891045 
L 369.18672 173.87892 
L 369.370768 162.767542 
L 369.459112 163.31761 
L 369.694694 170.248469 
L 369.819847 175.067067 
L 369.849295 174.142952 
L 370.099601 162.789544 
L 370.224754 164.505757 
L 370.276288 164.131711 
L 370.438251 171.106576 
L 370.541318 175.133075 
L 370.592852 174.12095 
L 370.622299 174.494996 
L 370.644385 174.781031 
L 370.673833 173.7249 
L 370.902054 163.119585 
L 370.909415 163.163591 
L 371.270151 175.001059 
L 371.402666 173.900922 
L 371.594077 162.83355 
L 371.660334 163.493632 
L 371.697144 164.28573 
L 372.028432 175.309097 
L 371.756039 164.087705 
L 372.146223 173.768906 
L 372.322909 163.141588 
L 372.418615 164.087705 
L 372.749902 175.023061 
L 372.484872 163.999694 
L 372.77935 174.20896 
L 373.103276 162.83355 
L 372.845608 174.406985 
L 373.162172 164.417746 
L 373.169534 164.483754 
L 373.198981 163.955689 
L 373.213705 163.757664 
L 373.250515 164.989817 
L 373.478735 175.221086 
L 373.500821 174.737026 
L 373.810023 162.415498 
L 373.581803 174.891045 
L 373.971986 163.933686 
L 374.008796 165.49588 
L 374.237016 175.243089 
L 374.25174 175.353102 
L 374.281188 174.671018 
L 374.494684 164.989817 
L 374.546218 162.437501 
L 374.619837 163.31761 
L 374.737628 164.637774 
L 374.995297 175.001059 
L 375.024744 174.649015 
L 375.201431 167.124082 
L 375.282413 162.217473 
L 375.378118 163.273604 
L 375.392842 163.339613 
L 375.495909 165.957937 
L 375.68732 174.164955 
L 375.731491 175.199083 
L 375.775663 173.746903 
L 375.783025 173.658892 
L 375.819835 174.45099 
L 375.827197 174.539001 
L 375.849283 173.746903 
L 376.018607 162.415498 
L 376.099589 163.273604 
L 376.121675 163.603645 
L 376.460324 175.353102 
L 376.570753 174.186958 
L 376.74744 162.547514 
L 376.872593 164.175716 
L 376.879955 164.197719 
L 376.894679 163.977692 
L 376.916765 163.713659 
L 376.946213 165.099831 
L 377.174433 175.507121 
L 377.181795 175.551127 
L 377.196519 175.155078 
L 377.542531 162.679531 
L 377.57934 163.603645 
L 377.638236 163.31761 
L 377.873818 174.274969 
L 377.910628 175.705146 
L 377.962162 174.252966 
L 377.991609 174.84704 
L 378.013695 175.243089 
L 378.050505 173.570881 
L 378.234554 161.887432 
L 378.300811 162.767542 
L 378.322897 162.855553 
L 378.462774 168.070199 
L 378.668909 175.859165 
L 378.683633 175.57313 
L 378.963387 161.997446 
L 379.110626 163.097583 
L 379.117988 163.07558 
L 379.132711 163.295607 
L 379.39038 175.903171 
L 379.522895 173.856917 
L 379.751115 162.525512 
L 379.817373 163.405621 
L 379.84682 163.251602 
L 379.861544 163.471629 
L 380.023507 171.612638 
L 380.119212 175.947176 
L 380.192832 174.69302 
L 380.22228 175.023061 
L 380.251727 174.340977 
L 380.4505 161.777419 
L 380.568291 163.449626 
L 380.686082 168.8843 
L 380.892217 175.661141 
L 380.906941 175.309097 
L 381.179333 162.283482 
L 381.2824 162.987569 
L 381.503259 170.710527 
L 381.613688 175.617135 
L 381.65786 174.516999 
L 381.716755 174.583007 
L 381.775651 171.810663 
L 381.974423 162.569517 
L 381.996509 162.855553 
L 382.239453 171.216589 
L 382.342521 175.529124 
L 382.401416 174.318974 
L 382.445588 174.781031 
L 382.467674 174.384982 
L 382.607551 164.879804 
L 382.659084 162.151465 
L 382.740066 162.811547 
L 382.747428 162.789544 
L 382.762152 162.965566 
L 382.894667 168.598265 
L 383.100801 176.035187 
L 383.115525 175.661141 
L 383.387917 162.371492 
L 383.446813 162.921561 
L 383.461537 162.745539 
L 383.498347 163.427623 
L 383.54988 163.207596 
L 383.616138 167.476126 
L 383.822272 175.837162 
L 383.836996 175.551127 
L 384.183008 162.723536 
L 384.205094 162.965566 
L 384.278713 162.943563 
L 384.521657 174.36298 
L 384.551105 175.639138 
L 384.610001 173.548879 
L 384.617363 173.570881 
L 384.661534 174.45099 
L 384.698344 173.372857 
L 384.875031 162.525512 
L 385.000184 163.625648 
L 385.073803 165.473877 
L 385.309386 175.243089 
L 385.463987 172.558756 
L 385.611226 162.701533 
L 385.684845 163.427623 
L 385.706931 163.383618 
L 385.736379 163.581643 
L 385.795274 164.923809 
L 386.030857 174.957053 
L 386.08239 174.010936 
L 386.244353 168.378237 
L 386.354782 162.261479 
L 386.413678 163.427623 
L 386.45785 163.053577 
L 386.479936 163.515634 
L 386.72288 174.054941 
L 386.796499 174.781031 
L 386.825947 173.900922 
L 387.083615 162.569517 
L 386.906929 174.054941 
L 387.120425 163.515634 
L 387.525332 174.979056 
L 387.179321 163.185593 
L 387.650485 173.87892 
L 387.812448 163.009572 
L 387.959687 164.219722 
L 387.981773 164.087705 
L 388.003859 164.615771 
L 388.246803 175.265091 
L 388.283613 173.746903 
L 388.541281 163.185593 
L 388.364594 174.098947 
L 388.578091 163.625648 
L 388.622262 163.163591 
L 388.65171 163.625648 
L 388.865207 170.314477 
L 388.975636 175.309097 
L 389.012446 173.746903 
L 389.299562 162.855553 
L 389.093427 174.186958 
L 389.306924 162.899558 
L 389.535144 168.730281 
L 389.726555 174.69302 
L 389.741278 174.539001 
L 390.028394 163.273604 
L 390.16091 164.241724 
L 390.175633 164.175716 
L 390.190357 164.021697 
L 390.219805 164.945812 
L 390.455387 174.561004 
L 390.462749 174.516999 
L 390.72778 164.461752 
L 390.838209 163.537637 
L 390.845571 163.647651 
L 391.088515 170.842543 
L 391.18422 174.60501 
L 391.228392 172.866794 
L 391.250478 172.27272 
L 391.309373 173.768906 
L 391.316735 173.7249 
L 391.360907 171.634641 
L 391.52287 163.229599 
L 391.574404 164.0437 
L 391.603851 163.625648 
L 391.640661 164.483754 
L 391.876243 173.790909 
L 391.898329 174.164955 
L 391.971949 173.592884 
L 392.244341 163.361615 
L 392.060292 173.702898 
L 392.295874 163.911683 
L 392.325322 163.55964 
L 392.362132 164.197719 
L 392.590352 172.206712 
L 392.671334 174.076944 
L 392.708144 172.932802 
L 392.796487 173.504873 
L 393.032069 163.80167 
L 393.054155 163.669653 
L 393.083603 164.219722 
L 393.208756 168.224218 
L 393.400167 174.296971 
L 393.414891 173.96693 
L 393.466424 172.140704 
L 393.52532 173.834914 
L 393.56213 172.558756 
L 393.731454 163.295607 
L 393.782988 164.065703 
L 393.819798 163.603645 
L 393.849245 164.373741 
L 394.165809 173.7249 
L 394.202619 172.690772 
L 394.224705 172.338729 
L 394.268877 174.032939 
L 394.276238 174.142952 
L 394.305686 173.086821 
L 394.526545 163.757664 
L 394.541269 163.581643 
L 394.58544 164.659776 
L 394.62225 164.483754 
L 394.666422 166.353986 
L 394.872556 173.658892 
L 394.88728 173.812911 
L 394.916728 172.954805 
L 394.946176 172.118701 
L 394.997709 173.900922 
L 395.012433 174.032939 
L 395.034519 173.130827 
L 395.262739 163.427623 
L 395.277463 163.581643 
L 395.741266 174.20896 
L 395.75599 173.812911 
L 395.954763 163.647651 
L 396.050468 164.065703 
L 396.477461 173.592884 
L 396.484823 173.614887 
L 396.499547 173.438865 
L 396.580528 168.356235 
L 396.698319 163.80167 
L 396.764577 164.087705 
L 396.860282 165.803918 
L 397.081141 173.328851 
L 397.198932 172.646767 
L 397.235742 172.954805 
L 397.257827 172.360731 
L 397.434514 163.427623 
L 397.500772 164.087705 
L 397.515496 164.021697 
L 397.537581 164.263727 
L 397.802612 173.328851 
L 397.898317 172.646767 
L 397.971936 173.284846 
L 398.133899 164.395744 
L 398.163347 163.691656 
L 398.25169 163.977692 
L 398.487273 171.370608 
L 398.487273 171.370608 
" clip-path="url(#pbe16759688)" style="fill: none; stroke: #1f77b4; stroke-width: 1.5; stroke-linecap: square"/>
   </g>
   <g id="patch_3">
    <path d="M 57.6 307.584 
L 57.6 41.472 
" style="fill: none; stroke: #000000; stroke-width: 0.8; stroke-linejoin: miter; stroke-linecap: square"/>
   </g>
   <g id="patch_4">
    <path d="M 414.72 307.584 
L 414.72 41.472 
" style="fill: none; stroke: #000000; stroke-width: 0.8; stroke-linejoin: miter; stroke-linecap: square"/>
   </g>
   <g id="patch_5">
    <path d="M 57.6 307.584 
L 414.72 307.584 
" style="fill: none; stroke: #000000; stroke-width: 0.8; stroke-linejoin: miter; stroke-linecap: square"/>
   </g>
   <g id="patch_6">
    <path d="M 57.6 41.472 
L 414.72 41.472 
" style="fill: none; stroke: #000000; stroke-width: 0.8; stroke-linejoin: miter; stroke-linecap: square"/>
   </g>
   <g id="text_15">
    <text style="font: 12px 'IPAexGothic'; text-anchor: middle" x="236.16" y="35.472" transform="rotate(-0 236.16 35.472)">"001_A4.wav"の波形グラフ</text>
   </g>
  </g>
 </g>
 <defs>
  <clipPath id="pbe16759688">
   <rect x="57.6" y="41.472" width="357.12" height="266.112"/>
  </clipPath>
 </defs>
</svg>
