<?xml version="1.0" encoding="utf-8" standalone="no"?>
<!DOCTYPE svg PUBLIC "-//W3C//DTD SVG 1.1//EN"
  "http://www.w3.org/Graphics/SVG/1.1/DTD/svg11.dtd">
<svg xmlns:xlink="http://www.w3.org/1999/xlink" width="460.8pt" height="345.6pt" viewBox="0 0 460.8 345.6" xmlns="http://www.w3.org/2000/svg" version="1.1">
 <metadata>
  <rdf:RDF xmlns:dc="http://purl.org/dc/elements/1.1/" xmlns:cc="http://creativecommons.org/ns#" xmlns:rdf="http://www.w3.org/1999/02/22-rdf-syntax-ns#">
   <cc:Work>
    <dc:type rdf:resource="http://purl.org/dc/dcmitype/StillImage"/>
    <dc:date>2022-11-28T12:40:47.746427</dc:date>
    <dc:format>image/svg+xml</dc:format>
    <dc:creator>
     <cc:Agent>
      <dc:title>Matplotlib v3.6.2, https://matplotlib.org/</dc:title>
     </cc:Agent>
    </dc:creator>
   </cc:Work>
  </rdf:RDF>
 </metadata>
 <defs>
  <style type="text/css">*{stroke-linejoin: round; stroke-linecap: butt}</style>
 </defs>
 <g id="figure_1">
  <g id="patch_1">
   <path d="M 0 345.6 
L 460.8 345.6 
L 460.8 0 
L 0 0 
z
" style="fill: #ffffff"/>
  </g>
  <g id="axes_1">
   <g id="patch_2">
    <path d="M 57.6 307.584 
L 414.72 307.584 
L 414.72 41.472 
L 57.6 41.472 
z
" style="fill: #ffffff"/>
   </g>
   <g id="matplotlib.axis_1">
    <g id="xtick_1">
     <g id="line2d_1">
      <defs>
       <path id="m189e9a72ce" d="M 0 0 
L 0 3.5 
" style="stroke: #000000; stroke-width: 0.8"/>
      </defs>
      <g>
       <use xlink:href="#m189e9a72ce" x="73.832727" y="307.584" style="stroke: #000000; stroke-width: 0.8"/>
      </g>
     </g>
     <g id="text_1">
      <text style="font: 10px 'IPAexGothic'; text-anchor: middle" x="73.832727" y="322.074625" transform="rotate(-0 73.832727 322.074625)">0.0</text>
     </g>
    </g>
    <g id="xtick_2">
     <g id="line2d_2">
      <g>
       <use xlink:href="#m189e9a72ce" x="138.765109" y="307.584" style="stroke: #000000; stroke-width: 0.8"/>
      </g>
     </g>
     <g id="text_2">
      <text style="font: 10px 'IPAexGothic'; text-anchor: middle" x="138.765109" y="322.074625" transform="rotate(-0 138.765109 322.074625)">0.2</text>
     </g>
    </g>
    <g id="xtick_3">
     <g id="line2d_3">
      <g>
       <use xlink:href="#m189e9a72ce" x="203.69749" y="307.584" style="stroke: #000000; stroke-width: 0.8"/>
      </g>
     </g>
     <g id="text_3">
      <text style="font: 10px 'IPAexGothic'; text-anchor: middle" x="203.69749" y="322.074625" transform="rotate(-0 203.69749 322.074625)">0.4</text>
     </g>
    </g>
    <g id="xtick_4">
     <g id="line2d_4">
      <g>
       <use xlink:href="#m189e9a72ce" x="268.629872" y="307.584" style="stroke: #000000; stroke-width: 0.8"/>
      </g>
     </g>
     <g id="text_4">
      <text style="font: 10px 'IPAexGothic'; text-anchor: middle" x="268.629872" y="322.074625" transform="rotate(-0 268.629872 322.074625)">0.6</text>
     </g>
    </g>
    <g id="xtick_5">
     <g id="line2d_5">
      <g>
       <use xlink:href="#m189e9a72ce" x="333.562253" y="307.584" style="stroke: #000000; stroke-width: 0.8"/>
      </g>
     </g>
     <g id="text_5">
      <text style="font: 10px 'IPAexGothic'; text-anchor: middle" x="333.562253" y="322.074625" transform="rotate(-0 333.562253 322.074625)">0.8</text>
     </g>
    </g>
    <g id="xtick_6">
     <g id="line2d_6">
      <g>
       <use xlink:href="#m189e9a72ce" x="398.494635" y="307.584" style="stroke: #000000; stroke-width: 0.8"/>
      </g>
     </g>
     <g id="text_6">
      <text style="font: 10px 'IPAexGothic'; text-anchor: middle" x="398.494635" y="322.074625" transform="rotate(-0 398.494635 322.074625)">1.0</text>
     </g>
    </g>
    <g id="text_7">
     <text style="font: 10px 'IPAexGothic'; text-anchor: middle" x="236.16" y="335.924625" transform="rotate(-0 236.16 335.924625)">時間[s]</text>
    </g>
   </g>
   <g id="matplotlib.axis_2">
    <g id="ytick_1">
     <g id="line2d_7">
      <defs>
       <path id="m91d097641a" d="M 0 0 
L -3.5 0 
" style="stroke: #000000; stroke-width: 0.8"/>
      </defs>
      <g>
       <use xlink:href="#m91d097641a" x="57.6" y="274.179978" style="stroke: #000000; stroke-width: 0.8"/>
      </g>
     </g>
     <g id="text_8">
      <text style="font: 10px 'IPAexGothic'; text-anchor: end" x="50.6" y="277.92529" transform="rotate(-0 50.6 277.92529)">−4000</text>
     </g>
    </g>
    <g id="ytick_2">
     <g id="line2d_8">
      <g>
       <use xlink:href="#m91d097641a" x="57.6" y="219.403571" style="stroke: #000000; stroke-width: 0.8"/>
      </g>
     </g>
     <g id="text_9">
      <text style="font: 10px 'IPAexGothic'; text-anchor: end" x="50.6" y="223.148884" transform="rotate(-0 50.6 223.148884)">−2000</text>
     </g>
    </g>
    <g id="ytick_3">
     <g id="line2d_9">
      <g>
       <use xlink:href="#m91d097641a" x="57.6" y="164.627164" style="stroke: #000000; stroke-width: 0.8"/>
      </g>
     </g>
     <g id="text_10">
      <text style="font: 10px 'IPAexGothic'; text-anchor: end" x="50.6" y="168.372477" transform="rotate(-0 50.6 168.372477)">0</text>
     </g>
    </g>
    <g id="ytick_4">
     <g id="line2d_10">
      <g>
       <use xlink:href="#m91d097641a" x="57.6" y="109.850758" style="stroke: #000000; stroke-width: 0.8"/>
      </g>
     </g>
     <g id="text_11">
      <text style="font: 10px 'IPAexGothic'; text-anchor: end" x="50.6" y="113.59607" transform="rotate(-0 50.6 113.59607)">2000</text>
     </g>
    </g>
    <g id="ytick_5">
     <g id="line2d_11">
      <g>
       <use xlink:href="#m91d097641a" x="57.6" y="55.074351" style="stroke: #000000; stroke-width: 0.8"/>
      </g>
     </g>
     <g id="text_12">
      <text style="font: 10px 'IPAexGothic'; text-anchor: end" x="50.6" y="58.819664" transform="rotate(-0 50.6 58.819664)">4000</text>
     </g>
    </g>
    <g id="text_13">
     <text style="font: 10px 'IPAexGothic'; text-anchor: middle" x="12.723438" y="174.528" transform="rotate(-90 12.723438 174.528)">振幅</text>
    </g>
   </g>
   <g id="line2d_12">
    <path d="M 73.832727 164.654553 
L 73.869537 164.462835 
L 73.862175 164.818882 
L 73.935795 164.681941 
L 74.244996 164.599776 
L 74.252358 164.818882 
L 74.355426 164.681941 
L 74.384873 164.627164 
L 74.487941 165.448811 
L 74.554198 172.953178 
L 74.767695 295.488 
L 74.775057 295.405835 
L 74.981191 178.786866 
L 75.113706 143.182201 
L 75.12843 146.770056 
L 75.194688 179.471571 
L 75.246221 155.424728 
L 75.275669 142.086673 
L 75.341927 163.422084 
L 75.415546 195.767552 
L 75.459718 177.417455 
L 75.629043 106.098574 
L 75.65849 93.143954 
L 75.702662 127.406596 
L 75.886711 200.724816 
L 75.901435 194.2612 
L 76.092845 137.321126 
L 76.159103 179.060748 
L 76.22536 145.921022 
L 76.232722 145.428034 
L 76.247446 151.562992 
L 76.328428 216.199151 
L 76.387323 183.990624 
L 76.446219 170.597793 
L 76.519838 108.125301 
L 76.586096 142.251002 
L 76.718611 201.957286 
L 76.770145 231.290051 
L 76.814316 197.93122 
L 76.887936 118.039831 
L 76.946831 165.941798 
L 76.968917 178.759477 
L 77.020451 147.61909 
L 77.219223 57.895336 
L 77.241309 63.564694 
L 77.712474 284.258837 
L 77.764008 251.146499 
L 78.051123 137.211573 
L 78.087933 147.975137 
L 78.146829 170.981228 
L 78.191 145.537587 
L 78.213086 136.526868 
L 78.271982 158.218325 
L 78.338239 196.342704 
L 78.397135 178.540372 
L 78.448669 126.119351 
L 78.537012 139.457406 
L 78.595908 103.168036 
L 78.647441 134.554917 
L 78.809404 191.440216 
L 78.838852 185.113541 
L 79.022901 145.236317 
L 79.052348 161.696627 
L 79.089158 185.935187 
L 79.155416 156.931079 
L 79.162778 156.46548 
L 79.177502 162.10745 
L 79.273207 212.55652 
L 79.32474 184.428836 
L 79.449894 119.244912 
L 79.530875 149.399323 
L 79.604495 167.995914 
L 79.7002 222.16978 
L 79.751733 190.509017 
L 79.817991 117.409902 
L 79.884249 156.082045 
L 79.898972 160.436769 
L 79.950506 135.924327 
L 80.149279 53.568 
L 80.325965 125.900245 
L 80.583634 252.488521 
L 80.642529 282.23211 
L 80.694063 254.980847 
L 80.900197 139.2383 
L 80.944369 146.057963 
L 80.995903 135.705222 
L 81.02535 148.194242 
L 81.069522 167.201656 
L 81.128418 147.290432 
L 81.143142 143.702577 
L 81.202037 161.313192 
L 81.297743 191.631933 
L 81.334552 174.130871 
L 81.518601 112.26092 
L 81.525963 111.548826 
L 81.555411 118.8067 
L 81.761545 186.893774 
L 81.798355 174.514306 
L 81.952956 150.905675 
L 81.975042 153.452778 
L 82.041299 181.142251 
L 82.107557 163.915071 
L 82.144367 182.237779 
L 82.1959 207.873138 
L 82.254796 183.661966 
L 82.394673 126.749279 
L 82.446206 146.386621 
L 82.578722 187.633255 
L 82.630255 212.994732 
L 82.681789 193.083508 
L 82.755408 129.132053 
L 82.821666 153.836212 
L 82.843752 158.081384 
L 82.873199 143.894295 
L 83.071972 57.758395 
L 83.10142 59.922063 
L 83.211849 91.035062 
L 83.565223 276.343646 
L 83.572584 277.274845 
L 83.609394 268.017632 
L 83.852339 143.182201 
L 83.867062 144.88027 
L 84.021663 166.023963 
L 83.918596 137.951054 
L 84.036387 162.326555 
L 84.087921 147.208267 
L 84.139454 161.724015 
L 84.220436 190.372076 
L 84.27197 172.350638 
L 84.330865 132.555578 
L 84.419209 133.459389 
L 84.470742 112.781296 
L 84.522276 137.786725 
L 84.684239 186.893774 
L 84.72841 178.403431 
L 84.897735 149.947088 
L 84.905097 151.919038 
L 84.971355 182.621214 
L 85.03025 162.737378 
L 85.037612 162.244391 
L 85.052336 166.955162 
L 85.140679 204.860435 
L 85.192213 183.689354 
L 85.280556 149.15283 
L 85.324728 126.475397 
L 85.383624 148.057301 
L 85.575034 213.487719 
L 85.619206 192.809626 
L 85.692826 128.091301 
L 85.766445 157.670561 
L 85.773807 158.410042 
L 85.795893 151.919038 
L 86.024113 58.771759 
L 86.090371 72.16459 
L 86.178714 113.192119 
L 86.42902 251.749039 
L 86.443744 250.461794 
L 86.473192 261.197969 
L 86.517364 278.178655 
L 86.561535 256.596751 
L 86.870737 138.47143 
L 86.878099 139.621735 
L 86.944357 166.900385 
L 87.010614 148.468125 
L 87.017976 147.509537 
L 87.062148 156.109433 
L 87.172577 189.221771 
L 87.202025 175.637222 
L 87.386074 117.163408 
L 87.400797 114.451976 
L 87.444969 132.363861 
L 87.614294 184.839659 
L 87.63638 184.428836 
L 87.658466 180.211052 
L 87.82779 152.110756 
L 87.879324 175.555058 
L 87.90141 181.580462 
L 87.967667 164.024624 
L 88.026563 188.208408 
L 88.070735 206.476339 
L 88.12963 184.045401 
L 88.262145 128.885559 
L 88.321041 148.029913 
L 88.424108 170.269134 
L 88.50509 212.090921 
L 88.556623 190.372076 
L 88.630243 129.761982 
L 88.6965 154.849576 
L 88.718586 155.99988 
L 88.740672 148.166854 
L 88.946807 59.730346 
L 88.96153 61.264085 
L 89.116131 114.671082 
L 89.447419 275.631553 
L 89.462143 273.139226 
L 89.646192 179.197689 
L 89.800793 139.703899 
L 89.815516 142.44272 
L 89.881774 166.325233 
L 89.955393 150.549628 
L 89.970117 149.700594 
L 89.992203 155.39734 
L 90.09527 189.742147 
L 90.139442 175.582446 
L 90.316129 118.916253 
L 90.338215 114.917575 
L 90.375024 129.625041 
L 90.566435 186.784221 
L 90.581159 183.552413 
L 90.77257 151.289109 
L 90.779932 152.905013 
L 90.846189 182.128226 
L 90.912447 164.325894 
L 90.956618 183.223755 
L 91.00079 204.257895 
L 91.059686 184.483612 
L 91.199563 127.160102 
L 91.26582 150.357911 
L 91.449869 209.625983 
L 91.501403 182.018674 
L 91.575022 129.981087 
L 91.633918 153.644495 
L 91.648641 156.629809 
L 91.685451 140.991145 
L 91.898948 61.236697 
L 91.913672 64.030294 
L 92.13453 186.400786 
L 92.311217 248.873278 
L 92.318579 248.654172 
L 92.340665 253.447108 
L 92.392198 271.112499 
L 92.43637 249.557983 
L 92.745572 140.881592 
L 92.767658 148.08469 
L 92.819191 167.612479 
L 92.878087 151.42605 
L 92.900173 147.673867 
L 92.944344 159.642511 
L 93.025326 186.838997 
L 93.076859 172.597132 
L 93.23146 132.254308 
L 93.275632 115.821386 
L 93.327166 136.280374 
L 93.489128 184.757494 
L 93.525938 180.731428 
L 93.702625 152.001203 
L 93.717349 156.136821 
L 93.776244 181.580462 
L 93.842502 163.559025 
L 93.923483 199.711453 
L 93.945569 205.298646 
L 93.989741 188.619231 
L 94.129618 129.844146 
L 94.203237 152.302473 
L 94.276857 166.68128 
L 94.379924 210.338076 
L 94.431458 186.866386 
L 94.505077 128.995112 
L 94.571335 154.383976 
L 94.578697 155.041293 
L 94.608145 150.549628 
L 94.829003 64.961493 
L 94.865813 72.520637 
L 94.96888 103.222813 
L 95.322254 274.75513 
L 95.329615 273.878708 
L 95.53575 170.159582 
L 95.675627 142.853543 
L 95.682989 143.593024 
L 95.749247 167.365985 
L 95.822866 150.494852 
L 95.830228 150.412687 
L 95.844952 150.878286 
L 95.881762 165.229705 
L 95.977467 192.535744 
L 96.006915 180.567099 
L 96.205687 117.245573 
L 96.213049 117.546843 
L 96.257221 136.170821 
L 96.44127 187.551091 
L 96.470717 179.6359 
L 96.640042 155.260399 
L 96.654766 156.657197 
L 96.721024 180.293217 
L 96.779919 163.641189 
L 96.802005 167.886361 
L 96.875625 204.969988 
L 96.93452 185.770857 
L 97.074397 135.321787 
L 97.133293 152.631131 
L 97.324703 209.379489 
L 97.368875 186.455563 
L 97.442495 131.405274 
L 97.508752 154.520917 
L 97.523476 156.958468 
L 97.560286 141.292415 
L 97.76642 68.494571 
L 97.788506 70.822568 
L 97.965193 152.110756 
L 98.193413 249.284101 
L 98.222861 257.308845 
L 98.259671 268.483232 
L 98.311204 246.298787 
L 98.620406 147.728643 
L 98.642492 153.507554 
L 98.694026 170.707346 
L 98.752921 154.822188 
L 98.775007 150.987839 
L 98.819179 164.106789 
L 98.90016 189.112218 
L 98.944332 178.184325 
L 99.113657 128.830783 
L 99.150466 117.656396 
L 99.194638 136.80075 
L 99.363963 189.112218 
L 99.408135 181.690015 
L 99.577459 151.289109 
L 99.592183 154.986517 
L 99.651079 178.348654 
L 99.717336 161.724015 
L 99.790956 195.301952 
L 99.820404 200.943922 
L 99.864575 184.867047 
L 100.004452 135.896939 
L 100.078072 156.46548 
L 100.10752 159.2043 
L 100.225311 200.286605 
L 100.254759 206.640668 
L 100.291568 193.110896 
L 100.379912 127.735255 
L 100.460893 151.946426 
L 100.652304 84.680999 
L 100.703838 71.069062 
L 100.762733 83.7498 
L 100.851076 114.178094 
L 101.189726 263.498579 
L 101.197088 264.813212 
L 101.233898 251.612098 
L 101.550462 145.866245 
L 101.557823 145.619751 
L 101.572547 148.824171 
L 101.624081 165.91441 
L 101.682977 151.562992 
L 101.705062 148.632454 
L 101.749234 158.492207 
L 101.852301 184.154953 
L 101.881749 172.871014 
L 102.065798 122.421943 
L 102.080522 120.258275 
L 102.117332 132.309085 
L 102.316104 185.606528 
L 102.323466 185.387423 
L 102.514877 151.973815 
L 102.551686 164.599776 
L 102.588496 175.66461 
L 102.647392 163.339919 
L 102.662116 164.627164 
L 102.757821 202.313332 
L 102.846164 180.813593 
L 102.912422 146.030574 
L 102.949232 136.061268 
L 103.008127 151.097392 
L 103.125918 178.759477 
L 103.184814 201.683404 
L 103.236348 182.84032 
L 103.309967 128.748618 
L 103.383587 148.906336 
L 103.39831 149.864923 
L 103.420396 143.757354 
L 103.633893 72.411084 
L 103.648617 74.273482 
L 103.795856 118.313713 
L 104.134505 265.224035 
L 104.149229 263.690296 
L 104.34064 176.157598 
L 104.495241 145.071987 
L 104.53205 156.602421 
L 104.561498 163.011261 
L 104.620394 148.550289 
L 104.649842 145.291093 
L 104.679289 154.466141 
L 104.782357 183.388084 
L 104.819166 173.99393 
L 105.010577 120.011781 
L 105.017939 119.190135 
L 105.047387 127.680478 
L 105.246159 187.441538 
L 105.260883 185.332646 
L 105.452294 151.042616 
L 105.47438 159.039971 
L 105.525913 179.1703 
L 105.592171 164.873658 
L 105.643705 184.20973 
L 105.695238 202.669379 
L 105.754134 186.318622 
L 105.813029 173.747436 
L 105.879287 136.663809 
L 105.952906 154.000542 
L 105.96763 153.973153 
L 105.982354 155.068682 
L 106.085422 187.496314 
L 106.129593 197.410844 
L 106.173765 179.526347 
L 106.254746 128.474736 
L 106.321004 151.453439 
L 106.328366 152.302473 
L 106.357814 144.661164 
L 106.57131 74.191317 
L 106.60812 81.695685 
L 106.740635 127.269655 
L 107.013027 245.614082 
L 107.071923 266.702998 
L 107.123456 247.01088 
L 107.425296 144.086012 
L 107.447382 148.550289 
L 107.498916 164.052012 
L 107.557811 149.180218 
L 107.572535 146.277068 
L 107.624069 158.793477 
L 107.727136 182.347332 
L 107.756584 172.62452 
L 107.947994 119.107971 
L 107.955356 118.888865 
L 107.962718 120.285663 
L 108.168853 186.291233 
L 108.227748 174.952517 
L 108.382349 153.781436 
L 108.389711 154.274424 
L 108.632656 201.601239 
L 108.676827 189.002665 
L 108.816704 138.224936 
L 108.905048 154.301812 
L 108.986029 168.05069 
L 109.059649 198.506372 
L 109.111182 179.6359 
L 109.184802 128.228242 
L 109.251059 148.769395 
L 109.265783 150.05664 
L 109.295231 143.127425 
L 109.501365 74.739081 
L 109.516089 76.711032 
L 109.700138 148.577677 
L 109.906273 240.245994 
L 109.913634 239.9995 
L 109.920996 239.780394 
L 109.943082 242.300109 
L 110.00934 261.910063 
L 110.060873 243.779072 
L 110.355351 148.057301 
L 110.392161 155.013905 
L 110.436333 167.913749 
L 110.487866 153.754048 
L 110.517314 148.742007 
L 110.568848 160.683263 
L 110.657191 179.088136 
L 110.694001 169.557041 
L 110.87805 124.859493 
L 110.892774 123.298366 
L 110.922221 133.240283 
L 111.113632 189.221771 
L 111.120994 188.920501 
L 111.327129 151.782097 
L 111.363938 164.764106 
L 111.400748 174.185647 
L 111.459644 162.353944 
L 111.467006 162.518273 
L 111.525901 186.510339 
L 111.570073 200.943922 
L 111.63633 186.400786 
L 111.680502 178.129549 
L 111.754121 143.702577 
L 111.827741 159.861617 
L 111.849827 159.067359 
L 111.871913 160.710651 
L 111.930808 172.62452 
L 111.997066 195.548446 
L 112.048599 177.390067 
L 112.129581 127.023161 
L 112.195838 147.290432 
L 112.2032 148.029913 
L 112.225286 142.634437 
L 112.431421 78.628206 
L 112.46823 83.667635 
L 112.703813 191.029393 
L 112.909947 252.324192 
L 112.946757 264.073731 
L 112.998291 247.065657 
L 113.300131 148.495513 
L 113.329578 156.410703 
L 113.381112 166.38001 
L 113.425284 152.95979 
L 113.44737 147.372596 
L 113.506265 159.122136 
L 113.60197 178.896418 
L 113.631418 170.543016 
L 113.793381 135.869551 
L 113.830191 125.681139 
L 113.874363 144.003847 
L 114.043687 188.153631 
L 114.073135 184.483612 
L 114.257184 147.399985 
L 114.293994 158.656536 
L 114.330803 172.268473 
L 114.419147 166.763444 
L 114.50749 204.750882 
L 114.58111 187.852361 
L 114.617919 179.690676 
L 114.684177 149.700594 
L 114.765158 159.368629 
L 114.77252 159.067359 
L 114.824054 160.902369 
L 114.934483 192.973955 
L 114.993379 170.926451 
L 115.059636 128.776006 
L 115.125894 146.770056 
L 115.140618 147.756031 
L 115.170065 140.936369 
L 115.3762 79.449852 
L 115.390924 81.093144 
L 115.597058 162.381332 
L 115.817917 239.39696 
L 115.884174 261.882675 
L 115.935708 245.696246 
L 116.230186 148.303795 
L 116.259634 154.575694 
L 116.303805 164.654553 
L 116.355339 154.493529 
L 116.384787 147.947749 
L 116.451044 160.436769 
L 116.532026 178.376043 
L 116.576197 165.804857 
L 116.627731 139.868229 
L 116.708713 148.413348 
L 116.760246 133.075954 
L 116.81178 149.700594 
L 116.988467 186.044739 
L 117.010552 183.525025 
L 117.194601 149.947088 
L 117.216687 153.808824 
L 117.430183 200.040111 
L 117.437545 201.026087 
L 117.481717 192.316638 
L 117.628956 147.509537 
L 117.687852 156.958468 
L 117.798281 169.995252 
L 117.8719 193.466943 
L 117.923434 176.458868 
L 117.997053 131.377886 
L 118.063311 148.878948 
L 118.078035 150.604404 
L 118.107483 141.265027 
L 118.306255 80.298886 
L 118.328341 82.763825 
L 118.482942 128.146078 
L 118.81423 262.019616 
L 118.821592 262.375662 
L 118.836315 260.458488 
L 119.167603 146.057963 
L 119.233861 160.57371 
L 119.248585 161.778791 
L 119.278032 155.753387 
L 119.322204 144.633776 
L 119.3811 157.999219 
L 119.462081 179.033359 
L 119.506253 168.927112 
L 119.565148 137.622396 
L 119.64613 147.810808 
L 119.705025 133.870212 
L 119.749197 149.481488 
L 119.918522 187.359373 
L 119.955332 182.155615 
L 120.132018 151.152168 
L 120.161466 159.450794 
L 120.205638 171.419439 
L 120.286619 164.736717 
L 120.382325 199.711453 
L 120.448582 184.702718 
L 120.544287 148.742007 
L 120.559011 145.208928 
L 120.632631 156.191598 
L 120.647355 155.890328 
L 120.669441 157.697949 
L 120.74306 171.474215 
L 120.809318 194.315977 
L 120.860851 178.156937 
L 120.934471 134.335812 
L 121.000728 152.110756 
L 121.00809 152.932402 
L 121.037538 147.345208 
L 121.251034 79.504629 
L 121.287844 86.95422 
L 121.427721 133.870212 
L 121.751647 260.348935 
L 121.759009 260.513264 
L 121.766371 259.308183 
L 121.972505 172.761461 
L 122.10502 149.180218 
L 122.112382 149.700594 
L 122.17864 163.285143 
L 122.230174 151.672544 
L 122.259621 145.400646 
L 122.318517 158.464819 
L 122.40686 179.1703 
L 122.451032 164.983211 
L 122.495204 140.498157 
L 122.590909 144.496835 
L 122.635081 132.610355 
L 122.679252 146.414009 
L 122.855939 185.907798 
L 122.870663 185.633916 
L 122.922197 173.199672 
L 123.062074 152.001203 
L 123.084159 154.767411 
L 123.135693 171.748097 
L 123.209313 160.190276 
L 123.253484 172.679296 
L 123.31238 196.068822 
L 123.378637 182.922484 
L 123.444895 166.489562 
L 123.503791 147.673867 
L 123.570048 156.054657 
L 123.680477 171.693321 
L 123.746735 192.261862 
L 123.798268 175.965881 
L 123.871888 135.73261 
L 123.938145 151.343886 
L 123.952869 152.466802 
L 123.982317 144.305118 
L 124.18109 84.900105 
L 124.203176 87.365043 
L 124.365138 136.609032 
L 124.644892 238.849196 
L 124.689064 254.213978 
L 124.74796 239.23263 
L 125.035076 149.481488 
L 125.101333 162.271779 
L 125.116057 162.901708 
L 125.145505 159.916394 
L 125.204401 147.372596 
L 125.255934 158.026607 
L 125.336916 178.485595 
L 125.381087 167.776808 
L 125.439983 139.786064 
L 125.513602 150.111417 
L 125.572498 136.444703 
L 125.61667 151.699933 
L 125.793356 185.250482 
L 125.815442 182.128226 
L 126.006853 149.645817 
L 126.021577 153.315837 
L 126.080472 170.679957 
L 126.14673 161.34058 
L 126.205625 182.292556 
L 126.257159 197.410844 
L 126.316055 184.894435 
L 126.382312 166.708668 
L 126.441208 146.687891 
L 126.514827 151.508215 
L 126.522189 151.206945 
L 126.551637 154.411365 
L 126.625256 171.638545 
L 126.691514 191.275886 
L 126.735686 176.814915 
L 126.809305 135.979104 
L 126.875563 152.932402 
L 126.882925 153.534942 
L 126.912372 147.263044 
L 127.125869 90.733792 
L 127.155317 96.40315 
L 127.376175 183.388084 
L 127.560224 229.537206 
L 127.633843 252.926732 
L 127.685377 238.137102 
L 127.979855 149.207606 
L 128.001941 152.220308 
L 128.060836 161.011922 
L 128.105008 152.932402 
L 128.127094 148.933724 
L 128.185989 158.930418 
L 128.289057 185.113541 
L 128.325866 169.639206 
L 128.370038 147.263044 
L 128.465743 148.659842 
L 128.509915 137.786725 
L 128.554087 151.480827 
L 128.723412 183.90846 
L 128.738136 182.758155 
L 128.811755 163.120813 
L 128.936908 150.248358 
L 128.94427 151.097392 
L 129.187214 196.589198 
L 129.224024 188.427513 
L 129.378625 145.400646 
L 129.459606 152.165532 
L 129.555312 168.790171 
L 129.621569 189.057442 
L 129.673103 174.979905 
L 129.73936 137.704561 
L 129.805618 154.274424 
L 129.827704 156.410703 
L 129.857152 148.276407 
L 130.055924 92.29492 
L 130.070648 94.047765 
L 130.284145 167.009938 
L 130.497641 230.906617 
L 130.563899 251.639486 
L 130.615432 236.466422 
L 130.90991 147.31782 
L 130.931996 149.75537 
L 130.998254 161.258415 
L 131.057149 152.439414 
L 131.071873 152.768072 
L 131.116045 161.915732 
L 131.21175 185.935187 
L 131.255922 173.610495 
L 131.314817 148.194242 
L 131.403161 148.933724 
L 131.43997 139.128747 
L 131.491504 154.685247 
L 131.668191 181.854344 
L 131.675553 181.580462 
L 131.756534 157.725337 
L 131.874325 150.084029 
L 131.881687 150.631793 
L 132.124632 196.56181 
L 132.161441 188.044078 
L 132.30868 144.798105 
L 132.367576 152.412026 
L 132.500091 171.392051 
L 132.566349 188.235796 
L 132.61052 172.514967 
L 132.676778 136.718585 
L 132.743035 154.438753 
L 132.757759 156.711974 
L 132.794569 146.496174 
L 132.993342 94.705081 
L 133.008065 95.964939 
L 133.184752 145.044599 
L 133.44242 230.523182 
L 133.501316 249.804477 
L 133.55285 235.398282 
L 133.847327 147.180879 
L 133.884137 153.425389 
L 133.935671 161.532298 
L 133.987204 153.808824 
L 134.001928 152.357249 
L 134.0461 159.286465 
L 134.149167 186.893774 
L 134.193339 173.007955 
L 134.340578 148.714618 
L 134.38475 139.53957 
L 134.428921 154.411365 
L 134.598246 181.635239 
L 134.61297 180.074111 
L 134.811743 148.413348 
L 134.84119 157.122797 
L 135.047325 196.205763 
L 135.062049 198.095549 
L 135.098859 187.605867 
L 135.25346 144.1134 
L 135.327079 149.810146 
L 135.40806 158.766089 
L 135.496404 186.044739 
L 135.547937 170.214358 
L 135.614195 137.485455 
L 135.673091 154.767411 
L 135.695176 158.327878 
L 135.739348 144.907658 
L 135.930759 96.047103 
L 135.938121 96.238821 
L 136.08536 128.41996 
L 136.438733 249.968806 
L 136.460819 244.737659 
L 136.784745 142.990484 
L 136.828916 152.822849 
L 136.873088 160.73804 
L 136.931984 152.001203 
L 136.939346 151.809485 
L 136.961431 153.945765 
L 137.086585 184.921823 
L 137.130756 168.105466 
L 137.174928 145.619751 
L 137.263271 152.932402 
L 137.314805 139.073971 
L 137.366339 153.72666 
L 137.528301 178.622536 
L 137.550387 177.883055 
L 137.609283 163.915071 
L 137.653455 151.42605 
L 137.74916 151.809485 
L 137.793332 164.901047 
L 137.992104 198.615925 
L 137.881675 163.77813 
L 137.999466 198.451596 
L 138.139343 161.504909 
L 138.190877 147.345208 
L 138.264496 152.329861 
L 138.27922 152.055979 
L 138.301306 153.041954 
L 138.374926 169.036665 
L 138.441183 184.730106 
L 138.485355 168.844948 
L 138.551612 138.444042 
L 138.610508 153.863601 
L 138.632594 156.821527 
L 138.669403 145.811469 
L 138.860814 96.375762 
L 138.875538 97.361737 
L 139.059587 148.440736 
L 139.295169 228.277349 
L 139.368788 248.489843 
L 139.420322 233.919319 
L 139.7148 145.921022 
L 139.75161 151.179557 
L 139.810505 163.668577 
L 139.869401 154.438753 
L 139.884125 153.808824 
L 139.913573 159.012583 
L 140.01664 185.962575 
L 140.060812 173.583107 
L 140.119707 146.523562 
L 140.200689 153.343225 
L 140.252222 140.196887 
L 140.303756 154.7948 
L 140.473081 179.964558 
L 140.495167 177.581785 
L 140.590872 150.029252 
L 140.701301 155.369952 
L 140.929521 198.99936 
L 140.944245 197.849055 
L 141.120932 146.167515 
L 141.216637 150.905675 
L 141.282895 156.191598 
L 141.371238 183.004649 
L 141.422772 166.900385 
L 141.48903 136.225598 
L 141.547925 152.138144 
L 141.562649 154.740023 
L 141.606821 143.976459 
L 141.798231 98.785924 
L 141.805593 98.977641 
L 141.930746 122.339779 
L 142.306206 246.079681 
L 142.372463 227.291374 
L 142.659579 146.194904 
L 142.696389 153.617107 
L 142.740561 162.353944 
L 142.806818 154.164871 
L 142.821542 154.876964 
L 142.954057 186.592504 
L 143.005591 169.11883 
L 143.049762 148.276407 
L 143.145468 149.892311 
L 143.18964 138.389266 
L 143.241173 153.288448 
L 143.410498 181.30658 
L 143.432584 179.745453 
L 143.616632 153.754048 
L 143.653442 162.134838 
L 143.844853 192.672685 
L 143.866939 196.260539 
L 143.91111 183.415472 
L 144.058349 145.455422 
L 144.124607 150.796122 
L 144.168779 150.549628 
L 144.176141 150.741345 
L 144.235036 160.162887 
L 144.308656 180.347993 
L 144.352827 168.160243 
L 144.419085 136.80075 
L 144.485342 154.356588 
L 144.507428 156.383315 
L 144.544238 145.701916 
L 144.735649 100.155334 
L 144.750372 101.716461 
L 144.963869 168.406737 
L 145.177365 227.537868 
L 145.243623 242.875261 
L 145.295157 230.194523 
L 145.589635 146.030574 
L 145.641168 156.027269 
L 145.68534 162.901708 
L 145.744235 154.3292 
L 145.751597 154.219647 
L 145.766321 155.342564 
L 145.884112 184.100177 
L 145.935646 169.995252 
L 145.994542 146.852221 
L 146.075523 152.110756 
L 146.127057 141.840179 
L 146.171228 154.986517 
L 146.347915 182.046062 
L 146.362639 181.169639 
L 146.55405 152.521579 
L 146.590859 160.902369 
L 146.789632 192.398803 
L 146.804356 193.576495 
L 146.833804 187.030715 
L 146.995767 144.715941 
L 147.039938 148.9885 
L 147.194539 167.995914 
L 147.246073 180.347993 
L 147.290245 168.516289 
L 147.356502 139.977782 
L 147.415398 156.328539 
L 147.437484 160.354605 
L 147.481655 148.742007 
L 147.673066 104.564835 
L 147.68779 105.797304 
L 147.871838 151.919038 
L 148.107421 225.155094 
L 148.18104 242.163168 
L 148.239936 228.11302 
L 148.534414 145.044599 
L 148.578585 154.603082 
L 148.615395 161.148863 
L 148.681653 152.905013 
L 148.689015 152.850237 
L 148.696377 153.480166 
L 148.82153 182.84032 
L 148.873063 168.954501 
L 148.924597 148.276407 
L 149.005578 154.822188 
L 149.057112 143.100037 
L 149.108646 156.46548 
L 149.285332 182.949873 
L 149.300056 181.744792 
L 149.381038 158.519595 
L 149.491467 153.370613 
L 149.447295 158.957806 
L 149.498829 153.72666 
L 149.741773 194.014707 
L 149.778583 184.237118 
L 149.933184 143.319142 
L 150.006803 146.71528 
L 150.073061 149.043277 
L 150.131956 167.831584 
L 150.18349 180.786204 
L 150.235024 164.818882 
L 150.293919 142.826155 
L 150.352815 158.108772 
L 150.374901 161.094086 
L 150.419072 149.371935 
L 150.610483 102.64766 
L 150.617845 102.948931 
L 150.801894 146.441397 
L 151.0522 227.839138 
L 151.118458 242.43705 
L 151.162629 231.481769 
L 151.464469 148.303795 
L 151.479193 149.344547 
L 151.545451 163.038649 
L 151.604346 154.247035 
L 151.61907 152.713296 
L 151.663242 159.313853 
L 151.766309 183.634578 
L 151.803119 173.747436 
L 151.965082 148.276407 
L 151.994529 142.661825 
L 152.046063 155.260399 
L 152.22275 181.553074 
L 152.237474 180.813593 
L 152.340541 153.507554 
L 152.465694 161.504909 
L 152.509866 167.722031 
L 152.583485 164.325894 
L 152.67919 190.91984 
L 152.75281 174.623859 
L 152.811706 159.259077 
L 152.870601 142.935707 
L 152.944221 145.893633 
L 152.958945 145.811469 
L 152.973668 146.331845 
L 153.047288 162.682602 
L 153.120907 183.333307 
L 153.165079 171.063392 
L 153.231337 145.345869 
L 153.290232 158.410042 
L 153.312318 161.313192 
L 153.349128 152.631131 
L 153.5479 102.538108 
L 153.569986 104.893493 
L 153.746673 152.384638 
L 153.974893 226.031516 
L 154.048513 240.738982 
L 154.100046 229.071607 
L 154.394524 148.714618 
L 154.423972 151.316498 
L 154.482868 163.093425 
L 154.541763 154.219647 
L 154.563849 152.548967 
L 154.600659 160.025946 
L 154.696364 182.621214 
L 154.747898 170.18697 
L 154.799432 150.82351 
L 154.880413 156.711974 
L 154.939309 145.099376 
L 154.98348 156.657197 
L 155.160167 182.484273 
L 155.182253 180.211052 
L 155.277958 152.685908 
L 155.395749 160.409381 
L 155.439921 167.74942 
L 155.51354 162.353944 
L 155.616608 189.221771 
L 155.690227 173.22706 
L 155.763847 149.974476 
L 155.800656 141.703238 
L 155.881638 145.921022 
L 155.889 145.838857 
L 155.903724 146.578339 
L 155.969981 157.177573 
L 156.058325 186.017351 
L 156.109858 169.228383 
L 156.168754 146.989162 
L 156.235011 159.6699 
L 156.242373 160.245052 
L 156.271821 155.835551 
L 156.485318 103.195424 
L 156.522127 109.686429 
L 156.706176 167.612479 
L 156.912311 225.757634 
L 156.993292 240.574652 
L 157.037464 229.674147 
L 157.339304 146.468786 
L 157.368751 150.385299 
L 157.420285 159.423406 
L 157.479181 151.453439 
L 157.493904 150.659181 
L 157.523352 155.589057 
L 157.641143 181.991285 
L 157.677953 173.254449 
L 157.839916 148.38596 
L 157.869364 142.963096 
L 157.920897 155.342564 
L 158.090222 181.826956 
L 158.112308 180.758816 
L 158.215375 153.699271 
L 158.340529 161.669239 
L 158.377338 167.009938 
L 158.436234 161.231027 
L 158.450958 162.217003 
L 158.546663 188.48229 
L 158.627644 171.885038 
L 158.664454 166.188292 
L 158.738074 144.798105 
L 158.826417 148.550289 
L 158.855865 149.536264 
L 158.922122 164.188953 
L 158.995742 182.292556 
L 159.039914 169.803535 
L 159.098809 146.441397 
L 159.165067 159.313853 
L 159.179791 160.464158 
L 159.2166 153.069343 
L 159.415373 101.798626 
L 159.437459 104.373117 
L 159.658317 175.938492 
L 159.85709 226.825774 
L 159.923347 239.725618 
L 159.967519 230.276688 
L 160.276721 150.166193 
L 160.284083 150.577016 
L 160.35034 161.011922 
L 160.416598 153.069343 
L 160.431322 152.439414 
L 160.46077 156.328539 
L 160.578561 181.77218 
L 160.61537 173.309225 
L 160.777333 148.112078 
L 160.806781 142.853543 
L 160.858315 154.657858 
L 161.035001 181.443521 
L 161.057087 178.595148 
L 161.241136 153.507554 
L 161.263222 155.835551 
L 161.48408 187.304597 
L 161.491442 187.140268 
L 161.609233 162.901708 
L 161.675491 145.318481 
L 161.756472 149.015889 
L 161.793282 152.19292 
L 161.874264 171.036004 
L 161.933159 181.416133 
L 161.977331 168.516289 
L 162.036226 146.030574 
L 162.102484 159.368629 
L 162.117208 160.874981 
L 162.154018 152.932402 
L 162.35279 105.003046 
L 162.374876 107.276267 
L 162.603096 180.265829 
L 162.816593 230.632735 
L 162.868127 239.123078 
L 162.912298 227.483091 
L 163.214138 153.178896 
L 163.236224 155.808163 
L 163.287758 164.0794 
L 163.346653 156.218986 
L 163.361377 154.740023 
L 163.405549 162.052673 
L 163.515978 183.497637 
L 163.552788 173.884377 
L 163.714751 147.263044 
L 163.744198 141.730627 
L 163.795732 153.699271 
L 163.965057 180.950534 
L 163.987143 178.951195 
L 164.178553 153.096731 
L 164.215363 158.848254 
L 164.421498 184.784882 
L 164.42886 184.538388 
L 164.605546 144.798105 
L 164.745423 151.809485 
L 164.863214 180.457546 
L 164.914748 167.530314 
L 164.973644 146.71528 
L 165.032539 159.122136 
L 165.054625 161.751403 
L 165.098797 150.850898 
L 165.290207 107.906195 
L 165.297569 108.207466 
L 165.474256 145.126764 
L 165.768734 232.522521 
L 165.798182 237.370233 
L 165.849715 225.319423 
L 166.063212 152.631131 
L 166.151555 154.247035 
L 166.225175 166.243068 
L 166.28407 156.903691 
L 166.298794 155.917716 
L 166.335604 160.381993 
L 166.446033 181.881733 
L 166.482843 175.007294 
L 166.674254 142.44272 
L 166.681616 142.470108 
L 166.733149 155.068682 
L 166.909836 183.278531 
L 166.939284 179.581124 
L 167.115971 154.767411 
L 167.138056 157.013244 
L 167.351553 185.360034 
L 167.358915 185.551752 
L 167.373639 184.018012 
L 167.550325 143.017872 
L 167.653393 147.536926 
L 167.75646 171.830262 
L 167.800632 178.403431 
L 167.844803 168.844948 
L 167.911061 146.633115 
L 167.977318 159.368629 
L 167.992042 160.546322 
L 168.02149 154.274424 
L 168.220263 107.522761 
L 168.242349 109.35777 
L 168.426397 152.384638 
L 168.684065 226.935327 
L 168.735599 236.411645 
L 168.779771 226.195846 
L 169.000629 153.617107 
L 169.096335 155.616446 
L 169.169954 166.078739 
L 169.221488 157.177573 
L 169.243574 155.561669 
L 169.280383 162.901708 
L 169.376089 180.786204 
L 169.42026 173.144896 
L 169.589585 145.18154 
L 169.619033 141.37458 
L 169.663205 152.65852 
L 169.839891 184.264506 
L 169.876701 180.375381 
L 170.053388 154.164871 
L 170.082836 158.930418 
L 170.296332 186.318622 
L 170.311056 184.867047 
L 170.480381 143.182201 
L 170.568724 146.222292 
L 170.649706 158.355266 
L 170.730687 177.80089 
L 170.782221 166.98255 
L 170.848478 143.182201 
L 170.907374 156.794138 
L 170.92946 159.532959 
L 170.973631 147.728643 
L 171.165042 108.262242 
L 171.201852 114.69847 
L 171.400624 172.186309 
L 171.636207 228.41429 
L 171.673016 234.795741 
L 171.717188 225.100317 
L 171.938047 153.781436 
L 172.02639 154.3292 
L 172.100009 165.640528 
L 172.158905 157.83489 
L 172.173629 156.76675 
L 172.217801 163.257754 
L 172.320868 180.347993 
L 172.357678 171.25511 
L 172.527002 144.551611 
L 172.549088 141.100698 
L 172.600622 153.343225 
L 172.769947 184.511 
L 172.799394 182.265167 
L 172.983443 155.671222 
L 173.012891 158.683924 
L 173.226387 187.085491 
L 173.233749 187.167656 
L 173.241111 186.428174 
L 173.42516 143.729965 
L 173.542951 148.440736 
L 173.675466 178.348654 
L 173.734362 162.874319 
L 173.785895 147.701255 
L 173.844791 160.57371 
L 173.866877 162.655214 
L 173.903687 152.713296 
L 174.095097 107.604925 
L 174.109821 108.727842 
L 174.315956 162.244391 
L 174.544176 221.156416 
L 174.610434 232.38558 
L 174.654605 223.210531 
L 174.875464 155.917716 
L 174.971169 156.958468 
L 175.037427 165.202317 
L 175.08896 158.793477 
L 175.111046 157.424067 
L 175.147856 162.545661 
L 175.250923 180.786204 
L 175.295095 171.446827 
L 175.457058 146.386621 
L 175.486505 141.785403 
L 175.538039 153.26106 
L 175.714726 182.128226 
L 175.744174 178.56776 
L 175.928222 157.06802 
L 175.950308 160.354605 
L 176.001842 167.886361 
L 176.068099 162.244391 
L 176.134357 178.211713 
L 176.171167 184.100177 
L 176.215338 172.62452 
L 176.355215 141.484133 
L 176.436197 145.373258 
L 176.495092 153.178896 
L 176.612883 178.923807 
L 176.664417 165.91441 
L 176.723313 146.770056 
L 176.782208 159.067359 
L 176.796932 161.231027 
L 176.841104 151.097392 
L 177.032515 109.166053 
L 177.039876 109.412547 
L 177.179753 131.405274 
L 177.547851 231.947368 
L 177.584661 225.593305 
L 177.812881 156.711974 
L 177.930672 161.504909 
L 177.974844 165.941798 
L 178.026378 160.354605 
L 178.048463 158.711313 
L 178.092635 165.448811 
L 178.18834 179.581124 
L 178.22515 172.651908 
L 178.394475 146.112739 
L 178.423923 141.07331 
L 178.475456 151.562992 
L 178.644781 182.484273 
L 178.688953 176.705362 
L 178.858278 157.314514 
L 178.86564 157.341902 
L 179.064412 177.116185 
L 179.101222 184.784882 
L 179.152756 172.378026 
L 179.292633 146.331845 
L 179.351528 148.08469 
L 179.366252 147.92036 
L 179.388338 149.317159 
L 179.476681 166.845609 
L 179.550301 179.362018 
L 179.594472 168.927112 
L 179.66073 146.687891 
L 179.719626 158.820865 
L 179.734349 159.943782 
L 179.771159 152.138144 
L 179.969932 109.001724 
L 179.977294 109.248217 
L 180.146619 139.786064 
L 180.448458 225.67547 
L 180.485268 230.769676 
L 180.52944 222.251944 
L 180.750298 157.040632 
L 180.853366 158.766089 
L 180.912261 165.91441 
L 180.971157 160.245052 
L 180.978519 159.998558 
L 181.007966 161.943121 
L 181.125758 180.019335 
L 181.162567 172.104144 
L 181.339254 143.538248 
L 181.36134 141.785403 
L 181.39815 149.399323 
L 181.582198 182.128226 
L 181.604284 180.676652 
L 181.803057 157.040632 
L 181.825143 159.861617 
L 182.038639 182.812932 
L 182.046001 182.566438 
L 182.185878 154.383976 
L 182.23005 147.482149 
L 182.303669 151.234333 
L 182.318393 151.398662 
L 182.384651 160.491546 
L 182.480356 179.142912 
L 182.524528 171.008616 
L 182.598147 147.454761 
L 182.664405 158.355266 
L 182.671767 158.656536 
L 182.693853 155.123458 
L 182.907349 107.878807 
L 182.936797 111.603603 
L 183.422685 231.31744 
L 183.496305 212.474356 
L 183.687716 155.808163 
L 183.768697 157.424067 
L 183.805507 162.901708 
L 183.849678 168.324572 
L 183.908574 161.696627 
L 183.923298 160.874981 
L 183.960108 165.339258 
L 184.055813 177.280514 
L 184.099985 170.48824 
L 184.269309 145.619751 
L 184.298757 142.798766 
L 184.335567 151.097392 
L 184.519616 181.991285 
L 184.541702 179.909782 
L 184.733112 154.712635 
L 184.769922 160.299828 
L 184.806732 166.023963 
L 184.887713 162.463496 
L 184.976056 182.429497 
L 185.042314 169.036665 
L 185.160105 149.618429 
L 185.270534 153.425389 
L 185.36624 171.172945 
L 185.417773 178.704701 
L 185.461945 170.652569 
L 185.535564 146.742668 
L 185.601822 157.122797 
L 185.616546 156.328539 
L 185.844766 110.179416 
L 185.93311 121.627685 
L 185.977281 128.72123 
L 186.352741 231.563933 
L 186.42636 214.802353 
L 186.617771 155.534281 
L 186.720838 158.656536 
L 186.779734 167.420761 
L 186.838629 161.094086 
L 186.860715 159.615123 
L 186.904887 165.695304 
L 187.000592 177.335291 
L 187.03004 172.871014 
L 187.228813 144.086012 
L 187.265622 150.138805 
L 187.449671 182.155615 
L 187.471757 181.498298 
L 187.670529 155.068682 
L 187.729425 163.832907 
L 187.751511 164.709329 
L 187.795683 161.422745 
L 187.810406 161.724015 
L 187.86194 171.09078 
L 187.913474 181.635239 
L 187.965007 170.269134 
L 188.104884 149.727982 
L 188.171142 151.12478 
L 188.215314 153.398001 
L 188.355191 175.527669 
L 188.399362 166.626503 
L 188.472982 145.154152 
L 188.531877 155.041293 
L 188.546601 155.862939 
L 188.576049 150.577016 
L 188.782184 109.467323 
L 188.796907 110.89151 
L 188.99568 160.984533 
L 189.231262 221.485075 
L 189.290158 229.701536 
L 189.33433 221.978062 
L 189.56255 155.260399 
L 189.665617 159.943782 
L 189.724513 166.790833 
L 189.776047 161.450133 
L 189.798132 160.27244 
L 189.834942 164.983211 
L 189.930647 177.225738 
L 189.967457 172.15892 
L 190.151506 145.537587 
L 190.16623 144.496835 
L 190.195678 149.344547 
L 190.39445 181.279192 
L 190.401812 180.813593 
L 190.600585 154.685247 
L 190.65948 162.956484 
L 190.850891 181.963897 
L 190.740462 161.285804 
L 190.872977 178.595148 
L 191.03494 151.782097 
L 191.071749 152.65852 
L 191.115921 152.138144 
L 191.160093 155.260399 
L 191.285246 174.048706 
L 191.33678 165.394034 
L 191.403037 146.331845 
L 191.469295 156.711974 
L 191.476657 157.177573 
L 191.506104 153.534942 
L 191.719601 110.508075 
L 191.756411 116.807361 
L 191.999355 189.796923 
L 192.227575 228.578619 
L 192.257023 224.689494 
L 192.492605 154.849576 
L 192.62512 164.271118 
L 192.654568 167.858972 
L 192.720826 161.80618 
L 192.728188 161.559686 
L 192.757635 163.805518 
L 192.868065 177.581785 
L 192.904874 171.85765 
L 193.081561 148.522901 
L 193.103647 146.852221 
L 193.140457 154.082706 
L 193.324505 180.758816 
L 193.339229 180.156276 
L 193.412849 161.997897 
L 193.538002 155.068682 
L 193.545364 155.123458 
L 193.714689 166.516951 
L 193.788308 182.100838 
L 193.839842 170.241746 
L 193.979719 151.234333 
L 194.038614 151.836874 
L 194.053338 151.535603 
L 194.090148 153.233672 
L 194.222663 172.706684 
L 194.274197 164.408059 
L 194.340454 147.290432 
L 194.39935 156.931079 
L 194.414074 158.053996 
L 194.450884 152.548967 
L 194.657018 108.837394 
L 194.679104 111.767932 
L 194.922048 183.661966 
L 195.150269 227.428315 
L 195.164992 228.496455 
L 195.201802 223.511802 
L 195.437385 155.09607 
L 195.547814 160.464158 
L 195.599347 166.434786 
L 195.658243 161.559686 
L 195.665605 161.532298 
L 195.672967 161.778791 
L 195.805482 178.403431 
L 195.857016 167.557702 
L 195.915911 151.836874 
L 195.996893 153.644495 
L 196.041064 147.756031 
L 196.085236 157.122797 
L 196.261923 180.183664 
L 196.276647 179.745453 
L 196.482781 154.904352 
L 196.534315 161.395357 
L 196.725725 181.416133 
L 196.755173 175.691999 
L 196.917136 152.466802 
L 196.939222 153.096731 
L 196.961308 152.65852 
L 196.998118 151.398662 
L 197.034927 154.02793 
L 197.167442 173.418778 
L 197.218976 162.573049 
L 197.277872 147.701255 
L 197.336767 157.780114 
L 197.351491 159.094747 
L 197.388301 152.877625 
L 197.594435 109.65904 
L 197.616521 112.26092 
L 197.859465 183.90846 
L 198.0656 222.525826 
L 198.10241 227.976079 
L 198.153943 219.239242 
L 198.36744 154.959129 
L 198.485231 161.559686 
L 198.529403 167.037326 
L 198.59566 161.587074 
L 198.603022 161.367968 
L 198.625108 162.983872 
L 198.742899 177.883055 
L 198.779709 172.295861 
L 198.845966 151.973815 
L 198.941672 153.425389 
L 198.978482 149.426712 
L 199.015291 156.602421 
L 199.19934 180.758816 
L 199.206702 180.457546 
L 199.272959 166.106127 
L 199.412836 154.082706 
L 199.420198 154.137483 
L 199.611609 172.021979 
L 199.663143 181.936509 
L 199.714676 170.899063 
L 199.854553 150.275746 
L 199.928173 150.467463 
L 199.987068 155.643834 
L 200.10486 173.035343 
L 200.149031 164.654553 
L 200.215289 146.71528 
L 200.274184 156.575033 
L 200.288908 157.697949 
L 200.325718 152.055979 
L 200.524491 110.781957 
L 200.546576 112.616966 
L 200.789521 181.662627 
L 200.995655 220.526487 
L 201.039827 227.099656 
L 201.091361 218.773642 
L 201.385839 156.520256 
L 201.437372 162.956484 
L 201.46682 165.558363 
L 201.533078 161.367968 
L 201.555163 162.353944 
L 201.680316 179.115524 
L 201.724488 170.707346 
L 201.790746 152.138144 
L 201.879089 152.247697 
L 201.908537 148.796783 
L 201.952709 156.711974 
L 202.136757 180.950534 
L 202.144119 180.70404 
L 202.210377 166.407398 
L 202.357616 154.082706 
L 202.549026 170.077417 
L 202.60056 179.362018 
L 202.652094 169.4201 
L 202.86559 150.604404 
L 202.880314 151.12478 
L 203.042277 172.268473 
L 203.09381 161.860956 
L 203.152706 147.564314 
L 203.211602 157.040632 
L 203.226326 158.245713 
L 203.263135 151.836874 
L 203.461908 109.960311 
L 203.483994 111.685767 
L 203.690128 165.887022 
L 203.903625 216.719527 
L 203.96252 224.853824 
L 203.977244 225.839799 
L 204.014054 220.909922 
L 204.242274 156.246374 
L 204.396875 166.434786 
L 204.404237 166.653892 
L 204.433685 164.818882 
L 204.477857 162.326555 
L 204.514666 166.872997 
L 204.610372 179.553735 
L 204.654543 172.953178 
L 204.816506 152.384638 
L 204.845954 148.522901 
L 204.890126 156.301151 
L 205.066813 180.320605 
L 205.081536 179.772841 
L 205.287671 154.137483 
L 205.353929 161.751403 
L 205.412824 161.450133 
L 205.508529 176.541033 
L 205.537977 179.964558 
L 205.582149 171.912427 
L 205.803007 149.974476 
L 205.810369 150.111417 
L 205.883989 159.779453 
L 205.972332 171.885038 
L 206.016504 166.051351 
L 206.090123 147.892972 
L 206.149019 157.917055 
L 206.163743 158.793477 
L 206.193191 154.000542 
L 206.399325 109.850758 
L 206.421411 112.123979 
L 206.693803 191.768874 
L 206.914662 225.346811 
L 206.929385 223.950013 
L 207.113434 177.280514 
L 207.179692 156.684586 
L 207.260673 158.437431 
L 207.47417 172.62452 
L 207.547789 180.265829 
L 207.584599 175.390728 
L 207.776009 148.029913 
L 207.783371 147.756031 
L 207.805457 150.138805 
L 208.00423 179.690676 
L 208.033678 177.663949 
L 208.225088 155.506893 
L 208.247174 157.095409 
L 208.468033 180.70404 
L 208.490118 179.033359 
L 208.733063 150.248358 
L 208.747787 150.577016 
L 208.821406 160.080723 
L 208.917111 172.213697 
L 208.953921 166.325233 
L 209.027541 147.810808 
L 209.093798 156.575033 
L 209.10116 156.657197 
L 209.108522 156.246374 
L 209.270485 120.422604 
L 209.32938 108.508736 
L 209.388276 117.683784 
L 209.535515 153.836212 
L 209.763735 214.555859 
L 209.852079 224.388224 
L 209.903612 216.089599 
L 210.117109 155.39734 
L 210.242262 163.504248 
L 210.426311 175.719387 
L 210.485206 179.991947 
L 210.522016 175.144235 
L 210.713427 147.372596 
L 210.720789 147.290432 
L 210.728151 147.646478 
L 210.949009 179.690676 
L 211.007905 168.790171 
L 211.155144 156.218986 
L 211.162506 156.027269 
L 211.184591 157.971831 
L 211.40545 180.840981 
L 211.427536 178.978583 
L 211.67048 150.577016 
L 211.677842 150.494852 
L 211.692566 151.234333 
L 211.847167 172.213697 
L 211.8987 163.531636 
L 211.964958 148.605066 
L 212.031215 155.287787 
L 212.053301 153.26106 
L 212.266798 108.481348 
L 212.325693 117.711172 
L 212.46557 151.261721 
L 212.701153 215.487058 
L 212.760048 222.197168 
L 212.782134 224.552553 
L 212.833668 217.239903 
L 213.054526 155.835551 
L 213.172317 162.217003 
L 213.385814 178.239102 
L 213.422624 180.019335 
L 213.452071 177.225738 
L 213.658206 148.057301 
L 213.665568 148.577677 
L 213.879064 176.595809 
L 213.930598 169.913088 
L 214.092561 155.09607 
L 214.099923 155.233011 
L 214.298695 174.7608 
L 214.342867 182.292556 
L 214.394401 173.364001 
L 214.607897 151.946426 
L 214.622621 152.138144 
L 214.681517 158.90303 
L 214.777222 172.651908 
L 214.828756 164.983211 
L 214.902375 148.08469 
L 214.968633 154.959129 
L 214.990718 153.206284 
L 215.204215 109.987699 
L 215.263111 118.724536 
L 215.402988 151.289109 
L 215.645932 216.171763 
L 215.719551 225.51114 
L 215.771085 217.924608 
L 215.991943 155.424728 
L 216.117097 162.846931 
L 216.330593 179.1703 
L 216.360041 180.70404 
L 216.389489 177.225738 
L 216.588261 147.838196 
L 216.602985 148.358572 
L 216.823844 176.157598 
L 216.875377 167.913749 
L 217.029978 153.589719 
L 217.03734 153.644495 
L 217.236113 174.815576 
L 217.280284 182.593826 
L 217.33918 173.090119 
L 217.552676 152.329861 
L 217.596848 156.328539 
L 217.722001 172.679296 
L 217.766173 165.257093 
L 217.839792 148.550289 
L 217.90605 154.274424 
L 217.935498 150.303134 
L 218.141632 109.302994 
L 218.178442 114.23287 
L 218.656969 225.374199 
L 218.723226 214.528471 
L 218.929361 156.054657 
L 219.03979 159.916394 
L 219.260648 179.005971 
L 219.297458 180.895757 
L 219.326906 177.828279 
L 219.525678 149.043277 
L 219.540402 149.591041 
L 219.753899 175.390728 
L 219.798071 169.72137 
L 219.967395 152.384638 
L 219.974757 152.521579 
L 220.166168 173.39139 
L 220.217702 183.059425 
L 220.276597 174.788188 
L 220.482732 153.014566 
L 220.541627 158.108772 
L 220.652057 173.254449 
L 220.696228 167.28382 
L 220.77721 147.892972 
L 220.858191 151.371274 
L 221.079049 108.563512 
L 221.167393 120.696486 
L 221.211565 127.406596 
L 221.594386 224.60733 
L 221.638558 218.171102 
L 221.866778 156.931079 
L 221.991931 163.066037 
L 222.220151 180.758816 
L 222.234875 181.197028 
L 222.256961 179.307241 
L 222.463096 148.139466 
L 222.492544 151.070004 
L 222.691316 173.99393 
L 222.70604 173.144896 
L 222.904813 152.083367 
L 222.941622 155.780775 
L 223.155119 182.758155 
L 223.177205 180.484934 
L 223.420149 154.137483 
L 223.427511 154.247035 
L 223.50113 162.381332 
L 223.582112 172.651908 
L 223.633645 166.243068 
L 223.714627 147.153491 
L 223.795608 150.577016 
L 224.009105 107.741866 
L 224.097448 120.504769 
L 224.14162 125.379869 
L 224.531803 222.279333 
L 224.590699 212.775626 
L 224.804195 157.177573 
L 224.921986 162.10745 
L 225.157569 180.430158 
L 225.172293 180.786204 
L 225.20174 177.773502 
L 225.400513 149.536264 
L 225.415237 150.22097 
L 225.628733 173.528331 
L 225.665543 168.954501 
L 225.84223 152.19292 
L 225.849592 152.329861 
L 226.033641 172.843625 
L 226.092536 183.935848 
L 226.151432 174.925129 
L 226.357566 153.041954 
L 226.423824 160.135499 
L 226.519529 172.62452 
L 226.571063 165.996575 
L 226.652044 148.358572 
L 226.725664 152.329861 
L 226.791921 135.458728 
L 226.953884 109.385158 
L 226.97597 112.315696 
L 227.461858 223.374861 
L 227.520754 214.501083 
L 227.815232 157.971831 
L 227.852042 161.367968 
L 228.094986 179.718065 
L 228.10971 180.183664 
L 228.131796 178.403431 
L 228.33793 149.892311 
L 228.360016 151.864262 
L 228.558789 172.350638 
L 228.580875 171.200333 
L 228.683942 152.548967 
L 228.809095 155.780775 
L 229.022591 184.127565 
L 229.052039 181.060086 
L 229.287622 152.357249 
L 229.294983 152.439414 
L 229.346517 157.451455 
L 229.456946 172.186309 
L 229.50848 165.092764 
L 229.589461 148.057301 
L 229.670443 150.494852 
L 229.883939 109.111276 
L 229.950197 119.820064 
L 230.060626 142.689214 
L 230.362466 219.869171 
L 230.399276 223.84046 
L 230.450809 216.52781 
L 230.752649 158.382654 
L 230.804183 163.613801 
L 231.047127 179.964558 
L 230.885164 163.504248 
L 231.069213 178.184325 
L 231.275347 149.974476 
L 231.304795 152.576355 
L 231.496206 172.651908 
L 231.51093 172.268473 
L 231.717064 153.589719 
L 231.753874 157.944443 
L 231.967371 183.086814 
L 231.989456 180.40277 
L 232.232401 153.124119 
L 232.298658 160.080723 
L 232.394364 171.309886 
L 232.438535 166.023963 
L 232.710927 126.174127 
L 232.821357 109.412547 
L 232.887614 119.792676 
L 232.998043 143.401307 
L 233.292521 220.416935 
L 233.336693 224.771659 
L 233.380865 218.527149 
L 233.690066 159.039971 
L 233.7416 163.257754 
L 233.984544 178.156937 
L 233.829943 162.162226 
L 234.00663 176.404092 
L 234.212765 149.810146 
L 234.227489 150.768734 
L 234.433623 172.734073 
L 234.470433 169.474876 
L 234.64712 155.041293 
L 234.654482 155.123458 
L 234.823806 169.283159 
L 234.897426 182.84032 
L 234.956321 175.007294 
L 235.162456 152.905013 
L 235.21399 157.670561 
L 235.324419 171.172945 
L 235.375953 165.284481 
L 235.464296 146.687891 
L 235.552639 147.509537 
L 235.758774 109.960311 
L 235.795584 115.602281 
L 236.27411 224.963376 
L 236.333006 215.377505 
L 236.627484 158.108772 
L 236.671655 161.888344 
L 236.759999 161.176251 
L 236.921962 177.088797 
L 236.958771 171.364663 
L 237.14282 149.043277 
L 237.157544 149.426712 
L 237.378402 172.953178 
L 237.429936 165.530975 
L 237.496194 155.452116 
L 237.584537 155.808163 
L 237.591899 155.808163 
L 237.7465 167.256432 
L 237.834843 182.018674 
L 237.901101 174.158259 
L 237.989444 159.423406 
L 238.099873 153.096731 
L 238.121959 153.890989 
L 238.269198 170.926451 
L 238.320732 163.093425 
L 238.401713 146.660503 
L 238.475333 149.974476 
L 238.696191 110.699792 
L 238.791896 123.709189 
L 238.865516 142.004509 
L 239.189442 224.388224 
L 239.211527 225.565917 
L 239.248337 220.937311 
L 239.564901 159.012583 
L 239.623797 164.353282 
L 239.63852 164.873658 
L 239.690054 162.244391 
L 239.704778 161.943121 
L 239.734226 163.832907 
L 239.859379 177.335291 
L 239.896189 171.474215 
L 240.072875 148.358572 
L 240.087599 147.975137 
L 240.117047 151.672544 
L 240.308458 172.734073 
L 240.330544 171.309886 
L 240.521954 155.534281 
L 240.54404 156.958468 
L 240.77226 181.717403 
L 240.80907 177.061409 
L 241.029929 153.014566 
L 241.052014 153.808824 
L 241.199253 171.885038 
L 241.258149 163.148202 
L 241.331768 146.71528 
L 241.41275 149.4541 
L 241.633608 110.672404 
L 241.721952 123.435307 
L 241.788209 138.115384 
L 242.141583 226.086293 
L 242.156307 225.620693 
L 242.252012 203.052814 
L 242.494956 160.135499 
L 242.531766 162.901708 
L 242.575938 166.38001 
L 242.649557 164.161565 
L 242.730539 173.007955 
L 242.789434 178.019996 
L 242.826244 173.555719 
L 243.017655 148.38596 
L 243.025017 148.550289 
L 243.15017 164.216341 
L 243.245875 172.186309 
L 243.282685 168.735395 
L 243.459371 155.589057 
L 243.466733 155.69861 
L 243.650782 171.939815 
L 243.709678 181.142251 
L 243.761211 173.856989 
L 243.967346 152.302473 
L 244.011518 155.424728 
L 244.136671 171.912427 
L 244.188204 165.448811 
L 244.409063 133.103342 
L 244.563664 111.138003 
L 244.593111 113.986377 
L 244.85078 189.358712 
L 245.056914 223.320084 
L 245.079 224.771659 
L 245.123172 219.376183 
L 245.439735 160.108111 
L 245.476545 163.312531 
L 245.520717 165.91441 
L 245.586974 163.504248 
L 245.631146 167.694643 
L 245.726851 177.773502 
L 245.763661 172.761461 
L 245.955072 148.08469 
L 245.991882 152.466802 
L 246.183292 172.131532 
L 246.198016 171.55638 
L 246.396789 155.671222 
L 246.433598 159.423406 
L 246.647095 181.498298 
L 246.661819 180.211052 
L 246.904763 152.357249 
L 246.926849 153.26106 
L 247.074088 170.679957 
L 247.125622 163.887683 
L 247.206603 145.537587 
L 247.287584 147.646478 
L 247.501081 111.713156 
L 247.552615 119.710511 
L 247.744025 172.871014 
L 247.972246 221.348134 
L 248.016417 225.072929 
L 248.060589 219.677453 
L 248.377153 159.368629 
L 248.421324 163.202978 
L 248.664269 176.924468 
L 248.509668 162.764767 
L 248.671631 176.73275 
L 248.723164 164.627164 
L 248.877765 149.15283 
L 248.892489 148.358572 
L 248.929299 152.631131 
L 249.120709 171.967203 
L 249.142795 170.844287 
L 249.334206 156.273762 
L 249.356292 157.53362 
L 249.584512 182.155615 
L 249.621322 177.444844 
L 249.84218 152.740684 
L 249.871628 154.000542 
L 250.011505 169.337935 
L 250.063039 162.600437 
L 250.14402 146.057963 
L 250.225002 147.92036 
L 250.438498 111.329721 
L 250.490032 119.600958 
L 250.681442 172.898402 
L 250.909663 220.937311 
L 250.953835 224.360836 
L 250.998006 219.184466 
L 251.307208 160.765428 
L 251.366104 164.873658 
L 251.380828 165.202317 
L 251.424999 163.394695 
L 251.447085 162.874319 
L 251.483895 164.983211 
L 251.601686 176.650586 
L 251.638496 171.775486 
L 251.822544 148.878948 
L 251.829906 148.878948 
L 251.88144 155.780775 
L 252.058127 171.885038 
L 252.087575 169.447488 
L 252.271623 156.383315 
L 252.278985 156.629809 
L 252.521929 180.128888 
L 252.580825 173.254449 
L 252.683892 157.561008 
L 252.779598 152.685908 
L 252.809045 154.055318 
L 252.948922 169.392712 
L 253.000456 162.627826 
L 253.177143 145.017211 
L 253.375915 112.315696 
L 253.405363 116.095268 
L 253.891252 224.30606 
L 253.957509 214.446306 
L 254.244625 160.765428 
L 254.281435 163.422084 
L 254.318245 165.585752 
L 254.391864 163.641189 
L 254.443398 167.858972 
L 254.531741 175.774163 
L 254.568551 172.241085 
L 254.767324 149.125441 
L 254.863029 160.655875 
L 254.995544 172.378026 
L 255.039716 167.913749 
L 255.201679 156.547645 
L 255.20904 156.629809 
L 255.393089 170.816898 
L 255.451985 180.430158 
L 255.51088 173.966542 
L 255.717015 152.95979 
L 255.783272 158.327878 
L 255.88634 169.283159 
L 255.937873 162.70999 
L 256.018855 146.660503 
L 256.099836 148.002525 
L 256.313333 112.233532 
L 256.357504 119.436629 
L 256.585725 184.867047 
L 256.806583 222.525826 
L 256.828669 223.84046 
L 256.872841 218.96536 
L 257.182043 160.874981 
L 257.2483 164.983211 
L 257.255662 165.037988 
L 257.277748 164.462835 
L 257.314558 163.17559 
L 257.358729 165.065376 
L 257.469159 175.472893 
L 257.51333 169.447488 
L 257.690017 149.015889 
L 257.697379 148.824171 
L 257.719465 150.412687 
L 257.932961 172.186309 
L 257.962409 169.666594 
L 258.139096 157.122797 
L 258.146458 157.177573 
L 258.197991 162.983872 
L 258.389402 179.855006 
L 258.41885 177.253126 
L 258.64707 152.631131 
L 258.669156 153.178896 
L 258.816395 168.406737 
L 258.875291 160.929757 
L 259.044615 145.701916 
L 259.243388 112.452637 
L 259.280198 116.779973 
L 259.766086 224.9086 
L 259.824982 216.883856 
L 260.11946 159.806841 
L 260.170993 163.011261 
L 260.193079 163.559025 
L 260.244613 161.915732 
L 260.251975 161.888344 
L 260.266699 162.134838 
L 260.406576 174.651247 
L 260.458109 166.599115 
L 260.620072 149.673205 
L 260.634796 149.180218 
L 260.664244 152.138144 
L 260.863017 172.021979 
L 260.87774 171.611156 
L 261.076513 157.095409 
L 261.120685 161.121474 
L 261.326819 180.430158 
L 261.348905 178.732089 
L 261.591849 151.919038 
L 261.621297 153.56233 
L 261.753812 167.530314 
L 261.812708 160.73804 
L 261.886327 146.304456 
L 261.974671 147.263044 
L 262.180805 111.850097 
L 262.232339 119.820064 
L 262.445835 179.498959 
L 262.674056 223.018814 
L 262.703504 224.799047 
L 262.740313 220.526487 
L 263.056877 160.162887 
L 263.14522 162.764767 
L 263.189392 161.422745 
L 263.226202 163.202978 
L 263.343993 175.774163 
L 263.388165 169.858311 
L 263.564851 149.536264 
L 263.572213 149.508876 
L 263.579575 149.864923 
L 263.800434 172.788849 
L 263.859329 167.092103 
L 264.01393 158.026607 
L 264.021292 158.13616 
L 264.205341 171.309886 
L 264.264237 179.416794 
L 264.323132 172.761461 
L 264.521905 152.110756 
L 264.588162 157.23235 
L 264.69123 168.379348 
L 264.742763 162.956484 
L 264.985707 131.323109 
L 265.118223 114.315035 
L 265.169756 121.956344 
L 265.383253 181.333969 
L 265.611473 222.799708 
L 265.633559 224.196507 
L 265.677731 220.006112 
L 265.994294 159.642511 
L 266.09 161.860956 
L 266.126809 160.57371 
L 266.170981 163.17559 
L 266.28141 174.569082 
L 266.325582 168.379348 
L 266.502269 149.098053 
L 266.516993 149.536264 
L 266.737851 173.39139 
L 266.796747 167.612479 
L 266.951348 158.273101 
L 266.95871 158.410042 
L 267.201654 178.595148 
L 267.260549 171.830262 
L 267.466684 151.12478 
L 267.52558 155.99988 
L 267.628647 167.530314 
L 267.68018 162.080062 
L 267.915763 131.870873 
L 268.05564 114.808023 
L 268.099811 121.189474 
L 268.379565 198.205102 
L 268.578338 223.703519 
L 268.600424 222.00545 
L 268.755025 186.455563 
L 268.931712 159.6699 
L 268.953797 160.655875 
L 268.997969 162.764767 
L 269.064227 160.683263 
L 269.078951 160.929757 
L 269.174656 170.899063 
L 269.218828 173.720048 
L 269.255637 169.447488 
L 269.439686 149.618429 
L 269.461772 151.042616 
L 269.675268 173.665272 
L 269.704716 172.049368 
L 269.888765 158.492207 
L 269.910851 159.560347 
L 270.139071 177.80089 
L 270.168519 175.171623 
L 270.404101 151.097392 
L 270.433549 152.603743 
L 270.566064 166.21568 
L 270.617598 161.176251 
L 270.85318 131.92565 
L 270.993057 115.054516 
L 271.037229 121.572909 
L 271.280173 188.372737 
L 271.508393 223.347472 
L 271.530479 222.525826 
L 271.626185 202.094227 
L 271.869129 160.080723 
L 271.883853 160.491546 
L 271.928024 162.463496 
L 271.98692 160.491546 
L 272.001644 160.299828 
L 272.031092 161.532298 
L 272.156245 172.761461 
L 272.193055 168.488901 
L 272.369741 150.796122 
L 272.377103 150.659181 
L 272.399189 152.165532 
L 272.612686 173.774824 
L 272.649495 170.844287 
L 272.826182 158.875642 
L 272.840906 159.478182 
L 273.076488 177.691337 
L 273.105936 174.678635 
L 273.341518 150.713957 
L 273.356242 151.234333 
L 273.503481 166.38001 
L 273.562377 159.450794 
L 273.635996 146.496174 
L 273.72434 146.578339 
L 273.930474 115.109293 
L 273.967284 120.011781 
L 274.453173 224.14173 
L 274.526792 212.036144 
L 274.806546 159.396018 
L 274.828632 160.327217 
L 274.872804 161.751403 
L 274.924337 159.50557 
L 274.939061 159.231688 
L 274.968509 160.683263 
L 275.0863 172.15892 
L 275.130472 167.58509 
L 275.307159 150.604404 
L 275.314521 150.494852 
L 275.329244 151.289109 
L 275.550103 173.665272 
L 275.594275 169.940476 
L 275.756237 160.245052 
L 275.770961 160.57371 
L 276.013906 177.855667 
L 276.065439 171.720709 
L 276.271574 150.467463 
L 276.330469 154.603082 
L 276.433537 166.407398 
L 276.48507 161.778791 
L 276.742738 130.309746 
L 276.867892 115.547504 
L 276.919425 122.969707 
L 277.081388 163.120813 
L 277.324332 217.787667 
L 277.383228 223.648743 
L 277.434762 217.951996 
L 277.743963 159.834229 
L 277.810221 161.751403 
L 277.876478 159.478182 
L 277.913288 161.504909 
L 278.023717 171.939815 
L 278.067889 167.009938 
L 278.244576 150.850898 
L 278.251938 150.741345 
L 278.266662 151.508215 
L 278.48752 173.254449 
L 278.531692 169.310547 
L 278.693655 159.532959 
L 278.708379 159.806841 
L 278.943961 177.773502 
L 279.002856 171.611156 
L 279.208991 151.316498 
L 279.28261 156.355927 
L 279.370954 165.667916 
L 279.422488 161.203639 
L 279.680156 130.665792 
L 279.797947 116.560868 
L 279.856842 124.503447 
L 280.011443 161.422745 
L 280.269112 218.773642 
L 280.320645 223.867848 
L 280.372179 218.034161 
L 280.688743 159.943782 
L 280.769724 160.929757 
L 280.806534 159.806841 
L 280.850705 161.997897 
L 280.961135 171.994591 
L 281.005306 167.174267 
L 281.174631 152.110756 
L 281.189355 151.836874 
L 281.218803 154.466141 
L 281.417575 172.92579 
L 281.432299 172.597132 
L 281.638434 159.176912 
L 281.675244 162.217003 
L 281.881378 177.390067 
L 281.896102 176.814915 
L 282.146408 150.905675 
L 282.205304 155.287787 
L 282.315733 165.503587 
L 282.359905 161.066698 
L 282.602849 131.953038 
L 282.735364 116.396538 
L 282.779536 121.70985 
L 283.000394 180.074111 
L 283.235977 222.16978 
L 283.258062 223.621354 
L 283.302234 218.937972 
L 283.618798 159.943782 
L 283.699779 161.285804 
L 283.751313 159.943782 
L 283.780761 161.395357 
L 283.905914 172.460191 
L 283.942724 167.694643 
L 284.112048 153.151507 
L 284.126772 152.685908 
L 284.163582 156.136821 
L 284.354993 171.802874 
L 284.377079 171.09078 
L 284.568489 159.122136 
L 284.605299 161.258415 
L 284.818795 176.267151 
L 284.826157 175.993269 
L 285.069102 151.261721 
L 285.150083 157.040632 
L 285.245788 165.394034 
L 285.297322 160.436769 
L 285.378303 145.318481 
L 285.466647 146.414009 
L 285.672781 117.13602 
L 285.724315 123.517471 
L 285.901002 165.996575 
L 286.151308 219.321407 
L 286.19548 223.046202 
L 286.239651 218.116326 
L 286.556215 159.450794 
L 286.629835 161.751403 
L 286.644559 161.696627 
L 286.681368 161.066698 
L 286.710816 161.943121 
L 286.835969 173.39139 
L 286.880141 167.941137 
L 287.042104 153.72666 
L 287.056828 153.041954 
L 287.100999 156.876303 
L 287.29241 173.309225 
L 287.307134 172.816237 
L 287.513268 159.834229 
L 287.550078 162.436108 
L 287.756213 176.568421 
L 287.778298 174.842964 
L 288.006519 151.727321 
L 288.035967 152.822849 
L 288.190568 166.106127 
L 288.234739 161.395357 
L 288.455598 136.280374 
L 288.610199 117.492067 
L 288.639646 120.093946 
L 288.853143 172.843625 
L 289.096087 219.540512 
L 289.132897 222.060227 
L 289.177069 217.048186 
L 289.493632 159.341241 
L 289.567252 161.477521 
L 289.626147 160.57371 
L 289.648233 161.395357 
L 289.773386 172.487579 
L 289.817558 166.845609 
L 289.979521 153.836212 
L 289.994245 153.288448 
L 290.031055 156.273762 
L 290.222465 172.898402 
L 290.244551 172.131532 
L 290.450686 159.560347 
L 290.480133 161.367968 
L 290.69363 175.335952 
L 290.708354 174.459529 
L 290.951298 152.19292 
L 290.988108 154.301812 
L 291.120623 166.325233 
L 291.172157 160.73804 
L 291.253138 146.24968 
L 291.341481 146.742668 
L 291.547616 117.985054 
L 291.591788 122.942319 
L 291.775836 167.74942 
L 292.033504 220.0335 
L 292.070314 222.635379 
L 292.114486 217.486397 
L 292.43105 159.176912 
L 292.504669 161.532298 
L 292.556203 160.73804 
L 292.578289 161.395357 
L 292.710804 173.144896 
L 292.754975 167.229044 
L 292.909576 155.342564 
L 292.931662 153.836212 
L 292.983196 158.245713 
L 293.159882 172.432802 
L 293.18933 171.172945 
L 293.388103 158.738701 
L 293.402827 159.368629 
L 293.631047 175.609834 
L 293.667857 171.775486 
L 293.881353 152.110756 
L 293.910801 153.014566 
L 294.05804 165.804857 
L 294.109574 160.245052 
L 294.190555 146.468786 
L 294.271537 148.249019 
L 294.485033 117.985054 
L 294.543929 125.188152 
L 294.66172 149.4541 
L 294.978284 219.923947 
L 295.007731 221.375522 
L 295.044541 217.267291 
L 295.361105 159.50557 
L 295.45681 161.970509 
L 295.478896 161.751403 
L 295.515706 162.463496 
L 295.640859 173.528331 
L 295.692393 167.393373 
L 295.846994 155.369952 
L 295.869079 154.301812 
L 295.913251 157.780114 
L 296.0973 171.912427 
L 296.119386 171.063392 
L 296.318158 158.190937 
L 296.354968 160.162887 
L 296.568464 175.171623 
L 296.59055 173.336613 
L 296.826133 152.795461 
L 296.848218 153.617107 
L 296.995457 166.160904 
L 297.046991 160.929757 
L 297.127972 147.290432 
L 297.216316 147.454761 
L 297.42245 118.8067 
L 297.466622 124.037847 
L 297.628585 160.108111 
L 297.886253 215.788328 
L 297.937787 220.33477 
L 297.98932 215.076235 
L 298.298522 159.615123 
L 298.36478 162.627826 
L 298.431037 162.134838 
L 298.482571 165.120152 
L 298.585638 173.637883 
L 298.622448 169.4201 
L 298.791773 155.780775 
L 298.806497 155.205623 
L 298.850668 158.245713 
L 299.034717 171.25511 
L 299.064165 169.858311 
L 299.255575 157.83489 
L 299.277661 158.492207 
L 299.505882 174.459529 
L 299.542691 171.172945 
L 299.756188 153.206284 
L 299.80036 155.233011 
L 299.932875 166.38001 
L 299.977046 162.463496 
L 300.227353 133.760659 
L 300.359868 119.792676 
L 300.411401 125.81808 
L 300.55864 157.725337 
L 300.82367 215.404893 
L 300.875204 219.5679 
L 300.919376 215.651387 
L 301.235939 159.560347 
L 301.339007 162.627826 
L 301.361093 162.463496 
L 301.39054 163.148202 
L 301.515693 173.802213 
L 301.559865 169.173606 
L 301.721828 156.547645 
L 301.743914 155.69861 
L 301.788086 158.848254 
L 301.972134 171.748097 
L 301.99422 170.899063 
L 302.192993 157.122797 
L 302.229802 158.820865 
L 302.443299 173.939154 
L 302.480109 170.652569 
L 302.700967 152.795461 
L 302.752501 155.534281 
L 302.870292 165.969186 
L 302.921826 160.655875 
L 303.002807 147.92036 
L 303.083788 148.796783 
L 303.289923 120.532157 
L 303.348819 126.776667 
L 303.481334 153.206284 
L 303.76845 216.281316 
L 303.812621 219.814394 
L 303.856793 215.514446 
L 304.165995 159.478182 
L 304.269062 162.299167 
L 304.29851 162.189614 
L 304.313234 162.381332 
L 304.401577 170.543016 
L 304.453111 174.158259 
L 304.497282 169.447488 
L 304.659245 157.287126 
L 304.681331 156.575033 
L 304.718141 159.012583 
L 304.90219 172.021979 
L 304.938999 170.132193 
L 305.13041 156.931079 
L 305.152496 157.807502 
L 305.373354 174.048706 
L 305.410164 171.364663 
L 305.631022 152.329861 
L 305.667832 153.617107 
L 305.800347 165.448811 
L 305.859243 159.834229 
L 305.940224 147.838196 
L 306.021206 148.550289 
L 306.22734 120.586934 
L 306.286236 127.297043 
L 306.418751 154.3292 
L 306.705867 216.199151 
L 306.750039 219.677453 
L 306.79421 215.021459 
L 307.110774 158.766089 
L 307.191755 161.833568 
L 307.228565 161.724015 
L 307.265375 162.929096 
L 307.390528 174.459529 
L 307.4347 169.392712 
L 307.596663 157.177573 
L 307.618748 156.46548 
L 307.66292 159.450794 
L 307.846969 171.720709 
L 307.876417 169.8857 
L 308.067827 156.711974 
L 308.089913 157.670561 
L 308.310772 173.39139 
L 308.347581 170.762122 
L 308.56844 153.452778 
L 308.605249 154.575694 
L 308.745126 164.84627 
L 308.789298 160.655875 
L 309.032242 134.335812 
L 309.164757 120.888204 
L 309.208929 125.735916 
L 309.392978 168.078078 
L 309.635922 214.802353 
L 309.687456 218.609313 
L 309.731627 214.145036 
L 310.048191 159.532959 
L 310.151259 162.271779 
L 310.165982 162.244391 
L 310.188068 162.518273 
L 310.26905 169.392712 
L 310.327945 173.637883 
L 310.372117 168.899724 
L 310.53408 157.643173 
L 310.556166 157.06802 
L 310.592975 159.587735 
L 310.777024 171.611156 
L 310.806472 170.132193 
L 311.005244 156.739362 
L 311.034692 158.026607 
L 311.248189 173.829601 
L 311.284999 171.25511 
L 311.505857 153.370613 
L 311.550029 155.315175 
L 311.675182 164.709329 
L 311.726715 160.518934 
L 311.954936 136.389927 
L 312.094813 121.819403 
L 312.131623 124.640388 
L 312.345119 173.500942 
L 312.595425 216.719527 
L 312.624873 218.19849 
L 312.669045 213.761601 
L 312.978247 160.135499 
L 313.06659 162.600437 
L 313.096038 162.518273 
L 313.140209 163.641189 
L 313.265363 173.856989 
L 313.309534 169.228383 
L 313.478859 157.177573 
L 313.493583 156.931079 
L 313.523031 158.410042 
L 313.714441 170.762122 
L 313.751251 168.790171 
L 313.942662 156.273762 
L 313.964748 157.06802 
L 314.185606 173.528331 
L 314.229778 170.159582 
L 314.443274 152.932402 
L 314.494808 155.39734 
L 314.612599 164.654553 
L 314.664133 160.162887 
L 314.907077 134.226259 
L 315.039592 122.531496 
L 315.076402 126.174127 
L 315.26045 166.407398 
L 315.510757 213.980707 
L 315.56229 217.787667 
L 315.606462 213.350778 
L 315.915664 159.97117 
L 316.018731 162.573049 
L 316.033455 162.490885 
L 316.062903 162.956484 
L 316.151246 170.926451 
L 316.20278 174.048706 
L 316.23959 170.597793 
L 316.416276 156.958468 
L 316.431 156.684586 
L 316.460448 158.273101 
L 316.651859 171.118169 
L 316.681306 169.858311 
L 316.880079 157.013244 
L 316.909527 158.629148 
L 317.123023 173.336613 
L 317.159833 170.734734 
L 317.380691 153.370613 
L 317.432225 155.534281 
L 317.550016 163.915071 
L 317.60155 159.450794 
L 317.82977 136.252986 
L 317.969647 122.339779 
L 318.006457 125.160764 
L 318.20523 169.584429 
L 318.455536 215.404893 
L 318.492346 218.088937 
L 318.536517 214.309365 
L 318.853081 159.998558 
L 318.970872 162.490885 
L 318.985596 162.518273 
L 319.03713 165.476199 
L 319.140197 173.254449 
L 319.177007 169.72137 
L 319.353694 156.739362 
L 319.361055 156.575033 
L 319.390503 157.725337 
L 319.589276 170.78951 
L 319.626086 168.872336 
L 319.817496 157.095409 
L 319.83222 157.561008 
L 320.060441 172.980567 
L 320.104612 169.639206 
L 320.310747 153.370613 
L 320.377004 156.109433 
L 320.480072 163.805518 
L 320.531605 160.354605 
L 320.803997 131.788709 
L 320.907065 121.792014 
L 320.96596 127.707866 
L 321.105837 157.259738 
L 321.378229 213.953319 
L 321.429763 217.650726 
L 321.473935 213.788989 
L 321.790498 160.984533 
L 321.886204 163.586413 
L 321.915651 163.394695 
L 321.945099 164.024624 
L 322.070252 172.953178 
L 322.121786 167.694643 
L 322.276387 157.780114 
L 322.298473 156.876303 
L 322.350006 159.943782 
L 322.526693 170.899063 
L 322.563503 168.625842 
L 322.754914 157.259738 
L 322.769637 157.889666 
L 322.997858 172.679296 
L 323.042029 169.200994 
L 323.255526 153.781436 
L 323.314422 156.246374 
L 323.424851 163.942459 
L 323.469022 160.381993 
L 323.756138 130.528851 
L 323.844482 122.202838 
L 323.896015 127.105326 
L 324.050616 160.080723 
L 324.308285 212.419579 
L 324.36718 216.801692 
L 324.411352 212.912567 
L 324.727916 161.121474 
L 324.838345 163.504248 
L 324.853069 163.422084 
L 324.875155 163.942459 
L 325.00767 172.953178 
L 325.051841 168.81756 
L 325.213804 158.026607 
L 325.23589 157.095409 
L 325.287424 160.025946 
L 325.456748 170.625181 
L 325.493558 168.872336 
L 325.684969 156.821527 
L 325.707055 157.506232 
L 325.927913 172.816237 
L 325.972085 169.748759 
L 326.192943 153.480166 
L 326.229753 154.767411 
L 326.354906 163.093425 
L 326.40644 159.2043 
L 326.67147 132.035203 
L 326.781899 122.586272 
L 326.833433 127.543537 
L 326.980672 158.273101 
L 327.245702 211.844427 
L 327.304597 215.843105 
L 327.348769 211.926592 
L 327.657971 161.696627 
L 327.761038 163.860295 
L 327.783124 163.668577 
L 327.812572 164.216341 
L 327.945087 172.788849 
L 327.989259 168.543678 
L 328.151221 157.889666 
L 328.173307 157.06802 
L 328.224841 160.025946 
L 328.394166 170.351299 
L 328.430975 168.461513 
L 328.622386 157.204961 
L 328.63711 157.506232 
L 328.86533 173.035343 
L 328.916864 169.146218 
L 329.122999 153.671883 
L 329.189256 156.547645 
L 329.292323 162.764767 
L 329.336495 160.025946 
L 329.682507 125.681139 
L 329.719316 123.38053 
L 329.763488 127.570925 
L 329.932813 163.860295 
L 330.183119 211.241887 
L 330.242015 214.939294 
L 330.278824 211.65271 
L 330.60275 162.353944 
L 330.720541 164.134177 
L 330.757351 165.037988 
L 330.875142 172.761461 
L 330.919314 169.474876 
L 331.096001 157.204961 
L 331.110725 156.903691 
L 331.140172 158.355266 
L 331.331583 170.707346 
L 331.361031 169.365324 
L 331.559803 157.013244 
L 331.589251 158.382654 
L 331.802748 172.514967 
L 331.832195 170.707346 
L 332.060416 153.890989 
L 332.097226 155.260399 
L 332.222379 162.545661 
L 332.273912 159.478182 
L 332.583114 129.707205 
L 332.649372 123.818742 
L 332.700905 128.310407 
L 332.862868 162.134838 
L 333.113174 210.392852 
L 333.17207 214.418918 
L 333.216242 211.18711 
L 333.540167 162.737378 
L 333.657959 164.353282 
L 333.680044 164.736717 
L 333.812559 172.569743 
L 333.864093 167.968525 
L 334.026056 157.999219 
L 334.048142 157.396679 
L 334.092313 159.97117 
L 334.269 170.652569 
L 334.30581 168.571066 
L 334.497221 157.150185 
L 334.511944 157.588396 
L 334.740165 172.186309 
L 334.791699 168.461513 
L 334.997833 154.274424 
L 335.071453 157.287126 
L 335.159796 161.997897 
L 335.203968 159.560347 
L 335.586789 123.955683 
L 335.608875 125.023822 
L 335.770838 153.370613 
L 336.065316 211.324051 
L 336.109487 214.117648 
L 336.153659 210.694122 
L 336.477585 163.093425 
L 336.595376 164.408059 
L 336.624824 164.901047 
L 336.749977 172.186309 
L 336.794148 168.598454 
L 336.963473 157.971831 
L 336.985559 157.53362 
L 337.022369 159.50557 
L 337.206417 170.022641 
L 337.243227 167.804196 
L 337.427276 157.588396 
L 337.449362 158.190937 
L 337.677582 172.761461 
L 337.729116 168.927112 
L 337.93525 154.7948 
L 338.016232 158.273101 
L 338.089851 162.271779 
L 338.141385 159.368629 
L 338.524206 123.736577 
L 338.561016 126.448009 
L 338.737703 162.600437 
L 338.995371 210.338076 
L 339.046904 213.487719 
L 339.091076 210.283299 
L 339.40764 163.257754 
L 339.547517 164.380671 
L 339.687394 172.295861 
L 339.731566 168.35196 
L 339.90089 157.697949 
L 339.922976 157.204961 
L 339.959786 159.231688 
L 340.136473 169.365324 
L 340.173283 167.667255 
L 340.372055 157.259738 
L 340.386779 157.752725 
L 340.614999 172.405414 
L 340.666533 168.625842 
L 340.872668 154.685247 
L 340.946287 157.643173 
L 341.027268 162.299167 
L 341.078802 159.396018 
L 341.432176 125.790692 
L 341.461623 124.202176 
L 341.505795 127.762643 
L 341.667758 159.861617 
L 341.932788 210.283299 
L 341.984322 213.487719 
L 342.028493 210.201135 
L 342.352419 163.832907 
L 342.484934 164.736717 
L 342.551192 168.571066 
L 342.624811 172.15892 
L 342.661621 169.283159 
L 342.84567 157.506232 
L 342.853032 157.478843 
L 342.867755 157.807502 
L 343.07389 169.337935 
L 343.132786 165.530975 
L 343.30211 157.396679 
L 343.316834 157.670561 
L 343.552417 172.241085 
L 343.611312 168.160243 
L 343.810085 154.876964 
L 343.898428 158.90303 
L 343.964686 162.299167 
L 344.008857 160.245052 
L 344.399041 124.777329 
L 344.413765 125.297705 
L 344.54628 143.373919 
L 344.921739 213.487719 
L 344.929101 213.350778 
L 345.00272 204.586553 
L 345.289836 164.134177 
L 345.334008 164.681941 
L 345.348732 164.764106 
L 345.392904 164.353282 
L 345.407628 164.298506 
L 345.437075 164.84627 
L 345.562228 171.419439 
L 345.599038 168.625842 
L 345.768363 158.711313 
L 345.790449 158.13616 
L 345.834621 160.381993 
L 346.011307 169.064053 
L 346.040755 167.74942 
L 346.239528 157.615784 
L 346.268975 158.766089 
L 346.482472 172.049368 
L 346.519282 169.940476 
L 346.74014 154.466141 
L 346.791674 156.383315 
L 346.902103 162.052673 
L 346.946275 159.779453 
L 347.336458 125.407257 
L 347.351182 125.900245 
L 347.483697 143.949071 
L 347.859156 213.62466 
L 347.866518 213.460331 
L 347.940138 204.860435 
L 348.227254 164.408059 
L 348.264063 164.955823 
L 348.278787 165.010599 
L 348.315597 164.627164 
L 348.345045 164.216341 
L 348.381855 165.092764 
L 348.499646 171.802874 
L 348.536455 168.735395 
L 348.713142 158.273101 
L 348.727866 157.944443 
L 348.764676 159.450794 
L 348.948725 169.228383 
L 348.978172 168.05069 
L 349.176945 157.588396 
L 349.199031 158.245713 
L 349.419889 172.432802 
L 349.471423 169.146218 
L 349.684919 154.740023 
L 349.765901 157.944443 
L 349.83952 161.34058 
L 349.883692 159.067359 
L 350.266513 125.160764 
L 350.273875 125.188152 
L 350.332771 130.55624 
L 350.457924 153.72666 
L 350.767126 211.981368 
L 350.796573 213.159061 
L 350.840745 209.735535 
L 351.289824 164.161565 
L 351.304548 164.380671 
L 351.429701 171.474215 
L 351.481235 167.420761 
L 351.643198 158.30049 
L 351.665283 157.670561 
L 351.709455 159.752064 
L 351.886142 169.064053 
L 351.922952 167.28382 
L 352.114362 157.807502 
L 352.136448 158.519595 
L 352.357306 173.007955 
L 352.40884 169.584429 
L 352.622337 155.068682 
L 352.688594 157.643173 
L 352.776938 161.422745 
L 352.821109 158.90303 
L 353.211292 124.941658 
L 353.218654 125.133375 
L 353.321722 136.225598 
L 353.733991 212.25525 
L 353.80761 204.723494 
L 354.102088 164.681941 
L 354.153622 165.229705 
L 354.219879 164.380671 
L 354.249327 165.037988 
L 354.367118 171.474215 
L 354.41129 168.324572 
L 354.587977 157.725337 
L 354.602701 157.424067 
L 354.63951 159.094747 
L 354.823559 168.516289 
L 354.853007 167.229044 
L 355.051779 157.643173 
L 355.073865 158.355266 
L 355.294724 172.295861 
L 355.331533 170.132193 
L 355.552392 155.589057 
L 355.603926 157.06802 
L 355.706993 161.367968 
L 355.758526 158.848254 
L 356.141348 125.81808 
L 356.163434 126.58495 
L 356.318035 150.686569 
L 356.64196 211.104946 
L 356.664046 212.118309 
L 356.708218 209.406877 
L 356.892266 175.582446 
L 357.046867 164.791494 
L 357.054229 164.873658 
L 357.076315 165.120152 
L 357.135211 164.490223 
L 357.157297 164.380671 
L 357.186744 165.010599 
L 357.304536 171.282498 
L 357.348707 168.187631 
L 357.525394 157.944443 
L 357.540118 157.780114 
L 357.569566 159.012583 
L 357.753614 168.625842 
L 357.783062 167.667255 
L 357.989197 157.643173 
L 358.011283 158.574372 
L 358.232141 172.432802 
L 358.276313 169.502265 
L 358.489809 155.342564 
L 358.556067 157.643173 
L 358.64441 161.477521 
L 358.688582 159.423406 
L 359.078765 125.653751 
L 359.115575 127.790031 
L 359.277538 157.040632 
L 359.557292 209.352101 
L 359.601463 212.008756 
L 359.652997 208.283961 
L 360.094714 164.654553 
L 360.109438 164.928435 
L 360.241953 171.638545 
L 360.286124 168.35196 
L 360.462811 158.218325 
L 360.477535 157.971831 
L 360.506983 159.286465 
L 360.691032 168.297184 
L 360.727841 166.790833 
L 360.919252 157.588396 
L 360.9487 158.410042 
L 361.162196 171.912427 
L 361.206368 169.337935 
L 361.419864 155.260399 
L 361.471398 156.931079 
L 361.581827 162.052673 
L 361.625999 159.916394 
L 362.016182 125.98241 
L 362.04563 127.461373 
L 362.207593 155.315175 
L 362.502071 209.762924 
L 362.538881 211.543157 
L 362.583052 208.44829 
L 363.017407 164.517612 
L 363.054217 165.174929 
L 363.17937 172.049368 
L 363.223542 168.680619 
L 363.400228 158.245713 
L 363.40759 158.081384 
L 363.4444 159.341241 
L 363.628449 168.324572 
L 363.657897 167.338597 
L 363.864031 157.697949 
L 363.886117 158.629148 
L 364.099614 171.967203 
L 364.136423 169.8857 
L 364.357282 155.150846 
L 364.401453 156.520256 
L 364.511883 161.532298 
L 364.563416 159.313853 
L 364.9536 126.174127 
L 364.968323 126.667115 
L 365.093477 142.470108 
L 365.476298 211.351439 
L 365.498384 210.283299 
L 365.645623 187.605867 
L 365.851757 164.681941 
L 365.873843 164.873658 
L 365.954824 164.764106 
L 366.028444 167.804196 
L 366.109425 172.131532 
L 366.153597 169.529653 
L 366.345008 157.83489 
L 366.367094 158.327878 
L 366.565866 168.187631 
L 366.610038 165.996575 
L 366.794087 157.889666 
L 366.80881 158.108772 
L 367.007583 170.48824 
L 367.037031 171.994591 
L 367.088564 168.571066 
L 367.294699 155.013905 
L 367.360957 157.341902 
L 367.4493 161.258415 
L 367.500834 158.90303 
L 367.891017 126.475397 
L 367.905741 126.995773 
L 368.038256 144.688552 
L 368.406353 211.077557 
L 368.421077 210.831064 
L 368.502058 201.409522 
L 368.789174 164.599776 
L 368.803898 164.736717 
L 368.980585 168.81756 
L 369.054205 171.85765 
L 369.091014 169.173606 
L 369.275063 158.108772 
L 369.282425 158.026607 
L 369.304511 158.683924 
L 369.495921 168.242407 
L 369.540093 166.489562 
L 369.731504 158.026607 
L 369.746228 158.245713 
L 369.974448 172.213697 
L 370.048068 167.722031 
L 370.232116 155.123458 
L 370.327822 158.629148 
L 370.386717 161.03931 
L 370.430889 159.259077 
L 370.828434 126.749279 
L 370.857882 128.693842 
L 371.019845 156.903691 
L 371.306961 208.968666 
L 371.351132 210.913228 
L 371.395304 207.736197 
L 371.586715 172.871014 
L 371.726592 164.599776 
L 371.741316 164.764106 
L 371.940088 170.460852 
L 371.98426 171.994591 
L 372.02107 170.104805 
L 372.219842 158.355266 
L 372.227204 158.382654 
L 372.322909 162.901708 
L 372.440701 167.722031 
L 372.484872 165.394034 
L 372.668921 157.971831 
L 372.676283 158.108772 
L 372.838246 167.092103 
L 372.911865 171.994591 
L 372.963399 168.571066 
L 373.169534 154.822188 
L 373.243153 157.424067 
L 373.324134 160.792816 
L 373.368306 159.067359 
L 373.758489 126.776667 
L 373.802661 129.570264 
L 373.971986 161.395357 
L 374.244378 208.996054 
L 374.281188 210.831064 
L 374.332721 207.517091 
L 374.51677 173.884377 
L 374.664009 164.791494 
L 374.671371 164.84627 
L 374.811248 166.38001 
L 374.921677 172.104144 
L 374.965849 169.255771 
L 375.149898 158.738701 
L 375.157259 158.656536 
L 375.179345 159.313853 
L 375.370756 167.831584 
L 375.414928 166.051351 
L 375.606338 158.163549 
L 375.6137 158.218325 
L 375.679958 162.025285 
L 375.841921 171.611156 
L 375.900816 168.269796 
L 376.106951 154.959129 
L 376.18057 157.588396 
L 376.261552 160.957145 
L 376.305723 159.2043 
L 376.695907 127.05055 
L 376.725354 128.529513 
L 376.887317 155.287787 
L 377.189157 209.297324 
L 377.218605 210.502405 
L 377.262777 207.900526 
L 377.432101 178.156937 
L 377.601426 164.654553 
L 377.778113 167.74942 
L 377.859094 171.583768 
L 377.903266 168.927112 
L 378.087315 159.094747 
L 378.094677 159.067359 
L 378.109401 159.396018 
L 378.308173 167.886361 
L 378.359707 165.339258 
L 378.543756 157.917055 
L 378.551118 158.026607 
L 378.742528 169.091442 
L 378.7867 171.446827 
L 378.838233 168.160243 
L 379.044368 155.013905 
L 379.132711 158.546983 
L 379.198969 161.121474 
L 379.243141 159.2043 
L 379.633324 127.35182 
L 379.640686 127.461373 
L 379.736391 136.937691 
L 379.88363 172.405414 
L 380.141298 209.735535 
L 380.156022 210.036806 
L 380.192832 208.010079 
L 380.354795 181.498298 
L 380.538843 164.791494 
L 380.575653 165.065376 
L 380.612463 164.764106 
L 380.634549 164.545 
L 380.671359 165.14754 
L 380.796512 171.55638 
L 380.840683 168.680619 
L 381.024732 158.766089 
L 381.032094 158.711313 
L 381.046818 159.067359 
L 381.24559 167.722031 
L 381.289762 165.667916 
L 381.473811 157.917055 
L 381.488535 158.081384 
L 381.716755 170.981228 
L 381.797737 166.516951 
L 381.981785 155.369952 
L 382.077491 158.985195 
L 382.129024 160.765428 
L 382.180558 158.574372 
L 382.570741 127.297043 
L 382.585465 127.790031 
L 382.71798 145.208928 
L 383.093439 210.009417 
L 383.108163 209.598594 
L 383.196507 198.615925 
L 383.476261 164.955823 
L 383.571966 164.928435 
L 383.630862 166.845609 
L 383.733929 171.912427 
L 383.770739 169.8857 
L 383.969511 159.286465 
L 384.021045 161.532298 
L 384.175646 167.74942 
L 384.219817 166.297845 
L 384.411228 158.053996 
L 384.425952 158.245713 
L 384.654172 170.543016 
L 384.735154 166.462174 
L 384.911841 155.369952 
L 385.014908 158.930418 
L 385.066441 160.765428 
L 385.117975 158.574372 
L 385.500796 127.543537 
L 385.530244 128.803395 
L 385.684845 153.26106 
L 386.001409 209.160383 
L 386.030857 209.8177 
L 386.067666 207.571867 
L 386.244353 177.609173 
L 386.406316 165.010599 
L 386.413678 165.092764 
L 386.502021 165.037988 
L 386.590365 168.297184 
L 386.671346 171.583768 
L 386.708156 169.502265 
L 386.899567 159.286465 
L 386.91429 159.396018 
L 387.120425 167.448149 
L 387.179321 164.462835 
L 387.348645 158.245713 
L 387.363369 158.437431 
L 387.547418 167.968525 
L 387.59159 170.48824 
L 387.650485 167.502926 
L 387.849258 155.479505 
L 387.937601 158.355266 
L 388.003859 160.628487 
L 388.04803 158.985195 
L 388.438214 127.433984 
L 388.497109 132.172144 
L 388.65171 161.860956 
L 388.924102 208.256572 
L 388.960912 209.598594 
L 389.005084 207.161044 
L 389.167047 180.430158 
L 389.343733 165.421422 
L 389.358457 165.476199 
L 389.387905 165.667916 
L 389.439439 165.229705 
L 389.454163 165.202317 
L 389.468886 165.448811 
L 389.608763 171.528992 
L 389.660297 167.557702 
L 389.829622 159.313853 
L 389.836984 159.149524 
L 389.881155 160.628487 
L 390.05048 167.448149 
L 390.08729 166.407398 
L 390.286063 158.245713 
L 390.308148 158.793477 
L 390.529007 170.296523 
L 390.573179 168.023302 
L 390.786675 155.780775 
L 390.852933 157.670561 
L 390.941276 160.518934 
L 390.985448 158.820865 
L 391.375631 127.625702 
L 391.419803 130.720569 
L 391.596489 164.408059 
L 391.86152 208.311349 
L 391.898329 209.790312 
L 391.942501 207.297985 
L 392.384218 165.229705 
L 392.421028 165.969186 
L 392.546181 171.474215 
L 392.58299 169.255771 
L 392.774401 159.122136 
L 392.789125 159.231688 
L 392.987898 167.146879 
L 393.054155 163.915071 
L 393.22348 157.917055 
L 393.238204 158.190937 
L 393.466424 170.132193 
L 393.540044 166.571727 
L 393.724092 155.725998 
L 393.834522 159.039971 
L 393.878693 160.053335 
L 393.922865 158.245713 
L 394.313048 127.625702 
L 394.349858 129.981087 
L 394.526545 162.682602 
L 394.798937 208.420902 
L 394.835747 209.762924 
L 394.879918 207.051491 
L 395.041881 179.964558 
L 395.218568 165.257093 
L 395.262739 165.421422 
L 395.299549 165.14754 
L 395.314273 165.174929 
L 395.328997 165.229705 
L 395.387893 167.502926 
L 395.483598 171.474215 
L 395.520408 169.11883 
L 395.704456 159.806841 
L 395.711818 159.6699 
L 395.748628 160.792816 
L 395.925315 167.28382 
L 395.962125 166.023963 
L 396.160897 158.163549 
L 396.175621 158.492207 
L 396.403841 170.18697 
L 396.477461 166.708668 
L 396.595252 157.369291 
L 396.66151 155.479505 
L 396.713043 156.876303 
L 396.816111 159.752064 
L 396.85292 158.574372 
L 397.250465 128.009137 
L 397.309361 133.048566 
L 397.471324 165.174929 
L 397.736354 208.44829 
L 397.773164 209.680759 
L 397.817335 206.969327 
L 398.25169 165.14754 
L 398.2885 165.750081 
L 398.421015 171.392051 
L 398.457825 169.009277 
L 398.487273 165.394034 
L 398.487273 165.394034 
" clip-path="url(#ped392a9514)" style="fill: none; stroke: #1f77b4; stroke-width: 1.5; stroke-linecap: square"/>
   </g>
   <g id="patch_3">
    <path d="M 57.6 307.584 
L 57.6 41.472 
" style="fill: none; stroke: #000000; stroke-width: 0.8; stroke-linejoin: miter; stroke-linecap: square"/>
   </g>
   <g id="patch_4">
    <path d="M 414.72 307.584 
L 414.72 41.472 
" style="fill: none; stroke: #000000; stroke-width: 0.8; stroke-linejoin: miter; stroke-linecap: square"/>
   </g>
   <g id="patch_5">
    <path d="M 57.6 307.584 
L 414.72 307.584 
" style="fill: none; stroke: #000000; stroke-width: 0.8; stroke-linejoin: miter; stroke-linecap: square"/>
   </g>
   <g id="patch_6">
    <path d="M 57.6 41.472 
L 414.72 41.472 
" style="fill: none; stroke: #000000; stroke-width: 0.8; stroke-linejoin: miter; stroke-linecap: square"/>
   </g>
   <g id="text_14">
    <text style="font: 12px 'IPAexGothic'; text-anchor: middle" x="236.16" y="35.472" transform="rotate(-0 236.16 35.472)">"003_A2.wav"の波形グラフ</text>
   </g>
  </g>
 </g>
 <defs>
  <clipPath id="ped392a9514">
   <rect x="57.6" y="41.472" width="357.12" height="266.112"/>
  </clipPath>
 </defs>
</svg>
