<?xml version="1.0" encoding="utf-8" standalone="no"?>
<!DOCTYPE svg PUBLIC "-//W3C//DTD SVG 1.1//EN"
  "http://www.w3.org/Graphics/SVG/1.1/DTD/svg11.dtd">
<svg xmlns:xlink="http://www.w3.org/1999/xlink" width="460.8pt" height="345.6pt" viewBox="0 0 460.8 345.6" xmlns="http://www.w3.org/2000/svg" version="1.1">
 <metadata>
  <rdf:RDF xmlns:dc="http://purl.org/dc/elements/1.1/" xmlns:cc="http://creativecommons.org/ns#" xmlns:rdf="http://www.w3.org/1999/02/22-rdf-syntax-ns#">
   <cc:Work>
    <dc:type rdf:resource="http://purl.org/dc/dcmitype/StillImage"/>
    <dc:date>2022-11-28T12:34:13.488136</dc:date>
    <dc:format>image/svg+xml</dc:format>
    <dc:creator>
     <cc:Agent>
      <dc:title>Matplotlib v3.6.2, https://matplotlib.org/</dc:title>
     </cc:Agent>
    </dc:creator>
   </cc:Work>
  </rdf:RDF>
 </metadata>
 <defs>
  <style type="text/css">*{stroke-linejoin: round; stroke-linecap: butt}</style>
 </defs>
 <g id="figure_1">
  <g id="patch_1">
   <path d="M 0 345.6 
L 460.8 345.6 
L 460.8 0 
L 0 0 
z
" style="fill: #ffffff"/>
  </g>
  <g id="axes_1">
   <g id="patch_2">
    <path d="M 57.6 307.584 
L 414.72 307.584 
L 414.72 41.472 
L 57.6 41.472 
z
" style="fill: #ffffff"/>
   </g>
   <g id="matplotlib.axis_1">
    <g id="xtick_1">
     <g id="line2d_1">
      <defs>
       <path id="m388a16846d" d="M 0 0 
L 0 3.5 
" style="stroke: #000000; stroke-width: 0.8"/>
      </defs>
      <g>
       <use xlink:href="#m388a16846d" x="73.832727" y="307.584" style="stroke: #000000; stroke-width: 0.8"/>
      </g>
     </g>
     <g id="text_1">
      <text style="font: 10px 'IPAexGothic'; text-anchor: middle" x="73.832727" y="322.074625" transform="rotate(-0 73.832727 322.074625)">0.0</text>
     </g>
    </g>
    <g id="xtick_2">
     <g id="line2d_2">
      <g>
       <use xlink:href="#m388a16846d" x="138.765109" y="307.584" style="stroke: #000000; stroke-width: 0.8"/>
      </g>
     </g>
     <g id="text_2">
      <text style="font: 10px 'IPAexGothic'; text-anchor: middle" x="138.765109" y="322.074625" transform="rotate(-0 138.765109 322.074625)">0.2</text>
     </g>
    </g>
    <g id="xtick_3">
     <g id="line2d_3">
      <g>
       <use xlink:href="#m388a16846d" x="203.69749" y="307.584" style="stroke: #000000; stroke-width: 0.8"/>
      </g>
     </g>
     <g id="text_3">
      <text style="font: 10px 'IPAexGothic'; text-anchor: middle" x="203.69749" y="322.074625" transform="rotate(-0 203.69749 322.074625)">0.4</text>
     </g>
    </g>
    <g id="xtick_4">
     <g id="line2d_4">
      <g>
       <use xlink:href="#m388a16846d" x="268.629872" y="307.584" style="stroke: #000000; stroke-width: 0.8"/>
      </g>
     </g>
     <g id="text_4">
      <text style="font: 10px 'IPAexGothic'; text-anchor: middle" x="268.629872" y="322.074625" transform="rotate(-0 268.629872 322.074625)">0.6</text>
     </g>
    </g>
    <g id="xtick_5">
     <g id="line2d_5">
      <g>
       <use xlink:href="#m388a16846d" x="333.562253" y="307.584" style="stroke: #000000; stroke-width: 0.8"/>
      </g>
     </g>
     <g id="text_5">
      <text style="font: 10px 'IPAexGothic'; text-anchor: middle" x="333.562253" y="322.074625" transform="rotate(-0 333.562253 322.074625)">0.8</text>
     </g>
    </g>
    <g id="xtick_6">
     <g id="line2d_6">
      <g>
       <use xlink:href="#m388a16846d" x="398.494635" y="307.584" style="stroke: #000000; stroke-width: 0.8"/>
      </g>
     </g>
     <g id="text_6">
      <text style="font: 10px 'IPAexGothic'; text-anchor: middle" x="398.494635" y="322.074625" transform="rotate(-0 398.494635 322.074625)">1.0</text>
     </g>
    </g>
    <g id="text_7">
     <text style="font: 10px 'IPAexGothic'; text-anchor: middle" x="236.16" y="335.924625" transform="rotate(-0 236.16 335.924625)">時間[s]</text>
    </g>
   </g>
   <g id="matplotlib.axis_2">
    <g id="ytick_1">
     <g id="line2d_7">
      <defs>
       <path id="m4778941338" d="M 0 0 
L -3.5 0 
" style="stroke: #000000; stroke-width: 0.8"/>
      </defs>
      <g>
       <use xlink:href="#m4778941338" x="57.6" y="274.786053" style="stroke: #000000; stroke-width: 0.8"/>
      </g>
     </g>
     <g id="text_8">
      <text style="font: 10px 'IPAexGothic'; text-anchor: end" x="50.6" y="278.531365" transform="rotate(-0 50.6 278.531365)">−4000</text>
     </g>
    </g>
    <g id="ytick_2">
     <g id="line2d_8">
      <g>
       <use xlink:href="#m4778941338" x="57.6" y="222.966411" style="stroke: #000000; stroke-width: 0.8"/>
      </g>
     </g>
     <g id="text_9">
      <text style="font: 10px 'IPAexGothic'; text-anchor: end" x="50.6" y="226.711723" transform="rotate(-0 50.6 226.711723)">−2000</text>
     </g>
    </g>
    <g id="ytick_3">
     <g id="line2d_9">
      <g>
       <use xlink:href="#m4778941338" x="57.6" y="171.146768" style="stroke: #000000; stroke-width: 0.8"/>
      </g>
     </g>
     <g id="text_10">
      <text style="font: 10px 'IPAexGothic'; text-anchor: end" x="50.6" y="174.892081" transform="rotate(-0 50.6 174.892081)">0</text>
     </g>
    </g>
    <g id="ytick_4">
     <g id="line2d_10">
      <g>
       <use xlink:href="#m4778941338" x="57.6" y="119.327126" style="stroke: #000000; stroke-width: 0.8"/>
      </g>
     </g>
     <g id="text_11">
      <text style="font: 10px 'IPAexGothic'; text-anchor: end" x="50.6" y="123.072439" transform="rotate(-0 50.6 123.072439)">2000</text>
     </g>
    </g>
    <g id="ytick_5">
     <g id="line2d_11">
      <g>
       <use xlink:href="#m4778941338" x="57.6" y="67.507484" style="stroke: #000000; stroke-width: 0.8"/>
      </g>
     </g>
     <g id="text_12">
      <text style="font: 10px 'IPAexGothic'; text-anchor: end" x="50.6" y="71.252796" transform="rotate(-0 50.6 71.252796)">4000</text>
     </g>
    </g>
    <g id="text_13">
     <text style="font: 10px 'IPAexGothic'; text-anchor: middle" x="12.723438" y="174.528" transform="rotate(-90 12.723438 174.528)">振幅</text>
    </g>
   </g>
   <g id="line2d_12">
    <path d="M 73.832727 171.172678 
L 73.854813 171.069039 
L 73.847451 171.224498 
L 73.943156 171.094949 
L 73.99469 171.069039 
L 74.046224 171.276317 
L 74.06831 170.9654 
L 74.060948 171.354047 
L 74.156653 171.172678 
L 74.244996 171.120859 
L 74.252358 171.224498 
L 74.370149 170.991309 
L 74.414321 170.91358 
L 74.458493 170.93949 
L 74.576284 171.535416 
L 74.59837 171.457686 
L 74.613094 171.509506 
L 74.671989 170.162195 
L 74.82659 167.389844 
L 74.922296 153.294902 
L 75.187326 53.568 
L 75.268307 83.442024 
L 75.65849 283.802671 
L 75.761558 295.488 
L 75.805729 293.026567 
L 75.975054 237.139083 
L 76.394685 62.610528 
L 76.475667 68.414328 
L 76.615544 110.517787 
L 76.799592 174.981422 
L 76.851126 169.695818 
L 76.946831 157.181375 
L 76.991003 162.777896 
L 77.16769 208.145993 
L 77.241309 200.243497 
L 77.292843 195.605639 
L 77.344376 200.373047 
L 77.491615 227.111982 
L 77.557873 219.572224 
L 77.896523 164.021568 
L 78.0364 148.009298 
L 78.073209 150.444821 
L 78.205724 179.412001 
L 78.463393 217.603078 
L 78.522288 220.21997 
L 78.56646 217.395799 
L 78.684251 191.745076 
L 79.015539 121.6331 
L 79.044986 121.218543 
L 79.074434 122.203116 
L 79.229035 141.816851 
L 79.604495 207.13551 
L 79.7002 202.80857 
L 79.862163 184.308957 
L 80.19345 131.660201 
L 80.26707 134.432552 
L 80.502652 163.529281 
L 80.826578 191.097331 
L 80.848664 190.553224 
L 80.922283 183.117106 
L 81.216761 141.013646 
L 81.283019 142.464596 
L 81.444982 153.839008 
L 81.776269 190.605044 
L 81.835165 188.039972 
L 81.982404 169.048073 
L 82.335777 126.944613 
L 82.357863 127.41099 
L 82.416759 131.530652 
L 82.608169 162.933355 
L 82.932095 217.26625 
L 82.983629 215.400743 
L 83.211849 188.35089 
L 83.491603 153.631729 
L 83.513689 154.253565 
L 83.557861 156.818637 
L 83.955406 204.337249 
L 84.051111 201.27989 
L 84.154178 190.371856 
L 84.308779 154.072196 
L 84.559086 118.472102 
L 84.566447 118.549831 
L 84.588533 118.938479 
L 84.669515 124.716369 
L 84.831478 159.072792 
L 85.162765 223.355058 
L 85.170127 223.406878 
L 85.184851 223.04414 
L 85.265833 214.908456 
L 85.751721 112.616482 
L 85.847426 120.493068 
L 86.274419 192.081904 
L 86.348039 188.894996 
L 86.46583 170.88767 
L 86.826566 105.413552 
L 86.885461 108.807739 
L 87.040062 140.961827 
L 87.422883 227.759728 
L 87.437607 227.47472 
L 87.511227 220.582707 
L 87.702637 180.500214 
L 87.975029 136.19442 
L 87.989753 136.323969 
L 88.041287 139.01859 
L 88.159078 154.564483 
L 88.541899 219.753593 
L 88.608157 217.732627 
L 88.77012 194.724706 
L 89.07196 142.749604 
L 89.123493 144.096915 
L 89.241284 159.020972 
L 89.646192 230.609808 
L 89.683001 229.443866 
L 89.786069 218.432192 
L 90.257233 138.96677 
L 90.301405 140.080893 
L 90.426558 155.03086 
L 90.750484 205.140454 
L 90.779932 204.389069 
L 90.882999 194.310148 
L 91.354164 112.720122 
L 91.442507 118.368463 
L 91.64128 159.28007 
L 91.913672 202.523562 
L 91.921034 202.523562 
L 91.943119 202.80857 
L 91.987291 201.35762 
L 92.09772 188.35089 
L 92.465818 126.296868 
L 92.502627 127.229622 
L 92.590971 134.277093 
L 93.017964 197.833884 
L 93.113669 191.097331 
L 93.562748 135.002568 
L 93.629005 137.178993 
L 93.746797 155.315868 
L 94.144342 231.335283 
L 94.166428 231.516652 
L 94.203237 230.817086 
L 94.313667 219.235396 
L 94.711212 152.12896 
L 94.777469 155.393597 
L 94.961518 186.070825 
L 95.27072 221.074994 
L 95.285444 221.230453 
L 95.322254 220.323609 
L 95.417959 209.130566 
L 95.822866 143.267801 
L 95.8744 145.573775 
L 96.006915 163.062904 
L 96.352926 227.4229 
L 96.448632 220.530887 
L 96.691576 176.121454 
L 97.000778 126.478237 
L 97.022864 127.074163 
L 97.089121 131.997029 
L 97.523476 181.821615 
L 97.611819 180.189296 
L 97.714887 170.110375 
L 98.038812 124.249992 
L 98.112432 127.281441 
L 98.259671 148.812503 
L 98.657216 210.529696 
L 98.67194 210.141049 
L 98.730835 204.803626 
L 98.907522 163.477461 
L 99.194638 122.125387 
L 99.224086 121.140814 
L 99.282982 123.13587 
L 99.400773 141.531843 
L 99.783594 210.426057 
L 99.820404 209.156476 
L 99.975005 192.57419 
L 100.306292 148.268396 
L 100.37255 151.999411 
L 100.549237 180.966591 
L 100.851076 223.329148 
L 100.887886 222.836862 
L 100.998315 215.271194 
L 101.152916 187.081308 
L 101.410585 142.853244 
L 101.43267 143.060522 
L 101.550462 147.879749 
L 101.682977 161.171487 
L 102.021626 211.099713 
L 102.087884 207.783255 
L 102.249847 181.458877 
L 102.581134 136.971714 
L 102.617944 136.298059 
L 102.662116 137.982197 
L 102.787269 156.42999 
L 103.074385 192.62601 
L 103.13328 193.688313 
L 103.17009 192.57419 
L 103.265795 181.743885 
L 103.70015 109.662763 
L 103.766408 113.393777 
L 103.972542 147.931569 
L 104.274382 184.023949 
L 104.296468 183.687122 
L 104.348002 180.681583 
L 104.53205 153.191262 
L 104.774995 125.752762 
L 104.797081 126.06368 
L 104.885424 131.504742 
L 105.047387 155.341777 
L 105.341865 206.202756 
L 105.393398 204.777716 
L 105.533275 189.102274 
L 105.938183 132.748413 
L 105.989716 134.406642 
L 106.107507 147.983388 
L 106.541862 219.131757 
L 106.615482 215.556202 
L 106.784807 183.99804 
L 107.027751 150.963018 
L 107.035113 151.040747 
L 107.042475 151.014837 
L 107.049837 151.196206 
L 107.123456 155.445417 
L 107.314867 184.593966 
L 107.609345 226.904703 
L 107.638793 226.334687 
L 107.712412 219.572224 
L 107.93327 173.504562 
L 108.205663 127.825547 
L 108.227748 128.214195 
L 108.294006 133.732987 
L 108.750447 198.585269 
L 108.860876 193.170116 
L 109.044925 165.317059 
L 109.302593 132.903872 
L 109.309955 132.929782 
L 109.354126 134.017995 
L 109.471918 145.133308 
L 109.854739 197.082499 
L 109.928358 193.999231 
L 110.082959 170.706301 
L 110.451057 115.932939 
L 110.487866 115.259284 
L 110.5394 116.606595 
L 110.627743 127.281441 
L 111.047374 199.440293 
L 111.091546 198.533449 
L 111.17989 191.719166 
L 111.540625 150.911198 
L 111.606883 153.57991 
L 111.732036 170.602662 
L 112.085409 210.0115 
L 112.129581 210.892434 
L 112.166391 209.493304 
L 112.269458 196.175656 
L 112.630193 150.263453 
L 112.644917 150.211633 
L 112.659641 150.470731 
L 112.755346 157.440473 
L 113.086634 205.65865 
L 113.226511 218.173094 
L 113.263321 217.007152 
L 113.395836 201.823997 
L 113.808105 158.347317 
L 113.867001 159.539168 
L 113.97743 169.48854 
L 114.257184 204.984995 
L 114.308717 203.119488 
L 114.485404 188.376799 
L 114.669453 154.668122 
L 114.882949 122.669493 
L 114.905035 122.876772 
L 114.986017 127.592359 
L 115.192151 158.476866 
L 115.516077 201.927636 
L 115.560249 200.139858 
L 115.670678 184.075769 
L 116.024051 134.017995 
L 116.082947 132.722504 
L 116.134481 134.017995 
L 116.230186 144.433743 
L 116.590921 194.724706 
L 116.642455 193.377395 
L 116.760246 181.769795 
L 117.172515 123.783615 
L 117.231411 126.944613 
L 117.386012 158.943243 
L 117.732023 217.939905 
L 117.768833 218.63947 
L 117.813005 217.499438 
L 117.923434 205.373642 
L 118.291531 150.341182 
L 118.365151 152.983984 
L 118.534476 171.431776 
L 118.858401 214.830727 
L 118.917297 212.110196 
L 119.064536 190.605044 
L 119.417909 145.081488 
L 119.447357 144.8483 
L 119.476805 145.521955 
L 119.557786 152.284419 
L 119.962694 209.234205 
L 120.051037 206.150937 
L 120.190914 190.656864 
L 120.551649 139.225869 
L 120.610545 141.298654 
L 120.831403 165.809345 
L 121.074348 185.37126 
L 121.111157 184.749424 
L 121.199501 177.857412 
L 121.597046 126.478237 
L 121.692751 130.701538 
L 121.957781 162.415159 
L 122.200726 195.087443 
L 122.237535 193.869681 
L 122.384774 178.453338 
L 122.760234 136.686706 
L 122.797044 137.230812 
L 122.892749 144.90012 
L 123.334466 190.915962 
L 123.385999 191.278699 
L 123.422809 190.786413 
L 123.503791 185.526719 
L 123.871888 142.801424 
L 123.960231 145.936512 
L 124.092746 163.296093 
L 124.475568 216.696234 
L 124.48293 216.592595 
L 124.527101 214.986186 
L 124.67434 197.134319 
L 124.998266 164.617493 
L 125.079247 162.28561 
L 125.130781 163.244273 
L 125.24121 169.980826 
L 125.557774 193.040567 
L 125.631393 191.071421 
L 125.785994 178.19424 
L 126.117282 139.925434 
L 126.190902 143.915546 
L 126.7136 196.901131 
L 126.809305 193.221936 
L 126.993354 170.395384 
L 127.346727 131.893389 
L 127.368813 131.78975 
L 127.405623 132.411586 
L 127.516052 141.117286 
L 127.869426 181.303418 
L 127.906235 180.9925 
L 127.979855 178.0906 
L 128.119732 160.653291 
L 128.428934 129.250588 
L 128.458382 129.613325 
L 128.554087 137.749009 
L 129.069423 210.06332 
L 129.128319 207.031871 
L 129.319729 174.281857 
L 129.599483 146.480619 
L 129.614207 146.480619 
L 129.687827 150.159813 
L 129.893961 178.997444 
L 130.136906 204.25952 
L 130.158992 203.870872 
L 130.254697 196.616123 
L 130.666966 159.694627 
L 130.689052 159.901906 
L 130.799481 168.452147 
L 131.189664 219.209487 
L 131.270646 215.374833 
L 131.484142 186.87403 
L 131.785982 142.101859 
L 131.822792 143.190071 
L 131.947945 155.212228 
L 132.338128 193.325575 
L 132.360214 193.092387 
L 132.41911 189.905479 
L 132.551625 171.716784 
L 132.853464 136.453518 
L 132.87555 136.323969 
L 132.91236 136.893985 
L 133.008065 143.060522 
L 133.420334 198.48163 
L 133.538126 191.796896 
L 133.78107 155.704515 
L 134.0461 124.431361 
L 134.060824 124.58682 
L 134.127082 128.214195 
L 134.318492 158.658235 
L 134.590884 189.67229 
L 134.64978 190.786413 
L 134.701313 189.879569 
L 134.789657 183.220745 
L 135.084135 146.402889 
L 135.172478 150.703919 
L 135.422784 180.759312 
L 135.724624 219.157667 
L 135.739348 218.794929 
L 135.812968 213.794334 
L 135.97493 188.32498 
L 136.291494 148.423855 
L 136.328304 147.646561 
L 136.379838 148.890232 
L 136.490267 162.28561 
L 136.873088 210.477877 
L 136.88045 210.529696 
L 136.902536 210.166959 
L 137.005603 202.70493 
L 137.41051 157.336834 
L 137.48413 161.430585 
L 137.962656 202.679021 
L 137.97738 202.497652 
L 138.01419 201.202161 
L 138.131981 186.407653 
L 138.529526 126.892794 
L 138.551612 127.46281 
L 138.639956 133.422069 
L 138.868176 169.048073 
L 139.044863 192.211453 
L 139.081673 190.993691 
L 139.214188 177.624224 
L 139.648543 132.903872 
L 139.67799 133.447979 
L 139.78842 141.842761 
L 140.009278 180.396574 
L 140.149155 192.341002 
L 140.185965 192.004174 
L 140.289032 187.677234 
L 140.443633 169.799458 
L 140.723387 130.831087 
L 140.752835 131.401103 
L 140.870626 139.0445 
L 141.128294 175.033242 
L 141.393324 202.057185 
L 141.41541 201.823997 
L 141.45222 200.476686 
L 141.64363 179.256542 
L 141.908661 159.30598 
L 141.938108 159.046882 
L 141.974918 160.057365 
L 142.070623 169.255351 
L 142.453445 210.270598 
L 142.468169 210.0115 
L 142.54915 204.803626 
L 142.858352 160.497832 
L 143.042401 143.37144 
L 143.071848 143.967366 
L 143.18964 154.95313 
L 143.587185 199.777121 
L 143.616632 199.543932 
L 143.675528 196.382934 
L 143.852215 171.535416 
L 144.087797 146.091971 
L 144.102521 146.24743 
L 144.198226 150.60028 
L 144.463257 179.515641 
L 144.625219 191.278699 
L 144.662029 190.734593 
L 144.750372 184.697605 
L 144.963869 151.766222 
L 145.250985 116.891603 
L 145.287795 117.642988 
L 145.405586 128.551022 
L 145.825217 188.661807 
L 145.891474 186.459473 
L 146.031351 171.794514 
L 146.347915 140.184532 
L 146.377363 140.676819 
L 146.458344 145.573775 
L 146.730737 183.220745 
L 146.958957 206.565494 
L 146.981043 206.073207 
L 147.054662 200.398956 
L 147.511103 136.246239 
L 147.61417 141.89458 
L 147.812943 176.406462 
L 148.100059 211.46245 
L 148.136869 211.980646 
L 148.188402 210.814705 
L 148.328279 197.108409 
L 148.674291 162.337429 
L 148.755272 166.249812 
L 148.990855 196.642032 
L 149.182265 207.653706 
L 149.189627 207.550067 
L 149.248523 205.270003 
L 149.373676 187.936332 
L 149.763859 132.515225 
L 149.778583 132.437496 
L 149.808031 132.826143 
L 149.896374 139.07041 
L 150.109871 175.603258 
L 150.316005 195.631549 
L 150.330729 195.450181 
L 150.411711 191.045511 
L 150.647293 159.746447 
L 150.868151 133.862536 
L 150.912323 134.873019 
L 151.044838 149.822986 
L 151.398212 185.086252 
L 151.412935 185.163982 
L 151.442383 184.542146 
L 151.552812 174.592775 
L 151.950358 121.399912 
L 152.038701 126.555966 
L 152.281645 166.042534 
L 152.568761 203.974512 
L 152.583485 203.689504 
L 152.649743 200.139858 
L 152.819068 177.883322 
L 153.084098 151.248026 
L 153.113545 150.911198 
L 153.172441 151.507124 
L 153.238699 154.97904 
L 153.363852 174.100488 
L 153.636244 208.120083 
L 153.65833 208.223722 
L 153.702501 207.835075 
L 153.783483 205.399552 
L 153.915998 190.890052 
L 154.254647 148.346126 
L 154.284095 148.993871 
L 154.3798 158.373227 
L 154.828879 219.468585 
L 154.873051 218.250823 
L 154.968756 207.265059 
L 155.417835 149.14933 
L 155.469369 150.62619 
L 155.594522 162.596527 
L 155.911086 201.953546 
L 155.962619 200.165768 
L 156.11722 177.961051 
L 156.500042 125.079106 
L 156.522127 125.726852 
L 156.617833 135.132117 
L 157.081635 191.382339 
L 157.118445 190.682773 
L 157.25096 180.033837 
L 157.619058 133.940265 
L 157.714763 138.629943 
L 157.957707 173.504562 
L 158.185928 193.791952 
L 158.19329 193.688313 
L 158.274271 189.024545 
L 158.502491 153.52809 
L 158.708626 135.002568 
L 158.72335 135.261666 
L 158.782245 138.111746 
L 158.922122 153.942647 
L 159.341753 219.054028 
L 159.444821 214.830727 
L 159.636231 188.687717 
L 159.908623 158.347317 
L 159.915985 158.450956 
L 159.923347 158.450956 
L 159.996967 161.922872 
L 160.210463 189.309553 
L 160.416598 203.870872 
L 160.42396 203.819053 
L 160.527027 199.440293 
L 160.7258 174.748233 
L 160.998192 145.055578 
L 161.020278 145.496045 
L 161.115983 152.388058 
L 161.381013 191.693257 
L 161.565062 208.897378 
L 161.587148 208.56055 
L 161.660767 203.637684 
L 161.940521 156.896367 
L 162.168741 134.769379 
L 162.183465 134.821199 
L 162.249723 137.671279 
L 162.455857 163.218363 
L 162.676716 180.241116 
L 162.684078 180.215206 
L 162.69144 180.292935 
L 162.72825 179.56746 
L 162.816593 173.349103 
L 163.243586 124.457271 
L 163.339291 129.017399 
L 163.501254 154.849491 
L 163.810456 196.279295 
L 163.847266 196.616123 
L 163.884075 195.735189 
L 164.001867 186.226284 
L 164.399412 139.148139 
L 164.473031 140.987737 
L 164.605546 154.253565 
L 164.944196 200.994882 
L 165.003091 199.414383 
L 165.172416 182.728458 
L 165.481618 146.091971 
L 165.52579 147.491102 
L 165.643581 159.046882 
L 165.886525 204.907265 
L 166.09266 225.712852 
L 166.100022 225.686942 
L 166.151555 223.562337 
L 166.261985 209.363755 
L 166.688978 147.439282 
L 166.718425 148.061118 
L 166.814131 156.766818 
L 167.167504 199.543932 
L 167.204314 199.103465 
L 167.292657 193.014657 
L 167.520878 156.067252 
L 167.75646 136.945804 
L 167.763822 136.997624 
L 167.83008 140.339991 
L 167.999404 166.690279 
L 168.308606 203.559955 
L 168.330692 203.715414 
L 168.36014 203.041758 
L 168.448483 194.439698 
L 168.882838 121.477641 
L 168.985905 126.815064 
L 169.221488 159.668718 
L 169.449708 186.304014 
L 169.471794 185.941276 
L 169.560137 180.603853 
L 169.832529 146.946995 
L 169.994492 134.769379 
L 170.031302 135.417125 
L 170.134369 143.915546 
L 170.384675 190.890052 
L 170.561362 207.757346 
L 170.583448 207.550067 
L 170.671791 203.404496 
L 170.841116 182.339811 
L 171.135594 146.765627 
L 171.150318 146.921086 
L 171.223938 150.703919 
L 171.444796 178.349699 
L 171.739274 206.798682 
L 171.753998 206.720953 
L 171.812893 203.948602 
L 171.960132 182.624819 
L 172.217801 155.808154 
L 172.232524 155.730425 
L 172.269334 156.170892 
L 172.350316 160.446012 
L 172.527002 185.241711 
L 172.792032 215.582112 
L 172.806756 215.426653 
L 172.880376 211.306991 
L 173.064425 183.531663 
L 173.432522 132.852053 
L 173.439884 132.929782 
L 173.491418 135.391215 
L 173.623933 154.719942 
L 173.918411 192.211453 
L 173.925772 192.185543 
L 173.977306 190.708683 
L 174.102459 178.738346 
L 174.463195 130.261071 
L 174.536814 132.515225 
L 174.698777 149.512068 
L 175.074236 195.916557 
L 175.118408 194.284239 
L 175.243561 176.898749 
L 175.619021 124.379541 
L 175.626382 124.353631 
L 175.641106 124.535 
L 175.707364 128.110555 
L 175.876689 154.253565 
L 176.185891 195.787008 
L 176.193252 195.761098 
L 176.244786 194.05105 
L 176.436197 176.199183 
L 176.730675 148.993871 
L 176.782208 150.470731 
L 176.914723 165.627976 
L 177.304907 218.613561 
L 177.35644 217.033062 
L 177.481593 201.772177 
L 177.849691 146.765627 
L 177.893862 147.72429 
L 178.019016 157.285014 
L 178.269322 197.833884 
L 178.460732 211.928827 
L 178.468094 211.902917 
L 178.504904 211.073803 
L 178.600609 202.80857 
L 179.042326 149.434338 
L 179.086498 150.418911 
L 179.189565 160.938299 
L 179.498767 195.216992 
L 179.520853 195.035623 
L 179.601834 191.900535 
L 179.741711 174.566865 
L 180.109809 127.41099 
L 180.124533 127.46281 
L 180.176066 129.535596 
L 180.330667 148.657044 
L 180.676679 186.355833 
L 180.691403 186.148555 
L 180.75766 181.977074 
L 181.206739 133.629347 
L 181.28772 138.059927 
L 181.545389 175.473708 
L 181.751523 195.735189 
L 181.780971 195.191082 
L 181.876676 187.210857 
L 182.318393 134.613921 
L 182.392013 137.904468 
L 182.561337 162.18197 
L 182.929435 211.851097 
L 182.936797 211.825188 
L 182.995692 210.06332 
L 183.113484 197.833884 
L 183.452133 158.088218 
L 183.474219 158.243677 
L 183.540477 159.979635 
L 183.658268 170.214015 
L 183.996917 214.882546 
L 184.070537 212.628392 
L 184.203052 197.134319 
L 184.600597 138.578123 
L 184.637407 139.251779 
L 184.733112 148.035208 
L 185.160105 203.922692 
L 185.219001 202.134914 
L 185.344154 187.340407 
L 185.719613 136.608977 
L 185.749061 137.075354 
L 185.844766 144.148735 
L 186.23495 188.454529 
L 186.308569 185.215801 
L 186.477894 159.901906 
L 186.80182 121.037174 
L 186.831267 121.529461 
L 186.919611 128.395563 
L 187.147831 170.188105 
L 187.390775 196.590213 
L 187.398137 196.616123 
L 187.420223 196.357024 
L 187.501205 191.848715 
L 187.685253 165.342968 
L 187.928198 138.604033 
L 187.942921 138.759492 
L 188.009179 142.645965 
L 188.185866 171.690875 
L 188.487706 208.871468 
L 188.509791 209.026927 
L 188.539239 208.405091 
L 188.627583 201.020792 
L 189.0693 144.200554 
L 189.157643 147.827929 
L 189.304882 169.592179 
L 189.643531 222.888681 
L 189.672979 222.292755 
L 189.776047 213.638875 
L 190.20304 156.067252 
L 190.306107 160.575561 
L 190.526965 188.376799 
L 190.711014 202.73084 
L 190.7331 202.523562 
L 190.814081 198.766638 
L 190.976044 179.126993 
L 191.307332 127.307351 
L 191.358865 128.499203 
L 191.49138 140.910007 
L 191.888926 193.921501 
L 191.962545 190.397765 
L 192.139232 164.254756 
L 192.426348 135.261666 
L 192.507329 132.541135 
L 192.551501 133.758896 
L 192.66193 146.791536 
L 192.985856 182.754368 
L 193.015304 182.987557 
L 193.052113 182.313901 
L 193.140457 175.473708 
L 193.538002 126.840974 
L 193.611621 130.649718 
L 193.780946 159.772357 
L 194.149044 210.503787 
L 194.156406 210.529696 
L 194.17113 210.348328 
L 194.244749 206.047297 
L 194.458245 175.26643 
L 194.679104 151.999411 
L 194.70119 152.388058 
L 194.789533 158.347317 
L 195.017754 191.382339 
L 195.216526 216.722144 
L 195.253336 215.659841 
L 195.371127 203.119488 
L 195.783396 150.885288 
L 195.842292 152.595336 
L 195.974807 166.042534 
L 196.350266 216.903512 
L 196.4018 215.76348 
L 196.512229 206.746863 
L 196.70364 167.363934 
L 196.93186 138.215386 
L 196.953946 138.034017 
L 196.990756 138.629943 
L 197.086461 145.806963 
L 197.513454 188.687717 
L 197.542902 188.143611 
L 197.623883 181.277508 
L 198.080324 122.073567 
L 198.146581 124.275902 
L 198.264373 140.49545 
L 198.639832 197.419327 
L 198.661918 197.03068 
L 198.742899 190.009118 
L 199.19934 126.944613 
L 199.287683 130.882906 
L 199.46437 155.600876 
L 199.80302 195.735189 
L 199.832468 195.320631 
L 199.928173 189.076365 
L 200.288908 146.661987 
L 200.391976 151.818042 
L 200.59811 181.432967 
L 200.907312 219.079937 
L 200.958846 217.499438 
L 201.083999 204.363159 
L 201.488906 156.119072 
L 201.525716 156.844547 
L 201.621421 164.436125 
L 202.004242 208.923288 
L 202.077862 206.384125 
L 202.225101 187.936332 
L 202.571112 145.211037 
L 202.585836 145.314677 
L 202.659456 149.17524 
L 202.843504 174.048668 
L 203.123258 203.456315 
L 203.13062 203.404496 
L 203.189516 201.202161 
L 203.322031 185.552629 
L 203.741662 124.198172 
L 203.778472 124.897738 
L 203.874177 132.567045 
L 204.286446 183.143016 
L 204.360066 180.966591 
L 204.485219 167.182566 
L 204.83123 128.032826 
L 204.845954 128.136465 
L 204.912212 131.038365 
L 205.059451 151.921681 
L 205.427548 204.959085 
L 205.442272 204.777716 
L 205.508529 200.373047 
L 205.707302 165.887075 
L 205.972332 133.681167 
L 205.987056 133.784806 
L 206.053314 137.878558 
L 206.259448 172.36453 
L 206.561288 209.856041 
L 206.576012 209.726492 
L 206.642269 206.410035 
L 206.855766 179.204723 
L 207.091348 151.740312 
L 207.128158 152.595336 
L 207.231225 162.985175 
L 207.643494 222.266845 
L 207.717114 219.598134 
L 207.871715 199.466203 
L 208.283984 142.697785 
L 208.342879 143.889636 
L 208.453309 153.165352 
L 208.821406 196.693852 
L 208.865578 195.657459 
L 208.976007 185.708088 
L 209.380914 134.354822 
L 209.43981 136.013051 
L 209.550239 147.77611 
L 209.910974 189.853659 
L 209.925698 189.77593 
L 209.984594 187.703144 
L 210.117109 172.934546 
L 210.514654 119.275306 
L 210.558826 120.622617 
L 210.683979 134.63983 
L 211.096248 188.843176 
L 211.125696 188.376799 
L 211.206677 182.002983 
L 211.59686 141.687302 
L 211.641032 142.516416 
L 211.751461 150.885288 
L 212.045939 199.388473 
L 212.215264 212.93931 
L 212.244712 212.395204 
L 212.340417 203.922692 
L 212.782134 141.039556 
L 212.863116 145.625595 
L 213.054526 179.360182 
L 213.33428 213.768424 
L 213.349004 213.923883 
L 213.393176 213.120679 
L 213.496243 204.389069 
L 213.886426 153.294902 
L 213.967408 156.507719 
L 214.144094 177.676043 
L 214.416487 210.866524 
L 214.453296 210.03741 
L 214.556364 200.269407 
L 214.836118 145.470136 
L 215.020166 128.421473 
L 215.042252 128.602842 
L 215.115872 132.126578 
L 215.277834 153.994467 
L 215.572312 190.164577 
L 215.579674 190.112757 
L 215.631208 188.532258 
L 215.763723 175.162791 
L 216.146544 125.726852 
L 216.198078 127.359171 
L 216.315869 143.34553 
L 216.691328 194.672886 
L 216.706052 194.750615 
L 216.7355 194.206509 
L 216.823844 186.718571 
L 217.258198 124.224082 
L 217.33918 128.136465 
L 217.501143 155.445417 
L 217.847154 207.265059 
L 217.854516 207.239149 
L 217.898688 205.788199 
L 218.031203 190.890052 
L 218.369853 155.393597 
L 218.384577 155.549056 
L 218.443472 158.191858 
L 218.612797 178.660616 
L 218.936723 216.514865 
L 218.96617 215.944849 
L 219.069238 207.912805 
L 219.326906 166.431181 
L 219.525678 146.040152 
L 219.547764 146.376979 
L 219.636108 152.569427 
L 219.849604 187.444046 
L 220.077825 211.51427 
L 220.085187 211.48836 
L 220.144082 209.415574 
L 220.283959 194.02514 
L 220.659418 144.330103 
L 220.70359 145.288767 
L 220.821381 154.849491 
L 221.189479 196.616123 
L 221.263098 193.429215 
L 221.402975 171.613145 
L 221.756349 116.710234 
L 221.771073 116.917513 
L 221.844692 121.399912 
L 222.006655 147.905659 
L 222.323219 191.822806 
L 222.337943 191.848715 
L 222.352667 191.667347 
L 222.433648 187.133128 
L 222.647144 156.585449 
L 222.897451 131.84157 
L 222.912175 132.022938 
L 222.978432 135.935321 
L 223.140395 163.322002 
L 223.420149 198.870277 
L 223.442235 198.973916 
L 223.471683 198.37799 
L 223.567388 190.475495 
L 223.972295 138.99268 
L 224.038553 141.765031 
L 224.193154 163.270183 
L 224.575975 219.675863 
L 224.605423 219.079937 
L 224.701128 210.788795 
L 225.113397 155.704515 
L 225.20174 159.513259 
L 225.407875 186.096735 
L 225.636095 211.358811 
L 225.672905 210.581516 
L 225.775972 201.020792 
L 226.239775 138.785402 
L 226.313395 141.842761 
L 226.475357 164.410215 
L 226.784559 203.585864 
L 226.799283 203.430405 
L 226.880265 198.844367 
L 227.049589 171.276317 
L 227.358791 129.354227 
L 227.402963 130.39062 
L 227.520754 140.44363 
L 227.925661 186.019006 
L 227.991919 183.661212 
L 228.124434 165.679796 
L 228.455721 122.928591 
L 228.470445 122.980411 
L 228.529341 125.156836 
L 228.647132 139.873614 
L 229.044677 200.839423 
L 229.081487 200.165768 
L 229.191916 191.14915 
L 229.604185 143.008703 
L 229.670443 145.755144 
L 229.832406 168.737155 
L 230.171055 208.923288 
L 230.207865 208.094173 
L 230.30357 199.803031 
L 230.686392 149.071601 
L 230.767373 152.517607 
L 230.951422 177.883322 
L 231.282709 222.215026 
L 231.312157 221.515461 
L 231.407863 212.162015 
L 231.871665 144.977849 
L 231.952647 148.760683 
L 232.136695 175.344159 
L 232.364916 201.35762 
L 232.387002 201.046702 
L 232.475345 194.413788 
L 232.740375 151.014837 
L 232.953872 128.032826 
L 232.975957 128.266014 
L 233.056939 132.852053 
L 233.240988 159.850086 
L 233.520742 192.755559 
L 233.528104 192.781469 
L 233.550189 192.548281 
L 233.623809 188.972725 
L 233.763686 168.426237 
L 234.072888 127.773728 
L 234.102336 128.136465 
L 234.190679 132.644774 
L 234.360004 156.067252 
L 234.625034 184.023949 
L 234.64712 184.101679 
L 234.676567 183.738941 
L 234.764911 178.556977 
L 235.155094 137.51582 
L 235.250799 141.739121 
L 235.4054 166.353451 
L 235.74405 214.182981 
L 235.758774 214.286621 
L 235.788222 213.768424 
L 235.876565 206.306396 
L 236.318282 148.346126 
L 236.391901 152.154869 
L 236.627484 187.340407 
L 236.87779 212.628392 
L 236.899876 212.343384 
L 236.988219 206.125027 
L 237.267973 162.18197 
L 237.422574 149.304789 
L 237.459384 150.133903 
L 237.577175 161.041938 
L 237.967358 209.363755 
L 238.040978 206.435945 
L 238.210303 185.785817 
L 238.607848 133.033421 
L 238.622572 133.111151 
L 238.681467 135.183937 
L 238.80662 149.641617 
L 239.101098 183.583482 
L 239.123184 183.402114 
L 239.211527 179.515641 
L 239.37349 159.3578 
L 239.653244 129.354227 
L 239.667968 129.276497 
L 239.697416 129.639235 
L 239.778397 134.095724 
L 239.969808 161.715593 
L 240.256924 190.242307 
L 240.271648 190.294126 
L 240.293734 189.957298 
L 240.367353 185.293531 
L 240.588212 150.289362 
L 240.801708 131.530652 
L 240.816432 131.712021 
L 240.890052 135.987141 
L 241.081462 165.653886 
L 241.37594 199.466203 
L 241.427474 197.859794 
L 241.589437 181.588426 
L 241.913362 154.253565 
L 241.920724 154.279475 
L 241.972258 155.808154 
L 242.097411 168.866704 
L 242.480232 219.364945 
L 242.531766 218.121274 
L 242.642195 206.954141 
L 243.054464 148.864322 
L 243.128084 152.05123 
L 243.304771 174.929602 
L 243.60661 204.829536 
L 243.621334 204.907265 
L 243.650782 204.518618 
L 243.739125 198.352081 
L 243.996794 157.025916 
L 244.180842 142.360957 
L 244.202928 142.568236 
L 244.291272 147.413372 
L 244.497406 176.095544 
L 244.696179 196.305205 
L 244.725627 195.864738 
L 244.81397 188.972725 
L 245.137896 137.049444 
L 245.299858 123.705886 
L 245.336668 124.275902 
L 245.447097 132.722504 
L 245.87409 182.339811 
L 245.955072 179.800649 
L 246.109673 164.410215 
L 246.396789 131.84157 
L 246.433598 132.644774 
L 246.536666 141.246835 
L 247.000468 201.072612 
L 247.096174 197.393417 
L 247.258137 175.29234 
L 247.537891 144.744661 
L 247.5747 144.330103 
L 247.618872 145.185128 
L 247.714577 153.372631 
L 248.156294 210.892434 
L 248.222552 208.690099 
L 248.377153 190.371856 
L 248.678993 161.974692 
L 248.701078 161.819233 
L 248.737888 162.544708 
L 248.840955 171.302227 
L 249.231139 212.447023 
L 249.267948 211.747458 
L 249.371016 202.109005 
L 249.820095 138.370845 
L 249.893714 141.583662 
L 250.14402 172.027702 
L 250.372241 193.532854 
L 250.401688 192.962838 
L 250.512118 184.516236 
L 250.953835 134.536191 
L 251.042178 137.930378 
L 251.218865 158.735964 
L 251.476533 184.283048 
L 251.491257 184.127589 
L 251.564876 180.577943 
L 251.748925 156.974096 
L 252.050765 122.850862 
L 252.058127 122.876772 
L 252.102298 123.913164 
L 252.212728 133.137061 
L 252.698616 194.906074 
L 252.772236 192.341002 
L 252.934199 173.375013 
L 253.213953 147.69838 
L 253.2434 148.138847 
L 253.324382 153.450361 
L 253.530516 186.563112 
L 253.766099 207.809165 
L 253.780823 207.860985 
L 253.81027 207.472338 
L 253.898614 202.160824 
L 254.14892 167.98577 
L 254.340331 154.175835 
L 254.362416 154.357204 
L 254.443398 158.088218 
L 254.612723 179.800649 
L 254.914563 215.063915 
L 254.929286 214.934366 
L 254.988182 212.032466 
L 255.172231 187.366316 
L 255.481433 153.709459 
L 255.488795 153.735369 
L 255.555052 156.222711 
L 255.739101 175.836446 
L 256.011493 198.4039 
L 256.026217 198.196622 
L 256.092474 194.672886 
L 256.276523 169.255351 
L 256.607811 127.48872 
L 256.629896 127.851457 
L 256.71824 134.069814 
L 257.167319 185.708088 
L 257.263024 181.977074 
L 257.439711 158.891423 
L 257.704741 132.359766 
L 257.712103 132.385676 
L 257.763636 133.473888 
L 257.896152 142.620055 
L 258.293697 187.469956 
L 258.38204 184.153499 
L 258.551365 163.451551 
L 258.823757 137.489911 
L 258.838481 137.54173 
L 258.890014 139.01859 
L 259.007806 150.056174 
L 259.456884 206.410035 
L 259.508418 205.321822 
L 259.626209 196.046106 
L 259.986945 157.90685 
L 260.04584 159.875996 
L 260.185717 176.069634 
L 260.546453 214.960276 
L 260.553815 214.908456 
L 260.605348 212.86158 
L 260.737863 195.242902 
L 261.105961 148.112937 
L 261.128047 147.879749 
L 261.172218 148.708863 
L 261.282648 158.036399 
L 261.687555 209.596943 
L 261.768536 205.63274 
L 261.974671 174.825963 
L 262.276511 136.038961 
L 262.305958 136.479428 
L 262.401664 144.330103 
L 262.784485 181.692066 
L 262.806571 181.536607 
L 262.88019 178.531067 
L 263.042153 160.80875 
L 263.358717 123.239509 
L 263.395527 123.964984 
L 263.505956 131.660201 
L 263.719452 164.669313 
L 263.947673 189.283643 
L 263.962397 189.205914 
L 264.021292 187.029489 
L 264.183255 169.151712 
L 264.470371 141.480023 
L 264.485095 141.583662 
L 264.558714 144.122825 
L 264.705953 157.544112 
L 265.044603 194.05105 
L 265.081413 193.481034 
L 265.191842 186.640841 
L 265.589387 147.128364 
L 265.670369 151.118477 
L 265.832331 176.043725 
L 266.156257 219.520404 
L 266.193067 220.038601 
L 266.237239 219.105847 
L 266.340306 209.337845 
L 266.767299 155.056769 
L 266.818833 156.222711 
L 266.943986 167.830311 
L 267.312083 203.171307 
L 267.319445 203.093578 
L 267.370979 200.994882 
L 267.496132 185.034432 
L 267.864229 141.117286 
L 267.893677 140.832278 
L 267.930487 141.609572 
L 268.040916 151.248026 
L 268.423737 194.336058 
L 268.475271 192.885108 
L 268.593062 181.381148 
L 269.005331 126.659605 
L 269.078951 129.328317 
L 269.255637 149.17524 
L 269.542753 177.935141 
L 269.557477 177.805592 
L 269.638459 174.437316 
L 269.844593 152.154869 
L 270.072814 131.090185 
L 270.102261 131.427013 
L 270.197967 137.878558 
L 270.418825 172.675448 
L 270.676493 202.78266 
L 270.683855 202.75675 
L 270.728027 201.409439 
L 270.85318 188.169521 
L 271.206554 147.024725 
L 271.228639 147.257913 
L 271.309621 151.714402 
L 271.501031 178.0906 
L 271.795509 207.860985 
L 271.810233 207.809165 
L 271.861767 206.228666 
L 271.994282 192.548281 
L 272.340294 156.37817 
L 272.355017 156.4559 
L 272.413913 158.761874 
L 272.55379 176.872839 
L 272.870354 214.934366 
L 272.877716 214.908456 
L 272.921887 213.872063 
L 273.032317 204.28543 
L 273.488757 145.910603 
L 273.562377 148.423855 
L 273.761149 169.099892 
L 274.02618 188.894996 
L 274.040904 188.713627 
L 274.114523 184.827154 
L 274.305934 157.207285 
L 274.563602 130.053792 
L 274.570964 130.079702 
L 274.622497 131.660201 
L 274.755012 144.951939 
L 275.115748 188.195431 
L 275.167282 186.589022 
L 275.321882 169.980826 
L 275.712066 125.338205 
L 275.756237 126.400507 
L 275.866667 136.712616 
L 276.286298 188.843176 
L 276.345193 187.366316 
L 276.477708 175.810536 
L 276.764824 146.143791 
L 276.816358 147.257913 
L 276.934149 157.388653 
L 277.405314 212.96522 
L 277.478933 209.856041 
L 277.640896 186.82221 
L 277.92065 156.611359 
L 277.95746 156.196802 
L 278.001632 156.948186 
L 278.104699 164.358395 
L 278.48752 208.197813 
L 278.568502 205.68456 
L 278.730464 188.843176 
L 279.076476 155.108589 
L 279.0912 155.238138 
L 279.164819 159.072792 
L 279.58445 199.88076 
L 279.680156 195.761098 
L 279.842119 172.442259 
L 280.166044 129.043309 
L 280.180768 129.146948 
L 280.239664 131.504742 
L 280.431074 151.325755 
L 280.740276 182.54709 
L 280.777086 181.614336 
L 280.887515 171.302227 
L 281.28506 128.628752 
L 281.307146 128.91376 
L 281.388128 133.914355 
L 281.594262 166.197993 
L 281.822483 189.827749 
L 281.837206 189.75002 
L 281.903464 187.340407 
L 282.065427 171.302227 
L 282.404076 134.510281 
L 282.440886 135.287576 
L 282.551315 145.262857 
L 283.02248 205.529101 
L 283.088738 202.860389 
L 283.235977 183.868491 
L 283.486283 160.679201 
L 283.501007 160.73102 
L 283.559902 162.389249 
L 283.699779 174.385496 
L 284.067877 213.690695 
L 284.112048 212.628392 
L 284.237202 201.228071 
L 284.656833 150.6521 
L 284.715728 152.310328 
L 284.848243 166.819828 
L 285.172169 203.352676 
L 285.201617 203.015848 
L 285.28996 197.548876 
L 285.503457 164.954321 
L 285.753763 139.407237 
L 285.797934 140.288171 
L 285.915726 148.942052 
L 286.313271 188.29907 
L 286.372166 186.329924 
L 286.49732 170.706301 
L 286.887503 121.063084 
L 286.931674 122.021747 
L 287.034742 131.582471 
L 287.461735 183.246655 
L 287.505906 182.339811 
L 287.616336 173.426833 
L 287.991795 136.868075 
L 288.035967 138.034017 
L 288.153758 150.107994 
L 288.566027 199.207105 
L 288.602837 198.37799 
L 288.713266 189.309553 
L 289.088725 148.579314 
L 289.147621 150.548461 
L 289.316946 167.234385 
L 289.677681 213.224318 
L 289.758663 210.788795 
L 289.913263 195.838828 
L 290.251913 159.901906 
L 290.273999 160.109185 
L 290.347618 163.68474 
L 290.539029 188.143611 
L 290.767249 205.917748 
L 290.804059 205.477281 
L 290.907126 199.466203 
L 291.098537 169.048073 
L 291.370929 138.215386 
L 291.400377 137.878558 
L 291.444549 138.940861 
L 291.554978 149.848895 
L 291.937799 194.491517 
L 291.967247 193.947411 
L 292.05559 186.355833 
L 292.519393 131.375193 
L 292.563565 132.385676 
L 292.673994 142.438687 
L 293.049453 178.11651 
L 293.064177 177.961051 
L 293.137797 174.929602 
L 293.329207 156.144982 
L 293.601599 126.892794 
L 293.645771 128.136465 
L 293.770924 141.402294 
L 294.197917 196.305205 
L 294.242089 195.346541 
L 294.367242 185.708088 
L 294.713254 153.372631 
L 294.772149 154.460844 
L 294.919388 164.436125 
L 295.302209 208.949197 
L 295.397915 204.803626 
L 295.618773 175.965995 
L 295.869079 152.258509 
L 295.883803 152.388058 
L 295.942699 154.95313 
L 296.089938 174.618684 
L 296.413864 212.93931 
L 296.458035 213.483416 
L 296.502207 212.706121 
L 296.605274 204.907265 
L 297.046991 149.382519 
L 297.150058 152.932164 
L 297.326745 171.820424 
L 297.562327 191.045511 
L 297.584413 190.786413 
L 297.658033 186.666751 
L 297.871529 155.885884 
L 298.136559 132.437496 
L 298.158645 132.333856 
L 298.195455 132.826143 
L 298.283798 138.059927 
L 298.504657 169.540359 
L 298.696067 183.091196 
L 298.710791 182.987557 
L 298.791773 179.800649 
L 298.968459 160.601471 
L 299.262937 130.960636 
L 299.285023 131.297463 
L 299.373367 137.489911 
L 299.859255 184.516236 
L 299.903427 183.428024 
L 300.021218 172.960456 
L 300.345144 141.635482 
L 300.374592 141.99822 
L 300.470297 148.190667 
L 300.720603 186.252194 
L 300.963547 213.923883 
L 300.985633 213.587055 
L 301.073977 207.472338 
L 301.552503 159.798267 
L 301.618761 161.663774 
L 301.766 176.66556 
L 302.082563 204.933175 
L 302.119373 204.466798 
L 302.222441 199.284834 
L 302.399127 176.328733 
L 302.642072 151.792132 
L 302.649433 151.843952 
L 302.715691 154.149926 
L 302.877654 170.006736 
L 303.208942 200.088039 
L 303.216303 200.062129 
L 303.260475 199.077556 
L 303.370904 190.060938 
L 303.849431 137.256722 
L 303.900965 138.189476 
L 304.011394 146.402889 
L 304.33532 178.738346 
L 304.386853 177.339216 
L 304.52673 164.202936 
L 304.90219 126.06368 
L 304.938999 126.789155 
L 305.034705 134.66574 
L 305.527955 190.086848 
L 305.579489 188.635898 
L 305.704642 176.199183 
L 306.058015 138.940861 
L 306.072739 139.07041 
L 306.138997 141.816851 
L 306.30096 161.922872 
L 306.632247 198.611179 
L 306.661695 198.170712 
L 306.764762 190.864142 
L 307.16967 158.114128 
L 307.184393 158.269587 
L 307.258013 161.301036 
L 307.412614 179.412001 
L 307.743902 215.556202 
L 307.751263 215.504382 
L 307.802797 214.001613 
L 307.935312 202.186734 
L 308.318133 154.409024 
L 308.399115 157.051826 
L 308.583164 173.349103 
L 308.855556 196.097926 
L 308.877642 195.864738 
L 308.958623 192.107814 
L 309.142672 170.680392 
L 309.444512 141.557753 
L 309.466597 141.635482 
L 309.540217 144.122825 
L 309.680094 158.606415 
L 309.981934 188.765447 
L 309.989296 188.739537 
L 310.048191 187.003579 
L 310.180706 173.78957 
L 310.600337 123.654066 
L 310.629785 124.224082 
L 310.72549 131.81566 
L 311.181931 180.966591 
L 311.233465 179.463821 
L 311.36598 164.617493 
L 311.66782 136.660796 
L 311.697268 137.023534 
L 311.792973 143.164162 
L 312.021193 177.520584 
L 312.264138 202.73084 
L 312.2715 202.70493 
L 312.323033 201.202161 
L 312.470272 187.729054 
L 312.831008 148.708863 
L 312.882541 150.159813 
L 313.007694 162.907445 
L 313.397878 207.18733 
L 313.419963 206.980051 
L 313.486221 204.699987 
L 313.626098 191.097331 
L 313.913214 161.922872 
L 313.9353 162.15606 
L 314.023643 166.172083 
L 314.259226 190.268216 
L 314.50217 210.348328 
L 314.524256 210.0115 
L 314.612599 203.300856 
L 315.113211 137.64537 
L 315.201555 141.635482 
L 315.407689 170.473113 
L 315.613824 186.666751 
L 315.628548 186.563112 
L 315.702167 183.531663 
L 315.908302 161.249217 
L 316.20278 129.898333 
L 316.232228 130.520169 
L 316.335295 139.251779 
L 316.76965 184.801244 
L 316.799098 184.360777 
L 316.880079 178.764256 
L 317.093575 142.309137 
L 317.284986 126.970523 
L 317.292348 127.022343 
L 317.37333 129.716964 
L 317.513207 143.267801 
L 317.896028 194.672886 
L 317.954923 193.092387 
L 318.109524 178.246059 
L 318.440812 150.62619 
L 318.448174 150.67801 
L 318.499708 152.595336 
L 318.632223 169.51445 
L 318.970872 210.736975 
L 318.992958 210.814705 
L 319.022406 210.348328 
L 319.118111 204.674077 
L 319.33897 173.478652 
L 319.537742 152.647156 
L 319.56719 153.217172 
L 319.662895 160.70511 
L 320.119336 212.628392 
L 320.192956 209.286025 
L 320.36228 184.101679 
L 320.656758 151.584853 
L 320.686206 151.377575 
L 320.730378 152.05123 
L 320.840807 158.813693 
L 321.186819 196.331114 
L 321.282524 192.366912 
L 321.459211 170.291744 
L 321.812584 123.602247 
L 321.842032 124.249992 
L 321.937737 132.877963 
L 322.379454 180.318845 
L 322.386816 180.292935 
L 322.416264 179.852468 
L 322.504607 173.945029 
L 322.887429 132.903872 
L 322.961048 134.950748 
L 323.108287 149.045691 
L 323.469022 191.382339 
L 323.520556 189.568651 
L 323.660433 173.271374 
L 323.999083 137.386271 
L 324.006445 137.438091 
L 324.050616 138.863131 
L 324.168408 152.284419 
L 324.588039 208.016444 
L 324.617486 207.575977 
L 324.713192 202.70493 
L 324.911964 178.712436 
L 325.125461 158.217768 
L 325.154909 158.658235 
L 325.243252 164.928411 
L 325.677607 213.872063 
L 325.758588 209.804221 
L 325.935275 182.002983 
L 326.229753 148.242486 
L 326.259201 148.009298 
L 326.296011 148.579314 
L 326.391716 155.00495 
L 326.789261 201.720357 
L 326.884966 197.471147 
L 327.069015 172.131342 
L 327.378217 133.862536 
L 327.392941 134.043904 
L 327.473922 138.759492 
L 327.878829 179.59337 
L 327.974535 176.354642 
L 328.121774 159.435529 
L 328.430975 124.042714 
L 328.453061 124.275902 
L 328.541405 128.317834 
L 328.710729 148.967961 
L 329.027293 188.791357 
L 329.042017 188.713627 
L 329.108275 185.915366 
L 329.270238 167.053017 
L 329.572077 140.158622 
L 329.601525 140.52136 
L 329.682507 145.496045 
L 329.903365 179.152903 
L 330.146309 199.414383 
L 330.168395 199.492113 
L 330.197843 198.999826 
L 330.293548 192.522371 
L 330.67637 150.60028 
L 330.757351 154.305385 
L 330.956124 182.313901 
L 331.272687 217.551258 
L 331.287411 217.343979 
L 331.361031 212.576572 
L 331.854281 156.948186 
L 331.949987 160.78284 
L 332.141397 184.075769 
L 332.325446 200.373047 
L 332.354894 199.984399 
L 332.443237 194.491517 
L 332.678819 163.114724 
L 332.929126 136.634887 
L 332.94385 136.816255 
L 333.024831 141.298654 
L 333.311947 176.328733 
L 333.495996 186.278104 
L 333.51072 186.174465 
L 333.569615 184.464416 
L 333.687406 172.882726 
L 334.048142 127.48872 
L 334.092313 128.188285 
L 334.195381 134.510281 
L 334.416239 166.845738 
L 334.592926 181.717975 
L 334.615012 181.432967 
L 334.703355 176.017815 
L 335.17452 132.903872 
L 335.233415 134.66574 
L 335.343845 147.905659 
L 335.7782 204.622257 
L 335.829733 203.145397 
L 335.954886 190.060938 
L 336.286174 150.6521 
L 336.315622 151.325755 
L 336.426051 161.145577 
L 336.87513 208.53464 
L 336.904578 208.145993 
L 336.992921 202.160824 
L 337.442 160.083275 
L 337.486171 160.938299 
L 337.596601 169.281261 
L 337.93525 211.021983 
L 338.016232 207.550067 
L 338.207642 184.257138 
L 338.553654 142.827334 
L 338.583102 143.215981 
L 338.671445 148.786593 
L 339.098438 183.816671 
L 339.127886 183.453933 
L 339.216229 178.608797 
L 339.400278 150.859378 
L 339.63586 125.493663 
L 339.643222 125.545483 
L 339.694756 127.125982 
L 339.841995 141.531843 
L 340.217454 187.962242 
L 340.27635 186.019006 
L 340.430951 167.778492 
L 340.80641 129.354227 
L 340.821134 129.302407 
L 340.850582 129.768784 
L 340.938925 136.349879 
L 341.380642 189.439102 
L 341.468985 187.159038 
L 341.616224 173.608201 
L 341.866531 149.641617 
L 341.90334 150.237543 
L 342.006408 157.647752 
L 342.514382 212.498843 
L 342.595363 209.415574 
L 342.749964 188.091791 
L 343.022356 159.850086 
L 343.07389 159.28007 
L 343.118062 160.135094 
L 343.228491 168.529876 
L 343.581864 205.140454 
L 343.633398 204.000422 
L 343.773275 191.796896 
L 344.200268 149.019781 
L 344.237078 149.874805 
L 344.354869 160.860569 
L 344.730328 195.631549 
L 344.73769 195.57973 
L 344.789224 193.895591 
L 344.921739 179.437911 
L 345.30456 128.188285 
L 345.356094 129.276497 
L 345.503333 139.977254 
L 345.878792 176.613741 
L 345.959774 173.919119 
L 346.151184 154.771761 
L 346.445662 130.986546 
L 346.482472 131.478832 
L 346.578177 137.878558 
L 346.806398 175.914175 
L 347.00517 190.294126 
L 347.064066 189.128184 
L 347.196581 179.826558 
L 347.557316 143.42326 
L 347.623574 144.977849 
L 347.763451 157.233194 
L 348.190444 203.611774 
L 348.227254 202.886299 
L 348.337683 193.170116 
L 348.698418 162.104241 
L 348.764676 163.892018 
L 348.889829 175.395979 
L 349.250564 214.623448 
L 349.287374 213.923883 
L 349.390441 205.943658 
L 349.87633 146.506528 
L 349.979397 151.999411 
L 350.428476 194.543337 
L 350.494734 192.496461 
L 350.634611 176.795109 
L 350.987984 139.148139 
L 351.04688 140.288171 
L 351.186757 148.864322 
L 351.54013 183.246655 
L 351.621112 180.137476 
L 351.790436 159.487349 
L 352.136448 124.198172 
L 352.158534 124.301812 
L 352.232153 127.540539 
L 352.394116 149.071601 
L 352.67387 177.624224 
L 352.754852 178.634707 
L 352.799023 178.14242 
L 352.887367 173.970939 
L 353.218654 144.407833 
L 353.321722 148.942052 
L 353.594114 182.52118 
L 353.829696 202.601291 
L 353.859144 202.186734 
L 353.940125 196.512483 
L 354.381842 154.512663 
L 354.426014 155.134499 
L 354.521719 160.70511 
L 354.74994 192.729649 
L 354.956074 210.944254 
L 354.970798 210.866524 
L 355.051779 207.575977 
L 355.257914 186.692661 
L 355.537668 158.347317 
L 355.574478 159.176431 
L 355.677545 168.555786 
L 356.023557 198.45572 
L 356.053004 198.585269 
L 356.089814 198.170712 
L 356.170796 194.413788 
L 356.318035 175.525528 
L 356.64196 137.386271 
L 356.664046 137.308542 
L 356.700856 137.749009 
L 356.796561 141.97231 
L 356.965886 160.186914 
L 357.216192 185.500809 
L 357.24564 185.008523 
L 357.341345 177.468765 
L 357.805148 132.411586 
L 357.834596 132.774323 
L 357.908215 136.868075 
L 358.136436 167.830311 
L 358.313122 177.779683 
L 358.327846 177.624224 
L 358.41619 174.877783 
L 358.585514 162.078331 
L 358.879992 129.561505 
L 358.94625 132.230217 
L 359.122937 154.098106 
L 359.51312 200.891243 
L 359.535206 200.632145 
L 359.623549 194.595156 
L 360.00637 158.891423 
L 360.050542 159.30598 
L 360.153609 163.65883 
L 360.315572 182.754368 
L 360.580602 209.648763 
L 360.595326 209.545123 
L 360.654222 207.368698 
L 360.823547 189.620471 
L 361.184282 154.357204 
L 361.199006 154.512663 
L 361.272626 158.813693 
L 361.751152 203.974512 
L 361.810048 202.419922 
L 361.927839 190.475495 
L 362.288574 149.330699 
L 362.31066 149.512068 
L 362.399004 152.958074 
L 362.641948 174.022758 
L 362.818635 185.189891 
L 362.848082 184.697605 
L 362.943788 177.028298 
L 363.414952 126.141409 
L 363.459124 127.022343 
L 363.569553 135.935321 
L 363.952375 182.210262 
L 364.033356 179.904288 
L 364.202681 164.280666 
L 364.497159 132.541135 
L 364.548692 134.147544 
L 364.695931 149.589797 
L 365.1082 189.75002 
L 365.137648 189.361373 
L 365.233354 183.091196 
L 365.623537 146.35107 
L 365.67507 147.517011 
L 365.7855 156.42999 
L 366.205131 212.9134 
L 366.300836 209.026927 
L 366.506971 184.723515 
L 366.786725 162.570618 
L 366.830896 163.60701 
L 366.941325 172.519989 
L 367.316785 202.75675 
L 367.338871 202.679021 
L 367.405128 200.321227 
L 367.537643 185.112162 
L 367.861569 147.050635 
L 367.883655 147.232003 
L 367.957274 150.289362 
L 368.156047 170.91358 
L 368.406353 194.387878 
L 368.435801 193.947411 
L 368.531506 187.133128 
L 369.039481 133.810716 
L 369.1131 136.479428 
L 369.282425 155.859974 
L 369.532731 174.903692 
L 369.584265 173.919119 
L 369.71678 164.513854 
L 370.070153 125.649122 
L 370.143773 128.706481 
L 370.335184 152.776705 
L 370.703281 193.791952 
L 370.710643 193.714223 
L 370.7769 190.345946 
L 370.997759 161.275126 
L 371.225979 146.558348 
L 371.248065 146.661987 
L 371.314323 148.967961 
L 371.446838 163.917928 
L 371.763401 200.813514 
L 371.778125 200.683964 
L 371.844383 198.37799 
L 372.043155 181.251599 
L 372.322909 157.362743 
L 372.352357 157.88094 
L 372.455425 166.120263 
L 372.904503 213.431596 
L 372.941313 212.9134 
L 373.029656 206.617313 
L 373.265239 166.431181 
L 373.449288 153.709459 
L 373.456649 153.761278 
L 373.508183 154.797671 
L 373.655422 163.581101 
L 373.994072 193.584673 
L 374.060329 190.915962 
L 374.222292 170.214015 
L 374.583028 133.732987 
L 374.590389 133.707077 
L 374.605113 133.888446 
L 374.671371 137.61946 
L 374.870143 166.871648 
L 375.076278 183.790761 
L 375.091002 183.687122 
L 375.171983 180.422484 
L 375.356032 161.041938 
L 375.665234 124.845918 
L 375.709406 126.115499 
L 375.864006 141.013646 
L 376.268914 182.236172 
L 376.313085 181.147959 
L 376.430876 169.099892 
L 376.710631 141.324564 
L 376.732716 141.480023 
L 376.806336 143.941456 
L 376.960937 157.88094 
L 377.31431 203.249037 
L 377.380568 201.538989 
L 377.542531 189.128184 
L 377.91799 154.512663 
L 377.962162 155.549056 
L 378.065229 165.653886 
L 378.462774 207.290969 
L 378.48486 207.213239 
L 378.551118 204.984995 
L 378.690995 189.439102 
L 378.97811 157.90685 
L 379.000196 158.088218 
L 379.081178 161.819233 
L 379.35357 188.739537 
L 379.559704 205.529101 
L 379.596514 204.622257 
L 379.706943 193.196026 
L 380.18547 135.261666 
L 380.207556 135.572584 
L 380.288537 140.728638 
L 380.649273 179.256542 
L 380.737616 176.924658 
L 380.921665 161.482405 
L 381.238229 130.36471 
L 381.289762 131.504742 
L 381.414915 142.283228 
L 381.834546 182.028893 
L 381.841908 182.002983 
L 381.900804 179.722919 
L 382.033319 163.166543 
L 382.320435 134.043904 
L 382.335159 134.017995 
L 382.357245 134.199363 
L 382.438226 137.256722 
L 382.592827 153.813098 
L 382.938839 194.672886 
L 382.968286 194.232419 
L 383.071354 187.832693 
L 383.468899 154.409024 
L 383.535156 156.896367 
L 383.697119 177.986961 
L 384.013683 211.255171 
L 384.035769 211.177442 
L 384.102026 208.949197 
L 384.256627 194.180599 
L 384.587915 155.186319 
L 384.639449 156.170892 
L 384.794049 167.156656 
L 385.169509 206.047297 
L 385.25049 202.523562 
L 385.419815 179.334272 
L 385.706931 150.030264 
L 385.773189 148.864322 
L 385.81736 149.745256 
L 385.913066 157.233194 
L 386.229629 184.775334 
L 386.259077 184.516236 
L 386.362144 180.914771 
L 386.502021 167.389844 
L 386.870119 124.249992 
L 386.906929 125.130926 
L 387.017358 135.598494 
L 387.436989 178.349699 
L 387.444351 178.271969 
L 387.495884 176.328733 
L 387.643123 160.083275 
L 387.922877 137.308542 
L 387.944963 137.256722 
L 387.974411 137.61946 
L 388.070116 141.842761 
L 388.268889 163.322002 
L 388.533919 191.382339 
L 388.563367 190.812323 
L 388.673796 183.402114 
L 389.093427 142.930973 
L 389.18177 147.491102 
L 389.395267 180.318845 
L 389.660297 205.529101 
L 389.711831 206.125027 
L 389.756002 205.477281 
L 389.851708 199.82894 
L 390.219805 165.13569 
L 390.300787 166.923467 
L 390.440664 176.432372 
L 390.786675 208.068263 
L 390.845571 206.125027 
L 390.978086 189.957298 
L 391.338821 149.330699 
L 391.405079 148.009298 
L 391.44925 148.916142 
L 391.552318 157.440473 
L 391.890967 188.402709 
L 391.913053 188.22134 
L 392.008758 184.619875 
L 392.192807 167.208476 
L 392.487285 135.702133 
L 392.531457 136.842165 
L 392.671334 149.20115 
L 393.024707 176.043725 
L 393.046793 176.199183 
L 393.090965 175.421889 
L 393.194032 167.415754 
L 393.584215 126.944613 
L 393.635749 127.721908 
L 393.746178 133.732987 
L 393.930227 158.165948 
L 394.195257 188.091791 
L 394.209981 187.988152 
L 394.2836 184.930793 
L 394.762127 148.501585 
L 394.857832 152.828525 
L 395.373169 199.543932 
L 395.439426 197.859794 
L 395.571941 185.39717 
L 395.859057 155.315868 
L 395.895867 155.989523 
L 396.006296 163.762469 
L 396.462737 211.177442 
L 396.55108 207.472338 
L 396.801387 178.22015 
L 397.073779 161.041938 
L 397.103227 160.83466 
L 397.147398 161.456495 
L 397.243104 167.519393 
L 397.530219 193.325575 
L 397.589115 191.822806 
L 397.743716 179.049264 
L 398.155985 132.463405 
L 398.244328 136.453518 
L 398.487273 164.410215 
L 398.487273 164.410215 
" clip-path="url(#p8fe6df2ed5)" style="fill: none; stroke: #1f77b4; stroke-width: 1.5; stroke-linecap: square"/>
   </g>
   <g id="patch_3">
    <path d="M 57.6 307.584 
L 57.6 41.472 
" style="fill: none; stroke: #000000; stroke-width: 0.8; stroke-linejoin: miter; stroke-linecap: square"/>
   </g>
   <g id="patch_4">
    <path d="M 414.72 307.584 
L 414.72 41.472 
" style="fill: none; stroke: #000000; stroke-width: 0.8; stroke-linejoin: miter; stroke-linecap: square"/>
   </g>
   <g id="patch_5">
    <path d="M 57.6 307.584 
L 414.72 307.584 
" style="fill: none; stroke: #000000; stroke-width: 0.8; stroke-linejoin: miter; stroke-linecap: square"/>
   </g>
   <g id="patch_6">
    <path d="M 57.6 41.472 
L 414.72 41.472 
" style="fill: none; stroke: #000000; stroke-width: 0.8; stroke-linejoin: miter; stroke-linecap: square"/>
   </g>
   <g id="text_14">
    <text style="font: 12px 'IPAexGothic'; text-anchor: middle" x="236.16" y="35.472" transform="rotate(-0 236.16 35.472)">"010_A1.wav"の波形グラフ</text>
   </g>
  </g>
 </g>
 <defs>
  <clipPath id="p8fe6df2ed5">
   <rect x="57.6" y="41.472" width="357.12" height="266.112"/>
  </clipPath>
 </defs>
</svg>
