<?xml version="1.0" encoding="utf-8" standalone="no"?>
<!DOCTYPE svg PUBLIC "-//W3C//DTD SVG 1.1//EN"
  "http://www.w3.org/Graphics/SVG/1.1/DTD/svg11.dtd">
<svg xmlns:xlink="http://www.w3.org/1999/xlink" width="460.8pt" height="345.6pt" viewBox="0 0 460.8 345.6" xmlns="http://www.w3.org/2000/svg" version="1.1">
 <metadata>
  <rdf:RDF xmlns:dc="http://purl.org/dc/elements/1.1/" xmlns:cc="http://creativecommons.org/ns#" xmlns:rdf="http://www.w3.org/1999/02/22-rdf-syntax-ns#">
   <cc:Work>
    <dc:type rdf:resource="http://purl.org/dc/dcmitype/StillImage"/>
    <dc:date>2022-11-28T12:31:45.901501</dc:date>
    <dc:format>image/svg+xml</dc:format>
    <dc:creator>
     <cc:Agent>
      <dc:title>Matplotlib v3.6.2, https://matplotlib.org/</dc:title>
     </cc:Agent>
    </dc:creator>
   </cc:Work>
  </rdf:RDF>
 </metadata>
 <defs>
  <style type="text/css">*{stroke-linejoin: round; stroke-linecap: butt}</style>
 </defs>
 <g id="figure_1">
  <g id="patch_1">
   <path d="M 0 345.6 
L 460.8 345.6 
L 460.8 0 
L 0 0 
z
" style="fill: #ffffff"/>
  </g>
  <g id="axes_1">
   <g id="patch_2">
    <path d="M 57.6 307.584 
L 414.72 307.584 
L 414.72 41.472 
L 57.6 41.472 
z
" style="fill: #ffffff"/>
   </g>
   <g id="matplotlib.axis_1">
    <g id="xtick_1">
     <g id="line2d_1">
      <defs>
       <path id="me9ec978457" d="M 0 0 
L 0 3.5 
" style="stroke: #000000; stroke-width: 0.8"/>
      </defs>
      <g>
       <use xlink:href="#me9ec978457" x="73.832727" y="307.584" style="stroke: #000000; stroke-width: 0.8"/>
      </g>
     </g>
     <g id="text_1">
      <text style="font: 10px 'IPAexGothic'; text-anchor: middle" x="73.832727" y="322.074625" transform="rotate(-0 73.832727 322.074625)">0.0</text>
     </g>
    </g>
    <g id="xtick_2">
     <g id="line2d_2">
      <g>
       <use xlink:href="#me9ec978457" x="138.765109" y="307.584" style="stroke: #000000; stroke-width: 0.8"/>
      </g>
     </g>
     <g id="text_2">
      <text style="font: 10px 'IPAexGothic'; text-anchor: middle" x="138.765109" y="322.074625" transform="rotate(-0 138.765109 322.074625)">0.2</text>
     </g>
    </g>
    <g id="xtick_3">
     <g id="line2d_3">
      <g>
       <use xlink:href="#me9ec978457" x="203.69749" y="307.584" style="stroke: #000000; stroke-width: 0.8"/>
      </g>
     </g>
     <g id="text_3">
      <text style="font: 10px 'IPAexGothic'; text-anchor: middle" x="203.69749" y="322.074625" transform="rotate(-0 203.69749 322.074625)">0.4</text>
     </g>
    </g>
    <g id="xtick_4">
     <g id="line2d_4">
      <g>
       <use xlink:href="#me9ec978457" x="268.629872" y="307.584" style="stroke: #000000; stroke-width: 0.8"/>
      </g>
     </g>
     <g id="text_4">
      <text style="font: 10px 'IPAexGothic'; text-anchor: middle" x="268.629872" y="322.074625" transform="rotate(-0 268.629872 322.074625)">0.6</text>
     </g>
    </g>
    <g id="xtick_5">
     <g id="line2d_5">
      <g>
       <use xlink:href="#me9ec978457" x="333.562253" y="307.584" style="stroke: #000000; stroke-width: 0.8"/>
      </g>
     </g>
     <g id="text_5">
      <text style="font: 10px 'IPAexGothic'; text-anchor: middle" x="333.562253" y="322.074625" transform="rotate(-0 333.562253 322.074625)">0.8</text>
     </g>
    </g>
    <g id="xtick_6">
     <g id="line2d_6">
      <g>
       <use xlink:href="#me9ec978457" x="398.494635" y="307.584" style="stroke: #000000; stroke-width: 0.8"/>
      </g>
     </g>
     <g id="text_6">
      <text style="font: 10px 'IPAexGothic'; text-anchor: middle" x="398.494635" y="322.074625" transform="rotate(-0 398.494635 322.074625)">1.0</text>
     </g>
    </g>
    <g id="text_7">
     <text style="font: 10px 'IPAexGothic'; text-anchor: middle" x="236.16" y="335.924625" transform="rotate(-0 236.16 335.924625)">時間[s]</text>
    </g>
   </g>
   <g id="matplotlib.axis_2">
    <g id="ytick_1">
     <g id="line2d_7">
      <defs>
       <path id="mcc053587de" d="M 0 0 
L -3.5 0 
" style="stroke: #000000; stroke-width: 0.8"/>
      </defs>
      <g>
       <use xlink:href="#mcc053587de" x="57.6" y="303.397837" style="stroke: #000000; stroke-width: 0.8"/>
      </g>
     </g>
     <g id="text_8">
      <text style="font: 10px 'IPAexGothic'; text-anchor: end" x="50.6" y="307.14315" transform="rotate(-0 50.6 307.14315)">−6000</text>
     </g>
    </g>
    <g id="ytick_2">
     <g id="line2d_8">
      <g>
       <use xlink:href="#mcc053587de" x="57.6" y="260.174682" style="stroke: #000000; stroke-width: 0.8"/>
      </g>
     </g>
     <g id="text_9">
      <text style="font: 10px 'IPAexGothic'; text-anchor: end" x="50.6" y="263.919995" transform="rotate(-0 50.6 263.919995)">−4000</text>
     </g>
    </g>
    <g id="ytick_3">
     <g id="line2d_9">
      <g>
       <use xlink:href="#mcc053587de" x="57.6" y="216.951527" style="stroke: #000000; stroke-width: 0.8"/>
      </g>
     </g>
     <g id="text_10">
      <text style="font: 10px 'IPAexGothic'; text-anchor: end" x="50.6" y="220.696839" transform="rotate(-0 50.6 220.696839)">−2000</text>
     </g>
    </g>
    <g id="ytick_4">
     <g id="line2d_10">
      <g>
       <use xlink:href="#mcc053587de" x="57.6" y="173.728372" style="stroke: #000000; stroke-width: 0.8"/>
      </g>
     </g>
     <g id="text_11">
      <text style="font: 10px 'IPAexGothic'; text-anchor: end" x="50.6" y="177.473684" transform="rotate(-0 50.6 177.473684)">0</text>
     </g>
    </g>
    <g id="ytick_5">
     <g id="line2d_11">
      <g>
       <use xlink:href="#mcc053587de" x="57.6" y="130.505216" style="stroke: #000000; stroke-width: 0.8"/>
      </g>
     </g>
     <g id="text_12">
      <text style="font: 10px 'IPAexGothic'; text-anchor: end" x="50.6" y="134.250529" transform="rotate(-0 50.6 134.250529)">2000</text>
     </g>
    </g>
    <g id="ytick_6">
     <g id="line2d_12">
      <g>
       <use xlink:href="#mcc053587de" x="57.6" y="87.282061" style="stroke: #000000; stroke-width: 0.8"/>
      </g>
     </g>
     <g id="text_13">
      <text style="font: 10px 'IPAexGothic'; text-anchor: end" x="50.6" y="91.027374" transform="rotate(-0 50.6 91.027374)">4000</text>
     </g>
    </g>
    <g id="ytick_7">
     <g id="line2d_13">
      <g>
       <use xlink:href="#mcc053587de" x="57.6" y="44.058906" style="stroke: #000000; stroke-width: 0.8"/>
      </g>
     </g>
     <g id="text_14">
      <text style="font: 10px 'IPAexGothic'; text-anchor: end" x="50.6" y="47.804218" transform="rotate(-0 50.6 47.804218)">6000</text>
     </g>
    </g>
    <g id="text_15">
     <text style="font: 10px 'IPAexGothic'; text-anchor: middle" x="12.723438" y="174.528" transform="rotate(-90 12.723438 174.528)">振幅</text>
    </g>
   </g>
   <g id="line2d_14">
    <path d="M 73.832727 173.771595 
L 73.854813 174.549612 
L 73.862175 174.419942 
L 73.913709 132.277366 
L 73.935795 161.020764 
L 73.979966 274.632828 
L 74.0315 98.90909 
L 74.06831 67.442633 
L 74.097757 247.834471 
L 74.164015 279.992499 
L 74.178739 212.564377 
L 74.215549 68.177426 
L 74.281806 169.859899 
L 74.325978 279.236094 
L 74.384873 108.331738 
L 74.436407 67.550691 
L 74.465855 223.435 
L 74.52475 279.041589 
L 74.554198 179.152878 
L 74.63518 68.393542 
L 74.657265 196.744702 
L 74.723523 279.73316 
L 74.752971 149.545016 
L 74.782419 68.026145 
L 74.848676 219.501693 
L 74.907572 281.699813 
L 74.937019 124.994264 
L 75.003277 68.22065 
L 75.025363 189.87222 
L 75.054811 279.149647 
L 75.121068 155.877209 
L 75.150516 68.393542 
L 75.216773 229.075622 
L 75.238859 279.495433 
L 75.297755 159.335061 
L 75.371374 68.22065 
L 75.39346 229.918473 
L 75.415546 280.122168 
L 75.481804 184.490937 
L 75.511251 67.658749 
L 75.584871 220.625495 
L 75.606957 280.576011 
L 75.673214 144.94175 
L 75.702662 67.68036 
L 75.76892 229.615911 
L 75.791005 280.381507 
L 75.857263 143.83956 
L 75.879349 67.226517 
L 75.952968 216.800246 
L 75.975054 281.094689 
L 76.041312 176.235315 
L 76.070759 66.232384 
L 76.137017 199.078752 
L 76.166465 281.094689 
L 76.22536 159.940185 
L 76.254808 66.275608 
L 76.321066 204.654539 
L 76.343152 282.780392 
L 76.416771 145.979106 
L 76.446219 66.383666 
L 76.512476 219.674586 
L 76.534562 282.412996 
L 76.60082 148.291545 
L 76.630268 65.821765 
L 76.696525 226.158059 
L 76.718611 282.88845 
L 76.784868 165.991427 
L 76.814316 63.790276 
L 76.880574 199.208422 
L 76.90266 284.293203 
L 76.976279 120.888064 
L 76.998365 63.422879 
L 77.064622 205.648672 
L 77.086708 284.206756 
L 77.160328 118.078559 
L 77.182414 61.304945 
L 77.248671 205.194829 
L 77.270757 286.692088 
L 77.344376 127.479595 
L 77.366462 60.440482 
L 77.43272 197.371438 
L 77.462168 286.627253 
L 77.528425 122.465709 
L 77.550511 59.511184 
L 77.616769 199.943215 
L 77.638854 289.242254 
L 77.712474 130.699721 
L 77.73456 57.587753 
L 77.800817 191.990155 
L 77.830265 289.804155 
L 77.896523 125.275215 
L 77.918608 57.285191 
L 77.984866 194.929329 
L 78.014314 291.079238 
L 78.080571 132.796044 
L 78.102657 54.972753 
L 78.168915 186.30631 
L 78.198362 293.15395 
L 78.26462 132.234143 
L 78.286706 55.664323 
L 78.352963 186.824988 
L 78.382411 293.910355 
L 78.448669 138.674393 
L 78.478116 53.568 
L 78.537012 184.858334 
L 78.56646 295.488 
L 78.632717 139.344352 
L 78.662165 53.784116 
L 78.728423 230.977441 
L 78.750509 294.407421 
L 78.816766 137.420921 
L 78.846214 54.129901 
L 78.905109 184.815111 
L 78.934557 294.601925 
L 79.000815 139.04179 
L 79.030263 54.021843 
L 79.089158 184.382879 
L 79.118606 294.429033 
L 79.184863 135.454268 
L 79.214311 54.626967 
L 79.273207 188.575525 
L 79.302655 294.277752 
L 79.368912 136.253896 
L 79.39836 54.302794 
L 79.457256 193.481354 
L 79.486703 294.169694 
L 79.552961 128.949183 
L 79.575047 54.886306 
L 79.641304 189.828997 
L 79.670752 293.97519 
L 79.73701 135.34621 
L 79.766457 54.562133 
L 79.825353 187.94879 
L 79.854801 293.586181 
L 79.921058 142.19708 
L 79.950506 55.232091 
L 80.016764 226.979299 
L 80.038849 292.570437 
L 80.105107 141.094889 
L 80.134555 54.79986 
L 80.200812 228.189547 
L 80.222898 293.802297 
L 80.289156 147.038073 
L 80.318603 54.864695 
L 80.384861 221.814132 
L 80.406947 291.900478 
L 80.473204 146.17361 
L 80.502652 56.074943 
L 80.56891 218.356279 
L 80.598357 290.97118 
L 80.657253 151.987125 
L 80.686701 56.334282 
L 80.752958 214.25008 
L 80.782406 290.322833 
L 80.841302 155.20725 
L 80.87075 58.992506 
L 80.937007 211.548632 
L 80.966455 289.3287 
L 81.02535 152.073571 
L 81.054798 58.236101 
L 81.121056 211.916029 
L 81.150504 289.263866 
L 81.209399 154.991134 
L 81.246209 59.554407 
L 81.305105 212.19698 
L 81.334552 288.421014 
L 81.393448 146.108775 
L 81.422896 60.678209 
L 81.481791 180.644076 
L 81.518601 287.707832 
L 81.577497 155.034357 
L 81.614306 60.332424 
L 81.673202 211.764748 
L 81.70265 287.232377 
L 81.761545 148.334768 
L 81.798355 61.153664 
L 81.849889 179.73639 
L 81.886698 288.204898 
L 81.945594 147.556751 
L 81.975042 59.813746 
L 82.041299 217.448593 
L 82.070747 287.318824 
L 82.129643 144.855304 
L 82.166452 61.456226 
L 82.217986 183.71292 
L 82.254796 288.032006 
L 82.313691 146.411338 
L 82.343139 60.310812 
L 82.409397 214.098799 
L 82.438845 287.534939 
L 82.49774 147.340635 
L 82.53455 61.110441 
L 82.586083 182.740399 
L 82.622893 287.578163 
L 82.681789 147.038073 
L 82.711237 60.159531 
L 82.777494 213.191112 
L 82.806942 287.729444 
L 82.865837 150.69043 
L 82.902647 60.980771 
L 82.961543 210.035822 
L 82.990991 285.719567 
L 83.049886 152.051959 
L 83.086696 60.915936 
L 83.145592 212.456319 
L 83.182401 284.919939 
L 83.233935 156.02849 
L 83.270745 61.153664 
L 83.32964 212.413096 
L 83.36645 284.401261 
L 83.417984 151.014604 
L 83.454793 63.077094 
L 83.513689 210.511277 
L 83.550499 283.925806 
L 83.602032 155.423365 
L 83.638842 63.70383 
L 83.697738 200.742844 
L 83.734547 283.169401 
L 83.786081 157.670969 
L 83.830253 65.432756 
L 83.881786 199.986438 
L 83.918596 280.035722 
L 83.97013 165.537584 
L 84.014301 67.140071 
L 84.065835 191.493088 
L 84.110007 278.047457 
L 84.16154 143.753113 
L 84.19835 69.149947 
L 84.249884 190.69346 
L 84.294055 275.043448 
L 84.345589 146.130387 
L 84.382399 74.12061 
L 84.433932 187.365277 
L 84.478104 273.530637 
L 84.529638 148.831834 
L 84.566447 78.205198 
L 84.617981 182.394614 
L 84.662153 268.970594 
L 84.713686 152.484191 
L 84.750496 81.360489 
L 84.80203 182.070441 
L 84.846202 264.043155 
L 84.897735 156.114936 
L 84.941907 87.908797 
L 84.986079 177.380728 
L 85.03025 261.255261 
L 85.081784 160.026631 
L 85.118594 85.877309 
L 85.177489 197.998173 
L 85.214299 257.927078 
L 85.265833 162.122954 
L 85.310004 89.767393 
L 85.361538 194.79966 
L 85.398348 258.575425 
L 85.449881 165.429526 
L 85.494053 89.46483 
L 85.545587 193.178791 
L 85.582396 254.94468 
L 85.63393 167.115229 
L 85.678102 91.172145 
L 85.729635 191.493088 
L 85.773807 252.221622 
L 85.817979 169.103494 
L 85.86215 95.256733 
L 85.913684 184.25321 
L 85.957856 249.930794 
L 86.009389 157.584523 
L 86.046199 96.358924 
L 86.097733 181.011473 
L 86.141904 246.710669 
L 86.193438 161.23688 
L 86.23761 99.017148 
L 86.289143 195.015776 
L 86.325953 247.250959 
L 86.377487 163.311591 
L 86.421658 98.282354 
L 86.473192 192.422386 
L 86.510002 246.99162 
L 86.561535 166.553328 
L 86.605707 101.610537 
L 86.657241 186.803376 
L 86.701412 243.404098 
L 86.745584 169.903122 
L 86.789756 104.182315 
L 86.841289 184.447714 
L 86.885461 243.144759 
L 86.936995 153.4351 
L 86.973804 102.842397 
L 87.025338 186.284698 
L 87.06951 240.01108 
L 87.121043 154.623737 
L 87.157853 106.86215 
L 87.209387 185.204119 
L 87.246197 238.671162 
L 87.305092 155.272084 
L 87.341902 105.738348 
L 87.393436 184.620607 
L 87.437607 237.396079 
L 87.489141 157.973532 
L 87.525951 109.606821 
L 87.577484 182.61073 
L 87.621656 236.401947 
L 87.67319 156.784895 
L 87.709999 111.616698 
L 87.761533 181.011473 
L 87.805705 233.203433 
L 87.857238 160.502086 
L 87.90141 115.658063 
L 87.945582 180.860192 
L 87.989753 229.723969 
L 88.041287 161.906839 
L 88.078097 118.100171 
L 88.136992 190.369286 
L 88.173802 230.329093 
L 88.225336 163.117087 
L 88.269507 119.18075 
L 88.313679 178.137133 
L 88.357851 225.639381 
L 88.409384 165.34308 
L 88.453556 120.931287 
L 88.50509 188.575525 
L 88.541899 227.217026 
L 88.593433 165.753699 
L 88.637605 123.546288 
L 88.689138 186.068582 
L 88.73331 223.435 
L 88.777482 170.292131 
L 88.821653 122.249594 
L 88.873187 183.972259 
L 88.909997 223.802397 
L 88.968892 158.881218 
L 89.005702 123.827239 
L 89.057236 180.363126 
L 89.101407 224.710083 
L 89.152941 160.804648 
L 89.189751 123.5679 
L 89.241284 178.785481 
L 89.285456 223.586281 
L 89.33699 164.565063 
L 89.381161 124.410751 
L 89.432695 186.090194 
L 89.469505 225.466488 
L 89.521038 166.899113 
L 89.56521 122.400875 
L 89.616744 186.695318 
L 89.653554 225.747439 
L 89.705087 167.828411 
L 89.749259 121.860585 
L 89.800793 186.565649 
L 89.844964 224.710083 
L 89.889136 168.390312 
L 89.933308 123.15728 
L 89.984841 182.502672 
L 90.029013 226.633514 
L 90.073185 168.08775 
L 90.117356 121.92542 
L 90.16889 183.496805 
L 90.213062 225.250373 
L 90.257233 168.628039 
L 90.301405 123.15728 
L 90.352939 182.934904 
L 90.39711 224.342686 
L 90.448644 158.470598 
L 90.485454 122.616991 
L 90.536987 181.443705 
L 90.581159 223.56467 
L 90.632693 160.523698 
L 90.669502 122.962776 
L 90.721036 182.070441 
L 90.765208 220.97128 
L 90.816741 161.215268 
L 90.853551 124.021743 
L 90.905085 179.347382 
L 90.949256 224.493967 
L 91.00079 160.458863 
L 91.044962 123.243726 
L 91.089133 182.783623 
L 91.133305 219.847478 
L 91.177477 173.123247 
L 91.221648 126.939306 
L 91.273182 177.748125 
L 91.317354 221.576405 
L 91.368887 164.867625 
L 91.413059 124.086578 
L 91.457231 175.889529 
L 91.501403 223.240496 
L 91.552936 164.457005 
L 91.597108 125.469719 
L 91.648641 186.155029 
L 91.685451 221.900578 
L 91.736985 166.056262 
L 91.781157 125.772281 
L 91.83269 183.43197 
L 91.876862 223.737562 
L 91.921034 165.883369 
L 91.965205 127.090587 
L 92.016739 184.923169 
L 92.060911 217.599874 
L 92.105082 170.356966 
L 92.149254 127.54443 
L 92.200788 182.243333 
L 92.244959 220.992892 
L 92.289131 169.233163 
L 92.333303 127.803769 
L 92.384836 181.486928 
L 92.429008 219.73942 
L 92.47318 169.060271 
L 92.524713 128.603398 
L 92.568885 182.135275 
L 92.613057 218.22661 
L 92.66459 162.74969 
L 92.708762 126.960918 
L 92.752934 180.060564 
L 92.797105 220.647107 
L 92.848639 161.625888 
L 92.885449 127.630877 
L 92.936982 179.32577 
L 92.981154 220.366156 
L 93.032688 162.295847 
L 93.069497 126.917694 
L 93.121031 179.239324 
L 93.165203 219.415247 
L 93.216736 161.539442 
L 93.260908 127.587653 
L 93.30508 181.573374 
L 93.349251 216.259956 
L 93.400785 162.187789 
L 93.444957 134.179185 
L 93.489128 174.895397 
L 93.540662 214.768758 
L 93.584834 167.936469 
L 93.629005 130.159431 
L 93.680539 185.679574 
L 93.717349 212.88855 
L 93.768882 170.01118 
L 93.813054 129.251745 
L 93.864588 184.166764 
L 93.901398 215.136154 
L 93.952931 167.914857 
L 93.997103 134.135961 
L 94.048637 183.777755 
L 94.085446 210.705781 
L 94.13698 168.303866 
L 94.181152 135.800053 
L 94.232685 181.249201 
L 94.269495 211.008343 
L 94.321029 169.622172 
L 94.3652 135.75683 
L 94.416734 182.264945 
L 94.460906 209.020078 
L 94.505077 168.822544 
L 94.549249 138.069269 
L 94.600783 181.400482 
L 94.644954 209.149747 
L 94.689126 171.718495 
L 94.733298 138.263773 
L 94.784831 179.023208 
L 94.829003 206.772474 
L 94.873175 171.329487 
L 94.917346 141.65679 
L 94.96888 179.412217 
L 95.013052 205.151606 
L 95.064585 166.769444 
L 95.108757 142.175468 
L 95.152929 175.975976 
L 95.1971 205.886399 
L 95.248634 165.667253 
L 95.292806 144.725634 
L 95.336977 178.418084 
L 95.381149 202.687886 
L 95.432683 167.352956 
L 95.469492 142.19708 
L 95.521026 177.078166 
L 95.565198 204.762597 
L 95.616731 167.288121 
L 95.660903 143.104766 
L 95.705075 179.585109 
L 95.749247 202.385324 
L 95.793418 173.469033 
L 95.844952 144.358238 
L 95.889124 175.781472 
L 95.933295 204.049415 
L 95.984829 170.032792 
L 96.029001 142.110634 
L 96.080534 181.594986 
L 96.124706 202.709497 
L 96.168878 167.590684 
L 96.213049 145.287535 
L 96.257221 175.824695 
L 96.301393 201.52086 
L 96.352926 168.822544 
L 96.397098 148.161875 
L 96.44127 176.17048 
L 96.485441 197.760446 
L 96.536975 167.201675 
L 96.573785 150.214975 
L 96.625318 178.396472 
L 96.66949 195.015776 
L 96.713662 172.366842 
L 96.757833 152.657083 
L 96.809367 175.75986 
L 96.853539 195.6209 
L 96.89771 168.952213 
L 96.941882 154.105059 
L 96.986054 175.306017 
L 97.037587 192.768172 
L 97.081759 171.480768 
L 97.125931 155.358531 
L 97.177464 176.256926 
L 97.221636 192.422386 
L 97.27317 169.427668 
L 97.309979 152.808364 
L 97.361513 177.618456 
L 97.405685 195.058999 
L 97.449857 170.335354 
L 97.50139 152.354521 
L 97.545562 177.294282 
L 97.589734 194.151312 
L 97.641267 167.007171 
L 97.678077 150.992992 
L 97.729611 180.255068 
L 97.773782 195.123833 
L 97.817954 168.671262 
L 97.869488 152.765141 
L 97.906297 174.93862 
L 97.957831 192.61689 
L 98.002003 170.097627 
L 98.046174 155.293696 
L 98.097708 179.04482 
L 98.134518 192.681725 
L 98.186051 169.557337 
L 98.230223 153.932167 
L 98.274395 175.824695 
L 98.325928 190.045113 
L 98.3701 170.940478 
L 98.414272 157.454854 
L 98.465805 177.229447 
L 98.502615 192.119824 
L 98.554149 169.859899 
L 98.59832 156.287828 
L 98.642492 176.408207 
L 98.694026 190.520567 
L 98.730835 174.93862 
L 98.782369 157.13068 
L 98.833903 176.840439 
L 98.878074 191.298584 
L 98.922246 172.237173 
L 98.97378 154.818241 
L 99.017951 177.510398 
L 99.062123 192.206271 
L 99.106295 171.502379 
L 99.157828 157.173903 
L 99.202 176.364984 
L 99.246172 188.834864 
L 99.297705 170.745974 
L 99.341877 158.427375 
L 99.386049 174.722504 
L 99.437582 189.439989 
L 99.481754 169.622172 
L 99.525926 158.946053 
L 99.570098 174.679281 
L 99.621631 188.489079 
L 99.665803 170.465023 
L 99.709975 159.313449 
L 99.754146 175.457298 
L 99.798318 188.942922 
L 99.849852 169.708618 
L 99.894023 158.686714 
L 99.938195 175.111513 
L 99.982367 187.883955 
L 100.0339 170.378577 
L 100.078072 160.091466 
L 100.122244 176.148868 
L 100.166415 188.381021 
L 100.210587 172.863909 
L 100.254759 159.010887 
L 100.306292 175.457298 
L 100.350464 184.94478 
L 100.401998 171.567214 
L 100.438807 162.252624 
L 100.490341 175.673414 
L 100.534513 184.771888 
L 100.578684 172.820685 
L 100.622856 161.020764 
L 100.667028 174.852174 
L 100.711199 185.528293 
L 100.762733 170.443412 
L 100.806905 162.252624 
L 100.851076 176.473042 
L 100.887886 186.068582 
L 100.93942 169.362833 
L 100.983592 160.394028 
L 101.027763 175.781472 
L 101.071935 187.192384 
L 101.116107 170.96209 
L 101.160278 161.885227 
L 101.20445 175.651802 
L 101.255984 184.015483 
L 101.300155 170.918867 
L 101.344327 163.484484 
L 101.388499 174.808951 
L 101.440032 182.653953 
L 101.484204 172.734239 
L 101.535738 164.93246 
L 101.565185 173.512256 
L 101.624081 179.974118 
L 101.660891 172.042669 
L 101.727148 168.282254 
L 101.756596 173.469033 
L 101.815492 178.353249 
L 101.874387 174.463165 
L 101.911197 168.90899 
L 101.977455 174.765727 
L 101.99954 179.73639 
L 102.07316 170.184073 
L 102.095246 166.920725 
L 102.146779 176.624323 
L 102.183589 179.239324 
L 102.220399 171.826553 
L 102.235123 171.891388 
L 102.264571 168.3687 
L 102.308742 175.133124 
L 102.330828 173.188082 
L 102.360276 179.152878 
L 102.404448 169.687007 
L 102.426533 171.632049 
L 102.441257 169.751841 
L 102.463343 168.066138 
L 102.500153 177.575232 
L 102.559048 178.461307 
L 102.56641 177.380728 
L 102.64003 168.022915 
L 102.67684 175.197959 
L 102.728373 178.936762 
L 102.757821 173.42581 
L 102.83144 167.504237 
L 102.860888 174.852174 
L 102.927146 179.477051 
L 102.956594 172.150726 
L 103.000765 167.072006 
L 103.044937 174.030934 
L 103.096471 181.78949 
L 103.13328 173.663537 
L 103.192176 165.321468 
L 103.228986 174.247049 
L 103.287881 182.999738 
L 103.324691 173.749983 
L 103.383587 163.678988 
L 103.420396 173.771595 
L 103.479292 183.323912 
L 103.516102 173.209694 
L 103.567635 163.592542 
L 103.611807 175.608579 
L 103.655979 183.540028 
L 103.685426 173.70676 
L 103.744322 164.93246 
L 103.781132 174.700893 
L 103.840027 182.459449 
L 103.876837 171.718495 
L 103.928371 164.543451 
L 103.96518 175.133124 
L 104.024076 181.746267 
L 104.060886 171.134982 
L 104.119781 164.089608 
L 104.141867 172.237173 
L 104.208125 180.925027 
L 104.244935 171.459156 
L 104.30383 164.348947 
L 104.325916 171.199817 
L 104.392173 180.96825 
L 104.428983 169.514114 
L 104.487879 167.482626 
L 104.509965 174.095768 
L 104.583584 179.649944 
L 104.60567 173.42581 
L 104.671928 167.13684 
L 104.708737 175.392463 
L 104.760271 179.822837 
L 104.789719 172.60457 
L 104.848614 168.022915 
L 104.878062 174.700893 
L 104.900148 178.936762 
L 104.973767 171.307875 
L 105.040025 167.763576 
L 105.062111 173.29614 
L 105.084197 180.038952 
L 105.157816 170.897255 
L 105.17254 166.769444 
L 105.246159 175.197959 
L 105.268245 180.795358 
L 105.341865 170.4218 
L 105.356589 167.050394 
L 105.430208 174.917008 
L 105.444932 178.331638 
L 105.525913 171.480768 
L 105.592171 167.26651 
L 105.621619 174.268661 
L 105.680514 179.541886 
L 105.717324 170.076015 
L 105.77622 166.812667 
L 105.746772 171.394321 
L 105.790944 170.292131 
L 105.820391 179.758002 
L 105.894011 171.523991 
L 105.908735 168.541593 
L 105.989716 175.154736 
L 106.055974 179.368993 
L 106.07806 172.539735 
L 106.144317 166.099485 
L 106.173765 177.877795 
L 106.188489 179.606721 
L 106.254746 174.419942 
L 106.335728 167.158452 
L 106.357814 177.143001 
L 106.424071 180.708911 
L 106.446157 172.647793 
L 106.468243 166.229154 
L 106.541862 176.710769 
L 106.556586 179.714779 
L 106.630206 170.097627 
L 106.64493 167.590684 
L 106.718549 173.83643 
L 106.740635 179.109654 
L 106.814254 171.675272 
L 106.83634 166.682997 
L 106.90996 177.596844 
L 106.924684 182.135275 
L 106.998303 169.751841 
L 107.020389 164.543451 
L 107.086646 177.467175 
L 107.10137 182.113664 
L 107.17499 170.767585 
L 107.197076 162.922583 
L 107.270695 176.5811 
L 107.292781 183.71292 
L 107.359039 172.582958 
L 107.388486 162.360682 
L 107.454744 176.99172 
L 107.484192 184.901557 
L 107.543087 171.199817 
L 107.572535 162.144566 
L 107.638793 176.429819 
L 107.66824 184.771888 
L 107.727136 171.999445 
L 107.756584 161.539442 
L 107.822841 176.127257 
L 107.844927 183.799367 
L 107.918547 169.470891 
L 107.940632 162.87936 
L 108.00689 175.608579 
L 108.036338 183.734532 
L 108.102595 171.264652 
L 108.124681 163.57093 
L 108.198301 177.013331 
L 108.220386 183.756144 
L 108.286644 171.351098 
L 108.316092 163.678988 
L 108.374987 174.93862 
L 108.404435 182.178498 
L 108.470693 173.166471 
L 108.544312 163.959939 
L 108.566398 173.771595 
L 108.588484 182.286556 
L 108.662103 170.054403 
L 108.684189 163.506095 
L 108.750447 175.089901 
L 108.772533 181.983994 
L 108.846152 170.378577 
L 108.91241 164.93246 
L 108.941857 177.294282 
L 108.963943 182.502672 
L 109.030201 171.718495 
L 109.052287 164.089608 
L 109.125906 176.883662 
L 109.147992 181.746267 
L 109.214249 173.231305 
L 109.236335 166.985559 
L 109.309955 174.182215 
L 109.376212 180.427961 
L 109.40566 170.767585 
L 109.471918 167.288121 
L 109.494003 175.306017 
L 109.516089 180.082175 
L 109.589709 171.610437 
L 109.655966 168.90899 
L 109.678052 173.620314 
L 109.74431 178.526142 
L 109.773757 171.502379 
L 109.840015 168.736097 
L 109.862101 174.744116 
L 109.876825 178.979985 
L 109.957806 172.496512 
L 110.031426 169.578949 
L 110.053511 174.376719 
L 110.112407 177.834571 
L 110.141855 173.144859 
L 110.215474 168.714486 
L 110.23756 173.987711 
L 110.31118 180.125399 
L 110.27437 173.252917 
L 110.333266 173.29614 
L 110.399523 166.229154 
L 110.436333 174.744116 
L 110.495228 181.940771 
L 110.517314 175.241182 
L 110.57621 165.559195 
L 110.620381 175.824695 
L 110.664553 179.693167 
L 110.694001 175.111513 
L 110.76762 167.95808 
L 110.797068 176.04081 
L 110.811792 178.266803 
L 110.885412 171.761718 
L 110.900136 169.665395 
L 110.973755 174.657669 
L 110.995841 178.245191 
L 111.06946 171.740106 
L 111.084184 170.767585 
L 111.150442 173.749983 
L 111.172528 177.748125 
L 111.246147 171.24304 
L 111.268233 167.828411 
L 111.33449 173.966099 
L 111.363938 179.585109 
L 111.430196 170.508247 
L 111.452282 166.488493 
L 111.511177 175.414075 
L 111.547987 180.644076 
L 111.599521 170.55147 
L 111.628968 164.716344 
L 111.680502 175.975976 
L 111.724674 181.659821 
L 111.754121 173.641925 
L 111.820379 166.618163 
L 111.857189 174.311884 
L 111.908722 180.255068 
L 111.945532 173.70676 
L 112.004428 165.126964 
L 112.048599 173.598702 
L 112.100133 181.832713 
L 112.144305 173.728372 
L 112.188476 165.559195 
L 112.247372 174.700893 
L 112.284182 180.644076 
L 112.343077 172.863909 
L 112.372525 165.926592 
L 112.438783 175.154736 
L 112.46823 181.400482 
L 112.534488 171.307875 
L 112.556574 164.348947 
L 112.630193 175.046678 
L 112.659641 182.32978 
L 112.725899 170.810809 
L 112.755346 164.240889 
L 112.814242 177.27267 
L 112.84369 182.070441 
L 112.902585 171.869776 
L 112.932033 164.673121 
L 112.998291 175.954364 
L 113.020377 183.518416 
L 113.093996 170.767585 
L 113.123444 164.759567 
L 113.182339 176.148868 
L 113.211787 182.092052 
L 113.270683 171.999445 
L 113.300131 164.716344 
L 113.366388 175.932753 
L 113.395836 184.988004 
L 113.462093 169.60056 
L 113.491541 161.712334 
L 113.550437 176.17048 
L 113.587247 184.361268 
L 113.63878 171.65366 
L 113.668228 162.965806 
L 113.734486 178.396472 
L 113.763933 187.062715 
L 113.822829 169.384445 
L 113.852277 159.075722 
L 113.911172 175.586967 
L 113.947982 187.494947 
L 113.999516 171.545602 
L 114.036325 160.307582 
L 114.095221 177.27267 
L 114.124669 186.327921 
L 114.183564 171.523991 
L 114.220374 161.172045 
L 114.27927 175.565356 
L 114.316079 186.17664 
L 114.374975 170.529858 
L 114.419147 160.869483 
L 114.463318 175.068289 
L 114.50749 186.565649 
L 114.559024 169.622172 
L 114.595833 160.480475 
L 114.647367 174.722504 
L 114.684177 188.100071 
L 114.743072 171.934611 
L 114.779882 158.470598 
L 114.838778 176.300149 
L 114.875587 189.310319 
L 114.927121 170.659528 
L 114.963931 158.859606 
L 115.015464 176.732381 
L 115.059636 187.300442 
L 115.103808 173.404198 
L 115.14798 160.458863 
L 115.206875 176.019199 
L 115.243685 184.361268 
L 115.30258 171.351098 
L 115.33939 162.46874 
L 115.398286 176.256926 
L 115.435095 184.793499 
L 115.486629 170.616304 
L 115.523439 161.409772 
L 115.574973 175.370852 
L 115.611782 185.593128 
L 115.670678 171.307875 
L 115.707488 161.344938 
L 115.759021 175.781472 
L 115.795831 184.771888 
L 115.847365 171.502379 
L 115.884174 162.684855 
L 115.935708 173.620314 
L 115.972518 184.404491 
L 116.031413 172.777462 
L 116.068223 161.23688 
L 116.127119 177.575232 
L 116.156566 185.636351 
L 116.2081 170.83242 
L 116.252272 163.484484 
L 116.296443 173.42581 
L 116.340615 184.382879 
L 116.392149 173.404198 
L 116.43632 160.869483 
L 116.487854 175.781472 
L 116.524664 185.960525 
L 116.576197 171.286263 
L 116.620369 162.555186 
L 116.664541 173.533867 
L 116.716074 184.923169 
L 116.760246 173.685148 
L 116.804418 160.264359 
L 116.855951 175.889529 
L 116.892761 185.960525 
L 116.944295 171.113371 
L 116.995828 160.847871 
L 117.032638 173.814818 
L 117.084172 186.544037 
L 117.128344 173.771595 
L 117.172515 160.674979 
L 117.224049 174.700893 
L 117.268221 187.322054 
L 117.319754 169.881511 
L 117.363926 160.69659 
L 117.408098 177.488786 
L 117.459631 184.339656 
L 117.496441 172.021057 
L 117.547975 163.28998 
L 117.592146 174.419942 
L 117.64368 183.993871 
L 117.687852 172.410065 
L 117.739385 162.576798 
L 117.783557 175.565356 
L 117.835091 184.750276 
L 117.8719 171.351098 
L 117.923434 162.231012 
L 117.960244 172.863909 
L 118.011777 185.679574 
L 118.063311 169.535726 
L 118.107483 162.511963 
L 118.151654 175.522133 
L 118.203188 185.549905 
L 118.239998 170.897255 
L 118.291531 162.728079 
L 118.328341 175.392463 
L 118.372513 184.274822 
L 118.424046 171.091759 
L 118.468218 163.203533 
L 118.519752 176.17048 
L 118.563923 185.160896 
L 118.608095 171.869776 
L 118.652267 160.999152 
L 118.696438 176.278538 
L 118.74061 185.636351 
L 118.784782 174.247049 
L 118.836315 160.82626 
L 118.887849 176.948497 
L 118.924659 185.614739 
L 118.976192 171.523991 
L 119.020364 160.69659 
L 119.064536 176.883662 
L 119.11607 186.17664 
L 119.152879 172.215561 
L 119.211775 161.885227 
L 119.248585 173.966099 
L 119.300118 186.111806 
L 119.34429 172.626181 
L 119.388462 158.276094 
L 119.439995 179.152878 
L 119.484167 189.483212 
L 119.520977 171.523991 
L 119.579872 158.276094 
L 119.616682 176.494654 
L 119.668216 188.467468 
L 119.712387 169.622172 
L 119.756559 158.729937 
L 119.800731 176.084034 
L 119.844902 189.850609 
L 119.889074 171.588825 
L 119.940608 158.103201 
L 119.984779 176.062422 
L 120.036313 189.331931 
L 120.080485 168.736097 
L 120.124656 159.162168 
L 120.168828 176.818827 
L 120.213 189.159038 
L 120.257171 171.070148 
L 120.308705 158.492209 
L 120.345515 174.679281 
L 120.397048 188.100071 
L 120.44122 169.881511 
L 120.470668 160.242747 
L 120.536925 179.239324 
L 120.566373 186.824988 
L 120.625269 169.060271 
L 120.662079 160.134689 
L 120.713612 177.704902 
L 120.750422 186.522426 
L 120.801956 171.999445 
L 120.831403 161.582665 
L 120.897661 175.241182 
L 120.927109 187.365277 
L 120.993366 169.060271 
L 121.022814 158.340928 
L 121.08171 175.392463 
L 121.118519 189.115815 
L 121.177415 168.563205 
L 121.206863 158.168036 
L 121.265758 176.321761 
L 121.302568 189.785774 
L 121.361464 168.152585 
L 121.390911 156.806506 
L 121.449807 176.645935 
L 121.493979 190.153171 
L 121.545512 168.692874 
L 121.582322 156.763283 
L 121.633856 176.473042 
L 121.670665 191.23375 
L 121.729561 167.461014 
L 121.759009 156.287828 
L 121.817904 176.775604 
L 121.854714 190.498956 
L 121.91361 168.563205 
L 121.950419 154.472456 
L 122.001953 178.353249 
L 122.038763 190.369286 
L 122.090297 173.70676 
L 122.134468 156.590391 
L 122.186002 175.457298 
L 122.222812 192.530444 
L 122.281707 169.276387 
L 122.318517 155.055969 
L 122.370051 175.457298 
L 122.414222 192.141436 
L 122.465756 168.3687 
L 122.502566 155.401754 
L 122.554099 176.624323 
L 122.590909 191.276973 
L 122.649805 168.628039 
L 122.693976 156.331052 
L 122.738148 176.602711 
L 122.78232 190.69346 
L 122.833853 167.936469 
L 122.863301 157.022622 
L 122.922197 175.911141 
L 122.959006 188.683583 
L 123.017902 170.076015 
L 123.062074 157.195515 
L 123.106245 174.722504 
L 123.157779 191.039245 
L 123.201951 168.606428 
L 123.23876 155.985266 
L 123.290294 174.981843 
L 123.341828 190.866353 
L 123.385999 171.329487 
L 123.430171 155.466589 
L 123.481705 178.115522 
L 123.525876 193.524577 
L 123.570048 171.480768 
L 123.621582 154.883076 
L 123.665753 178.547753 
L 123.709925 191.23375 
L 123.754097 173.123247 
L 123.80563 153.56477 
L 123.849802 177.467175 
L 123.886612 192.530444 
L 123.945507 165.667253 
L 123.974955 156.071713 
L 124.033851 178.007464 
L 124.078022 191.10408 
L 124.122194 171.199817 
L 124.173728 157.346796 
L 124.217899 177.596844 
L 124.262071 189.548046 
L 124.306243 171.675272 
L 124.343053 156.30944 
L 124.401948 178.699034 
L 124.44612 190.196394 
L 124.490292 171.632049 
L 124.541825 157.82225 
L 124.585997 177.186224 
L 124.622807 188.856476 
L 124.681702 167.461014 
L 124.71115 157.152292 
L 124.770046 177.423951 
L 124.814217 191.23375 
L 124.858389 171.718495 
L 124.909923 156.050101 
L 124.954094 178.137133 
L 124.998266 192.076601 
L 125.042438 171.545602 
L 125.086609 153.910555 
L 125.138143 179.32577 
L 125.167591 190.82313 
L 125.226486 169.816676 
L 125.263296 156.02849 
L 125.322192 179.779613 
L 125.359001 192.098213 
L 125.410535 170.659528 
L 125.454707 156.093324 
L 125.50624 179.585109 
L 125.550412 190.369286 
L 125.594584 170.076015 
L 125.631393 157.173903 
L 125.690289 178.418084 
L 125.734461 191.882097 
L 125.778632 171.610437 
L 125.830166 155.20725 
L 125.874338 175.997587 
L 125.918509 192.443998 
L 125.970043 168.282254 
L 126.014215 155.336919 
L 126.058386 176.278538 
L 126.102558 192.811395 
L 126.154092 169.081882 
L 126.198263 153.932167 
L 126.249797 179.174489 
L 126.293969 192.530444 
L 126.338141 171.437544 
L 126.389674 155.661093 
L 126.433846 177.661679 
L 126.485379 191.579535 
L 126.522189 172.907132 
L 126.573723 154.450844 
L 126.617895 175.911141 
L 126.662066 194.583544 
L 126.7136 168.930601 
L 126.757772 153.716051 
L 126.801943 175.435686 
L 126.853477 194.38904 
L 126.897649 168.865767 
L 126.94182 154.018613 
L 126.985992 174.333496 
L 127.030164 194.172924 
L 127.081697 170.573081 
L 127.125869 151.727786 
L 127.177403 179.217712 
L 127.221574 194.216147 
L 127.265746 170.83242 
L 127.309918 153.132538 
L 127.361451 179.433828 
L 127.398261 193.15718 
L 127.449795 171.24304 
L 127.493966 155.293696 
L 127.5455 177.164612 
L 127.589672 193.891974 
L 127.633843 172.431677 
L 127.678015 154.558902 
L 127.729549 177.510398 
L 127.77372 190.671848 
L 127.817892 172.907132 
L 127.869426 156.050101 
L 127.913597 177.164612 
L 127.957769 191.968543 
L 128.001941 172.021057 
L 128.053474 154.926299 
L 128.097646 178.482919 
L 128.14918 191.385031 
L 128.185989 172.345231 
L 128.237523 157.022622 
L 128.281695 177.207836 
L 128.325866 190.736683 
L 128.3774 167.67713 
L 128.421572 155.4882 
L 128.465743 176.5811 
L 128.509915 192.357552 
L 128.561449 168.3687 
L 128.60562 156.201382 
L 128.649792 176.062422 
L 128.693964 191.190526 
L 128.745498 168.930601 
L 128.782307 155.4882 
L 128.833841 175.954364 
L 128.878013 192.638502 
L 128.929546 169.60056 
L 128.973718 155.985266 
L 129.025252 178.310026 
L 129.069423 191.255361 
L 129.113595 172.258784 
L 129.157767 153.888943 
L 129.2093 179.45544 
L 129.24611 192.292717 
L 129.297644 170.378577 
L 129.341815 156.050101 
L 129.393349 178.958373 
L 129.430159 190.736683 
L 129.481692 171.610437 
L 129.525864 156.417498 
L 129.577398 177.964241 
L 129.614207 191.23375 
L 129.665741 171.156594 
L 129.709913 156.568779 
L 129.761446 179.196101 
L 129.798256 190.69346 
L 129.84979 171.567214 
L 129.886599 156.547167 
L 129.945495 177.618456 
L 129.982305 190.28284 
L 130.033838 170.918867 
L 130.070648 157.476465 
L 130.129544 178.288415 
L 130.166353 189.742551 
L 130.217887 171.221429 
L 130.254697 157.303573 
L 130.313592 178.180357 
L 130.350402 189.288708 
L 130.401936 172.085892 
L 130.446107 157.173903 
L 130.497641 177.618456 
L 130.534451 190.109947 
L 130.585985 170.465023 
L 130.630156 157.995143 
L 130.674328 174.376719 
L 130.725862 190.109947 
L 130.770033 172.950355 
L 130.814205 156.914564 
L 130.865739 177.121389 
L 130.90991 190.304452 
L 130.954082 171.37271 
L 130.998254 156.698448 
L 131.049787 177.294282 
L 131.093959 190.801518 
L 131.138131 173.641925 
L 131.189664 156.806506 
L 131.233836 174.247049 
L 131.278008 192.249494 
L 131.329541 170.810809 
L 131.373713 155.509812 
L 131.425247 178.763869 
L 131.469418 192.249494 
L 131.51359 171.156594 
L 131.557762 155.877209 
L 131.609295 176.970108 
L 131.653467 192.119824 
L 131.705001 169.622172 
L 131.74181 154.515679 
L 131.793344 176.213703 
L 131.830154 192.789783 
L 131.889049 167.396179 
L 131.925859 156.050101 
L 131.977393 176.5811 
L 132.021564 189.072592 
L 132.073098 170.465023 
L 132.109908 159.356673 
L 132.168803 177.661679 
L 132.205613 189.029369 
L 132.257147 172.345231 
L 132.301318 157.238738 
L 132.352852 177.877795 
L 132.397024 190.066724 
L 132.441195 171.199817 
L 132.485367 158.124813 
L 132.536901 177.423951 
L 132.57371 190.347675 
L 132.625244 172.431677 
L 132.662054 156.590391 
L 132.720949 177.121389 
L 132.765121 190.844741 
L 132.809293 171.286263 
L 132.853464 157.476465 
L 132.904998 178.742258 
L 132.941808 189.115815 
L 132.993342 172.19395 
L 133.037513 157.152292 
L 133.089047 176.753992 
L 133.133219 190.715072 
L 133.17739 171.307875 
L 133.221562 157.260349 
L 133.273096 177.337505 
L 133.317267 189.656104 
L 133.361439 173.252917 
L 133.405611 157.260349 
L 133.457144 174.981843 
L 133.501316 190.41251 
L 133.55285 171.37271 
L 133.589659 157.779027 
L 133.648555 177.013331 
L 133.685365 189.159038 
L 133.736898 172.539735 
L 133.78107 158.794771 
L 133.832604 175.522133 
L 133.869413 189.007757 
L 133.928309 171.156594 
L 133.965119 158.881218 
L 134.024014 176.99172 
L 134.060824 189.202261 
L 134.112358 170.313742 
L 134.149167 158.319317 
L 134.200701 175.327628 
L 134.244873 190.326063 
L 134.296406 169.341221 
L 134.333216 156.828118 
L 134.38475 177.704902 
L 134.421559 189.526435 
L 134.473093 171.523991 
L 134.517265 157.5413 
L 134.568798 177.510398 
L 134.605608 190.109947 
L 134.657142 171.804941 
L 134.701313 158.168036 
L 134.752847 176.840439 
L 134.789657 188.705195 
L 134.848552 169.578949 
L 134.885362 158.578656 
L 134.936896 176.213703 
L 134.981067 188.683583 
L 135.032601 170.767585 
L 135.076773 158.946053 
L 135.120944 174.463165 
L 135.165116 188.921311 
L 135.21665 170.594693 
L 135.260821 159.270226 
L 135.304993 175.241182 
L 135.349165 187.192384 
L 135.400699 172.042669 
L 135.437508 159.291838 
L 135.496404 176.494654 
L 135.533214 189.504823 
L 135.584747 172.539735 
L 135.621557 159.551177 
L 135.680453 176.624323 
L 135.717262 186.219863 
L 135.768796 172.928743 
L 135.805606 160.566921 
L 135.864501 175.306017 
L 135.901311 187.473335 
L 135.960207 170.529858 
L 135.997016 161.625888 
L 136.04855 174.571223 
L 136.08536 184.923169 
L 136.144255 170.96209 
L 136.173703 161.690723 
L 136.232599 175.651802 
L 136.269408 186.522426 
L 136.320942 172.539735 
L 136.365114 162.274235 
L 136.416647 175.241182 
L 136.453457 184.015483 
L 136.504991 172.323619 
L 136.5418 161.474607 
L 136.600696 176.429819 
L 136.637506 186.219863 
L 136.689039 172.410065 
L 136.733211 161.496219 
L 136.784745 174.873785 
L 136.828916 185.268954 
L 136.88045 171.502379 
L 136.91726 162.425517 
L 136.968793 174.852174 
L 137.005603 186.155029 
L 137.064499 170.789197 
L 137.101309 160.329193 
L 137.152842 175.046678 
L 137.197014 186.544037 
L 137.248547 170.724362 
L 137.285357 161.604277 
L 137.336891 176.062422 
L 137.373701 185.76602 
L 137.425234 171.221429 
L 137.469406 161.452996 
L 137.513578 175.500521 
L 137.565111 186.090194 
L 137.601921 173.922876 
L 137.660817 161.301714 
L 137.697626 175.327628 
L 137.741798 185.312177 
L 137.78597 171.869776 
L 137.837503 162.166178 
L 137.874313 174.311884 
L 137.933209 185.031227 
L 137.970018 171.329487 
L 138.028914 162.728079 
L 138.058362 175.673414 
L 138.109895 183.129408 
L 138.154067 171.24304 
L 138.205601 163.938327 
L 138.24241 174.917008 
L 138.293944 183.929036 
L 138.338116 170.270519 
L 138.389649 163.268368 
L 138.419097 172.302008 
L 138.485355 183.151019 
L 138.522164 171.264652 
L 138.573698 164.197666 
L 138.610508 175.154736 
L 138.669403 182.697176 
L 138.706213 171.091759 
L 138.765109 163.592542 
L 138.794557 174.333496 
L 138.860814 184.318045 
L 138.890262 172.150726 
L 138.949157 163.030641 
L 138.985967 175.824695 
L 139.037501 183.864202 
L 139.074311 172.950355 
L 139.133206 162.987418 
L 139.170016 176.364984 
L 139.22155 184.685441 
L 139.258359 172.06428 
L 139.317255 162.101343 
L 139.354065 176.86205 
L 139.405598 183.475193 
L 139.442408 172.215561 
L 139.493942 163.808657 
L 139.538113 177.251059 
L 139.589647 183.648086 
L 139.626457 171.394321 
L 139.685352 162.965806 
L 139.7148 174.138992 
L 139.773696 183.626474 
L 139.810505 171.091759 
L 139.862039 163.959939 
L 139.898849 174.981843 
L 139.957744 183.02135 
L 139.994554 170.55147 
L 140.05345 164.673121 
L 140.082897 174.852174 
L 140.134431 183.777755 
L 140.178603 170.940478 
L 140.222774 163.441261 
L 140.266946 174.592835 
L 140.31848 184.209987 
L 140.362651 170.854032 
L 140.406823 162.555186 
L 140.450995 175.500521 
L 140.502528 184.836723 
L 140.5467 169.924734 
L 140.590872 161.842004 
L 140.635044 176.192091 
L 140.679215 185.398624 
L 140.730749 170.032792 
L 140.774921 162.036508 
L 140.819092 176.105645 
L 140.870626 185.982136 
L 140.907436 172.453289 
L 140.958969 161.950062 
L 141.003141 176.926885 
L 141.047313 185.614739 
L 141.091484 171.65366 
L 141.143018 162.46874 
L 141.18719 178.439696 
L 141.238723 184.404491 
L 141.275533 171.65366 
L 141.327067 162.46874 
L 141.371238 176.948497 
L 141.41541 185.247343 
L 141.459582 173.252917 
L 141.511115 161.409772 
L 141.555287 175.738248 
L 141.606821 186.241475 
L 141.650992 170.119238 
L 141.702526 161.150433 
L 141.739336 174.917008 
L 141.790869 186.889822 
L 141.835041 171.37271 
L 141.879213 160.394028 
L 141.930746 177.81296 
L 141.967556 186.544037 
L 142.01909 171.199817 
L 142.063261 161.063987 
L 142.107433 174.592835 
L 142.158967 186.544037 
L 142.203138 171.761718 
L 142.24731 161.128822 
L 142.298844 177.964241 
L 142.335654 186.608872 
L 142.387187 170.745974 
L 142.431359 160.82626 
L 142.475531 176.019199 
L 142.527064 186.781765 
L 142.563874 172.755851 
L 142.62277 161.323326 
L 142.659579 176.127257 
L 142.703751 187.343666 
L 142.755285 169.643783 
L 142.792094 159.724069 
L 142.843628 177.034943 
L 142.8878 188.121682 
L 142.931971 171.156594 
L 142.976143 160.242747 
L 143.027677 177.337505 
L 143.071848 186.392756 
L 143.123382 169.492502 
L 143.160192 160.545309 
L 143.211725 176.256926 
L 143.255897 185.89569 
L 143.307431 169.470891 
L 143.358964 162.533574 
L 143.395774 175.543744 
L 143.45467 185.89569 
L 143.491479 170.724362 
L 143.535651 161.885227 
L 143.579823 174.225438 
L 143.631356 186.155029 
L 143.675528 170.767585 
L 143.727062 161.625888 
L 143.763871 175.781472 
L 143.822767 185.333789 
L 143.859577 170.83242 
L 143.91111 163.095475 
L 143.94792 174.463165 
L 143.999454 184.015483 
L 144.043625 171.178205 
L 144.095159 163.354814 
L 144.131969 174.636058 
L 144.190864 183.950648 
L 144.227674 170.83242 
L 144.28657 163.722211 
L 144.316018 174.290273 
L 144.374913 183.993871 
L 144.411723 172.107503 
L 144.470618 163.052252 
L 144.507428 177.877795 
L 144.529514 183.691309 
L 144.595772 172.366842 
L 144.654667 163.376426 
L 144.691477 176.689158 
L 144.743011 184.231598 
L 144.787182 169.643783 
L 144.838716 163.57093 
L 144.875526 176.127257 
L 144.927059 184.577384 
L 144.971231 169.384445 
L 145.022765 162.728079 
L 145.059574 176.429819 
L 145.111108 185.07445 
L 145.15528 169.470891 
L 145.206813 163.354814 
L 145.243623 176.213703 
L 145.302519 183.518416 
L 145.339328 170.076015 
L 145.390862 163.765434 
L 145.427672 176.148868 
L 145.479205 184.707053 
L 145.516015 172.302008 
L 145.574911 163.830269 
L 145.61172 177.207836 
L 145.633806 183.259077 
L 145.700064 172.950355 
L 145.729512 163.959939 
L 145.795769 176.494654 
L 145.825217 184.426103 
L 145.884112 171.999445 
L 145.91356 163.398038 
L 145.979818 177.143001 
L 146.009266 184.058706 
L 146.068161 171.934611 
L 146.097609 163.268368 
L 146.163867 177.510398 
L 146.185952 183.929036 
L 146.25221 171.523991 
L 146.281658 164.457005 
L 146.347915 177.40234 
L 146.370001 182.070441 
L 146.436259 171.869776 
L 146.465706 166.293989 
L 146.531964 175.63019 
L 146.561412 180.860192 
L 146.627669 170.983701 
L 146.649755 167.115229 
L 146.716013 175.154736 
L 146.767546 181.91916 
L 146.811718 170.810809 
L 146.841166 165.580807 
L 146.900061 175.306017 
L 146.936871 182.459449 
L 146.995767 170.702751 
L 147.032576 165.105352 
L 147.08411 175.262794 
L 147.12092 182.675565 
L 147.179815 170.400189 
L 147.209263 164.067996 
L 147.268159 176.084034 
L 147.304968 183.388747 
L 147.356502 172.453289 
L 147.400674 164.716344 
L 147.452207 176.494654 
L 147.481655 182.632342 
L 147.540551 173.123247 
L 147.577361 165.170187 
L 147.636256 175.651802 
L 147.673066 183.237466 
L 147.724599 172.388454 
L 147.768771 164.910848 
L 147.820305 176.127257 
L 147.857115 182.567507 
L 147.908648 172.626181 
L 147.945458 164.132831 
L 148.004354 176.537877 
L 148.041163 184.209987 
L 148.092697 172.518123 
L 148.129507 163.743823 
L 148.188402 176.473042 
L 148.225212 182.718788 
L 148.276746 172.712627 
L 148.313555 164.132831 
L 148.372451 176.364984 
L 148.401899 184.12354 
L 148.460794 172.453289 
L 148.497604 163.7006 
L 148.5565 176.86205 
L 148.593309 182.675565 
L 148.644843 171.523991 
L 148.674291 165.537584 
L 148.733186 174.657669 
L 148.769996 182.459449 
L 148.828892 172.669404 
L 148.873063 164.543451 
L 148.917235 174.636058 
L 148.961407 183.475193 
L 149.01294 169.946346 
L 149.042388 164.457005 
L 149.101284 176.235315 
L 149.138094 183.064573 
L 149.189627 173.036801 
L 149.233799 164.305724 
L 149.285332 175.932753 
L 149.322142 183.410358 
L 149.373676 173.01519 
L 149.410486 164.954071 
L 149.469381 174.528 
L 149.528277 182.891681 
L 149.565086 172.431677 
L 149.609258 164.543451 
L 149.660792 176.321761 
L 149.697602 183.453582 
L 149.749135 172.863909 
L 149.800669 164.846013 
L 149.844841 175.21957 
L 149.896374 182.524284 
L 149.940546 171.134982 
L 149.984718 164.176054 
L 150.028889 174.355107 
L 150.073061 184.642218 
L 150.124595 171.696883 
L 150.168766 162.771302 
L 150.212938 175.954364 
L 150.25711 184.318045 
L 150.308643 169.643783 
L 150.338091 162.403905 
L 150.396987 176.624323 
L 150.433796 184.879946 
L 150.48533 172.280396 
L 150.529502 163.678988 
L 150.581035 176.99172 
L 150.617845 182.632342 
L 150.669379 172.345231 
L 150.698826 165.040517 
L 150.765084 175.867918 
L 150.801894 183.259077 
L 150.860789 171.199817 
L 150.904961 163.873492 
L 150.949133 175.154736 
L 150.978581 182.805234 
L 151.044838 170.724362 
L 151.074286 164.543451 
L 151.133181 175.803083 
L 151.169991 183.907425 
L 151.228887 170.681139 
L 151.265696 163.808657 
L 151.31723 174.571223 
L 151.361402 182.32978 
L 151.412935 171.999445 
L 151.442383 165.321468 
L 151.508641 177.640067 
L 151.538089 182.545895 
L 151.589622 173.793206 
L 151.633794 164.975683 
L 151.692689 175.824695 
L 151.729499 181.832713 
L 151.788395 171.78333 
L 151.832566 166.337212 
L 151.876738 174.030934 
L 151.928272 181.37887 
L 151.972443 171.632049 
L 152.016615 165.407914 
L 152.060787 175.63019 
L 152.104959 182.437837 
L 152.156492 171.048536 
L 152.200664 165.105352 
L 152.244836 176.86205 
L 152.274283 180.644076 
L 152.333179 171.480768 
L 152.362627 166.920725 
L 152.421522 175.133124 
L 152.45097 180.190233 
L 152.517228 172.4749 
L 152.546675 168.49837 
L 152.612933 175.608579 
L 152.671829 179.023208 
L 152.701276 173.577091 
L 152.760172 169.125106 
L 152.796982 175.34924 
L 152.848515 178.266803 
L 152.885325 173.641925 
L 152.951583 167.979692 
L 152.98103 174.268661 
L 153.039926 180.384738 
L 153.076736 171.437544 
L 153.106183 168.022915 
L 153.165079 175.327628 
L 153.216613 180.233456 
L 153.260784 171.351098 
L 153.312318 166.942336 
L 153.349128 175.586967 
L 153.378576 180.233456 
L 153.444833 171.264652 
L 153.474281 167.655518 
L 153.533176 175.262794 
L 153.562624 179.801225 
L 153.628882 171.740106 
L 153.687777 167.223287 
L 153.717225 174.225438 
L 153.776121 180.644076 
L 153.81293 171.610437 
L 153.842378 166.747832 
L 153.901274 174.93862 
L 153.930722 180.925027 
L 153.996979 171.24304 
L 154.019065 166.812667 
L 154.085323 175.003455 
L 154.11477 180.514407 
L 154.181028 171.026924 
L 154.203114 167.093617 
L 154.269371 175.284405 
L 154.291457 179.73639 
L 154.365077 172.085892 
L 154.387162 168.90899 
L 154.45342 174.592835 
L 154.482868 179.304159 
L 154.549125 172.431677 
L 154.571211 168.563205 
L 154.644831 175.781472 
L 154.666916 179.347382 
L 154.733174 173.036801 
L 154.762622 167.612295 
L 154.828879 176.732381 
L 154.850965 180.55763 
L 154.917223 172.518123 
L 154.94667 167.13684 
L 155.012928 176.710769 
L 155.035014 180.492795 
L 155.101271 171.632049 
L 155.130719 167.093617 
L 155.189615 174.11738 
L 155.219063 181.270812 
L 155.28532 172.453289 
L 155.314768 165.62403 
L 155.381025 177.661679 
L 155.403111 182.524284 
L 155.469369 171.351098 
L 155.498817 165.494361 
L 155.557712 174.873785 
L 155.58716 181.746267 
L 155.653417 171.848164 
L 155.682865 166.03465 
L 155.749123 176.429819 
L 155.778571 181.703044 
L 155.837466 173.317752 
L 155.866914 166.769444 
L 155.933172 176.537877 
L 155.955257 181.551763 
L 156.021515 172.302008 
L 156.050963 166.077873 
L 156.11722 175.370852 
L 156.139306 180.622465 
L 156.212926 171.934611 
L 156.235011 167.396179 
L 156.301269 175.932753 
L 156.323355 180.752134 
L 156.389612 173.641925 
L 156.41906 165.753699 
L 156.485318 175.457298 
L 156.514765 181.854325 
L 156.581023 171.221429 
L 156.603109 166.164319 
L 156.669366 176.689158 
L 156.698814 181.681432 
L 156.75771 171.221429 
L 156.787157 165.537584 
L 156.846053 175.327628 
L 156.875501 182.32978 
L 156.934396 173.317752 
L 156.971206 164.846013 
L 157.030102 175.284405 
L 157.05955 182.351391 
L 157.125807 171.761718 
L 157.155255 165.148575 
L 157.21415 174.700893 
L 157.243598 182.913292 
L 157.309856 172.712627 
L 157.339304 164.176054 
L 157.405561 176.386596 
L 157.435009 184.058706 
L 157.493904 172.647793 
L 157.523352 163.959939 
L 157.58961 176.45143 
L 157.619058 183.151019 
L 157.685315 170.983701 
L 157.707401 164.954071 
L 157.773659 174.528 
L 157.803106 183.02135 
L 157.869364 172.366842 
L 157.898812 164.565063 
L 157.965069 176.99172 
L 157.994517 183.107796 
L 158.053413 172.107503 
L 158.08286 165.170187 
L 158.149118 178.050687 
L 158.171204 183.561639 
L 158.237461 171.394321 
L 158.266909 163.7006 
L 158.333167 177.251059 
L 158.362614 183.496805 
L 158.42151 171.912999 
L 158.450958 165.34308 
L 158.517215 177.488786 
L 158.539301 183.475193 
L 158.605559 171.459156 
L 158.635006 162.663244 
L 158.701264 178.050687 
L 158.72335 184.469326 
L 158.789607 171.394321 
L 158.819055 164.500228 
L 158.885313 177.229447 
L 158.907399 182.32978 
L 158.973656 172.410065 
L 159.003104 165.364691 
L 159.069361 175.63019 
L 159.098809 181.638209 
L 159.165067 171.37271 
L 159.187153 166.380435 
L 159.25341 175.262794 
L 159.282858 181.227589 
L 159.341753 172.971966 
L 159.371201 166.402047 
L 159.437459 176.04081 
L 159.459545 181.767879 
L 159.525802 173.080024 
L 159.55525 166.077873 
L 159.621507 175.824695 
L 159.650955 180.449572 
L 159.709851 172.539735 
L 159.739299 167.785188 
L 159.798194 174.549612 
L 159.827642 179.671555 
L 159.8939 173.944487 
L 159.923347 168.952213 
L 159.996967 174.549612 
L 160.019053 178.439696 
L 160.092672 172.60457 
L 160.129482 169.125106 
L 160.181016 175.197959 
L 160.210463 179.023208 
L 160.269359 172.237173 
L 160.298807 168.282254 
L 160.365064 175.738248 
L 160.394512 178.828704 
L 160.453408 173.339363 
L 160.490217 168.455147 
L 160.549113 176.213703 
L 160.578561 179.239324 
L 160.630094 173.360975 
L 160.659542 168.411924 
L 160.7258 174.917008 
L 160.755247 179.239324 
L 160.821505 172.06428 
L 160.843591 168.3687 
L 160.909848 174.592835 
L 160.939296 179.304159 
L 161.005554 172.129115 
L 161.035001 168.736097 
L 161.093897 174.549612 
L 161.123345 178.936762 
L 161.189602 172.237173 
L 161.211688 168.195808 
L 161.285308 175.997587 
L 161.314756 179.671555 
L 161.373651 171.567214 
L 161.403099 167.374568 
L 161.461994 176.645935 
L 161.48408 179.822837 
L 161.550338 172.755851 
L 161.579786 167.850023 
L 161.646043 175.478909 
L 161.675491 180.773746 
L 161.734387 171.804941 
L 161.763834 166.899113 
L 161.82273 175.932753 
L 161.852178 180.406349 
L 161.911073 172.647793 
L 161.940521 167.850023 
L 162.006779 175.003455 
L 162.036226 180.449572 
L 162.095122 172.410065 
L 162.131932 166.963948 
L 162.183465 175.262794 
L 162.220275 179.887671 
L 162.271809 173.101636 
L 162.308619 168.08775 
L 162.367514 174.528 
L 162.404324 179.282547 
L 162.463219 173.382586 
L 162.500029 167.720353 
L 162.558925 175.111513 
L 162.595734 181.011473 
L 162.647268 172.971966 
L 162.676716 166.272377 
L 162.742973 175.327628 
L 162.772421 181.50854 
L 162.838679 172.669404 
L 162.868127 166.574939 
L 162.934384 175.889529 
L 162.963832 180.881804 
L 163.022727 172.042669 
L 163.052175 166.423658 
L 163.111071 175.154736 
L 163.140519 180.665688 
L 163.206776 172.60457 
L 163.236224 167.072006 
L 163.302481 175.608579 
L 163.331929 181.422093 
L 163.390825 171.78333 
L 163.427635 166.250766 
L 163.479168 175.75986 
L 163.515978 180.903415 
L 163.567512 173.274528 
L 163.611683 166.531716 
L 163.663217 175.046678 
L 163.700027 181.400482 
L 163.75156 172.691016 
L 163.795732 165.688865 
L 163.847266 175.565356 
L 163.884075 182.243333 
L 163.935609 173.447421 
L 163.979781 165.256633 
L 164.031314 174.657669 
L 164.068124 182.956515 
L 164.12702 171.934611 
L 164.163829 164.651509 
L 164.215363 174.203826 
L 164.259535 183.280689 
L 164.311068 172.215561 
L 164.347878 164.586674 
L 164.406774 176.797216 
L 164.436221 182.653953 
L 164.495117 173.080024 
L 164.531927 164.284112 
L 164.590822 176.45143 
L 164.627632 183.367135 
L 164.679166 172.150726 
L 164.715976 164.80279 
L 164.774871 176.45143 
L 164.804319 182.437837 
L 164.863214 172.88552 
L 164.900024 165.991427 
L 164.95892 174.441554 
L 164.99573 182.113664 
L 165.054625 172.820685 
L 165.091435 165.299856 
L 165.15033 176.343373 
L 165.18714 182.351391 
L 165.238674 172.410065 
L 165.275484 165.34308 
L 165.334379 176.5811 
L 165.363827 182.243333 
L 165.422723 172.820685 
L 165.459532 165.148575 
L 165.518428 176.192091 
L 165.555238 182.718788 
L 165.606771 172.734239 
L 165.650943 164.997294 
L 165.702477 176.300149 
L 165.739286 182.675565 
L 165.79082 172.842297 
L 165.834992 164.219277 
L 165.886525 175.673414 
L 165.923335 184.037094 
L 165.974869 172.626181 
L 166.011678 164.240889 
L 166.070574 176.213703 
L 166.107384 182.934904 
L 166.158917 172.928743 
L 166.195727 163.895104 
L 166.254623 175.997587 
L 166.291432 184.339656 
L 166.350328 171.048536 
L 166.387138 164.11122 
L 166.438671 175.197959 
L 166.482843 182.826846 
L 166.534377 171.134982 
L 166.563824 165.299856 
L 166.62272 175.262794 
L 166.65953 183.064573 
L 166.718425 172.302008 
L 166.755235 164.197666 
L 166.814131 176.753992 
L 166.843578 183.496805 
L 166.902474 171.351098 
L 166.939284 164.543451 
L 166.990817 175.846306 
L 167.027627 183.215854 
L 167.086523 171.113371 
L 167.115971 164.089608 
L 167.174866 174.463165 
L 167.211676 182.978127 
L 167.270571 171.761718 
L 167.300019 166.142708 
L 167.366277 176.256926 
L 167.395725 180.211845 
L 167.45462 173.577091 
L 167.49143 166.337212 
L 167.550325 174.873785 
L 167.579773 181.983994 
L 167.646031 171.696883 
L 167.675479 165.969815 
L 167.734374 175.370852 
L 167.763822 181.205977 
L 167.83008 170.55147 
L 167.852165 166.185931 
L 167.918423 175.716637 
L 167.947871 181.983994 
L 168.006766 172.907132 
L 168.036214 165.645642 
L 168.102472 176.213703 
L 168.131919 181.162754 
L 168.190815 172.561346 
L 168.220263 166.423658 
L 168.28652 175.716637 
L 168.315968 181.767879 
L 168.374864 172.539735 
L 168.404311 165.429526 
L 168.470569 176.689158 
L 168.500017 181.962383 
L 168.558912 172.150726 
L 168.58836 166.142708 
L 168.647256 174.333496 
L 168.684065 181.50854 
L 168.742961 173.01519 
L 168.779771 165.191798 
L 168.838666 175.889529 
L 168.868114 182.934904 
L 168.92701 172.410065 
L 168.96382 164.716344 
L 169.022715 176.840439 
L 169.052163 183.129408 
L 169.111058 171.567214 
L 169.147868 164.176054 
L 169.199402 175.34924 
L 169.236212 183.388747 
L 169.295107 171.156594 
L 169.331917 164.975683 
L 169.383451 175.262794 
L 169.42026 182.070441 
L 169.471794 173.252917 
L 169.515966 164.348947 
L 169.567499 175.716637 
L 169.604309 183.518416 
L 169.655843 173.101636 
L 169.700014 164.240889 
L 169.751548 175.457298 
L 169.788358 182.934904 
L 169.839891 172.19395 
L 169.876701 164.154443 
L 169.928235 175.586967 
L 169.972406 183.820978 
L 170.016578 172.712627 
L 170.068112 164.024773 
L 170.112283 175.738248 
L 170.156455 183.194243 
L 170.200627 171.545602 
L 170.244798 165.083741 
L 170.28897 174.657669 
L 170.340504 182.632342 
L 170.384675 172.237173 
L 170.428847 165.494361 
L 170.473019 174.095768 
L 170.524552 181.983994 
L 170.568724 173.209694 
L 170.620258 164.586674 
L 170.664429 174.787339 
L 170.708601 182.956515 
L 170.760135 171.329487 
L 170.796945 163.916715 
L 170.848478 175.414075 
L 170.89265 183.950648 
L 170.936822 172.669404 
L 170.980993 163.246756 
L 171.032527 176.17048 
L 171.069337 184.404491 
L 171.12087 172.323619 
L 171.165042 163.354814 
L 171.216576 176.148868 
L 171.260747 184.037094 
L 171.304919 172.496512 
L 171.349091 162.706467 
L 171.400624 176.148868 
L 171.444796 184.469326 
L 171.488968 173.360975 
L 171.533139 163.095475 
L 171.584673 175.025066 
L 171.628845 184.015483 
L 171.680378 172.107503 
L 171.72455 162.922583 
L 171.768722 174.506388 
L 171.812893 185.031227 
L 171.864427 172.107503 
L 171.908599 163.052252 
L 171.95277 174.225438 
L 171.996942 184.879946 
L 172.048476 171.437544 
L 172.092647 163.16031 
L 172.136819 175.414075 
L 172.180991 183.885813 
L 172.232524 171.567214 
L 172.276696 163.549319 
L 172.320868 174.636058 
L 172.365039 184.361268 
L 172.416573 171.848164 
L 172.460745 163.7006 
L 172.504916 175.695025 
L 172.55645 183.799367 
L 172.59326 172.777462 
L 172.644794 163.657376 
L 172.688965 174.917008 
L 172.733137 183.71292 
L 172.784671 171.718495 
L 172.828842 163.657376 
L 172.873014 174.592835 
L 172.924548 183.648086 
L 172.968719 172.60457 
L 173.012891 164.024773 
L 173.064425 175.889529 
L 173.108596 183.388747 
L 173.152768 172.928743 
L 173.19694 164.629897 
L 173.248473 175.586967 
L 173.292645 182.567507 
L 173.336817 172.150726 
L 173.380988 165.191798 
L 173.432522 175.608579 
L 173.476694 181.91916 
L 173.520865 173.080024 
L 173.565037 165.775311 
L 173.616571 175.003455 
L 173.660742 182.351391 
L 173.704914 173.490644 
L 173.749086 164.543451 
L 173.800619 174.722504 
L 173.844791 183.323912 
L 173.896325 171.199817 
L 173.933134 164.435393 
L 173.984668 175.824695 
L 174.021478 182.762011 
L 174.073011 172.388454 
L 174.117183 163.98155 
L 174.168717 176.256926 
L 174.212888 184.231598 
L 174.25706 172.302008 
L 174.301232 164.219277 
L 174.352765 175.75986 
L 174.396937 182.524284 
L 174.441109 173.252917 
L 174.492642 164.889236 
L 174.536814 175.025066 
L 174.580986 182.956515 
L 174.632519 171.675272 
L 174.676691 164.067996 
L 174.720863 175.003455 
L 174.772396 182.826846 
L 174.816568 171.610437 
L 174.853378 164.867625 
L 174.904912 175.34924 
L 174.949083 182.740399 
L 174.993255 172.129115 
L 175.037427 165.321468 
L 175.081598 174.333496 
L 175.140494 181.465316 
L 175.177304 172.518123 
L 175.228837 166.877502 
L 175.265647 174.895397 
L 175.309819 180.082175 
L 175.361352 171.740106 
L 175.412886 167.13684 
L 175.449696 175.068289 
L 175.508591 180.536019 
L 175.538039 173.728372 
L 175.596935 167.201675 
L 175.633744 174.808951 
L 175.677916 179.239324 
L 175.72945 171.848164 
L 175.773621 167.936469 
L 175.817793 175.370852 
L 175.861965 179.779613 
L 175.906136 172.453289 
L 175.95767 168.152585 
L 175.99448 174.052545 
L 176.03129 178.979985 
L 176.090185 172.496512 
L 176.119633 168.519981 
L 176.185891 175.284405 
L 176.230062 179.239324 
L 176.274234 172.302008 
L 176.325768 167.806799 
L 176.362577 175.370852 
L 176.421473 179.952506 
L 176.450921 173.641925 
L 176.509816 168.066138 
L 176.546626 174.355107 
L 176.605522 178.979985 
L 176.642331 172.820685 
L 176.693865 168.174196 
L 176.730675 174.225438 
L 176.78957 179.693167 
L 176.82638 172.4749 
L 176.885276 167.806799 
L 176.922085 175.154736 
L 176.973619 179.86606 
L 177.017791 171.545602 
L 177.061962 167.590684 
L 177.098772 174.441554 
L 177.135582 179.066431 
L 177.194477 171.761718 
L 177.223925 168.887378 
L 177.282821 173.922876 
L 177.341716 179.304159 
L 177.385888 172.06428 
L 177.437422 167.525849 
L 177.474231 174.311884 
L 177.533127 179.930894 
L 177.569937 171.761718 
L 177.62147 167.785188 
L 177.650918 173.447421 
L 177.709814 179.779613 
L 177.753985 171.567214 
L 177.805519 167.396179 
L 177.842329 174.398331 
L 177.901224 179.412217 
L 177.938034 171.329487 
L 177.99693 169.254775 
L 178.019016 173.360975 
L 178.085273 178.158745 
L 178.122083 171.869776 
L 178.173616 168.606428 
L 178.210426 174.052545 
L 178.269322 179.304159 
L 178.306132 172.712627 
L 178.365027 168.325477 
L 178.394475 174.160603 
L 178.45337 179.282547 
L 178.49018 172.06428 
L 178.534352 167.331345 
L 178.578524 174.355107 
L 178.630057 181.227589 
L 178.674229 172.777462 
L 178.725763 165.775311 
L 178.769934 176.235315 
L 178.814106 180.384738 
L 178.858278 172.4749 
L 178.909811 167.158452 
L 178.953983 175.500521 
L 178.998155 180.816969 
L 179.042326 173.447421 
L 179.09386 166.185931 
L 179.138032 174.722504 
L 179.189565 180.925027 
L 179.233737 171.696883 
L 179.277909 167.288121 
L 179.32208 174.765727 
L 179.366252 180.471184 
L 179.410424 172.907132 
L 179.461957 166.466882 
L 179.506129 175.695025 
L 179.557663 180.211845 
L 179.594472 173.382586 
L 179.653368 167.720353 
L 179.690178 174.852174 
L 179.741711 180.082175 
L 179.785883 172.345231 
L 179.837417 166.747832 
L 179.874226 174.052545 
L 179.92576 181.422093 
L 179.969932 172.582958 
L 180.021465 166.402047 
L 180.065637 175.586967 
L 180.109809 180.471184 
L 180.15398 172.88552 
L 180.198152 166.661386 
L 180.249686 175.025066 
L 180.293857 181.09792 
L 180.338029 173.101636 
L 180.389563 166.596551 
L 180.433735 175.089901 
L 180.485268 180.341514 
L 180.522078 173.188082 
L 180.573612 167.525849 
L 180.617783 174.095768 
L 180.661955 180.406349 
L 180.713489 172.539735 
L 180.75766 166.704609 
L 180.801832 175.154736 
L 180.846004 181.033085 
L 180.890175 172.993578 
L 180.941709 166.618163 
L 180.978519 173.922876 
L 181.030052 180.730523 
L 181.074224 173.101636 
L 181.125758 166.682997 
L 181.169929 174.636058 
L 181.221463 180.600853 
L 181.258273 173.317752 
L 181.309806 166.877502 
L 181.353978 174.355107 
L 181.405512 180.319903 
L 181.442321 173.641925 
L 181.501217 167.201675 
L 181.538027 174.290273 
L 181.58956 180.471184 
L 181.633732 173.944487 
L 181.685266 166.920725 
L 181.736799 173.966099 
L 181.780971 181.076308 
L 181.832505 172.993578 
L 181.869314 165.018906 
L 181.920848 174.528 
L 181.96502 182.913292 
L 182.009191 172.302008 
L 182.053363 164.52184 
L 182.097535 174.700893 
L 182.149068 182.762011 
L 182.19324 172.88552 
L 182.237412 164.651509 
L 182.288945 175.003455 
L 182.333117 182.762011 
L 182.377289 172.539735 
L 182.42146 164.154443 
L 182.465632 174.160603 
L 182.517166 182.978127 
L 182.561337 173.123247 
L 182.605509 165.083741 
L 182.657043 174.614446 
L 182.701214 181.897548 
L 182.745386 173.144859 
L 182.789558 165.148575 
L 182.841092 174.679281 
L 182.885263 181.875936 
L 182.929435 173.533867 
L 182.980969 165.667253 
L 183.02514 173.771595 
L 183.076674 181.249201 
L 183.128207 172.777462 
L 183.165017 166.618163 
L 183.216551 174.571223 
L 183.260723 181.335647 
L 183.304894 172.799074 
L 183.349066 165.926592 
L 183.393238 173.814818 
L 183.444771 181.270812 
L 183.488943 173.533867 
L 183.533115 167.13684 
L 183.584648 174.441554 
L 183.62882 180.773746 
L 183.680354 172.19395 
L 183.724525 166.769444 
L 183.761335 174.11738 
L 183.812869 180.708911 
L 183.85704 173.188082 
L 183.901212 167.26651 
L 183.952746 174.765727 
L 183.996917 179.822837 
L 184.041089 173.101636 
L 184.092623 167.569072 
L 184.129432 173.879653 
L 184.180966 181.227589 
L 184.225138 172.734239 
L 184.276671 165.753699 
L 184.320843 175.500521 
L 184.365015 181.530151 
L 184.409186 172.539735 
L 184.453358 166.44527 
L 184.49753 174.592835 
L 184.549063 181.486928 
L 184.593235 172.215561 
L 184.644769 165.559195 
L 184.68894 175.262794 
L 184.733112 181.616597 
L 184.777284 173.641925 
L 184.821456 165.883369 
L 184.872989 174.808951 
L 184.917161 181.573374 
L 184.968694 171.545602 
L 185.012866 165.299856 
L 185.057038 175.543744 
L 185.10121 182.502672 
L 185.145381 172.302008 
L 185.182191 165.861757 
L 185.241087 175.522133 
L 185.277896 180.816969 
L 185.32943 173.317752 
L 185.380964 165.494361 
L 185.425135 175.34924 
L 185.469307 182.632342 
L 185.513479 172.669404 
L 185.55765 165.386303 
L 185.609184 175.867918 
L 185.645994 182.156887 
L 185.697527 173.252917 
L 185.741699 164.737955 
L 185.793233 175.673414 
L 185.837404 183.237466 
L 185.881576 172.777462 
L 185.925748 164.370559 
L 185.977281 174.981843 
L 186.021453 183.042962 
L 186.072987 172.150726 
L 186.117158 163.895104 
L 186.168692 175.975976 
L 186.205502 183.864202 
L 186.257035 172.669404 
L 186.301207 163.527707 
L 186.352741 175.738248 
L 186.396912 184.66383 
L 186.441084 173.144859 
L 186.485256 162.922583 
L 186.536789 175.543744 
L 186.580961 184.598995 
L 186.625133 173.382586 
L 186.669304 162.252624 
L 186.720838 175.414075 
L 186.76501 185.247343 
L 186.816543 170.96209 
L 186.853353 162.295847 
L 186.904887 175.34924 
L 186.941697 185.031227 
L 187.000592 171.026924 
L 187.037402 162.252624 
L 187.088936 175.306017 
L 187.133107 184.988004 
L 187.184641 170.875643 
L 187.221451 162.598409 
L 187.272984 175.068289 
L 187.309794 184.685441 
L 187.36869 171.091759 
L 187.405499 162.274235 
L 187.457033 175.565356 
L 187.493843 185.571516 
L 187.552738 169.924734 
L 187.589548 162.490351 
L 187.641082 175.997587 
L 187.677891 184.166764 
L 187.736787 170.335354 
L 187.766235 163.268368 
L 187.82513 175.608579 
L 187.86194 184.642218 
L 187.920836 170.83242 
L 187.957645 162.987418 
L 188.009179 175.327628 
L 188.053351 184.750276 
L 188.104884 170.508247 
L 188.141694 162.684855 
L 188.193228 175.586967 
L 188.230037 184.815111 
L 188.281571 172.777462 
L 188.325743 162.576798 
L 188.377276 176.235315 
L 188.421448 184.728665 
L 188.46562 172.669404 
L 188.509791 162.74969 
L 188.561325 175.911141 
L 188.598135 185.009615 
L 188.649668 171.934611 
L 188.69384 162.490351 
L 188.738012 174.225438 
L 188.789546 185.549905 
L 188.833717 172.410065 
L 188.877889 161.971673 
L 188.929423 176.775604 
L 188.966232 185.031227 
L 189.017766 172.712627 
L 189.061938 162.209401 
L 189.113471 175.478909 
L 189.157643 185.636351 
L 189.201815 172.950355 
L 189.245986 162.46874 
L 189.29752 175.695025 
L 189.341692 184.361268 
L 189.393225 171.891388 
L 189.430035 162.987418 
L 189.481569 174.311884 
L 189.52574 184.015483 
L 189.577274 172.258784 
L 189.621446 163.506095 
L 189.672979 176.278538 
L 189.709789 184.339656 
L 189.761323 172.021057 
L 189.805494 163.808657 
L 189.849666 174.614446 
L 189.893838 183.302301 
L 189.945371 171.415933 
L 189.989543 163.7006 
L 190.033715 175.306017 
L 190.077886 183.259077 
L 190.122058 172.928743 
L 190.16623 165.235022 
L 190.217763 175.327628 
L 190.261935 181.746267 
L 190.306107 173.252917 
L 190.35764 165.407914 
L 190.401812 175.197959 
L 190.445984 182.264945 
L 190.490155 173.533867 
L 190.541689 165.753699 
L 190.585861 174.160603 
L 190.630033 181.854325 
L 190.681566 172.345231 
L 190.725738 166.077873 
L 190.76991 174.506388 
L 190.814081 180.816969 
L 190.865615 172.539735 
L 190.917148 167.180064 
L 190.953958 174.138992 
L 191.005492 180.665688 
L 191.049664 172.734239 
L 191.093835 167.331345 
L 191.145369 175.176347 
L 191.189541 180.427961 
L 191.233712 172.431677 
L 191.277884 166.574939 
L 191.322056 174.895397 
L 191.373589 180.55763 
L 191.417761 171.740106 
L 191.461933 167.180064 
L 191.506104 175.370852 
L 191.550276 180.427961 
L 191.594448 172.60457 
L 191.645981 167.590684 
L 191.682791 174.138992 
L 191.734325 180.103787 
L 191.778496 172.777462 
L 191.822668 167.288121 
L 191.874202 176.213703 
L 191.918373 179.995729 
L 191.955183 173.70676 
L 192.014079 167.655518 
L 192.050888 174.960232 
L 192.102422 179.649944 
L 192.146594 171.394321 
L 192.176042 167.936469 
L 192.234937 175.565356 
L 192.264385 179.541886 
L 192.323281 173.058413 
L 192.367452 168.130973 
L 192.411624 174.333496 
L 192.448434 180.168622 
L 192.507329 171.761718 
L 192.536777 167.936469 
L 192.595673 173.901264 
L 192.632482 179.304159 
L 192.691378 172.734239 
L 192.728188 168.649651 
L 192.787083 175.154736 
L 192.823893 179.606721 
L 192.875427 173.29614 
L 192.919598 167.288121 
L 192.971132 175.21957 
L 193.007942 180.298291 
L 193.059475 172.712627 
L 193.096285 167.309733 
L 193.147819 174.722504 
L 193.19199 180.103787 
L 193.243524 171.480768 
L 193.280334 167.525849 
L 193.331867 174.852174 
L 193.376039 179.477051 
L 193.427573 172.107503 
L 193.464382 167.871634 
L 193.515916 175.284405 
L 193.552726 179.671555 
L 193.60426 172.993578 
L 193.648431 167.893246 
L 193.699965 175.284405 
L 193.736775 179.86606 
L 193.788308 172.88552 
L 193.83248 167.95808 
L 193.884014 175.306017 
L 193.928185 179.04482 
L 193.972357 173.058413 
L 194.009167 167.871634 
L 194.068062 175.154736 
L 194.104872 180.579242 
L 194.163768 171.134982 
L 194.200577 166.553328 
L 194.252111 176.473042 
L 194.288921 180.514407 
L 194.340454 171.999445 
L 194.377264 167.720353 
L 194.428798 173.987711 
L 194.472969 180.14701 
L 194.524503 173.01519 
L 194.568675 167.525849 
L 194.620208 176.343373 
L 194.66438 180.125399 
L 194.708552 172.539735 
L 194.760085 167.288121 
L 194.804257 175.63019 
L 194.848429 180.233456 
L 194.8926 172.799074 
L 194.936772 166.72622 
L 194.988306 176.926885 
L 195.017754 181.011473 
L 195.076649 171.567214 
L 195.113459 167.309733 
L 195.164992 175.003455 
L 195.201802 179.930894 
L 195.260698 171.459156 
L 195.282784 167.439403 
L 195.349041 175.089901 
L 195.378489 180.514407 
L 195.444747 171.588825 
L 195.474194 167.569072 
L 195.53309 175.176347 
L 195.562538 179.606721 
L 195.628795 171.891388 
L 195.658243 167.828411 
L 195.717139 174.722504 
L 195.746586 180.298291 
L 195.812844 171.545602 
L 195.842292 167.13684 
L 195.901187 175.522133 
L 195.937997 180.406349 
L 195.989531 173.101636 
L 196.02634 167.050394 
L 196.085236 175.21957 
L 196.114684 180.665688 
L 196.180941 171.437544 
L 196.210389 166.963948 
L 196.269285 176.321761 
L 196.298732 180.363126 
L 196.357628 172.06428 
L 196.394438 168.001304 
L 196.453333 174.917008 
L 196.482781 179.304159 
L 196.549039 172.280396 
L 196.578487 167.785188 
L 196.637382 174.722504 
L 196.681554 179.909283 
L 196.733087 172.323619 
L 196.777259 167.396179 
L 196.821431 174.290273 
L 196.865602 180.125399 
L 196.917136 172.88552 
L 196.953946 167.374568 
L 197.012841 175.370852 
L 197.042289 179.995729 
L 197.101185 173.123247 
L 197.145357 168.217419 
L 197.19689 175.673414 
L 197.2337 179.088043 
L 197.285234 173.123247 
L 197.329405 168.887378 
L 197.380939 174.225438 
L 197.425111 178.310026 
L 197.476644 173.144859 
L 197.520816 169.081882 
L 197.572349 175.068289 
L 197.623883 178.245191 
L 197.660693 172.842297 
L 197.712226 169.708618 
L 197.749036 174.225438 
L 197.807932 177.985852 
L 197.844742 173.317752 
L 197.896275 169.168329 
L 197.940447 175.133124 
L 197.984619 178.482919 
L 198.02879 171.999445 
L 198.0656 169.557337 
L 198.117134 175.133124 
L 198.146581 177.942629 
L 198.205477 173.360975 
L 198.234925 169.687007 
L 198.301182 174.700893 
L 198.337992 177.726513 
L 198.389526 173.231305 
L 198.426335 170.162461 
L 198.485231 175.089901 
L 198.514679 177.207836 
L 198.573574 173.577091 
L 198.617746 170.443412 
L 198.66928 174.657669 
L 198.698728 177.164612 
L 198.757623 173.101636 
L 198.787071 170.14085 
L 198.853328 175.457298 
L 198.875414 177.445563 
L 198.941672 173.036801 
L 198.97112 170.702751 
L 199.037377 174.917008 
L 199.059463 176.775604 
L 199.125721 173.447421 
L 199.155168 170.681139 
L 199.221426 174.182215 
L 199.250874 176.732381 
L 199.317131 172.647793 
L 199.339217 170.681139 
L 199.405475 174.744116 
L 199.42756 176.797216 
L 199.50118 172.712627 
L 199.523266 171.113371 
L 199.589523 174.030934 
L 199.618971 176.213703 
L 199.685229 172.799074 
L 199.707314 171.329487 
L 199.773572 174.765727 
L 199.80302 176.300149 
L 199.854553 173.058413 
L 199.884001 171.351098 
L 199.942897 174.009322 
L 199.979706 175.673414 
L 200.038602 173.339363 
L 200.06805 171.37271 
L 200.134307 174.549612 
L 200.163755 176.192091 
L 200.222651 172.669404 
L 200.252099 171.286263 
L 200.29627 174.722504 
L 200.325718 175.565356 
L 200.340442 176.364984 
L 200.384614 172.755851 
L 200.436147 171.480768 
L 200.458233 173.29614 
L 200.524491 175.975976 
L 200.5613 173.101636 
L 200.620196 171.502379 
L 200.642282 173.252917 
L 200.708539 175.803083 
L 200.745349 172.561346 
L 200.796883 172.021057 
L 200.826331 173.771595 
L 200.89995 175.651802 
L 200.929398 173.70676 
L 200.988293 171.934611 
L 201.017741 174.052545 
L 201.076637 175.738248 
L 201.106085 173.080024 
L 201.16498 171.264652 
L 201.194428 174.074157 
L 201.253323 175.75986 
L 201.290133 172.777462 
L 201.356391 171.804941 
L 201.378477 174.009322 
L 201.437372 176.062422 
L 201.474182 172.734239 
L 201.533078 171.24304 
L 201.562525 174.052545 
L 201.628783 176.084034 
L 201.658231 172.907132 
L 201.717126 171.134982 
L 201.746574 173.577091 
L 201.812832 176.364984 
L 201.842279 173.598702 
L 201.901175 170.854032 
L 201.937985 174.225438 
L 201.967432 176.667546 
L 202.03369 172.280396 
L 202.055776 170.378577 
L 202.122033 174.657669 
L 202.144119 176.473042 
L 202.210377 173.404198 
L 202.239825 170.918867 
L 202.306082 174.419942 
L 202.328168 176.473042 
L 202.401787 172.777462 
L 202.423873 171.545602 
L 202.497493 174.290273 
L 202.556388 176.278538 
L 202.585836 173.944487 
L 202.644732 170.465023 
L 202.688903 174.549612 
L 202.740437 177.078166 
L 202.777247 173.512256 
L 202.836142 169.946346 
L 202.872952 174.528 
L 202.924486 177.532009 
L 202.961295 173.166471 
L 203.012829 170.227296 
L 203.057001 174.225438 
L 203.108534 177.618456 
L 203.145344 173.620314 
L 203.196878 169.73023 
L 203.241049 174.333496 
L 203.292583 177.034943 
L 203.336755 172.712627 
L 203.388288 170.508247 
L 203.425098 174.225438 
L 203.476632 177.186224 
L 203.520803 172.820685 
L 203.564975 170.789197 
L 203.609147 173.728372 
L 203.66068 176.516265 
L 203.704852 173.663537 
L 203.749024 170.745974 
L 203.800558 174.419942 
L 203.844729 176.840439 
L 203.888901 172.928743 
L 203.925711 170.983701 
L 203.977244 174.311884 
L 204.006692 176.127257 
L 204.065588 173.209694 
L 204.095035 171.113371 
L 204.161293 174.009322 
L 204.190741 175.241182 
L 204.256998 173.814818 
L 204.30117 172.19395 
L 204.360066 174.030934 
L 204.411599 175.500521 
L 204.448409 173.641925 
L 204.499943 171.437544 
L 204.544114 173.771595 
L 204.580924 176.084034 
L 204.63982 173.29614 
L 204.676629 171.934611 
L 204.735525 173.879653 
L 204.772335 175.543744 
L 204.83123 173.166471 
L 204.853316 172.280396 
L 204.919574 174.074157 
L 204.949021 175.21957 
L 205.015279 173.42581 
L 205.059451 171.999445 
L 205.118346 173.966099 
L 205.155156 174.93862 
L 205.20669 173.317752 
L 205.228775 172.928743 
L 205.295033 173.987711 
L 205.324481 174.138992 
L 205.376014 173.793206 
L 205.43491 173.080024 
L 205.479082 173.858041 
L 205.530615 174.528 
L 205.567425 173.512256 
L 205.589511 173.101636 
L 205.655768 173.966099 
L 205.66313 174.030934 
L 205.692578 173.555479 
L 205.744112 173.922876 
L 205.825093 172.907132 
L 205.847179 173.879653 
L 205.898713 175.133124 
L 205.942884 173.252917 
L 205.96497 172.539735 
L 206.031228 173.771595 
L 206.068037 174.614446 
L 206.126933 173.036801 
L 206.134295 172.755851 
L 206.207915 174.160603 
L 206.23 174.657669 
L 206.30362 173.620314 
L 206.369877 172.410065 
L 206.399325 173.966099 
L 206.414049 174.484777 
L 206.487669 173.231305 
L 206.502392 172.907132 
L 206.56865 174.009322 
L 206.590736 174.873785 
L 206.656993 173.209694 
L 206.679079 172.669404 
L 206.715889 174.030934 
L 206.737975 173.879653 
L 206.774785 174.917008 
L 206.804232 173.641925 
L 206.855766 172.410065 
L 206.899938 174.419942 
L 206.9073 174.657669 
L 206.973557 173.685148 
L 206.995643 172.647793 
L 207.076624 174.11738 
L 207.083986 174.182215 
L 207.113434 173.555479 
L 207.142882 173.749983 
L 207.17233 173.447421 
L 207.194416 174.160603 
L 207.201777 174.247049 
L 207.238587 173.70676 
L 207.268035 173.922876 
L 207.290121 173.231305 
L 207.378464 173.944487 
L 207.385826 174.095768 
L 207.459446 173.42581 
L 207.466808 173.360975 
L 207.496255 174.052545 
L 207.503617 174.11738 
L 207.525703 173.512256 
L 207.599323 173.231305 
L 207.569875 173.922876 
L 207.614047 173.749983 
L 207.636132 174.463165 
L 207.66558 173.29614 
L 207.724476 173.728372 
L 207.753924 174.484777 
L 207.805457 173.447421 
L 207.812819 173.447421 
L 207.842267 172.993578 
L 207.879077 173.793206 
L 207.901163 173.771595 
L 207.93061 174.636058 
L 207.96742 173.101636 
L 208.018954 172.582958 
L 208.04104 173.641925 
L 208.122021 174.960232 
L 208.144107 173.382586 
L 208.210364 172.518123 
L 208.239812 173.749983 
L 208.298708 175.392463 
L 208.342879 173.360975 
L 208.394413 171.65366 
L 208.431223 173.685148 
L 208.490118 175.781472 
L 208.526928 173.123247 
L 208.585824 171.848164 
L 208.615272 173.901264 
L 208.666805 175.673414 
L 208.710977 173.404198 
L 208.755149 171.610437 
L 208.806682 173.966099 
L 208.858216 175.089901 
L 208.895026 173.469033 
L 208.953921 172.4749 
L 208.983369 173.879653 
L 209.034903 175.262794 
L 209.079074 173.101636 
L 209.123246 172.06428 
L 209.167418 174.441554 
L 209.182142 174.93862 
L 209.248399 173.42581 
L 209.270485 172.388454 
L 209.344104 174.398331 
L 209.36619 175.197959 
L 209.425086 172.820685 
L 209.454534 171.523991 
L 209.506067 173.771595 
L 209.520791 174.398331 
L 209.528153 173.749983 
L 209.616496 173.793206 
L 398.487273 173.749983 
L 398.487273 173.749983 
" clip-path="url(#p8772e91f35)" style="fill: none; stroke: #1f77b4; stroke-width: 1.5; stroke-linecap: square"/>
   </g>
   <g id="patch_3">
    <path d="M 57.6 307.584 
L 57.6 41.472 
" style="fill: none; stroke: #000000; stroke-width: 0.8; stroke-linejoin: miter; stroke-linecap: square"/>
   </g>
   <g id="patch_4">
    <path d="M 414.72 307.584 
L 414.72 41.472 
" style="fill: none; stroke: #000000; stroke-width: 0.8; stroke-linejoin: miter; stroke-linecap: square"/>
   </g>
   <g id="patch_5">
    <path d="M 57.6 307.584 
L 414.72 307.584 
" style="fill: none; stroke: #000000; stroke-width: 0.8; stroke-linejoin: miter; stroke-linecap: square"/>
   </g>
   <g id="patch_6">
    <path d="M 57.6 41.472 
L 414.72 41.472 
" style="fill: none; stroke: #000000; stroke-width: 0.8; stroke-linejoin: miter; stroke-linecap: square"/>
   </g>
   <g id="text_16">
    <text style="font: 12px 'IPAexGothic'; text-anchor: middle" x="236.16" y="35.472" transform="rotate(-0 236.16 35.472)">"014_A6.wav"の波形グラフ</text>
   </g>
  </g>
 </g>
 <defs>
  <clipPath id="p8772e91f35">
   <rect x="57.6" y="41.472" width="357.12" height="266.112"/>
  </clipPath>
 </defs>
</svg>
