<?xml version="1.0" encoding="utf-8" standalone="no"?>
<!DOCTYPE svg PUBLIC "-//W3C//DTD SVG 1.1//EN"
  "http://www.w3.org/Graphics/SVG/1.1/DTD/svg11.dtd">
<svg xmlns:xlink="http://www.w3.org/1999/xlink" width="460.8pt" height="345.6pt" viewBox="0 0 460.8 345.6" xmlns="http://www.w3.org/2000/svg" version="1.1">
 <metadata>
  <rdf:RDF xmlns:dc="http://purl.org/dc/elements/1.1/" xmlns:cc="http://creativecommons.org/ns#" xmlns:rdf="http://www.w3.org/1999/02/22-rdf-syntax-ns#">
   <cc:Work>
    <dc:type rdf:resource="http://purl.org/dc/dcmitype/StillImage"/>
    <dc:date>2022-11-28T12:31:15.681057</dc:date>
    <dc:format>image/svg+xml</dc:format>
    <dc:creator>
     <cc:Agent>
      <dc:title>Matplotlib v3.6.2, https://matplotlib.org/</dc:title>
     </cc:Agent>
    </dc:creator>
   </cc:Work>
  </rdf:RDF>
 </metadata>
 <defs>
  <style type="text/css">*{stroke-linejoin: round; stroke-linecap: butt}</style>
 </defs>
 <g id="figure_1">
  <g id="patch_1">
   <path d="M 0 345.6 
L 460.8 345.6 
L 460.8 0 
L 0 0 
z
" style="fill: #ffffff"/>
  </g>
  <g id="axes_1">
   <g id="patch_2">
    <path d="M 57.6 307.584 
L 414.72 307.584 
L 414.72 41.472 
L 57.6 41.472 
z
" style="fill: #ffffff"/>
   </g>
   <g id="matplotlib.axis_1">
    <g id="xtick_1">
     <g id="line2d_1">
      <defs>
       <path id="m29f651aca6" d="M 0 0 
L 0 3.5 
" style="stroke: #000000; stroke-width: 0.8"/>
      </defs>
      <g>
       <use xlink:href="#m29f651aca6" x="73.832727" y="307.584" style="stroke: #000000; stroke-width: 0.8"/>
      </g>
     </g>
     <g id="text_1">
      <text style="font: 10px 'IPAexGothic'; text-anchor: middle" x="73.832727" y="322.074625" transform="rotate(-0 73.832727 322.074625)">0.0</text>
     </g>
    </g>
    <g id="xtick_2">
     <g id="line2d_2">
      <g>
       <use xlink:href="#m29f651aca6" x="138.765109" y="307.584" style="stroke: #000000; stroke-width: 0.8"/>
      </g>
     </g>
     <g id="text_2">
      <text style="font: 10px 'IPAexGothic'; text-anchor: middle" x="138.765109" y="322.074625" transform="rotate(-0 138.765109 322.074625)">0.2</text>
     </g>
    </g>
    <g id="xtick_3">
     <g id="line2d_3">
      <g>
       <use xlink:href="#m29f651aca6" x="203.69749" y="307.584" style="stroke: #000000; stroke-width: 0.8"/>
      </g>
     </g>
     <g id="text_3">
      <text style="font: 10px 'IPAexGothic'; text-anchor: middle" x="203.69749" y="322.074625" transform="rotate(-0 203.69749 322.074625)">0.4</text>
     </g>
    </g>
    <g id="xtick_4">
     <g id="line2d_4">
      <g>
       <use xlink:href="#m29f651aca6" x="268.629872" y="307.584" style="stroke: #000000; stroke-width: 0.8"/>
      </g>
     </g>
     <g id="text_4">
      <text style="font: 10px 'IPAexGothic'; text-anchor: middle" x="268.629872" y="322.074625" transform="rotate(-0 268.629872 322.074625)">0.6</text>
     </g>
    </g>
    <g id="xtick_5">
     <g id="line2d_5">
      <g>
       <use xlink:href="#m29f651aca6" x="333.562253" y="307.584" style="stroke: #000000; stroke-width: 0.8"/>
      </g>
     </g>
     <g id="text_5">
      <text style="font: 10px 'IPAexGothic'; text-anchor: middle" x="333.562253" y="322.074625" transform="rotate(-0 333.562253 322.074625)">0.8</text>
     </g>
    </g>
    <g id="xtick_6">
     <g id="line2d_6">
      <g>
       <use xlink:href="#m29f651aca6" x="398.494635" y="307.584" style="stroke: #000000; stroke-width: 0.8"/>
      </g>
     </g>
     <g id="text_6">
      <text style="font: 10px 'IPAexGothic'; text-anchor: middle" x="398.494635" y="322.074625" transform="rotate(-0 398.494635 322.074625)">1.0</text>
     </g>
    </g>
    <g id="text_7">
     <text style="font: 10px 'IPAexGothic'; text-anchor: middle" x="236.16" y="335.924625" transform="rotate(-0 236.16 335.924625)">時間[s]</text>
    </g>
   </g>
   <g id="matplotlib.axis_2">
    <g id="ytick_1">
     <g id="line2d_7">
      <defs>
       <path id="mba3b57a413" d="M 0 0 
L -3.5 0 
" style="stroke: #000000; stroke-width: 0.8"/>
      </defs>
      <g>
       <use xlink:href="#mba3b57a413" x="57.6" y="276.042213" style="stroke: #000000; stroke-width: 0.8"/>
      </g>
     </g>
     <g id="text_8">
      <text style="font: 10px 'IPAexGothic'; text-anchor: end" x="50.6" y="279.787525" transform="rotate(-0 50.6 279.787525)">−4000</text>
     </g>
    </g>
    <g id="ytick_2">
     <g id="line2d_8">
      <g>
       <use xlink:href="#mba3b57a413" x="57.6" y="228.027923" style="stroke: #000000; stroke-width: 0.8"/>
      </g>
     </g>
     <g id="text_9">
      <text style="font: 10px 'IPAexGothic'; text-anchor: end" x="50.6" y="231.773235" transform="rotate(-0 50.6 231.773235)">−2000</text>
     </g>
    </g>
    <g id="ytick_3">
     <g id="line2d_9">
      <g>
       <use xlink:href="#mba3b57a413" x="57.6" y="180.013633" style="stroke: #000000; stroke-width: 0.8"/>
      </g>
     </g>
     <g id="text_10">
      <text style="font: 10px 'IPAexGothic'; text-anchor: end" x="50.6" y="183.758945" transform="rotate(-0 50.6 183.758945)">0</text>
     </g>
    </g>
    <g id="ytick_4">
     <g id="line2d_10">
      <g>
       <use xlink:href="#mba3b57a413" x="57.6" y="131.999343" style="stroke: #000000; stroke-width: 0.8"/>
      </g>
     </g>
     <g id="text_11">
      <text style="font: 10px 'IPAexGothic'; text-anchor: end" x="50.6" y="135.744655" transform="rotate(-0 50.6 135.744655)">2000</text>
     </g>
    </g>
    <g id="ytick_5">
     <g id="line2d_11">
      <g>
       <use xlink:href="#mba3b57a413" x="57.6" y="83.985053" style="stroke: #000000; stroke-width: 0.8"/>
      </g>
     </g>
     <g id="text_12">
      <text style="font: 10px 'IPAexGothic'; text-anchor: end" x="50.6" y="87.730365" transform="rotate(-0 50.6 87.730365)">4000</text>
     </g>
    </g>
    <g id="text_13">
     <text style="font: 10px 'IPAexGothic'; text-anchor: middle" x="12.723438" y="174.528" transform="rotate(-90 12.723438 174.528)">振幅</text>
    </g>
   </g>
   <g id="line2d_12">
    <path d="M 73.832727 179.965618 
L 73.847451 180.157675 
L 73.869537 179.02934 
L 73.876899 181.766154 
L 73.913709 252.779289 
L 73.943156 157.542945 
L 73.979966 77.022981 
L 74.024138 191.296991 
L 74.053586 134.448071 
L 74.083034 191.008905 
L 74.171377 273.473448 
L 74.134567 159.847631 
L 74.193463 221.618015 
L 74.29653 123.404785 
L 74.311254 152.549459 
L 74.406959 211.246928 
L 74.362788 81.080188 
L 74.421683 174.612025 
L 74.436407 151.589173 
L 74.480579 250.066482 
L 74.510026 201.908149 
L 74.539474 262.310126 
L 74.583646 171.515103 
L 74.613094 190.528762 
L 74.657265 107.704112 
L 74.745609 159.415502 
L 74.767695 149.836651 
L 74.789781 169.35446 
L 74.892848 248.794103 
L 74.922296 211.847107 
L 74.944381 238.350995 
L 74.981191 175.356247 
L 75.062173 79.735788 
L 75.106344 139.801665 
L 75.12843 116.514734 
L 75.16524 189.760533 
L 75.246221 291.406785 
L 75.194688 171.395068 
L 75.327203 255.564118 
L 75.437632 53.568 
L 75.511251 128.8304 
L 75.621681 267.519676 
L 75.65849 259.717354 
L 75.673214 268.984112 
L 75.6953 222.554294 
L 75.791005 87.970239 
L 75.842539 89.866803 
L 75.849901 89.434675 
L 75.857263 95.340432 
L 76.026588 291.334764 
L 76.048674 244.496824 
L 76.144379 69.79683 
L 76.203275 81.896431 
L 76.210636 77.719188 
L 76.232722 125.253335 
L 76.387323 285.116913 
L 76.394685 282.62017 
L 76.556648 85.68956 
L 76.608182 119.563642 
L 76.637629 156.174538 
L 76.733335 295.488 
L 76.784868 243.60856 
L 76.79223 247.329667 
L 76.814316 212.063171 
L 76.910022 57.529179 
L 76.946831 128.158199 
L 76.976279 100.333918 
L 76.991003 120.067792 
L 77.09407 284.396699 
L 77.13088 244.44881 
L 77.152966 253.835603 
L 77.16769 239.527345 
L 77.278119 92.291525 
L 77.337015 109.840748 
L 77.498977 257.196604 
L 77.528425 227.619801 
L 77.683026 98.941504 
L 77.690388 104.823255 
L 77.867075 246.777503 
L 77.881799 229.780444 
L 77.977504 118.747399 
L 78.051123 124.437092 
L 78.161553 233.165452 
L 78.235172 214.872007 
L 78.382411 114.78622 
L 78.411859 143.402737 
L 78.559098 247.761796 
L 78.588546 216.120379 
L 78.743147 107.175955 
L 78.75787 114.810227 
L 78.927195 245.865231 
L 78.949281 231.628994 
L 79.09652 110.873055 
L 79.140692 130.054764 
L 79.273207 245.865231 
L 79.346826 210.98285 
L 79.449894 108.064219 
L 79.516151 129.910721 
L 79.633942 252.635246 
L 79.714924 213.623636 
L 79.817991 104.847262 
L 79.884249 132.35945 
L 80.00204 248.169917 
L 80.075659 211.679057 
L 80.215536 104.847262 
L 80.244984 130.606928 
L 80.392223 256.068268 
L 80.429033 223.778658 
L 80.576272 104.511162 
L 80.613081 129.598628 
L 80.752958 249.970453 
L 80.811854 216.408464 
L 80.922283 104.343112 
L 80.988541 130.102778 
L 81.106332 244.472817 
L 81.172589 228.38803 
L 81.283019 114.210048 
L 81.356638 135.000236 
L 81.503877 241.856038 
L 81.533325 223.754651 
L 81.680564 112.913662 
L 81.717374 138.865386 
L 81.864613 242.93636 
L 81.89406 221.786065 
L 82.048661 113.969977 
L 82.070747 132.551507 
L 82.225348 243.920653 
L 82.254796 219.673436 
L 82.402035 111.473234 
L 82.446206 141.794258 
L 82.578722 240.535645 
L 82.644979 205.869328 
L 82.755408 116.058598 
L 82.806942 137.016836 
L 82.939457 243.056395 
L 83.020438 194.681998 
L 83.116144 114.186041 
L 83.167677 135.2163 
L 83.211849 177.876997 
L 83.300192 240.943767 
L 83.351726 223.178479 
L 83.462155 124.269042 
L 83.484241 117.330977 
L 83.543137 139.057443 
L 83.653566 242.60026 
L 83.734547 209.710471 
L 83.837615 118.411299 
L 83.89651 127.606035 
L 84.014301 239.527345 
L 84.110007 194.537955 
L 84.205712 120.139813 
L 84.264608 135.504386 
L 84.411847 239.719402 
L 84.448656 214.559914 
L 84.588533 119.011477 
L 84.647429 149.692609 
L 84.772582 237.222659 
L 84.83884 202.052192 
L 84.949269 121.628256 
L 85.008164 144.242987 
L 85.125956 232.301194 
L 85.199575 209.374371 
L 85.302642 125.781492 
L 85.3689 137.665029 
L 85.486691 232.181159 
L 85.56031 210.550721 
L 85.678102 124.173013 
L 85.736997 141.122058 
L 85.854788 231.028816 
L 85.921046 210.838807 
L 86.060923 127.029864 
L 86.097733 143.690822 
L 86.252334 232.493252 
L 86.274419 215.736264 
L 86.42902 122.060385 
L 86.451106 138.169179 
L 86.605707 231.773037 
L 86.627793 223.202486 
L 86.782394 125.973549 
L 86.826566 148.636294 
L 86.966443 233.525559 
L 87.040062 194.970084 
L 87.143129 124.004963 
L 87.187301 144.675115 
L 87.224111 163.520724 
L 87.319816 229.588387 
L 87.37135 214.415871 
L 87.503865 128.398271 
L 87.592208 169.138396 
L 87.695275 228.580087 
L 87.739447 213.719664 
L 87.857238 131.759271 
L 87.930858 150.004701 
L 88.070735 224.642915 
L 88.107544 210.910828 
L 88.254783 132.623528 
L 88.291593 146.859765 
L 88.424108 227.355723 
L 88.475642 207.189721 
L 88.615519 129.33455 
L 88.667053 154.854145 
L 88.799568 222.962415 
L 88.851101 201.355985 
L 88.983616 132.647536 
L 89.03515 160.423802 
L 89.167665 221.570001 
L 89.211837 201.452013 
L 89.344352 133.751864 
L 89.395885 153.701802 
L 89.5284 223.274508 
L 89.579934 200.419706 
L 89.705087 132.239414 
L 89.778707 163.184624 
L 89.881774 222.026136 
L 89.94067 205.821313 
L 90.065823 136.152579 
L 90.146804 167.866017 
L 90.242509 218.689143 
L 90.294043 209.254335 
L 90.419196 138.025136 
L 90.500178 163.832817 
L 90.625331 218.71315 
L 90.66214 206.901635 
L 90.809379 137.977122 
L 90.838827 148.324201 
L 90.993428 221.329929 
L 91.030238 202.268256 
L 91.170115 137.857086 
L 91.221648 156.582659 
L 91.354164 218.064957 
L 91.413059 194.441927 
L 91.523488 138.697336 
L 91.589746 156.846738 
L 91.700175 217.224707 
L 91.773795 198.307077 
L 91.876862 138.673329 
L 91.950481 156.846738 
L 92.09772 215.112079 
L 92.127168 203.420599 
L 92.274407 139.009429 
L 92.303855 150.580873 
L 92.458456 217.416765 
L 92.480542 206.661564 
L 92.635142 137.352936 
L 92.657228 145.875472 
L 92.819191 222.050143 
L 92.841277 207.717878 
L 92.995878 137.593007 
L 93.017964 146.475651 
L 93.172565 218.833186 
L 93.224098 199.843534 
L 93.349251 141.554186 
L 93.430233 169.642546 
L 93.525938 214.848 
L 93.584834 203.252549 
L 93.709987 139.393543 
L 93.790968 168.68226 
L 93.886674 216.144386 
L 93.938207 207.957949 
L 93.975017 184.142862 
L 94.06336 138.433258 
L 94.122256 148.08413 
L 94.240047 213.1675 
L 94.328391 191.056919 
L 94.468268 143.618801 
L 94.490353 150.412823 
L 94.644954 216.312436 
L 94.66704 209.254335 
L 94.829003 142.418444 
L 94.851089 149.860659 
L 95.00569 213.455586 
L 95.027776 207.789899 
L 95.175015 142.130358 
L 95.23391 159.223445 
L 95.285444 191.633091 
L 95.359063 215.160093 
L 95.410597 200.899849 
L 95.454769 174.035854 
L 95.53575 141.506172 
L 95.587284 154.782123 
L 95.624093 171.683153 
L 95.712437 212.615336 
L 95.76397 204.068792 
L 95.889124 143.594794 
L 95.977467 167.962046 
L 96.080534 213.191507 
L 96.13943 200.63577 
L 96.264583 143.906887 
L 96.33084 159.391495 
L 96.478079 212.903421 
L 96.500165 205.269149 
L 96.647404 144.002915 
L 96.684214 154.830138 
L 96.831453 215.424171 
L 96.868263 201.163927 
L 97.00814 143.138658 
L 97.044949 155.070209 
L 97.192188 213.119486 
L 97.228998 201.836127 
L 97.376237 145.179265 
L 97.435133 166.017467 
L 97.560286 214.319843 
L 97.604457 196.170441 
L 97.729611 143.834865 
L 97.795868 164.64906 
L 97.906297 217.5368 
L 97.965193 199.507434 
L 97.972555 199.387399 
L 98.090346 140.089751 
L 98.171327 168.706267 
L 98.274395 215.232114 
L 98.318566 201.47602 
L 98.3701 171.563118 
L 98.451081 141.962308 
L 98.502615 157.110816 
L 98.546787 181.670126 
L 98.627768 215.808286 
L 98.686664 204.933049 
L 98.804455 144.194972 
L 98.885436 161.816217 
L 98.988504 212.807393 
L 99.047399 208.125999 
L 99.16519 143.786851 
L 99.253534 167.769989 
L 99.341877 208.846214 
L 99.408135 201.740099 
L 99.570098 147.387923 
L 99.592183 154.494038 
L 99.746784 211.462993 
L 99.76887 204.476913 
L 99.930833 146.667708 
L 99.945557 150.004701 
L 100.10752 209.518414 
L 100.136968 200.923856 
L 100.291568 146.979801 
L 100.321016 156.270566 
L 100.468255 207.549828 
L 100.519789 195.402213 
L 100.63758 150.796937 
L 100.718561 165.945446 
L 100.828991 205.125106 
L 100.873162 197.250763 
L 100.954144 167.361867 
L 100.998315 153.077616 
L 101.071935 161.28806 
L 101.175002 204.260849 
L 101.24126 198.259063 
L 101.351689 154.013895 
L 101.425308 159.127416 
L 101.587271 202.940456 
L 101.594633 202.48432 
L 101.756596 151.637187 
L 101.800768 168.706267 
L 101.940645 205.821313 
L 102.006902 187.863969 
L 102.117332 150.556866 
L 102.161503 166.113496 
L 102.176227 166.041474 
L 102.190951 169.546517 
L 102.30138 206.325464 
L 102.345552 194.681998 
L 102.360276 194.129834 
L 102.478067 153.605773 
L 102.544325 165.969453 
L 102.647392 201.187935 
L 102.713649 197.682891 
L 102.824079 153.365702 
L 102.912422 171.299039 
L 103.000765 203.66067 
L 103.074385 196.146434 
L 103.228986 151.685202 
L 103.24371 156.966773 
L 103.405672 206.133406 
L 103.427758 198.139027 
L 103.582359 151.661194 
L 103.604445 155.790423 
L 103.766408 205.533228 
L 103.803218 193.337598 
L 103.943095 152.405416 
L 103.994628 166.305553 
L 104.0388 180.589804 
L 104.127143 202.82042 
L 104.163953 194.369905 
L 104.318554 154.854145 
L 104.355364 163.928845 
L 104.495241 203.060492 
L 104.546774 190.744826 
L 104.679289 153.749816 
L 104.730823 167.025767 
L 104.848614 203.300563 
L 104.914872 192.953484 
L 105.032663 151.685202 
L 105.113644 168.706267 
L 105.20935 205.629256 
L 105.260883 194.225862 
L 105.275607 194.874055 
L 105.290331 190.648798 
L 105.393398 154.662088 
L 105.444932 161.936252 
L 105.606895 199.29137 
L 105.658429 183.518676 
L 105.746772 157.999081 
L 105.820391 166.137503 
L 105.96763 201.259956 
L 105.997078 192.377312 
L 106.151679 156.654681 
L 106.166403 160.615859 
L 106.328366 202.31627 
L 106.34309 197.754913 
L 106.505053 157.735002 
L 106.512415 157.999081 
L 106.681739 197.682891 
L 106.740635 188.224076 
L 106.851064 161.744195 
L 106.917322 165.105196 
L 107.035113 198.235056 
L 107.108732 190.552769 
L 107.233885 160.039688 
L 107.300143 171.275032 
L 107.40321 200.923856 
L 107.462106 190.216669 
L 107.506277 176.172489 
L 107.587259 158.743302 
L 107.638793 164.432996 
L 107.771308 197.298777 
L 107.852289 183.974812 
L 107.999528 160.855931 
L 108.014252 162.416395 
L 108.124681 196.842641 
L 108.190939 195.378205 
L 108.352902 158.647274 
L 108.404435 174.828089 
L 108.53695 195.834341 
L 108.559036 192.377312 
L 108.720999 158.695288 
L 108.750447 167.049774 
L 108.846152 196.77062 
L 108.919772 195.234163 
L 109.096458 157.710995 
L 109.118544 166.233531 
L 109.214249 200.29967 
L 109.280507 198.931263 
L 109.457194 159.727595 
L 109.47928 164.529024 
L 109.619157 200.611763 
L 109.655966 189.976598 
L 109.803205 158.791316 
L 109.840015 167.33786 
L 109.994616 197.826934 
L 110.024064 191.056919 
L 110.171303 158.479224 
L 110.230198 170.122689 
L 110.355351 198.331084 
L 110.399523 187.671912 
L 110.532038 161.360081 
L 110.598296 171.635139 
L 110.716087 196.93867 
L 110.760259 189.976598 
L 110.885412 160.687881 
L 110.973755 171.347053 
L 111.076822 198.331084 
L 111.113632 188.800248 
L 111.260871 157.686988 
L 111.14308 189.280391 
L 111.33449 171.635139 
L 111.437558 201.956163 
L 111.481729 191.320998 
L 111.496453 192.329298 
L 111.511177 189.448441 
L 111.614244 160.999974 
L 111.658416 166.857717 
L 111.665778 166.521617 
L 111.687864 169.762582 
L 111.790931 196.482534 
L 111.857189 195.76232 
L 112.026514 160.207738 
L 112.048599 166.617646 
L 112.151667 196.530548 
L 112.210562 195.378205 
L 112.379887 158.815324 
L 112.409335 167.625946 
L 112.556574 197.226756 
L 112.57866 193.649691 
L 112.718537 162.416395 
L 112.762708 165.441296 
L 112.80688 174.491989 
L 112.909947 195.498241 
L 112.946757 190.216669 
L 112.968843 189.376419 
L 113.086634 162.704481 
L 113.160254 170.314746 
L 113.263321 197.706898 
L 113.314854 187.839962 
L 113.33694 189.616491 
L 113.359026 182.150269 
L 113.44737 160.303767 
L 113.491541 169.474496 
L 113.506265 168.034067 
L 113.535713 174.588018 
L 113.631418 194.489941 
L 113.690314 192.809441 
L 113.859639 163.664767 
L 113.874363 165.82541 
L 114.036325 195.210155 
L 114.043687 194.850048 
L 114.213012 164.601046 
L 114.235098 170.69886 
L 114.389699 193.169548 
L 114.397061 192.425327 
L 114.566386 165.009167 
L 114.588471 169.882617 
L 114.73571 193.793734 
L 114.765158 185.487262 
L 114.927121 164.721081 
L 114.80933 190.192662 
L 114.941845 167.409882 
L 115.096446 193.841748 
L 115.118532 190.600784 
L 115.280495 162.728488 
L 115.309942 170.506803 
L 115.324666 169.306446 
L 115.33939 166.32956 
L 115.383562 182.510376 
L 115.457181 194.58597 
L 115.41301 179.653525 
L 115.538163 186.807655 
L 115.626506 166.017467 
L 115.67804 166.953746 
L 115.692764 163.880831 
L 115.744297 176.700647 
L 115.751659 176.412561 
L 115.766383 177.828982 
L 115.86945 196.050405 
L 115.898898 185.487262 
L 115.97988 163.928845 
L 116.068223 168.68226 
L 116.222824 193.793734 
L 116.237548 191.729119 
L 116.406873 164.000867 
L 116.421597 166.617646 
L 116.583559 194.898063 
L 116.605645 190.720819 
L 116.752884 163.496717 
L 116.81178 169.762582 
L 116.922209 193.097527 
L 117.010552 183.422647 
L 117.106258 163.856824 
L 117.165153 165.369274 
L 117.282944 193.937777 
L 117.371288 184.118854 
L 117.518527 165.513317 
L 117.525889 165.729381 
L 117.695214 194.225862 
L 117.761471 181.814169 
L 117.879262 162.728488 
L 117.916072 173.003546 
L 118.055949 194.850048 
L 118.129568 184.022826 
L 118.239998 162.752495 
L 118.284169 171.347053 
L 118.328341 180.301718 
L 118.409322 194.24987 
L 118.468218 188.608191 
L 118.5492 171.395068 
L 118.578647 162.896538 
L 118.652267 170.242725 
L 118.755334 194.657991 
L 118.821592 190.648798 
L 118.851039 182.39034 
L 118.946745 164.000867 
L 118.990916 169.258432 
L 119.00564 168.778289 
L 119.027726 171.130989 
L 119.152879 193.57767 
L 119.189689 186.999712 
L 119.300118 167.890024 
L 119.329566 162.752495 
L 119.388462 173.267625 
L 119.528339 193.145541 
L 119.579872 183.878783 
L 119.719749 165.273246 
L 119.741835 168.034067 
L 119.852264 193.457634 
L 119.925884 189.880569 
L 120.028951 163.064588 
L 120.087847 165.969453 
L 120.095209 165.345267 
L 120.117294 171.587125 
L 120.220362 193.529655 
L 120.264533 191.417026 
L 120.279257 191.657098 
L 120.293981 189.184362 
L 120.397048 165.201224 
L 120.463306 168.898325 
L 120.610545 194.009798 
L 120.662079 184.57499 
L 120.728336 169.594532 
L 120.809318 162.776503 
L 120.831403 169.594532 
L 120.986004 195.834341 
L 121.000728 193.529655 
L 121.170053 164.072888 
L 121.177415 165.033174 
L 121.34674 194.369905 
L 121.383549 186.879676 
L 121.523427 161.240045 
L 121.589684 173.339646 
L 121.700113 194.730013 
L 121.759009 188.416133 
L 121.8768 163.544731 
L 121.950419 172.427375 
L 122.053487 193.361605 
L 122.10502 189.976598 
L 122.222812 166.137503 
L 122.311155 173.843796 
L 122.465756 192.881462 
L 122.473118 191.753127 
L 122.642443 165.177217 
L 122.649805 165.393281 
L 122.760234 193.265577 
L 122.841215 187.815955 
L 123.003178 164.384981 
L 123.01054 165.753389 
L 123.172503 192.833448 
L 123.187227 190.672805 
L 123.34919 163.80881 
L 123.363914 166.617646 
L 123.525876 194.994091 
L 123.5406 192.905469 
L 123.709925 164.913138 
L 123.886612 194.201855 
L 123.960231 186.015419 
L 124.063299 163.544731 
L 124.092746 171.659146 
L 124.100108 171.87521 
L 124.114832 169.786589 
L 124.122194 168.970346 
L 124.14428 175.020146 
L 124.232623 193.601677 
L 124.269433 186.303505 
L 124.298881 191.128941 
L 124.320967 184.959104 
L 124.416672 164.937146 
L 124.453482 171.995246 
L 124.475568 168.826303 
L 124.505015 176.556604 
L 124.593359 193.529655 
L 124.637531 187.359819 
L 124.652254 189.232376 
L 124.689064 180.061647 
L 124.828941 167.577932 
L 124.843665 169.52251 
L 125.01299 192.737419 
L 125.182315 167.049774 
L 125.219124 175.884404 
L 125.359001 192.617384 
L 125.388449 186.495562 
L 125.54305 165.753389 
L 125.550412 166.425589 
L 125.719737 193.433627 
L 125.749185 188.368119 
L 125.903786 166.32956 
L 125.933233 170.986946 
L 126.058386 191.176955 
L 126.07311 194.297884 
L 126.14673 187.215776 
L 126.249797 165.99346 
L 126.308693 168.538217 
L 126.316055 167.818003 
L 126.338141 173.147589 
L 126.433846 192.737419 
L 126.478018 188.848262 
L 126.492741 190.648798 
L 126.529551 181.189983 
L 126.617895 166.761689 
L 126.669428 170.098682 
L 126.684152 170.050667 
L 126.691514 170.482796 
L 126.765133 186.92769 
L 126.794581 193.025505 
L 126.868201 187.984005 
L 127.022802 166.377574 
L 127.052249 170.122689 
L 127.192126 194.08182 
L 127.228936 189.544469 
L 127.368813 165.393281 
L 127.427709 172.763475 
L 127.5455 192.233269 
L 127.611758 188.128048 
L 127.729549 165.441296 
L 127.795806 170.050667 
L 127.913597 193.265577 
L 127.979855 188.368119 
L 128.090284 166.185517 
L 128.163904 173.051561 
L 128.311143 192.137241 
L 128.347952 184.671019 
L 128.495191 165.393281 
L 128.517277 170.53081 
L 128.612982 192.809441 
L 128.67924 192.593377 
L 128.797031 166.545624 
L 128.900098 177.756961 
L 128.94427 183.782754 
L 129.032613 194.345898 
L 129.054699 188.560176 
L 129.2093 163.112603 
L 129.224024 165.465303 
L 129.385987 193.457634 
L 129.400711 191.945184 
L 129.562674 163.97686 
L 129.592122 168.826303 
L 129.73936 192.953484 
L 129.783532 188.392126 
L 129.916047 166.257539 
L 129.997029 174.612025 
L 130.092734 194.850048 
L 130.136906 188.824255 
L 130.15163 189.832555 
L 130.181077 184.118854 
L 130.276783 165.057181 
L 130.328316 167.529917 
L 130.453469 194.369905 
L 130.549175 181.622111 
L 130.652242 164.577038 
L 130.711138 172.643439 
L 130.843653 194.633984 
L 130.895186 185.367226 
L 131.005616 166.017467 
L 131.020339 164.673067 
L 131.064511 171.491096 
L 131.204388 194.489941 
L 131.263284 187.647905 
L 131.388437 162.320367 
L 131.462056 174.275925 
L 131.565124 196.410513 
L 131.601933 189.112341 
L 131.624019 189.808548 
L 131.631381 188.920283 
L 131.74181 163.952853 
L 131.808068 166.881724 
L 131.911135 195.210155 
L 131.977393 191.345005 
L 132.058374 174.035854 
L 132.095184 164.432996 
L 132.168803 170.122689 
L 132.323404 192.953484 
L 132.338128 191.801141 
L 132.455919 166.737681 
L 132.522177 168.634246 
L 132.68414 192.401319 
L 132.706226 188.872269 
L 132.816655 167.793996 
L 132.882912 169.642546 
L 133.037513 191.008905 
L 133.089047 185.199176 
L 133.221562 167.385874 
L 133.258372 172.235318 
L 133.405611 192.113234 
L 133.427696 187.839962 
L 133.582297 165.249238 
L 133.604383 169.138396 
L 133.758984 193.697705 
L 133.78107 189.592483 
L 133.943033 166.377574 
L 133.957757 168.106089 
L 134.112358 192.113234 
L 134.149167 187.575883 
L 134.200701 180.421754 
L 134.289044 165.465303 
L 134.325854 171.851203 
L 134.34794 171.683153 
L 134.377388 178.549197 
L 134.465731 194.41792 
L 134.502541 187.143755 
L 134.64978 164.192924 
L 134.531989 187.743933 
L 134.730761 175.188196 
L 134.833829 194.561962 
L 134.878 187.359819 
L 135.003153 166.353567 
L 135.069411 171.37106 
L 135.187202 192.305291 
L 135.25346 188.272091 
L 135.363889 166.545624 
L 135.430146 167.721974 
L 135.547937 193.601677 
L 135.614195 190.624791 
L 135.731986 165.945446 
L 135.805606 170.69886 
L 135.938121 194.970084 
L 135.982292 187.215776 
L 136.100084 165.32126 
L 136.114807 163.352674 
L 136.166341 171.803189 
L 136.210513 179.437461 
L 136.298856 194.898063 
L 136.343028 188.248083 
L 136.482905 163.448703 
L 136.563886 176.604618 
L 136.696401 193.553662 
L 136.725849 187.143755 
L 136.88045 164.408988 
L 136.895174 165.945446 
L 137.064499 194.201855 
L 137.079223 192.689405 
L 137.233824 166.881724 
L 137.255909 168.130096 
L 137.41051 192.737419 
L 137.476768 186.25549 
L 137.594559 165.177217 
L 137.660817 173.099575 
L 137.778608 194.489941 
L 137.852227 185.607297 
L 137.962656 165.801403 
L 138.01419 172.811489 
L 138.102533 186.399533 
L 138.139343 192.113234 
L 138.205601 185.75134 
L 138.345478 168.466196 
L 138.389649 173.483689 
L 138.492717 189.976598 
L 138.558974 188.464148 
L 138.728299 168.778289 
L 138.750385 172.187303 
L 138.897624 188.704219 
L 138.91971 187.743933 
L 139.066949 170.074675 
L 139.140568 175.908411 
L 139.243635 190.000605 
L 139.280445 184.430947 
L 139.309893 184.863076 
L 139.346703 176.172489 
L 139.427684 169.618539 
L 139.464494 174.371954 
L 139.567561 186.159462 
L 139.604371 189.784541 
L 139.663266 184.767047 
L 139.781058 168.442189 
L 139.854677 175.764368 
L 139.972468 190.216669 
L 140.01664 186.735633 
L 140.134431 167.721974 
L 140.215413 173.267625 
L 140.31848 190.480748 
L 140.362651 188.10404 
L 140.377375 188.080033 
L 140.450995 174.828089 
L 140.495167 168.322153 
L 140.568786 171.803189 
L 140.679215 191.296991 
L 140.738111 187.383826 
L 140.789644 180.157675 
L 140.863264 168.154103 
L 140.936883 173.867804 
L 141.07676 189.616491 
L 141.120932 184.959104 
L 141.260809 168.970346 
L 141.297619 173.267625 
L 141.45222 189.520462 
L 141.474306 188.248083 
L 141.64363 168.874317 
L 141.673078 173.027553 
L 141.827679 190.120641 
L 141.835041 189.352412 
L 141.997004 170.674853 
L 142.041176 173.699753 
L 142.136881 186.08744 
L 142.173691 189.952591 
L 142.2105 185.559283 
L 142.239948 185.631305 
L 142.350377 168.706267 
L 142.401911 172.955532 
L 142.409273 172.619432 
L 142.423997 174.732061 
L 142.527064 190.528762 
L 142.563874 185.367226 
L 142.58596 186.279497 
L 142.600684 185.391233 
L 142.696389 168.946339 
L 142.770008 173.027553 
L 142.895162 188.176062 
L 142.954057 184.719033 
L 143.064486 171.851203 
L 143.11602 172.475389 
L 143.248535 187.623898 
L 143.329517 181.237997 
L 143.476755 171.779182 
L 143.484117 171.971239 
L 143.631356 187.984005 
L 143.690252 183.518676 
L 143.815405 170.050667 
L 143.859577 175.956425 
L 143.999454 189.064326 
L 144.028902 184.430947 
L 144.183502 170.410775 
L 144.205588 173.483689 
L 144.360189 188.128048 
L 144.389637 185.511269 
L 144.51479 171.443082 
L 144.603134 176.124475 
L 144.698839 188.584183 
L 144.757734 186.711626 
L 144.794544 180.061647 
L 144.882888 170.122689 
L 144.949145 172.019253 
L 145.11847 188.200069 
L 145.147918 184.094847 
L 145.280433 170.578825 
L 145.317242 173.315639 
L 145.464481 188.704219 
L 145.545463 182.510376 
L 145.655892 169.642546 
L 145.68534 174.179896 
L 145.832579 188.128048 
L 145.869389 184.262897 
L 146.016628 170.53081 
L 146.090247 176.556604 
L 146.200676 187.311805 
L 146.244848 186.351519 
L 146.362639 171.971239 
L 146.443621 174.828089 
L 146.539326 187.623898 
L 146.590859 184.983112 
L 146.605583 186.495562 
L 146.642393 179.509483 
L 146.730737 172.691453 
L 146.78227 173.171596 
L 146.789632 173.171596 
L 146.922147 186.42354 
L 147.017852 180.325726 
L 147.113558 173.315639 
L 147.157729 175.380254 
L 147.304968 185.775347 
L 147.334416 183.39864 
L 147.496379 173.675746 
L 147.511103 174.155889 
L 147.68779 185.463255 
L 147.702514 184.094847 
L 147.820305 174.011846 
L 147.864476 174.251918 
L 147.8792 173.939825 
L 147.901286 176.292525 
L 148.011715 185.91939 
L 148.055887 184.262897 
L 148.092697 182.05424 
L 148.195764 173.651739 
L 148.247298 175.404261 
L 148.313555 181.88619 
L 148.401899 184.74304 
L 148.431346 183.806762 
L 148.490242 179.269411 
L 148.571224 172.067268 
L 148.615395 175.836389 
L 148.644843 175.716354 
L 148.674291 179.989625 
L 148.769996 185.991412 
L 148.799444 182.750447 
L 148.946683 171.154996 
L 148.976131 174.708054 
L 149.130732 186.711626 
L 149.145455 186.015419 
L 149.307418 173.219611 
L 149.381038 176.940718 
L 149.535639 186.183469 
L 149.543001 185.775347 
L 149.660792 172.811489 
L 149.741773 175.476282 
L 149.896374 185.559283 
L 149.911098 185.007119 
L 150.058337 173.315639 
L 150.095147 174.588018 
L 150.227662 185.727333 
L 150.308643 182.846476 
L 150.419072 172.04326 
L 150.455882 177.828982 
L 150.463244 177.901004 
L 150.470606 177.228804 
L 150.492692 175.572311 
L 150.529502 183.278604 
L 150.603121 186.879676 
L 150.558949 181.478068 
L 150.625207 183.542683 
L 150.779808 173.291632 
L 150.794532 173.747768 
L 150.941771 185.535276 
L 151.030114 180.733847 
L 151.125819 173.507696 
L 151.162629 176.724654 
L 151.184715 175.764368 
L 151.206801 177.925011 
L 151.302506 184.310912 
L 151.339316 182.078247 
L 151.368764 183.854776 
L 151.398212 179.293418 
L 151.486555 174.107875 
L 151.516003 176.844689 
L 151.700051 183.542683 
L 151.707413 183.494669 
L 151.781033 179.19739 
L 151.891462 174.131882 
L 151.913548 176.724654 
L 152.001891 185.41524 
L 152.046063 182.750447 
L 152.068149 183.470662 
L 152.090235 181.910197 
L 152.18594 173.747768 
L 152.237474 175.932418 
L 152.252198 175.740361 
L 152.274283 177.51689 
L 152.377351 184.022826 
L 152.406798 183.110554 
L 152.583485 173.939825 
L 152.612933 176.412561 
L 152.767534 185.031126 
L 152.796982 182.294311 
L 152.892687 174.756068 
L 152.966306 175.500289 
L 153.142993 184.935097 
L 153.165079 183.974812 
L 153.31968 174.323939 
L 153.349128 176.556604 
L 153.496367 184.214883 
L 153.378576 176.340539 
L 153.569986 182.05424 
L 153.665692 174.972132 
L 153.724587 175.548304 
L 153.731949 175.260218 
L 153.761397 177.901004 
L 153.84974 184.046833 
L 153.908636 183.374633 
L 153.915998 183.56669 
L 153.938084 181.502076 
L 154.026427 174.515996 
L 154.092685 174.972132 
L 154.100046 174.972132 
L 154.203114 182.630411 
L 154.284095 182.270304 
L 154.45342 176.820682 
L 154.460782 177.132775 
L 154.615383 182.822469 
L 154.652193 180.301718 
L 154.68164 182.078247 
L 154.703726 179.653525 
L 154.806793 176.364547 
L 154.769984 180.181683 
L 154.821517 177.228804 
L 154.917223 181.574097 
L 154.954032 180.445761 
L 154.990842 181.526083 
L 155.027652 180.325726 
L 155.064462 180.565797 
L 155.189615 177.756961 
L 155.204339 177.973025 
L 155.314768 181.526083 
L 155.373663 181.38204 
L 155.484093 177.876997 
L 155.565074 177.036747 
L 155.528264 179.389447 
L 155.579798 178.35714 
L 155.601884 181.237997 
L 155.638694 177.828982 
L 155.697589 180.325726 
L 155.793295 178.765261 
L 155.749123 181.454061 
L 155.808018 179.461468 
L 155.830104 180.829876 
L 155.874276 178.405154 
L 155.903724 178.837283 
L 155.947895 177.396854 
L 155.969981 178.501182 
L 155.999429 181.141968 
L 156.043601 177.925011 
L 156.087772 179.797568 
L 156.11722 178.933311 
L 156.15403 180.901897 
L 156.161392 181.021933 
L 156.183478 179.70154 
L 156.198202 179.005333 
L 156.242373 181.454061 
L 156.293907 179.461468 
L 156.308631 179.677533 
L 156.338079 177.660932 
L 156.345441 177.468875 
L 156.367526 179.19739 
L 156.38225 180.03764 
L 156.41906 177.612918 
L 156.470594 178.52519 
L 156.485318 177.564904 
L 156.529489 181.262004 
L 156.573661 178.789268 
L 156.669366 181.55009 
L 156.691452 179.821575 
L 156.816605 177.997032 
L 156.846053 178.381147 
L 157.008016 182.294311 
L 156.890225 178.309125 
L 157.088997 180.901897 
L 157.192065 175.644332 
L 157.206789 177.732954 
L 157.302494 181.310018 
L 157.265684 176.436568 
L 157.32458 179.413454 
L 157.339304 178.381147 
L 157.376113 182.678426 
L 157.420285 180.301718 
L 157.449733 182.750447 
L 157.486543 178.549197 
L 157.523352 179.437461 
L 157.560162 175.932418 
L 157.641143 178.453168 
L 157.773659 182.39034 
L 157.847278 181.406047 
L 157.965069 174.419968 
L 158.038689 177.34884 
L 158.149118 183.590697 
L 158.178566 180.733847 
L 158.333167 174.948125 
L 158.222737 181.117961 
L 158.340529 174.996139 
L 158.487767 183.23059 
L 158.546663 181.814169 
L 158.671816 175.164189 
L 158.730712 175.596318 
L 158.767522 179.629518 
L 158.91476 184.91109 
L 158.922122 184.502969 
L 159.032552 173.243618 
L 159.106171 173.747768 
L 159.231324 185.271197 
L 159.319668 181.117961 
L 159.430097 173.387661 
L 159.48163 175.788375 
L 159.525802 179.965618 
L 159.614146 185.847369 
L 159.650955 182.366333 
L 159.798194 172.907518 
L 159.680403 182.582397 
L 159.842366 178.045047 
L 159.849728 178.045047 
L 159.871814 177.372847 
L 159.8939 179.413454 
L 159.989605 184.23889 
L 160.019053 182.55839 
L 160.195739 174.059861 
L 160.225187 177.132775 
L 160.328254 184.74304 
L 160.38715 184.550983 
L 160.409236 181.958211 
L 160.504941 172.067268 
L 160.534389 176.340539 
L 160.68899 185.271197 
L 160.571199 175.380254 
L 160.711076 183.422647 
L 160.873039 174.107875 
L 160.931934 176.604618 
L 161.093897 184.022826 
L 161.108621 182.966511 
L 161.211688 174.395961 
L 161.270584 174.756068 
L 161.277946 174.275925 
L 161.307394 177.901004 
L 161.395737 185.91939 
L 161.432547 181.189983 
L 161.469356 185.07914 
L 161.498804 179.19739 
L 161.572424 173.603725 
L 161.646043 174.107875 
L 161.756472 185.007119 
L 161.844816 180.925904 
L 161.933159 174.347946 
L 162.006779 176.724654 
L 162.16138 184.166869 
L 162.176103 183.518676 
L 162.345428 173.555711 
L 162.35279 173.843796 
L 162.536839 185.223183 
L 162.706164 172.883511 
L 162.772421 177.997032 
L 162.88285 185.103147 
L 162.91966 182.55839 
L 162.978556 177.204797 
L 163.059537 173.963832 
L 163.103709 175.716354 
L 163.118433 175.860397 
L 163.243586 185.271197 
L 163.309843 182.294311 
L 163.427635 173.651739 
L 163.471806 175.380254 
L 163.611683 185.559283 
L 163.692665 180.613811 
L 163.810456 173.939825 
L 163.847266 175.668339 
L 164.001867 185.943397 
L 164.031314 183.422647 
L 164.178553 173.267625 
L 164.200639 174.347946 
L 164.362602 184.623004 
L 164.384688 183.782754 
L 164.539289 173.507696 
L 164.605546 175.836389 
L 164.715976 186.279497 
L 164.782233 182.702433 
L 164.804319 180.781861 
L 164.892662 172.547411 
L 164.936834 176.100468 
L 164.944196 176.100468 
L 164.95892 175.836389 
L 164.973644 177.01274 
L 165.076711 185.151162 
L 165.120883 183.326619 
L 165.209226 177.036747 
L 165.268122 173.603725 
L 165.327017 176.244511 
L 165.474256 185.07914 
L 165.503704 183.278604 
L 165.606771 173.363653 
L 165.673029 174.852096 
L 165.783458 184.382933 
L 165.879163 182.078247 
L 166.004316 174.107875 
L 166.033764 176.004439 
L 166.188365 184.791054 
L 166.217813 182.918497 
L 166.372414 174.491989 
L 166.409224 176.148482 
L 166.571186 184.07084 
L 166.600634 181.694133 
L 166.703701 175.236211 
L 166.769959 176.484582 
L 166.917198 184.262897 
L 166.968732 180.829876 
L 167.093885 174.948125 
L 167.138056 177.252811 
L 167.145418 177.204797 
L 167.160142 177.51689 
L 167.270571 183.710733 
L 167.322105 181.55009 
L 167.45462 175.692347 
L 167.498792 177.036747 
L 167.660755 183.686726 
L 167.675479 182.89449 
L 167.785908 176.028447 
L 167.844803 176.124475 
L 168.014128 182.966511 
L 168.073024 181.117961 
L 168.190815 174.564011 
L 168.227625 177.780968 
L 168.374864 183.254597 
L 168.426397 181.958211 
L 168.455845 180.805868 
L 168.566274 175.236211 
L 168.603084 176.580611 
L 168.639894 177.997032 
L 168.735599 182.774454 
L 168.787133 182.55839 
L 168.794495 182.702433 
L 168.816581 181.358033 
L 168.912286 175.812382 
L 168.956458 177.228804 
L 168.978543 177.108768 
L 168.985905 177.18079 
L 169.133144 182.150269 
L 169.169954 180.853883 
L 169.317193 176.412561 
L 169.339279 177.324832 
L 169.486518 181.21399 
L 169.49388 181.189983 
L 169.523328 181.141968 
L 169.736824 177.204797 
L 169.75891 178.597211 
L 169.861977 182.294311 
L 169.898787 181.310018 
L 170.038664 177.901004 
L 170.082836 178.69324 
L 170.171179 181.165976 
L 170.112283 178.52519 
L 170.266884 180.061647 
L 170.392037 177.925011 
L 170.428847 178.885297 
L 170.531914 181.165976 
L 170.561362 180.061647 
L 170.605534 180.133668 
L 170.715963 178.237104 
L 170.730687 178.18909 
L 170.745411 178.549197 
L 170.863202 180.973918 
L 170.89265 180.637818 
L 170.922098 180.229697 
L 171.091422 177.901004 
L 171.113508 178.333132 
L 171.260747 182.150269 
L 171.290195 180.87789 
L 171.393262 176.460575 
L 171.45952 177.34884 
L 171.621483 183.73474 
L 171.643569 182.198283 
L 171.805531 175.452275 
L 171.982218 183.06254 
L 172.055838 180.253704 
L 172.151543 175.116175 
L 172.188353 176.940718 
L 172.335592 182.870483 
L 172.416573 180.661826 
L 172.534364 174.900111 
L 172.571174 176.628625 
L 172.696327 183.374633 
L 172.769947 181.526083 
L 172.8951 175.956425 
L 172.917186 176.460575 
L 173.101234 182.462361 
L 173.130682 180.901897 
L 173.226387 176.532597 
L 173.285283 177.252811 
L 173.300007 177.132775 
L 173.314731 177.828982 
L 173.46197 181.502076 
L 173.469332 181.454061 
L 173.594485 177.756961 
L 173.69019 178.501182 
L 173.793257 181.958211 
L 173.844791 179.677533 
L 173.866877 180.109661 
L 173.896325 179.341433 
L 173.977306 177.396854 
L 173.933134 179.437461 
L 174.014116 179.005333 
L 174.021478 179.053347 
L 174.036202 178.765261 
L 174.050926 178.35714 
L 174.095097 180.277711 
L 174.117183 179.917604 
L 174.124545 179.821575 
L 174.146631 180.637818 
L 174.168717 181.021933 
L 174.22025 179.461468 
L 174.227612 179.485475 
L 174.242336 179.581504 
L 174.25706 179.19739 
L 174.301232 178.045047 
L 174.374851 178.669233 
L 174.492642 181.21399 
L 174.529452 180.325726 
L 174.676691 177.492882 
L 174.750311 178.837283 
L 174.853378 181.598104 
L 174.882826 179.989625 
L 174.971169 178.309125 
L 174.934359 180.397747 
L 174.993255 179.149375 
L 175.000617 179.389447 
L 175.030065 176.892704 
L 175.044789 176.052454 
L 175.08896 179.53349 
L 175.12577 178.18909 
L 175.228837 182.822469 
L 175.258285 180.613811 
L 175.405524 176.484582 
L 175.412886 176.580611 
L 175.574849 182.486369 
L 175.604297 180.757854 
L 175.751536 176.556604 
L 175.648468 181.334026 
L 175.766259 177.132775 
L 175.869327 180.685833 
L 175.825155 176.028447 
L 175.891413 179.485475 
L 175.898775 179.317425 
L 175.92086 181.334026 
L 175.935584 182.678426 
L 175.979756 180.277711 
L 176.023928 180.685833 
L 176.119633 176.580611 
L 176.156443 178.837283 
L 176.193252 177.108768 
L 176.230062 178.86129 
L 176.266872 178.52519 
L 176.369939 182.606404 
L 176.392025 181.117961 
L 176.539264 175.500289 
L 176.56135 177.34884 
L 176.715951 183.206583 
L 176.723313 183.278604 
L 176.730675 182.798461 
L 176.899999 175.044154 
L 177.061962 182.582397 
L 177.076686 183.878783 
L 177.113496 181.021933 
L 177.157668 181.262004 
L 177.246011 175.788375 
L 177.304907 176.892704 
L 177.481593 182.750447 
L 177.503679 181.04594 
L 177.606746 175.668339 
L 177.643556 176.940718 
L 177.665642 175.596318 
L 177.702452 179.653525 
L 177.783433 184.07084 
L 177.827605 180.87789 
L 177.849691 182.22229 
L 177.8865 178.093061 
L 177.974844 175.740361 
L 177.92331 178.741254 
L 178.004292 177.108768 
L 178.180978 182.534383 
L 178.232512 180.325726 
L 178.357665 175.884404 
L 178.379751 177.084761 
L 178.549076 183.446654 
L 178.556438 183.758747 
L 178.578524 181.526083 
L 178.674229 175.068161 
L 178.711039 177.036747 
L 178.740486 175.380254 
L 178.769934 178.501182 
L 178.858278 182.966511 
L 178.909811 182.942504 
L 178.917173 182.966511 
L 178.924535 182.654419 
L 179.034964 175.500289 
L 179.101222 176.364547 
L 179.263185 183.950804 
L 179.277909 182.942504 
L 179.380976 175.500289 
L 179.439872 175.692347 
L 179.447233 175.548304 
L 179.469319 177.228804 
L 179.62392 183.134561 
L 179.638644 182.606404 
L 179.800607 175.908411 
L 179.830055 176.580611 
L 179.96257 183.662719 
L 180.036189 182.078247 
L 180.146619 175.500289 
L 180.198152 176.508589 
L 180.212876 176.724654 
L 180.345391 183.56669 
L 180.411649 181.646118 
L 180.536802 175.548304 
L 180.573612 177.901004 
L 180.728212 183.086547 
L 180.750298 182.150269 
L 180.919623 175.764368 
L 180.949071 177.300825 
L 181.09631 181.934204 
L 181.118396 181.165976 
L 181.280359 177.156782 
L 181.295082 177.468875 
L 181.420236 180.973918 
L 181.449683 180.805868 
L 181.471769 180.421754 
L 181.648456 177.85299 
L 181.8914 181.069947 
L 181.92821 180.181683 
L 182.046001 177.780968 
L 182.119621 179.101361 
L 182.23005 180.517783 
L 182.26686 180.109661 
L 182.311031 178.885297 
L 182.399375 179.53349 
L 182.502442 180.301718 
L 182.45827 178.141075 
L 182.517166 179.893597 
L 182.53189 179.461468 
L 182.568699 180.87789 
L 182.620233 179.821575 
L 182.642319 180.301718 
L 182.679129 178.86129 
L 182.708576 179.173383 
L 182.745386 178.117068 
L 182.782196 179.557497 
L 182.819006 178.765261 
L 182.929435 181.04594 
L 182.951521 180.229697 
L 183.091398 178.621218 
L 183.113484 178.237104 
L 183.172379 179.36544 
L 183.32698 181.430054 
L 183.334342 181.38204 
L 183.444771 176.484582 
L 183.474219 179.437461 
L 183.5552 181.358033 
L 183.511029 177.828982 
L 183.577286 179.605511 
L 183.584648 179.173383 
L 183.62882 181.862183 
L 183.672992 180.061647 
L 183.695077 180.829876 
L 183.739249 178.885297 
L 183.753973 178.933311 
L 183.798145 177.108768 
L 183.886488 178.405154 
L 183.989555 181.814169 
L 184.019003 180.901897 
L 184.225138 176.724654 
L 184.247224 178.429161 
L 184.394463 182.510376 
L 184.401824 182.510376 
L 184.585873 176.412561 
L 184.600597 177.060754 
L 184.769922 181.742147 
L 184.836179 180.277711 
L 184.931885 177.204797 
L 184.976056 177.949018 
L 184.998142 177.588911 
L 185.02759 179.173383 
L 185.152743 181.742147 
L 185.071762 178.837283 
L 185.182191 181.189983 
L 185.351516 176.652632 
L 185.380964 177.997032 
L 185.520841 181.670126 
L 185.55765 181.502076 
L 185.726975 177.804975 
L 185.771147 178.573204 
L 185.947834 181.237997 
L 185.955196 181.093954 
L 186.12452 178.02104 
L 186.139244 178.141075 
L 186.352741 181.286011 
L 186.374827 180.229697 
L 186.49998 178.18909 
L 186.507342 178.237104 
L 186.558875 179.19739 
L 186.647219 180.997926 
L 186.669304 179.941611 
L 186.76501 178.549197 
L 186.720838 180.661826 
L 186.787096 179.341433 
L 186.80182 179.677533 
L 186.838629 178.645225 
L 186.890163 179.149375 
L 186.904887 178.69324 
L 186.985868 179.70154 
L 187.022678 180.517783 
L 187.081574 179.413454 
L 187.118383 178.741254 
L 187.155193 179.821575 
L 187.199365 179.19739 
L 187.221451 180.061647 
L 187.25826 178.813275 
L 187.309794 179.605511 
L 187.33188 178.549197 
L 187.405499 180.085654 
L 187.427585 180.54179 
L 187.464395 179.005333 
L 187.486481 178.213097 
L 187.538014 179.941611 
L 187.5601 179.749554 
L 187.59691 178.645225 
L 187.663167 179.773561 
L 187.707339 180.829876 
L 187.736787 179.19739 
L 187.780959 180.781861 
L 187.854578 178.717247 
L 187.891388 178.573204 
L 187.920836 179.005333 
L 188.097522 180.829876 
L 188.12697 180.109661 
L 188.244761 177.949018 
L 188.266847 178.285118 
L 188.458258 181.237997 
L 188.472982 180.805868 
L 188.576049 177.34884 
L 188.627583 178.285118 
L 188.649668 177.756961 
L 188.708564 179.413454 
L 188.76746 181.454061 
L 188.848441 181.069947 
L 188.973594 177.420861 
L 189.076661 178.669233 
L 189.165005 181.766154 
L 189.2239 181.478068 
L 189.400587 177.564904 
L 189.415311 177.828982 
L 189.533102 182.55839 
L 189.591998 181.069947 
L 189.724513 176.508589 
L 189.79077 179.053347 
L 189.805494 178.933311 
L 189.82758 179.86959 
L 189.923286 182.534383 
L 189.945371 181.574097 
L 190.055801 177.036747 
L 190.085248 178.429161 
L 190.239849 181.358033 
L 190.122058 177.636925 
L 190.328193 180.157675 
L 190.423898 177.732954 
L 190.460708 178.52519 
L 190.490155 177.708947 
L 190.534327 179.149375 
L 190.615309 181.982219 
L 190.703652 180.853883 
L 190.806719 177.060754 
L 190.836167 178.453168 
L 190.946596 181.814169 
L 190.887701 178.285118 
L 190.990768 181.358033 
L 191.005492 181.286011 
L 191.196903 177.564904 
L 191.233712 179.293418 
L 191.322056 181.934204 
L 191.388313 181.310018 
L 191.410399 180.181683 
L 191.513466 177.204797 
L 191.535552 178.069054 
L 191.704877 181.694133 
L 191.579724 177.732954 
L 191.712239 181.502076 
L 191.896288 176.868697 
L 191.911011 177.468875 
L 192.080336 181.790161 
L 192.102422 181.141968 
L 192.220213 176.220504 
L 192.257023 177.949018 
L 192.264385 177.997032 
L 192.279109 177.492882 
L 192.293833 177.156782 
L 192.338004 179.293418 
L 192.47052 182.270304 
L 192.499967 181.04594 
L 192.595673 175.644332 
L 192.654568 176.772668 
L 192.669292 177.036747 
L 192.779721 183.39864 
L 192.853341 181.742147 
L 192.993218 175.500289 
L 193.052113 178.045047 
L 193.088923 179.70154 
L 193.184628 183.518676 
L 193.2288 182.030233 
L 193.236162 182.078247 
L 193.250886 181.646118 
L 193.361315 175.668339 
L 193.412849 176.412561 
L 193.582174 183.014526 
L 193.611621 181.742147 
L 193.766222 176.172489 
L 193.79567 177.372847 
L 193.884014 182.774454 
L 193.972357 181.574097 
L 194.13432 175.932418 
L 194.163768 178.093061 
L 194.266835 183.06254 
L 194.318368 182.750447 
L 194.355178 179.893597 
L 194.443522 176.316532 
L 194.450884 180.03764 
L 194.458245 180.03764 
L 398.487273 180.03764 
L 398.487273 180.03764 
" clip-path="url(#p93a4a3d68e)" style="fill: none; stroke: #1f77b4; stroke-width: 1.5; stroke-linecap: square"/>
   </g>
   <g id="patch_3">
    <path d="M 57.6 307.584 
L 57.6 41.472 
" style="fill: none; stroke: #000000; stroke-width: 0.8; stroke-linejoin: miter; stroke-linecap: square"/>
   </g>
   <g id="patch_4">
    <path d="M 414.72 307.584 
L 414.72 41.472 
" style="fill: none; stroke: #000000; stroke-width: 0.8; stroke-linejoin: miter; stroke-linecap: square"/>
   </g>
   <g id="patch_5">
    <path d="M 57.6 307.584 
L 414.72 307.584 
" style="fill: none; stroke: #000000; stroke-width: 0.8; stroke-linejoin: miter; stroke-linecap: square"/>
   </g>
   <g id="patch_6">
    <path d="M 57.6 41.472 
L 414.72 41.472 
" style="fill: none; stroke: #000000; stroke-width: 0.8; stroke-linejoin: miter; stroke-linecap: square"/>
   </g>
   <g id="text_14">
    <text style="font: 12px 'IPAexGothic'; text-anchor: middle" x="236.16" y="35.472" transform="rotate(-0 236.16 35.472)">"014_A5.wav"の波形グラフ</text>
   </g>
  </g>
 </g>
 <defs>
  <clipPath id="p93a4a3d68e">
   <rect x="57.6" y="41.472" width="357.12" height="266.112"/>
  </clipPath>
 </defs>
</svg>
