<?xml version="1.0" encoding="utf-8" standalone="no"?>
<!DOCTYPE svg PUBLIC "-//W3C//DTD SVG 1.1//EN"
  "http://www.w3.org/Graphics/SVG/1.1/DTD/svg11.dtd">
<svg xmlns:xlink="http://www.w3.org/1999/xlink" width="460.8pt" height="345.6pt" viewBox="0 0 460.8 345.6" xmlns="http://www.w3.org/2000/svg" version="1.1">
 <metadata>
  <rdf:RDF xmlns:dc="http://purl.org/dc/elements/1.1/" xmlns:cc="http://creativecommons.org/ns#" xmlns:rdf="http://www.w3.org/1999/02/22-rdf-syntax-ns#">
   <cc:Work>
    <dc:type rdf:resource="http://purl.org/dc/dcmitype/StillImage"/>
    <dc:date>2022-11-28T12:39:09.650822</dc:date>
    <dc:format>image/svg+xml</dc:format>
    <dc:creator>
     <cc:Agent>
      <dc:title>Matplotlib v3.6.2, https://matplotlib.org/</dc:title>
     </cc:Agent>
    </dc:creator>
   </cc:Work>
  </rdf:RDF>
 </metadata>
 <defs>
  <style type="text/css">*{stroke-linejoin: round; stroke-linecap: butt}</style>
 </defs>
 <g id="figure_1">
  <g id="patch_1">
   <path d="M 0 345.6 
L 460.8 345.6 
L 460.8 0 
L 0 0 
z
" style="fill: #ffffff"/>
  </g>
  <g id="axes_1">
   <g id="patch_2">
    <path d="M 57.6 307.584 
L 414.72 307.584 
L 414.72 41.472 
L 57.6 41.472 
z
" style="fill: #ffffff"/>
   </g>
   <g id="matplotlib.axis_1">
    <g id="xtick_1">
     <g id="line2d_1">
      <defs>
       <path id="m3a8d0af82e" d="M 0 0 
L 0 3.5 
" style="stroke: #000000; stroke-width: 0.8"/>
      </defs>
      <g>
       <use xlink:href="#m3a8d0af82e" x="73.832727" y="307.584" style="stroke: #000000; stroke-width: 0.8"/>
      </g>
     </g>
     <g id="text_1">
      <text style="font: 10px 'IPAexGothic'; text-anchor: middle" x="73.832727" y="322.074625" transform="rotate(-0 73.832727 322.074625)">0.0</text>
     </g>
    </g>
    <g id="xtick_2">
     <g id="line2d_2">
      <g>
       <use xlink:href="#m3a8d0af82e" x="138.765109" y="307.584" style="stroke: #000000; stroke-width: 0.8"/>
      </g>
     </g>
     <g id="text_2">
      <text style="font: 10px 'IPAexGothic'; text-anchor: middle" x="138.765109" y="322.074625" transform="rotate(-0 138.765109 322.074625)">0.2</text>
     </g>
    </g>
    <g id="xtick_3">
     <g id="line2d_3">
      <g>
       <use xlink:href="#m3a8d0af82e" x="203.69749" y="307.584" style="stroke: #000000; stroke-width: 0.8"/>
      </g>
     </g>
     <g id="text_3">
      <text style="font: 10px 'IPAexGothic'; text-anchor: middle" x="203.69749" y="322.074625" transform="rotate(-0 203.69749 322.074625)">0.4</text>
     </g>
    </g>
    <g id="xtick_4">
     <g id="line2d_4">
      <g>
       <use xlink:href="#m3a8d0af82e" x="268.629872" y="307.584" style="stroke: #000000; stroke-width: 0.8"/>
      </g>
     </g>
     <g id="text_4">
      <text style="font: 10px 'IPAexGothic'; text-anchor: middle" x="268.629872" y="322.074625" transform="rotate(-0 268.629872 322.074625)">0.6</text>
     </g>
    </g>
    <g id="xtick_5">
     <g id="line2d_5">
      <g>
       <use xlink:href="#m3a8d0af82e" x="333.562253" y="307.584" style="stroke: #000000; stroke-width: 0.8"/>
      </g>
     </g>
     <g id="text_5">
      <text style="font: 10px 'IPAexGothic'; text-anchor: middle" x="333.562253" y="322.074625" transform="rotate(-0 333.562253 322.074625)">0.8</text>
     </g>
    </g>
    <g id="xtick_6">
     <g id="line2d_6">
      <g>
       <use xlink:href="#m3a8d0af82e" x="398.494635" y="307.584" style="stroke: #000000; stroke-width: 0.8"/>
      </g>
     </g>
     <g id="text_6">
      <text style="font: 10px 'IPAexGothic'; text-anchor: middle" x="398.494635" y="322.074625" transform="rotate(-0 398.494635 322.074625)">1.0</text>
     </g>
    </g>
    <g id="text_7">
     <text style="font: 10px 'IPAexGothic'; text-anchor: middle" x="236.16" y="335.924625" transform="rotate(-0 236.16 335.924625)">時間[s]</text>
    </g>
   </g>
   <g id="matplotlib.axis_2">
    <g id="ytick_1">
     <g id="line2d_7">
      <defs>
       <path id="md0a8bb8949" d="M 0 0 
L -3.5 0 
" style="stroke: #000000; stroke-width: 0.8"/>
      </defs>
      <g>
       <use xlink:href="#md0a8bb8949" x="57.6" y="273.490834" style="stroke: #000000; stroke-width: 0.8"/>
      </g>
     </g>
     <g id="text_8">
      <text style="font: 10px 'IPAexGothic'; text-anchor: end" x="50.6" y="277.236146" transform="rotate(-0 50.6 277.236146)">−4000</text>
     </g>
    </g>
    <g id="ytick_2">
     <g id="line2d_8">
      <g>
       <use xlink:href="#md0a8bb8949" x="57.6" y="224.662496" style="stroke: #000000; stroke-width: 0.8"/>
      </g>
     </g>
     <g id="text_9">
      <text style="font: 10px 'IPAexGothic'; text-anchor: end" x="50.6" y="228.407808" transform="rotate(-0 50.6 228.407808)">−2000</text>
     </g>
    </g>
    <g id="ytick_3">
     <g id="line2d_9">
      <g>
       <use xlink:href="#md0a8bb8949" x="57.6" y="175.834158" style="stroke: #000000; stroke-width: 0.8"/>
      </g>
     </g>
     <g id="text_10">
      <text style="font: 10px 'IPAexGothic'; text-anchor: end" x="50.6" y="179.579471" transform="rotate(-0 50.6 179.579471)">0</text>
     </g>
    </g>
    <g id="ytick_4">
     <g id="line2d_10">
      <g>
       <use xlink:href="#md0a8bb8949" x="57.6" y="127.00582" style="stroke: #000000; stroke-width: 0.8"/>
      </g>
     </g>
     <g id="text_11">
      <text style="font: 10px 'IPAexGothic'; text-anchor: end" x="50.6" y="130.751133" transform="rotate(-0 50.6 130.751133)">2000</text>
     </g>
    </g>
    <g id="ytick_5">
     <g id="line2d_11">
      <g>
       <use xlink:href="#md0a8bb8949" x="57.6" y="78.177482" style="stroke: #000000; stroke-width: 0.8"/>
      </g>
     </g>
     <g id="text_12">
      <text style="font: 10px 'IPAexGothic'; text-anchor: end" x="50.6" y="81.922795" transform="rotate(-0 50.6 81.922795)">4000</text>
     </g>
    </g>
    <g id="text_13">
     <text style="font: 10px 'IPAexGothic'; text-anchor: middle" x="12.723438" y="174.528" transform="rotate(-90 12.723438 174.528)">振幅</text>
    </g>
   </g>
   <g id="line2d_12">
    <path d="M 73.832727 175.834158 
L 73.869537 175.736501 
L 73.891623 175.956229 
L 73.884261 175.712087 
L 73.979966 175.78533 
L 74.046224 175.956229 
L 74.038862 175.736501 
L 74.083034 175.907401 
L 74.090395 175.760916 
L 74.193463 175.834158 
L 77.579959 175.736501 
L 77.587321 175.956229 
L 77.690388 175.858572 
L 77.793455 175.809744 
L 77.874437 175.956229 
L 77.867075 175.760916 
L 77.903885 175.882986 
L 77.948056 175.931815 
L 78.043762 175.736501 
L 78.051123 175.858572 
L 78.110019 175.638845 
L 78.139467 175.638845 
L 78.286706 175.272632 
L 78.30143 175.223804 
L 78.441307 176.0783 
L 78.470755 176.005057 
L 78.573822 171.390779 
L 78.735785 143.778354 
L 78.875662 125.54097 
L 78.912471 127.542932 
L 79.015539 145.560589 
L 79.155416 166.166147 
L 79.206949 163.260861 
L 79.339464 134.720698 
L 79.413084 125.809526 
L 79.464618 131.644512 
L 79.611856 190.751215 
L 79.817991 231.522877 
L 79.92842 240.116665 
L 80.156641 257.475139 
L 80.208174 256.376501 
L 80.362775 245.951651 
L 80.502652 200.44364 
L 80.708787 158.573341 
L 80.738235 157.962986 
L 80.856026 144.803749 
L 81.091608 123.587837 
L 81.143142 122.440371 
L 81.179951 123.807564 
L 81.268295 137.333014 
L 81.59222 203.666311 
L 81.651116 200.858681 
L 82.070747 160.282332 
L 82.137005 168.534322 
L 82.306329 208.597973 
L 82.372587 197.587183 
L 82.711237 99.466638 
L 82.755408 101.2977 
L 82.865837 122.855411 
L 83.314916 235.380316 
L 83.351726 234.354921 
L 83.786081 209.476883 
L 83.984854 149.613341 
L 84.279332 90.946093 
L 84.419209 82.303477 
L 84.46338 84.061297 
L 84.581171 100.638518 
L 84.809392 159.012796 
L 85.236385 253.544458 
L 85.383624 260.185112 
L 85.420433 259.35503 
L 85.494053 253.861842 
L 86.090371 198.68582 
L 86.156628 196.830343 
L 86.208162 198.295193 
L 86.296505 204.008109 
L 86.377487 207.084294 
L 86.421658 205.277646 
L 86.679327 167.1183 
L 86.775032 177.372251 
L 86.914909 199.8577 
L 86.966443 195.975847 
L 87.091596 161.185657 
L 87.327178 119.461842 
L 87.489141 105.057482 
L 87.56276 108.20691 
L 87.842514 133.011706 
L 87.90141 131.449199 
L 88.107544 114.505766 
L 88.188526 117.777264 
L 88.630243 152.543041 
L 88.895273 170.487455 
L 89.042512 193.900643 
L 89.307542 224.638082 
L 89.447419 230.692796 
L 89.491591 229.984785 
L 89.513677 229.374431 
L 89.712449 214.042332 
L 90.117356 140.848654 
L 90.264595 123.758736 
L 90.294043 124.66206 
L 90.345577 128.812469 
L 90.603245 161.796011 
L 90.882999 205.692687 
L 91.044962 233.256283 
L 91.089133 230.936937 
L 91.26582 210.795248 
L 91.33944 214.677101 
L 91.523488 232.816828 
L 91.575022 230.814866 
L 91.759071 212.235684 
L 92.105082 181.498245 
L 92.215511 186.722877 
L 92.355388 192.313722 
L 92.377474 191.898681 
L 92.384836 191.94751 
L 92.392198 191.581297 
L 92.39956 191.581297 
L 92.613057 172.538245 
L 93.157841 115.653232 
L 93.253546 117.704022 
L 93.319804 121.73236 
L 93.459681 134.037101 
L 93.857226 187.894757 
L 94.122256 210.966147 
L 94.232685 211.771815 
L 94.291581 211.356774 
L 94.490353 203.178027 
L 94.733298 192.386965 
L 94.784831 193.436774 
L 94.895261 204.789362 
L 95.211824 248.100098 
L 95.278082 246.00048 
L 95.373787 243.461406 
L 95.432683 244.999499 
L 95.528388 248.710452 
L 95.57256 246.854975 
L 95.682989 221.708381 
L 96.043724 127.103477 
L 96.279307 108.182496 
L 96.323478 109.183477 
L 96.455994 112.943259 
L 96.507527 111.624894 
L 96.603232 108.744022 
L 96.640042 109.842659 
L 96.743109 125.223586 
L 97.162741 202.982714 
L 97.206912 202.323531 
L 97.302618 199.027619 
L 97.530838 179.105657 
L 97.729611 168.680807 
L 97.884211 167.679826 
L 97.898935 167.753068 
L 97.987279 168.168109 
L 98.016726 168.046038 
L 98.024088 168.094866 
L 98.060898 167.850725 
L 98.090346 167.875139 
L 98.10507 167.899553 
L 98.355376 161.844839 
L 98.554149 155.448327 
L 98.642492 151.517646 
L 98.782369 132.767564 
L 99.032675 105.911978 
L 99.143105 112.064349 
L 99.584821 165.848763 
L 99.84249 220.902714 
L 99.849852 220.829471 
L 99.923471 223.637101 
L 100.195863 263.822823 
L 100.29893 256.376501 
L 100.534513 211.820643 
L 100.689114 187.870343 
L 100.748009 191.65454 
L 101.042487 220.341188 
L 101.049849 220.316774 
L 101.071935 220.536501 
L 101.108745 219.389035 
L 101.351689 200.101842 
L 101.447394 205.033504 
L 101.521014 208.256174 
L 101.565185 206.400698 
L 101.778682 183.158409 
L 101.962731 143.119172 
L 102.271932 86.258572 
L 102.323466 88.675575 
L 102.573772 108.036011 
L 103.052299 188.529526 
L 103.287881 199.906529 
L 103.530826 213.724948 
L 103.552911 213.602877 
L 103.589721 213.334322 
L 103.633893 213.773777 
L 103.832665 220.12146 
L 103.898923 218.436883 
L 104.090334 206.425112 
L 104.149229 208.134104 
L 104.230211 211.259117 
L 104.281744 209.476883 
L 104.428983 186.600807 
L 104.627756 168.680807 
L 104.649842 168.607564 
L 104.738185 162.723749 
L 105.017939 127.665003 
L 105.106282 129.862278 
L 105.349227 144.657264 
L 105.547999 201.444621 
L 105.732048 228.324621 
L 105.746772 228.20255 
L 105.798306 226.810943 
L 105.930821 216.752305 
L 106.203213 198.466093 
L 106.34309 188.676011 
L 106.792169 145.21879 
L 106.821616 145.829144 
L 107.020389 159.110452 
L 107.3664 187.821515 
L 107.447382 183.231651 
L 107.638793 144.193395 
L 108.124681 60.18424 
L 108.154129 60.330725 
L 108.168853 60.306311 
L 108.176215 60.501624 
L 108.27192 70.438191 
L 108.669465 143.949253 
L 109.06701 236.430125 
L 109.309955 255.229035 
L 109.390936 251.27394 
L 109.93572 211.185875 
L 109.957806 211.771815 
L 110.053511 222.587292 
L 110.193389 234.52582 
L 110.23756 233.378354 
L 110.355351 221.366583 
L 110.546762 174.930834 
L 110.811792 126.004839 
L 111.025289 117.411052 
L 111.054736 117.874921 
L 111.165166 124.442332 
L 111.503815 163.212033 
L 111.997066 221.049199 
L 112.004428 221.000371 
L 112.055961 218.876338 
L 112.2032 199.686801 
L 112.644917 147.56255 
L 112.689089 146.659226 
L 112.733261 148.075248 
L 112.858414 163.602659 
L 113.0351 181.840044 
L 113.07191 181.254104 
L 113.130806 180.131052 
L 113.167616 181.229689 
L 113.263321 195.048109 
L 113.41056 216.264022 
L 113.454731 213.67612 
L 114.095221 146.537155 
L 114.146755 148.14849 
L 114.330803 158.231542 
L 114.404423 157.547946 
L 114.426509 157.645602 
L 114.485404 160.306747 
L 114.625281 181.327346 
L 114.993379 228.349035 
L 115.03755 229.472087 
L 115.089084 228.007237 
L 115.228961 212.577482 
L 115.464543 194.852796 
L 115.471905 194.87721 
L 115.538163 196.537373 
L 115.803193 207.05988 
L 115.862088 205.814757 
L 116.009327 195.585221 
L 116.200738 164.701297 
L 116.671903 96.048654 
L 116.959019 79.373777 
L 116.966381 79.398191 
L 117.032638 81.009526 
L 117.172515 90.653123 
L 117.356564 121.366147 
L 117.651042 192.36255 
L 117.724661 191.117428 
L 117.761471 192.093995 
L 117.849814 203.983695 
L 118.004415 224.589253 
L 118.048587 222.367564 
L 118.320979 202.543259 
L 118.372513 202.592087 
L 118.409322 202.152632 
L 118.497666 196.952414 
L 118.659629 183.10958 
L 118.711162 186.356665 
L 118.932021 217.142932 
L 119.027726 211.649744 
L 119.233861 202.152632 
L 119.241223 202.20146 
L 119.300118 203.275684 
L 119.447357 207.084294 
L 119.498891 206.132142 
L 119.624044 197.904567 
L 119.808093 170.609526 
L 120.080485 140.384785 
L 120.102571 140.213886 
L 120.13938 141.190452 
L 120.242448 152.225657 
L 120.632631 214.481787 
L 120.713612 209.672196 
L 120.897661 194.535411 
L 120.949195 195.511978 
L 121.030176 197.22097 
L 121.074348 196.171161 
L 121.206863 184.354703 
L 121.427721 173.368327 
L 121.449807 173.465984 
L 121.523427 176.298027 
L 121.678027 185.013886 
L 121.736923 183.256065 
L 121.8768 176.005057 
L 121.928334 178.031433 
L 122.112382 194.535411 
L 122.17864 190.140861 
L 122.797044 101.493014 
L 122.914835 109.134649 
L 123.172503 134.281243 
L 123.732011 257.30424 
L 123.768821 258.207564 
L 123.820354 256.303259 
L 123.989679 247.807128 
L 124.041213 248.588381 
L 124.114832 249.589362 
L 124.159004 248.783695 
L 124.247347 241.410616 
L 124.438758 198.929962 
L 124.71115 160.135847 
L 124.718512 160.111433 
L 124.74796 160.379989 
L 125.005628 167.362441 
L 125.204401 187.968 
L 125.263296 184.134975 
L 125.690289 118.241134 
L 125.933233 98.587728 
L 125.984767 99.124839 
L 126.087834 104.056501 
L 126.492741 146.463913 
L 126.787219 180.008981 
L 126.94182 188.480698 
L 127.066973 195.536392 
L 127.118507 193.70533 
L 127.324642 171.952305 
L 127.420347 178.641787 
L 127.560224 188.822496 
L 127.604396 187.894757 
L 127.766358 182.181842 
L 127.817892 183.353722 
L 128.060836 196.34206 
L 128.163904 193.876229 
L 128.318505 184.305875 
L 128.71605 139.261733 
L 128.811755 144.291052 
L 129.334453 206.937809 
L 129.783532 267.167564 
L 129.790894 267.14315 
L 129.842428 262.846256 
L 130.019115 217.118518 
L 130.350402 163.065548 
L 130.556537 149.002986 
L 130.571261 149.100643 
L 130.630156 151.54206 
L 130.836291 167.069471 
L 130.902548 163.602659 
L 131.020339 154.325275 
L 131.071873 157.254975 
L 131.21175 171.244294 
L 131.270646 167.582169 
L 131.844878 113.431542 
L 131.859602 113.529199 
L 131.918497 116.703041 
L 132.352852 168.387837 
L 132.757759 234.379335 
L 132.772483 234.428163 
L 132.801931 233.93988 
L 133.125857 222.660534 
L 133.435058 198.539335 
L 133.530764 202.299117 
L 133.773708 216.947619 
L 133.825242 215.751324 
L 133.935671 205.839172 
L 134.826467 87.601351 
L 134.863276 88.187292 
L 134.966344 94.974431 
L 135.128306 121.097591 
L 135.680453 231.474049 
L 135.724624 233.280698 
L 135.776158 230.570725 
L 135.952845 198.270779 
L 136.490267 117.704022 
L 136.549162 120.26751 
L 137.336891 176.590997 
L 137.373701 177.225766 
L 137.417872 175.858572 
L 137.690264 159.964948 
L 137.78597 161.210071 
L 137.955294 164.89661 
L 138.065724 178.055847 
L 138.551612 252.787619 
L 138.58106 252.226093 
L 138.691489 243.046365 
L 138.8829 234.916447 
L 138.963881 231.351978 
L 139.103758 210.770834 
L 139.405598 171.830234 
L 139.648543 160.819444 
L 139.707438 163.651488 
L 139.869401 192.386965 
L 139.950382 199.222932 
L 140.001916 196.879172 
L 140.399461 152.128 
L 140.664491 100.369962 
L 140.877988 101.2977 
L 140.958969 105.911978 
L 141.091484 131.375956 
L 141.621545 253.275902 
L 141.650992 253.6177 
L 141.695164 252.812033 
L 141.864489 243.632305 
L 142.01909 222.294322 
L 142.556512 142.728545 
L 142.652217 136.747074 
L 142.703751 138.749035 
L 143.101296 174.930834 
L 143.197001 169.022605 
L 143.395774 150.248109 
L 143.447308 151.419989 
L 143.565099 154.252033 
L 143.623994 153.812578 
L 143.675528 153.495193 
L 143.7197 153.934649 
L 143.815405 157.86533 
L 143.999454 177.274594 
L 144.529514 241.337373 
L 144.573686 239.310997 
L 144.919697 197.245384 
L 145.354052 101.029144 
L 145.376138 101.224458 
L 145.457119 104.910997 
L 145.641168 127.249962 
L 146.104971 186.527564 
L 146.112333 186.478736 
L 146.156505 183.964076 
L 146.333191 154.447346 
L 146.605583 131.351542 
L 146.74546 126.981406 
L 146.78227 127.689417 
L 146.870614 135.013668 
L 147.143006 184.232632 
L 147.680428 288.529962 
L 147.761409 281.791651 
L 148.527052 172.587074 
L 148.600671 173.099771 
L 148.637481 172.709144 
L 148.725824 167.508926 
L 148.873063 157.010834 
L 148.924597 159.110452 
L 149.079198 170.780425 
L 149.138094 168.29018 
L 149.300056 157.035248 
L 149.358952 158.768654 
L 149.462019 162.796992 
L 149.513553 161.503041 
L 149.69024 151.737373 
L 149.763859 153.59285 
L 150.014165 167.460098 
L 150.492692 233.93988 
L 150.544226 233.036556 
L 150.654655 225.809962 
L 150.809256 195.853777 
L 151.177353 125.711869 
L 151.339316 120.584894 
L 151.361402 120.706965 
L 151.412935 122.098572 
L 151.516003 132.181624 
L 151.862014 179.130071 
L 151.913548 178.641787 
L 151.95772 178.397646 
L 151.994529 178.812687 
L 152.104959 183.842005 
L 152.208026 187.601787 
L 152.252198 186.405493 
L 152.362627 174.369308 
L 152.75281 130.936501 
L 152.78962 132.425766 
L 152.892687 149.662169 
L 153.393299 245.512196 
L 153.562624 249.149907 
L 153.614158 247.7583 
L 153.709863 236.845166 
L 154.549125 106.058463 
L 154.563849 106.204948 
L 154.821517 112.284076 
L 154.94667 120.072196 
L 155.167529 131.717755 
L 155.182253 131.668926 
L 155.255872 130.448218 
L 155.439921 122.684512 
L 155.579798 117.728436 
L 155.62397 118.827074 
L 155.727037 130.643531 
L 156.065687 209.037428 
L 156.389612 271.562114 
L 156.396974 271.5377 
L 156.45587 268.90097 
L 156.654642 244.340316 
L 157.354027 139.457046 
L 157.435009 143.485384 
L 157.604334 171.244294 
L 157.898812 211.088218 
L 157.928259 210.990561 
L 157.972431 210.844076 
L 158.009241 211.112632 
L 158.075498 211.674158 
L 158.112308 211.063804 
L 158.200652 203.153613 
L 158.502491 161.38097 
L 158.576111 162.064567 
L 158.752798 163.968872 
L 159.017828 182.572469 
L 159.165067 200.73661 
L 159.408011 226.102932 
L 159.415373 226.078518 
L 159.48163 224.931052 
L 159.643593 217.826529 
L 159.835004 196.415302 
L 160.063224 140.360371 
L 160.320893 102.323095 
L 160.38715 100.907074 
L 160.438684 101.932469 
L 160.608009 111.966692 
L 160.799419 138.968763 
L 160.998192 157.132905 
L 161.012916 156.98642 
L 161.174879 152.738354 
L 161.241136 154.593831 
L 161.506166 173.075357 
L 161.800644 220.072632 
L 162.073036 244.291488 
L 162.338066 276.322877 
L 162.411686 271.610943 
L 162.669354 224.418354 
L 162.875488 152.445384 
L 163.103709 105.789907 
L 163.287758 95.926583 
L 163.339291 97.537918 
L 163.48653 116.288 
L 163.82518 147.26958 
L 164.01659 159.940534 
L 164.046038 159.549907 
L 164.134382 153.861406 
L 164.465669 132.572251 
L 164.627632 129.007782 
L 164.679166 129.984349 
L 164.774871 138.407237 
L 165.341741 230.570725 
L 165.518428 257.939008 
L 165.5626 256.059117 
L 165.687753 234.476992 
L 166.107384 162.821406 
L 166.291432 157.303804 
L 166.298794 157.328218 
L 166.350328 157.840916 
L 166.674254 164.676883 
L 167.079161 191.434812 
L 167.167504 195.145766 
L 167.300019 201.444621 
L 167.344191 200.004185 
L 167.498792 190.653559 
L 167.557687 193.314703 
L 167.79327 224.10097 
L 168.190815 274.589471 
L 168.271796 271.098245 
L 168.419035 250.175302 
L 168.720875 168.29018 
L 169.066887 91.092578 
L 169.243574 73.392305 
L 169.287745 75.272196 
L 169.42026 97.147292 
L 169.854615 161.478627 
L 170.141731 196.146747 
L 170.163817 196.219989 
L 170.193265 195.902605 
L 170.28897 191.94751 
L 170.458295 173.441569 
L 170.598172 161.942496 
L 170.642344 163.480589 
L 170.760135 179.642768 
L 171.187128 242.02097 
L 171.349091 244.633286 
L 171.400624 243.534649 
L 171.503692 234.452578 
L 172.306144 126.078082 
L 172.372401 127.567346 
L 172.51964 139.261733 
L 172.82148 156.351651 
L 172.850928 156.717864 
L 172.8951 155.790125 
L 173.012891 146.219771 
L 173.226387 135.550779 
L 173.38835 132.279281 
L 173.439884 133.62206 
L 173.550313 146.756883 
L 174.176079 246.903804 
L 174.227612 244.975084 
L 174.396937 223.978899 
L 174.676691 168.729635 
L 175.12577 77.176501 
L 175.192028 74.222387 
L 175.236199 76.17552 
L 175.339266 94.85236 
L 175.979756 244.291488 
L 175.99448 244.242659 
L 176.053375 241.312959 
L 176.318406 218.998409 
L 176.392025 221.000371 
L 176.517178 224.247455 
L 176.56135 223.563858 
L 176.855828 216.752305 
L 176.899999 217.509144 
L 176.995705 225.443749 
L 177.187115 241.972142 
L 177.231287 241.215302 
L 177.385888 233.476011 
L 177.525765 215.409526 
L 178.048463 114.310452 
L 178.122083 117.923749 
L 178.357665 127.88473 
L 178.431285 129.52048 
L 178.556438 140.384785 
L 178.784658 163.944458 
L 178.82883 162.55285 
L 179.211651 146.268599 
L 179.329442 142.87503 
L 179.373614 144.095738 
L 179.484043 156.937591 
L 180.205514 259.013232 
L 180.26441 259.892142 
L 180.308581 259.086474 
L 180.404287 252.641134 
L 180.536802 223.734757 
L 181.044776 88.407019 
L 181.13312 84.207782 
L 181.184653 85.965602 
L 181.309806 103.177591 
L 182.046001 215.116556 
L 182.082811 215.800153 
L 182.134345 214.506202 
L 182.281583 200.809853 
L 182.568699 176.835139 
L 182.605509 177.445493 
L 182.745386 186.576392 
L 182.951521 193.436774 
L 183.157655 197.782496 
L 183.209189 196.781515 
L 183.304894 188.871324 
L 183.614096 133.207019 
L 183.93066 96.292796 
L 183.945384 96.414866 
L 183.996917 99.759608 
L 184.777284 187.308817 
L 184.858265 187.040262 
L 184.917161 188.676011 
L 185.093848 197.318627 
L 185.160105 194.87721 
L 185.36624 179.349798 
L 185.439859 181.717973 
L 185.645994 200.492469 
L 185.82268 246.58642 
L 186.043539 286.405929 
L 186.058263 286.308272 
L 186.139244 282.743804 
L 186.330655 264.164621 
L 186.573599 202.177046 
L 187.125745 76.224349 
L 187.147831 76.614975 
L 187.221451 83.914812 
L 187.486481 144.754921 
L 187.906112 214.359717 
L 187.972369 216.630234 
L 188.023903 215.482768 
L 188.171142 202.66533 
L 188.531877 172.025548 
L 188.553963 172.416174 
L 188.642307 178.983586 
L 188.848441 195.341079 
L 188.892613 194.828381 
L 189.194453 185.453341 
L 189.945371 117.044839 
L 190.048439 120.829035 
L 190.328193 140.116229 
L 190.777271 202.323531 
L 190.806719 202.567673 
L 190.850891 201.90849 
L 190.953958 194.462169 
L 191.22635 173.050943 
L 191.248436 173.197428 
L 191.329418 175.663259 
L 191.763773 202.689744 
L 192.080336 232.670343 
L 192.16868 234.647891 
L 192.212851 233.891052 
L 192.301195 226.493559 
L 192.47052 187.357646 
L 192.993218 64.87176 
L 193.074199 60.452796 
L 193.125733 62.650071 
L 193.236162 82.816174 
L 193.788308 201.688763 
L 193.891375 205.814757 
L 193.935547 205.131161 
L 194.023891 203.568654 
L 194.068062 204.252251 
L 194.207939 212.406583 
L 194.384626 216.239608 
L 194.487693 219.047237 
L 194.634932 222.367564 
L 194.671742 222.074594 
L 194.870515 219.193722 
L 194.92941 219.974975 
L 195.128183 226.835357 
L 195.19444 224.418354 
L 195.319593 205.814757 
L 195.849654 117.45988 
L 195.864378 117.264567 
L 195.901187 118.558518 
L 196.018978 136.771488 
L 196.409162 191.385984 
L 196.718364 225.809962 
L 196.725725 225.785548 
L 196.777259 224.784567 
L 196.89505 216.654649 
L 197.513454 162.626093 
L 197.601797 159.794049 
L 197.645969 161.112414 
L 197.749036 175.907401 
L 198.072962 224.589253 
L 198.183391 227.006256 
L 198.220201 226.078518 
L 198.308544 215.922223 
L 198.507317 157.670016 
L 198.823881 86.160916 
L 198.956396 77.22533 
L 199.000567 78.348381 
L 199.110997 90.238082 
L 199.604247 180.375193 
L 199.935535 222.245493 
L 199.957621 222.147837 
L 200.185841 218.803095 
L 200.318356 207.548163 
L 200.472957 194.486583 
L 200.517129 195.853777 
L 200.708539 210.477864 
L 200.796883 207.108708 
L 200.93676 202.592087 
L 200.980931 202.860643 
L 201.010379 202.9583 
L 201.039827 202.640916 
L 201.113446 198.417264 
L 201.290133 168.900534 
L 201.790746 92.533014 
L 201.812832 93.070125 
L 201.930623 102.93345 
L 202.306082 150.394594 
L 202.652094 213.139008 
L 202.814056 226.786529 
L 202.850866 225.590234 
L 202.961295 210.599935 
L 203.322031 162.357537 
L 203.43246 156.644621 
L 203.476632 157.987401 
L 203.579699 172.245275 
L 203.940435 226.102932 
L 203.947796 226.054104 
L 203.99933 224.662496 
L 204.345342 203.934866 
L 204.558838 165.604621 
L 204.971107 102.76255 
L 205.007917 101.932469 
L 205.059451 103.665875 
L 205.16988 120.413995 
L 205.77356 232.499444 
L 205.96497 235.233831 
L 205.987056 235.087346 
L 206.060676 232.255302 
L 206.281534 209.232741 
L 206.391963 203.25127 
L 206.436135 204.325493 
L 206.598098 212.650725 
L 206.664355 210.306965 
L 206.922023 200.516883 
L 206.995643 195.634049 
L 207.466808 128.104458 
L 207.783371 85.794703 
L 207.805457 85.89236 
L 207.879077 88.162877 
L 208.00423 99.393395 
L 208.180917 143.216828 
L 208.541652 222.880262 
L 208.585824 223.978899 
L 208.644719 222.538463 
L 208.821406 209.57454 
L 209.263123 173.978681 
L 209.307295 173.807782 
L 209.351466 174.076338 
L 209.653306 179.471869 
L 209.822631 195.194594 
L 210.072937 209.843095 
L 210.095023 209.745439 
L 210.161281 206.937809 
L 210.279072 189.701406 
L 210.83858 92.899226 
L 210.926923 88.211706 
L 210.978457 90.189253 
L 211.10361 110.404185 
L 211.677842 210.819662 
L 211.861891 218.632196 
L 212.001768 226.200589 
L 212.045939 225.053123 
L 212.671705 193.290289 
L 212.752686 195.341079 
L 212.929373 202.885057 
L 212.980907 201.224894 
L 213.098698 184.867401 
L 213.628758 74.246801 
L 213.724463 80.960698 
L 213.960046 126.932578 
L 214.696241 281.425439 
L 214.725688 281.986965 
L 214.76986 280.766256 
L 214.872927 267.021079 
L 215.476607 168.729635 
L 215.587036 163.065548 
L 215.631208 164.139771 
L 216.014029 177.445493 
L 216.021391 177.421079 
L 216.080287 175.834158 
L 216.212802 162.943477 
L 216.764948 106.693232 
L 216.80912 107.694213 
L 216.926911 117.142496 
L 217.390714 181.449417 
L 217.736725 230.326583 
L 217.751449 230.375411 
L 217.795621 229.984785 
L 217.898688 225.883204 
L 218.038565 209.672196 
L 218.266785 172.904458 
L 218.333043 177.030452 
L 218.620159 203.446583 
L 218.649607 203.226856 
L 218.796846 199.125275 
L 218.914637 189.676992 
L 219.194391 136.625003 
L 219.60666 86.136501 
L 219.614022 86.087673 
L 219.636108 86.429471 
L 219.717089 93.241025 
L 220.004205 145.609417 
L 220.548989 258.354049 
L 220.644695 265.38533 
L 220.696228 263.065984 
L 220.828743 238.700643 
L 221.255736 167.338027 
L 221.425061 161.844839 
L 221.542852 160.355575 
L 221.594386 160.111433 
L 221.638558 160.526474 
L 221.697453 161.063586 
L 221.741625 160.624131 
L 221.859416 154.789144 
L 221.991931 149.833068 
L 222.036103 150.321351 
L 222.183342 153.690507 
L 222.242237 152.567455 
L 222.625059 136.307619 
L 222.764936 132.15721 
L 222.801745 132.816392 
L 222.882727 139.334975 
L 223.081499 182.157428 
L 223.486406 261.576719 
L 223.530578 259.965384 
L 224.215239 207.426093 
L 224.281497 208.744458 
L 224.539165 214.310888 
L 224.605423 214.384131 
L 224.642232 214.310888 
L 224.693766 213.847019 
L 224.774747 210.429035 
L 224.921986 190.214104 
L 225.371065 92.117973 
L 225.525666 72.244839 
L 225.555114 72.781951 
L 225.709715 82.156992 
L 225.849592 104.666856 
L 226.453272 257.279826 
L 226.556339 253.080589 
L 226.90235 224.589253 
L 227.498668 130.448218 
L 227.564926 128.592741 
L 227.623821 129.618136 
L 227.793146 139.823259 
L 228.006643 155.668054 
L 228.058176 154.276447 
L 228.183329 140.580098 
L 228.396826 122.122986 
L 228.418912 122.293886 
L 228.595598 126.981406 
L 228.71339 133.719717 
L 228.875352 162.381951 
L 229.339155 244.193831 
L 229.383327 245.683095 
L 229.43486 244.07176 
L 229.685167 220.12146 
L 229.861853 196.34206 
L 230.119522 161.478627 
L 230.141607 161.649526 
L 230.369828 164.750125 
L 230.804183 185.135956 
L 230.855716 184.061733 
L 230.951422 174.808763 
L 231.47412 89.456828 
L 231.577187 95.975411 
L 231.827494 138.626965 
L 232.210315 234.989689 
L 232.534241 286.918627 
L 232.585774 288.481134 
L 232.637308 286.625657 
L 232.747737 270.414649 
L 233.373503 154.837973 
L 233.380865 154.862387 
L 233.461846 156.69345 
L 233.653257 160.404403 
L 233.690066 160.282332 
L 233.771048 160.013777 
L 233.822582 160.135847 
L 233.844667 160.160262 
L 233.874115 159.964948 
L 233.947735 157.645602 
L 234.117059 142.850616 
L 234.249574 136.625003 
L 234.286384 137.064458 
L 234.396813 138.993177 
L 234.440985 138.382823 
L 234.551414 135.794921 
L 234.595586 136.917973 
L 234.691291 147.171924 
L 235.398038 240.824676 
L 235.4054 240.873504 
L 235.434848 240.482877 
L 235.523191 234.086365 
L 235.751412 196.268817 
L 236.112147 138.724621 
L 236.126871 138.822278 
L 236.185767 140.873068 
L 236.406625 159.574322 
L 236.620122 173.588054 
L 236.64957 173.148599 
L 236.737913 167.289199 
L 237.488832 97.513504 
L 237.533003 98.636556 
L 237.658156 109.427619 
L 237.849567 148.465875 
L 238.423799 285.893232 
L 238.475333 287.065112 
L 238.519504 285.429362 
L 238.622572 270.683204 
L 239.336681 140.653341 
L 239.778397 130.741188 
L 239.807845 130.594703 
L 239.852017 131.082986 
L 239.969808 133.255847 
L 240.021342 132.474594 
L 240.190667 126.956992 
L 240.256924 128.275357 
L 240.418887 132.206038 
L 240.470421 132.15721 
L 240.50723 132.596665 
L 240.588212 137.577155 
L 240.742813 166.630016 
L 241.228701 263.33454 
L 241.265511 264.21345 
L 241.317045 262.528872 
L 241.44956 245.585439 
L 242.031154 162.748163 
L 242.24465 155.985439 
L 242.296184 155.716883 
L 242.332993 156.253995 
L 242.413975 161.136828 
L 242.782072 199.515902 
L 242.877778 196.610616 
L 243.054464 181.620316 
L 243.459371 126.346638 
L 243.547715 129.52048 
L 243.687592 146.268599 
L 244.011518 222.538463 
L 244.291272 268.632414 
L 244.313357 268.534757 
L 244.409063 265.922441 
L 244.534216 257.670452 
L 244.703541 224.662496 
L 245.292497 115.824131 
L 245.513355 107.987183 
L 245.542803 108.084839 
L 245.616422 110.306529 
L 245.829919 121.756774 
L 245.888814 119.730398 
L 246.124397 99.564294 
L 246.21274 105.130725 
L 246.485132 150.589907 
L 247.147707 260.844294 
L 247.199241 262.309144 
L 247.250775 260.429253 
L 247.523167 233.93988 
L 247.714577 185.91721 
L 248.001693 134.427728 
L 248.163656 129.032196 
L 248.193104 129.325166 
L 248.266724 133.231433 
L 248.458134 159.891706 
L 248.759974 192.875248 
L 248.78206 192.582278 
L 248.855679 187.040262 
L 249.371016 124.393504 
L 249.451997 128.055629 
L 249.672856 157.450289 
L 250.386965 265.556229 
L 250.416412 264.970289 
L 250.497394 257.377482 
L 250.696166 209.672196 
L 251.042178 151.224676 
L 251.167331 143.338899 
L 251.211503 143.924839 
L 251.344018 147.171924 
L 251.388189 146.195357 
L 251.528066 135.599608 
L 251.734201 127.152305 
L 251.910888 128.031215 
L 251.991869 131.595684 
L 252.301071 163.602659 
L 252.492482 188.944567 
L 253.125609 288.627619 
L 253.132971 288.652033 
L 253.155057 288.407891 
L 253.228676 284.916665 
L 253.368553 264.604076 
L 253.648308 183.378136 
L 253.986957 104.056501 
L 254.016405 103.690289 
L 254.067939 104.593613 
L 254.229901 113.309471 
L 254.774686 163.13879 
L 254.848305 162.479608 
L 255.024992 158.695411 
L 255.150145 147.806692 
L 255.422537 117.240153 
L 255.474071 118.729417 
L 255.599224 131.522441 
L 255.842168 185.306856 
L 256.136646 230.936937 
L 256.261799 236.234812 
L 256.305971 235.355902 
L 256.409038 225.639063 
L 256.975908 160.599717 
L 257.2483 141.459008 
L 257.535416 131.86424 
L 257.572226 131.717755 
L 257.616397 132.035139 
L 257.712103 134.671869 
L 257.874066 138.333995 
L 257.918237 138.163095 
L 257.955047 138.065439 
L 257.991857 138.382823 
L 258.0802 141.532251 
L 258.38204 164.676883 
L 258.595537 199.930943 
L 259.051977 284.526038 
L 259.118235 281.205711 
L 259.280198 254.37454 
L 260.090012 81.571052 
L 260.148908 83.450943 
L 260.259337 96.585766 
L 260.818845 188.383041 
L 260.87774 187.528545 
L 260.98817 181.156447 
L 261.231114 166.288218 
L 261.260562 166.605602 
L 261.341543 170.170071 
L 261.55504 192.704349 
L 262.055652 239.945766 
L 262.107186 240.385221 
L 262.166081 239.945766 
L 262.276511 237.16255 
L 262.409026 226.762114 
L 263.307183 132.767564 
L 263.388165 130.716774 
L 263.439698 131.693341 
L 263.609023 138.041025 
L 263.675281 136.283204 
L 264.065464 115.164948 
L 264.146445 118.656174 
L 264.301046 139.994158 
L 265.037241 259.35503 
L 265.059327 259.086474 
L 265.162394 253.6177 
L 265.316995 233.476011 
L 265.537854 164.066529 
L 265.876503 75.931379 
L 265.942761 73.074921 
L 265.994294 74.613014 
L 266.148895 91.068163 
L 266.966071 196.63503 
L 267.010243 195.707292 
L 267.157482 189.652578 
L 267.216378 191.312741 
L 267.871591 234.476992 
L 268.040916 234.110779 
L 268.136621 236.015084 
L 268.180793 235.233831 
L 268.276498 226.713286 
L 268.607786 165.140752 
L 268.92435 124.07612 
L 268.939074 124.149362 
L 269.005331 127.518518 
L 269.196742 139.823259 
L 269.248275 139.017591 
L 269.366067 136.991215 
L 269.4176 137.552741 
L 269.528029 138.944349 
L 269.586925 138.60255 
L 269.660544 138.114267 
L 269.697354 138.553722 
L 269.800421 143.509798 
L 270.080175 156.009853 
L 270.212691 162.137809 
L 270.404101 185.648654 
L 270.661769 245.219226 
L 270.934161 294.682332 
L 270.978333 295.488 
L 271.022505 294.511433 
L 271.11821 285.624676 
L 271.302259 241.898899 
L 271.898577 96.195139 
L 271.942748 95.877755 
L 271.994282 96.390452 
L 272.097349 99.930507 
L 272.222502 114.188381 
L 272.737839 181.327346 
L 272.943973 189.042223 
L 272.951335 189.017809 
L 273.024955 187.797101 
L 273.400414 176.688654 
L 273.466672 178.71503 
L 273.584463 195.17018 
L 273.797959 221.732796 
L 273.827407 221.488654 
L 274.107161 213.96909 
L 274.269124 187.186747 
L 274.666669 130.033177 
L 274.894889 114.896392 
L 275.064214 112.577046 
L 275.108386 113.504785 
L 275.196729 120.829035 
L 275.638446 166.23939 
L 275.660532 166.044076 
L 275.741513 162.943477 
L 275.947648 152.689526 
L 275.999182 153.861406 
L 276.153783 165.140752 
L 276.374641 195.219008 
L 276.919425 285.307292 
L 276.934149 285.234049 
L 277.000407 281.156883 
L 277.155008 252.006365 
L 277.964822 81.693123 
L 278.031079 79.617918 
L 278.082613 81.32691 
L 278.18568 97.342605 
L 278.723102 198.539335 
L 278.745188 198.661406 
L 278.774636 198.051052 
L 278.943961 191.801025 
L 279.01758 193.363531 
L 279.577088 222.245493 
L 279.709603 226.322659 
L 279.739051 226.078518 
L 280.062977 220.512087 
L 280.173406 209.305984 
L 280.762362 125.882768 
L 280.799172 126.468708 
L 280.902239 133.939444 
L 281.454385 180.985548 
L 281.469109 180.936719 
L 281.528005 179.374213 
L 281.704691 166.190561 
L 281.969722 153.080153 
L 281.991807 153.055738 
L 282.013893 153.226638 
L 282.094875 155.741297 
L 282.22739 168.851706 
L 282.897327 254.105984 
L 282.926775 254.78958 
L 282.978308 253.129417 
L 283.110823 237.16255 
L 283.316958 184.379117 
L 283.810209 54.202768 
L 283.85438 53.568 
L 283.905914 54.520153 
L 284.008981 61.868817 
L 284.215116 98.392414 
L 284.848243 208.060861 
L 285.385665 218.436883 
L 285.658057 243.217264 
L 285.761125 239.140098 
L 286.033517 216.752305 
L 286.342719 148.490289 
L 286.637197 101.2977 
L 286.659282 101.59067 
L 286.732902 106.839717 
L 286.961122 143.485384 
L 287.29241 185.526583 
L 287.476459 192.582278 
L 287.498544 192.484621 
L 287.608974 190.336174 
L 287.82247 182.889853 
L 288.131672 168.192523 
L 288.190568 168.070452 
L 288.212653 168.192523 
L 288.271549 170.121243 
L 288.381978 184.28146 
L 288.845781 258.451706 
L 288.875229 257.89018 
L 288.970934 249.687019 
L 289.272774 195.121351 
L 289.905901 73.83176 
L 289.920625 74.027074 
L 289.979521 78.69018 
L 290.16357 119.120044 
L 290.708354 221.390997 
L 290.804059 223.22206 
L 290.855593 223.026747 
L 291.120623 221.806038 
L 291.194242 220.975956 
L 291.238414 221.635139 
L 291.341481 229.203531 
L 291.635959 254.081569 
L 291.672769 253.373559 
L 291.768474 246.098136 
L 291.945161 210.941733 
L 292.541479 75.223368 
L 292.600374 73.856174 
L 292.651908 75.076883 
L 292.843319 86.942169 
L 292.990558 112.918845 
L 293.469084 202.689744 
L 293.505894 203.446583 
L 293.557428 201.957319 
L 294.087488 176.859553 
L 294.116936 176.615411 
L 294.153745 177.372251 
L 294.278899 186.747292 
L 294.823683 231.449635 
L 294.875216 230.302169 
L 295.059265 216.825548 
L 295.235952 191.65454 
L 295.729202 105.448109 
L 295.839632 99.686365 
L 295.883803 101.126801 
L 295.986871 115.40909 
L 296.568464 218.168327 
L 296.575826 218.119499 
L 296.634722 215.897809 
L 296.781961 209.916338 
L 296.826133 210.648763 
L 297.091163 220.438845 
L 297.503432 242.777809 
L 297.547604 242.973123 
L 297.577051 242.680153 
L 297.665395 238.139117 
L 297.871529 209.818681 
L 298.173369 140.116229 
L 298.497295 77.982169 
L 298.534105 77.274158 
L 298.585638 78.494866 
L 298.696067 89.676556 
L 298.990545 154.129962 
L 299.46171 225.150779 
L 299.49852 225.443749 
L 299.550053 225.004294 
L 299.778274 220.609744 
L 299.954961 204.545221 
L 300.050666 200.492469 
L 300.102199 201.49345 
L 300.308334 208.182932 
L 300.36723 207.767891 
L 300.440849 207.255193 
L 300.485021 207.694649 
L 300.573364 211.405602 
L 300.757413 221.561896 
L 300.808946 220.414431 
L 300.985633 207.328436 
L 301.132872 183.060752 
L 301.618761 81.03394 
L 301.640847 80.765384 
L 301.685018 81.790779 
L 301.788086 91.287891 
L 302.730415 202.128218 
L 302.811396 202.445602 
L 302.848206 202.225875 
L 302.929188 200.419226 
L 303.069065 197.391869 
L 303.113236 198.002223 
L 303.231027 203.861624 
L 303.518143 225.516992 
L 303.591763 223.295302 
L 303.753726 208.182932 
L 303.974584 163.407346 
L 304.342682 98.734213 
L 304.497282 91.287891 
L 304.534092 91.898245 
L 304.622436 99.124839 
L 304.821208 140.091815 
L 305.255563 222.123422 
L 305.461698 237.089308 
L 305.62366 240.922332 
L 305.667832 239.774866 
L 305.778261 227.445711 
L 306.116911 190.31176 
L 306.175807 189.359608 
L 306.219978 190.165275 
L 306.367217 198.514921 
L 306.654333 217.118518 
L 306.705867 215.360698 
L 306.845744 198.954376 
L 307.655558 98.441243 
L 307.692368 98.026202 
L 307.729178 98.929526 
L 307.832245 109.37879 
L 308.619973 215.824567 
L 308.752488 219.730834 
L 309.046966 228.910561 
L 309.083776 228.690834 
L 309.275187 227.274812 
L 309.32672 227.348054 
L 309.459235 227.274812 
L 309.518131 226.298245 
L 309.613836 219.682005 
L 309.805247 184.965057 
L 310.364755 86.307401 
L 310.489908 81.864022 
L 310.526718 82.327891 
L 310.615061 86.673613 
L 310.747576 106.180534 
L 311.32917 235.600044 
L 311.410152 231.327564 
L 311.807697 185.843967 
L 311.977022 174.344894 
L 311.999107 174.44255 
L 312.065365 174.882005 
L 312.102175 174.515793 
L 312.205242 170.316556 
L 312.323033 166.434703 
L 312.374567 167.338027 
L 312.602787 177.054866 
L 312.683769 175.077319 
L 313.059228 156.424894 
L 313.412601 116.165929 
L 313.471497 115.457918 
L 313.523031 115.99503 
L 313.63346 120.85345 
L 313.795423 140.555684 
L 314.391741 219.486692 
L 314.472722 220.853886 
L 314.524256 220.365602 
L 314.627323 219.315793 
L 314.671495 219.755248 
L 314.892353 225.199608 
L 315.091126 232.523858 
L 315.150021 231.034594 
L 315.311984 224.808981 
L 315.37088 225.785548 
L 315.437137 226.810943 
L 315.481309 225.956447 
L 315.577014 218.265984 
L 315.908302 167.630997 
L 316.39419 62.796556 
L 316.431 61.819989 
L 316.475172 63.626638 
L 316.585601 82.987074 
L 317.351244 255.692905 
L 317.498483 257.768109 
L 317.542654 256.840371 
L 317.630998 248.197755 
L 318.146334 183.500207 
L 318.345107 179.130071 
L 318.499708 176.590997 
L 318.970872 151.54206 
L 319.257988 124.539989 
L 319.294798 124.930616 
L 319.419951 129.471651 
L 319.56719 142.167019 
L 320.053079 190.653559 
L 320.354918 203.959281 
L 320.428538 205.765929 
L 320.480072 204.789362 
L 321.032218 179.984567 
L 321.120561 183.69552 
L 321.451849 212.479826 
L 321.547554 209.037428 
L 321.694793 193.754158 
L 321.893566 141.727564 
L 322.210129 78.079826 
L 322.372092 62.796556 
L 322.408902 63.748708 
L 322.511969 75.321025 
L 322.74019 132.059553 
L 323.255526 262.333559 
L 323.454299 268.461515 
L 323.49847 267.43612 
L 323.601538 257.987837 
L 324.13896 199.930943 
L 324.33037 190.043204 
L 325.015032 135.941406 
L 325.022393 135.96582 
L 325.103375 136.576174 
L 325.471472 144.461951 
L 325.596625 152.689526 
L 325.83957 187.504131 
L 326.170857 228.471106 
L 326.222391 229.398845 
L 326.273925 228.349035 
L 326.391716 217.948599 
L 326.723003 189.676992 
L 326.914414 183.671106 
L 326.97331 184.769744 
L 327.16472 195.804948 
L 327.437112 206.693668 
L 327.518094 206.058899 
L 327.591713 203.763967 
L 327.694781 192.338136 
L 328.320546 84.622823 
L 328.379442 86.600371 
L 328.504595 101.761569 
L 328.754901 165.043095 
L 329.13036 250.272959 
L 329.218704 252.250507 
L 329.262876 251.835466 
L 329.410115 247.611815 
L 329.54263 235.038518 
L 329.954899 191.019771 
L 330.499683 136.332033 
L 331.147534 103.861188 
L 331.176982 104.154158 
L 331.280049 108.353395 
L 331.442012 125.150343 
L 332.244465 233.793395 
L 332.26655 234.037537 
L 332.30336 232.938899 
L 332.406427 220.682986 
L 332.730353 185.453341 
L 332.90704 180.790234 
L 332.929126 180.985548 
L 333.002745 183.182823 
L 333.186794 197.855738 
L 333.415014 208.402659 
L 333.481272 208.646801 
L 333.518082 208.378245 
L 333.591701 205.985657 
L 333.70213 192.753177 
L 334.246914 92.728327 
L 334.30581 96.390452 
L 334.489859 132.059553 
L 335.203968 252.177264 
L 335.351207 258.061079 
L 335.388016 257.328654 
L 335.483722 248.783695 
L 336.381879 141.41018 
L 336.779424 118.509689 
L 336.904578 118.436447 
L 337.051817 117.020425 
L 337.10335 117.655193 
L 337.213779 122.684512 
L 337.383104 141.629907 
L 338.134023 243.656719 
L 338.148747 243.754376 
L 338.185557 243.070779 
L 338.2739 235.160589 
L 338.855494 156.571379 
L 338.914389 158.793068 
L 339.356106 192.216065 
L 339.437088 189.261951 
L 339.576965 170.536283 
L 340.114387 89.945112 
L 340.210092 84.915793 
L 340.254264 86.258572 
L 340.438313 103.543804 
L 340.614999 135.038082 
L 341.14506 248.588381 
L 341.203955 249.125493 
L 341.248127 248.686038 
L 341.365918 245.048327 
L 341.527881 231.913504 
L 342.374505 148.734431 
L 342.698431 125.248 
L 342.816222 126.371052 
L 342.853032 126.273395 
L 342.926651 125.785112 
L 342.970823 126.224567 
L 343.066528 131.400371 
L 343.316834 163.675902 
L 343.559779 214.652687 
L 343.883704 274.93127 
L 343.935238 276.005493 
L 343.986772 274.980098 
L 344.097201 265.605057 
L 344.28125 226.664458 
L 344.634623 161.307728 
L 344.781862 149.955139 
L 344.818672 150.907292 
L 345.481247 183.86642 
L 345.547505 182.377155 
L 345.665296 170.878082 
L 346.165908 101.859226 
L 346.239528 104.69127 
L 346.445662 126.371052 
L 346.659159 174.344894 
L 347.071428 256.742714 
L 347.152409 258.47612 
L 347.203943 257.914594 
L 347.30701 254.447782 
L 347.446887 240.458463 
L 348.300873 139.432632 
L 348.941363 87.259553 
L 349.022344 91.727346 
L 349.199031 125.125929 
L 349.854244 258.842332 
L 349.883692 258.671433 
L 349.979397 256.107946 
L 350.111912 245.023913 
L 350.303323 202.616501 
L 350.722954 122.977482 
L 350.767126 121.830016 
L 350.818659 123.343695 
L 351.179395 149.686583 
L 351.54013 187.08909 
L 351.584302 186.161351 
L 351.746265 175.419117 
L 352.099638 145.487346 
L 352.195344 149.49127 
L 352.489822 177.274594 
L 353.027244 253.105003 
L 353.108225 255.106965 
L 353.159759 254.228054 
L 353.27755 246.830561 
L 353.57939 209.98958 
L 353.888592 182.670125 
L 354.219879 168.216937 
L 354.418652 131.522441 
L 354.705768 89.432414 
L 354.779387 88.284948 
L 354.830921 88.944131 
L 354.919264 93.875793 
L 355.103313 121.707946 
L 355.419877 196.683858 
L 355.729079 266.532796 
L 355.898403 272.514267 
L 355.920489 272.343368 
L 355.986747 269.608981 
L 356.1119 252.201678 
L 356.781837 115.189362 
L 356.884905 117.191324 
L 357.024782 123.612251 
L 357.643185 165.922005 
L 357.702081 166.385875 
L 357.73889 165.873177 
L 357.856682 159.91612 
L 358.084902 151.419989 
L 358.129074 151.371161 
L 358.158522 151.493232 
L 358.232141 152.591869 
L 358.34257 159.086038 
L 358.548705 190.336174 
L 358.865269 227.49454 
L 358.894716 227.90958 
L 358.938888 226.933014 
L 359.049317 216.117537 
L 359.520482 164.164185 
L 359.579377 163.700316 
L 359.638273 163.944458 
L 359.675083 163.871215 
L 359.756064 162.113395 
L 359.925389 157.987401 
L 359.962199 158.329199 
L 360.094714 160.306747 
L 360.146247 159.403422 
L 360.256677 150.736392 
L 360.713117 109.354376 
L 360.801461 105.814322 
L 360.845633 107.010616 
L 360.956062 119.901297 
L 361.397779 211.03939 
L 361.758514 282.13345 
L 361.839496 285.819989 
L 361.891029 284.257482 
L 362.016182 270.512305 
L 362.421089 190.702387 
L 362.722929 137.796883 
L 362.980597 126.859335 
L 362.995321 126.956992 
L 363.061579 129.276338 
L 363.245628 147.85552 
L 363.532744 172.367346 
L 363.554829 172.049962 
L 363.628449 167.557755 
L 363.945013 142.118191 
L 363.989184 142.87503 
L 364.08489 149.418027 
L 364.34992 190.360589 
L 364.740103 231.30315 
L 364.791637 232.401787 
L 364.84317 231.425221 
L 364.968323 221.537482 
L 365.321697 169.388817 
L 365.476298 157.694431 
L 365.505746 157.987401 
L 365.623537 160.111433 
L 365.67507 159.379008 
L 365.859119 154.862387 
L 365.918015 155.326256 
L 365.991634 155.863368 
L 366.035806 155.497155 
L 366.146235 151.957101 
L 366.558504 129.715793 
L 366.749915 115.677646 
L 366.794087 117.069253 
L 366.926602 132.889635 
L 367.294699 204.325493 
L 367.603901 253.275902 
L 367.758502 261.649962 
L 367.795311 261.039608 
L 367.898379 253.422387 
L 368.163409 212.821624 
L 368.715555 91.434376 
L 368.81126 94.998845 
L 369.017395 117.850507 
L 369.400216 157.328218 
L 369.495921 158.963967 
L 369.540093 158.475684 
L 369.878743 153.59285 
L 369.886105 153.617264 
L 369.937638 154.667074 
L 370.033344 162.919063 
L 370.732729 245.53661 
L 370.747453 245.41454 
L 370.821072 243.217264 
L 371.027207 227.763095 
L 371.68242 173.221842 
L 371.733954 172.538245 
L 371.785487 173.368327 
L 371.962174 178.104676 
L 372.013708 177.274594 
L 372.124137 170.682768 
L 372.617387 123.368109 
L 372.705731 127.665003 
L 373.15481 175.809744 
L 373.72168 283.232087 
L 373.780575 280.863913 
L 373.898366 262.040589 
L 374.332721 139.432632 
L 374.627199 85.648218 
L 374.664009 85.086692 
L 374.715543 86.234158 
L 374.833334 96.048654 
L 375.65051 182.914267 
L 375.856645 187.601787 
L 375.922902 188.700425 
L 376.033331 194.413341 
L 376.592839 232.816828 
L 376.637011 232.133232 
L 376.732716 225.785548 
L 377.019832 183.915248 
L 377.306948 149.369199 
L 377.336396 149.735411 
L 377.549893 156.620207 
L 377.630874 155.008872 
L 377.770751 152.054757 
L 377.814923 152.616283 
L 377.976886 156.620207 
L 378.043143 155.448327 
L 378.41124 138.114267 
L 378.676271 110.575084 
L 378.71308 111.13661 
L 378.838233 118.753831 
L 379.029644 143.485384 
L 379.35357 231.449635 
L 379.692219 293.901079 
L 379.699581 293.827837 
L 379.765839 290.019226 
L 379.935164 262.28473 
L 380.71553 101.151215 
L 380.744978 101.493014 
L 380.833321 106.351433 
L 381.05418 134.623041 
L 381.58424 199.198518 
L 381.878718 216.141951 
L 382.202644 250.346202 
L 382.239453 250.004403 
L 382.349883 245.609853 
L 382.578103 226.981842 
L 383.041906 153.275466 
L 383.314298 113.236229 
L 383.365832 112.699117 
L 383.417365 113.236229 
L 383.535156 117.581951 
L 383.697119 133.841787 
L 384.11675 177.909362 
L 384.19037 180.643749 
L 384.241903 179.105657 
L 384.359694 165.336065 
L 384.713068 127.274376 
L 384.742516 127.103477 
L 384.779326 127.665003 
L 384.875031 133.719717 
L 385.044356 162.992305 
L 385.611226 264.579662 
L 385.62595 264.50642 
L 385.684845 262.431215 
L 385.876256 244.608872 
L 386.097114 199.882114 
L 386.590365 102.884621 
L 386.605089 102.860207 
L 386.627174 103.031106 
L 386.715518 105.594594 
L 387.356007 140.409199 
L 388.114288 222.001351 
L 388.394042 244.95067 
L 388.42349 244.437973 
L 388.519195 236.967237 
L 388.850483 184.501188 
L 389.387905 96.561351 
L 389.395267 96.634594 
L 389.461524 99.881678 
L 389.59404 120.780207 
L 390.102014 209.818681 
L 390.153548 211.03939 
L 390.205081 209.843095 
L 390.403854 195.46315 
L 390.749865 180.546093 
L 390.830847 179.325384 
L 390.875018 180.033395 
L 390.978086 186.747292 
L 391.25784 226.859771 
L 391.544956 258.036665 
L 391.567042 257.816937 
L 391.648023 252.934104 
L 391.817348 225.468163 
L 392.435751 117.704022 
L 392.678696 102.030125 
L 392.744953 103.128763 
L 392.914278 111.453995 
L 393.355995 149.881896 
L 393.738816 183.353722 
L 394.136361 230.497482 
L 394.408754 254.032741 
L 394.438201 253.666529 
L 394.526545 248.441896 
L 394.703231 222.440807 
L 394.990347 138.431651 
L 395.22593 101.908054 
L 395.336359 99.857264 
L 395.373169 100.199063 
L 395.446788 103.592632 
L 395.601389 125.248 
L 396.138811 204.056937 
L 396.168259 204.545221 
L 396.212431 203.519826 
L 396.330222 192.264894 
L 396.654148 163.13879 
L 396.676234 163.089962 
L 396.698319 163.285275 
L 396.764577 165.531379 
L 396.904454 180.497264 
L 397.272551 217.48473 
L 397.4566 227.274812 
L 397.486048 226.981842 
L 397.603839 221.708381 
L 397.787888 202.689744 
L 398.487273 108.939335 
L 398.487273 108.939335 
" clip-path="url(#pf994398a03)" style="fill: none; stroke: #1f77b4; stroke-width: 1.5; stroke-linecap: square"/>
   </g>
   <g id="patch_3">
    <path d="M 57.6 307.584 
L 57.6 41.472 
" style="fill: none; stroke: #000000; stroke-width: 0.8; stroke-linejoin: miter; stroke-linecap: square"/>
   </g>
   <g id="patch_4">
    <path d="M 414.72 307.584 
L 414.72 41.472 
" style="fill: none; stroke: #000000; stroke-width: 0.8; stroke-linejoin: miter; stroke-linecap: square"/>
   </g>
   <g id="patch_5">
    <path d="M 57.6 307.584 
L 414.72 307.584 
" style="fill: none; stroke: #000000; stroke-width: 0.8; stroke-linejoin: miter; stroke-linecap: square"/>
   </g>
   <g id="patch_6">
    <path d="M 57.6 41.472 
L 414.72 41.472 
" style="fill: none; stroke: #000000; stroke-width: 0.8; stroke-linejoin: miter; stroke-linecap: square"/>
   </g>
   <g id="text_14">
    <text style="font: 12px 'IPAexGothic'; text-anchor: middle" x="236.16" y="35.472" transform="rotate(-0 236.16 35.472)">"015_A1.wav"の波形グラフ</text>
   </g>
  </g>
 </g>
 <defs>
  <clipPath id="pf994398a03">
   <rect x="57.6" y="41.472" width="357.12" height="266.112"/>
  </clipPath>
 </defs>
</svg>
