<?xml version="1.0" encoding="utf-8" standalone="no"?>
<!DOCTYPE svg PUBLIC "-//W3C//DTD SVG 1.1//EN"
  "http://www.w3.org/Graphics/SVG/1.1/DTD/svg11.dtd">
<svg xmlns:xlink="http://www.w3.org/1999/xlink" width="460.8pt" height="345.6pt" viewBox="0 0 460.8 345.6" xmlns="http://www.w3.org/2000/svg" version="1.1">
 <metadata>
  <rdf:RDF xmlns:dc="http://purl.org/dc/elements/1.1/" xmlns:cc="http://creativecommons.org/ns#" xmlns:rdf="http://www.w3.org/1999/02/22-rdf-syntax-ns#">
   <cc:Work>
    <dc:type rdf:resource="http://purl.org/dc/dcmitype/StillImage"/>
    <dc:date>2022-11-28T12:34:10.171429</dc:date>
    <dc:format>image/svg+xml</dc:format>
    <dc:creator>
     <cc:Agent>
      <dc:title>Matplotlib v3.6.2, https://matplotlib.org/</dc:title>
     </cc:Agent>
    </dc:creator>
   </cc:Work>
  </rdf:RDF>
 </metadata>
 <defs>
  <style type="text/css">*{stroke-linejoin: round; stroke-linecap: butt}</style>
 </defs>
 <g id="figure_1">
  <g id="patch_1">
   <path d="M 0 345.6 
L 460.8 345.6 
L 460.8 0 
L 0 0 
z
" style="fill: #ffffff"/>
  </g>
  <g id="axes_1">
   <g id="patch_2">
    <path d="M 57.6 307.584 
L 414.72 307.584 
L 414.72 41.472 
L 57.6 41.472 
z
" style="fill: #ffffff"/>
   </g>
   <g id="matplotlib.axis_1">
    <g id="xtick_1">
     <g id="line2d_1">
      <defs>
       <path id="m4672788439" d="M 0 0 
L 0 3.5 
" style="stroke: #000000; stroke-width: 0.8"/>
      </defs>
      <g>
       <use xlink:href="#m4672788439" x="73.832727" y="307.584" style="stroke: #000000; stroke-width: 0.8"/>
      </g>
     </g>
     <g id="text_1">
      <text style="font: 10px 'IPAexGothic'; text-anchor: middle" x="73.832727" y="322.074625" transform="rotate(-0 73.832727 322.074625)">0.0</text>
     </g>
    </g>
    <g id="xtick_2">
     <g id="line2d_2">
      <g>
       <use xlink:href="#m4672788439" x="138.765109" y="307.584" style="stroke: #000000; stroke-width: 0.8"/>
      </g>
     </g>
     <g id="text_2">
      <text style="font: 10px 'IPAexGothic'; text-anchor: middle" x="138.765109" y="322.074625" transform="rotate(-0 138.765109 322.074625)">0.2</text>
     </g>
    </g>
    <g id="xtick_3">
     <g id="line2d_3">
      <g>
       <use xlink:href="#m4672788439" x="203.69749" y="307.584" style="stroke: #000000; stroke-width: 0.8"/>
      </g>
     </g>
     <g id="text_3">
      <text style="font: 10px 'IPAexGothic'; text-anchor: middle" x="203.69749" y="322.074625" transform="rotate(-0 203.69749 322.074625)">0.4</text>
     </g>
    </g>
    <g id="xtick_4">
     <g id="line2d_4">
      <g>
       <use xlink:href="#m4672788439" x="268.629872" y="307.584" style="stroke: #000000; stroke-width: 0.8"/>
      </g>
     </g>
     <g id="text_4">
      <text style="font: 10px 'IPAexGothic'; text-anchor: middle" x="268.629872" y="322.074625" transform="rotate(-0 268.629872 322.074625)">0.6</text>
     </g>
    </g>
    <g id="xtick_5">
     <g id="line2d_5">
      <g>
       <use xlink:href="#m4672788439" x="333.562253" y="307.584" style="stroke: #000000; stroke-width: 0.8"/>
      </g>
     </g>
     <g id="text_5">
      <text style="font: 10px 'IPAexGothic'; text-anchor: middle" x="333.562253" y="322.074625" transform="rotate(-0 333.562253 322.074625)">0.8</text>
     </g>
    </g>
    <g id="xtick_6">
     <g id="line2d_6">
      <g>
       <use xlink:href="#m4672788439" x="398.494635" y="307.584" style="stroke: #000000; stroke-width: 0.8"/>
      </g>
     </g>
     <g id="text_6">
      <text style="font: 10px 'IPAexGothic'; text-anchor: middle" x="398.494635" y="322.074625" transform="rotate(-0 398.494635 322.074625)">1.0</text>
     </g>
    </g>
    <g id="text_7">
     <text style="font: 10px 'IPAexGothic'; text-anchor: middle" x="236.16" y="335.924625" transform="rotate(-0 236.16 335.924625)">時間[s]</text>
    </g>
   </g>
   <g id="matplotlib.axis_2">
    <g id="ytick_1">
     <g id="line2d_7">
      <defs>
       <path id="m98fc585326" d="M 0 0 
L -3.5 0 
" style="stroke: #000000; stroke-width: 0.8"/>
      </defs>
      <g>
       <use xlink:href="#m98fc585326" x="57.6" y="275.248908" style="stroke: #000000; stroke-width: 0.8"/>
      </g>
     </g>
     <g id="text_8">
      <text style="font: 10px 'IPAexGothic'; text-anchor: end" x="50.6" y="278.99422" transform="rotate(-0 50.6 278.99422)">−4000</text>
     </g>
    </g>
    <g id="ytick_2">
     <g id="line2d_8">
      <g>
       <use xlink:href="#m98fc585326" x="57.6" y="223.945758" style="stroke: #000000; stroke-width: 0.8"/>
      </g>
     </g>
     <g id="text_9">
      <text style="font: 10px 'IPAexGothic'; text-anchor: end" x="50.6" y="227.691071" transform="rotate(-0 50.6 227.691071)">−2000</text>
     </g>
    </g>
    <g id="ytick_3">
     <g id="line2d_9">
      <g>
       <use xlink:href="#m98fc585326" x="57.6" y="172.642609" style="stroke: #000000; stroke-width: 0.8"/>
      </g>
     </g>
     <g id="text_10">
      <text style="font: 10px 'IPAexGothic'; text-anchor: end" x="50.6" y="176.387922" transform="rotate(-0 50.6 176.387922)">0</text>
     </g>
    </g>
    <g id="ytick_4">
     <g id="line2d_10">
      <g>
       <use xlink:href="#m98fc585326" x="57.6" y="121.33946" style="stroke: #000000; stroke-width: 0.8"/>
      </g>
     </g>
     <g id="text_11">
      <text style="font: 10px 'IPAexGothic'; text-anchor: end" x="50.6" y="125.084773" transform="rotate(-0 50.6 125.084773)">2000</text>
     </g>
    </g>
    <g id="ytick_5">
     <g id="line2d_11">
      <g>
       <use xlink:href="#m98fc585326" x="57.6" y="70.036311" style="stroke: #000000; stroke-width: 0.8"/>
      </g>
     </g>
     <g id="text_12">
      <text style="font: 10px 'IPAexGothic'; text-anchor: end" x="50.6" y="73.781623" transform="rotate(-0 50.6 73.781623)">4000</text>
     </g>
    </g>
    <g id="text_13">
     <text style="font: 10px 'IPAexGothic'; text-anchor: middle" x="12.723438" y="174.528" transform="rotate(-90 12.723438 174.528)">振幅</text>
    </g>
   </g>
   <g id="line2d_12">
    <path d="M 73.832727 171.950017 
L 73.862175 172.924777 
L 73.950518 169.07704 
L 74.06831 163.279785 
L 74.127205 163.561952 
L 74.222911 156.430814 
L 74.473217 145.734108 
L 74.546836 146.657564 
L 74.591008 145.811062 
L 74.63518 144.605438 
L 74.686713 145.913669 
L 74.694075 145.888017 
L 75.312479 176.541649 
L 75.319841 176.464694 
L 75.356651 176.669906 
L 75.386098 176.002966 
L 75.989778 151.48006 
L 75.99714 151.582667 
L 76.137017 149.274025 
L 76.173827 149.966617 
L 76.284256 155.250842 
L 76.821678 218.020245 
L 76.939469 232.7699 
L 76.983641 231.512973 
L 77.005727 235.899392 
L 77.049899 228.434784 
L 77.09407 231.410367 
L 77.454806 196.293361 
L 77.46953 197.037257 
L 77.476892 197.42203 
L 77.506339 193.522991 
L 77.683026 179.440277 
L 77.705112 181.671964 
L 77.719836 182.621072 
L 77.749284 176.054269 
L 77.778731 171.077863 
L 77.837627 180.851113 
L 77.889161 177.901182 
L 77.918608 181.056326 
L 78.058485 189.213526 
L 78.146829 195.831633 
L 78.397135 216.660711 
L 78.411859 215.737255 
L 78.573822 208.503511 
L 78.625355 209.350013 
L 78.728423 198.576351 
L 79.037625 174.515174 
L 79.089158 169.769633 
L 79.280569 160.458111 
L 79.295293 160.329853 
L 79.317379 161.40722 
L 79.36155 162.71545 
L 79.442532 162.305025 
L 79.545599 161.25331 
L 79.560323 162.125464 
L 79.810629 175.464282 
L 80.046211 184.981017 
L 80.105107 183.57018 
L 80.200812 181.415448 
L 80.23026 181.851525 
L 80.252346 182.59542 
L 80.318603 180.671552 
L 80.590996 166.819702 
L 80.627805 167.460991 
L 80.811854 162.356328 
L 80.694063 167.717507 
L 80.988541 163.074572 
L 81.047436 163.177178 
L 81.121056 165.101046 
L 81.13578 165.280607 
L 81.179951 164.459757 
L 81.224123 164.049332 
L 81.268295 164.485409 
L 81.283019 164.485409 
L 81.312466 165.306259 
L 81.378724 167.024914 
L 81.430258 165.870594 
L 81.599582 165.075395 
L 81.503877 165.998851 
L 81.614306 165.229304 
L 81.636392 165.588426 
L 81.70265 164.895834 
L 81.717374 164.99844 
L 81.783631 166.075806 
L 81.827803 165.434517 
L 81.916146 162.22807 
L 81.982404 163.459346 
L 82.00449 163.382391 
L 82.041299 163.715861 
L 82.048661 163.895422 
L 82.092833 162.792405 
L 82.247434 158.919017 
L 82.313691 159.560306 
L 82.343139 158.739456 
L 82.394673 156.789936 
L 82.46093 158.098166 
L 82.53455 156.712981 
L 82.578722 157.431226 
L 82.770132 163.587603 
L 82.792218 163.5363 
L 82.814304 164.02368 
L 83.108782 170.564832 
L 83.13823 170.975257 
L 83.167677 170.616135 
L 83.32964 168.538357 
L 83.337002 168.564009 
L 83.565223 165.229304 
L 83.719823 162.356328 
L 83.749271 162.381979 
L 84.080559 159.124229 
L 84.23516 157.50818 
L 84.242522 157.533832 
L 84.264608 157.354271 
L 84.27197 157.354271 
L 84.382399 152.890897 
L 84.772582 119.928623 
L 84.986079 62.648657 
L 85.008164 53.798864 
L 85.081784 66.906819 
L 85.125956 73.807092 
L 85.199575 70.754555 
L 85.243747 53.568 
L 85.317366 66.291181 
L 85.538225 176.592952 
L 85.589758 191.06044 
L 85.773807 277.352337 
L 85.825341 264.193079 
L 85.891598 243.312697 
L 85.93577 228.434784 
L 85.987303 249.494727 
L 86.038837 266.399114 
L 86.090371 247.519556 
L 86.303867 184.827107 
L 86.311229 184.750152 
L 86.318591 185.211881 
L 86.340677 186.981839 
L 86.406934 183.108452 
L 86.50264 176.208178 
L 86.458468 186.443156 
L 86.524726 181.158932 
L 86.745584 226.587871 
L 86.76767 213.992948 
L 86.789756 198.088971 
L 86.833927 232.179914 
L 86.870737 217.225046 
L 87.017976 246.28828 
L 87.076872 239.977993 
L 87.135767 252.367703 
L 87.157853 242.517498 
L 87.194663 224.920518 
L 87.26092 245.287869 
L 87.275644 249.725591 
L 87.305092 232.385126 
L 87.437607 203.732318 
L 87.37135 262.346166 
L 87.444969 204.527516 
L 87.489141 222.560573 
L 87.555398 206.990068 
L 87.658466 191.906942 
L 87.680551 197.832456 
L 87.695275 201.988011 
L 87.739447 180.902416 
L 87.82779 171.000908 
L 87.8646 155.481706 
L 87.908772 181.62066 
L 87.916134 182.980194 
L 87.945582 169.923542 
L 88.056011 153.044806 
L 88.070735 155.3791 
L 88.151716 172.206532 
L 88.188526 161.150704 
L 88.254783 141.142476 
L 88.306317 154.019566 
L 88.357851 165.767987 
L 88.409384 153.301322 
L 88.453556 142.861131 
L 88.50509 157.841651 
L 88.534537 167.076218 
L 88.586071 148.401871 
L 88.600795 146.760171 
L 88.659691 155.584312 
L 88.777482 170.923954 
L 88.703862 151.531363 
L 88.814291 161.432871 
L 88.880549 147.914491 
L 88.939445 151.043983 
L 89.005702 166.871005 
L 89.07196 156.995149 
L 89.145579 144.759348 
L 89.189751 154.763462 
L 89.204475 156.430814 
L 89.248646 147.837537 
L 89.425333 125.366757 
L 89.498953 100.97211 
L 89.535762 91.609285 
L 89.616744 96.919161 
L 89.63883 99.740834 
L 89.675639 90.095842 
L 89.756621 66.239878 
L 89.822878 73.524925 
L 89.844964 72.267998 
L 89.86705 74.679246 
L 90.500178 242.132725 
L 90.551711 221.739723 
L 90.640055 186.417505 
L 90.728398 189.623952 
L 90.743122 191.522168 
L 90.787294 179.773747 
L 90.853551 158.867714 
L 90.993428 135.729993 
L 91.030238 144.195013 
L 91.354164 227.177857 
L 91.508764 284.560429 
L 91.538212 278.096232 
L 91.648641 295.488 
L 91.700175 295.385394 
L 91.744347 295.462348 
L 91.722261 295.231484 
L 91.751709 295.308439 
L 91.950481 242.158376 
L 92.082996 202.577997 
L 92.105082 210.632591 
L 92.13453 223.073605 
L 92.193426 198.602003 
L 92.355388 176.054269 
L 92.370112 178.055092 
L 92.384836 180.261127 
L 92.421646 169.359208 
L 92.429008 167.76881 
L 92.47318 181.005023 
L 92.539437 188.931359 
L 92.576247 180.004611 
L 92.642504 157.482529 
L 92.73821 165.229304 
L 92.811829 174.566477 
L 92.767658 164.741924 
L 92.833915 166.614489 
L 93.00324 128.752765 
L 93.010602 130.009692 
L 93.047412 140.321625 
L 93.098945 126.161956 
L 93.113669 122.570736 
L 93.165203 140.475535 
L 93.179927 144.015452 
L 93.224098 128.906675 
L 93.34189 113.926155 
L 93.363975 116.850435 
L 93.49649 139.295562 
L 93.525938 133.293094 
L 93.555386 127.931915 
L 93.599558 144.015452 
L 93.739435 164.793227 
L 93.746797 164.331499 
L 93.783606 159.355094 
L 93.813054 166.229716 
L 93.952931 178.747684 
L 94.06336 191.39391 
L 94.107532 187.31531 
L 94.276857 173.79693 
L 94.17379 188.880056 
L 94.298943 176.07992 
L 94.409372 189.5983 
L 94.446182 185.03232 
L 94.541887 157.482529 
L 94.615507 166.819702 
L 94.689126 180.030263 
L 94.733298 169.949194 
L 94.829003 149.248373 
L 94.873175 155.866479 
L 94.961518 167.666204 
L 95.00569 161.202007 
L 95.285444 124.135482 
L 95.30753 125.546318 
L 95.336977 128.598856 
L 95.381149 121.185551 
L 95.491578 83.657297 
L 95.587284 101.331232 
L 95.638817 110.74536 
L 95.690351 99.766486 
L 95.734523 83.400781 
L 95.793418 100.33082 
L 95.925933 134.678279 
L 95.977467 128.701462 
L 96.242497 217.789381 
L 96.308755 198.781564 
L 96.33084 194.959479 
L 96.397098 203.347544 
L 96.500165 253.573327 
L 96.573785 224.587048 
L 96.610594 201.885404 
L 96.691576 213.172097 
L 96.772557 239.541916 
L 96.905072 235.155497 
L 96.919796 233.74466 
L 97.037587 218.841095 
L 97.059673 222.432316 
L 97.155379 252.495961 
L 97.221636 239.977993 
L 97.339427 206.323127 
L 97.383599 218.507625 
L 97.398323 216.994182 
L 97.57501 181.210235 
L 97.611819 190.829576 
L 97.619181 192.189109 
L 97.648629 177.131635 
L 97.700163 138.756879 
L 97.773782 155.250842 
L 97.817954 144.195013 
L 97.869488 156.251253 
L 97.876849 156.122995 
L 97.928383 158.919017 
L 97.965193 144.810651 
L 98.10507 123.340283 
L 98.112432 123.519844 
L 98.171327 152.583078 
L 98.193413 157.66209 
L 98.244947 138.705576 
L 98.252309 138.577318 
L 98.259671 139.603381 
L 98.296481 147.632324 
L 98.340652 134.396112 
L 98.3701 127.059761 
L 98.421634 146.041926 
L 98.605682 179.132458 
L 98.620406 177.695969 
L 98.70875 149.761405 
L 98.760283 165.408865 
L 98.90016 185.724912 
L 98.914884 184.929713 
L 99.003228 163.5363 
L 99.084209 175.387328 
L 99.202 186.186641 
L 99.253534 183.518877 
L 99.400773 177.721621 
L 99.312429 184.185818 
L 99.422859 179.158109 
L 99.496478 186.750975 
L 99.570098 183.877999 
L 99.584821 183.544528 
L 99.621631 180.851113 
L 99.687889 183.185406 
L 99.798318 198.191578 
L 99.864575 189.829164 
L 99.938195 179.619838 
L 99.982367 185.724912 
L 100.055986 205.938353 
L 100.114882 193.728204 
L 100.195863 174.156052 
L 100.269483 182.467162 
L 100.306292 188.392676 
L 100.37255 181.800221 
L 100.556599 167.974023 
L 100.563961 167.948371 
L 100.571322 168.230538 
L 100.578684 168.538357 
L 100.60077 166.357973 
L 100.622856 163.767164 
L 100.667028 172.257836 
L 100.725923 179.799399 
L 100.762733 170.898302 
L 100.909972 147.093641 
L 100.924696 147.504066 
L 100.968868 156.507769 
L 100.998315 159.226836 
L 101.035125 150.402694 
L 101.108745 119.902972 
L 101.20445 123.365934 
L 101.219174 124.212436 
L 101.270708 120.390352 
L 101.359051 98.996939 
L 101.454756 102.972933 
L 101.557823 117.209557 
L 101.631443 114.131368 
L 101.668253 109.821903 
L 101.690339 116.77348 
L 102.183589 272.452886 
L 102.220399 263.757002 
L 102.330828 251.162079 
L 102.352914 254.471132 
L 102.404448 267.63039 
L 102.441257 252.162491 
L 102.588496 228.255223 
L 102.662116 204.040137 
L 102.721011 188.367024 
L 102.772545 199.987188 
L 102.809355 207.118326 
L 102.853526 192.958656 
L 102.927146 156.68733 
L 103.000765 164.254544 
L 103.059661 173.95084 
L 103.089109 164.99844 
L 103.140642 146.016275 
L 103.199538 163.100224 
L 103.273157 186.725324 
L 103.324691 171.616546 
L 103.39831 146.118881 
L 103.449844 160.791582 
L 103.530826 194.882524 
L 103.589721 180.440688 
L 103.619169 175.515586 
L 103.685426 183.724089 
L 103.692788 183.929302 
L 103.714874 181.928479 
L 103.832665 164.895834 
L 103.884199 171.693501 
L 103.943095 183.031497 
L 103.987266 173.027383 
L 104.097696 143.117647 
L 104.141867 150.01792 
L 104.259658 173.258247 
L 104.311192 164.921485 
L 104.37745 156.046041 
L 104.443707 159.688564 
L 104.60567 173.848233 
L 104.657204 170.026149 
L 104.760271 163.023269 
L 104.804443 165.331911 
L 104.951682 177.567712 
L 105.017939 173.925188 
L 105.047387 171.488288 
L 105.113644 174.079097 
L 105.216712 183.647135 
L 105.246159 179.465928 
L 105.319779 163.715861 
L 105.371313 173.566066 
L 105.467018 194.908176 
L 105.51119 183.903651 
L 105.577447 168.74357 
L 105.621619 179.312019 
L 105.709962 189.290481 
L 105.754134 187.392265 
L 105.783582 189.26483 
L 105.805667 185.801867 
L 105.960268 176.490345 
L 106.019164 173.95084 
L 106.055974 176.002966 
L 106.100145 183.441922 
L 106.159041 176.669906 
L 106.247384 154.122172 
L 106.30628 166.896657 
L 106.34309 172.540003 
L 106.409347 167.076218 
L 106.475605 152.429168 
L 106.497691 149.787056 
L 106.556586 156.53342 
L 106.630206 158.046863 
L 106.652292 156.148647 
L 106.843702 125.623273 
L 106.865788 127.36758 
L 106.902598 129.16319 
L 106.924684 124.828074 
L 107.094008 89.685417 
L 107.130818 99.304758 
L 107.197076 117.414769 
L 107.248609 101.664702 
L 107.373762 91.173208 
L 107.395848 94.200094 
L 107.925909 265.886083 
L 107.955356 257.754534 
L 108.065786 238.413247 
L 108.102595 242.235331 
L 108.154129 249.622985 
L 108.190939 238.79802 
L 108.397073 189.906119 
L 108.779894 136.063464 
L 108.794618 137.346043 
L 109.074372 185.904473 
L 109.118544 181.954131 
L 109.184802 175.233418 
L 109.228973 181.518054 
L 109.332041 214.172509 
L 109.398298 201.269767 
L 109.501365 179.722444 
L 109.545537 186.648369 
L 109.589709 192.36867 
L 109.655966 187.1614 
L 109.817929 159.714216 
L 109.876825 165.665381 
L 109.928358 169.333556 
L 109.994616 167.076218 
L 110.075597 158.457289 
L 110.193389 161.227659 
L 110.347989 173.232595 
L 110.399523 169.051389 
L 110.487866 160.43246 
L 110.532038 165.870594 
L 110.583572 179.312019 
L 110.642467 167.794462 
L 110.694001 158.611198 
L 110.752897 167.101869 
L 110.833878 186.981839 
L 110.892774 178.722032 
L 110.973755 165.203653 
L 111.025289 172.693912 
L 111.120994 183.134103 
L 111.172528 180.748507 
L 111.17989 180.645901 
L 111.201975 181.877176 
L 111.260871 187.110097 
L 111.319767 182.800633 
L 111.349214 180.415036 
L 111.400748 185.750564 
L 111.511177 201.474979 
L 111.562711 192.112154 
L 111.628968 180.568946 
L 111.680502 190.034377 
L 111.754121 194.292538 
L 111.798293 191.06044 
L 112.004428 173.412157 
L 112.01179 173.335202 
L 112.019152 173.719975 
L 112.070685 180.055914 
L 112.122219 173.694324 
L 112.217924 161.484174 
L 112.262096 167.28143 
L 112.31363 172.873473 
L 112.365163 167.127521 
L 112.858414 113.02835 
L 112.8805 113.900503 
L 112.924671 122.288568 
L 112.954119 112.361409 
L 113.086634 87.761549 
L 113.101358 89.711069 
L 113.609332 244.49267 
L 113.682952 232.898158 
L 113.756571 222.868392 
L 113.793381 232.205565 
L 113.852277 253.060296 
L 113.911172 237.310229 
L 114.213012 165.101046 
L 114.220374 165.408865 
L 114.293994 169.000086 
L 114.330803 165.921897 
L 114.455956 138.654273 
L 114.514852 149.222722 
L 114.73571 183.108452 
L 114.757796 182.210647 
L 114.860864 175.618192 
L 114.905035 179.748095 
L 115.052274 206.169217 
L 115.11117 196.985954 
L 115.170065 189.213526 
L 115.236323 191.624774 
L 115.332028 196.652483 
L 115.368838 195.472511 
L 115.442457 181.954131 
L 115.611782 167.974023 
L 115.626506 168.564009 
L 115.707488 176.952074 
L 115.759021 171.103515 
L 115.847365 156.610375 
L 115.898898 163.741513 
L 115.987242 173.745627 
L 116.038775 170.128755 
L 116.112395 160.791582 
L 116.156566 167.743159 
L 116.215462 175.695147 
L 116.266996 169.615723 
L 116.355339 160.894188 
L 116.414235 164.716273 
L 116.598283 176.259481 
L 116.642455 174.258658 
L 116.745522 167.204475 
L 116.804418 169.128344 
L 116.900123 183.211058 
L 116.951657 174.77169 
L 117.00319 167.92272 
L 117.054724 174.720387 
L 117.179877 187.597477 
L 117.231411 185.134926 
L 117.34184 182.672375 
L 117.356564 183.467574 
L 117.481717 193.856461 
L 117.525889 191.470865 
L 117.599508 178.670729 
L 117.665766 185.5197 
L 117.724661 191.419562 
L 117.768833 185.237532 
L 117.842452 169.949194 
L 117.916072 173.899536 
L 118.019139 179.850702 
L 118.063311 176.310784 
L 118.144292 161.612432 
L 118.239998 164.690621 
L 118.262084 163.664558 
L 118.298893 168.127932 
L 118.313617 168.769222 
L 118.343065 165.126698 
L 118.490304 131.959212 
L 118.541838 140.372928 
L 118.556561 141.732462 
L 118.615457 135.8326 
L 118.828954 100.125608 
L 118.909935 110.899269 
L 119.013002 140.988566 
L 119.07926 126.213259 
L 119.108708 121.236854 
L 119.152879 135.781297 
L 119.373738 204.245349 
L 119.439995 219.790203 
L 119.498891 231.205154 
L 119.579872 230.615168 
L 119.675578 239.080187 
L 119.712387 233.975524 
L 119.984779 182.800633 
L 120.17619 155.404751 
L 120.242448 145.60585 
L 120.301343 151.14659 
L 120.470668 174.386916 
L 120.51484 170.128755 
L 120.566373 166.281019 
L 120.610545 170.026149 
L 120.801956 190.162635 
L 120.838765 188.77745 
L 120.912385 186.032731 
L 120.97128 187.494871 
L 120.993366 186.981839 
L 121.015452 188.957011 
L 121.096434 200.320658 
L 121.140605 193.651249 
L 121.258396 174.207355 
L 121.30993 180.184172 
L 121.368826 184.750152 
L 121.420359 180.594597 
L 121.508703 164.741924 
L 121.589684 167.332733 
L 121.655942 171.103515 
L 121.692751 167.614901 
L 121.766371 160.868537 
L 121.825266 162.433283 
L 121.891524 166.537535 
L 121.950419 164.203241 
L 122.156554 155.763873 
L 122.17864 156.764285 
L 122.296431 172.257836 
L 122.377412 169.051389 
L 122.428946 166.332322 
L 122.48048 168.281842 
L 122.583547 180.286778 
L 122.67189 179.440277 
L 122.752872 172.4887 
L 122.789682 177.413802 
L 122.870663 190.650015 
L 122.922197 184.955365 
L 122.988454 178.439865 
L 123.032626 183.108452 
L 123.150417 198.525048 
L 123.201951 192.650837 
L 123.268208 185.03232 
L 123.334466 188.572237 
L 123.393361 194.882524 
L 123.466981 191.983897 
L 123.606858 175.10516 
L 123.665753 180.517643 
L 123.717287 184.54494 
L 123.768821 180.389385 
L 123.886612 163.151527 
L 123.945507 173.027383 
L 123.982317 176.208178 
L 124.033851 170.923954 
L 124.269433 141.296385 
L 124.328329 147.965795 
L 124.365138 150.941377 
L 124.401948 145.272379 
L 124.541825 101.100368 
L 124.608083 112.617925 
L 124.666978 120.262094 
L 124.71115 113.592685 
L 124.755322 108.898446 
L 124.821579 113.284866 
L 125.01299 154.122172 
L 125.344278 228.409132 
L 125.439983 229.460847 
L 125.454707 229.02477 
L 125.535688 220.251932 
L 125.763909 193.907765 
L 125.785994 193.086914 
L 125.933233 161.766342 
L 126.006853 152.300911 
L 126.058386 157.354271 
L 126.18354 169.71833 
L 126.249797 166.922308 
L 126.367588 171.565243 
L 126.514827 194.087326 
L 126.603171 184.339727 
L 126.662066 180.774158 
L 126.706238 184.981017 
L 126.787219 196.703786 
L 126.838753 190.444802 
L 126.927096 176.131223 
L 126.985992 180.876765 
L 127.030164 184.621895 
L 127.081697 179.722444 
L 127.265746 169.256601 
L 127.287832 168.74357 
L 127.339365 170.231361 
L 127.449795 175.772101 
L 127.493966 172.257836 
L 127.552862 166.281019 
L 127.611758 170.975257 
L 127.670653 179.312019 
L 127.744273 176.644255 
L 127.876788 161.227659 
L 127.957769 165.665381 
L 128.016665 169.743981 
L 128.068198 165.998851 
L 128.163904 159.380745 
L 128.200713 162.176767 
L 128.274333 170.308316 
L 128.34059 165.331911 
L 128.399486 159.021623 
L 128.443658 164.972788 
L 128.576173 176.592952 
L 128.598259 175.541237 
L 128.657154 169.179647 
L 128.71605 174.566477 
L 128.900098 193.292127 
L 128.951632 189.726558 
L 129.003166 183.0828 
L 129.054699 188.341373 
L 129.143043 205.912702 
L 129.194576 197.062908 
L 129.290282 182.313253 
L 129.341815 185.006668 
L 129.378625 187.264007 
L 129.444883 184.673198 
L 129.599483 174.592129 
L 129.665741 167.358385 
L 129.709913 174.027794 
L 129.783532 185.263184 
L 129.827704 176.823816 
L 129.930771 151.428757 
L 129.989667 157.072103 
L 130.055924 162.792405 
L 130.100096 158.919017 
L 130.37985 116.106539 
L 130.394574 116.670874 
L 130.409298 117.158253 
L 130.446107 114.33658 
L 130.534451 105.076362 
L 130.615432 106.076773 
L 130.762671 131.984864 
L 131.226474 235.463315 
L 131.241198 236.078953 
L 131.278008 232.846855 
L 131.425247 210.632591 
L 131.498866 213.095142 
L 131.587209 201.064554 
L 131.822792 158.252076 
L 131.837516 158.765107 
L 131.947945 162.946314 
L 131.984755 160.740279 
L 132.051012 155.840828 
L 132.087822 159.380745 
L 132.205613 185.699261 
L 132.286595 181.646312 
L 132.323404 178.773336 
L 132.374938 183.852347 
L 132.441195 193.959068 
L 132.522177 191.137395 
L 132.706226 181.877176 
L 132.787207 184.262773 
L 132.824017 185.134926 
L 132.846103 183.980605 
L 133.000703 166.742747 
L 133.066961 171.924365 
L 133.133219 175.515586 
L 133.17739 172.386094 
L 133.265734 164.793227 
L 133.324629 166.79405 
L 133.449782 181.415448 
L 133.538126 175.772101 
L 133.611745 172.180881 
L 133.663279 173.873885 
L 133.700089 175.361676 
L 133.736898 172.463048 
L 133.847327 167.666204 
L 133.884137 169.307905 
L 133.935671 173.027383 
L 133.987204 169.820936 
L 134.112358 164.818879 
L 134.127082 164.972788 
L 134.215425 170.513529 
L 134.289044 178.260304 
L 134.333216 173.514763 
L 134.421559 162.71545 
L 134.465731 167.563597 
L 134.568798 187.777038 
L 134.627694 181.543706 
L 134.671866 177.516408 
L 134.723399 182.723678 
L 134.944258 203.193635 
L 134.95162 202.96277 
L 135.084135 188.546586 
L 135.14303 194.626009 
L 135.187202 202.96277 
L 135.246098 193.394733 
L 135.341803 174.694735 
L 135.393337 181.13328 
L 135.48168 190.90653 
L 135.525852 186.597066 
L 135.680453 165.588426 
L 135.731986 168.050977 
L 135.78352 169.461814 
L 135.827691 167.666204 
L 135.930759 152.890897 
L 136.357752 108.205854 
L 136.372476 108.539324 
L 136.593334 127.803657 
L 137.123394 222.150148 
L 137.14548 220.585402 
L 137.248547 209.119148 
L 137.307443 212.73602 
L 137.322167 212.941233 
L 137.351615 211.248229 
L 137.454682 180.79981 
L 137.52094 171.821759 
L 137.594559 171.898714 
L 137.734436 151.172241 
L 137.800694 159.509003 
L 138.006828 175.207767 
L 138.205601 189.213526 
L 138.249772 193.163869 
L 138.293944 188.29007 
L 138.374926 179.696792 
L 138.441183 181.312841 
L 138.500079 188.315721 
L 138.536888 190.983485 
L 138.588422 185.878822 
L 138.720937 166.79405 
L 138.779833 170.821347 
L 138.868176 177.516408 
L 138.912348 173.566066 
L 139.022777 161.176355 
L 139.081673 165.48582 
L 139.273083 175.900359 
L 139.302531 174.848645 
L 139.457132 170.770044 
L 139.479218 170.898302 
L 139.508666 170.53918 
L 139.597009 165.588426 
L 139.648543 169.359208 
L 139.707438 174.027794 
L 139.75161 169.590072 
L 139.839953 157.251665 
L 139.884125 164.126287 
L 139.957744 175.130812 
L 140.009278 170.641786 
L 140.097621 162.920662 
L 140.156517 165.408865 
L 140.163879 165.511472 
L 140.222774 164.895834 
L 140.24486 164.639318 
L 140.266946 165.639729 
L 140.370013 178.978548 
L 140.436271 171.077863 
L 140.480443 168.025326 
L 140.524614 172.616958 
L 140.642405 196.395967 
L 140.716025 190.034377 
L 140.752835 187.700084 
L 140.804368 191.906942 
L 140.88535 202.013662 
L 140.951607 198.961125 
L 141.106208 188.597889 
L 141.194552 191.291304 
L 141.209275 191.496517 
L 141.253447 190.367847 
L 141.268171 190.41915 
L 141.282895 190.111332 
L 141.371238 178.696381 
L 141.570011 166.819702 
L 141.599459 167.101869 
L 141.614183 166.896657 
L 141.702526 157.226013 
L 142.144243 111.001876 
L 142.203138 106.564153 
L 142.254672 110.59145 
L 142.652217 163.484997 
L 142.828904 212.88993 
L 142.873076 211.633003 
L 142.895162 212.582111 
L 143.035039 226.100491 
L 143.101296 223.124908 
L 143.270621 200.448916 
L 143.550375 159.278139 
L 143.565099 159.355094 
L 143.631356 163.484997 
L 143.697614 165.126698 
L 143.749148 164.254544 
L 143.75651 164.203241 
L 143.778595 164.793227 
L 143.859577 170.744393 
L 143.999454 186.648369 
L 144.065711 183.211058 
L 144.102521 181.338493 
L 144.161417 184.031908 
L 144.279208 196.139452 
L 144.338103 191.265652 
L 144.448533 176.541649 
L 144.522152 177.567712 
L 144.573686 180.209824 
L 144.625219 177.388151 
L 144.772458 160.201596 
L 144.89025 165.408865 
L 144.963869 164.716273 
L 144.985955 165.152349 
L 145.111108 175.797753 
L 145.177365 170.308316 
L 145.250985 166.357973 
L 145.287795 169.179647 
L 145.354052 175.618192 
L 145.427672 174.104749 
L 145.567549 168.897479 
L 145.596997 168.179235 
L 145.641168 170.359619 
L 145.758959 176.259481 
L 145.803131 173.181292 
L 145.928284 162.895011 
L 145.972456 167.743159 
L 146.075523 174.951251 
L 146.112333 172.591306 
L 146.171228 167.460991 
L 146.244848 169.384859 
L 146.414173 185.186229 
L 146.443621 183.647135 
L 146.473068 181.77457 
L 146.524602 185.699261 
L 146.649755 196.626832 
L 146.701289 193.292127 
L 146.907423 186.289247 
L 146.914785 186.468808 
L 147.025214 193.061263 
L 147.08411 189.649603 
L 147.253435 178.209001 
L 147.275521 178.311607 
L 147.511103 169.923542 
L 148.026439 109.898858 
L 148.136869 117.183905 
L 148.173678 118.774303 
L 148.21785 115.926978 
L 148.262022 112.2075 
L 148.313555 116.080887 
L 148.431346 148.196659 
L 148.718462 209.016542 
L 148.828892 227.998707 
L 148.887787 224.304881 
L 149.116008 202.167572 
L 149.329504 164.485409 
L 149.410486 164.588015 
L 149.447295 164.485409 
L 149.484105 161.150704 
L 149.535639 155.430403 
L 149.594534 160.996794 
L 149.734411 178.157698 
L 149.800669 175.900359 
L 149.947908 183.801044 
L 150.065699 193.907765 
L 150.109871 190.624363 
L 150.190852 180.543294 
L 150.25711 184.108863 
L 150.293919 185.5197 
L 150.338091 182.698027 
L 150.470606 172.463048 
L 150.52214 172.770867 
L 150.595759 163.587603 
L 150.676741 157.456877 
L 150.728274 160.329853 
L 150.78717 166.229716 
L 150.875513 165.614078 
L 151.037476 163.023269 
L 151.074286 161.176355 
L 151.118458 164.254544 
L 151.214163 171.257424 
L 151.265696 168.512706 
L 151.361402 162.741101 
L 151.398212 166.178412 
L 151.486555 178.747684 
L 151.560174 177.05468 
L 151.633794 170.513529 
L 151.692689 174.822993 
L 151.803119 181.210235 
L 151.84729 179.568534 
L 151.950358 173.95084 
L 152.001891 175.977314 
L 152.112321 181.261538 
L 152.163854 182.903239 
L 152.230112 181.748918 
L 152.237474 181.77457 
L 152.244836 181.62066 
L 152.303731 179.158109 
L 152.340541 182.056737 
L 152.428884 196.190755 
L 152.517228 192.650837 
L 152.598209 184.904062 
L 152.664467 188.982662 
L 152.796982 193.369082 
L 152.841153 192.240412 
L 153.592072 147.991446 
L 153.790845 117.337814 
L 153.835016 118.030407 
L 153.952808 116.491312 
L 154.063237 108.872795 
L 154.107408 112.104893 
L 154.217838 138.93644 
L 154.630107 215.839861 
L 154.666916 215.6603 
L 154.696364 216.250286 
L 154.806793 221.277995 
L 154.850965 218.661534 
L 154.968756 191.624774 
L 155.152805 174.643432 
L 155.32213 158.585546 
L 155.388387 164.51106 
L 155.498817 177.747273 
L 155.55035 174.592129 
L 155.572436 173.719975 
L 155.631332 176.362088 
L 155.903724 191.650426 
L 155.940533 190.675666 
L 156.470594 159.226836 
L 156.536851 162.484586 
L 156.632557 171.02656 
L 156.68409 167.076218 
L 156.772434 161.176355 
L 156.823967 163.638907 
L 156.934396 174.720387 
L 157.008016 172.155229 
L 157.081635 165.588426 
L 157.140531 169.256601 
L 157.25096 179.235064 
L 157.309856 176.618603 
L 157.412923 171.257424 
L 157.457095 173.412157 
L 157.567524 176.875119 
L 157.596972 175.438631 
L 157.736849 164.434105 
L 157.78102 166.717096 
L 157.898812 171.950017 
L 157.928259 170.077452 
L 157.994517 165.254956 
L 158.046051 169.000086 
L 158.340529 189.136572 
L 158.369976 189.059617 
L 158.414148 190.367847 
L 158.531939 195.754678 
L 158.590835 194.882524 
L 159.098809 171.18047 
L 159.25341 164.049332 
L 159.260772 164.151938 
L 159.29022 164.690621 
L 159.319668 162.920662 
L 159.452183 139.09035 
L 159.569974 128.111476 
L 159.606784 128.573204 
L 159.621507 128.470598 
L 159.680403 124.238088 
L 159.835004 110.360586 
L 159.879176 112.412712 
L 160.100034 138.910789 
L 160.593285 226.562219 
L 160.630094 224.202274 
L 161.057087 162.56154 
L 161.138069 167.204475 
L 161.167517 167.794462 
L 161.211688 166.46058 
L 161.233774 166.178412 
L 161.29267 166.999263 
L 161.381013 168.923131 
L 161.675491 184.262773 
L 161.741749 183.288013 
L 161.881626 177.798576 
L 161.925797 179.799399 
L 162.014141 185.417093 
L 162.065674 183.672786 
L 162.168741 168.358796 
L 162.234999 163.408042 
L 162.279171 167.050566 
L 162.360152 175.284721 
L 162.419048 171.000908 
L 162.507391 160.175944 
L 162.558925 165.024092 
L 162.661992 177.131635 
L 162.720888 172.97608 
L 162.853403 169.487466 
L 162.860765 169.538769 
L 162.927022 171.796107 
L 163.044813 175.74645 
L 163.074261 174.309962 
L 163.177328 166.357973 
L 163.236224 169.307905 
L 163.29512 174.592129 
L 163.354015 170.231361 
L 163.434997 159.201184 
L 163.501254 163.177178 
L 163.596959 167.076218 
L 163.633769 165.049743 
L 163.700027 163.074572 
L 163.766284 163.946725 
L 163.82518 167.743159 
L 164.208001 193.471688 
L 164.252173 191.650426 
L 164.31843 189.803513 
L 164.377326 190.957834 
L 164.436221 193.369082 
L 164.480393 190.726969 
L 164.612908 183.672786 
L 164.649718 184.262773 
L 164.679166 184.801456 
L 164.723337 183.544528 
L 164.804319 180.389385 
L 164.929472 170.718741 
L 164.981006 173.181292 
L 165.061987 178.747684 
L 165.113521 175.900359 
L 165.680391 123.442889 
L 165.798182 118.184316 
L 165.842354 120.339049 
L 165.974869 146.272791 
L 166.335604 209.914347 
L 166.3945 206.015308 
L 166.438671 202.834513 
L 166.497567 205.784444 
L 166.549101 208.862633 
L 166.600634 206.092263 
L 166.681616 191.727381 
L 166.902474 171.667849 
L 167.086523 169.667027 
L 167.093885 169.769633 
L 167.182228 173.848233 
L 167.49143 195.395556 
L 167.572411 189.546997 
L 167.631307 184.493637 
L 167.682841 189.572648 
L 167.778546 201.962359 
L 167.822718 197.062908 
L 167.977318 178.875942 
L 168.014128 179.568534 
L 168.036214 179.876353 
L 168.073024 178.568123 
L 168.308606 162.535889 
L 168.367502 166.79405 
L 168.433759 171.821759 
L 168.485293 168.25619 
L 168.55155 162.125464 
L 168.617808 164.459757 
L 168.713513 169.025737 
L 168.757685 166.871005 
L 168.794495 164.947137 
L 168.868114 166.665792 
L 169.022715 169.795284 
L 169.044801 169.897891 
L 169.088973 169.384859 
L 169.199402 163.818468 
L 169.258297 166.434928 
L 169.361365 170.641786 
L 169.405536 169.359208 
L 169.471794 167.153172 
L 169.523328 168.923131 
L 170.082836 189.470042 
L 170.097559 189.444391 
L 170.134369 189.649603 
L 170.185903 190.188286 
L 170.207989 190.624363 
L 170.244798 188.828753 
L 170.32578 184.031908 
L 170.392037 185.673609 
L 170.495105 190.932182 
L 170.531914 188.597889 
L 170.664429 175.720798 
L 170.715963 179.081154 
L 170.81903 186.956188 
L 170.85584 184.827107 
L 171.592035 104.127254 
L 171.650931 112.412712 
L 171.834979 129.701873 
L 171.901237 140.757702 
L 172.284058 213.172097 
L 172.357678 216.712014 
L 172.416573 214.249463 
L 172.534364 200.987599 
L 172.792032 175.951662 
L 172.828842 176.156875 
L 172.990805 170.744393 
L 173.027615 169.282253 
L 173.071786 171.924365 
L 173.204302 190.624363 
L 173.285283 181.697615 
L 173.336817 177.901182 
L 173.38835 181.492403 
L 173.513503 193.112566 
L 173.565037 190.624363 
L 174.02884 159.432048 
L 174.065649 160.252899 
L 174.176079 162.843708 
L 174.227612 161.74069 
L 174.29387 158.303379 
L 174.360127 160.509414 
L 174.477919 166.588838 
L 174.529452 163.818468 
L 174.573624 161.997206 
L 174.632519 164.203241 
L 174.750311 172.386094 
L 174.853378 172.078275 
L 174.868102 172.052623 
L 175.037427 170.026149 
L 175.066874 170.667438 
L 175.155218 174.361265 
L 175.214113 172.540003 
L 175.376076 169.07704 
L 175.3908 168.948783 
L 175.434972 169.769633 
L 175.538039 174.130401 
L 175.707364 181.518054 
L 175.780983 185.134926 
L 175.906136 193.6769 
L 175.987118 191.240001 
L 176.016566 190.57306 
L 176.060737 187.905296 
L 176.112271 190.752621 
L 176.207976 196.60118 
L 176.25951 194.574706 
L 176.458283 180.748507 
L 176.502454 181.595009 
L 176.56135 182.698027 
L 176.612883 181.825873 
L 176.657055 180.517643 
L 177.187115 136.833011 
L 177.415336 111.72012 
L 177.466869 110.924921 
L 177.511041 111.72012 
L 177.592023 116.747828 
L 177.746623 136.833011 
L 178.158893 215.737255 
L 178.217788 216.378544 
L 178.269322 216.019422 
L 178.342941 211.91517 
L 178.519628 189.726558 
L 178.593248 190.393499 
L 178.637419 187.392265 
L 178.762572 171.334379 
L 178.82883 175.336025 
L 178.946621 185.211881 
L 179.012879 183.672786 
L 179.05705 182.441511 
L 179.115946 183.980605 
L 179.307356 192.266064 
L 179.32208 192.086503 
L 179.631282 179.671141 
L 179.859503 163.5363 
L 180.028827 157.533832 
L 180.036189 157.559483 
L 180.058275 157.636438 
L 180.212876 160.996794 
L 180.271772 163.972377 
L 180.330667 162.022857 
L 180.360115 161.330265 
L 180.411649 163.023269 
L 180.632507 177.029029 
L 180.691403 174.592129 
L 180.72085 173.925188 
L 180.787108 175.233418 
L 180.904899 179.33767 
L 180.971157 178.36291 
L 181.214101 170.257013 
L 181.228825 170.308316 
L 181.272997 170.744393 
L 181.538027 178.593775 
L 181.685266 184.750152 
L 181.744161 184.339727 
L 182.016553 189.983074 
L 182.038639 190.393499 
L 182.075449 188.751798 
L 182.215326 179.183761 
L 182.274222 180.79981 
L 182.311031 182.313253 
L 182.362565 179.927656 
L 182.42146 176.72121 
L 182.480356 178.978548 
L 182.576061 182.672375 
L 182.620233 180.953719 
L 183.039864 140.424232 
L 183.282808 117.132602 
L 183.4006 111.72012 
L 183.459495 114.464838 
L 183.621458 139.192956 
L 183.879126 189.239178 
L 184.063175 216.48115 
L 184.12207 211.5817 
L 184.276671 204.860987 
L 184.350291 199.474156 
L 184.622683 179.414625 
L 184.666855 180.389385 
L 184.740474 184.596243 
L 184.814094 182.10804 
L 184.836179 181.364145 
L 184.902437 182.646723 
L 185.005504 186.956188 
L 185.086486 185.622306 
L 185.174829 184.596243 
L 185.204277 185.160578 
L 185.233725 186.084034 
L 185.29262 184.288424 
L 185.756423 162.330676 
L 185.815319 159.868125 
L 185.866852 161.484174 
L 186.021453 167.204475 
L 186.058263 166.665792 
L 186.139244 165.306259 
L 186.168692 166.024503 
L 186.448446 176.772513 
L 186.529427 177.157286 
L 186.544151 176.900771 
L 186.617771 174.258658 
L 186.684028 175.669495 
L 186.742924 174.515174 
L 186.949059 168.102281 
L 187.044764 163.100224 
L 187.096297 164.741924 
L 187.214089 168.281842 
L 187.250898 167.794462 
L 187.265622 167.743159 
L 187.29507 168.179235 
L 187.353966 173.232595 
L 187.471757 184.211469 
L 187.52329 183.108452 
L 187.611634 181.13328 
L 187.641082 182.056737 
L 187.758873 190.752621 
L 187.832492 188.520934 
L 188.009179 184.519288 
L 188.053351 182.698027 
L 188.16378 174.489523 
L 188.230037 176.5673 
L 188.333105 180.79981 
L 188.399362 178.798987 
L 188.612859 169.820936 
L 188.649668 170.0518 
L 188.671754 169.487466 
L 188.774822 157.713393 
L 189.098747 118.030407 
L 189.150281 114.97787 
L 189.201815 118.492135 
L 189.33433 120.287746 
L 189.430035 131.497484 
L 189.908562 213.633825 
L 190.033715 208.862633 
L 190.225125 201.038902 
L 190.460708 182.723678 
L 190.46807 182.698027 
L 190.490155 182.980194 
L 190.504879 183.0828 
L 190.534327 182.467162 
L 190.652118 180.825462 
L 190.674204 180.902416 
L 190.858253 182.851936 
L 190.909787 181.851525 
L 190.953958 181.466751 
L 190.983406 182.210647 
L 191.064387 186.750975 
L 191.145369 185.134926 
L 191.26316 178.824639 
L 191.344141 180.568946 
L 191.351503 180.594597 
L 191.366227 180.363733 
L 191.432485 174.797342 
L 191.557638 164.947137 
L 191.60181 166.742747 
L 191.653343 167.717507 
L 191.712239 166.973611 
L 191.888926 163.254133 
L 191.911011 163.715861 
L 192.257023 174.130401 
L 192.286471 173.848233 
L 192.345366 172.693912 
L 192.426348 168.820525 
L 192.485243 170.487877 
L 192.551501 172.565655 
L 192.595673 170.975257 
L 192.757635 162.946314 
L 192.845979 164.02368 
L 192.912236 166.127109 
L 192.96377 164.485409 
L 193.044751 161.561129 
L 193.081561 163.408042 
L 193.221438 180.697204 
L 193.339229 178.132046 
L 193.405487 183.057149 
L 193.49383 188.084857 
L 193.545364 187.700084 
L 193.589536 187.1614 
L 193.611621 187.623129 
L 193.707327 191.906942 
L 193.75886 189.521345 
L 194.009167 178.542471 
L 194.023891 178.773336 
L 194.126958 185.160578 
L 194.200577 180.851113 
L 194.288921 174.746038 
L 194.333092 177.87553 
L 194.391988 181.800221 
L 194.450884 178.747684 
L 195.069287 123.904618 
L 195.187078 120.85208 
L 195.216526 121.955098 
L 195.45947 148.324917 
L 195.827568 203.886227 
L 195.960083 207.118326 
L 195.982169 206.297475 
L 196.475419 177.901182 
L 196.497505 178.003788 
L 196.519591 178.055092 
L 196.549039 177.798576 
L 196.571125 177.87553 
L 196.622658 176.900771 
L 196.66683 175.618192 
L 196.711002 177.54206 
L 196.843517 184.031908 
L 196.887688 182.26195 
L 196.917136 181.954131 
L 196.961308 183.031497 
L 197.057013 185.699261 
L 197.115909 184.955365 
L 197.152718 184.442334 
L 197.27051 175.720798 
L 197.454558 169.051389 
L 197.484006 168.384448 
L 197.594435 163.100224 
L 197.660693 163.587603 
L 197.771122 162.176767 
L 197.793208 162.535889 
L 198.117134 175.618192 
L 198.146581 174.848645 
L 198.190753 174.002143 
L 198.227563 175.515586 
L 198.323268 181.954131 
L 198.374802 179.0042 
L 198.470507 172.693912 
L 198.529403 174.617781 
L 198.580936 176.310784 
L 198.625108 174.489523 
L 198.809157 165.998851 
L 198.823881 166.204064 
L 198.93431 169.846588 
L 199.147806 175.977314 
L 199.206702 177.721621 
L 199.412836 185.494048 
L 199.486456 189.136572 
L 199.53799 191.137395 
L 199.582161 189.11092 
L 199.714676 181.671964 
L 199.758848 183.057149 
L 199.80302 184.416682 
L 199.861915 183.005845 
L 199.942897 180.389385 
L 199.957621 180.081566 
L 200.001792 181.28719 
L 200.03124 181.77457 
L 200.082774 180.697204 
L 200.472957 165.101046 
L 200.892588 119.54385 
L 200.922036 118.722999 
L 200.988293 120.005578 
L 201.231238 129.80448 
L 201.753936 208.144389 
L 201.812832 205.835747 
L 202.394425 177.234241 
L 202.423873 177.54206 
L 202.460683 177.362499 
L 202.490131 178.311607 
L 202.585836 182.903239 
L 202.652094 182.184995 
L 202.666818 182.133692 
L 202.688903 181.954131 
L 202.718351 182.672375 
L 202.9024 188.469631 
L 202.924486 188.13616 
L 203.012829 184.852759 
L 203.263135 173.694324 
L 203.329393 171.154818 
L 203.417736 171.539592 
L 203.439822 171.488288 
L 203.491356 169.256601 
L 203.557613 167.178824 
L 203.601785 169.128344 
L 203.793196 178.260304 
L 203.852091 176.746861 
L 203.918349 175.720798 
L 203.96252 176.413391 
L 204.07295 181.492403 
L 204.131845 178.978548 
L 204.242274 171.975668 
L 204.315894 173.540414 
L 204.367428 173.617369 
L 204.418961 171.360031 
L 204.588286 160.971143 
L 204.647182 162.022857 
L 204.882764 167.743159 
L 205.110984 176.182527 
L 205.177242 179.645489 
L 205.317119 188.007902 
L 205.368652 186.289247 
L 205.582149 181.62066 
L 205.670492 179.158109 
L 205.758836 180.31243 
L 205.788283 180.491991 
L 205.810369 180.055914 
L 205.942884 178.234653 
L 205.972332 178.439865 
L 206.134295 180.928068 
L 206.149019 180.774158 
L 206.23 175.489934 
L 206.443497 160.817233 
L 206.929385 117.337814 
L 206.958833 116.516964 
L 207.003005 118.338226 
L 207.13552 139.295562 
L 207.599323 200.295007 
L 207.66558 200.705432 
L 207.687666 200.320658 
L 207.820181 193.599946 
L 208.077849 183.313664 
L 208.092573 183.441922 
L 208.114659 183.672786 
L 208.158831 182.954542 
L 208.225088 182.518465 
L 208.276622 182.851936 
L 208.320794 183.929302 
L 208.379689 186.622717 
L 208.453309 185.673609 
L 208.468033 185.442745 
L 208.512204 186.520111 
L 208.666805 192.009548 
L 208.733063 190.90653 
L 208.843492 188.674843 
L 209.36619 165.896245 
L 209.380914 166.127109 
L 209.454534 170.385271 
L 209.542877 174.361265 
L 209.587049 172.4887 
L 209.638582 170.975257 
L 209.690116 172.616958 
L 209.859441 177.259893 
L 209.910974 175.720798 
L 210.065575 170.462225 
L 210.117109 171.796107 
L 210.153919 172.591306 
L 210.19809 171.308727 
L 210.492568 160.842885 
L 210.544102 159.94508 
L 210.580912 161.227659 
L 211.169867 186.212292 
L 211.184591 186.160989 
L 211.258211 186.417505 
L 211.412812 182.698027 
L 211.456983 181.030674 
L 211.515879 182.877588 
L 211.582137 183.775393 
L 211.626308 183.005845 
L 211.722014 181.569357 
L 211.751461 182.26195 
L 211.920786 187.289658 
L 211.950234 186.468808 
L 212.303607 161.40722 
L 212.583361 131.677045 
L 212.760048 113.413124 
L 212.848392 117.337814 
L 213.113422 152.300911 
L 213.510967 205.476625 
L 213.569863 202.783209 
L 213.93796 184.647546 
L 214.247162 181.364145 
L 214.269248 181.543706 
L 214.401763 184.904062 
L 214.600535 190.239589 
L 214.629983 189.675255 
L 214.740412 183.518877 
L 214.880289 180.620249 
L 214.887651 180.697204 
L 214.917099 181.184584 
L 214.953909 180.209824 
L 215.064338 169.513117 
L 215.10851 166.922308 
L 215.174767 169.000086 
L 215.248387 170.718741 
L 215.285196 169.410511 
L 215.366178 167.153172 
L 215.425073 167.691855 
L 215.616484 172.796519 
L 215.697465 170.616135 
L 215.793171 166.511883 
L 215.844704 168.076629 
L 215.910962 169.307905 
L 215.947772 168.307493 
L 216.102373 163.946725 
L 216.13182 164.203241 
L 216.146544 164.254544 
L 216.16863 163.767164 
L 216.271697 158.277727 
L 216.352679 160.098989 
L 217.07415 188.957011 
L 217.088874 188.854404 
L 217.206665 185.596654 
L 217.295008 186.776627 
L 217.317094 186.956188 
L 217.346542 186.468808 
L 217.390714 186.571414 
L 217.486419 185.057971 
L 217.530591 186.058383 
L 217.692553 188.62354 
L 217.574762 185.878822 
L 217.751449 187.828341 
L 217.861878 184.339727 
L 217.94286 185.263184 
L 217.987031 183.775393 
L 218.112184 167.563597 
L 218.480282 124.571558 
L 218.671692 116.13219 
L 218.70114 116.491312 
L 218.789484 121.185551 
L 219.032428 159.30379 
L 219.348992 200.731083 
L 219.429973 201.757146 
L 219.466783 200.83369 
L 219.945309 184.185818 
L 219.982119 183.108452 
L 220.055739 184.006257 
L 220.092548 184.647546 
L 220.17353 184.108863 
L 220.188254 184.006257 
L 220.21034 184.621895 
L 220.357579 193.522991 
L 220.431198 190.752621 
L 220.600523 186.597066 
L 220.7404 182.313253 
L 221.056964 169.282253 
L 221.160031 166.383625 
L 221.211565 167.101869 
L 221.410337 170.103103 
L 221.417699 170.026149 
L 221.690091 165.921897 
L 221.741625 166.204064 
L 221.756349 166.255367 
L 221.778435 166.024503 
L 221.969845 160.894188 
L 222.072912 157.149058 
L 222.124446 158.072515 
L 222.904813 188.238767 
L 223.00788 187.700084 
L 223.037328 188.161812 
L 223.096223 188.803101 
L 223.140395 188.13616 
L 223.2361 185.340139 
L 223.265548 184.54494 
L 223.317082 186.417505 
L 223.412787 189.239178 
L 223.464321 187.879645 
L 223.515854 186.237944 
L 223.582112 187.31531 
L 223.685179 191.650426 
L 223.766161 189.777861 
L 224.097448 160.612021 
L 224.531803 113.054001 
L 224.575975 114.721354 
L 224.730576 125.648925 
L 224.892539 153.660444 
L 225.209102 197.755501 
L 225.290084 199.551111 
L 225.341617 198.832867 
L 225.415237 197.601591 
L 225.783334 187.751387 
L 225.849592 185.391442 
L 225.945297 182.723678 
L 225.989469 183.621483 
L 226.158794 191.470865 
L 226.225051 189.854816 
L 226.33548 188.931359 
L 226.364928 189.085269 
L 226.401738 189.008314 
L 226.44591 187.956599 
L 226.585787 179.363322 
L 226.806645 170.410922 
L 226.97597 163.023269 
L 227.034865 163.767164 
L 227.211552 166.101458 
L 227.270448 165.511472 
L 227.299896 166.178412 
L 227.351429 167.204475 
L 227.395601 165.793639 
L 227.439773 165.101046 
L 227.483944 166.024503 
L 227.572288 169.025737 
L 227.660631 167.43534 
L 227.866766 161.612432 
L 227.918299 160.971143 
L 227.969833 161.612432 
L 228.330568 171.334379 
L 228.37474 170.923954 
L 228.396826 171.360031 
L 228.860629 190.162635 
L 228.882714 189.931771 
L 229.044677 183.698438 
L 229.147745 185.006668 
L 229.191916 184.570591 
L 229.368603 182.184995 
L 229.390689 182.569769 
L 229.530566 186.802278 
L 229.582099 185.109275 
L 229.854492 169.461814 
L 230.458171 117.363466 
L 230.502343 117.876498 
L 230.620134 128.752765 
L 231.17228 201.372373 
L 231.201728 201.013251 
L 231.290071 199.679369 
L 231.783322 181.338493 
L 231.820132 182.980194 
L 231.967371 190.290893 
L 232.011542 188.957011 
L 232.063076 187.597477 
L 232.11461 188.700495 
L 232.225039 191.932593 
L 232.26921 190.90653 
L 232.37964 183.262361 
L 232.747737 166.845353 
L 232.858166 166.255367 
L 232.880252 166.383625 
L 232.998043 168.358796 
L 233.042215 167.486643 
L 233.064301 167.28143 
L 233.108473 168.025326 
L 233.263073 169.179647 
L 233.417674 170.975257 
L 233.299883 168.948783 
L 233.469208 170.077452 
L 233.756324 164.459757 
L 233.807858 164.357151 
L 233.859391 163.818468 
L 233.881477 163.5363 
L 233.918287 164.690621 
L 234.021354 169.410511 
L 234.087612 168.871828 
L 234.153869 167.358385 
L 234.183317 168.794873 
L 234.477795 184.160166 
L 234.625034 188.726147 
L 234.691291 188.597889 
L 234.698653 188.674843 
L 234.735463 188.033554 
L 234.809083 184.108863 
L 234.919512 185.083623 
L 234.956321 186.263595 
L 234.993131 184.416682 
L 235.118284 181.595009 
L 235.14037 181.877176 
L 235.353867 184.39103 
L 235.390676 184.852759 
L 235.434848 184.031908 
L 235.545277 180.979371 
L 236.303558 115.183082 
L 236.391901 119.210379 
L 236.61276 149.248373 
L 236.951409 197.08856 
L 237.039753 200.218052 
L 237.083924 198.935473 
L 237.260611 193.446036 
L 237.297421 193.959068 
L 237.304783 194.010371 
L 237.326869 193.599946 
L 237.533003 181.364145 
L 237.621347 184.981017 
L 237.717052 186.956188 
L 237.761224 186.417505 
L 237.798033 186.058383 
L 237.827481 186.699672 
L 237.967358 192.394322 
L 238.040978 191.06044 
L 238.571038 170.513529 
L 238.674105 168.769222 
L 238.718277 169.538769 
L 238.902326 171.411334 
L 238.924411 170.898302 
L 239.042203 169.436162 
L 239.056927 169.820936 
L 239.14527 171.975668 
L 239.204166 171.590895 
L 239.218889 171.642198 
L 239.248337 171.462637 
L 239.307233 169.897891 
L 239.37349 171.206121 
L 239.380852 171.231773 
L 239.4103 170.949605 
L 239.564901 165.562775 
L 239.653244 167.307082 
L 239.71214 168.179235 
L 239.778397 167.92272 
L 239.785759 167.948371 
L 239.800483 167.743159 
L 239.852017 166.973611 
L 239.910913 167.691855 
L 239.955084 167.486643 
L 239.999256 168.358796 
L 240.418887 182.236298 
L 240.485144 181.466751 
L 240.514592 180.671552 
L 240.573488 182.159343 
L 240.595574 181.877176 
L 240.647107 179.748095 
L 240.720727 181.338493 
L 240.823794 179.260716 
L 240.88269 176.156875 
L 240.941585 178.388562 
L 241.243425 186.674021 
L 241.258149 186.417505 
L 241.721952 158.405985 
L 242.097411 118.261271 
L 242.215202 113.643988 
L 242.252012 114.259625 
L 242.332993 122.416826 
L 242.863054 196.267709 
L 242.966121 195.882936 
L 243.054464 198.242881 
L 243.105998 196.883347 
L 243.356304 187.80269 
L 243.474095 185.647958 
L 243.525629 187.135749 
L 243.702316 189.906119 
L 243.864279 193.753855 
L 243.90845 192.52258 
L 244.659369 170.795696 
L 244.710903 170.821347 
L 244.865504 169.025737 
L 244.917037 168.153584 
L 244.983295 168.794873 
L 245.11581 170.257013 
L 245.152619 169.923542 
L 245.439735 166.281019 
L 245.483907 166.742747 
L 245.550165 167.614901 
L 245.601698 166.871005 
L 245.68268 165.024092 
L 245.734213 166.204064 
L 246.028691 172.642609 
L 246.102311 174.438219 
L 246.21274 181.056326 
L 246.278998 180.645901 
L 246.301083 180.31243 
L 246.359979 181.235887 
L 246.396789 182.646723 
L 246.44096 184.416682 
L 246.499856 182.236298 
L 246.647095 179.82505 
L 246.661819 179.97896 
L 246.676543 180.107217 
L 246.698629 179.49158 
L 246.7428 177.798576 
L 246.794334 180.030263 
L 246.985745 184.288424 
L 247.11826 188.084857 
L 247.155069 187.058794 
L 247.199241 186.212292 
L 247.250775 187.264007 
L 247.280222 187.494871 
L 247.317032 186.879233 
L 247.427461 179.388973 
L 247.633596 156.559072 
L 248.023779 116.363055 
L 248.067951 114.875263 
L 248.126846 116.388706 
L 248.207828 123.725057 
L 248.804146 196.755089 
L 248.826232 196.472922 
L 249.245863 185.442745 
L 249.341568 182.74933 
L 249.407825 183.364967 
L 249.827456 190.111332 
L 249.886352 188.854404 
L 250.254449 176.182527 
L 250.357517 172.540003 
L 250.416412 171.231773 
L 250.475308 171.821759 
L 250.51948 172.257836 
L 250.548927 171.51394 
L 250.688804 167.974023 
L 250.718252 168.410099 
L 250.7477 169.051389 
L 250.828681 168.461403 
L 250.843405 168.281842 
L 250.880215 169.051389 
L 250.953835 170.410922 
L 250.998006 169.384859 
L 251.123159 166.229716 
L 251.167331 167.640552 
L 251.189417 167.999674 
L 251.263036 167.28143 
L 251.432361 165.331911 
L 251.505981 164.613666 
L 251.54279 165.331911 
L 251.631134 169.333556 
L 251.712115 167.43534 
L 251.748925 166.896657 
L 251.778373 167.717507 
L 252.10966 179.465928 
L 252.205366 181.543706 
L 252.293709 184.365379 
L 252.337881 182.774981 
L 252.404138 178.491168 
L 252.48512 179.799399 
L 252.536653 179.927656 
L 252.580825 178.670729 
L 252.617635 177.465105 
L 252.67653 179.49158 
L 252.764874 182.338904 
L 252.816407 181.543706 
L 252.823769 181.518054 
L 252.838493 181.77457 
L 252.985732 187.520523 
L 253.05199 184.775804 
L 253.066714 184.673198 
L 253.096161 185.545351 
L 253.162419 187.417916 
L 253.213953 185.878822 
L 253.427449 170.103103 
L 253.942785 114.49049 
L 253.994319 115.542204 
L 254.060577 119.928623 
L 254.310883 157.328619 
L 254.597999 194.061674 
L 254.759962 200.243704 
L 254.782048 199.910233 
L 255.194317 187.212704 
L 255.290022 187.366613 
L 255.437261 188.187463 
L 255.5845 190.547408 
L 255.636033 190.08568 
L 255.827444 185.930125 
L 256.063026 177.54206 
L 256.305971 171.385682 
L 256.548915 167.794462 
L 256.372228 171.436985 
L 256.585725 168.435751 
L 256.637258 169.359208 
L 256.710878 168.820525 
L 256.917012 166.614489 
L 256.968546 166.152761 
L 257.005356 166.742747 
L 257.071613 167.948371 
L 257.108423 166.896657 
L 257.196766 163.972377 
L 257.255662 164.588015 
L 257.292472 165.229304 
L 257.373453 164.818879 
L 257.388177 164.716273 
L 257.424987 165.357562 
L 257.51333 166.845353 
L 257.55014 165.9732 
L 257.594312 165.024092 
L 257.638483 166.127109 
L 257.984495 178.901593 
L 258.006581 178.773336 
L 258.021305 178.722032 
L 258.050752 179.081154 
L 258.190629 181.389796 
L 258.227439 180.825462 
L 258.286335 179.388973 
L 258.34523 180.594597 
L 258.367316 180.748507 
L 258.41885 180.107217 
L 258.470383 179.671141 
L 258.507193 180.338082 
L 258.875291 190.342196 
L 258.919462 190.008725 
L 258.934186 189.957422 
L 258.963634 190.213938 
L 259.029892 191.650426 
L 259.074063 190.650015 
L 259.258112 177.362499 
L 259.832344 115.208734 
L 259.905963 116.927389 
L 260.009031 125.674576 
L 260.561177 197.268121 
L 260.701054 198.217229 
L 260.708416 198.165926 
L 260.774673 195.882936 
L 261.083875 184.750152 
L 261.120685 185.160578 
L 261.150133 185.237532 
L 261.172218 185.03232 
L 261.231114 184.108863 
L 261.29001 184.852759 
L 261.415163 188.700495 
L 261.48142 187.674432 
L 261.525592 187.084446 
L 261.562402 188.13616 
L 261.621297 189.26483 
L 261.665469 188.059206 
L 262.092462 175.900359 
L 262.379578 167.460991 
L 262.475283 168.281842 
L 262.541541 167.204475 
L 262.659332 164.357151 
L 262.718227 164.818879 
L 262.806571 163.561952 
L 262.843381 164.588015 
L 262.917 165.614078 
L 262.961172 164.895834 
L 263.042153 162.792405 
L 263.101049 164.02368 
L 263.358717 167.640552 
L 263.373441 167.76881 
L 263.424974 167.076218 
L 263.469146 165.9732 
L 263.528042 166.896657 
L 263.962397 183.903651 
L 264.153807 180.568946 
L 264.264237 181.184584 
L 264.35258 183.057149 
L 264.404114 182.082389 
L 264.470371 180.158521 
L 264.521905 181.77457 
L 264.639696 186.289247 
L 264.720677 186.135338 
L 264.84583 188.700495 
L 264.88264 188.13616 
L 265.103499 175.438631 
L 265.677731 114.49049 
L 265.721902 115.31134 
L 265.876503 124.828074 
L 266.494907 196.421619 
L 266.539078 197.037257 
L 266.597974 196.549877 
L 266.899814 186.545763 
L 266.95871 185.288836 
L 267.010243 186.520111 
L 267.024967 186.699672 
L 267.076501 185.85317 
L 267.105948 185.288836 
L 267.15012 186.49446 
L 267.238464 189.444391 
L 267.312083 189.213526 
L 267.363617 188.546586 
L 267.407788 189.316133 
L 267.474046 190.213938 
L 267.532941 189.777861 
L 267.555027 189.880467 
L 267.562389 189.906119 
L 267.584475 189.623952 
L 267.739076 185.211881 
L 267.908401 180.568946 
L 268.173431 170.154407 
L 268.328032 167.974023 
L 268.386927 166.845353 
L 268.467909 164.459757 
L 268.534166 165.075395 
L 268.615148 167.178824 
L 268.674043 166.588838 
L 268.740301 167.999674 
L 268.821282 167.255779 
L 268.872816 166.640141 
L 268.916988 167.204475 
L 269.101036 171.283076 
L 269.137846 170.410922 
L 269.211466 169.128344 
L 269.299809 169.692678 
L 269.314533 169.590072 
L 269.343981 169.974846 
L 269.38079 169.974846 
L 269.638459 175.002554 
L 269.807783 181.569357 
L 269.859317 179.696792 
L 269.881403 179.440277 
L 269.925575 180.491991 
L 270.043366 182.364556 
L 270.065452 181.851525 
L 270.131709 179.97896 
L 270.183243 181.158932 
L 270.28631 183.672786 
L 270.330482 182.338904 
L 270.359929 181.800221 
L 270.404101 183.467574 
L 270.595512 188.597889 
L 270.705941 190.265241 
L 270.742751 189.649603 
L 271.029867 170.231361 
L 271.582013 116.927389 
L 271.589375 116.978692 
L 271.640908 118.08171 
L 271.736614 124.879377 
L 272.119435 181.646312 
L 272.340294 195.985542 
L 272.480171 197.90941 
L 272.502256 197.601591 
L 272.767286 185.85317 
L 272.848268 183.518877 
L 272.907164 184.211469 
L 273.098574 185.36579 
L 273.128022 185.314487 
L 273.164832 185.006668 
L 273.238451 185.314487 
L 273.312071 187.700084 
L 273.370966 189.393087 
L 273.437224 188.700495 
L 273.797959 179.055503 
L 274.004094 171.154818 
L 274.107161 167.537946 
L 274.298572 163.638907 
L 274.313296 163.587603 
L 274.335381 163.792816 
L 274.497344 165.537123 
L 274.526792 165.126698 
L 274.637221 164.305848 
L 274.659307 164.459757 
L 274.990595 169.846588 
L 275.020043 169.949194 
L 275.034766 169.769633 
L 275.145196 167.255779 
L 275.211453 168.333145 
L 275.226177 168.384448 
L 275.299797 168.230538 
L 275.343968 167.92272 
L 275.366054 168.307493 
L 275.697342 179.235064 
L 275.778323 177.105983 
L 275.800409 176.439042 
L 275.851943 178.337259 
L 275.969734 180.594597 
L 275.999182 180.261127 
L 276.035991 179.82505 
L 276.065439 180.79981 
L 276.168506 182.390208 
L 276.197954 182.26195 
L 276.25685 182.698027 
L 276.374641 189.059617 
L 276.514518 190.547408 
L 276.529242 190.675666 
L 276.573414 189.931771 
L 276.794272 184.262773 
L 277.110836 151.685273 
L 277.478933 121.775537 
L 277.493657 121.672931 
L 277.537829 122.339871 
L 277.626172 129.111887 
L 278.244576 192.933005 
L 278.303471 194.933828 
L 278.362367 193.651249 
L 278.693655 180.31243 
L 278.75255 181.697615 
L 278.811446 181.518054 
L 278.877703 181.902828 
L 278.936599 181.979782 
L 279.010218 183.262361 
L 279.105924 186.00708 
L 279.231077 189.777861 
L 279.275249 189.11092 
L 279.378316 187.725735 
L 279.429849 188.084857 
L 279.444573 188.059206 
L 279.532917 185.494048 
L 280.026167 165.357562 
L 280.092425 164.716273 
L 280.136596 165.203653 
L 280.166044 165.280607 
L 280.18813 165.024092 
L 280.305921 163.125875 
L 280.335369 164.357151 
L 280.423712 167.230127 
L 280.482608 166.563186 
L 280.534142 165.537123 
L 280.585675 166.46058 
L 280.82862 171.103515 
L 280.872791 171.334379 
L 280.916963 170.872651 
L 280.990582 168.871828 
L 281.042116 170.308316 
L 281.078926 171.590895 
L 281.145183 170.616135 
L 281.233527 168.102281 
L 281.262975 169.410511 
L 281.469109 176.72121 
L 281.601624 180.338082 
L 281.631072 179.465928 
L 281.66052 178.696381 
L 281.712053 180.261127 
L 281.748863 181.569357 
L 281.837206 181.005023 
L 281.896102 179.799399 
L 281.947636 180.979371 
L 282.072789 181.415448 
L 282.131684 182.364556 
L 282.286285 187.879645 
L 282.323095 187.751387 
L 282.381991 189.418739 
L 282.499782 191.316956 
L 282.52923 190.932182 
L 282.772174 177.619015 
L 282.963584 154.635204 
L 283.331682 119.979927 
L 283.36113 120.339049 
L 283.523093 127.880612 
L 283.66297 145.60585 
L 283.979533 184.05756 
L 284.185668 194.343841 
L 284.207754 193.856461 
L 284.553765 183.980605 
L 284.590575 184.262773 
L 284.620023 184.442334 
L 284.656833 183.903651 
L 284.752538 181.851525 
L 284.804072 182.59542 
L 285.113273 189.5983 
L 285.208979 191.188698 
L 285.260512 190.367847 
L 285.437199 185.468397 
L 285.989345 165.896245 
L 286.004069 166.050155 
L 286.107136 168.307493 
L 286.151308 167.512294 
L 286.19548 165.844942 
L 286.276461 166.486231 
L 286.313271 166.332322 
L 286.526767 168.923131 
L 286.563577 169.436162 
L 286.615111 168.58966 
L 286.659282 168.025326 
L 286.696092 169.153995 
L 286.784436 170.616135 
L 286.821245 169.692678 
L 286.902227 167.050566 
L 286.968484 167.974023 
L 287.071551 168.487054 
L 287.086275 168.281842 
L 287.108361 167.897068 
L 287.152533 169.359208 
L 287.461735 176.798164 
L 287.483821 176.413391 
L 287.535354 175.028206 
L 287.579526 176.900771 
L 287.616336 178.388562 
L 287.682593 176.772513 
L 287.748851 176.182527 
L 287.763575 176.105572 
L 287.793022 176.72121 
L 288.286273 190.136983 
L 288.315721 189.803513 
L 288.610199 181.364145 
L 289.272774 121.031641 
L 289.316946 121.544673 
L 289.412651 128.444946 
L 289.714491 167.153172 
L 290.045778 193.292127 
L 290.067864 193.497339 
L 290.112036 192.548231 
L 290.539029 182.621072 
L 290.686268 181.671964 
L 290.715716 182.031086 
L 291.091175 192.625186 
L 291.135347 191.778684 
L 291.621235 173.283899 
L 291.812646 167.666204 
L 291.908351 166.691444 
L 291.959885 166.896657 
L 292.05559 165.152349 
L 292.114486 166.409277 
L 292.467859 172.232184 
L 292.526755 171.667849 
L 292.534117 171.642198 
L 292.563565 171.924365 
L 292.585651 172.026971 
L 292.615098 172.33479 
L 292.681356 171.821759 
L 292.769699 171.719153 
L 292.975834 168.794873 
L 293.005282 169.513117 
L 293.100987 172.514351 
L 293.167244 172.309139 
L 293.336569 176.669906 
L 293.380741 175.464282 
L 293.402827 175.130812 
L 293.446998 176.23383 
L 293.579514 177.798576 
L 293.586875 177.695969 
L 293.638409 176.592952 
L 293.682581 177.824227 
L 293.778286 180.851113 
L 293.859268 180.620249 
L 293.896077 181.62066 
L 294.227365 189.495694 
L 294.264175 188.674843 
L 294.62491 169.128344 
L 295.110799 123.62245 
L 295.235952 125.264151 
L 295.331657 130.62533 
L 295.935337 192.291715 
L 295.986871 191.727381 
L 296.32552 185.494048 
L 296.421225 182.236298 
L 296.480121 183.390619 
L 296.531655 183.621483 
L 296.575826 183.159755 
L 296.597912 183.057149 
L 296.634722 183.544528 
L 296.951286 191.727381 
L 296.980734 191.111743 
L 297.687481 168.204887 
L 297.79791 167.897068 
L 297.812634 168.025326 
L 297.856805 168.358796 
L 297.893615 167.820113 
L 297.945149 165.81929 
L 298.018768 167.307082 
L 298.129197 168.948783 
L 298.173369 168.307493 
L 298.224903 167.999674 
L 298.276436 168.230538 
L 298.335332 169.102692 
L 298.386866 168.358796 
L 298.453123 168.615312 
L 298.600362 166.229716 
L 298.777049 163.664558 
L 298.799135 163.767164 
L 298.953736 167.230127 
L 299.23349 177.747273 
L 299.255575 177.413802 
L 299.321833 176.23383 
L 299.366005 177.105983 
L 299.645759 184.160166 
L 299.785636 185.904473 
L 299.910789 193.317778 
L 299.969684 191.804335 
L 300.006494 190.829576 
L 300.072752 191.932593 
L 300.146371 193.497339 
L 300.183181 192.496928 
L 300.580726 164.459757 
L 301.051891 123.802011 
L 301.088701 123.494192 
L 301.118148 123.930269 
L 301.177044 126.982806 
L 301.927963 190.239589 
L 301.950048 189.829164 
L 302.347594 180.697204 
L 302.384403 180.79981 
L 302.435937 180.671552 
L 302.465385 181.005023 
L 302.52428 183.23671 
L 302.664157 187.828341 
L 302.708329 187.392265 
L 302.715691 187.366613 
L 302.737777 187.546174 
L 302.848206 190.342196 
L 302.907102 188.931359 
L 303.142684 184.083212 
L 303.326733 177.05468 
L 303.422438 173.129989 
L 303.496058 173.489111 
L 303.525505 173.104338 
L 303.687468 169.795284 
L 303.739002 170.359619 
L 303.753726 170.436574 
L 303.797897 169.974846 
L 303.842069 169.051389 
L 303.915689 169.743981 
L 303.99667 170.385271 
L 304.03348 170.026149 
L 304.107099 168.948783 
L 304.151271 169.667027 
L 304.232252 171.18047 
L 304.291148 170.333968 
L 304.548816 166.024503 
L 304.592988 166.973611 
L 304.644521 167.717507 
L 304.681331 166.819702 
L 304.762313 164.203241 
L 304.806484 166.024503 
L 305.086238 175.464282 
L 305.343906 181.415448 
L 305.365992 180.876765 
L 305.410164 179.619838 
L 305.46906 181.13328 
L 305.601575 187.777038 
L 305.667832 186.776627 
L 305.712004 188.29007 
L 305.837157 192.086503 
L 305.873967 191.650426 
L 306.131635 186.648369 
L 306.308322 177.05468 
L 306.926725 122.31422 
L 306.970897 122.878555 
L 307.051878 126.05935 
L 307.272737 146.683216 
L 307.677644 186.776627 
L 307.832245 189.162223 
L 307.854331 189.008314 
L 307.905864 188.726147 
L 307.942674 189.162223 
L 307.957398 189.290481 
L 308.008932 188.62354 
L 308.19298 182.723678 
L 308.2666 184.416682 
L 308.686231 191.932593 
L 308.745126 190.880879 
L 308.804022 189.546997 
L 308.885003 189.906119 
L 308.958623 189.26483 
L 309.488683 171.719153 
L 309.59175 170.333968 
L 309.650646 170.590483 
L 309.716904 169.384859 
L 309.731627 169.051389 
L 309.812609 169.667027 
L 309.849419 169.897891 
L 309.89359 169.590072 
L 309.96721 168.281842 
L 310.033467 169.179647 
L 310.099725 170.69309 
L 310.143897 169.538769 
L 310.217516 167.76881 
L 310.276412 168.307493 
L 310.320583 168.615312 
L 310.350031 168.179235 
L 310.482546 163.356739 
L 310.57089 164.562363 
L 310.644509 164.100635 
L 310.666595 164.51106 
L 311.019968 177.20859 
L 311.071502 176.131223 
L 311.093588 175.951662 
L 311.13776 176.541649 
L 311.483771 185.596654 
L 311.623648 188.033554 
L 311.682544 189.367436 
L 311.741439 188.751798 
L 311.807697 187.494871 
L 311.866592 188.341373 
L 311.903402 188.674843 
L 311.940212 187.725735 
L 312.396653 160.073338 
L 312.794198 125.777182 
L 312.808922 125.854137 
L 312.948799 128.393643 
L 313.1034 141.296385 
L 313.692356 188.418328 
L 313.736527 188.803101 
L 313.780699 188.161812 
L 314.082539 183.390619 
L 314.111987 183.467574 
L 314.134072 183.57018 
L 314.296035 187.084446 
L 314.391741 189.957422 
L 314.443274 189.470042 
L 314.450636 189.444391 
L 314.494808 189.5983 
L 314.612599 191.88129 
L 314.678857 190.496105 
L 315.429775 170.257013 
L 315.488671 170.846999 
L 315.547566 171.231773 
L 315.584376 170.590483 
L 315.628548 169.692678 
L 315.694805 170.436574 
L 315.746339 170.821347 
L 315.775787 170.462225 
L 315.86413 168.692267 
L 315.915664 169.487466 
L 315.996645 171.898714 
L 316.048179 170.410922 
L 316.210142 168.769222 
L 316.541429 164.459757 
L 316.556153 164.66497 
L 316.938975 176.156875 
L 316.96106 176.105572 
L 316.990508 175.951662 
L 317.012594 176.131223 
L 317.60155 190.624363 
L 317.667807 189.444391 
L 317.675169 189.418739 
L 317.711979 189.5983 
L 317.770875 190.008725 
L 317.815046 189.521345 
L 318.021181 181.979782 
L 318.345107 151.813531 
L 318.654308 126.572381 
L 318.742652 125.546318 
L 318.786824 126.085001 
L 318.889891 131.728348 
L 319.618724 188.957011 
L 319.648171 188.700495 
L 319.83222 185.699261 
L 319.927925 182.980194 
L 319.979459 183.980605 
L 320.067802 185.596654 
L 320.126698 184.929713 
L 320.163508 185.391442 
L 320.428538 190.316544 
L 320.502157 191.163046 
L 320.538967 190.598711 
L 321.2678 171.129166 
L 321.297248 171.000908 
L 321.334058 171.411334 
L 321.415039 172.668261 
L 321.451849 171.796107 
L 321.56964 169.051389 
L 321.613812 169.307905 
L 321.878842 171.257424 
L 321.900928 171.154818 
L 322.129148 168.846176 
L 322.239577 165.357562 
L 322.298473 165.81929 
L 322.342644 166.152761 
L 322.386816 165.639729 
L 322.408902 165.460168 
L 322.453074 166.075806 
L 322.592951 170.257013 
L 322.659208 170.231361 
L 322.681294 170.513529 
L 323.012582 177.439454 
L 323.130373 179.029851 
L 323.343869 182.954542 
L 323.660433 188.110509 
L 323.704605 188.187463 
L 323.7635 187.366613 
L 323.954911 182.184995 
L 324.094788 172.668261 
L 324.654296 128.111476 
L 324.70583 128.67581 
L 324.838345 135.909554 
L 325.419939 185.571003 
L 325.523006 187.725735 
L 325.567178 187.007491 
L 325.832208 182.467162 
L 325.869018 183.005845 
L 326.185581 188.572237 
L 326.251839 187.751387 
L 326.288649 187.443568 
L 326.325458 188.110509 
L 326.413802 190.162635 
L 326.465335 189.341784 
L 326.9365 175.182115 
L 326.995396 173.668672 
L 327.046929 174.951251 
L 327.091101 175.489934 
L 327.135273 174.746038 
L 327.230978 172.719564 
L 327.304597 173.053034 
L 327.643247 170.385271 
L 327.687419 171.103515 
L 327.738952 171.821759 
L 327.790486 171.052212 
L 328.151221 162.766753 
L 328.173307 163.100224 
L 328.93895 179.696792 
L 328.961036 179.619838 
L 328.983122 179.49158 
L 329.019931 179.850702 
L 329.557353 189.11092 
L 329.616249 188.392676 
L 329.873917 181.107629 
L 330.551216 125.623273 
L 330.60275 126.649336 
L 330.742627 137.936029 
L 331.368393 187.340962 
L 331.405202 186.750975 
L 331.567165 184.006257 
L 331.596613 184.083212 
L 331.640785 183.134103 
L 331.729128 180.132869 
L 331.795386 181.158932 
L 331.96471 182.800633 
L 332.273912 189.623952 
L 332.332808 188.187463 
L 332.391703 186.904885 
L 332.450599 187.700084 
L 332.494771 188.392676 
L 332.538942 187.340962 
L 332.826058 179.260716 
L 333.061641 175.695147 
L 333.091089 175.772101 
L 333.120536 175.951662 
L 333.164708 175.489934 
L 333.540167 169.820936 
L 333.584339 170.103103 
L 333.66532 170.616135 
L 333.70213 170.308316 
L 334.04078 164.02368 
L 334.129123 164.716273 
L 334.327896 169.025737 
L 334.622374 178.106395 
L 334.681269 177.516408 
L 334.718079 177.593363 
L 334.865318 180.286778 
L 335.189244 186.263595 
L 335.277587 187.956599 
L 335.336483 187.443568 
L 335.358569 187.366613 
L 335.40274 187.777038 
L 335.527893 189.700906 
L 335.579427 189.213526 
L 335.74139 183.775393 
L 335.947524 165.306259 
L 336.403965 126.136305 
L 336.448137 125.802834 
L 336.49967 126.290214 
L 336.595376 131.240968 
L 337.302123 187.212704 
L 337.338933 186.981839 
L 337.434638 185.647958 
L 337.596601 183.390619 
L 337.63341 183.493225 
L 337.677582 183.724089 
L 337.721754 183.313664 
L 337.773287 183.211058 
L 337.802735 183.390619 
L 337.876355 185.237532 
L 338.038318 187.520523 
L 338.111937 188.803101 
L 338.185557 190.213938 
L 338.23709 189.367436 
L 338.450587 186.468808 
L 338.649359 180.158521 
L 338.818684 177.516408 
L 338.87758 176.490345 
L 339.098438 172.97608 
L 339.363468 170.564832 
L 339.37083 170.590483 
L 339.44445 171.02656 
L 339.510707 170.795696 
L 339.569603 170.20571 
L 339.650584 168.871828 
L 339.886167 164.434105 
L 339.959786 164.536712 
L 340.158559 166.614489 
L 340.511932 177.490757 
L 340.54138 177.157286 
L 340.563466 176.977725 
L 340.600275 177.619015 
L 340.659171 179.106806 
L 340.747514 178.85029 
L 340.813772 178.491168 
L 340.84322 178.901593 
L 341.056716 182.518465 
L 341.424814 189.983074 
L 341.505795 188.469631 
L 341.653034 184.262773 
L 341.94015 155.302145 
L 342.264076 127.059761 
L 342.337695 125.982395 
L 342.381867 126.674988 
L 342.50702 133.985686 
L 342.80886 164.074983 
L 343.154871 185.596654 
L 343.199043 185.85317 
L 343.243215 185.442745 
L 343.500883 181.518054 
L 343.508245 181.543706 
L 343.589226 181.902828 
L 343.662846 181.697615 
L 343.699656 181.518054 
L 343.721741 181.77457 
L 344.119287 188.264418 
L 344.141372 188.238767 
L 344.20763 188.315721 
L 344.251802 188.264418 
L 344.318059 187.058794 
L 344.708242 178.260304 
L 344.81131 176.772513 
L 345.164683 171.667849 
L 345.201493 171.539592 
L 345.260389 171.796107 
L 345.282474 172.078275 
L 345.356094 171.565243 
L 345.422351 170.359619 
L 345.657934 166.357973 
L 345.812535 163.587603 
L 345.915602 164.17759 
L 346.070203 167.820113 
L 346.335233 175.464282 
L 346.548729 178.132046 
L 346.570815 177.87553 
L 346.681245 177.131635 
L 346.70333 177.285544 
L 346.769588 180.132869 
L 346.835845 182.364556 
L 346.909465 181.877176 
L 346.938913 181.748918 
L 346.960999 182.133692 
L 347.30701 190.521757 
L 347.329096 190.41915 
L 347.491059 187.700084 
L 347.601488 179.517231 
L 348.205168 126.572381 
L 348.227254 126.726291 
L 348.330321 129.701873 
L 348.507008 143.528072 
L 348.978172 184.955365 
L 349.066516 186.391853 
L 349.118049 186.186641 
L 349.456699 181.77457 
L 349.552404 182.723678 
L 350.038293 190.880879 
L 350.10455 190.444802 
L 350.192894 189.187875 
L 350.627249 179.183761 
L 350.649335 179.33767 
L 350.664058 179.363322 
L 350.686144 179.158109 
L 351.142585 172.540003 
L 351.172033 172.591306 
L 351.385529 169.205298 
L 351.738903 162.279373 
L 351.768351 162.407631 
L 351.80516 162.869359 
L 352.283687 174.540826 
L 352.320497 173.129989 
L 352.37203 171.539592 
L 352.430926 173.155641 
L 352.526631 175.772101 
L 352.585527 175.130812 
L 352.629699 176.07992 
L 353.196569 192.85605 
L 353.24074 192.137806 
L 353.483685 182.415859 
L 354.065278 128.265385 
L 354.168346 126.803245 
L 354.205155 127.52149 
L 354.381842 141.527249 
L 354.985522 186.750975 
L 355.000246 186.776627 
L 355.01497 186.622717 
L 355.353619 181.748918 
L 355.383067 181.800221 
L 355.618649 185.417093 
L 355.898403 190.829576 
L 355.964661 189.700906 
L 356.479997 179.82505 
L 356.60515 177.465105 
L 356.884905 172.693912 
L 356.899628 172.540003 
L 356.958524 173.30955 
L 356.987972 173.258247 
L 357.076315 171.257424 
L 357.58429 160.663324 
L 357.606375 160.894188 
L 357.871406 167.28143 
L 357.959749 171.206121 
L 358.04073 171.18047 
L 358.106988 172.97608 
L 358.180607 174.822993 
L 358.224779 173.335202 
L 358.261589 172.873473 
L 358.30576 173.873885 
L 358.423552 176.156875 
L 358.452999 175.566889 
L 358.482447 175.310373 
L 358.519257 175.926011 
L 359.100851 192.240412 
L 359.122937 191.829987 
L 359.387967 180.415036 
L 359.947475 130.189253 
L 359.991647 130.343163 
L 360.035818 130.420117 
L 360.1168 132.267031 
L 360.271401 143.143298 
L 360.830909 183.954954 
L 360.897166 184.698849 
L 360.956062 184.160166 
L 361.221092 180.748507 
L 361.287349 181.081977 
L 361.493484 184.339727 
L 361.810048 190.624363 
L 361.883667 190.188286 
L 362.067716 186.135338 
L 362.627224 175.10516 
L 362.656672 175.028206 
L 362.722929 173.79693 
L 362.803911 171.667849 
L 362.884892 171.796107 
L 362.987959 169.615723 
L 363.054217 168.512706 
L 363.127836 168.640964 
L 363.17937 167.589249 
L 363.488572 161.176355 
L 363.51802 161.663735 
L 363.856669 171.898714 
L 363.915565 171.693501 
L 363.967098 172.770867 
L 364.077528 175.361676 
L 364.114337 174.181704 
L 364.165871 173.206944 
L 364.210043 174.309962 
L 364.320472 176.285133 
L 364.357282 175.772101 
L 364.379368 175.643843 
L 364.408815 176.259481 
L 364.997771 193.548643 
L 365.012495 193.522991 
L 365.167096 190.855227 
L 365.262801 184.006257 
L 365.873843 129.676222 
L 365.947463 128.778417 
L 365.991634 129.471009 
L 366.175683 141.681159 
L 366.801448 183.23671 
L 366.84562 182.723678 
L 367.18427 179.619838 
L 367.206356 179.927656 
L 367.684882 189.316133 
L 367.736416 188.77745 
L 369.091014 168.358796 
L 369.282425 163.510649 
L 369.37813 161.612432 
L 369.422302 162.356328 
L 369.827209 170.616135 
L 369.930276 172.103926 
L 369.967086 172.33479 
L 370.003896 171.796107 
L 370.048068 171.283076 
L 370.092239 171.975668 
L 370.202668 173.668672 
L 370.24684 173.412157 
L 370.261564 173.360853 
L 370.291012 173.848233 
L 370.58549 183.724089 
L 370.88733 193.189521 
L 370.909415 193.138217 
L 371.064016 190.496105 
L 371.181808 182.723678 
L 371.844383 129.009281 
L 371.859107 129.111887 
L 371.925364 131.369226 
L 372.160947 149.145767 
L 372.529044 178.875942 
L 372.691007 182.467162 
L 372.727817 182.338904 
L 373.014933 179.619838 
L 373.051742 180.055914 
L 373.464011 189.11092 
L 373.559717 190.598711 
L 373.603888 190.265241 
L 373.68487 189.572648 
L 373.729042 189.931771 
L 373.751127 189.983074 
L 373.780575 189.623952 
L 374.170758 182.74933 
L 374.266464 181.415448 
L 374.641923 173.976491 
L 374.678733 174.027794 
L 374.730266 173.386505 
L 375.201431 162.074161 
L 375.282413 160.945491 
L 375.326584 161.561129 
L 375.886092 172.770867 
L 375.893454 172.745216 
L 375.974436 172.00132 
L 376.025969 172.514351 
L 376.232104 176.875119 
L 376.806336 194.677312 
L 376.843146 194.574706 
L 376.931489 192.548231 
L 377.071366 183.929302 
L 377.343758 154.660855 
L 377.660322 130.881846 
L 377.733941 130.317511 
L 377.770751 130.676633 
L 377.859094 133.960035 
L 378.087315 152.660033 
L 378.477498 179.235064 
L 378.587927 181.158932 
L 378.639461 180.748507 
L 378.889767 178.798987 
L 378.919215 178.952897 
L 379.081178 180.774158 
L 379.405103 189.803513 
L 379.478723 190.983485 
L 379.530257 190.342196 
L 379.832096 186.981839 
L 379.905716 186.391853 
L 380.686082 170.975257 
L 381.05418 161.945903 
L 381.171971 159.688564 
L 381.230867 160.688976 
L 381.702031 170.821347 
L 382.033319 175.387328 
L 382.232092 181.77457 
L 382.695894 195.318601 
L 382.740066 195.575117 
L 382.769514 195.13904 
L 382.938839 186.49446 
L 383.211231 157.354271 
L 383.542518 130.112299 
L 383.594052 129.3171 
L 383.652947 130.060995 
L 383.778101 134.85784 
L 383.947425 148.22231 
L 384.330247 177.029029 
L 384.470124 180.132869 
L 384.514295 179.82505 
L 384.573191 179.696792 
L 384.602639 179.902005 
L 384.639449 179.97896 
L 384.668896 179.594186 
L 384.794049 178.132046 
L 384.830859 178.798987 
L 385.353557 190.342196 
L 385.368281 190.290893 
L 385.478711 189.213526 
L 385.544968 189.5983 
L 385.567054 189.495694 
L 385.684845 186.314899 
L 385.729017 186.032731 
L 385.802636 186.186641 
L 385.868894 185.006668 
L 386.045581 182.390208 
L 386.133924 180.389385 
L 386.465212 174.181704 
L 386.553555 172.232184 
L 386.9511 162.022857 
L 386.980548 161.920251 
L 387.090977 160.714627 
L 387.127787 161.227659 
L 387.694657 172.97608 
L 387.709381 172.924777 
L 387.768276 172.540003 
L 387.805086 172.899125 
L 388.268889 184.852759 
L 388.607538 194.497751 
L 388.644348 194.16428 
L 388.732692 192.240412 
L 388.894654 181.825873 
L 389.498334 130.240556 
L 389.542506 129.522312 
L 389.59404 130.599679 
L 389.78545 141.988978 
L 390.337596 179.183761 
L 390.38913 179.440277 
L 390.440664 179.158109 
L 390.462749 179.132458 
L 390.492197 179.33767 
L 390.565817 179.722444 
L 390.609988 179.414625 
L 390.683608 178.824639 
L 390.720418 179.235064 
L 390.978086 185.545351 
L 391.265202 191.804335 
L 391.331459 191.240001 
L 392.163359 178.132046 
L 392.99526 161.484174 
L 393.039431 162.074161 
L 393.598939 171.565243 
L 393.679921 171.642198 
L 393.849245 174.566477 
L 394.143723 183.005845 
L 394.497097 194.215584 
L 394.541269 194.112977 
L 394.58544 193.625597 
L 394.703231 188.854404 
L 394.953538 165.203653 
L 395.321635 132.728759 
L 395.439426 130.394466 
L 395.476236 130.984452 
L 395.608751 137.576907 
L 395.903229 161.535477 
L 396.219793 178.798987 
L 396.28605 180.107217 
L 396.352308 179.645489 
L 396.595252 178.978548 
L 396.609976 179.106806 
L 396.823472 182.492814 
L 397.184208 190.598711 
L 397.250465 190.265241 
L 397.824697 183.108452 
L 398.421015 170.795696 
L 398.487273 168.717918 
L 398.487273 168.717918 
" clip-path="url(#pc558b0f195)" style="fill: none; stroke: #1f77b4; stroke-width: 1.5; stroke-linecap: square"/>
   </g>
   <g id="patch_3">
    <path d="M 57.6 307.584 
L 57.6 41.472 
" style="fill: none; stroke: #000000; stroke-width: 0.8; stroke-linejoin: miter; stroke-linecap: square"/>
   </g>
   <g id="patch_4">
    <path d="M 414.72 307.584 
L 414.72 41.472 
" style="fill: none; stroke: #000000; stroke-width: 0.8; stroke-linejoin: miter; stroke-linecap: square"/>
   </g>
   <g id="patch_5">
    <path d="M 57.6 307.584 
L 414.72 307.584 
" style="fill: none; stroke: #000000; stroke-width: 0.8; stroke-linejoin: miter; stroke-linecap: square"/>
   </g>
   <g id="patch_6">
    <path d="M 57.6 41.472 
L 414.72 41.472 
" style="fill: none; stroke: #000000; stroke-width: 0.8; stroke-linejoin: miter; stroke-linecap: square"/>
   </g>
   <g id="text_14">
    <text style="font: 12px 'IPAexGothic'; text-anchor: middle" x="236.16" y="35.472" transform="rotate(-0 236.16 35.472)">"038_A1.wav"の波形グラフ</text>
   </g>
  </g>
 </g>
 <defs>
  <clipPath id="pc558b0f195">
   <rect x="57.6" y="41.472" width="357.12" height="266.112"/>
  </clipPath>
 </defs>
</svg>
