<?xml version="1.0" encoding="utf-8" standalone="no"?>
<!DOCTYPE svg PUBLIC "-//W3C//DTD SVG 1.1//EN"
  "http://www.w3.org/Graphics/SVG/1.1/DTD/svg11.dtd">
<svg xmlns:xlink="http://www.w3.org/1999/xlink" width="460.8pt" height="345.6pt" viewBox="0 0 460.8 345.6" xmlns="http://www.w3.org/2000/svg" version="1.1">
 <metadata>
  <rdf:RDF xmlns:dc="http://purl.org/dc/elements/1.1/" xmlns:cc="http://creativecommons.org/ns#" xmlns:rdf="http://www.w3.org/1999/02/22-rdf-syntax-ns#">
   <cc:Work>
    <dc:type rdf:resource="http://purl.org/dc/dcmitype/StillImage"/>
    <dc:date>2022-11-28T12:33:24.066504</dc:date>
    <dc:format>image/svg+xml</dc:format>
    <dc:creator>
     <cc:Agent>
      <dc:title>Matplotlib v3.6.2, https://matplotlib.org/</dc:title>
     </cc:Agent>
    </dc:creator>
   </cc:Work>
  </rdf:RDF>
 </metadata>
 <defs>
  <style type="text/css">*{stroke-linejoin: round; stroke-linecap: butt}</style>
 </defs>
 <g id="figure_1">
  <g id="patch_1">
   <path d="M 0 345.6 
L 460.8 345.6 
L 460.8 0 
L 0 0 
z
" style="fill: #ffffff"/>
  </g>
  <g id="axes_1">
   <g id="patch_2">
    <path d="M 57.6 307.584 
L 414.72 307.584 
L 414.72 41.472 
L 57.6 41.472 
z
" style="fill: #ffffff"/>
   </g>
   <g id="matplotlib.axis_1">
    <g id="xtick_1">
     <g id="line2d_1">
      <defs>
       <path id="m5400361235" d="M 0 0 
L 0 3.5 
" style="stroke: #000000; stroke-width: 0.8"/>
      </defs>
      <g>
       <use xlink:href="#m5400361235" x="73.832727" y="307.584" style="stroke: #000000; stroke-width: 0.8"/>
      </g>
     </g>
     <g id="text_1">
      <text style="font: 10px 'IPAexGothic'; text-anchor: middle" x="73.832727" y="322.074625" transform="rotate(-0 73.832727 322.074625)">0.0</text>
     </g>
    </g>
    <g id="xtick_2">
     <g id="line2d_2">
      <g>
       <use xlink:href="#m5400361235" x="138.765109" y="307.584" style="stroke: #000000; stroke-width: 0.8"/>
      </g>
     </g>
     <g id="text_2">
      <text style="font: 10px 'IPAexGothic'; text-anchor: middle" x="138.765109" y="322.074625" transform="rotate(-0 138.765109 322.074625)">0.2</text>
     </g>
    </g>
    <g id="xtick_3">
     <g id="line2d_3">
      <g>
       <use xlink:href="#m5400361235" x="203.69749" y="307.584" style="stroke: #000000; stroke-width: 0.8"/>
      </g>
     </g>
     <g id="text_3">
      <text style="font: 10px 'IPAexGothic'; text-anchor: middle" x="203.69749" y="322.074625" transform="rotate(-0 203.69749 322.074625)">0.4</text>
     </g>
    </g>
    <g id="xtick_4">
     <g id="line2d_4">
      <g>
       <use xlink:href="#m5400361235" x="268.629872" y="307.584" style="stroke: #000000; stroke-width: 0.8"/>
      </g>
     </g>
     <g id="text_4">
      <text style="font: 10px 'IPAexGothic'; text-anchor: middle" x="268.629872" y="322.074625" transform="rotate(-0 268.629872 322.074625)">0.6</text>
     </g>
    </g>
    <g id="xtick_5">
     <g id="line2d_5">
      <g>
       <use xlink:href="#m5400361235" x="333.562253" y="307.584" style="stroke: #000000; stroke-width: 0.8"/>
      </g>
     </g>
     <g id="text_5">
      <text style="font: 10px 'IPAexGothic'; text-anchor: middle" x="333.562253" y="322.074625" transform="rotate(-0 333.562253 322.074625)">0.8</text>
     </g>
    </g>
    <g id="xtick_6">
     <g id="line2d_6">
      <g>
       <use xlink:href="#m5400361235" x="398.494635" y="307.584" style="stroke: #000000; stroke-width: 0.8"/>
      </g>
     </g>
     <g id="text_6">
      <text style="font: 10px 'IPAexGothic'; text-anchor: middle" x="398.494635" y="322.074625" transform="rotate(-0 398.494635 322.074625)">1.0</text>
     </g>
    </g>
    <g id="text_7">
     <text style="font: 10px 'IPAexGothic'; text-anchor: middle" x="236.16" y="335.924625" transform="rotate(-0 236.16 335.924625)">時間[s]</text>
    </g>
   </g>
   <g id="matplotlib.axis_2">
    <g id="ytick_1">
     <g id="line2d_7">
      <defs>
       <path id="m10a32c904d" d="M 0 0 
L -3.5 0 
" style="stroke: #000000; stroke-width: 0.8"/>
      </defs>
      <g>
       <use xlink:href="#m10a32c904d" x="57.6" y="276.004855" style="stroke: #000000; stroke-width: 0.8"/>
      </g>
     </g>
     <g id="text_8">
      <text style="font: 10px 'IPAexGothic'; text-anchor: end" x="50.6" y="279.750168" transform="rotate(-0 50.6 279.750168)">−4000</text>
     </g>
    </g>
    <g id="ytick_2">
     <g id="line2d_8">
      <g>
       <use xlink:href="#m10a32c904d" x="57.6" y="224.59814" style="stroke: #000000; stroke-width: 0.8"/>
      </g>
     </g>
     <g id="text_9">
      <text style="font: 10px 'IPAexGothic'; text-anchor: end" x="50.6" y="228.343453" transform="rotate(-0 50.6 228.343453)">−2000</text>
     </g>
    </g>
    <g id="ytick_3">
     <g id="line2d_9">
      <g>
       <use xlink:href="#m10a32c904d" x="57.6" y="173.191425" style="stroke: #000000; stroke-width: 0.8"/>
      </g>
     </g>
     <g id="text_10">
      <text style="font: 10px 'IPAexGothic'; text-anchor: end" x="50.6" y="176.936738" transform="rotate(-0 50.6 176.936738)">0</text>
     </g>
    </g>
    <g id="ytick_4">
     <g id="line2d_10">
      <g>
       <use xlink:href="#m10a32c904d" x="57.6" y="121.784711" style="stroke: #000000; stroke-width: 0.8"/>
      </g>
     </g>
     <g id="text_11">
      <text style="font: 10px 'IPAexGothic'; text-anchor: end" x="50.6" y="125.530023" transform="rotate(-0 50.6 125.530023)">2000</text>
     </g>
    </g>
    <g id="ytick_5">
     <g id="line2d_11">
      <g>
       <use xlink:href="#m10a32c904d" x="57.6" y="70.377996" style="stroke: #000000; stroke-width: 0.8"/>
      </g>
     </g>
     <g id="text_12">
      <text style="font: 10px 'IPAexGothic'; text-anchor: end" x="50.6" y="74.123308" transform="rotate(-0 50.6 74.123308)">4000</text>
     </g>
    </g>
    <g id="text_13">
     <text style="font: 10px 'IPAexGothic'; text-anchor: middle" x="12.723438" y="174.528" transform="rotate(-90 12.723438 174.528)">振幅</text>
    </g>
   </g>
   <g id="line2d_12">
    <path d="M 73.832727 172.497435 
L 73.847451 173.319942 
L 73.898985 170.77531 
L 74.193463 150.855208 
L 74.244996 147.616585 
L 74.29653 151.009428 
L 74.591008 177.278259 
L 74.59837 177.098336 
L 74.664627 171.674927 
L 74.981191 149.72426 
L 75.018001 151.446385 
L 75.157878 170.569683 
L 75.422908 236.601608 
L 75.511251 226.320265 
L 75.805729 171.700631 
L 75.820453 177.920843 
L 75.96033 190.901039 
L 76.004502 200.694018 
L 76.114931 217.32409 
L 76.181189 212.080605 
L 76.556648 160.879517 
L 76.659715 162.781566 
L 76.689163 161.830541 
L 76.703887 164.220954 
L 76.895298 181.981974 
L 76.939469 185.529037 
L 77.005727 182.213304 
L 77.042537 183.241438 
L 77.13088 175.736058 
L 77.322291 162.884379 
L 77.417996 163.65548 
L 77.425358 163.604073 
L 77.454806 164.066734 
L 77.602045 167.613797 
L 77.771369 165.480418 
L 77.800817 166.534256 
L 77.844989 164.863538 
L 77.992228 160.13412 
L 78.006952 160.28834 
L 78.014314 160.545374 
L 78.0364 159.363019 
L 78.080571 159.671459 
L 78.183639 157.178234 
L 78.205724 158.077851 
L 78.411859 170.107023 
L 78.433945 169.772879 
L 78.448669 169.875692 
L 78.485478 171.39219 
L 78.551736 169.670065 
L 79.103882 153.579764 
L 79.354188 99.96256 
L 79.420446 53.568 
L 79.552961 54.287694 
L 79.560323 54.287694 
L 79.714924 198.097979 
L 79.803267 278.163937 
L 79.869525 235.213627 
L 79.884249 229.713108 
L 79.92842 266.905867 
L 79.935782 267.522747 
L 79.943144 264.901005 
L 80.127193 183.421362 
L 80.149279 186.505765 
L 80.164003 177.355369 
L 80.215536 208.867686 
L 80.237622 197.558208 
L 80.370137 235.16222 
L 80.480566 253.411604 
L 80.399585 235.008 
L 80.49529 240.534222 
L 80.576272 221.590847 
L 80.554186 251.201115 
L 80.590996 247.551238 
L 80.598357 262.639109 
L 80.635167 204.960775 
L 80.679339 216.424473 
L 80.848664 156.330023 
L 80.856026 164.246657 
L 80.87075 183.447065 
L 80.944369 153.888204 
L 80.959093 157.897928 
L 80.966455 157.07542 
L 80.973817 161.085144 
L 80.988541 172.703062 
L 81.040074 141.601999 
L 81.084246 164.169547 
L 81.091608 165.865969 
L 81.121056 151.806232 
L 81.143142 143.169904 
L 81.179951 166.94551 
L 81.224123 151.549198 
L 81.305105 171.032343 
L 81.268295 151.523495 
L 81.32719 156.175803 
L 81.356638 147.925025 
L 81.415534 166.791289 
L 81.422896 166.071595 
L 81.562773 134.919126 
L 81.577497 140.265425 
L 81.584859 140.908008 
L 81.606944 135.536007 
L 81.790993 65.057401 
L 81.827803 72.177231 
L 81.835165 71.09769 
L 81.864613 79.965348 
L 81.886698 76.521098 
L 82.019213 147.539475 
L 82.166452 242.12783 
L 82.188538 222.567575 
L 82.372587 145.81735 
L 82.379949 149.287303 
L 82.409397 135.33038 
L 82.600807 242.898931 
L 82.740684 295.488 
L 82.792218 294.254239 
L 83.130868 167.87083 
L 83.167677 184.835046 
L 83.182401 189.256024 
L 83.226573 162.781566 
L 83.233935 157.743708 
L 83.314916 174.06534 
L 83.322278 174.013933 
L 83.469517 122.478701 
L 83.484241 129.958378 
L 83.506327 144.069521 
L 83.572584 117.95491 
L 83.587308 113.945187 
L 83.638842 133.788178 
L 83.690376 128.544694 
L 83.948044 193.368561 
L 84.051111 176.070201 
L 84.095283 186.659985 
L 84.117369 191.877766 
L 84.154178 172.857282 
L 84.183626 159.90279 
L 84.249884 180.208442 
L 84.257246 182.316117 
L 84.294055 161.907652 
L 84.323503 151.369275 
L 84.389761 169.927099 
L 84.397123 170.004209 
L 84.654791 86.828144 
L 84.72841 114.382144 
L 84.735772 114.27933 
L 84.779944 87.085178 
L 84.824116 114.639177 
L 85.162765 257.601251 
L 85.192213 240.225782 
L 85.221661 206.245943 
L 85.29528 242.076423 
L 85.302642 243.438701 
L 85.339452 234.77667 
L 85.3689 239.017724 
L 85.435157 223.235862 
L 85.471967 242.307754 
L 85.494053 255.750609 
L 85.545587 218.763478 
L 85.56031 221.719364 
L 85.759083 141.422076 
L 85.604482 222.027805 
L 85.854788 156.407133 
L 85.86215 156.45854 
L 85.876874 159.799976 
L 85.89896 141.319262 
L 85.965218 123.326912 
L 85.994665 149.2616 
L 86.009389 157.589487 
L 86.083009 134.302246 
L 86.097733 127.131009 
L 86.141904 153.502654 
L 86.16399 150.392547 
L 86.362763 184.141056 
L 86.267057 148.696126 
L 86.377487 180.773916 
L 86.414296 162.216092 
L 86.487916 179.411638 
L 86.510002 184.192462 
L 86.590983 180.079925 
L 86.613069 175.658948 
L 86.657241 184.243869 
L 86.69405 180.825323 
L 86.723498 178.023657 
L 86.760308 181.442203 
L 86.811842 195.322016 
L 86.863375 178.743351 
L 86.885461 175.864575 
L 86.914909 191.235182 
L 86.936995 202.570363 
L 86.99589 174.348076 
L 87.010614 170.184133 
L 87.06951 184.603716 
L 87.091596 180.336959 
L 87.224111 159.054579 
L 87.238835 163.269929 
L 87.275644 175.710354 
L 87.327178 151.549198 
L 87.408159 154.427975 
L 87.496503 115.178948 
L 87.518589 118.983045 
L 87.555398 110.269606 
L 87.592208 94.539152 
L 87.67319 105.951442 
L 88.004477 270.941294 
L 87.709999 104.177911 
L 88.136992 245.57208 
L 88.269507 186.120214 
L 88.173802 248.887813 
L 88.298955 198.226496 
L 88.321041 205.063589 
L 88.350489 173.011502 
L 88.475642 146.871187 
L 88.483004 145.123359 
L 88.512452 163.244226 
L 88.549261 186.351544 
L 88.600795 146.537044 
L 88.608157 145.149062 
L 88.630243 154.813525 
L 88.674414 194.550915 
L 88.762758 183.472768 
L 88.829015 165.840265 
L 88.873187 182.521744 
L 88.880549 184.166759 
L 88.909997 169.695769 
L 88.96153 145.251876 
L 89.013064 168.873261 
L 89.042512 175.299101 
L 89.094046 159.157392 
L 89.101407 158.437698 
L 89.138217 163.141413 
L 89.211837 176.892709 
L 89.26337 167.768017 
L 89.285456 166.714179 
L 89.314904 169.849989 
L 89.513677 188.330703 
L 89.521038 188.176483 
L 89.572572 167.79372 
L 89.616744 188.69055 
L 89.646192 199.049003 
L 89.697725 173.114315 
L 89.727173 186.351544 
L 89.800793 194.113958 
L 89.837602 187.199755 
L 89.918584 177.997953 
L 89.955393 185.991697 
L 89.962755 187.122645 
L 89.999565 176.867006 
L 90.036375 159.028875 
L 90.117356 172.086181 
L 90.456006 93.382501 
L 90.492816 112.968459 
L 90.50754 119.959772 
L 90.566435 97.366521 
L 90.581159 98.574579 
L 90.603245 93.511017 
L 90.625331 115.127541 
L 90.787294 205.526249 
L 90.868275 268.576585 
L 90.956618 242.487677 
L 90.986066 252.717613 
L 91.022876 224.75236 
L 91.184839 150.058404 
L 91.199563 154.736415 
L 91.221648 163.295633 
L 91.280544 138.92885 
L 91.295268 135.356083 
L 91.332078 152.551629 
L 91.449869 186.017401 
L 91.471955 181.005246 
L 91.501403 176.173015 
L 91.538212 191.286589 
L 91.575022 214.291094 
L 91.64128 185.63185 
L 91.817966 160.879517 
L 91.707537 194.679432 
L 91.825328 161.547805 
L 91.8695 169.567252 
L 91.928395 162.627346 
L 91.950481 158.489105 
L 92.024101 165.737452 
L 92.053549 170.85242 
L 92.119806 164.220954 
L 92.149254 158.103555 
L 92.186064 170.518276 
L 92.259683 157.949334 
L 92.318579 184.912156 
L 92.325941 185.888884 
L 92.36275 179.206011 
L 92.39956 165.557528 
L 92.458456 182.136194 
L 92.539437 187.533899 
L 92.502627 180.542586 
L 92.568885 183.524175 
L 92.583609 181.467907 
L 92.635142 189.692981 
L 92.66459 200.925348 
L 92.723486 180.105629 
L 92.730848 180.105629 
L 92.782381 193.419968 
L 92.833915 178.537724 
L 92.848639 172.908688 
L 92.885449 181.827754 
L 92.944344 178.794757 
L 93.238822 139.777061 
L 93.334528 115.178948 
L 93.371337 124.277936 
L 93.452319 89.938251 
L 93.489128 115.898642 
L 93.717349 241.588059 
L 93.739435 233.877052 
L 93.790968 219.868722 
L 93.813054 236.318871 
L 93.83514 250.815565 
L 93.894036 210.58981 
L 94.011827 164.940648 
L 94.041275 169.233108 
L 94.055998 169.464439 
L 94.070722 167.79372 
L 94.13698 138.748926 
L 94.195875 160.314043 
L 94.431458 202.904507 
L 94.453544 198.277902 
L 94.490353 187.559602 
L 94.563973 194.910762 
L 94.578697 195.758973 
L 94.600783 191.646436 
L 94.718574 169.207405 
L 94.748022 173.191425 
L 94.762745 174.553703 
L 94.799555 165.506122 
L 94.829003 157.07542 
L 94.887899 173.165722 
L 94.909984 176.738489 
L 94.946794 163.090006 
L 94.961518 158.977469 
L 95.020414 177.535293 
L 95.094033 158.309181 
L 95.167653 172.651655 
L 95.211824 176.687082 
L 95.263358 171.700631 
L 95.300168 167.742314 
L 95.329615 176.173015 
L 95.359063 188.099373 
L 95.410597 171.674927 
L 95.447407 181.133763 
L 95.49894 192.006283 
L 95.579922 187.533899 
L 95.602008 191.363699 
L 95.624093 195.938897 
L 95.690351 185.220597 
L 95.771332 190.258455 
L 95.83759 169.413032 
L 95.881762 175.042067 
L 95.918571 179.977112 
L 95.962743 166.791289 
L 95.984829 161.239364 
L 96.06581 168.462008 
L 96.109982 149.235896 
L 96.294031 101.967422 
L 96.323478 95.82432 
L 96.36765 107.596457 
L 96.662128 231.229606 
L 96.676852 230.175769 
L 96.713662 235.727694 
L 96.743109 240.380002 
L 96.772557 230.278582 
L 96.956606 167.973644 
L 97.030225 147.025408 
L 97.081759 163.038599 
L 97.258446 193.779815 
L 97.27317 194.859356 
L 97.339427 190.052828 
L 97.354151 189.564464 
L 97.420409 191.492216 
L 97.457218 197.121251 
L 97.494028 187.842339 
L 97.655991 164.940648 
L 97.663353 164.812131 
L 97.670715 165.917375 
L 97.729611 177.432479 
L 97.781144 166.302926 
L 97.817954 171.109453 
L 97.854764 173.679789 
L 97.921021 172.111884 
L 97.987279 155.918769 
L 98.03145 169.515845 
L 98.060898 174.553703 
L 98.112432 162.524532 
L 98.119794 161.907652 
L 98.156604 167.510983 
L 98.244947 176.224422 
L 98.274395 172.266105 
L 98.281757 171.23797 
L 98.318566 181.390796 
L 98.480529 202.54466 
L 98.487891 202.724583 
L 98.495253 201.902076 
L 98.546787 189.461651 
L 98.613044 198.971893 
L 98.67194 183.447065 
L 98.70875 174.656517 
L 98.767645 183.986836 
L 98.789731 180.516882 
L 98.988504 153.219917 
L 99.179914 100.913584 
L 99.224086 119.085858 
L 99.621631 236.498795 
L 99.290344 110.2182 
L 99.695251 216.193142 
L 99.908747 150.135514 
L 99.945557 159.260206 
L 100.166415 195.142093 
L 100.173777 194.885059 
L 100.232673 182.367524 
L 100.276845 195.270609 
L 100.29893 198.740563 
L 100.343102 185.451927 
L 100.424083 189.564464 
L 100.475617 177.149742 
L 100.681752 161.265068 
L 100.711199 168.204974 
L 100.748009 177.535293 
L 100.806905 164.837834 
L 100.851076 158.129258 
L 100.90261 166.791289 
L 100.932058 169.233108 
L 100.983592 162.113278 
L 100.990953 161.959058 
L 101.005677 163.475556 
L 101.16764 175.813168 
L 101.189726 177.381073 
L 101.219174 174.193856 
L 101.248622 168.847558 
L 101.300155 180.516882 
L 101.344327 188.819067 
L 101.403223 180.414069 
L 101.410585 180.002815 
L 101.43267 184.218166 
L 101.476842 201.645042 
L 101.535738 184.089649 
L 101.550462 182.753074 
L 101.601995 187.405382 
L 101.631443 185.940291 
L 101.741872 167.690907 
L 101.778682 179.694375 
L 101.800768 183.961132 
L 101.837578 164.940648 
L 101.874387 149.49293 
L 101.955369 158.617622 
L 102.183589 106.414103 
L 102.190951 105.848629 
L 102.235123 110.60375 
L 102.529601 234.802373 
L 102.662116 213.134443 
L 102.787269 163.861107 
L 102.816717 158.103555 
L 102.86825 166.097299 
L 102.890336 165.197681 
L 102.934508 157.743708 
L 102.963956 165.968782 
L 103.111195 184.732233 
L 103.192176 188.664847 
L 103.221624 185.40052 
L 103.383587 170.286946 
L 103.302605 188.150779 
L 103.413034 172.163291 
L 103.457206 175.324804 
L 103.494016 169.721472 
L 103.552911 162.087575 
L 103.597083 170.646793 
L 103.633893 177.81803 
L 103.685426 166.174409 
L 103.707512 163.398446 
L 103.759046 170.749606 
L 103.788494 167.40817 
L 103.825303 163.42415 
L 103.869475 170.004209 
L 103.884199 171.366487 
L 103.943095 165.377605 
L 103.972542 164.709317 
L 103.994628 165.660342 
L 104.053524 177.406776 
L 104.097696 165.557528 
L 104.119781 162.293202 
L 104.156591 175.324804 
L 104.289106 187.251162 
L 104.37745 202.750286 
L 104.414259 193.137231 
L 104.443707 186.994128 
L 104.495241 201.850669 
L 104.502603 203.00732 
L 104.53205 195.219203 
L 104.583584 174.68222 
L 104.649842 187.919449 
L 104.892786 148.336279 
L 105.091559 107.493644 
L 105.106282 108.161931 
L 105.216712 134.893423 
L 105.415484 226.011825 
L 105.533275 217.504014 
L 105.540637 217.529717 
L 105.547999 217.16987 
L 105.584809 214.676644 
L 105.783582 155.867363 
L 105.827753 160.853814 
L 106.026526 188.202186 
L 106.063336 184.346683 
L 106.092783 181.699237 
L 106.159041 186.120214 
L 106.173765 186.865612 
L 106.210575 182.907295 
L 106.26947 171.08375 
L 106.335728 179.514451 
L 106.365176 173.319942 
L 106.409347 162.653049 
L 106.475605 173.422756 
L 106.549224 175.324804 
L 106.600758 173.628382 
L 106.703825 165.120571 
L 106.740635 170.62109 
L 106.762721 173.962526 
L 106.806892 159.285909 
L 106.821616 156.484243 
L 106.865788 169.335922 
L 106.895236 174.887847 
L 106.954131 165.994485 
L 106.968855 167.048323 
L 107.094008 186.017401 
L 107.13818 176.018795 
L 107.152904 174.939254 
L 107.182352 185.529037 
L 107.226523 201.696449 
L 107.292781 186.608578 
L 107.359039 200.411281 
L 107.410572 189.744388 
L 107.454744 181.673533 
L 107.528363 187.276865 
L 107.579897 179.925705 
L 107.660878 170.595386 
L 107.712412 175.119177 
L 107.771308 160.36545 
L 108.014252 107.31372 
L 108.058424 115.358871 
L 108.27192 200.976755 
L 108.411797 225.909011 
L 108.433883 229.096228 
L 108.485417 216.501583 
L 108.684189 162.061872 
L 108.743085 166.020189 
L 108.860876 177.072632 
L 108.91241 182.290414 
L 108.963943 175.684651 
L 108.971305 175.684651 
L 108.993391 179.051791 
L 109.037563 188.305 
L 109.096458 176.661379 
L 109.111182 174.168153 
L 109.170078 178.769054 
L 109.192164 178.152173 
L 109.199526 178.460614 
L 109.236335 175.864575 
L 109.390936 167.048323 
L 109.398298 167.25395 
L 109.464556 182.316117 
L 109.508727 168.898965 
L 109.530813 165.711748 
L 109.582347 176.378642 
L 109.589709 176.995522 
L 109.626519 170.878123 
L 109.722224 163.861107 
L 109.751672 166.739883 
L 109.795843 175.890278 
L 109.840015 163.835403 
L 109.862101 159.105986 
L 109.913634 173.422756 
L 109.93572 177.97225 
L 109.994616 165.917375 
L 110.016702 167.922237 
L 110.230198 197.892352 
L 110.259646 196.298744 
L 110.50259 174.68222 
L 110.57621 176.173015 
L 110.782344 150.006997 
L 110.936945 109.806946 
L 110.959031 113.89378 
L 111.327129 224.623844 
L 111.047374 112.480095 
L 111.386024 216.86143 
L 111.481729 197.224065 
L 111.680502 162.087575 
L 111.930808 193.574188 
L 112.063323 189.0761 
L 112.232648 164.477987 
L 112.262096 167.17684 
L 112.372525 171.649224 
L 112.394611 169.310218 
L 112.431421 164.812131 
L 112.46823 170.235539 
L 112.50504 176.635675 
L 112.556574 165.711748 
L 112.571298 163.73259 
L 112.622831 174.399483 
L 112.644917 179.103198 
L 112.703813 167.819424 
L 112.725899 165.788858 
L 112.777432 172.574545 
L 112.784794 172.651655 
L 112.799518 171.752037 
L 112.865776 165.094868 
L 112.917309 169.567252 
L 113.130806 202.184813 
L 113.182339 194.422399 
L 113.204425 192.623164 
L 113.263321 197.506802 
L 113.270683 197.429691 
L 113.359026 189.256024 
L 113.697676 144.069521 
L 113.925896 107.750677 
L 113.933258 107.262314 
L 113.962706 112.300172 
L 114.308717 223.98126 
L 114.330803 221.770771 
L 114.566386 165.351901 
L 114.632643 177.021226 
L 114.779882 190.875335 
L 114.691539 175.915981 
L 114.794606 189.307431 
L 114.80933 188.53633 
L 114.868226 192.109096 
L 114.875587 192.340427 
L 114.890311 190.541192 
L 115.03755 179.180308 
L 115.14798 157.872224 
L 115.199513 168.539118 
L 115.214237 170.389759 
L 115.265771 162.832972 
L 115.287857 160.82811 
L 115.324666 168.950371 
L 115.361476 178.20358 
L 115.427734 166.508552 
L 115.442457 166.097299 
L 115.464543 169.978506 
L 115.523439 175.607541 
L 115.567611 169.515845 
L 115.626506 165.583232 
L 115.670678 168.744745 
L 115.692764 170.46687 
L 115.736935 164.400877 
L 115.766383 161.162254 
L 115.810555 172.137588 
L 115.891536 171.16086 
L 116.024051 197.583912 
L 116.038775 197.969462 
L 116.090309 196.247337 
L 116.105033 195.81038 
L 116.134481 198.483529 
L 116.149204 199.691587 
L 116.193376 194.062552 
L 116.384787 176.635675 
L 116.451044 169.901396 
L 116.826504 110.52664 
L 116.855951 113.611043 
L 116.981105 151.831935 
L 117.201963 226.680112 
L 117.209325 226.320265 
L 117.268221 209.433159 
L 117.422821 173.808306 
L 117.474355 176.352938 
L 117.533251 173.834009 
L 117.57006 176.481455 
L 117.717299 184.346683 
L 117.621594 175.890278 
L 117.754109 182.418931 
L 117.813005 176.584269 
L 117.849814 173.705493 
L 117.893986 179.437341 
L 117.916072 182.573151 
L 117.960244 172.086181 
L 118.011777 159.594349 
L 118.070673 171.597817 
L 118.078035 172.060478 
L 118.107483 167.922237 
L 118.144292 163.96392 
L 118.188464 171.289377 
L 118.262084 178.04936 
L 118.306255 175.042067 
L 118.335703 173.217129 
L 118.387237 176.430048 
L 118.409322 177.406776 
L 118.43877 172.934392 
L 118.586009 163.57837 
L 118.608095 162.241795 
L 118.674353 165.737452 
L 118.733248 165.377605 
L 118.799506 169.130295 
L 118.990916 197.249768 
L 119.04245 193.111527 
L 119.219137 182.521744 
L 119.11607 194.396695 
L 119.263308 184.063946 
L 119.27067 184.115352 
L 119.278032 183.884022 
L 119.786007 116.412709 
L 119.844902 127.208119 
L 120.161466 213.80273 
L 120.168828 214.008357 
L 120.183552 212.517562 
L 120.463306 165.583232 
L 120.500116 168.693338 
L 120.507478 168.564821 
L 120.529564 169.747176 
L 120.787232 196.735701 
L 120.824041 189.924311 
L 121.022814 168.513414 
L 121.037538 167.947941 
L 121.074348 170.595386 
L 121.111157 175.838871 
L 121.170053 168.050754 
L 121.199501 167.02262 
L 121.236311 171.16086 
L 121.251034 171.23797 
L 121.258396 170.85242 
L 121.471893 159.465833 
L 121.486617 160.44256 
L 121.700113 170.107023 
L 121.979867 196.709997 
L 122.016677 194.370992 
L 122.075573 189.384541 
L 122.14183 191.389402 
L 122.21545 182.804481 
L 122.252259 178.948977 
L 122.296431 186.377248 
L 122.303793 186.608578 
L 122.340603 184.835046 
L 122.495204 152.603036 
L 122.693976 105.283155 
L 122.738148 113.328306 
L 123.076798 222.516168 
L 123.157779 207.299781 
L 123.415447 165.865969 
L 123.422809 165.711748 
L 123.437533 166.765586 
L 123.673115 193.342858 
L 123.680477 192.905901 
L 123.91606 165.197681 
L 124.033851 166.508552 
L 124.173728 172.523138 
L 124.195814 171.957664 
L 124.453482 162.524532 
L 124.284157 172.343215 
L 124.512377 164.889241 
L 124.578635 163.321336 
L 124.718512 183.138625 
L 124.873113 201.696449 
L 124.909923 197.995165 
L 124.961456 195.013576 
L 124.998266 200.334171 
L 125.005628 200.745425 
L 125.042438 196.658591 
L 125.204401 184.346683 
L 125.211762 184.78364 
L 125.219124 184.989266 
L 125.24121 182.753074 
L 125.594584 107.879194 
L 125.712375 116.952479 
L 126.036301 221.205297 
L 126.102558 206.14313 
L 126.293969 170.415463 
L 126.308693 171.212267 
L 126.544275 186.634281 
L 126.566361 186.094511 
L 126.868201 161.676321 
L 126.934458 163.57837 
L 127.192126 176.507159 
L 127.228936 175.787465 
L 127.309918 168.616228 
L 127.390899 169.387329 
L 127.412985 169.952802 
L 127.435071 168.359194 
L 127.523414 164.606504 
L 127.5455 167.17684 
L 127.766358 194.165365 
L 127.84734 191.543623 
L 127.876788 194.345289 
L 127.920959 198.097979 
L 127.965131 191.106666 
L 128.119732 180.157035 
L 128.296419 162.164685 
L 128.392124 147.282441 
L 128.598259 116.284192 
L 128.635068 121.47627 
L 128.819117 186.223028 
L 128.94427 216.090329 
L 128.988442 209.407456 
L 129.187214 174.83644 
L 129.253472 178.20358 
L 129.444883 187.456789 
L 129.349177 177.74092 
L 129.459606 186.223028 
L 129.489054 184.063946 
L 129.570036 185.503334 
L 129.614207 183.087218 
L 129.805618 163.57837 
L 129.827704 165.120571 
L 130.011753 175.273397 
L 130.063286 179.540155 
L 130.11482 175.787465 
L 130.269421 165.634638 
L 130.320954 168.025051 
L 130.401936 159.080282 
L 130.453469 166.380036 
L 130.659604 194.550915 
L 130.68169 192.340427 
L 130.7185 188.587737 
L 130.762671 196.787108 
L 130.799481 199.845807 
L 130.836291 191.877766 
L 131.005616 176.018795 
L 131.020339 176.661379 
L 131.071873 178.666241 
L 131.108683 175.401914 
L 131.484142 117.517953 
L 131.528314 120.268212 
L 131.565124 120.216806 
L 131.594571 122.787142 
L 131.763896 188.484923 
L 131.866963 215.165008 
L 131.918497 209.89582 
L 131.999479 206.631493 
L 132.220337 178.948977 
L 132.242423 177.715216 
L 132.293956 181.57072 
L 132.30868 181.159466 
L 132.323404 181.519313 
L 132.338128 180.928136 
L 132.360214 179.694375 
L 132.404386 183.986836 
L 132.441195 187.405382 
L 132.500091 182.753074 
L 132.68414 168.102161 
L 132.735673 172.137588 
L 132.757759 173.885416 
L 132.816655 168.770448 
L 132.824017 168.539118 
L 132.846103 170.209836 
L 132.927084 175.684651 
L 132.971256 173.499866 
L 133.015427 175.016364 
L 133.089047 166.508552 
L 133.25101 155.558922 
L 133.324629 164.477987 
L 133.523402 187.996559 
L 133.405611 164.066734 
L 133.560212 185.55474 
L 133.567573 185.297707 
L 133.589659 187.225459 
L 133.648555 195.784677 
L 133.722174 191.312292 
L 133.751622 192.1348 
L 133.773708 190.978149 
L 133.906223 175.170584 
L 133.950395 178.100767 
L 133.965119 178.3578 
L 133.979843 177.535293 
L 134.303768 138.054936 
L 134.451007 116.901073 
L 134.487817 119.959772 
L 134.64978 165.480418 
L 134.84119 219.226139 
L 134.848552 219.611689 
L 134.878 216.78432 
L 135.21665 171.00664 
L 135.238736 172.214698 
L 135.44487 183.755505 
L 135.695176 168.025051 
L 135.754072 173.268535 
L 135.761434 173.654086 
L 135.798244 170.46687 
L 135.812968 169.747176 
L 135.842415 173.525569 
L 135.886587 178.769054 
L 135.938121 171.777741 
L 136.144255 162.036168 
L 136.181065 166.637069 
L 136.217875 172.034774 
L 136.269408 162.267499 
L 136.284132 161.008034 
L 136.320942 166.842696 
L 136.490267 183.884022 
L 136.512353 183.395658 
L 136.534439 184.732233 
L 136.681677 190.515488 
L 136.689039 190.052828 
L 136.873088 178.846164 
L 136.931984 180.851026 
L 137.152842 159.208799 
L 137.351615 123.609649 
L 137.432596 127.310932 
L 137.469406 128.724617 
L 137.550387 158.617622 
L 137.74916 218.172301 
L 137.771246 216.218846 
L 137.903761 190.875335 
L 138.095171 170.261243 
L 138.154067 169.978506 
L 138.176153 171.417894 
L 138.330754 183.626989 
L 138.360202 180.928136 
L 138.507441 170.518276 
L 138.522164 171.16086 
L 138.558974 174.887847 
L 138.625232 170.903827 
L 138.632594 171.08375 
L 138.787195 183.626989 
L 138.824004 179.128901 
L 138.993329 167.228246 
L 139.192102 156.715573 
L 139.317255 167.33106 
L 139.538113 193.548484 
L 139.663266 187.816636 
L 139.906211 178.332097 
L 139.920935 178.58913 
L 139.935658 178.897571 
L 139.972468 177.252556 
L 140.097621 163.038599 
L 140.35529 124.740597 
L 140.414185 130.009785 
L 140.701301 209.433159 
L 140.789644 196.504371 
L 140.966331 170.441166 
L 141.025227 172.574545 
L 141.069398 169.952802 
L 141.128294 172.009071 
L 141.260809 184.218166 
L 141.319705 182.367524 
L 141.408048 179.154604 
L 141.430134 177.81803 
L 141.48903 180.311255 
L 141.518477 179.154604 
L 141.562649 176.430048 
L 141.599459 179.617265 
L 141.650992 184.552309 
L 141.71725 181.030949 
L 141.768784 181.72494 
L 141.790869 180.234145 
L 142.092709 161.804838 
L 142.166329 163.50126 
L 142.195777 165.377605 
L 142.416635 186.197324 
L 142.504978 188.896177 
L 142.541788 187.868042 
L 142.58596 183.832615 
L 142.747923 175.299101 
L 142.792094 174.37378 
L 142.828904 175.787465 
L 142.865714 176.455752 
L 142.895162 175.761761 
L 143.071848 153.117103 
L 143.292707 117.055293 
L 143.351602 125.588807 
L 143.623994 207.608221 
L 143.75651 196.992734 
L 143.962644 180.362662 
L 143.999454 177.869436 
L 144.050987 180.516882 
L 144.220312 192.109096 
L 144.24976 190.412675 
L 144.470618 177.432479 
L 144.507428 178.177877 
L 144.5516 178.717647 
L 144.58841 177.483886 
L 144.750372 171.00664 
L 144.919697 162.087575 
L 145.037488 154.685008 
L 145.089022 158.746139 
L 145.361414 182.547448 
L 145.435034 186.762798 
L 145.479205 184.449496 
L 145.677978 180.157035 
L 145.692702 180.439772 
L 145.781045 183.447065 
L 145.810493 181.108059 
L 146.134419 132.888561 
L 146.200676 123.481132 
L 146.259572 127.619373 
L 146.384725 159.542943 
L 146.583498 207.531111 
L 146.590859 207.505408 
L 146.642393 202.210516 
L 146.885337 175.556134 
L 146.900061 176.173015 
L 147.135644 186.711391 
L 147.157729 185.143487 
L 147.378588 173.731196 
L 147.452207 175.504728 
L 147.518465 172.137588 
L 147.569999 175.221991 
L 147.577361 175.299101 
L 147.592084 174.476593 
L 147.864476 154.016721 
L 147.8792 154.633601 
L 148.25466 186.351544 
L 148.387175 191.723546 
L 148.394537 191.569326 
L 148.5565 184.552309 
L 148.460794 191.595029 
L 148.585947 186.891315 
L 148.630119 188.61344 
L 148.674291 185.040673 
L 148.689015 184.192462 
L 148.74791 186.968425 
L 148.769996 187.739526 
L 148.806806 185.09208 
L 149.027664 140.471051 
L 149.174903 120.371026 
L 149.211713 121.861821 
L 149.292694 142.270286 
L 149.506191 204.523818 
L 149.565086 199.228926 
L 149.874288 176.378642 
L 149.940546 179.951408 
L 150.014165 185.63185 
L 150.073061 182.393227 
L 150.080423 182.187601 
L 150.109871 183.858319 
L 150.139318 185.194893 
L 150.168766 182.084787 
L 150.316005 173.782603 
L 150.396987 171.417894 
L 150.441158 172.960095 
L 150.470606 174.29667 
L 150.514778 171.16086 
L 150.676741 162.061872 
L 150.698826 162.730159 
L 150.706188 162.832972 
L 150.728274 162.138982 
L 150.765084 162.267499 
L 150.82398 160.28834 
L 150.882875 161.830541 
L 151.133181 180.336959 
L 151.324592 197.455395 
L 151.346678 196.864218 
L 151.596984 179.488748 
L 151.633794 182.521744 
L 151.663242 184.500903 
L 151.707413 178.974681 
L 152.112321 117.697877 
L 152.163854 122.324481 
L 152.340541 184.166759 
L 152.436246 202.596066 
L 152.502504 202.287626 
L 152.554037 197.943759 
L 152.782258 171.00664 
L 152.78962 171.032343 
L 152.826429 175.196287 
L 153.003116 184.809343 
L 153.05465 185.32341 
L 153.09146 184.192462 
L 153.28287 175.761761 
L 153.290232 175.787465 
L 153.304956 175.479024 
L 153.334404 174.862144 
L 153.393299 175.761761 
L 153.400661 175.864575 
L 153.422747 174.630813 
L 153.555262 167.382467 
L 153.577348 169.053185 
L 153.599434 170.029912 
L 153.65833 167.279653 
L 153.695139 167.202543 
L 153.709863 167.25395 
L 153.783483 167.074026 
L 154.18839 189.898608 
L 154.239923 191.055259 
L 154.262009 187.970856 
L 154.423972 173.885416 
L 154.431334 173.936823 
L 154.45342 172.857282 
L 154.534401 173.962526 
L 154.585935 175.504728 
L 154.608021 173.422756 
L 154.659555 174.785034 
L 154.94667 131.166436 
L 155.0571 119.085858 
L 155.086547 121.32205 
L 155.182253 148.361982 
L 155.403111 210.795437 
L 155.425197 208.970499 
L 155.697589 172.214698 
L 155.734399 174.99066 
L 155.984705 185.503334 
L 155.992067 185.40052 
L 156.249735 175.581838 
L 156.271821 176.841302 
L 156.301269 178.12647 
L 156.352803 175.504728 
L 156.485318 170.749606 
L 156.500042 171.00664 
L 156.691452 165.814562 
L 156.706176 166.534256 
L 156.779796 170.54398 
L 156.838691 169.721472 
L 156.919673 174.502297 
L 157.088997 185.40052 
L 157.111083 184.78364 
L 157.169979 185.965994 
L 157.192065 184.295276 
L 157.331942 172.908688 
L 157.354027 175.067771 
L 157.435009 174.168153 
L 157.501266 178.948977 
L 157.596972 181.18517 
L 157.545438 176.327235 
L 157.62642 179.900002 
L 157.810468 153.785391 
L 158.009241 118.983045 
L 158.038689 121.579084 
L 158.208013 178.58913 
L 158.311081 201.850669 
L 158.369976 197.326878 
L 158.664454 171.23797 
L 158.72335 175.247694 
L 158.885313 190.849632 
L 158.944208 190.335565 
L 159.054637 184.475199 
L 159.238686 177.5867 
L 159.268134 176.635675 
L 159.408011 170.364056 
L 159.430097 172.497435 
L 159.444821 173.448459 
L 159.511078 169.824286 
L 159.614146 168.462008 
L 159.643593 168.898965 
L 159.658317 169.670065 
L 159.709851 167.074026 
L 159.739299 166.508552 
L 159.78347 167.947941 
L 159.812918 167.125433 
L 159.967519 175.093474 
L 160.114758 182.675964 
L 160.261997 171.880554 
L 160.313531 175.196287 
L 160.446046 179.283121 
L 160.372426 173.654086 
L 160.46077 178.383504 
L 160.475493 177.81803 
L 160.527027 180.902433 
L 160.556475 181.904864 
L 160.593285 179.488748 
L 160.696352 168.179271 
L 160.931934 119.471408 
L 160.976106 125.563104 
L 161.314756 198.740563 
L 161.373651 193.162934 
L 161.616595 175.581838 
L 161.631319 175.838871 
L 161.911073 189.744388 
L 161.918435 189.924311 
L 161.940521 188.150779 
L 162.095122 180.671102 
L 162.102484 180.825323 
L 162.131932 181.49361 
L 162.190827 180.311255 
L 162.264447 177.5867 
L 162.455857 167.896534 
L 162.61782 161.522101 
L 162.632544 160.493967 
L 162.69144 164.246657 
L 162.706164 164.580801 
L 162.742973 161.856245 
L 162.765059 161.367881 
L 162.794507 163.552666 
L 163.037451 182.804481 
L 163.052175 182.316117 
L 163.206776 172.985799 
L 163.228862 174.245263 
L 163.515978 182.830184 
L 163.538064 182.11049 
L 163.641131 165.274791 
L 163.847266 120.70517 
L 163.906161 126.719755 
L 164.031314 159.388722 
L 164.237449 202.518956 
L 164.252173 202.339033 
L 164.311068 196.555777 
L 164.524565 180.953839 
L 164.531927 180.645399 
L 164.58346 182.830184 
L 164.774871 191.749249 
L 164.811681 191.492216 
L 165.194502 170.723903 
L 165.26076 172.343215 
L 165.275484 172.574545 
L 165.297569 171.058047 
L 165.356465 163.861107 
L 165.415361 169.310218 
L 165.422723 169.541549 
L 165.45217 167.819424 
L 165.503704 163.552666 
L 165.592047 164.580801 
L 165.628857 165.737452 
L 165.658305 163.038599 
L 165.695115 161.393584 
L 165.731924 165.377605 
L 165.879163 174.68222 
L 165.923335 173.705493 
L 165.989593 176.661379 
L 166.026402 173.962526 
L 166.041126 173.602679 
L 166.100022 175.324804 
L 166.107384 175.247694 
L 166.122108 174.99066 
L 166.166279 176.352938 
L 166.446033 191.82636 
L 166.460757 191.543623 
L 166.593272 170.209836 
L 166.843578 119.959772 
L 166.902474 129.495718 
L 167.174866 197.815242 
L 167.211676 197.609615 
L 167.241124 196.889921 
L 167.388363 181.030949 
L 167.425172 177.97225 
L 167.506154 179.617265 
L 167.653393 187.662416 
L 167.697564 189.15321 
L 167.749098 187.405382 
L 167.763822 187.662416 
L 167.79327 188.84477 
L 167.83008 186.094511 
L 167.925785 180.645399 
L 167.977318 182.03338 
L 167.98468 182.264711 
L 168.014128 180.799619 
L 168.205539 170.955233 
L 168.293882 169.567252 
L 168.315968 170.46687 
L 168.330692 170.903827 
L 168.367502 168.436304 
L 168.522103 163.88681 
L 168.573636 166.457146 
L 168.610446 163.758293 
L 168.639894 161.753431 
L 168.691427 165.968782 
L 168.934372 180.414069 
L 168.949096 179.231714 
L 168.993267 177.5867 
L 169.037439 180.336959 
L 169.199402 186.634281 
L 169.125782 179.334528 
L 169.206764 186.505765 
L 169.236212 185.863181 
L 169.258297 187.765229 
L 169.317193 192.905901 
L 169.368727 188.150779 
L 169.449708 180.671102 
L 169.736824 117.41514 
L 169.773634 120.011179 
L 169.803082 121.527677 
L 169.891425 147.051111 
L 170.112283 194.448102 
L 170.127007 193.831221 
L 170.266884 183.061515 
L 170.421485 173.962526 
L 170.436209 174.399483 
L 170.598172 185.837477 
L 170.693877 192.725977 
L 170.745411 190.181345 
L 170.782221 186.582875 
L 170.870564 188.099373 
L 171.039889 181.776347 
L 171.069337 180.259849 
L 171.223938 170.77531 
L 171.238661 171.31508 
L 171.253385 171.572114 
L 171.290195 169.644362 
L 171.452158 165.197681 
L 171.547863 163.372743 
L 171.584673 164.066734 
L 171.790808 176.532862 
L 171.879151 175.016364 
L 171.95277 173.371349 
L 171.908599 176.147312 
L 171.974856 174.862144 
L 172.136819 183.524175 
L 172.144181 183.241438 
L 172.166267 182.161897 
L 172.203077 185.940291 
L 172.247248 189.410244 
L 172.29142 184.912156 
L 172.306144 185.272003 
L 172.32823 186.274434 
L 172.365039 183.806912 
L 172.711051 121.887524 
L 172.762585 128.51899 
L 173.08651 195.681863 
L 173.12332 194.216772 
L 173.344179 177.89514 
L 173.38835 179.283121 
L 173.587123 191.749249 
L 173.609209 191.363699 
L 173.778534 186.917018 
L 173.947858 179.231714 
L 174.205526 166.739883 
L 174.323318 164.940648 
L 174.360127 165.403308 
L 174.389575 165.506122 
L 174.396937 165.377605 
L 174.529452 163.064303 
L 174.544176 163.372743 
L 174.551538 163.372743 
L 174.588348 166.431442 
L 174.82393 177.5867 
L 174.846016 177.201149 
L 174.890188 176.687082 
L 174.904912 176.995522 
L 175.155218 192.571757 
L 175.184666 190.952445 
L 175.265647 191.440809 
L 175.324543 184.192462 
L 175.648468 125.460291 
L 175.677916 127.542263 
L 175.810431 162.396015 
L 176.03129 193.445671 
L 176.097547 187.456789 
L 176.237424 175.761761 
L 176.318406 176.918412 
L 176.414111 180.825323 
L 176.59816 191.106666 
L 176.634969 192.186207 
L 176.671779 189.718684 
L 177.047238 166.380036 
L 177.0546 166.585663 
L 177.076686 167.125433 
L 177.113496 165.326198 
L 177.275459 161.830541 
L 177.304907 163.115709 
L 177.334354 163.861107 
L 177.378526 161.290771 
L 177.385888 161.187958 
L 177.407974 162.087575 
L 177.680366 179.103198 
L 177.69509 178.332097 
L 177.717176 176.378642 
L 177.798157 178.563427 
L 177.864415 179.540155 
L 177.827605 178.383504 
L 177.908586 178.563427 
L 177.915948 178.537724 
L 177.930672 178.846164 
L 177.945396 179.154604 
L 178.144169 192.67457 
L 178.173616 192.05769 
L 178.210426 191.080962 
L 178.379751 157.486674 
L 178.556438 120.910796 
L 178.615333 123.840979 
L 178.696315 141.319262 
L 178.939259 193.317154 
L 178.983431 193.856925 
L 179.02024 192.983011 
L 179.277909 177.021226 
L 179.307356 179.463045 
L 179.484043 192.59746 
L 179.491405 192.494647 
L 179.874226 173.140019 
L 179.918398 174.399483 
L 179.933122 174.630813 
L 179.955208 173.731196 
L 180.102447 168.616228 
L 180.212876 166.071595 
L 180.234962 166.559959 
L 180.257048 167.074026 
L 180.293857 165.788858 
L 180.330667 163.758293 
L 180.389563 166.559959 
L 180.698765 177.689513 
L 180.441096 166.071595 
L 180.735574 176.070201 
L 180.772384 172.831578 
L 180.823918 177.021226 
L 181.066862 194.602322 
L 181.169929 191.723546 
L 181.331892 155.147669 
L 181.501217 120.088289 
L 181.530665 121.24494 
L 181.604284 133.454035 
L 181.913486 192.623164 
L 181.979744 184.578013 
L 182.119621 174.476593 
L 182.171154 176.969819 
L 182.274222 181.545017 
L 182.428822 189.950014 
L 182.450908 189.641574 
L 182.789558 178.51202 
L 183.039864 171.777741 
L 182.870539 178.897571 
L 183.06195 172.728765 
L 183.084036 173.294239 
L 183.113484 171.23797 
L 183.150293 167.33106 
L 183.253361 167.845127 
L 183.334342 165.943079 
L 183.371152 167.228246 
L 183.547839 177.97225 
L 183.569924 175.530431 
L 183.695077 172.934392 
L 183.709801 172.728765 
L 183.739249 174.193856 
L 183.915936 185.940291 
L 183.923298 185.811774 
L 183.945384 186.917018 
L 183.996917 190.901039 
L 184.048451 186.505765 
L 184.107347 186.814205 
L 184.254586 160.262637 
L 184.431272 127.259526 
L 184.519616 128.416177 
L 184.68894 168.384898 
L 184.850903 186.891315 
L 184.880351 186.480061 
L 184.909799 185.16919 
L 185.093848 174.785034 
L 185.10121 175.067771 
L 185.358878 194.962169 
L 185.454583 192.186207 
L 185.660718 183.626989 
L 186.006729 167.151136 
L 186.19814 158.334885 
L 186.242311 159.620053 
L 186.308569 158.926062 
L 186.809181 187.456789 
L 186.95642 194.679432 
L 186.971144 194.730839 
L 186.985868 194.345289 
L 187.088936 186.685688 
L 187.427585 125.897248 
L 187.501205 135.947261 
L 187.847216 190.489785 
L 187.854578 190.335565 
L 188.075437 178.023657 
L 188.119608 181.030949 
L 188.318381 194.396695 
L 188.347829 192.468943 
L 188.576049 180.928136 
L 188.583411 180.902433 
L 188.605497 181.210873 
L 188.612859 181.26228 
L 188.634945 180.671102 
L 189.150281 155.044855 
L 189.201815 157.820818 
L 189.356416 166.123002 
L 189.555188 178.100767 
L 189.577274 177.175446 
L 189.59936 176.764192 
L 189.628808 178.58913 
L 189.857028 196.221634 
L 189.886476 196.941328 
L 189.915924 195.450533 
L 189.974819 195.784677 
L 190.107334 175.658948 
L 190.372364 122.298778 
L 190.438622 131.73191 
L 190.711014 185.70896 
L 190.791995 185.066377 
L 190.799357 185.09208 
L 190.814081 184.93786 
L 190.953958 176.275828 
L 191.042302 179.540155 
L 191.204264 192.36613 
L 191.314694 190.592598 
L 191.322056 190.669708 
L 191.344141 190.078531 
L 191.623895 178.640537 
L 191.631257 178.666241 
L 191.697515 176.275828 
L 191.874202 166.559959 
L 191.90365 167.947941 
L 191.918373 168.436304 
L 191.969907 165.917375 
L 192.09506 162.858676 
L 192.109784 163.34704 
L 192.16868 163.038599 
L 192.536777 178.923274 
L 192.573587 180.362662 
L 192.684016 190.875335 
L 192.831255 196.709997 
L 192.838617 196.838514 
L 192.860703 195.681863 
L 193.052113 173.551272 
L 193.309782 120.9365 
L 193.331867 121.065017 
L 193.383401 128.724617 
L 193.729413 189.692981 
L 193.766222 186.814205 
L 193.920823 177.560996 
L 193.964995 178.871867 
L 194.016529 180.979543 
L 194.200577 188.022263 
L 194.207939 187.893746 
L 194.244749 186.145918 
L 194.296283 188.484923 
L 194.303645 188.61344 
L 194.333092 187.405382 
L 194.450884 184.346683 
L 194.480331 185.349113 
L 194.509779 186.557171 
L 194.546589 183.781209 
L 194.745361 171.623521 
L 194.922048 166.277222 
L 194.936772 166.534256 
L 194.958858 166.919806 
L 194.995668 165.737452 
L 195.047201 161.753431 
L 195.135545 163.038599 
L 195.157631 162.550235 
L 195.187078 164.812131 
L 195.437385 178.691944 
L 195.53309 184.192462 
L 195.695053 191.415106 
L 195.709777 191.209479 
L 195.739224 190.104235 
L 195.812844 191.415106 
L 195.820206 191.569326 
L 195.849654 190.078531 
L 195.996893 168.898965 
L 196.247199 119.060155 
L 196.313456 124.637783 
L 196.681554 191.337996 
L 196.755173 186.968425 
L 196.872964 179.231714 
L 196.961308 181.056653 
L 197.130633 187.174052 
L 197.2337 190.309861 
L 197.263148 188.84477 
L 197.299957 185.888884 
L 197.366215 189.333134 
L 197.373577 189.410244 
L 197.388301 188.76766 
L 197.579711 181.750643 
L 197.888913 167.87083 
L 197.940447 165.480418 
L 197.991981 160.982331 
L 198.072962 162.653049 
L 198.095048 162.113278 
L 198.124496 163.912513 
L 198.389526 178.306394 
L 198.411612 177.74092 
L 198.455783 178.691944 
L 198.639832 185.580444 
L 198.647194 185.503334 
L 198.661918 185.297707 
L 198.691366 186.711391 
L 198.735537 188.510626 
L 198.809157 187.328272 
L 198.875414 182.675964 
L 199.022653 151.420682 
L 199.191978 127.388042 
L 199.23615 129.110167 
L 199.302407 135.895854 
L 199.633695 187.379679 
L 199.663143 185.503334 
L 199.832468 176.455752 
L 199.854553 177.278259 
L 200.281546 191.209479 
L 200.310994 190.644005 
L 200.568662 178.332097 
L 200.701177 170.62109 
L 200.730625 171.649224 
L 200.737987 171.726334 
L 200.752711 171.135157 
L 200.929398 158.643325 
L 200.988293 160.082713 
L 201.091361 163.629776 
L 201.341667 178.12647 
L 201.385839 177.124039 
L 201.43001 180.208442 
L 201.628783 189.770091 
L 201.687678 190.309861 
L 201.753936 193.214341 
L 201.790746 190.772522 
L 201.937985 161.959058 
L 202.151481 122.761438 
L 202.166205 123.840979 
L 202.56375 185.272003 
L 202.681541 179.411638 
L 202.740437 176.070201 
L 202.799333 179.026088 
L 203.137982 193.317154 
L 203.189516 191.183776 
L 203.20424 190.695412 
L 203.248411 193.188637 
L 203.270497 193.702705 
L 203.307307 191.697843 
L 203.874177 153.656874 
L 203.99933 156.61276 
L 204.190741 176.892709 
L 204.22755 176.224422 
L 204.514666 187.482492 
L 204.544114 187.045535 
L 204.558838 187.328272 
L 204.63982 192.854494 
L 204.728163 191.800656 
L 204.779697 185.70896 
L 205.118346 125.614511 
L 205.140432 126.848272 
L 205.36129 169.541549 
L 205.515891 183.729802 
L 205.530615 183.318548 
L 205.670492 179.026088 
L 205.707302 180.208442 
L 205.972332 191.080962 
L 205.987056 191.132369 
L 205.994418 190.849632 
L 206.03859 189.050397 
L 206.119571 189.692981 
L 206.156381 190.232751 
L 206.185829 189.024694 
L 206.369877 181.365093 
L 206.377239 181.519313 
L 206.399325 182.007677 
L 206.436135 180.079925 
L 206.701165 164.760724 
L 206.774785 161.830541 
L 206.818956 158.591918 
L 206.877852 162.293202 
L 207.643494 195.142093 
L 206.929385 161.804838 
L 207.672942 192.263317 
L 207.901163 141.601999 
L 208.033678 123.275505 
L 208.077849 127.516559 
L 208.445947 185.297707 
L 208.482756 183.369955 
L 208.629995 178.666241 
L 208.652081 178.923274 
L 208.666805 179.026088 
L 208.696253 178.229283 
L 208.725701 177.303963 
L 208.769872 179.257418 
L 209.012817 191.569326 
L 209.020179 191.517919 
L 209.06435 190.232751 
L 209.10116 192.109096 
L 209.13797 194.011145 
L 209.196865 191.106666 
L 209.771097 159.954196 
L 209.881527 163.012896 
L 210.065575 174.039636 
L 210.168643 173.474162 
L 210.227538 172.960095 
L 210.256986 174.810737 
L 210.507292 193.368561 
L 210.529378 193.959738 
L 210.57355 192.36613 
L 210.602997 192.983011 
L 210.625083 192.083393 
L 210.720789 170.62109 
L 210.934285 126.128578 
L 211.022629 127.439449 
L 211.155144 151.215055 
L 211.398088 182.03338 
L 211.537965 177.201149 
L 211.59686 173.962526 
L 211.648394 176.275828 
L 211.987044 196.298744 
L 212.097473 195.270609 
L 212.126921 195.707567 
L 212.171092 194.550915 
L 212.362503 181.930567 
L 212.708515 157.049717 
L 212.737962 157.435267 
L 212.848392 163.218523 
L 213.002993 171.572114 
L 213.010354 172.009071 
L 213.054526 168.487711 
L 213.06925 168.256381 
L 213.128146 169.361625 
L 213.201765 173.140019 
L 213.474157 198.817673 
L 213.562501 195.244906 
L 213.702378 164.889241 
L 213.908512 128.878837 
L 213.923236 128.904541 
L 213.930598 128.827431 
L 213.960046 129.495718 
L 214.041027 139.134477 
L 214.364953 182.650261 
L 214.394401 181.287983 
L 214.54164 176.892709 
L 214.563726 176.995522 
L 214.607897 178.871867 
L 214.872927 195.630456 
L 214.887651 195.50194 
L 215.012804 194.062552 
L 215.29992 178.948977 
L 215.56495 157.435267 
L 215.579674 157.615191 
L 215.609122 157.101124 
L 215.653294 154.993448 
L 215.697465 157.769411 
L 215.955134 171.366487 
L 215.969858 170.723903 
L 215.999305 169.104592 
L 216.043477 171.572114 
L 216.065563 171.23797 
L 216.256974 184.86075 
L 216.426298 200.205654 
L 216.441022 199.71729 
L 216.529366 193.497078 
L 216.882739 127.953516 
L 216.934273 132.245977 
L 217.088874 160.930924 
L 217.258198 183.498472 
L 217.309732 183.061515 
L 217.37599 179.360231 
L 217.501143 174.322373 
L 217.530591 175.453321 
L 217.972307 195.450533 
L 218.038565 193.625595 
L 218.075375 193.805518 
L 218.126908 191.646436 
L 218.495006 156.22721 
L 218.598073 155.096262 
L 218.612797 155.404702 
L 218.77476 169.490142 
L 218.899913 173.808306 
L 218.914637 173.294239 
L 218.951447 171.854851 
L 219.010342 174.21956 
L 219.061876 173.345646 
L 219.194391 183.241438 
L 219.363716 196.864218 
L 219.407887 194.936466 
L 219.518317 182.958701 
L 219.842242 130.189708 
L 219.856966 130.446742 
L 219.952671 142.424507 
L 220.225064 181.64783 
L 220.283959 179.283121 
L 220.416474 176.352938 
L 220.43856 176.430048 
L 220.460646 176.481455 
L 220.637333 186.274434 
L 220.821381 195.476236 
L 220.917087 196.401557 
L 220.872915 194.936466 
L 220.953896 195.88749 
L 221.056964 191.595029 
L 221.520766 157.820818 
L 221.550214 157.178234 
L 221.579662 158.617622 
L 221.83733 168.898965 
L 221.903588 167.742314 
L 221.991931 171.289377 
L 222.028741 173.474162 
L 222.330581 198.869079 
L 222.345305 198.637749 
L 222.433648 190.746819 
L 222.764936 130.421039 
L 222.860641 136.949691 
L 223.199291 181.4165 
L 223.250824 179.283121 
L 223.405425 176.455752 
L 223.471683 178.666241 
L 223.869228 195.990303 
L 223.891314 195.42483 
L 224.163706 174.116746 
L 224.487631 154.890635 
L 224.509717 155.687439 
L 224.774747 170.441166 
L 224.789471 170.6982 
L 224.833643 169.361625 
L 224.841005 169.258812 
L 224.863091 170.004209 
L 225.260636 198.226496 
L 225.297446 197.121251 
L 225.385789 189.0761 
L 225.709715 133.145595 
L 225.790696 136.795471 
L 226.004193 168.359194 
L 226.158794 176.712785 
L 226.173518 176.275828 
L 226.239775 174.630813 
L 226.313395 175.144881 
L 226.350204 175.581838 
L 226.865541 194.525212 
L 226.872903 194.499509 
L 226.880265 194.550915 
L 226.909712 194.139662 
L 227.01278 186.762798 
L 227.425049 158.617622 
L 227.483944 160.776704 
L 227.756336 170.85242 
L 227.763698 170.723903 
L 227.800508 169.618659 
L 227.84468 171.4693 
L 228.058176 187.970856 
L 228.234863 200.694018 
L 228.249587 200.411281 
L 228.323206 191.800656 
L 228.67658 131.397766 
L 228.720752 133.428331 
L 228.845905 150.983725 
L 229.081487 177.252556 
L 229.20664 179.103198 
L 229.221364 178.691944 
L 229.265536 177.329666 
L 229.309707 179.360231 
L 229.618909 192.571757 
L 229.795596 197.969462 
L 229.861853 195.50194 
L 229.942835 188.973287 
L 230.318294 155.070558 
L 230.347742 155.430405 
L 230.487619 161.393584 
L 230.701116 169.104592 
L 230.723201 168.770448 
L 230.745287 168.256381 
L 230.789459 169.849989 
L 231.054489 192.006283 
L 231.150194 200.488391 
L 231.216452 198.406419 
L 231.290071 188.125076 
L 231.628721 130.678072 
L 231.672893 133.736772 
L 232.04099 177.381073 
L 232.092524 175.941685 
L 232.129333 176.404345 
L 232.151419 176.944116 
L 232.210315 175.736058 
L 232.217677 175.761761 
L 232.232401 175.941685 
L 232.747737 198.894783 
L 232.799271 196.915624 
L 232.998043 175.710354 
L 233.233626 157.358157 
L 233.270435 156.869793 
L 233.277797 156.741277 
L 233.314607 157.897928 
L 233.454484 166.637069 
L 233.550189 171.31508 
L 233.616447 170.595386 
L 233.660619 171.109453 
L 233.690066 170.54398 
L 233.726876 169.670065 
L 233.763686 171.058047 
L 234.117059 198.329309 
L 234.205403 192.186207 
L 234.396813 153.16851 
L 234.558776 134.276542 
L 234.602948 134.86772 
L 234.713377 147.488068 
L 234.985769 175.941685 
L 235.029941 175.196287 
L 235.110922 176.224422 
L 235.133008 175.915981 
L 235.169818 176.327235 
L 235.324419 183.575582 
L 235.589449 195.527643 
L 235.648345 197.918055 
L 235.714602 196.375854 
L 235.847117 187.379679 
L 236.207853 157.923631 
L 236.222577 157.795114 
L 236.259386 158.463402 
L 236.369816 163.064303 
L 236.531778 168.976075 
L 236.568588 168.462008 
L 236.583312 168.359194 
L 236.634846 169.078888 
L 236.752637 172.754468 
L 236.973495 193.497078 
L 237.091286 198.791969 
L 237.120734 198.175089 
L 237.194354 187.122645 
L 237.540365 132.785748 
L 237.599261 136.589844 
L 237.724414 151.960452 
L 238.01153 176.584269 
L 238.063064 176.661379 
L 238.144045 177.81803 
L 238.423799 191.389402 
L 238.637296 197.763835 
L 238.681467 196.375854 
L 238.858154 179.514451 
L 239.123184 160.031306 
L 239.211527 158.874655 
L 239.255699 159.440129 
L 239.653244 171.4693 
L 239.771036 176.892709 
L 239.932998 192.880197 
L 240.043428 198.200792 
L 240.072875 197.403988 
L 240.183305 181.827754 
L 240.485144 134.327949 
L 240.536678 136.821175 
L 240.779622 167.56239 
L 240.971033 178.974681 
L 241.029929 180.645399 
L 241.066738 178.743351 
L 241.088824 178.28069 
L 241.140358 179.925705 
L 241.537903 197.326878 
L 241.552627 197.172658 
L 241.648332 192.957307 
L 242.148945 159.440129 
L 242.185754 160.930924 
L 242.458147 167.690907 
L 242.649557 172.882985 
L 242.988207 196.658591 
L 243.047102 193.060121 
L 243.238513 160.416857 
L 243.444648 136.075777 
L 243.466733 136.872581 
L 243.64342 156.76698 
L 243.879002 180.722509 
L 243.915812 180.131332 
L 243.94526 179.745782 
L 244.026241 178.075063 
L 244.085137 178.743351 
L 244.320719 188.38211 
L 244.467958 195.296313 
L 244.578388 194.191068 
L 244.725627 182.573151 
L 245.11581 161.702025 
L 245.152619 161.367881 
L 245.182067 161.984762 
L 245.410288 165.686045 
L 245.41765 165.660342 
L 245.425012 165.634638 
L 245.454459 165.865969 
L 245.586974 170.85242 
L 245.793109 188.176483 
L 245.940348 195.836083 
L 245.955072 195.42483 
L 246.043415 186.068807 
L 246.374703 135.150456 
L 246.507218 142.630133 
L 246.81642 179.283121 
L 246.860591 178.563427 
L 246.985745 175.504728 
L 247.074088 176.481455 
L 247.243413 185.16919 
L 247.478995 197.532505 
L 247.515805 195.784677 
L 248.104761 161.753431 
L 248.134208 161.984762 
L 248.156294 162.421719 
L 248.303533 164.555097 
L 248.487582 168.487711 
L 248.678993 181.827754 
L 248.870403 195.913193 
L 248.921937 195.116389 
L 248.980832 190.849632 
L 249.34893 134.122322 
L 249.451997 140.419645 
L 249.768561 179.154604 
L 249.849542 178.43491 
L 249.937886 175.504728 
L 249.996781 177.406776 
L 250.44586 199.280333 
L 250.512118 195.784677 
L 250.998006 161.136551 
L 251.01273 161.290771 
L 251.233589 164.632207 
L 251.101073 161.239364 
L 251.27776 163.552666 
L 251.285122 163.526963 
L 251.307208 163.706887 
L 251.491257 169.875692 
L 251.837268 197.044141 
L 251.932974 190.823929 
L 252.139108 150.443954 
L 252.301071 134.148025 
L 252.323157 134.507873 
L 252.418862 144.069521 
L 252.720702 181.442203 
L 252.772236 179.617265 
L 252.882665 176.507159 
L 252.971008 176.969819 
L 253.05199 182.290414 
L 253.35383 198.560639 
L 253.412725 196.607184 
L 253.523154 187.611009 
L 253.88389 162.138982 
L 253.994319 159.080282 
L 254.038491 160.314043 
L 254.207816 165.557528 
L 254.222539 165.429011 
L 254.229901 165.351901 
L 254.266711 166.123002 
L 254.340331 165.480418 
L 254.524379 175.067771 
L 254.796771 196.144524 
L 254.840943 194.216772 
L 254.973458 175.479024 
L 255.223764 136.461328 
L 255.253212 137.103912 
L 255.393089 148.619016 
L 255.650757 181.72494 
L 255.694929 180.696806 
L 255.88634 176.198718 
L 255.915787 177.021226 
L 256.305971 194.602322 
L 256.37959 192.314723 
L 256.504743 184.963563 
L 256.939098 159.183096 
L 256.990632 160.725297 
L 257.240938 167.279653 
L 257.270386 166.842696 
L 257.307196 167.433873 
L 257.454435 175.504728 
L 257.763636 196.504371 
L 257.822532 193.625595 
L 257.984495 166.045892 
L 258.227439 134.94483 
L 258.234801 135.201863 
L 258.359954 149.33871 
L 258.632346 180.491179 
L 258.639708 180.336959 
L 258.786947 173.808306 
L 258.867929 175.787465 
L 258.934186 178.152173 
L 259.258112 195.244906 
L 259.317007 194.473805 
L 259.368541 192.880197 
L 259.626209 175.016364 
L 259.898601 158.951765 
L 259.905963 158.926062 
L 259.920687 159.234502 
L 260.08265 164.632207 
L 260.134184 163.372743 
L 260.15627 164.169547 
L 260.678968 196.607184 
L 260.752587 195.270609 
L 260.870379 180.131332 
L 261.172218 135.09905 
L 261.186942 135.25327 
L 261.2532 140.239721 
L 261.569764 180.928136 
L 261.680193 176.198718 
L 261.724364 175.119177 
L 261.768536 173.731196 
L 261.827432 175.504728 
L 262.217615 196.19593 
L 262.305958 194.062552 
L 262.843381 157.692301 
L 262.88019 159.440129 
L 263.049515 163.552666 
L 263.064239 163.65548 
L 263.196754 166.071595 
L 263.48387 185.09208 
L 263.667919 198.817673 
L 263.690005 198.226496 
L 263.807796 183.138625 
L 264.12436 132.297384 
L 264.168531 134.250839 
L 264.264237 149.18449 
L 264.521905 180.799619 
L 264.566076 179.822892 
L 264.69123 174.553703 
L 264.786935 176.738489 
L 265.155032 196.04171 
L 265.228652 194.191068 
L 265.353805 186.120214 
L 265.795522 160.416857 
L 265.817608 160.21123 
L 265.847055 161.033737 
L 266.112085 168.256381 
L 266.170981 169.978506 
L 266.487545 190.746819 
L 266.62006 197.378285 
L 266.649508 196.452964 
L 266.759937 181.313686 
L 267.061777 132.245977 
L 267.11331 135.921557 
L 267.267911 160.905221 
L 267.466684 181.930567 
L 267.481408 181.699237 
L 267.650733 174.476593 
L 267.761162 176.198718 
L 268.129259 193.240044 
L 268.232327 190.207048 
L 268.703491 161.162254 
L 268.755025 159.337316 
L 268.806558 161.290771 
L 269.101036 168.410601 
L 269.145208 169.978506 
L 269.572201 195.88749 
L 269.631097 193.188637 
L 269.770974 168.462008 
L 270.006556 134.302246 
L 270.036004 135.02194 
L 270.124347 143.426938 
L 270.411463 181.26228 
L 270.448273 180.208442 
L 270.62496 172.600248 
L 270.669131 173.037205 
L 270.764837 177.843733 
L 271.074038 196.504371 
L 271.147658 195.193499 
L 271.302259 185.2463 
L 271.699804 159.260206 
L 271.729252 159.620053 
L 272.001644 165.351901 
L 272.082625 166.534256 
L 272.32557 179.977112 
L 272.539066 198.252199 
L 272.575876 196.221634 
L 272.745201 166.225816 
L 272.966059 135.79304 
L 272.980783 136.152887 
L 273.054402 142.655837 
L 273.356242 180.516882 
L 273.429862 177.098336 
L 273.555015 170.338353 
L 273.621272 172.368918 
L 273.768511 181.18517 
L 274.062989 196.452964 
L 274.070351 196.478667 
L 274.085075 196.27304 
L 274.224952 187.636712 
L 274.644583 159.697163 
L 274.696117 160.51967 
L 274.953785 165.814562 
L 274.990595 165.865969 
L 275.130472 171.983368 
L 275.476483 198.869079 
L 275.557465 193.342858 
L 275.9182 134.405059 
L 276.013906 141.936143 
L 276.323107 178.254987 
L 276.382003 175.864575 
L 276.499794 171.752037 
L 276.543966 172.060478 
L 276.551328 172.034774 
L 276.566052 172.291808 
L 276.728015 182.598854 
L 276.970959 196.632887 
L 277.022492 196.170227 
L 277.110836 192.160503 
L 277.626172 158.617622 
L 277.648258 159.054579 
L 278.266662 186.377248 
L 278.428625 198.020869 
L 278.45071 197.378285 
L 278.568502 182.496041 
L 278.848256 134.764906 
L 278.921875 137.489462 
L 279.010218 148.053542 
L 279.267887 178.794757 
L 279.275249 178.820461 
L 279.297334 178.51202 
L 279.451935 172.497435 
L 279.555003 174.399483 
L 279.702242 184.063946 
L 279.930462 196.889921 
L 279.967272 196.401557 
L 280.143958 186.685688 
L 280.548866 157.692301 
L 280.607761 157.718004 
L 280.666657 159.928493 
L 280.865429 167.151136 
L 280.953773 168.333491 
L 281.388128 196.941328 
L 281.454385 193.214341 
L 281.822483 135.71593 
L 281.918188 143.761081 
L 282.220028 181.236576 
L 282.323095 175.324804 
L 282.433524 170.595386 
L 282.507144 171.546411 
L 282.691192 184.886453 
L 282.941499 195.450533 
L 282.970946 194.628025 
L 283.501007 158.566215 
L 283.62616 162.087575 
L 283.905914 167.510983 
L 284.067877 176.070201 
L 284.318183 198.097979 
L 284.391802 193.959738 
L 284.516956 173.679789 
L 284.774624 136.229997 
L 284.781986 136.409921 
L 284.885053 144.223742 
L 285.172169 179.103198 
L 285.186893 178.923274 
L 285.385665 169.644362 
L 285.474009 172.523138 
L 285.842106 197.095548 
L 285.85683 196.992734 
L 285.974621 192.52035 
L 286.489958 159.003172 
L 286.541491 160.28834 
L 286.747626 164.143844 
L 286.813883 165.274791 
L 286.997932 174.425187 
L 287.299772 196.967031 
L 287.351306 193.188637 
L 287.55744 154.916338 
L 287.719403 135.510303 
L 287.741489 136.384218 
L 287.881366 151.472088 
L 288.109586 177.149742 
L 288.12431 176.944116 
L 288.308359 169.978506 
L 288.374616 172.805875 
L 288.507131 181.853457 
L 288.779523 197.686725 
L 288.816333 198.252199 
L 288.853143 196.992734 
L 289.199154 173.114315 
L 289.420013 160.108416 
L 289.456823 160.571077 
L 289.795472 167.79372 
L 289.876454 170.261243 
L 290.060502 183.421362 
L 290.237189 196.401557 
L 290.281361 194.705136 
L 290.384428 180.002815 
L 290.678906 135.073346 
L 290.708354 136.101481 
L 290.826145 149.158786 
L 291.076451 177.509589 
L 291.105899 176.687082 
L 291.289948 171.649224 
L 291.29731 171.777741 
L 291.370929 175.427618 
L 291.768474 197.506802 
L 291.783198 197.609615 
L 291.805284 197.275471 
L 292.011419 182.984405 
L 292.35743 157.486674 
L 292.401602 158.900359 
L 292.637184 165.120571 
L 292.791785 167.896534 
L 292.9243 175.453321 
L 293.18933 198.714859 
L 293.240864 196.170227 
L 293.388103 170.826717 
L 293.631047 135.972964 
L 293.653133 136.152887 
L 293.719391 140.959415 
L 294.028592 178.666241 
L 294.116936 176.327235 
L 294.220003 172.368918 
L 294.293622 174.168153 
L 294.440861 183.164328 
L 294.691168 196.607184 
L 294.69853 196.581481 
L 294.757425 196.11882 
L 294.904664 187.199755 
L 295.302209 157.872224 
L 295.420001 160.21123 
L 295.83227 174.785034 
L 296.141471 197.969462 
L 296.215091 192.931604 
L 296.428587 152.397409 
L 296.583188 136.050074 
L 296.612636 137.103912 
L 296.730427 149.775667 
L 296.988095 176.609972 
L 297.010181 176.275828 
L 297.142696 171.983368 
L 297.23104 172.908688 
L 297.304659 177.792326 
L 297.606499 195.42483 
L 297.658033 196.452964 
L 297.709566 195.50194 
L 297.864167 187.482492 
L 298.283798 159.363019 
L 298.313246 160.262637 
L 298.534105 165.017758 
L 298.66662 167.40817 
L 298.89484 182.701668 
L 299.093613 197.763835 
L 299.12306 196.915624 
L 299.218766 185.55474 
L 299.535329 136.050074 
L 299.594225 137.823606 
L 299.712016 154.016721 
L 299.954961 176.918412 
L 299.962322 176.867006 
L 300.035942 175.119177 
L 300.124285 172.625952 
L 300.175819 173.448459 
L 300.33042 181.49361 
L 300.59545 199.074706 
L 300.661708 197.815242 
L 300.713241 196.016007 
L 301.235939 158.360588 
L 301.265387 158.926062 
L 301.508332 165.454715 
L 301.780724 177.381073 
L 301.927963 190.592598 
L 302.053116 197.018438 
L 302.089925 196.067414 
L 302.192993 181.981974 
L 302.502195 135.844447 
L 302.546366 137.849309 
L 302.700967 159.928493 
L 302.89974 177.792326 
L 302.921826 177.458183 
L 303.069065 173.551272 
L 303.135322 174.399483 
L 303.253113 180.773916 
L 303.569677 197.429691 
L 303.584401 197.198361 
L 303.65802 193.394264 
L 304.151271 158.669028 
L 304.165995 158.411995 
L 304.217528 159.491536 
L 304.482559 164.863538 
L 304.48992 164.786428 
L 304.504644 164.760724 
L 304.519368 164.992054 
L 304.681331 174.21956 
L 305.005257 199.87151 
L 305.049429 197.172658 
L 305.255563 158.411995 
L 305.446974 134.662093 
L 305.46906 135.227567 
L 305.579489 146.742671 
L 305.866605 179.642968 
L 305.881329 179.385935 
L 306.043292 175.170584 
L 306.094825 176.481455 
L 306.256788 183.935429 
L 306.514456 196.170227 
L 306.543904 195.707567 
L 306.617523 191.697843 
L 307.051878 160.930924 
L 307.118136 158.746139 
L 307.177032 159.9799 
L 307.530405 169.670065 
L 307.743902 183.061515 
L 307.950036 197.815242 
L 307.994208 196.324447 
L 308.111999 178.846164 
L 308.391753 134.353652 
L 308.435925 135.741634 
L 308.553716 150.058404 
L 308.811384 179.977112 
L 308.818746 179.925705 
L 308.921813 176.352938 
L 308.973347 174.60511 
L 309.06169 174.91355 
L 309.0985 176.275828 
L 309.444512 195.73327 
L 309.473959 195.219203 
L 309.672732 183.318548 
L 310.077639 159.568646 
L 310.099725 159.465833 
L 310.121811 159.697163 
L 310.482546 169.027482 
L 310.688681 181.827754 
L 310.909539 198.457826 
L 310.946349 197.018438 
L 311.086226 174.707924 
L 311.351256 133.659662 
L 311.373342 134.096619 
L 311.476409 144.892029 
L 311.748801 179.514451 
L 311.778249 179.103198 
L 311.940212 173.062909 
L 312.021193 174.553703 
L 312.138984 182.418931 
L 312.411377 196.067414 
L 312.470272 195.090686 
L 312.757388 175.787465 
L 313.037142 159.003172 
L 313.081314 159.82568 
L 313.55984 176.044498 
L 313.839594 198.894783 
L 313.9353 193.214341 
L 314.185606 142.861464 
L 314.303397 133.711068 
L 314.340207 135.4846 
L 314.494808 158.334885 
L 314.700942 179.900002 
L 314.723028 179.334528 
L 314.899715 172.523138 
L 314.951249 173.602679 
L 315.076402 180.748212 
L 315.341432 195.630456 
L 315.378242 195.167796 
L 315.481309 190.207048 
L 315.959835 159.337316 
L 315.981921 158.848952 
L 316.040817 160.339747 
L 316.511982 176.481455 
L 316.673944 190.464082 
L 316.813821 199.25463 
L 316.850631 197.892352 
L 316.983146 176.635675 
L 317.248176 133.479738 
L 317.270262 133.968102 
L 317.37333 144.146632 
L 317.653084 179.591561 
L 317.667807 179.463045 
L 317.82977 173.088612 
L 317.9402 175.170584 
L 318.308297 195.219203 
L 318.352469 194.602322 
L 318.514431 186.068807 
L 318.956148 159.105986 
L 319.044492 162.421719 
L 319.243264 167.459577 
L 319.26535 167.151136 
L 319.272712 167.09973 
L 319.30216 167.56239 
L 319.552466 182.393227 
L 319.765963 198.997596 
L 319.802772 197.481098 
L 319.950011 172.266105 
L 320.200318 131.320656 
L 320.222403 132.143164 
L 320.332833 144.634995 
L 320.612587 180.773916 
L 320.627311 180.568289 
L 320.789273 174.013933 
L 320.892341 175.633244 
L 321.282524 195.73327 
L 321.363505 192.44324 
L 321.599088 176.815599 
L 321.878842 158.669028 
L 321.945099 159.954196 
L 322.239577 166.919806 
L 322.460436 178.460614 
L 322.710742 198.791969 
L 322.769637 196.324447 
L 322.894791 173.705493 
L 323.152459 132.220274 
L 323.174545 132.811451 
L 323.27025 143.452641 
L 323.550004 181.64783 
L 323.579452 181.030949 
L 323.748776 174.168153 
L 323.822396 175.504728 
L 323.940187 181.64783 
L 324.212579 195.116389 
L 324.249389 194.370992 
L 324.396628 187.199755 
L 324.860431 158.411995 
L 324.919326 159.774273 
L 325.375767 175.581838 
L 325.50092 186.274434 
L 325.677607 199.357443 
L 325.714417 197.481098 
L 325.869018 168.359194 
L 326.097238 132.220274 
L 326.119324 132.862858 
L 326.222391 144.763512 
L 326.494783 180.876729 
L 326.531593 180.234145 
L 326.737727 173.422756 
L 326.774537 173.988229 
L 326.877604 179.925705 
L 327.20153 194.987873 
L 327.230978 194.345289 
L 327.510732 177.997953 
L 327.80521 157.692301 
L 327.886191 160.108416 
L 328.246927 171.623521 
L 328.430975 183.678395 
L 328.622386 199.0233 
L 328.651834 197.995165 
L 328.747539 184.500903 
L 329.056741 133.171298 
L 329.100913 135.972964 
L 329.292323 166.482849 
L 329.446924 180.002815 
L 329.476372 179.360231 
L 329.638335 172.728765 
L 329.704592 173.731196 
L 329.80766 178.820461 
L 330.116862 195.527643 
L 330.183119 193.856925 
L 330.418701 180.722509 
L 330.735265 158.283478 
L 330.83097 160.493967 
L 331.147534 170.46687 
L 331.545079 198.663453 
L 331.574527 199.126113 
L 331.611337 197.583912 
L 331.73649 177.406776 
L 332.00152 132.708637 
L 332.023606 133.402628 
L 332.134035 145.714536 
L 332.406427 179.797188 
L 332.421151 179.540155 
L 332.590476 172.882985 
L 332.693543 174.60511 
L 333.105812 194.756542 
L 333.164708 192.494647 
L 333.503358 170.6982 
L 333.694768 158.540512 
L 333.73894 159.208799 
L 334.298448 180.259849 
L 334.519306 199.48596 
L 334.57084 196.607184 
L 334.718079 168.976075 
L 334.953661 133.633958 
L 334.975747 134.225136 
L 335.056729 142.013253 
L 335.358569 180.234145 
L 335.40274 178.666241 
L 335.572065 172.574545 
L 335.616237 172.882985 
L 335.719304 178.743351 
L 336.021144 194.987873 
L 336.109487 192.803087 
L 336.212554 186.994128 
L 336.654271 158.566215 
L 336.764701 161.959058 
L 337.272675 183.035811 
L 337.471448 199.280333 
L 337.508257 197.635318 
L 337.640772 175.530431 
L 337.905803 133.042781 
L 337.927888 133.762475 
L 338.030956 145.328986 
L 338.303348 179.977112 
L 338.325434 179.642968 
L 338.494758 172.934392 
L 338.605188 174.75933 
L 338.973285 195.681863 
L 339.054266 194.088255 
L 339.201505 186.223028 
L 339.591689 158.591918 
L 339.67267 159.748569 
L 340.003958 170.312649 
L 340.335245 195.064983 
L 340.408865 198.637749 
L 340.460398 196.735701 
L 340.57819 178.20358 
L 340.857944 132.554417 
L 340.887391 133.711068 
L 341.019907 151.189351 
L 341.262851 179.540155 
L 341.277575 179.411638 
L 341.402728 174.502297 
L 341.476347 172.651655 
L 341.527881 173.834009 
L 341.719292 185.40052 
L 341.94015 196.35015 
L 341.984322 195.450533 
L 342.153647 185.965994 
L 342.558554 158.180665 
L 342.595363 159.131689 
L 343.243215 190.721115 
L 343.361006 198.714859 
L 343.41254 197.018438 
L 343.545055 175.556134 
L 343.810085 134.019509 
L 343.832171 134.584983 
L 343.927876 143.529751 
L 344.222354 180.259849 
L 344.259164 179.437341 
L 344.428488 173.319942 
L 344.502108 174.528 
L 344.641985 182.316117 
L 344.899653 195.244906 
L 344.965911 194.088255 
L 345.297198 170.955233 
L 345.495971 159.620053 
L 345.532781 160.416857 
L 345.819897 167.87083 
L 345.856706 168.333491 
L 346.026031 175.119177 
L 346.114375 181.64783 
L 346.313147 197.943759 
L 346.357319 196.658591 
L 346.47511 180.054222 
L 346.769588 133.685365 
L 346.799036 134.482169 
L 346.902103 147.359551 
L 347.174495 180.491179 
L 347.189219 180.234145 
L 347.410077 173.319942 
L 347.461611 174.964957 
L 347.734003 191.029555 
L 347.83707 194.576619 
L 347.888604 194.345289 
L 347.954862 192.083393 
L 348.160996 177.843733 
L 348.462836 158.566215 
L 348.499646 159.414426 
L 348.889829 171.186564 
L 349.014982 176.789895 
L 349.132773 187.636712 
L 349.280012 197.455395 
L 349.316822 195.836083 
L 349.449337 175.941685 
L 349.714367 135.356083 
L 349.729091 135.690227 
L 349.832158 145.277579 
L 350.133998 180.105629 
L 350.148722 179.874298 
L 350.362219 173.474162 
L 350.428476 174.68222 
L 350.803935 195.142093 
L 350.884917 192.82879 
L 351.054242 182.084787 
L 351.429701 158.694732 
L 351.473873 159.90279 
L 351.797798 169.567252 
L 352.018657 181.056653 
L 352.232153 197.275471 
L 352.283687 194.910762 
L 352.44565 166.380036 
L 352.67387 134.430762 
L 352.695956 135.278973 
L 352.828471 150.906615 
L 353.078777 179.822892 
L 353.130311 178.254987 
L 353.284912 172.497435 
L 353.358531 173.628382 
L 353.498408 182.161897 
L 353.756077 195.784677 
L 353.792886 195.476236 
L 353.947487 187.302569 
L 354.352394 159.465833 
L 354.403928 160.571077 
L 354.948712 178.846164 
L 355.184295 196.838514 
L 355.228466 195.064983 
L 355.353619 176.121608 
L 355.626011 133.890992 
L 355.655459 134.636389 
L 355.765888 148.207762 
L 356.030919 179.257418 
L 356.053004 178.948977 
L 356.237053 171.983368 
L 356.318035 173.731196 
L 356.686132 195.142093 
L 356.803923 192.468943 
L 357.311897 160.416857 
L 357.356069 161.444991 
L 357.621099 168.127864 
L 357.628461 168.102161 
L 357.657909 168.384898 
L 357.827234 174.091043 
L 357.974473 185.657554 
L 358.143798 197.712428 
L 358.173245 196.632887 
L 358.291037 180.439772 
L 358.578153 134.302246 
L 358.614962 135.998667 
L 358.747477 154.196644 
L 358.98306 179.565858 
L 358.990422 179.514451 
L 359.071403 176.327235 
L 359.189194 171.854851 
L 359.255452 172.420325 
L 359.343795 177.81803 
L 359.667721 195.913193 
L 359.704531 195.34772 
L 359.873855 185.606147 
L 360.278763 160.51967 
L 360.293486 160.571077 
L 360.367106 162.344609 
L 360.602688 167.768017 
L 360.691032 169.798582 
L 360.838271 176.918412 
L 361.088577 197.403988 
L 361.147472 194.499509 
L 361.302073 166.688476 
L 361.530294 134.096619 
L 361.545018 134.456466 
L 361.633361 142.784354 
L 361.935201 180.414069 
L 361.994096 178.04936 
L 362.170783 171.649224 
L 362.200231 171.931961 
L 362.259127 174.785034 
L 362.6125 196.632887 
L 362.664034 195.758973 
L 362.796549 188.38211 
L 363.208818 159.363019 
L 363.289799 160.982331 
L 363.797774 177.89514 
L 364.040718 198.94619 
L 364.092252 196.735701 
L 364.232129 171.854851 
L 364.482435 133.582552 
L 364.497159 133.942399 
L 364.585502 142.14177 
L 364.87998 179.463045 
L 364.924152 178.332097 
L 365.093477 171.00664 
L 365.174458 172.780172 
L 365.343783 185.349113 
L 365.564641 197.018438 
L 365.594089 196.684294 
L 365.697156 191.543623 
L 366.168321 160.21123 
L 366.219855 161.187958 
L 366.764639 179.385935 
L 366.992859 198.303606 
L 367.022307 197.429691 
L 367.132736 182.213304 
L 367.427214 132.862858 
L 367.478748 135.587414 
L 367.640711 160.802407 
L 367.839483 180.748212 
L 367.854207 180.593992 
L 368.045618 172.163291 
L 368.148685 174.60511 
L 368.516782 196.04171 
L 368.560954 195.193499 
L 368.796536 179.488748 
L 369.120462 160.648187 
L 369.164634 161.367881 
L 369.481198 167.896534 
L 369.591627 170.77531 
L 369.775675 184.989266 
L 369.945 198.046572 
L 369.996534 195.758973 
L 370.129049 172.523138 
L 370.386717 133.299815 
L 370.394079 133.479738 
L 370.482422 141.165042 
L 370.791624 180.902433 
L 370.857882 177.89514 
L 370.997759 171.854851 
L 371.071378 173.140019 
L 371.468924 196.170227 
L 371.557267 193.188637 
L 372.072603 161.008034 
L 372.190394 163.835403 
L 372.381805 167.40817 
L 372.403891 167.279653 
L 372.433339 167.613797 
L 372.654197 176.584269 
L 372.904503 198.637749 
L 372.948675 195.990303 
L 373.118 163.783997 
L 373.331496 134.019509 
L 373.353582 134.764906 
L 373.456649 145.791646 
L 373.736404 180.619696 
L 373.751127 180.362662 
L 373.898366 172.266105 
L 373.942538 171.443597 
L 374.008796 172.137588 
L 374.075053 175.761761 
L 374.421065 196.221634 
L 374.450512 195.913193 
L 374.590389 188.125076 
L 375.039468 159.954196 
L 375.127812 162.267499 
L 375.333946 166.328629 
L 375.363394 166.200112 
L 375.400204 166.611366 
L 375.540081 172.677358 
L 375.68732 187.019832 
L 375.841921 199.665884 
L 375.87873 198.560639 
L 375.996522 181.056653 
L 376.283638 133.993805 
L 376.320447 135.690227 
L 376.467686 156.407133 
L 376.688545 180.619696 
L 376.703269 180.285552 
L 376.902041 170.801013 
L 376.983023 172.677358 
L 377.358482 196.735701 
L 377.446825 194.191068 
L 377.61615 182.598854 
L 377.969524 159.388722 
L 377.998971 159.82568 
L 378.300811 166.585663 
L 378.389155 168.667635 
L 378.536394 176.481455 
L 378.7867 199.306037 
L 378.875043 193.548484 
L 379.235779 133.968102 
L 379.338846 141.679109 
L 379.633324 179.797188 
L 379.699581 177.560996 
L 379.854182 171.546411 
L 379.905716 172.111884 
L 379.986697 177.303963 
L 380.303261 195.9646 
L 380.354795 195.296313 
L 380.443138 191.209479 
L 380.929027 160.005603 
L 380.951113 160.185527 
L 381.260314 167.356763 
L 381.2824 167.459577 
L 381.333934 168.564821 
L 381.753565 198.791969 
L 381.790375 197.249768 
L 381.92289 175.787465 
L 382.18792 133.839585 
L 382.210006 134.430762 
L 382.305711 143.992411 
L 382.592827 180.131332 
L 382.622275 179.540155 
L 382.806323 171.623521 
L 382.879943 173.191425 
L 383.277488 195.193499 
L 383.373193 191.98058 
L 383.741291 165.274791 
L 383.88853 159.620053 
L 383.910616 159.851383 
L 384.4554 177.97225 
L 384.690982 198.483529 
L 384.75724 195.476236 
L 384.911841 166.996916 
L 385.140061 134.405059 
L 385.154785 134.662093 
L 385.243128 142.424507 
L 385.537606 180.491179 
L 385.618588 176.892709 
L 385.751103 171.417894 
L 385.809998 172.600248 
L 385.942513 180.902433 
L 386.222267 195.167796 
L 386.236991 195.013576 
L 386.325335 191.569326 
L 386.848033 160.776704 
L 386.921652 162.318905 
L 387.208768 167.768017 
L 387.392817 176.892709 
L 387.657847 198.457826 
L 387.731467 192.983011 
L 388.099564 133.993805 
L 388.180546 140.162611 
L 388.497109 179.514451 
L 388.563367 176.892709 
L 388.695882 171.417894 
L 388.747416 172.034774 
L 388.828397 175.761761 
L 389.159685 195.219203 
L 389.203856 194.705136 
L 389.2922 191.440809 
L 389.800174 160.391153 
L 389.910603 162.755862 
L 390.367044 178.537724 
L 390.609988 197.892352 
L 390.65416 195.527643 
L 390.801399 169.901396 
L 391.044343 134.430762 
L 391.059067 134.790609 
L 391.169496 145.868756 
L 391.441888 179.925705 
L 391.478698 179.103198 
L 391.662747 171.957664 
L 391.714281 172.754468 
L 391.7879 177.021226 
L 392.133912 195.527643 
L 392.163359 195.142093 
L 392.303236 188.22789 
L 392.752315 159.774273 
L 392.870106 162.241795 
L 393.068879 166.662773 
L 393.179308 170.389759 
L 393.363357 183.626989 
L 393.547406 198.072275 
L 393.584215 197.275471 
L 393.672559 186.480061 
L 394.003846 134.713499 
L 394.062742 138.311969 
L 394.261515 170.595386 
L 394.401392 179.977112 
L 394.430839 179.308824 
L 394.600164 171.572114 
L 394.681146 173.140019 
L 394.806299 181.133763 
L 395.071329 194.756542 
L 395.086053 194.679432 
L 395.159672 192.82879 
L 395.328997 182.290414 
L 395.689732 159.954196 
L 395.733904 160.493967 
L 396.300774 181.596423 
L 396.499547 197.686725 
L 396.543718 196.581481 
L 396.654148 180.851026 
L 396.948626 135.458897 
L 396.985435 137.103912 
L 397.125312 156.818387 
L 397.346171 180.259849 
L 397.360895 180.131332 
L 397.471324 174.83644 
L 397.559667 171.957664 
L 397.618563 172.677358 
L 397.677458 175.504728 
L 398.030832 195.039279 
L 398.038194 195.116389 
L 398.082366 194.525212 
L 398.266414 184.320979 
L 398.487273 167.151136 
L 398.487273 167.151136 
" clip-path="url(#p64e6f6dcaa)" style="fill: none; stroke: #1f77b4; stroke-width: 1.5; stroke-linecap: square"/>
   </g>
   <g id="patch_3">
    <path d="M 57.6 307.584 
L 57.6 41.472 
" style="fill: none; stroke: #000000; stroke-width: 0.8; stroke-linejoin: miter; stroke-linecap: square"/>
   </g>
   <g id="patch_4">
    <path d="M 414.72 307.584 
L 414.72 41.472 
" style="fill: none; stroke: #000000; stroke-width: 0.8; stroke-linejoin: miter; stroke-linecap: square"/>
   </g>
   <g id="patch_5">
    <path d="M 57.6 307.584 
L 414.72 307.584 
" style="fill: none; stroke: #000000; stroke-width: 0.8; stroke-linejoin: miter; stroke-linecap: square"/>
   </g>
   <g id="patch_6">
    <path d="M 57.6 41.472 
L 414.72 41.472 
" style="fill: none; stroke: #000000; stroke-width: 0.8; stroke-linejoin: miter; stroke-linecap: square"/>
   </g>
   <g id="text_14">
    <text style="font: 12px 'IPAexGothic'; text-anchor: middle" x="236.16" y="35.472" transform="rotate(-0 236.16 35.472)">"038_A2.wav"の波形グラフ</text>
   </g>
  </g>
 </g>
 <defs>
  <clipPath id="p64e6f6dcaa">
   <rect x="57.6" y="41.472" width="357.12" height="266.112"/>
  </clipPath>
 </defs>
</svg>
