<?xml version="1.0" encoding="utf-8" standalone="no"?>
<!DOCTYPE svg PUBLIC "-//W3C//DTD SVG 1.1//EN"
  "http://www.w3.org/Graphics/SVG/1.1/DTD/svg11.dtd">
<svg xmlns:xlink="http://www.w3.org/1999/xlink" width="460.8pt" height="345.6pt" viewBox="0 0 460.8 345.6" xmlns="http://www.w3.org/2000/svg" version="1.1">
 <metadata>
  <rdf:RDF xmlns:dc="http://purl.org/dc/elements/1.1/" xmlns:cc="http://creativecommons.org/ns#" xmlns:rdf="http://www.w3.org/1999/02/22-rdf-syntax-ns#">
   <cc:Work>
    <dc:type rdf:resource="http://purl.org/dc/dcmitype/StillImage"/>
    <dc:date>2022-11-28T12:34:32.118235</dc:date>
    <dc:format>image/svg+xml</dc:format>
    <dc:creator>
     <cc:Agent>
      <dc:title>Matplotlib v3.6.2, https://matplotlib.org/</dc:title>
     </cc:Agent>
    </dc:creator>
   </cc:Work>
  </rdf:RDF>
 </metadata>
 <defs>
  <style type="text/css">*{stroke-linejoin: round; stroke-linecap: butt}</style>
 </defs>
 <g id="figure_1">
  <g id="patch_1">
   <path d="M 0 345.6 
L 460.8 345.6 
L 460.8 0 
L 0 0 
z
" style="fill: #ffffff"/>
  </g>
  <g id="axes_1">
   <g id="patch_2">
    <path d="M 57.6 307.584 
L 414.72 307.584 
L 414.72 41.472 
L 57.6 41.472 
z
" style="fill: #ffffff"/>
   </g>
   <g id="matplotlib.axis_1">
    <g id="xtick_1">
     <g id="line2d_1">
      <defs>
       <path id="m2e8b7a6109" d="M 0 0 
L 0 3.5 
" style="stroke: #000000; stroke-width: 0.8"/>
      </defs>
      <g>
       <use xlink:href="#m2e8b7a6109" x="73.832727" y="307.584" style="stroke: #000000; stroke-width: 0.8"/>
      </g>
     </g>
     <g id="text_1">
      <text style="font: 10px 'IPAexGothic'; text-anchor: middle" x="73.832727" y="322.074625" transform="rotate(-0 73.832727 322.074625)">0.0</text>
     </g>
    </g>
    <g id="xtick_2">
     <g id="line2d_2">
      <g>
       <use xlink:href="#m2e8b7a6109" x="138.765109" y="307.584" style="stroke: #000000; stroke-width: 0.8"/>
      </g>
     </g>
     <g id="text_2">
      <text style="font: 10px 'IPAexGothic'; text-anchor: middle" x="138.765109" y="322.074625" transform="rotate(-0 138.765109 322.074625)">0.2</text>
     </g>
    </g>
    <g id="xtick_3">
     <g id="line2d_3">
      <g>
       <use xlink:href="#m2e8b7a6109" x="203.69749" y="307.584" style="stroke: #000000; stroke-width: 0.8"/>
      </g>
     </g>
     <g id="text_3">
      <text style="font: 10px 'IPAexGothic'; text-anchor: middle" x="203.69749" y="322.074625" transform="rotate(-0 203.69749 322.074625)">0.4</text>
     </g>
    </g>
    <g id="xtick_4">
     <g id="line2d_4">
      <g>
       <use xlink:href="#m2e8b7a6109" x="268.629872" y="307.584" style="stroke: #000000; stroke-width: 0.8"/>
      </g>
     </g>
     <g id="text_4">
      <text style="font: 10px 'IPAexGothic'; text-anchor: middle" x="268.629872" y="322.074625" transform="rotate(-0 268.629872 322.074625)">0.6</text>
     </g>
    </g>
    <g id="xtick_5">
     <g id="line2d_5">
      <g>
       <use xlink:href="#m2e8b7a6109" x="333.562253" y="307.584" style="stroke: #000000; stroke-width: 0.8"/>
      </g>
     </g>
     <g id="text_5">
      <text style="font: 10px 'IPAexGothic'; text-anchor: middle" x="333.562253" y="322.074625" transform="rotate(-0 333.562253 322.074625)">0.8</text>
     </g>
    </g>
    <g id="xtick_6">
     <g id="line2d_6">
      <g>
       <use xlink:href="#m2e8b7a6109" x="398.494635" y="307.584" style="stroke: #000000; stroke-width: 0.8"/>
      </g>
     </g>
     <g id="text_6">
      <text style="font: 10px 'IPAexGothic'; text-anchor: middle" x="398.494635" y="322.074625" transform="rotate(-0 398.494635 322.074625)">1.0</text>
     </g>
    </g>
    <g id="text_7">
     <text style="font: 10px 'IPAexGothic'; text-anchor: middle" x="236.16" y="335.924625" transform="rotate(-0 236.16 335.924625)">時間[s]</text>
    </g>
   </g>
   <g id="matplotlib.axis_2">
    <g id="ytick_1">
     <g id="line2d_7">
      <defs>
       <path id="m20daa1c0b1" d="M 0 0 
L -3.5 0 
" style="stroke: #000000; stroke-width: 0.8"/>
      </defs>
      <g>
       <use xlink:href="#m20daa1c0b1" x="57.6" y="284.560288" style="stroke: #000000; stroke-width: 0.8"/>
      </g>
     </g>
     <g id="text_8">
      <text style="font: 10px 'IPAexGothic'; text-anchor: end" x="50.6" y="288.3056" transform="rotate(-0 50.6 288.3056)">−3000</text>
     </g>
    </g>
    <g id="ytick_2">
     <g id="line2d_8">
      <g>
       <use xlink:href="#m20daa1c0b1" x="57.6" y="254.945892" style="stroke: #000000; stroke-width: 0.8"/>
      </g>
     </g>
     <g id="text_9">
      <text style="font: 10px 'IPAexGothic'; text-anchor: end" x="50.6" y="258.691205" transform="rotate(-0 50.6 258.691205)">−2000</text>
     </g>
    </g>
    <g id="ytick_3">
     <g id="line2d_9">
      <g>
       <use xlink:href="#m20daa1c0b1" x="57.6" y="225.331496" style="stroke: #000000; stroke-width: 0.8"/>
      </g>
     </g>
     <g id="text_10">
      <text style="font: 10px 'IPAexGothic'; text-anchor: end" x="50.6" y="229.076809" transform="rotate(-0 50.6 229.076809)">−1000</text>
     </g>
    </g>
    <g id="ytick_4">
     <g id="line2d_10">
      <g>
       <use xlink:href="#m20daa1c0b1" x="57.6" y="195.7171" style="stroke: #000000; stroke-width: 0.8"/>
      </g>
     </g>
     <g id="text_11">
      <text style="font: 10px 'IPAexGothic'; text-anchor: end" x="50.6" y="199.462413" transform="rotate(-0 50.6 199.462413)">0</text>
     </g>
    </g>
    <g id="ytick_5">
     <g id="line2d_11">
      <g>
       <use xlink:href="#m20daa1c0b1" x="57.6" y="166.102704" style="stroke: #000000; stroke-width: 0.8"/>
      </g>
     </g>
     <g id="text_12">
      <text style="font: 10px 'IPAexGothic'; text-anchor: end" x="50.6" y="169.848017" transform="rotate(-0 50.6 169.848017)">1000</text>
     </g>
    </g>
    <g id="ytick_6">
     <g id="line2d_12">
      <g>
       <use xlink:href="#m20daa1c0b1" x="57.6" y="136.488308" style="stroke: #000000; stroke-width: 0.8"/>
      </g>
     </g>
     <g id="text_13">
      <text style="font: 10px 'IPAexGothic'; text-anchor: end" x="50.6" y="140.233621" transform="rotate(-0 50.6 140.233621)">2000</text>
     </g>
    </g>
    <g id="ytick_7">
     <g id="line2d_13">
      <g>
       <use xlink:href="#m20daa1c0b1" x="57.6" y="106.873913" style="stroke: #000000; stroke-width: 0.8"/>
      </g>
     </g>
     <g id="text_14">
      <text style="font: 10px 'IPAexGothic'; text-anchor: end" x="50.6" y="110.619225" transform="rotate(-0 50.6 110.619225)">3000</text>
     </g>
    </g>
    <g id="ytick_8">
     <g id="line2d_14">
      <g>
       <use xlink:href="#m20daa1c0b1" x="57.6" y="77.259517" style="stroke: #000000; stroke-width: 0.8"/>
      </g>
     </g>
     <g id="text_15">
      <text style="font: 10px 'IPAexGothic'; text-anchor: end" x="50.6" y="81.004829" transform="rotate(-0 50.6 81.004829)">4000</text>
     </g>
    </g>
    <g id="ytick_9">
     <g id="line2d_15">
      <g>
       <use xlink:href="#m20daa1c0b1" x="57.6" y="47.645121" style="stroke: #000000; stroke-width: 0.8"/>
      </g>
     </g>
     <g id="text_16">
      <text style="font: 10px 'IPAexGothic'; text-anchor: end" x="50.6" y="51.390433" transform="rotate(-0 50.6 51.390433)">5000</text>
     </g>
    </g>
    <g id="text_17">
     <text style="font: 10px 'IPAexGothic'; text-anchor: middle" x="12.723438" y="174.528" transform="rotate(-90 12.723438 174.528)">振幅</text>
    </g>
   </g>
   <g id="line2d_16">
    <path d="M 73.832727 195.746715 
L 73.862175 195.746715 
L 73.972604 196.398231 
L 73.99469 196.339003 
L 74.002052 196.220545 
L 74.075672 196.753604 
L 74.083034 196.635147 
L 74.105119 196.605532 
L 74.252358 197.878951 
L 74.267082 197.790108 
L 74.274444 197.582807 
L 74.348064 198.41201 
L 74.355426 198.352781 
L 74.392235 198.293553 
L 74.399597 198.589697 
L 74.613094 203.653758 
L 75.054811 243.366663 
L 75.076896 242.359774 
L 75.157878 241.204812 
L 75.121068 243.307434 
L 75.194688 241.382499 
L 75.216773 240.138694 
L 75.260945 241.915558 
L 75.312479 240.879054 
L 75.636405 215.025686 
L 75.916159 180.169542 
L 75.930882 180.288 
L 75.938244 179.518026 
L 76.387323 135.629491 
L 76.5272 128.196278 
L 76.416771 136.932524 
L 76.571372 132.490365 
L 76.770145 173.624761 
L 77.101432 237.206869 
L 77.16769 228.115249 
L 77.307567 192.222602 
L 77.631492 116.439362 
L 77.66094 114.484812 
L 77.683026 111.997203 
L 77.764008 114.810571 
L 78.220448 203.298386 
L 78.448669 246.091188 
L 78.463393 245.173141 
L 78.514926 246.387332 
L 78.654803 218.075969 
L 78.890386 174.15782 
L 78.912471 175.075866 
L 78.919833 175.431239 
L 78.964005 172.321728 
L 78.971367 172.617871 
L 78.986091 172.025584 
L 79.022901 167.998026 
L 79.09652 170.574478 
L 79.177502 172.765943 
L 79.199587 171.374067 
L 79.280569 167.020751 
L 79.32474 169.24183 
L 79.346826 170.071033 
L 79.413084 168.797614 
L 79.427808 167.968411 
L 79.464618 172.380956 
L 79.96523 246.653861 
L 80.024126 240.730982 
L 80.443757 148.126766 
L 80.465842 148.867126 
L 80.473204 148.867126 
L 80.49529 150.525532 
L 80.723511 204.364504 
L 81.003265 279.140853 
L 81.017989 278.57818 
L 81.032712 278.341265 
L 81.047436 279.31854 
L 81.054798 280.029285 
L 81.128418 277.808206 
L 81.570135 151.325121 
L 81.768907 110.338797 
L 81.805717 112.678334 
L 81.886698 125.442139 
L 82.276882 237.325326 
L 82.321053 236.644195 
L 82.402035 244.669697 
L 82.814304 295.488 
L 82.895285 294.658797 
L 83.005714 275.912884 
L 83.263383 168.264555 
L 83.484241 104.889748 
L 83.506327 105.156278 
L 83.521051 105.600494 
L 83.609394 116.468977 
L 83.719823 148.126766 
L 84.065835 258.23309 
L 84.16154 265.251702 
L 84.213074 263.474838 
L 84.316141 256.663527 
L 84.80203 148.511753 
L 84.846202 153.575815 
L 85.133317 197.612422 
L 85.214299 190.830725 
L 85.390986 183.545584 
L 85.449881 179.221882 
L 85.501415 183.308668 
L 85.766445 204.512576 
L 85.825341 205.134478 
L 85.86215 204.009131 
L 85.97258 194.384452 
L 86.377487 138.620545 
L 86.392211 138.768617 
L 86.480554 153.635044 
L 86.922271 286.337152 
L 87.010614 273.217974 
L 87.187301 208.569748 
L 87.584846 56.795969 
L 87.629018 53.568 
L 87.67319 58.21746 
L 87.790981 115.0771 
L 88.151716 253.198643 
L 88.173802 253.968617 
L 88.225336 252.162139 
L 88.416746 240.819825 
L 88.460918 241.32327 
L 88.497728 241.826715 
L 88.549261 241.027126 
L 88.586071 239.812936 
L 88.637605 242.034015 
L 88.725948 247.216535 
L 88.777482 244.610468 
L 89.027788 204.631033 
L 89.417971 124.849851 
L 89.432695 125.38291 
L 89.543124 147.297563 
L 90.043737 256.663527 
L 90.073185 255.982396 
L 90.271957 222.310828 
L 90.573797 151.028977 
L 90.610607 153.398129 
L 90.647417 158.047589 
L 90.868275 212.715763 
L 91.015514 224.650365 
L 91.022876 224.828051 
L 91.059686 223.554632 
L 91.206925 194.858283 
L 91.464593 158.314118 
L 91.501403 158.906406 
L 91.552936 163.733553 
L 91.862138 202.084195 
L 91.921034 199.211599 
L 92.311217 162.756278 
L 92.377474 170.811393 
L 92.804467 269.960391 
L 92.907535 264.392884 
L 93.010602 233.534684 
L 93.474405 64.673398 
L 93.57011 79.125224 
L 93.739435 152.183938 
L 94.011827 254.027846 
L 94.048637 255.893553 
L 94.107532 253.228257 
L 94.276857 245.528514 
L 94.40201 240.197923 
L 94.453544 243.366663 
L 94.659678 252.813656 
L 94.696488 253.494787 
L 94.733298 251.658694 
L 94.806917 243.781265 
L 94.924708 220.148977 
L 95.292806 121.592267 
L 95.322254 123.072987 
L 95.366425 128.07782 
L 95.587284 187.040082 
L 95.867038 250.651805 
L 95.992191 259.328823 
L 96.036362 256.722756 
L 96.161516 231.402447 
L 96.522251 158.106817 
L 96.588509 166.783835 
L 96.905072 227.167589 
L 96.956606 223.436175 
L 97.221636 169.093758 
L 97.354151 154.641933 
L 97.383599 155.29345 
L 97.427771 155.174992 
L 97.471942 155.530365 
L 97.545562 163.64471 
L 97.80323 192.54836 
L 98.016726 186.15165 
L 98.178689 173.299003 
L 98.222861 175.934684 
L 98.414272 205.371393 
L 98.694026 264.570571 
L 98.730835 262.349491 
L 98.97378 196.279774 
L 99.356601 69.382087 
L 99.378687 68.612113 
L 99.415497 70.21129 
L 99.50384 92.836689 
L 99.923471 254.087075 
L 99.952919 253.642859 
L 100.092796 248.608411 
L 100.29893 235.696535 
L 100.313654 235.548463 
L 100.387274 236.318437 
L 100.527151 241.471342 
L 100.578684 240.286766 
L 100.740647 231.905892 
L 100.990953 166.517306 
L 101.233898 124.287177 
L 101.248622 124.672165 
L 101.322241 134.622602 
L 101.925921 247.009234 
L 102.006902 240.10908 
L 102.382362 166.191548 
L 102.470705 176.556586 
L 102.743097 229.53674 
L 102.779907 227.819105 
L 102.971318 201.225378 
L 103.221624 153.309285 
L 103.265795 151.265892 
L 103.324691 153.279671 
L 103.530826 186.41818 
L 103.759046 209.961625 
L 103.766408 209.843167 
L 103.81058 211.294272 
L 103.854751 209.695095 
L 104.141867 188.728103 
L 104.193401 193.199877 
L 104.443707 239.664864 
L 104.60567 252.36944 
L 104.64248 253.554015 
L 104.679289 250.562961 
L 104.767633 227.10836 
L 105.268245 86.232679 
L 105.327141 91.592884 
L 105.444932 130.565429 
L 105.842477 251.925224 
L 105.864563 251.244093 
L 105.908735 247.749594 
L 106.144317 230.928617 
L 106.159041 231.224761 
L 106.181127 231.609748 
L 106.519776 260.809542 
L 106.578672 257.048514 
L 106.821616 204.157203 
L 107.130818 134.267229 
L 107.152904 133.674941 
L 107.2118 135.540648 
L 107.359039 167.701882 
L 107.808117 251.332936 
L 107.815479 251.658694 
L 107.867013 249.556072 
L 108.0437 219.675147 
L 108.316092 175.16471 
L 108.389711 180.258386 
L 108.662103 215.144144 
L 108.691551 214.640699 
L 108.80198 198.41201 
L 109.14063 144.039979 
L 109.170078 144.424967 
L 109.295231 159.380237 
L 109.626519 216.269491 
L 109.678052 213.308051 
L 109.965168 186.566252 
L 110.016702 187.010468 
L 110.024064 187.040082 
L 110.053511 186.773553 
L 110.060873 186.477409 
L 110.119769 188.046972 
L 110.208112 204.364504 
L 110.495228 246.772319 
L 110.50259 246.328103 
L 110.590934 233.505069 
L 110.782344 191.630314 
L 111.150442 91.355969 
L 111.209337 94.73201 
L 111.33449 128.699722 
L 111.67314 230.129028 
L 111.717312 230.365943 
L 111.74676 230.010571 
L 111.754121 230.040185 
L 111.967618 217.335609 
L 112.019152 220.267434 
L 112.173753 229.53674 
L 112.298906 251.244093 
L 112.482954 264.067126 
L 112.497678 263.563681 
L 112.659641 231.076689 
L 113.049824 118.956586 
L 113.130806 125.501368 
L 113.300131 157.929131 
L 113.778657 254.087075 
L 113.815467 254.79782 
L 113.844915 253.139414 
L 114.006878 219.260545 
L 114.20565 189.024247 
L 114.264546 192.814889 
L 114.500128 207.681316 
L 114.50749 207.296329 
L 114.514852 207.562859 
L 114.559024 205.371393 
L 114.743072 174.661265 
L 115.000741 146.586817 
L 115.008103 146.646046 
L 115.015464 146.142602 
L 115.066998 149.340956 
L 115.530801 226.486458 
L 115.552887 225.983013 
L 115.60442 220.148977 
L 115.928346 164.503527 
L 115.972518 166.576535 
L 116.149204 193.910622 
L 116.399511 244.01818 
L 116.47313 243.366663 
L 116.539388 236.969954 
L 116.804418 168.886458 
L 117.084172 90.704452 
L 117.098896 91.355969 
L 117.179877 104.208617 
L 117.658404 219.852833 
L 117.724661 218.105584 
L 117.732023 218.075969 
L 117.739385 218.253656 
L 117.746747 218.253656 
L 117.835091 225.064967 
L 118.284169 277.067846 
L 118.357789 272.448 
L 118.424046 263.001008 
L 118.541838 226.249542 
L 118.917297 109.894581 
L 118.924659 109.924195 
L 118.961469 111.43453 
L 119.064536 128.433193 
L 119.631406 262.941779 
L 119.705025 255.923167 
L 119.881712 214.729542 
L 120.080485 178.451907 
L 120.102571 178.659208 
L 120.213 184.848617 
L 120.382325 201.136535 
L 120.455944 200.248103 
L 120.551649 189.527692 
L 120.846127 153.901573 
L 120.853489 154.108874 
L 120.993366 164.888514 
L 121.243672 211.323887 
L 121.354102 224.324607 
L 121.405635 221.481625 
L 121.64858 180.998746 
L 121.773733 162.37129 
L 121.825266 164.681213 
L 121.979867 182.449851 
L 122.303793 258.203476 
L 122.355327 254.827434 
L 122.539375 225.331496 
L 122.97373 88.128 
L 123.04735 96.923476 
L 123.201951 151.798951 
L 123.474343 221.896226 
L 123.599496 226.545686 
L 123.636306 227.493347 
L 123.702563 226.279157 
L 123.768821 229.299825 
L 124.210538 275.972113 
L 124.247347 274.106406 
L 124.306243 265.459003 
L 124.490292 209.310108 
L 124.821579 116.972422 
L 124.858389 119.460031 
L 124.983542 144.869183 
L 125.152867 188.195044 
L 125.462069 251.777152 
L 125.50624 252.665584 
L 125.550412 250.977563 
L 125.638755 240.020237 
L 125.962681 180.821059 
L 126.006853 184.700545 
L 126.279245 223.910005 
L 126.360226 215.32183 
L 126.544275 187.543527 
L 126.794581 146.379517 
L 126.809305 146.20183 
L 126.831391 146.734889 
L 126.985992 169.360288 
L 127.332003 224.976123 
L 127.346727 224.857666 
L 127.354089 225.035352 
L 127.383537 223.584247 
L 127.523414 196.605532 
L 127.744273 175.816226 
L 127.832616 184.907846 
L 128.215437 244.343938 
L 128.230161 244.255095 
L 128.34059 234.126972 
L 128.554087 178.688823 
L 128.848565 95.146612 
L 128.892736 98.759568 
L 129.084147 155.471136 
L 129.356539 220.267434 
L 129.378625 221.007794 
L 129.437521 218.7571 
L 129.621569 211.827332 
L 129.651017 211.471959 
L 129.680465 211.975404 
L 129.805618 225.716483 
L 130.136906 277.215918 
L 130.195801 274.224864 
L 130.313592 250.740648 
L 130.770033 122.125326 
L 130.792119 122.480699 
L 130.799481 122.451085 
L 130.806843 122.747229 
L 130.880462 131.009645 
L 131.425247 253.939003 
L 131.469418 251.954838 
L 131.631381 222.399671 
L 131.859602 189.58692 
L 131.896411 188.935404 
L 131.925859 190.830725 
L 132.11727 213.929954 
L 132.198251 212.804607 
L 132.330766 197.553193 
L 132.676778 137.998643 
L 132.698864 138.472473 
L 132.809293 146.705275 
L 132.927084 176.971188 
L 133.199476 229.921728 
L 133.206838 229.862499 
L 133.243648 228.056021 
L 133.435058 199.300442 
L 133.678003 169.50836 
L 133.685365 169.478746 
L 133.692727 169.715661 
L 133.700089 169.715661 
L 133.795794 181.620648 
L 134.104996 229.122139 
L 134.141805 230.247486 
L 134.200701 228.441008 
L 134.27432 223.40656 
L 134.34794 212.656535 
L 134.774933 106.666612 
L 134.84119 114.33674 
L 135.069411 181.176432 
L 135.275545 208.066303 
L 135.319717 209.073193 
L 135.363889 207.592473 
L 135.474318 202.439568 
L 135.51849 203.268771 
L 135.651005 212.597306 
L 135.805606 243.988566 
L 136.055912 284.027229 
L 136.08536 282.872267 
L 136.210513 255.834324 
L 136.379838 187.780442 
L 136.630144 116.913193 
L 136.666954 115.402859 
L 136.725849 118.453141 
L 136.998241 172.914015 
L 137.351615 262.793707 
L 137.395786 259.536123 
L 137.638731 206.02291 
L 137.741798 190.297666 
L 137.800694 192.192987 
L 138.036276 205.341779 
L 138.058362 205.401008 
L 138.073086 204.956792 
L 138.154067 198.471239 
L 138.595784 147.68255 
L 138.632594 149.6371 
L 138.890262 204.512576 
L 139.081673 233.505069 
L 139.096396 233.416226 
L 139.177378 228.115249 
L 139.41296 179.636483 
L 139.567561 163.407794 
L 139.589647 164.562756 
L 139.729524 185.67782 
L 140.082897 242.419003 
L 140.112345 241.471342 
L 140.303756 213.544967 
L 140.657129 110.368411 
L 140.716025 113.685224 
L 140.819092 132.845738 
L 141.179828 202.558026 
L 141.518477 213.071136 
L 141.665716 243.01129 
L 141.908661 286.248308 
L 141.974918 282.961111 
L 142.0559 272.596072 
L 142.217862 210.701985 
L 142.556512 113.655609 
L 142.58596 112.64872 
L 142.62277 113.86291 
L 142.747923 134.119157 
L 143.012953 214.226098 
L 143.211725 265.074015 
L 143.255897 263.267537 
L 143.373688 246.44656 
L 143.704976 190.149594 
L 143.734424 190.860339 
L 143.896387 200.36656 
L 144.043625 199.211599 
L 144.117245 192.459517 
L 144.441171 156.03381 
L 144.455895 156.241111 
L 144.676753 179.695712 
L 144.956507 221.955455 
L 144.985955 221.45201 
L 145.04485 216.772936 
L 145.192089 189.942293 
L 145.3835 158.965635 
L 145.471843 162.282447 
L 145.567549 175.993913 
L 145.935646 245.824658 
L 146.009266 247.601522 
L 146.046075 246.268874 
L 146.171228 222.518129 
L 146.55405 104.682447 
L 146.627669 111.493758 
L 146.789632 153.427743 
L 147.091472 208.836278 
L 147.187177 213.130365 
L 147.246073 211.590416 
L 147.282883 210.524298 
L 147.334416 212.271548 
L 147.636256 256.870828 
L 147.849753 280.295815 
L 147.893924 277.83782 
L 147.98963 257.907332 
L 148.460794 128.966252 
L 148.5565 132.283064 
L 148.644843 141.167383 
L 148.902511 207.059414 
L 149.130732 253.3171 
L 149.138094 253.257871 
L 149.196989 249.467229 
L 149.535639 192.429902 
L 149.609258 196.605532 
L 149.859564 213.396895 
L 149.874288 212.923064 
L 149.984718 202.469183 
L 150.176128 174.602036 
L 150.396987 153.250057 
L 150.477968 158.402961 
L 150.669379 194.680596 
L 150.860789 222.281213 
L 150.897599 221.985069 
L 150.934409 221.422396 
L 150.985942 218.727486 
L 151.302506 168.146098 
L 151.383488 174.394735 
L 151.604346 207.651702 
L 151.869376 242.507846 
L 151.891462 242.626303 
L 151.92091 241.826715 
L 151.979805 237.799157 
L 152.112321 204.631033 
L 152.443608 111.671445 
L 152.473056 112.826406 
L 152.627657 139.86435 
L 152.973668 202.321111 
L 153.010478 202.765326 
L 153.05465 201.551136 
L 153.084098 201.047692 
L 153.135631 201.758437 
L 153.341766 214.403784 
L 153.731949 283.257254 
L 153.820292 277.83782 
L 153.92336 251.806766 
L 154.357715 125.205224 
L 154.394524 123.635661 
L 154.45342 125.886355 
L 154.652193 150.732833 
L 155.02029 248.460339 
L 155.079186 244.728925 
L 155.241148 216.447177 
L 155.381025 200.15926 
L 155.432559 201.37345 
L 155.609246 212.89345 
L 155.668141 216.387949 
L 155.734399 214.58147 
L 155.837466 209.487794 
L 155.977343 188.461573 
L 156.279183 147.267949 
L 156.315993 148.68944 
L 156.470594 168.29417 
L 156.772434 223.525018 
L 156.794519 223.19926 
L 156.963844 206.615198 
L 157.228874 174.394735 
L 157.265684 175.105481 
L 157.331942 180.110314 
L 157.78102 239.576021 
L 157.862002 235.66692 
L 157.994517 203.772216 
L 158.34789 115.639774 
L 158.369976 116.320905 
L 158.450958 128.048206 
L 158.841141 196.339003 
L 158.855865 196.250159 
L 158.981018 198.441625 
L 159.047276 197.286663 
L 159.069361 196.694375 
L 159.120895 198.767383 
L 159.260772 219.823219 
L 159.628869 289.417049 
L 159.709851 281.036175 
L 159.938071 205.312165 
L 160.247273 122.836072 
L 160.372426 120.970365 
L 160.394512 121.829183 
L 160.482855 133.46764 
L 160.703714 201.432679 
L 160.931934 248.904555 
L 160.939296 248.786098 
L 160.976106 246.742704 
L 161.108621 222.547743 
L 161.314756 203.239157 
L 161.329479 203.476072 
L 161.623957 214.699928 
L 161.653405 214.226098 
L 161.704939 211.086972 
L 161.925797 176.882344 
L 162.176103 145.491085 
L 162.190827 145.25417 
L 162.212913 146.024144 
L 162.330704 163.940853 
L 162.706164 223.93962 
L 162.742973 222.251599 
L 162.853403 205.252936 
L 163.103709 174.690879 
L 163.111071 174.868566 
L 163.118433 174.750108 
L 163.155243 175.845841 
L 163.280396 187.602756 
L 163.663217 242.685532 
L 163.722113 239.635249 
L 163.913523 197.049748 
L 164.215363 118.630828 
L 164.244811 119.489645 
L 164.369964 138.354015 
L 164.782233 197.345892 
L 164.804319 197.020134 
L 164.914748 192.844504 
L 164.973644 194.917512 
L 165.091435 203.505686 
L 165.334379 257.048514 
L 165.533152 288.232473 
L 165.547876 288.202859 
L 165.606771 282.990725 
L 165.75401 238.717203 
L 166.195727 118.926972 
L 166.239899 117.416638 
L 166.291432 119.933861 
L 166.438671 143.092319 
L 166.799407 248.401111 
L 166.902474 241.737871 
L 167.15278 210.553913 
L 167.285295 213.752267 
L 167.45462 219.615918 
L 167.520878 216.832165 
L 167.668117 201.84728 
L 168.065662 144.365738 
L 168.117195 145.787229 
L 168.212901 159.054478 
L 168.566274 225.864555 
L 168.610446 224.709594 
L 168.713513 210.080082 
L 169.030077 168.649542 
L 169.044801 168.916072 
L 169.052163 168.856843 
L 169.066887 169.626817 
L 169.125782 175.016638 
L 169.574861 244.49201 
L 169.655843 238.924504 
L 169.810444 196.664761 
L 170.127007 118.156997 
L 170.156455 118.838129 
L 170.303694 142.440802 
L 170.620258 194.858283 
L 170.760135 198.767383 
L 170.789583 198.441625 
L 170.811668 198.145481 
L 170.85584 198.915455 
L 170.944184 207.177871 
L 171.172404 250.266817 
L 171.415348 293.444607 
L 171.437434 292.585789 
L 171.525777 278.163578 
L 171.739274 200.988463 
L 172.02639 122.21417 
L 172.144181 117.979311 
L 172.173629 118.51237 
L 172.25461 127.692833 
L 172.468107 193.584864 
L 172.711051 248.312267 
L 172.718413 248.341882 
L 172.725775 248.016123 
L 172.777309 244.847383 
L 173.093872 210.9389 
L 173.130682 211.590416 
L 173.395712 223.169645 
L 173.432522 221.600082 
L 173.587123 201.551136 
L 173.969944 141.789285 
L 174.036202 146.497974 
L 174.249698 192.044915 
L 174.477919 227.84872 
L 174.500004 227.404504 
L 174.573624 218.934787 
L 174.89755 174.690879 
L 174.926997 175.431239 
L 175.08896 189.646149 
L 175.265647 222.873501 
L 175.457058 247.631136 
L 175.493867 245.795044 
L 175.611659 225.035352 
L 176.009204 115.639774 
L 176.112271 127.81129 
L 176.553988 198.619311 
L 176.627607 196.872062 
L 176.664417 196.72399 
L 176.701227 197.405121 
L 176.855828 204.216432 
L 177.0546 240.84944 
L 177.297545 290.068566 
L 177.349078 287.8771 
L 177.444784 273.92872 
L 177.665642 191.54147 
L 177.952758 123.132216 
L 178.026378 119.608103 
L 178.077911 121.384967 
L 178.180978 135.066817 
L 178.365027 196.398231 
L 178.578524 245.617357 
L 178.607971 244.906612 
L 178.696315 234.808103 
L 178.946621 209.043578 
L 178.983431 209.221265 
L 179.115946 215.58836 
L 179.248461 223.554632 
L 179.299995 222.873501 
L 179.439872 209.872781 
L 179.859503 140.841625 
L 179.969932 148.837512 
L 180.360115 222.814272 
L 180.463182 215.232987 
L 180.801832 174.542807 
L 180.875451 176.171599 
L 181.030052 195.006355 
L 181.346616 244.580853 
L 181.412874 242.330159 
L 181.501217 225.864555 
L 181.906124 119.637717 
L 181.957658 121.918026 
L 182.090173 145.313398 
L 182.443546 197.227434 
L 182.472994 197.612422 
L 182.53189 196.842447 
L 182.583423 196.042859 
L 182.634957 196.72399 
L 182.738024 203.120699 
L 182.914711 232.113193 
L 183.209189 291.341985 
L 183.245999 290.127794 
L 183.341704 272.063013 
L 183.945384 118.51237 
L 183.982193 119.015815 
L 184.033727 123.813347 
L 184.173604 160.061368 
L 184.482806 239.753707 
L 184.512254 238.569131 
L 184.659493 219.941676 
L 184.843541 205.963681 
L 184.872989 206.555969 
L 184.961333 211.264658 
L 185.182191 224.916895 
L 185.226363 223.732319 
L 185.403049 203.002242 
L 185.756423 139.657049 
L 185.85949 145.579928 
L 186.043539 182.124093 
L 186.271759 216.06219 
L 186.293845 216.091805 
L 186.352741 212.390005 
L 186.684028 180.613758 
L 186.735562 182.449851 
L 186.912249 198.145481 
L 187.236174 246.416946 
L 187.302432 240.790211 
L 187.457033 203.80183 
L 187.780959 119.667332 
L 187.795683 120.170776 
L 187.891388 128.640494 
L 188.141694 180.732216 
L 188.333105 197.93818 
L 188.340467 197.908566 
L 188.42881 194.739825 
L 188.495068 193.140648 
L 188.546601 194.147537 
L 188.671754 198.767383 
L 188.804269 224.117306 
L 189.113471 286.574067 
L 189.150281 284.974889 
L 189.253348 266.910108 
L 189.857028 120.348463 
L 189.879114 120.881522 
L 189.974819 131.631548 
L 190.173592 194.147537 
L 190.372364 233.297769 
L 190.387088 233.090468 
L 190.482794 227.522961 
L 190.711014 211.323887 
L 190.740462 211.738488 
L 190.791995 213.011907 
L 191.03494 228.233707 
L 191.130645 224.117306 
L 191.233712 213.011907 
L 191.668067 137.850571 
L 191.749049 141.759671 
L 191.896288 173.032473 
L 192.16868 220.563578 
L 192.183404 220.208206 
L 192.242299 215.973347 
L 192.647206 182.479465 
L 192.69874 183.752884 
L 192.794445 193.229491 
L 193.133095 240.701368 
L 193.214076 234.837717 
L 193.383401 192.252216 
L 193.677879 126.212113 
L 193.685241 126.241728 
L 193.766222 131.068874 
L 193.987081 170.870622 
L 194.17113 192.577974 
L 194.207939 192.459517 
L 194.36254 190.32728 
L 194.428798 189.201933 
L 194.472969 189.912679 
L 194.583399 200.721933 
L 194.789533 252.280596 
L 195.017754 293.444607 
L 195.025115 293.030005 
L 195.120821 278.400494 
L 195.753948 117.623938 
L 195.842292 123.991033 
L 195.996893 166.221162 
L 196.276647 233.830828 
L 196.291371 233.949285 
L 196.32818 233.060853 
L 196.637382 214.522242 
L 196.733087 218.786715 
L 196.93186 226.012627 
L 196.939222 225.953398 
L 196.961308 225.568411 
L 197.049651 220.060134 
L 197.277872 183.279054 
L 197.557626 141.848514 
L 197.594435 142.736946 
L 197.72695 162.785892 
L 198.058238 218.490571 
L 198.095048 217.483681 
L 198.161305 210.968514 
L 198.485231 180.880288 
L 198.499955 180.998746 
L 198.588298 183.279054 
L 198.676642 190.208823 
L 199.015291 244.580853 
L 199.110997 238.006458 
L 199.23615 208.303219 
L 199.574799 127.515147 
L 199.589523 127.722447 
L 199.655781 132.431136 
L 199.839829 162.045532 
L 200.082774 191.452627 
L 200.178479 193.496021 
L 200.222651 192.577974 
L 200.288908 191.393398 
L 200.33308 192.370674 
L 200.436147 199.181985 
L 200.546576 218.224041 
L 200.885226 289.920494 
L 200.951484 286.337152 
L 201.061913 264.037512 
L 201.665593 121.088823 
L 201.680316 121.059208 
L 201.687678 121.236895 
L 201.739212 125.205224 
L 201.879089 161.89746 
L 202.173567 226.160699 
L 202.180929 225.983013 
L 202.225101 224.916895 
L 202.468045 211.235044 
L 202.541664 213.663424 
L 202.814056 228.352165 
L 202.909762 225.390725 
L 203.027553 213.426509 
L 203.447184 138.798231 
L 203.542889 144.484195 
L 203.668042 169.093758 
L 203.940435 216.06219 
L 203.96252 215.736432 
L 204.050864 210.465069 
L 204.426323 184.108257 
L 204.463133 184.641316 
L 204.536752 188.046972 
L 204.706077 213.989183 
L 204.90485 239.457563 
L 204.934298 239.072576 
L 204.949021 238.687589 
L 205.037365 226.960288 
L 205.47172 130.950416 
L 205.560063 135.866406 
L 205.73675 165.954632 
L 205.979694 189.527692 
L 205.994418 189.468463 
L 206.207915 184.315558 
L 206.274172 186.743938 
L 206.391963 202.676483 
L 206.576012 253.435558 
L 206.782146 293.296535 
L 206.804232 292.615404 
L 206.892576 281.598848 
L 207.09871 222.429285 
L 207.547789 118.245841 
L 207.555151 118.097769 
L 207.591961 119.460031 
L 207.70239 138.502087 
L 208.092573 223.67309 
L 208.122021 222.962344 
L 208.217726 216.358334 
L 208.364965 211.67926 
L 208.379689 211.797717 
L 208.445947 213.811496 
L 208.747787 227.315661 
L 208.769872 227.137974 
L 208.814044 225.301882 
L 208.902387 215.11453 
L 209.358828 137.524812 
L 209.425086 142.411188 
L 209.63122 185.707434 
L 209.837355 213.426509 
L 209.852079 213.308051 
L 209.93306 208.155147 
L 210.279072 182.035249 
L 210.330605 181.916792 
L 210.360053 182.272165 
L 210.455759 188.994632 
L 210.794408 241.175198 
L 210.87539 235.578077 
L 211.044714 195.894787 
L 211.361278 130.683887 
L 211.376002 130.713501 
L 211.464345 138.531702 
L 211.8987 192.755661 
L 211.93551 191.808 
L 212.090111 186.655095 
L 212.119559 187.128925 
L 212.244712 195.213656 
L 212.414037 234.571188 
L 212.679067 291.963887 
L 212.708515 291.430828 
L 212.782134 282.368823 
L 213.054526 204.216432 
L 213.429986 118.601213 
L 213.452071 118.097769 
L 213.496243 119.815404 
L 213.591948 137.258283 
L 213.967408 221.985069 
L 214.004217 221.067023 
L 214.232438 210.850057 
L 214.291333 212.538077 
L 214.637345 231.639362 
L 214.659431 231.28399 
L 214.755136 225.035352 
L 214.975995 185.352062 
L 215.263111 140.930468 
L 215.277834 141.345069 
L 215.329368 145.283784 
L 215.498693 179.044195 
L 215.734275 213.485738 
L 215.756361 213.36728 
L 215.852066 206.911342 
L 216.220164 181.650262 
L 216.286421 184.493244 
L 216.47047 211.768103 
L 216.683967 242.685532 
L 216.713414 242.004401 
L 216.787034 234.600802 
L 216.956359 189.053861 
L 217.250837 128.877409 
L 217.258198 128.847794 
L 217.272922 129.025481 
L 217.361266 136.63638 
L 217.773535 192.192987 
L 217.854516 190.830725 
L 218.023841 185.825892 
L 218.090099 188.224658 
L 218.215252 205.252936 
L 218.583349 289.150519 
L 218.649607 284.797203 
L 218.796846 256.100853 
L 219.348992 118.867743 
L 219.400525 121.977254 
L 219.540402 154.997306 
L 219.856966 220.267434 
L 219.864328 220.356278 
L 219.9085 219.734375 
L 220.077825 211.353501 
L 220.17353 213.485738 
L 220.387026 226.308771 
L 220.541627 233.297769 
L 220.578437 232.49818 
L 220.696228 221.570468 
L 220.961258 164.444298 
L 221.152669 138.1171 
L 221.182117 139.212833 
L 221.263098 148.334067 
L 221.645919 212.686149 
L 221.697453 210.583527 
L 222.124446 182.005635 
L 222.153894 182.50908 
L 222.161256 182.50908 
L 222.264323 191.274941 
L 222.595611 245.350828 
L 222.683954 236.821882 
L 222.890089 181.087589 
L 223.155119 129.913913 
L 223.169843 130.180442 
L 223.2361 135.096432 
L 223.449597 169.893347 
L 223.685179 194.710211 
L 223.707265 194.799054 
L 223.729351 194.295609 
L 223.942847 188.135815 
L 223.994381 189.942293 
L 224.10481 205.193707 
L 224.480269 285.18219 
L 224.568613 278.785481 
L 224.811557 222.19237 
L 225.23855 120.348463 
L 225.267998 121.533039 
L 225.356341 133.615712 
L 225.746525 216.832165 
L 225.820144 213.485738 
L 226.011555 208.066303 
L 226.026279 208.155147 
L 226.10726 211.175815 
L 226.328118 229.773656 
L 226.460633 235.66692 
L 226.490081 235.133861 
L 226.578425 228.174478 
L 226.777197 188.520802 
L 227.064313 136.695609 
L 227.071675 136.843681 
L 227.093761 137.64327 
L 227.182104 148.334067 
L 227.557564 210.257769 
L 227.616459 209.428566 
L 227.726889 203.535301 
L 228.03609 185.648206 
L 228.050814 185.529748 
L 228.065538 185.94435 
L 228.124434 189.527692 
L 228.345292 226.664144 
L 228.470445 239.516792 
L 228.514617 237.828771 
L 228.625046 220.385892 
L 229.037315 131.927692 
L 229.110935 134.444915 
L 229.287622 162.015918 
L 229.574738 195.124812 
L 229.596823 195.154427 
L 229.611547 194.828668 
L 229.707253 190.001522 
L 229.839768 184.226715 
L 229.876577 185.055918 
L 229.950197 190.682653 
L 230.126884 232.942396 
L 230.37719 282.635352 
L 230.399276 282.576123 
L 230.480257 276.475558 
L 230.671668 237.651085 
L 231.142832 119.223116 
L 231.201728 123.309902 
L 231.363691 160.860956 
L 231.650807 214.137254 
L 231.665531 214.226098 
L 231.694979 213.722653 
L 231.901113 209.102807 
L 231.915837 209.19165 
L 231.996818 211.264658 
L 232.34283 234.985789 
L 232.431173 231.461676 
L 232.593136 206.970571 
L 232.961234 135.274118 
L 233.005405 136.90291 
L 233.130558 155.530365 
L 233.469208 209.013964 
L 233.483932 209.102807 
L 233.520742 208.540134 
L 233.675343 201.136535 
L 233.933011 185.648206 
L 234.00663 187.928514 
L 234.117059 201.10692 
L 234.360004 236.555352 
L 234.426261 233.179311 
L 234.566138 208.836278 
L 234.934236 135.451805 
L 234.971045 136.784452 
L 235.088837 150.022087 
L 235.449572 197.93818 
L 235.486382 197.316278 
L 235.640983 187.810057 
L 235.736688 183.752884 
L 235.788222 184.878231 
L 235.898651 199.093141 
L 236.288834 281.302704 
L 236.355092 279.022396 
L 236.465521 264.09674 
L 236.752637 186.41818 
L 237.032391 120.674221 
L 237.061839 121.029594 
L 237.120734 126.12327 
L 237.282697 166.872679 
L 237.540365 211.264658 
L 237.577175 211.827332 
L 237.636071 211.146201 
L 237.78331 208.98435 
L 237.812757 209.45818 
L 237.908463 212.686149 
L 238.232388 234.896946 
L 238.335456 230.484401 
L 238.467971 211.116586 
L 238.84343 136.16255 
L 238.931773 140.871239 
L 239.174718 188.994632 
L 239.388214 209.221265 
L 239.557539 203.861059 
L 239.844655 187.128925 
L 239.888827 188.37273 
L 240.006618 201.136535 
L 240.264286 234.215815 
L 240.301096 232.675866 
L 240.404163 218.934787 
L 240.823794 137.554427 
L 240.890052 140.723167 
L 241.059376 165.33273 
L 241.331768 197.020134 
L 241.33913 196.872062 
L 241.420112 193.792165 
L 241.64097 179.103424 
L 241.721952 183.72327 
L 241.847105 208.71782 
L 242.20784 280.384658 
L 242.215202 280.118129 
L 242.31827 270.641522 
L 242.524404 229.033296 
L 242.951397 121.977254 
L 243.002931 125.442139 
L 243.128084 151.413964 
L 243.429924 209.310108 
L 243.525629 210.701985 
L 243.569801 210.465069 
L 243.584525 210.494684 
L 243.805383 215.795661 
L 244.114585 234.630416 
L 244.202928 231.668977 
L 244.342805 213.219208 
L 244.74035 134.504144 
L 244.81397 139.893964 
L 245.079 192.726046 
L 245.277773 209.45818 
L 245.299858 209.665481 
L 245.336668 208.836278 
L 245.395564 206.200596 
L 245.594336 191.363784 
L 245.748937 184.493244 
L 245.785747 185.292833 
L 245.932986 205.75638 
L 246.146482 233.179311 
L 246.190654 232.23165 
L 246.301083 219.053244 
L 246.713352 140.989697 
L 246.794334 145.046869 
L 247.243413 197.079362 
L 247.339118 192.607589 
L 247.523167 181.294889 
L 247.582062 182.657152 
L 247.699854 200.870005 
L 248.090037 280.088514 
L 248.126846 279.200082 
L 248.259362 265.222087 
L 248.487582 210.139311 
L 248.848317 124.612936 
L 248.899851 128.07782 
L 249.039728 157.751445 
L 249.34893 206.940956 
L 249.488807 207.710931 
L 249.496169 207.651702 
L 249.547702 208.125532 
L 249.606598 209.339722 
L 249.805371 222.903116 
L 250.040953 236.762653 
L 250.048315 236.733039 
L 250.085125 235.755763 
L 250.195554 224.828051 
L 250.622547 137.199054 
L 250.7477 145.224555 
L 250.998006 193.111033 
L 251.204141 208.303219 
L 251.27776 206.082139 
L 251.623772 184.700545 
L 251.690029 187.040082 
L 251.829906 207.651702 
L 252.043403 234.097357 
L 252.080213 233.179311 
L 252.168556 223.288103 
L 252.396776 170.189491 
L 252.602911 141.611599 
L 252.617635 141.730057 
L 252.67653 144.306509 
L 252.816407 161.927075 
L 253.118247 196.072473 
L 253.140333 195.687486 
L 253.302296 183.841728 
L 253.420087 176.556586 
L 253.471621 178.451907 
L 253.626222 205.667537 
L 253.979595 276.445943 
L 253.994319 276.297871 
L 254.053215 273.869491 
L 254.193092 258.529234 
L 254.41395 198.945069 
L 254.723152 123.398746 
L 254.737876 123.517203 
L 254.745238 123.517203 
L 254.833581 132.756895 
L 255.363641 206.733656 
L 255.378365 206.704041 
L 255.54769 210.9389 
L 255.945235 239.013347 
L 256.004131 236.348051 
L 256.136646 217.631753 
L 256.534191 136.695609 
L 256.615173 141.463527 
L 256.828669 179.192267 
L 257.086337 206.170982 
L 257.093699 206.200596 
L 257.115785 205.934067 
L 257.123147 205.993296 
L 257.240938 202.558026 
L 257.51333 186.299722 
L 257.579588 188.698488 
L 257.719465 207.533244 
L 257.925599 233.23854 
L 257.962409 232.646252 
L 258.021305 227.967177 
L 258.183267 196.783219 
L 258.499831 141.404298 
L 258.507193 141.345069 
L 258.536641 141.848514 
L 258.617622 148.274838 
L 259.015168 195.006355 
L 259.118235 190.653039 
L 259.317007 177.830005 
L 259.353817 179.07381 
L 259.449523 191.956072 
L 259.876516 275.40944 
L 259.964859 272.240699 
L 260.08265 260.45417 
L 260.266699 214.018797 
L 260.620072 124.583321 
L 260.64952 125.027537 
L 260.759949 139.805121 
L 261.194304 205.28255 
L 261.385715 208.747434 
L 261.643383 227.878334 
L 261.82007 238.569131 
L 261.864241 237.266098 
L 261.974671 227.878334 
L 262.202891 174.720494 
L 262.438473 137.199054 
L 262.453197 137.435969 
L 262.526817 143.714221 
L 263.027429 203.890674 
L 263.108411 202.646869 
L 263.14522 201.462293 
L 263.277736 192.814889 
L 263.395527 188.195044 
L 263.439698 189.083476 
L 263.550128 199.507743 
L 263.82252 234.482344 
L 263.896139 230.839774 
L 264.021292 210.731599 
L 264.396752 142.855404 
L 264.433561 143.595763 
L 264.558714 154.523476 
L 264.897364 196.102087 
L 264.963622 194.443681 
L 265.118223 181.620648 
L 265.191842 178.836895 
L 265.243376 180.288 
L 265.331719 190.208823 
L 265.810246 273.395661 
L 265.869141 271.914941 
L 265.964847 263.14908 
L 266.126809 227.522961 
L 266.524355 123.102602 
L 266.575888 125.619825 
L 266.708403 149.311342 
L 267.039691 202.85417 
L 267.481408 224.828051 
L 267.724352 239.576021 
L 267.739076 239.250262 
L 267.812695 235.045018 
L 267.996744 201.37345 
L 268.328032 138.028257 
L 268.342756 138.176329 
L 268.438461 145.550314 
L 268.939074 204.571805 
L 268.997969 203.416843 
L 269.196742 192.400288 
L 269.299809 188.757717 
L 269.336619 189.527692 
L 269.469134 204.186817 
L 269.71944 234.660031 
L 269.748888 234.067743 
L 269.815145 228.470622 
L 270.028642 183.24944 
L 270.293672 143.121933 
L 270.330482 143.536535 
L 270.426187 150.555147 
L 270.801646 194.710211 
L 270.897352 190.59381 
L 271.0814 179.695712 
L 271.11821 180.55453 
L 271.228639 193.02219 
L 271.707166 273.602961 
L 271.714528 273.454889 
L 271.72189 273.484504 
L 271.736614 273.18836 
L 271.802871 269.841933 
L 271.964834 244.255095 
L 272.413913 127.426303 
L 272.509618 135.037203 
L 273.098574 210.346612 
L 273.297347 219.053244 
L 273.451948 231.639362 
L 273.621272 238.983733 
L 273.635996 238.687589 
L 273.731702 231.372833 
L 273.930474 192.104144 
L 274.224952 140.456638 
L 274.283848 142.203887 
L 274.409001 156.892627 
L 274.791822 202.143424 
L 274.843356 202.617254 
L 274.894889 202.024967 
L 275.189367 190.060751 
L 275.240901 192.133758 
L 275.35133 205.016021 
L 275.594275 235.104247 
L 275.645808 233.653141 
L 275.748875 221.955455 
L 276.197954 143.092319 
L 276.271574 145.728 
L 276.470346 171.581368 
L 276.691205 194.710211 
L 276.713291 194.591753 
L 276.875253 183.664041 
L 276.970959 179.695712 
L 277.022492 180.791445 
L 277.118198 191.719157 
L 277.596724 269.131188 
L 277.648258 268.568514 
L 277.758687 261.016843 
L 277.913288 229.240596 
L 278.310833 127.60399 
L 278.355005 129.114324 
L 278.480158 146.586817 
L 278.855618 199.981573 
L 279.496107 239.042961 
L 279.569726 236.969954 
L 279.680156 225.775712 
L 279.88629 176.704658 
L 280.121873 141.07854 
L 280.129235 140.989697 
L 280.166044 141.730057 
L 280.283835 153.220442 
L 280.747638 201.491907 
L 280.872791 198.648925 
L 281.064202 190.623424 
L 281.101012 191.156483 
L 281.189355 197.286663 
L 281.505919 234.126972 
L 281.5869 229.181368 
L 281.763587 195.124812 
L 282.080151 143.832679 
L 282.094875 143.625378 
L 282.139046 144.602653 
L 282.205304 148.600596 
L 282.580763 191.423013 
L 282.68383 187.425069 
L 282.867879 177.770776 
L 282.912051 178.955352 
L 283.015118 192.370674 
L 283.508369 269.427332 
L 283.523093 269.516175 
L 283.55254 269.131188 
L 283.648246 262.88255 
L 283.832294 223.761933 
L 284.207754 131.572319 
L 284.222478 131.661162 
L 284.266649 133.73417 
L 284.377079 149.962859 
L 284.730452 200.425789 
L 284.943949 207.533244 
L 285.179531 222.814272 
L 285.415113 237.473398 
L 285.437199 237.177254 
L 285.562352 227.907949 
L 285.768487 181.976021 
L 286.026155 144.365738 
L 286.062965 144.809954 
L 286.180756 154.730776 
L 286.607749 198.352781 
L 286.659282 198.796997 
L 286.68873 198.323167 
L 286.939036 189.971907 
L 287.012656 191.896843 
L 287.167257 211.620031 
L 287.402839 237.710314 
L 287.424925 237.118026 
L 287.52063 226.752987 
L 287.991795 143.595763 
L 288.102224 148.482139 
L 288.278911 173.713604 
L 288.485046 192.163373 
L 288.507131 191.985686 
L 288.639646 184.285943 
L 288.750076 179.369954 
L 288.794247 180.672987 
L 288.904677 194.50291 
L 289.390565 266.495506 
L 289.478908 264.985172 
L 289.611424 250.474118 
L 289.86173 176.408514 
L 290.104674 132.786509 
L 290.16357 135.214889 
L 290.310809 158.077203 
L 290.627372 196.279774 
L 291.142709 228.944452 
L 291.348843 240.049851 
L 291.363567 239.724093 
L 291.451911 232.172422 
L 291.628597 195.391342 
L 291.915713 147.238334 
L 291.937799 146.912576 
L 291.981971 148.037923 
L 292.062952 153.427743 
L 292.534117 196.309388 
L 292.62246 195.480185 
L 292.813871 190.771496 
L 292.858043 191.33417 
L 292.953748 198.530468 
L 293.277674 239.191033 
L 293.380741 232.23165 
L 293.572152 191.571085 
L 293.881353 142.203887 
L 293.932887 142.76656 
L 294.02123 149.518643 
L 294.389328 193.140648 
L 294.499757 188.165429 
L 294.632272 180.969131 
L 294.676444 182.124093 
L 294.801597 196.368617 
L 295.280124 266.347434 
L 295.324295 266.969337 
L 295.368467 266.347434 
L 295.500982 254.768206 
L 295.72184 193.347949 
L 295.994232 138.768617 
L 296.001594 138.768617 
L 296.06049 141.315455 
L 296.251901 169.004915 
L 296.524293 196.131702 
L 296.951286 219.823219 
L 297.223678 242.241316 
L 297.253126 241.856329 
L 297.319383 237.888 
L 297.481346 208.777049 
L 297.834719 146.794118 
L 297.856805 146.409131 
L 297.893615 147.060648 
L 298.004044 155.76728 
L 298.467847 194.147537 
L 298.688705 190.238437 
L 298.747601 191.33417 
L 298.850668 198.67854 
L 299.167232 238.391445 
L 299.248214 233.860442 
L 299.402814 205.252936 
L 299.785636 139.272062 
L 299.792998 139.272062 
L 299.866617 142.796175 
L 299.99177 159.587537 
L 300.271524 193.732936 
L 300.286248 193.525635 
L 300.345144 190.978797 
L 300.536554 181.472576 
L 300.588088 183.24944 
L 300.713241 199.330057 
L 301.140234 260.779928 
L 301.243301 263.504452 
L 301.287473 262.645635 
L 301.39054 253.435558 
L 301.567227 207.97746 
L 301.891153 139.390519 
L 301.898515 139.33129 
L 301.927963 139.86435 
L 302.001582 145.313398 
L 302.56109 196.220545 
L 302.723053 204.927177 
L 303.12796 243.188977 
L 303.208942 239.10219 
L 303.363542 212.41962 
L 303.73164 145.106098 
L 303.753726 144.958026 
L 303.790535 145.639157 
L 303.92305 156.418797 
L 304.320596 194.887897 
L 304.357405 195.24327 
L 304.408939 194.828668 
L 304.592988 193.140648 
L 304.666607 195.272884 
L 304.799122 209.428566 
L 305.049429 239.576021 
L 305.0936 238.332216 
L 305.204029 225.331496 
L 305.682556 140.634324 
L 305.748814 143.803064 
L 305.932862 169.804504 
L 306.153721 192.903733 
L 306.168445 192.814889 
L 306.242064 189.37962 
L 306.426113 179.54764 
L 306.470285 180.584144 
L 306.573352 192.015301 
L 307.110774 264.155969 
L 307.162308 264.866715 
L 307.199117 263.88944 
L 307.272737 256.604298 
L 307.471509 206.970571 
L 307.773349 142.500031 
L 307.802797 142.026201 
L 307.846969 143.477306 
L 307.957398 155.678437 
L 308.296048 191.896843 
L 308.605249 205.134478 
L 309.017519 244.995455 
L 309.113224 239.872165 
L 309.282549 206.792884 
L 309.62856 146.142602 
L 309.650646 145.935301 
L 309.694818 146.646046 
L 309.790523 153.250057 
L 310.26905 192.429902 
L 310.335307 191.748771 
L 310.467822 190.119979 
L 310.511994 190.653039 
L 310.637147 199.744658 
L 310.946349 238.272987 
L 311.019968 235.045018 
L 311.181931 207.089028 
L 311.557391 142.648103 
L 311.572114 142.677717 
L 311.579476 142.677717 
L 311.675182 148.42291 
L 311.93285 186.980853 
L 312.028555 192.696432 
L 312.080089 191.778386 
L 312.183156 184.93746 
L 312.293585 178.836895 
L 312.345119 179.784555 
L 312.448186 189.58692 
L 313.02978 266.140134 
L 313.037142 266.169748 
L 313.059228 265.932833 
L 313.125486 262.438334 
L 313.272724 235.222704 
L 313.684994 141.789285 
L 313.721803 142.588874 
L 313.832233 153.279671 
L 314.281311 193.28872 
L 314.450636 199.951959 
L 314.642047 218.075969 
L 314.921801 243.396278 
L 314.936525 243.100134 
L 314.988058 240.494067 
L 315.120573 220.089748 
L 315.554928 148.42291 
L 315.577014 148.778283 
L 315.63591 151.443578 
L 315.797873 167.820339 
L 316.099713 191.837614 
L 316.16597 192.28183 
L 316.210142 191.926458 
L 316.320571 190.860339 
L 316.372105 191.097254 
L 316.438362 192.962961 
L 316.556153 205.252936 
L 316.835907 241.293656 
L 316.894803 239.309491 
L 317.03468 217.779825 
L 317.461673 142.440802 
L 317.498483 143.210776 
L 317.586826 150.259003 
L 317.925476 192.785275 
L 318.013819 189.231548 
L 318.197868 178.599979 
L 318.234677 179.369954 
L 318.323021 186.803167 
L 318.565965 230.810159 
L 318.853081 264.09674 
L 318.948786 267.591239 
L 318.992958 266.58435 
L 319.118111 249.437614 
L 319.596638 143.714221 
L 319.692343 149.252113 
L 320.288661 196.250159 
L 320.516881 216.32872 
L 320.796635 244.936226 
L 320.818721 244.728925 
L 320.907065 238.569131 
L 321.091113 203.06147 
L 321.407677 149.340956 
L 321.451849 148.630211 
L 321.503382 149.607486 
L 321.635897 160.298283 
L 321.981909 189.85345 
L 321.996633 189.942293 
L 322.026081 190.238437 
L 322.092338 189.823835 
L 322.13651 189.290776 
L 322.239577 188.046972 
L 322.276387 188.520802 
L 322.327921 190.445738 
L 322.445712 203.06147 
L 322.732828 240.345995 
L 322.784361 238.480288 
L 322.902152 223.140031 
L 323.351231 142.677717 
L 323.424851 144.928411 
L 323.608899 170.426406 
L 323.815034 190.564195 
L 323.829758 190.268051 
L 323.888654 187.691599 
L 324.080064 176.704658 
L 324.146322 178.659208 
L 324.264113 192.044915 
L 324.808897 266.31782 
L 324.853069 267.05818 
L 324.889878 265.992062 
L 324.992946 252.902499 
L 325.486196 144.780339 
L 325.567178 147.68255 
L 326.700918 243.722036 
L 326.745089 242.53746 
L 326.826071 235.311548 
L 327.017481 195.598643 
L 327.311959 150.081316 
L 327.356131 149.222499 
L 327.407665 150.37746 
L 327.50337 157.840288 
L 327.930363 190.149594 
L 327.959811 190.149594 
L 328.121774 187.750828 
L 328.158583 188.106201 
L 328.254289 192.962961 
L 328.386804 210.435455 
L 328.629748 240.819825 
L 328.651834 240.464452 
L 328.725453 235.281933 
L 328.90214 202.646869 
L 329.233428 145.343013 
L 329.255514 145.106098 
L 329.292323 145.728 
L 329.395391 154.316175 
L 329.69723 189.675763 
L 329.763488 187.484298 
L 329.969623 177.089645 
L 330.03588 178.80728 
L 330.197843 200.425789 
L 330.683732 265.992062 
L 330.742627 267.591239 
L 330.786799 265.992062 
L 330.90459 249.733758 
L 331.390479 146.053758 
L 331.478822 150.318231 
L 332.03833 194.02908 
L 332.215017 204.038746 
L 332.6052 243.27782 
L 332.686181 239.131805 
L 332.83342 215.973347 
L 333.238327 151.354735 
L 333.267775 151.058591 
L 333.311947 152.183938 
L 333.503358 170.100648 
L 333.783112 188.491188 
L 333.797836 188.609645 
L 333.849369 187.987743 
L 333.893541 187.484298 
L 334.011332 186.240494 
L 334.048142 186.388566 
L 334.099675 187.691599 
L 334.246914 203.091085 
L 334.53403 239.10219 
L 334.556116 238.62836 
L 334.615012 234.808103 
L 334.79906 201.639979 
L 335.145072 144.424967 
L 335.159796 144.365738 
L 335.17452 144.661882 
L 335.226053 146.971805 
L 335.373292 165.451188 
L 335.594151 186.477409 
L 335.616237 186.092422 
L 335.70458 182.094478 
L 335.859181 175.431239 
L 335.895991 176.497357 
L 335.999058 185.618591 
L 336.632186 267.443167 
L 336.691081 265.429388 
L 336.816234 246.209645 
L 337.287399 146.794118 
L 337.346294 148.926355 
L 337.522981 167.346509 
L 337.795373 187.425069 
L 338.075127 199.744658 
L 338.354881 234.275044 
L 338.50212 242.981676 
L 338.531568 242.359774 
L 338.597826 237.917614 
L 338.759788 210.020853 
L 339.1058 153.635044 
L 339.164696 151.947023 
L 339.216229 153.042756 
L 339.437088 172.973244 
L 339.702118 186.980853 
L 339.878805 186.299722 
L 339.738928 187.128925 
L 339.908252 186.566252 
L 339.996596 188.965018 
L 340.121749 202.824555 
L 340.416227 240.819825 
L 340.460398 239.694478 
L 340.57819 225.953398 
L 341.049354 145.579928 
L 341.130336 149.252113 
L 341.299661 172.736329 
L 341.491071 187.661985 
L 341.513157 187.276997 
L 341.623586 181.294889 
L 341.748739 176.734272 
L 341.778187 177.415404 
L 341.895978 186.595866 
L 342.54383 266.850879 
L 342.595363 264.866715 
L 342.698431 249.348771 
L 343.176957 149.104041 
L 343.243215 150.880905 
L 343.419902 168.057254 
L 343.721741 189.646149 
L 344.038305 208.007075 
L 344.399041 244.403167 
L 344.421127 243.988566 
L 344.494746 239.131805 
L 344.700881 201.018077 
L 345.024806 153.161213 
L 345.061616 152.835455 
L 345.098426 153.575815 
L 345.201493 159.94291 
L 345.554867 186.388566 
L 345.650572 186.743938 
L 345.672658 186.507023 
L 345.783087 185.648206 
L 345.841982 186.092422 
L 345.922964 190.504967 
L 346.092289 214.759157 
L 346.305785 238.983733 
L 346.335233 238.62836 
L 346.408852 233.564298 
L 346.585539 201.936123 
L 346.931551 144.780339 
L 346.946275 144.661882 
L 346.968361 145.135712 
L 347.064066 152.865069 
L 347.373268 186.862396 
L 347.424801 185.470519 
L 347.638298 175.786612 
L 347.704555 177.445018 
L 347.822346 189.85345 
L 348.44075 268.894272 
L 348.455474 268.686972 
L 348.551179 259.269594 
L 348.713142 218.046355 
L 349.029706 150.910519 
L 349.08124 149.133656 
L 349.140135 150.347846 
L 349.30946 166.043476 
L 349.6113 187.987743 
L 349.83952 197.493964 
L 350.045655 221.422396 
L 350.273875 242.300545 
L 350.288599 242.270931 
L 350.295961 242.270931 
L 350.362219 239.576021 
L 350.502096 219.467846 
L 350.936451 150.407075 
L 350.943812 150.288617 
L 350.995346 151.177049 
L 351.091051 157.692216 
L 351.503321 186.743938 
L 351.54013 186.595866 
L 351.672645 185.115147 
L 351.724179 185.67782 
L 351.819884 190.534581 
L 352.033381 222.814272 
L 352.210068 239.576021 
L 352.239515 239.131805 
L 352.327859 232.202036 
L 352.533993 191.985686 
L 352.828471 147.031033 
L 352.835833 147.060648 
L 352.872643 147.919465 
L 353.01252 161.838231 
L 353.262826 186.122036 
L 353.284912 185.855506 
L 353.446875 178.185378 
L 353.535218 176.11237 
L 353.572028 176.823116 
L 353.638285 180.939517 
L 353.918039 221.629697 
L 354.322947 268.686972 
L 354.352394 268.27237 
L 354.433376 260.720699 
L 354.617425 214.670314 
L 354.94135 149.429799 
L 354.992884 148.363681 
L 355.037056 149.755558 
L 355.169571 160.535198 
L 355.522944 187.454684 
L 355.699631 194.384452 
L 355.876318 212.449234 
L 356.185519 243.396278 
L 356.207605 243.188977 
L 356.288587 237.62147 
L 356.509445 197.701265 
L 356.826009 152.894684 
L 356.855457 152.568925 
L 356.899628 153.3389 
L 357.039505 164.148154 
L 357.311897 184.967075 
L 357.370793 185.67782 
L 357.437051 185.322447 
L 357.488584 184.759774 
L 357.591652 183.960185 
L 357.613737 184.404401 
L 357.716805 189.942293 
L 357.937663 223.228874 
L 358.11435 237.858386 
L 358.136436 237.503013 
L 358.224779 230.780545 
L 358.408828 196.842447 
L 358.725392 148.185995 
L 358.740115 148.126766 
L 358.769563 148.600596 
L 358.887354 159.291393 
L 359.145023 183.367897 
L 359.167108 183.160596 
L 359.24809 180.258386 
L 359.410053 173.980134 
L 359.461586 175.401625 
L 359.601463 189.350005 
L 360.219867 269.456946 
L 360.278763 267.117409 
L 360.38183 251.540237 
L 360.882442 150.436689 
L 360.9487 152.450468 
L 361.14011 169.360288 
L 361.449312 188.491188 
L 361.633361 196.546303 
L 361.832134 219.76399 
L 362.08244 242.093244 
L 362.097164 241.974787 
L 362.178145 237.651085 
L 362.31066 218.460956 
L 362.752377 153.457357 
L 362.767101 153.427743 
L 362.781825 153.664658 
L 362.862806 157.129542 
L 363.304523 183.900956 
L 363.333971 183.960185 
L 363.422314 183.72327 
L 363.547467 186.566252 
L 363.650535 195.865172 
L 364.003908 239.487177 
L 364.092252 234.808103 
L 364.268938 205.401008 
L 364.629674 148.15638 
L 364.637036 148.245224 
L 364.695931 150.673604 
L 364.857894 170.100648 
L 365.041943 183.664041 
L 365.071391 183.427126 
L 365.137648 180.702602 
L 365.292249 175.016638 
L 365.343783 176.171599 
L 365.432126 182.212936 
L 365.689794 219.082859 
L 366.124149 270.434221 
L 366.138873 270.22692 
L 366.205131 265.340545 
L 366.359732 231.01746 
L 366.757277 151.058591 
L 366.794087 150.762447 
L 366.816172 151.206663 
L 366.911878 156.685326 
L 367.419852 190.268051 
L 367.567091 200.218488 
L 367.971998 242.715147 
L 368.045618 240.464452 
L 368.178133 224.88728 
L 368.664021 154.641933 
L 368.708193 155.559979 
L 368.796536 160.920185 
L 369.179358 183.900956 
L 369.230891 183.989799 
L 369.304511 183.782499 
L 369.444388 186.625481 
L 369.569541 199.537357 
L 369.886105 239.013347 
L 369.937638 238.006458 
L 370.048068 227.345275 
L 370.327822 169.301059 
L 370.519232 149.192884 
L 370.533956 149.340956 
L 370.58549 151.650879 
L 370.924139 182.686766 
L 371.041931 178.896123 
L 371.174446 174.453964 
L 371.218617 175.105481 
L 371.395304 189.942293 
L 372.02107 269.190416 
L 372.094689 264.304041 
L 372.264014 227.84872 
L 372.632111 151.976638 
L 372.705731 150.762447 
L 372.742541 151.769337 
L 372.838246 158.254889 
L 373.309411 188.905789 
L 373.464011 199.181985 
L 373.883642 240.701368 
L 373.9499 238.569131 
L 374.089777 220.918951 
L 374.55358 154.55309 
L 374.605113 155.056535 
L 374.796524 168.442242 
L 375.04683 180.317614 
L 375.216155 181.057974 
L 375.230879 180.998746 
L 375.252965 181.324504 
L 375.356032 186.358951 
L 375.547443 212.656535 
L 375.797749 239.339105 
L 375.805111 239.250262 
L 375.864006 236.614581 
L 375.996522 218.727486 
L 376.423515 149.518643 
L 376.467686 150.999362 
L 376.585477 161.927075 
L 376.828422 180.939517 
L 376.835784 180.909902 
L 377.056642 174.868566 
L 377.100814 175.490468 
L 377.225967 184.019414 
L 377.68977 246.328103 
L 377.895904 267.05818 
L 377.947438 265.992062 
L 378.043143 254.560905 
L 378.587927 152.716997 
L 378.683633 155.885738 
L 379.434551 207.740545 
L 379.780563 241.974787 
L 379.795287 241.826715 
L 379.817373 241.293656 
L 379.92044 232.794324 
L 380.192832 183.72327 
L 380.465224 156.418797 
L 380.502034 156.922242 
L 380.590377 161.394015 
L 380.958475 181.442961 
L 381.135161 182.597923 
L 381.194057 184.345172 
L 381.348658 198.826612 
L 381.679945 238.924504 
L 381.716755 238.539517 
L 381.841908 226.338386 
L 382.313073 150.259003 
L 382.401416 154.55309 
L 382.703256 180.347229 
L 382.762152 179.458797 
L 382.9462 174.365121 
L 383.012458 175.816226 
L 383.122887 184.374787 
L 383.807548 267.147023 
L 383.903254 259.861882 
L 384.087302 218.520185 
L 384.41859 157.040699 
L 384.499572 154.849234 
L 384.543743 155.678437 
L 384.727792 168.590314 
L 385.051718 184.878231 
L 385.21368 193.28872 
L 385.677483 241.678643 
L 385.765827 238.095301 
L 385.898342 220.652422 
L 386.362144 156.596483 
L 386.369506 156.566869 
L 386.391592 156.863013 
L 386.428402 158.047589 
L 386.98791 179.695712 
L 387.090977 183.071753 
L 387.25294 200.396175 
L 387.576866 239.487177 
L 387.606314 238.894889 
L 387.702019 231.550519 
L 387.915515 190.119979 
L 388.195269 151.85818 
L 388.209993 151.85818 
L 388.298337 156.566869 
L 388.607538 180.347229 
L 388.644348 179.843784 
L 388.732692 176.704658 
L 388.835759 174.068977 
L 388.872569 174.572422 
L 388.982998 180.672987 
L 389.306924 220.622807 
L 389.697107 266.288206 
L 389.733917 265.488617 
L 389.814898 257.403887 
L 390.021033 209.102807 
L 390.330234 157.51453 
L 390.403854 155.737666 
L 390.448025 156.655712 
L 390.595264 165.895404 
L 390.933914 183.308668 
L 391.051705 188.757717 
L 391.265202 213.515352 
L 391.567042 241.945172 
L 391.581765 241.974787 
L 391.603851 241.649028 
L 391.670109 237.739928 
L 391.82471 215.914118 
L 392.236979 158.551033 
L 392.273789 158.254889 
L 392.31796 158.876792 
L 392.818573 177.889234 
L 392.870106 178.451907 
L 393.009983 184.167486 
L 393.164584 203.209542 
L 393.466424 239.013347 
L 393.503234 238.569131 
L 393.606301 230.306715 
L 393.856607 179.488411 
L 394.084828 152.154324 
L 394.09219 152.183938 
L 394.151085 154.197717 
L 394.482373 179.488411 
L 394.592802 176.171599 
L 394.732679 172.825172 
L 394.776851 173.476689 
L 394.857832 177.889234 
L 395.049243 199.478129 
L 395.586665 267.32471 
L 395.667647 263.711753 
L 395.814886 236.821882 
L 396.234517 157.781059 
L 396.293412 156.211496 
L 396.352308 157.277614 
L 396.558442 169.893347 
L 396.816111 182.568308 
L 396.970711 190.919568 
L 397.184208 216.684093 
L 397.463962 240.079465 
L 397.530219 238.302602 
L 397.670096 222.666201 
L 398.163347 158.077203 
L 398.200157 158.580648 
L 398.2885 162.37129 
L 398.487273 172.825172 
L 398.487273 172.825172 
" clip-path="url(#p920a2eecc3)" style="fill: none; stroke: #1f77b4; stroke-width: 1.5; stroke-linecap: square"/>
   </g>
   <g id="patch_3">
    <path d="M 57.6 307.584 
L 57.6 41.472 
" style="fill: none; stroke: #000000; stroke-width: 0.8; stroke-linejoin: miter; stroke-linecap: square"/>
   </g>
   <g id="patch_4">
    <path d="M 414.72 307.584 
L 414.72 41.472 
" style="fill: none; stroke: #000000; stroke-width: 0.8; stroke-linejoin: miter; stroke-linecap: square"/>
   </g>
   <g id="patch_5">
    <path d="M 57.6 307.584 
L 414.72 307.584 
" style="fill: none; stroke: #000000; stroke-width: 0.8; stroke-linejoin: miter; stroke-linecap: square"/>
   </g>
   <g id="patch_6">
    <path d="M 57.6 41.472 
L 414.72 41.472 
" style="fill: none; stroke: #000000; stroke-width: 0.8; stroke-linejoin: miter; stroke-linecap: square"/>
   </g>
   <g id="text_18">
    <text style="font: 12px 'IPAexGothic'; text-anchor: middle" x="236.16" y="35.472" transform="rotate(-0 236.16 35.472)">"047_A1.wav"の波形グラフ</text>
   </g>
  </g>
 </g>
 <defs>
  <clipPath id="p920a2eecc3">
   <rect x="57.6" y="41.472" width="357.12" height="266.112"/>
  </clipPath>
 </defs>
</svg>
