<?xml version="1.0" encoding="utf-8" standalone="no"?>
<!DOCTYPE svg PUBLIC "-//W3C//DTD SVG 1.1//EN"
  "http://www.w3.org/Graphics/SVG/1.1/DTD/svg11.dtd">
<svg xmlns:xlink="http://www.w3.org/1999/xlink" width="460.8pt" height="345.6pt" viewBox="0 0 460.8 345.6" xmlns="http://www.w3.org/2000/svg" version="1.1">
 <metadata>
  <rdf:RDF xmlns:dc="http://purl.org/dc/elements/1.1/" xmlns:cc="http://creativecommons.org/ns#" xmlns:rdf="http://www.w3.org/1999/02/22-rdf-syntax-ns#">
   <cc:Work>
    <dc:type rdf:resource="http://purl.org/dc/dcmitype/StillImage"/>
    <dc:date>2022-11-28T12:37:23.541516</dc:date>
    <dc:format>image/svg+xml</dc:format>
    <dc:creator>
     <cc:Agent>
      <dc:title>Matplotlib v3.6.2, https://matplotlib.org/</dc:title>
     </cc:Agent>
    </dc:creator>
   </cc:Work>
  </rdf:RDF>
 </metadata>
 <defs>
  <style type="text/css">*{stroke-linejoin: round; stroke-linecap: butt}</style>
 </defs>
 <g id="figure_1">
  <g id="patch_1">
   <path d="M 0 345.6 
L 460.8 345.6 
L 460.8 0 
L 0 0 
z
" style="fill: #ffffff"/>
  </g>
  <g id="axes_1">
   <g id="patch_2">
    <path d="M 57.6 307.584 
L 414.72 307.584 
L 414.72 41.472 
L 57.6 41.472 
z
" style="fill: #ffffff"/>
   </g>
   <g id="matplotlib.axis_1">
    <g id="xtick_1">
     <g id="line2d_1">
      <defs>
       <path id="m300f83a2ef" d="M 0 0 
L 0 3.5 
" style="stroke: #000000; stroke-width: 0.8"/>
      </defs>
      <g>
       <use xlink:href="#m300f83a2ef" x="73.832727" y="307.584" style="stroke: #000000; stroke-width: 0.8"/>
      </g>
     </g>
     <g id="text_1">
      <text style="font: 10px 'IPAexGothic'; text-anchor: middle" x="73.832727" y="322.074625" transform="rotate(-0 73.832727 322.074625)">0.0</text>
     </g>
    </g>
    <g id="xtick_2">
     <g id="line2d_2">
      <g>
       <use xlink:href="#m300f83a2ef" x="138.765109" y="307.584" style="stroke: #000000; stroke-width: 0.8"/>
      </g>
     </g>
     <g id="text_2">
      <text style="font: 10px 'IPAexGothic'; text-anchor: middle" x="138.765109" y="322.074625" transform="rotate(-0 138.765109 322.074625)">0.2</text>
     </g>
    </g>
    <g id="xtick_3">
     <g id="line2d_3">
      <g>
       <use xlink:href="#m300f83a2ef" x="203.69749" y="307.584" style="stroke: #000000; stroke-width: 0.8"/>
      </g>
     </g>
     <g id="text_3">
      <text style="font: 10px 'IPAexGothic'; text-anchor: middle" x="203.69749" y="322.074625" transform="rotate(-0 203.69749 322.074625)">0.4</text>
     </g>
    </g>
    <g id="xtick_4">
     <g id="line2d_4">
      <g>
       <use xlink:href="#m300f83a2ef" x="268.629872" y="307.584" style="stroke: #000000; stroke-width: 0.8"/>
      </g>
     </g>
     <g id="text_4">
      <text style="font: 10px 'IPAexGothic'; text-anchor: middle" x="268.629872" y="322.074625" transform="rotate(-0 268.629872 322.074625)">0.6</text>
     </g>
    </g>
    <g id="xtick_5">
     <g id="line2d_5">
      <g>
       <use xlink:href="#m300f83a2ef" x="333.562253" y="307.584" style="stroke: #000000; stroke-width: 0.8"/>
      </g>
     </g>
     <g id="text_5">
      <text style="font: 10px 'IPAexGothic'; text-anchor: middle" x="333.562253" y="322.074625" transform="rotate(-0 333.562253 322.074625)">0.8</text>
     </g>
    </g>
    <g id="xtick_6">
     <g id="line2d_6">
      <g>
       <use xlink:href="#m300f83a2ef" x="398.494635" y="307.584" style="stroke: #000000; stroke-width: 0.8"/>
      </g>
     </g>
     <g id="text_6">
      <text style="font: 10px 'IPAexGothic'; text-anchor: middle" x="398.494635" y="322.074625" transform="rotate(-0 398.494635 322.074625)">1.0</text>
     </g>
    </g>
    <g id="text_7">
     <text style="font: 10px 'IPAexGothic'; text-anchor: middle" x="236.16" y="335.924625" transform="rotate(-0 236.16 335.924625)">時間[s]</text>
    </g>
   </g>
   <g id="matplotlib.axis_2">
    <g id="ytick_1">
     <g id="line2d_7">
      <defs>
       <path id="m097719f1e0" d="M 0 0 
L -3.5 0 
" style="stroke: #000000; stroke-width: 0.8"/>
      </defs>
      <g>
       <use xlink:href="#m097719f1e0" x="57.6" y="276.411054" style="stroke: #000000; stroke-width: 0.8"/>
      </g>
     </g>
     <g id="text_8">
      <text style="font: 10px 'IPAexGothic'; text-anchor: end" x="50.6" y="280.156366" transform="rotate(-0 50.6 280.156366)">−4000</text>
     </g>
    </g>
    <g id="ytick_2">
     <g id="line2d_8">
      <g>
       <use xlink:href="#m097719f1e0" x="57.6" y="225.741874" style="stroke: #000000; stroke-width: 0.8"/>
      </g>
     </g>
     <g id="text_9">
      <text style="font: 10px 'IPAexGothic'; text-anchor: end" x="50.6" y="229.487186" transform="rotate(-0 50.6 229.487186)">−2000</text>
     </g>
    </g>
    <g id="ytick_3">
     <g id="line2d_9">
      <g>
       <use xlink:href="#m097719f1e0" x="57.6" y="175.072694" style="stroke: #000000; stroke-width: 0.8"/>
      </g>
     </g>
     <g id="text_10">
      <text style="font: 10px 'IPAexGothic'; text-anchor: end" x="50.6" y="178.818006" transform="rotate(-0 50.6 178.818006)">0</text>
     </g>
    </g>
    <g id="ytick_4">
     <g id="line2d_10">
      <g>
       <use xlink:href="#m097719f1e0" x="57.6" y="124.403514" style="stroke: #000000; stroke-width: 0.8"/>
      </g>
     </g>
     <g id="text_11">
      <text style="font: 10px 'IPAexGothic'; text-anchor: end" x="50.6" y="128.148826" transform="rotate(-0 50.6 128.148826)">2000</text>
     </g>
    </g>
    <g id="ytick_5">
     <g id="line2d_11">
      <g>
       <use xlink:href="#m097719f1e0" x="57.6" y="73.734334" style="stroke: #000000; stroke-width: 0.8"/>
      </g>
     </g>
     <g id="text_12">
      <text style="font: 10px 'IPAexGothic'; text-anchor: end" x="50.6" y="77.479646" transform="rotate(-0 50.6 77.479646)">4000</text>
     </g>
    </g>
    <g id="text_13">
     <text style="font: 10px 'IPAexGothic'; text-anchor: middle" x="12.723438" y="174.528" transform="rotate(-90 12.723438 174.528)">振幅</text>
    </g>
   </g>
   <g id="line2d_12">
    <path d="M 73.832727 175.148697 
L 73.854813 175.250036 
L 73.972604 176.010074 
L 73.987328 175.832731 
L 74.053586 175.250036 
L 74.112481 175.478047 
L 74.215549 173.45128 
L 74.156653 175.782062 
L 74.237634 173.907303 
L 74.267082 177.352807 
L 74.274444 174.946021 
L 74.311254 178.670205 
L 74.392235 168.688377 
L 74.421683 178.974221 
L 74.502665 171.804532 
L 74.52475 174.185983 
L 74.583646 168.156351 
L 74.701437 145.785908 
L 74.723523 146.216596 
L 74.730885 146.824626 
L 74.745609 139.806944 
L 74.752971 141.833712 
L 74.848676 117.892524 
L 74.885486 128.35571 
L 75.076896 220.826963 
L 75.231497 267.315936 
L 75.238859 267.543947 
L 75.253583 264.605135 
L 75.275669 266.961252 
L 75.584871 156.198424 
L 75.614319 162.152053 
L 75.65849 161.088 
L 75.754196 175.579385 
L 75.761558 177.884833 
L 75.820453 166.129583 
L 75.989778 114.852373 
L 76.011864 120.577991 
L 76.019226 120.704664 
L 76.026588 119.767284 
L 76.144379 109.608113 
L 76.151741 110.570828 
L 76.232722 126.278273 
L 76.276894 119.437934 
L 76.343152 116.549791 
L 76.291618 119.792618 
L 76.357875 119.615276 
L 76.711249 237.775804 
L 76.718611 237.775804 
L 76.748059 242.437369 
L 76.806954 234.456973 
L 77.013089 183.103759 
L 77.027813 186.853278 
L 77.064622 183.838462 
L 77.160328 196.885776 
L 77.204499 206.84227 
L 77.278119 200.153938 
L 77.337015 174.515333 
L 77.62413 66.057953 
L 77.653578 78.699913 
L 78.198362 280.64193 
L 78.213086 280.36325 
L 78.220448 280.667265 
L 78.257258 278.387152 
L 78.514926 201.369998 
L 78.625355 207.576973 
L 78.640079 208.717029 
L 78.684251 203.827453 
L 78.765232 179.784927 
L 79.05971 53.568 
L 79.118606 61.396388 
L 79.354188 133.903985 
L 79.678114 295.488 
L 79.722286 291.4598 
L 79.847439 253.027227 
L 80.046211 188.094673 
L 80.105107 189.994767 
L 80.149279 193.997632 
L 80.200812 189.437406 
L 80.208174 189.640083 
L 80.222898 187.435974 
L 80.502652 83.310809 
L 80.590996 100.183646 
L 81.157866 259.538217 
L 81.179951 257.207434 
L 81.467067 179.63292 
L 81.503877 185.079857 
L 81.570135 199.191223 
L 81.658478 214.873335 
L 81.710012 208.615691 
L 82.011852 92.608603 
L 82.166452 96.738141 
L 82.210624 105.605248 
L 82.622893 246.085549 
L 82.667065 238.865191 
L 82.902647 199.697915 
L 82.983629 207.323627 
L 83.13823 244.869489 
L 83.182401 236.281063 
L 83.63148 69.326115 
L 83.660928 72.847623 
L 83.778719 99.246266 
L 84.110007 246.338895 
L 84.124731 245.908207 
L 84.367675 210.8198 
L 84.397123 208.362345 
L 84.448656 214.848 
L 84.588533 244.590809 
L 84.640067 233.950281 
L 85.074422 70.086153 
L 85.10387 71.631563 
L 85.214299 101.222364 
L 85.552949 264.605135 
L 85.63393 252.191186 
L 85.781169 213.758613 
L 85.876874 194.935012 
L 85.928408 200.179272 
L 86.053561 229.136709 
L 86.112457 214.721327 
L 86.392211 61.801742 
L 86.480554 76.495804 
L 86.524726 76.065116 
L 86.590983 90.93652 
L 86.782394 192.984249 
L 86.981166 255.63669 
L 86.99589 255.814032 
L 87.010614 254.36996 
L 87.209387 210.465116 
L 87.327178 184.319819 
L 87.386074 190.273448 
L 87.540674 231.366153 
L 87.592208 215.025342 
L 87.842514 85.69226 
L 87.923496 96.814145 
L 87.982391 94.432694 
L 88.144354 127.570337 
L 88.460918 237.218443 
L 88.490366 233.620931 
L 88.659691 199.06455 
L 88.792206 174.05931 
L 88.836377 180.899649 
L 88.99834 235.141007 
L 89.079322 209.27439 
L 89.314904 89.011091 
L 89.366438 96.738141 
L 89.690363 176.719442 
L 89.874412 225.285851 
L 89.881774 225.260516 
L 89.896498 225.564532 
L 89.911222 226.121893 
L 89.948031 222.524381 
L 90.227785 178.999555 
L 90.286681 184.87718 
L 90.39711 225.741874 
L 90.47073 247.681629 
L 90.522263 234.203627 
L 90.77257 92.456596 
L 90.890361 99.803627 
L 90.905085 99.170262 
L 90.941894 102.767774 
L 91.133305 162.430733 
L 91.33944 216.748094 
L 91.368887 217.533467 
L 91.383611 216.621421 
L 91.685451 172.336558 
L 91.759071 178.999555 
L 91.854776 217.913485 
L 91.943119 248.162986 
L 91.994653 234.862326 
L 92.244959 97.44751 
L 92.384836 105.934598 
L 92.524713 137.045474 
L 92.797105 210.338443 
L 92.848639 207.931657 
L 93.157841 180.367623 
L 93.23146 186.75194 
L 93.334528 230.758123 
L 93.408147 251.760498 
L 93.452319 241.575992 
L 93.709987 94.787378 
L 93.849864 103.02112 
L 94.048637 156.629112 
L 94.247409 209.60374 
L 94.254771 209.401063 
L 94.343114 203.244758 
L 94.615507 179.708924 
L 94.652316 180.747642 
L 94.66704 181.17833 
L 94.733298 195.163024 
L 94.873175 250.873787 
L 94.939432 231.011468 
L 95.182377 94.508697 
L 95.27072 98.638236 
L 95.314892 103.90783 
L 95.557836 180.798311 
L 95.719799 211.706511 
L 95.727161 211.630507 
L 95.756608 210.693127 
L 96.095258 179.30357 
L 96.176239 186.270582 
L 96.286669 233.468924 
L 96.345564 244.21079 
L 96.389736 231.644833 
L 96.640042 91.519216 
L 96.779919 104.794541 
L 97.00814 180.950319 
L 97.170102 214.467981 
L 97.177464 214.315974 
L 97.192188 214.290639 
L 97.457218 191.818858 
L 97.597095 179.9116 
L 97.611819 180.316954 
L 97.678077 195.08702 
L 97.80323 240.967962 
L 97.862126 226.172562 
L 98.112432 93.849998 
L 98.208137 99.727623 
L 98.384824 142.745757 
L 98.59832 211.883853 
L 98.694026 205.347529 
L 98.97378 178.467529 
L 98.988504 178.062175 
L 99.069485 175.427378 
L 99.098933 177.75816 
L 99.172552 203.396765 
L 99.27562 240.233259 
L 99.327153 228.680686 
L 99.599545 103.046454 
L 99.695251 112.040234 
L 100.041262 208.05833 
L 100.173777 196.733768 
L 100.453531 176.010074 
L 100.460893 176.035408 
L 100.475617 175.756728 
L 100.512427 174.489998 
L 100.556599 176.390092 
L 100.630218 199.72325 
L 100.748009 243.197406 
L 100.799543 231.112807 
L 101.086659 107.632015 
L 101.189726 120.501987 
L 101.528376 198.431186 
L 101.594633 193.592279 
L 101.719786 181.152995 
L 101.778682 183.33177 
L 101.800768 183.9398 
L 101.852301 181.482345 
L 101.992178 179.100893 
L 102.021626 180.950319 
L 102.10997 212.162533 
L 102.220399 253.001893 
L 102.264571 243.425418 
L 102.426533 150.092788 
L 102.573772 110.874843 
L 102.595858 111.254861 
L 102.669478 120.755333 
L 102.853526 163.748132 
L 103.022851 195.644381 
L 103.030213 195.289697 
L 103.162728 181.431676 
L 103.273157 184.142477 
L 103.361501 181.989037 
L 103.420396 182.850413 
L 103.427758 182.875747 
L 103.442482 182.597067 
L 103.449844 182.546398 
L 103.464568 183.05309 
L 103.50874 188.373353 
L 103.678065 255.231336 
L 103.766408 231.416822 
L 104.046162 99.094258 
L 104.134505 110.520158 
L 104.487879 196.049734 
L 104.598308 187.866662 
L 104.635118 186.245248 
L 104.686651 189.032053 
L 104.738185 190.45079 
L 104.789719 188.854711 
L 104.797081 188.702703 
L 104.841252 190.020102 
L 104.981129 197.063118 
L 105.091559 245.629527 
L 105.143092 256.928754 
L 105.194626 246.161553 
L 105.349227 146.976633 
L 105.518552 88.377727 
L 105.533275 89.036426 
L 105.709962 128.96374 
L 105.96763 201.623344 
L 106.026526 197.899159 
L 106.100145 192.60423 
L 106.151679 195.745719 
L 106.188489 196.759103 
L 106.23266 194.580328 
L 106.416709 189.716087 
L 106.438795 190.906812 
L 106.505053 208.691695 
L 106.600758 241.423985 
L 106.659653 231.898179 
L 106.792169 156.629112 
L 106.968855 87.744362 
L 106.983579 88.732411 
L 107.057199 107.429338 
L 107.417934 211.731845 
L 107.469468 207.779649 
L 107.763946 182.293052 
L 107.867013 177.175465 
L 107.911185 179.050224 
L 107.999528 209.451732 
L 108.073147 230.986134 
L 108.132043 223.487095 
L 108.264558 153.563627 
L 108.426521 95.978104 
L 108.455969 98.511563 
L 108.706275 181.685022 
L 108.853514 210.515785 
L 108.8756 209.755747 
L 109.324679 171.247171 
L 109.339403 171.829866 
L 109.390936 177.986172 
L 109.560261 237.953146 
L 109.641242 222.473712 
L 109.898911 109.456106 
L 109.994616 129.698443 
L 110.267008 194.75767 
L 110.340627 192.148207 
L 110.495228 166.585606 
L 110.620381 172.412562 
L 110.87805 193.262929 
L 111.032651 244.286794 
L 111.098908 234.406303 
L 111.246147 149.484758 
L 111.3713 111.052185 
L 111.415472 116.017764 
L 111.776207 183.179762 
L 111.820379 181.761025 
L 111.90136 169.448415 
L 111.93817 166.534937 
L 111.997066 170.436464 
L 112.394611 224.348471 
L 112.497678 248.644343 
L 112.54185 243.501421 
L 112.637555 197.063118 
L 112.851052 103.147793 
L 112.873138 105.047887 
L 113.285407 179.404909 
L 113.344302 173.12193 
L 113.395836 168.511035 
L 113.44737 172.387227 
L 113.697676 192.88291 
L 113.727124 192.477557 
L 113.778657 194.073636 
L 113.852277 216.697425 
L 113.970068 246.313561 
L 114.01424 241.753335 
L 114.102583 198.78587 
L 114.308717 101.830394 
L 114.345527 104.870545 
L 114.536938 144.772524 
L 114.73571 183.559781 
L 114.743072 183.509112 
L 114.757796 183.433108 
L 114.868226 172.057877 
L 114.941845 177.910168 
L 115.140618 192.578895 
L 115.192151 191.413504 
L 115.206875 190.881478 
L 115.251047 193.009583 
L 115.324666 215.228019 
L 115.442457 240.334598 
L 115.486629 235.343683 
L 115.597058 179.126228 
L 115.773745 102.590432 
L 115.817917 106.137274 
L 116.060861 168.81505 
L 116.200738 187.106624 
L 116.222824 186.169244 
L 116.355339 169.879103 
L 116.428958 173.704626 
L 116.760246 197.113787 
L 116.922209 238.63718 
L 116.966381 233.367585 
L 117.135705 148.927397 
L 117.246135 116.473787 
L 117.297668 121.591374 
L 117.466993 155.033033 
L 117.651042 186.371921 
L 117.665766 185.434541 
L 117.724661 176.592769 
L 117.827729 162.532072 
L 117.886624 163.596124 
L 118.041225 175.452713 
L 118.217912 194.732336 
L 118.401961 246.313561 
L 118.446132 238.130488 
L 118.725886 120.375314 
L 118.858401 133.59997 
L 119.108708 181.558349 
L 119.182327 173.020592 
L 119.314842 157.870507 
L 119.359014 160.429301 
L 119.462081 173.324607 
L 119.727111 214.848 
L 119.859626 247.098933 
L 119.903798 241.271977 
L 120.080485 150.852826 
L 120.190914 118.399216 
L 120.242448 121.186021 
L 120.397048 151.156841 
L 120.573735 180.316954 
L 120.595821 179.480912 
L 120.757784 156.907793 
L 120.838765 161.493353 
L 121.206863 216.874767 
L 121.332016 244.81882 
L 121.376188 237.623796 
L 121.670665 121.616709 
L 121.795819 135.75341 
L 122.031401 182.926417 
L 122.090297 177.403476 
L 122.230174 156.933127 
L 122.289069 159.491921 
L 122.620357 198.659197 
L 122.797044 243.653429 
L 122.841215 237.117105 
L 123.017902 152.474239 
L 123.135693 120.121968 
L 123.179865 122.579423 
L 123.297656 142.188396 
L 123.511152 183.787793 
L 123.533238 182.141044 
L 123.709925 158.985229 
L 123.783545 164.964192 
L 124.262071 234.355634 
L 124.313605 227.059272 
L 124.512377 141.757708 
L 124.585997 126.48095 
L 124.652254 129.875785 
L 124.784769 154.551676 
L 124.961456 184.801176 
L 124.990904 183.382439 
L 125.189677 154.29833 
L 125.270658 162.35473 
L 125.498878 180.823646 
L 125.609308 202.130036 
L 125.741823 231.366153 
L 125.793356 223.563099 
L 126.080472 131.978556 
L 126.205625 142.416407 
L 126.441208 183.154428 
L 126.485379 178.69554 
L 126.654704 156.12242 
L 126.691514 157.38915 
L 126.809305 171.145832 
L 126.868201 174.718009 
L 126.934458 173.071261 
L 126.985992 177.47948 
L 127.214212 231.84751 
L 127.309918 215.050677 
L 127.574948 138.160196 
L 127.641205 140.820328 
L 127.898873 182.318386 
L 127.972493 171.348509 
L 128.119732 149.231412 
L 128.171266 151.20751 
L 128.561449 205.24619 
L 128.686602 236.585078 
L 128.738136 230.707453 
L 128.900098 168.81505 
L 129.047337 139.629602 
L 129.076785 140.136294 
L 129.135681 145.861911 
L 129.363901 182.774409 
L 129.422797 175.047359 
L 129.592122 147.635333 
L 129.636293 149.459423 
L 130.07801 219.686907 
L 130.158992 233.240912 
L 130.210525 228.275333 
L 130.357764 175.022025 
L 130.527089 139.933617 
L 130.541813 140.06029 
L 130.615432 147.888679 
L 130.821567 183.610451 
L 130.880462 177.302138 
L 131.064511 147.483325 
L 131.116045 150.346134 
L 131.543038 214.645323 
L 131.631381 228.224664 
L 131.682915 222.85373 
L 131.808068 182.369056 
L 131.992117 142.467076 
L 132.00684 142.593749 
L 132.051012 146.089923 
L 132.293956 187.435974 
L 132.367576 176.288754 
L 132.544263 147.331318 
L 132.588434 150.143457 
L 132.98598 203.548773 
L 133.111133 223.79111 
L 133.147942 220.624287 
L 133.243648 196.151073 
L 133.464506 146.672618 
L 133.47923 146.976633 
L 133.574935 158.782552 
L 133.751622 188.373353 
L 133.803156 183.610451 
L 134.00929 147.914013 
L 134.08291 152.676916 
L 134.568798 221.004305 
L 134.64978 213.226586 
L 134.944258 148.040686 
L 135.039963 158.731883 
L 135.224012 187.511977 
L 135.275545 181.963702 
L 135.489042 147.812675 
L 135.555299 153.614296 
L 135.776158 170.867152 
L 135.916035 195.669715 
L 136.041188 218.901534 
L 136.092722 215.810714 
L 136.158979 202.586058 
L 136.409285 146.723287 
L 136.446095 148.978066 
L 136.556524 169.09373 
L 136.696401 192.553561 
L 136.747935 187.562647 
L 136.968793 150.802156 
L 137.057137 160.125286 
L 137.270633 171.779197 
L 137.395786 195.467039 
L 137.52094 214.822665 
L 137.557749 213.429263 
L 137.646093 194.960347 
L 137.866951 148.319367 
L 137.896399 148.927397 
L 137.97738 161.316011 
L 138.146705 191.413504 
L 138.212963 186.371921 
L 138.433821 148.091355 
L 138.514803 157.287811 
L 138.720937 171.703193 
L 138.853452 193.896294 
L 138.993329 214.417312 
L 139.030139 212.947906 
L 139.118482 194.630997 
L 139.339341 150.827491 
L 139.368788 152.043551 
L 139.479218 168.789715 
L 139.619095 190.856143 
L 139.670628 186.295917 
L 139.906211 142.771091 
L 139.972468 150.903495 
L 140.480443 216.089395 
L 140.50989 214.391977 
L 140.627682 185.257199 
L 140.819092 149.6621 
L 140.84854 151.156841 
L 140.981055 170.664475 
L 141.091484 186.853278 
L 141.143018 183.863796 
L 141.363876 145.583231 
L 141.459582 157.009131 
L 141.938108 217.356124 
L 141.997004 213.150582 
L 142.291482 150.802156 
L 142.409273 161.265342 
L 142.563874 183.230432 
L 142.62277 177.986172 
L 142.828904 143.581798 
L 142.909885 153.132939 
L 143.403136 217.862816 
L 143.425222 217.229451 
L 143.498841 204.891506 
L 143.741786 149.915446 
L 143.793319 152.904927 
L 144.028902 187.739989 
L 144.109883 178.822213 
L 144.308656 144.924532 
L 144.360189 151.156841 
L 144.882888 213.074579 
L 144.919697 210.439781 
L 145.04485 181.78636 
L 145.214175 150.979499 
L 145.258347 153.234277 
L 145.398224 175.478047 
L 145.508653 189.488075 
L 145.552825 185.535879 
L 145.781045 144.341836 
L 145.876751 155.590394 
L 146.347915 209.553071 
L 146.414173 204.992844 
L 146.679203 158.833221 
L 146.774908 164.584173 
L 146.951595 190.932147 
L 147.039938 180.924984 
L 147.238711 138.261534 
L 147.31233 144.493844 
L 147.835029 212.08653 
L 147.901286 206.284909 
L 148.158954 164.50817 
L 148.239936 167.092298 
L 148.350365 183.66112 
L 148.416623 190.425455 
L 148.468156 186.853278 
L 148.711101 136.057425 
L 148.814168 147.331318 
L 149.270609 211.807849 
L 149.300056 213.175917 
L 149.35159 210.414447 
L 149.528277 176.82078 
L 149.668154 162.988094 
L 149.69024 163.24144 
L 149.771221 170.791148 
L 149.889012 185.839894 
L 149.940546 181.963702 
L 150.117233 141.631035 
L 150.18349 134.208 
L 150.235024 137.982854 
L 150.765084 215.532034 
L 150.860789 205.676878 
L 151.140543 162.734748 
L 151.177353 164.381497 
L 151.265696 177.352807 
L 151.35404 188.829376 
L 151.405573 185.409206 
L 151.574898 145.456558 
L 151.648518 135.525399 
L 151.707413 139.882948 
L 152.230112 209.958424 
L 152.289007 206.284909 
L 152.590847 163.013429 
L 152.686552 168.688377 
L 152.819068 187.613316 
L 152.885325 182.597067 
L 153.039926 145.127208 
L 153.120907 134.562684 
L 153.172441 138.362873 
L 153.709863 211.073146 
L 153.731949 210.161101 
L 153.92336 180.696973 
L 154.085323 164.229489 
L 154.092685 164.356162 
L 154.181028 173.831299 
L 154.298819 189.614748 
L 154.350353 186.042571 
L 154.504954 148.243363 
L 154.600659 135.196049 
L 154.652193 138.970903 
L 155.005566 188.29735 
L 155.182253 208.66636 
L 155.241148 205.448867 
L 155.35894 191.286831 
L 155.557712 167.193636 
L 155.579798 167.396313 
L 155.660779 177.175465 
L 155.756485 189.361402 
L 155.81538 186.574598 
L 155.947895 154.779687 
L 156.065687 133.777312 
L 156.109858 135.626737 
L 156.279183 164.406831 
L 156.632557 207.196954 
L 156.68409 205.220856 
L 156.838691 188.778707 
L 157.02274 169.853768 
L 157.037464 170.03111 
L 157.103721 175.503382 
L 157.228874 189.944098 
L 157.28777 185.941233 
L 157.545438 131.649206 
L 157.648505 142.847095 
L 157.979793 192.426888 
L 158.104946 206.538254 
L 158.163842 204.435484 
L 158.208013 202.48472 
L 158.281633 194.554993 
L 158.487767 170.157783 
L 158.517215 170.512467 
L 158.583473 177.251468 
L 158.701264 190.501459 
L 158.752798 187.35997 
L 158.855865 163.165436 
L 159.017828 133.169282 
L 159.047276 134.588019 
L 159.157705 153.715634 
L 159.48163 197.949828 
L 159.569974 205.474202 
L 159.628869 203.523438 
L 159.724575 197.265795 
L 159.967519 168.004343 
L 160.011691 170.107114 
L 160.181016 188.474692 
L 160.232549 184.041139 
L 160.475493 133.397293 
L 160.578561 145.228547 
L 160.946658 197.443137 
L 161.02764 202.712731 
L 161.079173 200.533957 
L 161.21905 189.538745 
L 161.425185 166.990959 
L 161.454633 167.979008 
L 161.535614 178.290187 
L 161.646043 190.526794 
L 161.690215 188.24668 
L 161.793282 164.229489 
L 161.955245 135.500064 
L 161.992055 137.501497 
L 162.492667 197.797821 
L 162.551563 196.91111 
L 162.65463 193.972298 
L 162.816593 174.287321 
L 162.897574 170.563137 
L 162.941746 172.387227 
L 163.111071 191.286831 
L 163.177328 185.687887 
L 163.420273 132.738594 
L 163.508616 142.619084 
L 163.898799 197.84849 
L 163.957695 200.66063 
L 164.023952 199.216558 
L 164.156467 192.553561 
L 164.362602 172.108547 
L 164.399412 173.197934 
L 164.576098 190.653467 
L 164.642356 184.851845 
L 164.892662 127.038311 
L 164.981006 137.830846 
L 165.371189 197.544475 
L 165.518428 201.167321 
L 165.540514 201.446002 
L 165.577323 200.913975 
L 165.673029 191.717519 
L 165.842354 176.238085 
L 165.871801 176.998123 
L 166.041126 189.944098 
L 166.107384 184.117142 
L 166.35769 127.291657 
L 166.446033 138.134861 
L 166.858302 198.532524 
L 166.88775 198.78587 
L 166.931922 197.949828 
L 167.138056 189.488075 
L 167.307381 175.300705 
L 167.358915 177.428811 
L 167.506154 188.550696 
L 167.572411 183.762458 
L 167.837441 125.923589 
L 167.933147 139.908283 
L 168.271796 194.073636 
L 168.345416 196.759103 
L 168.39695 195.264362 
L 168.404311 195.340366 
L 168.463207 194.859008 
L 168.536827 193.161591 
L 168.779771 175.427378 
L 168.85339 180.139612 
L 168.985905 189.994767 
L 169.030077 187.233297 
L 169.162592 153.538292 
L 169.295107 129.24242 
L 169.346641 132.05456 
L 169.574861 181.862364 
L 169.736824 193.161591 
L 169.788358 194.47899 
L 169.832529 193.262929 
L 170.230075 175.60472 
L 170.274246 176.719442 
L 170.458295 190.425455 
L 170.524552 184.421157 
L 170.767497 130.433146 
L 170.848478 139.325587 
L 171.187128 190.197444 
L 171.19449 190.197444 
L 171.238661 190.526794 
L 171.275471 189.488075 
L 171.437434 185.535879 
L 171.452158 185.586549 
L 171.474244 185.130526 
L 171.695102 176.187416 
L 171.76136 179.430243 
L 171.930685 191.38817 
L 171.974856 188.449357 
L 172.114733 153.943646 
L 172.247248 133.143947 
L 172.29142 136.462779 
L 172.490193 178.872882 
L 172.59326 189.336068 
L 172.644794 189.310733 
L 172.659517 189.412072 
L 172.674241 189.488075 
L 172.718413 189.006718 
L 172.836204 185.459876 
L 172.931909 186.70127 
L 172.939271 186.802609 
L 173.005529 186.194579 
L 173.12332 181.583683 
L 173.16013 180.5703 
L 173.211664 182.39439 
L 173.395712 194.022967 
L 173.447246 190.957482 
L 173.609209 149.307416 
L 173.727 133.194616 
L 173.76381 136.108094 
L 173.933134 169.499084 
L 174.124545 189.766756 
L 174.168717 190.577463 
L 174.22025 189.260064 
L 174.315956 186.853278 
L 174.382213 187.131959 
L 174.632519 182.11571 
L 174.669329 183.078424 
L 174.853378 192.173542 
L 174.89755 190.146775 
L 174.985893 171.728528 
L 175.184666 129.343759 
L 175.228837 132.38391 
L 175.619021 192.832241 
L 175.69264 190.906812 
L 175.758898 188.880045 
L 175.839879 188.930714 
L 175.847241 189.006718 
L 175.92086 188.626699 
L 175.935584 188.677369 
L 175.979756 188.069338 
L 176.097547 184.167811 
L 176.156443 185.915898 
L 176.311044 192.224211 
L 176.369939 189.285399 
L 176.48773 160.429301 
L 176.649693 127.190319 
L 176.693865 129.723778 
L 176.877914 174.211318 
L 177.0546 193.870959 
L 177.069324 193.972298 
L 177.09141 193.389602 
L 177.290183 186.194579 
L 177.39325 187.233297 
L 177.43006 187.866662 
L 177.488955 187.005286 
L 177.540489 185.358537 
L 177.606746 186.473259 
L 177.614108 186.473259 
L 177.783433 190.602797 
L 177.805519 190.324117 
L 177.871777 182.72374 
L 178.122083 129.343759 
L 178.195702 137.349489 
L 178.519628 194.42832 
L 178.578524 192.401553 
L 178.747848 184.851845 
L 178.784658 185.231864 
L 178.814106 185.054522 
L 178.821468 185.383872 
L 178.909811 186.878613 
L 178.939259 186.017237 
L 179.027602 183.306435 
L 179.079136 184.117142 
L 179.255823 187.410639 
L 179.277909 187.081289 
L 179.336804 180.367623 
L 179.58711 129.546435 
L 179.653368 136.488113 
L 179.822693 179.734258 
L 179.969932 195.467039 
L 179.992018 195.137689 
L 180.050913 191.768189 
L 180.257048 181.989037 
L 180.26441 182.11571 
L 180.301219 182.495729 
L 180.382201 184.142477 
L 180.433735 183.281101 
L 180.477906 182.521063 
L 180.52944 183.407774 
L 180.735574 189.336068 
L 180.772384 187.233297 
L 180.882813 165.698895 
L 181.066862 131.193184 
L 181.111034 134.81603 
L 181.280359 176.187416 
L 181.442321 195.467039 
L 181.457045 195.188358 
L 181.560113 186.75194 
L 181.707352 181.152995 
L 181.722075 181.305003 
L 181.736799 181.355672 
L 181.85459 185.307868 
L 181.979744 185.130526 
L 182.112259 186.777274 
L 182.185878 188.626699 
L 182.222688 187.03062 
L 182.333117 167.87767 
L 182.524528 129.977123 
L 182.583423 134.841365 
L 182.738024 174.38866 
L 182.907349 197.721817 
L 182.922073 197.24046 
L 182.98833 191.793523 
L 183.179741 179.987604 
L 183.194465 180.291619 
L 183.584648 187.055955 
L 183.643544 188.272015 
L 183.687716 187.435974 
L 183.783421 172.387227 
L 183.996917 128.989074 
L 184.055813 134.157331 
L 184.217776 178.011506 
L 184.357653 198.000498 
L 184.387101 197.341798 
L 184.637407 177.935502 
L 184.72575 182.774409 
L 184.931885 189.564079 
L 184.968694 189.969433 
L 185.020228 189.310733 
L 185.115933 189.817425 
L 185.0644 189.18406 
L 185.130657 189.412072 
L 185.182191 185.358537 
L 185.344154 150.903495 
L 185.469307 131.497199 
L 185.513479 134.309338 
L 185.645994 164.432166 
L 185.837404 195.999065 
L 185.852128 195.416369 
L 186.087711 176.643438 
L 186.16133 180.696973 
L 186.411636 191.970865 
L 186.433722 191.9962 
L 186.625133 188.854711 
L 186.742924 169.397746 
L 186.949059 130.382477 
L 187.000592 133.751977 
L 187.133107 166.33226 
L 187.317156 194.276313 
L 187.339242 193.364268 
L 187.552738 177.378141 
L 187.604272 179.430243 
L 187.869302 194.884343 
L 187.89875 195.239027 
L 187.950283 194.098971 
L 188.134332 185.510545 
L 188.414086 129.521101 
L 188.509791 139.148245 
L 188.76746 193.034918 
L 188.833717 189.209395 
L 189.025128 174.261987 
L 189.047214 174.946021 
L 189.106109 180.215615 
L 189.33433 194.808339 
L 189.363777 195.340366 
L 189.415311 194.174975 
L 189.614084 184.395823 
L 189.886476 131.218518 
L 189.982181 140.313636 
L 190.239849 192.93358 
L 190.298745 188.930714 
L 190.490155 172.18455 
L 190.519603 173.096596 
L 190.821443 195.441704 
L 190.96132 193.668283 
L 191.042302 188.880045 
L 191.211626 155.134371 
L 191.366227 132.003891 
L 191.403037 133.473297 
L 191.476657 146.951299 
L 191.704877 191.05882 
L 191.741687 189.386737 
L 191.955183 171.500516 
L 191.999355 174.236652 
L 192.286471 198.684532 
L 192.338004 197.392467 
L 192.507329 190.906812 
L 192.639844 168.435031 
L 192.845979 133.87865 
L 192.882789 135.550733 
L 192.985856 158.883891 
L 193.177267 191.438839 
L 193.206714 190.197444 
L 193.420211 172.285889 
L 193.486468 176.694107 
L 193.744137 198.304513 
L 193.75886 198.17784 
L 193.825118 195.821723 
L 194.009167 184.319819 
L 194.318368 131.699876 
L 194.39935 141.580366 
L 194.657018 192.325549 
L 194.693828 189.893429 
L 194.8926 173.805964 
L 194.944134 176.694107 
L 195.201802 198.101836 
L 195.238612 197.468471 
L 195.45947 186.523928 
L 195.614071 158.529206 
L 195.790758 133.093278 
L 195.820206 134.385342 
L 195.908549 152.550243 
L 196.114684 191.109489 
L 196.144132 190.273448 
L 196.36499 172.083212 
L 196.423886 175.93407 
L 196.681554 198.025832 
L 196.725725 196.784437 
L 196.96867 180.190281 
L 197.263148 135.120045 
L 197.344129 145.735238 
L 197.587073 190.197444 
L 197.623883 188.069338 
L 197.830018 170.512467 
L 197.881551 173.349942 
L 198.161305 199.72325 
L 198.212839 198.355182 
L 198.426335 186.194579 
L 198.610384 149.712769 
L 198.735537 135.550733 
L 198.779709 138.869565 
L 199.052101 185.839894 
L 199.155168 177.986172 
L 199.287683 168.004343 
L 199.346579 171.424513 
L 199.618971 202.358047 
L 199.692591 200.736633 
L 199.913449 187.081289 
L 200.215289 134.334673 
L 200.303632 146.089923 
L 200.524491 181.963702 
L 200.568662 180.190281 
L 200.752711 167.624324 
L 200.818969 172.23522 
L 201.098723 204.866172 
L 201.142894 203.320762 
L 201.407924 181.609018 
L 201.680316 133.422628 
L 201.753936 140.845663 
L 201.99688 182.065041 
L 202.063138 180.190281 
L 202.225101 169.499084 
L 202.291358 174.008641 
L 202.571112 205.752882 
L 202.630008 203.219423 
L 202.931848 167.725663 
L 203.145344 131.674541 
L 203.182154 133.422628 
L 203.344117 165.141534 
L 203.491356 182.977086 
L 203.520803 182.343721 
L 203.645957 172.615238 
L 203.69749 170.056445 
L 203.749024 172.665908 
L 204.03614 204.63816 
L 204.124483 200.305945 
L 204.389513 170.081779 
L 204.610372 134.562684 
L 204.647182 136.209433 
L 204.787059 161.822703 
L 204.949021 184.953184 
L 204.993193 184.218481 
L 205.177242 171.044494 
L 205.236137 175.098028 
L 205.486444 203.726115 
L 205.604235 197.873825 
L 205.979694 149.864777 
L 206.090123 136.766794 
L 206.141657 140.516313 
L 206.428773 183.686454 
L 206.524478 178.999555 
L 206.642269 169.676426 
L 206.708527 173.147265 
L 206.980919 203.472769 
L 207.083986 199.191223 
L 207.43736 154.62768 
L 207.562513 138.920234 
L 207.606685 141.707039 
L 207.776009 172.108547 
L 207.908524 184.243815 
L 207.937972 183.509112 
L 208.048402 173.12193 
L 208.122021 168.891054 
L 208.173555 171.095163 
L 208.298708 187.435974 
L 208.468033 203.016746 
L 208.490118 202.662062 
L 208.563738 198.532524 
L 208.865578 163.596124 
L 209.027541 140.06029 
L 209.086436 143.15111 
L 209.248399 171.120498 
L 209.380914 182.217048 
L 209.410362 181.431676 
L 209.528153 169.676426 
L 209.594411 166.509602 
L 209.645944 168.359027 
L 209.756373 183.078424 
L 209.947784 202.586058 
L 209.96987 202.332713 
L 210.087661 194.529659 
L 210.279072 175.60472 
L 210.507292 140.820328 
L 210.558826 142.847095 
L 210.683979 161.569357 
L 210.860666 179.354239 
L 210.87539 179.050224 
L 210.963733 171.500516 
L 211.059438 165.040196 
L 211.110972 166.636275 
L 211.228763 183.407774 
L 211.427536 204.460818 
L 211.434898 204.232807 
L 211.618946 193.085587 
L 211.766185 174.540667 
L 211.979682 143.176445 
L 212.053301 146.672618 
L 212.325693 179.784927 
L 212.428761 172.5139 
L 212.531828 165.217538 
L 212.583361 166.813617 
L 212.723238 188.373353 
L 212.870477 204.232807 
L 212.914649 203.371431 
L 213.10606 189.944098 
L 213.238575 172.108547 
L 213.452071 142.340403 
L 213.510967 144.468509 
L 213.702378 173.527284 
L 213.812807 180.722307 
L 213.849617 178.999555 
L 214.018941 166.610941 
L 214.070475 168.713712 
L 214.342867 202.028697 
L 214.445934 195.593712 
L 214.821394 155.463721 
L 214.931823 146.292599 
L 214.975995 147.78734 
L 215.10851 165.926907 
L 215.270473 181.50768 
L 215.29992 180.747642 
L 215.395626 170.816483 
L 215.491331 165.293542 
L 215.535503 166.560271 
L 215.623846 178.08751 
L 215.807895 199.875257 
L 215.852066 198.937877 
L 216.198078 174.312656 
L 216.411574 147.584664 
L 216.47047 149.738104 
L 216.647157 172.437896 
L 216.742862 178.948886 
L 216.794396 176.263419 
L 216.963721 162.91209 
L 217.015254 165.065531 
L 217.169855 191.185493 
L 217.295008 201.522006 
L 217.331818 199.925926 
L 217.692553 171.247171 
L 217.898688 149.028735 
L 217.935498 150.320799 
L 218.215252 178.112844 
L 218.310957 170.740479 
L 218.43611 162.532072 
L 218.480282 164.254824 
L 218.620159 187.942665 
L 218.760036 202.560724 
L 218.804208 200.559291 
L 219.201753 164.432166 
L 219.356354 148.015352 
L 219.400525 148.876728 
L 219.510955 160.581308 
L 219.687641 178.188848 
L 219.731813 176.314089 
L 219.915862 163.621459 
L 219.967395 166.813617 
L 220.217702 202.104701 
L 220.335493 194.833674 
L 220.652057 168.992392 
L 220.843467 150.320799 
L 220.872915 151.283514 
L 220.961258 159.137237 
L 221.152669 178.619536 
L 221.196841 176.972788 
L 221.380889 162.380064 
L 221.439785 165.318877 
L 221.690091 201.826021 
L 221.793158 195.239027 
L 222.301133 152.271563 
L 222.360028 154.019649 
L 222.625059 178.41686 
L 222.698678 173.679291 
L 222.860641 161.518688 
L 222.919536 165.572222 
L 223.162481 200.128603 
L 223.243462 195.239027 
L 223.795608 155.033033 
L 223.861866 158.377199 
L 224.090086 178.214183 
L 224.171068 173.45128 
L 224.325669 160.657312 
L 224.384564 163.596124 
L 224.63487 199.976596 
L 224.730576 194.783005 
L 225.128121 165.192204 
L 225.267998 156.046417 
L 225.31217 157.110469 
L 225.459409 167.573655 
L 225.562476 174.895352 
L 225.614009 172.868584 
L 225.798058 159.87194 
L 225.84223 162.152053 
L 226.033641 195.289697 
L 226.099898 200.305945 
L 226.158794 197.899159 
L 226.755111 154.29833 
L 226.850817 157.642496 
L 227.042227 173.603287 
L 227.123209 170.309791 
L 227.263086 160.733316 
L 227.314619 163.368113 
L 227.476582 192.072204 
L 227.57965 201.775352 
L 227.623821 200.255276 
L 228.006643 173.425945 
L 228.234863 154.602345 
L 228.264311 154.957029 
L 228.396826 163.216106 
L 228.529341 171.29784 
L 228.566151 170.03111 
L 228.735475 160.023947 
L 228.787009 163.190771 
L 229.052039 201.775352 
L 229.162468 197.063118 
L 229.47167 175.756728 
L 229.714615 154.526341 
L 229.751424 155.261044 
L 229.795596 156.705116 
L 229.987007 172.285889 
L 230.090074 168.20702 
L 230.200503 161.822703 
L 230.252037 164.533504 
L 230.391914 188.018669 
L 230.517067 201.902025 
L 230.561239 200.635295 
L 230.966146 174.287321 
L 231.194366 155.742402 
L 231.231176 156.071751 
L 231.282709 157.946511 
L 231.459396 172.209885 
L 231.540378 169.777764 
L 231.680255 161.290677 
L 231.724426 163.874805 
L 231.871665 188.398688 
L 231.989456 200.711299 
L 232.033628 199.621911 
L 232.438535 174.870017 
L 232.710927 157.414484 
L 232.733013 157.794503 
L 232.799271 162.481402 
L 232.924424 170.63914 
L 232.983319 169.321742 
L 233.108473 160.429301 
L 233.145282 159.137237 
L 233.196816 161.493353 
L 233.321969 180.975653 
L 233.469208 198.17784 
L 233.506018 197.671148 
L 233.947735 175.047359 
L 234.205403 157.66783 
L 234.227489 158.098518 
L 234.38209 167.26964 
L 234.485157 164.761516 
L 234.61031 157.135804 
L 234.669206 160.099951 
L 234.823806 186.853278 
L 234.971045 199.773919 
L 234.993131 199.647246 
L 235.088837 196.201742 
L 235.47902 169.119065 
L 235.677792 155.691732 
L 235.685154 155.717067 
L 235.721964 156.907793 
L 235.861841 163.722797 
L 235.920737 163.216106 
L 236.075338 156.021082 
L 236.134233 159.010564 
L 236.281472 184.167811 
L 236.443435 199.900592 
L 236.465521 199.748584 
L 236.546502 196.455088 
L 237.150182 154.501007 
L 237.17963 155.007698 
L 237.356317 162.380064 
L 237.415212 161.620026 
L 237.533003 156.046417 
L 237.599261 158.681214 
L 237.70969 175.554051 
L 237.930548 200.888641 
L 237.989444 199.165889 
L 238.50478 162.557406 
L 238.622572 155.539725 
L 238.674105 156.78112 
L 238.850792 162.608075 
L 238.88024 162.30406 
L 239.005393 156.78112 
L 239.079012 159.289244 
L 239.196804 177.834164 
L 239.402938 199.976596 
L 239.417662 199.875257 
L 239.461834 198.507189 
L 240.094961 156.527774 
L 240.175943 159.010564 
L 240.293734 161.873372 
L 240.323182 161.645361 
L 240.359991 160.834654 
L 240.477783 155.742402 
L 240.536678 157.363815 
L 240.661831 176.035408 
L 240.88269 200.179272 
L 240.890052 200.077934 
L 241.000481 195.543042 
L 241.464284 164.026812 
L 241.574713 157.110469 
L 241.626246 158.047849 
L 241.780847 161.189338 
L 241.795571 160.961327 
L 241.832381 160.023947 
L 241.94281 155.590394 
L 241.994344 156.578443 
L 242.045877 160.682647 
L 242.340355 200.93931 
L 242.436061 197.56981 
L 243.047102 156.45177 
L 243.157532 159.238575 
L 243.253237 161.037331 
L 243.290047 160.327962 
L 243.429924 156.12242 
L 243.481457 157.617161 
L 243.628696 179.708924 
L 243.812745 198.405851 
L 243.842193 197.924494 
L 243.974708 192.198877 
L 244.357529 170.233787 
L 244.541578 157.99718 
L 244.578388 158.833221 
L 244.710903 161.645361 
L 244.755074 160.961327 
L 244.902313 156.831789 
L 244.953847 158.554541 
L 245.079 176.466096 
L 245.292497 198.481855 
L 245.366116 195.619046 
L 245.579612 188.601365 
L 245.675318 185.282533 
L 246.021329 158.250526 
L 246.146482 160.201289 
L 246.190654 160.530639 
L 246.227464 159.770601 
L 246.374703 155.970413 
L 246.411513 156.958462 
L 246.492494 165.369546 
L 246.757524 196.835107 
L 246.809058 195.923061 
L 247.258137 177.099461 
L 247.508443 156.629112 
L 247.559976 157.363815 
L 247.655682 159.54259 
L 247.736663 158.503872 
L 247.832369 156.477105 
L 247.87654 157.541157 
L 247.95016 164.356162 
L 248.21519 198.025832 
L 248.266724 197.468471 
L 248.620097 186.295917 
L 248.885127 159.162571 
L 248.988194 155.869074 
L 249.025004 156.401101 
L 249.150157 158.630545 
L 249.194329 158.047849 
L 249.304758 156.147755 
L 249.356292 157.515823 
L 249.451997 169.017727 
L 249.702303 197.645813 
L 249.717027 197.544475 
L 250.158744 184.243815 
L 250.475308 157.439819 
L 250.556289 159.111902 
L 250.615185 159.694598 
L 250.674081 159.238575 
L 250.777148 157.313146 
L 250.813958 157.895842 
L 250.880215 162.886756 
L 251.174693 196.176407 
L 251.233589 194.681666 
L 251.402913 190.045436 
L 251.454447 190.425455 
L 251.491257 190.754805 
L 251.54279 190.045436 
L 251.586962 188.652034 
L 251.719477 176.339423 
L 251.955059 156.679781 
L 251.962421 156.78112 
L 252.028679 157.845172 
L 252.124384 157.313146 
L 252.234813 155.337048 
L 252.293709 156.223759 
L 252.396776 168.131016 
L 252.661806 196.556426 
L 252.669168 196.379084 
L 252.809045 191.236162 
L 252.867941 189.79209 
L 252.956284 190.070771 
L 252.963646 190.12144 
L 253.007818 189.690752 
L 253.162419 179.658254 
L 253.412725 155.919744 
L 253.456897 156.375766 
L 253.589412 157.895842 
L 253.626222 157.591827 
L 253.707203 156.705116 
L 253.744013 157.135804 
L 253.832356 164.482835 
L 254.119472 195.517708 
L 254.156282 194.656332 
L 254.332969 188.525361 
L 254.443398 189.18406 
L 254.480208 189.336068 
L 254.509655 189.006718 
L 254.627447 181.634352 
L 254.914563 156.553108 
L 254.929286 156.578443 
L 255.05444 157.7185 
L 255.098611 157.642496 
L 255.179593 156.958462 
L 255.216402 157.465154 
L 255.304746 164.862854 
L 255.5845 194.630997 
L 255.628672 193.592279 
L 255.797996 186.979951 
L 255.871616 187.613316 
L 255.982045 188.474692 
L 256.011493 188.018669 
L 256.07775 183.965135 
L 256.386952 156.831789 
L 256.431124 157.211808 
L 256.548915 158.098518 
L 256.571001 157.946511 
L 256.659344 157.287811 
L 256.68143 157.693165 
L 256.762412 163.368113 
L 257.049527 193.237595 
L 257.108423 191.894861 
L 257.2483 186.397255 
L 257.32192 187.182628 
L 257.447073 189.918763 
L 257.505968 188.854711 
L 257.594312 180.519631 
L 257.881428 156.755785 
L 257.947685 157.287811 
L 258.036029 157.921176 
L 258.072838 157.693165 
L 258.124372 157.161139 
L 258.161182 157.819838 
L 258.264249 166.610941 
L 258.514555 191.793523 
L 258.580813 190.72947 
L 258.735414 185.586549 
L 258.779585 186.447925 
L 258.934186 190.780139 
L 259.000444 188.829376 
L 259.21394 162.126718 
L 259.375903 156.12242 
L 259.383265 156.147755 
L 259.486332 156.857123 
L 259.530504 156.654447 
L 259.582038 156.299762 
L 259.618847 156.78112 
L 259.714553 163.84947 
L 260.001669 191.920196 
L 260.067926 190.653467 
L 260.178355 187.562647 
L 260.244613 188.601365 
L 260.413938 193.338933 
L 260.443386 192.60423 
L 260.524367 185.105191 
L 260.863017 155.134371 
L 260.966084 156.147755 
L 261.032341 155.818405 
L 261.061789 155.742402 
L 261.076513 156.046417 
L 261.150133 159.998613 
L 261.488782 192.173542 
L 261.577126 189.817425 
L 261.636021 188.57603 
L 261.694917 189.336068 
L 261.871603 194.301648 
L 261.923137 192.730903 
L 262.040928 178.619536 
L 262.305958 153.842307 
L 262.335406 153.740969 
L 262.372216 154.120988 
L 262.467921 155.033033 
L 262.526817 154.90636 
L 262.563627 155.869074 
L 262.696142 167.87767 
L 262.95381 192.93358 
L 262.983258 192.502892 
L 263.130497 188.398688 
L 263.204116 189.589414 
L 263.343993 193.718952 
L 263.388165 192.705568 
L 263.476508 184.015804 
L 263.800434 153.892976 
L 263.807796 153.943646 
L 264.08755 160.353297 
L 264.242151 179.202232 
L 264.418837 193.034918 
L 264.448285 192.629565 
L 264.610248 187.815992 
L 264.676506 188.956049 
L 264.816383 193.82029 
L 264.875278 192.046869 
L 265.000431 176.694107 
L 265.243376 152.676916 
L 265.530492 159.086567 
L 265.876503 191.920196 
L 265.994294 188.373353 
L 266.082638 186.802609 
L 266.126809 187.435974 
L 266.288772 193.414937 
L 266.362392 190.628132 
L 266.502269 171.29784 
L 266.723127 151.992882 
L 266.877728 154.729018 
L 266.966071 157.338481 
L 267.091225 166.965625 
L 267.356255 191.641516 
L 267.393064 190.856143 
L 267.562389 186.397255 
L 267.613923 187.385304 
L 267.702266 191.413504 
L 267.7538 193.389602 
L 267.812695 192.021534 
L 267.901039 183.509112 
L 268.202879 151.714202 
L 268.210241 151.866209 
L 268.32067 154.120988 
L 268.526804 163.824136 
L 268.828644 190.780139 
L 268.909626 188.804041 
L 269.027417 186.827943 
L 269.071589 187.587981 
L 269.248275 195.061685 
L 269.314533 192.249546 
L 269.45441 171.677859 
L 269.667906 151.992882 
L 269.71944 152.499574 
L 269.866679 155.970413 
L 270.028642 168.131016 
L 270.28631 191.768189 
L 270.32312 191.185493 
L 270.418825 188.398688 
L 270.492445 187.309301 
L 270.536616 188.018669 
L 270.639684 193.161591 
L 270.720665 195.69505 
L 270.764837 194.124305 
L 270.875266 180.443627 
L 271.140296 151.308848 
L 271.147658 151.258179 
L 271.184468 151.663533 
L 271.412688 158.630545 
L 271.655632 184.193146 
L 271.766062 189.766756 
L 271.824957 188.880045 
L 271.935386 186.523928 
L 272.009006 187.283966 
L 272.193055 195.97373 
L 272.25195 193.921629 
L 272.377103 175.680724 
L 272.605324 151.384852 
L 272.620048 151.511525 
L 272.737839 153.867642 
L 272.907164 161.265342 
L 273.238451 190.070771 
L 273.34888 188.069338 
L 273.429862 187.005286 
L 273.474034 187.562647 
L 273.562377 192.249546 
L 273.665444 196.455088 
L 273.709616 195.467039 
L 273.797959 185.941233 
L 274.077713 152.220893 
L 274.114523 152.499574 
L 274.298572 156.477105 
L 274.423725 164.204155 
L 274.718203 188.677369 
L 274.769736 188.120008 
L 274.843356 186.903947 
L 274.902251 186.346586 
L 274.939061 186.903947 
L 275.078938 194.656332 
L 275.145196 196.657764 
L 275.196729 195.213693 
L 275.314521 178.948886 
L 275.564827 151.992882 
L 275.572189 151.942213 
L 275.61636 152.271563 
L 275.881391 162.582741 
L 276.212678 189.108057 
L 276.264212 188.525361 
L 276.367279 187.486643 
L 276.418813 188.196011 
L 276.492432 192.300215 
L 276.617585 198.076501 
L 276.661757 196.987114 
L 276.779548 181.254334 
L 277.05194 150.574145 
L 277.059302 150.498141 
L 277.118198 150.87816 
L 277.221265 153.766303 
L 277.405314 167.649659 
L 277.685068 188.677369 
L 277.773411 187.309301 
L 277.847031 186.473259 
L 277.88384 186.954616 
L 277.99427 193.54161 
L 278.097337 198.127171 
L 278.141509 196.505757 
L 278.251938 181.228999 
L 278.531692 149.966115 
L 278.539054 149.94078 
L 278.568502 150.219461 
L 278.671569 153.006266 
L 278.833532 163.24144 
L 279.157457 188.221346 
L 279.186905 187.968 
L 279.194267 187.993335 
L 279.208991 187.739989 
L 279.297334 186.75194 
L 279.348868 187.334635 
L 279.466659 194.352317 
L 279.577088 199.11522 
L 279.613898 197.544475 
L 279.739051 179.176897 
L 279.989357 150.802156 
L 279.996719 150.827491 
L 280.026167 150.928829 
L 280.232302 158.377199 
L 280.460522 179.151563 
L 280.629847 187.334635 
L 280.644571 187.309301 
L 280.651933 187.334635 
L 280.674019 187.157293 
L 280.784448 185.966567 
L 280.813896 186.169244 
L 280.953773 194.783005 
L 281.034754 198.836539 
L 281.086288 197.24046 
L 281.211441 179.455578 
L 281.454385 152.068886 
L 281.469109 151.840875 
L 281.535367 152.778254 
L 281.734139 160.986662 
L 282.102237 185.535879 
L 282.161132 185.282533 
L 282.249476 184.522496 
L 282.286285 185.181195 
L 282.45561 196.683099 
L 282.514506 199.241893 
L 282.566039 197.468471 
L 282.713278 175.427378 
L 282.948861 152.220893 
L 282.98567 152.322232 
L 283.206529 160.302628 
L 283.596712 184.775842 
L 283.648246 184.471827 
L 283.655608 184.497161 
L 283.692417 184.26915 
L 283.707141 184.091808 
L 283.751313 184.826511 
L 283.898552 195.163024 
L 283.994257 200.179272 
L 284.038429 198.608528 
L 284.148858 183.787793 
L 284.42125 154.019649 
L 284.428612 154.070319 
L 284.450698 153.994315 
L 284.49487 154.678349 
L 284.656833 159.21324 
L 284.899777 177.454145 
L 285.069102 183.509112 
L 285.076464 183.407774 
L 285.091187 183.357105 
L 285.179531 182.267717 
L 285.223703 183.027755 
L 285.348856 191.540177 
L 285.474009 199.596577 
L 285.51818 197.721817 
L 285.658057 177.124795 
L 285.886278 154.146322 
L 285.908364 154.247661 
L 285.967259 155.286379 
L 286.217566 165.090865 
L 286.556215 182.926417 
L 286.615111 182.191713 
L 286.644559 181.862364 
L 286.696092 182.521063 
L 286.806521 189.336068 
L 286.946398 199.368566 
L 286.99057 197.899159 
L 287.130447 178.720875 
L 287.366029 154.957029 
L 287.395477 154.830356 
L 287.439649 155.438386 
L 287.527992 157.363815 
L 287.719403 166.509602 
L 288.021243 182.445059 
L 288.072776 181.938368 
L 288.12431 181.583683 
L 288.16112 182.065041 
L 288.264187 187.841327 
L 288.418788 199.06455 
L 288.470322 197.063118 
L 288.602837 178.974221 
L 288.838419 155.615729 
L 288.875229 155.387717 
L 288.926762 156.071751 
L 289.074001 160.505304 
L 289.250688 171.196501 
L 289.493632 182.977086 
L 289.500994 182.850413 
L 289.589338 181.862364 
L 289.633509 182.267717 
L 289.677681 183.534447 
L 289.883816 198.861874 
L 289.957435 195.517708 
L 290.134122 167.903005 
L 290.325533 154.57701 
L 290.377066 155.083702 
L 290.715716 170.335125 
L 290.973384 182.470394 
L 290.99547 182.166379 
L 291.061727 181.381007 
L 291.113261 181.887698 
L 291.18688 185.586549 
L 291.356205 198.355182 
L 291.415101 196.480422 
L 291.547616 178.340856 
L 291.783198 155.185041 
L 291.797922 155.109037 
L 291.842094 155.717067 
L 291.937799 158.478537 
L 292.43105 183.33177 
L 292.534117 182.141044 
L 292.541479 182.141044 
L 292.548841 182.014371 
L 292.607736 182.647736 
L 292.688718 187.739989 
L 292.835957 197.316464 
L 292.88749 195.669715 
L 293.005282 181.279668 
L 293.255588 156.882458 
L 293.270312 156.755785 
L 293.329207 157.085135 
L 293.439637 159.973278 
L 293.903439 181.583683 
L 293.977059 180.84898 
L 294.028592 180.342288 
L 294.072764 180.899649 
L 294.175831 188.170677 
L 294.32307 197.063118 
L 294.367242 195.441704 
L 294.521843 175.554051 
L 294.742701 158.503872 
L 294.808959 158.579876 
L 295.103437 168.156351 
L 295.361105 181.051657 
L 295.442086 180.24095 
L 295.449448 180.24095 
L 295.508344 179.582251 
L 295.545154 180.190281 
L 295.714478 194.453655 
L 295.788098 197.975163 
L 295.839632 196.63243 
L 295.957423 182.749074 
L 296.222453 158.883891 
L 296.251901 158.833221 
L 296.36233 160.555974 
L 296.862942 178.822213 
L 296.936562 178.188848 
L 296.96601 178.036841 
L 297.002819 178.467529 
L 297.105887 185.611883 
L 297.267849 197.899159 
L 297.312021 196.708434 
L 297.437174 182.470394 
L 297.72429 158.909225 
L 297.753738 158.731883 
L 297.790548 159.26391 
L 298.02613 165.1162 
L 298.637172 192.148207 
L 298.740239 197.975163 
L 298.791773 196.404418 
L 298.983183 173.501949 
L 299.204042 160.251959 
L 299.23349 160.15062 
L 299.255575 160.429301 
L 299.645759 172.285889 
L 299.822445 177.378141 
L 299.829807 177.276803 
L 299.896065 176.770111 
L 299.932875 177.175465 
L 300.043304 184.750507 
L 300.219991 198.608528 
L 300.2568 197.721817 
L 300.396677 182.698405 
L 300.669069 160.707981 
L 300.705879 160.429301 
L 300.757413 160.859989 
L 301.059253 167.725663 
L 301.272749 177.023457 
L 301.339007 176.694107 
L 301.368455 176.5421 
L 301.405264 176.972788 
L 301.493608 182.242383 
L 301.699742 198.17784 
L 301.736552 197.063118 
L 301.861705 184.294484 
L 302.148821 160.125286 
L 302.200355 160.201289 
L 302.494833 165.597557 
L 302.767225 177.099461 
L 302.796672 176.998123 
L 302.833482 176.922119 
L 302.86293 177.099461 
L 302.921826 179.050224 
L 303.16477 197.493806 
L 303.231027 194.884343 
L 303.451886 168.739046 
L 303.635935 160.581308 
L 303.643296 160.657312 
L 303.65802 160.581308 
L 303.680106 160.859989 
L 303.967222 166.256256 
L 304.232252 177.175465 
L 304.276424 176.972788 
L 304.327958 176.592769 
L 304.364767 177.175465 
L 304.423663 180.316954 
L 304.637159 196.125738 
L 304.696055 194.377651 
L 304.821208 181.533014 
L 305.078876 161.797369 
L 305.100962 161.721365 
L 305.373354 164.584173 
L 305.483783 169.043061 
L 305.689918 177.783495 
L 305.741452 177.454145 
L 305.807709 176.795446 
L 305.844519 177.327472 
L 305.984396 187.587981 
L 306.116911 195.137689 
L 306.161083 194.14964 
L 306.293598 182.014371 
L 306.558628 162.101384 
L 306.595438 162.202722 
L 306.639609 162.684079 
L 306.948811 168.308358 
L 307.177032 176.972788 
L 307.228565 176.643438 
L 307.235927 176.643438 
L 307.280099 176.263419 
L 307.316909 176.998123 
L 307.419976 184.117142 
L 307.589301 195.289697 
L 307.640834 194.022967 
L 307.73654 186.549263 
L 308.060465 162.278726 
L 308.067827 162.253391 
L 308.119361 162.456068 
L 308.354943 164.761516 
L 308.921813 187.815992 
L 309.06169 196.201742 
L 309.105862 195.213693 
L 309.208929 187.106624 
L 309.562303 161.797369 
L 309.797885 162.886756 
L 309.915676 168.333693 
L 310.136535 176.87145 
L 310.180706 176.82078 
L 310.19543 176.694107 
L 310.239602 177.327472 
L 310.445736 192.426888 
L 310.526718 195.821723 
L 310.578251 194.935012 
L 310.718129 182.39439 
L 310.997883 162.076049 
L 311.06414 161.974711 
L 311.167207 161.721365 
L 311.204017 161.822703 
L 311.314446 163.874805 
L 312.013831 195.923061 
L 312.087451 193.54161 
L 312.264138 174.946021 
L 312.484996 162.709414 
L 312.507082 162.63341 
L 312.691131 161.620026 
L 312.720578 161.822703 
L 312.786836 163.545455 
L 313.162295 177.276803 
L 313.265363 181.583683 
L 313.500945 195.213693 
L 313.552478 193.921629 
L 313.714441 178.214183 
L 313.964748 163.089433 
L 314.178244 161.594692 
L 314.273949 164.254824 
L 314.53898 176.922119 
L 314.605237 176.618104 
L 314.708304 179.328905 
L 314.973334 195.543042 
L 315.054316 192.958914 
L 315.577014 161.69603 
L 315.643272 160.935992 
L 315.694805 161.392015 
L 315.878854 171.424513 
L 316.084989 176.87145 
L 316.143884 177.960837 
L 316.283761 186.42259 
L 316.460448 195.112354 
L 316.489896 194.605663 
L 316.570877 189.006718 
L 316.938975 162.785418 
L 317.100937 160.682647 
L 317.137747 160.783985 
L 317.255538 165.293542 
L 317.56474 177.175465 
L 317.630998 178.796878 
L 317.800322 190.248113 
L 317.918114 195.061685 
L 317.969647 194.124305 
L 318.124248 180.5703 
L 318.389278 162.63341 
L 318.588051 160.581308 
L 318.617499 160.885323 
L 318.786824 169.448415 
L 318.985596 176.972788 
L 318.992958 176.922119 
L 319.066578 177.555484 
L 319.162283 181.051657 
L 319.405227 193.668283 
L 319.449399 192.477557 
L 319.589276 180.620969 
L 319.891116 161.848038 
L 320.008907 160.277293 
L 320.060441 159.87194 
L 320.09725 160.403966 
L 320.17087 163.444117 
L 320.516881 177.428811 
L 320.605225 179.379574 
L 320.884979 193.921629 
L 320.951236 191.464173 
L 321.127923 174.819348 
L 321.363505 162.278726 
L 321.525468 159.922609 
L 321.584364 160.75865 
L 322.350006 194.124305 
L 322.430988 191.38817 
L 322.997858 159.567925 
L 323.012582 159.517255 
L 323.042029 159.770601 
L 323.145097 164.102816 
L 323.476384 176.415427 
L 323.557366 178.999555 
L 323.829758 194.453655 
L 323.925463 191.033485 
L 324.499695 158.959894 
L 324.551229 159.947943 
L 324.750001 171.652524 
L 324.97086 176.592769 
L 325.110737 184.294484 
L 325.302148 195.036351 
L 325.353681 194.174975 
L 325.471472 185.738556 
L 325.817484 162.076049 
L 325.957361 157.794503 
L 326.023618 159.061233 
L 326.185581 169.296407 
L 326.40644 177.276803 
L 326.443249 178.138179 
L 326.612574 186.75194 
L 326.781899 194.985681 
L 326.833433 193.794956 
L 326.914414 188.601365 
L 327.370855 159.846605 
L 327.437112 158.60521 
L 327.488646 159.567925 
L 327.606437 165.749565 
L 327.864105 176.922119 
L 327.989259 180.722307 
L 328.254289 194.707001 
L 328.320546 193.262929 
L 328.423613 185.535879 
L 328.784349 161.848038 
L 328.909502 158.807887 
L 328.968398 159.82127 
L 329.078827 165.850903 
L 329.343857 176.516765 
L 329.50582 182.11571 
L 329.73404 193.693617 
L 329.800298 192.198877 
L 329.932813 181.533014 
L 330.234653 162.836087 
L 330.37453 158.655879 
L 330.411339 158.959894 
L 330.558578 166.028245 
L 330.808885 177.251468 
L 330.919314 180.24095 
L 331.20643 194.301648 
L 331.287411 192.046869 
L 331.861643 159.339913 
L 331.913177 159.897274 
L 332.00152 163.925474 
L 332.325446 177.226134 
L 332.428513 180.84898 
L 332.583114 189.918763 
L 332.686181 193.516275 
L 332.737715 192.680234 
L 332.803973 189.082722 
L 333.297223 160.125286 
L 333.334033 159.669263 
L 333.385566 160.125286 
L 333.481272 164.330828 
L 333.77575 175.959404 
L 333.915627 180.088943 
L 334.173295 193.617614 
L 334.254276 191.464173 
L 334.83587 158.883891 
L 334.916852 160.80932 
L 335.329121 177.428811 
L 335.513169 187.486643 
L 335.645684 193.161591 
L 335.689856 192.60423 
L 335.829733 183.33177 
L 336.197831 161.037331 
L 336.30826 158.579876 
L 336.359793 159.593259 
L 336.484947 166.078914 
L 336.779424 178.08751 
L 336.87513 181.431676 
L 337.125436 194.098971 
L 337.17697 192.908245 
L 337.36838 178.391525 
L 337.70703 159.491921 
L 337.773287 158.427868 
L 337.824821 159.314579 
L 337.986784 168.688377 
L 338.281262 179.050224 
L 338.369605 182.166379 
L 338.597826 192.88291 
L 338.627273 192.477557 
L 338.759788 184.370488 
L 339.194143 158.579876 
L 339.238315 157.819838 
L 339.297211 158.681214 
L 340.070215 192.452222 
L 340.129111 191.210828 
L 340.364693 174.566002 
L 340.718067 157.7185 
L 340.740153 157.845172 
L 340.835858 161.392015 
L 341.233403 179.30357 
L 341.395366 186.625267 
L 341.542605 193.186926 
L 341.594138 192.553561 
L 341.807635 178.163514 
L 342.183094 156.857123 
L 342.190456 156.78112 
L 342.234628 157.262477 
L 342.322971 161.316011 
L 342.705793 179.126228 
L 342.867755 186.498594 
L 343.029718 193.009583 
L 343.066528 192.553561 
L 343.162233 187.841327 
L 343.67757 156.527774 
L 343.71438 156.933127 
L 343.817447 161.949376 
L 344.428488 191.261497 
L 344.50947 193.262929 
L 344.561004 192.350884 
L 344.678795 185.535879 
L 345.164683 155.793071 
L 345.238303 158.225191 
L 345.989221 192.629565 
L 346.011307 192.528226 
L 346.121737 188.196011 
L 346.460386 163.444117 
L 346.622349 156.477105 
L 346.666521 157.110469 
L 346.799036 164.584173 
L 347.086152 178.619536 
L 347.218667 181.938368 
L 347.468973 192.27488 
L 347.542592 190.754805 
L 347.792899 174.768679 
L 348.094739 156.274428 
L 348.124186 156.426435 
L 348.205168 159.491921 
L 348.941363 191.970865 
L 348.948725 192.021534 
L 348.985534 191.565512 
L 349.103325 186.219913 
L 349.581852 156.12242 
L 349.655472 158.250526 
L 350.347495 190.374786 
L 350.421114 191.9962 
L 350.48001 191.109489 
L 350.612525 184.421157 
L 351.054242 156.046417 
L 351.113137 157.38915 
L 351.267738 168.359027 
L 351.503321 178.948886 
L 351.510682 178.923551 
L 351.532768 179.151563 
L 351.547492 179.126228 
L 351.672645 182.191713 
L 351.900866 192.173542 
L 351.945037 191.616181 
L 352.040743 187.63865 
L 352.526631 156.350432 
L 352.592889 158.149188 
L 352.799023 173.425945 
L 352.997796 179.506247 
L 353.005158 179.430243 
L 353.064053 179.860931 
L 353.159759 182.673071 
L 353.380617 191.717519 
L 353.439513 190.602797 
L 353.6162 180.012939 
L 353.999021 156.046417 
L 354.013745 156.147755 
L 354.087364 158.681214 
L 354.823559 190.957482 
L 354.853007 191.3375 
L 354.911902 190.678801 
L 354.985522 187.68932 
L 355.24319 167.522986 
L 355.478772 156.147755 
L 355.493496 156.223759 
L 355.574478 159.491921 
L 355.758526 173.704626 
L 355.949937 178.974221 
L 356.060366 180.316954 
L 356.34012 192.198877 
L 356.435826 189.893429 
L 356.619874 176.87145 
L 356.951162 156.375766 
L 356.958524 156.45177 
L 357.01742 158.047849 
L 357.253002 174.718009 
L 357.392879 178.340856 
L 357.422327 178.290187 
L 357.481222 178.340856 
L 357.58429 181.127661 
L 357.819872 191.38817 
L 357.886129 190.476124 
L 358.04073 181.482345 
L 358.423552 156.527774 
L 358.460361 157.034466 
L 358.570791 162.785418 
L 358.843183 177.707491 
L 358.87263 177.656822 
L 358.887354 177.580818 
L 358.916802 177.403476 
L 358.968336 177.783495 
L 359.071403 181.254334 
L 359.306985 192.046869 
L 359.365881 191.109489 
L 359.527844 180.823646 
L 359.881217 156.477105 
L 359.895941 156.502439 
L 359.932751 156.933127 
L 360.035818 161.974711 
L 360.352382 177.074126 
L 360.359744 177.023457 
L 360.367106 176.972788 
L 360.426001 177.251468 
L 360.580602 183.407774 
L 360.801461 192.553561 
L 360.823547 192.198877 
L 360.904528 188.956049 
L 361.14011 168.713712 
L 361.375693 156.45177 
L 361.383055 156.502439 
L 361.419864 157.009131 
L 361.530294 162.886756 
L 361.810048 176.5421 
L 361.81741 176.516765 
L 361.824772 176.491431 
L 361.868943 176.643438 
L 361.964649 178.568867 
L 362.266489 192.629565 
L 362.34747 190.780139 
L 362.531519 176.694107 
L 362.862806 156.299762 
L 362.870168 156.325097 
L 362.958512 159.441252 
L 363.311885 176.5421 
L 363.333971 176.643438 
L 363.385505 177.200799 
L 363.48121 180.443627 
L 363.74624 192.984249 
L 363.775688 192.680234 
L 363.886117 187.435974 
L 364.327834 156.375766 
L 364.401453 157.971845 
L 364.84317 176.263419 
L 364.938876 178.872882 
L 365.225992 193.161591 
L 365.277525 192.325549 
L 365.454212 179.810262 
L 365.778138 157.161139 
L 365.807585 156.983796 
L 365.837033 157.338481 
L 365.940101 162.228057 
L 366.24194 176.086077 
L 366.27875 176.162081 
L 366.367094 177.530149 
L 366.506971 185.155861 
L 366.691019 193.262929 
L 366.720467 193.136256 
L 366.838258 187.866662 
L 367.287337 157.465154 
L 367.331509 158.301195 
L 367.471386 166.762948 
L 367.692244 175.630055 
L 367.721692 175.528716 
L 367.758502 175.503382 
L 367.861569 177.251468 
L 368.178133 192.477557 
L 368.273838 189.969433 
L 368.538868 168.055012 
L 368.752365 158.250526 
L 368.767089 158.301195 
L 368.833346 160.049282 
L 369.171996 175.630055 
L 369.238253 175.452713 
L 369.245615 175.427378 
L 369.275063 175.655389 
L 369.348682 177.403476 
L 369.657884 192.654899 
L 369.746228 190.678801 
L 369.937638 175.098028 
L 370.232116 158.377199 
L 370.24684 158.453203 
L 370.327822 161.011996 
L 370.644385 174.946021 
L 370.703281 174.844682 
L 370.7769 175.402043 
L 370.872606 179.430243 
L 371.137636 192.984249 
L 371.196531 191.9962 
L 371.329047 182.977086 
L 371.704506 158.731883 
L 371.71923 158.757218 
L 371.822297 162.35473 
L 372.116775 174.540667 
L 372.138861 174.439329 
L 372.183032 174.363325 
L 372.256652 175.199367 
L 372.403891 182.951751 
L 372.617387 192.654899 
L 372.646835 192.376219 
L 372.786712 183.990469 
L 373.191619 158.478537 
L 373.198981 158.630545 
L 373.228429 159.111902 
L 373.375668 167.041629 
L 373.596526 174.109979 
L 373.655422 174.05931 
L 373.751127 175.908735 
L 373.942538 187.283966 
L 374.089777 192.857576 
L 374.126587 192.502892 
L 374.207568 188.601365 
L 374.656647 158.655879 
L 374.730266 159.947943 
L 375.569529 193.21226 
L 375.65051 190.805474 
L 375.805111 178.239517 
L 376.121675 158.60521 
L 376.158484 158.655879 
L 376.21738 160.277293 
L 377.041918 192.705568 
L 377.1229 190.425455 
L 377.284862 177.555484 
L 377.594064 158.909225 
L 377.61615 158.706549 
L 377.660322 159.289244 
L 377.785475 165.698895 
L 378.028419 174.033975 
L 378.065229 173.957972 
L 378.102039 174.185983 
L 378.18302 176.060743 
L 378.322897 183.66112 
L 378.514308 192.93358 
L 378.551118 192.578895 
L 378.646823 187.866662 
L 379.08854 159.314579 
L 379.154797 160.353297 
L 379.876268 188.880045 
L 379.994059 192.730903 
L 380.030869 192.300215 
L 380.126574 187.537312 
L 380.575653 159.517255 
L 380.597739 159.745267 
L 380.67872 162.278726 
L 380.987922 173.223269 
L 380.995284 173.197934 
L 381.002646 173.147265 
L 381.046818 173.552618 
L 381.076266 173.983306 
L 381.201419 178.594202 
L 381.473811 192.654899 
L 381.517983 191.945531 
L 381.687307 180.671638 
L 382.018595 159.998613 
L 382.062767 159.745267 
L 382.099576 160.327962 
L 382.210006 165.420215 
L 382.438226 173.527284 
L 382.445588 173.501949 
L 382.45295 173.501949 
L 382.68117 179.176897 
L 382.953562 192.502892 
L 383.041906 189.538745 
L 383.527794 159.795936 
L 383.6235 161.848038 
L 384.065217 175.503382 
L 384.256627 185.839894 
L 384.411228 192.756238 
L 384.448038 192.401553 
L 384.536381 188.57603 
L 385.014908 159.947943 
L 385.066441 160.733316 
L 385.795274 189.614748 
L 385.89098 192.553561 
L 385.942513 191.717519 
L 386.089752 182.901082 
L 386.465212 160.023947 
L 386.502021 159.795936 
L 386.538831 160.378631 
L 387.282388 189.766756 
L 387.378093 192.122873 
L 387.414903 191.413504 
L 387.569504 182.419725 
L 387.967049 159.922609 
L 387.974411 159.998613 
L 388.011221 160.505304 
L 388.187907 168.308358 
L 388.438214 174.692675 
L 388.563367 178.568867 
L 388.843121 192.680234 
L 388.91674 190.906812 
L 389.18177 172.893919 
L 389.446801 159.82127 
L 389.461524 159.897274 
L 389.549868 162.405399 
L 389.910603 174.489998 
L 390.05048 178.746209 
L 390.31551 191.9962 
L 390.381768 190.72947 
L 390.587903 177.707491 
L 390.91919 159.846605 
L 390.941276 160.074616 
L 391.007534 161.873372 
L 391.795262 191.565512 
L 391.82471 191.185493 
L 391.913053 187.815992 
L 392.398942 160.353297 
L 392.435751 160.859989 
L 392.597714 167.396313 
L 392.840659 174.287321 
L 392.965812 176.643438 
L 393.275014 190.856143 
L 393.378081 188.069338 
L 393.606301 173.096596 
L 393.863969 160.657312 
L 393.871331 160.733316 
L 393.915503 161.189338 
L 394.01857 164.736181 
L 394.349858 174.591336 
L 394.460287 177.428811 
L 394.762127 191.261497 
L 394.835747 189.336068 
L 395.041881 176.415427 
L 395.358445 160.682647 
L 395.365807 160.733316 
L 395.45415 162.760083 
L 396.006296 180.747642 
L 396.234517 190.780139 
L 396.263964 190.374786 
L 396.418565 183.129093 
L 396.823472 160.834654 
L 396.88973 161.518688 
L 397.007521 166.078914 
L 397.257827 173.907303 
L 397.397704 176.364758 
L 397.537581 183.9398 
L 397.699544 190.577463 
L 397.728992 190.425455 
L 397.861507 185.535879 
L 398.317948 160.910658 
L 398.406291 162.532072 
L 398.487273 166.00291 
L 398.487273 166.00291 
" clip-path="url(#p2cd0afef4a)" style="fill: none; stroke: #1f77b4; stroke-width: 1.5; stroke-linecap: square"/>
   </g>
   <g id="patch_3">
    <path d="M 57.6 307.584 
L 57.6 41.472 
" style="fill: none; stroke: #000000; stroke-width: 0.8; stroke-linejoin: miter; stroke-linecap: square"/>
   </g>
   <g id="patch_4">
    <path d="M 414.72 307.584 
L 414.72 41.472 
" style="fill: none; stroke: #000000; stroke-width: 0.8; stroke-linejoin: miter; stroke-linecap: square"/>
   </g>
   <g id="patch_5">
    <path d="M 57.6 307.584 
L 414.72 307.584 
" style="fill: none; stroke: #000000; stroke-width: 0.8; stroke-linejoin: miter; stroke-linecap: square"/>
   </g>
   <g id="patch_6">
    <path d="M 57.6 41.472 
L 414.72 41.472 
" style="fill: none; stroke: #000000; stroke-width: 0.8; stroke-linejoin: miter; stroke-linecap: square"/>
   </g>
   <g id="text_14">
    <text style="font: 12px 'IPAexGothic'; text-anchor: middle" x="236.16" y="35.472" transform="rotate(-0 236.16 35.472)">"047_A3.wav"の波形グラフ</text>
   </g>
  </g>
 </g>
 <defs>
  <clipPath id="p2cd0afef4a">
   <rect x="57.6" y="41.472" width="357.12" height="266.112"/>
  </clipPath>
 </defs>
</svg>
