<?xml version="1.0" encoding="utf-8" standalone="no"?>
<!DOCTYPE svg PUBLIC "-//W3C//DTD SVG 1.1//EN"
  "http://www.w3.org/Graphics/SVG/1.1/DTD/svg11.dtd">
<svg xmlns:xlink="http://www.w3.org/1999/xlink" width="460.8pt" height="345.6pt" viewBox="0 0 460.8 345.6" xmlns="http://www.w3.org/2000/svg" version="1.1">
 <metadata>
  <rdf:RDF xmlns:dc="http://purl.org/dc/elements/1.1/" xmlns:cc="http://creativecommons.org/ns#" xmlns:rdf="http://www.w3.org/1999/02/22-rdf-syntax-ns#">
   <cc:Work>
    <dc:type rdf:resource="http://purl.org/dc/dcmitype/StillImage"/>
    <dc:date>2022-11-28T12:31:53.963180</dc:date>
    <dc:format>image/svg+xml</dc:format>
    <dc:creator>
     <cc:Agent>
      <dc:title>Matplotlib v3.6.2, https://matplotlib.org/</dc:title>
     </cc:Agent>
    </dc:creator>
   </cc:Work>
  </rdf:RDF>
 </metadata>
 <defs>
  <style type="text/css">*{stroke-linejoin: round; stroke-linecap: butt}</style>
 </defs>
 <g id="figure_1">
  <g id="patch_1">
   <path d="M 0 345.6 
L 460.8 345.6 
L 460.8 0 
L 0 0 
z
" style="fill: #ffffff"/>
  </g>
  <g id="axes_1">
   <g id="patch_2">
    <path d="M 57.6 307.584 
L 414.72 307.584 
L 414.72 41.472 
L 57.6 41.472 
z
" style="fill: #ffffff"/>
   </g>
   <g id="matplotlib.axis_1">
    <g id="xtick_1">
     <g id="line2d_1">
      <defs>
       <path id="mafeee6e51f" d="M 0 0 
L 0 3.5 
" style="stroke: #000000; stroke-width: 0.8"/>
      </defs>
      <g>
       <use xlink:href="#mafeee6e51f" x="73.832727" y="307.584" style="stroke: #000000; stroke-width: 0.8"/>
      </g>
     </g>
     <g id="text_1">
      <text style="font: 10px 'IPAexGothic'; text-anchor: middle" x="73.832727" y="322.074625" transform="rotate(-0 73.832727 322.074625)">0.0</text>
     </g>
    </g>
    <g id="xtick_2">
     <g id="line2d_2">
      <g>
       <use xlink:href="#mafeee6e51f" x="138.765109" y="307.584" style="stroke: #000000; stroke-width: 0.8"/>
      </g>
     </g>
     <g id="text_2">
      <text style="font: 10px 'IPAexGothic'; text-anchor: middle" x="138.765109" y="322.074625" transform="rotate(-0 138.765109 322.074625)">0.2</text>
     </g>
    </g>
    <g id="xtick_3">
     <g id="line2d_3">
      <g>
       <use xlink:href="#mafeee6e51f" x="203.69749" y="307.584" style="stroke: #000000; stroke-width: 0.8"/>
      </g>
     </g>
     <g id="text_3">
      <text style="font: 10px 'IPAexGothic'; text-anchor: middle" x="203.69749" y="322.074625" transform="rotate(-0 203.69749 322.074625)">0.4</text>
     </g>
    </g>
    <g id="xtick_4">
     <g id="line2d_4">
      <g>
       <use xlink:href="#mafeee6e51f" x="268.629872" y="307.584" style="stroke: #000000; stroke-width: 0.8"/>
      </g>
     </g>
     <g id="text_4">
      <text style="font: 10px 'IPAexGothic'; text-anchor: middle" x="268.629872" y="322.074625" transform="rotate(-0 268.629872 322.074625)">0.6</text>
     </g>
    </g>
    <g id="xtick_5">
     <g id="line2d_5">
      <g>
       <use xlink:href="#mafeee6e51f" x="333.562253" y="307.584" style="stroke: #000000; stroke-width: 0.8"/>
      </g>
     </g>
     <g id="text_5">
      <text style="font: 10px 'IPAexGothic'; text-anchor: middle" x="333.562253" y="322.074625" transform="rotate(-0 333.562253 322.074625)">0.8</text>
     </g>
    </g>
    <g id="xtick_6">
     <g id="line2d_6">
      <g>
       <use xlink:href="#mafeee6e51f" x="398.494635" y="307.584" style="stroke: #000000; stroke-width: 0.8"/>
      </g>
     </g>
     <g id="text_6">
      <text style="font: 10px 'IPAexGothic'; text-anchor: middle" x="398.494635" y="322.074625" transform="rotate(-0 398.494635 322.074625)">1.0</text>
     </g>
    </g>
    <g id="text_7">
     <text style="font: 10px 'IPAexGothic'; text-anchor: middle" x="236.16" y="335.924625" transform="rotate(-0 236.16 335.924625)">時間[s]</text>
    </g>
   </g>
   <g id="matplotlib.axis_2">
    <g id="ytick_1">
     <g id="line2d_7">
      <defs>
       <path id="mb279f28c93" d="M 0 0 
L -3.5 0 
" style="stroke: #000000; stroke-width: 0.8"/>
      </defs>
      <g>
       <use xlink:href="#mb279f28c93" x="57.6" y="286.294604" style="stroke: #000000; stroke-width: 0.8"/>
      </g>
     </g>
     <g id="text_8">
      <text style="font: 10px 'IPAexGothic'; text-anchor: end" x="50.6" y="290.039916" transform="rotate(-0 50.6 290.039916)">−4000</text>
     </g>
    </g>
    <g id="ytick_2">
     <g id="line2d_8">
      <g>
       <use xlink:href="#mb279f28c93" x="57.6" y="231.734387" style="stroke: #000000; stroke-width: 0.8"/>
      </g>
     </g>
     <g id="text_9">
      <text style="font: 10px 'IPAexGothic'; text-anchor: end" x="50.6" y="235.4797" transform="rotate(-0 50.6 235.4797)">−2000</text>
     </g>
    </g>
    <g id="ytick_3">
     <g id="line2d_9">
      <g>
       <use xlink:href="#mb279f28c93" x="57.6" y="177.174171" style="stroke: #000000; stroke-width: 0.8"/>
      </g>
     </g>
     <g id="text_10">
      <text style="font: 10px 'IPAexGothic'; text-anchor: end" x="50.6" y="180.919483" transform="rotate(-0 50.6 180.919483)">0</text>
     </g>
    </g>
    <g id="ytick_4">
     <g id="line2d_10">
      <g>
       <use xlink:href="#mb279f28c93" x="57.6" y="122.613954" style="stroke: #000000; stroke-width: 0.8"/>
      </g>
     </g>
     <g id="text_11">
      <text style="font: 10px 'IPAexGothic'; text-anchor: end" x="50.6" y="126.359266" transform="rotate(-0 50.6 126.359266)">2000</text>
     </g>
    </g>
    <g id="ytick_5">
     <g id="line2d_11">
      <g>
       <use xlink:href="#mb279f28c93" x="57.6" y="68.053737" style="stroke: #000000; stroke-width: 0.8"/>
      </g>
     </g>
     <g id="text_12">
      <text style="font: 10px 'IPAexGothic'; text-anchor: end" x="50.6" y="71.79905" transform="rotate(-0 50.6 71.79905)">4000</text>
     </g>
    </g>
    <g id="text_13">
     <text style="font: 10px 'IPAexGothic'; text-anchor: middle" x="12.723438" y="174.528" transform="rotate(-90 12.723438 174.528)">振幅</text>
    </g>
   </g>
   <g id="line2d_12">
    <path d="M 73.832727 177.228731 
L 73.840089 177.201451 
L 73.862175 177.419691 
L 73.869537 177.392411 
L 74.053586 178.920097 
L 74.060948 178.810977 
L 74.134567 179.083778 
L 74.149291 179.083778 
L 74.178739 179.192899 
L 74.311254 179.793061 
L 74.458493 178.565456 
L 74.944381 174.882641 
L 75.010639 175.237283 
L 75.386098 178.838257 
L 75.39346 178.810977 
L 75.540699 180.420503 
L 75.548061 180.338663 
L 75.621681 180.556904 
L 75.643766 180.365943 
L 75.651128 180.475064 
L 75.717386 180.256823 
L 75.739472 180.256823 
L 76.019226 177.446972 
L 76.188551 174.991762 
L 76.195913 175.019042 
L 76.217998 174.691681 
L 76.254808 174.282479 
L 76.26217 174.309759 
L 76.394685 173.382235 
L 76.409409 173.354955 
L 76.667077 176.028406 
L 76.858488 179.220179 
L 76.86585 179.220179 
L 77.035175 181.320747 
L 77.123518 181.402587 
L 77.145604 181.238907 
L 77.182414 181.375307 
L 77.241309 181.047946 
L 77.248671 181.047946 
L 77.800817 171.199827 
L 77.830265 171.117986 
L 77.859713 170.981586 
L 77.903885 171.445348 
L 77.911246 171.390788 
L 78.124743 175.346403 
L 78.271982 179.029218 
L 78.448669 182.466512 
L 78.456031 182.466512 
L 78.544374 182.984834 
L 78.573822 182.902993 
L 78.713699 182.03003 
L 78.721061 182.13915 
L 78.772594 181.511708 
L 79.125968 171.281667 
L 79.32474 167.517012 
L 79.332102 167.598853 
L 79.339464 167.489732 
L 79.39836 168.008054 
L 79.656028 177.501532 
L 79.898972 185.139962 
L 79.987316 185.767405 
L 80.038849 185.521884 
L 80.222898 183.039394 
L 80.311242 180.938825 
L 80.738235 164.243399 
L 80.752958 164.161559 
L 80.804492 163.670517 
L 80.856026 164.297959 
L 80.944369 167.107811 
L 81.40081 189.313819 
L 81.444982 189.504779 
L 81.533325 188.795497 
L 81.62903 187.267811 
L 81.960318 171.063426 
L 82.23271 158.269055 
L 82.240072 158.323616 
L 82.276882 158.105375 
L 82.321053 158.705537 
L 82.483016 170.435984 
L 82.784856 192.451031 
L 82.902647 193.514955 
L 82.917371 193.405835 
L 83.300192 180.611464 
L 83.59467 155.104563 
L 83.712462 150.412384 
L 83.756633 151.121667 
L 83.852339 157.614333 
L 84.308779 199.925781 
L 84.360313 199.516579 
L 84.625343 191.168866 
L 84.779944 179.54754 
L 85.184851 141.409949 
L 85.265833 146.211248 
L 85.413071 168.171735 
L 85.729635 206.009245 
L 85.847426 204.426999 
L 85.97258 198.479935 
L 86.274419 177.14689 
L 86.679327 133.034955 
L 86.73086 136.881451 
L 87.010614 195.942885 
L 87.157853 212.911112 
L 87.202025 212.556471 
L 87.658466 187.813413 
L 88.144354 126.405889 
L 88.181164 127.606214 
L 88.284231 148.339096 
L 88.615519 217.084969 
L 88.674414 215.557283 
L 88.784844 211.901748 
L 88.829015 212.529191 
L 88.858463 212.883832 
L 88.895273 212.065429 
L 89.101407 190.977905 
L 89.579934 123.486917 
L 89.60202 123.323237 
L 89.631468 123.677878 
L 89.690363 128.942939 
L 90.087908 220.522263 
L 90.198338 216.730327 
L 90.249871 215.720963 
L 90.294043 217.030409 
L 90.352939 219.049137 
L 90.404472 217.003129 
L 90.588521 185.712844 
L 90.96398 120.731627 
L 91.015514 118.385537 
L 91.07441 120.349705 
L 91.162753 128.124536 
L 91.317354 169.50846 
L 91.56766 221.013304 
L 91.597108 220.604103 
L 91.685451 218.285294 
L 91.722261 219.512899 
L 91.83269 225.459962 
L 91.884224 223.250273 
L 91.987291 208.546295 
L 92.370112 127.469813 
L 92.495265 113.720639 
L 92.532075 115.657526 
L 92.642504 125.696606 
L 92.826553 179.57482 
L 93.047412 223.795876 
L 93.054774 223.741315 
L 93.128393 223.332114 
L 93.165203 223.604915 
L 93.238822 227.39685 
L 93.297718 229.688379 
L 93.349251 227.915172 
L 93.474405 207.918853 
L 93.746797 146.72957 
L 93.879312 118.876579 
L 93.967655 109.464942 
L 94.019189 112.493034 
L 94.151704 132.161992 
L 94.534525 225.896444 
L 94.541887 225.787323 
L 94.600783 226.551166 
L 94.770107 233.125673 
L 94.829003 230.370382 
L 94.954156 207.618771 
L 95.175015 151.667269 
L 95.30753 128.042696 
L 95.440045 105.754847 
L 95.491578 108.128217 
L 95.624093 128.833819 
L 95.999553 227.45141 
L 96.213049 236.753927 
L 96.279307 234.353277 
L 96.389736 220.685943 
L 96.500165 175.237283 
L 96.691576 146.102127 
L 96.919796 102.944996 
L 97.022864 110.146945 
L 97.111207 131.398149 
L 97.435133 223.741315 
L 97.700163 242.155388 
L 97.707525 242.100828 
L 97.76642 238.472574 
L 97.906297 207.29141 
L 98.127156 150.303264 
L 98.399548 100.708027 
L 98.517339 110.583426 
L 98.642492 151.612709 
L 98.97378 227.887892 
L 99.172552 245.865483 
L 99.246172 241.637066 
L 99.393411 205.272682 
L 99.606907 150.194143 
L 99.871937 96.861532 
L 99.982367 106.43685 
L 100.07071 131.971031 
L 100.394636 220.986024 
L 100.652304 249.821099 
L 100.689114 248.457093 
L 100.828991 225.241721 
L 101.314879 97.734495 
L 101.366413 95.333846 
L 101.410585 98.198257 
L 101.535738 124.03252 
L 101.918559 230.506782 
L 102.124693 253.776714 
L 102.168865 251.403345 
L 102.308742 224.396038 
L 102.743097 104.991004 
L 102.83144 94.624563 
L 102.890336 96.725131 
L 102.978679 110.665267 
L 103.582359 257.950571 
L 103.589721 258.059691 
L 103.619169 257.241288 
L 103.707512 244.665158 
L 103.869475 188.277175 
L 104.112419 135.026403 
L 104.311192 90.668947 
L 104.355364 92.223913 
L 104.451069 105.727567 
L 105.062111 257.159448 
L 105.084197 257.514089 
L 105.121006 256.150084 
L 105.224074 239.536498 
L 105.327141 201.617147 
L 105.584809 135.517445 
L 105.783582 85.403886 
L 105.827753 87.395334 
L 105.930821 103.436038 
L 106.519776 259.287296 
L 106.556586 260.814982 
L 106.60812 258.632574 
L 106.733273 234.707919 
L 107.270695 82.894116 
L 107.300143 83.521559 
L 107.373762 90.123345 
L 107.565173 154.886322 
L 107.889099 245.374441 
L 108.051062 264.443237 
L 108.087871 262.588189 
L 108.205663 241.064184 
L 108.743085 80.738988 
L 108.765171 81.530111 
L 108.868238 93.096877 
L 109.530813 269.571897 
L 109.560261 268.480693 
L 109.655966 252.60367 
L 110.082959 105.454766 
L 110.222836 79.238582 
L 110.267008 80.302506 
L 110.325904 84.503643 
L 110.509952 145.747486 
L 110.87805 257.432249 
L 111.003203 271.536065 
L 111.040013 269.435497 
L 111.135718 251.348785 
L 111.70995 75.801288 
L 111.798293 79.593223 
L 111.960256 129.734062 
L 112.409335 270.008379 
L 112.475592 274.864238 
L 112.527126 271.808866 
L 112.637555 246.820287 
L 113.197063 71.954793 
L 113.211787 72.173034 
L 113.278045 76.974333 
L 113.395836 110.692547 
L 113.947982 276.091843 
L 113.962706 275.873602 
L 114.028963 269.108135 
L 114.161478 230.806863 
L 114.610557 72.827756 
L 114.676815 67.453575 
L 114.73571 70.263426 
L 114.831416 94.078961 
L 115.435095 277.374008 
L 115.449819 277.073927 
L 115.523439 268.480693 
L 115.64123 231.843507 
L 116.090309 70.590788 
L 116.149204 66.416931 
L 116.2081 68.844861 
L 116.28172 82.730436 
L 116.914847 280.238419 
L 116.966381 276.882966 
L 117.098896 244.365077 
L 117.540613 75.201126 
L 117.628956 65.871329 
L 117.68049 67.835497 
L 117.746747 78.338338 
L 118.070673 212.038149 
L 118.387237 284.685077 
L 118.401961 284.876038 
L 118.431408 283.430192 
L 118.534476 263.242912 
L 119.101346 65.162046 
L 119.219137 75.392087 
L 119.417909 157.341532 
L 119.734473 266.380124 
L 119.87435 286.212763 
L 119.91116 284.030355 
L 120.036313 254.595118 
L 120.595821 61.615632 
L 120.603183 61.697472 
L 120.654717 63.66164 
L 120.728336 80.657147 
L 121.34674 286.676525 
L 121.398273 282.529949 
L 121.530788 246.602046 
L 122.016677 62.079394 
L 122.075573 58.66938 
L 122.134468 61.07003 
L 122.21545 82.703156 
L 122.819129 289.159015 
L 122.848577 287.98597 
L 122.944282 269.871978 
L 123.246122 150.848866 
L 123.555324 56.07777 
L 123.621582 59.815145 
L 123.739373 101.962912 
L 124.232623 286.349164 
L 124.298881 291.532384 
L 124.343053 288.176931 
L 124.48293 247.911491 
L 124.968818 56.486972 
L 125.01299 53.568 
L 125.079247 56.432411 
L 125.152867 74.928325 
L 125.771271 292.97823 
L 125.778632 292.89639 
L 125.830166 287.631329 
L 125.970043 243.437553 
L 126.330779 91.705591 
L 126.478018 53.786241 
L 126.522189 55.013846 
L 126.595809 64.916525 
L 126.794581 158.405456 
L 127.111145 272.054387 
L 127.24366 295.351599 
L 127.287832 291.450544 
L 127.435071 247.66597 
L 127.832616 82.484915 
L 127.972493 54.741045 
L 128.009303 55.96865 
L 128.082922 70.181586 
L 128.71605 294.778717 
L 128.804393 283.457472 
L 128.973718 211.274306 
L 129.378625 60.033386 
L 129.430159 55.641288 
L 129.496416 57.932817 
L 129.577398 79.920585 
L 130.195801 295.488 
L 130.225249 293.851194 
L 130.335678 266.216444 
L 130.725862 107.691735 
L 130.90991 54.550084 
L 130.939358 55.286647 
L 130.998254 62.925077 
L 131.160216 126.62413 
L 131.601933 285.585321 
L 131.675553 292.814549 
L 131.727086 288.367892 
L 131.874325 240.00026 
L 132.293956 68.7903 
L 132.389662 55.259367 
L 132.441195 57.714576 
L 132.529539 82.075713 
L 133.147942 292.623589 
L 133.170028 291.832465 
L 133.243648 277.237608 
L 133.641193 126.67869 
L 133.862051 55.614008 
L 133.898861 57.087134 
L 133.965119 66.853413 
L 134.178615 160.942506 
L 134.517265 275.24616 
L 134.627694 289.595497 
L 134.671866 286.349164 
L 134.797019 252.521829 
L 135.349165 55.450327 
L 135.385975 57.469055 
L 135.48168 83.303318 
L 136.092722 289.104455 
L 136.100084 289.159015 
L 136.114807 288.777093 
L 136.181065 279.038095 
L 136.343028 212.692871 
L 136.755297 61.806593 
L 136.821554 55.914089 
L 136.873088 58.805781 
L 136.968793 87.313494 
L 137.550387 288.258771 
L 137.579835 288.968054 
L 137.616645 286.676525 
L 137.727074 259.041775 
L 138.27922 56.268731 
L 138.330754 58.61482 
L 138.404373 72.445835 
L 139.044863 289.595497 
L 139.103758 285.31252 
L 139.236273 245.647242 
L 139.67799 67.890057 
L 139.758972 56.923453 
L 139.810505 59.815145 
L 139.898849 78.85666 
L 140.531976 288.422452 
L 140.576148 285.094279 
L 140.701301 250.694062 
L 141.209275 57.796417 
L 141.231361 57.059854 
L 141.282895 59.787865 
L 141.371238 77.874576 
L 141.997004 288.531572 
L 142.041176 285.203399 
L 142.173691 249.630138 
L 142.615408 71.545591 
L 142.703751 57.168974 
L 142.755285 60.333467 
L 142.843628 77.820016 
L 143.469394 290.168379 
L 143.476755 290.059258 
L 143.528289 284.766917 
L 143.660804 242.837391 
L 143.962644 127.606214 
L 144.176141 59.187702 
L 144.21295 60.742668 
L 144.316018 78.092817 
L 144.934421 287.98597 
L 144.949145 287.82229 
L 145.008041 282.420828 
L 145.11847 250.257581 
L 145.567549 69.608704 
L 145.64853 58.6421 
L 145.707426 61.506512 
L 145.788407 78.474739 
L 146.414173 288.968054 
L 146.421535 288.940774 
L 146.465706 285.858122 
L 146.583498 254.922479 
L 147.054662 69.035821 
L 147.128282 59.787865 
L 147.187177 62.979637 
L 147.268159 79.374982 
L 147.886562 287.631329 
L 147.908648 287.194847 
L 147.982268 278.056011 
L 148.092697 235.853683 
L 148.423985 106.846051 
L 148.593309 59.678744 
L 148.622757 60.769949 
L 148.725824 75.201126 
L 149.373676 289.159015 
L 149.462019 278.192411 
L 149.572448 232.961992 
L 149.889012 112.956796 
L 150.073061 61.01547 
L 150.102509 61.833873 
L 150.198214 73.373359 
L 150.389625 157.778014 
L 150.742998 276.446484 
L 150.838703 287.385808 
L 150.890237 284.575957 
L 150.993304 258.932655 
L 151.552812 61.779313 
L 151.560174 61.915713 
L 151.65588 70.127026 
L 151.758947 107.882696 
L 152.266921 284.766917 
L 152.318455 287.95869 
L 152.369989 284.303156 
L 152.48778 249.493737 
L 152.900049 88.295578 
L 153.025202 62.597716 
L 153.069374 64.616444 
L 153.157717 76.21049 
L 153.790845 285.257959 
L 153.88655 276.119123 
L 154.004341 229.333737 
L 154.394524 80.302506 
L 154.497592 62.106674 
L 154.549125 64.589164 
L 154.637469 80.247946 
L 155.270596 285.912682 
L 155.32213 282.639069 
L 155.425197 256.695686 
L 155.940533 65.462127 
L 155.977343 62.843237 
L 156.043601 65.844049 
L 156.11722 79.647783 
L 156.742986 286.894766 
L 156.75771 286.731085 
L 156.809243 281.711545 
L 156.934396 240.02754 
L 157.28777 105.127405 
L 157.457095 63.279719 
L 157.493904 64.425483 
L 157.574886 74.519123 
L 157.81783 180.556904 
L 158.215375 288.01325 
L 158.230099 287.795009 
L 158.288995 281.111383 
L 158.406786 241.064184 
L 158.782245 98.252817 
L 158.936846 63.306999 
L 158.973656 64.316363 
L 159.054637 73.864401 
L 159.415373 220.685943 
L 159.680403 287.795009 
L 159.717213 286.321884 
L 159.82028 266.925727 
L 160.409236 63.361559 
L 160.519665 72.500395 
L 160.674266 137.836254 
L 161.057087 271.454225 
L 161.167517 285.39436 
L 161.211688 283.457472 
L 161.307394 264.497797 
L 161.874264 60.633548 
L 161.984693 70.127026 
L 162.117208 123.814279 
L 162.544201 273.009191 
L 162.639906 285.42164 
L 162.69144 282.448108 
L 162.801869 257.65049 
L 163.354015 63.034198 
L 163.361377 63.061478 
L 163.420273 66.28053 
L 163.508616 86.849732 
L 164.104934 284.903318 
L 164.112296 285.012438 
L 164.141744 284.084915 
L 164.237449 269.108135 
L 164.539289 159.251139 
L 164.833767 62.925077 
L 164.907386 67.399015 
L 164.99573 92.905916 
L 165.555238 283.730273 
L 165.592047 285.858122 
L 165.643581 282.229867 
L 165.761372 252.221748 
L 166.291432 63.7162 
L 166.313518 63.306999 
L 166.35769 64.889245 
L 166.431309 78.77482 
L 167.071799 284.330436 
L 167.160142 274.373196 
L 167.270571 232.961992 
L 167.565049 129.679502 
L 167.79327 63.252438 
L 167.815356 63.60708 
L 167.874251 70.890869 
L 168.036214 134.971843 
L 168.389588 255.440801 
L 168.536827 282.611789 
L 168.580998 280.047459 
L 168.698789 253.940395 
L 169.258297 64.725564 
L 169.265659 64.643724 
L 169.295107 65.380287 
L 169.361365 73.346078 
L 169.538051 147.520693 
L 169.854615 252.68551 
L 170.001854 282.475388 
L 170.046026 280.211139 
L 170.163817 256.995767 
L 170.745411 66.853413 
L 170.760135 67.098934 
L 170.826392 73.509759 
L 170.936822 112.956796 
L 171.452158 281.029543 
L 171.49633 283.239231 
L 171.540501 279.938338 
L 171.650931 251.294225 
L 172.122095 79.293142 
L 172.217801 68.408379 
L 172.261972 70.454387 
L 172.357678 90.996309 
L 172.953995 280.37482 
L 172.961357 280.45666 
L 172.983443 279.829218 
L 173.071786 266.598365 
L 173.174854 224.368758 
L 173.572399 86.795172 
L 173.697552 68.217418 
L 173.727 69.226782 
L 173.807981 83.521559 
L 174.441109 278.956254 
L 174.463195 278.465212 
L 174.544176 267.362208 
L 174.647243 227.287729 
L 174.949083 131.016227 
L 175.169942 71.24551 
L 175.184666 71.463751 
L 175.243561 75.746728 
L 175.346628 107.528054 
L 175.884051 279.310896 
L 175.906136 279.911058 
L 175.950308 277.592249 
L 176.075461 247.938771 
L 176.568712 77.410815 
L 176.642331 72.063913 
L 176.701227 73.80984 
L 176.760122 84.994685 
L 177.39325 276.964806 
L 177.407974 276.692005 
L 177.474231 269.926539 
L 177.569937 240.791383 
L 177.8865 137.045131 
L 178.107359 70.208866 
L 178.136807 71.10911 
L 178.217788 81.093629 
L 178.644781 230.561342 
L 178.86564 275.737202 
L 178.895087 274.536877 
L 178.998155 257.377689 
L 179.572387 71.354631 
L 179.69754 82.130273 
L 180.345391 276.091843 
L 180.448458 265.1798 
L 180.573612 216.975848 
L 181.052138 72.636796 
L 181.066862 72.964157 
L 181.155205 81.039069 
L 181.339254 147.766214 
L 181.722075 264.552357 
L 181.825143 275.709922 
L 181.869314 273.854874 
L 181.957658 257.950571 
L 182.524528 72.745916 
L 182.568699 74.191762 
L 182.634957 82.539475 
L 182.855815 165.525564 
L 183.260723 274.073115 
L 183.29017 274.973359 
L 183.341704 272.572709 
L 183.444771 251.730706 
L 184.011641 72.964157 
L 184.048451 73.78256 
L 184.114709 81.775632 
L 184.284033 145.583805 
L 184.659493 262.233548 
L 184.76256 273.882154 
L 184.814094 271.345104 
L 184.924523 248.648054 
L 185.454583 74.000801 
L 185.491393 73.018717 
L 185.535564 74.628244 
L 185.623908 93.642479 
L 186.23495 274.373196 
L 186.264397 273.445673 
L 186.360103 259.887459 
L 186.603047 179.956742 
L 186.978506 74.109922 
L 187.052126 80.629867 
L 187.199365 132.598474 
L 187.604272 261.142344 
L 187.714701 272.90007 
L 187.758873 270.935903 
L 187.854578 253.885835 
L 188.443534 73.291518 
L 188.495068 76.565131 
L 188.590773 101.635551 
L 189.120833 268.808054 
L 189.187091 272.87279 
L 189.238624 270.444861 
L 189.33433 251.457905 
L 189.908562 75.037445 
L 189.923286 74.791924 
L 189.960095 76.074089 
L 190.041077 92.496714 
L 190.652118 272.87279 
L 190.674204 272.436309 
L 190.755186 263.815794 
L 190.850891 232.880152 
L 191.241074 98.85298 
L 191.380951 76.947053 
L 191.410399 77.410815 
L 191.476657 84.476363 
L 191.631257 141.109867 
L 191.991993 249.357337 
L 192.139232 273.745754 
L 192.176042 272.76367 
L 192.249661 261.251464 
L 192.853341 76.837932 
L 192.956408 86.33141 
L 193.147819 160.424184 
L 193.501192 257.841451 
L 193.618983 272.572709 
L 193.655793 270.826782 
L 193.751498 253.176552 
L 194.333092 75.010165 
L 194.340454 75.092005 
L 194.384626 78.502019 
L 194.495055 107.664455 
L 195.00303 265.097959 
L 195.091373 271.863426 
L 195.135545 269.871978 
L 195.23125 249.111816 
L 195.76131 78.256498 
L 195.805482 75.692168 
L 195.857016 78.529299 
L 195.945359 97.870896 
L 196.497505 269.080855 
L 196.563763 272.599989 
L 196.607934 270.144779 
L 196.718364 244.692438 
L 197.182166 86.877012 
L 197.277872 75.310246 
L 197.329405 77.492655 
L 197.410387 94.269922 
L 198.014066 271.590625 
L 198.036152 271.890706 
L 198.072962 270.553981 
L 198.161305 256.395605 
L 198.750261 74.355442 
L 198.853328 86.140449 
L 199.000567 141.273548 
L 199.361303 249.821099 
L 199.508542 274.673277 
L 199.545352 272.84551 
L 199.648419 251.921667 
L 200.207927 75.419367 
L 200.230013 75.010165 
L 200.266822 76.401451 
L 200.355166 92.305754 
L 200.966208 274.318636 
L 200.995655 273.363832 
L 201.091361 259.751058 
L 201.407924 161.542668 
L 201.702402 75.146566 
L 201.761298 78.85666 
L 201.849641 100.135145 
L 202.431235 273.800314 
L 202.453321 274.182235 
L 202.490131 272.381748 
L 202.593198 252.54911 
L 203.174792 74.955605 
L 203.248411 80.520747 
L 203.336755 104.881884 
L 203.874177 270.090219 
L 203.925711 272.954631 
L 203.977244 269.953819 
L 204.095035 243.192032 
L 204.580924 78.938501 
L 204.63982 74.873765 
L 204.691353 77.738176 
L 204.787059 96.37049 
L 205.353929 271.017743 
L 205.405462 273.500233 
L 205.449634 270.990463 
L 205.567425 244.474198 
L 206.03859 83.276038 
L 206.119571 74.982885 
L 206.171105 77.874576 
L 206.274172 99.671383 
L 206.841042 273.254712 
L 206.87049 274.291356 
L 206.922023 271.727026 
L 207.039815 245.920043 
L 207.569875 76.456011 
L 207.591961 75.992249 
L 207.636132 77.765456 
L 207.731838 93.642479 
L 208.342879 275.164319 
L 208.357603 274.918798 
L 208.431223 268.016931 
L 208.541652 233.453034 
L 208.850854 135.544725 
L 209.071712 74.791924 
L 209.093798 75.528487 
L 209.182142 86.549651 
L 209.623858 233.698555 
L 209.815269 275.982723 
L 209.852079 274.209516 
L 209.977232 251.075984 
L 210.544102 75.310246 
L 210.617721 78.447459 
L 210.706065 100.817147 
L 211.295021 275.24616 
L 211.309744 274.946078 
L 211.376002 267.79869 
L 211.508517 228.460774 
L 211.928148 84.749164 
L 212.016491 74.573683 
L 212.068025 76.537851 
L 212.141645 89.223101 
L 212.782134 274.645997 
L 212.848392 268.917175 
L 212.966183 238.772655 
L 213.452071 76.34689 
L 213.488881 74.328162 
L 213.555139 77.138014 
L 213.643482 95.470246 
L 214.254524 274.373196 
L 214.306057 271.208704 
L 214.43121 243.437553 
L 214.968633 72.227594 
L 214.99808 72.882317 
L 215.0717 81.557391 
L 215.241025 140.591545 
L 215.60176 253.531194 
L 215.726913 273.118311 
L 215.778447 271.208704 
L 215.888876 249.657418 
L 216.448384 71.982073 
L 216.536728 77.765456 
L 216.639795 106.38229 
L 217.206665 275.21888 
L 217.221389 275.000639 
L 217.287646 267.225808 
L 217.442247 219.97666 
L 217.861878 78.611139 
L 217.928136 72.336714 
L 217.987031 75.910409 
L 218.104822 100.653467 
L 218.686416 273.418392 
L 218.708502 273.036471 
L 218.782122 264.906999 
L 218.914637 223.032032 
L 219.312182 84.967405 
L 219.407887 72.964157 
L 219.459421 75.419367 
L 219.562488 94.542723 
L 220.17353 273.363832 
L 220.195616 272.572709 
L 220.291321 258.196092 
L 220.409112 214.220558 
L 220.872915 73.291518 
L 220.887639 73.400639 
L 220.975982 79.429543 
L 221.079049 109.546782 
L 221.587024 270.499421 
L 221.645919 273.773034 
L 221.697453 271.154143 
L 221.815244 246.329245 
L 222.352667 73.728 
L 222.36739 73.482479 
L 222.411562 74.737364 
L 222.485182 84.858284 
L 222.70604 174.282479 
L 223.081499 273.391112 
L 223.125671 275.682641 
L 223.177205 272.381748 
L 223.302358 242.728271 
L 223.758799 82.484915 
L 223.83978 74.464563 
L 223.891314 76.510571 
L 223.972295 88.541099 
L 224.605423 273.991275 
L 224.664318 269.517337 
L 224.789471 236.999448 
L 225.23855 82.975957 
L 225.326893 73.482479 
L 225.378427 76.18321 
L 225.466771 92.305754 
L 226.077812 273.609353 
L 226.085174 273.527513 
L 226.136708 269.244536 
L 226.269223 235.799123 
L 226.67413 94.979204 
L 226.799283 75.855848 
L 226.843455 76.728812 
L 226.909712 84.503643 
L 227.071675 145.802046 
L 227.402963 249.330057 
L 227.550202 274.482317 
L 227.594373 272.081667 
L 227.73425 240.573142 
L 228.227501 76.865212 
L 228.271673 74.082641 
L 228.330568 76.783372 
L 228.418912 92.496714 
L 229.029953 273.418392 
L 229.044677 273.309272 
L 229.096211 268.317012 
L 229.24345 226.660287 
L 229.707253 75.664888 
L 229.758786 72.745916 
L 229.81032 75.692168 
L 229.898663 93.751599 
L 230.509705 273.963995 
L 230.517067 273.882154 
L 230.5686 269.053575 
L 230.723201 225.978284 
L 231.179642 76.646972 
L 231.231176 74.164482 
L 231.282709 76.565131 
L 231.378415 94.242641 
L 231.982095 274.618717 
L 232.011542 273.363832 
L 232.129333 251.457905 
L 232.519517 118.9857 
L 232.710927 73.80984 
L 232.725651 74.109922 
L 232.799271 81.420991 
L 232.94651 129.843183 
L 233.395589 268.289732 
L 233.461846 273.391112 
L 233.51338 270.035659 
L 233.660619 234.271437 
L 234.124421 78.69298 
L 234.175955 74.791924 
L 234.234851 77.138014 
L 234.315832 91.40551 
L 234.941598 273.718474 
L 235.022579 264.661478 
L 235.199266 209.9103 
L 235.655707 74.000801 
L 235.70724 76.31961 
L 235.795584 91.896552 
L 236.421349 271.808866 
L 236.458159 269.844698 
L 236.598036 242.209949 
L 237.128096 74.000801 
L 237.17963 76.619691 
L 237.275335 92.578555 
L 237.893739 272.354468 
L 237.93791 269.681018 
L 238.085149 238.090652 
L 238.600486 74.219042 
L 238.622572 75.064725 
L 238.747725 90.396146 
L 239.37349 271.727026 
L 239.454472 263.897635 
L 239.623797 214.466078 
L 240.080237 73.427919 
L 240.131771 76.374171 
L 240.234838 93.615199 
L 240.853242 271.072303 
L 240.88269 269.626457 
L 241.029929 242.128108 
L 241.559989 73.264238 
L 241.596799 75.037445 
L 241.699866 91.023589 
L 242.325631 271.072303 
L 242.391889 266.298284 
L 242.531766 232.361829 
L 242.995569 76.31961 
L 243.032378 74.191762 
L 243.091274 77.438095 
L 243.179617 92.687675 
L 243.805383 272.436309 
L 243.842193 270.444861 
L 243.98207 243.001072 
L 244.504768 73.427919 
L 244.54894 75.446647 
L 244.652007 91.732871 
L 245.285135 272.954631 
L 245.336668 268.371572 
L 245.483907 229.96118 
L 245.925624 81.25731 
L 245.98452 74.819204 
L 246.050777 77.492655 
L 246.131759 90.423426 
L 246.750162 272.190788 
L 246.786972 270.417581 
L 246.934211 240.218501 
L 247.464271 73.78256 
L 247.486357 74.600963 
L 247.589424 85.785808 
L 247.795559 167.762533 
L 248.185742 270.581261 
L 248.222552 272.354468 
L 248.274085 269.244536 
L 248.421324 235.444482 
L 248.914575 74.573683 
L 248.936661 73.891681 
L 248.988194 76.401451 
L 249.069176 88.404698 
L 249.702303 270.963183 
L 249.783285 262.424509 
L 249.937886 217.821532 
L 250.386965 75.583047 
L 250.40905 74.846484 
L 250.460584 77.274414 
L 250.548927 90.314306 
L 251.174693 269.462777 
L 251.218865 267.362208 
L 251.35138 242.346349 
L 251.888802 75.883129 
L 251.955059 78.911221 
L 252.021317 89.495903 
L 252.647083 270.062939 
L 252.71334 264.525077 
L 252.875303 222.104509 
L 253.287572 87.231654 
L 253.368553 77.656336 
L 253.427449 79.184022 
L 253.478983 84.858284 
L 253.655669 150.985267 
L 254.009043 255.004319 
L 254.126834 269.108135 
L 254.163644 267.77141 
L 254.288797 246.383805 
L 254.671618 117.458014 
L 254.840943 77.929137 
L 254.870391 78.638419 
L 254.94401 84.967405 
L 255.069163 126.160368 
L 255.481433 252.030788 
L 255.606586 268.644373 
L 255.643395 267.116687 
L 255.761187 246.711166 
L 256.313333 78.447459 
L 256.438486 87.586295 
L 256.585725 143.046755 
L 256.94646 250.0939 
L 257.086337 269.053575 
L 257.115785 268.207892 
L 257.21149 253.258392 
L 257.373453 196.788568 
L 257.690017 95.415686 
L 257.793084 80.193386 
L 257.844618 81.448271 
L 257.903513 86.004049 
L 258.028667 128.915659 
L 258.45566 259.778338 
L 258.558727 270.062939 
L 258.602899 267.607729 
L 258.735414 240.273061 
L 259.228664 81.993873 
L 259.265474 80.220666 
L 259.331731 81.993873 
L 259.383265 87.340774 
L 259.545228 146.83869 
L 259.905963 252.57639 
L 260.038478 269.544617 
L 260.067926 268.289732 
L 260.185717 248.293413 
L 260.745225 78.74754 
L 260.870379 87.831816 
L 261.054427 160.806106 
L 261.400439 255.768162 
L 261.510868 267.71685 
L 261.55504 265.534441 
L 261.687555 238.472574 
L 262.202891 80.329786 
L 262.232339 79.484103 
L 262.291234 81.17547 
L 262.364854 92.714955 
L 262.997981 268.453413 
L 263.034791 266.352844 
L 263.159944 240.654982 
L 263.660557 82.675876 
L 263.704728 80.984509 
L 263.763624 82.539475 
L 263.829882 92.387594 
L 264.477733 268.589813 
L 264.543991 262.888271 
L 264.647058 234.462398 
L 265.022517 111.865591 
L 265.177118 80.575307 
L 265.206566 81.066349 
L 265.272823 86.167729 
L 265.397977 126.105808 
L 265.869141 263.215632 
L 265.942761 268.617093 
L 265.994294 265.12524 
L 266.134171 229.98846 
L 266.531717 100.844428 
L 266.65687 80.357066 
L 266.701041 81.23003 
L 266.759937 86.849732 
L 266.892452 133.416877 
L 267.304721 255.768162 
L 267.422512 267.444049 
L 267.459322 265.479881 
L 267.591837 238.718095 
L 268.099811 82.648595 
L 268.143983 81.23003 
L 268.195517 83.357878 
L 268.269136 96.261369 
L 268.902264 266.652926 
L 268.916988 266.271004 
L 268.997969 255.768162 
L 269.123122 215.611843 
L 269.601649 80.711708 
L 269.616373 80.684428 
L 269.638459 80.902668 
L 269.689992 82.894116 
L 269.770974 103.87252 
L 270.28631 260.569461 
L 270.374653 267.389488 
L 270.418825 264.170436 
L 270.558702 232.55279 
L 271.022505 84.940124 
L 271.074038 80.766268 
L 271.140296 82.348514 
L 271.206554 90.559827 
L 271.677718 239.345537 
L 271.854405 266.789326 
L 271.876491 266.025483 
L 271.98692 249.821099 
L 272.332932 142.801234 
L 272.546428 79.975145 
L 272.583238 80.929949 
L 272.664219 87.777256 
L 272.789372 130.115984 
L 273.223727 257.050327 
L 273.326795 267.68957 
L 273.370966 265.37076 
L 273.481395 244.201396 
L 274.018818 80.575307 
L 274.055627 81.33915 
L 274.143971 87.940936 
L 274.261762 126.815091 
L 274.740289 263.270192 
L 274.806546 266.352844 
L 274.850718 264.006755 
L 274.968509 241.146024 
L 275.505931 79.756904 
L 275.513293 79.866024 
L 275.601636 84.176281 
L 275.697342 111.53823 
L 276.212678 264.552357 
L 276.278936 268.835334 
L 276.330469 265.752682 
L 276.448261 239.836579 
L 276.978321 80.902668 
L 276.985683 80.848108 
L 277.007769 81.25731 
L 277.08875 87.040693 
L 277.228627 130.525185 
L 277.670344 260.378501 
L 277.766049 267.553169 
L 277.810221 265.26164 
L 277.913288 245.292601 
L 278.458072 80.056985 
L 278.465434 79.975145 
L 278.502244 80.575307 
L 278.575863 86.713332 
L 278.730464 141.546349 
L 279.113286 254.158636 
L 279.223715 265.043399 
L 279.267887 263.433873 
L 279.385678 246.111004 
L 279.945186 78.638419 
L 280.055615 87.149813 
L 280.22494 150.112303 
L 280.585675 251.839827 
L 280.71819 266.925727 
L 280.755 265.425321 
L 280.865429 248.620774 
L 281.417575 80.438907 
L 281.483833 81.802912 
L 281.542729 90.068785 
L 281.918188 212.583751 
L 282.19058 269.108135 
L 282.22739 267.334928 
L 282.352543 244.556038 
L 282.889965 80.302506 
L 282.941499 81.25731 
L 283.000394 85.785808 
L 283.140271 132.161992 
L 283.545178 253.040152 
L 283.670332 269.517337 
L 283.714503 267.171248 
L 283.824932 247.938771 
L 284.369717 78.502019 
L 284.443336 80.766268 
L 284.516956 93.96984 
L 285.150083 267.334928 
L 285.186893 266.134604 
L 285.275236 253.913115 
L 285.62861 140.100503 
L 285.871554 76.074089 
L 285.878916 76.12865 
L 285.923088 78.038257 
L 286.004069 95.824888 
L 286.600387 269.162696 
L 286.622473 269.735578 
L 286.666644 267.171248 
L 286.791797 242.073548 
L 287.321858 77.083453 
L 287.336582 77.001613 
L 287.373391 77.574495 
L 287.432287 81.748352 
L 287.55744 124.932763 
L 287.962347 253.285673 
L 288.102224 270.635821 
L 288.131672 269.217256 
L 288.256825 248.129732 
L 288.808971 77.138014 
L 288.823695 77.356254 
L 288.904677 82.484915 
L 289.000382 113.011356 
L 289.48627 263.924915 
L 289.567252 271.290544 
L 289.618786 268.562533 
L 289.743939 243.028352 
L 290.229827 80.466187 
L 290.281361 77.547215 
L 290.340256 79.456823 
L 290.406514 88.241018 
L 291.039641 270.608541 
L 291.127985 263.924915 
L 291.231052 236.644806 
L 291.680131 84.885564 
L 291.761112 77.247134 
L 291.820008 78.6657 
L 291.886265 89.550463 
L 292.519393 270.090219 
L 292.563565 267.607729 
L 292.688718 243.192032 
L 293.218778 76.401451 
L 293.22614 76.374171 
L 293.240864 76.592411 
L 293.307121 80.002425 
L 293.395465 102.699475 
L 293.962335 268.317012 
L 293.999145 269.871978 
L 294.050678 266.898447 
L 294.168469 243.273873 
L 294.705892 75.583047 
L 294.742701 76.592411 
L 294.816321 85.131085 
L 295.213866 216.812168 
L 295.464172 270.499421 
L 295.49362 269.353656 
L 295.611411 251.839827 
L 295.972147 132.216552 
L 296.193005 76.29233 
L 296.200367 76.34689 
L 296.251901 78.556579 
L 296.332882 96.206809 
L 296.921838 269.299096 
L 296.943924 269.899258 
L 296.988095 267.553169 
L 297.113249 243.437553 
L 297.658033 77.356254 
L 297.687481 77.847296 
L 297.746376 81.148189 
L 297.842081 108.837499 
L 298.357418 267.116687 
L 298.416313 271.699746 
L 298.467847 268.016931 
L 298.615086 233.316633 
L 299.093613 79.265862 
L 299.137784 77.656336 
L 299.19668 79.293142 
L 299.255575 87.940936 
L 299.903427 270.772222 
L 299.999132 261.278744 
L 300.116923 225.869164 
L 300.602812 77.192574 
L 300.617536 77.438095 
L 300.713241 84.776444 
L 300.867842 138.600097 
L 301.265387 257.350409 
L 301.375816 270.17206 
L 301.419988 267.444049 
L 301.530417 248.729894 
L 302.082563 77.083453 
L 302.170907 81.39371 
L 302.281336 112.465754 
L 302.78931 265.561721 
L 302.855568 270.472141 
L 302.907102 267.007567 
L 303.024893 244.474198 
L 303.569677 77.028893 
L 303.672744 85.840368 
L 303.871517 156.93233 
L 304.254338 264.170436 
L 304.33532 271.399664 
L 304.386853 267.307648 
L 304.548816 227.178609 
L 305.049429 76.674252 
L 305.078876 77.165294 
L 305.13041 81.17547 
L 305.255563 117.812655 
L 305.763537 268.862614 
L 305.807709 271.345104 
L 305.859243 268.262452 
L 305.99912 238.063372 
L 306.521818 75.473927 
L 306.551266 75.992249 
L 306.617523 81.611951 
L 306.7574 128.997499 
L 307.16967 256.586566 
L 307.287461 271.017743 
L 307.331632 268.753494 
L 307.456786 244.828839 
L 307.994208 74.410003 
L 308.053103 76.837932 
L 308.126723 88.677499 
L 308.767212 271.454225 
L 308.848194 263.924915 
L 308.965985 231.788947 
L 309.43715 74.300882 
L 309.459235 73.61888 
L 309.518131 75.855848 
L 309.59175 84.203562 
L 309.775799 156.495848 
L 310.15862 263.788514 
L 310.23224 269.462777 
L 310.283774 266.734766 
L 310.408927 245.04708 
L 310.946349 72.882317 
L 311.005244 75.473927 
L 311.093588 91.48735 
L 311.70463 269.244536 
L 311.726715 268.671654 
L 311.837145 257.132168 
L 312.028555 194.66072 
L 312.4261 73.78256 
L 312.53653 83.985321 
L 312.676407 135.926647 
L 313.051866 253.940395 
L 313.177019 271.154143 
L 313.221191 269.353656 
L 313.346344 249.029976 
L 313.89849 74.819204 
L 313.986833 79.565943 
L 314.089901 108.782939 
L 314.583151 265.589001 
L 314.664133 272.599989 
L 314.708304 269.380936 
L 314.855543 237.135848 
L 315.363518 74.137202 
L 315.378242 73.864401 
L 315.422413 75.446647 
L 315.496033 84.530923 
L 316.143884 272.354468 
L 316.224866 263.379313 
L 316.372105 221.367946 
L 316.828545 75.173846 
L 316.865355 74.219042 
L 316.924251 75.610327 
L 316.990508 88.704779 
L 317.616274 272.87279 
L 317.645722 271.126863 
L 317.792961 242.100828 
L 318.330383 75.555767 
L 318.337745 75.528487 
L 318.374554 75.774008 
L 318.418726 78.77482 
L 318.514431 106.54597 
L 319.007682 265.097959 
L 319.088663 272.87279 
L 319.140197 269.653737 
L 319.26535 244.010436 
L 319.810134 74.437283 
L 319.854306 74.819204 
L 319.898478 78.147378 
L 320.008907 113.93888 
L 320.502157 266.434685 
L 320.575777 272.136227 
L 320.619949 269.189976 
L 320.745102 243.110192 
L 321.282524 72.936877 
L 321.326696 74.055361 
L 321.392953 81.721072 
L 321.56964 150.876146 
L 321.930375 256.832087 
L 322.055528 271.972547 
L 322.092338 269.817418 
L 322.224853 242.810111 
L 322.732828 72.991437 
L 322.747552 72.800476 
L 322.791723 73.946241 
L 322.857981 80.357066 
L 323.00522 133.880639 
L 323.395403 255.168 
L 323.527918 273.336552 
L 323.564728 271.317824 
L 323.689881 245.319881 
L 324.197855 74.600963 
L 324.227303 73.209678 
L 324.286199 75.337526 
L 324.359818 87.095253 
L 325.000308 271.999827 
L 325.037117 270.472141 
L 325.154909 249.521018 
L 325.707055 73.073277 
L 325.736502 74.000801 
L 325.832208 86.904292 
L 326.273925 236.208325 
L 326.465335 272.490869 
L 326.494783 271.754306 
L 326.59785 257.023047 
L 326.892328 165.471004 
L 327.186806 75.092005 
L 327.27515 81.093629 
L 327.378217 111.838311 
L 327.893553 269.571897 
L 327.937725 271.945267 
L 327.989259 268.535253 
L 328.136498 237.381369 
L 328.659196 74.246322 
L 328.718091 76.592411 
L 328.791711 90.041505 
L 329.410115 271.672465 
L 329.461648 268.698934 
L 329.608887 238.363453 
L 330.138947 73.482479 
L 330.168395 74.191762 
L 330.242015 82.102993 
L 330.418701 147.084211 
L 330.786799 257.514089 
L 330.897228 271.672465 
L 330.9414 269.271816 
L 331.088639 239.154576 
L 331.611337 74.982885 
L 331.677595 78.283778 
L 331.780662 102.453954 
L 332.37698 271.399664 
L 332.421151 269.380936 
L 332.546304 245.865483 
L 333.113174 75.119286 
L 333.186794 81.912032 
L 333.356119 137.972655 
L 333.768388 260.13298 
L 333.864093 269.408217 
L 333.908265 266.843886 
L 334.04078 241.064184 
L 334.585564 76.18321 
L 334.666545 82.130273 
L 334.791699 119.449461 
L 335.262863 262.970111 
L 335.343845 270.33574 
L 335.395378 266.843886 
L 335.520531 240.218501 
L 336.072677 76.101369 
L 336.109487 77.028893 
L 336.175745 87.204373 
L 336.823596 271.645185 
L 336.91194 263.133792 
L 337.037093 227.50597 
L 337.545067 74.928325 
L 337.552429 74.955605 
L 337.603963 76.756092 
L 337.684944 95.770327 
L 338.303348 272.87279 
L 338.325434 272.299908 
L 338.421139 259.287296 
L 338.641997 188.359015 
L 338.995371 72.445835 
L 339.113162 81.31187 
L 339.304573 151.994631 
L 339.702118 265.998203 
L 339.783099 273.882154 
L 339.834633 270.553981 
L 339.959786 241.336985 
L 340.489846 71.791112 
L 340.526656 72.800476 
L 340.607637 83.112357 
L 341.262851 273.854874 
L 341.33647 265.834522 
L 341.454261 235.253521 
L 341.969598 71.354631 
L 342.028493 73.209678 
L 342.094751 85.567567 
L 342.727878 274.836958 
L 342.749964 273.963995 
L 342.875117 255.304401 
L 343.449349 69.990625 
L 343.545055 78.72026 
L 343.699656 135.353765 
L 344.126649 268.262452 
L 344.20763 276.146403 
L 344.259164 272.654549 
L 344.376955 248.184292 
L 344.921739 69.690544 
L 344.943825 70.263426 
L 345.032168 81.20275 
L 345.311922 188.168054 
L 345.68002 275.900882 
L 345.687382 275.846322 
L 345.738915 271.454225 
L 345.864068 242.864671 
L 346.394129 68.244698 
L 346.401491 68.299258 
L 346.453024 71.32735 
L 346.541368 92.414874 
L 347.100876 271.917986 
L 347.159771 276.282804 
L 347.211305 272.76367 
L 347.329096 247.55685 
L 347.866518 69.608704 
L 347.91069 70.645348 
L 347.976947 79.593223 
L 348.271425 190.568704 
L 348.632161 275.682641 
L 348.639523 275.600801 
L 348.720504 268.535253 
L 348.808848 247.365889 
L 349.331546 70.590788 
L 349.34627 70.454387 
L 349.375718 71.27279 
L 349.449337 80.438907 
L 349.640748 154.749922 
L 350.038293 270.635821 
L 350.10455 275.682641 
L 350.156084 272.81823 
L 350.266513 251.185104 
L 350.818659 68.872141 
L 350.840745 69.226782 
L 350.907003 75.337526 
L 351.032156 119.967783 
L 351.444425 253.940395 
L 351.591664 274.045835 
L 351.628474 271.945267 
L 351.753627 248.129732 
L 352.268963 70.427107 
L 352.298411 69.717824 
L 352.349945 71.954793 
L 352.423564 86.576931 
L 353.056692 275.191599 
L 353.071415 274.836958 
L 353.167121 263.624834 
L 353.284912 221.395226 
L 353.7708 70.127026 
L 353.785524 70.317986 
L 353.84442 74.082641 
L 353.947487 105.563886 
L 354.426014 261.442425 
L 354.536443 274.564157 
L 354.580615 272.218068 
L 354.683682 254.895199 
L 355.24319 71.027269 
L 355.302086 73.67344 
L 355.383067 91.023589 
L 355.994109 272.76367 
L 356.001471 272.79095 
L 356.016195 272.463589 
L 356.104538 264.088595 
L 356.222329 226.960368 
L 356.730304 71.436471 
L 356.781837 74.300882 
L 356.862819 92.796796 
L 357.437051 272.327188 
L 357.47386 273.882154 
L 357.518032 271.017743 
L 357.635823 250.912303 
L 358.210055 72.691356 
L 358.224779 72.664076 
L 358.239503 72.827756 
L 358.283675 75.910409 
L 358.401466 115.766647 
L 358.857907 264.279556 
L 358.953612 272.90007 
L 358.997784 269.844698 
L 359.137661 240.518582 
L 359.638273 74.191762 
L 359.660359 73.591599 
L 359.711893 75.583047 
L 359.792874 86.467811 
L 360.433363 276.037283 
L 360.499621 271.454225 
L 360.602688 245.483562 
L 361.103301 77.165294 
L 361.147472 75.064725 
L 361.206368 77.247134 
L 361.265264 86.004049 
L 361.905753 273.227432 
L 361.979373 268.780774 
L 362.060354 252.276309 
L 362.6125 75.146566 
L 362.641948 75.610327 
L 362.708205 79.456823 
L 362.811273 110.174225 
L 363.356057 272.163507 
L 363.385505 273.036471 
L 363.437038 270.526701 
L 363.532744 253.012871 
L 364.106976 74.491843 
L 364.136423 75.010165 
L 364.195319 78.82938 
L 364.31311 117.567134 
L 364.776913 264.606917 
L 364.865256 271.290544 
L 364.91679 268.671654 
L 365.019857 248.866295 
L 365.579365 74.082641 
L 365.586727 74.137202 
L 365.660347 77.738176 
L 365.741328 99.371302 
L 366.308198 270.3903 
L 366.345008 271.727026 
L 366.396541 269.299096 
L 366.477523 256.641126 
L 367.066479 72.200314 
L 367.162184 81.28459 
L 367.360957 157.559773 
L 367.773226 269.408217 
L 367.817397 271.945267 
L 367.876293 269.053575 
L 367.971998 252.68551 
L 368.54623 73.291518 
L 368.58304 74.055361 
L 368.641935 81.502831 
L 368.936413 186.503968 
L 369.297149 273.718474 
L 369.326597 272.572709 
L 369.422302 260.078419 
L 369.790399 135.026403 
L 370.025982 72.609516 
L 370.062791 73.564319 
L 370.136411 84.912844 
L 370.7769 273.936714 
L 370.872606 266.925727 
L 370.975673 234.135037 
L 371.498371 72.964157 
L 371.505733 72.936877 
L 371.520457 73.155118 
L 371.586715 78.85666 
L 371.71923 124.714522 
L 372.183032 268.589813 
L 372.24929 273.963995 
L 372.300824 271.181424 
L 372.403891 252.303589 
L 372.985485 72.118474 
L 373.000209 72.309434 
L 373.059104 76.21049 
L 373.15481 107.064292 
L 373.677508 271.126863 
L 373.729042 274.100395 
L 373.780575 271.263264 
L 373.868919 256.586566 
L 374.443151 73.127838 
L 374.509408 74.382723 
L 374.568304 85.240206 
L 375.201431 275.40984 
L 375.238241 273.909434 
L 375.34867 256.641126 
L 375.91554 72.582235 
L 375.98916 74.737364 
L 376.055417 89.004861 
L 376.666459 274.427756 
L 376.681183 274.673277 
L 376.717992 273.118311 
L 376.828422 255.659042 
L 377.395292 71.681992 
L 377.490997 77.901857 
L 377.608788 119.585862 
L 378.072591 266.189164 
L 378.153572 274.127675 
L 378.205106 271.154143 
L 378.315535 251.130544 
L 378.882405 72.009353 
L 378.904491 72.391275 
L 378.956025 75.828568 
L 379.05173 105.700287 
L 379.603876 274.127675 
L 379.625962 274.755118 
L 379.670134 272.545429 
L 379.795287 250.284861 
L 380.347433 72.691356 
L 380.376881 73.073277 
L 380.435776 77.356254 
L 380.546205 114.15712 
L 381.076266 273.909434 
L 381.105713 274.645997 
L 381.149885 272.463589 
L 381.260314 253.203832 
L 381.834546 73.291518 
L 381.863994 73.61888 
L 381.908166 76.701532 
L 382.018595 112.274793 
L 382.519207 270.3903 
L 382.578103 275.518961 
L 382.636999 272.081667 
L 382.747428 248.811735 
L 383.299574 73.67344 
L 383.306936 73.70072 
L 383.343746 74.219042 
L 383.395279 79.456823 
L 383.571966 144.3562 
L 383.962149 263.515713 
L 384.057855 275.082479 
L 384.109388 271.890706 
L 384.227179 247.174928 
L 384.771964 73.427919 
L 384.779326 73.400639 
L 384.801411 73.70072 
L 384.860307 78.120097 
L 384.978098 115.930327 
L 385.463987 268.289732 
L 385.537606 275.137039 
L 385.58914 271.754306 
L 385.692207 250.966863 
L 386.259077 73.64616 
L 386.281163 74.000801 
L 386.340059 78.82938 
L 386.479936 126.896931 
L 386.91429 262.479069 
L 387.009996 273.882154 
L 387.061529 270.854062 
L 387.171959 249.302777 
L 387.716743 73.127838 
L 387.724105 73.182398 
L 387.797724 76.537851 
L 387.886068 100.380666 
L 388.489747 274.482317 
L 388.533919 271.399664 
L 388.65171 247.775091 
L 389.196494 73.918961 
L 389.225942 74.328162 
L 389.284838 77.820016 
L 389.395267 111.45639 
L 389.895879 267.989651 
L 389.962137 274.182235 
L 390.013671 270.772222 
L 390.138824 243.546674 
L 390.668884 73.67344 
L 390.705694 74.682804 
L 390.786675 83.93076 
L 391.191582 217.657851 
L 391.434527 274.673277 
L 391.478698 272.299908 
L 391.603851 247.856931 
L 392.148635 73.78256 
L 392.163359 73.83712 
L 392.222255 76.592411 
L 392.295874 92.551275 
L 392.92164 272.73639 
L 392.936364 272.354468 
L 393.024707 262.942831 
L 393.142498 224.014116 
L 393.628387 73.80984 
L 393.687283 76.101369 
L 393.760902 89.359502 
L 394.39403 272.572709 
L 394.438201 270.472141 
L 394.533907 255.986403 
L 395.108139 73.728 
L 395.218568 83.194198 
L 395.402617 151.230788 
L 395.814886 267.471329 
L 395.866419 271.481505 
L 395.925315 268.808054 
L 396.02102 252.68551 
L 396.580528 74.137202 
L 396.654148 77.465375 
L 396.735129 95.361126 
L 397.338809 270.908622 
L 397.346171 271.017743 
L 397.375619 270.2539 
L 397.478686 258.086972 
L 397.846783 134.508081 
L 398.06028 74.137202 
L 398.082366 74.491843 
L 398.155985 79.947865 
L 398.2885 124.496281 
L 398.487273 192.369191 
L 398.487273 192.369191 
" clip-path="url(#p2547c6bb7f)" style="fill: none; stroke: #1f77b4; stroke-width: 1.5; stroke-linecap: square"/>
   </g>
   <g id="patch_3">
    <path d="M 57.6 307.584 
L 57.6 41.472 
" style="fill: none; stroke: #000000; stroke-width: 0.8; stroke-linejoin: miter; stroke-linecap: square"/>
   </g>
   <g id="patch_4">
    <path d="M 414.72 307.584 
L 414.72 41.472 
" style="fill: none; stroke: #000000; stroke-width: 0.8; stroke-linejoin: miter; stroke-linecap: square"/>
   </g>
   <g id="patch_5">
    <path d="M 57.6 307.584 
L 414.72 307.584 
" style="fill: none; stroke: #000000; stroke-width: 0.8; stroke-linejoin: miter; stroke-linecap: square"/>
   </g>
   <g id="patch_6">
    <path d="M 57.6 41.472 
L 414.72 41.472 
" style="fill: none; stroke: #000000; stroke-width: 0.8; stroke-linejoin: miter; stroke-linecap: square"/>
   </g>
   <g id="text_14">
    <text style="font: 12px 'IPAexGothic'; text-anchor: middle" x="236.16" y="35.472" transform="rotate(-0 236.16 35.472)">"075_A3.wav"の波形グラフ</text>
   </g>
  </g>
 </g>
 <defs>
  <clipPath id="p2547c6bb7f">
   <rect x="57.6" y="41.472" width="357.12" height="266.112"/>
  </clipPath>
 </defs>
</svg>
